<?xml version="1.0" encoding="UTF-8"?>
<svg xmlns="http://www.w3.org/2000/svg" viewBox="0 0 36 43">
  <defs>
    <style>
      .cls-1 {
        fill: #fff;
      }

      .cls-2 {
        fill: #c04;
      }

      .cls-3 {
        fill: #ccc;
      }
    </style>
  </defs>
  <g id="Iconos">
    <g>
      <rect class="cls-1" x="1.29" y="1.25" width="31.24" height="37.78" rx=".75" ry=".75"/>
      <path class="cls-3" d="m31.78,1.5c.28,0,.5.22.5.5v36.28c0,.28-.22.5-.5.5H2.04c-.28,0-.5-.22-.5-.5V2c0-.28.22-.5.5-.5h29.74m0-.5H2.04c-.55,0-1,.45-1,1v36.28c0,.55.45,1,1,1h29.74c.55,0,1-.45,1-1V2c0-.55-.45-1-1-1h0Z"/>
    </g>
    <path class="cls-2" d="m32.78,9.27H1.04V2c0-.55.45-1,1-1h29.74c.55,0,1,.45,1,1v7.27Z"/>
    <g>
      <path class="cls-2" d="m25.07,13.92h-8.58c-.27,0-.5-.22-.5-.5s.22-.5.5-.5h8.58c.27,0,.5.22.5.5s-.22.5-.5.5Z"/>
      <path class="cls-2" d="m25.07,17.79h-8.58c-.27,0-.5-.22-.5-.5s.22-.5.5-.5h8.58c.27,0,.5.22.5.5s-.22.5-.5.5Z"/>
      <path class="cls-2" d="m25.07,25.53H8.75c-.27,0-.5-.22-.5-.5s.22-.5.5-.5h16.32c.27,0,.5.22.5.5s-.22.5-.5.5Z"/>
      <path class="cls-2" d="m25.07,29.4H8.75c-.27,0-.5-.22-.5-.5s.22-.5.5-.5h16.32c.27,0,.5.22.5.5s-.22.5-.5.5Z"/>
      <path class="cls-2" d="m25.07,21.66H8.75c-.27,0-.5-.22-.5-.5s.22-.5.5-.5h16.32c.27,0,.5.22.5.5s-.22.5-.5.5Z"/>
      <rect class="cls-2" x="8.26" y="12.93" width="4.86" height="4.86" rx=".5" ry=".5"/>
    </g>
    <g>
      <circle class="cls-2" cx="29.23" cy="36.19" r="6.47"/>
      <polygon class="cls-1" points="30.41 36.53 30.41 33.1 28.06 33.1 28.06 36.53 26.15 36.53 29.23 40.4 32.31 36.53 30.41 36.53"/>
    </g>
  </g>
  <g id="Textos">
    <g>
      <path class="cls-1" d="m6.79,3.08c.32.14.56.34.72.6s.25.57.25.93-.08.66-.25.93-.41.47-.72.61c-.31.14-.68.21-1.11.21h-1.11v1.41h-.91V2.87h2.02c.42,0,.79.07,1.11.21Zm-.25,2.25c.21-.17.31-.41.31-.72s-.1-.55-.31-.72-.51-.25-.9-.25h-1.06v1.95h1.06c.4,0,.7-.08.9-.25Z"/>
      <path class="cls-1" d="m8.68,2.87h2.14c.52,0,.99.1,1.39.3.41.2.72.49.94.86.22.37.34.8.34,1.28s-.11.91-.34,1.28c-.22.37-.54.66-.94.86s-.87.3-1.39.3h-2.14V2.87Zm2.1,4.13c.36,0,.68-.07.95-.21.27-.14.48-.33.63-.59.15-.25.22-.55.22-.89s-.07-.63-.22-.89c-.15-.25-.36-.45-.63-.59-.27-.14-.59-.21-.95-.21h-1.19v3.36h1.19Z"/>
      <path class="cls-1" d="m15.37,3.63v1.49h2.37v.77h-2.37v1.88h-.91V2.87h3.58v.76h-2.67Z"/>
    </g>
  </g>
</svg>