<?xml version="1.0" encoding="UTF-8"?>
<svg xmlns="http://www.w3.org/2000/svg" viewBox="0 0 500 80">
  <defs>
    <style>
      .cls-1 {
        fill: #fff;
      }

      .cls-2 {
        fill: #9cc3d7;
      }

      .cls-3 {
        fill: #00699b;
      }

      .cls-4 {
        fill: #4c4d4d;
      }
    </style>
  </defs>
  <g id="Fondo_blanco" data-name="Fondo blanco">
    <rect class="cls-1" y="0" width="500" height="80"/>
  </g>
  <g id="Formas">
    <g>
      <polygon id="Forma_2" data-name="Forma 2" class="cls-3" points="78.7 80 0 80 0 0 52.47 0 78.7 80"/>
      <polygon id="Forma_1" data-name="Forma 1" class="cls-2" points="72.89 44.51 73.02 0 58.28 0 72.89 44.51"/>
    </g>
  </g>
  <g id="Textos">
    <g>
      <path class="cls-4" d="m100.94,40.54c0-4.93,3.78-8.46,8.88-8.46,2.83,0,5.19,1.03,6.73,2.9l-2.43,2.24c-1.1-1.26-2.48-1.92-4.11-1.92-3.06,0-5.23,2.15-5.23,5.23s2.17,5.23,5.23,5.23c1.64,0,3.01-.65,4.11-1.94l2.43,2.24c-1.54,1.89-3.9,2.92-6.75,2.92-5.07,0-8.85-3.53-8.85-8.46Z"/>
      <path class="cls-4" d="m130.09,41.54v7.17h-3.41v-1.57c-.68,1.14-1.99,1.75-3.83,1.75-2.94,0-4.7-1.63-4.7-3.81s1.57-3.76,5.4-3.76h2.9c0-1.56-.93-2.48-2.9-2.48-1.33,0-2.71.44-3.62,1.17l-1.31-2.55c1.38-.98,3.41-1.52,5.42-1.52,3.83,0,6.05,1.78,6.05,5.58Zm-3.64,3.2v-1.29h-2.5c-1.71,0-2.24.63-2.24,1.47,0,.91.77,1.52,2.06,1.52,1.21,0,2.27-.56,2.69-1.71Zm-1.31-10.21h-2.85l3.15-3.36h3.92l-4.23,3.36Z"/>
      <path class="cls-4" d="m133.62,31.38h3.64v17.33h-3.64v-17.33Z"/>
      <path class="cls-4" d="m139.96,42.43c0-3.79,2.92-6.47,7.01-6.47,2.64,0,4.72,1.15,5.63,3.2l-2.83,1.52c-.68-1.19-1.68-1.73-2.83-1.73-1.85,0-3.29,1.29-3.29,3.48s1.45,3.48,3.29,3.48c1.15,0,2.15-.51,2.83-1.73l2.83,1.54c-.91,2.01-2.99,3.18-5.63,3.18-4.09,0-7.01-2.69-7.01-6.47Z"/>
      <path class="cls-4" d="m167.6,36.15v12.57h-3.46v-1.5c-.96,1.1-2.36,1.68-3.9,1.68-3.15,0-5.37-1.78-5.37-5.65v-7.1h3.64v6.56c0,2.1.93,3.04,2.55,3.04s2.9-1.08,2.9-3.39v-6.21h3.65Z"/>
      <path class="cls-4" d="m171.22,31.38h3.64v17.33h-3.64v-17.33Z"/>
      <path class="cls-4" d="m177.55,42.43c0-3.79,2.92-6.47,6.92-6.47s6.89,2.69,6.89,6.47-2.9,6.47-6.89,6.47-6.92-2.69-6.92-6.47Zm10.12,0c0-2.17-1.38-3.48-3.2-3.48s-3.22,1.31-3.22,3.48,1.4,3.48,3.22,3.48,3.2-1.31,3.2-3.48Z"/>
    </g>
  </g>
</svg>