<?xml version="1.0" encoding="UTF-8" standalone="no"?>
<!-- Generator: Adobe Illustrator 16.0.0, SVG Export Plug-In . SVG Version: 6.00 Build 0)  -->

<svg
   version="1.1"
   id="Capa_1"
   x="0px"
   y="0px"
   width="1920px"
   height="1080px"
   viewBox="0 0 1920 1080"
   enable-background="new 0 0 1920 1080"
   xml:space="preserve"
   sodipodi:docname="indice_white.svg"
   inkscape:version="1.2.2 (b0a84865, 2022-12-01)"
   xmlns:inkscape="http://www.inkscape.org/namespaces/inkscape"
   xmlns:sodipodi="http://sodipodi.sourceforge.net/DTD/sodipodi-0.dtd"
   xmlns="http://www.w3.org/2000/svg"
   xmlns:svg="http://www.w3.org/2000/svg"><defs
   id="defs177" /><sodipodi:namedview
   id="namedview175"
   pagecolor="#ffffff"
   bordercolor="#000000"
   borderopacity="0.25"
   inkscape:showpageshadow="2"
   inkscape:pageopacity="0.0"
   inkscape:pagecheckerboard="0"
   inkscape:deskcolor="#d1d1d1"
   showgrid="false"
   inkscape:zoom="0.21851852"
   inkscape:cx="963.30508"
   inkscape:cy="540"
   inkscape:window-width="1367"
   inkscape:window-height="456"
   inkscape:window-x="0"
   inkscape:window-y="25"
   inkscape:window-maximized="0"
   inkscape:current-layer="Capa_1" />
<path
   fill="#FFFFFF"
   d="M532.105,314.604c13.164-13.197,34.533-13.224,47.729-0.061c0.021,0.021,0.04,0.04,0.061,0.061L961,695.777  l381.105-381.173c13.197-13.197,34.593-13.197,47.79,0s13.197,34.593,0,47.79l-405,405c-13.163,13.197-34.533,13.224-47.729,0.061  c-0.021-0.021-0.04-0.04-0.061-0.061l-405-405c-13.197-13.163-13.224-34.533-0.061-47.729  C532.065,314.645,532.085,314.625,532.105,314.604z"
   id="path172"
   style="fill:#000080" />
</svg>
