<?xml version="1.0" encoding="UTF-8"?>
<svg xmlns="http://www.w3.org/2000/svg" width="226" height="226" viewBox="0 0 226 226">
  <defs>
    <style>
      .uuid-9f65b7a9-3535-41bd-aae4-c75d9a4c1008 {
        fill: #cce1eb;
      }

      .uuid-016e9e76-153f-4038-983b-b58581b88128 {
        fill: #fff;
      }

      .uuid-407dc0c5-3432-417e-9c35-a7882a1a6bb0 {
        fill: #002949;
      }

      .uuid-302d997d-3a37-46bc-84c4-c37945632e05 {
        fill: #18406f;
      }
    </style>
  </defs>
  <g id="uuid-68d6e11f-6e19-4534-877c-09800ecfd3cb" data-name="Btns">
    <g>
      <circle class="uuid-9f65b7a9-3535-41bd-aae4-c75d9a4c1008" cx="113" cy="113" r="103.48"/>
      <path class="uuid-407dc0c5-3432-417e-9c35-a7882a1a6bb0" d="m113,12.52c55.5,0,100.48,44.99,100.48,100.48h0c0,55.5-44.99,100.48-100.48,100.48h0c-55.5,0-100.48-44.99-100.48-100.48h0C12.52,57.5,57.5,12.52,113,12.52h0m0-6C54.29,6.52,6.52,54.29,6.52,113s47.77,106.48,106.48,106.48,106.48-47.77,106.48-106.48S171.71,6.52,113,6.52h0Z"/>
    </g>
  </g>
  <g id="uuid-dab5f26d-d670-4ce1-baff-905896585406" data-name="Capa 3">
    <path class="uuid-302d997d-3a37-46bc-84c4-c37945632e05" d="m182.42,103.25l-96.2-55.54c-7.96-4.6-17.91,1.15-17.91,10.34v111.09c0,9.19,9.95,14.94,17.91,10.34l96.2-55.54c7.96-4.6,7.96-16.09,0-20.69Z"/>
    <g>
      <path class="uuid-016e9e76-153f-4038-983b-b58581b88128" d="m129.29,113.04c-.22,0-.45-.03-.68-.09-1.41-.37-2.26-1.82-1.89-3.23l5.02-19.09c.37-1.41,1.82-2.26,3.23-1.89,1.41.37,2.26,1.82,1.89,3.23l-5.02,19.09c-.31,1.19-1.39,1.97-2.56,1.97Z"/>
      <path class="uuid-016e9e76-153f-4038-983b-b58581b88128" d="m101.3,127.49c-.22,0-.45-.03-.68-.09l-19.09-5.02c-1.41-.37-2.26-1.82-1.89-3.23.37-1.41,1.82-2.26,3.23-1.89l19.09,5.02c1.41.37,2.26,1.82,1.89,3.23-.31,1.19-1.39,1.97-2.56,1.97Z"/>
      <g>
        <path class="uuid-016e9e76-153f-4038-983b-b58581b88128" d="m138.02,124.3c-.91,0-1.8-.47-2.29-1.31-.74-1.26-.31-2.88.95-3.62l17.05-9.94c1.26-.73,2.88-.31,3.62.95s.31,2.88-.95,3.62l-17.05,9.94c-.42.24-.88.36-1.33.36Z"/>
        <path class="uuid-016e9e76-153f-4038-983b-b58581b88128" d="m88.79,152.99c-.91,0-1.8-.47-2.29-1.31-.74-1.26-.31-2.88.95-3.62l17.05-9.94c1.26-.74,2.88-.31,3.62.95.74,1.26.31,2.88-.95,3.62l-17.05,9.94c-.42.24-.88.36-1.33.36Z"/>
      </g>
      <path class="uuid-016e9e76-153f-4038-983b-b58581b88128" d="m111.12,111.88c-.91,0-1.8-.47-2.29-1.31l-9.94-17.05c-.74-1.26-.31-2.88.95-3.62,1.26-.73,2.88-.31,3.62.95l9.94,17.05c.74,1.26.31,2.88-.95,3.62-.42.24-.88.36-1.33.36Z"/>
    </g>
    <g>
      <path class="uuid-407dc0c5-3432-417e-9c35-a7882a1a6bb0" d="m171.27,220.11c-9.55,0-16.48-4.69-20.61-8.63l-1.62-1.55c-10.19-9.74-21.73-20.78-35.98-22.02-4.64-.4-8.43-3.68-9.21-7.97-.81-4.42,1.47-8.81,5.54-10.67,1.26-.58,2.66-.88,4.06-.88.25,0,.5,0,.75.03,5.62.43,11.1,1.72,16.34,3.84l-19.01-41.51c-1.17-2.55-1.25-5.4-.23-8.01,1.02-2.61,3-4.66,5.59-5.75,1.22-.52,2.51-.78,3.84-.78,4.11,0,7.9,2.48,9.66,6.31l10.61,23.17c.02-.05.04-.11.06-.16,1.02-2.62,3-4.66,5.59-5.75,1.22-.52,2.52-.78,3.84-.78,2.68,0,5.23,1.05,7.17,2.85.11-.46.25-.91.43-1.36,1.02-2.62,3-4.66,5.59-5.75,1.22-.52,2.52-.78,3.84-.78,3.06,0,5.94,1.37,7.94,3.66,1.07-2.51,3.11-4.53,5.77-5.55,1.14-.44,2.33-.66,3.55-.66,4.1,0,7.88,2.47,9.63,6.29l14.68,32.07c.94,2.05,3.4,9.98,2.39,19.16-.84,7.64-4.4,17.92-16.63,23.52l-9.62,4.4c-4.73,2.17-9.43,3.26-13.98,3.26h0Z"/>
      <path class="uuid-016e9e76-153f-4038-983b-b58581b88128" d="m120.73,117.71c3.45,0,6.77,2.11,8.3,5.43l13.63,29.77c-2.06-4.49,0-9.82,4.58-11.76,1.06-.45,2.17-.66,3.26-.66,3.45,0,6.77,2.11,8.3,5.43l.89,1.95c-2.06-4.49,0-9.82,4.58-11.76,1.06-.45,2.17-.66,3.26-.66,3.45,0,6.77,2.11,8.3,5.43l.33.71c.03-3.48,2.12-6.79,5.63-8.14.99-.38,2.01-.56,3.01-.56,3.45,0,6.75,2.11,8.26,5.41l3.13,6.83,10.71,23.38.85,1.85c2.17,4.74,8.37,30.68-13.49,40.69l-9.62,4.4c-4.91,2.25-9.37,3.13-13.36,3.13-9.29,0-15.98-4.78-19.58-8.22-10.7-10.2-22.95-22.62-38.5-23.97-3.82-.33-7.17-2.97-7.86-6.75-.7-3.84,1.31-7.5,4.69-9.04,1.07-.49,2.25-.75,3.43-.75.21,0,.42,0,.63.02,6.76.52,13.39,2.35,19.48,5.34l-20.67-45.13c-2.06-4.49,0-9.82,4.58-11.76,1.06-.45,2.17-.66,3.26-.66m0-3s0,0,0,0c-1.53,0-3.02.3-4.42.9-2.97,1.25-5.24,3.59-6.41,6.59-1.17,3-1.07,6.26.27,9.18l17.51,38.23c-4.33-1.44-8.8-2.34-13.36-2.69-.29-.02-.58-.03-.86-.03-1.61,0-3.23.35-4.68,1.02-4.69,2.15-7.32,7.21-6.39,12.31.9,4.96,5.24,8.74,10.55,9.2,13.72,1.19,25.06,12.03,35.07,21.6l1.62,1.55c3.54,3.38,11.07,9.04,21.65,9.04,4.77,0,9.68-1.14,14.61-3.4l9.62-4.4c24.19-11.08,17.33-39.53,14.97-44.67l-.85-1.85-10.71-23.38-3.13-6.83c-1.99-4.35-6.31-7.17-10.99-7.17-1.4,0-2.78.26-4.09.76-2.36.91-4.3,2.5-5.62,4.51-2.12-1.72-4.77-2.71-7.56-2.71-1.53,0-3.02.3-4.42.9-2.78,1.17-4.95,3.3-6.17,6.03-1.9-1.21-4.12-1.89-6.43-1.89-1.53,0-3.02.3-4.42.9-2.02.85-3.72,2.21-4.96,3.93l-9.35-20.43c-2-4.36-6.33-7.18-11.02-7.19h0Z"/>
    </g>
  </g>
</svg>