<?xml version="1.0" encoding="UTF-8"?>
<svg id="uuid-d2dea538-3d3f-4054-aa74-6d693f434933" data-name="Btns" xmlns="http://www.w3.org/2000/svg" width="45" height="45" viewBox="0 0 45 45">
  <defs>
    <style>
      .uuid-946a1b7b-4e7c-4171-b9f6-9cff75a98ce9 {
        fill: #cce1eb;
      }

      .uuid-9fd0fcb3-7651-40e9-86f1-d526d09f6500 {
        fill: #fff;
      }

      .uuid-856ae3b9-b52d-4f83-bed8-adcb55ff7b26 {
        fill: #002949;
      }

      .uuid-2a397ab2-5310-48c9-888d-36ca85a023ca {
        fill: #00699b;
      }
    </style>
  </defs>
  <g>
    <path class="uuid-946a1b7b-4e7c-4171-b9f6-9cff75a98ce9" d="m22.5,43.43c-11.54,0-20.93-9.39-20.93-20.93S10.96,1.57,22.5,1.57s20.93,9.39,20.93,20.93-9.39,20.93-20.93,20.93Z"/>
    <path class="uuid-856ae3b9-b52d-4f83-bed8-adcb55ff7b26" d="m22.5,2.48c11.06,0,20.02,8.96,20.02,20.02s-8.96,20.02-20.02,20.02h0c-11.06,0-20.02-8.96-20.02-20.02S11.44,2.48,22.5,2.48h0m0-1.82C10.46.66.66,10.46.66,22.5s9.8,21.84,21.84,21.84,21.84-9.8,21.84-21.84S34.54.66,22.5.66h0Z"/>
  </g>
  <g>
    <g>
      <path class="uuid-856ae3b9-b52d-4f83-bed8-adcb55ff7b26" d="m29.06,37.35c-2.01,0-3.46-.98-4.33-1.81l-.34-.32c-2.09-2-4.45-4.26-7.35-4.51-1.01-.09-1.83-.8-2-1.74-.18-.96.32-1.92,1.21-2.32.28-.13.58-.19.89-.19.05,0,.11,0,.16,0,1.08.08,2.13.32,3.14.7l-3.8-8.31c-.25-.55-.27-1.17-.05-1.74.22-.57.65-1.01,1.22-1.25.27-.11.55-.17.84-.17.89,0,1.72.54,2.1,1.37l2.08,4.55c.24-.47.63-.84,1.12-1.05.27-.11.55-.17.84-.17.52,0,1.02.18,1.42.5.01-.04.03-.08.04-.12.22-.57.65-1.01,1.22-1.25.27-.11.55-.17.84-.17.61,0,1.18.25,1.61.67.25-.47.66-.85,1.18-1.05.25-.1.51-.14.77-.14.89,0,1.71.54,2.09,1.36l3.03,6.61c.47,1.03,1.85,6.74-2.99,8.95l-1.98.91c-.99.45-1.98.68-2.93.68h0Z"/>
      <path class="uuid-9fd0fcb3-7651-40e9-86f1-d526d09f6500" d="m18.63,16.12c.71,0,1.4.44,1.71,1.12l2.81,6.14c-.42-.93,0-2.03.94-2.42.22-.09.45-.14.67-.14.71,0,1.4.44,1.71,1.12l.18.4c-.42-.93,0-2.03.94-2.42.22-.09.45-.14.67-.14.71,0,1.4.44,1.71,1.12l.07.15c0-.72.44-1.4,1.16-1.68.2-.08.41-.12.62-.12.71,0,1.39.43,1.7,1.12l.65,1.41,2.21,4.82.18.38c.45.98,1.73,6.33-2.78,8.39l-1.98.91c-1.01.46-1.93.65-2.76.65-1.92,0-3.29-.99-4.04-1.69-2.21-2.1-4.73-4.67-7.94-4.94-.79-.07-1.48-.61-1.62-1.39-.14-.79.27-1.55.97-1.86.22-.1.46-.15.71-.15.04,0,.09,0,.13,0,1.4.11,2.76.49,4.02,1.1l-4.26-9.31c-.42-.93,0-2.03.94-2.42.22-.09.45-.14.67-.14m0-.85v.85s0-.85,0-.85c-.35,0-.68.07-1,.2-.67.28-1.18.81-1.44,1.49-.26.68-.24,1.41.06,2.07l3.4,7.42c-.76-.22-1.53-.35-2.32-.41-.06,0-.13,0-.2,0-.36,0-.73.08-1.06.23-1.06.49-1.66,1.63-1.45,2.79.2,1.12,1.18,1.98,2.38,2.08,2.75.24,5.06,2.45,7.1,4.39l.33.32c.76.72,2.36,1.93,4.62,1.93,1.02,0,2.06-.24,3.11-.72l1.98-.91c4.77-2.18,4.01-7.74,3.2-9.51l-.18-.38-2.21-4.82-.65-1.41c-.45-.98-1.42-1.61-2.47-1.61-.32,0-.63.06-.93.17-.45.18-.84.46-1.13.82-.44-.3-.96-.47-1.51-.47-.35,0-.68.07-1,.2-.55.23-.99.63-1.28,1.14-.38-.19-.8-.3-1.23-.3-.35,0-.68.07-1,.2-.34.14-.63.35-.88.6l-1.78-3.89c-.45-.98-1.42-1.61-2.48-1.61h0Z"/>
    </g>
    <g>
      <g>
        <path class="uuid-2a397ab2-5310-48c9-888d-36ca85a023ca" d="m21.26,15.61c-.13,0-.26-.02-.38-.05-.79-.21-1.26-1.02-1.06-1.81l1.31-4.98c.1-.38.35-.71.69-.91.23-.13.49-.2.75-.2.13,0,.26.02.38.05.79.21,1.27,1.02,1.06,1.82l-1.31,4.98c-.17.65-.76,1.11-1.44,1.11Z"/>
        <path class="uuid-9fd0fcb3-7651-40e9-86f1-d526d09f6500" d="m22.57,8.08c.09,0,.18.01.27.04.57.15.91.73.76,1.3l-1.31,4.98c-.12.47-.54.79-1.03.79-.09,0-.18-.01-.27-.04-.57-.15-.91-.73-.76-1.3l1.31-4.98c.07-.27.25-.5.49-.65.16-.1.35-.15.53-.15m0-.85c-.34,0-.67.09-.96.26-.44.26-.76.67-.89,1.16l-1.31,4.98c-.27,1.02.34,2.06,1.36,2.33.16.04.32.06.49.06.87,0,1.63-.59,1.85-1.42l1.31-4.98c.27-1.02-.34-2.06-1.36-2.33-.16-.04-.33-.06-.49-.06h0Z"/>
      </g>
      <g>
        <path class="uuid-2a397ab2-5310-48c9-888d-36ca85a023ca" d="m13.95,19.37c-.12,0-.25-.02-.37-.05l-4.99-1.31c-.79-.21-1.27-1.02-1.06-1.81.17-.65.76-1.11,1.44-1.11.13,0,.25.02.37.05l4.98,1.31c.79.21,1.27,1.02,1.06,1.82-.17.65-.76,1.11-1.44,1.11Z"/>
        <path class="uuid-9fd0fcb3-7651-40e9-86f1-d526d09f6500" d="m8.97,15.51c.09,0,.18.01.27.03l4.98,1.31c.57.15.91.73.76,1.3-.12.47-.55.79-1.03.79-.09,0-.18-.01-.27-.03l-4.98-1.31c-.57-.15-.91-.73-.76-1.3.13-.48.56-.79,1.03-.79m0-.85c-.87,0-1.63.58-1.85,1.42-.27,1.02.34,2.06,1.36,2.33l4.98,1.31c.17.04.32.06.48.06.87,0,1.63-.59,1.85-1.42.27-1.02-.34-2.06-1.36-2.33l-4.98-1.31c-.16-.04-.32-.06-.48-.06h0Z"/>
      </g>
      <g>
        <path class="uuid-2a397ab2-5310-48c9-888d-36ca85a023ca" d="m23.53,18.54c-.53,0-1.02-.28-1.29-.74-.2-.34-.25-.74-.15-1.13.1-.38.35-.71.69-.91l4.45-2.59c.23-.13.48-.2.75-.2.53,0,1.02.28,1.29.74.2.34.25.74.15,1.13-.1.38-.35.71-.69.91l-4.45,2.59c-.23.13-.49.2-.75.2Z"/>
        <path class="uuid-9fd0fcb3-7651-40e9-86f1-d526d09f6500" d="m27.98,13.4c.37,0,.72.19.92.53.3.51.12,1.16-.38,1.45l-4.45,2.59c-.16.1-.35.15-.53.15-.38,0-.73-.2-.92-.53-.14-.25-.18-.53-.11-.81s.25-.5.49-.65l4.45-2.59c.17-.1.35-.14.53-.14m0-.85c-.34,0-.67.09-.96.26l-4.45,2.59c-.44.26-.75.67-.88,1.16-.13.49-.06,1.01.2,1.45.34.58.97.95,1.65.95.34,0,.67-.09.96-.26l4.45-2.59c.44-.26.75-.67.88-1.16.13-.49.06-1.01-.2-1.45-.34-.58-.97-.95-1.65-.95h0Z"/>
      </g>
      <g>
        <path class="uuid-2a397ab2-5310-48c9-888d-36ca85a023ca" d="m10.69,26.03c-.53,0-1.02-.28-1.28-.74-.2-.34-.25-.74-.15-1.13.1-.38.35-.71.69-.91l4.45-2.59c.23-.13.48-.2.75-.2.53,0,1.02.28,1.29.74.41.71.17,1.62-.54,2.03l-4.45,2.59c-.23.13-.49.2-.75.2Z"/>
        <path class="uuid-9fd0fcb3-7651-40e9-86f1-d526d09f6500" d="m15.14,20.88c.37,0,.72.19.92.53.29.51.12,1.16-.38,1.45l-4.45,2.59c-.16.1-.35.15-.53.15-.38,0-.73-.2-.92-.53-.3-.51-.12-1.16.38-1.45l4.45-2.59c.17-.1.35-.15.53-.15m0-.85c-.34,0-.67.09-.96.26l-4.45,2.59c-.44.26-.75.67-.88,1.16-.13.49-.06,1.01.2,1.45.34.58.97.95,1.65.95.34,0,.67-.09.96-.26l4.45-2.6c.91-.53,1.22-1.7.69-2.61-.34-.58-.97-.95-1.65-.95h0Z"/>
      </g>
      <g>
        <path class="uuid-2a397ab2-5310-48c9-888d-36ca85a023ca" d="m16.51,15.3c-.53,0-1.02-.28-1.28-.74l-2.59-4.45c-.2-.34-.25-.74-.15-1.13.1-.38.35-.71.69-.9.23-.13.48-.2.75-.2.53,0,1.02.28,1.29.74l2.59,4.45c.2.34.25.74.15,1.13-.1.38-.35.71-.69.91-.23.13-.49.2-.75.2Z"/>
        <path class="uuid-9fd0fcb3-7651-40e9-86f1-d526d09f6500" d="m13.92,8.31c.37,0,.72.19.92.53l2.59,4.45c.14.25.18.53.11.81-.07.27-.25.5-.49.65-.16.1-.35.15-.53.15-.38,0-.73-.2-.92-.53l-2.59-4.45c-.14-.25-.18-.53-.11-.81.07-.27.25-.5.49-.65.17-.1.35-.14.53-.14m0-.85c-.34,0-.67.09-.96.26-.44.26-.75.67-.88,1.16-.13.49-.06,1.01.2,1.45l2.59,4.45c.34.58.97.95,1.65.95.34,0,.67-.09.96-.26.44-.26.76-.67.89-1.16.13-.5.06-1.01-.2-1.45l-2.59-4.45c-.34-.58-.97-.95-1.65-.95h0Z"/>
      </g>
    </g>
  </g>
</svg>