<?xml version="1.0" encoding="UTF-8"?>
<svg xmlns="http://www.w3.org/2000/svg" viewBox="0 0 600 45">
  <defs>
    <style>
      .cls-1 {
        fill: none;
        stroke: #fff;
        stroke-linecap: round;
        stroke-linejoin: round;
        stroke-width: 1.76px;
      }

      .cls-2, .cls-3 {
        fill: #fff;
      }

      .cls-3 {
        fill-rule: evenodd;
      }

      .cls-4 {
        fill: #8fbbd2;
      }

      .cls-5 {
        fill: #00699b;
      }
    </style>
  </defs>
  <g id="Fondo_blanco" data-name="Fondo blanco">
    <rect class="cls-2" y="0" width="600" height="45.07"/>
  </g>
  <g id="Formas">
    <polygon class="cls-5" points="112.48 45 0 45 0 0 96.76 0 112.48 45"/>
    <polygon class="cls-4" points="102.61 .11 117.57 45.07 599 45.07 583.3 .11 102.61 .11"/>
    <g>
      <path class="cls-2" d="m20.16,19.71h.02s1.86-4.86,1.86-4.86l-1.11.26-.35.9-3.14.71-.27-.71-.14.03,1.18,2.98c.74.07,1.38.25,1.97.69m.35-3.54l-1.09,2.77c-.57-.07-1.15-.04-1.15-.04l-.79-2.06,3.03-.67Z"/>
      <path class="cls-2" d="m22.76,32.76c.12-.21.23-.43.34-.65l-1.97-4.97-.26-.67c-.11.18-.23.35-.36.51l.22.57,2.03,5.22Z"/>
      <polygon class="cls-2" points="9.28 15.82 9.45 16.14 9.8 16.55 9.8 14.61 9.72 14.57 9.28 15.82"/>
      <path class="cls-2" d="m29.29,24.6l-.11-.02c0,.44-.03.86-.05,1.29l-1.66-.31c.03-.44.06-.89.06-1.34l1.65.36v-.13s-1.54-.38-1.54-.38l.86-.07.69-.21.08-.03.09.03,1.29.35-1.53.32.1.18.14-.06,1.72-.43.02-1.21-1.75-.51h-.01c0-.35-.02-.69-.04-1.03l.7-.34.93-.63-.12-1.24-1.8-.75h0s-.04-.2-.04-.2l.56-.44.95-1.14-.43-1.17-1.84-.87-.28.13.17-.27,1.73-.39v-1.33l-.91-.51v-7.2h0s-1.6-1.16-1.6-1.16l-1.38.54v1.72l-1.62-1.09-1.31.51v7.42l-1.99.51v-1.26l1.07-.33c.65-.21.68-.61.68-.84v-2.89c0-.64-.36-.85-.36-.85l-.85-.53c-.68-.44-1.13-.23-1.13-.23l-2.12.81v1.37l-.27-.14v-2.22l-3.22-1.81v.18l.94.53v2.59l-.94-.49v-2.62h0v-.18l-1.31.59v2.71l1.22-.47v.25l-1.22.46v2.8l1.22-.41v.25l-1.22.4v2.86l1.22-.34v.25l-1.22.34v2.76l1.31-.3v-2.64h0v-.19l.77.4v.57l-.46.12v1.23l12.82-3.12,1.62.83-1.62.37-1.19-.62-3.83.93c.11.22.22.44.32.67l.04.09-.13.03h0l-.09-.21-2.02,5.15-.15-.04.3-.76,1.1-2.8.28-.71.14-.37.07-.18.2-.5c-.07-.14-.13-.27-.17-.34l-.58.13-.35.91-.07.17-.11.29-.03.07-1.05,2.75-.32.83-.05.14-.07.17-.07-.02-.09-.02.09-.24c-.55-.43-1.21-.7-1.92-.77l-.19-.02-.48-1.24-.69-1.76-.51.12.4,1.04c-.06-.08-.14-.13-.23-.13h-.01v-.04s-.33-.83-.33-.83l-1.02.24v.44l.42,1.07c-.06.09-.09.19-.09.3,0,.19.1.36.24.46v1.13l-.97.15h-.04s-.29.18-.29.18l-.89.16v.33l-.24.13v-.42l-1.01.18v.8l-.24.13v-.89l-.86.15v1.21l-.24.13v-1.3l-.97.17v1.66l-.17.09v-4.55l-.51-.2-.66.02-.26,1.11.5.5.86.49c-.05.38-.1.77-.14,1.16l-.59-.08-.95.19-.1,1.08.9.52.38.07-1.04.57-.07.18.15.11,1.18-.13c0,.14,0,.28-.01.42l.34-.45,1.11,1.51v7.48c.07.21.16.42.25.62h-.27s0-.62,0-.62c-.05-.11-.09-.22-.13-.33-.03-.08-.06-.15-.09-.22v-6.86s-.9-1.25-.9-1.25l-.89,1.16v1.38s.64.11.64.11c.03.37.07.74.11,1.09l.12.99.19.8c.04.21.09.42.14.63l-.99-.05.85-.58c-.12-.58-.22-1.17-.3-1.79l-.76.54v1.99s1.25.07,1.25.07c.03.13.07.25.1.38l-.76.85-.39.86.41,1.03h1.18s0,1.19,0,1.19l.22-.51h0v-.69h.35s.05,0,.05,0l-.03.05-.37.64v1.05c-.07-.02-.14-.05-.22-.07v-.48l-.18.43c-.22-.05-.47-.07-.73-.07-.32,0-.63.04-.89.11v-4.86s-.13,0-.13,0l-.07-.02-.02,4.95c-.46.17-.76.43-.76.72,0,.5.83.9,1.87.9.77,0,1.44-.22,1.72-.55l1.2-.05-.25.7v1.19s.5.52.5.52l1.72-.16v.04s.07,1.44.07,1.44l.68.36,1.67-.19.23.72.79.14,1.93-.21.02.06v.03s.04.07.04.07h.7s1.19-.19,1.19-.19l.81-.26.12-.58,1.66-.19.82-.66c1.11-.11,1.94-.57,1.94-1.12,0-.13-.05-.26-.14-.38l.59-.74-.29-1.33-.34-.59,1.73-.07.5-.94-.47-1.21-.62-.83c.04-.14.08-.28.12-.42l1.68.06.26-1.15-.66-.83-.71-.59c.06-.34.11-.69.16-1.05l.56.11,1.14-.11.2-1.08-.89-.64-.81-.34c.02-.43.04-.87.05-1.32l-.06.02Zm.05-2.01l1.62.47v.97s-1.6-.41-1.6-.41l-.03-1.04h.01Zm-3.39-14.1l-1.51-3.11,1.51.99v2.13Zm-1.62.2l1.62,3.52v.02l-1.62.42v-3.96Zm-4.69-.25l.46.25v1.09l-.12.17-.34.11v-1.62Zm1.04,3.65c.27.13.23.41.23.41v1.04l-1.27.33v-2.25c.31.14.85.38,1.04.47m.27-.98c.5-.18.47-.73.47-.73,0,0,.01-2.93.01-3.2s-.13-.38-.13-.38c0,0,.59.36.99.6.41.24.38.83.38.83v2.84c0,.49-.58.7-.58.7l-1.07.34-1.24-.59s.66-.24,1.16-.41m-.96-2.94h0l.12.1v.27l-.46-.25h0s.34-.12.34-.12Zm-2.04.38l-.77-.41v-2.06l.77.43v2.04Zm-1.4-.46v-2.36l.5.28v2.06l-.2-.1-.31.12Zm-.64-2.72l.51.29v2.48l-.09.03-.42-.22v-2.58Zm-1.07,2.27l1.23.64-.46.18v2.45l-.77-.4v-.17h0v-2.5h0v-.2Zm0,6.05v-.17h0v-2.57h0s0-.18,0-.18l.77.4v2.93l-.77-.4Zm2.01-5.51l1.48.8v5.23l-1.48.38v-6.42Zm10.47,3.71v-7.73l1.44,1.01v7.01l-.8-.45-.64.17Zm.64-.02l1.7.96v1.07l-1.7-.91v-1.12Zm-18.97,14.68l.47-.09.02.16-.49-.07Zm1.65,6.88l-1.01.02.7-.54.31-.35v.87Zm17.34-5.67l.95.18c-.04.36-.1.71-.16,1.06l-1.77-.18c.09-.43.17-.87.24-1.32l.74.25Zm-1.49,4.09h0s0,0,0,0v-1.06c-.07.23-.14.46-.22.68v.37h0s0,0,0,0h-.13c.05-.13.09-.25.13-.37v-7.25l-1.15-1.69-.17-.24-.18.3-.52.86.53-.05v.2s0,.03,0,.03l-.68.06-.31.52v.14l.99-.09c-.06,2.14-.4,4.16-.95,5.92l.04,5.82-.22.28-.04-5.44c-.11.31-.23.61-.35.9l-1.93-4.85c.53-.68.92-1.5,1.1-2.41l1.14-.1v-.16l.3-.5-3.48.32c-.04.42-.13.83-.26,1.2-.05.15-.11.28-.17.42l.17.43.28.72c.13-.16.24-.34.35-.52l.11-.19c.25-.46.44-.96.57-1.49h.17c-.14.61-.36,1.19-.66,1.7l.28.71,1.94,4.91v-.02s0,.02,0,.02h0c-.16.38-.34.74-.53,1.08v-.03s-2.07-5.29-2.07-5.29l-.29-.72h0s-.16-.41-.16-.41l-.27-.69s-.27-.05-.51.14c-.17.13-.28.31-.32.39-.1-.13-.22-.26-.34-.37.47-.44.82-1.13.94-1.92.01-.08.02-.15.03-.23.01-.13.02-.26.02-.4,0-.27-.03-.52-.07-.77l.54-.06-.02.05c-.05.17-.13.5,0,.81.04.11.11.21.21.31l2.19-.2,1.48-.13.73-1.22.08-.13.22-.03.14.2,1.3,1.93v6.57l.06-.21.84.69.81.23c-.04.15-.08.3-.13.44l-1.59-.1Zm-2.22,5.09c-.13.02-.26.04-.39.06v-.7s.39.64.39.64Zm-1.1.05l.49-.59v.59s-.49,0-.49,0Zm.33.12c-.2.06-.37.14-.52.23l.24-.23h.28Zm-9.32-5.71h.02s.07,0,.07,0h.14c.21.13.43.23.66.32l.17.05c.09-.03.19-.09.29-.19.1-.1.18-.25.25-.47.23-.76.19-.67.48-.86.18-.12.18-.32.23-.55.08,0,.16,0,.24,0-.03.11-.05.22-.05.32,0,.28-.27.3-.44.4-.17.11-.11.27-.17.48-.06.21-.22.49-.29.62l-.06.09c-.06.09-.14.18-.19.24.12.02.24.04.36.05.06-.07.16-.16.24-.27.14-.15.27-.31.31-.41.1-.22.1-.37.51-.58.67-.3.34-.74.55-.95l.03-.03h.14c-.07.11-.04.23-.08.35-.07.17-.1.45-.24.54-.14.09-.23.29-.37.35-.15.06-.26.17-.33.38-.03.11-.19.23-.31.35-.11.11-.18.21-.09.29h.09c1.37-.04,2.58-.9,2.97-2.25.02-.07.04-.15.06-.23-.39,1.23-1.49,2.03-2.79,2.17l.13-.18c.14-.21.44-.44.61-.63.17-.19.26-.42.36-.57.1-.15.04-.41.23-.6.08-.01.16-.02.24-.03-.04.13-.08.23-.2.46.17-.17.27-.3.34-.48.08-.01.15-.03.23-.04-.08.37-.2.71-.34.94.19-.23.35-.58.46-.97.58-.1.97-.24,1.04-.4h0c-.2,1.72-1.63,3.06-3.36,3.06-.81,0-1.55-.29-2.13-.78m-1.06-5.47c0-.21,0-.44,0-.69h.2c0,.14,0,.63.02,1.11,0,.11.02.22.03.32-.06.09-.12.19-.17.28-.03-.17-.07-.51-.09-1.02m.38-.64v-.08s1.18-.09,1.18-.09c-.04.12-.07.25-.08.4-.41.23-.77.55-1.06.93-.02-.27-.05-.82-.04-1.16m2.09-1.3l-.11-.08-.06.02-.1-.06-.11.09v.03c-.24,0-.48-.03-.64-.1-.28-.14-.09-.13-.02-.2.07-.08-.31-.09-.31-.23,0-.09.06-.15.11-.18l.77-.09c.15.04.42.12.5.16.1.06,1.16.15,1.43.21.26.06.59.2.59.78,0,.46-.54.56-.75.58v-.17l.02-.04v-.03s.09-.08.09-.08v-.02s.05,0,.05,0l.08-.06-.05-.05.02-.03-.05-.04-.05.04.02.03-.06.06h0s-.07,0-.07,0v-.08c.06-.08.07-.14.04-.2l.07-.07-.11-.08-.1.03-.08-.04.04-.04-.03-.03.02-.04-.08-.06-.08.06h0s-.04,0-.04,0l-.16.03h-.05s0-.02,0-.02l-.11-.05-.11.05h-.03s.02-.05.02-.05l-.1-.09-.09.09.02.05h-.08l-.07-.06.02-.05-.07-.07-.07.07.06.06-.02.05h0s-.12.01-.12.01Zm-2.41,6.05c-.17-.41-.26-.86-.26-1.33,0-1.28.68-2.4,1.68-3,.05.43.43.93,1.43,1.46-.04.04-.14.17-.18.28-.04.14-.16.14-.27.21-.11.07-.31.29-.27.51.02.13,0,.22-.05.31-.16,0-.31.02-.45.04.02-.42.09-.81.21-1.14-.19.31-.31.71-.34,1.15-.08,0-.16.02-.24.03.02-.61.15-1.16.35-1.62-.27.44-.44,1.01-.46,1.63-.13.02-.26.04-.37.06.01-.64.16-1.24.41-1.72-.34.47-.55,1.08-.56,1.75l-.19.04v-.02c0-.68.18-1.32.49-1.83-.39.49-.63,1.13-.63,1.83v.06c-.33.1-.52.21-.52.34,0,.14.23.27.62.37.1.4.29.76.53,1.06-.18-.3-.32-.65-.4-1.02l.2.04c.1.37.25.71.46.99-.15-.29-.26-.61-.33-.97.12.02.25.04.4.06.08.33.2.62.36.87-.12-.26-.21-.55-.27-.86.07,0,.14.02.21.03-.01.08,0,.19.02.33.09.43.19.48.01.67-.13.13-.04.32.02.42-.42-.12-.9-.31-1.22-.59-.16-.14-.29-.28-.38-.42m5.49-1.71c0,.09,0,.19-.01.29l-.19-.03c0-.14-.06-.33-.08-.39.1.05.2.09.28.14m-.39-.19c.05.2.01.34-.02.41l-.12-.02c-.04-.08-.05-.22,0-.45h-.02s.16.06.16.06Zm-.34.38l-.15-.02c.03-.24.13-.4.06-.54l.15.06c-.01.06-.07.29-.07.49m-.93-.07h-.12c-.03-.24-.05-.48.24-.77.07.03.15.06.22.09h.03c-.05.09-.32.45-.38.69m-1.87.43c.13.29,0,.39-.16.46l-.13.08c-.04-.22-.06-.46-.06-.7.11,0,.22-.01.34-.02v.19Zm-1.53-.04l.18-.03c0,.17.03.35.06.52l-.19-.03c-.02-.15-.04-.3-.05-.46m-.09.44c-.3-.06-.48-.13-.48-.21,0-.07.16-.13.42-.19,0,.14.03.27.05.41m.42-.48c.11-.02.24-.03.37-.04,0,.22.02.44.06.64-.14-.02-.26-.03-.38-.04-.03-.18-.04-.37-.05-.56m.48-.06c.08,0,.15-.01.23-.02,0,.24.03.48.09.7-.09,0-.18-.01-.27-.02-.03-.21-.05-.43-.05-.66m2.25.53c.2-.22.23-.42.23-.6h.12c.06.17.12.34-.03.46-.08.06-.15.19-.21.33-.08,0-.16,0-.24,0l.14-.2Zm1.11-.52v-.04s.17.01.17.01l.03.06c.12.17.1.45-.07.64-.08,0-.16.01-.23.01.1-.18.14-.4.1-.68m.49.64l.05-.19v-.32s.09-.12.09-.12c.07,0,.15.02.21.02-.02.19-.05.38-.09.58-.08,0-.17.02-.26.03m.49-.58c.5.07.8.16.8.26,0,.11-.34.21-.9.28.04-.18.08-.36.1-.54m.01-.16c0-.08.01-.16.01-.24l.19.13c.14.1.27.19.37.28-.14-.06-.34-.12-.58-.16m.69-1.12c-.28-.19-.64-.4-1.09-.62-.11-.26-.28-.49-.49-.69.15.19.26.39.33.61-.11-.05-.23-.1-.36-.15l-.04-.02c-.09-.2-.23-.37-.4-.53.13.16.22.29.28.48-1.98-.82-2.08-1.07-2-1.32h0s.13-.02.13-.02v-1.05l.19-.02v.18l.05.06.05-.06v-.19l.28-.02c.13.03.24.07.32.11v.99l.13.02c1.21.21,2.21,1.08,2.62,2.24m-2.75-4.11l-.1-.02c-.19-.03-.36-.06-.5-.08v-.23l.59-.07v.39Zm-.69-.11c-.07-.01-.14-.02-.19-.03v-.15l.19-.02v.2Zm-.35-.06c-.13-.02-.21-.04-.27-.06l.27-.03v.1Zm0,1.81c-.07.1-.2.34-.1.53.11.28.57.56,2.33,1.28.83.34,2.77,1.06,2.37,2.44-.07.25-.4.5-.61.56l.02-.04-.02.03s.03-.14.06-.25l.07-.03.04-.11h-.08s.02-.14.02-.14v-.05s.09.02.09.02v-.07s.02.01.02.01h.11s.02-.12.02-.12h-.11s-.04.08-.04.08l-.04-.08-.14-.08c-.04-.08-.1-.17-.19-.26h.01s0-.21,0-.21l-.18-.04-.03.06-.14-.11.07-.04.03-.23-.21-.02-.06.16c-.06-.04-.13-.09-.21-.13v-.07s.06-.02.06-.02l.04-.1h.08v-.11s-.1-.02-.1-.02h0s-.02-.02-.02-.02c-.07-.09-.17-.11-.23-.06-.05.04-.06.13-.02.21h0s-.03.07-.03.07c-.12-.07-.25-.13-.39-.19l-.08-.2c-.08-.08-.2-.11-.25-.04l-.03.09-.12-.05v-.11s.03,0,.03,0v-.22s-.19-.04-.19-.04v.22s-.04.09-.04.09l-.09-.03c0-.07-.02-.15-.1-.21l-.11-.06h0s0-.12,0-.12h0s0,0,0,0v-.17s-.16-.04-.16-.04v.17s.04.03.04.03v.1s.04.03.04.03l-.07.04-.02.08-.1-.04c.01-.07-.04-.17-.14-.24l-.16-.06.05-.04-.05-.17-.17.02.05.18.05.02-.06.04v.05c-.08-.03-.15-.07-.21-.1l-.07-.17-.14-.12c.05-.05.05-.14,0-.22l-.15-.08v-.02s-.09-.04-.09-.04l-.04-.1-.16-.06v.19s.15.07.15.07l.02.04.04.03.05.13.1.08-.02.09c-.1-.05-.18-.11-.27-.16l-.07-.16c-.08-.09-.17-.15-.21-.11l-.02.05c-.11-.09-.21-.17-.28-.25.02-.06,0-.15-.06-.23-.06-.08-.14-.13-.2-.11l-.05-.13.08-.08c.04-.08.01-.17-.04-.21h-.08s.03-.2.03-.2l.05.11c.05.03.13-.02.17-.1.04-.08.02-.17-.03-.2l-.14.06c.04-.11.09-.2.16-.28l.06.08c.06.03.14,0,.17-.09.03-.08.02-.17-.04-.2.17-.15.37-.25.53-.3v.65Zm-3.03,4.97l-.06.03v-.13s.04.03.04.03l.04-.09-.03-.08c.07-.17.2-.24.2-.24v.06s-.04.08-.04.08l.06.09.04-.02c.07.23.24.6.59.85.73.53,1.72.67,1.72.67-.18.04-.38.06-.58.06l-.14-.06h0s-.08-.09-.08-.09l-.07.06h-.04l-.16.02v-.05s-.04-.08-.04-.08l-.04.04-.08-.02-.1.03-.1-.05v-.07s-.04-.13-.04-.13l-.06.13v.02s-.09-.03-.09-.03h-.07s0-.05,0-.05c0-.08-.04-.15-.1-.15l-.08.05-.06-.03-.04.02-.05-.02-.05.02-.07-.09v-.04s-.04-.14-.04-.14l.05-.1-.06-.11-.07.11v.06s-.06.06-.06.06h-.03s-.06.02-.06.02h0s.03-.12.03-.12v-.08s.06-.1.06-.1l-.08-.11-.08.11v.04s-.04.04-.04.04l-.03-.12-.02-.08h.05s.09-.09.09-.09l-.09-.1Zm3.47,2.34h.12c-.22.5-.41,1.36.5,1.99.71.49,1.56.76,2.32.76,1.22,0,2.22-.56,2.22-.56,0,0-1.34,1.05-3.06.62-3.05-.81-2.25-2.51-2.09-2.8m2.35,2.52c-1.92-.28-2.47-1.47-2.21-2.18.06-.17.09-.27.12-.33,1.45-.04,2.69-.97,3.2-2.29.13-.04.41-.16.62-.41l1.33,3.52s.19.63-.18,1.02c-.52.53-1.76.85-2.88.68m8.32-17.28l1.97.81h.02s.01.08.01.08l-.64.05-1.07.41c-.09-.46-.19-.91-.3-1.35m1.56,4.66h-.88c-.02-.45-.06-.89-.1-1.33l1.71.55c.02.32.03.63.04.96l-.78-.17Zm2.32-2.91l.07,1.02-1.61-.56h0s-.07-.65-.07-.65l-.05-.52,1.67.71Zm-1.7.62l.03-.02.15.05,1.46.52-.67.46-.69.3-.1.04-.07-.02-1.61-.52.77-.29.73-.52Zm.97-4.3l.31.97-1.72-.77-.25-.99,1.67.8Zm-1.46.32l1.71.8-.83.98-.63.5-1.81-.81.92-.72.64-.76Zm-1.81-2.14l1.21.63-.3.46-.35.15-.97.75c-.13-.37-.26-.73-.41-1.08l.81-.91Zm-5.28,6.05l1.66-4.25.27-.06c.68,1.63,1.14,3.61,1.34,5.75l-2.82-.72c-.13-.25-.28-.49-.45-.72m-3.79-.27l-.17.02-.39-1.05c.04-.08.06-.16.06-.25v-.04s.5,1.31.5,1.31Zm-.63-1.63c-.05-.07-.13-.12-.21-.15.02-.07.04-.14.04-.22v-.09s.17.45.17.45Zm-.3-.37l-.06.18h-.69l-.06-.18c0-.16.11-.28.24-.28h.31c.14,0,.25.12.25.28m-1.09.72c0-.21.19-.39.42-.39h.53c.24,0,.42.18.42.39,0,.08-.03.16-.08.22h0s-.31-.14-.61-.14-.59.13-.59.13v.02c-.06-.07-.09-.15-.09-.24m.25.36s.06-.05.19-.08v.1l.05.05.05-.05v-.11h.15c.28-.01.45.1.45.1v1.05l-.59.1v-.17l-.05-.06-.05.06v.19l-.19.03v-1.19Zm-7.63,5.12l6.53-3.6,3.03-.49,2.29.56.21.05h.05s.27.08.27.08h0s5.49,1.4,5.49,1.4l-17.86,1.99Zm3.18,12.44l-.13.14c-.3.25-.88.42-1.55.42-.98,0-1.76-.35-1.76-.79s.79-.79,1.76-.79c.24,0,.48.02.69.06.07.02.15.03.22.05v.13c-.08-.02-.17-.04-.27-.06-.19-.03-.39-.04-.61-.04-.77,0-1.39.2-1.39.46s.62.46,1.39.46c.41,0,.77-.06,1.03-.15.22-.08.36-.19.36-.31,0-.11-.11-.2-.29-.28v-.14c.31.11.53.28.61.46l.03.14c0,.08-.03.15-.08.23m-1.23-.44c-1.02-.18-1.52.02-1.65.08l-.02-.06c0-.2.57-.36,1.25-.36.24,0,.45.02.64.05.09.01.16.03.23.05v.51c-.23.07-.53.1-.87.1-.41,0-.77-.06-1-.14.24-.2,1.18-.13,1.37-.14.19-.01.05-.09.05-.09m.67-.16c.1.06.16.11.16.18s-.06.12-.16.18v-.36Zm1.85.55l-1.16.05.06-.21c0-.08-.03-.17-.07-.24l.08-.11.39-.64c.24.37.48.71.73,1.03l-.03.11Zm1.95,2.23l-1.6.17.49-.67.28-.68c.3.27.61.51.93.72l-.1.47Zm2.37,1.66l-1.44.19.29-.79.11-.87c.35.15.71.26,1.07.34l-.03,1.13Zm1.08.88l.21-.79v-1.08s.08,0,.08,0c.36,0,.72-.04,1.08-.11l.12.97.32.77-1.82.23Zm.29-4.66c-4.82.02-7.33-5.84-7.05-12.69l.64-.08c-.14.56.03.99.02,1.03l3.61-.33c-.12.04-.28.12-.43.24l-3.19.32c-.01.21-.01.43-.01.64,0,1.51.22,2.94.59,4.24-.06.15-.1.35-.05.6.05.28.24.51.51.7.23.58.5,1.11.79,1.61l.41-.94c.09.06.07.05.13.08l-.4,1.07s-.1.42.28.85c.16.18.3.19.39.15l.62-1.62.12.04-.63,1.68c1.11,1.33,2.44,2.12,3.77,2.13.84,0,1.67-.34,2.43-.93.34-.26.67-.58.98-.94-1.01,1.35-2.23,2.16-3.52,2.16m3.68,2.16l-1.22.07c.35-.17.69-.37,1.03-.6l.19.53Zm-.49,2.39l-.76.11.22-.18,1.01-.08-.47.16Zm1.08-.38l-1.28.15-.26.03-.11.02v-1.1l-.14-.89,1.25-.07.19.54.45.82-.1.51Zm1.78-.75l-1.3.12.54-.45,1.35-.12-.59.45Zm-.89-.69c.07.02.14.04.21.06l.14.03c.14.03.3.05.46.07l-.69.05-.11-.21Zm3.6-.99c0,.56-1.02,1.01-2.28,1.01-.29,0-.56-.02-.81-.07l-.15-.03c-.79-.16-1.33-.51-1.33-.92,0-.56,1.02-1.01,2.28-1.01.25,0,.51.02.74.06l.16.03c.18.03.35.08.51.13v.19c-.18-.07-.39-.12-.64-.15l-.16-.02c-.18-.02-.38-.03-.59-.03-1,0-1.8.25-1.8.56,0,.27.63.5,1.47.55h.17s.16.01.16.01c.56,0,1.06-.08,1.39-.2.08-.03.16-.07.22-.11v-.24h0v-.14l.11.13.05.03s-.02-.16-.17-.28h0v-.21c.4.18.66.43.66.71m-1.28-1.08h-.06s-.04-.12-.04-.12l-.24-.82-.64-1.26,1.37-.05v2.22l-.4.02Zm.4.09v.07c-.07-.02-.14-.05-.22-.06h.22Zm-.95.62l-.15-.03c-.08,0-.16-.02-.26-.02-.73,0-1.35.15-1.5.35-.09-.06-.13-.12-.13-.18,0-.25.72-.46,1.61-.46.18,0,.35,0,.5.02l.16.02c.3.04.55.1.72.18v.46c-.28.14-.8.22-1.39.22h-.24c-.31-.02-.59-.05-.82-.11-.09-.04-.15-.08-.15-.11,0-.14.62-.25,1.39-.26h.18c.19,0,.21-.06.08-.09m1.72-.12c-.13-.13-.32-.25-.55-.35v-.17l.98-.04-.43.55Zm.3-1.9l.24,1.21-1.08.06v-2.22h.18s.11-.01.11-.01l.22.39.33.57Zm1.4-.83l-1.56.05.36-.78,1.62-.02-.41.76Zm.02-1.95l.39,1.06h-1.55s-.14-.22-.14-.22l-.42-.71-.55-.68v2.24s0,0,0,0v-.02l-.22-.19v.22l-1.44.04c.22-.37.43-.77.63-1.17l.78.89.03.03v-2.3l.22.28v-.31s1.63.08,1.63.08l.63.78Zm1.21-1.45l-1.54-.04h0l.24-.93v-.03s1.49.12,1.49.12l-.19.88Zm-.57-1.85l.69.8-1.38-.08h-.03l-.12-.13-.52-.56-.93-.64,1.79.2.5.41Zm.25-1.61l-.56-.11.13-.08.85.17-.43.03Zm1.05-.08l-1.54-.22.1-.98,1.58.28-.14.92Zm-.73-1.56l.67.45-1.38-.22-.73-.61.76.11.68.26Z"/>
      <polygon class="cls-2" points="24.03 23.46 23.89 23.7 24.12 23.68 24.27 23.43 24.03 23.46"/>
      <polygon class="cls-2" points="8.65 28.57 8.69 28.51 8.86 28.39 8.86 26.66 8.79 26.65 8.66 26.61 8.65 28.57"/>
      <path class="cls-2" d="m9.42,24.24l-.17.23h.17c0-.08,0-.16,0-.23"/>
      <polygon class="cls-2" points="8.17 29.25 8.41 30.29 8.65 30.36 8.65 28.57 8.17 29.25"/>
      <polygon class="cls-2" points="9.25 24.48 9.19 24.48 7.97 25.3 7.99 26.43 8.66 26.61 8.66 25.24 9.25 24.48"/>
      <path class="cls-2" d="m23.63,30.82c.07-.21.15-.43.22-.66l-.04-5.83-.22.02.05,6.46Z"/>
      <polygon class="cls-2" points="13.28 17.36 12.28 17.59 12.28 20.35 13.28 20.17 13.28 17.36"/>
      <polygon class="cls-2" points="13.28 14.36 12.28 14.64 12.28 17.34 13.28 17.11 13.28 14.36"/>
      <polygon class="cls-2" points="13.28 11.27 12.28 11.6 12.28 14.39 13.28 14.12 13.28 11.27"/>
      <polygon class="cls-2" points="11.18 14.95 11.18 17.59 12.04 17.4 12.04 14.71 11.18 14.95"/>
      <polygon class="cls-2" points="11.18 11.96 11.18 14.7 12.04 14.46 12.04 11.68 11.18 11.96"/>
      <polygon class="cls-2" points="11.18 17.84 11.18 20.54 12.04 20.39 12.04 17.65 11.18 17.84"/>
      <polygon class="cls-2" points="10.94 15.01 9.97 15.28 9.97 17.87 10.94 17.64 10.94 15.01"/>
      <polygon class="cls-2" points="10.94 17.9 9.97 18.12 9.97 20.76 10.94 20.59 10.94 17.9"/>
      <polygon class="cls-2" points="10.94 12.04 9.97 12.36 9.97 15.03 10.94 14.76 10.94 12.04"/>
      <polygon class="cls-2" points="14.84 17.01 13.52 17.31 13.52 20.13 14.84 19.9 14.84 17.01"/>
      <path class="cls-2" d="m15.1,20.36l1.19,2.21,1.05-2.57-2.24.36Zm.61.07v.74l-.37-.68.37-.06Zm.56,1.78l-.11-.21v-.11l-.05-.05h-.03s-.2-.37-.2-.37v-1.06l.19-.03v1.07l.05.05.05-.05v-1.08l.59-.1v.77l-.48,1.18Z"/>
      <path class="cls-2" d="m9.18,23.53l6.89-.79-3.48-1.1-3.42,1.89Zm1.76-.79l.24-.13v.53l-.24.03v-.42Zm1.1-.6l.24-.13v1.01l-.24.03v-.9Zm1.25-.11l.24.07v.76l-.24.03v-.86Zm1.56.69v-.2l.45.15-.45.05Z"/>
      <path class="cls-2" d="m20.05,20.49l-2.25-.55-.24.03-1,2.44,3.49-1.92Zm-2.21-.37l.06.14s.29-.02.58.01l.38.09s.05.3.25.46l-.33.18c-.35-.33-.78-.53-1.24-.54v-.03s.21-.09.21-.09c0,0-.04-.14-.06-.22l.12-.02.05.02Z"/>
      <path class="cls-2" d="m14.91,20.39h-.07s-2,1.12-2,1.12l3.22,1.02-1.15-2.13Zm.83,1.86l-.9-.28v-1.38l.9,1.66Zm-2.45-.81l.24-.13v.24l-.24-.07v-.03Z"/>
      <path class="cls-2" d="m20.32,20.55l-3.88,2.14,8.59-.99-4.71-1.16Zm-1.19.85l.72-.4c.11.21.22.45.3.69.05.13.08.27.12.41l-.77.09c-.09-.29-.22-.55-.37-.78m1.9-.5l.19.05c.17.3.31.63.4.99l-.15.02c-.1-.39-.26-.74-.45-1.06m1.13.28l1.95.48-1.73.2c-.06-.23-.13-.46-.22-.68"/>
      <polygon class="cls-2" points="14.63 23.35 14.72 23.43 14.81 23.35 14.72 23.28 14.63 23.35"/>
      <polygon class="cls-2" points="19.56 28.51 19.68 28.51 19.7 28.39 19.59 28.38 19.56 28.51"/>
      <polygon class="cls-2" points="19.64 28.75 19.66 28.78 19.69 28.89 19.84 28.92 19.86 28.75 19.8 28.71 19.78 28.63 19.65 28.62 19.64 28.75"/>
      <path class="cls-2" d="m14.98,25.42c-.07.03-.09.13-.06.21.04.08.12.12.18.09.06-.03.09-.13.05-.21-.03-.08-.11-.12-.17-.09"/>
      <polygon class="cls-2" points="15.21 25.87 15.34 25.9 15.34 25.76 15.21 25.73 15.21 25.87"/>
      <path class="cls-2" d="m15.27,26.06l.02.19c.05.08.13.11.17.07.04-.03.03-.12-.02-.2l-.17-.07Z"/>
      <polygon class="cls-2" points="16.31 26.69 16.41 26.72 16.42 26.61 16.31 26.58 16.31 26.69"/>
      <polygon class="cls-2" points="16.75 26.72 16.85 26.74 16.85 26.64 16.76 26.62 16.75 26.72"/>
      <polygon class="cls-2" points="17.87 27.3 17.95 27.33 17.94 27.24 17.86 27.21 17.87 27.3"/>
      <polygon class="cls-2" points="18.71 27.62 18.76 27.63 18.76 27.57 18.71 27.56 18.71 27.62"/>
      <path class="cls-2" d="m18.43,27.76l-.03-.23-.22-.03.03.23c.07.07.17.08.22.02"/>
      <polygon class="cls-2" points="16.14 23.74 16.2 23.79 16.25 23.74 16.2 23.7 16.14 23.74"/>
      <polygon class="cls-2" points="14.97 23.87 15.01 23.9 15.05 23.87 15.01 23.83 14.97 23.87"/>
      <polygon class="cls-2" points="16.67 23.71 16.72 23.76 16.77 23.71 16.72 23.67 16.67 23.71"/>
      <polygon class="cls-2" points="17.31 24.31 17.38 24.37 17.45 24.31 17.38 24.26 17.31 24.31"/>
      <polygon class="cls-2" points="17.13 24.24 17.11 24.23 17.06 24.29 17.11 24.33 17.16 24.29 17.2 24.26 17.16 24.22 17.13 24.24"/>
      <polygon class="cls-2" points="17.02 23.99 17.08 24.04 17.14 23.99 17.08 23.95 17.02 23.99"/>
      <polygon class="cls-2" points="16.41 23.81 16.47 23.87 16.52 23.9 16.57 23.85 16.54 23.82 16.54 23.81 16.48 23.76 16.41 23.81"/>
      <polygon class="cls-2" points="15.75 23.62 15.81 23.67 15.86 23.62 15.81 23.57 15.75 23.62"/>
      <polygon class="cls-2" points="12.82 29.89 12.86 29.98 12.91 29.89 12.86 29.81 12.82 29.89"/>
      <polygon class="cls-2" points="13.14 30.66 13.2 30.74 13.27 30.66 13.2 30.58 13.14 30.66"/>
      <polygon class="cls-2" points="13.34 30.68 13.38 30.74 13.42 30.68 13.38 30.62 13.34 30.68"/>
      <polygon class="cls-2" points="16.07 24.55 16.07 24.64 16.11 24.69 16.16 24.64 16.16 24.55 16.11 24.49 16.07 24.55"/>
      <polygon class="cls-2" points="16.07 24.8 16.07 24.85 16.11 24.91 16.16 24.85 16.16 24.8 16.11 24.75 16.07 24.8"/>
      <polygon class="cls-2" points="16.07 25.03 16.07 25.07 16.11 25.13 16.16 25.07 16.16 25.03 16.11 24.97 16.07 25.03"/>
      <polygon class="cls-2" points="16.07 18.93 16.07 19.27 16.11 19.32 16.16 19.27 16.16 18.93 16.11 18.88 16.07 18.93"/>
    </g>
    <g>
      <path class="cls-3" d="m71.37,11.05c2.48,0,4.95,0,7.43,0,.17,0,.34.01.5.06.18.05.35.12.52.2.56.27,1.12.53,1.69.8.61.29,1.22.58,1.82.87.34.16.68.32,1.02.48.55.26,1.09.52,1.64.78.45.21.9.43,1.34.64.48.23.97.45,1.45.68.28.13.57.28.85.41.3.14.6.28.9.42.28.13.55.27.83.4.21.1.41.2.62.29.36.17.69.38,1,.62.21.16.41.35.59.54.35.38.61.82.72,1.34.08.38.04.75-.09,1.12-.15.44-.41.82-.73,1.16-.13.14-.26.29-.42.41-.19.15-.39.3-.62.4-.23.11-.46.23-.68.35-.3.15-.61.3-.91.45-.35.17-.69.34-1.04.52-.38.19-.76.38-1.14.57-.44.22-.88.44-1.31.65-.81.4-1.63.81-2.44,1.21-.22.11-.43.22-.65.33-.4.2-.8.39-1.2.59-.35.17-.69.34-1.04.52-.32.16-.64.32-.96.48-.29.14-.58.29-.87.42-.08.03-.16.06-.25.07-.17.01-.34.04-.52.04-4.84,0-9.68,0-14.51,0-.33,0-.66-.06-.97-.17-.29-.11-.56-.26-.84-.39-.34-.16-.68-.33-1.02-.5-.63-.31-1.26-.62-1.89-.92-.47-.23-.94-.45-1.4-.68-.53-.26-1.06-.52-1.6-.77-.61-.3-1.21-.59-1.81-.89-.35-.17-.7-.33-1.04-.5-.28-.14-.56-.28-.85-.42-.47-.23-.94-.45-1.4-.68-.35-.17-.69-.34-1.01-.56-.23-.16-.45-.32-.65-.51-.21-.2-.42-.41-.58-.65-.19-.29-.35-.6-.39-.95-.06-.51.03-.99.31-1.42.23-.36.53-.66.86-.93.32-.26.66-.49,1.01-.69.18-.11.37-.19.56-.29.28-.15.57-.29.85-.44.24-.13.49-.25.73-.38.46-.23.91-.47,1.37-.7.73-.38,1.46-.76,2.2-1.13.43-.22.86-.44,1.3-.66.64-.33,1.27-.66,1.91-.99.43-.22.86-.44,1.29-.66.33-.17.65-.34.97-.51.19-.1.38-.21.58-.29.23-.1.48-.14.74-.14,1.01,0,2.03,0,3.04,0h4.22Zm1.71,17.1s.07.02.09.02c2.1,0,4.21,0,6.31,0,.21,0,.41-.03.6-.13.56-.28,1.13-.56,1.7-.84.46-.23.91-.46,1.36-.68.41-.2.82-.41,1.23-.61.5-.25,1-.5,1.5-.75.47-.23.94-.46,1.41-.7.34-.17.68-.34,1.01-.51.34-.17.68-.34,1.03-.51.19-.09.38-.19.57-.29.35-.18.71-.35,1.06-.52.28-.14.56-.28.84-.42.18-.09.37-.17.54-.28.25-.17.48-.36.68-.6.17-.21.34-.43.45-.69.19-.42.21-.84.02-1.27-.15-.35-.39-.63-.67-.89-.38-.35-.81-.62-1.28-.84-.27-.12-.53-.25-.8-.38-.22-.1-.43-.21-.65-.32-.37-.17-.73-.34-1.1-.52-.31-.14-.61-.29-.92-.44-.27-.13-.55-.26-.82-.39-.3-.14-.6-.29-.91-.43-.4-.19-.8-.37-1.2-.56-.46-.22-.91-.43-1.37-.65-.46-.22-.93-.44-1.39-.66-.51-.24-1.01-.48-1.51-.72-.45-.21-.9-.42-1.35-.64-.27-.13-.54-.2-.84-.2-2.32,0-4.64,0-6.97,0-.04,0-.07,0-.11,0-.04,0-.07,0-.1.03-.07.04-.14.08-.2.12-.3.18-.61.37-.91.55-.32.19-.64.38-.96.57-.45.27-.9.54-1.35.8-.23.14-.45.27-.68.41-.23.14-.46.28-.69.41-.28.16-.56.33-.83.49-.23.14-.46.28-.69.41-.23.14-.47.27-.7.41-.28.17-.56.34-.84.51-.34.21-.69.41-1.04.61-.42.25-.84.51-1.27.76-.39.23-.79.46-1.16.74-.13.1-.27.19-.39.31-.2.21-.36.44-.47.7-.07.17-.11.35-.1.53.01.26.1.51.25.73.31.45.72.77,1.21,1.01.36.17.72.33,1.08.5.32.15.64.29.96.43.28.12.57.23.85.35.18.07.36.14.54.2.34.11.68.21,1.02.32.42.13.85.19,1.29.24.31.03.63.03.95.03.35,0,.69-.03,1.04-.07.06,0,.12-.02.19-.04-.1-.08-.18-.14-.26-.21-.3-.25-.58-.51-.84-.79-.27-.3-.5-.62-.63-1-.17-.51-.19-1.01-.03-1.52.12-.38.32-.73.6-1.02.22-.24.44-.49.68-.71.29-.27.59-.51.9-.75.3-.22.61-.44.93-.63.23-.13.45-.27.68-.4.21-.12.42-.22.64-.33.16-.08.32-.15.48-.23.19-.08.37-.17.56-.25.16-.07.32-.15.49-.2.28-.09.56-.16.84-.22.61-.14,1.23-.22,1.85-.25.65-.03,1.3-.02,1.95.09.24.04.47.08.71.15.32.09.64.19.96.3.09.03.19.07.28.1.22.08.44.16.65.25.26.11.51.22.77.33.3.13.59.27.89.41.28.13.55.27.83.4.2.1.4.19.59.3.34.2.66.45.93.75.16.18.3.37.41.59.25.47.31.97.16,1.48-.1.37-.3.69-.55.98-.08.09-.15.19-.25.27-.32.24-.63.48-.97.69-.25.15-.51.3-.76.46-.32.19-.65.38-.97.57-.3.18-.61.36-.91.55-.21.13-.43.25-.64.38-.47.28-.95.56-1.42.84-.58.34-1.16.69-1.74,1.03-.34.2-.67.4-1.01.6-.28.17-.57.34-.86.5-.18.11-.36.22-.55.33-.18.11-.37.21-.55.32-.12.07-.24.15-.37.23Zm1.48-12.15s.04.05.07.07c.33.23.65.49.94.77.19.19.38.38.54.6.24.33.38.7.44,1.1.09.62-.09,1.17-.43,1.68-.18.27-.41.49-.62.73-.22.23-.46.44-.7.65-.36.3-.74.57-1.13.83-.32.21-.65.4-.98.59-.32.18-.65.34-.98.5-.26.12-.52.23-.78.34-.28.12-.56.22-.85.29-.4.09-.8.18-1.2.24-.4.06-.8.1-1.2.12-.41.02-.83.02-1.24-.02-.2-.02-.41-.04-.61-.07-.51-.08-1.01-.24-1.51-.39-.24-.08-.47-.16-.71-.24-.19-.07-.37-.14-.55-.21-.25-.1-.49-.21-.74-.32-.31-.14-.62-.27-.93-.41-.32-.15-.64-.29-.95-.45-.19-.09-.38-.19-.55-.32-.22-.17-.44-.34-.63-.55-.29-.32-.5-.67-.6-1.1-.07-.33-.04-.65.06-.97.09-.28.23-.53.41-.75.11-.15.22-.3.37-.41.37-.27.74-.55,1.14-.78.34-.19.67-.4,1-.6.32-.19.65-.38.97-.58.45-.27.9-.54,1.35-.8.46-.27.91-.54,1.37-.81.59-.35,1.17-.7,1.76-1.04.47-.28.95-.57,1.42-.85.58-.34,1.16-.69,1.74-1.03.02-.01.05-.02.03-.06-.04-.01-.09,0-.14,0-1.22,0-2.44,0-3.66,0-.77,0-1.55,0-2.32,0-.24,0-.47.04-.68.17-.07.04-.15.08-.22.12-.41.21-.83.43-1.24.64-.34.17-.67.35-1.01.52-.24.12-.48.25-.72.37-.4.2-.79.41-1.19.61-.2.1-.4.2-.6.31-.27.14-.54.28-.82.42-.28.14-.56.29-.84.43-.26.13-.52.27-.79.4-.2.1-.41.21-.61.31-.22.12-.45.23-.67.35-.21.11-.43.22-.64.33-.13.06-.25.13-.38.2-.21.11-.42.21-.63.32-.29.15-.58.3-.87.45-.53.27-1.02.58-1.45.99-.25.23-.47.49-.6.81-.09.22-.13.44-.09.67.04.25.14.48.29.68.22.33.51.58.82.82.4.3.85.52,1.29.73.22.1.43.21.65.31.23.11.45.23.68.34.34.17.69.33,1.03.49.29.14.58.29.87.43.47.23.95.46,1.43.69.34.17.68.34,1.02.5.37.18.74.36,1.11.53.51.25,1.01.49,1.52.74.44.21.88.43,1.32.65.6.29,1.2.59,1.81.88.29.14.61.22.94.22,2.25,0,4.49,0,6.74,0,.12,0,.23,0,.33-.09.05-.04.1-.06.15-.09.33-.19.67-.39,1-.58.41-.24.82-.49,1.23-.73.33-.2.66-.39,1-.59.51-.31,1.03-.61,1.54-.92.33-.2.66-.39.99-.58.47-.28.93-.55,1.4-.83.29-.17.58-.35.87-.52.33-.19.66-.39.99-.58.34-.2.67-.41,1.01-.6.34-.2.67-.4.99-.64.14-.11.29-.19.4-.33.1-.12.2-.24.28-.37.15-.25.26-.51.27-.81.01-.33-.11-.62-.29-.88-.27-.38-.62-.68-1.03-.9-.2-.11-.4-.2-.6-.3-.41-.2-.82-.4-1.24-.59-.23-.11-.47-.2-.7-.31-.34-.16-.7-.29-1.05-.42-.31-.11-.62-.22-.93-.31-.24-.07-.48-.14-.72-.18-.4-.07-.8-.11-1.2-.12-.29,0-.58-.01-.86.02-.2.02-.41.03-.61.05-.09.01-.19,0-.27.05Zm1.38,2.9c0-.37-.08-.67-.25-.95-.21-.35-.5-.62-.8-.88-.23-.2-.46-.39-.72-.55-.16-.11-.32-.23-.5-.31-.03-.01-.05-.03-.09-.02-.18.04-.36.08-.53.14-.4.16-.8.32-1.19.51-.39.19-.79.38-1.16.6-.43.25-.84.51-1.24.8-.33.25-.65.51-.95.79-.16.15-.3.32-.45.48-.16.17-.31.35-.42.55-.2.34-.28.7-.24,1.1.04.41.2.76.47,1.06.29.33.6.64.94.91.2.16.41.31.63.45.04.03.08.06.14.04.3-.07.6-.13.89-.25.31-.13.62-.26.93-.4.39-.18.78-.38,1.16-.59.34-.19.67-.4.99-.62.43-.29.85-.61,1.23-.97.3-.28.58-.58.82-.91.22-.31.35-.65.35-1Z"/>
      <path class="cls-3" d="m72.16,31.35c5.62,0,11.25,0,16.87,0,.19,0,.16-.03.16.16,0,.12,0,.24,0,.36,0,.09,0,.09-.1.09-.03,0-.06,0-.08,0-11.25,0-22.49,0-33.74,0-.18,0-.15.02-.16-.16,0-.13,0-.25,0-.38,0-.06.02-.08.08-.07.04,0,.07,0,.11,0h16.86Z"/>
      <path class="cls-3" d="m72.15,8.2c5.62,0,11.25,0,16.87,0,.19,0,.16-.03.17.16,0,.12,0,.24,0,.37,0,.06-.02.09-.08.08-.03,0-.06,0-.09,0-11.25,0-22.49,0-33.74,0-.18,0-.15.02-.16-.16,0-.13,0-.25,0-.38,0-.06.02-.08.07-.07.03,0,.06,0,.09,0h16.87Z"/>
      <path class="cls-3" d="m59.83,33.86c.74,0,1.48,0,2.22,0,.12,0,.21.03.26.14.06.12.05.25-.04.36-.06.07-.14.09-.23.1-.03,0-.06,0-.09,0h-3.86s-.06,0-.09,0c-.12,0-.12,0-.12.12,0,.88,0,1.75,0,2.63,0,.13,0,.13.13.13,1.26,0,2.51,0,3.77,0,.06,0,.13,0,.19,0,.28.02.36.27.26.46-.05.1-.13.13-.23.15-.05.01-.1,0-.15,0-1.27,0-2.54,0-3.81,0-.17,0-.15-.02-.16.16,0,.24,0,.47,0,.71,0,.09,0,.09.09.1.03,0,.06,0,.09,0,1.23,0,2.46,0,3.68,0,.06,0,.12,0,.18.02.15.04.23.15.23.32,0,.15-.1.26-.26.28-.05,0-.09,0-.14,0-1.34,0-2.69,0-4.03,0-.06,0-.12,0-.18,0-.18-.02-.3-.14-.32-.32,0-.09,0-.17,0-.26,0-.27,0-.55,0-.82,0-.2.02-.17-.18-.17-.07,0-.13,0-.2,0-.05,0-.09,0-.14-.02-.14-.04-.2-.14-.21-.3,0-.12.09-.24.22-.28.07-.02.13-.02.2-.02.08,0,.17,0,.25,0,.04,0,.07-.02.06-.06,0-.03,0-.06,0-.09,0-.95,0-1.9,0-2.84,0-.05,0-.09,0-.14.02-.2.15-.33.36-.33.75,0,1.5,0,2.25,0Z"/>
      <path class="cls-3" d="m77.63,33.77c.48-.02.98.08,1.46.27.4.15.77.37,1.09.66.35.32.62.69.79,1.13.08.22.13.45.15.69.01.23,0,.45-.04.67-.05.28-.16.54-.3.79-.16.28-.38.52-.62.74-.29.26-.62.45-.97.6-.37.15-.76.25-1.15.29-.31.03-.62.03-.93-.01-.24-.03-.48-.07-.72-.15-.51-.16-.98-.4-1.38-.77-.31-.27-.55-.6-.72-.97-.14-.3-.22-.61-.21-.95,0-.31.03-.61.14-.9.24-.63.65-1.12,1.22-1.48.42-.27.88-.45,1.38-.54.08-.01.16-.03.24-.04.19-.03.38-.03.6-.03Zm-.02.61c-.26,0-.48.01-.7.05-.39.08-.76.22-1.09.43-.44.28-.78.65-.97,1.14-.16.43-.17.86-.02,1.29.21.6.63,1.02,1.18,1.32.59.32,1.23.43,1.9.37.3-.03.6-.08.88-.19.53-.2.98-.52,1.3-.99.21-.31.33-.64.35-1.01.02-.42-.09-.8-.31-1.16-.17-.29-.42-.51-.69-.7-.13-.09-.28-.17-.42-.24-.15-.08-.31-.14-.47-.18-.32-.09-.65-.13-.94-.12Z"/>
      <path class="cls-3" d="m86.62,34.96s-.06.02-.07.04c-.4.43-.79.87-1.19,1.3-.14.15-.28.3-.42.45-.06.06-.11.13-.16.19-.09.09-.19.16-.33.14-.1-.01-.17-.06-.23-.13-.24-.27-.49-.53-.74-.8-.23-.25-.46-.5-.7-.75-.14-.15-.28-.3-.42-.46-.04.05-.02.09-.02.13,0,.94,0,1.87,0,2.81,0,.44,0,.88,0,1.31,0,.09-.01.16-.07.23-.12.16-.4.17-.53,0-.03-.03-.04-.07-.04-.12,0-.02,0-.05,0-.07,0-1.71,0-3.42,0-5.13,0-.11.03-.2.12-.27.02-.01.03-.02.05-.03.15-.02.29-.03.41.1.32.36.65.71.98,1.07.2.22.4.43.6.65.18.2.36.4.54.59.1.1.07.11.18,0,.22-.24.44-.48.66-.72.18-.2.35-.39.53-.59.21-.23.42-.46.63-.69.1-.11.21-.22.32-.34.11-.11.25-.1.38-.06.12.04.18.15.18.28,0,.03,0,.06,0,.09,0,1.66,0,3.32,0,4.97,0,.1,0,.2-.09.29-.11.11-.24.11-.37.07-.12-.04-.18-.13-.19-.26,0-.05,0-.09,0-.14,0-1.34,0-2.68,0-4.02v-.15Z"/>
      <path class="cls-3" d="m65.32,33.77c.34-.01.69.02,1.03.09.48.1.93.27,1.33.56.16.11.31.22.43.39.08.12.08.27,0,.37-.08.1-.25.14-.37.09-.1-.04-.17-.12-.25-.19-.26-.24-.56-.4-.89-.51-.54-.18-1.1-.2-1.66-.18-.31.02-.62.07-.91.19-.2.08-.4.19-.55.35-.26.29-.3.68-.02,1,.13.14.31.23.49.3.3.11.61.16.93.2.45.06.91.09,1.36.17.35.07.7.16,1,.37.41.29.63.68.54,1.25-.06.4-.29.68-.6.9-.37.27-.79.41-1.24.46-.22.02-.44.04-.66.03-.44-.02-.86-.07-1.27-.24-.29-.12-.57-.26-.82-.46-.14-.12-.19-.23-.15-.38.03-.11.11-.18.23-.2.12-.02.24,0,.33.09.34.3.75.45,1.19.53.5.08,1.01.08,1.5-.08.2-.06.39-.15.55-.29.24-.21.32-.47.24-.78-.05-.19-.19-.3-.35-.39-.3-.16-.63-.22-.96-.26-.23-.03-.46-.05-.69-.08-.25-.02-.51-.06-.76-.1-.31-.05-.6-.15-.89-.28-.24-.11-.44-.26-.6-.47-.14-.18-.24-.39-.23-.63,0-.05,0-.1,0-.15-.02-.37.12-.67.37-.93.22-.23.49-.38.78-.5.5-.2,1.03-.27,1.58-.25Z"/>
      <path class="cls-3" d="m71.87,33.78c.68-.02,1.31.16,1.91.48.13.07.26.15.38.24.07.05.13.11.15.19.06.26-.16.41-.36.38-.07-.01-.14-.05-.2-.09-.43-.31-.91-.51-1.44-.58-.47-.06-.94-.03-1.39.1-.41.12-.78.3-1.11.58-.56.48-.82,1.09-.76,1.82.03.4.19.76.46,1.07.42.49.95.77,1.57.92.28.07.57.11.87.09.49-.02.96-.13,1.4-.35.15-.07.29-.16.43-.25.05-.04.1-.07.16-.09.14-.06.34.04.39.13.06.13.06.31-.1.42-.25.18-.52.33-.8.44-.54.22-1.1.32-1.67.31-.55-.02-1.08-.13-1.58-.36-.34-.16-.65-.36-.93-.61-.41-.38-.68-.83-.81-1.36-.1-.41-.09-.83.02-1.24.14-.52.42-.97.81-1.33.33-.31.72-.53,1.15-.68.34-.12.69-.2,1.05-.24.14-.01.28,0,.41,0Z"/>
      <path class="cls-3" d="m66.14,6.17c.23-.56.82-.65,1.2-.53.21.07.38.17.49.37.17.29.1.63-.16.84-.31.24-.65.28-1.02.15-.19-.07-.33-.19-.44-.36-.05-.09-.07-.2-.08-.3-.02,0-.02,0-.03,0-.1.22-.28.31-.51.34-.16.01-.32.02-.48.02-.09,0-.09,0-.09.09,0,.06,0,.13,0,.19,0,.06-.04.09-.09.09-.06,0-.08-.03-.09-.09,0-.09,0-.17,0-.26,0-.32,0-.64,0-.96,0-.13,0-.14.14-.14.18,0,.36,0,.53,0,.14,0,.27.04.39.11.15.1.22.24.23.44Zm1.59.14c0-.07-.02-.14-.06-.22-.08-.14-.2-.22-.35-.27-.31-.1-.6-.06-.85.17-.21.2-.2.49.01.69.27.25.74.27,1.03.05.13-.1.22-.23.21-.42Zm-2.71-.16c0,.1,0,.2,0,.3,0,.04,0,.07.06.07.19,0,.38,0,.57-.02.07-.01.14-.04.19-.09.1-.08.13-.2.11-.32-.02-.12-.09-.19-.21-.23-.21-.08-.43-.06-.65-.06-.05,0-.06.02-.06.07,0,.1,0,.2,0,.3Z"/>
      <path class="cls-3" d="m71.83,5.61c.1,0,.19,0,.28,0,.04,0,.09,0,.13,0,.05,0,.08.04.08.08,0,.05-.03.08-.08.09-.03,0-.07,0-.11,0-.26,0-.51,0-.77,0-.1,0-.1,0-.1.1,0,.17,0,.34,0,.51,0,.09,0,.09.09.09.27,0,.54,0,.82,0,.03,0,.06,0,.09,0,.05,0,.08.04.08.08,0,.04-.04.09-.09.09-.03,0-.06,0-.08,0-.27,0-.54,0-.82,0-.03,0-.08-.02-.09.03-.01.05-.02.11,0,.16.01.03.05.02.08.02.15,0,.31,0,.46,0,.13,0,.27,0,.4,0,.05,0,.08.02.1.07.02.05,0,.1-.06.11-.02,0-.05,0-.07,0-.32,0-.63,0-.95,0-.14,0-.16-.02-.16-.16,0-.03,0-.06,0-.09,0-.04.01-.08,0-.12-.02-.04-.07-.02-.1-.02-.05-.01-.05-.05-.05-.09,0-.04,0-.08.06-.09.1-.02.1-.02.1-.13,0-.2,0-.4,0-.6,0-.12.03-.15.14-.15,0,0,0,0,.01,0,.09,0,.19.02.27,0,.08-.02.13-.12.2-.17.05-.03.09-.07.15-.06.07,0,.09.06.06.12-.02.03-.06.05-.09.12Z"/>
      <path class="cls-3" d="m63.33,7.07c-.19,0-.39-.06-.56-.19-.38-.29-.39-.78-.01-1.08.37-.29.97-.26,1.3.07.27.27.29.71-.05.99-.19.15-.39.22-.68.22Zm.04-1.29c-.19,0-.36.06-.52.19-.24.2-.24.52-.01.73.25.23.69.27,1.01.05.3-.21.3-.6,0-.82-.14-.1-.3-.14-.49-.15Z"/>
      <path class="cls-3" d="m85.97,7.07c-.29,0-.54-.09-.74-.31-.09-.11-.15-.23-.15-.38,0-.15.01-.3.11-.42.11-.14.24-.24.41-.29.38-.12.73-.08,1.03.18.32.28.3.74-.03,1.01-.18.15-.39.22-.63.21Zm0-1.29c-.18,0-.35.05-.5.17-.25.2-.27.54-.02.76.27.23.73.25,1.01.03.3-.23.29-.6-.02-.82-.14-.1-.3-.14-.47-.14Z"/>
      <path class="cls-3" d="m78.4,7.07c-.21,0-.42-.07-.6-.22-.13-.11-.23-.25-.23-.43,0-.17,0-.34.12-.48.12-.14.27-.24.45-.29.35-.1.68-.05.96.2.32.29.3.75-.03,1.02-.19.15-.4.21-.67.21Zm.74-.73c0-.16-.06-.28-.17-.38-.28-.24-.75-.25-1.04,0-.25.2-.25.53-.02.74.29.26.77.26,1.06,0,.11-.09.17-.21.17-.36Z"/>
      <path class="cls-3" d="m74.22,5.96s-.02.08-.02.12c0,.27,0,.54,0,.81,0,.03,0,.06,0,.08,0,.07-.04.11-.1.11-.06,0-.07-.02-.07-.11,0-.33,0-.66,0-.99,0-.09,0-.19,0-.28,0-.03,0-.06.03-.1.06,0,.11.04.16.08.32.33.63.65.95.97.03.03.06.05.09.08.04-.03.03-.07.03-.1,0-.28,0-.57,0-.85,0-.03,0-.06,0-.09,0-.04.04-.07.08-.08.05,0,.08.03.09.08,0,.03,0,.06,0,.09,0,.38,0,.76,0,1.14,0,.06,0,.15-.05.17-.06.02-.11-.03-.16-.08-.32-.33-.65-.66-.97-.99-.02-.02-.03-.04-.07-.05Z"/>
      <path class="cls-3" d="m87.19,5.93c-.03.06-.02.1-.02.14,0,.28,0,.55,0,.83,0,.03,0,.06,0,.09-.01.05-.04.07-.09.07-.05,0-.08-.03-.08-.08,0-.02,0-.05,0-.07v-1.15s0-.02,0-.02c0-.06,0-.13.05-.15.05-.02.11.03.15.07.29.3.59.6.88.9.05.05.09.12.16.16.04-.02.02-.05.02-.07,0-.29,0-.58,0-.88,0-.03,0-.06,0-.09,0-.05.04-.08.09-.08.05,0,.08.03.09.08,0,.02,0,.05,0,.07,0,.39,0,.78,0,1.17,0,.06-.02.12-.05.17-.07-.02-.13-.06-.18-.11-.3-.31-.6-.61-.9-.92-.04-.04-.07-.08-.11-.13Z"/>
      <path class="cls-3" d="m81.31,7.1c-.07-.02-.13-.06-.18-.11-.33-.34-.65-.67-.98-1.01-.01-.01-.02-.02-.04-.03-.04.02-.02.06-.02.09,0,.29,0,.58,0,.88,0,.03,0,.06,0,.08,0,.06-.04.08-.1.08-.05,0-.06-.04-.06-.08,0-.04,0-.09,0-.13v-1.11s0-.03,0-.05c0-.04-.02-.09.03-.11.04-.01.09.01.13.05.11.11.21.22.32.33.23.23.46.47.69.7.02.02.04.04.07.04.03-.04.02-.08.02-.12,0-.28,0-.57,0-.85,0-.1.03-.14.09-.14.07,0,.1.04.1.14,0,.4,0,.8,0,1.2,0,.06,0,.11-.04.15Z"/>
      <path class="cls-3" d="m53.81,5.95v.24c0,.24,0,.47,0,.71,0,.03,0,.06,0,.09,0,.05-.05.07-.1.07-.05,0-.07-.03-.07-.08,0-.01,0-.02,0-.04,0-.41,0-.83,0-1.24,0-.04-.01-.1.03-.12.05-.02.09.02.13.06.32.33.65.66.97.99.03.03.05.06.09.08.04-.03.02-.07.02-.11,0-.28,0-.55,0-.83,0-.04,0-.07,0-.11,0-.05.04-.07.08-.07.04,0,.08.02.09.07,0,.03,0,.05,0,.08,0,.39,0,.78,0,1.17,0,.06,0,.14-.05.16-.05.02-.1-.03-.15-.08-.32-.33-.65-.67-.98-1-.02-.02-.04-.05-.09-.05Z"/>
      <path class="cls-3" d="m55.92,5.62c.14,0,.28,0,.42.05.1.04.19.09.26.16.05.05.06.1.02.13-.04.04-.09.04-.15,0-.27-.21-.58-.23-.89-.13-.05.02-.1.05-.14.09-.06.08-.06.16.02.23.06.05.12.07.19.08.19.04.38.04.57.08.08.02.16.05.22.11.16.15.13.4-.07.53-.06.04-.12.07-.18.08-.27.05-.53.05-.77-.09-.04-.02-.07-.04-.09-.08-.02-.04-.03-.08,0-.11.03-.03.07-.04.11-.02.02,0,.03.02.05.03.21.13.43.14.66.08.06-.02.11-.05.15-.09.07-.07.07-.15,0-.21-.04-.04-.09-.05-.14-.06-.16-.04-.33-.04-.49-.07-.1-.02-.19-.05-.28-.09-.23-.1-.22-.43-.07-.56.12-.1.26-.15.41-.16.06,0,.12,0,.18,0Z"/>
      <path class="cls-3" d="m81.44,6.98s.01-.07.03-.1c.03-.05.06-.09.09-.14.02-.04.03-.06-.02-.08-.04-.02-.06-.06-.05-.11.02-.05.06-.07.1-.06.1.02.15-.04.19-.12.14-.22.28-.45.42-.67.1-.15.15-.15.24,0,.23.36.46.73.68,1.09.03.04.05.09.08.13.02.04.02.08-.02.12-.04.03-.11.02-.14-.03-.06-.08-.11-.16-.16-.25-.04-.08-.09-.11-.19-.11-.26,0-.53,0-.79,0-.06,0-.11.01-.14.07-.05.09-.11.17-.16.26-.02.03-.03.05-.07.06-.07.01-.11-.02-.1-.09Zm.89-1.11c-.13.21-.26.4-.38.61.16.02.67.02.75,0-.12-.2-.25-.39-.38-.6Z"/>
      <path class="cls-3" d="m88.52,6.98s0-.07.03-.1c.03-.05.06-.1.09-.15.02-.03.02-.05-.02-.06-.06-.02-.07-.06-.06-.11.01-.06.07-.07.11-.06.08.01.13-.03.17-.09.15-.24.3-.48.45-.72.07-.11.13-.11.2,0,.14.22.28.45.42.67.11.17.22.35.32.52,0,.01.01.02.02.03.04.07.04.12,0,.15-.05.03-.11.01-.16-.05-.06-.09-.12-.18-.17-.27-.03-.04-.06-.06-.1-.06-.29,0-.58,0-.88,0-.05,0-.08.02-.11.06-.05.09-.11.17-.16.26,0,.01-.02.03-.03.04-.03.05-.07.04-.12.03-.04-.01-.03-.05-.03-.08Zm.88-1.11c-.14.21-.26.41-.39.62h.77c-.12-.21-.25-.4-.38-.62Z"/>
      <path class="cls-3" d="m84.01,7.07c-.32,0-.58-.11-.78-.36-.19-.24-.17-.59.05-.82.3-.32.86-.39,1.23-.15.03.02.05.04.08.06.03.03.04.07.02.11-.03.04-.07.06-.11.04-.03-.01-.06-.03-.09-.05-.31-.17-.62-.16-.9.06-.25.19-.3.5-.04.74.16.16.37.21.59.2.14,0,.27-.04.38-.11.01,0,.03-.02.04-.02.06-.03.11-.02.14.02.03.05,0,.09-.03.12-.11.1-.25.13-.39.16-.06.01-.12.01-.17.01Z"/>
      <path class="cls-3" d="m59.68,6.14c0-.13,0-.27,0-.4,0-.1,0-.11.08-.11.08,0,.1.02.1.11,0,.23,0,.46,0,.69,0,.21.06.37.35.45.21.06.41.04.6-.09.1-.07.15-.17.15-.29,0-.23,0-.46,0-.69,0-.03,0-.06,0-.08,0-.08.02-.1.1-.1.07,0,.09.02.09.1,0,.26,0,.53,0,.79,0,.18-.09.32-.23.42-.3.21-.85.2-1.1-.08-.09-.09-.14-.2-.14-.33,0-.13,0-.26,0-.39Z"/>
      <path class="cls-3" d="m76.93,7.07c-.22,0-.43-.06-.61-.19-.38-.28-.4-.78,0-1.09.33-.26.82-.26,1.14-.04.02.01.04.03.06.04.03.03.04.07.02.11-.03.04-.07.05-.11.04-.03-.01-.06-.03-.09-.05-.3-.16-.59-.15-.87.04-.32.22-.32.62.01.83.28.18.58.19.87.03.03-.02.05-.04.08-.04.04-.01.08,0,.1.04.02.03.02.07,0,.1-.03.05-.08.07-.13.1-.16.07-.28.1-.46.1Z"/>
      <path class="cls-3" d="m73.33,7.07c-.32,0-.56-.1-.76-.3-.22-.22-.22-.69.04-.91.28-.25.6-.31.96-.22.1.02.19.06.27.12.07.05.09.1.07.14-.03.05-.09.06-.16.01-.26-.16-.52-.17-.8-.06-.21.09-.36.29-.35.49,0,.19.11.32.26.41.29.17.58.18.87.02.02-.01.05-.03.07-.04.04-.01.08,0,.11.03.03.04.02.07,0,.11-.03.04-.07.07-.11.09-.15.07-.31.12-.44.11Z"/>
      <path class="cls-3" d="m61.84,5.62c.18,0,.35,0,.53,0,.09,0,.12.02.12.08,0,.06-.03.09-.12.1-.1,0-.2,0-.31,0-.12,0-.12,0-.12.13,0,.32,0,.65,0,.97,0,.04,0,.07,0,.11,0,.05-.04.07-.09.07-.05,0-.08-.03-.09-.08,0-.03,0-.06,0-.09,0-.33,0-.66,0-.99,0-.11,0-.11-.1-.11-.11,0-.23,0-.34,0-.05,0-.09-.01-.1-.08,0-.07.01-.09.08-.09.18,0,.36,0,.54,0Z"/>
      <path class="cls-3" d="m57.28,5.62c.17,0,.34,0,.51,0,.02,0,.05,0,.07,0,.04,0,.06.03.07.07,0,.04-.01.07-.05.09-.03.02-.07.02-.1.02-.11,0-.21,0-.32,0-.08,0-.09,0-.09.09,0,.34,0,.67,0,1.01,0,.03,0,.06,0,.08,0,.07-.03.1-.09.1-.06,0-.08-.02-.09-.09,0-.03,0-.06,0-.09,0-.32,0-.64,0-.96,0-.14.01-.13-.13-.13-.09,0-.17,0-.26,0-.03,0-.06,0-.09,0-.05,0-.08-.04-.07-.09,0-.05.03-.07.09-.07.19,0,.37,0,.56,0Z"/>
      <path class="cls-3" d="m70.35,5.62c.17,0,.34,0,.51,0,.02,0,.05,0,.07,0,.04,0,.07.03.07.06,0,.04-.01.08-.05.1-.03.01-.06.02-.09.02-.09,0-.17,0-.26,0-.17,0-.15,0-.15.14,0,.32,0,.64,0,.96,0,.04,0,.07,0,.11,0,.04-.04.06-.09.06-.05,0-.08-.02-.08-.07,0-.03,0-.07,0-.11,0-.33,0-.66,0-.99,0-.11,0-.11-.1-.11-.1,0-.2,0-.3,0-.03,0-.06,0-.09-.01-.05-.02-.05-.06-.05-.11,0-.05.03-.06.07-.06.19,0,.37,0,.56,0Z"/>
      <path class="cls-3" d="m58.88,6.41c0-.17,0-.34,0-.51,0-.11,0-.11-.11-.11-.1,0-.2,0-.3,0-.04,0-.07,0-.1-.02-.04-.02-.05-.05-.04-.09,0-.04.03-.06.07-.07.02,0,.04,0,.06,0,.34,0,.69,0,1.03,0,.02,0,.04,0,.06,0,.04,0,.06.03.07.07,0,.04,0,.07-.04.09-.03.02-.07.02-.1.02-.11,0-.21,0-.32,0-.09,0-.09,0-.09.09,0,.33,0,.65,0,.98,0,.03,0,.06,0,.08,0,.08-.03.11-.09.11-.06,0-.09-.03-.09-.11,0-.18,0-.36,0-.54Z"/>
      <path class="cls-3" d="m68.05,6.33c0-.21,0-.41,0-.62,0-.05,0-.1.07-.09.07,0,.09.02.1.09,0,.03,0,.06,0,.08,0,.33,0,.66,0,.98,0,.11,0,.11.12.12.26,0,.53,0,.79,0,.11,0,.15.03.15.09,0,.06-.04.08-.14.08-.32,0-.63,0-.95,0,0,0-.02,0-.02,0-.1,0-.12-.02-.12-.12,0-.21,0-.41,0-.62Z"/>
      <path class="cls-3" d="m90.39,6.33c0-.21,0-.41,0-.62,0-.05,0-.1.07-.09.07,0,.09.02.1.09,0,.08,0,.16,0,.24,0,.28,0,.55,0,.83,0,.11,0,.11.11.11.27,0,.54,0,.81,0,.1,0,.14.03.14.09,0,.07-.03.09-.14.09-.32,0-.63,0-.95,0-.02,0-.03,0-.05,0-.08,0-.09-.02-.09-.09,0-.13,0-.26,0-.39v-.25Z"/>
      <path class="cls-3" d="m75.73,6.34c0-.21,0-.42,0-.63,0-.04-.01-.09.06-.09.07,0,.09.01.1.08,0,.03,0,.06,0,.09,0,.36,0,.72,0,1.09,0,.04,0,.08,0,.12,0,.05-.05.07-.1.07-.06,0-.06-.04-.06-.08,0-.22,0-.43,0-.65Z"/>
      <path class="cls-3" d="m58.03,6.33c0-.2,0-.4,0-.6,0-.09.02-.1.09-.11.06,0,.09.02.09.08,0,.03,0,.06,0,.08,0,.37,0,.75,0,1.12,0,.02,0,.05,0,.07,0,.07-.04.1-.1.09-.06,0-.09-.03-.09-.1,0-.21,0-.43,0-.64Z"/>
      <path class="cls-3" d="m53.2,6.34c0-.2,0-.41,0-.61,0-.05,0-.1.07-.11.08-.01.11.01.12.1,0,.06,0,.13,0,.19,0,.33,0,.65,0,.98,0,.02,0,.05,0,.07,0,.08-.03.11-.09.11-.06,0-.09-.03-.09-.11,0-.2,0-.41,0-.61Z"/>
      <path class="cls-3" d="m69.43,6.33c0-.2,0-.41,0-.61,0-.05,0-.1.07-.1.07,0,.1.02.1.1,0,.14,0,.28,0,.42,0,.25,0,.5,0,.76,0,.03,0,.06,0,.09,0,.06-.04.08-.1.08-.06,0-.07-.04-.07-.09,0-.22,0-.43,0-.65Z"/>
      <path class="cls-3" d="m84.76,6.33c0-.2,0-.41,0-.61,0-.09.01-.1.08-.1.07,0,.09.01.09.09,0,.13,0,.27,0,.4,0,.26,0,.52,0,.78,0,.03,0,.06,0,.09,0,.06-.04.08-.1.08-.06,0-.07-.04-.07-.09,0-.2,0-.39,0-.59v-.06Z"/>
    </g>
    <line class="cls-1" x1="40.36" y1="7.64" x2="40.36" y2="37.36"/>
  </g>
  <g id="Textos">
    <g>
      <path class="cls-2" d="m129.92,15.9h2.6v14h-2.6v-14Z"/>
      <path class="cls-2" d="m145.23,16.5c.9.4,1.59.97,2.07,1.72.48.75.72,1.63.72,2.66s-.24,1.9-.72,2.65c-.48.75-1.17,1.33-2.07,1.73-.9.4-1.96.6-3.17.6h-3.16v4.04h-2.6v-14h5.76c1.21,0,2.27.2,3.17.6Zm-.71,6.44c.59-.48.88-1.17.88-2.06s-.29-1.58-.88-2.06c-.59-.48-1.45-.72-2.58-.72h-3.04v5.56h3.04c1.13,0,1.99-.24,2.58-.72Z"/>
      <path class="cls-2" d="m163.06,15.9v14h-2.14l-7.72-9.48v9.48h-2.58v-14h2.14l7.72,9.48v-9.48h2.58Z"/>
      <path class="cls-2" d="m171.55,23.3h5.5v2.08h-5.5v-2.08Z"/>
      <path class="cls-2" d="m196.05,27.72v2.18h-10.5v-14h10.22v2.18h-7.62v3.64h6.76v2.14h-6.76v3.86h7.9Z"/>
      <path class="cls-2" d="m200.17,29.64c-1.01-.31-1.8-.71-2.39-1.22l.9-2.02c.57.45,1.28.82,2.11,1.11.83.29,1.67.43,2.51.43,1.04,0,1.82-.17,2.33-.5s.77-.77.77-1.32c0-.4-.14-.73-.43-.99-.29-.26-.65-.46-1.09-.61-.44-.15-1.04-.31-1.8-.5-1.07-.25-1.93-.51-2.59-.76-.66-.25-1.23-.65-1.7-1.19s-.71-1.27-.71-2.19c0-.77.21-1.48.63-2.11.42-.63,1.05-1.14,1.9-1.51s1.88-.56,3.11-.56c.85,0,1.69.11,2.52.32.83.21,1.54.52,2.14.92l-.82,2.02c-.61-.36-1.25-.63-1.92-.82-.67-.19-1.31-.28-1.94-.28-1.03,0-1.79.17-2.29.52s-.75.81-.75,1.38c0,.4.14.73.43.98.29.25.65.45,1.09.6.44.15,1.04.31,1.8.5,1.04.24,1.89.49,2.56.75.67.26,1.24.66,1.71,1.19s.71,1.25.71,2.16c0,.77-.21,1.47-.63,2.1-.42.63-1.06,1.13-1.91,1.5s-1.89.56-3.12.56c-1.08,0-2.12-.15-3.13-.46Z"/>
      <path class="cls-2" d="m214.19,29.17c-1.14-.62-2.03-1.48-2.68-2.57-.65-1.09-.97-2.33-.97-3.7s.33-2.61.98-3.7c.65-1.09,1.55-1.95,2.69-2.57,1.14-.62,2.42-.93,3.83-.93,1.15,0,2.19.2,3.14.6.95.4,1.75.98,2.4,1.74l-1.68,1.58c-1.01-1.09-2.26-1.64-3.74-1.64-.96,0-1.82.21-2.58.63s-1.35,1-1.78,1.75c-.43.75-.64,1.59-.64,2.54s.21,1.79.64,2.54,1.02,1.33,1.78,1.75,1.62.63,2.58.63c1.48,0,2.73-.55,3.74-1.66l1.68,1.6c-.65.76-1.46,1.34-2.41,1.74-.95.4-2,.6-3.15.6-1.41,0-2.69-.31-3.83-.93Z"/>
      <path class="cls-2" d="m228.45,29.17c-1.15-.62-2.05-1.48-2.7-2.58-.65-1.1-.98-2.33-.98-3.69s.33-2.59.98-3.69c.65-1.1,1.55-1.96,2.7-2.58,1.15-.62,2.43-.93,3.86-.93s2.71.31,3.86.93c1.15.62,2.05,1.48,2.7,2.57.65,1.09.98,2.33.98,3.7s-.33,2.61-.98,3.7c-.65,1.09-1.55,1.95-2.7,2.57-1.15.62-2.43.93-3.86.93s-2.71-.31-3.86-.93Zm6.38-1.98c.75-.42,1.33-1.01,1.76-1.76s.64-1.6.64-2.53-.21-1.78-.64-2.53c-.43-.75-1.01-1.34-1.76-1.76-.75-.42-1.59-.63-2.52-.63s-1.77.21-2.52.63c-.75.42-1.33,1.01-1.76,1.76-.43.75-.64,1.6-.64,2.53s.21,1.78.64,2.53,1.01,1.34,1.76,1.76c.75.42,1.59.63,2.52.63s1.77-.21,2.52-.63Z"/>
      <path class="cls-2" d="m255.47,29.9l-.02-9.28-4.6,7.68h-1.16l-4.6-7.56v9.16h-2.48v-14h2.14l5.56,9.28,5.46-9.28h2.14l.02,14h-2.46Z"/>
      <path class="cls-2" d="m263.46,27.18c.31.31.46.71.46,1.2,0,.21-.03.44-.09.67-.06.23-.18.58-.37,1.05l-1.02,2.82h-1.62l.8-3.06c-.29-.12-.52-.31-.69-.57-.17-.26-.25-.56-.25-.91,0-.49.15-.89.46-1.2s.69-.46,1.16-.46.85.15,1.16.46Z"/>
      <path class="cls-2" d="m281.25,27.7v2.2h-10.32v-1.74l5.56-5.28c.63-.6,1.05-1.12,1.27-1.57.22-.45.33-.89.33-1.33,0-.65-.22-1.15-.66-1.5-.44-.35-1.09-.52-1.94-.52-1.43,0-2.52.49-3.28,1.46l-1.82-1.4c.55-.73,1.28-1.3,2.21-1.71s1.96-.61,3.11-.61c1.52,0,2.73.36,3.64,1.08.91.72,1.36,1.7,1.36,2.94,0,.76-.16,1.47-.48,2.14s-.93,1.43-1.84,2.28l-3.74,3.56h6.6Z"/>
      <path class="cls-2" d="m285.53,29.25c-.88-.57-1.57-1.39-2.08-2.48s-.76-2.38-.76-3.87.25-2.78.76-3.87,1.2-1.91,2.08-2.48c.88-.57,1.88-.85,3-.85s2.12.28,3.01.85c.89.57,1.58,1.39,2.09,2.48.51,1.09.76,2.38.76,3.87s-.25,2.78-.76,3.87c-.51,1.09-1.2,1.91-2.09,2.48-.89.57-1.89.85-3.01.85s-2.12-.28-3-.85Zm5.37-2.65c.58-.83.87-2.06.87-3.7s-.29-2.87-.87-3.7c-.58-.83-1.37-1.24-2.37-1.24s-1.77.41-2.35,1.24c-.58.83-.87,2.06-.87,3.7s.29,2.87.87,3.7,1.36,1.24,2.35,1.24,1.79-.41,2.37-1.24Z"/>
      <path class="cls-2" d="m306.19,27.7v2.2h-10.32v-1.74l5.56-5.28c.63-.6,1.05-1.12,1.27-1.57.22-.45.33-.89.33-1.33,0-.65-.22-1.15-.66-1.5-.44-.35-1.09-.52-1.94-.52-1.43,0-2.52.49-3.28,1.46l-1.82-1.4c.55-.73,1.28-1.3,2.21-1.71s1.96-.61,3.11-.61c1.52,0,2.73.36,3.64,1.08.91.72,1.36,1.7,1.36,2.94,0,.76-.16,1.47-.48,2.14s-.93,1.43-1.84,2.28l-3.74,3.56h6.6Z"/>
      <path class="cls-2" d="m316.61,23c.68.72,1.02,1.62,1.02,2.7,0,.81-.21,1.55-.62,2.22-.41.67-1.04,1.2-1.87,1.59-.83.39-1.85.59-3.05.59-1,0-1.96-.14-2.89-.43-.93-.29-1.72-.68-2.37-1.19l1.12-2.02c.51.43,1.12.76,1.85,1.01.73.25,1.48.37,2.25.37.92,0,1.64-.19,2.17-.57.53-.38.79-.9.79-1.55s-.25-1.16-.75-1.53c-.5-.37-1.26-.55-2.29-.55h-1.28v-1.78l3.18-3.78h-6.36v-2.18h9.54v1.74l-3.4,4.04c1.29.16,2.28.6,2.96,1.32Z"/>
      <path class="cls-2" d="m319.73,29.57c-.32-.31-.48-.71-.48-1.19s.16-.89.47-1.2c.31-.31.7-.46,1.17-.46s.86.15,1.17.46c.31.31.47.71.47,1.2s-.16.88-.48,1.19c-.32.31-.71.47-1.16.47s-.84-.16-1.16-.47Z"/>
    </g>
  </g>
</svg>