<?xml version="1.0" encoding="UTF-8"?>
<svg xmlns="http://www.w3.org/2000/svg" xmlns:xlink="http://www.w3.org/1999/xlink" viewBox="0 0 1245 1020">
  <defs>
    <style>
      .uuid-041b1745-552f-4e22-818a-772c4a544bd5 {
        stroke: silver;
      }

      .uuid-041b1745-552f-4e22-818a-772c4a544bd5, .uuid-a8d5cdc8-ed04-4471-8fec-d14313fc5e93, .uuid-7c5193d1-6d02-4dd9-b5be-6d38adc5901d, .uuid-93f581b4-5f93-48e7-859b-26d84b2d957b, .uuid-59b4a426-571b-4df7-b4b5-1a6bf9a08005, .uuid-43f3e390-333c-40f1-9c28-8ff60c078e0d, .uuid-a0c02b20-5a5a-4dad-bc62-64f2903090e0, .uuid-4ab06f53-58ed-4ac5-992a-fc0f8123ab20, .uuid-cba08cb4-d79b-4561-85ce-95b6c031a026 {
        fill: none;
      }

      .uuid-041b1745-552f-4e22-818a-772c4a544bd5, .uuid-7c5193d1-6d02-4dd9-b5be-6d38adc5901d, .uuid-59b4a426-571b-4df7-b4b5-1a6bf9a08005 {
        stroke-linecap: round;
        stroke-linejoin: round;
      }

      .uuid-f7827009-7665-471b-89b0-d583a4782a8c {
        fill: #fff;
      }

      .uuid-a8d5cdc8-ed04-4471-8fec-d14313fc5e93 {
        stroke: #fff;
        stroke-linejoin: bevel;
        stroke-width: 3px;
      }

      .uuid-7c5193d1-6d02-4dd9-b5be-6d38adc5901d {
        stroke: rgba(204, 0, 0, .7);
        stroke-width: 5px;
      }

      .uuid-93f581b4-5f93-48e7-859b-26d84b2d957b {
        clip-path: url(#uuid-b0dbecec-b12b-4429-a4fe-a50d97ccde95);
      }

      .uuid-59b4a426-571b-4df7-b4b5-1a6bf9a08005 {
        stroke: rgba(192, 192, 192, .24);
      }

      .uuid-43f3e390-333c-40f1-9c28-8ff60c078e0d {
        isolation: isolate;
      }

      .uuid-ad9b414f-0ec4-46f1-8b17-808b4f9fb89c {
        fill: #00699b;
      }

      .uuid-4ab06f53-58ed-4ac5-992a-fc0f8123ab20 {
        stroke: #252525;
        stroke-miterlimit: 10;
      }

      .uuid-543fd5a3-160a-4380-b068-d31706e93b43 {
        fill: #252525;
      }

      .uuid-cba08cb4-d79b-4561-85ce-95b6c031a026 {
        clip-path: url(#uuid-af733c7c-96b1-4b29-9020-2d82eaa9ebb5);
      }
    </style>
    <clipPath id="uuid-af733c7c-96b1-4b29-9020-2d82eaa9ebb5">
      <rect class="uuid-a0c02b20-5a5a-4dad-bc62-64f2903090e0" x="-1" width="1247" height="1020"/>
    </clipPath>
    <clipPath id="uuid-b0dbecec-b12b-4429-a4fe-a50d97ccde95">
      <rect class="uuid-a0c02b20-5a5a-4dad-bc62-64f2903090e0" x="-71.61" y="-39.85" width="1388.22" height="1099.69"/>
    </clipPath>
  </defs>
  <g id="uuid-866a129a-692a-4af5-9ee6-4556b4433164" data-name="Grafica">
    <g class="uuid-cba08cb4-d79b-4561-85ce-95b6c031a026">
      <g class="uuid-93f581b4-5f93-48e7-859b-26d84b2d957b">
        <g>
          <rect class="uuid-f7827009-7665-471b-89b0-d583a4782a8c" x="-71.61" y="-39.85" width="1388.22" height="1099.69"/>
          <path class="uuid-041b1745-552f-4e22-818a-772c4a544bd5" d="m20.14-39.21v1099.69m0-1099.69v1099.69M140.36-39.21v1099.69M259.31-39.21v1099.69M379.53-39.21v1099.69M498.48-39.21v1099.69M738.92-39.21v1099.69M857.88-39.21v1099.69M978.1-39.21v1099.69M1098.32-39.21v1099.69M1217.27-39.21v1099.69"/>
          <path class="uuid-59b4a426-571b-4df7-b4b5-1a6bf9a08005" d="m-51.99-39.21v1099.69M-27.95-39.21v1099.69M-3.91-39.21v1099.69M44.18-39.21v1099.69M68.23-39.21v1099.69M92.27-39.21v1099.69M116.31-39.21v1099.69M164.4-39.21v1099.69M187.18-39.21v1099.69M211.22-39.21v1099.69M235.27-39.21v1099.69M283.35-39.21v1099.69M307.4-39.21v1099.69M331.44-39.21v1099.69M355.49-39.21v1099.69M403.57-39.21v1099.69M427.62-39.21v1099.69M451.66-39.21v1099.69M475.71-39.21v1099.69M522.53-39.21v1099.69m24.04-1099.69v1099.69m24.04-1099.69v1099.69m24.04-1099.69v1099.69M642.75-39.21v1099.69m24.04-1099.69v1099.69m24.04-1099.69v1099.69m24.04-1099.69v1099.69M762.97-39.21v1099.69m24.04-1099.69v1099.69m22.78-1099.69v1099.69m24.04-1099.69v1099.69M881.92-39.21v1099.69m24.04-1099.69v1099.69m24.04-1099.69v1099.69m24.04-1099.69v1099.69M1002.14-39.21v1099.69m24.04-1099.69v1099.69m24.04-1099.69v1099.69m24.04-1099.69v1099.69m46.82-1099.69v1099.69m24.04-1099.69v1099.69m24.04-1099.69v1099.69m24.04-1099.69v1099.69m48.09-1099.69v1099.69m24.04-1099.69v1099.69m24.04-1099.69v1099.69m24.04-1099.69v1099.69"/>
          <path class="uuid-041b1745-552f-4e22-818a-772c4a544bd5" d="m-70.98,31.65h1388.22m-1388.22,0h1388.22M-70.98,151.87h1388.22M-70.98,272.09h1388.22M-70.98,391.05h1388.22M-70.98,631.48h1388.22M-70.98,750.44h1388.22M-70.98,870.66h1388.22M-70.98,989.61h1388.22"/>
          <path class="uuid-59b4a426-571b-4df7-b4b5-1a6bf9a08005" d="m-70.98-39.21h1388.22m-1388.22,0h1388.22M-70.98-15.17h1388.22M-70.98,7.61h1388.22M-70.98,55.7h1388.22M-70.98,79.74h1388.22M-70.98,103.79h1388.22M-70.98,127.83h1388.22M-70.98,175.92h1388.22M-70.98,199.96h1388.22M-70.98,224h1388.22M-70.98,248.05h1388.22M-70.98,296.14h1388.22m-1388.22,22.78h1388.22m-1388.22,24.04h1388.22m-1388.22,24.04h1388.22M-70.98,415.09h1388.22m-1388.22,24.04h1388.22m-1388.22,24.04h1388.22m-1388.22,24.04h1388.22m-1388.22,48.09h1388.22m-1388.22,24.04h1388.22m-1388.22,24.04h1388.22m-1388.22,24.04h1388.22m-1388.22,46.82h1388.22m-1388.22,24.04h1388.22m-1388.22,24.04h1388.22m-1388.22,24.04h1388.22m-1388.22,48.09h1388.22m-1388.22,24.04h1388.22m-1388.22,24.04h1388.22m-1388.22,24.04h1388.22m-1388.22,48.09h1388.22m-1388.22,24.04h1388.22m-1388.22,24.04h1388.22m-1388.22,22.78h1388.22m-1388.22,48.09h1388.22m-1388.22,24.04h1388.22"/>
          <path class="uuid-4ab06f53-58ed-4ac5-992a-fc0f8123ab20" d="m618.7-36.68v1097.16"/>
          <path class="uuid-4ab06f53-58ed-4ac5-992a-fc0f8123ab20" d="m-70.98,511.27h1385.69"/>
          <g class="uuid-43f3e390-333c-40f1-9c28-8ff60c078e0d">
            <path class="uuid-543fd5a3-160a-4380-b068-d31706e93b43" d="m20.77,526.66v.3h-7.59v-.3h7.59Z"/>
            <path class="uuid-543fd5a3-160a-4380-b068-d31706e93b43" d="m22.06,525.28h.03c.29-.49.69-.84,1.18-1.06.49-.22,1.04-.33,1.65-.33.54,0,1.02.09,1.46.27.44.18.81.42,1.12.74s.56.69.73,1.13c.17.44.26.92.26,1.44,0,.55-.09,1.04-.26,1.49-.17.45-.42.83-.73,1.14s-.69.55-1.12.72c-.44.17-.92.25-1.46.25s-1.02-.08-1.47-.24c-.45-.16-.83-.38-1.15-.68-.32-.29-.56-.66-.74-1.09-.17-.43-.25-.92-.23-1.48h.3c-.02.51.05.96.2,1.35s.37.73.66,1,.64.48,1.06.62.87.21,1.37.21.96-.08,1.36-.24c.4-.16.74-.38,1.02-.67.28-.29.5-.64.65-1.05.15-.41.23-.86.23-1.36s-.08-.91-.24-1.31c-.16-.4-.38-.74-.66-1.03-.28-.29-.63-.51-1.03-.68-.4-.16-.85-.24-1.34-.24-.61,0-1.17.13-1.69.4-.52.27-.92.66-1.2,1.18h-.38l1.11-5.21h5.3v.3h-5.06l-.94,4.42Z"/>
          </g>
          <g class="uuid-43f3e390-333c-40f1-9c28-8ff60c078e0d">
            <path class="uuid-a8d5cdc8-ed04-4471-8fec-d14313fc5e93" d="m20.77,526.66v.3h-7.59v-.3h7.59Z"/>
            <path class="uuid-a8d5cdc8-ed04-4471-8fec-d14313fc5e93" d="m22.06,525.28h.03c.29-.49.69-.84,1.18-1.06.49-.22,1.04-.33,1.65-.33.54,0,1.02.09,1.46.27.44.18.81.42,1.12.74s.56.69.73,1.13c.17.44.26.92.26,1.44,0,.55-.09,1.04-.26,1.49-.17.45-.42.83-.73,1.14s-.69.55-1.12.72c-.44.17-.92.25-1.46.25s-1.02-.08-1.47-.24c-.45-.16-.83-.38-1.15-.68-.32-.29-.56-.66-.74-1.09-.17-.43-.25-.92-.23-1.48h.3c-.02.51.05.96.2,1.35s.37.73.66,1,.64.48,1.06.62.87.21,1.37.21.96-.08,1.36-.24c.4-.16.74-.38,1.02-.67.28-.29.5-.64.65-1.05.15-.41.23-.86.23-1.36s-.08-.91-.24-1.31c-.16-.4-.38-.74-.66-1.03-.28-.29-.63-.51-1.03-.68-.4-.16-.85-.24-1.34-.24-.61,0-1.17.13-1.69.4-.52.27-.92.66-1.2,1.18h-.38l1.11-5.21h5.3v.3h-5.06l-.94,4.42Z"/>
          </g>
          <g class="uuid-43f3e390-333c-40f1-9c28-8ff60c078e0d">
            <path class="uuid-543fd5a3-160a-4380-b068-d31706e93b43" d="m20.77,526.66v.3h-7.59v-.3h7.59Z"/>
            <path class="uuid-543fd5a3-160a-4380-b068-d31706e93b43" d="m22.06,525.28h.03c.29-.49.69-.84,1.18-1.06.49-.22,1.04-.33,1.65-.33.54,0,1.02.09,1.46.27.44.18.81.42,1.12.74s.56.69.73,1.13c.17.44.26.92.26,1.44,0,.55-.09,1.04-.26,1.49-.17.45-.42.83-.73,1.14s-.69.55-1.12.72c-.44.17-.92.25-1.46.25s-1.02-.08-1.47-.24c-.45-.16-.83-.38-1.15-.68-.32-.29-.56-.66-.74-1.09-.17-.43-.25-.92-.23-1.48h.3c-.02.51.05.96.2,1.35s.37.73.66,1,.64.48,1.06.62.87.21,1.37.21.96-.08,1.36-.24c.4-.16.74-.38,1.02-.67.28-.29.5-.64.65-1.05.15-.41.23-.86.23-1.36s-.08-.91-.24-1.31c-.16-.4-.38-.74-.66-1.03-.28-.29-.63-.51-1.03-.68-.4-.16-.85-.24-1.34-.24-.61,0-1.17.13-1.69.4-.52.27-.92.66-1.2,1.18h-.38l1.11-5.21h5.3v.3h-5.06l-.94,4.42Z"/>
          </g>
          <g class="uuid-43f3e390-333c-40f1-9c28-8ff60c078e0d">
            <path class="uuid-543fd5a3-160a-4380-b068-d31706e93b43" d="m140.99,526.66v.3h-7.59v-.3h7.59Z"/>
            <path class="uuid-543fd5a3-160a-4380-b068-d31706e93b43" d="m141.51,527.83l5.16-7.27h.38v7.33h1.87v.3h-1.87v2.69h-.3v-2.69h-5.24v-.37Zm5.21-6.85l-4.91,6.91h4.94v-6.91h-.03Z"/>
          </g>
          <g class="uuid-43f3e390-333c-40f1-9c28-8ff60c078e0d">
            <path class="uuid-a8d5cdc8-ed04-4471-8fec-d14313fc5e93" d="m140.99,526.66v.3h-7.59v-.3h7.59Z"/>
            <path class="uuid-a8d5cdc8-ed04-4471-8fec-d14313fc5e93" d="m141.51,527.83l5.16-7.27h.38v7.33h1.87v.3h-1.87v2.69h-.3v-2.69h-5.24v-.37Zm5.21-6.85l-4.91,6.91h4.94v-6.91h-.03Z"/>
          </g>
          <g class="uuid-43f3e390-333c-40f1-9c28-8ff60c078e0d">
            <path class="uuid-543fd5a3-160a-4380-b068-d31706e93b43" d="m140.99,526.66v.3h-7.59v-.3h7.59Z"/>
            <path class="uuid-543fd5a3-160a-4380-b068-d31706e93b43" d="m141.51,527.83l5.16-7.27h.38v7.33h1.87v.3h-1.87v2.69h-.3v-2.69h-5.24v-.37Zm5.21-6.85l-4.91,6.91h4.94v-6.91h-.03Z"/>
          </g>
          <g class="uuid-43f3e390-333c-40f1-9c28-8ff60c078e0d">
            <path class="uuid-543fd5a3-160a-4380-b068-d31706e93b43" d="m259.94,526.66v.3h-7.59v-.3h7.59Z"/>
            <path class="uuid-543fd5a3-160a-4380-b068-d31706e93b43" d="m261.07,522.28c.16-.42.4-.77.71-1.06.31-.28.68-.5,1.12-.64s.93-.21,1.47-.21c.42,0,.81.05,1.2.14.38.09.73.24,1.03.44.3.2.55.47.73.79.18.32.27.71.27,1.17,0,.73-.21,1.3-.63,1.7-.42.41-.95.64-1.59.7v.03c.3.03.6.1.89.22s.55.28.77.5c.23.22.41.49.55.81s.21.71.21,1.15c0,.49-.09.92-.28,1.29-.19.38-.44.69-.76.95-.32.26-.69.45-1.11.58-.42.13-.87.2-1.34.2-.59,0-1.12-.08-1.59-.24-.48-.16-.88-.4-1.21-.71-.33-.31-.58-.69-.75-1.15-.17-.46-.23-.98-.19-1.56h.3c-.04.55.02,1.03.17,1.45.15.42.38.77.68,1.05.3.28.68.5,1.12.65.45.15.94.22,1.47.22.42,0,.81-.06,1.2-.17.38-.12.72-.29,1.02-.52.29-.23.53-.52.71-.86.18-.34.27-.73.27-1.18s-.07-.83-.22-1.14c-.15-.31-.35-.57-.62-.77-.27-.2-.58-.35-.94-.46s-.75-.16-1.18-.18h-.74v-.3h.74c.33,0,.67-.04.99-.11.33-.08.62-.2.89-.38.26-.18.48-.41.64-.7.16-.29.24-.64.24-1.07,0-.42-.1-.76-.27-1.05-.17-.28-.4-.51-.67-.69-.27-.18-.58-.3-.93-.38s-.7-.11-1.06-.11c-.5,0-.94.06-1.34.19-.4.13-.74.32-1.02.58-.28.26-.5.58-.65.96-.15.38-.22.83-.21,1.35h-.3c-.01-.57.07-1.06.23-1.48Z"/>
          </g>
          <g class="uuid-43f3e390-333c-40f1-9c28-8ff60c078e0d">
            <path class="uuid-a8d5cdc8-ed04-4471-8fec-d14313fc5e93" d="m259.94,526.66v.3h-7.59v-.3h7.59Z"/>
            <path class="uuid-a8d5cdc8-ed04-4471-8fec-d14313fc5e93" d="m261.07,522.28c.16-.42.4-.77.71-1.06.31-.28.68-.5,1.12-.64s.93-.21,1.47-.21c.42,0,.81.05,1.2.14.38.09.73.24,1.03.44.3.2.55.47.73.79.18.32.27.71.27,1.17,0,.73-.21,1.3-.63,1.7-.42.41-.95.64-1.59.7v.03c.3.03.6.1.89.22s.55.28.77.5c.23.22.41.49.55.81s.21.71.21,1.15c0,.49-.09.92-.28,1.29-.19.38-.44.69-.76.95-.32.26-.69.45-1.11.58-.42.13-.87.2-1.34.2-.59,0-1.12-.08-1.59-.24-.48-.16-.88-.4-1.21-.71-.33-.31-.58-.69-.75-1.15-.17-.46-.23-.98-.19-1.56h.3c-.04.55.02,1.03.17,1.45.15.42.38.77.68,1.05.3.28.68.5,1.12.65.45.15.94.22,1.47.22.42,0,.81-.06,1.2-.17.38-.12.72-.29,1.02-.52.29-.23.53-.52.71-.86.18-.34.27-.73.27-1.18s-.07-.83-.22-1.14c-.15-.31-.35-.57-.62-.77-.27-.2-.58-.35-.94-.46s-.75-.16-1.18-.18h-.74v-.3h.74c.33,0,.67-.04.99-.11.33-.08.62-.2.89-.38.26-.18.48-.41.64-.7.16-.29.24-.64.24-1.07,0-.42-.1-.76-.27-1.05-.17-.28-.4-.51-.67-.69-.27-.18-.58-.3-.93-.38s-.7-.11-1.06-.11c-.5,0-.94.06-1.34.19-.4.13-.74.32-1.02.58-.28.26-.5.58-.65.96-.15.38-.22.83-.21,1.35h-.3c-.01-.57.07-1.06.23-1.48Z"/>
          </g>
          <g class="uuid-43f3e390-333c-40f1-9c28-8ff60c078e0d">
            <path class="uuid-543fd5a3-160a-4380-b068-d31706e93b43" d="m259.94,526.66v.3h-7.59v-.3h7.59Z"/>
            <path class="uuid-543fd5a3-160a-4380-b068-d31706e93b43" d="m261.07,522.28c.16-.42.4-.77.71-1.06.31-.28.68-.5,1.12-.64s.93-.21,1.47-.21c.42,0,.81.05,1.2.14.38.09.73.24,1.03.44.3.2.55.47.73.79.18.32.27.71.27,1.17,0,.73-.21,1.3-.63,1.7-.42.41-.95.64-1.59.7v.03c.3.03.6.1.89.22s.55.28.77.5c.23.22.41.49.55.81s.21.71.21,1.15c0,.49-.09.92-.28,1.29-.19.38-.44.69-.76.95-.32.26-.69.45-1.11.58-.42.13-.87.2-1.34.2-.59,0-1.12-.08-1.59-.24-.48-.16-.88-.4-1.21-.71-.33-.31-.58-.69-.75-1.15-.17-.46-.23-.98-.19-1.56h.3c-.04.55.02,1.03.17,1.45.15.42.38.77.68,1.05.3.28.68.5,1.12.65.45.15.94.22,1.47.22.42,0,.81-.06,1.2-.17.38-.12.72-.29,1.02-.52.29-.23.53-.52.71-.86.18-.34.27-.73.27-1.18s-.07-.83-.22-1.14c-.15-.31-.35-.57-.62-.77-.27-.2-.58-.35-.94-.46s-.75-.16-1.18-.18h-.74v-.3h.74c.33,0,.67-.04.99-.11.33-.08.62-.2.89-.38.26-.18.48-.41.64-.7.16-.29.24-.64.24-1.07,0-.42-.1-.76-.27-1.05-.17-.28-.4-.51-.67-.69-.27-.18-.58-.3-.93-.38s-.7-.11-1.06-.11c-.5,0-.94.06-1.34.19-.4.13-.74.32-1.02.58-.28.26-.5.58-.65.96-.15.38-.22.83-.21,1.35h-.3c-.01-.57.07-1.06.23-1.48Z"/>
          </g>
          <g class="uuid-43f3e390-333c-40f1-9c28-8ff60c078e0d">
            <path class="uuid-543fd5a3-160a-4380-b068-d31706e93b43" d="m380.16,526.66v.3h-7.59v-.3h7.59Z"/>
            <path class="uuid-543fd5a3-160a-4380-b068-d31706e93b43" d="m387.95,530.88h-6.95c-.01-.44.08-.83.27-1.18s.45-.69.76-.99c.31-.31.67-.6,1.06-.88.39-.28.78-.55,1.16-.83.4-.27.78-.55,1.15-.83.37-.28.71-.58,1-.89.29-.31.53-.64.71-.99.18-.35.27-.73.27-1.13s-.07-.76-.22-1.07c-.15-.31-.35-.57-.6-.77-.25-.21-.55-.37-.9-.47-.35-.11-.73-.16-1.15-.16-.54,0-1,.08-1.38.24-.39.16-.7.39-.94.68-.24.29-.42.63-.53,1.03-.11.4-.17.84-.17,1.31h-.3c0-1.13.29-2.01.84-2.63.55-.62,1.38-.93,2.48-.93.45,0,.86.06,1.25.17s.72.29,1,.52c.28.23.51.52.68.87.17.34.25.75.25,1.21,0,.57-.15,1.08-.46,1.55s-.69.9-1.15,1.31c-.46.41-.96.79-1.5,1.15-.54.36-1.04.72-1.51,1.08s-.87.73-1.21,1.11c-.33.38-.52.79-.56,1.24h6.65v.3Z"/>
          </g>
          <g class="uuid-43f3e390-333c-40f1-9c28-8ff60c078e0d">
            <path class="uuid-a8d5cdc8-ed04-4471-8fec-d14313fc5e93" d="m380.16,526.66v.3h-7.59v-.3h7.59Z"/>
            <path class="uuid-a8d5cdc8-ed04-4471-8fec-d14313fc5e93" d="m387.95,530.88h-6.95c-.01-.44.08-.83.27-1.18s.45-.69.76-.99c.31-.31.67-.6,1.06-.88.39-.28.78-.55,1.16-.83.4-.27.78-.55,1.15-.83.37-.28.71-.58,1-.89.29-.31.53-.64.71-.99.18-.35.27-.73.27-1.13s-.07-.76-.22-1.07c-.15-.31-.35-.57-.6-.77-.25-.21-.55-.37-.9-.47-.35-.11-.73-.16-1.15-.16-.54,0-1,.08-1.38.24-.39.16-.7.39-.94.68-.24.29-.42.63-.53,1.03-.11.4-.17.84-.17,1.31h-.3c0-1.13.29-2.01.84-2.63.55-.62,1.38-.93,2.48-.93.45,0,.86.06,1.25.17s.72.29,1,.52c.28.23.51.52.68.87.17.34.25.75.25,1.21,0,.57-.15,1.08-.46,1.55s-.69.9-1.15,1.31c-.46.41-.96.79-1.5,1.15-.54.36-1.04.72-1.51,1.08s-.87.73-1.21,1.11c-.33.38-.52.79-.56,1.24h6.65v.3Z"/>
          </g>
          <g class="uuid-43f3e390-333c-40f1-9c28-8ff60c078e0d">
            <path class="uuid-543fd5a3-160a-4380-b068-d31706e93b43" d="m380.16,526.66v.3h-7.59v-.3h7.59Z"/>
            <path class="uuid-543fd5a3-160a-4380-b068-d31706e93b43" d="m387.95,530.88h-6.95c-.01-.44.08-.83.27-1.18s.45-.69.76-.99c.31-.31.67-.6,1.06-.88.39-.28.78-.55,1.16-.83.4-.27.78-.55,1.15-.83.37-.28.71-.58,1-.89.29-.31.53-.64.71-.99.18-.35.27-.73.27-1.13s-.07-.76-.22-1.07c-.15-.31-.35-.57-.6-.77-.25-.21-.55-.37-.9-.47-.35-.11-.73-.16-1.15-.16-.54,0-1,.08-1.38.24-.39.16-.7.39-.94.68-.24.29-.42.63-.53,1.03-.11.4-.17.84-.17,1.31h-.3c0-1.13.29-2.01.84-2.63.55-.62,1.38-.93,2.48-.93.45,0,.86.06,1.25.17s.72.29,1,.52c.28.23.51.52.68.87.17.34.25.75.25,1.21,0,.57-.15,1.08-.46,1.55s-.69.9-1.15,1.31c-.46.41-.96.79-1.5,1.15-.54.36-1.04.72-1.51,1.08s-.87.73-1.21,1.11c-.33.38-.52.79-.56,1.24h6.65v.3Z"/>
          </g>
          <g class="uuid-43f3e390-333c-40f1-9c28-8ff60c078e0d">
            <path class="uuid-543fd5a3-160a-4380-b068-d31706e93b43" d="m499.12,526.66v.3h-7.59v-.3h7.59Z"/>
            <path class="uuid-543fd5a3-160a-4380-b068-d31706e93b43" d="m503.61,520.95c-.31.44-.72.81-1.22,1.13-.5.32-1.01.55-1.53.69v-.3c.31-.1.59-.21.83-.33.24-.12.47-.26.68-.41.21-.15.42-.32.61-.52s.4-.41.62-.65h.33v10.33h-.3v-9.93h-.03Z"/>
          </g>
          <g class="uuid-43f3e390-333c-40f1-9c28-8ff60c078e0d">
            <path class="uuid-a8d5cdc8-ed04-4471-8fec-d14313fc5e93" d="m499.12,526.66v.3h-7.59v-.3h7.59Z"/>
            <path class="uuid-a8d5cdc8-ed04-4471-8fec-d14313fc5e93" d="m503.61,520.95c-.31.44-.72.81-1.22,1.13-.5.32-1.01.55-1.53.69v-.3c.31-.1.59-.21.83-.33.24-.12.47-.26.68-.41.21-.15.42-.32.61-.52s.4-.41.62-.65h.33v10.33h-.3v-9.93h-.03Z"/>
          </g>
          <g class="uuid-43f3e390-333c-40f1-9c28-8ff60c078e0d">
            <path class="uuid-543fd5a3-160a-4380-b068-d31706e93b43" d="m499.12,526.66v.3h-7.59v-.3h7.59Z"/>
            <path class="uuid-543fd5a3-160a-4380-b068-d31706e93b43" d="m503.61,520.95c-.31.44-.72.81-1.22,1.13-.5.32-1.01.55-1.53.69v-.3c.31-.1.59-.21.83-.33.24-.12.47-.26.68-.41.21-.15.42-.32.61-.52s.4-.41.62-.65h.33v10.33h-.3v-9.93h-.03Z"/>
          </g>
          <g class="uuid-43f3e390-333c-40f1-9c28-8ff60c078e0d">
            <path class="uuid-543fd5a3-160a-4380-b068-d31706e93b43" d="m740.25,520.95c-.31.44-.72.81-1.22,1.13-.5.32-1.01.55-1.53.69v-.3c.31-.1.59-.21.84-.33.24-.12.47-.26.68-.41.21-.15.42-.32.62-.52s.4-.41.62-.65h.33v10.33h-.3v-9.93h-.03Z"/>
          </g>
          <g class="uuid-43f3e390-333c-40f1-9c28-8ff60c078e0d">
            <path class="uuid-a8d5cdc8-ed04-4471-8fec-d14313fc5e93" d="m740.25,520.95c-.31.44-.72.81-1.22,1.13-.5.32-1.01.55-1.53.69v-.3c.31-.1.59-.21.84-.33.24-.12.47-.26.68-.41.21-.15.42-.32.62-.52s.4-.41.62-.65h.33v10.33h-.3v-9.93h-.03Z"/>
          </g>
          <g class="uuid-43f3e390-333c-40f1-9c28-8ff60c078e0d">
            <path class="uuid-543fd5a3-160a-4380-b068-d31706e93b43" d="m740.25,520.95c-.31.44-.72.81-1.22,1.13-.5.32-1.01.55-1.53.69v-.3c.31-.1.59-.21.84-.33.24-.12.47-.26.68-.41.21-.15.42-.32.62-.52s.4-.41.62-.65h.33v10.33h-.3v-9.93h-.03Z"/>
          </g>
          <g class="uuid-43f3e390-333c-40f1-9c28-8ff60c078e0d">
            <path class="uuid-543fd5a3-160a-4380-b068-d31706e93b43" d="m862.5,530.88h-6.96c0-.44.08-.83.27-1.18s.45-.69.76-.99c.31-.31.67-.6,1.05-.88s.78-.55,1.16-.83c.39-.27.78-.55,1.15-.83.37-.28.71-.58,1-.89.29-.31.53-.64.71-.99.18-.35.27-.73.27-1.13s-.07-.76-.22-1.07c-.15-.31-.35-.57-.6-.77-.25-.21-.55-.37-.9-.47-.35-.11-.73-.16-1.15-.16-.54,0-1,.08-1.38.24s-.7.39-.94.68c-.24.29-.42.63-.53,1.03-.11.4-.17.84-.17,1.31h-.3c0-1.13.29-2.01.84-2.63.55-.62,1.38-.93,2.48-.93.45,0,.86.06,1.25.17s.72.29,1,.52c.28.23.51.52.68.87.17.34.25.75.25,1.21,0,.57-.15,1.08-.46,1.55s-.69.9-1.15,1.31c-.46.41-.96.79-1.5,1.15-.54.36-1.04.72-1.51,1.08s-.87.73-1.21,1.11c-.33.38-.52.79-.56,1.24h6.65v.3Z"/>
          </g>
          <g class="uuid-43f3e390-333c-40f1-9c28-8ff60c078e0d">
            <path class="uuid-a8d5cdc8-ed04-4471-8fec-d14313fc5e93" d="m862.5,530.88h-6.96c0-.44.08-.83.27-1.18s.45-.69.76-.99c.31-.31.67-.6,1.05-.88s.78-.55,1.16-.83c.39-.27.78-.55,1.15-.83.37-.28.71-.58,1-.89.29-.31.53-.64.71-.99.18-.35.27-.73.27-1.13s-.07-.76-.22-1.07c-.15-.31-.35-.57-.6-.77-.25-.21-.55-.37-.9-.47-.35-.11-.73-.16-1.15-.16-.54,0-1,.08-1.38.24s-.7.39-.94.68c-.24.29-.42.63-.53,1.03-.11.4-.17.84-.17,1.31h-.3c0-1.13.29-2.01.84-2.63.55-.62,1.38-.93,2.48-.93.45,0,.86.06,1.25.17s.72.29,1,.52c.28.23.51.52.68.87.17.34.25.75.25,1.21,0,.57-.15,1.08-.46,1.55s-.69.9-1.15,1.31c-.46.41-.96.79-1.5,1.15-.54.36-1.04.72-1.51,1.08s-.87.73-1.21,1.11c-.33.38-.52.79-.56,1.24h6.65v.3Z"/>
          </g>
          <g class="uuid-43f3e390-333c-40f1-9c28-8ff60c078e0d">
            <path class="uuid-543fd5a3-160a-4380-b068-d31706e93b43" d="m862.5,530.88h-6.96c0-.44.08-.83.27-1.18s.45-.69.76-.99c.31-.31.67-.6,1.05-.88s.78-.55,1.16-.83c.39-.27.78-.55,1.15-.83.37-.28.71-.58,1-.89.29-.31.53-.64.71-.99.18-.35.27-.73.27-1.13s-.07-.76-.22-1.07c-.15-.31-.35-.57-.6-.77-.25-.21-.55-.37-.9-.47-.35-.11-.73-.16-1.15-.16-.54,0-1,.08-1.38.24s-.7.39-.94.68c-.24.29-.42.63-.53,1.03-.11.4-.17.84-.17,1.31h-.3c0-1.13.29-2.01.84-2.63.55-.62,1.38-.93,2.48-.93.45,0,.86.06,1.25.17s.72.29,1,.52c.28.23.51.52.68.87.17.34.25.75.25,1.21,0,.57-.15,1.08-.46,1.55s-.69.9-1.15,1.31c-.46.41-.96.79-1.5,1.15-.54.36-1.04.72-1.51,1.08s-.87.73-1.21,1.11c-.33.38-.52.79-.56,1.24h6.65v.3Z"/>
          </g>
          <g class="uuid-43f3e390-333c-40f1-9c28-8ff60c078e0d">
            <path class="uuid-543fd5a3-160a-4380-b068-d31706e93b43" d="m976.05,522.28c.16-.42.4-.77.71-1.06.31-.28.68-.5,1.12-.64.44-.14.93-.21,1.47-.21.42,0,.81.05,1.2.14.38.09.73.24,1.03.44.3.2.55.47.73.79.18.32.27.71.27,1.17,0,.73-.21,1.3-.63,1.7s-.95.64-1.59.7v.03c.3.03.6.1.89.22.29.12.55.28.77.5.23.22.41.49.55.81.14.32.21.71.21,1.15,0,.49-.09.92-.28,1.29-.19.38-.44.69-.76.95-.32.26-.69.45-1.11.58s-.87.2-1.34.2c-.59,0-1.12-.08-1.59-.24-.48-.16-.88-.4-1.21-.71-.33-.31-.58-.69-.75-1.15-.17-.46-.23-.98-.19-1.56h.3c-.04.55.02,1.03.17,1.45.15.42.38.77.68,1.05.3.28.68.5,1.12.65.45.15.94.22,1.47.22.42,0,.81-.06,1.2-.17s.72-.29,1.02-.52c.29-.23.53-.52.71-.86.18-.34.27-.73.27-1.18s-.07-.83-.22-1.14c-.15-.31-.35-.57-.62-.77-.27-.2-.58-.35-.94-.46s-.75-.16-1.18-.18h-.74v-.3h.74c.33,0,.67-.04,1-.11.33-.08.62-.2.89-.38.26-.18.48-.41.64-.7.16-.29.24-.64.24-1.07,0-.42-.1-.76-.27-1.05-.17-.28-.39-.51-.67-.69-.27-.18-.58-.3-.93-.38-.34-.08-.7-.11-1.06-.11-.5,0-.94.06-1.34.19-.4.13-.74.32-1.03.58-.28.26-.5.58-.65.96-.15.38-.21.83-.21,1.35h-.3c0-.57.07-1.06.23-1.48Z"/>
          </g>
          <g class="uuid-43f3e390-333c-40f1-9c28-8ff60c078e0d">
            <path class="uuid-a8d5cdc8-ed04-4471-8fec-d14313fc5e93" d="m976.05,522.28c.16-.42.4-.77.71-1.06.31-.28.68-.5,1.12-.64.44-.14.93-.21,1.47-.21.42,0,.81.05,1.2.14.38.09.73.24,1.03.44.3.2.55.47.73.79.18.32.27.71.27,1.17,0,.73-.21,1.3-.63,1.7s-.95.64-1.59.7v.03c.3.03.6.1.89.22.29.12.55.28.77.5.23.22.41.49.55.81.14.32.21.71.21,1.15,0,.49-.09.92-.28,1.29-.19.38-.44.69-.76.95-.32.26-.69.45-1.11.58s-.87.2-1.34.2c-.59,0-1.12-.08-1.59-.24-.48-.16-.88-.4-1.21-.71-.33-.31-.58-.69-.75-1.15-.17-.46-.23-.98-.19-1.56h.3c-.04.55.02,1.03.17,1.45.15.42.38.77.68,1.05.3.28.68.5,1.12.65.45.15.94.22,1.47.22.42,0,.81-.06,1.2-.17s.72-.29,1.02-.52c.29-.23.53-.52.71-.86.18-.34.27-.73.27-1.18s-.07-.83-.22-1.14c-.15-.31-.35-.57-.62-.77-.27-.2-.58-.35-.94-.46s-.75-.16-1.18-.18h-.74v-.3h.74c.33,0,.67-.04,1-.11.33-.08.62-.2.89-.38.26-.18.48-.41.64-.7.16-.29.24-.64.24-1.07,0-.42-.1-.76-.27-1.05-.17-.28-.39-.51-.67-.69-.27-.18-.58-.3-.93-.38-.34-.08-.7-.11-1.06-.11-.5,0-.94.06-1.34.19-.4.13-.74.32-1.03.58-.28.26-.5.58-.65.96-.15.38-.21.83-.21,1.35h-.3c0-.57.07-1.06.23-1.48Z"/>
          </g>
          <g class="uuid-43f3e390-333c-40f1-9c28-8ff60c078e0d">
            <path class="uuid-543fd5a3-160a-4380-b068-d31706e93b43" d="m976.05,522.28c.16-.42.4-.77.71-1.06.31-.28.68-.5,1.12-.64.44-.14.93-.21,1.47-.21.42,0,.81.05,1.2.14.38.09.73.24,1.03.44.3.2.55.47.73.79.18.32.27.71.27,1.17,0,.73-.21,1.3-.63,1.7s-.95.64-1.59.7v.03c.3.03.6.1.89.22.29.12.55.28.77.5.23.22.41.49.55.81.14.32.21.71.21,1.15,0,.49-.09.92-.28,1.29-.19.38-.44.69-.76.95-.32.26-.69.45-1.11.58s-.87.2-1.34.2c-.59,0-1.12-.08-1.59-.24-.48-.16-.88-.4-1.21-.71-.33-.31-.58-.69-.75-1.15-.17-.46-.23-.98-.19-1.56h.3c-.04.55.02,1.03.17,1.45.15.42.38.77.68,1.05.3.28.68.5,1.12.65.45.15.94.22,1.47.22.42,0,.81-.06,1.2-.17s.72-.29,1.02-.52c.29-.23.53-.52.71-.86.18-.34.27-.73.27-1.18s-.07-.83-.22-1.14c-.15-.31-.35-.57-.62-.77-.27-.2-.58-.35-.94-.46s-.75-.16-1.18-.18h-.74v-.3h.74c.33,0,.67-.04,1-.11.33-.08.62-.2.89-.38.26-.18.48-.41.64-.7.16-.29.24-.64.24-1.07,0-.42-.1-.76-.27-1.05-.17-.28-.39-.51-.67-.69-.27-.18-.58-.3-.93-.38-.34-.08-.7-.11-1.06-.11-.5,0-.94.06-1.34.19-.4.13-.74.32-1.03.58-.28.26-.5.58-.65.96-.15.38-.21.83-.21,1.35h-.3c0-.57.07-1.06.23-1.48Z"/>
          </g>
          <g class="uuid-43f3e390-333c-40f1-9c28-8ff60c078e0d">
            <path class="uuid-543fd5a3-160a-4380-b068-d31706e93b43" d="m1095.67,527.83l5.16-7.27h.38v7.33h1.87v.3h-1.87v2.69h-.3v-2.69h-5.24v-.37Zm5.21-6.85l-4.9,6.91h4.93v-6.91h-.03Z"/>
          </g>
          <g class="uuid-43f3e390-333c-40f1-9c28-8ff60c078e0d">
            <path class="uuid-a8d5cdc8-ed04-4471-8fec-d14313fc5e93" d="m1095.67,527.83l5.16-7.27h.38v7.33h1.87v.3h-1.87v2.69h-.3v-2.69h-5.24v-.37Zm5.21-6.85l-4.9,6.91h4.93v-6.91h-.03Z"/>
          </g>
          <g class="uuid-43f3e390-333c-40f1-9c28-8ff60c078e0d">
            <path class="uuid-543fd5a3-160a-4380-b068-d31706e93b43" d="m1095.67,527.83l5.16-7.27h.38v7.33h1.87v.3h-1.87v2.69h-.3v-2.69h-5.24v-.37Zm5.21-6.85l-4.9,6.91h4.93v-6.91h-.03Z"/>
          </g>
          <g class="uuid-43f3e390-333c-40f1-9c28-8ff60c078e0d">
            <path class="uuid-543fd5a3-160a-4380-b068-d31706e93b43" d="m1215.39,525.28h.03c.29-.49.69-.84,1.18-1.06s1.04-.33,1.65-.33c.54,0,1.02.09,1.46.27.44.18.81.42,1.12.74.31.31.56.69.73,1.13s.26.92.26,1.44c0,.55-.09,1.04-.26,1.49s-.42.83-.73,1.14c-.31.31-.69.55-1.12.72-.44.17-.92.25-1.46.25s-1.01-.08-1.46-.24c-.45-.16-.84-.38-1.15-.68-.32-.29-.56-.66-.74-1.09-.17-.43-.25-.92-.23-1.48h.3c-.02.51.05.96.2,1.35.15.39.37.73.66,1,.29.27.64.48,1.06.62.42.14.87.21,1.37.21s.96-.08,1.36-.24c.4-.16.74-.38,1.03-.67.28-.29.5-.64.65-1.05.15-.41.23-.86.23-1.36s-.08-.91-.24-1.31c-.16-.4-.38-.74-.66-1.03-.28-.29-.63-.51-1.03-.68-.41-.16-.85-.24-1.34-.24-.61,0-1.17.13-1.69.4-.52.27-.92.66-1.2,1.18h-.38l1.11-5.21h5.3v.3h-5.06l-.94,4.42Z"/>
          </g>
          <g class="uuid-43f3e390-333c-40f1-9c28-8ff60c078e0d">
            <path class="uuid-a8d5cdc8-ed04-4471-8fec-d14313fc5e93" d="m1215.39,525.28h.03c.29-.49.69-.84,1.18-1.06s1.04-.33,1.65-.33c.54,0,1.02.09,1.46.27.44.18.81.42,1.12.74.31.31.56.69.73,1.13s.26.92.26,1.44c0,.55-.09,1.04-.26,1.49s-.42.83-.73,1.14c-.31.31-.69.55-1.12.72-.44.17-.92.25-1.46.25s-1.01-.08-1.46-.24c-.45-.16-.84-.38-1.15-.68-.32-.29-.56-.66-.74-1.09-.17-.43-.25-.92-.23-1.48h.3c-.02.51.05.96.2,1.35.15.39.37.73.66,1,.29.27.64.48,1.06.62.42.14.87.21,1.37.21s.96-.08,1.36-.24c.4-.16.74-.38,1.03-.67.28-.29.5-.64.65-1.05.15-.41.23-.86.23-1.36s-.08-.91-.24-1.31c-.16-.4-.38-.74-.66-1.03-.28-.29-.63-.51-1.03-.68-.41-.16-.85-.24-1.34-.24-.61,0-1.17.13-1.69.4-.52.27-.92.66-1.2,1.18h-.38l1.11-5.21h5.3v.3h-5.06l-.94,4.42Z"/>
          </g>
          <g class="uuid-43f3e390-333c-40f1-9c28-8ff60c078e0d">
            <path class="uuid-543fd5a3-160a-4380-b068-d31706e93b43" d="m1215.39,525.28h.03c.29-.49.69-.84,1.18-1.06s1.04-.33,1.65-.33c.54,0,1.02.09,1.46.27.44.18.81.42,1.12.74.31.31.56.69.73,1.13s.26.92.26,1.44c0,.55-.09,1.04-.26,1.49s-.42.83-.73,1.14c-.31.31-.69.55-1.12.72-.44.17-.92.25-1.46.25s-1.01-.08-1.46-.24c-.45-.16-.84-.38-1.15-.68-.32-.29-.56-.66-.74-1.09-.17-.43-.25-.92-.23-1.48h.3c-.02.51.05.96.2,1.35.15.39.37.73.66,1,.29.27.64.48,1.06.62.42.14.87.21,1.37.21s.96-.08,1.36-.24c.4-.16.74-.38,1.03-.67.28-.29.5-.64.65-1.05.15-.41.23-.86.23-1.36s-.08-.91-.24-1.31c-.16-.4-.38-.74-.66-1.03-.28-.29-.63-.51-1.03-.68-.41-.16-.85-.24-1.34-.24-.61,0-1.17.13-1.69.4-.52.27-.92.66-1.2,1.18h-.38l1.11-5.21h5.3v.3h-5.06l-.94,4.42Z"/>
          </g>
          <g class="uuid-43f3e390-333c-40f1-9c28-8ff60c078e0d">
            <path class="uuid-543fd5a3-160a-4380-b068-d31706e93b43" d="m600.35,991.08v.3h-7.59v-.3h7.59Z"/>
            <path class="uuid-543fd5a3-160a-4380-b068-d31706e93b43" d="m600.87,992.25l5.16-7.27h.38v7.33h1.87v.3h-1.87v2.69h-.3v-2.69h-5.24v-.37Zm5.21-6.85l-4.91,6.91h4.94v-6.91h-.03Z"/>
          </g>
          <g class="uuid-43f3e390-333c-40f1-9c28-8ff60c078e0d">
            <path class="uuid-a8d5cdc8-ed04-4471-8fec-d14313fc5e93" d="m600.35,991.08v.3h-7.59v-.3h7.59Z"/>
            <path class="uuid-a8d5cdc8-ed04-4471-8fec-d14313fc5e93" d="m600.87,992.25l5.16-7.27h.38v7.33h1.87v.3h-1.87v2.69h-.3v-2.69h-5.24v-.37Zm5.21-6.85l-4.91,6.91h4.94v-6.91h-.03Z"/>
          </g>
          <g class="uuid-43f3e390-333c-40f1-9c28-8ff60c078e0d">
            <path class="uuid-543fd5a3-160a-4380-b068-d31706e93b43" d="m600.35,991.08v.3h-7.59v-.3h7.59Z"/>
            <path class="uuid-543fd5a3-160a-4380-b068-d31706e93b43" d="m600.87,992.25l5.16-7.27h.38v7.33h1.87v.3h-1.87v2.69h-.3v-2.69h-5.24v-.37Zm5.21-6.85l-4.91,6.91h4.94v-6.91h-.03Z"/>
          </g>
          <g class="uuid-43f3e390-333c-40f1-9c28-8ff60c078e0d">
            <path class="uuid-543fd5a3-160a-4380-b068-d31706e93b43" d="m600.35,872.13v.3h-7.59v-.3h7.59Z"/>
            <path class="uuid-543fd5a3-160a-4380-b068-d31706e93b43" d="m601.48,867.75c.16-.42.4-.77.71-1.06.31-.28.68-.5,1.12-.64s.93-.21,1.47-.21c.42,0,.81.05,1.2.14.38.09.73.24,1.03.44.3.2.55.47.73.79.18.32.27.71.27,1.17,0,.73-.21,1.3-.63,1.7-.42.41-.95.64-1.59.7v.03c.3.03.6.1.89.22s.55.28.77.5c.23.22.41.49.55.81s.21.71.21,1.15c0,.49-.09.92-.28,1.29-.19.38-.44.69-.76.95-.32.26-.69.45-1.11.58-.42.13-.87.2-1.34.2-.59,0-1.12-.08-1.59-.24-.48-.16-.88-.4-1.21-.71-.33-.31-.58-.69-.75-1.15-.17-.46-.23-.98-.19-1.56h.3c-.04.55.02,1.03.17,1.45.15.42.38.77.68,1.05.3.28.68.5,1.12.65.45.15.94.22,1.47.22.42,0,.81-.06,1.2-.17.38-.12.72-.29,1.02-.52.29-.23.53-.52.71-.86.18-.34.27-.73.27-1.18s-.07-.83-.22-1.14c-.15-.31-.35-.57-.62-.77-.27-.2-.58-.35-.94-.46s-.75-.16-1.18-.18h-.74v-.3h.74c.33,0,.67-.04.99-.11.33-.08.62-.2.89-.38.26-.18.48-.41.64-.7.16-.29.24-.64.24-1.07,0-.42-.1-.76-.27-1.05-.17-.28-.4-.51-.67-.69-.27-.18-.58-.3-.93-.38s-.7-.11-1.06-.11c-.5,0-.94.06-1.34.19-.4.13-.74.32-1.02.58-.28.26-.5.58-.65.96-.15.38-.22.83-.21,1.35h-.3c-.01-.57.07-1.06.23-1.48Z"/>
          </g>
          <g class="uuid-43f3e390-333c-40f1-9c28-8ff60c078e0d">
            <path class="uuid-a8d5cdc8-ed04-4471-8fec-d14313fc5e93" d="m600.35,872.13v.3h-7.59v-.3h7.59Z"/>
            <path class="uuid-a8d5cdc8-ed04-4471-8fec-d14313fc5e93" d="m601.48,867.75c.16-.42.4-.77.71-1.06.31-.28.68-.5,1.12-.64s.93-.21,1.47-.21c.42,0,.81.05,1.2.14.38.09.73.24,1.03.44.3.2.55.47.73.79.18.32.27.71.27,1.17,0,.73-.21,1.3-.63,1.7-.42.41-.95.64-1.59.7v.03c.3.03.6.1.89.22s.55.28.77.5c.23.22.41.49.55.81s.21.71.21,1.15c0,.49-.09.92-.28,1.29-.19.38-.44.69-.76.95-.32.26-.69.45-1.11.58-.42.13-.87.2-1.34.2-.59,0-1.12-.08-1.59-.24-.48-.16-.88-.4-1.21-.71-.33-.31-.58-.69-.75-1.15-.17-.46-.23-.98-.19-1.56h.3c-.04.55.02,1.03.17,1.45.15.42.38.77.68,1.05.3.28.68.5,1.12.65.45.15.94.22,1.47.22.42,0,.81-.06,1.2-.17.38-.12.72-.29,1.02-.52.29-.23.53-.52.71-.86.18-.34.27-.73.27-1.18s-.07-.83-.22-1.14c-.15-.31-.35-.57-.62-.77-.27-.2-.58-.35-.94-.46s-.75-.16-1.18-.18h-.74v-.3h.74c.33,0,.67-.04.99-.11.33-.08.62-.2.89-.38.26-.18.48-.41.64-.7.16-.29.24-.64.24-1.07,0-.42-.1-.76-.27-1.05-.17-.28-.4-.51-.67-.69-.27-.18-.58-.3-.93-.38s-.7-.11-1.06-.11c-.5,0-.94.06-1.34.19-.4.13-.74.32-1.02.58-.28.26-.5.58-.65.96-.15.38-.22.83-.21,1.35h-.3c-.01-.57.07-1.06.23-1.48Z"/>
          </g>
          <g class="uuid-43f3e390-333c-40f1-9c28-8ff60c078e0d">
            <path class="uuid-543fd5a3-160a-4380-b068-d31706e93b43" d="m600.35,872.13v.3h-7.59v-.3h7.59Z"/>
            <path class="uuid-543fd5a3-160a-4380-b068-d31706e93b43" d="m601.48,867.75c.16-.42.4-.77.71-1.06.31-.28.68-.5,1.12-.64s.93-.21,1.47-.21c.42,0,.81.05,1.2.14.38.09.73.24,1.03.44.3.2.55.47.73.79.18.32.27.71.27,1.17,0,.73-.21,1.3-.63,1.7-.42.41-.95.64-1.59.7v.03c.3.03.6.1.89.22s.55.28.77.5c.23.22.41.49.55.81s.21.71.21,1.15c0,.49-.09.92-.28,1.29-.19.38-.44.69-.76.95-.32.26-.69.45-1.11.58-.42.13-.87.2-1.34.2-.59,0-1.12-.08-1.59-.24-.48-.16-.88-.4-1.21-.71-.33-.31-.58-.69-.75-1.15-.17-.46-.23-.98-.19-1.56h.3c-.04.55.02,1.03.17,1.45.15.42.38.77.68,1.05.3.28.68.5,1.12.65.45.15.94.22,1.47.22.42,0,.81-.06,1.2-.17.38-.12.72-.29,1.02-.52.29-.23.53-.52.71-.86.18-.34.27-.73.27-1.18s-.07-.83-.22-1.14c-.15-.31-.35-.57-.62-.77-.27-.2-.58-.35-.94-.46s-.75-.16-1.18-.18h-.74v-.3h.74c.33,0,.67-.04.99-.11.33-.08.62-.2.89-.38.26-.18.48-.41.64-.7.16-.29.24-.64.24-1.07,0-.42-.1-.76-.27-1.05-.17-.28-.4-.51-.67-.69-.27-.18-.58-.3-.93-.38s-.7-.11-1.06-.11c-.5,0-.94.06-1.34.19-.4.13-.74.32-1.02.58-.28.26-.5.58-.65.96-.15.38-.22.83-.21,1.35h-.3c-.01-.57.07-1.06.23-1.48Z"/>
          </g>
          <g class="uuid-43f3e390-333c-40f1-9c28-8ff60c078e0d">
            <path class="uuid-543fd5a3-160a-4380-b068-d31706e93b43" d="m600.35,751.91v.3h-7.59v-.3h7.59Z"/>
            <path class="uuid-543fd5a3-160a-4380-b068-d31706e93b43" d="m608.14,756.13h-6.95c-.01-.44.08-.83.27-1.18s.45-.69.76-.99c.31-.31.67-.6,1.06-.88.39-.28.78-.55,1.16-.83.4-.27.78-.55,1.15-.83.37-.28.71-.58,1-.89.29-.31.53-.64.71-.99.18-.35.27-.73.27-1.13s-.07-.76-.22-1.07c-.15-.31-.35-.57-.6-.77-.25-.21-.55-.37-.9-.47-.35-.11-.73-.16-1.15-.16-.54,0-1,.08-1.38.24-.39.16-.7.39-.94.68-.24.29-.42.63-.53,1.03-.11.4-.17.84-.17,1.31h-.3c0-1.13.29-2.01.84-2.63.55-.62,1.38-.93,2.48-.93.45,0,.86.06,1.25.17s.72.29,1,.52c.28.23.51.52.68.87.17.34.25.75.25,1.21,0,.57-.15,1.08-.46,1.55s-.69.9-1.15,1.31c-.46.41-.96.79-1.5,1.15-.54.36-1.04.72-1.51,1.08s-.87.73-1.21,1.11c-.33.38-.52.79-.56,1.24h6.65v.3Z"/>
          </g>
          <g class="uuid-43f3e390-333c-40f1-9c28-8ff60c078e0d">
            <path class="uuid-a8d5cdc8-ed04-4471-8fec-d14313fc5e93" d="m600.35,751.91v.3h-7.59v-.3h7.59Z"/>
            <path class="uuid-a8d5cdc8-ed04-4471-8fec-d14313fc5e93" d="m608.14,756.13h-6.95c-.01-.44.08-.83.27-1.18s.45-.69.76-.99c.31-.31.67-.6,1.06-.88.39-.28.78-.55,1.16-.83.4-.27.78-.55,1.15-.83.37-.28.71-.58,1-.89.29-.31.53-.64.71-.99.18-.35.27-.73.27-1.13s-.07-.76-.22-1.07c-.15-.31-.35-.57-.6-.77-.25-.21-.55-.37-.9-.47-.35-.11-.73-.16-1.15-.16-.54,0-1,.08-1.38.24-.39.16-.7.39-.94.68-.24.29-.42.63-.53,1.03-.11.4-.17.84-.17,1.31h-.3c0-1.13.29-2.01.84-2.63.55-.62,1.38-.93,2.48-.93.45,0,.86.06,1.25.17s.72.29,1,.52c.28.23.51.52.68.87.17.34.25.75.25,1.21,0,.57-.15,1.08-.46,1.55s-.69.9-1.15,1.31c-.46.41-.96.79-1.5,1.15-.54.36-1.04.72-1.51,1.08s-.87.73-1.21,1.11c-.33.38-.52.79-.56,1.24h6.65v.3Z"/>
          </g>
          <g class="uuid-43f3e390-333c-40f1-9c28-8ff60c078e0d">
            <path class="uuid-543fd5a3-160a-4380-b068-d31706e93b43" d="m600.35,751.91v.3h-7.59v-.3h7.59Z"/>
            <path class="uuid-543fd5a3-160a-4380-b068-d31706e93b43" d="m608.14,756.13h-6.95c-.01-.44.08-.83.27-1.18s.45-.69.76-.99c.31-.31.67-.6,1.06-.88.39-.28.78-.55,1.16-.83.4-.27.78-.55,1.15-.83.37-.28.71-.58,1-.89.29-.31.53-.64.71-.99.18-.35.27-.73.27-1.13s-.07-.76-.22-1.07c-.15-.31-.35-.57-.6-.77-.25-.21-.55-.37-.9-.47-.35-.11-.73-.16-1.15-.16-.54,0-1,.08-1.38.24-.39.16-.7.39-.94.68-.24.29-.42.63-.53,1.03-.11.4-.17.84-.17,1.31h-.3c0-1.13.29-2.01.84-2.63.55-.62,1.38-.93,2.48-.93.45,0,.86.06,1.25.17s.72.29,1,.52c.28.23.51.52.68.87.17.34.25.75.25,1.21,0,.57-.15,1.08-.46,1.55s-.69.9-1.15,1.31c-.46.41-.96.79-1.5,1.15-.54.36-1.04.72-1.51,1.08s-.87.73-1.21,1.11c-.33.38-.52.79-.56,1.24h6.65v.3Z"/>
          </g>
          <g class="uuid-43f3e390-333c-40f1-9c28-8ff60c078e0d">
            <path class="uuid-543fd5a3-160a-4380-b068-d31706e93b43" d="m600.35,632.96v.3h-7.59v-.3h7.59Z"/>
            <path class="uuid-543fd5a3-160a-4380-b068-d31706e93b43" d="m604.85,627.25c-.31.44-.72.81-1.22,1.13-.5.32-1.01.55-1.53.69v-.3c.31-.1.59-.21.83-.33.24-.12.47-.26.68-.41.21-.15.42-.32.61-.52s.4-.41.62-.65h.33v10.33h-.3v-9.93h-.03Z"/>
          </g>
          <g class="uuid-43f3e390-333c-40f1-9c28-8ff60c078e0d">
            <path class="uuid-a8d5cdc8-ed04-4471-8fec-d14313fc5e93" d="m600.35,632.96v.3h-7.59v-.3h7.59Z"/>
            <path class="uuid-a8d5cdc8-ed04-4471-8fec-d14313fc5e93" d="m604.85,627.25c-.31.44-.72.81-1.22,1.13-.5.32-1.01.55-1.53.69v-.3c.31-.1.59-.21.83-.33.24-.12.47-.26.68-.41.21-.15.42-.32.61-.52s.4-.41.62-.65h.33v10.33h-.3v-9.93h-.03Z"/>
          </g>
          <g class="uuid-43f3e390-333c-40f1-9c28-8ff60c078e0d">
            <path class="uuid-543fd5a3-160a-4380-b068-d31706e93b43" d="m600.35,632.96v.3h-7.59v-.3h7.59Z"/>
            <path class="uuid-543fd5a3-160a-4380-b068-d31706e93b43" d="m604.85,627.25c-.31.44-.72.81-1.22,1.13-.5.32-1.01.55-1.53.69v-.3c.31-.1.59-.21.83-.33.24-.12.47-.26.68-.41.21-.15.42-.32.61-.52s.4-.41.62-.65h.33v10.33h-.3v-9.93h-.03Z"/>
          </g>
          <g class="uuid-43f3e390-333c-40f1-9c28-8ff60c078e0d">
            <path class="uuid-543fd5a3-160a-4380-b068-d31706e93b43" d="m604.85,386.81c-.31.44-.72.81-1.22,1.13-.5.32-1.01.55-1.53.69v-.3c.31-.1.59-.21.83-.33.24-.12.47-.26.68-.41.21-.15.42-.32.61-.52.2-.19.4-.41.62-.65h.33v10.33h-.3v-9.93h-.03Z"/>
          </g>
          <g class="uuid-43f3e390-333c-40f1-9c28-8ff60c078e0d">
            <path class="uuid-a8d5cdc8-ed04-4471-8fec-d14313fc5e93" d="m604.85,386.81c-.31.44-.72.81-1.22,1.13-.5.32-1.01.55-1.53.69v-.3c.31-.1.59-.21.83-.33.24-.12.47-.26.68-.41.21-.15.42-.32.61-.52.2-.19.4-.41.62-.65h.33v10.33h-.3v-9.93h-.03Z"/>
          </g>
          <g class="uuid-43f3e390-333c-40f1-9c28-8ff60c078e0d">
            <path class="uuid-543fd5a3-160a-4380-b068-d31706e93b43" d="m604.85,386.81c-.31.44-.72.81-1.22,1.13-.5.32-1.01.55-1.53.69v-.3c.31-.1.59-.21.83-.33.24-.12.47-.26.68-.41.21-.15.42-.32.61-.52.2-.19.4-.41.62-.65h.33v10.33h-.3v-9.93h-.03Z"/>
          </g>
          <g class="uuid-43f3e390-333c-40f1-9c28-8ff60c078e0d">
            <path class="uuid-543fd5a3-160a-4380-b068-d31706e93b43" d="m608.14,277.79h-6.95c-.01-.44.08-.83.27-1.18.19-.35.45-.69.76-.99.31-.31.67-.6,1.06-.88.39-.28.78-.55,1.16-.83.4-.27.78-.55,1.15-.83.37-.28.71-.58,1-.89.29-.31.53-.64.71-.99s.27-.73.27-1.13-.07-.76-.22-1.07c-.15-.31-.35-.57-.6-.77-.25-.21-.55-.36-.9-.47-.35-.11-.73-.16-1.15-.16-.54,0-1,.08-1.38.24-.39.16-.7.39-.94.68-.24.29-.42.63-.53,1.03-.11.4-.17.84-.17,1.31h-.3c0-1.13.29-2.01.84-2.63.55-.62,1.38-.93,2.48-.93.45,0,.86.06,1.25.17.38.12.72.29,1,.52.28.23.51.52.68.87.17.34.25.75.25,1.21,0,.57-.15,1.08-.46,1.55-.3.47-.69.9-1.15,1.31-.46.4-.96.79-1.5,1.15s-1.04.72-1.51,1.08-.87.73-1.21,1.11c-.33.38-.52.79-.56,1.24h6.65v.3Z"/>
          </g>
          <g class="uuid-43f3e390-333c-40f1-9c28-8ff60c078e0d">
            <path class="uuid-a8d5cdc8-ed04-4471-8fec-d14313fc5e93" d="m608.14,277.79h-6.95c-.01-.44.08-.83.27-1.18.19-.35.45-.69.76-.99.31-.31.67-.6,1.06-.88.39-.28.78-.55,1.16-.83.4-.27.78-.55,1.15-.83.37-.28.71-.58,1-.89.29-.31.53-.64.71-.99s.27-.73.27-1.13-.07-.76-.22-1.07c-.15-.31-.35-.57-.6-.77-.25-.21-.55-.36-.9-.47-.35-.11-.73-.16-1.15-.16-.54,0-1,.08-1.38.24-.39.16-.7.39-.94.68-.24.29-.42.63-.53,1.03-.11.4-.17.84-.17,1.31h-.3c0-1.13.29-2.01.84-2.63.55-.62,1.38-.93,2.48-.93.45,0,.86.06,1.25.17.38.12.72.29,1,.52.28.23.51.52.68.87.17.34.25.75.25,1.21,0,.57-.15,1.08-.46,1.55-.3.47-.69.9-1.15,1.31-.46.4-.96.79-1.5,1.15s-1.04.72-1.51,1.08-.87.73-1.21,1.11c-.33.38-.52.79-.56,1.24h6.65v.3Z"/>
          </g>
          <g class="uuid-43f3e390-333c-40f1-9c28-8ff60c078e0d">
            <path class="uuid-543fd5a3-160a-4380-b068-d31706e93b43" d="m608.14,277.79h-6.95c-.01-.44.08-.83.27-1.18.19-.35.45-.69.76-.99.31-.31.67-.6,1.06-.88.39-.28.78-.55,1.16-.83.4-.27.78-.55,1.15-.83.37-.28.71-.58,1-.89.29-.31.53-.64.71-.99s.27-.73.27-1.13-.07-.76-.22-1.07c-.15-.31-.35-.57-.6-.77-.25-.21-.55-.36-.9-.47-.35-.11-.73-.16-1.15-.16-.54,0-1,.08-1.38.24-.39.16-.7.39-.94.68-.24.29-.42.63-.53,1.03-.11.4-.17.84-.17,1.31h-.3c0-1.13.29-2.01.84-2.63.55-.62,1.38-.93,2.48-.93.45,0,.86.06,1.25.17.38.12.72.29,1,.52.28.23.51.52.68.87.17.34.25.75.25,1.21,0,.57-.15,1.08-.46,1.55-.3.47-.69.9-1.15,1.31-.46.4-.96.79-1.5,1.15s-1.04.72-1.51,1.08-.87.73-1.21,1.11c-.33.38-.52.79-.56,1.24h6.65v.3Z"/>
          </g>
          <g class="uuid-43f3e390-333c-40f1-9c28-8ff60c078e0d">
            <path class="uuid-543fd5a3-160a-4380-b068-d31706e93b43" d="m601.48,148.96c.16-.42.4-.77.71-1.06.31-.28.68-.5,1.12-.64.44-.14.93-.21,1.47-.21.42,0,.81.05,1.2.14.38.09.73.24,1.03.44s.55.47.73.79c.18.32.27.71.27,1.17,0,.73-.21,1.3-.63,1.7-.42.4-.95.64-1.59.7v.03c.3.03.6.1.89.22.29.12.55.28.77.5.23.22.41.49.55.81.14.32.21.71.21,1.15,0,.49-.09.92-.28,1.29-.19.37-.44.69-.76.95-.32.26-.69.45-1.11.58-.42.13-.87.2-1.34.2-.59,0-1.12-.08-1.59-.24-.48-.16-.88-.4-1.21-.71-.33-.31-.58-.69-.75-1.15s-.23-.98-.19-1.56h.3c-.04.55.02,1.03.17,1.45.15.42.38.77.68,1.06.3.28.68.5,1.12.65.45.15.94.22,1.47.22.42,0,.81-.06,1.2-.17.38-.12.72-.29,1.02-.52s.53-.52.71-.86c.18-.34.27-.73.27-1.18s-.07-.82-.22-1.14c-.15-.31-.35-.57-.62-.77-.27-.2-.58-.35-.94-.46s-.75-.16-1.18-.18h-.74v-.3h.74c.33,0,.67-.04.99-.11.33-.08.62-.2.89-.38.26-.18.48-.41.64-.7.16-.29.24-.65.24-1.07,0-.41-.1-.76-.27-1.05-.17-.28-.4-.51-.67-.69-.27-.18-.58-.3-.93-.38-.34-.08-.7-.11-1.06-.11-.5,0-.94.06-1.34.19-.4.13-.74.32-1.02.58-.28.26-.5.58-.65.96-.15.38-.22.84-.21,1.35h-.3c-.01-.57.07-1.06.23-1.48Z"/>
          </g>
          <g class="uuid-43f3e390-333c-40f1-9c28-8ff60c078e0d">
            <path class="uuid-a8d5cdc8-ed04-4471-8fec-d14313fc5e93" d="m601.48,148.96c.16-.42.4-.77.71-1.06.31-.28.68-.5,1.12-.64.44-.14.93-.21,1.47-.21.42,0,.81.05,1.2.14.38.09.73.24,1.03.44s.55.47.73.79c.18.32.27.71.27,1.17,0,.73-.21,1.3-.63,1.7-.42.4-.95.64-1.59.7v.03c.3.03.6.1.89.22.29.12.55.28.77.5.23.22.41.49.55.81.14.32.21.71.21,1.15,0,.49-.09.92-.28,1.29-.19.37-.44.69-.76.95-.32.26-.69.45-1.11.58-.42.13-.87.2-1.34.2-.59,0-1.12-.08-1.59-.24-.48-.16-.88-.4-1.21-.71-.33-.31-.58-.69-.75-1.15s-.23-.98-.19-1.56h.3c-.04.55.02,1.03.17,1.45.15.42.38.77.68,1.06.3.28.68.5,1.12.65.45.15.94.22,1.47.22.42,0,.81-.06,1.2-.17.38-.12.72-.29,1.02-.52s.53-.52.71-.86c.18-.34.27-.73.27-1.18s-.07-.82-.22-1.14c-.15-.31-.35-.57-.62-.77-.27-.2-.58-.35-.94-.46s-.75-.16-1.18-.18h-.74v-.3h.74c.33,0,.67-.04.99-.11.33-.08.62-.2.89-.38.26-.18.48-.41.64-.7.16-.29.24-.65.24-1.07,0-.41-.1-.76-.27-1.05-.17-.28-.4-.51-.67-.69-.27-.18-.58-.3-.93-.38-.34-.08-.7-.11-1.06-.11-.5,0-.94.06-1.34.19-.4.13-.74.32-1.02.58-.28.26-.5.58-.65.96-.15.38-.22.84-.21,1.35h-.3c-.01-.57.07-1.06.23-1.48Z"/>
          </g>
          <g class="uuid-43f3e390-333c-40f1-9c28-8ff60c078e0d">
            <path class="uuid-543fd5a3-160a-4380-b068-d31706e93b43" d="m601.48,148.96c.16-.42.4-.77.71-1.06.31-.28.68-.5,1.12-.64.44-.14.93-.21,1.47-.21.42,0,.81.05,1.2.14.38.09.73.24,1.03.44s.55.47.73.79c.18.32.27.71.27,1.17,0,.73-.21,1.3-.63,1.7-.42.4-.95.64-1.59.7v.03c.3.03.6.1.89.22.29.12.55.28.77.5.23.22.41.49.55.81.14.32.21.71.21,1.15,0,.49-.09.92-.28,1.29-.19.37-.44.69-.76.95-.32.26-.69.45-1.11.58-.42.13-.87.2-1.34.2-.59,0-1.12-.08-1.59-.24-.48-.16-.88-.4-1.21-.71-.33-.31-.58-.69-.75-1.15s-.23-.98-.19-1.56h.3c-.04.55.02,1.03.17,1.45.15.42.38.77.68,1.06.3.28.68.5,1.12.65.45.15.94.22,1.47.22.42,0,.81-.06,1.2-.17.38-.12.72-.29,1.02-.52s.53-.52.71-.86c.18-.34.27-.73.27-1.18s-.07-.82-.22-1.14c-.15-.31-.35-.57-.62-.77-.27-.2-.58-.35-.94-.46s-.75-.16-1.18-.18h-.74v-.3h.74c.33,0,.67-.04.99-.11.33-.08.62-.2.89-.38.26-.18.48-.41.64-.7.16-.29.24-.65.24-1.07,0-.41-.1-.76-.27-1.05-.17-.28-.4-.51-.67-.69-.27-.18-.58-.3-.93-.38-.34-.08-.7-.11-1.06-.11-.5,0-.94.06-1.34.19-.4.13-.74.32-1.02.58-.28.26-.5.58-.65.96-.15.38-.22.84-.21,1.35h-.3c-.01-.57.07-1.06.23-1.48Z"/>
          </g>
          <g class="uuid-43f3e390-333c-40f1-9c28-8ff60c078e0d">
            <path class="uuid-543fd5a3-160a-4380-b068-d31706e93b43" d="m600.87,34.3l5.16-7.27h.38v7.33h1.87v.3h-1.87v2.69h-.3v-2.69h-5.24v-.36Zm5.21-6.85l-4.91,6.91h4.94v-6.91h-.03Z"/>
          </g>
          <g class="uuid-43f3e390-333c-40f1-9c28-8ff60c078e0d">
            <path class="uuid-a8d5cdc8-ed04-4471-8fec-d14313fc5e93" d="m600.87,34.3l5.16-7.27h.38v7.33h1.87v.3h-1.87v2.69h-.3v-2.69h-5.24v-.36Zm5.21-6.85l-4.91,6.91h4.94v-6.91h-.03Z"/>
          </g>
          <g class="uuid-43f3e390-333c-40f1-9c28-8ff60c078e0d">
            <path class="uuid-543fd5a3-160a-4380-b068-d31706e93b43" d="m600.87,34.3l5.16-7.27h.38v7.33h1.87v.3h-1.87v2.69h-.3v-2.69h-5.24v-.36Zm5.21-6.85l-4.91,6.91h4.94v-6.91h-.03Z"/>
          </g>
          <g class="uuid-43f3e390-333c-40f1-9c28-8ff60c078e0d">
            <path class="uuid-543fd5a3-160a-4380-b068-d31706e93b43" d="m608.29,527.64c-.13.64-.34,1.21-.65,1.72s-.7.91-1.2,1.22-1.12.46-1.87.46-1.36-.15-1.86-.46-.9-.72-1.21-1.22-.52-1.08-.65-1.72c-.13-.64-.19-1.28-.19-1.93s.06-1.29.19-1.93c.13-.64.34-1.21.65-1.72s.71-.92,1.21-1.23c.5-.31,1.12-.47,1.86-.47s1.37.16,1.87.47c.5.31.9.72,1.2,1.23s.52,1.08.65,1.72c.13.64.19,1.28.19,1.93s-.06,1.29-.19,1.93Zm-.28-3.69c-.11-.6-.3-1.14-.58-1.62-.27-.49-.64-.88-1.1-1.19-.46-.31-1.05-.46-1.75-.46s-1.29.16-1.75.46c-.46.31-.83.71-1.1,1.19-.27.49-.47,1.03-.58,1.62-.11.6-.17,1.18-.17,1.76s.06,1.16.17,1.76.3,1.14.58,1.62c.27.49.64.88,1.1,1.19.46.31,1.04.46,1.75.46s1.29-.15,1.75-.46c.46-.31.83-.71,1.1-1.19.27-.49.47-1.03.58-1.62s.17-1.18.17-1.76-.06-1.16-.17-1.76Z"/>
          </g>
          <g class="uuid-43f3e390-333c-40f1-9c28-8ff60c078e0d">
            <path class="uuid-a8d5cdc8-ed04-4471-8fec-d14313fc5e93" d="m608.29,527.64c-.13.64-.34,1.21-.65,1.72s-.7.91-1.2,1.22-1.12.46-1.87.46-1.36-.15-1.86-.46-.9-.72-1.21-1.22-.52-1.08-.65-1.72c-.13-.64-.19-1.28-.19-1.93s.06-1.29.19-1.93c.13-.64.34-1.21.65-1.72s.71-.92,1.21-1.23c.5-.31,1.12-.47,1.86-.47s1.37.16,1.87.47c.5.31.9.72,1.2,1.23s.52,1.08.65,1.72c.13.64.19,1.28.19,1.93s-.06,1.29-.19,1.93Zm-.28-3.69c-.11-.6-.3-1.14-.58-1.62-.27-.49-.64-.88-1.1-1.19-.46-.31-1.05-.46-1.75-.46s-1.29.16-1.75.46c-.46.31-.83.71-1.1,1.19-.27.49-.47,1.03-.58,1.62-.11.6-.17,1.18-.17,1.76s.06,1.16.17,1.76.3,1.14.58,1.62c.27.49.64.88,1.1,1.19.46.31,1.04.46,1.75.46s1.29-.15,1.75-.46c.46-.31.83-.71,1.1-1.19.27-.49.47-1.03.58-1.62s.17-1.18.17-1.76-.06-1.16-.17-1.76Z"/>
          </g>
          <g class="uuid-43f3e390-333c-40f1-9c28-8ff60c078e0d">
            <path class="uuid-543fd5a3-160a-4380-b068-d31706e93b43" d="m608.29,527.64c-.13.64-.34,1.21-.65,1.72s-.7.91-1.2,1.22-1.12.46-1.87.46-1.36-.15-1.86-.46-.9-.72-1.21-1.22-.52-1.08-.65-1.72c-.13-.64-.19-1.28-.19-1.93s.06-1.29.19-1.93c.13-.64.34-1.21.65-1.72s.71-.92,1.21-1.23c.5-.31,1.12-.47,1.86-.47s1.37.16,1.87.47c.5.31.9.72,1.2,1.23s.52,1.08.65,1.72c.13.64.19,1.28.19,1.93s-.06,1.29-.19,1.93Zm-.28-3.69c-.11-.6-.3-1.14-.58-1.62-.27-.49-.64-.88-1.1-1.19-.46-.31-1.05-.46-1.75-.46s-1.29.16-1.75.46c-.46.31-.83.71-1.1,1.19-.27.49-.47,1.03-.58,1.62-.11.6-.17,1.18-.17,1.76s.06,1.16.17,1.76.3,1.14.58,1.62c.27.49.64.88,1.1,1.19.46.31,1.04.46,1.75.46s1.29-.15,1.75-.46c.46-.31.83-.71,1.1-1.19.27-.49.47-1.03.58-1.62s.17-1.18.17-1.76-.06-1.16-.17-1.76Z"/>
          </g>
          <path class="uuid-7c5193d1-6d02-4dd9-b5be-6d38adc5901d" d="m593.48,1072.5h-175.07l.35-2.96h0l1.27-10.53h0l1.27-10.4h0l1.27-10.26h0l1.27-10.13h0l1.27-10h0l1.27-9.87h0l1.27-9.74h0l1.27-9.62h0l1.27-9.49h0l1.27-9.36h0l1.27-9.24h0l1.27-9.11h0l1.27-8.99h0l1.27-8.86h0l1.27-8.74h0l1.27-8.62h0l1.27-8.5h0l1.27-8.38h0l1.27-8.26h0l1.27-8.14h0l1.27-8.03h0l1.27-7.91h0l1.27-7.8h0l1.27-7.68h0l1.27-7.57h0l1.27-7.45h0l1.27-7.34h0l1.27-7.23h0l1.27-7.12h0l1.27-7.01h0l1.27-6.9h0l1.27-6.79h0l1.27-6.69h0l1.27-6.58h0l1.27-6.48h0l1.27-6.37h0l1.27-6.27h0l1.27-6.17h0l1.27-6.06h0l1.27-5.96h0l1.27-5.86h0l1.27-5.76h0l1.27-5.67h0l1.27-5.57h0l1.27-5.47h0l1.27-5.37h0l1.27-5.28h0l1.27-5.19h0l1.27-5.09h0l1.27-5h0l1.27-4.91h0l1.27-4.82h0l1.27-4.73h0l1.27-4.64h0l1.27-4.55h0l1.27-4.46h0l1.27-4.38h0l1.27-4.29h0l1.27-4.21h0l1.27-4.12h0l1.27-4.04h0l1.27-3.96h0l1.27-3.87h0l1.27-3.79h0l1.27-3.71h0l1.27-3.63h0l1.27-3.56h0l1.27-3.48h0l1.27-3.4h0l1.27-3.33h0l1.27-3.25h0l1.27-3.18h0l1.27-3.11h0l1.27-3.03h0l1.27-2.96h0l1.27-2.89h0l1.27-2.82h0l1.27-2.75h0l1.27-2.69h0l1.27-2.62h0l1.27-2.55h0l1.27-2.49h0l1.27-2.42h0l1.27-2.36h0l1.27-2.3h0l1.27-2.23h0l1.27-2.17h0l1.27-2.11h0l1.27-2.05h0l1.27-1.99h0l1.27-1.94h0l1.27-1.88h0l1.27-1.82h0l1.27-1.77h0l1.27-1.71h0l1.27-1.66h0l1.27-1.61h0l1.27-1.56h0l1.27-1.51h0l1.27-1.46h0l1.27-1.41h0l1.27-1.36h0l1.27-1.31h0l1.27-1.26h0l1.27-1.22h0l1.27-1.17h0l1.27-1.13h0l1.27-1.09h0l1.27-1.04h0l1.27-1h0l1.27-.96h0l1.27-.92h0l1.27-.88h0l1.27-.84h0l1.27-.81h0l1.27-.77h0l1.27-.73h0l1.27-.7h0l1.27-.66h0l1.27-.63h0l1.27-.6h0l1.27-.57h0l1.27-.54h0l1.27-.51h0l1.27-.48h0l1.27-.45h0l1.27-.42h0l1.27-.4h0l1.27-.37h0l1.27-.35h0l1.27-.32h0l1.27-.3h0l1.27-.28h0l1.27-.26h0l1.27-.24h0l1.27-.22h0l1.27-.2h0l1.27-.18h0l1.27-.16h0l1.27-.15h0l1.27-.13h0l1.27-.12h0l1.27-.1h0l1.27-.09h0l1.27-.08h0l1.27-.07h0l1.27-.06h0l1.27-.05h0l1.27-.04h0l1.27-.03h0l1.27-.02h0l1.27-.02h1.27s1.27-.02,1.27-.02h1.27s1.27,0,1.27,0h1.27s1.27,0,1.27,0h1.27s1.27,0,1.27,0h1.27s1.27,0,1.27,0h1.27s1.27-.02,1.27-.02h0l1.27-.02h0l1.27-.02h0l1.27-.03h0l1.27-.04h0l1.27-.05h0l1.27-.06h0l1.27-.07h0l1.27-.08h0l1.27-.09h0l1.27-.1h0l1.27-.11h0l1.27-.13h0l1.27-.14h0l1.27-.16h0l1.27-.18h0l1.27-.19h0l1.27-.21h0l1.27-.23h0l1.27-.25h0l1.27-.27h0l1.27-.3h0l1.27-.32h0l1.27-.34h0l1.27-.37h0l1.27-.39h0l1.27-.42h0l1.27-.45h0l1.27-.47h0l1.27-.5h0l1.27-.53h0l1.27-.56h0l1.27-.59h0l1.27-.63h0l1.27-.66h0l1.27-.69h0l1.27-.73h0l1.27-.76h0l1.27-.8h0l1.27-.84h0l1.27-.87h0l1.27-.91h0l1.27-.95h0l1.27-.99h0l1.27-1.04h0l1.27-1.08h0l1.27-1.12h0l1.27-1.16h0l1.27-1.21h0l1.27-1.26h0l1.27-1.3h0l1.27-1.35h0l1.27-1.4h0l1.27-1.45h0l1.27-1.5h0l1.27-1.55h0l1.27-1.6h0l1.27-1.65h0l1.27-1.71h0l1.27-1.76h0l1.27-1.81h0l1.27-1.87h0l1.27-1.93h0l1.27-1.98h0l1.27-2.04h0l1.27-2.1h0l1.27-2.16h0l1.27-2.22h0l1.27-2.29h0l1.27-2.35h0l1.27-2.41h0l1.27-2.48h0l1.27-2.54h0l1.27-2.61h0l1.27-2.67h0l1.27-2.74h0l1.27-2.81h0l1.27-2.88h0l1.27-2.95h0l1.27-3.02h0l1.27-3.09h0l1.27-3.17h0l1.27-3.24h0l1.27-3.31h0l1.27-3.39h0l1.27-3.47h0l1.27-3.54h0l1.27-3.62h0l1.27-3.7h0l1.27-3.78h0l1.27-3.86h0l1.27-3.94h0l1.27-4.02h0l1.27-4.11h0l1.27-4.19h0l1.27-4.28h0l1.27-4.36h0l1.27-4.45h0l1.27-4.53h0l1.27-4.62h0l1.27-4.71h0l1.27-4.8h0l1.27-4.89h0l1.27-4.98h0l1.27-5.08h0l1.27-5.17h0l1.27-5.26h0l1.27-5.36h0l1.27-5.45h0l1.27-5.55h0l1.27-5.65h0l1.27-5.75h0l1.27-5.85h0l1.27-5.95h0l1.27-6.05h0l1.27-6.15h0l1.27-6.25h0l1.27-6.35h0l1.27-6.46h0l1.27-6.56h0l1.27-6.67h0l1.27-6.78h0l1.27-6.88h0l1.27-6.99h0l1.27-7.1h0l1.27-7.21h0l1.27-7.32h0l1.27-7.43h0l1.27-7.55h0l1.27-7.66h0l1.27-7.78h0l1.27-7.89h0l1.27-8.01h0l1.27-8.12h0l1.27-8.24h0l1.27-8.36h0l1.27-8.48h0l1.27-8.6h0l1.27-8.72h0l1.27-8.84h0l1.27-8.97h0l1.27-9.09h0l1.27-9.21h0l1.27-9.34h0l1.27-9.47h0l1.27-9.59h0l1.27-9.72h0l1.27-9.85h0l1.27-9.98h0l1.27-10.11h0l1.27-10.24h0l1.27-10.37h0l1.27-10.51h0l.84-7.05"/>
        </g>
      </g>
    </g>
  </g>
  <g id="uuid-a09e0dce-fc81-42c9-bbd7-cff78b5095bf" data-name="Marco">
    <path class="uuid-ad9b414f-0ec4-46f1-8b17-808b4f9fb89c" d="m-2-2V1022h1249V-2H-2Zm1232,987c0,11.05-8.95,20-20,20H35c-11.05,0-20-8.95-20-20V35c0-11.05,8.95-20,20-20h1175c11.05,0,20,8.95,20,20v950Z"/>
  </g>
</svg>