<?xml version="1.0" encoding="UTF-8"?>
<svg xmlns="http://www.w3.org/2000/svg" xmlns:xlink="http://www.w3.org/1999/xlink" viewBox="0 0 134.61 216.39">
  <defs>
    <style>
      .uuid-59ef53a6-7297-4cbf-957d-e38cc147b7de {
        fill: url(#uuid-07a4be1e-063a-439c-b1ad-f7d520023407);
      }

      .uuid-59ef53a6-7297-4cbf-957d-e38cc147b7de, .uuid-152ddb4c-3fb8-41fd-be9d-23a348527170 {
        stroke: #1d71b8;
        stroke-miterlimit: 10;
      }

      .uuid-56b87d3d-207d-444d-b9a6-d9f557f0657a {
        fill: #f6f6f6;
      }

      .uuid-5e42388e-74c7-452d-b1f2-bd687f978695 {
        stroke: #00699b;
        stroke-linecap: round;
        stroke-linejoin: round;
      }

      .uuid-5e42388e-74c7-452d-b1f2-bd687f978695, .uuid-1578d1fc-f66e-4404-916a-979c629e4590 {
        fill: none;
      }

      .uuid-152ddb4c-3fb8-41fd-be9d-23a348527170 {
        fill: url(#uuid-43dcabcf-592a-4e23-ada3-a0e2a750912b);
      }

      .uuid-1578d1fc-f66e-4404-916a-979c629e4590 {
        isolation: isolate;
      }

      .uuid-075eb819-3b91-47eb-86a6-21782740d9d1 {
        fill: #1d1d1b;
      }
    </style>
    <linearGradient id="uuid-07a4be1e-063a-439c-b1ad-f7d520023407" data-name="Degradado sin nombre 265" x1="5.49" y1="128.07" x2="111.86" y2="128.07" gradientUnits="userSpaceOnUse">
      <stop offset=".04" stop-color="#1d71b8"/>
      <stop offset=".5" stop-color="#c6d6e6"/>
      <stop offset=".97" stop-color="#1d71b8"/>
    </linearGradient>
    <radialGradient id="uuid-43dcabcf-592a-4e23-ada3-a0e2a750912b" data-name="Degradado sin nombre 270" cx="58.68" cy="43.81" fx="58.68" fy="43.81" r="53.44" gradientTransform="translate(0 24.97) scale(1 .43)" gradientUnits="userSpaceOnUse">
      <stop offset=".01" stop-color="#a7c0d8"/>
      <stop offset=".14" stop-color="#9ebbd6"/>
      <stop offset=".35" stop-color="#87add0"/>
      <stop offset=".6" stop-color="#6298c8"/>
      <stop offset=".89" stop-color="#2e7abc"/>
      <stop offset=".98" stop-color="#1d71b8"/>
    </radialGradient>
  </defs>
  <g id="uuid-6daf9a9f-b1cb-422d-9613-44664d92769e" data-name="Fondo">
    <rect class="uuid-56b87d3d-207d-444d-b9a6-d9f557f0657a" x="1.98" y="1.96" width="130.65" height="212.71" rx="5" ry="5"/>
  </g>
  <g id="uuid-b1a83963-5dae-4385-8752-fbc4eb061110" data-name="elementos">
    <g>
      <line class="uuid-5e42388e-74c7-452d-b1f2-bd687f978695" x1="116.31" y1="43.81" x2="116.31" y2="190.96"/>
      <line class="uuid-5e42388e-74c7-452d-b1f2-bd687f978695" x1="116.31" y1="17.31" x2="58.68" y2="17.31"/>
      <path class="uuid-075eb819-3b91-47eb-86a6-21782740d9d1" d="m122.46,115.05h.04c.46-.45.82-.78,1.09-.96s.53-.32.79-.42.54-.14.84-.14c.32,0,.61.04.86.11s.47.19.66.35.35.35.47.57.21.5.27.81.09.71.09,1.19v3.31c0,.51.02.86.07,1.04s.12.33.24.43.34.2.69.29v.43h-3.46v-.43c.23-.07.39-.13.49-.18s.18-.13.25-.22.12-.24.16-.44.06-.49.06-.89v-2.3c0-.78-.04-1.38-.12-1.79s-.23-.72-.47-.93-.56-.31-.97-.31c-.23,0-.45.04-.63.12s-.4.23-.65.44-.43.43-.56.65-.19.46-.19.71v3.37c0,.4.01.68.03.85s.06.31.12.43.15.21.27.28.31.14.56.21v.43h-3.48v-.43c.26-.07.44-.14.55-.2s.2-.15.26-.25.11-.24.14-.43.04-.48.04-.89v-7.36c0-.56,0-.96-.01-1.18s-.03-.41-.07-.57-.09-.28-.16-.36-.16-.16-.27-.21-.32-.11-.62-.16v-.46l2.12-.09h.53v5.55Z"/>
      <path class="uuid-075eb819-3b91-47eb-86a6-21782740d9d1" d="m87.71,8.59l1.14-1.45c.12-.16.22-.31.3-.46s.11-.3.11-.46c0-.13-.05-.25-.15-.33s-.25-.15-.47-.19v-.43h2.87v.43c-.22.06-.45.19-.68.38s-.51.49-.85.91l-1.82,2.23,2,2.7c.29.39.54.68.77.89s.46.35.69.44v.43h-3.53v-.43c.49-.06.73-.24.73-.54,0-.12-.02-.24-.06-.35s-.12-.24-.23-.39l-1.27-1.78-1.35,1.76c-.1.13-.18.25-.23.36s-.08.23-.08.36c0,.16.05.29.16.39s.28.17.51.19v.43h-2.94v-.43c.19-.07.37-.16.52-.26s.31-.24.47-.41.37-.41.64-.73l1.83-2.27-1.87-2.57c-.26-.35-.46-.61-.62-.76s-.29-.28-.42-.36-.26-.14-.39-.18v-.43h3.45v.43c-.46.07-.69.25-.69.54,0,.13.03.27.09.4s.16.28.29.45l1.07,1.5Z"/>
      <g class="uuid-1578d1fc-f66e-4404-916a-979c629e4590">
        <path class="uuid-59ef53a6-7297-4cbf-957d-e38cc147b7de" d="m111.84,44.23c0,.09,0,.18-.01.27,0,.1-.02.2-.03.3,0,.09-.02.18-.03.27,0,.07-.02.15-.03.22-.03.22-.07.44-.12.65,0,.05-.02.09-.03.14-.04.19-.09.37-.15.56,0,.02,0,.04-.02.06-.06.2-.13.41-.2.61-.05.15-.11.29-.17.44-.01.03-.02.06-.04.09-.07.17-.15.35-.23.52-.02.05-.05.1-.08.15-.06.12-.12.24-.18.36-.03.06-.07.12-.1.19-.07.12-.14.24-.21.37-.02.04-.04.08-.07.11-.1.16-.2.32-.3.48-.02.03-.04.06-.06.09-.09.14-.19.27-.28.41-.03.04-.05.07-.08.11-.11.16-.23.31-.36.47-.02.02-.04.05-.06.07-.26.32-.53.64-.82.96-.02.02-.04.05-.06.07-.14.15-.28.3-.43.45-.02.02-.05.05-.07.07-.15.15-.3.3-.45.44-.02.02-.05.04-.07.07-.16.15-.32.29-.48.44-.02.02-.05.04-.07.06-.17.15-.33.29-.51.44-.02.02-.04.04-.07.05-.17.15-.35.29-.53.43-.02.02-.04.04-.07.05-.18.14-.37.29-.56.43-.02.02-.05.04-.07.05-.19.14-.38.28-.58.42-.03.02-.05.04-.08.05-.2.14-.4.28-.6.42-.02.01-.04.03-.07.04-.21.14-.43.28-.65.42-.01,0-.03.02-.04.03-.23.15-.47.3-.71.44,0,0,0,0,0,0-.24.14-.48.29-.73.43-.02.01-.04.02-.05.03-.23.13-.47.27-.71.4-.03.01-.05.03-.08.04-.24.13-.48.26-.72.38-.02.01-.05.03-.07.04-.25.13-.51.26-.77.39-.01,0-.02.01-.04.02-.27.13-.54.27-.82.4-.01,0-.03.01-.04.02-.27.13-.53.25-.8.37-.03.01-.06.02-.08.04-.26.12-.53.23-.79.35-.03.01-.06.03-.09.04-.27.12-.55.23-.82.34-.03.01-.05.02-.08.03-.29.12-.59.24-.88.35-.01,0-.02,0-.03.01-.31.12-.62.24-.93.35-.02,0-.03.01-.05.02-.3.11-.61.22-.91.33-.03,0-.05.02-.08.03-.3.11-.6.21-.9.31-.03.01-.07.02-.1.03-.3.1-.6.2-.9.3-.04.01-.08.02-.11.04-.3.1-.61.19-.91.29-.04.01-.09.03-.13.04-.31.09-.61.18-.92.28-.04.01-.09.02-.13.04-.31.09-.63.18-.95.27-.04.01-.08.02-.12.03-.32.09-.65.18-.98.26-.03,0-.07.02-.1.03-.32.08-.65.17-.98.25-.03,0-.05.01-.08.02-.33.08-.66.16-1,.24-.06.01-.12.03-.17.04-.32.07-.64.15-.97.22-.08.02-.16.03-.24.05-.31.07-.61.13-.92.2-.04,0-.08.02-.12.03-.34.07-.68.14-1.03.21-.08.02-.17.03-.25.05-.34.06-.67.13-1.01.19-.02,0-.03,0-.05,0-.36.07-.73.13-1.09.19-.11.02-.22.04-.33.06-.26.04-.52.09-.79.13-.13.02-.26.04-.38.06-.27.04-.54.08-.8.12-.11.02-.22.03-.33.05-.19.03-.39.05-.58.08-.24.03-.47.07-.71.1-.19.02-.38.05-.57.07-.24.03-.48.06-.72.09-.19.02-.39.05-.58.07-.24.03-.48.06-.72.08-.14.01-.28.03-.41.04-.55.06-1.11.11-1.67.16-.07,0-.13.01-.2.02-.62.06-1.25.1-1.88.15-.13,0-.27.02-.4.03-.62.04-1.25.08-1.87.12-.09,0-.17,0-.26.01-.58.03-1.17.06-1.76.08-.11,0-.22,0-.33.01-.63.02-1.27.04-1.91.05-.14,0-.27,0-.41,0-.66.01-1.32.02-1.98.02-.37,0-.74,0-1.11,0-.78,0-1.56-.02-2.34-.04-.12,0-.24,0-.37,0-.55-.02-1.1-.04-1.64-.06-.05,0-.09,0-.14,0-.43-.02-.87-.04-1.3-.06-.16,0-.32-.02-.48-.03-.32-.02-.63-.04-.94-.06-.26-.02-.52-.04-.78-.06-.14-.01-.28-.02-.41-.03-.4-.03-.8-.06-1.2-.1-.04,0-.07,0-.11-.01-.36-.03-.72-.07-1.08-.1-.13-.01-.26-.03-.39-.04-.28-.03-.57-.06-.85-.09-.1-.01-.19-.02-.29-.03-.37-.04-.74-.08-1.11-.13-.04,0-.07,0-.11-.01-.34-.04-.68-.09-1.02-.13-.09-.01-.19-.02-.28-.04-.36-.05-.73-.1-1.09-.15-.03,0-.06,0-.1-.01-.36-.05-.71-.11-1.07-.16-.04,0-.09-.01-.13-.02-.36-.06-.71-.11-1.07-.17-.06-.01-.13-.02-.19-.03-.35-.06-.7-.12-1.04-.18-.06-.01-.12-.02-.17-.03-.35-.06-.69-.13-1.03-.19-.05,0-.09-.02-.14-.03-.35-.07-.69-.14-1.04-.21-.04,0-.09-.02-.13-.03-.35-.07-.7-.15-1.04-.22-.03,0-.07-.01-.1-.02-.35-.08-.69-.15-1.03-.23-.04,0-.07-.02-.11-.03-.34-.08-.67-.16-1.01-.24-.04,0-.08-.02-.11-.03-.33-.08-.65-.16-.98-.25-.04-.01-.09-.02-.13-.03-.32-.08-.64-.17-.96-.26-.04-.01-.08-.02-.12-.03-.32-.09-.64-.18-.96-.27-.03,0-.06-.02-.09-.03-.33-.1-.67-.2-1-.3,0,0-.02,0-.03,0-.34-.1-.67-.21-1-.31-.02,0-.04-.01-.06-.02-.31-.1-.62-.2-.93-.31-.03-.01-.07-.02-.1-.03-.3-.1-.59-.2-.89-.31-.03-.01-.06-.02-.1-.03-.3-.11-.6-.21-.89-.32-.02,0-.04-.02-.06-.02-.31-.12-.62-.23-.92-.35-.01,0-.02,0-.03-.01-.3-.12-.59-.23-.88-.35-.03-.01-.05-.02-.08-.03-.28-.11-.55-.23-.82-.34-.03-.01-.06-.03-.09-.04-.27-.12-.53-.23-.8-.35-.03-.01-.06-.02-.08-.04-.27-.12-.54-.25-.81-.37-.01,0-.03-.01-.04-.02-.28-.13-.55-.26-.82-.4-.01,0-.03-.01-.04-.02-.26-.13-.52-.26-.78-.39-.02-.01-.04-.02-.06-.03-.25-.13-.49-.26-.73-.39-.03-.01-.05-.03-.08-.04-.23-.13-.46-.26-.69-.39-.03-.02-.06-.03-.09-.05-.22-.13-.45-.26-.66-.39-.03-.02-.06-.04-.09-.06-.22-.13-.43-.26-.64-.4-.03-.02-.06-.04-.09-.06-.21-.13-.42-.27-.62-.4-.03-.02-.05-.04-.08-.05-.21-.14-.41-.28-.61-.42-.03-.02-.05-.04-.08-.05-.2-.14-.39-.28-.58-.42,0,0-.02-.01-.03-.02-.19-.14-.38-.29-.57-.44-.03-.02-.06-.04-.09-.07-.17-.14-.35-.28-.51-.42-.04-.03-.08-.07-.12-.1-.17-.15-.34-.29-.51-.44,0,0,0,0,0,0-.17-.15-.33-.3-.49-.45-.04-.04-.08-.07-.11-.11-.15-.15-.31-.3-.45-.45-.02-.02-.04-.05-.07-.07-.13-.13-.26-.26-.38-.4-.05-.05-.09-.1-.14-.16-.1-.11-.2-.22-.29-.33-.05-.05-.09-.11-.14-.16-.11-.13-.21-.25-.31-.38-.03-.03-.06-.07-.08-.1-.07-.09-.13-.17-.2-.26-.07-.09-.14-.18-.21-.28-.05-.07-.1-.15-.15-.22-.08-.11-.15-.22-.23-.33-.05-.08-.1-.16-.15-.24-.07-.11-.13-.21-.2-.32-.03-.05-.05-.09-.08-.14-.12-.21-.23-.42-.34-.63-.03-.06-.06-.11-.09-.17-.13-.26-.25-.52-.35-.79-.02-.05-.04-.1-.06-.15-.11-.28-.21-.56-.29-.84,0-.01,0-.02-.01-.03-.09-.29-.15-.57-.21-.86-.01-.05-.02-.11-.03-.16-.05-.28-.1-.56-.13-.85,0-.05,0-.11-.01-.16-.03-.3-.04-.59-.04-.89v145.69c0,.3.02.6.04.89,0,.05,0,.11.01.16.03.28.07.57.13.85.01.05.02.11.03.16.06.29.13.58.21.86,0,.01,0,.02.01.03.08.28.18.56.29.84.01.03.02.06.03.09,0,.02.02.04.02.06.11.26.22.53.35.79.01.02.02.04.03.06.02.04.04.07.06.11.11.21.22.42.34.63.02.03.03.06.05.09,0,.02.02.03.03.05.06.11.13.21.2.32.04.07.08.14.13.2,0,.01.02.02.02.03.07.11.15.22.23.33.05.07.09.13.14.2,0,0,.01.02.02.02.07.09.14.18.21.27.06.08.12.16.18.24,0,0,.01.02.02.03.03.03.06.07.08.1.08.1.15.19.23.29.03.03.05.06.08.09.05.05.09.11.14.16.05.05.09.11.14.16.05.06.1.11.16.17.05.05.09.1.14.15.03.03.05.06.08.08.1.11.2.21.31.32.02.02.04.04.06.07,0,0,0,0,.01.01.11.11.22.22.33.33.04.03.07.07.11.1.04.04.07.07.11.11.04.04.08.08.13.12.12.11.24.22.36.33,0,0,0,0,0,0,0,0,0,0,0,0,.12.11.24.21.36.31.05.04.1.08.15.12.04.03.08.07.12.1.04.03.07.06.11.09.11.09.23.18.34.28.02.02.04.03.07.05.03.02.06.04.08.07.07.05.13.1.2.16.12.09.24.18.36.27,0,0,0,0,.01,0,0,0,.02.01.02.02.11.08.22.16.33.24.08.06.17.12.26.18.02.02.05.03.07.05.01.01.03.02.04.03.12.08.24.17.36.25.07.04.13.09.2.13.03.02.05.04.08.06.02.02.05.03.07.05.12.08.24.16.36.24.06.04.13.08.19.12.03.02.06.04.09.06.03.02.06.04.09.06.12.08.25.15.37.23.06.04.12.07.18.11.03.02.06.04.09.06.04.02.07.04.11.06.13.08.25.15.38.22.06.03.12.07.18.1.03.02.05.03.08.05.03.02.07.04.1.06.12.07.25.14.37.21.07.04.15.08.22.12.03.01.05.03.08.04.03.01.05.03.08.04.13.07.25.14.38.2.09.05.18.09.27.14.02.01.05.02.07.04.02,0,.03.02.05.03.13.07.26.13.39.2.11.06.22.11.33.17.01,0,.02.01.03.02,0,0,.02,0,.02.01.13.06.26.13.39.19.13.06.26.12.39.19,0,0,.02,0,.03.01.01,0,.03.01.04.02.11.05.22.1.33.15.13.06.27.12.4.18.03.01.05.02.08.04.03.01.05.02.08.04.08.04.16.07.24.11.14.06.27.12.41.18.05.02.1.04.15.06.03.01.06.03.09.04.06.02.11.05.17.07.14.06.27.11.41.17.08.03.16.07.24.1.03.01.06.02.08.03.03.01.06.02.09.04.14.06.28.11.42.17.12.05.25.1.37.15.01,0,.02,0,.03.01,0,0,.01,0,.02,0,.14.06.28.11.43.16.14.05.29.11.43.16.02,0,.03.01.05.02.02,0,.04.01.06.02.11.04.22.08.33.12.15.05.29.11.44.16.04.02.09.03.13.05.03.01.06.02.1.03.07.03.14.05.22.08.15.05.3.1.45.15.08.03.15.05.23.08.03.01.06.02.1.03.04.01.08.03.13.04.15.05.3.1.45.15.12.04.23.08.35.11.02,0,.04.01.06.02.02,0,.03,0,.05.01.15.05.31.1.46.15.16.05.32.1.48.15,0,0,.01,0,.02,0,0,0,.02,0,.03,0,.14.04.29.09.43.13.16.05.32.1.48.14.03,0,.06.02.08.02.03,0,.06.02.09.03.1.03.21.06.31.09.16.05.33.09.49.14.05.01.11.03.16.04.04.01.07.02.11.03.07.02.15.04.22.06.17.05.34.09.5.14.08.02.16.04.23.06.04.01.08.02.12.03.06.01.11.03.16.04.18.05.35.09.53.13.09.02.19.05.29.07.04,0,.08.02.12.03.04.01.09.02.13.03.18.04.36.09.54.13.11.03.23.05.34.08.03,0,.07.02.1.02.03,0,.06.01.09.02.18.04.36.08.54.12.13.03.26.06.4.09.03,0,.07.01.1.02.03,0,.05.01.07.02.2.04.39.09.59.13.12.03.25.05.37.08.04,0,.09.02.13.03.03,0,.07.01.1.02.2.04.4.08.6.12.11.02.23.04.34.07.05,0,.09.02.14.03.04,0,.08.02.13.02.2.04.41.08.61.12.1.02.2.04.3.06.05,0,.11.02.16.03.06.01.11.02.17.03.23.04.46.08.69.12.06.01.12.02.19.03.06.01.13.02.19.03.1.02.21.04.31.05.23.04.46.08.7.11.02,0,.04,0,.06,0,.04,0,.08.01.12.02.17.03.34.05.52.08.18.03.37.05.55.08.04,0,.07.01.11.02.02,0,.03,0,.05,0,.27.04.53.08.8.11.08.01.16.02.24.03.09.01.18.02.28.04.11.01.21.03.32.04.24.03.47.06.71.09.03,0,.06,0,.1.01.01,0,.02,0,.03,0,.28.03.56.07.84.1.08,0,.16.02.24.03.09.01.19.02.28.03.11.01.21.02.32.04.18.02.35.04.53.05.13.01.26.03.39.04.05,0,.09,0,.14.01.32.03.64.06.97.09.03,0,.06,0,.09,0,0,0,.01,0,.02,0,.36.03.72.06,1.08.09.04,0,.07,0,.11,0,.14.01.28.02.41.03.2.01.4.03.6.04.06,0,.12,0,.18.01.31.02.63.04.94.06.13,0,.26.02.38.02.03,0,.07,0,.1,0,.42.02.85.04,1.27.06.05,0,.1,0,.15,0,0,0,0,0,.01,0,.54.02,1.09.04,1.64.06.06,0,.12,0,.18,0,.06,0,.12,0,.19,0,.77.02,1.55.04,2.34.04.04,0,.08,0,.11,0,.33,0,.66,0,1,0,.66,0,1.32,0,1.98-.02.14,0,.27,0,.41,0,.64-.01,1.27-.03,1.9-.05.11,0,.22,0,.34-.01.59-.02,1.17-.05,1.75-.08.09,0,.18,0,.26-.01.63-.03,1.25-.07,1.87-.12.06,0,.13,0,.19-.01.07,0,.14-.01.21-.02.63-.05,1.26-.1,1.88-.15.02,0,.03,0,.05,0,.05,0,.1-.01.15-.01.56-.05,1.12-.11,1.67-.16.07,0,.15-.01.22-.02.06,0,.13-.01.19-.02.24-.03.48-.05.71-.08.14-.02.29-.03.43-.05.05,0,.11-.01.16-.02.24-.03.47-.06.71-.09.15-.02.3-.04.45-.06.04,0,.09-.01.13-.02.24-.03.47-.06.7-.1.15-.02.31-.04.46-.06.04,0,.08-.01.12-.02.11-.02.23-.03.34-.05.17-.03.34-.05.51-.08.09-.01.19-.03.28-.04.13-.02.26-.04.39-.06.1-.02.2-.03.3-.05.16-.03.32-.05.48-.08.11-.02.23-.04.34-.06.04,0,.09-.01.13-.02.32-.05.63-.11.95-.17h0s.02,0,.03,0c.25-.04.49-.09.74-.14.1-.02.19-.04.29-.06.08-.02.17-.03.25-.05.08-.01.15-.03.23-.04.25-.05.51-.1.76-.15.01,0,.03,0,.04,0,.04,0,.07-.02.11-.02.2-.04.41-.08.61-.13.11-.02.22-.05.33-.07.08-.02.15-.03.23-.05.06-.01.12-.03.18-.04.22-.05.43-.1.65-.15.05-.01.1-.02.15-.03.06-.01.11-.03.17-.04.11-.03.22-.05.33-.08.21-.05.42-.1.63-.15.01,0,.03,0,.04,0,.03,0,.06-.01.09-.02.17-.04.34-.08.5-.13.16-.04.31-.08.47-.12.03,0,.07-.02.1-.03.02,0,.04,0,.06-.01.2-.05.4-.1.59-.16.11-.03.22-.06.33-.09.04-.01.08-.02.12-.03.03,0,.07-.02.1-.03.18-.05.37-.1.55-.15.1-.03.2-.06.3-.09.04-.01.09-.02.13-.04.04-.01.08-.02.12-.04.18-.05.36-.11.54-.16.09-.03.18-.05.26-.08.04-.01.09-.03.13-.04.05-.01.1-.03.14-.04.18-.05.35-.11.52-.16.08-.03.17-.05.25-.08.04-.01.07-.02.11-.03.05-.01.09-.03.14-.04.16-.05.33-.11.49-.16.1-.03.19-.06.29-.1.03-.01.06-.02.09-.03.03-.01.07-.02.1-.03.16-.05.32-.11.48-.16.11-.04.22-.08.33-.11.03,0,.05-.02.08-.03.02,0,.04-.02.07-.02.16-.06.31-.11.47-.17.13-.05.26-.09.38-.14.01,0,.03,0,.04-.01.01,0,.02,0,.03-.01.15-.06.29-.11.44-.17.15-.06.29-.11.44-.17,0,0,.02,0,.02,0,.01,0,.02,0,.03-.01.13-.05.25-.1.38-.15.14-.06.29-.11.43-.17.03-.01.05-.02.08-.03.03-.01.05-.02.08-.03.09-.04.18-.07.27-.11.14-.06.28-.12.42-.18.05-.02.09-.04.14-.06.03-.01.06-.03.09-.04.06-.03.12-.05.18-.08.13-.06.27-.12.4-.18.07-.03.14-.06.21-.1.03-.01.05-.02.08-.04.03-.02.07-.03.1-.05.13-.06.26-.12.39-.18.11-.05.21-.1.31-.15.01,0,.03-.01.04-.02.01,0,.02-.01.03-.02.13-.06.26-.12.38-.18.13-.06.25-.12.38-.19,0,0,.02,0,.03-.01.01,0,.02-.01.03-.02.11-.05.21-.1.31-.16.12-.06.25-.13.37-.19.03-.02.06-.03.09-.05.02-.01.05-.03.07-.04.07-.04.14-.07.2-.11.12-.06.24-.13.36-.19.05-.03.1-.06.15-.08.03-.01.05-.03.08-.04.04-.02.08-.04.12-.07.12-.06.23-.13.35-.2.08-.04.16-.09.23-.13.02-.01.04-.02.05-.03.02-.01.04-.02.06-.03.12-.07.23-.13.34-.2.11-.07.22-.13.33-.2,0,0,0,0,0,0,0,0,0,0,0,0,.11-.07.23-.14.34-.21.11-.07.22-.14.33-.21.01,0,.02-.02.04-.02.01,0,.03-.02.04-.03.08-.05.17-.11.25-.16.11-.07.22-.14.32-.21.03-.02.05-.03.08-.05.02-.01.04-.03.07-.04.06-.04.12-.08.17-.12.11-.07.21-.15.32-.22.04-.03.08-.05.11-.08.02-.02.05-.03.07-.05.04-.03.09-.06.13-.09.11-.08.21-.15.31-.23.05-.03.09-.07.13-.1.02-.02.05-.03.07-.05.03-.03.07-.05.1-.08.1-.08.2-.15.3-.23.05-.04.1-.08.15-.12.02-.02.04-.03.06-.05.03-.02.05-.04.08-.06.1-.08.19-.16.29-.23.06-.05.11-.09.16-.14.02-.02.04-.04.07-.06.02-.02.04-.04.07-.06.1-.08.2-.17.3-.26.05-.04.1-.09.14-.13.02-.02.05-.04.07-.06.03-.02.05-.05.08-.07.1-.09.19-.17.28-.26.04-.04.08-.08.12-.11.02-.02.05-.04.07-.07.03-.03.06-.05.09-.08.09-.09.18-.17.27-.26.03-.03.06-.07.1-.1.02-.02.05-.05.07-.07.03-.04.07-.07.1-.11.09-.1.19-.2.28-.3.02-.02.03-.03.05-.05.02-.02.04-.05.06-.07.05-.06.11-.12.16-.18.09-.1.18-.2.26-.3s.17-.2.25-.3c.05-.06.1-.12.14-.18.02-.02.04-.05.06-.07.01-.02.03-.04.04-.05.09-.12.18-.23.27-.35.02-.02.03-.04.05-.07.03-.03.05-.07.08-.11.04-.06.09-.12.13-.19.05-.07.1-.15.15-.22.02-.03.04-.06.06-.09.01-.02.02-.03.03-.05.08-.12.16-.24.23-.36.01-.02.03-.04.04-.07.02-.04.04-.08.07-.11.04-.07.08-.13.12-.2.03-.06.06-.11.09-.17.03-.06.07-.12.1-.19.02-.03.04-.07.05-.1.04-.09.09-.17.13-.26.03-.05.05-.1.08-.15,0-.02.02-.03.02-.05.07-.15.14-.31.21-.46,0,0,0,0,0,0,.01-.03.02-.06.03-.09.06-.14.11-.27.16-.41,0-.01,0-.02.01-.03.07-.2.14-.41.2-.61,0,0,0,0,0,0,0-.02,0-.04.01-.06.05-.18.1-.37.15-.56,0-.01,0-.03.01-.04,0-.03.01-.06.02-.1.05-.22.09-.44.12-.65,0-.04.02-.07.02-.11,0-.04,0-.07.01-.11.01-.09.02-.18.03-.27.01-.1.02-.2.03-.3,0-.09.01-.18.01-.27,0-.06,0-.12,0-.18,0-.08,0-.17,0-.25V43.81c0,.14,0,.28-.01.43Z"/>
        <ellipse class="uuid-152ddb4c-3fb8-41fd-be9d-23a348527170" cx="58.68" cy="43.81" rx="53.18" ry="22.84"/>
      </g>
    </g>
  </g>
</svg>