<?xml version="1.0" encoding="UTF-8"?>
<svg xmlns="http://www.w3.org/2000/svg" xmlns:xlink="http://www.w3.org/1999/xlink" viewBox="0 0 1245 1020">
  <defs>
    <style>
      .uuid-60819783-4c37-43ce-9dbb-91f1cf2eb304 {
        stroke: silver;
      }

      .uuid-60819783-4c37-43ce-9dbb-91f1cf2eb304, .uuid-00d99e79-9289-4463-90a2-bb2f415952a5, .uuid-df9a0157-79d9-462a-88b0-4aeca6e700c9 {
        stroke-linecap: round;
        stroke-linejoin: round;
      }

      .uuid-60819783-4c37-43ce-9dbb-91f1cf2eb304, .uuid-00d99e79-9289-4463-90a2-bb2f415952a5, .uuid-df9a0157-79d9-462a-88b0-4aeca6e700c9, .uuid-67c5007e-a0c8-493e-a9e0-ce7f87db281d, .uuid-c91c90b2-fa6d-4cd7-b779-c24138c3f793, .uuid-cbc6da92-ac88-4e81-9291-50014462fa77, .uuid-f9d15d92-8a8e-418a-bd2d-a682a6a4aa19, .uuid-61f15982-ca08-486f-8bc1-292f0f263aab {
        fill: none;
      }

      .uuid-a02fae57-7fdf-4da3-bdb0-1359af63018f {
        fill: #fff;
      }

      .uuid-bc6f2cd3-b1a9-40dd-8daa-588fa8c7bc60 {
        fill: #252525;
      }

      .uuid-bc6f2cd3-b1a9-40dd-8daa-588fa8c7bc60, .uuid-61f15982-ca08-486f-8bc1-292f0f263aab {
        font-family: HelveticaNeue-UltraLight, 'Helvetica Neue UltraLight';
        font-size: 19.02px;
        font-weight: 100;
        isolation: isolate;
      }

      .uuid-00d99e79-9289-4463-90a2-bb2f415952a5 {
        stroke: rgba(192, 192, 192, .24);
      }

      .uuid-df9a0157-79d9-462a-88b0-4aeca6e700c9 {
        stroke: rgba(153, 51, 255, .7);
        stroke-width: 5px;
      }

      .uuid-67c5007e-a0c8-493e-a9e0-ce7f87db281d {
        clip-path: url(#uuid-43dc51e2-5d89-407b-b97e-7efa494378bf);
      }

      .uuid-c91c90b2-fa6d-4cd7-b779-c24138c3f793 {
        clip-path: url(#uuid-1e409eae-bb30-40e3-ac1b-16080da66694);
      }

      .uuid-11a06b4a-4f29-4795-b053-1b3cb73b4322 {
        fill: #00699b;
      }

      .uuid-f9d15d92-8a8e-418a-bd2d-a682a6a4aa19 {
        stroke: #252525;
        stroke-miterlimit: 10;
      }

      .uuid-61f15982-ca08-486f-8bc1-292f0f263aab {
        stroke: #fff;
        stroke-linejoin: bevel;
        stroke-width: 3px;
      }
    </style>
    <clipPath id="uuid-1e409eae-bb30-40e3-ac1b-16080da66694">
      <rect class="uuid-cbc6da92-ac88-4e81-9291-50014462fa77" x="-1" width="1247" height="1020"/>
    </clipPath>
    <clipPath id="uuid-43dc51e2-5d89-407b-b97e-7efa494378bf">
      <rect class="uuid-cbc6da92-ac88-4e81-9291-50014462fa77" y="-417.4" width="2060.22" height="1437.4"/>
    </clipPath>
  </defs>
  <g id="uuid-e8007a0b-a720-4f74-a644-fba886264ce3" data-name="Grafica">
    <g class="uuid-c91c90b2-fa6d-4cd7-b779-c24138c3f793">
      <g class="uuid-67c5007e-a0c8-493e-a9e0-ce7f87db281d">
        <g>
          <rect class="uuid-a02fae57-7fdf-4da3-bdb0-1359af63018f" y="-417.4" width="2060.22" height="1437.4"/>
          <path class="uuid-60819783-4c37-43ce-9dbb-91f1cf2eb304" d="m257.53-416.61V1020.79M389.06-416.61V1020.79m131.54-1437.4V1020.79m133.12-1437.4V1020.79m131.54-1437.4V1020.79m131.54-1437.4V1020.79m131.54-1437.4V1020.79m131.54-1437.4V1020.79m131.54-1437.4V1020.79m131.54-1437.4V1020.79m133.12-1437.4V1020.79m131.54-1437.4V1020.79m131.54-1437.4V1020.79m131.54-1437.4V1020.79"/>
          <path class="uuid-00d99e79-9289-4463-90a2-bb2f415952a5" d="m19.81-416.61V1020.79M46.75-416.61V1020.79m26.94-1437.4V1020.79m25.36-1437.4V1020.79m53.88-1437.4V1020.79m25.36-1437.4V1020.79m26.94-1437.4V1020.79m26.94-1437.4V1020.79m52.3-1437.4V1020.79m25.36-1437.4V1020.79m26.94-1437.4V1020.79m26.94-1437.4V1020.79m52.3-1437.4V1020.79m26.94-1437.4V1020.79m25.36-1437.4V1020.79m26.94-1437.4V1020.79m52.3-1437.4V1020.79m26.94-1437.4V1020.79m25.36-1437.4V1020.79m26.94-1437.4V1020.79m52.3-1437.4V1020.79m26.94-1437.4V1020.79m25.36-1437.4V1020.79m26.94-1437.4V1020.79m52.3-1437.4V1020.79m26.94-1437.4V1020.79m26.94-1437.4V1020.79m25.36-1437.4V1020.79m53.88-1437.4V1020.79m25.36-1437.4V1020.79m26.94-1437.4V1020.79m25.36-1437.4V1020.79m53.88-1437.4V1020.79m25.36-1437.4V1020.79m26.94-1437.4V1020.79m26.94-1437.4V1020.79m52.3-1437.4V1020.79m25.36-1437.4V1020.79m26.94-1437.4V1020.79m26.94-1437.4V1020.79m52.3-1437.4V1020.79m26.94-1437.4V1020.79m25.36-1437.4V1020.79m26.94-1437.4V1020.79m52.3-1437.4V1020.79m26.94-1437.4V1020.79m25.36-1437.4V1020.79m26.94-1437.4V1020.79m52.3-1437.4V1020.79m26.94-1437.4V1020.79m26.94-1437.4V1020.79m25.36-1437.4V1020.79m52.3-1437.4V1020.79m26.94-1437.4V1020.79m26.94-1437.4V1020.79m25.36-1437.4V1020.79m53.88-1437.4V1020.79m25.36-1437.4V1020.79m26.94-1437.4V1020.79m25.36-1437.4V1020.79m53.88-1437.4V1020.79m25.36-1437.4V1020.79m26.94-1437.4V1020.79"/>
          <path class="uuid-60819783-4c37-43ce-9dbb-91f1cf2eb304" d="m.79-289.82h2060.22M.79-289.82h2060.22M.79-158.29h2060.22M.79-26.75h2060.22M.79,104.79h2060.22M.79,236.32h2060.22M.79,367.86h2060.22M.79,499.4h2060.22M.79,632.52h2060.22M.79,764.06h2060.22"/>
          <path class="uuid-00d99e79-9289-4463-90a2-bb2f415952a5" d="m.79-396h2060.22M.79-369.06h2060.22M.79-343.71h2060.22M.79-316.76h2060.22M.79-264.47h2060.22M.79-237.52h2060.22M.79-212.17h2060.22M.79-185.23h2060.22M.79-132.93h2060.22M.79-105.99h2060.22M.79-79.05h2060.22M.79-53.69h2060.22M.79-1.39h2060.22M.79,25.55h2060.22M.79,52.49h2060.22M.79,77.85h2060.22M.79,131.73h2060.22M.79,157.09h2060.22M.79,184.03h2060.22M.79,210.97h2060.22M.79,263.27h2060.22M.79,288.62h2060.22M.79,315.56h2060.22M.79,342.51h2060.22M.79,394.8h2060.22M.79,421.74h2060.22M.79,447.1h2060.22M.79,474.04h2060.22M.79,526.34h2060.22M.79,553.28h2060.22M.79,578.64h2060.22M.79,605.58h2060.22M.79,657.88h2060.22M.79,684.82h2060.22M.79,710.17h2060.22M.79,737.12h2060.22M.79,789.41h2060.22M.79,816.36h2060.22M.79,843.3h2060.22M.79,868.65h2060.22M.79,922.54h2060.22M.79,947.89h2060.22M.79,974.83h2060.22M.79,1000.19h2060.22"/>
          <path class="uuid-f9d15d92-8a8e-418a-bd2d-a682a6a4aa19" d="m125.99-413.44V1020.79"/>
          <path class="uuid-f9d15d92-8a8e-418a-bd2d-a682a6a4aa19" d="m.79,895.59h2057.05"/>
          <text class="uuid-bc6f2cd3-b1a9-40dd-8daa-588fa8c7bc60" transform="translate(253.57 920.16)"><tspan x="0" y="0">1</tspan></text>
          <text class="uuid-61f15982-ca08-486f-8bc1-292f0f263aab" transform="translate(253.57 920.16)"><tspan x="0" y="0">1</tspan></text>
          <text class="uuid-bc6f2cd3-b1a9-40dd-8daa-588fa8c7bc60" transform="translate(253.57 920.16)"><tspan x="0" y="0">1</tspan></text>
          <text class="uuid-bc6f2cd3-b1a9-40dd-8daa-588fa8c7bc60" transform="translate(385.1 920.16)"><tspan x="0" y="0">2</tspan></text>
          <text class="uuid-61f15982-ca08-486f-8bc1-292f0f263aab" transform="translate(385.1 920.16)"><tspan x="0" y="0">2</tspan></text>
          <text class="uuid-bc6f2cd3-b1a9-40dd-8daa-588fa8c7bc60" transform="translate(385.1 920.16)"><tspan x="0" y="0">2</tspan></text>
          <text class="uuid-bc6f2cd3-b1a9-40dd-8daa-588fa8c7bc60" transform="translate(516.64 920.16)"><tspan x="0" y="0">3</tspan></text>
          <text class="uuid-61f15982-ca08-486f-8bc1-292f0f263aab" transform="translate(516.64 920.16)"><tspan x="0" y="0">3</tspan></text>
          <text class="uuid-bc6f2cd3-b1a9-40dd-8daa-588fa8c7bc60" transform="translate(516.64 920.16)"><tspan x="0" y="0">3</tspan></text>
          <text class="uuid-bc6f2cd3-b1a9-40dd-8daa-588fa8c7bc60" transform="translate(649.76 920.16)"><tspan x="0" y="0">4</tspan></text>
          <text class="uuid-61f15982-ca08-486f-8bc1-292f0f263aab" transform="translate(649.76 920.16)"><tspan x="0" y="0">4</tspan></text>
          <text class="uuid-bc6f2cd3-b1a9-40dd-8daa-588fa8c7bc60" transform="translate(649.76 920.16)"><tspan x="0" y="0">4</tspan></text>
          <text class="uuid-bc6f2cd3-b1a9-40dd-8daa-588fa8c7bc60" transform="translate(781.3 920.16)"><tspan x="0" y="0">5</tspan></text>
          <text class="uuid-61f15982-ca08-486f-8bc1-292f0f263aab" transform="translate(781.3 920.16)"><tspan x="0" y="0">5</tspan></text>
          <text class="uuid-bc6f2cd3-b1a9-40dd-8daa-588fa8c7bc60" transform="translate(781.3 920.16)"><tspan x="0" y="0">5</tspan></text>
          <text class="uuid-bc6f2cd3-b1a9-40dd-8daa-588fa8c7bc60" transform="translate(912.83 920.16)"><tspan x="0" y="0">6</tspan></text>
          <text class="uuid-61f15982-ca08-486f-8bc1-292f0f263aab" transform="translate(912.83 920.16)"><tspan x="0" y="0">6</tspan></text>
          <text class="uuid-bc6f2cd3-b1a9-40dd-8daa-588fa8c7bc60" transform="translate(912.83 920.16)"><tspan x="0" y="0">6</tspan></text>
          <text class="uuid-bc6f2cd3-b1a9-40dd-8daa-588fa8c7bc60" transform="translate(1044.37 920.16)"><tspan x="0" y="0">7</tspan></text>
          <text class="uuid-61f15982-ca08-486f-8bc1-292f0f263aab" transform="translate(1044.37 920.16)"><tspan x="0" y="0">7</tspan></text>
          <text class="uuid-bc6f2cd3-b1a9-40dd-8daa-588fa8c7bc60" transform="translate(1044.37 920.16)"><tspan x="0" y="0">7</tspan></text>
          <text class="uuid-bc6f2cd3-b1a9-40dd-8daa-588fa8c7bc60" transform="translate(1175.91 920.16)"><tspan x="0" y="0">8</tspan></text>
          <text class="uuid-61f15982-ca08-486f-8bc1-292f0f263aab" transform="translate(1175.91 920.16)"><tspan x="0" y="0">8</tspan></text>
          <text class="uuid-bc6f2cd3-b1a9-40dd-8daa-588fa8c7bc60" transform="translate(1175.91 920.16)"><tspan x="0" y="0">8</tspan></text>
          <text class="uuid-bc6f2cd3-b1a9-40dd-8daa-588fa8c7bc60" transform="translate(103.01 771.19)"><tspan x="0" y="0">5</tspan></text>
          <text class="uuid-61f15982-ca08-486f-8bc1-292f0f263aab" transform="translate(103.01 771.19)"><tspan x="0" y="0">5</tspan></text>
          <text class="uuid-bc6f2cd3-b1a9-40dd-8daa-588fa8c7bc60" transform="translate(103.01 771.19)"><tspan x="0" y="0">5</tspan></text>
          <text class="uuid-bc6f2cd3-b1a9-40dd-8daa-588fa8c7bc60" transform="translate(93.5 639.65)"><tspan x="0" y="0">10</tspan></text>
          <text class="uuid-61f15982-ca08-486f-8bc1-292f0f263aab" transform="translate(93.5 639.65)"><tspan x="0" y="0">10</tspan></text>
          <text class="uuid-bc6f2cd3-b1a9-40dd-8daa-588fa8c7bc60" transform="translate(93.5 639.65)"><tspan x="0" y="0">10</tspan></text>
          <text class="uuid-bc6f2cd3-b1a9-40dd-8daa-588fa8c7bc60" transform="translate(93.5 506.53)"><tspan x="0" y="0">15</tspan></text>
          <text class="uuid-61f15982-ca08-486f-8bc1-292f0f263aab" transform="translate(93.5 506.53)"><tspan x="0" y="0">15</tspan></text>
          <text class="uuid-bc6f2cd3-b1a9-40dd-8daa-588fa8c7bc60" transform="translate(93.5 506.53)"><tspan x="0" y="0">15</tspan></text>
          <text class="uuid-bc6f2cd3-b1a9-40dd-8daa-588fa8c7bc60" transform="translate(93.5 374.99)"><tspan x="0" y="0">20</tspan></text>
          <text class="uuid-61f15982-ca08-486f-8bc1-292f0f263aab" transform="translate(93.5 374.99)"><tspan x="0" y="0">20</tspan></text>
          <text class="uuid-bc6f2cd3-b1a9-40dd-8daa-588fa8c7bc60" transform="translate(93.5 374.99)"><tspan x="0" y="0">20</tspan></text>
          <text class="uuid-bc6f2cd3-b1a9-40dd-8daa-588fa8c7bc60" transform="translate(93.5 243.46)"><tspan x="0" y="0">25</tspan></text>
          <text class="uuid-61f15982-ca08-486f-8bc1-292f0f263aab" transform="translate(93.5 243.46)"><tspan x="0" y="0">25</tspan></text>
          <text class="uuid-bc6f2cd3-b1a9-40dd-8daa-588fa8c7bc60" transform="translate(93.5 243.46)"><tspan x="0" y="0">25</tspan></text>
          <text class="uuid-bc6f2cd3-b1a9-40dd-8daa-588fa8c7bc60" transform="translate(93.5 111.92)"><tspan x="0" y="0">30</tspan></text>
          <text class="uuid-61f15982-ca08-486f-8bc1-292f0f263aab" transform="translate(93.5 111.92)"><tspan x="0" y="0">30</tspan></text>
          <text class="uuid-bc6f2cd3-b1a9-40dd-8daa-588fa8c7bc60" transform="translate(93.5 111.92)"><tspan x="0" y="0">30</tspan></text>
          <text class="uuid-bc6f2cd3-b1a9-40dd-8daa-588fa8c7bc60" transform="translate(103.01 920.16)"><tspan x="0" y="0">0</tspan></text>
          <text class="uuid-61f15982-ca08-486f-8bc1-292f0f263aab" transform="translate(103.01 920.16)"><tspan x="0" y="0">0</tspan></text>
          <text class="uuid-bc6f2cd3-b1a9-40dd-8daa-588fa8c7bc60" transform="translate(103.01 920.16)"><tspan x="0" y="0">0</tspan></text>
          <path class="uuid-df9a0157-79d9-462a-88b0-4aeca6e700c9" d="m1.58,871.34v.6h0l1.58.59h0l1.58.59h0l1.58.58h0l1.58.57h0l1.58.56h0l1.58.56h0l1.58.55h0l1.58.54h0l1.58.53h0l1.58.53h0l1.58.52h0l1.58.51h0l1.58.5h0l1.58.5h0l1.58.49h0l1.58.48h0l1.58.47h0l1.58.47h0l1.58.46h0l1.58.45h0l1.58.44h0l1.58.43h0l1.58.43h0l1.58.42h0l1.58.41h0l1.58.4h0l1.58.4h0l1.58.39h0l1.58.38h0l1.58.37h0l1.58.37h0l1.58.36h0l1.58.35h0l1.58.34h0l1.58.34h0l1.58.33h0l1.58.32h0l1.58.31h0l1.58.3h0l1.58.3h0l1.58.29h0l1.58.28h0l1.58.27h0l1.58.27h0l1.58.26h0l1.58.25h0l1.58.24h0l1.58.24h0l1.58.23h0l1.58.22h0l1.58.21h0l1.58.21h0l1.58.2h0l1.58.19h0l1.58.18h0l1.58.18h0l1.58.17h0l1.58.16h0l1.58.15h0l1.58.14h0l1.58.14h0l1.58.13h0l1.58.12h0l1.58.11h0l1.58.11h0l1.58.1h0l1.58.09h0l1.58.08h0l1.58.08h0l1.58.07h0l1.58.06h0l1.58.05h0l1.58.05h0l1.58.04h0l1.58.03h0l1.58.02h0l1.58.02h1.58s1.58,0,1.58,0h0s1.58,0,1.58,0h0l1.58-.02h0l1.58-.02h0l1.58-.03h0l1.58-.04h0l1.58-.05h0l1.58-.05h0l1.58-.06h0l1.58-.07h0l1.58-.08h0l1.58-.08h0l1.58-.09h0l1.58-.1h0l1.58-.11h0l1.58-.11h0l1.58-.12h0l1.58-.13h0l1.58-.14h0l1.58-.14h0l1.58-.15h0l1.58-.16h0l1.58-.17h0l1.58-.18h0l1.58-.18h0l1.58-.19h0l1.58-.2h0l1.58-.21h0l1.58-.21h0l1.58-.22h0l1.58-.23h0l1.58-.24h0l1.58-.24h0l1.58-.25h0l1.58-.26h0l1.58-.27h0l1.58-.27h0l1.58-.28h0l1.58-.29h0l1.58-.3h0l1.58-.3h0l1.58-.31h0l1.58-.32h0l1.58-.33h0l1.58-.34h0l1.58-.34h0l1.58-.35h0l1.58-.36h0l1.58-.37h0l1.58-.37h0l1.58-.38h0l1.58-.39h0l1.58-.4h0l1.58-.4h0l1.58-.41h0l1.58-.42h0l1.58-.43h0l1.58-.43h0l1.58-.44h0l1.58-.45h0l1.58-.46h0l1.58-.47h0l1.58-.47h0l1.58-.48h0l1.58-.49h0l1.58-.5h0l1.58-.5h0l1.58-.51h0l1.58-.52h0l1.58-.53h0l1.58-.53h0l1.58-.54h0l1.58-.55h0l1.58-.56h0l1.58-.56h0l1.58-.57h0l1.58-.58h0l1.58-.59h0l1.58-.59h0l1.58-.6h0l1.58-.61h0l1.58-.62h0l1.58-.63h0l1.58-.63h0l1.58-.64h0l1.58-.65h0l1.58-.66h0l1.58-.66h0l1.58-.67h0l1.58-.68h0l1.58-.69h0l1.58-.69h0l1.58-.7h0l1.58-.71h0l1.58-.72h0l1.58-.72h0l1.58-.73h0l1.58-.74h0l1.58-.75h0l1.58-.75h0l1.58-.76h0l1.58-.77h0l1.58-.78h0l1.58-.79h0l1.58-.79h0l1.58-.8h0l1.58-.81h0l1.58-.82h0l1.58-.82h0l1.58-.83h0l1.58-.84h0l1.58-.85h0l1.58-.85h0l1.58-.86h0l1.58-.87h0l1.58-.88h0l1.58-.88h0l1.58-.89h0l1.58-.9h0l1.58-.91h0l1.58-.91h0l1.58-.92h0l1.58-.93h0l1.58-.94h0l1.58-.95h0l1.58-.95h0l1.58-.96h0l1.58-.97h0l1.58-.98h0l1.58-.98h0l1.58-.99h0l1.58-1h0l1.58-1.01h0l1.58-1.01h0l1.58-1.02h0l1.58-1.03h0l1.58-1.04h0l1.58-1.04h0l1.58-1.05h0l1.58-1.06h0l1.58-1.07h0l1.58-1.08h0l1.58-1.08h0l1.58-1.09h0l1.58-1.1h0l1.58-1.11h0l1.58-1.11h0l1.58-1.12h0l1.58-1.13h0l1.58-1.14h0l1.58-1.14h0l1.58-1.15h0l1.58-1.16h0l1.58-1.17h0l1.58-1.17h0l1.58-1.18h0l1.58-1.19h0l1.58-1.2h0l1.58-1.2h0l1.58-1.21h0l1.58-1.22h0l1.58-1.23h0l1.58-1.24h0l1.58-1.24h0l1.58-1.25h0l1.58-1.26h0l1.58-1.27h0l1.58-1.27h0l1.58-1.28h0l1.58-1.29h0l1.58-1.3h0l1.58-1.3h0l1.58-1.31h0l1.58-1.32h0l1.58-1.33h0l1.58-1.33h0l1.58-1.34h0l1.58-1.35h0l1.58-1.36h0l1.58-1.36h0l1.58-1.37h0l1.58-1.38h0l1.58-1.39h0l1.58-1.4h0l1.58-1.4h0l1.58-1.41h0l1.58-1.42h0l1.58-1.43h0l1.58-1.43h0l1.58-1.44h0l1.58-1.45h0l1.58-1.46h0l1.58-1.46h0l1.58-1.47h0l1.58-1.48h0l1.58-1.49h0l1.58-1.49h0l1.58-1.5h0l1.58-1.51h0l1.58-1.52h0l1.58-1.52h0l1.58-1.53h0l1.58-1.54h0l1.58-1.55h0l1.58-1.56h0l1.58-1.56h0l1.58-1.57h0l1.58-1.58h0l1.58-1.59h0l1.58-1.59h0l1.58-1.6h0l1.58-1.61h0l1.58-1.62h0l1.58-1.62h0l1.58-1.63h0l1.58-1.64h0l1.58-1.65h0l1.58-1.65h0l1.58-1.66h0l1.58-1.67h0l1.58-1.68h0l1.58-1.68h0l1.58-1.69h0l1.58-1.7h0l1.58-1.71h0l1.58-1.72h0l1.58-1.72h0l1.58-1.73h0l1.58-1.74h0l1.58-1.75h0l1.58-1.75h0l1.58-1.76h0l1.58-1.77h0l1.58-1.78h0l1.58-1.78h0l1.58-1.79h0l1.58-1.8h0l1.58-1.81h0l1.58-1.81h0l1.58-1.82h0l1.58-1.83h0l1.58-1.84h0l1.58-1.84h0l1.58-1.85h0l1.58-1.86h0l1.58-1.87h0l1.58-1.88h0l1.58-1.88h0l1.58-1.89h0l1.58-1.9h0l1.58-1.91h0l1.58-1.91h0l1.58-1.92h0l1.58-1.93h0l1.58-1.94h0l1.58-1.94h0l1.58-1.95h0l1.58-1.96h0l1.58-1.97h0l1.58-1.97h0l1.58-1.98h0l1.58-1.99h0l1.58-2h0l1.58-2.01h0l1.58-2.01h0l1.58-2.02h0l1.58-2.03h0l1.58-2.04h0l1.58-2.04h0l1.58-2.05h0l1.58-2.06h0l1.58-2.07h0l1.58-2.07h0l1.58-2.08h0l1.58-2.09h0l1.58-2.1h0l1.58-2.1h0l1.58-2.11h0l1.58-2.12h0l1.58-2.13h0l1.58-2.13h0l1.58-2.14h0l1.58-2.15h0l1.58-2.16h0l1.58-2.17h0l1.58-2.17h0l1.58-2.18h0l1.58-2.19h0l1.58-2.2h0l1.58-2.2h0l1.58-2.21h0l1.58-2.22h0l1.58-2.23h0l1.58-2.23h0l1.58-2.24h0l1.58-2.25h0l1.58-2.26h0l1.58-2.26h0l1.58-2.27h0l1.58-2.28h0l1.58-2.29h0l1.58-2.29h0l1.58-2.3h0l1.58-2.31h0l1.58-2.32h0l1.58-2.33h0l1.58-2.33h0l1.58-2.34h0l1.58-2.35h0l1.58-2.36h0l1.58-2.36h0l1.58-2.37h0l1.58-2.38h0l1.58-2.39h0l1.58-2.39h0l1.58-2.4h0l1.58-2.41h0l1.58-2.42h0l1.58-2.42h0l1.58-2.43h0l1.58-2.44h0l1.58-2.45h0l1.58-2.45h0l1.58-2.46h0l1.58-2.47h0l1.58-2.48h0l1.58-2.49h0l1.58-2.49h0l1.58-2.5h0l1.58-2.51h0l1.58-2.52h0l1.58-2.52h0l1.58-2.53h0l1.58-2.54h0l1.58-2.55h0l1.58-2.55h0l1.58-2.56h0l1.58-2.57h0l1.58-2.58h0l1.58-2.58h0l1.58-2.59h0l1.58-2.6h0l1.58-2.61h0l1.58-2.62h0l1.58-2.62h0l1.58-2.63h0l1.58-2.64h0l1.58-2.65h0l1.58-2.65h0l1.58-2.66h0l1.58-2.67h0l1.58-2.68h0l1.58-2.68h0l1.58-2.69h0l1.58-2.7h0l1.58-2.71h0l1.58-2.71h0l1.58-2.72h0l1.58-2.73h0l1.58-2.74h0l1.58-2.74h0l1.58-2.75h0l1.58-2.76h0l1.58-2.77h0l1.58-2.78h0l1.58-2.78h0l1.58-2.79h0l1.58-2.8h0l1.58-2.81h0l1.58-2.81h0l1.58-2.82h0l1.58-2.83h0l1.58-2.84h0l1.58-2.84h0l1.58-2.85h0l1.58-2.86h0l1.58-2.87h0l1.58-2.87h0l1.58-2.88h0l1.58-2.89h0l1.58-2.9h0l1.58-2.9h0l1.58-2.91h0l1.58-2.92h0l1.58-2.93h0l1.58-2.94h0l1.58-2.94h0l1.58-2.95h0l1.58-2.96h0l1.58-2.97h0l1.58-2.97h0l1.58-2.98h0l1.58-2.99h0l1.58-3h0l1.58-3h0l1.58-3.01h0l1.58-3.02h0l1.58-3.03h0l1.58-3.03h0l1.58-3.04h0l1.58-3.05h0l1.58-3.06h0l1.58-3.06h0l1.58-3.07h0l1.58-3.08h0l1.58-3.09h0l1.58-3.1h0l1.58-3.1h0l1.58-3.11h0l1.58-3.12h0l1.58-3.13h0l1.58-3.13h0l1.58-3.14h0l1.58-3.15h0l1.58-3.16h0l1.58-3.16h0l1.58-3.17h0l1.58-3.18h0l1.58-3.19h0l1.58-3.19h0l1.58-3.2h0l1.58-3.21h0l1.58-3.22h0l1.58-3.22h0l1.58-3.23h0l1.58-3.24h0l1.58-3.25h0l1.58-3.26h0l1.58-3.26h0l1.58-3.27h0l1.58-3.28h0l1.58-3.29h0l1.58-3.29h0l1.58-3.3h0l1.58-3.31h0l1.58-3.32h0l1.58-3.32h0l1.58-3.33h0l1.58-3.34h0l1.58-3.35h0l1.58-3.35h0l1.58-3.36h0l1.58-3.37h0l1.58-3.38h0l1.58-3.39h0l1.58-3.39h0l1.58-3.4h0l1.58-3.41h0l1.58-3.42h0l1.58-3.42h0l1.58-3.43h0l1.58-3.44h0l1.58-3.45h0l1.58-3.45h0l1.58-3.46h0l1.58-3.47h0l1.58-3.48h0l1.58-3.48h0l1.58-3.49h0l1.58-3.5h0l1.58-3.51h0l1.58-3.51h0l1.58-3.52h0l1.58-3.53h0l1.58-3.54h0l1.58-3.55h0l1.58-3.55h0l1.58-3.56h0l1.58-3.57h0l1.58-3.58h0l1.58-3.58h0l1.58-3.59h0l1.58-3.6h0l1.58-3.61h0l1.58-3.61h0l1.58-3.62h0l1.58-3.63h0l1.58-3.64h0l1.58-3.64h0l1.58-3.65h0l1.58-3.66h0l1.58-3.67h0l1.58-3.67h0l1.58-3.68h0l1.58-3.69h0l1.58-3.7h0l1.58-3.71h0l1.58-3.71h0l1.58-3.72h0l1.58-3.73h0l1.58-3.74h0l1.58-3.74h0l1.58-3.75h0l1.58-3.76h0l1.58-3.77h0l1.58-3.77h0l1.58-3.78h0l1.58-3.79h0l1.58-3.8h0l1.58-3.8h0l1.58-3.81h0l1.58-3.82h0l1.58-3.83h0l1.58-3.83h0l1.58-3.84h0l1.58-3.85h0l1.58-3.86h0l1.58-3.87h0l1.58-3.87h0l1.58-3.88h0l1.58-3.89h0l1.58-3.9h0l1.58-3.9h0l1.58-3.91h0l1.58-3.92h0l1.58-3.93h0l1.58-3.93h0l1.58-3.94h0l1.58-3.95h0l1.58-3.96h0l1.58-3.96h0l1.58-3.97h0l1.58-3.98h0l1.58-3.99h0l1.58-3.99h0l1.58-4h0l1.58-4.01h0l1.58-4.02h0l1.58-4.03h0l1.58-4.03h0l1.58-4.04h0l1.58-4.05h0l1.58-4.06h0l1.58-4.06h0l1.58-4.07h0l1.58-4.08h0l1.58-4.09h0l1.58-4.09h0l1.58-4.1h0l1.58-4.11h0l1.58-4.12h0l1.58-4.12h0l1.58-4.13h0l1.58-4.14h0l1.58-4.15h0l1.58-4.16h0l1.58-4.16h0l1.58-4.17h0l1.58-4.18h0l1.58-4.19h0l1.58-4.19h0l1.58-4.2h0l1.58-4.21h0l1.58-4.22h0l1.58-4.22h0l1.58-4.23h0l1.58-4.24h0l1.58-4.25h0l1.58-4.25h0l1.58-4.26h0l1.58-4.27h0l1.58-4.28h0l1.58-4.28h0l1.58-4.29h0l1.58-4.3h0l1.58-4.31h0l1.58-4.32h0l1.58-4.32h0l1.58-4.33h0l1.58-4.34h0l1.58-4.35h0l1.58-4.35h0l1.58-4.36h0l1.58-4.37h0l1.58-4.38h0l1.58-4.38h0l1.58-4.39h0l1.58-4.4h0l1.58-4.41h0l1.58-4.41h0l1.58-4.42h0l1.58-4.43h0l1.58-4.44h0l1.58-4.44h0l1.58-4.45h0l1.58-4.46h0l1.58-4.47h0l1.58-4.48h0l1.58-4.48h0l1.58-4.49h0l1.58-4.5h0l1.58-4.51h0l1.58-4.51h0l1.58-4.52h0l1.58-4.53h0l1.58-4.54h0l1.58-4.54h0l1.58-4.55h0l1.58-4.56h0l1.58-4.57h0l1.58-4.57h0l1.58-4.58h0l1.58-4.59h0l1.58-4.6h0l1.58-4.6h0l1.58-4.61h0l1.58-4.62h0l1.58-4.63h0l1.58-4.64h0l1.58-4.64h0l1.58-4.65h0l1.58-4.66h0l1.58-4.67h0l1.58-4.67h0l1.58-4.68h0l1.58-4.69h0l1.58-4.7h0l1.58-4.7h0l1.58-4.71h0l1.58-4.72h0l1.58-4.73h0l1.58-4.73h0l1.58-4.74h0l1.58-4.75h0l1.58-4.76h0l1.58-4.76h0l1.58-4.77h0l1.58-4.78h0l1.58-4.79h0l1.58-4.8h0l1.58-4.8h0l1.58-4.81h0l1.58-4.82h0l1.58-4.83h0l1.58-4.83h0l1.58-4.84h0l1.58-4.85h0l1.58-4.86h0l1.58-4.86h0l1.58-4.87h0l1.58-4.88h0l1.58-4.89h0l1.58-4.89h0l1.58-4.9h0l1.58-4.91h0l1.58-4.92h0l1.58-4.93h0l1.58-4.93h0l1.58-4.94h0l1.58-4.95h0l1.58-4.96h0l1.58-4.96h0l1.58-4.97h0l1.58-4.98h0l1.58-4.99h0l1.58-4.99h0l1.58-5h0l1.58-5.01h0l1.58-5.02h0l1.58-5.02h0l1.58-5.03h0l1.58-5.04h0l1.58-5.05h0l1.58-5.05h0l1.58-5.06h0l1.58-5.07h0l1.58-5.08h0l1.58-5.09h0l1.58-5.09h0l1.58-5.1h0l1.58-5.11h0l1.58-5.12h0l1.58-5.12h0l1.58-5.13h0l1.58-5.14h0l1.58-5.15h0l1.58-5.15h0l1.58-5.16h0l1.58-5.17h0l1.58-5.18h0l1.58-5.18h0l1.58-5.19h0l1.58-5.2h0l1.58-5.21h0l1.58-5.21h0l1.58-5.22h0l1.58-5.23h0l1.58-5.24h0l1.58-5.25h0l1.58-5.25h0l1.58-5.26h0l1.58-5.27h0l1.58-5.28h0l1.58-5.28h0l1.58-5.29h0l1.58-5.3h0l1.58-5.31h0l1.58-5.31h0l1.58-5.32h0l1.58-5.33h0l1.58-5.34h0l1.58-5.34h0l1.58-5.35h0l1.58-5.36h0l1.58-5.37h0l1.58-5.37h0l1.58-5.38h0l1.58-5.39h0l1.58-5.4h0l1.58-5.41h0l1.58-5.41h0l1.58-5.42h0l1.58-5.43h0l1.58-5.44h0l1.58-5.44h0l1.58-5.45h0l1.58-5.46h0l1.58-5.47h0l1.58-5.47h0l1.58-5.48h0l1.58-5.49h0l1.58-5.5h0l1.58-5.5h0l1.58-5.51h0l1.58-5.52h0l1.58-5.53h0l1.58-5.54h0l1.58-5.54h0l1.58-5.55h0l1.58-5.56h0l1.58-5.57h0l1.58-5.57h0l1.58-5.58h0l1.58-5.59h0l1.58-5.6h0l1.58-5.6h0l1.58-5.61h0l1.58-5.62h0l1.58-5.63h0l1.58-5.63h0l1.58-5.64h0l1.58-5.65h0l1.58-5.66h0l1.58-5.66h0l1.58-5.67h0l1.58-5.68h0l1.58-5.69h0l1.58-5.7h0l1.58-5.7h0l1.58-5.71h0l1.58-5.72h0l1.58-5.73h0l1.58-5.73h0l1.58-5.74h0l1.58-5.75h0l1.58-5.76h0l1.58-5.76h0l1.58-5.77h0l1.58-5.78h0l1.58-5.79h0l1.58-5.79h0l1.58-5.8h0l1.58-5.81h0l1.58-5.82h0l1.58-5.82h0l1.58-5.83h0l1.58-5.84h0l1.58-5.85h0l1.58-5.86h0l1.58-5.86h0l1.58-5.87h0l1.58-5.88h0l1.58-5.89h0l1.58-5.89h0l1.58-5.9h0l1.58-5.91h0l1.58-5.92h0l1.58-5.92h0l1.58-5.93h0l1.58-5.94h0l1.58-5.95h0l1.58-5.95h0l1.58-5.96h0l1.58-5.97h0l1.58-5.98h0l1.58-5.98h0l1.58-5.99h0l1.58-6h0l1.58-6.01h0l1.58-6.02h0l1.58-6.02h0l1.58-6.03h0l1.58-6.04h0l1.58-6.05h0l1.58-6.05h0l1.58-6.06h0l1.58-6.07h0l1.58-6.08h0l1.58-6.08h0l1.58-6.09h0l1.58-6.1h0l1.58-6.11h0l1.58-6.11h0l1.58-6.12h0l1.58-6.13h0l1.58-6.14h0l1.58-6.14h0l1.58-6.15h0l1.58-6.16h0l1.58-6.17h0l1.58-6.18h0l1.58-6.18h0l1.58-6.19h0l1.58-6.2h0l1.58-6.21h0l1.58-6.21h0l1.58-6.22h0l1.58-6.23h0l1.58-6.24h0l1.58-6.24h0l1.58-6.25h0l1.58-6.26h0l1.58-6.27h0l1.58-6.27h0l1.58-6.28h0l1.58-6.29h0l1.58-6.3h0l1.58-6.3h0l1.58-6.31h0l1.58-6.32h0l1.58-6.33h0l1.58-6.34h0l1.58-6.34h0l1.58-6.35h0l1.58-6.36h0l1.58-6.37h0l1.58-6.37h0l1.58-6.38h0l1.58-6.39h0l1.58-6.4h0l1.58-6.4h0l1.58-6.41h0l1.58-6.42h0l1.58-6.43h0l1.58-6.43h0l1.58-6.44h0l1.58-6.45h0l1.58-6.46h0l1.58-6.47h0l1.58-6.47h0l1.58-6.48h0l1.58-6.49h0l1.58-6.5h0l1.58-6.5h0l1.58-6.51h0l1.58-6.52h0l1.58-6.53h0l1.58-6.53h0l1.58-6.54h0l1.58-6.55h0l1.58-6.56h0l1.58-6.56h0l1.58-6.57h0l1.58-6.58h0l1.58-6.59h0l1.58-6.59h0l1.58-6.6h0l1.58-6.61h0l1.58-6.62h0l1.58-6.63h0l1.58-6.63h0l1.58-6.64h0l1.58-6.65h0l1.58-6.66h0l1.58-6.66h0l1.58-6.67h0l1.58-6.68h0l1.58-6.69h0l1.58-6.69h0l1.58-6.7h0l1.58-6.71h0l1.58-6.72h0l1.58-6.72h0l1.58-6.73h0l1.58-6.74h0l1.58-6.75h0l1.58-6.75h0l1.58-6.76h0l1.58-6.77h0l1.58-6.78h0l1.58-6.79h0l1.58-6.79h0l1.58-6.8h0l1.58-6.81h0l1.58-6.82h0l1.58-6.82h0l1.58-6.83h0l1.58-6.84h0l1.58-6.85h0l1.58-6.85h0l1.58-6.86h0l1.58-6.87h0l1.58-6.88h0l1.58-6.88h0l1.58-6.89h0l1.58-6.9h0l1.58-6.91h0l1.58-6.91h0l1.58-6.92h0l1.58-6.93h0l1.58-6.94h0l1.58-6.95h0l1.58-6.95h0l1.58-6.96h0l1.58-6.97h0l1.58-6.98h0l1.58-6.98h0l1.58-6.99h0l1.58-7h0l1.58-7.01h0l1.58-7.01h0l1.58-7.02h0l1.58-7.03h0l1.58-7.04h0l1.58-7.04h0l1.58-7.05h0l1.58-7.06h0l1.58-7.07h0l1.58-7.08h0l1.58-7.08h0l1.58-7.09h0l1.58-7.1h0l1.58-7.11h0l1.58-7.11h0l1.58-7.12h0l1.58-7.13h0l1.58-7.14h0l1.58-7.14h0l1.58-7.15h0l1.58-7.16h0l1.58-7.17h0l1.58-7.17h0l1.58-7.18h0l1.58-7.19h0l1.58-7.2h0l1.58-7.2h0l1.58-7.21h0l1.58-7.22h0l1.58-7.23h0l1.58-7.24h0l1.58-7.24h0l1.58-7.25h0l1.58-7.26h0l1.58-7.27h0l1.58-7.27h0l1.58-7.28h0l1.58-7.29h0l1.58-7.3h0l1.58-7.3h0l1.58-7.31h0l1.58-7.32h0l1.58-7.33h0l1.58-7.33h0l1.58-7.34h0l1.58-7.35h0l1.58-7.36h0l1.58-7.36h0l1.58-7.37h0l1.58-7.38h0l1.58-7.39h0l1.58-7.4h0l1.58-7.4h0l1.58-7.41h0l1.58-7.42h0l1.58-7.43h0l1.58-7.43h0l1.58-7.44h0l1.58-7.45h0l1.58-7.46h0l1.58-7.46h0l1.58-7.47h0l1.58-7.48h0l1.58-7.49h0l1.58-7.49h0l1.58-7.5h0l1.58-7.51h0l1.58-7.52h0l1.58-7.53h0l1.58-7.53h0l1.58-7.54h0l1.58-7.55h0l1.58-7.56h0l1.58-7.56h0l1.58-7.57h0l1.58-7.58h0l1.58-7.59h0l1.58-7.59h0l1.58-7.6h0l1.58-7.61h0l1.58-7.62h0l1.58-7.62h0l1.58-7.63h0l1.58-7.64h0l1.58-7.65h0l1.58-7.65h0l1.58-7.66h0l1.58-7.67h0l1.58-7.68h0l1.58-7.68h0l1.58-7.69h0l1.58-7.7h0l1.58-7.71h0l1.58-7.72h0l1.58-7.72h0l1.58-7.73h0l1.58-7.74h0l1.58-7.75h0l1.58-7.75h0l1.58-7.76h0l1.58-7.77h0l1.58-7.78h0l1.58-7.78h0l1.58-7.79h0l1.58-7.8h0l1.58-7.81h0l1.58-7.81h0l1.58-7.82h0l1.58-7.83h0l1.58-7.84h0l1.58-7.84h0l1.58-7.85h0l1.58-7.86h0l1.58-7.87h0l1.58-7.88h0l1.58-7.88h0l1.58-7.89h0l1.58-7.9h0l1.58-7.91h0l1.58-7.91h0l1.58-7.92h0l1.58-7.93h0l1.58-7.94h0l1.58-7.94h0l1.58-7.95h0l1.58-7.96h0l1.58-7.97h0l1.58-7.97h0l1.58-7.98h0l1.58-7.99h0l1.58-8h0l1.58-8.01h0l1.58-8.01h0l1.58-8.02h0l1.58-8.03h0l1.58-8.04h0l1.58-8.04h0l1.58-8.05h0l1.58-8.06h0l1.58-8.07h0l1.58-8.07h0l1.58-8.08h0l1.58-8.09h0l1.58-8.1h0l1.58-8.1h0l1.58-8.11h0l1.58-8.12h0l1.58-8.13h0l1.58-8.13h0l1.58-8.14h0l1.58-8.15h0l1.58-8.16h0l1.58-8.17h0l1.58-8.17h0l1.58-8.18h0l1.58-8.19h0l1.58-8.2h0l1.58-8.2h0l1.58-8.21h0l1.58-8.22h0l1.58-8.23h0l1.58-8.23h0l1.58-8.24h0l1.58-8.25h0l1.58-8.26h0l1.58-8.26h0l1.58-8.27h0l1.58-8.28h0l1.58-8.29h0l1.58-8.29h0l1.58-8.3h0l1.58-8.31h0l1.58-8.32h0l1.58-8.33h0l1.58-8.33h0l1.58-8.34h0l1.58-8.35h0l1.58-8.36h0l1.58-8.36h0l1.58-8.37h0l1.58-8.38h0l1.58-8.39h0l1.58-8.39h0l1.58-8.4h0l1.58-8.41h0l1.58-8.42h0l1.58-8.42h0l1.58-8.43h0l1.58-8.44h0l1.58-8.45h0l1.58-8.45h0l1.58-8.46h0l1.58-8.47h0l1.58-8.48h0l1.58-8.49h0l1.58-8.49h0l1.58-8.5h0l1.58-8.51h0l1.58-8.52h0l1.58-8.52h0l1.58-8.53h0l1.58-8.54h0l1.58-8.55h0l1.58-8.55h0l1.58-8.56h0l1.58-8.57h0l1.58-8.58h0l1.58-8.58h0l1.58-8.59h0l1.58-8.6h0l1.58-8.61h0l1.58-8.62h0l1.58-8.62h0l1.58-8.63h0l1.58-8.64h0l1.58-8.65h0l1.58-8.65h0l1.58-8.66h0l1.58-8.67h0l1.58-8.68h0l1.58-8.68h0l1.58-8.69h0l1.58-8.7h0l1.58-8.71h0l1.58-8.71h0l1.58-8.72h0l1.58-8.73h0l1.58-8.74h0l1.58-8.74h0l1.58-8.75h0l1.58-8.76h0l1.58-8.77h0l1.58-8.78h0l1.58-8.78h0l1.58-8.79h0l1.58-8.8h0l1.58-8.81h0l1.58-8.81h0l1.58-8.82h0l1.58-8.83h0l1.58-8.84h0l1.58-8.84h0l1.58-8.85h0l1.58-8.86h0l1.58-8.87h0l1.58-8.87h0l1.58-8.88h0l1.58-8.89h0l1.58-8.9h0l1.58-8.9h0l1.58-8.91h0l1.58-8.92h0l1.58-8.93h0l1.58-8.94h0l1.58-8.94h0l1.58-8.95h0l1.58-8.96h0l1.58-8.97h0l1.58-8.97h0l1.58-8.98h0l1.58-8.99h0l1.58-9h0l1.58-9h0l1.58-9.01h0l1.58-9.02h0l1.58-9.03h0l1.58-9.03h0l1.58-9.04h0l1.58-9.05h0l1.58-9.06h0l1.58-9.06h0l1.58-9.07h0l1.58-9.08h0l1.58-9.09h0l1.58-9.1h0l1.58-9.1h0l1.58-9.11h0l1.58-9.12h0l1.58-9.13h0l1.58-9.13h0l1.58-9.14h0l1.58-9.15h0l1.58-9.16h0l1.58-9.16h0l1.58-9.17h0l1.58-9.18h0l1.58-9.19h0l1.58-9.19h0l1.58-9.2h0l1.58-9.21h0l1.58-9.22h0l1.58-9.23h0l1.58-9.23h0l1.58-9.24h0l1.58-9.25h0l1.58-9.26h0l1.58-9.26h0l1.58-9.27h0l1.58-9.28h0l1.58-9.29h0l1.58-9.29h0l1.58-9.3"/>
        </g>
      </g>
    </g>
  </g>
  <g id="uuid-81d01018-4fec-4ea5-94d6-5a01636e9884" data-name="Marco">
    <path class="uuid-11a06b4a-4f29-4795-b053-1b3cb73b4322" d="m-2-2V1022h1249V-2H-2Zm1232,987c0,11.05-8.95,20-20,20H35c-11.05,0-20-8.95-20-20V35c0-11.05,8.95-20,20-20h1175c11.05,0,20,8.95,20,20v950Z"/>
  </g>
</svg>