<?xml version="1.0" encoding="UTF-8"?>
<svg xmlns="http://www.w3.org/2000/svg" xmlns:xlink="http://www.w3.org/1999/xlink" viewBox="0 0 1020 806">
  <defs>
    <style>
      .uuid-2c27453a-f760-4a6a-a17b-79575b7554ab {
        stroke: #404040;
        stroke-miterlimit: 10;
      }

      .uuid-2c27453a-f760-4a6a-a17b-79575b7554ab, .uuid-2fd521c1-f306-455a-9167-2bd6fc891ff5, .uuid-15965424-0ac5-4534-a74b-33ce908157e5, .uuid-f3062676-6bc1-4f9e-b83c-2f8bdee67d7e, .uuid-eb7a7c2f-0b69-4171-8db1-ad29fadf5e2f, .uuid-a546ccb8-f6c8-4a55-98f1-d7e17c453fbe, .uuid-4c94ce90-88d6-44e0-a2e8-b0913d95d0e2, .uuid-0f5fc929-73fd-45bf-936a-d45d6403154a, .uuid-0781e582-57e3-4e77-9e6e-240ce1b3dcf2, .uuid-102d57ed-f21c-48a8-a419-d9d31bf23c3f {
        fill: none;
      }

      .uuid-f879f618-fd39-4b85-a784-f99de00c40df {
        fill: #fff;
      }

      .uuid-2fd521c1-f306-455a-9167-2bd6fc891ff5 {
        clip-path: url(#uuid-9859d784-6212-454b-80a7-ec372549c921);
      }

      .uuid-15965424-0ac5-4534-a74b-33ce908157e5 {
        clip-path: url(#uuid-b3868ef0-8a71-4769-8be3-06fca159a6f1);
      }

      .uuid-f3062676-6bc1-4f9e-b83c-2f8bdee67d7e, .uuid-920cb67c-264c-4d41-9158-53b08eeadf6a, .uuid-b08ac9e6-7f87-4fa4-8835-9372ccf7bfcb, .uuid-102d57ed-f21c-48a8-a419-d9d31bf23c3f {
        font-family: HelveticaNeue-UltraLight, 'Helvetica Neue UltraLight';
        font-weight: 100;
        isolation: isolate;
      }

      .uuid-f3062676-6bc1-4f9e-b83c-2f8bdee67d7e, .uuid-b08ac9e6-7f87-4fa4-8835-9372ccf7bfcb {
        font-size: 21.46px;
      }

      .uuid-f3062676-6bc1-4f9e-b83c-2f8bdee67d7e, .uuid-102d57ed-f21c-48a8-a419-d9d31bf23c3f {
        stroke: #fff;
        stroke-linejoin: bevel;
        stroke-width: 3px;
      }

      .uuid-920cb67c-264c-4d41-9158-53b08eeadf6a, .uuid-b08ac9e6-7f87-4fa4-8835-9372ccf7bfcb {
        fill: #404040;
      }

      .uuid-920cb67c-264c-4d41-9158-53b08eeadf6a, .uuid-102d57ed-f21c-48a8-a419-d9d31bf23c3f {
        font-size: 27.71px;
      }

      .uuid-eb7a7c2f-0b69-4171-8db1-ad29fadf5e2f {
        clip-path: url(#uuid-385c235d-886d-4391-b875-f4c860655578);
      }

      .uuid-664daa9c-4969-4a7e-a98d-d5281d4cbc97 {
        fill: #00699b;
      }

      .uuid-a546ccb8-f6c8-4a55-98f1-d7e17c453fbe {
        stroke: rgba(121, 184, 59, .7);
        stroke-linecap: round;
        stroke-linejoin: round;
        stroke-width: 5px;
      }

      .uuid-0f5fc929-73fd-45bf-936a-d45d6403154a {
        clip-path: url(#uuid-977f7171-6417-4bce-b478-fbc923949146);
      }

      .uuid-0781e582-57e3-4e77-9e6e-240ce1b3dcf2 {
        clip-path: url(#uuid-7dcdd738-cabc-4470-bec6-2f8d5e3f33c8);
      }
    </style>
    <clipPath id="uuid-9859d784-6212-454b-80a7-ec372549c921">
      <rect class="uuid-4c94ce90-88d6-44e0-a2e8-b0913d95d0e2" width="1020" height="806"/>
    </clipPath>
    <clipPath id="uuid-385c235d-886d-4391-b875-f4c860655578">
      <rect class="uuid-4c94ce90-88d6-44e0-a2e8-b0913d95d0e2" x="-402.16" y="-27.09" width="1824.31" height="1441.57"/>
    </clipPath>
    <clipPath id="uuid-7dcdd738-cabc-4470-bec6-2f8d5e3f33c8">
      <rect class="uuid-4c94ce90-88d6-44e0-a2e8-b0913d95d0e2" x="1540.17" width="1020" height="806"/>
    </clipPath>
    <clipPath id="uuid-977f7171-6417-4bce-b478-fbc923949146">
      <rect class="uuid-4c94ce90-88d6-44e0-a2e8-b0913d95d0e2" x="1540.17" y="1333.57" width="1020" height="806"/>
    </clipPath>
    <clipPath id="uuid-b3868ef0-8a71-4769-8be3-06fca159a6f1">
      <rect class="uuid-4c94ce90-88d6-44e0-a2e8-b0913d95d0e2" x="1386.17" y="1186.05" width="1328" height="975.17"/>
    </clipPath>
  </defs>
  <g id="uuid-998841bf-2d9e-458a-9a40-aaa35fadd3f5" data-name="01">
    <g class="uuid-2fd521c1-f306-455a-9167-2bd6fc891ff5">
      <g class="uuid-eb7a7c2f-0b69-4171-8db1-ad29fadf5e2f">
        <g>
          <rect class="uuid-f879f618-fd39-4b85-a784-f99de00c40df" x="-402.16" y="-27.09" width="1824.31" height="1441.57"/>
          <path class="uuid-2c27453a-f760-4a6a-a17b-79575b7554ab" d="m509.11-22.62v1437.99"/>
          <path class="uuid-2c27453a-f760-4a6a-a17b-79575b7554ab" d="m-401.26,692.8h1820.74"/>
          <text class="uuid-b08ac9e6-7f87-4fa4-8835-9372ccf7bfcb" transform="translate(52.13 720.52)"><tspan x="0" y="0">–5</tspan></text>
          <text class="uuid-f3062676-6bc1-4f9e-b83c-2f8bdee67d7e" transform="translate(52.13 720.52)"><tspan x="0" y="0">–5</tspan></text>
          <text class="uuid-b08ac9e6-7f87-4fa4-8835-9372ccf7bfcb" transform="translate(52.13 720.52)"><tspan x="0" y="0">–5</tspan></text>
          <path class="uuid-2c27453a-f760-4a6a-a17b-79575b7554ab" d="m61.97,692.8v5.37"/>
          <text class="uuid-b08ac9e6-7f87-4fa4-8835-9372ccf7bfcb" transform="translate(141.56 720.52)"><tspan x="0" y="0">–4</tspan></text>
          <text class="uuid-f3062676-6bc1-4f9e-b83c-2f8bdee67d7e" transform="translate(141.56 720.52)"><tspan x="0" y="0">–4</tspan></text>
          <text class="uuid-b08ac9e6-7f87-4fa4-8835-9372ccf7bfcb" transform="translate(141.56 720.52)"><tspan x="0" y="0">–4</tspan></text>
          <path class="uuid-2c27453a-f760-4a6a-a17b-79575b7554ab" d="m151.4,692.8v5.37"/>
          <text class="uuid-b08ac9e6-7f87-4fa4-8835-9372ccf7bfcb" transform="translate(230.99 720.52)"><tspan x="0" y="0">–3</tspan></text>
          <text class="uuid-f3062676-6bc1-4f9e-b83c-2f8bdee67d7e" transform="translate(230.99 720.52)"><tspan x="0" y="0">–3</tspan></text>
          <text class="uuid-b08ac9e6-7f87-4fa4-8835-9372ccf7bfcb" transform="translate(230.99 720.52)"><tspan x="0" y="0">–3</tspan></text>
          <path class="uuid-2c27453a-f760-4a6a-a17b-79575b7554ab" d="m240.82,692.8v5.37"/>
          <text class="uuid-b08ac9e6-7f87-4fa4-8835-9372ccf7bfcb" transform="translate(320.41 720.52)"><tspan x="0" y="0">–2</tspan></text>
          <text class="uuid-f3062676-6bc1-4f9e-b83c-2f8bdee67d7e" transform="translate(320.41 720.52)"><tspan x="0" y="0">–2</tspan></text>
          <text class="uuid-b08ac9e6-7f87-4fa4-8835-9372ccf7bfcb" transform="translate(320.41 720.52)"><tspan x="0" y="0">–2</tspan></text>
          <path class="uuid-2c27453a-f760-4a6a-a17b-79575b7554ab" d="m330.25,692.8v5.37"/>
          <text class="uuid-b08ac9e6-7f87-4fa4-8835-9372ccf7bfcb" transform="translate(409.84 720.52)"><tspan x="0" y="0">–1</tspan></text>
          <text class="uuid-f3062676-6bc1-4f9e-b83c-2f8bdee67d7e" transform="translate(409.84 720.52)"><tspan x="0" y="0">–1</tspan></text>
          <text class="uuid-b08ac9e6-7f87-4fa4-8835-9372ccf7bfcb" transform="translate(409.84 720.52)"><tspan x="0" y="0">–1</tspan></text>
          <path class="uuid-2c27453a-f760-4a6a-a17b-79575b7554ab" d="m419.68,692.8v5.37"/>
          <text class="uuid-b08ac9e6-7f87-4fa4-8835-9372ccf7bfcb" transform="translate(595.85 720.52)"><tspan x="0" y="0">1</tspan></text>
          <text class="uuid-f3062676-6bc1-4f9e-b83c-2f8bdee67d7e" transform="translate(595.85 720.52)"><tspan x="0" y="0">1</tspan></text>
          <text class="uuid-b08ac9e6-7f87-4fa4-8835-9372ccf7bfcb" transform="translate(595.85 720.52)"><tspan x="0" y="0">1</tspan></text>
          <path class="uuid-2c27453a-f760-4a6a-a17b-79575b7554ab" d="m600.32,692.8v5.37"/>
          <text class="uuid-b08ac9e6-7f87-4fa4-8835-9372ccf7bfcb" transform="translate(685.28 720.52)"><tspan x="0" y="0">2</tspan></text>
          <text class="uuid-f3062676-6bc1-4f9e-b83c-2f8bdee67d7e" transform="translate(685.28 720.52)"><tspan x="0" y="0">2</tspan></text>
          <text class="uuid-b08ac9e6-7f87-4fa4-8835-9372ccf7bfcb" transform="translate(685.28 720.52)"><tspan x="0" y="0">2</tspan></text>
          <path class="uuid-2c27453a-f760-4a6a-a17b-79575b7554ab" d="m689.75,692.8v5.37"/>
          <text class="uuid-b08ac9e6-7f87-4fa4-8835-9372ccf7bfcb" transform="translate(774.7 720.52)"><tspan x="0" y="0">3</tspan></text>
          <text class="uuid-f3062676-6bc1-4f9e-b83c-2f8bdee67d7e" transform="translate(774.7 720.52)"><tspan x="0" y="0">3</tspan></text>
          <text class="uuid-b08ac9e6-7f87-4fa4-8835-9372ccf7bfcb" transform="translate(774.7 720.52)"><tspan x="0" y="0">3</tspan></text>
          <path class="uuid-2c27453a-f760-4a6a-a17b-79575b7554ab" d="m779.18,692.8v5.37"/>
          <text class="uuid-b08ac9e6-7f87-4fa4-8835-9372ccf7bfcb" transform="translate(864.13 720.52)"><tspan x="0" y="0">4</tspan></text>
          <text class="uuid-f3062676-6bc1-4f9e-b83c-2f8bdee67d7e" transform="translate(864.13 720.52)"><tspan x="0" y="0">4</tspan></text>
          <text class="uuid-b08ac9e6-7f87-4fa4-8835-9372ccf7bfcb" transform="translate(864.13 720.52)"><tspan x="0" y="0">4</tspan></text>
          <path class="uuid-2c27453a-f760-4a6a-a17b-79575b7554ab" d="m868.6,692.8v5.37"/>
          <text class="uuid-b08ac9e6-7f87-4fa4-8835-9372ccf7bfcb" transform="translate(953.56 720.52)"><tspan x="0" y="0">5</tspan></text>
          <text class="uuid-f3062676-6bc1-4f9e-b83c-2f8bdee67d7e" transform="translate(953.56 720.52)"><tspan x="0" y="0">5</tspan></text>
          <text class="uuid-b08ac9e6-7f87-4fa4-8835-9372ccf7bfcb" transform="translate(953.56 720.52)"><tspan x="0" y="0">5</tspan></text>
          <path class="uuid-2c27453a-f760-4a6a-a17b-79575b7554ab" d="m958.03,692.8v5.37"/>
          <path class="uuid-2c27453a-f760-4a6a-a17b-79575b7554ab" d="m503.74,784.02h5.37"/>
          <path class="uuid-2c27453a-f760-4a6a-a17b-79575b7554ab" d="m503.74,605.16h5.37"/>
          <path class="uuid-2c27453a-f760-4a6a-a17b-79575b7554ab" d="m503.74,515.74h5.37"/>
          <path class="uuid-2c27453a-f760-4a6a-a17b-79575b7554ab" d="m503.74,426.31h5.37"/>
          <path class="uuid-2c27453a-f760-4a6a-a17b-79575b7554ab" d="m503.74,336.88h5.37"/>
          <path class="uuid-2c27453a-f760-4a6a-a17b-79575b7554ab" d="m503.74,247.45h5.37"/>
          <path class="uuid-2c27453a-f760-4a6a-a17b-79575b7554ab" d="m503.74,158.03h5.37"/>
          <path class="uuid-2c27453a-f760-4a6a-a17b-79575b7554ab" d="m503.74,66.81h5.37"/>
          <text class="uuid-b08ac9e6-7f87-4fa4-8835-9372ccf7bfcb" transform="translate(472.44 792.06)"><tspan x="0" y="0">–1</tspan></text>
          <text class="uuid-f3062676-6bc1-4f9e-b83c-2f8bdee67d7e" transform="translate(472.44 792.06)"><tspan x="0" y="0">–1</tspan></text>
          <text class="uuid-b08ac9e6-7f87-4fa4-8835-9372ccf7bfcb" transform="translate(472.44 792.06)"><tspan x="0" y="0">–1</tspan></text>
          <text class="uuid-b08ac9e6-7f87-4fa4-8835-9372ccf7bfcb" transform="translate(483.17 613.21)"><tspan x="0" y="0">1</tspan></text>
          <text class="uuid-f3062676-6bc1-4f9e-b83c-2f8bdee67d7e" transform="translate(483.17 613.21)"><tspan x="0" y="0">1</tspan></text>
          <text class="uuid-b08ac9e6-7f87-4fa4-8835-9372ccf7bfcb" transform="translate(483.17 613.21)"><tspan x="0" y="0">1</tspan></text>
          <text class="uuid-b08ac9e6-7f87-4fa4-8835-9372ccf7bfcb" transform="translate(483.17 523.78)"><tspan x="0" y="0">2</tspan></text>
          <text class="uuid-f3062676-6bc1-4f9e-b83c-2f8bdee67d7e" transform="translate(483.17 523.78)"><tspan x="0" y="0">2</tspan></text>
          <text class="uuid-b08ac9e6-7f87-4fa4-8835-9372ccf7bfcb" transform="translate(483.17 523.78)"><tspan x="0" y="0">2</tspan></text>
          <text class="uuid-b08ac9e6-7f87-4fa4-8835-9372ccf7bfcb" transform="translate(483.17 434.36)"><tspan x="0" y="0">3</tspan></text>
          <text class="uuid-f3062676-6bc1-4f9e-b83c-2f8bdee67d7e" transform="translate(483.17 434.36)"><tspan x="0" y="0">3</tspan></text>
          <text class="uuid-b08ac9e6-7f87-4fa4-8835-9372ccf7bfcb" transform="translate(483.17 434.36)"><tspan x="0" y="0">3</tspan></text>
          <text class="uuid-b08ac9e6-7f87-4fa4-8835-9372ccf7bfcb" transform="translate(483.17 344.93)"><tspan x="0" y="0">4</tspan></text>
          <text class="uuid-f3062676-6bc1-4f9e-b83c-2f8bdee67d7e" transform="translate(483.17 344.93)"><tspan x="0" y="0">4</tspan></text>
          <text class="uuid-b08ac9e6-7f87-4fa4-8835-9372ccf7bfcb" transform="translate(483.17 344.93)"><tspan x="0" y="0">4</tspan></text>
          <text class="uuid-b08ac9e6-7f87-4fa4-8835-9372ccf7bfcb" transform="translate(483.17 255.5)"><tspan x="0" y="0">5</tspan></text>
          <text class="uuid-f3062676-6bc1-4f9e-b83c-2f8bdee67d7e" transform="translate(483.17 255.5)"><tspan x="0" y="0">5</tspan></text>
          <text class="uuid-b08ac9e6-7f87-4fa4-8835-9372ccf7bfcb" transform="translate(483.17 255.5)"><tspan x="0" y="0">5</tspan></text>
          <text class="uuid-b08ac9e6-7f87-4fa4-8835-9372ccf7bfcb" transform="translate(483.17 166.08)"><tspan x="0" y="0">6</tspan></text>
          <text class="uuid-f3062676-6bc1-4f9e-b83c-2f8bdee67d7e" transform="translate(483.17 166.08)"><tspan x="0" y="0">6</tspan></text>
          <text class="uuid-b08ac9e6-7f87-4fa4-8835-9372ccf7bfcb" transform="translate(483.17 166.08)"><tspan x="0" y="0">6</tspan></text>
          <text class="uuid-b08ac9e6-7f87-4fa4-8835-9372ccf7bfcb" transform="translate(483.17 74.86)"><tspan x="0" y="0">7</tspan></text>
          <text class="uuid-f3062676-6bc1-4f9e-b83c-2f8bdee67d7e" transform="translate(483.17 74.86)"><tspan x="0" y="0">7</tspan></text>
          <text class="uuid-b08ac9e6-7f87-4fa4-8835-9372ccf7bfcb" transform="translate(483.17 74.86)"><tspan x="0" y="0">7</tspan></text>
          <text class="uuid-b08ac9e6-7f87-4fa4-8835-9372ccf7bfcb" transform="translate(483.17 720.52)"><tspan x="0" y="0">0</tspan></text>
          <text class="uuid-f3062676-6bc1-4f9e-b83c-2f8bdee67d7e" transform="translate(483.17 720.52)"><tspan x="0" y="0">0</tspan></text>
          <text class="uuid-b08ac9e6-7f87-4fa4-8835-9372ccf7bfcb" transform="translate(483.17 720.52)"><tspan x="0" y="0">0</tspan></text>
          <path class="uuid-a546ccb8-f6c8-4a55-98f1-d7e17c453fbe" d="m-402.16-8646.82v36.52h0l1.79,36.45h0l1.79,36.38h0l1.79,36.31h0l1.79,36.24h0l1.79,36.16h0l1.79,36.09h0l1.79,36.02h0l1.79,35.95h0l1.79,35.88h0l1.79,35.81h0l1.79,35.74h0l1.79,35.66h0l1.79,35.59h0l1.79,35.52h0l1.79,35.45h0l1.79,35.38h0l1.79,35.31h0l1.79,35.23h0l1.79,35.16h0l1.79,35.09h0l1.79,35.02h0l1.79,34.95h0l1.79,34.88h0l1.79,34.8h0l1.79,34.73h0l1.79,34.66h0l1.79,34.59h0l1.79,34.52h0l1.79,34.45h0l1.79,34.38h0l1.79,34.3h0l1.79,34.23h0l1.79,34.16h0l1.79,34.09h0l1.79,34.02h0l1.79,33.95h0l1.79,33.87h0l1.79,33.8h0l1.79,33.73h0l1.79,33.66h0l1.79,33.59h0l1.79,33.52h0l1.79,33.45h0l1.79,33.37h0l1.79,33.3h0l1.79,33.23h0l1.79,33.16h0l1.79,33.09h0l1.79,33.02h0l1.79,32.94h0l1.79,32.87h0l1.79,32.8h0l1.79,32.73h0l1.79,32.66h0l1.79,32.59h0l1.79,32.52h0l1.79,32.44h0l1.79,32.37h0l1.79,32.3h0l1.79,32.23h0l1.79,32.16h0l1.79,32.09h0l1.79,32.02h0l1.79,31.94h0l1.79,31.87h0l1.79,31.8h0l1.79,31.73h0l1.79,31.66h0l1.79,31.59h0l1.79,31.51h0l1.79,31.44h0l1.79,31.37h0l1.79,31.3h0l1.79,31.23h0l1.79,31.16h0l1.79,31.08h0l1.79,31.01h0l1.79,30.94h0l1.79,30.87h0l1.79,30.8h0l1.79,30.73h0l1.79,30.66h0l1.79,30.58h0l1.79,30.51h0l1.79,30.44h0l1.79,30.37h0l1.79,30.3h0l1.79,30.23h0l1.79,30.15h0l1.79,30.08h0l1.79,30.01h0l1.79,29.94h0l1.79,29.87h0l1.79,29.8h0l1.79,29.73h0l1.79,29.65h0l1.79,29.58h0l1.79,29.51h0l1.79,29.44h0l1.79,29.37h0l1.79,29.3h0l1.79,29.22h0l1.79,29.15h0l1.79,29.08h0l1.79,29.01h0l1.79,28.94h0l1.79,28.87h0l1.79,28.8h0l1.79,28.72h0l1.79,28.65h0l1.79,28.58h0l1.79,28.51h0l1.79,28.44h0l1.79,28.37h0l1.79,28.29h0l1.79,28.22h0l1.79,28.15h0l1.79,28.08h0l1.79,28.01h0l1.79,27.94h0l1.79,27.87h0l1.79,27.79h0l1.79,27.72h0l1.79,27.65h0l1.79,27.58h0l1.79,27.51h0l1.79,27.44h0l1.79,27.36h0l1.79,27.29h0l1.79,27.22h0l1.79,27.15h0l1.79,27.08h0l1.79,27.01h0l1.79,26.94h0l1.79,26.86h0l1.79,26.79h0l1.79,26.72h0l1.79,26.65h0l1.79,26.58h0l1.79,26.51h0l1.79,26.43h0l1.79,26.36h0l1.79,26.29h0l1.79,26.22h0l1.79,26.15h0l1.79,26.08h0l1.79,26.01h0l1.79,25.93h0l1.79,25.86h0l1.79,25.79h0l1.79,25.72h0l1.79,25.65h0l1.79,25.58h0l1.79,25.5h0l1.79,25.43h0l1.79,25.36h0l1.79,25.29h0l1.79,25.22h0l1.79,25.15h0l1.79,25.08h0l1.79,25h0l1.79,24.93h0l1.79,24.86h0l1.79,24.79h0l1.79,24.72h0l1.79,24.65h0l1.79,24.57h0l1.79,24.5h0l1.79,24.43h0l1.79,24.36h0l1.79,24.29h0l1.79,24.22h0l1.79,24.15h0l1.79,24.07h0l1.79,24h0l1.79,23.93h0l1.79,23.86h0l1.79,23.79h0l1.79,23.72h0l1.79,23.64h0l1.79,23.57h0l1.79,23.5h0l1.79,23.43h0l1.79,23.36h0l1.79,23.29h0l1.79,23.22h0l1.79,23.14h0l1.79,23.07h0l1.79,23h0l1.79,22.93h0l1.79,22.86h0l1.79,22.79h0l1.79,22.71h0l1.79,22.64h0l1.79,22.57h0l1.79,22.5h0l1.79,22.43h0l1.79,22.36h0l1.79,22.29h0l1.79,22.21h0l1.79,22.14h0l1.79,22.07h0l1.79,22h0l1.79,21.93h0l1.79,21.86h0l1.79,21.78h0l1.79,21.71h0l1.79,21.64h0l1.79,21.57h0l1.79,21.5h0l1.79,21.43h0l1.79,21.36h0l1.79,21.28h0l1.79,21.21h0l1.79,21.14h0l1.79,21.07h0l1.79,21h0l1.79,20.93h0l1.79,20.85h0l1.79,20.78h0l1.79,20.71h0l1.79,20.64h0l1.79,20.57h0l1.79,20.5h0l1.79,20.43H.27l1.79,20.35h0l1.79,20.28h0l1.79,20.21h0l1.79,20.14h0l1.79,20.07h0l1.79,20h0l1.79,19.92h0l1.79,19.85h0l1.79,19.78h0l1.79,19.71h0l1.79,19.64h0l1.79,19.57h0l1.79,19.49h0l1.79,19.42h0l1.79,19.35h0l1.79,19.28h0l1.79,19.21h0l1.79,19.14h0l1.79,19.07h0l1.79,18.99h0l1.79,18.92h0l1.79,18.85h0l1.79,18.78h0l1.79,18.71h0l1.79,18.64h0l1.79,18.57h0l1.79,18.49h0l1.79,18.42h0l1.79,18.35h0l1.79,18.28h0l1.79,18.21h0l1.79,18.14h0l1.79,18.06h0l1.79,17.99h0l1.79,17.92h0l1.79,17.85h0l1.79,17.78h0l1.79,17.71h0l1.79,17.64h0l1.79,17.56h0l1.79,17.49h0l1.79,17.42h0l1.79,17.35h0l1.79,17.28h0l1.79,17.21h0l1.79,17.13h0l1.79,17.06h0l1.79,16.99h0l1.79,16.92h0l1.79,16.85h0l1.79,16.78h0l1.79,16.7h0l1.79,16.63h0l1.79,16.56h0l1.79,16.49h0l1.79,16.42h0l1.79,16.35h0l1.79,16.28h0l1.79,16.2h0l1.79,16.13h0l1.79,16.06h0l1.79,15.99h0l1.79,15.92h0l1.79,15.85h0l1.79,15.77h0l1.79,15.7h0l1.79,15.63h0l1.79,15.56h0l1.79,15.49h0l1.79,15.42h0l1.79,15.35h0l1.79,15.27h0l1.79,15.2h0l1.79,15.13h0l1.79,15.06h0l1.79,14.99h0l1.79,14.92h0l1.79,14.84h0l1.79,14.77h0l1.79,14.7h0l1.79,14.63h0l1.79,14.56h0l1.79,14.49h0l1.79,14.42h0l1.79,14.34h0l1.79,14.27h0l1.79,14.2h0l1.79,14.13h0l1.79,14.06h0l1.79,13.99h0l1.79,13.91h0l1.79,13.84h0l1.79,13.77h0l1.79,13.7h0l1.79,13.63h0l1.79,13.56h0l1.79,13.49h0l1.79,13.41h0l1.79,13.34h0l1.79,13.27h0l1.79,13.2h0l1.79,13.13h0l1.79,13.06h0l1.79,12.98h0l1.79,12.91h0l1.79,12.84h0l1.79,12.77h0l1.79,12.7h0l1.79,12.63h0l1.79,12.56h0l1.79,12.48h0l1.79,12.41h0l1.79,12.34h0l1.79,12.27h0l1.79,12.2h0l1.79,12.13h0l1.79,12.05h0l1.79,11.98h0l1.79,11.91h0l1.79,11.84h0l1.79,11.77h0l1.79,11.7h0l1.79,11.63h0l1.79,11.55h0l1.79,11.48h0l1.79,11.41h0l1.79,11.34h0l1.79,11.27h0l1.79,11.2h0l1.79,11.12h0l1.79,11.05h0l1.79,10.98h0l1.79,10.91h0l1.79,10.84h0l1.79,10.77h0l1.79,10.7h0l1.79,10.62h0l1.79,10.55h0l1.79,10.48h0l1.79,10.41h0l1.79,10.34h0l1.79,10.27h0l1.79,10.19h0l1.79,10.12h0l1.79,10.05h0l1.79,9.98h0l1.79,9.91h0l1.79,9.84h0l1.79,9.77h0l1.79,9.69h0l1.79,9.62h0l1.79,9.55h0l1.79,9.48h0l1.79,9.41h0l1.79,9.34h0l1.79,9.26h0l1.79,9.19h0l1.79,9.12h0l1.79,9.05h0l1.79,8.98h0l1.79,8.91h0l1.79,8.84h0l1.79,8.76h0l1.79,8.69h0l1.79,8.62h0l1.79,8.55h0l1.79,8.48h0l1.79,8.41h0l1.79,8.33h0l1.79,8.26h0l1.79,8.19h0l1.79,8.12h0l1.79,8.05h0l1.79,7.98h0l1.79,7.91h0l1.79,7.83h0l1.79,7.76h0l1.79,7.69h0l1.79,7.62h0l1.79,7.55h0l1.79,7.48h0l1.79,7.4h0l1.79,7.33h0l1.79,7.26h0l1.79,7.19h0l1.79,7.12h0l1.79,7.05h0l1.79,6.98h0l1.79,6.9h0l1.79,6.83h0l1.79,6.76h0l1.79,6.69h0l1.79,6.62h0l1.79,6.55h0l1.79,6.47h0l1.79,6.4h0l1.79,6.33h0l1.79,6.26h0l1.79,6.19h0l1.79,6.12h0l1.79,6.05h0l1.79,5.97h0l1.79,5.9h0l1.79,5.83h0l1.79,5.76h0l1.79,5.69h0l1.79,5.62h0l1.79,5.54h0l1.79,5.47h0l1.79,5.4h0l1.79,5.33h0l1.79,5.26h0l1.79,5.19h0l1.79,5.12h0l1.79,5.04h0l1.79,4.97h0l1.79,4.9h0l1.79,4.83h0l1.79,4.76h0l1.79,4.69h0l1.79,4.61h0l1.79,4.54h0l1.79,4.47h0l1.79,4.4h0l1.79,4.33h0l1.79,4.26h0l1.79,4.19h0l1.79,4.11h0l1.79,4.04h0l1.79,3.97h0l1.79,3.9h0l1.79,3.83h0l1.79,3.76h0l1.79,3.68h0l1.79,3.61h0l1.79,3.54h0l1.79,3.47h0l1.79,3.4h0l1.79,3.33h0l1.79,3.26h0l1.79,3.18h0l1.79,3.11h0l1.79,3.04h0l1.79,2.97h0l1.79,2.9h0l1.79,2.83h0l1.79,2.75h0l1.79,2.68h0l1.79,2.61h0l1.79,2.54h0l1.79,2.47h0l1.79,2.4h0l1.79,2.33h0l1.79,2.25h0l1.79,2.18h0l1.79,2.11h0l1.79,2.04h0l1.79,1.97h0l1.79,1.9h0l1.79,1.82h0l1.79,1.75h0l1.79,1.68h0l1.79,1.61h0l1.79,1.54h0l1.79,1.47h0l1.79,1.4h0l1.79,1.32h0l1.79,1.25h0l1.79,1.18h0l1.79,1.11h0l1.79,1.04h0l1.79.97h0l1.79.89h0l1.79.82h0l1.79.75h0l1.79.68h0l1.79.61h0l1.79.54h0l1.79.47h0l1.79.39h0l1.79.32h0l1.79.25h0l1.79.18h0l1.79.11h0l1.79.04h0l1.79-.04h0l1.79-.11h0l1.79-.18h0l1.79-.25h0l1.79-.32h0l1.79-.39h0l1.79-.47h0l1.79-.54h0l1.79-.61h0l1.79-.68h0l1.79-.75h0l1.79-.82h0l1.79-.89h0l1.79-.97h0l1.79-1.04h0l1.79-1.11h0l1.79-1.18h0l1.79-1.25h0l1.79-1.32h0l1.79-1.4h0l1.79-1.47h0l1.79-1.54h0l1.79-1.61h0l1.79-1.68h0l1.79-1.75h0l1.79-1.82h0l1.79-1.9h0l1.79-1.97h0l1.79-2.04h0l1.79-2.11h0l1.79-2.18h0l1.79-2.25h0l1.79-2.33h0l1.79-2.4h0l1.79-2.47h0l1.79-2.54h0l1.79-2.61h0l1.79-2.68h0l1.79-2.75h0l1.79-2.83h0l1.79-2.9h0l1.79-2.97h0l1.79-3.04h0l1.79-3.11h0l1.79-3.18h0l1.79-3.26h0l1.79-3.33h0l1.79-3.4h0l1.79-3.47h0l1.79-3.54h0l1.79-3.61h0l1.79-3.68h0l1.79-3.76h0l1.79-3.83h0l1.79-3.9h0l1.79-3.97h0l1.79-4.04h0l1.79-4.11h0l1.79-4.19h0l1.79-4.26h0l1.79-4.33h0l1.79-4.4h0l1.79-4.47h0l1.79-4.54h0l1.79-4.61h0l1.79-4.69h0l1.79-4.76h0l1.79-4.83h0l1.79-4.9h0l1.79-4.97h0l1.79-5.04h0l1.79-5.12h0l1.79-5.19h0l1.79-5.26h0l1.79-5.33h0l1.79-5.4h0l1.79-5.47h0l1.79-5.54h0l1.79-5.62h0l1.79-5.69h0l1.79-5.76h0l1.79-5.83h0l1.79-5.9h0l1.79-5.97h0l1.79-6.05h0l1.79-6.12h0l1.79-6.19h0l1.79-6.26h0l1.79-6.33h0l1.79-6.4h0l1.79-6.47h0l1.79-6.55h0l1.79-6.62h0l1.79-6.69h0l1.79-6.76h0l1.79-6.83h0l1.79-6.9h0l1.79-6.98h0l1.79-7.05h0l1.79-7.12h0l1.79-7.19h0l1.79-7.26h0l1.79-7.33h0l1.79-7.4h0l1.79-7.48h0l1.79-7.55h0l1.79-7.62h0l1.79-7.69h0l1.79-7.76h0l1.79-7.83h0l1.79-7.91h0l1.79-7.98h0l1.79-8.05h0l1.79-8.12h0l1.79-8.19h0l1.79-8.26h0l1.79-8.33h0l1.79-8.41h0l1.79-8.48h0l1.79-8.55h0l1.79-8.62h0l1.79-8.69h0l1.79-8.76h0l1.79-8.84h0l1.79-8.91h0l1.79-8.98h0l1.79-9.05h0l1.79-9.12h0l1.79-9.19h0l1.79-9.26h0l1.79-9.34h0l1.79-9.41h0l1.79-9.48h0l1.79-9.55h0l1.79-9.62h0l1.79-9.69h0l1.79-9.77h0l1.79-9.84h0l1.79-9.91h0l1.79-9.98h0l1.79-10.05h0l1.79-10.12h0l1.79-10.19h0l1.79-10.27h0l1.79-10.34h0l1.79-10.41h0l1.79-10.48h0l1.79-10.55h0l1.79-10.62h0l1.79-10.7h0l1.79-10.77h0l1.79-10.84h0l1.79-10.91h0l1.79-10.98h0l1.79-11.05h0l1.79-11.12h0l1.79-11.2h0l1.79-11.27h0l1.79-11.34h0l1.79-11.41h0l1.79-11.48h0l1.79-11.55h0l1.79-11.63h0l1.79-11.7h0l1.79-11.77h0l1.79-11.84h0l1.79-11.91h0l1.79-11.98h0l1.79-12.05h0l1.79-12.13h0l1.79-12.2h0l1.79-12.27h0l1.79-12.34h0l1.79-12.41h0l1.79-12.48h0l1.79-12.56h0l1.79-12.63h0l1.79-12.7h0l1.79-12.77h0l1.79-12.84h0l1.79-12.91h0l1.79-12.98h0l1.79-13.06h0l1.79-13.13h0l1.79-13.2h0l1.79-13.27h0l1.79-13.34h0l1.79-13.41h0l1.79-13.49h0l1.79-13.56h0l1.79-13.63h0l1.79-13.7h0l1.79-13.77h0l1.79-13.84h0l1.79-13.91h0l1.79-13.99h0l1.79-14.06h0l1.79-14.13h0l1.79-14.2h0l1.79-14.27h0l1.79-14.34h0l1.79-14.42h0l1.79-14.49h0l1.79-14.56h0l1.79-14.63h0l1.79-14.7h0l1.79-14.77h0l1.79-14.84h0l1.79-14.92h0l1.79-14.99h0l1.79-15.06h0l1.79-15.13h0l1.79-15.2h0l1.79-15.27h0l1.79-15.35h0l1.79-15.42h0l1.79-15.49h0l1.79-15.56h0l1.79-15.63h0l1.79-15.7h0l1.79-15.77h0l1.79-15.85h0l1.79-15.92h0l1.79-15.99h0l1.79-16.06h0l1.79-16.13h0l1.79-16.2h0l1.79-16.28h0l1.79-16.35h0l1.79-16.42h0l1.79-16.49h0l1.79-16.56h0l1.79-16.63h0l1.79-16.7h0l1.79-16.78h0l1.79-16.85h0l1.79-16.92h0l1.79-16.99h0l1.79-17.06h0l1.79-17.13h0l1.79-17.21h0l1.79-17.28h0l1.79-17.35h0l1.79-17.42h0l1.79-17.49h0l1.79-17.56h0l1.79-17.64h0l1.79-17.71h0l1.79-17.78h0l1.79-17.85h0l1.79-17.92h0l1.79-17.99h0l1.79-18.06h0l1.79-18.14h0l1.79-18.21h0l1.79-18.28h0l1.79-18.35h0l1.79-18.42h0l1.79-18.49h0l1.79-18.57h0l1.79-18.64h0l1.79-18.71h0l1.79-18.78h0l1.79-18.85h0l1.79-18.92h0l1.79-18.99h0l1.79-19.07h0l1.79-19.14h0l1.79-19.21h0l1.79-19.28h0l1.79-19.35h0l1.79-19.42h0l1.79-19.49h0l1.79-19.57h0l1.79-19.64h0l1.79-19.71h0l1.79-19.78h0l1.79-19.85h0l1.79-19.92h0l1.79-20h0l1.79-20.07h0l1.79-20.14h0l1.79-20.21h0l1.79-20.28h0l1.79-20.35h0l1.79-20.43h0l1.79-20.5h0l1.79-20.57h0l1.79-20.64h0l1.79-20.71h0l1.79-20.78h0l1.79-20.85h0l1.79-20.93h0l1.79-21h0l1.79-21.07h0l1.79-21.14h0l1.79-21.21h0l1.79-21.28h0l1.79-21.36h0l1.79-21.43h0l1.79-21.5h0l1.79-21.57h0l1.79-21.64h0l1.79-21.71h0l1.79-21.78h0l1.79-21.86h0l1.79-21.93h0l1.79-22h0l1.79-22.07h0l1.79-22.14h0l1.79-22.21h0l1.79-22.29h0l1.79-22.36h0l1.79-22.43h0l1.79-22.5h0l1.79-22.57h0l1.79-22.64h0l1.79-22.71h0l1.79-22.79h0l1.79-22.86h0l1.79-22.93h0l1.79-23h0l1.79-23.07h0l1.79-23.14h0l1.79-23.22h0l1.79-23.29h0l1.79-23.36h0l1.79-23.43h0l1.79-23.5h0l1.79-23.57h0l1.79-23.64h0l1.79-23.72h0l1.79-23.79h0l1.79-23.86h0l1.79-23.93h0l1.79-24h0l1.79-24.07h0l1.79-24.15h0l1.79-24.22h0l1.79-24.29h0l1.79-24.36h0l1.79-24.43h0l1.79-24.5h0l1.79-24.57h0l1.79-24.65h0l1.79-24.72h0l1.79-24.79h0l1.79-24.86h0l1.79-24.93h0l1.79-25h0l1.79-25.08h0l1.79-25.15h0l1.79-25.22h0l1.79-25.29h0l1.79-25.36h0l1.79-25.43h0l1.79-25.5h0l1.79-25.58h0l1.79-25.65h0l1.79-25.72h0l1.79-25.79h0l1.79-25.86h0l1.79-25.93h0l1.79-26.01h0l1.79-26.08h0l1.79-26.15h0l1.79-26.22h0l1.79-26.29h0l1.79-26.36h0l1.79-26.43h0l1.79-26.51h0l1.79-26.58h0l1.79-26.65h0l1.79-26.72h0l1.79-26.79h0l1.79-26.86h0l1.79-26.94h0l1.79-27.01h0l1.79-27.08h0l1.79-27.15h0l1.79-27.22h0l1.79-27.29h0l1.79-27.36h0l1.79-27.44h0l1.79-27.51h0l1.79-27.58h0l1.79-27.65h0l1.79-27.72h0l1.79-27.79h0l1.79-27.87h0l1.79-27.94h0l1.79-28.01h0l1.79-28.08h0l1.79-28.15h0l1.79-28.22h0l1.79-28.29h0l1.79-28.37h0l1.79-28.44h0l1.79-28.51h0l1.79-28.58h0l1.79-28.65h0l1.79-28.72h0l1.79-28.8h0l1.79-28.87h0l1.79-28.94h0l1.79-29.01h0l1.79-29.08h0l1.79-29.15h0l1.79-29.22h0l1.79-29.3h0l1.79-29.37h0l1.79-29.44h0l1.79-29.51h0l1.79-29.58h0l1.79-29.65h0l1.79-29.73h0l1.79-29.8h0l1.79-29.87h0l1.79-29.94h0l1.79-30.01h0l1.79-30.08h0l1.79-30.15h0l1.79-30.23h0l1.79-30.3h0l1.79-30.37h0l1.79-30.44h0l1.79-30.51h0l1.79-30.58h0l1.79-30.66h0l1.79-30.73h0l1.79-30.8h0l1.79-30.87h0l1.79-30.94h0l1.79-31.01h0l1.79-31.08h0l1.79-31.16h0l1.79-31.23h0l1.79-31.3h0l1.79-31.37h0l1.79-31.44h0l1.79-31.51h0l1.79-31.59h0l1.79-31.66h0l1.79-31.73h0l1.79-31.8h0l1.79-31.87h0l1.79-31.94h0l1.79-32.02h0l1.79-32.09h0l1.79-32.16h0l1.79-32.23h0l1.79-32.3h0l1.79-32.37h0l1.79-32.44h0l1.79-32.52h0l1.79-32.59h0l1.79-32.66h0l1.79-32.73h0l1.79-32.8h0l1.79-32.87h0l1.79-32.94h0l1.79-33.02h0l1.79-33.09h0l1.79-33.16h0l1.79-33.23h0l1.79-33.3h0l1.79-33.37h0l1.79-33.45h0l1.79-33.52h0l1.79-33.59h0l1.79-33.66h0l1.79-33.73h0l1.79-33.8h0l1.79-33.87h0l1.79-33.95h0l1.79-34.02h0l1.79-34.09h0l1.79-34.16h0l1.79-34.23h0l1.79-34.3h0l1.79-34.38h0l1.79-34.45h0l1.79-34.52h0l1.79-34.59h0l1.79-34.66h0l1.79-34.73h0l1.79-34.8h0l1.79-34.88h0l1.79-34.95h0l1.79-35.02h0l1.79-35.09h0l1.79-35.16h0l1.79-35.23h0l1.79-35.31h0l1.79-35.38h0l1.79-35.45h0l1.79-35.52h0l1.79-35.59h0l1.79-35.66h0l1.79-35.74h0l1.79-35.81h0l1.79-35.88h0l1.79-35.95h0l1.79-36.02h0l1.79-36.09h0l1.79-36.16h0l1.79-36.24h0l1.79-36.31h0l1.79-36.38h0l1.79-36.45h0l1.79-36.52"/>
        </g>
      </g>
    </g>
  </g>
  <g id="uuid-0f078fac-dce2-449e-8f61-0fb8b3f3592d" data-name="02">
    <g class="uuid-0781e582-57e3-4e77-9e6e-240ce1b3dcf2">
      <g>
        <rect class="uuid-f879f618-fd39-4b85-a784-f99de00c40df" x="872.31" y="-506.43" width="2355.73" height="1844.67"/>
        <path class="uuid-2c27453a-f760-4a6a-a17b-79575b7554ab" d="m873.47,423.16h2351.11"/>
        <path class="uuid-2c27453a-f760-4a6a-a17b-79575b7554ab" d="m894.25,423.16v6.93"/>
        <text class="uuid-920cb67c-264c-4d41-9158-53b08eeadf6a" transform="translate(997.03 458.96)"><tspan x="0" y="0">–9</tspan></text>
        <text class="uuid-102d57ed-f21c-48a8-a419-d9d31bf23c3f" transform="translate(997.03 458.96)"><tspan x="0" y="0">–9</tspan></text>
        <text class="uuid-920cb67c-264c-4d41-9158-53b08eeadf6a" transform="translate(997.03 458.96)"><tspan x="0" y="0">–9</tspan></text>
        <path class="uuid-2c27453a-f760-4a6a-a17b-79575b7554ab" d="m1009.73,423.16v6.93"/>
      </g>
    </g>
  </g>
  <g id="uuid-a46da52f-e28f-4766-8f34-f02fcc080755" data-name="05">
    <g class="uuid-0f5fc929-73fd-45bf-936a-d45d6403154a">
      <g class="uuid-15965424-0ac5-4534-a74b-33ce908157e5">
        <path class="uuid-a546ccb8-f6c8-4a55-98f1-d7e17c453fbe" d="m1005.21,2887.31l368.05-414.37,177.13-200.03,104.03-117.98,68.33-77.94,48.24-55.42,35.8-41.5,27.57-32.3,21.84-25.91,17.68-21.29,14.57-17.85,12.17-15.22,10.29-13.16,8.78-11.53,7.55-10.22,6.53-9.14,5.68-8.26,4.95-7.52,4.32-6.91,3.78-6.39,3.31-5.95,2.88-5.58,2.5-5.27,2.16-5,1.85-4.78,1.56-4.59,1.29-4.44,1.03-4.32.79-4.22.56-4.15.33-4.11.11-4.08-.11-4.08-.33-4.11-.56-4.15-.79-4.22-1.03-4.32-1.29-4.44-1.56-4.59-1.85-4.78-2.16-5-2.5-5.27-2.88-5.58-3.31-5.95-3.78-6.39-4.32-6.91-4.95-7.52-5.68-8.26-6.53-9.14-7.55-10.22-8.78-11.53-10.29-13.16-12.17-15.22-14.57-17.85-17.68-21.29-21.84-25.91-27.57-32.3-35.8-41.5-48.24-55.42-68.33-77.94-104.03-117.98-177.13-200.03-368.05-414.37"/>
      </g>
    </g>
  </g>
  <g id="uuid-1a8f49b3-923d-4619-b6dc-a1da359e275b" data-name="Marco">
    <path class="uuid-664daa9c-4969-4a7e-a98d-d5281d4cbc97" d="m-3-2.72v811.43H1023V-2.72H-3Zm1009,774.43c0,11.05-8.95,20-20,20H34c-11.05,0-20-8.95-20-20V34.28c0-11.05,8.95-20,20-20h952c11.05,0,20,8.95,20,20v737.43Z"/>
  </g>
</svg>