<?xml version="1.0" encoding="UTF-8"?>
<svg xmlns="http://www.w3.org/2000/svg" viewBox="0 0 134.61 133.43">
  <defs>
    <style>
      .uuid-973cff7f-3108-46bb-8183-3e7a751e9c10 {
        stroke: #3aaa35;
      }

      .uuid-973cff7f-3108-46bb-8183-3e7a751e9c10, .uuid-b5f83e54-8d23-4233-a691-4b838d5914a1, .uuid-298d25d1-7e21-49c4-bcc2-ee7b72cd97b5 {
        fill: none;
      }

      .uuid-973cff7f-3108-46bb-8183-3e7a751e9c10, .uuid-298d25d1-7e21-49c4-bcc2-ee7b72cd97b5 {
        stroke-miterlimit: 10;
      }

      .uuid-5122fbea-4ac2-40cb-b8bb-5ffc30a97022 {
        fill: #f6f6f6;
      }

      .uuid-b5f83e54-8d23-4233-a691-4b838d5914a1 {
        stroke: #00699b;
        stroke-linecap: round;
        stroke-linejoin: round;
      }

      .uuid-298d25d1-7e21-49c4-bcc2-ee7b72cd97b5 {
        stroke: #1d71b8;
      }

      .uuid-18ba14c2-210d-4f65-b673-6a19eb227043 {
        fill: #1d1d1b;
      }
    </style>
  </defs>
  <g id="uuid-4f7f72ab-1ede-4150-a57f-cdb6bd905a2b" data-name="Fondo">
    <rect class="uuid-5122fbea-4ac2-40cb-b8bb-5ffc30a97022" x="1.98" y="1.86" width="130.65" height="129.72" rx="5" ry="5"/>
  </g>
  <g id="uuid-d0dd4ca2-d09d-4e75-ba3b-bfdfc97afe28" data-name="elementos">
    <g>
      <rect class="uuid-973cff7f-3108-46bb-8183-3e7a751e9c10" x="5.53" y="20.86" width="106.36" height="106.36"/>
      <line class="uuid-b5f83e54-8d23-4233-a691-4b838d5914a1" x1="116.34" y1="20.86" x2="116.34" y2="74.04"/>
      <line class="uuid-b5f83e54-8d23-4233-a691-4b838d5914a1" x1="111.89" y1="17.31" x2="58.71" y2="17.31"/>
      <path class="uuid-18ba14c2-210d-4f65-b673-6a19eb227043" d="m124.47,47.07l1.14-1.45c.12-.16.22-.31.3-.46s.11-.3.11-.46c0-.13-.05-.25-.15-.33s-.25-.15-.47-.19v-.43h2.87v.43c-.22.06-.45.19-.68.38s-.51.49-.85.91l-1.82,2.23,2,2.7c.29.39.54.68.77.89s.46.35.69.44v.43h-3.53v-.43c.49-.06.73-.24.73-.54,0-.12-.02-.24-.06-.35s-.12-.24-.23-.39l-1.27-1.78-1.35,1.76c-.1.13-.18.25-.23.36s-.08.23-.08.37c0,.16.05.29.16.39s.28.17.51.19v.43h-2.94v-.43c.19-.07.37-.16.52-.26s.31-.24.47-.41.37-.41.64-.73l1.83-2.27-1.87-2.57c-.26-.35-.46-.61-.62-.76s-.29-.28-.42-.36-.26-.14-.39-.18v-.43h3.45v.43c-.46.07-.69.25-.69.54,0,.13.03.27.09.4s.16.28.29.45l1.07,1.5Z"/>
      <path class="uuid-18ba14c2-210d-4f65-b673-6a19eb227043" d="m85.52,8.59l1.14-1.45c.12-.16.22-.31.3-.46s.11-.3.11-.46c0-.13-.05-.25-.15-.33s-.25-.15-.47-.19v-.43h2.87v.43c-.22.06-.45.19-.68.38s-.51.49-.85.91l-1.82,2.23,2,2.7c.29.39.54.68.77.89s.46.35.69.44v.43h-3.53v-.43c.49-.06.73-.24.73-.54,0-.12-.02-.24-.06-.35s-.12-.24-.23-.39l-1.27-1.78-1.35,1.76c-.1.13-.18.25-.23.36s-.08.23-.08.37c0,.16.05.29.16.39s.28.17.51.19v.43h-2.94v-.43c.19-.07.37-.16.52-.26s.31-.24.47-.41.37-.41.64-.73l1.83-2.27-1.87-2.57c-.26-.35-.46-.61-.62-.76s-.29-.28-.42-.36-.26-.14-.39-.18v-.43h3.45v.43c-.46.07-.69.25-.69.54,0,.13.03.27.09.4s.16.28.29.45l1.07,1.5Z"/>
      <circle class="uuid-298d25d1-7e21-49c4-bcc2-ee7b72cd97b5" cx="58.71" cy="74.04" r="53.18"/>
    </g>
  </g>
</svg>