<?xml version="1.0" encoding="UTF-8"?>
<svg xmlns="http://www.w3.org/2000/svg" xmlns:xlink="http://www.w3.org/1999/xlink" viewBox="0 0 1020 806">
  <defs>
    <style>
      .uuid-b0586760-4213-4928-8a53-d478cb8b5e8e {
        stroke: silver;
      }

      .uuid-b0586760-4213-4928-8a53-d478cb8b5e8e, .uuid-0309b43e-b86e-48fc-b7ac-acb90b139c12, .uuid-84467957-77f4-41fb-8c26-122599810ac1, .uuid-ce365f5f-386b-4bd6-9866-0285f139c1a4, .uuid-122202a2-8953-41c0-8c31-4f4da76558dd, .uuid-6ca12183-c818-40a4-8f78-c5f54062ef96, .uuid-a54d5a31-673b-429a-b3c5-e5986bb0ccf9, .uuid-8b459a4d-fe92-424f-928a-95df0eb4af8f, .uuid-9bbba7c6-4009-4143-9bcf-05cd94fb3878 {
        fill: none;
      }

      .uuid-b0586760-4213-4928-8a53-d478cb8b5e8e, .uuid-84467957-77f4-41fb-8c26-122599810ac1, .uuid-a1dd87d6-2990-4d84-9179-f623d74e8917, .uuid-ce365f5f-386b-4bd6-9866-0285f139c1a4 {
        stroke-linecap: round;
        stroke-linejoin: round;
      }

      .uuid-cdeba9cf-ab74-4cad-ae4b-38c3cc89e2af {
        fill: #fff;
      }

      .uuid-0309b43e-b86e-48fc-b7ac-acb90b139c12 {
        stroke: #fff;
        stroke-linejoin: bevel;
        stroke-width: 3px;
      }

      .uuid-84467957-77f4-41fb-8c26-122599810ac1 {
        stroke: rgba(255, 85, 0, .7);
        stroke-width: 5px;
      }

      .uuid-a1dd87d6-2990-4d84-9179-f623d74e8917 {
        fill: #3f3f3f;
        stroke: #000;
      }

      .uuid-ce365f5f-386b-4bd6-9866-0285f139c1a4 {
        stroke: rgba(192, 192, 192, .24);
      }

      .uuid-122202a2-8953-41c0-8c31-4f4da76558dd {
        isolation: isolate;
      }

      .uuid-86d7d3a4-ccde-47e9-929d-82b7b88843cd {
        fill: #00699b;
      }

      .uuid-a54d5a31-673b-429a-b3c5-e5986bb0ccf9 {
        stroke: #252525;
        stroke-miterlimit: 10;
      }

      .uuid-c6f47249-f729-4a2c-86f4-341c0ecdf203 {
        fill: #252525;
      }

      .uuid-8b459a4d-fe92-424f-928a-95df0eb4af8f {
        clip-path: url(#uuid-acbe4a6b-6f30-4c8f-babe-b49263c8cf88);
      }

      .uuid-9bbba7c6-4009-4143-9bcf-05cd94fb3878 {
        clip-path: url(#uuid-544f0bc3-be01-4b74-805a-35b57a812dcc);
      }
    </style>
    <clipPath id="uuid-acbe4a6b-6f30-4c8f-babe-b49263c8cf88">
      <rect class="uuid-6ca12183-c818-40a4-8f78-c5f54062ef96" width="1020" height="806"/>
    </clipPath>
    <clipPath id="uuid-544f0bc3-be01-4b74-805a-35b57a812dcc">
      <rect class="uuid-6ca12183-c818-40a4-8f78-c5f54062ef96" x="-245.57" y="6.44" width="1511.15" height="1054.32"/>
    </clipPath>
  </defs>
  <g id="uuid-6909604f-7da5-4aa4-b8ea-baabde66e208" data-name="01">
    <g class="uuid-8b459a4d-fe92-424f-928a-95df0eb4af8f">
      <g class="uuid-9bbba7c6-4009-4143-9bcf-05cd94fb3878">
        <g>
          <rect class="uuid-cdeba9cf-ab74-4cad-ae4b-38c3cc89e2af" x="-245.57" y="6.44" width="1511.15" height="1054.32"/>
          <path class="uuid-b0586760-4213-4928-8a53-d478cb8b5e8e" d="m-184.55,7.02v1054.32m0-1054.32v1054.32M-106.67,7.02v1054.32M-29.95,7.02v1054.32M46.77,7.02v1054.32M124.66,7.02v1054.32M201.38,7.02v1054.32M278.1,7.02v1054.32M355.98,7.02v1054.32M432.7,7.02v1054.32M587.3,7.02v1054.32M664.02,7.02v1054.32M740.74,7.02v1054.32M818.62,7.02v1054.32M895.34,7.02v1054.32M973.23,7.02v1054.32M1049.95,7.02v1054.32M1126.67,7.02v1054.32M1204.55,7.02v1054.32"/>
          <path class="uuid-ce365f5f-386b-4bd6-9866-0285f139c1a4" d="m-231.04,7.02v1054.32M-214.77,7.02v1054.32M-199.66,7.02v1054.32M-168.27,7.02v1054.32M-153.16,7.02v1054.32M-138.05,7.02v1054.32M-122.94,7.02v1054.32M-91.55,7.02v1054.32M-76.44,7.02v1054.32M-61.33,7.02v1054.32M-45.06,7.02v1054.32M-14.83,7.02v1054.32M.28,7.02v1054.32M16.55,7.02v1054.32M31.66,7.02v1054.32M63.05,7.02v1054.32M78.16,7.02v1054.32M93.27,7.02v1054.32M108.38,7.02v1054.32M139.77,7.02v1054.32M154.88,7.02v1054.32M169.99,7.02v1054.32M186.27,7.02v1054.32M216.49,7.02v1054.32M232.76,7.02v1054.32M247.87,7.02v1054.32M262.99,7.02v1054.32M294.37,7.02v1054.32M309.48,7.02v1054.32M324.59,7.02v1054.32M339.71,7.02v1054.32M371.09,7.02v1054.32M386.2,7.02v1054.32M402.48,7.02v1054.32M417.59,7.02v1054.32M447.81,7.02v1054.32M464.08,7.02v1054.32M479.2,7.02v1054.32M494.31,7.02v1054.32M525.69,7.02v1054.32M540.8,7.02v1054.32M555.92,7.02v1054.32M572.19,7.02v1054.32M602.41,7.02v1054.32M617.52,7.02v1054.32M633.8,7.02v1054.32M648.91,7.02v1054.32M679.13,7.02v1054.32M695.41,7.02v1054.32M710.52,7.02v1054.32M725.63,7.02v1054.32M757.01,7.02v1054.32M772.13,7.02v1054.32M787.24,7.02v1054.32M803.51,7.02v1054.32M833.73,7.02v1054.32M848.85,7.02v1054.32M865.12,7.02v1054.32M880.23,7.02v1054.32M910.45,7.02v1054.32M926.73,7.02v1054.32M941.84,7.02v1054.32M956.95,7.02v1054.32M988.34,7.02v1054.32M1003.45,7.02v1054.32M1018.56,7.02v1054.32M1034.83,7.02v1054.32M1065.06,7.02v1054.32M1080.17,7.02v1054.32M1096.44,7.02v1054.32M1111.55,7.02v1054.32M1142.94,7.02v1054.32M1158.05,7.02v1054.32M1173.16,7.02v1054.32M1188.27,7.02v1054.32M1219.66,7.02v1054.32M1234.77,7.02v1054.32M1249.88,7.02v1054.32"/>
          <path class="uuid-b0586760-4213-4928-8a53-d478cb8b5e8e" d="m-244.99,69.79h1511.15m-1511.15,0h1511.15M-244.99,147.68h1511.15M-244.99,224.4h1511.15M-244.99,301.12h1511.15M-244.99,379h1511.15M-244.99,455.72h1511.15M-244.99,610.32h1511.15m-1511.15,76.72h1511.15m-1511.15,76.72h1511.15m-1511.15,77.88h1511.15m-1511.15,76.72h1511.15m-1511.15,76.72h1511.15"/>
          <path class="uuid-ce365f5f-386b-4bd6-9866-0285f139c1a4" d="m-244.99,8.19h1511.15M-244.99,23.3h1511.15M-244.99,39.57h1511.15M-244.99,54.68h1511.15M-244.99,86.07h1511.15m-1511.15,15.11h1511.15m-1511.15,15.11h1511.15m-1511.15,15.11h1511.15m-1511.15,31.39h1511.15m-1511.15,15.11h1511.15m-1511.15,15.11h1511.15m-1511.15,16.27h1511.15m-1511.15,30.22h1511.15m-1511.15,15.11h1511.15m-1511.15,16.27h1511.15m-1511.15,15.11h1511.15m-1511.15,31.39h1511.15m-1511.15,15.11h1511.15m-1511.15,15.11h1511.15m-1511.15,15.11h1511.15m-1511.15,31.39h1511.15m-1511.15,15.11h1511.15m-1511.15,15.11h1511.15m-1511.15,16.27h1511.15m-1511.15,30.22h1511.15m-1511.15,16.27h1511.15m-1511.15,15.11h1511.15m-1511.15,15.11h1511.15m-1511.15,31.39h1511.15m-1511.15,15.11h1511.15m-1511.15,15.11h1511.15m-1511.15,15.11h1511.15m-1511.15,31.39h1511.15m-1511.15,15.11h1511.15m-1511.15,16.27h1511.15m-1511.15,15.11h1511.15m-1511.15,30.22h1511.15m-1511.15,16.27h1511.15m-1511.15,15.11h1511.15m-1511.15,15.11h1511.15m-1511.15,31.39h1511.15m-1511.15,15.11h1511.15m-1511.15,15.11h1511.15m-1511.15,16.27h1511.15m-1511.15,30.22h1511.15m-1511.15,15.11h1511.15m-1511.15,16.27h1511.15m-1511.15,15.11h1511.15m-1511.15,30.22h1511.15m-1511.15,16.27h1511.15m-1511.15,15.11h1511.15m-1511.15,15.11h1511.15m-1511.15,31.39h1511.15m-1511.15,15.11h1511.15m-1511.15,15.11h1511.15m-1511.15,16.27h1511.15"/>
          <path class="uuid-a54d5a31-673b-429a-b3c5-e5986bb0ccf9" d="m509.42,9.35v1051.99"/>
          <path class="uuid-a54d5a31-673b-429a-b3c5-e5986bb0ccf9" d="m509.42,8.19l-4.65,4.65"/>
          <path class="uuid-a54d5a31-673b-429a-b3c5-e5986bb0ccf9" d="m509.42,8.19l4.65,4.65"/>
          <path class="uuid-a54d5a31-673b-429a-b3c5-e5986bb0ccf9" d="m-244.99,532.44h1508.82"/>
          <g class="uuid-122202a2-8953-41c0-8c31-4f4da76558dd">
            <path class="uuid-c6f47249-f729-4a2c-86f4-341c0ecdf203" d="m43.87,546.58v.28h-6.97v-.28h6.97Z"/>
            <path class="uuid-c6f47249-f729-4a2c-86f4-341c0ecdf203" d="m44.9,542.55c.15-.39.36-.71.65-.97.28-.26.63-.46,1.03-.58.4-.13.85-.2,1.35-.2.38,0,.75.04,1.1.12s.67.22.95.4c.28.19.5.43.67.73s.25.66.25,1.07c0,.67-.19,1.19-.58,1.56-.39.37-.87.59-1.46.64v.03c.28.03.55.1.82.2.27.11.5.26.71.46.21.2.38.45.5.75s.19.65.19,1.06c0,.45-.09.84-.26,1.19-.17.34-.4.63-.7.87-.29.24-.63.42-1.02.54-.39.12-.8.18-1.23.18-.54,0-1.03-.07-1.46-.22-.44-.15-.81-.37-1.12-.65-.31-.28-.54-.63-.69-1.05-.15-.42-.21-.9-.17-1.44h.28c-.04.5.01.95.15,1.33.14.39.35.71.63.97.28.26.62.46,1.03.59s.86.2,1.35.2c.38,0,.75-.05,1.1-.16.35-.11.66-.27.93-.48.27-.21.49-.48.65-.79s.24-.67.24-1.08-.07-.76-.2-1.05c-.13-.29-.33-.53-.57-.71-.25-.19-.54-.33-.87-.42-.33-.09-.69-.15-1.08-.17h-.68v-.28h.68c.31,0,.61-.03.91-.1.3-.07.57-.19.82-.35.24-.16.44-.38.59-.64.15-.26.22-.59.22-.98,0-.38-.09-.7-.25-.96-.16-.26-.36-.47-.61-.63-.25-.16-.54-.28-.85-.35-.32-.07-.64-.1-.98-.1-.46,0-.87.06-1.23.17-.37.12-.68.29-.94.53-.26.24-.46.53-.59.89-.14.35-.2.77-.19,1.24h-.28c0-.52.06-.97.21-1.36Z"/>
            <path class="uuid-c6f47249-f729-4a2c-86f4-341c0ecdf203" d="m58.91,547.49c-.12.58-.31,1.11-.59,1.58-.28.46-.65.84-1.1,1.12-.46.28-1.03.43-1.72.43s-1.25-.14-1.71-.43c-.46-.28-.83-.66-1.11-1.12s-.48-.99-.59-1.58c-.12-.59-.17-1.18-.17-1.77s.06-1.19.17-1.77c.12-.58.31-1.11.59-1.58.28-.46.65-.84,1.11-1.13.46-.29,1.03-.43,1.71-.43s1.26.14,1.72.43c.46.29.82.67,1.1,1.13.28.47.48.99.59,1.58.12.59.17,1.18.17,1.77s-.06,1.19-.17,1.77Zm-.26-3.39c-.1-.55-.28-1.05-.53-1.49-.25-.45-.59-.81-1.01-1.09-.42-.28-.96-.43-1.61-.43s-1.19.14-1.61.43-.76.65-1.01,1.09-.43.94-.53,1.49c-.1.55-.15,1.09-.15,1.62s.05,1.07.15,1.62c.1.55.28,1.05.53,1.49s.59.81,1.01,1.09c.42.28.96.43,1.61.43s1.19-.14,1.61-.43c.42-.28.76-.65,1.01-1.09.25-.45.43-.94.53-1.49.1-.55.15-1.09.15-1.62s-.05-1.07-.15-1.62Z"/>
          </g>
          <g class="uuid-122202a2-8953-41c0-8c31-4f4da76558dd">
            <path class="uuid-0309b43e-b86e-48fc-b7ac-acb90b139c12" d="m43.87,546.58v.28h-6.97v-.28h6.97Z"/>
            <path class="uuid-0309b43e-b86e-48fc-b7ac-acb90b139c12" d="m44.9,542.55c.15-.39.36-.71.65-.97.28-.26.63-.46,1.03-.58.4-.13.85-.2,1.35-.2.38,0,.75.04,1.1.12s.67.22.95.4c.28.19.5.43.67.73s.25.66.25,1.07c0,.67-.19,1.19-.58,1.56-.39.37-.87.59-1.46.64v.03c.28.03.55.1.82.2.27.11.5.26.71.46.21.2.38.45.5.75s.19.65.19,1.06c0,.45-.09.84-.26,1.19-.17.34-.4.63-.7.87-.29.24-.63.42-1.02.54-.39.12-.8.18-1.23.18-.54,0-1.03-.07-1.46-.22-.44-.15-.81-.37-1.12-.65-.31-.28-.54-.63-.69-1.05-.15-.42-.21-.9-.17-1.44h.28c-.04.5.01.95.15,1.33.14.39.35.71.63.97.28.26.62.46,1.03.59s.86.2,1.35.2c.38,0,.75-.05,1.1-.16.35-.11.66-.27.93-.48.27-.21.49-.48.65-.79s.24-.67.24-1.08-.07-.76-.2-1.05c-.13-.29-.33-.53-.57-.71-.25-.19-.54-.33-.87-.42-.33-.09-.69-.15-1.08-.17h-.68v-.28h.68c.31,0,.61-.03.91-.1.3-.07.57-.19.82-.35.24-.16.44-.38.59-.64.15-.26.22-.59.22-.98,0-.38-.09-.7-.25-.96-.16-.26-.36-.47-.61-.63-.25-.16-.54-.28-.85-.35-.32-.07-.64-.1-.98-.1-.46,0-.87.06-1.23.17-.37.12-.68.29-.94.53-.26.24-.46.53-.59.89-.14.35-.2.77-.19,1.24h-.28c0-.52.06-.97.21-1.36Z"/>
            <path class="uuid-0309b43e-b86e-48fc-b7ac-acb90b139c12" d="m58.91,547.49c-.12.58-.31,1.11-.59,1.58-.28.46-.65.84-1.1,1.12-.46.28-1.03.43-1.72.43s-1.25-.14-1.71-.43c-.46-.28-.83-.66-1.11-1.12s-.48-.99-.59-1.58c-.12-.59-.17-1.18-.17-1.77s.06-1.19.17-1.77c.12-.58.31-1.11.59-1.58.28-.46.65-.84,1.11-1.13.46-.29,1.03-.43,1.71-.43s1.26.14,1.72.43c.46.29.82.67,1.1,1.13.28.47.48.99.59,1.58.12.59.17,1.18.17,1.77s-.06,1.19-.17,1.77Zm-.26-3.39c-.1-.55-.28-1.05-.53-1.49-.25-.45-.59-.81-1.01-1.09-.42-.28-.96-.43-1.61-.43s-1.19.14-1.61.43-.76.65-1.01,1.09-.43.94-.53,1.49c-.1.55-.15,1.09-.15,1.62s.05,1.07.15,1.62c.1.55.28,1.05.53,1.49s.59.81,1.01,1.09c.42.28.96.43,1.61.43s1.19-.14,1.61-.43c.42-.28.76-.65,1.01-1.09.25-.45.43-.94.53-1.49.1-.55.15-1.09.15-1.62s-.05-1.07-.15-1.62Z"/>
          </g>
          <g class="uuid-122202a2-8953-41c0-8c31-4f4da76558dd">
            <path class="uuid-c6f47249-f729-4a2c-86f4-341c0ecdf203" d="m43.87,546.58v.28h-6.97v-.28h6.97Z"/>
            <path class="uuid-c6f47249-f729-4a2c-86f4-341c0ecdf203" d="m44.9,542.55c.15-.39.36-.71.65-.97.28-.26.63-.46,1.03-.58.4-.13.85-.2,1.35-.2.38,0,.75.04,1.1.12s.67.22.95.4c.28.19.5.43.67.73s.25.66.25,1.07c0,.67-.19,1.19-.58,1.56-.39.37-.87.59-1.46.64v.03c.28.03.55.1.82.2.27.11.5.26.71.46.21.2.38.45.5.75s.19.65.19,1.06c0,.45-.09.84-.26,1.19-.17.34-.4.63-.7.87-.29.24-.63.42-1.02.54-.39.12-.8.18-1.23.18-.54,0-1.03-.07-1.46-.22-.44-.15-.81-.37-1.12-.65-.31-.28-.54-.63-.69-1.05-.15-.42-.21-.9-.17-1.44h.28c-.04.5.01.95.15,1.33.14.39.35.71.63.97.28.26.62.46,1.03.59s.86.2,1.35.2c.38,0,.75-.05,1.1-.16.35-.11.66-.27.93-.48.27-.21.49-.48.65-.79s.24-.67.24-1.08-.07-.76-.2-1.05c-.13-.29-.33-.53-.57-.71-.25-.19-.54-.33-.87-.42-.33-.09-.69-.15-1.08-.17h-.68v-.28h.68c.31,0,.61-.03.91-.1.3-.07.57-.19.82-.35.24-.16.44-.38.59-.64.15-.26.22-.59.22-.98,0-.38-.09-.7-.25-.96-.16-.26-.36-.47-.61-.63-.25-.16-.54-.28-.85-.35-.32-.07-.64-.1-.98-.1-.46,0-.87.06-1.23.17-.37.12-.68.29-.94.53-.26.24-.46.53-.59.89-.14.35-.2.77-.19,1.24h-.28c0-.52.06-.97.21-1.36Z"/>
            <path class="uuid-c6f47249-f729-4a2c-86f4-341c0ecdf203" d="m58.91,547.49c-.12.58-.31,1.11-.59,1.58-.28.46-.65.84-1.1,1.12-.46.28-1.03.43-1.72.43s-1.25-.14-1.71-.43c-.46-.28-.83-.66-1.11-1.12s-.48-.99-.59-1.58c-.12-.59-.17-1.18-.17-1.77s.06-1.19.17-1.77c.12-.58.31-1.11.59-1.58.28-.46.65-.84,1.11-1.13.46-.29,1.03-.43,1.71-.43s1.26.14,1.72.43c.46.29.82.67,1.1,1.13.28.47.48.99.59,1.58.12.59.17,1.18.17,1.77s-.06,1.19-.17,1.77Zm-.26-3.39c-.1-.55-.28-1.05-.53-1.49-.25-.45-.59-.81-1.01-1.09-.42-.28-.96-.43-1.61-.43s-1.19.14-1.61.43-.76.65-1.01,1.09-.43.94-.53,1.49c-.1.55-.15,1.09-.15,1.62s.05,1.07.15,1.62c.1.55.28,1.05.53,1.49s.59.81,1.01,1.09c.42.28.96.43,1.61.43s1.19-.14,1.61-.43c.42-.28.76-.65,1.01-1.09.25-.45.43-.94.53-1.49.1-.55.15-1.09.15-1.62s-.05-1.07-.15-1.62Z"/>
          </g>
          <g class="uuid-122202a2-8953-41c0-8c31-4f4da76558dd">
            <path class="uuid-c6f47249-f729-4a2c-86f4-341c0ecdf203" d="m121.75,546.58v.28h-6.97v-.28h6.97Z"/>
            <path class="uuid-c6f47249-f729-4a2c-86f4-341c0ecdf203" d="m128.91,550.46h-6.39c0-.4.07-.76.25-1.09s.41-.63.7-.91c.29-.28.61-.55.97-.81s.71-.51,1.07-.76c.36-.25.72-.51,1.06-.77.34-.26.65-.53.92-.82.27-.28.49-.59.65-.91.16-.32.24-.67.24-1.04s-.07-.7-.2-.98c-.13-.28-.32-.52-.55-.71s-.51-.33-.83-.43-.67-.15-1.05-.15c-.49,0-.92.08-1.27.22-.35.15-.64.36-.86.62-.22.27-.39.58-.49.95-.1.37-.15.77-.15,1.21h-.28c0-1.04.27-1.85.77-2.42.51-.57,1.27-.86,2.28-.86.41,0,.79.05,1.14.16.35.11.66.27.92.48s.47.48.62.79c.15.32.23.69.23,1.12,0,.52-.14,1-.42,1.42-.28.43-.63.83-1.05,1.2s-.88.72-1.37,1.05-.96.66-1.39.99c-.43.33-.8.67-1.11,1.02-.31.35-.48.73-.52,1.14h6.11v.28Z"/>
            <path class="uuid-c6f47249-f729-4a2c-86f4-341c0ecdf203" d="m130.69,545.31h.03c.27-.45.63-.77,1.08-.98.45-.2.96-.31,1.51-.31.49,0,.94.08,1.34.24.4.16.74.39,1.03.68.29.29.51.63.67,1.04.16.4.24.84.24,1.32,0,.5-.08.96-.24,1.37-.16.41-.38.76-.67,1.05-.29.29-.63.51-1.03.66-.4.15-.85.23-1.34.23s-.93-.07-1.35-.22c-.41-.14-.77-.35-1.06-.62s-.52-.6-.68-1c-.16-.4-.23-.85-.21-1.36h.28c-.02.46.04.88.18,1.24.14.36.34.67.61.92.27.25.59.44.97.57s.8.2,1.26.2.88-.07,1.25-.22c.37-.14.68-.35.94-.61.26-.27.46-.59.6-.96.14-.38.21-.79.21-1.25s-.07-.84-.22-1.21c-.14-.37-.35-.68-.61-.95-.26-.26-.58-.47-.95-.62-.37-.15-.78-.22-1.23-.22-.56,0-1.07.12-1.55.37-.47.25-.84.61-1.1,1.08h-.35l1.02-4.78h4.87v.28h-4.65l-.86,4.06Z"/>
          </g>
          <g class="uuid-122202a2-8953-41c0-8c31-4f4da76558dd">
            <path class="uuid-0309b43e-b86e-48fc-b7ac-acb90b139c12" d="m121.75,546.58v.28h-6.97v-.28h6.97Z"/>
            <path class="uuid-0309b43e-b86e-48fc-b7ac-acb90b139c12" d="m128.91,550.46h-6.39c0-.4.07-.76.25-1.09s.41-.63.7-.91c.29-.28.61-.55.97-.81s.71-.51,1.07-.76c.36-.25.72-.51,1.06-.77.34-.26.65-.53.92-.82.27-.28.49-.59.65-.91.16-.32.24-.67.24-1.04s-.07-.7-.2-.98c-.13-.28-.32-.52-.55-.71s-.51-.33-.83-.43-.67-.15-1.05-.15c-.49,0-.92.08-1.27.22-.35.15-.64.36-.86.62-.22.27-.39.58-.49.95-.1.37-.15.77-.15,1.21h-.28c0-1.04.27-1.85.77-2.42.51-.57,1.27-.86,2.28-.86.41,0,.79.05,1.14.16.35.11.66.27.92.48s.47.48.62.79c.15.32.23.69.23,1.12,0,.52-.14,1-.42,1.42-.28.43-.63.83-1.05,1.2s-.88.72-1.37,1.05-.96.66-1.39.99c-.43.33-.8.67-1.11,1.02-.31.35-.48.73-.52,1.14h6.11v.28Z"/>
            <path class="uuid-0309b43e-b86e-48fc-b7ac-acb90b139c12" d="m130.69,545.31h.03c.27-.45.63-.77,1.08-.98.45-.2.96-.31,1.51-.31.49,0,.94.08,1.34.24.4.16.74.39,1.03.68.29.29.51.63.67,1.04.16.4.24.84.24,1.32,0,.5-.08.96-.24,1.37-.16.41-.38.76-.67,1.05-.29.29-.63.51-1.03.66-.4.15-.85.23-1.34.23s-.93-.07-1.35-.22c-.41-.14-.77-.35-1.06-.62s-.52-.6-.68-1c-.16-.4-.23-.85-.21-1.36h.28c-.02.46.04.88.18,1.24.14.36.34.67.61.92.27.25.59.44.97.57s.8.2,1.26.2.88-.07,1.25-.22c.37-.14.68-.35.94-.61.26-.27.46-.59.6-.96.14-.38.21-.79.21-1.25s-.07-.84-.22-1.21c-.14-.37-.35-.68-.61-.95-.26-.26-.58-.47-.95-.62-.37-.15-.78-.22-1.23-.22-.56,0-1.07.12-1.55.37-.47.25-.84.61-1.1,1.08h-.35l1.02-4.78h4.87v.28h-4.65l-.86,4.06Z"/>
          </g>
          <g class="uuid-122202a2-8953-41c0-8c31-4f4da76558dd">
            <path class="uuid-c6f47249-f729-4a2c-86f4-341c0ecdf203" d="m121.75,546.58v.28h-6.97v-.28h6.97Z"/>
            <path class="uuid-c6f47249-f729-4a2c-86f4-341c0ecdf203" d="m128.91,550.46h-6.39c0-.4.07-.76.25-1.09s.41-.63.7-.91c.29-.28.61-.55.97-.81s.71-.51,1.07-.76c.36-.25.72-.51,1.06-.77.34-.26.65-.53.92-.82.27-.28.49-.59.65-.91.16-.32.24-.67.24-1.04s-.07-.7-.2-.98c-.13-.28-.32-.52-.55-.71s-.51-.33-.83-.43-.67-.15-1.05-.15c-.49,0-.92.08-1.27.22-.35.15-.64.36-.86.62-.22.27-.39.58-.49.95-.1.37-.15.77-.15,1.21h-.28c0-1.04.27-1.85.77-2.42.51-.57,1.27-.86,2.28-.86.41,0,.79.05,1.14.16.35.11.66.27.92.48s.47.48.62.79c.15.32.23.69.23,1.12,0,.52-.14,1-.42,1.42-.28.43-.63.83-1.05,1.2s-.88.72-1.37,1.05-.96.66-1.39.99c-.43.33-.8.67-1.11,1.02-.31.35-.48.73-.52,1.14h6.11v.28Z"/>
            <path class="uuid-c6f47249-f729-4a2c-86f4-341c0ecdf203" d="m130.69,545.31h.03c.27-.45.63-.77,1.08-.98.45-.2.96-.31,1.51-.31.49,0,.94.08,1.34.24.4.16.74.39,1.03.68.29.29.51.63.67,1.04.16.4.24.84.24,1.32,0,.5-.08.96-.24,1.37-.16.41-.38.76-.67,1.05-.29.29-.63.51-1.03.66-.4.15-.85.23-1.34.23s-.93-.07-1.35-.22c-.41-.14-.77-.35-1.06-.62s-.52-.6-.68-1c-.16-.4-.23-.85-.21-1.36h.28c-.02.46.04.88.18,1.24.14.36.34.67.61.92.27.25.59.44.97.57s.8.2,1.26.2.88-.07,1.25-.22c.37-.14.68-.35.94-.61.26-.27.46-.59.6-.96.14-.38.21-.79.21-1.25s-.07-.84-.22-1.21c-.14-.37-.35-.68-.61-.95-.26-.26-.58-.47-.95-.62-.37-.15-.78-.22-1.23-.22-.56,0-1.07.12-1.55.37-.47.25-.84.61-1.1,1.08h-.35l1.02-4.78h4.87v.28h-4.65l-.86,4.06Z"/>
          </g>
          <g class="uuid-122202a2-8953-41c0-8c31-4f4da76558dd">
            <path class="uuid-c6f47249-f729-4a2c-86f4-341c0ecdf203" d="m198.47,546.58v.28h-6.97v-.28h6.97Z"/>
            <path class="uuid-c6f47249-f729-4a2c-86f4-341c0ecdf203" d="m205.63,550.46h-6.39c0-.4.07-.76.25-1.09s.41-.63.7-.91c.29-.28.61-.55.97-.81s.71-.51,1.07-.76c.36-.25.72-.51,1.06-.77.34-.26.65-.53.92-.82.27-.28.49-.59.65-.91.16-.32.24-.67.24-1.04s-.07-.7-.2-.98c-.13-.28-.32-.52-.55-.71s-.51-.33-.83-.43-.67-.15-1.05-.15c-.49,0-.92.08-1.27.22-.35.15-.64.36-.86.62-.22.27-.39.58-.49.95-.1.37-.15.77-.15,1.21h-.28c0-1.04.27-1.85.77-2.42.51-.57,1.27-.86,2.28-.86.41,0,.79.05,1.14.16.35.11.66.27.92.48s.47.48.62.79c.15.32.23.69.23,1.12,0,.52-.14,1-.42,1.42-.28.43-.63.83-1.05,1.2s-.88.72-1.37,1.05-.96.66-1.39.99c-.43.33-.8.67-1.11,1.02-.31.35-.48.73-.52,1.14h6.11v.28Z"/>
            <path class="uuid-c6f47249-f729-4a2c-86f4-341c0ecdf203" d="m213.52,547.49c-.12.58-.31,1.11-.59,1.58-.28.46-.65.84-1.1,1.12-.46.28-1.03.43-1.72.43s-1.25-.14-1.71-.43c-.46-.28-.83-.66-1.11-1.12s-.48-.99-.59-1.58c-.12-.59-.17-1.18-.17-1.77s.06-1.19.17-1.77c.12-.58.31-1.11.59-1.58.28-.46.65-.84,1.11-1.13.46-.29,1.03-.43,1.71-.43s1.26.14,1.72.43c.46.29.82.67,1.1,1.13.28.47.48.99.59,1.58.12.59.17,1.18.17,1.77s-.06,1.19-.17,1.77Zm-.26-3.39c-.1-.55-.28-1.05-.53-1.49-.25-.45-.59-.81-1.01-1.09-.42-.28-.96-.43-1.61-.43s-1.19.14-1.61.43-.76.65-1.01,1.09-.43.94-.53,1.49c-.1.55-.15,1.09-.15,1.62s.05,1.07.15,1.62c.1.55.28,1.05.53,1.49s.59.81,1.01,1.09c.42.28.96.43,1.61.43s1.19-.14,1.61-.43c.42-.28.76-.65,1.01-1.09.25-.45.43-.94.53-1.49.1-.55.15-1.09.15-1.62s-.05-1.07-.15-1.62Z"/>
          </g>
          <g class="uuid-122202a2-8953-41c0-8c31-4f4da76558dd">
            <path class="uuid-0309b43e-b86e-48fc-b7ac-acb90b139c12" d="m198.47,546.58v.28h-6.97v-.28h6.97Z"/>
            <path class="uuid-0309b43e-b86e-48fc-b7ac-acb90b139c12" d="m205.63,550.46h-6.39c0-.4.07-.76.25-1.09s.41-.63.7-.91c.29-.28.61-.55.97-.81s.71-.51,1.07-.76c.36-.25.72-.51,1.06-.77.34-.26.65-.53.92-.82.27-.28.49-.59.65-.91.16-.32.24-.67.24-1.04s-.07-.7-.2-.98c-.13-.28-.32-.52-.55-.71s-.51-.33-.83-.43-.67-.15-1.05-.15c-.49,0-.92.08-1.27.22-.35.15-.64.36-.86.62-.22.27-.39.58-.49.95-.1.37-.15.77-.15,1.21h-.28c0-1.04.27-1.85.77-2.42.51-.57,1.27-.86,2.28-.86.41,0,.79.05,1.14.16.35.11.66.27.92.48s.47.48.62.79c.15.32.23.69.23,1.12,0,.52-.14,1-.42,1.42-.28.43-.63.83-1.05,1.2s-.88.72-1.37,1.05-.96.66-1.39.99c-.43.33-.8.67-1.11,1.02-.31.35-.48.73-.52,1.14h6.11v.28Z"/>
            <path class="uuid-0309b43e-b86e-48fc-b7ac-acb90b139c12" d="m213.52,547.49c-.12.58-.31,1.11-.59,1.58-.28.46-.65.84-1.1,1.12-.46.28-1.03.43-1.72.43s-1.25-.14-1.71-.43c-.46-.28-.83-.66-1.11-1.12s-.48-.99-.59-1.58c-.12-.59-.17-1.18-.17-1.77s.06-1.19.17-1.77c.12-.58.31-1.11.59-1.58.28-.46.65-.84,1.11-1.13.46-.29,1.03-.43,1.71-.43s1.26.14,1.72.43c.46.29.82.67,1.1,1.13.28.47.48.99.59,1.58.12.59.17,1.18.17,1.77s-.06,1.19-.17,1.77Zm-.26-3.39c-.1-.55-.28-1.05-.53-1.49-.25-.45-.59-.81-1.01-1.09-.42-.28-.96-.43-1.61-.43s-1.19.14-1.61.43-.76.65-1.01,1.09-.43.94-.53,1.49c-.1.55-.15,1.09-.15,1.62s.05,1.07.15,1.62c.1.55.28,1.05.53,1.49s.59.81,1.01,1.09c.42.28.96.43,1.61.43s1.19-.14,1.61-.43c.42-.28.76-.65,1.01-1.09.25-.45.43-.94.53-1.49.1-.55.15-1.09.15-1.62s-.05-1.07-.15-1.62Z"/>
          </g>
          <g class="uuid-122202a2-8953-41c0-8c31-4f4da76558dd">
            <path class="uuid-c6f47249-f729-4a2c-86f4-341c0ecdf203" d="m198.47,546.58v.28h-6.97v-.28h6.97Z"/>
            <path class="uuid-c6f47249-f729-4a2c-86f4-341c0ecdf203" d="m205.63,550.46h-6.39c0-.4.07-.76.25-1.09s.41-.63.7-.91c.29-.28.61-.55.97-.81s.71-.51,1.07-.76c.36-.25.72-.51,1.06-.77.34-.26.65-.53.92-.82.27-.28.49-.59.65-.91.16-.32.24-.67.24-1.04s-.07-.7-.2-.98c-.13-.28-.32-.52-.55-.71s-.51-.33-.83-.43-.67-.15-1.05-.15c-.49,0-.92.08-1.27.22-.35.15-.64.36-.86.62-.22.27-.39.58-.49.95-.1.37-.15.77-.15,1.21h-.28c0-1.04.27-1.85.77-2.42.51-.57,1.27-.86,2.28-.86.41,0,.79.05,1.14.16.35.11.66.27.92.48s.47.48.62.79c.15.32.23.69.23,1.12,0,.52-.14,1-.42,1.42-.28.43-.63.83-1.05,1.2s-.88.72-1.37,1.05-.96.66-1.39.99c-.43.33-.8.67-1.11,1.02-.31.35-.48.73-.52,1.14h6.11v.28Z"/>
            <path class="uuid-c6f47249-f729-4a2c-86f4-341c0ecdf203" d="m213.52,547.49c-.12.58-.31,1.11-.59,1.58-.28.46-.65.84-1.1,1.12-.46.28-1.03.43-1.72.43s-1.25-.14-1.71-.43c-.46-.28-.83-.66-1.11-1.12s-.48-.99-.59-1.58c-.12-.59-.17-1.18-.17-1.77s.06-1.19.17-1.77c.12-.58.31-1.11.59-1.58.28-.46.65-.84,1.11-1.13.46-.29,1.03-.43,1.71-.43s1.26.14,1.72.43c.46.29.82.67,1.1,1.13.28.47.48.99.59,1.58.12.59.17,1.18.17,1.77s-.06,1.19-.17,1.77Zm-.26-3.39c-.1-.55-.28-1.05-.53-1.49-.25-.45-.59-.81-1.01-1.09-.42-.28-.96-.43-1.61-.43s-1.19.14-1.61.43-.76.65-1.01,1.09-.43.94-.53,1.49c-.1.55-.15,1.09-.15,1.62s.05,1.07.15,1.62c.1.55.28,1.05.53,1.49s.59.81,1.01,1.09c.42.28.96.43,1.61.43s1.19-.14,1.61-.43c.42-.28.76-.65,1.01-1.09.25-.45.43-.94.53-1.49.1-.55.15-1.09.15-1.62s-.05-1.07-.15-1.62Z"/>
          </g>
          <g class="uuid-122202a2-8953-41c0-8c31-4f4da76558dd">
            <path class="uuid-c6f47249-f729-4a2c-86f4-341c0ecdf203" d="m275.19,546.58v.28h-6.97v-.28h6.97Z"/>
            <path class="uuid-c6f47249-f729-4a2c-86f4-341c0ecdf203" d="m279.32,541.33c-.29.4-.66.75-1.12,1.04-.46.29-.93.5-1.4.63v-.28c.29-.09.54-.2.77-.31.22-.11.43-.24.63-.38s.38-.3.56-.47.37-.38.56-.6h.31v9.49h-.28v-9.12h-.03Z"/>
            <path class="uuid-c6f47249-f729-4a2c-86f4-341c0ecdf203" d="m284.13,545.31h.03c.27-.45.63-.77,1.08-.98.45-.2.96-.31,1.51-.31.49,0,.94.08,1.34.24.4.16.74.39,1.03.68.29.29.51.63.67,1.04.16.4.24.84.24,1.32,0,.5-.08.96-.24,1.37-.16.41-.38.76-.67,1.05-.29.29-.63.51-1.03.66-.4.15-.85.23-1.34.23s-.93-.07-1.35-.22c-.41-.14-.77-.35-1.06-.62s-.52-.6-.68-1c-.16-.4-.23-.85-.21-1.36h.28c-.02.46.04.88.18,1.24.14.36.34.67.61.92.27.25.59.44.97.57s.8.2,1.26.2.88-.07,1.25-.22c.37-.14.68-.35.94-.61.26-.27.46-.59.6-.96.14-.38.21-.79.21-1.25s-.07-.84-.22-1.21c-.14-.37-.35-.68-.61-.95-.26-.26-.58-.47-.95-.62-.37-.15-.78-.22-1.23-.22-.56,0-1.07.12-1.55.37-.47.25-.84.61-1.1,1.08h-.35l1.02-4.78h4.87v.28h-4.65l-.86,4.06Z"/>
          </g>
          <g class="uuid-122202a2-8953-41c0-8c31-4f4da76558dd">
            <path class="uuid-0309b43e-b86e-48fc-b7ac-acb90b139c12" d="m275.19,546.58v.28h-6.97v-.28h6.97Z"/>
            <path class="uuid-0309b43e-b86e-48fc-b7ac-acb90b139c12" d="m279.32,541.33c-.29.4-.66.75-1.12,1.04-.46.29-.93.5-1.4.63v-.28c.29-.09.54-.2.77-.31.22-.11.43-.24.63-.38s.38-.3.56-.47.37-.38.56-.6h.31v9.49h-.28v-9.12h-.03Z"/>
            <path class="uuid-0309b43e-b86e-48fc-b7ac-acb90b139c12" d="m284.13,545.31h.03c.27-.45.63-.77,1.08-.98.45-.2.96-.31,1.51-.31.49,0,.94.08,1.34.24.4.16.74.39,1.03.68.29.29.51.63.67,1.04.16.4.24.84.24,1.32,0,.5-.08.96-.24,1.37-.16.41-.38.76-.67,1.05-.29.29-.63.51-1.03.66-.4.15-.85.23-1.34.23s-.93-.07-1.35-.22c-.41-.14-.77-.35-1.06-.62s-.52-.6-.68-1c-.16-.4-.23-.85-.21-1.36h.28c-.02.46.04.88.18,1.24.14.36.34.67.61.92.27.25.59.44.97.57s.8.2,1.26.2.88-.07,1.25-.22c.37-.14.68-.35.94-.61.26-.27.46-.59.6-.96.14-.38.21-.79.21-1.25s-.07-.84-.22-1.21c-.14-.37-.35-.68-.61-.95-.26-.26-.58-.47-.95-.62-.37-.15-.78-.22-1.23-.22-.56,0-1.07.12-1.55.37-.47.25-.84.61-1.1,1.08h-.35l1.02-4.78h4.87v.28h-4.65l-.86,4.06Z"/>
          </g>
          <g class="uuid-122202a2-8953-41c0-8c31-4f4da76558dd">
            <path class="uuid-c6f47249-f729-4a2c-86f4-341c0ecdf203" d="m275.19,546.58v.28h-6.97v-.28h6.97Z"/>
            <path class="uuid-c6f47249-f729-4a2c-86f4-341c0ecdf203" d="m279.32,541.33c-.29.4-.66.75-1.12,1.04-.46.29-.93.5-1.4.63v-.28c.29-.09.54-.2.77-.31.22-.11.43-.24.63-.38s.38-.3.56-.47.37-.38.56-.6h.31v9.49h-.28v-9.12h-.03Z"/>
            <path class="uuid-c6f47249-f729-4a2c-86f4-341c0ecdf203" d="m284.13,545.31h.03c.27-.45.63-.77,1.08-.98.45-.2.96-.31,1.51-.31.49,0,.94.08,1.34.24.4.16.74.39,1.03.68.29.29.51.63.67,1.04.16.4.24.84.24,1.32,0,.5-.08.96-.24,1.37-.16.41-.38.76-.67,1.05-.29.29-.63.51-1.03.66-.4.15-.85.23-1.34.23s-.93-.07-1.35-.22c-.41-.14-.77-.35-1.06-.62s-.52-.6-.68-1c-.16-.4-.23-.85-.21-1.36h.28c-.02.46.04.88.18,1.24.14.36.34.67.61.92.27.25.59.44.97.57s.8.2,1.26.2.88-.07,1.25-.22c.37-.14.68-.35.94-.61.26-.27.46-.59.6-.96.14-.38.21-.79.21-1.25s-.07-.84-.22-1.21c-.14-.37-.35-.68-.61-.95-.26-.26-.58-.47-.95-.62-.37-.15-.78-.22-1.23-.22-.56,0-1.07.12-1.55.37-.47.25-.84.61-1.1,1.08h-.35l1.02-4.78h4.87v.28h-4.65l-.86,4.06Z"/>
          </g>
          <g class="uuid-122202a2-8953-41c0-8c31-4f4da76558dd">
            <path class="uuid-c6f47249-f729-4a2c-86f4-341c0ecdf203" d="m353.07,546.58v.28h-6.97v-.28h6.97Z"/>
            <path class="uuid-c6f47249-f729-4a2c-86f4-341c0ecdf203" d="m357.2,541.33c-.29.4-.66.75-1.12,1.04-.46.29-.93.5-1.4.63v-.28c.29-.09.54-.2.77-.31.22-.11.43-.24.63-.38s.38-.3.56-.47.37-.38.56-.6h.31v9.49h-.28v-9.12h-.03Z"/>
            <path class="uuid-c6f47249-f729-4a2c-86f4-341c0ecdf203" d="m368.12,547.49c-.12.58-.31,1.11-.59,1.58-.28.46-.65.84-1.1,1.12-.46.28-1.03.43-1.72.43s-1.25-.14-1.71-.43c-.46-.28-.83-.66-1.11-1.12s-.48-.99-.59-1.58c-.12-.59-.17-1.18-.17-1.77s.06-1.19.17-1.77c.12-.58.31-1.11.59-1.58.28-.46.65-.84,1.11-1.13.46-.29,1.03-.43,1.71-.43s1.26.14,1.72.43c.46.29.82.67,1.1,1.13.28.47.48.99.59,1.58.12.59.17,1.18.17,1.77s-.06,1.19-.17,1.77Zm-.26-3.39c-.1-.55-.28-1.05-.53-1.49-.25-.45-.59-.81-1.01-1.09-.42-.28-.96-.43-1.61-.43s-1.19.14-1.61.43-.76.65-1.01,1.09-.43.94-.53,1.49c-.1.55-.15,1.09-.15,1.62s.05,1.07.15,1.62c.1.55.28,1.05.53,1.49s.59.81,1.01,1.09c.42.28.96.43,1.61.43s1.19-.14,1.61-.43c.42-.28.76-.65,1.01-1.09.25-.45.43-.94.53-1.49.1-.55.15-1.09.15-1.62s-.05-1.07-.15-1.62Z"/>
          </g>
          <g class="uuid-122202a2-8953-41c0-8c31-4f4da76558dd">
            <path class="uuid-0309b43e-b86e-48fc-b7ac-acb90b139c12" d="m353.07,546.58v.28h-6.97v-.28h6.97Z"/>
            <path class="uuid-0309b43e-b86e-48fc-b7ac-acb90b139c12" d="m357.2,541.33c-.29.4-.66.75-1.12,1.04-.46.29-.93.5-1.4.63v-.28c.29-.09.54-.2.77-.31.22-.11.43-.24.63-.38s.38-.3.56-.47.37-.38.56-.6h.31v9.49h-.28v-9.12h-.03Z"/>
            <path class="uuid-0309b43e-b86e-48fc-b7ac-acb90b139c12" d="m368.12,547.49c-.12.58-.31,1.11-.59,1.58-.28.46-.65.84-1.1,1.12-.46.28-1.03.43-1.72.43s-1.25-.14-1.71-.43c-.46-.28-.83-.66-1.11-1.12s-.48-.99-.59-1.58c-.12-.59-.17-1.18-.17-1.77s.06-1.19.17-1.77c.12-.58.31-1.11.59-1.58.28-.46.65-.84,1.11-1.13.46-.29,1.03-.43,1.71-.43s1.26.14,1.72.43c.46.29.82.67,1.1,1.13.28.47.48.99.59,1.58.12.59.17,1.18.17,1.77s-.06,1.19-.17,1.77Zm-.26-3.39c-.1-.55-.28-1.05-.53-1.49-.25-.45-.59-.81-1.01-1.09-.42-.28-.96-.43-1.61-.43s-1.19.14-1.61.43-.76.65-1.01,1.09-.43.94-.53,1.49c-.1.55-.15,1.09-.15,1.62s.05,1.07.15,1.62c.1.55.28,1.05.53,1.49s.59.81,1.01,1.09c.42.28.96.43,1.61.43s1.19-.14,1.61-.43c.42-.28.76-.65,1.01-1.09.25-.45.43-.94.53-1.49.1-.55.15-1.09.15-1.62s-.05-1.07-.15-1.62Z"/>
          </g>
          <g class="uuid-122202a2-8953-41c0-8c31-4f4da76558dd">
            <path class="uuid-c6f47249-f729-4a2c-86f4-341c0ecdf203" d="m353.07,546.58v.28h-6.97v-.28h6.97Z"/>
            <path class="uuid-c6f47249-f729-4a2c-86f4-341c0ecdf203" d="m357.2,541.33c-.29.4-.66.75-1.12,1.04-.46.29-.93.5-1.4.63v-.28c.29-.09.54-.2.77-.31.22-.11.43-.24.63-.38s.38-.3.56-.47.37-.38.56-.6h.31v9.49h-.28v-9.12h-.03Z"/>
            <path class="uuid-c6f47249-f729-4a2c-86f4-341c0ecdf203" d="m368.12,547.49c-.12.58-.31,1.11-.59,1.58-.28.46-.65.84-1.1,1.12-.46.28-1.03.43-1.72.43s-1.25-.14-1.71-.43c-.46-.28-.83-.66-1.11-1.12s-.48-.99-.59-1.58c-.12-.59-.17-1.18-.17-1.77s.06-1.19.17-1.77c.12-.58.31-1.11.59-1.58.28-.46.65-.84,1.11-1.13.46-.29,1.03-.43,1.71-.43s1.26.14,1.72.43c.46.29.82.67,1.1,1.13.28.47.48.99.59,1.58.12.59.17,1.18.17,1.77s-.06,1.19-.17,1.77Zm-.26-3.39c-.1-.55-.28-1.05-.53-1.49-.25-.45-.59-.81-1.01-1.09-.42-.28-.96-.43-1.61-.43s-1.19.14-1.61.43-.76.65-1.01,1.09-.43.94-.53,1.49c-.1.55-.15,1.09-.15,1.62s.05,1.07.15,1.62c.1.55.28,1.05.53,1.49s.59.81,1.01,1.09c.42.28.96.43,1.61.43s1.19-.14,1.61-.43c.42-.28.76-.65,1.01-1.09.25-.45.43-.94.53-1.49.1-.55.15-1.09.15-1.62s-.05-1.07-.15-1.62Z"/>
          </g>
          <g class="uuid-122202a2-8953-41c0-8c31-4f4da76558dd">
            <path class="uuid-c6f47249-f729-4a2c-86f4-341c0ecdf203" d="m433.28,546.58v.28h-6.97v-.28h6.97Z"/>
            <path class="uuid-c6f47249-f729-4a2c-86f4-341c0ecdf203" d="m434.47,545.31h.03c.27-.45.63-.77,1.08-.98.45-.2.96-.31,1.51-.31.49,0,.94.08,1.34.24.4.16.74.39,1.03.68.29.29.51.63.67,1.04.16.4.24.84.24,1.32,0,.5-.08.96-.24,1.37-.16.41-.38.76-.67,1.05-.29.29-.63.51-1.03.66-.4.15-.85.23-1.34.23s-.93-.07-1.35-.22c-.41-.14-.77-.35-1.06-.62s-.52-.6-.68-1c-.16-.4-.23-.85-.21-1.36h.28c-.02.46.04.88.18,1.24.14.36.34.67.61.92.27.25.59.44.97.57s.8.2,1.26.2.88-.07,1.25-.22c.37-.14.68-.35.94-.61.26-.27.46-.59.6-.96.14-.38.21-.79.21-1.25s-.07-.84-.22-1.21c-.14-.37-.35-.68-.61-.95-.26-.26-.58-.47-.95-.62-.37-.15-.78-.22-1.23-.22-.56,0-1.07.12-1.55.37-.47.25-.84.61-1.1,1.08h-.35l1.02-4.78h4.87v.28h-4.65l-.86,4.06Z"/>
          </g>
          <g class="uuid-122202a2-8953-41c0-8c31-4f4da76558dd">
            <path class="uuid-0309b43e-b86e-48fc-b7ac-acb90b139c12" d="m433.28,546.58v.28h-6.97v-.28h6.97Z"/>
            <path class="uuid-0309b43e-b86e-48fc-b7ac-acb90b139c12" d="m434.47,545.31h.03c.27-.45.63-.77,1.08-.98.45-.2.96-.31,1.51-.31.49,0,.94.08,1.34.24.4.16.74.39,1.03.68.29.29.51.63.67,1.04.16.4.24.84.24,1.32,0,.5-.08.96-.24,1.37-.16.41-.38.76-.67,1.05-.29.29-.63.51-1.03.66-.4.15-.85.23-1.34.23s-.93-.07-1.35-.22c-.41-.14-.77-.35-1.06-.62s-.52-.6-.68-1c-.16-.4-.23-.85-.21-1.36h.28c-.02.46.04.88.18,1.24.14.36.34.67.61.92.27.25.59.44.97.57s.8.2,1.26.2.88-.07,1.25-.22c.37-.14.68-.35.94-.61.26-.27.46-.59.6-.96.14-.38.21-.79.21-1.25s-.07-.84-.22-1.21c-.14-.37-.35-.68-.61-.95-.26-.26-.58-.47-.95-.62-.37-.15-.78-.22-1.23-.22-.56,0-1.07.12-1.55.37-.47.25-.84.61-1.1,1.08h-.35l1.02-4.78h4.87v.28h-4.65l-.86,4.06Z"/>
          </g>
          <g class="uuid-122202a2-8953-41c0-8c31-4f4da76558dd">
            <path class="uuid-c6f47249-f729-4a2c-86f4-341c0ecdf203" d="m433.28,546.58v.28h-6.97v-.28h6.97Z"/>
            <path class="uuid-c6f47249-f729-4a2c-86f4-341c0ecdf203" d="m434.47,545.31h.03c.27-.45.63-.77,1.08-.98.45-.2.96-.31,1.51-.31.49,0,.94.08,1.34.24.4.16.74.39,1.03.68.29.29.51.63.67,1.04.16.4.24.84.24,1.32,0,.5-.08.96-.24,1.37-.16.41-.38.76-.67,1.05-.29.29-.63.51-1.03.66-.4.15-.85.23-1.34.23s-.93-.07-1.35-.22c-.41-.14-.77-.35-1.06-.62s-.52-.6-.68-1c-.16-.4-.23-.85-.21-1.36h.28c-.02.46.04.88.18,1.24.14.36.34.67.61.92.27.25.59.44.97.57s.8.2,1.26.2.88-.07,1.25-.22c.37-.14.68-.35.94-.61.26-.27.46-.59.6-.96.14-.38.21-.79.21-1.25s-.07-.84-.22-1.21c-.14-.37-.35-.68-.61-.95-.26-.26-.58-.47-.95-.62-.37-.15-.78-.22-1.23-.22-.56,0-1.07.12-1.55.37-.47.25-.84.61-1.1,1.08h-.35l1.02-4.78h4.87v.28h-4.65l-.86,4.06Z"/>
          </g>
          <g class="uuid-122202a2-8953-41c0-8c31-4f4da76558dd">
            <path class="uuid-c6f47249-f729-4a2c-86f4-341c0ecdf203" d="m585.58,545.31h.03c.27-.45.63-.77,1.08-.98.45-.2.96-.31,1.51-.31.49,0,.94.08,1.34.24.4.16.74.39,1.03.68.29.29.51.63.67,1.04s.24.84.24,1.32c0,.5-.08.96-.24,1.37s-.38.76-.67,1.05c-.29.29-.63.51-1.03.66-.4.15-.85.23-1.34.23s-.93-.07-1.35-.22c-.41-.14-.77-.35-1.06-.62-.29-.27-.52-.6-.68-1s-.23-.85-.21-1.36h.28c-.02.46.04.88.18,1.24.14.36.34.67.61.92.27.25.59.44.97.57.38.13.8.2,1.25.2s.88-.07,1.25-.22c.37-.14.68-.35.94-.61.26-.27.46-.59.6-.96.14-.38.21-.79.21-1.25s-.07-.84-.22-1.21c-.14-.37-.35-.68-.61-.95-.26-.26-.58-.47-.95-.62-.37-.15-.78-.22-1.23-.22-.56,0-1.07.12-1.55.37-.47.25-.84.61-1.1,1.08h-.35l1.02-4.78h4.87v.28h-4.64l-.87,4.06Z"/>
          </g>
          <g class="uuid-122202a2-8953-41c0-8c31-4f4da76558dd">
            <path class="uuid-0309b43e-b86e-48fc-b7ac-acb90b139c12" d="m585.58,545.31h.03c.27-.45.63-.77,1.08-.98.45-.2.96-.31,1.51-.31.49,0,.94.08,1.34.24.4.16.74.39,1.03.68.29.29.51.63.67,1.04s.24.84.24,1.32c0,.5-.08.96-.24,1.37s-.38.76-.67,1.05c-.29.29-.63.51-1.03.66-.4.15-.85.23-1.34.23s-.93-.07-1.35-.22c-.41-.14-.77-.35-1.06-.62-.29-.27-.52-.6-.68-1s-.23-.85-.21-1.36h.28c-.02.46.04.88.18,1.24.14.36.34.67.61.92.27.25.59.44.97.57.38.13.8.2,1.25.2s.88-.07,1.25-.22c.37-.14.68-.35.94-.61.26-.27.46-.59.6-.96.14-.38.21-.79.21-1.25s-.07-.84-.22-1.21c-.14-.37-.35-.68-.61-.95-.26-.26-.58-.47-.95-.62-.37-.15-.78-.22-1.23-.22-.56,0-1.07.12-1.55.37-.47.25-.84.61-1.1,1.08h-.35l1.02-4.78h4.87v.28h-4.64l-.87,4.06Z"/>
          </g>
          <g class="uuid-122202a2-8953-41c0-8c31-4f4da76558dd">
            <path class="uuid-c6f47249-f729-4a2c-86f4-341c0ecdf203" d="m585.58,545.31h.03c.27-.45.63-.77,1.08-.98.45-.2.96-.31,1.51-.31.49,0,.94.08,1.34.24.4.16.74.39,1.03.68.29.29.51.63.67,1.04s.24.84.24,1.32c0,.5-.08.96-.24,1.37s-.38.76-.67,1.05c-.29.29-.63.51-1.03.66-.4.15-.85.23-1.34.23s-.93-.07-1.35-.22c-.41-.14-.77-.35-1.06-.62-.29-.27-.52-.6-.68-1s-.23-.85-.21-1.36h.28c-.02.46.04.88.18,1.24.14.36.34.67.61.92.27.25.59.44.97.57.38.13.8.2,1.25.2s.88-.07,1.25-.22c.37-.14.68-.35.94-.61.26-.27.46-.59.6-.96.14-.38.21-.79.21-1.25s-.07-.84-.22-1.21c-.14-.37-.35-.68-.61-.95-.26-.26-.58-.47-.95-.62-.37-.15-.78-.22-1.23-.22-.56,0-1.07.12-1.55.37-.47.25-.84.61-1.1,1.08h-.35l1.02-4.78h4.87v.28h-4.64l-.87,4.06Z"/>
          </g>
          <g class="uuid-122202a2-8953-41c0-8c31-4f4da76558dd">
            <path class="uuid-c6f47249-f729-4a2c-86f4-341c0ecdf203" d="m661.76,541.33c-.29.4-.66.75-1.12,1.04-.46.29-.93.5-1.4.63v-.28c.29-.09.54-.2.77-.31.22-.11.43-.24.63-.38s.38-.3.57-.47c.18-.18.37-.38.56-.6h.31v9.49h-.28v-9.12h-.03Z"/>
            <path class="uuid-c6f47249-f729-4a2c-86f4-341c0ecdf203" d="m672.67,547.49c-.12.58-.31,1.11-.59,1.58-.28.46-.65.84-1.1,1.12-.46.28-1.03.43-1.72.43s-1.25-.14-1.71-.43c-.46-.28-.83-.66-1.11-1.12-.28-.46-.48-.99-.59-1.58-.12-.59-.17-1.18-.17-1.77s.06-1.19.17-1.77c.12-.58.31-1.11.59-1.58.28-.46.65-.84,1.11-1.13.46-.29,1.03-.43,1.71-.43s1.26.14,1.72.43c.46.29.82.67,1.1,1.13.28.47.48.99.59,1.58.12.59.17,1.18.17,1.77s-.06,1.19-.17,1.77Zm-.26-3.39c-.1-.55-.28-1.05-.53-1.49s-.59-.81-1.01-1.09c-.42-.28-.96-.43-1.61-.43s-1.19.14-1.61.43-.76.65-1.01,1.09c-.25.45-.43.94-.53,1.49-.1.55-.15,1.09-.15,1.62s.05,1.07.15,1.62c.1.55.28,1.05.53,1.49.25.45.59.81,1.01,1.09.42.28.96.43,1.61.43s1.19-.14,1.61-.43c.42-.28.76-.65,1.01-1.09s.43-.94.53-1.49c.1-.55.15-1.09.15-1.62s-.05-1.07-.15-1.62Z"/>
          </g>
          <g class="uuid-122202a2-8953-41c0-8c31-4f4da76558dd">
            <path class="uuid-0309b43e-b86e-48fc-b7ac-acb90b139c12" d="m661.76,541.33c-.29.4-.66.75-1.12,1.04-.46.29-.93.5-1.4.63v-.28c.29-.09.54-.2.77-.31.22-.11.43-.24.63-.38s.38-.3.57-.47c.18-.18.37-.38.56-.6h.31v9.49h-.28v-9.12h-.03Z"/>
            <path class="uuid-0309b43e-b86e-48fc-b7ac-acb90b139c12" d="m672.67,547.49c-.12.58-.31,1.11-.59,1.58-.28.46-.65.84-1.1,1.12-.46.28-1.03.43-1.72.43s-1.25-.14-1.71-.43c-.46-.28-.83-.66-1.11-1.12-.28-.46-.48-.99-.59-1.58-.12-.59-.17-1.18-.17-1.77s.06-1.19.17-1.77c.12-.58.31-1.11.59-1.58.28-.46.65-.84,1.11-1.13.46-.29,1.03-.43,1.71-.43s1.26.14,1.72.43c.46.29.82.67,1.1,1.13.28.47.48.99.59,1.58.12.59.17,1.18.17,1.77s-.06,1.19-.17,1.77Zm-.26-3.39c-.1-.55-.28-1.05-.53-1.49s-.59-.81-1.01-1.09c-.42-.28-.96-.43-1.61-.43s-1.19.14-1.61.43-.76.65-1.01,1.09c-.25.45-.43.94-.53,1.49-.1.55-.15,1.09-.15,1.62s.05,1.07.15,1.62c.1.55.28,1.05.53,1.49.25.45.59.81,1.01,1.09.42.28.96.43,1.61.43s1.19-.14,1.61-.43c.42-.28.76-.65,1.01-1.09s.43-.94.53-1.49c.1-.55.15-1.09.15-1.62s-.05-1.07-.15-1.62Z"/>
          </g>
          <g class="uuid-122202a2-8953-41c0-8c31-4f4da76558dd">
            <path class="uuid-c6f47249-f729-4a2c-86f4-341c0ecdf203" d="m661.76,541.33c-.29.4-.66.75-1.12,1.04-.46.29-.93.5-1.4.63v-.28c.29-.09.54-.2.77-.31.22-.11.43-.24.63-.38s.38-.3.57-.47c.18-.18.37-.38.56-.6h.31v9.49h-.28v-9.12h-.03Z"/>
            <path class="uuid-c6f47249-f729-4a2c-86f4-341c0ecdf203" d="m672.67,547.49c-.12.58-.31,1.11-.59,1.58-.28.46-.65.84-1.1,1.12-.46.28-1.03.43-1.72.43s-1.25-.14-1.71-.43c-.46-.28-.83-.66-1.11-1.12-.28-.46-.48-.99-.59-1.58-.12-.59-.17-1.18-.17-1.77s.06-1.19.17-1.77c.12-.58.31-1.11.59-1.58.28-.46.65-.84,1.11-1.13.46-.29,1.03-.43,1.71-.43s1.26.14,1.72.43c.46.29.82.67,1.1,1.13.28.47.48.99.59,1.58.12.59.17,1.18.17,1.77s-.06,1.19-.17,1.77Zm-.26-3.39c-.1-.55-.28-1.05-.53-1.49s-.59-.81-1.01-1.09c-.42-.28-.96-.43-1.61-.43s-1.19.14-1.61.43-.76.65-1.01,1.09c-.25.45-.43.94-.53,1.49-.1.55-.15,1.09-.15,1.62s.05,1.07.15,1.62c.1.55.28,1.05.53,1.49.25.45.59.81,1.01,1.09.42.28.96.43,1.61.43s1.19-.14,1.61-.43c.42-.28.76-.65,1.01-1.09s.43-.94.53-1.49c.1-.55.15-1.09.15-1.62s-.05-1.07-.15-1.62Z"/>
          </g>
          <g class="uuid-122202a2-8953-41c0-8c31-4f4da76558dd">
            <path class="uuid-c6f47249-f729-4a2c-86f4-341c0ecdf203" d="m738.48,541.33c-.29.4-.66.75-1.12,1.04-.46.29-.93.5-1.4.63v-.28c.29-.09.54-.2.77-.31.22-.11.43-.24.63-.38s.38-.3.57-.47c.18-.18.37-.38.56-.6h.31v9.49h-.28v-9.12h-.03Z"/>
            <path class="uuid-c6f47249-f729-4a2c-86f4-341c0ecdf203" d="m743.29,545.31h.03c.27-.45.63-.77,1.08-.98.45-.2.96-.31,1.51-.31.49,0,.94.08,1.34.24.4.16.74.39,1.03.68.29.29.51.63.67,1.04s.24.84.24,1.32c0,.5-.08.96-.24,1.37s-.38.76-.67,1.05c-.29.29-.63.51-1.03.66-.4.15-.85.23-1.34.23s-.93-.07-1.35-.22c-.41-.14-.77-.35-1.06-.62-.29-.27-.52-.6-.68-1s-.23-.85-.21-1.36h.28c-.02.46.04.88.18,1.24.14.36.34.67.61.92.27.25.59.44.97.57.38.13.8.2,1.25.2s.88-.07,1.25-.22c.37-.14.68-.35.94-.61.26-.27.46-.59.6-.96.14-.38.21-.79.21-1.25s-.07-.84-.22-1.21c-.14-.37-.35-.68-.61-.95-.26-.26-.58-.47-.95-.62-.37-.15-.78-.22-1.23-.22-.56,0-1.07.12-1.55.37-.47.25-.84.61-1.1,1.08h-.35l1.02-4.78h4.87v.28h-4.64l-.87,4.06Z"/>
          </g>
          <g class="uuid-122202a2-8953-41c0-8c31-4f4da76558dd">
            <path class="uuid-0309b43e-b86e-48fc-b7ac-acb90b139c12" d="m738.48,541.33c-.29.4-.66.75-1.12,1.04-.46.29-.93.5-1.4.63v-.28c.29-.09.54-.2.77-.31.22-.11.43-.24.63-.38s.38-.3.57-.47c.18-.18.37-.38.56-.6h.31v9.49h-.28v-9.12h-.03Z"/>
            <path class="uuid-0309b43e-b86e-48fc-b7ac-acb90b139c12" d="m743.29,545.31h.03c.27-.45.63-.77,1.08-.98.45-.2.96-.31,1.51-.31.49,0,.94.08,1.34.24.4.16.74.39,1.03.68.29.29.51.63.67,1.04s.24.84.24,1.32c0,.5-.08.96-.24,1.37s-.38.76-.67,1.05c-.29.29-.63.51-1.03.66-.4.15-.85.23-1.34.23s-.93-.07-1.35-.22c-.41-.14-.77-.35-1.06-.62-.29-.27-.52-.6-.68-1s-.23-.85-.21-1.36h.28c-.02.46.04.88.18,1.24.14.36.34.67.61.92.27.25.59.44.97.57.38.13.8.2,1.25.2s.88-.07,1.25-.22c.37-.14.68-.35.94-.61.26-.27.46-.59.6-.96.14-.38.21-.79.21-1.25s-.07-.84-.22-1.21c-.14-.37-.35-.68-.61-.95-.26-.26-.58-.47-.95-.62-.37-.15-.78-.22-1.23-.22-.56,0-1.07.12-1.55.37-.47.25-.84.61-1.1,1.08h-.35l1.02-4.78h4.87v.28h-4.64l-.87,4.06Z"/>
          </g>
          <g class="uuid-122202a2-8953-41c0-8c31-4f4da76558dd">
            <path class="uuid-c6f47249-f729-4a2c-86f4-341c0ecdf203" d="m738.48,541.33c-.29.4-.66.75-1.12,1.04-.46.29-.93.5-1.4.63v-.28c.29-.09.54-.2.77-.31.22-.11.43-.24.63-.38s.38-.3.57-.47c.18-.18.37-.38.56-.6h.31v9.49h-.28v-9.12h-.03Z"/>
            <path class="uuid-c6f47249-f729-4a2c-86f4-341c0ecdf203" d="m743.29,545.31h.03c.27-.45.63-.77,1.08-.98.45-.2.96-.31,1.51-.31.49,0,.94.08,1.34.24.4.16.74.39,1.03.68.29.29.51.63.67,1.04s.24.84.24,1.32c0,.5-.08.96-.24,1.37s-.38.76-.67,1.05c-.29.29-.63.51-1.03.66-.4.15-.85.23-1.34.23s-.93-.07-1.35-.22c-.41-.14-.77-.35-1.06-.62-.29-.27-.52-.6-.68-1s-.23-.85-.21-1.36h.28c-.02.46.04.88.18,1.24.14.36.34.67.61.92.27.25.59.44.97.57.38.13.8.2,1.25.2s.88-.07,1.25-.22c.37-.14.68-.35.94-.61.26-.27.46-.59.6-.96.14-.38.21-.79.21-1.25s-.07-.84-.22-1.21c-.14-.37-.35-.68-.61-.95-.26-.26-.58-.47-.95-.62-.37-.15-.78-.22-1.23-.22-.56,0-1.07.12-1.55.37-.47.25-.84.61-1.1,1.08h-.35l1.02-4.78h4.87v.28h-4.64l-.87,4.06Z"/>
          </g>
          <g class="uuid-122202a2-8953-41c0-8c31-4f4da76558dd">
            <path class="uuid-c6f47249-f729-4a2c-86f4-341c0ecdf203" d="m819.39,550.46h-6.39c0-.4.07-.76.25-1.09s.41-.63.7-.91c.29-.28.61-.55.97-.81.36-.26.71-.51,1.07-.76.36-.25.72-.51,1.06-.77.34-.26.65-.53.92-.82.27-.28.49-.59.65-.91.16-.32.24-.67.24-1.04s-.07-.7-.2-.98c-.13-.28-.32-.52-.55-.71-.23-.19-.51-.33-.83-.43-.32-.1-.67-.15-1.05-.15-.49,0-.92.08-1.27.22s-.64.36-.86.62c-.22.27-.39.58-.49.95-.1.37-.15.77-.15,1.21h-.28c0-1.04.27-1.85.77-2.42s1.27-.86,2.28-.86c.41,0,.79.05,1.14.16.35.11.66.27.92.48s.47.48.62.79.23.69.23,1.12c0,.52-.14,1-.42,1.42-.28.43-.63.83-1.05,1.2-.42.37-.88.72-1.37,1.05-.49.33-.96.66-1.39.99-.43.33-.8.67-1.11,1.02s-.48.73-.52,1.14h6.11v.28Z"/>
            <path class="uuid-c6f47249-f729-4a2c-86f4-341c0ecdf203" d="m827.27,547.49c-.12.58-.31,1.11-.59,1.58-.28.46-.65.84-1.1,1.12-.46.28-1.03.43-1.72.43s-1.25-.14-1.71-.43c-.46-.28-.83-.66-1.11-1.12-.28-.46-.48-.99-.59-1.58-.12-.59-.17-1.18-.17-1.77s.06-1.19.17-1.77c.12-.58.31-1.11.59-1.58.28-.46.65-.84,1.11-1.13.46-.29,1.03-.43,1.71-.43s1.26.14,1.72.43c.46.29.82.67,1.1,1.13.28.47.48.99.59,1.58.12.59.17,1.18.17,1.77s-.06,1.19-.17,1.77Zm-.26-3.39c-.1-.55-.28-1.05-.53-1.49s-.59-.81-1.01-1.09c-.42-.28-.96-.43-1.61-.43s-1.19.14-1.61.43-.76.65-1.01,1.09c-.25.45-.43.94-.53,1.49-.1.55-.15,1.09-.15,1.62s.05,1.07.15,1.62c.1.55.28,1.05.53,1.49.25.45.59.81,1.01,1.09.42.28.96.43,1.61.43s1.19-.14,1.61-.43c.42-.28.76-.65,1.01-1.09s.43-.94.53-1.49c.1-.55.15-1.09.15-1.62s-.05-1.07-.15-1.62Z"/>
          </g>
          <g class="uuid-122202a2-8953-41c0-8c31-4f4da76558dd">
            <path class="uuid-0309b43e-b86e-48fc-b7ac-acb90b139c12" d="m819.39,550.46h-6.39c0-.4.07-.76.25-1.09s.41-.63.7-.91c.29-.28.61-.55.97-.81.36-.26.71-.51,1.07-.76.36-.25.72-.51,1.06-.77.34-.26.65-.53.92-.82.27-.28.49-.59.65-.91.16-.32.24-.67.24-1.04s-.07-.7-.2-.98c-.13-.28-.32-.52-.55-.71-.23-.19-.51-.33-.83-.43-.32-.1-.67-.15-1.05-.15-.49,0-.92.08-1.27.22s-.64.36-.86.62c-.22.27-.39.58-.49.95-.1.37-.15.77-.15,1.21h-.28c0-1.04.27-1.85.77-2.42s1.27-.86,2.28-.86c.41,0,.79.05,1.14.16.35.11.66.27.92.48s.47.48.62.79.23.69.23,1.12c0,.52-.14,1-.42,1.42-.28.43-.63.83-1.05,1.2-.42.37-.88.72-1.37,1.05-.49.33-.96.66-1.39.99-.43.33-.8.67-1.11,1.02s-.48.73-.52,1.14h6.11v.28Z"/>
            <path class="uuid-0309b43e-b86e-48fc-b7ac-acb90b139c12" d="m827.27,547.49c-.12.58-.31,1.11-.59,1.58-.28.46-.65.84-1.1,1.12-.46.28-1.03.43-1.72.43s-1.25-.14-1.71-.43c-.46-.28-.83-.66-1.11-1.12-.28-.46-.48-.99-.59-1.58-.12-.59-.17-1.18-.17-1.77s.06-1.19.17-1.77c.12-.58.31-1.11.59-1.58.28-.46.65-.84,1.11-1.13.46-.29,1.03-.43,1.71-.43s1.26.14,1.72.43c.46.29.82.67,1.1,1.13.28.47.48.99.59,1.58.12.59.17,1.18.17,1.77s-.06,1.19-.17,1.77Zm-.26-3.39c-.1-.55-.28-1.05-.53-1.49s-.59-.81-1.01-1.09c-.42-.28-.96-.43-1.61-.43s-1.19.14-1.61.43-.76.65-1.01,1.09c-.25.45-.43.94-.53,1.49-.1.55-.15,1.09-.15,1.62s.05,1.07.15,1.62c.1.55.28,1.05.53,1.49.25.45.59.81,1.01,1.09.42.28.96.43,1.61.43s1.19-.14,1.61-.43c.42-.28.76-.65,1.01-1.09s.43-.94.53-1.49c.1-.55.15-1.09.15-1.62s-.05-1.07-.15-1.62Z"/>
          </g>
          <g class="uuid-122202a2-8953-41c0-8c31-4f4da76558dd">
            <path class="uuid-c6f47249-f729-4a2c-86f4-341c0ecdf203" d="m819.39,550.46h-6.39c0-.4.07-.76.25-1.09s.41-.63.7-.91c.29-.28.61-.55.97-.81.36-.26.71-.51,1.07-.76.36-.25.72-.51,1.06-.77.34-.26.65-.53.92-.82.27-.28.49-.59.65-.91.16-.32.24-.67.24-1.04s-.07-.7-.2-.98c-.13-.28-.32-.52-.55-.71-.23-.19-.51-.33-.83-.43-.32-.1-.67-.15-1.05-.15-.49,0-.92.08-1.27.22s-.64.36-.86.62c-.22.27-.39.58-.49.95-.1.37-.15.77-.15,1.21h-.28c0-1.04.27-1.85.77-2.42s1.27-.86,2.28-.86c.41,0,.79.05,1.14.16.35.11.66.27.92.48s.47.48.62.79.23.69.23,1.12c0,.52-.14,1-.42,1.42-.28.43-.63.83-1.05,1.2-.42.37-.88.72-1.37,1.05-.49.33-.96.66-1.39.99-.43.33-.8.67-1.11,1.02s-.48.73-.52,1.14h6.11v.28Z"/>
            <path class="uuid-c6f47249-f729-4a2c-86f4-341c0ecdf203" d="m827.27,547.49c-.12.58-.31,1.11-.59,1.58-.28.46-.65.84-1.1,1.12-.46.28-1.03.43-1.72.43s-1.25-.14-1.71-.43c-.46-.28-.83-.66-1.11-1.12-.28-.46-.48-.99-.59-1.58-.12-.59-.17-1.18-.17-1.77s.06-1.19.17-1.77c.12-.58.31-1.11.59-1.58.28-.46.65-.84,1.11-1.13.46-.29,1.03-.43,1.71-.43s1.26.14,1.72.43c.46.29.82.67,1.1,1.13.28.47.48.99.59,1.58.12.59.17,1.18.17,1.77s-.06,1.19-.17,1.77Zm-.26-3.39c-.1-.55-.28-1.05-.53-1.49s-.59-.81-1.01-1.09c-.42-.28-.96-.43-1.61-.43s-1.19.14-1.61.43-.76.65-1.01,1.09c-.25.45-.43.94-.53,1.49-.1.55-.15,1.09-.15,1.62s.05,1.07.15,1.62c.1.55.28,1.05.53,1.49.25.45.59.81,1.01,1.09.42.28.96.43,1.61.43s1.19-.14,1.61-.43c.42-.28.76-.65,1.01-1.09s.43-.94.53-1.49c.1-.55.15-1.09.15-1.62s-.05-1.07-.15-1.62Z"/>
          </g>
          <g class="uuid-122202a2-8953-41c0-8c31-4f4da76558dd">
            <path class="uuid-c6f47249-f729-4a2c-86f4-341c0ecdf203" d="m896.11,550.46h-6.39c0-.4.07-.76.25-1.09s.41-.63.7-.91c.29-.28.61-.55.97-.81.36-.26.71-.51,1.07-.76.36-.25.72-.51,1.06-.77.34-.26.65-.53.92-.82.27-.28.49-.59.65-.91.16-.32.24-.67.24-1.04s-.07-.7-.2-.98c-.13-.28-.32-.52-.55-.71-.23-.19-.51-.33-.83-.43-.32-.1-.67-.15-1.05-.15-.49,0-.92.08-1.27.22s-.64.36-.86.62c-.22.27-.39.58-.49.95-.1.37-.15.77-.15,1.21h-.28c0-1.04.27-1.85.77-2.42s1.27-.86,2.28-.86c.41,0,.79.05,1.14.16.35.11.66.27.92.48s.47.48.62.79.23.69.23,1.12c0,.52-.14,1-.42,1.42-.28.43-.63.83-1.05,1.2-.42.37-.88.72-1.37,1.05-.49.33-.96.66-1.39.99-.43.33-.8.67-1.11,1.02s-.48.73-.52,1.14h6.11v.28Z"/>
            <path class="uuid-c6f47249-f729-4a2c-86f4-341c0ecdf203" d="m897.89,545.31h.03c.27-.45.63-.77,1.08-.98.45-.2.96-.31,1.51-.31.49,0,.94.08,1.34.24.4.16.74.39,1.03.68.29.29.51.63.67,1.04s.24.84.24,1.32c0,.5-.08.96-.24,1.37s-.38.76-.67,1.05c-.29.29-.63.51-1.03.66-.4.15-.85.23-1.34.23s-.93-.07-1.35-.22c-.41-.14-.77-.35-1.06-.62-.29-.27-.52-.6-.68-1s-.23-.85-.21-1.36h.28c-.02.46.04.88.18,1.24.14.36.34.67.61.92.27.25.59.44.97.57.38.13.8.2,1.25.2s.88-.07,1.25-.22c.37-.14.68-.35.94-.61.26-.27.46-.59.6-.96.14-.38.21-.79.21-1.25s-.07-.84-.22-1.21c-.14-.37-.35-.68-.61-.95-.26-.26-.58-.47-.95-.62-.37-.15-.78-.22-1.23-.22-.56,0-1.07.12-1.55.37-.47.25-.84.61-1.1,1.08h-.35l1.02-4.78h4.87v.28h-4.64l-.87,4.06Z"/>
          </g>
          <g class="uuid-122202a2-8953-41c0-8c31-4f4da76558dd">
            <path class="uuid-0309b43e-b86e-48fc-b7ac-acb90b139c12" d="m896.11,550.46h-6.39c0-.4.07-.76.25-1.09s.41-.63.7-.91c.29-.28.61-.55.97-.81.36-.26.71-.51,1.07-.76.36-.25.72-.51,1.06-.77.34-.26.65-.53.92-.82.27-.28.49-.59.65-.91.16-.32.24-.67.24-1.04s-.07-.7-.2-.98c-.13-.28-.32-.52-.55-.71-.23-.19-.51-.33-.83-.43-.32-.1-.67-.15-1.05-.15-.49,0-.92.08-1.27.22s-.64.36-.86.62c-.22.27-.39.58-.49.95-.1.37-.15.77-.15,1.21h-.28c0-1.04.27-1.85.77-2.42s1.27-.86,2.28-.86c.41,0,.79.05,1.14.16.35.11.66.27.92.48s.47.48.62.79.23.69.23,1.12c0,.52-.14,1-.42,1.42-.28.43-.63.83-1.05,1.2-.42.37-.88.72-1.37,1.05-.49.33-.96.66-1.39.99-.43.33-.8.67-1.11,1.02s-.48.73-.52,1.14h6.11v.28Z"/>
            <path class="uuid-0309b43e-b86e-48fc-b7ac-acb90b139c12" d="m897.89,545.31h.03c.27-.45.63-.77,1.08-.98.45-.2.96-.31,1.51-.31.49,0,.94.08,1.34.24.4.16.74.39,1.03.68.29.29.51.63.67,1.04s.24.84.24,1.32c0,.5-.08.96-.24,1.37s-.38.76-.67,1.05c-.29.29-.63.51-1.03.66-.4.15-.85.23-1.34.23s-.93-.07-1.35-.22c-.41-.14-.77-.35-1.06-.62-.29-.27-.52-.6-.68-1s-.23-.85-.21-1.36h.28c-.02.46.04.88.18,1.24.14.36.34.67.61.92.27.25.59.44.97.57.38.13.8.2,1.25.2s.88-.07,1.25-.22c.37-.14.68-.35.94-.61.26-.27.46-.59.6-.96.14-.38.21-.79.21-1.25s-.07-.84-.22-1.21c-.14-.37-.35-.68-.61-.95-.26-.26-.58-.47-.95-.62-.37-.15-.78-.22-1.23-.22-.56,0-1.07.12-1.55.37-.47.25-.84.61-1.1,1.08h-.35l1.02-4.78h4.87v.28h-4.64l-.87,4.06Z"/>
          </g>
          <g class="uuid-122202a2-8953-41c0-8c31-4f4da76558dd">
            <path class="uuid-c6f47249-f729-4a2c-86f4-341c0ecdf203" d="m896.11,550.46h-6.39c0-.4.07-.76.25-1.09s.41-.63.7-.91c.29-.28.61-.55.97-.81.36-.26.71-.51,1.07-.76.36-.25.72-.51,1.06-.77.34-.26.65-.53.92-.82.27-.28.49-.59.65-.91.16-.32.24-.67.24-1.04s-.07-.7-.2-.98c-.13-.28-.32-.52-.55-.71-.23-.19-.51-.33-.83-.43-.32-.1-.67-.15-1.05-.15-.49,0-.92.08-1.27.22s-.64.36-.86.62c-.22.27-.39.58-.49.95-.1.37-.15.77-.15,1.21h-.28c0-1.04.27-1.85.77-2.42s1.27-.86,2.28-.86c.41,0,.79.05,1.14.16.35.11.66.27.92.48s.47.48.62.79.23.69.23,1.12c0,.52-.14,1-.42,1.42-.28.43-.63.83-1.05,1.2-.42.37-.88.72-1.37,1.05-.49.33-.96.66-1.39.99-.43.33-.8.67-1.11,1.02s-.48.73-.52,1.14h6.11v.28Z"/>
            <path class="uuid-c6f47249-f729-4a2c-86f4-341c0ecdf203" d="m897.89,545.31h.03c.27-.45.63-.77,1.08-.98.45-.2.96-.31,1.51-.31.49,0,.94.08,1.34.24.4.16.74.39,1.03.68.29.29.51.63.67,1.04s.24.84.24,1.32c0,.5-.08.96-.24,1.37s-.38.76-.67,1.05c-.29.29-.63.51-1.03.66-.4.15-.85.23-1.34.23s-.93-.07-1.35-.22c-.41-.14-.77-.35-1.06-.62-.29-.27-.52-.6-.68-1s-.23-.85-.21-1.36h.28c-.02.46.04.88.18,1.24.14.36.34.67.61.92.27.25.59.44.97.57.38.13.8.2,1.25.2s.88-.07,1.25-.22c.37-.14.68-.35.94-.61.26-.27.46-.59.6-.96.14-.38.21-.79.21-1.25s-.07-.84-.22-1.21c-.14-.37-.35-.68-.61-.95-.26-.26-.58-.47-.95-.62-.37-.15-.78-.22-1.23-.22-.56,0-1.07.12-1.55.37-.47.25-.84.61-1.1,1.08h-.35l1.02-4.78h4.87v.28h-4.64l-.87,4.06Z"/>
          </g>
          <g class="uuid-122202a2-8953-41c0-8c31-4f4da76558dd">
            <path class="uuid-c6f47249-f729-4a2c-86f4-341c0ecdf203" d="m967.86,542.55c.15-.39.37-.71.65-.97.28-.26.63-.46,1.03-.58.4-.13.85-.2,1.35-.2.38,0,.75.04,1.1.12s.67.22.95.4c.28.19.5.43.67.73s.25.66.25,1.07c0,.67-.19,1.19-.58,1.56s-.87.59-1.46.64v.03c.28.03.55.1.82.2.27.11.5.26.71.46.21.2.38.45.5.75.12.3.19.65.19,1.06,0,.45-.09.84-.26,1.19-.17.34-.4.63-.7.87-.29.24-.63.42-1.02.54-.39.12-.8.18-1.24.18-.54,0-1.03-.07-1.46-.22-.44-.15-.81-.37-1.12-.65-.31-.28-.54-.63-.69-1.05-.15-.42-.21-.9-.17-1.44h.28c-.04.5.01.95.15,1.33s.35.71.63.97c.28.26.62.46,1.03.59s.86.2,1.35.2c.38,0,.75-.05,1.1-.16.35-.11.67-.27.93-.48s.49-.48.65-.79.24-.67.24-1.08-.07-.76-.2-1.05c-.13-.29-.33-.53-.57-.71-.25-.19-.53-.33-.86-.42-.33-.09-.69-.15-1.08-.17h-.68v-.28h.68c.31,0,.61-.03.91-.1.3-.07.57-.19.82-.35.24-.16.44-.38.59-.64.15-.26.22-.59.22-.98,0-.38-.09-.7-.25-.96-.16-.26-.36-.47-.61-.63-.25-.16-.54-.28-.85-.35-.32-.07-.64-.1-.98-.1-.46,0-.87.06-1.24.17-.37.12-.68.29-.94.53-.26.24-.46.53-.59.89s-.2.77-.19,1.24h-.28c0-.52.06-.97.21-1.36Z"/>
            <path class="uuid-c6f47249-f729-4a2c-86f4-341c0ecdf203" d="m981.88,547.49c-.12.58-.31,1.11-.59,1.58-.28.46-.65.84-1.1,1.12-.46.28-1.03.43-1.72.43s-1.25-.14-1.71-.43c-.46-.28-.83-.66-1.11-1.12-.28-.46-.48-.99-.59-1.58-.12-.59-.17-1.18-.17-1.77s.06-1.19.17-1.77c.12-.58.31-1.11.59-1.58.28-.46.65-.84,1.11-1.13.46-.29,1.03-.43,1.71-.43s1.26.14,1.72.43c.46.29.82.67,1.1,1.13.28.47.48.99.59,1.58.12.59.17,1.18.17,1.77s-.06,1.19-.17,1.77Zm-.26-3.39c-.1-.55-.28-1.05-.53-1.49s-.59-.81-1.01-1.09c-.42-.28-.96-.43-1.61-.43s-1.19.14-1.61.43-.76.65-1.01,1.09c-.25.45-.43.94-.53,1.49-.1.55-.15,1.09-.15,1.62s.05,1.07.15,1.62c.1.55.28,1.05.53,1.49.25.45.59.81,1.01,1.09.42.28.96.43,1.61.43s1.19-.14,1.61-.43c.42-.28.76-.65,1.01-1.09s.43-.94.53-1.49c.1-.55.15-1.09.15-1.62s-.05-1.07-.15-1.62Z"/>
          </g>
          <g class="uuid-122202a2-8953-41c0-8c31-4f4da76558dd">
            <path class="uuid-0309b43e-b86e-48fc-b7ac-acb90b139c12" d="m967.86,542.55c.15-.39.37-.71.65-.97.28-.26.63-.46,1.03-.58.4-.13.85-.2,1.35-.2.38,0,.75.04,1.1.12s.67.22.95.4c.28.19.5.43.67.73s.25.66.25,1.07c0,.67-.19,1.19-.58,1.56s-.87.59-1.46.64v.03c.28.03.55.1.82.2.27.11.5.26.71.46.21.2.38.45.5.75.12.3.19.65.19,1.06,0,.45-.09.84-.26,1.19-.17.34-.4.63-.7.87-.29.24-.63.42-1.02.54-.39.12-.8.18-1.24.18-.54,0-1.03-.07-1.46-.22-.44-.15-.81-.37-1.12-.65-.31-.28-.54-.63-.69-1.05-.15-.42-.21-.9-.17-1.44h.28c-.04.5.01.95.15,1.33s.35.71.63.97c.28.26.62.46,1.03.59s.86.2,1.35.2c.38,0,.75-.05,1.1-.16.35-.11.67-.27.93-.48s.49-.48.65-.79.24-.67.24-1.08-.07-.76-.2-1.05c-.13-.29-.33-.53-.57-.71-.25-.19-.53-.33-.86-.42-.33-.09-.69-.15-1.08-.17h-.68v-.28h.68c.31,0,.61-.03.91-.1.3-.07.57-.19.82-.35.24-.16.44-.38.59-.64.15-.26.22-.59.22-.98,0-.38-.09-.7-.25-.96-.16-.26-.36-.47-.61-.63-.25-.16-.54-.28-.85-.35-.32-.07-.64-.1-.98-.1-.46,0-.87.06-1.24.17-.37.12-.68.29-.94.53-.26.24-.46.53-.59.89s-.2.77-.19,1.24h-.28c0-.52.06-.97.21-1.36Z"/>
            <path class="uuid-0309b43e-b86e-48fc-b7ac-acb90b139c12" d="m981.88,547.49c-.12.58-.31,1.11-.59,1.58-.28.46-.65.84-1.1,1.12-.46.28-1.03.43-1.72.43s-1.25-.14-1.71-.43c-.46-.28-.83-.66-1.11-1.12-.28-.46-.48-.99-.59-1.58-.12-.59-.17-1.18-.17-1.77s.06-1.19.17-1.77c.12-.58.31-1.11.59-1.58.28-.46.65-.84,1.11-1.13.46-.29,1.03-.43,1.71-.43s1.26.14,1.72.43c.46.29.82.67,1.1,1.13.28.47.48.99.59,1.58.12.59.17,1.18.17,1.77s-.06,1.19-.17,1.77Zm-.26-3.39c-.1-.55-.28-1.05-.53-1.49s-.59-.81-1.01-1.09c-.42-.28-.96-.43-1.61-.43s-1.19.14-1.61.43-.76.65-1.01,1.09c-.25.45-.43.94-.53,1.49-.1.55-.15,1.09-.15,1.62s.05,1.07.15,1.62c.1.55.28,1.05.53,1.49.25.45.59.81,1.01,1.09.42.28.96.43,1.61.43s1.19-.14,1.61-.43c.42-.28.76-.65,1.01-1.09s.43-.94.53-1.49c.1-.55.15-1.09.15-1.62s-.05-1.07-.15-1.62Z"/>
          </g>
          <g class="uuid-122202a2-8953-41c0-8c31-4f4da76558dd">
            <path class="uuid-c6f47249-f729-4a2c-86f4-341c0ecdf203" d="m967.86,542.55c.15-.39.37-.71.65-.97.28-.26.63-.46,1.03-.58.4-.13.85-.2,1.35-.2.38,0,.75.04,1.1.12s.67.22.95.4c.28.19.5.43.67.73s.25.66.25,1.07c0,.67-.19,1.19-.58,1.56s-.87.59-1.46.64v.03c.28.03.55.1.82.2.27.11.5.26.71.46.21.2.38.45.5.75.12.3.19.65.19,1.06,0,.45-.09.84-.26,1.19-.17.34-.4.63-.7.87-.29.24-.63.42-1.02.54-.39.12-.8.18-1.24.18-.54,0-1.03-.07-1.46-.22-.44-.15-.81-.37-1.12-.65-.31-.28-.54-.63-.69-1.05-.15-.42-.21-.9-.17-1.44h.28c-.04.5.01.95.15,1.33s.35.71.63.97c.28.26.62.46,1.03.59s.86.2,1.35.2c.38,0,.75-.05,1.1-.16.35-.11.67-.27.93-.48s.49-.48.65-.79.24-.67.24-1.08-.07-.76-.2-1.05c-.13-.29-.33-.53-.57-.71-.25-.19-.53-.33-.86-.42-.33-.09-.69-.15-1.08-.17h-.68v-.28h.68c.31,0,.61-.03.91-.1.3-.07.57-.19.82-.35.24-.16.44-.38.59-.64.15-.26.22-.59.22-.98,0-.38-.09-.7-.25-.96-.16-.26-.36-.47-.61-.63-.25-.16-.54-.28-.85-.35-.32-.07-.64-.1-.98-.1-.46,0-.87.06-1.24.17-.37.12-.68.29-.94.53-.26.24-.46.53-.59.89s-.2.77-.19,1.24h-.28c0-.52.06-.97.21-1.36Z"/>
            <path class="uuid-c6f47249-f729-4a2c-86f4-341c0ecdf203" d="m981.88,547.49c-.12.58-.31,1.11-.59,1.58-.28.46-.65.84-1.1,1.12-.46.28-1.03.43-1.72.43s-1.25-.14-1.71-.43c-.46-.28-.83-.66-1.11-1.12-.28-.46-.48-.99-.59-1.58-.12-.59-.17-1.18-.17-1.77s.06-1.19.17-1.77c.12-.58.31-1.11.59-1.58.28-.46.65-.84,1.11-1.13.46-.29,1.03-.43,1.71-.43s1.26.14,1.72.43c.46.29.82.67,1.1,1.13.28.47.48.99.59,1.58.12.59.17,1.18.17,1.77s-.06,1.19-.17,1.77Zm-.26-3.39c-.1-.55-.28-1.05-.53-1.49s-.59-.81-1.01-1.09c-.42-.28-.96-.43-1.61-.43s-1.19.14-1.61.43-.76.65-1.01,1.09c-.25.45-.43.94-.53,1.49-.1.55-.15,1.09-.15,1.62s.05,1.07.15,1.62c.1.55.28,1.05.53,1.49.25.45.59.81,1.01,1.09.42.28.96.43,1.61.43s1.19-.14,1.61-.43c.42-.28.76-.65,1.01-1.09s.43-.94.53-1.49c.1-.55.15-1.09.15-1.62s-.05-1.07-.15-1.62Z"/>
          </g>
          <g class="uuid-122202a2-8953-41c0-8c31-4f4da76558dd">
            <path class="uuid-c6f47249-f729-4a2c-86f4-341c0ecdf203" d="m484.43,765.11v.28h-6.97v-.28h6.97Z"/>
            <path class="uuid-c6f47249-f729-4a2c-86f4-341c0ecdf203" d="m488.56,759.87c-.29.4-.66.75-1.12,1.04-.46.29-.93.5-1.4.63v-.28c.29-.09.54-.2.77-.31.22-.11.43-.24.63-.38s.38-.3.56-.47.37-.38.56-.6h.31v9.49h-.28v-9.12h-.03Z"/>
            <path class="uuid-c6f47249-f729-4a2c-86f4-341c0ecdf203" d="m493.37,763.84h.03c.27-.45.63-.77,1.08-.98.45-.2.96-.31,1.51-.31.49,0,.94.08,1.34.24.4.16.74.39,1.03.68.29.29.51.63.67,1.04.16.4.24.84.24,1.32,0,.5-.08.96-.24,1.37-.16.41-.38.76-.67,1.05-.29.29-.63.51-1.03.66-.4.15-.85.23-1.34.23s-.93-.07-1.35-.22c-.41-.14-.77-.35-1.06-.62s-.52-.6-.68-1c-.16-.4-.23-.85-.21-1.36h.28c-.02.46.04.88.18,1.24.14.36.34.67.61.92.27.25.59.44.97.57s.8.2,1.26.2.88-.07,1.25-.22c.37-.14.68-.35.94-.61.26-.27.46-.59.6-.96.14-.38.21-.79.21-1.25s-.07-.84-.22-1.21c-.14-.37-.35-.68-.61-.95-.26-.26-.58-.47-.95-.62-.37-.15-.78-.22-1.23-.22-.56,0-1.07.12-1.55.37-.47.25-.84.61-1.1,1.08h-.35l1.02-4.78h4.87v.28h-4.65l-.86,4.06Z"/>
          </g>
          <g class="uuid-122202a2-8953-41c0-8c31-4f4da76558dd">
            <path class="uuid-0309b43e-b86e-48fc-b7ac-acb90b139c12" d="m484.43,765.11v.28h-6.97v-.28h6.97Z"/>
            <path class="uuid-0309b43e-b86e-48fc-b7ac-acb90b139c12" d="m488.56,759.87c-.29.4-.66.75-1.12,1.04-.46.29-.93.5-1.4.63v-.28c.29-.09.54-.2.77-.31.22-.11.43-.24.63-.38s.38-.3.56-.47.37-.38.56-.6h.31v9.49h-.28v-9.12h-.03Z"/>
            <path class="uuid-0309b43e-b86e-48fc-b7ac-acb90b139c12" d="m493.37,763.84h.03c.27-.45.63-.77,1.08-.98.45-.2.96-.31,1.51-.31.49,0,.94.08,1.34.24.4.16.74.39,1.03.68.29.29.51.63.67,1.04.16.4.24.84.24,1.32,0,.5-.08.96-.24,1.37-.16.41-.38.76-.67,1.05-.29.29-.63.51-1.03.66-.4.15-.85.23-1.34.23s-.93-.07-1.35-.22c-.41-.14-.77-.35-1.06-.62s-.52-.6-.68-1c-.16-.4-.23-.85-.21-1.36h.28c-.02.46.04.88.18,1.24.14.36.34.67.61.92.27.25.59.44.97.57s.8.2,1.26.2.88-.07,1.25-.22c.37-.14.68-.35.94-.61.26-.27.46-.59.6-.96.14-.38.21-.79.21-1.25s-.07-.84-.22-1.21c-.14-.37-.35-.68-.61-.95-.26-.26-.58-.47-.95-.62-.37-.15-.78-.22-1.23-.22-.56,0-1.07.12-1.55.37-.47.25-.84.61-1.1,1.08h-.35l1.02-4.78h4.87v.28h-4.65l-.86,4.06Z"/>
          </g>
          <g class="uuid-122202a2-8953-41c0-8c31-4f4da76558dd">
            <path class="uuid-c6f47249-f729-4a2c-86f4-341c0ecdf203" d="m484.43,765.11v.28h-6.97v-.28h6.97Z"/>
            <path class="uuid-c6f47249-f729-4a2c-86f4-341c0ecdf203" d="m488.56,759.87c-.29.4-.66.75-1.12,1.04-.46.29-.93.5-1.4.63v-.28c.29-.09.54-.2.77-.31.22-.11.43-.24.63-.38s.38-.3.56-.47.37-.38.56-.6h.31v9.49h-.28v-9.12h-.03Z"/>
            <path class="uuid-c6f47249-f729-4a2c-86f4-341c0ecdf203" d="m493.37,763.84h.03c.27-.45.63-.77,1.08-.98.45-.2.96-.31,1.51-.31.49,0,.94.08,1.34.24.4.16.74.39,1.03.68.29.29.51.63.67,1.04.16.4.24.84.24,1.32,0,.5-.08.96-.24,1.37-.16.41-.38.76-.67,1.05-.29.29-.63.51-1.03.66-.4.15-.85.23-1.34.23s-.93-.07-1.35-.22c-.41-.14-.77-.35-1.06-.62s-.52-.6-.68-1c-.16-.4-.23-.85-.21-1.36h.28c-.02.46.04.88.18,1.24.14.36.34.67.61.92.27.25.59.44.97.57s.8.2,1.26.2.88-.07,1.25-.22c.37-.14.68-.35.94-.61.26-.27.46-.59.6-.96.14-.38.21-.79.21-1.25s-.07-.84-.22-1.21c-.14-.37-.35-.68-.61-.95-.26-.26-.58-.47-.95-.62-.37-.15-.78-.22-1.23-.22-.56,0-1.07.12-1.55.37-.47.25-.84.61-1.1,1.08h-.35l1.02-4.78h4.87v.28h-4.65l-.86,4.06Z"/>
          </g>
          <g class="uuid-122202a2-8953-41c0-8c31-4f4da76558dd">
            <path class="uuid-c6f47249-f729-4a2c-86f4-341c0ecdf203" d="m484.43,688.39v.28h-6.97v-.28h6.97Z"/>
            <path class="uuid-c6f47249-f729-4a2c-86f4-341c0ecdf203" d="m488.56,683.15c-.29.4-.66.75-1.12,1.04-.46.29-.93.5-1.4.63v-.28c.29-.09.54-.2.77-.31.22-.11.43-.24.63-.38s.38-.3.56-.47.37-.38.56-.6h.31v9.49h-.28v-9.12h-.03Z"/>
            <path class="uuid-c6f47249-f729-4a2c-86f4-341c0ecdf203" d="m499.47,689.3c-.12.58-.31,1.11-.59,1.58-.28.46-.65.84-1.1,1.12-.46.28-1.03.43-1.72.43s-1.25-.14-1.71-.43c-.46-.28-.83-.66-1.11-1.12s-.48-.99-.59-1.58c-.12-.59-.17-1.18-.17-1.77s.06-1.19.17-1.77c.12-.58.31-1.11.59-1.58.28-.46.65-.84,1.11-1.13.46-.29,1.03-.43,1.71-.43s1.26.14,1.72.43c.46.29.82.67,1.1,1.13.28.47.48.99.59,1.58.12.59.17,1.18.17,1.77s-.06,1.19-.17,1.77Zm-.26-3.39c-.1-.55-.28-1.05-.53-1.49-.25-.45-.59-.81-1.01-1.09-.42-.28-.96-.43-1.61-.43s-1.19.14-1.61.43-.76.65-1.01,1.09-.43.94-.53,1.49c-.1.55-.15,1.09-.15,1.62s.05,1.07.15,1.62c.1.55.28,1.05.53,1.49s.59.81,1.01,1.09c.42.28.96.43,1.61.43s1.19-.14,1.61-.43c.42-.28.76-.65,1.01-1.09.25-.45.43-.94.53-1.49.1-.55.15-1.09.15-1.62s-.05-1.07-.15-1.62Z"/>
          </g>
          <g class="uuid-122202a2-8953-41c0-8c31-4f4da76558dd">
            <path class="uuid-0309b43e-b86e-48fc-b7ac-acb90b139c12" d="m484.43,688.39v.28h-6.97v-.28h6.97Z"/>
            <path class="uuid-0309b43e-b86e-48fc-b7ac-acb90b139c12" d="m488.56,683.15c-.29.4-.66.75-1.12,1.04-.46.29-.93.5-1.4.63v-.28c.29-.09.54-.2.77-.31.22-.11.43-.24.63-.38s.38-.3.56-.47.37-.38.56-.6h.31v9.49h-.28v-9.12h-.03Z"/>
            <path class="uuid-0309b43e-b86e-48fc-b7ac-acb90b139c12" d="m499.47,689.3c-.12.58-.31,1.11-.59,1.58-.28.46-.65.84-1.1,1.12-.46.28-1.03.43-1.72.43s-1.25-.14-1.71-.43c-.46-.28-.83-.66-1.11-1.12s-.48-.99-.59-1.58c-.12-.59-.17-1.18-.17-1.77s.06-1.19.17-1.77c.12-.58.31-1.11.59-1.58.28-.46.65-.84,1.11-1.13.46-.29,1.03-.43,1.71-.43s1.26.14,1.72.43c.46.29.82.67,1.1,1.13.28.47.48.99.59,1.58.12.59.17,1.18.17,1.77s-.06,1.19-.17,1.77Zm-.26-3.39c-.1-.55-.28-1.05-.53-1.49-.25-.45-.59-.81-1.01-1.09-.42-.28-.96-.43-1.61-.43s-1.19.14-1.61.43-.76.65-1.01,1.09-.43.94-.53,1.49c-.1.55-.15,1.09-.15,1.62s.05,1.07.15,1.62c.1.55.28,1.05.53,1.49s.59.81,1.01,1.09c.42.28.96.43,1.61.43s1.19-.14,1.61-.43c.42-.28.76-.65,1.01-1.09.25-.45.43-.94.53-1.49.1-.55.15-1.09.15-1.62s-.05-1.07-.15-1.62Z"/>
          </g>
          <g class="uuid-122202a2-8953-41c0-8c31-4f4da76558dd">
            <path class="uuid-c6f47249-f729-4a2c-86f4-341c0ecdf203" d="m484.43,688.39v.28h-6.97v-.28h6.97Z"/>
            <path class="uuid-c6f47249-f729-4a2c-86f4-341c0ecdf203" d="m488.56,683.15c-.29.4-.66.75-1.12,1.04-.46.29-.93.5-1.4.63v-.28c.29-.09.54-.2.77-.31.22-.11.43-.24.63-.38s.38-.3.56-.47.37-.38.56-.6h.31v9.49h-.28v-9.12h-.03Z"/>
            <path class="uuid-c6f47249-f729-4a2c-86f4-341c0ecdf203" d="m499.47,689.3c-.12.58-.31,1.11-.59,1.58-.28.46-.65.84-1.1,1.12-.46.28-1.03.43-1.72.43s-1.25-.14-1.71-.43c-.46-.28-.83-.66-1.11-1.12s-.48-.99-.59-1.58c-.12-.59-.17-1.18-.17-1.77s.06-1.19.17-1.77c.12-.58.31-1.11.59-1.58.28-.46.65-.84,1.11-1.13.46-.29,1.03-.43,1.71-.43s1.26.14,1.72.43c.46.29.82.67,1.1,1.13.28.47.48.99.59,1.58.12.59.17,1.18.17,1.77s-.06,1.19-.17,1.77Zm-.26-3.39c-.1-.55-.28-1.05-.53-1.49-.25-.45-.59-.81-1.01-1.09-.42-.28-.96-.43-1.61-.43s-1.19.14-1.61.43-.76.65-1.01,1.09-.43.94-.53,1.49c-.1.55-.15,1.09-.15,1.62s.05,1.07.15,1.62c.1.55.28,1.05.53,1.49s.59.81,1.01,1.09c.42.28.96.43,1.61.43s1.19-.14,1.61-.43c.42-.28.76-.65,1.01-1.09.25-.45.43-.94.53-1.49.1-.55.15-1.09.15-1.62s-.05-1.07-.15-1.62Z"/>
          </g>
          <g class="uuid-122202a2-8953-41c0-8c31-4f4da76558dd">
            <path class="uuid-c6f47249-f729-4a2c-86f4-341c0ecdf203" d="m492.56,611.68v.28h-6.97v-.28h6.97Z"/>
            <path class="uuid-c6f47249-f729-4a2c-86f4-341c0ecdf203" d="m493.75,610.41h.03c.27-.45.63-.77,1.08-.98.45-.2.96-.31,1.51-.31.49,0,.94.08,1.34.24.4.16.74.39,1.03.68.29.29.51.63.67,1.04.16.4.24.84.24,1.32,0,.5-.08.96-.24,1.37-.16.41-.38.76-.67,1.05-.29.29-.63.51-1.03.66-.4.15-.85.23-1.34.23s-.93-.07-1.35-.22c-.41-.14-.77-.35-1.06-.62s-.52-.6-.68-1c-.16-.4-.23-.85-.21-1.36h.28c-.02.46.04.88.18,1.24.14.36.34.67.61.92.27.25.59.44.97.57s.8.2,1.26.2.88-.07,1.25-.22c.37-.14.68-.35.94-.61.26-.27.46-.59.6-.96.14-.38.21-.79.21-1.25s-.07-.84-.22-1.21c-.14-.37-.35-.68-.61-.95-.26-.26-.58-.47-.95-.62-.37-.15-.78-.22-1.23-.22-.56,0-1.07.12-1.55.37-.47.25-.84.61-1.1,1.08h-.35l1.02-4.78h4.87v.28h-4.65l-.86,4.06Z"/>
          </g>
          <g class="uuid-122202a2-8953-41c0-8c31-4f4da76558dd">
            <path class="uuid-0309b43e-b86e-48fc-b7ac-acb90b139c12" d="m492.56,611.68v.28h-6.97v-.28h6.97Z"/>
            <path class="uuid-0309b43e-b86e-48fc-b7ac-acb90b139c12" d="m493.75,610.41h.03c.27-.45.63-.77,1.08-.98.45-.2.96-.31,1.51-.31.49,0,.94.08,1.34.24.4.16.74.39,1.03.68.29.29.51.63.67,1.04.16.4.24.84.24,1.32,0,.5-.08.96-.24,1.37-.16.41-.38.76-.67,1.05-.29.29-.63.51-1.03.66-.4.15-.85.23-1.34.23s-.93-.07-1.35-.22c-.41-.14-.77-.35-1.06-.62s-.52-.6-.68-1c-.16-.4-.23-.85-.21-1.36h.28c-.02.46.04.88.18,1.24.14.36.34.67.61.92.27.25.59.44.97.57s.8.2,1.26.2.88-.07,1.25-.22c.37-.14.68-.35.94-.61.26-.27.46-.59.6-.96.14-.38.21-.79.21-1.25s-.07-.84-.22-1.21c-.14-.37-.35-.68-.61-.95-.26-.26-.58-.47-.95-.62-.37-.15-.78-.22-1.23-.22-.56,0-1.07.12-1.55.37-.47.25-.84.61-1.1,1.08h-.35l1.02-4.78h4.87v.28h-4.65l-.86,4.06Z"/>
          </g>
          <g class="uuid-122202a2-8953-41c0-8c31-4f4da76558dd">
            <path class="uuid-c6f47249-f729-4a2c-86f4-341c0ecdf203" d="m492.56,611.68v.28h-6.97v-.28h6.97Z"/>
            <path class="uuid-c6f47249-f729-4a2c-86f4-341c0ecdf203" d="m493.75,610.41h.03c.27-.45.63-.77,1.08-.98.45-.2.96-.31,1.51-.31.49,0,.94.08,1.34.24.4.16.74.39,1.03.68.29.29.51.63.67,1.04.16.4.24.84.24,1.32,0,.5-.08.96-.24,1.37-.16.41-.38.76-.67,1.05-.29.29-.63.51-1.03.66-.4.15-.85.23-1.34.23s-.93-.07-1.35-.22c-.41-.14-.77-.35-1.06-.62s-.52-.6-.68-1c-.16-.4-.23-.85-.21-1.36h.28c-.02.46.04.88.18,1.24.14.36.34.67.61.92.27.25.59.44.97.57s.8.2,1.26.2.88-.07,1.25-.22c.37-.14.68-.35.94-.61.26-.27.46-.59.6-.96.14-.38.21-.79.21-1.25s-.07-.84-.22-1.21c-.14-.37-.35-.68-.61-.95-.26-.26-.58-.47-.95-.62-.37-.15-.78-.22-1.23-.22-.56,0-1.07.12-1.55.37-.47.25-.84.61-1.1,1.08h-.35l1.02-4.78h4.87v.28h-4.65l-.86,4.06Z"/>
          </g>
          <g class="uuid-122202a2-8953-41c0-8c31-4f4da76558dd">
            <path class="uuid-c6f47249-f729-4a2c-86f4-341c0ecdf203" d="m493.75,455.8h.03c.27-.45.63-.77,1.08-.98.45-.2.96-.31,1.51-.31.49,0,.94.08,1.34.24.4.16.74.39,1.03.68.29.29.51.63.67,1.04.16.4.24.84.24,1.32,0,.5-.08.96-.24,1.37-.16.41-.38.76-.67,1.05-.29.29-.63.51-1.03.66-.4.15-.85.23-1.34.23s-.93-.07-1.35-.22c-.41-.14-.77-.35-1.06-.62s-.52-.6-.68-1c-.16-.4-.23-.85-.21-1.36h.28c-.02.46.04.88.18,1.24.14.36.34.67.61.92.27.25.59.44.97.57s.8.2,1.26.2.88-.07,1.25-.22c.37-.14.68-.35.94-.61.26-.27.46-.59.6-.96.14-.38.21-.79.21-1.25s-.07-.84-.22-1.21c-.14-.37-.35-.68-.61-.95-.26-.26-.58-.47-.95-.62-.37-.15-.78-.22-1.23-.22-.56,0-1.07.12-1.55.37-.47.25-.84.61-1.1,1.08h-.35l1.02-4.78h4.87v.28h-4.65l-.86,4.06Z"/>
          </g>
          <g class="uuid-122202a2-8953-41c0-8c31-4f4da76558dd">
            <path class="uuid-0309b43e-b86e-48fc-b7ac-acb90b139c12" d="m493.75,455.8h.03c.27-.45.63-.77,1.08-.98.45-.2.96-.31,1.51-.31.49,0,.94.08,1.34.24.4.16.74.39,1.03.68.29.29.51.63.67,1.04.16.4.24.84.24,1.32,0,.5-.08.96-.24,1.37-.16.41-.38.76-.67,1.05-.29.29-.63.51-1.03.66-.4.15-.85.23-1.34.23s-.93-.07-1.35-.22c-.41-.14-.77-.35-1.06-.62s-.52-.6-.68-1c-.16-.4-.23-.85-.21-1.36h.28c-.02.46.04.88.18,1.24.14.36.34.67.61.92.27.25.59.44.97.57s.8.2,1.26.2.88-.07,1.25-.22c.37-.14.68-.35.94-.61.26-.27.46-.59.6-.96.14-.38.21-.79.21-1.25s-.07-.84-.22-1.21c-.14-.37-.35-.68-.61-.95-.26-.26-.58-.47-.95-.62-.37-.15-.78-.22-1.23-.22-.56,0-1.07.12-1.55.37-.47.25-.84.61-1.1,1.08h-.35l1.02-4.78h4.87v.28h-4.65l-.86,4.06Z"/>
          </g>
          <g class="uuid-122202a2-8953-41c0-8c31-4f4da76558dd">
            <path class="uuid-c6f47249-f729-4a2c-86f4-341c0ecdf203" d="m493.75,455.8h.03c.27-.45.63-.77,1.08-.98.45-.2.96-.31,1.51-.31.49,0,.94.08,1.34.24.4.16.74.39,1.03.68.29.29.51.63.67,1.04.16.4.24.84.24,1.32,0,.5-.08.96-.24,1.37-.16.41-.38.76-.67,1.05-.29.29-.63.51-1.03.66-.4.15-.85.23-1.34.23s-.93-.07-1.35-.22c-.41-.14-.77-.35-1.06-.62s-.52-.6-.68-1c-.16-.4-.23-.85-.21-1.36h.28c-.02.46.04.88.18,1.24.14.36.34.67.61.92.27.25.59.44.97.57s.8.2,1.26.2.88-.07,1.25-.22c.37-.14.68-.35.94-.61.26-.27.46-.59.6-.96.14-.38.21-.79.21-1.25s-.07-.84-.22-1.21c-.14-.37-.35-.68-.61-.95-.26-.26-.58-.47-.95-.62-.37-.15-.78-.22-1.23-.22-.56,0-1.07.12-1.55.37-.47.25-.84.61-1.1,1.08h-.35l1.02-4.78h4.87v.28h-4.65l-.86,4.06Z"/>
          </g>
          <g class="uuid-122202a2-8953-41c0-8c31-4f4da76558dd">
            <path class="uuid-c6f47249-f729-4a2c-86f4-341c0ecdf203" d="m489.72,375.11c-.29.4-.66.75-1.12,1.04-.46.29-.93.5-1.4.63v-.28c.29-.09.54-.19.77-.31.22-.11.43-.24.63-.38.2-.14.38-.3.56-.47.18-.18.37-.38.56-.6h.31v9.49h-.28v-9.12h-.03Z"/>
            <path class="uuid-c6f47249-f729-4a2c-86f4-341c0ecdf203" d="m500.63,381.26c-.12.59-.31,1.11-.59,1.58-.28.47-.65.84-1.1,1.12-.46.28-1.03.43-1.72.43s-1.25-.14-1.71-.43c-.46-.28-.83-.66-1.11-1.12-.28-.46-.48-.99-.59-1.58s-.17-1.18-.17-1.77.06-1.19.17-1.77.31-1.11.59-1.58.65-.84,1.11-1.13c.46-.29,1.03-.43,1.71-.43s1.26.14,1.72.43c.46.29.82.67,1.1,1.13.28.46.48.99.59,1.58.12.59.17,1.18.17,1.77s-.06,1.19-.17,1.77Zm-.26-3.39c-.1-.55-.28-1.05-.53-1.49-.25-.45-.59-.81-1.01-1.09-.42-.28-.96-.43-1.61-.43s-1.19.14-1.61.43-.76.65-1.01,1.09c-.25.45-.43.94-.53,1.49-.1.55-.15,1.09-.15,1.62s.05,1.07.15,1.62c.1.55.28,1.05.53,1.49.25.45.59.81,1.01,1.09s.96.43,1.61.43,1.19-.14,1.61-.43c.42-.28.76-.65,1.01-1.09.25-.45.43-.94.53-1.49.1-.55.15-1.09.15-1.62s-.05-1.07-.15-1.62Z"/>
          </g>
          <g class="uuid-122202a2-8953-41c0-8c31-4f4da76558dd">
            <path class="uuid-0309b43e-b86e-48fc-b7ac-acb90b139c12" d="m489.72,375.11c-.29.4-.66.75-1.12,1.04-.46.29-.93.5-1.4.63v-.28c.29-.09.54-.19.77-.31.22-.11.43-.24.63-.38.2-.14.38-.3.56-.47.18-.18.37-.38.56-.6h.31v9.49h-.28v-9.12h-.03Z"/>
            <path class="uuid-0309b43e-b86e-48fc-b7ac-acb90b139c12" d="m500.63,381.26c-.12.59-.31,1.11-.59,1.58-.28.47-.65.84-1.1,1.12-.46.28-1.03.43-1.72.43s-1.25-.14-1.71-.43c-.46-.28-.83-.66-1.11-1.12-.28-.46-.48-.99-.59-1.58s-.17-1.18-.17-1.77.06-1.19.17-1.77.31-1.11.59-1.58.65-.84,1.11-1.13c.46-.29,1.03-.43,1.71-.43s1.26.14,1.72.43c.46.29.82.67,1.1,1.13.28.46.48.99.59,1.58.12.59.17,1.18.17,1.77s-.06,1.19-.17,1.77Zm-.26-3.39c-.1-.55-.28-1.05-.53-1.49-.25-.45-.59-.81-1.01-1.09-.42-.28-.96-.43-1.61-.43s-1.19.14-1.61.43-.76.65-1.01,1.09c-.25.45-.43.94-.53,1.49-.1.55-.15,1.09-.15,1.62s.05,1.07.15,1.62c.1.55.28,1.05.53,1.49.25.45.59.81,1.01,1.09s.96.43,1.61.43,1.19-.14,1.61-.43c.42-.28.76-.65,1.01-1.09.25-.45.43-.94.53-1.49.1-.55.15-1.09.15-1.62s-.05-1.07-.15-1.62Z"/>
          </g>
          <g class="uuid-122202a2-8953-41c0-8c31-4f4da76558dd">
            <path class="uuid-c6f47249-f729-4a2c-86f4-341c0ecdf203" d="m489.72,375.11c-.29.4-.66.75-1.12,1.04-.46.29-.93.5-1.4.63v-.28c.29-.09.54-.19.77-.31.22-.11.43-.24.63-.38.2-.14.38-.3.56-.47.18-.18.37-.38.56-.6h.31v9.49h-.28v-9.12h-.03Z"/>
            <path class="uuid-c6f47249-f729-4a2c-86f4-341c0ecdf203" d="m500.63,381.26c-.12.59-.31,1.11-.59,1.58-.28.47-.65.84-1.1,1.12-.46.28-1.03.43-1.72.43s-1.25-.14-1.71-.43c-.46-.28-.83-.66-1.11-1.12-.28-.46-.48-.99-.59-1.58s-.17-1.18-.17-1.77.06-1.19.17-1.77.31-1.11.59-1.58.65-.84,1.11-1.13c.46-.29,1.03-.43,1.71-.43s1.26.14,1.72.43c.46.29.82.67,1.1,1.13.28.46.48.99.59,1.58.12.59.17,1.18.17,1.77s-.06,1.19-.17,1.77Zm-.26-3.39c-.1-.55-.28-1.05-.53-1.49-.25-.45-.59-.81-1.01-1.09-.42-.28-.96-.43-1.61-.43s-1.19.14-1.61.43-.76.65-1.01,1.09c-.25.45-.43.94-.53,1.49-.1.55-.15,1.09-.15,1.62s.05,1.07.15,1.62c.1.55.28,1.05.53,1.49.25.45.59.81,1.01,1.09s.96.43,1.61.43,1.19-.14,1.61-.43c.42-.28.76-.65,1.01-1.09.25-.45.43-.94.53-1.49.1-.55.15-1.09.15-1.62s-.05-1.07-.15-1.62Z"/>
          </g>
          <g class="uuid-122202a2-8953-41c0-8c31-4f4da76558dd">
            <path class="uuid-c6f47249-f729-4a2c-86f4-341c0ecdf203" d="m489.72,297.23c-.29.4-.66.75-1.12,1.04-.46.29-.93.5-1.4.63v-.28c.29-.09.54-.19.77-.31.22-.11.43-.24.63-.38.2-.14.38-.3.56-.47.18-.18.37-.38.56-.6h.31v9.49h-.28v-9.12h-.03Z"/>
            <path class="uuid-c6f47249-f729-4a2c-86f4-341c0ecdf203" d="m494.53,301.2h.03c.27-.45.63-.77,1.08-.98s.96-.31,1.51-.31c.49,0,.94.08,1.34.24.4.16.74.39,1.03.68.29.29.51.63.67,1.04.16.4.24.84.24,1.32,0,.5-.08.96-.24,1.37-.16.41-.38.76-.67,1.05-.29.29-.63.51-1.03.66s-.85.23-1.34.23-.93-.07-1.35-.22-.77-.35-1.06-.62c-.29-.27-.52-.6-.68-1-.16-.4-.23-.85-.21-1.36h.28c-.02.47.04.88.18,1.24.14.36.34.67.61.92.27.25.59.44.97.57.38.13.8.19,1.26.19s.88-.07,1.25-.22c.37-.14.68-.35.94-.61.26-.27.46-.59.6-.96.14-.38.21-.79.21-1.25s-.07-.84-.22-1.21c-.14-.37-.35-.68-.61-.95-.26-.27-.58-.47-.95-.62-.37-.15-.78-.22-1.23-.22-.56,0-1.07.12-1.55.37s-.84.61-1.1,1.08h-.35l1.02-4.78h4.87v.28h-4.65l-.86,4.06Z"/>
          </g>
          <g class="uuid-122202a2-8953-41c0-8c31-4f4da76558dd">
            <path class="uuid-0309b43e-b86e-48fc-b7ac-acb90b139c12" d="m489.72,297.23c-.29.4-.66.75-1.12,1.04-.46.29-.93.5-1.4.63v-.28c.29-.09.54-.19.77-.31.22-.11.43-.24.63-.38.2-.14.38-.3.56-.47.18-.18.37-.38.56-.6h.31v9.49h-.28v-9.12h-.03Z"/>
            <path class="uuid-0309b43e-b86e-48fc-b7ac-acb90b139c12" d="m494.53,301.2h.03c.27-.45.63-.77,1.08-.98s.96-.31,1.51-.31c.49,0,.94.08,1.34.24.4.16.74.39,1.03.68.29.29.51.63.67,1.04.16.4.24.84.24,1.32,0,.5-.08.96-.24,1.37-.16.41-.38.76-.67,1.05-.29.29-.63.51-1.03.66s-.85.23-1.34.23-.93-.07-1.35-.22-.77-.35-1.06-.62c-.29-.27-.52-.6-.68-1-.16-.4-.23-.85-.21-1.36h.28c-.02.47.04.88.18,1.24.14.36.34.67.61.92.27.25.59.44.97.57.38.13.8.19,1.26.19s.88-.07,1.25-.22c.37-.14.68-.35.94-.61.26-.27.46-.59.6-.96.14-.38.21-.79.21-1.25s-.07-.84-.22-1.21c-.14-.37-.35-.68-.61-.95-.26-.27-.58-.47-.95-.62-.37-.15-.78-.22-1.23-.22-.56,0-1.07.12-1.55.37s-.84.61-1.1,1.08h-.35l1.02-4.78h4.87v.28h-4.65l-.86,4.06Z"/>
          </g>
          <g class="uuid-122202a2-8953-41c0-8c31-4f4da76558dd">
            <path class="uuid-c6f47249-f729-4a2c-86f4-341c0ecdf203" d="m489.72,297.23c-.29.4-.66.75-1.12,1.04-.46.29-.93.5-1.4.63v-.28c.29-.09.54-.19.77-.31.22-.11.43-.24.63-.38.2-.14.38-.3.56-.47.18-.18.37-.38.56-.6h.31v9.49h-.28v-9.12h-.03Z"/>
            <path class="uuid-c6f47249-f729-4a2c-86f4-341c0ecdf203" d="m494.53,301.2h.03c.27-.45.63-.77,1.08-.98s.96-.31,1.51-.31c.49,0,.94.08,1.34.24.4.16.74.39,1.03.68.29.29.51.63.67,1.04.16.4.24.84.24,1.32,0,.5-.08.96-.24,1.37-.16.41-.38.76-.67,1.05-.29.29-.63.51-1.03.66s-.85.23-1.34.23-.93-.07-1.35-.22-.77-.35-1.06-.62c-.29-.27-.52-.6-.68-1-.16-.4-.23-.85-.21-1.36h.28c-.02.47.04.88.18,1.24.14.36.34.67.61.92.27.25.59.44.97.57.38.13.8.19,1.26.19s.88-.07,1.25-.22c.37-.14.68-.35.94-.61.26-.27.46-.59.6-.96.14-.38.21-.79.21-1.25s-.07-.84-.22-1.21c-.14-.37-.35-.68-.61-.95-.26-.27-.58-.47-.95-.62-.37-.15-.78-.22-1.23-.22-.56,0-1.07.12-1.55.37s-.84.61-1.1,1.08h-.35l1.02-4.78h4.87v.28h-4.65l-.86,4.06Z"/>
          </g>
          <g class="uuid-122202a2-8953-41c0-8c31-4f4da76558dd">
            <path class="uuid-c6f47249-f729-4a2c-86f4-341c0ecdf203" d="m492.75,229.63h-6.39c0-.4.07-.76.25-1.09s.41-.63.7-.91c.29-.28.61-.55.97-.81s.71-.51,1.07-.76c.36-.25.72-.51,1.06-.77.34-.26.65-.53.92-.82.27-.28.49-.59.65-.91.16-.32.24-.67.24-1.04s-.07-.7-.2-.98-.32-.52-.55-.71c-.23-.19-.51-.33-.83-.43s-.67-.15-1.05-.15c-.49,0-.92.07-1.27.22-.35.15-.64.36-.86.62-.22.27-.39.58-.49.95-.1.37-.15.77-.15,1.21h-.28c0-1.04.27-1.85.77-2.42.51-.57,1.27-.86,2.28-.86.41,0,.79.05,1.14.16.35.11.66.27.92.48.26.21.47.48.62.8.15.32.23.69.23,1.12,0,.52-.14,1-.42,1.42s-.63.83-1.05,1.2-.88.72-1.37,1.05-.96.66-1.39.99c-.43.33-.8.67-1.11,1.02-.31.35-.48.73-.52,1.14h6.11v.28Z"/>
            <path class="uuid-c6f47249-f729-4a2c-86f4-341c0ecdf203" d="m500.63,226.66c-.12.59-.31,1.11-.59,1.58-.28.47-.65.84-1.1,1.12-.46.28-1.03.43-1.72.43s-1.25-.14-1.71-.43c-.46-.28-.83-.66-1.11-1.12-.28-.46-.48-.99-.59-1.58s-.17-1.18-.17-1.77.06-1.19.17-1.77.31-1.11.59-1.58.65-.84,1.11-1.13c.46-.29,1.03-.43,1.71-.43s1.26.14,1.72.43c.46.29.82.67,1.1,1.13.28.46.48.99.59,1.58.12.59.17,1.18.17,1.77s-.06,1.19-.17,1.77Zm-.26-3.39c-.1-.55-.28-1.05-.53-1.49-.25-.45-.59-.81-1.01-1.09-.42-.28-.96-.43-1.61-.43s-1.19.14-1.61.43-.76.65-1.01,1.09c-.25.45-.43.94-.53,1.49-.1.55-.15,1.09-.15,1.62s.05,1.07.15,1.62c.1.55.28,1.05.53,1.49.25.45.59.81,1.01,1.09s.96.43,1.61.43,1.19-.14,1.61-.43c.42-.28.76-.65,1.01-1.09.25-.45.43-.94.53-1.49.1-.55.15-1.09.15-1.62s-.05-1.07-.15-1.62Z"/>
          </g>
          <g class="uuid-122202a2-8953-41c0-8c31-4f4da76558dd">
            <path class="uuid-0309b43e-b86e-48fc-b7ac-acb90b139c12" d="m492.75,229.63h-6.39c0-.4.07-.76.25-1.09s.41-.63.7-.91c.29-.28.61-.55.97-.81s.71-.51,1.07-.76c.36-.25.72-.51,1.06-.77.34-.26.65-.53.92-.82.27-.28.49-.59.65-.91.16-.32.24-.67.24-1.04s-.07-.7-.2-.98-.32-.52-.55-.71c-.23-.19-.51-.33-.83-.43s-.67-.15-1.05-.15c-.49,0-.92.07-1.27.22-.35.15-.64.36-.86.62-.22.27-.39.58-.49.95-.1.37-.15.77-.15,1.21h-.28c0-1.04.27-1.85.77-2.42.51-.57,1.27-.86,2.28-.86.41,0,.79.05,1.14.16.35.11.66.27.92.48.26.21.47.48.62.8.15.32.23.69.23,1.12,0,.52-.14,1-.42,1.42s-.63.83-1.05,1.2-.88.72-1.37,1.05-.96.66-1.39.99c-.43.33-.8.67-1.11,1.02-.31.35-.48.73-.52,1.14h6.11v.28Z"/>
            <path class="uuid-0309b43e-b86e-48fc-b7ac-acb90b139c12" d="m500.63,226.66c-.12.59-.31,1.11-.59,1.58-.28.47-.65.84-1.1,1.12-.46.28-1.03.43-1.72.43s-1.25-.14-1.71-.43c-.46-.28-.83-.66-1.11-1.12-.28-.46-.48-.99-.59-1.58s-.17-1.18-.17-1.77.06-1.19.17-1.77.31-1.11.59-1.58.65-.84,1.11-1.13c.46-.29,1.03-.43,1.71-.43s1.26.14,1.72.43c.46.29.82.67,1.1,1.13.28.46.48.99.59,1.58.12.59.17,1.18.17,1.77s-.06,1.19-.17,1.77Zm-.26-3.39c-.1-.55-.28-1.05-.53-1.49-.25-.45-.59-.81-1.01-1.09-.42-.28-.96-.43-1.61-.43s-1.19.14-1.61.43-.76.65-1.01,1.09c-.25.45-.43.94-.53,1.49-.1.55-.15,1.09-.15,1.62s.05,1.07.15,1.62c.1.55.28,1.05.53,1.49.25.45.59.81,1.01,1.09s.96.43,1.61.43,1.19-.14,1.61-.43c.42-.28.76-.65,1.01-1.09.25-.45.43-.94.53-1.49.1-.55.15-1.09.15-1.62s-.05-1.07-.15-1.62Z"/>
          </g>
          <g class="uuid-122202a2-8953-41c0-8c31-4f4da76558dd">
            <path class="uuid-c6f47249-f729-4a2c-86f4-341c0ecdf203" d="m492.75,229.63h-6.39c0-.4.07-.76.25-1.09s.41-.63.7-.91c.29-.28.61-.55.97-.81s.71-.51,1.07-.76c.36-.25.72-.51,1.06-.77.34-.26.65-.53.92-.82.27-.28.49-.59.65-.91.16-.32.24-.67.24-1.04s-.07-.7-.2-.98-.32-.52-.55-.71c-.23-.19-.51-.33-.83-.43s-.67-.15-1.05-.15c-.49,0-.92.07-1.27.22-.35.15-.64.36-.86.62-.22.27-.39.58-.49.95-.1.37-.15.77-.15,1.21h-.28c0-1.04.27-1.85.77-2.42.51-.57,1.27-.86,2.28-.86.41,0,.79.05,1.14.16.35.11.66.27.92.48.26.21.47.48.62.8.15.32.23.69.23,1.12,0,.52-.14,1-.42,1.42s-.63.83-1.05,1.2-.88.72-1.37,1.05-.96.66-1.39.99c-.43.33-.8.67-1.11,1.02-.31.35-.48.73-.52,1.14h6.11v.28Z"/>
            <path class="uuid-c6f47249-f729-4a2c-86f4-341c0ecdf203" d="m500.63,226.66c-.12.59-.31,1.11-.59,1.58-.28.47-.65.84-1.1,1.12-.46.28-1.03.43-1.72.43s-1.25-.14-1.71-.43c-.46-.28-.83-.66-1.11-1.12-.28-.46-.48-.99-.59-1.58s-.17-1.18-.17-1.77.06-1.19.17-1.77.31-1.11.59-1.58.65-.84,1.11-1.13c.46-.29,1.03-.43,1.71-.43s1.26.14,1.72.43c.46.29.82.67,1.1,1.13.28.46.48.99.59,1.58.12.59.17,1.18.17,1.77s-.06,1.19-.17,1.77Zm-.26-3.39c-.1-.55-.28-1.05-.53-1.49-.25-.45-.59-.81-1.01-1.09-.42-.28-.96-.43-1.61-.43s-1.19.14-1.61.43-.76.65-1.01,1.09c-.25.45-.43.94-.53,1.49-.1.55-.15,1.09-.15,1.62s.05,1.07.15,1.62c.1.55.28,1.05.53,1.49.25.45.59.81,1.01,1.09s.96.43,1.61.43,1.19-.14,1.61-.43c.42-.28.76-.65,1.01-1.09.25-.45.43-.94.53-1.49.1-.55.15-1.09.15-1.62s-.05-1.07-.15-1.62Z"/>
          </g>
          <g class="uuid-122202a2-8953-41c0-8c31-4f4da76558dd">
            <path class="uuid-c6f47249-f729-4a2c-86f4-341c0ecdf203" d="m492.75,152.91h-6.39c0-.4.07-.76.25-1.09s.41-.63.7-.91c.29-.28.61-.55.97-.81s.71-.51,1.07-.76c.36-.25.72-.51,1.06-.77.34-.26.65-.53.92-.82.27-.28.49-.59.65-.91.16-.32.24-.67.24-1.04s-.07-.7-.2-.98-.32-.52-.55-.71c-.23-.19-.51-.33-.83-.43s-.67-.15-1.05-.15c-.49,0-.92.07-1.27.22-.35.15-.64.36-.86.62-.22.27-.39.58-.49.95-.1.37-.15.77-.15,1.21h-.28c0-1.04.27-1.85.77-2.42.51-.57,1.27-.86,2.28-.86.41,0,.79.05,1.14.16.35.11.66.27.92.48.26.21.47.48.62.8.15.32.23.69.23,1.12,0,.52-.14,1-.42,1.42s-.63.83-1.05,1.2-.88.72-1.37,1.05-.96.66-1.39.99c-.43.33-.8.67-1.11,1.02-.31.35-.48.73-.52,1.14h6.11v.28Z"/>
            <path class="uuid-c6f47249-f729-4a2c-86f4-341c0ecdf203" d="m494.53,147.76h.03c.27-.45.63-.77,1.08-.98s.96-.31,1.51-.31c.49,0,.94.08,1.34.24.4.16.74.39,1.03.68.29.29.51.63.67,1.04.16.4.24.84.24,1.32,0,.5-.08.96-.24,1.37-.16.41-.38.76-.67,1.05-.29.29-.63.51-1.03.66s-.85.23-1.34.23-.93-.07-1.35-.22-.77-.35-1.06-.62c-.29-.27-.52-.6-.68-1-.16-.4-.23-.85-.21-1.36h.28c-.02.47.04.88.18,1.24.14.36.34.67.61.92.27.25.59.44.97.57.38.13.8.19,1.26.19s.88-.07,1.25-.22c.37-.14.68-.35.94-.61.26-.27.46-.59.6-.96.14-.38.21-.79.21-1.25s-.07-.84-.22-1.21c-.14-.37-.35-.68-.61-.95-.26-.27-.58-.47-.95-.62-.37-.15-.78-.22-1.23-.22-.56,0-1.07.12-1.55.37s-.84.61-1.1,1.08h-.35l1.02-4.78h4.87v.28h-4.65l-.86,4.06Z"/>
          </g>
          <g class="uuid-122202a2-8953-41c0-8c31-4f4da76558dd">
            <path class="uuid-0309b43e-b86e-48fc-b7ac-acb90b139c12" d="m492.75,152.91h-6.39c0-.4.07-.76.25-1.09s.41-.63.7-.91c.29-.28.61-.55.97-.81s.71-.51,1.07-.76c.36-.25.72-.51,1.06-.77.34-.26.65-.53.92-.82.27-.28.49-.59.65-.91.16-.32.24-.67.24-1.04s-.07-.7-.2-.98-.32-.52-.55-.71c-.23-.19-.51-.33-.83-.43s-.67-.15-1.05-.15c-.49,0-.92.07-1.27.22-.35.15-.64.36-.86.62-.22.27-.39.58-.49.95-.1.37-.15.77-.15,1.21h-.28c0-1.04.27-1.85.77-2.42.51-.57,1.27-.86,2.28-.86.41,0,.79.05,1.14.16.35.11.66.27.92.48.26.21.47.48.62.8.15.32.23.69.23,1.12,0,.52-.14,1-.42,1.42s-.63.83-1.05,1.2-.88.72-1.37,1.05-.96.66-1.39.99c-.43.33-.8.67-1.11,1.02-.31.35-.48.73-.52,1.14h6.11v.28Z"/>
            <path class="uuid-0309b43e-b86e-48fc-b7ac-acb90b139c12" d="m494.53,147.76h.03c.27-.45.63-.77,1.08-.98s.96-.31,1.51-.31c.49,0,.94.08,1.34.24.4.16.74.39,1.03.68.29.29.51.63.67,1.04.16.4.24.84.24,1.32,0,.5-.08.96-.24,1.37-.16.41-.38.76-.67,1.05-.29.29-.63.51-1.03.66s-.85.23-1.34.23-.93-.07-1.35-.22-.77-.35-1.06-.62c-.29-.27-.52-.6-.68-1-.16-.4-.23-.85-.21-1.36h.28c-.02.47.04.88.18,1.24.14.36.34.67.61.92.27.25.59.44.97.57.38.13.8.19,1.26.19s.88-.07,1.25-.22c.37-.14.68-.35.94-.61.26-.27.46-.59.6-.96.14-.38.21-.79.21-1.25s-.07-.84-.22-1.21c-.14-.37-.35-.68-.61-.95-.26-.27-.58-.47-.95-.62-.37-.15-.78-.22-1.23-.22-.56,0-1.07.12-1.55.37s-.84.61-1.1,1.08h-.35l1.02-4.78h4.87v.28h-4.65l-.86,4.06Z"/>
          </g>
          <g class="uuid-122202a2-8953-41c0-8c31-4f4da76558dd">
            <path class="uuid-c6f47249-f729-4a2c-86f4-341c0ecdf203" d="m492.75,152.91h-6.39c0-.4.07-.76.25-1.09s.41-.63.7-.91c.29-.28.61-.55.97-.81s.71-.51,1.07-.76c.36-.25.72-.51,1.06-.77.34-.26.65-.53.92-.82.27-.28.49-.59.65-.91.16-.32.24-.67.24-1.04s-.07-.7-.2-.98-.32-.52-.55-.71c-.23-.19-.51-.33-.83-.43s-.67-.15-1.05-.15c-.49,0-.92.07-1.27.22-.35.15-.64.36-.86.62-.22.27-.39.58-.49.95-.1.37-.15.77-.15,1.21h-.28c0-1.04.27-1.85.77-2.42.51-.57,1.27-.86,2.28-.86.41,0,.79.05,1.14.16.35.11.66.27.92.48.26.21.47.48.62.8.15.32.23.69.23,1.12,0,.52-.14,1-.42,1.42s-.63.83-1.05,1.2-.88.72-1.37,1.05-.96.66-1.39.99c-.43.33-.8.67-1.11,1.02-.31.35-.48.73-.52,1.14h6.11v.28Z"/>
            <path class="uuid-c6f47249-f729-4a2c-86f4-341c0ecdf203" d="m494.53,147.76h.03c.27-.45.63-.77,1.08-.98s.96-.31,1.51-.31c.49,0,.94.08,1.34.24.4.16.74.39,1.03.68.29.29.51.63.67,1.04.16.4.24.84.24,1.32,0,.5-.08.96-.24,1.37-.16.41-.38.76-.67,1.05-.29.29-.63.51-1.03.66s-.85.23-1.34.23-.93-.07-1.35-.22-.77-.35-1.06-.62c-.29-.27-.52-.6-.68-1-.16-.4-.23-.85-.21-1.36h.28c-.02.47.04.88.18,1.24.14.36.34.67.61.92.27.25.59.44.97.57.38.13.8.19,1.26.19s.88-.07,1.25-.22c.37-.14.68-.35.94-.61.26-.27.46-.59.6-.96.14-.38.21-.79.21-1.25s-.07-.84-.22-1.21c-.14-.37-.35-.68-.61-.95-.26-.27-.58-.47-.95-.62-.37-.15-.78-.22-1.23-.22-.56,0-1.07.12-1.55.37s-.84.61-1.1,1.08h-.35l1.02-4.78h4.87v.28h-4.65l-.86,4.06Z"/>
          </g>
          <g class="uuid-122202a2-8953-41c0-8c31-4f4da76558dd">
            <path class="uuid-c6f47249-f729-4a2c-86f4-341c0ecdf203" d="m486.62,67.12c.15-.39.36-.71.65-.97s.63-.46,1.03-.59c.4-.13.85-.2,1.35-.2.38,0,.75.04,1.1.13.35.08.67.22.95.4.28.19.5.43.67.73.17.3.25.66.25,1.07,0,.67-.19,1.19-.58,1.56-.39.37-.87.59-1.46.64v.03c.28.03.55.1.82.2.27.11.5.26.71.46.21.2.38.45.5.75.13.3.19.65.19,1.06,0,.45-.09.84-.26,1.19-.17.34-.4.63-.7.87s-.63.42-1.02.54-.8.18-1.23.18c-.54,0-1.03-.07-1.46-.22-.44-.15-.81-.36-1.12-.65-.31-.28-.54-.63-.69-1.05s-.21-.9-.17-1.44h.28c-.04.5.01.95.15,1.33.14.39.35.71.63.97.28.26.62.46,1.03.59.41.14.86.2,1.35.2.38,0,.75-.05,1.1-.16.35-.11.66-.27.93-.48.27-.21.49-.48.65-.79.16-.31.24-.67.24-1.08s-.07-.76-.2-1.05-.33-.53-.57-.71c-.25-.19-.54-.33-.87-.42s-.69-.15-1.08-.17h-.68v-.28h.68c.31,0,.61-.04.91-.1.3-.07.57-.19.82-.35.24-.16.44-.38.59-.64.15-.27.22-.59.22-.98,0-.38-.09-.7-.25-.96-.16-.26-.36-.47-.61-.63-.25-.16-.54-.28-.85-.35-.32-.07-.64-.1-.98-.1-.46,0-.87.06-1.23.17-.37.12-.68.29-.94.53-.26.24-.46.53-.59.89-.14.35-.2.77-.19,1.24h-.28c0-.52.06-.97.21-1.36Z"/>
            <path class="uuid-c6f47249-f729-4a2c-86f4-341c0ecdf203" d="m500.63,72.05c-.12.59-.31,1.11-.59,1.58-.28.47-.65.84-1.1,1.12-.46.28-1.03.43-1.72.43s-1.25-.14-1.71-.43c-.46-.28-.83-.66-1.11-1.12-.28-.46-.48-.99-.59-1.58s-.17-1.18-.17-1.77.06-1.19.17-1.77.31-1.11.59-1.58.65-.84,1.11-1.13c.46-.29,1.03-.43,1.71-.43s1.26.14,1.72.43c.46.29.82.67,1.1,1.13.28.46.48.99.59,1.58.12.59.17,1.18.17,1.77s-.06,1.19-.17,1.77Zm-.26-3.39c-.1-.55-.28-1.05-.53-1.49-.25-.45-.59-.81-1.01-1.09-.42-.28-.96-.43-1.61-.43s-1.19.14-1.61.43-.76.65-1.01,1.09c-.25.45-.43.94-.53,1.49-.1.55-.15,1.09-.15,1.62s.05,1.07.15,1.62c.1.55.28,1.05.53,1.49.25.45.59.81,1.01,1.09s.96.43,1.61.43,1.19-.14,1.61-.43c.42-.28.76-.65,1.01-1.09.25-.45.43-.94.53-1.49.1-.55.15-1.09.15-1.62s-.05-1.07-.15-1.62Z"/>
          </g>
          <g class="uuid-122202a2-8953-41c0-8c31-4f4da76558dd">
            <path class="uuid-0309b43e-b86e-48fc-b7ac-acb90b139c12" d="m486.62,67.12c.15-.39.36-.71.65-.97s.63-.46,1.03-.59c.4-.13.85-.2,1.35-.2.38,0,.75.04,1.1.13.35.08.67.22.95.4.28.19.5.43.67.73.17.3.25.66.25,1.07,0,.67-.19,1.19-.58,1.56-.39.37-.87.59-1.46.64v.03c.28.03.55.1.82.2.27.11.5.26.71.46.21.2.38.45.5.75.13.3.19.65.19,1.06,0,.45-.09.84-.26,1.19-.17.34-.4.63-.7.87s-.63.42-1.02.54-.8.18-1.23.18c-.54,0-1.03-.07-1.46-.22-.44-.15-.81-.36-1.12-.65-.31-.28-.54-.63-.69-1.05s-.21-.9-.17-1.44h.28c-.04.5.01.95.15,1.33.14.39.35.71.63.97.28.26.62.46,1.03.59.41.14.86.2,1.35.2.38,0,.75-.05,1.1-.16.35-.11.66-.27.93-.48.27-.21.49-.48.65-.79.16-.31.24-.67.24-1.08s-.07-.76-.2-1.05-.33-.53-.57-.71c-.25-.19-.54-.33-.87-.42s-.69-.15-1.08-.17h-.68v-.28h.68c.31,0,.61-.04.91-.1.3-.07.57-.19.82-.35.24-.16.44-.38.59-.64.15-.27.22-.59.22-.98,0-.38-.09-.7-.25-.96-.16-.26-.36-.47-.61-.63-.25-.16-.54-.28-.85-.35-.32-.07-.64-.1-.98-.1-.46,0-.87.06-1.23.17-.37.12-.68.29-.94.53-.26.24-.46.53-.59.89-.14.35-.2.77-.19,1.24h-.28c0-.52.06-.97.21-1.36Z"/>
            <path class="uuid-0309b43e-b86e-48fc-b7ac-acb90b139c12" d="m500.63,72.05c-.12.59-.31,1.11-.59,1.58-.28.47-.65.84-1.1,1.12-.46.28-1.03.43-1.72.43s-1.25-.14-1.71-.43c-.46-.28-.83-.66-1.11-1.12-.28-.46-.48-.99-.59-1.58s-.17-1.18-.17-1.77.06-1.19.17-1.77.31-1.11.59-1.58.65-.84,1.11-1.13c.46-.29,1.03-.43,1.71-.43s1.26.14,1.72.43c.46.29.82.67,1.1,1.13.28.46.48.99.59,1.58.12.59.17,1.18.17,1.77s-.06,1.19-.17,1.77Zm-.26-3.39c-.1-.55-.28-1.05-.53-1.49-.25-.45-.59-.81-1.01-1.09-.42-.28-.96-.43-1.61-.43s-1.19.14-1.61.43-.76.65-1.01,1.09c-.25.45-.43.94-.53,1.49-.1.55-.15,1.09-.15,1.62s.05,1.07.15,1.62c.1.55.28,1.05.53,1.49.25.45.59.81,1.01,1.09s.96.43,1.61.43,1.19-.14,1.61-.43c.42-.28.76-.65,1.01-1.09.25-.45.43-.94.53-1.49.1-.55.15-1.09.15-1.62s-.05-1.07-.15-1.62Z"/>
          </g>
          <g class="uuid-122202a2-8953-41c0-8c31-4f4da76558dd">
            <path class="uuid-c6f47249-f729-4a2c-86f4-341c0ecdf203" d="m486.62,67.12c.15-.39.36-.71.65-.97s.63-.46,1.03-.59c.4-.13.85-.2,1.35-.2.38,0,.75.04,1.1.13.35.08.67.22.95.4.28.19.5.43.67.73.17.3.25.66.25,1.07,0,.67-.19,1.19-.58,1.56-.39.37-.87.59-1.46.64v.03c.28.03.55.1.82.2.27.11.5.26.71.46.21.2.38.45.5.75.13.3.19.65.19,1.06,0,.45-.09.84-.26,1.19-.17.34-.4.63-.7.87s-.63.42-1.02.54-.8.18-1.23.18c-.54,0-1.03-.07-1.46-.22-.44-.15-.81-.36-1.12-.65-.31-.28-.54-.63-.69-1.05s-.21-.9-.17-1.44h.28c-.04.5.01.95.15,1.33.14.39.35.71.63.97.28.26.62.46,1.03.59.41.14.86.2,1.35.2.38,0,.75-.05,1.1-.16.35-.11.66-.27.93-.48.27-.21.49-.48.65-.79.16-.31.24-.67.24-1.08s-.07-.76-.2-1.05-.33-.53-.57-.71c-.25-.19-.54-.33-.87-.42s-.69-.15-1.08-.17h-.68v-.28h.68c.31,0,.61-.04.91-.1.3-.07.57-.19.82-.35.24-.16.44-.38.59-.64.15-.27.22-.59.22-.98,0-.38-.09-.7-.25-.96-.16-.26-.36-.47-.61-.63-.25-.16-.54-.28-.85-.35-.32-.07-.64-.1-.98-.1-.46,0-.87.06-1.23.17-.37.12-.68.29-.94.53-.26.24-.46.53-.59.89-.14.35-.2.77-.19,1.24h-.28c0-.52.06-.97.21-1.36Z"/>
            <path class="uuid-c6f47249-f729-4a2c-86f4-341c0ecdf203" d="m500.63,72.05c-.12.59-.31,1.11-.59,1.58-.28.47-.65.84-1.1,1.12-.46.28-1.03.43-1.72.43s-1.25-.14-1.71-.43c-.46-.28-.83-.66-1.11-1.12-.28-.46-.48-.99-.59-1.58s-.17-1.18-.17-1.77.06-1.19.17-1.77.31-1.11.59-1.58.65-.84,1.11-1.13c.46-.29,1.03-.43,1.71-.43s1.26.14,1.72.43c.46.29.82.67,1.1,1.13.28.46.48.99.59,1.58.12.59.17,1.18.17,1.77s-.06,1.19-.17,1.77Zm-.26-3.39c-.1-.55-.28-1.05-.53-1.49-.25-.45-.59-.81-1.01-1.09-.42-.28-.96-.43-1.61-.43s-1.19.14-1.61.43-.76.65-1.01,1.09c-.25.45-.43.94-.53,1.49-.1.55-.15,1.09-.15,1.62s.05,1.07.15,1.62c.1.55.28,1.05.53,1.49.25.45.59.81,1.01,1.09s.96.43,1.61.43,1.19-.14,1.61-.43c.42-.28.76-.65,1.01-1.09.25-.45.43-.94.53-1.49.1-.55.15-1.09.15-1.62s-.05-1.07-.15-1.62Z"/>
          </g>
          <g class="uuid-122202a2-8953-41c0-8c31-4f4da76558dd">
            <path class="uuid-c6f47249-f729-4a2c-86f4-341c0ecdf203" d="m499.85,547.49c-.12.58-.31,1.11-.59,1.58-.28.46-.65.84-1.1,1.12-.46.28-1.03.43-1.72.43s-1.25-.14-1.71-.43c-.46-.28-.83-.66-1.11-1.12s-.48-.99-.59-1.58c-.12-.59-.17-1.18-.17-1.77s.06-1.19.17-1.77c.12-.58.31-1.11.59-1.58.28-.46.65-.84,1.11-1.13.46-.29,1.03-.43,1.71-.43s1.26.14,1.72.43c.46.29.82.67,1.1,1.13.28.47.48.99.59,1.58.12.59.17,1.18.17,1.77s-.06,1.19-.17,1.77Zm-.26-3.39c-.1-.55-.28-1.05-.53-1.49-.25-.45-.59-.81-1.01-1.09-.42-.28-.96-.43-1.61-.43s-1.19.14-1.61.43-.76.65-1.01,1.09-.43.94-.53,1.49c-.1.55-.15,1.09-.15,1.62s.05,1.07.15,1.62c.1.55.28,1.05.53,1.49s.59.81,1.01,1.09c.42.28.96.43,1.61.43s1.19-.14,1.61-.43c.42-.28.76-.65,1.01-1.09.25-.45.43-.94.53-1.49.1-.55.15-1.09.15-1.62s-.05-1.07-.15-1.62Z"/>
          </g>
          <g class="uuid-122202a2-8953-41c0-8c31-4f4da76558dd">
            <path class="uuid-0309b43e-b86e-48fc-b7ac-acb90b139c12" d="m499.85,547.49c-.12.58-.31,1.11-.59,1.58-.28.46-.65.84-1.1,1.12-.46.28-1.03.43-1.72.43s-1.25-.14-1.71-.43c-.46-.28-.83-.66-1.11-1.12s-.48-.99-.59-1.58c-.12-.59-.17-1.18-.17-1.77s.06-1.19.17-1.77c.12-.58.31-1.11.59-1.58.28-.46.65-.84,1.11-1.13.46-.29,1.03-.43,1.71-.43s1.26.14,1.72.43c.46.29.82.67,1.1,1.13.28.47.48.99.59,1.58.12.59.17,1.18.17,1.77s-.06,1.19-.17,1.77Zm-.26-3.39c-.1-.55-.28-1.05-.53-1.49-.25-.45-.59-.81-1.01-1.09-.42-.28-.96-.43-1.61-.43s-1.19.14-1.61.43-.76.65-1.01,1.09-.43.94-.53,1.49c-.1.55-.15,1.09-.15,1.62s.05,1.07.15,1.62c.1.55.28,1.05.53,1.49s.59.81,1.01,1.09c.42.28.96.43,1.61.43s1.19-.14,1.61-.43c.42-.28.76-.65,1.01-1.09.25-.45.43-.94.53-1.49.1-.55.15-1.09.15-1.62s-.05-1.07-.15-1.62Z"/>
          </g>
          <g class="uuid-122202a2-8953-41c0-8c31-4f4da76558dd">
            <path class="uuid-c6f47249-f729-4a2c-86f4-341c0ecdf203" d="m499.85,547.49c-.12.58-.31,1.11-.59,1.58-.28.46-.65.84-1.1,1.12-.46.28-1.03.43-1.72.43s-1.25-.14-1.71-.43c-.46-.28-.83-.66-1.11-1.12s-.48-.99-.59-1.58c-.12-.59-.17-1.18-.17-1.77s.06-1.19.17-1.77c.12-.58.31-1.11.59-1.58.28-.46.65-.84,1.11-1.13.46-.29,1.03-.43,1.71-.43s1.26.14,1.72.43c.46.29.82.67,1.1,1.13.28.47.48.99.59,1.58.12.59.17,1.18.17,1.77s-.06,1.19-.17,1.77Zm-.26-3.39c-.1-.55-.28-1.05-.53-1.49-.25-.45-.59-.81-1.01-1.09-.42-.28-.96-.43-1.61-.43s-1.19.14-1.61.43-.76.65-1.01,1.09-.43.94-.53,1.49c-.1.55-.15,1.09-.15,1.62s.05,1.07.15,1.62c.1.55.28,1.05.53,1.49s.59.81,1.01,1.09c.42.28.96.43,1.61.43s1.19-.14,1.61-.43c.42-.28.76-.65,1.01-1.09.25-.45.43-.94.53-1.49.1-.55.15-1.09.15-1.62s-.05-1.07-.15-1.62Z"/>
          </g>
          <path class="uuid-84467957-77f4-41fb-8c26-122599810ac1" d="m528.1,1072.38h-38.92l.07-17.28.09-23.12.09-22.54.09-21.98.09-21.42.09-20.88.09-20.35.09-19.83.09-19.32.09-18.83.09-18.34.09-17.86.09-17.4.09-16.94.09-16.5.09-16.06.09-15.63.09-15.22.09-14.81.09-14.41.09-14.02.09-13.64.09-13.26.09-12.9.09-12.54.09-12.19.09-11.85.09-11.52.09-11.19.09-10.87.09-10.56.09-10.26.09-9.96.09-9.67.09-9.39.09-9.12.09-8.85.09-8.58.09-8.33.09-8.08.09-7.83.09-7.59.09-7.36.09-7.13.09-6.91.09-6.7.09-6.48.09-6.28.09-6.08.09-5.88.18-11.2.18-10.47.18-9.78.18-9.13.18-8.51.18-7.92.18-7.36.18-6.84.18-6.34.18-5.86.37-10.4.37-8.8.37-7.37.74-11.06.74-7.03,1.48-5.34.74.42.37.77.37,1.08,1.48,6.66,1.48,9.13,1.48,10.49,1.48,11.23,1.48,11.62.74,5.88.74,5.9.74,5.9.74,5.88,1.48,11.59,1.48,11.17,1.48,10.38,1.48,8.93,1.48,6.3.37.95.37.62.65.15.46-.77.37-1.25.74-4.51.74-7.83.37-5.44.37-6.63.37-7.98.37-9.48.37-11.16.18-6.28.18-6.77.18-7.3.18-7.85.18-8.43.18-9.05.18-9.7.18-10.38.18-11.1.09-5.83.09-6.03.09-6.23.09-6.43.09-6.64.09-6.86.09-7.08.09-7.3.09-7.53.09-7.77.09-8.01.09-8.26.09-8.52.09-8.78.09-9.05.09-9.32.09-9.6.09-9.89.09-10.19.09-10.49.09-10.8.09-11.11.09-11.44.09-11.77.09-12.11.09-12.45.09-12.81.09-13.17.09-13.54.09-13.92"/>
        </g>
        <path class="uuid-a1dd87d6-2990-4d84-9179-f623d74e8917" d="m505.3,287.55c0,3.28-2.66,5.93-5.93,5.93s-5.93-2.66-5.93-5.93,2.66-5.93,5.93-5.93,5.93,2.66,5.93,5.93Z"/>
        <path class="uuid-a1dd87d6-2990-4d84-9179-f623d74e8917" d="m525.59,409.38c0,3.28-2.66,5.93-5.93,5.93s-5.93-2.66-5.93-5.93,2.66-5.93,5.93-5.93,5.93,2.66,5.93,5.93Z"/>
        <path class="uuid-a1dd87d6-2990-4d84-9179-f623d74e8917" d="m498.44,533.6c0,3.28-2.66,5.93-5.93,5.93s-5.93-2.66-5.93-5.93,2.66-5.93,5.93-5.93,5.93,2.66,5.93,5.93Z"/>
        <path class="uuid-a1dd87d6-2990-4d84-9179-f623d74e8917" d="m515.93,344.71c0,3.28-2.66,5.93-5.93,5.93s-5.93-2.66-5.93-5.93,2.66-5.93,5.93-5.93,5.93,2.66,5.93,5.93Z"/>
      </g>
    </g>
  </g>
  <g id="uuid-b1d9614f-16bc-4fe6-b7fe-fe352b3d63aa" data-name="Marco">
    <path class="uuid-86d7d3a4-ccde-47e9-929d-82b7b88843cd" d="m-3-2.72v811.43H1023V-2.72H-3Zm1009,774.43c0,11.05-8.95,20-20,20H34c-11.05,0-20-8.95-20-20V34.28c0-11.05,8.95-20,20-20h952c11.05,0,20,8.95,20,20v737.43Z"/>
  </g>
</svg>