<?xml version="1.0" encoding="UTF-8"?>
<svg xmlns="http://www.w3.org/2000/svg" xmlns:xlink="http://www.w3.org/1999/xlink" viewBox="0 0 1245 1020">
  <defs>
    <style>
      .uuid-423f98f4-a430-41c0-86f4-e2fc8a55bc2f {
        stroke: silver;
      }

      .uuid-423f98f4-a430-41c0-86f4-e2fc8a55bc2f, .uuid-f4e70077-0434-47a0-8b50-3476c9079f5a, .uuid-02a560d3-3dea-4632-93f9-a0961256dc4a, .uuid-6e91b0c8-418a-4080-9df6-127620f6d835, .uuid-2cc978b2-8082-4087-aff4-4bfff4586a24, .uuid-153fcfba-e5ee-48f6-83df-d7c5ead3351b, .uuid-09f289a1-ed07-45fe-bfff-6fb6d0d81c29, .uuid-e91a4399-e4ca-481e-bbc5-b037e2899ad6, .uuid-02dc43ee-c9b5-4f73-88af-67f6f4974248 {
        fill: none;
      }

      .uuid-423f98f4-a430-41c0-86f4-e2fc8a55bc2f, .uuid-02a560d3-3dea-4632-93f9-a0961256dc4a, .uuid-e91a4399-e4ca-481e-bbc5-b037e2899ad6 {
        stroke-linecap: round;
        stroke-linejoin: round;
      }

      .uuid-dc7267a1-eff1-47b8-955b-ba44daee5539 {
        fill: #fff;
      }

      .uuid-f4e70077-0434-47a0-8b50-3476c9079f5a {
        stroke: #fff;
        stroke-linejoin: bevel;
        stroke-width: 3px;
      }

      .uuid-02a560d3-3dea-4632-93f9-a0961256dc4a {
        stroke: rgba(192, 192, 192, .24);
      }

      .uuid-6e91b0c8-418a-4080-9df6-127620f6d835 {
        isolation: isolate;
      }

      .uuid-448e6422-7e6c-4475-ac54-af7e3ddf910e {
        fill: #00699b;
      }

      .uuid-153fcfba-e5ee-48f6-83df-d7c5ead3351b {
        stroke: #252525;
        stroke-miterlimit: 10;
      }

      .uuid-09f289a1-ed07-45fe-bfff-6fb6d0d81c29 {
        clip-path: url(#uuid-bc7ef941-d3b8-4dd3-8e7a-aff83012afb2);
      }

      .uuid-073b1eb2-486e-485e-9509-01b8b183e346 {
        fill: #252525;
      }

      .uuid-e91a4399-e4ca-481e-bbc5-b037e2899ad6 {
        stroke: rgba(255, 102, 51, .7);
        stroke-width: 5px;
      }

      .uuid-02dc43ee-c9b5-4f73-88af-67f6f4974248 {
        clip-path: url(#uuid-a0bf09ed-4f8f-4538-ba47-9c630be2167a);
      }
    </style>
    <clipPath id="uuid-bc7ef941-d3b8-4dd3-8e7a-aff83012afb2">
      <rect class="uuid-2cc978b2-8082-4087-aff4-4bfff4586a24" x="-1" width="1247" height="1020"/>
    </clipPath>
    <clipPath id="uuid-a0bf09ed-4f8f-4538-ba47-9c630be2167a">
      <rect class="uuid-2cc978b2-8082-4087-aff4-4bfff4586a24" x="-66.36" y="-2" width="1377.72" height="1059.78"/>
    </clipPath>
  </defs>
  <g id="uuid-fe8f9c73-3617-447b-ad83-b1881c5740eb" data-name="Grafica">
    <g class="uuid-09f289a1-ed07-45fe-bfff-6fb6d0d81c29">
      <g class="uuid-02dc43ee-c9b5-4f73-88af-67f6f4974248">
        <g>
          <rect class="uuid-dc7267a1-eff1-47b8-955b-ba44daee5539" x="-66.36" y="-2" width="1377.72" height="1059.78"/>
          <path class="uuid-423f98f4-a430-41c0-86f4-e2fc8a55bc2f" d="m-35.22-1.45v1059.78M-35.22-1.45v1059.78M58.74-1.45v1059.78M152.7-1.45v1059.78M246.66-1.45v1059.78M340.62-1.45v1059.78M434.58-1.45v1059.78M528.54-1.45v1059.78M716.46-1.45v1059.78M810.42-1.45v1059.78M904.38-1.45v1059.78M998.34-1.45v1059.78M1092.3-1.45v1059.78M1186.26-1.45v1059.78M1280.22-1.45v1059.78"/>
          <path class="uuid-02a560d3-3dea-4632-93f9-a0961256dc4a" d="m-53.79-1.45v1059.78M-16.65-1.45v1059.78M1.93-1.45v1059.78M20.5-1.45v1059.78M40.17-1.45v1059.78M77.31-1.45v1059.78M95.89-1.45v1059.78M114.46-1.45v1059.78M134.13-1.45v1059.78M171.27-1.45v1059.78M189.85-1.45v1059.78M208.42-1.45v1059.78M228.09-1.45v1059.78M265.23-1.45v1059.78M283.81-1.45v1059.78M302.38-1.45v1059.78M322.05-1.45v1059.78M359.19-1.45v1059.78M377.77-1.45v1059.78M396.34-1.45v1059.78M416.01-1.45v1059.78M453.15-1.45v1059.78M471.73-1.45v1059.78M491.39-1.45v1059.78M509.97-1.45v1059.78M547.11-1.45v1059.78M565.69-1.45v1059.78M585.35-1.45v1059.78M603.93-1.45v1059.78M641.07-1.45v1059.78M659.65-1.45v1059.78M679.31-1.45v1059.78M697.89-1.45v1059.78M735.03-1.45v1059.78M753.61-1.45v1059.78M773.27-1.45v1059.78M791.85-1.45v1059.78M828.99-1.45v1059.78M847.57-1.45v1059.78M867.23-1.45v1059.78M885.81-1.45v1059.78M922.95-1.45v1059.78M941.53-1.45v1059.78M961.19-1.45v1059.78M979.77-1.45v1059.78M1016.91-1.45v1059.78M1035.49-1.45v1059.78M1055.15-1.45v1059.78M1073.73-1.45v1059.78M1110.87-1.45v1059.78M1129.45-1.45v1059.78M1149.11-1.45v1059.78M1167.69-1.45v1059.78M1204.83-1.45v1059.78M1223.41-1.45v1059.78M1243.07-1.45v1059.78M1261.65-1.45v1059.78M1298.79-1.45v1059.78"/>
          <path class="uuid-423f98f4-a430-41c0-86f4-e2fc8a55bc2f" d="m-65.81,48.8h1377.72m-1377.72,0h1377.72M-65.81,142.76h1377.72M-65.81,236.72h1377.72M-65.81,330.68h1377.72M-65.81,424.64h1377.72M-65.81,518.6h1377.72M-65.81,612.56h1377.72M-65.81,706.52h1377.72M-65.81,800.48h1377.72M-65.81,988.41h1377.72"/>
          <path class="uuid-02a560d3-3dea-4632-93f9-a0961256dc4a" d="m-65.81,10.56h1377.72m-1377.72,0h1377.72M-65.81,30.23h1377.72M-65.81,67.38h1377.72M-65.81,85.95h1377.72M-65.81,104.52h1377.72M-65.81,124.19h1377.72M-65.81,161.34h1377.72M-65.81,179.91h1377.72M-65.81,198.48h1377.72M-65.81,218.15h1377.72M-65.81,255.3h1377.72m-1377.72,18.57h1377.72m-1377.72,19.67h1377.72m-1377.72,18.57h1377.72M-65.81,349.26h1377.72m-1377.72,18.57h1377.72m-1377.72,19.67h1377.72m-1377.72,18.57h1377.72M-65.81,443.22h1377.72m-1377.72,18.57h1377.72m-1377.72,19.67h1377.72m-1377.72,18.57h1377.72m-1377.72,37.15h1377.72m-1377.72,18.57h1377.72m-1377.72,19.67h1377.72m-1377.72,18.57h1377.72m-1377.72,37.15h1377.72m-1377.72,18.57h1377.72m-1377.72,19.67h1377.72m-1377.72,18.57h1377.72m-1377.72,37.15h1377.72m-1377.72,18.57h1377.72m-1377.72,19.67h1377.72m-1377.72,18.57h1377.72m-1377.72,37.15h1377.72m-1377.72,18.57h1377.72m-1377.72,19.67h1377.72m-1377.72,18.57h1377.72m-1377.72,37.15h1377.72m-1377.72,18.57h1377.72m-1377.72,19.67h1377.72m-1377.72,18.57h1377.72m-1377.72,37.15h1377.72m-1377.72,18.57h1377.72m-1377.72,19.67h1377.72"/>
          <path class="uuid-153fcfba-e5ee-48f6-83df-d7c5ead3351b" d="m622.5.73v1057.6"/>
          <path class="uuid-153fcfba-e5ee-48f6-83df-d7c5ead3351b" d="m622.5-.36l-4.37,4.37"/>
          <path class="uuid-153fcfba-e5ee-48f6-83df-d7c5ead3351b" d="m622.5-.36l4.37,4.37"/>
          <path class="uuid-153fcfba-e5ee-48f6-83df-d7c5ead3351b" d="m-65.81,894.44h1375.53"/>
          <g class="uuid-6e91b0c8-418a-4080-9df6-127620f6d835">
            <path class="uuid-073b1eb2-486e-485e-9509-01b8b183e346" d="m59.29,907.74v.26h-6.56v-.26h6.56Z"/>
            <path class="uuid-073b1eb2-486e-485e-9509-01b8b183e346" d="m60.26,903.95c.14-.36.34-.67.61-.91.27-.24.59-.43.97-.55.38-.12.8-.18,1.27-.18.36,0,.7.04,1.04.12.33.08.63.21.89.38s.47.4.63.68c.16.28.24.62.24,1.01,0,.63-.18,1.12-.54,1.47s-.82.55-1.37.6v.03c.26.03.52.09.77.19.25.1.47.25.67.43.2.19.35.42.47.7.12.28.18.61.18,1,0,.42-.08.79-.24,1.11s-.38.6-.66.82c-.28.22-.59.39-.96.5s-.75.17-1.16.17c-.51,0-.97-.07-1.38-.21-.41-.14-.76-.34-1.05-.61-.29-.27-.5-.6-.65-.99-.14-.39-.2-.84-.16-1.35h.26c-.04.47.01.89.14,1.25.13.36.33.67.59.91.26.25.59.43.97.56.38.13.81.19,1.27.19.36,0,.7-.05,1.04-.15s.62-.25.88-.45.46-.45.61-.74c.15-.29.23-.63.23-1.02s-.06-.71-.19-.98c-.13-.27-.31-.49-.54-.67-.23-.17-.5-.31-.81-.39-.31-.09-.65-.14-1.02-.16h-.64v-.26h.64c.29,0,.57-.03.86-.1.28-.07.54-.17.77-.33.23-.15.41-.35.55-.6s.21-.56.21-.92c0-.36-.09-.66-.24-.91-.15-.24-.34-.44-.58-.6-.24-.15-.5-.26-.8-.33-.3-.07-.6-.1-.92-.1-.43,0-.82.05-1.16.16s-.64.28-.88.5c-.25.22-.43.5-.56.83-.13.33-.19.72-.18,1.17h-.26c0-.49.06-.92.2-1.28Z"/>
          </g>
          <g class="uuid-6e91b0c8-418a-4080-9df6-127620f6d835">
            <path class="uuid-f4e70077-0434-47a0-8b50-3476c9079f5a" d="m59.29,907.74v.26h-6.56v-.26h6.56Z"/>
            <path class="uuid-f4e70077-0434-47a0-8b50-3476c9079f5a" d="m60.26,903.95c.14-.36.34-.67.61-.91.27-.24.59-.43.97-.55.38-.12.8-.18,1.27-.18.36,0,.7.04,1.04.12.33.08.63.21.89.38s.47.4.63.68c.16.28.24.62.24,1.01,0,.63-.18,1.12-.54,1.47s-.82.55-1.37.6v.03c.26.03.52.09.77.19.25.1.47.25.67.43.2.19.35.42.47.7.12.28.18.61.18,1,0,.42-.08.79-.24,1.11s-.38.6-.66.82c-.28.22-.59.39-.96.5s-.75.17-1.16.17c-.51,0-.97-.07-1.38-.21-.41-.14-.76-.34-1.05-.61-.29-.27-.5-.6-.65-.99-.14-.39-.2-.84-.16-1.35h.26c-.04.47.01.89.14,1.25.13.36.33.67.59.91.26.25.59.43.97.56.38.13.81.19,1.27.19.36,0,.7-.05,1.04-.15s.62-.25.88-.45.46-.45.61-.74c.15-.29.23-.63.23-1.02s-.06-.71-.19-.98c-.13-.27-.31-.49-.54-.67-.23-.17-.5-.31-.81-.39-.31-.09-.65-.14-1.02-.16h-.64v-.26h.64c.29,0,.57-.03.86-.1.28-.07.54-.17.77-.33.23-.15.41-.35.55-.6s.21-.56.21-.92c0-.36-.09-.66-.24-.91-.15-.24-.34-.44-.58-.6-.24-.15-.5-.26-.8-.33-.3-.07-.6-.1-.92-.1-.43,0-.82.05-1.16.16s-.64.28-.88.5c-.25.22-.43.5-.56.83-.13.33-.19.72-.18,1.17h-.26c0-.49.06-.92.2-1.28Z"/>
          </g>
          <g class="uuid-6e91b0c8-418a-4080-9df6-127620f6d835">
            <path class="uuid-073b1eb2-486e-485e-9509-01b8b183e346" d="m59.29,907.74v.26h-6.56v-.26h6.56Z"/>
            <path class="uuid-073b1eb2-486e-485e-9509-01b8b183e346" d="m60.26,903.95c.14-.36.34-.67.61-.91.27-.24.59-.43.97-.55.38-.12.8-.18,1.27-.18.36,0,.7.04,1.04.12.33.08.63.21.89.38s.47.4.63.68c.16.28.24.62.24,1.01,0,.63-.18,1.12-.54,1.47s-.82.55-1.37.6v.03c.26.03.52.09.77.19.25.1.47.25.67.43.2.19.35.42.47.7.12.28.18.61.18,1,0,.42-.08.79-.24,1.11s-.38.6-.66.82c-.28.22-.59.39-.96.5s-.75.17-1.16.17c-.51,0-.97-.07-1.38-.21-.41-.14-.76-.34-1.05-.61-.29-.27-.5-.6-.65-.99-.14-.39-.2-.84-.16-1.35h.26c-.04.47.01.89.14,1.25.13.36.33.67.59.91.26.25.59.43.97.56.38.13.81.19,1.27.19.36,0,.7-.05,1.04-.15s.62-.25.88-.45.46-.45.61-.74c.15-.29.23-.63.23-1.02s-.06-.71-.19-.98c-.13-.27-.31-.49-.54-.67-.23-.17-.5-.31-.81-.39-.31-.09-.65-.14-1.02-.16h-.64v-.26h.64c.29,0,.57-.03.86-.1.28-.07.54-.17.77-.33.23-.15.41-.35.55-.6s.21-.56.21-.92c0-.36-.09-.66-.24-.91-.15-.24-.34-.44-.58-.6-.24-.15-.5-.26-.8-.33-.3-.07-.6-.1-.92-.1-.43,0-.82.05-1.16.16s-.64.28-.88.5c-.25.22-.43.5-.56.83-.13.33-.19.72-.18,1.17h-.26c0-.49.06-.92.2-1.28Z"/>
          </g>
          <g class="uuid-6e91b0c8-418a-4080-9df6-127620f6d835">
            <path class="uuid-073b1eb2-486e-485e-9509-01b8b183e346" d="m146.69,907.74v.26h-6.56v-.26h6.56Z"/>
            <path class="uuid-073b1eb2-486e-485e-9509-01b8b183e346" d="m153.42,911.38h-6c0-.38.07-.72.24-1.02s.38-.59.66-.86c.27-.27.57-.52.91-.76.34-.24.67-.48,1-.71.34-.24.67-.48,1-.72.32-.25.61-.5.87-.77.25-.27.46-.55.61-.85.15-.3.23-.63.23-.98s-.06-.66-.19-.92c-.13-.27-.3-.49-.52-.67-.22-.18-.48-.31-.78-.41-.3-.09-.63-.14-.99-.14-.46,0-.86.07-1.19.21-.33.14-.6.33-.81.58-.21.25-.36.55-.46.89-.1.35-.14.72-.14,1.13h-.26c0-.98.25-1.74.73-2.28.48-.54,1.19-.81,2.14-.81.38,0,.74.05,1.08.15s.62.25.87.45.44.45.58.75c.14.3.22.65.22,1.05,0,.49-.13.94-.39,1.34s-.59.78-.99,1.13c-.4.35-.83.68-1.29.99-.46.31-.9.62-1.3.93-.41.31-.75.63-1.04.96-.29.33-.45.68-.48,1.07h5.74v.26Z"/>
            <path class="uuid-073b1eb2-486e-485e-9509-01b8b183e346" d="m155.67,911.38v-1.29h.26v1.29h-.26Z"/>
            <path class="uuid-073b1eb2-486e-485e-9509-01b8b183e346" d="m158.74,906.54h.03c.25-.42.59-.73,1.02-.92.42-.19.9-.29,1.42-.29.46,0,.88.08,1.26.23.38.15.7.37.97.64.27.27.48.6.63.98.15.38.22.79.22,1.24,0,.47-.07.9-.22,1.29-.15.38-.36.71-.63.98-.27.27-.59.48-.97.62-.38.14-.8.22-1.26.22s-.88-.07-1.27-.2c-.39-.14-.72-.33-1-.58-.27-.25-.49-.57-.64-.94-.15-.37-.21-.8-.2-1.28h.26c-.02.44.04.83.17,1.17.13.34.32.63.57.87.25.24.55.42.91.54.36.12.75.18,1.18.18s.83-.07,1.17-.2c.35-.14.64-.33.89-.58.24-.25.43-.55.56-.91.13-.35.2-.75.2-1.17s-.07-.79-.2-1.13c-.14-.35-.33-.64-.57-.89s-.54-.44-.89-.58-.73-.21-1.15-.21c-.52,0-1.01.12-1.46.35s-.79.57-1.04,1.02h-.33l.96-4.5h4.58v.26h-4.37l-.81,3.82Z"/>
          </g>
          <g class="uuid-6e91b0c8-418a-4080-9df6-127620f6d835">
            <path class="uuid-f4e70077-0434-47a0-8b50-3476c9079f5a" d="m146.69,907.74v.26h-6.56v-.26h6.56Z"/>
            <path class="uuid-f4e70077-0434-47a0-8b50-3476c9079f5a" d="m153.42,911.38h-6c0-.38.07-.72.24-1.02s.38-.59.66-.86c.27-.27.57-.52.91-.76.34-.24.67-.48,1-.71.34-.24.67-.48,1-.72.32-.25.61-.5.87-.77.25-.27.46-.55.61-.85.15-.3.23-.63.23-.98s-.06-.66-.19-.92c-.13-.27-.3-.49-.52-.67-.22-.18-.48-.31-.78-.41-.3-.09-.63-.14-.99-.14-.46,0-.86.07-1.19.21-.33.14-.6.33-.81.58-.21.25-.36.55-.46.89-.1.35-.14.72-.14,1.13h-.26c0-.98.25-1.74.73-2.28.48-.54,1.19-.81,2.14-.81.38,0,.74.05,1.08.15s.62.25.87.45.44.45.58.75c.14.3.22.65.22,1.05,0,.49-.13.94-.39,1.34s-.59.78-.99,1.13c-.4.35-.83.68-1.29.99-.46.31-.9.62-1.3.93-.41.31-.75.63-1.04.96-.29.33-.45.68-.48,1.07h5.74v.26Z"/>
            <path class="uuid-f4e70077-0434-47a0-8b50-3476c9079f5a" d="m155.67,911.38v-1.29h.26v1.29h-.26Z"/>
            <path class="uuid-f4e70077-0434-47a0-8b50-3476c9079f5a" d="m158.74,906.54h.03c.25-.42.59-.73,1.02-.92.42-.19.9-.29,1.42-.29.46,0,.88.08,1.26.23.38.15.7.37.97.64.27.27.48.6.63.98.15.38.22.79.22,1.24,0,.47-.07.9-.22,1.29-.15.38-.36.71-.63.98-.27.27-.59.48-.97.62-.38.14-.8.22-1.26.22s-.88-.07-1.27-.2c-.39-.14-.72-.33-1-.58-.27-.25-.49-.57-.64-.94-.15-.37-.21-.8-.2-1.28h.26c-.02.44.04.83.17,1.17.13.34.32.63.57.87.25.24.55.42.91.54.36.12.75.18,1.18.18s.83-.07,1.17-.2c.35-.14.64-.33.89-.58.24-.25.43-.55.56-.91.13-.35.2-.75.2-1.17s-.07-.79-.2-1.13c-.14-.35-.33-.64-.57-.89s-.54-.44-.89-.58-.73-.21-1.15-.21c-.52,0-1.01.12-1.46.35s-.79.57-1.04,1.02h-.33l.96-4.5h4.58v.26h-4.37l-.81,3.82Z"/>
          </g>
          <g class="uuid-6e91b0c8-418a-4080-9df6-127620f6d835">
            <path class="uuid-073b1eb2-486e-485e-9509-01b8b183e346" d="m146.69,907.74v.26h-6.56v-.26h6.56Z"/>
            <path class="uuid-073b1eb2-486e-485e-9509-01b8b183e346" d="m153.42,911.38h-6c0-.38.07-.72.24-1.02s.38-.59.66-.86c.27-.27.57-.52.91-.76.34-.24.67-.48,1-.71.34-.24.67-.48,1-.72.32-.25.61-.5.87-.77.25-.27.46-.55.61-.85.15-.3.23-.63.23-.98s-.06-.66-.19-.92c-.13-.27-.3-.49-.52-.67-.22-.18-.48-.31-.78-.41-.3-.09-.63-.14-.99-.14-.46,0-.86.07-1.19.21-.33.14-.6.33-.81.58-.21.25-.36.55-.46.89-.1.35-.14.72-.14,1.13h-.26c0-.98.25-1.74.73-2.28.48-.54,1.19-.81,2.14-.81.38,0,.74.05,1.08.15s.62.25.87.45.44.45.58.75c.14.3.22.65.22,1.05,0,.49-.13.94-.39,1.34s-.59.78-.99,1.13c-.4.35-.83.68-1.29.99-.46.31-.9.62-1.3.93-.41.31-.75.63-1.04.96-.29.33-.45.68-.48,1.07h5.74v.26Z"/>
            <path class="uuid-073b1eb2-486e-485e-9509-01b8b183e346" d="m155.67,911.38v-1.29h.26v1.29h-.26Z"/>
            <path class="uuid-073b1eb2-486e-485e-9509-01b8b183e346" d="m158.74,906.54h.03c.25-.42.59-.73,1.02-.92.42-.19.9-.29,1.42-.29.46,0,.88.08,1.26.23.38.15.7.37.97.64.27.27.48.6.63.98.15.38.22.79.22,1.24,0,.47-.07.9-.22,1.29-.15.38-.36.71-.63.98-.27.27-.59.48-.97.62-.38.14-.8.22-1.26.22s-.88-.07-1.27-.2c-.39-.14-.72-.33-1-.58-.27-.25-.49-.57-.64-.94-.15-.37-.21-.8-.2-1.28h.26c-.02.44.04.83.17,1.17.13.34.32.63.57.87.25.24.55.42.91.54.36.12.75.18,1.18.18s.83-.07,1.17-.2c.35-.14.64-.33.89-.58.24-.25.43-.55.56-.91.13-.35.2-.75.2-1.17s-.07-.79-.2-1.13c-.14-.35-.33-.64-.57-.89s-.54-.44-.89-.58-.73-.21-1.15-.21c-.52,0-1.01.12-1.46.35s-.79.57-1.04,1.02h-.33l.96-4.5h4.58v.26h-4.37l-.81,3.82Z"/>
          </g>
          <g class="uuid-6e91b0c8-418a-4080-9df6-127620f6d835">
            <path class="uuid-073b1eb2-486e-485e-9509-01b8b183e346" d="m247.21,907.74v.26h-6.56v-.26h6.56Z"/>
            <path class="uuid-073b1eb2-486e-485e-9509-01b8b183e346" d="m253.93,911.38h-6c0-.38.07-.72.24-1.02s.38-.59.66-.86c.27-.27.57-.52.91-.76.34-.24.67-.48,1-.71.34-.24.67-.48,1-.72.32-.25.61-.5.87-.77.25-.27.46-.55.61-.85.15-.3.23-.63.23-.98s-.06-.66-.19-.92c-.13-.27-.3-.49-.52-.67-.22-.18-.48-.31-.78-.41-.3-.09-.63-.14-.99-.14-.46,0-.86.07-1.19.21-.33.14-.6.33-.81.58-.21.25-.36.55-.46.89-.1.35-.14.72-.14,1.13h-.26c0-.98.25-1.74.73-2.28.48-.54,1.19-.81,2.14-.81.38,0,.74.05,1.08.15s.62.25.87.45.44.45.58.75c.14.3.22.65.22,1.05,0,.49-.13.94-.39,1.34s-.59.78-.99,1.13c-.4.35-.83.68-1.29.99-.46.31-.9.62-1.3.93-.41.31-.75.63-1.04.96-.29.33-.45.68-.48,1.07h5.74v.26Z"/>
          </g>
          <g class="uuid-6e91b0c8-418a-4080-9df6-127620f6d835">
            <path class="uuid-f4e70077-0434-47a0-8b50-3476c9079f5a" d="m247.21,907.74v.26h-6.56v-.26h6.56Z"/>
            <path class="uuid-f4e70077-0434-47a0-8b50-3476c9079f5a" d="m253.93,911.38h-6c0-.38.07-.72.24-1.02s.38-.59.66-.86c.27-.27.57-.52.91-.76.34-.24.67-.48,1-.71.34-.24.67-.48,1-.72.32-.25.61-.5.87-.77.25-.27.46-.55.61-.85.15-.3.23-.63.23-.98s-.06-.66-.19-.92c-.13-.27-.3-.49-.52-.67-.22-.18-.48-.31-.78-.41-.3-.09-.63-.14-.99-.14-.46,0-.86.07-1.19.21-.33.14-.6.33-.81.58-.21.25-.36.55-.46.89-.1.35-.14.72-.14,1.13h-.26c0-.98.25-1.74.73-2.28.48-.54,1.19-.81,2.14-.81.38,0,.74.05,1.08.15s.62.25.87.45.44.45.58.75c.14.3.22.65.22,1.05,0,.49-.13.94-.39,1.34s-.59.78-.99,1.13c-.4.35-.83.68-1.29.99-.46.31-.9.62-1.3.93-.41.31-.75.63-1.04.96-.29.33-.45.68-.48,1.07h5.74v.26Z"/>
          </g>
          <g class="uuid-6e91b0c8-418a-4080-9df6-127620f6d835">
            <path class="uuid-073b1eb2-486e-485e-9509-01b8b183e346" d="m247.21,907.74v.26h-6.56v-.26h6.56Z"/>
            <path class="uuid-073b1eb2-486e-485e-9509-01b8b183e346" d="m253.93,911.38h-6c0-.38.07-.72.24-1.02s.38-.59.66-.86c.27-.27.57-.52.91-.76.34-.24.67-.48,1-.71.34-.24.67-.48,1-.72.32-.25.61-.5.87-.77.25-.27.46-.55.61-.85.15-.3.23-.63.23-.98s-.06-.66-.19-.92c-.13-.27-.3-.49-.52-.67-.22-.18-.48-.31-.78-.41-.3-.09-.63-.14-.99-.14-.46,0-.86.07-1.19.21-.33.14-.6.33-.81.58-.21.25-.36.55-.46.89-.1.35-.14.72-.14,1.13h-.26c0-.98.25-1.74.73-2.28.48-.54,1.19-.81,2.14-.81.38,0,.74.05,1.08.15s.62.25.87.45.44.45.58.75c.14.3.22.65.22,1.05,0,.49-.13.94-.39,1.34s-.59.78-.99,1.13c-.4.35-.83.68-1.29.99-.46.31-.9.62-1.3.93-.41.31-.75.63-1.04.96-.29.33-.45.68-.48,1.07h5.74v.26Z"/>
          </g>
          <g class="uuid-6e91b0c8-418a-4080-9df6-127620f6d835">
            <path class="uuid-073b1eb2-486e-485e-9509-01b8b183e346" d="m334.61,907.74v.26h-6.56v-.26h6.56Z"/>
            <path class="uuid-073b1eb2-486e-485e-9509-01b8b183e346" d="m338.49,902.81c-.27.38-.62.7-1.06.98s-.87.47-1.32.6v-.26c.27-.09.51-.18.72-.29.21-.1.41-.22.59-.35.18-.13.36-.28.53-.45s.35-.35.53-.56h.29v8.92h-.26v-8.57h-.03Z"/>
            <path class="uuid-073b1eb2-486e-485e-9509-01b8b183e346" d="m343.59,911.38v-1.29h.26v1.29h-.26Z"/>
            <path class="uuid-073b1eb2-486e-485e-9509-01b8b183e346" d="m346.66,906.54h.03c.25-.42.59-.73,1.02-.92.42-.19.9-.29,1.42-.29.46,0,.88.08,1.26.23.38.15.7.37.97.64.27.27.48.6.63.98.15.38.22.79.22,1.24,0,.47-.07.9-.22,1.29-.15.38-.36.71-.63.98-.27.27-.59.48-.97.62-.38.14-.8.22-1.26.22s-.88-.07-1.27-.2c-.39-.14-.72-.33-1-.58-.27-.25-.49-.57-.64-.94-.15-.37-.21-.8-.2-1.28h.26c-.02.44.04.83.17,1.17.13.34.32.63.57.87.25.24.55.42.91.54.36.12.75.18,1.18.18s.83-.07,1.17-.2c.35-.14.64-.33.89-.58.24-.25.43-.55.56-.91.13-.35.2-.75.2-1.17s-.07-.79-.2-1.13c-.14-.35-.33-.64-.57-.89s-.54-.44-.89-.58-.73-.21-1.15-.21c-.52,0-1.01.12-1.46.35s-.79.57-1.04,1.02h-.33l.96-4.5h4.58v.26h-4.37l-.81,3.82Z"/>
          </g>
          <g class="uuid-6e91b0c8-418a-4080-9df6-127620f6d835">
            <path class="uuid-f4e70077-0434-47a0-8b50-3476c9079f5a" d="m334.61,907.74v.26h-6.56v-.26h6.56Z"/>
            <path class="uuid-f4e70077-0434-47a0-8b50-3476c9079f5a" d="m338.49,902.81c-.27.38-.62.7-1.06.98s-.87.47-1.32.6v-.26c.27-.09.51-.18.72-.29.21-.1.41-.22.59-.35.18-.13.36-.28.53-.45s.35-.35.53-.56h.29v8.92h-.26v-8.57h-.03Z"/>
            <path class="uuid-f4e70077-0434-47a0-8b50-3476c9079f5a" d="m343.59,911.38v-1.29h.26v1.29h-.26Z"/>
            <path class="uuid-f4e70077-0434-47a0-8b50-3476c9079f5a" d="m346.66,906.54h.03c.25-.42.59-.73,1.02-.92.42-.19.9-.29,1.42-.29.46,0,.88.08,1.26.23.38.15.7.37.97.64.27.27.48.6.63.98.15.38.22.79.22,1.24,0,.47-.07.9-.22,1.29-.15.38-.36.71-.63.98-.27.27-.59.48-.97.62-.38.14-.8.22-1.26.22s-.88-.07-1.27-.2c-.39-.14-.72-.33-1-.58-.27-.25-.49-.57-.64-.94-.15-.37-.21-.8-.2-1.28h.26c-.02.44.04.83.17,1.17.13.34.32.63.57.87.25.24.55.42.91.54.36.12.75.18,1.18.18s.83-.07,1.17-.2c.35-.14.64-.33.89-.58.24-.25.43-.55.56-.91.13-.35.2-.75.2-1.17s-.07-.79-.2-1.13c-.14-.35-.33-.64-.57-.89s-.54-.44-.89-.58-.73-.21-1.15-.21c-.52,0-1.01.12-1.46.35s-.79.57-1.04,1.02h-.33l.96-4.5h4.58v.26h-4.37l-.81,3.82Z"/>
          </g>
          <g class="uuid-6e91b0c8-418a-4080-9df6-127620f6d835">
            <path class="uuid-073b1eb2-486e-485e-9509-01b8b183e346" d="m334.61,907.74v.26h-6.56v-.26h6.56Z"/>
            <path class="uuid-073b1eb2-486e-485e-9509-01b8b183e346" d="m338.49,902.81c-.27.38-.62.7-1.06.98s-.87.47-1.32.6v-.26c.27-.09.51-.18.72-.29.21-.1.41-.22.59-.35.18-.13.36-.28.53-.45s.35-.35.53-.56h.29v8.92h-.26v-8.57h-.03Z"/>
            <path class="uuid-073b1eb2-486e-485e-9509-01b8b183e346" d="m343.59,911.38v-1.29h.26v1.29h-.26Z"/>
            <path class="uuid-073b1eb2-486e-485e-9509-01b8b183e346" d="m346.66,906.54h.03c.25-.42.59-.73,1.02-.92.42-.19.9-.29,1.42-.29.46,0,.88.08,1.26.23.38.15.7.37.97.64.27.27.48.6.63.98.15.38.22.79.22,1.24,0,.47-.07.9-.22,1.29-.15.38-.36.71-.63.98-.27.27-.59.48-.97.62-.38.14-.8.22-1.26.22s-.88-.07-1.27-.2c-.39-.14-.72-.33-1-.58-.27-.25-.49-.57-.64-.94-.15-.37-.21-.8-.2-1.28h.26c-.02.44.04.83.17,1.17.13.34.32.63.57.87.25.24.55.42.91.54.36.12.75.18,1.18.18s.83-.07,1.17-.2c.35-.14.64-.33.89-.58.24-.25.43-.55.56-.91.13-.35.2-.75.2-1.17s-.07-.79-.2-1.13c-.14-.35-.33-.64-.57-.89s-.54-.44-.89-.58-.73-.21-1.15-.21c-.52,0-1.01.12-1.46.35s-.79.57-1.04,1.02h-.33l.96-4.5h4.58v.26h-4.37l-.81,3.82Z"/>
          </g>
          <g class="uuid-6e91b0c8-418a-4080-9df6-127620f6d835">
            <path class="uuid-073b1eb2-486e-485e-9509-01b8b183e346" d="m435.13,907.74v.26h-6.56v-.26h6.56Z"/>
            <path class="uuid-073b1eb2-486e-485e-9509-01b8b183e346" d="m439.01,902.81c-.27.38-.62.7-1.06.98s-.87.47-1.32.6v-.26c.27-.09.51-.18.72-.29.21-.1.41-.22.59-.35.18-.13.36-.28.53-.45s.35-.35.53-.56h.29v8.92h-.26v-8.57h-.03Z"/>
          </g>
          <g class="uuid-6e91b0c8-418a-4080-9df6-127620f6d835">
            <path class="uuid-f4e70077-0434-47a0-8b50-3476c9079f5a" d="m435.13,907.74v.26h-6.56v-.26h6.56Z"/>
            <path class="uuid-f4e70077-0434-47a0-8b50-3476c9079f5a" d="m439.01,902.81c-.27.38-.62.7-1.06.98s-.87.47-1.32.6v-.26c.27-.09.51-.18.72-.29.21-.1.41-.22.59-.35.18-.13.36-.28.53-.45s.35-.35.53-.56h.29v8.92h-.26v-8.57h-.03Z"/>
          </g>
          <g class="uuid-6e91b0c8-418a-4080-9df6-127620f6d835">
            <path class="uuid-073b1eb2-486e-485e-9509-01b8b183e346" d="m435.13,907.74v.26h-6.56v-.26h6.56Z"/>
            <path class="uuid-073b1eb2-486e-485e-9509-01b8b183e346" d="m439.01,902.81c-.27.38-.62.7-1.06.98s-.87.47-1.32.6v-.26c.27-.09.51-.18.72-.29.21-.1.41-.22.59-.35.18-.13.36-.28.53-.45s.35-.35.53-.56h.29v8.92h-.26v-8.57h-.03Z"/>
          </g>
          <g class="uuid-6e91b0c8-418a-4080-9df6-127620f6d835">
            <path class="uuid-073b1eb2-486e-485e-9509-01b8b183e346" d="m522.53,907.74v.26h-6.56v-.26h6.56Z"/>
            <path class="uuid-073b1eb2-486e-485e-9509-01b8b183e346" d="m529.38,908.59c-.11.55-.3,1.04-.56,1.48-.26.44-.61.79-1.04,1.06s-.97.4-1.61.4-1.17-.13-1.61-.4-.78-.62-1.04-1.06c-.26-.44-.45-.93-.56-1.48-.11-.55-.16-1.11-.16-1.67s.05-1.11.16-1.67.3-1.04.56-1.48c.26-.44.61-.79,1.04-1.06s.97-.41,1.61-.41,1.18.14,1.61.41.77.62,1.04,1.06c.26.44.45.93.56,1.48.11.55.16,1.11.16,1.67s-.05,1.12-.16,1.67Zm-.24-3.19c-.1-.52-.26-.98-.5-1.4-.24-.42-.55-.76-.95-1.03-.4-.27-.9-.4-1.51-.4s-1.12.13-1.51.4-.71.61-.95,1.03c-.24.42-.4.89-.5,1.4s-.14,1.02-.14,1.52.05,1.01.14,1.52.26.98.5,1.4c.24.42.55.76.95,1.03s.9.4,1.51.4,1.12-.13,1.51-.4c.4-.27.71-.61.95-1.03.24-.42.4-.89.5-1.4s.14-1.02.14-1.52-.05-1-.14-1.52Z"/>
            <path class="uuid-073b1eb2-486e-485e-9509-01b8b183e346" d="m531.51,911.38v-1.29h.26v1.29h-.26Z"/>
            <path class="uuid-073b1eb2-486e-485e-9509-01b8b183e346" d="m534.58,906.54h.03c.25-.42.59-.73,1.02-.92.42-.19.9-.29,1.42-.29.46,0,.88.08,1.26.23.38.15.7.37.97.64.27.27.48.6.63.98.15.38.22.79.22,1.24,0,.47-.07.9-.22,1.29-.15.38-.36.71-.63.98-.27.27-.59.48-.97.62-.38.14-.8.22-1.26.22s-.88-.07-1.27-.2c-.39-.14-.72-.33-1-.58-.27-.25-.49-.57-.64-.94-.15-.37-.21-.8-.2-1.28h.26c-.02.44.04.83.17,1.17.13.34.32.63.57.87.25.24.55.42.91.54.36.12.75.18,1.18.18s.83-.07,1.17-.2c.35-.14.64-.33.89-.58.24-.25.43-.55.56-.91.13-.35.2-.75.2-1.17s-.07-.79-.2-1.13c-.14-.35-.33-.64-.57-.89s-.54-.44-.89-.58-.73-.21-1.15-.21c-.52,0-1.01.12-1.46.35s-.79.57-1.04,1.02h-.33l.96-4.5h4.58v.26h-4.37l-.81,3.82Z"/>
          </g>
          <g class="uuid-6e91b0c8-418a-4080-9df6-127620f6d835">
            <path class="uuid-f4e70077-0434-47a0-8b50-3476c9079f5a" d="m522.53,907.74v.26h-6.56v-.26h6.56Z"/>
            <path class="uuid-f4e70077-0434-47a0-8b50-3476c9079f5a" d="m529.38,908.59c-.11.55-.3,1.04-.56,1.48-.26.44-.61.79-1.04,1.06s-.97.4-1.61.4-1.17-.13-1.61-.4-.78-.62-1.04-1.06c-.26-.44-.45-.93-.56-1.48-.11-.55-.16-1.11-.16-1.67s.05-1.11.16-1.67.3-1.04.56-1.48c.26-.44.61-.79,1.04-1.06s.97-.41,1.61-.41,1.18.14,1.61.41.77.62,1.04,1.06c.26.44.45.93.56,1.48.11.55.16,1.11.16,1.67s-.05,1.12-.16,1.67Zm-.24-3.19c-.1-.52-.26-.98-.5-1.4-.24-.42-.55-.76-.95-1.03-.4-.27-.9-.4-1.51-.4s-1.12.13-1.51.4-.71.61-.95,1.03c-.24.42-.4.89-.5,1.4s-.14,1.02-.14,1.52.05,1.01.14,1.52.26.98.5,1.4c.24.42.55.76.95,1.03s.9.4,1.51.4,1.12-.13,1.51-.4c.4-.27.71-.61.95-1.03.24-.42.4-.89.5-1.4s.14-1.02.14-1.52-.05-1-.14-1.52Z"/>
            <path class="uuid-f4e70077-0434-47a0-8b50-3476c9079f5a" d="m531.51,911.38v-1.29h.26v1.29h-.26Z"/>
            <path class="uuid-f4e70077-0434-47a0-8b50-3476c9079f5a" d="m534.58,906.54h.03c.25-.42.59-.73,1.02-.92.42-.19.9-.29,1.42-.29.46,0,.88.08,1.26.23.38.15.7.37.97.64.27.27.48.6.63.98.15.38.22.79.22,1.24,0,.47-.07.9-.22,1.29-.15.38-.36.71-.63.98-.27.27-.59.48-.97.62-.38.14-.8.22-1.26.22s-.88-.07-1.27-.2c-.39-.14-.72-.33-1-.58-.27-.25-.49-.57-.64-.94-.15-.37-.21-.8-.2-1.28h.26c-.02.44.04.83.17,1.17.13.34.32.63.57.87.25.24.55.42.91.54.36.12.75.18,1.18.18s.83-.07,1.17-.2c.35-.14.64-.33.89-.58.24-.25.43-.55.56-.91.13-.35.2-.75.2-1.17s-.07-.79-.2-1.13c-.14-.35-.33-.64-.57-.89s-.54-.44-.89-.58-.73-.21-1.15-.21c-.52,0-1.01.12-1.46.35s-.79.57-1.04,1.02h-.33l.96-4.5h4.58v.26h-4.37l-.81,3.82Z"/>
          </g>
          <g class="uuid-6e91b0c8-418a-4080-9df6-127620f6d835">
            <path class="uuid-073b1eb2-486e-485e-9509-01b8b183e346" d="m522.53,907.74v.26h-6.56v-.26h6.56Z"/>
            <path class="uuid-073b1eb2-486e-485e-9509-01b8b183e346" d="m529.38,908.59c-.11.55-.3,1.04-.56,1.48-.26.44-.61.79-1.04,1.06s-.97.4-1.61.4-1.17-.13-1.61-.4-.78-.62-1.04-1.06c-.26-.44-.45-.93-.56-1.48-.11-.55-.16-1.11-.16-1.67s.05-1.11.16-1.67.3-1.04.56-1.48c.26-.44.61-.79,1.04-1.06s.97-.41,1.61-.41,1.18.14,1.61.41.77.62,1.04,1.06c.26.44.45.93.56,1.48.11.55.16,1.11.16,1.67s-.05,1.12-.16,1.67Zm-.24-3.19c-.1-.52-.26-.98-.5-1.4-.24-.42-.55-.76-.95-1.03-.4-.27-.9-.4-1.51-.4s-1.12.13-1.51.4-.71.61-.95,1.03c-.24.42-.4.89-.5,1.4s-.14,1.02-.14,1.52.05,1.01.14,1.52.26.98.5,1.4c.24.42.55.76.95,1.03s.9.4,1.51.4,1.12-.13,1.51-.4c.4-.27.71-.61.95-1.03.24-.42.4-.89.5-1.4s.14-1.02.14-1.52-.05-1-.14-1.52Z"/>
            <path class="uuid-073b1eb2-486e-485e-9509-01b8b183e346" d="m531.51,911.38v-1.29h.26v1.29h-.26Z"/>
            <path class="uuid-073b1eb2-486e-485e-9509-01b8b183e346" d="m534.58,906.54h.03c.25-.42.59-.73,1.02-.92.42-.19.9-.29,1.42-.29.46,0,.88.08,1.26.23.38.15.7.37.97.64.27.27.48.6.63.98.15.38.22.79.22,1.24,0,.47-.07.9-.22,1.29-.15.38-.36.71-.63.98-.27.27-.59.48-.97.62-.38.14-.8.22-1.26.22s-.88-.07-1.27-.2c-.39-.14-.72-.33-1-.58-.27-.25-.49-.57-.64-.94-.15-.37-.21-.8-.2-1.28h.26c-.02.44.04.83.17,1.17.13.34.32.63.57.87.25.24.55.42.91.54.36.12.75.18,1.18.18s.83-.07,1.17-.2c.35-.14.64-.33.89-.58.24-.25.43-.55.56-.91.13-.35.2-.75.2-1.17s-.07-.79-.2-1.13c-.14-.35-.33-.64-.57-.89s-.54-.44-.89-.58-.73-.21-1.15-.21c-.52,0-1.01.12-1.46.35s-.79.57-1.04,1.02h-.33l.96-4.5h4.58v.26h-4.37l-.81,3.82Z"/>
          </g>
          <g class="uuid-6e91b0c8-418a-4080-9df6-127620f6d835">
            <path class="uuid-073b1eb2-486e-485e-9509-01b8b183e346" d="m714.03,908.59c-.11.55-.29,1.04-.56,1.48-.26.44-.61.79-1.04,1.06-.43.27-.97.4-1.61.4s-1.17-.13-1.61-.4-.78-.62-1.04-1.06c-.26-.44-.45-.93-.56-1.48-.11-.55-.16-1.11-.16-1.67s.05-1.11.16-1.67.29-1.04.56-1.48c.26-.44.61-.79,1.04-1.06s.97-.41,1.61-.41,1.18.14,1.61.41c.43.27.77.62,1.04,1.06.26.44.45.93.56,1.48s.16,1.11.16,1.67-.05,1.12-.16,1.67Zm-.24-3.19c-.1-.52-.26-.98-.5-1.4-.24-.42-.55-.76-.95-1.03s-.9-.4-1.51-.4-1.12.13-1.51.4c-.4.27-.71.61-.95,1.03-.24.42-.4.89-.5,1.4-.1.52-.14,1.02-.14,1.52s.05,1.01.14,1.52c.1.52.26.98.5,1.4.24.42.55.76.95,1.03.4.27.9.4,1.51.4s1.12-.13,1.51-.4.71-.61.95-1.03c.24-.42.4-.89.5-1.4.1-.52.14-1.02.14-1.52s-.05-1-.14-1.52Z"/>
            <path class="uuid-073b1eb2-486e-485e-9509-01b8b183e346" d="m716.16,911.38v-1.29h.26v1.29h-.26Z"/>
            <path class="uuid-073b1eb2-486e-485e-9509-01b8b183e346" d="m719.22,906.54h.03c.25-.42.59-.73,1.02-.92s.9-.29,1.42-.29c.46,0,.88.08,1.26.23s.7.37.97.64.48.6.63.98c.15.38.22.79.22,1.24,0,.47-.07.9-.22,1.29s-.36.71-.63.98c-.27.27-.59.48-.97.62s-.8.22-1.26.22-.88-.07-1.26-.2c-.39-.14-.72-.33-1-.58-.28-.25-.49-.57-.64-.94-.15-.37-.21-.8-.2-1.28h.26c-.02.44.04.83.17,1.17s.32.63.57.87c.25.24.55.42.91.54.36.12.75.18,1.18.18s.83-.07,1.17-.2c.34-.14.64-.33.88-.58.24-.25.43-.55.56-.91.13-.35.2-.75.2-1.17s-.07-.79-.2-1.13c-.13-.35-.33-.64-.57-.89-.24-.25-.54-.44-.89-.58-.35-.14-.73-.21-1.15-.21-.52,0-1.01.12-1.46.35-.45.23-.79.57-1.04,1.02h-.33l.96-4.5h4.58v.26h-4.37l-.81,3.82Z"/>
          </g>
          <g class="uuid-6e91b0c8-418a-4080-9df6-127620f6d835">
            <path class="uuid-f4e70077-0434-47a0-8b50-3476c9079f5a" d="m714.03,908.59c-.11.55-.29,1.04-.56,1.48-.26.44-.61.79-1.04,1.06-.43.27-.97.4-1.61.4s-1.17-.13-1.61-.4-.78-.62-1.04-1.06c-.26-.44-.45-.93-.56-1.48-.11-.55-.16-1.11-.16-1.67s.05-1.11.16-1.67.29-1.04.56-1.48c.26-.44.61-.79,1.04-1.06s.97-.41,1.61-.41,1.18.14,1.61.41c.43.27.77.62,1.04,1.06.26.44.45.93.56,1.48s.16,1.11.16,1.67-.05,1.12-.16,1.67Zm-.24-3.19c-.1-.52-.26-.98-.5-1.4-.24-.42-.55-.76-.95-1.03s-.9-.4-1.51-.4-1.12.13-1.51.4c-.4.27-.71.61-.95,1.03-.24.42-.4.89-.5,1.4-.1.52-.14,1.02-.14,1.52s.05,1.01.14,1.52c.1.52.26.98.5,1.4.24.42.55.76.95,1.03.4.27.9.4,1.51.4s1.12-.13,1.51-.4.71-.61.95-1.03c.24-.42.4-.89.5-1.4.1-.52.14-1.02.14-1.52s-.05-1-.14-1.52Z"/>
            <path class="uuid-f4e70077-0434-47a0-8b50-3476c9079f5a" d="m716.16,911.38v-1.29h.26v1.29h-.26Z"/>
            <path class="uuid-f4e70077-0434-47a0-8b50-3476c9079f5a" d="m719.22,906.54h.03c.25-.42.59-.73,1.02-.92s.9-.29,1.42-.29c.46,0,.88.08,1.26.23s.7.37.97.64.48.6.63.98c.15.38.22.79.22,1.24,0,.47-.07.9-.22,1.29s-.36.71-.63.98c-.27.27-.59.48-.97.62s-.8.22-1.26.22-.88-.07-1.26-.2c-.39-.14-.72-.33-1-.58-.28-.25-.49-.57-.64-.94-.15-.37-.21-.8-.2-1.28h.26c-.02.44.04.83.17,1.17s.32.63.57.87c.25.24.55.42.91.54.36.12.75.18,1.18.18s.83-.07,1.17-.2c.34-.14.64-.33.88-.58.24-.25.43-.55.56-.91.13-.35.2-.75.2-1.17s-.07-.79-.2-1.13c-.13-.35-.33-.64-.57-.89-.24-.25-.54-.44-.89-.58-.35-.14-.73-.21-1.15-.21-.52,0-1.01.12-1.46.35-.45.23-.79.57-1.04,1.02h-.33l.96-4.5h4.58v.26h-4.37l-.81,3.82Z"/>
          </g>
          <g class="uuid-6e91b0c8-418a-4080-9df6-127620f6d835">
            <path class="uuid-073b1eb2-486e-485e-9509-01b8b183e346" d="m714.03,908.59c-.11.55-.29,1.04-.56,1.48-.26.44-.61.79-1.04,1.06-.43.27-.97.4-1.61.4s-1.17-.13-1.61-.4-.78-.62-1.04-1.06c-.26-.44-.45-.93-.56-1.48-.11-.55-.16-1.11-.16-1.67s.05-1.11.16-1.67.29-1.04.56-1.48c.26-.44.61-.79,1.04-1.06s.97-.41,1.61-.41,1.18.14,1.61.41c.43.27.77.62,1.04,1.06.26.44.45.93.56,1.48s.16,1.11.16,1.67-.05,1.12-.16,1.67Zm-.24-3.19c-.1-.52-.26-.98-.5-1.4-.24-.42-.55-.76-.95-1.03s-.9-.4-1.51-.4-1.12.13-1.51.4c-.4.27-.71.61-.95,1.03-.24.42-.4.89-.5,1.4-.1.52-.14,1.02-.14,1.52s.05,1.01.14,1.52c.1.52.26.98.5,1.4.24.42.55.76.95,1.03.4.27.9.4,1.51.4s1.12-.13,1.51-.4.71-.61.95-1.03c.24-.42.4-.89.5-1.4.1-.52.14-1.02.14-1.52s-.05-1-.14-1.52Z"/>
            <path class="uuid-073b1eb2-486e-485e-9509-01b8b183e346" d="m716.16,911.38v-1.29h.26v1.29h-.26Z"/>
            <path class="uuid-073b1eb2-486e-485e-9509-01b8b183e346" d="m719.22,906.54h.03c.25-.42.59-.73,1.02-.92s.9-.29,1.42-.29c.46,0,.88.08,1.26.23s.7.37.97.64.48.6.63.98c.15.38.22.79.22,1.24,0,.47-.07.9-.22,1.29s-.36.71-.63.98c-.27.27-.59.48-.97.62s-.8.22-1.26.22-.88-.07-1.26-.2c-.39-.14-.72-.33-1-.58-.28-.25-.49-.57-.64-.94-.15-.37-.21-.8-.2-1.28h.26c-.02.44.04.83.17,1.17s.32.63.57.87c.25.24.55.42.91.54.36.12.75.18,1.18.18s.83-.07,1.17-.2c.34-.14.64-.33.88-.58.24-.25.43-.55.56-.91.13-.35.2-.75.2-1.17s-.07-.79-.2-1.13c-.13-.35-.33-.64-.57-.89-.24-.25-.54-.44-.89-.58-.35-.14-.73-.21-1.15-.21-.52,0-1.01.12-1.46.35-.45.23-.79.57-1.04,1.02h-.33l.96-4.5h4.58v.26h-4.37l-.81,3.82Z"/>
          </g>
          <g class="uuid-6e91b0c8-418a-4080-9df6-127620f6d835">
            <path class="uuid-073b1eb2-486e-485e-9509-01b8b183e346" d="m811.57,902.81c-.27.38-.62.7-1.06.98s-.87.47-1.32.6v-.26c.27-.09.51-.18.72-.29.21-.1.41-.22.59-.35.18-.13.36-.28.53-.45.17-.17.35-.35.53-.56h.29v8.92h-.26v-8.57h-.03Z"/>
          </g>
          <g class="uuid-6e91b0c8-418a-4080-9df6-127620f6d835">
            <path class="uuid-f4e70077-0434-47a0-8b50-3476c9079f5a" d="m811.57,902.81c-.27.38-.62.7-1.06.98s-.87.47-1.32.6v-.26c.27-.09.51-.18.72-.29.21-.1.41-.22.59-.35.18-.13.36-.28.53-.45.17-.17.35-.35.53-.56h.29v8.92h-.26v-8.57h-.03Z"/>
          </g>
          <g class="uuid-6e91b0c8-418a-4080-9df6-127620f6d835">
            <path class="uuid-073b1eb2-486e-485e-9509-01b8b183e346" d="m811.57,902.81c-.27.38-.62.7-1.06.98s-.87.47-1.32.6v-.26c.27-.09.51-.18.72-.29.21-.1.41-.22.59-.35.18-.13.36-.28.53-.45.17-.17.35-.35.53-.56h.29v8.92h-.26v-8.57h-.03Z"/>
          </g>
          <g class="uuid-6e91b0c8-418a-4080-9df6-127620f6d835">
            <path class="uuid-073b1eb2-486e-485e-9509-01b8b183e346" d="m898.98,902.81c-.27.38-.62.7-1.06.98s-.87.47-1.32.6v-.26c.27-.09.51-.18.72-.29.21-.1.41-.22.59-.35.18-.13.36-.28.53-.45.17-.17.35-.35.53-.56h.29v8.92h-.26v-8.57h-.03Z"/>
            <path class="uuid-073b1eb2-486e-485e-9509-01b8b183e346" d="m904.08,911.38v-1.29h.26v1.29h-.26Z"/>
            <path class="uuid-073b1eb2-486e-485e-9509-01b8b183e346" d="m907.14,906.54h.03c.25-.42.59-.73,1.02-.92s.9-.29,1.42-.29c.46,0,.88.08,1.26.23s.7.37.97.64.48.6.63.98c.15.38.22.79.22,1.24,0,.47-.07.9-.22,1.29s-.36.71-.63.98c-.27.27-.59.48-.97.62s-.8.22-1.26.22-.88-.07-1.26-.2c-.39-.14-.72-.33-1-.58-.28-.25-.49-.57-.64-.94-.15-.37-.21-.8-.2-1.28h.26c-.02.44.04.83.17,1.17s.32.63.57.87c.25.24.55.42.91.54.36.12.75.18,1.18.18s.83-.07,1.17-.2c.34-.14.64-.33.88-.58.24-.25.43-.55.56-.91.13-.35.2-.75.2-1.17s-.07-.79-.2-1.13c-.13-.35-.33-.64-.57-.89-.24-.25-.54-.44-.89-.58-.35-.14-.73-.21-1.15-.21-.52,0-1.01.12-1.46.35-.45.23-.79.57-1.04,1.02h-.33l.96-4.5h4.58v.26h-4.37l-.81,3.82Z"/>
          </g>
          <g class="uuid-6e91b0c8-418a-4080-9df6-127620f6d835">
            <path class="uuid-f4e70077-0434-47a0-8b50-3476c9079f5a" d="m898.98,902.81c-.27.38-.62.7-1.06.98s-.87.47-1.32.6v-.26c.27-.09.51-.18.72-.29.21-.1.41-.22.59-.35.18-.13.36-.28.53-.45.17-.17.35-.35.53-.56h.29v8.92h-.26v-8.57h-.03Z"/>
            <path class="uuid-f4e70077-0434-47a0-8b50-3476c9079f5a" d="m904.08,911.38v-1.29h.26v1.29h-.26Z"/>
            <path class="uuid-f4e70077-0434-47a0-8b50-3476c9079f5a" d="m907.14,906.54h.03c.25-.42.59-.73,1.02-.92s.9-.29,1.42-.29c.46,0,.88.08,1.26.23s.7.37.97.64.48.6.63.98c.15.38.22.79.22,1.24,0,.47-.07.9-.22,1.29s-.36.71-.63.98c-.27.27-.59.48-.97.62s-.8.22-1.26.22-.88-.07-1.26-.2c-.39-.14-.72-.33-1-.58-.28-.25-.49-.57-.64-.94-.15-.37-.21-.8-.2-1.28h.26c-.02.44.04.83.17,1.17s.32.63.57.87c.25.24.55.42.91.54.36.12.75.18,1.18.18s.83-.07,1.17-.2c.34-.14.64-.33.88-.58.24-.25.43-.55.56-.91.13-.35.2-.75.2-1.17s-.07-.79-.2-1.13c-.13-.35-.33-.64-.57-.89-.24-.25-.54-.44-.89-.58-.35-.14-.73-.21-1.15-.21-.52,0-1.01.12-1.46.35-.45.23-.79.57-1.04,1.02h-.33l.96-4.5h4.58v.26h-4.37l-.81,3.82Z"/>
          </g>
          <g class="uuid-6e91b0c8-418a-4080-9df6-127620f6d835">
            <path class="uuid-073b1eb2-486e-485e-9509-01b8b183e346" d="m898.98,902.81c-.27.38-.62.7-1.06.98s-.87.47-1.32.6v-.26c.27-.09.51-.18.72-.29.21-.1.41-.22.59-.35.18-.13.36-.28.53-.45.17-.17.35-.35.53-.56h.29v8.92h-.26v-8.57h-.03Z"/>
            <path class="uuid-073b1eb2-486e-485e-9509-01b8b183e346" d="m904.08,911.38v-1.29h.26v1.29h-.26Z"/>
            <path class="uuid-073b1eb2-486e-485e-9509-01b8b183e346" d="m907.14,906.54h.03c.25-.42.59-.73,1.02-.92s.9-.29,1.42-.29c.46,0,.88.08,1.26.23s.7.37.97.64.48.6.63.98c.15.38.22.79.22,1.24,0,.47-.07.9-.22,1.29s-.36.71-.63.98c-.27.27-.59.48-.97.62s-.8.22-1.26.22-.88-.07-1.26-.2c-.39-.14-.72-.33-1-.58-.28-.25-.49-.57-.64-.94-.15-.37-.21-.8-.2-1.28h.26c-.02.44.04.83.17,1.17s.32.63.57.87c.25.24.55.42.91.54.36.12.75.18,1.18.18s.83-.07,1.17-.2c.34-.14.64-.33.88-.58.24-.25.43-.55.56-.91.13-.35.2-.75.2-1.17s-.07-.79-.2-1.13c-.13-.35-.33-.64-.57-.89-.24-.25-.54-.44-.89-.58-.35-.14-.73-.21-1.15-.21-.52,0-1.01.12-1.46.35-.45.23-.79.57-1.04,1.02h-.33l.96-4.5h4.58v.26h-4.37l-.81,3.82Z"/>
          </g>
          <g class="uuid-6e91b0c8-418a-4080-9df6-127620f6d835">
            <path class="uuid-073b1eb2-486e-485e-9509-01b8b183e346" d="m1002.33,911.38h-6c0-.38.07-.72.24-1.02s.38-.59.66-.86c.27-.27.58-.52.91-.76.34-.24.67-.48,1-.71.34-.24.67-.48,1-.72.32-.25.61-.5.87-.77.25-.27.46-.55.61-.85.15-.3.23-.63.23-.98s-.06-.66-.19-.92c-.13-.27-.3-.49-.52-.67-.22-.18-.48-.31-.78-.41s-.63-.14-.99-.14c-.46,0-.86.07-1.19.21s-.6.33-.81.58c-.21.25-.36.55-.46.89-.1.35-.14.72-.14,1.13h-.26c0-.98.25-1.74.73-2.28.48-.54,1.19-.81,2.14-.81.38,0,.74.05,1.08.15.33.1.62.25.87.45.24.2.44.45.58.75.14.3.22.65.22,1.05,0,.49-.13.94-.39,1.34-.26.4-.59.78-.99,1.13-.4.35-.83.68-1.29.99-.46.31-.9.62-1.3.93-.41.31-.75.63-1.04.96-.29.33-.45.68-.49,1.07h5.74v.26Z"/>
          </g>
          <g class="uuid-6e91b0c8-418a-4080-9df6-127620f6d835">
            <path class="uuid-f4e70077-0434-47a0-8b50-3476c9079f5a" d="m1002.33,911.38h-6c0-.38.07-.72.24-1.02s.38-.59.66-.86c.27-.27.58-.52.91-.76.34-.24.67-.48,1-.71.34-.24.67-.48,1-.72.32-.25.61-.5.87-.77.25-.27.46-.55.61-.85.15-.3.23-.63.23-.98s-.06-.66-.19-.92c-.13-.27-.3-.49-.52-.67-.22-.18-.48-.31-.78-.41s-.63-.14-.99-.14c-.46,0-.86.07-1.19.21s-.6.33-.81.58c-.21.25-.36.55-.46.89-.1.35-.14.72-.14,1.13h-.26c0-.98.25-1.74.73-2.28.48-.54,1.19-.81,2.14-.81.38,0,.74.05,1.08.15.33.1.62.25.87.45.24.2.44.45.58.75.14.3.22.65.22,1.05,0,.49-.13.94-.39,1.34-.26.4-.59.78-.99,1.13-.4.35-.83.68-1.29.99-.46.31-.9.62-1.3.93-.41.31-.75.63-1.04.96-.29.33-.45.68-.49,1.07h5.74v.26Z"/>
          </g>
          <g class="uuid-6e91b0c8-418a-4080-9df6-127620f6d835">
            <path class="uuid-073b1eb2-486e-485e-9509-01b8b183e346" d="m1002.33,911.38h-6c0-.38.07-.72.24-1.02s.38-.59.66-.86c.27-.27.58-.52.91-.76.34-.24.67-.48,1-.71.34-.24.67-.48,1-.72.32-.25.61-.5.87-.77.25-.27.46-.55.61-.85.15-.3.23-.63.23-.98s-.06-.66-.19-.92c-.13-.27-.3-.49-.52-.67-.22-.18-.48-.31-.78-.41s-.63-.14-.99-.14c-.46,0-.86.07-1.19.21s-.6.33-.81.58c-.21.25-.36.55-.46.89-.1.35-.14.72-.14,1.13h-.26c0-.98.25-1.74.73-2.28.48-.54,1.19-.81,2.14-.81.38,0,.74.05,1.08.15.33.1.62.25.87.45.24.2.44.45.58.75.14.3.22.65.22,1.05,0,.49-.13.94-.39,1.34-.26.4-.59.78-.99,1.13-.4.35-.83.68-1.29.99-.46.31-.9.62-1.3.93-.41.31-.75.63-1.04.96-.29.33-.45.68-.49,1.07h5.74v.26Z"/>
          </g>
          <g class="uuid-6e91b0c8-418a-4080-9df6-127620f6d835">
            <path class="uuid-073b1eb2-486e-485e-9509-01b8b183e346" d="m1089.74,911.38h-6c0-.38.07-.72.24-1.02s.38-.59.66-.86c.27-.27.58-.52.91-.76.34-.24.67-.48,1-.71.34-.24.67-.48,1-.72.32-.25.61-.5.87-.77.25-.27.46-.55.61-.85.15-.3.23-.63.23-.98s-.06-.66-.19-.92c-.13-.27-.3-.49-.52-.67-.22-.18-.48-.31-.78-.41s-.63-.14-.99-.14c-.46,0-.86.07-1.19.21s-.6.33-.81.58c-.21.25-.36.55-.46.89-.1.35-.14.72-.14,1.13h-.26c0-.98.25-1.74.73-2.28.48-.54,1.19-.81,2.14-.81.38,0,.74.05,1.08.15.33.1.62.25.87.45.24.2.44.45.58.75.14.3.22.65.22,1.05,0,.49-.13.94-.39,1.34-.26.4-.59.78-.99,1.13-.4.35-.83.68-1.29.99-.46.31-.9.62-1.3.93-.41.31-.75.63-1.04.96-.29.33-.45.68-.49,1.07h5.74v.26Z"/>
            <path class="uuid-073b1eb2-486e-485e-9509-01b8b183e346" d="m1092,911.38v-1.29h.26v1.29h-.26Z"/>
            <path class="uuid-073b1eb2-486e-485e-9509-01b8b183e346" d="m1095.06,906.54h.03c.25-.42.59-.73,1.02-.92s.9-.29,1.42-.29c.46,0,.88.08,1.26.23s.7.37.97.64.48.6.63.98c.15.38.22.79.22,1.24,0,.47-.07.9-.22,1.29s-.36.71-.63.98c-.27.27-.59.48-.97.62s-.8.22-1.26.22-.88-.07-1.26-.2c-.39-.14-.72-.33-1-.58-.28-.25-.49-.57-.64-.94-.15-.37-.21-.8-.2-1.28h.26c-.02.44.04.83.17,1.17s.32.63.57.87c.25.24.55.42.91.54.36.12.75.18,1.18.18s.83-.07,1.17-.2c.34-.14.64-.33.88-.58.24-.25.43-.55.56-.91.13-.35.2-.75.2-1.17s-.07-.79-.2-1.13c-.13-.35-.33-.64-.57-.89-.24-.25-.54-.44-.89-.58-.35-.14-.73-.21-1.15-.21-.52,0-1.01.12-1.46.35-.45.23-.79.57-1.04,1.02h-.33l.96-4.5h4.58v.26h-4.37l-.81,3.82Z"/>
          </g>
          <g class="uuid-6e91b0c8-418a-4080-9df6-127620f6d835">
            <path class="uuid-f4e70077-0434-47a0-8b50-3476c9079f5a" d="m1089.74,911.38h-6c0-.38.07-.72.24-1.02s.38-.59.66-.86c.27-.27.58-.52.91-.76.34-.24.67-.48,1-.71.34-.24.67-.48,1-.72.32-.25.61-.5.87-.77.25-.27.46-.55.61-.85.15-.3.23-.63.23-.98s-.06-.66-.19-.92c-.13-.27-.3-.49-.52-.67-.22-.18-.48-.31-.78-.41s-.63-.14-.99-.14c-.46,0-.86.07-1.19.21s-.6.33-.81.58c-.21.25-.36.55-.46.89-.1.35-.14.72-.14,1.13h-.26c0-.98.25-1.74.73-2.28.48-.54,1.19-.81,2.14-.81.38,0,.74.05,1.08.15.33.1.62.25.87.45.24.2.44.45.58.75.14.3.22.65.22,1.05,0,.49-.13.94-.39,1.34-.26.4-.59.78-.99,1.13-.4.35-.83.68-1.29.99-.46.31-.9.62-1.3.93-.41.31-.75.63-1.04.96-.29.33-.45.68-.49,1.07h5.74v.26Z"/>
            <path class="uuid-f4e70077-0434-47a0-8b50-3476c9079f5a" d="m1092,911.38v-1.29h.26v1.29h-.26Z"/>
            <path class="uuid-f4e70077-0434-47a0-8b50-3476c9079f5a" d="m1095.06,906.54h.03c.25-.42.59-.73,1.02-.92s.9-.29,1.42-.29c.46,0,.88.08,1.26.23s.7.37.97.64.48.6.63.98c.15.38.22.79.22,1.24,0,.47-.07.9-.22,1.29s-.36.71-.63.98c-.27.27-.59.48-.97.62s-.8.22-1.26.22-.88-.07-1.26-.2c-.39-.14-.72-.33-1-.58-.28-.25-.49-.57-.64-.94-.15-.37-.21-.8-.2-1.28h.26c-.02.44.04.83.17,1.17s.32.63.57.87c.25.24.55.42.91.54.36.12.75.18,1.18.18s.83-.07,1.17-.2c.34-.14.64-.33.88-.58.24-.25.43-.55.56-.91.13-.35.2-.75.2-1.17s-.07-.79-.2-1.13c-.13-.35-.33-.64-.57-.89-.24-.25-.54-.44-.89-.58-.35-.14-.73-.21-1.15-.21-.52,0-1.01.12-1.46.35-.45.23-.79.57-1.04,1.02h-.33l.96-4.5h4.58v.26h-4.37l-.81,3.82Z"/>
          </g>
          <g class="uuid-6e91b0c8-418a-4080-9df6-127620f6d835">
            <path class="uuid-073b1eb2-486e-485e-9509-01b8b183e346" d="m1089.74,911.38h-6c0-.38.07-.72.24-1.02s.38-.59.66-.86c.27-.27.58-.52.91-.76.34-.24.67-.48,1-.71.34-.24.67-.48,1-.72.32-.25.61-.5.87-.77.25-.27.46-.55.61-.85.15-.3.23-.63.23-.98s-.06-.66-.19-.92c-.13-.27-.3-.49-.52-.67-.22-.18-.48-.31-.78-.41s-.63-.14-.99-.14c-.46,0-.86.07-1.19.21s-.6.33-.81.58c-.21.25-.36.55-.46.89-.1.35-.14.72-.14,1.13h-.26c0-.98.25-1.74.73-2.28.48-.54,1.19-.81,2.14-.81.38,0,.74.05,1.08.15.33.1.62.25.87.45.24.2.44.45.58.75.14.3.22.65.22,1.05,0,.49-.13.94-.39,1.34-.26.4-.59.78-.99,1.13-.4.35-.83.68-1.29.99-.46.31-.9.62-1.3.93-.41.31-.75.63-1.04.96-.29.33-.45.68-.49,1.07h5.74v.26Z"/>
            <path class="uuid-073b1eb2-486e-485e-9509-01b8b183e346" d="m1092,911.38v-1.29h.26v1.29h-.26Z"/>
            <path class="uuid-073b1eb2-486e-485e-9509-01b8b183e346" d="m1095.06,906.54h.03c.25-.42.59-.73,1.02-.92s.9-.29,1.42-.29c.46,0,.88.08,1.26.23s.7.37.97.64.48.6.63.98c.15.38.22.79.22,1.24,0,.47-.07.9-.22,1.29s-.36.71-.63.98c-.27.27-.59.48-.97.62s-.8.22-1.26.22-.88-.07-1.26-.2c-.39-.14-.72-.33-1-.58-.28-.25-.49-.57-.64-.94-.15-.37-.21-.8-.2-1.28h.26c-.02.44.04.83.17,1.17s.32.63.57.87c.25.24.55.42.91.54.36.12.75.18,1.18.18s.83-.07,1.17-.2c.34-.14.64-.33.88-.58.24-.25.43-.55.56-.91.13-.35.2-.75.2-1.17s-.07-.79-.2-1.13c-.13-.35-.33-.64-.57-.89-.24-.25-.54-.44-.89-.58-.35-.14-.73-.21-1.15-.21-.52,0-1.01.12-1.46.35-.45.23-.79.57-1.04,1.02h-.33l.96-4.5h4.58v.26h-4.37l-.81,3.82Z"/>
          </g>
          <g class="uuid-6e91b0c8-418a-4080-9df6-127620f6d835">
            <path class="uuid-073b1eb2-486e-485e-9509-01b8b183e346" d="m1184.5,903.95c.14-.36.34-.67.61-.91.27-.24.59-.43.97-.55.38-.12.8-.18,1.27-.18.36,0,.7.04,1.04.12.33.08.63.21.89.38.26.17.47.4.63.68s.24.62.24,1.01c0,.63-.18,1.12-.54,1.47-.36.35-.82.55-1.37.6v.03c.26.03.52.09.77.19.25.1.47.25.67.43.2.19.35.42.47.7.12.28.18.61.18,1,0,.42-.08.79-.24,1.11-.16.32-.38.6-.66.82-.28.22-.59.39-.96.5-.36.11-.75.17-1.16.17-.51,0-.97-.07-1.38-.21-.41-.14-.76-.34-1.05-.61-.29-.27-.5-.6-.65-.99s-.2-.84-.16-1.35h.26c-.04.47.01.89.14,1.25.13.36.33.67.59.91.26.25.59.43.97.56s.81.19,1.27.19c.36,0,.7-.05,1.04-.15.33-.1.62-.25.88-.45s.46-.45.61-.74c.15-.29.23-.63.23-1.02s-.06-.71-.19-.98c-.13-.27-.31-.49-.54-.67-.23-.17-.5-.31-.81-.39-.31-.09-.65-.14-1.02-.16h-.64v-.26h.64c.29,0,.58-.03.86-.1s.54-.17.77-.33c.23-.15.41-.35.55-.6s.21-.56.21-.92c0-.36-.09-.66-.24-.91-.15-.24-.34-.44-.58-.6-.24-.15-.5-.26-.8-.33-.3-.07-.6-.1-.92-.1-.43,0-.82.05-1.16.16-.35.11-.64.28-.89.5-.24.22-.43.5-.56.83-.13.33-.19.72-.18,1.17h-.26c0-.49.06-.92.2-1.28Z"/>
          </g>
          <g class="uuid-6e91b0c8-418a-4080-9df6-127620f6d835">
            <path class="uuid-f4e70077-0434-47a0-8b50-3476c9079f5a" d="m1184.5,903.95c.14-.36.34-.67.61-.91.27-.24.59-.43.97-.55.38-.12.8-.18,1.27-.18.36,0,.7.04,1.04.12.33.08.63.21.89.38.26.17.47.4.63.68s.24.62.24,1.01c0,.63-.18,1.12-.54,1.47-.36.35-.82.55-1.37.6v.03c.26.03.52.09.77.19.25.1.47.25.67.43.2.19.35.42.47.7.12.28.18.61.18,1,0,.42-.08.79-.24,1.11-.16.32-.38.6-.66.82-.28.22-.59.39-.96.5-.36.11-.75.17-1.16.17-.51,0-.97-.07-1.38-.21-.41-.14-.76-.34-1.05-.61-.29-.27-.5-.6-.65-.99s-.2-.84-.16-1.35h.26c-.04.47.01.89.14,1.25.13.36.33.67.59.91.26.25.59.43.97.56s.81.19,1.27.19c.36,0,.7-.05,1.04-.15.33-.1.62-.25.88-.45s.46-.45.61-.74c.15-.29.23-.63.23-1.02s-.06-.71-.19-.98c-.13-.27-.31-.49-.54-.67-.23-.17-.5-.31-.81-.39-.31-.09-.65-.14-1.02-.16h-.64v-.26h.64c.29,0,.58-.03.86-.1s.54-.17.77-.33c.23-.15.41-.35.55-.6s.21-.56.21-.92c0-.36-.09-.66-.24-.91-.15-.24-.34-.44-.58-.6-.24-.15-.5-.26-.8-.33-.3-.07-.6-.1-.92-.1-.43,0-.82.05-1.16.16-.35.11-.64.28-.89.5-.24.22-.43.5-.56.83-.13.33-.19.72-.18,1.17h-.26c0-.49.06-.92.2-1.28Z"/>
          </g>
          <g class="uuid-6e91b0c8-418a-4080-9df6-127620f6d835">
            <path class="uuid-073b1eb2-486e-485e-9509-01b8b183e346" d="m1184.5,903.95c.14-.36.34-.67.61-.91.27-.24.59-.43.97-.55.38-.12.8-.18,1.27-.18.36,0,.7.04,1.04.12.33.08.63.21.89.38.26.17.47.4.63.68s.24.62.24,1.01c0,.63-.18,1.12-.54,1.47-.36.35-.82.55-1.37.6v.03c.26.03.52.09.77.19.25.1.47.25.67.43.2.19.35.42.47.7.12.28.18.61.18,1,0,.42-.08.79-.24,1.11-.16.32-.38.6-.66.82-.28.22-.59.39-.96.5-.36.11-.75.17-1.16.17-.51,0-.97-.07-1.38-.21-.41-.14-.76-.34-1.05-.61-.29-.27-.5-.6-.65-.99s-.2-.84-.16-1.35h.26c-.04.47.01.89.14,1.25.13.36.33.67.59.91.26.25.59.43.97.56s.81.19,1.27.19c.36,0,.7-.05,1.04-.15.33-.1.62-.25.88-.45s.46-.45.61-.74c.15-.29.23-.63.23-1.02s-.06-.71-.19-.98c-.13-.27-.31-.49-.54-.67-.23-.17-.5-.31-.81-.39-.31-.09-.65-.14-1.02-.16h-.64v-.26h.64c.29,0,.58-.03.86-.1s.54-.17.77-.33c.23-.15.41-.35.55-.6s.21-.56.21-.92c0-.36-.09-.66-.24-.91-.15-.24-.34-.44-.58-.6-.24-.15-.5-.26-.8-.33-.3-.07-.6-.1-.92-.1-.43,0-.82.05-1.16.16-.35.11-.64.28-.89.5-.24.22-.43.5-.56.83-.13.33-.19.72-.18,1.17h-.26c0-.49.06-.92.2-1.28Z"/>
          </g>
          <g class="uuid-6e91b0c8-418a-4080-9df6-127620f6d835">
            <path class="uuid-073b1eb2-486e-485e-9509-01b8b183e346" d="m606.66,989.68v.26h-6.56v-.26h6.56Z"/>
            <path class="uuid-073b1eb2-486e-485e-9509-01b8b183e346" d="m610.54,984.75c-.27.38-.62.7-1.06.98s-.87.47-1.32.6v-.26c.27-.09.51-.18.72-.29.21-.1.41-.22.59-.35.18-.13.36-.28.53-.45s.35-.35.53-.56h.29v8.92h-.26v-8.57h-.03Z"/>
          </g>
          <g class="uuid-6e91b0c8-418a-4080-9df6-127620f6d835">
            <path class="uuid-f4e70077-0434-47a0-8b50-3476c9079f5a" d="m606.66,989.68v.26h-6.56v-.26h6.56Z"/>
            <path class="uuid-f4e70077-0434-47a0-8b50-3476c9079f5a" d="m610.54,984.75c-.27.38-.62.7-1.06.98s-.87.47-1.32.6v-.26c.27-.09.51-.18.72-.29.21-.1.41-.22.59-.35.18-.13.36-.28.53-.45s.35-.35.53-.56h.29v8.92h-.26v-8.57h-.03Z"/>
          </g>
          <g class="uuid-6e91b0c8-418a-4080-9df6-127620f6d835">
            <path class="uuid-073b1eb2-486e-485e-9509-01b8b183e346" d="m606.66,989.68v.26h-6.56v-.26h6.56Z"/>
            <path class="uuid-073b1eb2-486e-485e-9509-01b8b183e346" d="m610.54,984.75c-.27.38-.62.7-1.06.98s-.87.47-1.32.6v-.26c.27-.09.51-.18.72-.29.21-.1.41-.22.59-.35.18-.13.36-.28.53-.45s.35-.35.53-.56h.29v8.92h-.26v-8.57h-.03Z"/>
          </g>
          <g class="uuid-6e91b0c8-418a-4080-9df6-127620f6d835">
            <path class="uuid-073b1eb2-486e-485e-9509-01b8b183e346" d="m610.54,796.83c-.27.38-.62.7-1.06.98s-.87.47-1.32.6v-.26c.27-.09.51-.18.72-.29.21-.1.41-.22.59-.35.18-.13.36-.28.53-.45s.35-.35.53-.56h.29v8.92h-.26v-8.57h-.03Z"/>
          </g>
          <g class="uuid-6e91b0c8-418a-4080-9df6-127620f6d835">
            <path class="uuid-f4e70077-0434-47a0-8b50-3476c9079f5a" d="m610.54,796.83c-.27.38-.62.7-1.06.98s-.87.47-1.32.6v-.26c.27-.09.51-.18.72-.29.21-.1.41-.22.59-.35.18-.13.36-.28.53-.45s.35-.35.53-.56h.29v8.92h-.26v-8.57h-.03Z"/>
          </g>
          <g class="uuid-6e91b0c8-418a-4080-9df6-127620f6d835">
            <path class="uuid-073b1eb2-486e-485e-9509-01b8b183e346" d="m610.54,796.83c-.27.38-.62.7-1.06.98s-.87.47-1.32.6v-.26c.27-.09.51-.18.72-.29.21-.1.41-.22.59-.35.18-.13.36-.28.53-.45s.35-.35.53-.56h.29v8.92h-.26v-8.57h-.03Z"/>
          </g>
          <g class="uuid-6e91b0c8-418a-4080-9df6-127620f6d835">
            <path class="uuid-073b1eb2-486e-485e-9509-01b8b183e346" d="m613.38,711.44h-6c0-.38.07-.72.24-1.02s.38-.59.66-.86c.27-.27.57-.52.91-.76.34-.24.67-.48,1-.71.34-.24.67-.48,1-.72.32-.25.61-.5.87-.77.25-.27.46-.55.61-.85.15-.3.23-.63.23-.98s-.06-.66-.19-.92c-.13-.27-.3-.49-.52-.67-.22-.18-.48-.31-.78-.41-.3-.09-.63-.14-.99-.14-.46,0-.86.07-1.19.21-.33.14-.6.33-.81.58-.21.25-.36.55-.46.89-.1.35-.14.72-.14,1.13h-.26c0-.98.25-1.74.73-2.28.48-.54,1.19-.81,2.14-.81.38,0,.74.05,1.08.15s.62.25.87.45.44.45.58.75c.14.3.22.65.22,1.05,0,.49-.13.94-.39,1.34s-.59.78-.99,1.13c-.4.35-.83.68-1.29.99-.46.31-.9.62-1.3.93-.41.31-.75.63-1.04.96-.29.33-.45.68-.48,1.07h5.74v.26Z"/>
          </g>
          <g class="uuid-6e91b0c8-418a-4080-9df6-127620f6d835">
            <path class="uuid-f4e70077-0434-47a0-8b50-3476c9079f5a" d="m613.38,711.44h-6c0-.38.07-.72.24-1.02s.38-.59.66-.86c.27-.27.57-.52.91-.76.34-.24.67-.48,1-.71.34-.24.67-.48,1-.72.32-.25.61-.5.87-.77.25-.27.46-.55.61-.85.15-.3.23-.63.23-.98s-.06-.66-.19-.92c-.13-.27-.3-.49-.52-.67-.22-.18-.48-.31-.78-.41-.3-.09-.63-.14-.99-.14-.46,0-.86.07-1.19.21-.33.14-.6.33-.81.58-.21.25-.36.55-.46.89-.1.35-.14.72-.14,1.13h-.26c0-.98.25-1.74.73-2.28.48-.54,1.19-.81,2.14-.81.38,0,.74.05,1.08.15s.62.25.87.45.44.45.58.75c.14.3.22.65.22,1.05,0,.49-.13.94-.39,1.34s-.59.78-.99,1.13c-.4.35-.83.68-1.29.99-.46.31-.9.62-1.3.93-.41.31-.75.63-1.04.96-.29.33-.45.68-.48,1.07h5.74v.26Z"/>
          </g>
          <g class="uuid-6e91b0c8-418a-4080-9df6-127620f6d835">
            <path class="uuid-073b1eb2-486e-485e-9509-01b8b183e346" d="m613.38,711.44h-6c0-.38.07-.72.24-1.02s.38-.59.66-.86c.27-.27.57-.52.91-.76.34-.24.67-.48,1-.71.34-.24.67-.48,1-.72.32-.25.61-.5.87-.77.25-.27.46-.55.61-.85.15-.3.23-.63.23-.98s-.06-.66-.19-.92c-.13-.27-.3-.49-.52-.67-.22-.18-.48-.31-.78-.41-.3-.09-.63-.14-.99-.14-.46,0-.86.07-1.19.21-.33.14-.6.33-.81.58-.21.25-.36.55-.46.89-.1.35-.14.72-.14,1.13h-.26c0-.98.25-1.74.73-2.28.48-.54,1.19-.81,2.14-.81.38,0,.74.05,1.08.15s.62.25.87.45.44.45.58.75c.14.3.22.65.22,1.05,0,.49-.13.94-.39,1.34s-.59.78-.99,1.13c-.4.35-.83.68-1.29.99-.46.31-.9.62-1.3.93-.41.31-.75.63-1.04.96-.29.33-.45.68-.48,1.07h5.74v.26Z"/>
          </g>
          <g class="uuid-6e91b0c8-418a-4080-9df6-127620f6d835">
            <path class="uuid-073b1eb2-486e-485e-9509-01b8b183e346" d="m607.63,610.06c.14-.36.34-.67.61-.91.27-.24.59-.43.97-.55.38-.12.8-.18,1.27-.18.36,0,.7.04,1.04.12.33.08.63.21.89.38s.47.4.63.68c.16.28.24.62.24,1.01,0,.63-.18,1.12-.54,1.47s-.82.55-1.37.6v.03c.26.03.52.09.77.19.25.1.47.25.67.43.2.19.35.42.47.7.12.28.18.61.18,1,0,.42-.08.79-.24,1.11s-.38.6-.66.82c-.28.22-.59.39-.96.5s-.75.17-1.16.17c-.51,0-.97-.07-1.38-.21-.41-.14-.76-.34-1.05-.61-.29-.27-.5-.6-.65-.99-.14-.39-.2-.84-.16-1.35h.26c-.04.47.01.89.14,1.25.13.36.33.67.59.91.26.25.59.43.97.56.38.13.81.19,1.27.19.36,0,.7-.05,1.04-.15s.62-.25.88-.45.46-.45.61-.74c.15-.29.23-.63.23-1.02s-.06-.71-.19-.98c-.13-.27-.31-.49-.54-.67-.23-.17-.5-.31-.81-.39-.31-.09-.65-.14-1.02-.16h-.64v-.26h.64c.29,0,.57-.03.86-.1.28-.07.54-.17.77-.33.23-.15.41-.35.55-.6s.21-.56.21-.92c0-.36-.09-.66-.24-.91-.15-.24-.34-.44-.58-.6-.24-.15-.5-.26-.8-.33-.3-.07-.6-.1-.92-.1-.43,0-.82.05-1.16.16s-.64.28-.88.5c-.25.22-.43.5-.56.83-.13.33-.19.72-.18,1.17h-.26c0-.49.06-.92.2-1.28Z"/>
          </g>
          <g class="uuid-6e91b0c8-418a-4080-9df6-127620f6d835">
            <path class="uuid-f4e70077-0434-47a0-8b50-3476c9079f5a" d="m607.63,610.06c.14-.36.34-.67.61-.91.27-.24.59-.43.97-.55.38-.12.8-.18,1.27-.18.36,0,.7.04,1.04.12.33.08.63.21.89.38s.47.4.63.68c.16.28.24.62.24,1.01,0,.63-.18,1.12-.54,1.47s-.82.55-1.37.6v.03c.26.03.52.09.77.19.25.1.47.25.67.43.2.19.35.42.47.7.12.28.18.61.18,1,0,.42-.08.79-.24,1.11s-.38.6-.66.82c-.28.22-.59.39-.96.5s-.75.17-1.16.17c-.51,0-.97-.07-1.38-.21-.41-.14-.76-.34-1.05-.61-.29-.27-.5-.6-.65-.99-.14-.39-.2-.84-.16-1.35h.26c-.04.47.01.89.14,1.25.13.36.33.67.59.91.26.25.59.43.97.56.38.13.81.19,1.27.19.36,0,.7-.05,1.04-.15s.62-.25.88-.45.46-.45.61-.74c.15-.29.23-.63.23-1.02s-.06-.71-.19-.98c-.13-.27-.31-.49-.54-.67-.23-.17-.5-.31-.81-.39-.31-.09-.65-.14-1.02-.16h-.64v-.26h.64c.29,0,.57-.03.86-.1.28-.07.54-.17.77-.33.23-.15.41-.35.55-.6s.21-.56.21-.92c0-.36-.09-.66-.24-.91-.15-.24-.34-.44-.58-.6-.24-.15-.5-.26-.8-.33-.3-.07-.6-.1-.92-.1-.43,0-.82.05-1.16.16s-.64.28-.88.5c-.25.22-.43.5-.56.83-.13.33-.19.72-.18,1.17h-.26c0-.49.06-.92.2-1.28Z"/>
          </g>
          <g class="uuid-6e91b0c8-418a-4080-9df6-127620f6d835">
            <path class="uuid-073b1eb2-486e-485e-9509-01b8b183e346" d="m607.63,610.06c.14-.36.34-.67.61-.91.27-.24.59-.43.97-.55.38-.12.8-.18,1.27-.18.36,0,.7.04,1.04.12.33.08.63.21.89.38s.47.4.63.68c.16.28.24.62.24,1.01,0,.63-.18,1.12-.54,1.47s-.82.55-1.37.6v.03c.26.03.52.09.77.19.25.1.47.25.67.43.2.19.35.42.47.7.12.28.18.61.18,1,0,.42-.08.79-.24,1.11s-.38.6-.66.82c-.28.22-.59.39-.96.5s-.75.17-1.16.17c-.51,0-.97-.07-1.38-.21-.41-.14-.76-.34-1.05-.61-.29-.27-.5-.6-.65-.99-.14-.39-.2-.84-.16-1.35h.26c-.04.47.01.89.14,1.25.13.36.33.67.59.91.26.25.59.43.97.56.38.13.81.19,1.27.19.36,0,.7-.05,1.04-.15s.62-.25.88-.45.46-.45.61-.74c.15-.29.23-.63.23-1.02s-.06-.71-.19-.98c-.13-.27-.31-.49-.54-.67-.23-.17-.5-.31-.81-.39-.31-.09-.65-.14-1.02-.16h-.64v-.26h.64c.29,0,.57-.03.86-.1.28-.07.54-.17.77-.33.23-.15.41-.35.55-.6s.21-.56.21-.92c0-.36-.09-.66-.24-.91-.15-.24-.34-.44-.58-.6-.24-.15-.5-.26-.8-.33-.3-.07-.6-.1-.92-.1-.43,0-.82.05-1.16.16s-.64.28-.88.5c-.25.22-.43.5-.56.83-.13.33-.19.72-.18,1.17h-.26c0-.49.06-.92.2-1.28Z"/>
          </g>
          <g class="uuid-6e91b0c8-418a-4080-9df6-127620f6d835">
            <path class="uuid-073b1eb2-486e-485e-9509-01b8b183e346" d="m607.1,520.89l4.46-6.28h.33v6.33h1.61v.26h-1.61v2.32h-.26v-2.32h-4.52v-.31Zm4.5-5.91l-4.23,5.96h4.26v-5.96h-.03Z"/>
          </g>
          <g class="uuid-6e91b0c8-418a-4080-9df6-127620f6d835">
            <path class="uuid-f4e70077-0434-47a0-8b50-3476c9079f5a" d="m607.1,520.89l4.46-6.28h.33v6.33h1.61v.26h-1.61v2.32h-.26v-2.32h-4.52v-.31Zm4.5-5.91l-4.23,5.96h4.26v-5.96h-.03Z"/>
          </g>
          <g class="uuid-6e91b0c8-418a-4080-9df6-127620f6d835">
            <path class="uuid-073b1eb2-486e-485e-9509-01b8b183e346" d="m607.1,520.89l4.46-6.28h.33v6.33h1.61v.26h-1.61v2.32h-.26v-2.32h-4.52v-.31Zm4.5-5.91l-4.23,5.96h4.26v-5.96h-.03Z"/>
          </g>
          <g class="uuid-6e91b0c8-418a-4080-9df6-127620f6d835">
            <path class="uuid-073b1eb2-486e-485e-9509-01b8b183e346" d="m607.77,424.72h.03c.25-.42.59-.73,1.02-.92.42-.19.9-.29,1.42-.29.46,0,.88.08,1.26.23.38.15.7.36.97.64s.48.6.63.98c.15.38.22.79.22,1.24,0,.47-.07.9-.22,1.28-.15.38-.36.71-.63.98s-.59.48-.97.62c-.38.14-.8.22-1.26.22s-.88-.07-1.27-.2c-.39-.14-.72-.33-1-.58-.27-.25-.49-.57-.64-.94-.15-.37-.21-.8-.2-1.28h.26c-.02.44.04.83.17,1.17.13.34.32.63.57.87.25.24.55.42.91.54.36.12.75.18,1.18.18s.83-.07,1.17-.2c.35-.14.64-.33.89-.58.24-.25.43-.55.56-.9.13-.35.2-.75.2-1.17s-.07-.79-.2-1.13c-.14-.35-.33-.64-.57-.89s-.54-.44-.89-.58c-.35-.14-.73-.21-1.15-.21-.52,0-1.01.12-1.46.35-.45.23-.79.57-1.04,1.02h-.33l.96-4.5h4.58v.26h-4.37l-.81,3.81Z"/>
          </g>
          <g class="uuid-6e91b0c8-418a-4080-9df6-127620f6d835">
            <path class="uuid-f4e70077-0434-47a0-8b50-3476c9079f5a" d="m607.77,424.72h.03c.25-.42.59-.73,1.02-.92.42-.19.9-.29,1.42-.29.46,0,.88.08,1.26.23.38.15.7.36.97.64s.48.6.63.98c.15.38.22.79.22,1.24,0,.47-.07.9-.22,1.28-.15.38-.36.71-.63.98s-.59.48-.97.62c-.38.14-.8.22-1.26.22s-.88-.07-1.27-.2c-.39-.14-.72-.33-1-.58-.27-.25-.49-.57-.64-.94-.15-.37-.21-.8-.2-1.28h.26c-.02.44.04.83.17,1.17.13.34.32.63.57.87.25.24.55.42.91.54.36.12.75.18,1.18.18s.83-.07,1.17-.2c.35-.14.64-.33.89-.58.24-.25.43-.55.56-.9.13-.35.2-.75.2-1.17s-.07-.79-.2-1.13c-.14-.35-.33-.64-.57-.89s-.54-.44-.89-.58c-.35-.14-.73-.21-1.15-.21-.52,0-1.01.12-1.46.35-.45.23-.79.57-1.04,1.02h-.33l.96-4.5h4.58v.26h-4.37l-.81,3.81Z"/>
          </g>
          <g class="uuid-6e91b0c8-418a-4080-9df6-127620f6d835">
            <path class="uuid-073b1eb2-486e-485e-9509-01b8b183e346" d="m607.77,424.72h.03c.25-.42.59-.73,1.02-.92.42-.19.9-.29,1.42-.29.46,0,.88.08,1.26.23.38.15.7.36.97.64s.48.6.63.98c.15.38.22.79.22,1.24,0,.47-.07.9-.22,1.28-.15.38-.36.71-.63.98s-.59.48-.97.62c-.38.14-.8.22-1.26.22s-.88-.07-1.27-.2c-.39-.14-.72-.33-1-.58-.27-.25-.49-.57-.64-.94-.15-.37-.21-.8-.2-1.28h.26c-.02.44.04.83.17,1.17.13.34.32.63.57.87.25.24.55.42.91.54.36.12.75.18,1.18.18s.83-.07,1.17-.2c.35-.14.64-.33.89-.58.24-.25.43-.55.56-.9.13-.35.2-.75.2-1.17s-.07-.79-.2-1.13c-.14-.35-.33-.64-.57-.89s-.54-.44-.89-.58c-.35-.14-.73-.21-1.15-.21-.52,0-1.01.12-1.46.35-.45.23-.79.57-1.04,1.02h-.33l.96-4.5h4.58v.26h-4.37l-.81,3.81Z"/>
          </g>
          <g class="uuid-6e91b0c8-418a-4080-9df6-127620f6d835">
            <path class="uuid-073b1eb2-486e-485e-9509-01b8b183e346" d="m612.6,327.79c-.19-.26-.4-.46-.64-.61-.24-.15-.48-.25-.73-.31s-.49-.09-.72-.09c-.66,0-1.2.17-1.61.5-.41.33-.73.75-.95,1.26-.22.51-.37,1.05-.44,1.64s-.1,1.14-.09,1.65h.03c.06-.31.18-.61.36-.88s.4-.51.66-.71c.26-.21.55-.36.88-.48.33-.11.67-.17,1.02-.17.38,0,.76.07,1.13.22s.7.36.99.63c.29.27.52.59.69.97.17.38.26.8.26,1.26s-.08.86-.25,1.23c-.17.38-.39.7-.68.97-.28.27-.61.48-.98.64s-.76.23-1.17.23c-.31,0-.59-.04-.86-.12s-.51-.18-.73-.31c-.22-.13-.41-.28-.58-.45-.17-.17-.31-.34-.43-.51-.25-.39-.42-.84-.48-1.34-.07-.5-.1-1.04-.1-1.62s.05-1.11.16-1.69c.1-.58.29-1.1.54-1.57.26-.47.6-.86,1.03-1.15.43-.3.97-.45,1.63-.45.38,0,.74.06,1.06.18.32.12.6.28.83.48.24.2.43.44.58.71.15.28.24.57.29.89h-.26c-.09-.4-.23-.73-.41-.99Zm.35,3.78c-.15-.34-.35-.64-.6-.89s-.55-.45-.89-.6-.71-.22-1.1-.22-.76.07-1.1.22c-.34.15-.64.35-.89.6-.25.25-.45.55-.6.89-.15.34-.22.71-.22,1.1s.07.76.22,1.1c.15.34.35.64.6.89.25.25.55.45.89.6.34.15.71.22,1.1.22s.76-.07,1.1-.22.64-.35.89-.6.45-.55.6-.89c.15-.34.22-.71.22-1.1s-.07-.76-.22-1.1Z"/>
          </g>
          <g class="uuid-6e91b0c8-418a-4080-9df6-127620f6d835">
            <path class="uuid-f4e70077-0434-47a0-8b50-3476c9079f5a" d="m612.6,327.79c-.19-.26-.4-.46-.64-.61-.24-.15-.48-.25-.73-.31s-.49-.09-.72-.09c-.66,0-1.2.17-1.61.5-.41.33-.73.75-.95,1.26-.22.51-.37,1.05-.44,1.64s-.1,1.14-.09,1.65h.03c.06-.31.18-.61.36-.88s.4-.51.66-.71c.26-.21.55-.36.88-.48.33-.11.67-.17,1.02-.17.38,0,.76.07,1.13.22s.7.36.99.63c.29.27.52.59.69.97.17.38.26.8.26,1.26s-.08.86-.25,1.23c-.17.38-.39.7-.68.97-.28.27-.61.48-.98.64s-.76.23-1.17.23c-.31,0-.59-.04-.86-.12s-.51-.18-.73-.31c-.22-.13-.41-.28-.58-.45-.17-.17-.31-.34-.43-.51-.25-.39-.42-.84-.48-1.34-.07-.5-.1-1.04-.1-1.62s.05-1.11.16-1.69c.1-.58.29-1.1.54-1.57.26-.47.6-.86,1.03-1.15.43-.3.97-.45,1.63-.45.38,0,.74.06,1.06.18.32.12.6.28.83.48.24.2.43.44.58.71.15.28.24.57.29.89h-.26c-.09-.4-.23-.73-.41-.99Zm.35,3.78c-.15-.34-.35-.64-.6-.89s-.55-.45-.89-.6-.71-.22-1.1-.22-.76.07-1.1.22c-.34.15-.64.35-.89.6-.25.25-.45.55-.6.89-.15.34-.22.71-.22,1.1s.07.76.22,1.1c.15.34.35.64.6.89.25.25.55.45.89.6.34.15.71.22,1.1.22s.76-.07,1.1-.22.64-.35.89-.6.45-.55.6-.89c.15-.34.22-.71.22-1.1s-.07-.76-.22-1.1Z"/>
          </g>
          <g class="uuid-6e91b0c8-418a-4080-9df6-127620f6d835">
            <path class="uuid-073b1eb2-486e-485e-9509-01b8b183e346" d="m612.6,327.79c-.19-.26-.4-.46-.64-.61-.24-.15-.48-.25-.73-.31s-.49-.09-.72-.09c-.66,0-1.2.17-1.61.5-.41.33-.73.75-.95,1.26-.22.51-.37,1.05-.44,1.64s-.1,1.14-.09,1.65h.03c.06-.31.18-.61.36-.88s.4-.51.66-.71c.26-.21.55-.36.88-.48.33-.11.67-.17,1.02-.17.38,0,.76.07,1.13.22s.7.36.99.63c.29.27.52.59.69.97.17.38.26.8.26,1.26s-.08.86-.25,1.23c-.17.38-.39.7-.68.97-.28.27-.61.48-.98.64s-.76.23-1.17.23c-.31,0-.59-.04-.86-.12s-.51-.18-.73-.31c-.22-.13-.41-.28-.58-.45-.17-.17-.31-.34-.43-.51-.25-.39-.42-.84-.48-1.34-.07-.5-.1-1.04-.1-1.62s.05-1.11.16-1.69c.1-.58.29-1.1.54-1.57.26-.47.6-.86,1.03-1.15.43-.3.97-.45,1.63-.45.38,0,.74.06,1.06.18.32.12.6.28.83.48.24.2.43.44.58.71.15.28.24.57.29.89h-.26c-.09-.4-.23-.73-.41-.99Zm.35,3.78c-.15-.34-.35-.64-.6-.89s-.55-.45-.89-.6-.71-.22-1.1-.22-.76.07-1.1.22c-.34.15-.64.35-.89.6-.25.25-.45.55-.6.89-.15.34-.22.71-.22,1.1s.07.76.22,1.1c.15.34.35.64.6.89.25.25.55.45.89.6.34.15.71.22,1.1.22s.76-.07,1.1-.22.64-.35.89-.6.45-.55.6-.89c.15-.34.22-.71.22-1.1s-.07-.76-.22-1.1Z"/>
          </g>
          <g class="uuid-6e91b0c8-418a-4080-9df6-127620f6d835">
            <path class="uuid-073b1eb2-486e-485e-9509-01b8b183e346" d="m607.46,232.73h5.69v.35c-.6.6-1.15,1.22-1.65,1.86-.5.64-.92,1.3-1.27,2s-.62,1.43-.81,2.2c-.19.77-.29,1.61-.29,2.5h-.26c0-.87.08-1.7.27-2.49s.46-1.54.81-2.25c.35-.71.78-1.39,1.27-2.04.49-.65,1.04-1.27,1.65-1.87h-5.4v-.26Z"/>
          </g>
          <g class="uuid-6e91b0c8-418a-4080-9df6-127620f6d835">
            <path class="uuid-f4e70077-0434-47a0-8b50-3476c9079f5a" d="m607.46,232.73h5.69v.35c-.6.6-1.15,1.22-1.65,1.86-.5.64-.92,1.3-1.27,2s-.62,1.43-.81,2.2c-.19.77-.29,1.61-.29,2.5h-.26c0-.87.08-1.7.27-2.49s.46-1.54.81-2.25c.35-.71.78-1.39,1.27-2.04.49-.65,1.04-1.27,1.65-1.87h-5.4v-.26Z"/>
          </g>
          <g class="uuid-6e91b0c8-418a-4080-9df6-127620f6d835">
            <path class="uuid-073b1eb2-486e-485e-9509-01b8b183e346" d="m607.46,232.73h5.69v.35c-.6.6-1.15,1.22-1.65,1.86-.5.64-.92,1.3-1.27,2s-.62,1.43-.81,2.2c-.19.77-.29,1.61-.29,2.5h-.26c0-.87.08-1.7.27-2.49s.46-1.54.81-2.25c.35-.71.78-1.39,1.27-2.04.49-.65,1.04-1.27,1.65-1.87h-5.4v-.26Z"/>
          </g>
          <g class="uuid-6e91b0c8-418a-4080-9df6-127620f6d835">
            <path class="uuid-073b1eb2-486e-485e-9509-01b8b183e346" d="m612.93,143.53c.41.42.61.98.61,1.66,0,.46-.09.86-.26,1.19-.18.33-.41.61-.7.82-.29.21-.64.37-1.03.47-.39.1-.81.15-1.25.15s-.85-.05-1.25-.15c-.39-.1-.74-.26-1.03-.47-.29-.21-.53-.49-.7-.82s-.26-.73-.26-1.19c0-.68.2-1.23.61-1.66s.96-.67,1.67-.74v-.03c-.25-.03-.49-.11-.71-.22s-.42-.24-.58-.41-.3-.35-.39-.57c-.1-.22-.14-.45-.14-.71,0-.4.07-.75.22-1.03.14-.28.34-.52.6-.7s.55-.32.89-.4c.34-.08.7-.12,1.09-.12s.75.04,1.09.12c.34.08.64.22.89.4s.45.42.6.7c.14.28.22.63.22,1.03,0,.25-.05.49-.14.71-.1.22-.23.41-.39.57s-.36.3-.58.41-.46.18-.71.22v.03c.71.07,1.27.32,1.67.74Zm.1.58c-.17-.29-.39-.52-.66-.69-.27-.17-.59-.3-.95-.37-.36-.07-.73-.11-1.11-.11s-.76.04-1.11.11c-.36.07-.68.2-.95.37-.28.17-.5.41-.66.69-.17.29-.25.65-.25,1.07s.08.79.24,1.09c.16.3.38.55.66.74.28.19.59.33.95.42s.73.13,1.13.13.77-.04,1.13-.13c.36-.09.67-.23.95-.42.28-.19.49-.44.66-.74.16-.3.24-.67.24-1.09s-.08-.79-.25-1.07Zm-.41-4.21c-.14-.25-.33-.46-.57-.61-.24-.15-.5-.26-.81-.33-.3-.07-.61-.1-.94-.1s-.64.03-.94.1c-.3.07-.57.17-.81.33-.24.15-.43.36-.57.61-.14.25-.22.57-.22.96,0,.31.08.59.23.82s.35.42.59.56c.24.14.51.25.81.32.3.07.6.1.9.1s.6-.03.9-.1c.3-.07.57-.18.81-.32.24-.14.44-.33.59-.56.15-.23.23-.5.23-.82,0-.38-.07-.7-.22-.96Z"/>
          </g>
          <g class="uuid-6e91b0c8-418a-4080-9df6-127620f6d835">
            <path class="uuid-f4e70077-0434-47a0-8b50-3476c9079f5a" d="m612.93,143.53c.41.42.61.98.61,1.66,0,.46-.09.86-.26,1.19-.18.33-.41.61-.7.82-.29.21-.64.37-1.03.47-.39.1-.81.15-1.25.15s-.85-.05-1.25-.15c-.39-.1-.74-.26-1.03-.47-.29-.21-.53-.49-.7-.82s-.26-.73-.26-1.19c0-.68.2-1.23.61-1.66s.96-.67,1.67-.74v-.03c-.25-.03-.49-.11-.71-.22s-.42-.24-.58-.41-.3-.35-.39-.57c-.1-.22-.14-.45-.14-.71,0-.4.07-.75.22-1.03.14-.28.34-.52.6-.7s.55-.32.89-.4c.34-.08.7-.12,1.09-.12s.75.04,1.09.12c.34.08.64.22.89.4s.45.42.6.7c.14.28.22.63.22,1.03,0,.25-.05.49-.14.71-.1.22-.23.41-.39.57s-.36.3-.58.41-.46.18-.71.22v.03c.71.07,1.27.32,1.67.74Zm.1.58c-.17-.29-.39-.52-.66-.69-.27-.17-.59-.3-.95-.37-.36-.07-.73-.11-1.11-.11s-.76.04-1.11.11c-.36.07-.68.2-.95.37-.28.17-.5.41-.66.69-.17.29-.25.65-.25,1.07s.08.79.24,1.09c.16.3.38.55.66.74.28.19.59.33.95.42s.73.13,1.13.13.77-.04,1.13-.13c.36-.09.67-.23.95-.42.28-.19.49-.44.66-.74.16-.3.24-.67.24-1.09s-.08-.79-.25-1.07Zm-.41-4.21c-.14-.25-.33-.46-.57-.61-.24-.15-.5-.26-.81-.33-.3-.07-.61-.1-.94-.1s-.64.03-.94.1c-.3.07-.57.17-.81.33-.24.15-.43.36-.57.61-.14.25-.22.57-.22.96,0,.31.08.59.23.82s.35.42.59.56c.24.14.51.25.81.32.3.07.6.1.9.1s.6-.03.9-.1c.3-.07.57-.18.81-.32.24-.14.44-.33.59-.56.15-.23.23-.5.23-.82,0-.38-.07-.7-.22-.96Z"/>
          </g>
          <g class="uuid-6e91b0c8-418a-4080-9df6-127620f6d835">
            <path class="uuid-073b1eb2-486e-485e-9509-01b8b183e346" d="m612.93,143.53c.41.42.61.98.61,1.66,0,.46-.09.86-.26,1.19-.18.33-.41.61-.7.82-.29.21-.64.37-1.03.47-.39.1-.81.15-1.25.15s-.85-.05-1.25-.15c-.39-.1-.74-.26-1.03-.47-.29-.21-.53-.49-.7-.82s-.26-.73-.26-1.19c0-.68.2-1.23.61-1.66s.96-.67,1.67-.74v-.03c-.25-.03-.49-.11-.71-.22s-.42-.24-.58-.41-.3-.35-.39-.57c-.1-.22-.14-.45-.14-.71,0-.4.07-.75.22-1.03.14-.28.34-.52.6-.7s.55-.32.89-.4c.34-.08.7-.12,1.09-.12s.75.04,1.09.12c.34.08.64.22.89.4s.45.42.6.7c.14.28.22.63.22,1.03,0,.25-.05.49-.14.71-.1.22-.23.41-.39.57s-.36.3-.58.41-.46.18-.71.22v.03c.71.07,1.27.32,1.67.74Zm.1.58c-.17-.29-.39-.52-.66-.69-.27-.17-.59-.3-.95-.37-.36-.07-.73-.11-1.11-.11s-.76.04-1.11.11c-.36.07-.68.2-.95.37-.28.17-.5.41-.66.69-.17.29-.25.65-.25,1.07s.08.79.24,1.09c.16.3.38.55.66.74.28.19.59.33.95.42s.73.13,1.13.13.77-.04,1.13-.13c.36-.09.67-.23.95-.42.28-.19.49-.44.66-.74.16-.3.24-.67.24-1.09s-.08-.79-.25-1.07Zm-.41-4.21c-.14-.25-.33-.46-.57-.61-.24-.15-.5-.26-.81-.33-.3-.07-.61-.1-.94-.1s-.64.03-.94.1c-.3.07-.57.17-.81.33-.24.15-.43.36-.57.61-.14.25-.22.57-.22.96,0,.31.08.59.23.82s.35.42.59.56c.24.14.51.25.81.32.3.07.6.1.9.1s.6-.03.9-.1c.3-.07.57-.18.81-.32.24-.14.44-.33.59-.56.15-.23.23-.5.23-.82,0-.38-.07-.7-.22-.96Z"/>
          </g>
          <g class="uuid-6e91b0c8-418a-4080-9df6-127620f6d835">
            <path class="uuid-073b1eb2-486e-485e-9509-01b8b183e346" d="m608,52.61c.19.26.4.46.64.61.24.15.48.25.74.31.26.06.5.08.71.08.45,0,.83-.08,1.16-.23.33-.15.61-.36.84-.62.23-.26.42-.56.56-.9.14-.34.26-.7.34-1.08.08-.38.14-.75.16-1.13s.03-.74.03-1.08h-.03c-.07.31-.19.61-.37.88s-.39.51-.65.71c-.26.21-.55.37-.87.48-.32.11-.66.17-1.02.17-.38,0-.76-.07-1.13-.22-.37-.15-.7-.36-.99-.63-.29-.27-.52-.6-.69-.98-.17-.38-.26-.8-.26-1.25s.08-.86.25-1.23c.17-.38.39-.7.68-.98s.61-.49.98-.64c.37-.15.76-.23,1.17-.23.31,0,.59.04.86.12.27.08.51.19.73.32.22.13.41.28.58.45s.31.34.43.51c.26.39.43.84.5,1.34.07.5.1,1.04.1,1.62s-.05,1.13-.16,1.7c-.1.57-.29,1.09-.54,1.56-.26.47-.6.85-1.04,1.15-.43.3-.98.45-1.63.45-.38,0-.74-.06-1.06-.17-.32-.11-.6-.27-.83-.47-.24-.2-.43-.44-.58-.71s-.24-.57-.29-.88h.26c.09.4.23.73.41.99Zm4.84-5.98c-.15-.34-.35-.64-.6-.89s-.55-.45-.89-.6c-.34-.15-.71-.22-1.1-.22s-.76.07-1.1.22-.64.35-.89.6c-.25.25-.45.55-.6.89-.15.34-.22.71-.22,1.1s.07.76.22,1.1c.15.34.35.64.6.89.25.25.55.45.89.6.34.15.71.22,1.1.22s.76-.07,1.1-.22c.34-.15.64-.35.89-.6s.45-.55.6-.89c.15-.34.22-.71.22-1.1s-.07-.76-.22-1.1Z"/>
          </g>
          <g class="uuid-6e91b0c8-418a-4080-9df6-127620f6d835">
            <path class="uuid-f4e70077-0434-47a0-8b50-3476c9079f5a" d="m608,52.61c.19.26.4.46.64.61.24.15.48.25.74.31.26.06.5.08.71.08.45,0,.83-.08,1.16-.23.33-.15.61-.36.84-.62.23-.26.42-.56.56-.9.14-.34.26-.7.34-1.08.08-.38.14-.75.16-1.13s.03-.74.03-1.08h-.03c-.07.31-.19.61-.37.88s-.39.51-.65.71c-.26.21-.55.37-.87.48-.32.11-.66.17-1.02.17-.38,0-.76-.07-1.13-.22-.37-.15-.7-.36-.99-.63-.29-.27-.52-.6-.69-.98-.17-.38-.26-.8-.26-1.25s.08-.86.25-1.23c.17-.38.39-.7.68-.98s.61-.49.98-.64c.37-.15.76-.23,1.17-.23.31,0,.59.04.86.12.27.08.51.19.73.32.22.13.41.28.58.45s.31.34.43.51c.26.39.43.84.5,1.34.07.5.1,1.04.1,1.62s-.05,1.13-.16,1.7c-.1.57-.29,1.09-.54,1.56-.26.47-.6.85-1.04,1.15-.43.3-.98.45-1.63.45-.38,0-.74-.06-1.06-.17-.32-.11-.6-.27-.83-.47-.24-.2-.43-.44-.58-.71s-.24-.57-.29-.88h.26c.09.4.23.73.41.99Zm4.84-5.98c-.15-.34-.35-.64-.6-.89s-.55-.45-.89-.6c-.34-.15-.71-.22-1.1-.22s-.76.07-1.1.22-.64.35-.89.6c-.25.25-.45.55-.6.89-.15.34-.22.71-.22,1.1s.07.76.22,1.1c.15.34.35.64.6.89.25.25.55.45.89.6.34.15.71.22,1.1.22s.76-.07,1.1-.22c.34-.15.64-.35.89-.6s.45-.55.6-.89c.15-.34.22-.71.22-1.1s-.07-.76-.22-1.1Z"/>
          </g>
          <g class="uuid-6e91b0c8-418a-4080-9df6-127620f6d835">
            <path class="uuid-073b1eb2-486e-485e-9509-01b8b183e346" d="m608,52.61c.19.26.4.46.64.61.24.15.48.25.74.31.26.06.5.08.71.08.45,0,.83-.08,1.16-.23.33-.15.61-.36.84-.62.23-.26.42-.56.56-.9.14-.34.26-.7.34-1.08.08-.38.14-.75.16-1.13s.03-.74.03-1.08h-.03c-.07.31-.19.61-.37.88s-.39.51-.65.71c-.26.21-.55.37-.87.48-.32.11-.66.17-1.02.17-.38,0-.76-.07-1.13-.22-.37-.15-.7-.36-.99-.63-.29-.27-.52-.6-.69-.98-.17-.38-.26-.8-.26-1.25s.08-.86.25-1.23c.17-.38.39-.7.68-.98s.61-.49.98-.64c.37-.15.76-.23,1.17-.23.31,0,.59.04.86.12.27.08.51.19.73.32.22.13.41.28.58.45s.31.34.43.51c.26.39.43.84.5,1.34.07.5.1,1.04.1,1.62s-.05,1.13-.16,1.7c-.1.57-.29,1.09-.54,1.56-.26.47-.6.85-1.04,1.15-.43.3-.98.45-1.63.45-.38,0-.74-.06-1.06-.17-.32-.11-.6-.27-.83-.47-.24-.2-.43-.44-.58-.71s-.24-.57-.29-.88h.26c.09.4.23.73.41.99Zm4.84-5.98c-.15-.34-.35-.64-.6-.89s-.55-.45-.89-.6c-.34-.15-.71-.22-1.1-.22s-.76.07-1.1.22-.64.35-.89.6c-.25.25-.45.55-.6.89-.15.34-.22.71-.22,1.1s.07.76.22,1.1c.15.34.35.64.6.89.25.25.55.45.89.6.34.15.71.22,1.1.22s.76-.07,1.1-.22c.34-.15.64-.35.89-.6s.45-.55.6-.89c.15-.34.22-.71.22-1.1s-.07-.76-.22-1.1Z"/>
          </g>
          <g class="uuid-6e91b0c8-418a-4080-9df6-127620f6d835">
            <path class="uuid-073b1eb2-486e-485e-9509-01b8b183e346" d="m613.51,908.59c-.11.55-.3,1.04-.56,1.48-.26.44-.61.79-1.04,1.06s-.97.4-1.61.4-1.17-.13-1.61-.4-.78-.62-1.04-1.06c-.26-.44-.45-.93-.56-1.48-.11-.55-.16-1.11-.16-1.67s.05-1.11.16-1.67.3-1.04.56-1.48c.26-.44.61-.79,1.04-1.06s.97-.41,1.61-.41,1.18.14,1.61.41.77.62,1.04,1.06c.26.44.45.93.56,1.48.11.55.16,1.11.16,1.67s-.05,1.12-.16,1.67Zm-.24-3.19c-.1-.52-.26-.98-.5-1.4-.24-.42-.55-.76-.95-1.03-.4-.27-.9-.4-1.51-.4s-1.12.13-1.51.4-.71.61-.95,1.03c-.24.42-.4.89-.5,1.4s-.14,1.02-.14,1.52.05,1.01.14,1.52.26.98.5,1.4c.24.42.55.76.95,1.03s.9.4,1.51.4,1.12-.13,1.51-.4c.4-.27.71-.61.95-1.03.24-.42.4-.89.5-1.4s.14-1.02.14-1.52-.05-1-.14-1.52Z"/>
          </g>
          <g class="uuid-6e91b0c8-418a-4080-9df6-127620f6d835">
            <path class="uuid-f4e70077-0434-47a0-8b50-3476c9079f5a" d="m613.51,908.59c-.11.55-.3,1.04-.56,1.48-.26.44-.61.79-1.04,1.06s-.97.4-1.61.4-1.17-.13-1.61-.4-.78-.62-1.04-1.06c-.26-.44-.45-.93-.56-1.48-.11-.55-.16-1.11-.16-1.67s.05-1.11.16-1.67.3-1.04.56-1.48c.26-.44.61-.79,1.04-1.06s.97-.41,1.61-.41,1.18.14,1.61.41.77.62,1.04,1.06c.26.44.45.93.56,1.48.11.55.16,1.11.16,1.67s-.05,1.12-.16,1.67Zm-.24-3.19c-.1-.52-.26-.98-.5-1.4-.24-.42-.55-.76-.95-1.03-.4-.27-.9-.4-1.51-.4s-1.12.13-1.51.4-.71.61-.95,1.03c-.24.42-.4.89-.5,1.4s-.14,1.02-.14,1.52.05,1.01.14,1.52.26.98.5,1.4c.24.42.55.76.95,1.03s.9.4,1.51.4,1.12-.13,1.51-.4c.4-.27.71-.61.95-1.03.24-.42.4-.89.5-1.4s.14-1.02.14-1.52-.05-1-.14-1.52Z"/>
          </g>
          <g class="uuid-6e91b0c8-418a-4080-9df6-127620f6d835">
            <path class="uuid-073b1eb2-486e-485e-9509-01b8b183e346" d="m613.51,908.59c-.11.55-.3,1.04-.56,1.48-.26.44-.61.79-1.04,1.06s-.97.4-1.61.4-1.17-.13-1.61-.4-.78-.62-1.04-1.06c-.26-.44-.45-.93-.56-1.48-.11-.55-.16-1.11-.16-1.67s.05-1.11.16-1.67.3-1.04.56-1.48c.26-.44.61-.79,1.04-1.06s.97-.41,1.61-.41,1.18.14,1.61.41.77.62,1.04,1.06c.26.44.45.93.56,1.48.11.55.16,1.11.16,1.67s-.05,1.12-.16,1.67Zm-.24-3.19c-.1-.52-.26-.98-.5-1.4-.24-.42-.55-.76-.95-1.03-.4-.27-.9-.4-1.51-.4s-1.12.13-1.51.4-.71.61-.95,1.03c-.24.42-.4.89-.5,1.4s-.14,1.02-.14,1.52.05,1.01.14,1.52.26.98.5,1.4c.24.42.55.76.95,1.03s.9.4,1.51.4,1.12-.13,1.51-.4c.4-.27.71-.61.95-1.03.24-.42.4-.89.5-1.4s.14-1.02.14-1.52-.05-1-.14-1.52Z"/>
          </g>
          <path class="uuid-e91a4399-e4ca-481e-bbc5-b037e2899ad6" d="m-65.81-369.58v4h0l1.09,4h0l1.09,3.99h0l1.09,3.98h0l1.09,3.98h0l1.09,3.97h0l1.09,3.97h0l1.09,3.96h0l1.09,3.95h0l1.09,3.95h0l1.09,3.94h0l1.09,3.93h0l1.09,3.93h0l1.09,3.92h0l1.09,3.91h0l1.09,3.91h0l1.09,3.9h0l1.09,3.9h0l1.09,3.89h0l1.09,3.88h0l1.09,3.88h0l1.09,3.87h0l1.09,3.86h0l1.09,3.86h0l1.09,3.85h0l1.09,3.84h0l1.09,3.84h0l1.09,3.83h0l1.09,3.83h0l1.09,3.82h0l1.09,3.81h0l1.09,3.81h0l1.09,3.8h0l1.09,3.79h0l1.09,3.79h0l1.09,3.78h0l1.09,3.78h0l1.09,3.77h0l1.09,3.76h0l1.09,3.76h0l1.09,3.75h0l1.09,3.74h0l1.09,3.74h0l1.09,3.73h0l1.09,3.72h0l1.09,3.72h0l1.09,3.71h0l1.09,3.71h0l1.09,3.7h0l1.09,3.69h0l1.09,3.69h0l1.09,3.68h0l1.09,3.67h0l1.09,3.67h0l1.09,3.66h0l1.09,3.65h0l1.09,3.65h0l1.09,3.64h0l1.09,3.64h0l1.09,3.63h0l1.09,3.62H-.26l1.09,3.62h0l1.09,3.61h0l1.09,3.6h0l1.09,3.6h0l1.09,3.59h0l1.09,3.58h0l1.09,3.58h0l1.09,3.57h0l1.09,3.57h0l1.09,3.56h0l1.09,3.55h0l1.09,3.55h0l1.09,3.54h0l1.09,3.53h0l1.09,3.53h0l1.09,3.52h0l1.09,3.51h0l1.09,3.51h0l1.09,3.5h0l1.09,3.5h0l1.09,3.49h0l1.09,3.48h0l1.09,3.48h0l1.09,3.47h0l1.09,3.46h0l1.09,3.46h0l1.09,3.45h0l1.09,3.44h0l1.09,3.44h0l1.09,3.43h0l1.09,3.43h0l1.09,3.42h0l1.09,3.41h0l1.09,3.41h0l1.09,3.4h0l1.09,3.39h0l1.09,3.39h0l1.09,3.38h0l1.09,3.38h0l1.09,3.37h0l1.09,3.36h0l1.09,3.36h0l1.09,3.35h0l1.09,3.34h0l1.09,3.34h0l1.09,3.33h0l1.09,3.32h0l1.09,3.32h0l1.09,3.31h0l1.09,3.31h0l1.09,3.3h0l1.09,3.29h0l1.09,3.29h0l1.09,3.28h0l1.09,3.27h0l1.09,3.27h0l1.09,3.26h0l1.09,3.25h0l1.09,3.25h0l1.09,3.24h0l1.09,3.24h0l1.09,3.23h0l1.09,3.22h0l1.09,3.22h0l1.09,3.21h0l1.09,3.2h0l1.09,3.2h0l1.09,3.19h0l1.09,3.18h0l1.09,3.18h0l1.09,3.17h0l1.09,3.17h0l1.09,3.16h0l1.09,3.15h0l1.09,3.15h0l1.09,3.14h0l1.09,3.13h0l1.09,3.13h0l1.09,3.12h0l1.09,3.11h0l1.09,3.11h0l1.09,3.1h0l1.09,3.1h0l1.09,3.09h0l1.09,3.08h0l1.09,3.08h0l1.09,3.07h0l1.09,3.06h0l1.09,3.06h0l1.09,3.05h0l1.09,3.04h0l1.09,3.04h0l1.09,3.03h0l1.09,3.03h0l1.09,3.02h0l1.09,3.01h0l1.09,3.01h0l1.09,3h0l1.09,2.99h0l1.09,2.99h0l1.09,2.98h0l1.09,2.97h0l1.09,2.97h0l1.09,2.96h0l1.09,2.96h0l1.09,2.95h0l1.09,2.94h0l1.09,2.94h0l1.09,2.93h0l1.09,2.92h0l1.09,2.92h0l1.09,2.91h0l1.09,2.91h0l1.09,2.9h0l1.09,2.89h0l1.09,2.89h0l1.09,2.88h0l1.09,2.87h0l1.09,2.87h0l1.09,2.86h0l1.09,2.85h0l1.09,2.85h0l1.09,2.84h0l1.09,2.84h0l1.09,2.83h0l1.09,2.82h0l1.09,2.82h0l1.09,2.81h0l1.09,2.8h0l1.09,2.8h0l1.09,2.79h0l1.09,2.78h0l1.09,2.78h0l1.09,2.77h0l1.09,2.77h0l1.09,2.76h0l1.09,2.75h0l1.09,2.75h0l1.09,2.74h0l1.09,2.73h0l1.09,2.73h0l1.09,2.72h0l1.09,2.71h0l1.09,2.71h0l1.09,2.7h0l1.09,2.7h0l1.09,2.69h0l1.09,2.68h0l1.09,2.68h0l1.09,2.67h0l1.09,2.66h0l1.09,2.66h0l1.09,2.65h0l1.09,2.64h0l1.09,2.64h0l1.09,2.63h0l1.09,2.63h0l1.09,2.62h0l1.09,2.61h0l1.09,2.61h0l1.09,2.6h0l1.09,2.59h0l1.09,2.59h0l1.09,2.58h0l1.09,2.57h0l1.09,2.57h0l1.09,2.56h0l1.09,2.56h0l1.09,2.55h0l1.09,2.54h0l1.09,2.54h0l1.09,2.53h0l1.09,2.52h0l1.09,2.52h0l1.09,2.51h0l1.09,2.5h0l1.09,2.5h0l1.09,2.49h0l1.09,2.49h0l1.09,2.48h0l1.09,2.47h0l1.09,2.47h0l1.09,2.46h0l1.09,2.45h0l1.09,2.45h0l1.09,2.44h0l1.09,2.44h0l1.09,2.43h0l1.09,2.42h0l1.09,2.42h0l1.09,2.41h0l1.09,2.4h0l1.09,2.4h0l1.09,2.39h0l1.09,2.38h0l1.09,2.38h0l1.09,2.37h0l1.09,2.37h0l1.09,2.36h0l1.09,2.35h0l1.09,2.35h0l1.09,2.34h0l1.09,2.33h0l1.09,2.33h0l1.09,2.32h0l1.09,2.31h0l1.09,2.31h0l1.09,2.3h0l1.09,2.3h0l1.09,2.29h0l1.09,2.28h0l1.09,2.28h0l1.09,2.27h0l1.09,2.26h0l1.09,2.26h0l1.09,2.25h0l1.09,2.24h0l1.09,2.24h0l1.09,2.23h0l1.09,2.23h0l1.09,2.22h0l1.09,2.21h0l1.09,2.21h0l1.09,2.2h0l1.09,2.19h0l1.09,2.19h0l1.09,2.18h0l1.09,2.17h0l1.09,2.17h0l1.09,2.16h0l1.09,2.16h0l1.09,2.15h0l1.09,2.14h0l1.09,2.14h0l1.09,2.13h0l1.09,2.12h0l1.09,2.12h0l1.09,2.11h0l1.09,2.1h0l1.09,2.1h0l1.09,2.09h0l1.09,2.09h0l1.09,2.08h0l1.09,2.07h0l1.09,2.07h0l1.09,2.06h0l1.09,2.05h0l1.09,2.05h0l1.09,2.04h0l1.09,2.04h0l1.09,2.03h0l1.09,2.02h0l1.09,2.02h0l1.09,2.01h0l1.09,2h0l1.09,2h0l1.09,1.99h0l1.09,1.98h0l1.09,1.98h0l1.09,1.97h0l1.09,1.97h0l1.09,1.96h0l1.09,1.95h0l1.09,1.95h0l1.09,1.94h0l1.09,1.93h0l1.09,1.93h0l1.09,1.92h0l1.09,1.91h0l1.09,1.91h0l1.09,1.9h0l1.09,1.9h0l1.09,1.89h0l1.09,1.88h0l1.09,1.88h0l1.09,1.87h0l1.09,1.86h0l1.09,1.86h0l1.09,1.85h0l1.09,1.84h0l1.09,1.84h0l1.09,1.83h0l1.09,1.83h0l1.09,1.82h0l1.09,1.81h0l1.09,1.81h0l1.09,1.8h0l1.09,1.79h0l1.09,1.79h0l1.09,1.78h0l1.09,1.77h0l1.09,1.77h0l1.09,1.76h0l1.09,1.76h0l1.09,1.75h0l1.09,1.74h0l1.09,1.74h0l1.09,1.73h0l1.09,1.72h0l1.09,1.72h0l1.09,1.71h0l1.09,1.7h0l1.09,1.7h0l1.09,1.69h0l1.09,1.69h0l1.09,1.68h0l1.09,1.67h0l1.09,1.67h0l1.09,1.66h0l1.09,1.65h0l1.09,1.65h0l1.09,1.64h0l1.09,1.63h0l1.09,1.63h0l1.09,1.62h0l1.09,1.62h0l1.09,1.61h0l1.09,1.6h0l1.09,1.6h0l1.09,1.59h0l1.09,1.58h0l1.09,1.58h0l1.09,1.57h0l1.09,1.57h0l1.09,1.56h0l1.09,1.55h0l1.09,1.55h0l1.09,1.54h0l1.09,1.53h0l1.09,1.53h0l1.09,1.52h0l1.09,1.51h0l1.09,1.51h0l1.09,1.5h0l1.09,1.5h0l1.09,1.49h0l1.09,1.48h0l1.09,1.48h0l1.09,1.47h0l1.09,1.46h0l1.09,1.46h0l1.09,1.45h0l1.09,1.44h0l1.09,1.44h0l1.09,1.43h0l1.09,1.43h0l1.09,1.42h0l1.09,1.41h0l1.09,1.41h0l1.09,1.4h0l1.09,1.39h0l1.09,1.39h0l1.09,1.38h0l1.09,1.37h0l1.09,1.37h0l1.09,1.36h0l1.09,1.36h0l1.09,1.35h0l1.09,1.34h0l1.09,1.34h0l1.09,1.33h0l1.09,1.32h0l1.09,1.32h0l1.09,1.31h0l1.09,1.3h0l1.09,1.3h0l1.09,1.29h0l1.09,1.29h0l1.09,1.28h0l1.09,1.27h0l1.09,1.27h0l1.09,1.26h0l1.09,1.25h0l1.09,1.25h0l1.09,1.24h0l1.09,1.23h0l1.09,1.23h0l1.09,1.22h0l1.09,1.22h0l1.09,1.21h0l1.09,1.2h0l1.09,1.2h0l1.09,1.19h0l1.09,1.18h0l1.09,1.18h0l1.09,1.17h0l1.09,1.17h0l1.09,1.16h0l1.09,1.15h0l1.09,1.15h0l1.09,1.14h0l1.09,1.13h0l1.09,1.13h0l1.09,1.12h0l1.09,1.11h0l1.09,1.11h0l1.09,1.1h0l1.09,1.1h0l1.09,1.09h0l1.09,1.08h0l1.09,1.08h0l1.09,1.07h0l1.09,1.06h0l1.09,1.06h0l1.09,1.05h0l1.09,1.04h0l1.09,1.04h0l1.09,1.03h0l1.09,1.03h0l1.09,1.02h0l1.09,1.01h0l1.09,1.01h0l1.09,1h0l1.09.99h0l1.09.99h0l1.09.98h0l1.09.97h0l1.09.97h0l1.09.96h0l1.09.96h0l1.09.95h0l1.09.94h0l1.09.94h0l1.09.93h0l1.09.92h0l1.09.92h0l1.09.91h0l1.09.9h0l1.09.9h0l1.09.89h0l1.09.89h0l1.09.88h0l1.09.87h0l1.09.87h0l1.09.86h0l1.09.85h0l1.09.85h0l1.09.84h0l1.09.83h0l1.09.83h0l1.09.82h0l1.09.82h0l1.09.81h0l1.09.8h0l1.09.8h0l1.09.79h0l1.09.78h0l1.09.78h0l1.09.77h0l1.09.76h0l1.09.76h0l1.09.75h0l1.09.75h0l1.09.74h0l1.09.73h0l1.09.73h0l1.09.72h0l1.09.71h0l1.09.71h0l1.09.7h0l1.09.7h0l1.09.69h0l1.09.68h0l1.09.68h0l1.09.67h0l1.09.66h0l1.09.66h0l1.09.65h0l1.09.64h0l1.09.64h0l1.09.63h0l1.09.63h0l1.09.62h0l1.09.61h0l1.09.61h0l1.09.6h0l1.09.59h0l1.09.59h0l1.09.58h0l1.09.57h0l1.09.57h0l1.09.56h0l1.09.56h0l1.09.55h0l1.09.54h0l1.09.54h0l1.09.53h0l1.09.52h0l1.09.52h0l1.09.51h0l1.09.5h0l1.09.5h0l1.09.49h0l1.09.49h0l1.09.48h0l1.09.47h0l1.09.47h0l1.09.46h0l1.09.45h0l1.09.45h0l1.09.44h0l1.09.43h0l1.09.43h0l1.09.42h0l1.09.42h0l1.09.41h0l1.09.4h0l1.09.4h0l1.09.39h0l1.09.38h0l1.09.38h0l1.09.37h0l1.09.36h0l1.09.36h0l1.09.35h0l1.09.35h0l1.09.34h0l1.09.33h0l1.09.33h0l1.09.32h0l1.09.31h0l1.09.31h0l1.09.3h0l1.09.29h0l1.09.29h0l1.09.28h0l1.09.28h0l1.09.27h0l1.09.26h0l1.09.26h0l1.09.25h0l1.09.24h0l1.09.24h0l1.09.23h0l1.09.23h0l1.09.22h0l1.09.21h0l1.09.21h0l1.09.2h0l1.09.19h0l1.09.19h0l1.09.18h0l1.09.17h0l1.09.17h0l1.09.16h0l1.09.16h0l1.09.15h0l1.09.14h0l1.09.14h0l1.09.13h0l1.09.12h0l1.09.12h0l1.09.11h0l1.09.1h0l1.09.1h0l1.09.09h0l1.09.09h0l1.09.08h0l1.09.07h0l1.09.07h0l1.09.06h0l1.09.05h0l1.09.05h0l1.09.04h0l1.09.03h0l1.09.03h0l1.09.02h0l1.09.02h1.09s1.09.01,1.09.01h1.09s1.09-.01,1.09-.01h0l1.09-.02h0l1.09-.02h0l1.09-.03h0l1.09-.04h0l1.09-.04h0l1.09-.05h0l1.09-.05h0l1.09-.06h0l1.09-.07h0l1.09-.07h0l1.09-.08h0l1.09-.09h0l1.09-.09h0l1.09-.1h0l1.09-.11h0l1.09-.11h0l1.09-.12h0l1.09-.12h0l1.09-.13h0l1.09-.14h0l1.09-.14h0l1.09-.15h0l1.09-.16h0l1.09-.16h0l1.09-.17h0l1.09-.17h0l1.09-.18h0l1.09-.19h0l1.09-.19h0l1.09-.2h0l1.09-.21h0l1.09-.21h0l1.09-.22h0l1.09-.23h0l1.09-.23h0l1.09-.24h0l1.09-.24h0l1.09-.25h0l1.09-.26h0l1.09-.26h0l1.09-.27h0l1.09-.28h0l1.09-.28h0l1.09-.29h0l1.09-.3h0l1.09-.3h0l1.09-.31h0l1.09-.31h0l1.09-.32h0l1.09-.33h0l1.09-.33h0l1.09-.34h0l1.09-.35h0l1.09-.35h0l1.09-.36h0l1.09-.37h0l1.09-.37h0l1.09-.38h0l1.09-.38h0l1.09-.39h0l1.09-.4h0l1.09-.4h0l1.09-.41h0l1.09-.42h0l1.09-.42h0l1.09-.43h0l1.09-.44h0l1.09-.44h0l1.09-.45h0l1.09-.45h0l1.09-.46h0l1.09-.47h0l1.09-.47h0l1.09-.48h0l1.09-.49h0l1.09-.49h0l1.09-.5h0l1.09-.51h0l1.09-.51h0l1.09-.52h0l1.09-.52h0l1.09-.53h0l1.09-.54h0l1.09-.54h0l1.09-.55h0l1.09-.56h0l1.09-.56h0l1.09-.57h0l1.09-.58h0l1.09-.58h0l1.09-.59h0l1.09-.59h0l1.09-.6h0l1.09-.61h0l1.09-.61h0l1.09-.62h0l1.09-.63h0l1.09-.63h0l1.09-.64h0l1.09-.64h0l1.09-.65h0l1.09-.66h0l1.09-.66h0l1.09-.67h0l1.09-.68h0l1.09-.68h0l1.09-.69h0l1.09-.7h0l1.09-.7h0l1.09-.71h0l1.09-.71h0l1.09-.72h0l1.09-.73h0l1.09-.73h0l1.09-.74h0l1.09-.75h0l1.09-.75h0l1.09-.76h0l1.09-.77h0l1.09-.77h0l1.09-.78h0l1.09-.78h0l1.09-.79h0l1.09-.8h0l1.09-.8h0l1.09-.81h0l1.09-.82h0l1.09-.82h0l1.09-.83h0l1.09-.84h0l1.09-.84h0l1.09-.85h0l1.09-.85h0l1.09-.86h0l1.09-.87h0l1.09-.87h0l1.09-.88h0l1.09-.89h0l1.09-.89h0l1.09-.9h0l1.09-.91h0l1.09-.91h0l1.09-.92h0l1.09-.92h0l1.09-.93h0l1.09-.94h0l1.09-.94h0l1.09-.95h0l1.09-.96h0l1.09-.96h0l1.09-.97h0l1.09-.98h0l1.09-.98h0l1.09-.99h0l1.09-.99h0l1.09-1h0l1.09-1.01h0l1.09-1.01h0l1.09-1.02h0l1.09-1.03h0l1.09-1.03h0l1.09-1.04h0l1.09-1.05h0l1.09-1.05h0l1.09-1.06h0l1.09-1.06h0l1.09-1.07h0l1.09-1.08h0l1.09-1.08h0l1.09-1.09h0l1.09-1.1h0l1.09-1.1h0l1.09-1.11h0l1.09-1.11h0l1.09-1.12h0l1.09-1.13h0l1.09-1.13h0l1.09-1.14h0l1.09-1.15h0l1.09-1.15h0l1.09-1.16h0l1.09-1.17h0l1.09-1.17h0l1.09-1.18h0l1.09-1.18h0l1.09-1.19h0l1.09-1.2h0l1.09-1.2h0l1.09-1.21h0l1.09-1.22h0l1.09-1.22h0l1.09-1.23h0l1.09-1.24h0l1.09-1.24h0l1.09-1.25h0l1.09-1.25h0l1.09-1.26h0l1.09-1.27h0l1.09-1.27h0l1.09-1.28h0l1.09-1.29h0l1.09-1.29h0l1.09-1.3h0l1.09-1.31h0l1.09-1.31h0l1.09-1.32h0l1.09-1.32h0l1.09-1.33h0l1.09-1.34h0l1.09-1.34h0l1.09-1.35h0l1.09-1.36h0l1.09-1.36h0l1.09-1.37h0l1.09-1.38h0l1.09-1.38h0l1.09-1.39h0l1.09-1.39h0l1.09-1.4h0l1.09-1.41h0l1.09-1.41h0l1.09-1.42h0l1.09-1.43h0l1.09-1.43h0l1.09-1.44h0l1.09-1.45h0l1.09-1.45h0l1.09-1.46h0l1.09-1.46h0l1.09-1.47h0l1.09-1.48h0l1.09-1.48h0l1.09-1.49h0l1.09-1.5h0l1.09-1.5h0l1.09-1.51h0l1.09-1.52h0l1.09-1.52h0l1.09-1.53h0l1.09-1.53h0l1.09-1.54h0l1.09-1.55h0l1.09-1.55h0l1.09-1.56h0l1.09-1.57h0l1.09-1.57h0l1.09-1.58h0l1.09-1.58h0l1.09-1.59h0l1.09-1.6h0l1.09-1.6h0l1.09-1.61h0l1.09-1.62h0l1.09-1.62h0l1.09-1.63h0l1.09-1.64h0l1.09-1.64h0l1.09-1.65h0l1.09-1.65h0l1.09-1.66h0l1.09-1.67h0l1.09-1.67h0l1.09-1.68h0l1.09-1.69h0l1.09-1.69h0l1.09-1.7h0l1.09-1.71h0l1.09-1.71h0l1.09-1.72h0l1.09-1.72h0l1.09-1.73h0l1.09-1.74h0l1.09-1.74h0l1.09-1.75h0l1.09-1.76h0l1.09-1.76h0l1.09-1.77h0l1.09-1.78h0l1.09-1.78h0l1.09-1.79h0l1.09-1.79h0l1.09-1.8h0l1.09-1.81h0l1.09-1.81h0l1.09-1.82h0l1.09-1.83h0l1.09-1.83h0l1.09-1.84h0l1.09-1.85h0l1.09-1.85h0l1.09-1.86h0l1.09-1.86h0l1.09-1.87h0l1.09-1.88h0l1.09-1.88h0l1.09-1.89h0l1.09-1.9h0l1.09-1.9h0l1.09-1.91h0l1.09-1.92h0l1.09-1.92h0l1.09-1.93h0l1.09-1.93h0l1.09-1.94h0l1.09-1.95h0l1.09-1.95h0l1.09-1.96h0l1.09-1.97h0l1.09-1.97h0l1.09-1.98h0l1.09-1.98h0l1.09-1.99h0l1.09-2h0l1.09-2h0l1.09-2.01h0l1.09-2.02h0l1.09-2.02h0l1.09-2.03h0l1.09-2.04h0l1.09-2.04h0l1.09-2.05h0l1.09-2.05h0l1.09-2.06h0l1.09-2.07h0l1.09-2.07h0l1.09-2.08h0l1.09-2.09h0l1.09-2.09h0l1.09-2.1h0l1.09-2.11h0l1.09-2.11h0l1.09-2.12h0l1.09-2.12h0l1.09-2.13h0l1.09-2.14h0l1.09-2.14h0l1.09-2.15h0l1.09-2.16h0l1.09-2.16h0l1.09-2.17h0l1.09-2.18h0l1.09-2.18h0l1.09-2.19h0l1.09-2.19h0l1.09-2.2h0l1.09-2.21h0l1.09-2.21h0l1.09-2.22h0l1.09-2.23h0l1.09-2.23h0l1.09-2.24h0l1.09-2.25h0l1.09-2.25h0l1.09-2.26h0l1.09-2.26h0l1.09-2.27h0l1.09-2.28h0l1.09-2.28h0l1.09-2.29h0l1.09-2.3h0l1.09-2.3h0l1.09-2.31h0l1.09-2.32h0l1.09-2.32h0l1.09-2.33h0l1.09-2.33h0l1.09-2.34h0l1.09-2.35h0l1.09-2.35h0l1.09-2.36h0l1.09-2.37h0l1.09-2.37h0l1.09-2.38h0l1.09-2.39h0l1.09-2.39h0l1.09-2.4h0l1.09-2.4h0l1.09-2.41h0l1.09-2.42h0l1.09-2.42h0l1.09-2.43h0l1.09-2.44h0l1.09-2.44h0l1.09-2.45h0l1.09-2.45h0l1.09-2.46h0l1.09-2.47h0l1.09-2.47h0l1.09-2.48h0l1.09-2.49h0l1.09-2.49h0l1.09-2.5h0l1.09-2.51h0l1.09-2.51h0l1.09-2.52h0l1.09-2.52h0l1.09-2.53h0l1.09-2.54h0l1.09-2.54h0l1.09-2.55h0l1.09-2.56h0l1.09-2.56h0l1.09-2.57h0l1.09-2.58h0l1.09-2.58h0l1.09-2.59h0l1.09-2.59h0l1.09-2.6h0l1.09-2.61h0l1.09-2.61h0l1.09-2.62h0l1.09-2.63h0l1.09-2.63h0l1.09-2.64h0l1.09-2.65h0l1.09-2.65h0l1.09-2.66h0l1.09-2.66h0l1.09-2.67h0l1.09-2.68h0l1.09-2.68h0l1.09-2.69h0l1.09-2.7h0l1.09-2.7h0l1.09-2.71h0l1.09-2.72h0l1.09-2.72h0l1.09-2.73h0l1.09-2.73h0l1.09-2.74h0l1.09-2.75h0l1.09-2.75h0l1.09-2.76h0l1.09-2.77h0l1.09-2.77h0l1.09-2.78h0l1.09-2.79h0l1.09-2.79h0l1.09-2.8h0l1.09-2.8h0l1.09-2.81h0l1.09-2.82h0l1.09-2.82h0l1.09-2.83h0l1.09-2.84h0l1.09-2.84h0l1.09-2.85h0l1.09-2.85h0l1.09-2.86h0l1.09-2.87h0l1.09-2.87h0l1.09-2.88h0l1.09-2.89h0l1.09-2.89h0l1.09-2.9h0l1.09-2.91h0l1.09-2.91h0l1.09-2.92h0l1.09-2.92h0l1.09-2.93h0l1.09-2.94h0l1.09-2.94h0l1.09-2.95h0l1.09-2.96h0l1.09-2.96h0l1.09-2.97h0l1.09-2.98h0l1.09-2.98h0l1.09-2.99h0l1.09-2.99h0l1.09-3h0l1.09-3.01h0l1.09-3.01h0l1.09-3.02h0l1.09-3.03h0l1.09-3.03h0l1.09-3.04h0l1.09-3.05h0l1.09-3.05h0l1.09-3.06h0l1.09-3.06h0l1.09-3.07h0l1.09-3.08h0l1.09-3.08h0l1.09-3.09h0l1.09-3.1h0l1.09-3.1h0l1.09-3.11h0l1.09-3.12h0l1.09-3.12h0l1.09-3.13h0l1.09-3.13h0l1.09-3.14h0l1.09-3.15h0l1.09-3.15h0l1.09-3.16h0l1.09-3.17h0l1.09-3.17h0l1.09-3.18h0l1.09-3.19h0l1.09-3.19h0l1.09-3.2h0l1.09-3.2h0l1.09-3.21h0l1.09-3.22h0l1.09-3.22h0l1.09-3.23h0l1.09-3.24h0l1.09-3.24h0l1.09-3.25h0l1.09-3.26h0l1.09-3.26h0l1.09-3.27h0l1.09-3.27h0l1.09-3.28h0l1.09-3.29h0l1.09-3.29h0l1.09-3.3h0l1.09-3.31h0l1.09-3.31h0l1.09-3.32h0l1.09-3.32h0l1.09-3.33h0l1.09-3.34h0l1.09-3.34h0l1.09-3.35h0l1.09-3.36h0l1.09-3.36h0l1.09-3.37h0l1.09-3.38h0l1.09-3.38h0l1.09-3.39h0l1.09-3.39h0l1.09-3.4h0l1.09-3.41h0l1.09-3.41h0l1.09-3.42h0l1.09-3.43h0l1.09-3.43h0l1.09-3.44h0l1.09-3.45h0l1.09-3.45h0l1.09-3.46h0l1.09-3.46h0l1.09-3.47h0l1.09-3.48h0l1.09-3.48h0l1.09-3.49h0l1.09-3.5h0l1.09-3.5h0l1.09-3.51h0l1.09-3.52h0l1.09-3.52h0l1.09-3.53h0l1.09-3.53h0l1.09-3.54h0l1.09-3.55h0l1.09-3.55h0l1.09-3.56h0l1.09-3.57h0l1.09-3.57h0l1.09-3.58h0l1.09-3.59h0l1.09-3.59h0l1.09-3.6h0l1.09-3.6h0l1.09-3.61h0l1.09-3.62h0l1.09-3.62h0l1.09-3.63h0l1.09-3.64h0l1.09-3.64h0l1.09-3.65h0l1.09-3.66h0l1.09-3.66h0l1.09-3.67h0l1.09-3.67h0l1.09-3.68h0l1.09-3.69h0l1.09-3.69h0l1.09-3.7h0l1.09-3.71h0l1.09-3.71h0l1.09-3.72h0l1.09-3.72h0l1.09-3.73h0l1.09-3.74h0l1.09-3.74h0l1.09-3.75h0l1.09-3.76h0l1.09-3.76h0l1.09-3.77h0l1.09-3.78h0l1.09-3.78h0l1.09-3.79h0l1.09-3.79h0l1.09-3.8h0l1.09-3.81h0l1.09-3.81h0l1.09-3.82h0l1.09-3.83h0l1.09-3.83h0l1.09-3.84h0l1.09-3.85h0l1.09-3.85h0l1.09-3.86h0l1.09-3.86h0l1.09-3.87h0l1.09-3.88h0l1.09-3.88h0l1.09-3.89h0l1.09-3.9h0l1.09-3.9h0l1.09-3.91h0l1.09-3.92h0l1.09-3.92h0l1.09-3.93h0l1.09-3.93h0l1.09-3.94h0l1.09-3.95h0l1.09-3.95h0l1.09-3.96h0l1.09-3.97h0l1.09-3.97h0l1.09-3.98h0l1.09-3.99h0l1.09-3.99h0l1.09-4h0l1.09-4"/>
        </g>
      </g>
    </g>
  </g>
  <g id="uuid-671ca9ef-b900-4e2d-b516-e594ea9dd466" data-name="Marco">
    <path class="uuid-448e6422-7e6c-4475-ac54-af7e3ddf910e" d="m-2-2V1022h1249V-2H-2Zm1232,987c0,11.05-8.95,20-20,20H35c-11.05,0-20-8.95-20-20V35c0-11.05,8.95-20,20-20h1175c11.05,0,20,8.95,20,20v950Z"/>
  </g>
</svg>