<?xml version="1.0" encoding="UTF-8"?>
<svg xmlns="http://www.w3.org/2000/svg" xmlns:xlink="http://www.w3.org/1999/xlink" viewBox="0 0 1245 1020">
  <defs>
    <style>
      .uuid-6e9ec329-d73d-4d10-bfef-983086209359 {
        stroke: silver;
      }

      .uuid-6e9ec329-d73d-4d10-bfef-983086209359, .uuid-5cae335c-afaa-448c-aed1-9b34f4af34a0, .uuid-235fc5fb-a2e9-449a-9b77-9e8e8fe67045, .uuid-e867806f-41fd-4e32-8b05-018b6d97c3ed, .uuid-db910af0-ccb6-42d5-9164-c08a65290462, .uuid-e287e4cf-db4e-4558-a8ad-2b034cd7fc00, .uuid-296440df-b05a-4181-a711-82a2bbf3f2aa, .uuid-2bd1ec6a-8288-476c-8977-0bcf820eefb1, .uuid-4ef20c1a-18e1-48f5-8af4-080d7f86a29d {
        fill: none;
      }

      .uuid-6e9ec329-d73d-4d10-bfef-983086209359, .uuid-e867806f-41fd-4e32-8b05-018b6d97c3ed, .uuid-4ef20c1a-18e1-48f5-8af4-080d7f86a29d {
        stroke-linecap: round;
        stroke-linejoin: round;
      }

      .uuid-5cae335c-afaa-448c-aed1-9b34f4af34a0 {
        clip-path: url(#uuid-41b08d7b-a729-401c-a0bc-9c3c338328ad);
      }

      .uuid-3f1371fc-1889-4d6c-8db5-46d997a23ac8 {
        fill: #fff;
      }

      .uuid-235fc5fb-a2e9-449a-9b77-9e8e8fe67045 {
        stroke: #fff;
        stroke-linejoin: bevel;
        stroke-width: 3px;
      }

      .uuid-e867806f-41fd-4e32-8b05-018b6d97c3ed {
        stroke: rgba(192, 192, 192, .24);
      }

      .uuid-db910af0-ccb6-42d5-9164-c08a65290462 {
        clip-path: url(#uuid-07b11cae-ac4f-4c73-ae0d-c6ef05351ee0);
      }

      .uuid-e287e4cf-db4e-4558-a8ad-2b034cd7fc00 {
        isolation: isolate;
      }

      .uuid-5826424b-caea-4c44-89d6-a72733574064 {
        fill: #00699b;
      }

      .uuid-2bd1ec6a-8288-476c-8977-0bcf820eefb1 {
        stroke: #252525;
        stroke-miterlimit: 10;
      }

      .uuid-d47a3264-54de-416d-88e4-e6891b1b0218 {
        fill: #252525;
      }

      .uuid-4ef20c1a-18e1-48f5-8af4-080d7f86a29d {
        stroke: rgba(0, 0, 255, .7);
        stroke-width: 2.5px;
      }
    </style>
    <clipPath id="uuid-41b08d7b-a729-401c-a0bc-9c3c338328ad">
      <rect class="uuid-296440df-b05a-4181-a711-82a2bbf3f2aa" x="-1" width="1247" height="1020"/>
    </clipPath>
    <clipPath id="uuid-07b11cae-ac4f-4c73-ae0d-c6ef05351ee0">
      <rect class="uuid-296440df-b05a-4181-a711-82a2bbf3f2aa" x="-86.61" y="-35.47" width="1418.22" height="1090.94"/>
    </clipPath>
  </defs>
  <g id="uuid-35f4a634-f6ed-4863-9102-0c2ad043508a" data-name="Grafica">
    <g class="uuid-5cae335c-afaa-448c-aed1-9b34f4af34a0">
      <g class="uuid-db910af0-ccb6-42d5-9164-c08a65290462">
        <g>
          <rect class="uuid-3f1371fc-1889-4d6c-8db5-46d997a23ac8" x="-86.61" y="-35.47" width="1418.22" height="1090.94"/>
          <path class="uuid-6e9ec329-d73d-4d10-bfef-983086209359" d="m-53.43-34.91v1090.94m0-1090.94v1090.94M43.29-34.91v1090.94M140.01-34.91v1090.94M236.74-34.91v1090.94M333.46-34.91v1090.94M430.18-34.91v1090.94M526.9-34.91v1090.94M720.35-34.91v1090.94M817.07-34.91v1090.94M913.79-34.91v1090.94M1010.51-34.91v1090.94M1107.24-34.91v1090.94M1203.96-34.91v1090.94M1300.68-34.91v1090.94"/>
          <path class="uuid-e867806f-41fd-4e32-8b05-018b6d97c3ed" d="m-72.55-34.91v1090.94M-34.31-34.91v1090.94M-15.19-34.91v1090.94M3.93-34.91v1090.94M24.17-34.91v1090.94M62.41-34.91v1090.94M81.53-34.91v1090.94M100.65-34.91v1090.94M120.89-34.91v1090.94M159.13-34.91v1090.94M178.25-34.91v1090.94M197.37-34.91v1090.94M217.62-34.91v1090.94M255.86-34.91v1090.94M274.97-34.91v1090.94M294.09-34.91v1090.94M314.34-34.91v1090.94M352.58-34.91v1090.94M371.7-34.91v1090.94M390.82-34.91v1090.94M411.06-34.91v1090.94M449.3-34.91v1090.94M468.42-34.91v1090.94M488.66-34.91v1090.94M507.78-34.91v1090.94M546.02-34.91v1090.94m19.12-1090.94v1090.94m20.24-1090.94v1090.94m19.12-1090.94v1090.94M642.74-34.91v1090.94m19.12-1090.94v1090.94m20.24-1090.94v1090.94m19.12-1090.94v1090.94M739.47-34.91v1090.94m19.12-1090.94v1090.94m20.24-1090.94v1090.94m19.12-1090.94v1090.94M836.19-34.91v1090.94m19.12-1090.94v1090.94m20.24-1090.94v1090.94m19.12-1090.94v1090.94M932.91-34.91v1090.94m19.12-1090.94v1090.94m20.24-1090.94v1090.94m19.12-1090.94v1090.94m38.24-1090.94v1090.94m19.12-1090.94v1090.94m20.24-1090.94v1090.94m19.12-1090.94v1090.94m38.24-1090.94v1090.94m19.12-1090.94v1090.94m20.24-1090.94v1090.94m19.12-1090.94v1090.94m38.24-1090.94v1090.94m19.12-1090.94v1090.94m20.24-1090.94v1090.94m19.12-1090.94v1090.94m38.24-1090.94v1090.94"/>
          <path class="uuid-6e9ec329-d73d-4d10-bfef-983086209359" d="m-86.05,25.83h1418.22m-1418.22,0h1418.22M-86.05,122.55h1418.22M-86.05,219.27h1418.22M-86.05,315.99h1418.22M-86.05,412.72h1418.22M-86.05,606.16h1418.22M-86.05,702.88h1418.22M-86.05,799.6h1418.22M-86.05,896.33h1418.22M-86.05,993.05h1418.22"/>
          <path class="uuid-e867806f-41fd-4e32-8b05-018b6d97c3ed" d="m-86.05-32.66h1418.22m-1418.22,0h1418.22M-86.05-12.41h1418.22M-86.05,6.71h1418.22M-86.05,44.95h1418.22M-86.05,64.07h1418.22M-86.05,84.31h1418.22M-86.05,103.43h1418.22M-86.05,141.67h1418.22M-86.05,160.79h1418.22M-86.05,181.03h1418.22M-86.05,200.15h1418.22M-86.05,238.39h1418.22m-1418.22,19.12h1418.22m-1418.22,20.24h1418.22m-1418.22,19.12h1418.22M-86.05,335.11h1418.22m-1418.22,19.12h1418.22m-1418.22,20.24h1418.22m-1418.22,19.12h1418.22M-86.05,431.83h1418.22m-1418.22,19.12h1418.22m-1418.22,20.24h1418.22m-1418.22,19.12h1418.22m-1418.22,38.24h1418.22m-1418.22,19.12h1418.22m-1418.22,20.24h1418.22m-1418.22,19.12h1418.22m-1418.22,38.24h1418.22m-1418.22,19.12h1418.22m-1418.22,20.24h1418.22m-1418.22,19.12h1418.22m-1418.22,38.24h1418.22m-1418.22,19.12h1418.22m-1418.22,20.24h1418.22m-1418.22,19.12h1418.22m-1418.22,38.24h1418.22m-1418.22,19.12h1418.22m-1418.22,20.24h1418.22m-1418.22,19.12h1418.22m-1418.22,38.24h1418.22m-1418.22,20.24h1418.22m-1418.22,19.12h1418.22m-1418.22,19.12h1418.22m-1418.22,38.24h1418.22m-1418.22,20.24h1418.22m-1418.22,19.12h1418.22"/>
          <path class="uuid-2bd1ec6a-8288-476c-8977-0bcf820eefb1" d="m623.62-32.66v1088.69"/>
          <path class="uuid-2bd1ec6a-8288-476c-8977-0bcf820eefb1" d="m-86.05,509.44h1415.97"/>
          <g class="uuid-e287e4cf-db4e-4558-a8ad-2b034cd7fc00">
            <path class="uuid-d47a3264-54de-416d-88e4-e6891b1b0218" d="m43.85,523.12v.27h-6.75v-.27h6.75Z"/>
            <path class="uuid-d47a3264-54de-416d-88e4-e6891b1b0218" d="m44.85,519.22c.14-.37.35-.69.63-.94.27-.25.61-.44,1-.57s.83-.19,1.3-.19c.37,0,.72.04,1.07.12.34.08.65.21.92.39.27.18.49.41.65.7.16.29.24.63.24,1.04,0,.65-.19,1.15-.56,1.51-.37.36-.84.57-1.41.62v.03c.27.03.53.09.79.2s.49.25.69.45c.2.19.36.43.49.72.12.29.18.63.18,1.03,0,.43-.08.81-.25,1.15-.17.33-.39.61-.67.84-.28.23-.61.4-.99.52-.37.12-.77.18-1.19.18-.52,0-.99-.07-1.42-.22s-.78-.35-1.08-.63-.52-.61-.67-1.02c-.15-.41-.2-.87-.17-1.39h.27c-.04.49.01.92.15,1.29.14.37.34.69.61.94s.6.44,1,.57c.4.13.83.2,1.31.2.37,0,.72-.05,1.07-.15s.64-.26.9-.47c.26-.21.47-.46.63-.76.16-.3.24-.65.24-1.05s-.07-.73-.2-1.01c-.13-.28-.31-.51-.55-.69-.24-.18-.52-.32-.84-.41s-.67-.14-1.05-.16h-.66v-.27h.66c.3,0,.59-.03.88-.1.29-.07.56-.18.79-.34.23-.16.42-.37.57-.62.14-.26.22-.57.22-.95,0-.37-.09-.68-.24-.93s-.35-.46-.59-.61c-.24-.16-.52-.27-.82-.34-.31-.07-.62-.1-.94-.1-.44,0-.84.06-1.19.17s-.66.28-.91.51-.44.51-.57.86c-.13.34-.19.74-.18,1.2h-.27c0-.5.06-.94.2-1.32Z"/>
          </g>
          <g class="uuid-e287e4cf-db4e-4558-a8ad-2b034cd7fc00">
            <path class="uuid-235fc5fb-a2e9-449a-9b77-9e8e8fe67045" d="m43.85,523.12v.27h-6.75v-.27h6.75Z"/>
            <path class="uuid-235fc5fb-a2e9-449a-9b77-9e8e8fe67045" d="m44.85,519.22c.14-.37.35-.69.63-.94.27-.25.61-.44,1-.57s.83-.19,1.3-.19c.37,0,.72.04,1.07.12.34.08.65.21.92.39.27.18.49.41.65.7.16.29.24.63.24,1.04,0,.65-.19,1.15-.56,1.51-.37.36-.84.57-1.41.62v.03c.27.03.53.09.79.2s.49.25.69.45c.2.19.36.43.49.72.12.29.18.63.18,1.03,0,.43-.08.81-.25,1.15-.17.33-.39.61-.67.84-.28.23-.61.4-.99.52-.37.12-.77.18-1.19.18-.52,0-.99-.07-1.42-.22s-.78-.35-1.08-.63-.52-.61-.67-1.02c-.15-.41-.2-.87-.17-1.39h.27c-.04.49.01.92.15,1.29.14.37.34.69.61.94s.6.44,1,.57c.4.13.83.2,1.31.2.37,0,.72-.05,1.07-.15s.64-.26.9-.47c.26-.21.47-.46.63-.76.16-.3.24-.65.24-1.05s-.07-.73-.2-1.01c-.13-.28-.31-.51-.55-.69-.24-.18-.52-.32-.84-.41s-.67-.14-1.05-.16h-.66v-.27h.66c.3,0,.59-.03.88-.1.29-.07.56-.18.79-.34.23-.16.42-.37.57-.62.14-.26.22-.57.22-.95,0-.37-.09-.68-.24-.93s-.35-.46-.59-.61c-.24-.16-.52-.27-.82-.34-.31-.07-.62-.1-.94-.1-.44,0-.84.06-1.19.17s-.66.28-.91.51-.44.51-.57.86c-.13.34-.19.74-.18,1.2h-.27c0-.5.06-.94.2-1.32Z"/>
          </g>
          <g class="uuid-e287e4cf-db4e-4558-a8ad-2b034cd7fc00">
            <path class="uuid-d47a3264-54de-416d-88e4-e6891b1b0218" d="m43.85,523.12v.27h-6.75v-.27h6.75Z"/>
            <path class="uuid-d47a3264-54de-416d-88e4-e6891b1b0218" d="m44.85,519.22c.14-.37.35-.69.63-.94.27-.25.61-.44,1-.57s.83-.19,1.3-.19c.37,0,.72.04,1.07.12.34.08.65.21.92.39.27.18.49.41.65.7.16.29.24.63.24,1.04,0,.65-.19,1.15-.56,1.51-.37.36-.84.57-1.41.62v.03c.27.03.53.09.79.2s.49.25.69.45c.2.19.36.43.49.72.12.29.18.63.18,1.03,0,.43-.08.81-.25,1.15-.17.33-.39.61-.67.84-.28.23-.61.4-.99.52-.37.12-.77.18-1.19.18-.52,0-.99-.07-1.42-.22s-.78-.35-1.08-.63-.52-.61-.67-1.02c-.15-.41-.2-.87-.17-1.39h.27c-.04.49.01.92.15,1.29.14.37.34.69.61.94s.6.44,1,.57c.4.13.83.2,1.31.2.37,0,.72-.05,1.07-.15s.64-.26.9-.47c.26-.21.47-.46.63-.76.16-.3.24-.65.24-1.05s-.07-.73-.2-1.01c-.13-.28-.31-.51-.55-.69-.24-.18-.52-.32-.84-.41s-.67-.14-1.05-.16h-.66v-.27h.66c.3,0,.59-.03.88-.1.29-.07.56-.18.79-.34.23-.16.42-.37.57-.62.14-.26.22-.57.22-.95,0-.37-.09-.68-.24-.93s-.35-.46-.59-.61c-.24-.16-.52-.27-.82-.34-.31-.07-.62-.1-.94-.1-.44,0-.84.06-1.19.17s-.66.28-.91.51-.44.51-.57.86c-.13.34-.19.74-.18,1.2h-.27c0-.5.06-.94.2-1.32Z"/>
          </g>
          <g class="uuid-e287e4cf-db4e-4558-a8ad-2b034cd7fc00">
            <path class="uuid-d47a3264-54de-416d-88e4-e6891b1b0218" d="m133.83,523.12v.27h-6.75v-.27h6.75Z"/>
            <path class="uuid-d47a3264-54de-416d-88e4-e6891b1b0218" d="m140.75,526.87h-6.18c0-.39.07-.74.24-1.05.17-.31.4-.61.67-.88.28-.27.59-.54.94-.78.35-.25.69-.49,1.03-.74.35-.24.69-.49,1.03-.74.33-.25.63-.51.89-.79.26-.27.47-.57.63-.88.16-.31.24-.65.24-1s-.07-.68-.2-.95-.31-.5-.53-.69c-.22-.18-.49-.32-.8-.42s-.65-.14-1.02-.14c-.48,0-.89.07-1.23.22-.34.14-.62.34-.84.6s-.37.56-.47.92c-.1.36-.15.74-.15,1.17h-.27c0-1.01.26-1.79.75-2.34.49-.55,1.23-.83,2.21-.83.4,0,.76.05,1.11.15.34.1.64.26.89.47.25.21.45.46.6.77s.22.67.22,1.08c0,.5-.14.96-.4,1.38-.27.41-.61.8-1.02,1.16-.41.36-.85.7-1.33,1.02s-.92.64-1.34.96c-.42.32-.78.65-1.07.99-.3.34-.46.7-.5,1.1h5.91v.27Z"/>
            <path class="uuid-d47a3264-54de-416d-88e4-e6891b1b0218" d="m143.07,526.87v-1.32h.27v1.32h-.27Z"/>
            <path class="uuid-d47a3264-54de-416d-88e4-e6891b1b0218" d="m146.23,521.89h.03c.26-.43.61-.75,1.05-.94.44-.2.92-.3,1.46-.3.48,0,.91.08,1.3.24s.72.38,1,.65c.28.28.49.61.65,1.01.15.39.23.82.23,1.28,0,.49-.08.93-.23,1.32-.15.4-.37.73-.65,1.01-.28.28-.61.49-1,.64s-.82.22-1.3.22-.9-.07-1.3-.21-.74-.34-1.03-.6c-.28-.26-.5-.58-.65-.96-.15-.38-.22-.82-.2-1.32h.27c-.02.45.04.85.18,1.2.13.35.33.65.59.89.26.24.57.43.94.55.37.13.77.19,1.21.19s.85-.07,1.21-.21c.35-.14.66-.34.91-.59.25-.26.45-.57.58-.93.13-.37.2-.77.2-1.21s-.07-.81-.21-1.17c-.14-.36-.34-.66-.59-.92-.25-.26-.56-.46-.92-.6-.36-.14-.76-.22-1.19-.22-.54,0-1.04.12-1.5.36-.46.24-.81.59-1.07,1.05h-.34l.99-4.63h4.71v.27h-4.49l-.84,3.93Z"/>
          </g>
          <g class="uuid-e287e4cf-db4e-4558-a8ad-2b034cd7fc00">
            <path class="uuid-235fc5fb-a2e9-449a-9b77-9e8e8fe67045" d="m133.83,523.12v.27h-6.75v-.27h6.75Z"/>
            <path class="uuid-235fc5fb-a2e9-449a-9b77-9e8e8fe67045" d="m140.75,526.87h-6.18c0-.39.07-.74.24-1.05.17-.31.4-.61.67-.88.28-.27.59-.54.94-.78.35-.25.69-.49,1.03-.74.35-.24.69-.49,1.03-.74.33-.25.63-.51.89-.79.26-.27.47-.57.63-.88.16-.31.24-.65.24-1s-.07-.68-.2-.95-.31-.5-.53-.69c-.22-.18-.49-.32-.8-.42s-.65-.14-1.02-.14c-.48,0-.89.07-1.23.22-.34.14-.62.34-.84.6s-.37.56-.47.92c-.1.36-.15.74-.15,1.17h-.27c0-1.01.26-1.79.75-2.34.49-.55,1.23-.83,2.21-.83.4,0,.76.05,1.11.15.34.1.64.26.89.47.25.21.45.46.6.77s.22.67.22,1.08c0,.5-.14.96-.4,1.38-.27.41-.61.8-1.02,1.16-.41.36-.85.7-1.33,1.02s-.92.64-1.34.96c-.42.32-.78.65-1.07.99-.3.34-.46.7-.5,1.1h5.91v.27Z"/>
            <path class="uuid-235fc5fb-a2e9-449a-9b77-9e8e8fe67045" d="m143.07,526.87v-1.32h.27v1.32h-.27Z"/>
            <path class="uuid-235fc5fb-a2e9-449a-9b77-9e8e8fe67045" d="m146.23,521.89h.03c.26-.43.61-.75,1.05-.94.44-.2.92-.3,1.46-.3.48,0,.91.08,1.3.24s.72.38,1,.65c.28.28.49.61.65,1.01.15.39.23.82.23,1.28,0,.49-.08.93-.23,1.32-.15.4-.37.73-.65,1.01-.28.28-.61.49-1,.64s-.82.22-1.3.22-.9-.07-1.3-.21-.74-.34-1.03-.6c-.28-.26-.5-.58-.65-.96-.15-.38-.22-.82-.2-1.32h.27c-.02.45.04.85.18,1.2.13.35.33.65.59.89.26.24.57.43.94.55.37.13.77.19,1.21.19s.85-.07,1.21-.21c.35-.14.66-.34.91-.59.25-.26.45-.57.58-.93.13-.37.2-.77.2-1.21s-.07-.81-.21-1.17c-.14-.36-.34-.66-.59-.92-.25-.26-.56-.46-.92-.6-.36-.14-.76-.22-1.19-.22-.54,0-1.04.12-1.5.36-.46.24-.81.59-1.07,1.05h-.34l.99-4.63h4.71v.27h-4.49l-.84,3.93Z"/>
          </g>
          <g class="uuid-e287e4cf-db4e-4558-a8ad-2b034cd7fc00">
            <path class="uuid-d47a3264-54de-416d-88e4-e6891b1b0218" d="m133.83,523.12v.27h-6.75v-.27h6.75Z"/>
            <path class="uuid-d47a3264-54de-416d-88e4-e6891b1b0218" d="m140.75,526.87h-6.18c0-.39.07-.74.24-1.05.17-.31.4-.61.67-.88.28-.27.59-.54.94-.78.35-.25.69-.49,1.03-.74.35-.24.69-.49,1.03-.74.33-.25.63-.51.89-.79.26-.27.47-.57.63-.88.16-.31.24-.65.24-1s-.07-.68-.2-.95-.31-.5-.53-.69c-.22-.18-.49-.32-.8-.42s-.65-.14-1.02-.14c-.48,0-.89.07-1.23.22-.34.14-.62.34-.84.6s-.37.56-.47.92c-.1.36-.15.74-.15,1.17h-.27c0-1.01.26-1.79.75-2.34.49-.55,1.23-.83,2.21-.83.4,0,.76.05,1.11.15.34.1.64.26.89.47.25.21.45.46.6.77s.22.67.22,1.08c0,.5-.14.96-.4,1.38-.27.41-.61.8-1.02,1.16-.41.36-.85.7-1.33,1.02s-.92.64-1.34.96c-.42.32-.78.65-1.07.99-.3.34-.46.7-.5,1.1h5.91v.27Z"/>
            <path class="uuid-d47a3264-54de-416d-88e4-e6891b1b0218" d="m143.07,526.87v-1.32h.27v1.32h-.27Z"/>
            <path class="uuid-d47a3264-54de-416d-88e4-e6891b1b0218" d="m146.23,521.89h.03c.26-.43.61-.75,1.05-.94.44-.2.92-.3,1.46-.3.48,0,.91.08,1.3.24s.72.38,1,.65c.28.28.49.61.65,1.01.15.39.23.82.23,1.28,0,.49-.08.93-.23,1.32-.15.4-.37.73-.65,1.01-.28.28-.61.49-1,.64s-.82.22-1.3.22-.9-.07-1.3-.21-.74-.34-1.03-.6c-.28-.26-.5-.58-.65-.96-.15-.38-.22-.82-.2-1.32h.27c-.02.45.04.85.18,1.2.13.35.33.65.59.89.26.24.57.43.94.55.37.13.77.19,1.21.19s.85-.07,1.21-.21c.35-.14.66-.34.91-.59.25-.26.45-.57.58-.93.13-.37.2-.77.2-1.21s-.07-.81-.21-1.17c-.14-.36-.34-.66-.59-.92-.25-.26-.56-.46-.92-.6-.36-.14-.76-.22-1.19-.22-.54,0-1.04.12-1.5.36-.46.24-.81.59-1.07,1.05h-.34l.99-4.63h4.71v.27h-4.49l-.84,3.93Z"/>
          </g>
          <g class="uuid-e287e4cf-db4e-4558-a8ad-2b034cd7fc00">
            <path class="uuid-d47a3264-54de-416d-88e4-e6891b1b0218" d="m237.3,523.12v.27h-6.75v-.27h6.75Z"/>
            <path class="uuid-d47a3264-54de-416d-88e4-e6891b1b0218" d="m244.22,526.87h-6.18c0-.39.07-.74.24-1.05.17-.31.4-.61.67-.88.28-.27.59-.54.94-.78.35-.25.69-.49,1.03-.74.35-.24.69-.49,1.03-.74.33-.25.63-.51.89-.79.26-.27.47-.57.63-.88.16-.31.24-.65.24-1s-.07-.68-.2-.95-.31-.5-.53-.69c-.22-.18-.49-.32-.8-.42s-.65-.14-1.02-.14c-.48,0-.89.07-1.23.22-.34.14-.62.34-.84.6s-.37.56-.47.92c-.1.36-.15.74-.15,1.17h-.27c0-1.01.26-1.79.75-2.34.49-.55,1.23-.83,2.21-.83.4,0,.76.05,1.11.15.34.1.64.26.89.47.25.21.45.46.6.77s.22.67.22,1.08c0,.5-.14.96-.4,1.38-.27.41-.61.8-1.02,1.16-.41.36-.85.7-1.33,1.02s-.92.64-1.34.96c-.42.32-.78.65-1.07.99-.3.34-.46.7-.5,1.1h5.91v.27Z"/>
          </g>
          <g class="uuid-e287e4cf-db4e-4558-a8ad-2b034cd7fc00">
            <path class="uuid-235fc5fb-a2e9-449a-9b77-9e8e8fe67045" d="m237.3,523.12v.27h-6.75v-.27h6.75Z"/>
            <path class="uuid-235fc5fb-a2e9-449a-9b77-9e8e8fe67045" d="m244.22,526.87h-6.18c0-.39.07-.74.24-1.05.17-.31.4-.61.67-.88.28-.27.59-.54.94-.78.35-.25.69-.49,1.03-.74.35-.24.69-.49,1.03-.74.33-.25.63-.51.89-.79.26-.27.47-.57.63-.88.16-.31.24-.65.24-1s-.07-.68-.2-.95-.31-.5-.53-.69c-.22-.18-.49-.32-.8-.42s-.65-.14-1.02-.14c-.48,0-.89.07-1.23.22-.34.14-.62.34-.84.6s-.37.56-.47.92c-.1.36-.15.74-.15,1.17h-.27c0-1.01.26-1.79.75-2.34.49-.55,1.23-.83,2.21-.83.4,0,.76.05,1.11.15.34.1.64.26.89.47.25.21.45.46.6.77s.22.67.22,1.08c0,.5-.14.96-.4,1.38-.27.41-.61.8-1.02,1.16-.41.36-.85.7-1.33,1.02s-.92.64-1.34.96c-.42.32-.78.65-1.07.99-.3.34-.46.7-.5,1.1h5.91v.27Z"/>
          </g>
          <g class="uuid-e287e4cf-db4e-4558-a8ad-2b034cd7fc00">
            <path class="uuid-d47a3264-54de-416d-88e4-e6891b1b0218" d="m237.3,523.12v.27h-6.75v-.27h6.75Z"/>
            <path class="uuid-d47a3264-54de-416d-88e4-e6891b1b0218" d="m244.22,526.87h-6.18c0-.39.07-.74.24-1.05.17-.31.4-.61.67-.88.28-.27.59-.54.94-.78.35-.25.69-.49,1.03-.74.35-.24.69-.49,1.03-.74.33-.25.63-.51.89-.79.26-.27.47-.57.63-.88.16-.31.24-.65.24-1s-.07-.68-.2-.95-.31-.5-.53-.69c-.22-.18-.49-.32-.8-.42s-.65-.14-1.02-.14c-.48,0-.89.07-1.23.22-.34.14-.62.34-.84.6s-.37.56-.47.92c-.1.36-.15.74-.15,1.17h-.27c0-1.01.26-1.79.75-2.34.49-.55,1.23-.83,2.21-.83.4,0,.76.05,1.11.15.34.1.64.26.89.47.25.21.45.46.6.77s.22.67.22,1.08c0,.5-.14.96-.4,1.38-.27.41-.61.8-1.02,1.16-.41.36-.85.7-1.33,1.02s-.92.64-1.34.96c-.42.32-.78.65-1.07.99-.3.34-.46.7-.5,1.1h5.91v.27Z"/>
          </g>
          <g class="uuid-e287e4cf-db4e-4558-a8ad-2b034cd7fc00">
            <path class="uuid-d47a3264-54de-416d-88e4-e6891b1b0218" d="m327.27,523.12v.27h-6.75v-.27h6.75Z"/>
            <path class="uuid-d47a3264-54de-416d-88e4-e6891b1b0218" d="m331.27,518.04c-.28.39-.64.72-1.09,1-.45.28-.9.49-1.36.61v-.27c.28-.09.53-.19.74-.3.22-.11.42-.23.61-.36.19-.14.37-.29.55-.46s.36-.36.55-.58h.3v9.18h-.27v-8.83h-.03Z"/>
            <path class="uuid-d47a3264-54de-416d-88e4-e6891b1b0218" d="m336.52,526.87v-1.32h.27v1.32h-.27Z"/>
            <path class="uuid-d47a3264-54de-416d-88e4-e6891b1b0218" d="m339.67,521.89h.03c.26-.43.61-.75,1.05-.94.44-.2.92-.3,1.46-.3.48,0,.91.08,1.3.24s.72.38,1,.65c.28.28.49.61.65,1.01.15.39.23.82.23,1.28,0,.49-.08.93-.23,1.32-.15.4-.37.73-.65,1.01-.28.28-.61.49-1,.64s-.82.22-1.3.22-.9-.07-1.3-.21-.74-.34-1.03-.6c-.28-.26-.5-.58-.65-.96-.15-.38-.22-.82-.2-1.32h.27c-.02.45.04.85.18,1.2.13.35.33.65.59.89.26.24.57.43.94.55.37.13.77.19,1.21.19s.85-.07,1.21-.21c.35-.14.66-.34.91-.59.25-.26.45-.57.58-.93.13-.37.2-.77.2-1.21s-.07-.81-.21-1.17c-.14-.36-.34-.66-.59-.92-.25-.26-.56-.46-.92-.6-.36-.14-.76-.22-1.19-.22-.54,0-1.04.12-1.5.36-.46.24-.81.59-1.07,1.05h-.34l.99-4.63h4.71v.27h-4.49l-.84,3.93Z"/>
          </g>
          <g class="uuid-e287e4cf-db4e-4558-a8ad-2b034cd7fc00">
            <path class="uuid-235fc5fb-a2e9-449a-9b77-9e8e8fe67045" d="m327.27,523.12v.27h-6.75v-.27h6.75Z"/>
            <path class="uuid-235fc5fb-a2e9-449a-9b77-9e8e8fe67045" d="m331.27,518.04c-.28.39-.64.72-1.09,1-.45.28-.9.49-1.36.61v-.27c.28-.09.53-.19.74-.3.22-.11.42-.23.61-.36.19-.14.37-.29.55-.46s.36-.36.55-.58h.3v9.18h-.27v-8.83h-.03Z"/>
            <path class="uuid-235fc5fb-a2e9-449a-9b77-9e8e8fe67045" d="m336.52,526.87v-1.32h.27v1.32h-.27Z"/>
            <path class="uuid-235fc5fb-a2e9-449a-9b77-9e8e8fe67045" d="m339.67,521.89h.03c.26-.43.61-.75,1.05-.94.44-.2.92-.3,1.46-.3.48,0,.91.08,1.3.24s.72.38,1,.65c.28.28.49.61.65,1.01.15.39.23.82.23,1.28,0,.49-.08.93-.23,1.32-.15.4-.37.73-.65,1.01-.28.28-.61.49-1,.64s-.82.22-1.3.22-.9-.07-1.3-.21-.74-.34-1.03-.6c-.28-.26-.5-.58-.65-.96-.15-.38-.22-.82-.2-1.32h.27c-.02.45.04.85.18,1.2.13.35.33.65.59.89.26.24.57.43.94.55.37.13.77.19,1.21.19s.85-.07,1.21-.21c.35-.14.66-.34.91-.59.25-.26.45-.57.58-.93.13-.37.2-.77.2-1.21s-.07-.81-.21-1.17c-.14-.36-.34-.66-.59-.92-.25-.26-.56-.46-.92-.6-.36-.14-.76-.22-1.19-.22-.54,0-1.04.12-1.5.36-.46.24-.81.59-1.07,1.05h-.34l.99-4.63h4.71v.27h-4.49l-.84,3.93Z"/>
          </g>
          <g class="uuid-e287e4cf-db4e-4558-a8ad-2b034cd7fc00">
            <path class="uuid-d47a3264-54de-416d-88e4-e6891b1b0218" d="m327.27,523.12v.27h-6.75v-.27h6.75Z"/>
            <path class="uuid-d47a3264-54de-416d-88e4-e6891b1b0218" d="m331.27,518.04c-.28.39-.64.72-1.09,1-.45.28-.9.49-1.36.61v-.27c.28-.09.53-.19.74-.3.22-.11.42-.23.61-.36.19-.14.37-.29.55-.46s.36-.36.55-.58h.3v9.18h-.27v-8.83h-.03Z"/>
            <path class="uuid-d47a3264-54de-416d-88e4-e6891b1b0218" d="m336.52,526.87v-1.32h.27v1.32h-.27Z"/>
            <path class="uuid-d47a3264-54de-416d-88e4-e6891b1b0218" d="m339.67,521.89h.03c.26-.43.61-.75,1.05-.94.44-.2.92-.3,1.46-.3.48,0,.91.08,1.3.24s.72.38,1,.65c.28.28.49.61.65,1.01.15.39.23.82.23,1.28,0,.49-.08.93-.23,1.32-.15.4-.37.73-.65,1.01-.28.28-.61.49-1,.64s-.82.22-1.3.22-.9-.07-1.3-.21-.74-.34-1.03-.6c-.28-.26-.5-.58-.65-.96-.15-.38-.22-.82-.2-1.32h.27c-.02.45.04.85.18,1.2.13.35.33.65.59.89.26.24.57.43.94.55.37.13.77.19,1.21.19s.85-.07,1.21-.21c.35-.14.66-.34.91-.59.25-.26.45-.57.58-.93.13-.37.2-.77.2-1.21s-.07-.81-.21-1.17c-.14-.36-.34-.66-.59-.92-.25-.26-.56-.46-.92-.6-.36-.14-.76-.22-1.19-.22-.54,0-1.04.12-1.5.36-.46.24-.81.59-1.07,1.05h-.34l.99-4.63h4.71v.27h-4.49l-.84,3.93Z"/>
          </g>
          <g class="uuid-e287e4cf-db4e-4558-a8ad-2b034cd7fc00">
            <path class="uuid-d47a3264-54de-416d-88e4-e6891b1b0218" d="m430.74,523.12v.27h-6.75v-.27h6.75Z"/>
            <path class="uuid-d47a3264-54de-416d-88e4-e6891b1b0218" d="m434.74,518.04c-.28.39-.64.72-1.09,1-.45.28-.9.49-1.36.61v-.27c.28-.09.53-.19.74-.3.22-.11.42-.23.61-.36.19-.14.37-.29.55-.46s.36-.36.55-.58h.3v9.18h-.27v-8.83h-.03Z"/>
          </g>
          <g class="uuid-e287e4cf-db4e-4558-a8ad-2b034cd7fc00">
            <path class="uuid-235fc5fb-a2e9-449a-9b77-9e8e8fe67045" d="m430.74,523.12v.27h-6.75v-.27h6.75Z"/>
            <path class="uuid-235fc5fb-a2e9-449a-9b77-9e8e8fe67045" d="m434.74,518.04c-.28.39-.64.72-1.09,1-.45.28-.9.49-1.36.61v-.27c.28-.09.53-.19.74-.3.22-.11.42-.23.61-.36.19-.14.37-.29.55-.46s.36-.36.55-.58h.3v9.18h-.27v-8.83h-.03Z"/>
          </g>
          <g class="uuid-e287e4cf-db4e-4558-a8ad-2b034cd7fc00">
            <path class="uuid-d47a3264-54de-416d-88e4-e6891b1b0218" d="m430.74,523.12v.27h-6.75v-.27h6.75Z"/>
            <path class="uuid-d47a3264-54de-416d-88e4-e6891b1b0218" d="m434.74,518.04c-.28.39-.64.72-1.09,1-.45.28-.9.49-1.36.61v-.27c.28-.09.53-.19.74-.3.22-.11.42-.23.61-.36.19-.14.37-.29.55-.46s.36-.36.55-.58h.3v9.18h-.27v-8.83h-.03Z"/>
          </g>
          <g class="uuid-e287e4cf-db4e-4558-a8ad-2b034cd7fc00">
            <path class="uuid-d47a3264-54de-416d-88e4-e6891b1b0218" d="m520.72,523.12v.27h-6.75v-.27h6.75Z"/>
            <path class="uuid-d47a3264-54de-416d-88e4-e6891b1b0218" d="m527.77,524c-.11.57-.3,1.08-.57,1.53s-.63.81-1.07,1.09c-.44.27-.99.41-1.66.41s-1.21-.14-1.65-.41c-.45-.27-.8-.64-1.07-1.09-.27-.45-.46-.96-.57-1.53-.11-.57-.17-1.14-.17-1.71s.06-1.15.17-1.71c.11-.57.3-1.08.57-1.53.27-.45.63-.81,1.07-1.09s1-.42,1.65-.42,1.22.14,1.66.42c.44.28.8.64,1.07,1.09.27.45.46.96.57,1.53.11.57.17,1.14.17,1.71s-.06,1.15-.17,1.71Zm-.25-3.28c-.1-.53-.27-1.01-.51-1.44-.24-.43-.57-.78-.98-1.06-.41-.27-.93-.41-1.56-.41s-1.15.14-1.56.41c-.41.28-.74.63-.98,1.06-.24.43-.41.91-.51,1.44-.1.53-.15,1.05-.15,1.57s.05,1.04.15,1.57c.1.53.27,1.01.51,1.44.24.43.57.79.98,1.06.41.27.93.41,1.56.41s1.15-.14,1.56-.41c.41-.27.74-.63.98-1.06.24-.43.41-.91.51-1.44.1-.53.15-1.05.15-1.57s-.05-1.03-.15-1.57Z"/>
            <path class="uuid-d47a3264-54de-416d-88e4-e6891b1b0218" d="m529.96,526.87v-1.32h.27v1.32h-.27Z"/>
            <path class="uuid-d47a3264-54de-416d-88e4-e6891b1b0218" d="m533.12,521.89h.03c.26-.43.61-.75,1.05-.94.44-.2.92-.3,1.46-.3.48,0,.91.08,1.3.24s.72.38,1,.65c.28.28.49.61.65,1.01.15.39.23.82.23,1.28,0,.49-.08.93-.23,1.32-.15.4-.37.73-.65,1.01-.28.28-.61.49-1,.64s-.82.22-1.3.22-.9-.07-1.3-.21-.74-.34-1.03-.6c-.28-.26-.5-.58-.65-.96-.15-.38-.22-.82-.2-1.32h.27c-.02.45.04.85.18,1.2.13.35.33.65.59.89.26.24.57.43.94.55.37.13.77.19,1.21.19s.85-.07,1.21-.21c.35-.14.66-.34.91-.59.25-.26.45-.57.58-.93.13-.37.2-.77.2-1.21s-.07-.81-.21-1.17c-.14-.36-.34-.66-.59-.92-.25-.26-.56-.46-.92-.6-.36-.14-.76-.22-1.19-.22-.54,0-1.04.12-1.5.36-.46.24-.81.59-1.07,1.05h-.34l.99-4.63h4.71v.27h-4.49l-.84,3.93Z"/>
          </g>
          <g class="uuid-e287e4cf-db4e-4558-a8ad-2b034cd7fc00">
            <path class="uuid-235fc5fb-a2e9-449a-9b77-9e8e8fe67045" d="m520.72,523.12v.27h-6.75v-.27h6.75Z"/>
            <path class="uuid-235fc5fb-a2e9-449a-9b77-9e8e8fe67045" d="m527.77,524c-.11.57-.3,1.08-.57,1.53s-.63.81-1.07,1.09c-.44.27-.99.41-1.66.41s-1.21-.14-1.65-.41c-.45-.27-.8-.64-1.07-1.09-.27-.45-.46-.96-.57-1.53-.11-.57-.17-1.14-.17-1.71s.06-1.15.17-1.71c.11-.57.3-1.08.57-1.53.27-.45.63-.81,1.07-1.09s1-.42,1.65-.42,1.22.14,1.66.42c.44.28.8.64,1.07,1.09.27.45.46.96.57,1.53.11.57.17,1.14.17,1.71s-.06,1.15-.17,1.71Zm-.25-3.28c-.1-.53-.27-1.01-.51-1.44-.24-.43-.57-.78-.98-1.06-.41-.27-.93-.41-1.56-.41s-1.15.14-1.56.41c-.41.28-.74.63-.98,1.06-.24.43-.41.91-.51,1.44-.1.53-.15,1.05-.15,1.57s.05,1.04.15,1.57c.1.53.27,1.01.51,1.44.24.43.57.79.98,1.06.41.27.93.41,1.56.41s1.15-.14,1.56-.41c.41-.27.74-.63.98-1.06.24-.43.41-.91.51-1.44.1-.53.15-1.05.15-1.57s-.05-1.03-.15-1.57Z"/>
            <path class="uuid-235fc5fb-a2e9-449a-9b77-9e8e8fe67045" d="m529.96,526.87v-1.32h.27v1.32h-.27Z"/>
            <path class="uuid-235fc5fb-a2e9-449a-9b77-9e8e8fe67045" d="m533.12,521.89h.03c.26-.43.61-.75,1.05-.94.44-.2.92-.3,1.46-.3.48,0,.91.08,1.3.24s.72.38,1,.65c.28.28.49.61.65,1.01.15.39.23.82.23,1.28,0,.49-.08.93-.23,1.32-.15.4-.37.73-.65,1.01-.28.28-.61.49-1,.64s-.82.22-1.3.22-.9-.07-1.3-.21-.74-.34-1.03-.6c-.28-.26-.5-.58-.65-.96-.15-.38-.22-.82-.2-1.32h.27c-.02.45.04.85.18,1.2.13.35.33.65.59.89.26.24.57.43.94.55.37.13.77.19,1.21.19s.85-.07,1.21-.21c.35-.14.66-.34.91-.59.25-.26.45-.57.58-.93.13-.37.2-.77.2-1.21s-.07-.81-.21-1.17c-.14-.36-.34-.66-.59-.92-.25-.26-.56-.46-.92-.6-.36-.14-.76-.22-1.19-.22-.54,0-1.04.12-1.5.36-.46.24-.81.59-1.07,1.05h-.34l.99-4.63h4.71v.27h-4.49l-.84,3.93Z"/>
          </g>
          <g class="uuid-e287e4cf-db4e-4558-a8ad-2b034cd7fc00">
            <path class="uuid-d47a3264-54de-416d-88e4-e6891b1b0218" d="m520.72,523.12v.27h-6.75v-.27h6.75Z"/>
            <path class="uuid-d47a3264-54de-416d-88e4-e6891b1b0218" d="m527.77,524c-.11.57-.3,1.08-.57,1.53s-.63.81-1.07,1.09c-.44.27-.99.41-1.66.41s-1.21-.14-1.65-.41c-.45-.27-.8-.64-1.07-1.09-.27-.45-.46-.96-.57-1.53-.11-.57-.17-1.14-.17-1.71s.06-1.15.17-1.71c.11-.57.3-1.08.57-1.53.27-.45.63-.81,1.07-1.09s1-.42,1.65-.42,1.22.14,1.66.42c.44.28.8.64,1.07,1.09.27.45.46.96.57,1.53.11.57.17,1.14.17,1.71s-.06,1.15-.17,1.71Zm-.25-3.28c-.1-.53-.27-1.01-.51-1.44-.24-.43-.57-.78-.98-1.06-.41-.27-.93-.41-1.56-.41s-1.15.14-1.56.41c-.41.28-.74.63-.98,1.06-.24.43-.41.91-.51,1.44-.1.53-.15,1.05-.15,1.57s.05,1.04.15,1.57c.1.53.27,1.01.51,1.44.24.43.57.79.98,1.06.41.27.93.41,1.56.41s1.15-.14,1.56-.41c.41-.27.74-.63.98-1.06.24-.43.41-.91.51-1.44.1-.53.15-1.05.15-1.57s-.05-1.03-.15-1.57Z"/>
            <path class="uuid-d47a3264-54de-416d-88e4-e6891b1b0218" d="m529.96,526.87v-1.32h.27v1.32h-.27Z"/>
            <path class="uuid-d47a3264-54de-416d-88e4-e6891b1b0218" d="m533.12,521.89h.03c.26-.43.61-.75,1.05-.94.44-.2.92-.3,1.46-.3.48,0,.91.08,1.3.24s.72.38,1,.65c.28.28.49.61.65,1.01.15.39.23.82.23,1.28,0,.49-.08.93-.23,1.32-.15.4-.37.73-.65,1.01-.28.28-.61.49-1,.64s-.82.22-1.3.22-.9-.07-1.3-.21-.74-.34-1.03-.6c-.28-.26-.5-.58-.65-.96-.15-.38-.22-.82-.2-1.32h.27c-.02.45.04.85.18,1.2.13.35.33.65.59.89.26.24.57.43.94.55.37.13.77.19,1.21.19s.85-.07,1.21-.21c.35-.14.66-.34.91-.59.25-.26.45-.57.58-.93.13-.37.2-.77.2-1.21s-.07-.81-.21-1.17c-.14-.36-.34-.66-.59-.92-.25-.26-.56-.46-.92-.6-.36-.14-.76-.22-1.19-.22-.54,0-1.04.12-1.5.36-.46.24-.81.59-1.07,1.05h-.34l.99-4.63h4.71v.27h-4.49l-.84,3.93Z"/>
          </g>
          <g class="uuid-e287e4cf-db4e-4558-a8ad-2b034cd7fc00">
            <path class="uuid-d47a3264-54de-416d-88e4-e6891b1b0218" d="m717.84,524c-.11.57-.3,1.08-.57,1.53-.27.45-.63.81-1.07,1.09-.44.27-.99.41-1.66.41s-1.21-.14-1.65-.41c-.45-.27-.8-.64-1.07-1.09-.27-.45-.46-.96-.57-1.53-.11-.57-.17-1.14-.17-1.71s.06-1.15.17-1.71.3-1.08.57-1.53c.27-.45.63-.81,1.07-1.09s1-.42,1.65-.42,1.22.14,1.66.42c.44.28.8.64,1.07,1.09.27.45.46.96.57,1.53s.17,1.14.17,1.71-.06,1.15-.17,1.71Zm-.25-3.28c-.1-.53-.27-1.01-.51-1.44-.24-.43-.57-.78-.98-1.06-.41-.27-.93-.41-1.56-.41s-1.15.14-1.56.41c-.41.28-.74.63-.98,1.06-.24.43-.41.91-.51,1.44-.1.53-.15,1.05-.15,1.57s.05,1.04.15,1.57c.1.53.27,1.01.51,1.44s.57.79.98,1.06c.41.27.93.41,1.56.41s1.15-.14,1.56-.41.74-.63.98-1.06.41-.91.51-1.44c.1-.53.15-1.05.15-1.57s-.05-1.03-.15-1.57Z"/>
            <path class="uuid-d47a3264-54de-416d-88e4-e6891b1b0218" d="m720.03,526.87v-1.32h.27v1.32h-.27Z"/>
            <path class="uuid-d47a3264-54de-416d-88e4-e6891b1b0218" d="m723.19,521.89h.03c.26-.43.61-.75,1.05-.94s.92-.3,1.46-.3c.48,0,.91.08,1.3.24.39.16.72.38,1,.65s.5.61.65,1.01c.15.39.23.82.23,1.28,0,.49-.08.93-.23,1.32-.15.4-.37.73-.65,1.01s-.61.49-1,.64c-.39.15-.82.22-1.3.22s-.9-.07-1.3-.21-.74-.34-1.03-.6-.5-.58-.65-.96c-.15-.38-.22-.82-.2-1.32h.27c-.02.45.04.85.17,1.2.14.35.33.65.59.89.26.24.57.43.94.55s.77.19,1.21.19.85-.07,1.21-.21.66-.34.91-.59c.25-.26.45-.57.58-.93.13-.37.2-.77.2-1.21s-.07-.81-.21-1.17-.33-.66-.59-.92c-.25-.26-.56-.46-.92-.6-.36-.14-.76-.22-1.19-.22-.54,0-1.04.12-1.5.36s-.81.59-1.07,1.05h-.34l.98-4.63h4.71v.27h-4.49l-.84,3.93Z"/>
          </g>
          <g class="uuid-e287e4cf-db4e-4558-a8ad-2b034cd7fc00">
            <path class="uuid-235fc5fb-a2e9-449a-9b77-9e8e8fe67045" d="m717.84,524c-.11.57-.3,1.08-.57,1.53-.27.45-.63.81-1.07,1.09-.44.27-.99.41-1.66.41s-1.21-.14-1.65-.41c-.45-.27-.8-.64-1.07-1.09-.27-.45-.46-.96-.57-1.53-.11-.57-.17-1.14-.17-1.71s.06-1.15.17-1.71.3-1.08.57-1.53c.27-.45.63-.81,1.07-1.09s1-.42,1.65-.42,1.22.14,1.66.42c.44.28.8.64,1.07,1.09.27.45.46.96.57,1.53s.17,1.14.17,1.71-.06,1.15-.17,1.71Zm-.25-3.28c-.1-.53-.27-1.01-.51-1.44-.24-.43-.57-.78-.98-1.06-.41-.27-.93-.41-1.56-.41s-1.15.14-1.56.41c-.41.28-.74.63-.98,1.06-.24.43-.41.91-.51,1.44-.1.53-.15,1.05-.15,1.57s.05,1.04.15,1.57c.1.53.27,1.01.51,1.44s.57.79.98,1.06c.41.27.93.41,1.56.41s1.15-.14,1.56-.41.74-.63.98-1.06.41-.91.51-1.44c.1-.53.15-1.05.15-1.57s-.05-1.03-.15-1.57Z"/>
            <path class="uuid-235fc5fb-a2e9-449a-9b77-9e8e8fe67045" d="m720.03,526.87v-1.32h.27v1.32h-.27Z"/>
            <path class="uuid-235fc5fb-a2e9-449a-9b77-9e8e8fe67045" d="m723.19,521.89h.03c.26-.43.61-.75,1.05-.94s.92-.3,1.46-.3c.48,0,.91.08,1.3.24.39.16.72.38,1,.65s.5.61.65,1.01c.15.39.23.82.23,1.28,0,.49-.08.93-.23,1.32-.15.4-.37.73-.65,1.01s-.61.49-1,.64c-.39.15-.82.22-1.3.22s-.9-.07-1.3-.21-.74-.34-1.03-.6-.5-.58-.65-.96c-.15-.38-.22-.82-.2-1.32h.27c-.02.45.04.85.17,1.2.14.35.33.65.59.89.26.24.57.43.94.55s.77.19,1.21.19.85-.07,1.21-.21.66-.34.91-.59c.25-.26.45-.57.58-.93.13-.37.2-.77.2-1.21s-.07-.81-.21-1.17-.33-.66-.59-.92c-.25-.26-.56-.46-.92-.6-.36-.14-.76-.22-1.19-.22-.54,0-1.04.12-1.5.36s-.81.59-1.07,1.05h-.34l.98-4.63h4.71v.27h-4.49l-.84,3.93Z"/>
          </g>
          <g class="uuid-e287e4cf-db4e-4558-a8ad-2b034cd7fc00">
            <path class="uuid-d47a3264-54de-416d-88e4-e6891b1b0218" d="m717.84,524c-.11.57-.3,1.08-.57,1.53-.27.45-.63.81-1.07,1.09-.44.27-.99.41-1.66.41s-1.21-.14-1.65-.41c-.45-.27-.8-.64-1.07-1.09-.27-.45-.46-.96-.57-1.53-.11-.57-.17-1.14-.17-1.71s.06-1.15.17-1.71.3-1.08.57-1.53c.27-.45.63-.81,1.07-1.09s1-.42,1.65-.42,1.22.14,1.66.42c.44.28.8.64,1.07,1.09.27.45.46.96.57,1.53s.17,1.14.17,1.71-.06,1.15-.17,1.71Zm-.25-3.28c-.1-.53-.27-1.01-.51-1.44-.24-.43-.57-.78-.98-1.06-.41-.27-.93-.41-1.56-.41s-1.15.14-1.56.41c-.41.28-.74.63-.98,1.06-.24.43-.41.91-.51,1.44-.1.53-.15,1.05-.15,1.57s.05,1.04.15,1.57c.1.53.27,1.01.51,1.44s.57.79.98,1.06c.41.27.93.41,1.56.41s1.15-.14,1.56-.41.74-.63.98-1.06.41-.91.51-1.44c.1-.53.15-1.05.15-1.57s-.05-1.03-.15-1.57Z"/>
            <path class="uuid-d47a3264-54de-416d-88e4-e6891b1b0218" d="m720.03,526.87v-1.32h.27v1.32h-.27Z"/>
            <path class="uuid-d47a3264-54de-416d-88e4-e6891b1b0218" d="m723.19,521.89h.03c.26-.43.61-.75,1.05-.94s.92-.3,1.46-.3c.48,0,.91.08,1.3.24.39.16.72.38,1,.65s.5.61.65,1.01c.15.39.23.82.23,1.28,0,.49-.08.93-.23,1.32-.15.4-.37.73-.65,1.01s-.61.49-1,.64c-.39.15-.82.22-1.3.22s-.9-.07-1.3-.21-.74-.34-1.03-.6-.5-.58-.65-.96c-.15-.38-.22-.82-.2-1.32h.27c-.02.45.04.85.17,1.2.14.35.33.65.59.89.26.24.57.43.94.55s.77.19,1.21.19.85-.07,1.21-.21.66-.34.91-.59c.25-.26.45-.57.58-.93.13-.37.2-.77.2-1.21s-.07-.81-.21-1.17-.33-.66-.59-.92c-.25-.26-.56-.46-.92-.6-.36-.14-.76-.22-1.19-.22-.54,0-1.04.12-1.5.36s-.81.59-1.07,1.05h-.34l.98-4.63h4.71v.27h-4.49l-.84,3.93Z"/>
          </g>
          <g class="uuid-e287e4cf-db4e-4558-a8ad-2b034cd7fc00">
            <path class="uuid-d47a3264-54de-416d-88e4-e6891b1b0218" d="m818.25,518.04c-.28.39-.64.72-1.09,1-.45.28-.9.49-1.36.61v-.27c.28-.09.53-.19.74-.3.22-.11.42-.23.61-.36.19-.14.37-.29.55-.46s.36-.36.55-.58h.3v9.18h-.27v-8.83h-.03Z"/>
          </g>
          <g class="uuid-e287e4cf-db4e-4558-a8ad-2b034cd7fc00">
            <path class="uuid-235fc5fb-a2e9-449a-9b77-9e8e8fe67045" d="m818.25,518.04c-.28.39-.64.72-1.09,1-.45.28-.9.49-1.36.61v-.27c.28-.09.53-.19.74-.3.22-.11.42-.23.61-.36.19-.14.37-.29.55-.46s.36-.36.55-.58h.3v9.18h-.27v-8.83h-.03Z"/>
          </g>
          <g class="uuid-e287e4cf-db4e-4558-a8ad-2b034cd7fc00">
            <path class="uuid-d47a3264-54de-416d-88e4-e6891b1b0218" d="m818.25,518.04c-.28.39-.64.72-1.09,1-.45.28-.9.49-1.36.61v-.27c.28-.09.53-.19.74-.3.22-.11.42-.23.61-.36.19-.14.37-.29.55-.46s.36-.36.55-.58h.3v9.18h-.27v-8.83h-.03Z"/>
          </g>
          <g class="uuid-e287e4cf-db4e-4558-a8ad-2b034cd7fc00">
            <path class="uuid-d47a3264-54de-416d-88e4-e6891b1b0218" d="m908.23,518.04c-.28.39-.64.72-1.09,1-.45.28-.9.49-1.36.61v-.27c.28-.09.53-.19.74-.3.22-.11.42-.23.61-.36.19-.14.37-.29.55-.46s.36-.36.55-.58h.3v9.18h-.27v-8.83h-.03Z"/>
            <path class="uuid-d47a3264-54de-416d-88e4-e6891b1b0218" d="m913.48,526.87v-1.32h.27v1.32h-.27Z"/>
            <path class="uuid-d47a3264-54de-416d-88e4-e6891b1b0218" d="m916.63,521.89h.03c.26-.43.61-.75,1.05-.94s.92-.3,1.46-.3c.48,0,.91.08,1.3.24.39.16.72.38,1,.65s.5.61.65,1.01c.15.39.23.82.23,1.28,0,.49-.08.93-.23,1.32-.15.4-.37.73-.65,1.01s-.61.49-1,.64c-.39.15-.82.22-1.3.22s-.9-.07-1.3-.21-.74-.34-1.03-.6-.5-.58-.65-.96c-.15-.38-.22-.82-.2-1.32h.27c-.02.45.04.85.17,1.2.14.35.33.65.59.89.26.24.57.43.94.55s.77.19,1.21.19.85-.07,1.21-.21.66-.34.91-.59c.25-.26.45-.57.58-.93.13-.37.2-.77.2-1.21s-.07-.81-.21-1.17-.33-.66-.59-.92c-.25-.26-.56-.46-.92-.6-.36-.14-.76-.22-1.19-.22-.54,0-1.04.12-1.5.36s-.81.59-1.07,1.05h-.34l.98-4.63h4.71v.27h-4.49l-.84,3.93Z"/>
          </g>
          <g class="uuid-e287e4cf-db4e-4558-a8ad-2b034cd7fc00">
            <path class="uuid-235fc5fb-a2e9-449a-9b77-9e8e8fe67045" d="m908.23,518.04c-.28.39-.64.72-1.09,1-.45.28-.9.49-1.36.61v-.27c.28-.09.53-.19.74-.3.22-.11.42-.23.61-.36.19-.14.37-.29.55-.46s.36-.36.55-.58h.3v9.18h-.27v-8.83h-.03Z"/>
            <path class="uuid-235fc5fb-a2e9-449a-9b77-9e8e8fe67045" d="m913.48,526.87v-1.32h.27v1.32h-.27Z"/>
            <path class="uuid-235fc5fb-a2e9-449a-9b77-9e8e8fe67045" d="m916.63,521.89h.03c.26-.43.61-.75,1.05-.94s.92-.3,1.46-.3c.48,0,.91.08,1.3.24.39.16.72.38,1,.65s.5.61.65,1.01c.15.39.23.82.23,1.28,0,.49-.08.93-.23,1.32-.15.4-.37.73-.65,1.01s-.61.49-1,.64c-.39.15-.82.22-1.3.22s-.9-.07-1.3-.21-.74-.34-1.03-.6-.5-.58-.65-.96c-.15-.38-.22-.82-.2-1.32h.27c-.02.45.04.85.17,1.2.14.35.33.65.59.89.26.24.57.43.94.55s.77.19,1.21.19.85-.07,1.21-.21.66-.34.91-.59c.25-.26.45-.57.58-.93.13-.37.2-.77.2-1.21s-.07-.81-.21-1.17-.33-.66-.59-.92c-.25-.26-.56-.46-.92-.6-.36-.14-.76-.22-1.19-.22-.54,0-1.04.12-1.5.36s-.81.59-1.07,1.05h-.34l.98-4.63h4.71v.27h-4.49l-.84,3.93Z"/>
          </g>
          <g class="uuid-e287e4cf-db4e-4558-a8ad-2b034cd7fc00">
            <path class="uuid-d47a3264-54de-416d-88e4-e6891b1b0218" d="m908.23,518.04c-.28.39-.64.72-1.09,1-.45.28-.9.49-1.36.61v-.27c.28-.09.53-.19.74-.3.22-.11.42-.23.61-.36.19-.14.37-.29.55-.46s.36-.36.55-.58h.3v9.18h-.27v-8.83h-.03Z"/>
            <path class="uuid-d47a3264-54de-416d-88e4-e6891b1b0218" d="m913.48,526.87v-1.32h.27v1.32h-.27Z"/>
            <path class="uuid-d47a3264-54de-416d-88e4-e6891b1b0218" d="m916.63,521.89h.03c.26-.43.61-.75,1.05-.94s.92-.3,1.46-.3c.48,0,.91.08,1.3.24.39.16.72.38,1,.65s.5.61.65,1.01c.15.39.23.82.23,1.28,0,.49-.08.93-.23,1.32-.15.4-.37.73-.65,1.01s-.61.49-1,.64c-.39.15-.82.22-1.3.22s-.9-.07-1.3-.21-.74-.34-1.03-.6-.5-.58-.65-.96c-.15-.38-.22-.82-.2-1.32h.27c-.02.45.04.85.17,1.2.14.35.33.65.59.89.26.24.57.43.94.55s.77.19,1.21.19.85-.07,1.21-.21.66-.34.91-.59c.25-.26.45-.57.58-.93.13-.37.2-.77.2-1.21s-.07-.81-.21-1.17-.33-.66-.59-.92c-.25-.26-.56-.46-.92-.6-.36-.14-.76-.22-1.19-.22-.54,0-1.04.12-1.5.36s-.81.59-1.07,1.05h-.34l.98-4.63h4.71v.27h-4.49l-.84,3.93Z"/>
          </g>
          <g class="uuid-e287e4cf-db4e-4558-a8ad-2b034cd7fc00">
            <path class="uuid-d47a3264-54de-416d-88e4-e6891b1b0218" d="m1014.63,526.87h-6.18c0-.39.07-.74.24-1.05.17-.31.4-.61.67-.88.28-.27.59-.54.94-.78.35-.25.69-.49,1.03-.74.35-.24.69-.49,1.03-.74s.63-.51.89-.79.47-.57.63-.88c.16-.31.24-.65.24-1s-.07-.68-.2-.95-.31-.5-.53-.69c-.22-.18-.49-.32-.8-.42s-.65-.14-1.02-.14c-.48,0-.89.07-1.23.22-.34.14-.62.34-.84.6s-.37.56-.47.92c-.1.36-.15.74-.15,1.17h-.27c0-1.01.26-1.79.75-2.34.49-.55,1.23-.83,2.21-.83.4,0,.76.05,1.11.15.34.1.64.26.89.47s.45.46.6.77.22.67.22,1.08c0,.5-.13.96-.41,1.38-.27.41-.61.8-1.02,1.16-.41.36-.85.7-1.33,1.02-.48.32-.92.64-1.34.96-.42.32-.78.65-1.07.99-.3.34-.46.7-.5,1.1h5.91v.27Z"/>
          </g>
          <g class="uuid-e287e4cf-db4e-4558-a8ad-2b034cd7fc00">
            <path class="uuid-235fc5fb-a2e9-449a-9b77-9e8e8fe67045" d="m1014.63,526.87h-6.18c0-.39.07-.74.24-1.05.17-.31.4-.61.67-.88.28-.27.59-.54.94-.78.35-.25.69-.49,1.03-.74.35-.24.69-.49,1.03-.74s.63-.51.89-.79.47-.57.63-.88c.16-.31.24-.65.24-1s-.07-.68-.2-.95-.31-.5-.53-.69c-.22-.18-.49-.32-.8-.42s-.65-.14-1.02-.14c-.48,0-.89.07-1.23.22-.34.14-.62.34-.84.6s-.37.56-.47.92c-.1.36-.15.74-.15,1.17h-.27c0-1.01.26-1.79.75-2.34.49-.55,1.23-.83,2.21-.83.4,0,.76.05,1.11.15.34.1.64.26.89.47s.45.46.6.77.22.67.22,1.08c0,.5-.13.96-.41,1.38-.27.41-.61.8-1.02,1.16-.41.36-.85.7-1.33,1.02-.48.32-.92.64-1.34.96-.42.32-.78.65-1.07.99-.3.34-.46.7-.5,1.1h5.91v.27Z"/>
          </g>
          <g class="uuid-e287e4cf-db4e-4558-a8ad-2b034cd7fc00">
            <path class="uuid-d47a3264-54de-416d-88e4-e6891b1b0218" d="m1014.63,526.87h-6.18c0-.39.07-.74.24-1.05.17-.31.4-.61.67-.88.28-.27.59-.54.94-.78.35-.25.69-.49,1.03-.74.35-.24.69-.49,1.03-.74s.63-.51.89-.79.47-.57.63-.88c.16-.31.24-.65.24-1s-.07-.68-.2-.95-.31-.5-.53-.69c-.22-.18-.49-.32-.8-.42s-.65-.14-1.02-.14c-.48,0-.89.07-1.23.22-.34.14-.62.34-.84.6s-.37.56-.47.92c-.1.36-.15.74-.15,1.17h-.27c0-1.01.26-1.79.75-2.34.49-.55,1.23-.83,2.21-.83.4,0,.76.05,1.11.15.34.1.64.26.89.47s.45.46.6.77.22.67.22,1.08c0,.5-.13.96-.41,1.38-.27.41-.61.8-1.02,1.16-.41.36-.85.7-1.33,1.02-.48.32-.92.64-1.34.96-.42.32-.78.65-1.07.99-.3.34-.46.7-.5,1.1h5.91v.27Z"/>
          </g>
          <g class="uuid-e287e4cf-db4e-4558-a8ad-2b034cd7fc00">
            <path class="uuid-d47a3264-54de-416d-88e4-e6891b1b0218" d="m1104.6,526.87h-6.18c0-.39.07-.74.24-1.05.17-.31.4-.61.67-.88.28-.27.59-.54.94-.78.35-.25.69-.49,1.03-.74.35-.24.69-.49,1.03-.74s.63-.51.89-.79.47-.57.63-.88c.16-.31.24-.65.24-1s-.07-.68-.2-.95-.31-.5-.53-.69c-.22-.18-.49-.32-.8-.42s-.65-.14-1.02-.14c-.48,0-.89.07-1.23.22-.34.14-.62.34-.84.6s-.37.56-.47.92c-.1.36-.15.74-.15,1.17h-.27c0-1.01.26-1.79.75-2.34.49-.55,1.23-.83,2.21-.83.4,0,.76.05,1.11.15.34.1.64.26.89.47s.45.46.6.77.22.67.22,1.08c0,.5-.13.96-.41,1.38-.27.41-.61.8-1.02,1.16-.41.36-.85.7-1.33,1.02-.48.32-.92.64-1.34.96-.42.32-.78.65-1.07.99-.3.34-.46.7-.5,1.1h5.91v.27Z"/>
            <path class="uuid-d47a3264-54de-416d-88e4-e6891b1b0218" d="m1106.92,526.87v-1.32h.27v1.32h-.27Z"/>
            <path class="uuid-d47a3264-54de-416d-88e4-e6891b1b0218" d="m1110.08,521.89h.03c.26-.43.61-.75,1.05-.94s.92-.3,1.46-.3c.48,0,.91.08,1.3.24.39.16.72.38,1,.65s.5.61.65,1.01c.15.39.23.82.23,1.28,0,.49-.08.93-.23,1.32-.15.4-.37.73-.65,1.01s-.61.49-1,.64c-.39.15-.82.22-1.3.22s-.9-.07-1.3-.21-.74-.34-1.03-.6-.5-.58-.65-.96c-.15-.38-.22-.82-.2-1.32h.27c-.02.45.04.85.17,1.2.14.35.33.65.59.89.26.24.57.43.94.55s.77.19,1.21.19.85-.07,1.21-.21.66-.34.91-.59c.25-.26.45-.57.58-.93.13-.37.2-.77.2-1.21s-.07-.81-.21-1.17-.33-.66-.59-.92c-.25-.26-.56-.46-.92-.6-.36-.14-.76-.22-1.19-.22-.54,0-1.04.12-1.5.36s-.81.59-1.07,1.05h-.34l.98-4.63h4.71v.27h-4.49l-.84,3.93Z"/>
          </g>
          <g class="uuid-e287e4cf-db4e-4558-a8ad-2b034cd7fc00">
            <path class="uuid-235fc5fb-a2e9-449a-9b77-9e8e8fe67045" d="m1104.6,526.87h-6.18c0-.39.07-.74.24-1.05.17-.31.4-.61.67-.88.28-.27.59-.54.94-.78.35-.25.69-.49,1.03-.74.35-.24.69-.49,1.03-.74s.63-.51.89-.79.47-.57.63-.88c.16-.31.24-.65.24-1s-.07-.68-.2-.95-.31-.5-.53-.69c-.22-.18-.49-.32-.8-.42s-.65-.14-1.02-.14c-.48,0-.89.07-1.23.22-.34.14-.62.34-.84.6s-.37.56-.47.92c-.1.36-.15.74-.15,1.17h-.27c0-1.01.26-1.79.75-2.34.49-.55,1.23-.83,2.21-.83.4,0,.76.05,1.11.15.34.1.64.26.89.47s.45.46.6.77.22.67.22,1.08c0,.5-.13.96-.41,1.38-.27.41-.61.8-1.02,1.16-.41.36-.85.7-1.33,1.02-.48.32-.92.64-1.34.96-.42.32-.78.65-1.07.99-.3.34-.46.7-.5,1.1h5.91v.27Z"/>
            <path class="uuid-235fc5fb-a2e9-449a-9b77-9e8e8fe67045" d="m1106.92,526.87v-1.32h.27v1.32h-.27Z"/>
            <path class="uuid-235fc5fb-a2e9-449a-9b77-9e8e8fe67045" d="m1110.08,521.89h.03c.26-.43.61-.75,1.05-.94s.92-.3,1.46-.3c.48,0,.91.08,1.3.24.39.16.72.38,1,.65s.5.61.65,1.01c.15.39.23.82.23,1.28,0,.49-.08.93-.23,1.32-.15.4-.37.73-.65,1.01s-.61.49-1,.64c-.39.15-.82.22-1.3.22s-.9-.07-1.3-.21-.74-.34-1.03-.6-.5-.58-.65-.96c-.15-.38-.22-.82-.2-1.32h.27c-.02.45.04.85.17,1.2.14.35.33.65.59.89.26.24.57.43.94.55s.77.19,1.21.19.85-.07,1.21-.21.66-.34.91-.59c.25-.26.45-.57.58-.93.13-.37.2-.77.2-1.21s-.07-.81-.21-1.17-.33-.66-.59-.92c-.25-.26-.56-.46-.92-.6-.36-.14-.76-.22-1.19-.22-.54,0-1.04.12-1.5.36s-.81.59-1.07,1.05h-.34l.98-4.63h4.71v.27h-4.49l-.84,3.93Z"/>
          </g>
          <g class="uuid-e287e4cf-db4e-4558-a8ad-2b034cd7fc00">
            <path class="uuid-d47a3264-54de-416d-88e4-e6891b1b0218" d="m1104.6,526.87h-6.18c0-.39.07-.74.24-1.05.17-.31.4-.61.67-.88.28-.27.59-.54.94-.78.35-.25.69-.49,1.03-.74.35-.24.69-.49,1.03-.74s.63-.51.89-.79.47-.57.63-.88c.16-.31.24-.65.24-1s-.07-.68-.2-.95-.31-.5-.53-.69c-.22-.18-.49-.32-.8-.42s-.65-.14-1.02-.14c-.48,0-.89.07-1.23.22-.34.14-.62.34-.84.6s-.37.56-.47.92c-.1.36-.15.74-.15,1.17h-.27c0-1.01.26-1.79.75-2.34.49-.55,1.23-.83,2.21-.83.4,0,.76.05,1.11.15.34.1.64.26.89.47s.45.46.6.77.22.67.22,1.08c0,.5-.13.96-.41,1.38-.27.41-.61.8-1.02,1.16-.41.36-.85.7-1.33,1.02-.48.32-.92.64-1.34.96-.42.32-.78.65-1.07.99-.3.34-.46.7-.5,1.1h5.91v.27Z"/>
            <path class="uuid-d47a3264-54de-416d-88e4-e6891b1b0218" d="m1106.92,526.87v-1.32h.27v1.32h-.27Z"/>
            <path class="uuid-d47a3264-54de-416d-88e4-e6891b1b0218" d="m1110.08,521.89h.03c.26-.43.61-.75,1.05-.94s.92-.3,1.46-.3c.48,0,.91.08,1.3.24.39.16.72.38,1,.65s.5.61.65,1.01c.15.39.23.82.23,1.28,0,.49-.08.93-.23,1.32-.15.4-.37.73-.65,1.01s-.61.49-1,.64c-.39.15-.82.22-1.3.22s-.9-.07-1.3-.21-.74-.34-1.03-.6-.5-.58-.65-.96c-.15-.38-.22-.82-.2-1.32h.27c-.02.45.04.85.17,1.2.14.35.33.65.59.89.26.24.57.43.94.55s.77.19,1.21.19.85-.07,1.21-.21.66-.34.91-.59c.25-.26.45-.57.58-.93.13-.37.2-.77.2-1.21s-.07-.81-.21-1.17-.33-.66-.59-.92c-.25-.26-.56-.46-.92-.6-.36-.14-.76-.22-1.19-.22-.54,0-1.04.12-1.5.36s-.81.59-1.07,1.05h-.34l.98-4.63h4.71v.27h-4.49l-.84,3.93Z"/>
          </g>
          <g class="uuid-e287e4cf-db4e-4558-a8ad-2b034cd7fc00">
            <path class="uuid-d47a3264-54de-416d-88e4-e6891b1b0218" d="m1202.15,519.22c.14-.37.35-.69.63-.94.27-.25.61-.44,1-.57s.83-.19,1.3-.19c.37,0,.72.04,1.07.12s.65.21.92.39c.27.18.49.41.65.7.16.29.24.63.24,1.04,0,.65-.19,1.15-.56,1.51-.37.36-.84.57-1.41.62v.03c.27.03.53.09.79.2s.49.25.69.45.36.43.49.72c.12.29.18.63.18,1.03,0,.43-.08.81-.25,1.15-.17.33-.39.61-.67.84-.28.23-.61.4-.99.52-.37.12-.77.18-1.19.18-.52,0-.99-.07-1.42-.22s-.78-.35-1.08-.63-.52-.61-.67-1.02c-.15-.41-.21-.87-.17-1.39h.27c-.04.49.01.92.15,1.29.13.37.34.69.61.94.27.25.6.44,1,.57.4.13.83.2,1.31.2.37,0,.72-.05,1.07-.15s.64-.26.9-.47.47-.46.63-.76c.16-.3.24-.65.24-1.05s-.07-.73-.2-1.01c-.13-.28-.31-.51-.55-.69-.24-.18-.52-.32-.84-.41s-.67-.14-1.05-.16h-.66v-.27h.66c.3,0,.59-.03.88-.1.29-.07.56-.18.79-.34.23-.16.42-.37.57-.62.14-.26.22-.57.22-.95,0-.37-.09-.68-.24-.93s-.35-.46-.59-.61-.52-.27-.82-.34c-.31-.07-.62-.1-.94-.1-.44,0-.84.06-1.19.17-.36.11-.66.28-.91.51s-.44.51-.57.86c-.13.34-.19.74-.18,1.2h-.27c0-.5.06-.94.2-1.32Z"/>
          </g>
          <g class="uuid-e287e4cf-db4e-4558-a8ad-2b034cd7fc00">
            <path class="uuid-235fc5fb-a2e9-449a-9b77-9e8e8fe67045" d="m1202.15,519.22c.14-.37.35-.69.63-.94.27-.25.61-.44,1-.57s.83-.19,1.3-.19c.37,0,.72.04,1.07.12s.65.21.92.39c.27.18.49.41.65.7.16.29.24.63.24,1.04,0,.65-.19,1.15-.56,1.51-.37.36-.84.57-1.41.62v.03c.27.03.53.09.79.2s.49.25.69.45.36.43.49.72c.12.29.18.63.18,1.03,0,.43-.08.81-.25,1.15-.17.33-.39.61-.67.84-.28.23-.61.4-.99.52-.37.12-.77.18-1.19.18-.52,0-.99-.07-1.42-.22s-.78-.35-1.08-.63-.52-.61-.67-1.02c-.15-.41-.21-.87-.17-1.39h.27c-.04.49.01.92.15,1.29.13.37.34.69.61.94.27.25.6.44,1,.57.4.13.83.2,1.31.2.37,0,.72-.05,1.07-.15s.64-.26.9-.47.47-.46.63-.76c.16-.3.24-.65.24-1.05s-.07-.73-.2-1.01c-.13-.28-.31-.51-.55-.69-.24-.18-.52-.32-.84-.41s-.67-.14-1.05-.16h-.66v-.27h.66c.3,0,.59-.03.88-.1.29-.07.56-.18.79-.34.23-.16.42-.37.57-.62.14-.26.22-.57.22-.95,0-.37-.09-.68-.24-.93s-.35-.46-.59-.61-.52-.27-.82-.34c-.31-.07-.62-.1-.94-.1-.44,0-.84.06-1.19.17-.36.11-.66.28-.91.51s-.44.51-.57.86c-.13.34-.19.74-.18,1.2h-.27c0-.5.06-.94.2-1.32Z"/>
          </g>
          <g class="uuid-e287e4cf-db4e-4558-a8ad-2b034cd7fc00">
            <path class="uuid-d47a3264-54de-416d-88e4-e6891b1b0218" d="m1202.15,519.22c.14-.37.35-.69.63-.94.27-.25.61-.44,1-.57s.83-.19,1.3-.19c.37,0,.72.04,1.07.12s.65.21.92.39c.27.18.49.41.65.7.16.29.24.63.24,1.04,0,.65-.19,1.15-.56,1.51-.37.36-.84.57-1.41.62v.03c.27.03.53.09.79.2s.49.25.69.45.36.43.49.72c.12.29.18.63.18,1.03,0,.43-.08.81-.25,1.15-.17.33-.39.61-.67.84-.28.23-.61.4-.99.52-.37.12-.77.18-1.19.18-.52,0-.99-.07-1.42-.22s-.78-.35-1.08-.63-.52-.61-.67-1.02c-.15-.41-.21-.87-.17-1.39h.27c-.04.49.01.92.15,1.29.13.37.34.69.61.94.27.25.6.44,1,.57.4.13.83.2,1.31.2.37,0,.72-.05,1.07-.15s.64-.26.9-.47.47-.46.63-.76c.16-.3.24-.65.24-1.05s-.07-.73-.2-1.01c-.13-.28-.31-.51-.55-.69-.24-.18-.52-.32-.84-.41s-.67-.14-1.05-.16h-.66v-.27h.66c.3,0,.59-.03.88-.1.29-.07.56-.18.79-.34.23-.16.42-.37.57-.62.14-.26.22-.57.22-.95,0-.37-.09-.68-.24-.93s-.35-.46-.59-.61-.52-.27-.82-.34c-.31-.07-.62-.1-.94-.1-.44,0-.84.06-1.19.17-.36.11-.66.28-.91.51s-.44.51-.57.86c-.13.34-.19.74-.18,1.2h-.27c0-.5.06-.94.2-1.32Z"/>
          </g>
          <g class="uuid-e287e4cf-db4e-4558-a8ad-2b034cd7fc00">
            <path class="uuid-d47a3264-54de-416d-88e4-e6891b1b0218" d="m607.32,994.36v.27h-6.75v-.27h6.75Z"/>
            <path class="uuid-d47a3264-54de-416d-88e4-e6891b1b0218" d="m608.46,993.13h.03c.26-.43.61-.75,1.05-.94.44-.2.92-.3,1.46-.3.48,0,.91.08,1.3.24s.72.38,1,.65c.28.28.49.61.65,1.01.15.39.23.82.23,1.28,0,.49-.08.93-.23,1.32-.15.4-.37.73-.65,1.01-.28.28-.61.49-1,.64s-.82.22-1.3.22-.9-.07-1.3-.21-.74-.34-1.03-.6c-.28-.26-.5-.58-.65-.96-.15-.38-.22-.82-.2-1.32h.27c-.02.45.04.85.18,1.2.13.35.33.65.59.89.26.24.57.43.94.55.37.13.77.19,1.21.19s.85-.07,1.21-.21c.35-.14.66-.34.91-.59.25-.26.45-.57.58-.93.13-.37.2-.77.2-1.21s-.07-.81-.21-1.17c-.14-.36-.34-.66-.59-.92-.25-.26-.56-.46-.92-.6-.36-.14-.76-.22-1.19-.22-.54,0-1.04.12-1.5.36-.46.24-.81.59-1.07,1.05h-.34l.99-4.63h4.71v.27h-4.49l-.84,3.93Z"/>
          </g>
          <g class="uuid-e287e4cf-db4e-4558-a8ad-2b034cd7fc00">
            <path class="uuid-235fc5fb-a2e9-449a-9b77-9e8e8fe67045" d="m607.32,994.36v.27h-6.75v-.27h6.75Z"/>
            <path class="uuid-235fc5fb-a2e9-449a-9b77-9e8e8fe67045" d="m608.46,993.13h.03c.26-.43.61-.75,1.05-.94.44-.2.92-.3,1.46-.3.48,0,.91.08,1.3.24s.72.38,1,.65c.28.28.49.61.65,1.01.15.39.23.82.23,1.28,0,.49-.08.93-.23,1.32-.15.4-.37.73-.65,1.01-.28.28-.61.49-1,.64s-.82.22-1.3.22-.9-.07-1.3-.21-.74-.34-1.03-.6c-.28-.26-.5-.58-.65-.96-.15-.38-.22-.82-.2-1.32h.27c-.02.45.04.85.18,1.2.13.35.33.65.59.89.26.24.57.43.94.55.37.13.77.19,1.21.19s.85-.07,1.21-.21c.35-.14.66-.34.91-.59.25-.26.45-.57.58-.93.13-.37.2-.77.2-1.21s-.07-.81-.21-1.17c-.14-.36-.34-.66-.59-.92-.25-.26-.56-.46-.92-.6-.36-.14-.76-.22-1.19-.22-.54,0-1.04.12-1.5.36-.46.24-.81.59-1.07,1.05h-.34l.99-4.63h4.71v.27h-4.49l-.84,3.93Z"/>
          </g>
          <g class="uuid-e287e4cf-db4e-4558-a8ad-2b034cd7fc00">
            <path class="uuid-d47a3264-54de-416d-88e4-e6891b1b0218" d="m607.32,994.36v.27h-6.75v-.27h6.75Z"/>
            <path class="uuid-d47a3264-54de-416d-88e4-e6891b1b0218" d="m608.46,993.13h.03c.26-.43.61-.75,1.05-.94.44-.2.92-.3,1.46-.3.48,0,.91.08,1.3.24s.72.38,1,.65c.28.28.49.61.65,1.01.15.39.23.82.23,1.28,0,.49-.08.93-.23,1.32-.15.4-.37.73-.65,1.01-.28.28-.61.49-1,.64s-.82.22-1.3.22-.9-.07-1.3-.21-.74-.34-1.03-.6c-.28-.26-.5-.58-.65-.96-.15-.38-.22-.82-.2-1.32h.27c-.02.45.04.85.18,1.2.13.35.33.65.59.89.26.24.57.43.94.55.37.13.77.19,1.21.19s.85-.07,1.21-.21c.35-.14.66-.34.91-.59.25-.26.45-.57.58-.93.13-.37.2-.77.2-1.21s-.07-.81-.21-1.17c-.14-.36-.34-.66-.59-.92-.25-.26-.56-.46-.92-.6-.36-.14-.76-.22-1.19-.22-.54,0-1.04.12-1.5.36-.46.24-.81.59-1.07,1.05h-.34l.99-4.63h4.71v.27h-4.49l-.84,3.93Z"/>
          </g>
          <g class="uuid-e287e4cf-db4e-4558-a8ad-2b034cd7fc00">
            <path class="uuid-d47a3264-54de-416d-88e4-e6891b1b0218" d="m607.32,897.64v.27h-6.75v-.27h6.75Z"/>
            <path class="uuid-d47a3264-54de-416d-88e4-e6891b1b0218" d="m607.77,898.68l4.59-6.46h.34v6.52h1.66v.27h-1.66v2.39h-.27v-2.39h-4.66v-.32Zm4.63-6.09l-4.36,6.14h4.39v-6.14h-.03Z"/>
          </g>
          <g class="uuid-e287e4cf-db4e-4558-a8ad-2b034cd7fc00">
            <path class="uuid-235fc5fb-a2e9-449a-9b77-9e8e8fe67045" d="m607.32,897.64v.27h-6.75v-.27h6.75Z"/>
            <path class="uuid-235fc5fb-a2e9-449a-9b77-9e8e8fe67045" d="m607.77,898.68l4.59-6.46h.34v6.52h1.66v.27h-1.66v2.39h-.27v-2.39h-4.66v-.32Zm4.63-6.09l-4.36,6.14h4.39v-6.14h-.03Z"/>
          </g>
          <g class="uuid-e287e4cf-db4e-4558-a8ad-2b034cd7fc00">
            <path class="uuid-d47a3264-54de-416d-88e4-e6891b1b0218" d="m607.32,897.64v.27h-6.75v-.27h6.75Z"/>
            <path class="uuid-d47a3264-54de-416d-88e4-e6891b1b0218" d="m607.77,898.68l4.59-6.46h.34v6.52h1.66v.27h-1.66v2.39h-.27v-2.39h-4.66v-.32Zm4.63-6.09l-4.36,6.14h4.39v-6.14h-.03Z"/>
          </g>
          <g class="uuid-e287e4cf-db4e-4558-a8ad-2b034cd7fc00">
            <path class="uuid-d47a3264-54de-416d-88e4-e6891b1b0218" d="m607.32,800.91v.27h-6.75v-.27h6.75Z"/>
            <path class="uuid-d47a3264-54de-416d-88e4-e6891b1b0218" d="m608.31,797.02c.14-.37.35-.69.63-.94.27-.25.61-.44,1-.57s.83-.19,1.3-.19c.37,0,.72.04,1.07.12.34.08.65.21.92.39.27.18.49.41.65.7.16.29.24.63.24,1.04,0,.65-.19,1.15-.56,1.51-.37.36-.84.57-1.41.62v.03c.27.03.53.09.79.2s.49.25.69.45c.2.19.36.43.49.72.12.29.18.63.18,1.03,0,.43-.08.81-.25,1.15-.17.33-.39.61-.67.84-.28.23-.61.4-.99.52-.37.12-.77.18-1.19.18-.52,0-.99-.07-1.42-.22s-.78-.35-1.08-.63-.52-.61-.67-1.02c-.15-.41-.2-.87-.17-1.39h.27c-.04.49.01.92.15,1.29.14.37.34.69.61.94s.6.44,1,.57c.4.13.83.2,1.31.2.37,0,.72-.05,1.07-.15s.64-.26.9-.47c.26-.21.47-.46.63-.76.16-.3.24-.65.24-1.05s-.07-.73-.2-1.01c-.13-.28-.31-.51-.55-.69-.24-.18-.52-.32-.84-.41s-.67-.14-1.05-.16h-.66v-.27h.66c.3,0,.59-.03.88-.1.29-.07.56-.18.79-.34.23-.16.42-.37.57-.62.14-.26.22-.57.22-.95,0-.37-.09-.68-.24-.93s-.35-.46-.59-.61c-.24-.16-.52-.27-.82-.34-.31-.07-.62-.1-.94-.1-.44,0-.84.06-1.19.17s-.66.28-.91.51-.44.51-.57.86c-.13.34-.19.74-.18,1.2h-.27c0-.5.06-.94.2-1.32Z"/>
          </g>
          <g class="uuid-e287e4cf-db4e-4558-a8ad-2b034cd7fc00">
            <path class="uuid-235fc5fb-a2e9-449a-9b77-9e8e8fe67045" d="m607.32,800.91v.27h-6.75v-.27h6.75Z"/>
            <path class="uuid-235fc5fb-a2e9-449a-9b77-9e8e8fe67045" d="m608.31,797.02c.14-.37.35-.69.63-.94.27-.25.61-.44,1-.57s.83-.19,1.3-.19c.37,0,.72.04,1.07.12.34.08.65.21.92.39.27.18.49.41.65.7.16.29.24.63.24,1.04,0,.65-.19,1.15-.56,1.51-.37.36-.84.57-1.41.62v.03c.27.03.53.09.79.2s.49.25.69.45c.2.19.36.43.49.72.12.29.18.63.18,1.03,0,.43-.08.81-.25,1.15-.17.33-.39.61-.67.84-.28.23-.61.4-.99.52-.37.12-.77.18-1.19.18-.52,0-.99-.07-1.42-.22s-.78-.35-1.08-.63-.52-.61-.67-1.02c-.15-.41-.2-.87-.17-1.39h.27c-.04.49.01.92.15,1.29.14.37.34.69.61.94s.6.44,1,.57c.4.13.83.2,1.31.2.37,0,.72-.05,1.07-.15s.64-.26.9-.47c.26-.21.47-.46.63-.76.16-.3.24-.65.24-1.05s-.07-.73-.2-1.01c-.13-.28-.31-.51-.55-.69-.24-.18-.52-.32-.84-.41s-.67-.14-1.05-.16h-.66v-.27h.66c.3,0,.59-.03.88-.1.29-.07.56-.18.79-.34.23-.16.42-.37.57-.62.14-.26.22-.57.22-.95,0-.37-.09-.68-.24-.93s-.35-.46-.59-.61c-.24-.16-.52-.27-.82-.34-.31-.07-.62-.1-.94-.1-.44,0-.84.06-1.19.17s-.66.28-.91.51-.44.51-.57.86c-.13.34-.19.74-.18,1.2h-.27c0-.5.06-.94.2-1.32Z"/>
          </g>
          <g class="uuid-e287e4cf-db4e-4558-a8ad-2b034cd7fc00">
            <path class="uuid-d47a3264-54de-416d-88e4-e6891b1b0218" d="m607.32,800.91v.27h-6.75v-.27h6.75Z"/>
            <path class="uuid-d47a3264-54de-416d-88e4-e6891b1b0218" d="m608.31,797.02c.14-.37.35-.69.63-.94.27-.25.61-.44,1-.57s.83-.19,1.3-.19c.37,0,.72.04,1.07.12.34.08.65.21.92.39.27.18.49.41.65.7.16.29.24.63.24,1.04,0,.65-.19,1.15-.56,1.51-.37.36-.84.57-1.41.62v.03c.27.03.53.09.79.2s.49.25.69.45c.2.19.36.43.49.72.12.29.18.63.18,1.03,0,.43-.08.81-.25,1.15-.17.33-.39.61-.67.84-.28.23-.61.4-.99.52-.37.12-.77.18-1.19.18-.52,0-.99-.07-1.42-.22s-.78-.35-1.08-.63-.52-.61-.67-1.02c-.15-.41-.2-.87-.17-1.39h.27c-.04.49.01.92.15,1.29.14.37.34.69.61.94s.6.44,1,.57c.4.13.83.2,1.31.2.37,0,.72-.05,1.07-.15s.64-.26.9-.47c.26-.21.47-.46.63-.76.16-.3.24-.65.24-1.05s-.07-.73-.2-1.01c-.13-.28-.31-.51-.55-.69-.24-.18-.52-.32-.84-.41s-.67-.14-1.05-.16h-.66v-.27h.66c.3,0,.59-.03.88-.1.29-.07.56-.18.79-.34.23-.16.42-.37.57-.62.14-.26.22-.57.22-.95,0-.37-.09-.68-.24-.93s-.35-.46-.59-.61c-.24-.16-.52-.27-.82-.34-.31-.07-.62-.1-.94-.1-.44,0-.84.06-1.19.17s-.66.28-.91.51-.44.51-.57.86c-.13.34-.19.74-.18,1.2h-.27c0-.5.06-.94.2-1.32Z"/>
          </g>
          <g class="uuid-e287e4cf-db4e-4558-a8ad-2b034cd7fc00">
            <path class="uuid-d47a3264-54de-416d-88e4-e6891b1b0218" d="m607.32,704.19v.27h-6.75v-.27h6.75Z"/>
            <path class="uuid-d47a3264-54de-416d-88e4-e6891b1b0218" d="m614.24,707.94h-6.18c0-.39.07-.74.24-1.05.17-.31.4-.61.67-.88.28-.27.59-.54.94-.78.35-.25.69-.49,1.03-.74.35-.24.69-.49,1.03-.74.33-.25.63-.51.89-.79.26-.27.47-.57.63-.88.16-.31.24-.65.24-1s-.07-.68-.2-.95-.31-.5-.53-.69c-.22-.18-.49-.32-.8-.42s-.65-.14-1.02-.14c-.48,0-.89.07-1.23.22-.34.14-.62.34-.84.6s-.37.56-.47.92c-.1.36-.15.74-.15,1.17h-.27c0-1.01.26-1.79.75-2.34.49-.55,1.23-.83,2.21-.83.4,0,.76.05,1.11.15.34.1.64.26.89.47.25.21.45.46.6.77s.22.67.22,1.08c0,.5-.14.96-.4,1.38-.27.41-.61.8-1.02,1.16-.41.36-.85.7-1.33,1.02s-.92.64-1.34.96c-.42.32-.78.65-1.07.99-.3.34-.46.7-.5,1.1h5.91v.27Z"/>
          </g>
          <g class="uuid-e287e4cf-db4e-4558-a8ad-2b034cd7fc00">
            <path class="uuid-235fc5fb-a2e9-449a-9b77-9e8e8fe67045" d="m607.32,704.19v.27h-6.75v-.27h6.75Z"/>
            <path class="uuid-235fc5fb-a2e9-449a-9b77-9e8e8fe67045" d="m614.24,707.94h-6.18c0-.39.07-.74.24-1.05.17-.31.4-.61.67-.88.28-.27.59-.54.94-.78.35-.25.69-.49,1.03-.74.35-.24.69-.49,1.03-.74.33-.25.63-.51.89-.79.26-.27.47-.57.63-.88.16-.31.24-.65.24-1s-.07-.68-.2-.95-.31-.5-.53-.69c-.22-.18-.49-.32-.8-.42s-.65-.14-1.02-.14c-.48,0-.89.07-1.23.22-.34.14-.62.34-.84.6s-.37.56-.47.92c-.1.36-.15.74-.15,1.17h-.27c0-1.01.26-1.79.75-2.34.49-.55,1.23-.83,2.21-.83.4,0,.76.05,1.11.15.34.1.64.26.89.47.25.21.45.46.6.77s.22.67.22,1.08c0,.5-.14.96-.4,1.38-.27.41-.61.8-1.02,1.16-.41.36-.85.7-1.33,1.02s-.92.64-1.34.96c-.42.32-.78.65-1.07.99-.3.34-.46.7-.5,1.1h5.91v.27Z"/>
          </g>
          <g class="uuid-e287e4cf-db4e-4558-a8ad-2b034cd7fc00">
            <path class="uuid-d47a3264-54de-416d-88e4-e6891b1b0218" d="m607.32,704.19v.27h-6.75v-.27h6.75Z"/>
            <path class="uuid-d47a3264-54de-416d-88e4-e6891b1b0218" d="m614.24,707.94h-6.18c0-.39.07-.74.24-1.05.17-.31.4-.61.67-.88.28-.27.59-.54.94-.78.35-.25.69-.49,1.03-.74.35-.24.69-.49,1.03-.74.33-.25.63-.51.89-.79.26-.27.47-.57.63-.88.16-.31.24-.65.24-1s-.07-.68-.2-.95-.31-.5-.53-.69c-.22-.18-.49-.32-.8-.42s-.65-.14-1.02-.14c-.48,0-.89.07-1.23.22-.34.14-.62.34-.84.6s-.37.56-.47.92c-.1.36-.15.74-.15,1.17h-.27c0-1.01.26-1.79.75-2.34.49-.55,1.23-.83,2.21-.83.4,0,.76.05,1.11.15.34.1.64.26.89.47.25.21.45.46.6.77s.22.67.22,1.08c0,.5-.14.96-.4,1.38-.27.41-.61.8-1.02,1.16-.41.36-.85.7-1.33,1.02s-.92.64-1.34.96c-.42.32-.78.65-1.07.99-.3.34-.46.7-.5,1.1h5.91v.27Z"/>
          </g>
          <g class="uuid-e287e4cf-db4e-4558-a8ad-2b034cd7fc00">
            <path class="uuid-d47a3264-54de-416d-88e4-e6891b1b0218" d="m607.32,607.47v.27h-6.75v-.27h6.75Z"/>
            <path class="uuid-d47a3264-54de-416d-88e4-e6891b1b0218" d="m611.31,602.4c-.28.39-.64.72-1.09,1-.45.28-.9.49-1.36.61v-.27c.28-.09.53-.19.74-.3.22-.11.42-.23.61-.36.19-.14.37-.29.55-.46s.36-.36.55-.58h.3v9.18h-.27v-8.83h-.03Z"/>
          </g>
          <g class="uuid-e287e4cf-db4e-4558-a8ad-2b034cd7fc00">
            <path class="uuid-235fc5fb-a2e9-449a-9b77-9e8e8fe67045" d="m607.32,607.47v.27h-6.75v-.27h6.75Z"/>
            <path class="uuid-235fc5fb-a2e9-449a-9b77-9e8e8fe67045" d="m611.31,602.4c-.28.39-.64.72-1.09,1-.45.28-.9.49-1.36.61v-.27c.28-.09.53-.19.74-.3.22-.11.42-.23.61-.36.19-.14.37-.29.55-.46s.36-.36.55-.58h.3v9.18h-.27v-8.83h-.03Z"/>
          </g>
          <g class="uuid-e287e4cf-db4e-4558-a8ad-2b034cd7fc00">
            <path class="uuid-d47a3264-54de-416d-88e4-e6891b1b0218" d="m607.32,607.47v.27h-6.75v-.27h6.75Z"/>
            <path class="uuid-d47a3264-54de-416d-88e4-e6891b1b0218" d="m611.31,602.4c-.28.39-.64.72-1.09,1-.45.28-.9.49-1.36.61v-.27c.28-.09.53-.19.74-.3.22-.11.42-.23.61-.36.19-.14.37-.29.55-.46s.36-.36.55-.58h.3v9.18h-.27v-8.83h-.03Z"/>
          </g>
          <g class="uuid-e287e4cf-db4e-4558-a8ad-2b034cd7fc00">
            <path class="uuid-d47a3264-54de-416d-88e4-e6891b1b0218" d="m611.31,408.95c-.28.39-.64.72-1.09,1.01-.45.28-.9.49-1.36.61v-.27c.28-.09.53-.19.74-.3s.42-.23.61-.36.37-.29.55-.46c.18-.17.36-.36.55-.58h.3v9.18h-.27v-8.83h-.03Z"/>
          </g>
          <g class="uuid-e287e4cf-db4e-4558-a8ad-2b034cd7fc00">
            <path class="uuid-235fc5fb-a2e9-449a-9b77-9e8e8fe67045" d="m611.31,408.95c-.28.39-.64.72-1.09,1.01-.45.28-.9.49-1.36.61v-.27c.28-.09.53-.19.74-.3s.42-.23.61-.36.37-.29.55-.46c.18-.17.36-.36.55-.58h.3v9.18h-.27v-8.83h-.03Z"/>
          </g>
          <g class="uuid-e287e4cf-db4e-4558-a8ad-2b034cd7fc00">
            <path class="uuid-d47a3264-54de-416d-88e4-e6891b1b0218" d="m611.31,408.95c-.28.39-.64.72-1.09,1.01-.45.28-.9.49-1.36.61v-.27c.28-.09.53-.19.74-.3s.42-.23.61-.36.37-.29.55-.46c.18-.17.36-.36.55-.58h.3v9.18h-.27v-8.83h-.03Z"/>
          </g>
          <g class="uuid-e287e4cf-db4e-4558-a8ad-2b034cd7fc00">
            <path class="uuid-d47a3264-54de-416d-88e4-e6891b1b0218" d="m614.24,321.05h-6.18c0-.39.07-.74.24-1.05.17-.31.4-.61.67-.88.28-.27.59-.54.94-.78.35-.25.69-.49,1.03-.74.35-.24.69-.49,1.03-.74.33-.25.63-.52.89-.79.26-.27.47-.57.63-.88.16-.31.24-.65.24-1.01s-.07-.68-.2-.95-.31-.5-.53-.69c-.22-.18-.49-.32-.8-.42-.31-.09-.65-.14-1.02-.14-.48,0-.89.07-1.23.22-.34.14-.62.34-.84.6s-.37.56-.47.92c-.1.36-.15.74-.15,1.17h-.27c0-1.01.26-1.79.75-2.34.49-.55,1.23-.83,2.21-.83.4,0,.76.05,1.11.16.34.1.64.26.89.47.25.21.45.46.6.77.15.31.22.67.22,1.08,0,.5-.14.96-.4,1.38-.27.41-.61.8-1.02,1.16-.41.36-.85.7-1.33,1.02-.48.32-.92.64-1.34.96s-.78.65-1.07.99-.46.7-.5,1.1h5.91v.27Z"/>
          </g>
          <g class="uuid-e287e4cf-db4e-4558-a8ad-2b034cd7fc00">
            <path class="uuid-235fc5fb-a2e9-449a-9b77-9e8e8fe67045" d="m614.24,321.05h-6.18c0-.39.07-.74.24-1.05.17-.31.4-.61.67-.88.28-.27.59-.54.94-.78.35-.25.69-.49,1.03-.74.35-.24.69-.49,1.03-.74.33-.25.63-.52.89-.79.26-.27.47-.57.63-.88.16-.31.24-.65.24-1.01s-.07-.68-.2-.95-.31-.5-.53-.69c-.22-.18-.49-.32-.8-.42-.31-.09-.65-.14-1.02-.14-.48,0-.89.07-1.23.22-.34.14-.62.34-.84.6s-.37.56-.47.92c-.1.36-.15.74-.15,1.17h-.27c0-1.01.26-1.79.75-2.34.49-.55,1.23-.83,2.21-.83.4,0,.76.05,1.11.16.34.1.64.26.89.47.25.21.45.46.6.77.15.31.22.67.22,1.08,0,.5-.14.96-.4,1.38-.27.41-.61.8-1.02,1.16-.41.36-.85.7-1.33,1.02-.48.32-.92.64-1.34.96s-.78.65-1.07.99-.46.7-.5,1.1h5.91v.27Z"/>
          </g>
          <g class="uuid-e287e4cf-db4e-4558-a8ad-2b034cd7fc00">
            <path class="uuid-d47a3264-54de-416d-88e4-e6891b1b0218" d="m614.24,321.05h-6.18c0-.39.07-.74.24-1.05.17-.31.4-.61.67-.88.28-.27.59-.54.94-.78.35-.25.69-.49,1.03-.74.35-.24.69-.49,1.03-.74.33-.25.63-.52.89-.79.26-.27.47-.57.63-.88.16-.31.24-.65.24-1.01s-.07-.68-.2-.95-.31-.5-.53-.69c-.22-.18-.49-.32-.8-.42-.31-.09-.65-.14-1.02-.14-.48,0-.89.07-1.23.22-.34.14-.62.34-.84.6s-.37.56-.47.92c-.1.36-.15.74-.15,1.17h-.27c0-1.01.26-1.79.75-2.34.49-.55,1.23-.83,2.21-.83.4,0,.76.05,1.11.16.34.1.64.26.89.47.25.21.45.46.6.77.15.31.22.67.22,1.08,0,.5-.14.96-.4,1.38-.27.41-.61.8-1.02,1.16-.41.36-.85.7-1.33,1.02-.48.32-.92.64-1.34.96s-.78.65-1.07.99-.46.7-.5,1.1h5.91v.27Z"/>
          </g>
          <g class="uuid-e287e4cf-db4e-4558-a8ad-2b034cd7fc00">
            <path class="uuid-d47a3264-54de-416d-88e4-e6891b1b0218" d="m608.31,216.69c.14-.37.35-.69.63-.94.27-.25.61-.44,1-.57s.83-.19,1.3-.19c.37,0,.72.04,1.07.12.34.08.65.21.92.39.27.18.49.41.65.7s.24.63.24,1.04c0,.65-.19,1.15-.56,1.51-.37.36-.84.57-1.41.62v.03c.27.03.53.09.79.2.26.1.49.25.69.45.2.19.36.43.49.72.12.29.18.63.18,1.03,0,.43-.08.81-.25,1.15-.17.33-.39.61-.67.84-.28.23-.61.4-.99.52-.37.12-.77.18-1.19.18-.52,0-.99-.07-1.42-.22-.42-.14-.78-.35-1.08-.63s-.52-.61-.67-1.02-.2-.87-.17-1.39h.27c-.04.49.01.92.15,1.29.14.37.34.69.61.94.27.25.6.44,1,.57.4.13.83.2,1.31.2.37,0,.72-.05,1.07-.16s.64-.26.9-.47c.26-.21.47-.46.63-.76.16-.3.24-.65.24-1.05s-.07-.73-.2-1.01-.31-.51-.55-.69c-.24-.18-.52-.31-.84-.4s-.67-.14-1.05-.16h-.66v-.27h.66c.3,0,.59-.03.88-.1.29-.07.56-.18.79-.34.23-.16.42-.36.57-.62.14-.26.22-.57.22-.95,0-.37-.09-.68-.24-.93s-.35-.46-.59-.61c-.24-.16-.52-.27-.82-.34-.31-.07-.62-.1-.94-.1-.44,0-.84.06-1.19.17-.36.11-.66.28-.91.51s-.44.52-.57.86c-.13.34-.19.74-.18,1.2h-.27c0-.5.06-.94.2-1.32Z"/>
          </g>
          <g class="uuid-e287e4cf-db4e-4558-a8ad-2b034cd7fc00">
            <path class="uuid-235fc5fb-a2e9-449a-9b77-9e8e8fe67045" d="m608.31,216.69c.14-.37.35-.69.63-.94.27-.25.61-.44,1-.57s.83-.19,1.3-.19c.37,0,.72.04,1.07.12.34.08.65.21.92.39.27.18.49.41.65.7s.24.63.24,1.04c0,.65-.19,1.15-.56,1.51-.37.36-.84.57-1.41.62v.03c.27.03.53.09.79.2.26.1.49.25.69.45.2.19.36.43.49.72.12.29.18.63.18,1.03,0,.43-.08.81-.25,1.15-.17.33-.39.61-.67.84-.28.23-.61.4-.99.52-.37.12-.77.18-1.19.18-.52,0-.99-.07-1.42-.22-.42-.14-.78-.35-1.08-.63s-.52-.61-.67-1.02-.2-.87-.17-1.39h.27c-.04.49.01.92.15,1.29.14.37.34.69.61.94.27.25.6.44,1,.57.4.13.83.2,1.31.2.37,0,.72-.05,1.07-.16s.64-.26.9-.47c.26-.21.47-.46.63-.76.16-.3.24-.65.24-1.05s-.07-.73-.2-1.01-.31-.51-.55-.69c-.24-.18-.52-.31-.84-.4s-.67-.14-1.05-.16h-.66v-.27h.66c.3,0,.59-.03.88-.1.29-.07.56-.18.79-.34.23-.16.42-.36.57-.62.14-.26.22-.57.22-.95,0-.37-.09-.68-.24-.93s-.35-.46-.59-.61c-.24-.16-.52-.27-.82-.34-.31-.07-.62-.1-.94-.1-.44,0-.84.06-1.19.17-.36.11-.66.28-.91.51s-.44.52-.57.86c-.13.34-.19.74-.18,1.2h-.27c0-.5.06-.94.2-1.32Z"/>
          </g>
          <g class="uuid-e287e4cf-db4e-4558-a8ad-2b034cd7fc00">
            <path class="uuid-d47a3264-54de-416d-88e4-e6891b1b0218" d="m608.31,216.69c.14-.37.35-.69.63-.94.27-.25.61-.44,1-.57s.83-.19,1.3-.19c.37,0,.72.04,1.07.12.34.08.65.21.92.39.27.18.49.41.65.7s.24.63.24,1.04c0,.65-.19,1.15-.56,1.51-.37.36-.84.57-1.41.62v.03c.27.03.53.09.79.2.26.1.49.25.69.45.2.19.36.43.49.72.12.29.18.63.18,1.03,0,.43-.08.81-.25,1.15-.17.33-.39.61-.67.84-.28.23-.61.4-.99.52-.37.12-.77.18-1.19.18-.52,0-.99-.07-1.42-.22-.42-.14-.78-.35-1.08-.63s-.52-.61-.67-1.02-.2-.87-.17-1.39h.27c-.04.49.01.92.15,1.29.14.37.34.69.61.94.27.25.6.44,1,.57.4.13.83.2,1.31.2.37,0,.72-.05,1.07-.16s.64-.26.9-.47c.26-.21.47-.46.63-.76.16-.3.24-.65.24-1.05s-.07-.73-.2-1.01-.31-.51-.55-.69c-.24-.18-.52-.31-.84-.4s-.67-.14-1.05-.16h-.66v-.27h.66c.3,0,.59-.03.88-.1.29-.07.56-.18.79-.34.23-.16.42-.36.57-.62.14-.26.22-.57.22-.95,0-.37-.09-.68-.24-.93s-.35-.46-.59-.61c-.24-.16-.52-.27-.82-.34-.31-.07-.62-.1-.94-.1-.44,0-.84.06-1.19.17-.36.11-.66.28-.91.51s-.44.52-.57.86c-.13.34-.19.74-.18,1.2h-.27c0-.5.06-.94.2-1.32Z"/>
          </g>
          <g class="uuid-e287e4cf-db4e-4558-a8ad-2b034cd7fc00">
            <path class="uuid-d47a3264-54de-416d-88e4-e6891b1b0218" d="m607.77,124.9l4.59-6.46h.34v6.52h1.66v.27h-1.66v2.39h-.27v-2.39h-4.66v-.32Zm4.63-6.09l-4.36,6.14h4.39v-6.14h-.03Z"/>
          </g>
          <g class="uuid-e287e4cf-db4e-4558-a8ad-2b034cd7fc00">
            <path class="uuid-235fc5fb-a2e9-449a-9b77-9e8e8fe67045" d="m607.77,124.9l4.59-6.46h.34v6.52h1.66v.27h-1.66v2.39h-.27v-2.39h-4.66v-.32Zm4.63-6.09l-4.36,6.14h4.39v-6.14h-.03Z"/>
          </g>
          <g class="uuid-e287e4cf-db4e-4558-a8ad-2b034cd7fc00">
            <path class="uuid-d47a3264-54de-416d-88e4-e6891b1b0218" d="m607.77,124.9l4.59-6.46h.34v6.52h1.66v.27h-1.66v2.39h-.27v-2.39h-4.66v-.32Zm4.63-6.09l-4.36,6.14h4.39v-6.14h-.03Z"/>
          </g>
          <g class="uuid-e287e4cf-db4e-4558-a8ad-2b034cd7fc00">
            <path class="uuid-d47a3264-54de-416d-88e4-e6891b1b0218" d="m608.46,25.91h.03c.26-.43.61-.75,1.05-.94.44-.2.92-.3,1.46-.3.48,0,.91.08,1.3.24.39.16.72.38,1,.65.28.28.49.61.65,1.01.15.39.23.82.23,1.28,0,.49-.08.93-.23,1.32s-.37.73-.65,1.01c-.28.28-.61.49-1,.64s-.82.22-1.3.22-.9-.07-1.3-.21c-.4-.14-.74-.34-1.03-.6-.28-.26-.5-.58-.65-.97-.15-.38-.22-.82-.2-1.32h.27c-.02.45.04.85.18,1.2.13.35.33.65.59.89.26.24.57.43.94.55.37.13.77.19,1.21.19s.85-.07,1.21-.21c.35-.14.66-.34.91-.59s.45-.57.58-.93c.13-.36.2-.77.2-1.21s-.07-.81-.21-1.17c-.14-.35-.34-.66-.59-.92-.25-.26-.56-.46-.92-.6s-.76-.22-1.19-.22c-.54,0-1.04.12-1.5.36-.46.24-.81.59-1.07,1.05h-.34l.99-4.63h4.71v.27h-4.49l-.84,3.93Z"/>
          </g>
          <g class="uuid-e287e4cf-db4e-4558-a8ad-2b034cd7fc00">
            <path class="uuid-235fc5fb-a2e9-449a-9b77-9e8e8fe67045" d="m608.46,25.91h.03c.26-.43.61-.75,1.05-.94.44-.2.92-.3,1.46-.3.48,0,.91.08,1.3.24.39.16.72.38,1,.65.28.28.49.61.65,1.01.15.39.23.82.23,1.28,0,.49-.08.93-.23,1.32s-.37.73-.65,1.01c-.28.28-.61.49-1,.64s-.82.22-1.3.22-.9-.07-1.3-.21c-.4-.14-.74-.34-1.03-.6-.28-.26-.5-.58-.65-.97-.15-.38-.22-.82-.2-1.32h.27c-.02.45.04.85.18,1.2.13.35.33.65.59.89.26.24.57.43.94.55.37.13.77.19,1.21.19s.85-.07,1.21-.21c.35-.14.66-.34.91-.59s.45-.57.58-.93c.13-.36.2-.77.2-1.21s-.07-.81-.21-1.17c-.14-.35-.34-.66-.59-.92-.25-.26-.56-.46-.92-.6s-.76-.22-1.19-.22c-.54,0-1.04.12-1.5.36-.46.24-.81.59-1.07,1.05h-.34l.99-4.63h4.71v.27h-4.49l-.84,3.93Z"/>
          </g>
          <g class="uuid-e287e4cf-db4e-4558-a8ad-2b034cd7fc00">
            <path class="uuid-d47a3264-54de-416d-88e4-e6891b1b0218" d="m608.46,25.91h.03c.26-.43.61-.75,1.05-.94.44-.2.92-.3,1.46-.3.48,0,.91.08,1.3.24.39.16.72.38,1,.65.28.28.49.61.65,1.01.15.39.23.82.23,1.28,0,.49-.08.93-.23,1.32s-.37.73-.65,1.01c-.28.28-.61.49-1,.64s-.82.22-1.3.22-.9-.07-1.3-.21c-.4-.14-.74-.34-1.03-.6-.28-.26-.5-.58-.65-.97-.15-.38-.22-.82-.2-1.32h.27c-.02.45.04.85.18,1.2.13.35.33.65.59.89.26.24.57.43.94.55.37.13.77.19,1.21.19s.85-.07,1.21-.21c.35-.14.66-.34.91-.59s.45-.57.58-.93c.13-.36.2-.77.2-1.21s-.07-.81-.21-1.17c-.14-.35-.34-.66-.59-.92-.25-.26-.56-.46-.92-.6s-.76-.22-1.19-.22c-.54,0-1.04.12-1.5.36-.46.24-.81.59-1.07,1.05h-.34l.99-4.63h4.71v.27h-4.49l-.84,3.93Z"/>
          </g>
          <g class="uuid-e287e4cf-db4e-4558-a8ad-2b034cd7fc00">
            <path class="uuid-d47a3264-54de-416d-88e4-e6891b1b0218" d="m614.37,524c-.11.57-.3,1.08-.57,1.53s-.63.81-1.07,1.09c-.44.27-.99.41-1.66.41s-1.21-.14-1.65-.41c-.45-.27-.8-.64-1.07-1.09-.27-.45-.46-.96-.57-1.53-.11-.57-.17-1.14-.17-1.71s.06-1.15.17-1.71c.11-.57.3-1.08.57-1.53.27-.45.63-.81,1.07-1.09s1-.42,1.65-.42,1.22.14,1.66.42c.44.28.8.64,1.07,1.09.27.45.46.96.57,1.53.11.57.17,1.14.17,1.71s-.06,1.15-.17,1.71Zm-.25-3.28c-.1-.53-.27-1.01-.51-1.44-.24-.43-.57-.78-.98-1.06-.41-.27-.93-.41-1.56-.41s-1.15.14-1.56.41c-.41.28-.74.63-.98,1.06-.24.43-.41.91-.51,1.44-.1.53-.15,1.05-.15,1.57s.05,1.04.15,1.57c.1.53.27,1.01.51,1.44.24.43.57.79.98,1.06.41.27.93.41,1.56.41s1.15-.14,1.56-.41c.41-.27.74-.63.98-1.06.24-.43.41-.91.51-1.44.1-.53.15-1.05.15-1.57s-.05-1.03-.15-1.57Z"/>
          </g>
          <g class="uuid-e287e4cf-db4e-4558-a8ad-2b034cd7fc00">
            <path class="uuid-235fc5fb-a2e9-449a-9b77-9e8e8fe67045" d="m614.37,524c-.11.57-.3,1.08-.57,1.53s-.63.81-1.07,1.09c-.44.27-.99.41-1.66.41s-1.21-.14-1.65-.41c-.45-.27-.8-.64-1.07-1.09-.27-.45-.46-.96-.57-1.53-.11-.57-.17-1.14-.17-1.71s.06-1.15.17-1.71c.11-.57.3-1.08.57-1.53.27-.45.63-.81,1.07-1.09s1-.42,1.65-.42,1.22.14,1.66.42c.44.28.8.64,1.07,1.09.27.45.46.96.57,1.53.11.57.17,1.14.17,1.71s-.06,1.15-.17,1.71Zm-.25-3.28c-.1-.53-.27-1.01-.51-1.44-.24-.43-.57-.78-.98-1.06-.41-.27-.93-.41-1.56-.41s-1.15.14-1.56.41c-.41.28-.74.63-.98,1.06-.24.43-.41.91-.51,1.44-.1.53-.15,1.05-.15,1.57s.05,1.04.15,1.57c.1.53.27,1.01.51,1.44.24.43.57.79.98,1.06.41.27.93.41,1.56.41s1.15-.14,1.56-.41c.41-.27.74-.63.98-1.06.24-.43.41-.91.51-1.44.1-.53.15-1.05.15-1.57s-.05-1.03-.15-1.57Z"/>
          </g>
          <g class="uuid-e287e4cf-db4e-4558-a8ad-2b034cd7fc00">
            <path class="uuid-d47a3264-54de-416d-88e4-e6891b1b0218" d="m614.37,524c-.11.57-.3,1.08-.57,1.53s-.63.81-1.07,1.09c-.44.27-.99.41-1.66.41s-1.21-.14-1.65-.41c-.45-.27-.8-.64-1.07-1.09-.27-.45-.46-.96-.57-1.53-.11-.57-.17-1.14-.17-1.71s.06-1.15.17-1.71c.11-.57.3-1.08.57-1.53.27-.45.63-.81,1.07-1.09s1-.42,1.65-.42,1.22.14,1.66.42c.44.28.8.64,1.07,1.09.27.45.46.96.57,1.53.11.57.17,1.14.17,1.71s-.06,1.15-.17,1.71Zm-.25-3.28c-.1-.53-.27-1.01-.51-1.44-.24-.43-.57-.78-.98-1.06-.41-.27-.93-.41-1.56-.41s-1.15.14-1.56.41c-.41.28-.74.63-.98,1.06-.24.43-.41.91-.51,1.44-.1.53-.15,1.05-.15,1.57s.05,1.04.15,1.57c.1.53.27,1.01.51,1.44.24.43.57.79.98,1.06.41.27.93.41,1.56.41s1.15-.14,1.56-.41c.41-.27.74-.63.98-1.06.24-.43.41-.91.51-1.44.1-.53.15-1.05.15-1.57s-.05-1.03-.15-1.57Z"/>
          </g>
          <path class="uuid-4ef20c1a-18e1-48f5-8af4-080d7f86a29d" d="m-86.05,658.66v.08-.08l1.12-.08h0l1.12-.08h0l1.12-.08h0l1.12-.08h0l1.12-.08h0l1.12-.08h0l1.12-.08h0l1.12-.08h0l1.12-.08h0l1.12-.08h0l1.12-.08h0l1.12-.08h0l1.12-.08h0l1.12-.08h0l1.12-.08h0l1.12-.08h0l1.12-.08h0l1.12-.08h0l1.12-.08h0l1.12-.08h0l1.12-.08h0l1.12-.08h0l1.12-.08h0l1.12-.08h0l1.12-.08h0l1.12-.08h0l1.12-.08h0l1.12-.08h0l1.12-.08h0l1.12-.08h0l1.12-.08h0l1.12-.08h0l1.12-.08h0l1.12-.08h0l1.12-.08h0l1.12-.08h0l1.12-.08h0l1.12-.08h0l1.12-.08h0l1.12-.08h0l1.12-.08h0l1.12-.08h0l1.12-.08h0l1.12-.08h0l1.12-.08h0l1.12-.08h0l1.12-.08h0l1.12-.08h0l1.12-.08h0l1.12-.08h0l1.12-.08h0l1.12-.08h0l1.12-.08h0l1.12-.08h0l1.12-.08h0l1.12-.08h0l1.12-.08h0l1.12-.08h0l1.12-.08h0l1.12-.08h0l1.12-.08h0l1.12-.08h0l1.12-.08h0l1.12-.08h0l1.12-.08h0l1.12-.08h0l1.12-.08h0l1.12-.08h0l1.12-.09h0l1.12-.09h0l1.12-.09h0l1.12-.09h0l1.12-.09h0l1.12-.09h0l1.12-.09h0l1.12-.09h0l1.12-.09h0l1.12-.09h0l1.12-.09h0l1.12-.09h0l1.12-.09h0l1.12-.09h0l1.12-.09h0l1.12-.09h0l1.12-.09h0l1.12-.09h0l1.12-.09h0l1.12-.09h0l1.12-.09h0l1.12-.09h0l1.12-.09h0l1.12-.09h0l1.12-.09h0l1.12-.09h0l1.12-.09h0l1.12-.09h0l1.12-.09h0l1.12-.09h0l1.12-.09h0l1.12-.09h0l1.12-.09h0l1.12-.09h0l1.12-.09h0l1.12-.09h0l1.12-.09h0l1.12-.09h0l1.12-.09h0l1.12-.09h0l1.12-.09h0l1.12-.09h0l1.12-.09h0l1.12-.09h0l1.12-.09h0l1.12-.09h0l1.12-.09h0l1.12-.09h0l1.12-.09h0l1.12-.09h0l1.12-.09h0l1.12-.09h0l1.12-.09h0l1.12-.09h0l1.12-.09h0l1.12-.09h0l1.12-.09h0l1.12-.09h0l1.12-.09h0l1.12-.09h0l1.12-.09h0l1.12-.09h0l1.12-.09h0l1.12-.09h0l1.12-.09h0l1.12-.09h0l1.12-.09h0l1.12-.09h0l1.12-.09h0l1.12-.09h0l1.12-.09h0l1.12-.09h0l1.12-.09h0l1.12-.09h0l1.12-.09h0l1.12-.09h0l1.12-.09h0l1.12-.09h0l1.12-.09h0l1.12-.09h0l1.12-.09h0l1.12-.09h0l1.12-.09h0l1.12-.09h0l1.12-.09h0l1.12-.09h0l1.12-.1h0l1.12-.1h0l1.12-.1h0l1.12-.1h0l1.12-.1h0l1.12-.1h0l1.12-.1h0l1.12-.1h0l1.12-.1h0l1.12-.1h0l1.12-.1h0l1.12-.1h0l1.12-.1h0l1.12-.1h0l1.12-.1h0l1.12-.1h0l1.12-.1h0l1.12-.1h0l1.12-.1h0l1.12-.1h0l1.12-.1h0l1.12-.1h0l1.12-.1h0l1.12-.1h0l1.12-.1h0l1.12-.1h0l1.12-.1h0l1.12-.1h0l1.12-.1h0l1.12-.1h0l1.12-.1h0l1.12-.1h0l1.12-.1h0l1.12-.1h0l1.12-.1h0l1.12-.1h0l1.12-.1h0l1.12-.1h0l1.12-.1h0l1.12-.1h0l1.12-.1h0l1.12-.1h0l1.12-.1h0l1.12-.1h0l1.12-.1h0l1.12-.1h0l1.12-.1h0l1.12-.1h0l1.12-.1h0l1.12-.1h0l1.12-.1h0l1.12-.1h0l1.12-.1h0l1.12-.1h0l1.12-.1h0l1.12-.1h0l1.12-.1h0l1.12-.1h0l1.12-.1h0l1.12-.1h0l1.12-.1h0l1.12-.1h0l1.12-.1h0l1.12-.1h0l1.12-.1h0l1.12-.1h0l1.12-.1h0l1.12-.11h0l1.12-.11h0l1.12-.11h0l1.12-.11h0l1.12-.11h0l1.12-.11h0l1.12-.11h0l1.12-.11h0l1.12-.11h0l1.12-.11h0l1.12-.11h0l1.12-.11h0l1.12-.11h0l1.12-.11h0l1.12-.11h0l1.12-.11h0l1.12-.11h0l1.12-.11h0l1.12-.11h0l1.12-.11h0l1.12-.11h0l1.12-.11h0l1.12-.11h0l1.12-.11h0l1.12-.11h0l1.12-.11h0l1.12-.11h0l1.12-.11h0l1.12-.11h0l1.12-.11h0l1.12-.11h0l1.12-.11h0l1.12-.11h0l1.12-.11h0l1.12-.11h0l1.12-.11h0l1.12-.11h0l1.12-.11h0l1.12-.11h0l1.12-.11h0l1.12-.11h0l1.12-.11h0l1.12-.11h0l1.12-.11h0l1.12-.11h0l1.12-.11h0l1.12-.11h0l1.12-.11h0l1.12-.11h0l1.12-.11h0l1.12-.11h0l1.12-.11h0l1.12-.12h0l1.12-.12h0l1.12-.12h0l1.12-.12h0l1.12-.12h0l1.12-.12h0l1.12-.12h0l1.12-.12h0l1.12-.12h0l1.12-.12h0l1.12-.12h0l1.12-.12h0l1.12-.12h0l1.12-.12h0l1.12-.12h0l1.12-.12h0l1.12-.12h0l1.12-.12h0l1.12-.12h0l1.12-.12h0l1.12-.12h0l1.12-.12h0l1.12-.12h0l1.12-.12h0l1.12-.12h0l1.12-.12h0l1.12-.12h0l1.12-.12h0l1.12-.12h0l1.12-.12h0l1.12-.12h0l1.12-.12h0l1.12-.12h0l1.12-.12h0l1.12-.12h0l1.12-.12h0l1.12-.12h0l1.12-.12h0l1.12-.12h0l1.12-.12h0l1.12-.12h0l1.12-.12h0l1.12-.13h0l1.12-.13h0l1.12-.13h0l1.12-.13h0l1.12-.13h0l1.12-.13h0l1.12-.13h0l1.12-.13h0l1.12-.13h0l1.12-.13h0l1.12-.13h0l1.12-.13h0l1.12-.13h0l1.12-.13h0l1.12-.13h0l1.12-.13h0l1.12-.13h0l1.12-.13h0l1.12-.13h0l1.12-.13h0l1.12-.13h0l1.12-.13h0l1.12-.13h0l1.12-.13h0l1.12-.13h0l1.12-.13h0l1.12-.13h0l1.12-.13h0l1.12-.13h0l1.12-.13h0l1.12-.13h0l1.12-.13h0l1.12-.13h0l1.12-.13h0l1.12-.14h0l1.12-.14h0l1.12-.14h0l1.12-.14h0l1.12-.14h0l1.12-.14h0l1.12-.14h0l1.12-.14h0l1.12-.14h0l1.12-.14h0l1.12-.14h0l1.12-.14h0l1.12-.14h0l1.12-.14h0l1.12-.14h0l1.12-.14h0l1.12-.14h0l1.12-.14h0l1.12-.14h0l1.12-.14h0l1.12-.14h0l1.12-.14h0l1.12-.14h0l1.12-.14h0l1.12-.14h0l1.12-.14h0l1.12-.14h0l1.12-.14h0l1.12-.14h0l1.12-.15h0l1.12-.15h0l1.12-.15h0l1.12-.15h0l1.12-.15h0l1.12-.15h0l1.12-.15h0l1.12-.15h0l1.12-.15h0l1.12-.15h0l1.12-.15h0l1.12-.15h0l1.12-.15h0l1.12-.15h0l1.12-.15h0l1.12-.15h0l1.12-.15h0l1.12-.15h0l1.12-.15h0l1.12-.15h0l1.12-.15h0l1.12-.15h0l1.12-.15h0l1.12-.15h0l1.12-.16h0l1.12-.16h0l1.12-.16h0l1.12-.16h0l1.12-.16h0l1.12-.16h0l1.12-.16h0l1.12-.16h0l1.12-.16h0l1.12-.16h0l1.12-.16h0l1.12-.16h0l1.12-.16h0l1.12-.16h0l1.12-.16h0l1.12-.16h0l1.12-.16h0l1.12-.16h0l1.12-.16h0l1.12-.16h0l1.12-.16h0l1.12-.17h0l1.12-.17h0l1.12-.17h0l1.12-.17h0l1.12-.17h0l1.12-.17h0l1.12-.17h0l1.12-.17h0l1.12-.17h0l1.12-.17h0l1.12-.17h0l1.12-.17h0l1.12-.17h0l1.12-.17h0l1.12-.17h0l1.12-.17h0l1.12-.17h0l1.12-.18h0l1.12-.18h0l1.12-.18h0l1.12-.18h0l1.12-.18h0l1.12-.18h0l1.12-.18h0l1.12-.18h0l1.12-.18h0l1.12-.18h0l1.12-.18h0l1.12-.18h0l1.12-.18h0l1.12-.18h0l1.12-.18h0l1.12-.18h0l1.12-.19h0l1.12-.19h0l1.12-.19h0l1.12-.19h0l1.12-.19h0l1.12-.19h0l1.12-.19h0l1.12-.19h0l1.12-.19h0l1.12-.19h0l1.12-.19h0l1.12-.19h0l1.12-.19h0l1.12-.2h0l1.12-.2h0l1.12-.2h0l1.12-.2h0l1.12-.2h0l1.12-.2h0l1.12-.2h0l1.12-.2h0l1.12-.2h0l1.12-.2h0l1.12-.2h0l1.12-.2h0l1.12-.21h0l1.12-.21h0l1.12-.21h0l1.12-.21h0l1.12-.21h0l1.12-.21h0l1.12-.21h0l1.12-.21h0l1.12-.21h0l1.12-.21h0l1.12-.22h0l1.12-.22h0l1.12-.22h0l1.12-.22h0l1.12-.22h0l1.12-.22h0l1.12-.22h0l1.12-.22h0l1.12-.22h0l1.12-.23h0l1.12-.23h0l1.12-.23h0l1.12-.23h0l1.12-.23h0l1.12-.23h0l1.12-.23h0l1.12-.23h0l1.12-.24h0l1.12-.24h0l1.12-.24h0l1.12-.24h0l1.12-.24h0l1.12-.24h0l1.12-.24h0l1.12-.24h0l1.12-.25h0l1.12-.25h0l1.12-.25h0l1.12-.25h0l1.12-.25h0l1.12-.25h0l1.12-.26h0l1.12-.26h0l1.12-.26h0l1.12-.26h0l1.12-.26h0l1.12-.26h0l1.12-.26h0l1.12-.27h0l1.12-.27h0l1.12-.27h0l1.12-.27h0l1.12-.27h0l1.12-.28h0l1.12-.28h0l1.12-.28h0l1.12-.28h0l1.12-.28h0l1.12-.29h0l1.12-.29h0l1.12-.29h0l1.12-.29h0l1.12-.29h0l1.12-.3h0l1.12-.3h0l1.12-.3h0l1.12-.3h0l1.12-.31h0l1.12-.31h0l1.12-.31h0l1.12-.31h0l1.12-.32h0l1.12-.32h0l1.12-.32h0l1.12-.32h0l1.12-.33h0l1.12-.33h0l1.12-.33h0l1.12-.34h0l1.12-.34h0l1.12-.34h0l1.12-.35h0l1.12-.35h0l1.12-.35h0l1.12-.36h0l1.12-.36h0l1.12-.36h0l1.12-.37h0l1.12-.37h0l1.12-.38h0l1.12-.38h0l1.12-.39h0l1.12-.39h0l1.12-.39h0l1.12-.4h0l1.12-.4h0l1.12-.41h0l1.12-.41h0l1.12-.42h0l1.12-.42h0l1.12-.43h0l1.12-.44h0l1.12-.44h0l1.12-.45h0l1.12-.46h0l1.12-.46h0l1.12-.47h0l1.12-.48h0l1.12-.48h0l1.12-.49h0l1.12-.5h0l1.12-.51h0l1.12-.52h0l1.12-.53h0l1.12-.54h0l1.12-.55h0l1.12-.56h0l1.12-.57h0l1.12-.58h0l1.12-.59h0l1.12-.61h0l1.12-.62h0l1.12-.64h0l1.12-.65h0l1.12-.67h0l1.12-.69h0l1.12-.71h0l1.12-.73h0l1.12-.75h0l1.12-.78h0l1.12-.8h0l1.12-.83h0l1.12-.86h0l1.12-.9h0l1.12-.94h0l1.12-.98h0l1.12-1.03h0l1.12-1.08h0l1.12-1.14h0l1.12-1.21h0l1.12-1.3h0l1.12-1.4h0l1.12-1.52h0l1.12-1.68h0l1.12-1.88h0l1.12-2.15h0l1.12-2.55h0l1.12-3.22h0l1.12-4.65h0l1.12-23.73h0l1.12-11.04h0l1.12-4.4h0l1.12-3.12h0l1.12-2.5h0l1.12-2.11h0l1.12-1.85h0l1.12-1.66h0l1.12-1.51h0l1.12-1.39h0l1.12-1.29h0l1.12-1.21h0l1.12-1.13h0l1.12-1.07h0l1.12-1.02h0l1.12-.97h0l1.12-.93h0l1.12-.89h0l1.12-.86h0l1.12-.83h0l1.12-.8h0l1.12-.77h0l1.12-.75h0l1.12-.73h0l1.12-.71h0l1.12-.69h0l1.12-.67h0l1.12-.65h0l1.12-.64h0l1.12-.62h0l1.12-.61h0l1.12-.59h0l1.12-.58h0l1.12-.57h0l1.12-.56h0l1.12-.55h0l1.12-.54h0l1.12-.53h0l1.12-.52h0l1.12-.51h0l1.12-.5h0l1.12-.49h0l1.12-.48h0l1.12-.48h0l1.12-.47h0l1.12-.46h0l1.12-.45h0l1.12-.45h0l1.12-.44h0l1.12-.44h0l1.12-.43h0l1.12-.42h0l1.12-.42h0l1.12-.41h0l1.12-.41h0l1.12-.4h0l1.12-.4h0l1.12-.39h0l1.12-.39h0l1.12-.38h0l1.12-.38h0l1.12-.38h0l1.12-.37h0l1.12-.37h0l1.12-.36h0l1.12-.36h0l1.12-.36h0l1.12-.35h0l1.12-.35h0l1.12-.35h0l1.12-.34h0l1.12-.34h0l1.12-.34h0l1.12-.33h0l1.12-.33h0l1.12-.33h0l1.12-.32h0l1.12-.32h0l1.12-.32h0l1.12-.32h0l1.12-.31h0l1.12-.31h0l1.12-.31h0l1.12-.31h0l1.12-.3h0l1.12-.3h0l1.12-.3h0l1.12-.3h0l1.12-.29h0l1.12-.29h0l1.12-.29h0l1.12-.29h0l1.12-.29h0l1.12-.28h0l1.12-.28h0l1.12-.28h0l1.12-.28h0l1.12-.28h0l1.12-.27h0l1.12-.27h0l1.12-.27h0l1.12-.27h0l1.12-.27h0l1.12-.26h0l1.12-.26h0l1.12-.26h0l1.12-.26h0l1.12-.26h0l1.12-.26h0l1.12-.25h0l1.12-.25h0l1.12-.25h0l1.12-.25h0l1.12-.25h0l1.12-.25h0l1.12-.25h0l1.12-.24h0l1.12-.24h0l1.12-.24h0l1.12-.24h0l1.12-.24h0l1.12-.24h0l1.12-.24h0l1.12-.24h0l1.12-.23h0l1.12-.23h0l1.12-.23h0l1.12-.23h0l1.12-.23h0l1.12-.23h0l1.12-.23h0l1.12-.23h0l1.12-.22h0l1.12-.22h0l1.12-.22h0l1.12-.22h0l1.12-.22h0l1.12-.22h0l1.12-.22h0l1.12-.22h0l1.12-.22h0l1.12-.21h0l1.12-.21h0l1.12-.21h0l1.12-.21h0l1.12-.21h0l1.12-.21h0l1.12-.21h0l1.12-.21h0l1.12-.21h0l1.12-.21h0l1.12-.2h0l1.12-.2h0l1.12-.2h0l1.12-.2h0l1.12-.2h0l1.12-.2h0l1.12-.2h0l1.12-.2h0l1.12-.2h0l1.12-.2h0l1.12-.2h0l1.12-.2h0l1.12-.19h0l1.12-.19h0l1.12-.19h0l1.12-.19h0l1.12-.19h0l1.12-.19h0l1.12-.19h0l1.12-.19h0l1.12-.19h0l1.12-.19h0l1.12-.19h0l1.12-.19h0l1.12-.19h0l1.12-.18h0l1.12-.18h0l1.12-.18h0l1.12-.18h0l1.12-.18h0l1.12-.18h0l1.12-.18h0l1.12-.18h0l1.12-.18h0l1.12-.18h0l1.12-.18h0l1.12-.18h0l1.12-.18h0l1.12-.18h0l1.12-.18h0l1.12-.18h0l1.12-.17h0l1.12-.17h0l1.12-.17h0l1.12-.17h0l1.12-.17h0l1.12-.17h0l1.12-.17h0l1.12-.17h0l1.12-.17h0l1.12-.17h0l1.12-.17h0l1.12-.17h0l1.12-.17h0l1.12-.17h0l1.12-.17h0l1.12-.17h0l1.12-.17h0l1.12-.16h0l1.12-.16h0l1.12-.16h0l1.12-.16h0l1.12-.16h0l1.12-.16h0l1.12-.16h0l1.12-.16h0l1.12-.16h0l1.12-.16h0l1.12-.16h0l1.12-.16h0l1.12-.16h0l1.12-.16h0l1.12-.16h0l1.12-.16h0l1.12-.16h0l1.12-.16h0l1.12-.16h0l1.12-.16h0l1.12-.16h0l1.12-.15h0l1.12-.15h0l1.12-.15h0l1.12-.15h0l1.12-.15h0l1.12-.15h0l1.12-.15h0l1.12-.15h0l1.12-.15h0l1.12-.15h0l1.12-.15h0l1.12-.15h0l1.12-.15h0l1.12-.15h0l1.12-.15h0l1.12-.15h0l1.12-.15h0l1.12-.15h0l1.12-.15h0l1.12-.15h0l1.12-.15h0l1.12-.15h0l1.12-.15h0l1.12-.15h0l1.12-.14h0l1.12-.14h0l1.12-.14h0l1.12-.14h0l1.12-.14h0l1.12-.14h0l1.12-.14h0l1.12-.14h0l1.12-.14h0l1.12-.14h0l1.12-.14h0l1.12-.14h0l1.12-.14h0l1.12-.14h0l1.12-.14h0l1.12-.14h0l1.12-.14h0l1.12-.14h0l1.12-.14h0l1.12-.14h0l1.12-.14h0l1.12-.14h0l1.12-.14h0l1.12-.14h0l1.12-.14h0l1.12-.14h0l1.12-.14h0l1.12-.14h0l1.12-.13h0l1.12-.13h0l1.12-.13h0l1.12-.13h0l1.12-.13h0l1.12-.13h0l1.12-.13h0l1.12-.13h0l1.12-.13h0l1.12-.13h0l1.12-.13h0l1.12-.13h0l1.12-.13h0l1.12-.13h0l1.12-.13h0l1.12-.13h0l1.12-.13h0l1.12-.13h0l1.12-.13h0l1.12-.13h0l1.12-.13h0l1.12-.13h0l1.12-.13h0l1.12-.13h0l1.12-.13h0l1.12-.13h0l1.12-.13h0l1.12-.13h0l1.12-.13h0l1.12-.13h0l1.12-.13h0l1.12-.13h0l1.12-.13h0l1.12-.13h0l1.12-.13h0l1.12-.12h0l1.12-.12h0l1.12-.12h0l1.12-.12h0l1.12-.12h0l1.12-.12h0l1.12-.12h0l1.12-.12h0l1.12-.12h0l1.12-.12h0l1.12-.12h0l1.12-.12h0l1.12-.12h0l1.12-.12h0l1.12-.12h0l1.12-.12h0l1.12-.12h0l1.12-.12h0l1.12-.12h0l1.12-.12h0l1.12-.12h0l1.12-.12h0l1.12-.12h0l1.12-.12h0l1.12-.12h0l1.12-.12h0l1.12-.12h0l1.12-.12h0l1.12-.12h0l1.12-.12h0l1.12-.12h0l1.12-.12h0l1.12-.12h0l1.12-.12h0l1.12-.12h0l1.12-.12h0l1.12-.12h0l1.12-.12h0l1.12-.12h0l1.12-.12h0l1.12-.12h0l1.12-.12h0l1.12-.11h0l1.12-.11h0l1.12-.11h0l1.12-.11h0l1.12-.11h0l1.12-.11h0l1.12-.11h0l1.12-.11h0l1.12-.11h0l1.12-.11h0l1.12-.11h0l1.12-.11h0l1.12-.11h0l1.12-.11h0l1.12-.11h0l1.12-.11h0l1.12-.11h0l1.12-.11h0l1.12-.11h0l1.12-.11h0l1.12-.11h0l1.12-.11h0l1.12-.11h0l1.12-.11h0l1.12-.11h0l1.12-.11h0l1.12-.11h0l1.12-.11h0l1.12-.11h0l1.12-.11h0l1.12-.11h0l1.12-.11h0l1.12-.11h0l1.12-.11h0l1.12-.11h0l1.12-.11h0l1.12-.11h0l1.12-.11h0l1.12-.11h0l1.12-.11h0l1.12-.11h0l1.12-.11h0l1.12-.11h0l1.12-.11h0l1.12-.11h0l1.12-.11h0l1.12-.11h0l1.12-.11h0l1.12-.11h0l1.12-.11h0l1.12-.11h0l1.12-.11h0l1.12-.1h0l1.12-.1h0l1.12-.1h0l1.12-.1h0l1.12-.1h0l1.12-.1h0l1.12-.1h0l1.12-.1h0l1.12-.1h0l1.12-.1h0l1.12-.1h0l1.12-.1h0l1.12-.1h0l1.12-.1h0l1.12-.1h0l1.12-.1h0l1.12-.1h0l1.12-.1h0l1.12-.1h0l1.12-.1h0l1.12-.1h0l1.12-.1h0l1.12-.1h0l1.12-.1h0l1.12-.1h0l1.12-.1h0l1.12-.1h0l1.12-.1h0l1.12-.1h0l1.12-.1h0l1.12-.1h0l1.12-.1h0l1.12-.1h0l1.12-.1h0l1.12-.1h0l1.12-.1h0l1.12-.1h0l1.12-.1h0l1.12-.1h0l1.12-.1h0l1.12-.1h0l1.12-.1h0l1.12-.1h0l1.12-.1h0l1.12-.1h0l1.12-.1h0l1.12-.1h0l1.12-.1h0l1.12-.1h0l1.12-.1h0l1.12-.1h0l1.12-.1h0l1.12-.1h0l1.12-.1h0l1.12-.1h0l1.12-.1h0l1.12-.1h0l1.12-.1h0l1.12-.1h0l1.12-.1h0l1.12-.1h0l1.12-.1h0l1.12-.1h0l1.12-.1h0l1.12-.1h0l1.12-.1h0l1.12-.1h0l1.12-.09h0l1.12-.09h0l1.12-.09h0l1.12-.09h0l1.12-.09h0l1.12-.09h0l1.12-.09h0l1.12-.09h0l1.12-.09h0l1.12-.09h0l1.12-.09h0l1.12-.09h0l1.12-.09h0l1.12-.09h0l1.12-.09h0l1.12-.09h0l1.12-.09h0l1.12-.09h0l1.12-.09h0l1.12-.09h0l1.12-.09h0l1.12-.09h0l1.12-.09h0l1.12-.09h0l1.12-.09h0l1.12-.09h0l1.12-.09h0l1.12-.09h0l1.12-.09h0l1.12-.09h0l1.12-.09h0l1.12-.09h0l1.12-.09h0l1.12-.09h0l1.12-.09h0l1.12-.09h0l1.12-.09h0l1.12-.09h0l1.12-.09h0l1.12-.09h0l1.12-.09h0l1.12-.09h0l1.12-.09h0l1.12-.09h0l1.12-.09h0l1.12-.09h0l1.12-.09h0l1.12-.09h0l1.12-.09h0l1.12-.09h0l1.12-.09h0l1.12-.09h0l1.12-.09h0l1.12-.09h0l1.12-.09h0l1.12-.09h0l1.12-.09h0l1.12-.09h0l1.12-.09h0l1.12-.09h0l1.12-.09h0l1.12-.09h0l1.12-.09h0l1.12-.09h0l1.12-.09h0l1.12-.09h0l1.12-.09h0l1.12-.09h0l1.12-.09h0l1.12-.09h0l1.12-.09h0l1.12-.09h0l1.12-.09h0l1.12-.09h0l1.12-.09h0l1.12-.09h0l1.12-.09h0l1.12-.09h0l1.12-.09h0l1.12-.09h0l1.12-.09h0l1.12-.09h0l1.12-.09h0l1.12-.09h0l1.12-.09h0l1.12-.09h0l1.12-.08h0l1.12-.08h0l1.12-.08h0l1.12-.08h0l1.12-.08h0l1.12-.08h0l1.12-.08h0l1.12-.08h0l1.12-.08h0l1.12-.08h0l1.12-.08h0l1.12-.08h0l1.12-.08h0l1.12-.08h0l1.12-.08h0l1.12-.08h0l1.12-.08h0l1.12-.08h0l1.12-.08h0l1.12-.08h0l1.12-.08h0l1.12-.08h0l1.12-.08h0l1.12-.08h0l1.12-.08h0l1.12-.08h0l1.12-.08h0l1.12-.08h0l1.12-.08h0l1.12-.08h0l1.12-.08h0l1.12-.08h0l1.12-.08h0l1.12-.08h0l1.12-.08h0l1.12-.08h0l1.12-.08h0l1.12-.08h0l1.12-.08h0l1.12-.08h0l1.12-.08h0l1.12-.08h0l1.12-.08h0l1.12-.08h0l1.12-.08h0l1.12-.08h0l1.12-.08h0l1.12-.08h0l1.12-.08h0l1.12-.08h0l1.12-.08h0l1.12-.08h0l1.12-.08h0l1.12-.08h0l1.12-.08h0l1.12-.08h0l1.12-.08h0l1.12-.08h0l1.12-.08h0l1.12-.08h0l1.12-.08h0l1.12-.08h0l1.12-.08h0l1.12-.08h0l1.12-.08h0l1.12-.08h0l1.12-.08"/>
        </g>
      </g>
    </g>
  </g>
  <g id="uuid-8f42476e-9894-4e22-97f7-9059d5f4b01d" data-name="Marco">
    <path class="uuid-5826424b-caea-4c44-89d6-a72733574064" d="m-2-2V1022h1249V-2H-2Zm1232,987c0,11.05-8.95,20-20,20H35c-11.05,0-20-8.95-20-20V35c0-11.05,8.95-20,20-20h1175c11.05,0,20,8.95,20,20v950Z"/>
  </g>
</svg>