<?xml version="1.0" encoding="UTF-8"?>
<svg xmlns="http://www.w3.org/2000/svg" xmlns:xlink="http://www.w3.org/1999/xlink" viewBox="0 0 1020 806">
  <defs>
    <style>
      .uuid-96c8cd7e-8aed-43a5-9418-5ef930231587 {
        stroke: #404040;
        stroke-miterlimit: 10;
      }

      .uuid-96c8cd7e-8aed-43a5-9418-5ef930231587, .uuid-17f0d95e-ad82-4832-830b-c6ec11e406d0, .uuid-e811bbb5-9658-4015-9525-e0fb6f93ebcc, .uuid-0b29910d-ead5-43e8-8643-adb9711a7d52, .uuid-97f20100-575d-42ee-a9c9-e80717284945, .uuid-5da6248e-df42-4383-97ef-5ddaacbd7e67, .uuid-5e6508f3-7197-4fc9-8ccc-2ec92e37834b, .uuid-867301b2-2da0-40ff-b805-9dfffc385217, .uuid-7b7bfaeb-0bc9-40ea-a166-ef5acc275c6e, .uuid-e3b88e3a-5a64-4419-bdee-12c60640d3f6, .uuid-d686ff94-669f-4828-9930-908471e9b399, .uuid-ab6caf4e-1ef0-4b0c-86fc-af4e87eca9cc, .uuid-3276eef4-17f5-4f03-9882-85b04b41e081 {
        fill: none;
      }

      .uuid-d77c1af2-4b35-4f37-a312-d9be4509284b {
        fill: #fff;
      }

      .uuid-17f0d95e-ad82-4832-830b-c6ec11e406d0 {
        clip-path: url(#uuid-62543029-5974-4942-8967-eec0780eec28);
      }

      .uuid-5bb40bc8-0cf8-44e9-ad12-3e3ffd35a358 {
        fill: #404040;
      }

      .uuid-5bb40bc8-0cf8-44e9-ad12-3e3ffd35a358, .uuid-97f20100-575d-42ee-a9c9-e80717284945, .uuid-867301b2-2da0-40ff-b805-9dfffc385217 {
        font-family: HelveticaNeue-UltraLight, 'Helvetica Neue UltraLight';
        font-weight: 100;
        isolation: isolate;
      }

      .uuid-5bb40bc8-0cf8-44e9-ad12-3e3ffd35a358, .uuid-867301b2-2da0-40ff-b805-9dfffc385217 {
        font-size: 17.88px;
      }

      .uuid-e811bbb5-9658-4015-9525-e0fb6f93ebcc {
        clip-path: url(#uuid-e9e1b305-68c2-4d46-9bcc-ee0221c1c57b);
      }

      .uuid-0b29910d-ead5-43e8-8643-adb9711a7d52 {
        clip-path: url(#uuid-f3d6d90b-ec36-403e-9f02-26a3264e3947);
      }

      .uuid-97f20100-575d-42ee-a9c9-e80717284945 {
        font-size: 21.46px;
      }

      .uuid-97f20100-575d-42ee-a9c9-e80717284945, .uuid-867301b2-2da0-40ff-b805-9dfffc385217 {
        stroke: #fff;
        stroke-linejoin: bevel;
        stroke-width: 3px;
      }

      .uuid-5da6248e-df42-4383-97ef-5ddaacbd7e67 {
        clip-path: url(#uuid-85f2b313-aa07-466f-975f-1a0d652951bc);
      }

      .uuid-5e6508f3-7197-4fc9-8ccc-2ec92e37834b {
        clip-path: url(#uuid-bfcc7c45-ebd7-4f14-a280-ecb14355fa7e);
      }

      .uuid-61e8a7c4-096c-45cb-8862-206519c84ed5 {
        fill: #00699b;
      }

      .uuid-7b7bfaeb-0bc9-40ea-a166-ef5acc275c6e {
        stroke: rgba(121, 184, 59, .7);
      }

      .uuid-7b7bfaeb-0bc9-40ea-a166-ef5acc275c6e, .uuid-d686ff94-669f-4828-9930-908471e9b399 {
        stroke-linecap: round;
        stroke-linejoin: round;
        stroke-width: 5px;
      }

      .uuid-d686ff94-669f-4828-9930-908471e9b399 {
        stroke: rgba(153, 102, 204, .7);
      }

      .uuid-ab6caf4e-1ef0-4b0c-86fc-af4e87eca9cc {
        clip-path: url(#uuid-67b4fbdf-bbce-4e67-88c5-41b87353dd1b);
      }

      .uuid-3276eef4-17f5-4f03-9882-85b04b41e081 {
        clip-path: url(#uuid-cd6d92a8-a403-473d-abe0-286a3384fbd8);
      }
    </style>
    <clipPath id="uuid-f3d6d90b-ec36-403e-9f02-26a3264e3947">
      <rect class="uuid-e3b88e3a-5a64-4419-bdee-12c60640d3f6" y="-1333.57" width="1020" height="806"/>
    </clipPath>
    <clipPath id="uuid-cd6d92a8-a403-473d-abe0-286a3384fbd8">
      <rect class="uuid-e3b88e3a-5a64-4419-bdee-12c60640d3f6" x="-402.16" y="-1360.65" width="1824.31" height="1441.57"/>
    </clipPath>
    <clipPath id="uuid-62543029-5974-4942-8967-eec0780eec28">
      <rect class="uuid-e3b88e3a-5a64-4419-bdee-12c60640d3f6" x="1540.17" y="-1333.57" width="1020" height="806"/>
    </clipPath>
    <clipPath id="uuid-bfcc7c45-ebd7-4f14-a280-ecb14355fa7e">
      <rect class="uuid-e3b88e3a-5a64-4419-bdee-12c60640d3f6" width="1020" height="806"/>
    </clipPath>
    <clipPath id="uuid-85f2b313-aa07-466f-975f-1a0d652951bc">
      <rect class="uuid-e3b88e3a-5a64-4419-bdee-12c60640d3f6" x="-513.61" y="-197.39" width="1519.61" height="1200.79"/>
    </clipPath>
    <clipPath id="uuid-67b4fbdf-bbce-4e67-88c5-41b87353dd1b">
      <rect class="uuid-e3b88e3a-5a64-4419-bdee-12c60640d3f6" x="1540.17" width="1020" height="806"/>
    </clipPath>
    <clipPath id="uuid-e9e1b305-68c2-4d46-9bcc-ee0221c1c57b">
      <rect class="uuid-e3b88e3a-5a64-4419-bdee-12c60640d3f6" x="1386.17" y="-147.52" width="1328" height="975.17"/>
    </clipPath>
  </defs>
  <g id="uuid-e4958290-e498-4078-b587-45bf11792b27" data-name="01">
    <g class="uuid-0b29910d-ead5-43e8-8643-adb9711a7d52">
      <g class="uuid-3276eef4-17f5-4f03-9882-85b04b41e081">
        <g>
          <rect class="uuid-d77c1af2-4b35-4f37-a312-d9be4509284b" x="-402.16" y="-1360.65" width="1824.31" height="1441.57"/>
          <path class="uuid-96c8cd7e-8aed-43a5-9418-5ef930231587" d="m509.11-1356.18V81.81"/>
          <path class="uuid-96c8cd7e-8aed-43a5-9418-5ef930231587" d="m503.74,76.44h5.37"/>
          <text class="uuid-97f20100-575d-42ee-a9c9-e80717284945" transform="translate(472.44 -4.94)"><tspan x="0" y="0">–7</tspan></text>
        </g>
      </g>
    </g>
  </g>
  <g id="uuid-2eae602c-ddac-42c8-bc21-6193b6c8c4e9" data-name="02">
    <g class="uuid-17f0d95e-ad82-4832-830b-c6ec11e406d0">
      <rect class="uuid-d77c1af2-4b35-4f37-a312-d9be4509284b" x="872.31" y="-1839.99" width="2355.73" height="1844.67"/>
    </g>
  </g>
  <g id="uuid-d3680903-4401-4d4b-8fb3-5105e305ed46" data-name="04">
    <g class="uuid-5e6508f3-7197-4fc9-8ccc-2ec92e37834b">
      <g class="uuid-5da6248e-df42-4383-97ef-5ddaacbd7e67">
        <g>
          <rect class="uuid-d77c1af2-4b35-4f37-a312-d9be4509284b" x="-513.61" y="-197.39" width="1519.61" height="1200.79"/>
          <path class="uuid-96c8cd7e-8aed-43a5-9418-5ef930231587" d="m223.1-193.67V1004.14"/>
          <path class="uuid-96c8cd7e-8aed-43a5-9418-5ef930231587" d="m-512.87,433.54H1003.77"/>
          <path class="uuid-96c8cd7e-8aed-43a5-9418-5ef930231587" d="m1005.26,433.54l-5.96-5.96"/>
          <path class="uuid-96c8cd7e-8aed-43a5-9418-5ef930231587" d="m1005.26,433.54l-5.96,5.96"/>
          <text class="uuid-5bb40bc8-0cf8-44e9-ad12-3e3ffd35a358" transform="translate(42.09 456.63)"><tspan x="0" y="0">–2</tspan></text>
          <text class="uuid-867301b2-2da0-40ff-b805-9dfffc385217" transform="translate(42.09 456.63)"><tspan x="0" y="0">–2</tspan></text>
          <text class="uuid-5bb40bc8-0cf8-44e9-ad12-3e3ffd35a358" transform="translate(42.09 456.63)"><tspan x="0" y="0">–2</tspan></text>
          <path class="uuid-96c8cd7e-8aed-43a5-9418-5ef930231587" d="m50.28,433.54v4.47"/>
          <text class="uuid-5bb40bc8-0cf8-44e9-ad12-3e3ffd35a358" transform="translate(128.5 456.63)"><tspan x="0" y="0">–1</tspan></text>
          <text class="uuid-867301b2-2da0-40ff-b805-9dfffc385217" transform="translate(128.5 456.63)"><tspan x="0" y="0">–1</tspan></text>
          <text class="uuid-5bb40bc8-0cf8-44e9-ad12-3e3ffd35a358" transform="translate(128.5 456.63)"><tspan x="0" y="0">–1</tspan></text>
          <path class="uuid-96c8cd7e-8aed-43a5-9418-5ef930231587" d="m136.69,433.54v4.47"/>
          <path class="uuid-96c8cd7e-8aed-43a5-9418-5ef930231587" d="m223.1,433.54v4.47"/>
          <text class="uuid-5bb40bc8-0cf8-44e9-ad12-3e3ffd35a358" transform="translate(304.3 456.63)"><tspan x="0" y="0">1</tspan></text>
          <text class="uuid-867301b2-2da0-40ff-b805-9dfffc385217" transform="translate(304.3 456.63)"><tspan x="0" y="0">1</tspan></text>
          <text class="uuid-5bb40bc8-0cf8-44e9-ad12-3e3ffd35a358" transform="translate(304.3 456.63)"><tspan x="0" y="0">1</tspan></text>
          <path class="uuid-96c8cd7e-8aed-43a5-9418-5ef930231587" d="m308.02,433.54v4.47"/>
          <text class="uuid-5bb40bc8-0cf8-44e9-ad12-3e3ffd35a358" transform="translate(390.71 456.63)"><tspan x="0" y="0">2</tspan></text>
          <text class="uuid-867301b2-2da0-40ff-b805-9dfffc385217" transform="translate(390.71 456.63)"><tspan x="0" y="0">2</tspan></text>
          <text class="uuid-5bb40bc8-0cf8-44e9-ad12-3e3ffd35a358" transform="translate(390.71 456.63)"><tspan x="0" y="0">2</tspan></text>
          <path class="uuid-96c8cd7e-8aed-43a5-9418-5ef930231587" d="m394.43,433.54v4.47"/>
          <text class="uuid-5bb40bc8-0cf8-44e9-ad12-3e3ffd35a358" transform="translate(477.12 456.63)"><tspan x="0" y="0">3</tspan></text>
          <text class="uuid-867301b2-2da0-40ff-b805-9dfffc385217" transform="translate(477.12 456.63)"><tspan x="0" y="0">3</tspan></text>
          <text class="uuid-5bb40bc8-0cf8-44e9-ad12-3e3ffd35a358" transform="translate(477.12 456.63)"><tspan x="0" y="0">3</tspan></text>
          <path class="uuid-96c8cd7e-8aed-43a5-9418-5ef930231587" d="m480.84,433.54v4.47"/>
          <text class="uuid-5bb40bc8-0cf8-44e9-ad12-3e3ffd35a358" transform="translate(563.52 456.63)"><tspan x="0" y="0">4</tspan></text>
          <text class="uuid-867301b2-2da0-40ff-b805-9dfffc385217" transform="translate(563.52 456.63)"><tspan x="0" y="0">4</tspan></text>
          <text class="uuid-5bb40bc8-0cf8-44e9-ad12-3e3ffd35a358" transform="translate(563.52 456.63)"><tspan x="0" y="0">4</tspan></text>
          <path class="uuid-96c8cd7e-8aed-43a5-9418-5ef930231587" d="m567.25,433.54v4.47"/>
          <text class="uuid-5bb40bc8-0cf8-44e9-ad12-3e3ffd35a358" transform="translate(649.93 456.63)"><tspan x="0" y="0">5</tspan></text>
          <text class="uuid-867301b2-2da0-40ff-b805-9dfffc385217" transform="translate(649.93 456.63)"><tspan x="0" y="0">5</tspan></text>
          <text class="uuid-5bb40bc8-0cf8-44e9-ad12-3e3ffd35a358" transform="translate(649.93 456.63)"><tspan x="0" y="0">5</tspan></text>
          <path class="uuid-96c8cd7e-8aed-43a5-9418-5ef930231587" d="m653.66,433.54v4.47"/>
          <text class="uuid-5bb40bc8-0cf8-44e9-ad12-3e3ffd35a358" transform="translate(736.34 456.63)"><tspan x="0" y="0">6</tspan></text>
          <text class="uuid-867301b2-2da0-40ff-b805-9dfffc385217" transform="translate(736.34 456.63)"><tspan x="0" y="0">6</tspan></text>
          <text class="uuid-5bb40bc8-0cf8-44e9-ad12-3e3ffd35a358" transform="translate(736.34 456.63)"><tspan x="0" y="0">6</tspan></text>
          <path class="uuid-96c8cd7e-8aed-43a5-9418-5ef930231587" d="m740.07,433.54v4.47"/>
          <text class="uuid-5bb40bc8-0cf8-44e9-ad12-3e3ffd35a358" transform="translate(821.26 456.63)"><tspan x="0" y="0">7</tspan></text>
          <text class="uuid-867301b2-2da0-40ff-b805-9dfffc385217" transform="translate(821.26 456.63)"><tspan x="0" y="0">7</tspan></text>
          <text class="uuid-5bb40bc8-0cf8-44e9-ad12-3e3ffd35a358" transform="translate(821.26 456.63)"><tspan x="0" y="0">7</tspan></text>
          <path class="uuid-96c8cd7e-8aed-43a5-9418-5ef930231587" d="m824.99,433.54v4.47"/>
          <text class="uuid-5bb40bc8-0cf8-44e9-ad12-3e3ffd35a358" transform="translate(907.67 456.63)"><tspan x="0" y="0">8</tspan></text>
          <text class="uuid-867301b2-2da0-40ff-b805-9dfffc385217" transform="translate(907.67 456.63)"><tspan x="0" y="0">8</tspan></text>
          <text class="uuid-5bb40bc8-0cf8-44e9-ad12-3e3ffd35a358" transform="translate(907.67 456.63)"><tspan x="0" y="0">8</tspan></text>
          <path class="uuid-96c8cd7e-8aed-43a5-9418-5ef930231587" d="m911.4,433.54v4.47"/>
          <path class="uuid-96c8cd7e-8aed-43a5-9418-5ef930231587" d="m218.63,779.18h4.47"/>
          <path class="uuid-96c8cd7e-8aed-43a5-9418-5ef930231587" d="m218.63,692.77h4.47"/>
          <path class="uuid-96c8cd7e-8aed-43a5-9418-5ef930231587" d="m218.63,606.36h4.47"/>
          <path class="uuid-96c8cd7e-8aed-43a5-9418-5ef930231587" d="m218.63,519.95h4.47"/>
          <path class="uuid-96c8cd7e-8aed-43a5-9418-5ef930231587" d="m218.63,348.62h4.47"/>
          <path class="uuid-96c8cd7e-8aed-43a5-9418-5ef930231587" d="m218.63,262.21h4.47"/>
          <path class="uuid-96c8cd7e-8aed-43a5-9418-5ef930231587" d="m218.63,175.8h4.47"/>
          <path class="uuid-96c8cd7e-8aed-43a5-9418-5ef930231587" d="m218.63,89.39h4.47"/>
          <path class="uuid-96c8cd7e-8aed-43a5-9418-5ef930231587" d="m218.63,2.98h4.47"/>
          <text class="uuid-5bb40bc8-0cf8-44e9-ad12-3e3ffd35a358" transform="translate(192.56 785.88)"><tspan x="0" y="0">–4</tspan></text>
          <text class="uuid-867301b2-2da0-40ff-b805-9dfffc385217" transform="translate(192.56 785.88)"><tspan x="0" y="0">–4</tspan></text>
          <text class="uuid-5bb40bc8-0cf8-44e9-ad12-3e3ffd35a358" transform="translate(192.56 785.88)"><tspan x="0" y="0">–4</tspan></text>
          <text class="uuid-5bb40bc8-0cf8-44e9-ad12-3e3ffd35a358" transform="translate(192.56 699.47)"><tspan x="0" y="0">–3</tspan></text>
          <text class="uuid-867301b2-2da0-40ff-b805-9dfffc385217" transform="translate(192.56 699.47)"><tspan x="0" y="0">–3</tspan></text>
          <text class="uuid-5bb40bc8-0cf8-44e9-ad12-3e3ffd35a358" transform="translate(192.56 699.47)"><tspan x="0" y="0">–3</tspan></text>
          <text class="uuid-5bb40bc8-0cf8-44e9-ad12-3e3ffd35a358" transform="translate(192.56 613.06)"><tspan x="0" y="0">–2</tspan></text>
          <text class="uuid-867301b2-2da0-40ff-b805-9dfffc385217" transform="translate(192.56 613.06)"><tspan x="0" y="0">–2</tspan></text>
          <text class="uuid-5bb40bc8-0cf8-44e9-ad12-3e3ffd35a358" transform="translate(192.56 613.06)"><tspan x="0" y="0">–2</tspan></text>
          <text class="uuid-5bb40bc8-0cf8-44e9-ad12-3e3ffd35a358" transform="translate(192.56 526.65)"><tspan x="0" y="0">–1</tspan></text>
          <text class="uuid-867301b2-2da0-40ff-b805-9dfffc385217" transform="translate(192.56 526.65)"><tspan x="0" y="0">–1</tspan></text>
          <text class="uuid-5bb40bc8-0cf8-44e9-ad12-3e3ffd35a358" transform="translate(192.56 526.65)"><tspan x="0" y="0">–1</tspan></text>
          <text class="uuid-5bb40bc8-0cf8-44e9-ad12-3e3ffd35a358" transform="translate(201.5 355.33)"><tspan x="0" y="0">1</tspan></text>
          <text class="uuid-867301b2-2da0-40ff-b805-9dfffc385217" transform="translate(201.5 355.33)"><tspan x="0" y="0">1</tspan></text>
          <text class="uuid-5bb40bc8-0cf8-44e9-ad12-3e3ffd35a358" transform="translate(201.5 355.33)"><tspan x="0" y="0">1</tspan></text>
          <text class="uuid-5bb40bc8-0cf8-44e9-ad12-3e3ffd35a358" transform="translate(201.5 268.92)"><tspan x="0" y="0">2</tspan></text>
          <text class="uuid-867301b2-2da0-40ff-b805-9dfffc385217" transform="translate(201.5 268.92)"><tspan x="0" y="0">2</tspan></text>
          <text class="uuid-5bb40bc8-0cf8-44e9-ad12-3e3ffd35a358" transform="translate(201.5 268.92)"><tspan x="0" y="0">2</tspan></text>
          <text class="uuid-5bb40bc8-0cf8-44e9-ad12-3e3ffd35a358" transform="translate(201.5 182.51)"><tspan x="0" y="0">3</tspan></text>
          <text class="uuid-867301b2-2da0-40ff-b805-9dfffc385217" transform="translate(201.5 182.51)"><tspan x="0" y="0">3</tspan></text>
          <text class="uuid-5bb40bc8-0cf8-44e9-ad12-3e3ffd35a358" transform="translate(201.5 182.51)"><tspan x="0" y="0">3</tspan></text>
          <text class="uuid-5bb40bc8-0cf8-44e9-ad12-3e3ffd35a358" transform="translate(201.5 96.1)"><tspan x="0" y="0">4</tspan></text>
          <text class="uuid-867301b2-2da0-40ff-b805-9dfffc385217" transform="translate(201.5 96.1)"><tspan x="0" y="0">4</tspan></text>
          <text class="uuid-5bb40bc8-0cf8-44e9-ad12-3e3ffd35a358" transform="translate(201.5 96.1)"><tspan x="0" y="0">4</tspan></text>
          <text class="uuid-5bb40bc8-0cf8-44e9-ad12-3e3ffd35a358" transform="translate(201.5 9.69)"><tspan x="0" y="0">5</tspan></text>
          <text class="uuid-867301b2-2da0-40ff-b805-9dfffc385217" transform="translate(201.5 9.69)"><tspan x="0" y="0">5</tspan></text>
          <text class="uuid-5bb40bc8-0cf8-44e9-ad12-3e3ffd35a358" transform="translate(201.5 9.69)"><tspan x="0" y="0">5</tspan></text>
          <text class="uuid-5bb40bc8-0cf8-44e9-ad12-3e3ffd35a358" transform="translate(201.5 456.63)"><tspan x="0" y="0">0</tspan></text>
          <text class="uuid-867301b2-2da0-40ff-b805-9dfffc385217" transform="translate(201.5 456.63)"><tspan x="0" y="0">0</tspan></text>
          <text class="uuid-5bb40bc8-0cf8-44e9-ad12-3e3ffd35a358" transform="translate(201.5 456.63)"><tspan x="0" y="0">0</tspan></text>
          <path class="uuid-d686ff94-669f-4828-9930-908471e9b399" d="m1600.82-255.09c-1837.77,459.44-1837.77,918.89,0,1378.33"/>
        </g>
      </g>
    </g>
  </g>
  <g id="uuid-f98fa961-ec6c-49f8-990b-7e5a7df34d53" data-name="05">
    <g class="uuid-ab6caf4e-1ef0-4b0c-86fc-af4e87eca9cc">
      <g class="uuid-e811bbb5-9658-4015-9525-e0fb6f93ebcc">
        <path class="uuid-7b7bfaeb-0bc9-40ea-a166-ef5acc275c6e" d="m1005.21,1553.74l368.05-414.37,177.13-200.03,104.03-117.98,68.33-77.94,48.24-55.42,35.8-41.5,27.57-32.3,21.84-25.91,17.68-21.29,14.57-17.85,12.17-15.22,10.29-13.16,8.78-11.53,7.55-10.22,6.53-9.14,5.68-8.26,4.95-7.52,4.32-6.91,3.78-6.39,3.31-5.95,2.88-5.58,2.5-5.27,2.16-5,1.85-4.78,1.56-4.59,1.29-4.44,1.03-4.32.79-4.22.56-4.15.33-4.11.11-4.08-.11-4.08-.33-4.11-.56-4.15-.79-4.22-1.03-4.32-1.29-4.44-1.56-4.59-1.85-4.78-2.16-5-2.5-5.27-2.88-5.58-3.31-5.95-3.78-6.39-4.32-6.91-4.95-7.52-5.68-8.26-6.53-9.14-7.55-10.22-8.78-11.53-10.29-13.16-12.17-15.22-14.57-17.85-17.68-21.29-21.84-25.91-27.57-32.3-35.8-41.5-48.24-55.42-68.33-77.94-104.03-117.98-177.13-200.03-368.05-414.37"/>
      </g>
    </g>
  </g>
  <g id="uuid-f0c67941-da6c-463f-abe3-3428264ebe2d" data-name="Marco">
    <path class="uuid-61e8a7c4-096c-45cb-8862-206519c84ed5" d="m-3-2.72v811.43H1023V-2.72H-3Zm1009,774.43c0,11.05-8.95,20-20,20H34c-11.05,0-20-8.95-20-20V34.28c0-11.05,8.95-20,20-20h952c11.05,0,20,8.95,20,20v737.43Z"/>
  </g>
</svg>