<?xml version="1.0" encoding="UTF-8"?>
<svg xmlns="http://www.w3.org/2000/svg" xmlns:xlink="http://www.w3.org/1999/xlink" viewBox="0 0 1245 1020">
  <defs>
    <style>
      .uuid-c10fc6e8-2bbe-4fa0-abab-ef8c3eb27d3d {
        stroke: silver;
      }

      .uuid-c10fc6e8-2bbe-4fa0-abab-ef8c3eb27d3d, .uuid-95b76854-0dab-44bf-966c-988c7ca6edaa, .uuid-dfbd1478-fc04-488f-9f74-513195d185f3, .uuid-48e96f93-5000-4e81-a618-10e8e94a73e4, .uuid-1207ca16-99f3-4f8d-9232-c24e1b76f23b, .uuid-c1bbc0ff-ba2c-48d9-93ea-a9c790cbc90d, .uuid-ea0d74a3-4638-4ab1-96e0-b095b8e4ca64, .uuid-fb30c298-6bd6-43cf-8c66-7f40abace15a, .uuid-e6c5742c-5d53-42eb-ba10-4e89ebf9c2f7 {
        fill: none;
      }

      .uuid-c10fc6e8-2bbe-4fa0-abab-ef8c3eb27d3d, .uuid-48e96f93-5000-4e81-a618-10e8e94a73e4, .uuid-ea0d74a3-4638-4ab1-96e0-b095b8e4ca64 {
        stroke-linecap: round;
        stroke-linejoin: round;
      }

      .uuid-5d6c0d79-5303-4b34-b9b8-f998701cc990 {
        fill: #fff;
      }

      .uuid-95b76854-0dab-44bf-966c-988c7ca6edaa {
        stroke: #fff;
        stroke-linejoin: bevel;
      }

      .uuid-95b76854-0dab-44bf-966c-988c7ca6edaa, .uuid-ea0d74a3-4638-4ab1-96e0-b095b8e4ca64 {
        stroke-width: 3px;
      }

      .uuid-dfbd1478-fc04-488f-9f74-513195d185f3 {
        clip-path: url(#uuid-08d9d75e-7e21-42cb-acde-f546138edce1);
      }

      .uuid-48e96f93-5000-4e81-a618-10e8e94a73e4 {
        stroke: rgba(192, 192, 192, .24);
      }

      .uuid-1207ca16-99f3-4f8d-9232-c24e1b76f23b {
        clip-path: url(#uuid-d8981593-c630-4048-be61-2c816ab08fdb);
      }

      .uuid-c1bbc0ff-ba2c-48d9-93ea-a9c790cbc90d {
        isolation: isolate;
      }

      .uuid-9876a348-cb2e-49e0-88de-f68beff995d6 {
        fill: #00699b;
      }

      .uuid-ea0d74a3-4638-4ab1-96e0-b095b8e4ca64 {
        stroke: rgba(204, 0, 0, .7);
      }

      .uuid-e6c5742c-5d53-42eb-ba10-4e89ebf9c2f7 {
        stroke: #252525;
        stroke-miterlimit: 10;
      }

      .uuid-e3741aed-adf6-4cf1-b490-dfbaf8971e1a {
        fill: #252525;
      }
    </style>
    <clipPath id="uuid-08d9d75e-7e21-42cb-acde-f546138edce1">
      <rect class="uuid-fb30c298-6bd6-43cf-8c66-7f40abace15a" x="-1" width="1247" height="1020"/>
    </clipPath>
    <clipPath id="uuid-d8981593-c630-4048-be61-2c816ab08fdb">
      <rect class="uuid-fb30c298-6bd6-43cf-8c66-7f40abace15a" x="-43.1" y="-2" width="1331.2" height="1024"/>
    </clipPath>
  </defs>
  <g id="uuid-d87cb50d-f9e8-4a7f-a548-9bea4287bea2" data-name="Grafica">
    <g class="uuid-dfbd1478-fc04-488f-9f74-513195d185f3">
      <g class="uuid-1207ca16-99f3-4f8d-9232-c24e1b76f23b">
        <g>
          <rect class="uuid-5d6c0d79-5303-4b34-b9b8-f998701cc990" x="-43.1" y="-2" width="1331.2" height="1024"/>
          <path class="uuid-c10fc6e8-2bbe-4fa0-abab-ef8c3eb27d3d" d="m-20.4-1.47v1024M-20.4-1.47v1024M70.38-1.47v1024M161.17-1.47v1024M251.96-1.47v1024M342.75-1.47v1024M433.54-1.47v1024M524.32-1.47v1024M615.11-1.47v1024M705.9-1.47v1024M887.47-1.47v1024M978.26-1.47v1024M1069.05-1.47v1024M1159.84-1.47v1024M1250.62-1.47v1024"/>
          <path class="uuid-48e96f93-5000-4e81-a618-10e8e94a73e4" d="m-38.35-1.47v1024M-2.46-1.47v1024M15.49-1.47v1024M33.44-1.47v1024M52.44-1.47v1024M88.33-1.47v1024M106.28-1.47v1024M124.22-1.47v1024M143.23-1.47v1024M179.12-1.47v1024M197.06-1.47v1024M215.01-1.47v1024M234.01-1.47v1024M269.91-1.47v1024M287.85-1.47v1024M305.8-1.47v1024M324.8-1.47v1024M360.69-1.47v1024M378.64-1.47v1024M396.59-1.47v1024M415.59-1.47v1024M451.48-1.47v1024M469.43-1.47v1024M487.37-1.47v1024M506.38-1.47v1024M542.27-1.47v1024M560.22-1.47v1024M578.16-1.47v1024M597.16-1.47v1024M633.06-1.47v1024M651-1.47v1024M670.01-1.47v1024M687.95-1.47v1024M723.84-1.47v1024M741.79-1.47v1024M760.79-1.47v1024M778.74-1.47v1024M814.63-1.47v1024M832.58-1.47v1024M851.58-1.47v1024M869.53-1.47v1024M905.42-1.47v1024M923.37-1.47v1024M942.37-1.47v1024M960.31-1.47v1024M996.21-1.47v1024M1014.15-1.47v1024M1033.16-1.47v1024M1051.1-1.47v1024M1086.99-1.47v1024M1104.94-1.47v1024M1123.94-1.47v1024M1141.89-1.47v1024M1177.78-1.47v1024M1195.73-1.47v1024M1214.73-1.47v1024M1232.68-1.47v1024M1268.57-1.47v1024M1286.52-1.47v1024"/>
          <path class="uuid-c10fc6e8-2bbe-4fa0-abab-ef8c3eb27d3d" d="m-42.57,65.04h1331.2m-1331.2,0h1331.2M-42.57,246.61h1331.2M-42.57,337.4h1331.2M-42.57,428.19h1331.2M-42.57,518.97h1331.2M-42.57,609.76h1331.2M-42.57,700.55h1331.2M-42.57,791.34h1331.2M-42.57,882.12h1331.2M-42.57,972.91h1331.2"/>
          <path class="uuid-48e96f93-5000-4e81-a618-10e8e94a73e4" d="m-42.57,10.14h1331.2M-42.57,10.14h1331.2M-42.57,29.14h1331.2M-42.57,47.09h1331.2M-42.57,82.98h1331.2M-42.57,100.93h1331.2M-42.57,119.93h1331.2M-42.57,137.88h1331.2M-42.57,173.77h1331.2M-42.57,191.72h1331.2M-42.57,210.72h1331.2M-42.57,228.66h1331.2M-42.57,264.56h1331.2M-42.57,282.5h1331.2M-42.57,301.51h1331.2M-42.57,319.45h1331.2M-42.57,355.34h1331.2M-42.57,373.29h1331.2M-42.57,392.29h1331.2M-42.57,410.24h1331.2M-42.57,446.13h1331.2M-42.57,464.08h1331.2M-42.57,483.08h1331.2M-42.57,501.03h1331.2M-42.57,536.92h1331.2m-1331.2,19h1331.2m-1331.2,17.95h1331.2m-1331.2,17.95h1331.2M-42.57,627.71h1331.2m-1331.2,19h1331.2m-1331.2,17.95h1331.2m-1331.2,17.95h1331.2M-42.57,718.49h1331.2m-1331.2,19h1331.2m-1331.2,17.95h1331.2m-1331.2,17.95h1331.2M-42.57,809.28h1331.2m-1331.2,19h1331.2m-1331.2,17.95h1331.2m-1331.2,17.95h1331.2M-42.57,900.07h1331.2m-1331.2,19h1331.2m-1331.2,17.95h1331.2m-1331.2,17.95h1331.2M-42.57,990.86h1331.2m-1331.2,19h1331.2"/>
          <path class="uuid-e6c5742c-5d53-42eb-ba10-4e89ebf9c2f7" d="m796.69.64v1021.89"/>
          <path class="uuid-e6c5742c-5d53-42eb-ba10-4e89ebf9c2f7" d="m796.69-.42l-4.22,4.22"/>
          <path class="uuid-e6c5742c-5d53-42eb-ba10-4e89ebf9c2f7" d="m796.69-.42l4.22,4.22"/>
          <path class="uuid-e6c5742c-5d53-42eb-ba10-4e89ebf9c2f7" d="m-42.57,155.82h1329.09"/>
          <g class="uuid-c1bbc0ff-ba2c-48d9-93ea-a9c790cbc90d">
            <path class="uuid-e3741aed-adf6-4cf1-b490-dfbaf8971e1a" d="m70.91,168.66v.25h-6.33v-.25h6.33Z"/>
            <path class="uuid-e3741aed-adf6-4cf1-b490-dfbaf8971e1a" d="m71.34,169.64l4.31-6.07h.32v6.12h1.56v.25h-1.56v2.24h-.25v-2.24h-4.37v-.3Zm4.35-5.71l-4.09,5.76h4.12v-5.76h-.03Z"/>
          </g>
          <g class="uuid-c1bbc0ff-ba2c-48d9-93ea-a9c790cbc90d">
            <path class="uuid-95b76854-0dab-44bf-966c-988c7ca6edaa" d="m70.91,168.66v.25h-6.33v-.25h6.33Z"/>
            <path class="uuid-95b76854-0dab-44bf-966c-988c7ca6edaa" d="m71.34,169.64l4.31-6.07h.32v6.12h1.56v.25h-1.56v2.24h-.25v-2.24h-4.37v-.3Zm4.35-5.71l-4.09,5.76h4.12v-5.76h-.03Z"/>
          </g>
          <g class="uuid-c1bbc0ff-ba2c-48d9-93ea-a9c790cbc90d">
            <path class="uuid-e3741aed-adf6-4cf1-b490-dfbaf8971e1a" d="m70.91,168.66v.25h-6.33v-.25h6.33Z"/>
            <path class="uuid-e3741aed-adf6-4cf1-b490-dfbaf8971e1a" d="m71.34,169.64l4.31-6.07h.32v6.12h1.56v.25h-1.56v2.24h-.25v-2.24h-4.37v-.3Zm4.35-5.71l-4.09,5.76h4.12v-5.76h-.03Z"/>
          </g>
          <g class="uuid-c1bbc0ff-ba2c-48d9-93ea-a9c790cbc90d">
            <path class="uuid-e3741aed-adf6-4cf1-b490-dfbaf8971e1a" d="m155.37,168.66v.25h-6.33v-.25h6.33Z"/>
            <path class="uuid-e3741aed-adf6-4cf1-b490-dfbaf8971e1a" d="m156.3,165.01c.13-.35.33-.64.59-.88s.57-.41.94-.53c.37-.12.77-.18,1.22-.18.35,0,.68.04,1,.11s.61.2.86.37c.25.17.46.39.61.66.15.27.23.6.23.98,0,.61-.18,1.08-.53,1.42s-.79.53-1.32.58v.03c.25.03.5.09.74.18s.46.24.65.42.34.41.46.68c.11.27.17.59.17.96,0,.41-.08.76-.23,1.08s-.37.58-.63.79-.57.38-.92.49c-.35.11-.72.16-1.12.16-.49,0-.93-.07-1.33-.2-.4-.13-.73-.33-1.01-.59-.28-.26-.49-.58-.63-.96s-.19-.81-.16-1.3h.25c-.03.46.01.86.14,1.21.13.35.32.64.57.88.25.24.57.42.94.54.37.12.78.18,1.23.18.35,0,.68-.05,1-.15.32-.1.6-.24.85-.44.24-.19.44-.43.59-.72.15-.28.22-.61.22-.98s-.06-.69-.18-.95-.3-.48-.52-.65-.49-.3-.79-.38c-.3-.08-.63-.13-.98-.15h-.62v-.25h.62c.28,0,.56-.03.83-.1.27-.06.52-.17.74-.32s.4-.34.53-.58c.13-.24.2-.54.2-.89,0-.35-.08-.64-.23-.87-.14-.24-.33-.43-.56-.58s-.49-.25-.77-.32-.58-.09-.89-.09c-.41,0-.79.05-1.12.16-.33.11-.62.27-.86.48s-.42.48-.54.8c-.12.32-.18.7-.17,1.13h-.25c0-.47.05-.88.19-1.23Z"/>
            <path class="uuid-e3741aed-adf6-4cf1-b490-dfbaf8971e1a" d="m164.04,172.19v-1.24h.25v1.24h-.25Z"/>
            <path class="uuid-e3741aed-adf6-4cf1-b490-dfbaf8971e1a" d="m167.01,167.51h.03c.25-.41.57-.7.98-.89.41-.19.87-.28,1.37-.28.45,0,.85.07,1.22.22.36.15.68.35.94.61s.46.58.61.94c.14.37.22.77.22,1.2,0,.46-.07.87-.22,1.24-.14.37-.35.69-.61.95s-.57.46-.94.6c-.36.14-.77.21-1.22.21s-.85-.07-1.22-.2-.7-.32-.96-.56c-.27-.25-.47-.55-.61-.91s-.21-.77-.19-1.24h.25c-.02.42.04.8.16,1.13.13.33.31.61.55.84s.53.4.88.52c.35.12.73.18,1.14.18s.8-.06,1.13-.2c.33-.13.62-.32.85-.56s.42-.53.54-.87c.13-.34.19-.72.19-1.13s-.07-.76-.2-1.1c-.13-.33-.31-.62-.55-.86s-.52-.43-.86-.56c-.34-.14-.71-.2-1.11-.2-.51,0-.98.11-1.41.34-.43.22-.76.55-1,.98h-.32l.92-4.35h4.42v.25h-4.22l-.79,3.69Z"/>
          </g>
          <g class="uuid-c1bbc0ff-ba2c-48d9-93ea-a9c790cbc90d">
            <path class="uuid-95b76854-0dab-44bf-966c-988c7ca6edaa" d="m155.37,168.66v.25h-6.33v-.25h6.33Z"/>
            <path class="uuid-95b76854-0dab-44bf-966c-988c7ca6edaa" d="m156.3,165.01c.13-.35.33-.64.59-.88s.57-.41.94-.53c.37-.12.77-.18,1.22-.18.35,0,.68.04,1,.11s.61.2.86.37c.25.17.46.39.61.66.15.27.23.6.23.98,0,.61-.18,1.08-.53,1.42s-.79.53-1.32.58v.03c.25.03.5.09.74.18s.46.24.65.42.34.41.46.68c.11.27.17.59.17.96,0,.41-.08.76-.23,1.08s-.37.58-.63.79-.57.38-.92.49c-.35.11-.72.16-1.12.16-.49,0-.93-.07-1.33-.2-.4-.13-.73-.33-1.01-.59-.28-.26-.49-.58-.63-.96s-.19-.81-.16-1.3h.25c-.03.46.01.86.14,1.21.13.35.32.64.57.88.25.24.57.42.94.54.37.12.78.18,1.23.18.35,0,.68-.05,1-.15.32-.1.6-.24.85-.44.24-.19.44-.43.59-.72.15-.28.22-.61.22-.98s-.06-.69-.18-.95-.3-.48-.52-.65-.49-.3-.79-.38c-.3-.08-.63-.13-.98-.15h-.62v-.25h.62c.28,0,.56-.03.83-.1.27-.06.52-.17.74-.32s.4-.34.53-.58c.13-.24.2-.54.2-.89,0-.35-.08-.64-.23-.87-.14-.24-.33-.43-.56-.58s-.49-.25-.77-.32-.58-.09-.89-.09c-.41,0-.79.05-1.12.16-.33.11-.62.27-.86.48s-.42.48-.54.8c-.12.32-.18.7-.17,1.13h-.25c0-.47.05-.88.19-1.23Z"/>
            <path class="uuid-95b76854-0dab-44bf-966c-988c7ca6edaa" d="m164.04,172.19v-1.24h.25v1.24h-.25Z"/>
            <path class="uuid-95b76854-0dab-44bf-966c-988c7ca6edaa" d="m167.01,167.51h.03c.25-.41.57-.7.98-.89.41-.19.87-.28,1.37-.28.45,0,.85.07,1.22.22.36.15.68.35.94.61s.46.58.61.94c.14.37.22.77.22,1.2,0,.46-.07.87-.22,1.24-.14.37-.35.69-.61.95s-.57.46-.94.6c-.36.14-.77.21-1.22.21s-.85-.07-1.22-.2-.7-.32-.96-.56c-.27-.25-.47-.55-.61-.91s-.21-.77-.19-1.24h.25c-.02.42.04.8.16,1.13.13.33.31.61.55.84s.53.4.88.52c.35.12.73.18,1.14.18s.8-.06,1.13-.2c.33-.13.62-.32.85-.56s.42-.53.54-.87c.13-.34.19-.72.19-1.13s-.07-.76-.2-1.1c-.13-.33-.31-.62-.55-.86s-.52-.43-.86-.56c-.34-.14-.71-.2-1.11-.2-.51,0-.98.11-1.41.34-.43.22-.76.55-1,.98h-.32l.92-4.35h4.42v.25h-4.22l-.79,3.69Z"/>
          </g>
          <g class="uuid-c1bbc0ff-ba2c-48d9-93ea-a9c790cbc90d">
            <path class="uuid-e3741aed-adf6-4cf1-b490-dfbaf8971e1a" d="m155.37,168.66v.25h-6.33v-.25h6.33Z"/>
            <path class="uuid-e3741aed-adf6-4cf1-b490-dfbaf8971e1a" d="m156.3,165.01c.13-.35.33-.64.59-.88s.57-.41.94-.53c.37-.12.77-.18,1.22-.18.35,0,.68.04,1,.11s.61.2.86.37c.25.17.46.39.61.66.15.27.23.6.23.98,0,.61-.18,1.08-.53,1.42s-.79.53-1.32.58v.03c.25.03.5.09.74.18s.46.24.65.42.34.41.46.68c.11.27.17.59.17.96,0,.41-.08.76-.23,1.08s-.37.58-.63.79-.57.38-.92.49c-.35.11-.72.16-1.12.16-.49,0-.93-.07-1.33-.2-.4-.13-.73-.33-1.01-.59-.28-.26-.49-.58-.63-.96s-.19-.81-.16-1.3h.25c-.03.46.01.86.14,1.21.13.35.32.64.57.88.25.24.57.42.94.54.37.12.78.18,1.23.18.35,0,.68-.05,1-.15.32-.1.6-.24.85-.44.24-.19.44-.43.59-.72.15-.28.22-.61.22-.98s-.06-.69-.18-.95-.3-.48-.52-.65-.49-.3-.79-.38c-.3-.08-.63-.13-.98-.15h-.62v-.25h.62c.28,0,.56-.03.83-.1.27-.06.52-.17.74-.32s.4-.34.53-.58c.13-.24.2-.54.2-.89,0-.35-.08-.64-.23-.87-.14-.24-.33-.43-.56-.58s-.49-.25-.77-.32-.58-.09-.89-.09c-.41,0-.79.05-1.12.16-.33.11-.62.27-.86.48s-.42.48-.54.8c-.12.32-.18.7-.17,1.13h-.25c0-.47.05-.88.19-1.23Z"/>
            <path class="uuid-e3741aed-adf6-4cf1-b490-dfbaf8971e1a" d="m164.04,172.19v-1.24h.25v1.24h-.25Z"/>
            <path class="uuid-e3741aed-adf6-4cf1-b490-dfbaf8971e1a" d="m167.01,167.51h.03c.25-.41.57-.7.98-.89.41-.19.87-.28,1.37-.28.45,0,.85.07,1.22.22.36.15.68.35.94.61s.46.58.61.94c.14.37.22.77.22,1.2,0,.46-.07.87-.22,1.24-.14.37-.35.69-.61.95s-.57.46-.94.6c-.36.14-.77.21-1.22.21s-.85-.07-1.22-.2-.7-.32-.96-.56c-.27-.25-.47-.55-.61-.91s-.21-.77-.19-1.24h.25c-.02.42.04.8.16,1.13.13.33.31.61.55.84s.53.4.88.52c.35.12.73.18,1.14.18s.8-.06,1.13-.2c.33-.13.62-.32.85-.56s.42-.53.54-.87c.13-.34.19-.72.19-1.13s-.07-.76-.2-1.1c-.13-.33-.31-.62-.55-.86s-.52-.43-.86-.56c-.34-.14-.71-.2-1.11-.2-.51,0-.98.11-1.41.34-.43.22-.76.55-1,.98h-.32l.92-4.35h4.42v.25h-4.22l-.79,3.69Z"/>
          </g>
          <g class="uuid-c1bbc0ff-ba2c-48d9-93ea-a9c790cbc90d">
            <path class="uuid-e3741aed-adf6-4cf1-b490-dfbaf8971e1a" d="m252.49,168.66v.25h-6.33v-.25h6.33Z"/>
            <path class="uuid-e3741aed-adf6-4cf1-b490-dfbaf8971e1a" d="m253.43,165.01c.13-.35.33-.64.59-.88s.57-.41.94-.53c.37-.12.77-.18,1.22-.18.35,0,.68.04,1,.11s.61.2.86.37c.25.17.46.39.61.66.15.27.23.6.23.98,0,.61-.18,1.08-.53,1.42s-.79.53-1.32.58v.03c.25.03.5.09.74.18s.46.24.65.42.34.41.46.68c.11.27.17.59.17.96,0,.41-.08.76-.23,1.08s-.37.58-.63.79-.57.38-.92.49c-.35.11-.72.16-1.12.16-.49,0-.93-.07-1.33-.2-.4-.13-.73-.33-1.01-.59-.28-.26-.49-.58-.63-.96s-.19-.81-.16-1.3h.25c-.03.46.01.86.14,1.21.13.35.32.64.57.88.25.24.57.42.94.54.37.12.78.18,1.23.18.35,0,.68-.05,1-.15.32-.1.6-.24.85-.44.24-.19.44-.43.59-.72.15-.28.22-.61.22-.98s-.06-.69-.18-.95-.3-.48-.52-.65-.49-.3-.79-.38c-.3-.08-.63-.13-.98-.15h-.62v-.25h.62c.28,0,.56-.03.83-.1.27-.06.52-.17.74-.32s.4-.34.53-.58c.13-.24.2-.54.2-.89,0-.35-.08-.64-.23-.87-.14-.24-.33-.43-.56-.58s-.49-.25-.77-.32-.58-.09-.89-.09c-.41,0-.79.05-1.12.16-.33.11-.62.27-.86.48s-.42.48-.54.8c-.12.32-.18.7-.17,1.13h-.25c0-.47.05-.88.19-1.23Z"/>
          </g>
          <g class="uuid-c1bbc0ff-ba2c-48d9-93ea-a9c790cbc90d">
            <path class="uuid-95b76854-0dab-44bf-966c-988c7ca6edaa" d="m252.49,168.66v.25h-6.33v-.25h6.33Z"/>
            <path class="uuid-95b76854-0dab-44bf-966c-988c7ca6edaa" d="m253.43,165.01c.13-.35.33-.64.59-.88s.57-.41.94-.53c.37-.12.77-.18,1.22-.18.35,0,.68.04,1,.11s.61.2.86.37c.25.17.46.39.61.66.15.27.23.6.23.98,0,.61-.18,1.08-.53,1.42s-.79.53-1.32.58v.03c.25.03.5.09.74.18s.46.24.65.42.34.41.46.68c.11.27.17.59.17.96,0,.41-.08.76-.23,1.08s-.37.58-.63.79-.57.38-.92.49c-.35.11-.72.16-1.12.16-.49,0-.93-.07-1.33-.2-.4-.13-.73-.33-1.01-.59-.28-.26-.49-.58-.63-.96s-.19-.81-.16-1.3h.25c-.03.46.01.86.14,1.21.13.35.32.64.57.88.25.24.57.42.94.54.37.12.78.18,1.23.18.35,0,.68-.05,1-.15.32-.1.6-.24.85-.44.24-.19.44-.43.59-.72.15-.28.22-.61.22-.98s-.06-.69-.18-.95-.3-.48-.52-.65-.49-.3-.79-.38c-.3-.08-.63-.13-.98-.15h-.62v-.25h.62c.28,0,.56-.03.83-.1.27-.06.52-.17.74-.32s.4-.34.53-.58c.13-.24.2-.54.2-.89,0-.35-.08-.64-.23-.87-.14-.24-.33-.43-.56-.58s-.49-.25-.77-.32-.58-.09-.89-.09c-.41,0-.79.05-1.12.16-.33.11-.62.27-.86.48s-.42.48-.54.8c-.12.32-.18.7-.17,1.13h-.25c0-.47.05-.88.19-1.23Z"/>
          </g>
          <g class="uuid-c1bbc0ff-ba2c-48d9-93ea-a9c790cbc90d">
            <path class="uuid-e3741aed-adf6-4cf1-b490-dfbaf8971e1a" d="m252.49,168.66v.25h-6.33v-.25h6.33Z"/>
            <path class="uuid-e3741aed-adf6-4cf1-b490-dfbaf8971e1a" d="m253.43,165.01c.13-.35.33-.64.59-.88s.57-.41.94-.53c.37-.12.77-.18,1.22-.18.35,0,.68.04,1,.11s.61.2.86.37c.25.17.46.39.61.66.15.27.23.6.23.98,0,.61-.18,1.08-.53,1.42s-.79.53-1.32.58v.03c.25.03.5.09.74.18s.46.24.65.42.34.41.46.68c.11.27.17.59.17.96,0,.41-.08.76-.23,1.08s-.37.58-.63.79-.57.38-.92.49c-.35.11-.72.16-1.12.16-.49,0-.93-.07-1.33-.2-.4-.13-.73-.33-1.01-.59-.28-.26-.49-.58-.63-.96s-.19-.81-.16-1.3h.25c-.03.46.01.86.14,1.21.13.35.32.64.57.88.25.24.57.42.94.54.37.12.78.18,1.23.18.35,0,.68-.05,1-.15.32-.1.6-.24.85-.44.24-.19.44-.43.59-.72.15-.28.22-.61.22-.98s-.06-.69-.18-.95-.3-.48-.52-.65-.49-.3-.79-.38c-.3-.08-.63-.13-.98-.15h-.62v-.25h.62c.28,0,.56-.03.83-.1.27-.06.52-.17.74-.32s.4-.34.53-.58c.13-.24.2-.54.2-.89,0-.35-.08-.64-.23-.87-.14-.24-.33-.43-.56-.58s-.49-.25-.77-.32-.58-.09-.89-.09c-.41,0-.79.05-1.12.16-.33.11-.62.27-.86.48s-.42.48-.54.8c-.12.32-.18.7-.17,1.13h-.25c0-.47.05-.88.19-1.23Z"/>
          </g>
          <g class="uuid-c1bbc0ff-ba2c-48d9-93ea-a9c790cbc90d">
            <path class="uuid-e3741aed-adf6-4cf1-b490-dfbaf8971e1a" d="m336.94,168.66v.25h-6.33v-.25h6.33Z"/>
            <path class="uuid-e3741aed-adf6-4cf1-b490-dfbaf8971e1a" d="m343.44,172.19h-5.8c0-.36.07-.69.23-.99.16-.3.37-.57.63-.83.26-.26.56-.5.88-.73.33-.23.65-.46.97-.69.33-.23.65-.46.96-.7.31-.24.59-.48.84-.74.24-.26.44-.53.59-.82.15-.29.22-.61.22-.94s-.06-.64-.18-.89c-.12-.26-.29-.47-.5-.65-.21-.17-.46-.3-.75-.39s-.61-.13-.96-.13c-.45,0-.83.07-1.15.2s-.58.32-.79.56c-.2.24-.35.53-.44.86-.09.33-.14.7-.14,1.1h-.25c0-.95.24-1.68.7-2.2.46-.52,1.15-.78,2.07-.78.37,0,.72.05,1.04.15.32.1.6.24.84.44.24.19.42.44.56.72.14.29.21.62.21,1.01,0,.47-.13.9-.38,1.29-.25.39-.57.75-.96,1.09s-.8.66-1.25.96c-.45.3-.87.6-1.26.9-.39.3-.73.61-1.01.92-.28.32-.44.66-.47,1.03h5.55v.25Z"/>
            <path class="uuid-e3741aed-adf6-4cf1-b490-dfbaf8971e1a" d="m345.62,172.19v-1.24h.25v1.24h-.25Z"/>
            <path class="uuid-e3741aed-adf6-4cf1-b490-dfbaf8971e1a" d="m348.58,167.51h.03c.25-.41.57-.7.98-.89.41-.19.87-.28,1.37-.28.45,0,.85.07,1.22.22.36.15.68.35.94.61s.46.58.61.94c.14.37.22.77.22,1.2,0,.46-.07.87-.22,1.24-.14.37-.35.69-.61.95s-.57.46-.94.6c-.36.14-.77.21-1.22.21s-.85-.07-1.22-.2-.7-.32-.96-.56c-.27-.25-.47-.55-.61-.91s-.21-.77-.19-1.24h.25c-.02.42.04.8.16,1.13.13.33.31.61.55.84s.53.4.88.52c.35.12.73.18,1.14.18s.8-.06,1.13-.2c.33-.13.62-.32.85-.56s.42-.53.54-.87c.13-.34.19-.72.19-1.13s-.07-.76-.2-1.1c-.13-.33-.31-.62-.55-.86s-.52-.43-.86-.56c-.34-.14-.71-.2-1.11-.2-.51,0-.98.11-1.41.34-.43.22-.76.55-1,.98h-.32l.92-4.35h4.42v.25h-4.22l-.79,3.69Z"/>
          </g>
          <g class="uuid-c1bbc0ff-ba2c-48d9-93ea-a9c790cbc90d">
            <path class="uuid-95b76854-0dab-44bf-966c-988c7ca6edaa" d="m336.94,168.66v.25h-6.33v-.25h6.33Z"/>
            <path class="uuid-95b76854-0dab-44bf-966c-988c7ca6edaa" d="m343.44,172.19h-5.8c0-.36.07-.69.23-.99.16-.3.37-.57.63-.83.26-.26.56-.5.88-.73.33-.23.65-.46.97-.69.33-.23.65-.46.96-.7.31-.24.59-.48.84-.74.24-.26.44-.53.59-.82.15-.29.22-.61.22-.94s-.06-.64-.18-.89c-.12-.26-.29-.47-.5-.65-.21-.17-.46-.3-.75-.39s-.61-.13-.96-.13c-.45,0-.83.07-1.15.2s-.58.32-.79.56c-.2.24-.35.53-.44.86-.09.33-.14.7-.14,1.1h-.25c0-.95.24-1.68.7-2.2.46-.52,1.15-.78,2.07-.78.37,0,.72.05,1.04.15.32.1.6.24.84.44.24.19.42.44.56.72.14.29.21.62.21,1.01,0,.47-.13.9-.38,1.29-.25.39-.57.75-.96,1.09s-.8.66-1.25.96c-.45.3-.87.6-1.26.9-.39.3-.73.61-1.01.92-.28.32-.44.66-.47,1.03h5.55v.25Z"/>
            <path class="uuid-95b76854-0dab-44bf-966c-988c7ca6edaa" d="m345.62,172.19v-1.24h.25v1.24h-.25Z"/>
            <path class="uuid-95b76854-0dab-44bf-966c-988c7ca6edaa" d="m348.58,167.51h.03c.25-.41.57-.7.98-.89.41-.19.87-.28,1.37-.28.45,0,.85.07,1.22.22.36.15.68.35.94.61s.46.58.61.94c.14.37.22.77.22,1.2,0,.46-.07.87-.22,1.24-.14.37-.35.69-.61.95s-.57.46-.94.6c-.36.14-.77.21-1.22.21s-.85-.07-1.22-.2-.7-.32-.96-.56c-.27-.25-.47-.55-.61-.91s-.21-.77-.19-1.24h.25c-.02.42.04.8.16,1.13.13.33.31.61.55.84s.53.4.88.52c.35.12.73.18,1.14.18s.8-.06,1.13-.2c.33-.13.62-.32.85-.56s.42-.53.54-.87c.13-.34.19-.72.19-1.13s-.07-.76-.2-1.1c-.13-.33-.31-.62-.55-.86s-.52-.43-.86-.56c-.34-.14-.71-.2-1.11-.2-.51,0-.98.11-1.41.34-.43.22-.76.55-1,.98h-.32l.92-4.35h4.42v.25h-4.22l-.79,3.69Z"/>
          </g>
          <g class="uuid-c1bbc0ff-ba2c-48d9-93ea-a9c790cbc90d">
            <path class="uuid-e3741aed-adf6-4cf1-b490-dfbaf8971e1a" d="m336.94,168.66v.25h-6.33v-.25h6.33Z"/>
            <path class="uuid-e3741aed-adf6-4cf1-b490-dfbaf8971e1a" d="m343.44,172.19h-5.8c0-.36.07-.69.23-.99.16-.3.37-.57.63-.83.26-.26.56-.5.88-.73.33-.23.65-.46.97-.69.33-.23.65-.46.96-.7.31-.24.59-.48.84-.74.24-.26.44-.53.59-.82.15-.29.22-.61.22-.94s-.06-.64-.18-.89c-.12-.26-.29-.47-.5-.65-.21-.17-.46-.3-.75-.39s-.61-.13-.96-.13c-.45,0-.83.07-1.15.2s-.58.32-.79.56c-.2.24-.35.53-.44.86-.09.33-.14.7-.14,1.1h-.25c0-.95.24-1.68.7-2.2.46-.52,1.15-.78,2.07-.78.37,0,.72.05,1.04.15.32.1.6.24.84.44.24.19.42.44.56.72.14.29.21.62.21,1.01,0,.47-.13.9-.38,1.29-.25.39-.57.75-.96,1.09s-.8.66-1.25.96c-.45.3-.87.6-1.26.9-.39.3-.73.61-1.01.92-.28.32-.44.66-.47,1.03h5.55v.25Z"/>
            <path class="uuid-e3741aed-adf6-4cf1-b490-dfbaf8971e1a" d="m345.62,172.19v-1.24h.25v1.24h-.25Z"/>
            <path class="uuid-e3741aed-adf6-4cf1-b490-dfbaf8971e1a" d="m348.58,167.51h.03c.25-.41.57-.7.98-.89.41-.19.87-.28,1.37-.28.45,0,.85.07,1.22.22.36.15.68.35.94.61s.46.58.61.94c.14.37.22.77.22,1.2,0,.46-.07.87-.22,1.24-.14.37-.35.69-.61.95s-.57.46-.94.6c-.36.14-.77.21-1.22.21s-.85-.07-1.22-.2-.7-.32-.96-.56c-.27-.25-.47-.55-.61-.91s-.21-.77-.19-1.24h.25c-.02.42.04.8.16,1.13.13.33.31.61.55.84s.53.4.88.52c.35.12.73.18,1.14.18s.8-.06,1.13-.2c.33-.13.62-.32.85-.56s.42-.53.54-.87c.13-.34.19-.72.19-1.13s-.07-.76-.2-1.1c-.13-.33-.31-.62-.55-.86s-.52-.43-.86-.56c-.34-.14-.71-.2-1.11-.2-.51,0-.98.11-1.41.34-.43.22-.76.55-1,.98h-.32l.92-4.35h4.42v.25h-4.22l-.79,3.69Z"/>
          </g>
          <g class="uuid-c1bbc0ff-ba2c-48d9-93ea-a9c790cbc90d">
            <path class="uuid-e3741aed-adf6-4cf1-b490-dfbaf8971e1a" d="m434.06,168.66v.25h-6.33v-.25h6.33Z"/>
            <path class="uuid-e3741aed-adf6-4cf1-b490-dfbaf8971e1a" d="m440.56,172.19h-5.8c0-.36.07-.69.23-.99.16-.3.37-.57.63-.83.26-.26.56-.5.88-.73.33-.23.65-.46.97-.69.33-.23.65-.46.96-.7.31-.24.59-.48.84-.74.24-.26.44-.53.59-.82.15-.29.22-.61.22-.94s-.06-.64-.18-.89c-.12-.26-.29-.47-.5-.65-.21-.17-.46-.3-.75-.39s-.61-.13-.96-.13c-.45,0-.83.07-1.15.2s-.58.32-.79.56c-.2.24-.35.53-.44.86-.09.33-.14.7-.14,1.1h-.25c0-.95.24-1.68.7-2.2.46-.52,1.15-.78,2.07-.78.37,0,.72.05,1.04.15.32.1.6.24.84.44.24.19.42.44.56.72.14.29.21.62.21,1.01,0,.47-.13.9-.38,1.29-.25.39-.57.75-.96,1.09s-.8.66-1.25.96c-.45.3-.87.6-1.26.9-.39.3-.73.61-1.01.92-.28.32-.44.66-.47,1.03h5.55v.25Z"/>
          </g>
          <g class="uuid-c1bbc0ff-ba2c-48d9-93ea-a9c790cbc90d">
            <path class="uuid-95b76854-0dab-44bf-966c-988c7ca6edaa" d="m434.06,168.66v.25h-6.33v-.25h6.33Z"/>
            <path class="uuid-95b76854-0dab-44bf-966c-988c7ca6edaa" d="m440.56,172.19h-5.8c0-.36.07-.69.23-.99.16-.3.37-.57.63-.83.26-.26.56-.5.88-.73.33-.23.65-.46.97-.69.33-.23.65-.46.96-.7.31-.24.59-.48.84-.74.24-.26.44-.53.59-.82.15-.29.22-.61.22-.94s-.06-.64-.18-.89c-.12-.26-.29-.47-.5-.65-.21-.17-.46-.3-.75-.39s-.61-.13-.96-.13c-.45,0-.83.07-1.15.2s-.58.32-.79.56c-.2.24-.35.53-.44.86-.09.33-.14.7-.14,1.1h-.25c0-.95.24-1.68.7-2.2.46-.52,1.15-.78,2.07-.78.37,0,.72.05,1.04.15.32.1.6.24.84.44.24.19.42.44.56.72.14.29.21.62.21,1.01,0,.47-.13.9-.38,1.29-.25.39-.57.75-.96,1.09s-.8.66-1.25.96c-.45.3-.87.6-1.26.9-.39.3-.73.61-1.01.92-.28.32-.44.66-.47,1.03h5.55v.25Z"/>
          </g>
          <g class="uuid-c1bbc0ff-ba2c-48d9-93ea-a9c790cbc90d">
            <path class="uuid-e3741aed-adf6-4cf1-b490-dfbaf8971e1a" d="m434.06,168.66v.25h-6.33v-.25h6.33Z"/>
            <path class="uuid-e3741aed-adf6-4cf1-b490-dfbaf8971e1a" d="m440.56,172.19h-5.8c0-.36.07-.69.23-.99.16-.3.37-.57.63-.83.26-.26.56-.5.88-.73.33-.23.65-.46.97-.69.33-.23.65-.46.96-.7.31-.24.59-.48.84-.74.24-.26.44-.53.59-.82.15-.29.22-.61.22-.94s-.06-.64-.18-.89c-.12-.26-.29-.47-.5-.65-.21-.17-.46-.3-.75-.39s-.61-.13-.96-.13c-.45,0-.83.07-1.15.2s-.58.32-.79.56c-.2.24-.35.53-.44.86-.09.33-.14.7-.14,1.1h-.25c0-.95.24-1.68.7-2.2.46-.52,1.15-.78,2.07-.78.37,0,.72.05,1.04.15.32.1.6.24.84.44.24.19.42.44.56.72.14.29.21.62.21,1.01,0,.47-.13.9-.38,1.29-.25.39-.57.75-.96,1.09s-.8.66-1.25.96c-.45.3-.87.6-1.26.9-.39.3-.73.61-1.01.92-.28.32-.44.66-.47,1.03h5.55v.25Z"/>
          </g>
          <g class="uuid-c1bbc0ff-ba2c-48d9-93ea-a9c790cbc90d">
            <path class="uuid-e3741aed-adf6-4cf1-b490-dfbaf8971e1a" d="m518.52,168.66v.25h-6.33v-.25h6.33Z"/>
            <path class="uuid-e3741aed-adf6-4cf1-b490-dfbaf8971e1a" d="m522.27,163.9c-.26.36-.6.68-1.02.94-.42.27-.84.46-1.27.58v-.25c.26-.08.49-.18.7-.28.2-.1.39-.22.57-.34.18-.13.35-.27.51-.43.16-.16.34-.34.51-.54h.28v8.61h-.25v-8.28h-.03Z"/>
            <path class="uuid-e3741aed-adf6-4cf1-b490-dfbaf8971e1a" d="m527.19,172.19v-1.24h.25v1.24h-.25Z"/>
            <path class="uuid-e3741aed-adf6-4cf1-b490-dfbaf8971e1a" d="m530.16,167.51h.03c.25-.41.57-.7.98-.89.41-.19.87-.28,1.37-.28.45,0,.85.07,1.22.22.36.15.68.35.94.61s.46.58.61.94c.14.37.22.77.22,1.2,0,.46-.07.87-.22,1.24-.14.37-.35.69-.61.95s-.57.46-.94.6c-.36.14-.77.21-1.22.21s-.85-.07-1.22-.2-.7-.32-.96-.56c-.27-.25-.47-.55-.61-.91s-.21-.77-.19-1.24h.25c-.02.42.04.8.16,1.13.13.33.31.61.55.84s.53.4.88.52c.35.12.73.18,1.14.18s.8-.06,1.13-.2c.33-.13.62-.32.85-.56s.42-.53.54-.87c.13-.34.19-.72.19-1.13s-.07-.76-.2-1.1c-.13-.33-.31-.62-.55-.86s-.52-.43-.86-.56c-.34-.14-.71-.2-1.11-.2-.51,0-.98.11-1.41.34-.43.22-.76.55-1,.98h-.32l.92-4.35h4.42v.25h-4.22l-.79,3.69Z"/>
          </g>
          <g class="uuid-c1bbc0ff-ba2c-48d9-93ea-a9c790cbc90d">
            <path class="uuid-95b76854-0dab-44bf-966c-988c7ca6edaa" d="m518.52,168.66v.25h-6.33v-.25h6.33Z"/>
            <path class="uuid-95b76854-0dab-44bf-966c-988c7ca6edaa" d="m522.27,163.9c-.26.36-.6.68-1.02.94-.42.27-.84.46-1.27.58v-.25c.26-.08.49-.18.7-.28.2-.1.39-.22.57-.34.18-.13.35-.27.51-.43.16-.16.34-.34.51-.54h.28v8.61h-.25v-8.28h-.03Z"/>
            <path class="uuid-95b76854-0dab-44bf-966c-988c7ca6edaa" d="m527.19,172.19v-1.24h.25v1.24h-.25Z"/>
            <path class="uuid-95b76854-0dab-44bf-966c-988c7ca6edaa" d="m530.16,167.51h.03c.25-.41.57-.7.98-.89.41-.19.87-.28,1.37-.28.45,0,.85.07,1.22.22.36.15.68.35.94.61s.46.58.61.94c.14.37.22.77.22,1.2,0,.46-.07.87-.22,1.24-.14.37-.35.69-.61.95s-.57.46-.94.6c-.36.14-.77.21-1.22.21s-.85-.07-1.22-.2-.7-.32-.96-.56c-.27-.25-.47-.55-.61-.91s-.21-.77-.19-1.24h.25c-.02.42.04.8.16,1.13.13.33.31.61.55.84s.53.4.88.52c.35.12.73.18,1.14.18s.8-.06,1.13-.2c.33-.13.62-.32.85-.56s.42-.53.54-.87c.13-.34.19-.72.19-1.13s-.07-.76-.2-1.1c-.13-.33-.31-.62-.55-.86s-.52-.43-.86-.56c-.34-.14-.71-.2-1.11-.2-.51,0-.98.11-1.41.34-.43.22-.76.55-1,.98h-.32l.92-4.35h4.42v.25h-4.22l-.79,3.69Z"/>
          </g>
          <g class="uuid-c1bbc0ff-ba2c-48d9-93ea-a9c790cbc90d">
            <path class="uuid-e3741aed-adf6-4cf1-b490-dfbaf8971e1a" d="m518.52,168.66v.25h-6.33v-.25h6.33Z"/>
            <path class="uuid-e3741aed-adf6-4cf1-b490-dfbaf8971e1a" d="m522.27,163.9c-.26.36-.6.68-1.02.94-.42.27-.84.46-1.27.58v-.25c.26-.08.49-.18.7-.28.2-.1.39-.22.57-.34.18-.13.35-.27.51-.43.16-.16.34-.34.51-.54h.28v8.61h-.25v-8.28h-.03Z"/>
            <path class="uuid-e3741aed-adf6-4cf1-b490-dfbaf8971e1a" d="m527.19,172.19v-1.24h.25v1.24h-.25Z"/>
            <path class="uuid-e3741aed-adf6-4cf1-b490-dfbaf8971e1a" d="m530.16,167.51h.03c.25-.41.57-.7.98-.89.41-.19.87-.28,1.37-.28.45,0,.85.07,1.22.22.36.15.68.35.94.61s.46.58.61.94c.14.37.22.77.22,1.2,0,.46-.07.87-.22,1.24-.14.37-.35.69-.61.95s-.57.46-.94.6c-.36.14-.77.21-1.22.21s-.85-.07-1.22-.2-.7-.32-.96-.56c-.27-.25-.47-.55-.61-.91s-.21-.77-.19-1.24h.25c-.02.42.04.8.16,1.13.13.33.31.61.55.84s.53.4.88.52c.35.12.73.18,1.14.18s.8-.06,1.13-.2c.33-.13.62-.32.85-.56s.42-.53.54-.87c.13-.34.19-.72.19-1.13s-.07-.76-.2-1.1c-.13-.33-.31-.62-.55-.86s-.52-.43-.86-.56c-.34-.14-.71-.2-1.11-.2-.51,0-.98.11-1.41.34-.43.22-.76.55-1,.98h-.32l.92-4.35h4.42v.25h-4.22l-.79,3.69Z"/>
          </g>
          <g class="uuid-c1bbc0ff-ba2c-48d9-93ea-a9c790cbc90d">
            <path class="uuid-e3741aed-adf6-4cf1-b490-dfbaf8971e1a" d="m615.64,168.66v.25h-6.33v-.25h6.33Z"/>
            <path class="uuid-e3741aed-adf6-4cf1-b490-dfbaf8971e1a" d="m619.39,163.9c-.26.36-.6.68-1.02.94-.42.27-.84.46-1.27.58v-.25c.26-.08.49-.18.7-.28.2-.1.39-.22.57-.34.18-.13.35-.27.51-.43.16-.16.34-.34.51-.54h.28v8.61h-.25v-8.28h-.03Z"/>
          </g>
          <g class="uuid-c1bbc0ff-ba2c-48d9-93ea-a9c790cbc90d">
            <path class="uuid-95b76854-0dab-44bf-966c-988c7ca6edaa" d="m615.64,168.66v.25h-6.33v-.25h6.33Z"/>
            <path class="uuid-95b76854-0dab-44bf-966c-988c7ca6edaa" d="m619.39,163.9c-.26.36-.6.68-1.02.94-.42.27-.84.46-1.27.58v-.25c.26-.08.49-.18.7-.28.2-.1.39-.22.57-.34.18-.13.35-.27.51-.43.16-.16.34-.34.51-.54h.28v8.61h-.25v-8.28h-.03Z"/>
          </g>
          <g class="uuid-c1bbc0ff-ba2c-48d9-93ea-a9c790cbc90d">
            <path class="uuid-e3741aed-adf6-4cf1-b490-dfbaf8971e1a" d="m615.64,168.66v.25h-6.33v-.25h6.33Z"/>
            <path class="uuid-e3741aed-adf6-4cf1-b490-dfbaf8971e1a" d="m619.39,163.9c-.26.36-.6.68-1.02.94-.42.27-.84.46-1.27.58v-.25c.26-.08.49-.18.7-.28.2-.1.39-.22.57-.34.18-.13.35-.27.51-.43.16-.16.34-.34.51-.54h.28v8.61h-.25v-8.28h-.03Z"/>
          </g>
          <g class="uuid-c1bbc0ff-ba2c-48d9-93ea-a9c790cbc90d">
            <path class="uuid-e3741aed-adf6-4cf1-b490-dfbaf8971e1a" d="m700.09,168.66v.25h-6.33v-.25h6.33Z"/>
            <path class="uuid-e3741aed-adf6-4cf1-b490-dfbaf8971e1a" d="m706.71,169.49c-.11.53-.29,1.01-.54,1.43-.25.42-.59.76-1,1.02-.41.26-.93.39-1.56.39s-1.13-.13-1.55-.39-.75-.6-1.01-1.02c-.25-.42-.43-.9-.54-1.43-.11-.53-.16-1.07-.16-1.61s.05-1.08.16-1.61c.11-.53.28-1.01.54-1.43.25-.42.59-.76,1.01-1.03s.94-.39,1.55-.39,1.14.13,1.56.39c.41.26.75.6,1,1.03.25.42.43.9.54,1.43s.16,1.07.16,1.61-.05,1.08-.16,1.61Zm-.23-3.08c-.09-.5-.25-.95-.48-1.36-.23-.41-.53-.74-.92-.99-.38-.26-.87-.39-1.46-.39s-1.08.13-1.46.39c-.38.26-.69.59-.92.99-.23.41-.39.86-.48,1.36-.09.5-.14.99-.14,1.47s.05.97.14,1.47c.09.5.25.95.48,1.36.23.41.53.74.92.99.38.26.87.39,1.46.39s1.08-.13,1.46-.39c.38-.26.69-.59.92-.99.23-.41.39-.86.48-1.36.09-.5.14-.99.14-1.47s-.05-.97-.14-1.47Z"/>
            <path class="uuid-e3741aed-adf6-4cf1-b490-dfbaf8971e1a" d="m708.77,172.19v-1.24h.25v1.24h-.25Z"/>
            <path class="uuid-e3741aed-adf6-4cf1-b490-dfbaf8971e1a" d="m711.73,167.51h.03c.24-.41.57-.7.98-.89.41-.19.87-.28,1.37-.28.45,0,.85.07,1.22.22.36.15.67.35.94.61.26.26.46.58.61.94s.22.77.22,1.2c0,.46-.07.87-.22,1.24s-.35.69-.61.95c-.26.26-.58.46-.94.6-.36.14-.77.21-1.22.21s-.85-.07-1.22-.2c-.38-.13-.7-.32-.96-.56-.27-.25-.47-.55-.61-.91-.14-.36-.21-.77-.19-1.24h.25c-.02.42.04.8.17,1.13.13.33.31.61.55.84.24.23.53.4.88.52.35.12.73.18,1.14.18s.8-.06,1.13-.2c.33-.13.62-.32.86-.56s.42-.53.54-.87c.13-.34.19-.72.19-1.13s-.07-.76-.2-1.1c-.13-.33-.31-.62-.55-.86s-.52-.43-.86-.56-.71-.2-1.12-.2c-.51,0-.97.11-1.41.34-.43.22-.76.55-1,.98h-.32l.92-4.35h4.42v.25h-4.22l-.79,3.69Z"/>
          </g>
          <g class="uuid-c1bbc0ff-ba2c-48d9-93ea-a9c790cbc90d">
            <path class="uuid-95b76854-0dab-44bf-966c-988c7ca6edaa" d="m700.09,168.66v.25h-6.33v-.25h6.33Z"/>
            <path class="uuid-95b76854-0dab-44bf-966c-988c7ca6edaa" d="m706.71,169.49c-.11.53-.29,1.01-.54,1.43-.25.42-.59.76-1,1.02-.41.26-.93.39-1.56.39s-1.13-.13-1.55-.39-.75-.6-1.01-1.02c-.25-.42-.43-.9-.54-1.43-.11-.53-.16-1.07-.16-1.61s.05-1.08.16-1.61c.11-.53.28-1.01.54-1.43.25-.42.59-.76,1.01-1.03s.94-.39,1.55-.39,1.14.13,1.56.39c.41.26.75.6,1,1.03.25.42.43.9.54,1.43s.16,1.07.16,1.61-.05,1.08-.16,1.61Zm-.23-3.08c-.09-.5-.25-.95-.48-1.36-.23-.41-.53-.74-.92-.99-.38-.26-.87-.39-1.46-.39s-1.08.13-1.46.39c-.38.26-.69.59-.92.99-.23.41-.39.86-.48,1.36-.09.5-.14.99-.14,1.47s.05.97.14,1.47c.09.5.25.95.48,1.36.23.41.53.74.92.99.38.26.87.39,1.46.39s1.08-.13,1.46-.39c.38-.26.69-.59.92-.99.23-.41.39-.86.48-1.36.09-.5.14-.99.14-1.47s-.05-.97-.14-1.47Z"/>
            <path class="uuid-95b76854-0dab-44bf-966c-988c7ca6edaa" d="m708.77,172.19v-1.24h.25v1.24h-.25Z"/>
            <path class="uuid-95b76854-0dab-44bf-966c-988c7ca6edaa" d="m711.73,167.51h.03c.24-.41.57-.7.98-.89.41-.19.87-.28,1.37-.28.45,0,.85.07,1.22.22.36.15.67.35.94.61.26.26.46.58.61.94s.22.77.22,1.2c0,.46-.07.87-.22,1.24s-.35.69-.61.95c-.26.26-.58.46-.94.6-.36.14-.77.21-1.22.21s-.85-.07-1.22-.2c-.38-.13-.7-.32-.96-.56-.27-.25-.47-.55-.61-.91-.14-.36-.21-.77-.19-1.24h.25c-.02.42.04.8.17,1.13.13.33.31.61.55.84.24.23.53.4.88.52.35.12.73.18,1.14.18s.8-.06,1.13-.2c.33-.13.62-.32.86-.56s.42-.53.54-.87c.13-.34.19-.72.19-1.13s-.07-.76-.2-1.1c-.13-.33-.31-.62-.55-.86s-.52-.43-.86-.56-.71-.2-1.12-.2c-.51,0-.97.11-1.41.34-.43.22-.76.55-1,.98h-.32l.92-4.35h4.42v.25h-4.22l-.79,3.69Z"/>
          </g>
          <g class="uuid-c1bbc0ff-ba2c-48d9-93ea-a9c790cbc90d">
            <path class="uuid-e3741aed-adf6-4cf1-b490-dfbaf8971e1a" d="m700.09,168.66v.25h-6.33v-.25h6.33Z"/>
            <path class="uuid-e3741aed-adf6-4cf1-b490-dfbaf8971e1a" d="m706.71,169.49c-.11.53-.29,1.01-.54,1.43-.25.42-.59.76-1,1.02-.41.26-.93.39-1.56.39s-1.13-.13-1.55-.39-.75-.6-1.01-1.02c-.25-.42-.43-.9-.54-1.43-.11-.53-.16-1.07-.16-1.61s.05-1.08.16-1.61c.11-.53.28-1.01.54-1.43.25-.42.59-.76,1.01-1.03s.94-.39,1.55-.39,1.14.13,1.56.39c.41.26.75.6,1,1.03.25.42.43.9.54,1.43s.16,1.07.16,1.61-.05,1.08-.16,1.61Zm-.23-3.08c-.09-.5-.25-.95-.48-1.36-.23-.41-.53-.74-.92-.99-.38-.26-.87-.39-1.46-.39s-1.08.13-1.46.39c-.38.26-.69.59-.92.99-.23.41-.39.86-.48,1.36-.09.5-.14.99-.14,1.47s.05.97.14,1.47c.09.5.25.95.48,1.36.23.41.53.74.92.99.38.26.87.39,1.46.39s1.08-.13,1.46-.39c.38-.26.69-.59.92-.99.23-.41.39-.86.48-1.36.09-.5.14-.99.14-1.47s-.05-.97-.14-1.47Z"/>
            <path class="uuid-e3741aed-adf6-4cf1-b490-dfbaf8971e1a" d="m708.77,172.19v-1.24h.25v1.24h-.25Z"/>
            <path class="uuid-e3741aed-adf6-4cf1-b490-dfbaf8971e1a" d="m711.73,167.51h.03c.24-.41.57-.7.98-.89.41-.19.87-.28,1.37-.28.45,0,.85.07,1.22.22.36.15.67.35.94.61.26.26.46.58.61.94s.22.77.22,1.2c0,.46-.07.87-.22,1.24s-.35.69-.61.95c-.26.26-.58.46-.94.6-.36.14-.77.21-1.22.21s-.85-.07-1.22-.2c-.38-.13-.7-.32-.96-.56-.27-.25-.47-.55-.61-.91-.14-.36-.21-.77-.19-1.24h.25c-.02.42.04.8.17,1.13.13.33.31.61.55.84.24.23.53.4.88.52.35.12.73.18,1.14.18s.8-.06,1.13-.2c.33-.13.62-.32.86-.56s.42-.53.54-.87c.13-.34.19-.72.19-1.13s-.07-.76-.2-1.1c-.13-.33-.31-.62-.55-.86s-.52-.43-.86-.56-.71-.2-1.12-.2c-.51,0-.97.11-1.41.34-.43.22-.76.55-1,.98h-.32l.92-4.35h4.42v.25h-4.22l-.79,3.69Z"/>
          </g>
          <g class="uuid-c1bbc0ff-ba2c-48d9-93ea-a9c790cbc90d">
            <path class="uuid-e3741aed-adf6-4cf1-b490-dfbaf8971e1a" d="m885.12,169.49c-.11.53-.29,1.01-.54,1.43-.25.42-.59.76-1,1.02-.41.26-.93.39-1.56.39s-1.13-.13-1.55-.39-.75-.6-1.01-1.02c-.25-.42-.43-.9-.54-1.43-.11-.53-.16-1.07-.16-1.61s.05-1.08.16-1.61c.11-.53.28-1.01.54-1.43.25-.42.59-.76,1.01-1.03s.94-.39,1.55-.39,1.14.13,1.56.39c.41.26.75.6,1,1.03.25.42.43.9.54,1.43s.16,1.07.16,1.61-.05,1.08-.16,1.61Zm-.23-3.08c-.09-.5-.25-.95-.48-1.36-.23-.41-.53-.74-.92-.99-.38-.26-.87-.39-1.46-.39s-1.08.13-1.46.39c-.38.26-.69.59-.92.99-.23.41-.39.86-.48,1.36-.09.5-.14.99-.14,1.47s.05.97.14,1.47c.09.5.25.95.48,1.36.23.41.53.74.92.99.38.26.87.39,1.46.39s1.08-.13,1.46-.39c.38-.26.69-.59.92-.99.23-.41.39-.86.48-1.36.09-.5.14-.99.14-1.47s-.05-.97-.14-1.47Z"/>
            <path class="uuid-e3741aed-adf6-4cf1-b490-dfbaf8971e1a" d="m887.18,172.19v-1.24h.25v1.24h-.25Z"/>
            <path class="uuid-e3741aed-adf6-4cf1-b490-dfbaf8971e1a" d="m890.14,167.51h.03c.24-.41.57-.7.98-.89.41-.19.87-.28,1.37-.28.45,0,.85.07,1.22.22.36.15.67.35.94.61.26.26.46.58.61.94s.22.77.22,1.2c0,.46-.07.87-.22,1.24s-.35.69-.61.95c-.26.26-.58.46-.94.6-.36.14-.77.21-1.22.21s-.85-.07-1.22-.2c-.38-.13-.7-.32-.96-.56-.27-.25-.47-.55-.61-.91-.14-.36-.21-.77-.19-1.24h.25c-.02.42.04.8.17,1.13.13.33.31.61.55.84.24.23.53.4.88.52.35.12.73.18,1.14.18s.8-.06,1.13-.2c.33-.13.62-.32.86-.56s.42-.53.54-.87c.13-.34.19-.72.19-1.13s-.07-.76-.2-1.1c-.13-.33-.31-.62-.55-.86s-.52-.43-.86-.56-.71-.2-1.12-.2c-.51,0-.97.11-1.41.34-.43.22-.76.55-1,.98h-.32l.92-4.35h4.42v.25h-4.22l-.79,3.69Z"/>
          </g>
          <g class="uuid-c1bbc0ff-ba2c-48d9-93ea-a9c790cbc90d">
            <path class="uuid-95b76854-0dab-44bf-966c-988c7ca6edaa" d="m885.12,169.49c-.11.53-.29,1.01-.54,1.43-.25.42-.59.76-1,1.02-.41.26-.93.39-1.56.39s-1.13-.13-1.55-.39-.75-.6-1.01-1.02c-.25-.42-.43-.9-.54-1.43-.11-.53-.16-1.07-.16-1.61s.05-1.08.16-1.61c.11-.53.28-1.01.54-1.43.25-.42.59-.76,1.01-1.03s.94-.39,1.55-.39,1.14.13,1.56.39c.41.26.75.6,1,1.03.25.42.43.9.54,1.43s.16,1.07.16,1.61-.05,1.08-.16,1.61Zm-.23-3.08c-.09-.5-.25-.95-.48-1.36-.23-.41-.53-.74-.92-.99-.38-.26-.87-.39-1.46-.39s-1.08.13-1.46.39c-.38.26-.69.59-.92.99-.23.41-.39.86-.48,1.36-.09.5-.14.99-.14,1.47s.05.97.14,1.47c.09.5.25.95.48,1.36.23.41.53.74.92.99.38.26.87.39,1.46.39s1.08-.13,1.46-.39c.38-.26.69-.59.92-.99.23-.41.39-.86.48-1.36.09-.5.14-.99.14-1.47s-.05-.97-.14-1.47Z"/>
            <path class="uuid-95b76854-0dab-44bf-966c-988c7ca6edaa" d="m887.18,172.19v-1.24h.25v1.24h-.25Z"/>
            <path class="uuid-95b76854-0dab-44bf-966c-988c7ca6edaa" d="m890.14,167.51h.03c.24-.41.57-.7.98-.89.41-.19.87-.28,1.37-.28.45,0,.85.07,1.22.22.36.15.67.35.94.61.26.26.46.58.61.94s.22.77.22,1.2c0,.46-.07.87-.22,1.24s-.35.69-.61.95c-.26.26-.58.46-.94.6-.36.14-.77.21-1.22.21s-.85-.07-1.22-.2c-.38-.13-.7-.32-.96-.56-.27-.25-.47-.55-.61-.91-.14-.36-.21-.77-.19-1.24h.25c-.02.42.04.8.17,1.13.13.33.31.61.55.84.24.23.53.4.88.52.35.12.73.18,1.14.18s.8-.06,1.13-.2c.33-.13.62-.32.86-.56s.42-.53.54-.87c.13-.34.19-.72.19-1.13s-.07-.76-.2-1.1c-.13-.33-.31-.62-.55-.86s-.52-.43-.86-.56-.71-.2-1.12-.2c-.51,0-.97.11-1.41.34-.43.22-.76.55-1,.98h-.32l.92-4.35h4.42v.25h-4.22l-.79,3.69Z"/>
          </g>
          <g class="uuid-c1bbc0ff-ba2c-48d9-93ea-a9c790cbc90d">
            <path class="uuid-e3741aed-adf6-4cf1-b490-dfbaf8971e1a" d="m885.12,169.49c-.11.53-.29,1.01-.54,1.43-.25.42-.59.76-1,1.02-.41.26-.93.39-1.56.39s-1.13-.13-1.55-.39-.75-.6-1.01-1.02c-.25-.42-.43-.9-.54-1.43-.11-.53-.16-1.07-.16-1.61s.05-1.08.16-1.61c.11-.53.28-1.01.54-1.43.25-.42.59-.76,1.01-1.03s.94-.39,1.55-.39,1.14.13,1.56.39c.41.26.75.6,1,1.03.25.42.43.9.54,1.43s.16,1.07.16,1.61-.05,1.08-.16,1.61Zm-.23-3.08c-.09-.5-.25-.95-.48-1.36-.23-.41-.53-.74-.92-.99-.38-.26-.87-.39-1.46-.39s-1.08.13-1.46.39c-.38.26-.69.59-.92.99-.23.41-.39.86-.48,1.36-.09.5-.14.99-.14,1.47s.05.97.14,1.47c.09.5.25.95.48,1.36.23.41.53.74.92.99.38.26.87.39,1.46.39s1.08-.13,1.46-.39c.38-.26.69-.59.92-.99.23-.41.39-.86.48-1.36.09-.5.14-.99.14-1.47s-.05-.97-.14-1.47Z"/>
            <path class="uuid-e3741aed-adf6-4cf1-b490-dfbaf8971e1a" d="m887.18,172.19v-1.24h.25v1.24h-.25Z"/>
            <path class="uuid-e3741aed-adf6-4cf1-b490-dfbaf8971e1a" d="m890.14,167.51h.03c.24-.41.57-.7.98-.89.41-.19.87-.28,1.37-.28.45,0,.85.07,1.22.22.36.15.67.35.94.61.26.26.46.58.61.94s.22.77.22,1.2c0,.46-.07.87-.22,1.24s-.35.69-.61.95c-.26.26-.58.46-.94.6-.36.14-.77.21-1.22.21s-.85-.07-1.22-.2c-.38-.13-.7-.32-.96-.56-.27-.25-.47-.55-.61-.91-.14-.36-.21-.77-.19-1.24h.25c-.02.42.04.8.17,1.13.13.33.31.61.55.84.24.23.53.4.88.52.35.12.73.18,1.14.18s.8-.06,1.13-.2c.33-.13.62-.32.86-.56s.42-.53.54-.87c.13-.34.19-.72.19-1.13s-.07-.76-.2-1.1c-.13-.33-.31-.62-.55-.86s-.52-.43-.86-.56-.71-.2-1.12-.2c-.51,0-.97.11-1.41.34-.43.22-.76.55-1,.98h-.32l.92-4.35h4.42v.25h-4.22l-.79,3.69Z"/>
          </g>
          <g class="uuid-c1bbc0ff-ba2c-48d9-93ea-a9c790cbc90d">
            <path class="uuid-e3741aed-adf6-4cf1-b490-dfbaf8971e1a" d="m979.37,163.9c-.26.36-.6.68-1.02.94-.42.27-.84.46-1.27.58v-.25c.26-.08.49-.18.7-.28.2-.1.39-.22.57-.34.18-.13.35-.27.51-.43.17-.16.34-.34.51-.54h.28v8.61h-.25v-8.28h-.03Z"/>
          </g>
          <g class="uuid-c1bbc0ff-ba2c-48d9-93ea-a9c790cbc90d">
            <path class="uuid-95b76854-0dab-44bf-966c-988c7ca6edaa" d="m979.37,163.9c-.26.36-.6.68-1.02.94-.42.27-.84.46-1.27.58v-.25c.26-.08.49-.18.7-.28.2-.1.39-.22.57-.34.18-.13.35-.27.51-.43.17-.16.34-.34.51-.54h.28v8.61h-.25v-8.28h-.03Z"/>
          </g>
          <g class="uuid-c1bbc0ff-ba2c-48d9-93ea-a9c790cbc90d">
            <path class="uuid-e3741aed-adf6-4cf1-b490-dfbaf8971e1a" d="m979.37,163.9c-.26.36-.6.68-1.02.94-.42.27-.84.46-1.27.58v-.25c.26-.08.49-.18.7-.28.2-.1.39-.22.57-.34.18-.13.35-.27.51-.43.17-.16.34-.34.51-.54h.28v8.61h-.25v-8.28h-.03Z"/>
          </g>
          <g class="uuid-c1bbc0ff-ba2c-48d9-93ea-a9c790cbc90d">
            <path class="uuid-e3741aed-adf6-4cf1-b490-dfbaf8971e1a" d="m1063.83,163.9c-.26.36-.6.68-1.02.94-.42.27-.84.46-1.27.58v-.25c.26-.08.49-.18.7-.28.2-.1.39-.22.57-.34.18-.13.35-.27.51-.43.17-.16.34-.34.51-.54h.28v8.61h-.25v-8.28h-.03Z"/>
            <path class="uuid-e3741aed-adf6-4cf1-b490-dfbaf8971e1a" d="m1068.75,172.19v-1.24h.25v1.24h-.25Z"/>
            <path class="uuid-e3741aed-adf6-4cf1-b490-dfbaf8971e1a" d="m1071.72,167.51h.03c.24-.41.57-.7.98-.89.41-.19.87-.28,1.37-.28.45,0,.85.07,1.22.22.36.15.67.35.94.61.26.26.46.58.61.94s.22.77.22,1.2c0,.46-.07.87-.22,1.24s-.35.69-.61.95c-.26.26-.58.46-.94.6-.36.14-.77.21-1.22.21s-.85-.07-1.22-.2c-.38-.13-.7-.32-.96-.56-.27-.25-.47-.55-.61-.91-.14-.36-.21-.77-.19-1.24h.25c-.02.42.04.8.17,1.13.13.33.31.61.55.84.24.23.53.4.88.52.35.12.73.18,1.14.18s.8-.06,1.13-.2c.33-.13.62-.32.86-.56s.42-.53.54-.87c.13-.34.19-.72.19-1.13s-.07-.76-.2-1.1c-.13-.33-.31-.62-.55-.86s-.52-.43-.86-.56-.71-.2-1.12-.2c-.51,0-.97.11-1.41.34-.43.22-.76.55-1,.98h-.32l.92-4.35h4.42v.25h-4.22l-.79,3.69Z"/>
          </g>
          <g class="uuid-c1bbc0ff-ba2c-48d9-93ea-a9c790cbc90d">
            <path class="uuid-95b76854-0dab-44bf-966c-988c7ca6edaa" d="m1063.83,163.9c-.26.36-.6.68-1.02.94-.42.27-.84.46-1.27.58v-.25c.26-.08.49-.18.7-.28.2-.1.39-.22.57-.34.18-.13.35-.27.51-.43.17-.16.34-.34.51-.54h.28v8.61h-.25v-8.28h-.03Z"/>
            <path class="uuid-95b76854-0dab-44bf-966c-988c7ca6edaa" d="m1068.75,172.19v-1.24h.25v1.24h-.25Z"/>
            <path class="uuid-95b76854-0dab-44bf-966c-988c7ca6edaa" d="m1071.72,167.51h.03c.24-.41.57-.7.98-.89.41-.19.87-.28,1.37-.28.45,0,.85.07,1.22.22.36.15.67.35.94.61.26.26.46.58.61.94s.22.77.22,1.2c0,.46-.07.87-.22,1.24s-.35.69-.61.95c-.26.26-.58.46-.94.6-.36.14-.77.21-1.22.21s-.85-.07-1.22-.2c-.38-.13-.7-.32-.96-.56-.27-.25-.47-.55-.61-.91-.14-.36-.21-.77-.19-1.24h.25c-.02.42.04.8.17,1.13.13.33.31.61.55.84.24.23.53.4.88.52.35.12.73.18,1.14.18s.8-.06,1.13-.2c.33-.13.62-.32.86-.56s.42-.53.54-.87c.13-.34.19-.72.19-1.13s-.07-.76-.2-1.1c-.13-.33-.31-.62-.55-.86s-.52-.43-.86-.56-.71-.2-1.12-.2c-.51,0-.97.11-1.41.34-.43.22-.76.55-1,.98h-.32l.92-4.35h4.42v.25h-4.22l-.79,3.69Z"/>
          </g>
          <g class="uuid-c1bbc0ff-ba2c-48d9-93ea-a9c790cbc90d">
            <path class="uuid-e3741aed-adf6-4cf1-b490-dfbaf8971e1a" d="m1063.83,163.9c-.26.36-.6.68-1.02.94-.42.27-.84.46-1.27.58v-.25c.26-.08.49-.18.7-.28.2-.1.39-.22.57-.34.18-.13.35-.27.51-.43.17-.16.34-.34.51-.54h.28v8.61h-.25v-8.28h-.03Z"/>
            <path class="uuid-e3741aed-adf6-4cf1-b490-dfbaf8971e1a" d="m1068.75,172.19v-1.24h.25v1.24h-.25Z"/>
            <path class="uuid-e3741aed-adf6-4cf1-b490-dfbaf8971e1a" d="m1071.72,167.51h.03c.24-.41.57-.7.98-.89.41-.19.87-.28,1.37-.28.45,0,.85.07,1.22.22.36.15.67.35.94.61.26.26.46.58.61.94s.22.77.22,1.2c0,.46-.07.87-.22,1.24s-.35.69-.61.95c-.26.26-.58.46-.94.6-.36.14-.77.21-1.22.21s-.85-.07-1.22-.2c-.38-.13-.7-.32-.96-.56-.27-.25-.47-.55-.61-.91-.14-.36-.21-.77-.19-1.24h.25c-.02.42.04.8.17,1.13.13.33.31.61.55.84.24.23.53.4.88.52.35.12.73.18,1.14.18s.8-.06,1.13-.2c.33-.13.62-.32.86-.56s.42-.53.54-.87c.13-.34.19-.72.19-1.13s-.07-.76-.2-1.1c-.13-.33-.31-.62-.55-.86s-.52-.43-.86-.56-.71-.2-1.12-.2c-.51,0-.97.11-1.41.34-.43.22-.76.55-1,.98h-.32l.92-4.35h4.42v.25h-4.22l-.79,3.69Z"/>
          </g>
          <g class="uuid-c1bbc0ff-ba2c-48d9-93ea-a9c790cbc90d">
            <path class="uuid-e3741aed-adf6-4cf1-b490-dfbaf8971e1a" d="m1163.7,172.19h-5.8c0-.36.07-.69.23-.99.16-.3.37-.57.63-.83.26-.26.55-.5.88-.73.33-.23.65-.46.97-.69.33-.23.65-.46.96-.7.31-.24.59-.48.84-.74.24-.26.44-.53.59-.82.15-.29.22-.61.22-.94s-.06-.64-.18-.89c-.12-.26-.29-.47-.5-.65-.21-.17-.46-.3-.75-.39-.29-.09-.61-.13-.96-.13-.45,0-.83.07-1.15.2-.32.14-.58.32-.79.56-.2.24-.35.53-.44.86-.09.33-.14.7-.14,1.1h-.25c0-.95.24-1.68.7-2.2.46-.52,1.15-.78,2.07-.78.37,0,.72.05,1.04.15.32.1.6.24.84.44s.42.44.56.72.21.62.21,1.01c0,.47-.13.9-.38,1.29-.25.39-.57.75-.96,1.09-.38.34-.8.66-1.25.96-.45.3-.87.6-1.26.9s-.73.61-1.01.92c-.28.32-.44.66-.47,1.03h5.55v.25Z"/>
          </g>
          <g class="uuid-c1bbc0ff-ba2c-48d9-93ea-a9c790cbc90d">
            <path class="uuid-95b76854-0dab-44bf-966c-988c7ca6edaa" d="m1163.7,172.19h-5.8c0-.36.07-.69.23-.99.16-.3.37-.57.63-.83.26-.26.55-.5.88-.73.33-.23.65-.46.97-.69.33-.23.65-.46.96-.7.31-.24.59-.48.84-.74.24-.26.44-.53.59-.82.15-.29.22-.61.22-.94s-.06-.64-.18-.89c-.12-.26-.29-.47-.5-.65-.21-.17-.46-.3-.75-.39-.29-.09-.61-.13-.96-.13-.45,0-.83.07-1.15.2-.32.14-.58.32-.79.56-.2.24-.35.53-.44.86-.09.33-.14.7-.14,1.1h-.25c0-.95.24-1.68.7-2.2.46-.52,1.15-.78,2.07-.78.37,0,.72.05,1.04.15.32.1.6.24.84.44s.42.44.56.72.21.62.21,1.01c0,.47-.13.9-.38,1.29-.25.39-.57.75-.96,1.09-.38.34-.8.66-1.25.96-.45.3-.87.6-1.26.9s-.73.61-1.01.92c-.28.32-.44.66-.47,1.03h5.55v.25Z"/>
          </g>
          <g class="uuid-c1bbc0ff-ba2c-48d9-93ea-a9c790cbc90d">
            <path class="uuid-e3741aed-adf6-4cf1-b490-dfbaf8971e1a" d="m1163.7,172.19h-5.8c0-.36.07-.69.23-.99.16-.3.37-.57.63-.83.26-.26.55-.5.88-.73.33-.23.65-.46.97-.69.33-.23.65-.46.96-.7.31-.24.59-.48.84-.74.24-.26.44-.53.59-.82.15-.29.22-.61.22-.94s-.06-.64-.18-.89c-.12-.26-.29-.47-.5-.65-.21-.17-.46-.3-.75-.39-.29-.09-.61-.13-.96-.13-.45,0-.83.07-1.15.2-.32.14-.58.32-.79.56-.2.24-.35.53-.44.86-.09.33-.14.7-.14,1.1h-.25c0-.95.24-1.68.7-2.2.46-.52,1.15-.78,2.07-.78.37,0,.72.05,1.04.15.32.1.6.24.84.44s.42.44.56.72.21.62.21,1.01c0,.47-.13.9-.38,1.29-.25.39-.57.75-.96,1.09-.38.34-.8.66-1.25.96-.45.3-.87.6-1.26.9s-.73.61-1.01.92c-.28.32-.44.66-.47,1.03h5.55v.25Z"/>
          </g>
          <g class="uuid-c1bbc0ff-ba2c-48d9-93ea-a9c790cbc90d">
            <path class="uuid-e3741aed-adf6-4cf1-b490-dfbaf8971e1a" d="m1248.15,172.19h-5.8c0-.36.07-.69.23-.99.16-.3.37-.57.63-.83.26-.26.55-.5.88-.73.33-.23.65-.46.97-.69.33-.23.65-.46.96-.7.31-.24.59-.48.84-.74.24-.26.44-.53.59-.82.15-.29.22-.61.22-.94s-.06-.64-.18-.89c-.12-.26-.29-.47-.5-.65-.21-.17-.46-.3-.75-.39-.29-.09-.61-.13-.96-.13-.45,0-.83.07-1.15.2-.32.14-.58.32-.79.56-.2.24-.35.53-.44.86-.09.33-.14.7-.14,1.1h-.25c0-.95.24-1.68.7-2.2.46-.52,1.15-.78,2.07-.78.37,0,.72.05,1.04.15.32.1.6.24.84.44s.42.44.56.72.21.62.21,1.01c0,.47-.13.9-.38,1.29-.25.39-.57.75-.96,1.09-.38.34-.8.66-1.25.96-.45.3-.87.6-1.26.9s-.73.61-1.01.92c-.28.32-.44.66-.47,1.03h5.55v.25Z"/>
          </g>
          <g class="uuid-c1bbc0ff-ba2c-48d9-93ea-a9c790cbc90d">
            <path class="uuid-95b76854-0dab-44bf-966c-988c7ca6edaa" d="m1248.15,172.19h-5.8c0-.36.07-.69.23-.99.16-.3.37-.57.63-.83.26-.26.55-.5.88-.73.33-.23.65-.46.97-.69.33-.23.65-.46.96-.7.31-.24.59-.48.84-.74.24-.26.44-.53.59-.82.15-.29.22-.61.22-.94s-.06-.64-.18-.89c-.12-.26-.29-.47-.5-.65-.21-.17-.46-.3-.75-.39-.29-.09-.61-.13-.96-.13-.45,0-.83.07-1.15.2-.32.14-.58.32-.79.56-.2.24-.35.53-.44.86-.09.33-.14.7-.14,1.1h-.25c0-.95.24-1.68.7-2.2.46-.52,1.15-.78,2.07-.78.37,0,.72.05,1.04.15.32.1.6.24.84.44s.42.44.56.72.21.62.21,1.01c0,.47-.13.9-.38,1.29-.25.39-.57.75-.96,1.09-.38.34-.8.66-1.25.96-.45.3-.87.6-1.26.9s-.73.61-1.01.92c-.28.32-.44.66-.47,1.03h5.55v.25Z"/>
          </g>
          <g class="uuid-c1bbc0ff-ba2c-48d9-93ea-a9c790cbc90d">
            <path class="uuid-e3741aed-adf6-4cf1-b490-dfbaf8971e1a" d="m1248.15,172.19h-5.8c0-.36.07-.69.23-.99.16-.3.37-.57.63-.83.26-.26.55-.5.88-.73.33-.23.65-.46.97-.69.33-.23.65-.46.96-.7.31-.24.59-.48.84-.74.24-.26.44-.53.59-.82.15-.29.22-.61.22-.94s-.06-.64-.18-.89c-.12-.26-.29-.47-.5-.65-.21-.17-.46-.3-.75-.39-.29-.09-.61-.13-.96-.13-.45,0-.83.07-1.15.2-.32.14-.58.32-.79.56-.2.24-.35.53-.44.86-.09.33-.14.7-.14,1.1h-.25c0-.95.24-1.68.7-2.2.46-.52,1.15-.78,2.07-.78.37,0,.72.05,1.04.15.32.1.6.24.84.44s.42.44.56.72.21.62.21,1.01c0,.47-.13.9-.38,1.29-.25.39-.57.75-.96,1.09-.38.34-.8.66-1.25.96-.45.3-.87.6-1.26.9s-.73.61-1.01.92c-.28.32-.44.66-.47,1.03h5.55v.25Z"/>
          </g>
          <g class="uuid-c1bbc0ff-ba2c-48d9-93ea-a9c790cbc90d">
            <path class="uuid-e3741aed-adf6-4cf1-b490-dfbaf8971e1a" d="m781.38,974.14v.25h-6.33v-.25h6.33Z"/>
            <path class="uuid-e3741aed-adf6-4cf1-b490-dfbaf8971e1a" d="m782.68,976.59c.18.25.39.45.61.59.23.14.47.24.72.3s.48.08.69.08c.43,0,.8-.07,1.12-.22.32-.15.59-.35.81-.6s.41-.54.54-.87c.14-.33.25-.68.33-1.04.08-.36.13-.73.16-1.1s.03-.72.03-1.04h-.03c-.07.3-.19.59-.35.85s-.38.49-.63.69-.53.35-.84.46c-.31.11-.64.16-.99.16-.37,0-.74-.07-1.1-.21-.36-.14-.68-.35-.96-.61-.28-.26-.5-.58-.67-.94-.17-.37-.25-.77-.25-1.21s.08-.83.24-1.19c.16-.36.38-.68.65-.94s.59-.47.95-.62c.36-.15.74-.22,1.13-.22.3,0,.57.04.83.12.26.08.49.18.7.31.21.13.4.27.56.43.17.16.3.33.41.49.25.38.41.81.48,1.3.07.49.1,1.01.1,1.56s-.05,1.09-.15,1.64-.28,1.06-.53,1.51c-.25.45-.58.82-1,1.11s-.94.43-1.58.43c-.37,0-.71-.06-1.02-.17-.31-.11-.58-.26-.8-.46-.23-.19-.41-.42-.56-.69s-.24-.55-.28-.86h.25c.08.39.22.71.4.96Zm4.68-5.78c-.14-.33-.34-.62-.58-.86s-.53-.44-.86-.58-.68-.21-1.06-.21-.73.07-1.06.21c-.33.14-.62.34-.86.58-.25.25-.44.53-.58.86s-.22.68-.22,1.06.07.73.22,1.06c.14.33.34.62.58.86s.53.44.86.58c.33.14.68.22,1.06.22s.74-.07,1.06-.22.62-.34.86-.58c.25-.25.44-.53.58-.86.14-.33.21-.68.21-1.06s-.07-.74-.21-1.06Z"/>
          </g>
          <g class="uuid-c1bbc0ff-ba2c-48d9-93ea-a9c790cbc90d">
            <path class="uuid-95b76854-0dab-44bf-966c-988c7ca6edaa" d="m781.38,974.14v.25h-6.33v-.25h6.33Z"/>
            <path class="uuid-95b76854-0dab-44bf-966c-988c7ca6edaa" d="m782.68,976.59c.18.25.39.45.61.59.23.14.47.24.72.3s.48.08.69.08c.43,0,.8-.07,1.12-.22.32-.15.59-.35.81-.6s.41-.54.54-.87c.14-.33.25-.68.33-1.04.08-.36.13-.73.16-1.1s.03-.72.03-1.04h-.03c-.07.3-.19.59-.35.85s-.38.49-.63.69-.53.35-.84.46c-.31.11-.64.16-.99.16-.37,0-.74-.07-1.1-.21-.36-.14-.68-.35-.96-.61-.28-.26-.5-.58-.67-.94-.17-.37-.25-.77-.25-1.21s.08-.83.24-1.19c.16-.36.38-.68.65-.94s.59-.47.95-.62c.36-.15.74-.22,1.13-.22.3,0,.57.04.83.12.26.08.49.18.7.31.21.13.4.27.56.43.17.16.3.33.41.49.25.38.41.81.48,1.3.07.49.1,1.01.1,1.56s-.05,1.09-.15,1.64-.28,1.06-.53,1.51c-.25.45-.58.82-1,1.11s-.94.43-1.58.43c-.37,0-.71-.06-1.02-.17-.31-.11-.58-.26-.8-.46-.23-.19-.41-.42-.56-.69s-.24-.55-.28-.86h.25c.08.39.22.71.4.96Zm4.68-5.78c-.14-.33-.34-.62-.58-.86s-.53-.44-.86-.58-.68-.21-1.06-.21-.73.07-1.06.21c-.33.14-.62.34-.86.58-.25.25-.44.53-.58.86s-.22.68-.22,1.06.07.73.22,1.06c.14.33.34.62.58.86s.53.44.86.58c.33.14.68.22,1.06.22s.74-.07,1.06-.22.62-.34.86-.58c.25-.25.44-.53.58-.86.14-.33.21-.68.21-1.06s-.07-.74-.21-1.06Z"/>
          </g>
          <g class="uuid-c1bbc0ff-ba2c-48d9-93ea-a9c790cbc90d">
            <path class="uuid-e3741aed-adf6-4cf1-b490-dfbaf8971e1a" d="m781.38,974.14v.25h-6.33v-.25h6.33Z"/>
            <path class="uuid-e3741aed-adf6-4cf1-b490-dfbaf8971e1a" d="m782.68,976.59c.18.25.39.45.61.59.23.14.47.24.72.3s.48.08.69.08c.43,0,.8-.07,1.12-.22.32-.15.59-.35.81-.6s.41-.54.54-.87c.14-.33.25-.68.33-1.04.08-.36.13-.73.16-1.1s.03-.72.03-1.04h-.03c-.07.3-.19.59-.35.85s-.38.49-.63.69-.53.35-.84.46c-.31.11-.64.16-.99.16-.37,0-.74-.07-1.1-.21-.36-.14-.68-.35-.96-.61-.28-.26-.5-.58-.67-.94-.17-.37-.25-.77-.25-1.21s.08-.83.24-1.19c.16-.36.38-.68.65-.94s.59-.47.95-.62c.36-.15.74-.22,1.13-.22.3,0,.57.04.83.12.26.08.49.18.7.31.21.13.4.27.56.43.17.16.3.33.41.49.25.38.41.81.48,1.3.07.49.1,1.01.1,1.56s-.05,1.09-.15,1.64-.28,1.06-.53,1.51c-.25.45-.58.82-1,1.11s-.94.43-1.58.43c-.37,0-.71-.06-1.02-.17-.31-.11-.58-.26-.8-.46-.23-.19-.41-.42-.56-.69s-.24-.55-.28-.86h.25c.08.39.22.71.4.96Zm4.68-5.78c-.14-.33-.34-.62-.58-.86s-.53-.44-.86-.58-.68-.21-1.06-.21-.73.07-1.06.21c-.33.14-.62.34-.86.58-.25.25-.44.53-.58.86s-.22.68-.22,1.06.07.73.22,1.06c.14.33.34.62.58.86s.53.44.86.58c.33.14.68.22,1.06.22s.74-.07,1.06-.22.62-.34.86-.58c.25-.25.44-.53.58-.86.14-.33.21-.68.21-1.06s-.07-.74-.21-1.06Z"/>
          </g>
          <g class="uuid-c1bbc0ff-ba2c-48d9-93ea-a9c790cbc90d">
            <path class="uuid-e3741aed-adf6-4cf1-b490-dfbaf8971e1a" d="m781.38,883.35v.25h-6.33v-.25h6.33Z"/>
            <path class="uuid-e3741aed-adf6-4cf1-b490-dfbaf8971e1a" d="m787.44,882.86c.39.41.59.94.59,1.6,0,.45-.08.83-.25,1.15s-.39.58-.68.79-.61.36-.99.46c-.38.1-.78.15-1.2.15s-.82-.05-1.2-.15c-.38-.1-.71-.25-.99-.46-.28-.21-.51-.47-.68-.79-.17-.32-.25-.71-.25-1.15,0-.66.2-1.19.59-1.6.39-.41.93-.65,1.62-.72v-.03c-.25-.03-.47-.1-.69-.21-.21-.11-.4-.24-.56-.39s-.29-.34-.38-.55-.14-.44-.14-.68c0-.39.07-.72.21-1,.14-.27.33-.5.58-.68.25-.18.53-.31.86-.39.33-.08.68-.12,1.05-.12s.72.04,1.05.12c.33.08.62.21.86.39.25.18.44.4.58.68.14.27.21.61.21,1,0,.24-.05.47-.14.68-.09.21-.22.39-.38.55-.16.16-.35.29-.56.39-.21.11-.45.18-.69.21v.03c.68.07,1.22.31,1.62.72Zm.09.56c-.16-.28-.37-.5-.64-.67-.27-.17-.57-.29-.92-.36-.35-.07-.71-.11-1.08-.11s-.73.04-1.08.11c-.35.07-.65.19-.92.36-.27.17-.48.39-.64.67-.16.28-.24.62-.24,1.04s.08.77.23,1.06c.16.29.37.53.63.72.27.19.57.32.92.41.35.08.71.13,1.09.13s.74-.04,1.09-.13c.35-.08.65-.22.92-.41.27-.19.48-.42.63-.72.16-.29.23-.64.23-1.06s-.08-.76-.24-1.04Zm-.4-4.07c-.14-.25-.32-.44-.55-.59-.23-.15-.49-.25-.78-.32-.29-.06-.59-.09-.91-.09s-.61.03-.91.09c-.29.06-.55.17-.78.32-.23.15-.41.34-.55.59-.14.24-.21.55-.21.92,0,.3.07.57.22.79.15.22.34.41.57.54s.49.24.79.31c.29.07.58.1.87.1s.58-.03.87-.1c.29-.07.55-.17.79-.31s.42-.32.57-.54c.15-.22.22-.49.22-.79,0-.37-.07-.68-.21-.92Z"/>
          </g>
          <g class="uuid-c1bbc0ff-ba2c-48d9-93ea-a9c790cbc90d">
            <path class="uuid-95b76854-0dab-44bf-966c-988c7ca6edaa" d="m781.38,883.35v.25h-6.33v-.25h6.33Z"/>
            <path class="uuid-95b76854-0dab-44bf-966c-988c7ca6edaa" d="m787.44,882.86c.39.41.59.94.59,1.6,0,.45-.08.83-.25,1.15s-.39.58-.68.79-.61.36-.99.46c-.38.1-.78.15-1.2.15s-.82-.05-1.2-.15c-.38-.1-.71-.25-.99-.46-.28-.21-.51-.47-.68-.79-.17-.32-.25-.71-.25-1.15,0-.66.2-1.19.59-1.6.39-.41.93-.65,1.62-.72v-.03c-.25-.03-.47-.1-.69-.21-.21-.11-.4-.24-.56-.39s-.29-.34-.38-.55-.14-.44-.14-.68c0-.39.07-.72.21-1,.14-.27.33-.5.58-.68.25-.18.53-.31.86-.39.33-.08.68-.12,1.05-.12s.72.04,1.05.12c.33.08.62.21.86.39.25.18.44.4.58.68.14.27.21.61.21,1,0,.24-.05.47-.14.68-.09.21-.22.39-.38.55-.16.16-.35.29-.56.39-.21.11-.45.18-.69.21v.03c.68.07,1.22.31,1.62.72Zm.09.56c-.16-.28-.37-.5-.64-.67-.27-.17-.57-.29-.92-.36-.35-.07-.71-.11-1.08-.11s-.73.04-1.08.11c-.35.07-.65.19-.92.36-.27.17-.48.39-.64.67-.16.28-.24.62-.24,1.04s.08.77.23,1.06c.16.29.37.53.63.72.27.19.57.32.92.41.35.08.71.13,1.09.13s.74-.04,1.09-.13c.35-.08.65-.22.92-.41.27-.19.48-.42.63-.72.16-.29.23-.64.23-1.06s-.08-.76-.24-1.04Zm-.4-4.07c-.14-.25-.32-.44-.55-.59-.23-.15-.49-.25-.78-.32-.29-.06-.59-.09-.91-.09s-.61.03-.91.09c-.29.06-.55.17-.78.32-.23.15-.41.34-.55.59-.14.24-.21.55-.21.92,0,.3.07.57.22.79.15.22.34.41.57.54s.49.24.79.31c.29.07.58.1.87.1s.58-.03.87-.1c.29-.07.55-.17.79-.31s.42-.32.57-.54c.15-.22.22-.49.22-.79,0-.37-.07-.68-.21-.92Z"/>
          </g>
          <g class="uuid-c1bbc0ff-ba2c-48d9-93ea-a9c790cbc90d">
            <path class="uuid-e3741aed-adf6-4cf1-b490-dfbaf8971e1a" d="m781.38,883.35v.25h-6.33v-.25h6.33Z"/>
            <path class="uuid-e3741aed-adf6-4cf1-b490-dfbaf8971e1a" d="m787.44,882.86c.39.41.59.94.59,1.6,0,.45-.08.83-.25,1.15s-.39.58-.68.79-.61.36-.99.46c-.38.1-.78.15-1.2.15s-.82-.05-1.2-.15c-.38-.1-.71-.25-.99-.46-.28-.21-.51-.47-.68-.79-.17-.32-.25-.71-.25-1.15,0-.66.2-1.19.59-1.6.39-.41.93-.65,1.62-.72v-.03c-.25-.03-.47-.1-.69-.21-.21-.11-.4-.24-.56-.39s-.29-.34-.38-.55-.14-.44-.14-.68c0-.39.07-.72.21-1,.14-.27.33-.5.58-.68.25-.18.53-.31.86-.39.33-.08.68-.12,1.05-.12s.72.04,1.05.12c.33.08.62.21.86.39.25.18.44.4.58.68.14.27.21.61.21,1,0,.24-.05.47-.14.68-.09.21-.22.39-.38.55-.16.16-.35.29-.56.39-.21.11-.45.18-.69.21v.03c.68.07,1.22.31,1.62.72Zm.09.56c-.16-.28-.37-.5-.64-.67-.27-.17-.57-.29-.92-.36-.35-.07-.71-.11-1.08-.11s-.73.04-1.08.11c-.35.07-.65.19-.92.36-.27.17-.48.39-.64.67-.16.28-.24.62-.24,1.04s.08.77.23,1.06c.16.29.37.53.63.72.27.19.57.32.92.41.35.08.71.13,1.09.13s.74-.04,1.09-.13c.35-.08.65-.22.92-.41.27-.19.48-.42.63-.72.16-.29.23-.64.23-1.06s-.08-.76-.24-1.04Zm-.4-4.07c-.14-.25-.32-.44-.55-.59-.23-.15-.49-.25-.78-.32-.29-.06-.59-.09-.91-.09s-.61.03-.91.09c-.29.06-.55.17-.78.32-.23.15-.41.34-.55.59-.14.24-.21.55-.21.92,0,.3.07.57.22.79.15.22.34.41.57.54s.49.24.79.31c.29.07.58.1.87.1s.58-.03.87-.1c.29-.07.55-.17.79-.31s.42-.32.57-.54c.15-.22.22-.49.22-.79,0-.37-.07-.68-.21-.92Z"/>
          </g>
          <g class="uuid-c1bbc0ff-ba2c-48d9-93ea-a9c790cbc90d">
            <path class="uuid-e3741aed-adf6-4cf1-b490-dfbaf8971e1a" d="m781.38,792.57v.25h-6.33v-.25h6.33Z"/>
            <path class="uuid-e3741aed-adf6-4cf1-b490-dfbaf8971e1a" d="m782.15,787.47h5.5v.34c-.58.58-1.11,1.18-1.6,1.8-.48.62-.89,1.26-1.23,1.93-.34.67-.6,1.38-.79,2.13-.19.75-.28,1.55-.28,2.41h-.25c0-.84.08-1.65.26-2.41.18-.76.44-1.48.79-2.17.34-.69.75-1.34,1.23-1.97.48-.62,1.01-1.23,1.59-1.81h-5.22v-.25Z"/>
          </g>
          <g class="uuid-c1bbc0ff-ba2c-48d9-93ea-a9c790cbc90d">
            <path class="uuid-95b76854-0dab-44bf-966c-988c7ca6edaa" d="m781.38,792.57v.25h-6.33v-.25h6.33Z"/>
            <path class="uuid-95b76854-0dab-44bf-966c-988c7ca6edaa" d="m782.15,787.47h5.5v.34c-.58.58-1.11,1.18-1.6,1.8-.48.62-.89,1.26-1.23,1.93-.34.67-.6,1.38-.79,2.13-.19.75-.28,1.55-.28,2.41h-.25c0-.84.08-1.65.26-2.41.18-.76.44-1.48.79-2.17.34-.69.75-1.34,1.23-1.97.48-.62,1.01-1.23,1.59-1.81h-5.22v-.25Z"/>
          </g>
          <g class="uuid-c1bbc0ff-ba2c-48d9-93ea-a9c790cbc90d">
            <path class="uuid-e3741aed-adf6-4cf1-b490-dfbaf8971e1a" d="m781.38,792.57v.25h-6.33v-.25h6.33Z"/>
            <path class="uuid-e3741aed-adf6-4cf1-b490-dfbaf8971e1a" d="m782.15,787.47h5.5v.34c-.58.58-1.11,1.18-1.6,1.8-.48.62-.89,1.26-1.23,1.93-.34.67-.6,1.38-.79,2.13-.19.75-.28,1.55-.28,2.41h-.25c0-.84.08-1.65.26-2.41.18-.76.44-1.48.79-2.17.34-.69.75-1.34,1.23-1.97.48-.62,1.01-1.23,1.59-1.81h-5.22v-.25Z"/>
          </g>
          <g class="uuid-c1bbc0ff-ba2c-48d9-93ea-a9c790cbc90d">
            <path class="uuid-e3741aed-adf6-4cf1-b490-dfbaf8971e1a" d="m781.38,701.78v.25h-6.33v-.25h6.33Z"/>
            <path class="uuid-e3741aed-adf6-4cf1-b490-dfbaf8971e1a" d="m787.12,697.75c-.18-.25-.39-.45-.61-.59-.23-.14-.46-.24-.71-.3s-.48-.08-.7-.08c-.64,0-1.16.16-1.56.48-.4.32-.7.73-.92,1.22-.22.49-.36,1.02-.42,1.58-.07.57-.1,1.1-.09,1.6h.03c.06-.3.18-.59.35-.85s.38-.49.63-.69c.25-.2.53-.35.85-.46.32-.11.64-.16.98-.16.37,0,.74.07,1.1.21.36.14.68.35.96.61.28.26.5.57.67.94s.25.77.25,1.22-.08.83-.24,1.19-.38.68-.65.94-.59.47-.95.61c-.36.15-.74.22-1.13.22-.3,0-.57-.04-.83-.11-.26-.08-.49-.18-.7-.3-.21-.13-.4-.27-.56-.43-.16-.16-.3-.33-.41-.49-.25-.38-.4-.81-.47-1.3-.07-.49-.1-1.01-.1-1.56s.05-1.08.15-1.63c.1-.56.28-1.06.53-1.52s.58-.83.99-1.12.94-.43,1.57-.43c.37,0,.71.06,1.02.17.31.11.58.27.8.46.23.19.41.42.56.69.14.27.24.55.28.86h-.25c-.08-.39-.22-.71-.4-.96Zm.34,3.66c-.14-.33-.34-.62-.58-.86-.25-.24-.53-.44-.86-.58s-.68-.22-1.06-.22-.73.07-1.06.22c-.33.14-.62.34-.86.58-.25.25-.44.53-.58.86-.14.33-.22.68-.22,1.06s.07.74.22,1.06.34.62.58.86.53.44.86.58c.33.14.68.21,1.06.21s.74-.07,1.06-.21.62-.34.86-.58.44-.53.58-.86c.14-.33.21-.68.21-1.06s-.07-.73-.21-1.06Z"/>
          </g>
          <g class="uuid-c1bbc0ff-ba2c-48d9-93ea-a9c790cbc90d">
            <path class="uuid-95b76854-0dab-44bf-966c-988c7ca6edaa" d="m781.38,701.78v.25h-6.33v-.25h6.33Z"/>
            <path class="uuid-95b76854-0dab-44bf-966c-988c7ca6edaa" d="m787.12,697.75c-.18-.25-.39-.45-.61-.59-.23-.14-.46-.24-.71-.3s-.48-.08-.7-.08c-.64,0-1.16.16-1.56.48-.4.32-.7.73-.92,1.22-.22.49-.36,1.02-.42,1.58-.07.57-.1,1.1-.09,1.6h.03c.06-.3.18-.59.35-.85s.38-.49.63-.69c.25-.2.53-.35.85-.46.32-.11.64-.16.98-.16.37,0,.74.07,1.1.21.36.14.68.35.96.61.28.26.5.57.67.94s.25.77.25,1.22-.08.83-.24,1.19-.38.68-.65.94-.59.47-.95.61c-.36.15-.74.22-1.13.22-.3,0-.57-.04-.83-.11-.26-.08-.49-.18-.7-.3-.21-.13-.4-.27-.56-.43-.16-.16-.3-.33-.41-.49-.25-.38-.4-.81-.47-1.3-.07-.49-.1-1.01-.1-1.56s.05-1.08.15-1.63c.1-.56.28-1.06.53-1.52s.58-.83.99-1.12.94-.43,1.57-.43c.37,0,.71.06,1.02.17.31.11.58.27.8.46.23.19.41.42.56.69.14.27.24.55.28.86h-.25c-.08-.39-.22-.71-.4-.96Zm.34,3.66c-.14-.33-.34-.62-.58-.86-.25-.24-.53-.44-.86-.58s-.68-.22-1.06-.22-.73.07-1.06.22c-.33.14-.62.34-.86.58-.25.25-.44.53-.58.86-.14.33-.22.68-.22,1.06s.07.74.22,1.06.34.62.58.86.53.44.86.58c.33.14.68.21,1.06.21s.74-.07,1.06-.21.62-.34.86-.58.44-.53.58-.86c.14-.33.21-.68.21-1.06s-.07-.73-.21-1.06Z"/>
          </g>
          <g class="uuid-c1bbc0ff-ba2c-48d9-93ea-a9c790cbc90d">
            <path class="uuid-e3741aed-adf6-4cf1-b490-dfbaf8971e1a" d="m781.38,701.78v.25h-6.33v-.25h6.33Z"/>
            <path class="uuid-e3741aed-adf6-4cf1-b490-dfbaf8971e1a" d="m787.12,697.75c-.18-.25-.39-.45-.61-.59-.23-.14-.46-.24-.71-.3s-.48-.08-.7-.08c-.64,0-1.16.16-1.56.48-.4.32-.7.73-.92,1.22-.22.49-.36,1.02-.42,1.58-.07.57-.1,1.1-.09,1.6h.03c.06-.3.18-.59.35-.85s.38-.49.63-.69c.25-.2.53-.35.85-.46.32-.11.64-.16.98-.16.37,0,.74.07,1.1.21.36.14.68.35.96.61.28.26.5.57.67.94s.25.77.25,1.22-.08.83-.24,1.19-.38.68-.65.94-.59.47-.95.61c-.36.15-.74.22-1.13.22-.3,0-.57-.04-.83-.11-.26-.08-.49-.18-.7-.3-.21-.13-.4-.27-.56-.43-.16-.16-.3-.33-.41-.49-.25-.38-.4-.81-.47-1.3-.07-.49-.1-1.01-.1-1.56s.05-1.08.15-1.63c.1-.56.28-1.06.53-1.52s.58-.83.99-1.12.94-.43,1.57-.43c.37,0,.71.06,1.02.17.31.11.58.27.8.46.23.19.41.42.56.69.14.27.24.55.28.86h-.25c-.08-.39-.22-.71-.4-.96Zm.34,3.66c-.14-.33-.34-.62-.58-.86-.25-.24-.53-.44-.86-.58s-.68-.22-1.06-.22-.73.07-1.06.22c-.33.14-.62.34-.86.58-.25.25-.44.53-.58.86-.14.33-.22.68-.22,1.06s.07.74.22,1.06.34.62.58.86.53.44.86.58c.33.14.68.21,1.06.21s.74-.07,1.06-.21.62-.34.86-.58.44-.53.58-.86c.14-.33.21-.68.21-1.06s-.07-.73-.21-1.06Z"/>
          </g>
          <g class="uuid-c1bbc0ff-ba2c-48d9-93ea-a9c790cbc90d">
            <path class="uuid-e3741aed-adf6-4cf1-b490-dfbaf8971e1a" d="m781.38,610.99v.25h-6.33v-.25h6.33Z"/>
            <path class="uuid-e3741aed-adf6-4cf1-b490-dfbaf8971e1a" d="m782.46,609.84h.03c.24-.41.57-.7.98-.89.41-.19.87-.28,1.37-.28.45,0,.85.07,1.22.22.36.15.67.35.94.61.26.26.46.58.61.94.14.37.22.77.22,1.2,0,.46-.07.87-.22,1.24-.14.37-.35.69-.61.95-.26.26-.58.46-.94.6-.36.14-.77.21-1.22.21s-.85-.07-1.22-.2c-.38-.13-.7-.32-.96-.56-.27-.24-.47-.55-.61-.91-.14-.36-.21-.77-.19-1.24h.25c-.02.42.04.8.17,1.13.13.33.31.61.55.84.24.23.53.4.88.52.35.12.73.18,1.14.18s.8-.07,1.13-.2c.33-.13.62-.32.86-.56.24-.24.42-.53.54-.87.13-.34.19-.72.19-1.13s-.07-.76-.2-1.1c-.13-.33-.31-.62-.55-.86-.24-.24-.52-.43-.86-.56s-.71-.2-1.12-.2c-.51,0-.97.11-1.41.34-.43.22-.76.55-1,.98h-.32l.92-4.34h4.42v.25h-4.22l-.79,3.69Z"/>
          </g>
          <g class="uuid-c1bbc0ff-ba2c-48d9-93ea-a9c790cbc90d">
            <path class="uuid-95b76854-0dab-44bf-966c-988c7ca6edaa" d="m781.38,610.99v.25h-6.33v-.25h6.33Z"/>
            <path class="uuid-95b76854-0dab-44bf-966c-988c7ca6edaa" d="m782.46,609.84h.03c.24-.41.57-.7.98-.89.41-.19.87-.28,1.37-.28.45,0,.85.07,1.22.22.36.15.67.35.94.61.26.26.46.58.61.94.14.37.22.77.22,1.2,0,.46-.07.87-.22,1.24-.14.37-.35.69-.61.95-.26.26-.58.46-.94.6-.36.14-.77.21-1.22.21s-.85-.07-1.22-.2c-.38-.13-.7-.32-.96-.56-.27-.24-.47-.55-.61-.91-.14-.36-.21-.77-.19-1.24h.25c-.02.42.04.8.17,1.13.13.33.31.61.55.84.24.23.53.4.88.52.35.12.73.18,1.14.18s.8-.07,1.13-.2c.33-.13.62-.32.86-.56.24-.24.42-.53.54-.87.13-.34.19-.72.19-1.13s-.07-.76-.2-1.1c-.13-.33-.31-.62-.55-.86-.24-.24-.52-.43-.86-.56s-.71-.2-1.12-.2c-.51,0-.97.11-1.41.34-.43.22-.76.55-1,.98h-.32l.92-4.34h4.42v.25h-4.22l-.79,3.69Z"/>
          </g>
          <g class="uuid-c1bbc0ff-ba2c-48d9-93ea-a9c790cbc90d">
            <path class="uuid-e3741aed-adf6-4cf1-b490-dfbaf8971e1a" d="m781.38,610.99v.25h-6.33v-.25h6.33Z"/>
            <path class="uuid-e3741aed-adf6-4cf1-b490-dfbaf8971e1a" d="m782.46,609.84h.03c.24-.41.57-.7.98-.89.41-.19.87-.28,1.37-.28.45,0,.85.07,1.22.22.36.15.67.35.94.61.26.26.46.58.61.94.14.37.22.77.22,1.2,0,.46-.07.87-.22,1.24-.14.37-.35.69-.61.95-.26.26-.58.46-.94.6-.36.14-.77.21-1.22.21s-.85-.07-1.22-.2c-.38-.13-.7-.32-.96-.56-.27-.24-.47-.55-.61-.91-.14-.36-.21-.77-.19-1.24h.25c-.02.42.04.8.17,1.13.13.33.31.61.55.84.24.23.53.4.88.52.35.12.73.18,1.14.18s.8-.07,1.13-.2c.33-.13.62-.32.86-.56.24-.24.42-.53.54-.87.13-.34.19-.72.19-1.13s-.07-.76-.2-1.1c-.13-.33-.31-.62-.55-.86-.24-.24-.52-.43-.86-.56s-.71-.2-1.12-.2c-.51,0-.97.11-1.41.34-.43.22-.76.55-1,.98h-.32l.92-4.34h4.42v.25h-4.22l-.79,3.69Z"/>
          </g>
          <g class="uuid-c1bbc0ff-ba2c-48d9-93ea-a9c790cbc90d">
            <path class="uuid-e3741aed-adf6-4cf1-b490-dfbaf8971e1a" d="m781.38,520.2v.25h-6.33v-.25h6.33Z"/>
            <path class="uuid-e3741aed-adf6-4cf1-b490-dfbaf8971e1a" d="m781.81,521.18l4.31-6.07h.32v6.12h1.56v.25h-1.56v2.24h-.25v-2.24h-4.37v-.3Zm4.34-5.71l-4.09,5.76h4.12v-5.76h-.03Z"/>
          </g>
          <g class="uuid-c1bbc0ff-ba2c-48d9-93ea-a9c790cbc90d">
            <path class="uuid-95b76854-0dab-44bf-966c-988c7ca6edaa" d="m781.38,520.2v.25h-6.33v-.25h6.33Z"/>
            <path class="uuid-95b76854-0dab-44bf-966c-988c7ca6edaa" d="m781.81,521.18l4.31-6.07h.32v6.12h1.56v.25h-1.56v2.24h-.25v-2.24h-4.37v-.3Zm4.34-5.71l-4.09,5.76h4.12v-5.76h-.03Z"/>
          </g>
          <g class="uuid-c1bbc0ff-ba2c-48d9-93ea-a9c790cbc90d">
            <path class="uuid-e3741aed-adf6-4cf1-b490-dfbaf8971e1a" d="m781.38,520.2v.25h-6.33v-.25h6.33Z"/>
            <path class="uuid-e3741aed-adf6-4cf1-b490-dfbaf8971e1a" d="m781.81,521.18l4.31-6.07h.32v6.12h1.56v.25h-1.56v2.24h-.25v-2.24h-4.37v-.3Zm4.34-5.71l-4.09,5.76h4.12v-5.76h-.03Z"/>
          </g>
          <g class="uuid-c1bbc0ff-ba2c-48d9-93ea-a9c790cbc90d">
            <path class="uuid-e3741aed-adf6-4cf1-b490-dfbaf8971e1a" d="m781.38,429.41v.25h-6.33v-.25h6.33Z"/>
            <path class="uuid-e3741aed-adf6-4cf1-b490-dfbaf8971e1a" d="m782.32,425.76c.13-.35.33-.64.59-.88s.57-.41.94-.53.77-.18,1.22-.18c.35,0,.68.04,1,.11.32.08.61.2.86.37.25.17.46.39.61.66.15.27.23.6.23.98,0,.61-.18,1.08-.53,1.42-.35.34-.79.53-1.32.58v.03c.25.03.5.09.74.18.24.1.46.24.65.42.19.18.34.41.46.68.11.27.17.59.17.96,0,.41-.08.76-.23,1.08-.16.31-.37.58-.63.79s-.57.38-.92.49c-.35.11-.72.16-1.12.16-.49,0-.93-.07-1.33-.2-.4-.13-.73-.33-1.01-.59-.28-.26-.49-.58-.63-.96s-.19-.81-.16-1.3h.25c-.03.46.01.86.14,1.21.13.35.32.64.57.88.25.24.57.42.94.54.37.12.78.18,1.23.18.35,0,.68-.05,1-.15.32-.1.6-.24.85-.44s.44-.43.59-.72c.15-.28.22-.61.22-.98s-.06-.69-.18-.95-.3-.48-.52-.65-.49-.3-.79-.38c-.3-.08-.63-.13-.98-.15h-.62v-.25h.62c.28,0,.55-.03.83-.1.27-.06.52-.17.74-.32s.4-.34.53-.58c.13-.24.2-.54.2-.89,0-.35-.08-.64-.23-.87-.14-.24-.33-.43-.56-.58-.23-.15-.49-.25-.77-.32s-.58-.09-.89-.09c-.41,0-.79.05-1.12.16-.33.11-.62.27-.86.48s-.42.48-.54.8c-.12.32-.18.7-.17,1.13h-.25c0-.47.05-.88.19-1.23Z"/>
          </g>
          <g class="uuid-c1bbc0ff-ba2c-48d9-93ea-a9c790cbc90d">
            <path class="uuid-95b76854-0dab-44bf-966c-988c7ca6edaa" d="m781.38,429.41v.25h-6.33v-.25h6.33Z"/>
            <path class="uuid-95b76854-0dab-44bf-966c-988c7ca6edaa" d="m782.32,425.76c.13-.35.33-.64.59-.88s.57-.41.94-.53.77-.18,1.22-.18c.35,0,.68.04,1,.11.32.08.61.2.86.37.25.17.46.39.61.66.15.27.23.6.23.98,0,.61-.18,1.08-.53,1.42-.35.34-.79.53-1.32.58v.03c.25.03.5.09.74.18.24.1.46.24.65.42.19.18.34.41.46.68.11.27.17.59.17.96,0,.41-.08.76-.23,1.08-.16.31-.37.58-.63.79s-.57.38-.92.49c-.35.11-.72.16-1.12.16-.49,0-.93-.07-1.33-.2-.4-.13-.73-.33-1.01-.59-.28-.26-.49-.58-.63-.96s-.19-.81-.16-1.3h.25c-.03.46.01.86.14,1.21.13.35.32.64.57.88.25.24.57.42.94.54.37.12.78.18,1.23.18.35,0,.68-.05,1-.15.32-.1.6-.24.85-.44s.44-.43.59-.72c.15-.28.22-.61.22-.98s-.06-.69-.18-.95-.3-.48-.52-.65-.49-.3-.79-.38c-.3-.08-.63-.13-.98-.15h-.62v-.25h.62c.28,0,.55-.03.83-.1.27-.06.52-.17.74-.32s.4-.34.53-.58c.13-.24.2-.54.2-.89,0-.35-.08-.64-.23-.87-.14-.24-.33-.43-.56-.58-.23-.15-.49-.25-.77-.32s-.58-.09-.89-.09c-.41,0-.79.05-1.12.16-.33.11-.62.27-.86.48s-.42.48-.54.8c-.12.32-.18.7-.17,1.13h-.25c0-.47.05-.88.19-1.23Z"/>
          </g>
          <g class="uuid-c1bbc0ff-ba2c-48d9-93ea-a9c790cbc90d">
            <path class="uuid-e3741aed-adf6-4cf1-b490-dfbaf8971e1a" d="m781.38,429.41v.25h-6.33v-.25h6.33Z"/>
            <path class="uuid-e3741aed-adf6-4cf1-b490-dfbaf8971e1a" d="m782.32,425.76c.13-.35.33-.64.59-.88s.57-.41.94-.53.77-.18,1.22-.18c.35,0,.68.04,1,.11.32.08.61.2.86.37.25.17.46.39.61.66.15.27.23.6.23.98,0,.61-.18,1.08-.53,1.42-.35.34-.79.53-1.32.58v.03c.25.03.5.09.74.18.24.1.46.24.65.42.19.18.34.41.46.68.11.27.17.59.17.96,0,.41-.08.76-.23,1.08-.16.31-.37.58-.63.79s-.57.38-.92.49c-.35.11-.72.16-1.12.16-.49,0-.93-.07-1.33-.2-.4-.13-.73-.33-1.01-.59-.28-.26-.49-.58-.63-.96s-.19-.81-.16-1.3h.25c-.03.46.01.86.14,1.21.13.35.32.64.57.88.25.24.57.42.94.54.37.12.78.18,1.23.18.35,0,.68-.05,1-.15.32-.1.6-.24.85-.44s.44-.43.59-.72c.15-.28.22-.61.22-.98s-.06-.69-.18-.95-.3-.48-.52-.65-.49-.3-.79-.38c-.3-.08-.63-.13-.98-.15h-.62v-.25h.62c.28,0,.55-.03.83-.1.27-.06.52-.17.74-.32s.4-.34.53-.58c.13-.24.2-.54.2-.89,0-.35-.08-.64-.23-.87-.14-.24-.33-.43-.56-.58-.23-.15-.49-.25-.77-.32s-.58-.09-.89-.09c-.41,0-.79.05-1.12.16-.33.11-.62.27-.86.48s-.42.48-.54.8c-.12.32-.18.7-.17,1.13h-.25c0-.47.05-.88.19-1.23Z"/>
          </g>
          <g class="uuid-c1bbc0ff-ba2c-48d9-93ea-a9c790cbc90d">
            <path class="uuid-e3741aed-adf6-4cf1-b490-dfbaf8971e1a" d="m781.38,338.63v.25h-6.33v-.25h6.33Z"/>
            <path class="uuid-e3741aed-adf6-4cf1-b490-dfbaf8971e1a" d="m787.88,342.15h-5.8c0-.36.07-.69.23-.99.16-.3.37-.57.63-.83.26-.26.55-.5.88-.73.33-.23.65-.46.97-.69.33-.23.65-.46.96-.7.31-.24.59-.48.84-.74.24-.26.44-.53.59-.82.15-.29.22-.61.22-.94s-.06-.64-.18-.89c-.12-.26-.29-.47-.5-.65-.21-.17-.46-.3-.75-.39-.29-.09-.61-.13-.96-.13-.45,0-.83.07-1.15.2-.32.14-.58.32-.79.56-.2.24-.35.53-.44.86-.09.33-.14.7-.14,1.1h-.25c0-.95.24-1.68.7-2.2.46-.52,1.15-.78,2.07-.78.37,0,.72.05,1.04.15.32.1.6.24.84.44s.42.44.56.72.21.62.21,1.01c0,.47-.13.9-.38,1.29-.25.39-.57.75-.96,1.09-.38.34-.8.66-1.25.96-.45.3-.87.6-1.26.9s-.73.61-1.01.92c-.28.32-.44.66-.47,1.03h5.55v.25Z"/>
          </g>
          <g class="uuid-c1bbc0ff-ba2c-48d9-93ea-a9c790cbc90d">
            <path class="uuid-95b76854-0dab-44bf-966c-988c7ca6edaa" d="m781.38,338.63v.25h-6.33v-.25h6.33Z"/>
            <path class="uuid-95b76854-0dab-44bf-966c-988c7ca6edaa" d="m787.88,342.15h-5.8c0-.36.07-.69.23-.99.16-.3.37-.57.63-.83.26-.26.55-.5.88-.73.33-.23.65-.46.97-.69.33-.23.65-.46.96-.7.31-.24.59-.48.84-.74.24-.26.44-.53.59-.82.15-.29.22-.61.22-.94s-.06-.64-.18-.89c-.12-.26-.29-.47-.5-.65-.21-.17-.46-.3-.75-.39-.29-.09-.61-.13-.96-.13-.45,0-.83.07-1.15.2-.32.14-.58.32-.79.56-.2.24-.35.53-.44.86-.09.33-.14.7-.14,1.1h-.25c0-.95.24-1.68.7-2.2.46-.52,1.15-.78,2.07-.78.37,0,.72.05,1.04.15.32.1.6.24.84.44s.42.44.56.72.21.62.21,1.01c0,.47-.13.9-.38,1.29-.25.39-.57.75-.96,1.09-.38.34-.8.66-1.25.96-.45.3-.87.6-1.26.9s-.73.61-1.01.92c-.28.32-.44.66-.47,1.03h5.55v.25Z"/>
          </g>
          <g class="uuid-c1bbc0ff-ba2c-48d9-93ea-a9c790cbc90d">
            <path class="uuid-e3741aed-adf6-4cf1-b490-dfbaf8971e1a" d="m781.38,338.63v.25h-6.33v-.25h6.33Z"/>
            <path class="uuid-e3741aed-adf6-4cf1-b490-dfbaf8971e1a" d="m787.88,342.15h-5.8c0-.36.07-.69.23-.99.16-.3.37-.57.63-.83.26-.26.55-.5.88-.73.33-.23.65-.46.97-.69.33-.23.65-.46.96-.7.31-.24.59-.48.84-.74.24-.26.44-.53.59-.82.15-.29.22-.61.22-.94s-.06-.64-.18-.89c-.12-.26-.29-.47-.5-.65-.21-.17-.46-.3-.75-.39-.29-.09-.61-.13-.96-.13-.45,0-.83.07-1.15.2-.32.14-.58.32-.79.56-.2.24-.35.53-.44.86-.09.33-.14.7-.14,1.1h-.25c0-.95.24-1.68.7-2.2.46-.52,1.15-.78,2.07-.78.37,0,.72.05,1.04.15.32.1.6.24.84.44s.42.44.56.72.21.62.21,1.01c0,.47-.13.9-.38,1.29-.25.39-.57.75-.96,1.09-.38.34-.8.66-1.25.96-.45.3-.87.6-1.26.9s-.73.61-1.01.92c-.28.32-.44.66-.47,1.03h5.55v.25Z"/>
          </g>
          <g class="uuid-c1bbc0ff-ba2c-48d9-93ea-a9c790cbc90d">
            <path class="uuid-e3741aed-adf6-4cf1-b490-dfbaf8971e1a" d="m781.38,247.84v.25h-6.33v-.25h6.33Z"/>
            <path class="uuid-e3741aed-adf6-4cf1-b490-dfbaf8971e1a" d="m785.13,243.08c-.26.36-.6.68-1.02.94-.42.27-.84.46-1.27.58v-.25c.26-.08.49-.18.7-.28.2-.1.39-.22.57-.34.18-.13.35-.27.51-.43.17-.16.34-.34.51-.54h.28v8.61h-.25v-8.28h-.03Z"/>
          </g>
          <g class="uuid-c1bbc0ff-ba2c-48d9-93ea-a9c790cbc90d">
            <path class="uuid-95b76854-0dab-44bf-966c-988c7ca6edaa" d="m781.38,247.84v.25h-6.33v-.25h6.33Z"/>
            <path class="uuid-95b76854-0dab-44bf-966c-988c7ca6edaa" d="m785.13,243.08c-.26.36-.6.68-1.02.94-.42.27-.84.46-1.27.58v-.25c.26-.08.49-.18.7-.28.2-.1.39-.22.57-.34.18-.13.35-.27.51-.43.17-.16.34-.34.51-.54h.28v8.61h-.25v-8.28h-.03Z"/>
          </g>
          <g class="uuid-c1bbc0ff-ba2c-48d9-93ea-a9c790cbc90d">
            <path class="uuid-e3741aed-adf6-4cf1-b490-dfbaf8971e1a" d="m781.38,247.84v.25h-6.33v-.25h6.33Z"/>
            <path class="uuid-e3741aed-adf6-4cf1-b490-dfbaf8971e1a" d="m785.13,243.08c-.26.36-.6.68-1.02.94-.42.27-.84.46-1.27.58v-.25c.26-.08.49-.18.7-.28.2-.1.39-.22.57-.34.18-.13.35-.27.51-.43.17-.16.34-.34.51-.54h.28v8.61h-.25v-8.28h-.03Z"/>
          </g>
          <g class="uuid-c1bbc0ff-ba2c-48d9-93ea-a9c790cbc90d">
            <path class="uuid-e3741aed-adf6-4cf1-b490-dfbaf8971e1a" d="m785.13,61.5c-.26.36-.6.68-1.02.94-.42.27-.84.46-1.27.58v-.25c.26-.08.49-.18.7-.28.2-.1.39-.22.57-.34.18-.13.35-.27.51-.43.17-.16.34-.34.51-.54h.28v8.61h-.25v-8.28h-.03Z"/>
          </g>
          <g class="uuid-c1bbc0ff-ba2c-48d9-93ea-a9c790cbc90d">
            <path class="uuid-95b76854-0dab-44bf-966c-988c7ca6edaa" d="m785.13,61.5c-.26.36-.6.68-1.02.94-.42.27-.84.46-1.27.58v-.25c.26-.08.49-.18.7-.28.2-.1.39-.22.57-.34.18-.13.35-.27.51-.43.17-.16.34-.34.51-.54h.28v8.61h-.25v-8.28h-.03Z"/>
          </g>
          <g class="uuid-c1bbc0ff-ba2c-48d9-93ea-a9c790cbc90d">
            <path class="uuid-e3741aed-adf6-4cf1-b490-dfbaf8971e1a" d="m785.13,61.5c-.26.36-.6.68-1.02.94-.42.27-.84.46-1.27.58v-.25c.26-.08.49-.18.7-.28.2-.1.39-.22.57-.34.18-.13.35-.27.51-.43.17-.16.34-.34.51-.54h.28v8.61h-.25v-8.28h-.03Z"/>
          </g>
          <g class="uuid-c1bbc0ff-ba2c-48d9-93ea-a9c790cbc90d">
            <path class="uuid-e3741aed-adf6-4cf1-b490-dfbaf8971e1a" d="m788,169.49c-.11.53-.29,1.01-.54,1.43-.25.42-.59.76-1,1.02-.41.26-.93.39-1.56.39s-1.13-.13-1.55-.39-.75-.6-1.01-1.02c-.25-.42-.43-.9-.54-1.43-.11-.53-.16-1.07-.16-1.61s.05-1.08.16-1.61c.11-.53.28-1.01.54-1.43.25-.42.59-.76,1.01-1.03s.94-.39,1.55-.39,1.14.13,1.56.39c.41.26.75.6,1,1.03.25.42.43.9.54,1.43s.16,1.07.16,1.61-.05,1.08-.16,1.61Zm-.23-3.08c-.09-.5-.25-.95-.48-1.36-.23-.41-.53-.74-.92-.99-.38-.26-.87-.39-1.46-.39s-1.08.13-1.46.39c-.38.26-.69.59-.92.99-.23.41-.39.86-.48,1.36-.09.5-.14.99-.14,1.47s.05.97.14,1.47c.09.5.25.95.48,1.36.23.41.53.74.92.99.38.26.87.39,1.46.39s1.08-.13,1.46-.39c.38-.26.69-.59.92-.99.23-.41.39-.86.48-1.36.09-.5.14-.99.14-1.47s-.05-.97-.14-1.47Z"/>
          </g>
          <g class="uuid-c1bbc0ff-ba2c-48d9-93ea-a9c790cbc90d">
            <path class="uuid-95b76854-0dab-44bf-966c-988c7ca6edaa" d="m788,169.49c-.11.53-.29,1.01-.54,1.43-.25.42-.59.76-1,1.02-.41.26-.93.39-1.56.39s-1.13-.13-1.55-.39-.75-.6-1.01-1.02c-.25-.42-.43-.9-.54-1.43-.11-.53-.16-1.07-.16-1.61s.05-1.08.16-1.61c.11-.53.28-1.01.54-1.43.25-.42.59-.76,1.01-1.03s.94-.39,1.55-.39,1.14.13,1.56.39c.41.26.75.6,1,1.03.25.42.43.9.54,1.43s.16,1.07.16,1.61-.05,1.08-.16,1.61Zm-.23-3.08c-.09-.5-.25-.95-.48-1.36-.23-.41-.53-.74-.92-.99-.38-.26-.87-.39-1.46-.39s-1.08.13-1.46.39c-.38.26-.69.59-.92.99-.23.41-.39.86-.48,1.36-.09.5-.14.99-.14,1.47s.05.97.14,1.47c.09.5.25.95.48,1.36.23.41.53.74.92.99.38.26.87.39,1.46.39s1.08-.13,1.46-.39c.38-.26.69-.59.92-.99.23-.41.39-.86.48-1.36.09-.5.14-.99.14-1.47s-.05-.97-.14-1.47Z"/>
          </g>
          <g class="uuid-c1bbc0ff-ba2c-48d9-93ea-a9c790cbc90d">
            <path class="uuid-e3741aed-adf6-4cf1-b490-dfbaf8971e1a" d="m788,169.49c-.11.53-.29,1.01-.54,1.43-.25.42-.59.76-1,1.02-.41.26-.93.39-1.56.39s-1.13-.13-1.55-.39-.75-.6-1.01-1.02c-.25-.42-.43-.9-.54-1.43-.11-.53-.16-1.07-.16-1.61s.05-1.08.16-1.61c.11-.53.28-1.01.54-1.43.25-.42.59-.76,1.01-1.03s.94-.39,1.55-.39,1.14.13,1.56.39c.41.26.75.6,1,1.03.25.42.43.9.54,1.43s.16,1.07.16,1.61-.05,1.08-.16,1.61Zm-.23-3.08c-.09-.5-.25-.95-.48-1.36-.23-.41-.53-.74-.92-.99-.38-.26-.87-.39-1.46-.39s-1.08.13-1.46.39c-.38.26-.69.59-.92.99-.23.41-.39.86-.48,1.36-.09.5-.14.99-.14,1.47s.05.97.14,1.47c.09.5.25.95.48,1.36.23.41.53.74.92.99.38.26.87.39,1.46.39s1.08-.13,1.46-.39c.38-.26.69-.59.92-.99.23-.41.39-.86.48-1.36.09-.5.14-.99.14-1.47s-.05-.97-.14-1.47Z"/>
          </g>
          <path class="uuid-ea0d74a3-4638-4ab1-96e0-b095b8e4ca64" d="m-42.57,1255.5v3.83-3.83l1.06-3.82h0l1.06-3.81h0l1.06-3.81h0l1.06-3.8h0l1.06-3.79h0l1.06-3.79h0l1.06-3.78h0l1.06-3.78h0l1.06-3.77h0l1.06-3.76h0l1.06-3.76h0l1.06-3.75h0l1.06-3.75h0l1.06-3.74h0l1.06-3.73h0l1.06-3.73h0l1.06-3.72h0l1.06-3.71h0l1.06-3.71h0l1.06-3.7h0l1.06-3.7h0l1.06-3.69h0l1.06-3.68h0l1.06-3.68h0l1.06-3.67h0l1.06-3.67h0l1.06-3.66h0l1.06-3.65h0l1.06-3.65h0l1.06-3.64h0l1.06-3.64h0l1.06-3.63h0l1.06-3.62h0l1.06-3.62h0l1.06-3.61h0l1.06-3.6h0l1.06-3.6h0l1.06-3.59h0l1.06-3.59h0l1.06-3.58H-.35l1.06-3.57h0l1.06-3.57h0l1.06-3.56h0l1.06-3.56h0l1.06-3.55h0l1.06-3.54h0l1.06-3.54h0l1.06-3.53h0l1.06-3.52h0l1.06-3.52h0l1.06-3.51h0l1.06-3.51h0l1.06-3.5h0l1.06-3.49h0l1.06-3.49h0l1.06-3.48h0l1.06-3.48h0l1.06-3.47h0l1.06-3.46h0l1.06-3.46h0l1.06-3.45h0l1.06-3.44h0l1.06-3.44h0l1.06-3.43h0l1.06-3.43h0l1.06-3.42h0l1.06-3.41h0l1.06-3.41h0l1.06-3.4h0l1.06-3.4h0l1.06-3.39h0l1.06-3.38h0l1.06-3.38h0l1.06-3.37h0l1.06-3.37h0l1.06-3.36h0l1.06-3.35h0l1.06-3.35h0l1.06-3.34h0l1.06-3.33h0l1.06-3.33h0l1.06-3.32h0l1.06-3.32h0l1.06-3.31h0l1.06-3.3h0l1.06-3.3h0l1.06-3.29h0l1.06-3.29h0l1.06-3.28h0l1.06-3.27h0l1.06-3.27h0l1.06-3.26h0l1.06-3.25h0l1.06-3.25h0l1.06-3.24h0l1.06-3.24h0l1.06-3.23h0l1.06-3.22h0l1.06-3.22h0l1.06-3.21h0l1.06-3.21h0l1.06-3.2h0l1.06-3.19h0l1.06-3.19h0l1.06-3.18h0l1.06-3.17h0l1.06-3.17h0l1.06-3.16h0l1.06-3.16h0l1.06-3.15h0l1.06-3.14h0l1.06-3.14h0l1.06-3.13h0l1.06-3.13h0l1.06-3.12h0l1.06-3.11h0l1.06-3.11h0l1.06-3.1h0l1.06-3.1h0l1.06-3.09h0l1.06-3.08h0l1.06-3.08h0l1.06-3.07h0l1.06-3.06h0l1.06-3.06h0l1.06-3.05h0l1.06-3.05h0l1.06-3.04h0l1.06-3.03h0l1.06-3.03h0l1.06-3.02h0l1.06-3.02h0l1.06-3.01h0l1.06-3h0l1.06-3h0l1.06-2.99h0l1.06-2.98h0l1.06-2.98h0l1.06-2.97h0l1.06-2.97h0l1.06-2.96h0l1.06-2.95h0l1.06-2.95h0l1.06-2.94h0l1.06-2.94h0l1.06-2.93h0l1.06-2.92h0l1.06-2.92h0l1.06-2.91h0l1.06-2.9h0l1.06-2.9h0l1.06-2.89h0l1.06-2.89h0l1.06-2.88h0l1.06-2.87h0l1.06-2.87h0l1.06-2.86h0l1.06-2.86h0l1.06-2.85h0l1.06-2.84h0l1.06-2.84h0l1.06-2.83h0l1.06-2.83h0l1.06-2.82h0l1.06-2.81h0l1.06-2.81h0l1.06-2.8h0l1.06-2.79h0l1.06-2.79h0l1.06-2.78h0l1.06-2.78h0l1.06-2.77h0l1.06-2.76h0l1.06-2.76h0l1.06-2.75h0l1.06-2.75h0l1.06-2.74h0l1.06-2.73h0l1.06-2.73h0l1.06-2.72h0l1.06-2.71h0l1.06-2.71h0l1.06-2.7h0l1.06-2.7h0l1.06-2.69h0l1.06-2.68h0l1.06-2.68h0l1.06-2.67h0l1.06-2.67h0l1.06-2.66h0l1.06-2.65h0l1.06-2.65h0l1.06-2.64h0l1.06-2.63h0l1.06-2.63h0l1.06-2.62h0l1.06-2.62h0l1.06-2.61h0l1.06-2.6h0l1.06-2.6h0l1.06-2.59h0l1.06-2.59h0l1.06-2.58h0l1.06-2.57h0l1.06-2.57h0l1.06-2.56h0l1.06-2.56h0l1.06-2.55h0l1.06-2.54h0l1.06-2.54h0l1.06-2.53h0l1.06-2.52h0l1.06-2.52h0l1.06-2.51h0l1.06-2.51h0l1.06-2.5h0l1.06-2.49h0l1.06-2.49h0l1.06-2.48h0l1.06-2.48h0l1.06-2.47h0l1.06-2.46h0l1.06-2.46h0l1.06-2.45h0l1.06-2.44h0l1.06-2.44h0l1.06-2.43h0l1.06-2.43h0l1.06-2.42h0l1.06-2.41h0l1.06-2.41h0l1.06-2.4h0l1.06-2.4h0l1.06-2.39h0l1.06-2.38h0l1.06-2.38h0l1.06-2.37h0l1.06-2.36h0l1.06-2.36h0l1.06-2.35h0l1.06-2.35h0l1.06-2.34h0l1.06-2.33h0l1.06-2.33h0l1.06-2.32h0l1.06-2.32h0l1.06-2.31h0l1.06-2.3h0l1.06-2.3h0l1.06-2.29h0l1.06-2.29h0l1.06-2.28h0l1.06-2.27h0l1.06-2.27h0l1.06-2.26h0l1.06-2.25h0l1.06-2.25h0l1.06-2.24h0l1.06-2.24h0l1.06-2.23h0l1.06-2.22h0l1.06-2.22h0l1.06-2.21h0l1.06-2.21h0l1.06-2.2h0l1.06-2.19h0l1.06-2.19h0l1.06-2.18h0l1.06-2.17h0l1.06-2.17h0l1.06-2.16h0l1.06-2.16h0l1.06-2.15h0l1.06-2.14h0l1.06-2.14h0l1.06-2.13h0l1.06-2.13h0l1.06-2.12h0l1.06-2.11h0l1.06-2.11h0l1.06-2.1h0l1.06-2.09h0l1.06-2.09h0l1.06-2.08h0l1.06-2.08h0l1.06-2.07h0l1.06-2.06h0l1.06-2.06h0l1.06-2.05h0l1.06-2.05h0l1.06-2.04h0l1.06-2.03h0l1.06-2.03h0l1.06-2.02h0l1.06-2.02h0l1.06-2.01h0l1.06-2h0l1.06-2h0l1.06-1.99h0l1.06-1.98h0l1.06-1.98h0l1.06-1.97h0l1.06-1.97h0l1.06-1.96h0l1.06-1.95h0l1.06-1.95h0l1.06-1.94h0l1.06-1.94h0l1.06-1.93h0l1.06-1.92h0l1.06-1.92h0l1.06-1.91h0l1.06-1.9h0l1.06-1.9h0l1.06-1.89h0l1.06-1.89h0l1.06-1.88h0l1.06-1.87h0l1.06-1.87h0l1.06-1.86h0l1.06-1.86h0l1.06-1.85h0l1.06-1.84h0l1.06-1.84h0l1.06-1.83h0l1.06-1.82h0l1.06-1.82h0l1.06-1.81h0l1.06-1.81h0l1.06-1.8h0l1.06-1.79h0l1.06-1.79h0l1.06-1.78h0l1.06-1.78h0l1.06-1.77h0l1.06-1.76h0l1.06-1.76h0l1.06-1.75h0l1.06-1.75h0l1.06-1.74h0l1.06-1.73h0l1.06-1.73h0l1.06-1.72h0l1.06-1.71h0l1.06-1.71h0l1.06-1.7h0l1.06-1.7h0l1.06-1.69h0l1.06-1.68h0l1.06-1.68h0l1.06-1.67h0l1.06-1.67h0l1.06-1.66h0l1.06-1.65h0l1.06-1.65h0l1.06-1.64h0l1.06-1.63h0l1.06-1.63h0l1.06-1.62h0l1.06-1.62h0l1.06-1.61h0l1.06-1.6h0l1.06-1.6h0l1.06-1.59h0l1.06-1.59h0l1.06-1.58h0l1.06-1.57h0l1.06-1.57h0l1.06-1.56h0l1.06-1.55h0l1.06-1.55h0l1.06-1.54h0l1.06-1.54h0l1.06-1.53h0l1.06-1.52h0l1.06-1.52h0l1.06-1.51h0l1.06-1.51h0l1.06-1.5h0l1.06-1.49h0l1.06-1.49h0l1.06-1.48h0l1.06-1.48h0l1.06-1.47h0l1.06-1.46h0l1.06-1.46h0l1.06-1.45h0l1.06-1.44h0l1.06-1.44h0l1.06-1.43h0l1.06-1.43h0l1.06-1.42h0l1.06-1.41h0l1.06-1.41h0l1.06-1.4h0l1.06-1.4h0l1.06-1.39h0l1.06-1.38h0l1.06-1.38h0l1.06-1.37h0l1.06-1.36h0l1.06-1.36h0l1.06-1.35h0l1.06-1.35h0l1.06-1.34h0l1.06-1.33h0l1.06-1.33h0l1.06-1.32h0l1.06-1.32h0l1.06-1.31h0l1.06-1.3h0l1.06-1.3h0l1.06-1.29h0l1.06-1.28h0l1.06-1.28h0l1.06-1.27h0l1.06-1.27h0l1.06-1.26h0l1.06-1.25h0l1.06-1.25h0l1.06-1.24h0l1.06-1.24h0l1.06-1.23h0l1.06-1.22h0l1.06-1.22h0l1.06-1.21h0l1.06-1.21h0l1.06-1.2h0l1.06-1.19h0l1.06-1.19h0l1.06-1.18h0l1.06-1.17h0l1.06-1.17h0l1.06-1.16h0l1.06-1.16h0l1.06-1.15h0l1.06-1.14h0l1.06-1.14h0l1.06-1.13h0l1.06-1.13h0l1.06-1.12h0l1.06-1.11h0l1.06-1.11h0l1.06-1.1h0l1.06-1.09h0l1.06-1.09h0l1.06-1.08h0l1.06-1.08h0l1.06-1.07h0l1.06-1.06h0l1.06-1.06h0l1.06-1.05h0l1.06-1.05h0l1.06-1.04h0l1.06-1.03h0l1.06-1.03h0l1.06-1.02h0l1.06-1.01h0l1.06-1.01h0l1.06-1h0l1.06-1h0l1.06-.99h0l1.06-.98h0l1.06-.98h0l1.06-.97h0l1.06-.97h0l1.06-.96h0l1.06-.95h0l1.06-.95h0l1.06-.94h0l1.06-.94h0l1.06-.93h0l1.06-.92h0l1.06-.92h0l1.06-.91h0l1.06-.9h0l1.06-.9h0l1.06-.89h0l1.06-.89h0l1.06-.88h0l1.06-.87h0l1.06-.87h0l1.06-.86h0l1.06-.86h0l1.06-.85h0l1.06-.84h0l1.06-.84h0l1.06-.83h0l1.06-.82h0l1.06-.82h0l1.06-.81h0l1.06-.81h0l1.06-.8h0l1.06-.79h0l1.06-.79h0l1.06-.78h0l1.06-.78h0l1.06-.77h0l1.06-.76h0l1.06-.76h0l1.06-.75h0l1.06-.74h0l1.06-.74h0l1.06-.73h0l1.06-.73h0l1.06-.72h0l1.06-.71h0l1.06-.71h0l1.06-.7h0l1.06-.7h0l1.06-.69h0l1.06-.68h0l1.06-.68h0l1.06-.67h0l1.06-.67h0l1.06-.66h0l1.06-.65h0l1.06-.65h0l1.06-.64h0l1.06-.63h0l1.06-.63h0l1.06-.62h0l1.06-.62h0l1.06-.61h0l1.06-.6h0l1.06-.6h0l1.06-.59h0l1.06-.59h0l1.06-.58h0l1.06-.57h0l1.06-.57h0l1.06-.56h0l1.06-.55h0l1.06-.55h0l1.06-.54h0l1.06-.54h0l1.06-.53h0l1.06-.52h0l1.06-.52h0l1.06-.51h0l1.06-.51h0l1.06-.5h0l1.06-.49h0l1.06-.49h0l1.06-.48h0l1.06-.47h0l1.06-.47h0l1.06-.46h0l1.06-.46h0l1.06-.45h0l1.06-.44h0l1.06-.44h0l1.06-.43h0l1.06-.43h0l1.06-.42h0l1.06-.41h0l1.06-.41h0l1.06-.4h0l1.06-.4h0l1.06-.39h0l1.06-.38h0l1.06-.38h0l1.06-.37h0l1.06-.36h0l1.06-.36h0l1.06-.35h0l1.06-.35h0l1.06-.34h0l1.06-.33h0l1.06-.33h0l1.06-.32h0l1.06-.32h0l1.06-.31h0l1.06-.3h0l1.06-.3h0l1.06-.29h0l1.06-.28h0l1.06-.28h0l1.06-.27h0l1.06-.27h0l1.06-.26h0l1.06-.25h0l1.06-.25h0l1.06-.24h0l1.06-.24h0l1.06-.23h0l1.06-.22h0l1.06-.22h0l1.06-.21h0l1.06-.2h0l1.06-.2h0l1.06-.19h0l1.06-.19h0l1.06-.18h0l1.06-.17h0l1.06-.17h0l1.06-.16h0l1.06-.16h0l1.06-.15h0l1.06-.14h0l1.06-.14h0l1.06-.13h0l1.06-.13h0l1.06-.12h0l1.06-.11h0l1.06-.11h0l1.06-.1h0l1.06-.09h0l1.06-.09h0l1.06-.08h0l1.06-.08h0l1.06-.07h0l1.06-.06h0l1.06-.06h0l1.06-.05h0l1.06-.05h0l1.06-.04h0l1.06-.03h0l1.06-.03h0l1.06-.02h1.06s1.06-.02,1.06-.02h1.06s0,0,0,0h1.06s1.06.01,1.06.01h0l1.06.02h0l1.06.02h0l1.06.03h0l1.06.03h0l1.06.04h0l1.06.05h0l1.06.05h0l1.06.06h0l1.06.07h0l1.06.07h0l1.06.08h0l1.06.08h0l1.06.09h0l1.06.1h0l1.06.1h0l1.06.11h0l1.06.11h0l1.06.12h0l1.06.13h0l1.06.13h0l1.06.14h0l1.06.14h0l1.06.15h0l1.06.16h0l1.06.16h0l1.06.17h0l1.06.18h0l1.06.18h0l1.06.19h0l1.06.19h0l1.06.2h0l1.06.21h0l1.06.21h0l1.06.22h0l1.06.22h0l1.06.23h0l1.06.24h0l1.06.24h0l1.06.25h0l1.06.26h0l1.06.26h0l1.06.27h0l1.06.27h0l1.06.28h0l1.06.29h0l1.06.29h0l1.06.3h0l1.06.3h0l1.06.31h0l1.06.32h0l1.06.32h0l1.06.33h0l1.06.34h0l1.06.34h0l1.06.35h0l1.06.35h0l1.06.36h0l1.06.37h0l1.06.37h0l1.06.38h0l1.06.38h0l1.06.39h0l1.06.4h0l1.06.4h0l1.06.41h0l1.06.41h0l1.06.42h0l1.06.43h0l1.06.43h0l1.06.44h0l1.06.45h0l1.06.45h0l1.06.46h0l1.06.46h0l1.06.47h0l1.06.48h0l1.06.48h0l1.06.49h0l1.06.49h0l1.06.5h0l1.06.51h0l1.06.51h0l1.06.52h0l1.06.53h0l1.06.53h0l1.06.54h0l1.06.54h0l1.06.55h0l1.06.56h0l1.06.56h0l1.06.57h0l1.06.57h0l1.06.58h0l1.06.59h0l1.06.59h0l1.06.6h0l1.06.61h0l1.06.61h0l1.06.62h0l1.06.62h0l1.06.63h0l1.06.64h0l1.06.64h0l1.06.65h0l1.06.65h0l1.06.66h0l1.06.67h0l1.06.67h0l1.06.68h0l1.06.68h0l1.06.69h0l1.06.7h0l1.06.7h0l1.06.71h0l1.06.72h0l1.06.72h0l1.06.73h0l1.06.73h0l1.06.74h0l1.06.75h0l1.06.75h0l1.06.76h0l1.06.76h0l1.06.77h0l1.06.78h0l1.06.78h0l1.06.79h0l1.06.8h0l1.06.8h0l1.06.81h0l1.06.81h0l1.06.82h0l1.06.83h0l1.06.83h0l1.06.84h0l1.06.84h0l1.06.85h0l1.06.86h0l1.06.86h0l1.06.87h0l1.06.88h0l1.06.88h0l1.06.89h0l1.06.89h0l1.06.9h0l1.06.91h0l1.06.91h0l1.06.92h0l1.06.92h0l1.06.93h0l1.06.94h0l1.06.94h0l1.06.95h0l1.06.95h0l1.06.96h0l1.06.97h0l1.06.97h0l1.06.98h0l1.06.99h0l1.06.99h0l1.06,1h0l1.06,1h0l1.06,1.01h0l1.06,1.02h0l1.06,1.02h0l1.06,1.03h0l1.06,1.03h0l1.06,1.04h0l1.06,1.05h0l1.06,1.05h0l1.06,1.06h0l1.06,1.07h0l1.06,1.07h0l1.06,1.08h0l1.06,1.08h0l1.06,1.09h0l1.06,1.1h0l1.06,1.1h0l1.06,1.11h0l1.06,1.11h0l1.06,1.12h0l1.06,1.13h0l1.06,1.13h0l1.06,1.14h0l1.06,1.14h0l1.06,1.15h0l1.06,1.16h0l1.06,1.16h0l1.06,1.17h0l1.06,1.18h0l1.06,1.18h0l1.06,1.19h0l1.06,1.19h0l1.06,1.2h0l1.06,1.21h0l1.06,1.21h0l1.06,1.22h0l1.06,1.22h0l1.06,1.23h0l1.06,1.24h0l1.06,1.24h0l1.06,1.25h0l1.06,1.26h0l1.06,1.26h0l1.06,1.27h0l1.06,1.27h0l1.06,1.28h0l1.06,1.29h0l1.06,1.29h0l1.06,1.3h0l1.06,1.3h0l1.06,1.31h0l1.06,1.32h0l1.06,1.32h0l1.06,1.33h0l1.06,1.34h0l1.06,1.34h0l1.06,1.35h0l1.06,1.35h0l1.06,1.36h0l1.06,1.37h0l1.06,1.37h0l1.06,1.38h0l1.06,1.38h0l1.06,1.39h0l1.06,1.4h0l1.06,1.4h0l1.06,1.41h0l1.06,1.41h0l1.06,1.42h0l1.06,1.43h0l1.06,1.43h0l1.06,1.44h0l1.06,1.45h0l1.06,1.45h0l1.06,1.46h0l1.06,1.46h0l1.06,1.47h0l1.06,1.48h0l1.06,1.48h0l1.06,1.49h0l1.06,1.49h0l1.06,1.5h0l1.06,1.51h0l1.06,1.51h0l1.06,1.52h0l1.06,1.53h0l1.06,1.53h0l1.06,1.54h0l1.06,1.54h0l1.06,1.55h0l1.06,1.56h0l1.06,1.56h0l1.06,1.57h0l1.06,1.57h0l1.06,1.58h0l1.06,1.59h0l1.06,1.59h0l1.06,1.6h0l1.06,1.61h0l1.06,1.61h0l1.06,1.62h0l1.06,1.62h0l1.06,1.63h0l1.06,1.64h0l1.06,1.64h0l1.06,1.65h0l1.06,1.65h0l1.06,1.66h0l1.06,1.67h0l1.06,1.67h0l1.06,1.68h0l1.06,1.68h0l1.06,1.69h0l1.06,1.7h0l1.06,1.7h0l1.06,1.71h0l1.06,1.72h0l1.06,1.72h0l1.06,1.73h0l1.06,1.73h0l1.06,1.74h0l1.06,1.75h0l1.06,1.75h0l1.06,1.76h0l1.06,1.76h0l1.06,1.77h0l1.06,1.78h0l1.06,1.78h0l1.06,1.79h0l1.06,1.8h0l1.06,1.8h0l1.06,1.81h0l1.06,1.81h0l1.06,1.82h0l1.06,1.83h0l1.06,1.83h0l1.06,1.84h0l1.06,1.84h0l1.06,1.85h0l1.06,1.86h0l1.06,1.86h0l1.06,1.87h0l1.06,1.88h0l1.06,1.88h0l1.06,1.89h0l1.06,1.89h0l1.06,1.9h0l1.06,1.91h0l1.06,1.91h0l1.06,1.92h0l1.06,1.92h0l1.06,1.93h0l1.06,1.94h0l1.06,1.94h0l1.06,1.95h0l1.06,1.95h0l1.06,1.96h0l1.06,1.97h0l1.06,1.97h0l1.06,1.98h0l1.06,1.99h0l1.06,1.99h0l1.06,2h0l1.06,2h0l1.06,2.01h0l1.06,2.02h0l1.06,2.02h0l1.06,2.03h0l1.06,2.03h0l1.06,2.04h0l1.06,2.05h0l1.06,2.05h0l1.06,2.06h0l1.06,2.07h0l1.06,2.07h0l1.06,2.08h0l1.06,2.08h0l1.06,2.09h0l1.06,2.1h0l1.06,2.1h0l1.06,2.11h0l1.06,2.11h0l1.06,2.12h0l1.06,2.13h0l1.06,2.13h0l1.06,2.14h0l1.06,2.15h0l1.06,2.15h0l1.06,2.16h0l1.06,2.16h0l1.06,2.17h0l1.06,2.18h0l1.06,2.18h0l1.06,2.19h0l1.06,2.19h0l1.06,2.2h0l1.06,2.21h0l1.06,2.21h0l1.06,2.22h0l1.06,2.22h0l1.06,2.23h0l1.06,2.24h0l1.06,2.24h0l1.06,2.25h0l1.06,2.26h0l1.06,2.26h0l1.06,2.27h0l1.06,2.27h0l1.06,2.28h0l1.06,2.29h0l1.06,2.29h0l1.06,2.3h0l1.06,2.3h0l1.06,2.31h0l1.06,2.32h0l1.06,2.32h0l1.06,2.33h0l1.06,2.34h0l1.06,2.34h0l1.06,2.35h0l1.06,2.35h0l1.06,2.36h0l1.06,2.37h0l1.06,2.37h0l1.06,2.38h0l1.06,2.38h0l1.06,2.39h0l1.06,2.4h0l1.06,2.4h0l1.06,2.41h0l1.06,2.42h0l1.06,2.42h0l1.06,2.43h0l1.06,2.43h0l1.06,2.44h0l1.06,2.45h0l1.06,2.45h0l1.06,2.46h0l1.06,2.46h0l1.06,2.47h0l1.06,2.48h0l1.06,2.48h0l1.06,2.49h0l1.06,2.49h0l1.06,2.5h0l1.06,2.51h0l1.06,2.51h0l1.06,2.52h0l1.06,2.53h0l1.06,2.53h0l1.06,2.54h0l1.06,2.54h0l1.06,2.55h0l1.06,2.56h0l1.06,2.56h0l1.06,2.57h0l1.06,2.57h0l1.06,2.58h0l1.06,2.59h0l1.06,2.59h0l1.06,2.6h0l1.06,2.61h0l1.06,2.61h0l1.06,2.62h0l1.06,2.62h0l1.06,2.63h0l1.06,2.64h0l1.06,2.64h0l1.06,2.65h0l1.06,2.65h0l1.06,2.66h0l1.06,2.67h0l1.06,2.67h0l1.06,2.68h0l1.06,2.69h0l1.06,2.69h0l1.06,2.7h0l1.06,2.7h0l1.06,2.71h0l1.06,2.72h0l1.06,2.72h0l1.06,2.73h0l1.06,2.73h0l1.06,2.74h0l1.06,2.75h0l1.06,2.75h0l1.06,2.76h0l1.06,2.76h0l1.06,2.77h0l1.06,2.78h0l1.06,2.78h0l1.06,2.79h0l1.06,2.8h0l1.06,2.8h0l1.06,2.81h0l1.06,2.81h0l1.06,2.82h0l1.06,2.83h0l1.06,2.83h0l1.06,2.84h0l1.06,2.84h0l1.06,2.85h0l1.06,2.86h0l1.06,2.86h0l1.06,2.87h0l1.06,2.88h0l1.06,2.88h0l1.06,2.89h0l1.06,2.89h0l1.06,2.9h0l1.06,2.91h0l1.06,2.91h0l1.06,2.92h0l1.06,2.92h0l1.06,2.93h0l1.06,2.94h0l1.06,2.94h0l1.06,2.95h0l1.06,2.96h0l1.06,2.96h0l1.06,2.97h0l1.06,2.97h0l1.06,2.98h0l1.06,2.99h0l1.06,2.99h0l1.06,3h0l1.06,3h0l1.06,3.01h0l1.06,3.02h0l1.06,3.02h0l1.06,3.03h0l1.06,3.03h0l1.06,3.04h0l1.06,3.05h0l1.06,3.05h0l1.06,3.06h0l1.06,3.07h0l1.06,3.07h0l1.06,3.08h0l1.06,3.08h0l1.06,3.09h0l1.06,3.1h0l1.06,3.1h0l1.06,3.11h0l1.06,3.11h0l1.06,3.12h0l1.06,3.13h0l1.06,3.13h0l1.06,3.14h0l1.06,3.15h0l1.06,3.15h0l1.06,3.16h0l1.06,3.16h0l1.06,3.17h0l1.06,3.18h0l1.06,3.18h0l1.06,3.19h0l1.06,3.19h0l1.06,3.2h0l1.06,3.21h0l1.06,3.21h0l1.06,3.22h0l1.06,3.23h0l1.06,3.23h0l1.06,3.24h0l1.06,3.24h0l1.06,3.25h0l1.06,3.26h0l1.06,3.26h0l1.06,3.27h0l1.06,3.27h0l1.06,3.28h0l1.06,3.29h0l1.06,3.29h0l1.06,3.3h0l1.06,3.3h0l1.06,3.31h0l1.06,3.32h0l1.06,3.32h0l1.06,3.33h0l1.06,3.34h0l1.06,3.34h0l1.06,3.35h0l1.06,3.35h0l1.06,3.36h0l1.06,3.37h0l1.06,3.37h0l1.06,3.38h0l1.06,3.38h0l1.06,3.39h0l1.06,3.4h0l1.06,3.4h0l1.06,3.41h0l1.06,3.42h0l1.06,3.42h0l1.06,3.43h0l1.06,3.43h0l1.06,3.44h0l1.06,3.45h0l1.06,3.45h0l1.06,3.46h0l1.06,3.46h0l1.06,3.47h0l1.06,3.48h0l1.06,3.48h0l1.06,3.49h0l1.06,3.5h0l1.06,3.5h0l1.06,3.51h0l1.06,3.51h0l1.06,3.52h0l1.06,3.53h0l1.06,3.53h0l1.06,3.54h0l1.06,3.54h0l1.06,3.55h0l1.06,3.56h0l1.06,3.56h0l1.06,3.57h0l1.06,3.58h0l1.06,3.58h0l1.06,3.59h0l1.06,3.59h0l1.06,3.6h0l1.06,3.61h0l1.06,3.61h0l1.06,3.62h0l1.06,3.62h0l1.06,3.63h0l1.06,3.64h0l1.06,3.64h0l1.06,3.65h0l1.06,3.65h0l1.06,3.66h0l1.06,3.67h0l1.06,3.67h0l1.06,3.68h0l1.06,3.69h0l1.06,3.69h0l1.06,3.7h0l1.06,3.7h0l1.06,3.71h0l1.06,3.72h0l1.06,3.72h0l1.06,3.73h0l1.06,3.73h0l1.06,3.74h0l1.06,3.75h0l1.06,3.75h0l1.06,3.76h0l1.06,3.77h0l1.06,3.77h0l1.06,3.78h0l1.06,3.78h0l1.06,3.79h0l1.06,3.8h0l1.06,3.8h0l1.06,3.81h0l1.06,3.81h0l1.06,3.82h0l1.06,3.83h0l1.06,3.83h0l1.06,3.84h0l1.06,3.84h0l1.06,3.85h0l1.06,3.86h0l1.06,3.86h0l1.06,3.87h0l1.06,3.88h0l1.06,3.88h0l1.06,3.89h0l1.06,3.89h0l1.06,3.9h0l1.06,3.91h0l1.06,3.91"/>
        </g>
      </g>
    </g>
  </g>
  <g id="uuid-017bee4e-0b29-42fe-9a50-245c5deefc48" data-name="Marco">
    <path class="uuid-9876a348-cb2e-49e0-88de-f68beff995d6" d="m-2-2V1022h1249V-2H-2Zm1232,987c0,11.05-8.95,20-20,20H35c-11.05,0-20-8.95-20-20V35c0-11.05,8.95-20,20-20h1175c11.05,0,20,8.95,20,20v950Z"/>
  </g>
</svg>