<?xml version="1.0" encoding="UTF-8"?>
<svg xmlns="http://www.w3.org/2000/svg" xmlns:xlink="http://www.w3.org/1999/xlink" viewBox="0 0 1245 1020">
  <defs>
    <style>
      .uuid-165740a3-8cba-4df3-8080-d3aa91223f11 {
        stroke: silver;
      }

      .uuid-165740a3-8cba-4df3-8080-d3aa91223f11, .uuid-61d57e7c-cfda-4550-a678-007a848fef55, .uuid-5a70f80d-ebe4-47cf-9e45-26c2b529655c, .uuid-08035d4d-c3ed-497a-a615-16b6adcbb089, .uuid-325d17d5-7b72-44ad-884e-1cc88747d395, .uuid-4b927b96-c8fe-4ecb-a02d-cb5b58866b6c, .uuid-bd99753b-80da-46f5-a385-b274e5db1bb4, .uuid-c40c80c5-de6c-4bdf-8c83-00b913e492c5, .uuid-7771f9a3-01f4-46b1-8a93-244c4ff0ad70 {
        fill: none;
      }

      .uuid-165740a3-8cba-4df3-8080-d3aa91223f11, .uuid-325d17d5-7b72-44ad-884e-1cc88747d395, .uuid-7771f9a3-01f4-46b1-8a93-244c4ff0ad70 {
        stroke-linecap: round;
        stroke-linejoin: round;
      }

      .uuid-e9c39d22-ccc7-4853-b748-b876f5c52cee {
        fill: #fff;
      }

      .uuid-61d57e7c-cfda-4550-a678-007a848fef55 {
        stroke: #fff;
        stroke-linejoin: bevel;
        stroke-width: 3px;
      }

      .uuid-5a70f80d-ebe4-47cf-9e45-26c2b529655c {
        clip-path: url(#uuid-8248f46c-380d-4ba0-874f-4db05d703dc8);
      }

      .uuid-08035d4d-c3ed-497a-a615-16b6adcbb089 {
        clip-path: url(#uuid-579a5a94-bebb-4ffe-8cab-dec5a69fdc45);
      }

      .uuid-325d17d5-7b72-44ad-884e-1cc88747d395 {
        stroke: rgba(192, 192, 192, .24);
      }

      .uuid-4b927b96-c8fe-4ecb-a02d-cb5b58866b6c {
        isolation: isolate;
      }

      .uuid-8a671ed6-195c-4b25-a4b8-596abe67278f {
        fill: #00699b;
      }

      .uuid-c40c80c5-de6c-4bdf-8c83-00b913e492c5 {
        stroke: #252525;
        stroke-miterlimit: 10;
      }

      .uuid-0730b42f-1ad5-46e4-9d1a-bd5fdc967226 {
        fill: #252525;
      }

      .uuid-7771f9a3-01f4-46b1-8a93-244c4ff0ad70 {
        stroke: rgba(204, 0, 0, .7);
        stroke-width: 2.5px;
      }
    </style>
    <clipPath id="uuid-8248f46c-380d-4ba0-874f-4db05d703dc8">
      <rect class="uuid-bd99753b-80da-46f5-a385-b274e5db1bb4" x="-1" width="1247" height="1020"/>
    </clipPath>
    <clipPath id="uuid-579a5a94-bebb-4ffe-8cab-dec5a69fdc45">
      <rect class="uuid-bd99753b-80da-46f5-a385-b274e5db1bb4" x="-24.87" y="12.02" width="1294.75" height="995.96"/>
    </clipPath>
  </defs>
  <g id="uuid-d84c4ac6-356d-4111-ae87-57a418d03166" data-name="Grafica">
    <g class="uuid-5a70f80d-ebe4-47cf-9e45-26c2b529655c">
      <g class="uuid-08035d4d-c3ed-497a-a615-16b6adcbb089">
        <g>
          <rect class="uuid-e9c39d22-ccc7-4853-b748-b876f5c52cee" x="-24.87" y="12.02" width="1294.75" height="995.96"/>
          <path class="uuid-165740a3-8cba-4df3-8080-d3aa91223f11" d="m4.39,12.53v995.96M4.39,12.53v995.96M92.69,12.53v995.96M180.99,12.53v995.96M269.29,12.53v995.96M357.6,12.53v995.96M445.9,12.53v995.96M534.2,12.53v995.96M710.8,12.53v995.96M799.1,12.53v995.96M887.4,12.53v995.96M975.71,12.53v995.96M1064.01,12.53v995.96M1152.31,12.53v995.96M1240.61,12.53v995.96"/>
          <path class="uuid-325d17d5-7b72-44ad-884e-1cc88747d395" d="m-13.06,12.53v995.96M21.85,12.53v995.96M39.3,12.53v995.96M56.75,12.53v995.96M75.24,12.53v995.96M110.15,12.53v995.96M127.6,12.53v995.96M145.06,12.53v995.96M163.54,12.53v995.96M198.45,12.53v995.96M215.9,12.53v995.96M233.36,12.53v995.96M251.84,12.53v995.96M286.75,12.53v995.96M304.2,12.53v995.96M321.66,12.53v995.96M340.14,12.53v995.96M375.05,12.53v995.96M392.51,12.53v995.96M409.96,12.53v995.96M428.44,12.53v995.96M463.35,12.53v995.96M480.81,12.53v995.96M499.29,12.53v995.96M516.74,12.53v995.96M551.65,12.53v995.96M569.11,12.53v995.96M587.59,12.53v995.96M605.05,12.53v995.96M639.95,12.53v995.96M657.41,12.53v995.96M675.89,12.53v995.96M693.35,12.53v995.96M728.26,12.53v995.96M745.71,12.53v995.96M764.19,12.53v995.96M781.65,12.53v995.96M816.56,12.53v995.96M834.01,12.53v995.96M852.49,12.53v995.96M869.95,12.53v995.96M904.86,12.53v995.96M922.31,12.53v995.96M940.8,12.53v995.96M958.25,12.53v995.96M993.16,12.53v995.96M1010.62,12.53v995.96m18.48-995.96v995.96m17.45-995.96v995.96M1081.46,12.53v995.96m17.45-995.96v995.96m18.48-995.96v995.96m17.45-995.96v995.96M1169.76,12.53v995.96m17.45-995.96v995.96m18.48-995.96v995.96m17.45-995.96v995.96M1258.06,12.53v995.96"/>
          <path class="uuid-165740a3-8cba-4df3-8080-d3aa91223f11" d="m-24.36,59.77h1294.75m-1294.75,0h1294.75M-24.36,148.07h1294.75M-24.36,236.37h1294.75M-24.36,324.67h1294.75M-24.36,412.97h1294.75M-24.36,501.27h1294.75M-24.36,589.57h1294.75M-24.36,677.88h1294.75M-24.36,766.18h1294.75M-24.36,942.78h1294.75"/>
          <path class="uuid-325d17d5-7b72-44ad-884e-1cc88747d395" d="m-24.36,23.83h1294.75M-24.36,23.83h1294.75M-24.36,42.31h1294.75M-24.36,77.22h1294.75M-24.36,94.68h1294.75M-24.36,112.13h1294.75M-24.36,130.61h1294.75M-24.36,165.52h1294.75M-24.36,182.98h1294.75M-24.36,200.43h1294.75M-24.36,218.91h1294.75M-24.36,253.82h1294.75M-24.36,271.28h1294.75M-24.36,289.76h1294.75M-24.36,307.21h1294.75M-24.36,342.12h1294.75M-24.36,359.58h1294.75M-24.36,378.06h1294.75M-24.36,395.52h1294.75M-24.36,430.43h1294.75M-24.36,447.88h1294.75M-24.36,466.36h1294.75M-24.36,483.82h1294.75M-24.36,518.73h1294.75M-24.36,536.18h1294.75M-24.36,554.66h1294.75M-24.36,572.12h1294.75M-24.36,607.03h1294.75M-24.36,624.48h1294.75M-24.36,642.97h1294.75M-24.36,660.42h1294.75M-24.36,695.33h1294.75M-24.36,712.79h1294.75M-24.36,731.27h1294.75M-24.36,748.72h1294.75M-24.36,783.63h1294.75M-24.36,801.09h1294.75M-24.36,819.57h1294.75M-24.36,837.02h1294.75M-24.36,871.93h1294.75M-24.36,889.39h1294.75M-24.36,907.87h1294.75M-24.36,925.32h1294.75M-24.36,960.23h1294.75M-24.36,977.69h1294.75M-24.36,996.17h1294.75"/>
          <path class="uuid-c40c80c5-de6c-4bdf-8c83-00b913e492c5" d="m622.5,14.59v993.9"/>
          <path class="uuid-c40c80c5-de6c-4bdf-8c83-00b913e492c5" d="m622.5,13.56l-4.11,4.11"/>
          <path class="uuid-c40c80c5-de6c-4bdf-8c83-00b913e492c5" d="m622.5,13.56l4.11,4.11"/>
          <path class="uuid-c40c80c5-de6c-4bdf-8c83-00b913e492c5" d="m-24.36,854.48h1292.69"/>
          <g class="uuid-4b927b96-c8fe-4ecb-a02d-cb5b58866b6c">
            <path class="uuid-0730b42f-1ad5-46e4-9d1a-bd5fdc967226" d="m-.35,863.41c.13-.34.32-.63.57-.86.25-.23.55-.4.91-.52s.75-.17,1.19-.17c.34,0,.66.04.97.11.31.07.59.19.84.36.25.16.44.38.59.64.15.26.22.58.22.95,0,.59-.17,1.05-.51,1.38-.34.33-.77.52-1.29.57v.02c.25.02.49.08.72.18.23.09.44.23.63.41.18.18.33.4.44.66s.17.58.17.94c0,.39-.08.74-.23,1.05-.15.3-.36.56-.62.77-.26.21-.56.37-.9.47s-.7.16-1.09.16c-.48,0-.91-.07-1.29-.2-.39-.13-.71-.32-.99-.57-.27-.25-.47-.56-.61-.93-.14-.37-.19-.79-.15-1.27h.25c-.03.44.01.84.14,1.18.12.34.31.63.55.86s.55.4.91.52.76.18,1.2.18c.34,0,.66-.05.97-.14.31-.09.59-.24.83-.42.24-.19.43-.42.57-.7.14-.28.22-.59.22-.96s-.06-.67-.18-.92-.29-.46-.5-.63c-.22-.16-.47-.29-.76-.37s-.61-.13-.95-.15h-.6v-.25h.6c.27,0,.54-.03.81-.09.27-.06.51-.16.72-.31.21-.14.39-.33.52-.57.13-.23.2-.52.2-.87,0-.34-.08-.62-.22-.85-.14-.23-.32-.42-.54-.56-.22-.14-.47-.25-.75-.31s-.57-.09-.86-.09c-.4,0-.77.05-1.09.15-.32.1-.6.26-.83.47-.23.21-.4.47-.52.78s-.17.68-.17,1.1h-.25c0-.46.05-.86.18-1.2Z"/>
            <path class="uuid-0730b42f-1ad5-46e4-9d1a-bd5fdc967226" d="m7.18,870.39v-1.21h.25v1.21h-.25Z"/>
            <path class="uuid-0730b42f-1ad5-46e4-9d1a-bd5fdc967226" d="m10.07,865.85h.02c.24-.39.56-.68.96-.86s.84-.27,1.34-.27c.44,0,.83.07,1.18.21.35.14.66.34.91.6.25.25.45.56.59.92.14.36.21.75.21,1.17,0,.44-.07.85-.21,1.21-.14.36-.34.67-.59.92-.25.25-.56.45-.91.59-.35.13-.75.2-1.18.2s-.82-.06-1.19-.19c-.37-.13-.68-.31-.94-.55s-.46-.53-.6-.88c-.14-.35-.2-.75-.18-1.2h.25c-.02.41.04.78.16,1.1.12.32.3.59.54.81s.52.39.86.5c.34.12.71.17,1.11.17s.78-.06,1.1-.19c.32-.13.6-.31.83-.54.23-.23.41-.52.53-.85.12-.33.18-.7.18-1.1s-.06-.74-.19-1.07c-.13-.32-.31-.6-.54-.84-.23-.23-.51-.42-.84-.55-.33-.13-.69-.2-1.08-.2-.49,0-.95.11-1.37.33-.42.22-.74.54-.97.96h-.31l.9-4.23h4.3v.25h-4.1l-.76,3.58Z"/>
          </g>
          <g class="uuid-4b927b96-c8fe-4ecb-a02d-cb5b58866b6c">
            <path class="uuid-61d57e7c-cfda-4550-a678-007a848fef55" d="m-1.26,866.97v.25h-6.16v-.25H-1.26Z"/>
            <path class="uuid-61d57e7c-cfda-4550-a678-007a848fef55" d="m-.35,863.41c.13-.34.32-.63.57-.86.25-.23.55-.4.91-.52s.75-.17,1.19-.17c.34,0,.66.04.97.11.31.07.59.19.84.36.25.16.44.38.59.64.15.26.22.58.22.95,0,.59-.17,1.05-.51,1.38-.34.33-.77.52-1.29.57v.02c.25.02.49.08.72.18.23.09.44.23.63.41.18.18.33.4.44.66s.17.58.17.94c0,.39-.08.74-.23,1.05-.15.3-.36.56-.62.77-.26.21-.56.37-.9.47s-.7.16-1.09.16c-.48,0-.91-.07-1.29-.2-.39-.13-.71-.32-.99-.57-.27-.25-.47-.56-.61-.93-.14-.37-.19-.79-.15-1.27h.25c-.03.44.01.84.14,1.18.12.34.31.63.55.86s.55.4.91.52.76.18,1.2.18c.34,0,.66-.05.97-.14.31-.09.59-.24.83-.42.24-.19.43-.42.57-.7.14-.28.22-.59.22-.96s-.06-.67-.18-.92-.29-.46-.5-.63c-.22-.16-.47-.29-.76-.37s-.61-.13-.95-.15h-.6v-.25h.6c.27,0,.54-.03.81-.09.27-.06.51-.16.72-.31.21-.14.39-.33.52-.57.13-.23.2-.52.2-.87,0-.34-.08-.62-.22-.85-.14-.23-.32-.42-.54-.56-.22-.14-.47-.25-.75-.31s-.57-.09-.86-.09c-.4,0-.77.05-1.09.15-.32.1-.6.26-.83.47-.23.21-.4.47-.52.78s-.17.68-.17,1.1h-.25c0-.46.05-.86.18-1.2Z"/>
            <path class="uuid-61d57e7c-cfda-4550-a678-007a848fef55" d="m7.18,870.39v-1.21h.25v1.21h-.25Z"/>
            <path class="uuid-61d57e7c-cfda-4550-a678-007a848fef55" d="m10.07,865.85h.02c.24-.39.56-.68.96-.86s.84-.27,1.34-.27c.44,0,.83.07,1.18.21.35.14.66.34.91.6.25.25.45.56.59.92.14.36.21.75.21,1.17,0,.44-.07.85-.21,1.21-.14.36-.34.67-.59.92-.25.25-.56.45-.91.59-.35.13-.75.2-1.18.2s-.82-.06-1.19-.19c-.37-.13-.68-.31-.94-.55s-.46-.53-.6-.88c-.14-.35-.2-.75-.18-1.2h.25c-.02.41.04.78.16,1.1.12.32.3.59.54.81s.52.39.86.5c.34.12.71.17,1.11.17s.78-.06,1.1-.19c.32-.13.6-.31.83-.54.23-.23.41-.52.53-.85.12-.33.18-.7.18-1.1s-.06-.74-.19-1.07c-.13-.32-.31-.6-.54-.84-.23-.23-.51-.42-.84-.55-.33-.13-.69-.2-1.08-.2-.49,0-.95.11-1.37.33-.42.22-.74.54-.97.96h-.31l.9-4.23h4.3v.25h-4.1l-.76,3.58Z"/>
          </g>
          <g class="uuid-4b927b96-c8fe-4ecb-a02d-cb5b58866b6c">
            <path class="uuid-0730b42f-1ad5-46e4-9d1a-bd5fdc967226" d="m-.35,863.41c.13-.34.32-.63.57-.86.25-.23.55-.4.91-.52s.75-.17,1.19-.17c.34,0,.66.04.97.11.31.07.59.19.84.36.25.16.44.38.59.64.15.26.22.58.22.95,0,.59-.17,1.05-.51,1.38-.34.33-.77.52-1.29.57v.02c.25.02.49.08.72.18.23.09.44.23.63.41.18.18.33.4.44.66s.17.58.17.94c0,.39-.08.74-.23,1.05-.15.3-.36.56-.62.77-.26.21-.56.37-.9.47s-.7.16-1.09.16c-.48,0-.91-.07-1.29-.2-.39-.13-.71-.32-.99-.57-.27-.25-.47-.56-.61-.93-.14-.37-.19-.79-.15-1.27h.25c-.03.44.01.84.14,1.18.12.34.31.63.55.86s.55.4.91.52.76.18,1.2.18c.34,0,.66-.05.97-.14.31-.09.59-.24.83-.42.24-.19.43-.42.57-.7.14-.28.22-.59.22-.96s-.06-.67-.18-.92-.29-.46-.5-.63c-.22-.16-.47-.29-.76-.37s-.61-.13-.95-.15h-.6v-.25h.6c.27,0,.54-.03.81-.09.27-.06.51-.16.72-.31.21-.14.39-.33.52-.57.13-.23.2-.52.2-.87,0-.34-.08-.62-.22-.85-.14-.23-.32-.42-.54-.56-.22-.14-.47-.25-.75-.31s-.57-.09-.86-.09c-.4,0-.77.05-1.09.15-.32.1-.6.26-.83.47-.23.21-.4.47-.52.78s-.17.68-.17,1.1h-.25c0-.46.05-.86.18-1.2Z"/>
            <path class="uuid-0730b42f-1ad5-46e4-9d1a-bd5fdc967226" d="m7.18,870.39v-1.21h.25v1.21h-.25Z"/>
            <path class="uuid-0730b42f-1ad5-46e4-9d1a-bd5fdc967226" d="m10.07,865.85h.02c.24-.39.56-.68.96-.86s.84-.27,1.34-.27c.44,0,.83.07,1.18.21.35.14.66.34.91.6.25.25.45.56.59.92.14.36.21.75.21,1.17,0,.44-.07.85-.21,1.21-.14.36-.34.67-.59.92-.25.25-.56.45-.91.59-.35.13-.75.2-1.18.2s-.82-.06-1.19-.19c-.37-.13-.68-.31-.94-.55s-.46-.53-.6-.88c-.14-.35-.2-.75-.18-1.2h.25c-.02.41.04.78.16,1.1.12.32.3.59.54.81s.52.39.86.5c.34.12.71.17,1.11.17s.78-.06,1.1-.19c.32-.13.6-.31.83-.54.23-.23.41-.52.53-.85.12-.33.18-.7.18-1.1s-.06-.74-.19-1.07c-.13-.32-.31-.6-.54-.84-.23-.23-.51-.42-.84-.55-.33-.13-.69-.2-1.08-.2-.49,0-.95.11-1.37.33-.42.22-.74.54-.97.96h-.31l.9-4.23h4.3v.25h-4.1l-.76,3.58Z"/>
          </g>
          <g class="uuid-4b927b96-c8fe-4ecb-a02d-cb5b58866b6c">
            <path class="uuid-0730b42f-1ad5-46e4-9d1a-bd5fdc967226" d="m93.2,866.97v.25h-6.16v-.25h6.16Z"/>
            <path class="uuid-0730b42f-1ad5-46e4-9d1a-bd5fdc967226" d="m94.12,863.41c.13-.34.32-.63.57-.86.25-.23.55-.4.91-.52s.75-.17,1.19-.17c.34,0,.66.04.97.11.31.07.59.19.84.36.25.16.44.38.59.64.15.26.22.58.22.95,0,.59-.17,1.05-.51,1.38-.34.33-.77.52-1.29.57v.02c.25.02.49.08.72.18.23.09.44.23.63.41.18.18.33.4.44.66s.17.58.17.94c0,.39-.08.74-.23,1.05-.15.3-.36.56-.62.77-.26.21-.56.37-.9.47s-.7.16-1.09.16c-.48,0-.91-.07-1.29-.2-.39-.13-.71-.32-.99-.57-.27-.25-.47-.56-.61-.93-.14-.37-.19-.79-.15-1.27h.25c-.03.44.01.84.14,1.18.12.34.31.63.55.86s.55.4.91.52.76.18,1.2.18c.34,0,.66-.05.97-.14.31-.09.59-.24.83-.42.24-.19.43-.42.57-.7.14-.28.22-.59.22-.96s-.06-.67-.18-.92-.29-.46-.5-.63c-.22-.16-.47-.29-.76-.37s-.61-.13-.95-.15h-.6v-.25h.6c.27,0,.54-.03.81-.09.27-.06.51-.16.72-.31.21-.14.39-.33.52-.57.13-.23.2-.52.2-.87,0-.34-.08-.62-.22-.85-.14-.23-.32-.42-.54-.56-.22-.14-.47-.25-.75-.31s-.57-.09-.86-.09c-.4,0-.77.05-1.09.15-.32.1-.6.26-.83.47-.23.21-.4.47-.52.78s-.17.68-.17,1.1h-.25c0-.46.05-.86.18-1.2Z"/>
          </g>
          <g class="uuid-4b927b96-c8fe-4ecb-a02d-cb5b58866b6c">
            <path class="uuid-61d57e7c-cfda-4550-a678-007a848fef55" d="m93.2,866.97v.25h-6.16v-.25h6.16Z"/>
            <path class="uuid-61d57e7c-cfda-4550-a678-007a848fef55" d="m94.12,863.41c.13-.34.32-.63.57-.86.25-.23.55-.4.91-.52s.75-.17,1.19-.17c.34,0,.66.04.97.11.31.07.59.19.84.36.25.16.44.38.59.64.15.26.22.58.22.95,0,.59-.17,1.05-.51,1.38-.34.33-.77.52-1.29.57v.02c.25.02.49.08.72.18.23.09.44.23.63.41.18.18.33.4.44.66s.17.58.17.94c0,.39-.08.74-.23,1.05-.15.3-.36.56-.62.77-.26.21-.56.37-.9.47s-.7.16-1.09.16c-.48,0-.91-.07-1.29-.2-.39-.13-.71-.32-.99-.57-.27-.25-.47-.56-.61-.93-.14-.37-.19-.79-.15-1.27h.25c-.03.44.01.84.14,1.18.12.34.31.63.55.86s.55.4.91.52.76.18,1.2.18c.34,0,.66-.05.97-.14.31-.09.59-.24.83-.42.24-.19.43-.42.57-.7.14-.28.22-.59.22-.96s-.06-.67-.18-.92-.29-.46-.5-.63c-.22-.16-.47-.29-.76-.37s-.61-.13-.95-.15h-.6v-.25h.6c.27,0,.54-.03.81-.09.27-.06.51-.16.72-.31.21-.14.39-.33.52-.57.13-.23.2-.52.2-.87,0-.34-.08-.62-.22-.85-.14-.23-.32-.42-.54-.56-.22-.14-.47-.25-.75-.31s-.57-.09-.86-.09c-.4,0-.77.05-1.09.15-.32.1-.6.26-.83.47-.23.21-.4.47-.52.78s-.17.68-.17,1.1h-.25c0-.46.05-.86.18-1.2Z"/>
          </g>
          <g class="uuid-4b927b96-c8fe-4ecb-a02d-cb5b58866b6c">
            <path class="uuid-0730b42f-1ad5-46e4-9d1a-bd5fdc967226" d="m93.2,866.97v.25h-6.16v-.25h6.16Z"/>
            <path class="uuid-0730b42f-1ad5-46e4-9d1a-bd5fdc967226" d="m94.12,863.41c.13-.34.32-.63.57-.86.25-.23.55-.4.91-.52s.75-.17,1.19-.17c.34,0,.66.04.97.11.31.07.59.19.84.36.25.16.44.38.59.64.15.26.22.58.22.95,0,.59-.17,1.05-.51,1.38-.34.33-.77.52-1.29.57v.02c.25.02.49.08.72.18.23.09.44.23.63.41.18.18.33.4.44.66s.17.58.17.94c0,.39-.08.74-.23,1.05-.15.3-.36.56-.62.77-.26.21-.56.37-.9.47s-.7.16-1.09.16c-.48,0-.91-.07-1.29-.2-.39-.13-.71-.32-.99-.57-.27-.25-.47-.56-.61-.93-.14-.37-.19-.79-.15-1.27h.25c-.03.44.01.84.14,1.18.12.34.31.63.55.86s.55.4.91.52.76.18,1.2.18c.34,0,.66-.05.97-.14.31-.09.59-.24.83-.42.24-.19.43-.42.57-.7.14-.28.22-.59.22-.96s-.06-.67-.18-.92-.29-.46-.5-.63c-.22-.16-.47-.29-.76-.37s-.61-.13-.95-.15h-.6v-.25h.6c.27,0,.54-.03.81-.09.27-.06.51-.16.72-.31.21-.14.39-.33.52-.57.13-.23.2-.52.2-.87,0-.34-.08-.62-.22-.85-.14-.23-.32-.42-.54-.56-.22-.14-.47-.25-.75-.31s-.57-.09-.86-.09c-.4,0-.77.05-1.09.15-.32.1-.6.26-.83.47-.23.21-.4.47-.52.78s-.17.68-.17,1.1h-.25c0-.46.05-.86.18-1.2Z"/>
          </g>
          <g class="uuid-4b927b96-c8fe-4ecb-a02d-cb5b58866b6c">
            <path class="uuid-0730b42f-1ad5-46e4-9d1a-bd5fdc967226" d="m175.35,866.97v.25h-6.16v-.25h6.16Z"/>
            <path class="uuid-0730b42f-1ad5-46e4-9d1a-bd5fdc967226" d="m181.67,870.39h-5.64c0-.35.07-.67.22-.96.16-.29.36-.56.62-.81.25-.25.54-.49.86-.71.32-.23.63-.45.94-.67.32-.22.63-.45.94-.68.3-.23.57-.47.81-.72.24-.25.43-.52.57-.8.14-.28.22-.59.22-.92s-.06-.62-.18-.87c-.12-.25-.28-.46-.49-.63-.21-.17-.45-.3-.73-.38s-.59-.13-.93-.13c-.44,0-.81.07-1.12.2-.31.13-.57.31-.76.55s-.34.51-.43.84-.14.68-.14,1.07h-.25c0-.92.24-1.63.68-2.14s1.12-.76,2.01-.76c.36,0,.7.05,1.01.14.31.09.58.24.81.43.23.19.41.42.55.7.14.28.2.61.2.99,0,.46-.12.88-.37,1.26-.25.38-.56.73-.93,1.06-.37.33-.78.64-1.21.93-.44.29-.84.58-1.23.87-.38.29-.71.59-.98.9-.27.31-.42.64-.46,1h5.4v.25Z"/>
            <path class="uuid-0730b42f-1ad5-46e4-9d1a-bd5fdc967226" d="m183.79,870.39v-1.21h.25v1.21h-.25Z"/>
            <path class="uuid-0730b42f-1ad5-46e4-9d1a-bd5fdc967226" d="m186.67,865.85h.02c.24-.39.56-.68.96-.86s.84-.27,1.34-.27c.44,0,.83.07,1.18.21.35.14.66.34.91.6.25.25.45.56.59.92.14.36.21.75.21,1.17,0,.44-.07.85-.21,1.21-.14.36-.34.67-.59.92-.25.25-.56.45-.91.59-.35.13-.75.2-1.18.2s-.82-.06-1.19-.19c-.37-.13-.68-.31-.94-.55s-.46-.53-.6-.88c-.14-.35-.2-.75-.18-1.2h.25c-.02.41.04.78.16,1.1.12.32.3.59.54.81s.52.39.86.5c.34.12.71.17,1.11.17s.78-.06,1.1-.19c.32-.13.6-.31.83-.54.23-.23.41-.52.53-.85.12-.33.18-.7.18-1.1s-.06-.74-.19-1.07c-.13-.32-.31-.6-.54-.84-.23-.23-.51-.42-.84-.55-.33-.13-.69-.2-1.08-.2-.49,0-.95.11-1.37.33-.42.22-.74.54-.97.96h-.31l.9-4.23h4.3v.25h-4.1l-.76,3.58Z"/>
          </g>
          <g class="uuid-4b927b96-c8fe-4ecb-a02d-cb5b58866b6c">
            <path class="uuid-61d57e7c-cfda-4550-a678-007a848fef55" d="m175.35,866.97v.25h-6.16v-.25h6.16Z"/>
            <path class="uuid-61d57e7c-cfda-4550-a678-007a848fef55" d="m181.67,870.39h-5.64c0-.35.07-.67.22-.96.16-.29.36-.56.62-.81.25-.25.54-.49.86-.71.32-.23.63-.45.94-.67.32-.22.63-.45.94-.68.3-.23.57-.47.81-.72.24-.25.43-.52.57-.8.14-.28.22-.59.22-.92s-.06-.62-.18-.87c-.12-.25-.28-.46-.49-.63-.21-.17-.45-.3-.73-.38s-.59-.13-.93-.13c-.44,0-.81.07-1.12.2-.31.13-.57.31-.76.55s-.34.51-.43.84-.14.68-.14,1.07h-.25c0-.92.24-1.63.68-2.14s1.12-.76,2.01-.76c.36,0,.7.05,1.01.14.31.09.58.24.81.43.23.19.41.42.55.7.14.28.2.61.2.99,0,.46-.12.88-.37,1.26-.25.38-.56.73-.93,1.06-.37.33-.78.64-1.21.93-.44.29-.84.58-1.23.87-.38.29-.71.59-.98.9-.27.31-.42.64-.46,1h5.4v.25Z"/>
            <path class="uuid-61d57e7c-cfda-4550-a678-007a848fef55" d="m183.79,870.39v-1.21h.25v1.21h-.25Z"/>
            <path class="uuid-61d57e7c-cfda-4550-a678-007a848fef55" d="m186.67,865.85h.02c.24-.39.56-.68.96-.86s.84-.27,1.34-.27c.44,0,.83.07,1.18.21.35.14.66.34.91.6.25.25.45.56.59.92.14.36.21.75.21,1.17,0,.44-.07.85-.21,1.21-.14.36-.34.67-.59.92-.25.25-.56.45-.91.59-.35.13-.75.2-1.18.2s-.82-.06-1.19-.19c-.37-.13-.68-.31-.94-.55s-.46-.53-.6-.88c-.14-.35-.2-.75-.18-1.2h.25c-.02.41.04.78.16,1.1.12.32.3.59.54.81s.52.39.86.5c.34.12.71.17,1.11.17s.78-.06,1.1-.19c.32-.13.6-.31.83-.54.23-.23.41-.52.53-.85.12-.33.18-.7.18-1.1s-.06-.74-.19-1.07c-.13-.32-.31-.6-.54-.84-.23-.23-.51-.42-.84-.55-.33-.13-.69-.2-1.08-.2-.49,0-.95.11-1.37.33-.42.22-.74.54-.97.96h-.31l.9-4.23h4.3v.25h-4.1l-.76,3.58Z"/>
          </g>
          <g class="uuid-4b927b96-c8fe-4ecb-a02d-cb5b58866b6c">
            <path class="uuid-0730b42f-1ad5-46e4-9d1a-bd5fdc967226" d="m175.35,866.97v.25h-6.16v-.25h6.16Z"/>
            <path class="uuid-0730b42f-1ad5-46e4-9d1a-bd5fdc967226" d="m181.67,870.39h-5.64c0-.35.07-.67.22-.96.16-.29.36-.56.62-.81.25-.25.54-.49.86-.71.32-.23.63-.45.94-.67.32-.22.63-.45.94-.68.3-.23.57-.47.81-.72.24-.25.43-.52.57-.8.14-.28.22-.59.22-.92s-.06-.62-.18-.87c-.12-.25-.28-.46-.49-.63-.21-.17-.45-.3-.73-.38s-.59-.13-.93-.13c-.44,0-.81.07-1.12.2-.31.13-.57.31-.76.55s-.34.51-.43.84-.14.68-.14,1.07h-.25c0-.92.24-1.63.68-2.14s1.12-.76,2.01-.76c.36,0,.7.05,1.01.14.31.09.58.24.81.43.23.19.41.42.55.7.14.28.2.61.2.99,0,.46-.12.88-.37,1.26-.25.38-.56.73-.93,1.06-.37.33-.78.64-1.21.93-.44.29-.84.58-1.23.87-.38.29-.71.59-.98.9-.27.31-.42.64-.46,1h5.4v.25Z"/>
            <path class="uuid-0730b42f-1ad5-46e4-9d1a-bd5fdc967226" d="m183.79,870.39v-1.21h.25v1.21h-.25Z"/>
            <path class="uuid-0730b42f-1ad5-46e4-9d1a-bd5fdc967226" d="m186.67,865.85h.02c.24-.39.56-.68.96-.86s.84-.27,1.34-.27c.44,0,.83.07,1.18.21.35.14.66.34.91.6.25.25.45.56.59.92.14.36.21.75.21,1.17,0,.44-.07.85-.21,1.21-.14.36-.34.67-.59.92-.25.25-.56.45-.91.59-.35.13-.75.2-1.18.2s-.82-.06-1.19-.19c-.37-.13-.68-.31-.94-.55s-.46-.53-.6-.88c-.14-.35-.2-.75-.18-1.2h.25c-.02.41.04.78.16,1.1.12.32.3.59.54.81s.52.39.86.5c.34.12.71.17,1.11.17s.78-.06,1.1-.19c.32-.13.6-.31.83-.54.23-.23.41-.52.53-.85.12-.33.18-.7.18-1.1s-.06-.74-.19-1.07c-.13-.32-.31-.6-.54-.84-.23-.23-.51-.42-.84-.55-.33-.13-.69-.2-1.08-.2-.49,0-.95.11-1.37.33-.42.22-.74.54-.97.96h-.31l.9-4.23h4.3v.25h-4.1l-.76,3.58Z"/>
          </g>
          <g class="uuid-4b927b96-c8fe-4ecb-a02d-cb5b58866b6c">
            <path class="uuid-0730b42f-1ad5-46e4-9d1a-bd5fdc967226" d="m269.81,866.97v.25h-6.16v-.25h6.16Z"/>
            <path class="uuid-0730b42f-1ad5-46e4-9d1a-bd5fdc967226" d="m276.13,870.39h-5.64c0-.35.07-.67.22-.96.16-.29.36-.56.62-.81.25-.25.54-.49.86-.71.32-.23.63-.45.94-.67.32-.22.63-.45.94-.68.3-.23.57-.47.81-.72.24-.25.43-.52.57-.8.14-.28.22-.59.22-.92s-.06-.62-.18-.87c-.12-.25-.28-.46-.49-.63-.21-.17-.45-.3-.73-.38s-.59-.13-.93-.13c-.44,0-.81.07-1.12.2-.31.13-.57.31-.76.55s-.34.51-.43.84-.14.68-.14,1.07h-.25c0-.92.24-1.63.68-2.14s1.12-.76,2.01-.76c.36,0,.7.05,1.01.14.31.09.58.24.81.43.23.19.41.42.55.7.14.28.2.61.2.99,0,.46-.12.88-.37,1.26-.25.38-.56.73-.93,1.06-.37.33-.78.64-1.21.93-.44.29-.84.58-1.23.87-.38.29-.71.59-.98.9-.27.31-.42.64-.46,1h5.4v.25Z"/>
          </g>
          <g class="uuid-4b927b96-c8fe-4ecb-a02d-cb5b58866b6c">
            <path class="uuid-61d57e7c-cfda-4550-a678-007a848fef55" d="m269.81,866.97v.25h-6.16v-.25h6.16Z"/>
            <path class="uuid-61d57e7c-cfda-4550-a678-007a848fef55" d="m276.13,870.39h-5.64c0-.35.07-.67.22-.96.16-.29.36-.56.62-.81.25-.25.54-.49.86-.71.32-.23.63-.45.94-.67.32-.22.63-.45.94-.68.3-.23.57-.47.81-.72.24-.25.43-.52.57-.8.14-.28.22-.59.22-.92s-.06-.62-.18-.87c-.12-.25-.28-.46-.49-.63-.21-.17-.45-.3-.73-.38s-.59-.13-.93-.13c-.44,0-.81.07-1.12.2-.31.13-.57.31-.76.55s-.34.51-.43.84-.14.68-.14,1.07h-.25c0-.92.24-1.63.68-2.14s1.12-.76,2.01-.76c.36,0,.7.05,1.01.14.31.09.58.24.81.43.23.19.41.42.55.7.14.28.2.61.2.99,0,.46-.12.88-.37,1.26-.25.38-.56.73-.93,1.06-.37.33-.78.64-1.21.93-.44.29-.84.58-1.23.87-.38.29-.71.59-.98.9-.27.31-.42.64-.46,1h5.4v.25Z"/>
          </g>
          <g class="uuid-4b927b96-c8fe-4ecb-a02d-cb5b58866b6c">
            <path class="uuid-0730b42f-1ad5-46e4-9d1a-bd5fdc967226" d="m269.81,866.97v.25h-6.16v-.25h6.16Z"/>
            <path class="uuid-0730b42f-1ad5-46e4-9d1a-bd5fdc967226" d="m276.13,870.39h-5.64c0-.35.07-.67.22-.96.16-.29.36-.56.62-.81.25-.25.54-.49.86-.71.32-.23.63-.45.94-.67.32-.22.63-.45.94-.68.3-.23.57-.47.81-.72.24-.25.43-.52.57-.8.14-.28.22-.59.22-.92s-.06-.62-.18-.87c-.12-.25-.28-.46-.49-.63-.21-.17-.45-.3-.73-.38s-.59-.13-.93-.13c-.44,0-.81.07-1.12.2-.31.13-.57.31-.76.55s-.34.51-.43.84-.14.68-.14,1.07h-.25c0-.92.24-1.63.68-2.14s1.12-.76,2.01-.76c.36,0,.7.05,1.01.14.31.09.58.24.81.43.23.19.41.42.55.7.14.28.2.61.2.99,0,.46-.12.88-.37,1.26-.25.38-.56.73-.93,1.06-.37.33-.78.64-1.21.93-.44.29-.84.58-1.23.87-.38.29-.71.59-.98.9-.27.31-.42.64-.46,1h5.4v.25Z"/>
          </g>
          <g class="uuid-4b927b96-c8fe-4ecb-a02d-cb5b58866b6c">
            <path class="uuid-0730b42f-1ad5-46e4-9d1a-bd5fdc967226" d="m351.95,866.97v.25h-6.16v-.25h6.16Z"/>
            <path class="uuid-0730b42f-1ad5-46e4-9d1a-bd5fdc967226" d="m355.6,862.34c-.25.35-.58.66-.99.92-.41.26-.82.45-1.24.56v-.25c.25-.08.48-.17.68-.27.2-.1.38-.21.55-.33.17-.12.34-.26.5-.42s.33-.33.5-.53h.27v8.38h-.25v-8.06h-.02Z"/>
            <path class="uuid-0730b42f-1ad5-46e4-9d1a-bd5fdc967226" d="m360.39,870.39v-1.21h.25v1.21h-.25Z"/>
            <path class="uuid-0730b42f-1ad5-46e4-9d1a-bd5fdc967226" d="m363.27,865.85h.02c.24-.39.56-.68.96-.86s.84-.27,1.34-.27c.44,0,.83.07,1.18.21.35.14.66.34.91.6.25.25.45.56.59.92.14.36.21.75.21,1.17,0,.44-.07.85-.21,1.21-.14.36-.34.67-.59.92-.25.25-.56.45-.91.59-.35.13-.75.2-1.18.2s-.82-.06-1.19-.19c-.37-.13-.68-.31-.94-.55s-.46-.53-.6-.88c-.14-.35-.2-.75-.18-1.2h.25c-.02.41.04.78.16,1.1.12.32.3.59.54.81s.52.39.86.5c.34.12.71.17,1.11.17s.78-.06,1.1-.19c.32-.13.6-.31.83-.54.23-.23.41-.52.53-.85.12-.33.18-.7.18-1.1s-.06-.74-.19-1.07c-.13-.32-.31-.6-.54-.84-.23-.23-.51-.42-.84-.55-.33-.13-.69-.2-1.08-.2-.49,0-.95.11-1.37.33-.42.22-.74.54-.97.96h-.31l.9-4.23h4.3v.25h-4.1l-.76,3.58Z"/>
          </g>
          <g class="uuid-4b927b96-c8fe-4ecb-a02d-cb5b58866b6c">
            <path class="uuid-61d57e7c-cfda-4550-a678-007a848fef55" d="m351.95,866.97v.25h-6.16v-.25h6.16Z"/>
            <path class="uuid-61d57e7c-cfda-4550-a678-007a848fef55" d="m355.6,862.34c-.25.35-.58.66-.99.92-.41.26-.82.45-1.24.56v-.25c.25-.08.48-.17.68-.27.2-.1.38-.21.55-.33.17-.12.34-.26.5-.42s.33-.33.5-.53h.27v8.38h-.25v-8.06h-.02Z"/>
            <path class="uuid-61d57e7c-cfda-4550-a678-007a848fef55" d="m360.39,870.39v-1.21h.25v1.21h-.25Z"/>
            <path class="uuid-61d57e7c-cfda-4550-a678-007a848fef55" d="m363.27,865.85h.02c.24-.39.56-.68.96-.86s.84-.27,1.34-.27c.44,0,.83.07,1.18.21.35.14.66.34.91.6.25.25.45.56.59.92.14.36.21.75.21,1.17,0,.44-.07.85-.21,1.21-.14.36-.34.67-.59.92-.25.25-.56.45-.91.59-.35.13-.75.2-1.18.2s-.82-.06-1.19-.19c-.37-.13-.68-.31-.94-.55s-.46-.53-.6-.88c-.14-.35-.2-.75-.18-1.2h.25c-.02.41.04.78.16,1.1.12.32.3.59.54.81s.52.39.86.5c.34.12.71.17,1.11.17s.78-.06,1.1-.19c.32-.13.6-.31.83-.54.23-.23.41-.52.53-.85.12-.33.18-.7.18-1.1s-.06-.74-.19-1.07c-.13-.32-.31-.6-.54-.84-.23-.23-.51-.42-.84-.55-.33-.13-.69-.2-1.08-.2-.49,0-.95.11-1.37.33-.42.22-.74.54-.97.96h-.31l.9-4.23h4.3v.25h-4.1l-.76,3.58Z"/>
          </g>
          <g class="uuid-4b927b96-c8fe-4ecb-a02d-cb5b58866b6c">
            <path class="uuid-0730b42f-1ad5-46e4-9d1a-bd5fdc967226" d="m351.95,866.97v.25h-6.16v-.25h6.16Z"/>
            <path class="uuid-0730b42f-1ad5-46e4-9d1a-bd5fdc967226" d="m355.6,862.34c-.25.35-.58.66-.99.92-.41.26-.82.45-1.24.56v-.25c.25-.08.48-.17.68-.27.2-.1.38-.21.55-.33.17-.12.34-.26.5-.42s.33-.33.5-.53h.27v8.38h-.25v-8.06h-.02Z"/>
            <path class="uuid-0730b42f-1ad5-46e4-9d1a-bd5fdc967226" d="m360.39,870.39v-1.21h.25v1.21h-.25Z"/>
            <path class="uuid-0730b42f-1ad5-46e4-9d1a-bd5fdc967226" d="m363.27,865.85h.02c.24-.39.56-.68.96-.86s.84-.27,1.34-.27c.44,0,.83.07,1.18.21.35.14.66.34.91.6.25.25.45.56.59.92.14.36.21.75.21,1.17,0,.44-.07.85-.21,1.21-.14.36-.34.67-.59.92-.25.25-.56.45-.91.59-.35.13-.75.2-1.18.2s-.82-.06-1.19-.19c-.37-.13-.68-.31-.94-.55s-.46-.53-.6-.88c-.14-.35-.2-.75-.18-1.2h.25c-.02.41.04.78.16,1.1.12.32.3.59.54.81s.52.39.86.5c.34.12.71.17,1.11.17s.78-.06,1.1-.19c.32-.13.6-.31.83-.54.23-.23.41-.52.53-.85.12-.33.18-.7.18-1.1s-.06-.74-.19-1.07c-.13-.32-.31-.6-.54-.84-.23-.23-.51-.42-.84-.55-.33-.13-.69-.2-1.08-.2-.49,0-.95.11-1.37.33-.42.22-.74.54-.97.96h-.31l.9-4.23h4.3v.25h-4.1l-.76,3.58Z"/>
          </g>
          <g class="uuid-4b927b96-c8fe-4ecb-a02d-cb5b58866b6c">
            <path class="uuid-0730b42f-1ad5-46e4-9d1a-bd5fdc967226" d="m446.41,866.97v.25h-6.16v-.25h6.16Z"/>
            <path class="uuid-0730b42f-1ad5-46e4-9d1a-bd5fdc967226" d="m450.06,862.34c-.25.35-.58.66-.99.92-.41.26-.82.45-1.24.56v-.25c.25-.08.48-.17.68-.27.2-.1.38-.21.55-.33.17-.12.34-.26.5-.42s.33-.33.5-.53h.27v8.38h-.25v-8.06h-.02Z"/>
          </g>
          <g class="uuid-4b927b96-c8fe-4ecb-a02d-cb5b58866b6c">
            <path class="uuid-61d57e7c-cfda-4550-a678-007a848fef55" d="m446.41,866.97v.25h-6.16v-.25h6.16Z"/>
            <path class="uuid-61d57e7c-cfda-4550-a678-007a848fef55" d="m450.06,862.34c-.25.35-.58.66-.99.92-.41.26-.82.45-1.24.56v-.25c.25-.08.48-.17.68-.27.2-.1.38-.21.55-.33.17-.12.34-.26.5-.42s.33-.33.5-.53h.27v8.38h-.25v-8.06h-.02Z"/>
          </g>
          <g class="uuid-4b927b96-c8fe-4ecb-a02d-cb5b58866b6c">
            <path class="uuid-0730b42f-1ad5-46e4-9d1a-bd5fdc967226" d="m446.41,866.97v.25h-6.16v-.25h6.16Z"/>
            <path class="uuid-0730b42f-1ad5-46e4-9d1a-bd5fdc967226" d="m450.06,862.34c-.25.35-.58.66-.99.92-.41.26-.82.45-1.24.56v-.25c.25-.08.48-.17.68-.27.2-.1.38-.21.55-.33.17-.12.34-.26.5-.42s.33-.33.5-.53h.27v8.38h-.25v-8.06h-.02Z"/>
          </g>
          <g class="uuid-4b927b96-c8fe-4ecb-a02d-cb5b58866b6c">
            <path class="uuid-0730b42f-1ad5-46e4-9d1a-bd5fdc967226" d="m528.55,866.97v.25h-6.16v-.25h6.16Z"/>
            <path class="uuid-0730b42f-1ad5-46e4-9d1a-bd5fdc967226" d="m534.99,867.77c-.1.52-.28.98-.52,1.39-.25.41-.57.74-.97.99-.4.25-.91.38-1.52.38s-1.1-.13-1.51-.38c-.41-.25-.73-.58-.98-.99-.25-.41-.42-.87-.52-1.39s-.15-1.04-.15-1.57.05-1.05.15-1.56.28-.98.52-1.39c.25-.41.57-.74.98-1,.41-.25.91-.38,1.51-.38s1.11.13,1.52.38c.4.25.73.59.97,1,.25.41.42.88.52,1.39.1.52.15,1.04.15,1.56s-.05,1.05-.15,1.57Zm-.23-2.99c-.09-.48-.25-.92-.47-1.32-.22-.39-.52-.72-.89-.97-.37-.25-.85-.38-1.42-.38s-1.05.13-1.42.38c-.37.25-.67.57-.89.97-.22.39-.38.83-.47,1.32s-.14.96-.14,1.43.04.95.14,1.43.25.92.47,1.32.52.72.89.97c.37.25.85.38,1.42.38s1.05-.12,1.42-.38c.37-.25.67-.57.89-.97s.38-.83.47-1.32c.09-.48.14-.96.14-1.43s-.04-.94-.14-1.43Z"/>
            <path class="uuid-0730b42f-1ad5-46e4-9d1a-bd5fdc967226" d="m536.99,870.39v-1.21h.25v1.21h-.25Z"/>
            <path class="uuid-0730b42f-1ad5-46e4-9d1a-bd5fdc967226" d="m539.87,865.85h.02c.24-.39.56-.68.96-.86s.84-.27,1.34-.27c.44,0,.83.07,1.18.21.35.14.66.34.91.6.25.25.45.56.59.92.14.36.21.75.21,1.17,0,.44-.07.85-.21,1.21-.14.36-.34.67-.59.92-.25.25-.56.45-.91.59-.35.13-.75.2-1.18.2s-.82-.06-1.19-.19c-.37-.13-.68-.31-.94-.55s-.46-.53-.6-.88c-.14-.35-.2-.75-.18-1.2h.25c-.02.41.04.78.16,1.1.12.32.3.59.54.81s.52.39.86.5c.34.12.71.17,1.11.17s.78-.06,1.1-.19c.32-.13.6-.31.83-.54.23-.23.41-.52.53-.85.12-.33.18-.7.18-1.1s-.06-.74-.19-1.07c-.13-.32-.31-.6-.54-.84-.23-.23-.51-.42-.84-.55-.33-.13-.69-.2-1.08-.2-.49,0-.95.11-1.37.33-.42.22-.74.54-.97.96h-.31l.9-4.23h4.3v.25h-4.1l-.76,3.58Z"/>
          </g>
          <g class="uuid-4b927b96-c8fe-4ecb-a02d-cb5b58866b6c">
            <path class="uuid-61d57e7c-cfda-4550-a678-007a848fef55" d="m528.55,866.97v.25h-6.16v-.25h6.16Z"/>
            <path class="uuid-61d57e7c-cfda-4550-a678-007a848fef55" d="m534.99,867.77c-.1.52-.28.98-.52,1.39-.25.41-.57.74-.97.99-.4.25-.91.38-1.52.38s-1.1-.13-1.51-.38c-.41-.25-.73-.58-.98-.99-.25-.41-.42-.87-.52-1.39s-.15-1.04-.15-1.57.05-1.05.15-1.56.28-.98.52-1.39c.25-.41.57-.74.98-1,.41-.25.91-.38,1.51-.38s1.11.13,1.52.38c.4.25.73.59.97,1,.25.41.42.88.52,1.39.1.52.15,1.04.15,1.56s-.05,1.05-.15,1.57Zm-.23-2.99c-.09-.48-.25-.92-.47-1.32-.22-.39-.52-.72-.89-.97-.37-.25-.85-.38-1.42-.38s-1.05.13-1.42.38c-.37.25-.67.57-.89.97-.22.39-.38.83-.47,1.32s-.14.96-.14,1.43.04.95.14,1.43.25.92.47,1.32.52.72.89.97c.37.25.85.38,1.42.38s1.05-.12,1.42-.38c.37-.25.67-.57.89-.97s.38-.83.47-1.32c.09-.48.14-.96.14-1.43s-.04-.94-.14-1.43Z"/>
            <path class="uuid-61d57e7c-cfda-4550-a678-007a848fef55" d="m536.99,870.39v-1.21h.25v1.21h-.25Z"/>
            <path class="uuid-61d57e7c-cfda-4550-a678-007a848fef55" d="m539.87,865.85h.02c.24-.39.56-.68.96-.86s.84-.27,1.34-.27c.44,0,.83.07,1.18.21.35.14.66.34.91.6.25.25.45.56.59.92.14.36.21.75.21,1.17,0,.44-.07.85-.21,1.21-.14.36-.34.67-.59.92-.25.25-.56.45-.91.59-.35.13-.75.2-1.18.2s-.82-.06-1.19-.19c-.37-.13-.68-.31-.94-.55s-.46-.53-.6-.88c-.14-.35-.2-.75-.18-1.2h.25c-.02.41.04.78.16,1.1.12.32.3.59.54.81s.52.39.86.5c.34.12.71.17,1.11.17s.78-.06,1.1-.19c.32-.13.6-.31.83-.54.23-.23.41-.52.53-.85.12-.33.18-.7.18-1.1s-.06-.74-.19-1.07c-.13-.32-.31-.6-.54-.84-.23-.23-.51-.42-.84-.55-.33-.13-.69-.2-1.08-.2-.49,0-.95.11-1.37.33-.42.22-.74.54-.97.96h-.31l.9-4.23h4.3v.25h-4.1l-.76,3.58Z"/>
          </g>
          <g class="uuid-4b927b96-c8fe-4ecb-a02d-cb5b58866b6c">
            <path class="uuid-0730b42f-1ad5-46e4-9d1a-bd5fdc967226" d="m528.55,866.97v.25h-6.16v-.25h6.16Z"/>
            <path class="uuid-0730b42f-1ad5-46e4-9d1a-bd5fdc967226" d="m534.99,867.77c-.1.52-.28.98-.52,1.39-.25.41-.57.74-.97.99-.4.25-.91.38-1.52.38s-1.1-.13-1.51-.38c-.41-.25-.73-.58-.98-.99-.25-.41-.42-.87-.52-1.39s-.15-1.04-.15-1.57.05-1.05.15-1.56.28-.98.52-1.39c.25-.41.57-.74.98-1,.41-.25.91-.38,1.51-.38s1.11.13,1.52.38c.4.25.73.59.97,1,.25.41.42.88.52,1.39.1.52.15,1.04.15,1.56s-.05,1.05-.15,1.57Zm-.23-2.99c-.09-.48-.25-.92-.47-1.32-.22-.39-.52-.72-.89-.97-.37-.25-.85-.38-1.42-.38s-1.05.13-1.42.38c-.37.25-.67.57-.89.97-.22.39-.38.83-.47,1.32s-.14.96-.14,1.43.04.95.14,1.43.25.92.47,1.32.52.72.89.97c.37.25.85.38,1.42.38s1.05-.12,1.42-.38c.37-.25.67-.57.89-.97s.38-.83.47-1.32c.09-.48.14-.96.14-1.43s-.04-.94-.14-1.43Z"/>
            <path class="uuid-0730b42f-1ad5-46e4-9d1a-bd5fdc967226" d="m536.99,870.39v-1.21h.25v1.21h-.25Z"/>
            <path class="uuid-0730b42f-1ad5-46e4-9d1a-bd5fdc967226" d="m539.87,865.85h.02c.24-.39.56-.68.96-.86s.84-.27,1.34-.27c.44,0,.83.07,1.18.21.35.14.66.34.91.6.25.25.45.56.59.92.14.36.21.75.21,1.17,0,.44-.07.85-.21,1.21-.14.36-.34.67-.59.92-.25.25-.56.45-.91.59-.35.13-.75.2-1.18.2s-.82-.06-1.19-.19c-.37-.13-.68-.31-.94-.55s-.46-.53-.6-.88c-.14-.35-.2-.75-.18-1.2h.25c-.02.41.04.78.16,1.1.12.32.3.59.54.81s.52.39.86.5c.34.12.71.17,1.11.17s.78-.06,1.1-.19c.32-.13.6-.31.83-.54.23-.23.41-.52.53-.85.12-.33.18-.7.18-1.1s-.06-.74-.19-1.07c-.13-.32-.31-.6-.54-.84-.23-.23-.51-.42-.84-.55-.33-.13-.69-.2-1.08-.2-.49,0-.95.11-1.37.33-.42.22-.74.54-.97.96h-.31l.9-4.23h4.3v.25h-4.1l-.76,3.58Z"/>
          </g>
          <g class="uuid-4b927b96-c8fe-4ecb-a02d-cb5b58866b6c">
            <path class="uuid-0730b42f-1ad5-46e4-9d1a-bd5fdc967226" d="m708.51,867.77c-.1.52-.28.98-.52,1.39-.25.41-.57.74-.97.99-.4.25-.91.38-1.52.38s-1.1-.13-1.51-.38c-.41-.25-.73-.58-.98-.99-.25-.41-.42-.87-.52-1.39-.1-.52-.15-1.04-.15-1.57s.05-1.05.15-1.56c.1-.52.28-.98.52-1.39.25-.41.57-.74.98-1,.41-.25.91-.38,1.51-.38s1.11.13,1.52.38c.4.25.73.59.97,1,.25.41.42.88.52,1.39s.15,1.04.15,1.56-.05,1.05-.15,1.57Zm-.23-2.99c-.09-.48-.25-.92-.47-1.32-.22-.39-.52-.72-.89-.97-.37-.25-.85-.38-1.42-.38s-1.05.13-1.42.38c-.37.25-.67.57-.89.97-.22.39-.38.83-.47,1.32s-.14.96-.14,1.43.04.95.14,1.43.25.92.47,1.32c.22.39.52.72.89.97.37.25.85.38,1.42.38s1.05-.12,1.42-.38c.37-.25.67-.57.89-.97.22-.39.38-.83.47-1.32.09-.48.14-.96.14-1.43s-.05-.94-.14-1.43Z"/>
            <path class="uuid-0730b42f-1ad5-46e4-9d1a-bd5fdc967226" d="m710.51,870.39v-1.21h.25v1.21h-.25Z"/>
            <path class="uuid-0730b42f-1ad5-46e4-9d1a-bd5fdc967226" d="m713.4,865.85h.03c.24-.39.56-.68.95-.86s.84-.27,1.34-.27c.44,0,.83.07,1.18.21.35.14.66.34.91.6.25.25.45.56.59.92s.21.75.21,1.17c0,.44-.07.85-.21,1.21s-.34.67-.59.92c-.25.25-.56.45-.91.59-.35.13-.75.2-1.18.2s-.82-.06-1.19-.19c-.37-.13-.68-.31-.94-.55s-.46-.53-.6-.88c-.14-.35-.2-.75-.18-1.2h.25c-.02.41.04.78.16,1.1s.3.59.54.81.52.39.86.5c.34.12.71.17,1.11.17s.78-.06,1.1-.19c.32-.13.6-.31.83-.54.23-.23.41-.52.53-.85.12-.33.18-.7.18-1.1s-.06-.74-.19-1.07c-.13-.32-.31-.6-.54-.84-.23-.23-.51-.42-.84-.55-.33-.13-.69-.2-1.08-.2-.49,0-.95.11-1.37.33-.42.22-.74.54-.97.96h-.31l.9-4.23h4.3v.25h-4.1l-.76,3.58Z"/>
          </g>
          <g class="uuid-4b927b96-c8fe-4ecb-a02d-cb5b58866b6c">
            <path class="uuid-61d57e7c-cfda-4550-a678-007a848fef55" d="m708.51,867.77c-.1.52-.28.98-.52,1.39-.25.41-.57.74-.97.99-.4.25-.91.38-1.52.38s-1.1-.13-1.51-.38c-.41-.25-.73-.58-.98-.99-.25-.41-.42-.87-.52-1.39-.1-.52-.15-1.04-.15-1.57s.05-1.05.15-1.56c.1-.52.28-.98.52-1.39.25-.41.57-.74.98-1,.41-.25.91-.38,1.51-.38s1.11.13,1.52.38c.4.25.73.59.97,1,.25.41.42.88.52,1.39s.15,1.04.15,1.56-.05,1.05-.15,1.57Zm-.23-2.99c-.09-.48-.25-.92-.47-1.32-.22-.39-.52-.72-.89-.97-.37-.25-.85-.38-1.42-.38s-1.05.13-1.42.38c-.37.25-.67.57-.89.97-.22.39-.38.83-.47,1.32s-.14.96-.14,1.43.04.95.14,1.43.25.92.47,1.32c.22.39.52.72.89.97.37.25.85.38,1.42.38s1.05-.12,1.42-.38c.37-.25.67-.57.89-.97.22-.39.38-.83.47-1.32.09-.48.14-.96.14-1.43s-.05-.94-.14-1.43Z"/>
            <path class="uuid-61d57e7c-cfda-4550-a678-007a848fef55" d="m710.51,870.39v-1.21h.25v1.21h-.25Z"/>
            <path class="uuid-61d57e7c-cfda-4550-a678-007a848fef55" d="m713.4,865.85h.03c.24-.39.56-.68.95-.86s.84-.27,1.34-.27c.44,0,.83.07,1.18.21.35.14.66.34.91.6.25.25.45.56.59.92s.21.75.21,1.17c0,.44-.07.85-.21,1.21s-.34.67-.59.92c-.25.25-.56.45-.91.59-.35.13-.75.2-1.18.2s-.82-.06-1.19-.19c-.37-.13-.68-.31-.94-.55s-.46-.53-.6-.88c-.14-.35-.2-.75-.18-1.2h.25c-.02.41.04.78.16,1.1s.3.59.54.81.52.39.86.5c.34.12.71.17,1.11.17s.78-.06,1.1-.19c.32-.13.6-.31.83-.54.23-.23.41-.52.53-.85.12-.33.18-.7.18-1.1s-.06-.74-.19-1.07c-.13-.32-.31-.6-.54-.84-.23-.23-.51-.42-.84-.55-.33-.13-.69-.2-1.08-.2-.49,0-.95.11-1.37.33-.42.22-.74.54-.97.96h-.31l.9-4.23h4.3v.25h-4.1l-.76,3.58Z"/>
          </g>
          <g class="uuid-4b927b96-c8fe-4ecb-a02d-cb5b58866b6c">
            <path class="uuid-0730b42f-1ad5-46e4-9d1a-bd5fdc967226" d="m708.51,867.77c-.1.52-.28.98-.52,1.39-.25.41-.57.74-.97.99-.4.25-.91.38-1.52.38s-1.1-.13-1.51-.38c-.41-.25-.73-.58-.98-.99-.25-.41-.42-.87-.52-1.39-.1-.52-.15-1.04-.15-1.57s.05-1.05.15-1.56c.1-.52.28-.98.52-1.39.25-.41.57-.74.98-1,.41-.25.91-.38,1.51-.38s1.11.13,1.52.38c.4.25.73.59.97,1,.25.41.42.88.52,1.39s.15,1.04.15,1.56-.05,1.05-.15,1.57Zm-.23-2.99c-.09-.48-.25-.92-.47-1.32-.22-.39-.52-.72-.89-.97-.37-.25-.85-.38-1.42-.38s-1.05.13-1.42.38c-.37.25-.67.57-.89.97-.22.39-.38.83-.47,1.32s-.14.96-.14,1.43.04.95.14,1.43.25.92.47,1.32c.22.39.52.72.89.97.37.25.85.38,1.42.38s1.05-.12,1.42-.38c.37-.25.67-.57.89-.97.22-.39.38-.83.47-1.32.09-.48.14-.96.14-1.43s-.05-.94-.14-1.43Z"/>
            <path class="uuid-0730b42f-1ad5-46e4-9d1a-bd5fdc967226" d="m710.51,870.39v-1.21h.25v1.21h-.25Z"/>
            <path class="uuid-0730b42f-1ad5-46e4-9d1a-bd5fdc967226" d="m713.4,865.85h.03c.24-.39.56-.68.95-.86s.84-.27,1.34-.27c.44,0,.83.07,1.18.21.35.14.66.34.91.6.25.25.45.56.59.92s.21.75.21,1.17c0,.44-.07.85-.21,1.21s-.34.67-.59.92c-.25.25-.56.45-.91.59-.35.13-.75.2-1.18.2s-.82-.06-1.19-.19c-.37-.13-.68-.31-.94-.55s-.46-.53-.6-.88c-.14-.35-.2-.75-.18-1.2h.25c-.02.41.04.78.16,1.1s.3.59.54.81.52.39.86.5c.34.12.71.17,1.11.17s.78-.06,1.1-.19c.32-.13.6-.31.83-.54.23-.23.41-.52.53-.85.12-.33.18-.7.18-1.1s-.06-.74-.19-1.07c-.13-.32-.31-.6-.54-.84-.23-.23-.51-.42-.84-.55-.33-.13-.69-.2-1.08-.2-.49,0-.95.11-1.37.33-.42.22-.74.54-.97.96h-.31l.9-4.23h4.3v.25h-4.1l-.76,3.58Z"/>
          </g>
          <g class="uuid-4b927b96-c8fe-4ecb-a02d-cb5b58866b6c">
            <path class="uuid-0730b42f-1ad5-46e4-9d1a-bd5fdc967226" d="m800.18,862.34c-.25.35-.59.66-.99.92-.41.26-.82.45-1.24.56v-.25c.25-.08.48-.17.68-.27s.38-.21.55-.33c.17-.12.34-.26.5-.42s.33-.33.5-.53h.27v8.38h-.25v-8.06h-.02Z"/>
          </g>
          <g class="uuid-4b927b96-c8fe-4ecb-a02d-cb5b58866b6c">
            <path class="uuid-61d57e7c-cfda-4550-a678-007a848fef55" d="m800.18,862.34c-.25.35-.59.66-.99.92-.41.26-.82.45-1.24.56v-.25c.25-.08.48-.17.68-.27s.38-.21.55-.33c.17-.12.34-.26.5-.42s.33-.33.5-.53h.27v8.38h-.25v-8.06h-.02Z"/>
          </g>
          <g class="uuid-4b927b96-c8fe-4ecb-a02d-cb5b58866b6c">
            <path class="uuid-0730b42f-1ad5-46e4-9d1a-bd5fdc967226" d="m800.18,862.34c-.25.35-.59.66-.99.92-.41.26-.82.45-1.24.56v-.25c.25-.08.48-.17.68-.27s.38-.21.55-.33c.17-.12.34-.26.5-.42s.33-.33.5-.53h.27v8.38h-.25v-8.06h-.02Z"/>
          </g>
          <g class="uuid-4b927b96-c8fe-4ecb-a02d-cb5b58866b6c">
            <path class="uuid-0730b42f-1ad5-46e4-9d1a-bd5fdc967226" d="m882.32,862.34c-.25.35-.59.66-.99.92-.41.26-.82.45-1.24.56v-.25c.25-.08.48-.17.68-.27s.38-.21.55-.33c.17-.12.34-.26.5-.42s.33-.33.5-.53h.27v8.38h-.25v-8.06h-.02Z"/>
            <path class="uuid-0730b42f-1ad5-46e4-9d1a-bd5fdc967226" d="m887.12,870.39v-1.21h.25v1.21h-.25Z"/>
            <path class="uuid-0730b42f-1ad5-46e4-9d1a-bd5fdc967226" d="m890,865.85h.03c.24-.39.56-.68.95-.86s.84-.27,1.34-.27c.44,0,.83.07,1.18.21.35.14.66.34.91.6.25.25.45.56.59.92s.21.75.21,1.17c0,.44-.07.85-.21,1.21s-.34.67-.59.92c-.25.25-.56.45-.91.59-.35.13-.75.2-1.18.2s-.82-.06-1.19-.19c-.37-.13-.68-.31-.94-.55s-.46-.53-.6-.88c-.14-.35-.2-.75-.18-1.2h.25c-.02.41.04.78.16,1.1s.3.59.54.81.52.39.86.5c.34.12.71.17,1.11.17s.78-.06,1.1-.19c.32-.13.6-.31.83-.54.23-.23.41-.52.53-.85.12-.33.18-.7.18-1.1s-.06-.74-.19-1.07c-.13-.32-.31-.6-.54-.84-.23-.23-.51-.42-.84-.55-.33-.13-.69-.2-1.08-.2-.49,0-.95.11-1.37.33-.42.22-.74.54-.97.96h-.31l.9-4.23h4.3v.25h-4.1l-.76,3.58Z"/>
          </g>
          <g class="uuid-4b927b96-c8fe-4ecb-a02d-cb5b58866b6c">
            <path class="uuid-61d57e7c-cfda-4550-a678-007a848fef55" d="m882.32,862.34c-.25.35-.59.66-.99.92-.41.26-.82.45-1.24.56v-.25c.25-.08.48-.17.68-.27s.38-.21.55-.33c.17-.12.34-.26.5-.42s.33-.33.5-.53h.27v8.38h-.25v-8.06h-.02Z"/>
            <path class="uuid-61d57e7c-cfda-4550-a678-007a848fef55" d="m887.12,870.39v-1.21h.25v1.21h-.25Z"/>
            <path class="uuid-61d57e7c-cfda-4550-a678-007a848fef55" d="m890,865.85h.03c.24-.39.56-.68.95-.86s.84-.27,1.34-.27c.44,0,.83.07,1.18.21.35.14.66.34.91.6.25.25.45.56.59.92s.21.75.21,1.17c0,.44-.07.85-.21,1.21s-.34.67-.59.92c-.25.25-.56.45-.91.59-.35.13-.75.2-1.18.2s-.82-.06-1.19-.19c-.37-.13-.68-.31-.94-.55s-.46-.53-.6-.88c-.14-.35-.2-.75-.18-1.2h.25c-.02.41.04.78.16,1.1s.3.59.54.81.52.39.86.5c.34.12.71.17,1.11.17s.78-.06,1.1-.19c.32-.13.6-.31.83-.54.23-.23.41-.52.53-.85.12-.33.18-.7.18-1.1s-.06-.74-.19-1.07c-.13-.32-.31-.6-.54-.84-.23-.23-.51-.42-.84-.55-.33-.13-.69-.2-1.08-.2-.49,0-.95.11-1.37.33-.42.22-.74.54-.97.96h-.31l.9-4.23h4.3v.25h-4.1l-.76,3.58Z"/>
          </g>
          <g class="uuid-4b927b96-c8fe-4ecb-a02d-cb5b58866b6c">
            <path class="uuid-0730b42f-1ad5-46e4-9d1a-bd5fdc967226" d="m882.32,862.34c-.25.35-.59.66-.99.92-.41.26-.82.45-1.24.56v-.25c.25-.08.48-.17.68-.27s.38-.21.55-.33c.17-.12.34-.26.5-.42s.33-.33.5-.53h.27v8.38h-.25v-8.06h-.02Z"/>
            <path class="uuid-0730b42f-1ad5-46e4-9d1a-bd5fdc967226" d="m887.12,870.39v-1.21h.25v1.21h-.25Z"/>
            <path class="uuid-0730b42f-1ad5-46e4-9d1a-bd5fdc967226" d="m890,865.85h.03c.24-.39.56-.68.95-.86s.84-.27,1.34-.27c.44,0,.83.07,1.18.21.35.14.66.34.91.6.25.25.45.56.59.92s.21.75.21,1.17c0,.44-.07.85-.21,1.21s-.34.67-.59.92c-.25.25-.56.45-.91.59-.35.13-.75.2-1.18.2s-.82-.06-1.19-.19c-.37-.13-.68-.31-.94-.55s-.46-.53-.6-.88c-.14-.35-.2-.75-.18-1.2h.25c-.02.41.04.78.16,1.1s.3.59.54.81.52.39.86.5c.34.12.71.17,1.11.17s.78-.06,1.1-.19c.32-.13.6-.31.83-.54.23-.23.41-.52.53-.85.12-.33.18-.7.18-1.1s-.06-.74-.19-1.07c-.13-.32-.31-.6-.54-.84-.23-.23-.51-.42-.84-.55-.33-.13-.69-.2-1.08-.2-.49,0-.95.11-1.37.33-.42.22-.74.54-.97.96h-.31l.9-4.23h4.3v.25h-4.1l-.76,3.58Z"/>
          </g>
          <g class="uuid-4b927b96-c8fe-4ecb-a02d-cb5b58866b6c">
            <path class="uuid-0730b42f-1ad5-46e4-9d1a-bd5fdc967226" d="m979.46,870.39h-5.64c0-.35.07-.67.22-.96s.36-.56.62-.81c.25-.25.54-.49.86-.71.32-.23.63-.45.94-.67.32-.22.63-.45.94-.68.3-.23.57-.47.81-.72.24-.25.43-.52.57-.8s.22-.59.22-.92-.06-.62-.18-.87c-.12-.25-.28-.46-.49-.63-.21-.17-.45-.3-.73-.38s-.59-.13-.93-.13c-.44,0-.81.07-1.12.2-.31.13-.57.31-.76.55s-.34.51-.43.84c-.09.32-.13.68-.13,1.07h-.25c0-.92.24-1.63.68-2.14.45-.5,1.12-.76,2.01-.76.36,0,.7.05,1.01.14.31.09.58.24.81.43.23.19.41.42.55.7s.2.61.2.99c0,.46-.12.88-.37,1.26-.25.38-.56.73-.93,1.06-.37.33-.78.64-1.21.93-.43.29-.84.58-1.23.87-.38.29-.71.59-.98.9-.27.31-.42.64-.46,1h5.4v.25Z"/>
          </g>
          <g class="uuid-4b927b96-c8fe-4ecb-a02d-cb5b58866b6c">
            <path class="uuid-61d57e7c-cfda-4550-a678-007a848fef55" d="m979.46,870.39h-5.64c0-.35.07-.67.22-.96s.36-.56.62-.81c.25-.25.54-.49.86-.71.32-.23.63-.45.94-.67.32-.22.63-.45.94-.68.3-.23.57-.47.81-.72.24-.25.43-.52.57-.8s.22-.59.22-.92-.06-.62-.18-.87c-.12-.25-.28-.46-.49-.63-.21-.17-.45-.3-.73-.38s-.59-.13-.93-.13c-.44,0-.81.07-1.12.2-.31.13-.57.31-.76.55s-.34.51-.43.84c-.09.32-.13.68-.13,1.07h-.25c0-.92.24-1.63.68-2.14.45-.5,1.12-.76,2.01-.76.36,0,.7.05,1.01.14.31.09.58.24.81.43.23.19.41.42.55.7s.2.61.2.99c0,.46-.12.88-.37,1.26-.25.38-.56.73-.93,1.06-.37.33-.78.64-1.21.93-.43.29-.84.58-1.23.87-.38.29-.71.59-.98.9-.27.31-.42.64-.46,1h5.4v.25Z"/>
          </g>
          <g class="uuid-4b927b96-c8fe-4ecb-a02d-cb5b58866b6c">
            <path class="uuid-0730b42f-1ad5-46e4-9d1a-bd5fdc967226" d="m979.46,870.39h-5.64c0-.35.07-.67.22-.96s.36-.56.62-.81c.25-.25.54-.49.86-.71.32-.23.63-.45.94-.67.32-.22.63-.45.94-.68.3-.23.57-.47.81-.72.24-.25.43-.52.57-.8s.22-.59.22-.92-.06-.62-.18-.87c-.12-.25-.28-.46-.49-.63-.21-.17-.45-.3-.73-.38s-.59-.13-.93-.13c-.44,0-.81.07-1.12.2-.31.13-.57.31-.76.55s-.34.51-.43.84c-.09.32-.13.68-.13,1.07h-.25c0-.92.24-1.63.68-2.14.45-.5,1.12-.76,2.01-.76.36,0,.7.05,1.01.14.31.09.58.24.81.43.23.19.41.42.55.7s.2.61.2.99c0,.46-.12.88-.37,1.26-.25.38-.56.73-.93,1.06-.37.33-.78.64-1.21.93-.43.29-.84.58-1.23.87-.38.29-.71.59-.98.9-.27.31-.42.64-.46,1h5.4v.25Z"/>
          </g>
          <g class="uuid-4b927b96-c8fe-4ecb-a02d-cb5b58866b6c">
            <path class="uuid-0730b42f-1ad5-46e4-9d1a-bd5fdc967226" d="m1061.6,870.39h-5.64c0-.35.07-.67.22-.96s.36-.56.62-.81c.25-.25.54-.49.86-.71.32-.23.63-.45.94-.67.32-.22.63-.45.94-.68.3-.23.57-.47.81-.72.24-.25.43-.52.57-.8s.22-.59.22-.92-.06-.62-.18-.87c-.12-.25-.28-.46-.49-.63-.21-.17-.45-.3-.73-.38s-.59-.13-.93-.13c-.44,0-.81.07-1.12.2-.31.13-.57.31-.76.55s-.34.51-.43.84c-.09.32-.13.68-.13,1.07h-.25c0-.92.24-1.63.68-2.14.45-.5,1.12-.76,2.01-.76.36,0,.7.05,1.01.14.31.09.58.24.81.43.23.19.41.42.55.7s.2.61.2.99c0,.46-.12.88-.37,1.26-.25.38-.56.73-.93,1.06-.37.33-.78.64-1.21.93-.43.29-.84.58-1.23.87-.38.29-.71.59-.98.9-.27.31-.42.64-.46,1h5.4v.25Z"/>
            <path class="uuid-0730b42f-1ad5-46e4-9d1a-bd5fdc967226" d="m1063.72,870.39v-1.21h.25v1.21h-.25Z"/>
            <path class="uuid-0730b42f-1ad5-46e4-9d1a-bd5fdc967226" d="m1066.6,865.85h.03c.24-.39.56-.68.95-.86s.84-.27,1.34-.27c.44,0,.83.07,1.18.21.35.14.66.34.91.6.25.25.45.56.59.92s.21.75.21,1.17c0,.44-.07.85-.21,1.21s-.34.67-.59.92c-.25.25-.56.45-.91.59-.35.13-.75.2-1.18.2s-.82-.06-1.19-.19c-.37-.13-.68-.31-.94-.55s-.46-.53-.6-.88c-.14-.35-.2-.75-.18-1.2h.25c-.02.41.04.78.16,1.1s.3.59.54.81.52.39.86.5c.34.12.71.17,1.11.17s.78-.06,1.1-.19c.32-.13.6-.31.83-.54.23-.23.41-.52.53-.85.12-.33.18-.7.18-1.1s-.06-.74-.19-1.07c-.13-.32-.31-.6-.54-.84-.23-.23-.51-.42-.84-.55-.33-.13-.69-.2-1.08-.2-.49,0-.95.11-1.37.33-.42.22-.74.54-.97.96h-.31l.9-4.23h4.3v.25h-4.1l-.76,3.58Z"/>
          </g>
          <g class="uuid-4b927b96-c8fe-4ecb-a02d-cb5b58866b6c">
            <path class="uuid-61d57e7c-cfda-4550-a678-007a848fef55" d="m1061.6,870.39h-5.64c0-.35.07-.67.22-.96s.36-.56.62-.81c.25-.25.54-.49.86-.71.32-.23.63-.45.94-.67.32-.22.63-.45.94-.68.3-.23.57-.47.81-.72.24-.25.43-.52.57-.8s.22-.59.22-.92-.06-.62-.18-.87c-.12-.25-.28-.46-.49-.63-.21-.17-.45-.3-.73-.38s-.59-.13-.93-.13c-.44,0-.81.07-1.12.2-.31.13-.57.31-.76.55s-.34.51-.43.84c-.09.32-.13.68-.13,1.07h-.25c0-.92.24-1.63.68-2.14.45-.5,1.12-.76,2.01-.76.36,0,.7.05,1.01.14.31.09.58.24.81.43.23.19.41.42.55.7s.2.61.2.99c0,.46-.12.88-.37,1.26-.25.38-.56.73-.93,1.06-.37.33-.78.64-1.21.93-.43.29-.84.58-1.23.87-.38.29-.71.59-.98.9-.27.31-.42.64-.46,1h5.4v.25Z"/>
            <path class="uuid-61d57e7c-cfda-4550-a678-007a848fef55" d="m1063.72,870.39v-1.21h.25v1.21h-.25Z"/>
            <path class="uuid-61d57e7c-cfda-4550-a678-007a848fef55" d="m1066.6,865.85h.03c.24-.39.56-.68.95-.86s.84-.27,1.34-.27c.44,0,.83.07,1.18.21.35.14.66.34.91.6.25.25.45.56.59.92s.21.75.21,1.17c0,.44-.07.85-.21,1.21s-.34.67-.59.92c-.25.25-.56.45-.91.59-.35.13-.75.2-1.18.2s-.82-.06-1.19-.19c-.37-.13-.68-.31-.94-.55s-.46-.53-.6-.88c-.14-.35-.2-.75-.18-1.2h.25c-.02.41.04.78.16,1.1s.3.59.54.81.52.39.86.5c.34.12.71.17,1.11.17s.78-.06,1.1-.19c.32-.13.6-.31.83-.54.23-.23.41-.52.53-.85.12-.33.18-.7.18-1.1s-.06-.74-.19-1.07c-.13-.32-.31-.6-.54-.84-.23-.23-.51-.42-.84-.55-.33-.13-.69-.2-1.08-.2-.49,0-.95.11-1.37.33-.42.22-.74.54-.97.96h-.31l.9-4.23h4.3v.25h-4.1l-.76,3.58Z"/>
          </g>
          <g class="uuid-4b927b96-c8fe-4ecb-a02d-cb5b58866b6c">
            <path class="uuid-0730b42f-1ad5-46e4-9d1a-bd5fdc967226" d="m1061.6,870.39h-5.64c0-.35.07-.67.22-.96s.36-.56.62-.81c.25-.25.54-.49.86-.71.32-.23.63-.45.94-.67.32-.22.63-.45.94-.68.3-.23.57-.47.81-.72.24-.25.43-.52.57-.8s.22-.59.22-.92-.06-.62-.18-.87c-.12-.25-.28-.46-.49-.63-.21-.17-.45-.3-.73-.38s-.59-.13-.93-.13c-.44,0-.81.07-1.12.2-.31.13-.57.31-.76.55s-.34.51-.43.84c-.09.32-.13.68-.13,1.07h-.25c0-.92.24-1.63.68-2.14.45-.5,1.12-.76,2.01-.76.36,0,.7.05,1.01.14.31.09.58.24.81.43.23.19.41.42.55.7s.2.61.2.99c0,.46-.12.88-.37,1.26-.25.38-.56.73-.93,1.06-.37.33-.78.64-1.21.93-.43.29-.84.58-1.23.87-.38.29-.71.59-.98.9-.27.31-.42.64-.46,1h5.4v.25Z"/>
            <path class="uuid-0730b42f-1ad5-46e4-9d1a-bd5fdc967226" d="m1063.72,870.39v-1.21h.25v1.21h-.25Z"/>
            <path class="uuid-0730b42f-1ad5-46e4-9d1a-bd5fdc967226" d="m1066.6,865.85h.03c.24-.39.56-.68.95-.86s.84-.27,1.34-.27c.44,0,.83.07,1.18.21.35.14.66.34.91.6.25.25.45.56.59.92s.21.75.21,1.17c0,.44-.07.85-.21,1.21s-.34.67-.59.92c-.25.25-.56.45-.91.59-.35.13-.75.2-1.18.2s-.82-.06-1.19-.19c-.37-.13-.68-.31-.94-.55s-.46-.53-.6-.88c-.14-.35-.2-.75-.18-1.2h.25c-.02.41.04.78.16,1.1s.3.59.54.81.52.39.86.5c.34.12.71.17,1.11.17s.78-.06,1.1-.19c.32-.13.6-.31.83-.54.23-.23.41-.52.53-.85.12-.33.18-.7.18-1.1s-.06-.74-.19-1.07c-.13-.32-.31-.6-.54-.84-.23-.23-.51-.42-.84-.55-.33-.13-.69-.2-1.08-.2-.49,0-.95.11-1.37.33-.42.22-.74.54-.97.96h-.31l.9-4.23h4.3v.25h-4.1l-.76,3.58Z"/>
          </g>
          <g class="uuid-4b927b96-c8fe-4ecb-a02d-cb5b58866b6c">
            <path class="uuid-0730b42f-1ad5-46e4-9d1a-bd5fdc967226" d="m1150.65,863.41c.13-.34.32-.63.57-.86.25-.23.55-.4.91-.52s.75-.17,1.19-.17c.34,0,.66.04.97.11.31.07.59.19.84.36.25.16.44.38.59.64.15.26.22.58.22.95,0,.59-.17,1.05-.51,1.38-.34.33-.77.52-1.29.57v.02c.25.02.49.08.72.18s.44.23.63.41c.19.18.33.4.44.66.11.26.17.58.17.94,0,.39-.08.74-.23,1.05-.15.3-.36.56-.62.77-.26.21-.56.37-.9.47-.34.11-.71.16-1.09.16-.48,0-.91-.07-1.29-.2-.39-.13-.71-.32-.99-.57-.27-.25-.47-.56-.61-.93-.13-.37-.19-.79-.15-1.27h.25c-.03.44.01.84.14,1.18s.31.63.55.86c.25.23.55.4.91.52s.76.18,1.2.18c.34,0,.66-.05.97-.14.31-.09.59-.24.83-.42.24-.19.43-.42.57-.7s.22-.59.22-.96-.06-.67-.18-.92c-.12-.25-.29-.46-.51-.63-.22-.16-.47-.29-.76-.37s-.61-.13-.96-.15h-.6v-.25h.6c.27,0,.54-.03.81-.09.27-.06.51-.16.72-.31.21-.14.39-.33.52-.57.13-.23.2-.52.2-.87,0-.34-.08-.62-.22-.85-.14-.23-.32-.42-.54-.56-.22-.14-.47-.25-.75-.31s-.57-.09-.86-.09c-.4,0-.77.05-1.09.15s-.6.26-.83.47c-.23.21-.4.47-.52.78s-.17.68-.17,1.1h-.25c0-.46.05-.86.19-1.2Z"/>
          </g>
          <g class="uuid-4b927b96-c8fe-4ecb-a02d-cb5b58866b6c">
            <path class="uuid-61d57e7c-cfda-4550-a678-007a848fef55" d="m1150.65,863.41c.13-.34.32-.63.57-.86.25-.23.55-.4.91-.52s.75-.17,1.19-.17c.34,0,.66.04.97.11.31.07.59.19.84.36.25.16.44.38.59.64.15.26.22.58.22.95,0,.59-.17,1.05-.51,1.38-.34.33-.77.52-1.29.57v.02c.25.02.49.08.72.18s.44.23.63.41c.19.18.33.4.44.66.11.26.17.58.17.94,0,.39-.08.74-.23,1.05-.15.3-.36.56-.62.77-.26.21-.56.37-.9.47-.34.11-.71.16-1.09.16-.48,0-.91-.07-1.29-.2-.39-.13-.71-.32-.99-.57-.27-.25-.47-.56-.61-.93-.13-.37-.19-.79-.15-1.27h.25c-.03.44.01.84.14,1.18s.31.63.55.86c.25.23.55.4.91.52s.76.18,1.2.18c.34,0,.66-.05.97-.14.31-.09.59-.24.83-.42.24-.19.43-.42.57-.7s.22-.59.22-.96-.06-.67-.18-.92c-.12-.25-.29-.46-.51-.63-.22-.16-.47-.29-.76-.37s-.61-.13-.96-.15h-.6v-.25h.6c.27,0,.54-.03.81-.09.27-.06.51-.16.72-.31.21-.14.39-.33.52-.57.13-.23.2-.52.2-.87,0-.34-.08-.62-.22-.85-.14-.23-.32-.42-.54-.56-.22-.14-.47-.25-.75-.31s-.57-.09-.86-.09c-.4,0-.77.05-1.09.15s-.6.26-.83.47c-.23.21-.4.47-.52.78s-.17.68-.17,1.1h-.25c0-.46.05-.86.19-1.2Z"/>
          </g>
          <g class="uuid-4b927b96-c8fe-4ecb-a02d-cb5b58866b6c">
            <path class="uuid-0730b42f-1ad5-46e4-9d1a-bd5fdc967226" d="m1150.65,863.41c.13-.34.32-.63.57-.86.25-.23.55-.4.91-.52s.75-.17,1.19-.17c.34,0,.66.04.97.11.31.07.59.19.84.36.25.16.44.38.59.64.15.26.22.58.22.95,0,.59-.17,1.05-.51,1.38-.34.33-.77.52-1.29.57v.02c.25.02.49.08.72.18s.44.23.63.41c.19.18.33.4.44.66.11.26.17.58.17.94,0,.39-.08.74-.23,1.05-.15.3-.36.56-.62.77-.26.21-.56.37-.9.47-.34.11-.71.16-1.09.16-.48,0-.91-.07-1.29-.2-.39-.13-.71-.32-.99-.57-.27-.25-.47-.56-.61-.93-.13-.37-.19-.79-.15-1.27h.25c-.03.44.01.84.14,1.18s.31.63.55.86c.25.23.55.4.91.52s.76.18,1.2.18c.34,0,.66-.05.97-.14.31-.09.59-.24.83-.42.24-.19.43-.42.57-.7s.22-.59.22-.96-.06-.67-.18-.92c-.12-.25-.29-.46-.51-.63-.22-.16-.47-.29-.76-.37s-.61-.13-.96-.15h-.6v-.25h.6c.27,0,.54-.03.81-.09.27-.06.51-.16.72-.31.21-.14.39-.33.52-.57.13-.23.2-.52.2-.87,0-.34-.08-.62-.22-.85-.14-.23-.32-.42-.54-.56-.22-.14-.47-.25-.75-.31s-.57-.09-.86-.09c-.4,0-.77.05-1.09.15s-.6.26-.83.47c-.23.21-.4.47-.52.78s-.17.68-.17,1.1h-.25c0-.46.05-.86.19-1.2Z"/>
          </g>
          <g class="uuid-4b927b96-c8fe-4ecb-a02d-cb5b58866b6c">
            <path class="uuid-0730b42f-1ad5-46e4-9d1a-bd5fdc967226" d="m1232.79,863.41c.13-.34.32-.63.57-.86.25-.23.55-.4.91-.52s.75-.17,1.19-.17c.34,0,.66.04.97.11.31.07.59.19.84.36.25.16.44.38.59.64.15.26.22.58.22.95,0,.59-.17,1.05-.51,1.38-.34.33-.77.52-1.29.57v.02c.25.02.49.08.72.18s.44.23.63.41c.19.18.33.4.44.66.11.26.17.58.17.94,0,.39-.08.74-.23,1.05-.15.3-.36.56-.62.77-.26.21-.56.37-.9.47-.34.11-.71.16-1.09.16-.48,0-.91-.07-1.29-.2-.39-.13-.71-.32-.99-.57-.27-.25-.47-.56-.61-.93-.13-.37-.19-.79-.15-1.27h.25c-.03.44.01.84.14,1.18s.31.63.55.86c.25.23.55.4.91.52s.76.18,1.2.18c.34,0,.66-.05.97-.14.31-.09.59-.24.83-.42.24-.19.43-.42.57-.7s.22-.59.22-.96-.06-.67-.18-.92c-.12-.25-.29-.46-.51-.63-.22-.16-.47-.29-.76-.37s-.61-.13-.96-.15h-.6v-.25h.6c.27,0,.54-.03.81-.09.27-.06.51-.16.72-.31.21-.14.39-.33.52-.57.13-.23.2-.52.2-.87,0-.34-.08-.62-.22-.85-.14-.23-.32-.42-.54-.56-.22-.14-.47-.25-.75-.31s-.57-.09-.86-.09c-.4,0-.77.05-1.09.15s-.6.26-.83.47c-.23.21-.4.47-.52.78s-.17.68-.17,1.1h-.25c0-.46.05-.86.19-1.2Z"/>
            <path class="uuid-0730b42f-1ad5-46e4-9d1a-bd5fdc967226" d="m1240.32,870.39v-1.21h.25v1.21h-.25Z"/>
            <path class="uuid-0730b42f-1ad5-46e4-9d1a-bd5fdc967226" d="m1243.21,865.85h.03c.24-.39.56-.68.95-.86s.84-.27,1.34-.27c.44,0,.83.07,1.18.21.35.14.66.34.91.6.25.25.45.56.59.92s.21.75.21,1.17c0,.44-.07.85-.21,1.21s-.34.67-.59.92c-.25.25-.56.45-.91.59-.35.13-.75.2-1.18.2s-.82-.06-1.19-.19c-.37-.13-.68-.31-.94-.55s-.46-.53-.6-.88c-.14-.35-.2-.75-.18-1.2h.25c-.02.41.04.78.16,1.1s.3.59.54.81.52.39.86.5c.34.12.71.17,1.11.17s.78-.06,1.1-.19c.32-.13.6-.31.83-.54.23-.23.41-.52.53-.85.12-.33.18-.7.18-1.1s-.06-.74-.19-1.07c-.13-.32-.31-.6-.54-.84-.23-.23-.51-.42-.84-.55-.33-.13-.69-.2-1.08-.2-.49,0-.95.11-1.37.33-.42.22-.74.54-.97.96h-.31l.9-4.23h4.3v.25h-4.1l-.76,3.58Z"/>
          </g>
          <g class="uuid-4b927b96-c8fe-4ecb-a02d-cb5b58866b6c">
            <path class="uuid-61d57e7c-cfda-4550-a678-007a848fef55" d="m1232.79,863.41c.13-.34.32-.63.57-.86.25-.23.55-.4.91-.52s.75-.17,1.19-.17c.34,0,.66.04.97.11.31.07.59.19.84.36.25.16.44.38.59.64.15.26.22.58.22.95,0,.59-.17,1.05-.51,1.38-.34.33-.77.52-1.29.57v.02c.25.02.49.08.72.18s.44.23.63.41c.19.18.33.4.44.66.11.26.17.58.17.94,0,.39-.08.74-.23,1.05-.15.3-.36.56-.62.77-.26.21-.56.37-.9.47-.34.11-.71.16-1.09.16-.48,0-.91-.07-1.29-.2-.39-.13-.71-.32-.99-.57-.27-.25-.47-.56-.61-.93-.13-.37-.19-.79-.15-1.27h.25c-.03.44.01.84.14,1.18s.31.63.55.86c.25.23.55.4.91.52s.76.18,1.2.18c.34,0,.66-.05.97-.14.31-.09.59-.24.83-.42.24-.19.43-.42.57-.7s.22-.59.22-.96-.06-.67-.18-.92c-.12-.25-.29-.46-.51-.63-.22-.16-.47-.29-.76-.37s-.61-.13-.96-.15h-.6v-.25h.6c.27,0,.54-.03.81-.09.27-.06.51-.16.72-.31.21-.14.39-.33.52-.57.13-.23.2-.52.2-.87,0-.34-.08-.62-.22-.85-.14-.23-.32-.42-.54-.56-.22-.14-.47-.25-.75-.31s-.57-.09-.86-.09c-.4,0-.77.05-1.09.15s-.6.26-.83.47c-.23.21-.4.47-.52.78s-.17.68-.17,1.1h-.25c0-.46.05-.86.19-1.2Z"/>
            <path class="uuid-61d57e7c-cfda-4550-a678-007a848fef55" d="m1240.32,870.39v-1.21h.25v1.21h-.25Z"/>
            <path class="uuid-61d57e7c-cfda-4550-a678-007a848fef55" d="m1243.21,865.85h.03c.24-.39.56-.68.95-.86s.84-.27,1.34-.27c.44,0,.83.07,1.18.21.35.14.66.34.91.6.25.25.45.56.59.92s.21.75.21,1.17c0,.44-.07.85-.21,1.21s-.34.67-.59.92c-.25.25-.56.45-.91.59-.35.13-.75.2-1.18.2s-.82-.06-1.19-.19c-.37-.13-.68-.31-.94-.55s-.46-.53-.6-.88c-.14-.35-.2-.75-.18-1.2h.25c-.02.41.04.78.16,1.1s.3.59.54.81.52.39.86.5c.34.12.71.17,1.11.17s.78-.06,1.1-.19c.32-.13.6-.31.83-.54.23-.23.41-.52.53-.85.12-.33.18-.7.18-1.1s-.06-.74-.19-1.07c-.13-.32-.31-.6-.54-.84-.23-.23-.51-.42-.84-.55-.33-.13-.69-.2-1.08-.2-.49,0-.95.11-1.37.33-.42.22-.74.54-.97.96h-.31l.9-4.23h4.3v.25h-4.1l-.76,3.58Z"/>
          </g>
          <g class="uuid-4b927b96-c8fe-4ecb-a02d-cb5b58866b6c">
            <path class="uuid-0730b42f-1ad5-46e4-9d1a-bd5fdc967226" d="m1232.79,863.41c.13-.34.32-.63.57-.86.25-.23.55-.4.91-.52s.75-.17,1.19-.17c.34,0,.66.04.97.11.31.07.59.19.84.36.25.16.44.38.59.64.15.26.22.58.22.95,0,.59-.17,1.05-.51,1.38-.34.33-.77.52-1.29.57v.02c.25.02.49.08.72.18s.44.23.63.41c.19.18.33.4.44.66.11.26.17.58.17.94,0,.39-.08.74-.23,1.05-.15.3-.36.56-.62.77-.26.21-.56.37-.9.47-.34.11-.71.16-1.09.16-.48,0-.91-.07-1.29-.2-.39-.13-.71-.32-.99-.57-.27-.25-.47-.56-.61-.93-.13-.37-.19-.79-.15-1.27h.25c-.03.44.01.84.14,1.18s.31.63.55.86c.25.23.55.4.91.52s.76.18,1.2.18c.34,0,.66-.05.97-.14.31-.09.59-.24.83-.42.24-.19.43-.42.57-.7s.22-.59.22-.96-.06-.67-.18-.92c-.12-.25-.29-.46-.51-.63-.22-.16-.47-.29-.76-.37s-.61-.13-.96-.15h-.6v-.25h.6c.27,0,.54-.03.81-.09.27-.06.51-.16.72-.31.21-.14.39-.33.52-.57.13-.23.2-.52.2-.87,0-.34-.08-.62-.22-.85-.14-.23-.32-.42-.54-.56-.22-.14-.47-.25-.75-.31s-.57-.09-.86-.09c-.4,0-.77.05-1.09.15s-.6.26-.83.47c-.23.21-.4.47-.52.78s-.17.68-.17,1.1h-.25c0-.46.05-.86.19-1.2Z"/>
            <path class="uuid-0730b42f-1ad5-46e4-9d1a-bd5fdc967226" d="m1240.32,870.39v-1.21h.25v1.21h-.25Z"/>
            <path class="uuid-0730b42f-1ad5-46e4-9d1a-bd5fdc967226" d="m1243.21,865.85h.03c.24-.39.56-.68.95-.86s.84-.27,1.34-.27c.44,0,.83.07,1.18.21.35.14.66.34.91.6.25.25.45.56.59.92s.21.75.21,1.17c0,.44-.07.85-.21,1.21s-.34.67-.59.92c-.25.25-.56.45-.91.59-.35.13-.75.2-1.18.2s-.82-.06-1.19-.19c-.37-.13-.68-.31-.94-.55s-.46-.53-.6-.88c-.14-.35-.2-.75-.18-1.2h.25c-.02.41.04.78.16,1.1s.3.59.54.81.52.39.86.5c.34.12.71.17,1.11.17s.78-.06,1.1-.19c.32-.13.6-.31.83-.54.23-.23.41-.52.53-.85.12-.33.18-.7.18-1.1s-.06-.74-.19-1.07c-.13-.32-.31-.6-.54-.84-.23-.23-.51-.42-.84-.55-.33-.13-.69-.2-1.08-.2-.49,0-.95.11-1.37.33-.42.22-.74.54-.97.96h-.31l.9-4.23h4.3v.25h-4.1l-.76,3.58Z"/>
          </g>
          <g class="uuid-4b927b96-c8fe-4ecb-a02d-cb5b58866b6c">
            <path class="uuid-0730b42f-1ad5-46e4-9d1a-bd5fdc967226" d="m607.61,943.97v.25h-6.16v-.25h6.16Z"/>
            <path class="uuid-0730b42f-1ad5-46e4-9d1a-bd5fdc967226" d="m611.26,939.34c-.25.35-.58.66-.99.92-.41.26-.82.45-1.24.56v-.25c.25-.08.48-.17.68-.27.2-.1.38-.21.55-.33.17-.12.34-.26.5-.42s.33-.33.5-.53h.27v8.38h-.25v-8.06h-.02Z"/>
          </g>
          <g class="uuid-4b927b96-c8fe-4ecb-a02d-cb5b58866b6c">
            <path class="uuid-61d57e7c-cfda-4550-a678-007a848fef55" d="m607.61,943.97v.25h-6.16v-.25h6.16Z"/>
            <path class="uuid-61d57e7c-cfda-4550-a678-007a848fef55" d="m611.26,939.34c-.25.35-.58.66-.99.92-.41.26-.82.45-1.24.56v-.25c.25-.08.48-.17.68-.27.2-.1.38-.21.55-.33.17-.12.34-.26.5-.42s.33-.33.5-.53h.27v8.38h-.25v-8.06h-.02Z"/>
          </g>
          <g class="uuid-4b927b96-c8fe-4ecb-a02d-cb5b58866b6c">
            <path class="uuid-0730b42f-1ad5-46e4-9d1a-bd5fdc967226" d="m607.61,943.97v.25h-6.16v-.25h6.16Z"/>
            <path class="uuid-0730b42f-1ad5-46e4-9d1a-bd5fdc967226" d="m611.26,939.34c-.25.35-.58.66-.99.92-.41.26-.82.45-1.24.56v-.25c.25-.08.48-.17.68-.27.2-.1.38-.21.55-.33.17-.12.34-.26.5-.42s.33-.33.5-.53h.27v8.38h-.25v-8.06h-.02Z"/>
          </g>
          <g class="uuid-4b927b96-c8fe-4ecb-a02d-cb5b58866b6c">
            <path class="uuid-0730b42f-1ad5-46e4-9d1a-bd5fdc967226" d="m611.26,762.74c-.25.35-.58.66-.99.92-.41.26-.82.45-1.24.56v-.25c.25-.08.48-.17.68-.27.2-.1.38-.21.55-.33.17-.12.34-.26.5-.42s.33-.33.5-.53h.27v8.38h-.25v-8.06h-.02Z"/>
          </g>
          <g class="uuid-4b927b96-c8fe-4ecb-a02d-cb5b58866b6c">
            <path class="uuid-61d57e7c-cfda-4550-a678-007a848fef55" d="m611.26,762.74c-.25.35-.58.66-.99.92-.41.26-.82.45-1.24.56v-.25c.25-.08.48-.17.68-.27.2-.1.38-.21.55-.33.17-.12.34-.26.5-.42s.33-.33.5-.53h.27v8.38h-.25v-8.06h-.02Z"/>
          </g>
          <g class="uuid-4b927b96-c8fe-4ecb-a02d-cb5b58866b6c">
            <path class="uuid-0730b42f-1ad5-46e4-9d1a-bd5fdc967226" d="m611.26,762.74c-.25.35-.58.66-.99.92-.41.26-.82.45-1.24.56v-.25c.25-.08.48-.17.68-.27.2-.1.38-.21.55-.33.17-.12.34-.26.5-.42s.33-.33.5-.53h.27v8.38h-.25v-8.06h-.02Z"/>
          </g>
          <g class="uuid-4b927b96-c8fe-4ecb-a02d-cb5b58866b6c">
            <path class="uuid-0730b42f-1ad5-46e4-9d1a-bd5fdc967226" d="m613.93,682.5h-5.64c0-.35.07-.67.22-.96.16-.29.36-.56.62-.81.25-.25.54-.49.86-.71.32-.23.63-.45.94-.67.32-.22.63-.45.94-.68.3-.23.57-.47.81-.72.24-.25.43-.52.57-.8.14-.28.22-.59.22-.92s-.06-.62-.18-.87c-.12-.25-.28-.46-.49-.63-.21-.17-.45-.3-.73-.38s-.59-.13-.93-.13c-.44,0-.81.07-1.12.2-.31.13-.57.31-.76.55s-.34.51-.43.84-.14.68-.14,1.07h-.25c0-.92.24-1.63.68-2.14s1.12-.76,2.01-.76c.36,0,.7.05,1.01.14.31.09.58.24.81.43.23.19.41.42.55.7.14.28.2.61.2.99,0,.46-.12.88-.37,1.26-.25.38-.56.73-.93,1.06-.37.33-.78.64-1.21.93-.44.29-.84.58-1.23.87-.38.29-.71.59-.98.9-.27.31-.42.64-.46,1h5.4v.25Z"/>
          </g>
          <g class="uuid-4b927b96-c8fe-4ecb-a02d-cb5b58866b6c">
            <path class="uuid-61d57e7c-cfda-4550-a678-007a848fef55" d="m613.93,682.5h-5.64c0-.35.07-.67.22-.96.16-.29.36-.56.62-.81.25-.25.54-.49.86-.71.32-.23.63-.45.94-.67.32-.22.63-.45.94-.68.3-.23.57-.47.81-.72.24-.25.43-.52.57-.8.14-.28.22-.59.22-.92s-.06-.62-.18-.87c-.12-.25-.28-.46-.49-.63-.21-.17-.45-.3-.73-.38s-.59-.13-.93-.13c-.44,0-.81.07-1.12.2-.31.13-.57.31-.76.55s-.34.51-.43.84-.14.68-.14,1.07h-.25c0-.92.24-1.63.68-2.14s1.12-.76,2.01-.76c.36,0,.7.05,1.01.14.31.09.58.24.81.43.23.19.41.42.55.7.14.28.2.61.2.99,0,.46-.12.88-.37,1.26-.25.38-.56.73-.93,1.06-.37.33-.78.64-1.21.93-.44.29-.84.58-1.23.87-.38.29-.71.59-.98.9-.27.31-.42.64-.46,1h5.4v.25Z"/>
          </g>
          <g class="uuid-4b927b96-c8fe-4ecb-a02d-cb5b58866b6c">
            <path class="uuid-0730b42f-1ad5-46e4-9d1a-bd5fdc967226" d="m613.93,682.5h-5.64c0-.35.07-.67.22-.96.16-.29.36-.56.62-.81.25-.25.54-.49.86-.71.32-.23.63-.45.94-.67.32-.22.63-.45.94-.68.3-.23.57-.47.81-.72.24-.25.43-.52.57-.8.14-.28.22-.59.22-.92s-.06-.62-.18-.87c-.12-.25-.28-.46-.49-.63-.21-.17-.45-.3-.73-.38s-.59-.13-.93-.13c-.44,0-.81.07-1.12.2-.31.13-.57.31-.76.55s-.34.51-.43.84-.14.68-.14,1.07h-.25c0-.92.24-1.63.68-2.14s1.12-.76,2.01-.76c.36,0,.7.05,1.01.14.31.09.58.24.81.43.23.19.41.42.55.7.14.28.2.61.2.99,0,.46-.12.88-.37,1.26-.25.38-.56.73-.93,1.06-.37.33-.78.64-1.21.93-.44.29-.84.58-1.23.87-.38.29-.71.59-.98.9-.27.31-.42.64-.46,1h5.4v.25Z"/>
          </g>
          <g class="uuid-4b927b96-c8fe-4ecb-a02d-cb5b58866b6c">
            <path class="uuid-0730b42f-1ad5-46e4-9d1a-bd5fdc967226" d="m608.52,587.21c.13-.34.32-.63.57-.86.25-.23.55-.4.91-.52s.75-.17,1.19-.17c.34,0,.66.04.97.11.31.07.59.19.84.36.25.16.44.38.59.64.15.26.22.58.22.95,0,.59-.17,1.05-.51,1.38-.34.33-.77.52-1.29.57v.02c.25.02.49.08.72.18.23.09.44.23.63.41.18.18.33.4.44.66s.17.58.17.94c0,.39-.08.74-.23,1.05-.15.3-.36.56-.62.77-.26.21-.56.37-.9.47s-.7.16-1.09.16c-.48,0-.91-.07-1.29-.2-.39-.13-.71-.32-.99-.57-.27-.25-.47-.56-.61-.93-.14-.37-.19-.79-.15-1.27h.25c-.03.44.01.84.14,1.18.12.34.31.63.55.86s.55.4.91.52.76.18,1.2.18c.34,0,.66-.05.97-.14.31-.09.59-.24.83-.42.24-.19.43-.42.57-.7.14-.28.22-.59.22-.96s-.06-.67-.18-.92-.29-.46-.5-.63c-.22-.16-.47-.29-.76-.37s-.61-.13-.95-.15h-.6v-.25h.6c.27,0,.54-.03.81-.09.27-.06.51-.16.72-.31.21-.14.39-.33.52-.57.13-.23.2-.52.2-.87,0-.34-.08-.62-.22-.85-.14-.23-.32-.42-.54-.56-.22-.14-.47-.25-.75-.31s-.57-.09-.86-.09c-.4,0-.77.05-1.09.15-.32.1-.6.26-.83.47-.23.21-.4.47-.52.78s-.17.68-.17,1.1h-.25c0-.46.05-.86.18-1.2Z"/>
          </g>
          <g class="uuid-4b927b96-c8fe-4ecb-a02d-cb5b58866b6c">
            <path class="uuid-61d57e7c-cfda-4550-a678-007a848fef55" d="m608.52,587.21c.13-.34.32-.63.57-.86.25-.23.55-.4.91-.52s.75-.17,1.19-.17c.34,0,.66.04.97.11.31.07.59.19.84.36.25.16.44.38.59.64.15.26.22.58.22.95,0,.59-.17,1.05-.51,1.38-.34.33-.77.52-1.29.57v.02c.25.02.49.08.72.18.23.09.44.23.63.41.18.18.33.4.44.66s.17.58.17.94c0,.39-.08.74-.23,1.05-.15.3-.36.56-.62.77-.26.21-.56.37-.9.47s-.7.16-1.09.16c-.48,0-.91-.07-1.29-.2-.39-.13-.71-.32-.99-.57-.27-.25-.47-.56-.61-.93-.14-.37-.19-.79-.15-1.27h.25c-.03.44.01.84.14,1.18.12.34.31.63.55.86s.55.4.91.52.76.18,1.2.18c.34,0,.66-.05.97-.14.31-.09.59-.24.83-.42.24-.19.43-.42.57-.7.14-.28.22-.59.22-.96s-.06-.67-.18-.92-.29-.46-.5-.63c-.22-.16-.47-.29-.76-.37s-.61-.13-.95-.15h-.6v-.25h.6c.27,0,.54-.03.81-.09.27-.06.51-.16.72-.31.21-.14.39-.33.52-.57.13-.23.2-.52.2-.87,0-.34-.08-.62-.22-.85-.14-.23-.32-.42-.54-.56-.22-.14-.47-.25-.75-.31s-.57-.09-.86-.09c-.4,0-.77.05-1.09.15-.32.1-.6.26-.83.47-.23.21-.4.47-.52.78s-.17.68-.17,1.1h-.25c0-.46.05-.86.18-1.2Z"/>
          </g>
          <g class="uuid-4b927b96-c8fe-4ecb-a02d-cb5b58866b6c">
            <path class="uuid-0730b42f-1ad5-46e4-9d1a-bd5fdc967226" d="m608.52,587.21c.13-.34.32-.63.57-.86.25-.23.55-.4.91-.52s.75-.17,1.19-.17c.34,0,.66.04.97.11.31.07.59.19.84.36.25.16.44.38.59.64.15.26.22.58.22.95,0,.59-.17,1.05-.51,1.38-.34.33-.77.52-1.29.57v.02c.25.02.49.08.72.18.23.09.44.23.63.41.18.18.33.4.44.66s.17.58.17.94c0,.39-.08.74-.23,1.05-.15.3-.36.56-.62.77-.26.21-.56.37-.9.47s-.7.16-1.09.16c-.48,0-.91-.07-1.29-.2-.39-.13-.71-.32-.99-.57-.27-.25-.47-.56-.61-.93-.14-.37-.19-.79-.15-1.27h.25c-.03.44.01.84.14,1.18.12.34.31.63.55.86s.55.4.91.52.76.18,1.2.18c.34,0,.66-.05.97-.14.31-.09.59-.24.83-.42.24-.19.43-.42.57-.7.14-.28.22-.59.22-.96s-.06-.67-.18-.92-.29-.46-.5-.63c-.22-.16-.47-.29-.76-.37s-.61-.13-.95-.15h-.6v-.25h.6c.27,0,.54-.03.81-.09.27-.06.51-.16.72-.31.21-.14.39-.33.52-.57.13-.23.2-.52.2-.87,0-.34-.08-.62-.22-.85-.14-.23-.32-.42-.54-.56-.22-.14-.47-.25-.75-.31s-.57-.09-.86-.09c-.4,0-.77.05-1.09.15-.32.1-.6.26-.83.47-.23.21-.4.47-.52.78s-.17.68-.17,1.1h-.25c0-.46.05-.86.18-1.2Z"/>
          </g>
          <g class="uuid-4b927b96-c8fe-4ecb-a02d-cb5b58866b6c">
            <path class="uuid-0730b42f-1ad5-46e4-9d1a-bd5fdc967226" d="m608.03,503.42l4.19-5.9h.31v5.95h1.52v.25h-1.52v2.18h-.25v-2.18h-4.25v-.3Zm4.23-5.56l-3.98,5.61h4v-5.61h-.02Z"/>
          </g>
          <g class="uuid-4b927b96-c8fe-4ecb-a02d-cb5b58866b6c">
            <path class="uuid-61d57e7c-cfda-4550-a678-007a848fef55" d="m608.03,503.42l4.19-5.9h.31v5.95h1.52v.25h-1.52v2.18h-.25v-2.18h-4.25v-.3Zm4.23-5.56l-3.98,5.61h4v-5.61h-.02Z"/>
          </g>
          <g class="uuid-4b927b96-c8fe-4ecb-a02d-cb5b58866b6c">
            <path class="uuid-0730b42f-1ad5-46e4-9d1a-bd5fdc967226" d="m608.03,503.42l4.19-5.9h.31v5.95h1.52v.25h-1.52v2.18h-.25v-2.18h-4.25v-.3Zm4.23-5.56l-3.98,5.61h4v-5.61h-.02Z"/>
          </g>
          <g class="uuid-4b927b96-c8fe-4ecb-a02d-cb5b58866b6c">
            <path class="uuid-0730b42f-1ad5-46e4-9d1a-bd5fdc967226" d="m608.66,413.04h.02c.24-.39.56-.68.96-.86.4-.18.84-.27,1.34-.27.44,0,.83.07,1.18.22s.66.34.91.6.45.56.59.92c.14.36.21.75.21,1.16,0,.44-.07.85-.21,1.21-.14.36-.34.67-.59.92-.25.25-.56.45-.91.58-.35.14-.75.2-1.18.2s-.82-.06-1.19-.19c-.37-.13-.68-.31-.94-.55s-.46-.53-.6-.88c-.14-.35-.2-.75-.18-1.2h.25c-.02.41.04.78.16,1.1.12.32.3.59.54.81s.52.39.86.51c.34.12.71.17,1.11.17s.78-.06,1.1-.19.6-.31.83-.54c.23-.23.41-.52.53-.85.12-.33.18-.7.18-1.1s-.06-.74-.19-1.07c-.13-.32-.31-.6-.54-.84-.23-.23-.51-.42-.84-.55s-.69-.2-1.08-.2c-.49,0-.95.11-1.37.33s-.74.54-.97.95h-.31l.9-4.23h4.3v.25h-4.1l-.76,3.59Z"/>
          </g>
          <g class="uuid-4b927b96-c8fe-4ecb-a02d-cb5b58866b6c">
            <path class="uuid-61d57e7c-cfda-4550-a678-007a848fef55" d="m608.66,413.04h.02c.24-.39.56-.68.96-.86.4-.18.84-.27,1.34-.27.44,0,.83.07,1.18.22s.66.34.91.6.45.56.59.92c.14.36.21.75.21,1.16,0,.44-.07.85-.21,1.21-.14.36-.34.67-.59.92-.25.25-.56.45-.91.58-.35.14-.75.2-1.18.2s-.82-.06-1.19-.19c-.37-.13-.68-.31-.94-.55s-.46-.53-.6-.88c-.14-.35-.2-.75-.18-1.2h.25c-.02.41.04.78.16,1.1.12.32.3.59.54.81s.52.39.86.51c.34.12.71.17,1.11.17s.78-.06,1.1-.19.6-.31.83-.54c.23-.23.41-.52.53-.85.12-.33.18-.7.18-1.1s-.06-.74-.19-1.07c-.13-.32-.31-.6-.54-.84-.23-.23-.51-.42-.84-.55s-.69-.2-1.08-.2c-.49,0-.95.11-1.37.33s-.74.54-.97.95h-.31l.9-4.23h4.3v.25h-4.1l-.76,3.59Z"/>
          </g>
          <g class="uuid-4b927b96-c8fe-4ecb-a02d-cb5b58866b6c">
            <path class="uuid-0730b42f-1ad5-46e4-9d1a-bd5fdc967226" d="m608.66,413.04h.02c.24-.39.56-.68.96-.86.4-.18.84-.27,1.34-.27.44,0,.83.07,1.18.22s.66.34.91.6.45.56.59.92c.14.36.21.75.21,1.16,0,.44-.07.85-.21,1.21-.14.36-.34.67-.59.92-.25.25-.56.45-.91.58-.35.14-.75.2-1.18.2s-.82-.06-1.19-.19c-.37-.13-.68-.31-.94-.55s-.46-.53-.6-.88c-.14-.35-.2-.75-.18-1.2h.25c-.02.41.04.78.16,1.1.12.32.3.59.54.81s.52.39.86.51c.34.12.71.17,1.11.17s.78-.06,1.1-.19.6-.31.83-.54c.23-.23.41-.52.53-.85.12-.33.18-.7.18-1.1s-.06-.74-.19-1.07c-.13-.32-.31-.6-.54-.84-.23-.23-.51-.42-.84-.55s-.69-.2-1.08-.2c-.49,0-.95.11-1.37.33s-.74.54-.97.95h-.31l.9-4.23h4.3v.25h-4.1l-.76,3.59Z"/>
          </g>
          <g class="uuid-4b927b96-c8fe-4ecb-a02d-cb5b58866b6c">
            <path class="uuid-0730b42f-1ad5-46e4-9d1a-bd5fdc967226" d="m613.2,321.95c-.18-.24-.38-.43-.6-.57-.22-.14-.45-.24-.69-.29-.24-.05-.46-.08-.68-.08-.62,0-1.13.16-1.52.47-.39.31-.68.71-.89,1.18-.21.48-.35.99-.41,1.54-.07.55-.09,1.07-.09,1.55h.02c.06-.3.17-.57.34-.83.17-.25.37-.48.62-.67.24-.19.52-.34.83-.45.31-.11.63-.16.96-.16.36,0,.72.07,1.07.21.35.14.66.34.93.59.27.25.49.56.65.91.16.35.25.75.25,1.18s-.08.81-.23,1.16c-.16.35-.37.66-.63.91-.27.25-.58.45-.92.6s-.72.22-1.1.22c-.29,0-.56-.04-.81-.11-.25-.07-.48-.17-.68-.3-.21-.12-.39-.26-.55-.42-.16-.16-.29-.32-.4-.48-.24-.37-.39-.79-.46-1.26-.07-.47-.1-.98-.1-1.52s.05-1.05.15-1.59.27-1.04.51-1.48c.24-.44.56-.81.97-1.08.4-.28.91-.42,1.53-.42.36,0,.69.06.99.17s.56.26.78.45c.22.19.4.41.54.67s.23.54.27.83h-.25c-.08-.38-.21-.69-.39-.93Zm.33,3.55c-.14-.32-.33-.6-.57-.84-.24-.24-.52-.43-.84-.57-.32-.14-.67-.21-1.04-.21s-.71.07-1.04.21-.6.33-.84.57c-.24.24-.43.52-.57.84-.14.32-.21.67-.21,1.04s.07.71.21,1.04c.14.32.33.6.57.84.24.24.52.43.84.57s.67.21,1.04.21.71-.07,1.04-.21c.32-.14.6-.33.84-.57.24-.24.43-.52.57-.84.14-.32.21-.67.21-1.04s-.07-.71-.21-1.04Z"/>
          </g>
          <g class="uuid-4b927b96-c8fe-4ecb-a02d-cb5b58866b6c">
            <path class="uuid-61d57e7c-cfda-4550-a678-007a848fef55" d="m613.2,321.95c-.18-.24-.38-.43-.6-.57-.22-.14-.45-.24-.69-.29-.24-.05-.46-.08-.68-.08-.62,0-1.13.16-1.52.47-.39.31-.68.71-.89,1.18-.21.48-.35.99-.41,1.54-.07.55-.09,1.07-.09,1.55h.02c.06-.3.17-.57.34-.83.17-.25.37-.48.62-.67.24-.19.52-.34.83-.45.31-.11.63-.16.96-.16.36,0,.72.07,1.07.21.35.14.66.34.93.59.27.25.49.56.65.91.16.35.25.75.25,1.18s-.08.81-.23,1.16c-.16.35-.37.66-.63.91-.27.25-.58.45-.92.6s-.72.22-1.1.22c-.29,0-.56-.04-.81-.11-.25-.07-.48-.17-.68-.3-.21-.12-.39-.26-.55-.42-.16-.16-.29-.32-.4-.48-.24-.37-.39-.79-.46-1.26-.07-.47-.1-.98-.1-1.52s.05-1.05.15-1.59.27-1.04.51-1.48c.24-.44.56-.81.97-1.08.4-.28.91-.42,1.53-.42.36,0,.69.06.99.17s.56.26.78.45c.22.19.4.41.54.67s.23.54.27.83h-.25c-.08-.38-.21-.69-.39-.93Zm.33,3.55c-.14-.32-.33-.6-.57-.84-.24-.24-.52-.43-.84-.57-.32-.14-.67-.21-1.04-.21s-.71.07-1.04.21-.6.33-.84.57c-.24.24-.43.52-.57.84-.14.32-.21.67-.21,1.04s.07.71.21,1.04c.14.32.33.6.57.84.24.24.52.43.84.57s.67.21,1.04.21.71-.07,1.04-.21c.32-.14.6-.33.84-.57.24-.24.43-.52.57-.84.14-.32.21-.67.21-1.04s-.07-.71-.21-1.04Z"/>
          </g>
          <g class="uuid-4b927b96-c8fe-4ecb-a02d-cb5b58866b6c">
            <path class="uuid-0730b42f-1ad5-46e4-9d1a-bd5fdc967226" d="m613.2,321.95c-.18-.24-.38-.43-.6-.57-.22-.14-.45-.24-.69-.29-.24-.05-.46-.08-.68-.08-.62,0-1.13.16-1.52.47-.39.31-.68.71-.89,1.18-.21.48-.35.99-.41,1.54-.07.55-.09,1.07-.09,1.55h.02c.06-.3.17-.57.34-.83.17-.25.37-.48.62-.67.24-.19.52-.34.83-.45.31-.11.63-.16.96-.16.36,0,.72.07,1.07.21.35.14.66.34.93.59.27.25.49.56.65.91.16.35.25.75.25,1.18s-.08.81-.23,1.16c-.16.35-.37.66-.63.91-.27.25-.58.45-.92.6s-.72.22-1.1.22c-.29,0-.56-.04-.81-.11-.25-.07-.48-.17-.68-.3-.21-.12-.39-.26-.55-.42-.16-.16-.29-.32-.4-.48-.24-.37-.39-.79-.46-1.26-.07-.47-.1-.98-.1-1.52s.05-1.05.15-1.59.27-1.04.51-1.48c.24-.44.56-.81.97-1.08.4-.28.91-.42,1.53-.42.36,0,.69.06.99.17s.56.26.78.45c.22.19.4.41.54.67s.23.54.27.83h-.25c-.08-.38-.21-.69-.39-.93Zm.33,3.55c-.14-.32-.33-.6-.57-.84-.24-.24-.52-.43-.84-.57-.32-.14-.67-.21-1.04-.21s-.71.07-1.04.21-.6.33-.84.57c-.24.24-.43.52-.57.84-.14.32-.21.67-.21,1.04s.07.71.21,1.04c.14.32.33.6.57.84.24.24.52.43.84.57s.67.21,1.04.21.71-.07,1.04-.21c.32-.14.6-.33.84-.57.24-.24.43-.52.57-.84.14-.32.21-.67.21-1.04s-.07-.71-.21-1.04Z"/>
          </g>
          <g class="uuid-4b927b96-c8fe-4ecb-a02d-cb5b58866b6c">
            <path class="uuid-0730b42f-1ad5-46e4-9d1a-bd5fdc967226" d="m608.36,232.61h5.35v.33c-.57.57-1.08,1.15-1.55,1.75s-.87,1.23-1.19,1.88c-.33.65-.58,1.34-.76,2.07s-.27,1.51-.27,2.35h-.25c0-.82.08-1.6.25-2.34.18-.74.43-1.44.76-2.11s.73-1.31,1.2-1.92c.46-.61.98-1.19,1.55-1.76h-5.08v-.25Z"/>
          </g>
          <g class="uuid-4b927b96-c8fe-4ecb-a02d-cb5b58866b6c">
            <path class="uuid-61d57e7c-cfda-4550-a678-007a848fef55" d="m608.36,232.61h5.35v.33c-.57.57-1.08,1.15-1.55,1.75s-.87,1.23-1.19,1.88c-.33.65-.58,1.34-.76,2.07s-.27,1.51-.27,2.35h-.25c0-.82.08-1.6.25-2.34.18-.74.43-1.44.76-2.11s.73-1.31,1.2-1.92c.46-.61.98-1.19,1.55-1.76h-5.08v-.25Z"/>
          </g>
          <g class="uuid-4b927b96-c8fe-4ecb-a02d-cb5b58866b6c">
            <path class="uuid-0730b42f-1ad5-46e4-9d1a-bd5fdc967226" d="m608.36,232.61h5.35v.33c-.57.57-1.08,1.15-1.55,1.75s-.87,1.23-1.19,1.88c-.33.65-.58,1.34-.76,2.07s-.27,1.51-.27,2.35h-.25c0-.82.08-1.6.25-2.34.18-.74.43-1.44.76-2.11s.73-1.31,1.2-1.92c.46-.61.98-1.19,1.55-1.76h-5.08v-.25Z"/>
          </g>
          <g class="uuid-4b927b96-c8fe-4ecb-a02d-cb5b58866b6c">
            <path class="uuid-0730b42f-1ad5-46e4-9d1a-bd5fdc967226" d="m613.51,148.79c.38.4.57.92.57,1.56,0,.44-.08.81-.25,1.12-.16.31-.38.57-.66.77-.28.2-.6.35-.97.44-.37.09-.76.14-1.17.14s-.8-.05-1.17-.14c-.37-.09-.69-.24-.97-.44-.28-.2-.5-.46-.66-.77-.16-.31-.25-.69-.25-1.12,0-.64.19-1.16.57-1.56.38-.4.91-.63,1.57-.7v-.02c-.24-.03-.46-.1-.67-.2-.21-.1-.39-.23-.55-.38-.16-.15-.28-.33-.37-.54-.09-.21-.14-.43-.14-.67,0-.38.07-.7.2-.97.14-.27.32-.49.56-.66.24-.17.52-.3.84-.38.32-.08.66-.12,1.02-.12s.7.04,1.02.12.6.2.84.38c.24.17.43.39.56.66.14.27.2.59.2.97,0,.24-.05.46-.14.67-.09.21-.21.38-.37.54s-.34.28-.55.38c-.21.1-.43.17-.67.2v.02c.67.07,1.19.3,1.57.7Zm.09.55c-.16-.27-.36-.49-.62-.65-.26-.16-.56-.28-.89-.35-.34-.07-.69-.1-1.05-.1s-.71.04-1.05.1-.63.19-.89.35c-.26.16-.47.38-.62.65-.16.27-.23.61-.23,1.01s.08.75.23,1.03c.15.28.36.52.62.7.26.18.56.31.89.39.34.08.69.12,1.06.12s.72-.04,1.06-.12.63-.21.89-.39c.26-.18.46-.41.62-.7.15-.28.23-.63.23-1.03s-.08-.74-.23-1.01Zm-.39-3.96c-.14-.24-.31-.43-.54-.57-.22-.14-.47-.25-.76-.31-.28-.06-.58-.09-.88-.09s-.6.03-.88.09c-.28.06-.54.16-.76.31-.22.14-.4.33-.54.57-.14.24-.2.54-.2.9,0,.3.07.55.22.77.14.22.33.39.55.53.23.14.48.24.76.3.28.07.56.1.84.1s.56-.03.84-.1c.28-.07.54-.17.76-.3.23-.14.41-.31.55-.53.14-.22.22-.47.22-.77,0-.36-.07-.66-.2-.9Z"/>
          </g>
          <g class="uuid-4b927b96-c8fe-4ecb-a02d-cb5b58866b6c">
            <path class="uuid-61d57e7c-cfda-4550-a678-007a848fef55" d="m613.51,148.79c.38.4.57.92.57,1.56,0,.44-.08.81-.25,1.12-.16.31-.38.57-.66.77-.28.2-.6.35-.97.44-.37.09-.76.14-1.17.14s-.8-.05-1.17-.14c-.37-.09-.69-.24-.97-.44-.28-.2-.5-.46-.66-.77-.16-.31-.25-.69-.25-1.12,0-.64.19-1.16.57-1.56.38-.4.91-.63,1.57-.7v-.02c-.24-.03-.46-.1-.67-.2-.21-.1-.39-.23-.55-.38-.16-.15-.28-.33-.37-.54-.09-.21-.14-.43-.14-.67,0-.38.07-.7.2-.97.14-.27.32-.49.56-.66.24-.17.52-.3.84-.38.32-.08.66-.12,1.02-.12s.7.04,1.02.12.6.2.84.38c.24.17.43.39.56.66.14.27.2.59.2.97,0,.24-.05.46-.14.67-.09.21-.21.38-.37.54s-.34.28-.55.38c-.21.1-.43.17-.67.2v.02c.67.07,1.19.3,1.57.7Zm.09.55c-.16-.27-.36-.49-.62-.65-.26-.16-.56-.28-.89-.35-.34-.07-.69-.1-1.05-.1s-.71.04-1.05.1-.63.19-.89.35c-.26.16-.47.38-.62.65-.16.27-.23.61-.23,1.01s.08.75.23,1.03c.15.28.36.52.62.7.26.18.56.31.89.39.34.08.69.12,1.06.12s.72-.04,1.06-.12.63-.21.89-.39c.26-.18.46-.41.62-.7.15-.28.23-.63.23-1.03s-.08-.74-.23-1.01Zm-.39-3.96c-.14-.24-.31-.43-.54-.57-.22-.14-.47-.25-.76-.31-.28-.06-.58-.09-.88-.09s-.6.03-.88.09c-.28.06-.54.16-.76.31-.22.14-.4.33-.54.57-.14.24-.2.54-.2.9,0,.3.07.55.22.77.14.22.33.39.55.53.23.14.48.24.76.3.28.07.56.1.84.1s.56-.03.84-.1c.28-.07.54-.17.76-.3.23-.14.41-.31.55-.53.14-.22.22-.47.22-.77,0-.36-.07-.66-.2-.9Z"/>
          </g>
          <g class="uuid-4b927b96-c8fe-4ecb-a02d-cb5b58866b6c">
            <path class="uuid-0730b42f-1ad5-46e4-9d1a-bd5fdc967226" d="m613.51,148.79c.38.4.57.92.57,1.56,0,.44-.08.81-.25,1.12-.16.31-.38.57-.66.77-.28.2-.6.35-.97.44-.37.09-.76.14-1.17.14s-.8-.05-1.17-.14c-.37-.09-.69-.24-.97-.44-.28-.2-.5-.46-.66-.77-.16-.31-.25-.69-.25-1.12,0-.64.19-1.16.57-1.56.38-.4.91-.63,1.57-.7v-.02c-.24-.03-.46-.1-.67-.2-.21-.1-.39-.23-.55-.38-.16-.15-.28-.33-.37-.54-.09-.21-.14-.43-.14-.67,0-.38.07-.7.2-.97.14-.27.32-.49.56-.66.24-.17.52-.3.84-.38.32-.08.66-.12,1.02-.12s.7.04,1.02.12.6.2.84.38c.24.17.43.39.56.66.14.27.2.59.2.97,0,.24-.05.46-.14.67-.09.21-.21.38-.37.54s-.34.28-.55.38c-.21.1-.43.17-.67.2v.02c.67.07,1.19.3,1.57.7Zm.09.55c-.16-.27-.36-.49-.62-.65-.26-.16-.56-.28-.89-.35-.34-.07-.69-.1-1.05-.1s-.71.04-1.05.1-.63.19-.89.35c-.26.16-.47.38-.62.65-.16.27-.23.61-.23,1.01s.08.75.23,1.03c.15.28.36.52.62.7.26.18.56.31.89.39.34.08.69.12,1.06.12s.72-.04,1.06-.12.63-.21.89-.39c.26-.18.46-.41.62-.7.15-.28.23-.63.23-1.03s-.08-.74-.23-1.01Zm-.39-3.96c-.14-.24-.31-.43-.54-.57-.22-.14-.47-.25-.76-.31-.28-.06-.58-.09-.88-.09s-.6.03-.88.09c-.28.06-.54.16-.76.31-.22.14-.4.33-.54.57-.14.24-.2.54-.2.9,0,.3.07.55.22.77.14.22.33.39.55.53.23.14.48.24.76.3.28.07.56.1.84.1s.56-.03.84-.1c.28-.07.54-.17.76-.3.23-.14.41-.31.55-.53.14-.22.22-.47.22-.77,0-.36-.07-.66-.2-.9Z"/>
          </g>
          <g class="uuid-4b927b96-c8fe-4ecb-a02d-cb5b58866b6c">
            <path class="uuid-0730b42f-1ad5-46e4-9d1a-bd5fdc967226" d="m608.87,63.34c.18.24.38.43.6.57s.45.24.7.29c.24.05.47.08.67.08.42,0,.78-.07,1.09-.22.31-.14.57-.34.79-.59s.39-.53.53-.85c.14-.32.24-.66.32-1.01s.13-.71.15-1.07c.02-.36.03-.7.02-1.02h-.02c-.07.3-.18.57-.35.83-.16.25-.37.48-.61.67-.24.19-.52.34-.82.45-.3.11-.62.16-.96.16-.36,0-.72-.07-1.07-.21s-.66-.34-.93-.59c-.27-.25-.49-.56-.65-.92-.16-.36-.25-.75-.25-1.18s.08-.8.23-1.16c.16-.35.37-.66.63-.92s.57-.46.92-.6c.35-.14.72-.22,1.1-.22.29,0,.56.04.81.12.25.08.48.18.68.3.21.12.39.26.55.42.16.16.29.32.4.48.25.37.4.79.47,1.26s.1.98.1,1.52-.05,1.06-.15,1.6-.27,1.03-.51,1.47-.57.8-.97,1.08c-.41.28-.92.42-1.53.42-.36,0-.69-.05-.99-.16-.3-.11-.56-.25-.78-.44-.22-.19-.4-.41-.54-.67s-.23-.54-.27-.83h.25c.08.38.21.69.39.93Zm4.55-5.62c-.14-.32-.33-.6-.57-.84-.24-.24-.52-.43-.84-.57s-.67-.21-1.04-.21-.71.07-1.04.21-.6.33-.84.57c-.24.24-.43.52-.57.84s-.21.67-.21,1.03.07.71.21,1.04.33.6.57.84c.24.24.52.43.84.57.32.14.67.21,1.04.21s.71-.07,1.04-.21c.32-.14.6-.33.84-.57.24-.24.43-.52.57-.84s.21-.67.21-1.04-.07-.71-.21-1.03Z"/>
          </g>
          <g class="uuid-4b927b96-c8fe-4ecb-a02d-cb5b58866b6c">
            <path class="uuid-61d57e7c-cfda-4550-a678-007a848fef55" d="m608.87,63.34c.18.24.38.43.6.57s.45.24.7.29c.24.05.47.08.67.08.42,0,.78-.07,1.09-.22.31-.14.57-.34.79-.59s.39-.53.53-.85c.14-.32.24-.66.32-1.01s.13-.71.15-1.07c.02-.36.03-.7.02-1.02h-.02c-.07.3-.18.57-.35.83-.16.25-.37.48-.61.67-.24.19-.52.34-.82.45-.3.11-.62.16-.96.16-.36,0-.72-.07-1.07-.21s-.66-.34-.93-.59c-.27-.25-.49-.56-.65-.92-.16-.36-.25-.75-.25-1.18s.08-.8.23-1.16c.16-.35.37-.66.63-.92s.57-.46.92-.6c.35-.14.72-.22,1.1-.22.29,0,.56.04.81.12.25.08.48.18.68.3.21.12.39.26.55.42.16.16.29.32.4.48.25.37.4.79.47,1.26s.1.98.1,1.52-.05,1.06-.15,1.6-.27,1.03-.51,1.47-.57.8-.97,1.08c-.41.28-.92.42-1.53.42-.36,0-.69-.05-.99-.16-.3-.11-.56-.25-.78-.44-.22-.19-.4-.41-.54-.67s-.23-.54-.27-.83h.25c.08.38.21.69.39.93Zm4.55-5.62c-.14-.32-.33-.6-.57-.84-.24-.24-.52-.43-.84-.57s-.67-.21-1.04-.21-.71.07-1.04.21-.6.33-.84.57c-.24.24-.43.52-.57.84s-.21.67-.21,1.03.07.71.21,1.04.33.6.57.84c.24.24.52.43.84.57.32.14.67.21,1.04.21s.71-.07,1.04-.21c.32-.14.6-.33.84-.57.24-.24.43-.52.57-.84s.21-.67.21-1.04-.07-.71-.21-1.03Z"/>
          </g>
          <g class="uuid-4b927b96-c8fe-4ecb-a02d-cb5b58866b6c">
            <path class="uuid-0730b42f-1ad5-46e4-9d1a-bd5fdc967226" d="m608.87,63.34c.18.24.38.43.6.57s.45.24.7.29c.24.05.47.08.67.08.42,0,.78-.07,1.09-.22.31-.14.57-.34.79-.59s.39-.53.53-.85c.14-.32.24-.66.32-1.01s.13-.71.15-1.07c.02-.36.03-.7.02-1.02h-.02c-.07.3-.18.57-.35.83-.16.25-.37.48-.61.67-.24.19-.52.34-.82.45-.3.11-.62.16-.96.16-.36,0-.72-.07-1.07-.21s-.66-.34-.93-.59c-.27-.25-.49-.56-.65-.92-.16-.36-.25-.75-.25-1.18s.08-.8.23-1.16c.16-.35.37-.66.63-.92s.57-.46.92-.6c.35-.14.72-.22,1.1-.22.29,0,.56.04.81.12.25.08.48.18.68.3.21.12.39.26.55.42.16.16.29.32.4.48.25.37.4.79.47,1.26s.1.98.1,1.52-.05,1.06-.15,1.6-.27,1.03-.51,1.47-.57.8-.97,1.08c-.41.28-.92.42-1.53.42-.36,0-.69-.05-.99-.16-.3-.11-.56-.25-.78-.44-.22-.19-.4-.41-.54-.67s-.23-.54-.27-.83h.25c.08.38.21.69.39.93Zm4.55-5.62c-.14-.32-.33-.6-.57-.84-.24-.24-.52-.43-.84-.57s-.67-.21-1.04-.21-.71.07-1.04.21-.6.33-.84.57c-.24.24-.43.52-.57.84s-.21.67-.21,1.03.07.71.21,1.04.33.6.57.84c.24.24.52.43.84.57.32.14.67.21,1.04.21s.71-.07,1.04-.21c.32-.14.6-.33.84-.57.24-.24.43-.52.57-.84s.21-.67.21-1.04-.07-.71-.21-1.03Z"/>
          </g>
          <g class="uuid-4b927b96-c8fe-4ecb-a02d-cb5b58866b6c">
            <path class="uuid-0730b42f-1ad5-46e4-9d1a-bd5fdc967226" d="m614.05,867.77c-.1.52-.28.98-.52,1.39-.25.41-.57.74-.97.99-.4.25-.91.38-1.52.38s-1.1-.13-1.51-.38c-.41-.25-.73-.58-.98-.99-.25-.41-.42-.87-.52-1.39s-.15-1.04-.15-1.57.05-1.05.15-1.56.28-.98.52-1.39c.25-.41.57-.74.98-1,.41-.25.91-.38,1.51-.38s1.11.13,1.52.38c.4.25.73.59.97,1,.25.41.42.88.52,1.39.1.52.15,1.04.15,1.56s-.05,1.05-.15,1.57Zm-.23-2.99c-.09-.48-.25-.92-.47-1.32-.22-.39-.52-.72-.89-.97-.37-.25-.85-.38-1.42-.38s-1.05.13-1.42.38c-.37.25-.67.57-.89.97-.22.39-.38.83-.47,1.32s-.14.96-.14,1.43.04.95.14,1.43.25.92.47,1.32.52.72.89.97c.37.25.85.38,1.42.38s1.05-.12,1.42-.38c.37-.25.67-.57.89-.97s.38-.83.47-1.32c.09-.48.14-.96.14-1.43s-.04-.94-.14-1.43Z"/>
          </g>
          <g class="uuid-4b927b96-c8fe-4ecb-a02d-cb5b58866b6c">
            <path class="uuid-61d57e7c-cfda-4550-a678-007a848fef55" d="m614.05,867.77c-.1.52-.28.98-.52,1.39-.25.41-.57.74-.97.99-.4.25-.91.38-1.52.38s-1.1-.13-1.51-.38c-.41-.25-.73-.58-.98-.99-.25-.41-.42-.87-.52-1.39s-.15-1.04-.15-1.57.05-1.05.15-1.56.28-.98.52-1.39c.25-.41.57-.74.98-1,.41-.25.91-.38,1.51-.38s1.11.13,1.52.38c.4.25.73.59.97,1,.25.41.42.88.52,1.39.1.52.15,1.04.15,1.56s-.05,1.05-.15,1.57Zm-.23-2.99c-.09-.48-.25-.92-.47-1.32-.22-.39-.52-.72-.89-.97-.37-.25-.85-.38-1.42-.38s-1.05.13-1.42.38c-.37.25-.67.57-.89.97-.22.39-.38.83-.47,1.32s-.14.96-.14,1.43.04.95.14,1.43.25.92.47,1.32.52.72.89.97c.37.25.85.38,1.42.38s1.05-.12,1.42-.38c.37-.25.67-.57.89-.97s.38-.83.47-1.32c.09-.48.14-.96.14-1.43s-.04-.94-.14-1.43Z"/>
          </g>
          <g class="uuid-4b927b96-c8fe-4ecb-a02d-cb5b58866b6c">
            <path class="uuid-0730b42f-1ad5-46e4-9d1a-bd5fdc967226" d="m614.05,867.77c-.1.52-.28.98-.52,1.39-.25.41-.57.74-.97.99-.4.25-.91.38-1.52.38s-1.1-.13-1.51-.38c-.41-.25-.73-.58-.98-.99-.25-.41-.42-.87-.52-1.39s-.15-1.04-.15-1.57.05-1.05.15-1.56.28-.98.52-1.39c.25-.41.57-.74.98-1,.41-.25.91-.38,1.51-.38s1.11.13,1.52.38c.4.25.73.59.97,1,.25.41.42.88.52,1.39.1.52.15,1.04.15,1.56s-.05,1.05-.15,1.57Zm-.23-2.99c-.09-.48-.25-.92-.47-1.32-.22-.39-.52-.72-.89-.97-.37-.25-.85-.38-1.42-.38s-1.05.13-1.42.38c-.37.25-.67.57-.89.97-.22.39-.38.83-.47,1.32s-.14.96-.14,1.43.04.95.14,1.43.25.92.47,1.32.52.72.89.97c.37.25.85.38,1.42.38s1.05-.12,1.42-.38c.37-.25.67-.57.89-.97s.38-.83.47-1.32c.09-.48.14-.96.14-1.43s-.04-.94-.14-1.43Z"/>
          </g>
          <path class="uuid-7771f9a3-01f4-46b1-8a93-244c4ff0ad70" d="m-24.36,847.92v.02-.02l1.03-.02h0l1.03-.02h0l1.03-.02h0l1.03-.02h0l1.03-.02h0l1.03-.02h0l1.03-.02h0l1.03-.02h0l1.03-.02h0l1.03-.02h0l1.03-.02h0l1.03-.02h0l1.03-.02h0l1.03-.02h0l1.03-.02h0l1.03-.02h0l1.03-.02h0l1.03-.02h0l1.03-.02h0l1.03-.02h0l1.03-.02h0l1.03-.02h0l1.03-.02h0l1.03-.02H.28l1.03-.02h0l1.03-.02h0l1.03-.02h0l1.03-.02h0l1.03-.02h0l1.03-.02h0l1.03-.02h0l1.03-.02h0l1.03-.02h0l1.03-.02h0l1.03-.02h0l1.03-.02h0l1.03-.03h0l1.03-.03h0l1.03-.03h0l1.03-.03h0l1.03-.03h0l1.03-.03h0l1.03-.03h0l1.03-.03h0l1.03-.03h0l1.03-.03h0l1.03-.03h0l1.03-.03h0l1.03-.03h0l1.03-.03h0l1.03-.03h0l1.03-.03h0l1.03-.03h0l1.03-.03h0l1.03-.03h0l1.03-.03h0l1.03-.03h0l1.03-.03h0l1.03-.03h0l1.03-.03h0l1.03-.03h0l1.03-.03h0l1.03-.03h0l1.03-.03h0l1.03-.03h0l1.03-.03h0l1.03-.03h0l1.03-.03h0l1.03-.03h0l1.03-.03h0l1.03-.03h0l1.03-.03h0l1.03-.03h0l1.03-.03h0l1.03-.03h0l1.03-.03h0l1.03-.03h0l1.03-.03h0l1.03-.03h0l1.03-.03h0l1.03-.03h0l1.03-.03h0l1.03-.03h0l1.03-.03h0l1.03-.03h0l1.03-.03h0l1.03-.03h0l1.03-.03h0l1.03-.03h0l1.03-.03h0l1.03-.03h0l1.03-.03h0l1.03-.03h0l1.03-.03h0l1.03-.03h0l1.03-.03h0l1.03-.03h0l1.03-.03h0l1.03-.03h0l1.03-.04h0l1.03-.04h0l1.03-.04h0l1.03-.04h0l1.03-.04h0l1.03-.04h0l1.03-.04h0l1.03-.04h0l1.03-.04h0l1.03-.04h0l1.03-.04h0l1.03-.04h0l1.03-.04h0l1.03-.04h0l1.03-.04h0l1.03-.04h0l1.03-.04h0l1.03-.04h0l1.03-.04h0l1.03-.04h0l1.03-.04h0l1.03-.04h0l1.03-.04h0l1.03-.04h0l1.03-.04h0l1.03-.04h0l1.03-.04h0l1.03-.04h0l1.03-.04h0l1.03-.04h0l1.03-.04h0l1.03-.04h0l1.03-.04h0l1.03-.04h0l1.03-.04h0l1.03-.04h0l1.03-.04h0l1.03-.04h0l1.03-.04h0l1.03-.04h0l1.03-.04h0l1.03-.04h0l1.03-.04h0l1.03-.05h0l1.03-.05h0l1.03-.05h0l1.03-.05h0l1.03-.05h0l1.03-.05h0l1.03-.05h0l1.03-.05h0l1.03-.05h0l1.03-.05h0l1.03-.05h0l1.03-.05h0l1.03-.05h0l1.03-.05h0l1.03-.05h0l1.03-.05h0l1.03-.05h0l1.03-.05h0l1.03-.05h0l1.03-.05h0l1.03-.05h0l1.03-.05h0l1.03-.05h0l1.03-.05h0l1.03-.05h0l1.03-.05h0l1.03-.05h0l1.03-.05h0l1.03-.05h0l1.03-.05h0l1.03-.05h0l1.03-.05h0l1.03-.06h0l1.03-.06h0l1.03-.06h0l1.03-.06h0l1.03-.06h0l1.03-.06h0l1.03-.06h0l1.03-.06h0l1.03-.06h0l1.03-.06h0l1.03-.06h0l1.03-.06h0l1.03-.06h0l1.03-.06h0l1.03-.06h0l1.03-.06h0l1.03-.06h0l1.03-.06h0l1.03-.06h0l1.03-.06h0l1.03-.06h0l1.03-.06h0l1.03-.06h0l1.03-.06h0l1.03-.07h0l1.03-.07h0l1.03-.07h0l1.03-.07h0l1.03-.07h0l1.03-.07h0l1.03-.07h0l1.03-.07h0l1.03-.07h0l1.03-.07h0l1.03-.07h0l1.03-.07h0l1.03-.07h0l1.03-.07h0l1.03-.07h0l1.03-.07h0l1.03-.07h0l1.03-.07h0l1.03-.07h0l1.03-.07h0l1.03-.08h0l1.03-.08h0l1.03-.08h0l1.03-.08h0l1.03-.08h0l1.03-.08h0l1.03-.08h0l1.03-.08h0l1.03-.08h0l1.03-.08h0l1.03-.08h0l1.03-.08h0l1.03-.08h0l1.03-.08h0l1.03-.08h0l1.03-.08h0l1.03-.08h0l1.03-.09h0l1.03-.09h0l1.03-.09h0l1.03-.09h0l1.03-.09h0l1.03-.09h0l1.03-.09h0l1.03-.09h0l1.03-.09h0l1.03-.09h0l1.03-.09h0l1.03-.09h0l1.03-.09h0l1.03-.09h0l1.03-.09h0l1.03-.1h0l1.03-.1h0l1.03-.1h0l1.03-.1h0l1.03-.1h0l1.03-.1h0l1.03-.1h0l1.03-.1h0l1.03-.1h0l1.03-.1h0l1.03-.1h0l1.03-.1h0l1.03-.11h0l1.03-.11h0l1.03-.11h0l1.03-.11h0l1.03-.11h0l1.03-.11h0l1.03-.11h0l1.03-.11h0l1.03-.11h0l1.03-.11h0l1.03-.11h0l1.03-.12h0l1.03-.12h0l1.03-.12h0l1.03-.12h0l1.03-.12h0l1.03-.12h0l1.03-.12h0l1.03-.12h0l1.03-.12h0l1.03-.12h0l1.03-.13h0l1.03-.13h0l1.03-.13h0l1.03-.13h0l1.03-.13h0l1.03-.13h0l1.03-.13h0l1.03-.13h0l1.03-.13h0l1.03-.14h0l1.03-.14h0l1.03-.14h0l1.03-.14h0l1.03-.14h0l1.03-.14h0l1.03-.14h0l1.03-.14h0l1.03-.15h0l1.03-.15h0l1.03-.15h0l1.03-.15h0l1.03-.15h0l1.03-.15h0l1.03-.15h0l1.03-.16h0l1.03-.16h0l1.03-.16h0l1.03-.16h0l1.03-.16h0l1.03-.16h0l1.03-.16h0l1.03-.17h0l1.03-.17h0l1.03-.17h0l1.03-.17h0l1.03-.17h0l1.03-.17h0l1.03-.18h0l1.03-.18h0l1.03-.18h0l1.03-.18h0l1.03-.18h0l1.03-.19h0l1.03-.19h0l1.03-.19h0l1.03-.19h0l1.03-.19h0l1.03-.19h0l1.03-.2h0l1.03-.2h0l1.03-.2h0l1.03-.2h0l1.03-.2h0l1.03-.21h0l1.03-.21h0l1.03-.21h0l1.03-.21h0l1.03-.22h0l1.03-.22h0l1.03-.22h0l1.03-.22h0l1.03-.22h0l1.03-.23h0l1.03-.23h0l1.03-.23h0l1.03-.23h0l1.03-.24h0l1.03-.24h0l1.03-.24h0l1.03-.24h0l1.03-.25h0l1.03-.25h0l1.03-.25h0l1.03-.26h0l1.03-.26h0l1.03-.26h0l1.03-.26h0l1.03-.27h0l1.03-.27h0l1.03-.27h0l1.03-.28h0l1.03-.28h0l1.03-.28h0l1.03-.29h0l1.03-.29h0l1.03-.29h0l1.03-.3h0l1.03-.3h0l1.03-.3h0l1.03-.31h0l1.03-.31h0l1.03-.31h0l1.03-.32h0l1.03-.32h0l1.03-.32h0l1.03-.33h0l1.03-.33h0l1.03-.34h0l1.03-.34h0l1.03-.35h0l1.03-.35h0l1.03-.35h0l1.03-.36h0l1.03-.36h0l1.03-.37h0l1.03-.37h0l1.03-.38h0l1.03-.38h0l1.03-.39h0l1.03-.39h0l1.03-.4h0l1.03-.4h0l1.03-.41h0l1.03-.41h0l1.03-.42h0l1.03-.42h0l1.03-.43h0l1.03-.43h0l1.03-.44h0l1.03-.44h0l1.03-.45h0l1.03-.46h0l1.03-.46h0l1.03-.47h0l1.03-.48h0l1.03-.48h0l1.03-.49h0l1.03-.49h0l1.03-.5h0l1.03-.51h0l1.03-.52h0l1.03-.52h0l1.03-.53h0l1.03-.54h0l1.03-.55h0l1.03-.55h0l1.03-.56h0l1.03-.57h0l1.03-.58h0l1.03-.59h0l1.03-.59h0l1.03-.6h0l1.03-.61h0l1.03-.62h0l1.03-.63h0l1.03-.64h0l1.03-.65h0l1.03-.66h0l1.03-.67h0l1.03-.68h0l1.03-.69h0l1.03-.7h0l1.03-.71h0l1.03-.72h0l1.03-.73h0l1.03-.75h0l1.03-.76h0l1.03-.77h0l1.03-.78h0l1.03-.79h0l1.03-.81h0l1.03-.82h0l1.03-.83h0l1.03-.85h0l1.03-.86h0l1.03-.88h0l1.03-.89h0l1.03-.9h0l1.03-.92h0l1.03-.94h0l1.03-.95h0l1.03-.97h0l1.03-.98h0l1.03-1h0l1.03-1.02h0l1.03-1.04h0l1.03-1.06h0l1.03-1.07h0l1.03-1.09h0l1.03-1.11h0l1.03-1.13h0l1.03-1.15h0l1.03-1.18h0l1.03-1.2h0l1.03-1.22h0l1.03-1.24h0l1.03-1.27h0l1.03-1.29h0l1.03-1.31h0l1.03-1.34h0l1.03-1.37h0l1.03-1.39h0l1.03-1.42h0l1.03-1.45h0l1.03-1.48h0l1.03-1.51h0l1.03-1.54h0l1.03-1.57h0l1.03-1.6h0l1.03-1.63h0l1.03-1.66h0l1.03-1.7h0l1.03-1.73h0l1.03-1.77h0l1.03-1.81h0l1.03-1.85h0l1.03-1.89h0l1.03-1.93h0l1.03-1.97h0l1.03-2.01h0l1.03-2.06h0l1.03-2.1h0l1.03-2.15h0l1.03-2.2h0l1.03-2.25h0l1.03-2.3h0l1.03-2.36h0l1.03-2.41h0l1.03-2.47h0l1.03-2.53h0l1.03-2.59h0l1.03-2.65h0l1.03-2.71h0l1.03-2.78h0l1.03-2.85h0l1.03-2.92h0l1.03-2.99h0l1.03-3.07h0l1.03-3.15h0l1.03-3.23h0l1.03-3.31h0l1.03-3.4h0l1.03-3.49h0l1.03-3.58h0l1.03-3.68h0l1.03-3.78h0l1.03-3.88h0l1.03-3.99h0l1.03-4.1h0l1.03-4.22h0l1.03-4.34h0l1.03-4.46h0l1.03-4.59h0l1.03-4.72h0l1.03-4.86h0l1.03-5.01h0l1.03-5.16h0l1.03-5.32h0l1.03-5.48h0l1.03-5.65h0l1.03-5.83h0l1.03-6.01h0l1.03-6.21h0l1.03-6.41h0l1.03-6.62h0l1.03-6.84h0l1.03-7.07h0l1.03-7.31h0l1.03-7.56h0l1.03-7.82h0l1.03-8.09h0l1.03-8.38h0l1.03-8.68h0l1.03-9h0l1.03-9.33h0l1.03-9.68h0l1.03-10.04h0l1.03-10.43h0l1.03-10.83h0l1.03-11.26h0l1.03-11.7h0l1.03-12.18h0l1.03-12.67h0l1.03-13.2h0l1.03-13.75h0l1.03-14.34h0l1.03-14.96h0l1.03-15.61h0l1.03-16.31h0l1.03-17.04h0l1.03-17.83h0l1.03-18.66h0l1.03-19.54h0l1.03-20.48h0l1.03-21.48h0l1.03-22.54h0l1.03-23.68h0l1.03-24.89h0l1.03-26.19h0l1.03-27.59h0l1.03-29.08h0l.59-17.49h113.71l.7,20.85h0l1.03,28.91h0l1.03,27.42h0l1.03,26.04h0l1.03,24.75h0l1.03,23.55h0l1.03,22.42h0l1.03,21.36h0l1.03,20.37h0l1.03,19.44h0l1.03,18.56h0l1.03,17.74h0l1.03,16.96h0l1.03,16.23h0l1.03,15.54h0l1.03,14.89h0l1.03,14.27h0l1.03,13.69h0l1.03,13.14h0l1.03,12.62h0l1.03,12.12h0l1.03,11.65h0l1.03,11.21h0l1.03,10.79h0l1.03,10.38h0l1.03,10h0l1.03,9.64h0l1.03,9.29h0l1.03,8.96h0l1.03,8.65h0l1.03,8.35h0l1.03,8.06h0l1.03,7.79h0l1.03,7.53h0l1.03,7.28h0l1.03,7.04h0l1.03,6.81h0l1.03,6.59h0l1.03,6.38h0l1.03,6.18h0l1.03,5.99h0l1.03,5.81h0l1.03,5.63h0l1.03,5.46h0l1.03,5.3h0l1.03,5.14h0l1.03,4.99h0l1.03,4.85h0l1.03,4.71h0l1.03,4.57h0l1.03,4.45h0l1.03,4.32h0l1.03,4.2h0l1.03,4.09h0l1.03,3.98h0l1.03,3.87h0l1.03,3.77h0l1.03,3.67h0l1.03,3.57h0l1.03,3.48h0l1.03,3.39h0l1.03,3.3h0l1.03,3.22h0l1.03,3.14h0l1.03,3.06h0l1.03,2.98h0l1.03,2.91h0l1.03,2.84h0l1.03,2.77h0l1.03,2.71h0l1.03,2.64h0l1.03,2.58h0l1.03,2.52h0l1.03,2.46h0l1.03,2.4h0l1.03,2.35h0l1.03,2.3h0l1.03,2.24h0l1.03,2.19h0l1.03,2.15h0l1.03,2.1h0l1.03,2.05h0l1.03,2.01h0l1.03,1.97h0l1.03,1.92h0l1.03,1.88h0l1.03,1.84h0l1.03,1.8h0l1.03,1.77h0l1.03,1.73h0l1.03,1.7h0l1.03,1.66h0l1.03,1.63h0l1.03,1.59h0l1.03,1.56h0l1.03,1.53h0l1.03,1.5h0l1.03,1.47h0l1.03,1.44h0l1.03,1.42h0l1.03,1.39h0l1.03,1.36h0l1.03,1.34h0l1.03,1.31h0l1.03,1.29h0l1.03,1.26h0l1.03,1.24h0l1.03,1.22h0l1.03,1.19h0l1.03,1.17h0l1.03,1.15h0l1.03,1.13h0l1.03,1.11h0l1.03,1.09h0l1.03,1.07h0l1.03,1.05h0l1.03,1.04h0l1.03,1.02h0l1.03,1h0l1.03.98h0l1.03.97h0l1.03.95h0l1.03.93h0l1.03.92h0l1.03.9h0l1.03.89h0l1.03.87h0l1.03.86h0l1.03.85h0l1.03.83h0l1.03.82h0l1.03.81h0l1.03.79h0l1.03.78h0l1.03.77h0l1.03.76h0l1.03.74h0l1.03.73h0l1.03.72h0l1.03.71h0l1.03.7h0l1.03.69h0l1.03.68h0l1.03.67h0l1.03.66h0l1.03.65h0l1.03.64h0l1.03.63h0l1.03.62h0l1.03.61h0l1.03.6h0l1.03.59h0l1.03.58h0l1.03.58h0l1.03.57h0l1.03.56h0l1.03.55h0l1.03.54h0l1.03.54h0l1.03.53h0l1.03.52h0l1.03.51h0l1.03.51h0l1.03.5h0l1.03.49h0l1.03.49h0l1.03.48h0l1.03.47h0l1.03.47h0l1.03.46h0l1.03.46h0l1.03.45h0l1.03.44h0l1.03.44h0l1.03.43h0l1.03.43h0l1.03.42h0l1.03.42h0l1.03.41h0l1.03.41h0l1.03.4h0l1.03.39h0l1.03.39h0l1.03.39h0l1.03.38h0l1.03.38h0l1.03.37h0l1.03.37h0l1.03.36h0l1.03.36h0l1.03.35h0l1.03.35h0l1.03.34h0l1.03.34h0l1.03.34h0l1.03.33h0l1.03.33h0l1.03.32h0l1.03.32h0l1.03.32h0l1.03.31h0l1.03.31h0l1.03.31h0l1.03.3h0l1.03.3h0l1.03.3h0l1.03.29h0l1.03.29h0l1.03.29h0l1.03.28h0l1.03.28h0l1.03.28h0l1.03.27h0l1.03.27h0l1.03.27h0l1.03.26h0l1.03.26h0l1.03.26h0l1.03.26h0l1.03.25h0l1.03.25h0l1.03.25h0l1.03.24h0l1.03.24h0l1.03.24h0l1.03.24h0l1.03.23h0l1.03.23h0l1.03.23h0l1.03.23h0l1.03.22h0l1.03.22h0l1.03.22h0l1.03.22h0l1.03.22h0l1.03.21h0l1.03.21h0l1.03.21h0l1.03.21h0l1.03.2h0l1.03.2h0l1.03.2h0l1.03.2h0l1.03.2h0l1.03.19h0l1.03.19h0l1.03.19h0l1.03.19h0l1.03.19h0l1.03.19h0l1.03.18h0l1.03.18h0l1.03.18h0l1.03.18h0l1.03.18h0l1.03.17h0l1.03.17h0l1.03.17h0l1.03.17h0l1.03.17h0l1.03.17h0l1.03.16h0l1.03.16h0l1.03.16h0l1.03.16h0l1.03.16h0l1.03.16h0l1.03.16h0l1.03.15h0l1.03.15h0l1.03.15h0l1.03.15h0l1.03.15h0l1.03.15h0l1.03.15h0l1.03.14h0l1.03.14h0l1.03.14h0l1.03.14h0l1.03.14h0l1.03.14h0l1.03.14h0l1.03.14h0l1.03.13h0l1.03.13h0l1.03.13h0l1.03.13h0l1.03.13h0l1.03.13h0l1.03.13h0l1.03.13h0l1.03.13h0l1.03.12h0l1.03.12h0l1.03.12h0l1.03.12h0l1.03.12h0l1.03.12h0l1.03.12h0l1.03.12h0l1.03.12h0l1.03.12h0l1.03.11h0l1.03.11h0l1.03.11h0l1.03.11h0l1.03.11h0l1.03.11h0l1.03.11h0l1.03.11h0l1.03.11h0l1.03.11h0l1.03.11h0l1.03.1h0l1.03.1h0l1.03.1h0l1.03.1h0l1.03.1h0l1.03.1h0l1.03.1h0l1.03.1h0l1.03.1h0l1.03.1h0l1.03.1h0l1.03.1h0l1.03.09h0l1.03.09h0l1.03.09h0l1.03.09h0l1.03.09h0l1.03.09h0l1.03.09h0l1.03.09h0l1.03.09h0l1.03.09h0l1.03.09h0l1.03.09h0l1.03.09h0l1.03.09h0l1.03.09h0l1.03.08h0l1.03.08h0l1.03.08h0l1.03.08h0l1.03.08h0l1.03.08h0l1.03.08h0l1.03.08h0l1.03.08h0l1.03.08h0l1.03.08h0l1.03.08h0l1.03.08h0l1.03.08h0l1.03.08h0l1.03.08h0l1.03.08h0l1.03.07h0l1.03.07h0l1.03.07h0l1.03.07h0l1.03.07h0l1.03.07h0l1.03.07h0l1.03.07h0l1.03.07h0l1.03.07h0l1.03.07h0l1.03.07h0l1.03.07h0l1.03.07h0l1.03.07h0l1.03.07h0l1.03.07h0l1.03.07h0l1.03.07h0l1.03.07h0l1.03.06h0l1.03.06h0l1.03.06h0l1.03.06h0l1.03.06h0l1.03.06h0l1.03.06h0l1.03.06h0l1.03.06h0l1.03.06h0l1.03.06h0l1.03.06h0l1.03.06h0l1.03.06h0l1.03.06h0l1.03.06h0l1.03.06h0l1.03.06h0l1.03.06h0l1.03.06h0l1.03.06h0l1.03.06h0l1.03.06h0l1.03.06h0l1.03.05h0l1.03.05h0l1.03.05h0l1.03.05h0l1.03.05h0l1.03.05h0l1.03.05h0l1.03.05h0l1.03.05h0l1.03.05h0l1.03.05h0l1.03.05h0l1.03.05h0l1.03.05h0l1.03.05h0l1.03.05h0l1.03.05h0l1.03.05h0l1.03.05h0l1.03.05h0l1.03.05h0l1.03.05h0l1.03.05h0l1.03.05h0l1.03.05h0l1.03.05h0l1.03.05h0l1.03.05h0l1.03.05h0l1.03.05h0l1.03.05h0l1.03.05h0l1.03.04h0l1.03.04h0l1.03.04h0l1.03.04h0l1.03.04h0l1.03.04h0l1.03.04h0l1.03.04h0l1.03.04h0l1.03.04h0l1.03.04h0l1.03.04h0l1.03.04h0l1.03.04h0l1.03.04h0l1.03.04h0l1.03.04h0l1.03.04h0l1.03.04h0l1.03.04h0l1.03.04h0l1.03.04h0l1.03.04h0l1.03.04h0l1.03.04h0l1.03.04h0l1.03.04h0l1.03.04h0l1.03.04h0l1.03.04h0l1.03.04h0l1.03.04h0l1.03.04h0l1.03.04h0l1.03.04h0l1.03.04h0l1.03.04h0l1.03.04h0l1.03.04h0l1.03.04h0l1.03.04h0l1.03.04h0l1.03.03h0l1.03.03h0l1.03.03h0l1.03.03h0l1.03.03h0l1.03.03h0l1.03.03h0l1.03.03h0l1.03.03h0l1.03.03h0l1.03.03h0l1.03.03h0l1.03.03h0l1.03.03h0l1.03.03h0l1.03.03h0l1.03.03h0l1.03.03h0l1.03.03h0l1.03.03h0l1.03.03h0l1.03.03h0l1.03.03h0l1.03.03h0l1.03.03h0l1.03.03h0l1.03.03h0l1.03.03h0l1.03.03h0l1.03.03h0l1.03.03h0l1.03.03h0l1.03.03h0l1.03.03h0l1.03.03h0l1.03.03h0l1.03.03h0l1.03.03h0l1.03.03h0l1.03.03h0l1.03.03h0l1.03.03h0l1.03.03h0l1.03.03h0l1.03.03h0l1.03.03h0l1.03.03h0l1.03.03h0l1.03.03h0l1.03.03h0l1.03.03h0l1.03.03h0l1.03.03h0l1.03.03h0l1.03.03h0l1.03.03h0l1.03.03h0l1.03.03h0l1.03.03h0l1.03.03h0l1.03.03h0l1.03.03h0l1.03.03h0l1.03.03h0l1.03.02h0l1.03.02h0l1.03.02h0l1.03.02h0l1.03.02h0l1.03.02h0l1.03.02h0l1.03.02h0l1.03.02h0l1.03.02h0l1.03.02h0l1.03.02h0l1.03.02h0l1.03.02h0l1.03.02h0l1.03.02h0l1.03.02h0l1.03.02h0l1.03.02h0l1.03.02h0l1.03.02h0l1.03.02h0l1.03.02h0l1.03.02h0l1.03.02h0l1.03.02h0l1.03.02h0l1.03.02h0l1.03.02h0l1.03.02h0l1.03.02h0l1.03.02h0l1.03.02h0l1.03.02h0l1.03.02h0l1.03.02h0l1.03.02"/>
        </g>
      </g>
    </g>
  </g>
  <g id="uuid-06920f04-adcc-4214-b614-c1d4ce5c9058" data-name="Marco">
    <path class="uuid-8a671ed6-195c-4b25-a4b8-596abe67278f" d="m-2-2V1022h1249V-2H-2Zm1232,987c0,11.05-8.95,20-20,20H35c-11.05,0-20-8.95-20-20V35c0-11.05,8.95-20,20-20h1175c11.05,0,20,8.95,20,20v950Z"/>
  </g>
</svg>