<?xml version="1.0" encoding="UTF-8"?>
<svg xmlns="http://www.w3.org/2000/svg" xmlns:xlink="http://www.w3.org/1999/xlink" viewBox="0 0 1020 806">
  <defs>
    <style>
      .uuid-afff7149-2f56-4860-9f22-cbde11f02cac {
        stroke: #404040;
        stroke-miterlimit: 10;
      }

      .uuid-afff7149-2f56-4860-9f22-cbde11f02cac, .uuid-f30868cd-ac03-4879-a654-1fbef86f78a1, .uuid-6305b38c-2a6f-41a1-b9f8-74693fa12d8e, .uuid-eb23f12c-25c2-402a-b6f1-bd3581661694, .uuid-68cccc1f-aa6a-42d9-9d02-4ba8f5e11255, .uuid-b4e8818e-ab20-4c38-a767-cf22437d17dd, .uuid-3b2a1a50-e8ed-4864-8863-323a9c16f2a3, .uuid-03b4c935-f908-4c34-8e7b-c8b17a5e88c6, .uuid-58dbe87a-2a26-4a8c-b1b6-41e2ebcee685, .uuid-e4ae458d-25e4-4e16-8684-2ee5cbc9466c, .uuid-1489926e-e9ee-4b99-95b1-c0a8657323a3, .uuid-b118d74a-68f8-451e-93a7-d4f92b18079c {
        fill: none;
      }

      .uuid-f30868cd-ac03-4879-a654-1fbef86f78a1 {
        clip-path: url(#uuid-7811d9d1-ee23-4976-a7e1-c094259e61dd);
      }

      .uuid-6305b38c-2a6f-41a1-b9f8-74693fa12d8e {
        clip-path: url(#uuid-397eff9e-5a43-4f21-9caf-2ecd30e83ca3);
      }

      .uuid-fca6271e-114f-4099-901e-1db319affa9a {
        fill: #fff;
      }

      .uuid-eb23f12c-25c2-402a-b6f1-bd3581661694 {
        clip-path: url(#uuid-65c12f65-8601-442a-a638-c97e090baba1);
      }

      .uuid-68cccc1f-aa6a-42d9-9d02-4ba8f5e11255 {
        clip-path: url(#uuid-189de1ab-5914-46db-88f2-89f4ca880f2f);
      }

      .uuid-b4e8818e-ab20-4c38-a767-cf22437d17dd {
        clip-path: url(#uuid-6a4bf747-add5-490e-8e44-e5889aec9fa2);
      }

      .uuid-93dc0a80-2380-4819-adbe-2b988cfcd167 {
        fill: #00699b;
      }

      .uuid-3b2a1a50-e8ed-4864-8863-323a9c16f2a3 {
        stroke: rgba(121, 184, 59, .7);
      }

      .uuid-3b2a1a50-e8ed-4864-8863-323a9c16f2a3, .uuid-1489926e-e9ee-4b99-95b1-c0a8657323a3 {
        stroke-linecap: round;
        stroke-linejoin: round;
        stroke-width: 5px;
      }

      .uuid-03b4c935-f908-4c34-8e7b-c8b17a5e88c6 {
        clip-path: url(#uuid-cb51c2e6-c16d-445c-800e-19ac160569ca);
      }

      .uuid-58dbe87a-2a26-4a8c-b1b6-41e2ebcee685 {
        stroke: #fff;
        stroke-linejoin: bevel;
        stroke-width: 3px;
      }

      .uuid-58dbe87a-2a26-4a8c-b1b6-41e2ebcee685, .uuid-6cf98105-8644-4445-9a20-24ebddaa40a8 {
        font-family: HelveticaNeue-UltraLight, 'Helvetica Neue UltraLight';
        font-size: 15.62px;
        font-weight: 100;
        isolation: isolate;
      }

      .uuid-6cf98105-8644-4445-9a20-24ebddaa40a8 {
        fill: #404040;
      }

      .uuid-1489926e-e9ee-4b99-95b1-c0a8657323a3 {
        stroke: rgba(153, 102, 204, .7);
      }

      .uuid-b118d74a-68f8-451e-93a7-d4f92b18079c {
        clip-path: url(#uuid-b7d54d0d-ee7e-47ef-af9d-209b5b6c90e9);
      }
    </style>
    <clipPath id="uuid-7811d9d1-ee23-4976-a7e1-c094259e61dd">
      <rect class="uuid-e4ae458d-25e4-4e16-8684-2ee5cbc9466c" y="-1333.57" width="1020" height="806"/>
    </clipPath>
    <clipPath id="uuid-cb51c2e6-c16d-445c-800e-19ac160569ca">
      <rect class="uuid-e4ae458d-25e4-4e16-8684-2ee5cbc9466c" x="1609.04" y="-1333.57" width="1020" height="806"/>
    </clipPath>
    <clipPath id="uuid-6a4bf747-add5-490e-8e44-e5889aec9fa2">
      <rect class="uuid-e4ae458d-25e4-4e16-8684-2ee5cbc9466c" x="553.74" y="-2225.62" width="3262.61" height="2578.1"/>
    </clipPath>
    <clipPath id="uuid-b7d54d0d-ee7e-47ef-af9d-209b5b6c90e9">
      <rect class="uuid-e4ae458d-25e4-4e16-8684-2ee5cbc9466c" x="-1540.17" width="1020" height="806"/>
    </clipPath>
    <clipPath id="uuid-189de1ab-5914-46db-88f2-89f4ca880f2f">
      <rect class="uuid-e4ae458d-25e4-4e16-8684-2ee5cbc9466c" x="-2053.78" y="-197.39" width="1519.61" height="1200.79"/>
    </clipPath>
    <clipPath id="uuid-65c12f65-8601-442a-a638-c97e090baba1">
      <rect class="uuid-e4ae458d-25e4-4e16-8684-2ee5cbc9466c" width="1020" height="806"/>
    </clipPath>
    <clipPath id="uuid-397eff9e-5a43-4f21-9caf-2ecd30e83ca3">
      <rect class="uuid-e4ae458d-25e4-4e16-8684-2ee5cbc9466c" x="-154" y="-147.52" width="1328" height="975.17"/>
    </clipPath>
  </defs>
  <g id="uuid-8ab46374-b617-407d-b07b-a172194b2aca" data-name="02">
    <g class="uuid-f30868cd-ac03-4879-a654-1fbef86f78a1">
      <rect class="uuid-fca6271e-114f-4099-901e-1db319affa9a" x="-667.86" y="-1839.99" width="2355.73" height="1844.67"/>
    </g>
  </g>
  <g id="uuid-838d4302-7657-495a-bb2a-2f6ee8eec281" data-name="03">
    <g class="uuid-03b4c935-f908-4c34-8e7b-c8b17a5e88c6">
      <g class="uuid-b4e8818e-ab20-4c38-a767-cf22437d17dd">
        <rect class="uuid-fca6271e-114f-4099-901e-1db319affa9a" x="553.74" y="-2225.62" width="3262.61" height="2578.1"/>
      </g>
    </g>
  </g>
  <g id="uuid-6524e61d-3dff-4d9a-9a27-f973099d75fd" data-name="04">
    <g class="uuid-b118d74a-68f8-451e-93a7-d4f92b18079c">
      <g class="uuid-68cccc1f-aa6a-42d9-9d02-4ba8f5e11255">
        <path class="uuid-1489926e-e9ee-4b99-95b1-c0a8657323a3" d="m60.65-255.09c-1837.77,459.44-1837.77,918.89,0,1378.33"/>
      </g>
    </g>
  </g>
  <g id="uuid-6e818569-f635-4e97-bc6d-7fe7beb0d9a0" data-name="05">
    <g class="uuid-eb23f12c-25c2-402a-b6f1-bd3581661694">
      <g class="uuid-6305b38c-2a6f-41a1-b9f8-74693fa12d8e">
        <g>
          <rect class="uuid-fca6271e-114f-4099-901e-1db319affa9a" x="-154" y="-147.52" width="1328" height="975.17"/>
          <path class="uuid-afff7149-2f56-4860-9f22-cbde11f02cac" d="m505.44-144.26v972.56"/>
          <path class="uuid-afff7149-2f56-4860-9f22-cbde11f02cac" d="m-153.35,403.86h1325.4"/>
          <text class="uuid-6cf98105-8644-4445-9a20-24ebddaa40a8" transform="translate(46.5 424.04)"><tspan x="0" y="0">–6</tspan></text>
          <text class="uuid-58dbe87a-2a26-4a8c-b1b6-41e2ebcee685" transform="translate(46.5 424.04)"><tspan x="0" y="0">–6</tspan></text>
          <text class="uuid-6cf98105-8644-4445-9a20-24ebddaa40a8" transform="translate(46.5 424.04)"><tspan x="0" y="0">–6</tspan></text>
          <path class="uuid-afff7149-2f56-4860-9f22-cbde11f02cac" d="m53.66,403.86v3.91"/>
          <text class="uuid-6cf98105-8644-4445-9a20-24ebddaa40a8" transform="translate(120.71 424.04)"><tspan x="0" y="0">–5</tspan></text>
          <text class="uuid-58dbe87a-2a26-4a8c-b1b6-41e2ebcee685" transform="translate(120.71 424.04)"><tspan x="0" y="0">–5</tspan></text>
          <text class="uuid-6cf98105-8644-4445-9a20-24ebddaa40a8" transform="translate(120.71 424.04)"><tspan x="0" y="0">–5</tspan></text>
          <path class="uuid-afff7149-2f56-4860-9f22-cbde11f02cac" d="m127.87,403.86v3.91"/>
          <text class="uuid-6cf98105-8644-4445-9a20-24ebddaa40a8" transform="translate(196.23 424.04)"><tspan x="0" y="0">–4</tspan></text>
          <text class="uuid-58dbe87a-2a26-4a8c-b1b6-41e2ebcee685" transform="translate(196.23 424.04)"><tspan x="0" y="0">–4</tspan></text>
          <text class="uuid-6cf98105-8644-4445-9a20-24ebddaa40a8" transform="translate(196.23 424.04)"><tspan x="0" y="0">–4</tspan></text>
          <path class="uuid-afff7149-2f56-4860-9f22-cbde11f02cac" d="m203.39,403.86v3.91"/>
          <text class="uuid-6cf98105-8644-4445-9a20-24ebddaa40a8" transform="translate(271.74 424.04)"><tspan x="0" y="0">–3</tspan></text>
          <text class="uuid-58dbe87a-2a26-4a8c-b1b6-41e2ebcee685" transform="translate(271.74 424.04)"><tspan x="0" y="0">–3</tspan></text>
          <text class="uuid-6cf98105-8644-4445-9a20-24ebddaa40a8" transform="translate(271.74 424.04)"><tspan x="0" y="0">–3</tspan></text>
          <path class="uuid-afff7149-2f56-4860-9f22-cbde11f02cac" d="m278.9,403.86v3.91"/>
          <text class="uuid-6cf98105-8644-4445-9a20-24ebddaa40a8" transform="translate(347.25 424.04)"><tspan x="0" y="0">–2</tspan></text>
          <text class="uuid-58dbe87a-2a26-4a8c-b1b6-41e2ebcee685" transform="translate(347.25 424.04)"><tspan x="0" y="0">–2</tspan></text>
          <text class="uuid-6cf98105-8644-4445-9a20-24ebddaa40a8" transform="translate(347.25 424.04)"><tspan x="0" y="0">–2</tspan></text>
          <path class="uuid-afff7149-2f56-4860-9f22-cbde11f02cac" d="m354.42,403.86v3.91"/>
          <text class="uuid-6cf98105-8644-4445-9a20-24ebddaa40a8" transform="translate(422.77 424.04)"><tspan x="0" y="0">–1</tspan></text>
          <text class="uuid-58dbe87a-2a26-4a8c-b1b6-41e2ebcee685" transform="translate(422.77 424.04)"><tspan x="0" y="0">–1</tspan></text>
          <text class="uuid-6cf98105-8644-4445-9a20-24ebddaa40a8" transform="translate(422.77 424.04)"><tspan x="0" y="0">–1</tspan></text>
          <path class="uuid-afff7149-2f56-4860-9f22-cbde11f02cac" d="m429.93,403.86v3.91"/>
          <path class="uuid-afff7149-2f56-4860-9f22-cbde11f02cac" d="m505.44,403.86v3.91"/>
          <text class="uuid-6cf98105-8644-4445-9a20-24ebddaa40a8" transform="translate(576.4 424.04)"><tspan x="0" y="0">1</tspan></text>
          <text class="uuid-58dbe87a-2a26-4a8c-b1b6-41e2ebcee685" transform="translate(576.4 424.04)"><tspan x="0" y="0">1</tspan></text>
          <text class="uuid-6cf98105-8644-4445-9a20-24ebddaa40a8" transform="translate(576.4 424.04)"><tspan x="0" y="0">1</tspan></text>
          <path class="uuid-afff7149-2f56-4860-9f22-cbde11f02cac" d="m579.65,403.86v3.91"/>
          <text class="uuid-6cf98105-8644-4445-9a20-24ebddaa40a8" transform="translate(651.91 424.04)"><tspan x="0" y="0">2</tspan></text>
          <text class="uuid-58dbe87a-2a26-4a8c-b1b6-41e2ebcee685" transform="translate(651.91 424.04)"><tspan x="0" y="0">2</tspan></text>
          <text class="uuid-6cf98105-8644-4445-9a20-24ebddaa40a8" transform="translate(651.91 424.04)"><tspan x="0" y="0">2</tspan></text>
          <path class="uuid-afff7149-2f56-4860-9f22-cbde11f02cac" d="m655.17,403.86v3.91"/>
          <text class="uuid-6cf98105-8644-4445-9a20-24ebddaa40a8" transform="translate(727.43 424.04)"><tspan x="0" y="0">3</tspan></text>
          <text class="uuid-58dbe87a-2a26-4a8c-b1b6-41e2ebcee685" transform="translate(727.43 424.04)"><tspan x="0" y="0">3</tspan></text>
          <text class="uuid-6cf98105-8644-4445-9a20-24ebddaa40a8" transform="translate(727.43 424.04)"><tspan x="0" y="0">3</tspan></text>
          <path class="uuid-afff7149-2f56-4860-9f22-cbde11f02cac" d="m730.68,403.86v3.91"/>
          <text class="uuid-6cf98105-8644-4445-9a20-24ebddaa40a8" transform="translate(802.94 424.04)"><tspan x="0" y="0">4</tspan></text>
          <text class="uuid-58dbe87a-2a26-4a8c-b1b6-41e2ebcee685" transform="translate(802.94 424.04)"><tspan x="0" y="0">4</tspan></text>
          <text class="uuid-6cf98105-8644-4445-9a20-24ebddaa40a8" transform="translate(802.94 424.04)"><tspan x="0" y="0">4</tspan></text>
          <path class="uuid-afff7149-2f56-4860-9f22-cbde11f02cac" d="m806.2,403.86v3.91"/>
          <text class="uuid-6cf98105-8644-4445-9a20-24ebddaa40a8" transform="translate(878.46 424.04)"><tspan x="0" y="0">5</tspan></text>
          <text class="uuid-58dbe87a-2a26-4a8c-b1b6-41e2ebcee685" transform="translate(878.46 424.04)"><tspan x="0" y="0">5</tspan></text>
          <text class="uuid-6cf98105-8644-4445-9a20-24ebddaa40a8" transform="translate(878.46 424.04)"><tspan x="0" y="0">5</tspan></text>
          <path class="uuid-afff7149-2f56-4860-9f22-cbde11f02cac" d="m881.71,403.86v3.91"/>
          <text class="uuid-6cf98105-8644-4445-9a20-24ebddaa40a8" transform="translate(953.97 424.04)"><tspan x="0" y="0">6</tspan></text>
          <text class="uuid-58dbe87a-2a26-4a8c-b1b6-41e2ebcee685" transform="translate(953.97 424.04)"><tspan x="0" y="0">6</tspan></text>
          <text class="uuid-6cf98105-8644-4445-9a20-24ebddaa40a8" transform="translate(953.97 424.04)"><tspan x="0" y="0">6</tspan></text>
          <path class="uuid-afff7149-2f56-4860-9f22-cbde11f02cac" d="m957.22,403.86v3.91"/>
          <path class="uuid-afff7149-2f56-4860-9f22-cbde11f02cac" d="m501.54,780.13h3.91"/>
          <path class="uuid-afff7149-2f56-4860-9f22-cbde11f02cac" d="m501.54,705.92h3.91"/>
          <path class="uuid-afff7149-2f56-4860-9f22-cbde11f02cac" d="m501.54,630.4h3.91"/>
          <path class="uuid-afff7149-2f56-4860-9f22-cbde11f02cac" d="m501.54,554.89h3.91"/>
          <path class="uuid-afff7149-2f56-4860-9f22-cbde11f02cac" d="m501.54,479.38h3.91"/>
          <path class="uuid-afff7149-2f56-4860-9f22-cbde11f02cac" d="m501.54,329.65h3.91"/>
          <path class="uuid-afff7149-2f56-4860-9f22-cbde11f02cac" d="m501.54,254.14h3.91"/>
          <path class="uuid-afff7149-2f56-4860-9f22-cbde11f02cac" d="m501.54,178.62h3.91"/>
          <path class="uuid-afff7149-2f56-4860-9f22-cbde11f02cac" d="m501.54,103.11h3.91"/>
          <path class="uuid-afff7149-2f56-4860-9f22-cbde11f02cac" d="m501.54,27.59h3.91"/>
          <text class="uuid-6cf98105-8644-4445-9a20-24ebddaa40a8" transform="translate(478.75 785.99)"><tspan x="0" y="0">–5</tspan></text>
          <text class="uuid-58dbe87a-2a26-4a8c-b1b6-41e2ebcee685" transform="translate(478.75 785.99)"><tspan x="0" y="0">–5</tspan></text>
          <text class="uuid-6cf98105-8644-4445-9a20-24ebddaa40a8" transform="translate(478.75 785.99)"><tspan x="0" y="0">–5</tspan></text>
          <text class="uuid-6cf98105-8644-4445-9a20-24ebddaa40a8" transform="translate(478.75 711.78)"><tspan x="0" y="0">–4</tspan></text>
          <text class="uuid-58dbe87a-2a26-4a8c-b1b6-41e2ebcee685" transform="translate(478.75 711.78)"><tspan x="0" y="0">–4</tspan></text>
          <text class="uuid-6cf98105-8644-4445-9a20-24ebddaa40a8" transform="translate(478.75 711.78)"><tspan x="0" y="0">–4</tspan></text>
          <text class="uuid-6cf98105-8644-4445-9a20-24ebddaa40a8" transform="translate(478.75 636.26)"><tspan x="0" y="0">–3</tspan></text>
          <text class="uuid-58dbe87a-2a26-4a8c-b1b6-41e2ebcee685" transform="translate(478.75 636.26)"><tspan x="0" y="0">–3</tspan></text>
          <text class="uuid-6cf98105-8644-4445-9a20-24ebddaa40a8" transform="translate(478.75 636.26)"><tspan x="0" y="0">–3</tspan></text>
          <text class="uuid-6cf98105-8644-4445-9a20-24ebddaa40a8" transform="translate(478.75 560.75)"><tspan x="0" y="0">–2</tspan></text>
          <text class="uuid-58dbe87a-2a26-4a8c-b1b6-41e2ebcee685" transform="translate(478.75 560.75)"><tspan x="0" y="0">–2</tspan></text>
          <text class="uuid-6cf98105-8644-4445-9a20-24ebddaa40a8" transform="translate(478.75 560.75)"><tspan x="0" y="0">–2</tspan></text>
          <text class="uuid-6cf98105-8644-4445-9a20-24ebddaa40a8" transform="translate(478.75 485.23)"><tspan x="0" y="0">–1</tspan></text>
          <text class="uuid-58dbe87a-2a26-4a8c-b1b6-41e2ebcee685" transform="translate(478.75 485.23)"><tspan x="0" y="0">–1</tspan></text>
          <text class="uuid-6cf98105-8644-4445-9a20-24ebddaa40a8" transform="translate(478.75 485.23)"><tspan x="0" y="0">–1</tspan></text>
          <text class="uuid-6cf98105-8644-4445-9a20-24ebddaa40a8" transform="translate(486.56 335.51)"><tspan x="0" y="0">1</tspan></text>
          <text class="uuid-58dbe87a-2a26-4a8c-b1b6-41e2ebcee685" transform="translate(486.56 335.51)"><tspan x="0" y="0">1</tspan></text>
          <text class="uuid-6cf98105-8644-4445-9a20-24ebddaa40a8" transform="translate(486.56 335.51)"><tspan x="0" y="0">1</tspan></text>
          <text class="uuid-6cf98105-8644-4445-9a20-24ebddaa40a8" transform="translate(486.56 260)"><tspan x="0" y="0">2</tspan></text>
          <text class="uuid-58dbe87a-2a26-4a8c-b1b6-41e2ebcee685" transform="translate(486.56 260)"><tspan x="0" y="0">2</tspan></text>
          <text class="uuid-6cf98105-8644-4445-9a20-24ebddaa40a8" transform="translate(486.56 260)"><tspan x="0" y="0">2</tspan></text>
          <text class="uuid-6cf98105-8644-4445-9a20-24ebddaa40a8" transform="translate(486.56 184.48)"><tspan x="0" y="0">3</tspan></text>
          <text class="uuid-58dbe87a-2a26-4a8c-b1b6-41e2ebcee685" transform="translate(486.56 184.48)"><tspan x="0" y="0">3</tspan></text>
          <text class="uuid-6cf98105-8644-4445-9a20-24ebddaa40a8" transform="translate(486.56 184.48)"><tspan x="0" y="0">3</tspan></text>
          <text class="uuid-6cf98105-8644-4445-9a20-24ebddaa40a8" transform="translate(486.56 108.97)"><tspan x="0" y="0">4</tspan></text>
          <text class="uuid-58dbe87a-2a26-4a8c-b1b6-41e2ebcee685" transform="translate(486.56 108.97)"><tspan x="0" y="0">4</tspan></text>
          <text class="uuid-6cf98105-8644-4445-9a20-24ebddaa40a8" transform="translate(486.56 108.97)"><tspan x="0" y="0">4</tspan></text>
          <text class="uuid-6cf98105-8644-4445-9a20-24ebddaa40a8" transform="translate(486.56 33.45)"><tspan x="0" y="0">5</tspan></text>
          <text class="uuid-58dbe87a-2a26-4a8c-b1b6-41e2ebcee685" transform="translate(486.56 33.45)"><tspan x="0" y="0">5</tspan></text>
          <text class="uuid-6cf98105-8644-4445-9a20-24ebddaa40a8" transform="translate(486.56 33.45)"><tspan x="0" y="0">5</tspan></text>
          <text class="uuid-6cf98105-8644-4445-9a20-24ebddaa40a8" transform="translate(486.56 424.04)"><tspan x="0" y="0">0</tspan></text>
          <text class="uuid-58dbe87a-2a26-4a8c-b1b6-41e2ebcee685" transform="translate(486.56 424.04)"><tspan x="0" y="0">0</tspan></text>
          <text class="uuid-6cf98105-8644-4445-9a20-24ebddaa40a8" transform="translate(486.56 424.04)"><tspan x="0" y="0">0</tspan></text>
          <path class="uuid-3b2a1a50-e8ed-4864-8863-323a9c16f2a3" d="m-534.97,1553.74l368.05-414.37L10.21,939.34l104.03-117.98,68.33-77.94,48.24-55.42,35.8-41.5,27.57-32.3,21.84-25.91,17.68-21.29,14.57-17.85,12.17-15.22,10.29-13.16,8.78-11.53,7.55-10.22,6.53-9.14,5.68-8.26,4.95-7.52,4.32-6.91,3.78-6.39,3.31-5.95,2.88-5.58,2.5-5.27,2.16-5,1.85-4.78,1.56-4.59,1.29-4.44,1.03-4.32.79-4.22.56-4.15.33-4.11.11-4.08-.11-4.08-.33-4.11-.56-4.15-.79-4.22-1.03-4.32-1.29-4.44-1.56-4.59-1.85-4.78-2.16-5-2.5-5.27-2.88-5.58-3.31-5.95-3.78-6.39-4.32-6.91-4.95-7.52-5.68-8.26-6.53-9.14-7.55-10.22-8.78-11.53-10.29-13.16-12.17-15.22-14.57-17.85-17.68-21.29-21.84-25.91-27.57-32.3-35.8-41.5-48.24-55.42L114.24-12.72,10.21-130.69l-177.13-200.03-368.05-414.37"/>
          <path class="uuid-3b2a1a50-e8ed-4864-8863-323a9c16f2a3" d="m1515.79,1553.74l-368.05-414.37-177.13-200.03-104.03-117.98-68.33-77.94-48.24-55.42-35.8-41.5-27.57-32.3-21.84-25.91-17.68-21.29-14.57-17.85-12.17-15.22-10.29-13.16-8.78-11.53-7.55-10.22-6.53-9.14-5.68-8.26-4.95-7.52-4.32-6.91-3.78-6.39-3.31-5.95-2.88-5.58-2.5-5.27-2.16-5-1.85-4.78-1.56-4.59-1.29-4.44-1.03-4.32-.79-4.22-.56-4.15-.33-4.11-.11-4.08.11-4.08.33-4.11.56-4.15.79-4.22,1.03-4.32,1.29-4.44,1.56-4.59,1.85-4.78,2.16-5,2.5-5.27,2.88-5.58,3.31-5.95,3.78-6.39,4.32-6.91,4.95-7.52,5.68-8.26,6.53-9.14,7.55-10.22,8.78-11.53,10.29-13.16,12.17-15.22,14.57-17.85,17.68-21.29,21.84-25.91,27.57-32.3,35.8-41.5,48.24-55.42,68.33-77.94,104.03-117.98,177.13-200.03,368.05-414.37"/>
        </g>
      </g>
    </g>
  </g>
  <g id="uuid-eca0de32-9154-4cbc-a806-9cfb1b5f68c3" data-name="Marco">
    <path class="uuid-93dc0a80-2380-4819-adbe-2b988cfcd167" d="m-3-2.72v811.43H1023V-2.72H-3Zm1009,774.43c0,11.05-8.95,20-20,20H34c-11.05,0-20-8.95-20-20V34.28c0-11.05,8.95-20,20-20h952c11.05,0,20,8.95,20,20v737.43Z"/>
  </g>
</svg>