<?xml version="1.0" encoding="UTF-8"?>
<svg xmlns="http://www.w3.org/2000/svg" width="1680" height="1020" xmlns:xlink="http://www.w3.org/1999/xlink" viewBox="0 0 1680 1020">
  <defs>
    <style>
      .uuid-aa4bba73-dc02-4c98-be57-0d553ec9d6fe {
        fill: #fff;
      }

      .uuid-f19cd484-8d80-4de3-b1ab-e7845a27f2c6 {
        stroke: #fff;
        stroke-linejoin: bevel;
        stroke-width: 3.44px;
      }

      .uuid-f19cd484-8d80-4de3-b1ab-e7845a27f2c6, .uuid-6e9fd9b9-8e71-4160-af1c-1f4d09bd623d, .uuid-c3f4b022-b5c6-46a9-afe8-3cd83fb146bf, .uuid-40b75c8b-5a0a-429e-86be-8f483aa6e53e, .uuid-bd865897-37df-4b51-9ff4-ca140da6bf84, .uuid-71becc1a-b015-4e2c-ad7d-7c3e58b704a7, .uuid-37507fb0-0d8e-483e-9487-92724d0ee986, .uuid-69d97429-1f84-4916-8d68-ef3ccc67e4c7, .uuid-0e6aeb74-6f3e-4562-9bcc-0928df65b88e {
        fill: none;
      }

      .uuid-6e9fd9b9-8e71-4160-af1c-1f4d09bd623d {
        stroke: rgba(255, 85, 0, .7);
        stroke-linecap: round;
        stroke-width: 4.59px;
      }

      .uuid-6e9fd9b9-8e71-4160-af1c-1f4d09bd623d, .uuid-40b75c8b-5a0a-429e-86be-8f483aa6e53e, .uuid-69d97429-1f84-4916-8d68-ef3ccc67e4c7 {
        stroke-linejoin: round;
      }

      .uuid-c3f4b022-b5c6-46a9-afe8-3cd83fb146bf {
        stroke: #606060;
        stroke-miterlimit: 10;
        stroke-width: 2.3px;
      }

      .uuid-40b75c8b-5a0a-429e-86be-8f483aa6e53e {
        stroke: rgba(192, 192, 192, .24);
      }

      .uuid-40b75c8b-5a0a-429e-86be-8f483aa6e53e, .uuid-69d97429-1f84-4916-8d68-ef3ccc67e4c7 {
        stroke-dasharray: 0 0 1.15 3.44;
        stroke-width: 1.15px;
      }

      .uuid-544f156f-f255-4016-bd36-88f810e9b23f {
        fill: #333;
      }

      .uuid-bd865897-37df-4b51-9ff4-ca140da6bf84 {
        clip-path: url(#uuid-fd0e68d0-a06c-4536-be59-f44547646a25);
      }

      .uuid-71becc1a-b015-4e2c-ad7d-7c3e58b704a7 {
        isolation: isolate;
      }

      .uuid-b23f09e2-8be2-4428-937f-2df4c6bb5312 {
        fill: #00699b;
      }

      .uuid-8eeb5a5d-7ad8-40ef-a143-381a7744ce63, .uuid-05fecc09-84e5-4313-9821-a5380fd1792a {
        fill: #606060;
      }

      .uuid-69d97429-1f84-4916-8d68-ef3ccc67e4c7 {
        stroke: silver;
      }

      .uuid-05fecc09-84e5-4313-9821-a5380fd1792a {
        fill-rule: evenodd;
      }

      .uuid-0e6aeb74-6f3e-4562-9bcc-0928df65b88e {
        clip-path: url(#uuid-4843d2e4-e183-4afc-9990-e82cbd86ce88);
      }
    </style>
    <clipPath id="uuid-4843d2e4-e183-4afc-9990-e82cbd86ce88">
      <rect class="uuid-37507fb0-0d8e-483e-9487-92724d0ee986" y="2.61" width="1680" height="1019.39"/>
    </clipPath>
    <clipPath id="uuid-fd0e68d0-a06c-4536-be59-f44547646a25">
      <rect class="uuid-37507fb0-0d8e-483e-9487-92724d0ee986" x="-3.45" y="-10.87" width="1686.9" height="1040.83"/>
    </clipPath>
  </defs>
  <g id="uuid-e7feb278-d181-415f-a245-4454309c847d" data-name="Grafica">
    <g class="uuid-0e6aeb74-6f3e-4562-9bcc-0928df65b88e">
      <g class="uuid-bd865897-37df-4b51-9ff4-ca140da6bf84">
        <g>
          <rect class="uuid-aa4bba73-dc02-4c98-be57-0d553ec9d6fe" x="-3.45" y="-10.87" width="1686.9" height="1040.83"/>
          <path class="uuid-69d97429-1f84-4916-8d68-ef3ccc67e4c7" d="m8.6-10.3v1040.83M8.6-10.3v1040.83M286.31-10.3v1040.83M564.01-10.3v1040.83M1119.43-10.3v1040.83M1395.99-10.3v1040.83M1673.69-10.3v1040.83"/>
          <path class="uuid-40b75c8b-5a0a-429e-86be-8f483aa6e53e" d="m64.83-10.3v1040.83M119.91-10.3v1040.83M175-10.3v1040.83M231.23-10.3v1040.83M341.39-10.3v1040.83M397.62-10.3v1040.83M452.7-10.3v1040.83M507.78-10.3v1040.83M619.1-10.3v1040.83M675.33-10.3v1040.83M730.41-10.3v1040.83M785.49-10.3v1040.83M896.8-10.3v1040.83M951.89-10.3v1040.83M1008.12-10.3v1040.83M1063.2-10.3v1040.83M1174.51-10.3v1040.83M1229.59-10.3v1040.83M1285.82-10.3v1040.83M1340.9-10.3v1040.83M1452.22-10.3v1040.83M1507.3-10.3v1040.83M1563.53-10.3v1040.83M1618.61-10.3v1040.83"/>
          <path class="uuid-69d97429-1f84-4916-8d68-ef3ccc67e4c7" d="m-2.87,126.26h1686.9M-2.87,126.26h1686.9M-2.87,265.12h1686.9M-2.87,403.97h1686.9M-2.87,542.82h1686.9M-2.87,681.68h1686.9M-2.87,959.38h1686.9"/>
          <path class="uuid-40b75c8b-5a0a-429e-86be-8f483aa6e53e" d="m-2.87,16.1h1686.9M-2.87,43.64h1686.9M-2.87,71.18h1686.9M-2.87,98.72h1686.9M-2.87,153.8h1686.9M-2.87,182.49h1686.9M-2.87,210.03h1686.9M-2.87,237.57h1686.9M-2.87,292.66h1686.9M-2.87,321.35h1686.9M-2.87,348.89h1686.9M-2.87,376.43h1686.9M-2.87,431.51h1686.9M-2.87,459.05h1686.9M-2.87,487.74h1686.9M-2.87,515.28h1686.9M-2.87,570.36h1686.9M-2.87,597.9h1686.9M-2.87,626.59h1686.9M-2.87,654.13h1686.9M-2.87,709.22h1686.9M-2.87,736.76h1686.9M-2.87,765.45h1686.9M-2.87,792.99h1686.9M-2.87,848.07h1686.9M-2.87,875.61h1686.9M-2.87,903.15h1686.9M-2.87,931.84h1686.9M-2.87,986.92h1686.9M-2.87,1014.46h1686.9"/>
          <path class="uuid-c3f4b022-b5c6-46a9-afe8-3cd83fb146bf" d="m841.15-7.43v1037.38"/>
          <path class="uuid-05fecc09-84e5-4313-9821-a5380fd1792a" d="m841.42-8.57l-5.74,22.95h11.48"/>
          <path class="uuid-c3f4b022-b5c6-46a9-afe8-3cd83fb146bf" d="m-3.45,819.96h1683.45"/>
          <path class="uuid-05fecc09-84e5-4313-9821-a5380fd1792a" d="m1681.15,820.43l-22.95-5.74v11.48"/>
          <g class="uuid-71becc1a-b015-4e2c-ad7d-7c3e58b704a7">
            <path class="uuid-8eeb5a5d-7ad8-40ef-a143-381a7744ce63" d="m8.03,834.49v.28H1.14v-.28h6.89Z"/>
            <path class="uuid-8eeb5a5d-7ad8-40ef-a143-381a7744ce63" d="m9.05,830.51c.15-.38.36-.7.64-.96.28-.26.62-.45,1.02-.58.4-.13.84-.19,1.33-.19.38,0,.74.04,1.09.12.35.08.66.22.94.4.28.18.5.42.66.72.17.29.25.65.25,1.06,0,.66-.19,1.17-.57,1.54s-.86.58-1.44.63v.03c.28.03.54.09.81.2s.5.26.7.45c.21.2.37.44.5.74.12.29.19.64.19,1.05,0,.44-.09.83-.25,1.17-.17.34-.4.63-.69.86-.29.23-.62.41-1.01.53s-.79.18-1.22.18c-.53,0-1.01-.07-1.45-.22-.43-.15-.8-.36-1.1-.64-.3-.28-.53-.63-.68-1.04-.15-.41-.21-.89-.17-1.42h.28c-.04.5.01.93.15,1.31.14.38.34.7.62.96.28.26.62.45,1.02.59.4.13.85.2,1.34.2.38,0,.74-.05,1.09-.16.35-.11.66-.26.92-.47.27-.21.48-.47.64-.78s.24-.66.24-1.07-.07-.75-.2-1.03c-.13-.28-.32-.52-.56-.7s-.53-.32-.85-.41c-.33-.09-.68-.15-1.07-.17h-.67v-.28h.67c.3,0,.6-.03.9-.1.3-.07.57-.18.81-.34.24-.16.43-.37.58-.63.15-.26.22-.58.22-.97,0-.38-.09-.69-.25-.95s-.36-.47-.61-.63c-.25-.16-.53-.28-.84-.34-.31-.07-.63-.1-.96-.1-.45,0-.86.06-1.22.17-.36.12-.67.29-.93.52s-.45.53-.58.88c-.13.35-.2.76-.19,1.23h-.28c0-.51.06-.96.21-1.34Z"/>
          </g>
          <g class="uuid-71becc1a-b015-4e2c-ad7d-7c3e58b704a7">
            <path class="uuid-f19cd484-8d80-4de3-b1ab-e7845a27f2c6" d="m8.03,834.49v.28H1.14v-.28h6.89Z"/>
            <path class="uuid-f19cd484-8d80-4de3-b1ab-e7845a27f2c6" d="m9.05,830.51c.15-.38.36-.7.64-.96.28-.26.62-.45,1.02-.58.4-.13.84-.19,1.33-.19.38,0,.74.04,1.09.12.35.08.66.22.94.4.28.18.5.42.66.72.17.29.25.65.25,1.06,0,.66-.19,1.17-.57,1.54s-.86.58-1.44.63v.03c.28.03.54.09.81.2s.5.26.7.45c.21.2.37.44.5.74.12.29.19.64.19,1.05,0,.44-.09.83-.25,1.17-.17.34-.4.63-.69.86-.29.23-.62.41-1.01.53s-.79.18-1.22.18c-.53,0-1.01-.07-1.45-.22-.43-.15-.8-.36-1.1-.64-.3-.28-.53-.63-.68-1.04-.15-.41-.21-.89-.17-1.42h.28c-.04.5.01.93.15,1.31.14.38.34.7.62.96.28.26.62.45,1.02.59.4.13.85.2,1.34.2.38,0,.74-.05,1.09-.16.35-.11.66-.26.92-.47.27-.21.48-.47.64-.78s.24-.66.24-1.07-.07-.75-.2-1.03c-.13-.28-.32-.52-.56-.7s-.53-.32-.85-.41c-.33-.09-.68-.15-1.07-.17h-.67v-.28h.67c.3,0,.6-.03.9-.1.3-.07.57-.18.81-.34.24-.16.43-.37.58-.63.15-.26.22-.58.22-.97,0-.38-.09-.69-.25-.95s-.36-.47-.61-.63c-.25-.16-.53-.28-.84-.34-.31-.07-.63-.1-.96-.1-.45,0-.86.06-1.22.17-.36.12-.67.29-.93.52s-.45.53-.58.88c-.13.35-.2.76-.19,1.23h-.28c0-.51.06-.96.21-1.34Z"/>
          </g>
          <g class="uuid-71becc1a-b015-4e2c-ad7d-7c3e58b704a7">
            <path class="uuid-8eeb5a5d-7ad8-40ef-a143-381a7744ce63" d="m8.03,834.49v.28H1.14v-.28h6.89Z"/>
            <path class="uuid-8eeb5a5d-7ad8-40ef-a143-381a7744ce63" d="m9.05,830.51c.15-.38.36-.7.64-.96.28-.26.62-.45,1.02-.58.4-.13.84-.19,1.33-.19.38,0,.74.04,1.09.12.35.08.66.22.94.4.28.18.5.42.66.72.17.29.25.65.25,1.06,0,.66-.19,1.17-.57,1.54s-.86.58-1.44.63v.03c.28.03.54.09.81.2s.5.26.7.45c.21.2.37.44.5.74.12.29.19.64.19,1.05,0,.44-.09.83-.25,1.17-.17.34-.4.63-.69.86-.29.23-.62.41-1.01.53s-.79.18-1.22.18c-.53,0-1.01-.07-1.45-.22-.43-.15-.8-.36-1.1-.64-.3-.28-.53-.63-.68-1.04-.15-.41-.21-.89-.17-1.42h.28c-.04.5.01.93.15,1.31.14.38.34.7.62.96.28.26.62.45,1.02.59.4.13.85.2,1.34.2.38,0,.74-.05,1.09-.16.35-.11.66-.26.92-.47.27-.21.48-.47.64-.78s.24-.66.24-1.07-.07-.75-.2-1.03c-.13-.28-.32-.52-.56-.7s-.53-.32-.85-.41c-.33-.09-.68-.15-1.07-.17h-.67v-.28h.67c.3,0,.6-.03.9-.1.3-.07.57-.18.81-.34.24-.16.43-.37.58-.63.15-.26.22-.58.22-.97,0-.38-.09-.69-.25-.95s-.36-.47-.61-.63c-.25-.16-.53-.28-.84-.34-.31-.07-.63-.1-.96-.1-.45,0-.86.06-1.22.17-.36.12-.67.29-.93.52s-.45.53-.58.88c-.13.35-.2.76-.19,1.23h-.28c0-.51.06-.96.21-1.34Z"/>
          </g>
          <g class="uuid-71becc1a-b015-4e2c-ad7d-7c3e58b704a7">
            <path class="uuid-8eeb5a5d-7ad8-40ef-a143-381a7744ce63" d="m285.73,834.49v.28h-6.89v-.28h6.89Z"/>
            <path class="uuid-8eeb5a5d-7ad8-40ef-a143-381a7744ce63" d="m292.8,838.32h-6.31c0-.39.07-.75.25-1.07.17-.32.4-.62.69-.9.28-.28.6-.55.96-.8.35-.25.7-.5,1.05-.75.36-.25.71-.5,1.05-.76.34-.26.64-.53.91-.81s.48-.58.64-.9.24-.66.24-1.03-.07-.69-.2-.97c-.13-.28-.31-.51-.54-.7-.23-.19-.5-.33-.82-.43s-.66-.14-1.04-.14c-.49,0-.9.07-1.25.22-.35.15-.63.35-.85.61s-.38.57-.48.94c-.1.36-.15.76-.15,1.19h-.28c0-1.03.26-1.83.76-2.39.5-.56,1.25-.85,2.25-.85.4,0,.78.05,1.13.16.35.11.65.26.91.48.26.21.46.47.61.78.15.31.23.68.23,1.1,0,.51-.14.98-.41,1.4s-.62.82-1.04,1.18c-.42.37-.87.71-1.36,1.04-.49.33-.94.65-1.37.98-.43.33-.79.66-1.09,1.01-.3.34-.47.72-.51,1.12h6.03v.28Z"/>
          </g>
          <g class="uuid-71becc1a-b015-4e2c-ad7d-7c3e58b704a7">
            <path class="uuid-f19cd484-8d80-4de3-b1ab-e7845a27f2c6" d="m285.73,834.49v.28h-6.89v-.28h6.89Z"/>
            <path class="uuid-f19cd484-8d80-4de3-b1ab-e7845a27f2c6" d="m292.8,838.32h-6.31c0-.39.07-.75.25-1.07.17-.32.4-.62.69-.9.28-.28.6-.55.96-.8.35-.25.7-.5,1.05-.75.36-.25.71-.5,1.05-.76.34-.26.64-.53.91-.81s.48-.58.64-.9.24-.66.24-1.03-.07-.69-.2-.97c-.13-.28-.31-.51-.54-.7-.23-.19-.5-.33-.82-.43s-.66-.14-1.04-.14c-.49,0-.9.07-1.25.22-.35.15-.63.35-.85.61s-.38.57-.48.94c-.1.36-.15.76-.15,1.19h-.28c0-1.03.26-1.83.76-2.39.5-.56,1.25-.85,2.25-.85.4,0,.78.05,1.13.16.35.11.65.26.91.48.26.21.46.47.61.78.15.31.23.68.23,1.1,0,.51-.14.98-.41,1.4s-.62.82-1.04,1.18c-.42.37-.87.71-1.36,1.04-.49.33-.94.65-1.37.98-.43.33-.79.66-1.09,1.01-.3.34-.47.72-.51,1.12h6.03v.28Z"/>
          </g>
          <g class="uuid-71becc1a-b015-4e2c-ad7d-7c3e58b704a7">
            <path class="uuid-8eeb5a5d-7ad8-40ef-a143-381a7744ce63" d="m285.73,834.49v.28h-6.89v-.28h6.89Z"/>
            <path class="uuid-8eeb5a5d-7ad8-40ef-a143-381a7744ce63" d="m292.8,838.32h-6.31c0-.39.07-.75.25-1.07.17-.32.4-.62.69-.9.28-.28.6-.55.96-.8.35-.25.7-.5,1.05-.75.36-.25.71-.5,1.05-.76.34-.26.64-.53.91-.81s.48-.58.64-.9.24-.66.24-1.03-.07-.69-.2-.97c-.13-.28-.31-.51-.54-.7-.23-.19-.5-.33-.82-.43s-.66-.14-1.04-.14c-.49,0-.9.07-1.25.22-.35.15-.63.35-.85.61s-.38.57-.48.94c-.1.36-.15.76-.15,1.19h-.28c0-1.03.26-1.83.76-2.39.5-.56,1.25-.85,2.25-.85.4,0,.78.05,1.13.16.35.11.65.26.91.48.26.21.46.47.61.78.15.31.23.68.23,1.1,0,.51-.14.98-.41,1.4s-.62.82-1.04,1.18c-.42.37-.87.71-1.36,1.04-.49.33-.94.65-1.37.98-.43.33-.79.66-1.09,1.01-.3.34-.47.72-.51,1.12h6.03v.28Z"/>
          </g>
          <g class="uuid-71becc1a-b015-4e2c-ad7d-7c3e58b704a7">
            <path class="uuid-8eeb5a5d-7ad8-40ef-a143-381a7744ce63" d="m563.44,834.49v.28h-6.89v-.28h6.89Z"/>
            <path class="uuid-8eeb5a5d-7ad8-40ef-a143-381a7744ce63" d="m567.52,829.31c-.28.39-.65.74-1.11,1.03-.45.29-.92.5-1.38.63v-.28c.28-.09.54-.19.76-.3.22-.11.43-.23.62-.37.19-.14.38-.29.56-.47.18-.17.36-.37.56-.59h.3v9.36h-.28v-9.01h-.03Z"/>
          </g>
          <g class="uuid-71becc1a-b015-4e2c-ad7d-7c3e58b704a7">
            <path class="uuid-f19cd484-8d80-4de3-b1ab-e7845a27f2c6" d="m563.44,834.49v.28h-6.89v-.28h6.89Z"/>
            <path class="uuid-f19cd484-8d80-4de3-b1ab-e7845a27f2c6" d="m567.52,829.31c-.28.39-.65.74-1.11,1.03-.45.29-.92.5-1.38.63v-.28c.28-.09.54-.19.76-.3.22-.11.43-.23.62-.37.19-.14.38-.29.56-.47.18-.17.36-.37.56-.59h.3v9.36h-.28v-9.01h-.03Z"/>
          </g>
          <g class="uuid-71becc1a-b015-4e2c-ad7d-7c3e58b704a7">
            <path class="uuid-8eeb5a5d-7ad8-40ef-a143-381a7744ce63" d="m563.44,834.49v.28h-6.89v-.28h6.89Z"/>
            <path class="uuid-8eeb5a5d-7ad8-40ef-a143-381a7744ce63" d="m567.52,829.31c-.28.39-.65.74-1.11,1.03-.45.29-.92.5-1.38.63v-.28c.28-.09.54-.19.76-.3.22-.11.43-.23.62-.37.19-.14.38-.29.56-.47.18-.17.36-.37.56-.59h.3v9.36h-.28v-9.01h-.03Z"/>
          </g>
          <g class="uuid-71becc1a-b015-4e2c-ad7d-7c3e58b704a7">
            <path class="uuid-8eeb5a5d-7ad8-40ef-a143-381a7744ce63" d="m1119.49,829.31c-.28.39-.65.74-1.11,1.03-.45.29-.92.5-1.38.63v-.28c.28-.09.54-.19.76-.3.22-.11.43-.23.62-.37.19-.14.38-.29.56-.47.18-.17.36-.37.56-.59h.3v9.36h-.28v-9.01h-.03Z"/>
          </g>
          <g class="uuid-71becc1a-b015-4e2c-ad7d-7c3e58b704a7">
            <path class="uuid-f19cd484-8d80-4de3-b1ab-e7845a27f2c6" d="m1119.49,829.31c-.28.39-.65.74-1.11,1.03-.45.29-.92.5-1.38.63v-.28c.28-.09.54-.19.76-.3.22-.11.43-.23.62-.37.19-.14.38-.29.56-.47.18-.17.36-.37.56-.59h.3v9.36h-.28v-9.01h-.03Z"/>
          </g>
          <g class="uuid-71becc1a-b015-4e2c-ad7d-7c3e58b704a7">
            <path class="uuid-8eeb5a5d-7ad8-40ef-a143-381a7744ce63" d="m1119.49,829.31c-.28.39-.65.74-1.11,1.03-.45.29-.92.5-1.38.63v-.28c.28-.09.54-.19.76-.3.22-.11.43-.23.62-.37.19-.14.38-.29.56-.47.18-.17.36-.37.56-.59h.3v9.36h-.28v-9.01h-.03Z"/>
          </g>
          <g class="uuid-71becc1a-b015-4e2c-ad7d-7c3e58b704a7">
            <path class="uuid-8eeb5a5d-7ad8-40ef-a143-381a7744ce63" d="m1400.18,838.32h-6.31c0-.39.07-.75.25-1.07.17-.32.4-.62.69-.9.28-.28.6-.55.96-.8.35-.25.7-.5,1.05-.75.36-.25.71-.5,1.05-.76.34-.26.64-.53.91-.81s.48-.58.64-.9.24-.66.24-1.03-.07-.69-.2-.97c-.13-.28-.31-.51-.54-.7-.23-.19-.5-.33-.82-.43s-.66-.14-1.04-.14c-.49,0-.9.07-1.25.22-.35.15-.63.35-.85.61s-.38.57-.48.94c-.1.36-.15.76-.15,1.19h-.28c0-1.03.26-1.83.76-2.39.5-.56,1.25-.85,2.25-.85.4,0,.78.05,1.13.16.35.11.65.26.91.48.26.21.46.47.61.78.15.31.23.68.23,1.1,0,.51-.14.98-.41,1.4s-.62.82-1.04,1.18c-.42.37-.87.71-1.36,1.04-.49.33-.94.65-1.37.98-.43.33-.79.66-1.09,1.01-.3.34-.47.72-.51,1.12h6.03v.28Z"/>
          </g>
          <g class="uuid-71becc1a-b015-4e2c-ad7d-7c3e58b704a7">
            <path class="uuid-f19cd484-8d80-4de3-b1ab-e7845a27f2c6" d="m1400.18,838.32h-6.31c0-.39.07-.75.25-1.07.17-.32.4-.62.69-.9.28-.28.6-.55.96-.8.35-.25.7-.5,1.05-.75.36-.25.71-.5,1.05-.76.34-.26.64-.53.91-.81s.48-.58.64-.9.24-.66.24-1.03-.07-.69-.2-.97c-.13-.28-.31-.51-.54-.7-.23-.19-.5-.33-.82-.43s-.66-.14-1.04-.14c-.49,0-.9.07-1.25.22-.35.15-.63.35-.85.61s-.38.57-.48.94c-.1.36-.15.76-.15,1.19h-.28c0-1.03.26-1.83.76-2.39.5-.56,1.25-.85,2.25-.85.4,0,.78.05,1.13.16.35.11.65.26.91.48.26.21.46.47.61.78.15.31.23.68.23,1.1,0,.51-.14.98-.41,1.4s-.62.82-1.04,1.18c-.42.37-.87.71-1.36,1.04-.49.33-.94.65-1.37.98-.43.33-.79.66-1.09,1.01-.3.34-.47.72-.51,1.12h6.03v.28Z"/>
          </g>
          <g class="uuid-71becc1a-b015-4e2c-ad7d-7c3e58b704a7">
            <path class="uuid-8eeb5a5d-7ad8-40ef-a143-381a7744ce63" d="m1400.18,838.32h-6.31c0-.39.07-.75.25-1.07.17-.32.4-.62.69-.9.28-.28.6-.55.96-.8.35-.25.7-.5,1.05-.75.36-.25.71-.5,1.05-.76.34-.26.64-.53.91-.81s.48-.58.64-.9.24-.66.24-1.03-.07-.69-.2-.97c-.13-.28-.31-.51-.54-.7-.23-.19-.5-.33-.82-.43s-.66-.14-1.04-.14c-.49,0-.9.07-1.25.22-.35.15-.63.35-.85.61s-.38.57-.48.94c-.1.36-.15.76-.15,1.19h-.28c0-1.03.26-1.83.76-2.39.5-.56,1.25-.85,2.25-.85.4,0,.78.05,1.13.16.35.11.65.26.91.48.26.21.46.47.61.78.15.31.23.68.23,1.1,0,.51-.14.98-.41,1.4s-.62.82-1.04,1.18c-.42.37-.87.71-1.36,1.04-.49.33-.94.65-1.37.98-.43.33-.79.66-1.09,1.01-.3.34-.47.72-.51,1.12h6.03v.28Z"/>
          </g>
          <g class="uuid-71becc1a-b015-4e2c-ad7d-7c3e58b704a7">
            <path class="uuid-8eeb5a5d-7ad8-40ef-a143-381a7744ce63" d="m825.08,960.72v.28h-6.89v-.28h6.89Z"/>
            <path class="uuid-8eeb5a5d-7ad8-40ef-a143-381a7744ce63" d="m829.16,955.54c-.28.39-.65.74-1.11,1.03-.45.29-.92.5-1.38.63v-.28c.28-.09.54-.19.76-.3.22-.11.43-.23.62-.37.19-.14.38-.29.56-.47.18-.17.36-.37.56-.59h.3v9.36h-.28v-9.01h-.03Z"/>
          </g>
          <g class="uuid-71becc1a-b015-4e2c-ad7d-7c3e58b704a7">
            <path class="uuid-f19cd484-8d80-4de3-b1ab-e7845a27f2c6" d="m825.08,960.72v.28h-6.89v-.28h6.89Z"/>
            <path class="uuid-f19cd484-8d80-4de3-b1ab-e7845a27f2c6" d="m829.16,955.54c-.28.39-.65.74-1.11,1.03-.45.29-.92.5-1.38.63v-.28c.28-.09.54-.19.76-.3.22-.11.43-.23.62-.37.19-.14.38-.29.56-.47.18-.17.36-.37.56-.59h.3v9.36h-.28v-9.01h-.03Z"/>
          </g>
          <g class="uuid-71becc1a-b015-4e2c-ad7d-7c3e58b704a7">
            <path class="uuid-8eeb5a5d-7ad8-40ef-a143-381a7744ce63" d="m825.08,960.72v.28h-6.89v-.28h6.89Z"/>
            <path class="uuid-8eeb5a5d-7ad8-40ef-a143-381a7744ce63" d="m829.16,955.54c-.28.39-.65.74-1.11,1.03-.45.29-.92.5-1.38.63v-.28c.28-.09.54-.19.76-.3.22-.11.43-.23.62-.37.19-.14.38-.29.56-.47.18-.17.36-.37.56-.59h.3v9.36h-.28v-9.01h-.03Z"/>
          </g>
          <g class="uuid-71becc1a-b015-4e2c-ad7d-7c3e58b704a7">
            <path class="uuid-8eeb5a5d-7ad8-40ef-a143-381a7744ce63" d="m829.16,677.83c-.28.39-.65.74-1.11,1.03-.45.29-.92.5-1.38.63v-.28c.28-.09.54-.19.76-.3.22-.11.43-.23.62-.37.19-.14.38-.29.56-.47.18-.17.36-.37.56-.59h.3v9.36h-.28v-9.01h-.03Z"/>
          </g>
          <g class="uuid-71becc1a-b015-4e2c-ad7d-7c3e58b704a7">
            <path class="uuid-f19cd484-8d80-4de3-b1ab-e7845a27f2c6" d="m829.16,677.83c-.28.39-.65.74-1.11,1.03-.45.29-.92.5-1.38.63v-.28c.28-.09.54-.19.76-.3.22-.11.43-.23.62-.37.19-.14.38-.29.56-.47.18-.17.36-.37.56-.59h.3v9.36h-.28v-9.01h-.03Z"/>
          </g>
          <g class="uuid-71becc1a-b015-4e2c-ad7d-7c3e58b704a7">
            <path class="uuid-8eeb5a5d-7ad8-40ef-a143-381a7744ce63" d="m829.16,677.83c-.28.39-.65.74-1.11,1.03-.45.29-.92.5-1.38.63v-.28c.28-.09.54-.19.76-.3.22-.11.43-.23.62-.37.19-.14.38-.29.56-.47.18-.17.36-.37.56-.59h.3v9.36h-.28v-9.01h-.03Z"/>
          </g>
          <g class="uuid-71becc1a-b015-4e2c-ad7d-7c3e58b704a7">
            <path class="uuid-8eeb5a5d-7ad8-40ef-a143-381a7744ce63" d="m832.15,547.99h-6.31c0-.39.07-.75.25-1.07.17-.32.4-.62.69-.9.28-.28.6-.55.96-.8.35-.25.7-.5,1.05-.75.36-.25.71-.5,1.05-.76.34-.26.64-.53.91-.81s.48-.58.64-.9.24-.66.24-1.03-.07-.69-.2-.97c-.13-.28-.31-.51-.54-.7-.23-.19-.5-.33-.82-.43s-.66-.14-1.04-.14c-.49,0-.9.07-1.25.22-.35.15-.63.35-.85.61s-.38.57-.48.94c-.1.36-.15.76-.15,1.19h-.28c0-1.03.26-1.83.76-2.39.5-.56,1.25-.85,2.25-.85.4,0,.78.05,1.13.16.35.11.65.26.91.48.26.21.46.47.61.78.15.31.23.68.23,1.1,0,.51-.14.98-.41,1.4s-.62.82-1.04,1.18c-.42.37-.87.71-1.36,1.04-.49.33-.94.65-1.37.98-.43.33-.79.66-1.09,1.01-.3.34-.47.72-.51,1.12h6.03v.28Z"/>
          </g>
          <g class="uuid-71becc1a-b015-4e2c-ad7d-7c3e58b704a7">
            <path class="uuid-f19cd484-8d80-4de3-b1ab-e7845a27f2c6" d="m832.15,547.99h-6.31c0-.39.07-.75.25-1.07.17-.32.4-.62.69-.9.28-.28.6-.55.96-.8.35-.25.7-.5,1.05-.75.36-.25.71-.5,1.05-.76.34-.26.64-.53.91-.81s.48-.58.64-.9.24-.66.24-1.03-.07-.69-.2-.97c-.13-.28-.31-.51-.54-.7-.23-.19-.5-.33-.82-.43s-.66-.14-1.04-.14c-.49,0-.9.07-1.25.22-.35.15-.63.35-.85.61s-.38.57-.48.94c-.1.36-.15.76-.15,1.19h-.28c0-1.03.26-1.83.76-2.39.5-.56,1.25-.85,2.25-.85.4,0,.78.05,1.13.16.35.11.65.26.91.48.26.21.46.47.61.78.15.31.23.68.23,1.1,0,.51-.14.98-.41,1.4s-.62.82-1.04,1.18c-.42.37-.87.71-1.36,1.04-.49.33-.94.65-1.37.98-.43.33-.79.66-1.09,1.01-.3.34-.47.72-.51,1.12h6.03v.28Z"/>
          </g>
          <g class="uuid-71becc1a-b015-4e2c-ad7d-7c3e58b704a7">
            <path class="uuid-8eeb5a5d-7ad8-40ef-a143-381a7744ce63" d="m832.15,547.99h-6.31c0-.39.07-.75.25-1.07.17-.32.4-.62.69-.9.28-.28.6-.55.96-.8.35-.25.7-.5,1.05-.75.36-.25.71-.5,1.05-.76.34-.26.64-.53.91-.81s.48-.58.64-.9.24-.66.24-1.03-.07-.69-.2-.97c-.13-.28-.31-.51-.54-.7-.23-.19-.5-.33-.82-.43s-.66-.14-1.04-.14c-.49,0-.9.07-1.25.22-.35.15-.63.35-.85.61s-.38.57-.48.94c-.1.36-.15.76-.15,1.19h-.28c0-1.03.26-1.83.76-2.39.5-.56,1.25-.85,2.25-.85.4,0,.78.05,1.13.16.35.11.65.26.91.48.26.21.46.47.61.78.15.31.23.68.23,1.1,0,.51-.14.98-.41,1.4s-.62.82-1.04,1.18c-.42.37-.87.71-1.36,1.04-.49.33-.94.65-1.37.98-.43.33-.79.66-1.09,1.01-.3.34-.47.72-.51,1.12h6.03v.28Z"/>
          </g>
          <g class="uuid-71becc1a-b015-4e2c-ad7d-7c3e58b704a7">
            <path class="uuid-8eeb5a5d-7ad8-40ef-a143-381a7744ce63" d="m826.1,401.33c.15-.38.36-.7.64-.96.28-.26.62-.45,1.02-.58s.84-.19,1.33-.19c.38,0,.74.04,1.09.12.35.08.66.22.94.4.28.18.5.42.66.72.17.29.25.65.25,1.06,0,.66-.19,1.18-.57,1.54s-.86.58-1.44.63v.03c.28.03.54.09.81.2.26.11.5.26.7.45.21.2.37.44.5.74s.19.64.19,1.05c0,.44-.09.83-.25,1.17-.17.34-.4.63-.69.86-.29.23-.62.41-1.01.53-.38.12-.79.18-1.22.18-.53,0-1.01-.07-1.45-.22-.43-.15-.8-.36-1.1-.64-.3-.28-.53-.63-.68-1.04-.15-.41-.21-.89-.17-1.42h.28c-.04.5.01.93.15,1.31s.34.7.62.96.62.45,1.02.58c.4.13.85.2,1.34.2.38,0,.74-.05,1.09-.16.35-.11.66-.26.92-.48.27-.21.48-.47.64-.78s.24-.66.24-1.07-.07-.75-.2-1.03c-.13-.28-.32-.52-.56-.7s-.53-.32-.85-.41c-.33-.09-.68-.15-1.07-.17h-.67v-.28h.67c.3,0,.6-.03.9-.1s.57-.18.81-.34c.24-.16.43-.37.58-.63.15-.26.22-.58.22-.97,0-.38-.09-.69-.25-.95-.16-.26-.36-.47-.61-.63-.25-.16-.53-.28-.84-.34s-.63-.1-.96-.1c-.45,0-.86.06-1.22.17-.36.11-.67.29-.93.52-.26.23-.45.53-.58.87-.13.35-.2.76-.19,1.23h-.28c0-.51.06-.96.21-1.34Z"/>
          </g>
          <g class="uuid-71becc1a-b015-4e2c-ad7d-7c3e58b704a7">
            <path class="uuid-f19cd484-8d80-4de3-b1ab-e7845a27f2c6" d="m826.1,401.33c.15-.38.36-.7.64-.96.28-.26.62-.45,1.02-.58s.84-.19,1.33-.19c.38,0,.74.04,1.09.12.35.08.66.22.94.4.28.18.5.42.66.72.17.29.25.65.25,1.06,0,.66-.19,1.18-.57,1.54s-.86.58-1.44.63v.03c.28.03.54.09.81.2.26.11.5.26.7.45.21.2.37.44.5.74s.19.64.19,1.05c0,.44-.09.83-.25,1.17-.17.34-.4.63-.69.86-.29.23-.62.41-1.01.53-.38.12-.79.18-1.22.18-.53,0-1.01-.07-1.45-.22-.43-.15-.8-.36-1.1-.64-.3-.28-.53-.63-.68-1.04-.15-.41-.21-.89-.17-1.42h.28c-.04.5.01.93.15,1.31s.34.7.62.96.62.45,1.02.58c.4.13.85.2,1.34.2.38,0,.74-.05,1.09-.16.35-.11.66-.26.92-.48.27-.21.48-.47.64-.78s.24-.66.24-1.07-.07-.75-.2-1.03c-.13-.28-.32-.52-.56-.7s-.53-.32-.85-.41c-.33-.09-.68-.15-1.07-.17h-.67v-.28h.67c.3,0,.6-.03.9-.1s.57-.18.81-.34c.24-.16.43-.37.58-.63.15-.26.22-.58.22-.97,0-.38-.09-.69-.25-.95-.16-.26-.36-.47-.61-.63-.25-.16-.53-.28-.84-.34s-.63-.1-.96-.1c-.45,0-.86.06-1.22.17-.36.11-.67.29-.93.52-.26.23-.45.53-.58.87-.13.35-.2.76-.19,1.23h-.28c0-.51.06-.96.21-1.34Z"/>
          </g>
          <g class="uuid-71becc1a-b015-4e2c-ad7d-7c3e58b704a7">
            <path class="uuid-8eeb5a5d-7ad8-40ef-a143-381a7744ce63" d="m826.1,401.33c.15-.38.36-.7.64-.96.28-.26.62-.45,1.02-.58s.84-.19,1.33-.19c.38,0,.74.04,1.09.12.35.08.66.22.94.4.28.18.5.42.66.72.17.29.25.65.25,1.06,0,.66-.19,1.18-.57,1.54s-.86.58-1.44.63v.03c.28.03.54.09.81.2.26.11.5.26.7.45.21.2.37.44.5.74s.19.64.19,1.05c0,.44-.09.83-.25,1.17-.17.34-.4.63-.69.86-.29.23-.62.41-1.01.53-.38.12-.79.18-1.22.18-.53,0-1.01-.07-1.45-.22-.43-.15-.8-.36-1.1-.64-.3-.28-.53-.63-.68-1.04-.15-.41-.21-.89-.17-1.42h.28c-.04.5.01.93.15,1.31s.34.7.62.96.62.45,1.02.58c.4.13.85.2,1.34.2.38,0,.74-.05,1.09-.16.35-.11.66-.26.92-.48.27-.21.48-.47.64-.78s.24-.66.24-1.07-.07-.75-.2-1.03c-.13-.28-.32-.52-.56-.7s-.53-.32-.85-.41c-.33-.09-.68-.15-1.07-.17h-.67v-.28h.67c.3,0,.6-.03.9-.1s.57-.18.81-.34c.24-.16.43-.37.58-.63.15-.26.22-.58.22-.97,0-.38-.09-.69-.25-.95-.16-.26-.36-.47-.61-.63-.25-.16-.53-.28-.84-.34s-.63-.1-.96-.1c-.45,0-.86.06-1.22.17-.36.11-.67.29-.93.52-.26.23-.45.53-.58.87-.13.35-.2.76-.19,1.23h-.28c0-.51.06-.96.21-1.34Z"/>
          </g>
          <g class="uuid-71becc1a-b015-4e2c-ad7d-7c3e58b704a7">
            <path class="uuid-8eeb5a5d-7ad8-40ef-a143-381a7744ce63" d="m825.55,267.51l4.68-6.6h.34v6.65h1.69v.28h-1.69v2.44h-.28v-2.44h-4.75v-.33Zm4.72-6.21l-4.45,6.27h4.48v-6.27h-.03Z"/>
          </g>
          <g class="uuid-71becc1a-b015-4e2c-ad7d-7c3e58b704a7">
            <path class="uuid-f19cd484-8d80-4de3-b1ab-e7845a27f2c6" d="m825.55,267.51l4.68-6.6h.34v6.65h1.69v.28h-1.69v2.44h-.28v-2.44h-4.75v-.33Zm4.72-6.21l-4.45,6.27h4.48v-6.27h-.03Z"/>
          </g>
          <g class="uuid-71becc1a-b015-4e2c-ad7d-7c3e58b704a7">
            <path class="uuid-8eeb5a5d-7ad8-40ef-a143-381a7744ce63" d="m825.55,267.51l4.68-6.6h.34v6.65h1.69v.28h-1.69v2.44h-.28v-2.44h-4.75v-.33Zm4.72-6.21l-4.45,6.27h4.48v-6.27h-.03Z"/>
          </g>
          <g class="uuid-71becc1a-b015-4e2c-ad7d-7c3e58b704a7">
            <path class="uuid-8eeb5a5d-7ad8-40ef-a143-381a7744ce63" d="m826.25,126.34h.03c.27-.44.62-.76,1.07-.96.45-.2.94-.3,1.49-.3.49,0,.93.08,1.32.24.39.16.73.38,1.02.67.28.28.5.63.66,1.03s.23.83.23,1.3c0,.5-.08.95-.23,1.35-.16.4-.38.75-.66,1.03s-.62.5-1.02.65c-.4.15-.84.23-1.32.23s-.92-.07-1.33-.21c-.41-.14-.76-.35-1.05-.61-.29-.27-.51-.59-.67-.98-.16-.39-.23-.84-.21-1.34h.28c-.02.46.04.87.18,1.23s.34.66.6.91c.26.25.58.44.96.56.38.13.79.19,1.24.19s.87-.07,1.23-.21c.36-.14.67-.34.93-.61.26-.26.45-.58.59-.95.14-.37.21-.78.21-1.23s-.07-.83-.21-1.19c-.14-.36-.34-.67-.6-.94-.26-.26-.57-.47-.94-.61-.37-.15-.77-.22-1.21-.22-.55,0-1.06.12-1.53.36-.47.24-.83.6-1.09,1.07h-.34l1-4.72h4.81v.28h-4.59l-.85,4.01Z"/>
          </g>
          <g class="uuid-71becc1a-b015-4e2c-ad7d-7c3e58b704a7">
            <path class="uuid-f19cd484-8d80-4de3-b1ab-e7845a27f2c6" d="m826.25,126.34h.03c.27-.44.62-.76,1.07-.96.45-.2.94-.3,1.49-.3.49,0,.93.08,1.32.24.39.16.73.38,1.02.67.28.28.5.63.66,1.03s.23.83.23,1.3c0,.5-.08.95-.23,1.35-.16.4-.38.75-.66,1.03s-.62.5-1.02.65c-.4.15-.84.23-1.32.23s-.92-.07-1.33-.21c-.41-.14-.76-.35-1.05-.61-.29-.27-.51-.59-.67-.98-.16-.39-.23-.84-.21-1.34h.28c-.02.46.04.87.18,1.23s.34.66.6.91c.26.25.58.44.96.56.38.13.79.19,1.24.19s.87-.07,1.23-.21c.36-.14.67-.34.93-.61.26-.26.45-.58.59-.95.14-.37.21-.78.21-1.23s-.07-.83-.21-1.19c-.14-.36-.34-.67-.6-.94-.26-.26-.57-.47-.94-.61-.37-.15-.77-.22-1.21-.22-.55,0-1.06.12-1.53.36-.47.24-.83.6-1.09,1.07h-.34l1-4.72h4.81v.28h-4.59l-.85,4.01Z"/>
          </g>
          <g class="uuid-71becc1a-b015-4e2c-ad7d-7c3e58b704a7">
            <path class="uuid-8eeb5a5d-7ad8-40ef-a143-381a7744ce63" d="m826.25,126.34h.03c.27-.44.62-.76,1.07-.96.45-.2.94-.3,1.49-.3.49,0,.93.08,1.32.24.39.16.73.38,1.02.67.28.28.5.63.66,1.03s.23.83.23,1.3c0,.5-.08.95-.23,1.35-.16.4-.38.75-.66,1.03s-.62.5-1.02.65c-.4.15-.84.23-1.32.23s-.92-.07-1.33-.21c-.41-.14-.76-.35-1.05-.61-.29-.27-.51-.59-.67-.98-.16-.39-.23-.84-.21-1.34h.28c-.02.46.04.87.18,1.23s.34.66.6.91c.26.25.58.44.96.56.38.13.79.19,1.24.19s.87-.07,1.23-.21c.36-.14.67-.34.93-.61.26-.26.45-.58.59-.95.14-.37.21-.78.21-1.23s-.07-.83-.21-1.19c-.14-.36-.34-.67-.6-.94-.26-.26-.57-.47-.94-.61-.37-.15-.77-.22-1.21-.22-.55,0-1.06.12-1.53.36-.47.24-.83.6-1.09,1.07h-.34l1-4.72h4.81v.28h-4.59l-.85,4.01Z"/>
          </g>
          <g class="uuid-71becc1a-b015-4e2c-ad7d-7c3e58b704a7">
            <path class="uuid-8eeb5a5d-7ad8-40ef-a143-381a7744ce63" d="m832.28,835.38c-.12.58-.31,1.1-.59,1.56s-.64.83-1.09,1.11-1.01.42-1.69.42-1.23-.14-1.69-.42c-.45-.28-.82-.65-1.09-1.11s-.47-.98-.58-1.56c-.12-.58-.17-1.16-.17-1.75s.06-1.17.17-1.75c.11-.58.31-1.1.58-1.56.28-.46.64-.83,1.09-1.12.45-.28,1.02-.43,1.69-.43s1.24.14,1.69.43c.45.29.81.66,1.09,1.12.28.46.47.98.59,1.56.11.58.17,1.16.17,1.75s-.06,1.17-.17,1.75Zm-.25-3.35c-.1-.54-.28-1.03-.52-1.47-.25-.44-.58-.8-1-1.08-.42-.28-.95-.42-1.59-.42s-1.17.14-1.59.42c-.42.28-.75.64-1,1.08-.25.44-.42.93-.52,1.47-.1.54-.15,1.07-.15,1.6s.05,1.06.15,1.6c.1.54.28,1.03.52,1.47.25.44.58.8,1,1.08.42.28.95.42,1.59.42s1.17-.14,1.59-.42c.42-.28.75-.64,1-1.08.25-.44.42-.93.52-1.47.1-.54.15-1.07.15-1.6s-.05-1.06-.15-1.6Z"/>
          </g>
          <g class="uuid-71becc1a-b015-4e2c-ad7d-7c3e58b704a7">
            <path class="uuid-f19cd484-8d80-4de3-b1ab-e7845a27f2c6" d="m832.28,835.38c-.12.58-.31,1.1-.59,1.56s-.64.83-1.09,1.11-1.01.42-1.69.42-1.23-.14-1.69-.42c-.45-.28-.82-.65-1.09-1.11s-.47-.98-.58-1.56c-.12-.58-.17-1.16-.17-1.75s.06-1.17.17-1.75c.11-.58.31-1.1.58-1.56.28-.46.64-.83,1.09-1.12.45-.28,1.02-.43,1.69-.43s1.24.14,1.69.43c.45.29.81.66,1.09,1.12.28.46.47.98.59,1.56.11.58.17,1.16.17,1.75s-.06,1.17-.17,1.75Zm-.25-3.35c-.1-.54-.28-1.03-.52-1.47-.25-.44-.58-.8-1-1.08-.42-.28-.95-.42-1.59-.42s-1.17.14-1.59.42c-.42.28-.75.64-1,1.08-.25.44-.42.93-.52,1.47-.1.54-.15,1.07-.15,1.6s.05,1.06.15,1.6c.1.54.28,1.03.52,1.47.25.44.58.8,1,1.08.42.28.95.42,1.59.42s1.17-.14,1.59-.42c.42-.28.75-.64,1-1.08.25-.44.42-.93.52-1.47.1-.54.15-1.07.15-1.6s-.05-1.06-.15-1.6Z"/>
          </g>
          <g class="uuid-71becc1a-b015-4e2c-ad7d-7c3e58b704a7">
            <path class="uuid-8eeb5a5d-7ad8-40ef-a143-381a7744ce63" d="m832.28,835.38c-.12.58-.31,1.1-.59,1.56s-.64.83-1.09,1.11-1.01.42-1.69.42-1.23-.14-1.69-.42c-.45-.28-.82-.65-1.09-1.11s-.47-.98-.58-1.56c-.12-.58-.17-1.16-.17-1.75s.06-1.17.17-1.75c.11-.58.31-1.1.58-1.56.28-.46.64-.83,1.09-1.12.45-.28,1.02-.43,1.69-.43s1.24.14,1.69.43c.45.29.81.66,1.09,1.12.28.46.47.98.59,1.56.11.58.17,1.16.17,1.75s-.06,1.17-.17,1.75Zm-.25-3.35c-.1-.54-.28-1.03-.52-1.47-.25-.44-.58-.8-1-1.08-.42-.28-.95-.42-1.59-.42s-1.17.14-1.59.42c-.42.28-.75.64-1,1.08-.25.44-.42.93-.52,1.47-.1.54-.15,1.07-.15,1.6s.05,1.06.15,1.6c.1.54.28,1.03.52,1.47.25.44.58.8,1,1.08.42.28.95.42,1.59.42s1.17-.14,1.59-.42c.42-.28.75-.64,1-1.08.25-.44.42-.93.52-1.47.1-.54.15-1.07.15-1.6s-.05-1.06-.15-1.6Z"/>
          </g>
          <path class="uuid-6e9fd9b9-8e71-4160-af1c-1f4d09bd623d" d="m-2.3-465.45v3.49h0l1.15,3.49h0L0-455H0l1.15,3.48h0l1.15,3.47h0l1.15,3.47h0l1.15,3.46h0l1.15,3.46h0l1.15,3.45h0l1.15,3.45h0l1.15,3.44h0l1.15,3.44h0l1.15,3.43h0l1.15,3.43h0l1.15,3.42h0l1.15,3.42h0l1.15,3.41h0l1.15,3.41h0l1.15,3.41h0l1.15,3.4h0l1.15,3.4h0l1.15,3.39h0l1.15,3.39h0l1.15,3.38h0l1.15,3.38h0l1.15,3.37h0l1.15,3.37h0l1.15,3.36h0l1.15,3.36h0l1.15,3.35h0l1.15,3.35h0l1.15,3.34h0l1.15,3.34h0l1.15,3.33h0l1.15,3.33h0l1.15,3.32h0l1.15,3.32h0l1.15,3.32h0l1.15,3.31h0l1.15,3.31h0l1.15,3.3h0l1.15,3.3h0l1.15,3.29h0l1.15,3.29h0l1.15,3.28h0l1.15,3.28h0l1.15,3.27h0l1.15,3.27h0l1.15,3.26h0l1.15,3.26h0l1.15,3.25h0l1.15,3.25h0l1.15,3.24h0l1.15,3.24h0l1.15,3.23h0l1.15,3.23h0l1.15,3.23h0l1.15,3.22h0l1.15,3.22h0l1.15,3.21h0l1.15,3.21h0l1.15,3.2h0l1.15,3.2h0l1.15,3.19h0l1.15,3.19h0l1.15,3.18h0l1.15,3.18h0l1.15,3.17h0l1.15,3.17h0l1.15,3.16h0l1.15,3.16h0l1.15,3.15h0l1.15,3.15h0l1.15,3.14h0l1.15,3.14h0l1.15,3.13h0l1.15,3.13h0l1.15,3.13h0l1.15,3.12h0l1.15,3.12h0l1.15,3.11h0l1.15,3.11h0l1.15,3.1h0l1.15,3.1h0l1.15,3.09h0l1.15,3.09h0l1.15,3.08h0l1.15,3.08h0l1.15,3.07h0l1.15,3.07h0l1.15,3.06h0l1.15,3.06h0l1.15,3.05h0l1.15,3.05h0l1.15,3.04h0l1.15,3.04h0l1.15,3.04h0l1.15,3.03h0l1.15,3.03h0l1.15,3.02h0l1.15,3.02h0l1.15,3.01h0l1.15,3.01h0l1.15,3h0l1.15,3h0l1.15,2.99h0l1.15,2.99h0l1.15,2.98h0l1.15,2.98h0l1.15,2.97h0l1.15,2.97h0l1.15,2.96h0l1.15,2.96h0l1.15,2.95h0l1.15,2.95h0l1.15,2.95h0l1.15,2.94h0l1.15,2.94h0l1.15,2.93h0l1.15,2.93h0l1.15,2.92h0l1.15,2.92h0l1.15,2.91h0l1.15,2.91h0l1.15,2.9h0l1.15,2.9h0l1.15,2.89h0l1.15,2.89h0l1.15,2.88h0l1.15,2.88h0l1.15,2.87h0l1.15,2.87h0l1.15,2.86h0l1.15,2.86h0l1.15,2.85h0l1.15,2.85h0l1.15,2.85h0l1.15,2.84h0l1.15,2.84h0l1.15,2.83h0l1.15,2.83h0l1.15,2.82h0l1.15,2.82h0l1.15,2.81h0l1.15,2.81h0l1.15,2.8h0l1.15,2.8h0l1.15,2.79h0l1.15,2.79h0l1.15,2.78h0l1.15,2.78h0l1.15,2.77h0l1.15,2.77h0l1.15,2.76h0l1.15,2.76h0l1.15,2.76h0l1.15,2.75h0l1.15,2.75h0l1.15,2.74h0l1.15,2.74h0l1.15,2.73h0l1.15,2.73h0l1.15,2.72h0l1.15,2.72h0l1.15,2.71h0l1.15,2.71h0l1.15,2.7h0l1.15,2.7h0l1.15,2.69h0l1.15,2.69h0l1.15,2.68h0l1.15,2.68h0l1.15,2.67h0l1.15,2.67h0l1.15,2.67h0l1.15,2.66h0l1.15,2.66h0l1.15,2.65h0l1.15,2.65h0l1.15,2.64h0l1.15,2.64h0l1.15,2.63h0l1.15,2.63h0l1.15,2.62h0l1.15,2.62h0l1.15,2.61h0l1.15,2.61h0l1.15,2.6h0l1.15,2.6h0l1.15,2.59h0l1.15,2.59h0l1.15,2.58h0l1.15,2.58h0l1.15,2.58h0l1.15,2.57h0l1.15,2.57h0l1.15,2.56h0l1.15,2.56h0l1.15,2.55h0l1.15,2.55h0l1.15,2.54h0l1.15,2.54h0l1.15,2.53h0l1.15,2.53h0l1.15,2.52h0l1.15,2.52h0l1.15,2.51h0l1.15,2.51h0l1.15,2.5h0l1.15,2.5h0l1.15,2.49h0l1.15,2.49h0l1.15,2.48h0l1.15,2.48h0l1.15,2.48h0l1.15,2.47h0l1.15,2.47h0l1.15,2.46h0l1.15,2.46h0l1.15,2.45h0l1.15,2.45h0l1.15,2.44h0l1.15,2.44h0l1.15,2.43h0l1.15,2.43h0l1.15,2.42h0l1.15,2.42h0l1.15,2.41h0l1.15,2.41h0l1.15,2.4h0l1.15,2.4h0l1.15,2.39h0l1.15,2.39h0l1.15,2.39h0l1.15,2.38h0l1.15,2.38h0l1.15,2.37h0l1.15,2.37h0l1.15,2.36h0l1.15,2.36h0l1.15,2.35h0l1.15,2.35h0l1.15,2.34h0l1.15,2.34h0l1.15,2.33h0l1.15,2.33h0l1.15,2.32h0l1.15,2.32h0l1.15,2.31h0l1.15,2.31h0l1.15,2.3h0l1.15,2.3h0l1.15,2.3h0l1.15,2.29h0l1.15,2.29h0l1.15,2.28h0l1.15,2.28h0l1.15,2.27h0l1.15,2.27h0l1.15,2.26h0l1.15,2.26h0l1.15,2.25h0l1.15,2.25h0l1.15,2.24h0l1.15,2.24h0l1.15,2.23h0l1.15,2.23h0l1.15,2.22h0l1.15,2.22h0l1.15,2.21h0l1.15,2.21h0l1.15,2.2h0l1.15,2.2h0l1.15,2.2h0l1.15,2.19h0l1.15,2.19h0l1.15,2.18h0l1.15,2.18h0l1.15,2.17h0l1.15,2.17h0l1.15,2.16h0l1.15,2.16h0l1.15,2.15h0l1.15,2.15h0l1.15,2.14h0l1.15,2.14h0l1.15,2.13h0l1.15,2.13h0l1.15,2.12h0l1.15,2.12h0l1.15,2.11h0l1.15,2.11h0l1.15,2.11h0l1.15,2.1h0l1.15,2.1h0l1.15,2.09h0l1.15,2.09h0l1.15,2.08h0l1.15,2.08h0l1.15,2.07h0l1.15,2.07h0l1.15,2.06h0l1.15,2.06h0l1.15,2.05h0l1.15,2.05h0l1.15,2.04h0l1.15,2.04h0l1.15,2.03h0l1.15,2.03h0l1.15,2.02h0l1.15,2.02h0l1.15,2.02h0l1.15,2.01h0l1.15,2.01h0l1.15,2h0l1.15,2h0l1.15,1.99h0l1.15,1.99h0l1.15,1.98h0l1.15,1.98h0l1.15,1.97h0l1.15,1.97h0l1.15,1.96h0l1.15,1.96h0l1.15,1.95h0l1.15,1.95h0l1.15,1.94h0l1.15,1.94h0l1.15,1.93h0l1.15,1.93h0l1.15,1.93h0l1.15,1.92h0l1.15,1.92h0l1.15,1.91h0l1.15,1.91h0l1.15,1.9h0l1.15,1.9h0l1.15,1.89h0l1.15,1.89h0l1.15,1.88h0l1.15,1.88h0l1.15,1.87h0l1.15,1.87h0l1.15,1.86h0l1.15,1.86h0l1.15,1.85h0l1.15,1.85h0l1.15,1.84h0l1.15,1.84h0l1.15,1.83h0l1.15,1.83h0l1.15,1.83h0l1.15,1.82h0l1.15,1.82h0l1.15,1.81h0l1.15,1.81h0l1.15,1.8h0l1.15,1.8h0l1.15,1.79h0l1.15,1.79h0l1.15,1.78h0l1.15,1.78h0l1.15,1.77h0l1.15,1.77h0l1.15,1.76h0l1.15,1.76h0l1.15,1.75h0l1.15,1.75h0l1.15,1.74h0l1.15,1.74h0l1.15,1.74h0l1.15,1.73h0l1.15,1.73h0l1.15,1.72h0l1.15,1.72h0l1.15,1.71h0l1.15,1.71h0l1.15,1.7h0l1.15,1.7h0l1.15,1.69h0l1.15,1.69h0l1.15,1.68h0l1.15,1.68h0l1.15,1.67h0l1.15,1.67h0l1.15,1.66h0l1.15,1.66h0l1.15,1.65h0l1.15,1.65h0l1.15,1.65h0l1.15,1.64h0l1.15,1.64h0l1.15,1.63h0l1.15,1.63h0l1.15,1.62h0l1.15,1.62h0l1.15,1.61h0l1.15,1.61h0l1.15,1.6h0l1.15,1.6h0l1.15,1.59h0l1.15,1.59h0l1.15,1.58h0l1.15,1.58h0l1.15,1.57h0l1.15,1.57h0l1.15,1.56h0l1.15,1.56h0l1.15,1.55h0l1.15,1.55h0l1.15,1.55h0l1.15,1.54h0l1.15,1.54h0l1.15,1.53h0l1.15,1.53h0l1.15,1.52h0l1.15,1.52h0l1.15,1.51h0l1.15,1.51h0l1.15,1.5h0l1.15,1.5h0l1.15,1.49h0l1.15,1.49h0l1.15,1.48h0l1.15,1.48h0l1.15,1.47h0l1.15,1.47h0l1.15,1.46h0l1.15,1.46h0l1.15,1.46h0l1.15,1.45h0l1.15,1.45h0l1.15,1.44h0l1.15,1.44h0l1.15,1.43h0l1.15,1.43h0l1.15,1.42h0l1.15,1.42h0l1.15,1.41h0l1.15,1.41h0l1.15,1.4h0l1.15,1.4h0l1.15,1.39h0l1.15,1.39h0l1.15,1.38h0l1.15,1.38h0l1.15,1.37h0l1.15,1.37h0l1.15,1.37h0l1.15,1.36h0l1.15,1.36h0l1.15,1.35h0l1.15,1.35h0l1.15,1.34h0l1.15,1.34h0l1.15,1.33h0l1.15,1.33h0l1.15,1.32h0l1.15,1.32h0l1.15,1.31h0l1.15,1.31h0l1.15,1.3h0l1.15,1.3h0l1.15,1.29h0l1.15,1.29h0l1.15,1.28h0l1.15,1.28h0l1.15,1.28h0l1.15,1.27h0l1.15,1.27h0l1.15,1.26h0l1.15,1.26h0l1.15,1.25h0l1.15,1.25h0l1.15,1.24h0l1.15,1.24h0l1.15,1.23h0l1.15,1.23h0l1.15,1.22h0l1.15,1.22h0l1.15,1.21h0l1.15,1.21h0l1.15,1.2h0l1.15,1.2h0l1.15,1.19h0l1.15,1.19h0l1.15,1.18h0l1.15,1.18h0l1.15,1.18h0l1.15,1.17h0l1.15,1.17h0l1.15,1.16h0l1.15,1.16h0l1.15,1.15h0l1.15,1.15h0l1.15,1.14h0l1.15,1.14h0l1.15,1.13h0l1.15,1.13h0l1.15,1.12h0l1.15,1.12h0l1.15,1.11h0l1.15,1.11h0l1.15,1.1h0l1.15,1.1h0l1.15,1.09h0l1.15,1.09h0l1.15,1.09h0l1.15,1.08h0l1.15,1.08h0l1.15,1.07h0l1.15,1.07h0l1.15,1.06h0l1.15,1.06h0l1.15,1.05h0l1.15,1.05h0l1.15,1.04h0l1.15,1.04h0l1.15,1.03h0l1.15,1.03h0l1.15,1.02h0l1.15,1.02h0l1.15,1.01h0l1.15,1.01h0l1.15,1h0l1.15,1h0l1.15,1h0l1.15.99h0l1.15.99h0l1.15.98h0l1.15.98h0l1.15.97h0l1.15.97h0l1.15.96h0l1.15.96h0l1.15.95h0l1.15.95h0l1.15.94h0l1.15.94h0l1.15.93h0l1.15.93h0l1.15.92h0l1.15.92h0l1.15.91h0l1.15.91h0l1.15.9h0l1.15.9h0l1.15.9h0l1.15.89h0l1.15.89h0l1.15.88h0l1.15.88h0l1.15.87h0l1.15.87h0l1.15.86h0l1.15.86h0l1.15.85h0l1.15.85h0l1.15.84h0l1.15.84h0l1.15.83h0l1.15.83h0l1.15.82h0l1.15.82h0l1.15.81h0l1.15.81h0l1.15.81h0l1.15.8h0l1.15.8h0l1.15.79h0l1.15.79h0l1.15.78h0l1.15.78h0l1.15.77h0l1.15.77h0l1.15.76h0l1.15.76h0l1.15.75h0l1.15.75h0l1.15.74h0l1.15.74h0l1.15.73h0l1.15.73h0l1.15.72h0l1.15.72h0l1.15.72h0l1.15.71h0l1.15.71h0l1.15.7h0l1.15.7h0l1.15.69h0l1.15.69h0l1.15.68h0l1.15.68h0l1.15.67h0l1.15.67h0l1.15.66h0l1.15.66h0l1.15.65h0l1.15.65h0l1.15.64h0l1.15.64h0l1.15.63h0l1.15.63h0l1.15.63h0l1.15.62h0l1.15.62h0l1.15.61h0l1.15.61h0l1.15.6h0l1.15.6h0l1.15.59h0l1.15.59h0l1.15.58h0l1.15.58h0l1.15.57h0l1.15.57h0l1.15.56h0l1.15.56h0l1.15.55h0l1.15.55h0l1.15.54h0l1.15.54h0l1.15.53h0l1.15.53h0l1.15.53h0l1.15.52h0l1.15.52h0l1.15.51h0l1.15.51h0l1.15.5h0l1.15.5h0l1.15.49h0l1.15.49h0l1.15.48h0l1.15.48h0l1.15.47h0l1.15.47h0l1.15.46h0l1.15.46h0l1.15.45h0l1.15.45h0l1.15.44h0l1.15.44h0l1.15.44h0l1.15.43h0l1.15.43h0l1.15.42h0l1.15.42h0l1.15.41h0l1.15.41h0l1.15.4h0l1.15.4h0l1.15.39h0l1.15.39h0l1.15.38h0l1.15.38h0l1.15.37h0l1.15.37h0l1.15.36h0l1.15.36h0l1.15.35h0l1.15.35h0l1.15.35h0l1.15.34h0l1.15.34h0l1.15.33h0l1.15.33h0l1.15.32h0l1.15.32h0l1.15.31h0l1.15.31h0l1.15.3h0l1.15.3h0l1.15.29h0l1.15.29h0l1.15.28h0l1.15.28h0l1.15.27h0l1.15.27h0l1.15.26h0l1.15.26h0l1.15.25h0l1.15.25h0l1.15.25h0l1.15.24h0l1.15.24h0l1.15.23h0l1.15.23h0l1.15.22h0l1.15.22h0l1.15.21h0l1.15.21h0l1.15.2h0l1.15.2h0l1.15.19h0l1.15.19h0l1.15.18h0l1.15.18h0l1.15.17h0l1.15.17h0l1.15.16h0l1.15.16h0l1.15.16h0l1.15.15h0l1.15.15h0l1.15.14h0l1.15.14h0l1.15.13h0l1.15.13h0l1.15.12h0l1.15.12h0l1.15.11h0l1.15.11h0l1.15.1h0l1.15.1h0l1.15.09h0l1.15.09h0l1.15.08h0l1.15.08h0l1.15.07h0l1.15.07h0l1.15.07h0l1.15.06h0l1.15.06h0l1.15.05h0l1.15.05h0l1.15.04h0l1.15.04h0l1.15.03h0l1.15.03h0l1.15.02h0l1.15.02h1.15s1.15.02,1.15.02h1.15s0,0,0,0h1.15s0,0,0,0h1.15s1.15-.02,1.15-.02h0l1.15-.02h0l1.15-.02h0l1.15-.03h0l1.15-.03h0l1.15-.03h0l1.15-.04h0l1.15-.04h0l1.15-.05h0l1.15-.05h0l1.15-.06h0l1.15-.06h0l1.15-.07h0l1.15-.07h0l1.15-.08h0l1.15-.08h0l1.15-.09h0l1.15-.09h0l1.15-.1h0l1.15-.1h0l1.15-.11h0l1.15-.11h0l1.15-.12h0l1.15-.12h0l1.15-.12h0l1.15-.13h0l1.15-.13h0l1.15-.14h0l1.15-.14h0l1.15-.15h0l1.15-.15h0l1.15-.16h0l1.15-.16h0l1.15-.17h0l1.15-.17h0l1.15-.18h0l1.15-.18h0l1.15-.19h0l1.15-.19h0l1.15-.2h0l1.15-.2h0l1.15-.21h0l1.15-.21h0l1.15-.21h0l1.15-.22h0l1.15-.22h0l1.15-.23h0l1.15-.23h0l1.15-.24h0l1.15-.24h0l1.15-.25h0l1.15-.25h0l1.15-.26h0l1.15-.26h0l1.15-.27h0l1.15-.27h0l1.15-.28h0l1.15-.28h0l1.15-.29h0l1.15-.29h0l1.15-.3h0l1.15-.3h0l1.15-.3h0l1.15-.31h0l1.15-.31h0l1.15-.32h0l1.15-.32h0l1.15-.33h0l1.15-.33h0l1.15-.34h0l1.15-.34h0l1.15-.35h0l1.15-.35h0l1.15-.36h0l1.15-.36h0l1.15-.37h0l1.15-.37h0l1.15-.38h0l1.15-.38h0l1.15-.39h0l1.15-.39h0l1.15-.4h0l1.15-.4h0l1.15-.4h0l1.15-.41h0l1.15-.41h0l1.15-.42h0l1.15-.42h0l1.15-.43h0l1.15-.43h0l1.15-.44h0l1.15-.44h0l1.15-.45h0l1.15-.45h0l1.15-.46h0l1.15-.46h0l1.15-.47h0l1.15-.47h0l1.15-.48h0l1.15-.48h0l1.15-.49h0l1.15-.49h0l1.15-.49h0l1.15-.5h0l1.15-.5h0l1.15-.51h0l1.15-.51h0l1.15-.52h0l1.15-.52h0l1.15-.53h0l1.15-.53h0l1.15-.54h0l1.15-.54h0l1.15-.55h0l1.15-.55h0l1.15-.56h0l1.15-.56h0l1.15-.57h0l1.15-.57h0l1.15-.58h0l1.15-.58h0l1.15-.58h0l1.15-.59h0l1.15-.59h0l1.15-.6h0l1.15-.6h0l1.15-.61h0l1.15-.61h0l1.15-.62h0l1.15-.62h0l1.15-.63h0l1.15-.63h0l1.15-.64h0l1.15-.64h0l1.15-.65h0l1.15-.65h0l1.15-.66h0l1.15-.66h0l1.15-.67h0l1.15-.67h0l1.15-.67h0l1.15-.68h0l1.15-.68h0l1.15-.69h0l1.15-.69h0l1.15-.7h0l1.15-.7h0l1.15-.71h0l1.15-.71h0l1.15-.72h0l1.15-.72h0l1.15-.73h0l1.15-.73h0l1.15-.74h0l1.15-.74h0l1.15-.75h0l1.15-.75h0l1.15-.76h0l1.15-.76h0l1.15-.77h0l1.15-.77h0l1.15-.77h0l1.15-.78h0l1.15-.78h0l1.15-.79h0l1.15-.79h0l1.15-.8h0l1.15-.8h0l1.15-.81h0l1.15-.81h0l1.15-.82h0l1.15-.82h0l1.15-.83h0l1.15-.83h0l1.15-.84h0l1.15-.84h0l1.15-.85h0l1.15-.85h0l1.15-.86h0l1.15-.86h0l1.15-.86h0l1.15-.87h0l1.15-.87h0l1.15-.88h0l1.15-.88h0l1.15-.89h0l1.15-.89h0l1.15-.9h0l1.15-.9h0l1.15-.91h0l1.15-.91h0l1.15-.92h0l1.15-.92h0l1.15-.93h0l1.15-.93h0l1.15-.94h0l1.15-.94h0l1.15-.95h0l1.15-.95h0l1.15-.95h0l1.15-.96h0l1.15-.96h0l1.15-.97h0l1.15-.97h0l1.15-.98h0l1.15-.98h0l1.15-.99h0l1.15-.99h0l1.15-1h0l1.15-1h0l1.15-1.01h0l1.15-1.01h0l1.15-1.02h0l1.15-1.02h0l1.15-1.03h0l1.15-1.03h0l1.15-1.04h0l1.15-1.04h0l1.15-1.05h0l1.15-1.05h0l1.15-1.05h0l1.15-1.06h0l1.15-1.06h0l1.15-1.07h0l1.15-1.07h0l1.15-1.08h0l1.15-1.08h0l1.15-1.09h0l1.15-1.09h0l1.15-1.1h0l1.15-1.1h0l1.15-1.11h0l1.15-1.11h0l1.15-1.12h0l1.15-1.12h0l1.15-1.13h0l1.15-1.13h0l1.15-1.14h0l1.15-1.14h0l1.15-1.14h0l1.15-1.15h0l1.15-1.15h0l1.15-1.16h0l1.15-1.16h0l1.15-1.17h0l1.15-1.17h0l1.15-1.18h0l1.15-1.18h0l1.15-1.19h0l1.15-1.19h0l1.15-1.2h0l1.15-1.2h0l1.15-1.21h0l1.15-1.21h0l1.15-1.22h0l1.15-1.22h0l1.15-1.23h0l1.15-1.23h0l1.15-1.23h0l1.15-1.24h0l1.15-1.24h0l1.15-1.25h0l1.15-1.25h0l1.15-1.26h0l1.15-1.26h0l1.15-1.27h0l1.15-1.27h0l1.15-1.28h0l1.15-1.28h0l1.15-1.29h0l1.15-1.29h0l1.15-1.3h0l1.15-1.3h0l1.15-1.31h0l1.15-1.31h0l1.15-1.32h0l1.15-1.32h0l1.15-1.32h0l1.15-1.33h0l1.15-1.33h0l1.15-1.34h0l1.15-1.34h0l1.15-1.35h0l1.15-1.35h0l1.15-1.36h0l1.15-1.36h0l1.15-1.37h0l1.15-1.37h0l1.15-1.38h0l1.15-1.38h0l1.15-1.39h0l1.15-1.39h0l1.15-1.4h0l1.15-1.4h0l1.15-1.41h0l1.15-1.41h0l1.15-1.42h0l1.15-1.42h0l1.15-1.42h0l1.15-1.43h0l1.15-1.43h0l1.15-1.44h0l1.15-1.44h0l1.15-1.45h0l1.15-1.45h0l1.15-1.46h0l1.15-1.46h0l1.15-1.47h0l1.15-1.47h0l1.15-1.48h0l1.15-1.48h0l1.15-1.49h0l1.15-1.49h0l1.15-1.5h0l1.15-1.5h0l1.15-1.51h0l1.15-1.51h0l1.15-1.51h0l1.15-1.52h0l1.15-1.52h0l1.15-1.53h0l1.15-1.53h0l1.15-1.54h0l1.15-1.54h0l1.15-1.55h0l1.15-1.55h0l1.15-1.56h0l1.15-1.56h0l1.15-1.57h0l1.15-1.57h0l1.15-1.58h0l1.15-1.58h0l1.15-1.59h0l1.15-1.59h0l1.15-1.6h0l1.15-1.6h0l1.15-1.6h0l1.15-1.61h0l1.15-1.61h0l1.15-1.62h0l1.15-1.62h0l1.15-1.63h0l1.15-1.63h0l1.15-1.64h0l1.15-1.64h0l1.15-1.65h0l1.15-1.65h0l1.15-1.66h0l1.15-1.66h0l1.15-1.67h0l1.15-1.67h0l1.15-1.68h0l1.15-1.68h0l1.15-1.69h0l1.15-1.69h0l1.15-1.7h0l1.15-1.7h0l1.15-1.7h0l1.15-1.71h0l1.15-1.71h0l1.15-1.72h0l1.15-1.72h0l1.15-1.73h0l1.15-1.73h0l1.15-1.74h0l1.15-1.74h0l1.15-1.75h0l1.15-1.75h0l1.15-1.76h0l1.15-1.76h0l1.15-1.77h0l1.15-1.77h0l1.15-1.78h0l1.15-1.78h0l1.15-1.79h0l1.15-1.79h0l1.15-1.79h0l1.15-1.8h0l1.15-1.8h0l1.15-1.81h0l1.15-1.81h0l1.15-1.82h0l1.15-1.82h0l1.15-1.83h0l1.15-1.83h0l1.15-1.84h0l1.15-1.84h0l1.15-1.85h0l1.15-1.85h0l1.15-1.86h0l1.15-1.86h0l1.15-1.87h0l1.15-1.87h0l1.15-1.88h0l1.15-1.88h0l1.15-1.88h0l1.15-1.89h0l1.15-1.89h0l1.15-1.9h0l1.15-1.9h0l1.15-1.91h0l1.15-1.91h0l1.15-1.92h0l1.15-1.92h0l1.15-1.93h0l1.15-1.93h0l1.15-1.94h0l1.15-1.94h0l1.15-1.95h0l1.15-1.95h0l1.15-1.96h0l1.15-1.96h0l1.15-1.97h0l1.15-1.97h0l1.15-1.97h0l1.15-1.98h0l1.15-1.98h0l1.15-1.99h0l1.15-1.99h0l1.15-2h0l1.15-2h0l1.15-2.01h0l1.15-2.01h0l1.15-2.02h0l1.15-2.02h0l1.15-2.03h0l1.15-2.03h0l1.15-2.04h0l1.15-2.04h0l1.15-2.05h0l1.15-2.05h0l1.15-2.06h0l1.15-2.06h0l1.15-2.07h0l1.15-2.07h0l1.15-2.07h0l1.15-2.08h0l1.15-2.08h0l1.15-2.09h0l1.15-2.09h0l1.15-2.1h0l1.15-2.1h0l1.15-2.11h0l1.15-2.11h0l1.15-2.12h0l1.15-2.12h0l1.15-2.13h0l1.15-2.13h0l1.15-2.14h0l1.15-2.14h0l1.15-2.15h0l1.15-2.15h0l1.15-2.16h0l1.15-2.16h0l1.15-2.16h0l1.15-2.17h0l1.15-2.17h0l1.15-2.18h0l1.15-2.18h0l1.15-2.19h0l1.15-2.19h0l1.15-2.2h0l1.15-2.2h0l1.15-2.21h0l1.15-2.21h0l1.15-2.22h0l1.15-2.22h0l1.15-2.23h0l1.15-2.23h0l1.15-2.24h0l1.15-2.24h0l1.15-2.25h0l1.15-2.25h0l1.15-2.25h0l1.15-2.26h0l1.15-2.26h0l1.15-2.27h0l1.15-2.27h0l1.15-2.28h0l1.15-2.28h0l1.15-2.29h0l1.15-2.29h0l1.15-2.3h0l1.15-2.3h0l1.15-2.31h0l1.15-2.31h0l1.15-2.32h0l1.15-2.32h0l1.15-2.33h0l1.15-2.33h0l1.15-2.34h0l1.15-2.34h0l1.15-2.35h0l1.15-2.35h0l1.15-2.35h0l1.15-2.36h0l1.15-2.36h0l1.15-2.37h0l1.15-2.37h0l1.15-2.38h0l1.15-2.38h0l1.15-2.39h0l1.15-2.39h0l1.15-2.4h0l1.15-2.4h0l1.15-2.41h0l1.15-2.41h0l1.15-2.42h0l1.15-2.42h0l1.15-2.43h0l1.15-2.43h0l1.15-2.44h0l1.15-2.44h0l1.15-2.44h0l1.15-2.45h0l1.15-2.45h0l1.15-2.46h0l1.15-2.46h0l1.15-2.47h0l1.15-2.47h0l1.15-2.48h0l1.15-2.48h0l1.15-2.49h0l1.15-2.49h0l1.15-2.5h0l1.15-2.5h0l1.15-2.51h0l1.15-2.51h0l1.15-2.52h0l1.15-2.52h0l1.15-2.53h0l1.15-2.53h0l1.15-2.53h0l1.15-2.54h0l1.15-2.54h0l1.15-2.55h0l1.15-2.55h0l1.15-2.56h0l1.15-2.56h0l1.15-2.57h0l1.15-2.57h0l1.15-2.58h0l1.15-2.58h0l1.15-2.59h0l1.15-2.59h0l1.15-2.6h0l1.15-2.6h0l1.15-2.61h0l1.15-2.61h0l1.15-2.62h0l1.15-2.62h0l1.15-2.62h0l1.15-2.63h0l1.15-2.63h0l1.15-2.64h0l1.15-2.64h0l1.15-2.65h0l1.15-2.65h0l1.15-2.66h0l1.15-2.66h0l1.15-2.67h0l1.15-2.67h0l1.15-2.68h0l1.15-2.68h0l1.15-2.69h0l1.15-2.69h0l1.15-2.7h0l1.15-2.7h0l1.15-2.71h0l1.15-2.71h0l1.15-2.72h0l1.15-2.72h0l1.15-2.72h0l1.15-2.73h0l1.15-2.73h0l1.15-2.74h0l1.15-2.74h0l1.15-2.75h0l1.15-2.75h0l1.15-2.76h0l1.15-2.76h0l1.15-2.77h0l1.15-2.77h0l1.15-2.78h0l1.15-2.78h0l1.15-2.79h0l1.15-2.79h0l1.15-2.8h0l1.15-2.8h0l1.15-2.81h0l1.15-2.81h0l1.15-2.81h0l1.15-2.82h0l1.15-2.82h0l1.15-2.83h0l1.15-2.83h0l1.15-2.84h0l1.15-2.84h0l1.15-2.85h0l1.15-2.85h0l1.15-2.86h0l1.15-2.86h0l1.15-2.87h0l1.15-2.87h0l1.15-2.88h0l1.15-2.88h0l1.15-2.89h0l1.15-2.89h0l1.15-2.9h0l1.15-2.9h0l1.15-2.9h0l1.15-2.91h0l1.15-2.91h0l1.15-2.92h0l1.15-2.92h0l1.15-2.93h0l1.15-2.93h0l1.15-2.94h0l1.15-2.94h0l1.15-2.95h0l1.15-2.95h0l1.15-2.96h0l1.15-2.96h0l1.15-2.97h0l1.15-2.97h0l1.15-2.98h0l1.15-2.98h0l1.15-2.99h0l1.15-2.99h0l1.15-3h0l1.15-3h0l1.15-3h0l1.15-3.01h0l1.15-3.01h0l1.15-3.02h0l1.15-3.02h0l1.15-3.03h0l1.15-3.03h0l1.15-3.04h0l1.15-3.04h0l1.15-3.05h0l1.15-3.05h0l1.15-3.06h0l1.15-3.06h0l1.15-3.07h0l1.15-3.07h0l1.15-3.08h0l1.15-3.08h0l1.15-3.09h0l1.15-3.09h0l1.15-3.09h0l1.15-3.1h0l1.15-3.1h0l1.15-3.11h0l1.15-3.11h0l1.15-3.12h0l1.15-3.12h0l1.15-3.13h0l1.15-3.13h0l1.15-3.14h0l1.15-3.14h0l1.15-3.15h0l1.15-3.15h0l1.15-3.16h0l1.15-3.16h0l1.15-3.17h0l1.15-3.17h0l1.15-3.18h0l1.15-3.18h0l1.15-3.18h0l1.15-3.19h0l1.15-3.19h0l1.15-3.2h0l1.15-3.2h0l1.15-3.21h0l1.15-3.21h0l1.15-3.22h0l1.15-3.22h0l1.15-3.23h0l1.15-3.23h0l1.15-3.24h0l1.15-3.24h0l1.15-3.25h0l1.15-3.25h0l1.15-3.26h0l1.15-3.26h0l1.15-3.27h0l1.15-3.27h0l1.15-3.28h0l1.15-3.28h0l1.15-3.28h0l1.15-3.29h0l1.15-3.29h0l1.15-3.3h0l1.15-3.3h0l1.15-3.31h0l1.15-3.31h0l1.15-3.32h0l1.15-3.32h0l1.15-3.33h0l1.15-3.33h0l1.15-3.34h0l1.15-3.34h0l1.15-3.35h0l1.15-3.35h0l1.15-3.36h0l1.15-3.36h0l1.15-3.37h0l1.15-3.37h0l1.15-3.37h0l1.15-3.38h0l1.15-3.38h0l1.15-3.39h0l1.15-3.39h0l1.15-3.4h0l1.15-3.4h0l1.15-3.41h0l1.15-3.41h0l1.15-3.42h0l1.15-3.42h0l1.15-3.43h0l1.15-3.43h0l1.15-3.44h0l1.15-3.44h0l1.15-3.45h0l1.15-3.45h0l1.15-3.46h0l1.15-3.46h0l1.15-3.46h0l1.15-3.47h0l1.15-3.47h0l1.15-3.48"/>
        </g>
      </g>
    </g>
  </g>
  <g id="uuid-b58b0737-40f0-4a05-bfa1-ea0cf2e250fb" data-name="Marco">
    <path class="uuid-b23f09e2-8be2-4428-937f-2df4c6bb5312" d="m0-2V1022h1680V-2H0Zm1663,987c0,11.05-8.95,20-20,20H37c-11.05,0-20-8.95-20-20V35c0-11.05,8.95-20,20-20h1606c11.05,0,20,8.95,20,20v950Z"/>
  </g>
  <g id="uuid-33e540c7-5967-4642-99e8-8b7fc19282d3" data-name="Texto">
    <g>
      <path class="uuid-544f156f-f255-4016-bd36-88f810e9b23f" d="m1024.5,460.07c-.6,2.83-1.52,4.93-2.75,6.32-1.24,1.39-2.79,2.08-4.67,2.08-.55,0-.98-.03-1.29-.1l.33-1.72c.13.04.44.06.92.06.59,0,1.09-.15,1.5-.45.42-.3.8-.82,1.16-1.56.36-.74.69-1.77.99-3.09l4.2-18.57h-3.3l.29-1.35c.87-.05,1.5-.12,1.88-.21.38-.09.68-.23.9-.41s.4-.42.55-.71c.15-.29.34-.83.58-1.61.69-2.34,1.75-4.1,3.19-5.28,1.44-1.18,3.27-1.77,5.5-1.77,1.28,0,2.38.1,3.3.31l-.76,3.32h-1.72c-.18-.74-.42-1.28-.71-1.6s-.73-.49-1.3-.49c-.74,0-1.37.21-1.88.62-.51.41-.95,1.02-1.32,1.83-.36.81-.7,1.89-1.02,3.26l-.49,2.13h5.02l-.43,1.97h-5.04l-3.63,17.03Z"/>
      <path class="uuid-544f156f-f255-4016-bd36-88f810e9b23f" d="m1045.85,449.17c0,4.8.72,8.68,2.15,11.63,1.43,2.95,3.57,4.83,6.41,5.63l-.31,1.89c-4.19-.82-7.34-2.87-9.44-6.16-2.1-3.29-3.15-7.56-3.15-12.8,0-5.59,1.05-10.02,3.15-13.31,2.1-3.29,5.25-5.22,9.44-5.81l.31,1.89c-2.84.57-4.97,2.33-6.41,5.28-1.43,2.95-2.15,6.87-2.15,11.75Z"/>
      <path class="uuid-544f156f-f255-4016-bd36-88f810e9b23f" d="m1064.7,450.91c-.2-1.03-.4-2.02-.61-2.97-.21-.95-.42-1.84-.64-2.66-.22-.82-.4-1.36-.55-1.61-.14-.25-.3-.43-.46-.53-.16-.1-.37-.15-.62-.15-.27,0-.52.06-.74.19-.22.12-.46.34-.72.64-.26.31-.61.78-1.04,1.44l-1.27-.84c.82-1.24,1.61-2.16,2.36-2.77.75-.61,1.65-.92,2.68-.92.4,0,.76.05,1.06.14.31.09.58.23.81.42s.44.43.62.73c.18.3.36.71.53,1.22.17.51.33,1.15.48,1.91.15.76.28,1.55.4,2.37h.2c1.25-1.76,2.2-3.04,2.84-3.86s1.19-1.42,1.63-1.82c.44-.4.87-.68,1.28-.84s.95-.24,1.63-.24c.61,0,1.11.08,1.5.23l-.78,3.54h-1.37c-.08-.55-.31-.82-.68-.82-.12,0-.24.02-.37.06-.13.04-.29.12-.48.25-.19.13-.47.38-.83.76-.36.38-.77.84-1.23,1.39-.46.55-.92,1.12-1.41,1.72l-1.33,1.66c.23,1.25.46,2.33.66,3.24.21.91.39,1.67.56,2.28.16.61.31,1.08.43,1.44.12.35.26.62.4.79.14.18.29.3.44.37.15.07.32.11.52.11.35,0,.69-.14,1.03-.41s.81-.89,1.44-1.86l1.27.84c-.91,1.35-1.74,2.31-2.47,2.86-.74.55-1.61.83-2.63.83-.56,0-1.04-.1-1.43-.3s-.73-.52-1.02-.97c-.29-.44-.54-1.13-.76-2.07-.4-1.67-.65-2.94-.74-3.83h-.2c-1.38,1.94-2.41,3.33-3.08,4.18-.67.85-1.22,1.47-1.66,1.88-.44.4-.86.69-1.27.85s-.95.24-1.63.24c-.61,0-1.11-.08-1.5-.23l.78-3.54h1.37c.08.55.31.82.68.82.18,0,.37-.05.58-.15.2-.1.49-.33.87-.7.38-.37.9-.95,1.56-1.75s1.63-1.99,2.89-3.57Z"/>
      <path class="uuid-544f156f-f255-4016-bd36-88f810e9b23f" d="m1086.2,449.17c0-4.88-.72-8.8-2.15-11.75-1.43-2.95-3.57-4.71-6.41-5.28l.31-1.89c4.19.59,7.34,2.52,9.44,5.81,2.1,3.29,3.15,7.72,3.15,13.31,0,5.25-1.05,9.51-3.15,12.8-2.1,3.29-5.25,5.34-9.44,6.16l-.31-1.89c2.84-.81,4.97-2.69,6.41-5.63,1.43-2.95,2.15-6.83,2.15-11.63Z"/>
      <path class="uuid-544f156f-f255-4016-bd36-88f810e9b23f" d="m1105.69,445.56v-2.6h24.06v2.6h-24.06Zm0,8.11v-2.6h24.06v2.6h-24.06Z"/>
      <path class="uuid-544f156f-f255-4016-bd36-88f810e9b23f" d="m1150.79,450.91c-.2-1.03-.4-2.02-.61-2.97-.21-.95-.42-1.84-.64-2.66-.22-.82-.4-1.36-.55-1.61-.14-.25-.3-.43-.46-.53-.16-.1-.37-.15-.62-.15-.27,0-.52.06-.74.19-.22.12-.46.34-.72.64-.26.31-.61.78-1.04,1.44l-1.27-.84c.82-1.24,1.61-2.16,2.36-2.77.75-.61,1.65-.92,2.68-.92.4,0,.76.05,1.06.14.31.09.58.23.81.42s.44.43.62.73c.18.3.36.71.53,1.22.17.51.33,1.15.48,1.91.15.76.28,1.55.4,2.37h.2c1.25-1.76,2.2-3.04,2.84-3.86s1.19-1.42,1.63-1.82c.44-.4.87-.68,1.28-.84s.95-.24,1.63-.24c.61,0,1.11.08,1.5.23l-.78,3.54h-1.37c-.08-.55-.31-.82-.68-.82-.12,0-.24.02-.37.06-.13.04-.29.12-.48.25-.19.13-.47.38-.83.76-.36.38-.77.84-1.23,1.39-.46.55-.92,1.12-1.41,1.72l-1.33,1.66c.23,1.25.46,2.33.66,3.24.21.91.39,1.67.56,2.28.16.61.31,1.08.43,1.44.12.35.26.62.4.79.14.18.29.3.44.37.15.07.32.11.52.11.35,0,.69-.14,1.03-.41s.81-.89,1.44-1.86l1.27.84c-.91,1.35-1.74,2.31-2.47,2.86-.74.55-1.61.83-2.63.83-.56,0-1.04-.1-1.43-.3s-.73-.52-1.02-.97c-.29-.44-.54-1.13-.76-2.07-.4-1.67-.65-2.94-.74-3.83h-.2c-1.38,1.94-2.41,3.33-3.08,4.18-.67.85-1.22,1.47-1.66,1.88-.44.4-.86.69-1.27.85s-.95.24-1.63.24c-.61,0-1.11-.08-1.5-.23l.78-3.54h1.37c.08.55.31.82.68.82.18,0,.37-.05.58-.15.2-.1.49-.33.87-.7.38-.37.9-.95,1.56-1.75s1.63-1.99,2.89-3.57Z"/>
      <path class="uuid-544f156f-f255-4016-bd36-88f810e9b23f" d="m1172.65,441.34c.46,0,.8-.02,1.04-.07.24-.05.43-.11.58-.21.14-.09.26-.21.36-.35s.24-.46.44-.94h1.35l-.27,3.77h-11.45v-.74c.44-.95,1.04-1.89,1.8-2.81.75-.92,1.64-1.88,2.66-2.85,1.21-1.16,2.07-2.03,2.58-2.63s.89-1.15,1.13-1.68c.25-.53.37-1.06.37-1.59,0-.89-.25-1.58-.75-2.09-.5-.51-1.22-.76-2.16-.76-.81,0-1.49.21-2.06.64s-1,1.06-1.3,1.89h-1.86v-2.64c1.16-.47,2.23-.8,3.2-1.01s1.84-.3,2.6-.3c1.03,0,1.88.11,2.55.33.67.22,1.21.51,1.61.87.4.36.69.78.85,1.26.16.48.24.98.24,1.48,0,.64-.13,1.23-.39,1.79-.26.55-.69,1.15-1.28,1.8-.59.64-1.64,1.65-3.15,3.02-1.61,1.47-2.79,2.74-3.52,3.81h4.82Z"/>
    </g>
  </g>
</svg>