<?xml version="1.0" encoding="UTF-8"?>
<svg xmlns="http://www.w3.org/2000/svg" width="1680" height="1020" xmlns:xlink="http://www.w3.org/1999/xlink" viewBox="0 0 1680 1020">
  <defs>
    <style>
      .uuid-9c715113-f6ca-4486-8165-65d4a9ac23b7 {
        fill: #fff;
      }

      .uuid-62c84085-e1e9-48aa-92fb-1f073dd89745 {
        clip-path: url(#uuid-d7eec7fa-3a4e-48f1-92bb-f97d0721c6a3);
      }

      .uuid-62c84085-e1e9-48aa-92fb-1f073dd89745, .uuid-494638b8-caff-41d9-8b62-ad780c9ba6cc, .uuid-faf11bd9-ffdd-4f4d-95db-ada5ffb32600, .uuid-af41fc0d-ae7d-4f4c-9a65-94290494ac4c, .uuid-9a769e13-c37d-476d-8e5f-8c7bbf2580a7, .uuid-7e6fa465-7475-4d56-973b-f57694634692, .uuid-f34298fe-28b1-4c0f-b384-036e4deafbee, .uuid-894f64b6-2073-4b10-a312-0f969c176a96, .uuid-f13006f0-6fda-4f76-a3b2-0f7c3d4eb966 {
        fill: none;
      }

      .uuid-494638b8-caff-41d9-8b62-ad780c9ba6cc {
        stroke: #fff;
        stroke-linejoin: bevel;
        stroke-width: 3.44px;
      }

      .uuid-faf11bd9-ffdd-4f4d-95db-ada5ffb32600 {
        stroke: rgba(255, 85, 0, .7);
        stroke-linecap: round;
        stroke-width: 4.59px;
      }

      .uuid-faf11bd9-ffdd-4f4d-95db-ada5ffb32600, .uuid-9a769e13-c37d-476d-8e5f-8c7bbf2580a7, .uuid-f13006f0-6fda-4f76-a3b2-0f7c3d4eb966 {
        stroke-linejoin: round;
      }

      .uuid-af41fc0d-ae7d-4f4c-9a65-94290494ac4c {
        stroke: #606060;
        stroke-miterlimit: 10;
        stroke-width: 2.3px;
      }

      .uuid-9a769e13-c37d-476d-8e5f-8c7bbf2580a7 {
        stroke: rgba(192, 192, 192, .24);
      }

      .uuid-9a769e13-c37d-476d-8e5f-8c7bbf2580a7, .uuid-f13006f0-6fda-4f76-a3b2-0f7c3d4eb966 {
        stroke-dasharray: 0 0 1.15 3.44;
        stroke-width: 1.15px;
      }

      .uuid-1e91a627-ffdb-47a4-85f4-006b16f96adf {
        fill: #333;
      }

      .uuid-7e6fa465-7475-4d56-973b-f57694634692 {
        clip-path: url(#uuid-f50ac6c8-4642-4fdd-b606-092250c40ad2);
      }

      .uuid-f34298fe-28b1-4c0f-b384-036e4deafbee {
        isolation: isolate;
      }

      .uuid-e50b1144-a0b9-4ac0-ad7e-e6e98a3b5149 {
        fill: #00699b;
      }

      .uuid-223aed57-e483-467e-b4e7-7cc40c4c41dd, .uuid-ccd7c58a-d06c-4c59-800c-a620397ea02c {
        fill: #606060;
      }

      .uuid-f13006f0-6fda-4f76-a3b2-0f7c3d4eb966 {
        stroke: silver;
      }

      .uuid-ccd7c58a-d06c-4c59-800c-a620397ea02c {
        fill-rule: evenodd;
      }
    </style>
    <clipPath id="uuid-d7eec7fa-3a4e-48f1-92bb-f97d0721c6a3">
      <rect class="uuid-894f64b6-2073-4b10-a312-0f969c176a96" y="2.61" width="1680" height="1019.39"/>
    </clipPath>
    <clipPath id="uuid-f50ac6c8-4642-4fdd-b606-092250c40ad2">
      <rect class="uuid-894f64b6-2073-4b10-a312-0f969c176a96" x="-3.45" y="-10.87" width="1686.9" height="1040.83"/>
    </clipPath>
  </defs>
  <g id="uuid-2c5e2d08-6a65-4886-b6d6-208f9088cef9" data-name="Grafica">
    <g class="uuid-62c84085-e1e9-48aa-92fb-1f073dd89745">
      <g class="uuid-7e6fa465-7475-4d56-973b-f57694634692">
        <g>
          <rect class="uuid-9c715113-f6ca-4486-8165-65d4a9ac23b7" x="-3.45" y="-10.87" width="1686.9" height="1040.83"/>
          <path class="uuid-f13006f0-6fda-4f76-a3b2-0f7c3d4eb966" d="m8.6-10.3v1040.83M8.6-10.3v1040.83M147.45-10.3v1040.83M286.31-10.3v1040.83M425.16-10.3v1040.83M564.01-10.3v1040.83M702.87-10.3v1040.83M980.57-10.3v1040.83M1119.43-10.3v1040.83M1258.28-10.3v1040.83M1395.99-10.3v1040.83M1534.84-10.3v1040.83M1673.69-10.3v1040.83"/>
          <path class="uuid-9a769e13-c37d-476d-8e5f-8c7bbf2580a7" d="m36.14-10.3v1040.83M64.83-10.3v1040.83M92.37-10.3v1040.83M119.91-10.3v1040.83M175-10.3v1040.83M202.54-10.3v1040.83M231.23-10.3v1040.83M258.77-10.3v1040.83M313.85-10.3v1040.83M341.39-10.3v1040.83M370.08-10.3v1040.83M397.62-10.3v1040.83M452.7-10.3v1040.83M480.24-10.3v1040.83M507.78-10.3v1040.83M536.47-10.3v1040.83M591.56-10.3v1040.83M619.1-10.3v1040.83M646.64-10.3v1040.83M675.33-10.3v1040.83M730.41-10.3v1040.83M757.95-10.3v1040.83M785.49-10.3v1040.83M814.18-10.3v1040.83M869.26-10.3v1040.83M896.8-10.3v1040.83M924.34-10.3v1040.83M951.89-10.3v1040.83M1008.12-10.3v1040.83M1035.66-10.3v1040.83M1063.2-10.3v1040.83M1090.74-10.3v1040.83M1146.97-10.3v1040.83M1174.51-10.3v1040.83M1202.05-10.3v1040.83M1229.59-10.3v1040.83M1285.82-10.3v1040.83M1313.36-10.3v1040.83M1340.9-10.3v1040.83M1368.45-10.3v1040.83M1424.68-10.3v1040.83M1452.22-10.3v1040.83M1479.76-10.3v1040.83M1507.3-10.3v1040.83M1563.53-10.3v1040.83M1591.07-10.3v1040.83M1618.61-10.3v1040.83M1646.15-10.3v1040.83"/>
          <path class="uuid-f13006f0-6fda-4f76-a3b2-0f7c3d4eb966" d="m-2.87,95.28h1686.9M-2.87,95.28h1686.9M-2.87,234.13h1686.9M-2.87,372.99h1686.9M-2.87,650.69h1686.9M-2.87,789.55h1686.9M-2.87,928.4h1686.9"/>
          <path class="uuid-9a769e13-c37d-476d-8e5f-8c7bbf2580a7" d="m-2.87,12.66h1686.9M-2.87,12.66h1686.9M-2.87,40.2h1686.9M-2.87,67.74h1686.9M-2.87,122.82h1686.9M-2.87,150.36h1686.9M-2.87,179.05h1686.9M-2.87,206.59h1686.9M-2.87,261.67h1686.9M-2.87,289.21h1686.9M-2.87,317.9h1686.9M-2.87,345.44h1686.9M-2.87,400.53h1686.9M-2.87,428.07h1686.9M-2.87,456.76h1686.9M-2.87,484.3h1686.9M-2.87,539.38h1686.9M-2.87,566.92h1686.9M-2.87,594.46h1686.9M-2.87,623.15h1686.9M-2.87,678.23h1686.9M-2.87,705.77h1686.9M-2.87,733.32h1686.9M-2.87,762h1686.9M-2.87,817.09h1686.9M-2.87,844.63h1686.9M-2.87,872.17h1686.9M-2.87,900.86h1686.9M-2.87,955.94h1686.9M-2.87,983.48h1686.9M-2.87,1011.02h1686.9"/>
          <path class="uuid-af41fc0d-ae7d-4f4c-9a65-94290494ac4c" d="m841.15-7.43v1037.38"/>
          <path class="uuid-ccd7c58a-d06c-4c59-800c-a620397ea02c" d="m841.42-8.57l-5.74,22.95h11.48"/>
          <path class="uuid-af41fc0d-ae7d-4f4c-9a65-94290494ac4c" d="m-3.45,511.26h1683.45"/>
          <path class="uuid-ccd7c58a-d06c-4c59-800c-a620397ea02c" d="m1681.15,511.74l-22.95-5.74v11.48"/>
          <g class="uuid-f34298fe-28b1-4c0f-b384-036e4deafbee">
            <path class="uuid-223aed57-e483-467e-b4e7-7cc40c4c41dd" d="m8.03,525.8v.28H1.14v-.28h6.89Z"/>
            <path class="uuid-223aed57-e483-467e-b4e7-7cc40c4c41dd" d="m14.27,521.42c-.2-.27-.42-.48-.67-.64-.25-.16-.51-.26-.77-.32-.27-.06-.52-.09-.76-.09-.7,0-1.26.17-1.69.52-.43.35-.76.79-1,1.32s-.39,1.11-.46,1.72c-.07.62-.11,1.19-.1,1.74h.03c.06-.33.19-.64.38-.92.19-.28.42-.53.69-.75.27-.22.58-.38.92-.5s.7-.18,1.07-.18c.4,0,.8.08,1.19.23.39.16.74.38,1.04.66.3.29.55.62.73,1.02.18.39.28.83.28,1.32s-.09.9-.26,1.29-.41.73-.71,1.02c-.3.29-.64.51-1.03.67-.39.16-.8.24-1.23.24-.32,0-.62-.04-.9-.12-.28-.08-.53-.19-.76-.33s-.43-.29-.61-.47c-.18-.17-.33-.35-.45-.54-.27-.41-.44-.88-.51-1.41-.07-.53-.11-1.09-.11-1.7s.05-1.17.17-1.78c.11-.61.3-1.16.57-1.65.27-.5.63-.9,1.08-1.21.45-.31,1.02-.47,1.71-.47.4,0,.77.06,1.11.19.33.12.63.29.87.5.25.21.45.46.61.75.16.29.26.6.3.93h-.28c-.09-.42-.24-.77-.43-1.04Zm.36,3.97c-.16-.36-.37-.67-.63-.94-.27-.27-.58-.48-.94-.63-.36-.16-.74-.23-1.16-.23s-.8.08-1.16.23c-.36.16-.67.37-.94.63-.27.27-.48.58-.63.94-.16.36-.23.74-.23,1.16s.08.8.23,1.16c.16.36.37.67.63.94.27.27.58.48.94.63.36.16.74.23,1.16.23s.8-.08,1.16-.23c.36-.16.67-.37.94-.63s.48-.58.63-.94c.16-.36.23-.74.23-1.16s-.08-.8-.23-1.16Z"/>
          </g>
          <g class="uuid-f34298fe-28b1-4c0f-b384-036e4deafbee">
            <path class="uuid-494638b8-caff-41d9-8b62-ad780c9ba6cc" d="m8.03,525.8v.28H1.14v-.28h6.89Z"/>
            <path class="uuid-494638b8-caff-41d9-8b62-ad780c9ba6cc" d="m14.27,521.42c-.2-.27-.42-.48-.67-.64-.25-.16-.51-.26-.77-.32-.27-.06-.52-.09-.76-.09-.7,0-1.26.17-1.69.52-.43.35-.76.79-1,1.32s-.39,1.11-.46,1.72c-.07.62-.11,1.19-.1,1.74h.03c.06-.33.19-.64.38-.92.19-.28.42-.53.69-.75.27-.22.58-.38.92-.5s.7-.18,1.07-.18c.4,0,.8.08,1.19.23.39.16.74.38,1.04.66.3.29.55.62.73,1.02.18.39.28.83.28,1.32s-.09.9-.26,1.29-.41.73-.71,1.02c-.3.29-.64.51-1.03.67-.39.16-.8.24-1.23.24-.32,0-.62-.04-.9-.12-.28-.08-.53-.19-.76-.33s-.43-.29-.61-.47c-.18-.17-.33-.35-.45-.54-.27-.41-.44-.88-.51-1.41-.07-.53-.11-1.09-.11-1.7s.05-1.17.17-1.78c.11-.61.3-1.16.57-1.65.27-.5.63-.9,1.08-1.21.45-.31,1.02-.47,1.71-.47.4,0,.77.06,1.11.19.33.12.63.29.87.5.25.21.45.46.61.75.16.29.26.6.3.93h-.28c-.09-.42-.24-.77-.43-1.04Zm.36,3.97c-.16-.36-.37-.67-.63-.94-.27-.27-.58-.48-.94-.63-.36-.16-.74-.23-1.16-.23s-.8.08-1.16.23c-.36.16-.67.37-.94.63-.27.27-.48.58-.63.94-.16.36-.23.74-.23,1.16s.08.8.23,1.16c.16.36.37.67.63.94.27.27.58.48.94.63.36.16.74.23,1.16.23s.8-.08,1.16-.23c.36-.16.67-.37.94-.63s.48-.58.63-.94c.16-.36.23-.74.23-1.16s-.08-.8-.23-1.16Z"/>
          </g>
          <g class="uuid-f34298fe-28b1-4c0f-b384-036e4deafbee">
            <path class="uuid-223aed57-e483-467e-b4e7-7cc40c4c41dd" d="m8.03,525.8v.28H1.14v-.28h6.89Z"/>
            <path class="uuid-223aed57-e483-467e-b4e7-7cc40c4c41dd" d="m14.27,521.42c-.2-.27-.42-.48-.67-.64-.25-.16-.51-.26-.77-.32-.27-.06-.52-.09-.76-.09-.7,0-1.26.17-1.69.52-.43.35-.76.79-1,1.32s-.39,1.11-.46,1.72c-.07.62-.11,1.19-.1,1.74h.03c.06-.33.19-.64.38-.92.19-.28.42-.53.69-.75.27-.22.58-.38.92-.5s.7-.18,1.07-.18c.4,0,.8.08,1.19.23.39.16.74.38,1.04.66.3.29.55.62.73,1.02.18.39.28.83.28,1.32s-.09.9-.26,1.29-.41.73-.71,1.02c-.3.29-.64.51-1.03.67-.39.16-.8.24-1.23.24-.32,0-.62-.04-.9-.12-.28-.08-.53-.19-.76-.33s-.43-.29-.61-.47c-.18-.17-.33-.35-.45-.54-.27-.41-.44-.88-.51-1.41-.07-.53-.11-1.09-.11-1.7s.05-1.17.17-1.78c.11-.61.3-1.16.57-1.65.27-.5.63-.9,1.08-1.21.45-.31,1.02-.47,1.71-.47.4,0,.77.06,1.11.19.33.12.63.29.87.5.25.21.45.46.61.75.16.29.26.6.3.93h-.28c-.09-.42-.24-.77-.43-1.04Zm.36,3.97c-.16-.36-.37-.67-.63-.94-.27-.27-.58-.48-.94-.63-.36-.16-.74-.23-1.16-.23s-.8.08-1.16.23c-.36.16-.67.37-.94.63-.27.27-.48.58-.63.94-.16.36-.23.74-.23,1.16s.08.8.23,1.16c.16.36.37.67.63.94.27.27.58.48.94.63.36.16.74.23,1.16.23s.8-.08,1.16-.23c.36-.16.67-.37.94-.63s.48-.58.63-.94c.16-.36.23-.74.23-1.16s-.08-.8-.23-1.16Z"/>
          </g>
          <g class="uuid-f34298fe-28b1-4c0f-b384-036e4deafbee">
            <path class="uuid-223aed57-e483-467e-b4e7-7cc40c4c41dd" d="m146.88,525.8v.28h-6.89v-.28h6.89Z"/>
            <path class="uuid-223aed57-e483-467e-b4e7-7cc40c4c41dd" d="m148.05,524.54h.03c.27-.44.62-.76,1.07-.96.45-.2.94-.3,1.49-.3.49,0,.93.08,1.32.24.39.16.73.38,1.02.67.28.29.5.63.66,1.03.16.4.23.83.23,1.3,0,.5-.08.95-.23,1.35-.16.4-.38.75-.66,1.03-.28.28-.62.5-1.02.65-.39.15-.84.23-1.32.23s-.92-.07-1.33-.21c-.41-.14-.76-.35-1.05-.61-.29-.27-.51-.59-.67-.98-.16-.39-.23-.84-.21-1.34h.28c-.02.46.04.87.18,1.23s.34.66.6.91c.26.25.58.44.96.56.38.13.79.19,1.24.19s.87-.07,1.23-.21c.36-.14.67-.34.93-.61.26-.26.45-.58.59-.95s.21-.78.21-1.23-.07-.83-.21-1.19c-.14-.36-.34-.67-.6-.94-.26-.26-.57-.47-.94-.61-.37-.15-.77-.22-1.21-.22-.55,0-1.06.12-1.53.37-.47.24-.83.6-1.09,1.07h-.34l1.01-4.72h4.81v.28h-4.59l-.85,4.01Z"/>
          </g>
          <g class="uuid-f34298fe-28b1-4c0f-b384-036e4deafbee">
            <path class="uuid-494638b8-caff-41d9-8b62-ad780c9ba6cc" d="m146.88,525.8v.28h-6.89v-.28h6.89Z"/>
            <path class="uuid-494638b8-caff-41d9-8b62-ad780c9ba6cc" d="m148.05,524.54h.03c.27-.44.62-.76,1.07-.96.45-.2.94-.3,1.49-.3.49,0,.93.08,1.32.24.39.16.73.38,1.02.67.28.29.5.63.66,1.03.16.4.23.83.23,1.3,0,.5-.08.95-.23,1.35-.16.4-.38.75-.66,1.03-.28.28-.62.5-1.02.65-.39.15-.84.23-1.32.23s-.92-.07-1.33-.21c-.41-.14-.76-.35-1.05-.61-.29-.27-.51-.59-.67-.98-.16-.39-.23-.84-.21-1.34h.28c-.02.46.04.87.18,1.23s.34.66.6.91c.26.25.58.44.96.56.38.13.79.19,1.24.19s.87-.07,1.23-.21c.36-.14.67-.34.93-.61.26-.26.45-.58.59-.95s.21-.78.21-1.23-.07-.83-.21-1.19c-.14-.36-.34-.67-.6-.94-.26-.26-.57-.47-.94-.61-.37-.15-.77-.22-1.21-.22-.55,0-1.06.12-1.53.37-.47.24-.83.6-1.09,1.07h-.34l1.01-4.72h4.81v.28h-4.59l-.85,4.01Z"/>
          </g>
          <g class="uuid-f34298fe-28b1-4c0f-b384-036e4deafbee">
            <path class="uuid-223aed57-e483-467e-b4e7-7cc40c4c41dd" d="m146.88,525.8v.28h-6.89v-.28h6.89Z"/>
            <path class="uuid-223aed57-e483-467e-b4e7-7cc40c4c41dd" d="m148.05,524.54h.03c.27-.44.62-.76,1.07-.96.45-.2.94-.3,1.49-.3.49,0,.93.08,1.32.24.39.16.73.38,1.02.67.28.29.5.63.66,1.03.16.4.23.83.23,1.3,0,.5-.08.95-.23,1.35-.16.4-.38.75-.66,1.03-.28.28-.62.5-1.02.65-.39.15-.84.23-1.32.23s-.92-.07-1.33-.21c-.41-.14-.76-.35-1.05-.61-.29-.27-.51-.59-.67-.98-.16-.39-.23-.84-.21-1.34h.28c-.02.46.04.87.18,1.23s.34.66.6.91c.26.25.58.44.96.56.38.13.79.19,1.24.19s.87-.07,1.23-.21c.36-.14.67-.34.93-.61.26-.26.45-.58.59-.95s.21-.78.21-1.23-.07-.83-.21-1.19c-.14-.36-.34-.67-.6-.94-.26-.26-.57-.47-.94-.61-.37-.15-.77-.22-1.21-.22-.55,0-1.06.12-1.53.37-.47.24-.83.6-1.09,1.07h-.34l1.01-4.72h4.81v.28h-4.59l-.85,4.01Z"/>
          </g>
          <g class="uuid-f34298fe-28b1-4c0f-b384-036e4deafbee">
            <path class="uuid-223aed57-e483-467e-b4e7-7cc40c4c41dd" d="m285.73,525.8v.28h-6.89v-.28h6.89Z"/>
            <path class="uuid-223aed57-e483-467e-b4e7-7cc40c4c41dd" d="m286.2,526.86l4.68-6.6h.34v6.65h1.69v.28h-1.69v2.44h-.28v-2.44h-4.75v-.33Zm4.72-6.21l-4.45,6.27h4.48v-6.27h-.03Z"/>
          </g>
          <g class="uuid-f34298fe-28b1-4c0f-b384-036e4deafbee">
            <path class="uuid-494638b8-caff-41d9-8b62-ad780c9ba6cc" d="m285.73,525.8v.28h-6.89v-.28h6.89Z"/>
            <path class="uuid-494638b8-caff-41d9-8b62-ad780c9ba6cc" d="m286.2,526.86l4.68-6.6h.34v6.65h1.69v.28h-1.69v2.44h-.28v-2.44h-4.75v-.33Zm4.72-6.21l-4.45,6.27h4.48v-6.27h-.03Z"/>
          </g>
          <g class="uuid-f34298fe-28b1-4c0f-b384-036e4deafbee">
            <path class="uuid-223aed57-e483-467e-b4e7-7cc40c4c41dd" d="m285.73,525.8v.28h-6.89v-.28h6.89Z"/>
            <path class="uuid-223aed57-e483-467e-b4e7-7cc40c4c41dd" d="m286.2,526.86l4.68-6.6h.34v6.65h1.69v.28h-1.69v2.44h-.28v-2.44h-4.75v-.33Zm4.72-6.21l-4.45,6.27h4.48v-6.27h-.03Z"/>
          </g>
          <g class="uuid-f34298fe-28b1-4c0f-b384-036e4deafbee">
            <path class="uuid-223aed57-e483-467e-b4e7-7cc40c4c41dd" d="m424.59,525.8v.28h-6.89v-.28h6.89Z"/>
            <path class="uuid-223aed57-e483-467e-b4e7-7cc40c4c41dd" d="m425.61,521.82c.15-.38.36-.7.64-.96.28-.26.62-.45,1.02-.58.4-.13.84-.19,1.33-.19.38,0,.74.04,1.09.12.35.08.66.22.94.4s.5.42.66.72c.17.29.25.65.25,1.06,0,.66-.19,1.17-.57,1.54-.38.37-.86.58-1.44.63v.03c.28.03.54.09.81.2.26.11.5.26.7.45s.37.44.5.74c.12.29.19.64.19,1.05,0,.44-.08.83-.25,1.17-.17.34-.4.63-.69.86-.29.23-.62.41-1.01.53-.38.12-.79.18-1.22.18-.53,0-1.01-.07-1.45-.22-.43-.15-.8-.36-1.1-.64s-.53-.63-.68-1.04c-.15-.41-.21-.89-.17-1.42h.28c-.04.5.01.93.15,1.31.14.38.34.7.62.96.28.26.61.45,1.02.59.4.13.85.2,1.34.2.38,0,.74-.05,1.09-.16.35-.11.66-.26.92-.47.27-.21.48-.47.64-.78.16-.31.24-.66.24-1.07s-.07-.75-.2-1.03c-.13-.28-.32-.52-.56-.7s-.53-.32-.85-.41-.68-.15-1.07-.17h-.67v-.28h.67c.3,0,.6-.03.9-.1.3-.07.57-.18.81-.34.24-.16.43-.37.58-.63.15-.26.22-.58.22-.97,0-.38-.09-.69-.25-.95s-.36-.47-.61-.63c-.25-.16-.53-.28-.84-.34-.31-.07-.63-.1-.96-.1-.45,0-.86.06-1.22.17-.36.12-.67.29-.93.52-.26.23-.45.53-.59.88-.13.35-.2.76-.19,1.23h-.28c0-.51.06-.96.21-1.34Z"/>
          </g>
          <g class="uuid-f34298fe-28b1-4c0f-b384-036e4deafbee">
            <path class="uuid-494638b8-caff-41d9-8b62-ad780c9ba6cc" d="m424.59,525.8v.28h-6.89v-.28h6.89Z"/>
            <path class="uuid-494638b8-caff-41d9-8b62-ad780c9ba6cc" d="m425.61,521.82c.15-.38.36-.7.64-.96.28-.26.62-.45,1.02-.58.4-.13.84-.19,1.33-.19.38,0,.74.04,1.09.12.35.08.66.22.94.4s.5.42.66.72c.17.29.25.65.25,1.06,0,.66-.19,1.17-.57,1.54-.38.37-.86.58-1.44.63v.03c.28.03.54.09.81.2.26.11.5.26.7.45s.37.44.5.74c.12.29.19.64.19,1.05,0,.44-.08.83-.25,1.17-.17.34-.4.63-.69.86-.29.23-.62.41-1.01.53-.38.12-.79.18-1.22.18-.53,0-1.01-.07-1.45-.22-.43-.15-.8-.36-1.1-.64s-.53-.63-.68-1.04c-.15-.41-.21-.89-.17-1.42h.28c-.04.5.01.93.15,1.31.14.38.34.7.62.96.28.26.61.45,1.02.59.4.13.85.2,1.34.2.38,0,.74-.05,1.09-.16.35-.11.66-.26.92-.47.27-.21.48-.47.64-.78.16-.31.24-.66.24-1.07s-.07-.75-.2-1.03c-.13-.28-.32-.52-.56-.7s-.53-.32-.85-.41-.68-.15-1.07-.17h-.67v-.28h.67c.3,0,.6-.03.9-.1.3-.07.57-.18.81-.34.24-.16.43-.37.58-.63.15-.26.22-.58.22-.97,0-.38-.09-.69-.25-.95s-.36-.47-.61-.63c-.25-.16-.53-.28-.84-.34-.31-.07-.63-.1-.96-.1-.45,0-.86.06-1.22.17-.36.12-.67.29-.93.52-.26.23-.45.53-.59.88-.13.35-.2.76-.19,1.23h-.28c0-.51.06-.96.21-1.34Z"/>
          </g>
          <g class="uuid-f34298fe-28b1-4c0f-b384-036e4deafbee">
            <path class="uuid-223aed57-e483-467e-b4e7-7cc40c4c41dd" d="m424.59,525.8v.28h-6.89v-.28h6.89Z"/>
            <path class="uuid-223aed57-e483-467e-b4e7-7cc40c4c41dd" d="m425.61,521.82c.15-.38.36-.7.64-.96.28-.26.62-.45,1.02-.58.4-.13.84-.19,1.33-.19.38,0,.74.04,1.09.12.35.08.66.22.94.4s.5.42.66.72c.17.29.25.65.25,1.06,0,.66-.19,1.17-.57,1.54-.38.37-.86.58-1.44.63v.03c.28.03.54.09.81.2.26.11.5.26.7.45s.37.44.5.74c.12.29.19.64.19,1.05,0,.44-.08.83-.25,1.17-.17.34-.4.63-.69.86-.29.23-.62.41-1.01.53-.38.12-.79.18-1.22.18-.53,0-1.01-.07-1.45-.22-.43-.15-.8-.36-1.1-.64s-.53-.63-.68-1.04c-.15-.41-.21-.89-.17-1.42h.28c-.04.5.01.93.15,1.31.14.38.34.7.62.96.28.26.61.45,1.02.59.4.13.85.2,1.34.2.38,0,.74-.05,1.09-.16.35-.11.66-.26.92-.47.27-.21.48-.47.64-.78.16-.31.24-.66.24-1.07s-.07-.75-.2-1.03c-.13-.28-.32-.52-.56-.7s-.53-.32-.85-.41-.68-.15-1.07-.17h-.67v-.28h.67c.3,0,.6-.03.9-.1.3-.07.57-.18.81-.34.24-.16.43-.37.58-.63.15-.26.22-.58.22-.97,0-.38-.09-.69-.25-.95s-.36-.47-.61-.63c-.25-.16-.53-.28-.84-.34-.31-.07-.63-.1-.96-.1-.45,0-.86.06-1.22.17-.36.12-.67.29-.93.52-.26.23-.45.53-.59.88-.13.35-.2.76-.19,1.23h-.28c0-.51.06-.96.21-1.34Z"/>
          </g>
          <g class="uuid-f34298fe-28b1-4c0f-b384-036e4deafbee">
            <path class="uuid-223aed57-e483-467e-b4e7-7cc40c4c41dd" d="m563.44,525.8v.28h-6.89v-.28h6.89Z"/>
            <path class="uuid-223aed57-e483-467e-b4e7-7cc40c4c41dd" d="m570.51,529.62h-6.31c0-.39.07-.75.25-1.07.17-.32.4-.62.69-.9.28-.28.6-.55.96-.8.35-.25.7-.5,1.05-.75.36-.25.71-.5,1.05-.76.34-.26.64-.53.91-.81.27-.28.48-.58.64-.9.16-.32.24-.66.24-1.03s-.07-.69-.2-.97c-.13-.28-.31-.51-.54-.7-.23-.19-.5-.33-.82-.43s-.66-.14-1.04-.14c-.49,0-.9.07-1.25.22-.35.15-.63.35-.85.61-.22.26-.38.57-.48.94-.1.36-.15.76-.15,1.19h-.28c0-1.03.26-1.83.76-2.39.5-.56,1.25-.85,2.25-.85.4,0,.78.05,1.13.16.35.11.65.26.91.48s.46.47.61.78c.15.31.23.68.23,1.1,0,.51-.14.98-.41,1.4s-.62.82-1.04,1.18-.87.71-1.36,1.04c-.49.33-.94.65-1.37.98-.43.33-.79.66-1.09,1.01-.3.34-.47.72-.51,1.12h6.03v.28Z"/>
          </g>
          <g class="uuid-f34298fe-28b1-4c0f-b384-036e4deafbee">
            <path class="uuid-494638b8-caff-41d9-8b62-ad780c9ba6cc" d="m563.44,525.8v.28h-6.89v-.28h6.89Z"/>
            <path class="uuid-494638b8-caff-41d9-8b62-ad780c9ba6cc" d="m570.51,529.62h-6.31c0-.39.07-.75.25-1.07.17-.32.4-.62.69-.9.28-.28.6-.55.96-.8.35-.25.7-.5,1.05-.75.36-.25.71-.5,1.05-.76.34-.26.64-.53.91-.81.27-.28.48-.58.64-.9.16-.32.24-.66.24-1.03s-.07-.69-.2-.97c-.13-.28-.31-.51-.54-.7-.23-.19-.5-.33-.82-.43s-.66-.14-1.04-.14c-.49,0-.9.07-1.25.22-.35.15-.63.35-.85.61-.22.26-.38.57-.48.94-.1.36-.15.76-.15,1.19h-.28c0-1.03.26-1.83.76-2.39.5-.56,1.25-.85,2.25-.85.4,0,.78.05,1.13.16.35.11.65.26.91.48s.46.47.61.78c.15.31.23.68.23,1.1,0,.51-.14.98-.41,1.4s-.62.82-1.04,1.18-.87.71-1.36,1.04c-.49.33-.94.65-1.37.98-.43.33-.79.66-1.09,1.01-.3.34-.47.72-.51,1.12h6.03v.28Z"/>
          </g>
          <g class="uuid-f34298fe-28b1-4c0f-b384-036e4deafbee">
            <path class="uuid-223aed57-e483-467e-b4e7-7cc40c4c41dd" d="m563.44,525.8v.28h-6.89v-.28h6.89Z"/>
            <path class="uuid-223aed57-e483-467e-b4e7-7cc40c4c41dd" d="m570.51,529.62h-6.31c0-.39.07-.75.25-1.07.17-.32.4-.62.69-.9.28-.28.6-.55.96-.8.35-.25.7-.5,1.05-.75.36-.25.71-.5,1.05-.76.34-.26.64-.53.91-.81.27-.28.48-.58.64-.9.16-.32.24-.66.24-1.03s-.07-.69-.2-.97c-.13-.28-.31-.51-.54-.7-.23-.19-.5-.33-.82-.43s-.66-.14-1.04-.14c-.49,0-.9.07-1.25.22-.35.15-.63.35-.85.61-.22.26-.38.57-.48.94-.1.36-.15.76-.15,1.19h-.28c0-1.03.26-1.83.76-2.39.5-.56,1.25-.85,2.25-.85.4,0,.78.05,1.13.16.35.11.65.26.91.48s.46.47.61.78c.15.31.23.68.23,1.1,0,.51-.14.98-.41,1.4s-.62.82-1.04,1.18-.87.71-1.36,1.04c-.49.33-.94.65-1.37.98-.43.33-.79.66-1.09,1.01-.3.34-.47.72-.51,1.12h6.03v.28Z"/>
          </g>
          <g class="uuid-f34298fe-28b1-4c0f-b384-036e4deafbee">
            <path class="uuid-223aed57-e483-467e-b4e7-7cc40c4c41dd" d="m702.29,525.8v.28h-6.89v-.28h6.89Z"/>
            <path class="uuid-223aed57-e483-467e-b4e7-7cc40c4c41dd" d="m706.37,520.62c-.28.39-.65.74-1.11,1.03-.45.29-.92.5-1.38.63v-.28c.28-.09.54-.19.76-.3.22-.11.43-.23.62-.37s.38-.29.56-.47c.18-.17.36-.37.56-.59h.3v9.36h-.28v-9.01h-.03Z"/>
          </g>
          <g class="uuid-f34298fe-28b1-4c0f-b384-036e4deafbee">
            <path class="uuid-494638b8-caff-41d9-8b62-ad780c9ba6cc" d="m702.29,525.8v.28h-6.89v-.28h6.89Z"/>
            <path class="uuid-494638b8-caff-41d9-8b62-ad780c9ba6cc" d="m706.37,520.62c-.28.39-.65.74-1.11,1.03-.45.29-.92.5-1.38.63v-.28c.28-.09.54-.19.76-.3.22-.11.43-.23.62-.37s.38-.29.56-.47c.18-.17.36-.37.56-.59h.3v9.36h-.28v-9.01h-.03Z"/>
          </g>
          <g class="uuid-f34298fe-28b1-4c0f-b384-036e4deafbee">
            <path class="uuid-223aed57-e483-467e-b4e7-7cc40c4c41dd" d="m702.29,525.8v.28h-6.89v-.28h6.89Z"/>
            <path class="uuid-223aed57-e483-467e-b4e7-7cc40c4c41dd" d="m706.37,520.62c-.28.39-.65.74-1.11,1.03-.45.29-.92.5-1.38.63v-.28c.28-.09.54-.19.76-.3.22-.11.43-.23.62-.37s.38-.29.56-.47c.18-.17.36-.37.56-.59h.3v9.36h-.28v-9.01h-.03Z"/>
          </g>
          <g class="uuid-f34298fe-28b1-4c0f-b384-036e4deafbee">
            <path class="uuid-223aed57-e483-467e-b4e7-7cc40c4c41dd" d="m980.63,520.62c-.28.39-.65.74-1.11,1.03-.45.29-.92.5-1.38.63v-.28c.28-.09.54-.19.76-.3.22-.11.43-.23.62-.37s.38-.29.56-.47c.18-.17.36-.37.56-.59h.3v9.36h-.28v-9.01h-.03Z"/>
          </g>
          <g class="uuid-f34298fe-28b1-4c0f-b384-036e4deafbee">
            <path class="uuid-494638b8-caff-41d9-8b62-ad780c9ba6cc" d="m980.63,520.62c-.28.39-.65.74-1.11,1.03-.45.29-.92.5-1.38.63v-.28c.28-.09.54-.19.76-.3.22-.11.43-.23.62-.37s.38-.29.56-.47c.18-.17.36-.37.56-.59h.3v9.36h-.28v-9.01h-.03Z"/>
          </g>
          <g class="uuid-f34298fe-28b1-4c0f-b384-036e4deafbee">
            <path class="uuid-223aed57-e483-467e-b4e7-7cc40c4c41dd" d="m980.63,520.62c-.28.39-.65.74-1.11,1.03-.45.29-.92.5-1.38.63v-.28c.28-.09.54-.19.76-.3.22-.11.43-.23.62-.37s.38-.29.56-.47c.18-.17.36-.37.56-.59h.3v9.36h-.28v-9.01h-.03Z"/>
          </g>
          <g class="uuid-f34298fe-28b1-4c0f-b384-036e4deafbee">
            <path class="uuid-223aed57-e483-467e-b4e7-7cc40c4c41dd" d="m1122.48,529.62h-6.31c0-.39.07-.75.25-1.07.17-.32.4-.62.69-.9.28-.28.6-.55.96-.8.35-.25.7-.5,1.05-.75.36-.25.71-.5,1.05-.76.34-.26.64-.53.91-.81.27-.28.48-.58.64-.9.16-.32.24-.66.24-1.03s-.07-.69-.2-.97c-.13-.28-.31-.51-.54-.7-.23-.19-.5-.33-.82-.43s-.66-.14-1.04-.14c-.49,0-.9.07-1.25.22-.35.15-.63.35-.85.61-.22.26-.38.57-.48.94-.1.36-.15.76-.15,1.19h-.28c0-1.03.26-1.83.76-2.39.5-.56,1.25-.85,2.25-.85.4,0,.78.05,1.13.16.35.11.65.26.91.48s.46.47.61.78c.15.31.23.68.23,1.1,0,.51-.14.98-.41,1.4s-.62.82-1.04,1.18-.87.71-1.36,1.04c-.49.33-.94.65-1.37.98-.43.33-.79.66-1.09,1.01-.3.34-.47.72-.51,1.12h6.03v.28Z"/>
          </g>
          <g class="uuid-f34298fe-28b1-4c0f-b384-036e4deafbee">
            <path class="uuid-494638b8-caff-41d9-8b62-ad780c9ba6cc" d="m1122.48,529.62h-6.31c0-.39.07-.75.25-1.07.17-.32.4-.62.69-.9.28-.28.6-.55.96-.8.35-.25.7-.5,1.05-.75.36-.25.71-.5,1.05-.76.34-.26.64-.53.91-.81.27-.28.48-.58.64-.9.16-.32.24-.66.24-1.03s-.07-.69-.2-.97c-.13-.28-.31-.51-.54-.7-.23-.19-.5-.33-.82-.43s-.66-.14-1.04-.14c-.49,0-.9.07-1.25.22-.35.15-.63.35-.85.61-.22.26-.38.57-.48.94-.1.36-.15.76-.15,1.19h-.28c0-1.03.26-1.83.76-2.39.5-.56,1.25-.85,2.25-.85.4,0,.78.05,1.13.16.35.11.65.26.91.48s.46.47.61.78c.15.31.23.68.23,1.1,0,.51-.14.98-.41,1.4s-.62.82-1.04,1.18-.87.71-1.36,1.04c-.49.33-.94.65-1.37.98-.43.33-.79.66-1.09,1.01-.3.34-.47.72-.51,1.12h6.03v.28Z"/>
          </g>
          <g class="uuid-f34298fe-28b1-4c0f-b384-036e4deafbee">
            <path class="uuid-223aed57-e483-467e-b4e7-7cc40c4c41dd" d="m1122.48,529.62h-6.31c0-.39.07-.75.25-1.07.17-.32.4-.62.69-.9.28-.28.6-.55.96-.8.35-.25.7-.5,1.05-.75.36-.25.71-.5,1.05-.76.34-.26.64-.53.91-.81.27-.28.48-.58.64-.9.16-.32.24-.66.24-1.03s-.07-.69-.2-.97c-.13-.28-.31-.51-.54-.7-.23-.19-.5-.33-.82-.43s-.66-.14-1.04-.14c-.49,0-.9.07-1.25.22-.35.15-.63.35-.85.61-.22.26-.38.57-.48.94-.1.36-.15.76-.15,1.19h-.28c0-1.03.26-1.83.76-2.39.5-.56,1.25-.85,2.25-.85.4,0,.78.05,1.13.16.35.11.65.26.91.48s.46.47.61.78c.15.31.23.68.23,1.1,0,.51-.14.98-.41,1.4s-.62.82-1.04,1.18-.87.71-1.36,1.04c-.49.33-.94.65-1.37.98-.43.33-.79.66-1.09,1.01-.3.34-.47.72-.51,1.12h6.03v.28Z"/>
          </g>
          <g class="uuid-f34298fe-28b1-4c0f-b384-036e4deafbee">
            <path class="uuid-223aed57-e483-467e-b4e7-7cc40c4c41dd" d="m1255.28,521.82c.15-.38.36-.7.64-.96.28-.26.62-.45,1.02-.58.4-.13.84-.19,1.33-.19.38,0,.74.04,1.09.12.35.08.66.22.94.4s.5.42.66.72c.17.29.25.65.25,1.06,0,.66-.19,1.17-.57,1.54-.38.37-.86.58-1.44.63v.03c.28.03.54.09.81.2.26.11.5.26.7.45s.37.44.5.74c.12.29.19.64.19,1.05,0,.44-.08.83-.25,1.17-.17.34-.4.63-.69.86-.29.23-.62.41-1.01.53-.38.12-.79.18-1.22.18-.53,0-1.01-.07-1.45-.22-.43-.15-.8-.36-1.1-.64s-.53-.63-.68-1.04c-.15-.41-.21-.89-.17-1.42h.28c-.04.5.01.93.15,1.31.14.38.34.7.62.96.28.26.61.45,1.02.59.4.13.85.2,1.34.2.38,0,.74-.05,1.09-.16.35-.11.66-.26.92-.47.27-.21.48-.47.64-.78.16-.31.24-.66.24-1.07s-.07-.75-.2-1.03c-.13-.28-.32-.52-.56-.7s-.53-.32-.85-.41-.68-.15-1.07-.17h-.67v-.28h.67c.3,0,.6-.03.9-.1.3-.07.57-.18.81-.34.24-.16.43-.37.58-.63.15-.26.22-.58.22-.97,0-.38-.09-.69-.25-.95s-.36-.47-.61-.63c-.25-.16-.53-.28-.84-.34-.31-.07-.63-.1-.96-.1-.45,0-.86.06-1.22.17-.36.12-.67.29-.93.52-.26.23-.45.53-.59.88-.13.35-.2.76-.19,1.23h-.28c0-.51.06-.96.21-1.34Z"/>
          </g>
          <g class="uuid-f34298fe-28b1-4c0f-b384-036e4deafbee">
            <path class="uuid-494638b8-caff-41d9-8b62-ad780c9ba6cc" d="m1255.28,521.82c.15-.38.36-.7.64-.96.28-.26.62-.45,1.02-.58.4-.13.84-.19,1.33-.19.38,0,.74.04,1.09.12.35.08.66.22.94.4s.5.42.66.72c.17.29.25.65.25,1.06,0,.66-.19,1.17-.57,1.54-.38.37-.86.58-1.44.63v.03c.28.03.54.09.81.2.26.11.5.26.7.45s.37.44.5.74c.12.29.19.64.19,1.05,0,.44-.08.83-.25,1.17-.17.34-.4.63-.69.86-.29.23-.62.41-1.01.53-.38.12-.79.18-1.22.18-.53,0-1.01-.07-1.45-.22-.43-.15-.8-.36-1.1-.64s-.53-.63-.68-1.04c-.15-.41-.21-.89-.17-1.42h.28c-.04.5.01.93.15,1.31.14.38.34.7.62.96.28.26.61.45,1.02.59.4.13.85.2,1.34.2.38,0,.74-.05,1.09-.16.35-.11.66-.26.92-.47.27-.21.48-.47.64-.78.16-.31.24-.66.24-1.07s-.07-.75-.2-1.03c-.13-.28-.32-.52-.56-.7s-.53-.32-.85-.41-.68-.15-1.07-.17h-.67v-.28h.67c.3,0,.6-.03.9-.1.3-.07.57-.18.81-.34.24-.16.43-.37.58-.63.15-.26.22-.58.22-.97,0-.38-.09-.69-.25-.95s-.36-.47-.61-.63c-.25-.16-.53-.28-.84-.34-.31-.07-.63-.1-.96-.1-.45,0-.86.06-1.22.17-.36.12-.67.29-.93.52-.26.23-.45.53-.59.88-.13.35-.2.76-.19,1.23h-.28c0-.51.06-.96.21-1.34Z"/>
          </g>
          <g class="uuid-f34298fe-28b1-4c0f-b384-036e4deafbee">
            <path class="uuid-223aed57-e483-467e-b4e7-7cc40c4c41dd" d="m1255.28,521.82c.15-.38.36-.7.64-.96.28-.26.62-.45,1.02-.58.4-.13.84-.19,1.33-.19.38,0,.74.04,1.09.12.35.08.66.22.94.4s.5.42.66.72c.17.29.25.65.25,1.06,0,.66-.19,1.17-.57,1.54-.38.37-.86.58-1.44.63v.03c.28.03.54.09.81.2.26.11.5.26.7.45s.37.44.5.74c.12.29.19.64.19,1.05,0,.44-.08.83-.25,1.17-.17.34-.4.63-.69.86-.29.23-.62.41-1.01.53-.38.12-.79.18-1.22.18-.53,0-1.01-.07-1.45-.22-.43-.15-.8-.36-1.1-.64s-.53-.63-.68-1.04c-.15-.41-.21-.89-.17-1.42h.28c-.04.5.01.93.15,1.31.14.38.34.7.62.96.28.26.61.45,1.02.59.4.13.85.2,1.34.2.38,0,.74-.05,1.09-.16.35-.11.66-.26.92-.47.27-.21.48-.47.64-.78.16-.31.24-.66.24-1.07s-.07-.75-.2-1.03c-.13-.28-.32-.52-.56-.7s-.53-.32-.85-.41-.68-.15-1.07-.17h-.67v-.28h.67c.3,0,.6-.03.9-.1.3-.07.57-.18.81-.34.24-.16.43-.37.58-.63.15-.26.22-.58.22-.97,0-.38-.09-.69-.25-.95s-.36-.47-.61-.63c-.25-.16-.53-.28-.84-.34-.31-.07-.63-.1-.96-.1-.45,0-.86.06-1.22.17-.36.12-.67.29-.93.52-.26.23-.45.53-.59.88-.13.35-.2.76-.19,1.23h-.28c0-.51.06-.96.21-1.34Z"/>
          </g>
          <g class="uuid-f34298fe-28b1-4c0f-b384-036e4deafbee">
            <path class="uuid-223aed57-e483-467e-b4e7-7cc40c4c41dd" d="m1393.59,526.86l4.68-6.6h.34v6.65h1.69v.28h-1.69v2.44h-.28v-2.44h-4.75v-.33Zm4.72-6.21l-4.45,6.27h4.48v-6.27h-.03Z"/>
          </g>
          <g class="uuid-f34298fe-28b1-4c0f-b384-036e4deafbee">
            <path class="uuid-494638b8-caff-41d9-8b62-ad780c9ba6cc" d="m1393.59,526.86l4.68-6.6h.34v6.65h1.69v.28h-1.69v2.44h-.28v-2.44h-4.75v-.33Zm4.72-6.21l-4.45,6.27h4.48v-6.27h-.03Z"/>
          </g>
          <g class="uuid-f34298fe-28b1-4c0f-b384-036e4deafbee">
            <path class="uuid-223aed57-e483-467e-b4e7-7cc40c4c41dd" d="m1393.59,526.86l4.68-6.6h.34v6.65h1.69v.28h-1.69v2.44h-.28v-2.44h-4.75v-.33Zm4.72-6.21l-4.45,6.27h4.48v-6.27h-.03Z"/>
          </g>
          <g class="uuid-f34298fe-28b1-4c0f-b384-036e4deafbee">
            <path class="uuid-223aed57-e483-467e-b4e7-7cc40c4c41dd" d="m1533.14,524.54h.03c.27-.44.62-.76,1.07-.96s.94-.3,1.49-.3c.49,0,.93.08,1.32.24.39.16.73.38,1.02.67.28.29.5.63.66,1.03s.23.83.23,1.3c0,.5-.08.95-.23,1.35-.16.4-.38.75-.66,1.03-.28.28-.62.5-1.02.65-.4.15-.84.23-1.32.23s-.92-.07-1.33-.21c-.41-.14-.76-.35-1.05-.61-.29-.27-.51-.59-.67-.98-.16-.39-.23-.84-.21-1.34h.28c-.02.46.04.87.18,1.23s.34.66.6.91c.26.25.58.44.96.56s.79.19,1.24.19.87-.07,1.23-.21c.36-.14.67-.34.93-.61.26-.26.45-.58.59-.95s.21-.78.21-1.23-.07-.83-.21-1.19c-.14-.36-.34-.67-.6-.94-.26-.26-.57-.47-.94-.61-.37-.15-.77-.22-1.21-.22-.55,0-1.06.12-1.53.37s-.83.6-1.09,1.07h-.34l1-4.72h4.81v.28h-4.59l-.85,4.01Z"/>
          </g>
          <g class="uuid-f34298fe-28b1-4c0f-b384-036e4deafbee">
            <path class="uuid-494638b8-caff-41d9-8b62-ad780c9ba6cc" d="m1533.14,524.54h.03c.27-.44.62-.76,1.07-.96s.94-.3,1.49-.3c.49,0,.93.08,1.32.24.39.16.73.38,1.02.67.28.29.5.63.66,1.03s.23.83.23,1.3c0,.5-.08.95-.23,1.35-.16.4-.38.75-.66,1.03-.28.28-.62.5-1.02.65-.4.15-.84.23-1.32.23s-.92-.07-1.33-.21c-.41-.14-.76-.35-1.05-.61-.29-.27-.51-.59-.67-.98-.16-.39-.23-.84-.21-1.34h.28c-.02.46.04.87.18,1.23s.34.66.6.91c.26.25.58.44.96.56s.79.19,1.24.19.87-.07,1.23-.21c.36-.14.67-.34.93-.61.26-.26.45-.58.59-.95s.21-.78.21-1.23-.07-.83-.21-1.19c-.14-.36-.34-.67-.6-.94-.26-.26-.57-.47-.94-.61-.37-.15-.77-.22-1.21-.22-.55,0-1.06.12-1.53.37s-.83.6-1.09,1.07h-.34l1-4.72h4.81v.28h-4.59l-.85,4.01Z"/>
          </g>
          <g class="uuid-f34298fe-28b1-4c0f-b384-036e4deafbee">
            <path class="uuid-223aed57-e483-467e-b4e7-7cc40c4c41dd" d="m1533.14,524.54h.03c.27-.44.62-.76,1.07-.96s.94-.3,1.49-.3c.49,0,.93.08,1.32.24.39.16.73.38,1.02.67.28.29.5.63.66,1.03s.23.83.23,1.3c0,.5-.08.95-.23,1.35-.16.4-.38.75-.66,1.03-.28.28-.62.5-1.02.65-.4.15-.84.23-1.32.23s-.92-.07-1.33-.21c-.41-.14-.76-.35-1.05-.61-.29-.27-.51-.59-.67-.98-.16-.39-.23-.84-.21-1.34h.28c-.02.46.04.87.18,1.23s.34.66.6.91c.26.25.58.44.96.56s.79.19,1.24.19.87-.07,1.23-.21c.36-.14.67-.34.93-.61.26-.26.45-.58.59-.95s.21-.78.21-1.23-.07-.83-.21-1.19c-.14-.36-.34-.67-.6-.94-.26-.26-.57-.47-.94-.61-.37-.15-.77-.22-1.21-.22-.55,0-1.06.12-1.53.37s-.83.6-1.09,1.07h-.34l1-4.72h4.81v.28h-4.59l-.85,4.01Z"/>
          </g>
          <g class="uuid-f34298fe-28b1-4c0f-b384-036e4deafbee">
            <path class="uuid-223aed57-e483-467e-b4e7-7cc40c4c41dd" d="m825.08,929.73v.28h-6.89v-.28h6.89Z"/>
            <path class="uuid-223aed57-e483-467e-b4e7-7cc40c4c41dd" d="m826.1,925.76c.15-.38.36-.7.64-.96.28-.26.62-.45,1.02-.58.4-.13.84-.19,1.33-.19.38,0,.74.04,1.09.12.35.08.66.22.94.4s.5.42.66.72c.17.29.25.65.25,1.06,0,.66-.19,1.17-.57,1.54-.38.37-.86.58-1.44.63v.03c.28.03.54.09.81.2.26.11.5.26.7.45s.37.44.5.74c.12.29.19.64.19,1.05,0,.44-.08.83-.25,1.17-.17.34-.4.63-.69.86-.29.23-.62.41-1.01.53-.38.12-.79.18-1.22.18-.53,0-1.01-.07-1.45-.22-.43-.15-.8-.36-1.1-.64s-.53-.63-.68-1.04c-.15-.41-.21-.89-.17-1.42h.28c-.04.5.01.93.15,1.31.14.38.34.7.62.96.28.26.61.45,1.02.59.4.13.85.2,1.34.2.38,0,.74-.05,1.09-.16.35-.11.66-.26.92-.47.27-.21.48-.47.64-.78.16-.31.24-.66.24-1.07s-.07-.75-.2-1.03c-.13-.28-.32-.52-.56-.7s-.53-.32-.85-.41-.68-.15-1.07-.17h-.67v-.28h.67c.3,0,.6-.03.9-.1.3-.07.57-.18.81-.34.24-.16.43-.37.58-.63.15-.26.22-.58.22-.97,0-.38-.09-.69-.25-.95s-.36-.47-.61-.63c-.25-.16-.53-.28-.84-.34-.31-.07-.63-.1-.96-.1-.45,0-.86.06-1.22.17-.36.12-.67.29-.93.52-.26.23-.45.53-.59.88-.13.35-.2.76-.19,1.23h-.28c0-.51.06-.96.21-1.34Z"/>
          </g>
          <g class="uuid-f34298fe-28b1-4c0f-b384-036e4deafbee">
            <path class="uuid-494638b8-caff-41d9-8b62-ad780c9ba6cc" d="m825.08,929.73v.28h-6.89v-.28h6.89Z"/>
            <path class="uuid-494638b8-caff-41d9-8b62-ad780c9ba6cc" d="m826.1,925.76c.15-.38.36-.7.64-.96.28-.26.62-.45,1.02-.58.4-.13.84-.19,1.33-.19.38,0,.74.04,1.09.12.35.08.66.22.94.4s.5.42.66.72c.17.29.25.65.25,1.06,0,.66-.19,1.17-.57,1.54-.38.37-.86.58-1.44.63v.03c.28.03.54.09.81.2.26.11.5.26.7.45s.37.44.5.74c.12.29.19.64.19,1.05,0,.44-.08.83-.25,1.17-.17.34-.4.63-.69.86-.29.23-.62.41-1.01.53-.38.12-.79.18-1.22.18-.53,0-1.01-.07-1.45-.22-.43-.15-.8-.36-1.1-.64s-.53-.63-.68-1.04c-.15-.41-.21-.89-.17-1.42h.28c-.04.5.01.93.15,1.31.14.38.34.7.62.96.28.26.61.45,1.02.59.4.13.85.2,1.34.2.38,0,.74-.05,1.09-.16.35-.11.66-.26.92-.47.27-.21.48-.47.64-.78.16-.31.24-.66.24-1.07s-.07-.75-.2-1.03c-.13-.28-.32-.52-.56-.7s-.53-.32-.85-.41-.68-.15-1.07-.17h-.67v-.28h.67c.3,0,.6-.03.9-.1.3-.07.57-.18.81-.34.24-.16.43-.37.58-.63.15-.26.22-.58.22-.97,0-.38-.09-.69-.25-.95s-.36-.47-.61-.63c-.25-.16-.53-.28-.84-.34-.31-.07-.63-.1-.96-.1-.45,0-.86.06-1.22.17-.36.12-.67.29-.93.52-.26.23-.45.53-.59.88-.13.35-.2.76-.19,1.23h-.28c0-.51.06-.96.21-1.34Z"/>
          </g>
          <g class="uuid-f34298fe-28b1-4c0f-b384-036e4deafbee">
            <path class="uuid-223aed57-e483-467e-b4e7-7cc40c4c41dd" d="m825.08,929.73v.28h-6.89v-.28h6.89Z"/>
            <path class="uuid-223aed57-e483-467e-b4e7-7cc40c4c41dd" d="m826.1,925.76c.15-.38.36-.7.64-.96.28-.26.62-.45,1.02-.58.4-.13.84-.19,1.33-.19.38,0,.74.04,1.09.12.35.08.66.22.94.4s.5.42.66.72c.17.29.25.65.25,1.06,0,.66-.19,1.17-.57,1.54-.38.37-.86.58-1.44.63v.03c.28.03.54.09.81.2.26.11.5.26.7.45s.37.44.5.74c.12.29.19.64.19,1.05,0,.44-.08.83-.25,1.17-.17.34-.4.63-.69.86-.29.23-.62.41-1.01.53-.38.12-.79.18-1.22.18-.53,0-1.01-.07-1.45-.22-.43-.15-.8-.36-1.1-.64s-.53-.63-.68-1.04c-.15-.41-.21-.89-.17-1.42h.28c-.04.5.01.93.15,1.31.14.38.34.7.62.96.28.26.61.45,1.02.59.4.13.85.2,1.34.2.38,0,.74-.05,1.09-.16.35-.11.66-.26.92-.47.27-.21.48-.47.64-.78.16-.31.24-.66.24-1.07s-.07-.75-.2-1.03c-.13-.28-.32-.52-.56-.7s-.53-.32-.85-.41-.68-.15-1.07-.17h-.67v-.28h.67c.3,0,.6-.03.9-.1.3-.07.57-.18.81-.34.24-.16.43-.37.58-.63.15-.26.22-.58.22-.97,0-.38-.09-.69-.25-.95s-.36-.47-.61-.63c-.25-.16-.53-.28-.84-.34-.31-.07-.63-.1-.96-.1-.45,0-.86.06-1.22.17-.36.12-.67.29-.93.52-.26.23-.45.53-.59.88-.13.35-.2.76-.19,1.23h-.28c0-.51.06-.96.21-1.34Z"/>
          </g>
          <g class="uuid-f34298fe-28b1-4c0f-b384-036e4deafbee">
            <path class="uuid-223aed57-e483-467e-b4e7-7cc40c4c41dd" d="m825.08,790.88v.28h-6.89v-.28h6.89Z"/>
            <path class="uuid-223aed57-e483-467e-b4e7-7cc40c4c41dd" d="m832.15,794.71h-6.31c0-.39.07-.75.25-1.07.17-.32.4-.62.69-.9.28-.28.6-.55.96-.8.35-.25.7-.5,1.05-.75.36-.25.71-.5,1.05-.76.34-.26.64-.53.91-.81.27-.28.48-.58.64-.9.16-.32.24-.66.24-1.03s-.07-.69-.2-.97c-.13-.28-.31-.51-.54-.7-.23-.19-.5-.33-.82-.43s-.66-.14-1.04-.14c-.49,0-.9.07-1.25.22-.35.15-.63.35-.85.61-.22.26-.38.57-.48.94-.1.36-.15.76-.15,1.19h-.28c0-1.03.26-1.83.76-2.39.5-.56,1.25-.85,2.25-.85.4,0,.78.05,1.13.16.35.11.65.26.91.48s.46.47.61.78c.15.31.23.68.23,1.1,0,.51-.14.98-.41,1.4s-.62.82-1.04,1.18-.87.71-1.36,1.04c-.49.33-.94.65-1.37.98-.43.33-.79.66-1.09,1.01-.3.34-.47.72-.51,1.12h6.03v.28Z"/>
          </g>
          <g class="uuid-f34298fe-28b1-4c0f-b384-036e4deafbee">
            <path class="uuid-494638b8-caff-41d9-8b62-ad780c9ba6cc" d="m825.08,790.88v.28h-6.89v-.28h6.89Z"/>
            <path class="uuid-494638b8-caff-41d9-8b62-ad780c9ba6cc" d="m832.15,794.71h-6.31c0-.39.07-.75.25-1.07.17-.32.4-.62.69-.9.28-.28.6-.55.96-.8.35-.25.7-.5,1.05-.75.36-.25.71-.5,1.05-.76.34-.26.64-.53.91-.81.27-.28.48-.58.64-.9.16-.32.24-.66.24-1.03s-.07-.69-.2-.97c-.13-.28-.31-.51-.54-.7-.23-.19-.5-.33-.82-.43s-.66-.14-1.04-.14c-.49,0-.9.07-1.25.22-.35.15-.63.35-.85.61-.22.26-.38.57-.48.94-.1.36-.15.76-.15,1.19h-.28c0-1.03.26-1.83.76-2.39.5-.56,1.25-.85,2.25-.85.4,0,.78.05,1.13.16.35.11.65.26.91.48s.46.47.61.78c.15.31.23.68.23,1.1,0,.51-.14.98-.41,1.4s-.62.82-1.04,1.18-.87.71-1.36,1.04c-.49.33-.94.65-1.37.98-.43.33-.79.66-1.09,1.01-.3.34-.47.72-.51,1.12h6.03v.28Z"/>
          </g>
          <g class="uuid-f34298fe-28b1-4c0f-b384-036e4deafbee">
            <path class="uuid-223aed57-e483-467e-b4e7-7cc40c4c41dd" d="m825.08,790.88v.28h-6.89v-.28h6.89Z"/>
            <path class="uuid-223aed57-e483-467e-b4e7-7cc40c4c41dd" d="m832.15,794.71h-6.31c0-.39.07-.75.25-1.07.17-.32.4-.62.69-.9.28-.28.6-.55.96-.8.35-.25.7-.5,1.05-.75.36-.25.71-.5,1.05-.76.34-.26.64-.53.91-.81.27-.28.48-.58.64-.9.16-.32.24-.66.24-1.03s-.07-.69-.2-.97c-.13-.28-.31-.51-.54-.7-.23-.19-.5-.33-.82-.43s-.66-.14-1.04-.14c-.49,0-.9.07-1.25.22-.35.15-.63.35-.85.61-.22.26-.38.57-.48.94-.1.36-.15.76-.15,1.19h-.28c0-1.03.26-1.83.76-2.39.5-.56,1.25-.85,2.25-.85.4,0,.78.05,1.13.16.35.11.65.26.91.48s.46.47.61.78c.15.31.23.68.23,1.1,0,.51-.14.98-.41,1.4s-.62.82-1.04,1.18-.87.71-1.36,1.04c-.49.33-.94.65-1.37.98-.43.33-.79.66-1.09,1.01-.3.34-.47.72-.51,1.12h6.03v.28Z"/>
          </g>
          <g class="uuid-f34298fe-28b1-4c0f-b384-036e4deafbee">
            <path class="uuid-223aed57-e483-467e-b4e7-7cc40c4c41dd" d="m825.08,652.03v.28h-6.89v-.28h6.89Z"/>
            <path class="uuid-223aed57-e483-467e-b4e7-7cc40c4c41dd" d="m829.16,646.85c-.28.39-.65.74-1.11,1.03-.45.29-.92.5-1.38.63v-.28c.28-.09.54-.19.76-.3.22-.11.43-.23.62-.37s.38-.29.56-.47c.18-.17.36-.37.56-.59h.3v9.36h-.28v-9.01h-.03Z"/>
          </g>
          <g class="uuid-f34298fe-28b1-4c0f-b384-036e4deafbee">
            <path class="uuid-494638b8-caff-41d9-8b62-ad780c9ba6cc" d="m825.08,652.03v.28h-6.89v-.28h6.89Z"/>
            <path class="uuid-494638b8-caff-41d9-8b62-ad780c9ba6cc" d="m829.16,646.85c-.28.39-.65.74-1.11,1.03-.45.29-.92.5-1.38.63v-.28c.28-.09.54-.19.76-.3.22-.11.43-.23.62-.37s.38-.29.56-.47c.18-.17.36-.37.56-.59h.3v9.36h-.28v-9.01h-.03Z"/>
          </g>
          <g class="uuid-f34298fe-28b1-4c0f-b384-036e4deafbee">
            <path class="uuid-223aed57-e483-467e-b4e7-7cc40c4c41dd" d="m825.08,652.03v.28h-6.89v-.28h6.89Z"/>
            <path class="uuid-223aed57-e483-467e-b4e7-7cc40c4c41dd" d="m829.16,646.85c-.28.39-.65.74-1.11,1.03-.45.29-.92.5-1.38.63v-.28c.28-.09.54-.19.76-.3.22-.11.43-.23.62-.37s.38-.29.56-.47c.18-.17.36-.37.56-.59h.3v9.36h-.28v-9.01h-.03Z"/>
          </g>
          <g class="uuid-f34298fe-28b1-4c0f-b384-036e4deafbee">
            <path class="uuid-223aed57-e483-467e-b4e7-7cc40c4c41dd" d="m829.16,369.14c-.28.39-.65.74-1.11,1.03s-.92.5-1.38.63v-.28c.28-.09.54-.19.76-.3.22-.11.43-.23.62-.37s.38-.29.56-.47c.18-.17.36-.37.56-.59h.3v9.36h-.28v-9.01h-.03Z"/>
          </g>
          <g class="uuid-f34298fe-28b1-4c0f-b384-036e4deafbee">
            <path class="uuid-494638b8-caff-41d9-8b62-ad780c9ba6cc" d="m829.16,369.14c-.28.39-.65.74-1.11,1.03s-.92.5-1.38.63v-.28c.28-.09.54-.19.76-.3.22-.11.43-.23.62-.37s.38-.29.56-.47c.18-.17.36-.37.56-.59h.3v9.36h-.28v-9.01h-.03Z"/>
          </g>
          <g class="uuid-f34298fe-28b1-4c0f-b384-036e4deafbee">
            <path class="uuid-223aed57-e483-467e-b4e7-7cc40c4c41dd" d="m829.16,369.14c-.28.39-.65.74-1.11,1.03s-.92.5-1.38.63v-.28c.28-.09.54-.19.76-.3.22-.11.43-.23.62-.37s.38-.29.56-.47c.18-.17.36-.37.56-.59h.3v9.36h-.28v-9.01h-.03Z"/>
          </g>
          <g class="uuid-f34298fe-28b1-4c0f-b384-036e4deafbee">
            <path class="uuid-223aed57-e483-467e-b4e7-7cc40c4c41dd" d="m832.15,239.3h-6.31c0-.39.07-.75.25-1.07.17-.32.4-.62.69-.9.28-.28.6-.55.96-.8.35-.25.7-.5,1.05-.75.36-.25.71-.5,1.05-.76.34-.26.64-.53.91-.81.27-.28.48-.58.64-.9.16-.32.24-.66.24-1.03s-.07-.69-.2-.97c-.13-.28-.31-.51-.54-.7-.23-.19-.5-.33-.82-.43-.32-.1-.66-.14-1.04-.14-.49,0-.9.07-1.25.22-.35.15-.63.35-.85.61-.22.26-.38.57-.48.94-.1.36-.15.76-.15,1.19h-.28c0-1.03.26-1.82.76-2.39.5-.56,1.25-.85,2.25-.85.4,0,.78.05,1.13.16.35.11.65.26.91.48.26.21.46.47.61.79.15.31.23.68.23,1.1,0,.51-.14.98-.41,1.4s-.62.82-1.04,1.18-.87.71-1.36,1.04c-.49.33-.94.65-1.37.98-.43.33-.79.66-1.09,1-.3.34-.47.72-.51,1.12h6.03v.28Z"/>
          </g>
          <g class="uuid-f34298fe-28b1-4c0f-b384-036e4deafbee">
            <path class="uuid-494638b8-caff-41d9-8b62-ad780c9ba6cc" d="m832.15,239.3h-6.31c0-.39.07-.75.25-1.07.17-.32.4-.62.69-.9.28-.28.6-.55.96-.8.35-.25.7-.5,1.05-.75.36-.25.71-.5,1.05-.76.34-.26.64-.53.91-.81.27-.28.48-.58.64-.9.16-.32.24-.66.24-1.03s-.07-.69-.2-.97c-.13-.28-.31-.51-.54-.7-.23-.19-.5-.33-.82-.43-.32-.1-.66-.14-1.04-.14-.49,0-.9.07-1.25.22-.35.15-.63.35-.85.61-.22.26-.38.57-.48.94-.1.36-.15.76-.15,1.19h-.28c0-1.03.26-1.82.76-2.39.5-.56,1.25-.85,2.25-.85.4,0,.78.05,1.13.16.35.11.65.26.91.48.26.21.46.47.61.79.15.31.23.68.23,1.1,0,.51-.14.98-.41,1.4s-.62.82-1.04,1.18-.87.71-1.36,1.04c-.49.33-.94.65-1.37.98-.43.33-.79.66-1.09,1-.3.34-.47.72-.51,1.12h6.03v.28Z"/>
          </g>
          <g class="uuid-f34298fe-28b1-4c0f-b384-036e4deafbee">
            <path class="uuid-223aed57-e483-467e-b4e7-7cc40c4c41dd" d="m832.15,239.3h-6.31c0-.39.07-.75.25-1.07.17-.32.4-.62.69-.9.28-.28.6-.55.96-.8.35-.25.7-.5,1.05-.75.36-.25.71-.5,1.05-.76.34-.26.64-.53.91-.81.27-.28.48-.58.64-.9.16-.32.24-.66.24-1.03s-.07-.69-.2-.97c-.13-.28-.31-.51-.54-.7-.23-.19-.5-.33-.82-.43-.32-.1-.66-.14-1.04-.14-.49,0-.9.07-1.25.22-.35.15-.63.35-.85.61-.22.26-.38.57-.48.94-.1.36-.15.76-.15,1.19h-.28c0-1.03.26-1.82.76-2.39.5-.56,1.25-.85,2.25-.85.4,0,.78.05,1.13.16.35.11.65.26.91.48.26.21.46.47.61.79.15.31.23.68.23,1.1,0,.51-.14.98-.41,1.4s-.62.82-1.04,1.18-.87.71-1.36,1.04c-.49.33-.94.65-1.37.98-.43.33-.79.66-1.09,1-.3.34-.47.72-.51,1.12h6.03v.28Z"/>
          </g>
          <g class="uuid-f34298fe-28b1-4c0f-b384-036e4deafbee">
            <path class="uuid-223aed57-e483-467e-b4e7-7cc40c4c41dd" d="m826.1,92.64c.15-.38.36-.7.64-.96.28-.26.62-.45,1.02-.58.4-.13.84-.19,1.33-.19.38,0,.74.04,1.09.12.35.08.66.22.94.4s.5.42.66.72c.17.29.25.65.25,1.06,0,.66-.19,1.18-.57,1.54-.38.37-.86.58-1.44.63v.03c.28.03.54.09.81.2.26.11.5.26.7.45s.37.44.5.74c.12.29.19.64.19,1.05,0,.44-.08.83-.25,1.17-.17.34-.4.63-.69.86-.29.23-.62.41-1.01.53-.38.12-.79.18-1.22.18-.53,0-1.01-.07-1.45-.22-.43-.15-.8-.36-1.1-.64-.3-.28-.53-.63-.68-1.04-.15-.41-.21-.89-.17-1.42h.28c-.04.5.01.93.15,1.31s.34.7.62.96.61.45,1.02.58c.4.13.85.2,1.34.2.38,0,.74-.05,1.09-.16.35-.11.66-.26.92-.48.27-.21.48-.47.64-.78.16-.31.24-.66.24-1.07s-.07-.75-.2-1.03-.32-.52-.56-.7-.53-.32-.85-.41c-.33-.09-.68-.15-1.07-.17h-.67v-.28h.67c.3,0,.6-.03.9-.1.3-.07.57-.18.81-.34.24-.16.43-.37.58-.63.15-.26.22-.58.22-.97,0-.38-.09-.69-.25-.95-.16-.26-.36-.47-.61-.63-.25-.16-.53-.28-.84-.34-.31-.07-.63-.1-.96-.1-.45,0-.86.06-1.22.17-.36.11-.67.29-.93.52-.26.23-.45.53-.59.87-.13.35-.2.76-.19,1.23h-.28c0-.51.06-.96.21-1.34Z"/>
          </g>
          <g class="uuid-f34298fe-28b1-4c0f-b384-036e4deafbee">
            <path class="uuid-494638b8-caff-41d9-8b62-ad780c9ba6cc" d="m826.1,92.64c.15-.38.36-.7.64-.96.28-.26.62-.45,1.02-.58.4-.13.84-.19,1.33-.19.38,0,.74.04,1.09.12.35.08.66.22.94.4s.5.42.66.72c.17.29.25.65.25,1.06,0,.66-.19,1.18-.57,1.54-.38.37-.86.58-1.44.63v.03c.28.03.54.09.81.2.26.11.5.26.7.45s.37.44.5.74c.12.29.19.64.19,1.05,0,.44-.08.83-.25,1.17-.17.34-.4.63-.69.86-.29.23-.62.41-1.01.53-.38.12-.79.18-1.22.18-.53,0-1.01-.07-1.45-.22-.43-.15-.8-.36-1.1-.64-.3-.28-.53-.63-.68-1.04-.15-.41-.21-.89-.17-1.42h.28c-.04.5.01.93.15,1.31s.34.7.62.96.61.45,1.02.58c.4.13.85.2,1.34.2.38,0,.74-.05,1.09-.16.35-.11.66-.26.92-.48.27-.21.48-.47.64-.78.16-.31.24-.66.24-1.07s-.07-.75-.2-1.03-.32-.52-.56-.7-.53-.32-.85-.41c-.33-.09-.68-.15-1.07-.17h-.67v-.28h.67c.3,0,.6-.03.9-.1.3-.07.57-.18.81-.34.24-.16.43-.37.58-.63.15-.26.22-.58.22-.97,0-.38-.09-.69-.25-.95-.16-.26-.36-.47-.61-.63-.25-.16-.53-.28-.84-.34-.31-.07-.63-.1-.96-.1-.45,0-.86.06-1.22.17-.36.11-.67.29-.93.52-.26.23-.45.53-.59.87-.13.35-.2.76-.19,1.23h-.28c0-.51.06-.96.21-1.34Z"/>
          </g>
          <g class="uuid-f34298fe-28b1-4c0f-b384-036e4deafbee">
            <path class="uuid-223aed57-e483-467e-b4e7-7cc40c4c41dd" d="m826.1,92.64c.15-.38.36-.7.64-.96.28-.26.62-.45,1.02-.58.4-.13.84-.19,1.33-.19.38,0,.74.04,1.09.12.35.08.66.22.94.4s.5.42.66.72c.17.29.25.65.25,1.06,0,.66-.19,1.18-.57,1.54-.38.37-.86.58-1.44.63v.03c.28.03.54.09.81.2.26.11.5.26.7.45s.37.44.5.74c.12.29.19.64.19,1.05,0,.44-.08.83-.25,1.17-.17.34-.4.63-.69.86-.29.23-.62.41-1.01.53-.38.12-.79.18-1.22.18-.53,0-1.01-.07-1.45-.22-.43-.15-.8-.36-1.1-.64-.3-.28-.53-.63-.68-1.04-.15-.41-.21-.89-.17-1.42h.28c-.04.5.01.93.15,1.31s.34.7.62.96.61.45,1.02.58c.4.13.85.2,1.34.2.38,0,.74-.05,1.09-.16.35-.11.66-.26.92-.48.27-.21.48-.47.64-.78.16-.31.24-.66.24-1.07s-.07-.75-.2-1.03-.32-.52-.56-.7-.53-.32-.85-.41c-.33-.09-.68-.15-1.07-.17h-.67v-.28h.67c.3,0,.6-.03.9-.1.3-.07.57-.18.81-.34.24-.16.43-.37.58-.63.15-.26.22-.58.22-.97,0-.38-.09-.69-.25-.95-.16-.26-.36-.47-.61-.63-.25-.16-.53-.28-.84-.34-.31-.07-.63-.1-.96-.1-.45,0-.86.06-1.22.17-.36.11-.67.29-.93.52-.26.23-.45.53-.59.87-.13.35-.2.76-.19,1.23h-.28c0-.51.06-.96.21-1.34Z"/>
          </g>
          <g class="uuid-f34298fe-28b1-4c0f-b384-036e4deafbee">
            <path class="uuid-223aed57-e483-467e-b4e7-7cc40c4c41dd" d="m832.28,526.69c-.11.58-.31,1.1-.59,1.56s-.64.83-1.09,1.11c-.45.28-1.01.42-1.69.42s-1.23-.14-1.69-.42-.82-.65-1.09-1.11-.47-.98-.59-1.56c-.11-.58-.17-1.16-.17-1.75s.06-1.17.17-1.75c.11-.58.31-1.1.59-1.56.28-.46.64-.83,1.09-1.12.45-.28,1.02-.43,1.69-.43s1.24.14,1.69.43c.45.29.81.66,1.09,1.12.28.46.47.98.59,1.56s.17,1.16.17,1.75-.06,1.17-.17,1.75Zm-.25-3.35c-.1-.54-.28-1.03-.52-1.47-.25-.44-.58-.8-1-1.08-.42-.28-.95-.42-1.59-.42s-1.17.14-1.59.42c-.42.28-.75.64-1,1.08-.25.44-.42.93-.52,1.47-.1.54-.15,1.07-.15,1.6s.05,1.06.15,1.6c.1.54.28,1.03.52,1.47.25.44.58.8,1,1.08.42.28.95.42,1.59.42s1.17-.14,1.59-.42.75-.64,1-1.08c.25-.44.42-.93.52-1.47.1-.54.15-1.07.15-1.6s-.05-1.06-.15-1.6Z"/>
          </g>
          <g class="uuid-f34298fe-28b1-4c0f-b384-036e4deafbee">
            <path class="uuid-494638b8-caff-41d9-8b62-ad780c9ba6cc" d="m832.28,526.69c-.11.58-.31,1.1-.59,1.56s-.64.83-1.09,1.11c-.45.28-1.01.42-1.69.42s-1.23-.14-1.69-.42-.82-.65-1.09-1.11-.47-.98-.59-1.56c-.11-.58-.17-1.16-.17-1.75s.06-1.17.17-1.75c.11-.58.31-1.1.59-1.56.28-.46.64-.83,1.09-1.12.45-.28,1.02-.43,1.69-.43s1.24.14,1.69.43c.45.29.81.66,1.09,1.12.28.46.47.98.59,1.56s.17,1.16.17,1.75-.06,1.17-.17,1.75Zm-.25-3.35c-.1-.54-.28-1.03-.52-1.47-.25-.44-.58-.8-1-1.08-.42-.28-.95-.42-1.59-.42s-1.17.14-1.59.42c-.42.28-.75.64-1,1.08-.25.44-.42.93-.52,1.47-.1.54-.15,1.07-.15,1.6s.05,1.06.15,1.6c.1.54.28,1.03.52,1.47.25.44.58.8,1,1.08.42.28.95.42,1.59.42s1.17-.14,1.59-.42.75-.64,1-1.08c.25-.44.42-.93.52-1.47.1-.54.15-1.07.15-1.6s-.05-1.06-.15-1.6Z"/>
          </g>
          <g class="uuid-f34298fe-28b1-4c0f-b384-036e4deafbee">
            <path class="uuid-223aed57-e483-467e-b4e7-7cc40c4c41dd" d="m832.28,526.69c-.11.58-.31,1.1-.59,1.56s-.64.83-1.09,1.11c-.45.28-1.01.42-1.69.42s-1.23-.14-1.69-.42-.82-.65-1.09-1.11-.47-.98-.59-1.56c-.11-.58-.17-1.16-.17-1.75s.06-1.17.17-1.75c.11-.58.31-1.1.59-1.56.28-.46.64-.83,1.09-1.12.45-.28,1.02-.43,1.69-.43s1.24.14,1.69.43c.45.29.81.66,1.09,1.12.28.46.47.98.59,1.56s.17,1.16.17,1.75-.06,1.17-.17,1.75Zm-.25-3.35c-.1-.54-.28-1.03-.52-1.47-.25-.44-.58-.8-1-1.08-.42-.28-.95-.42-1.59-.42s-1.17.14-1.59.42c-.42.28-.75.64-1,1.08-.25.44-.42.93-.52,1.47-.1.54-.15,1.07-.15,1.6s.05,1.06.15,1.6c.1.54.28,1.03.52,1.47.25.44.58.8,1,1.08.42.28.95.42,1.59.42s1.17-.14,1.59-.42.75-.64,1-1.08c.25-.44.42-.93.52-1.47.1-.54.15-1.07.15-1.6s-.05-1.06-.15-1.6Z"/>
          </g>
          <path class="uuid-faf11bd9-ffdd-4f4d-95db-ada5ffb32600" d="m-2.3,1355.46v1.15-1.15l1.15-1.15h0l1.15-1.15H0l1.15-1.15h0l1.15-1.15h0l1.15-1.15h0l1.15-1.15h0l1.15-1.15h0l1.15-1.15h0l1.15-1.15h0l1.15-1.15h0l1.15-1.15h0l1.15-1.15h0l1.15-1.15h0l1.15-1.15h0l1.15-1.15h0l1.15-1.15h0l1.15-1.15h0l1.15-1.15h0l1.15-1.15h0l1.15-1.15h0l1.15-1.15h0l1.15-1.15h0l1.15-1.15h0l1.15-1.15h0l1.15-1.15h0l1.15-1.15h0l1.15-1.15h0l1.15-1.15h0l1.15-1.15h0l1.15-1.15h0l1.15-1.15h0l1.15-1.15h0l1.15-1.15h0l1.15-1.15h0l1.15-1.15h0l1.15-1.15h0l1.15-1.15h0l1.15-1.15h0l1.15-1.15h0l1.15-1.15h0l1.15-1.15h0l1.15-1.15h0l1.15-1.15h0l1.15-1.15h0l1.15-1.15h0l1.15-1.15h0l1.15-1.15h0l1.15-1.15h0l1.15-1.15h0l1.15-1.15h0l1.15-1.15h0l1.15-1.15h0l1.15-1.15h0l1.15-1.15h0l1.15-1.15h0l1.15-1.15h0l1.15-1.15h0l1.15-1.15h0l1.15-1.15h0l1.15-1.15h0l1.15-1.15h0l1.15-1.15h0l1.15-1.15h0l1.15-1.15h0l1.15-1.15h0l1.15-1.15h0l1.15-1.15h0l1.15-1.15h0l1.15-1.15h0l1.15-1.15h0l1.15-1.15h0l1.15-1.15h0l1.15-1.15h0l1.15-1.15h0l1.15-1.15h0l1.15-1.15h0l1.15-1.15h0l1.15-1.15h0l1.15-1.15h0l1.15-1.15h0l1.15-1.15h0l1.15-1.15h0l1.15-1.15h0l1.15-1.15h0l1.15-1.15h0l1.15-1.15h0l1.15-1.15h0l1.15-1.15h0l1.15-1.15h0l1.15-1.15h0l1.15-1.15h0l1.15-1.15h0l1.15-1.15h0l1.15-1.15h0l1.15-1.15h0l1.15-1.15h0l1.15-1.15h0l1.15-1.15h0l1.15-1.15h0l1.15-1.15h0l1.15-1.15h0l1.15-1.15h0l1.15-1.15h0l1.15-1.15h0l1.15-1.15h0l1.15-1.15h0l1.15-1.15h0l1.15-1.15h0l1.15-1.15h0l1.15-1.15h0l1.15-1.15h0l1.15-1.15h0l1.15-1.15h0l1.15-1.15h0l1.15-1.15h0l1.15-1.15h0l1.15-1.15h0l1.15-1.15h0l1.15-1.15h0l1.15-1.15h0l1.15-1.15h0l1.15-1.15h0l1.15-1.15h0l1.15-1.15h0l1.15-1.15h0l1.15-1.15h0l1.15-1.15h0l1.15-1.15h0l1.15-1.15h0l1.15-1.15h0l1.15-1.15h0l1.15-1.15h0l1.15-1.15h0l1.15-1.15h0l1.15-1.15h0l1.15-1.15h0l1.15-1.15h0l1.15-1.15h0l1.15-1.15h0l1.15-1.15h0l1.15-1.15h0l1.15-1.15h0l1.15-1.15h0l1.15-1.15h0l1.15-1.15h0l1.15-1.15h0l1.15-1.15h0l1.15-1.15h0l1.15-1.15h0l1.15-1.15h0l1.15-1.15h0l1.15-1.15h0l1.15-1.15h0l1.15-1.15h0l1.15-1.15h0l1.15-1.15h0l1.15-1.15h0l1.15-1.15h0l1.15-1.15h0l1.15-1.15h0l1.15-1.15h0l1.15-1.15h0l1.15-1.15h0l1.15-1.15h0l1.15-1.15h0l1.15-1.15h0l1.15-1.15h0l1.15-1.15h0l1.15-1.15h0l1.15-1.15h0l1.15-1.15h0l1.15-1.15h0l1.15-1.15h0l1.15-1.15h0l1.15-1.15h0l1.15-1.15h0l1.15-1.15h0l1.15-1.15h0l1.15-1.15h0l1.15-1.15h0l1.15-1.15h0l1.15-1.15h0l1.15-1.15h0l1.15-1.15h0l1.15-1.15h0l1.15-1.15h0l1.15-1.15h0l1.15-1.15h0l1.15-1.15h0l1.15-1.15h0l1.15-1.15h0l1.15-1.15h0l1.15-1.15h0l1.15-1.15h0l1.15-1.15h0l1.15-1.15h0l1.15-1.15h0l1.15-1.15h0l1.15-1.15h0l1.15-1.15h0l1.15-1.15h0l1.15-1.15h0l1.15-1.15h0l1.15-1.15h0l1.15-1.15h0l1.15-1.15h0l1.15-1.15h0l1.15-1.15h0l1.15-1.15h0l1.15-1.15h0l1.15-1.15h0l1.15-1.15h0l1.15-1.15h0l1.15-1.15h0l1.15-1.15h0l1.15-1.15h0l1.15-1.15h0l1.15-1.15h0l1.15-1.15h0l1.15-1.15h0l1.15-1.15h0l1.15-1.15h0l1.15-1.15h0l1.15-1.15h0l1.15-1.15h0l1.15-1.15h0l1.15-1.15h0l1.15-1.15h0l1.15-1.15h0l1.15-1.15h0l1.15-1.15h0l1.15-1.15h0l1.15-1.15h0l1.15-1.15h0l1.15-1.15h0l1.15-1.15h0l1.15-1.15h0l1.15-1.15h0l1.15-1.15h0l1.15-1.15h0l1.15-1.15h0l1.15-1.15h0l1.15-1.15h0l1.15-1.15h0l1.15-1.15h0l1.15-1.15h0l1.15-1.15h0l1.15-1.15h0l1.15-1.15h0l1.15-1.15h0l1.15-1.15h0l1.15-1.15h0l1.15-1.15h0l1.15-1.15h0l1.15-1.15h0l1.15-1.15h0l1.15-1.15h0l1.15-1.15h0l1.15-1.15h0l1.15-1.15h0l1.15-1.15h0l1.15-1.15h0l1.15-1.15h0l1.15-1.15h0l1.15-1.15h0l1.15-1.15h0l1.15-1.15h0l1.15-1.15h0l1.15-1.15h0l1.15-1.15h0l1.15-1.15h0l1.15-1.15h0l1.15-1.15h0l1.15-1.15h0l1.15-1.15h0l1.15-1.15h0l1.15-1.15h0l1.15-1.15h0l1.15-1.15h0l1.15-1.15h0l1.15-1.15h0l1.15-1.15h0l1.15-1.15h0l1.15-1.15h0l1.15-1.15h0l1.15-1.15h0l1.15-1.15h0l1.15-1.15h0l1.15-1.15h0l1.15-1.15h0l1.15-1.15h0l1.15-1.15h0l1.15-1.15h0l1.15-1.15h0l1.15-1.15h0l1.15-1.15h0l1.15-1.15h0l1.15-1.15h0l1.15-1.15h0l1.15-1.15h0l1.15-1.15h0l1.15-1.15h0l1.15-1.15h0l1.15-1.15h0l1.15-1.15h0l1.15-1.15h0l1.15-1.15h0l1.15-1.15h0l1.15-1.15h0l1.15-1.15h0l1.15-1.15h0l1.15-1.15h0l1.15-1.15h0l1.15-1.15h0l1.15-1.15h0l1.15-1.15h0l1.15-1.15h0l1.15-1.15h0l1.15-1.15h0l1.15-1.15h0l1.15-1.15h0l1.15-1.15h0l1.15-1.15h0l1.15-1.15h0l1.15-1.15h0l1.15-1.15h0l1.15-1.15h0l1.15-1.15h0l1.15-1.15h0l1.15-1.15h0l1.15-1.15h0l1.15-1.15h0l1.15-1.15h0l1.15-1.15h0l1.15-1.15h0l1.15-1.15h0l1.15-1.15h0l1.15-1.15h0l1.15-1.15h0l1.15-1.15h0l1.15-1.15h0l1.15-1.15h0l1.15-1.15h0l1.15-1.15h0l1.15-1.15h0l1.15-1.15h0l1.15-1.15h0l1.15-1.15h0l1.15-1.15h0l1.15-1.15h0l1.15-1.15h0l1.15-1.15h0l1.15-1.15h0l1.15-1.15h0l1.15-1.15h0l1.15-1.15h0l1.15-1.15h0l1.15-1.15h0l1.15-1.15h0l1.15-1.15h0l1.15-1.15h0l1.15-1.15h0l1.15-1.15h0l1.15-1.15h0l1.15-1.15h0l1.15-1.15h0l1.15-1.15h0l1.15-1.15h0l1.15-1.15h0l1.15-1.15h0l1.15-1.15h0l1.15-1.15h0l1.15-1.15h0l1.15-1.15h0l1.15-1.15h0l1.15-1.15h0l1.15-1.15h0l1.15-1.15h0l1.15-1.15h0l1.15-1.15h0l1.15-1.15h0l1.15-1.15h0l1.15-1.15h0l1.15-1.15h0l1.15-1.15h0l1.15-1.15h0l1.15-1.15h0l1.15-1.15h0l1.15-1.15h0l1.15-1.15h0l1.15-1.15h0l1.15-1.15h0l1.15-1.15h0l1.15-1.15h0l1.15-1.15h0l1.15-1.15h0l1.15-1.15h0l1.15-1.15h0l1.15-1.15h0l1.15-1.15h0l1.15-1.15h0l1.15-1.15h0l1.15-1.15h0l1.15-1.15h0l1.15-1.15h0l1.15-1.15h0l1.15-1.15h0l1.15-1.15h0l1.15-1.15h0l1.15-1.15h0l1.15-1.15h0l1.15-1.15h0l1.15-1.15h0l1.15-1.15h0l1.15-1.15h0l1.15-1.15h0l1.15-1.15h0l1.15-1.15h0l1.15-1.15h0l1.15-1.15h0l1.15-1.15h0l1.15-1.15h0l1.15-1.15h0l1.15-1.15h0l1.15-1.15h0l1.15-1.15h0l1.15-1.15h0l1.15-1.15h0l1.15-1.15h0l1.15-1.15h0l1.15-1.15h0l1.15-1.15h0l1.15-1.15h0l1.15-1.15h0l1.15-1.15h0l1.15-1.15h0l1.15-1.15h0l1.15-1.15h0l1.15-1.15h0l1.15-1.15h0l1.15-1.15h0l1.15-1.15h0l1.15-1.15h0l1.15-1.15h0l1.15-1.15h0l1.15-1.15h0l1.15-1.15h0l1.15-1.15h0l1.15-1.15h0l1.15-1.15h0l1.15-1.15h0l1.15-1.15h0l1.15-1.15h0l1.15-1.15h0l1.15-1.15h0l1.15-1.15h0l1.15-1.15h0l1.15-1.15h0l1.15-1.15h0l1.15-1.15h0l1.15-1.15h0l1.15-1.15h0l1.15-1.15h0l1.15-1.15h0l1.15-1.15h0l1.15-1.15h0l1.15-1.15h0l1.15-1.15h0l1.15-1.15h0l1.15-1.15h0l1.15-1.15h0l1.15-1.15h0l1.15-1.15h0l1.15-1.15h0l1.15-1.15h0l1.15-1.15h0l1.15-1.15h0l1.15-1.15h0l1.15-1.15h0l1.15-1.15h0l1.15-1.15h0l1.15-1.15h0l1.15-1.15h0l1.15-1.15h0l1.15-1.15h0l1.15-1.15h0l1.15-1.15h0l1.15-1.15h0l1.15-1.15h0l1.15-1.15h0l1.15-1.15h0l1.15-1.15h0l1.15-1.15h0l1.15-1.15h0l1.15-1.15h0l1.15-1.15h0l1.15-1.15h0l1.15-1.15h0l1.15-1.15h0l1.15-1.15h0l1.15-1.15h0l1.15-1.15h0l1.15-1.15h0l1.15-1.15h0l1.15-1.15h0l1.15-1.15h0l1.15-1.15h0l1.15-1.15h0l1.15-1.15h0l1.15-1.15h0l1.15-1.15h0l1.15-1.15h0l1.15-1.15h0l1.15-1.15h0l1.15-1.15h0l1.15-1.15h0l1.15-1.15h0l1.15-1.15h0l1.15-1.15h0l1.15-1.15h0l1.15-1.15h0l1.15-1.15h0l1.15-1.15h0l1.15-1.15h0l1.15-1.15h0l1.15-1.15h0l1.15-1.15h0l1.15-1.15h0l1.15-1.15h0l1.15-1.15h0l1.15-1.15h0l1.15-1.15h0l1.15-1.15h0l1.15-1.15h0l1.15-1.15h0l1.15-1.15h0l1.15-1.15h0l1.15-1.15h0l1.15-1.15h0l1.15-1.15h0l1.15-1.15h0l1.15-1.15h0l1.15-1.15h0l1.15-1.15h0l1.15-1.15h0l1.15-1.15h0l1.15-1.15h0l1.15-1.15h0l1.15-1.15h0l1.15-1.15h0l1.15-1.15h0l1.15-1.15h0l1.15-1.15h0l1.15-1.15h0l1.15-1.15h0l1.15-1.15h0l1.15-1.15h0l1.15-1.15h0l1.15-1.15h0l1.15-1.15h0l1.15-1.15h0l1.15-1.15h0l1.15-1.15h0l1.15-1.15h0l1.15-1.15h0l1.15-1.15h0l1.15-1.15h0l1.15-1.15h0l1.15-1.15h0l1.15-1.15h0l1.15-1.15h0l1.15-1.15h0l1.15-1.15h0l1.15-1.15h0l1.15-1.15h0l1.15-1.15h0l1.15-1.15h0l1.15-1.15h0l1.15-1.15h0l1.15-1.15h0l1.15-1.15h0l1.15-1.15h0l1.15-1.15h0l1.15-1.15h0l1.15-1.15h0l1.15-1.15h0l1.15-1.15h0l1.15-1.15h0l1.15-1.15h0l1.15-1.15h0l1.15-1.15h0l1.15-1.15h0l1.15-1.15h0l1.15-1.15h0l1.15-1.15h0l1.15-1.15h0l1.15-1.15h0l1.15-1.15h0l1.15-1.15h0l1.15-1.15h0l1.15-1.15h0l1.15-1.15h0l1.15-1.15h0l1.15-1.15h0l1.15-1.15h0l1.15-1.15h0l1.15-1.15h0l1.15-1.15h0l1.15-1.15h0l1.15-1.15h0l1.15-1.15h0l1.15-1.15h0l1.15-1.15h0l1.15-1.15h0l1.15-1.15h0l1.15-1.15h0l1.15-1.15h0l1.15-1.15h0l1.15-1.15h0l1.15-1.15h0l1.15-1.15h0l1.15-1.15h0l1.15-1.15h0l1.15-1.15h0l1.15-1.15h0l1.15-1.15h0l1.15-1.15h0l1.15-1.15h0l1.15-1.15h0l1.15-1.15h0l1.15-1.15h0l1.15-1.15h0l1.15-1.15h0l1.15-1.15h0l1.15-1.15h0l1.15-1.15h0l1.15-1.15h0l1.15-1.15h0l1.15-1.15h0l1.15-1.15h0l1.15-1.15h0l1.15-1.15h0l1.15-1.15h0l1.15-1.15h0l1.15-1.15h0l1.15-1.15h0l1.15-1.15h0l1.15-1.15h0l1.15-1.15h0l1.15-1.15h0l1.15-1.15h0l1.15-1.15h0l1.15-1.15h0l1.15-1.15h0l1.15-1.15h0l1.15-1.15h0l1.15-1.15h0l1.15-1.15h0l1.15-1.15h0l1.15-1.15h0l1.15-1.15h0l1.15-1.15h0l1.15-1.15h0l1.15-1.15h0l1.15-1.15h0l1.15-1.15h0l1.15-1.15h0l1.15-1.15h0l1.15-1.15h0l1.15-1.15h0l1.15-1.15h0l1.15-1.15h0l1.15-1.15h0l1.15-1.15h0l1.15-1.15h0l1.15-1.15h0l1.15-1.15h0l1.15-1.15h0l1.15-1.15h0l1.15-1.15h0l1.15-1.15h0l1.15-1.15h0l1.15-1.15h0l1.15-1.15h0l1.15-1.15h0l1.15-1.15h0l1.15-1.15h0l1.15-1.15h0l1.15-1.15h0l1.15-1.15h0l1.15-1.15h0l1.15-1.15h0l1.15-1.15h0l1.15-1.15h0l1.15-1.15h0l1.15-1.15h0l1.15-1.15h0l1.15-1.15h0l1.15-1.15h0l1.15-1.15h0l1.15-1.15h0l1.15-1.15h0l1.15-1.15h0l1.15-1.15h0l1.15-1.15h0l1.15-1.15h0l1.15-1.15h0l1.15-1.15h0l1.15-1.15h0l1.15-1.15h0l1.15-1.15h0l1.15-1.15h0l1.15-1.15h0l1.15-1.15h0l1.15-1.15h0l1.15-1.15h0l1.15-1.15h0l1.15-1.15h0l1.15-1.15h0l1.15-1.15h0l1.15-1.15h0l1.15-1.15h0l1.15-1.15h0l1.15-1.15h0l1.15-1.15h0l1.15-1.15h0l1.15-1.15h0l1.15-1.15h0l1.15-1.15h0l1.15-1.15h0l1.15-1.15h0l1.15-1.15h0l1.15-1.15h0l1.15-1.15h0l1.15-1.15h0l1.15-1.15h0l1.15-1.15h0l1.15-1.15h0l1.15-1.15h0l1.15-1.15h0l1.15-1.15h0l1.15-1.15h0l1.15-1.15h0l1.15-1.15h0l1.15-1.15h0l1.15-1.15h0l1.15-1.15h0l1.15-1.15h0l1.15-1.15h0l1.15-1.15h0l1.15-1.15h0l1.15-1.15h0l1.15-1.15h0l1.15-1.15h0l1.15-1.15h0l1.15-1.15h0l1.15-1.15h0l1.15-1.15h0l1.15-1.15h0l1.15-1.15h0l1.15-1.15h0l1.15-1.15h0l1.15-1.15h0l1.15-1.15h0l1.15-1.15h0l1.15-1.15h0l1.15-1.15h0l1.15-1.15h0l1.15-1.15h0l1.15-1.15h0l1.15-1.15h0l1.15-1.15h0l1.15-1.15h0l1.15-1.15h0l1.15-1.15h0l1.15-1.15h0l1.15-1.15h0l1.15-1.15h0l1.15-1.15h0l1.15-1.15h0l1.15-1.15h0l1.15-1.15h0l1.15-1.15h0l1.15-1.15h0l1.15-1.15h0l1.15-1.15h0l1.15-1.15h0l1.15-1.15h0l1.15-1.15h0l1.15-1.15h0l1.15-1.15h0l1.15-1.15h0l1.15-1.15h0l1.15-1.15h0l1.15-1.15h0l1.15-1.15h0l1.15-1.15h0l1.15-1.15h0l1.15-1.15h0l1.15-1.15h0l1.15-1.15h0l1.15-1.15h0l1.15-1.15h0l1.15-1.15h0l1.15-1.15h0l1.15-1.15h0l1.15-1.15h0l1.15-1.15h0l1.15-1.15h0l1.15-1.15h0l1.15-1.15h0l1.15-1.15h0l1.15-1.15h0l1.15-1.15h0l1.15-1.15h0l1.15-1.15h0l1.15-1.15h0l1.15-1.15h0l1.15-1.15h0l1.15-1.15h0l1.15-1.15h0l1.15-1.15h0l1.15-1.15h0l1.15-1.15h0l1.15-1.15h0l1.15-1.15h0l1.15-1.15h0l1.15-1.15h0l1.15-1.15h0l1.15-1.15h0l1.15-1.15h0l1.15-1.15h0l1.15-1.15h0l1.15-1.15h0l1.15-1.15h0l1.15-1.15h0l1.15-1.15h0l1.15-1.15h0l1.15-1.15h0l1.15-1.15h0l1.15-1.15h0l1.15-1.15h0l1.15-1.15h0l1.15-1.15h0l1.15-1.15h0l1.15-1.15h0l1.15-1.15h0l1.15-1.15h0l1.15-1.15h0l1.15-1.15h0l1.15-1.15h0l1.15-1.15h0l1.15-1.15h0l1.15-1.15h0l1.15-1.15h0l1.15-1.15h0l1.15-1.15h0l1.15-1.15h0l1.15-1.15h0l1.15-1.15h0l1.15-1.15h0l1.15-1.15h0l1.15-1.15h0l1.15-1.15h0l1.15-1.15h0l1.15-1.15h0l1.15-1.15h0l1.15-1.15h0l1.15-1.15h0l1.15-1.15h0l1.15-1.15h0l1.15-1.15h0l1.15-1.15h0l1.15-1.15h0l1.15-1.15h0l1.15-1.15h0l1.15-1.15h0l1.15-1.15h0l1.15-1.15h0l1.15-1.15h0l1.15-1.15h0l1.15-1.15h0l1.15-1.15h0l1.15-1.15h0l1.15-1.15h0l1.15-1.15h0l1.15-1.15h0l1.15-1.15h0l1.15-1.15h0l1.15-1.15h0l1.15-1.15h0l1.15-1.15h0l1.15-1.15h0l1.15-1.15h0l1.15-1.15h0l1.15-1.15h0l1.15-1.15h0l1.15-1.15h0l1.15-1.15h0l1.15-1.15h0l1.15-1.15h0l1.15-1.15h0l1.15-1.15h0l1.15-1.15h0l1.15-1.15h0l1.15-1.15h0l1.15-1.15h0l1.15-1.15h0l1.15-1.15h0l1.15-1.15h0l1.15-1.15h0l1.15-1.15h0l1.15-1.15h0l1.15-1.15h0l1.15-1.15h0l1.15-1.15h0l1.15-1.15h0l1.15-1.15h0l1.15-1.15h0l1.15-1.15h0l1.15-1.15h0l1.15-1.15h0l1.15-1.15h0l1.15-1.15h0l1.15-1.15h0l1.15-1.15h0l1.15-1.15h0l1.15-1.15h0l1.15-1.15h0l1.15-1.15h0l1.15-1.15h0l1.15-1.15h0l1.15-1.15h0l1.15-1.15h0l1.15-1.15h0l1.15-1.15h0l1.15-1.15h0l1.15-1.15h0l1.15-1.15h0l1.15-1.15h0l1.15-1.15h0l1.15-1.15h0l1.15-1.15h0l1.15-1.15h0l1.15-1.15h0l1.15-1.15h0l1.15-1.15h0l1.15-1.15h0l1.15-1.15h0l1.15-1.15h0l1.15-1.15h0l1.15-1.15h0l1.15-1.15h0l1.15-1.15h0l1.15-1.15h0l1.15-1.15h0l1.15-1.15h0l1.15-1.15h0l1.15-1.15h0l1.15-1.15h0l1.15-1.15h0l1.15-1.15h0l1.15-1.15h0l1.15-1.15h0l1.15-1.15h0l1.15-1.15h0l1.15-1.15h0l1.15-1.15h0l1.15-1.15h0l1.15-1.15h0l1.15-1.15h0l1.15-1.15h0l1.15-1.15h0l1.15-1.15h0l1.15-1.15h0l1.15-1.15h0l1.15-1.15h0l1.15-1.15h0l1.15-1.15h0l1.15-1.15h0l1.15-1.15h0l1.15-1.15h0l1.15-1.15h0l1.15-1.15h0l1.15-1.15h0l1.15-1.15h0l1.15-1.15h0l1.15-1.15h0l1.15-1.15h0l1.15-1.15h0l1.15-1.15h0l1.15-1.15h0l1.15-1.15h0l1.15-1.15h0l1.15-1.15h0l1.15-1.15h0l1.15-1.15h0l1.15-1.15h0l1.15-1.15h0l1.15-1.15h0l1.15-1.15h0l1.15-1.15h0l1.15-1.15h0l1.15-1.15h0l1.15-1.15h0l1.15-1.15h0l1.15-1.15h0l1.15-1.15h0l1.15-1.15h0l1.15-1.15h0l1.15-1.15h0l1.15-1.15h0l1.15-1.15h0l1.15-1.15h0l1.15-1.15h0l1.15-1.15h0l1.15-1.15h0l1.15-1.15h0l1.15-1.15h0l1.15-1.15h0l1.15-1.15h0l1.15-1.15h0l1.15-1.15h0l1.15-1.15h0l1.15-1.15h0l1.15-1.15h0l1.15-1.15h0l1.15-1.15h0l1.15-1.15h0l1.15-1.15h0l1.15-1.15h0l1.15-1.15h0l1.15-1.15h0l1.15-1.15h0l1.15-1.15h0l1.15-1.15h0l1.15-1.15h0l1.15-1.15h0l1.15-1.15h0l1.15-1.15h0l1.15-1.15h0l1.15-1.15h0l1.15-1.15h0l1.15-1.15h0l1.15-1.15h0l1.15-1.15h0l1.15-1.15h0l1.15-1.15h0l1.15-1.15h0l1.15-1.15h0l1.15-1.15h0l1.15-1.15h0l1.15-1.15h0l1.15-1.15h0l1.15-1.15h0l1.15-1.15h0l1.15-1.15h0l1.15-1.15h0l1.15-1.15h0l1.15-1.15h0l1.15-1.15h0l1.15-1.15h0l1.15-1.15h0l1.15-1.15h0l1.15-1.15h0l1.15-1.15h0l1.15-1.15h0l1.15-1.15h0l1.15-1.15h0l1.15-1.15h0l1.15-1.15h0l1.15-1.15h0l1.15-1.15h0l1.15-1.15h0l1.15-1.15h0l1.15-1.15h0l1.15-1.15h0l1.15-1.15h0l1.15-1.15h0l1.15-1.15h0l1.15-1.15h0l1.15-1.15h0l1.15-1.15h0l1.15-1.15h0l1.15-1.15h0l1.15-1.15h0l1.15-1.15h0l1.15-1.15h0l1.15-1.15h0l1.15-1.15h0l1.15-1.15h0l1.15-1.15h0l1.15-1.15h0l1.15-1.15h0l1.15-1.15h0l1.15-1.15h0l1.15-1.15h0l1.15-1.15h0l1.15-1.15h0l1.15-1.15h0l1.15-1.15h0l1.15-1.15h0l1.15-1.15h0l1.15-1.15h0l1.15-1.15h0l1.15-1.15h0l1.15-1.15h0l1.15-1.15h0l1.15-1.15h0l1.15-1.15h0l1.15-1.15h0l1.15-1.15h0l1.15-1.15h0l1.15-1.15h0l1.15-1.15h0l1.15-1.15h0l1.15-1.15h0l1.15-1.15h0l1.15-1.15h0l1.15-1.15h0l1.15-1.15h0l1.15-1.15h0l1.15-1.15h0l1.15-1.15h0l1.15-1.15h0l1.15-1.15h0l1.15-1.15h0l1.15-1.15h0l1.15-1.15h0l1.15-1.15h0l1.15-1.15h0l1.15-1.15h0l1.15-1.15h0l1.15-1.15h0l1.15-1.15h0l1.15-1.15h0l1.15-1.15h0l1.15-1.15h0l1.15-1.15h0l1.15-1.15h0l1.15-1.15h0l1.15-1.15h0l1.15-1.15h0l1.15-1.15h0l1.15-1.15h0l1.15-1.15h0l1.15-1.15h0l1.15-1.15h0l1.15-1.15h0l1.15-1.15h0l1.15-1.15h0l1.15-1.15h0l1.15-1.15h0l1.15-1.15h0l1.15-1.15h0l1.15-1.15h0l1.15-1.15h0l1.15-1.15h0l1.15-1.15h0l1.15-1.15h0l1.15-1.15h0l1.15-1.15h0l1.15-1.15h0l1.15-1.15h0l1.15-1.15h0l1.15-1.15h0l1.15-1.15h0l1.15-1.15h0l1.15-1.15h0l1.15-1.15h0l1.15-1.15h0l1.15-1.15h0l1.15-1.15h0l1.15-1.15h0l1.15-1.15h0l1.15-1.15h0l1.15-1.15h0l1.15-1.15h0l1.15-1.15h0l1.15-1.15h0l1.15-1.15h0l1.15-1.15h0l1.15-1.15h0l1.15-1.15h0l1.15-1.15h0l1.15-1.15h0l1.15-1.15h0l1.15-1.15h0l1.15-1.15h0l1.15-1.15h0l1.15-1.15h0l1.15-1.15h0l1.15-1.15h0l1.15-1.15h0l1.15-1.15h0l1.15-1.15h0l1.15-1.15h0l1.15-1.15h0l1.15-1.15h0l1.15-1.15h0l1.15-1.15h0l1.15-1.15h0l1.15-1.15h0l1.15-1.15h0l1.15-1.15h0l1.15-1.15h0l1.15-1.15h0l1.15-1.15h0l1.15-1.15h0l1.15-1.15h0l1.15-1.15h0l1.15-1.15h0l1.15-1.15h0l1.15-1.15h0l1.15-1.15h0l1.15-1.15h0l1.15-1.15h0l1.15-1.15h0l1.15-1.15h0l1.15-1.15h0l1.15-1.15h0l1.15-1.15h0l1.15-1.15h0l1.15-1.15h0l1.15-1.15h0l1.15-1.15h0l1.15-1.15h0l1.15-1.15h0l1.15-1.15h0l1.15-1.15h0l1.15-1.15h0l1.15-1.15h0l1.15-1.15h0l1.15-1.15h0l1.15-1.15h0l1.15-1.15h0l1.15-1.15h0l1.15-1.15h0l1.15-1.15h0l1.15-1.15h0l1.15-1.15h0l1.15-1.15h0l1.15-1.15h0l1.15-1.15h0l1.15-1.15h0l1.15-1.15h0l1.15-1.15h0l1.15-1.15h0l1.15-1.15h0l1.15-1.15h0l1.15-1.15h0l1.15-1.15h0l1.15-1.15h0l1.15-1.15h0l1.15-1.15h0l1.15-1.15h0l1.15-1.15h0l1.15-1.15h0l1.15-1.15h0l1.15-1.15h0l1.15-1.15h0l1.15-1.15h0l1.15-1.15h0l1.15-1.15h0l1.15-1.15h0l1.15-1.15h0l1.15-1.15h0l1.15-1.15h0l1.15-1.15h0l1.15-1.15h0l1.15-1.15h0l1.15-1.15h0l1.15-1.15h0l1.15-1.15h0l1.15-1.15h0l1.15-1.15h0l1.15-1.15h0l1.15-1.15h0l1.15-1.15h0l1.15-1.15h0l1.15-1.15h0l1.15-1.15h0l1.15-1.15h0l1.15-1.15h0l1.15-1.15h0l1.15-1.15h0l1.15-1.15h0l1.15-1.15h0l1.15-1.15h0l1.15-1.15h0l1.15-1.15h0l1.15-1.15h0l1.15-1.15h0l1.15-1.15h0l1.15-1.15h0l1.15-1.15h0l1.15-1.15h0l1.15-1.15h0l1.15-1.15h0l1.15-1.15h0l1.15-1.15h0l1.15-1.15h0l1.15-1.15h0l1.15-1.15h0l1.15-1.15h0l1.15-1.15h0l1.15-1.15h0l1.15-1.15h0l1.15-1.15h0l1.15-1.15h0l1.15-1.15h0l1.15-1.15h0l1.15-1.15h0l1.15-1.15h0l1.15-1.15h0l1.15-1.15h0l1.15-1.15h0l1.15-1.15h0l1.15-1.15h0l1.15-1.15h0l1.15-1.15h0l1.15-1.15h0l1.15-1.15h0l1.15-1.15h0l1.15-1.15h0l1.15-1.15h0l1.15-1.15h0l1.15-1.15h0l1.15-1.15h0l1.15-1.15h0l1.15-1.15h0l1.15-1.15h0l1.15-1.15h0l1.15-1.15h0l1.15-1.15h0l1.15-1.15h0l1.15-1.15h0l1.15-1.15h0l1.15-1.15h0l1.15-1.15h0l1.15-1.15h0l1.15-1.15h0l1.15-1.15h0l1.15-1.15h0l1.15-1.15h0l1.15-1.15h0l1.15-1.15h0l1.15-1.15h0l1.15-1.15h0l1.15-1.15h0l1.15-1.15h0l1.15-1.15h0l1.15-1.15h0l1.15-1.15h0l1.15-1.15h0l1.15-1.15h0l1.15-1.15h0l1.15-1.15h0l1.15-1.15h0l1.15-1.15h0l1.15-1.15h0l1.15-1.15h0l1.15-1.15h0l1.15-1.15h0l1.15-1.15h0l1.15-1.15h0l1.15-1.15h0l1.15-1.15h0l1.15-1.15h0l1.15-1.15h0l1.15-1.15h0l1.15-1.15h0l1.15-1.15h0l1.15-1.15h0l1.15-1.15h0l1.15-1.15h0l1.15-1.15h0l1.15-1.15h0l1.15-1.15h0l1.15-1.15h0l1.15-1.15h0l1.15-1.15h0l1.15-1.15h0l1.15-1.15h0l1.15-1.15h0l1.15-1.15h0l1.15-1.15h0l1.15-1.15h0l1.15-1.15h0l1.15-1.15h0l1.15-1.15h0l1.15-1.15h0l1.15-1.15h0l1.15-1.15h0l1.15-1.15h0l1.15-1.15h0l1.15-1.15h0l1.15-1.15h0l1.15-1.15h0l1.15-1.15h0l1.15-1.15h0l1.15-1.15h0l1.15-1.15h0l1.15-1.15h0l1.15-1.15h0l1.15-1.15h0l1.15-1.15h0l1.15-1.15h0l1.15-1.15h0l1.15-1.15h0l1.15-1.15h0l1.15-1.15h0l1.15-1.15h0l1.15-1.15h0l1.15-1.15h0l1.15-1.15h0l1.15-1.15h0l1.15-1.15h0l1.15-1.15h0l1.15-1.15h0l1.15-1.15h0l1.15-1.15h0l1.15-1.15h0l1.15-1.15h0l1.15-1.15h0l1.15-1.15h0l1.15-1.15h0l1.15-1.15h0l1.15-1.15h0l1.15-1.15h0l1.15-1.15h0l1.15-1.15h0l1.15-1.15h0l1.15-1.15h0l1.15-1.15h0l1.15-1.15h0l1.15-1.15h0l1.15-1.15h0l1.15-1.15h0l1.15-1.15h0l1.15-1.15h0l1.15-1.15h0l1.15-1.15h0l1.15-1.15h0l1.15-1.15h0l1.15-1.15h0l1.15-1.15h0l1.15-1.15h0l1.15-1.15h0l1.15-1.15h0l1.15-1.15h0l1.15-1.15h0l1.15-1.15h0l1.15-1.15h0l1.15-1.15h0l1.15-1.15h0l1.15-1.15h0l1.15-1.15h0l1.15-1.15h0l1.15-1.15h0l1.15-1.15h0l1.15-1.15h0l1.15-1.15h0l1.15-1.15h0l1.15-1.15h0l1.15-1.15h0l1.15-1.15h0l1.15-1.15h0l1.15-1.15"/>
        </g>
      </g>
    </g>
  </g>
  <g id="uuid-70285e9c-eb6a-483c-98a1-54e48c27ab3b" data-name="Marco">
    <path class="uuid-e50b1144-a0b9-4ac0-ad7e-e6e98a3b5149" d="m0-2V1022h1680V-2H0Zm1663,987c0,11.05-8.95,20-20,20H37c-11.05,0-20-8.95-20-20V35c0-11.05,8.95-20,20-20h1606c11.05,0,20,8.95,20,20v950Z"/>
  </g>
  <g id="uuid-0935ca1a-42c1-41f8-a2a0-5316204f7347" data-name="Texto">
    <g>
      <path class="uuid-1e91a627-ffdb-47a4-85f4-006b16f96adf" d="m1103.08,347.37c-.6,2.83-1.52,4.93-2.75,6.32-1.24,1.39-2.79,2.08-4.67,2.08-.55,0-.98-.03-1.29-.1l.33-1.72c.13.04.44.06.92.06.59,0,1.09-.15,1.5-.45.42-.3.8-.82,1.16-1.56.36-.74.69-1.77.99-3.09l4.2-18.57h-3.3l.29-1.35c.87-.05,1.5-.12,1.88-.21.38-.09.68-.23.9-.41s.4-.42.55-.71c.15-.29.34-.83.58-1.61.69-2.34,1.75-4.1,3.19-5.28,1.44-1.18,3.27-1.77,5.5-1.77,1.28,0,2.38.1,3.3.31l-.76,3.32h-1.72c-.18-.74-.42-1.28-.71-1.6s-.73-.49-1.3-.49c-.74,0-1.37.21-1.88.62-.51.41-.95,1.02-1.32,1.83-.36.81-.7,1.89-1.02,3.26l-.49,2.13h5.02l-.43,1.97h-5.04l-3.63,17.03Z"/>
      <path class="uuid-1e91a627-ffdb-47a4-85f4-006b16f96adf" d="m1124.43,336.47c0,4.8.72,8.68,2.15,11.63,1.43,2.95,3.57,4.83,6.41,5.63l-.31,1.89c-4.19-.82-7.34-2.87-9.44-6.16-2.1-3.29-3.15-7.56-3.15-12.8,0-5.59,1.05-10.02,3.15-13.31,2.1-3.29,5.25-5.22,9.44-5.81l.31,1.89c-2.84.57-4.97,2.33-6.41,5.28-1.43,2.95-2.15,6.87-2.15,11.75Z"/>
      <path class="uuid-1e91a627-ffdb-47a4-85f4-006b16f96adf" d="m1143.28,338.21c-.2-1.03-.4-2.02-.61-2.97-.21-.95-.42-1.84-.64-2.66-.22-.82-.4-1.36-.55-1.61-.14-.25-.3-.43-.46-.53-.16-.1-.37-.15-.62-.15-.27,0-.52.06-.74.19-.22.12-.46.34-.72.64-.26.31-.61.78-1.04,1.44l-1.27-.84c.82-1.24,1.61-2.16,2.36-2.77.75-.61,1.65-.92,2.68-.92.4,0,.76.05,1.06.14.31.09.58.23.81.42s.44.43.62.73c.18.3.36.71.53,1.22.17.51.33,1.15.48,1.91.15.76.28,1.55.4,2.37h.2c1.25-1.76,2.2-3.04,2.84-3.86s1.19-1.42,1.63-1.82c.44-.4.87-.68,1.28-.84s.95-.24,1.63-.24c.61,0,1.11.08,1.5.23l-.78,3.54h-1.37c-.08-.55-.31-.82-.68-.82-.12,0-.24.02-.37.06-.13.04-.29.12-.48.25-.19.13-.47.38-.83.76-.36.38-.77.84-1.23,1.39-.46.55-.92,1.12-1.41,1.72l-1.33,1.66c.23,1.25.46,2.33.66,3.24.21.91.39,1.67.56,2.28.16.61.31,1.08.43,1.44.12.35.26.62.4.79.14.18.29.3.44.37.15.07.32.11.52.11.35,0,.69-.14,1.03-.41s.81-.89,1.44-1.86l1.27.84c-.91,1.35-1.74,2.31-2.47,2.86-.74.55-1.61.83-2.63.83-.56,0-1.04-.1-1.43-.3s-.73-.52-1.02-.97c-.29-.44-.54-1.13-.76-2.07-.4-1.67-.65-2.94-.74-3.83h-.2c-1.38,1.94-2.41,3.33-3.08,4.18-.67.85-1.22,1.47-1.66,1.88-.44.4-.86.69-1.27.85s-.95.24-1.63.24c-.61,0-1.11-.08-1.5-.23l.78-3.54h1.37c.08.55.31.82.68.82.18,0,.37-.05.58-.15.2-.1.49-.33.87-.7.38-.37.9-.95,1.56-1.75s1.63-1.99,2.89-3.57Z"/>
      <path class="uuid-1e91a627-ffdb-47a4-85f4-006b16f96adf" d="m1164.78,336.47c0-4.88-.72-8.8-2.15-11.75-1.43-2.95-3.57-4.71-6.41-5.28l.31-1.89c4.19.59,7.34,2.52,9.44,5.81,2.1,3.29,3.15,7.72,3.15,13.31,0,5.25-1.05,9.51-3.15,12.8-2.1,3.29-5.25,5.34-9.44,6.16l-.31-1.89c2.84-.81,4.97-2.69,6.41-5.63,1.43-2.95,2.15-6.83,2.15-11.63Z"/>
      <path class="uuid-1e91a627-ffdb-47a4-85f4-006b16f96adf" d="m1184.27,332.86v-2.6h24.06v2.6h-24.06Zm0,8.11v-2.6h24.06v2.6h-24.06Z"/>
      <path class="uuid-1e91a627-ffdb-47a4-85f4-006b16f96adf" d="m1229.37,338.21c-.2-1.03-.4-2.02-.61-2.97-.21-.95-.42-1.84-.64-2.66-.22-.82-.4-1.36-.55-1.61-.14-.25-.3-.43-.46-.53-.16-.1-.37-.15-.62-.15-.27,0-.52.06-.74.19-.22.12-.46.34-.72.64-.26.31-.61.78-1.04,1.44l-1.27-.84c.82-1.24,1.61-2.16,2.36-2.77.75-.61,1.65-.92,2.68-.92.4,0,.76.05,1.06.14.31.09.58.23.81.42s.44.43.62.73c.18.3.36.71.53,1.22.17.51.33,1.15.48,1.91.15.76.28,1.55.4,2.37h.2c1.25-1.76,2.2-3.04,2.84-3.86s1.19-1.42,1.63-1.82c.44-.4.87-.68,1.28-.84s.95-.24,1.63-.24c.61,0,1.11.08,1.5.23l-.78,3.54h-1.37c-.08-.55-.31-.82-.68-.82-.12,0-.24.02-.37.06-.13.04-.29.12-.48.25-.19.13-.47.38-.83.76-.36.38-.77.84-1.23,1.39-.46.55-.92,1.12-1.41,1.72l-1.33,1.66c.23,1.25.46,2.33.66,3.24.21.91.39,1.67.56,2.28.16.61.31,1.08.43,1.44.12.35.26.62.4.79.14.18.29.3.44.37.15.07.32.11.52.11.35,0,.69-.14,1.03-.41s.81-.89,1.44-1.86l1.27.84c-.91,1.35-1.74,2.31-2.47,2.86-.74.55-1.61.83-2.63.83-.56,0-1.04-.1-1.43-.3s-.73-.52-1.02-.97c-.29-.44-.54-1.13-.76-2.07-.4-1.67-.65-2.94-.74-3.83h-.2c-1.38,1.94-2.41,3.33-3.08,4.18-.67.85-1.22,1.47-1.66,1.88-.44.4-.86.69-1.27.85s-.95.24-1.63.24c-.61,0-1.11-.08-1.5-.23l.78-3.54h1.37c.08.55.31.82.68.82.18,0,.37-.05.58-.15.2-.1.49-.33.87-.7.38-.37.9-.95,1.56-1.75s1.63-1.99,2.89-3.57Z"/>
    </g>
  </g>
</svg>