<?xml version="1.0" encoding="UTF-8"?>
<svg xmlns="http://www.w3.org/2000/svg" width="1680" height="1020" xmlns:xlink="http://www.w3.org/1999/xlink" viewBox="0 0 1680 1020">
  <defs>
    <style>
      .uuid-ce6063f7-f382-4a4b-8abf-55e3d527520b {
        stroke: rgba(192, 192, 192, .24);
      }

      .uuid-ce6063f7-f382-4a4b-8abf-55e3d527520b, .uuid-b76355bd-66c6-4e96-a9e7-0b22d77170ac, .uuid-477c5b6c-ff4c-40ff-b9a9-cc37ae4fdd7c, .uuid-89baf22f-7c76-474f-9d08-4b9f365b7080, .uuid-e571e39e-d922-4eb1-8b8b-a93165f0b757, .uuid-b2df9c88-58e0-4be1-950b-29aa874afc28, .uuid-dc622d30-d1cb-434f-a8fe-7bf43f759c36, .uuid-474a6a8a-7807-4e26-a863-bd010db5cf90, .uuid-e7f226cc-4ed7-4692-9cab-8535ae2bdc17 {
        fill: none;
      }

      .uuid-ce6063f7-f382-4a4b-8abf-55e3d527520b, .uuid-477c5b6c-ff4c-40ff-b9a9-cc37ae4fdd7c {
        stroke-dasharray: 0 0 1.15 3.44;
        stroke-width: 1.15px;
      }

      .uuid-ce6063f7-f382-4a4b-8abf-55e3d527520b, .uuid-477c5b6c-ff4c-40ff-b9a9-cc37ae4fdd7c, .uuid-e7f226cc-4ed7-4692-9cab-8535ae2bdc17 {
        stroke-linejoin: round;
      }

      .uuid-904b34f3-d3ee-47cc-9e4d-9fce264c04eb {
        fill: #fff;
      }

      .uuid-b76355bd-66c6-4e96-a9e7-0b22d77170ac {
        stroke: #606060;
        stroke-miterlimit: 10;
        stroke-width: 2.29px;
      }

      .uuid-477c5b6c-ff4c-40ff-b9a9-cc37ae4fdd7c {
        stroke: silver;
      }

      .uuid-89baf22f-7c76-474f-9d08-4b9f365b7080 {
        stroke: #fff;
        stroke-linejoin: bevel;
        stroke-width: 3.44px;
      }

      .uuid-e571e39e-d922-4eb1-8b8b-a93165f0b757 {
        isolation: isolate;
      }

      .uuid-1e1637c4-a74c-406e-b8da-76b2bba96628 {
        fill: #00699b;
      }

      .uuid-b2df9c88-58e0-4be1-950b-29aa874afc28 {
        clip-path: url(#uuid-1cc6a55d-a239-43fb-9ff3-74aee6c9c16d);
      }

      .uuid-474a6a8a-7807-4e26-a863-bd010db5cf90 {
        clip-path: url(#uuid-fe0d23d6-79f7-4314-913f-4c24c077c648);
      }

      .uuid-183b5a73-509b-459e-90f8-69ccc28bd32f, .uuid-11a8bc84-c4ce-48d7-8748-ce668e843fe0 {
        fill: #606060;
      }

      .uuid-e7f226cc-4ed7-4692-9cab-8535ae2bdc17 {
        stroke: rgba(244, 0, 153, .7);
        stroke-linecap: round;
        stroke-width: 4.59px;
      }

      .uuid-11a8bc84-c4ce-48d7-8748-ce668e843fe0 {
        fill-rule: evenodd;
      }
    </style>
    <clipPath id="uuid-1cc6a55d-a239-43fb-9ff3-74aee6c9c16d">
      <rect class="uuid-dc622d30-d1cb-434f-a8fe-7bf43f759c36" y="2.61" width="1680" height="1019.39"/>
    </clipPath>
    <clipPath id="uuid-fe0d23d6-79f7-4314-913f-4c24c077c648">
      <rect class="uuid-dc622d30-d1cb-434f-a8fe-7bf43f759c36" x="-3" y="-10.14" width="1686" height="1040.27"/>
    </clipPath>
  </defs>
  <g id="uuid-e5f835dd-666e-4a03-bf6a-db6ae1566b7d" data-name="Grafica">
    <g class="uuid-b2df9c88-58e0-4be1-950b-29aa874afc28">
      <g class="uuid-474a6a8a-7807-4e26-a863-bd010db5cf90">
        <g>
          <rect class="uuid-904b34f3-d3ee-47cc-9e4d-9fce264c04eb" x="-3" y="-10.14" width="1686" height="1040.27"/>
          <path class="uuid-477c5b6c-ff4c-40ff-b9a9-cc37ae4fdd7c" d="m92.77-9.56v1040.27m0-1040.27v1040.27M341.66-9.56v1040.27M589.39-9.56v1040.27M1086.02-9.56v1040.27M1334.9-9.56v1040.27M1582.64-9.56v1040.27"/>
          <path class="uuid-ce6063f7-f382-4a4b-8abf-55e3d527520b" d="m43.45-9.56v1040.27M143.23-9.56v1040.27M192.55-9.56v1040.27M241.87-9.56v1040.27M292.34-9.56v1040.27M390.97-9.56v1040.27M440.29-9.56v1040.27M490.76-9.56v1040.27M540.08-9.56v1040.27M639.86-9.56v1040.27M689.18-9.56v1040.27M738.5-9.56v1040.27M787.81-9.56v1040.27M887.6-9.56v1040.27M936.92-9.56v1040.27M987.38-9.56v1040.27M1036.7-9.56v1040.27M1135.34-9.56v1040.27M1185.8-9.56v1040.27M1235.12-9.56v1040.27M1284.44-9.56v1040.27M1384.22-9.56v1040.27M1433.54-9.56v1040.27M1482.86-9.56v1040.27M1533.32-9.56v1040.27M1631.96-9.56v1040.27M1682.43-9.56v1040.27"/>
          <path class="uuid-477c5b6c-ff4c-40ff-b9a9-cc37ae4fdd7c" d="m-2.43,13.38h1686M-2.43,13.38h1686M-2.43,137.24h1686M-2.43,261.11h1686M-2.43,384.98h1686M-2.43,633.87h1686M-2.43,757.74h1686M-2.43,881.61h1686M-2.43,1005.48h1686"/>
          <path class="uuid-ce6063f7-f382-4a4b-8abf-55e3d527520b" d="m-2.43,13.38h1686M-2.43,37.46h1686M-2.43,62.69h1686M-2.43,87.93h1686M-2.43,112.01h1686M-2.43,162.48h1686M-2.43,186.56h1686M-2.43,211.8h1686M-2.43,235.88h1686M-2.43,286.35h1686M-2.43,310.43h1686M-2.43,335.67h1686M-2.43,360.9h1686M-2.43,410.22h1686M-2.43,435.45h1686M-2.43,459.53h1686M-2.43,484.77h1686M-2.43,534.09h1686M-2.43,559.32h1686M-2.43,583.4h1686M-2.43,608.64h1686M-2.43,657.96h1686M-2.43,683.19h1686M-2.43,708.42h1686M-2.43,732.51h1686M-2.43,782.97h1686M-2.43,807.06h1686M-2.43,832.29h1686M-2.43,856.38h1686M-2.43,906.84h1686M-2.43,930.93h1686M-2.43,956.16h1686M-2.43,981.39h1686"/>
          <path class="uuid-b76355bd-66c6-4e96-a9e7-0b22d77170ac" d="m837.71-6.7v1036.83"/>
          <path class="uuid-11a8bc84-c4ce-48d7-8748-ce668e843fe0" d="m837.99-7.84l-5.73,22.94h11.47"/>
          <path class="uuid-b76355bd-66c6-4e96-a9e7-0b22d77170ac" d="m-3,509.43h1682.56"/>
          <path class="uuid-11a8bc84-c4ce-48d7-8748-ce668e843fe0" d="m1680.71,509.42l-22.94-5.73v11.47"/>
          <g class="uuid-e571e39e-d922-4eb1-8b8b-a93165f0b757">
            <path class="uuid-183b5a73-509b-459e-90f8-69ccc28bd32f" d="m92.2,522.8v.28h-6.88v-.28h6.88Z"/>
            <path class="uuid-183b5a73-509b-459e-90f8-69ccc28bd32f" d="m93.21,518.83c.15-.38.36-.7.64-.96.28-.26.62-.45,1.02-.58.4-.13.84-.19,1.33-.19.38,0,.74.04,1.09.12.35.08.66.22.94.4.28.18.5.42.66.72.17.29.25.65.25,1.06,0,.66-.19,1.17-.57,1.54-.38.37-.86.58-1.44.63v.03c.28.03.54.09.81.2s.5.26.7.45.37.44.5.74c.12.29.19.64.19,1.05,0,.44-.08.83-.25,1.17-.17.34-.4.63-.69.86-.29.23-.62.41-1,.53-.38.12-.79.18-1.22.18-.53,0-1.01-.07-1.45-.22-.43-.15-.8-.36-1.1-.64-.3-.28-.53-.63-.68-1.04s-.21-.88-.17-1.42h.28c-.04.5.01.93.15,1.31.14.38.34.7.62.96.28.26.61.45,1.02.58.4.13.85.2,1.33.2.38,0,.74-.05,1.09-.16.35-.11.66-.26.92-.47s.48-.47.64-.78c.16-.31.24-.66.24-1.07s-.07-.75-.2-1.03c-.13-.28-.32-.52-.56-.7s-.53-.32-.85-.41-.68-.15-1.07-.17h-.67v-.28h.67c.3,0,.6-.03.9-.1.3-.07.57-.18.8-.34.24-.16.43-.37.58-.63.15-.26.22-.58.22-.97,0-.38-.09-.69-.25-.95-.16-.26-.36-.46-.61-.63-.25-.16-.53-.28-.84-.34-.31-.07-.63-.1-.96-.1-.45,0-.86.06-1.22.17-.36.12-.67.29-.93.52-.26.23-.45.53-.58.87-.13.35-.2.76-.19,1.22h-.28c0-.51.06-.96.21-1.34Z"/>
          </g>
          <g class="uuid-e571e39e-d922-4eb1-8b8b-a93165f0b757">
            <path class="uuid-89baf22f-7c76-474f-9d08-4b9f365b7080" d="m92.2,522.8v.28h-6.88v-.28h6.88Z"/>
            <path class="uuid-89baf22f-7c76-474f-9d08-4b9f365b7080" d="m93.21,518.83c.15-.38.36-.7.64-.96.28-.26.62-.45,1.02-.58.4-.13.84-.19,1.33-.19.38,0,.74.04,1.09.12.35.08.66.22.94.4.28.18.5.42.66.72.17.29.25.65.25,1.06,0,.66-.19,1.17-.57,1.54-.38.37-.86.58-1.44.63v.03c.28.03.54.09.81.2s.5.26.7.45.37.44.5.74c.12.29.19.64.19,1.05,0,.44-.08.83-.25,1.17-.17.34-.4.63-.69.86-.29.23-.62.41-1,.53-.38.12-.79.18-1.22.18-.53,0-1.01-.07-1.45-.22-.43-.15-.8-.36-1.1-.64-.3-.28-.53-.63-.68-1.04s-.21-.88-.17-1.42h.28c-.04.5.01.93.15,1.31.14.38.34.7.62.96.28.26.61.45,1.02.58.4.13.85.2,1.33.2.38,0,.74-.05,1.09-.16.35-.11.66-.26.92-.47s.48-.47.64-.78c.16-.31.24-.66.24-1.07s-.07-.75-.2-1.03c-.13-.28-.32-.52-.56-.7s-.53-.32-.85-.41-.68-.15-1.07-.17h-.67v-.28h.67c.3,0,.6-.03.9-.1.3-.07.57-.18.8-.34.24-.16.43-.37.58-.63.15-.26.22-.58.22-.97,0-.38-.09-.69-.25-.95-.16-.26-.36-.46-.61-.63-.25-.16-.53-.28-.84-.34-.31-.07-.63-.1-.96-.1-.45,0-.86.06-1.22.17-.36.12-.67.29-.93.52-.26.23-.45.53-.58.87-.13.35-.2.76-.19,1.22h-.28c0-.51.06-.96.21-1.34Z"/>
          </g>
          <g class="uuid-e571e39e-d922-4eb1-8b8b-a93165f0b757">
            <path class="uuid-183b5a73-509b-459e-90f8-69ccc28bd32f" d="m92.2,522.8v.28h-6.88v-.28h6.88Z"/>
            <path class="uuid-183b5a73-509b-459e-90f8-69ccc28bd32f" d="m93.21,518.83c.15-.38.36-.7.64-.96.28-.26.62-.45,1.02-.58.4-.13.84-.19,1.33-.19.38,0,.74.04,1.09.12.35.08.66.22.94.4.28.18.5.42.66.72.17.29.25.65.25,1.06,0,.66-.19,1.17-.57,1.54-.38.37-.86.58-1.44.63v.03c.28.03.54.09.81.2s.5.26.7.45.37.44.5.74c.12.29.19.64.19,1.05,0,.44-.08.83-.25,1.17-.17.34-.4.63-.69.86-.29.23-.62.41-1,.53-.38.12-.79.18-1.22.18-.53,0-1.01-.07-1.45-.22-.43-.15-.8-.36-1.1-.64-.3-.28-.53-.63-.68-1.04s-.21-.88-.17-1.42h.28c-.04.5.01.93.15,1.31.14.38.34.7.62.96.28.26.61.45,1.02.58.4.13.85.2,1.33.2.38,0,.74-.05,1.09-.16.35-.11.66-.26.92-.47s.48-.47.64-.78c.16-.31.24-.66.24-1.07s-.07-.75-.2-1.03c-.13-.28-.32-.52-.56-.7s-.53-.32-.85-.41-.68-.15-1.07-.17h-.67v-.28h.67c.3,0,.6-.03.9-.1.3-.07.57-.18.8-.34.24-.16.43-.37.58-.63.15-.26.22-.58.22-.97,0-.38-.09-.69-.25-.95-.16-.26-.36-.46-.61-.63-.25-.16-.53-.28-.84-.34-.31-.07-.63-.1-.96-.1-.45,0-.86.06-1.22.17-.36.12-.67.29-.93.52-.26.23-.45.53-.58.87-.13.35-.2.76-.19,1.22h-.28c0-.51.06-.96.21-1.34Z"/>
          </g>
          <g class="uuid-e571e39e-d922-4eb1-8b8b-a93165f0b757">
            <path class="uuid-183b5a73-509b-459e-90f8-69ccc28bd32f" d="m341.08,522.8v.28h-6.88v-.28h6.88Z"/>
            <path class="uuid-183b5a73-509b-459e-90f8-69ccc28bd32f" d="m348.14,526.63h-6.3c0-.39.07-.75.25-1.07.17-.32.4-.62.69-.9.28-.28.6-.55.96-.8.35-.25.7-.5,1.05-.75.36-.25.71-.5,1.05-.76.34-.26.64-.53.91-.81.27-.28.48-.58.64-.89.16-.32.24-.66.24-1.03s-.07-.69-.2-.97c-.13-.28-.31-.51-.54-.7-.23-.19-.5-.33-.82-.43-.32-.1-.66-.14-1.04-.14-.49,0-.9.07-1.25.22-.35.15-.63.35-.85.61s-.38.57-.48.94-.15.76-.15,1.19h-.27c0-1.03.26-1.82.76-2.39s1.25-.85,2.25-.85c.4,0,.78.05,1.13.16s.65.26.91.48.46.47.61.78.23.68.23,1.1c0,.51-.14.98-.41,1.4s-.62.82-1.04,1.18-.87.71-1.36,1.04c-.49.33-.94.65-1.37.98-.43.33-.79.66-1.09,1-.3.34-.47.72-.51,1.12h6.03v.28Z"/>
          </g>
          <g class="uuid-e571e39e-d922-4eb1-8b8b-a93165f0b757">
            <path class="uuid-89baf22f-7c76-474f-9d08-4b9f365b7080" d="m341.08,522.8v.28h-6.88v-.28h6.88Z"/>
            <path class="uuid-89baf22f-7c76-474f-9d08-4b9f365b7080" d="m348.14,526.63h-6.3c0-.39.07-.75.25-1.07.17-.32.4-.62.69-.9.28-.28.6-.55.96-.8.35-.25.7-.5,1.05-.75.36-.25.71-.5,1.05-.76.34-.26.64-.53.91-.81.27-.28.48-.58.64-.89.16-.32.24-.66.24-1.03s-.07-.69-.2-.97c-.13-.28-.31-.51-.54-.7-.23-.19-.5-.33-.82-.43-.32-.1-.66-.14-1.04-.14-.49,0-.9.07-1.25.22-.35.15-.63.35-.85.61s-.38.57-.48.94-.15.76-.15,1.19h-.27c0-1.03.26-1.82.76-2.39s1.25-.85,2.25-.85c.4,0,.78.05,1.13.16s.65.26.91.48.46.47.61.78.23.68.23,1.1c0,.51-.14.98-.41,1.4s-.62.82-1.04,1.18-.87.71-1.36,1.04c-.49.33-.94.65-1.37.98-.43.33-.79.66-1.09,1-.3.34-.47.72-.51,1.12h6.03v.28Z"/>
          </g>
          <g class="uuid-e571e39e-d922-4eb1-8b8b-a93165f0b757">
            <path class="uuid-183b5a73-509b-459e-90f8-69ccc28bd32f" d="m341.08,522.8v.28h-6.88v-.28h6.88Z"/>
            <path class="uuid-183b5a73-509b-459e-90f8-69ccc28bd32f" d="m348.14,526.63h-6.3c0-.39.07-.75.25-1.07.17-.32.4-.62.69-.9.28-.28.6-.55.96-.8.35-.25.7-.5,1.05-.75.36-.25.71-.5,1.05-.76.34-.26.64-.53.91-.81.27-.28.48-.58.64-.89.16-.32.24-.66.24-1.03s-.07-.69-.2-.97c-.13-.28-.31-.51-.54-.7-.23-.19-.5-.33-.82-.43-.32-.1-.66-.14-1.04-.14-.49,0-.9.07-1.25.22-.35.15-.63.35-.85.61s-.38.57-.48.94-.15.76-.15,1.19h-.27c0-1.03.26-1.82.76-2.39s1.25-.85,2.25-.85c.4,0,.78.05,1.13.16s.65.26.91.48.46.47.61.78.23.68.23,1.1c0,.51-.14.98-.41,1.4s-.62.82-1.04,1.18-.87.71-1.36,1.04c-.49.33-.94.65-1.37.98-.43.33-.79.66-1.09,1-.3.34-.47.72-.51,1.12h6.03v.28Z"/>
          </g>
          <g class="uuid-e571e39e-d922-4eb1-8b8b-a93165f0b757">
            <path class="uuid-183b5a73-509b-459e-90f8-69ccc28bd32f" d="m588.82,522.8v.28h-6.88v-.28h6.88Z"/>
            <path class="uuid-183b5a73-509b-459e-90f8-69ccc28bd32f" d="m592.89,517.63c-.28.39-.65.74-1.11,1.03-.45.29-.92.5-1.38.63v-.28c.28-.09.54-.19.76-.3s.43-.23.62-.37c.19-.14.38-.29.56-.47.18-.17.36-.37.56-.59h.3v9.36h-.28v-9h-.03Z"/>
          </g>
          <g class="uuid-e571e39e-d922-4eb1-8b8b-a93165f0b757">
            <path class="uuid-89baf22f-7c76-474f-9d08-4b9f365b7080" d="m588.82,522.8v.28h-6.88v-.28h6.88Z"/>
            <path class="uuid-89baf22f-7c76-474f-9d08-4b9f365b7080" d="m592.89,517.63c-.28.39-.65.74-1.11,1.03-.45.29-.92.5-1.38.63v-.28c.28-.09.54-.19.76-.3s.43-.23.62-.37c.19-.14.38-.29.56-.47.18-.17.36-.37.56-.59h.3v9.36h-.28v-9h-.03Z"/>
          </g>
          <g class="uuid-e571e39e-d922-4eb1-8b8b-a93165f0b757">
            <path class="uuid-183b5a73-509b-459e-90f8-69ccc28bd32f" d="m588.82,522.8v.28h-6.88v-.28h6.88Z"/>
            <path class="uuid-183b5a73-509b-459e-90f8-69ccc28bd32f" d="m592.89,517.63c-.28.39-.65.74-1.11,1.03-.45.29-.92.5-1.38.63v-.28c.28-.09.54-.19.76-.3s.43-.23.62-.37c.19-.14.38-.29.56-.47.18-.17.36-.37.56-.59h.3v9.36h-.28v-9h-.03Z"/>
          </g>
          <g class="uuid-e571e39e-d922-4eb1-8b8b-a93165f0b757">
            <path class="uuid-183b5a73-509b-459e-90f8-69ccc28bd32f" d="m1087.22,517.63c-.28.39-.65.74-1.11,1.03-.45.29-.92.5-1.38.63v-.28c.28-.09.54-.19.76-.3s.43-.23.62-.37c.19-.14.38-.29.56-.47.18-.17.36-.37.56-.59h.3v9.36h-.28v-9h-.03Z"/>
          </g>
          <g class="uuid-e571e39e-d922-4eb1-8b8b-a93165f0b757">
            <path class="uuid-89baf22f-7c76-474f-9d08-4b9f365b7080" d="m1087.22,517.63c-.28.39-.65.74-1.11,1.03-.45.29-.92.5-1.38.63v-.28c.28-.09.54-.19.76-.3s.43-.23.62-.37c.19-.14.38-.29.56-.47.18-.17.36-.37.56-.59h.3v9.36h-.28v-9h-.03Z"/>
          </g>
          <g class="uuid-e571e39e-d922-4eb1-8b8b-a93165f0b757">
            <path class="uuid-183b5a73-509b-459e-90f8-69ccc28bd32f" d="m1087.22,517.63c-.28.39-.65.74-1.11,1.03-.45.29-.92.5-1.38.63v-.28c.28-.09.54-.19.76-.3s.43-.23.62-.37c.19-.14.38-.29.56-.47.18-.17.36-.37.56-.59h.3v9.36h-.28v-9h-.03Z"/>
          </g>
          <g class="uuid-e571e39e-d922-4eb1-8b8b-a93165f0b757">
            <path class="uuid-183b5a73-509b-459e-90f8-69ccc28bd32f" d="m1337.95,526.63h-6.3c0-.39.07-.75.25-1.07.17-.32.4-.62.69-.9.28-.28.6-.55.96-.8.35-.25.7-.5,1.05-.75.36-.25.71-.5,1.05-.76.34-.26.64-.53.91-.81.27-.28.48-.58.64-.89.16-.32.24-.66.24-1.03s-.07-.69-.2-.97c-.13-.28-.31-.51-.54-.7-.23-.19-.5-.33-.82-.43-.32-.1-.66-.14-1.04-.14-.49,0-.9.07-1.25.22-.35.15-.63.35-.85.61s-.38.57-.48.94-.15.76-.15,1.19h-.27c0-1.03.26-1.82.76-2.39s1.25-.85,2.25-.85c.4,0,.78.05,1.13.16s.65.26.91.48.46.47.61.78.23.68.23,1.1c0,.51-.14.98-.41,1.4s-.62.82-1.04,1.18-.87.71-1.36,1.04c-.49.33-.94.65-1.37.98-.43.33-.79.66-1.09,1-.3.34-.47.72-.51,1.12h6.03v.28Z"/>
          </g>
          <g class="uuid-e571e39e-d922-4eb1-8b8b-a93165f0b757">
            <path class="uuid-89baf22f-7c76-474f-9d08-4b9f365b7080" d="m1337.95,526.63h-6.3c0-.39.07-.75.25-1.07.17-.32.4-.62.69-.9.28-.28.6-.55.96-.8.35-.25.7-.5,1.05-.75.36-.25.71-.5,1.05-.76.34-.26.64-.53.91-.81.27-.28.48-.58.64-.89.16-.32.24-.66.24-1.03s-.07-.69-.2-.97c-.13-.28-.31-.51-.54-.7-.23-.19-.5-.33-.82-.43-.32-.1-.66-.14-1.04-.14-.49,0-.9.07-1.25.22-.35.15-.63.35-.85.61s-.38.57-.48.94-.15.76-.15,1.19h-.27c0-1.03.26-1.82.76-2.39s1.25-.85,2.25-.85c.4,0,.78.05,1.13.16s.65.26.91.48.46.47.61.78.23.68.23,1.1c0,.51-.14.98-.41,1.4s-.62.82-1.04,1.18-.87.71-1.36,1.04c-.49.33-.94.65-1.37.98-.43.33-.79.66-1.09,1-.3.34-.47.72-.51,1.12h6.03v.28Z"/>
          </g>
          <g class="uuid-e571e39e-d922-4eb1-8b8b-a93165f0b757">
            <path class="uuid-183b5a73-509b-459e-90f8-69ccc28bd32f" d="m1337.95,526.63h-6.3c0-.39.07-.75.25-1.07.17-.32.4-.62.69-.9.28-.28.6-.55.96-.8.35-.25.7-.5,1.05-.75.36-.25.71-.5,1.05-.76.34-.26.64-.53.91-.81.27-.28.48-.58.64-.89.16-.32.24-.66.24-1.03s-.07-.69-.2-.97c-.13-.28-.31-.51-.54-.7-.23-.19-.5-.33-.82-.43-.32-.1-.66-.14-1.04-.14-.49,0-.9.07-1.25.22-.35.15-.63.35-.85.61s-.38.57-.48.94-.15.76-.15,1.19h-.27c0-1.03.26-1.82.76-2.39s1.25-.85,2.25-.85c.4,0,.78.05,1.13.16s.65.26.91.48.46.47.61.78.23.68.23,1.1c0,.51-.14.98-.41,1.4s-.62.82-1.04,1.18-.87.71-1.36,1.04c-.49.33-.94.65-1.37.98-.43.33-.79.66-1.09,1-.3.34-.47.72-.51,1.12h6.03v.28Z"/>
          </g>
          <g class="uuid-e571e39e-d922-4eb1-8b8b-a93165f0b757">
            <path class="uuid-183b5a73-509b-459e-90f8-69ccc28bd32f" d="m1579.65,518.83c.15-.38.36-.7.64-.96.28-.26.62-.45,1.02-.58.4-.13.84-.19,1.33-.19.38,0,.74.04,1.09.12.35.08.66.22.94.4s.5.42.66.72c.17.29.25.65.25,1.06,0,.66-.19,1.17-.57,1.54-.38.37-.86.58-1.44.63v.03c.28.03.54.09.8.2s.5.26.7.45.37.44.5.74c.12.29.19.64.19,1.05,0,.44-.08.83-.25,1.17-.17.34-.4.63-.69.86-.29.23-.62.41-1,.53s-.79.18-1.22.18c-.53,0-1.01-.07-1.45-.22-.43-.15-.8-.36-1.1-.64-.3-.28-.53-.63-.68-1.04s-.21-.88-.17-1.42h.28c-.04.5.01.93.15,1.31.14.38.34.7.62.96s.61.45,1.02.58c.4.13.85.2,1.33.2.38,0,.74-.05,1.09-.16.35-.11.66-.26.92-.47.27-.21.48-.47.64-.78s.24-.66.24-1.07-.07-.75-.2-1.03c-.13-.28-.32-.52-.56-.7-.24-.18-.53-.32-.85-.41-.33-.09-.68-.15-1.07-.17h-.67v-.28h.67c.3,0,.6-.03.9-.1.3-.07.57-.18.8-.34.24-.16.43-.37.58-.63.15-.26.22-.58.22-.97,0-.38-.09-.69-.25-.95-.16-.26-.36-.46-.61-.63-.25-.16-.53-.28-.84-.34-.31-.07-.63-.1-.96-.1-.45,0-.86.06-1.22.17-.36.12-.67.29-.93.52-.26.23-.45.53-.58.87s-.2.76-.19,1.22h-.28c0-.51.06-.96.21-1.34Z"/>
          </g>
          <g class="uuid-e571e39e-d922-4eb1-8b8b-a93165f0b757">
            <path class="uuid-89baf22f-7c76-474f-9d08-4b9f365b7080" d="m1579.65,518.83c.15-.38.36-.7.64-.96.28-.26.62-.45,1.02-.58.4-.13.84-.19,1.33-.19.38,0,.74.04,1.09.12.35.08.66.22.94.4s.5.42.66.72c.17.29.25.65.25,1.06,0,.66-.19,1.17-.57,1.54-.38.37-.86.58-1.44.63v.03c.28.03.54.09.8.2s.5.26.7.45.37.44.5.74c.12.29.19.64.19,1.05,0,.44-.08.83-.25,1.17-.17.34-.4.63-.69.86-.29.23-.62.41-1,.53s-.79.18-1.22.18c-.53,0-1.01-.07-1.45-.22-.43-.15-.8-.36-1.1-.64-.3-.28-.53-.63-.68-1.04s-.21-.88-.17-1.42h.28c-.04.5.01.93.15,1.31.14.38.34.7.62.96s.61.45,1.02.58c.4.13.85.2,1.33.2.38,0,.74-.05,1.09-.16.35-.11.66-.26.92-.47.27-.21.48-.47.64-.78s.24-.66.24-1.07-.07-.75-.2-1.03c-.13-.28-.32-.52-.56-.7-.24-.18-.53-.32-.85-.41-.33-.09-.68-.15-1.07-.17h-.67v-.28h.67c.3,0,.6-.03.9-.1.3-.07.57-.18.8-.34.24-.16.43-.37.58-.63.15-.26.22-.58.22-.97,0-.38-.09-.69-.25-.95-.16-.26-.36-.46-.61-.63-.25-.16-.53-.28-.84-.34-.31-.07-.63-.1-.96-.1-.45,0-.86.06-1.22.17-.36.12-.67.29-.93.52-.26.23-.45.53-.58.87s-.2.76-.19,1.22h-.28c0-.51.06-.96.21-1.34Z"/>
          </g>
          <g class="uuid-e571e39e-d922-4eb1-8b8b-a93165f0b757">
            <path class="uuid-183b5a73-509b-459e-90f8-69ccc28bd32f" d="m1579.65,518.83c.15-.38.36-.7.64-.96.28-.26.62-.45,1.02-.58.4-.13.84-.19,1.33-.19.38,0,.74.04,1.09.12.35.08.66.22.94.4s.5.42.66.72c.17.29.25.65.25,1.06,0,.66-.19,1.17-.57,1.54-.38.37-.86.58-1.44.63v.03c.28.03.54.09.8.2s.5.26.7.45.37.44.5.74c.12.29.19.64.19,1.05,0,.44-.08.83-.25,1.17-.17.34-.4.63-.69.86-.29.23-.62.41-1,.53s-.79.18-1.22.18c-.53,0-1.01-.07-1.45-.22-.43-.15-.8-.36-1.1-.64-.3-.28-.53-.63-.68-1.04s-.21-.88-.17-1.42h.28c-.04.5.01.93.15,1.31.14.38.34.7.62.96s.61.45,1.02.58c.4.13.85.2,1.33.2.38,0,.74-.05,1.09-.16.35-.11.66-.26.92-.47.27-.21.48-.47.64-.78s.24-.66.24-1.07-.07-.75-.2-1.03c-.13-.28-.32-.52-.56-.7-.24-.18-.53-.32-.85-.41-.33-.09-.68-.15-1.07-.17h-.67v-.28h.67c.3,0,.6-.03.9-.1.3-.07.57-.18.8-.34.24-.16.43-.37.58-.63.15-.26.22-.58.22-.97,0-.38-.09-.69-.25-.95-.16-.26-.36-.46-.61-.63-.25-.16-.53-.28-.84-.34-.31-.07-.63-.1-.96-.1-.45,0-.86.06-1.22.17-.36.12-.67.29-.93.52-.26.23-.45.53-.58.87s-.2.76-.19,1.22h-.28c0-.51.06-.96.21-1.34Z"/>
          </g>
          <g class="uuid-e571e39e-d922-4eb1-8b8b-a93165f0b757">
            <path class="uuid-183b5a73-509b-459e-90f8-69ccc28bd32f" d="m821.65,1006.81v.28h-6.88v-.28h6.88Z"/>
            <path class="uuid-183b5a73-509b-459e-90f8-69ccc28bd32f" d="m822.12,1007.87l4.68-6.59h.34v6.65h1.69v.27h-1.69v2.44h-.28v-2.44h-4.75v-.33Zm4.72-6.21l-4.45,6.26h4.47v-6.26h-.03Z"/>
          </g>
          <g class="uuid-e571e39e-d922-4eb1-8b8b-a93165f0b757">
            <path class="uuid-89baf22f-7c76-474f-9d08-4b9f365b7080" d="m821.65,1006.81v.28h-6.88v-.28h6.88Z"/>
            <path class="uuid-89baf22f-7c76-474f-9d08-4b9f365b7080" d="m822.12,1007.87l4.68-6.59h.34v6.65h1.69v.27h-1.69v2.44h-.28v-2.44h-4.75v-.33Zm4.72-6.21l-4.45,6.26h4.47v-6.26h-.03Z"/>
          </g>
          <g class="uuid-e571e39e-d922-4eb1-8b8b-a93165f0b757">
            <path class="uuid-183b5a73-509b-459e-90f8-69ccc28bd32f" d="m821.65,1006.81v.28h-6.88v-.28h6.88Z"/>
            <path class="uuid-183b5a73-509b-459e-90f8-69ccc28bd32f" d="m822.12,1007.87l4.68-6.59h.34v6.65h1.69v.27h-1.69v2.44h-.28v-2.44h-4.75v-.33Zm4.72-6.21l-4.45,6.26h4.47v-6.26h-.03Z"/>
          </g>
          <g class="uuid-e571e39e-d922-4eb1-8b8b-a93165f0b757">
            <path class="uuid-183b5a73-509b-459e-90f8-69ccc28bd32f" d="m821.65,882.94v.28h-6.88v-.28h6.88Z"/>
            <path class="uuid-183b5a73-509b-459e-90f8-69ccc28bd32f" d="m822.67,878.97c.15-.38.36-.7.64-.96.28-.26.62-.45,1.02-.58.4-.13.84-.19,1.33-.19.38,0,.74.04,1.09.12.35.08.66.22.94.4s.5.42.66.72c.17.29.25.65.25,1.06,0,.66-.19,1.17-.57,1.54-.38.37-.86.58-1.44.63v.03c.28.03.54.09.81.2s.5.26.7.45c.21.2.37.44.5.74.12.29.19.64.19,1.05,0,.44-.08.83-.25,1.17-.17.34-.4.63-.69.86-.29.23-.62.41-1,.53s-.79.18-1.22.18c-.53,0-1.01-.07-1.45-.22-.43-.15-.8-.36-1.1-.64-.3-.28-.53-.63-.68-1.04s-.21-.88-.17-1.42h.28c-.04.5.01.93.15,1.31.14.38.34.7.62.96.27.26.61.45,1.02.58.4.13.85.2,1.33.2.38,0,.74-.05,1.09-.16.35-.11.66-.26.92-.47s.48-.47.64-.78c.16-.31.24-.66.24-1.07s-.07-.75-.2-1.03c-.13-.28-.32-.52-.56-.7-.24-.18-.53-.32-.85-.41s-.68-.15-1.07-.17h-.67v-.28h.67c.3,0,.6-.03.9-.1.3-.07.57-.18.81-.34.24-.16.43-.37.58-.63.15-.26.22-.58.22-.97,0-.38-.09-.69-.25-.95-.16-.26-.36-.46-.61-.63-.25-.16-.53-.28-.84-.34-.31-.07-.63-.1-.96-.1-.45,0-.86.06-1.22.17-.36.12-.67.29-.93.52-.26.23-.45.53-.58.87s-.19.76-.19,1.22h-.28c0-.51.06-.96.21-1.34Z"/>
          </g>
          <g class="uuid-e571e39e-d922-4eb1-8b8b-a93165f0b757">
            <path class="uuid-89baf22f-7c76-474f-9d08-4b9f365b7080" d="m821.65,882.94v.28h-6.88v-.28h6.88Z"/>
            <path class="uuid-89baf22f-7c76-474f-9d08-4b9f365b7080" d="m822.67,878.97c.15-.38.36-.7.64-.96.28-.26.62-.45,1.02-.58.4-.13.84-.19,1.33-.19.38,0,.74.04,1.09.12.35.08.66.22.94.4s.5.42.66.72c.17.29.25.65.25,1.06,0,.66-.19,1.17-.57,1.54-.38.37-.86.58-1.44.63v.03c.28.03.54.09.81.2s.5.26.7.45c.21.2.37.44.5.74.12.29.19.64.19,1.05,0,.44-.08.83-.25,1.17-.17.34-.4.63-.69.86-.29.23-.62.41-1,.53s-.79.18-1.22.18c-.53,0-1.01-.07-1.45-.22-.43-.15-.8-.36-1.1-.64-.3-.28-.53-.63-.68-1.04s-.21-.88-.17-1.42h.28c-.04.5.01.93.15,1.31.14.38.34.7.62.96.27.26.61.45,1.02.58.4.13.85.2,1.33.2.38,0,.74-.05,1.09-.16.35-.11.66-.26.92-.47s.48-.47.64-.78c.16-.31.24-.66.24-1.07s-.07-.75-.2-1.03c-.13-.28-.32-.52-.56-.7-.24-.18-.53-.32-.85-.41s-.68-.15-1.07-.17h-.67v-.28h.67c.3,0,.6-.03.9-.1.3-.07.57-.18.81-.34.24-.16.43-.37.58-.63.15-.26.22-.58.22-.97,0-.38-.09-.69-.25-.95-.16-.26-.36-.46-.61-.63-.25-.16-.53-.28-.84-.34-.31-.07-.63-.1-.96-.1-.45,0-.86.06-1.22.17-.36.12-.67.29-.93.52-.26.23-.45.53-.58.87s-.19.76-.19,1.22h-.28c0-.51.06-.96.21-1.34Z"/>
          </g>
          <g class="uuid-e571e39e-d922-4eb1-8b8b-a93165f0b757">
            <path class="uuid-183b5a73-509b-459e-90f8-69ccc28bd32f" d="m821.65,882.94v.28h-6.88v-.28h6.88Z"/>
            <path class="uuid-183b5a73-509b-459e-90f8-69ccc28bd32f" d="m822.67,878.97c.15-.38.36-.7.64-.96.28-.26.62-.45,1.02-.58.4-.13.84-.19,1.33-.19.38,0,.74.04,1.09.12.35.08.66.22.94.4s.5.42.66.72c.17.29.25.65.25,1.06,0,.66-.19,1.17-.57,1.54-.38.37-.86.58-1.44.63v.03c.28.03.54.09.81.2s.5.26.7.45c.21.2.37.44.5.74.12.29.19.64.19,1.05,0,.44-.08.83-.25,1.17-.17.34-.4.63-.69.86-.29.23-.62.41-1,.53s-.79.18-1.22.18c-.53,0-1.01-.07-1.45-.22-.43-.15-.8-.36-1.1-.64-.3-.28-.53-.63-.68-1.04s-.21-.88-.17-1.42h.28c-.04.5.01.93.15,1.31.14.38.34.7.62.96.27.26.61.45,1.02.58.4.13.85.2,1.33.2.38,0,.74-.05,1.09-.16.35-.11.66-.26.92-.47s.48-.47.64-.78c.16-.31.24-.66.24-1.07s-.07-.75-.2-1.03c-.13-.28-.32-.52-.56-.7-.24-.18-.53-.32-.85-.41s-.68-.15-1.07-.17h-.67v-.28h.67c.3,0,.6-.03.9-.1.3-.07.57-.18.81-.34.24-.16.43-.37.58-.63.15-.26.22-.58.22-.97,0-.38-.09-.69-.25-.95-.16-.26-.36-.46-.61-.63-.25-.16-.53-.28-.84-.34-.31-.07-.63-.1-.96-.1-.45,0-.86.06-1.22.17-.36.12-.67.29-.93.52-.26.23-.45.53-.58.87s-.19.76-.19,1.22h-.28c0-.51.06-.96.21-1.34Z"/>
          </g>
          <g class="uuid-e571e39e-d922-4eb1-8b8b-a93165f0b757">
            <path class="uuid-183b5a73-509b-459e-90f8-69ccc28bd32f" d="m821.65,759.07v.28h-6.88v-.28h6.88Z"/>
            <path class="uuid-183b5a73-509b-459e-90f8-69ccc28bd32f" d="m828.71,762.9h-6.3c0-.39.07-.75.25-1.07.17-.32.4-.62.69-.9.28-.28.6-.55.96-.8.35-.25.7-.5,1.05-.75.36-.25.71-.5,1.05-.76.34-.26.64-.53.91-.81.27-.28.48-.58.64-.89.16-.32.24-.66.24-1.03s-.07-.69-.2-.97c-.13-.28-.31-.51-.54-.7-.23-.19-.5-.33-.82-.43-.32-.1-.66-.14-1.04-.14-.49,0-.9.07-1.25.22-.35.15-.63.35-.85.61s-.38.57-.48.94-.15.76-.15,1.19h-.27c0-1.03.26-1.82.76-2.39s1.25-.85,2.25-.85c.4,0,.78.05,1.13.16s.65.26.91.48.46.47.61.78.23.68.23,1.1c0,.51-.14.98-.41,1.4s-.62.82-1.04,1.18-.87.71-1.36,1.04c-.49.33-.94.65-1.37.98-.43.33-.79.66-1.09,1-.3.34-.47.72-.51,1.12h6.03v.28Z"/>
          </g>
          <g class="uuid-e571e39e-d922-4eb1-8b8b-a93165f0b757">
            <path class="uuid-89baf22f-7c76-474f-9d08-4b9f365b7080" d="m821.65,759.07v.28h-6.88v-.28h6.88Z"/>
            <path class="uuid-89baf22f-7c76-474f-9d08-4b9f365b7080" d="m828.71,762.9h-6.3c0-.39.07-.75.25-1.07.17-.32.4-.62.69-.9.28-.28.6-.55.96-.8.35-.25.7-.5,1.05-.75.36-.25.71-.5,1.05-.76.34-.26.64-.53.91-.81.27-.28.48-.58.64-.89.16-.32.24-.66.24-1.03s-.07-.69-.2-.97c-.13-.28-.31-.51-.54-.7-.23-.19-.5-.33-.82-.43-.32-.1-.66-.14-1.04-.14-.49,0-.9.07-1.25.22-.35.15-.63.35-.85.61s-.38.57-.48.94-.15.76-.15,1.19h-.27c0-1.03.26-1.82.76-2.39s1.25-.85,2.25-.85c.4,0,.78.05,1.13.16s.65.26.91.48.46.47.61.78.23.68.23,1.1c0,.51-.14.98-.41,1.4s-.62.82-1.04,1.18-.87.71-1.36,1.04c-.49.33-.94.65-1.37.98-.43.33-.79.66-1.09,1-.3.34-.47.72-.51,1.12h6.03v.28Z"/>
          </g>
          <g class="uuid-e571e39e-d922-4eb1-8b8b-a93165f0b757">
            <path class="uuid-183b5a73-509b-459e-90f8-69ccc28bd32f" d="m821.65,759.07v.28h-6.88v-.28h6.88Z"/>
            <path class="uuid-183b5a73-509b-459e-90f8-69ccc28bd32f" d="m828.71,762.9h-6.3c0-.39.07-.75.25-1.07.17-.32.4-.62.69-.9.28-.28.6-.55.96-.8.35-.25.7-.5,1.05-.75.36-.25.71-.5,1.05-.76.34-.26.64-.53.91-.81.27-.28.48-.58.64-.89.16-.32.24-.66.24-1.03s-.07-.69-.2-.97c-.13-.28-.31-.51-.54-.7-.23-.19-.5-.33-.82-.43-.32-.1-.66-.14-1.04-.14-.49,0-.9.07-1.25.22-.35.15-.63.35-.85.61s-.38.57-.48.94-.15.76-.15,1.19h-.27c0-1.03.26-1.82.76-2.39s1.25-.85,2.25-.85c.4,0,.78.05,1.13.16s.65.26.91.48.46.47.61.78.23.68.23,1.1c0,.51-.14.98-.41,1.4s-.62.82-1.04,1.18-.87.71-1.36,1.04c-.49.33-.94.65-1.37.98-.43.33-.79.66-1.09,1-.3.34-.47.72-.51,1.12h6.03v.28Z"/>
          </g>
          <g class="uuid-e571e39e-d922-4eb1-8b8b-a93165f0b757">
            <path class="uuid-183b5a73-509b-459e-90f8-69ccc28bd32f" d="m821.65,635.2v.28h-6.88v-.28h6.88Z"/>
            <path class="uuid-183b5a73-509b-459e-90f8-69ccc28bd32f" d="m825.72,630.03c-.28.39-.65.74-1.11,1.03-.45.29-.92.5-1.38.63v-.28c.28-.09.54-.19.76-.3s.43-.23.62-.37c.19-.14.38-.29.56-.47.18-.17.36-.37.56-.59h.3v9.36h-.28v-9h-.03Z"/>
          </g>
          <g class="uuid-e571e39e-d922-4eb1-8b8b-a93165f0b757">
            <path class="uuid-89baf22f-7c76-474f-9d08-4b9f365b7080" d="m821.65,635.2v.28h-6.88v-.28h6.88Z"/>
            <path class="uuid-89baf22f-7c76-474f-9d08-4b9f365b7080" d="m825.72,630.03c-.28.39-.65.74-1.11,1.03-.45.29-.92.5-1.38.63v-.28c.28-.09.54-.19.76-.3s.43-.23.62-.37c.19-.14.38-.29.56-.47.18-.17.36-.37.56-.59h.3v9.36h-.28v-9h-.03Z"/>
          </g>
          <g class="uuid-e571e39e-d922-4eb1-8b8b-a93165f0b757">
            <path class="uuid-183b5a73-509b-459e-90f8-69ccc28bd32f" d="m821.65,635.2v.28h-6.88v-.28h6.88Z"/>
            <path class="uuid-183b5a73-509b-459e-90f8-69ccc28bd32f" d="m825.72,630.03c-.28.39-.65.74-1.11,1.03-.45.29-.92.5-1.38.63v-.28c.28-.09.54-.19.76-.3s.43-.23.62-.37c.19-.14.38-.29.56-.47.18-.17.36-.37.56-.59h.3v9.36h-.28v-9h-.03Z"/>
          </g>
          <g class="uuid-e571e39e-d922-4eb1-8b8b-a93165f0b757">
            <path class="uuid-183b5a73-509b-459e-90f8-69ccc28bd32f" d="m825.72,381.14c-.28.39-.65.74-1.11,1.03-.45.29-.92.5-1.38.63v-.28c.28-.09.54-.19.76-.3s.43-.23.62-.37c.19-.14.38-.29.56-.47.18-.17.36-.37.56-.59h.3v9.36h-.28v-9h-.03Z"/>
          </g>
          <g class="uuid-e571e39e-d922-4eb1-8b8b-a93165f0b757">
            <path class="uuid-89baf22f-7c76-474f-9d08-4b9f365b7080" d="m825.72,381.14c-.28.39-.65.74-1.11,1.03-.45.29-.92.5-1.38.63v-.28c.28-.09.54-.19.76-.3s.43-.23.62-.37c.19-.14.38-.29.56-.47.18-.17.36-.37.56-.59h.3v9.36h-.28v-9h-.03Z"/>
          </g>
          <g class="uuid-e571e39e-d922-4eb1-8b8b-a93165f0b757">
            <path class="uuid-183b5a73-509b-459e-90f8-69ccc28bd32f" d="m825.72,381.14c-.28.39-.65.74-1.11,1.03-.45.29-.92.5-1.38.63v-.28c.28-.09.54-.19.76-.3s.43-.23.62-.37c.19-.14.38-.29.56-.47.18-.17.36-.37.56-.59h.3v9.36h-.28v-9h-.03Z"/>
          </g>
          <g class="uuid-e571e39e-d922-4eb1-8b8b-a93165f0b757">
            <path class="uuid-183b5a73-509b-459e-90f8-69ccc28bd32f" d="m828.71,266.28h-6.3c0-.39.07-.75.25-1.07.17-.32.4-.62.69-.9.28-.28.6-.55.96-.8.35-.25.7-.5,1.05-.75.36-.25.71-.5,1.05-.76.34-.26.64-.53.91-.81.27-.28.48-.58.64-.89.16-.32.24-.66.24-1.03s-.07-.69-.2-.97c-.13-.28-.31-.51-.54-.7-.23-.19-.5-.33-.82-.43-.32-.1-.66-.14-1.04-.14-.49,0-.9.07-1.25.22-.35.15-.63.35-.85.61s-.38.57-.48.94-.15.76-.15,1.19h-.27c0-1.03.26-1.82.76-2.39s1.25-.85,2.25-.85c.4,0,.78.05,1.13.16s.65.26.91.48.46.47.61.78.23.68.23,1.1c0,.51-.14.98-.41,1.4s-.62.82-1.04,1.18-.87.71-1.36,1.04c-.49.33-.94.65-1.37.98-.43.33-.79.66-1.09,1-.3.34-.47.72-.51,1.12h6.03v.28Z"/>
          </g>
          <g class="uuid-e571e39e-d922-4eb1-8b8b-a93165f0b757">
            <path class="uuid-89baf22f-7c76-474f-9d08-4b9f365b7080" d="m828.71,266.28h-6.3c0-.39.07-.75.25-1.07.17-.32.4-.62.69-.9.28-.28.6-.55.96-.8.35-.25.7-.5,1.05-.75.36-.25.71-.5,1.05-.76.34-.26.64-.53.91-.81.27-.28.48-.58.64-.89.16-.32.24-.66.24-1.03s-.07-.69-.2-.97c-.13-.28-.31-.51-.54-.7-.23-.19-.5-.33-.82-.43-.32-.1-.66-.14-1.04-.14-.49,0-.9.07-1.25.22-.35.15-.63.35-.85.61s-.38.57-.48.94-.15.76-.15,1.19h-.27c0-1.03.26-1.82.76-2.39s1.25-.85,2.25-.85c.4,0,.78.05,1.13.16s.65.26.91.48.46.47.61.78.23.68.23,1.1c0,.51-.14.98-.41,1.4s-.62.82-1.04,1.18-.87.71-1.36,1.04c-.49.33-.94.65-1.37.98-.43.33-.79.66-1.09,1-.3.34-.47.72-.51,1.12h6.03v.28Z"/>
          </g>
          <g class="uuid-e571e39e-d922-4eb1-8b8b-a93165f0b757">
            <path class="uuid-183b5a73-509b-459e-90f8-69ccc28bd32f" d="m828.71,266.28h-6.3c0-.39.07-.75.25-1.07.17-.32.4-.62.69-.9.28-.28.6-.55.96-.8.35-.25.7-.5,1.05-.75.36-.25.71-.5,1.05-.76.34-.26.64-.53.91-.81.27-.28.48-.58.64-.89.16-.32.24-.66.24-1.03s-.07-.69-.2-.97c-.13-.28-.31-.51-.54-.7-.23-.19-.5-.33-.82-.43-.32-.1-.66-.14-1.04-.14-.49,0-.9.07-1.25.22-.35.15-.63.35-.85.61s-.38.57-.48.94-.15.76-.15,1.19h-.27c0-1.03.26-1.82.76-2.39s1.25-.85,2.25-.85c.4,0,.78.05,1.13.16s.65.26.91.48.46.47.61.78.23.68.23,1.1c0,.51-.14.98-.41,1.4s-.62.82-1.04,1.18-.87.71-1.36,1.04c-.49.33-.94.65-1.37.98-.43.33-.79.66-1.09,1-.3.34-.47.72-.51,1.12h6.03v.28Z"/>
          </g>
          <g class="uuid-e571e39e-d922-4eb1-8b8b-a93165f0b757">
            <path class="uuid-183b5a73-509b-459e-90f8-69ccc28bd32f" d="m822.67,134.61c.15-.38.36-.7.64-.96.28-.26.62-.45,1.02-.58.4-.13.84-.19,1.33-.19.38,0,.74.04,1.09.12s.66.22.94.4.5.42.66.72c.17.29.25.65.25,1.06,0,.66-.19,1.17-.57,1.54-.38.37-.86.58-1.44.63v.03c.28.03.54.09.81.2.26.11.5.26.7.45.21.2.37.44.5.74.12.29.19.64.19,1.05,0,.44-.08.83-.25,1.17s-.4.63-.69.86c-.29.23-.62.41-1,.53s-.79.18-1.22.18c-.53,0-1.01-.07-1.45-.22s-.8-.36-1.1-.64c-.3-.28-.53-.63-.68-1.04-.15-.41-.21-.89-.17-1.42h.28c-.04.5.01.93.15,1.31s.34.7.62.96c.27.26.61.45,1.02.58.4.13.85.2,1.33.2.38,0,.74-.05,1.09-.16.35-.1.66-.26.92-.47s.48-.47.64-.78c.16-.31.24-.66.24-1.07s-.07-.75-.2-1.03-.32-.52-.56-.7c-.24-.18-.53-.32-.85-.41s-.68-.15-1.07-.17h-.67v-.27h.67c.3,0,.6-.03.9-.1.3-.07.57-.18.81-.34.24-.16.43-.37.58-.63.15-.26.22-.58.22-.97,0-.38-.09-.69-.25-.95s-.36-.47-.61-.63c-.25-.16-.53-.27-.84-.34-.31-.07-.63-.1-.96-.1-.45,0-.86.06-1.22.17-.36.11-.67.29-.93.52-.26.23-.45.53-.58.87s-.19.76-.19,1.22h-.28c0-.51.06-.96.21-1.34Z"/>
          </g>
          <g class="uuid-e571e39e-d922-4eb1-8b8b-a93165f0b757">
            <path class="uuid-89baf22f-7c76-474f-9d08-4b9f365b7080" d="m822.67,134.61c.15-.38.36-.7.64-.96.28-.26.62-.45,1.02-.58.4-.13.84-.19,1.33-.19.38,0,.74.04,1.09.12s.66.22.94.4.5.42.66.72c.17.29.25.65.25,1.06,0,.66-.19,1.17-.57,1.54-.38.37-.86.58-1.44.63v.03c.28.03.54.09.81.2.26.11.5.26.7.45.21.2.37.44.5.74.12.29.19.64.19,1.05,0,.44-.08.83-.25,1.17s-.4.63-.69.86c-.29.23-.62.41-1,.53s-.79.18-1.22.18c-.53,0-1.01-.07-1.45-.22s-.8-.36-1.1-.64c-.3-.28-.53-.63-.68-1.04-.15-.41-.21-.89-.17-1.42h.28c-.04.5.01.93.15,1.31s.34.7.62.96c.27.26.61.45,1.02.58.4.13.85.2,1.33.2.38,0,.74-.05,1.09-.16.35-.1.66-.26.92-.47s.48-.47.64-.78c.16-.31.24-.66.24-1.07s-.07-.75-.2-1.03-.32-.52-.56-.7c-.24-.18-.53-.32-.85-.41s-.68-.15-1.07-.17h-.67v-.27h.67c.3,0,.6-.03.9-.1.3-.07.57-.18.81-.34.24-.16.43-.37.58-.63.15-.26.22-.58.22-.97,0-.38-.09-.69-.25-.95s-.36-.47-.61-.63c-.25-.16-.53-.27-.84-.34-.31-.07-.63-.1-.96-.1-.45,0-.86.06-1.22.17-.36.11-.67.29-.93.52-.26.23-.45.53-.58.87s-.19.76-.19,1.22h-.28c0-.51.06-.96.21-1.34Z"/>
          </g>
          <g class="uuid-e571e39e-d922-4eb1-8b8b-a93165f0b757">
            <path class="uuid-183b5a73-509b-459e-90f8-69ccc28bd32f" d="m822.67,134.61c.15-.38.36-.7.64-.96.28-.26.62-.45,1.02-.58.4-.13.84-.19,1.33-.19.38,0,.74.04,1.09.12s.66.22.94.4.5.42.66.72c.17.29.25.65.25,1.06,0,.66-.19,1.17-.57,1.54-.38.37-.86.58-1.44.63v.03c.28.03.54.09.81.2.26.11.5.26.7.45.21.2.37.44.5.74.12.29.19.64.19,1.05,0,.44-.08.83-.25,1.17s-.4.63-.69.86c-.29.23-.62.41-1,.53s-.79.18-1.22.18c-.53,0-1.01-.07-1.45-.22s-.8-.36-1.1-.64c-.3-.28-.53-.63-.68-1.04-.15-.41-.21-.89-.17-1.42h.28c-.04.5.01.93.15,1.31s.34.7.62.96c.27.26.61.45,1.02.58.4.13.85.2,1.33.2.38,0,.74-.05,1.09-.16.35-.1.66-.26.92-.47s.48-.47.64-.78c.16-.31.24-.66.24-1.07s-.07-.75-.2-1.03-.32-.52-.56-.7c-.24-.18-.53-.32-.85-.41s-.68-.15-1.07-.17h-.67v-.27h.67c.3,0,.6-.03.9-.1.3-.07.57-.18.81-.34.24-.16.43-.37.58-.63.15-.26.22-.58.22-.97,0-.38-.09-.69-.25-.95s-.36-.47-.61-.63c-.25-.16-.53-.27-.84-.34-.31-.07-.63-.1-.96-.1-.45,0-.86.06-1.22.17-.36.11-.67.29-.93.52-.26.23-.45.53-.58.87s-.19.76-.19,1.22h-.28c0-.51.06-.96.21-1.34Z"/>
          </g>
          <g class="uuid-e571e39e-d922-4eb1-8b8b-a93165f0b757">
            <path class="uuid-183b5a73-509b-459e-90f8-69ccc28bd32f" d="m822.12,15.77l4.68-6.59h.34v6.65h1.69v.28h-1.69v2.44h-.28v-2.44h-4.75v-.33Zm4.72-6.21l-4.45,6.26h4.47v-6.26h-.03Z"/>
          </g>
          <g class="uuid-e571e39e-d922-4eb1-8b8b-a93165f0b757">
            <path class="uuid-89baf22f-7c76-474f-9d08-4b9f365b7080" d="m822.12,15.77l4.68-6.59h.34v6.65h1.69v.28h-1.69v2.44h-.28v-2.44h-4.75v-.33Zm4.72-6.21l-4.45,6.26h4.47v-6.26h-.03Z"/>
          </g>
          <g class="uuid-e571e39e-d922-4eb1-8b8b-a93165f0b757">
            <path class="uuid-183b5a73-509b-459e-90f8-69ccc28bd32f" d="m822.12,15.77l4.68-6.59h.34v6.65h1.69v.28h-1.69v2.44h-.28v-2.44h-4.75v-.33Zm4.72-6.21l-4.45,6.26h4.47v-6.26h-.03Z"/>
          </g>
          <g class="uuid-e571e39e-d922-4eb1-8b8b-a93165f0b757">
            <path class="uuid-183b5a73-509b-459e-90f8-69ccc28bd32f" d="m828.84,523.7c-.11.58-.31,1.1-.58,1.56s-.64.83-1.09,1.11c-.45.28-1.01.42-1.69.42s-1.23-.14-1.69-.42c-.45-.28-.82-.65-1.09-1.11s-.47-.98-.58-1.56-.17-1.16-.17-1.75.06-1.17.17-1.75.31-1.1.58-1.55.64-.83,1.09-1.12,1.02-.43,1.69-.43,1.24.14,1.69.43.81.66,1.09,1.12.47.98.58,1.55.17,1.16.17,1.75-.06,1.17-.17,1.75Zm-.25-3.34c-.1-.54-.27-1.03-.52-1.47-.25-.44-.58-.8-1-1.08-.42-.28-.95-.42-1.59-.42s-1.17.14-1.59.42-.75.64-1,1.08c-.25.44-.42.93-.52,1.47-.1.54-.15,1.07-.15,1.6s.05,1.06.15,1.6c.1.54.27,1.03.52,1.47.25.44.58.8,1,1.08.42.28.95.42,1.59.42s1.17-.14,1.59-.42c.42-.28.75-.64,1-1.08.25-.44.42-.93.52-1.47.1-.54.15-1.07.15-1.6s-.05-1.05-.15-1.6Z"/>
          </g>
          <g class="uuid-e571e39e-d922-4eb1-8b8b-a93165f0b757">
            <path class="uuid-89baf22f-7c76-474f-9d08-4b9f365b7080" d="m828.84,523.7c-.11.58-.31,1.1-.58,1.56s-.64.83-1.09,1.11c-.45.28-1.01.42-1.69.42s-1.23-.14-1.69-.42c-.45-.28-.82-.65-1.09-1.11s-.47-.98-.58-1.56-.17-1.16-.17-1.75.06-1.17.17-1.75.31-1.1.58-1.55.64-.83,1.09-1.12,1.02-.43,1.69-.43,1.24.14,1.69.43.81.66,1.09,1.12.47.98.58,1.55.17,1.16.17,1.75-.06,1.17-.17,1.75Zm-.25-3.34c-.1-.54-.27-1.03-.52-1.47-.25-.44-.58-.8-1-1.08-.42-.28-.95-.42-1.59-.42s-1.17.14-1.59.42-.75.64-1,1.08c-.25.44-.42.93-.52,1.47-.1.54-.15,1.07-.15,1.6s.05,1.06.15,1.6c.1.54.27,1.03.52,1.47.25.44.58.8,1,1.08.42.28.95.42,1.59.42s1.17-.14,1.59-.42c.42-.28.75-.64,1-1.08.25-.44.42-.93.52-1.47.1-.54.15-1.07.15-1.6s-.05-1.05-.15-1.6Z"/>
          </g>
          <g class="uuid-e571e39e-d922-4eb1-8b8b-a93165f0b757">
            <path class="uuid-183b5a73-509b-459e-90f8-69ccc28bd32f" d="m828.84,523.7c-.11.58-.31,1.1-.58,1.56s-.64.83-1.09,1.11c-.45.28-1.01.42-1.69.42s-1.23-.14-1.69-.42c-.45-.28-.82-.65-1.09-1.11s-.47-.98-.58-1.56-.17-1.16-.17-1.75.06-1.17.17-1.75.31-1.1.58-1.55.64-.83,1.09-1.12,1.02-.43,1.69-.43,1.24.14,1.69.43.81.66,1.09,1.12.47.98.58,1.55.17,1.16.17,1.75-.06,1.17-.17,1.75Zm-.25-3.34c-.1-.54-.27-1.03-.52-1.47-.25-.44-.58-.8-1-1.08-.42-.28-.95-.42-1.59-.42s-1.17.14-1.59.42-.75.64-1,1.08c-.25.44-.42.93-.52,1.47-.1.54-.15,1.07-.15,1.6s.05,1.06.15,1.6c.1.54.27,1.03.52,1.47.25.44.58.8,1,1.08.42.28.95.42,1.59.42s1.17-.14,1.59-.42c.42-.28.75-.64,1-1.08.25-.44.42-.93.52-1.47.1-.54.15-1.07.15-1.6s-.05-1.05-.15-1.6Z"/>
          </g>
          <path class="uuid-e7f226cc-4ed7-4692-9cab-8535ae2bdc17" d="m-1.85,5316.5v19.72-19.72l1.15-19.67h0l1.15-19.61H.44l1.15-19.56h0l1.15-19.51h0l1.15-19.45h0l1.15-19.4h0l1.15-19.35h0l1.15-19.29h0l1.15-19.24h0l1.15-19.19h0l1.15-19.13h0l1.15-19.08h0l1.15-19.03h0l1.15-18.97h0l1.15-18.92h0l1.15-18.87h0l1.15-18.82h0l1.15-18.76h0l1.15-18.71h0l1.15-18.66h0l1.15-18.61h0l1.15-18.55h0l1.15-18.5h0l1.15-18.45h0l1.15-18.4h0l1.15-18.35h0l1.15-18.3h0l1.15-18.24h0l1.15-18.19h0l1.15-18.14h0l1.15-18.09h0l1.15-18.04h0l1.15-17.99h0l1.15-17.93h0l1.15-17.88h0l1.15-17.83h0l1.15-17.78h0l1.15-17.73h0l1.15-17.68h0l1.15-17.63h0l1.15-17.58h0l1.15-17.53h0l1.15-17.47h0l1.15-17.42h0l1.15-17.37h0l1.15-17.32h0l1.15-17.27h0l1.15-17.22h0l1.15-17.17h0l1.15-17.12h0l1.15-17.07h0l1.15-17.02h0l1.15-16.97h0l1.15-16.92h0l1.15-16.87h0l1.15-16.82h0l1.15-16.77h0l1.15-16.72h0l1.15-16.67h0l1.15-16.62h0l1.15-16.57h0l1.15-16.53h0l1.15-16.48h0l1.15-16.43h0l1.15-16.38h0l1.15-16.33h0l1.15-16.28h0l1.15-16.23h0l1.15-16.18h0l1.15-16.13h0l1.15-16.08h0l1.15-16.04h0l1.15-15.99h0l1.15-15.94h0l1.15-15.89h0l1.15-15.84h0l1.15-15.79h0l1.15-15.75h0l1.15-15.7h0l1.15-15.65h0l1.15-15.6h0l1.15-15.55h0l1.15-15.51h0l1.15-15.46h0l1.15-15.41h0l1.15-15.36h0l1.15-15.32h0l1.15-15.27h0l1.15-15.22h0l1.15-15.17h0l1.15-15.13h0l1.15-15.08h0l1.15-15.03h0l1.15-14.99h0l1.15-14.94h0l1.15-14.89h0l1.15-14.85h0l1.15-14.8h0l1.15-14.75h0l1.15-14.71h0l1.15-14.66h0l1.15-14.61h0l1.15-14.57h0l1.15-14.52h0l1.15-14.47h0l1.15-14.43h0l1.15-14.38h0l1.15-14.34h0l1.15-14.29h0l1.15-14.24h0l1.15-14.2h0l1.15-14.15h0l1.15-14.11h0l1.15-14.06h0l1.15-14.02h0l1.15-13.97h0l1.15-13.93h0l1.15-13.88h0l1.15-13.84h0l1.15-13.79h0l1.15-13.75h0l1.15-13.7h0l1.15-13.66h0l1.15-13.61h0l1.15-13.57h0l1.15-13.52h0l1.15-13.48h0l1.15-13.43h0l1.15-13.39h0l1.15-13.34h0l1.15-13.3h0l1.15-13.26h0l1.15-13.21h0l1.15-13.17h0l1.15-13.12h0l1.15-13.08h0l1.15-13.04h0l1.15-12.99h0l1.15-12.95h0l1.15-12.91h0l1.15-12.86h0l1.15-12.82h0l1.15-12.78h0l1.15-12.73h0l1.15-12.69h0l1.15-12.65h0l1.15-12.6h0l1.15-12.56h0l1.15-12.52h0l1.15-12.47h0l1.15-12.43h0l1.15-12.39h0l1.15-12.35h0l1.15-12.3h0l1.15-12.26h0l1.15-12.22h0l1.15-12.18h0l1.15-12.13h0l1.15-12.09h0l1.15-12.05h0l1.15-12.01h0l1.15-11.97h0l1.15-11.92h0l1.15-11.88h0l1.15-11.84h0l1.15-11.8h0l1.15-11.76h0l1.15-11.71h0l1.15-11.67h0l1.15-11.63h0l1.15-11.59h0l1.15-11.55h0l1.15-11.51h0l1.15-11.47h0l1.15-11.43h0l1.15-11.39h0l1.15-11.34h0l1.15-11.3h0l1.15-11.26h0l1.15-11.22h0l1.15-11.18h0l1.15-11.14h0l1.15-11.1h0l1.15-11.06h0l1.15-11.02h0l1.15-10.98h0l1.15-10.94h0l1.15-10.9h0l1.15-10.86h0l1.15-10.82h0l1.15-10.78h0l1.15-10.74h0l1.15-10.7h0l1.15-10.66h0l1.15-10.62h0l1.15-10.58h0l1.15-10.54h0l1.15-10.5h0l1.15-10.46h0l1.15-10.42h0l1.15-10.39h0l1.15-10.35h0l1.15-10.31h0l1.15-10.27h0l1.15-10.23h0l1.15-10.19h0l1.15-10.15h0l1.15-10.11h0l1.15-10.08h0l1.15-10.04h0l1.15-10h0l1.15-9.96h0l1.15-9.92h0l1.15-9.88h0l1.15-9.85h0l1.15-9.81h0l1.15-9.77h0l1.15-9.73h0l1.15-9.69h0l1.15-9.66h0l1.15-9.62h0l1.15-9.58h0l1.15-9.54h0l1.15-9.51h0l1.15-9.47h0l1.15-9.43h0l1.15-9.4h0l1.15-9.36h0l1.15-9.32h0l1.15-9.28h0l1.15-9.25h0l1.15-9.21h0l1.15-9.17h0l1.15-9.14h0l1.15-9.1h0l1.15-9.06h0l1.15-9.03h0l1.15-8.99h0l1.15-8.95h0l1.15-8.92h0l1.15-8.88h0l1.15-8.85h0l1.15-8.81h0l1.15-8.77h0l1.15-8.74h0l1.15-8.7h0l1.15-8.67h0l1.15-8.63h0l1.15-8.6h0l1.15-8.56h0l1.15-8.52h0l1.15-8.49h0l1.15-8.45h0l1.15-8.42h0l1.15-8.38h0l1.15-8.35h0l1.15-8.31h0l1.15-8.28h0l1.15-8.24h0l1.15-8.21h0l1.15-8.17h0l1.15-8.14h0l1.15-8.11h0l1.15-8.07h0l1.15-8.04h0l1.15-8h0l1.15-7.97h0l1.15-7.93h0l1.15-7.9h0l1.15-7.87h0l1.15-7.83h0l1.15-7.8h0l1.15-7.76h0l1.15-7.73h0l1.15-7.7h0l1.15-7.66h0l1.15-7.63h0l1.15-7.6h0l1.15-7.56h0l1.15-7.53h0l1.15-7.5h0l1.15-7.46h0l1.15-7.43h0l1.15-7.4h0l1.15-7.36h0l1.15-7.33h0l1.15-7.3h0l1.15-7.27h0l1.15-7.23h0l1.15-7.2h0l1.15-7.17h0l1.15-7.14h0l1.15-7.1h0l1.15-7.07h0l1.15-7.04h0l1.15-7.01h0l1.15-6.97h0l1.15-6.94h0l1.15-6.91h0l1.15-6.88h0l1.15-6.85h0l1.15-6.82h0l1.15-6.78h0l1.15-6.75h0l1.15-6.72h0l1.15-6.69h0l1.15-6.66h0l1.15-6.63h0l1.15-6.6h0l1.15-6.56h0l1.15-6.53h0l1.15-6.5h0l1.15-6.47h0l1.15-6.44h0l1.15-6.41h0l1.15-6.38h0l1.15-6.35h0l1.15-6.32h0l1.15-6.29h0l1.15-6.26h0l1.15-6.23h0l1.15-6.2h0l1.15-6.17h0l1.15-6.14h0l1.15-6.11h0l1.15-6.08h0l1.15-6.05h0l1.15-6.02h0l1.15-5.99h0l1.15-5.96h0l1.15-5.93h0l1.15-5.9h0l1.15-5.87h0l1.15-5.84h0l1.15-5.81h0l1.15-5.78h0l1.15-5.75h0l1.15-5.72h0l1.15-5.69h0l1.15-5.67h0l1.15-5.64h0l1.15-5.61h0l1.15-5.58h0l1.15-5.55h0l1.15-5.52h0l1.15-5.49h0l1.15-5.47h0l1.15-5.44h0l1.15-5.41h0l1.15-5.38h0l1.15-5.35h0l1.15-5.32h0l1.15-5.3h0l1.15-5.27h0l1.15-5.24h0l1.15-5.21h0l1.15-5.19h0l1.15-5.16h0l1.15-5.13h0l1.15-5.1h0l1.15-5.08h0l1.15-5.05h0l1.15-5.02h0l1.15-4.99h0l1.15-4.97h0l1.15-4.94h0l1.15-4.91h0l1.15-4.89h0l1.15-4.86h0l1.15-4.83h0l1.15-4.81h0l1.15-4.78h0l1.15-4.75h0l1.15-4.73h0l1.15-4.7h0l1.15-4.67h0l1.15-4.65h0l1.15-4.62h0l1.15-4.6h0l1.15-4.57h0l1.15-4.54h0l1.15-4.52h0l1.15-4.49h0l1.15-4.47h0l1.15-4.44h0l1.15-4.42h0l1.15-4.39h0l1.15-4.37h0l1.15-4.34h0l1.15-4.31h0l1.15-4.29h0l1.15-4.26h0l1.15-4.24h0l1.15-4.21h0l1.15-4.19h0l1.15-4.17h0l1.15-4.14h0l1.15-4.12h0l1.15-4.09h0l1.15-4.07h0l1.15-4.04h0l1.15-4.02h0l1.15-3.99h0l1.15-3.97h0l1.15-3.95h0l1.15-3.92h0l1.15-3.9h0l1.15-3.87h0l1.15-3.85h0l1.15-3.83h0l1.15-3.8h0l1.15-3.78h0l1.15-3.76h0l1.15-3.73h0l1.15-3.71h0l1.15-3.69h0l1.15-3.66h0l1.15-3.64h0l1.15-3.62h0l1.15-3.59h0l1.15-3.57h0l1.15-3.55h0l1.15-3.52h0l1.15-3.5h0l1.15-3.48h0l1.15-3.46h0l1.15-3.43h0l1.15-3.41h0l1.15-3.39h0l1.15-3.37h0l1.15-3.34h0l1.15-3.32h0l1.15-3.3h0l1.15-3.28h0l1.15-3.26h0l1.15-3.23h0l1.15-3.21h0l1.15-3.19h0l1.15-3.17h0l1.15-3.15h0l1.15-3.13h0l1.15-3.1h0l1.15-3.08h0l1.15-3.06h0l1.15-3.04h0l1.15-3.02h0l1.15-3h0l1.15-2.98h0l1.15-2.96h0l1.15-2.94h0l1.15-2.92h0l1.15-2.9h0l1.15-2.87h0l1.15-2.85h0l1.15-2.83h0l1.15-2.81h0l1.15-2.79h0l1.15-2.77h0l1.15-2.75h0l1.15-2.73h0l1.15-2.71h0l1.15-2.69h0l1.15-2.67h0l1.15-2.65h0l1.15-2.63h0l1.15-2.61h0l1.15-2.59h0l1.15-2.57h0l1.15-2.56h0l1.15-2.54h0l1.15-2.52h0l1.15-2.5h0l1.15-2.48h0l1.15-2.46h0l1.15-2.44h0l1.15-2.42h0l1.15-2.4h0l1.15-2.38h0l1.15-2.36h0l1.15-2.35h0l1.15-2.33h0l1.15-2.31h0l1.15-2.29h0l1.15-2.27h0l1.15-2.25h0l1.15-2.24h0l1.15-2.22h0l1.15-2.2h0l1.15-2.18h0l1.15-2.16h0l1.15-2.15h0l1.15-2.13h0l1.15-2.11h0l1.15-2.09h0l1.15-2.08h0l1.15-2.06h0l1.15-2.04h0l1.15-2.02h0l1.15-2.01h0l1.15-1.99h0l1.15-1.97h0l1.15-1.96h0l1.15-1.94h0l1.15-1.92h0l1.15-1.91h0l1.15-1.89h0l1.15-1.87h0l1.15-1.86h0l1.15-1.84h0l1.15-1.82h0l1.15-1.81h0l1.15-1.79h0l1.15-1.77h0l1.15-1.76h0l1.15-1.74h0l1.15-1.73h0l1.15-1.71h0l1.15-1.69h0l1.15-1.68h0l1.15-1.66h0l1.15-1.65h0l1.15-1.63h0l1.15-1.62h0l1.15-1.6h0l1.15-1.59h0l1.15-1.57h0l1.15-1.55h0l1.15-1.54h0l1.15-1.52h0l1.15-1.51h0l1.15-1.49h0l1.15-1.48h0l1.15-1.47h0l1.15-1.45h0l1.15-1.44h0l1.15-1.42h0l1.15-1.41h0l1.15-1.39h0l1.15-1.38h0l1.15-1.36h0l1.15-1.35h0l1.15-1.34h0l1.15-1.32h0l1.15-1.31h0l1.15-1.29h0l1.15-1.28h0l1.15-1.27h0l1.15-1.25h0l1.15-1.24h0l1.15-1.23h0l1.15-1.21h0l1.15-1.2h0l1.15-1.19h0l1.15-1.17h0l1.15-1.16h0l1.15-1.15h0l1.15-1.13h0l1.15-1.12h0l1.15-1.11h0l1.15-1.1h0l1.15-1.08h0l1.15-1.07h0l1.15-1.06h0l1.15-1.05h0l1.15-1.03h0l1.15-1.02h0l1.15-1.01h0l1.15-1h0l1.15-.98h0l1.15-.97h0l1.15-.96h0l1.15-.95h0l1.15-.94h0l1.15-.93h0l1.15-.91h0l1.15-.9h0l1.15-.89h0l1.15-.88h0l1.15-.87h0l1.15-.86h0l1.15-.85h0l1.15-.83h0l1.15-.82h0l1.15-.81h0l1.15-.8h0l1.15-.79h0l1.15-.78h0l1.15-.77h0l1.15-.76h0l1.15-.75h0l1.15-.74h0l1.15-.73h0l1.15-.72h0l1.15-.71h0l1.15-.7h0l1.15-.69h0l1.15-.68h0l1.15-.67h0l1.15-.66h0l1.15-.65h0l1.15-.64h0l1.15-.63h0l1.15-.62h0l1.15-.61h0l1.15-.6h0l1.15-.59h0l1.15-.58h0l1.15-.57h0l1.15-.56h0l1.15-.55h0l1.15-.54h0l1.15-.54h0l1.15-.53h0l1.15-.52h0l1.15-.51h0l1.15-.5h0l1.15-.49h0l1.15-.48h0l1.15-.48h0l1.15-.47h0l1.15-.46h0l1.15-.45h0l1.15-.44h0l1.15-.43h0l1.15-.43h0l1.15-.42h0l1.15-.41h0l1.15-.4h0l1.15-.4h0l1.15-.39h0l1.15-.38h0l1.15-.37h0l1.15-.37h0l1.15-.36h0l1.15-.35h0l1.15-.34h0l1.15-.34h0l1.15-.33h0l1.15-.32h0l1.15-.32h0l1.15-.31h0l1.15-.3h0l1.15-.3h0l1.15-.29h0l1.15-.28h0l1.15-.28h0l1.15-.27h0l1.15-.26h0l1.15-.26h0l1.15-.25h0l1.15-.25h0l1.15-.24h0l1.15-.23h0l1.15-.23h0l1.15-.22h0l1.15-.22h0l1.15-.21h0l1.15-.21h0l1.15-.2h0l1.15-.19h0l1.15-.19h0l1.15-.18h0l1.15-.18h0l1.15-.17h0l1.15-.17h0l1.15-.16h0l1.15-.16h0l1.15-.15h0l1.15-.15h0l1.15-.14h0l1.15-.14h0l1.15-.14h0l1.15-.13h0l1.15-.13h0l1.15-.12h0l1.15-.12h0l1.15-.11h0l1.15-.11h0l1.15-.11h0l1.15-.1h0l1.15-.1h0l1.15-.09h0l1.15-.09h0l1.15-.09h0l1.15-.08h0l1.15-.08h0l1.15-.08h0l1.15-.07h0l1.15-.07h0l1.15-.07h0l1.15-.06h0l1.15-.06h0l1.15-.06h0l1.15-.06h0l1.15-.05h0l1.15-.05h0l1.15-.05h0l1.15-.04h0l1.15-.04h0l1.15-.04h0l1.15-.04h0l1.15-.03h0l1.15-.03h0l1.15-.03h0l1.15-.03h0l1.15-.03h0l1.15-.02h0l1.15-.02h0l1.15-.02h0l1.15-.02h0l1.15-.02h0l1.15-.02h1.15s1.15-.03,1.15-.03h1.15s1.15-.02,1.15-.02h1.15s1.15-.02,1.15-.02h1.15s1.15-.01,1.15-.01h1.15s1.15,0,1.15,0h1.15s1.15,0,1.15,0h1.15s1.15,0,1.15,0h1.15s1.15,0,1.15,0h1.15s1.15,0,1.15,0h1.15s1.15,0,1.15,0h1.15s1.15,0,1.15,0h1.15s1.15,0,1.15,0h1.15s1.15,0,1.15,0h1.15s1.15,0,1.15,0h1.15s1.15,0,1.15,0h1.15s1.15,0,1.15,0h1.15s1.15-.01,1.15-.01h1.15s1.15-.02,1.15-.02h1.15s1.15-.02,1.15-.02h1.15s1.15-.03,1.15-.03h0l1.15-.02h0l1.15-.02h0l1.15-.02h0l1.15-.02h0l1.15-.02h0l1.15-.02h0l1.15-.03h0l1.15-.03h0l1.15-.03h0l1.15-.03h0l1.15-.03h0l1.15-.04h0l1.15-.04h0l1.15-.04h0l1.15-.04h0l1.15-.05h0l1.15-.05h0l1.15-.05h0l1.15-.05h0l1.15-.06h0l1.15-.06h0l1.15-.06h0l1.15-.07h0l1.15-.07h0l1.15-.07h0l1.15-.08h0l1.15-.08h0l1.15-.08h0l1.15-.09h0l1.15-.09h0l1.15-.09h0l1.15-.1h0l1.15-.1h0l1.15-.1h0l1.15-.11h0l1.15-.11h0l1.15-.12h0l1.15-.12h0l1.15-.12h0l1.15-.13h0l1.15-.13h0l1.15-.14h0l1.15-.14h0l1.15-.15h0l1.15-.15h0l1.15-.16h0l1.15-.16h0l1.15-.17h0l1.15-.17h0l1.15-.18h0l1.15-.18h0l1.15-.19h0l1.15-.19h0l1.15-.2h0l1.15-.2h0l1.15-.21h0l1.15-.21h0l1.15-.22h0l1.15-.22h0l1.15-.23h0l1.15-.24h0l1.15-.24h0l1.15-.25h0l1.15-.25h0l1.15-.26h0l1.15-.27h0l1.15-.27h0l1.15-.28h0l1.15-.29h0l1.15-.29h0l1.15-.3h0l1.15-.31h0l1.15-.31h0l1.15-.32h0l1.15-.33h0l1.15-.33h0l1.15-.34h0l1.15-.35h0l1.15-.35h0l1.15-.36h0l1.15-.37h0l1.15-.38h0l1.15-.38h0l1.15-.39h0l1.15-.4h0l1.15-.41h0l1.15-.41h0l1.15-.42h0l1.15-.43h0l1.15-.44h0l1.15-.45h0l1.15-.45h0l1.15-.46h0l1.15-.47h0l1.15-.48h0l1.15-.49h0l1.15-.5h0l1.15-.51h0l1.15-.51h0l1.15-.52h0l1.15-.53h0l1.15-.54h0l1.15-.55h0l1.15-.56h0l1.15-.57h0l1.15-.58h0l1.15-.59h0l1.15-.59h0l1.15-.6h0l1.15-.61h0l1.15-.62h0l1.15-.63h0l1.15-.64h0l1.15-.65h0l1.15-.66h0l1.15-.67h0l1.15-.68h0l1.15-.69h0l1.15-.7h0l1.15-.71h0l1.15-.72h0l1.15-.73h0l1.15-.74h0l1.15-.75h0l1.15-.76h0l1.15-.78h0l1.15-.79h0l1.15-.8h0l1.15-.81h0l1.15-.82h0l1.15-.83h0l1.15-.84h0l1.15-.85h0l1.15-.86h0l1.15-.87h0l1.15-.89h0l1.15-.9h0l1.15-.91h0l1.15-.92h0l1.15-.93h0l1.15-.94h0l1.15-.96h0l1.15-.97h0l1.15-.98h0l1.15-.99h0l1.15-1h0l1.15-1.02h0l1.15-1.03h0l1.15-1.04h0l1.15-1.05h0l1.15-1.06h0l1.15-1.08h0l1.15-1.09h0l1.15-1.1h0l1.15-1.12h0l1.15-1.13h0l1.15-1.14h0l1.15-1.15h0l1.15-1.17h0l1.15-1.18h0l1.15-1.19h0l1.15-1.21h0l1.15-1.22h0l1.15-1.23h0l1.15-1.25h0l1.15-1.26h0l1.15-1.27h0l1.15-1.29h0l1.15-1.3h0l1.15-1.32h0l1.15-1.33h0l1.15-1.34h0l1.15-1.36h0l1.15-1.37h0l1.15-1.39h0l1.15-1.4h0l1.15-1.41h0l1.15-1.43h0l1.15-1.44h0l1.15-1.46h0l1.15-1.47h0l1.15-1.49h0l1.15-1.5h0l1.15-1.52h0l1.15-1.53h0l1.15-1.55h0l1.15-1.56h0l1.15-1.58h0l1.15-1.59h0l1.15-1.61h0l1.15-1.62h0l1.15-1.64h0l1.15-1.65h0l1.15-1.67h0l1.15-1.69h0l1.15-1.7h0l1.15-1.72h0l1.15-1.73h0l1.15-1.75h0l1.15-1.77h0l1.15-1.78h0l1.15-1.8h0l1.15-1.81h0l1.15-1.83h0l1.15-1.85h0l1.15-1.86h0l1.15-1.88h0l1.15-1.9h0l1.15-1.91h0l1.15-1.93h0l1.15-1.95h0l1.15-1.96h0l1.15-1.98h0l1.15-2h0l1.15-2.02h0l1.15-2.03h0l1.15-2.05h0l1.15-2.07h0l1.15-2.09h0l1.15-2.1h0l1.15-2.12h0l1.15-2.14h0l1.15-2.16h0l1.15-2.17h0l1.15-2.19h0l1.15-2.21h0l1.15-2.23h0l1.15-2.25h0l1.15-2.26h0l1.15-2.28h0l1.15-2.3h0l1.15-2.32h0l1.15-2.34h0l1.15-2.36h0l1.15-2.37h0l1.15-2.39h0l1.15-2.41h0l1.15-2.43h0l1.15-2.45h0l1.15-2.47h0l1.15-2.49h0l1.15-2.51h0l1.15-2.53h0l1.15-2.55h0l1.15-2.57h0l1.15-2.58h0l1.15-2.6h0l1.15-2.62h0l1.15-2.64h0l1.15-2.66h0l1.15-2.68h0l1.15-2.7h0l1.15-2.72h0l1.15-2.74h0l1.15-2.76h0l1.15-2.78h0l1.15-2.8h0l1.15-2.82h0l1.15-2.84h0l1.15-2.86h0l1.15-2.89h0l1.15-2.91h0l1.15-2.93h0l1.15-2.95h0l1.15-2.97h0l1.15-2.99h0l1.15-3.01h0l1.15-3.03h0l1.15-3.05h0l1.15-3.07h0l1.15-3.09h0l1.15-3.12h0l1.15-3.14h0l1.15-3.16h0l1.15-3.18h0l1.15-3.2h0l1.15-3.22h0l1.15-3.25h0l1.15-3.27h0l1.15-3.29h0l1.15-3.31h0l1.15-3.33h0l1.15-3.36h0l1.15-3.38h0l1.15-3.4h0l1.15-3.42h0l1.15-3.45h0l1.15-3.47h0l1.15-3.49h0l1.15-3.51h0l1.15-3.54h0l1.15-3.56h0l1.15-3.58h0l1.15-3.6h0l1.15-3.63h0l1.15-3.65h0l1.15-3.67h0l1.15-3.7h0l1.15-3.72h0l1.15-3.74h0l1.15-3.77h0l1.15-3.79h0l1.15-3.81h0l1.15-3.84h0l1.15-3.86h0l1.15-3.89h0l1.15-3.91h0l1.15-3.93h0l1.15-3.96h0l1.15-3.98h0l1.15-4.01h0l1.15-4.03h0l1.15-4.05h0l1.15-4.08h0l1.15-4.1h0l1.15-4.13h0l1.15-4.15h0l1.15-4.18h0l1.15-4.2h0l1.15-4.23h0l1.15-4.25h0l1.15-4.28h0l1.15-4.3h0l1.15-4.33h0l1.15-4.35h0l1.15-4.38h0l1.15-4.4h0l1.15-4.43h0l1.15-4.45h0l1.15-4.48h0l1.15-4.51h0l1.15-4.53h0l1.15-4.56h0l1.15-4.58h0l1.15-4.61h0l1.15-4.64h0l1.15-4.66h0l1.15-4.69h0l1.15-4.71h0l1.15-4.74h0l1.15-4.77h0l1.15-4.79h0l1.15-4.82h0l1.15-4.85h0l1.15-4.87h0l1.15-4.9h0l1.15-4.93h0l1.15-4.95h0l1.15-4.98h0l1.15-5.01h0l1.15-5.04h0l1.15-5.06h0l1.15-5.09h0l1.15-5.12h0l1.15-5.14h0l1.15-5.17h0l1.15-5.2h0l1.15-5.23h0l1.15-5.26h0l1.15-5.28h0l1.15-5.31h0l1.15-5.34h0l1.15-5.37h0l1.15-5.4h0l1.15-5.42h0l1.15-5.45h0l1.15-5.48h0l1.15-5.51h0l1.15-5.54h0l1.15-5.57h0l1.15-5.59h0l1.15-5.62h0l1.15-5.65h0l1.15-5.68h0l1.15-5.71h0l1.15-5.74h0l1.15-5.77h0l1.15-5.8h0l1.15-5.83h0l1.15-5.86h0l1.15-5.88h0l1.15-5.91h0l1.15-5.94h0l1.15-5.97h0l1.15-6h0l1.15-6.03h0l1.15-6.06h0l1.15-6.09h0l1.15-6.12h0l1.15-6.15h0l1.15-6.18h0l1.15-6.21h0l1.15-6.24h0l1.15-6.27h0l1.15-6.3h0l1.15-6.33h0l1.15-6.36h0l1.15-6.4h0l1.15-6.43h0l1.15-6.46h0l1.15-6.49h0l1.15-6.52h0l1.15-6.55h0l1.15-6.58h0l1.15-6.61h0l1.15-6.64h0l1.15-6.67h0l1.15-6.71h0l1.15-6.74h0l1.15-6.77h0l1.15-6.8h0l1.15-6.83h0l1.15-6.86h0l1.15-6.89h0l1.15-6.93h0l1.15-6.96h0l1.15-6.99h0l1.15-7.02h0l1.15-7.05h0l1.15-7.09h0l1.15-7.12h0l1.15-7.15h0l1.15-7.18h0l1.15-7.22h0l1.15-7.25h0l1.15-7.28h0l1.15-7.31h0l1.15-7.35h0l1.15-7.38h0l1.15-7.41h0l1.15-7.45h0l1.15-7.48h0l1.15-7.51h0l1.15-7.55h0l1.15-7.58h0l1.15-7.61h0l1.15-7.65h0l1.15-7.68h0l1.15-7.71h0l1.15-7.75h0l1.15-7.78h0l1.15-7.81h0l1.15-7.85h0l1.15-7.88h0l1.15-7.92h0l1.15-7.95h0l1.15-7.99h0l1.15-8.02h0l1.15-8.05h0l1.15-8.09h0l1.15-8.12h0l1.15-8.16h0l1.15-8.19h0l1.15-8.23h0l1.15-8.26h0l1.15-8.3h0l1.15-8.33h0l1.15-8.37h0l1.15-8.4h0l1.15-8.44h0l1.15-8.47h0l1.15-8.51h0l1.15-8.54h0l1.15-8.58h0l1.15-8.61h0l1.15-8.65h0l1.15-8.68h0l1.15-8.72h0l1.15-8.76h0l1.15-8.79h0l1.15-8.83h0l1.15-8.86h0l1.15-8.9h0l1.15-8.94h0l1.15-8.97h0l1.15-9.01h0l1.15-9.05h0l1.15-9.08h0l1.15-9.12h0l1.15-9.16h0l1.15-9.19h0l1.15-9.23h0l1.15-9.27h0l1.15-9.3h0l1.15-9.34h0l1.15-9.38h0l1.15-9.41h0l1.15-9.45h0l1.15-9.49h0l1.15-9.53h0l1.15-9.56h0l1.15-9.6h0l1.15-9.64h0l1.15-9.68h0l1.15-9.71h0l1.15-9.75h0l1.15-9.79h0l1.15-9.83h0l1.15-9.87h0l1.15-9.9h0l1.15-9.94h0l1.15-9.98h0l1.15-10.02h0l1.15-10.06h0l1.15-10.1h0l1.15-10.13h0l1.15-10.17h0l1.15-10.21h0l1.15-10.25h0l1.15-10.29h0l1.15-10.33h0l1.15-10.37h0l1.15-10.41h0l1.15-10.44h0l1.15-10.48h0l1.15-10.52h0l1.15-10.56h0l1.15-10.6h0l1.15-10.64h0l1.15-10.68h0l1.15-10.72h0l1.15-10.76h0l1.15-10.8h0l1.15-10.84h0l1.15-10.88h0l1.15-10.92h0l1.15-10.96h0l1.15-11h0l1.15-11.04h0l1.15-11.08h0l1.15-11.12h0l1.15-11.16h0l1.15-11.2h0l1.15-11.24h0l1.15-11.28h0l1.15-11.32h0l1.15-11.37h0l1.15-11.41h0l1.15-11.45h0l1.15-11.49h0l1.15-11.53h0l1.15-11.57h0l1.15-11.61h0l1.15-11.65h0l1.15-11.69h0l1.15-11.74h0l1.15-11.78h0l1.15-11.82h0l1.15-11.86h0l1.15-11.9h0l1.15-11.94h0l1.15-11.99h0l1.15-12.03h0l1.15-12.07h0l1.15-12.11h0l1.15-12.16h0l1.15-12.2h0l1.15-12.24h0l1.15-12.28h0l1.15-12.32h0l1.15-12.37h0l1.15-12.41h0l1.15-12.45h0l1.15-12.5h0l1.15-12.54h0l1.15-12.58h0l1.15-12.62h0l1.15-12.67h0l1.15-12.71h0l1.15-12.75h0l1.15-12.8h0l1.15-12.84h0l1.15-12.88h0l1.15-12.93h0l1.15-12.97h0l1.15-13.02h0l1.15-13.06h0l1.15-13.1h0l1.15-13.15h0l1.15-13.19h0l1.15-13.23h0l1.15-13.28h0l1.15-13.32h0l1.15-13.37h0l1.15-13.41h0l1.15-13.46h0l1.15-13.5h0l1.15-13.54h0l1.15-13.59h0l1.15-13.63h0l1.15-13.68h0l1.15-13.72h0l1.15-13.77h0l1.15-13.81h0l1.15-13.86h0l1.15-13.9h0l1.15-13.95h0l1.15-13.99h0l1.15-14.04h0l1.15-14.09h0l1.15-14.13h0l1.15-14.18h0l1.15-14.22h0l1.15-14.27h0l1.15-14.31h0l1.15-14.36h0l1.15-14.41h0l1.15-14.45h0l1.15-14.5h0l1.15-14.54h0l1.15-14.59h0l1.15-14.64h0l1.15-14.68h0l1.15-14.73h0l1.15-14.78h0l1.15-14.82h0l1.15-14.87h0l1.15-14.92h0l1.15-14.96h0l1.15-15.01h0l1.15-15.06h0l1.15-15.1h0l1.15-15.15h0l1.15-15.2h0l1.15-15.25h0l1.15-15.29h0l1.15-15.34h0l1.15-15.39h0l1.15-15.44h0l1.15-15.48h0l1.15-15.53h0l1.15-15.58h0l1.15-15.63h0l1.15-15.67h0l1.15-15.72h0l1.15-15.77h0l1.15-15.82h0l1.15-15.87h0l1.15-15.92h0l1.15-15.96h0l1.15-16.01h0l1.15-16.06h0l1.15-16.11h0l1.15-16.16h0l1.15-16.21h0l1.15-16.26h0l1.15-16.3h0l1.15-16.35h0l1.15-16.4h0l1.15-16.45h0l1.15-16.5h0l1.15-16.55h0l1.15-16.6h0l1.15-16.65h0l1.15-16.7h0l1.15-16.75h0l1.15-16.8h0l1.15-16.85h0l1.15-16.9h0l1.15-16.95h0l1.15-17h0l1.15-17.05h0l1.15-17.1h0l1.15-17.15h0l1.15-17.2h0l1.15-17.25h0l1.15-17.3h0l1.15-17.35h0l1.15-17.4h0l1.15-17.45h0l1.15-17.5h0l1.15-17.55h0l1.15-17.6h0l1.15-17.65h0l1.15-17.7h0l1.15-17.76h0l1.15-17.81h0l1.15-17.86h0l1.15-17.91h0l1.15-17.96h0l1.15-18.01h0l1.15-18.06h0l1.15-18.11h0l1.15-18.17h0l1.15-18.22h0l1.15-18.27h0l1.15-18.32h0l1.15-18.37h0l1.15-18.43h0l1.15-18.48h0l1.15-18.53h0l1.15-18.58h0l1.15-18.63h0l1.15-18.69h0l1.15-18.74h0l1.15-18.79h0l1.15-18.84h0l1.15-18.9h0l1.15-18.95h0l1.15-19h0l1.15-19.06h0l1.15-19.11h0l1.15-19.16h0l1.15-19.21h0l1.15-19.27h0l1.15-19.32h0l1.15-19.37h0l1.15-19.43h0l1.15-19.48h0l1.15-19.53h0l1.15-19.59h0l1.15-19.64h0l1.15-19.7h0l1.15-19.75h0l1.15-19.8h0l1.15-19.86h0l1.15-19.91"/>
        </g>
      </g>
    </g>
  </g>
  <g id="uuid-1adcdcfc-0944-4205-8b73-231ca537c062" data-name="Marco">
    <path class="uuid-1e1637c4-a74c-406e-b8da-76b2bba96628" d="m0-2V1022h1680V-2H0Zm1663,987c0,11.05-8.95,20-20,20H37c-11.05,0-20-8.95-20-20V35c0-11.05,8.95-20,20-20h1606c11.05,0,20,8.95,20,20v950Z"/>
  </g>
</svg>