<?xml version="1.0" encoding="UTF-8"?>
<svg xmlns="http://www.w3.org/2000/svg" width="1680" height="1020" xmlns:xlink="http://www.w3.org/1999/xlink" viewBox="0 0 1680 1020">
  <defs>
    <style>
      .uuid-ffaa3c7a-e25c-4af6-9134-d9ee8605aca1 {
        stroke: rgba(192, 192, 192, .24);
      }

      .uuid-ffaa3c7a-e25c-4af6-9134-d9ee8605aca1, .uuid-b756a7e9-5d2a-4bf4-b2ba-0baed6bf8bd9, .uuid-e1f26ab1-b319-4ddb-98f7-ef2cbcf296ef, .uuid-6505fa1e-f8c0-441d-99d9-c3109adeda49, .uuid-788d2e12-1918-4bc6-8593-18d91d3374ad, .uuid-5b76cf8b-14a7-483b-958b-2db630e6db10, .uuid-51607f2f-da85-45d4-9aef-ccc786e77a34, .uuid-01fa43f4-365d-4470-8468-3ee8fcb09ddb, .uuid-9f4cbc75-64c2-46ba-8510-4e975d4e09d6 {
        fill: none;
      }

      .uuid-ffaa3c7a-e25c-4af6-9134-d9ee8605aca1, .uuid-e1f26ab1-b319-4ddb-98f7-ef2cbcf296ef {
        stroke-dasharray: 0 0 1.15 3.44;
        stroke-width: 1.15px;
      }

      .uuid-ffaa3c7a-e25c-4af6-9134-d9ee8605aca1, .uuid-e1f26ab1-b319-4ddb-98f7-ef2cbcf296ef, .uuid-9f4cbc75-64c2-46ba-8510-4e975d4e09d6 {
        stroke-linejoin: round;
      }

      .uuid-fed25a09-c4d0-419e-aea5-071dfc7864fd {
        fill: #fff;
      }

      .uuid-b756a7e9-5d2a-4bf4-b2ba-0baed6bf8bd9 {
        stroke: #606060;
        stroke-miterlimit: 10;
        stroke-width: 2.29px;
      }

      .uuid-7ebc88ea-5ad7-455a-bc1f-bc247746a17c {
        fill: #333;
      }

      .uuid-e1f26ab1-b319-4ddb-98f7-ef2cbcf296ef {
        stroke: silver;
      }

      .uuid-6505fa1e-f8c0-441d-99d9-c3109adeda49 {
        stroke: #fff;
        stroke-linejoin: bevel;
        stroke-width: 3.44px;
      }

      .uuid-788d2e12-1918-4bc6-8593-18d91d3374ad {
        isolation: isolate;
      }

      .uuid-5b76cf8b-14a7-483b-958b-2db630e6db10 {
        clip-path: url(#uuid-85ca747c-3746-46f7-8f8e-bb7d8c66a3d8);
      }

      .uuid-1b46b1a8-cf71-401e-bc29-16f5de0a8e43 {
        fill: #00699b;
      }

      .uuid-51607f2f-da85-45d4-9aef-ccc786e77a34 {
        clip-path: url(#uuid-e5bb1560-8b60-4670-a7ec-8f0a6812fe66);
      }

      .uuid-f8b8bd62-9f70-4f18-8746-357e3847783b, .uuid-43489377-be6f-4188-9918-9dd7cebde405 {
        fill: #606060;
      }

      .uuid-9f4cbc75-64c2-46ba-8510-4e975d4e09d6 {
        stroke: rgba(0, 100, 0, .7);
        stroke-linecap: round;
        stroke-width: 4.59px;
      }

      .uuid-43489377-be6f-4188-9918-9dd7cebde405 {
        fill-rule: evenodd;
      }
    </style>
    <clipPath id="uuid-e5bb1560-8b60-4670-a7ec-8f0a6812fe66">
      <rect class="uuid-01fa43f4-365d-4470-8468-3ee8fcb09ddb" y="2.61" width="1680" height="1019.39"/>
    </clipPath>
    <clipPath id="uuid-85ca747c-3746-46f7-8f8e-bb7d8c66a3d8">
      <rect class="uuid-01fa43f4-365d-4470-8468-3ee8fcb09ddb" x="-3" y="-10.14" width="1686" height="1040.27"/>
    </clipPath>
  </defs>
  <g id="uuid-efcd8604-8894-45c3-892b-632ed58d05bc" data-name="Grafica">
    <g class="uuid-51607f2f-da85-45d4-9aef-ccc786e77a34">
      <g class="uuid-5b76cf8b-14a7-483b-958b-2db630e6db10">
        <g>
          <rect class="uuid-fed25a09-c4d0-419e-aea5-071dfc7864fd" x="-3" y="-10.14" width="1686" height="1040.27"/>
          <path class="uuid-e1f26ab1-b319-4ddb-98f7-ef2cbcf296ef" d="m79.01-9.56v1040.27m0-1040.27v1040.27M331.33-9.56v1040.27M583.66-9.56v1040.27M1088.31-9.56v1040.27M1339.49-9.56v1040.27M1591.82-9.56v1040.27"/>
          <path class="uuid-ffaa3c7a-e25c-4af6-9134-d9ee8605aca1" d="m28.54-9.56v1040.27M129.47-9.56v1040.27M179.94-9.56v1040.27M230.4-9.56v1040.27M280.87-9.56v1040.27M381.8-9.56v1040.27M432.26-9.56v1040.27M482.73-9.56v1040.27M533.19-9.56v1040.27M634.12-9.56v1040.27M684.59-9.56v1040.27M735.06-9.56v1040.27M785.52-9.56v1040.27M886.45-9.56v1040.27M936.92-9.56v1040.27M987.38-9.56v1040.27M1037.85-9.56v1040.27M1137.63-9.56v1040.27M1188.1-9.56v1040.27M1238.56-9.56v1040.27M1289.03-9.56v1040.27M1389.96-9.56v1040.27M1440.42-9.56v1040.27M1490.89-9.56v1040.27M1541.35-9.56v1040.27M1642.28-9.56v1040.27"/>
          <path class="uuid-e1f26ab1-b319-4ddb-98f7-ef2cbcf296ef" d="m-2.43,3.05h1686M-2.43,3.05h1686M-2.43,129.22h1686M-2.43,255.38h1686M-2.43,381.54h1686M-2.43,632.72h1686M-2.43,758.89h1686M-2.43,885.05h1686M-2.43,1011.21h1686"/>
          <path class="uuid-ffaa3c7a-e25c-4af6-9134-d9ee8605aca1" d="m-2.43,3.05h1686M-2.43,28.29h1686M-2.43,53.52h1686M-2.43,78.75h1686M-2.43,103.98h1686M-2.43,154.45h1686M-2.43,179.68h1686M-2.43,204.91h1686M-2.43,230.15h1686M-2.43,280.61h1686M-2.43,305.84h1686M-2.43,331.08h1686M-2.43,356.31h1686M-2.43,406.78h1686M-2.43,432.01h1686M-2.43,457.24h1686M-2.43,482.47h1686M-2.43,532.94h1686M-2.43,557.02h1686M-2.43,582.26h1686M-2.43,607.49h1686M-2.43,657.96h1686M-2.43,683.19h1686M-2.43,708.42h1686M-2.43,733.65h1686M-2.43,784.12h1686M-2.43,809.35h1686M-2.43,834.58h1686M-2.43,859.82h1686M-2.43,910.28h1686M-2.43,935.51h1686M-2.43,960.75h1686M-2.43,985.98h1686"/>
          <path class="uuid-b756a7e9-5d2a-4bf4-b2ba-0baed6bf8bd9" d="m835.41-6.7v1036.83"/>
          <path class="uuid-43489377-be6f-4188-9918-9dd7cebde405" d="m835.56-7.84l-5.73,22.94h11.47"/>
          <path class="uuid-b756a7e9-5d2a-4bf4-b2ba-0baed6bf8bd9" d="m-3,507.13h1682.56"/>
          <path class="uuid-43489377-be6f-4188-9918-9dd7cebde405" d="m1680.71,507.15l-22.94-5.73v11.47"/>
          <g class="uuid-788d2e12-1918-4bc6-8593-18d91d3374ad">
            <path class="uuid-f8b8bd62-9f70-4f18-8746-357e3847783b" d="m78.43,521.66v.28h-6.88v-.28h6.88Z"/>
            <path class="uuid-f8b8bd62-9f70-4f18-8746-357e3847783b" d="m79.45,517.69c.15-.38.36-.7.64-.96.28-.26.62-.45,1.02-.58.4-.13.84-.19,1.33-.19.38,0,.74.04,1.09.12.35.08.66.22.94.4s.5.42.66.72c.17.29.25.65.25,1.06,0,.66-.19,1.17-.57,1.54-.38.37-.86.58-1.44.63v.03c.28.03.54.09.81.2s.5.26.7.45c.21.2.37.44.5.74.12.29.19.64.19,1.05,0,.44-.08.83-.25,1.17-.17.34-.4.63-.69.86-.29.23-.62.41-1,.53s-.79.18-1.22.18c-.53,0-1.01-.07-1.45-.22-.43-.15-.8-.36-1.1-.64-.3-.28-.53-.63-.68-1.04s-.21-.88-.17-1.42h.28c-.04.5.01.93.15,1.31.14.38.34.7.62.96.27.26.61.45,1.02.58.4.13.85.2,1.33.2.38,0,.74-.05,1.09-.16.35-.11.66-.26.92-.47s.48-.47.64-.78c.16-.31.24-.66.24-1.07s-.07-.75-.2-1.03c-.13-.28-.32-.52-.56-.7-.24-.18-.53-.32-.85-.41s-.68-.15-1.07-.17h-.67v-.28h.67c.3,0,.6-.03.9-.1.3-.07.57-.18.81-.34.24-.16.43-.37.58-.63.15-.26.22-.58.22-.97,0-.38-.09-.69-.25-.95-.16-.26-.36-.46-.61-.63-.25-.16-.53-.28-.84-.34-.31-.07-.63-.1-.96-.1-.45,0-.86.06-1.22.17-.36.12-.67.29-.93.52-.26.23-.45.53-.58.87s-.19.76-.19,1.22h-.28c0-.51.06-.96.21-1.34Z"/>
          </g>
          <g class="uuid-788d2e12-1918-4bc6-8593-18d91d3374ad">
            <path class="uuid-6505fa1e-f8c0-441d-99d9-c3109adeda49" d="m78.43,521.66v.28h-6.88v-.28h6.88Z"/>
            <path class="uuid-6505fa1e-f8c0-441d-99d9-c3109adeda49" d="m79.45,517.69c.15-.38.36-.7.64-.96.28-.26.62-.45,1.02-.58.4-.13.84-.19,1.33-.19.38,0,.74.04,1.09.12.35.08.66.22.94.4s.5.42.66.72c.17.29.25.65.25,1.06,0,.66-.19,1.17-.57,1.54-.38.37-.86.58-1.44.63v.03c.28.03.54.09.81.2s.5.26.7.45c.21.2.37.44.5.74.12.29.19.64.19,1.05,0,.44-.08.83-.25,1.17-.17.34-.4.63-.69.86-.29.23-.62.41-1,.53s-.79.18-1.22.18c-.53,0-1.01-.07-1.45-.22-.43-.15-.8-.36-1.1-.64-.3-.28-.53-.63-.68-1.04s-.21-.88-.17-1.42h.28c-.04.5.01.93.15,1.31.14.38.34.7.62.96.27.26.61.45,1.02.58.4.13.85.2,1.33.2.38,0,.74-.05,1.09-.16.35-.11.66-.26.92-.47s.48-.47.64-.78c.16-.31.24-.66.24-1.07s-.07-.75-.2-1.03c-.13-.28-.32-.52-.56-.7-.24-.18-.53-.32-.85-.41s-.68-.15-1.07-.17h-.67v-.28h.67c.3,0,.6-.03.9-.1.3-.07.57-.18.81-.34.24-.16.43-.37.58-.63.15-.26.22-.58.22-.97,0-.38-.09-.69-.25-.95-.16-.26-.36-.46-.61-.63-.25-.16-.53-.28-.84-.34-.31-.07-.63-.1-.96-.1-.45,0-.86.06-1.22.17-.36.12-.67.29-.93.52-.26.23-.45.53-.58.87s-.19.76-.19,1.22h-.28c0-.51.06-.96.21-1.34Z"/>
          </g>
          <g class="uuid-788d2e12-1918-4bc6-8593-18d91d3374ad">
            <path class="uuid-f8b8bd62-9f70-4f18-8746-357e3847783b" d="m78.43,521.66v.28h-6.88v-.28h6.88Z"/>
            <path class="uuid-f8b8bd62-9f70-4f18-8746-357e3847783b" d="m79.45,517.69c.15-.38.36-.7.64-.96.28-.26.62-.45,1.02-.58.4-.13.84-.19,1.33-.19.38,0,.74.04,1.09.12.35.08.66.22.94.4s.5.42.66.72c.17.29.25.65.25,1.06,0,.66-.19,1.17-.57,1.54-.38.37-.86.58-1.44.63v.03c.28.03.54.09.81.2s.5.26.7.45c.21.2.37.44.5.74.12.29.19.64.19,1.05,0,.44-.08.83-.25,1.17-.17.34-.4.63-.69.86-.29.23-.62.41-1,.53s-.79.18-1.22.18c-.53,0-1.01-.07-1.45-.22-.43-.15-.8-.36-1.1-.64-.3-.28-.53-.63-.68-1.04s-.21-.88-.17-1.42h.28c-.04.5.01.93.15,1.31.14.38.34.7.62.96.27.26.61.45,1.02.58.4.13.85.2,1.33.2.38,0,.74-.05,1.09-.16.35-.11.66-.26.92-.47s.48-.47.64-.78c.16-.31.24-.66.24-1.07s-.07-.75-.2-1.03c-.13-.28-.32-.52-.56-.7-.24-.18-.53-.32-.85-.41s-.68-.15-1.07-.17h-.67v-.28h.67c.3,0,.6-.03.9-.1.3-.07.57-.18.81-.34.24-.16.43-.37.58-.63.15-.26.22-.58.22-.97,0-.38-.09-.69-.25-.95-.16-.26-.36-.46-.61-.63-.25-.16-.53-.28-.84-.34-.31-.07-.63-.1-.96-.1-.45,0-.86.06-1.22.17-.36.12-.67.29-.93.52-.26.23-.45.53-.58.87s-.19.76-.19,1.22h-.28c0-.51.06-.96.21-1.34Z"/>
          </g>
          <g class="uuid-788d2e12-1918-4bc6-8593-18d91d3374ad">
            <path class="uuid-f8b8bd62-9f70-4f18-8746-357e3847783b" d="m330.76,521.66v.28h-6.88v-.28h6.88Z"/>
            <path class="uuid-f8b8bd62-9f70-4f18-8746-357e3847783b" d="m337.82,525.48h-6.3c0-.39.07-.75.25-1.07.17-.32.4-.62.69-.9.28-.28.6-.55.96-.8.35-.25.7-.5,1.05-.75.36-.25.71-.5,1.05-.76.34-.26.64-.53.91-.81.27-.28.48-.58.64-.89.16-.32.24-.66.24-1.03s-.07-.69-.2-.97c-.13-.28-.31-.51-.54-.7-.23-.19-.5-.33-.82-.43-.32-.1-.66-.14-1.04-.14-.49,0-.9.07-1.25.22-.35.15-.63.35-.85.61s-.38.57-.48.94-.15.76-.15,1.19h-.27c0-1.03.26-1.82.76-2.39s1.25-.85,2.25-.85c.4,0,.78.05,1.13.16s.65.26.91.48.46.47.61.78.23.68.23,1.1c0,.51-.14.98-.41,1.4s-.62.82-1.04,1.18-.87.71-1.36,1.04c-.49.33-.94.65-1.37.98-.43.33-.79.66-1.09,1-.3.34-.47.72-.51,1.12h6.03v.28Z"/>
          </g>
          <g class="uuid-788d2e12-1918-4bc6-8593-18d91d3374ad">
            <path class="uuid-6505fa1e-f8c0-441d-99d9-c3109adeda49" d="m330.76,521.66v.28h-6.88v-.28h6.88Z"/>
            <path class="uuid-6505fa1e-f8c0-441d-99d9-c3109adeda49" d="m337.82,525.48h-6.3c0-.39.07-.75.25-1.07.17-.32.4-.62.69-.9.28-.28.6-.55.96-.8.35-.25.7-.5,1.05-.75.36-.25.71-.5,1.05-.76.34-.26.64-.53.91-.81.27-.28.48-.58.64-.89.16-.32.24-.66.24-1.03s-.07-.69-.2-.97c-.13-.28-.31-.51-.54-.7-.23-.19-.5-.33-.82-.43-.32-.1-.66-.14-1.04-.14-.49,0-.9.07-1.25.22-.35.15-.63.35-.85.61s-.38.57-.48.94-.15.76-.15,1.19h-.27c0-1.03.26-1.82.76-2.39s1.25-.85,2.25-.85c.4,0,.78.05,1.13.16s.65.26.91.48.46.47.61.78.23.68.23,1.1c0,.51-.14.98-.41,1.4s-.62.82-1.04,1.18-.87.71-1.36,1.04c-.49.33-.94.65-1.37.98-.43.33-.79.66-1.09,1-.3.34-.47.72-.51,1.12h6.03v.28Z"/>
          </g>
          <g class="uuid-788d2e12-1918-4bc6-8593-18d91d3374ad">
            <path class="uuid-f8b8bd62-9f70-4f18-8746-357e3847783b" d="m330.76,521.66v.28h-6.88v-.28h6.88Z"/>
            <path class="uuid-f8b8bd62-9f70-4f18-8746-357e3847783b" d="m337.82,525.48h-6.3c0-.39.07-.75.25-1.07.17-.32.4-.62.69-.9.28-.28.6-.55.96-.8.35-.25.7-.5,1.05-.75.36-.25.71-.5,1.05-.76.34-.26.64-.53.91-.81.27-.28.48-.58.64-.89.16-.32.24-.66.24-1.03s-.07-.69-.2-.97c-.13-.28-.31-.51-.54-.7-.23-.19-.5-.33-.82-.43-.32-.1-.66-.14-1.04-.14-.49,0-.9.07-1.25.22-.35.15-.63.35-.85.61s-.38.57-.48.94-.15.76-.15,1.19h-.27c0-1.03.26-1.82.76-2.39s1.25-.85,2.25-.85c.4,0,.78.05,1.13.16s.65.26.91.48.46.47.61.78.23.68.23,1.1c0,.51-.14.98-.41,1.4s-.62.82-1.04,1.18-.87.71-1.36,1.04c-.49.33-.94.65-1.37.98-.43.33-.79.66-1.09,1-.3.34-.47.72-.51,1.12h6.03v.28Z"/>
          </g>
          <g class="uuid-788d2e12-1918-4bc6-8593-18d91d3374ad">
            <path class="uuid-f8b8bd62-9f70-4f18-8746-357e3847783b" d="m583.09,521.66v.28h-6.88v-.28h6.88Z"/>
            <path class="uuid-f8b8bd62-9f70-4f18-8746-357e3847783b" d="m587.16,516.48c-.28.39-.65.74-1.11,1.03-.45.29-.92.5-1.38.63v-.28c.28-.09.54-.19.76-.3s.43-.23.62-.37c.19-.14.38-.29.56-.47.18-.17.36-.37.56-.59h.3v9.36h-.28v-9h-.03Z"/>
          </g>
          <g class="uuid-788d2e12-1918-4bc6-8593-18d91d3374ad">
            <path class="uuid-6505fa1e-f8c0-441d-99d9-c3109adeda49" d="m583.09,521.66v.28h-6.88v-.28h6.88Z"/>
            <path class="uuid-6505fa1e-f8c0-441d-99d9-c3109adeda49" d="m587.16,516.48c-.28.39-.65.74-1.11,1.03-.45.29-.92.5-1.38.63v-.28c.28-.09.54-.19.76-.3s.43-.23.62-.37c.19-.14.38-.29.56-.47.18-.17.36-.37.56-.59h.3v9.36h-.28v-9h-.03Z"/>
          </g>
          <g class="uuid-788d2e12-1918-4bc6-8593-18d91d3374ad">
            <path class="uuid-f8b8bd62-9f70-4f18-8746-357e3847783b" d="m583.09,521.66v.28h-6.88v-.28h6.88Z"/>
            <path class="uuid-f8b8bd62-9f70-4f18-8746-357e3847783b" d="m587.16,516.48c-.28.39-.65.74-1.11,1.03-.45.29-.92.5-1.38.63v-.28c.28-.09.54-.19.76-.3s.43-.23.62-.37c.19-.14.38-.29.56-.47.18-.17.36-.37.56-.59h.3v9.36h-.28v-9h-.03Z"/>
          </g>
          <g class="uuid-788d2e12-1918-4bc6-8593-18d91d3374ad">
            <path class="uuid-f8b8bd62-9f70-4f18-8746-357e3847783b" d="m1088.37,516.48c-.28.39-.65.74-1.11,1.03-.45.29-.92.5-1.38.63v-.28c.28-.09.54-.19.76-.3s.43-.23.62-.37c.19-.14.38-.29.56-.47.18-.17.36-.37.56-.59h.3v9.36h-.28v-9h-.03Z"/>
          </g>
          <g class="uuid-788d2e12-1918-4bc6-8593-18d91d3374ad">
            <path class="uuid-6505fa1e-f8c0-441d-99d9-c3109adeda49" d="m1088.37,516.48c-.28.39-.65.74-1.11,1.03-.45.29-.92.5-1.38.63v-.28c.28-.09.54-.19.76-.3s.43-.23.62-.37c.19-.14.38-.29.56-.47.18-.17.36-.37.56-.59h.3v9.36h-.28v-9h-.03Z"/>
          </g>
          <g class="uuid-788d2e12-1918-4bc6-8593-18d91d3374ad">
            <path class="uuid-f8b8bd62-9f70-4f18-8746-357e3847783b" d="m1088.37,516.48c-.28.39-.65.74-1.11,1.03-.45.29-.92.5-1.38.63v-.28c.28-.09.54-.19.76-.3s.43-.23.62-.37c.19-.14.38-.29.56-.47.18-.17.36-.37.56-.59h.3v9.36h-.28v-9h-.03Z"/>
          </g>
          <g class="uuid-788d2e12-1918-4bc6-8593-18d91d3374ad">
            <path class="uuid-f8b8bd62-9f70-4f18-8746-357e3847783b" d="m1343.69,525.48h-6.3c0-.39.07-.75.25-1.07.17-.32.4-.62.69-.9.28-.28.6-.55.96-.8.35-.25.7-.5,1.05-.75.36-.25.71-.5,1.05-.76.34-.26.64-.53.91-.81.27-.28.48-.58.64-.89.16-.32.24-.66.24-1.03s-.07-.69-.2-.97c-.13-.28-.31-.51-.54-.7-.23-.19-.5-.33-.82-.43-.32-.1-.66-.14-1.04-.14-.49,0-.9.07-1.25.22-.35.15-.63.35-.85.61s-.38.57-.48.94-.15.76-.15,1.19h-.27c0-1.03.26-1.82.76-2.39s1.25-.85,2.25-.85c.4,0,.78.05,1.13.16s.65.26.91.48.46.47.61.78.23.68.23,1.1c0,.51-.14.98-.41,1.4s-.62.82-1.04,1.18-.87.71-1.36,1.04c-.49.33-.94.65-1.37.98-.43.33-.79.66-1.09,1-.3.34-.47.72-.51,1.12h6.03v.28Z"/>
          </g>
          <g class="uuid-788d2e12-1918-4bc6-8593-18d91d3374ad">
            <path class="uuid-6505fa1e-f8c0-441d-99d9-c3109adeda49" d="m1343.69,525.48h-6.3c0-.39.07-.75.25-1.07.17-.32.4-.62.69-.9.28-.28.6-.55.96-.8.35-.25.7-.5,1.05-.75.36-.25.71-.5,1.05-.76.34-.26.64-.53.91-.81.27-.28.48-.58.64-.89.16-.32.24-.66.24-1.03s-.07-.69-.2-.97c-.13-.28-.31-.51-.54-.7-.23-.19-.5-.33-.82-.43-.32-.1-.66-.14-1.04-.14-.49,0-.9.07-1.25.22-.35.15-.63.35-.85.61s-.38.57-.48.94-.15.76-.15,1.19h-.27c0-1.03.26-1.82.76-2.39s1.25-.85,2.25-.85c.4,0,.78.05,1.13.16s.65.26.91.48.46.47.61.78.23.68.23,1.1c0,.51-.14.98-.41,1.4s-.62.82-1.04,1.18-.87.71-1.36,1.04c-.49.33-.94.65-1.37.98-.43.33-.79.66-1.09,1-.3.34-.47.72-.51,1.12h6.03v.28Z"/>
          </g>
          <g class="uuid-788d2e12-1918-4bc6-8593-18d91d3374ad">
            <path class="uuid-f8b8bd62-9f70-4f18-8746-357e3847783b" d="m1343.69,525.48h-6.3c0-.39.07-.75.25-1.07.17-.32.4-.62.69-.9.28-.28.6-.55.96-.8.35-.25.7-.5,1.05-.75.36-.25.71-.5,1.05-.76.34-.26.64-.53.91-.81.27-.28.48-.58.64-.89.16-.32.24-.66.24-1.03s-.07-.69-.2-.97c-.13-.28-.31-.51-.54-.7-.23-.19-.5-.33-.82-.43-.32-.1-.66-.14-1.04-.14-.49,0-.9.07-1.25.22-.35.15-.63.35-.85.61s-.38.57-.48.94-.15.76-.15,1.19h-.27c0-1.03.26-1.82.76-2.39s1.25-.85,2.25-.85c.4,0,.78.05,1.13.16s.65.26.91.48.46.47.61.78.23.68.23,1.1c0,.51-.14.98-.41,1.4s-.62.82-1.04,1.18-.87.71-1.36,1.04c-.49.33-.94.65-1.37.98-.43.33-.79.66-1.09,1-.3.34-.47.72-.51,1.12h6.03v.28Z"/>
          </g>
          <g class="uuid-788d2e12-1918-4bc6-8593-18d91d3374ad">
            <path class="uuid-f8b8bd62-9f70-4f18-8746-357e3847783b" d="m1589.97,517.69c.15-.38.36-.7.64-.96.28-.26.62-.45,1.02-.58.4-.13.84-.19,1.33-.19.38,0,.74.04,1.09.12.35.08.66.22.94.4s.5.42.66.72c.17.29.25.65.25,1.06,0,.66-.19,1.17-.57,1.54-.38.37-.86.58-1.44.63v.03c.28.03.54.09.81.2s.5.26.7.45c.21.2.37.44.5.74.12.29.19.64.19,1.05,0,.44-.08.83-.25,1.17-.17.34-.4.63-.69.86-.29.23-.62.41-1,.53s-.79.18-1.22.18c-.53,0-1.01-.07-1.45-.22-.43-.15-.8-.36-1.1-.64-.3-.28-.53-.63-.68-1.04s-.21-.88-.17-1.42h.28c-.04.5.01.93.15,1.31.14.38.34.7.62.96.27.26.61.45,1.02.58.4.13.85.2,1.33.2.38,0,.74-.05,1.09-.16.35-.11.66-.26.92-.47s.48-.47.64-.78c.16-.31.24-.66.24-1.07s-.07-.75-.2-1.03c-.13-.28-.32-.52-.56-.7-.24-.18-.53-.32-.85-.41s-.68-.15-1.07-.17h-.67v-.28h.67c.3,0,.6-.03.9-.1.3-.07.57-.18.81-.34.24-.16.43-.37.58-.63.15-.26.22-.58.22-.97,0-.38-.09-.69-.25-.95-.16-.26-.36-.46-.61-.63-.25-.16-.53-.28-.84-.34-.31-.07-.63-.1-.96-.1-.45,0-.86.06-1.22.17-.36.12-.67.29-.93.52-.26.23-.45.53-.58.87s-.19.76-.19,1.22h-.28c0-.51.06-.96.21-1.34Z"/>
          </g>
          <g class="uuid-788d2e12-1918-4bc6-8593-18d91d3374ad">
            <path class="uuid-6505fa1e-f8c0-441d-99d9-c3109adeda49" d="m1589.97,517.69c.15-.38.36-.7.64-.96.28-.26.62-.45,1.02-.58.4-.13.84-.19,1.33-.19.38,0,.74.04,1.09.12.35.08.66.22.94.4s.5.42.66.72c.17.29.25.65.25,1.06,0,.66-.19,1.17-.57,1.54-.38.37-.86.58-1.44.63v.03c.28.03.54.09.81.2s.5.26.7.45c.21.2.37.44.5.74.12.29.19.64.19,1.05,0,.44-.08.83-.25,1.17-.17.34-.4.63-.69.86-.29.23-.62.41-1,.53s-.79.18-1.22.18c-.53,0-1.01-.07-1.45-.22-.43-.15-.8-.36-1.1-.64-.3-.28-.53-.63-.68-1.04s-.21-.88-.17-1.42h.28c-.04.5.01.93.15,1.31.14.38.34.7.62.96.27.26.61.45,1.02.58.4.13.85.2,1.33.2.38,0,.74-.05,1.09-.16.35-.11.66-.26.92-.47s.48-.47.64-.78c.16-.31.24-.66.24-1.07s-.07-.75-.2-1.03c-.13-.28-.32-.52-.56-.7-.24-.18-.53-.32-.85-.41s-.68-.15-1.07-.17h-.67v-.28h.67c.3,0,.6-.03.9-.1.3-.07.57-.18.81-.34.24-.16.43-.37.58-.63.15-.26.22-.58.22-.97,0-.38-.09-.69-.25-.95-.16-.26-.36-.46-.61-.63-.25-.16-.53-.28-.84-.34-.31-.07-.63-.1-.96-.1-.45,0-.86.06-1.22.17-.36.12-.67.29-.93.52-.26.23-.45.53-.58.87s-.19.76-.19,1.22h-.28c0-.51.06-.96.21-1.34Z"/>
          </g>
          <g class="uuid-788d2e12-1918-4bc6-8593-18d91d3374ad">
            <path class="uuid-f8b8bd62-9f70-4f18-8746-357e3847783b" d="m1589.97,517.69c.15-.38.36-.7.64-.96.28-.26.62-.45,1.02-.58.4-.13.84-.19,1.33-.19.38,0,.74.04,1.09.12.35.08.66.22.94.4s.5.42.66.72c.17.29.25.65.25,1.06,0,.66-.19,1.17-.57,1.54-.38.37-.86.58-1.44.63v.03c.28.03.54.09.81.2s.5.26.7.45c.21.2.37.44.5.74.12.29.19.64.19,1.05,0,.44-.08.83-.25,1.17-.17.34-.4.63-.69.86-.29.23-.62.41-1,.53s-.79.18-1.22.18c-.53,0-1.01-.07-1.45-.22-.43-.15-.8-.36-1.1-.64-.3-.28-.53-.63-.68-1.04s-.21-.88-.17-1.42h.28c-.04.5.01.93.15,1.31.14.38.34.7.62.96.27.26.61.45,1.02.58.4.13.85.2,1.33.2.38,0,.74-.05,1.09-.16.35-.11.66-.26.92-.47s.48-.47.64-.78c.16-.31.24-.66.24-1.07s-.07-.75-.2-1.03c-.13-.28-.32-.52-.56-.7-.24-.18-.53-.32-.85-.41s-.68-.15-1.07-.17h-.67v-.28h.67c.3,0,.6-.03.9-.1.3-.07.57-.18.81-.34.24-.16.43-.37.58-.63.15-.26.22-.58.22-.97,0-.38-.09-.69-.25-.95-.16-.26-.36-.46-.61-.63-.25-.16-.53-.28-.84-.34-.31-.07-.63-.1-.96-.1-.45,0-.86.06-1.22.17-.36.12-.67.29-.93.52-.26.23-.45.53-.58.87s-.19.76-.19,1.22h-.28c0-.51.06-.96.21-1.34Z"/>
          </g>
          <g class="uuid-788d2e12-1918-4bc6-8593-18d91d3374ad">
            <path class="uuid-f8b8bd62-9f70-4f18-8746-357e3847783b" d="m819.36,1012.55v.28h-6.88v-.28h6.88Z"/>
            <path class="uuid-f8b8bd62-9f70-4f18-8746-357e3847783b" d="m819.82,1013.61l4.68-6.59h.34v6.65h1.69v.27h-1.69v2.44h-.28v-2.44h-4.75v-.33Zm4.72-6.21l-4.45,6.26h4.47v-6.26h-.03Z"/>
          </g>
          <g class="uuid-788d2e12-1918-4bc6-8593-18d91d3374ad">
            <path class="uuid-6505fa1e-f8c0-441d-99d9-c3109adeda49" d="m819.36,1012.55v.28h-6.88v-.28h6.88Z"/>
            <path class="uuid-6505fa1e-f8c0-441d-99d9-c3109adeda49" d="m819.82,1013.61l4.68-6.59h.34v6.65h1.69v.27h-1.69v2.44h-.28v-2.44h-4.75v-.33Zm4.72-6.21l-4.45,6.26h4.47v-6.26h-.03Z"/>
          </g>
          <g class="uuid-788d2e12-1918-4bc6-8593-18d91d3374ad">
            <path class="uuid-f8b8bd62-9f70-4f18-8746-357e3847783b" d="m819.36,1012.55v.28h-6.88v-.28h6.88Z"/>
            <path class="uuid-f8b8bd62-9f70-4f18-8746-357e3847783b" d="m819.82,1013.61l4.68-6.59h.34v6.65h1.69v.27h-1.69v2.44h-.28v-2.44h-4.75v-.33Zm4.72-6.21l-4.45,6.26h4.47v-6.26h-.03Z"/>
          </g>
          <g class="uuid-788d2e12-1918-4bc6-8593-18d91d3374ad">
            <path class="uuid-f8b8bd62-9f70-4f18-8746-357e3847783b" d="m819.36,886.38v.28h-6.88v-.28h6.88Z"/>
            <path class="uuid-f8b8bd62-9f70-4f18-8746-357e3847783b" d="m820.37,882.41c.15-.38.36-.7.64-.96.28-.26.62-.45,1.02-.58.4-.13.84-.19,1.33-.19.38,0,.74.04,1.09.12.35.08.66.22.94.4s.5.42.66.72c.17.29.25.65.25,1.06,0,.66-.19,1.17-.57,1.54-.38.37-.86.58-1.44.63v.03c.28.03.54.09.81.2s.5.26.7.45c.21.2.37.44.5.74.12.29.19.64.19,1.05,0,.44-.08.83-.25,1.17-.17.34-.4.63-.69.86-.29.23-.62.41-1,.53s-.79.18-1.22.18c-.53,0-1.01-.07-1.45-.22-.43-.15-.8-.36-1.1-.64-.3-.28-.53-.63-.68-1.04s-.21-.88-.17-1.42h.28c-.04.5.01.93.15,1.31.14.38.34.7.62.96.27.26.61.45,1.02.58.4.13.85.2,1.33.2.38,0,.74-.05,1.09-.16.35-.11.66-.26.92-.47s.48-.47.64-.78c.16-.31.24-.66.24-1.07s-.07-.75-.2-1.03c-.13-.28-.32-.52-.56-.7-.24-.18-.53-.32-.85-.41s-.68-.15-1.07-.17h-.67v-.28h.67c.3,0,.6-.03.9-.1.3-.07.57-.18.81-.34.24-.16.43-.37.58-.63.15-.26.22-.58.22-.97,0-.38-.09-.69-.25-.95-.16-.26-.36-.46-.61-.63-.25-.16-.53-.28-.84-.34-.31-.07-.63-.1-.96-.1-.45,0-.86.06-1.22.17-.36.12-.67.29-.93.52-.26.23-.45.53-.58.87s-.19.76-.19,1.22h-.28c0-.51.06-.96.21-1.34Z"/>
          </g>
          <g class="uuid-788d2e12-1918-4bc6-8593-18d91d3374ad">
            <path class="uuid-6505fa1e-f8c0-441d-99d9-c3109adeda49" d="m819.36,886.38v.28h-6.88v-.28h6.88Z"/>
            <path class="uuid-6505fa1e-f8c0-441d-99d9-c3109adeda49" d="m820.37,882.41c.15-.38.36-.7.64-.96.28-.26.62-.45,1.02-.58.4-.13.84-.19,1.33-.19.38,0,.74.04,1.09.12.35.08.66.22.94.4s.5.42.66.72c.17.29.25.65.25,1.06,0,.66-.19,1.17-.57,1.54-.38.37-.86.58-1.44.63v.03c.28.03.54.09.81.2s.5.26.7.45c.21.2.37.44.5.74.12.29.19.64.19,1.05,0,.44-.08.83-.25,1.17-.17.34-.4.63-.69.86-.29.23-.62.41-1,.53s-.79.18-1.22.18c-.53,0-1.01-.07-1.45-.22-.43-.15-.8-.36-1.1-.64-.3-.28-.53-.63-.68-1.04s-.21-.88-.17-1.42h.28c-.04.5.01.93.15,1.31.14.38.34.7.62.96.27.26.61.45,1.02.58.4.13.85.2,1.33.2.38,0,.74-.05,1.09-.16.35-.11.66-.26.92-.47s.48-.47.64-.78c.16-.31.24-.66.24-1.07s-.07-.75-.2-1.03c-.13-.28-.32-.52-.56-.7-.24-.18-.53-.32-.85-.41s-.68-.15-1.07-.17h-.67v-.28h.67c.3,0,.6-.03.9-.1.3-.07.57-.18.81-.34.24-.16.43-.37.58-.63.15-.26.22-.58.22-.97,0-.38-.09-.69-.25-.95-.16-.26-.36-.46-.61-.63-.25-.16-.53-.28-.84-.34-.31-.07-.63-.1-.96-.1-.45,0-.86.06-1.22.17-.36.12-.67.29-.93.52-.26.23-.45.53-.58.87s-.19.76-.19,1.22h-.28c0-.51.06-.96.21-1.34Z"/>
          </g>
          <g class="uuid-788d2e12-1918-4bc6-8593-18d91d3374ad">
            <path class="uuid-f8b8bd62-9f70-4f18-8746-357e3847783b" d="m819.36,886.38v.28h-6.88v-.28h6.88Z"/>
            <path class="uuid-f8b8bd62-9f70-4f18-8746-357e3847783b" d="m820.37,882.41c.15-.38.36-.7.64-.96.28-.26.62-.45,1.02-.58.4-.13.84-.19,1.33-.19.38,0,.74.04,1.09.12.35.08.66.22.94.4s.5.42.66.72c.17.29.25.65.25,1.06,0,.66-.19,1.17-.57,1.54-.38.37-.86.58-1.44.63v.03c.28.03.54.09.81.2s.5.26.7.45c.21.2.37.44.5.74.12.29.19.64.19,1.05,0,.44-.08.83-.25,1.17-.17.34-.4.63-.69.86-.29.23-.62.41-1,.53s-.79.18-1.22.18c-.53,0-1.01-.07-1.45-.22-.43-.15-.8-.36-1.1-.64-.3-.28-.53-.63-.68-1.04s-.21-.88-.17-1.42h.28c-.04.5.01.93.15,1.31.14.38.34.7.62.96.27.26.61.45,1.02.58.4.13.85.2,1.33.2.38,0,.74-.05,1.09-.16.35-.11.66-.26.92-.47s.48-.47.64-.78c.16-.31.24-.66.24-1.07s-.07-.75-.2-1.03c-.13-.28-.32-.52-.56-.7-.24-.18-.53-.32-.85-.41s-.68-.15-1.07-.17h-.67v-.28h.67c.3,0,.6-.03.9-.1.3-.07.57-.18.81-.34.24-.16.43-.37.58-.63.15-.26.22-.58.22-.97,0-.38-.09-.69-.25-.95-.16-.26-.36-.46-.61-.63-.25-.16-.53-.28-.84-.34-.31-.07-.63-.1-.96-.1-.45,0-.86.06-1.22.17-.36.12-.67.29-.93.52-.26.23-.45.53-.58.87s-.19.76-.19,1.22h-.28c0-.51.06-.96.21-1.34Z"/>
          </g>
          <g class="uuid-788d2e12-1918-4bc6-8593-18d91d3374ad">
            <path class="uuid-f8b8bd62-9f70-4f18-8746-357e3847783b" d="m819.36,760.22v.28h-6.88v-.28h6.88Z"/>
            <path class="uuid-f8b8bd62-9f70-4f18-8746-357e3847783b" d="m826.42,764.05h-6.3c0-.39.07-.75.25-1.07.17-.32.4-.62.69-.9.28-.28.6-.55.96-.8.35-.25.7-.5,1.05-.75.36-.25.71-.5,1.05-.76.34-.26.64-.53.91-.81.27-.28.48-.58.64-.89.16-.32.24-.66.24-1.03s-.07-.69-.2-.97c-.13-.28-.31-.51-.54-.7-.23-.19-.5-.33-.82-.43-.32-.1-.66-.14-1.04-.14-.49,0-.9.07-1.25.22-.35.15-.63.35-.85.61s-.38.57-.48.94-.15.76-.15,1.19h-.27c0-1.03.26-1.82.76-2.39s1.25-.85,2.25-.85c.4,0,.78.05,1.13.16s.65.26.91.48.46.47.61.78.23.68.23,1.1c0,.51-.14.98-.41,1.4s-.62.82-1.04,1.18-.87.71-1.36,1.04c-.49.33-.94.65-1.37.98-.43.33-.79.66-1.09,1-.3.34-.47.72-.51,1.12h6.03v.28Z"/>
          </g>
          <g class="uuid-788d2e12-1918-4bc6-8593-18d91d3374ad">
            <path class="uuid-6505fa1e-f8c0-441d-99d9-c3109adeda49" d="m819.36,760.22v.28h-6.88v-.28h6.88Z"/>
            <path class="uuid-6505fa1e-f8c0-441d-99d9-c3109adeda49" d="m826.42,764.05h-6.3c0-.39.07-.75.25-1.07.17-.32.4-.62.69-.9.28-.28.6-.55.96-.8.35-.25.7-.5,1.05-.75.36-.25.71-.5,1.05-.76.34-.26.64-.53.91-.81.27-.28.48-.58.64-.89.16-.32.24-.66.24-1.03s-.07-.69-.2-.97c-.13-.28-.31-.51-.54-.7-.23-.19-.5-.33-.82-.43-.32-.1-.66-.14-1.04-.14-.49,0-.9.07-1.25.22-.35.15-.63.35-.85.61s-.38.57-.48.94-.15.76-.15,1.19h-.27c0-1.03.26-1.82.76-2.39s1.25-.85,2.25-.85c.4,0,.78.05,1.13.16s.65.26.91.48.46.47.61.78.23.68.23,1.1c0,.51-.14.98-.41,1.4s-.62.82-1.04,1.18-.87.71-1.36,1.04c-.49.33-.94.65-1.37.98-.43.33-.79.66-1.09,1-.3.34-.47.72-.51,1.12h6.03v.28Z"/>
          </g>
          <g class="uuid-788d2e12-1918-4bc6-8593-18d91d3374ad">
            <path class="uuid-f8b8bd62-9f70-4f18-8746-357e3847783b" d="m819.36,760.22v.28h-6.88v-.28h6.88Z"/>
            <path class="uuid-f8b8bd62-9f70-4f18-8746-357e3847783b" d="m826.42,764.05h-6.3c0-.39.07-.75.25-1.07.17-.32.4-.62.69-.9.28-.28.6-.55.96-.8.35-.25.7-.5,1.05-.75.36-.25.71-.5,1.05-.76.34-.26.64-.53.91-.81.27-.28.48-.58.64-.89.16-.32.24-.66.24-1.03s-.07-.69-.2-.97c-.13-.28-.31-.51-.54-.7-.23-.19-.5-.33-.82-.43-.32-.1-.66-.14-1.04-.14-.49,0-.9.07-1.25.22-.35.15-.63.35-.85.61s-.38.57-.48.94-.15.76-.15,1.19h-.27c0-1.03.26-1.82.76-2.39s1.25-.85,2.25-.85c.4,0,.78.05,1.13.16s.65.26.91.48.46.47.61.78.23.68.23,1.1c0,.51-.14.98-.41,1.4s-.62.82-1.04,1.18-.87.71-1.36,1.04c-.49.33-.94.65-1.37.98-.43.33-.79.66-1.09,1-.3.34-.47.72-.51,1.12h6.03v.28Z"/>
          </g>
          <g class="uuid-788d2e12-1918-4bc6-8593-18d91d3374ad">
            <path class="uuid-f8b8bd62-9f70-4f18-8746-357e3847783b" d="m819.36,634.06v.28h-6.88v-.28h6.88Z"/>
            <path class="uuid-f8b8bd62-9f70-4f18-8746-357e3847783b" d="m823.43,628.88c-.28.39-.65.74-1.11,1.03-.45.29-.92.5-1.38.63v-.28c.28-.09.54-.19.76-.3s.43-.23.62-.37c.19-.14.38-.29.56-.47.18-.17.36-.37.56-.59h.3v9.36h-.28v-9h-.03Z"/>
          </g>
          <g class="uuid-788d2e12-1918-4bc6-8593-18d91d3374ad">
            <path class="uuid-6505fa1e-f8c0-441d-99d9-c3109adeda49" d="m819.36,634.06v.28h-6.88v-.28h6.88Z"/>
            <path class="uuid-6505fa1e-f8c0-441d-99d9-c3109adeda49" d="m823.43,628.88c-.28.39-.65.74-1.11,1.03-.45.29-.92.5-1.38.63v-.28c.28-.09.54-.19.76-.3s.43-.23.62-.37c.19-.14.38-.29.56-.47.18-.17.36-.37.56-.59h.3v9.36h-.28v-9h-.03Z"/>
          </g>
          <g class="uuid-788d2e12-1918-4bc6-8593-18d91d3374ad">
            <path class="uuid-f8b8bd62-9f70-4f18-8746-357e3847783b" d="m819.36,634.06v.28h-6.88v-.28h6.88Z"/>
            <path class="uuid-f8b8bd62-9f70-4f18-8746-357e3847783b" d="m823.43,628.88c-.28.39-.65.74-1.11,1.03-.45.29-.92.5-1.38.63v-.28c.28-.09.54-.19.76-.3s.43-.23.62-.37c.19-.14.38-.29.56-.47.18-.17.36-.37.56-.59h.3v9.36h-.28v-9h-.03Z"/>
          </g>
          <g class="uuid-788d2e12-1918-4bc6-8593-18d91d3374ad">
            <path class="uuid-f8b8bd62-9f70-4f18-8746-357e3847783b" d="m823.43,377.7c-.28.39-.65.74-1.11,1.03-.45.29-.92.5-1.38.63v-.28c.28-.09.54-.19.76-.3.22-.11.43-.23.62-.37.19-.14.38-.29.56-.47.18-.17.36-.37.56-.59h.3v9.36h-.28v-9h-.03Z"/>
          </g>
          <g class="uuid-788d2e12-1918-4bc6-8593-18d91d3374ad">
            <path class="uuid-6505fa1e-f8c0-441d-99d9-c3109adeda49" d="m823.43,377.7c-.28.39-.65.74-1.11,1.03-.45.29-.92.5-1.38.63v-.28c.28-.09.54-.19.76-.3.22-.11.43-.23.62-.37.19-.14.38-.29.56-.47.18-.17.36-.37.56-.59h.3v9.36h-.28v-9h-.03Z"/>
          </g>
          <g class="uuid-788d2e12-1918-4bc6-8593-18d91d3374ad">
            <path class="uuid-f8b8bd62-9f70-4f18-8746-357e3847783b" d="m823.43,377.7c-.28.39-.65.74-1.11,1.03-.45.29-.92.5-1.38.63v-.28c.28-.09.54-.19.76-.3.22-.11.43-.23.62-.37.19-.14.38-.29.56-.47.18-.17.36-.37.56-.59h.3v9.36h-.28v-9h-.03Z"/>
          </g>
          <g class="uuid-788d2e12-1918-4bc6-8593-18d91d3374ad">
            <path class="uuid-f8b8bd62-9f70-4f18-8746-357e3847783b" d="m826.42,260.54h-6.3c0-.39.07-.75.25-1.07.17-.32.4-.62.69-.9.28-.28.6-.55.96-.8.35-.25.7-.5,1.05-.75.36-.25.71-.5,1.05-.76.34-.26.64-.53.91-.81s.48-.58.64-.89c.16-.32.24-.66.24-1.03s-.07-.69-.2-.97-.31-.51-.54-.7c-.23-.19-.5-.33-.82-.43-.32-.1-.66-.14-1.04-.14-.49,0-.9.07-1.25.22-.35.15-.63.35-.85.61-.22.26-.38.57-.48.94-.1.36-.15.76-.15,1.19h-.27c0-1.03.26-1.82.76-2.39s1.25-.85,2.25-.85c.4,0,.78.05,1.13.16s.65.26.91.47c.26.21.46.47.61.78s.23.68.23,1.1c0,.51-.14.98-.41,1.4s-.62.82-1.04,1.18c-.42.37-.87.71-1.36,1.04s-.94.65-1.37.98c-.43.33-.79.66-1.09,1s-.47.72-.51,1.12h6.03v.28Z"/>
          </g>
          <g class="uuid-788d2e12-1918-4bc6-8593-18d91d3374ad">
            <path class="uuid-6505fa1e-f8c0-441d-99d9-c3109adeda49" d="m826.42,260.54h-6.3c0-.39.07-.75.25-1.07.17-.32.4-.62.69-.9.28-.28.6-.55.96-.8.35-.25.7-.5,1.05-.75.36-.25.71-.5,1.05-.76.34-.26.64-.53.91-.81s.48-.58.64-.89c.16-.32.24-.66.24-1.03s-.07-.69-.2-.97-.31-.51-.54-.7c-.23-.19-.5-.33-.82-.43-.32-.1-.66-.14-1.04-.14-.49,0-.9.07-1.25.22-.35.15-.63.35-.85.61-.22.26-.38.57-.48.94-.1.36-.15.76-.15,1.19h-.27c0-1.03.26-1.82.76-2.39s1.25-.85,2.25-.85c.4,0,.78.05,1.13.16s.65.26.91.47c.26.21.46.47.61.78s.23.68.23,1.1c0,.51-.14.98-.41,1.4s-.62.82-1.04,1.18c-.42.37-.87.71-1.36,1.04s-.94.65-1.37.98c-.43.33-.79.66-1.09,1s-.47.72-.51,1.12h6.03v.28Z"/>
          </g>
          <g class="uuid-788d2e12-1918-4bc6-8593-18d91d3374ad">
            <path class="uuid-f8b8bd62-9f70-4f18-8746-357e3847783b" d="m826.42,260.54h-6.3c0-.39.07-.75.25-1.07.17-.32.4-.62.69-.9.28-.28.6-.55.96-.8.35-.25.7-.5,1.05-.75.36-.25.71-.5,1.05-.76.34-.26.64-.53.91-.81s.48-.58.64-.89c.16-.32.24-.66.24-1.03s-.07-.69-.2-.97-.31-.51-.54-.7c-.23-.19-.5-.33-.82-.43-.32-.1-.66-.14-1.04-.14-.49,0-.9.07-1.25.22-.35.15-.63.35-.85.61-.22.26-.38.57-.48.94-.1.36-.15.76-.15,1.19h-.27c0-1.03.26-1.82.76-2.39s1.25-.85,2.25-.85c.4,0,.78.05,1.13.16s.65.26.91.47c.26.21.46.47.61.78s.23.68.23,1.1c0,.51-.14.98-.41,1.4s-.62.82-1.04,1.18c-.42.37-.87.71-1.36,1.04s-.94.65-1.37.98c-.43.33-.79.66-1.09,1s-.47.72-.51,1.12h6.03v.28Z"/>
          </g>
          <g class="uuid-788d2e12-1918-4bc6-8593-18d91d3374ad">
            <path class="uuid-f8b8bd62-9f70-4f18-8746-357e3847783b" d="m820.37,126.58c.15-.38.36-.7.64-.96.28-.26.62-.45,1.02-.58.4-.13.84-.19,1.33-.19.38,0,.74.04,1.09.12s.66.22.94.4.5.42.66.72c.17.29.25.65.25,1.06,0,.66-.19,1.17-.57,1.54-.38.37-.86.58-1.44.63v.03c.28.03.54.09.81.2.26.11.5.26.7.45.21.2.37.44.5.74.12.29.19.64.19,1.05,0,.44-.08.83-.25,1.17s-.4.63-.69.86c-.29.23-.62.41-1,.53s-.79.18-1.22.18c-.53,0-1.01-.07-1.45-.22s-.8-.36-1.1-.64c-.3-.28-.53-.63-.68-1.04-.15-.41-.21-.89-.17-1.42h.28c-.04.5.01.93.15,1.31s.34.7.62.96c.27.26.61.45,1.02.58.4.13.85.2,1.33.2.38,0,.74-.05,1.09-.16.35-.1.66-.26.92-.47s.48-.47.64-.78c.16-.31.24-.66.24-1.07s-.07-.75-.2-1.03-.32-.52-.56-.7c-.24-.18-.53-.32-.85-.41s-.68-.15-1.07-.17h-.67v-.27h.67c.3,0,.6-.03.9-.1.3-.07.57-.18.81-.34.24-.16.43-.37.58-.63.15-.26.22-.58.22-.97,0-.38-.09-.69-.25-.95s-.36-.47-.61-.63c-.25-.16-.53-.27-.84-.34-.31-.07-.63-.1-.96-.1-.45,0-.86.06-1.22.17-.36.11-.67.29-.93.52-.26.23-.45.53-.58.87s-.19.76-.19,1.22h-.28c0-.51.06-.96.21-1.34Z"/>
          </g>
          <g class="uuid-788d2e12-1918-4bc6-8593-18d91d3374ad">
            <path class="uuid-6505fa1e-f8c0-441d-99d9-c3109adeda49" d="m820.37,126.58c.15-.38.36-.7.64-.96.28-.26.62-.45,1.02-.58.4-.13.84-.19,1.33-.19.38,0,.74.04,1.09.12s.66.22.94.4.5.42.66.72c.17.29.25.65.25,1.06,0,.66-.19,1.17-.57,1.54-.38.37-.86.58-1.44.63v.03c.28.03.54.09.81.2.26.11.5.26.7.45.21.2.37.44.5.74.12.29.19.64.19,1.05,0,.44-.08.83-.25,1.17s-.4.63-.69.86c-.29.23-.62.41-1,.53s-.79.18-1.22.18c-.53,0-1.01-.07-1.45-.22s-.8-.36-1.1-.64c-.3-.28-.53-.63-.68-1.04-.15-.41-.21-.89-.17-1.42h.28c-.04.5.01.93.15,1.31s.34.7.62.96c.27.26.61.45,1.02.58.4.13.85.2,1.33.2.38,0,.74-.05,1.09-.16.35-.1.66-.26.92-.47s.48-.47.64-.78c.16-.31.24-.66.24-1.07s-.07-.75-.2-1.03-.32-.52-.56-.7c-.24-.18-.53-.32-.85-.41s-.68-.15-1.07-.17h-.67v-.27h.67c.3,0,.6-.03.9-.1.3-.07.57-.18.81-.34.24-.16.43-.37.58-.63.15-.26.22-.58.22-.97,0-.38-.09-.69-.25-.95s-.36-.47-.61-.63c-.25-.16-.53-.27-.84-.34-.31-.07-.63-.1-.96-.1-.45,0-.86.06-1.22.17-.36.11-.67.29-.93.52-.26.23-.45.53-.58.87s-.19.76-.19,1.22h-.28c0-.51.06-.96.21-1.34Z"/>
          </g>
          <g class="uuid-788d2e12-1918-4bc6-8593-18d91d3374ad">
            <path class="uuid-f8b8bd62-9f70-4f18-8746-357e3847783b" d="m820.37,126.58c.15-.38.36-.7.64-.96.28-.26.62-.45,1.02-.58.4-.13.84-.19,1.33-.19.38,0,.74.04,1.09.12s.66.22.94.4.5.42.66.72c.17.29.25.65.25,1.06,0,.66-.19,1.17-.57,1.54-.38.37-.86.58-1.44.63v.03c.28.03.54.09.81.2.26.11.5.26.7.45.21.2.37.44.5.74.12.29.19.64.19,1.05,0,.44-.08.83-.25,1.17s-.4.63-.69.86c-.29.23-.62.41-1,.53s-.79.18-1.22.18c-.53,0-1.01-.07-1.45-.22s-.8-.36-1.1-.64c-.3-.28-.53-.63-.68-1.04-.15-.41-.21-.89-.17-1.42h.28c-.04.5.01.93.15,1.31s.34.7.62.96c.27.26.61.45,1.02.58.4.13.85.2,1.33.2.38,0,.74-.05,1.09-.16.35-.1.66-.26.92-.47s.48-.47.64-.78c.16-.31.24-.66.24-1.07s-.07-.75-.2-1.03-.32-.52-.56-.7c-.24-.18-.53-.32-.85-.41s-.68-.15-1.07-.17h-.67v-.27h.67c.3,0,.6-.03.9-.1.3-.07.57-.18.81-.34.24-.16.43-.37.58-.63.15-.26.22-.58.22-.97,0-.38-.09-.69-.25-.95s-.36-.47-.61-.63c-.25-.16-.53-.27-.84-.34-.31-.07-.63-.1-.96-.1-.45,0-.86.06-1.22.17-.36.11-.67.29-.93.52-.26.23-.45.53-.58.87s-.19.76-.19,1.22h-.28c0-.51.06-.96.21-1.34Z"/>
          </g>
          <g class="uuid-788d2e12-1918-4bc6-8593-18d91d3374ad">
            <path class="uuid-f8b8bd62-9f70-4f18-8746-357e3847783b" d="m819.82,5.45l4.68-6.59h.34v6.65h1.69v.28h-1.69v2.44h-.28v-2.44h-4.75v-.33Zm4.72-6.21l-4.45,6.26h4.47V-.76h-.03Z"/>
          </g>
          <g class="uuid-788d2e12-1918-4bc6-8593-18d91d3374ad">
            <path class="uuid-6505fa1e-f8c0-441d-99d9-c3109adeda49" d="m819.82,5.45l4.68-6.59h.34v6.65h1.69v.28h-1.69v2.44h-.28v-2.44h-4.75v-.33Zm4.72-6.21l-4.45,6.26h4.47V-.76h-.03Z"/>
          </g>
          <g class="uuid-788d2e12-1918-4bc6-8593-18d91d3374ad">
            <path class="uuid-f8b8bd62-9f70-4f18-8746-357e3847783b" d="m819.82,5.45l4.68-6.59h.34v6.65h1.69v.28h-1.69v2.44h-.28v-2.44h-4.75v-.33Zm4.72-6.21l-4.45,6.26h4.47V-.76h-.03Z"/>
          </g>
          <g class="uuid-788d2e12-1918-4bc6-8593-18d91d3374ad">
            <path class="uuid-f8b8bd62-9f70-4f18-8746-357e3847783b" d="m826.55,522.55c-.11.58-.31,1.1-.58,1.56s-.64.83-1.09,1.11c-.45.28-1.01.42-1.69.42s-1.23-.14-1.69-.42c-.45-.28-.82-.65-1.09-1.11s-.47-.98-.58-1.56-.17-1.16-.17-1.75.06-1.17.17-1.75.31-1.1.58-1.55.64-.83,1.09-1.12,1.02-.43,1.69-.43,1.24.14,1.69.43.81.66,1.09,1.12.47.98.58,1.55.17,1.16.17,1.75-.06,1.17-.17,1.75Zm-.25-3.34c-.1-.54-.27-1.03-.52-1.47-.25-.44-.58-.8-1-1.08-.42-.28-.95-.42-1.59-.42s-1.17.14-1.59.42-.75.64-1,1.08c-.25.44-.42.93-.52,1.47-.1.54-.15,1.07-.15,1.6s.05,1.06.15,1.6c.1.54.27,1.03.52,1.47.25.44.58.8,1,1.08.42.28.95.42,1.59.42s1.17-.14,1.59-.42c.42-.28.75-.64,1-1.08.25-.44.42-.93.52-1.47.1-.54.15-1.07.15-1.6s-.05-1.05-.15-1.6Z"/>
          </g>
          <g class="uuid-788d2e12-1918-4bc6-8593-18d91d3374ad">
            <path class="uuid-6505fa1e-f8c0-441d-99d9-c3109adeda49" d="m826.55,522.55c-.11.58-.31,1.1-.58,1.56s-.64.83-1.09,1.11c-.45.28-1.01.42-1.69.42s-1.23-.14-1.69-.42c-.45-.28-.82-.65-1.09-1.11s-.47-.98-.58-1.56-.17-1.16-.17-1.75.06-1.17.17-1.75.31-1.1.58-1.55.64-.83,1.09-1.12,1.02-.43,1.69-.43,1.24.14,1.69.43.81.66,1.09,1.12.47.98.58,1.55.17,1.16.17,1.75-.06,1.17-.17,1.75Zm-.25-3.34c-.1-.54-.27-1.03-.52-1.47-.25-.44-.58-.8-1-1.08-.42-.28-.95-.42-1.59-.42s-1.17.14-1.59.42-.75.64-1,1.08c-.25.44-.42.93-.52,1.47-.1.54-.15,1.07-.15,1.6s.05,1.06.15,1.6c.1.54.27,1.03.52,1.47.25.44.58.8,1,1.08.42.28.95.42,1.59.42s1.17-.14,1.59-.42c.42-.28.75-.64,1-1.08.25-.44.42-.93.52-1.47.1-.54.15-1.07.15-1.6s-.05-1.05-.15-1.6Z"/>
          </g>
          <g class="uuid-788d2e12-1918-4bc6-8593-18d91d3374ad">
            <path class="uuid-f8b8bd62-9f70-4f18-8746-357e3847783b" d="m826.55,522.55c-.11.58-.31,1.1-.58,1.56s-.64.83-1.09,1.11c-.45.28-1.01.42-1.69.42s-1.23-.14-1.69-.42c-.45-.28-.82-.65-1.09-1.11s-.47-.98-.58-1.56-.17-1.16-.17-1.75.06-1.17.17-1.75.31-1.1.58-1.55.64-.83,1.09-1.12,1.02-.43,1.69-.43,1.24.14,1.69.43.81.66,1.09,1.12.47.98.58,1.55.17,1.16.17,1.75-.06,1.17-.17,1.75Zm-.25-3.34c-.1-.54-.27-1.03-.52-1.47-.25-.44-.58-.8-1-1.08-.42-.28-.95-.42-1.59-.42s-1.17.14-1.59.42-.75.64-1,1.08c-.25.44-.42.93-.52,1.47-.1.54-.15,1.07-.15,1.6s.05,1.06.15,1.6c.1.54.27,1.03.52,1.47.25.44.58.8,1,1.08.42.28.95.42,1.59.42s1.17-.14,1.59-.42c.42-.28.75-.64,1-1.08.25-.44.42-.93.52-1.47.1-.54.15-1.07.15-1.6s-.05-1.05-.15-1.6Z"/>
          </g>
          <path class="uuid-9f4cbc75-64c2-46ba-8510-4e975d4e09d6" d="m-3,695.35v.09-.09l1.15-.09h0l1.15-.09h0l1.15-.09H.44l1.15-.09h0l1.15-.09h0l1.15-.09h0l1.15-.09h0l1.15-.09h0l1.15-.09h0l1.15-.09h0l1.15-.09h0l1.15-.09h0l1.15-.09h0l1.15-.09h0l1.15-.09h0l1.15-.09h0l1.15-.09h0l1.15-.09h0l1.15-.09h0l1.15-.09h0l1.15-.09h0l1.15-.09h0l1.15-.09h0l1.15-.09h0l1.15-.09h0l1.15-.09h0l1.15-.09h0l1.15-.09h0l1.15-.09h0l1.15-.09h0l1.15-.09h0l1.15-.09h0l1.15-.09h0l1.15-.09h0l1.15-.09h0l1.15-.09h0l1.15-.09h0l1.15-.09h0l1.15-.09h0l1.15-.09h0l1.15-.09h0l1.15-.09h0l1.15-.09h0l1.15-.09h0l1.15-.09h0l1.15-.09h0l1.15-.09h0l1.15-.09h0l1.15-.09h0l1.15-.09h0l1.15-.09h0l1.15-.09h0l1.15-.09h0l1.15-.09h0l1.15-.09h0l1.15-.09h0l1.15-.09h0l1.15-.09h0l1.15-.09h0l1.15-.09h0l1.15-.09h0l1.15-.09h0l1.15-.09h0l1.15-.09h0l1.15-.09h0l1.15-.09h0l1.15-.09h0l1.15-.09h0l1.15-.09h0l1.15-.09h0l1.15-.09h0l1.15-.09h0l1.15-.09h0l1.15-.09h0l1.15-.09h0l1.15-.09h0l1.15-.09h0l1.15-.09h0l1.15-.09h0l1.15-.09h0l1.15-.09h0l1.15-.09h0l1.15-.09h0l1.15-.09h0l1.15-.09h0l1.15-.09h0l1.15-.09h0l1.15-.09h0l1.15-.09h0l1.15-.09h0l1.15-.09h0l1.15-.09h0l1.15-.09h0l1.15-.09h0l1.15-.09h0l1.15-.09h0l1.15-.09h0l1.15-.09h0l1.15-.09h0l1.15-.09h0l1.15-.09h0l1.15-.09h0l1.15-.09h0l1.15-.09h0l1.15-.1h0l1.15-.1h0l1.15-.1h0l1.15-.1h0l1.15-.1h0l1.15-.1h0l1.15-.1h0l1.15-.1h0l1.15-.1h0l1.15-.1h0l1.15-.1h0l1.15-.1h0l1.15-.1h0l1.15-.1h0l1.15-.1h0l1.15-.1h0l1.15-.1h0l1.15-.1h0l1.15-.1h0l1.15-.1h0l1.15-.1h0l1.15-.1h0l1.15-.1h0l1.15-.1h0l1.15-.1h0l1.15-.1h0l1.15-.1h0l1.15-.1h0l1.15-.1h0l1.15-.1h0l1.15-.1h0l1.15-.1h0l1.15-.1h0l1.15-.1h0l1.15-.1h0l1.15-.1h0l1.15-.1h0l1.15-.1h0l1.15-.1h0l1.15-.1h0l1.15-.1h0l1.15-.1h0l1.15-.1h0l1.15-.1h0l1.15-.1h0l1.15-.1h0l1.15-.1h0l1.15-.1h0l1.15-.1h0l1.15-.1h0l1.15-.1h0l1.15-.1h0l1.15-.1h0l1.15-.1h0l1.15-.1h0l1.15-.1h0l1.15-.1h0l1.15-.1h0l1.15-.1h0l1.15-.1h0l1.15-.1h0l1.15-.1h0l1.15-.1h0l1.15-.1h0l1.15-.1h0l1.15-.1h0l1.15-.1h0l1.15-.1h0l1.15-.1h0l1.15-.1h0l1.15-.1h0l1.15-.1h0l1.15-.1h0l1.15-.1h0l1.15-.1h0l1.15-.1h0l1.15-.1h0l1.15-.1h0l1.15-.1h0l1.15-.1h0l1.15-.1h0l1.15-.1h0l1.15-.1h0l1.15-.1h0l1.15-.1h0l1.15-.1h0l1.15-.1h0l1.15-.11h0l1.15-.11h0l1.15-.11h0l1.15-.11h0l1.15-.11h0l1.15-.11h0l1.15-.11h0l1.15-.11h0l1.15-.11h0l1.15-.11h0l1.15-.11h0l1.15-.11h0l1.15-.11h0l1.15-.11h0l1.15-.11h0l1.15-.11h0l1.15-.11h0l1.15-.11h0l1.15-.11h0l1.15-.11h0l1.15-.11h0l1.15-.11h0l1.15-.11h0l1.15-.11h0l1.15-.11h0l1.15-.11h0l1.15-.11h0l1.15-.11h0l1.15-.11h0l1.15-.11h0l1.15-.11h0l1.15-.11h0l1.15-.11h0l1.15-.11h0l1.15-.11h0l1.15-.11h0l1.15-.11h0l1.15-.11h0l1.15-.11h0l1.15-.11h0l1.15-.11h0l1.15-.11h0l1.15-.11h0l1.15-.11h0l1.15-.11h0l1.15-.11h0l1.15-.11h0l1.15-.11h0l1.15-.11h0l1.15-.11h0l1.15-.11h0l1.15-.11h0l1.15-.11h0l1.15-.11h0l1.15-.11h0l1.15-.11h0l1.15-.11h0l1.15-.11h0l1.15-.11h0l1.15-.11h0l1.15-.11h0l1.15-.11h0l1.15-.11h0l1.15-.11h0l1.15-.11h0l1.15-.11h0l1.15-.11h0l1.15-.11h0l1.15-.11h0l1.15-.12h0l1.15-.12h0l1.15-.12h0l1.15-.12h0l1.15-.12h0l1.15-.12h0l1.15-.12h0l1.15-.12h0l1.15-.12h0l1.15-.12h0l1.15-.12h0l1.15-.12h0l1.15-.12h0l1.15-.12h0l1.15-.12h0l1.15-.12h0l1.15-.12h0l1.15-.12h0l1.15-.12h0l1.15-.12h0l1.15-.12h0l1.15-.12h0l1.15-.12h0l1.15-.12h0l1.15-.12h0l1.15-.12h0l1.15-.12h0l1.15-.12h0l1.15-.12h0l1.15-.12h0l1.15-.12h0l1.15-.12h0l1.15-.12h0l1.15-.12h0l1.15-.12h0l1.15-.12h0l1.15-.12h0l1.15-.12h0l1.15-.12h0l1.15-.12h0l1.15-.12h0l1.15-.12h0l1.15-.12h0l1.15-.12h0l1.15-.12h0l1.15-.12h0l1.15-.12h0l1.15-.12h0l1.15-.12h0l1.15-.12h0l1.15-.12h0l1.15-.12h0l1.15-.12h0l1.15-.12h0l1.15-.12h0l1.15-.13h0l1.15-.13h0l1.15-.13h0l1.15-.13h0l1.15-.13h0l1.15-.13h0l1.15-.13h0l1.15-.13h0l1.15-.13h0l1.15-.13h0l1.15-.13h0l1.15-.13h0l1.15-.13h0l1.15-.13h0l1.15-.13h0l1.15-.13h0l1.15-.13h0l1.15-.13h0l1.15-.13h0l1.15-.13h0l1.15-.13h0l1.15-.13h0l1.15-.13h0l1.15-.13h0l1.15-.13h0l1.15-.13h0l1.15-.13h0l1.15-.13h0l1.15-.13h0l1.15-.13h0l1.15-.13h0l1.15-.13h0l1.15-.13h0l1.15-.13h0l1.15-.13h0l1.15-.13h0l1.15-.13h0l1.15-.13h0l1.15-.13h0l1.15-.13h0l1.15-.13h0l1.15-.13h0l1.15-.13h0l1.15-.13h0l1.15-.13h0l1.15-.13h0l1.15-.14h0l1.15-.14h0l1.15-.14h0l1.15-.14h0l1.15-.14h0l1.15-.14h0l1.15-.14h0l1.15-.14h0l1.15-.14h0l1.15-.14h0l1.15-.14h0l1.15-.14h0l1.15-.14h0l1.15-.14h0l1.15-.14h0l1.15-.14h0l1.15-.14h0l1.15-.14h0l1.15-.14h0l1.15-.14h0l1.15-.14h0l1.15-.14h0l1.15-.14h0l1.15-.14h0l1.15-.14h0l1.15-.14h0l1.15-.14h0l1.15-.14h0l1.15-.14h0l1.15-.14h0l1.15-.14h0l1.15-.14h0l1.15-.14h0l1.15-.14h0l1.15-.14h0l1.15-.14h0l1.15-.14h0l1.15-.15h0l1.15-.15h0l1.15-.15h0l1.15-.15h0l1.15-.15h0l1.15-.15h0l1.15-.15h0l1.15-.15h0l1.15-.15h0l1.15-.15h0l1.15-.15h0l1.15-.15h0l1.15-.15h0l1.15-.15h0l1.15-.15h0l1.15-.15h0l1.15-.15h0l1.15-.15h0l1.15-.15h0l1.15-.15h0l1.15-.15h0l1.15-.15h0l1.15-.15h0l1.15-.15h0l1.15-.15h0l1.15-.15h0l1.15-.15h0l1.15-.15h0l1.15-.15h0l1.15-.15h0l1.15-.15h0l1.15-.15h0l1.15-.16h0l1.15-.16h0l1.15-.16h0l1.15-.16h0l1.15-.16h0l1.15-.16h0l1.15-.16h0l1.15-.16h0l1.15-.16h0l1.15-.16h0l1.15-.16h0l1.15-.16h0l1.15-.16h0l1.15-.16h0l1.15-.16h0l1.15-.16h0l1.15-.16h0l1.15-.16h0l1.15-.16h0l1.15-.16h0l1.15-.16h0l1.15-.16h0l1.15-.16h0l1.15-.16h0l1.15-.16h0l1.15-.16h0l1.15-.16h0l1.15-.17h0l1.15-.17h0l1.15-.17h0l1.15-.17h0l1.15-.17h0l1.15-.17h0l1.15-.17h0l1.15-.17h0l1.15-.17h0l1.15-.17h0l1.15-.17h0l1.15-.17h0l1.15-.17h0l1.15-.17h0l1.15-.17h0l1.15-.17h0l1.15-.17h0l1.15-.17h0l1.15-.17h0l1.15-.17h0l1.15-.17h0l1.15-.17h0l1.15-.17h0l1.15-.18h0l1.15-.18h0l1.15-.18h0l1.15-.18h0l1.15-.18h0l1.15-.18h0l1.15-.18h0l1.15-.18h0l1.15-.18h0l1.15-.18h0l1.15-.18h0l1.15-.18h0l1.15-.18h0l1.15-.18h0l1.15-.18h0l1.15-.18h0l1.15-.18h0l1.15-.18h0l1.15-.18h0l1.15-.18h0l1.15-.19h0l1.15-.19h0l1.15-.19h0l1.15-.19h0l1.15-.19h0l1.15-.19h0l1.15-.19h0l1.15-.19h0l1.15-.19h0l1.15-.19h0l1.15-.19h0l1.15-.19h0l1.15-.19h0l1.15-.19h0l1.15-.19h0l1.15-.19h0l1.15-.19h0l1.15-.19h0l1.15-.2h0l1.15-.2h0l1.15-.2h0l1.15-.2h0l1.15-.2h0l1.15-.2h0l1.15-.2h0l1.15-.2h0l1.15-.2h0l1.15-.2h0l1.15-.2h0l1.15-.2h0l1.15-.2h0l1.15-.2h0l1.15-.2h0l1.15-.21h0l1.15-.21h0l1.15-.21h0l1.15-.21h0l1.15-.21h0l1.15-.21h0l1.15-.21h0l1.15-.21h0l1.15-.21h0l1.15-.21h0l1.15-.21h0l1.15-.21h0l1.15-.21h0l1.15-.21h0l1.15-.22h0l1.15-.22h0l1.15-.22h0l1.15-.22h0l1.15-.22h0l1.15-.22h0l1.15-.22h0l1.15-.22h0l1.15-.22h0l1.15-.22h0l1.15-.22h0l1.15-.22h0l1.15-.23h0l1.15-.23h0l1.15-.23h0l1.15-.23h0l1.15-.23h0l1.15-.23h0l1.15-.23h0l1.15-.23h0l1.15-.23h0l1.15-.23h0l1.15-.23h0l1.15-.24h0l1.15-.24h0l1.15-.24h0l1.15-.24h0l1.15-.24h0l1.15-.24h0l1.15-.24h0l1.15-.24h0l1.15-.24h0l1.15-.24h0l1.15-.25h0l1.15-.25h0l1.15-.25h0l1.15-.25h0l1.15-.25h0l1.15-.25h0l1.15-.25h0l1.15-.25h0l1.15-.26h0l1.15-.26h0l1.15-.26h0l1.15-.26h0l1.15-.26h0l1.15-.26h0l1.15-.26h0l1.15-.26h0l1.15-.27h0l1.15-.27h0l1.15-.27h0l1.15-.27h0l1.15-.27h0l1.15-.27h0l1.15-.27h0l1.15-.27h0l1.15-.28h0l1.15-.28h0l1.15-.28h0l1.15-.28h0l1.15-.28h0l1.15-.28h0l1.15-.29h0l1.15-.29h0l1.15-.29h0l1.15-.29h0l1.15-.29h0l1.15-.29h0l1.15-.3h0l1.15-.3h0l1.15-.3h0l1.15-.3h0l1.15-.3h0l1.15-.3h0l1.15-.31h0l1.15-.31h0l1.15-.31h0l1.15-.31h0l1.15-.31h0l1.15-.32h0l1.15-.32h0l1.15-.32h0l1.15-.32h0l1.15-.32h0l1.15-.33h0l1.15-.33h0l1.15-.33h0l1.15-.33h0l1.15-.34h0l1.15-.34h0l1.15-.34h0l1.15-.34h0l1.15-.35h0l1.15-.35h0l1.15-.35h0l1.15-.35h0l1.15-.36h0l1.15-.36h0l1.15-.36h0l1.15-.36h0l1.15-.37h0l1.15-.37h0l1.15-.37h0l1.15-.38h0l1.15-.38h0l1.15-.38h0l1.15-.39h0l1.15-.39h0l1.15-.39h0l1.15-.4h0l1.15-.4h0l1.15-.4h0l1.15-.41h0l1.15-.41h0l1.15-.42h0l1.15-.42h0l1.15-.42h0l1.15-.43h0l1.15-.43h0l1.15-.44h0l1.15-.44h0l1.15-.45h0l1.15-.45h0l1.15-.46h0l1.15-.46h0l1.15-.47h0l1.15-.47h0l1.15-.48h0l1.15-.48h0l1.15-.49h0l1.15-.5h0l1.15-.5h0l1.15-.51h0l1.15-.52h0l1.15-.52h0l1.15-.53h0l1.15-.54h0l1.15-.55h0l1.15-.55h0l1.15-.56h0l1.15-.57h0l1.15-.58h0l1.15-.59h0l1.15-.6h0l1.15-.61h0l1.15-.62h0l1.15-.63h0l1.15-.64h0l1.15-.66h0l1.15-.67h0l1.15-.68h0l1.15-.7h0l1.15-.71h0l1.15-.73h0l1.15-.74h0l1.15-.76h0l1.15-.78h0l1.15-.8h0l1.15-.82h0l1.15-.85h0l1.15-.87h0l1.15-.9h0l1.15-.93h0l1.15-.96h0l1.15-.99h0l1.15-1.03h0l1.15-1.07h0l1.15-1.11h0l1.15-1.16h0l1.15-1.22h0l1.15-1.28h0l1.15-1.36h0l1.15-1.44h0l1.15-1.54h0l1.15-1.66h0l1.15-1.8h0l1.15-1.98h0l1.15-2.2h0l1.15-2.51h0l1.15-2.96h0l1.15-3.68h0l1.15-5.13h0l1.15-11.27h0l1.15-30.44h0l1.15-5.78h0l1.15-3.95h0l1.15-3.11h0l1.15-2.61h0l1.15-2.27h0l1.15-2.03h0l1.15-1.84h0l1.15-1.69h0l1.15-1.57h0l1.15-1.46h0l1.15-1.38h0l1.15-1.3h0l1.15-1.24h0l1.15-1.18h0l1.15-1.13h0l1.15-1.08h0l1.15-1.04h0l1.15-1h0l1.15-.97h0l1.15-.93h0l1.15-.9h0l1.15-.88h0l1.15-.85h0l1.15-.83h0l1.15-.81h0l1.15-.79h0l1.15-.77h0l1.15-.75h0l1.15-.73h0l1.15-.72h0l1.15-.7h0l1.15-.69h0l1.15-.67h0l1.15-.66h0l1.15-.65h0l1.15-.63h0l1.15-.62h0l1.15-.61h0l1.15-.6h0l1.15-.59h0l1.15-.58h0l1.15-.57h0l1.15-.56h0l1.15-.56h0l1.15-.55h0l1.15-.54h0l1.15-.53h0l1.15-.52h0l1.15-.52h0l1.15-.51h0l1.15-.5h0l1.15-.5h0l1.15-.49h0l1.15-.49h0l1.15-.48h0l1.15-.47h0l1.15-.47h0l1.15-.46h0l1.15-.46h0l1.15-.45h0l1.15-.45h0l1.15-.44h0l1.15-.44h0l1.15-.43h0l1.15-.43h0l1.15-.42h0l1.15-.42h0l1.15-.42h0l1.15-.41h0l1.15-.41h0l1.15-.4h0l1.15-.4h0l1.15-.4h0l1.15-.39h0l1.15-.39h0l1.15-.39h0l1.15-.38h0l1.15-.38h0l1.15-.38h0l1.15-.37h0l1.15-.37h0l1.15-.37h0l1.15-.36h0l1.15-.36h0l1.15-.36h0l1.15-.36h0l1.15-.35h0l1.15-.35h0l1.15-.35h0l1.15-.35h0l1.15-.34h0l1.15-.34h0l1.15-.34h0l1.15-.34h0l1.15-.33h0l1.15-.33h0l1.15-.33h0l1.15-.33h0l1.15-.32h0l1.15-.32h0l1.15-.32h0l1.15-.32h0l1.15-.32h0l1.15-.31h0l1.15-.31h0l1.15-.31h0l1.15-.31h0l1.15-.31h0l1.15-.3h0l1.15-.3h0l1.15-.3h0l1.15-.3h0l1.15-.3h0l1.15-.3h0l1.15-.29h0l1.15-.29h0l1.15-.29h0l1.15-.29h0l1.15-.29h0l1.15-.29h0l1.15-.28h0l1.15-.28h0l1.15-.28h0l1.15-.28h0l1.15-.28h0l1.15-.28h0l1.15-.28h0l1.15-.27h0l1.15-.27h0l1.15-.27h0l1.15-.27h0l1.15-.27h0l1.15-.27h0l1.15-.27h0l1.15-.26h0l1.15-.26h0l1.15-.26h0l1.15-.26h0l1.15-.26h0l1.15-.26h0l1.15-.26h0l1.15-.26h0l1.15-.25h0l1.15-.25h0l1.15-.25h0l1.15-.25h0l1.15-.25h0l1.15-.25h0l1.15-.25h0l1.15-.25h0l1.15-.25h0l1.15-.24h0l1.15-.24h0l1.15-.24h0l1.15-.24h0l1.15-.24h0l1.15-.24h0l1.15-.24h0l1.15-.24h0l1.15-.24h0l1.15-.23h0l1.15-.23h0l1.15-.23h0l1.15-.23h0l1.15-.23h0l1.15-.23h0l1.15-.23h0l1.15-.23h0l1.15-.23h0l1.15-.23h0l1.15-.23h0l1.15-.22h0l1.15-.22h0l1.15-.22h0l1.15-.22h0l1.15-.22h0l1.15-.22h0l1.15-.22h0l1.15-.22h0l1.15-.22h0l1.15-.22h0l1.15-.22h0l1.15-.22h0l1.15-.21h0l1.15-.21h0l1.15-.21h0l1.15-.21h0l1.15-.21h0l1.15-.21h0l1.15-.21h0l1.15-.21h0l1.15-.21h0l1.15-.21h0l1.15-.21h0l1.15-.21h0l1.15-.21h0l1.15-.21h0l1.15-.2h0l1.15-.2h0l1.15-.2h0l1.15-.2h0l1.15-.2h0l1.15-.2h0l1.15-.2h0l1.15-.2h0l1.15-.2h0l1.15-.2h0l1.15-.2h0l1.15-.2h0l1.15-.2h0l1.15-.2h0l1.15-.2h0l1.15-.2h0l1.15-.19h0l1.15-.19h0l1.15-.19h0l1.15-.19h0l1.15-.19h0l1.15-.19h0l1.15-.19h0l1.15-.19h0l1.15-.19h0l1.15-.19h0l1.15-.19h0l1.15-.19h0l1.15-.19h0l1.15-.19h0l1.15-.19h0l1.15-.19h0l1.15-.19h0l1.15-.18h0l1.15-.18h0l1.15-.18h0l1.15-.18h0l1.15-.18h0l1.15-.18h0l1.15-.18h0l1.15-.18h0l1.15-.18h0l1.15-.18h0l1.15-.18h0l1.15-.18h0l1.15-.18h0l1.15-.18h0l1.15-.18h0l1.15-.18h0l1.15-.18h0l1.15-.18h0l1.15-.18h0l1.15-.18h0l1.15-.17h0l1.15-.17h0l1.15-.17h0l1.15-.17h0l1.15-.17h0l1.15-.17h0l1.15-.17h0l1.15-.17h0l1.15-.17h0l1.15-.17h0l1.15-.17h0l1.15-.17h0l1.15-.17h0l1.15-.17h0l1.15-.17h0l1.15-.17h0l1.15-.17h0l1.15-.17h0l1.15-.17h0l1.15-.17h0l1.15-.17h0l1.15-.17h0l1.15-.17h0l1.15-.16h0l1.15-.16h0l1.15-.16h0l1.15-.16h0l1.15-.16h0l1.15-.16h0l1.15-.16h0l1.15-.16h0l1.15-.16h0l1.15-.16h0l1.15-.16h0l1.15-.16h0l1.15-.16h0l1.15-.16h0l1.15-.16h0l1.15-.16h0l1.15-.16h0l1.15-.16h0l1.15-.16h0l1.15-.16h0l1.15-.16h0l1.15-.16h0l1.15-.16h0l1.15-.16h0l1.15-.16h0l1.15-.16h0l1.15-.16h0l1.15-.15h0l1.15-.15h0l1.15-.15h0l1.15-.15h0l1.15-.15h0l1.15-.15h0l1.15-.15h0l1.15-.15h0l1.15-.15h0l1.15-.15h0l1.15-.15h0l1.15-.15h0l1.15-.15h0l1.15-.15h0l1.15-.15h0l1.15-.15h0l1.15-.15h0l1.15-.15h0l1.15-.15h0l1.15-.15h0l1.15-.15h0l1.15-.15h0l1.15-.15h0l1.15-.15h0l1.15-.15h0l1.15-.15h0l1.15-.15h0l1.15-.15h0l1.15-.15h0l1.15-.15h0l1.15-.15h0l1.15-.15h0l1.15-.14h0l1.15-.14h0l1.15-.14h0l1.15-.14h0l1.15-.14h0l1.15-.14h0l1.15-.14h0l1.15-.14h0l1.15-.14h0l1.15-.14h0l1.15-.14h0l1.15-.14h0l1.15-.14h0l1.15-.14h0l1.15-.14h0l1.15-.14h0l1.15-.14h0l1.15-.14h0l1.15-.14h0l1.15-.14h0l1.15-.14h0l1.15-.14h0l1.15-.14h0l1.15-.14h0l1.15-.14h0l1.15-.14h0l1.15-.14h0l1.15-.14h0l1.15-.14h0l1.15-.14h0l1.15-.14h0l1.15-.14h0l1.15-.14h0l1.15-.14h0l1.15-.14h0l1.15-.14h0l1.15-.14h0l1.15-.14h0l1.15-.13h0l1.15-.13h0l1.15-.13h0l1.15-.13h0l1.15-.13h0l1.15-.13h0l1.15-.13h0l1.15-.13h0l1.15-.13h0l1.15-.13h0l1.15-.13h0l1.15-.13h0l1.15-.13h0l1.15-.13h0l1.15-.13h0l1.15-.13h0l1.15-.13h0l1.15-.13h0l1.15-.13h0l1.15-.13h0l1.15-.13h0l1.15-.13h0l1.15-.13h0l1.15-.13h0l1.15-.13h0l1.15-.13h0l1.15-.13h0l1.15-.13h0l1.15-.13h0l1.15-.13h0l1.15-.13h0l1.15-.13h0l1.15-.13h0l1.15-.13h0l1.15-.13h0l1.15-.13h0l1.15-.13h0l1.15-.13h0l1.15-.13h0l1.15-.13h0l1.15-.13h0l1.15-.13h0l1.15-.13h0l1.15-.13h0l1.15-.13h0l1.15-.12h0l1.15-.12h0l1.15-.12h0l1.15-.12h0l1.15-.12h0l1.15-.12h0l1.15-.12h0l1.15-.12h0l1.15-.12h0l1.15-.12h0l1.15-.12h0l1.15-.12h0l1.15-.12h0l1.15-.12h0l1.15-.12h0l1.15-.12h0l1.15-.12h0l1.15-.12h0l1.15-.12h0l1.15-.12h0l1.15-.12h0l1.15-.12h0l1.15-.12h0l1.15-.12h0l1.15-.12h0l1.15-.12h0l1.15-.12h0l1.15-.12h0l1.15-.12h0l1.15-.12h0l1.15-.12h0l1.15-.12h0l1.15-.12h0l1.15-.12h0l1.15-.12h0l1.15-.12h0l1.15-.12h0l1.15-.12h0l1.15-.12h0l1.15-.12h0l1.15-.12h0l1.15-.12h0l1.15-.12h0l1.15-.12h0l1.15-.12h0l1.15-.12h0l1.15-.12h0l1.15-.12h0l1.15-.12h0l1.15-.12h0l1.15-.12h0l1.15-.12h0l1.15-.12h0l1.15-.12h0l1.15-.12h0l1.15-.11h0l1.15-.11h0l1.15-.11h0l1.15-.11h0l1.15-.11h0l1.15-.11h0l1.15-.11h0l1.15-.11h0l1.15-.11h0l1.15-.11h0l1.15-.11h0l1.15-.11h0l1.15-.11h0l1.15-.11h0l1.15-.11h0l1.15-.11h0l1.15-.11h0l1.15-.11h0l1.15-.11h0l1.15-.11h0l1.15-.11h0l1.15-.11h0l1.15-.11h0l1.15-.11h0l1.15-.11h0l1.15-.11h0l1.15-.11h0l1.15-.11h0l1.15-.11h0l1.15-.11h0l1.15-.11h0l1.15-.11h0l1.15-.11h0l1.15-.11h0l1.15-.11h0l1.15-.11h0l1.15-.11h0l1.15-.11h0l1.15-.11h0l1.15-.11h0l1.15-.11h0l1.15-.11h0l1.15-.11h0l1.15-.11h0l1.15-.11h0l1.15-.11h0l1.15-.11h0l1.15-.11h0l1.15-.11h0l1.15-.11h0l1.15-.11h0l1.15-.11h0l1.15-.11h0l1.15-.11h0l1.15-.11h0l1.15-.11h0l1.15-.11h0l1.15-.11h0l1.15-.11h0l1.15-.11h0l1.15-.11h0l1.15-.11h0l1.15-.11h0l1.15-.11h0l1.15-.11h0l1.15-.11h0l1.15-.11h0l1.15-.11h0l1.15-.11h0l1.15-.1h0l1.15-.1h0l1.15-.1h0l1.15-.1h0l1.15-.1h0l1.15-.1h0l1.15-.1h0l1.15-.1h0l1.15-.1h0l1.15-.1h0l1.15-.1h0l1.15-.1h0l1.15-.1h0l1.15-.1h0l1.15-.1h0l1.15-.1h0l1.15-.1h0l1.15-.1h0l1.15-.1h0l1.15-.1h0l1.15-.1h0l1.15-.1h0l1.15-.1h0l1.15-.1h0l1.15-.1h0l1.15-.1h0l1.15-.1h0l1.15-.1h0l1.15-.1h0l1.15-.1h0l1.15-.1h0l1.15-.1h0l1.15-.1h0l1.15-.1h0l1.15-.1h0l1.15-.1h0l1.15-.1h0l1.15-.1h0l1.15-.1h0l1.15-.1h0l1.15-.1h0l1.15-.1h0l1.15-.1h0l1.15-.1h0l1.15-.1h0l1.15-.1h0l1.15-.1h0l1.15-.1h0l1.15-.1h0l1.15-.1h0l1.15-.1h0l1.15-.1h0l1.15-.1h0l1.15-.1h0l1.15-.1h0l1.15-.1h0l1.15-.1h0l1.15-.1h0l1.15-.1h0l1.15-.1h0l1.15-.1h0l1.15-.1h0l1.15-.1h0l1.15-.1h0l1.15-.1h0l1.15-.1h0l1.15-.1h0l1.15-.1h0l1.15-.1h0l1.15-.1h0l1.15-.1h0l1.15-.1h0l1.15-.1h0l1.15-.1h0l1.15-.1h0l1.15-.1h0l1.15-.1h0l1.15-.1h0l1.15-.1h0l1.15-.1h0l1.15-.1h0l1.15-.1h0l1.15-.1h0l1.15-.1h0l1.15-.1h0l1.15-.1h0l1.15-.1h0l1.15-.1h0l1.15-.09h0l1.15-.09h0l1.15-.09h0l1.15-.09h0l1.15-.09h0l1.15-.09h0l1.15-.09h0l1.15-.09h0l1.15-.09h0l1.15-.09h0l1.15-.09h0l1.15-.09h0l1.15-.09h0l1.15-.09h0l1.15-.09h0l1.15-.09h0l1.15-.09h0l1.15-.09h0l1.15-.09h0l1.15-.09h0l1.15-.09h0l1.15-.09h0l1.15-.09h0l1.15-.09h0l1.15-.09h0l1.15-.09h0l1.15-.09h0l1.15-.09h0l1.15-.09h0l1.15-.09h0l1.15-.09h0l1.15-.09h0l1.15-.09h0l1.15-.09h0l1.15-.09h0l1.15-.09h0l1.15-.09h0l1.15-.09h0l1.15-.09h0l1.15-.09h0l1.15-.09h0l1.15-.09h0l1.15-.09h0l1.15-.09h0l1.15-.09h0l1.15-.09h0l1.15-.09h0l1.15-.09h0l1.15-.09h0l1.15-.09h0l1.15-.09h0l1.15-.09h0l1.15-.09h0l1.15-.09h0l1.15-.09h0l1.15-.09h0l1.15-.09h0l1.15-.09h0l1.15-.09h0l1.15-.09h0l1.15-.09h0l1.15-.09h0l1.15-.09h0l1.15-.09h0l1.15-.09h0l1.15-.09h0l1.15-.09h0l1.15-.09h0l1.15-.09h0l1.15-.09h0l1.15-.09h0l1.15-.09h0l1.15-.09h0l1.15-.09h0l1.15-.09h0l1.15-.09h0l1.15-.09h0l1.15-.09h0l1.15-.09h0l1.15-.09h0l1.15-.09h0l1.15-.09h0l1.15-.09h0l1.15-.09h0l1.15-.09h0l1.15-.09h0l1.15-.09h0l1.15-.09h0l1.15-.09h0l1.15-.09h0l1.15-.09h0l1.15-.09h0l1.15-.09h0l1.15-.09h0l1.15-.09h0l1.15-.09h0l1.15-.09h0l1.15-.09h0l1.15-.09h0l1.15-.09h0l1.15-.09h0l1.15-.09h0l1.15-.09h0l1.15-.09h0l1.15-.09h0l1.15-.09h0l1.15-.09h0l1.15-.09h0l1.15-.09h0l1.15-.09h0l1.15-.09"/>
        </g>
      </g>
    </g>
  </g>
  <g id="uuid-f1a4a330-8b7d-48ab-a8c9-fcaf8d4aa867" data-name="Marco">
    <path class="uuid-1b46b1a8-cf71-401e-bc29-16f5de0a8e43" d="m0-2V1022h1680V-2H0Zm1663,987c0,11.05-8.95,20-20,20H37c-11.05,0-20-8.95-20-20V35c0-11.05,8.95-20,20-20h1606c11.05,0,20,8.95,20,20v950Z"/>
  </g>
  <g id="uuid-d1d7ee29-76af-45b8-b5e3-64f534fcee5b" data-name="Texto">
    <g>
      <path class="uuid-7ebc88ea-5ad7-455a-bc1f-bc247746a17c" d="m504.99,335.46c-.6,2.83-1.52,4.93-2.75,6.32-1.24,1.39-2.79,2.08-4.67,2.08-.55,0-.98-.03-1.29-.1l.33-1.72c.13.04.44.06.92.06.59,0,1.09-.15,1.5-.45.42-.3.8-.82,1.16-1.56.36-.74.69-1.77.99-3.09l4.2-18.57h-3.3l.29-1.35c.87-.05,1.5-.12,1.88-.21.38-.09.68-.23.9-.41s.4-.42.55-.71c.15-.29.34-.83.58-1.61.69-2.34,1.75-4.1,3.19-5.28,1.44-1.18,3.27-1.77,5.5-1.77,1.28,0,2.38.1,3.3.31l-.76,3.32h-1.72c-.18-.74-.42-1.28-.71-1.6s-.73-.49-1.3-.49c-.74,0-1.37.21-1.88.62-.51.41-.95,1.02-1.32,1.83-.36.81-.7,1.89-1.02,3.26l-.49,2.13h5.02l-.43,1.97h-5.04l-3.63,17.03Z"/>
      <path class="uuid-7ebc88ea-5ad7-455a-bc1f-bc247746a17c" d="m526.33,324.56c0,4.8.72,8.68,2.15,11.63,1.43,2.95,3.57,4.83,6.41,5.63l-.31,1.89c-4.19-.82-7.34-2.87-9.44-6.16-2.1-3.29-3.15-7.56-3.15-12.8,0-5.59,1.05-10.02,3.15-13.31,2.1-3.29,5.25-5.22,9.44-5.81l.31,1.89c-2.84.57-4.97,2.33-6.41,5.28-1.43,2.95-2.15,6.87-2.15,11.75Z"/>
      <path class="uuid-7ebc88ea-5ad7-455a-bc1f-bc247746a17c" d="m545.18,326.3c-.2-1.03-.4-2.02-.61-2.97-.21-.95-.42-1.84-.64-2.66-.22-.82-.4-1.36-.55-1.61-.14-.25-.3-.43-.46-.53-.16-.1-.37-.15-.62-.15-.27,0-.52.06-.74.19-.22.12-.46.34-.72.64-.26.31-.61.78-1.04,1.44l-1.27-.84c.82-1.24,1.61-2.16,2.36-2.77.75-.61,1.65-.92,2.68-.92.4,0,.76.05,1.06.14.31.09.58.23.81.42s.44.43.62.73c.18.3.36.71.53,1.22.17.51.33,1.15.48,1.91.15.76.28,1.55.4,2.37h.2c1.25-1.76,2.2-3.04,2.84-3.86s1.19-1.42,1.63-1.82c.44-.4.87-.68,1.28-.84s.95-.24,1.63-.24c.61,0,1.11.08,1.5.23l-.78,3.54h-1.37c-.08-.55-.31-.82-.68-.82-.12,0-.24.02-.37.06-.13.04-.29.12-.48.25-.19.13-.47.38-.83.76-.36.38-.77.84-1.23,1.39-.46.55-.92,1.12-1.41,1.72l-1.33,1.66c.23,1.25.46,2.33.66,3.24.21.91.39,1.67.56,2.28.16.61.31,1.08.43,1.44.12.35.26.62.4.79.14.18.29.3.44.37.15.07.32.11.52.11.35,0,.69-.14,1.03-.41s.81-.89,1.44-1.86l1.27.84c-.91,1.35-1.74,2.31-2.47,2.86-.74.55-1.61.83-2.63.83-.56,0-1.04-.1-1.43-.3s-.73-.52-1.02-.97c-.29-.44-.54-1.13-.76-2.07-.4-1.67-.65-2.94-.74-3.83h-.2c-1.38,1.94-2.41,3.33-3.08,4.18-.67.85-1.22,1.47-1.66,1.88-.44.4-.86.69-1.27.85s-.95.24-1.63.24c-.61,0-1.11-.08-1.5-.23l.78-3.54h1.37c.08.55.31.82.68.82.18,0,.37-.05.58-.15.2-.1.49-.33.87-.7.38-.37.9-.95,1.56-1.75s1.63-1.99,2.89-3.57Z"/>
      <path class="uuid-7ebc88ea-5ad7-455a-bc1f-bc247746a17c" d="m566.69,324.56c0-4.88-.72-8.8-2.15-11.75-1.43-2.95-3.57-4.71-6.41-5.28l.31-1.89c4.19.59,7.34,2.52,9.44,5.81,2.1,3.29,3.15,7.72,3.15,13.31,0,5.25-1.05,9.51-3.15,12.8-2.1,3.29-5.25,5.34-9.44,6.16l-.31-1.89c2.84-.81,4.97-2.69,6.41-5.63,1.43-2.95,2.15-6.83,2.15-11.63Z"/>
      <path class="uuid-7ebc88ea-5ad7-455a-bc1f-bc247746a17c" d="m586.18,320.95v-2.6h24.06v2.6h-24.06Zm0,8.11v-2.6h24.06v2.6h-24.06Z"/>
      <path class="uuid-7ebc88ea-5ad7-455a-bc1f-bc247746a17c" d="m624.4,306.36v-2.7c2.1-.86,4-1.29,5.72-1.29.91,0,1.75.12,2.53.37s1.4.64,1.87,1.17.7,1.2.7,2.01c0,.7-.16,1.31-.48,1.83s-.75.96-1.31,1.34-1.27.75-2.14,1.11v.2c1.29.21,2.32.67,3.11,1.4s1.17,1.6,1.17,2.63c0,.91-.24,1.73-.71,2.44s-1.2,1.28-2.17,1.7-2.15.62-3.54.62c-.89,0-1.75-.08-2.6-.23s-1.63-.37-2.34-.64v-2.85h1.78c.27.83.67,1.44,1.18,1.82s1.2.57,2.06.57c1.13,0,1.99-.26,2.57-.78s.87-1.3.87-2.32c0-1.09-.38-1.93-1.15-2.5s-1.91-.86-3.44-.86h-1.17v-1.39c1.22-.04,2.25-.22,3.07-.56s1.42-.76,1.79-1.29.56-1.13.56-1.81c0-.79-.24-1.42-.72-1.88s-1.18-.68-2.09-.68c-.79,0-1.47.21-2.03.64s-.99,1.07-1.29,1.91l-1.78.02Z"/>
      <path class="uuid-7ebc88ea-5ad7-455a-bc1f-bc247746a17c" d="m645.34,325.95l6.76,15.08,11.86-44.43h5.47v2.6h-3.91l-12.7,47.07h-1.89l-8.09-17.38-3.3,1.46-.61-1.46,6.41-2.93Z"/>
      <path class="uuid-7ebc88ea-5ad7-455a-bc1f-bc247746a17c" d="m677.27,326.3c-.2-1.03-.4-2.02-.61-2.97s-.42-1.84-.64-2.66-.4-1.36-.55-1.61-.3-.43-.46-.53-.37-.15-.62-.15c-.27,0-.52.06-.74.19s-.46.34-.72.64-.61.78-1.04,1.44l-1.27-.84c.82-1.24,1.61-2.16,2.36-2.77s1.65-.92,2.68-.92c.4,0,.76.05,1.06.14s.58.23.81.42.44.43.62.73.36.71.53,1.22.33,1.15.48,1.91.28,1.55.4,2.37h.2c1.25-1.76,2.2-3.04,2.84-3.86s1.19-1.42,1.63-1.82.87-.68,1.28-.84.95-.24,1.63-.24c.61,0,1.11.08,1.5.23l-.78,3.54h-1.37c-.08-.55-.31-.82-.68-.82-.12,0-.24.02-.37.06s-.29.12-.48.25-.47.38-.83.76-.77.84-1.23,1.39-.92,1.12-1.41,1.72l-1.33,1.66c.23,1.25.46,2.33.66,3.24s.39,1.67.56,2.28.31,1.08.43,1.44.26.62.4.79.29.3.44.37.32.11.52.11c.35,0,.69-.14,1.03-.41s.81-.89,1.44-1.86l1.27.84c-.91,1.35-1.74,2.31-2.47,2.86s-1.61.83-2.63.83c-.56,0-1.04-.1-1.43-.3s-.73-.52-1.02-.97-.54-1.13-.76-2.07c-.4-1.67-.65-2.94-.74-3.83h-.2c-1.38,1.94-2.41,3.33-3.08,4.18s-1.22,1.47-1.66,1.88-.86.69-1.27.85-.95.24-1.63.24c-.61,0-1.11-.08-1.5-.23l.78-3.54h1.37c.08.55.31.82.68.82.18,0,.37-.05.58-.15s.49-.33.87-.7.9-.95,1.56-1.75,1.63-1.99,2.89-3.57Z"/>
    </g>
  </g>
</svg>