<?xml version="1.0" encoding="UTF-8"?>
<svg xmlns="http://www.w3.org/2000/svg" width="1680" height="1020" xmlns:xlink="http://www.w3.org/1999/xlink" viewBox="0 0 1680 1020">
  <defs>
    <style>
      .uuid-cb886a78-affa-4a9e-854d-8ea984578bbb {
        stroke: rgba(192, 192, 192, .24);
      }

      .uuid-cb886a78-affa-4a9e-854d-8ea984578bbb, .uuid-04beec24-21c2-4926-86e9-024f82684c96, .uuid-efba8bfb-da40-47a3-a4aa-af7c9bfe941c, .uuid-adc81c90-344a-4a06-b1a4-30dabd2f6bbf, .uuid-c3f2e8a7-4496-40fb-b578-84f3aca22100, .uuid-8b7cc2f2-2786-49de-b461-9fec796aecd3, .uuid-58e05062-e7b3-4d61-b9b3-83c53b08b7a2, .uuid-e7aed80d-6bc6-4d0c-958f-0959b4b25be4, .uuid-d9635a43-0e83-4a47-a14c-db3d53f0dbff, .uuid-f10f904e-8ebc-4469-9f01-557477b7c81d, .uuid-d5418345-e42d-4c5b-8039-687edf58515e, .uuid-cab33b02-8922-4f60-9580-36d599c3d683, .uuid-8a4998d2-8d22-4a26-bb4e-1443b71d2289, .uuid-e6fc960b-4115-4fcc-bc30-d1baef548071 {
        fill: none;
      }

      .uuid-cb886a78-affa-4a9e-854d-8ea984578bbb, .uuid-efba8bfb-da40-47a3-a4aa-af7c9bfe941c, .uuid-58e05062-e7b3-4d61-b9b3-83c53b08b7a2, .uuid-e6fc960b-4115-4fcc-bc30-d1baef548071 {
        stroke-linejoin: round;
      }

      .uuid-cb886a78-affa-4a9e-854d-8ea984578bbb, .uuid-58e05062-e7b3-4d61-b9b3-83c53b08b7a2 {
        stroke-dasharray: 0 0 1.15 3.44;
        stroke-width: 1.15px;
      }

      .uuid-b136e5a6-f2aa-4541-a90b-e892df10bbd9 {
        fill: #fff;
      }

      .uuid-04beec24-21c2-4926-86e9-024f82684c96 {
        clip-path: url(#uuid-d240a7d4-38d2-4cb6-b38f-260e2f00ab3c);
      }

      .uuid-efba8bfb-da40-47a3-a4aa-af7c9bfe941c {
        stroke: rgba(255, 85, 0, .7);
      }

      .uuid-efba8bfb-da40-47a3-a4aa-af7c9bfe941c, .uuid-e6fc960b-4115-4fcc-bc30-d1baef548071 {
        stroke-linecap: round;
        stroke-width: 4.59px;
      }

      .uuid-adc81c90-344a-4a06-b1a4-30dabd2f6bbf {
        stroke: #606060;
        stroke-miterlimit: 10;
        stroke-width: 2.29px;
      }

      .uuid-c3f2e8a7-4496-40fb-b578-84f3aca22100 {
        clip-path: url(#uuid-995b66c9-8bcd-4335-8105-98849d91072a);
      }

      .uuid-8b7cc2f2-2786-49de-b461-9fec796aecd3 {
        clip-path: url(#uuid-ad40854f-faf0-4046-85b4-05fd677d2f3e);
      }

      .uuid-58e05062-e7b3-4d61-b9b3-83c53b08b7a2 {
        stroke: silver;
      }

      .uuid-e7aed80d-6bc6-4d0c-958f-0959b4b25be4 {
        stroke: #fff;
        stroke-linejoin: bevel;
        stroke-width: 3.44px;
      }

      .uuid-d9635a43-0e83-4a47-a14c-db3d53f0dbff {
        isolation: isolate;
      }

      .uuid-260f8649-3f52-4ac2-8552-97ab255993df {
        fill: #00699b;
      }

      .uuid-f10f904e-8ebc-4469-9f01-557477b7c81d {
        clip-path: url(#uuid-02cec86e-7374-4342-9e5e-c31cecfdd48b);
      }

      .uuid-cab33b02-8922-4f60-9580-36d599c3d683 {
        clip-path: url(#uuid-35568499-1ad0-4a8b-a3a6-801757dd4106);
      }

      .uuid-231c5d91-4a6e-4a4f-8792-cf3679c74355, .uuid-eaac837e-48ca-489c-9676-aff670571b58 {
        fill: #606060;
      }

      .uuid-eaac837e-48ca-489c-9676-aff670571b58 {
        fill-rule: evenodd;
      }

      .uuid-8a4998d2-8d22-4a26-bb4e-1443b71d2289 {
        clip-path: url(#uuid-ec460db5-0c72-424c-a79a-15f10e0eaa96);
      }

      .uuid-e6fc960b-4115-4fcc-bc30-d1baef548071 {
        stroke: rgba(0, 0, 255, .7);
      }
    </style>
    <clipPath id="uuid-995b66c9-8bcd-4335-8105-98849d91072a">
      <rect class="uuid-d5418345-e42d-4c5b-8039-687edf58515e" x="-1527.65" y="1855.83" width="1680" height="1019.39"/>
    </clipPath>
    <clipPath id="uuid-ad40854f-faf0-4046-85b4-05fd677d2f3e">
      <rect class="uuid-d5418345-e42d-4c5b-8039-687edf58515e" x="-1530.65" y="1843.08" width="1686" height="1040.27"/>
    </clipPath>
    <clipPath id="uuid-ec460db5-0c72-424c-a79a-15f10e0eaa96">
      <rect class="uuid-d5418345-e42d-4c5b-8039-687edf58515e" y="2.61" width="1680" height="1019.39"/>
    </clipPath>
    <clipPath id="uuid-d240a7d4-38d2-4cb6-b38f-260e2f00ab3c">
      <rect class="uuid-d5418345-e42d-4c5b-8039-687edf58515e" x="-3" y="-10.14" width="1686" height="1040.27"/>
    </clipPath>
    <clipPath id="uuid-02cec86e-7374-4342-9e5e-c31cecfdd48b">
      <rect class="uuid-d5418345-e42d-4c5b-8039-687edf58515e" y="-1775.48" width="1680" height="1019.39"/>
    </clipPath>
    <clipPath id="uuid-35568499-1ad0-4a8b-a3a6-801757dd4106">
      <rect class="uuid-d5418345-e42d-4c5b-8039-687edf58515e" x="-3" y="-1788.22" width="1686" height="1040.27"/>
    </clipPath>
  </defs>
  <g id="uuid-2fa4efe6-cd02-42ff-9cc4-7d926a7f3284" data-name="Grafica">
    <g class="uuid-c3f2e8a7-4496-40fb-b578-84f3aca22100">
      <g class="uuid-8b7cc2f2-2786-49de-b461-9fec796aecd3">
        <path class="uuid-efba8bfb-da40-47a3-a4aa-af7c9bfe941c" d="m-1529.51,433.59v9.86h0l1.15,9.84h0l1.15,9.81h0l1.15,9.78h0l1.15,9.75h0l1.15,9.73h0l1.15,9.7h0l1.15,9.67h0l1.15,9.65h0l1.15,9.62h0l1.15,9.59h0l1.15,9.57h0l1.15,9.54h0l1.15,9.52h0l1.15,9.49h0l1.15,9.46h0l1.15,9.44h0l1.15,9.41h0l1.15,9.38h0l1.15,9.36h0l1.15,9.33h0l1.15,9.3h0l1.15,9.28h0l1.15,9.25h0l1.15,9.23h0l1.15,9.2h0l1.15,9.17h0l1.15,9.15h0l1.15,9.12h0l1.15,9.1h0l1.15,9.07h0l1.15,9.05h0l1.15,9.02h0l1.15,8.99h0l1.15,8.97h0l1.15,8.94h0l1.15,8.92h0l1.15,8.89h0l1.15,8.87h0l1.15,8.84h0l1.15,8.81h0l1.15,8.79h0l1.15,8.76h0l1.15,8.74h0l1.15,8.71h0l1.15,8.69h0l1.15,8.66h0l1.15,8.64h0l1.15,8.61h0l1.15,8.59h0l1.15,8.56h0l1.15,8.54h0l1.15,8.51h0l1.15,8.49h0l1.15,8.46h0l1.15,8.44h0l1.15,8.41h0l1.15,8.39h0l1.15,8.36h0l1.15,8.34h0l1.15,8.31h0l1.15,8.29h0l1.15,8.26h0l1.15,8.24h0l1.15,8.21h0l1.15,8.19h0l1.15,8.16h0l1.15,8.14h0l1.15,8.12h0l1.15,8.09h0l1.15,8.07h0l1.15,8.04h0l1.15,8.02h0l1.15,7.99h0l1.15,7.97h0l1.15,7.95h0l1.15,7.92h0l1.15,7.9h0l1.15,7.87h0l1.15,7.85h0l1.15,7.83h0l1.15,7.8h0l1.15,7.78h0l1.15,7.75h0l1.15,7.73h0l1.15,7.71h0l1.15,7.68h0l1.15,7.66h0l1.15,7.63h0l1.15,7.61h0l1.15,7.59h0l1.15,7.56h0l1.15,7.54h0l1.15,7.52h0l1.15,7.49h0l1.15,7.47h0l1.15,7.45h0l1.15,7.42h0l1.15,7.4h0l1.15,7.38h0l1.15,7.35h0l1.15,7.33h0l1.15,7.31h0l1.15,7.28h0l1.15,7.26h0l1.15,7.24h0l1.15,7.21h0l1.15,7.19h0l1.15,7.17h0l1.15,7.15h0l1.15,7.12h0l1.15,7.1h0l1.15,7.08h0l1.15,7.05h0l1.15,7.03h0l1.15,7.01h0l1.15,6.99h0l1.15,6.96h0l1.15,6.94h0l1.15,6.92h0l1.15,6.9h0l1.15,6.87h0l1.15,6.85h0l1.15,6.83h0l1.15,6.81h0l1.15,6.78h0l1.15,6.76h0l1.15,6.74h0l1.15,6.72h0l1.15,6.69h0l1.15,6.67h0l1.15,6.65h0l1.15,6.63h0l1.15,6.61h0l1.15,6.58h0l1.15,6.56h0l1.15,6.54h0l1.15,6.52h0l1.15,6.5h0l1.15,6.47h0l1.15,6.45h0l1.15,6.43h0l1.15,6.41h0l1.15,6.39h0l1.15,6.37h0l1.15,6.34h0l1.15,6.32h0l1.15,6.3h0l1.15,6.28h0l1.15,6.26h0l1.15,6.24h0l1.15,6.21h0l1.15,6.19h0l1.15,6.17h0l1.15,6.15h0l1.15,6.13h0l1.15,6.11h0l1.15,6.09h0l1.15,6.07h0l1.15,6.05h0l1.15,6.02h0l1.15,6h0l1.15,5.98h0l1.15,5.96h0l1.15,5.94h0l1.15,5.92h0l1.15,5.9h0l1.15,5.88h0l1.15,5.86h0l1.15,5.84h0l1.15,5.82h0l1.15,5.79h0l1.15,5.77h0l1.15,5.75h0l1.15,5.73h0l1.15,5.71h0l1.15,5.69h0l1.15,5.67h0l1.15,5.65h0l1.15,5.63h0l1.15,5.61h0l1.15,5.59h0l1.15,5.57h0l1.15,5.55h0l1.15,5.53h0l1.15,5.51h0l1.15,5.49h0l1.15,5.47h0l1.15,5.45h0l1.15,5.43h0l1.15,5.41h0l1.15,5.39h0l1.15,5.37h0l1.15,5.35h0l1.15,5.33h0l1.15,5.31h0l1.15,5.29h0l1.15,5.27h0l1.15,5.25h0l1.15,5.23h0l1.15,5.21h0l1.15,5.19h0l1.15,5.17h0l1.15,5.15h0l1.15,5.13h0l1.15,5.11h0l1.15,5.09h0l1.15,5.08h0l1.15,5.06h0l1.15,5.04h0l1.15,5.02h0l1.15,5h0l1.15,4.98h0l1.15,4.96h0l1.15,4.94h0l1.15,4.92h0l1.15,4.9h0l1.15,4.88h0l1.15,4.86h0l1.15,4.85h0l1.15,4.83h0l1.15,4.81h0l1.15,4.79h0l1.15,4.77h0l1.15,4.75h0l1.15,4.73h0l1.15,4.71h0l1.15,4.7h0l1.15,4.68h0l1.15,4.66h0l1.15,4.64h0l1.15,4.62h0l1.15,4.6h0l1.15,4.59h0l1.15,4.57h0l1.15,4.55h0l1.15,4.53h0l1.15,4.51h0l1.15,4.49h0l1.15,4.48h0l1.15,4.46h0l1.15,4.44h0l1.15,4.42h0l1.15,4.4h0l1.15,4.39h0l1.15,4.37h0l1.15,4.35h0l1.15,4.33h0l1.15,4.31h0l1.15,4.3h0l1.15,4.28h0l1.15,4.26h0l1.15,4.24h0l1.15,4.23h0l1.15,4.21h0l1.15,4.19h0l1.15,4.17h0l1.15,4.16h0l1.15,4.14h0l1.15,4.12h0l1.15,4.1h0l1.15,4.09h0l1.15,4.07h0l1.15,4.05h0l1.15,4.03h0l1.15,4.02h0l1.15,4h0l1.15,3.98h0l1.15,3.97h0l1.15,3.95h0l1.15,3.93h0l1.15,3.91h0l1.15,3.9h0l1.15,3.88h0l1.15,3.86h0l1.15,3.85h0l1.15,3.83h0l1.15,3.81h0l1.15,3.8h0l1.15,3.78h0l1.15,3.76h0l1.15,3.75h0l1.15,3.73h0l1.15,3.71h0l1.15,3.7h0l1.15,3.68h0l1.15,3.66h0l1.15,3.65h0l1.15,3.63h0l1.15,3.61h0l1.15,3.6h0l1.15,3.58h0l1.15,3.57h0l1.15,3.55h0l1.15,3.53h0l1.15,3.52h0l1.15,3.5h0l1.15,3.49h0l1.15,3.47h0l1.15,3.45h0l1.15,3.44h0l1.15,3.42h0l1.15,3.41h0l1.15,3.39h0l1.15,3.37h0l1.15,3.36h0l1.15,3.34h0l1.15,3.33h0l1.15,3.31h0l1.15,3.3h0l1.15,3.28h0l1.15,3.26h0l1.15,3.25h0l1.15,3.23h0l1.15,3.22h0l1.15,3.2h0l1.15,3.19h0l1.15,3.17h0l1.15,3.16h0l1.15,3.14h0l1.15,3.13h0l1.15,3.11h0l1.15,3.1h0l1.15,3.08h0l1.15,3.07h0l1.15,3.05h0l1.15,3.04h0l1.15,3.02h0l1.15,3.01h0l1.15,2.99h0l1.15,2.98h0l1.15,2.96h0l1.15,2.95h0l1.15,2.93h0l1.15,2.92h0l1.15,2.9h0l1.15,2.89h0l1.15,2.87h0l1.15,2.86h0l1.15,2.85h0l1.15,2.83h0l1.15,2.82h0l1.15,2.8h0l1.15,2.79h0l1.15,2.77h0l1.15,2.76h0l1.15,2.75h0l1.15,2.73h0l1.15,2.72h0l1.15,2.7h0l1.15,2.69h0l1.15,2.67h0l1.15,2.66h0l1.15,2.65h0l1.15,2.63h0l1.15,2.62h0l1.15,2.6h0l1.15,2.59h0l1.15,2.58h0l1.15,2.56h0l1.15,2.55h0l1.15,2.54h0l1.15,2.52h0l1.15,2.51h0l1.15,2.5h0l1.15,2.48h0l1.15,2.47h0l1.15,2.45h0l1.15,2.44h0l1.15,2.43h0l1.15,2.41h0l1.15,2.4h0l1.15,2.39h0l1.15,2.37h0l1.15,2.36h0l1.15,2.35h0l1.15,2.34h0l1.15,2.32h0l1.15,2.31h0l1.15,2.3h0l1.15,2.28h0l1.15,2.27h0l1.15,2.26h0l1.15,2.24h0l1.15,2.23h0l1.15,2.22h0l1.15,2.21h0l1.15,2.19h0l1.15,2.18h0l1.15,2.17h0l1.15,2.16h0l1.15,2.14h0l1.15,2.13h0l1.15,2.12h0l1.15,2.11h0l1.15,2.09h0l1.15,2.08h0l1.15,2.07h0l1.15,2.06h0l1.15,2.04h0l1.15,2.03h0l1.15,2.02h0l1.15,2.01h0l1.15,1.99h0l1.15,1.98h0l1.15,1.97h0l1.15,1.96h0l1.15,1.95h0l1.15,1.93h0l1.15,1.92h0l1.15,1.91h0l1.15,1.9h0l1.15,1.89h0l1.15,1.88h0l1.15,1.86h0l1.15,1.85h0l1.15,1.84h0l1.15,1.83h0l1.15,1.82h0l1.15,1.81h0l1.15,1.79h0l1.15,1.78h0l1.15,1.77h0l1.15,1.76h0l1.15,1.75h0l1.15,1.74h0l1.15,1.73v-1.71l1.15,1.71v-1.71l1.15-1.7h0l1.15-1.69h0l1.15-1.68h0l1.15-1.67h0l1.15-1.66h0l1.15-1.65h0l1.15-1.64h0l1.15-1.63h0l1.15-1.62h0l1.15-1.6h0l1.15-1.59h0l1.15-1.58h0l1.15-1.57h0l1.15-1.56h0l1.15-1.55h0l1.15-1.54h0l1.15-1.53h0l1.15-1.52h0l1.15-1.51h0l1.15-1.5h0l1.15-1.49h0l1.15-1.48h0l1.15-1.47h0l1.15-1.46h0l1.15-1.45h0l1.15-1.44h0l1.15-1.42h0l1.15-1.41h0l1.15-1.4h0l1.15-1.39h0l1.15-1.38h0l1.15-1.37h0l1.15-1.36h0l1.15-1.35h0l1.15-1.34h0l1.15-1.33h0l1.15-1.32h0l1.15-1.31h0l1.15-1.3h0l1.15-1.29h0l1.15-1.29h0l1.15-1.28h0l1.15-1.27h0l1.15-1.26h0l1.15-1.25h0l1.15-1.24h0l1.15-1.23h0l1.15-1.22h0l1.15-1.21h0l1.15-1.2h0l1.15-1.19h0l1.15-1.18h0l1.15-1.17h0l1.15-1.16h0l1.15-1.15h0l1.15-1.14h0l1.15-1.13h0l1.15-1.13h0l1.15-1.12h0l1.15-1.11h0l1.15-1.1h0l1.15-1.09h0l1.15-1.08h0l1.15-1.07h0l1.15-1.06h0l1.15-1.05h0l1.15-1.04h0l1.15-1.04h0l1.15-1.03h0l1.15-1.02h0l1.15-1.01h0l1.15-1h0l1.15-.99h0l1.15-.98h0l1.15-.98h0l1.15-.97h0l1.15-.96h0l1.15-.95h0l1.15-.94h0l1.15-.93h0l1.15-.93h0l1.15-.92h0l1.15-.91h0l1.15-.9h0l1.15-.89h0l1.15-.88h0l1.15-.88h0l1.15-.87h0l1.15-.86h0l1.15-.85h0l1.15-.85h0l1.15-.84h0l1.15-.83h0l1.15-.82h0l1.15-.81h0l1.15-.81h0l1.15-.8h0l1.15-.79h0l1.15-.78h0l1.15-.78h0l1.15-.77h0l1.15-.76h0l1.15-.75h0l1.15-.75h0l1.15-.74h0l1.15-.73h0l1.15-.72h0l1.15-.72h0l1.15-.71h0l1.15-.7h0l1.15-.69h0l1.15-.69h0l1.15-.68h0l1.15-.67h0l1.15-.67h0l1.15-.66h0l1.15-.65h0l1.15-.65h0l1.15-.64h0l1.15-.63h0l1.15-.63h0l1.15-.62h0l1.15-.61h0l1.15-.61h0l1.15-.6h0l1.15-.59h0l1.15-.59h0l1.15-.58h0l1.15-.57h0l1.15-.57h0l1.15-.56h0l1.15-.55h0l1.15-.55h0l1.15-.54h0l1.15-.53h0l1.15-.53h0l1.15-.52h0l1.15-.52h0l1.15-.51h0l1.15-.5h0l1.15-.5h0l1.15-.49h0l1.15-.48h0l1.15-.48h0l1.15-.47h0l1.15-.47h0l1.15-.46h0l1.15-.46h0l1.15-.45h0l1.15-.44h0l1.15-.44h0l1.15-.43h0l1.15-.43h0l1.15-.42h0l1.15-.42h0l1.15-.41h0l1.15-.4h0l1.15-.4h0l1.15-.39h0l1.15-.39h0l1.15-.38h0l1.15-.38h0l1.15-.37h0l1.15-.37h0l1.15-.36h0l1.15-.36h0l1.15-.35h0l1.15-.35h0l1.15-.34h0l1.15-.34h0l1.15-.33h0l1.15-.33h0l1.15-.32h0l1.15-.32h0l1.15-.31h0l1.15-.31h0l1.15-.3h0l1.15-.3h0l1.15-.29h0l1.15-.29h0l1.15-.28h0l1.15-.28h0l1.15-.28h0l1.15-.27h0l1.15-.27h0l1.15-.26h0l1.15-.26h0l1.15-.25h0l1.15-.25h0l1.15-.24h0l1.15-.24h0l1.15-.24h0l1.15-.23h0l1.15-.23h0l1.15-.22h0l1.15-.22h0l1.15-.22h0l1.15-.21h0l1.15-.21h0l1.15-.2h0l1.15-.2h0l1.15-.2h0l1.15-.19h0l1.15-.19h0l1.15-.19h0l1.15-.18h0l1.15-.18h0l1.15-.17h0l1.15-.17h0l1.15-.17h0l1.15-.16h0l1.15-.16h0l1.15-.16h0l1.15-.15h0l1.15-.15h0l1.15-.15h0l1.15-.14h0l1.15-.14h0l1.15-.14h0l1.15-.13h0l1.15-.13h0l1.15-.13h0l1.15-.12h0l1.15-.12h0l1.15-.12h0l1.15-.12h0l1.15-.11h0l1.15-.11h0l1.15-.11h0l1.15-.1h0l1.15-.1h0l1.15-.1h0l1.15-.1h0l1.15-.09h0l1.15-.09h0l1.15-.09h0l1.15-.09h0l1.15-.08h0l1.15-.08h0l1.15-.08h0l1.15-.08h0l1.15-.07h0l1.15-.07h0l1.15-.07h0l1.15-.07h0l1.15-.06h0l1.15-.06h0l1.15-.06h0l1.15-.06h0l1.15-.06h0l1.15-.05h0l1.15-.05h0l1.15-.05h0l1.15-.05h0l1.15-.05h0l1.15-.04h0l1.15-.04h0l1.15-.04h0l1.15-.04h0l1.15-.04h0l1.15-.04h0l1.15-.03h0l1.15-.03h0l1.15-.03h0l1.15-.03h0l1.15-.03h0l1.15-.03h0l1.15-.03h0l1.15-.02h0l1.15-.02h0l1.15-.02h0l1.15-.02h0l1.15-.02h0l1.15-.02h0l1.15-.02h0l1.15-.02h1.15s1.15-.03,1.15-.03h1.15s1.15-.02,1.15-.02h1.15s1.15-.02,1.15-.02h1.15s1.15-.02,1.15-.02h1.15s1.15-.01,1.15-.01h1.15s1.15-.01,1.15-.01h1.15s1.15,0,1.15,0h1.15s1.15,0,1.15,0h1.15s1.15,0,1.15,0h1.15s1.15,0,1.15,0h1.15s1.15,0,1.15,0h1.15s1.15,0,1.15,0h1.15s1.15,0,1.15,0h1.15s1.15,0,1.15,0h3.44s1.15,0,1.15,0h1.15s1.15,0,1.15,0h1.15s1.15,0,1.15,0h1.15s1.15,0,1.15,0h1.15s1.15,0,1.15,0h1.15s1.15,0,1.15,0h1.15s1.15,0,1.15,0h1.15s1.15,0,1.15,0h1.15s1.15.01,1.15.01h1.15s1.15.01,1.15.01h1.15s1.15.02,1.15.02h1.15s1.15.02,1.15.02h1.15s1.15.03,1.15.03h1.15s1.15.03,1.15.03h0l1.15.02h0l1.15.02h0l1.15.02h0l1.15.02h0l1.15.02h0l1.15.02h0l1.15.02h0l1.15.02h0l1.15.03h0l1.15.03h0l1.15.03h0l1.15.03h0l1.15.03h0l1.15.03h0l1.15.04h0l1.15.04h0l1.15.04h0l1.15.04h0l1.15.04h0l1.15.04h0l1.15.05h0l1.15.05h0l1.15.05h0l1.15.05h0l1.15.05h0l1.15.05h0l1.15.06h0l1.15.06h0l1.15.06h0l1.15.06h0l1.15.07h0l1.15.07h0l1.15.07h0l1.15.07h0l1.15.07h0l1.15.08h0l1.15.08h0l1.15.08h0l1.15.08h0l1.15.09h0l1.15.09h0l1.15.09h0l1.15.09h0l1.15.1h0l1.15.1h0l1.15.1h0l1.15.11h0l1.15.11h0l1.15.11h0l1.15.11h0l1.15.12h0l1.15.12h0l1.15.12h0l1.15.13h0l1.15.13h0l1.15.13h0l1.15.13h0l1.15.14h0l1.15.14h0l1.15.14h0l1.15.15h0l1.15.15h0l1.15.15h0l1.15.16h0l1.15.16h0l1.15.16h0l1.15.17h0l1.15.17h0l1.15.18h0l1.15.18h0l1.15.18h0l1.15.19h0l1.15.19h0l1.15.19h0l1.15.2h0l1.15.2h0l1.15.21h0l1.15.21h0l1.15.21h0l1.15.22h0l1.15.22h0l1.15.22h0l1.15.23h0l1.15.23h0l1.15.24h0l1.15.24h0l1.15.25h0l1.15.25h0l1.15.25h0l1.15.26h0l1.15.26h0l1.15.27h0l1.15.27h0l1.15.28h0l1.15.28h0l1.15.29h0l1.15.29h0l1.15.29h0l1.15.3h0l1.15.3h0l1.15.31h0l1.15.31h0l1.15.32h0l1.15.32h0l1.15.33h0l1.15.33h0l1.15.34h0l1.15.34h0l1.15.35h0l1.15.35h0l1.15.36h0l1.15.36h0l1.15.37h0l1.15.37h0l1.15.38h0l1.15.38h0l1.15.39h0l1.15.4h0l1.15.4h0l1.15.41h0l1.15.41h0l1.15.42h0l1.15.42h0l1.15.43h0l1.15.43h0l1.15.44h0l1.15.45h0l1.15.45h0l1.15.46h0l1.15.46h0l1.15.47h0l1.15.47h0l1.15.48h0l1.15.49h0l1.15.49h0l1.15.5h0l1.15.5h0l1.15.51h0l1.15.52h0l1.15.52h0l1.15.53h0l1.15.54h0l1.15.54h0l1.15.55h0l1.15.55h0l1.15.56h0l1.15.57h0l1.15.57h0l1.15.58h0l1.15.59h0l1.15.59h0l1.15.6h0l1.15.61h0l1.15.61h0l1.15.62h0l1.15.63h0l1.15.63h0l1.15.64h0l1.15.65h0l1.15.65h0l1.15.66h0l1.15.67h0l1.15.68h0l1.15.68h0l1.15.69h0l1.15.7h0l1.15.7h0l1.15.71h0l1.15.72h0l1.15.73h0l1.15.73h0l1.15.74h0l1.15.75h0l1.15.75h0l1.15.76h0l1.15.77h0l1.15.78h0l1.15.78h0l1.15.79h0l1.15.8h0l1.15.81h0l1.15.82h0l1.15.82h0l1.15.83h0l1.15.84h0l1.15.85h0l1.15.85h0l1.15.86h0l1.15.87h0l1.15.88h0l1.15.89h0l1.15.89h0l1.15.9h0l1.15.91h0l1.15.92h0l1.15.93h0l1.15.94h0l1.15.94h0l1.15.95h0l1.15.96h0l1.15.97h0l1.15.98h0l1.15.99h0l1.15.99h0l1.15,1h0l1.15,1.01h0l1.15,1.02h0l1.15,1.03h0l1.15,1.04h0l1.15,1.05h0l1.15,1.06h0l1.15,1.06h0l1.15,1.07h0l1.15,1.08h0l1.15,1.09h0l1.15,1.1h0l1.15,1.11h0l1.15,1.12h0l1.15,1.13h0l1.15,1.14h0l1.15,1.15h0l1.15,1.15h0l1.15,1.16h0l1.15,1.17h0l1.15,1.18h0l1.15,1.19h0l1.15,1.2h0l1.15,1.21h0l1.15,1.22h0l1.15,1.23h0l1.15,1.24h0l1.15,1.25h0l1.15,1.26h0l1.15,1.27h0l1.15,1.28h0l1.15,1.29h0l1.15,1.3h0l1.15,1.31h0l1.15,1.32h0l1.15,1.33h0l1.15,1.34h0l1.15,1.35h0l1.15,1.36h0l1.15,1.37h0l1.15,1.38h0l1.15,1.39h0l1.15,1.4h0l1.15,1.41h0l1.15,1.42h0l1.15,1.43h0l1.15,1.44h0l1.15,1.45h0l1.15,1.46h0l1.15,1.47h0l1.15,1.48h0l1.15,1.49h0l1.15,1.5h0l1.15,1.51h0l1.15,1.52h0l1.15,1.53h0l1.15,1.54h0l1.15,1.55h0l1.15,1.56h0l1.15,1.57h0l1.15,1.58h0l1.15,1.6h0l1.15,1.61h0l1.15,1.62h0l1.15,1.63h0l1.15,1.64h0l1.15,1.65h0l1.15,1.66h0l1.15,1.67h0l1.15,1.68h0l1.15,1.69h0l1.15,1.71h0l1.15,1.36v-.36l1.15-1.73h0l1.15-1.74h0l1.15-1.75h0l1.15-1.76h0l1.15-1.77h0l1.15-1.79h0l1.15-1.8h0l1.15-1.81h0l1.15-1.82h0l1.15-1.83h0l1.15-1.84h0l1.15-1.85h0l1.15-1.87h0l1.15-1.88h0l1.15-1.89h0l1.15-1.9h0l1.15-1.91h0l1.15-1.93h0l1.15-1.94h0l1.15-1.95h0l1.15-1.96h0l1.15-1.97h0l1.15-1.99h0l1.15-2h0l1.15-2.01h0l1.15-2.02h0l1.15-2.03h0l1.15-2.05h0l1.15-2.06h0l1.15-2.07h0l1.15-2.08h0l1.15-2.1h0l1.15-2.11h0l1.15-2.12h0l1.15-2.13h0l1.15-2.15h0l1.15-2.16h0l1.15-2.17h0l1.15-2.18h0l1.15-2.2h0l1.15-2.21h0l1.15-2.22h0l1.15-2.23h0l1.15-2.25h0l1.15-2.26h0l1.15-2.27h0l1.15-2.29h0l1.15-2.3h0l1.15-2.31h0l1.15-2.32h0l1.15-2.34h0l1.15-2.35h0l1.15-2.36h0l1.15-2.38h0l1.15-2.39h0l1.15-2.4h0l1.15-2.42h0l1.15-2.43h0l1.15-2.44h0l1.15-2.46h0l1.15-2.47h0l1.15-2.48h0l1.15-2.5h0l1.15-2.51h0l1.15-2.53h0l1.15-2.54h0l1.15-2.55h0l1.15-2.57h0l1.15-2.58h0l1.15-2.59h0l1.15-2.61h0l1.15-2.62h0l1.15-2.64h0l1.15-2.65h0l1.15-2.66h0l1.15-2.68h0l1.15-2.69h0l1.15-2.71h0l1.15-2.72h0l1.15-2.73h0l1.15-2.75h0l1.15-2.76h0l1.15-2.78h0l1.15-2.79h0l1.15-2.81h0l1.15-2.82h0l1.15-2.83h0l1.15-2.85h0l1.15-2.86h0l1.15-2.88h0l1.15-2.89h0l1.15-2.91h0l1.15-2.92h0l1.15-2.94h0l1.15-2.95h0l1.15-2.97h0l1.15-2.98h0l1.15-3h0l1.15-3.01h0l1.15-3.02h0l1.15-3.04h0l1.15-3.05h0l1.15-3.07h0l1.15-3.08h0l1.15-3.1h0l1.15-3.11h0l1.15-3.13h0l1.15-3.15h0l1.15-3.16h0l1.15-3.18h0l1.15-3.19h0l1.15-3.21h0l1.15-3.22h0l1.15-3.24h0l1.15-3.25h0l1.15-3.27h0l1.15-3.28h0l1.15-3.3h0l1.15-3.31h0l1.15-3.33h0l1.15-3.35h0l1.15-3.36h0l1.15-3.38h0l1.15-3.39h0l1.15-3.41h0l1.15-3.42h0l1.15-3.44h0l1.15-3.46h0l1.15-3.47h0l1.15-3.49h0l1.15-3.5h0l1.15-3.52h0l1.15-3.54h0l1.15-3.55h0l1.15-3.57h0l1.15-3.59h0l1.15-3.6h0l1.15-3.62h0l1.15-3.63h0l1.15-3.65h0l1.15-3.67h0l1.15-3.68h0l1.15-3.7h0l1.15-3.72h0l1.15-3.73h0l1.15-3.75h0l1.15-3.77h0l1.15-3.78h0l1.15-3.8h0l1.15-3.82h0l1.15-3.83h0l1.15-3.85h0l1.15-3.87h0l1.15-3.88h0l1.15-3.9h0l1.15-3.92h0l1.15-3.93h0l1.15-3.95h0l1.15-3.97h0l1.15-3.99h0l1.15-4h0l1.15-4.02h0l1.15-4.04h0l1.15-4.05h0l1.15-4.07h0l1.15-4.09h0l1.15-4.11h0l1.15-4.12h0l1.15-4.14h0l1.15-4.16h0l1.15-4.18h0l1.15-4.19h0l1.15-4.21h0l1.15-4.23h0l1.15-4.25h0l1.15-4.26h0l1.15-4.28h0l1.15-4.3h0l1.15-4.32h0l1.15-4.34h0l1.15-4.35h0l1.15-4.37h0l1.15-4.39h0l1.15-4.41h0l1.15-4.43h0l1.15-4.44h0l1.15-4.46h0l1.15-4.48h0l1.15-4.5h0l1.15-4.52h0l1.15-4.53h0l1.15-4.55h0l1.15-4.57h0l1.15-4.59h0l1.15-4.61h0l1.15-4.63h0l1.15-4.64h0l1.15-4.66h0l1.15-4.68h0l1.15-4.7h0l1.15-4.72h0l1.15-4.74h0l1.15-4.76h0l1.15-4.77h0l1.15-4.79h0l1.15-4.81h0l1.15-4.83h0l1.15-4.85h0l1.15-4.87h0l1.15-4.89h0l1.15-4.91h0l1.15-4.93h0l1.15-4.94h0l1.15-4.96h0l1.15-4.98h0l1.15-5h0l1.15-5.02h0l1.15-5.04h0l1.15-5.06h0l1.15-5.08h0l1.15-5.1h0l1.15-5.12h0l1.15-5.14h0l1.15-5.16h0l1.15-5.18h0l1.15-5.2h0l1.15-5.22h0l1.15-5.24h0l1.15-5.25h0l1.15-5.27h0l1.15-5.29h0l1.15-5.31h0l1.15-5.33h0l1.15-5.35h0l1.15-5.37h0l1.15-5.39h0l1.15-5.41h0l1.15-5.43h0l1.15-5.45h0l1.15-5.47h0l1.15-5.49h0l1.15-5.51h0l1.15-5.53h0l1.15-5.55h0l1.15-5.57h0l1.15-5.59h0l1.15-5.61h0l1.15-5.63h0l1.15-5.66h0l1.15-5.68h0l1.15-5.7h0l1.15-5.72h0l1.15-5.74h0l1.15-5.76h0l1.15-5.78h0l1.15-5.8h0l1.15-5.82h0l1.15-5.84h0l1.15-5.86h0l1.15-5.88h0l1.15-5.9h0l1.15-5.92h0l1.15-5.94h0l1.15-5.97h0l1.15-5.99h0l1.15-6.01h0l1.15-6.03h0l1.15-6.05h0l1.15-6.07h0l1.15-6.09h0l1.15-6.11h0l1.15-6.13h0l1.15-6.16h0l1.15-6.18h0l1.15-6.2h0l1.15-6.22h0l1.15-6.24h0l1.15-6.26h0l1.15-6.28h0l1.15-6.31h0l1.15-6.33h0l1.15-6.35h0l1.15-6.37h0l1.15-6.39h0l1.15-6.41h0l1.15-6.44h0l1.15-6.46h0l1.15-6.48h0l1.15-6.5h0l1.15-6.52h0l1.15-6.54h0l1.15-6.57h0l1.15-6.59h0l1.15-6.61h0l1.15-6.63h0l1.15-6.65h0l1.15-6.68h0l1.15-6.7h0l1.15-6.72h0l1.15-6.74h0l1.15-6.77h0l1.15-6.79h0l1.15-6.81h0l1.15-6.83h0l1.15-6.85h0l1.15-6.88h0l1.15-6.9h0l1.15-6.92h0l1.15-6.95h0l1.15-6.97h0l1.15-6.99h0l1.15-7.01h0l1.15-7.04h0l1.15-7.06h0l1.15-7.08h0l1.15-7.1h0l1.15-7.13h0l1.15-7.15h0l1.15-7.17h0l1.15-7.2h0l1.15-7.22h0l1.15-7.24h0l1.15-7.27h0l1.15-7.29h0l1.15-7.31h0l1.15-7.33h0l1.15-7.36h0l1.15-7.38h0l1.15-7.4h0l1.15-7.43h0l1.15-7.45h0l1.15-7.47h0l1.15-7.5h0l1.15-7.52h0l1.15-7.55h0l1.15-7.57h0l1.15-7.59h0l1.15-7.62h0l1.15-7.64h0l1.15-7.66h0l1.15-7.69h0l1.15-7.71h0l1.15-7.73h0l1.15-7.76h0l1.15-7.78h0l1.15-7.81h0l1.15-7.83h0l1.15-7.85h0l1.15-7.88h0l1.15-7.9h0l1.15-7.93h0l1.15-7.95h0l1.15-7.98h0l1.15-8h0l1.15-8.02h0l1.15-8.05h0l1.15-8.07h0l1.15-8.1h0l1.15-8.12h0l1.15-8.15h0l1.15-8.17h0l1.15-8.19h0l1.15-8.22h0l1.15-8.24h0l1.15-8.27h0l1.15-8.29h0l1.15-8.32h0l1.15-8.34h0l1.15-8.37h0l1.15-8.39h0l1.15-8.42h0l1.15-8.44h0l1.15-8.47h0l1.15-8.49h0l1.15-8.52h0l1.15-8.54h0l1.15-8.57h0l1.15-8.59h0l1.15-8.62h0l1.15-8.64h0l1.15-8.67h0l1.15-8.69h0l1.15-8.72h0l1.15-8.74h0l1.15-8.77h0l1.15-8.79h0l1.15-8.82h0l1.15-8.85h0l1.15-8.87h0l1.15-8.9h0l1.15-8.92h0l1.15-8.95h0l1.15-8.97h0l1.15-9h0l1.15-9.02h0l1.15-9.05h0l1.15-9.08h0l1.15-9.1h0l1.15-9.13h0l1.15-9.15h0l1.15-9.18h0l1.15-9.21h0l1.15-9.23h0l1.15-9.26h0l1.15-9.28h0l1.15-9.31h0l1.15-9.34h0l1.15-9.36h0l1.15-9.39h0l1.15-9.42h0l1.15-9.44h0l1.15-9.47h0l1.15-9.49h0l1.15-9.52h0l1.15-9.55h0l1.15-9.57h0l1.15-9.6h0l1.15-9.63h0l1.15-9.65h0l1.15-9.68h0l1.15-9.71h0l1.15-9.73h0l1.15-9.76h0l1.15-9.79h0l1.15-9.81h0l1.15-9.84h0l1.15-9.87h0l1.15-9.89h0l1.15-9.92h0l1.15-9.95h0l1.15-9.98h0l1.15-10"/>
      </g>
    </g>
    <g class="uuid-8a4998d2-8d22-4a26-bb4e-1443b71d2289">
      <g class="uuid-04beec24-21c2-4926-86e9-024f82684c96">
        <g>
          <rect class="uuid-b136e5a6-f2aa-4541-a90b-e892df10bbd9" x="-3" y="-10.14" width="1686" height="1040.27"/>
          <path class="uuid-58e05062-e7b3-4d61-b9b3-83c53b08b7a2" d="m136.35-9.56v1040.27m0-1040.27v1040.27M487.32-9.56v1040.27M1188.1-9.56v1040.27M1539.06-9.56v1040.27"/>
          <path class="uuid-cb886a78-affa-4a9e-854d-8ea984578bbb" d="m65.24-9.56v1040.27M206.32-9.56v1040.27M276.28-9.56v1040.27M346.24-9.56v1040.27M416.21-9.56v1040.27M557.28-9.56v1040.27M627.24-9.56v1040.27M697.21-9.56v1040.27M767.17-9.56v1040.27M908.24-9.56v1040.27M978.21-9.56v1040.27M1048.17-9.56v1040.27M1118.13-9.56v1040.27M1258.06-9.56v1040.27M1329.17-9.56v1040.27M1399.13-9.56v1040.27M1469.1-9.56v1040.27M1609.02-9.56v1040.27M1680.13-9.56v1040.27"/>
          <path class="uuid-58e05062-e7b3-4d61-b9b3-83c53b08b7a2" d="m-2.43,51.22h1686M-2.43,51.22h1686M-2.43,226.71h1686M-2.43,402.19h1686M-2.43,577.67h1686M-2.43,928.63h1686"/>
          <path class="uuid-cb886a78-affa-4a9e-854d-8ea984578bbb" d="m-2.43,16.82h1686M-2.43,16.82h1686M-2.43,86.78h1686M-2.43,122.33h1686M-2.43,156.74h1686M-2.43,192.3h1686M-2.43,262.26h1686M-2.43,297.82h1686M-2.43,332.22h1686M-2.43,367.78h1686M-2.43,437.74h1686M-2.43,472.15h1686M-2.43,507.71h1686M-2.43,543.26h1686M-2.43,613.22h1686M-2.43,647.63h1686M-2.43,683.19h1686M-2.43,718.74h1686M-2.43,788.71h1686M-2.43,823.11h1686M-2.43,858.67h1686M-2.43,894.22h1686M-2.43,964.19h1686M-2.43,998.6h1686"/>
          <path class="uuid-adc81c90-344a-4a06-b1a4-30dabd2f6bbf" d="m837.71-6.7v1036.83"/>
          <path class="uuid-eaac837e-48ca-489c-9676-aff670571b58" d="m837.59-7.84l-5.73,22.94h11.47"/>
          <path class="uuid-adc81c90-344a-4a06-b1a4-30dabd2f6bbf" d="m-3,753.72h1682.56"/>
          <path class="uuid-eaac837e-48ca-489c-9676-aff670571b58" d="m1680.71,753.36l-22.94-5.73v11.47"/>
          <g class="uuid-d9635a43-0e83-4a47-a14c-db3d53f0dbff">
            <path class="uuid-231c5d91-4a6e-4a4f-8792-cf3679c74355" d="m134.63,767.1v.28h-6.88v-.28h6.88Z"/>
            <path class="uuid-231c5d91-4a6e-4a4f-8792-cf3679c74355" d="m141.69,770.93h-6.3c0-.39.07-.75.25-1.07.17-.32.4-.62.69-.9.28-.28.6-.55.96-.8.35-.25.7-.5,1.05-.75.36-.25.71-.5,1.05-.76.34-.26.64-.53.91-.81.27-.28.48-.58.64-.89.16-.32.24-.66.24-1.03s-.07-.69-.2-.97c-.13-.28-.31-.51-.54-.7-.23-.19-.5-.33-.82-.43-.32-.1-.66-.14-1.04-.14-.49,0-.9.07-1.25.22-.35.15-.63.35-.85.61s-.38.57-.48.94-.15.76-.15,1.19h-.27c0-1.03.26-1.82.76-2.39s1.25-.85,2.25-.85c.4,0,.78.05,1.13.16s.65.26.91.48.46.47.61.78.23.68.23,1.1c0,.51-.14.98-.41,1.4s-.62.82-1.04,1.18-.87.71-1.36,1.04c-.49.33-.94.65-1.37.98-.43.33-.79.66-1.09,1-.3.34-.47.72-.51,1.12h6.03v.28Z"/>
          </g>
          <g class="uuid-d9635a43-0e83-4a47-a14c-db3d53f0dbff">
            <path class="uuid-e7aed80d-6bc6-4d0c-958f-0959b4b25be4" d="m134.63,767.1v.28h-6.88v-.28h6.88Z"/>
            <path class="uuid-e7aed80d-6bc6-4d0c-958f-0959b4b25be4" d="m141.69,770.93h-6.3c0-.39.07-.75.25-1.07.17-.32.4-.62.69-.9.28-.28.6-.55.96-.8.35-.25.7-.5,1.05-.75.36-.25.71-.5,1.05-.76.34-.26.64-.53.91-.81.27-.28.48-.58.64-.89.16-.32.24-.66.24-1.03s-.07-.69-.2-.97c-.13-.28-.31-.51-.54-.7-.23-.19-.5-.33-.82-.43-.32-.1-.66-.14-1.04-.14-.49,0-.9.07-1.25.22-.35.15-.63.35-.85.61s-.38.57-.48.94-.15.76-.15,1.19h-.27c0-1.03.26-1.82.76-2.39s1.25-.85,2.25-.85c.4,0,.78.05,1.13.16s.65.26.91.48.46.47.61.78.23.68.23,1.1c0,.51-.14.98-.41,1.4s-.62.82-1.04,1.18-.87.71-1.36,1.04c-.49.33-.94.65-1.37.98-.43.33-.79.66-1.09,1-.3.34-.47.72-.51,1.12h6.03v.28Z"/>
          </g>
          <g class="uuid-d9635a43-0e83-4a47-a14c-db3d53f0dbff">
            <path class="uuid-231c5d91-4a6e-4a4f-8792-cf3679c74355" d="m134.63,767.1v.28h-6.88v-.28h6.88Z"/>
            <path class="uuid-231c5d91-4a6e-4a4f-8792-cf3679c74355" d="m141.69,770.93h-6.3c0-.39.07-.75.25-1.07.17-.32.4-.62.69-.9.28-.28.6-.55.96-.8.35-.25.7-.5,1.05-.75.36-.25.71-.5,1.05-.76.34-.26.64-.53.91-.81.27-.28.48-.58.64-.89.16-.32.24-.66.24-1.03s-.07-.69-.2-.97c-.13-.28-.31-.51-.54-.7-.23-.19-.5-.33-.82-.43-.32-.1-.66-.14-1.04-.14-.49,0-.9.07-1.25.22-.35.15-.63.35-.85.61s-.38.57-.48.94-.15.76-.15,1.19h-.27c0-1.03.26-1.82.76-2.39s1.25-.85,2.25-.85c.4,0,.78.05,1.13.16s.65.26.91.48.46.47.61.78.23.68.23,1.1c0,.51-.14.98-.41,1.4s-.62.82-1.04,1.18-.87.71-1.36,1.04c-.49.33-.94.65-1.37.98-.43.33-.79.66-1.09,1-.3.34-.47.72-.51,1.12h6.03v.28Z"/>
          </g>
          <g class="uuid-d9635a43-0e83-4a47-a14c-db3d53f0dbff">
            <path class="uuid-231c5d91-4a6e-4a4f-8792-cf3679c74355" d="m485.6,767.1v.28h-6.88v-.28h6.88Z"/>
            <path class="uuid-231c5d91-4a6e-4a4f-8792-cf3679c74355" d="m489.67,761.93c-.28.39-.65.74-1.11,1.03-.45.29-.92.5-1.38.63v-.28c.28-.09.54-.19.76-.3s.43-.23.62-.37c.19-.14.38-.29.56-.47.18-.17.36-.37.56-.59h.3v9.36h-.28v-9h-.03Z"/>
          </g>
          <g class="uuid-d9635a43-0e83-4a47-a14c-db3d53f0dbff">
            <path class="uuid-e7aed80d-6bc6-4d0c-958f-0959b4b25be4" d="m485.6,767.1v.28h-6.88v-.28h6.88Z"/>
            <path class="uuid-e7aed80d-6bc6-4d0c-958f-0959b4b25be4" d="m489.67,761.93c-.28.39-.65.74-1.11,1.03-.45.29-.92.5-1.38.63v-.28c.28-.09.54-.19.76-.3s.43-.23.62-.37c.19-.14.38-.29.56-.47.18-.17.36-.37.56-.59h.3v9.36h-.28v-9h-.03Z"/>
          </g>
          <g class="uuid-d9635a43-0e83-4a47-a14c-db3d53f0dbff">
            <path class="uuid-231c5d91-4a6e-4a4f-8792-cf3679c74355" d="m485.6,767.1v.28h-6.88v-.28h6.88Z"/>
            <path class="uuid-231c5d91-4a6e-4a4f-8792-cf3679c74355" d="m489.67,761.93c-.28.39-.65.74-1.11,1.03-.45.29-.92.5-1.38.63v-.28c.28-.09.54-.19.76-.3s.43-.23.62-.37c.19-.14.38-.29.56-.47.18-.17.36-.37.56-.59h.3v9.36h-.28v-9h-.03Z"/>
          </g>
          <g class="uuid-d9635a43-0e83-4a47-a14c-db3d53f0dbff">
            <path class="uuid-231c5d91-4a6e-4a4f-8792-cf3679c74355" d="m1189.3,761.93c-.28.39-.65.74-1.11,1.03-.45.29-.92.5-1.38.63v-.28c.28-.09.54-.19.76-.3s.43-.23.62-.37c.19-.14.38-.29.56-.47.18-.17.36-.37.56-.59h.3v9.36h-.28v-9h-.03Z"/>
          </g>
          <g class="uuid-d9635a43-0e83-4a47-a14c-db3d53f0dbff">
            <path class="uuid-e7aed80d-6bc6-4d0c-958f-0959b4b25be4" d="m1189.3,761.93c-.28.39-.65.74-1.11,1.03-.45.29-.92.5-1.38.63v-.28c.28-.09.54-.19.76-.3s.43-.23.62-.37c.19-.14.38-.29.56-.47.18-.17.36-.37.56-.59h.3v9.36h-.28v-9h-.03Z"/>
          </g>
          <g class="uuid-d9635a43-0e83-4a47-a14c-db3d53f0dbff">
            <path class="uuid-231c5d91-4a6e-4a4f-8792-cf3679c74355" d="m1189.3,761.93c-.28.39-.65.74-1.11,1.03-.45.29-.92.5-1.38.63v-.28c.28-.09.54-.19.76-.3s.43-.23.62-.37c.19-.14.38-.29.56-.47.18-.17.36-.37.56-.59h.3v9.36h-.28v-9h-.03Z"/>
          </g>
          <g class="uuid-d9635a43-0e83-4a47-a14c-db3d53f0dbff">
            <path class="uuid-231c5d91-4a6e-4a4f-8792-cf3679c74355" d="m1543.25,770.93h-6.3c0-.39.07-.75.25-1.07.17-.32.4-.62.69-.9.28-.28.6-.55.96-.8.35-.25.7-.5,1.05-.75.36-.25.71-.5,1.05-.76.34-.26.64-.53.91-.81.27-.28.48-.58.64-.89.16-.32.24-.66.24-1.03s-.07-.69-.2-.97c-.13-.28-.31-.51-.54-.7-.23-.19-.5-.33-.82-.43-.32-.1-.66-.14-1.04-.14-.49,0-.9.07-1.25.22-.35.15-.63.35-.85.61s-.38.57-.48.94-.15.76-.15,1.19h-.27c0-1.03.26-1.82.76-2.39s1.25-.85,2.25-.85c.4,0,.78.05,1.13.16s.65.26.91.48.46.47.61.78.23.68.23,1.1c0,.51-.14.98-.41,1.4s-.62.82-1.04,1.18-.87.71-1.36,1.04c-.49.33-.94.65-1.37.98-.43.33-.79.66-1.09,1-.3.34-.47.72-.51,1.12h6.03v.28Z"/>
          </g>
          <g class="uuid-d9635a43-0e83-4a47-a14c-db3d53f0dbff">
            <path class="uuid-e7aed80d-6bc6-4d0c-958f-0959b4b25be4" d="m1543.25,770.93h-6.3c0-.39.07-.75.25-1.07.17-.32.4-.62.69-.9.28-.28.6-.55.96-.8.35-.25.7-.5,1.05-.75.36-.25.71-.5,1.05-.76.34-.26.64-.53.91-.81.27-.28.48-.58.64-.89.16-.32.24-.66.24-1.03s-.07-.69-.2-.97c-.13-.28-.31-.51-.54-.7-.23-.19-.5-.33-.82-.43-.32-.1-.66-.14-1.04-.14-.49,0-.9.07-1.25.22-.35.15-.63.35-.85.61s-.38.57-.48.94-.15.76-.15,1.19h-.27c0-1.03.26-1.82.76-2.39s1.25-.85,2.25-.85c.4,0,.78.05,1.13.16s.65.26.91.48.46.47.61.78.23.68.23,1.1c0,.51-.14.98-.41,1.4s-.62.82-1.04,1.18-.87.71-1.36,1.04c-.49.33-.94.65-1.37.98-.43.33-.79.66-1.09,1-.3.34-.47.72-.51,1.12h6.03v.28Z"/>
          </g>
          <g class="uuid-d9635a43-0e83-4a47-a14c-db3d53f0dbff">
            <path class="uuid-231c5d91-4a6e-4a4f-8792-cf3679c74355" d="m1543.25,770.93h-6.3c0-.39.07-.75.25-1.07.17-.32.4-.62.69-.9.28-.28.6-.55.96-.8.35-.25.7-.5,1.05-.75.36-.25.71-.5,1.05-.76.34-.26.64-.53.91-.81.27-.28.48-.58.64-.89.16-.32.24-.66.24-1.03s-.07-.69-.2-.97c-.13-.28-.31-.51-.54-.7-.23-.19-.5-.33-.82-.43-.32-.1-.66-.14-1.04-.14-.49,0-.9.07-1.25.22-.35.15-.63.35-.85.61s-.38.57-.48.94-.15.76-.15,1.19h-.27c0-1.03.26-1.82.76-2.39s1.25-.85,2.25-.85c.4,0,.78.05,1.13.16s.65.26.91.48.46.47.61.78.23.68.23,1.1c0,.51-.14.98-.41,1.4s-.62.82-1.04,1.18-.87.71-1.36,1.04c-.49.33-.94.65-1.37.98-.43.33-.79.66-1.09,1-.3.34-.47.72-.51,1.12h6.03v.28Z"/>
          </g>
          <g class="uuid-d9635a43-0e83-4a47-a14c-db3d53f0dbff">
            <path class="uuid-231c5d91-4a6e-4a4f-8792-cf3679c74355" d="m820.5,929.97v.28h-6.88v-.28h6.88Z"/>
            <path class="uuid-231c5d91-4a6e-4a4f-8792-cf3679c74355" d="m824.58,924.79c-.28.39-.65.74-1.11,1.03-.45.29-.92.5-1.38.63v-.28c.28-.09.54-.19.76-.3s.43-.23.62-.37c.19-.14.38-.29.56-.47.18-.17.36-.37.56-.59h.3v9.36h-.28v-9h-.03Z"/>
          </g>
          <g class="uuid-d9635a43-0e83-4a47-a14c-db3d53f0dbff">
            <path class="uuid-e7aed80d-6bc6-4d0c-958f-0959b4b25be4" d="m820.5,929.97v.28h-6.88v-.28h6.88Z"/>
            <path class="uuid-e7aed80d-6bc6-4d0c-958f-0959b4b25be4" d="m824.58,924.79c-.28.39-.65.74-1.11,1.03-.45.29-.92.5-1.38.63v-.28c.28-.09.54-.19.76-.3s.43-.23.62-.37c.19-.14.38-.29.56-.47.18-.17.36-.37.56-.59h.3v9.36h-.28v-9h-.03Z"/>
          </g>
          <g class="uuid-d9635a43-0e83-4a47-a14c-db3d53f0dbff">
            <path class="uuid-231c5d91-4a6e-4a4f-8792-cf3679c74355" d="m820.5,929.97v.28h-6.88v-.28h6.88Z"/>
            <path class="uuid-231c5d91-4a6e-4a4f-8792-cf3679c74355" d="m824.58,924.79c-.28.39-.65.74-1.11,1.03-.45.29-.92.5-1.38.63v-.28c.28-.09.54-.19.76-.3s.43-.23.62-.37c.19-.14.38-.29.56-.47.18-.17.36-.37.56-.59h.3v9.36h-.28v-9h-.03Z"/>
          </g>
          <g class="uuid-d9635a43-0e83-4a47-a14c-db3d53f0dbff">
            <path class="uuid-231c5d91-4a6e-4a4f-8792-cf3679c74355" d="m824.58,573.83c-.28.39-.65.74-1.11,1.03-.45.29-.92.5-1.38.63v-.28c.28-.09.54-.19.76-.3s.43-.23.62-.37c.19-.14.38-.29.56-.47.18-.17.36-.37.56-.59h.3v9.36h-.28v-9h-.03Z"/>
          </g>
          <g class="uuid-d9635a43-0e83-4a47-a14c-db3d53f0dbff">
            <path class="uuid-e7aed80d-6bc6-4d0c-958f-0959b4b25be4" d="m824.58,573.83c-.28.39-.65.74-1.11,1.03-.45.29-.92.5-1.38.63v-.28c.28-.09.54-.19.76-.3s.43-.23.62-.37c.19-.14.38-.29.56-.47.18-.17.36-.37.56-.59h.3v9.36h-.28v-9h-.03Z"/>
          </g>
          <g class="uuid-d9635a43-0e83-4a47-a14c-db3d53f0dbff">
            <path class="uuid-231c5d91-4a6e-4a4f-8792-cf3679c74355" d="m824.58,573.83c-.28.39-.65.74-1.11,1.03-.45.29-.92.5-1.38.63v-.28c.28-.09.54-.19.76-.3s.43-.23.62-.37c.19-.14.38-.29.56-.47.18-.17.36-.37.56-.59h.3v9.36h-.28v-9h-.03Z"/>
          </g>
          <g class="uuid-d9635a43-0e83-4a47-a14c-db3d53f0dbff">
            <path class="uuid-231c5d91-4a6e-4a4f-8792-cf3679c74355" d="m827.56,407.35h-6.3c0-.39.07-.75.25-1.07.17-.32.4-.62.69-.9.28-.28.6-.55.96-.8.35-.25.7-.5,1.05-.75.36-.25.71-.5,1.05-.76.34-.26.64-.53.91-.81.27-.28.48-.58.64-.89.16-.32.24-.66.24-1.03s-.07-.69-.2-.97c-.13-.28-.31-.51-.54-.7-.23-.19-.5-.33-.82-.43-.32-.1-.66-.14-1.04-.14-.49,0-.9.07-1.25.22-.35.15-.63.35-.85.61s-.38.57-.48.94-.15.76-.15,1.19h-.27c0-1.03.26-1.82.76-2.39s1.25-.85,2.25-.85c.4,0,.78.05,1.13.16s.65.26.91.48.46.47.61.78.23.68.23,1.1c0,.51-.14.98-.41,1.4s-.62.82-1.04,1.18-.87.71-1.36,1.04c-.49.33-.94.65-1.37.98-.43.33-.79.66-1.09,1-.3.34-.47.72-.51,1.12h6.03v.28Z"/>
          </g>
          <g class="uuid-d9635a43-0e83-4a47-a14c-db3d53f0dbff">
            <path class="uuid-e7aed80d-6bc6-4d0c-958f-0959b4b25be4" d="m827.56,407.35h-6.3c0-.39.07-.75.25-1.07.17-.32.4-.62.69-.9.28-.28.6-.55.96-.8.35-.25.7-.5,1.05-.75.36-.25.71-.5,1.05-.76.34-.26.64-.53.91-.81.27-.28.48-.58.64-.89.16-.32.24-.66.24-1.03s-.07-.69-.2-.97c-.13-.28-.31-.51-.54-.7-.23-.19-.5-.33-.82-.43-.32-.1-.66-.14-1.04-.14-.49,0-.9.07-1.25.22-.35.15-.63.35-.85.61s-.38.57-.48.94-.15.76-.15,1.19h-.27c0-1.03.26-1.82.76-2.39s1.25-.85,2.25-.85c.4,0,.78.05,1.13.16s.65.26.91.48.46.47.61.78.23.68.23,1.1c0,.51-.14.98-.41,1.4s-.62.82-1.04,1.18-.87.71-1.36,1.04c-.49.33-.94.65-1.37.98-.43.33-.79.66-1.09,1-.3.34-.47.72-.51,1.12h6.03v.28Z"/>
          </g>
          <g class="uuid-d9635a43-0e83-4a47-a14c-db3d53f0dbff">
            <path class="uuid-231c5d91-4a6e-4a4f-8792-cf3679c74355" d="m827.56,407.35h-6.3c0-.39.07-.75.25-1.07.17-.32.4-.62.69-.9.28-.28.6-.55.96-.8.35-.25.7-.5,1.05-.75.36-.25.71-.5,1.05-.76.34-.26.64-.53.91-.81.27-.28.48-.58.64-.89.16-.32.24-.66.24-1.03s-.07-.69-.2-.97c-.13-.28-.31-.51-.54-.7-.23-.19-.5-.33-.82-.43-.32-.1-.66-.14-1.04-.14-.49,0-.9.07-1.25.22-.35.15-.63.35-.85.61s-.38.57-.48.94-.15.76-.15,1.19h-.27c0-1.03.26-1.82.76-2.39s1.25-.85,2.25-.85c.4,0,.78.05,1.13.16s.65.26.91.48.46.47.61.78.23.68.23,1.1c0,.51-.14.98-.41,1.4s-.62.82-1.04,1.18-.87.71-1.36,1.04c-.49.33-.94.65-1.37.98-.43.33-.79.66-1.09,1-.3.34-.47.72-.51,1.12h6.03v.28Z"/>
          </g>
          <g class="uuid-d9635a43-0e83-4a47-a14c-db3d53f0dbff">
            <path class="uuid-231c5d91-4a6e-4a4f-8792-cf3679c74355" d="m821.52,224.07c.15-.38.36-.7.64-.96.28-.26.62-.45,1.02-.58.4-.13.84-.19,1.33-.19.38,0,.74.04,1.09.12.35.08.66.22.94.4s.5.42.66.72c.17.29.25.65.25,1.06,0,.66-.19,1.17-.57,1.54-.38.37-.86.58-1.44.63v.03c.28.03.54.09.81.2s.5.26.7.45c.21.2.37.44.5.74.12.29.19.64.19,1.05,0,.44-.08.83-.25,1.17-.17.34-.4.63-.69.86-.29.23-.62.41-1,.53s-.79.18-1.22.18c-.53,0-1.01-.07-1.45-.22-.43-.15-.8-.36-1.1-.64-.3-.28-.53-.63-.68-1.04s-.21-.88-.17-1.42h.28c-.04.5.01.93.15,1.31.14.38.34.7.62.96.27.26.61.45,1.02.58.4.13.85.2,1.33.2.38,0,.74-.05,1.09-.16.35-.11.66-.26.92-.47s.48-.47.64-.78c.16-.31.24-.66.24-1.07s-.07-.75-.2-1.03c-.13-.28-.32-.52-.56-.7-.24-.18-.53-.32-.85-.41s-.68-.15-1.07-.17h-.67v-.28h.67c.3,0,.6-.03.9-.1.3-.07.57-.18.81-.34.24-.16.43-.37.58-.63.15-.26.22-.58.22-.97,0-.38-.09-.69-.25-.95-.16-.26-.36-.46-.61-.63-.25-.16-.53-.28-.84-.34-.31-.07-.63-.1-.96-.1-.45,0-.86.06-1.22.17-.36.12-.67.29-.93.52-.26.23-.45.53-.58.87s-.19.76-.19,1.22h-.28c0-.51.06-.96.21-1.34Z"/>
          </g>
          <g class="uuid-d9635a43-0e83-4a47-a14c-db3d53f0dbff">
            <path class="uuid-e7aed80d-6bc6-4d0c-958f-0959b4b25be4" d="m821.52,224.07c.15-.38.36-.7.64-.96.28-.26.62-.45,1.02-.58.4-.13.84-.19,1.33-.19.38,0,.74.04,1.09.12.35.08.66.22.94.4s.5.42.66.72c.17.29.25.65.25,1.06,0,.66-.19,1.17-.57,1.54-.38.37-.86.58-1.44.63v.03c.28.03.54.09.81.2s.5.26.7.45c.21.2.37.44.5.74.12.29.19.64.19,1.05,0,.44-.08.83-.25,1.17-.17.34-.4.63-.69.86-.29.23-.62.41-1,.53s-.79.18-1.22.18c-.53,0-1.01-.07-1.45-.22-.43-.15-.8-.36-1.1-.64-.3-.28-.53-.63-.68-1.04s-.21-.88-.17-1.42h.28c-.04.5.01.93.15,1.31.14.38.34.7.62.96.27.26.61.45,1.02.58.4.13.85.2,1.33.2.38,0,.74-.05,1.09-.16.35-.11.66-.26.92-.47s.48-.47.64-.78c.16-.31.24-.66.24-1.07s-.07-.75-.2-1.03c-.13-.28-.32-.52-.56-.7-.24-.18-.53-.32-.85-.41s-.68-.15-1.07-.17h-.67v-.28h.67c.3,0,.6-.03.9-.1.3-.07.57-.18.81-.34.24-.16.43-.37.58-.63.15-.26.22-.58.22-.97,0-.38-.09-.69-.25-.95-.16-.26-.36-.46-.61-.63-.25-.16-.53-.28-.84-.34-.31-.07-.63-.1-.96-.1-.45,0-.86.06-1.22.17-.36.12-.67.29-.93.52-.26.23-.45.53-.58.87s-.19.76-.19,1.22h-.28c0-.51.06-.96.21-1.34Z"/>
          </g>
          <g class="uuid-d9635a43-0e83-4a47-a14c-db3d53f0dbff">
            <path class="uuid-231c5d91-4a6e-4a4f-8792-cf3679c74355" d="m821.52,224.07c.15-.38.36-.7.64-.96.28-.26.62-.45,1.02-.58.4-.13.84-.19,1.33-.19.38,0,.74.04,1.09.12.35.08.66.22.94.4s.5.42.66.72c.17.29.25.65.25,1.06,0,.66-.19,1.17-.57,1.54-.38.37-.86.58-1.44.63v.03c.28.03.54.09.81.2s.5.26.7.45c.21.2.37.44.5.74.12.29.19.64.19,1.05,0,.44-.08.83-.25,1.17-.17.34-.4.63-.69.86-.29.23-.62.41-1,.53s-.79.18-1.22.18c-.53,0-1.01-.07-1.45-.22-.43-.15-.8-.36-1.1-.64-.3-.28-.53-.63-.68-1.04s-.21-.88-.17-1.42h.28c-.04.5.01.93.15,1.31.14.38.34.7.62.96.27.26.61.45,1.02.58.4.13.85.2,1.33.2.38,0,.74-.05,1.09-.16.35-.11.66-.26.92-.47s.48-.47.64-.78c.16-.31.24-.66.24-1.07s-.07-.75-.2-1.03c-.13-.28-.32-.52-.56-.7-.24-.18-.53-.32-.85-.41s-.68-.15-1.07-.17h-.67v-.28h.67c.3,0,.6-.03.9-.1.3-.07.57-.18.81-.34.24-.16.43-.37.58-.63.15-.26.22-.58.22-.97,0-.38-.09-.69-.25-.95-.16-.26-.36-.46-.61-.63-.25-.16-.53-.28-.84-.34-.31-.07-.63-.1-.96-.1-.45,0-.86.06-1.22.17-.36.12-.67.29-.93.52-.26.23-.45.53-.58.87s-.19.76-.19,1.22h-.28c0-.51.06-.96.21-1.34Z"/>
          </g>
          <g class="uuid-d9635a43-0e83-4a47-a14c-db3d53f0dbff">
            <path class="uuid-231c5d91-4a6e-4a4f-8792-cf3679c74355" d="m820.97,53.62l4.68-6.59h.34v6.65h1.69v.27h-1.69v2.44h-.28v-2.44h-4.75v-.33Zm4.72-6.21l-4.45,6.26h4.47v-6.26h-.03Z"/>
          </g>
          <g class="uuid-d9635a43-0e83-4a47-a14c-db3d53f0dbff">
            <path class="uuid-e7aed80d-6bc6-4d0c-958f-0959b4b25be4" d="m820.97,53.62l4.68-6.59h.34v6.65h1.69v.27h-1.69v2.44h-.28v-2.44h-4.75v-.33Zm4.72-6.21l-4.45,6.26h4.47v-6.26h-.03Z"/>
          </g>
          <g class="uuid-d9635a43-0e83-4a47-a14c-db3d53f0dbff">
            <path class="uuid-231c5d91-4a6e-4a4f-8792-cf3679c74355" d="m820.97,53.62l4.68-6.59h.34v6.65h1.69v.27h-1.69v2.44h-.28v-2.44h-4.75v-.33Zm4.72-6.21l-4.45,6.26h4.47v-6.26h-.03Z"/>
          </g>
          <g class="uuid-d9635a43-0e83-4a47-a14c-db3d53f0dbff">
            <path class="uuid-231c5d91-4a6e-4a4f-8792-cf3679c74355" d="m827.69,768c-.11.58-.31,1.1-.58,1.56s-.64.83-1.09,1.11c-.45.28-1.01.42-1.69.42s-1.23-.14-1.69-.42c-.45-.28-.82-.65-1.09-1.11s-.47-.98-.58-1.56-.17-1.16-.17-1.75.06-1.17.17-1.75.31-1.1.58-1.55.64-.83,1.09-1.12,1.02-.43,1.69-.43,1.24.14,1.69.43.81.66,1.09,1.12.47.98.58,1.55.17,1.16.17,1.75-.06,1.17-.17,1.75Zm-.25-3.34c-.1-.54-.27-1.03-.52-1.47-.25-.44-.58-.8-1-1.08-.42-.28-.95-.42-1.59-.42s-1.17.14-1.59.42-.75.64-1,1.08c-.25.44-.42.93-.52,1.47-.1.54-.15,1.07-.15,1.6s.05,1.06.15,1.6c.1.54.27,1.03.52,1.47.25.44.58.8,1,1.08.42.28.95.42,1.59.42s1.17-.14,1.59-.42c.42-.28.75-.64,1-1.08.25-.44.42-.93.52-1.47.1-.54.15-1.07.15-1.6s-.05-1.05-.15-1.6Z"/>
          </g>
          <g class="uuid-d9635a43-0e83-4a47-a14c-db3d53f0dbff">
            <path class="uuid-e7aed80d-6bc6-4d0c-958f-0959b4b25be4" d="m827.69,768c-.11.58-.31,1.1-.58,1.56s-.64.83-1.09,1.11c-.45.28-1.01.42-1.69.42s-1.23-.14-1.69-.42c-.45-.28-.82-.65-1.09-1.11s-.47-.98-.58-1.56-.17-1.16-.17-1.75.06-1.17.17-1.75.31-1.1.58-1.55.64-.83,1.09-1.12,1.02-.43,1.69-.43,1.24.14,1.69.43.81.66,1.09,1.12.47.98.58,1.55.17,1.16.17,1.75-.06,1.17-.17,1.75Zm-.25-3.34c-.1-.54-.27-1.03-.52-1.47-.25-.44-.58-.8-1-1.08-.42-.28-.95-.42-1.59-.42s-1.17.14-1.59.42-.75.64-1,1.08c-.25.44-.42.93-.52,1.47-.1.54-.15,1.07-.15,1.6s.05,1.06.15,1.6c.1.54.27,1.03.52,1.47.25.44.58.8,1,1.08.42.28.95.42,1.59.42s1.17-.14,1.59-.42c.42-.28.75-.64,1-1.08.25-.44.42-.93.52-1.47.1-.54.15-1.07.15-1.6s-.05-1.05-.15-1.6Z"/>
          </g>
          <g class="uuid-d9635a43-0e83-4a47-a14c-db3d53f0dbff">
            <path class="uuid-231c5d91-4a6e-4a4f-8792-cf3679c74355" d="m827.69,768c-.11.58-.31,1.1-.58,1.56s-.64.83-1.09,1.11c-.45.28-1.01.42-1.69.42s-1.23-.14-1.69-.42c-.45-.28-.82-.65-1.09-1.11s-.47-.98-.58-1.56-.17-1.16-.17-1.75.06-1.17.17-1.75.31-1.1.58-1.55.64-.83,1.09-1.12,1.02-.43,1.69-.43,1.24.14,1.69.43.81.66,1.09,1.12.47.98.58,1.55.17,1.16.17,1.75-.06,1.17-.17,1.75Zm-.25-3.34c-.1-.54-.27-1.03-.52-1.47-.25-.44-.58-.8-1-1.08-.42-.28-.95-.42-1.59-.42s-1.17.14-1.59.42-.75.64-1,1.08c-.25.44-.42.93-.52,1.47-.1.54-.15,1.07-.15,1.6s.05,1.06.15,1.6c.1.54.27,1.03.52,1.47.25.44.58.8,1,1.08.42.28.95.42,1.59.42s1.17-.14,1.59-.42c.42-.28.75-.64,1-1.08.25-.44.42-.93.52-1.47.1-.54.15-1.07.15-1.6s-.05-1.05-.15-1.6Z"/>
          </g>
          <path class="uuid-e6fc960b-4115-4fcc-bc30-d1baef548071" d="m-1.85-1483.86v9.86h0l1.15,9.84h0l1.15,9.81H.44l1.15,9.78h0l1.15,9.75h0l1.15,9.73h0l1.15,9.7h0l1.15,9.67h0l1.15,9.65h0l1.15,9.62h0l1.15,9.59h0l1.15,9.57h0l1.15,9.54h0l1.15,9.52h0l1.15,9.49h0l1.15,9.46h0l1.15,9.44h0l1.15,9.41h0l1.15,9.38h0l1.15,9.36h0l1.15,9.33h0l1.15,9.3h0l1.15,9.28h0l1.15,9.25h0l1.15,9.23h0l1.15,9.2h0l1.15,9.17h0l1.15,9.15h0l1.15,9.12h0l1.15,9.1h0l1.15,9.07h0l1.15,9.05h0l1.15,9.02h0l1.15,8.99h0l1.15,8.97h0l1.15,8.94h0l1.15,8.92h0l1.15,8.89h0l1.15,8.87h0l1.15,8.84h0l1.15,8.81h0l1.15,8.79h0l1.15,8.76h0l1.15,8.74h0l1.15,8.71h0l1.15,8.69h0l1.15,8.66h0l1.15,8.64h0l1.15,8.61h0l1.15,8.59h0l1.15,8.56h0l1.15,8.54h0l1.15,8.51h0l1.15,8.49h0l1.15,8.46h0l1.15,8.44h0l1.15,8.41h0l1.15,8.39h0l1.15,8.36h0l1.15,8.34h0l1.15,8.31h0l1.15,8.29h0l1.15,8.26h0l1.15,8.24h0l1.15,8.21h0l1.15,8.19h0l1.15,8.16h0l1.15,8.14h0l1.15,8.12h0l1.15,8.09h0l1.15,8.07h0l1.15,8.04h0l1.15,8.02h0l1.15,7.99h0l1.15,7.97h0l1.15,7.95h0l1.15,7.92h0l1.15,7.9h0l1.15,7.87h0l1.15,7.85h0l1.15,7.83h0l1.15,7.8h0l1.15,7.78h0l1.15,7.75h0l1.15,7.73h0l1.15,7.71h0l1.15,7.68h0l1.15,7.66h0l1.15,7.63h0l1.15,7.61h0l1.15,7.59h0l1.15,7.56h0l1.15,7.54h0l1.15,7.52h0l1.15,7.49h0l1.15,7.47h0l1.15,7.45h0l1.15,7.42h0l1.15,7.4h0l1.15,7.38h0l1.15,7.35h0l1.15,7.33h0l1.15,7.31h0l1.15,7.28h0l1.15,7.26h0l1.15,7.24h0l1.15,7.21h0l1.15,7.19h0l1.15,7.17h0l1.15,7.15h0l1.15,7.12h0l1.15,7.1h0l1.15,7.08h0l1.15,7.05h0l1.15,7.03h0l1.15,7.01h0l1.15,6.99h0l1.15,6.96h0l1.15,6.94h0l1.15,6.92h0l1.15,6.9h0l1.15,6.87h0l1.15,6.85h0l1.15,6.83h0l1.15,6.81h0l1.15,6.78h0l1.15,6.76h0l1.15,6.74h0l1.15,6.72h0l1.15,6.69h0l1.15,6.67h0l1.15,6.65h0l1.15,6.63h0l1.15,6.61h0l1.15,6.58h0l1.15,6.56h0l1.15,6.54h0l1.15,6.52h0l1.15,6.5h0l1.15,6.47h0l1.15,6.45h0l1.15,6.43h0l1.15,6.41h0l1.15,6.39h0l1.15,6.37h0l1.15,6.34h0l1.15,6.32h0l1.15,6.3h0l1.15,6.28h0l1.15,6.26h0l1.15,6.24h0l1.15,6.21h0l1.15,6.19h0l1.15,6.17h0l1.15,6.15h0l1.15,6.13h0l1.15,6.11h0l1.15,6.09h0l1.15,6.07h0l1.15,6.05h0l1.15,6.02h0l1.15,6h0l1.15,5.98h0l1.15,5.96h0l1.15,5.94h0l1.15,5.92h0l1.15,5.9h0l1.15,5.88h0l1.15,5.86h0l1.15,5.84h0l1.15,5.82h0l1.15,5.79h0l1.15,5.77h0l1.15,5.75h0l1.15,5.73h0l1.15,5.71h0l1.15,5.69h0l1.15,5.67h0l1.15,5.65h0l1.15,5.63h0l1.15,5.61h0l1.15,5.59h0l1.15,5.57h0l1.15,5.55h0l1.15,5.53h0l1.15,5.51h0l1.15,5.49h0l1.15,5.47h0l1.15,5.45h0l1.15,5.43h0l1.15,5.41h0l1.15,5.39h0l1.15,5.37h0l1.15,5.35h0l1.15,5.33h0l1.15,5.31h0l1.15,5.29h0l1.15,5.27h0l1.15,5.25h0l1.15,5.23h0l1.15,5.21h0l1.15,5.19h0l1.15,5.17h0l1.15,5.15h0l1.15,5.13h0l1.15,5.11h0l1.15,5.09h0l1.15,5.08h0l1.15,5.06h0l1.15,5.04h0l1.15,5.02h0l1.15,5h0l1.15,4.98h0l1.15,4.96h0l1.15,4.94h0l1.15,4.92h0l1.15,4.9h0l1.15,4.88h0l1.15,4.86h0l1.15,4.85h0l1.15,4.83h0l1.15,4.81h0l1.15,4.79h0l1.15,4.77h0l1.15,4.75h0l1.15,4.73h0l1.15,4.71h0l1.15,4.7h0l1.15,4.68h0l1.15,4.66h0l1.15,4.64h0l1.15,4.62h0l1.15,4.6h0l1.15,4.59h0l1.15,4.57h0l1.15,4.55h0l1.15,4.53h0l1.15,4.51h0l1.15,4.49h0l1.15,4.48h0l1.15,4.46h0l1.15,4.44h0l1.15,4.42h0l1.15,4.4h0l1.15,4.39h0l1.15,4.37h0l1.15,4.35h0l1.15,4.33h0l1.15,4.31h0l1.15,4.3h0l1.15,4.28h0l1.15,4.26h0l1.15,4.24h0l1.15,4.23h0l1.15,4.21h0l1.15,4.19h0l1.15,4.17h0l1.15,4.16h0l1.15,4.14h0l1.15,4.12h0l1.15,4.1h0l1.15,4.09h0l1.15,4.07h0l1.15,4.05h0l1.15,4.03h0l1.15,4.02h0l1.15,4h0l1.15,3.98h0l1.15,3.97h0l1.15,3.95h0l1.15,3.93h0l1.15,3.91h0l1.15,3.9h0l1.15,3.88h0l1.15,3.86h0l1.15,3.85h0l1.15,3.83h0l1.15,3.81h0l1.15,3.8h0l1.15,3.78h0l1.15,3.76h0l1.15,3.75h0l1.15,3.73h0l1.15,3.71h0l1.15,3.7h0l1.15,3.68h0l1.15,3.66h0l1.15,3.65h0l1.15,3.63h0l1.15,3.61h0l1.15,3.6h0l1.15,3.58h0l1.15,3.57h0l1.15,3.55h0l1.15,3.53h0l1.15,3.52h0l1.15,3.5h0l1.15,3.49h0l1.15,3.47h0l1.15,3.45h0l1.15,3.44h0l1.15,3.42h0l1.15,3.41h0l1.15,3.39h0l1.15,3.37h0l1.15,3.36h0l1.15,3.34h0l1.15,3.33h0l1.15,3.31h0l1.15,3.3h0l1.15,3.28h0l1.15,3.26h0l1.15,3.25h0l1.15,3.23h0l1.15,3.22h0l1.15,3.2h0l1.15,3.19h0l1.15,3.17h0l1.15,3.16h0l1.15,3.14h0l1.15,3.13h0l1.15,3.11h0l1.15,3.1h0l1.15,3.08h0l1.15,3.07h0l1.15,3.05h0l1.15,3.04h0l1.15,3.02h0l1.15,3.01h0l1.15,2.99h0l1.15,2.98h0l1.15,2.96h0l1.15,2.95h0l1.15,2.93h0l1.15,2.92h0l1.15,2.9h0l1.15,2.89h0l1.15,2.87h0l1.15,2.86h0l1.15,2.85h0l1.15,2.83h0l1.15,2.82h0l1.15,2.8h0l1.15,2.79h0l1.15,2.77h0l1.15,2.76h0l1.15,2.75h0l1.15,2.73h0l1.15,2.72h0l1.15,2.7h0l1.15,2.69h0l1.15,2.67h0l1.15,2.66h0l1.15,2.65h0l1.15,2.63h0l1.15,2.62h0l1.15,2.6h0l1.15,2.59h0l1.15,2.58h0l1.15,2.56h0l1.15,2.55h0l1.15,2.54h0l1.15,2.52h0l1.15,2.51h0l1.15,2.5h0l1.15,2.48h0l1.15,2.47h0l1.15,2.45h0l1.15,2.44h0l1.15,2.43h0l1.15,2.41h0l1.15,2.4h0l1.15,2.39h0l1.15,2.37h0l1.15,2.36h0l1.15,2.35h0l1.15,2.34h0l1.15,2.32h0l1.15,2.31h0l1.15,2.3h0l1.15,2.28h0l1.15,2.27h0l1.15,2.26h0l1.15,2.24h0l1.15,2.23h0l1.15,2.22h0l1.15,2.21h0l1.15,2.19h0l1.15,2.18h0l1.15,2.17h0l1.15,2.16h0l1.15,2.14h0l1.15,2.13h0l1.15,2.12h0l1.15,2.11h0l1.15,2.09h0l1.15,2.08h0l1.15,2.07h0l1.15,2.06h0l1.15,2.04h0l1.15,2.03h0l1.15,2.02h0l1.15,2.01h0l1.15,1.99h0l1.15,1.98h0l1.15,1.97h0l1.15,1.96h0l1.15,1.95h0l1.15,1.93h0l1.15,1.92h0l1.15,1.91h0l1.15,1.9h0l1.15,1.89h0l1.15,1.88h0l1.15,1.86h0l1.15,1.85h0l1.15,1.84h0l1.15,1.83h0l1.15,1.82h0l1.15,1.81h0l1.15,1.79h0l1.15,1.78h0l1.15,1.77h0l1.15,1.76h0l1.15,1.75h0l1.15,1.74h0l1.15,1.73h0l1.15,1.71h0l1.15,1.7h0l1.15,1.69h0l1.15,1.68h0l1.15,1.67h0l1.15,1.66h0l1.15,1.65h0l1.15,1.64h0l1.15,1.63h0l1.15,1.62h0l1.15,1.6h0l1.15,1.59h0l1.15,1.58h0l1.15,1.57h0l1.15,1.56h0l1.15,1.55h0l1.15,1.54h0l1.15,1.53h0l1.15,1.52h0l1.15,1.51h0l1.15,1.5h0l1.15,1.49h0l1.15,1.48h0l1.15,1.47h0l1.15,1.46h0l1.15,1.45h0l1.15,1.44h0l1.15,1.42h0l1.15,1.41h0l1.15,1.4h0l1.15,1.39h0l1.15,1.38h0l1.15,1.37h0l1.15,1.36h0l1.15,1.35h0l1.15,1.34h0l1.15,1.33h0l1.15,1.32h0l1.15,1.31h0l1.15,1.3h0l1.15,1.29h0l1.15,1.29h0l1.15,1.28h0l1.15,1.27h0l1.15,1.26h0l1.15,1.25h0l1.15,1.24h0l1.15,1.23h0l1.15,1.22h0l1.15,1.21h0l1.15,1.2h0l1.15,1.19h0l1.15,1.18h0l1.15,1.17h0l1.15,1.16h0l1.15,1.15h0l1.15,1.14h0l1.15,1.13h0l1.15,1.13h0l1.15,1.12h0l1.15,1.11h0l1.15,1.1h0l1.15,1.09h0l1.15,1.08h0l1.15,1.07h0l1.15,1.06h0l1.15,1.05h0l1.15,1.04h0l1.15,1.04h0l1.15,1.03h0l1.15,1.02h0l1.15,1.01h0l1.15,1h0l1.15.99h0l1.15.98h0l1.15.98h0l1.15.97h0l1.15.96h0l1.15.95h0l1.15.94h0l1.15.93h0l1.15.93h0l1.15.92h0l1.15.91h0l1.15.9h0l1.15.89h0l1.15.88h0l1.15.88h0l1.15.87h0l1.15.86h0l1.15.85h0l1.15.85h0l1.15.84h0l1.15.83h0l1.15.82h0l1.15.81h0l1.15.81h0l1.15.8h0l1.15.79h0l1.15.78h0l1.15.78h0l1.15.77h0l1.15.76h0l1.15.75h0l1.15.75h0l1.15.74h0l1.15.73h0l1.15.72h0l1.15.72h0l1.15.71h0l1.15.7h0l1.15.69h0l1.15.69h0l1.15.68h0l1.15.67h0l1.15.67h0l1.15.66h0l1.15.65h0l1.15.65h0l1.15.64h0l1.15.63h0l1.15.63h0l1.15.62h0l1.15.61h0l1.15.61h0l1.15.6h0l1.15.59h0l1.15.59h0l1.15.58h0l1.15.57h0l1.15.57h0l1.15.56h0l1.15.55h0l1.15.55h0l1.15.54h0l1.15.53h0l1.15.53h0l1.15.52h0l1.15.52h0l1.15.51h0l1.15.5h0l1.15.5h0l1.15.49h0l1.15.48h0l1.15.48h0l1.15.47h0l1.15.47h0l1.15.46h0l1.15.46h0l1.15.45h0l1.15.44h0l1.15.44h0l1.15.43h0l1.15.43h0l1.15.42h0l1.15.42h0l1.15.41h0l1.15.4h0l1.15.4h0l1.15.39h0l1.15.39h0l1.15.38h0l1.15.38h0l1.15.37h0l1.15.37h0l1.15.36h0l1.15.36h0l1.15.35h0l1.15.35h0l1.15.34h0l1.15.34h0l1.15.33h0l1.15.33h0l1.15.32h0l1.15.32h0l1.15.31h0l1.15.31h0l1.15.3h0l1.15.3h0l1.15.29h0l1.15.29h0l1.15.28h0l1.15.28h0l1.15.28h0l1.15.27h0l1.15.27h0l1.15.26h0l1.15.26h0l1.15.25h0l1.15.25h0l1.15.24h0l1.15.24h0l1.15.24h0l1.15.23h0l1.15.23h0l1.15.22h0l1.15.22h0l1.15.22h0l1.15.21h0l1.15.21h0l1.15.2h0l1.15.2h0l1.15.2h0l1.15.19h0l1.15.19h0l1.15.19h0l1.15.18h0l1.15.18h0l1.15.17h0l1.15.17h0l1.15.17h0l1.15.16h0l1.15.16h0l1.15.16h0l1.15.15h0l1.15.15h0l1.15.15h0l1.15.14h0l1.15.14h0l1.15.14h0l1.15.13h0l1.15.13h0l1.15.13h0l1.15.12h0l1.15.12h0l1.15.12h0l1.15.12h0l1.15.11h0l1.15.11h0l1.15.11h0l1.15.1h0l1.15.1h0l1.15.1h0l1.15.1h0l1.15.09h0l1.15.09h0l1.15.09h0l1.15.09h0l1.15.08h0l1.15.08h0l1.15.08h0l1.15.08h0l1.15.07h0l1.15.07h0l1.15.07h0l1.15.07h0l1.15.06h0l1.15.06h0l1.15.06h0l1.15.06h0l1.15.06h0l1.15.05h0l1.15.05h0l1.15.05h0l1.15.05h0l1.15.05h0l1.15.04h0l1.15.04h0l1.15.04h0l1.15.04h0l1.15.04h0l1.15.04h0l1.15.03h0l1.15.03h0l1.15.03h0l1.15.03h0l1.15.03h0l1.15.03h0l1.15.03h0l1.15.02h0l1.15.02h0l1.15.02h0l1.15.02h0l1.15.02h0l1.15.02h0l1.15.02h0l1.15.02h1.15s1.15.03,1.15.03h1.15s1.15.02,1.15.02h1.15s1.15.02,1.15.02h1.15s1.15.02,1.15.02h1.15s1.15.01,1.15.01h1.15s1.15.01,1.15.01h1.15s1.15,0,1.15,0h1.15s1.15,0,1.15,0h1.15s1.15,0,1.15,0h1.15s1.15,0,1.15,0h1.15s1.15,0,1.15,0h1.15s1.15,0,1.15,0h1.15s1.15,0,1.15,0h1.15s1.15,0,1.15,0h3.44s1.15,0,1.15,0h1.15s1.15,0,1.15,0h1.15s1.15,0,1.15,0h1.15s1.15,0,1.15,0h1.15s1.15,0,1.15,0h1.15s1.15,0,1.15,0h1.15s1.15,0,1.15,0h1.15s1.15,0,1.15,0h1.15s1.15-.01,1.15-.01h1.15s1.15-.01,1.15-.01h1.15s1.15-.02,1.15-.02h1.15s1.15-.02,1.15-.02h1.15s1.15-.03,1.15-.03h1.15s1.15-.03,1.15-.03h0l1.15-.02h0l1.15-.02h0l1.15-.02h0l1.15-.02h0l1.15-.02h0l1.15-.02h0l1.15-.02h0l1.15-.02h0l1.15-.03h0l1.15-.03h0l1.15-.03h0l1.15-.03h0l1.15-.03h0l1.15-.03h0l1.15-.03h0l1.15-.04h0l1.15-.04h0l1.15-.04h0l1.15-.04h0l1.15-.04h0l1.15-.05h0l1.15-.05h0l1.15-.05h0l1.15-.05h0l1.15-.05h0l1.15-.05h0l1.15-.06h0l1.15-.06h0l1.15-.06h0l1.15-.06h0l1.15-.07h0l1.15-.07h0l1.15-.07h0l1.15-.07h0l1.15-.07h0l1.15-.08h0l1.15-.08h0l1.15-.08h0l1.15-.08h0l1.15-.09h0l1.15-.09h0l1.15-.09h0l1.15-.09h0l1.15-.1h0l1.15-.1h0l1.15-.1h0l1.15-.11h0l1.15-.11h0l1.15-.11h0l1.15-.11h0l1.15-.12h0l1.15-.12h0l1.15-.12h0l1.15-.13h0l1.15-.13h0l1.15-.13h0l1.15-.13h0l1.15-.14h0l1.15-.14h0l1.15-.14h0l1.15-.15h0l1.15-.15h0l1.15-.15h0l1.15-.16h0l1.15-.16h0l1.15-.16h0l1.15-.17h0l1.15-.17h0l1.15-.18h0l1.15-.18h0l1.15-.18h0l1.15-.19h0l1.15-.19h0l1.15-.19h0l1.15-.2h0l1.15-.2h0l1.15-.21h0l1.15-.21h0l1.15-.21h0l1.15-.22h0l1.15-.22h0l1.15-.22h0l1.15-.23h0l1.15-.23h0l1.15-.24h0l1.15-.24h0l1.15-.25h0l1.15-.25h0l1.15-.25h0l1.15-.26h0l1.15-.26h0l1.15-.27h0l1.15-.27h0l1.15-.28h0l1.15-.28h0l1.15-.29h0l1.15-.29h0l1.15-.29h0l1.15-.3h0l1.15-.3h0l1.15-.31h0l1.15-.31h0l1.15-.32h0l1.15-.32h0l1.15-.33h0l1.15-.33h0l1.15-.34h0l1.15-.34h0l1.15-.35h0l1.15-.35h0l1.15-.36h0l1.15-.36h0l1.15-.37h0l1.15-.37h0l1.15-.38h0l1.15-.38h0l1.15-.39h0l1.15-.4h0l1.15-.4h0l1.15-.41h0l1.15-.41h0l1.15-.42h0l1.15-.42h0l1.15-.43h0l1.15-.43h0l1.15-.44h0l1.15-.45h0l1.15-.45h0l1.15-.46h0l1.15-.46h0l1.15-.47h0l1.15-.47h0l1.15-.48h0l1.15-.49h0l1.15-.49h0l1.15-.5h0l1.15-.5h0l1.15-.51h0l1.15-.52h0l1.15-.52h0l1.15-.53h0l1.15-.54h0l1.15-.54h0l1.15-.55h0l1.15-.55h0l1.15-.56h0l1.15-.57h0l1.15-.57h0l1.15-.58h0l1.15-.59h0l1.15-.59h0l1.15-.6h0l1.15-.61h0l1.15-.61h0l1.15-.62h0l1.15-.63h0l1.15-.63h0l1.15-.64h0l1.15-.65h0l1.15-.65h0l1.15-.66h0l1.15-.67h0l1.15-.68h0l1.15-.68h0l1.15-.69h0l1.15-.7h0l1.15-.7h0l1.15-.71h0l1.15-.72h0l1.15-.73h0l1.15-.73h0l1.15-.74h0l1.15-.75h0l1.15-.75h0l1.15-.76h0l1.15-.77h0l1.15-.78h0l1.15-.78h0l1.15-.79h0l1.15-.8h0l1.15-.81h0l1.15-.82h0l1.15-.82h0l1.15-.83h0l1.15-.84h0l1.15-.85h0l1.15-.85h0l1.15-.86h0l1.15-.87h0l1.15-.88h0l1.15-.89h0l1.15-.89h0l1.15-.9h0l1.15-.91h0l1.15-.92h0l1.15-.93h0l1.15-.94h0l1.15-.94h0l1.15-.95h0l1.15-.96h0l1.15-.97h0l1.15-.98h0l1.15-.99h0l1.15-.99h0l1.15-1h0l1.15-1.01h0l1.15-1.02h0l1.15-1.03h0l1.15-1.04h0l1.15-1.05h0l1.15-1.06h0l1.15-1.06h0l1.15-1.07h0l1.15-1.08h0l1.15-1.09h0l1.15-1.1h0l1.15-1.11h0l1.15-1.12h0l1.15-1.13h0l1.15-1.14h0l1.15-1.15h0l1.15-1.15h0l1.15-1.16h0l1.15-1.17h0l1.15-1.18h0l1.15-1.19h0l1.15-1.2h0l1.15-1.21h0l1.15-1.22h0l1.15-1.23h0l1.15-1.24h0l1.15-1.25h0l1.15-1.26h0l1.15-1.27h0l1.15-1.28h0l1.15-1.29h0l1.15-1.3h0l1.15-1.31h0l1.15-1.32h0l1.15-1.33h0l1.15-1.34h0l1.15-1.35h0l1.15-1.36h0l1.15-1.37h0l1.15-1.38h0l1.15-1.39h0l1.15-1.4h0l1.15-1.41h0l1.15-1.42h0l1.15-1.43h0l1.15-1.44h0l1.15-1.45h0l1.15-1.46h0l1.15-1.47h0l1.15-1.48h0l1.15-1.49h0l1.15-1.5h0l1.15-1.51h0l1.15-1.52h0l1.15-1.53h0l1.15-1.54h0l1.15-1.55h0l1.15-1.56h0l1.15-1.57h0l1.15-1.58h0l1.15-1.6h0l1.15-1.61h0l1.15-1.62h0l1.15-1.63h0l1.15-1.64h0l1.15-1.65h0l1.15-1.66h0l1.15-1.67h0l1.15-1.68h0l1.15-1.69h0l1.15-1.71h0l1.15-1.72h0l1.15-1.73h0l1.15-1.74h0l1.15-1.75h0l1.15-1.76h0l1.15-1.77h0l1.15-1.79h0l1.15-1.8h0l1.15-1.81h0l1.15-1.82h0l1.15-1.83h0l1.15-1.84h0l1.15-1.85h0l1.15-1.87h0l1.15-1.88h0l1.15-1.89h0l1.15-1.9h0l1.15-1.91h0l1.15-1.93h0l1.15-1.94h0l1.15-1.95h0l1.15-1.96h0l1.15-1.97h0l1.15-1.99h0l1.15-2h0l1.15-2.01h0l1.15-2.02h0l1.15-2.03h0l1.15-2.05h0l1.15-2.06h0l1.15-2.07h0l1.15-2.08h0l1.15-2.1h0l1.15-2.11h0l1.15-2.12h0l1.15-2.13h0l1.15-2.15h0l1.15-2.16h0l1.15-2.17h0l1.15-2.18h0l1.15-2.2h0l1.15-2.21h0l1.15-2.22h0l1.15-2.23h0l1.15-2.25h0l1.15-2.26h0l1.15-2.27h0l1.15-2.29h0l1.15-2.3h0l1.15-2.31h0l1.15-2.32h0l1.15-2.34h0l1.15-2.35h0l1.15-2.36h0l1.15-2.38h0l1.15-2.39h0l1.15-2.4h0l1.15-2.42h0l1.15-2.43h0l1.15-2.44h0l1.15-2.46h0l1.15-2.47h0l1.15-2.48h0l1.15-2.5h0l1.15-2.51h0l1.15-2.53h0l1.15-2.54h0l1.15-2.55h0l1.15-2.57h0l1.15-2.58h0l1.15-2.59h0l1.15-2.61h0l1.15-2.62h0l1.15-2.64h0l1.15-2.65h0l1.15-2.66h0l1.15-2.68h0l1.15-2.69h0l1.15-2.71h0l1.15-2.72h0l1.15-2.73h0l1.15-2.75h0l1.15-2.76h0l1.15-2.78h0l1.15-2.79h0l1.15-2.81h0l1.15-2.82h0l1.15-2.83h0l1.15-2.85h0l1.15-2.86h0l1.15-2.88h0l1.15-2.89h0l1.15-2.91h0l1.15-2.92h0l1.15-2.94h0l1.15-2.95h0l1.15-2.97h0l1.15-2.98h0l1.15-2.99h0l1.15-3.01h0l1.15-3.02h0l1.15-3.04h0l1.15-3.05h0l1.15-3.07h0l1.15-3.08h0l1.15-3.1h0l1.15-3.11h0l1.15-3.13h0l1.15-3.15h0l1.15-3.16h0l1.15-3.18h0l1.15-3.19h0l1.15-3.21h0l1.15-3.22h0l1.15-3.24h0l1.15-3.25h0l1.15-3.27h0l1.15-3.28h0l1.15-3.3h0l1.15-3.31h0l1.15-3.33h0l1.15-3.35h0l1.15-3.36h0l1.15-3.38h0l1.15-3.39h0l1.15-3.41h0l1.15-3.42h0l1.15-3.44h0l1.15-3.46h0l1.15-3.47h0l1.15-3.49h0l1.15-3.5h0l1.15-3.52h0l1.15-3.54h0l1.15-3.55h0l1.15-3.57h0l1.15-3.59h0l1.15-3.6h0l1.15-3.62h0l1.15-3.63h0l1.15-3.65h0l1.15-3.67h0l1.15-3.68h0l1.15-3.7h0l1.15-3.72h0l1.15-3.73h0l1.15-3.75h0l1.15-3.77h0l1.15-3.78h0l1.15-3.8h0l1.15-3.82h0l1.15-3.83h0l1.15-3.85h0l1.15-3.87h0l1.15-3.88h0l1.15-3.9h0l1.15-3.92h0l1.15-3.93h0l1.15-3.95h0l1.15-3.97h0l1.15-3.99h0l1.15-4h0l1.15-4.02h0l1.15-4.04h0l1.15-4.05h0l1.15-4.07h0l1.15-4.09h0l1.15-4.11h0l1.15-4.12h0l1.15-4.14h0l1.15-4.16h0l1.15-4.18h0l1.15-4.19h0l1.15-4.21h0l1.15-4.23h0l1.15-4.25h0l1.15-4.26h0l1.15-4.28h0l1.15-4.3h0l1.15-4.32h0l1.15-4.34h0l1.15-4.35h0l1.15-4.37h0l1.15-4.39h0l1.15-4.41h0l1.15-4.43h0l1.15-4.44h0l1.15-4.46h0l1.15-4.48h0l1.15-4.5h0l1.15-4.52h0l1.15-4.53h0l1.15-4.55h0l1.15-4.57h0l1.15-4.59h0l1.15-4.61h0l1.15-4.63h0l1.15-4.64h0l1.15-4.66h0l1.15-4.68h0l1.15-4.7h0l1.15-4.72h0l1.15-4.74h0l1.15-4.76h0l1.15-4.77h0l1.15-4.79h0l1.15-4.81h0l1.15-4.83h0l1.15-4.85h0l1.15-4.87h0l1.15-4.89h0l1.15-4.91h0l1.15-4.93h0l1.15-4.94h0l1.15-4.96h0l1.15-4.98h0l1.15-5h0l1.15-5.02h0l1.15-5.04h0l1.15-5.06h0l1.15-5.08h0l1.15-5.1h0l1.15-5.12h0l1.15-5.14h0l1.15-5.16h0l1.15-5.18h0l1.15-5.2h0l1.15-5.22h0l1.15-5.24h0l1.15-5.25h0l1.15-5.27h0l1.15-5.29h0l1.15-5.31h0l1.15-5.33h0l1.15-5.35h0l1.15-5.37h0l1.15-5.39h0l1.15-5.41h0l1.15-5.43h0l1.15-5.45h0l1.15-5.47h0l1.15-5.49h0l1.15-5.51h0l1.15-5.53h0l1.15-5.55h0l1.15-5.57h0l1.15-5.59h0l1.15-5.61h0l1.15-5.63h0l1.15-5.66h0l1.15-5.68h0l1.15-5.7h0l1.15-5.72h0l1.15-5.74h0l1.15-5.76h0l1.15-5.78h0l1.15-5.8h0l1.15-5.82h0l1.15-5.84h0l1.15-5.86h0l1.15-5.88h0l1.15-5.9h0l1.15-5.92h0l1.15-5.94h0l1.15-5.97h0l1.15-5.99h0l1.15-6.01h0l1.15-6.03h0l1.15-6.05h0l1.15-6.07h0l1.15-6.09h0l1.15-6.11h0l1.15-6.13h0l1.15-6.16h0l1.15-6.18h0l1.15-6.2h0l1.15-6.22h0l1.15-6.24h0l1.15-6.26h0l1.15-6.28h0l1.15-6.31h0l1.15-6.33h0l1.15-6.35h0l1.15-6.37h0l1.15-6.39h0l1.15-6.41h0l1.15-6.44h0l1.15-6.46h0l1.15-6.48h0l1.15-6.5h0l1.15-6.52h0l1.15-6.54h0l1.15-6.57h0l1.15-6.59h0l1.15-6.61h0l1.15-6.63h0l1.15-6.65h0l1.15-6.68h0l1.15-6.7h0l1.15-6.72h0l1.15-6.74h0l1.15-6.77h0l1.15-6.79h0l1.15-6.81h0l1.15-6.83h0l1.15-6.85h0l1.15-6.88h0l1.15-6.9h0l1.15-6.92h0l1.15-6.95h0l1.15-6.97h0l1.15-6.99h0l1.15-7.01h0l1.15-7.04h0l1.15-7.06h0l1.15-7.08h0l1.15-7.1h0l1.15-7.13h0l1.15-7.15h0l1.15-7.17h0l1.15-7.2h0l1.15-7.22h0l1.15-7.24h0l1.15-7.27h0l1.15-7.29h0l1.15-7.31h0l1.15-7.33h0l1.15-7.36h0l1.15-7.38h0l1.15-7.4h0l1.15-7.43h0l1.15-7.45h0l1.15-7.47h0l1.15-7.5h0l1.15-7.52h0l1.15-7.55h0l1.15-7.57h0l1.15-7.59h0l1.15-7.62h0l1.15-7.64h0l1.15-7.66h0l1.15-7.69h0l1.15-7.71h0l1.15-7.73h0l1.15-7.76h0l1.15-7.78h0l1.15-7.81h0l1.15-7.83h0l1.15-7.85h0l1.15-7.88h0l1.15-7.9h0l1.15-7.93h0l1.15-7.95h0l1.15-7.98h0l1.15-8h0l1.15-8.02h0l1.15-8.05h0l1.15-8.07h0l1.15-8.1h0l1.15-8.12h0l1.15-8.15h0l1.15-8.17h0l1.15-8.19h0l1.15-8.22h0l1.15-8.24h0l1.15-8.27h0l1.15-8.29h0l1.15-8.32h0l1.15-8.34h0l1.15-8.37h0l1.15-8.39h0l1.15-8.42h0l1.15-8.44h0l1.15-8.47h0l1.15-8.49h0l1.15-8.52h0l1.15-8.54h0l1.15-8.57h0l1.15-8.59h0l1.15-8.62h0l1.15-8.64h0l1.15-8.67h0l1.15-8.69h0l1.15-8.72h0l1.15-8.74h0l1.15-8.77h0l1.15-8.79h0l1.15-8.82h0l1.15-8.85h0l1.15-8.87h0l1.15-8.9h0l1.15-8.92h0l1.15-8.95h0l1.15-8.97h0l1.15-9h0l1.15-9.02h0l1.15-9.05h0l1.15-9.08h0l1.15-9.1h0l1.15-9.13h0l1.15-9.15h0l1.15-9.18h0l1.15-9.21h0l1.15-9.23h0l1.15-9.26h0l1.15-9.28h0l1.15-9.31h0l1.15-9.34h0l1.15-9.36h0l1.15-9.39h0l1.15-9.42h0l1.15-9.44h0l1.15-9.47h0l1.15-9.49h0l1.15-9.52h0l1.15-9.55h0l1.15-9.57h0l1.15-9.6h0l1.15-9.63h0l1.15-9.65h0l1.15-9.68h0l1.15-9.71h0l1.15-9.73h0l1.15-9.76h0l1.15-9.79h0l1.15-9.81h0l1.15-9.84h0l1.15-9.87h0l1.15-9.89h0l1.15-9.92h0l1.15-9.95h0l1.15-9.98"/>
        </g>
      </g>
    </g>
    <g class="uuid-f10f904e-8ebc-4469-9f01-557477b7c81d">
      <g class="uuid-cab33b02-8922-4f60-9580-36d599c3d683">
        <path class="uuid-e6fc960b-4115-4fcc-bc30-d1baef548071" d="m-1.85-2532.39v5.16h0l1.15,5.15h0l1.15,5.13H.44l1.15,5.12h0l1.15,5.11h0l1.15,5.09h0l1.15,5.08h0l1.15,5.06h0l1.15,5.05h0l1.15,5.04h0l1.15,5.02h0l1.15,5.01h0l1.15,5h0l1.15,4.98h0l1.15,4.97h0l1.15,4.95h0l1.15,4.94h0l1.15,4.93h0l1.15,4.91h0l1.15,4.9h0l1.15,4.88h0l1.15,4.87h0l1.15,4.86h0l1.15,4.84h0l1.15,4.83h0l1.15,4.82h0l1.15,4.8h0l1.15,4.79h0l1.15,4.78h0l1.15,4.76h0l1.15,4.75h0l1.15,4.74h0l1.15,4.72h0l1.15,4.71h0l1.15,4.69h0l1.15,4.68h0l1.15,4.67h0l1.15,4.65h0l1.15,4.64h0l1.15,4.63h0l1.15,4.61h0l1.15,4.6h0l1.15,4.59h0l1.15,4.57h0l1.15,4.56h0l1.15,4.55h0l1.15,4.53h0l1.15,4.52h0l1.15,4.51h0l1.15,4.5h0l1.15,4.48h0l1.15,4.47h0l1.15,4.46h0l1.15,4.44h0l1.15,4.43h0l1.15,4.42h0l1.15,4.4h0l1.15,4.39h0l1.15,4.38h0l1.15,4.36h0l1.15,4.35h0l1.15,4.34h0l1.15,4.33h0l1.15,4.31h0l1.15,4.3h0l1.15,4.29h0l1.15,4.27h0l1.15,4.26h0l1.15,4.25h0l1.15,4.24h0l1.15,4.22h0l1.15,4.21h0l1.15,4.2h0l1.15,4.18h0l1.15,4.17h0l1.15,4.16h0l1.15,4.15h0l1.15,4.13h0l1.15,4.12h0l1.15,4.11h0l1.15,4.1h0l1.15,4.08h0l1.15,4.07h0l1.15,4.06h0l1.15,4.05h0l1.15,4.03h0l1.15,4.02h0l1.15,4.01h0l1.15,4h0l1.15,3.98h0l1.15,3.97h0l1.15,3.96h0l1.15,3.95h0l1.15,3.93h0l1.15,3.92h0l1.15,3.91h0l1.15,3.9h0l1.15,3.89h0l1.15,3.87h0l1.15,3.86h0l1.15,3.85h0l1.15,3.84h0l1.15,3.82h0l1.15,3.81h0l1.15,3.8h0l1.15,3.79h0l1.15,3.78h0l1.15,3.76h0l1.15,3.75h0l1.15,3.74h0l1.15,3.73h0l1.15,3.72h0l1.15,3.7h0l1.15,3.69h0l1.15,3.68h0l1.15,3.67h0l1.15,3.66h0l1.15,3.64h0l1.15,3.63h0l1.15,3.62h0l1.15,3.61h0l1.15,3.6h0l1.15,3.59h0l1.15,3.57h0l1.15,3.56h0l1.15,3.55h0l1.15,3.54h0l1.15,3.53h0l1.15,3.52h0l1.15,3.5h0l1.15,3.49h0l1.15,3.48h0l1.15,3.47h0l1.15,3.46h0l1.15,3.45h0l1.15,3.43h0l1.15,3.42h0l1.15,3.41h0l1.15,3.4h0l1.15,3.39h0l1.15,3.38h0l1.15,3.37h0l1.15,3.35h0l1.15,3.34h0l1.15,3.33h0l1.15,3.32h0l1.15,3.31h0l1.15,3.3h0l1.15,3.29h0l1.15,3.28h0l1.15,3.26h0l1.15,3.25h0l1.15,3.24h0l1.15,3.23h0l1.15,3.22h0l1.15,3.21h0l1.15,3.2h0l1.15,3.19h0l1.15,3.18h0l1.15,3.16h0l1.15,3.15h0l1.15,3.14h0l1.15,3.13h0l1.15,3.12h0l1.15,3.11h0l1.15,3.1h0l1.15,3.09h0l1.15,3.08h0l1.15,3.07h0l1.15,3.05h0l1.15,3.04h0l1.15,3.03h0l1.15,3.02h0l1.15,3.01h0l1.15,3h0l1.15,2.99h0l1.15,2.98h0l1.15,2.97h0l1.15,2.96h0l1.15,2.95h0l1.15,2.94h0l1.15,2.93h0l1.15,2.92h0l1.15,2.9h0l1.15,2.89h0l1.15,2.88h0l1.15,2.87h0l1.15,2.86h0l1.15,2.85h0l1.15,2.84h0l1.15,2.83h0l1.15,2.82h0l1.15,2.81h0l1.15,2.8h0l1.15,2.79h0l1.15,2.78h0l1.15,2.77h0l1.15,2.76h0l1.15,2.75h0l1.15,2.74h0l1.15,2.73h0l1.15,2.72h0l1.15,2.71h0l1.15,2.7h0l1.15,2.69h0l1.15,2.68h0l1.15,2.67h0l1.15,2.66h0l1.15,2.65h0l1.15,2.64h0l1.15,2.63h0l1.15,2.62h0l1.15,2.61h0l1.15,2.6h0l1.15,2.59h0l1.15,2.58h0l1.15,2.57h0l1.15,2.56h0l1.15,2.55h0l1.15,2.54h0l1.15,2.53h0l1.15,2.52h0l1.15,2.51h0l1.15,2.5h0l1.15,2.49h0l1.15,2.48h0l1.15,2.47h0l1.15,2.46h0l1.15,2.45h0l1.15,2.44h0l1.15,2.43h0l1.15,2.42h0l1.15,2.41h0l1.15,2.4h0l1.15,2.39h0l1.15,2.38h0l1.15,2.37h0l1.15,2.36h0l1.15,2.35h0l1.15,2.34h0l1.15,2.33h0l1.15,2.32h0l1.15,2.31h0l1.15,2.3h0l1.15,2.3h0l1.15,2.29h0l1.15,2.28h0l1.15,2.27h0l1.15,2.26h0l1.15,2.25h0l1.15,2.24h0l1.15,2.23h0l1.15,2.22h0l1.15,2.21h0l1.15,2.2h0l1.15,2.19h0l1.15,2.18h0l1.15,2.17h0l1.15,2.17h0l1.15,2.16h0l1.15,2.15h0l1.15,2.14h0l1.15,2.13h0l1.15,2.12h0l1.15,2.11h0l1.15,2.1h0l1.15,2.09h0l1.15,2.08h0l1.15,2.07h0l1.15,2.07h0l1.15,2.06h0l1.15,2.05h0l1.15,2.04h0l1.15,2.03h0l1.15,2.02h0l1.15,2.01h0l1.15,2h0l1.15,2h0l1.15,1.99h0l1.15,1.98h0l1.15,1.97h0l1.15,1.96h0l1.15,1.95h0l1.15,1.94h0l1.15,1.93h0l1.15,1.93h0l1.15,1.92h0l1.15,1.91h0l1.15,1.9h0l1.15,1.89h0l1.15,1.88h0l1.15,1.87h0l1.15,1.87h0l1.15,1.86h0l1.15,1.85h0l1.15,1.84h0l1.15,1.83h0l1.15,1.82h0l1.15,1.82h0l1.15,1.81h0l1.15,1.8h0l1.15,1.79h0l1.15,1.78h0l1.15,1.77h0l1.15,1.77h0l1.15,1.76h0l1.15,1.75h0l1.15,1.74h0l1.15,1.73h0l1.15,1.72h0l1.15,1.72h0l1.15,1.71h0l1.15,1.7h0l1.15,1.69h0l1.15,1.68h0l1.15,1.68h0l1.15,1.67h0l1.15,1.66h0l1.15,1.65h0l1.15,1.64h0l1.15,1.64h0l1.15,1.63h0l1.15,1.62h0l1.15,1.61h0l1.15,1.6h0l1.15,1.6h0l1.15,1.59h0l1.15,1.58h0l1.15,1.57h0l1.15,1.57h0l1.15,1.56h0l1.15,1.55h0l1.15,1.54h0l1.15,1.53h0l1.15,1.53h0l1.15,1.52h0l1.15,1.51h0l1.15,1.5h0l1.15,1.5h0l1.15,1.49h0l1.15,1.48h0l1.15,1.47h0l1.15,1.47h0l1.15,1.46h0l1.15,1.45h0l1.15,1.44h0l1.15,1.44h0l1.15,1.43h0l1.15,1.42h0l1.15,1.41h0l1.15,1.41h0l1.15,1.4h0l1.15,1.39h0l1.15,1.38h0l1.15,1.38h0l1.15,1.37h0l1.15,1.36h0l1.15,1.36h0l1.15,1.35h0l1.15,1.34h0l1.15,1.33h0l1.15,1.33h0l1.15,1.32h0l1.15,1.31h0l1.15,1.31h0l1.15,1.3h0l1.15,1.29h0l1.15,1.28h0l1.15,1.28h0l1.15,1.27h0l1.15,1.26h0l1.15,1.26h0l1.15,1.25h0l1.15,1.24h0l1.15,1.24h0l1.15,1.23h0l1.15,1.22h0l1.15,1.21h0l1.15,1.21h0l1.15,1.2h0l1.15,1.19h0l1.15,1.19h0l1.15,1.18h0l1.15,1.17h0l1.15,1.17h0l1.15,1.16h0l1.15,1.15h0l1.15,1.15h0l1.15,1.14h0l1.15,1.13h0l1.15,1.13h0l1.15,1.12h0l1.15,1.11h0l1.15,1.11h0l1.15,1.1h0l1.15,1.09h0l1.15,1.09h0l1.15,1.08h0l1.15,1.08h0l1.15,1.07h0l1.15,1.06h0l1.15,1.06h0l1.15,1.05h0l1.15,1.04h0l1.15,1.04h0l1.15,1.03h0l1.15,1.02h0l1.15,1.02h0l1.15,1.01h0l1.15,1.01h0l1.15,1h0l1.15.99h0l1.15.99h0l1.15.98h0l1.15.97h0l1.15.97h0l1.15.96h0l1.15.96h0l1.15.95h0l1.15.94h0l1.15.94h0l1.15.93h0l1.15.93h0l1.15.92h0l1.15.91h0l1.15.91h0l1.15.9h0l1.15.9h0l1.15.89h0l1.15.89h0l1.15.88h0l1.15.87h0l1.15.87h0l1.15.86h0l1.15.86h0l1.15.85h0l1.15.84h0l1.15.84h0l1.15.83h0l1.15.83h0l1.15.82h0l1.15.82h0l1.15.81h0l1.15.81h0l1.15.8h0l1.15.79h0l1.15.79h0l1.15.78h0l1.15.78h0l1.15.77h0l1.15.77h0l1.15.76h0l1.15.76h0l1.15.75h0l1.15.75h0l1.15.74h0l1.15.73h0l1.15.73h0l1.15.72h0l1.15.72h0l1.15.71h0l1.15.71h0l1.15.7h0l1.15.7h0l1.15.69h0l1.15.69h0l1.15.68h0l1.15.68h0l1.15.67h0l1.15.67h0l1.15.66h0l1.15.66h0l1.15.65h0l1.15.65h0l1.15.64h0l1.15.64h0l1.15.63h0l1.15.63h0l1.15.62h0l1.15.62h0l1.15.61h0l1.15.61h0l1.15.6h0l1.15.6h0l1.15.59h0l1.15.59h0l1.15.58h0l1.15.58h0l1.15.57h0l1.15.57h0l1.15.56h0l1.15.56h0l1.15.56h0l1.15.55h0l1.15.55h0l1.15.54h0l1.15.54h0l1.15.53h0l1.15.53h0l1.15.52h0l1.15.52h0l1.15.51h0l1.15.51h0l1.15.51h0l1.15.5h0l1.15.5h0l1.15.49h0l1.15.49h0l1.15.48h0l1.15.48h0l1.15.48h0l1.15.47h0l1.15.47h0l1.15.46h0l1.15.46h0l1.15.45h0l1.15.45h0l1.15.45h0l1.15.44h0l1.15.44h0l1.15.43h0l1.15.43h0l1.15.43h0l1.15.42h0l1.15.42h0l1.15.41h0l1.15.41h0l1.15.41h0l1.15.4h0l1.15.4h0l1.15.39h0l1.15.39h0l1.15.39h0l1.15.38h0l1.15.38h0l1.15.37h0l1.15.37h0l1.15.37h0l1.15.36h0l1.15.36h0l1.15.36h0l1.15.35h0l1.15.35h0l1.15.34h0l1.15.34h0l1.15.34h0l1.15.33h0l1.15.33h0l1.15.33h0l1.15.32h0l1.15.32h0l1.15.32h0l1.15.31h0l1.15.31h0l1.15.31h0l1.15.3h0l1.15.3h0l1.15.3h0l1.15.29h0l1.15.29h0l1.15.29h0l1.15.28h0l1.15.28h0l1.15.28h0l1.15.27h0l1.15.27h0l1.15.27h0l1.15.26h0l1.15.26h0l1.15.26h0l1.15.25h0l1.15.25h0l1.15.25h0l1.15.24h0l1.15.24h0l1.15.24h0l1.15.23h0l1.15.23h0l1.15.23h0l1.15.23h0l1.15.22h0l1.15.22h0l1.15.22h0l1.15.21h0l1.15.21h0l1.15.21h0l1.15.21h0l1.15.2h0l1.15.2h0l1.15.2h0l1.15.19h0l1.15.19h0l1.15.19h0l1.15.19h0l1.15.18h0l1.15.18h0l1.15.18h0l1.15.18h0l1.15.17h0l1.15.17h0l1.15.17h0l1.15.17h0l1.15.16h0l1.15.16h0l1.15.16h0l1.15.16h0l1.15.15h0l1.15.15h0l1.15.15h0l1.15.15h0l1.15.14h0l1.15.14h0l1.15.14h0l1.15.14h0l1.15.13h0l1.15.13h0l1.15.13h0l1.15.13h0l1.15.13h0l1.15.12h0l1.15.12h0l1.15.12h0l1.15.12h0l1.15.11h0l1.15.11h0l1.15.11h0l1.15.11h0l1.15.11h0l1.15.1h0l1.15.1h0l1.15.1h0l1.15.1h0l1.15.1h0l1.15.09h0l1.15.09h0l1.15.09h0l1.15.09h0l1.15.09h0l1.15.09h0l1.15.08h0l1.15.08h0l1.15.08h0l1.15.08h0l1.15.08h0l1.15.07h0l1.15.07h0l1.15.07h0l1.15.07h0l1.15.07h0l1.15.07h0l1.15.06h0l1.15.06h0l1.15.06h0l1.15.06h0l1.15.06h0l1.15.06h0l1.15.06h0l1.15.05h0l1.15.05h0l1.15.05h0l1.15.05h0l1.15.05h0l1.15.05h0l1.15.05h0l1.15.04h0l1.15.04h0l1.15.04h0l1.15.04h0l1.15.04h0l1.15.04h0l1.15.04h0l1.15.04h0l1.15.03h0l1.15.03h0l1.15.03h0l1.15.03h0l1.15.03h0l1.15.03h0l1.15.03h0l1.15.03h0l1.15.03h0l1.15.03h0l1.15.02h0l1.15.02h0l1.15.02h0l1.15.02h0l1.15.02h0l1.15.02h0l1.15.02h0l1.15.02h0l1.15.02h0l1.15.02h0l1.15.02h1.15s1.15.03,1.15.03h1.15s1.15.03,1.15.03h1.15s1.15.02,1.15.02h1.15s1.15.02,1.15.02h1.15s1.15.02,1.15.02h1.15s1.15.02,1.15.02h1.15s1.15.01,1.15.01h1.15s1.15.01,1.15.01h1.15s1.15,0,1.15,0h1.15s1.15,0,1.15,0h1.15s1.15,0,1.15,0h1.15s1.15,0,1.15,0h1.15s1.15,0,1.15,0h1.15s1.15,0,1.15,0h1.15s1.15,0,1.15,0h1.15s1.15,0,1.15,0h1.15s1.15,0,1.15,0h1.15s1.15,0,1.15,0h1.15s1.15,0,1.15,0h1.15s1.15,0,1.15,0h2.29s1.15,0,1.15,0h1.15s1.15,0,1.15,0h1.15s1.15,0,1.15,0h1.15s1.15,0,1.15,0h1.15s1.15,0,1.15,0h1.15s1.15,0,1.15,0h1.15s1.15,0,1.15,0h1.15s1.15,0,1.15,0h1.15s1.15,0,1.15,0h1.15s1.15,0,1.15,0h1.15s1.15,0,1.15,0h1.15s1.15.01,1.15.01h1.15s1.15.01,1.15.01h1.15s1.15.02,1.15.02h1.15s1.15.02,1.15.02h1.15s1.15.02,1.15.02h1.15s1.15.02,1.15.02h1.15s1.15.03,1.15.03h1.15s1.15.03,1.15.03h0l1.15.02h0l1.15.02h0l1.15.02h0l1.15.02h0l1.15.02h0l1.15.02h0l1.15.02h0l1.15.02h0l1.15.02h0l1.15.02h0l1.15.02h0l1.15.02h0l1.15.03h0l1.15.03h0l1.15.03h0l1.15.03h0l1.15.03h0l1.15.03h0l1.15.03h0l1.15.03h0l1.15.03h0l1.15.04h0l1.15.04h0l1.15.04h0l1.15.04h0l1.15.04h0l1.15.04h0l1.15.04h0l1.15.04h0l1.15.05h0l1.15.05h0l1.15.05h0l1.15.05h0l1.15.05h0l1.15.05h0l1.15.05h0l1.15.06h0l1.15.06h0l1.15.06h0l1.15.06h0l1.15.06h0l1.15.06h0l1.15.06h0l1.15.07h0l1.15.07h0l1.15.07h0l1.15.07h0l1.15.07h0l1.15.07h0l1.15.08h0l1.15.08h0l1.15.08h0l1.15.08h0l1.15.08h0l1.15.08h0l1.15.09h0l1.15.09h0l1.15.09h0l1.15.09h0l1.15.09h0l1.15.1h0l1.15.1h0l1.15.1h0l1.15.1h0l1.15.1h0l1.15.11h0l1.15.11h0l1.15.11h0l1.15.11h0l1.15.11h0l1.15.12h0l1.15.12h0l1.15.12h0l1.15.12h0l1.15.12h0l1.15.13h0l1.15.13h0l1.15.13h0l1.15.13h0l1.15.14h0l1.15.14h0l1.15.14h0l1.15.14h0l1.15.15h0l1.15.15h0l1.15.15h0l1.15.15h0l1.15.16h0l1.15.16h0l1.15.16h0l1.15.16h0l1.15.17h0l1.15.17h0l1.15.17h0l1.15.17h0l1.15.18h0l1.15.18h0l1.15.18h0l1.15.18h0l1.15.19h0l1.15.19h0l1.15.19h0l1.15.19h0l1.15.2h0l1.15.2h0l1.15.2h0l1.15.21h0l1.15.21h0l1.15.21h0l1.15.21h0l1.15.22h0l1.15.22h0l1.15.22h0l1.15.23h0l1.15.23h0l1.15.23h0l1.15.23h0l1.15.24h0l1.15.24h0l1.15.24h0l1.15.25h0l1.15.25h0l1.15.25h0l1.15.26h0l1.15.26h0l1.15.26h0l1.15.27h0l1.15.27h0l1.15.27h0l1.15.27h0l1.15.28h0l1.15.28h0l1.15.28h0l1.15.29h0l1.15.29h0l1.15.29h0l1.15.3h0l1.15.3h0l1.15.3h0l1.15.31h0l1.15.31h0l1.15.32h0l1.15.32h0l1.15.32h0l1.15.33h0l1.15.33h0l1.15.33h0l1.15.34h0l1.15.34h0l1.15.34h0l1.15.35h0l1.15.35h0l1.15.35h0l1.15.36h0l1.15.36h0l1.15.37h0l1.15.37h0l1.15.37h0l1.15.38h0l1.15.38h0l1.15.38h0l1.15.39h0l1.15.39h0l1.15.4h0l1.15.4h0l1.15.4h0l1.15.41h0l1.15.41h0l1.15.42h0l1.15.42h0l1.15.42h0l1.15.43h0l1.15.43h0l1.15.44h0l1.15.44h0l1.15.44h0l1.15.45h0l1.15.45h0l1.15.46h0l1.15.46h0l1.15.47h0l1.15.47h0l1.15.47h0l1.15.48h0l1.15.48h0l1.15.49h0l1.15.49h0l1.15.5h0l1.15.5h0l1.15.5h0l1.15.51h0l1.15.51h0l1.15.52h0l1.15.52h0l1.15.53h0l1.15.53h0l1.15.54h0l1.15.54h0l1.15.55h0l1.15.55h0l1.15.55h0l1.15.56h0l1.15.56h0l1.15.57h0l1.15.57h0l1.15.58h0l1.15.58h0l1.15.59h0l1.15.59h0l1.15.6h0l1.15.6h0l1.15.61h0l1.15.61h0l1.15.62h0l1.15.62h0l1.15.63h0l1.15.63h0l1.15.64h0l1.15.64h0l1.15.65h0l1.15.65h0l1.15.66h0l1.15.66h0l1.15.67h0l1.15.67h0l1.15.68h0l1.15.68h0l1.15.69h0l1.15.69h0l1.15.7h0l1.15.7h0l1.15.71h0l1.15.71h0l1.15.72h0l1.15.72h0l1.15.73h0l1.15.73h0l1.15.74h0l1.15.74h0l1.15.75h0l1.15.75h0l1.15.76h0l1.15.77h0l1.15.77h0l1.15.78h0l1.15.78h0l1.15.79h0l1.15.79h0l1.15.8h0l1.15.8h0l1.15.81h0l1.15.82h0l1.15.82h0l1.15.83h0l1.15.83h0l1.15.84h0l1.15.84h0l1.15.85h0l1.15.85h0l1.15.86h0l1.15.87h0l1.15.87h0l1.15.88h0l1.15.88h0l1.15.89h0l1.15.9h0l1.15.9h0l1.15.91h0l1.15.91h0l1.15.92h0l1.15.93h0l1.15.93h0l1.15.94h0l1.15.94h0l1.15.95h0l1.15.96h0l1.15.96h0l1.15.97h0l1.15.97h0l1.15.98h0l1.15.99h0l1.15.99h0l1.15,1h0l1.15,1h0l1.15,1.01h0l1.15,1.02h0l1.15,1.02h0l1.15,1.03h0l1.15,1.04h0l1.15,1.04h0l1.15,1.05h0l1.15,1.05h0l1.15,1.06h0l1.15,1.07h0l1.15,1.07h0l1.15,1.08h0l1.15,1.09h0l1.15,1.09h0l1.15,1.1h0l1.15,1.11h0l1.15,1.11h0l1.15,1.12h0l1.15,1.13h0l1.15,1.13h0l1.15,1.14h0l1.15,1.15h0l1.15,1.15h0l1.15,1.16h0l1.15,1.17h0l1.15,1.17h0l1.15,1.18h0l1.15,1.19h0l1.15,1.19h0l1.15,1.2h0l1.15,1.21h0l1.15,1.21h0l1.15,1.22h0l1.15,1.23h0l1.15,1.23h0l1.15,1.24h0l1.15,1.25h0l1.15,1.25h0l1.15,1.26h0l1.15,1.27h0l1.15,1.28h0l1.15,1.28h0l1.15,1.29h0l1.15,1.3h0l1.15,1.3h0l1.15,1.31h0l1.15,1.32h0l1.15,1.33h0l1.15,1.33h0l1.15,1.34h0l1.15,1.35h0l1.15,1.35h0l1.15,1.36h0l1.15,1.37h0l1.15,1.38h0l1.15,1.38h0l1.15,1.39h0l1.15,1.4h0l1.15,1.4h0l1.15,1.41h0l1.15,1.42h0l1.15,1.43h0l1.15,1.43h0l1.15,1.44h0l1.15,1.45h0l1.15,1.46h0l1.15,1.46h0l1.15,1.47h0l1.15,1.48h0l1.15,1.49h0l1.15,1.49h0l1.15,1.5h0l1.15,1.51h0l1.15,1.52h0l1.15,1.52h0l1.15,1.53h0l1.15,1.54h0l1.15,1.55h0l1.15,1.56h0l1.15,1.56h0l1.15,1.57h0l1.15,1.58h0l1.15,1.59h0l1.15,1.59h0l1.15,1.6h0l1.15,1.61h0l1.15,1.62h0l1.15,1.63h0l1.15,1.63h0l1.15,1.64h0l1.15,1.65h0l1.15,1.66h0l1.15,1.67h0l1.15,1.67h0l1.15,1.68h0l1.15,1.69h0l1.15,1.7h0l1.15,1.71h0l1.15,1.71h0l1.15,1.72h0l1.15,1.73h0l1.15,1.74h0l1.15,1.75h0l1.15,1.76h0l1.15,1.76h0l1.15,1.77h0l1.15,1.78h0l1.15,1.79h0l1.15,1.8h0l1.15,1.81h0l1.15,1.81h0l1.15,1.82h0l1.15,1.83h0l1.15,1.84h0l1.15,1.85h0l1.15,1.86h0l1.15,1.86h0l1.15,1.87h0l1.15,1.88h0l1.15,1.89h0l1.15,1.9h0l1.15,1.91h0l1.15,1.92h0l1.15,1.92h0l1.15,1.93h0l1.15,1.94h0l1.15,1.95h0l1.15,1.96h0l1.15,1.97h0l1.15,1.98h0l1.15,1.98h0l1.15,1.99h0l1.15,2h0l1.15,2.01h0l1.15,2.02h0l1.15,2.03h0l1.15,2.04h0l1.15,2.05h0l1.15,2.06h0l1.15,2.06h0l1.15,2.07h0l1.15,2.08h0l1.15,2.09h0l1.15,2.1h0l1.15,2.11h0l1.15,2.12h0l1.15,2.13h0l1.15,2.14h0l1.15,2.14h0l1.15,2.15h0l1.15,2.16h0l1.15,2.17h0l1.15,2.18h0l1.15,2.19h0l1.15,2.2h0l1.15,2.21h0l1.15,2.22h0l1.15,2.23h0l1.15,2.24h0l1.15,2.25h0l1.15,2.26h0l1.15,2.26h0l1.15,2.27h0l1.15,2.28h0l1.15,2.29h0l1.15,2.3h0l1.15,2.31h0l1.15,2.32h0l1.15,2.33h0l1.15,2.34h0l1.15,2.35h0l1.15,2.36h0l1.15,2.37h0l1.15,2.38h0l1.15,2.39h0l1.15,2.4h0l1.15,2.41h0l1.15,2.42h0l1.15,2.43h0l1.15,2.44h0l1.15,2.45h0l1.15,2.46h0l1.15,2.47h0l1.15,2.47h0l1.15,2.48h0l1.15,2.49h0l1.15,2.5h0l1.15,2.51h0l1.15,2.52h0l1.15,2.53h0l1.15,2.54h0l1.15,2.55h0l1.15,2.56h0l1.15,2.57h0l1.15,2.58h0l1.15,2.59h0l1.15,2.6h0l1.15,2.61h0l1.15,2.62h0l1.15,2.63h0l1.15,2.64h0l1.15,2.65h0l1.15,2.66h0l1.15,2.67h0l1.15,2.68h0l1.15,2.69h0l1.15,2.7h0l1.15,2.71h0l1.15,2.73h0l1.15,2.74h0l1.15,2.75h0l1.15,2.76h0l1.15,2.77h0l1.15,2.78h0l1.15,2.79h0l1.15,2.8h0l1.15,2.81h0l1.15,2.82h0l1.15,2.83h0l1.15,2.84h0l1.15,2.85h0l1.15,2.86h0l1.15,2.87h0l1.15,2.88h0l1.15,2.89h0l1.15,2.9h0l1.15,2.91h0l1.15,2.92h0l1.15,2.93h0l1.15,2.94h0l1.15,2.96h0l1.15,2.97h0l1.15,2.98h0l1.15,2.99h0l1.15,3h0l1.15,3.01h0l1.15,3.02h0l1.15,3.03h0l1.15,3.04h0l1.15,3.05h0l1.15,3.06h0l1.15,3.07h0l1.15,3.08h0l1.15,3.1h0l1.15,3.11h0l1.15,3.12h0l1.15,3.13h0l1.15,3.14h0l1.15,3.15h0l1.15,3.16h0l1.15,3.17h0l1.15,3.18h0l1.15,3.19h0l1.15,3.21h0l1.15,3.22h0l1.15,3.23h0l1.15,3.24h0l1.15,3.25h0l1.15,3.26h0l1.15,3.27h0l1.15,3.28h0l1.15,3.3h0l1.15,3.31h0l1.15,3.32h0l1.15,3.33h0l1.15,3.34h0l1.15,3.35h0l1.15,3.36h0l1.15,3.37h0l1.15,3.39h0l1.15,3.4h0l1.15,3.41h0l1.15,3.42h0l1.15,3.43h0l1.15,3.44h0l1.15,3.45h0l1.15,3.47h0l1.15,3.48h0l1.15,3.49h0l1.15,3.5h0l1.15,3.51h0l1.15,3.52h0l1.15,3.54h0l1.15,3.55h0l1.15,3.56h0l1.15,3.57h0l1.15,3.58h0l1.15,3.59h0l1.15,3.61h0l1.15,3.62h0l1.15,3.63h0l1.15,3.64h0l1.15,3.65h0l1.15,3.67h0l1.15,3.68h0l1.15,3.69h0l1.15,3.7h0l1.15,3.71h0l1.15,3.73h0l1.15,3.74h0l1.15,3.75h0l1.15,3.76h0l1.15,3.77h0l1.15,3.79h0l1.15,3.8h0l1.15,3.81h0l1.15,3.82h0l1.15,3.83h0l1.15,3.85h0l1.15,3.86h0l1.15,3.87h0l1.15,3.88h0l1.15,3.89h0l1.15,3.91h0l1.15,3.92h0l1.15,3.93h0l1.15,3.94h0l1.15,3.96h0l1.15,3.97h0l1.15,3.98h0l1.15,3.99h0l1.15,4.01h0l1.15,4.02h0l1.15,4.03h0l1.15,4.04h0l1.15,4.06h0l1.15,4.07h0l1.15,4.08h0l1.15,4.09h0l1.15,4.11h0l1.15,4.12h0l1.15,4.13h0l1.15,4.14h0l1.15,4.16h0l1.15,4.17h0l1.15,4.18h0l1.15,4.19h0l1.15,4.21h0l1.15,4.22h0l1.15,4.23h0l1.15,4.25h0l1.15,4.26h0l1.15,4.27h0l1.15,4.28h0l1.15,4.3h0l1.15,4.31h0l1.15,4.32h0l1.15,4.34h0l1.15,4.35h0l1.15,4.36h0l1.15,4.37h0l1.15,4.39h0l1.15,4.4h0l1.15,4.41h0l1.15,4.43h0l1.15,4.44h0l1.15,4.45h0l1.15,4.47h0l1.15,4.48h0l1.15,4.49h0l1.15,4.51h0l1.15,4.52h0l1.15,4.53h0l1.15,4.54h0l1.15,4.56h0l1.15,4.57h0l1.15,4.58h0l1.15,4.6h0l1.15,4.61h0l1.15,4.62h0l1.15,4.64h0l1.15,4.65h0l1.15,4.66h0l1.15,4.68h0l1.15,4.69h0l1.15,4.7h0l1.15,4.72h0l1.15,4.73h0l1.15,4.75h0l1.15,4.76h0l1.15,4.77h0l1.15,4.79h0l1.15,4.8h0l1.15,4.81h0l1.15,4.83h0l1.15,4.84h0l1.15,4.85h0l1.15,4.87h0l1.15,4.88h0l1.15,4.9h0l1.15,4.91h0l1.15,4.92h0l1.15,4.94h0l1.15,4.95h0l1.15,4.96h0l1.15,4.98h0l1.15,4.99h0l1.15,5.01h0l1.15,5.02h0l1.15,5.03h0l1.15,5.05h0l1.15,5.06h0l1.15,5.08h0l1.15,5.09h0l1.15,5.1h0l1.15,5.12h0l1.15,5.13h0l1.15,5.15h0l1.15,5.16h0l1.15,5.17h0l1.15,5.19h0l1.15,5.2h0l1.15,5.22h0l1.15,5.23h0l1.15,5.24"/>
      </g>
    </g>
  </g>
  <g id="uuid-fe22aa91-827a-4855-8d6a-7fa9c5d6d8a0" data-name="Marco">
    <path class="uuid-260f8649-3f52-4ac2-8552-97ab255993df" d="m0-2V1022h1680V-2H0Zm1663,987c0,11.05-8.95,20-20,20H37c-11.05,0-20-8.95-20-20V35c0-11.05,8.95-20,20-20h1606c11.05,0,20,8.95,20,20v950Z"/>
  </g>
</svg>