<?xml version="1.0" encoding="UTF-8"?>
<svg xmlns="http://www.w3.org/2000/svg" width="1680" height="1020" xmlns:xlink="http://www.w3.org/1999/xlink" viewBox="0 0 1680 1020">
  <defs>
    <style>
      .uuid-45517c51-2114-46fe-a7e8-38ccbba7343c {
        stroke: rgba(192, 192, 192, .24);
      }

      .uuid-45517c51-2114-46fe-a7e8-38ccbba7343c, .uuid-8e95549f-1374-4179-af3c-4accaa641a87, .uuid-dabd768f-5324-411c-a228-44d92729f44a, .uuid-c3ca7bf4-cc07-4550-92be-4f51e82762ae, .uuid-36ffdf82-48f7-4be7-ae0e-437d3bb1846f, .uuid-0b2c33f8-d678-40ca-b6f1-3ee417372970, .uuid-aef0db3f-fe20-4986-a214-72ab1d66085a, .uuid-93c5b2e1-d969-4b0b-a887-8920e38f152d, .uuid-e5216bf5-d4e2-4969-b997-5aa01a26761a, .uuid-5779f99a-a379-4063-903e-a6deb6738738, .uuid-d20c06ed-4422-4b02-aca3-e4a1db249ad9 {
        fill: none;
      }

      .uuid-45517c51-2114-46fe-a7e8-38ccbba7343c, .uuid-0b2c33f8-d678-40ca-b6f1-3ee417372970 {
        stroke-dasharray: 0 0 1.15 3.44;
        stroke-width: 1.15px;
      }

      .uuid-45517c51-2114-46fe-a7e8-38ccbba7343c, .uuid-0b2c33f8-d678-40ca-b6f1-3ee417372970, .uuid-d20c06ed-4422-4b02-aca3-e4a1db249ad9 {
        stroke-linejoin: round;
      }

      .uuid-a4dba695-b5ba-4f23-ba30-a9fef0adda33 {
        fill: #fff;
      }

      .uuid-8e95549f-1374-4179-af3c-4accaa641a87 {
        stroke: #606060;
        stroke-miterlimit: 10;
        stroke-width: 2.29px;
      }

      .uuid-dabd768f-5324-411c-a228-44d92729f44a {
        clip-path: url(#uuid-e0452a9a-a48b-4a3f-9713-6646722adf3a);
      }

      .uuid-c3ca7bf4-cc07-4550-92be-4f51e82762ae {
        clip-path: url(#uuid-de4669d2-f1b0-4008-8e2d-79b1a3418f8e);
      }

      .uuid-36ffdf82-48f7-4be7-ae0e-437d3bb1846f {
        clip-path: url(#uuid-0d556f63-d79b-485c-bfaa-94d30be16539);
      }

      .uuid-0b2c33f8-d678-40ca-b6f1-3ee417372970 {
        stroke: silver;
      }

      .uuid-aef0db3f-fe20-4986-a214-72ab1d66085a {
        stroke: #fff;
        stroke-linejoin: bevel;
        stroke-width: 3.44px;
      }

      .uuid-93c5b2e1-d969-4b0b-a887-8920e38f152d {
        isolation: isolate;
      }

      .uuid-1ad03f74-4089-413d-8d8f-1293af6a7633 {
        fill: #00699b;
      }

      .uuid-5779f99a-a379-4063-903e-a6deb6738738 {
        clip-path: url(#uuid-483841dd-98c0-4c98-a8d3-8da86a94e9f1);
      }

      .uuid-91cbf232-8090-4646-9e45-6c60e6a939e5, .uuid-ba542cf0-ce1e-4584-9fed-58aa40ddbb9d {
        fill: #606060;
      }

      .uuid-ba542cf0-ce1e-4584-9fed-58aa40ddbb9d {
        fill-rule: evenodd;
      }

      .uuid-d20c06ed-4422-4b02-aca3-e4a1db249ad9 {
        stroke: rgba(0, 0, 255, .7);
        stroke-linecap: round;
        stroke-width: 4.59px;
      }
    </style>
    <clipPath id="uuid-0d556f63-d79b-485c-bfaa-94d30be16539">
      <rect class="uuid-e5216bf5-d4e2-4969-b997-5aa01a26761a" y="1780.7" width="1680" height="1019.39"/>
    </clipPath>
    <clipPath id="uuid-e0452a9a-a48b-4a3f-9713-6646722adf3a">
      <rect class="uuid-e5216bf5-d4e2-4969-b997-5aa01a26761a" x="-3" y="1767.95" width="1686" height="1040.27"/>
    </clipPath>
    <clipPath id="uuid-de4669d2-f1b0-4008-8e2d-79b1a3418f8e">
      <rect class="uuid-e5216bf5-d4e2-4969-b997-5aa01a26761a" y="2.61" width="1680" height="1019.39"/>
    </clipPath>
    <clipPath id="uuid-483841dd-98c0-4c98-a8d3-8da86a94e9f1">
      <rect class="uuid-e5216bf5-d4e2-4969-b997-5aa01a26761a" x="-3" y="-10.14" width="1686" height="1040.27"/>
    </clipPath>
  </defs>
  <g id="uuid-23cab469-b6b6-4a8d-9743-a2272b8dd622" data-name="Grafica">
    <g class="uuid-36ffdf82-48f7-4be7-ae0e-437d3bb1846f">
      <g class="uuid-dabd768f-5324-411c-a228-44d92729f44a">
        <path class="uuid-d20c06ed-4422-4b02-aca3-e4a1db249ad9" d="m-1.85,294.23v9.86h0l1.15,9.84h0l1.15,9.81H.44l1.15,9.78h0l1.15,9.75h0l1.15,9.73h0l1.15,9.7h0l1.15,9.67h0l1.15,9.65h0l1.15,9.62h0l1.15,9.59h0l1.15,9.57h0l1.15,9.54h0l1.15,9.52h0l1.15,9.49h0l1.15,9.46h0l1.15,9.44h0l1.15,9.41h0l1.15,9.38h0l1.15,9.36h0l1.15,9.33h0l1.15,9.3h0l1.15,9.28h0l1.15,9.25h0l1.15,9.23h0l1.15,9.2h0l1.15,9.17h0l1.15,9.15h0l1.15,9.12h0l1.15,9.1h0l1.15,9.07h0l1.15,9.05h0l1.15,9.02h0l1.15,8.99h0l1.15,8.97h0l1.15,8.94h0l1.15,8.92h0l1.15,8.89h0l1.15,8.87h0l1.15,8.84h0l1.15,8.81h0l1.15,8.79h0l1.15,8.76h0l1.15,8.74h0l1.15,8.71h0l1.15,8.69h0l1.15,8.66h0l1.15,8.64h0l1.15,8.61h0l1.15,8.59h0l1.15,8.56h0l1.15,8.54h0l1.15,8.51h0l1.15,8.49h0l1.15,8.46h0l1.15,8.44h0l1.15,8.41h0l1.15,8.39h0l1.15,8.36h0l1.15,8.34h0l1.15,8.31h0l1.15,8.29h0l1.15,8.26h0l1.15,8.24h0l1.15,8.21h0l1.15,8.19h0l1.15,8.16h0l1.15,8.14h0l1.15,8.12h0l1.15,8.09h0l1.15,8.07h0l1.15,8.04h0l1.15,8.02h0l1.15,7.99h0l1.15,7.97h0l1.15,7.95h0l1.15,7.92h0l1.15,7.9h0l1.15,7.87h0l1.15,7.85h0l1.15,7.83h0l1.15,7.8h0l1.15,7.78h0l1.15,7.75h0l1.15,7.73h0l1.15,7.71h0l1.15,7.68h0l1.15,7.66h0l1.15,7.63h0l1.15,7.61h0l1.15,7.59h0l1.15,7.56h0l1.15,7.54h0l1.15,7.52h0l1.15,7.49h0l1.15,7.47h0l1.15,7.45h0l1.15,7.42h0l1.15,7.4h0l1.15,7.38h0l1.15,7.35h0l1.15,7.33h0l1.15,7.31h0l1.15,7.28h0l1.15,7.26h0l1.15,7.24h0l1.15,7.21h0l1.15,7.19h0l1.15,7.17h0l1.15,7.15h0l1.15,7.12h0l1.15,7.1h0l1.15,7.08h0l1.15,7.05h0l1.15,7.03h0l1.15,7.01h0l1.15,6.99h0l1.15,6.96h0l1.15,6.94h0l1.15,6.92h0l1.15,6.9h0l1.15,6.87h0l1.15,6.85h0l1.15,6.83h0l1.15,6.81h0l1.15,6.78h0l1.15,6.76h0l1.15,6.74h0l1.15,6.72h0l1.15,6.69h0l1.15,6.67h0l1.15,6.65h0l1.15,6.63h0l1.15,6.61h0l1.15,6.58h0l1.15,6.56h0l1.15,6.54h0l1.15,6.52h0l1.15,6.5h0l1.15,6.47h0l1.15,6.45h0l1.15,6.43h0l1.15,6.41h0l1.15,6.39h0l1.15,6.37h0l1.15,6.34h0l1.15,6.32h0l1.15,6.3h0l1.15,6.28h0l1.15,6.26h0l1.15,6.24h0l1.15,6.21h0l1.15,6.19h0l1.15,6.17h0l1.15,6.15h0l1.15,6.13h0l1.15,6.11h0l1.15,6.09h0l1.15,6.07h0l1.15,6.05h0l1.15,6.02h0l1.15,6h0l1.15,5.98h0l1.15,5.96h0l1.15,5.94h0l1.15,5.92h0l1.15,5.9h0l1.15,5.88h0l1.15,5.86h0l1.15,5.84h0l1.15,5.82h0l1.15,5.79h0l1.15,5.77h0l1.15,5.75h0l1.15,5.73h0l1.15,5.71h0l1.15,5.69h0l1.15,5.67h0l1.15,5.65h0l1.15,5.63h0l1.15,5.61h0l1.15,5.59h0l1.15,5.57h0l1.15,5.55h0l1.15,5.53h0l1.15,5.51h0l1.15,5.49h0l1.15,5.47h0l1.15,5.45h0l1.15,5.43h0l1.15,5.41h0l1.15,5.39h0l1.15,5.37h0l1.15,5.35h0l1.15,5.33h0l1.15,5.31h0l1.15,5.29h0l1.15,5.27h0l1.15,5.25h0l1.15,5.23h0l1.15,5.21h0l1.15,5.19h0l1.15,5.17h0l1.15,5.15h0l1.15,5.13h0l1.15,5.11h0l1.15,5.09h0l1.15,5.08h0l1.15,5.06h0l1.15,5.04h0l1.15,5.02h0l1.15,5h0l1.15,4.98h0l1.15,4.96h0l1.15,4.94h0l1.15,4.92h0l1.15,4.9h0l1.15,4.88h0l1.15,4.86h0l1.15,4.85h0l1.15,4.83h0l1.15,4.81h0l1.15,4.79h0l1.15,4.77h0l1.15,4.75h0l1.15,4.73h0l1.15,4.71h0l1.15,4.7h0l1.15,4.68h0l1.15,4.66h0l1.15,4.64h0l1.15,4.62h0l1.15,4.6h0l1.15,4.59h0l1.15,4.57h0l1.15,4.55h0l1.15,4.53h0l1.15,4.51h0l1.15,4.49h0l1.15,4.48h0l1.15,4.46h0l1.15,4.44h0l1.15,4.42h0l1.15,4.4h0l1.15,4.39h0l1.15,4.37h0l1.15,4.35h0l1.15,4.33h0l1.15,4.31h0l1.15,4.3h0l1.15,4.28h0l1.15,4.26h0l1.15,4.24h0l1.15,4.23h0l1.15,4.21h0l1.15,4.19h0l1.15,4.17h0l1.15,4.16h0l1.15,4.14h0l1.15,4.12h0l1.15,4.1h0l1.15,4.09h0l1.15,4.07h0l1.15,4.05h0l1.15,4.03h0l1.15,4.02h0l1.15,4h0l1.15,3.98h0l1.15,3.97h0l1.15,3.95h0l1.15,3.93h0l1.15,3.91h0l1.15,3.9h0l1.15,3.88h0l1.15,3.86h0l1.15,3.85h0l1.15,3.83h0l1.15,3.81h0l1.15,3.8h0l1.15,3.78h0l1.15,3.76h0l1.15,3.75h0l1.15,3.73h0l1.15,3.71h0l1.15,3.7h0l1.15,3.68h0l1.15,3.66h0l1.15,3.65h0l1.15,3.63h0l1.15,3.61h0l1.15,3.6h0l1.15,3.58h0l1.15,3.57h0l1.15,3.55h0l1.15,3.53h0l1.15,3.52h0l1.15,3.5h0l1.15,3.49h0l1.15,3.47h0l1.15,3.45h0l1.15,3.44h0l1.15,3.42h0l1.15,3.41h0l1.15,3.39h0l1.15,3.37h0l1.15,3.36h0l1.15,3.34h0l1.15,3.33h0l1.15,3.31h0l1.15,3.3h0l1.15,3.28h0l1.15,3.26h0l1.15,3.25h0l1.15,3.23h0l1.15,3.22h0l1.15,3.2h0l1.15,3.19h0l1.15,3.17h0l1.15,3.16h0l1.15,3.14h0l1.15,3.13h0l1.15,3.11h0l1.15,3.1h0l1.15,3.08h0l1.15,3.07h0l1.15,3.05h0l1.15,3.04h0l1.15,3.02h0l1.15,3.01h0l1.15,2.99h0l1.15,2.98h0l1.15,2.96h0l1.15,2.95h0l1.15,2.93h0l1.15,2.92h0l1.15,2.9h0l1.15,2.89h0l1.15,2.87h0l1.15,2.86h0l1.15,2.85h0l1.15,2.83h0l1.15,2.82h0l1.15,2.8h0l1.15,2.79h0l1.15,2.77h0l1.15,2.76h0l1.15,2.75h0l1.15,2.73h0l1.15,2.72h0l1.15,2.7h0l1.15,2.69h0l1.15,2.67h0l1.15,2.66h0l1.15,2.65h0l1.15,2.63h0l1.15,2.62h0l1.15,2.6h0l1.15,2.59h0l1.15,2.58h0l1.15,2.56h0l1.15,2.55h0l1.15,2.54h0l1.15,2.52h0l1.15,2.51h0l1.15,2.5h0l1.15,2.48h0l1.15,2.47h0l1.15,2.45h0l1.15,2.44h0l1.15,2.43h0l1.15,2.41h0l1.15,2.4h0l1.15,2.39h0l1.15,2.37h0l1.15,2.36h0l1.15,2.35h0l1.15,2.34h0l1.15,2.32h0l1.15,2.31h0l1.15,2.3h0l1.15,2.28h0l1.15,2.27h0l1.15,2.26h0l1.15,2.24h0l1.15,2.23h0l1.15,2.22h0l1.15,2.21h0l1.15,2.19h0l1.15,2.18h0l1.15,2.17h0l1.15,2.16h0l1.15,2.14h0l1.15,2.13h0l1.15,2.12h0l1.15,2.11h0l1.15,2.09h0l1.15,2.08h0l1.15,2.07h0l1.15,2.06h0l1.15,2.04h0l1.15,2.03h0l1.15,2.02h0l1.15,2.01h0l1.15,1.99h0l1.15,1.98h0l1.15,1.97h0l1.15,1.96h0l1.15,1.95h0l1.15,1.93h0l1.15,1.92h0l1.15,1.91h0l1.15,1.9h0l1.15,1.89h0l1.15,1.88h0l1.15,1.86h0l1.15,1.85h0l1.15,1.84h0l1.15,1.83h0l1.15,1.82h0l1.15,1.81h0l1.15,1.79h0l1.15,1.78h0l1.15,1.77h0l1.15,1.76h0l1.15,1.75h0l1.15,1.74h0l1.15,1.73h0l1.15,1.71h0l1.15,1.7h0l1.15,1.69h0l1.15,1.68h0l1.15,1.67h0l1.15,1.66h0l1.15,1.65h0l1.15,1.64h0l1.15,1.63h0l1.15,1.62h0l1.15,1.6h0l1.15,1.59h0l1.15,1.58h0l1.15,1.57h0l1.15,1.56h0l1.15,1.55h0l1.15,1.54h0l1.15,1.53h0l1.15,1.52h0l1.15,1.51h0l1.15,1.5h0l1.15,1.49h0l1.15,1.48h0l1.15,1.47h0l1.15,1.46h0l1.15,1.45h0l1.15,1.44h0l1.15,1.42h0l1.15,1.41h0l1.15,1.4h0l1.15,1.39h0l1.15,1.38h0l1.15,1.37h0l1.15,1.36h0l1.15,1.35h0l1.15,1.34h0l1.15,1.33h0l1.15,1.32h0l1.15,1.31h0l1.15,1.3h0l1.15,1.29h0l1.15,1.29h0l1.15,1.28h0l1.15,1.27h0l1.15,1.26h0l1.15,1.25h0l1.15,1.24h0l1.15,1.23h0l1.15,1.22h0l1.15,1.21h0l1.15,1.2h0l1.15,1.19h0l1.15,1.18h0l1.15,1.17h0l1.15,1.16h0l1.15,1.15h0l1.15,1.14h0l1.15,1.13h0l1.15,1.13h0l1.15,1.12h0l1.15,1.11h0l1.15,1.1h0l1.15,1.09h0l1.15,1.08h0l1.15,1.07h0l1.15,1.06h0l1.15,1.05h0l1.15,1.04h0l1.15,1.04h0l1.15,1.03h0l1.15,1.02h0l1.15,1.01h0l1.15,1h0l1.15.99h0l1.15.98h0l1.15.98h0l1.15.97h0l1.15.96h0l1.15.95h0l1.15.94h0l1.15.93h0l1.15.93h0l1.15.92h0l1.15.91h0l1.15.9h0l1.15.89h0l1.15.88h0l1.15.88h0l1.15.87h0l1.15.86h0l1.15.85h0l1.15.85h0l1.15.84h0l1.15.83h0l1.15.82h0l1.15.81h0l1.15.81h0l1.15.8h0l1.15.79h0l1.15.78h0l1.15.78h0l1.15.77h0l1.15.76h0l1.15.75h0l1.15.75h0l1.15.74h0l1.15.73h0l1.15.72h0l1.15.72h0l1.15.71h0l1.15.7h0l1.15.69h0l1.15.69h0l1.15.68h0l1.15.67h0l1.15.67h0l1.15.66h0l1.15.65h0l1.15.65h0l1.15.64h0l1.15.63h0l1.15.63h0l1.15.62h0l1.15.61h0l1.15.61h0l1.15.6h0l1.15.59h0l1.15.59h0l1.15.58h0l1.15.57h0l1.15.57h0l1.15.56h0l1.15.55h0l1.15.55h0l1.15.54h0l1.15.53h0l1.15.53h0l1.15.52h0l1.15.52h0l1.15.51h0l1.15.5h0l1.15.5h0l1.15.49h0l1.15.48h0l1.15.48h0l1.15.47h0l1.15.47h0l1.15.46h0l1.15.46h0l1.15.45h0l1.15.44h0l1.15.44h0l1.15.43h0l1.15.43h0l1.15.42h0l1.15.42h0l1.15.41h0l1.15.4h0l1.15.4h0l1.15.39h0l1.15.39h0l1.15.38h0l1.15.38h0l1.15.37h0l1.15.37h0l1.15.36h0l1.15.36h0l1.15.35h0l1.15.35h0l1.15.34h0l1.15.34h0l1.15.33h0l1.15.33h0l1.15.32h0l1.15.32h0l1.15.31h0l1.15.31h0l1.15.3h0l1.15.3h0l1.15.29h0l1.15.29h0l1.15.28h0l1.15.28h0l1.15.28h0l1.15.27h0l1.15.27h0l1.15.26h0l1.15.26h0l1.15.25h0l1.15.25h0l1.15.24h0l1.15.24h0l1.15.24h0l1.15.23h0l1.15.23h0l1.15.22h0l1.15.22h0l1.15.22h0l1.15.21h0l1.15.21h0l1.15.2h0l1.15.2h0l1.15.2h0l1.15.19h0l1.15.19h0l1.15.19h0l1.15.18h0l1.15.18h0l1.15.17h0l1.15.17h0l1.15.17h0l1.15.16h0l1.15.16h0l1.15.16h0l1.15.15h0l1.15.15h0l1.15.15h0l1.15.14h0l1.15.14h0l1.15.14h0l1.15.13h0l1.15.13h0l1.15.13h0l1.15.12h0l1.15.12h0l1.15.12h0l1.15.12h0l1.15.11h0l1.15.11h0l1.15.11h0l1.15.1h0l1.15.1h0l1.15.1h0l1.15.1h0l1.15.09h0l1.15.09h0l1.15.09h0l1.15.09h0l1.15.08h0l1.15.08h0l1.15.08h0l1.15.08h0l1.15.07h0l1.15.07h0l1.15.07h0l1.15.07h0l1.15.06h0l1.15.06h0l1.15.06h0l1.15.06h0l1.15.06h0l1.15.05h0l1.15.05h0l1.15.05h0l1.15.05h0l1.15.05h0l1.15.04h0l1.15.04h0l1.15.04h0l1.15.04h0l1.15.04h0l1.15.04h0l1.15.03h0l1.15.03h0l1.15.03h0l1.15.03h0l1.15.03h0l1.15.03h0l1.15.03h0l1.15.02h0l1.15.02h0l1.15.02h0l1.15.02h0l1.15.02h0l1.15.02h0l1.15.02h0l1.15.02h1.15s1.15.03,1.15.03h1.15s1.15.02,1.15.02h1.15s1.15.02,1.15.02h1.15s1.15.02,1.15.02h1.15s1.15.01,1.15.01h1.15s1.15.01,1.15.01h1.15s1.15,0,1.15,0h1.15s1.15,0,1.15,0h1.15s1.15,0,1.15,0h1.15s1.15,0,1.15,0h1.15s1.15,0,1.15,0h1.15s1.15,0,1.15,0h1.15s1.15,0,1.15,0h1.15s1.15,0,1.15,0h3.44s1.15,0,1.15,0h1.15s1.15,0,1.15,0h1.15s1.15,0,1.15,0h1.15s1.15,0,1.15,0h1.15s1.15,0,1.15,0h1.15s1.15,0,1.15,0h1.15s1.15,0,1.15,0h1.15s1.15,0,1.15,0h1.15s1.15-.01,1.15-.01h1.15s1.15-.01,1.15-.01h1.15s1.15-.02,1.15-.02h1.15s1.15-.02,1.15-.02h1.15s1.15-.03,1.15-.03h1.15s1.15-.03,1.15-.03h0l1.15-.02h0l1.15-.02h0l1.15-.02h0l1.15-.02h0l1.15-.02h0l1.15-.02h0l1.15-.02h0l1.15-.02h0l1.15-.03h0l1.15-.03h0l1.15-.03h0l1.15-.03h0l1.15-.03h0l1.15-.03h0l1.15-.03h0l1.15-.04h0l1.15-.04h0l1.15-.04h0l1.15-.04h0l1.15-.04h0l1.15-.05h0l1.15-.05h0l1.15-.05h0l1.15-.05h0l1.15-.05h0l1.15-.05h0l1.15-.06h0l1.15-.06h0l1.15-.06h0l1.15-.06h0l1.15-.07h0l1.15-.07h0l1.15-.07h0l1.15-.07h0l1.15-.07h0l1.15-.08h0l1.15-.08h0l1.15-.08h0l1.15-.08h0l1.15-.09h0l1.15-.09h0l1.15-.09h0l1.15-.09h0l1.15-.1h0l1.15-.1h0l1.15-.1h0l1.15-.11h0l1.15-.11h0l1.15-.11h0l1.15-.11h0l1.15-.12h0l1.15-.12h0l1.15-.12h0l1.15-.13h0l1.15-.13h0l1.15-.13h0l1.15-.13h0l1.15-.14h0l1.15-.14h0l1.15-.14h0l1.15-.15h0l1.15-.15h0l1.15-.15h0l1.15-.16h0l1.15-.16h0l1.15-.16h0l1.15-.17h0l1.15-.17h0l1.15-.18h0l1.15-.18h0l1.15-.18h0l1.15-.19h0l1.15-.19h0l1.15-.19h0l1.15-.2h0l1.15-.2h0l1.15-.21h0l1.15-.21h0l1.15-.21h0l1.15-.22h0l1.15-.22h0l1.15-.22h0l1.15-.23h0l1.15-.23h0l1.15-.24h0l1.15-.24h0l1.15-.25h0l1.15-.25h0l1.15-.25h0l1.15-.26h0l1.15-.26h0l1.15-.27h0l1.15-.27h0l1.15-.28h0l1.15-.28h0l1.15-.29h0l1.15-.29h0l1.15-.29h0l1.15-.3h0l1.15-.3h0l1.15-.31h0l1.15-.31h0l1.15-.32h0l1.15-.32h0l1.15-.33h0l1.15-.33h0l1.15-.34h0l1.15-.34h0l1.15-.35h0l1.15-.35h0l1.15-.36h0l1.15-.36h0l1.15-.37h0l1.15-.37h0l1.15-.38h0l1.15-.38h0l1.15-.39h0l1.15-.4h0l1.15-.4h0l1.15-.41h0l1.15-.41h0l1.15-.42h0l1.15-.42h0l1.15-.43h0l1.15-.43h0l1.15-.44h0l1.15-.45h0l1.15-.45h0l1.15-.46h0l1.15-.46h0l1.15-.47h0l1.15-.47h0l1.15-.48h0l1.15-.49h0l1.15-.49h0l1.15-.5h0l1.15-.5h0l1.15-.51h0l1.15-.52h0l1.15-.52h0l1.15-.53h0l1.15-.54h0l1.15-.54h0l1.15-.55h0l1.15-.55h0l1.15-.56h0l1.15-.57h0l1.15-.57h0l1.15-.58h0l1.15-.59h0l1.15-.59h0l1.15-.6h0l1.15-.61h0l1.15-.61h0l1.15-.62h0l1.15-.63h0l1.15-.63h0l1.15-.64h0l1.15-.65h0l1.15-.65h0l1.15-.66h0l1.15-.67h0l1.15-.68h0l1.15-.68h0l1.15-.69h0l1.15-.7h0l1.15-.7h0l1.15-.71h0l1.15-.72h0l1.15-.73h0l1.15-.73h0l1.15-.74h0l1.15-.75h0l1.15-.75h0l1.15-.76h0l1.15-.77h0l1.15-.78h0l1.15-.78h0l1.15-.79h0l1.15-.8h0l1.15-.81h0l1.15-.82h0l1.15-.82h0l1.15-.83h0l1.15-.84h0l1.15-.85h0l1.15-.85h0l1.15-.86h0l1.15-.87h0l1.15-.88h0l1.15-.89h0l1.15-.89h0l1.15-.9h0l1.15-.91h0l1.15-.92h0l1.15-.93h0l1.15-.94h0l1.15-.94h0l1.15-.95h0l1.15-.96h0l1.15-.97h0l1.15-.98h0l1.15-.99h0l1.15-.99h0l1.15-1h0l1.15-1.01h0l1.15-1.02h0l1.15-1.03h0l1.15-1.04h0l1.15-1.05h0l1.15-1.06h0l1.15-1.06h0l1.15-1.07h0l1.15-1.08h0l1.15-1.09h0l1.15-1.1h0l1.15-1.11h0l1.15-1.12h0l1.15-1.13h0l1.15-1.14h0l1.15-1.15h0l1.15-1.15h0l1.15-1.16h0l1.15-1.17h0l1.15-1.18h0l1.15-1.19h0l1.15-1.2h0l1.15-1.21h0l1.15-1.22h0l1.15-1.23h0l1.15-1.24h0l1.15-1.25h0l1.15-1.26h0l1.15-1.27h0l1.15-1.28h0l1.15-1.29h0l1.15-1.3h0l1.15-1.31h0l1.15-1.32h0l1.15-1.33h0l1.15-1.34h0l1.15-1.35h0l1.15-1.36h0l1.15-1.37h0l1.15-1.38h0l1.15-1.39h0l1.15-1.4h0l1.15-1.41h0l1.15-1.42h0l1.15-1.43h0l1.15-1.44h0l1.15-1.45h0l1.15-1.46h0l1.15-1.47h0l1.15-1.48h0l1.15-1.49h0l1.15-1.5h0l1.15-1.51h0l1.15-1.52h0l1.15-1.53h0l1.15-1.54h0l1.15-1.55h0l1.15-1.56h0l1.15-1.57h0l1.15-1.58h0l1.15-1.6h0l1.15-1.61h0l1.15-1.62h0l1.15-1.63h0l1.15-1.64h0l1.15-1.65h0l1.15-1.66h0l1.15-1.67h0l1.15-1.68h0l1.15-1.69h0l1.15-1.71h0l1.15-1.72h0l1.15-1.73h0l1.15-1.74h0l1.15-1.75h0l1.15-1.76h0l1.15-1.77h0l1.15-1.79h0l1.15-1.8h0l1.15-1.81h0l1.15-1.82h0l1.15-1.83h0l1.15-1.84h0l1.15-1.85h0l1.15-1.87h0l1.15-1.88h0l1.15-1.89h0l1.15-1.9h0l1.15-1.91h0l1.15-1.93h0l1.15-1.94h0l1.15-1.95h0l1.15-1.96h0l1.15-1.97h0l1.15-1.99h0l1.15-2h0l1.15-2.01h0l1.15-2.02h0l1.15-2.03h0l1.15-2.05h0l1.15-2.06h0l1.15-2.07h0l1.15-2.08h0l1.15-2.1h0l1.15-2.11h0l1.15-2.12h0l1.15-2.13h0l1.15-2.15h0l1.15-2.16h0l1.15-2.17h0l1.15-2.18h0l1.15-2.2h0l1.15-2.21h0l1.15-2.22h0l1.15-2.23h0l1.15-2.25h0l1.15-2.26h0l1.15-2.27h0l1.15-2.29h0l1.15-2.3h0l1.15-2.31h0l1.15-2.32h0l1.15-2.34h0l1.15-2.35h0l1.15-2.36h0l1.15-2.38h0l1.15-2.39h0l1.15-2.4h0l1.15-2.42h0l1.15-2.43h0l1.15-2.44h0l1.15-2.46h0l1.15-2.47h0l1.15-2.48h0l1.15-2.5h0l1.15-2.51h0l1.15-2.53h0l1.15-2.54h0l1.15-2.55h0l1.15-2.57h0l1.15-2.58h0l1.15-2.59h0l1.15-2.61h0l1.15-2.62h0l1.15-2.64h0l1.15-2.65h0l1.15-2.66h0l1.15-2.68h0l1.15-2.69h0l1.15-2.71h0l1.15-2.72h0l1.15-2.73h0l1.15-2.75h0l1.15-2.76h0l1.15-2.78h0l1.15-2.79h0l1.15-2.81h0l1.15-2.82h0l1.15-2.83h0l1.15-2.85h0l1.15-2.86h0l1.15-2.88h0l1.15-2.89h0l1.15-2.91h0l1.15-2.92h0l1.15-2.94h0l1.15-2.95h0l1.15-2.97h0l1.15-2.98h0l1.15-2.99h0l1.15-3.01h0l1.15-3.02h0l1.15-3.04h0l1.15-3.05h0l1.15-3.07h0l1.15-3.08h0l1.15-3.1h0l1.15-3.11h0l1.15-3.13h0l1.15-3.15h0l1.15-3.16h0l1.15-3.18h0l1.15-3.19h0l1.15-3.21h0l1.15-3.22h0l1.15-3.24h0l1.15-3.25h0l1.15-3.27h0l1.15-3.28h0l1.15-3.3h0l1.15-3.31h0l1.15-3.33h0l1.15-3.35h0l1.15-3.36h0l1.15-3.38h0l1.15-3.39h0l1.15-3.41h0l1.15-3.42h0l1.15-3.44h0l1.15-3.46h0l1.15-3.47h0l1.15-3.49h0l1.15-3.5h0l1.15-3.52h0l1.15-3.54h0l1.15-3.55h0l1.15-3.57h0l1.15-3.59h0l1.15-3.6h0l1.15-3.62h0l1.15-3.63h0l1.15-3.65h0l1.15-3.67h0l1.15-3.68h0l1.15-3.7h0l1.15-3.72h0l1.15-3.73h0l1.15-3.75h0l1.15-3.77h0l1.15-3.78h0l1.15-3.8h0l1.15-3.82h0l1.15-3.83h0l1.15-3.85h0l1.15-3.87h0l1.15-3.88h0l1.15-3.9h0l1.15-3.92h0l1.15-3.93h0l1.15-3.95h0l1.15-3.97h0l1.15-3.99h0l1.15-4h0l1.15-4.02h0l1.15-4.04h0l1.15-4.05h0l1.15-4.07h0l1.15-4.09h0l1.15-4.11h0l1.15-4.12h0l1.15-4.14h0l1.15-4.16h0l1.15-4.18h0l1.15-4.19h0l1.15-4.21h0l1.15-4.23h0l1.15-4.25h0l1.15-4.26h0l1.15-4.28h0l1.15-4.3h0l1.15-4.32h0l1.15-4.34h0l1.15-4.35h0l1.15-4.37h0l1.15-4.39h0l1.15-4.41h0l1.15-4.43h0l1.15-4.44h0l1.15-4.46h0l1.15-4.48h0l1.15-4.5h0l1.15-4.52h0l1.15-4.53h0l1.15-4.55h0l1.15-4.57h0l1.15-4.59h0l1.15-4.61h0l1.15-4.63h0l1.15-4.64h0l1.15-4.66h0l1.15-4.68h0l1.15-4.7h0l1.15-4.72h0l1.15-4.74h0l1.15-4.76h0l1.15-4.77h0l1.15-4.79h0l1.15-4.81h0l1.15-4.83h0l1.15-4.85h0l1.15-4.87h0l1.15-4.89h0l1.15-4.91h0l1.15-4.93h0l1.15-4.94h0l1.15-4.96h0l1.15-4.98h0l1.15-5h0l1.15-5.02h0l1.15-5.04h0l1.15-5.06h0l1.15-5.08h0l1.15-5.1h0l1.15-5.12h0l1.15-5.14h0l1.15-5.16h0l1.15-5.18h0l1.15-5.2h0l1.15-5.22h0l1.15-5.24h0l1.15-5.25h0l1.15-5.27h0l1.15-5.29h0l1.15-5.31h0l1.15-5.33h0l1.15-5.35h0l1.15-5.37h0l1.15-5.39h0l1.15-5.41h0l1.15-5.43h0l1.15-5.45h0l1.15-5.47h0l1.15-5.49h0l1.15-5.51h0l1.15-5.53h0l1.15-5.55h0l1.15-5.57h0l1.15-5.59h0l1.15-5.61h0l1.15-5.63h0l1.15-5.66h0l1.15-5.68h0l1.15-5.7h0l1.15-5.72h0l1.15-5.74h0l1.15-5.76h0l1.15-5.78h0l1.15-5.8h0l1.15-5.82h0l1.15-5.84h0l1.15-5.86h0l1.15-5.88h0l1.15-5.9h0l1.15-5.92h0l1.15-5.94h0l1.15-5.97h0l1.15-5.99h0l1.15-6.01h0l1.15-6.03h0l1.15-6.05h0l1.15-6.07h0l1.15-6.09h0l1.15-6.11h0l1.15-6.13h0l1.15-6.16h0l1.15-6.18h0l1.15-6.2h0l1.15-6.22h0l1.15-6.24h0l1.15-6.26h0l1.15-6.28h0l1.15-6.31h0l1.15-6.33h0l1.15-6.35h0l1.15-6.37h0l1.15-6.39h0l1.15-6.41h0l1.15-6.44h0l1.15-6.46h0l1.15-6.48h0l1.15-6.5h0l1.15-6.52h0l1.15-6.54h0l1.15-6.57h0l1.15-6.59h0l1.15-6.61h0l1.15-6.63h0l1.15-6.65h0l1.15-6.68h0l1.15-6.7h0l1.15-6.72h0l1.15-6.74h0l1.15-6.77h0l1.15-6.79h0l1.15-6.81h0l1.15-6.83h0l1.15-6.85h0l1.15-6.88h0l1.15-6.9h0l1.15-6.92h0l1.15-6.95h0l1.15-6.97h0l1.15-6.99h0l1.15-7.01h0l1.15-7.04h0l1.15-7.06h0l1.15-7.08h0l1.15-7.1h0l1.15-7.13h0l1.15-7.15h0l1.15-7.17h0l1.15-7.2h0l1.15-7.22h0l1.15-7.24h0l1.15-7.27h0l1.15-7.29h0l1.15-7.31h0l1.15-7.33h0l1.15-7.36h0l1.15-7.38h0l1.15-7.4h0l1.15-7.43h0l1.15-7.45h0l1.15-7.47h0l1.15-7.5h0l1.15-7.52h0l1.15-7.55h0l1.15-7.57h0l1.15-7.59h0l1.15-7.62h0l1.15-7.64h0l1.15-7.66h0l1.15-7.69h0l1.15-7.71h0l1.15-7.73h0l1.15-7.76h0l1.15-7.78h0l1.15-7.81h0l1.15-7.83h0l1.15-7.85h0l1.15-7.88h0l1.15-7.9h0l1.15-7.93h0l1.15-7.95h0l1.15-7.98h0l1.15-8h0l1.15-8.02h0l1.15-8.05h0l1.15-8.07h0l1.15-8.1h0l1.15-8.12h0l1.15-8.15h0l1.15-8.17h0l1.15-8.19h0l1.15-8.22h0l1.15-8.24h0l1.15-8.27h0l1.15-8.29h0l1.15-8.32h0l1.15-8.34h0l1.15-8.37h0l1.15-8.39h0l1.15-8.42h0l1.15-8.44h0l1.15-8.47h0l1.15-8.49h0l1.15-8.52h0l1.15-8.54h0l1.15-8.57h0l1.15-8.59h0l1.15-8.62h0l1.15-8.64h0l1.15-8.67h0l1.15-8.69h0l1.15-8.72h0l1.15-8.74h0l1.15-8.77h0l1.15-8.79h0l1.15-8.82h0l1.15-8.85h0l1.15-8.87h0l1.15-8.9h0l1.15-8.92h0l1.15-8.95h0l1.15-8.97h0l1.15-9h0l1.15-9.02h0l1.15-9.05h0l1.15-9.08h0l1.15-9.1h0l1.15-9.13h0l1.15-9.15h0l1.15-9.18h0l1.15-9.21h0l1.15-9.23h0l1.15-9.26h0l1.15-9.28h0l1.15-9.31h0l1.15-9.34h0l1.15-9.36h0l1.15-9.39h0l1.15-9.42h0l1.15-9.44h0l1.15-9.47h0l1.15-9.49h0l1.15-9.52h0l1.15-9.55h0l1.15-9.57h0l1.15-9.6h0l1.15-9.63h0l1.15-9.65h0l1.15-9.68h0l1.15-9.71h0l1.15-9.73h0l1.15-9.76h0l1.15-9.79h0l1.15-9.81h0l1.15-9.84h0l1.15-9.87h0l1.15-9.89h0l1.15-9.92h0l1.15-9.95h0l1.15-9.98"/>
      </g>
    </g>
    <g class="uuid-c3ca7bf4-cc07-4550-92be-4f51e82762ae">
      <g class="uuid-5779f99a-a379-4063-903e-a6deb6738738">
        <g>
          <rect class="uuid-a4dba695-b5ba-4f23-ba30-a9fef0adda33" x="-3" y="-10.14" width="1686" height="1040.27"/>
          <path class="uuid-0b2c33f8-d678-40ca-b6f1-3ee417372970" d="m224.67-9.56v1040.27m0-1040.27v1040.27M530.9-9.56v1040.27M1143.37-9.56v1040.27M1450.74-9.56v1040.27"/>
          <path class="uuid-45517c51-2114-46fe-a7e8-38ccbba7343c" d="m40.01-9.56v1040.27M101.94-9.56v1040.27M162.73-9.56v1040.27M285.46-9.56v1040.27M346.24-9.56v1040.27M408.18-9.56v1040.27M468.97-9.56v1040.27M591.69-9.56v1040.27M653.62-9.56v1040.27M714.41-9.56v1040.27M776.34-9.56v1040.27M899.07-9.56v1040.27M959.86-9.56v1040.27M1020.64-9.56v1040.27M1082.58-9.56v1040.27M1205.3-9.56v1040.27M1266.09-9.56v1040.27M1328.02-9.56v1040.27M1388.81-9.56v1040.27M1511.53-9.56v1040.27M1573.47-9.56v1040.27M1634.26-9.56v1040.27"/>
          <path class="uuid-0b2c33f8-d678-40ca-b6f1-3ee417372970" d="m-2.43,17.96h1686M-2.43,17.96h1686M-2.43,78.75h1686M-2.43,140.69h1686M-2.43,201.47h1686M-2.43,263.41h1686M-2.43,324.2h1686M-2.43,386.13h1686M-2.43,446.92h1686M-2.43,569.64h1686M-2.43,630.43h1686M-2.43,692.36h1686M-2.43,753.15h1686M-2.43,815.09h1686M-2.43,875.87h1686M-2.43,937.81h1686M-2.43,998.6h1686"/>
          <path class="uuid-45517c51-2114-46fe-a7e8-38ccbba7343c" d="m-2.43-7.27h1686M-2.43-7.27h1686M-2.43,5.35h1686M-2.43,30.58h1686M-2.43,42.05h1686M-2.43,54.67h1686M-2.43,67.28h1686M-2.43,91.37h1686M-2.43,103.98h1686M-2.43,115.45h1686M-2.43,128.07h1686M-2.43,152.16h1686M-2.43,164.77h1686M-2.43,177.39h1686M-2.43,190h1686M-2.43,214.09h1686M-2.43,226.71h1686M-2.43,238.18h1686M-2.43,250.79h1686M-2.43,274.88h1686M-2.43,287.49h1686M-2.43,300.11h1686M-2.43,311.58h1686M-2.43,336.81h1686M-2.43,348.28h1686M-2.43,360.9h1686M-2.43,373.51h1686M-2.43,397.6h1686M-2.43,410.22h1686M-2.43,422.83h1686M-2.43,434.3h1686M-2.43,459.53h1686M-2.43,471h1686M-2.43,483.62h1686M-2.43,496.24h1686M-2.43,520.32h1686M-2.43,532.94h1686M-2.43,545.56h1686M-2.43,557.02h1686M-2.43,582.26h1686M-2.43,593.73h1686M-2.43,606.34h1686M-2.43,618.96h1686M-2.43,643.04h1686M-2.43,655.66h1686M-2.43,667.13h1686M-2.43,679.75h1686M-2.43,704.98h1686M-2.43,716.45h1686M-2.43,729.07h1686M-2.43,741.68h1686M-2.43,765.77h1686M-2.43,778.38h1686M-2.43,789.85h1686M-2.43,802.47h1686M-2.43,826.56h1686M-2.43,839.17h1686M-2.43,851.79h1686M-2.43,864.4h1686M-2.43,888.49h1686M-2.43,901.11h1686M-2.43,912.58h1686M-2.43,925.19h1686M-2.43,949.28h1686M-2.43,961.89h1686M-2.43,974.51h1686M-2.43,985.98h1686M-2.43,1011.21h1686M-2.43,1023.83h1686"/>
          <path class="uuid-8e95549f-1374-4179-af3c-4accaa641a87" d="m837.71-6.7v1036.83"/>
          <path class="uuid-ba542cf0-ce1e-4584-9fed-58aa40ddbb9d" d="m837.26-7.84l-5.73,22.94h11.47"/>
          <path class="uuid-8e95549f-1374-4179-af3c-4accaa641a87" d="m-3,508.28h1682.56"/>
          <path class="uuid-ba542cf0-ce1e-4584-9fed-58aa40ddbb9d" d="m1680.71,508.26l-22.94-5.73v11.47"/>
          <g class="uuid-93c5b2e1-d969-4b0b-a887-8920e38f152d">
            <path class="uuid-91cbf232-8090-4646-9e45-6c60e6a939e5" d="m222.95,521.66v.28h-6.88v-.28h6.88Z"/>
            <path class="uuid-91cbf232-8090-4646-9e45-6c60e6a939e5" d="m230.01,525.48h-6.3c0-.39.07-.75.25-1.07.17-.32.4-.62.69-.9.28-.28.6-.55.96-.8.35-.25.7-.5,1.05-.75.36-.25.71-.5,1.05-.76.34-.26.64-.53.91-.81.27-.28.48-.58.64-.89.16-.32.24-.66.24-1.03s-.07-.69-.2-.97c-.13-.28-.31-.51-.54-.7-.23-.19-.5-.33-.82-.43-.32-.1-.66-.14-1.04-.14-.49,0-.9.07-1.25.22-.35.15-.63.35-.85.61s-.38.57-.48.94-.15.76-.15,1.19h-.27c0-1.03.26-1.82.76-2.39s1.25-.85,2.25-.85c.4,0,.78.05,1.13.16s.65.26.91.48.46.47.61.78.23.68.23,1.1c0,.51-.14.98-.41,1.4s-.62.82-1.04,1.18-.87.71-1.36,1.04c-.49.33-.94.65-1.37.98-.43.33-.79.66-1.09,1-.3.34-.47.72-.51,1.12h6.03v.28Z"/>
          </g>
          <g class="uuid-93c5b2e1-d969-4b0b-a887-8920e38f152d">
            <path class="uuid-aef0db3f-fe20-4986-a214-72ab1d66085a" d="m222.95,521.66v.28h-6.88v-.28h6.88Z"/>
            <path class="uuid-aef0db3f-fe20-4986-a214-72ab1d66085a" d="m230.01,525.48h-6.3c0-.39.07-.75.25-1.07.17-.32.4-.62.69-.9.28-.28.6-.55.96-.8.35-.25.7-.5,1.05-.75.36-.25.71-.5,1.05-.76.34-.26.64-.53.91-.81.27-.28.48-.58.64-.89.16-.32.24-.66.24-1.03s-.07-.69-.2-.97c-.13-.28-.31-.51-.54-.7-.23-.19-.5-.33-.82-.43-.32-.1-.66-.14-1.04-.14-.49,0-.9.07-1.25.22-.35.15-.63.35-.85.61s-.38.57-.48.94-.15.76-.15,1.19h-.27c0-1.03.26-1.82.76-2.39s1.25-.85,2.25-.85c.4,0,.78.05,1.13.16s.65.26.91.48.46.47.61.78.23.68.23,1.1c0,.51-.14.98-.41,1.4s-.62.82-1.04,1.18-.87.71-1.36,1.04c-.49.33-.94.65-1.37.98-.43.33-.79.66-1.09,1-.3.34-.47.72-.51,1.12h6.03v.28Z"/>
          </g>
          <g class="uuid-93c5b2e1-d969-4b0b-a887-8920e38f152d">
            <path class="uuid-91cbf232-8090-4646-9e45-6c60e6a939e5" d="m222.95,521.66v.28h-6.88v-.28h6.88Z"/>
            <path class="uuid-91cbf232-8090-4646-9e45-6c60e6a939e5" d="m230.01,525.48h-6.3c0-.39.07-.75.25-1.07.17-.32.4-.62.69-.9.28-.28.6-.55.96-.8.35-.25.7-.5,1.05-.75.36-.25.71-.5,1.05-.76.34-.26.64-.53.91-.81.27-.28.48-.58.64-.89.16-.32.24-.66.24-1.03s-.07-.69-.2-.97c-.13-.28-.31-.51-.54-.7-.23-.19-.5-.33-.82-.43-.32-.1-.66-.14-1.04-.14-.49,0-.9.07-1.25.22-.35.15-.63.35-.85.61s-.38.57-.48.94-.15.76-.15,1.19h-.27c0-1.03.26-1.82.76-2.39s1.25-.85,2.25-.85c.4,0,.78.05,1.13.16s.65.26.91.48.46.47.61.78.23.68.23,1.1c0,.51-.14.98-.41,1.4s-.62.82-1.04,1.18-.87.71-1.36,1.04c-.49.33-.94.65-1.37.98-.43.33-.79.66-1.09,1-.3.34-.47.72-.51,1.12h6.03v.28Z"/>
          </g>
          <g class="uuid-93c5b2e1-d969-4b0b-a887-8920e38f152d">
            <path class="uuid-91cbf232-8090-4646-9e45-6c60e6a939e5" d="m530.33,521.66v.28h-6.88v-.28h6.88Z"/>
            <path class="uuid-91cbf232-8090-4646-9e45-6c60e6a939e5" d="m534.4,516.48c-.28.39-.65.74-1.11,1.03-.45.29-.92.5-1.38.63v-.28c.28-.09.54-.19.76-.3s.43-.23.62-.37c.19-.14.38-.29.56-.47.18-.17.36-.37.56-.59h.3v9.36h-.28v-9h-.03Z"/>
          </g>
          <g class="uuid-93c5b2e1-d969-4b0b-a887-8920e38f152d">
            <path class="uuid-aef0db3f-fe20-4986-a214-72ab1d66085a" d="m530.33,521.66v.28h-6.88v-.28h6.88Z"/>
            <path class="uuid-aef0db3f-fe20-4986-a214-72ab1d66085a" d="m534.4,516.48c-.28.39-.65.74-1.11,1.03-.45.29-.92.5-1.38.63v-.28c.28-.09.54-.19.76-.3s.43-.23.62-.37c.19-.14.38-.29.56-.47.18-.17.36-.37.56-.59h.3v9.36h-.28v-9h-.03Z"/>
          </g>
          <g class="uuid-93c5b2e1-d969-4b0b-a887-8920e38f152d">
            <path class="uuid-91cbf232-8090-4646-9e45-6c60e6a939e5" d="m530.33,521.66v.28h-6.88v-.28h6.88Z"/>
            <path class="uuid-91cbf232-8090-4646-9e45-6c60e6a939e5" d="m534.4,516.48c-.28.39-.65.74-1.11,1.03-.45.29-.92.5-1.38.63v-.28c.28-.09.54-.19.76-.3s.43-.23.62-.37c.19-.14.38-.29.56-.47.18-.17.36-.37.56-.59h.3v9.36h-.28v-9h-.03Z"/>
          </g>
          <g class="uuid-93c5b2e1-d969-4b0b-a887-8920e38f152d">
            <path class="uuid-91cbf232-8090-4646-9e45-6c60e6a939e5" d="m1144.57,516.48c-.28.39-.65.74-1.11,1.03-.45.29-.92.5-1.38.63v-.28c.28-.09.54-.19.76-.3s.43-.23.62-.37c.19-.14.38-.29.56-.47.18-.17.36-.37.56-.59h.3v9.36h-.28v-9h-.03Z"/>
          </g>
          <g class="uuid-93c5b2e1-d969-4b0b-a887-8920e38f152d">
            <path class="uuid-aef0db3f-fe20-4986-a214-72ab1d66085a" d="m1144.57,516.48c-.28.39-.65.74-1.11,1.03-.45.29-.92.5-1.38.63v-.28c.28-.09.54-.19.76-.3s.43-.23.62-.37c.19-.14.38-.29.56-.47.18-.17.36-.37.56-.59h.3v9.36h-.28v-9h-.03Z"/>
          </g>
          <g class="uuid-93c5b2e1-d969-4b0b-a887-8920e38f152d">
            <path class="uuid-91cbf232-8090-4646-9e45-6c60e6a939e5" d="m1144.57,516.48c-.28.39-.65.74-1.11,1.03-.45.29-.92.5-1.38.63v-.28c.28-.09.54-.19.76-.3s.43-.23.62-.37c.19-.14.38-.29.56-.47.18-.17.36-.37.56-.59h.3v9.36h-.28v-9h-.03Z"/>
          </g>
          <g class="uuid-93c5b2e1-d969-4b0b-a887-8920e38f152d">
            <path class="uuid-91cbf232-8090-4646-9e45-6c60e6a939e5" d="m1453.79,525.48h-6.3c0-.39.07-.75.25-1.07.17-.32.4-.62.69-.9.28-.28.6-.55.96-.8.35-.25.7-.5,1.05-.75.36-.25.71-.5,1.05-.76.34-.26.64-.53.91-.81.27-.28.48-.58.64-.89.16-.32.24-.66.24-1.03s-.07-.69-.2-.97c-.13-.28-.31-.51-.54-.7-.23-.19-.5-.33-.82-.43-.32-.1-.66-.14-1.04-.14-.49,0-.9.07-1.25.22-.35.15-.63.35-.85.61s-.38.57-.48.94-.15.76-.15,1.19h-.27c0-1.03.26-1.82.76-2.39s1.25-.85,2.25-.85c.4,0,.78.05,1.13.16s.65.26.91.48.46.47.61.78.23.68.23,1.1c0,.51-.14.98-.41,1.4s-.62.82-1.04,1.18-.87.71-1.36,1.04c-.49.33-.94.65-1.37.98-.43.33-.79.66-1.09,1-.3.34-.47.72-.51,1.12h6.03v.28Z"/>
          </g>
          <g class="uuid-93c5b2e1-d969-4b0b-a887-8920e38f152d">
            <path class="uuid-aef0db3f-fe20-4986-a214-72ab1d66085a" d="m1453.79,525.48h-6.3c0-.39.07-.75.25-1.07.17-.32.4-.62.69-.9.28-.28.6-.55.96-.8.35-.25.7-.5,1.05-.75.36-.25.71-.5,1.05-.76.34-.26.64-.53.91-.81.27-.28.48-.58.64-.89.16-.32.24-.66.24-1.03s-.07-.69-.2-.97c-.13-.28-.31-.51-.54-.7-.23-.19-.5-.33-.82-.43-.32-.1-.66-.14-1.04-.14-.49,0-.9.07-1.25.22-.35.15-.63.35-.85.61s-.38.57-.48.94-.15.76-.15,1.19h-.27c0-1.03.26-1.82.76-2.39s1.25-.85,2.25-.85c.4,0,.78.05,1.13.16s.65.26.91.48.46.47.61.78.23.68.23,1.1c0,.51-.14.98-.41,1.4s-.62.82-1.04,1.18-.87.71-1.36,1.04c-.49.33-.94.65-1.37.98-.43.33-.79.66-1.09,1-.3.34-.47.72-.51,1.12h6.03v.28Z"/>
          </g>
          <g class="uuid-93c5b2e1-d969-4b0b-a887-8920e38f152d">
            <path class="uuid-91cbf232-8090-4646-9e45-6c60e6a939e5" d="m1453.79,525.48h-6.3c0-.39.07-.75.25-1.07.17-.32.4-.62.69-.9.28-.28.6-.55.96-.8.35-.25.7-.5,1.05-.75.36-.25.71-.5,1.05-.76.34-.26.64-.53.91-.81.27-.28.48-.58.64-.89.16-.32.24-.66.24-1.03s-.07-.69-.2-.97c-.13-.28-.31-.51-.54-.7-.23-.19-.5-.33-.82-.43-.32-.1-.66-.14-1.04-.14-.49,0-.9.07-1.25.22-.35.15-.63.35-.85.61s-.38.57-.48.94-.15.76-.15,1.19h-.27c0-1.03.26-1.82.76-2.39s1.25-.85,2.25-.85c.4,0,.78.05,1.13.16s.65.26.91.48.46.47.61.78.23.68.23,1.1c0,.51-.14.98-.41,1.4s-.62.82-1.04,1.18-.87.71-1.36,1.04c-.49.33-.94.65-1.37.98-.43.33-.79.66-1.09,1-.3.34-.47.72-.51,1.12h6.03v.28Z"/>
          </g>
          <g class="uuid-93c5b2e1-d969-4b0b-a887-8920e38f152d">
            <path class="uuid-91cbf232-8090-4646-9e45-6c60e6a939e5" d="m820.5,999.93v.28h-6.88v-.28h6.88Z"/>
            <path class="uuid-91cbf232-8090-4646-9e45-6c60e6a939e5" d="m827.09,999.4c.43.45.64,1.03.64,1.74,0,.49-.09.9-.27,1.25-.18.35-.43.63-.74.86-.31.22-.67.39-1.08.5-.41.11-.85.16-1.31.16s-.89-.05-1.31-.16c-.41-.11-.77-.27-1.08-.5-.31-.23-.55-.51-.74-.86-.18-.35-.28-.77-.28-1.25,0-.72.21-1.3.64-1.74.43-.44,1.01-.7,1.75-.78v-.03c-.27-.04-.52-.11-.75-.23-.23-.11-.44-.26-.61-.43-.17-.17-.31-.37-.41-.6-.1-.23-.15-.48-.15-.74,0-.42.08-.78.23-1.08s.36-.54.63-.74.58-.33.94-.42c.36-.09.74-.13,1.14-.13s.78.04,1.14.13c.36.09.67.23.94.42s.48.44.63.74.23.66.23,1.08c0,.27-.05.51-.15.74-.1.23-.24.43-.41.6-.17.17-.38.31-.61.43-.23.12-.48.19-.75.23v.03c.74.07,1.33.33,1.75.78Zm.1.61c-.17-.3-.41-.55-.69-.73-.29-.18-.62-.31-1-.39-.38-.08-.77-.12-1.17-.12s-.79.04-1.17.12c-.38.08-.71.21-1,.39-.29.18-.52.43-.7.73-.17.3-.26.68-.26,1.13s.08.83.25,1.15.4.58.69.78c.29.2.62.35,1,.44.38.09.77.14,1.18.14s.81-.05,1.18-.14c.38-.09.71-.24,1-.44.29-.2.52-.46.69-.78s.25-.7.25-1.15-.09-.83-.26-1.13Zm-.43-4.42c-.15-.27-.35-.48-.6-.64-.25-.16-.53-.28-.85-.34-.32-.07-.64-.1-.98-.1s-.67.03-.98.1c-.32.07-.6.18-.85.34-.25.16-.45.37-.6.64-.15.27-.23.6-.23,1,0,.33.08.62.24.86s.37.44.62.59c.25.15.54.26.85.34.32.07.63.11.94.11s.63-.04.94-.11c.32-.07.6-.19.85-.34s.46-.35.62-.59c.16-.24.24-.53.24-.86,0-.4-.08-.74-.23-1Z"/>
          </g>
          <g class="uuid-93c5b2e1-d969-4b0b-a887-8920e38f152d">
            <path class="uuid-aef0db3f-fe20-4986-a214-72ab1d66085a" d="m820.5,999.93v.28h-6.88v-.28h6.88Z"/>
            <path class="uuid-aef0db3f-fe20-4986-a214-72ab1d66085a" d="m827.09,999.4c.43.45.64,1.03.64,1.74,0,.49-.09.9-.27,1.25-.18.35-.43.63-.74.86-.31.22-.67.39-1.08.5-.41.11-.85.16-1.31.16s-.89-.05-1.31-.16c-.41-.11-.77-.27-1.08-.5-.31-.23-.55-.51-.74-.86-.18-.35-.28-.77-.28-1.25,0-.72.21-1.3.64-1.74.43-.44,1.01-.7,1.75-.78v-.03c-.27-.04-.52-.11-.75-.23-.23-.11-.44-.26-.61-.43-.17-.17-.31-.37-.41-.6-.1-.23-.15-.48-.15-.74,0-.42.08-.78.23-1.08s.36-.54.63-.74.58-.33.94-.42c.36-.09.74-.13,1.14-.13s.78.04,1.14.13c.36.09.67.23.94.42s.48.44.63.74.23.66.23,1.08c0,.27-.05.51-.15.74-.1.23-.24.43-.41.6-.17.17-.38.31-.61.43-.23.12-.48.19-.75.23v.03c.74.07,1.33.33,1.75.78Zm.1.61c-.17-.3-.41-.55-.69-.73-.29-.18-.62-.31-1-.39-.38-.08-.77-.12-1.17-.12s-.79.04-1.17.12c-.38.08-.71.21-1,.39-.29.18-.52.43-.7.73-.17.3-.26.68-.26,1.13s.08.83.25,1.15.4.58.69.78c.29.2.62.35,1,.44.38.09.77.14,1.18.14s.81-.05,1.18-.14c.38-.09.71-.24,1-.44.29-.2.52-.46.69-.78s.25-.7.25-1.15-.09-.83-.26-1.13Zm-.43-4.42c-.15-.27-.35-.48-.6-.64-.25-.16-.53-.28-.85-.34-.32-.07-.64-.1-.98-.1s-.67.03-.98.1c-.32.07-.6.18-.85.34-.25.16-.45.37-.6.64-.15.27-.23.6-.23,1,0,.33.08.62.24.86s.37.44.62.59c.25.15.54.26.85.34.32.07.63.11.94.11s.63-.04.94-.11c.32-.07.6-.19.85-.34s.46-.35.62-.59c.16-.24.24-.53.24-.86,0-.4-.08-.74-.23-1Z"/>
          </g>
          <g class="uuid-93c5b2e1-d969-4b0b-a887-8920e38f152d">
            <path class="uuid-91cbf232-8090-4646-9e45-6c60e6a939e5" d="m820.5,999.93v.28h-6.88v-.28h6.88Z"/>
            <path class="uuid-91cbf232-8090-4646-9e45-6c60e6a939e5" d="m827.09,999.4c.43.45.64,1.03.64,1.74,0,.49-.09.9-.27,1.25-.18.35-.43.63-.74.86-.31.22-.67.39-1.08.5-.41.11-.85.16-1.31.16s-.89-.05-1.31-.16c-.41-.11-.77-.27-1.08-.5-.31-.23-.55-.51-.74-.86-.18-.35-.28-.77-.28-1.25,0-.72.21-1.3.64-1.74.43-.44,1.01-.7,1.75-.78v-.03c-.27-.04-.52-.11-.75-.23-.23-.11-.44-.26-.61-.43-.17-.17-.31-.37-.41-.6-.1-.23-.15-.48-.15-.74,0-.42.08-.78.23-1.08s.36-.54.63-.74.58-.33.94-.42c.36-.09.74-.13,1.14-.13s.78.04,1.14.13c.36.09.67.23.94.42s.48.44.63.74.23.66.23,1.08c0,.27-.05.51-.15.74-.1.23-.24.43-.41.6-.17.17-.38.31-.61.43-.23.12-.48.19-.75.23v.03c.74.07,1.33.33,1.75.78Zm.1.61c-.17-.3-.41-.55-.69-.73-.29-.18-.62-.31-1-.39-.38-.08-.77-.12-1.17-.12s-.79.04-1.17.12c-.38.08-.71.21-1,.39-.29.18-.52.43-.7.73-.17.3-.26.68-.26,1.13s.08.83.25,1.15.4.58.69.78c.29.2.62.35,1,.44.38.09.77.14,1.18.14s.81-.05,1.18-.14c.38-.09.71-.24,1-.44.29-.2.52-.46.69-.78s.25-.7.25-1.15-.09-.83-.26-1.13Zm-.43-4.42c-.15-.27-.35-.48-.6-.64-.25-.16-.53-.28-.85-.34-.32-.07-.64-.1-.98-.1s-.67.03-.98.1c-.32.07-.6.18-.85.34-.25.16-.45.37-.6.64-.15.27-.23.6-.23,1,0,.33.08.62.24.86s.37.44.62.59c.25.15.54.26.85.34.32.07.63.11.94.11s.63-.04.94-.11c.32-.07.6-.19.85-.34s.46-.35.62-.59c.16-.24.24-.53.24-.86,0-.4-.08-.74-.23-1Z"/>
          </g>
          <g class="uuid-93c5b2e1-d969-4b0b-a887-8920e38f152d">
            <path class="uuid-91cbf232-8090-4646-9e45-6c60e6a939e5" d="m820.5,939.14v.28h-6.88v-.28h6.88Z"/>
            <path class="uuid-91cbf232-8090-4646-9e45-6c60e6a939e5" d="m821.34,933.61h5.97v.37c-.63.63-1.21,1.28-1.73,1.95s-.97,1.37-1.33,2.1c-.37.73-.65,1.5-.85,2.31-.2.81-.3,1.69-.3,2.62h-.28c0-.92.08-1.79.28-2.62.2-.83.48-1.61.85-2.36s.82-1.46,1.33-2.14c.52-.68,1.09-1.33,1.73-1.97h-5.67v-.28Z"/>
          </g>
          <g class="uuid-93c5b2e1-d969-4b0b-a887-8920e38f152d">
            <path class="uuid-aef0db3f-fe20-4986-a214-72ab1d66085a" d="m820.5,939.14v.28h-6.88v-.28h6.88Z"/>
            <path class="uuid-aef0db3f-fe20-4986-a214-72ab1d66085a" d="m821.34,933.61h5.97v.37c-.63.63-1.21,1.28-1.73,1.95s-.97,1.37-1.33,2.1c-.37.73-.65,1.5-.85,2.31-.2.81-.3,1.69-.3,2.62h-.28c0-.92.08-1.79.28-2.62.2-.83.48-1.61.85-2.36s.82-1.46,1.33-2.14c.52-.68,1.09-1.33,1.73-1.97h-5.67v-.28Z"/>
          </g>
          <g class="uuid-93c5b2e1-d969-4b0b-a887-8920e38f152d">
            <path class="uuid-91cbf232-8090-4646-9e45-6c60e6a939e5" d="m820.5,939.14v.28h-6.88v-.28h6.88Z"/>
            <path class="uuid-91cbf232-8090-4646-9e45-6c60e6a939e5" d="m821.34,933.61h5.97v.37c-.63.63-1.21,1.28-1.73,1.95s-.97,1.37-1.33,2.1c-.37.73-.65,1.5-.85,2.31-.2.81-.3,1.69-.3,2.62h-.28c0-.92.08-1.79.28-2.62.2-.83.48-1.61.85-2.36s.82-1.46,1.33-2.14c.52-.68,1.09-1.33,1.73-1.97h-5.67v-.28Z"/>
          </g>
          <g class="uuid-93c5b2e1-d969-4b0b-a887-8920e38f152d">
            <path class="uuid-91cbf232-8090-4646-9e45-6c60e6a939e5" d="m820.5,877.21v.28h-6.88v-.28h6.88Z"/>
            <path class="uuid-91cbf232-8090-4646-9e45-6c60e6a939e5" d="m826.74,872.84c-.2-.27-.42-.48-.67-.64-.25-.16-.5-.26-.77-.32s-.52-.09-.76-.09c-.7,0-1.26.17-1.69.52s-.76.79-1,1.32c-.23.53-.39,1.11-.46,1.72-.07.62-.11,1.19-.1,1.73h.03c.06-.33.19-.64.38-.92s.42-.53.69-.75c.27-.22.58-.38.92-.5.34-.12.7-.18,1.07-.18.4,0,.8.08,1.19.23.39.16.74.38,1.04.66.3.29.55.62.73,1.02s.28.83.28,1.32-.09.9-.26,1.29-.41.73-.71,1.02c-.3.28-.64.51-1.03.67-.39.16-.8.24-1.23.24-.32,0-.62-.04-.9-.12-.28-.08-.53-.19-.76-.33s-.43-.29-.61-.47c-.18-.17-.33-.35-.45-.54-.27-.41-.44-.88-.51-1.41-.07-.53-.11-1.09-.11-1.7s.06-1.17.17-1.78c.11-.61.3-1.16.57-1.65.27-.5.63-.9,1.08-1.21.45-.31,1.02-.47,1.71-.47.4,0,.77.06,1.11.19.33.12.63.29.87.5.25.21.45.46.61.75.16.29.26.6.3.93h-.28c-.09-.42-.24-.77-.43-1.04Zm.36,3.97c-.16-.36-.37-.67-.63-.94-.27-.27-.58-.48-.94-.63-.36-.16-.74-.23-1.16-.23s-.8.08-1.16.23c-.36.16-.67.37-.94.63-.27.27-.48.58-.63.94-.16.36-.23.74-.23,1.16s.08.8.23,1.16c.16.36.37.67.63.94.27.27.58.48.94.63s.74.23,1.16.23.8-.08,1.16-.23c.36-.16.67-.37.94-.63.27-.27.48-.58.63-.94.16-.36.23-.74.23-1.16s-.08-.8-.23-1.16Z"/>
          </g>
          <g class="uuid-93c5b2e1-d969-4b0b-a887-8920e38f152d">
            <path class="uuid-aef0db3f-fe20-4986-a214-72ab1d66085a" d="m820.5,877.21v.28h-6.88v-.28h6.88Z"/>
            <path class="uuid-aef0db3f-fe20-4986-a214-72ab1d66085a" d="m826.74,872.84c-.2-.27-.42-.48-.67-.64-.25-.16-.5-.26-.77-.32s-.52-.09-.76-.09c-.7,0-1.26.17-1.69.52s-.76.79-1,1.32c-.23.53-.39,1.11-.46,1.72-.07.62-.11,1.19-.1,1.73h.03c.06-.33.19-.64.38-.92s.42-.53.69-.75c.27-.22.58-.38.92-.5.34-.12.7-.18,1.07-.18.4,0,.8.08,1.19.23.39.16.74.38,1.04.66.3.29.55.62.73,1.02s.28.83.28,1.32-.09.9-.26,1.29-.41.73-.71,1.02c-.3.28-.64.51-1.03.67-.39.16-.8.24-1.23.24-.32,0-.62-.04-.9-.12-.28-.08-.53-.19-.76-.33s-.43-.29-.61-.47c-.18-.17-.33-.35-.45-.54-.27-.41-.44-.88-.51-1.41-.07-.53-.11-1.09-.11-1.7s.06-1.17.17-1.78c.11-.61.3-1.16.57-1.65.27-.5.63-.9,1.08-1.21.45-.31,1.02-.47,1.71-.47.4,0,.77.06,1.11.19.33.12.63.29.87.5.25.21.45.46.61.75.16.29.26.6.3.93h-.28c-.09-.42-.24-.77-.43-1.04Zm.36,3.97c-.16-.36-.37-.67-.63-.94-.27-.27-.58-.48-.94-.63-.36-.16-.74-.23-1.16-.23s-.8.08-1.16.23c-.36.16-.67.37-.94.63-.27.27-.48.58-.63.94-.16.36-.23.74-.23,1.16s.08.8.23,1.16c.16.36.37.67.63.94.27.27.58.48.94.63s.74.23,1.16.23.8-.08,1.16-.23c.36-.16.67-.37.94-.63.27-.27.48-.58.63-.94.16-.36.23-.74.23-1.16s-.08-.8-.23-1.16Z"/>
          </g>
          <g class="uuid-93c5b2e1-d969-4b0b-a887-8920e38f152d">
            <path class="uuid-91cbf232-8090-4646-9e45-6c60e6a939e5" d="m820.5,877.21v.28h-6.88v-.28h6.88Z"/>
            <path class="uuid-91cbf232-8090-4646-9e45-6c60e6a939e5" d="m826.74,872.84c-.2-.27-.42-.48-.67-.64-.25-.16-.5-.26-.77-.32s-.52-.09-.76-.09c-.7,0-1.26.17-1.69.52s-.76.79-1,1.32c-.23.53-.39,1.11-.46,1.72-.07.62-.11,1.19-.1,1.73h.03c.06-.33.19-.64.38-.92s.42-.53.69-.75c.27-.22.58-.38.92-.5.34-.12.7-.18,1.07-.18.4,0,.8.08,1.19.23.39.16.74.38,1.04.66.3.29.55.62.73,1.02s.28.83.28,1.32-.09.9-.26,1.29-.41.73-.71,1.02c-.3.28-.64.51-1.03.67-.39.16-.8.24-1.23.24-.32,0-.62-.04-.9-.12-.28-.08-.53-.19-.76-.33s-.43-.29-.61-.47c-.18-.17-.33-.35-.45-.54-.27-.41-.44-.88-.51-1.41-.07-.53-.11-1.09-.11-1.7s.06-1.17.17-1.78c.11-.61.3-1.16.57-1.65.27-.5.63-.9,1.08-1.21.45-.31,1.02-.47,1.71-.47.4,0,.77.06,1.11.19.33.12.63.29.87.5.25.21.45.46.61.75.16.29.26.6.3.93h-.28c-.09-.42-.24-.77-.43-1.04Zm.36,3.97c-.16-.36-.37-.67-.63-.94-.27-.27-.58-.48-.94-.63-.36-.16-.74-.23-1.16-.23s-.8.08-1.16.23c-.36.16-.67.37-.94.63-.27.27-.48.58-.63.94-.16.36-.23.74-.23,1.16s.08.8.23,1.16c.16.36.37.67.63.94.27.27.58.48.94.63s.74.23,1.16.23.8-.08,1.16-.23c.36-.16.67-.37.94-.63.27-.27.48-.58.63-.94.16-.36.23-.74.23-1.16s-.08-.8-.23-1.16Z"/>
          </g>
          <g class="uuid-93c5b2e1-d969-4b0b-a887-8920e38f152d">
            <path class="uuid-91cbf232-8090-4646-9e45-6c60e6a939e5" d="m820.5,816.42v.28h-6.88v-.28h6.88Z"/>
            <path class="uuid-91cbf232-8090-4646-9e45-6c60e6a939e5" d="m821.67,815.17h.03c.27-.44.62-.76,1.07-.96.44-.2.94-.3,1.49-.3.49,0,.93.08,1.32.24.39.16.73.38,1.02.67.28.28.5.63.66,1.03.16.4.23.83.23,1.3,0,.5-.08.95-.23,1.35-.16.4-.38.75-.66,1.03-.28.28-.62.5-1.02.65-.39.15-.83.23-1.32.23s-.92-.07-1.33-.21c-.41-.14-.76-.35-1.05-.61-.29-.27-.51-.59-.67-.98-.16-.39-.23-.84-.21-1.34h.28c-.02.46.04.87.18,1.22.14.36.34.66.6.91.26.25.58.44.96.56.38.13.79.19,1.24.19s.87-.07,1.23-.21c.36-.14.67-.34.93-.61.26-.26.45-.58.59-.95.14-.37.21-.78.21-1.23s-.07-.83-.21-1.19c-.14-.36-.34-.67-.6-.94-.26-.26-.57-.46-.94-.61-.37-.15-.77-.22-1.21-.22-.55,0-1.06.12-1.53.36-.47.24-.83.6-1.09,1.07h-.34l1-4.72h4.8v.28h-4.58l-.85,4Z"/>
          </g>
          <g class="uuid-93c5b2e1-d969-4b0b-a887-8920e38f152d">
            <path class="uuid-aef0db3f-fe20-4986-a214-72ab1d66085a" d="m820.5,816.42v.28h-6.88v-.28h6.88Z"/>
            <path class="uuid-aef0db3f-fe20-4986-a214-72ab1d66085a" d="m821.67,815.17h.03c.27-.44.62-.76,1.07-.96.44-.2.94-.3,1.49-.3.49,0,.93.08,1.32.24.39.16.73.38,1.02.67.28.28.5.63.66,1.03.16.4.23.83.23,1.3,0,.5-.08.95-.23,1.35-.16.4-.38.75-.66,1.03-.28.28-.62.5-1.02.65-.39.15-.83.23-1.32.23s-.92-.07-1.33-.21c-.41-.14-.76-.35-1.05-.61-.29-.27-.51-.59-.67-.98-.16-.39-.23-.84-.21-1.34h.28c-.02.46.04.87.18,1.22.14.36.34.66.6.91.26.25.58.44.96.56.38.13.79.19,1.24.19s.87-.07,1.23-.21c.36-.14.67-.34.93-.61.26-.26.45-.58.59-.95.14-.37.21-.78.21-1.23s-.07-.83-.21-1.19c-.14-.36-.34-.67-.6-.94-.26-.26-.57-.46-.94-.61-.37-.15-.77-.22-1.21-.22-.55,0-1.06.12-1.53.36-.47.24-.83.6-1.09,1.07h-.34l1-4.72h4.8v.28h-4.58l-.85,4Z"/>
          </g>
          <g class="uuid-93c5b2e1-d969-4b0b-a887-8920e38f152d">
            <path class="uuid-91cbf232-8090-4646-9e45-6c60e6a939e5" d="m820.5,816.42v.28h-6.88v-.28h6.88Z"/>
            <path class="uuid-91cbf232-8090-4646-9e45-6c60e6a939e5" d="m821.67,815.17h.03c.27-.44.62-.76,1.07-.96.44-.2.94-.3,1.49-.3.49,0,.93.08,1.32.24.39.16.73.38,1.02.67.28.28.5.63.66,1.03.16.4.23.83.23,1.3,0,.5-.08.95-.23,1.35-.16.4-.38.75-.66,1.03-.28.28-.62.5-1.02.65-.39.15-.83.23-1.32.23s-.92-.07-1.33-.21c-.41-.14-.76-.35-1.05-.61-.29-.27-.51-.59-.67-.98-.16-.39-.23-.84-.21-1.34h.28c-.02.46.04.87.18,1.22.14.36.34.66.6.91.26.25.58.44.96.56.38.13.79.19,1.24.19s.87-.07,1.23-.21c.36-.14.67-.34.93-.61.26-.26.45-.58.59-.95.14-.37.21-.78.21-1.23s-.07-.83-.21-1.19c-.14-.36-.34-.67-.6-.94-.26-.26-.57-.46-.94-.61-.37-.15-.77-.22-1.21-.22-.55,0-1.06.12-1.53.36-.47.24-.83.6-1.09,1.07h-.34l1-4.72h4.8v.28h-4.58l-.85,4Z"/>
          </g>
          <g class="uuid-93c5b2e1-d969-4b0b-a887-8920e38f152d">
            <path class="uuid-91cbf232-8090-4646-9e45-6c60e6a939e5" d="m820.5,754.49v.28h-6.88v-.28h6.88Z"/>
            <path class="uuid-91cbf232-8090-4646-9e45-6c60e6a939e5" d="m820.97,755.55l4.68-6.59h.34v6.65h1.69v.27h-1.69v2.44h-.28v-2.44h-4.75v-.33Zm4.72-6.21l-4.45,6.26h4.47v-6.26h-.03Z"/>
          </g>
          <g class="uuid-93c5b2e1-d969-4b0b-a887-8920e38f152d">
            <path class="uuid-aef0db3f-fe20-4986-a214-72ab1d66085a" d="m820.5,754.49v.28h-6.88v-.28h6.88Z"/>
            <path class="uuid-aef0db3f-fe20-4986-a214-72ab1d66085a" d="m820.97,755.55l4.68-6.59h.34v6.65h1.69v.27h-1.69v2.44h-.28v-2.44h-4.75v-.33Zm4.72-6.21l-4.45,6.26h4.47v-6.26h-.03Z"/>
          </g>
          <g class="uuid-93c5b2e1-d969-4b0b-a887-8920e38f152d">
            <path class="uuid-91cbf232-8090-4646-9e45-6c60e6a939e5" d="m820.5,754.49v.28h-6.88v-.28h6.88Z"/>
            <path class="uuid-91cbf232-8090-4646-9e45-6c60e6a939e5" d="m820.97,755.55l4.68-6.59h.34v6.65h1.69v.27h-1.69v2.44h-.28v-2.44h-4.75v-.33Zm4.72-6.21l-4.45,6.26h4.47v-6.26h-.03Z"/>
          </g>
          <g class="uuid-93c5b2e1-d969-4b0b-a887-8920e38f152d">
            <path class="uuid-91cbf232-8090-4646-9e45-6c60e6a939e5" d="m820.5,693.7v.28h-6.88v-.28h6.88Z"/>
            <path class="uuid-91cbf232-8090-4646-9e45-6c60e6a939e5" d="m821.52,689.73c.15-.38.36-.7.64-.96.28-.26.62-.45,1.02-.58.4-.13.84-.19,1.33-.19.38,0,.74.04,1.09.12.35.08.66.22.94.4s.5.42.66.72c.17.29.25.65.25,1.06,0,.66-.19,1.17-.57,1.54-.38.37-.86.58-1.44.63v.03c.28.03.54.09.81.2s.5.26.7.45c.21.2.37.44.5.74.12.29.19.64.19,1.05,0,.44-.08.83-.25,1.17-.17.34-.4.63-.69.86-.29.23-.62.41-1,.53s-.79.18-1.22.18c-.53,0-1.01-.07-1.45-.22-.43-.15-.8-.36-1.1-.64-.3-.28-.53-.63-.68-1.04s-.21-.88-.17-1.42h.28c-.04.5.01.93.15,1.31.14.38.34.7.62.96.27.26.61.45,1.02.58.4.13.85.2,1.33.2.38,0,.74-.05,1.09-.16.35-.11.66-.26.92-.47s.48-.47.64-.78c.16-.31.24-.66.24-1.07s-.07-.75-.2-1.03c-.13-.28-.32-.52-.56-.7-.24-.18-.53-.32-.85-.41s-.68-.15-1.07-.17h-.67v-.28h.67c.3,0,.6-.03.9-.1.3-.07.57-.18.81-.34.24-.16.43-.37.58-.63.15-.26.22-.58.22-.97,0-.38-.09-.69-.25-.95-.16-.26-.36-.46-.61-.63-.25-.16-.53-.28-.84-.34-.31-.07-.63-.1-.96-.1-.45,0-.86.06-1.22.17-.36.12-.67.29-.93.52-.26.23-.45.53-.58.87s-.19.76-.19,1.22h-.28c0-.51.06-.96.21-1.34Z"/>
          </g>
          <g class="uuid-93c5b2e1-d969-4b0b-a887-8920e38f152d">
            <path class="uuid-aef0db3f-fe20-4986-a214-72ab1d66085a" d="m820.5,693.7v.28h-6.88v-.28h6.88Z"/>
            <path class="uuid-aef0db3f-fe20-4986-a214-72ab1d66085a" d="m821.52,689.73c.15-.38.36-.7.64-.96.28-.26.62-.45,1.02-.58.4-.13.84-.19,1.33-.19.38,0,.74.04,1.09.12.35.08.66.22.94.4s.5.42.66.72c.17.29.25.65.25,1.06,0,.66-.19,1.17-.57,1.54-.38.37-.86.58-1.44.63v.03c.28.03.54.09.81.2s.5.26.7.45c.21.2.37.44.5.74.12.29.19.64.19,1.05,0,.44-.08.83-.25,1.17-.17.34-.4.63-.69.86-.29.23-.62.41-1,.53s-.79.18-1.22.18c-.53,0-1.01-.07-1.45-.22-.43-.15-.8-.36-1.1-.64-.3-.28-.53-.63-.68-1.04s-.21-.88-.17-1.42h.28c-.04.5.01.93.15,1.31.14.38.34.7.62.96.27.26.61.45,1.02.58.4.13.85.2,1.33.2.38,0,.74-.05,1.09-.16.35-.11.66-.26.92-.47s.48-.47.64-.78c.16-.31.24-.66.24-1.07s-.07-.75-.2-1.03c-.13-.28-.32-.52-.56-.7-.24-.18-.53-.32-.85-.41s-.68-.15-1.07-.17h-.67v-.28h.67c.3,0,.6-.03.9-.1.3-.07.57-.18.81-.34.24-.16.43-.37.58-.63.15-.26.22-.58.22-.97,0-.38-.09-.69-.25-.95-.16-.26-.36-.46-.61-.63-.25-.16-.53-.28-.84-.34-.31-.07-.63-.1-.96-.1-.45,0-.86.06-1.22.17-.36.12-.67.29-.93.52-.26.23-.45.53-.58.87s-.19.76-.19,1.22h-.28c0-.51.06-.96.21-1.34Z"/>
          </g>
          <g class="uuid-93c5b2e1-d969-4b0b-a887-8920e38f152d">
            <path class="uuid-91cbf232-8090-4646-9e45-6c60e6a939e5" d="m820.5,693.7v.28h-6.88v-.28h6.88Z"/>
            <path class="uuid-91cbf232-8090-4646-9e45-6c60e6a939e5" d="m821.52,689.73c.15-.38.36-.7.64-.96.28-.26.62-.45,1.02-.58.4-.13.84-.19,1.33-.19.38,0,.74.04,1.09.12.35.08.66.22.94.4s.5.42.66.72c.17.29.25.65.25,1.06,0,.66-.19,1.17-.57,1.54-.38.37-.86.58-1.44.63v.03c.28.03.54.09.81.2s.5.26.7.45c.21.2.37.44.5.74.12.29.19.64.19,1.05,0,.44-.08.83-.25,1.17-.17.34-.4.63-.69.86-.29.23-.62.41-1,.53s-.79.18-1.22.18c-.53,0-1.01-.07-1.45-.22-.43-.15-.8-.36-1.1-.64-.3-.28-.53-.63-.68-1.04s-.21-.88-.17-1.42h.28c-.04.5.01.93.15,1.31.14.38.34.7.62.96.27.26.61.45,1.02.58.4.13.85.2,1.33.2.38,0,.74-.05,1.09-.16.35-.11.66-.26.92-.47s.48-.47.64-.78c.16-.31.24-.66.24-1.07s-.07-.75-.2-1.03c-.13-.28-.32-.52-.56-.7-.24-.18-.53-.32-.85-.41s-.68-.15-1.07-.17h-.67v-.28h.67c.3,0,.6-.03.9-.1.3-.07.57-.18.81-.34.24-.16.43-.37.58-.63.15-.26.22-.58.22-.97,0-.38-.09-.69-.25-.95-.16-.26-.36-.46-.61-.63-.25-.16-.53-.28-.84-.34-.31-.07-.63-.1-.96-.1-.45,0-.86.06-1.22.17-.36.12-.67.29-.93.52-.26.23-.45.53-.58.87s-.19.76-.19,1.22h-.28c0-.51.06-.96.21-1.34Z"/>
          </g>
          <g class="uuid-93c5b2e1-d969-4b0b-a887-8920e38f152d">
            <path class="uuid-91cbf232-8090-4646-9e45-6c60e6a939e5" d="m820.5,631.76v.28h-6.88v-.28h6.88Z"/>
            <path class="uuid-91cbf232-8090-4646-9e45-6c60e6a939e5" d="m827.56,635.59h-6.3c0-.39.07-.75.25-1.07.17-.32.4-.62.69-.9.28-.28.6-.55.96-.8.35-.25.7-.5,1.05-.75.36-.25.71-.5,1.05-.76.34-.26.64-.53.91-.81.27-.28.48-.58.64-.89.16-.32.24-.66.24-1.03s-.07-.69-.2-.97c-.13-.28-.31-.51-.54-.7-.23-.19-.5-.33-.82-.43-.32-.1-.66-.14-1.04-.14-.49,0-.9.07-1.25.22-.35.15-.63.35-.85.61s-.38.57-.48.94-.15.76-.15,1.19h-.27c0-1.03.26-1.82.76-2.39s1.25-.85,2.25-.85c.4,0,.78.05,1.13.16s.65.26.91.48.46.47.61.78.23.68.23,1.1c0,.51-.14.98-.41,1.4s-.62.82-1.04,1.18-.87.71-1.36,1.04c-.49.33-.94.65-1.37.98-.43.33-.79.66-1.09,1-.3.34-.47.72-.51,1.12h6.03v.28Z"/>
          </g>
          <g class="uuid-93c5b2e1-d969-4b0b-a887-8920e38f152d">
            <path class="uuid-aef0db3f-fe20-4986-a214-72ab1d66085a" d="m820.5,631.76v.28h-6.88v-.28h6.88Z"/>
            <path class="uuid-aef0db3f-fe20-4986-a214-72ab1d66085a" d="m827.56,635.59h-6.3c0-.39.07-.75.25-1.07.17-.32.4-.62.69-.9.28-.28.6-.55.96-.8.35-.25.7-.5,1.05-.75.36-.25.71-.5,1.05-.76.34-.26.64-.53.91-.81.27-.28.48-.58.64-.89.16-.32.24-.66.24-1.03s-.07-.69-.2-.97c-.13-.28-.31-.51-.54-.7-.23-.19-.5-.33-.82-.43-.32-.1-.66-.14-1.04-.14-.49,0-.9.07-1.25.22-.35.15-.63.35-.85.61s-.38.57-.48.94-.15.76-.15,1.19h-.27c0-1.03.26-1.82.76-2.39s1.25-.85,2.25-.85c.4,0,.78.05,1.13.16s.65.26.91.48.46.47.61.78.23.68.23,1.1c0,.51-.14.98-.41,1.4s-.62.82-1.04,1.18-.87.71-1.36,1.04c-.49.33-.94.65-1.37.98-.43.33-.79.66-1.09,1-.3.34-.47.72-.51,1.12h6.03v.28Z"/>
          </g>
          <g class="uuid-93c5b2e1-d969-4b0b-a887-8920e38f152d">
            <path class="uuid-91cbf232-8090-4646-9e45-6c60e6a939e5" d="m820.5,631.76v.28h-6.88v-.28h6.88Z"/>
            <path class="uuid-91cbf232-8090-4646-9e45-6c60e6a939e5" d="m827.56,635.59h-6.3c0-.39.07-.75.25-1.07.17-.32.4-.62.69-.9.28-.28.6-.55.96-.8.35-.25.7-.5,1.05-.75.36-.25.71-.5,1.05-.76.34-.26.64-.53.91-.81.27-.28.48-.58.64-.89.16-.32.24-.66.24-1.03s-.07-.69-.2-.97c-.13-.28-.31-.51-.54-.7-.23-.19-.5-.33-.82-.43-.32-.1-.66-.14-1.04-.14-.49,0-.9.07-1.25.22-.35.15-.63.35-.85.61s-.38.57-.48.94-.15.76-.15,1.19h-.27c0-1.03.26-1.82.76-2.39s1.25-.85,2.25-.85c.4,0,.78.05,1.13.16s.65.26.91.48.46.47.61.78.23.68.23,1.1c0,.51-.14.98-.41,1.4s-.62.82-1.04,1.18-.87.71-1.36,1.04c-.49.33-.94.65-1.37.98-.43.33-.79.66-1.09,1-.3.34-.47.72-.51,1.12h6.03v.28Z"/>
          </g>
          <g class="uuid-93c5b2e1-d969-4b0b-a887-8920e38f152d">
            <path class="uuid-91cbf232-8090-4646-9e45-6c60e6a939e5" d="m820.5,570.98v.28h-6.88v-.28h6.88Z"/>
            <path class="uuid-91cbf232-8090-4646-9e45-6c60e6a939e5" d="m824.58,565.8c-.28.39-.65.74-1.11,1.03-.45.29-.92.5-1.38.63v-.28c.28-.09.54-.19.76-.3s.43-.23.62-.37c.19-.14.38-.29.56-.47.18-.17.36-.37.56-.59h.3v9.36h-.28v-9h-.03Z"/>
          </g>
          <g class="uuid-93c5b2e1-d969-4b0b-a887-8920e38f152d">
            <path class="uuid-aef0db3f-fe20-4986-a214-72ab1d66085a" d="m820.5,570.98v.28h-6.88v-.28h6.88Z"/>
            <path class="uuid-aef0db3f-fe20-4986-a214-72ab1d66085a" d="m824.58,565.8c-.28.39-.65.74-1.11,1.03-.45.29-.92.5-1.38.63v-.28c.28-.09.54-.19.76-.3s.43-.23.62-.37c.19-.14.38-.29.56-.47.18-.17.36-.37.56-.59h.3v9.36h-.28v-9h-.03Z"/>
          </g>
          <g class="uuid-93c5b2e1-d969-4b0b-a887-8920e38f152d">
            <path class="uuid-91cbf232-8090-4646-9e45-6c60e6a939e5" d="m820.5,570.98v.28h-6.88v-.28h6.88Z"/>
            <path class="uuid-91cbf232-8090-4646-9e45-6c60e6a939e5" d="m824.58,565.8c-.28.39-.65.74-1.11,1.03-.45.29-.92.5-1.38.63v-.28c.28-.09.54-.19.76-.3s.43-.23.62-.37c.19-.14.38-.29.56-.47.18-.17.36-.37.56-.59h.3v9.36h-.28v-9h-.03Z"/>
          </g>
          <g class="uuid-93c5b2e1-d969-4b0b-a887-8920e38f152d">
            <path class="uuid-91cbf232-8090-4646-9e45-6c60e6a939e5" d="m824.58,443.08c-.28.39-.65.74-1.11,1.03-.45.29-.92.5-1.38.63v-.28c.28-.09.54-.19.76-.3s.43-.23.62-.37c.19-.14.38-.29.56-.47.18-.17.36-.37.56-.59h.3v9.36h-.28v-9h-.03Z"/>
          </g>
          <g class="uuid-93c5b2e1-d969-4b0b-a887-8920e38f152d">
            <path class="uuid-aef0db3f-fe20-4986-a214-72ab1d66085a" d="m824.58,443.08c-.28.39-.65.74-1.11,1.03-.45.29-.92.5-1.38.63v-.28c.28-.09.54-.19.76-.3s.43-.23.62-.37c.19-.14.38-.29.56-.47.18-.17.36-.37.56-.59h.3v9.36h-.28v-9h-.03Z"/>
          </g>
          <g class="uuid-93c5b2e1-d969-4b0b-a887-8920e38f152d">
            <path class="uuid-91cbf232-8090-4646-9e45-6c60e6a939e5" d="m824.58,443.08c-.28.39-.65.74-1.11,1.03-.45.29-.92.5-1.38.63v-.28c.28-.09.54-.19.76-.3s.43-.23.62-.37c.19-.14.38-.29.56-.47.18-.17.36-.37.56-.59h.3v9.36h-.28v-9h-.03Z"/>
          </g>
          <g class="uuid-93c5b2e1-d969-4b0b-a887-8920e38f152d">
            <path class="uuid-91cbf232-8090-4646-9e45-6c60e6a939e5" d="m827.56,391.29h-6.3c0-.39.07-.75.25-1.07.17-.32.4-.62.69-.9.28-.28.6-.55.96-.8.35-.25.7-.5,1.05-.75.36-.25.71-.5,1.05-.76.34-.26.64-.53.91-.81.27-.28.48-.58.64-.89.16-.32.24-.66.24-1.03s-.07-.69-.2-.97c-.13-.28-.31-.51-.54-.7-.23-.19-.5-.33-.82-.43-.32-.1-.66-.14-1.04-.14-.49,0-.9.07-1.25.22-.35.15-.63.35-.85.61s-.38.57-.48.94-.15.76-.15,1.19h-.27c0-1.03.26-1.82.76-2.39s1.25-.85,2.25-.85c.4,0,.78.05,1.13.16s.65.26.91.48.46.47.61.78.23.68.23,1.1c0,.51-.14.98-.41,1.4s-.62.82-1.04,1.18-.87.71-1.36,1.04c-.49.33-.94.65-1.37.98-.43.33-.79.66-1.09,1-.3.34-.47.72-.51,1.12h6.03v.28Z"/>
          </g>
          <g class="uuid-93c5b2e1-d969-4b0b-a887-8920e38f152d">
            <path class="uuid-aef0db3f-fe20-4986-a214-72ab1d66085a" d="m827.56,391.29h-6.3c0-.39.07-.75.25-1.07.17-.32.4-.62.69-.9.28-.28.6-.55.96-.8.35-.25.7-.5,1.05-.75.36-.25.71-.5,1.05-.76.34-.26.64-.53.91-.81.27-.28.48-.58.64-.89.16-.32.24-.66.24-1.03s-.07-.69-.2-.97c-.13-.28-.31-.51-.54-.7-.23-.19-.5-.33-.82-.43-.32-.1-.66-.14-1.04-.14-.49,0-.9.07-1.25.22-.35.15-.63.35-.85.61s-.38.57-.48.94-.15.76-.15,1.19h-.27c0-1.03.26-1.82.76-2.39s1.25-.85,2.25-.85c.4,0,.78.05,1.13.16s.65.26.91.48.46.47.61.78.23.68.23,1.1c0,.51-.14.98-.41,1.4s-.62.82-1.04,1.18-.87.71-1.36,1.04c-.49.33-.94.65-1.37.98-.43.33-.79.66-1.09,1-.3.34-.47.72-.51,1.12h6.03v.28Z"/>
          </g>
          <g class="uuid-93c5b2e1-d969-4b0b-a887-8920e38f152d">
            <path class="uuid-91cbf232-8090-4646-9e45-6c60e6a939e5" d="m827.56,391.29h-6.3c0-.39.07-.75.25-1.07.17-.32.4-.62.69-.9.28-.28.6-.55.96-.8.35-.25.7-.5,1.05-.75.36-.25.71-.5,1.05-.76.34-.26.64-.53.91-.81.27-.28.48-.58.64-.89.16-.32.24-.66.24-1.03s-.07-.69-.2-.97c-.13-.28-.31-.51-.54-.7-.23-.19-.5-.33-.82-.43-.32-.1-.66-.14-1.04-.14-.49,0-.9.07-1.25.22-.35.15-.63.35-.85.61s-.38.57-.48.94-.15.76-.15,1.19h-.27c0-1.03.26-1.82.76-2.39s1.25-.85,2.25-.85c.4,0,.78.05,1.13.16s.65.26.91.48.46.47.61.78.23.68.23,1.1c0,.51-.14.98-.41,1.4s-.62.82-1.04,1.18-.87.71-1.36,1.04c-.49.33-.94.65-1.37.98-.43.33-.79.66-1.09,1-.3.34-.47.72-.51,1.12h6.03v.28Z"/>
          </g>
          <g class="uuid-93c5b2e1-d969-4b0b-a887-8920e38f152d">
            <path class="uuid-91cbf232-8090-4646-9e45-6c60e6a939e5" d="m821.52,321.56c.15-.38.36-.7.64-.96.28-.26.62-.45,1.02-.58.4-.13.84-.19,1.33-.19.38,0,.74.04,1.09.12.35.08.66.22.94.4s.5.42.66.72c.17.29.25.65.25,1.06,0,.66-.19,1.17-.57,1.54-.38.37-.86.58-1.44.63v.03c.28.03.54.09.81.2s.5.26.7.45c.21.2.37.44.5.74.12.29.19.64.19,1.05,0,.44-.08.83-.25,1.17-.17.34-.4.63-.69.86-.29.23-.62.41-1,.53s-.79.18-1.22.18c-.53,0-1.01-.07-1.45-.22-.43-.15-.8-.36-1.1-.64-.3-.28-.53-.63-.68-1.04s-.21-.88-.17-1.42h.28c-.04.5.01.93.15,1.31.14.38.34.7.62.96.27.26.61.45,1.02.58.4.13.85.2,1.33.2.38,0,.74-.05,1.09-.16.35-.11.66-.26.92-.47s.48-.47.64-.78c.16-.31.24-.66.24-1.07s-.07-.75-.2-1.03c-.13-.28-.32-.52-.56-.7-.24-.18-.53-.32-.85-.41s-.68-.15-1.07-.17h-.67v-.28h.67c.3,0,.6-.03.9-.1.3-.07.57-.18.81-.34.24-.16.43-.37.58-.63.15-.26.22-.58.22-.97,0-.38-.09-.69-.25-.95-.16-.26-.36-.46-.61-.63-.25-.16-.53-.28-.84-.34-.31-.07-.63-.1-.96-.1-.45,0-.86.06-1.22.17-.36.12-.67.29-.93.52-.26.23-.45.53-.58.87s-.19.76-.19,1.22h-.28c0-.51.06-.96.21-1.34Z"/>
          </g>
          <g class="uuid-93c5b2e1-d969-4b0b-a887-8920e38f152d">
            <path class="uuid-aef0db3f-fe20-4986-a214-72ab1d66085a" d="m821.52,321.56c.15-.38.36-.7.64-.96.28-.26.62-.45,1.02-.58.4-.13.84-.19,1.33-.19.38,0,.74.04,1.09.12.35.08.66.22.94.4s.5.42.66.72c.17.29.25.65.25,1.06,0,.66-.19,1.17-.57,1.54-.38.37-.86.58-1.44.63v.03c.28.03.54.09.81.2s.5.26.7.45c.21.2.37.44.5.74.12.29.19.64.19,1.05,0,.44-.08.83-.25,1.17-.17.34-.4.63-.69.86-.29.23-.62.41-1,.53s-.79.18-1.22.18c-.53,0-1.01-.07-1.45-.22-.43-.15-.8-.36-1.1-.64-.3-.28-.53-.63-.68-1.04s-.21-.88-.17-1.42h.28c-.04.5.01.93.15,1.31.14.38.34.7.62.96.27.26.61.45,1.02.58.4.13.85.2,1.33.2.38,0,.74-.05,1.09-.16.35-.11.66-.26.92-.47s.48-.47.64-.78c.16-.31.24-.66.24-1.07s-.07-.75-.2-1.03c-.13-.28-.32-.52-.56-.7-.24-.18-.53-.32-.85-.41s-.68-.15-1.07-.17h-.67v-.28h.67c.3,0,.6-.03.9-.1.3-.07.57-.18.81-.34.24-.16.43-.37.58-.63.15-.26.22-.58.22-.97,0-.38-.09-.69-.25-.95-.16-.26-.36-.46-.61-.63-.25-.16-.53-.28-.84-.34-.31-.07-.63-.1-.96-.1-.45,0-.86.06-1.22.17-.36.12-.67.29-.93.52-.26.23-.45.53-.58.87s-.19.76-.19,1.22h-.28c0-.51.06-.96.21-1.34Z"/>
          </g>
          <g class="uuid-93c5b2e1-d969-4b0b-a887-8920e38f152d">
            <path class="uuid-91cbf232-8090-4646-9e45-6c60e6a939e5" d="m821.52,321.56c.15-.38.36-.7.64-.96.28-.26.62-.45,1.02-.58.4-.13.84-.19,1.33-.19.38,0,.74.04,1.09.12.35.08.66.22.94.4s.5.42.66.72c.17.29.25.65.25,1.06,0,.66-.19,1.17-.57,1.54-.38.37-.86.58-1.44.63v.03c.28.03.54.09.81.2s.5.26.7.45c.21.2.37.44.5.74.12.29.19.64.19,1.05,0,.44-.08.83-.25,1.17-.17.34-.4.63-.69.86-.29.23-.62.41-1,.53s-.79.18-1.22.18c-.53,0-1.01-.07-1.45-.22-.43-.15-.8-.36-1.1-.64-.3-.28-.53-.63-.68-1.04s-.21-.88-.17-1.42h.28c-.04.5.01.93.15,1.31.14.38.34.7.62.96.27.26.61.45,1.02.58.4.13.85.2,1.33.2.38,0,.74-.05,1.09-.16.35-.11.66-.26.92-.47s.48-.47.64-.78c.16-.31.24-.66.24-1.07s-.07-.75-.2-1.03c-.13-.28-.32-.52-.56-.7-.24-.18-.53-.32-.85-.41s-.68-.15-1.07-.17h-.67v-.28h.67c.3,0,.6-.03.9-.1.3-.07.57-.18.81-.34.24-.16.43-.37.58-.63.15-.26.22-.58.22-.97,0-.38-.09-.69-.25-.95-.16-.26-.36-.46-.61-.63-.25-.16-.53-.28-.84-.34-.31-.07-.63-.1-.96-.1-.45,0-.86.06-1.22.17-.36.12-.67.29-.93.52-.26.23-.45.53-.58.87s-.19.76-.19,1.22h-.28c0-.51.06-.96.21-1.34Z"/>
          </g>
          <g class="uuid-93c5b2e1-d969-4b0b-a887-8920e38f152d">
            <path class="uuid-91cbf232-8090-4646-9e45-6c60e6a939e5" d="m820.97,265.8l4.68-6.59h.34v6.65h1.69v.27h-1.69v2.44h-.28v-2.44h-4.75v-.33Zm4.72-6.21l-4.45,6.26h4.47v-6.26h-.03Z"/>
          </g>
          <g class="uuid-93c5b2e1-d969-4b0b-a887-8920e38f152d">
            <path class="uuid-aef0db3f-fe20-4986-a214-72ab1d66085a" d="m820.97,265.8l4.68-6.59h.34v6.65h1.69v.27h-1.69v2.44h-.28v-2.44h-4.75v-.33Zm4.72-6.21l-4.45,6.26h4.47v-6.26h-.03Z"/>
          </g>
          <g class="uuid-93c5b2e1-d969-4b0b-a887-8920e38f152d">
            <path class="uuid-91cbf232-8090-4646-9e45-6c60e6a939e5" d="m820.97,265.8l4.68-6.59h.34v6.65h1.69v.27h-1.69v2.44h-.28v-2.44h-4.75v-.33Zm4.72-6.21l-4.45,6.26h4.47v-6.26h-.03Z"/>
          </g>
          <g class="uuid-93c5b2e1-d969-4b0b-a887-8920e38f152d">
            <path class="uuid-91cbf232-8090-4646-9e45-6c60e6a939e5" d="m821.67,201.56h.03c.27-.44.62-.76,1.07-.96.44-.2.94-.3,1.49-.3.49,0,.93.08,1.32.24.39.16.73.38,1.02.67.28.28.5.63.66,1.03.16.4.23.83.23,1.3,0,.5-.08.95-.23,1.35-.16.4-.38.75-.66,1.03-.28.28-.62.5-1.02.65-.39.15-.83.23-1.32.23s-.92-.07-1.33-.21c-.41-.14-.76-.35-1.05-.61-.29-.27-.51-.59-.67-.98-.16-.39-.23-.84-.21-1.34h.28c-.02.46.04.87.18,1.22.14.36.34.66.6.91.26.25.58.44.96.56.38.13.79.19,1.24.19s.87-.07,1.23-.21c.36-.14.67-.34.93-.61.26-.26.45-.58.59-.95.14-.37.21-.78.21-1.23s-.07-.83-.21-1.19c-.14-.36-.34-.67-.6-.94-.26-.26-.57-.46-.94-.61-.37-.15-.77-.22-1.21-.22-.55,0-1.06.12-1.53.36-.47.24-.83.6-1.09,1.07h-.34l1-4.72h4.8v.28h-4.58l-.85,4Z"/>
          </g>
          <g class="uuid-93c5b2e1-d969-4b0b-a887-8920e38f152d">
            <path class="uuid-aef0db3f-fe20-4986-a214-72ab1d66085a" d="m821.67,201.56h.03c.27-.44.62-.76,1.07-.96.44-.2.94-.3,1.49-.3.49,0,.93.08,1.32.24.39.16.73.38,1.02.67.28.28.5.63.66,1.03.16.4.23.83.23,1.3,0,.5-.08.95-.23,1.35-.16.4-.38.75-.66,1.03-.28.28-.62.5-1.02.65-.39.15-.83.23-1.32.23s-.92-.07-1.33-.21c-.41-.14-.76-.35-1.05-.61-.29-.27-.51-.59-.67-.98-.16-.39-.23-.84-.21-1.34h.28c-.02.46.04.87.18,1.22.14.36.34.66.6.91.26.25.58.44.96.56.38.13.79.19,1.24.19s.87-.07,1.23-.21c.36-.14.67-.34.93-.61.26-.26.45-.58.59-.95.14-.37.21-.78.21-1.23s-.07-.83-.21-1.19c-.14-.36-.34-.67-.6-.94-.26-.26-.57-.46-.94-.61-.37-.15-.77-.22-1.21-.22-.55,0-1.06.12-1.53.36-.47.24-.83.6-1.09,1.07h-.34l1-4.72h4.8v.28h-4.58l-.85,4Z"/>
          </g>
          <g class="uuid-93c5b2e1-d969-4b0b-a887-8920e38f152d">
            <path class="uuid-91cbf232-8090-4646-9e45-6c60e6a939e5" d="m821.67,201.56h.03c.27-.44.62-.76,1.07-.96.44-.2.94-.3,1.49-.3.49,0,.93.08,1.32.24.39.16.73.38,1.02.67.28.28.5.63.66,1.03.16.4.23.83.23,1.3,0,.5-.08.95-.23,1.35-.16.4-.38.75-.66,1.03-.28.28-.62.5-1.02.65-.39.15-.83.23-1.32.23s-.92-.07-1.33-.21c-.41-.14-.76-.35-1.05-.61-.29-.27-.51-.59-.67-.98-.16-.39-.23-.84-.21-1.34h.28c-.02.46.04.87.18,1.22.14.36.34.66.6.91.26.25.58.44.96.56.38.13.79.19,1.24.19s.87-.07,1.23-.21c.36-.14.67-.34.93-.61.26-.26.45-.58.59-.95.14-.37.21-.78.21-1.23s-.07-.83-.21-1.19c-.14-.36-.34-.67-.6-.94-.26-.26-.57-.46-.94-.61-.37-.15-.77-.22-1.21-.22-.55,0-1.06.12-1.53.36-.47.24-.83.6-1.09,1.07h-.34l1-4.72h4.8v.28h-4.58l-.85,4Z"/>
          </g>
          <g class="uuid-93c5b2e1-d969-4b0b-a887-8920e38f152d">
            <path class="uuid-91cbf232-8090-4646-9e45-6c60e6a939e5" d="m826.74,137.65c-.2-.27-.42-.48-.67-.64-.25-.16-.5-.26-.77-.32s-.52-.09-.76-.09c-.7,0-1.26.17-1.69.52s-.76.79-1,1.32c-.23.53-.39,1.11-.46,1.72-.07.62-.11,1.19-.1,1.73h.03c.06-.33.19-.64.38-.92s.42-.53.69-.75c.27-.22.58-.38.92-.5.34-.12.7-.18,1.07-.18.4,0,.8.08,1.19.23.39.16.74.38,1.04.66.3.29.55.62.73,1.02s.28.83.28,1.32-.09.9-.26,1.29-.41.73-.71,1.02c-.3.28-.64.51-1.03.67-.39.16-.8.24-1.23.24-.32,0-.62-.04-.9-.12-.28-.08-.53-.19-.76-.33s-.43-.29-.61-.47c-.18-.17-.33-.35-.45-.54-.27-.41-.44-.88-.51-1.41-.07-.53-.11-1.09-.11-1.7s.06-1.17.17-1.78c.11-.61.3-1.16.57-1.65.27-.5.63-.9,1.08-1.21.45-.31,1.02-.47,1.71-.47.4,0,.77.06,1.11.19.33.12.63.29.87.5.25.21.45.46.61.75.16.29.26.6.3.93h-.28c-.09-.42-.24-.77-.43-1.04Zm.36,3.97c-.16-.36-.37-.67-.63-.94-.27-.27-.58-.48-.94-.63-.36-.16-.74-.23-1.16-.23s-.8.08-1.16.23c-.36.16-.67.37-.94.63-.27.27-.48.58-.63.94-.16.36-.23.74-.23,1.16s.08.8.23,1.16c.16.36.37.67.63.94.27.27.58.48.94.63s.74.23,1.16.23.8-.08,1.16-.23c.36-.16.67-.37.94-.63.27-.27.48-.58.63-.94.16-.36.23-.74.23-1.16s-.08-.8-.23-1.16Z"/>
          </g>
          <g class="uuid-93c5b2e1-d969-4b0b-a887-8920e38f152d">
            <path class="uuid-aef0db3f-fe20-4986-a214-72ab1d66085a" d="m826.74,137.65c-.2-.27-.42-.48-.67-.64-.25-.16-.5-.26-.77-.32s-.52-.09-.76-.09c-.7,0-1.26.17-1.69.52s-.76.79-1,1.32c-.23.53-.39,1.11-.46,1.72-.07.62-.11,1.19-.1,1.73h.03c.06-.33.19-.64.38-.92s.42-.53.69-.75c.27-.22.58-.38.92-.5.34-.12.7-.18,1.07-.18.4,0,.8.08,1.19.23.39.16.74.38,1.04.66.3.29.55.62.73,1.02s.28.83.28,1.32-.09.9-.26,1.29-.41.73-.71,1.02c-.3.28-.64.51-1.03.67-.39.16-.8.24-1.23.24-.32,0-.62-.04-.9-.12-.28-.08-.53-.19-.76-.33s-.43-.29-.61-.47c-.18-.17-.33-.35-.45-.54-.27-.41-.44-.88-.51-1.41-.07-.53-.11-1.09-.11-1.7s.06-1.17.17-1.78c.11-.61.3-1.16.57-1.65.27-.5.63-.9,1.08-1.21.45-.31,1.02-.47,1.71-.47.4,0,.77.06,1.11.19.33.12.63.29.87.5.25.21.45.46.61.75.16.29.26.6.3.93h-.28c-.09-.42-.24-.77-.43-1.04Zm.36,3.97c-.16-.36-.37-.67-.63-.94-.27-.27-.58-.48-.94-.63-.36-.16-.74-.23-1.16-.23s-.8.08-1.16.23c-.36.16-.67.37-.94.63-.27.27-.48.58-.63.94-.16.36-.23.74-.23,1.16s.08.8.23,1.16c.16.36.37.67.63.94.27.27.58.48.94.63s.74.23,1.16.23.8-.08,1.16-.23c.36-.16.67-.37.94-.63.27-.27.48-.58.63-.94.16-.36.23-.74.23-1.16s-.08-.8-.23-1.16Z"/>
          </g>
          <g class="uuid-93c5b2e1-d969-4b0b-a887-8920e38f152d">
            <path class="uuid-91cbf232-8090-4646-9e45-6c60e6a939e5" d="m826.74,137.65c-.2-.27-.42-.48-.67-.64-.25-.16-.5-.26-.77-.32s-.52-.09-.76-.09c-.7,0-1.26.17-1.69.52s-.76.79-1,1.32c-.23.53-.39,1.11-.46,1.72-.07.62-.11,1.19-.1,1.73h.03c.06-.33.19-.64.38-.92s.42-.53.69-.75c.27-.22.58-.38.92-.5.34-.12.7-.18,1.07-.18.4,0,.8.08,1.19.23.39.16.74.38,1.04.66.3.29.55.62.73,1.02s.28.83.28,1.32-.09.9-.26,1.29-.41.73-.71,1.02c-.3.28-.64.51-1.03.67-.39.16-.8.24-1.23.24-.32,0-.62-.04-.9-.12-.28-.08-.53-.19-.76-.33s-.43-.29-.61-.47c-.18-.17-.33-.35-.45-.54-.27-.41-.44-.88-.51-1.41-.07-.53-.11-1.09-.11-1.7s.06-1.17.17-1.78c.11-.61.3-1.16.57-1.65.27-.5.63-.9,1.08-1.21.45-.31,1.02-.47,1.71-.47.4,0,.77.06,1.11.19.33.12.63.29.87.5.25.21.45.46.61.75.16.29.26.6.3.93h-.28c-.09-.42-.24-.77-.43-1.04Zm.36,3.97c-.16-.36-.37-.67-.63-.94-.27-.27-.58-.48-.94-.63-.36-.16-.74-.23-1.16-.23s-.8.08-1.16.23c-.36.16-.67.37-.94.63-.27.27-.48.58-.63.94-.16.36-.23.74-.23,1.16s.08.8.23,1.16c.16.36.37.67.63.94.27.27.58.48.94.63s.74.23,1.16.23.8-.08,1.16-.23c.36-.16.67-.37.94-.63.27-.27.48-.58.63-.94.16-.36.23-.74.23-1.16s-.08-.8-.23-1.16Z"/>
          </g>
          <g class="uuid-93c5b2e1-d969-4b0b-a887-8920e38f152d">
            <path class="uuid-91cbf232-8090-4646-9e45-6c60e6a939e5" d="m821.34,74.55h5.97v.37c-.63.63-1.21,1.28-1.73,1.95s-.97,1.37-1.33,2.1c-.37.73-.65,1.5-.85,2.31-.2.81-.3,1.69-.3,2.62h-.28c0-.92.08-1.79.28-2.62.2-.83.48-1.61.85-2.36s.82-1.46,1.33-2.14c.52-.68,1.09-1.33,1.73-1.97h-5.67v-.28Z"/>
          </g>
          <g class="uuid-93c5b2e1-d969-4b0b-a887-8920e38f152d">
            <path class="uuid-aef0db3f-fe20-4986-a214-72ab1d66085a" d="m821.34,74.55h5.97v.37c-.63.63-1.21,1.28-1.73,1.95s-.97,1.37-1.33,2.1c-.37.73-.65,1.5-.85,2.31-.2.81-.3,1.69-.3,2.62h-.28c0-.92.08-1.79.28-2.62.2-.83.48-1.61.85-2.36s.82-1.46,1.33-2.14c.52-.68,1.09-1.33,1.73-1.97h-5.67v-.28Z"/>
          </g>
          <g class="uuid-93c5b2e1-d969-4b0b-a887-8920e38f152d">
            <path class="uuid-91cbf232-8090-4646-9e45-6c60e6a939e5" d="m821.34,74.55h5.97v.37c-.63.63-1.21,1.28-1.73,1.95s-.97,1.37-1.33,2.1c-.37.73-.65,1.5-.85,2.31-.2.81-.3,1.69-.3,2.62h-.28c0-.92.08-1.79.28-2.62.2-.83.48-1.61.85-2.36s.82-1.46,1.33-2.14c.52-.68,1.09-1.33,1.73-1.97h-5.67v-.28Z"/>
          </g>
          <g class="uuid-93c5b2e1-d969-4b0b-a887-8920e38f152d">
            <path class="uuid-91cbf232-8090-4646-9e45-6c60e6a939e5" d="m827.09,18.77c.43.45.64,1.03.64,1.74,0,.49-.09.9-.27,1.25-.18.35-.43.63-.74.86-.31.22-.67.39-1.08.5-.41.11-.85.16-1.31.16s-.89-.05-1.31-.16c-.41-.11-.77-.27-1.08-.5-.31-.23-.55-.51-.74-.86-.18-.35-.28-.77-.28-1.25,0-.72.21-1.3.64-1.74.43-.44,1.01-.7,1.75-.78v-.03c-.27-.04-.52-.11-.75-.23-.23-.11-.44-.26-.61-.43-.17-.17-.31-.37-.41-.6-.1-.23-.15-.48-.15-.74,0-.42.08-.78.23-1.08s.36-.54.63-.74.58-.33.94-.42c.36-.09.74-.13,1.14-.13s.78.04,1.14.13c.36.09.67.23.94.42s.48.44.63.74.23.66.23,1.08c0,.27-.05.51-.15.74-.1.23-.24.43-.41.6-.17.17-.38.31-.61.43-.23.12-.48.19-.75.23v.03c.74.07,1.33.33,1.75.78Zm.1.61c-.17-.3-.41-.55-.69-.73-.29-.18-.62-.31-1-.39-.38-.08-.77-.12-1.17-.12s-.79.04-1.17.12c-.38.08-.71.21-1,.39-.29.18-.52.43-.7.73-.17.3-.26.68-.26,1.13s.08.83.25,1.15.4.58.69.78c.29.2.62.35,1,.44.38.09.77.14,1.18.14s.81-.05,1.18-.14c.38-.09.71-.24,1-.44.29-.2.52-.46.69-.78s.25-.7.25-1.15-.09-.83-.26-1.13Zm-.43-4.42c-.15-.27-.35-.48-.6-.64-.25-.16-.53-.28-.85-.34-.32-.07-.64-.1-.98-.1s-.67.03-.98.1c-.32.07-.6.18-.85.34-.25.16-.45.37-.6.64-.15.27-.23.6-.23,1,0,.33.08.62.24.86s.37.44.62.59c.25.15.54.26.85.34.32.07.63.11.94.11s.63-.04.94-.11c.32-.07.6-.19.85-.34s.46-.35.62-.59c.16-.24.24-.53.24-.86,0-.4-.08-.74-.23-1Z"/>
          </g>
          <g class="uuid-93c5b2e1-d969-4b0b-a887-8920e38f152d">
            <path class="uuid-aef0db3f-fe20-4986-a214-72ab1d66085a" d="m827.09,18.77c.43.45.64,1.03.64,1.74,0,.49-.09.9-.27,1.25-.18.35-.43.63-.74.86-.31.22-.67.39-1.08.5-.41.11-.85.16-1.31.16s-.89-.05-1.31-.16c-.41-.11-.77-.27-1.08-.5-.31-.23-.55-.51-.74-.86-.18-.35-.28-.77-.28-1.25,0-.72.21-1.3.64-1.74.43-.44,1.01-.7,1.75-.78v-.03c-.27-.04-.52-.11-.75-.23-.23-.11-.44-.26-.61-.43-.17-.17-.31-.37-.41-.6-.1-.23-.15-.48-.15-.74,0-.42.08-.78.23-1.08s.36-.54.63-.74.58-.33.94-.42c.36-.09.74-.13,1.14-.13s.78.04,1.14.13c.36.09.67.23.94.42s.48.44.63.74.23.66.23,1.08c0,.27-.05.51-.15.74-.1.23-.24.43-.41.6-.17.17-.38.31-.61.43-.23.12-.48.19-.75.23v.03c.74.07,1.33.33,1.75.78Zm.1.61c-.17-.3-.41-.55-.69-.73-.29-.18-.62-.31-1-.39-.38-.08-.77-.12-1.17-.12s-.79.04-1.17.12c-.38.08-.71.21-1,.39-.29.18-.52.43-.7.73-.17.3-.26.68-.26,1.13s.08.83.25,1.15.4.58.69.78c.29.2.62.35,1,.44.38.09.77.14,1.18.14s.81-.05,1.18-.14c.38-.09.71-.24,1-.44.29-.2.52-.46.69-.78s.25-.7.25-1.15-.09-.83-.26-1.13Zm-.43-4.42c-.15-.27-.35-.48-.6-.64-.25-.16-.53-.28-.85-.34-.32-.07-.64-.1-.98-.1s-.67.03-.98.1c-.32.07-.6.18-.85.34-.25.16-.45.37-.6.64-.15.27-.23.6-.23,1,0,.33.08.62.24.86s.37.44.62.59c.25.15.54.26.85.34.32.07.63.11.94.11s.63-.04.94-.11c.32-.07.6-.19.85-.34s.46-.35.62-.59c.16-.24.24-.53.24-.86,0-.4-.08-.74-.23-1Z"/>
          </g>
          <g class="uuid-93c5b2e1-d969-4b0b-a887-8920e38f152d">
            <path class="uuid-91cbf232-8090-4646-9e45-6c60e6a939e5" d="m827.09,18.77c.43.45.64,1.03.64,1.74,0,.49-.09.9-.27,1.25-.18.35-.43.63-.74.86-.31.22-.67.39-1.08.5-.41.11-.85.16-1.31.16s-.89-.05-1.31-.16c-.41-.11-.77-.27-1.08-.5-.31-.23-.55-.51-.74-.86-.18-.35-.28-.77-.28-1.25,0-.72.21-1.3.64-1.74.43-.44,1.01-.7,1.75-.78v-.03c-.27-.04-.52-.11-.75-.23-.23-.11-.44-.26-.61-.43-.17-.17-.31-.37-.41-.6-.1-.23-.15-.48-.15-.74,0-.42.08-.78.23-1.08s.36-.54.63-.74.58-.33.94-.42c.36-.09.74-.13,1.14-.13s.78.04,1.14.13c.36.09.67.23.94.42s.48.44.63.74.23.66.23,1.08c0,.27-.05.51-.15.74-.1.23-.24.43-.41.6-.17.17-.38.31-.61.43-.23.12-.48.19-.75.23v.03c.74.07,1.33.33,1.75.78Zm.1.61c-.17-.3-.41-.55-.69-.73-.29-.18-.62-.31-1-.39-.38-.08-.77-.12-1.17-.12s-.79.04-1.17.12c-.38.08-.71.21-1,.39-.29.18-.52.43-.7.73-.17.3-.26.68-.26,1.13s.08.83.25,1.15.4.58.69.78c.29.2.62.35,1,.44.38.09.77.14,1.18.14s.81-.05,1.18-.14c.38-.09.71-.24,1-.44.29-.2.52-.46.69-.78s.25-.7.25-1.15-.09-.83-.26-1.13Zm-.43-4.42c-.15-.27-.35-.48-.6-.64-.25-.16-.53-.28-.85-.34-.32-.07-.64-.1-.98-.1s-.67.03-.98.1c-.32.07-.6.18-.85.34-.25.16-.45.37-.6.64-.15.27-.23.6-.23,1,0,.33.08.62.24.86s.37.44.62.59c.25.15.54.26.85.34.32.07.63.11.94.11s.63-.04.94-.11c.32-.07.6-.19.85-.34s.46-.35.62-.59c.16-.24.24-.53.24-.86,0-.4-.08-.74-.23-1Z"/>
          </g>
          <g class="uuid-93c5b2e1-d969-4b0b-a887-8920e38f152d">
            <path class="uuid-91cbf232-8090-4646-9e45-6c60e6a939e5" d="m827.69,522.55c-.11.58-.31,1.1-.58,1.56s-.64.83-1.09,1.11c-.45.28-1.01.42-1.69.42s-1.23-.14-1.69-.42c-.45-.28-.82-.65-1.09-1.11s-.47-.98-.58-1.56-.17-1.16-.17-1.75.06-1.17.17-1.75.31-1.1.58-1.55.64-.83,1.09-1.12,1.02-.43,1.69-.43,1.24.14,1.69.43.81.66,1.09,1.12.47.98.58,1.55.17,1.16.17,1.75-.06,1.17-.17,1.75Zm-.25-3.34c-.1-.54-.27-1.03-.52-1.47-.25-.44-.58-.8-1-1.08-.42-.28-.95-.42-1.59-.42s-1.17.14-1.59.42-.75.64-1,1.08c-.25.44-.42.93-.52,1.47-.1.54-.15,1.07-.15,1.6s.05,1.06.15,1.6c.1.54.27,1.03.52,1.47.25.44.58.8,1,1.08.42.28.95.42,1.59.42s1.17-.14,1.59-.42c.42-.28.75-.64,1-1.08.25-.44.42-.93.52-1.47.1-.54.15-1.07.15-1.6s-.05-1.05-.15-1.6Z"/>
          </g>
          <g class="uuid-93c5b2e1-d969-4b0b-a887-8920e38f152d">
            <path class="uuid-aef0db3f-fe20-4986-a214-72ab1d66085a" d="m827.69,522.55c-.11.58-.31,1.1-.58,1.56s-.64.83-1.09,1.11c-.45.28-1.01.42-1.69.42s-1.23-.14-1.69-.42c-.45-.28-.82-.65-1.09-1.11s-.47-.98-.58-1.56-.17-1.16-.17-1.75.06-1.17.17-1.75.31-1.1.58-1.55.64-.83,1.09-1.12,1.02-.43,1.69-.43,1.24.14,1.69.43.81.66,1.09,1.12.47.98.58,1.55.17,1.16.17,1.75-.06,1.17-.17,1.75Zm-.25-3.34c-.1-.54-.27-1.03-.52-1.47-.25-.44-.58-.8-1-1.08-.42-.28-.95-.42-1.59-.42s-1.17.14-1.59.42-.75.64-1,1.08c-.25.44-.42.93-.52,1.47-.1.54-.15,1.07-.15,1.6s.05,1.06.15,1.6c.1.54.27,1.03.52,1.47.25.44.58.8,1,1.08.42.28.95.42,1.59.42s1.17-.14,1.59-.42c.42-.28.75-.64,1-1.08.25-.44.42-.93.52-1.47.1-.54.15-1.07.15-1.6s-.05-1.05-.15-1.6Z"/>
          </g>
          <g class="uuid-93c5b2e1-d969-4b0b-a887-8920e38f152d">
            <path class="uuid-91cbf232-8090-4646-9e45-6c60e6a939e5" d="m827.69,522.55c-.11.58-.31,1.1-.58,1.56s-.64.83-1.09,1.11c-.45.28-1.01.42-1.69.42s-1.23-.14-1.69-.42c-.45-.28-.82-.65-1.09-1.11s-.47-.98-.58-1.56-.17-1.16-.17-1.75.06-1.17.17-1.75.31-1.1.58-1.55.64-.83,1.09-1.12,1.02-.43,1.69-.43,1.24.14,1.69.43.81.66,1.09,1.12.47.98.58,1.55.17,1.16.17,1.75-.06,1.17-.17,1.75Zm-.25-3.34c-.1-.54-.27-1.03-.52-1.47-.25-.44-.58-.8-1-1.08-.42-.28-.95-.42-1.59-.42s-1.17.14-1.59.42-.75.64-1,1.08c-.25.44-.42.93-.52,1.47-.1.54-.15,1.07-.15,1.6s.05,1.06.15,1.6c.1.54.27,1.03.52,1.47.25.44.58.8,1,1.08.42.28.95.42,1.59.42s1.17-.14,1.59-.42c.42-.28.75-.64,1-1.08.25-.44.42-.93.52-1.47.1-.54.15-1.07.15-1.6s-.05-1.05-.15-1.6Z"/>
          </g>
          <path class="uuid-d20c06ed-4422-4b02-aca3-e4a1db249ad9" d="m-1.85-754.3v5.16h0l1.15,5.15h0l1.15,5.13H.44l1.15,5.12h0l1.15,5.11h0l1.15,5.09h0l1.15,5.08h0l1.15,5.06h0l1.15,5.05h0l1.15,5.04h0l1.15,5.02h0l1.15,5.01h0l1.15,5h0l1.15,4.98h0l1.15,4.97h0l1.15,4.95h0l1.15,4.94h0l1.15,4.93h0l1.15,4.91h0l1.15,4.9h0l1.15,4.88h0l1.15,4.87h0l1.15,4.86h0l1.15,4.84h0l1.15,4.83h0l1.15,4.82h0l1.15,4.8h0l1.15,4.79h0l1.15,4.78h0l1.15,4.76h0l1.15,4.75h0l1.15,4.74h0l1.15,4.72h0l1.15,4.71h0l1.15,4.69h0l1.15,4.68h0l1.15,4.67h0l1.15,4.65h0l1.15,4.64h0l1.15,4.63h0l1.15,4.61h0l1.15,4.6h0l1.15,4.59h0l1.15,4.57h0l1.15,4.56h0l1.15,4.55h0l1.15,4.53h0l1.15,4.52h0l1.15,4.51h0l1.15,4.5h0l1.15,4.48h0l1.15,4.47h0l1.15,4.46h0l1.15,4.44h0l1.15,4.43h0l1.15,4.42h0l1.15,4.4h0l1.15,4.39h0l1.15,4.38h0l1.15,4.36h0l1.15,4.35h0l1.15,4.34h0l1.15,4.33h0l1.15,4.31h0l1.15,4.3h0l1.15,4.29h0l1.15,4.27h0l1.15,4.26h0l1.15,4.25h0l1.15,4.24h0l1.15,4.22h0l1.15,4.21h0l1.15,4.2h0l1.15,4.18h0l1.15,4.17h0l1.15,4.16h0l1.15,4.15h0l1.15,4.13h0l1.15,4.12h0l1.15,4.11h0l1.15,4.1h0l1.15,4.08h0l1.15,4.07h0l1.15,4.06h0l1.15,4.05h0l1.15,4.03h0l1.15,4.02h0l1.15,4.01h0l1.15,4h0l1.15,3.98h0l1.15,3.97h0l1.15,3.96h0l1.15,3.95h0l1.15,3.93h0l1.15,3.92h0l1.15,3.91h0l1.15,3.9h0l1.15,3.89h0l1.15,3.87h0l1.15,3.86h0l1.15,3.85h0l1.15,3.84h0l1.15,3.82h0l1.15,3.81h0l1.15,3.8h0l1.15,3.79h0l1.15,3.78h0l1.15,3.76h0l1.15,3.75h0l1.15,3.74h0l1.15,3.73h0l1.15,3.72h0l1.15,3.7h0l1.15,3.69h0l1.15,3.68h0l1.15,3.67h0l1.15,3.66h0l1.15,3.64h0l1.15,3.63h0l1.15,3.62h0l1.15,3.61h0l1.15,3.6h0l1.15,3.59h0l1.15,3.57h0l1.15,3.56h0l1.15,3.55h0l1.15,3.54h0l1.15,3.53h0l1.15,3.52h0l1.15,3.5h0l1.15,3.49h0l1.15,3.48h0l1.15,3.47h0l1.15,3.46h0l1.15,3.45h0l1.15,3.43h0l1.15,3.42h0l1.15,3.41h0l1.15,3.4h0l1.15,3.39h0l1.15,3.38h0l1.15,3.37h0l1.15,3.35h0l1.15,3.34h0l1.15,3.33h0l1.15,3.32h0l1.15,3.31h0l1.15,3.3h0l1.15,3.29h0l1.15,3.28h0l1.15,3.26h0l1.15,3.25h0l1.15,3.24h0l1.15,3.23h0l1.15,3.22h0l1.15,3.21h0l1.15,3.2h0l1.15,3.19h0l1.15,3.18h0l1.15,3.16h0l1.15,3.15h0l1.15,3.14h0l1.15,3.13h0l1.15,3.12h0l1.15,3.11h0l1.15,3.1h0l1.15,3.09h0l1.15,3.08h0l1.15,3.07h0l1.15,3.05h0l1.15,3.04h0l1.15,3.03h0l1.15,3.02h0l1.15,3.01h0l1.15,3h0l1.15,2.99h0l1.15,2.98h0l1.15,2.97h0l1.15,2.96h0l1.15,2.95h0l1.15,2.94h0l1.15,2.93h0l1.15,2.92h0l1.15,2.9h0l1.15,2.89h0l1.15,2.88h0l1.15,2.87h0l1.15,2.86h0l1.15,2.85h0l1.15,2.84h0l1.15,2.83h0l1.15,2.82h0l1.15,2.81h0l1.15,2.8h0l1.15,2.79h0l1.15,2.78h0l1.15,2.77h0l1.15,2.76h0l1.15,2.75h0l1.15,2.74h0l1.15,2.73h0l1.15,2.72h0l1.15,2.71h0l1.15,2.7h0l1.15,2.69h0l1.15,2.68h0l1.15,2.67h0l1.15,2.66h0l1.15,2.65h0l1.15,2.64h0l1.15,2.63h0l1.15,2.62h0l1.15,2.61h0l1.15,2.6h0l1.15,2.59h0l1.15,2.58h0l1.15,2.57h0l1.15,2.56h0l1.15,2.55h0l1.15,2.54h0l1.15,2.53h0l1.15,2.52h0l1.15,2.51h0l1.15,2.5h0l1.15,2.49h0l1.15,2.48h0l1.15,2.47h0l1.15,2.46h0l1.15,2.45h0l1.15,2.44h0l1.15,2.43h0l1.15,2.42h0l1.15,2.41h0l1.15,2.4h0l1.15,2.39h0l1.15,2.38h0l1.15,2.37h0l1.15,2.36h0l1.15,2.35h0l1.15,2.34h0l1.15,2.33h0l1.15,2.32h0l1.15,2.31h0l1.15,2.3h0l1.15,2.3h0l1.15,2.29h0l1.15,2.28h0l1.15,2.27h0l1.15,2.26h0l1.15,2.25h0l1.15,2.24h0l1.15,2.23h0l1.15,2.22h0l1.15,2.21h0l1.15,2.2h0l1.15,2.19h0l1.15,2.18h0l1.15,2.17h0l1.15,2.17h0l1.15,2.16h0l1.15,2.15h0l1.15,2.14h0l1.15,2.13h0l1.15,2.12h0l1.15,2.11h0l1.15,2.1h0l1.15,2.09h0l1.15,2.08h0l1.15,2.07h0l1.15,2.07h0l1.15,2.06h0l1.15,2.05h0l1.15,2.04h0l1.15,2.03h0l1.15,2.02h0l1.15,2.01h0l1.15,2h0l1.15,2h0l1.15,1.99h0l1.15,1.98h0l1.15,1.97h0l1.15,1.96h0l1.15,1.95h0l1.15,1.94h0l1.15,1.93h0l1.15,1.93h0l1.15,1.92h0l1.15,1.91h0l1.15,1.9h0l1.15,1.89h0l1.15,1.88h0l1.15,1.87h0l1.15,1.87h0l1.15,1.86h0l1.15,1.85h0l1.15,1.84h0l1.15,1.83h0l1.15,1.82h0l1.15,1.82h0l1.15,1.81h0l1.15,1.8h0l1.15,1.79h0l1.15,1.78h0l1.15,1.77h0l1.15,1.77h0l1.15,1.76h0l1.15,1.75h0l1.15,1.74h0l1.15,1.73h0l1.15,1.72h0l1.15,1.72h0l1.15,1.71h0l1.15,1.7h0l1.15,1.69h0l1.15,1.68h0l1.15,1.68h0l1.15,1.67h0l1.15,1.66h0l1.15,1.65h0l1.15,1.64h0l1.15,1.64h0l1.15,1.63h0l1.15,1.62h0l1.15,1.61h0l1.15,1.6h0l1.15,1.6h0l1.15,1.59h0l1.15,1.58h0l1.15,1.57h0l1.15,1.57h0l1.15,1.56h0l1.15,1.55h0l1.15,1.54h0l1.15,1.53h0l1.15,1.53h0l1.15,1.52h0l1.15,1.51h0l1.15,1.5h0l1.15,1.5h0l1.15,1.49h0l1.15,1.48h0l1.15,1.47h0l1.15,1.47h0l1.15,1.46h0l1.15,1.45h0l1.15,1.44h0l1.15,1.44h0l1.15,1.43h0l1.15,1.42h0l1.15,1.41h0l1.15,1.41h0l1.15,1.4h0l1.15,1.39h0l1.15,1.38h0l1.15,1.38h0l1.15,1.37h0l1.15,1.36h0l1.15,1.36h0l1.15,1.35h0l1.15,1.34h0l1.15,1.33h0l1.15,1.33h0l1.15,1.32h0l1.15,1.31h0l1.15,1.31h0l1.15,1.3h0l1.15,1.29h0l1.15,1.28h0l1.15,1.28h0l1.15,1.27h0l1.15,1.26h0l1.15,1.26h0l1.15,1.25h0l1.15,1.24h0l1.15,1.24h0l1.15,1.23h0l1.15,1.22h0l1.15,1.21h0l1.15,1.21h0l1.15,1.2h0l1.15,1.19h0l1.15,1.19h0l1.15,1.18h0l1.15,1.17h0l1.15,1.17h0l1.15,1.16h0l1.15,1.15h0l1.15,1.15h0l1.15,1.14h0l1.15,1.13h0l1.15,1.13h0l1.15,1.12h0l1.15,1.11h0l1.15,1.11h0l1.15,1.1h0l1.15,1.09h0l1.15,1.09h0l1.15,1.08h0l1.15,1.08h0l1.15,1.07h0l1.15,1.06h0l1.15,1.06h0l1.15,1.05h0l1.15,1.04h0l1.15,1.04h0l1.15,1.03h0l1.15,1.02h0l1.15,1.02h0l1.15,1.01h0l1.15,1.01h0l1.15,1h0l1.15.99h0l1.15.99h0l1.15.98h0l1.15.97h0l1.15.97h0l1.15.96h0l1.15.96h0l1.15.95h0l1.15.94h0l1.15.94h0l1.15.93h0l1.15.93h0l1.15.92h0l1.15.91h0l1.15.91h0l1.15.9h0l1.15.9h0l1.15.89h0l1.15.89h0l1.15.88h0l1.15.87h0l1.15.87h0l1.15.86h0l1.15.86h0l1.15.85h0l1.15.84h0l1.15.84h0l1.15.83h0l1.15.83h0l1.15.82h0l1.15.82h0l1.15.81h0l1.15.81h0l1.15.8h0l1.15.79h0l1.15.79h0l1.15.78h0l1.15.78h0l1.15.77h0l1.15.77h0l1.15.76h0l1.15.76h0l1.15.75h0l1.15.75h0l1.15.74h0l1.15.73h0l1.15.73h0l1.15.72h0l1.15.72h0l1.15.71h0l1.15.71h0l1.15.7h0l1.15.7h0l1.15.69h0l1.15.69h0l1.15.68h0l1.15.68h0l1.15.67h0l1.15.67h0l1.15.66h0l1.15.66h0l1.15.65h0l1.15.65h0l1.15.64h0l1.15.64h0l1.15.63h0l1.15.63h0l1.15.62h0l1.15.62h0l1.15.61h0l1.15.61h0l1.15.6h0l1.15.6h0l1.15.59h0l1.15.59h0l1.15.58h0l1.15.58h0l1.15.57h0l1.15.57h0l1.15.56h0l1.15.56h0l1.15.56h0l1.15.55h0l1.15.55h0l1.15.54h0l1.15.54h0l1.15.53h0l1.15.53h0l1.15.52h0l1.15.52h0l1.15.51h0l1.15.51h0l1.15.51h0l1.15.5h0l1.15.5h0l1.15.49h0l1.15.49h0l1.15.48h0l1.15.48h0l1.15.48h0l1.15.47h0l1.15.47h0l1.15.46h0l1.15.46h0l1.15.45h0l1.15.45h0l1.15.45h0l1.15.44h0l1.15.44h0l1.15.43h0l1.15.43h0l1.15.43h0l1.15.42h0l1.15.42h0l1.15.41h0l1.15.41h0l1.15.41h0l1.15.4h0l1.15.4h0l1.15.39h0l1.15.39h0l1.15.39h0l1.15.38h0l1.15.38h0l1.15.37h0l1.15.37h0l1.15.37h0l1.15.36h0l1.15.36h0l1.15.36h0l1.15.35h0l1.15.35h0l1.15.34h0l1.15.34h0l1.15.34h0l1.15.33h0l1.15.33h0l1.15.33h0l1.15.32h0l1.15.32h0l1.15.32h0l1.15.31h0l1.15.31h0l1.15.31h0l1.15.3h0l1.15.3h0l1.15.3h0l1.15.29h0l1.15.29h0l1.15.29h0l1.15.28h0l1.15.28h0l1.15.28h0l1.15.27h0l1.15.27h0l1.15.27h0l1.15.26h0l1.15.26h0l1.15.26h0l1.15.25h0l1.15.25h0l1.15.25h0l1.15.24h0l1.15.24h0l1.15.24h0l1.15.23h0l1.15.23h0l1.15.23h0l1.15.23h0l1.15.22h0l1.15.22h0l1.15.22h0l1.15.21h0l1.15.21h0l1.15.21h0l1.15.21h0l1.15.2h0l1.15.2h0l1.15.2h0l1.15.19h0l1.15.19h0l1.15.19h0l1.15.19h0l1.15.18h0l1.15.18h0l1.15.18h0l1.15.18h0l1.15.17h0l1.15.17h0l1.15.17h0l1.15.17h0l1.15.16h0l1.15.16h0l1.15.16h0l1.15.16h0l1.15.15h0l1.15.15h0l1.15.15h0l1.15.15h0l1.15.14h0l1.15.14h0l1.15.14h0l1.15.14h0l1.15.13h0l1.15.13h0l1.15.13h0l1.15.13h0l1.15.13h0l1.15.12h0l1.15.12h0l1.15.12h0l1.15.12h0l1.15.11h0l1.15.11h0l1.15.11h0l1.15.11h0l1.15.11h0l1.15.1h0l1.15.1h0l1.15.1h0l1.15.1h0l1.15.1h0l1.15.09h0l1.15.09h0l1.15.09h0l1.15.09h0l1.15.09h0l1.15.09h0l1.15.08h0l1.15.08h0l1.15.08h0l1.15.08h0l1.15.08h0l1.15.07h0l1.15.07h0l1.15.07h0l1.15.07h0l1.15.07h0l1.15.07h0l1.15.06h0l1.15.06h0l1.15.06h0l1.15.06h0l1.15.06h0l1.15.06h0l1.15.06h0l1.15.05h0l1.15.05h0l1.15.05h0l1.15.05h0l1.15.05h0l1.15.05h0l1.15.05h0l1.15.04h0l1.15.04h0l1.15.04h0l1.15.04h0l1.15.04h0l1.15.04h0l1.15.04h0l1.15.04h0l1.15.03h0l1.15.03h0l1.15.03h0l1.15.03h0l1.15.03h0l1.15.03h0l1.15.03h0l1.15.03h0l1.15.03h0l1.15.03h0l1.15.02h0l1.15.02h0l1.15.02h0l1.15.02h0l1.15.02h0l1.15.02h0l1.15.02h0l1.15.02h0l1.15.02h0l1.15.02h0l1.15.02h1.15s1.15.03,1.15.03h1.15s1.15.03,1.15.03h1.15s1.15.02,1.15.02h1.15s1.15.02,1.15.02h1.15s1.15.02,1.15.02h1.15s1.15.02,1.15.02h1.15s1.15.01,1.15.01h1.15s1.15.01,1.15.01h1.15s1.15,0,1.15,0h1.15s1.15,0,1.15,0h1.15s1.15,0,1.15,0h1.15s1.15,0,1.15,0h1.15s1.15,0,1.15,0h1.15s1.15,0,1.15,0h1.15s1.15,0,1.15,0h1.15s1.15,0,1.15,0h1.15s1.15,0,1.15,0h1.15s1.15,0,1.15,0h1.15s1.15,0,1.15,0h1.15s1.15,0,1.15,0h2.29s1.15,0,1.15,0h1.15s1.15,0,1.15,0h1.15s1.15,0,1.15,0h1.15s1.15,0,1.15,0h1.15s1.15,0,1.15,0h1.15s1.15,0,1.15,0h1.15s1.15,0,1.15,0h1.15s1.15,0,1.15,0h1.15s1.15,0,1.15,0h1.15s1.15,0,1.15,0h1.15s1.15,0,1.15,0h1.15s1.15.01,1.15.01h1.15s1.15.01,1.15.01h1.15s1.15.02,1.15.02h1.15s1.15.02,1.15.02h1.15s1.15.02,1.15.02h1.15s1.15.02,1.15.02h1.15s1.15.03,1.15.03h1.15s1.15.03,1.15.03h0l1.15.02h0l1.15.02h0l1.15.02h0l1.15.02h0l1.15.02h0l1.15.02h0l1.15.02h0l1.15.02h0l1.15.02h0l1.15.02h0l1.15.02h0l1.15.02h0l1.15.03h0l1.15.03h0l1.15.03h0l1.15.03h0l1.15.03h0l1.15.03h0l1.15.03h0l1.15.03h0l1.15.03h0l1.15.04h0l1.15.04h0l1.15.04h0l1.15.04h0l1.15.04h0l1.15.04h0l1.15.04h0l1.15.04h0l1.15.05h0l1.15.05h0l1.15.05h0l1.15.05h0l1.15.05h0l1.15.05h0l1.15.05h0l1.15.06h0l1.15.06h0l1.15.06h0l1.15.06h0l1.15.06h0l1.15.06h0l1.15.06h0l1.15.07h0l1.15.07h0l1.15.07h0l1.15.07h0l1.15.07h0l1.15.07h0l1.15.08h0l1.15.08h0l1.15.08h0l1.15.08h0l1.15.08h0l1.15.08h0l1.15.09h0l1.15.09h0l1.15.09h0l1.15.09h0l1.15.09h0l1.15.1h0l1.15.1h0l1.15.1h0l1.15.1h0l1.15.1h0l1.15.11h0l1.15.11h0l1.15.11h0l1.15.11h0l1.15.11h0l1.15.12h0l1.15.12h0l1.15.12h0l1.15.12h0l1.15.12h0l1.15.13h0l1.15.13h0l1.15.13h0l1.15.13h0l1.15.14h0l1.15.14h0l1.15.14h0l1.15.14h0l1.15.15h0l1.15.15h0l1.15.15h0l1.15.15h0l1.15.16h0l1.15.16h0l1.15.16h0l1.15.16h0l1.15.17h0l1.15.17h0l1.15.17h0l1.15.17h0l1.15.18h0l1.15.18h0l1.15.18h0l1.15.18h0l1.15.19h0l1.15.19h0l1.15.19h0l1.15.19h0l1.15.2h0l1.15.2h0l1.15.2h0l1.15.21h0l1.15.21h0l1.15.21h0l1.15.21h0l1.15.22h0l1.15.22h0l1.15.22h0l1.15.23h0l1.15.23h0l1.15.23h0l1.15.23h0l1.15.24h0l1.15.24h0l1.15.24h0l1.15.25h0l1.15.25h0l1.15.25h0l1.15.26h0l1.15.26h0l1.15.26h0l1.15.27h0l1.15.27h0l1.15.27h0l1.15.27h0l1.15.28h0l1.15.28h0l1.15.28h0l1.15.29h0l1.15.29h0l1.15.29h0l1.15.3h0l1.15.3h0l1.15.3h0l1.15.31h0l1.15.31h0l1.15.32h0l1.15.32h0l1.15.32h0l1.15.33h0l1.15.33h0l1.15.33h0l1.15.34h0l1.15.34h0l1.15.34h0l1.15.35h0l1.15.35h0l1.15.35h0l1.15.36h0l1.15.36h0l1.15.37h0l1.15.37h0l1.15.37h0l1.15.38h0l1.15.38h0l1.15.38h0l1.15.39h0l1.15.39h0l1.15.4h0l1.15.4h0l1.15.4h0l1.15.41h0l1.15.41h0l1.15.42h0l1.15.42h0l1.15.42h0l1.15.43h0l1.15.43h0l1.15.44h0l1.15.44h0l1.15.44h0l1.15.45h0l1.15.45h0l1.15.46h0l1.15.46h0l1.15.47h0l1.15.47h0l1.15.47h0l1.15.48h0l1.15.48h0l1.15.49h0l1.15.49h0l1.15.5h0l1.15.5h0l1.15.5h0l1.15.51h0l1.15.51h0l1.15.52h0l1.15.52h0l1.15.53h0l1.15.53h0l1.15.54h0l1.15.54h0l1.15.55h0l1.15.55h0l1.15.55h0l1.15.56h0l1.15.56h0l1.15.57h0l1.15.57h0l1.15.58h0l1.15.58h0l1.15.59h0l1.15.59h0l1.15.6h0l1.15.6h0l1.15.61h0l1.15.61h0l1.15.62h0l1.15.62h0l1.15.63h0l1.15.63h0l1.15.64h0l1.15.64h0l1.15.65h0l1.15.65h0l1.15.66h0l1.15.66h0l1.15.67h0l1.15.67h0l1.15.68h0l1.15.68h0l1.15.69h0l1.15.69h0l1.15.7h0l1.15.7h0l1.15.71h0l1.15.71h0l1.15.72h0l1.15.72h0l1.15.73h0l1.15.73h0l1.15.74h0l1.15.74h0l1.15.75h0l1.15.75h0l1.15.76h0l1.15.77h0l1.15.77h0l1.15.78h0l1.15.78h0l1.15.79h0l1.15.79h0l1.15.8h0l1.15.8h0l1.15.81h0l1.15.82h0l1.15.82h0l1.15.83h0l1.15.83h0l1.15.84h0l1.15.84h0l1.15.85h0l1.15.85h0l1.15.86h0l1.15.87h0l1.15.87h0l1.15.88h0l1.15.88h0l1.15.89h0l1.15.9h0l1.15.9h0l1.15.91h0l1.15.91h0l1.15.92h0l1.15.93h0l1.15.93h0l1.15.94h0l1.15.94h0l1.15.95h0l1.15.96h0l1.15.96h0l1.15.97h0l1.15.97h0l1.15.98h0l1.15.99h0l1.15.99h0l1.15,1h0l1.15,1h0l1.15,1.01h0l1.15,1.02h0l1.15,1.02h0l1.15,1.03h0l1.15,1.04h0l1.15,1.04h0l1.15,1.05h0l1.15,1.05h0l1.15,1.06h0l1.15,1.07h0l1.15,1.07h0l1.15,1.08h0l1.15,1.09h0l1.15,1.09h0l1.15,1.1h0l1.15,1.11h0l1.15,1.11h0l1.15,1.12h0l1.15,1.13h0l1.15,1.13h0l1.15,1.14h0l1.15,1.15h0l1.15,1.15h0l1.15,1.16h0l1.15,1.17h0l1.15,1.17h0l1.15,1.18h0l1.15,1.19h0l1.15,1.19h0l1.15,1.2h0l1.15,1.21h0l1.15,1.21h0l1.15,1.22h0l1.15,1.23h0l1.15,1.23h0l1.15,1.24h0l1.15,1.25h0l1.15,1.25h0l1.15,1.26h0l1.15,1.27h0l1.15,1.28h0l1.15,1.28h0l1.15,1.29h0l1.15,1.3h0l1.15,1.3h0l1.15,1.31h0l1.15,1.32h0l1.15,1.33h0l1.15,1.33h0l1.15,1.34h0l1.15,1.35h0l1.15,1.35h0l1.15,1.36h0l1.15,1.37h0l1.15,1.38h0l1.15,1.38h0l1.15,1.39h0l1.15,1.4h0l1.15,1.4h0l1.15,1.41h0l1.15,1.42h0l1.15,1.43h0l1.15,1.43h0l1.15,1.44h0l1.15,1.45h0l1.15,1.46h0l1.15,1.46h0l1.15,1.47h0l1.15,1.48h0l1.15,1.49h0l1.15,1.49h0l1.15,1.5h0l1.15,1.51h0l1.15,1.52h0l1.15,1.52h0l1.15,1.53h0l1.15,1.54h0l1.15,1.55h0l1.15,1.56h0l1.15,1.56h0l1.15,1.57h0l1.15,1.58h0l1.15,1.59h0l1.15,1.59h0l1.15,1.6h0l1.15,1.61h0l1.15,1.62h0l1.15,1.63h0l1.15,1.63h0l1.15,1.64h0l1.15,1.65h0l1.15,1.66h0l1.15,1.67h0l1.15,1.67h0l1.15,1.68h0l1.15,1.69h0l1.15,1.7h0l1.15,1.71h0l1.15,1.71h0l1.15,1.72h0l1.15,1.73h0l1.15,1.74h0l1.15,1.75h0l1.15,1.76h0l1.15,1.76h0l1.15,1.77h0l1.15,1.78h0l1.15,1.79h0l1.15,1.8h0l1.15,1.81h0l1.15,1.81h0l1.15,1.82h0l1.15,1.83h0l1.15,1.84h0l1.15,1.85h0l1.15,1.86h0l1.15,1.86h0l1.15,1.87h0l1.15,1.88h0l1.15,1.89h0l1.15,1.9h0l1.15,1.91h0l1.15,1.92h0l1.15,1.92h0l1.15,1.93h0l1.15,1.94h0l1.15,1.95h0l1.15,1.96h0l1.15,1.97h0l1.15,1.98h0l1.15,1.98h0l1.15,1.99h0l1.15,2h0l1.15,2.01h0l1.15,2.02h0l1.15,2.03h0l1.15,2.04h0l1.15,2.05h0l1.15,2.06h0l1.15,2.06h0l1.15,2.07h0l1.15,2.08h0l1.15,2.09h0l1.15,2.1h0l1.15,2.11h0l1.15,2.12h0l1.15,2.13h0l1.15,2.14h0l1.15,2.14h0l1.15,2.15h0l1.15,2.16h0l1.15,2.17h0l1.15,2.18h0l1.15,2.19h0l1.15,2.2h0l1.15,2.21h0l1.15,2.22h0l1.15,2.23h0l1.15,2.24h0l1.15,2.25h0l1.15,2.26h0l1.15,2.26h0l1.15,2.27h0l1.15,2.28h0l1.15,2.29h0l1.15,2.3h0l1.15,2.31h0l1.15,2.32h0l1.15,2.33h0l1.15,2.34h0l1.15,2.35h0l1.15,2.36h0l1.15,2.37h0l1.15,2.38h0l1.15,2.39h0l1.15,2.4h0l1.15,2.41h0l1.15,2.42h0l1.15,2.43h0l1.15,2.44h0l1.15,2.45h0l1.15,2.46h0l1.15,2.47h0l1.15,2.47h0l1.15,2.48h0l1.15,2.49h0l1.15,2.5h0l1.15,2.51h0l1.15,2.52h0l1.15,2.53h0l1.15,2.54h0l1.15,2.55h0l1.15,2.56h0l1.15,2.57h0l1.15,2.58h0l1.15,2.59h0l1.15,2.6h0l1.15,2.61h0l1.15,2.62h0l1.15,2.63h0l1.15,2.64h0l1.15,2.65h0l1.15,2.66h0l1.15,2.67h0l1.15,2.68h0l1.15,2.69h0l1.15,2.7h0l1.15,2.71h0l1.15,2.73h0l1.15,2.74h0l1.15,2.75h0l1.15,2.76h0l1.15,2.77h0l1.15,2.78h0l1.15,2.79h0l1.15,2.8h0l1.15,2.81h0l1.15,2.82h0l1.15,2.83h0l1.15,2.84h0l1.15,2.85h0l1.15,2.86h0l1.15,2.87h0l1.15,2.88h0l1.15,2.89h0l1.15,2.9h0l1.15,2.91h0l1.15,2.92h0l1.15,2.93h0l1.15,2.94h0l1.15,2.96h0l1.15,2.97h0l1.15,2.98h0l1.15,2.99h0l1.15,3h0l1.15,3.01h0l1.15,3.02h0l1.15,3.03h0l1.15,3.04h0l1.15,3.05h0l1.15,3.06h0l1.15,3.07h0l1.15,3.08h0l1.15,3.1h0l1.15,3.11h0l1.15,3.12h0l1.15,3.13h0l1.15,3.14h0l1.15,3.15h0l1.15,3.16h0l1.15,3.17h0l1.15,3.18h0l1.15,3.19h0l1.15,3.21h0l1.15,3.22h0l1.15,3.23h0l1.15,3.24h0l1.15,3.25h0l1.15,3.26h0l1.15,3.27h0l1.15,3.28h0l1.15,3.3h0l1.15,3.31h0l1.15,3.32h0l1.15,3.33h0l1.15,3.34h0l1.15,3.35h0l1.15,3.36h0l1.15,3.37h0l1.15,3.39h0l1.15,3.4h0l1.15,3.41h0l1.15,3.42h0l1.15,3.43h0l1.15,3.44h0l1.15,3.45h0l1.15,3.47h0l1.15,3.48h0l1.15,3.49h0l1.15,3.5h0l1.15,3.51h0l1.15,3.52h0l1.15,3.54h0l1.15,3.55h0l1.15,3.56h0l1.15,3.57h0l1.15,3.58h0l1.15,3.59h0l1.15,3.61h0l1.15,3.62h0l1.15,3.63h0l1.15,3.64h0l1.15,3.65h0l1.15,3.67h0l1.15,3.68h0l1.15,3.69h0l1.15,3.7h0l1.15,3.71h0l1.15,3.73h0l1.15,3.74h0l1.15,3.75h0l1.15,3.76h0l1.15,3.77h0l1.15,3.79h0l1.15,3.8h0l1.15,3.81h0l1.15,3.82h0l1.15,3.83h0l1.15,3.85h0l1.15,3.86h0l1.15,3.87h0l1.15,3.88h0l1.15,3.89h0l1.15,3.91h0l1.15,3.92h0l1.15,3.93h0l1.15,3.94h0l1.15,3.96h0l1.15,3.97h0l1.15,3.98h0l1.15,3.99h0l1.15,4.01h0l1.15,4.02h0l1.15,4.03h0l1.15,4.04h0l1.15,4.06h0l1.15,4.07h0l1.15,4.08h0l1.15,4.09h0l1.15,4.11h0l1.15,4.12h0l1.15,4.13h0l1.15,4.14h0l1.15,4.16h0l1.15,4.17h0l1.15,4.18h0l1.15,4.19h0l1.15,4.21h0l1.15,4.22h0l1.15,4.23h0l1.15,4.25h0l1.15,4.26h0l1.15,4.27h0l1.15,4.28h0l1.15,4.3h0l1.15,4.31h0l1.15,4.32h0l1.15,4.34h0l1.15,4.35h0l1.15,4.36h0l1.15,4.37h0l1.15,4.39h0l1.15,4.4h0l1.15,4.41h0l1.15,4.43h0l1.15,4.44h0l1.15,4.45h0l1.15,4.47h0l1.15,4.48h0l1.15,4.49h0l1.15,4.51h0l1.15,4.52h0l1.15,4.53h0l1.15,4.54h0l1.15,4.56h0l1.15,4.57h0l1.15,4.58h0l1.15,4.6h0l1.15,4.61h0l1.15,4.62h0l1.15,4.64h0l1.15,4.65h0l1.15,4.66h0l1.15,4.68h0l1.15,4.69h0l1.15,4.7h0l1.15,4.72h0l1.15,4.73h0l1.15,4.75h0l1.15,4.76h0l1.15,4.77h0l1.15,4.79h0l1.15,4.8h0l1.15,4.81h0l1.15,4.83h0l1.15,4.84h0l1.15,4.85h0l1.15,4.87h0l1.15,4.88h0l1.15,4.9h0l1.15,4.91h0l1.15,4.92h0l1.15,4.94h0l1.15,4.95h0l1.15,4.96h0l1.15,4.98h0l1.15,4.99h0l1.15,5.01h0l1.15,5.02h0l1.15,5.03h0l1.15,5.05h0l1.15,5.06h0l1.15,5.08h0l1.15,5.09h0l1.15,5.1h0l1.15,5.12h0l1.15,5.13h0l1.15,5.15h0l1.15,5.16h0l1.15,5.17h0l1.15,5.19h0l1.15,5.2h0l1.15,5.22h0l1.15,5.23h0l1.15,5.24"/>
        </g>
      </g>
    </g>
  </g>
  <g id="uuid-bac60457-e71c-45c7-87e1-299e5049d5c6" data-name="Marco">
    <path class="uuid-1ad03f74-4089-413d-8d8f-1293af6a7633" d="m0-2V1022h1680V-2H0Zm1663,987c0,11.05-8.95,20-20,20H37c-11.05,0-20-8.95-20-20V35c0-11.05,8.95-20,20-20h1606c11.05,0,20,8.95,20,20v950Z"/>
  </g>
</svg>