<?xml version="1.0" encoding="UTF-8"?>
<svg xmlns="http://www.w3.org/2000/svg" width="1680" height="1020" xmlns:xlink="http://www.w3.org/1999/xlink" viewBox="0 0 1680 1020">
  <defs>
    <style>
      .uuid-014a8513-8880-4511-894c-c6f7195da433 {
        stroke: rgba(192, 192, 192, .24);
      }

      .uuid-014a8513-8880-4511-894c-c6f7195da433, .uuid-c8051579-0bf9-44fa-8900-81120866c969, .uuid-823fb212-e1e5-4446-8529-2f7dfc14bf62, .uuid-2be041e3-2e25-482e-873d-91714753aed8, .uuid-3ae21e74-a41a-417a-b4a1-5f6cfc14fd40, .uuid-5448a724-45b0-4b39-bfe1-05af96ba9c8b, .uuid-659d42a8-ddec-45d2-bf46-1b013cb92bcf, .uuid-e54e199d-1d29-40e2-a5d9-10acce775892, .uuid-bc264f48-797e-47b8-940b-013e542e5c2e {
        fill: none;
      }

      .uuid-014a8513-8880-4511-894c-c6f7195da433, .uuid-2be041e3-2e25-482e-873d-91714753aed8 {
        stroke-dasharray: 0 0 1.15 3.44;
        stroke-width: 1.15px;
      }

      .uuid-014a8513-8880-4511-894c-c6f7195da433, .uuid-2be041e3-2e25-482e-873d-91714753aed8, .uuid-e54e199d-1d29-40e2-a5d9-10acce775892 {
        stroke-linejoin: round;
      }

      .uuid-3aa064d9-e6df-48a9-8a66-fe70d6c22031 {
        fill: #fff;
      }

      .uuid-c8051579-0bf9-44fa-8900-81120866c969 {
        stroke: #606060;
        stroke-miterlimit: 10;
        stroke-width: 2.29px;
      }

      .uuid-823fb212-e1e5-4446-8529-2f7dfc14bf62 {
        clip-path: url(#uuid-0ac112a0-6e70-437f-af75-f6932e7c9db1);
      }

      .uuid-2be041e3-2e25-482e-873d-91714753aed8 {
        stroke: silver;
      }

      .uuid-3ae21e74-a41a-417a-b4a1-5f6cfc14fd40 {
        stroke: #fff;
        stroke-linejoin: bevel;
        stroke-width: 3.44px;
      }

      .uuid-5448a724-45b0-4b39-bfe1-05af96ba9c8b {
        isolation: isolate;
      }

      .uuid-054602bc-4757-40b2-a86a-bcc482368a4f {
        fill: #00699b;
      }

      .uuid-e54e199d-1d29-40e2-a5d9-10acce775892 {
        stroke: rgba(153, 51, 0, .7);
        stroke-linecap: round;
        stroke-width: 4.59px;
      }

      .uuid-4abd121d-3a83-4f7c-9ca6-b695bfc3979f, .uuid-1b20a070-9b90-40ed-9ae5-f9c5fd30f5c4 {
        fill: #606060;
      }

      .uuid-bc264f48-797e-47b8-940b-013e542e5c2e {
        clip-path: url(#uuid-cb6a6efb-e4de-4fa1-a161-e015fd0b05bd);
      }

      .uuid-1b20a070-9b90-40ed-9ae5-f9c5fd30f5c4 {
        fill-rule: evenodd;
      }
    </style>
    <clipPath id="uuid-cb6a6efb-e4de-4fa1-a161-e015fd0b05bd">
      <rect class="uuid-659d42a8-ddec-45d2-bf46-1b013cb92bcf" y="2.61" width="1680" height="1019.39"/>
    </clipPath>
    <clipPath id="uuid-0ac112a0-6e70-437f-af75-f6932e7c9db1">
      <rect class="uuid-659d42a8-ddec-45d2-bf46-1b013cb92bcf" x="-3" y="-10.14" width="1686" height="1040.27"/>
    </clipPath>
  </defs>
  <g id="uuid-3879c876-b1c6-4c4b-bce0-2d67b588c20b" data-name="Grafica">
    <g class="uuid-bc264f48-797e-47b8-940b-013e542e5c2e">
      <g class="uuid-823fb212-e1e5-4446-8529-2f7dfc14bf62">
        <g>
          <rect class="uuid-3aa064d9-e6df-48a9-8a66-fe70d6c22031" x="-3" y="-10.14" width="1686" height="1040.27"/>
          <path class="uuid-2be041e3-2e25-482e-873d-91714753aed8" d="m136.35-9.56v1040.27m0-1040.27v1040.27M384.09-9.56v1040.27M632.98-9.56v1040.27M880.72-9.56v1040.27M1377.34-9.56v1040.27M1626.23-9.56v1040.27"/>
          <path class="uuid-014a8513-8880-4511-894c-c6f7195da433" d="m36.57-9.56v1040.27M87.03-9.56v1040.27M185.67-9.56v1040.27M236.14-9.56v1040.27M285.46-9.56v1040.27M334.77-9.56v1040.27M434.56-9.56v1040.27M483.88-9.56v1040.27M533.19-9.56v1040.27M583.66-9.56v1040.27M682.3-9.56v1040.27M731.61-9.56v1040.27M782.08-9.56v1040.27M831.4-9.56v1040.27M931.18-9.56v1040.27M980.5-9.56v1040.27M1029.82-9.56v1040.27M1079.14-9.56v1040.27M1178.92-9.56v1040.27M1228.24-9.56v1040.27M1278.7-9.56v1040.27M1328.02-9.56v1040.27M1426.66-9.56v1040.27M1477.12-9.56v1040.27M1526.44-9.56v1040.27M1575.76-9.56v1040.27M1675.54-9.56v1040.27"/>
          <path class="uuid-2be041e3-2e25-482e-873d-91714753aed8" d="m-2.43,22.55h1686M-2.43,22.55h1686M-2.43,146.42h1686M-2.43,271.44h1686M-2.43,395.31h1686M-2.43,519.18h1686M-2.43,643.04h1686M-2.43,891.93h1686M-2.43,1015.8h1686"/>
          <path class="uuid-014a8513-8880-4511-894c-c6f7195da433" d="m-2.43-1.53h1686M-2.43-1.53h1686M-2.43,47.78h1686M-2.43,73.02h1686M-2.43,97.1h1686M-2.43,122.33h1686M-2.43,171.65h1686M-2.43,196.89h1686M-2.43,220.97h1686M-2.43,246.2h1686M-2.43,295.52h1686M-2.43,320.76h1686M-2.43,345.99h1686M-2.43,370.07h1686M-2.43,420.54h1686M-2.43,444.62h1686M-2.43,469.86h1686M-2.43,493.94h1686M-2.43,544.41h1686M-2.43,568.49h1686M-2.43,593.73h1686M-2.43,618.96h1686M-2.43,668.28h1686M-2.43,693.51h1686M-2.43,717.6h1686M-2.43,742.83h1686M-2.43,792.15h1686M-2.43,817.38h1686M-2.43,841.47h1686M-2.43,866.7h1686M-2.43,916.02h1686M-2.43,941.25h1686M-2.43,966.48h1686M-2.43,990.57h1686"/>
          <path class="uuid-c8051579-0bf9-44fa-8900-81120866c969" d="m1129.03-6.7v1036.83"/>
          <path class="uuid-1b20a070-9b90-40ed-9ae5-f9c5fd30f5c4" d="m1129.31-7.84l-5.73,22.94h11.47"/>
          <path class="uuid-c8051579-0bf9-44fa-8900-81120866c969" d="m-3,767.49h1682.56"/>
          <path class="uuid-1b20a070-9b90-40ed-9ae5-f9c5fd30f5c4" d="m1680.71,767.48l-22.94-5.73v11.47"/>
          <g class="uuid-5448a724-45b0-4b39-bfe1-05af96ba9c8b">
            <path class="uuid-4abd121d-3a83-4f7c-9ca6-b695bfc3979f" d="m135.78,780.87v.28h-6.88v-.28h6.88Z"/>
            <path class="uuid-4abd121d-3a83-4f7c-9ca6-b695bfc3979f" d="m136.25,781.92l4.68-6.59h.34v6.65h1.69v.28h-1.69v2.44h-.28v-2.44h-4.75v-.33Zm4.72-6.21l-4.45,6.26h4.47v-6.26h-.03Z"/>
          </g>
          <g class="uuid-5448a724-45b0-4b39-bfe1-05af96ba9c8b">
            <path class="uuid-3ae21e74-a41a-417a-b4a1-5f6cfc14fd40" d="m135.78,780.87v.28h-6.88v-.28h6.88Z"/>
            <path class="uuid-3ae21e74-a41a-417a-b4a1-5f6cfc14fd40" d="m136.25,781.92l4.68-6.59h.34v6.65h1.69v.28h-1.69v2.44h-.28v-2.44h-4.75v-.33Zm4.72-6.21l-4.45,6.26h4.47v-6.26h-.03Z"/>
          </g>
          <g class="uuid-5448a724-45b0-4b39-bfe1-05af96ba9c8b">
            <path class="uuid-4abd121d-3a83-4f7c-9ca6-b695bfc3979f" d="m135.78,780.87v.28h-6.88v-.28h6.88Z"/>
            <path class="uuid-4abd121d-3a83-4f7c-9ca6-b695bfc3979f" d="m136.25,781.92l4.68-6.59h.34v6.65h1.69v.28h-1.69v2.44h-.28v-2.44h-4.75v-.33Zm4.72-6.21l-4.45,6.26h4.47v-6.26h-.03Z"/>
          </g>
          <g class="uuid-5448a724-45b0-4b39-bfe1-05af96ba9c8b">
            <path class="uuid-4abd121d-3a83-4f7c-9ca6-b695bfc3979f" d="m383.52,780.87v.28h-6.88v-.28h6.88Z"/>
            <path class="uuid-4abd121d-3a83-4f7c-9ca6-b695bfc3979f" d="m384.54,776.89c.15-.38.36-.7.64-.96.28-.26.62-.45,1.02-.58.4-.13.84-.19,1.33-.19.38,0,.74.04,1.09.12.35.08.66.22.94.4s.5.42.66.72c.17.29.25.65.25,1.06,0,.66-.19,1.17-.57,1.54s-.86.58-1.44.63v.03c.27.03.54.09.8.2.26.11.5.26.7.46.21.2.37.44.5.74.12.29.19.64.19,1.05,0,.44-.08.83-.25,1.17-.17.34-.4.63-.69.86-.29.23-.62.41-1,.53s-.79.18-1.22.18c-.53,0-1.01-.07-1.45-.22s-.8-.36-1.1-.64c-.3-.28-.53-.63-.68-1.04-.15-.41-.21-.88-.17-1.42h.28c-.04.5.01.93.15,1.31s.34.7.62.96.61.45,1.02.58c.4.13.85.2,1.33.2.38,0,.74-.05,1.09-.16.35-.1.66-.26.92-.47.27-.21.48-.47.64-.78.16-.31.24-.66.24-1.07s-.07-.75-.2-1.03-.32-.52-.56-.7-.53-.32-.85-.41c-.33-.09-.68-.15-1.07-.17h-.67v-.28h.67c.3,0,.6-.03.9-.1.3-.07.57-.18.81-.34.24-.16.43-.37.58-.63.15-.26.22-.58.22-.97,0-.38-.09-.69-.25-.95-.16-.26-.36-.47-.61-.63-.25-.16-.53-.27-.84-.34-.31-.07-.63-.1-.96-.1-.45,0-.86.06-1.22.17-.36.11-.67.29-.93.52-.26.23-.45.53-.58.87-.13.35-.2.76-.19,1.22h-.27c0-.51.06-.96.21-1.34Z"/>
          </g>
          <g class="uuid-5448a724-45b0-4b39-bfe1-05af96ba9c8b">
            <path class="uuid-3ae21e74-a41a-417a-b4a1-5f6cfc14fd40" d="m383.52,780.87v.28h-6.88v-.28h6.88Z"/>
            <path class="uuid-3ae21e74-a41a-417a-b4a1-5f6cfc14fd40" d="m384.54,776.89c.15-.38.36-.7.64-.96.28-.26.62-.45,1.02-.58.4-.13.84-.19,1.33-.19.38,0,.74.04,1.09.12.35.08.66.22.94.4s.5.42.66.72c.17.29.25.65.25,1.06,0,.66-.19,1.17-.57,1.54s-.86.58-1.44.63v.03c.27.03.54.09.8.2.26.11.5.26.7.46.21.2.37.44.5.74.12.29.19.64.19,1.05,0,.44-.08.83-.25,1.17-.17.34-.4.63-.69.86-.29.23-.62.41-1,.53s-.79.18-1.22.18c-.53,0-1.01-.07-1.45-.22s-.8-.36-1.1-.64c-.3-.28-.53-.63-.68-1.04-.15-.41-.21-.88-.17-1.42h.28c-.04.5.01.93.15,1.31s.34.7.62.96.61.45,1.02.58c.4.13.85.2,1.33.2.38,0,.74-.05,1.09-.16.35-.1.66-.26.92-.47.27-.21.48-.47.64-.78.16-.31.24-.66.24-1.07s-.07-.75-.2-1.03-.32-.52-.56-.7-.53-.32-.85-.41c-.33-.09-.68-.15-1.07-.17h-.67v-.28h.67c.3,0,.6-.03.9-.1.3-.07.57-.18.81-.34.24-.16.43-.37.58-.63.15-.26.22-.58.22-.97,0-.38-.09-.69-.25-.95-.16-.26-.36-.47-.61-.63-.25-.16-.53-.27-.84-.34-.31-.07-.63-.1-.96-.1-.45,0-.86.06-1.22.17-.36.11-.67.29-.93.52-.26.23-.45.53-.58.87-.13.35-.2.76-.19,1.22h-.27c0-.51.06-.96.21-1.34Z"/>
          </g>
          <g class="uuid-5448a724-45b0-4b39-bfe1-05af96ba9c8b">
            <path class="uuid-4abd121d-3a83-4f7c-9ca6-b695bfc3979f" d="m383.52,780.87v.28h-6.88v-.28h6.88Z"/>
            <path class="uuid-4abd121d-3a83-4f7c-9ca6-b695bfc3979f" d="m384.54,776.89c.15-.38.36-.7.64-.96.28-.26.62-.45,1.02-.58.4-.13.84-.19,1.33-.19.38,0,.74.04,1.09.12.35.08.66.22.94.4s.5.42.66.72c.17.29.25.65.25,1.06,0,.66-.19,1.17-.57,1.54s-.86.58-1.44.63v.03c.27.03.54.09.8.2.26.11.5.26.7.46.21.2.37.44.5.74.12.29.19.64.19,1.05,0,.44-.08.83-.25,1.17-.17.34-.4.63-.69.86-.29.23-.62.41-1,.53s-.79.18-1.22.18c-.53,0-1.01-.07-1.45-.22s-.8-.36-1.1-.64c-.3-.28-.53-.63-.68-1.04-.15-.41-.21-.88-.17-1.42h.28c-.04.5.01.93.15,1.31s.34.7.62.96.61.45,1.02.58c.4.13.85.2,1.33.2.38,0,.74-.05,1.09-.16.35-.1.66-.26.92-.47.27-.21.48-.47.64-.78.16-.31.24-.66.24-1.07s-.07-.75-.2-1.03-.32-.52-.56-.7-.53-.32-.85-.41c-.33-.09-.68-.15-1.07-.17h-.67v-.28h.67c.3,0,.6-.03.9-.1.3-.07.57-.18.81-.34.24-.16.43-.37.58-.63.15-.26.22-.58.22-.97,0-.38-.09-.69-.25-.95-.16-.26-.36-.47-.61-.63-.25-.16-.53-.27-.84-.34-.31-.07-.63-.1-.96-.1-.45,0-.86.06-1.22.17-.36.11-.67.29-.93.52-.26.23-.45.53-.58.87-.13.35-.2.76-.19,1.22h-.27c0-.51.06-.96.21-1.34Z"/>
          </g>
          <g class="uuid-5448a724-45b0-4b39-bfe1-05af96ba9c8b">
            <path class="uuid-4abd121d-3a83-4f7c-9ca6-b695bfc3979f" d="m632.4,780.87v.28h-6.88v-.28h6.88Z"/>
            <path class="uuid-4abd121d-3a83-4f7c-9ca6-b695bfc3979f" d="m639.47,784.69h-6.3c0-.39.07-.75.25-1.07.17-.32.4-.62.69-.9.28-.28.6-.55.96-.8.35-.25.7-.5,1.05-.75.36-.25.71-.5,1.05-.76.34-.26.64-.53.91-.8.27-.28.48-.58.64-.89.16-.32.24-.66.24-1.03s-.07-.69-.2-.97c-.13-.28-.31-.51-.54-.7-.23-.19-.5-.33-.82-.43-.32-.1-.66-.14-1.04-.14-.49,0-.9.07-1.25.22s-.63.35-.85.61c-.22.26-.38.57-.48.94-.1.36-.15.76-.15,1.19h-.28c0-1.03.26-1.82.76-2.39s1.25-.85,2.25-.85c.4,0,.78.05,1.13.16s.65.26.91.47c.26.21.46.47.61.78.15.31.23.68.23,1.1,0,.51-.14.98-.41,1.4-.28.42-.62.82-1.04,1.18-.42.37-.87.71-1.36,1.04-.49.33-.94.65-1.37.98-.43.33-.79.66-1.09,1-.3.34-.47.72-.51,1.12h6.03v.28Z"/>
          </g>
          <g class="uuid-5448a724-45b0-4b39-bfe1-05af96ba9c8b">
            <path class="uuid-3ae21e74-a41a-417a-b4a1-5f6cfc14fd40" d="m632.4,780.87v.28h-6.88v-.28h6.88Z"/>
            <path class="uuid-3ae21e74-a41a-417a-b4a1-5f6cfc14fd40" d="m639.47,784.69h-6.3c0-.39.07-.75.25-1.07.17-.32.4-.62.69-.9.28-.28.6-.55.96-.8.35-.25.7-.5,1.05-.75.36-.25.71-.5,1.05-.76.34-.26.64-.53.91-.8.27-.28.48-.58.64-.89.16-.32.24-.66.24-1.03s-.07-.69-.2-.97c-.13-.28-.31-.51-.54-.7-.23-.19-.5-.33-.82-.43-.32-.1-.66-.14-1.04-.14-.49,0-.9.07-1.25.22s-.63.35-.85.61c-.22.26-.38.57-.48.94-.1.36-.15.76-.15,1.19h-.28c0-1.03.26-1.82.76-2.39s1.25-.85,2.25-.85c.4,0,.78.05,1.13.16s.65.26.91.47c.26.21.46.47.61.78.15.31.23.68.23,1.1,0,.51-.14.98-.41,1.4-.28.42-.62.82-1.04,1.18-.42.37-.87.71-1.36,1.04-.49.33-.94.65-1.37.98-.43.33-.79.66-1.09,1-.3.34-.47.72-.51,1.12h6.03v.28Z"/>
          </g>
          <g class="uuid-5448a724-45b0-4b39-bfe1-05af96ba9c8b">
            <path class="uuid-4abd121d-3a83-4f7c-9ca6-b695bfc3979f" d="m632.4,780.87v.28h-6.88v-.28h6.88Z"/>
            <path class="uuid-4abd121d-3a83-4f7c-9ca6-b695bfc3979f" d="m639.47,784.69h-6.3c0-.39.07-.75.25-1.07.17-.32.4-.62.69-.9.28-.28.6-.55.96-.8.35-.25.7-.5,1.05-.75.36-.25.71-.5,1.05-.76.34-.26.64-.53.91-.8.27-.28.48-.58.64-.89.16-.32.24-.66.24-1.03s-.07-.69-.2-.97c-.13-.28-.31-.51-.54-.7-.23-.19-.5-.33-.82-.43-.32-.1-.66-.14-1.04-.14-.49,0-.9.07-1.25.22s-.63.35-.85.61c-.22.26-.38.57-.48.94-.1.36-.15.76-.15,1.19h-.28c0-1.03.26-1.82.76-2.39s1.25-.85,2.25-.85c.4,0,.78.05,1.13.16s.65.26.91.47c.26.21.46.47.61.78.15.31.23.68.23,1.1,0,.51-.14.98-.41,1.4-.28.42-.62.82-1.04,1.18-.42.37-.87.71-1.36,1.04-.49.33-.94.65-1.37.98-.43.33-.79.66-1.09,1-.3.34-.47.72-.51,1.12h6.03v.28Z"/>
          </g>
          <g class="uuid-5448a724-45b0-4b39-bfe1-05af96ba9c8b">
            <path class="uuid-4abd121d-3a83-4f7c-9ca6-b695bfc3979f" d="m880.14,780.87v.28h-6.88v-.28h6.88Z"/>
            <path class="uuid-4abd121d-3a83-4f7c-9ca6-b695bfc3979f" d="m884.22,775.69c-.29.39-.65.74-1.11,1.03s-.92.5-1.38.63v-.28c.28-.09.54-.19.76-.3.22-.11.43-.23.62-.37s.38-.29.56-.47c.18-.17.36-.37.56-.59h.3v9.36h-.28v-9h-.03Z"/>
          </g>
          <g class="uuid-5448a724-45b0-4b39-bfe1-05af96ba9c8b">
            <path class="uuid-3ae21e74-a41a-417a-b4a1-5f6cfc14fd40" d="m880.14,780.87v.28h-6.88v-.28h6.88Z"/>
            <path class="uuid-3ae21e74-a41a-417a-b4a1-5f6cfc14fd40" d="m884.22,775.69c-.29.39-.65.74-1.11,1.03s-.92.5-1.38.63v-.28c.28-.09.54-.19.76-.3.22-.11.43-.23.62-.37s.38-.29.56-.47c.18-.17.36-.37.56-.59h.3v9.36h-.28v-9h-.03Z"/>
          </g>
          <g class="uuid-5448a724-45b0-4b39-bfe1-05af96ba9c8b">
            <path class="uuid-4abd121d-3a83-4f7c-9ca6-b695bfc3979f" d="m880.14,780.87v.28h-6.88v-.28h6.88Z"/>
            <path class="uuid-4abd121d-3a83-4f7c-9ca6-b695bfc3979f" d="m884.22,775.69c-.29.39-.65.74-1.11,1.03s-.92.5-1.38.63v-.28c.28-.09.54-.19.76-.3.22-.11.43-.23.62-.37s.38-.29.56-.47c.18-.17.36-.37.56-.59h.3v9.36h-.28v-9h-.03Z"/>
          </g>
          <g class="uuid-5448a724-45b0-4b39-bfe1-05af96ba9c8b">
            <path class="uuid-4abd121d-3a83-4f7c-9ca6-b695bfc3979f" d="m1378.55,775.69c-.29.39-.65.74-1.11,1.03s-.92.5-1.38.63v-.28c.28-.09.54-.19.76-.3.22-.11.43-.23.62-.37s.38-.29.56-.47c.18-.17.36-.37.56-.59h.3v9.36h-.28v-9h-.03Z"/>
          </g>
          <g class="uuid-5448a724-45b0-4b39-bfe1-05af96ba9c8b">
            <path class="uuid-3ae21e74-a41a-417a-b4a1-5f6cfc14fd40" d="m1378.55,775.69c-.29.39-.65.74-1.11,1.03s-.92.5-1.38.63v-.28c.28-.09.54-.19.76-.3.22-.11.43-.23.62-.37s.38-.29.56-.47c.18-.17.36-.37.56-.59h.3v9.36h-.28v-9h-.03Z"/>
          </g>
          <g class="uuid-5448a724-45b0-4b39-bfe1-05af96ba9c8b">
            <path class="uuid-4abd121d-3a83-4f7c-9ca6-b695bfc3979f" d="m1378.55,775.69c-.29.39-.65.74-1.11,1.03s-.92.5-1.38.63v-.28c.28-.09.54-.19.76-.3.22-.11.43-.23.62-.37s.38-.29.56-.47c.18-.17.36-.37.56-.59h.3v9.36h-.28v-9h-.03Z"/>
          </g>
          <g class="uuid-5448a724-45b0-4b39-bfe1-05af96ba9c8b">
            <path class="uuid-4abd121d-3a83-4f7c-9ca6-b695bfc3979f" d="m1629.27,784.69h-6.3c0-.39.07-.75.25-1.07.17-.32.4-.62.69-.9.28-.28.6-.55.96-.8.35-.25.7-.5,1.05-.75.36-.25.71-.5,1.05-.76.34-.26.64-.53.91-.8.27-.28.48-.58.64-.89.16-.32.24-.66.24-1.03s-.07-.69-.2-.97c-.13-.28-.31-.51-.54-.7-.23-.19-.5-.33-.82-.43-.32-.1-.66-.14-1.04-.14-.49,0-.9.07-1.25.22s-.63.35-.85.61c-.22.26-.38.57-.48.94-.1.36-.15.76-.15,1.19h-.28c0-1.03.26-1.82.76-2.39s1.25-.85,2.25-.85c.4,0,.78.05,1.13.16s.65.26.91.47c.26.21.46.47.61.78.15.31.23.68.23,1.1,0,.51-.14.98-.41,1.4-.28.42-.62.82-1.04,1.18-.42.37-.87.71-1.36,1.04-.49.33-.94.65-1.37.98-.43.33-.79.66-1.09,1-.3.34-.47.72-.51,1.12h6.03v.28Z"/>
          </g>
          <g class="uuid-5448a724-45b0-4b39-bfe1-05af96ba9c8b">
            <path class="uuid-3ae21e74-a41a-417a-b4a1-5f6cfc14fd40" d="m1629.27,784.69h-6.3c0-.39.07-.75.25-1.07.17-.32.4-.62.69-.9.28-.28.6-.55.96-.8.35-.25.7-.5,1.05-.75.36-.25.71-.5,1.05-.76.34-.26.64-.53.91-.8.27-.28.48-.58.64-.89.16-.32.24-.66.24-1.03s-.07-.69-.2-.97c-.13-.28-.31-.51-.54-.7-.23-.19-.5-.33-.82-.43-.32-.1-.66-.14-1.04-.14-.49,0-.9.07-1.25.22s-.63.35-.85.61c-.22.26-.38.57-.48.94-.1.36-.15.76-.15,1.19h-.28c0-1.03.26-1.82.76-2.39s1.25-.85,2.25-.85c.4,0,.78.05,1.13.16s.65.26.91.47c.26.21.46.47.61.78.15.31.23.68.23,1.1,0,.51-.14.98-.41,1.4-.28.42-.62.82-1.04,1.18-.42.37-.87.71-1.36,1.04-.49.33-.94.65-1.37.98-.43.33-.79.66-1.09,1-.3.34-.47.72-.51,1.12h6.03v.28Z"/>
          </g>
          <g class="uuid-5448a724-45b0-4b39-bfe1-05af96ba9c8b">
            <path class="uuid-4abd121d-3a83-4f7c-9ca6-b695bfc3979f" d="m1629.27,784.69h-6.3c0-.39.07-.75.25-1.07.17-.32.4-.62.69-.9.28-.28.6-.55.96-.8.35-.25.7-.5,1.05-.75.36-.25.71-.5,1.05-.76.34-.26.64-.53.91-.8.27-.28.48-.58.64-.89.16-.32.24-.66.24-1.03s-.07-.69-.2-.97c-.13-.28-.31-.51-.54-.7-.23-.19-.5-.33-.82-.43-.32-.1-.66-.14-1.04-.14-.49,0-.9.07-1.25.22s-.63.35-.85.61c-.22.26-.38.57-.48.94-.1.36-.15.76-.15,1.19h-.28c0-1.03.26-1.82.76-2.39s1.25-.85,2.25-.85c.4,0,.78.05,1.13.16s.65.26.91.47c.26.21.46.47.61.78.15.31.23.68.23,1.1,0,.51-.14.98-.41,1.4-.28.42-.62.82-1.04,1.18-.42.37-.87.71-1.36,1.04-.49.33-.94.65-1.37.98-.43.33-.79.66-1.09,1-.3.34-.47.72-.51,1.12h6.03v.28Z"/>
          </g>
          <g class="uuid-5448a724-45b0-4b39-bfe1-05af96ba9c8b">
            <path class="uuid-4abd121d-3a83-4f7c-9ca6-b695bfc3979f" d="m1112.97,1017.13v.28h-6.88v-.28h6.88Z"/>
            <path class="uuid-4abd121d-3a83-4f7c-9ca6-b695bfc3979f" d="m1120.03,1020.96h-6.3c0-.39.07-.75.25-1.07.17-.32.4-.62.69-.9.28-.28.6-.55.96-.8.35-.25.7-.5,1.05-.75.36-.25.71-.5,1.05-.76.34-.26.64-.53.91-.8.27-.28.48-.58.64-.89.16-.32.24-.66.24-1.03s-.07-.69-.2-.97c-.13-.28-.31-.51-.54-.7-.23-.19-.5-.33-.82-.43-.32-.1-.66-.14-1.04-.14-.49,0-.9.07-1.25.22s-.63.35-.85.61c-.22.26-.38.57-.48.94-.1.36-.15.76-.15,1.19h-.28c0-1.03.26-1.82.76-2.39s1.25-.85,2.25-.85c.4,0,.78.05,1.13.16s.65.26.91.47c.26.21.46.47.61.78.15.31.23.68.23,1.1,0,.51-.14.98-.41,1.4-.28.42-.62.82-1.04,1.18-.42.37-.87.71-1.36,1.04-.49.33-.94.65-1.37.98-.43.33-.79.66-1.09,1-.3.34-.47.72-.51,1.12h6.03v.28Z"/>
          </g>
          <g class="uuid-5448a724-45b0-4b39-bfe1-05af96ba9c8b">
            <path class="uuid-3ae21e74-a41a-417a-b4a1-5f6cfc14fd40" d="m1112.97,1017.13v.28h-6.88v-.28h6.88Z"/>
            <path class="uuid-3ae21e74-a41a-417a-b4a1-5f6cfc14fd40" d="m1120.03,1020.96h-6.3c0-.39.07-.75.25-1.07.17-.32.4-.62.69-.9.28-.28.6-.55.96-.8.35-.25.7-.5,1.05-.75.36-.25.71-.5,1.05-.76.34-.26.64-.53.91-.8.27-.28.48-.58.64-.89.16-.32.24-.66.24-1.03s-.07-.69-.2-.97c-.13-.28-.31-.51-.54-.7-.23-.19-.5-.33-.82-.43-.32-.1-.66-.14-1.04-.14-.49,0-.9.07-1.25.22s-.63.35-.85.61c-.22.26-.38.57-.48.94-.1.36-.15.76-.15,1.19h-.28c0-1.03.26-1.82.76-2.39s1.25-.85,2.25-.85c.4,0,.78.05,1.13.16s.65.26.91.47c.26.21.46.47.61.78.15.31.23.68.23,1.1,0,.51-.14.98-.41,1.4-.28.42-.62.82-1.04,1.18-.42.37-.87.71-1.36,1.04-.49.33-.94.65-1.37.98-.43.33-.79.66-1.09,1-.3.34-.47.72-.51,1.12h6.03v.28Z"/>
          </g>
          <g class="uuid-5448a724-45b0-4b39-bfe1-05af96ba9c8b">
            <path class="uuid-4abd121d-3a83-4f7c-9ca6-b695bfc3979f" d="m1112.97,1017.13v.28h-6.88v-.28h6.88Z"/>
            <path class="uuid-4abd121d-3a83-4f7c-9ca6-b695bfc3979f" d="m1120.03,1020.96h-6.3c0-.39.07-.75.25-1.07.17-.32.4-.62.69-.9.28-.28.6-.55.96-.8.35-.25.7-.5,1.05-.75.36-.25.71-.5,1.05-.76.34-.26.64-.53.91-.8.27-.28.48-.58.64-.89.16-.32.24-.66.24-1.03s-.07-.69-.2-.97c-.13-.28-.31-.51-.54-.7-.23-.19-.5-.33-.82-.43-.32-.1-.66-.14-1.04-.14-.49,0-.9.07-1.25.22s-.63.35-.85.61c-.22.26-.38.57-.48.94-.1.36-.15.76-.15,1.19h-.28c0-1.03.26-1.82.76-2.39s1.25-.85,2.25-.85c.4,0,.78.05,1.13.16s.65.26.91.47c.26.21.46.47.61.78.15.31.23.68.23,1.1,0,.51-.14.98-.41,1.4-.28.42-.62.82-1.04,1.18-.42.37-.87.71-1.36,1.04-.49.33-.94.65-1.37.98-.43.33-.79.66-1.09,1-.3.34-.47.72-.51,1.12h6.03v.28Z"/>
          </g>
          <g class="uuid-5448a724-45b0-4b39-bfe1-05af96ba9c8b">
            <path class="uuid-4abd121d-3a83-4f7c-9ca6-b695bfc3979f" d="m1112.97,893.27v.28h-6.88v-.28h6.88Z"/>
            <path class="uuid-4abd121d-3a83-4f7c-9ca6-b695bfc3979f" d="m1117.05,888.09c-.29.39-.65.74-1.11,1.03-.45.29-.92.5-1.38.63v-.28c.28-.09.54-.19.76-.3.22-.11.43-.23.62-.37s.38-.29.56-.47c.18-.17.36-.37.56-.59h.3v9.36h-.28v-9h-.03Z"/>
          </g>
          <g class="uuid-5448a724-45b0-4b39-bfe1-05af96ba9c8b">
            <path class="uuid-3ae21e74-a41a-417a-b4a1-5f6cfc14fd40" d="m1112.97,893.27v.28h-6.88v-.28h6.88Z"/>
            <path class="uuid-3ae21e74-a41a-417a-b4a1-5f6cfc14fd40" d="m1117.05,888.09c-.29.39-.65.74-1.11,1.03-.45.29-.92.5-1.38.63v-.28c.28-.09.54-.19.76-.3.22-.11.43-.23.62-.37s.38-.29.56-.47c.18-.17.36-.37.56-.59h.3v9.36h-.28v-9h-.03Z"/>
          </g>
          <g class="uuid-5448a724-45b0-4b39-bfe1-05af96ba9c8b">
            <path class="uuid-4abd121d-3a83-4f7c-9ca6-b695bfc3979f" d="m1112.97,893.27v.28h-6.88v-.28h6.88Z"/>
            <path class="uuid-4abd121d-3a83-4f7c-9ca6-b695bfc3979f" d="m1117.05,888.09c-.29.39-.65.74-1.11,1.03-.45.29-.92.5-1.38.63v-.28c.28-.09.54-.19.76-.3.22-.11.43-.23.62-.37s.38-.29.56-.47c.18-.17.36-.37.56-.59h.3v9.36h-.28v-9h-.03Z"/>
          </g>
          <g class="uuid-5448a724-45b0-4b39-bfe1-05af96ba9c8b">
            <path class="uuid-4abd121d-3a83-4f7c-9ca6-b695bfc3979f" d="m1117.05,639.21c-.29.39-.65.74-1.11,1.03s-.92.5-1.38.63v-.28c.28-.09.54-.19.76-.3.22-.11.43-.23.62-.37s.38-.29.56-.47c.18-.17.36-.37.56-.59h.3v9.36h-.28v-9h-.03Z"/>
          </g>
          <g class="uuid-5448a724-45b0-4b39-bfe1-05af96ba9c8b">
            <path class="uuid-3ae21e74-a41a-417a-b4a1-5f6cfc14fd40" d="m1117.05,639.21c-.29.39-.65.74-1.11,1.03s-.92.5-1.38.63v-.28c.28-.09.54-.19.76-.3.22-.11.43-.23.62-.37s.38-.29.56-.47c.18-.17.36-.37.56-.59h.3v9.36h-.28v-9h-.03Z"/>
          </g>
          <g class="uuid-5448a724-45b0-4b39-bfe1-05af96ba9c8b">
            <path class="uuid-4abd121d-3a83-4f7c-9ca6-b695bfc3979f" d="m1117.05,639.21c-.29.39-.65.74-1.11,1.03s-.92.5-1.38.63v-.28c.28-.09.54-.19.76-.3.22-.11.43-.23.62-.37s.38-.29.56-.47c.18-.17.36-.37.56-.59h.3v9.36h-.28v-9h-.03Z"/>
          </g>
          <g class="uuid-5448a724-45b0-4b39-bfe1-05af96ba9c8b">
            <path class="uuid-4abd121d-3a83-4f7c-9ca6-b695bfc3979f" d="m1120.03,524.34h-6.3c0-.39.07-.75.25-1.07.17-.32.4-.62.69-.9.28-.28.6-.55.96-.8.35-.25.7-.5,1.05-.75.36-.25.71-.5,1.05-.76.34-.26.64-.53.91-.8.27-.28.48-.58.64-.89.16-.32.24-.66.24-1.03s-.07-.69-.2-.97c-.13-.28-.31-.51-.54-.7-.23-.19-.5-.33-.82-.43-.32-.1-.66-.14-1.04-.14-.49,0-.9.07-1.25.22s-.63.35-.85.61c-.22.26-.38.57-.48.94-.1.36-.15.76-.15,1.19h-.28c0-1.03.26-1.82.76-2.39s1.25-.85,2.25-.85c.4,0,.78.05,1.13.16s.65.26.91.47c.26.21.46.47.61.78.15.31.23.68.23,1.1,0,.51-.14.98-.41,1.4-.28.42-.62.82-1.04,1.18-.42.37-.87.71-1.36,1.04-.49.33-.94.65-1.37.98-.43.33-.79.66-1.09,1-.3.34-.47.72-.51,1.12h6.03v.28Z"/>
          </g>
          <g class="uuid-5448a724-45b0-4b39-bfe1-05af96ba9c8b">
            <path class="uuid-3ae21e74-a41a-417a-b4a1-5f6cfc14fd40" d="m1120.03,524.34h-6.3c0-.39.07-.75.25-1.07.17-.32.4-.62.69-.9.28-.28.6-.55.96-.8.35-.25.7-.5,1.05-.75.36-.25.71-.5,1.05-.76.34-.26.64-.53.91-.8.27-.28.48-.58.64-.89.16-.32.24-.66.24-1.03s-.07-.69-.2-.97c-.13-.28-.31-.51-.54-.7-.23-.19-.5-.33-.82-.43-.32-.1-.66-.14-1.04-.14-.49,0-.9.07-1.25.22s-.63.35-.85.61c-.22.26-.38.57-.48.94-.1.36-.15.76-.15,1.19h-.28c0-1.03.26-1.82.76-2.39s1.25-.85,2.25-.85c.4,0,.78.05,1.13.16s.65.26.91.47c.26.21.46.47.61.78.15.31.23.68.23,1.1,0,.51-.14.98-.41,1.4-.28.42-.62.82-1.04,1.18-.42.37-.87.71-1.36,1.04-.49.33-.94.65-1.37.98-.43.33-.79.66-1.09,1-.3.34-.47.72-.51,1.12h6.03v.28Z"/>
          </g>
          <g class="uuid-5448a724-45b0-4b39-bfe1-05af96ba9c8b">
            <path class="uuid-4abd121d-3a83-4f7c-9ca6-b695bfc3979f" d="m1120.03,524.34h-6.3c0-.39.07-.75.25-1.07.17-.32.4-.62.69-.9.28-.28.6-.55.96-.8.35-.25.7-.5,1.05-.75.36-.25.71-.5,1.05-.76.34-.26.64-.53.91-.8.27-.28.48-.58.64-.89.16-.32.24-.66.24-1.03s-.07-.69-.2-.97c-.13-.28-.31-.51-.54-.7-.23-.19-.5-.33-.82-.43-.32-.1-.66-.14-1.04-.14-.49,0-.9.07-1.25.22s-.63.35-.85.61c-.22.26-.38.57-.48.94-.1.36-.15.76-.15,1.19h-.28c0-1.03.26-1.82.76-2.39s1.25-.85,2.25-.85c.4,0,.78.05,1.13.16s.65.26.91.47c.26.21.46.47.61.78.15.31.23.68.23,1.1,0,.51-.14.98-.41,1.4-.28.42-.62.82-1.04,1.18-.42.37-.87.71-1.36,1.04-.49.33-.94.65-1.37.98-.43.33-.79.66-1.09,1-.3.34-.47.72-.51,1.12h6.03v.28Z"/>
          </g>
          <g class="uuid-5448a724-45b0-4b39-bfe1-05af96ba9c8b">
            <path class="uuid-4abd121d-3a83-4f7c-9ca6-b695bfc3979f" d="m1113.99,392.67c.15-.38.36-.7.64-.96.28-.26.62-.45,1.02-.58s.84-.19,1.33-.19c.38,0,.74.04,1.09.12.35.08.66.22.94.4s.5.42.66.72c.17.29.25.65.25,1.06,0,.66-.19,1.17-.57,1.54s-.86.58-1.44.63v.03c.27.03.54.09.8.2.26.11.5.26.7.45.21.2.37.44.5.74.12.29.19.64.19,1.05,0,.44-.08.83-.25,1.17-.17.34-.4.63-.69.86-.29.23-.62.41-1,.53s-.79.18-1.22.18c-.53,0-1.01-.07-1.45-.22s-.8-.36-1.1-.64c-.3-.28-.53-.63-.68-1.04-.15-.41-.21-.89-.17-1.42h.28c-.04.5.01.93.15,1.31s.34.7.62.96.61.45,1.02.58c.4.13.85.2,1.33.2.38,0,.74-.05,1.09-.16.35-.1.66-.26.92-.47.27-.21.48-.47.64-.78.16-.31.24-.66.24-1.07s-.07-.75-.2-1.03-.32-.52-.56-.7c-.24-.18-.53-.32-.85-.41-.33-.09-.68-.15-1.07-.17h-.67v-.27h.67c.3,0,.6-.03.9-.1.3-.07.57-.18.81-.34.24-.16.43-.37.58-.63.15-.26.22-.58.22-.97,0-.38-.09-.69-.25-.95-.16-.26-.36-.47-.61-.63-.25-.16-.53-.27-.84-.34-.31-.07-.63-.1-.96-.1-.45,0-.86.06-1.22.17s-.67.29-.93.52c-.26.23-.45.53-.58.87-.13.35-.2.76-.19,1.22h-.27c0-.51.06-.96.21-1.34Z"/>
          </g>
          <g class="uuid-5448a724-45b0-4b39-bfe1-05af96ba9c8b">
            <path class="uuid-3ae21e74-a41a-417a-b4a1-5f6cfc14fd40" d="m1113.99,392.67c.15-.38.36-.7.64-.96.28-.26.62-.45,1.02-.58s.84-.19,1.33-.19c.38,0,.74.04,1.09.12.35.08.66.22.94.4s.5.42.66.72c.17.29.25.65.25,1.06,0,.66-.19,1.17-.57,1.54s-.86.58-1.44.63v.03c.27.03.54.09.8.2.26.11.5.26.7.45.21.2.37.44.5.74.12.29.19.64.19,1.05,0,.44-.08.83-.25,1.17-.17.34-.4.63-.69.86-.29.23-.62.41-1,.53s-.79.18-1.22.18c-.53,0-1.01-.07-1.45-.22s-.8-.36-1.1-.64c-.3-.28-.53-.63-.68-1.04-.15-.41-.21-.89-.17-1.42h.28c-.04.5.01.93.15,1.31s.34.7.62.96.61.45,1.02.58c.4.13.85.2,1.33.2.38,0,.74-.05,1.09-.16.35-.1.66-.26.92-.47.27-.21.48-.47.64-.78.16-.31.24-.66.24-1.07s-.07-.75-.2-1.03-.32-.52-.56-.7c-.24-.18-.53-.32-.85-.41-.33-.09-.68-.15-1.07-.17h-.67v-.27h.67c.3,0,.6-.03.9-.1.3-.07.57-.18.81-.34.24-.16.43-.37.58-.63.15-.26.22-.58.22-.97,0-.38-.09-.69-.25-.95-.16-.26-.36-.47-.61-.63-.25-.16-.53-.27-.84-.34-.31-.07-.63-.1-.96-.1-.45,0-.86.06-1.22.17s-.67.29-.93.52c-.26.23-.45.53-.58.87-.13.35-.2.76-.19,1.22h-.27c0-.51.06-.96.21-1.34Z"/>
          </g>
          <g class="uuid-5448a724-45b0-4b39-bfe1-05af96ba9c8b">
            <path class="uuid-4abd121d-3a83-4f7c-9ca6-b695bfc3979f" d="m1113.99,392.67c.15-.38.36-.7.64-.96.28-.26.62-.45,1.02-.58s.84-.19,1.33-.19c.38,0,.74.04,1.09.12.35.08.66.22.94.4s.5.42.66.72c.17.29.25.65.25,1.06,0,.66-.19,1.17-.57,1.54s-.86.58-1.44.63v.03c.27.03.54.09.8.2.26.11.5.26.7.45.21.2.37.44.5.74.12.29.19.64.19,1.05,0,.44-.08.83-.25,1.17-.17.34-.4.63-.69.86-.29.23-.62.41-1,.53s-.79.18-1.22.18c-.53,0-1.01-.07-1.45-.22s-.8-.36-1.1-.64c-.3-.28-.53-.63-.68-1.04-.15-.41-.21-.89-.17-1.42h.28c-.04.5.01.93.15,1.31s.34.7.62.96.61.45,1.02.58c.4.13.85.2,1.33.2.38,0,.74-.05,1.09-.16.35-.1.66-.26.92-.47.27-.21.48-.47.64-.78.16-.31.24-.66.24-1.07s-.07-.75-.2-1.03-.32-.52-.56-.7c-.24-.18-.53-.32-.85-.41-.33-.09-.68-.15-1.07-.17h-.67v-.27h.67c.3,0,.6-.03.9-.1.3-.07.57-.18.81-.34.24-.16.43-.37.58-.63.15-.26.22-.58.22-.97,0-.38-.09-.69-.25-.95-.16-.26-.36-.47-.61-.63-.25-.16-.53-.27-.84-.34-.31-.07-.63-.1-.96-.1-.45,0-.86.06-1.22.17s-.67.29-.93.52c-.26.23-.45.53-.58.87-.13.35-.2.76-.19,1.22h-.27c0-.51.06-.96.21-1.34Z"/>
          </g>
          <g class="uuid-5448a724-45b0-4b39-bfe1-05af96ba9c8b">
            <path class="uuid-4abd121d-3a83-4f7c-9ca6-b695bfc3979f" d="m1113.44,273.83l4.68-6.59h.34v6.65h1.69v.28h-1.69v2.44h-.28v-2.44h-4.75v-.33Zm4.72-6.21l-4.45,6.26h4.47v-6.26h-.03Z"/>
          </g>
          <g class="uuid-5448a724-45b0-4b39-bfe1-05af96ba9c8b">
            <path class="uuid-3ae21e74-a41a-417a-b4a1-5f6cfc14fd40" d="m1113.44,273.83l4.68-6.59h.34v6.65h1.69v.28h-1.69v2.44h-.28v-2.44h-4.75v-.33Zm4.72-6.21l-4.45,6.26h4.47v-6.26h-.03Z"/>
          </g>
          <g class="uuid-5448a724-45b0-4b39-bfe1-05af96ba9c8b">
            <path class="uuid-4abd121d-3a83-4f7c-9ca6-b695bfc3979f" d="m1113.44,273.83l4.68-6.59h.34v6.65h1.69v.28h-1.69v2.44h-.28v-2.44h-4.75v-.33Zm4.72-6.21l-4.45,6.26h4.47v-6.26h-.03Z"/>
          </g>
          <g class="uuid-5448a724-45b0-4b39-bfe1-05af96ba9c8b">
            <path class="uuid-4abd121d-3a83-4f7c-9ca6-b695bfc3979f" d="m1114.14,146.5h.03c.27-.44.62-.76,1.07-.96.45-.2.94-.3,1.49-.3.49,0,.93.08,1.32.24.39.16.73.38,1.02.67.29.28.5.63.66,1.03s.23.83.23,1.3c0,.5-.08.94-.23,1.35s-.38.75-.66,1.03c-.28.28-.62.5-1.02.65-.4.15-.84.23-1.32.23s-.92-.07-1.33-.21c-.41-.14-.76-.35-1.05-.61s-.51-.59-.67-.98c-.16-.39-.22-.84-.21-1.34h.28c-.02.46.04.87.18,1.23.14.36.34.66.6.91.26.25.58.44.96.56s.79.19,1.24.19.87-.07,1.23-.21c.36-.14.67-.34.93-.61.26-.26.45-.58.59-.95.14-.37.21-.78.21-1.23s-.07-.83-.21-1.19c-.14-.36-.34-.67-.6-.94-.26-.26-.57-.47-.94-.61-.37-.15-.77-.22-1.21-.22-.55,0-1.06.12-1.53.36-.47.24-.83.6-1.09,1.07h-.34l1-4.72h4.8v.27h-4.58l-.85,4.01Z"/>
          </g>
          <g class="uuid-5448a724-45b0-4b39-bfe1-05af96ba9c8b">
            <path class="uuid-3ae21e74-a41a-417a-b4a1-5f6cfc14fd40" d="m1114.14,146.5h.03c.27-.44.62-.76,1.07-.96.45-.2.94-.3,1.49-.3.49,0,.93.08,1.32.24.39.16.73.38,1.02.67.29.28.5.63.66,1.03s.23.83.23,1.3c0,.5-.08.94-.23,1.35s-.38.75-.66,1.03c-.28.28-.62.5-1.02.65-.4.15-.84.23-1.32.23s-.92-.07-1.33-.21c-.41-.14-.76-.35-1.05-.61s-.51-.59-.67-.98c-.16-.39-.22-.84-.21-1.34h.28c-.02.46.04.87.18,1.23.14.36.34.66.6.91.26.25.58.44.96.56s.79.19,1.24.19.87-.07,1.23-.21c.36-.14.67-.34.93-.61.26-.26.45-.58.59-.95.14-.37.21-.78.21-1.23s-.07-.83-.21-1.19c-.14-.36-.34-.67-.6-.94-.26-.26-.57-.47-.94-.61-.37-.15-.77-.22-1.21-.22-.55,0-1.06.12-1.53.36-.47.24-.83.6-1.09,1.07h-.34l1-4.72h4.8v.27h-4.58l-.85,4.01Z"/>
          </g>
          <g class="uuid-5448a724-45b0-4b39-bfe1-05af96ba9c8b">
            <path class="uuid-4abd121d-3a83-4f7c-9ca6-b695bfc3979f" d="m1114.14,146.5h.03c.27-.44.62-.76,1.07-.96.45-.2.94-.3,1.49-.3.49,0,.93.08,1.32.24.39.16.73.38,1.02.67.29.28.5.63.66,1.03s.23.83.23,1.3c0,.5-.08.94-.23,1.35s-.38.75-.66,1.03c-.28.28-.62.5-1.02.65-.4.15-.84.23-1.32.23s-.92-.07-1.33-.21c-.41-.14-.76-.35-1.05-.61s-.51-.59-.67-.98c-.16-.39-.22-.84-.21-1.34h.28c-.02.46.04.87.18,1.23.14.36.34.66.6.91.26.25.58.44.96.56s.79.19,1.24.19.87-.07,1.23-.21c.36-.14.67-.34.93-.61.26-.26.45-.58.59-.95.14-.37.21-.78.21-1.23s-.07-.83-.21-1.19c-.14-.36-.34-.67-.6-.94-.26-.26-.57-.47-.94-.61-.37-.15-.77-.22-1.21-.22-.55,0-1.06.12-1.53.36-.47.24-.83.6-1.09,1.07h-.34l1-4.72h4.8v.27h-4.58l-.85,4.01Z"/>
          </g>
          <g class="uuid-5448a724-45b0-4b39-bfe1-05af96ba9c8b">
            <path class="uuid-4abd121d-3a83-4f7c-9ca6-b695bfc3979f" d="m1119.21,19.52c-.2-.27-.42-.48-.67-.64-.25-.16-.5-.26-.77-.32-.27-.06-.52-.09-.76-.09-.7,0-1.26.17-1.69.52-.43.35-.76.79-1,1.32-.23.53-.39,1.11-.46,1.72s-.11,1.19-.1,1.73h.03c.06-.33.19-.64.38-.92.19-.28.42-.53.69-.75.27-.22.58-.38.92-.5s.7-.18,1.07-.18c.4,0,.8.08,1.19.23.39.16.74.38,1.04.66.3.28.54.62.73,1.02.18.39.27.83.27,1.32s-.09.9-.26,1.29c-.17.39-.41.73-.71,1.02-.3.28-.64.51-1.03.67-.39.16-.8.24-1.23.24-.32,0-.62-.04-.9-.12-.28-.08-.53-.19-.76-.33s-.43-.29-.61-.47-.33-.35-.45-.54c-.27-.41-.44-.88-.51-1.41-.07-.53-.11-1.09-.11-1.7s.05-1.17.17-1.78.3-1.16.57-1.65c.27-.5.63-.9,1.08-1.21s1.02-.47,1.71-.47c.4,0,.77.06,1.11.19s.63.29.87.5.45.46.61.75.26.6.3.93h-.28c-.09-.42-.24-.77-.43-1.04Zm.37,3.97c-.16-.36-.37-.67-.63-.94-.27-.27-.58-.48-.94-.63-.36-.16-.74-.23-1.16-.23s-.8.08-1.16.23c-.36.16-.67.37-.94.63-.27.27-.48.58-.63.94-.16.36-.23.74-.23,1.16s.08.8.23,1.16.37.67.63.94c.27.27.58.48.94.63.36.16.74.23,1.16.23s.8-.08,1.16-.23c.36-.16.67-.37.94-.63.27-.27.48-.58.63-.94s.23-.74.23-1.16-.08-.8-.23-1.16Z"/>
          </g>
          <g class="uuid-5448a724-45b0-4b39-bfe1-05af96ba9c8b">
            <path class="uuid-3ae21e74-a41a-417a-b4a1-5f6cfc14fd40" d="m1119.21,19.52c-.2-.27-.42-.48-.67-.64-.25-.16-.5-.26-.77-.32-.27-.06-.52-.09-.76-.09-.7,0-1.26.17-1.69.52-.43.35-.76.79-1,1.32-.23.53-.39,1.11-.46,1.72s-.11,1.19-.1,1.73h.03c.06-.33.19-.64.38-.92.19-.28.42-.53.69-.75.27-.22.58-.38.92-.5s.7-.18,1.07-.18c.4,0,.8.08,1.19.23.39.16.74.38,1.04.66.3.28.54.62.73,1.02.18.39.27.83.27,1.32s-.09.9-.26,1.29c-.17.39-.41.73-.71,1.02-.3.28-.64.51-1.03.67-.39.16-.8.24-1.23.24-.32,0-.62-.04-.9-.12-.28-.08-.53-.19-.76-.33s-.43-.29-.61-.47-.33-.35-.45-.54c-.27-.41-.44-.88-.51-1.41-.07-.53-.11-1.09-.11-1.7s.05-1.17.17-1.78.3-1.16.57-1.65c.27-.5.63-.9,1.08-1.21s1.02-.47,1.71-.47c.4,0,.77.06,1.11.19s.63.29.87.5.45.46.61.75.26.6.3.93h-.28c-.09-.42-.24-.77-.43-1.04Zm.37,3.97c-.16-.36-.37-.67-.63-.94-.27-.27-.58-.48-.94-.63-.36-.16-.74-.23-1.16-.23s-.8.08-1.16.23c-.36.16-.67.37-.94.63-.27.27-.48.58-.63.94-.16.36-.23.74-.23,1.16s.08.8.23,1.16.37.67.63.94c.27.27.58.48.94.63.36.16.74.23,1.16.23s.8-.08,1.16-.23c.36-.16.67-.37.94-.63.27-.27.48-.58.63-.94s.23-.74.23-1.16-.08-.8-.23-1.16Z"/>
          </g>
          <g class="uuid-5448a724-45b0-4b39-bfe1-05af96ba9c8b">
            <path class="uuid-4abd121d-3a83-4f7c-9ca6-b695bfc3979f" d="m1119.21,19.52c-.2-.27-.42-.48-.67-.64-.25-.16-.5-.26-.77-.32-.27-.06-.52-.09-.76-.09-.7,0-1.26.17-1.69.52-.43.35-.76.79-1,1.32-.23.53-.39,1.11-.46,1.72s-.11,1.19-.1,1.73h.03c.06-.33.19-.64.38-.92.19-.28.42-.53.69-.75.27-.22.58-.38.92-.5s.7-.18,1.07-.18c.4,0,.8.08,1.19.23.39.16.74.38,1.04.66.3.28.54.62.73,1.02.18.39.27.83.27,1.32s-.09.9-.26,1.29c-.17.39-.41.73-.71,1.02-.3.28-.64.51-1.03.67-.39.16-.8.24-1.23.24-.32,0-.62-.04-.9-.12-.28-.08-.53-.19-.76-.33s-.43-.29-.61-.47-.33-.35-.45-.54c-.27-.41-.44-.88-.51-1.41-.07-.53-.11-1.09-.11-1.7s.05-1.17.17-1.78.3-1.16.57-1.65c.27-.5.63-.9,1.08-1.21s1.02-.47,1.71-.47c.4,0,.77.06,1.11.19s.63.29.87.5.45.46.61.75.26.6.3.93h-.28c-.09-.42-.24-.77-.43-1.04Zm.37,3.97c-.16-.36-.37-.67-.63-.94-.27-.27-.58-.48-.94-.63-.36-.16-.74-.23-1.16-.23s-.8.08-1.16.23c-.36.16-.67.37-.94.63-.27.27-.48.58-.63.94-.16.36-.23.74-.23,1.16s.08.8.23,1.16.37.67.63.94c.27.27.58.48.94.63.36.16.74.23,1.16.23s.8-.08,1.16-.23c.36-.16.67-.37.94-.63.27-.27.48-.58.63-.94s.23-.74.23-1.16-.08-.8-.23-1.16Z"/>
          </g>
          <g class="uuid-5448a724-45b0-4b39-bfe1-05af96ba9c8b">
            <path class="uuid-4abd121d-3a83-4f7c-9ca6-b695bfc3979f" d="m1120.16,781.76c-.12.58-.31,1.1-.58,1.56s-.64.83-1.09,1.11c-.45.28-1.01.42-1.69.42s-1.23-.14-1.69-.42c-.46-.28-.82-.65-1.09-1.11s-.47-.98-.58-1.56c-.11-.58-.17-1.16-.17-1.75s.06-1.17.17-1.75c.12-.58.31-1.1.58-1.56s.64-.83,1.09-1.12c.45-.28,1.02-.43,1.69-.43s1.24.14,1.69.43c.45.29.81.66,1.09,1.12s.47.98.58,1.56c.11.58.17,1.16.17,1.75s-.06,1.17-.17,1.75Zm-.25-3.34c-.1-.54-.28-1.03-.52-1.47-.25-.44-.58-.8-1-1.08-.42-.28-.95-.42-1.59-.42s-1.17.14-1.59.42c-.42.28-.75.64-1,1.08-.25.44-.42.93-.52,1.47-.1.54-.15,1.07-.15,1.6s.05,1.06.15,1.6c.1.54.28,1.03.52,1.47.25.44.58.8,1,1.08.42.28.95.42,1.59.42s1.17-.14,1.59-.42c.42-.28.75-.64,1-1.08.25-.44.42-.93.52-1.47.1-.54.15-1.07.15-1.6s-.05-1.05-.15-1.6Z"/>
          </g>
          <g class="uuid-5448a724-45b0-4b39-bfe1-05af96ba9c8b">
            <path class="uuid-3ae21e74-a41a-417a-b4a1-5f6cfc14fd40" d="m1120.16,781.76c-.12.58-.31,1.1-.58,1.56s-.64.83-1.09,1.11c-.45.28-1.01.42-1.69.42s-1.23-.14-1.69-.42c-.46-.28-.82-.65-1.09-1.11s-.47-.98-.58-1.56c-.11-.58-.17-1.16-.17-1.75s.06-1.17.17-1.75c.12-.58.31-1.1.58-1.56s.64-.83,1.09-1.12c.45-.28,1.02-.43,1.69-.43s1.24.14,1.69.43c.45.29.81.66,1.09,1.12s.47.98.58,1.56c.11.58.17,1.16.17,1.75s-.06,1.17-.17,1.75Zm-.25-3.34c-.1-.54-.28-1.03-.52-1.47-.25-.44-.58-.8-1-1.08-.42-.28-.95-.42-1.59-.42s-1.17.14-1.59.42c-.42.28-.75.64-1,1.08-.25.44-.42.93-.52,1.47-.1.54-.15,1.07-.15,1.6s.05,1.06.15,1.6c.1.54.28,1.03.52,1.47.25.44.58.8,1,1.08.42.28.95.42,1.59.42s1.17-.14,1.59-.42c.42-.28.75-.64,1-1.08.25-.44.42-.93.52-1.47.1-.54.15-1.07.15-1.6s-.05-1.05-.15-1.6Z"/>
          </g>
          <g class="uuid-5448a724-45b0-4b39-bfe1-05af96ba9c8b">
            <path class="uuid-4abd121d-3a83-4f7c-9ca6-b695bfc3979f" d="m1120.16,781.76c-.12.58-.31,1.1-.58,1.56s-.64.83-1.09,1.11c-.45.28-1.01.42-1.69.42s-1.23-.14-1.69-.42c-.46-.28-.82-.65-1.09-1.11s-.47-.98-.58-1.56c-.11-.58-.17-1.16-.17-1.75s.06-1.17.17-1.75c.12-.58.31-1.1.58-1.56s.64-.83,1.09-1.12c.45-.28,1.02-.43,1.69-.43s1.24.14,1.69.43c.45.29.81.66,1.09,1.12s.47.98.58,1.56c.11.58.17,1.16.17,1.75s-.06,1.17-.17,1.75Zm-.25-3.34c-.1-.54-.28-1.03-.52-1.47-.25-.44-.58-.8-1-1.08-.42-.28-.95-.42-1.59-.42s-1.17.14-1.59.42c-.42.28-.75.64-1,1.08-.25.44-.42.93-.52,1.47-.1.54-.15,1.07-.15,1.6s.05,1.06.15,1.6c.1.54.28,1.03.52,1.47.25.44.58.8,1,1.08.42.28.95.42,1.59.42s1.17-.14,1.59-.42c.42-.28.75-.64,1-1.08.25-.44.42-.93.52-1.47.1-.54.15-1.07.15-1.6s-.05-1.05-.15-1.6Z"/>
          </g>
          <path class="uuid-e54e199d-1d29-40e2-a5d9-10acce775892" d="m-1.85,6105.09v21.8-21.8l1.15-21.74h0l1.15-21.68H.44l1.15-21.63h0l1.15-21.57h0l1.15-21.51h0l1.15-21.46h0l1.15-21.4h0l1.15-21.35h0l1.15-21.29h0l1.15-21.23h0l1.15-21.18h0l1.15-21.12h0l1.15-21.07h0l1.15-21.01h0l1.15-20.96h0l1.15-20.9h0l1.15-20.84h0l1.15-20.79h0l1.15-20.73h0l1.15-20.68h0l1.15-20.62h0l1.15-20.57h0l1.15-20.51h0l1.15-20.46h0l1.15-20.4h0l1.15-20.35h0l1.15-20.3h0l1.15-20.24h0l1.15-20.19h0l1.15-20.13h0l1.15-20.08h0l1.15-20.02h0l1.15-19.97h0l1.15-19.91h0l1.15-19.86h0l1.15-19.81h0l1.15-19.75h0l1.15-19.7h0l1.15-19.65h0l1.15-19.59h0l1.15-19.54h0l1.15-19.48h0l1.15-19.43h0l1.15-19.38h0l1.15-19.32h0l1.15-19.27h0l1.15-19.22h0l1.15-19.16h0l1.15-19.11h0l1.15-19.06h0l1.15-19.01h0l1.15-18.95h0l1.15-18.9h0l1.15-18.85h0l1.15-18.8h0l1.15-18.74h0l1.15-18.69h0l1.15-18.64h0l1.15-18.59h0l1.15-18.53h0l1.15-18.48h0l1.15-18.43h0l1.15-18.38h0l1.15-18.33h0l1.15-18.27h0l1.15-18.22h0l1.15-18.17h0l1.15-18.12h0l1.15-18.07h0l1.15-18.02h0l1.15-17.96h0l1.15-17.91h0l1.15-17.86h0l1.15-17.81h0l1.15-17.76h0l1.15-17.71h0l1.15-17.66h0l1.15-17.61h0l1.15-17.55h0l1.15-17.5h0l1.15-17.45h0l1.15-17.4h0l1.15-17.35h0l1.15-17.3h0l1.15-17.25h0l1.15-17.2h0l1.15-17.15h0l1.15-17.1h0l1.15-17.05h0l1.15-17h0l1.15-16.95h0l1.15-16.9h0l1.15-16.85h0l1.15-16.8h0l1.15-16.75h0l1.15-16.7h0l1.15-16.65h0l1.15-16.6h0l1.15-16.55h0l1.15-16.5h0l1.15-16.46h0l1.15-16.41h0l1.15-16.36h0l1.15-16.31h0l1.15-16.26h0l1.15-16.21h0l1.15-16.16h0l1.15-16.11h0l1.15-16.06h0l1.15-16.02h0l1.15-15.97h0l1.15-15.92h0l1.15-15.87h0l1.15-15.82h0l1.15-15.77h0l1.15-15.73h0l1.15-15.68h0l1.15-15.63h0l1.15-15.58h0l1.15-15.53h0l1.15-15.49h0l1.15-15.44h0l1.15-15.39h0l1.15-15.34h0l1.15-15.3h0l1.15-15.25h0l1.15-15.2h0l1.15-15.15h0l1.15-15.11h0l1.15-15.06h0l1.15-15.01h0l1.15-14.97h0l1.15-14.92h0l1.15-14.87h0l1.15-14.83h0l1.15-14.78h0l1.15-14.73h0l1.15-14.69h0l1.15-14.64h0l1.15-14.59h0l1.15-14.55h0l1.15-14.5h0l1.15-14.45h0l1.15-14.41h0l1.15-14.36h0l1.15-14.32h0l1.15-14.27h0l1.15-14.23h0l1.15-14.18h0l1.15-14.13h0l1.15-14.09h0l1.15-14.04h0l1.15-14h0l1.15-13.95h0l1.15-13.91h0l1.15-13.86h0l1.15-13.82h0l1.15-13.77h0l1.15-13.73h0l1.15-13.68h0l1.15-13.64h0l1.15-13.59h0l1.15-13.55h0l1.15-13.5h0l1.15-13.46h0l1.15-13.41h0l1.15-13.37h0l1.15-13.33h0l1.15-13.28h0l1.15-13.24h0l1.15-13.19h0l1.15-13.15h0l1.15-13.11h0l1.15-13.06h0l1.15-13.02h0l1.15-12.97h0l1.15-12.93h0l1.15-12.89h0l1.15-12.84h0l1.15-12.8h0l1.15-12.76h0l1.15-12.71h0l1.15-12.67h0l1.15-12.63h0l1.15-12.58h0l1.15-12.54h0l1.15-12.5h0l1.15-12.46h0l1.15-12.41h0l1.15-12.37h0l1.15-12.33h0l1.15-12.29h0l1.15-12.24h0l1.15-12.2h0l1.15-12.16h0l1.15-12.12h0l1.15-12.07h0l1.15-12.03h0l1.15-11.99h0l1.15-11.95h0l1.15-11.91h0l1.15-11.86h0l1.15-11.82h0l1.15-11.78h0l1.15-11.74h0l1.15-11.7h0l1.15-11.66h0l1.15-11.61h0l1.15-11.57h0l1.15-11.53h0l1.15-11.49h0l1.15-11.45h0l1.15-11.41h0l1.15-11.37h0l1.15-11.33h0l1.15-11.29h0l1.15-11.25h0l1.15-11.21h0l1.15-11.16h0l1.15-11.12h0l1.15-11.08h0l1.15-11.04h0l1.15-11h0l1.15-10.96h0l1.15-10.92h0l1.15-10.88h0l1.15-10.84h0l1.15-10.8h0l1.15-10.76h0l1.15-10.72h0l1.15-10.68h0l1.15-10.64h0l1.15-10.6h0l1.15-10.57h0l1.15-10.53h0l1.15-10.49h0l1.15-10.45h0l1.15-10.41h0l1.15-10.37h0l1.15-10.33h0l1.15-10.29h0l1.15-10.25h0l1.15-10.21h0l1.15-10.18h0l1.15-10.14h0l1.15-10.1h0l1.15-10.06h0l1.15-10.02h0l1.15-9.98h0l1.15-9.94h0l1.15-9.91h0l1.15-9.87h0l1.15-9.83h0l1.15-9.79h0l1.15-9.75h0l1.15-9.72h0l1.15-9.68h0l1.15-9.64h0l1.15-9.6h0l1.15-9.57h0l1.15-9.53h0l1.15-9.49h0l1.15-9.45h0l1.15-9.42h0l1.15-9.38h0l1.15-9.34h0l1.15-9.31h0l1.15-9.27h0l1.15-9.23h0l1.15-9.19h0l1.15-9.16h0l1.15-9.12h0l1.15-9.08h0l1.15-9.05h0l1.15-9.01h0l1.15-8.98h0l1.15-8.94h0l1.15-8.9h0l1.15-8.87h0l1.15-8.83h0l1.15-8.79h0l1.15-8.76h0l1.15-8.72h0l1.15-8.69h0l1.15-8.65h0l1.15-8.62h0l1.15-8.58h0l1.15-8.55h0l1.15-8.51h0l1.15-8.47h0l1.15-8.44h0l1.15-8.4h0l1.15-8.37h0l1.15-8.33h0l1.15-8.3h0l1.15-8.26h0l1.15-8.23h0l1.15-8.19h0l1.15-8.16h0l1.15-8.13h0l1.15-8.09h0l1.15-8.06h0l1.15-8.02h0l1.15-7.99h0l1.15-7.95h0l1.15-7.92h0l1.15-7.89h0l1.15-7.85h0l1.15-7.82h0l1.15-7.78h0l1.15-7.75h0l1.15-7.72h0l1.15-7.68h0l1.15-7.65h0l1.15-7.62h0l1.15-7.58h0l1.15-7.55h0l1.15-7.52h0l1.15-7.48h0l1.15-7.45h0l1.15-7.42h0l1.15-7.38h0l1.15-7.35h0l1.15-7.32h0l1.15-7.28h0l1.15-7.25h0l1.15-7.22h0l1.15-7.19h0l1.15-7.15h0l1.15-7.12h0l1.15-7.09h0l1.15-7.06h0l1.15-7.02h0l1.15-6.99h0l1.15-6.96h0l1.15-6.93h0l1.15-6.9h0l1.15-6.87h0l1.15-6.83h0l1.15-6.8h0l1.15-6.77h0l1.15-6.74h0l1.15-6.71h0l1.15-6.68h0l1.15-6.64h0l1.15-6.61h0l1.15-6.58h0l1.15-6.55h0l1.15-6.52h0l1.15-6.49h0l1.15-6.46h0l1.15-6.43h0l1.15-6.4h0l1.15-6.37h0l1.15-6.34h0l1.15-6.31h0l1.15-6.27h0l1.15-6.24h0l1.15-6.21h0l1.15-6.18h0l1.15-6.15h0l1.15-6.12h0l1.15-6.09h0l1.15-6.06h0l1.15-6.03h0l1.15-6h0l1.15-5.98h0l1.15-5.95h0l1.15-5.92h0l1.15-5.89h0l1.15-5.86h0l1.15-5.83h0l1.15-5.8h0l1.15-5.77h0l1.15-5.74h0l1.15-5.71h0l1.15-5.68h0l1.15-5.65h0l1.15-5.62h0l1.15-5.6h0l1.15-5.57h0l1.15-5.54h0l1.15-5.51h0l1.15-5.48h0l1.15-5.45h0l1.15-5.43h0l1.15-5.4h0l1.15-5.37h0l1.15-5.34h0l1.15-5.31h0l1.15-5.29h0l1.15-5.26h0l1.15-5.23h0l1.15-5.2h0l1.15-5.17h0l1.15-5.15h0l1.15-5.12h0l1.15-5.09h0l1.15-5.06h0l1.15-5.04h0l1.15-5.01h0l1.15-4.98h0l1.15-4.96h0l1.15-4.93h0l1.15-4.9h0l1.15-4.88h0l1.15-4.85h0l1.15-4.82h0l1.15-4.8h0l1.15-4.77h0l1.15-4.74h0l1.15-4.72h0l1.15-4.69h0l1.15-4.66h0l1.15-4.64h0l1.15-4.61h0l1.15-4.59h0l1.15-4.56h0l1.15-4.53h0l1.15-4.51h0l1.15-4.48h0l1.15-4.46h0l1.15-4.43h0l1.15-4.41h0l1.15-4.38h0l1.15-4.35h0l1.15-4.33h0l1.15-4.3h0l1.15-4.28h0l1.15-4.25h0l1.15-4.23h0l1.15-4.2h0l1.15-4.18h0l1.15-4.15h0l1.15-4.13h0l1.15-4.11h0l1.15-4.08h0l1.15-4.06h0l1.15-4.03h0l1.15-4.01h0l1.15-3.98h0l1.15-3.96h0l1.15-3.94h0l1.15-3.91h0l1.15-3.89h0l1.15-3.86h0l1.15-3.84h0l1.15-3.82h0l1.15-3.79h0l1.15-3.77h0l1.15-3.75h0l1.15-3.72h0l1.15-3.7h0l1.15-3.68h0l1.15-3.65h0l1.15-3.63h0l1.15-3.61h0l1.15-3.58h0l1.15-3.56h0l1.15-3.54h0l1.15-3.51h0l1.15-3.49h0l1.15-3.47h0l1.15-3.45h0l1.15-3.42h0l1.15-3.4h0l1.15-3.38h0l1.15-3.36h0l1.15-3.34h0l1.15-3.31h0l1.15-3.29h0l1.15-3.27h0l1.15-3.25h0l1.15-3.23h0l1.15-3.2h0l1.15-3.18h0l1.15-3.16h0l1.15-3.14h0l1.15-3.12h0l1.15-3.1h0l1.15-3.07h0l1.15-3.05h0l1.15-3.03h0l1.15-3.01h0l1.15-2.99h0l1.15-2.97h0l1.15-2.95h0l1.15-2.93h0l1.15-2.91h0l1.15-2.89h0l1.15-2.87h0l1.15-2.85h0l1.15-2.82h0l1.15-2.8h0l1.15-2.78h0l1.15-2.76h0l1.15-2.74h0l1.15-2.72h0l1.15-2.7h0l1.15-2.68h0l1.15-2.66h0l1.15-2.64h0l1.15-2.62h0l1.15-2.61h0l1.15-2.59h0l1.15-2.57h0l1.15-2.55h0l1.15-2.53h0l1.15-2.51h0l1.15-2.49h0l1.15-2.47h0l1.15-2.45h0l1.15-2.43h0l1.15-2.41h0l1.15-2.39h0l1.15-2.38h0l1.15-2.36h0l1.15-2.34h0l1.15-2.32h0l1.15-2.3h0l1.15-2.28h0l1.15-2.27h0l1.15-2.25h0l1.15-2.23h0l1.15-2.21h0l1.15-2.19h0l1.15-2.17h0l1.15-2.16h0l1.15-2.14h0l1.15-2.12h0l1.15-2.1h0l1.15-2.09h0l1.15-2.07h0l1.15-2.05h0l1.15-2.03h0l1.15-2.02h0l1.15-2h0l1.15-1.98h0l1.15-1.97h0l1.15-1.95h0l1.15-1.93h0l1.15-1.91h0l1.15-1.9h0l1.15-1.88h0l1.15-1.86h0l1.15-1.85h0l1.15-1.83h0l1.15-1.82h0l1.15-1.8h0l1.15-1.78h0l1.15-1.77h0l1.15-1.75h0l1.15-1.73h0l1.15-1.72h0l1.15-1.7h0l1.15-1.69h0l1.15-1.67h0l1.15-1.66h0l1.15-1.64h0l1.15-1.62h0l1.15-1.61h0l1.15-1.59h0l1.15-1.58h0l1.15-1.56h0l1.15-1.55h0l1.15-1.53h0l1.15-1.52h0l1.15-1.5h0l1.15-1.49h0l1.15-1.47h0l1.15-1.46h0l1.15-1.44h0l1.15-1.43h0l1.15-1.42h0l1.15-1.4h0l1.15-1.39h0l1.15-1.37h0l1.15-1.36h0l1.15-1.34h0l1.15-1.33h0l1.15-1.32h0l1.15-1.3h0l1.15-1.29h0l1.15-1.28h0l1.15-1.26h0l1.15-1.25h0l1.15-1.23h0l1.15-1.22h0l1.15-1.21h0l1.15-1.19h0l1.15-1.18h0l1.15-1.17h0l1.15-1.15h0l1.15-1.14h0l1.15-1.13h0l1.15-1.12h0l1.15-1.1h0l1.15-1.09h0l1.15-1.08h0l1.15-1.07h0l1.15-1.05h0l1.15-1.04h0l1.15-1.03h0l1.15-1.02h0l1.15-1h0l1.15-.99h0l1.15-.98h0l1.15-.97h0l1.15-.96h0l1.15-.94h0l1.15-.93h0l1.15-.92h0l1.15-.91h0l1.15-.9h0l1.15-.89h0l1.15-.87h0l1.15-.86h0l1.15-.85h0l1.15-.84h0l1.15-.83h0l1.15-.82h0l1.15-.81h0l1.15-.8h0l1.15-.79h0l1.15-.78h0l1.15-.77h0l1.15-.75h0l1.15-.74h0l1.15-.73h0l1.15-.72h0l1.15-.71h0l1.15-.7h0l1.15-.69h0l1.15-.68h0l1.15-.67h0l1.15-.66h0l1.15-.65h0l1.15-.64h0l1.15-.63h0l1.15-.62h0l1.15-.61h0l1.15-.6h0l1.15-.6h0l1.15-.59h0l1.15-.58h0l1.15-.57h0l1.15-.56h0l1.15-.55h0l1.15-.54h0l1.15-.53h0l1.15-.52h0l1.15-.51h0l1.15-.51h0l1.15-.5h0l1.15-.49h0l1.15-.48h0l1.15-.47h0l1.15-.46h0l1.15-.46h0l1.15-.45h0l1.15-.44h0l1.15-.43h0l1.15-.42h0l1.15-.42h0l1.15-.41h0l1.15-.4h0l1.15-.39h0l1.15-.38h0l1.15-.38h0l1.15-.37h0l1.15-.36h0l1.15-.36h0l1.15-.35h0l1.15-.34h0l1.15-.33h0l1.15-.33h0l1.15-.32h0l1.15-.31h0l1.15-.31h0l1.15-.3h0l1.15-.29h0l1.15-.29h0l1.15-.28h0l1.15-.27h0l1.15-.27h0l1.15-.26h0l1.15-.26h0l1.15-.25h0l1.15-.24h0l1.15-.24h0l1.15-.23h0l1.15-.23h0l1.15-.22h0l1.15-.21h0l1.15-.21h0l1.15-.2h0l1.15-.2h0l1.15-.19h0l1.15-.19h0l1.15-.18h0l1.15-.18h0l1.15-.17h0l1.15-.17h0l1.15-.16h0l1.15-.16h0l1.15-.15h0l1.15-.15h0l1.15-.14h0l1.15-.14h0l1.15-.13h0l1.15-.13h0l1.15-.12h0l1.15-.12h0l1.15-.12h0l1.15-.11h0l1.15-.11h0l1.15-.1h0l1.15-.1h0l1.15-.1h0l1.15-.09h0l1.15-.09h0l1.15-.09h0l1.15-.08h0l1.15-.08h0l1.15-.08h0l1.15-.07h0l1.15-.07h0l1.15-.07h0l1.15-.06h0l1.15-.06h0l1.15-.06h0l1.15-.05h0l1.15-.05h0l1.15-.05h0l1.15-.05h0l1.15-.04h0l1.15-.04h0l1.15-.04h0l1.15-.04h0l1.15-.03h0l1.15-.03h0l1.15-.03h0l1.15-.03h0l1.15-.03h0l1.15-.02h0l1.15-.02h0l1.15-.02h0l1.15-.02h0l1.15-.02h0l1.15-.02h1.15s1.15-.03,1.15-.03h1.15s1.15-.02,1.15-.02h1.15s1.15-.02,1.15-.02h1.15s1.15-.01,1.15-.01h1.15s1.15,0,1.15,0h1.15s1.15,0,1.15,0h1.15s1.15,0,1.15,0h1.15s1.15,0,1.15,0h1.15s1.15,0,1.15,0h1.15s1.15,0,1.15,0h1.15s1.15,0,1.15,0h1.15s1.15,0,1.15,0h1.15s1.15,0,1.15,0h1.15s1.15,0,1.15,0h1.15s1.15,0,1.15,0h1.15s1.15,0,1.15,0h1.15s1.15-.01,1.15-.01h1.15s1.15-.02,1.15-.02h1.15s1.15-.02,1.15-.02h1.15s1.15-.03,1.15-.03h0l1.15-.02h0l1.15-.02h0l1.15-.02h0l1.15-.02h0l1.15-.02h0l1.15-.02h0l1.15-.03h0l1.15-.03h0l1.15-.03h0l1.15-.03h0l1.15-.03h0l1.15-.04h0l1.15-.04h0l1.15-.04h0l1.15-.04h0l1.15-.05h0l1.15-.05h0l1.15-.05h0l1.15-.05h0l1.15-.06h0l1.15-.06h0l1.15-.06h0l1.15-.07h0l1.15-.07h0l1.15-.07h0l1.15-.08h0l1.15-.08h0l1.15-.08h0l1.15-.09h0l1.15-.09h0l1.15-.09h0l1.15-.1h0l1.15-.1h0l1.15-.11h0l1.15-.11h0l1.15-.11h0l1.15-.12h0l1.15-.12h0l1.15-.13h0l1.15-.13h0l1.15-.14h0l1.15-.14h0l1.15-.14h0l1.15-.15h0l1.15-.15h0l1.15-.16h0l1.15-.16h0l1.15-.17h0l1.15-.17h0l1.15-.18h0l1.15-.18h0l1.15-.19h0l1.15-.19h0l1.15-.2h0l1.15-.2h0l1.15-.21h0l1.15-.22h0l1.15-.22h0l1.15-.23h0l1.15-.23h0l1.15-.24h0l1.15-.25h0l1.15-.25h0l1.15-.26h0l1.15-.26h0l1.15-.27h0l1.15-.28h0l1.15-.28h0l1.15-.29h0l1.15-.3h0l1.15-.3h0l1.15-.31h0l1.15-.32h0l1.15-.32h0l1.15-.33h0l1.15-.34h0l1.15-.34h0l1.15-.35h0l1.15-.36h0l1.15-.36h0l1.15-.37h0l1.15-.38h0l1.15-.39h0l1.15-.39h0l1.15-.4h0l1.15-.41h0l1.15-.42h0l1.15-.43h0l1.15-.43h0l1.15-.44h0l1.15-.45h0l1.15-.46h0l1.15-.47h0l1.15-.47h0l1.15-.48h0l1.15-.49h0l1.15-.5h0l1.15-.51h0l1.15-.52h0l1.15-.53h0l1.15-.53h0l1.15-.54h0l1.15-.55h0l1.15-.56h0l1.15-.57h0l1.15-.58h0l1.15-.59h0l1.15-.6h0l1.15-.61h0l1.15-.62h0l1.15-.63h0l1.15-.64h0l1.15-.65h0l1.15-.66h0l1.15-.67h0l1.15-.68h0l1.15-.69h0l1.15-.7h0l1.15-.71h0l1.15-.72h0l1.15-.73h0l1.15-.74h0l1.15-.75h0l1.15-.76h0l1.15-.77h0l1.15-.78h0l1.15-.79h0l1.15-.8h0l1.15-.81h0l1.15-.82h0l1.15-.83h0l1.15-.85h0l1.15-.86h0l1.15-.87h0l1.15-.88h0l1.15-.89h0l1.15-.9h0l1.15-.91h0l1.15-.92h0l1.15-.94h0l1.15-.95h0l1.15-.96h0l1.15-.97h0l1.15-.98h0l1.15-1h0l1.15-1.01h0l1.15-1.02h0l1.15-1.03h0l1.15-1.05h0l1.15-1.06h0l1.15-1.07h0l1.15-1.08h0l1.15-1.1h0l1.15-1.11h0l1.15-1.12h0l1.15-1.13h0l1.15-1.15h0l1.15-1.16h0l1.15-1.17h0l1.15-1.19h0l1.15-1.2h0l1.15-1.21h0l1.15-1.23h0l1.15-1.24h0l1.15-1.25h0l1.15-1.27h0l1.15-1.28h0l1.15-1.29h0l1.15-1.31h0l1.15-1.32h0l1.15-1.34h0l1.15-1.35h0l1.15-1.36h0l1.15-1.38h0l1.15-1.39h0l1.15-1.41h0l1.15-1.42h0l1.15-1.44h0l1.15-1.45h0l1.15-1.46h0l1.15-1.48h0l1.15-1.49h0l1.15-1.51h0l1.15-1.52h0l1.15-1.54h0l1.15-1.55h0l1.15-1.57h0l1.15-1.58h0l1.15-1.6h0l1.15-1.61h0l1.15-1.63h0l1.15-1.65h0l1.15-1.66h0l1.15-1.68h0l1.15-1.69h0l1.15-1.71h0l1.15-1.72h0l1.15-1.74h0l1.15-1.76h0l1.15-1.77h0l1.15-1.79h0l1.15-1.81h0l1.15-1.82h0l1.15-1.84h0l1.15-1.85h0l1.15-1.87h0l1.15-1.89h0l1.15-1.9h0l1.15-1.92h0l1.15-1.94h0l1.15-1.95h0l1.15-1.97h0l1.15-1.99h0l1.15-2.01h0l1.15-2.02h0l1.15-2.04h0l1.15-2.06h0l1.15-2.07h0l1.15-2.09h0l1.15-2.11h0l1.15-2.13h0l1.15-2.15h0l1.15-2.16h0l1.15-2.18h0l1.15-2.2h0l1.15-2.22h0l1.15-2.24h0l1.15-2.25h0l1.15-2.27h0l1.15-2.29h0l1.15-2.31h0l1.15-2.33h0l1.15-2.35h0l1.15-2.36h0l1.15-2.38h0l1.15-2.4h0l1.15-2.42h0l1.15-2.44h0l1.15-2.46h0l1.15-2.48h0l1.15-2.5h0l1.15-2.52h0l1.15-2.53h0l1.15-2.55h0l1.15-2.57h0l1.15-2.59h0l1.15-2.61h0l1.15-2.63h0l1.15-2.65h0l1.15-2.67h0l1.15-2.69h0l1.15-2.71h0l1.15-2.73h0l1.15-2.75h0l1.15-2.77h0l1.15-2.79h0l1.15-2.81h0l1.15-2.83h0l1.15-2.85h0l1.15-2.87h0l1.15-2.89h0l1.15-2.91h0l1.15-2.94h0l1.15-2.96h0l1.15-2.98h0l1.15-3h0l1.15-3.02h0l1.15-3.04h0l1.15-3.06h0l1.15-3.08h0l1.15-3.1h0l1.15-3.12h0l1.15-3.15h0l1.15-3.17h0l1.15-3.19h0l1.15-3.21h0l1.15-3.23h0l1.15-3.25h0l1.15-3.28h0l1.15-3.3h0l1.15-3.32h0l1.15-3.34h0l1.15-3.37h0l1.15-3.39h0l1.15-3.41h0l1.15-3.43h0l1.15-3.45h0l1.15-3.48h0l1.15-3.5h0l1.15-3.52h0l1.15-3.55h0l1.15-3.57h0l1.15-3.59h0l1.15-3.61h0l1.15-3.64h0l1.15-3.66h0l1.15-3.68h0l1.15-3.71h0l1.15-3.73h0l1.15-3.75h0l1.15-3.78h0l1.15-3.8h0l1.15-3.82h0l1.15-3.85h0l1.15-3.87h0l1.15-3.9h0l1.15-3.92h0l1.15-3.94h0l1.15-3.97h0l1.15-3.99h0l1.15-4.02h0l1.15-4.04h0l1.15-4.07h0l1.15-4.09h0l1.15-4.11h0l1.15-4.14h0l1.15-4.16h0l1.15-4.19h0l1.15-4.21h0l1.15-4.24h0l1.15-4.26h0l1.15-4.29h0l1.15-4.31h0l1.15-4.34h0l1.15-4.36h0l1.15-4.39h0l1.15-4.41h0l1.15-4.44h0l1.15-4.47h0l1.15-4.49h0l1.15-4.52h0l1.15-4.54h0l1.15-4.57h0l1.15-4.59h0l1.15-4.62h0l1.15-4.65h0l1.15-4.67h0l1.15-4.7h0l1.15-4.73h0l1.15-4.75h0l1.15-4.78h0l1.15-4.8h0l1.15-4.83h0l1.15-4.86h0l1.15-4.88h0l1.15-4.91h0l1.15-4.94h0l1.15-4.97h0l1.15-4.99h0l1.15-5.02h0l1.15-5.05h0l1.15-5.07h0l1.15-5.1h0l1.15-5.13h0l1.15-5.16h0l1.15-5.18h0l1.15-5.21h0l1.15-5.24h0l1.15-5.27h0l1.15-5.29h0l1.15-5.32h0l1.15-5.35h0l1.15-5.38h0l1.15-5.41h0l1.15-5.44h0l1.15-5.46h0l1.15-5.49h0l1.15-5.52h0l1.15-5.55h0l1.15-5.58h0l1.15-5.61h0l1.15-5.63h0l1.15-5.66h0l1.15-5.69h0l1.15-5.72h0l1.15-5.75h0l1.15-5.78h0l1.15-5.81h0l1.15-5.84h0l1.15-5.87h0l1.15-5.9h0l1.15-5.93h0l1.15-5.96h0l1.15-5.99h0l1.15-6.02h0l1.15-6.05h0l1.15-6.07h0l1.15-6.1h0l1.15-6.13h0l1.15-6.16h0l1.15-6.19h0l1.15-6.23h0l1.15-6.26h0l1.15-6.29h0l1.15-6.32h0l1.15-6.35h0l1.15-6.38h0l1.15-6.41h0l1.15-6.44h0l1.15-6.47h0l1.15-6.5h0l1.15-6.53h0l1.15-6.56h0l1.15-6.59h0l1.15-6.62h0l1.15-6.66h0l1.15-6.69h0l1.15-6.72h0l1.15-6.75h0l1.15-6.78h0l1.15-6.81h0l1.15-6.84h0l1.15-6.88h0l1.15-6.91h0l1.15-6.94h0l1.15-6.97h0l1.15-7h0l1.15-7.04h0l1.15-7.07h0l1.15-7.1h0l1.15-7.13h0l1.15-7.17h0l1.15-7.2h0l1.15-7.23h0l1.15-7.26h0l1.15-7.3h0l1.15-7.33h0l1.15-7.36h0l1.15-7.39h0l1.15-7.43h0l1.15-7.46h0l1.15-7.49h0l1.15-7.53h0l1.15-7.56h0l1.15-7.59h0l1.15-7.63h0l1.15-7.66h0l1.15-7.69h0l1.15-7.73h0l1.15-7.76h0l1.15-7.8h0l1.15-7.83h0l1.15-7.86h0l1.15-7.9h0l1.15-7.93h0l1.15-7.97h0l1.15-8h0l1.15-8.03h0l1.15-8.07h0l1.15-8.1h0l1.15-8.14h0l1.15-8.17h0l1.15-8.21h0l1.15-8.24h0l1.15-8.28h0l1.15-8.31h0l1.15-8.35h0l1.15-8.38h0l1.15-8.42h0l1.15-8.45h0l1.15-8.49h0l1.15-8.52h0l1.15-8.56h0l1.15-8.59h0l1.15-8.63h0l1.15-8.66h0l1.15-8.7h0l1.15-8.74h0l1.15-8.77h0l1.15-8.81h0l1.15-8.84h0l1.15-8.88h0l1.15-8.92h0l1.15-8.95h0l1.15-8.99h0l1.15-9.02h0l1.15-9.06h0l1.15-9.1h0l1.15-9.13h0l1.15-9.17h0l1.15-9.21h0l1.15-9.24h0l1.15-9.28h0l1.15-9.32h0l1.15-9.36h0l1.15-9.39h0l1.15-9.43h0l1.15-9.47h0l1.15-9.5h0l1.15-9.54h0l1.15-9.58h0l1.15-9.62h0l1.15-9.65h0l1.15-9.69h0l1.15-9.73h0l1.15-9.77h0l1.15-9.81h0l1.15-9.84h0l1.15-9.88h0l1.15-9.92h0l1.15-9.96h0l1.15-10h0l1.15-10.03h0l1.15-10.07h0l1.15-10.11h0l1.15-10.15h0l1.15-10.19h0l1.15-10.23h0l1.15-10.27h0l1.15-10.31h0l1.15-10.34h0l1.15-10.38h0l1.15-10.42h0l1.15-10.46h0l1.15-10.5h0l1.15-10.54h0l1.15-10.58h0l1.15-10.62h0l1.15-10.66h0l1.15-10.7h0l1.15-10.74h0l1.15-10.78h0l1.15-10.82h0l1.15-10.86h0l1.15-10.9h0l1.15-10.94h0l1.15-10.98h0l1.15-11.02h0l1.15-11.06h0l1.15-11.1h0l1.15-11.14h0l1.15-11.18h0l1.15-11.22h0l1.15-11.26h0l1.15-11.3h0l1.15-11.34h0l1.15-11.38h0l1.15-11.42h0l1.15-11.46h0l1.15-11.51h0l1.15-11.55h0l1.15-11.59h0l1.15-11.63h0l1.15-11.67h0l1.15-11.71h0l1.15-11.75h0l1.15-11.8h0l1.15-11.84h0l1.15-11.88h0l1.15-11.92h0l1.15-11.96h0l1.15-12h0l1.15-12.05h0l1.15-12.09h0l1.15-12.13h0l1.15-12.17h0l1.15-12.22h0l1.15-12.26h0l1.15-12.3h0l1.15-12.34h0l1.15-12.39h0l1.15-12.43h0l1.15-12.47h0l1.15-12.51h0l1.15-12.56h0l1.15-12.6h0l1.15-12.64h0l1.15-12.69h0l1.15-12.73h0l1.15-12.77h0l1.15-12.82h0l1.15-12.86h0l1.15-12.9h0l1.15-12.95h0l1.15-12.99h0l1.15-13.03h0l1.15-13.08h0l1.15-13.12h0l1.15-13.17h0l1.15-13.21h0l1.15-13.25h0l1.15-13.3h0l1.15-13.34h0l1.15-13.39h0l1.15-13.43h0l1.15-13.47h0l1.15-13.52h0l1.15-13.56h0l1.15-13.61h0l1.15-13.65h0l1.15-13.7h0l1.15-13.74h0l1.15-13.79h0l1.15-13.83h0l1.15-13.88h0l1.15-13.92h0l1.15-13.97h0l1.15-14.01h0l1.15-14.06h0l1.15-14.1h0l1.15-14.15h0l1.15-14.2h0l1.15-14.24h0l1.15-14.29h0l1.15-14.33h0l1.15-14.38h0l1.15-14.43h0l1.15-14.47h0l1.15-14.52h0l1.15-14.56h0l1.15-14.61h0l1.15-14.66h0l1.15-14.7h0l1.15-14.75h0l1.15-14.8h0l1.15-14.84h0l1.15-14.89h0l1.15-14.94h0l1.15-14.98h0l1.15-15.03h0l1.15-15.08h0l1.15-15.12h0l1.15-15.17h0l1.15-15.22h0l1.15-15.27h0l1.15-15.31h0l1.15-15.36h0l1.15-15.41h0l1.15-15.46h0l1.15-15.5h0l1.15-15.55h0l1.15-15.6h0l1.15-15.65h0l1.15-15.7h0l1.15-15.74h0l1.15-15.79h0l1.15-15.84h0l1.15-15.89h0l1.15-15.94h0l1.15-15.98h0l1.15-16.03h0l1.15-16.08h0l1.15-16.13h0l1.15-16.18h0l1.15-16.23h0l1.15-16.28h0l1.15-16.33h0l1.15-16.37h0l1.15-16.42h0l1.15-16.47h0l1.15-16.52h0l1.15-16.57h0l1.15-16.62h0l1.15-16.67h0l1.15-16.72h0l1.15-16.77h0l1.15-16.82h0l1.15-16.87h0l1.15-16.92h0l1.15-16.97h0l1.15-17.02h0l1.15-17.07h0l1.15-17.12h0l1.15-17.17h0l1.15-17.22h0l1.15-17.27h0l1.15-17.32h0l1.15-17.37h0l1.15-17.42h0l1.15-17.47h0l1.15-17.52h0l1.15-17.57h0l1.15-17.62h0l1.15-17.67h0l1.15-17.73h0l1.15-17.78h0l1.15-17.83h0l1.15-17.88h0l1.15-17.93"/>
        </g>
      </g>
    </g>
  </g>
  <g id="uuid-86b1ba7a-90ef-4332-af39-4689156f0306" data-name="Marco">
    <path class="uuid-054602bc-4757-40b2-a86a-bcc482368a4f" d="m0-2V1022h1680V-2H0Zm1663,987c0,11.05-8.95,20-20,20H37c-11.05,0-20-8.95-20-20V35c0-11.05,8.95-20,20-20h1606c11.05,0,20,8.95,20,20v950Z"/>
  </g>
</svg>