<?xml version="1.0" encoding="UTF-8"?>
<svg xmlns="http://www.w3.org/2000/svg" width="1680" height="1020" xmlns:xlink="http://www.w3.org/1999/xlink" viewBox="0 0 1680 1020">
  <defs>
    <style>
      .uuid-b19e4479-b948-45a9-ae75-2502b2141d27 {
        clip-path: url(#uuid-7d9556ad-c01b-4c82-a2e2-db92b9db3eb1);
      }

      .uuid-b19e4479-b948-45a9-ae75-2502b2141d27, .uuid-6413b65a-9eaa-48e2-aa4b-3889498090fa, .uuid-2ad58ac6-a3c3-4be2-86e9-b54907a9d1f4, .uuid-f85ed6f1-dbb9-4bca-beed-cc9534cadb69, .uuid-e1fc0c08-82a4-49d4-b1c6-4098fb133392, .uuid-31fb3b75-2498-40d3-a793-a708f1cfdfc0, .uuid-f6378f81-da59-48ff-b59e-af534a70bf12, .uuid-0c345edf-16e3-4a06-b727-ef721a150c89, .uuid-5f913085-6e75-436e-a7d5-3391fef19ffd {
        fill: none;
      }

      .uuid-6413b65a-9eaa-48e2-aa4b-3889498090fa {
        stroke: rgba(192, 192, 192, .24);
      }

      .uuid-6413b65a-9eaa-48e2-aa4b-3889498090fa, .uuid-e1fc0c08-82a4-49d4-b1c6-4098fb133392 {
        stroke-dasharray: 0 0 1.15 3.44;
        stroke-width: 1.15px;
      }

      .uuid-6413b65a-9eaa-48e2-aa4b-3889498090fa, .uuid-e1fc0c08-82a4-49d4-b1c6-4098fb133392, .uuid-0c345edf-16e3-4a06-b727-ef721a150c89 {
        stroke-linejoin: round;
      }

      .uuid-2ad58ac6-a3c3-4be2-86e9-b54907a9d1f4 {
        clip-path: url(#uuid-c1ded752-6c87-408c-a1d0-ea6c0f69682b);
      }

      .uuid-09d3d6aa-36ba-4b3b-b274-07d858d38996 {
        fill: #fff;
      }

      .uuid-f85ed6f1-dbb9-4bca-beed-cc9534cadb69 {
        stroke: #606060;
        stroke-miterlimit: 10;
        stroke-width: 2.29px;
      }

      .uuid-068908e0-2e76-45d0-ae72-0568c03916b3 {
        fill: #333;
      }

      .uuid-e1fc0c08-82a4-49d4-b1c6-4098fb133392 {
        stroke: silver;
      }

      .uuid-31fb3b75-2498-40d3-a793-a708f1cfdfc0 {
        stroke: #fff;
        stroke-linejoin: bevel;
        stroke-width: 3.44px;
      }

      .uuid-f6378f81-da59-48ff-b59e-af534a70bf12 {
        isolation: isolate;
      }

      .uuid-fdee982b-3bb2-451d-97cb-c9163b9c5c86 {
        fill: #00699b;
      }

      .uuid-0c345edf-16e3-4a06-b727-ef721a150c89 {
        stroke: rgba(204, 0, 0, .7);
        stroke-linecap: round;
        stroke-width: 4.59px;
      }

      .uuid-ed6677f0-34be-4e69-885d-7e364b0fd6ff, .uuid-b1d6abb6-3dd3-46ba-9284-b5188641a88f {
        fill: #606060;
      }

      .uuid-b1d6abb6-3dd3-46ba-9284-b5188641a88f {
        fill-rule: evenodd;
      }
    </style>
    <clipPath id="uuid-7d9556ad-c01b-4c82-a2e2-db92b9db3eb1">
      <rect class="uuid-5f913085-6e75-436e-a7d5-3391fef19ffd" x="-.71" y="2.61" width="1681.41" height="1019.39"/>
    </clipPath>
    <clipPath id="uuid-c1ded752-6c87-408c-a1d0-ea6c0f69682b">
      <rect class="uuid-5f913085-6e75-436e-a7d5-3391fef19ffd" x="-3" y="-10.14" width="1686" height="1040.27"/>
    </clipPath>
  </defs>
  <g id="uuid-a65f9e99-a849-41c5-9a02-58042bc0df85" data-name="Grafica">
    <g class="uuid-b19e4479-b948-45a9-ae75-2502b2141d27">
      <g class="uuid-2ad58ac6-a3c3-4be2-86e9-b54907a9d1f4">
        <g>
          <rect class="uuid-09d3d6aa-36ba-4b3b-b274-07d858d38996" x="-3" y="-10.14" width="1686" height="1040.27"/>
          <path class="uuid-e1fc0c08-82a4-49d4-b1c6-4098fb133392" d="m84.74-9.56v1040.27m0-1040.27v1040.27M337.07-9.56v1040.27M589.39-9.56v1040.27M1094.05-9.56v1040.27M1345.23-9.56v1040.27M1597.55-9.56v1040.27"/>
          <path class="uuid-6413b65a-9eaa-48e2-aa4b-3889498090fa" d="m34.28-9.56v1040.27M135.21-9.56v1040.27M185.67-9.56v1040.27M236.14-9.56v1040.27M286.6-9.56v1040.27M387.53-9.56v1040.27M438-9.56v1040.27M488.46-9.56v1040.27M538.93-9.56v1040.27M639.86-9.56v1040.27M690.32-9.56v1040.27M740.79-9.56v1040.27M791.26-9.56v1040.27M892.19-9.56v1040.27M942.65-9.56v1040.27M993.12-9.56v1040.27M1043.58-9.56v1040.27M1143.37-9.56v1040.27M1193.83-9.56v1040.27M1244.3-9.56v1040.27M1294.76-9.56v1040.27M1395.69-9.56v1040.27M1446.16-9.56v1040.27M1496.62-9.56v1040.27M1547.09-9.56v1040.27M1648.02-9.56v1040.27"/>
          <path class="uuid-e1fc0c08-82a4-49d4-b1c6-4098fb133392" d="m-2.43,7.64h1686M-2.43,7.64h1686M-2.43,133.8h1686M-2.43,259.97h1686M-2.43,386.13h1686M-2.43,637.31h1686M-2.43,763.47h1686M-2.43,889.64h1686M-2.43,1015.8h1686"/>
          <path class="uuid-6413b65a-9eaa-48e2-aa4b-3889498090fa" d="m-2.43,7.64h1686M-2.43,32.87h1686M-2.43,58.11h1686M-2.43,83.34h1686M-2.43,108.57h1686M-2.43,159.04h1686M-2.43,184.27h1686M-2.43,209.5h1686M-2.43,234.73h1686M-2.43,285.2h1686M-2.43,310.43h1686M-2.43,335.67h1686M-2.43,360.9h1686M-2.43,411.36h1686M-2.43,436.6h1686M-2.43,461.83h1686M-2.43,487.06h1686M-2.43,537.53h1686M-2.43,561.61h1686M-2.43,586.84h1686M-2.43,612.08h1686M-2.43,662.54h1686M-2.43,687.78h1686M-2.43,713.01h1686M-2.43,738.24h1686M-2.43,788.71h1686M-2.43,813.94h1686M-2.43,839.17h1686M-2.43,864.4h1686M-2.43,914.87h1686M-2.43,940.1h1686M-2.43,965.33h1686M-2.43,990.57h1686"/>
          <path class="uuid-f85ed6f1-dbb9-4bca-beed-cc9534cadb69" d="m841.15-6.7v1036.83"/>
          <path class="uuid-b1d6abb6-3dd3-46ba-9284-b5188641a88f" d="m841.29-7.84l-5.73,22.94h11.47"/>
          <path class="uuid-f85ed6f1-dbb9-4bca-beed-cc9534cadb69" d="m-3,511.72h1682.56"/>
          <path class="uuid-b1d6abb6-3dd3-46ba-9284-b5188641a88f" d="m1680.71,511.73l-22.94-5.73v11.47"/>
          <g class="uuid-f6378f81-da59-48ff-b59e-af534a70bf12">
            <path class="uuid-ed6677f0-34be-4e69-885d-7e364b0fd6ff" d="m84.17,526.25v.28h-6.88v-.28h6.88Z"/>
            <path class="uuid-ed6677f0-34be-4e69-885d-7e364b0fd6ff" d="m85.19,522.27c.15-.38.36-.7.64-.96.28-.26.62-.45,1.02-.58.4-.13.84-.19,1.33-.19.38,0,.74.04,1.09.12.35.08.66.22.94.4.28.18.5.42.66.72.17.29.25.65.25,1.06,0,.66-.19,1.17-.57,1.54-.38.37-.86.58-1.44.63v.03c.28.03.54.09.81.2s.5.26.7.45.37.44.5.74c.12.29.19.64.19,1.05,0,.44-.08.83-.25,1.17-.17.34-.4.63-.69.86-.29.23-.62.41-1,.53-.38.12-.79.18-1.22.18-.53,0-1.01-.07-1.45-.22-.43-.15-.8-.36-1.1-.64-.3-.28-.53-.63-.68-1.04s-.21-.88-.17-1.42h.28c-.04.5.01.93.15,1.31.14.38.34.7.62.96.28.26.61.45,1.02.58.4.13.85.2,1.33.2.38,0,.74-.05,1.09-.16.35-.11.66-.26.92-.47s.48-.47.64-.78c.16-.31.24-.66.24-1.07s-.07-.75-.2-1.03c-.13-.28-.32-.52-.56-.7s-.53-.32-.85-.41-.68-.15-1.07-.17h-.67v-.28h.67c.3,0,.6-.03.9-.1.3-.07.57-.18.8-.34.24-.16.43-.37.58-.63.15-.26.22-.58.22-.97,0-.38-.09-.69-.25-.95-.16-.26-.36-.46-.61-.63-.25-.16-.53-.28-.84-.34-.31-.07-.63-.1-.96-.1-.45,0-.86.06-1.22.17-.36.12-.67.29-.93.52-.26.23-.45.53-.58.87-.13.35-.2.76-.19,1.22h-.28c0-.51.06-.96.21-1.34Z"/>
          </g>
          <g class="uuid-f6378f81-da59-48ff-b59e-af534a70bf12">
            <path class="uuid-31fb3b75-2498-40d3-a793-a708f1cfdfc0" d="m84.17,526.25v.28h-6.88v-.28h6.88Z"/>
            <path class="uuid-31fb3b75-2498-40d3-a793-a708f1cfdfc0" d="m85.19,522.27c.15-.38.36-.7.64-.96.28-.26.62-.45,1.02-.58.4-.13.84-.19,1.33-.19.38,0,.74.04,1.09.12.35.08.66.22.94.4.28.18.5.42.66.72.17.29.25.65.25,1.06,0,.66-.19,1.17-.57,1.54-.38.37-.86.58-1.44.63v.03c.28.03.54.09.81.2s.5.26.7.45.37.44.5.74c.12.29.19.64.19,1.05,0,.44-.08.83-.25,1.17-.17.34-.4.63-.69.86-.29.23-.62.41-1,.53-.38.12-.79.18-1.22.18-.53,0-1.01-.07-1.45-.22-.43-.15-.8-.36-1.1-.64-.3-.28-.53-.63-.68-1.04s-.21-.88-.17-1.42h.28c-.04.5.01.93.15,1.31.14.38.34.7.62.96.28.26.61.45,1.02.58.4.13.85.2,1.33.2.38,0,.74-.05,1.09-.16.35-.11.66-.26.92-.47s.48-.47.64-.78c.16-.31.24-.66.24-1.07s-.07-.75-.2-1.03c-.13-.28-.32-.52-.56-.7s-.53-.32-.85-.41-.68-.15-1.07-.17h-.67v-.28h.67c.3,0,.6-.03.9-.1.3-.07.57-.18.8-.34.24-.16.43-.37.58-.63.15-.26.22-.58.22-.97,0-.38-.09-.69-.25-.95-.16-.26-.36-.46-.61-.63-.25-.16-.53-.28-.84-.34-.31-.07-.63-.1-.96-.1-.45,0-.86.06-1.22.17-.36.12-.67.29-.93.52-.26.23-.45.53-.58.87-.13.35-.2.76-.19,1.22h-.28c0-.51.06-.96.21-1.34Z"/>
          </g>
          <g class="uuid-f6378f81-da59-48ff-b59e-af534a70bf12">
            <path class="uuid-ed6677f0-34be-4e69-885d-7e364b0fd6ff" d="m84.17,526.25v.28h-6.88v-.28h6.88Z"/>
            <path class="uuid-ed6677f0-34be-4e69-885d-7e364b0fd6ff" d="m85.19,522.27c.15-.38.36-.7.64-.96.28-.26.62-.45,1.02-.58.4-.13.84-.19,1.33-.19.38,0,.74.04,1.09.12.35.08.66.22.94.4.28.18.5.42.66.72.17.29.25.65.25,1.06,0,.66-.19,1.17-.57,1.54-.38.37-.86.58-1.44.63v.03c.28.03.54.09.81.2s.5.26.7.45.37.44.5.74c.12.29.19.64.19,1.05,0,.44-.08.83-.25,1.17-.17.34-.4.63-.69.86-.29.23-.62.41-1,.53-.38.12-.79.18-1.22.18-.53,0-1.01-.07-1.45-.22-.43-.15-.8-.36-1.1-.64-.3-.28-.53-.63-.68-1.04s-.21-.88-.17-1.42h.28c-.04.5.01.93.15,1.31.14.38.34.7.62.96.28.26.61.45,1.02.58.4.13.85.2,1.33.2.38,0,.74-.05,1.09-.16.35-.11.66-.26.92-.47s.48-.47.64-.78c.16-.31.24-.66.24-1.07s-.07-.75-.2-1.03c-.13-.28-.32-.52-.56-.7s-.53-.32-.85-.41-.68-.15-1.07-.17h-.67v-.28h.67c.3,0,.6-.03.9-.1.3-.07.57-.18.8-.34.24-.16.43-.37.58-.63.15-.26.22-.58.22-.97,0-.38-.09-.69-.25-.95-.16-.26-.36-.46-.61-.63-.25-.16-.53-.28-.84-.34-.31-.07-.63-.1-.96-.1-.45,0-.86.06-1.22.17-.36.12-.67.29-.93.52-.26.23-.45.53-.58.87-.13.35-.2.76-.19,1.22h-.28c0-.51.06-.96.21-1.34Z"/>
          </g>
          <g class="uuid-f6378f81-da59-48ff-b59e-af534a70bf12">
            <path class="uuid-ed6677f0-34be-4e69-885d-7e364b0fd6ff" d="m336.49,526.25v.28h-6.88v-.28h6.88Z"/>
            <path class="uuid-ed6677f0-34be-4e69-885d-7e364b0fd6ff" d="m343.55,530.07h-6.3c0-.39.07-.75.25-1.07.17-.32.4-.62.69-.9.28-.28.6-.55.96-.8.35-.25.7-.5,1.05-.75.36-.25.71-.5,1.05-.76.34-.26.64-.53.91-.81.27-.28.48-.58.64-.89.16-.32.24-.66.24-1.03s-.07-.69-.2-.97c-.13-.28-.31-.51-.54-.7-.23-.19-.5-.33-.82-.43-.32-.1-.66-.14-1.04-.14-.49,0-.9.07-1.25.22-.35.15-.63.35-.85.61s-.38.57-.48.94-.15.76-.15,1.19h-.27c0-1.03.26-1.82.76-2.39s1.25-.85,2.25-.85c.4,0,.78.05,1.13.16s.65.26.91.48.46.47.61.78.23.68.23,1.1c0,.51-.14.98-.41,1.4s-.62.82-1.04,1.18-.87.71-1.36,1.04c-.49.33-.94.65-1.37.98-.43.33-.79.66-1.09,1-.3.34-.47.72-.51,1.12h6.03v.28Z"/>
          </g>
          <g class="uuid-f6378f81-da59-48ff-b59e-af534a70bf12">
            <path class="uuid-31fb3b75-2498-40d3-a793-a708f1cfdfc0" d="m336.49,526.25v.28h-6.88v-.28h6.88Z"/>
            <path class="uuid-31fb3b75-2498-40d3-a793-a708f1cfdfc0" d="m343.55,530.07h-6.3c0-.39.07-.75.25-1.07.17-.32.4-.62.69-.9.28-.28.6-.55.96-.8.35-.25.7-.5,1.05-.75.36-.25.71-.5,1.05-.76.34-.26.64-.53.91-.81.27-.28.48-.58.64-.89.16-.32.24-.66.24-1.03s-.07-.69-.2-.97c-.13-.28-.31-.51-.54-.7-.23-.19-.5-.33-.82-.43-.32-.1-.66-.14-1.04-.14-.49,0-.9.07-1.25.22-.35.15-.63.35-.85.61s-.38.57-.48.94-.15.76-.15,1.19h-.27c0-1.03.26-1.82.76-2.39s1.25-.85,2.25-.85c.4,0,.78.05,1.13.16s.65.26.91.48.46.47.61.78.23.68.23,1.1c0,.51-.14.98-.41,1.4s-.62.82-1.04,1.18-.87.71-1.36,1.04c-.49.33-.94.65-1.37.98-.43.33-.79.66-1.09,1-.3.34-.47.72-.51,1.12h6.03v.28Z"/>
          </g>
          <g class="uuid-f6378f81-da59-48ff-b59e-af534a70bf12">
            <path class="uuid-ed6677f0-34be-4e69-885d-7e364b0fd6ff" d="m336.49,526.25v.28h-6.88v-.28h6.88Z"/>
            <path class="uuid-ed6677f0-34be-4e69-885d-7e364b0fd6ff" d="m343.55,530.07h-6.3c0-.39.07-.75.25-1.07.17-.32.4-.62.69-.9.28-.28.6-.55.96-.8.35-.25.7-.5,1.05-.75.36-.25.71-.5,1.05-.76.34-.26.64-.53.91-.81.27-.28.48-.58.64-.89.16-.32.24-.66.24-1.03s-.07-.69-.2-.97c-.13-.28-.31-.51-.54-.7-.23-.19-.5-.33-.82-.43-.32-.1-.66-.14-1.04-.14-.49,0-.9.07-1.25.22-.35.15-.63.35-.85.61s-.38.57-.48.94-.15.76-.15,1.19h-.27c0-1.03.26-1.82.76-2.39s1.25-.85,2.25-.85c.4,0,.78.05,1.13.16s.65.26.91.48.46.47.61.78.23.68.23,1.1c0,.51-.14.98-.41,1.4s-.62.82-1.04,1.18-.87.71-1.36,1.04c-.49.33-.94.65-1.37.98-.43.33-.79.66-1.09,1-.3.34-.47.72-.51,1.12h6.03v.28Z"/>
          </g>
          <g class="uuid-f6378f81-da59-48ff-b59e-af534a70bf12">
            <path class="uuid-ed6677f0-34be-4e69-885d-7e364b0fd6ff" d="m588.82,526.25v.28h-6.88v-.28h6.88Z"/>
            <path class="uuid-ed6677f0-34be-4e69-885d-7e364b0fd6ff" d="m592.89,521.07c-.28.39-.65.74-1.11,1.03-.45.29-.92.5-1.38.63v-.28c.28-.09.54-.19.76-.3s.43-.23.62-.37c.19-.14.38-.29.56-.47.18-.17.36-.37.56-.59h.3v9.36h-.28v-9h-.03Z"/>
          </g>
          <g class="uuid-f6378f81-da59-48ff-b59e-af534a70bf12">
            <path class="uuid-31fb3b75-2498-40d3-a793-a708f1cfdfc0" d="m588.82,526.25v.28h-6.88v-.28h6.88Z"/>
            <path class="uuid-31fb3b75-2498-40d3-a793-a708f1cfdfc0" d="m592.89,521.07c-.28.39-.65.74-1.11,1.03-.45.29-.92.5-1.38.63v-.28c.28-.09.54-.19.76-.3s.43-.23.62-.37c.19-.14.38-.29.56-.47.18-.17.36-.37.56-.59h.3v9.36h-.28v-9h-.03Z"/>
          </g>
          <g class="uuid-f6378f81-da59-48ff-b59e-af534a70bf12">
            <path class="uuid-ed6677f0-34be-4e69-885d-7e364b0fd6ff" d="m588.82,526.25v.28h-6.88v-.28h6.88Z"/>
            <path class="uuid-ed6677f0-34be-4e69-885d-7e364b0fd6ff" d="m592.89,521.07c-.28.39-.65.74-1.11,1.03-.45.29-.92.5-1.38.63v-.28c.28-.09.54-.19.76-.3s.43-.23.62-.37c.19-.14.38-.29.56-.47.18-.17.36-.37.56-.59h.3v9.36h-.28v-9h-.03Z"/>
          </g>
          <g class="uuid-f6378f81-da59-48ff-b59e-af534a70bf12">
            <path class="uuid-ed6677f0-34be-4e69-885d-7e364b0fd6ff" d="m1094.11,521.07c-.28.39-.65.74-1.11,1.03-.45.29-.92.5-1.38.63v-.28c.28-.09.54-.19.76-.3s.43-.23.62-.37c.19-.14.38-.29.56-.47.18-.17.36-.37.56-.59h.3v9.36h-.28v-9h-.03Z"/>
          </g>
          <g class="uuid-f6378f81-da59-48ff-b59e-af534a70bf12">
            <path class="uuid-31fb3b75-2498-40d3-a793-a708f1cfdfc0" d="m1094.11,521.07c-.28.39-.65.74-1.11,1.03-.45.29-.92.5-1.38.63v-.28c.28-.09.54-.19.76-.3s.43-.23.62-.37c.19-.14.38-.29.56-.47.18-.17.36-.37.56-.59h.3v9.36h-.28v-9h-.03Z"/>
          </g>
          <g class="uuid-f6378f81-da59-48ff-b59e-af534a70bf12">
            <path class="uuid-ed6677f0-34be-4e69-885d-7e364b0fd6ff" d="m1094.11,521.07c-.28.39-.65.74-1.11,1.03-.45.29-.92.5-1.38.63v-.28c.28-.09.54-.19.76-.3s.43-.23.62-.37c.19-.14.38-.29.56-.47.18-.17.36-.37.56-.59h.3v9.36h-.28v-9h-.03Z"/>
          </g>
          <g class="uuid-f6378f81-da59-48ff-b59e-af534a70bf12">
            <path class="uuid-ed6677f0-34be-4e69-885d-7e364b0fd6ff" d="m1349.42,530.07h-6.3c0-.39.07-.75.25-1.07.17-.32.4-.62.69-.9.28-.28.6-.55.96-.8.35-.25.7-.5,1.05-.75.36-.25.71-.5,1.05-.76.34-.26.64-.53.91-.81.27-.28.48-.58.64-.89.16-.32.24-.66.24-1.03s-.07-.69-.2-.97c-.13-.28-.31-.51-.54-.7-.23-.19-.5-.33-.82-.43-.32-.1-.66-.14-1.04-.14-.49,0-.9.07-1.25.22-.35.15-.63.35-.85.61s-.38.57-.48.94-.15.76-.15,1.19h-.27c0-1.03.26-1.82.76-2.39s1.25-.85,2.25-.85c.4,0,.78.05,1.13.16s.65.26.91.48.46.47.61.78.23.68.23,1.1c0,.51-.14.98-.41,1.4s-.62.82-1.04,1.18-.87.71-1.36,1.04c-.49.33-.94.65-1.37.98-.43.33-.79.66-1.09,1-.3.34-.47.72-.51,1.12h6.03v.28Z"/>
          </g>
          <g class="uuid-f6378f81-da59-48ff-b59e-af534a70bf12">
            <path class="uuid-31fb3b75-2498-40d3-a793-a708f1cfdfc0" d="m1349.42,530.07h-6.3c0-.39.07-.75.25-1.07.17-.32.4-.62.69-.9.28-.28.6-.55.96-.8.35-.25.7-.5,1.05-.75.36-.25.71-.5,1.05-.76.34-.26.64-.53.91-.81.27-.28.48-.58.64-.89.16-.32.24-.66.24-1.03s-.07-.69-.2-.97c-.13-.28-.31-.51-.54-.7-.23-.19-.5-.33-.82-.43-.32-.1-.66-.14-1.04-.14-.49,0-.9.07-1.25.22-.35.15-.63.35-.85.61s-.38.57-.48.94-.15.76-.15,1.19h-.27c0-1.03.26-1.82.76-2.39s1.25-.85,2.25-.85c.4,0,.78.05,1.13.16s.65.26.91.48.46.47.61.78.23.68.23,1.1c0,.51-.14.98-.41,1.4s-.62.82-1.04,1.18-.87.71-1.36,1.04c-.49.33-.94.65-1.37.98-.43.33-.79.66-1.09,1-.3.34-.47.72-.51,1.12h6.03v.28Z"/>
          </g>
          <g class="uuid-f6378f81-da59-48ff-b59e-af534a70bf12">
            <path class="uuid-ed6677f0-34be-4e69-885d-7e364b0fd6ff" d="m1349.42,530.07h-6.3c0-.39.07-.75.25-1.07.17-.32.4-.62.69-.9.28-.28.6-.55.96-.8.35-.25.7-.5,1.05-.75.36-.25.71-.5,1.05-.76.34-.26.64-.53.91-.81.27-.28.48-.58.64-.89.16-.32.24-.66.24-1.03s-.07-.69-.2-.97c-.13-.28-.31-.51-.54-.7-.23-.19-.5-.33-.82-.43-.32-.1-.66-.14-1.04-.14-.49,0-.9.07-1.25.22-.35.15-.63.35-.85.61s-.38.57-.48.94-.15.76-.15,1.19h-.27c0-1.03.26-1.82.76-2.39s1.25-.85,2.25-.85c.4,0,.78.05,1.13.16s.65.26.91.48.46.47.61.78.23.68.23,1.1c0,.51-.14.98-.41,1.4s-.62.82-1.04,1.18-.87.71-1.36,1.04c-.49.33-.94.65-1.37.98-.43.33-.79.66-1.09,1-.3.34-.47.72-.51,1.12h6.03v.28Z"/>
          </g>
          <g class="uuid-f6378f81-da59-48ff-b59e-af534a70bf12">
            <path class="uuid-ed6677f0-34be-4e69-885d-7e364b0fd6ff" d="m1595.7,522.27c.15-.38.36-.7.64-.96.28-.26.62-.45,1.02-.58.4-.13.84-.19,1.33-.19.38,0,.74.04,1.09.12.35.08.66.22.94.4s.5.42.66.72c.17.29.25.65.25,1.06,0,.66-.19,1.17-.57,1.54-.38.37-.86.58-1.44.63v.03c.28.03.54.09.81.2s.5.26.7.45c.21.2.37.44.5.74.12.29.19.64.19,1.05,0,.44-.08.83-.25,1.17-.17.34-.4.63-.69.86-.29.23-.62.41-1,.53s-.79.18-1.22.18c-.53,0-1.01-.07-1.45-.22-.43-.15-.8-.36-1.1-.64-.3-.28-.53-.63-.68-1.04s-.21-.88-.17-1.42h.28c-.04.5.01.93.15,1.31.14.38.34.7.62.96.27.26.61.45,1.02.58.4.13.85.2,1.33.2.38,0,.74-.05,1.09-.16.35-.11.66-.26.92-.47s.48-.47.64-.78c.16-.31.24-.66.24-1.07s-.07-.75-.2-1.03c-.13-.28-.32-.52-.56-.7-.24-.18-.53-.32-.85-.41s-.68-.15-1.07-.17h-.67v-.28h.67c.3,0,.6-.03.9-.1.3-.07.57-.18.81-.34.24-.16.43-.37.58-.63.15-.26.22-.58.22-.97,0-.38-.09-.69-.25-.95-.16-.26-.36-.46-.61-.63-.25-.16-.53-.28-.84-.34-.31-.07-.63-.1-.96-.1-.45,0-.86.06-1.22.17-.36.12-.67.29-.93.52-.26.23-.45.53-.58.87s-.19.76-.19,1.22h-.28c0-.51.06-.96.21-1.34Z"/>
          </g>
          <g class="uuid-f6378f81-da59-48ff-b59e-af534a70bf12">
            <path class="uuid-31fb3b75-2498-40d3-a793-a708f1cfdfc0" d="m1595.7,522.27c.15-.38.36-.7.64-.96.28-.26.62-.45,1.02-.58.4-.13.84-.19,1.33-.19.38,0,.74.04,1.09.12.35.08.66.22.94.4s.5.42.66.72c.17.29.25.65.25,1.06,0,.66-.19,1.17-.57,1.54-.38.37-.86.58-1.44.63v.03c.28.03.54.09.81.2s.5.26.7.45c.21.2.37.44.5.74.12.29.19.64.19,1.05,0,.44-.08.83-.25,1.17-.17.34-.4.63-.69.86-.29.23-.62.41-1,.53s-.79.18-1.22.18c-.53,0-1.01-.07-1.45-.22-.43-.15-.8-.36-1.1-.64-.3-.28-.53-.63-.68-1.04s-.21-.88-.17-1.42h.28c-.04.5.01.93.15,1.31.14.38.34.7.62.96.27.26.61.45,1.02.58.4.13.85.2,1.33.2.38,0,.74-.05,1.09-.16.35-.11.66-.26.92-.47s.48-.47.64-.78c.16-.31.24-.66.24-1.07s-.07-.75-.2-1.03c-.13-.28-.32-.52-.56-.7-.24-.18-.53-.32-.85-.41s-.68-.15-1.07-.17h-.67v-.28h.67c.3,0,.6-.03.9-.1.3-.07.57-.18.81-.34.24-.16.43-.37.58-.63.15-.26.22-.58.22-.97,0-.38-.09-.69-.25-.95-.16-.26-.36-.46-.61-.63-.25-.16-.53-.28-.84-.34-.31-.07-.63-.1-.96-.1-.45,0-.86.06-1.22.17-.36.12-.67.29-.93.52-.26.23-.45.53-.58.87s-.19.76-.19,1.22h-.28c0-.51.06-.96.21-1.34Z"/>
          </g>
          <g class="uuid-f6378f81-da59-48ff-b59e-af534a70bf12">
            <path class="uuid-ed6677f0-34be-4e69-885d-7e364b0fd6ff" d="m1595.7,522.27c.15-.38.36-.7.64-.96.28-.26.62-.45,1.02-.58.4-.13.84-.19,1.33-.19.38,0,.74.04,1.09.12.35.08.66.22.94.4s.5.42.66.72c.17.29.25.65.25,1.06,0,.66-.19,1.17-.57,1.54-.38.37-.86.58-1.44.63v.03c.28.03.54.09.81.2s.5.26.7.45c.21.2.37.44.5.74.12.29.19.64.19,1.05,0,.44-.08.83-.25,1.17-.17.34-.4.63-.69.86-.29.23-.62.41-1,.53s-.79.18-1.22.18c-.53,0-1.01-.07-1.45-.22-.43-.15-.8-.36-1.1-.64-.3-.28-.53-.63-.68-1.04s-.21-.88-.17-1.42h.28c-.04.5.01.93.15,1.31.14.38.34.7.62.96.27.26.61.45,1.02.58.4.13.85.2,1.33.2.38,0,.74-.05,1.09-.16.35-.11.66-.26.92-.47s.48-.47.64-.78c.16-.31.24-.66.24-1.07s-.07-.75-.2-1.03c-.13-.28-.32-.52-.56-.7-.24-.18-.53-.32-.85-.41s-.68-.15-1.07-.17h-.67v-.28h.67c.3,0,.6-.03.9-.1.3-.07.57-.18.81-.34.24-.16.43-.37.58-.63.15-.26.22-.58.22-.97,0-.38-.09-.69-.25-.95-.16-.26-.36-.46-.61-.63-.25-.16-.53-.28-.84-.34-.31-.07-.63-.1-.96-.1-.45,0-.86.06-1.22.17-.36.12-.67.29-.93.52-.26.23-.45.53-.58.87s-.19.76-.19,1.22h-.28c0-.51.06-.96.21-1.34Z"/>
          </g>
          <g class="uuid-f6378f81-da59-48ff-b59e-af534a70bf12">
            <path class="uuid-ed6677f0-34be-4e69-885d-7e364b0fd6ff" d="m825.09,1017.13v.28h-6.88v-.28h6.88Z"/>
            <path class="uuid-ed6677f0-34be-4e69-885d-7e364b0fd6ff" d="m825.56,1018.19l4.68-6.59h.34v6.65h1.69v.27h-1.69v2.44h-.28v-2.44h-4.75v-.33Zm4.72-6.21l-4.45,6.26h4.47v-6.26h-.03Z"/>
          </g>
          <g class="uuid-f6378f81-da59-48ff-b59e-af534a70bf12">
            <path class="uuid-31fb3b75-2498-40d3-a793-a708f1cfdfc0" d="m825.09,1017.13v.28h-6.88v-.28h6.88Z"/>
            <path class="uuid-31fb3b75-2498-40d3-a793-a708f1cfdfc0" d="m825.56,1018.19l4.68-6.59h.34v6.65h1.69v.27h-1.69v2.44h-.28v-2.44h-4.75v-.33Zm4.72-6.21l-4.45,6.26h4.47v-6.26h-.03Z"/>
          </g>
          <g class="uuid-f6378f81-da59-48ff-b59e-af534a70bf12">
            <path class="uuid-ed6677f0-34be-4e69-885d-7e364b0fd6ff" d="m825.09,1017.13v.28h-6.88v-.28h6.88Z"/>
            <path class="uuid-ed6677f0-34be-4e69-885d-7e364b0fd6ff" d="m825.56,1018.19l4.68-6.59h.34v6.65h1.69v.27h-1.69v2.44h-.28v-2.44h-4.75v-.33Zm4.72-6.21l-4.45,6.26h4.47v-6.26h-.03Z"/>
          </g>
          <g class="uuid-f6378f81-da59-48ff-b59e-af534a70bf12">
            <path class="uuid-ed6677f0-34be-4e69-885d-7e364b0fd6ff" d="m825.09,890.97v.28h-6.88v-.28h6.88Z"/>
            <path class="uuid-ed6677f0-34be-4e69-885d-7e364b0fd6ff" d="m826.11,887c.15-.38.36-.7.64-.96.28-.26.62-.45,1.02-.58.4-.13.84-.19,1.33-.19.38,0,.74.04,1.09.12.35.08.66.22.94.4s.5.42.66.72c.17.29.25.65.25,1.06,0,.66-.19,1.17-.57,1.54-.38.37-.86.58-1.44.63v.03c.28.03.54.09.81.2s.5.26.7.45c.21.2.37.44.5.74.12.29.19.64.19,1.05,0,.44-.08.83-.25,1.17-.17.34-.4.63-.69.86-.29.23-.62.41-1,.53s-.79.18-1.22.18c-.53,0-1.01-.07-1.45-.22-.43-.15-.8-.36-1.1-.64-.3-.28-.53-.63-.68-1.04s-.21-.88-.17-1.42h.28c-.04.5.01.93.15,1.31.14.38.34.7.62.96.27.26.61.45,1.02.58.4.13.85.2,1.33.2.38,0,.74-.05,1.09-.16.35-.11.66-.26.92-.47s.48-.47.64-.78c.16-.31.24-.66.24-1.07s-.07-.75-.2-1.03c-.13-.28-.32-.52-.56-.7-.24-.18-.53-.32-.85-.41s-.68-.15-1.07-.17h-.67v-.28h.67c.3,0,.6-.03.9-.1.3-.07.57-.18.81-.34.24-.16.43-.37.58-.63.15-.26.22-.58.22-.97,0-.38-.09-.69-.25-.95-.16-.26-.36-.46-.61-.63-.25-.16-.53-.28-.84-.34-.31-.07-.63-.1-.96-.1-.45,0-.86.06-1.22.17-.36.12-.67.29-.93.52-.26.23-.45.53-.58.87s-.19.76-.19,1.22h-.28c0-.51.06-.96.21-1.34Z"/>
          </g>
          <g class="uuid-f6378f81-da59-48ff-b59e-af534a70bf12">
            <path class="uuid-31fb3b75-2498-40d3-a793-a708f1cfdfc0" d="m825.09,890.97v.28h-6.88v-.28h6.88Z"/>
            <path class="uuid-31fb3b75-2498-40d3-a793-a708f1cfdfc0" d="m826.11,887c.15-.38.36-.7.64-.96.28-.26.62-.45,1.02-.58.4-.13.84-.19,1.33-.19.38,0,.74.04,1.09.12.35.08.66.22.94.4s.5.42.66.72c.17.29.25.65.25,1.06,0,.66-.19,1.17-.57,1.54-.38.37-.86.58-1.44.63v.03c.28.03.54.09.81.2s.5.26.7.45c.21.2.37.44.5.74.12.29.19.64.19,1.05,0,.44-.08.83-.25,1.17-.17.34-.4.63-.69.86-.29.23-.62.41-1,.53s-.79.18-1.22.18c-.53,0-1.01-.07-1.45-.22-.43-.15-.8-.36-1.1-.64-.3-.28-.53-.63-.68-1.04s-.21-.88-.17-1.42h.28c-.04.5.01.93.15,1.31.14.38.34.7.62.96.27.26.61.45,1.02.58.4.13.85.2,1.33.2.38,0,.74-.05,1.09-.16.35-.11.66-.26.92-.47s.48-.47.64-.78c.16-.31.24-.66.24-1.07s-.07-.75-.2-1.03c-.13-.28-.32-.52-.56-.7-.24-.18-.53-.32-.85-.41s-.68-.15-1.07-.17h-.67v-.28h.67c.3,0,.6-.03.9-.1.3-.07.57-.18.81-.34.24-.16.43-.37.58-.63.15-.26.22-.58.22-.97,0-.38-.09-.69-.25-.95-.16-.26-.36-.46-.61-.63-.25-.16-.53-.28-.84-.34-.31-.07-.63-.1-.96-.1-.45,0-.86.06-1.22.17-.36.12-.67.29-.93.52-.26.23-.45.53-.58.87s-.19.76-.19,1.22h-.28c0-.51.06-.96.21-1.34Z"/>
          </g>
          <g class="uuid-f6378f81-da59-48ff-b59e-af534a70bf12">
            <path class="uuid-ed6677f0-34be-4e69-885d-7e364b0fd6ff" d="m825.09,890.97v.28h-6.88v-.28h6.88Z"/>
            <path class="uuid-ed6677f0-34be-4e69-885d-7e364b0fd6ff" d="m826.11,887c.15-.38.36-.7.64-.96.28-.26.62-.45,1.02-.58.4-.13.84-.19,1.33-.19.38,0,.74.04,1.09.12.35.08.66.22.94.4s.5.42.66.72c.17.29.25.65.25,1.06,0,.66-.19,1.17-.57,1.54-.38.37-.86.58-1.44.63v.03c.28.03.54.09.81.2s.5.26.7.45c.21.2.37.44.5.74.12.29.19.64.19,1.05,0,.44-.08.83-.25,1.17-.17.34-.4.63-.69.86-.29.23-.62.41-1,.53s-.79.18-1.22.18c-.53,0-1.01-.07-1.45-.22-.43-.15-.8-.36-1.1-.64-.3-.28-.53-.63-.68-1.04s-.21-.88-.17-1.42h.28c-.04.5.01.93.15,1.31.14.38.34.7.62.96.27.26.61.45,1.02.58.4.13.85.2,1.33.2.38,0,.74-.05,1.09-.16.35-.11.66-.26.92-.47s.48-.47.64-.78c.16-.31.24-.66.24-1.07s-.07-.75-.2-1.03c-.13-.28-.32-.52-.56-.7-.24-.18-.53-.32-.85-.41s-.68-.15-1.07-.17h-.67v-.28h.67c.3,0,.6-.03.9-.1.3-.07.57-.18.81-.34.24-.16.43-.37.58-.63.15-.26.22-.58.22-.97,0-.38-.09-.69-.25-.95-.16-.26-.36-.46-.61-.63-.25-.16-.53-.28-.84-.34-.31-.07-.63-.1-.96-.1-.45,0-.86.06-1.22.17-.36.12-.67.29-.93.52-.26.23-.45.53-.58.87s-.19.76-.19,1.22h-.28c0-.51.06-.96.21-1.34Z"/>
          </g>
          <g class="uuid-f6378f81-da59-48ff-b59e-af534a70bf12">
            <path class="uuid-ed6677f0-34be-4e69-885d-7e364b0fd6ff" d="m825.09,764.81v.28h-6.88v-.28h6.88Z"/>
            <path class="uuid-ed6677f0-34be-4e69-885d-7e364b0fd6ff" d="m832.15,768.63h-6.3c0-.39.07-.75.25-1.07.17-.32.4-.62.69-.9.28-.28.6-.55.96-.8.35-.25.7-.5,1.05-.75.36-.25.71-.5,1.05-.76.34-.26.64-.53.91-.81.27-.28.48-.58.64-.89.16-.32.24-.66.24-1.03s-.07-.69-.2-.97c-.13-.28-.31-.51-.54-.7-.23-.19-.5-.33-.82-.43-.32-.1-.66-.14-1.04-.14-.49,0-.9.07-1.25.22-.35.15-.63.35-.85.61s-.38.57-.48.94-.15.76-.15,1.19h-.27c0-1.03.26-1.82.76-2.39s1.25-.85,2.25-.85c.4,0,.78.05,1.13.16s.65.26.91.48.46.47.61.78.23.68.23,1.1c0,.51-.14.98-.41,1.4s-.62.82-1.04,1.18-.87.71-1.36,1.04c-.49.33-.94.65-1.37.98-.43.33-.79.66-1.09,1-.3.34-.47.72-.51,1.12h6.03v.28Z"/>
          </g>
          <g class="uuid-f6378f81-da59-48ff-b59e-af534a70bf12">
            <path class="uuid-31fb3b75-2498-40d3-a793-a708f1cfdfc0" d="m825.09,764.81v.28h-6.88v-.28h6.88Z"/>
            <path class="uuid-31fb3b75-2498-40d3-a793-a708f1cfdfc0" d="m832.15,768.63h-6.3c0-.39.07-.75.25-1.07.17-.32.4-.62.69-.9.28-.28.6-.55.96-.8.35-.25.7-.5,1.05-.75.36-.25.71-.5,1.05-.76.34-.26.64-.53.91-.81.27-.28.48-.58.64-.89.16-.32.24-.66.24-1.03s-.07-.69-.2-.97c-.13-.28-.31-.51-.54-.7-.23-.19-.5-.33-.82-.43-.32-.1-.66-.14-1.04-.14-.49,0-.9.07-1.25.22-.35.15-.63.35-.85.61s-.38.57-.48.94-.15.76-.15,1.19h-.27c0-1.03.26-1.82.76-2.39s1.25-.85,2.25-.85c.4,0,.78.05,1.13.16s.65.26.91.48.46.47.61.78.23.68.23,1.1c0,.51-.14.98-.41,1.4s-.62.82-1.04,1.18-.87.71-1.36,1.04c-.49.33-.94.65-1.37.98-.43.33-.79.66-1.09,1-.3.34-.47.72-.51,1.12h6.03v.28Z"/>
          </g>
          <g class="uuid-f6378f81-da59-48ff-b59e-af534a70bf12">
            <path class="uuid-ed6677f0-34be-4e69-885d-7e364b0fd6ff" d="m825.09,764.81v.28h-6.88v-.28h6.88Z"/>
            <path class="uuid-ed6677f0-34be-4e69-885d-7e364b0fd6ff" d="m832.15,768.63h-6.3c0-.39.07-.75.25-1.07.17-.32.4-.62.69-.9.28-.28.6-.55.96-.8.35-.25.7-.5,1.05-.75.36-.25.71-.5,1.05-.76.34-.26.64-.53.91-.81.27-.28.48-.58.64-.89.16-.32.24-.66.24-1.03s-.07-.69-.2-.97c-.13-.28-.31-.51-.54-.7-.23-.19-.5-.33-.82-.43-.32-.1-.66-.14-1.04-.14-.49,0-.9.07-1.25.22-.35.15-.63.35-.85.61s-.38.57-.48.94-.15.76-.15,1.19h-.27c0-1.03.26-1.82.76-2.39s1.25-.85,2.25-.85c.4,0,.78.05,1.13.16s.65.26.91.48.46.47.61.78.23.68.23,1.1c0,.51-.14.98-.41,1.4s-.62.82-1.04,1.18-.87.71-1.36,1.04c-.49.33-.94.65-1.37.98-.43.33-.79.66-1.09,1-.3.34-.47.72-.51,1.12h6.03v.28Z"/>
          </g>
          <g class="uuid-f6378f81-da59-48ff-b59e-af534a70bf12">
            <path class="uuid-ed6677f0-34be-4e69-885d-7e364b0fd6ff" d="m825.09,638.64v.28h-6.88v-.28h6.88Z"/>
            <path class="uuid-ed6677f0-34be-4e69-885d-7e364b0fd6ff" d="m829.16,633.47c-.28.39-.65.74-1.11,1.03-.45.29-.92.5-1.38.63v-.28c.28-.09.54-.19.76-.3s.43-.23.62-.37c.19-.14.38-.29.56-.47.18-.17.36-.37.56-.59h.3v9.36h-.28v-9h-.03Z"/>
          </g>
          <g class="uuid-f6378f81-da59-48ff-b59e-af534a70bf12">
            <path class="uuid-31fb3b75-2498-40d3-a793-a708f1cfdfc0" d="m825.09,638.64v.28h-6.88v-.28h6.88Z"/>
            <path class="uuid-31fb3b75-2498-40d3-a793-a708f1cfdfc0" d="m829.16,633.47c-.28.39-.65.74-1.11,1.03-.45.29-.92.5-1.38.63v-.28c.28-.09.54-.19.76-.3s.43-.23.62-.37c.19-.14.38-.29.56-.47.18-.17.36-.37.56-.59h.3v9.36h-.28v-9h-.03Z"/>
          </g>
          <g class="uuid-f6378f81-da59-48ff-b59e-af534a70bf12">
            <path class="uuid-ed6677f0-34be-4e69-885d-7e364b0fd6ff" d="m825.09,638.64v.28h-6.88v-.28h6.88Z"/>
            <path class="uuid-ed6677f0-34be-4e69-885d-7e364b0fd6ff" d="m829.16,633.47c-.28.39-.65.74-1.11,1.03-.45.29-.92.5-1.38.63v-.28c.28-.09.54-.19.76-.3s.43-.23.62-.37c.19-.14.38-.29.56-.47.18-.17.36-.37.56-.59h.3v9.36h-.28v-9h-.03Z"/>
          </g>
          <g class="uuid-f6378f81-da59-48ff-b59e-af534a70bf12">
            <path class="uuid-ed6677f0-34be-4e69-885d-7e364b0fd6ff" d="m829.16,382.29c-.28.39-.65.74-1.11,1.03-.45.29-.92.5-1.38.63v-.28c.28-.09.54-.19.76-.3s.43-.23.62-.37c.19-.14.38-.29.56-.47.18-.17.36-.37.56-.59h.3v9.36h-.28v-9h-.03Z"/>
          </g>
          <g class="uuid-f6378f81-da59-48ff-b59e-af534a70bf12">
            <path class="uuid-31fb3b75-2498-40d3-a793-a708f1cfdfc0" d="m829.16,382.29c-.28.39-.65.74-1.11,1.03-.45.29-.92.5-1.38.63v-.28c.28-.09.54-.19.76-.3s.43-.23.62-.37c.19-.14.38-.29.56-.47.18-.17.36-.37.56-.59h.3v9.36h-.28v-9h-.03Z"/>
          </g>
          <g class="uuid-f6378f81-da59-48ff-b59e-af534a70bf12">
            <path class="uuid-ed6677f0-34be-4e69-885d-7e364b0fd6ff" d="m829.16,382.29c-.28.39-.65.74-1.11,1.03-.45.29-.92.5-1.38.63v-.28c.28-.09.54-.19.76-.3s.43-.23.62-.37c.19-.14.38-.29.56-.47.18-.17.36-.37.56-.59h.3v9.36h-.28v-9h-.03Z"/>
          </g>
          <g class="uuid-f6378f81-da59-48ff-b59e-af534a70bf12">
            <path class="uuid-ed6677f0-34be-4e69-885d-7e364b0fd6ff" d="m832.15,265.13h-6.3c0-.39.07-.75.25-1.07.17-.32.4-.62.69-.9.28-.28.6-.55.96-.8.35-.25.7-.5,1.05-.75.36-.25.71-.5,1.05-.76.34-.26.64-.53.91-.81.27-.28.48-.58.64-.89.16-.32.24-.66.24-1.03s-.07-.69-.2-.97c-.13-.28-.31-.51-.54-.7-.23-.19-.5-.33-.82-.43-.32-.1-.66-.14-1.04-.14-.49,0-.9.07-1.25.22-.35.15-.63.35-.85.61s-.38.57-.48.94-.15.76-.15,1.19h-.27c0-1.03.26-1.82.76-2.39s1.25-.85,2.25-.85c.4,0,.78.05,1.13.16s.65.26.91.48.46.47.61.78.23.68.23,1.1c0,.51-.14.98-.41,1.4s-.62.82-1.04,1.18-.87.71-1.36,1.04c-.49.33-.94.65-1.37.98-.43.33-.79.66-1.09,1-.3.34-.47.72-.51,1.12h6.03v.28Z"/>
          </g>
          <g class="uuid-f6378f81-da59-48ff-b59e-af534a70bf12">
            <path class="uuid-31fb3b75-2498-40d3-a793-a708f1cfdfc0" d="m832.15,265.13h-6.3c0-.39.07-.75.25-1.07.17-.32.4-.62.69-.9.28-.28.6-.55.96-.8.35-.25.7-.5,1.05-.75.36-.25.71-.5,1.05-.76.34-.26.64-.53.91-.81.27-.28.48-.58.64-.89.16-.32.24-.66.24-1.03s-.07-.69-.2-.97c-.13-.28-.31-.51-.54-.7-.23-.19-.5-.33-.82-.43-.32-.1-.66-.14-1.04-.14-.49,0-.9.07-1.25.22-.35.15-.63.35-.85.61s-.38.57-.48.94-.15.76-.15,1.19h-.27c0-1.03.26-1.82.76-2.39s1.25-.85,2.25-.85c.4,0,.78.05,1.13.16s.65.26.91.48.46.47.61.78.23.68.23,1.1c0,.51-.14.98-.41,1.4s-.62.82-1.04,1.18-.87.71-1.36,1.04c-.49.33-.94.65-1.37.98-.43.33-.79.66-1.09,1-.3.34-.47.72-.51,1.12h6.03v.28Z"/>
          </g>
          <g class="uuid-f6378f81-da59-48ff-b59e-af534a70bf12">
            <path class="uuid-ed6677f0-34be-4e69-885d-7e364b0fd6ff" d="m832.15,265.13h-6.3c0-.39.07-.75.25-1.07.17-.32.4-.62.69-.9.28-.28.6-.55.96-.8.35-.25.7-.5,1.05-.75.36-.25.71-.5,1.05-.76.34-.26.64-.53.91-.81.27-.28.48-.58.64-.89.16-.32.24-.66.24-1.03s-.07-.69-.2-.97c-.13-.28-.31-.51-.54-.7-.23-.19-.5-.33-.82-.43-.32-.1-.66-.14-1.04-.14-.49,0-.9.07-1.25.22-.35.15-.63.35-.85.61s-.38.57-.48.94-.15.76-.15,1.19h-.27c0-1.03.26-1.82.76-2.39s1.25-.85,2.25-.85c.4,0,.78.05,1.13.16s.65.26.91.48.46.47.61.78.23.68.23,1.1c0,.51-.14.98-.41,1.4s-.62.82-1.04,1.18-.87.71-1.36,1.04c-.49.33-.94.65-1.37.98-.43.33-.79.66-1.09,1-.3.34-.47.72-.51,1.12h6.03v.28Z"/>
          </g>
          <g class="uuid-f6378f81-da59-48ff-b59e-af534a70bf12">
            <path class="uuid-ed6677f0-34be-4e69-885d-7e364b0fd6ff" d="m826.11,131.17c.15-.38.36-.7.64-.96.28-.26.62-.45,1.02-.58.4-.13.84-.19,1.33-.19.38,0,.74.04,1.09.12s.66.22.94.4.5.42.66.72c.17.29.25.65.25,1.06,0,.66-.19,1.17-.57,1.54-.38.37-.86.58-1.44.63v.03c.28.03.54.09.81.2.26.11.5.26.7.45.21.2.37.44.5.74.12.29.19.64.19,1.05,0,.44-.08.83-.25,1.17s-.4.63-.69.86c-.29.23-.62.41-1,.53s-.79.18-1.22.18c-.53,0-1.01-.07-1.45-.22s-.8-.36-1.1-.64c-.3-.28-.53-.63-.68-1.04-.15-.41-.21-.89-.17-1.42h.28c-.04.5.01.93.15,1.31s.34.7.62.96c.27.26.61.45,1.02.58.4.13.85.2,1.33.2.38,0,.74-.05,1.09-.16.35-.1.66-.26.92-.47s.48-.47.64-.78c.16-.31.24-.66.24-1.07s-.07-.75-.2-1.03-.32-.52-.56-.7c-.24-.18-.53-.32-.85-.41s-.68-.15-1.07-.17h-.67v-.27h.67c.3,0,.6-.03.9-.1.3-.07.57-.18.81-.34.24-.16.43-.37.58-.63.15-.26.22-.58.22-.97,0-.38-.09-.69-.25-.95s-.36-.47-.61-.63c-.25-.16-.53-.27-.84-.34-.31-.07-.63-.1-.96-.1-.45,0-.86.06-1.22.17-.36.11-.67.29-.93.52-.26.23-.45.53-.58.87s-.19.76-.19,1.22h-.28c0-.51.06-.96.21-1.34Z"/>
          </g>
          <g class="uuid-f6378f81-da59-48ff-b59e-af534a70bf12">
            <path class="uuid-31fb3b75-2498-40d3-a793-a708f1cfdfc0" d="m826.11,131.17c.15-.38.36-.7.64-.96.28-.26.62-.45,1.02-.58.4-.13.84-.19,1.33-.19.38,0,.74.04,1.09.12s.66.22.94.4.5.42.66.72c.17.29.25.65.25,1.06,0,.66-.19,1.17-.57,1.54-.38.37-.86.58-1.44.63v.03c.28.03.54.09.81.2.26.11.5.26.7.45.21.2.37.44.5.74.12.29.19.64.19,1.05,0,.44-.08.83-.25,1.17s-.4.63-.69.86c-.29.23-.62.41-1,.53s-.79.18-1.22.18c-.53,0-1.01-.07-1.45-.22s-.8-.36-1.1-.64c-.3-.28-.53-.63-.68-1.04-.15-.41-.21-.89-.17-1.42h.28c-.04.5.01.93.15,1.31s.34.7.62.96c.27.26.61.45,1.02.58.4.13.85.2,1.33.2.38,0,.74-.05,1.09-.16.35-.1.66-.26.92-.47s.48-.47.64-.78c.16-.31.24-.66.24-1.07s-.07-.75-.2-1.03-.32-.52-.56-.7c-.24-.18-.53-.32-.85-.41s-.68-.15-1.07-.17h-.67v-.27h.67c.3,0,.6-.03.9-.1.3-.07.57-.18.81-.34.24-.16.43-.37.58-.63.15-.26.22-.58.22-.97,0-.38-.09-.69-.25-.95s-.36-.47-.61-.63c-.25-.16-.53-.27-.84-.34-.31-.07-.63-.1-.96-.1-.45,0-.86.06-1.22.17-.36.11-.67.29-.93.52-.26.23-.45.53-.58.87s-.19.76-.19,1.22h-.28c0-.51.06-.96.21-1.34Z"/>
          </g>
          <g class="uuid-f6378f81-da59-48ff-b59e-af534a70bf12">
            <path class="uuid-ed6677f0-34be-4e69-885d-7e364b0fd6ff" d="m826.11,131.17c.15-.38.36-.7.64-.96.28-.26.62-.45,1.02-.58.4-.13.84-.19,1.33-.19.38,0,.74.04,1.09.12s.66.22.94.4.5.42.66.72c.17.29.25.65.25,1.06,0,.66-.19,1.17-.57,1.54-.38.37-.86.58-1.44.63v.03c.28.03.54.09.81.2.26.11.5.26.7.45.21.2.37.44.5.74.12.29.19.64.19,1.05,0,.44-.08.83-.25,1.17s-.4.63-.69.86c-.29.23-.62.41-1,.53s-.79.18-1.22.18c-.53,0-1.01-.07-1.45-.22s-.8-.36-1.1-.64c-.3-.28-.53-.63-.68-1.04-.15-.41-.21-.89-.17-1.42h.28c-.04.5.01.93.15,1.31s.34.7.62.96c.27.26.61.45,1.02.58.4.13.85.2,1.33.2.38,0,.74-.05,1.09-.16.35-.1.66-.26.92-.47s.48-.47.64-.78c.16-.31.24-.66.24-1.07s-.07-.75-.2-1.03-.32-.52-.56-.7c-.24-.18-.53-.32-.85-.41s-.68-.15-1.07-.17h-.67v-.27h.67c.3,0,.6-.03.9-.1.3-.07.57-.18.81-.34.24-.16.43-.37.58-.63.15-.26.22-.58.22-.97,0-.38-.09-.69-.25-.95s-.36-.47-.61-.63c-.25-.16-.53-.27-.84-.34-.31-.07-.63-.1-.96-.1-.45,0-.86.06-1.22.17-.36.11-.67.29-.93.52-.26.23-.45.53-.58.87s-.19.76-.19,1.22h-.28c0-.51.06-.96.21-1.34Z"/>
          </g>
          <g class="uuid-f6378f81-da59-48ff-b59e-af534a70bf12">
            <path class="uuid-ed6677f0-34be-4e69-885d-7e364b0fd6ff" d="m825.56,10.04l4.68-6.59h.34v6.65h1.69v.28h-1.69v2.44h-.28v-2.44h-4.75v-.33Zm4.72-6.21l-4.45,6.26h4.47V3.83h-.03Z"/>
          </g>
          <g class="uuid-f6378f81-da59-48ff-b59e-af534a70bf12">
            <path class="uuid-31fb3b75-2498-40d3-a793-a708f1cfdfc0" d="m825.56,10.04l4.68-6.59h.34v6.65h1.69v.28h-1.69v2.44h-.28v-2.44h-4.75v-.33Zm4.72-6.21l-4.45,6.26h4.47V3.83h-.03Z"/>
          </g>
          <g class="uuid-f6378f81-da59-48ff-b59e-af534a70bf12">
            <path class="uuid-ed6677f0-34be-4e69-885d-7e364b0fd6ff" d="m825.56,10.04l4.68-6.59h.34v6.65h1.69v.28h-1.69v2.44h-.28v-2.44h-4.75v-.33Zm4.72-6.21l-4.45,6.26h4.47V3.83h-.03Z"/>
          </g>
          <g class="uuid-f6378f81-da59-48ff-b59e-af534a70bf12">
            <path class="uuid-ed6677f0-34be-4e69-885d-7e364b0fd6ff" d="m832.28,527.14c-.11.58-.31,1.1-.58,1.56s-.64.83-1.09,1.11c-.45.28-1.01.42-1.69.42s-1.23-.14-1.69-.42c-.45-.28-.82-.65-1.09-1.11s-.47-.98-.58-1.56-.17-1.16-.17-1.75.06-1.17.17-1.75.31-1.1.58-1.55.64-.83,1.09-1.12,1.02-.43,1.69-.43,1.24.14,1.69.43.81.66,1.09,1.12.47.98.58,1.55.17,1.16.17,1.75-.06,1.17-.17,1.75Zm-.25-3.34c-.1-.54-.27-1.03-.52-1.47-.25-.44-.58-.8-1-1.08-.42-.28-.95-.42-1.59-.42s-1.17.14-1.59.42-.75.64-1,1.08c-.25.44-.42.93-.52,1.47-.1.54-.15,1.07-.15,1.6s.05,1.06.15,1.6c.1.54.27,1.03.52,1.47.25.44.58.8,1,1.08.42.28.95.42,1.59.42s1.17-.14,1.59-.42c.42-.28.75-.64,1-1.08.25-.44.42-.93.52-1.47.1-.54.15-1.07.15-1.6s-.05-1.05-.15-1.6Z"/>
          </g>
          <g class="uuid-f6378f81-da59-48ff-b59e-af534a70bf12">
            <path class="uuid-31fb3b75-2498-40d3-a793-a708f1cfdfc0" d="m832.28,527.14c-.11.58-.31,1.1-.58,1.56s-.64.83-1.09,1.11c-.45.28-1.01.42-1.69.42s-1.23-.14-1.69-.42c-.45-.28-.82-.65-1.09-1.11s-.47-.98-.58-1.56-.17-1.16-.17-1.75.06-1.17.17-1.75.31-1.1.58-1.55.64-.83,1.09-1.12,1.02-.43,1.69-.43,1.24.14,1.69.43.81.66,1.09,1.12.47.98.58,1.55.17,1.16.17,1.75-.06,1.17-.17,1.75Zm-.25-3.34c-.1-.54-.27-1.03-.52-1.47-.25-.44-.58-.8-1-1.08-.42-.28-.95-.42-1.59-.42s-1.17.14-1.59.42-.75.64-1,1.08c-.25.44-.42.93-.52,1.47-.1.54-.15,1.07-.15,1.6s.05,1.06.15,1.6c.1.54.27,1.03.52,1.47.25.44.58.8,1,1.08.42.28.95.42,1.59.42s1.17-.14,1.59-.42c.42-.28.75-.64,1-1.08.25-.44.42-.93.52-1.47.1-.54.15-1.07.15-1.6s-.05-1.05-.15-1.6Z"/>
          </g>
          <g class="uuid-f6378f81-da59-48ff-b59e-af534a70bf12">
            <path class="uuid-ed6677f0-34be-4e69-885d-7e364b0fd6ff" d="m832.28,527.14c-.11.58-.31,1.1-.58,1.56s-.64.83-1.09,1.11c-.45.28-1.01.42-1.69.42s-1.23-.14-1.69-.42c-.45-.28-.82-.65-1.09-1.11s-.47-.98-.58-1.56-.17-1.16-.17-1.75.06-1.17.17-1.75.31-1.1.58-1.55.64-.83,1.09-1.12,1.02-.43,1.69-.43,1.24.14,1.69.43.81.66,1.09,1.12.47.98.58,1.55.17,1.16.17,1.75-.06,1.17-.17,1.75Zm-.25-3.34c-.1-.54-.27-1.03-.52-1.47-.25-.44-.58-.8-1-1.08-.42-.28-.95-.42-1.59-.42s-1.17.14-1.59.42-.75.64-1,1.08c-.25.44-.42.93-.52,1.47-.1.54-.15,1.07-.15,1.6s.05,1.06.15,1.6c.1.54.27,1.03.52,1.47.25.44.58.8,1,1.08.42.28.95.42,1.59.42s1.17-.14,1.59-.42c.42-.28.75-.64,1-1.08.25-.44.42-.93.52-1.47.1-.54.15-1.07.15-1.6s-.05-1.05-.15-1.6Z"/>
          </g>
          <path class="uuid-0c345edf-16e3-4a06-b727-ef721a150c89" d="m-3,549.35v.05h0l1.15.05h0l1.15.05h0l1.15.05H.44l1.15.05h0l1.15.05h0l1.15.05h0l1.15.05h0l1.15.05h0l1.15.05h0l1.15.05h0l1.15.05h0l1.15.05h0l1.15.05h0l1.15.05h0l1.15.05h0l1.15.05h0l1.15.05h0l1.15.05h0l1.15.05h0l1.15.05h0l1.15.05h0l1.15.05h0l1.15.05h0l1.15.05h0l1.15.05h0l1.15.05h0l1.15.06h0l1.15.06h0l1.15.06h0l1.15.06h0l1.15.06h0l1.15.06h0l1.15.06h0l1.15.06h0l1.15.06h0l1.15.06h0l1.15.06h0l1.15.06h0l1.15.06h0l1.15.06h0l1.15.06h0l1.15.06h0l1.15.06h0l1.15.06h0l1.15.06h0l1.15.06h0l1.15.06h0l1.15.06h0l1.15.06h0l1.15.06h0l1.15.06h0l1.15.06h0l1.15.06h0l1.15.06h0l1.15.06h0l1.15.06h0l1.15.06h0l1.15.06h0l1.15.06h0l1.15.06h0l1.15.06h0l1.15.06h0l1.15.06h0l1.15.06h0l1.15.06h0l1.15.06h0l1.15.06h0l1.15.06h0l1.15.06h0l1.15.06h0l1.15.06h0l1.15.06h0l1.15.06h0l1.15.06h0l1.15.06h0l1.15.06h0l1.15.06h0l1.15.06h0l1.15.06h0l1.15.06h0l1.15.06h0l1.15.06h0l1.15.06h0l1.15.07h0l1.15.07h0l1.15.07h0l1.15.07h0l1.15.07h0l1.15.07h0l1.15.07h0l1.15.07h0l1.15.07h0l1.15.07h0l1.15.07h0l1.15.07h0l1.15.07h0l1.15.07h0l1.15.07h0l1.15.07h0l1.15.07h0l1.15.07h0l1.15.07h0l1.15.07h0l1.15.07h0l1.15.07h0l1.15.07h0l1.15.07h0l1.15.07h0l1.15.07h0l1.15.07h0l1.15.07h0l1.15.07h0l1.15.07h0l1.15.07h0l1.15.07h0l1.15.07h0l1.15.07h0l1.15.07h0l1.15.07h0l1.15.07h0l1.15.07h0l1.15.07h0l1.15.07h0l1.15.07h0l1.15.07h0l1.15.07h0l1.15.07h0l1.15.07h0l1.15.08h0l1.15.08h0l1.15.08h0l1.15.08h0l1.15.08h0l1.15.08h0l1.15.08h0l1.15.08h0l1.15.08h0l1.15.08h0l1.15.08h0l1.15.08h0l1.15.08h0l1.15.08h0l1.15.08h0l1.15.08h0l1.15.08h0l1.15.08h0l1.15.08h0l1.15.08h0l1.15.08h0l1.15.08h0l1.15.08h0l1.15.08h0l1.15.08h0l1.15.08h0l1.15.08h0l1.15.08h0l1.15.08h0l1.15.08h0l1.15.08h0l1.15.08h0l1.15.08h0l1.15.08h0l1.15.08h0l1.15.08h0l1.15.08h0l1.15.09h0l1.15.09h0l1.15.09h0l1.15.09h0l1.15.09h0l1.15.09h0l1.15.09h0l1.15.09h0l1.15.09h0l1.15.09h0l1.15.09h0l1.15.09h0l1.15.09h0l1.15.09h0l1.15.09h0l1.15.09h0l1.15.09h0l1.15.09h0l1.15.09h0l1.15.09h0l1.15.09h0l1.15.09h0l1.15.09h0l1.15.09h0l1.15.09h0l1.15.09h0l1.15.09h0l1.15.09h0l1.15.09h0l1.15.09h0l1.15.09h0l1.15.1h0l1.15.1h0l1.15.1h0l1.15.1h0l1.15.1h0l1.15.1h0l1.15.1h0l1.15.1h0l1.15.1h0l1.15.1h0l1.15.1h0l1.15.1h0l1.15.1h0l1.15.1h0l1.15.1h0l1.15.1h0l1.15.1h0l1.15.1h0l1.15.1h0l1.15.1h0l1.15.1h0l1.15.1h0l1.15.1h0l1.15.1h0l1.15.1h0l1.15.1h0l1.15.11h0l1.15.11h0l1.15.11h0l1.15.11h0l1.15.11h0l1.15.11h0l1.15.11h0l1.15.11h0l1.15.11h0l1.15.11h0l1.15.11h0l1.15.11h0l1.15.11h0l1.15.11h0l1.15.11h0l1.15.11h0l1.15.11h0l1.15.11h0l1.15.11h0l1.15.11h0l1.15.11h0l1.15.11h0l1.15.11h0l1.15.12h0l1.15.12h0l1.15.12h0l1.15.12h0l1.15.12h0l1.15.12h0l1.15.12h0l1.15.12h0l1.15.12h0l1.15.12h0l1.15.12h0l1.15.12h0l1.15.12h0l1.15.12h0l1.15.12h0l1.15.12h0l1.15.12h0l1.15.12h0l1.15.12h0l1.15.12h0l1.15.13h0l1.15.13h0l1.15.13h0l1.15.13h0l1.15.13h0l1.15.13h0l1.15.13h0l1.15.13h0l1.15.13h0l1.15.13h0l1.15.13h0l1.15.13h0l1.15.13h0l1.15.13h0l1.15.13h0l1.15.13h0l1.15.13h0l1.15.13h0l1.15.14h0l1.15.14h0l1.15.14h0l1.15.14h0l1.15.14h0l1.15.14h0l1.15.14h0l1.15.14h0l1.15.14h0l1.15.14h0l1.15.14h0l1.15.14h0l1.15.14h0l1.15.14h0l1.15.14h0l1.15.14h0l1.15.15h0l1.15.15h0l1.15.15h0l1.15.15h0l1.15.15h0l1.15.15h0l1.15.15h0l1.15.15h0l1.15.15h0l1.15.15h0l1.15.15h0l1.15.15h0l1.15.15h0l1.15.15h0l1.15.16h0l1.15.16h0l1.15.16h0l1.15.16h0l1.15.16h0l1.15.16h0l1.15.16h0l1.15.16h0l1.15.16h0l1.15.16h0l1.15.16h0l1.15.16h0l1.15.16h0l1.15.17h0l1.15.17h0l1.15.17h0l1.15.17h0l1.15.17h0l1.15.17h0l1.15.17h0l1.15.17h0l1.15.17h0l1.15.17h0l1.15.17h0l1.15.17h0l1.15.18h0l1.15.18h0l1.15.18h0l1.15.18h0l1.15.18h0l1.15.18h0l1.15.18h0l1.15.18h0l1.15.18h0l1.15.18h0l1.15.18h0l1.15.19h0l1.15.19h0l1.15.19h0l1.15.19h0l1.15.19h0l1.15.19h0l1.15.19h0l1.15.19h0l1.15.19h0l1.15.19h0l1.15.2h0l1.15.2h0l1.15.2h0l1.15.2h0l1.15.2h0l1.15.2h0l1.15.2h0l1.15.2h0l1.15.2h0l1.15.21h0l1.15.21h0l1.15.21h0l1.15.21h0l1.15.21h0l1.15.21h0l1.15.21h0l1.15.21h0l1.15.21h0l1.15.22h0l1.15.22h0l1.15.22h0l1.15.22h0l1.15.22h0l1.15.22h0l1.15.22h0l1.15.22h0l1.15.23h0l1.15.23h0l1.15.23h0l1.15.23h0l1.15.23h0l1.15.23h0l1.15.23h0l1.15.23h0l1.15.24h0l1.15.24h0l1.15.24h0l1.15.24h0l1.15.24h0l1.15.24h0l1.15.24h0l1.15.25h0l1.15.25h0l1.15.25h0l1.15.25h0l1.15.25h0l1.15.25h0l1.15.26h0l1.15.26h0l1.15.26h0l1.15.26h0l1.15.26h0l1.15.26h0l1.15.26h0l1.15.27h0l1.15.27h0l1.15.27h0l1.15.27h0l1.15.27h0l1.15.27h0l1.15.28h0l1.15.28h0l1.15.28h0l1.15.28h0l1.15.28h0l1.15.29h0l1.15.29h0l1.15.29h0l1.15.29h0l1.15.29h0l1.15.29h0l1.15.3h0l1.15.3h0l1.15.3h0l1.15.3h0l1.15.3h0l1.15.31h0l1.15.31h0l1.15.31h0l1.15.31h0l1.15.32h0l1.15.32h0l1.15.32h0l1.15.32h0l1.15.32h0l1.15.33h0l1.15.33h0l1.15.33h0l1.15.33h0l1.15.34h0l1.15.34h0l1.15.34h0l1.15.34h0l1.15.34h0l1.15.35h0l1.15.35h0l1.15.35h0l1.15.35h0l1.15.36h0l1.15.36h0l1.15.36h0l1.15.36h0l1.15.37h0l1.15.37h0l1.15.37h0l1.15.38h0l1.15.38h0l1.15.38h0l1.15.38h0l1.15.39h0l1.15.39h0l1.15.39h0l1.15.4h0l1.15.4h0l1.15.4h0l1.15.41h0l1.15.41h0l1.15.41h0l1.15.41h0l1.15.42h0l1.15.42h0l1.15.42h0l1.15.43h0l1.15.43h0l1.15.43h0l1.15.44h0l1.15.44h0l1.15.44h0l1.15.45h0l1.15.45h0l1.15.46h0l1.15.46h0l1.15.46h0l1.15.47h0l1.15.47h0l1.15.47h0l1.15.48h0l1.15.48h0l1.15.49h0l1.15.49h0l1.15.5h0l1.15.5h0l1.15.5h0l1.15.51h0l1.15.51h0l1.15.52h0l1.15.52h0l1.15.53h0l1.15.53h0l1.15.54h0l1.15.54h0l1.15.54h0l1.15.55h0l1.15.55h0l1.15.56h0l1.15.56h0l1.15.57h0l1.15.57h0l1.15.58h0l1.15.59h0l1.15.59h0l1.15.6h0l1.15.6h0l1.15.61h0l1.15.61h0l1.15.62h0l1.15.62h0l1.15.63h0l1.15.64h0l1.15.64h0l1.15.65h0l1.15.66h0l1.15.66h0l1.15.67h0l1.15.68h0l1.15.68h0l1.15.69h0l1.15.7h0l1.15.7h0l1.15.71h0l1.15.72h0l1.15.72h0l1.15.73h0l1.15.74h0l1.15.75h0l1.15.76h0l1.15.76h0l1.15.77h0l1.15.78h0l1.15.79h0l1.15.8h0l1.15.8h0l1.15.81h0l1.15.82h0l1.15.83h0l1.15.84h0l1.15.85h0l1.15.86h0l1.15.87h0l1.15.88h0l1.15.89h0l1.15.9h0l1.15.91h0l1.15.92h0l1.15.93h0l1.15.94h0l1.15.95h0l1.15.96h0l1.15.98h0l1.15.99h0l1.15,1h0l1.15,1.01h0l1.15,1.02h0l1.15,1.04h0l1.15,1.05h0l1.15,1.06h0l1.15,1.07h0l1.15,1.09h0l1.15,1.1h0l1.15,1.12h0l1.15,1.13h0l1.15,1.14h0l1.15,1.16h0l1.15,1.17h0l1.15,1.19h0l1.15,1.21h0l1.15,1.22h0l1.15,1.24h0l1.15,1.26h0l1.15,1.27h0l1.15,1.29h0l1.15,1.31h0l1.15,1.33h0l1.15,1.34h0l1.15,1.36h0l1.15,1.38h0l1.15,1.4h0l1.15,1.42h0l1.15,1.44h0l1.15,1.46h0l1.15,1.49h0l1.15,1.51h0l1.15,1.53h0l1.15,1.55h0l1.15,1.58h0l1.15,1.6h0l1.15,1.62h0l1.15,1.65h0l1.15,1.68h0l1.15,1.7h0l1.15,1.73h0l1.15,1.76h0l1.15,1.79h0l1.15,1.81h0l1.15,1.84h0l1.15,1.87h0l1.15,1.91h0l1.15,1.94h0l1.15,1.97h0l1.15,2h0l1.15,2.04h0l1.15,2.07h0l1.15,2.11h0l1.15,2.15h0l1.15,2.19h0l1.15,2.23h0l1.15,2.27h0l1.15,2.31h0l1.15,2.35h0l1.15,2.39h0l1.15,2.44h0l1.15,2.49h0l1.15,2.53h0l1.15,2.58h0l1.15,2.63h0l1.15,2.68h0l1.15,2.74h0l1.15,2.79h0l1.15,2.85h0l1.15,2.91h0l1.15,2.97h0l1.15,3.03h0l1.15,3.1h0l1.15,3.16h0l1.15,3.23h0l1.15,3.3h0l1.15,3.38h0l1.15,3.45h0l1.15,3.53h0l1.15,3.61h0l1.15,3.69h0l1.15,3.78h0l1.15,3.87h0l1.15,3.96h0l1.15,4.06h0l1.15,4.16h0l1.15,4.27h0l1.15,4.37h0l1.15,4.48h0l1.15,4.6h0l1.15,4.72h0l1.15,4.85h0l1.15,4.98h0l1.15,5.11h0l1.15,5.26h0l1.15,5.4h0l1.15,5.56h0l1.15,5.72h0l1.15,5.89h0l1.15,6.06h0l1.15,6.25h0l1.15,6.44h0l1.15,6.64h0l1.15,6.85h0l1.15,7.07h0l1.15,7.3h0l1.15,7.54h0l1.15,7.8h0l1.15,8.07h0l1.15,8.35h0l1.15,8.65h0l1.15,8.96h0l1.15,9.29h0l1.15,9.64h0l1.15,10.01h0l.16,1.42M843.16-25.05h57.38l.25,2.31h0l1.15,10.11h0l1.15,9.73h0l1.15,9.38h0l1.15,9.04h0l1.15,8.72h0l1.15,8.42h0l1.15,8.14h0l1.15,7.87h0l1.15,7.61h0l1.15,7.36h0l1.15,7.13h0l1.15,6.9h0l1.15,6.69h0l1.15,6.49h0l1.15,6.29h0l1.15,6.11h0l1.15,5.93h0l1.15,5.76h0l1.15,5.6h0l1.15,5.44h0l1.15,5.29h0l1.15,5.15h0l1.15,5.01h0l1.15,4.88h0l1.15,4.75h0l1.15,4.63h0l1.15,4.51h0l1.15,4.4h0l1.15,4.29h0l1.15,4.19h0l1.15,4.09h0l1.15,3.99h0l1.15,3.89h0l1.15,3.8h0l1.15,3.72h0l1.15,3.63h0l1.15,3.55h0l1.15,3.47h0l1.15,3.39h0l1.15,3.32h0l1.15,3.25h0l1.15,3.18h0l1.15,3.11h0l1.15,3.05h0l1.15,2.99h0l1.15,2.92h0l1.15,2.87h0l1.15,2.81h0l1.15,2.75h0l1.15,2.7h0l1.15,2.65h0l1.15,2.59h0l1.15,2.55h0l1.15,2.5h0l1.15,2.45h0l1.15,2.4h0l1.15,2.36h0l1.15,2.32h0l1.15,2.28h0l1.15,2.24h0l1.15,2.2h0l1.15,2.16h0l1.15,2.12h0l1.15,2.08h0l1.15,2.05h0l1.15,2.01h0l1.15,1.98h0l1.15,1.95h0l1.15,1.91h0l1.15,1.88h0l1.15,1.85h0l1.15,1.82h0l1.15,1.79h0l1.15,1.76h0l1.15,1.74h0l1.15,1.71h0l1.15,1.68h0l1.15,1.66h0l1.15,1.63h0l1.15,1.61h0l1.15,1.58h0l1.15,1.56h0l1.15,1.54h0l1.15,1.51h0l1.15,1.49h0l1.15,1.47h0l1.15,1.45h0l1.15,1.43h0l1.15,1.41h0l1.15,1.39h0l1.15,1.37h0l1.15,1.35h0l1.15,1.33h0l1.15,1.31h0l1.15,1.29h0l1.15,1.28h0l1.15,1.26h0l1.15,1.24h0l1.15,1.23h0l1.15,1.21h0l1.15,1.19h0l1.15,1.18h0l1.15,1.16h0l1.15,1.15h0l1.15,1.13h0l1.15,1.12h0l1.15,1.11h0l1.15,1.09h0l1.15,1.08h0l1.15,1.06h0l1.15,1.05h0l1.15,1.04h0l1.15,1.03h0l1.15,1.01h0l1.15,1h0l1.15.99h0l1.15.98h0l1.15.97h0l1.15.96h0l1.15.94h0l1.15.93h0l1.15.92h0l1.15.91h0l1.15.9h0l1.15.89h0l1.15.88h0l1.15.87h0l1.15.86h0l1.15.85h0l1.15.84h0l1.15.83h0l1.15.82h0l1.15.82h0l1.15.81h0l1.15.8h0l1.15.79h0l1.15.78h0l1.15.77h0l1.15.76h0l1.15.76h0l1.15.75h0l1.15.74h0l1.15.73h0l1.15.73h0l1.15.72h0l1.15.71h0l1.15.7h0l1.15.7h0l1.15.69h0l1.15.68h0l1.15.68h0l1.15.67h0l1.15.66h0l1.15.66h0l1.15.65h0l1.15.64h0l1.15.64h0l1.15.63h0l1.15.63h0l1.15.62h0l1.15.61h0l1.15.61h0l1.15.6h0l1.15.6h0l1.15.59h0l1.15.59h0l1.15.58h0l1.15.58h0l1.15.57h0l1.15.57h0l1.15.56h0l1.15.56h0l1.15.55h0l1.15.55h0l1.15.54h0l1.15.54h0l1.15.53h0l1.15.53h0l1.15.52h0l1.15.52h0l1.15.51h0l1.15.51h0l1.15.5h0l1.15.5h0l1.15.5h0l1.15.49h0l1.15.49h0l1.15.48h0l1.15.48h0l1.15.48h0l1.15.47h0l1.15.47h0l1.15.46h0l1.15.46h0l1.15.46h0l1.15.45h0l1.15.45h0l1.15.45h0l1.15.44h0l1.15.44h0l1.15.44h0l1.15.43h0l1.15.43h0l1.15.43h0l1.15.42h0l1.15.42h0l1.15.42h0l1.15.41h0l1.15.41h0l1.15.41h0l1.15.4h0l1.15.4h0l1.15.4h0l1.15.39h0l1.15.39h0l1.15.39h0l1.15.38h0l1.15.38h0l1.15.38h0l1.15.38h0l1.15.37h0l1.15.37h0l1.15.37h0l1.15.37h0l1.15.36h0l1.15.36h0l1.15.36h0l1.15.36h0l1.15.35h0l1.15.35h0l1.15.35h0l1.15.35h0l1.15.34h0l1.15.34h0l1.15.34h0l1.15.34h0l1.15.33h0l1.15.33h0l1.15.33h0l1.15.33h0l1.15.32h0l1.15.32h0l1.15.32h0l1.15.32h0l1.15.32h0l1.15.31h0l1.15.31h0l1.15.31h0l1.15.31h0l1.15.31h0l1.15.3h0l1.15.3h0l1.15.3h0l1.15.3h0l1.15.3h0l1.15.29h0l1.15.29h0l1.15.29h0l1.15.29h0l1.15.29h0l1.15.28h0l1.15.28h0l1.15.28h0l1.15.28h0l1.15.28h0l1.15.28h0l1.15.27h0l1.15.27h0l1.15.27h0l1.15.27h0l1.15.27h0l1.15.27h0l1.15.26h0l1.15.26h0l1.15.26h0l1.15.26h0l1.15.26h0l1.15.26h0l1.15.25h0l1.15.25h0l1.15.25h0l1.15.25h0l1.15.25h0l1.15.25h0l1.15.25h0l1.15.24h0l1.15.24h0l1.15.24h0l1.15.24h0l1.15.24h0l1.15.24h0l1.15.24h0l1.15.23h0l1.15.23h0l1.15.23h0l1.15.23h0l1.15.23h0l1.15.23h0l1.15.23h0l1.15.22h0l1.15.22h0l1.15.22h0l1.15.22h0l1.15.22h0l1.15.22h0l1.15.22h0l1.15.22h0l1.15.21h0l1.15.21h0l1.15.21h0l1.15.21h0l1.15.21h0l1.15.21h0l1.15.21h0l1.15.21h0l1.15.21h0l1.15.2h0l1.15.2h0l1.15.2h0l1.15.2h0l1.15.2h0l1.15.2h0l1.15.2h0l1.15.2h0l1.15.2h0l1.15.19h0l1.15.19h0l1.15.19h0l1.15.19h0l1.15.19h0l1.15.19h0l1.15.19h0l1.15.19h0l1.15.19h0l1.15.19h0l1.15.18h0l1.15.18h0l1.15.18h0l1.15.18h0l1.15.18h0l1.15.18h0l1.15.18h0l1.15.18h0l1.15.18h0l1.15.18h0l1.15.18h0l1.15.17h0l1.15.17h0l1.15.17h0l1.15.17h0l1.15.17h0l1.15.17h0l1.15.17h0l1.15.17h0l1.15.17h0l1.15.17h0l1.15.17h0l1.15.17h0l1.15.16h0l1.15.16h0l1.15.16h0l1.15.16h0l1.15.16h0l1.15.16h0l1.15.16h0l1.15.16h0l1.15.16h0l1.15.16h0l1.15.16h0l1.15.16h0l1.15.16h0l1.15.15h0l1.15.15h0l1.15.15h0l1.15.15h0l1.15.15h0l1.15.15h0l1.15.15h0l1.15.15h0l1.15.15h0l1.15.15h0l1.15.15h0l1.15.15h0l1.15.15h0l1.15.15h0l1.15.14h0l1.15.14h0l1.15.14h0l1.15.14h0l1.15.14h0l1.15.14h0l1.15.14h0l1.15.14h0l1.15.14h0l1.15.14h0l1.15.14h0l1.15.14h0l1.15.14h0l1.15.14h0l1.15.14h0l1.15.14h0l1.15.13h0l1.15.13h0l1.15.13h0l1.15.13h0l1.15.13h0l1.15.13h0l1.15.13h0l1.15.13h0l1.15.13h0l1.15.13h0l1.15.13h0l1.15.13h0l1.15.13h0l1.15.13h0l1.15.13h0l1.15.13h0l1.15.13h0l1.15.13h0l1.15.12h0l1.15.12h0l1.15.12h0l1.15.12h0l1.15.12h0l1.15.12h0l1.15.12h0l1.15.12h0l1.15.12h0l1.15.12h0l1.15.12h0l1.15.12h0l1.15.12h0l1.15.12h0l1.15.12h0l1.15.12h0l1.15.12h0l1.15.12h0l1.15.12h0l1.15.12h0l1.15.11h0l1.15.11h0l1.15.11h0l1.15.11h0l1.15.11h0l1.15.11h0l1.15.11h0l1.15.11h0l1.15.11h0l1.15.11h0l1.15.11h0l1.15.11h0l1.15.11h0l1.15.11h0l1.15.11h0l1.15.11h0l1.15.11h0l1.15.11h0l1.15.11h0l1.15.11h0l1.15.11h0l1.15.11h0l1.15.11h0l1.15.1h0l1.15.1h0l1.15.1h0l1.15.1h0l1.15.1h0l1.15.1h0l1.15.1h0l1.15.1h0l1.15.1h0l1.15.1h0l1.15.1h0l1.15.1h0l1.15.1h0l1.15.1h0l1.15.1h0l1.15.1h0l1.15.1h0l1.15.1h0l1.15.1h0l1.15.1h0l1.15.1h0l1.15.1h0l1.15.1h0l1.15.1h0l1.15.1h0l1.15.1h0l1.15.09h0l1.15.09h0l1.15.09h0l1.15.09h0l1.15.09h0l1.15.09h0l1.15.09h0l1.15.09h0l1.15.09h0l1.15.09h0l1.15.09h0l1.15.09h0l1.15.09h0l1.15.09h0l1.15.09h0l1.15.09h0l1.15.09h0l1.15.09h0l1.15.09h0l1.15.09h0l1.15.09h0l1.15.09h0l1.15.09h0l1.15.09h0l1.15.09h0l1.15.09h0l1.15.09h0l1.15.09h0l1.15.09h0l1.15.09h0l1.15.09h0l1.15.08h0l1.15.08h0l1.15.08h0l1.15.08h0l1.15.08h0l1.15.08h0l1.15.08h0l1.15.08h0l1.15.08h0l1.15.08h0l1.15.08h0l1.15.08h0l1.15.08h0l1.15.08h0l1.15.08h0l1.15.08h0l1.15.08h0l1.15.08h0l1.15.08h0l1.15.08h0l1.15.08h0l1.15.08h0l1.15.08h0l1.15.08h0l1.15.08h0l1.15.08h0l1.15.08h0l1.15.08h0l1.15.08h0l1.15.08h0l1.15.08h0l1.15.08h0l1.15.08h0l1.15.08h0l1.15.08h0l1.15.08h0l1.15.08h0l1.15.07h0l1.15.07h0l1.15.07h0l1.15.07h0l1.15.07h0l1.15.07h0l1.15.07h0l1.15.07h0l1.15.07h0l1.15.07h0l1.15.07h0l1.15.07h0l1.15.07h0l1.15.07h0l1.15.07h0l1.15.07h0l1.15.07h0l1.15.07h0l1.15.07h0l1.15.07h0l1.15.07h0l1.15.07h0l1.15.07h0l1.15.07h0l1.15.07h0l1.15.07h0l1.15.07h0l1.15.07h0l1.15.07h0l1.15.07h0l1.15.07h0l1.15.07h0l1.15.07h0l1.15.07h0l1.15.07h0l1.15.07h0l1.15.07h0l1.15.07h0l1.15.07h0l1.15.07h0l1.15.07h0l1.15.07h0l1.15.07h0l1.15.07h0l1.15.07h0l1.15.06h0l1.15.06h0l1.15.06h0l1.15.06h0l1.15.06h0l1.15.06h0l1.15.06h0l1.15.06h0l1.15.06h0l1.15.06h0l1.15.06h0l1.15.06h0l1.15.06h0l1.15.06h0l1.15.06h0l1.15.06h0l1.15.06h0l1.15.06h0l1.15.06h0l1.15.06h0l1.15.06h0l1.15.06h0l1.15.06h0l1.15.06h0l1.15.06h0l1.15.06h0l1.15.06h0l1.15.06h0l1.15.06h0l1.15.06h0l1.15.06h0l1.15.06h0l1.15.06h0l1.15.06h0l1.15.06h0l1.15.06h0l1.15.06h0l1.15.06h0l1.15.06h0l1.15.06h0l1.15.06h0l1.15.06h0l1.15.06h0l1.15.06h0l1.15.06h0l1.15.06h0l1.15.06h0l1.15.06h0l1.15.06h0l1.15.06h0l1.15.06h0l1.15.06h0l1.15.06h0l1.15.06h0l1.15.06h0l1.15.06h0l1.15.06h0l1.15.05h0l1.15.05h0l1.15.05h0l1.15.05h0l1.15.05h0l1.15.05h0l1.15.05h0l1.15.05h0l1.15.05h0l1.15.05h0l1.15.05h0l1.15.05h0l1.15.05h0l1.15.05h0l1.15.05h0l1.15.05h0l1.15.05h0l1.15.05h0l1.15.05h0l1.15.05h0l1.15.05h0l1.15.05h0l1.15.05h0l1.15.05"/>
        </g>
      </g>
    </g>
  </g>
  <g id="uuid-f7465f76-e3f3-47c8-989c-0d6c9d3be83b" data-name="Marco">
    <path class="uuid-fdee982b-3bb2-451d-97cb-c9163b9c5c86" d="m-2.43-2V1022h1682.43V-2H-2.43Zm1665.43,987c0,11.05-8.95,20-20,20H34.57c-11.05,0-20-8.95-20-20V35c0-11.05,8.95-20,20-20h1608.43c11.05,0,20,8.95,20,20v950Z"/>
  </g>
  <g id="uuid-77faba48-66dd-4529-b265-0c27fa9cd5f2" data-name="Texto">
    <g>
      <path class="uuid-068908e0-2e76-45d0-ae72-0568c03916b3" d="m1141.25,321.37c-.6,2.83-1.52,4.93-2.75,6.32-1.24,1.39-2.79,2.08-4.67,2.08-.55,0-.98-.03-1.29-.1l.33-1.72c.13.04.44.06.92.06.59,0,1.09-.15,1.5-.45.42-.3.8-.82,1.16-1.56.36-.74.69-1.77.99-3.09l4.2-18.57h-3.3l.29-1.35c.87-.05,1.5-.12,1.88-.21.38-.09.68-.23.9-.41s.4-.42.55-.71c.15-.29.34-.83.58-1.61.69-2.34,1.75-4.1,3.19-5.28,1.44-1.18,3.27-1.77,5.5-1.77,1.28,0,2.38.1,3.3.31l-.76,3.32h-1.72c-.18-.74-.42-1.28-.71-1.6s-.73-.49-1.3-.49c-.74,0-1.37.21-1.88.62-.51.41-.95,1.02-1.32,1.83-.36.81-.7,1.89-1.02,3.26l-.49,2.13h5.02l-.43,1.97h-5.04l-3.63,17.03Z"/>
      <path class="uuid-068908e0-2e76-45d0-ae72-0568c03916b3" d="m1162.59,310.47c0,4.8.72,8.68,2.15,11.63,1.43,2.95,3.57,4.83,6.41,5.63l-.31,1.89c-4.19-.82-7.34-2.87-9.44-6.16-2.1-3.29-3.15-7.56-3.15-12.8,0-5.59,1.05-10.02,3.15-13.31,2.1-3.29,5.25-5.22,9.44-5.81l.31,1.89c-2.84.57-4.97,2.33-6.41,5.28-1.43,2.95-2.15,6.87-2.15,11.75Z"/>
      <path class="uuid-068908e0-2e76-45d0-ae72-0568c03916b3" d="m1181.44,312.21c-.2-1.03-.4-2.02-.61-2.97-.21-.95-.42-1.84-.64-2.66-.22-.82-.4-1.36-.55-1.61-.14-.25-.3-.43-.46-.53-.16-.1-.37-.15-.62-.15-.27,0-.52.06-.74.19-.22.12-.46.34-.72.64-.26.31-.61.78-1.04,1.44l-1.27-.84c.82-1.24,1.61-2.16,2.36-2.77.75-.61,1.65-.92,2.68-.92.4,0,.76.05,1.06.14.31.09.58.23.81.42s.44.43.62.73c.18.3.36.71.53,1.22.17.51.33,1.15.48,1.91.15.76.28,1.55.4,2.37h.2c1.25-1.76,2.2-3.04,2.84-3.86s1.19-1.42,1.63-1.82c.44-.4.87-.68,1.28-.84s.95-.24,1.63-.24c.61,0,1.11.08,1.5.23l-.78,3.54h-1.37c-.08-.55-.31-.82-.68-.82-.12,0-.24.02-.37.06-.13.04-.29.12-.48.25-.19.13-.47.38-.83.76-.36.38-.77.84-1.23,1.39-.46.55-.92,1.12-1.41,1.72l-1.33,1.66c.23,1.25.46,2.33.66,3.24.21.91.39,1.67.56,2.28.16.61.31,1.08.43,1.44.12.35.26.62.4.79.14.18.29.3.44.37.15.07.32.11.52.11.35,0,.69-.14,1.03-.41s.81-.89,1.44-1.86l1.27.84c-.91,1.35-1.74,2.31-2.47,2.86-.74.55-1.61.83-2.63.83-.56,0-1.04-.1-1.43-.3s-.73-.52-1.02-.97c-.29-.44-.54-1.13-.76-2.07-.4-1.67-.65-2.94-.74-3.83h-.2c-1.38,1.94-2.41,3.33-3.08,4.18-.67.85-1.22,1.47-1.66,1.88-.44.4-.86.69-1.27.85s-.95.24-1.63.24c-.61,0-1.11-.08-1.5-.23l.78-3.54h1.37c.08.55.31.82.68.82.18,0,.37-.05.58-.15.2-.1.49-.33.87-.7.38-.37.9-.95,1.56-1.75s1.63-1.99,2.89-3.57Z"/>
      <path class="uuid-068908e0-2e76-45d0-ae72-0568c03916b3" d="m1202.95,310.47c0-4.88-.72-8.8-2.15-11.75-1.43-2.95-3.57-4.71-6.41-5.28l.31-1.89c4.19.59,7.34,2.52,9.44,5.81,2.1,3.29,3.15,7.72,3.15,13.31,0,5.25-1.05,9.51-3.15,12.8-2.1,3.29-5.25,5.34-9.44,6.16l-.31-1.89c2.84-.81,4.97-2.69,6.41-5.63,1.43-2.95,2.15-6.83,2.15-11.63Z"/>
      <path class="uuid-068908e0-2e76-45d0-ae72-0568c03916b3" d="m1222.44,306.86v-2.6h24.06v2.6h-24.06Zm0,8.11v-2.6h24.06v2.6h-24.06Z"/>
      <path class="uuid-068908e0-2e76-45d0-ae72-0568c03916b3" d="m1296.46,308.44h-36.48v-2.58h36.48v2.58Z"/>
    </g>
    <path class="uuid-068908e0-2e76-45d0-ae72-0568c03916b3" d="m1281.4,290.86c0,.69.04,1.22.12,1.6s.19.68.32.9.32.41.55.56c.23.15.54.27.95.37.4.1.99.18,1.76.24v1.21h-10.92v-1.21c1.25-.12,2.1-.31,2.54-.57.44-.26.75-.63.91-1.1.16-.48.24-1.14.24-2v-16.17c0-.52-.09-.9-.27-1.14-.18-.24-.45-.36-.8-.36-.39,0-.86.14-1.4.42-.54.28-1.15.65-1.83,1.12l-.84-1.41,7.71-4.55h1.07c-.08,1.25-.12,2.98-.12,5.2v16.89Z"/>
    <path class="uuid-068908e0-2e76-45d0-ae72-0568c03916b3" d="m1277.78,338.91c-.2-1.03-.4-2.02-.61-2.97-.21-.95-.42-1.84-.64-2.66-.22-.82-.4-1.36-.55-1.61-.14-.25-.3-.43-.46-.53-.16-.1-.37-.15-.62-.15-.27,0-.52.06-.74.19-.22.12-.46.34-.72.64-.26.31-.61.78-1.04,1.44l-1.27-.84c.82-1.24,1.61-2.16,2.36-2.77.75-.61,1.65-.92,2.68-.92.4,0,.76.05,1.06.14.31.09.58.23.81.42s.44.43.62.73c.18.3.36.71.53,1.22.17.51.33,1.15.48,1.91.15.76.28,1.55.4,2.37h.2c1.25-1.76,2.2-3.04,2.84-3.86s1.19-1.42,1.63-1.82c.44-.4.87-.68,1.28-.84s.95-.24,1.63-.24c.61,0,1.11.08,1.5.23l-.78,3.54h-1.37c-.08-.55-.31-.82-.68-.82-.12,0-.24.02-.37.06-.13.04-.29.12-.48.25-.19.13-.47.38-.83.76-.36.38-.77.84-1.23,1.39-.46.55-.92,1.12-1.41,1.72l-1.33,1.66c.23,1.25.46,2.33.66,3.24.21.91.39,1.67.56,2.28.16.61.31,1.08.43,1.44.12.35.26.62.4.79.14.18.29.3.44.37.15.07.32.11.52.11.35,0,.69-.14,1.03-.41s.81-.89,1.44-1.86l1.27.84c-.91,1.35-1.74,2.31-2.47,2.86-.74.55-1.61.83-2.63.83-.56,0-1.04-.1-1.43-.3s-.73-.52-1.02-.97c-.29-.44-.54-1.13-.76-2.07-.4-1.67-.65-2.94-.74-3.83h-.2c-1.38,1.94-2.41,3.33-3.08,4.18-.67.85-1.22,1.47-1.66,1.88-.44.4-.86.69-1.27.85s-.95.24-1.63.24c-.61,0-1.11-.08-1.5-.23l.78-3.54h1.37c.08.55.31.82.68.82.18,0,.37-.05.58-.15.2-.1.49-.33.87-.7.38-.37.9-.95,1.56-1.75s1.63-1.99,2.89-3.57Z"/>
  </g>
</svg>