<?xml version="1.0" encoding="UTF-8"?>
<svg xmlns="http://www.w3.org/2000/svg" width="1680" height="1020" xmlns:xlink="http://www.w3.org/1999/xlink" viewBox="0 0 1680 1020">
  <defs>
    <style>
      .uuid-e1d379c3-0884-4fdf-8078-0f57c10a3989 {
        stroke: rgba(192, 192, 192, .24);
      }

      .uuid-e1d379c3-0884-4fdf-8078-0f57c10a3989, .uuid-c2b61865-a5af-4687-ad6d-2b8e58ec35e3, .uuid-5c124b86-fd50-489a-9099-fba790276ed2, .uuid-86027f98-7b05-459f-80ef-dc45fb8bb9c1, .uuid-abf8f6f7-75d2-44fa-a7fa-d8aac099d816, .uuid-981e235e-7270-499f-8014-44efc94ecb57, .uuid-8457ff37-46fd-492a-ad29-7ae4a0d310f9, .uuid-aedfcd02-a20c-49d8-8631-f85e6d264d95, .uuid-ac85cc29-b869-4d9c-a341-9fe071b3e034 {
        fill: none;
      }

      .uuid-e1d379c3-0884-4fdf-8078-0f57c10a3989, .uuid-86027f98-7b05-459f-80ef-dc45fb8bb9c1 {
        stroke-dasharray: 0 0 1.15 3.44;
        stroke-width: 1.15px;
      }

      .uuid-e1d379c3-0884-4fdf-8078-0f57c10a3989, .uuid-86027f98-7b05-459f-80ef-dc45fb8bb9c1, .uuid-ac85cc29-b869-4d9c-a341-9fe071b3e034 {
        stroke-linejoin: round;
      }

      .uuid-c2b61865-a5af-4687-ad6d-2b8e58ec35e3 {
        clip-path: url(#uuid-2fa56f40-ccd8-40ae-bdc1-ef3698037e20);
      }

      .uuid-26afb3cc-4141-4280-a053-62e63524cda4 {
        fill: #fff;
      }

      .uuid-5c124b86-fd50-489a-9099-fba790276ed2 {
        stroke: #606060;
        stroke-miterlimit: 10;
        stroke-width: 2.29px;
      }

      .uuid-86027f98-7b05-459f-80ef-dc45fb8bb9c1 {
        stroke: silver;
      }

      .uuid-abf8f6f7-75d2-44fa-a7fa-d8aac099d816 {
        stroke: #fff;
        stroke-linejoin: bevel;
        stroke-width: 3.44px;
      }

      .uuid-981e235e-7270-499f-8014-44efc94ecb57 {
        isolation: isolate;
      }

      .uuid-4b860064-1749-4f4e-a720-29123041e4aa {
        fill: #00699b;
      }

      .uuid-6bc68d50-3080-40d8-93d4-4118277e5d4c, .uuid-663e8c92-7977-4ad0-8825-bfc7f3401037 {
        fill: #606060;
      }

      .uuid-aedfcd02-a20c-49d8-8631-f85e6d264d95 {
        clip-path: url(#uuid-739f3fc2-ab28-4246-bb0b-bc7ed094da51);
      }

      .uuid-663e8c92-7977-4ad0-8825-bfc7f3401037 {
        fill-rule: evenodd;
      }

      .uuid-ac85cc29-b869-4d9c-a341-9fe071b3e034 {
        stroke: rgba(0, 0, 255, .7);
        stroke-linecap: round;
        stroke-width: 4.59px;
      }
    </style>
    <clipPath id="uuid-2fa56f40-ccd8-40ae-bdc1-ef3698037e20">
      <rect class="uuid-8457ff37-46fd-492a-ad29-7ae4a0d310f9" y="2.61" width="1680" height="1019.39"/>
    </clipPath>
    <clipPath id="uuid-739f3fc2-ab28-4246-bb0b-bc7ed094da51">
      <rect class="uuid-8457ff37-46fd-492a-ad29-7ae4a0d310f9" x="-3" y="-10.14" width="1686" height="1040.27"/>
    </clipPath>
  </defs>
  <g id="uuid-7c94f3ae-4a98-43a6-ab76-d1d2fcf490c2" data-name="Grafica">
    <g class="uuid-c2b61865-a5af-4687-ad6d-2b8e58ec35e3">
      <g class="uuid-aedfcd02-a20c-49d8-8631-f85e6d264d95">
        <g>
          <rect class="uuid-26afb3cc-4141-4280-a053-62e63524cda4" x="-3" y="-10.14" width="1686" height="1040.27"/>
          <path class="uuid-86027f98-7b05-459f-80ef-dc45fb8bb9c1" d="m53.77-9.56v1040.27M53.77-9.56v1040.27M210.9-9.56v1040.27M368.03-9.56v1040.27M525.17-9.56v1040.27M681.15-9.56v1040.27M995.41-9.56v1040.27M1152.54-9.56v1040.27M1308.52-9.56v1040.27M1465.66-9.56v1040.27M1622.79-9.56v1040.27"/>
          <path class="uuid-e1d379c3-0884-4fdf-8078-0f57c10a3989" d="m22.81-9.56v1040.27M85.89-9.56v1040.27M116.86-9.56v1040.27M147.82-9.56v1040.27M179.94-9.56v1040.27M243.02-9.56v1040.27M273.99-9.56v1040.27M304.95-9.56v1040.27M337.07-9.56v1040.27M399-9.56v1040.27M431.12-9.56v1040.27M462.08-9.56v1040.27M493.05-9.56v1040.27M556.13-9.56v1040.27M587.1-9.56v1040.27M619.21-9.56v1040.27M650.18-9.56v1040.27M713.26-9.56v1040.27M744.23-9.56v1040.27M776.34-9.56v1040.27M807.31-9.56v1040.27M870.39-9.56v1040.27M901.36-9.56v1040.27M932.33-9.56v1040.27M964.44-9.56v1040.27M1026.38-9.56v1040.27M1058.49-9.56v1040.27M1089.46-9.56v1040.27M1120.43-9.56v1040.27M1183.51-9.56v1040.27M1214.48-9.56v1040.27M1246.59-9.56v1040.27M1277.56-9.56v1040.27M1340.64-9.56v1040.27M1371.61-9.56v1040.27M1403.72-9.56v1040.27M1434.69-9.56v1040.27M1497.77-9.56v1040.27M1528.74-9.56v1040.27M1559.7-9.56v1040.27M1591.82-9.56v1040.27M1653.75-9.56v1040.27"/>
          <path class="uuid-86027f98-7b05-459f-80ef-dc45fb8bb9c1" d="m-2.43,40.9h1686M-2.43,40.9h1686M-2.43,196.89h1686M-2.43,354.02h1686M-2.43,668.28h1686M-2.43,824.26h1686M-2.43,981.39h1686"/>
          <path class="uuid-e1d379c3-0884-4fdf-8078-0f57c10a3989" d="m-2.43,8.79h1686M-2.43,8.79h1686M-2.43,71.87h1686M-2.43,102.84h1686M-2.43,134.95h1686M-2.43,165.92h1686M-2.43,229h1686M-2.43,259.97h1686M-2.43,290.93h1686M-2.43,323.05h1686M-2.43,386.13h1686M-2.43,417.1h1686M-2.43,448.07h1686M-2.43,480.18h1686M-2.43,542.11h1686M-2.43,574.23h1686M-2.43,605.2h1686M-2.43,636.16h1686M-2.43,699.24h1686M-2.43,730.21h1686M-2.43,762.33h1686M-2.43,793.29h1686M-2.43,856.38h1686M-2.43,887.34h1686M-2.43,919.46h1686M-2.43,950.42h1686M-2.43,1013.51h1686"/>
          <path class="uuid-5c124b86-fd50-489a-9099-fba790276ed2" d="m838.85-6.7v1036.83"/>
          <path class="uuid-663e8c92-7977-4ad0-8825-bfc7f3401037" d="m838.52-7.84l-5.73,22.94h11.47"/>
          <path class="uuid-5c124b86-fd50-489a-9099-fba790276ed2" d="m-3,510.57h1682.56"/>
          <path class="uuid-663e8c92-7977-4ad0-8825-bfc7f3401037" d="m1680.71,511.08l-22.94-5.73v11.47"/>
          <g class="uuid-981e235e-7270-499f-8014-44efc94ecb57">
            <path class="uuid-6bc68d50-3080-40d8-93d4-4118277e5d4c" d="m53.2,525.1v.28h-6.88v-.28h6.88Z"/>
            <path class="uuid-6bc68d50-3080-40d8-93d4-4118277e5d4c" d="m54.37,523.85h.03c.27-.44.62-.76,1.07-.96.44-.2.94-.3,1.49-.3.49,0,.93.08,1.32.24.39.16.73.38,1.02.67.28.28.5.63.66,1.03.16.4.23.83.23,1.3,0,.5-.08.95-.23,1.35-.16.4-.38.75-.66,1.03-.28.28-.62.5-1.02.65-.39.15-.83.23-1.32.23s-.92-.07-1.33-.21c-.41-.14-.76-.35-1.05-.61-.29-.27-.51-.59-.67-.98-.16-.39-.23-.84-.21-1.34h.28c-.02.46.04.87.18,1.22.14.36.34.66.6.91.26.25.58.44.96.56.38.13.79.19,1.24.19s.87-.07,1.23-.21c.36-.14.67-.34.93-.61.26-.26.45-.58.59-.95.14-.37.21-.78.21-1.23s-.07-.83-.21-1.19c-.14-.36-.34-.67-.6-.94-.26-.26-.57-.46-.94-.61-.37-.15-.77-.22-1.21-.22-.55,0-1.06.12-1.53.36-.47.24-.83.6-1.09,1.07h-.34l1-4.72h4.8v.28h-4.58l-.85,4Z"/>
          </g>
          <g class="uuid-981e235e-7270-499f-8014-44efc94ecb57">
            <path class="uuid-abf8f6f7-75d2-44fa-a7fa-d8aac099d816" d="m53.2,525.1v.28h-6.88v-.28h6.88Z"/>
            <path class="uuid-abf8f6f7-75d2-44fa-a7fa-d8aac099d816" d="m54.37,523.85h.03c.27-.44.62-.76,1.07-.96.44-.2.94-.3,1.49-.3.49,0,.93.08,1.32.24.39.16.73.38,1.02.67.28.28.5.63.66,1.03.16.4.23.83.23,1.3,0,.5-.08.95-.23,1.35-.16.4-.38.75-.66,1.03-.28.28-.62.5-1.02.65-.39.15-.83.23-1.32.23s-.92-.07-1.33-.21c-.41-.14-.76-.35-1.05-.61-.29-.27-.51-.59-.67-.98-.16-.39-.23-.84-.21-1.34h.28c-.02.46.04.87.18,1.22.14.36.34.66.6.91.26.25.58.44.96.56.38.13.79.19,1.24.19s.87-.07,1.23-.21c.36-.14.67-.34.93-.61.26-.26.45-.58.59-.95.14-.37.21-.78.21-1.23s-.07-.83-.21-1.19c-.14-.36-.34-.67-.6-.94-.26-.26-.57-.46-.94-.61-.37-.15-.77-.22-1.21-.22-.55,0-1.06.12-1.53.36-.47.24-.83.6-1.09,1.07h-.34l1-4.72h4.8v.28h-4.58l-.85,4Z"/>
          </g>
          <g class="uuid-981e235e-7270-499f-8014-44efc94ecb57">
            <path class="uuid-6bc68d50-3080-40d8-93d4-4118277e5d4c" d="m53.2,525.1v.28h-6.88v-.28h6.88Z"/>
            <path class="uuid-6bc68d50-3080-40d8-93d4-4118277e5d4c" d="m54.37,523.85h.03c.27-.44.62-.76,1.07-.96.44-.2.94-.3,1.49-.3.49,0,.93.08,1.32.24.39.16.73.38,1.02.67.28.28.5.63.66,1.03.16.4.23.83.23,1.3,0,.5-.08.95-.23,1.35-.16.4-.38.75-.66,1.03-.28.28-.62.5-1.02.65-.39.15-.83.23-1.32.23s-.92-.07-1.33-.21c-.41-.14-.76-.35-1.05-.61-.29-.27-.51-.59-.67-.98-.16-.39-.23-.84-.21-1.34h.28c-.02.46.04.87.18,1.22.14.36.34.66.6.91.26.25.58.44.96.56.38.13.79.19,1.24.19s.87-.07,1.23-.21c.36-.14.67-.34.93-.61.26-.26.45-.58.59-.95.14-.37.21-.78.21-1.23s-.07-.83-.21-1.19c-.14-.36-.34-.67-.6-.94-.26-.26-.57-.46-.94-.61-.37-.15-.77-.22-1.21-.22-.55,0-1.06.12-1.53.36-.47.24-.83.6-1.09,1.07h-.34l1-4.72h4.8v.28h-4.58l-.85,4Z"/>
          </g>
          <g class="uuid-981e235e-7270-499f-8014-44efc94ecb57">
            <path class="uuid-6bc68d50-3080-40d8-93d4-4118277e5d4c" d="m210.33,525.1v.28h-6.88v-.28h6.88Z"/>
            <path class="uuid-6bc68d50-3080-40d8-93d4-4118277e5d4c" d="m210.8,526.16l4.68-6.59h.34v6.65h1.69v.27h-1.69v2.44h-.28v-2.44h-4.75v-.33Zm4.72-6.21l-4.45,6.26h4.47v-6.26h-.03Z"/>
          </g>
          <g class="uuid-981e235e-7270-499f-8014-44efc94ecb57">
            <path class="uuid-abf8f6f7-75d2-44fa-a7fa-d8aac099d816" d="m210.33,525.1v.28h-6.88v-.28h6.88Z"/>
            <path class="uuid-abf8f6f7-75d2-44fa-a7fa-d8aac099d816" d="m210.8,526.16l4.68-6.59h.34v6.65h1.69v.27h-1.69v2.44h-.28v-2.44h-4.75v-.33Zm4.72-6.21l-4.45,6.26h4.47v-6.26h-.03Z"/>
          </g>
          <g class="uuid-981e235e-7270-499f-8014-44efc94ecb57">
            <path class="uuid-6bc68d50-3080-40d8-93d4-4118277e5d4c" d="m210.33,525.1v.28h-6.88v-.28h6.88Z"/>
            <path class="uuid-6bc68d50-3080-40d8-93d4-4118277e5d4c" d="m210.8,526.16l4.68-6.59h.34v6.65h1.69v.27h-1.69v2.44h-.28v-2.44h-4.75v-.33Zm4.72-6.21l-4.45,6.26h4.47v-6.26h-.03Z"/>
          </g>
          <g class="uuid-981e235e-7270-499f-8014-44efc94ecb57">
            <path class="uuid-6bc68d50-3080-40d8-93d4-4118277e5d4c" d="m367.46,525.1v.28h-6.88v-.28h6.88Z"/>
            <path class="uuid-6bc68d50-3080-40d8-93d4-4118277e5d4c" d="m368.48,521.13c.15-.38.36-.7.64-.96.28-.26.62-.45,1.02-.58.4-.13.84-.19,1.33-.19.38,0,.74.04,1.09.12.35.08.66.22.94.4s.5.42.66.72c.17.29.25.65.25,1.06,0,.66-.19,1.17-.57,1.54-.38.37-.86.58-1.44.63v.03c.28.03.54.09.81.2s.5.26.7.45c.21.2.37.44.5.74.12.29.19.64.19,1.05,0,.44-.08.83-.25,1.17-.17.34-.4.63-.69.86-.29.23-.62.41-1,.53s-.79.18-1.22.18c-.53,0-1.01-.07-1.45-.22-.43-.15-.8-.36-1.1-.64-.3-.28-.53-.63-.68-1.04s-.21-.88-.17-1.42h.28c-.04.5.01.93.15,1.31.14.38.34.7.62.96.27.26.61.45,1.02.58.4.13.85.2,1.33.2.38,0,.74-.05,1.09-.16.35-.11.66-.26.92-.47s.48-.47.64-.78c.16-.31.24-.66.24-1.07s-.07-.75-.2-1.03c-.13-.28-.32-.52-.56-.7-.24-.18-.53-.32-.85-.41s-.68-.15-1.07-.17h-.67v-.28h.67c.3,0,.6-.03.9-.1.3-.07.57-.18.81-.34.24-.16.43-.37.58-.63.15-.26.22-.58.22-.97,0-.38-.09-.69-.25-.95-.16-.26-.36-.46-.61-.63-.25-.16-.53-.28-.84-.34-.31-.07-.63-.1-.96-.1-.45,0-.86.06-1.22.17-.36.12-.67.29-.93.52-.26.23-.45.53-.58.87s-.19.76-.19,1.22h-.28c0-.51.06-.96.21-1.34Z"/>
          </g>
          <g class="uuid-981e235e-7270-499f-8014-44efc94ecb57">
            <path class="uuid-abf8f6f7-75d2-44fa-a7fa-d8aac099d816" d="m367.46,525.1v.28h-6.88v-.28h6.88Z"/>
            <path class="uuid-abf8f6f7-75d2-44fa-a7fa-d8aac099d816" d="m368.48,521.13c.15-.38.36-.7.64-.96.28-.26.62-.45,1.02-.58.4-.13.84-.19,1.33-.19.38,0,.74.04,1.09.12.35.08.66.22.94.4s.5.42.66.72c.17.29.25.65.25,1.06,0,.66-.19,1.17-.57,1.54-.38.37-.86.58-1.44.63v.03c.28.03.54.09.81.2s.5.26.7.45c.21.2.37.44.5.74.12.29.19.64.19,1.05,0,.44-.08.83-.25,1.17-.17.34-.4.63-.69.86-.29.23-.62.41-1,.53s-.79.18-1.22.18c-.53,0-1.01-.07-1.45-.22-.43-.15-.8-.36-1.1-.64-.3-.28-.53-.63-.68-1.04s-.21-.88-.17-1.42h.28c-.04.5.01.93.15,1.31.14.38.34.7.62.96.27.26.61.45,1.02.58.4.13.85.2,1.33.2.38,0,.74-.05,1.09-.16.35-.11.66-.26.92-.47s.48-.47.64-.78c.16-.31.24-.66.24-1.07s-.07-.75-.2-1.03c-.13-.28-.32-.52-.56-.7-.24-.18-.53-.32-.85-.41s-.68-.15-1.07-.17h-.67v-.28h.67c.3,0,.6-.03.9-.1.3-.07.57-.18.81-.34.24-.16.43-.37.58-.63.15-.26.22-.58.22-.97,0-.38-.09-.69-.25-.95-.16-.26-.36-.46-.61-.63-.25-.16-.53-.28-.84-.34-.31-.07-.63-.1-.96-.1-.45,0-.86.06-1.22.17-.36.12-.67.29-.93.52-.26.23-.45.53-.58.87s-.19.76-.19,1.22h-.28c0-.51.06-.96.21-1.34Z"/>
          </g>
          <g class="uuid-981e235e-7270-499f-8014-44efc94ecb57">
            <path class="uuid-6bc68d50-3080-40d8-93d4-4118277e5d4c" d="m367.46,525.1v.28h-6.88v-.28h6.88Z"/>
            <path class="uuid-6bc68d50-3080-40d8-93d4-4118277e5d4c" d="m368.48,521.13c.15-.38.36-.7.64-.96.28-.26.62-.45,1.02-.58.4-.13.84-.19,1.33-.19.38,0,.74.04,1.09.12.35.08.66.22.94.4s.5.42.66.72c.17.29.25.65.25,1.06,0,.66-.19,1.17-.57,1.54-.38.37-.86.58-1.44.63v.03c.28.03.54.09.81.2s.5.26.7.45c.21.2.37.44.5.74.12.29.19.64.19,1.05,0,.44-.08.83-.25,1.17-.17.34-.4.63-.69.86-.29.23-.62.41-1,.53s-.79.18-1.22.18c-.53,0-1.01-.07-1.45-.22-.43-.15-.8-.36-1.1-.64-.3-.28-.53-.63-.68-1.04s-.21-.88-.17-1.42h.28c-.04.5.01.93.15,1.31.14.38.34.7.62.96.27.26.61.45,1.02.58.4.13.85.2,1.33.2.38,0,.74-.05,1.09-.16.35-.11.66-.26.92-.47s.48-.47.64-.78c.16-.31.24-.66.24-1.07s-.07-.75-.2-1.03c-.13-.28-.32-.52-.56-.7-.24-.18-.53-.32-.85-.41s-.68-.15-1.07-.17h-.67v-.28h.67c.3,0,.6-.03.9-.1.3-.07.57-.18.81-.34.24-.16.43-.37.58-.63.15-.26.22-.58.22-.97,0-.38-.09-.69-.25-.95-.16-.26-.36-.46-.61-.63-.25-.16-.53-.28-.84-.34-.31-.07-.63-.1-.96-.1-.45,0-.86.06-1.22.17-.36.12-.67.29-.93.52-.26.23-.45.53-.58.87s-.19.76-.19,1.22h-.28c0-.51.06-.96.21-1.34Z"/>
          </g>
          <g class="uuid-981e235e-7270-499f-8014-44efc94ecb57">
            <path class="uuid-6bc68d50-3080-40d8-93d4-4118277e5d4c" d="m523.45,525.1v.28h-6.88v-.28h6.88Z"/>
            <path class="uuid-6bc68d50-3080-40d8-93d4-4118277e5d4c" d="m530.51,528.92h-6.3c0-.39.07-.75.25-1.07.17-.32.4-.62.69-.9.28-.28.6-.55.96-.8.35-.25.7-.5,1.05-.75.36-.25.71-.5,1.05-.76.34-.26.64-.53.91-.81.27-.28.48-.58.64-.89.16-.32.24-.66.24-1.03s-.07-.69-.2-.97c-.13-.28-.31-.51-.54-.7-.23-.19-.5-.33-.82-.43-.32-.1-.66-.14-1.04-.14-.49,0-.9.07-1.25.22-.35.15-.63.35-.85.61s-.38.57-.48.94-.15.76-.15,1.19h-.27c0-1.03.26-1.82.76-2.39s1.25-.85,2.25-.85c.4,0,.78.05,1.13.16s.65.26.91.48.46.47.61.78.23.68.23,1.1c0,.51-.14.98-.41,1.4s-.62.82-1.04,1.18-.87.71-1.36,1.04c-.49.33-.94.65-1.37.98-.43.33-.79.66-1.09,1-.3.34-.47.72-.51,1.12h6.03v.28Z"/>
          </g>
          <g class="uuid-981e235e-7270-499f-8014-44efc94ecb57">
            <path class="uuid-abf8f6f7-75d2-44fa-a7fa-d8aac099d816" d="m523.45,525.1v.28h-6.88v-.28h6.88Z"/>
            <path class="uuid-abf8f6f7-75d2-44fa-a7fa-d8aac099d816" d="m530.51,528.92h-6.3c0-.39.07-.75.25-1.07.17-.32.4-.62.69-.9.28-.28.6-.55.96-.8.35-.25.7-.5,1.05-.75.36-.25.71-.5,1.05-.76.34-.26.64-.53.91-.81.27-.28.48-.58.64-.89.16-.32.24-.66.24-1.03s-.07-.69-.2-.97c-.13-.28-.31-.51-.54-.7-.23-.19-.5-.33-.82-.43-.32-.1-.66-.14-1.04-.14-.49,0-.9.07-1.25.22-.35.15-.63.35-.85.61s-.38.57-.48.94-.15.76-.15,1.19h-.27c0-1.03.26-1.82.76-2.39s1.25-.85,2.25-.85c.4,0,.78.05,1.13.16s.65.26.91.48.46.47.61.78.23.68.23,1.1c0,.51-.14.98-.41,1.4s-.62.82-1.04,1.18-.87.71-1.36,1.04c-.49.33-.94.65-1.37.98-.43.33-.79.66-1.09,1-.3.34-.47.72-.51,1.12h6.03v.28Z"/>
          </g>
          <g class="uuid-981e235e-7270-499f-8014-44efc94ecb57">
            <path class="uuid-6bc68d50-3080-40d8-93d4-4118277e5d4c" d="m523.45,525.1v.28h-6.88v-.28h6.88Z"/>
            <path class="uuid-6bc68d50-3080-40d8-93d4-4118277e5d4c" d="m530.51,528.92h-6.3c0-.39.07-.75.25-1.07.17-.32.4-.62.69-.9.28-.28.6-.55.96-.8.35-.25.7-.5,1.05-.75.36-.25.71-.5,1.05-.76.34-.26.64-.53.91-.81.27-.28.48-.58.64-.89.16-.32.24-.66.24-1.03s-.07-.69-.2-.97c-.13-.28-.31-.51-.54-.7-.23-.19-.5-.33-.82-.43-.32-.1-.66-.14-1.04-.14-.49,0-.9.07-1.25.22-.35.15-.63.35-.85.61s-.38.57-.48.94-.15.76-.15,1.19h-.27c0-1.03.26-1.82.76-2.39s1.25-.85,2.25-.85c.4,0,.78.05,1.13.16s.65.26.91.48.46.47.61.78.23.68.23,1.1c0,.51-.14.98-.41,1.4s-.62.82-1.04,1.18-.87.71-1.36,1.04c-.49.33-.94.65-1.37.98-.43.33-.79.66-1.09,1-.3.34-.47.72-.51,1.12h6.03v.28Z"/>
          </g>
          <g class="uuid-981e235e-7270-499f-8014-44efc94ecb57">
            <path class="uuid-6bc68d50-3080-40d8-93d4-4118277e5d4c" d="m680.58,525.1v.28h-6.88v-.28h6.88Z"/>
            <path class="uuid-6bc68d50-3080-40d8-93d4-4118277e5d4c" d="m684.65,519.92c-.28.39-.65.74-1.11,1.03-.45.29-.92.5-1.38.63v-.28c.28-.09.54-.19.76-.3s.43-.23.62-.37c.19-.14.38-.29.56-.47.18-.17.36-.37.56-.59h.3v9.36h-.28v-9h-.03Z"/>
          </g>
          <g class="uuid-981e235e-7270-499f-8014-44efc94ecb57">
            <path class="uuid-abf8f6f7-75d2-44fa-a7fa-d8aac099d816" d="m680.58,525.1v.28h-6.88v-.28h6.88Z"/>
            <path class="uuid-abf8f6f7-75d2-44fa-a7fa-d8aac099d816" d="m684.65,519.92c-.28.39-.65.74-1.11,1.03-.45.29-.92.5-1.38.63v-.28c.28-.09.54-.19.76-.3s.43-.23.62-.37c.19-.14.38-.29.56-.47.18-.17.36-.37.56-.59h.3v9.36h-.28v-9h-.03Z"/>
          </g>
          <g class="uuid-981e235e-7270-499f-8014-44efc94ecb57">
            <path class="uuid-6bc68d50-3080-40d8-93d4-4118277e5d4c" d="m680.58,525.1v.28h-6.88v-.28h6.88Z"/>
            <path class="uuid-6bc68d50-3080-40d8-93d4-4118277e5d4c" d="m684.65,519.92c-.28.39-.65.74-1.11,1.03-.45.29-.92.5-1.38.63v-.28c.28-.09.54-.19.76-.3s.43-.23.62-.37c.19-.14.38-.29.56-.47.18-.17.36-.37.56-.59h.3v9.36h-.28v-9h-.03Z"/>
          </g>
          <g class="uuid-981e235e-7270-499f-8014-44efc94ecb57">
            <path class="uuid-6bc68d50-3080-40d8-93d4-4118277e5d4c" d="m995.47,519.92c-.28.39-.65.74-1.11,1.03-.45.29-.92.5-1.38.63v-.28c.28-.09.54-.19.76-.3s.43-.23.62-.37c.19-.14.38-.29.56-.47.18-.17.36-.37.56-.59h.3v9.36h-.28v-9h-.03Z"/>
          </g>
          <g class="uuid-981e235e-7270-499f-8014-44efc94ecb57">
            <path class="uuid-abf8f6f7-75d2-44fa-a7fa-d8aac099d816" d="m995.47,519.92c-.28.39-.65.74-1.11,1.03-.45.29-.92.5-1.38.63v-.28c.28-.09.54-.19.76-.3s.43-.23.62-.37c.19-.14.38-.29.56-.47.18-.17.36-.37.56-.59h.3v9.36h-.28v-9h-.03Z"/>
          </g>
          <g class="uuid-981e235e-7270-499f-8014-44efc94ecb57">
            <path class="uuid-6bc68d50-3080-40d8-93d4-4118277e5d4c" d="m995.47,519.92c-.28.39-.65.74-1.11,1.03-.45.29-.92.5-1.38.63v-.28c.28-.09.54-.19.76-.3s.43-.23.62-.37c.19-.14.38-.29.56-.47.18-.17.36-.37.56-.59h.3v9.36h-.28v-9h-.03Z"/>
          </g>
          <g class="uuid-981e235e-7270-499f-8014-44efc94ecb57">
            <path class="uuid-6bc68d50-3080-40d8-93d4-4118277e5d4c" d="m1155.59,528.92h-6.3c0-.39.07-.75.25-1.07.17-.32.4-.62.69-.9.28-.28.6-.55.96-.8.35-.25.7-.5,1.05-.75.36-.25.71-.5,1.05-.76.34-.26.64-.53.91-.81.27-.28.48-.58.64-.89.16-.32.24-.66.24-1.03s-.07-.69-.2-.97c-.13-.28-.31-.51-.54-.7-.23-.19-.5-.33-.82-.43-.32-.1-.66-.14-1.04-.14-.49,0-.9.07-1.25.22-.35.15-.63.35-.85.61s-.38.57-.48.94-.15.76-.15,1.19h-.27c0-1.03.26-1.82.76-2.39s1.25-.85,2.25-.85c.4,0,.78.05,1.13.16s.65.26.91.48.46.47.61.78.23.68.23,1.1c0,.51-.14.98-.41,1.4s-.62.82-1.04,1.18-.87.71-1.36,1.04c-.49.33-.94.65-1.37.98-.43.33-.79.66-1.09,1-.3.34-.47.72-.51,1.12h6.03v.28Z"/>
          </g>
          <g class="uuid-981e235e-7270-499f-8014-44efc94ecb57">
            <path class="uuid-abf8f6f7-75d2-44fa-a7fa-d8aac099d816" d="m1155.59,528.92h-6.3c0-.39.07-.75.25-1.07.17-.32.4-.62.69-.9.28-.28.6-.55.96-.8.35-.25.7-.5,1.05-.75.36-.25.71-.5,1.05-.76.34-.26.64-.53.91-.81.27-.28.48-.58.64-.89.16-.32.24-.66.24-1.03s-.07-.69-.2-.97c-.13-.28-.31-.51-.54-.7-.23-.19-.5-.33-.82-.43-.32-.1-.66-.14-1.04-.14-.49,0-.9.07-1.25.22-.35.15-.63.35-.85.61s-.38.57-.48.94-.15.76-.15,1.19h-.27c0-1.03.26-1.82.76-2.39s1.25-.85,2.25-.85c.4,0,.78.05,1.13.16s.65.26.91.48.46.47.61.78.23.68.23,1.1c0,.51-.14.98-.41,1.4s-.62.82-1.04,1.18-.87.71-1.36,1.04c-.49.33-.94.65-1.37.98-.43.33-.79.66-1.09,1-.3.34-.47.72-.51,1.12h6.03v.28Z"/>
          </g>
          <g class="uuid-981e235e-7270-499f-8014-44efc94ecb57">
            <path class="uuid-6bc68d50-3080-40d8-93d4-4118277e5d4c" d="m1155.59,528.92h-6.3c0-.39.07-.75.25-1.07.17-.32.4-.62.69-.9.28-.28.6-.55.96-.8.35-.25.7-.5,1.05-.75.36-.25.71-.5,1.05-.76.34-.26.64-.53.91-.81.27-.28.48-.58.64-.89.16-.32.24-.66.24-1.03s-.07-.69-.2-.97c-.13-.28-.31-.51-.54-.7-.23-.19-.5-.33-.82-.43-.32-.1-.66-.14-1.04-.14-.49,0-.9.07-1.25.22-.35.15-.63.35-.85.61s-.38.57-.48.94-.15.76-.15,1.19h-.27c0-1.03.26-1.82.76-2.39s1.25-.85,2.25-.85c.4,0,.78.05,1.13.16s.65.26.91.48.46.47.61.78.23.68.23,1.1c0,.51-.14.98-.41,1.4s-.62.82-1.04,1.18-.87.71-1.36,1.04c-.49.33-.94.65-1.37.98-.43.33-.79.66-1.09,1-.3.34-.47.72-.51,1.12h6.03v.28Z"/>
          </g>
          <g class="uuid-981e235e-7270-499f-8014-44efc94ecb57">
            <path class="uuid-6bc68d50-3080-40d8-93d4-4118277e5d4c" d="m1306.68,521.13c.15-.38.36-.7.64-.96.28-.26.62-.45,1.02-.58.4-.13.84-.19,1.33-.19.38,0,.74.04,1.09.12.35.08.66.22.94.4s.5.42.66.72c.17.29.25.65.25,1.06,0,.66-.19,1.17-.57,1.54-.38.37-.86.58-1.44.63v.03c.28.03.54.09.81.2s.5.26.7.45c.21.2.37.44.5.74.12.29.19.64.19,1.05,0,.44-.08.83-.25,1.17-.17.34-.4.63-.69.86-.29.23-.62.41-1,.53s-.79.18-1.22.18c-.53,0-1.01-.07-1.45-.22-.43-.15-.8-.36-1.1-.64-.3-.28-.53-.63-.68-1.04s-.21-.88-.17-1.42h.28c-.04.5.01.93.15,1.31.14.38.34.7.62.96.27.26.61.45,1.02.58.4.13.85.2,1.33.2.38,0,.74-.05,1.09-.16.35-.11.66-.26.92-.47s.48-.47.64-.78c.16-.31.24-.66.24-1.07s-.07-.75-.2-1.03c-.13-.28-.32-.52-.56-.7-.24-.18-.53-.32-.85-.41s-.68-.15-1.07-.17h-.67v-.28h.67c.3,0,.6-.03.9-.1.3-.07.57-.18.81-.34.24-.16.43-.37.58-.63.15-.26.22-.58.22-.97,0-.38-.09-.69-.25-.95-.16-.26-.36-.46-.61-.63-.25-.16-.53-.28-.84-.34-.31-.07-.63-.1-.96-.1-.45,0-.86.06-1.22.17-.36.12-.67.29-.93.52-.26.23-.45.53-.58.87s-.19.76-.19,1.22h-.28c0-.51.06-.96.21-1.34Z"/>
          </g>
          <g class="uuid-981e235e-7270-499f-8014-44efc94ecb57">
            <path class="uuid-abf8f6f7-75d2-44fa-a7fa-d8aac099d816" d="m1306.68,521.13c.15-.38.36-.7.64-.96.28-.26.62-.45,1.02-.58.4-.13.84-.19,1.33-.19.38,0,.74.04,1.09.12.35.08.66.22.94.4s.5.42.66.72c.17.29.25.65.25,1.06,0,.66-.19,1.17-.57,1.54-.38.37-.86.58-1.44.63v.03c.28.03.54.09.81.2s.5.26.7.45c.21.2.37.44.5.74.12.29.19.64.19,1.05,0,.44-.08.83-.25,1.17-.17.34-.4.63-.69.86-.29.23-.62.41-1,.53s-.79.18-1.22.18c-.53,0-1.01-.07-1.45-.22-.43-.15-.8-.36-1.1-.64-.3-.28-.53-.63-.68-1.04s-.21-.88-.17-1.42h.28c-.04.5.01.93.15,1.31.14.38.34.7.62.96.27.26.61.45,1.02.58.4.13.85.2,1.33.2.38,0,.74-.05,1.09-.16.35-.11.66-.26.92-.47s.48-.47.64-.78c.16-.31.24-.66.24-1.07s-.07-.75-.2-1.03c-.13-.28-.32-.52-.56-.7-.24-.18-.53-.32-.85-.41s-.68-.15-1.07-.17h-.67v-.28h.67c.3,0,.6-.03.9-.1.3-.07.57-.18.81-.34.24-.16.43-.37.58-.63.15-.26.22-.58.22-.97,0-.38-.09-.69-.25-.95-.16-.26-.36-.46-.61-.63-.25-.16-.53-.28-.84-.34-.31-.07-.63-.1-.96-.1-.45,0-.86.06-1.22.17-.36.12-.67.29-.93.52-.26.23-.45.53-.58.87s-.19.76-.19,1.22h-.28c0-.51.06-.96.21-1.34Z"/>
          </g>
          <g class="uuid-981e235e-7270-499f-8014-44efc94ecb57">
            <path class="uuid-6bc68d50-3080-40d8-93d4-4118277e5d4c" d="m1306.68,521.13c.15-.38.36-.7.64-.96.28-.26.62-.45,1.02-.58.4-.13.84-.19,1.33-.19.38,0,.74.04,1.09.12.35.08.66.22.94.4s.5.42.66.72c.17.29.25.65.25,1.06,0,.66-.19,1.17-.57,1.54-.38.37-.86.58-1.44.63v.03c.28.03.54.09.81.2s.5.26.7.45c.21.2.37.44.5.74.12.29.19.64.19,1.05,0,.44-.08.83-.25,1.17-.17.34-.4.63-.69.86-.29.23-.62.41-1,.53s-.79.18-1.22.18c-.53,0-1.01-.07-1.45-.22-.43-.15-.8-.36-1.1-.64-.3-.28-.53-.63-.68-1.04s-.21-.88-.17-1.42h.28c-.04.5.01.93.15,1.31.14.38.34.7.62.96.27.26.61.45,1.02.58.4.13.85.2,1.33.2.38,0,.74-.05,1.09-.16.35-.11.66-.26.92-.47s.48-.47.64-.78c.16-.31.24-.66.24-1.07s-.07-.75-.2-1.03c-.13-.28-.32-.52-.56-.7-.24-.18-.53-.32-.85-.41s-.68-.15-1.07-.17h-.67v-.28h.67c.3,0,.6-.03.9-.1.3-.07.57-.18.81-.34.24-.16.43-.37.58-.63.15-.26.22-.58.22-.97,0-.38-.09-.69-.25-.95-.16-.26-.36-.46-.61-.63-.25-.16-.53-.28-.84-.34-.31-.07-.63-.1-.96-.1-.45,0-.86.06-1.22.17-.36.12-.67.29-.93.52-.26.23-.45.53-.58.87s-.19.76-.19,1.22h-.28c0-.51.06-.96.21-1.34Z"/>
          </g>
          <g class="uuid-981e235e-7270-499f-8014-44efc94ecb57">
            <path class="uuid-6bc68d50-3080-40d8-93d4-4118277e5d4c" d="m1463.26,526.16l4.68-6.59h.34v6.65h1.69v.27h-1.69v2.44h-.28v-2.44h-4.75v-.33Zm4.72-6.21l-4.45,6.26h4.47v-6.26h-.03Z"/>
          </g>
          <g class="uuid-981e235e-7270-499f-8014-44efc94ecb57">
            <path class="uuid-abf8f6f7-75d2-44fa-a7fa-d8aac099d816" d="m1463.26,526.16l4.68-6.59h.34v6.65h1.69v.27h-1.69v2.44h-.28v-2.44h-4.75v-.33Zm4.72-6.21l-4.45,6.26h4.47v-6.26h-.03Z"/>
          </g>
          <g class="uuid-981e235e-7270-499f-8014-44efc94ecb57">
            <path class="uuid-6bc68d50-3080-40d8-93d4-4118277e5d4c" d="m1463.26,526.16l4.68-6.59h.34v6.65h1.69v.27h-1.69v2.44h-.28v-2.44h-4.75v-.33Zm4.72-6.21l-4.45,6.26h4.47v-6.26h-.03Z"/>
          </g>
          <g class="uuid-981e235e-7270-499f-8014-44efc94ecb57">
            <path class="uuid-6bc68d50-3080-40d8-93d4-4118277e5d4c" d="m1619.94,523.85h.03c.27-.44.62-.76,1.07-.96.44-.2.94-.3,1.49-.3.49,0,.93.08,1.32.24.39.16.73.38,1.02.67.28.28.5.63.66,1.03.16.4.23.83.23,1.3,0,.5-.08.95-.23,1.35-.16.4-.38.75-.66,1.03-.28.28-.62.5-1.02.65-.39.15-.83.23-1.32.23s-.92-.07-1.33-.21c-.41-.14-.76-.35-1.05-.61-.29-.27-.51-.59-.67-.98-.16-.39-.23-.84-.21-1.34h.28c-.02.46.04.87.18,1.22.14.36.34.66.6.91.26.25.58.44.96.56.38.13.79.19,1.24.19s.87-.07,1.23-.21c.36-.14.67-.34.93-.61.26-.26.45-.58.59-.95.14-.37.21-.78.21-1.23s-.07-.83-.21-1.19c-.14-.36-.34-.67-.6-.94-.26-.26-.57-.46-.94-.61-.37-.15-.77-.22-1.21-.22-.55,0-1.06.12-1.53.36-.47.24-.83.6-1.09,1.07h-.34l1-4.72h4.8v.28h-4.58l-.85,4Z"/>
          </g>
          <g class="uuid-981e235e-7270-499f-8014-44efc94ecb57">
            <path class="uuid-abf8f6f7-75d2-44fa-a7fa-d8aac099d816" d="m1619.94,523.85h.03c.27-.44.62-.76,1.07-.96.44-.2.94-.3,1.49-.3.49,0,.93.08,1.32.24.39.16.73.38,1.02.67.28.28.5.63.66,1.03.16.4.23.83.23,1.3,0,.5-.08.95-.23,1.35-.16.4-.38.75-.66,1.03-.28.28-.62.5-1.02.65-.39.15-.83.23-1.32.23s-.92-.07-1.33-.21c-.41-.14-.76-.35-1.05-.61-.29-.27-.51-.59-.67-.98-.16-.39-.23-.84-.21-1.34h.28c-.02.46.04.87.18,1.22.14.36.34.66.6.91.26.25.58.44.96.56.38.13.79.19,1.24.19s.87-.07,1.23-.21c.36-.14.67-.34.93-.61.26-.26.45-.58.59-.95.14-.37.21-.78.21-1.23s-.07-.83-.21-1.19c-.14-.36-.34-.67-.6-.94-.26-.26-.57-.46-.94-.61-.37-.15-.77-.22-1.21-.22-.55,0-1.06.12-1.53.36-.47.24-.83.6-1.09,1.07h-.34l1-4.72h4.8v.28h-4.58l-.85,4Z"/>
          </g>
          <g class="uuid-981e235e-7270-499f-8014-44efc94ecb57">
            <path class="uuid-6bc68d50-3080-40d8-93d4-4118277e5d4c" d="m1619.94,523.85h.03c.27-.44.62-.76,1.07-.96.44-.2.94-.3,1.49-.3.49,0,.93.08,1.32.24.39.16.73.38,1.02.67.28.28.5.63.66,1.03.16.4.23.83.23,1.3,0,.5-.08.95-.23,1.35-.16.4-.38.75-.66,1.03-.28.28-.62.5-1.02.65-.39.15-.83.23-1.32.23s-.92-.07-1.33-.21c-.41-.14-.76-.35-1.05-.61-.29-.27-.51-.59-.67-.98-.16-.39-.23-.84-.21-1.34h.28c-.02.46.04.87.18,1.22.14.36.34.66.6.91.26.25.58.44.96.56.38.13.79.19,1.24.19s.87-.07,1.23-.21c.36-.14.67-.34.93-.61.26-.26.45-.58.59-.95.14-.37.21-.78.21-1.23s-.07-.83-.21-1.19c-.14-.36-.34-.67-.6-.94-.26-.26-.57-.46-.94-.61-.37-.15-.77-.22-1.21-.22-.55,0-1.06.12-1.53.36-.47.24-.83.6-1.09,1.07h-.34l1-4.72h4.8v.28h-4.58l-.85,4Z"/>
          </g>
          <g class="uuid-981e235e-7270-499f-8014-44efc94ecb57">
            <path class="uuid-6bc68d50-3080-40d8-93d4-4118277e5d4c" d="m821.65,982.73v.28h-6.88v-.28h6.88Z"/>
            <path class="uuid-6bc68d50-3080-40d8-93d4-4118277e5d4c" d="m822.67,978.76c.15-.38.36-.7.64-.96.28-.26.62-.45,1.02-.58.4-.13.84-.19,1.33-.19.38,0,.74.04,1.09.12.35.08.66.22.94.4s.5.42.66.72c.17.29.25.65.25,1.06,0,.66-.19,1.17-.57,1.54-.38.37-.86.58-1.44.63v.03c.28.03.54.09.81.2s.5.26.7.45c.21.2.37.44.5.74.12.29.19.64.19,1.05,0,.44-.08.83-.25,1.17-.17.34-.4.63-.69.86-.29.23-.62.41-1,.53s-.79.18-1.22.18c-.53,0-1.01-.07-1.45-.22-.43-.15-.8-.36-1.1-.64-.3-.28-.53-.63-.68-1.04s-.21-.88-.17-1.42h.28c-.04.5.01.93.15,1.31.14.38.34.7.62.96.27.26.61.45,1.02.58.4.13.85.2,1.33.2.38,0,.74-.05,1.09-.16.35-.11.66-.26.92-.47s.48-.47.64-.78c.16-.31.24-.66.24-1.07s-.07-.75-.2-1.03c-.13-.28-.32-.52-.56-.7-.24-.18-.53-.32-.85-.41s-.68-.15-1.07-.17h-.67v-.28h.67c.3,0,.6-.03.9-.1.3-.07.57-.18.81-.34.24-.16.43-.37.58-.63.15-.26.22-.58.22-.97,0-.38-.09-.69-.25-.95-.16-.26-.36-.46-.61-.63-.25-.16-.53-.28-.84-.34-.31-.07-.63-.1-.96-.1-.45,0-.86.06-1.22.17-.36.12-.67.29-.93.52-.26.23-.45.53-.58.87s-.19.76-.19,1.22h-.28c0-.51.06-.96.21-1.34Z"/>
          </g>
          <g class="uuid-981e235e-7270-499f-8014-44efc94ecb57">
            <path class="uuid-abf8f6f7-75d2-44fa-a7fa-d8aac099d816" d="m821.65,982.73v.28h-6.88v-.28h6.88Z"/>
            <path class="uuid-abf8f6f7-75d2-44fa-a7fa-d8aac099d816" d="m822.67,978.76c.15-.38.36-.7.64-.96.28-.26.62-.45,1.02-.58.4-.13.84-.19,1.33-.19.38,0,.74.04,1.09.12.35.08.66.22.94.4s.5.42.66.72c.17.29.25.65.25,1.06,0,.66-.19,1.17-.57,1.54-.38.37-.86.58-1.44.63v.03c.28.03.54.09.81.2s.5.26.7.45c.21.2.37.44.5.74.12.29.19.64.19,1.05,0,.44-.08.83-.25,1.17-.17.34-.4.63-.69.86-.29.23-.62.41-1,.53s-.79.18-1.22.18c-.53,0-1.01-.07-1.45-.22-.43-.15-.8-.36-1.1-.64-.3-.28-.53-.63-.68-1.04s-.21-.88-.17-1.42h.28c-.04.5.01.93.15,1.31.14.38.34.7.62.96.27.26.61.45,1.02.58.4.13.85.2,1.33.2.38,0,.74-.05,1.09-.16.35-.11.66-.26.92-.47s.48-.47.64-.78c.16-.31.24-.66.24-1.07s-.07-.75-.2-1.03c-.13-.28-.32-.52-.56-.7-.24-.18-.53-.32-.85-.41s-.68-.15-1.07-.17h-.67v-.28h.67c.3,0,.6-.03.9-.1.3-.07.57-.18.81-.34.24-.16.43-.37.58-.63.15-.26.22-.58.22-.97,0-.38-.09-.69-.25-.95-.16-.26-.36-.46-.61-.63-.25-.16-.53-.28-.84-.34-.31-.07-.63-.1-.96-.1-.45,0-.86.06-1.22.17-.36.12-.67.29-.93.52-.26.23-.45.53-.58.87s-.19.76-.19,1.22h-.28c0-.51.06-.96.21-1.34Z"/>
          </g>
          <g class="uuid-981e235e-7270-499f-8014-44efc94ecb57">
            <path class="uuid-6bc68d50-3080-40d8-93d4-4118277e5d4c" d="m821.65,982.73v.28h-6.88v-.28h6.88Z"/>
            <path class="uuid-6bc68d50-3080-40d8-93d4-4118277e5d4c" d="m822.67,978.76c.15-.38.36-.7.64-.96.28-.26.62-.45,1.02-.58.4-.13.84-.19,1.33-.19.38,0,.74.04,1.09.12.35.08.66.22.94.4s.5.42.66.72c.17.29.25.65.25,1.06,0,.66-.19,1.17-.57,1.54-.38.37-.86.58-1.44.63v.03c.28.03.54.09.81.2s.5.26.7.45c.21.2.37.44.5.74.12.29.19.64.19,1.05,0,.44-.08.83-.25,1.17-.17.34-.4.63-.69.86-.29.23-.62.41-1,.53s-.79.18-1.22.18c-.53,0-1.01-.07-1.45-.22-.43-.15-.8-.36-1.1-.64-.3-.28-.53-.63-.68-1.04s-.21-.88-.17-1.42h.28c-.04.5.01.93.15,1.31.14.38.34.7.62.96.27.26.61.45,1.02.58.4.13.85.2,1.33.2.38,0,.74-.05,1.09-.16.35-.11.66-.26.92-.47s.48-.47.64-.78c.16-.31.24-.66.24-1.07s-.07-.75-.2-1.03c-.13-.28-.32-.52-.56-.7-.24-.18-.53-.32-.85-.41s-.68-.15-1.07-.17h-.67v-.28h.67c.3,0,.6-.03.9-.1.3-.07.57-.18.81-.34.24-.16.43-.37.58-.63.15-.26.22-.58.22-.97,0-.38-.09-.69-.25-.95-.16-.26-.36-.46-.61-.63-.25-.16-.53-.28-.84-.34-.31-.07-.63-.1-.96-.1-.45,0-.86.06-1.22.17-.36.12-.67.29-.93.52-.26.23-.45.53-.58.87s-.19.76-.19,1.22h-.28c0-.51.06-.96.21-1.34Z"/>
          </g>
          <g class="uuid-981e235e-7270-499f-8014-44efc94ecb57">
            <path class="uuid-6bc68d50-3080-40d8-93d4-4118277e5d4c" d="m821.65,825.6v.28h-6.88v-.28h6.88Z"/>
            <path class="uuid-6bc68d50-3080-40d8-93d4-4118277e5d4c" d="m828.71,829.42h-6.3c0-.39.07-.75.25-1.07.17-.32.4-.62.69-.9.28-.28.6-.55.96-.8.35-.25.7-.5,1.05-.75.36-.25.71-.5,1.05-.76.34-.26.64-.53.91-.81.27-.28.48-.58.64-.89.16-.32.24-.66.24-1.03s-.07-.69-.2-.97c-.13-.28-.31-.51-.54-.7-.23-.19-.5-.33-.82-.43-.32-.1-.66-.14-1.04-.14-.49,0-.9.07-1.25.22-.35.15-.63.35-.85.61s-.38.57-.48.94-.15.76-.15,1.19h-.27c0-1.03.26-1.82.76-2.39s1.25-.85,2.25-.85c.4,0,.78.05,1.13.16s.65.26.91.48.46.47.61.78.23.68.23,1.1c0,.51-.14.98-.41,1.4s-.62.82-1.04,1.18-.87.71-1.36,1.04c-.49.33-.94.65-1.37.98-.43.33-.79.66-1.09,1-.3.34-.47.72-.51,1.12h6.03v.28Z"/>
          </g>
          <g class="uuid-981e235e-7270-499f-8014-44efc94ecb57">
            <path class="uuid-abf8f6f7-75d2-44fa-a7fa-d8aac099d816" d="m821.65,825.6v.28h-6.88v-.28h6.88Z"/>
            <path class="uuid-abf8f6f7-75d2-44fa-a7fa-d8aac099d816" d="m828.71,829.42h-6.3c0-.39.07-.75.25-1.07.17-.32.4-.62.69-.9.28-.28.6-.55.96-.8.35-.25.7-.5,1.05-.75.36-.25.71-.5,1.05-.76.34-.26.64-.53.91-.81.27-.28.48-.58.64-.89.16-.32.24-.66.24-1.03s-.07-.69-.2-.97c-.13-.28-.31-.51-.54-.7-.23-.19-.5-.33-.82-.43-.32-.1-.66-.14-1.04-.14-.49,0-.9.07-1.25.22-.35.15-.63.35-.85.61s-.38.57-.48.94-.15.76-.15,1.19h-.27c0-1.03.26-1.82.76-2.39s1.25-.85,2.25-.85c.4,0,.78.05,1.13.16s.65.26.91.48.46.47.61.78.23.68.23,1.1c0,.51-.14.98-.41,1.4s-.62.82-1.04,1.18-.87.71-1.36,1.04c-.49.33-.94.65-1.37.98-.43.33-.79.66-1.09,1-.3.34-.47.72-.51,1.12h6.03v.28Z"/>
          </g>
          <g class="uuid-981e235e-7270-499f-8014-44efc94ecb57">
            <path class="uuid-6bc68d50-3080-40d8-93d4-4118277e5d4c" d="m821.65,825.6v.28h-6.88v-.28h6.88Z"/>
            <path class="uuid-6bc68d50-3080-40d8-93d4-4118277e5d4c" d="m828.71,829.42h-6.3c0-.39.07-.75.25-1.07.17-.32.4-.62.69-.9.28-.28.6-.55.96-.8.35-.25.7-.5,1.05-.75.36-.25.71-.5,1.05-.76.34-.26.64-.53.91-.81.27-.28.48-.58.64-.89.16-.32.24-.66.24-1.03s-.07-.69-.2-.97c-.13-.28-.31-.51-.54-.7-.23-.19-.5-.33-.82-.43-.32-.1-.66-.14-1.04-.14-.49,0-.9.07-1.25.22-.35.15-.63.35-.85.61s-.38.57-.48.94-.15.76-.15,1.19h-.27c0-1.03.26-1.82.76-2.39s1.25-.85,2.25-.85c.4,0,.78.05,1.13.16s.65.26.91.48.46.47.61.78.23.68.23,1.1c0,.51-.14.98-.41,1.4s-.62.82-1.04,1.18-.87.71-1.36,1.04c-.49.33-.94.65-1.37.98-.43.33-.79.66-1.09,1-.3.34-.47.72-.51,1.12h6.03v.28Z"/>
          </g>
          <g class="uuid-981e235e-7270-499f-8014-44efc94ecb57">
            <path class="uuid-6bc68d50-3080-40d8-93d4-4118277e5d4c" d="m821.65,669.61v.28h-6.88v-.28h6.88Z"/>
            <path class="uuid-6bc68d50-3080-40d8-93d4-4118277e5d4c" d="m825.72,664.44c-.28.39-.65.74-1.11,1.03-.45.29-.92.5-1.38.63v-.28c.28-.09.54-.19.76-.3s.43-.23.62-.37c.19-.14.38-.29.56-.47.18-.17.36-.37.56-.59h.3v9.36h-.28v-9h-.03Z"/>
          </g>
          <g class="uuid-981e235e-7270-499f-8014-44efc94ecb57">
            <path class="uuid-abf8f6f7-75d2-44fa-a7fa-d8aac099d816" d="m821.65,669.61v.28h-6.88v-.28h6.88Z"/>
            <path class="uuid-abf8f6f7-75d2-44fa-a7fa-d8aac099d816" d="m825.72,664.44c-.28.39-.65.74-1.11,1.03-.45.29-.92.5-1.38.63v-.28c.28-.09.54-.19.76-.3s.43-.23.62-.37c.19-.14.38-.29.56-.47.18-.17.36-.37.56-.59h.3v9.36h-.28v-9h-.03Z"/>
          </g>
          <g class="uuid-981e235e-7270-499f-8014-44efc94ecb57">
            <path class="uuid-6bc68d50-3080-40d8-93d4-4118277e5d4c" d="m821.65,669.61v.28h-6.88v-.28h6.88Z"/>
            <path class="uuid-6bc68d50-3080-40d8-93d4-4118277e5d4c" d="m825.72,664.44c-.28.39-.65.74-1.11,1.03-.45.29-.92.5-1.38.63v-.28c.28-.09.54-.19.76-.3s.43-.23.62-.37c.19-.14.38-.29.56-.47.18-.17.36-.37.56-.59h.3v9.36h-.28v-9h-.03Z"/>
          </g>
          <g class="uuid-981e235e-7270-499f-8014-44efc94ecb57">
            <path class="uuid-6bc68d50-3080-40d8-93d4-4118277e5d4c" d="m825.72,350.18c-.28.39-.65.74-1.11,1.03-.45.29-.92.5-1.38.63v-.28c.28-.09.54-.19.76-.3.22-.11.43-.23.62-.37.19-.14.38-.29.56-.47.18-.17.36-.37.56-.59h.3v9.36h-.28v-9h-.03Z"/>
          </g>
          <g class="uuid-981e235e-7270-499f-8014-44efc94ecb57">
            <path class="uuid-abf8f6f7-75d2-44fa-a7fa-d8aac099d816" d="m825.72,350.18c-.28.39-.65.74-1.11,1.03-.45.29-.92.5-1.38.63v-.28c.28-.09.54-.19.76-.3.22-.11.43-.23.62-.37.19-.14.38-.29.56-.47.18-.17.36-.37.56-.59h.3v9.36h-.28v-9h-.03Z"/>
          </g>
          <g class="uuid-981e235e-7270-499f-8014-44efc94ecb57">
            <path class="uuid-6bc68d50-3080-40d8-93d4-4118277e5d4c" d="m825.72,350.18c-.28.39-.65.74-1.11,1.03-.45.29-.92.5-1.38.63v-.28c.28-.09.54-.19.76-.3.22-.11.43-.23.62-.37.19-.14.38-.29.56-.47.18-.17.36-.37.56-.59h.3v9.36h-.28v-9h-.03Z"/>
          </g>
          <g class="uuid-981e235e-7270-499f-8014-44efc94ecb57">
            <path class="uuid-6bc68d50-3080-40d8-93d4-4118277e5d4c" d="m828.71,202.05h-6.3c0-.39.07-.75.25-1.07.17-.32.4-.62.69-.9.28-.28.6-.55.96-.8.35-.25.7-.5,1.05-.75.36-.25.71-.5,1.05-.76.34-.26.64-.53.91-.81s.48-.58.64-.89c.16-.32.24-.66.24-1.03s-.07-.69-.2-.97-.31-.51-.54-.7c-.23-.19-.5-.33-.82-.43-.32-.1-.66-.14-1.04-.14-.49,0-.9.07-1.25.22-.35.15-.63.35-.85.61-.22.26-.38.57-.48.94-.1.36-.15.76-.15,1.19h-.27c0-1.03.26-1.82.76-2.39s1.25-.85,2.25-.85c.4,0,.78.05,1.13.16s.65.26.91.47c.26.21.46.47.61.78s.23.68.23,1.1c0,.51-.14.98-.41,1.4s-.62.82-1.04,1.18c-.42.37-.87.71-1.36,1.04s-.94.65-1.37.98c-.43.33-.79.66-1.09,1s-.47.72-.51,1.12h6.03v.28Z"/>
          </g>
          <g class="uuid-981e235e-7270-499f-8014-44efc94ecb57">
            <path class="uuid-abf8f6f7-75d2-44fa-a7fa-d8aac099d816" d="m828.71,202.05h-6.3c0-.39.07-.75.25-1.07.17-.32.4-.62.69-.9.28-.28.6-.55.96-.8.35-.25.7-.5,1.05-.75.36-.25.71-.5,1.05-.76.34-.26.64-.53.91-.81s.48-.58.64-.89c.16-.32.24-.66.24-1.03s-.07-.69-.2-.97-.31-.51-.54-.7c-.23-.19-.5-.33-.82-.43-.32-.1-.66-.14-1.04-.14-.49,0-.9.07-1.25.22-.35.15-.63.35-.85.61-.22.26-.38.57-.48.94-.1.36-.15.76-.15,1.19h-.27c0-1.03.26-1.82.76-2.39s1.25-.85,2.25-.85c.4,0,.78.05,1.13.16s.65.26.91.47c.26.21.46.47.61.78s.23.68.23,1.1c0,.51-.14.98-.41,1.4s-.62.82-1.04,1.18c-.42.37-.87.71-1.36,1.04s-.94.65-1.37.98c-.43.33-.79.66-1.09,1s-.47.72-.51,1.12h6.03v.28Z"/>
          </g>
          <g class="uuid-981e235e-7270-499f-8014-44efc94ecb57">
            <path class="uuid-6bc68d50-3080-40d8-93d4-4118277e5d4c" d="m828.71,202.05h-6.3c0-.39.07-.75.25-1.07.17-.32.4-.62.69-.9.28-.28.6-.55.96-.8.35-.25.7-.5,1.05-.75.36-.25.71-.5,1.05-.76.34-.26.64-.53.91-.81s.48-.58.64-.89c.16-.32.24-.66.24-1.03s-.07-.69-.2-.97-.31-.51-.54-.7c-.23-.19-.5-.33-.82-.43-.32-.1-.66-.14-1.04-.14-.49,0-.9.07-1.25.22-.35.15-.63.35-.85.61-.22.26-.38.57-.48.94-.1.36-.15.76-.15,1.19h-.27c0-1.03.26-1.82.76-2.39s1.25-.85,2.25-.85c.4,0,.78.05,1.13.16s.65.26.91.47c.26.21.46.47.61.78s.23.68.23,1.1c0,.51-.14.98-.41,1.4s-.62.82-1.04,1.18c-.42.37-.87.71-1.36,1.04s-.94.65-1.37.98c-.43.33-.79.66-1.09,1s-.47.72-.51,1.12h6.03v.28Z"/>
          </g>
          <g class="uuid-981e235e-7270-499f-8014-44efc94ecb57">
            <path class="uuid-6bc68d50-3080-40d8-93d4-4118277e5d4c" d="m822.67,38.27c.15-.38.36-.7.64-.96.28-.26.62-.45,1.02-.58.4-.13.84-.19,1.33-.19.38,0,.74.04,1.09.12s.66.22.94.4.5.42.66.72c.17.29.25.65.25,1.06,0,.66-.19,1.17-.57,1.54-.38.37-.86.58-1.44.63v.03c.28.03.54.09.81.2.26.11.5.26.7.45.21.2.37.44.5.74.12.29.19.64.19,1.05,0,.44-.08.83-.25,1.17s-.4.63-.69.86c-.29.23-.62.41-1,.53s-.79.18-1.22.18c-.53,0-1.01-.07-1.45-.22s-.8-.36-1.1-.64c-.3-.28-.53-.63-.68-1.04-.15-.41-.21-.89-.17-1.42h.28c-.04.5.01.93.15,1.31s.34.7.62.96c.27.26.61.45,1.02.58.4.13.85.2,1.33.2.38,0,.74-.05,1.09-.16.35-.1.66-.26.92-.47s.48-.47.64-.78c.16-.31.24-.66.24-1.07s-.07-.75-.2-1.03-.32-.52-.56-.7c-.24-.18-.53-.32-.85-.41s-.68-.15-1.07-.17h-.67v-.27h.67c.3,0,.6-.03.9-.1.3-.07.57-.18.81-.34.24-.16.43-.37.58-.63.15-.26.22-.58.22-.97,0-.38-.09-.69-.25-.95s-.36-.47-.61-.63c-.25-.16-.53-.27-.84-.34-.31-.07-.63-.1-.96-.1-.45,0-.86.06-1.22.17-.36.11-.67.29-.93.52-.26.23-.45.53-.58.87s-.19.76-.19,1.22h-.28c0-.51.06-.96.21-1.34Z"/>
          </g>
          <g class="uuid-981e235e-7270-499f-8014-44efc94ecb57">
            <path class="uuid-abf8f6f7-75d2-44fa-a7fa-d8aac099d816" d="m822.67,38.27c.15-.38.36-.7.64-.96.28-.26.62-.45,1.02-.58.4-.13.84-.19,1.33-.19.38,0,.74.04,1.09.12s.66.22.94.4.5.42.66.72c.17.29.25.65.25,1.06,0,.66-.19,1.17-.57,1.54-.38.37-.86.58-1.44.63v.03c.28.03.54.09.81.2.26.11.5.26.7.45.21.2.37.44.5.74.12.29.19.64.19,1.05,0,.44-.08.83-.25,1.17s-.4.63-.69.86c-.29.23-.62.41-1,.53s-.79.18-1.22.18c-.53,0-1.01-.07-1.45-.22s-.8-.36-1.1-.64c-.3-.28-.53-.63-.68-1.04-.15-.41-.21-.89-.17-1.42h.28c-.04.5.01.93.15,1.31s.34.7.62.96c.27.26.61.45,1.02.58.4.13.85.2,1.33.2.38,0,.74-.05,1.09-.16.35-.1.66-.26.92-.47s.48-.47.64-.78c.16-.31.24-.66.24-1.07s-.07-.75-.2-1.03-.32-.52-.56-.7c-.24-.18-.53-.32-.85-.41s-.68-.15-1.07-.17h-.67v-.27h.67c.3,0,.6-.03.9-.1.3-.07.57-.18.81-.34.24-.16.43-.37.58-.63.15-.26.22-.58.22-.97,0-.38-.09-.69-.25-.95s-.36-.47-.61-.63c-.25-.16-.53-.27-.84-.34-.31-.07-.63-.1-.96-.1-.45,0-.86.06-1.22.17-.36.11-.67.29-.93.52-.26.23-.45.53-.58.87s-.19.76-.19,1.22h-.28c0-.51.06-.96.21-1.34Z"/>
          </g>
          <g class="uuid-981e235e-7270-499f-8014-44efc94ecb57">
            <path class="uuid-6bc68d50-3080-40d8-93d4-4118277e5d4c" d="m822.67,38.27c.15-.38.36-.7.64-.96.28-.26.62-.45,1.02-.58.4-.13.84-.19,1.33-.19.38,0,.74.04,1.09.12s.66.22.94.4.5.42.66.72c.17.29.25.65.25,1.06,0,.66-.19,1.17-.57,1.54-.38.37-.86.58-1.44.63v.03c.28.03.54.09.81.2.26.11.5.26.7.45.21.2.37.44.5.74.12.29.19.64.19,1.05,0,.44-.08.83-.25,1.17s-.4.63-.69.86c-.29.23-.62.41-1,.53s-.79.18-1.22.18c-.53,0-1.01-.07-1.45-.22s-.8-.36-1.1-.64c-.3-.28-.53-.63-.68-1.04-.15-.41-.21-.89-.17-1.42h.28c-.04.5.01.93.15,1.31s.34.7.62.96c.27.26.61.45,1.02.58.4.13.85.2,1.33.2.38,0,.74-.05,1.09-.16.35-.1.66-.26.92-.47s.48-.47.64-.78c.16-.31.24-.66.24-1.07s-.07-.75-.2-1.03-.32-.52-.56-.7c-.24-.18-.53-.32-.85-.41s-.68-.15-1.07-.17h-.67v-.27h.67c.3,0,.6-.03.9-.1.3-.07.57-.18.81-.34.24-.16.43-.37.58-.63.15-.26.22-.58.22-.97,0-.38-.09-.69-.25-.95s-.36-.47-.61-.63c-.25-.16-.53-.27-.84-.34-.31-.07-.63-.1-.96-.1-.45,0-.86.06-1.22.17-.36.11-.67.29-.93.52-.26.23-.45.53-.58.87s-.19.76-.19,1.22h-.28c0-.51.06-.96.21-1.34Z"/>
          </g>
          <g class="uuid-981e235e-7270-499f-8014-44efc94ecb57">
            <path class="uuid-6bc68d50-3080-40d8-93d4-4118277e5d4c" d="m828.84,525.99c-.11.58-.31,1.1-.58,1.56s-.64.83-1.09,1.11c-.45.28-1.01.42-1.69.42s-1.23-.14-1.69-.42c-.45-.28-.82-.65-1.09-1.11s-.47-.98-.58-1.56-.17-1.16-.17-1.75.06-1.17.17-1.75.31-1.1.58-1.55.64-.83,1.09-1.12,1.02-.43,1.69-.43,1.24.14,1.69.43.81.66,1.09,1.12.47.98.58,1.55.17,1.16.17,1.75-.06,1.17-.17,1.75Zm-.25-3.34c-.1-.54-.27-1.03-.52-1.47-.25-.44-.58-.8-1-1.08-.42-.28-.95-.42-1.59-.42s-1.17.14-1.59.42-.75.64-1,1.08c-.25.44-.42.93-.52,1.47-.1.54-.15,1.07-.15,1.6s.05,1.06.15,1.6c.1.54.27,1.03.52,1.47.25.44.58.8,1,1.08.42.28.95.42,1.59.42s1.17-.14,1.59-.42c.42-.28.75-.64,1-1.08.25-.44.42-.93.52-1.47.1-.54.15-1.07.15-1.6s-.05-1.05-.15-1.6Z"/>
          </g>
          <g class="uuid-981e235e-7270-499f-8014-44efc94ecb57">
            <path class="uuid-abf8f6f7-75d2-44fa-a7fa-d8aac099d816" d="m828.84,525.99c-.11.58-.31,1.1-.58,1.56s-.64.83-1.09,1.11c-.45.28-1.01.42-1.69.42s-1.23-.14-1.69-.42c-.45-.28-.82-.65-1.09-1.11s-.47-.98-.58-1.56-.17-1.16-.17-1.75.06-1.17.17-1.75.31-1.1.58-1.55.64-.83,1.09-1.12,1.02-.43,1.69-.43,1.24.14,1.69.43.81.66,1.09,1.12.47.98.58,1.55.17,1.16.17,1.75-.06,1.17-.17,1.75Zm-.25-3.34c-.1-.54-.27-1.03-.52-1.47-.25-.44-.58-.8-1-1.08-.42-.28-.95-.42-1.59-.42s-1.17.14-1.59.42-.75.64-1,1.08c-.25.44-.42.93-.52,1.47-.1.54-.15,1.07-.15,1.6s.05,1.06.15,1.6c.1.54.27,1.03.52,1.47.25.44.58.8,1,1.08.42.28.95.42,1.59.42s1.17-.14,1.59-.42c.42-.28.75-.64,1-1.08.25-.44.42-.93.52-1.47.1-.54.15-1.07.15-1.6s-.05-1.05-.15-1.6Z"/>
          </g>
          <g class="uuid-981e235e-7270-499f-8014-44efc94ecb57">
            <path class="uuid-6bc68d50-3080-40d8-93d4-4118277e5d4c" d="m828.84,525.99c-.11.58-.31,1.1-.58,1.56s-.64.83-1.09,1.11c-.45.28-1.01.42-1.69.42s-1.23-.14-1.69-.42c-.45-.28-.82-.65-1.09-1.11s-.47-.98-.58-1.56-.17-1.16-.17-1.75.06-1.17.17-1.75.31-1.1.58-1.55.64-.83,1.09-1.12,1.02-.43,1.69-.43,1.24.14,1.69.43.81.66,1.09,1.12.47.98.58,1.55.17,1.16.17,1.75-.06,1.17-.17,1.75Zm-.25-3.34c-.1-.54-.27-1.03-.52-1.47-.25-.44-.58-.8-1-1.08-.42-.28-.95-.42-1.59-.42s-1.17.14-1.59.42-.75.64-1,1.08c-.25.44-.42.93-.52,1.47-.1.54-.15,1.07-.15,1.6s.05,1.06.15,1.6c.1.54.27,1.03.52,1.47.25.44.58.8,1,1.08.42.28.95.42,1.59.42s1.17-.14,1.59-.42c.42-.28.75-.64,1-1.08.25-.44.42-.93.52-1.47.1-.54.15-1.07.15-1.6s-.05-1.05-.15-1.6Z"/>
          </g>
          <path class="uuid-ac85cc29-b869-4d9c-a341-9fe071b3e034" d="m-1.85,745.96v.17-.17l1.15-.17h0l1.15-.17H.44l1.15-.17h0l1.15-.17h0l1.15-.17h0l1.15-.17h0l1.15-.17h0l1.15-.17h0l1.15-.17h0l1.15-.17h0l1.15-.17h0l1.15-.17h0l1.15-.17h0l1.15-.17h0l1.15-.17h0l1.15-.17h0l1.15-.17h0l1.15-.17h0l1.15-.18h0l1.15-.18h0l1.15-.18h0l1.15-.18h0l1.15-.18h0l1.15-.18h0l1.15-.18h0l1.15-.18h0l1.15-.18h0l1.15-.18h0l1.15-.18h0l1.15-.18h0l1.15-.18h0l1.15-.18h0l1.15-.18h0l1.15-.18h0l1.15-.18h0l1.15-.18h0l1.15-.18h0l1.15-.18h0l1.15-.18h0l1.15-.18h0l1.15-.18h0l1.15-.18h0l1.15-.18h0l1.15-.18h0l1.15-.18h0l1.15-.18h0l1.15-.18h0l1.15-.18h0l1.15-.18h0l1.15-.18h0l1.15-.18h0l1.15-.18h0l1.15-.18h0l1.15-.19h0l1.15-.19h0l1.15-.19h0l1.15-.19h0l1.15-.19h0l1.15-.19h0l1.15-.19h0l1.15-.19h0l1.15-.19h0l1.15-.19h0l1.15-.19h0l1.15-.19h0l1.15-.19h0l1.15-.19h0l1.15-.19h0l1.15-.19h0l1.15-.19h0l1.15-.19h0l1.15-.19h0l1.15-.19h0l1.15-.19h0l1.15-.19h0l1.15-.19h0l1.15-.19h0l1.15-.19h0l1.15-.19h0l1.15-.19h0l1.15-.19h0l1.15-.19h0l1.15-.19h0l1.15-.19h0l1.15-.2h0l1.15-.2h0l1.15-.2h0l1.15-.2h0l1.15-.2h0l1.15-.2h0l1.15-.2h0l1.15-.2h0l1.15-.2h0l1.15-.2h0l1.15-.2h0l1.15-.2h0l1.15-.2h0l1.15-.2h0l1.15-.2h0l1.15-.2h0l1.15-.2h0l1.15-.2h0l1.15-.2h0l1.15-.2h0l1.15-.2h0l1.15-.2h0l1.15-.2h0l1.15-.2h0l1.15-.2h0l1.15-.2h0l1.15-.2h0l1.15-.21h0l1.15-.21h0l1.15-.21h0l1.15-.21h0l1.15-.21h0l1.15-.21h0l1.15-.21h0l1.15-.21h0l1.15-.21h0l1.15-.21h0l1.15-.21h0l1.15-.21h0l1.15-.21h0l1.15-.21h0l1.15-.21h0l1.15-.21h0l1.15-.21h0l1.15-.21h0l1.15-.21h0l1.15-.21h0l1.15-.21h0l1.15-.21h0l1.15-.21h0l1.15-.21h0l1.15-.22h0l1.15-.22h0l1.15-.22h0l1.15-.22h0l1.15-.22h0l1.15-.22h0l1.15-.22h0l1.15-.22h0l1.15-.22h0l1.15-.22h0l1.15-.22h0l1.15-.22h0l1.15-.22h0l1.15-.22h0l1.15-.22h0l1.15-.22h0l1.15-.22h0l1.15-.22h0l1.15-.22h0l1.15-.22h0l1.15-.22h0l1.15-.23h0l1.15-.23h0l1.15-.23h0l1.15-.23h0l1.15-.23h0l1.15-.23h0l1.15-.23h0l1.15-.23h0l1.15-.23h0l1.15-.23h0l1.15-.23h0l1.15-.23h0l1.15-.23h0l1.15-.23h0l1.15-.23h0l1.15-.23h0l1.15-.23h0l1.15-.23h0l1.15-.23h0l1.15-.24h0l1.15-.24h0l1.15-.24h0l1.15-.24h0l1.15-.24h0l1.15-.24h0l1.15-.24h0l1.15-.24h0l1.15-.24h0l1.15-.24h0l1.15-.24h0l1.15-.24h0l1.15-.24h0l1.15-.24h0l1.15-.24h0l1.15-.24h0l1.15-.24h0l1.15-.24h0l1.15-.25h0l1.15-.25h0l1.15-.25h0l1.15-.25h0l1.15-.25h0l1.15-.25h0l1.15-.25h0l1.15-.25h0l1.15-.25h0l1.15-.25h0l1.15-.25h0l1.15-.25h0l1.15-.25h0l1.15-.25h0l1.15-.25h0l1.15-.26h0l1.15-.26h0l1.15-.26h0l1.15-.26h0l1.15-.26h0l1.15-.26h0l1.15-.26h0l1.15-.26h0l1.15-.26h0l1.15-.26h0l1.15-.26h0l1.15-.26h0l1.15-.26h0l1.15-.26h0l1.15-.27h0l1.15-.27h0l1.15-.27h0l1.15-.27h0l1.15-.27h0l1.15-.27h0l1.15-.27h0l1.15-.27h0l1.15-.27h0l1.15-.27h0l1.15-.27h0l1.15-.27h0l1.15-.27h0l1.15-.28h0l1.15-.28h0l1.15-.28h0l1.15-.28h0l1.15-.28h0l1.15-.28h0l1.15-.28h0l1.15-.28h0l1.15-.28h0l1.15-.28h0l1.15-.28h0l1.15-.28h0l1.15-.29h0l1.15-.29h0l1.15-.29h0l1.15-.29h0l1.15-.29h0l1.15-.29h0l1.15-.29h0l1.15-.29h0l1.15-.29h0l1.15-.29h0l1.15-.3h0l1.15-.3h0l1.15-.3h0l1.15-.3h0l1.15-.3h0l1.15-.3h0l1.15-.3h0l1.15-.3h0l1.15-.3h0l1.15-.3h0l1.15-.31h0l1.15-.31h0l1.15-.31h0l1.15-.31h0l1.15-.31h0l1.15-.31h0l1.15-.31h0l1.15-.31h0l1.15-.31h0l1.15-.32h0l1.15-.32h0l1.15-.32h0l1.15-.32h0l1.15-.32h0l1.15-.32h0l1.15-.32h0l1.15-.32h0l1.15-.32h0l1.15-.33h0l1.15-.33h0l1.15-.33h0l1.15-.33h0l1.15-.33h0l1.15-.33h0l1.15-.33h0l1.15-.34h0l1.15-.34h0l1.15-.34h0l1.15-.34h0l1.15-.34h0l1.15-.34h0l1.15-.34h0l1.15-.34h0l1.15-.35h0l1.15-.35h0l1.15-.35h0l1.15-.35h0l1.15-.35h0l1.15-.35h0l1.15-.36h0l1.15-.36h0l1.15-.36h0l1.15-.36h0l1.15-.36h0l1.15-.36h0l1.15-.36h0l1.15-.37h0l1.15-.37h0l1.15-.37h0l1.15-.37h0l1.15-.37h0l1.15-.38h0l1.15-.38h0l1.15-.38h0l1.15-.38h0l1.15-.38h0l1.15-.38h0l1.15-.39h0l1.15-.39h0l1.15-.39h0l1.15-.39h0l1.15-.39h0l1.15-.4h0l1.15-.4h0l1.15-.4h0l1.15-.4h0l1.15-.4h0l1.15-.41h0l1.15-.41h0l1.15-.41h0l1.15-.41h0l1.15-.42h0l1.15-.42h0l1.15-.42h0l1.15-.42h0l1.15-.42h0l1.15-.43h0l1.15-.43h0l1.15-.43h0l1.15-.44h0l1.15-.44h0l1.15-.44h0l1.15-.44h0l1.15-.45h0l1.15-.45h0l1.15-.45h0l1.15-.45h0l1.15-.46h0l1.15-.46h0l1.15-.46h0l1.15-.47h0l1.15-.47h0l1.15-.47h0l1.15-.48h0l1.15-.48h0l1.15-.48h0l1.15-.49h0l1.15-.49h0l1.15-.49h0l1.15-.5h0l1.15-.5h0l1.15-.5h0l1.15-.51h0l1.15-.51h0l1.15-.51h0l1.15-.52h0l1.15-.52h0l1.15-.53h0l1.15-.53h0l1.15-.53h0l1.15-.54h0l1.15-.54h0l1.15-.55h0l1.15-.55h0l1.15-.56h0l1.15-.56h0l1.15-.57h0l1.15-.57h0l1.15-.58h0l1.15-.58h0l1.15-.59h0l1.15-.59h0l1.15-.6h0l1.15-.61h0l1.15-.61h0l1.15-.62h0l1.15-.62h0l1.15-.63h0l1.15-.64h0l1.15-.64h0l1.15-.65h0l1.15-.66h0l1.15-.66h0l1.15-.67h0l1.15-.68h0l1.15-.69h0l1.15-.7h0l1.15-.7h0l1.15-.71h0l1.15-.72h0l1.15-.73h0l1.15-.74h0l1.15-.75h0l1.15-.76h0l1.15-.77h0l1.15-.78h0l1.15-.79h0l1.15-.81h0l1.15-.82h0l1.15-.83h0l1.15-.84h0l1.15-.86h0l1.15-.87h0l1.15-.89h0l1.15-.9h0l1.15-.92h0l1.15-.94h0l1.15-.95h0l1.15-.97h0l1.15-.99h0l1.15-1.01h0l1.15-1.04h0l1.15-1.06h0l1.15-1.08h0l1.15-1.11h0l1.15-1.14h0l1.15-1.17h0l1.15-1.2h0l1.15-1.23h0l1.15-1.27h0l1.15-1.31h0l1.15-1.35h0l1.15-1.39h0l1.15-1.44h0l1.15-1.5h0l1.15-1.55h0l1.15-1.62h0l1.15-1.69h0l1.15-1.77h0l1.15-1.87h0l1.15-1.97h0l1.15-2.09h0l1.15-2.23h0l1.15-2.4h0l1.15-2.61h0l1.15-2.86h0l1.15-3.19h0l1.15-3.63h0l1.15-4.27h0l1.15-5.29h0l1.15-7.28h0l1.15-14.83h0l1.15-45.82h0l1.15-8.71h0l1.15-5.85h0l1.15-4.59h0l1.15-3.84h0l1.15-3.34h0l1.15-2.97h0l1.15-2.7h0l1.15-2.47h0l1.15-2.29h0l1.15-2.14h0l1.15-2.01h0l1.15-1.9h0l1.15-1.81h0l1.15-1.72h0l1.15-1.65h0l1.15-1.58h0l1.15-1.52h0l1.15-1.46h0l1.15-1.41h0l1.15-1.36h0l1.15-1.32h0l1.15-1.28h0l1.15-1.24h0l1.15-1.21h0l1.15-1.18h0l1.15-1.15h0l1.15-1.12h0l1.15-1.09h0l1.15-1.07h0l1.15-1.04h0l1.15-1.02h0l1.15-1h0l1.15-.98h0l1.15-.96h0l1.15-.94h0l1.15-.93h0l1.15-.91h0l1.15-.89h0l1.15-.88h0l1.15-.86h0l1.15-.85h0l1.15-.84h0l1.15-.82h0l1.15-.81h0l1.15-.8h0l1.15-.79h0l1.15-.78h0l1.15-.77h0l1.15-.75h0l1.15-.74h0l1.15-.73h0l1.15-.73h0l1.15-.72h0l1.15-.71h0l1.15-.7h0l1.15-.69h0l1.15-.68h0l1.15-.67h0l1.15-.67h0l1.15-.66h0l1.15-.65h0l1.15-.65h0l1.15-.64h0l1.15-.63h0l1.15-.63h0l1.15-.62h0l1.15-.61h0l1.15-.61h0l1.15-.6h0l1.15-.6h0l1.15-.59h0l1.15-.58h0l1.15-.58h0l1.15-.57h0l1.15-.57h0l1.15-.56h0l1.15-.56h0l1.15-.55h0l1.15-.55h0l1.15-.55h0l1.15-.54h0l1.15-.54h0l1.15-.53h0l1.15-.53h0l1.15-.52h0l1.15-.52h0l1.15-.52h0l1.15-.51h0l1.15-.51h0l1.15-.5h0l1.15-.5h0l1.15-.5h0l1.15-.49h0l1.15-.49h0l1.15-.49h0l1.15-.48h0l1.15-.48h0l1.15-.48h0l1.15-.47h0l1.15-.47h0l1.15-.47h0l1.15-.46h0l1.15-.46h0l1.15-.46h0l1.15-.46h0l1.15-.45h0l1.15-.45h0l1.15-.45h0l1.15-.44h0l1.15-.44h0l1.15-.44h0l1.15-.44h0l1.15-.43h0l1.15-.43h0l1.15-.43h0l1.15-.43h0l1.15-.42h0l1.15-.42h0l1.15-.42h0l1.15-.42h0l1.15-.41h0l1.15-.41h0l1.15-.41h0l1.15-.41h0l1.15-.41h0l1.15-.4h0l1.15-.4h0l1.15-.4h0l1.15-.4h0l1.15-.39h0l1.15-.39h0l1.15-.39h0l1.15-.39h0l1.15-.39h0l1.15-.39h0l1.15-.38h0l1.15-.38h0l1.15-.38h0l1.15-.38h0l1.15-.38h0l1.15-.37h0l1.15-.37h0l1.15-.37h0l1.15-.37h0l1.15-.37h0l1.15-.37h0l1.15-.36h0l1.15-.36h0l1.15-.36h0l1.15-.36h0l1.15-.36h0l1.15-.36h0l1.15-.35h0l1.15-.35h0l1.15-.35h0l1.15-.35h0l1.15-.35h0l1.15-.35h0l1.15-.35h0l1.15-.34h0l1.15-.34h0l1.15-.34h0l1.15-.34h0l1.15-.34h0l1.15-.34h0l1.15-.34h0l1.15-.33h0l1.15-.33h0l1.15-.33h0l1.15-.33h0l1.15-.33h0l1.15-.33h0l1.15-.33h0l1.15-.33h0l1.15-.32h0l1.15-.32h0l1.15-.32h0l1.15-.32h0l1.15-.32h0l1.15-.32h0l1.15-.32h0l1.15-.32h0l1.15-.31h0l1.15-.31h0l1.15-.31h0l1.15-.31h0l1.15-.31h0l1.15-.31h0l1.15-.31h0l1.15-.31h0l1.15-.31h0l1.15-.3h0l1.15-.3h0l1.15-.3h0l1.15-.3h0l1.15-.3h0l1.15-.3h0l1.15-.3h0l1.15-.3h0l1.15-.3h0l1.15-.3h0l1.15-.29h0l1.15-.29h0l1.15-.29h0l1.15-.29h0l1.15-.29h0l1.15-.29h0l1.15-.29h0l1.15-.29h0l1.15-.29h0l1.15-.29h0l1.15-.29h0l1.15-.28h0l1.15-.28h0l1.15-.28h0l1.15-.28h0l1.15-.28h0l1.15-.28h0l1.15-.28h0l1.15-.28h0l1.15-.28h0l1.15-.28h0l1.15-.28h0l1.15-.27h0l1.15-.27h0l1.15-.27h0l1.15-.27h0l1.15-.27h0l1.15-.27h0l1.15-.27h0l1.15-.27h0l1.15-.27h0l1.15-.27h0l1.15-.27h0l1.15-.27h0l1.15-.27h0l1.15-.26h0l1.15-.26h0l1.15-.26h0l1.15-.26h0l1.15-.26h0l1.15-.26h0l1.15-.26h0l1.15-.26h0l1.15-.26h0l1.15-.26h0l1.15-.26h0l1.15-.26h0l1.15-.26h0l1.15-.26h0l1.15-.25h0l1.15-.25h0l1.15-.25h0l1.15-.25h0l1.15-.25h0l1.15-.25h0l1.15-.25h0l1.15-.25h0l1.15-.25h0l1.15-.25h0l1.15-.25h0l1.15-.25h0l1.15-.25h0l1.15-.25h0l1.15-.25h0l1.15-.25h0l1.15-.24h0l1.15-.24h0l1.15-.24h0l1.15-.24h0l1.15-.24h0l1.15-.24h0l1.15-.24h0l1.15-.24h0l1.15-.24h0l1.15-.24h0l1.15-.24h0l1.15-.24h0l1.15-.24h0l1.15-.24h0l1.15-.24h0l1.15-.24h0l1.15-.24h0l1.15-.23h0l1.15-.23h0l1.15-.23h0l1.15-.23h0l1.15-.23h0l1.15-.23h0l1.15-.23h0l1.15-.23h0l1.15-.23h0l1.15-.23h0l1.15-.23h0l1.15-.23h0l1.15-.23h0l1.15-.23h0l1.15-.23h0l1.15-.23h0l1.15-.23h0l1.15-.23h0l1.15-.23h0l1.15-.22h0l1.15-.22h0l1.15-.22h0l1.15-.22h0l1.15-.22h0l1.15-.22h0l1.15-.22h0l1.15-.22h0l1.15-.22h0l1.15-.22h0l1.15-.22h0l1.15-.22h0l1.15-.22h0l1.15-.22h0l1.15-.22h0l1.15-.22h0l1.15-.22h0l1.15-.22h0l1.15-.22h0l1.15-.22h0l1.15-.22h0l1.15-.22h0l1.15-.21h0l1.15-.21h0l1.15-.21h0l1.15-.21h0l1.15-.21h0l1.15-.21h0l1.15-.21h0l1.15-.21h0l1.15-.21h0l1.15-.21h0l1.15-.21h0l1.15-.21h0l1.15-.21h0l1.15-.21h0l1.15-.21h0l1.15-.21h0l1.15-.21h0l1.15-.21h0l1.15-.21h0l1.15-.21h0l1.15-.21h0l1.15-.21h0l1.15-.21h0l1.15-.2h0l1.15-.2h0l1.15-.2h0l1.15-.2h0l1.15-.2h0l1.15-.2h0l1.15-.2h0l1.15-.2h0l1.15-.2h0l1.15-.2h0l1.15-.2h0l1.15-.2h0l1.15-.2h0l1.15-.2h0l1.15-.2h0l1.15-.2h0l1.15-.2h0l1.15-.2h0l1.15-.2h0l1.15-.2h0l1.15-.2h0l1.15-.2h0l1.15-.2h0l1.15-.2h0l1.15-.2h0l1.15-.2h0l1.15-.2h0l1.15-.2h0l1.15-.19h0l1.15-.19h0l1.15-.19h0l1.15-.19h0l1.15-.19h0l1.15-.19h0l1.15-.19h0l1.15-.19h0l1.15-.19h0l1.15-.19h0l1.15-.19h0l1.15-.19h0l1.15-.19h0l1.15-.19h0l1.15-.19h0l1.15-.19h0l1.15-.19h0l1.15-.19h0l1.15-.19h0l1.15-.19h0l1.15-.19h0l1.15-.19h0l1.15-.19h0l1.15-.19h0l1.15-.19h0l1.15-.19h0l1.15-.19h0l1.15-.19h0l1.15-.19h0l1.15-.19h0l1.15-.18h0l1.15-.18h0l1.15-.18h0l1.15-.18h0l1.15-.18h0l1.15-.18h0l1.15-.18h0l1.15-.18h0l1.15-.18h0l1.15-.18h0l1.15-.18h0l1.15-.18h0l1.15-.18h0l1.15-.18h0l1.15-.18h0l1.15-.18h0l1.15-.18h0l1.15-.18h0l1.15-.18h0l1.15-.18h0l1.15-.18h0l1.15-.18h0l1.15-.18h0l1.15-.18h0l1.15-.18h0l1.15-.18h0l1.15-.18h0l1.15-.18h0l1.15-.18h0l1.15-.18h0l1.15-.18h0l1.15-.18h0l1.15-.18h0l1.15-.18h0l1.15-.18h0l1.15-.18h0l1.15-.17h0l1.15-.17h0l1.15-.17h0l1.15-.17h0l1.15-.17h0l1.15-.17h0l1.15-.17h0l1.15-.17h0l1.15-.17h0l1.15-.17h0l1.15-.17h0l1.15-.17h0l1.15-.17h0l1.15-.17h0l1.15-.17h0l1.15-.17h0l1.15-.17h0l1.15-.17h0l1.15-.17h0l1.15-.17h0l1.15-.17h0l1.15-.17h0l1.15-.17h0l1.15-.17h0l1.15-.17h0l1.15-.17h0l1.15-.17h0l1.15-.17h0l1.15-.17h0l1.15-.17h0l1.15-.17h0l1.15-.17h0l1.15-.17h0l1.15-.17h0l1.15-.17h0l1.15-.17h0l1.15-.17h0l1.15-.17h0l1.15-.17h0l1.15-.17h0l1.15-.16h0l1.15-.16h0l1.15-.16h0l1.15-.16h0l1.15-.16h0l1.15-.16h0l1.15-.16h0l1.15-.16h0l1.15-.16h0l1.15-.16h0l1.15-.16h0l1.15-.16h0l1.15-.16h0l1.15-.16h0l1.15-.16h0l1.15-.16h0l1.15-.16h0l1.15-.16h0l1.15-.16h0l1.15-.16h0l1.15-.16h0l1.15-.16h0l1.15-.16h0l1.15-.16h0l1.15-.16h0l1.15-.16h0l1.15-.16h0l1.15-.16h0l1.15-.16h0l1.15-.16h0l1.15-.16h0l1.15-.16h0l1.15-.16h0l1.15-.16h0l1.15-.16h0l1.15-.16h0l1.15-.16h0l1.15-.16h0l1.15-.16h0l1.15-.16h0l1.15-.16h0l1.15-.16h0l1.15-.16h0l1.15-.16h0l1.15-.16h0l1.15-.16h0l1.15-.16h0l1.15-.16h0l1.15-.15h0l1.15-.15h0l1.15-.15h0l1.15-.15h0l1.15-.15h0l1.15-.15h0l1.15-.15h0l1.15-.15h0l1.15-.15h0l1.15-.15h0l1.15-.15h0l1.15-.15h0l1.15-.15h0l1.15-.15h0l1.15-.15h0l1.15-.15h0l1.15-.15h0l1.15-.15h0l1.15-.15h0l1.15-.15h0l1.15-.15h0l1.15-.15h0l1.15-.15h0l1.15-.15h0l1.15-.15h0l1.15-.15h0l1.15-.15h0l1.15-.15h0l1.15-.15h0l1.15-.15h0l1.15-.15h0l1.15-.15h0l1.15-.15h0l1.15-.15h0l1.15-.15h0l1.15-.15h0l1.15-.15h0l1.15-.15h0l1.15-.15h0l1.15-.15h0l1.15-.15h0l1.15-.15h0l1.15-.15h0l1.15-.15h0l1.15-.15h0l1.15-.15h0l1.15-.15h0l1.15-.15h0l1.15-.15h0l1.15-.15h0l1.15-.15h0l1.15-.15h0l1.15-.15h0l1.15-.15h0l1.15-.15h0l1.15-.15h0l1.15-.14h0l1.15-.14h0l1.15-.14h0l1.15-.14h0l1.15-.14h0l1.15-.14h0l1.15-.14h0l1.15-.14h0l1.15-.14h0l1.15-.14h0l1.15-.14h0l1.15-.14h0l1.15-.14h0l1.15-.14h0l1.15-.14h0l1.15-.14h0l1.15-.14h0l1.15-.14h0l1.15-.14h0l1.15-.14h0l1.15-.14h0l1.15-.14h0l1.15-.14h0l1.15-.14h0l1.15-.14h0l1.15-.14h0l1.15-.14h0l1.15-.14h0l1.15-.14h0l1.15-.14h0l1.15-.14h0l1.15-.14h0l1.15-.14h0l1.15-.14h0l1.15-.14h0l1.15-.14h0l1.15-.14h0l1.15-.14h0l1.15-.14h0l1.15-.14h0l1.15-.14h0l1.15-.14h0l1.15-.14h0l1.15-.14h0l1.15-.14h0l1.15-.14h0l1.15-.14h0l1.15-.14h0l1.15-.14h0l1.15-.14h0l1.15-.14h0l1.15-.14h0l1.15-.14h0l1.15-.14h0l1.15-.14h0l1.15-.14h0l1.15-.14h0l1.15-.14h0l1.15-.14h0l1.15-.14h0l1.15-.14h0l1.15-.14h0l1.15-.14h0l1.15-.14h0l1.15-.14h0l1.15-.14h0l1.15-.13h0l1.15-.13h0l1.15-.13h0l1.15-.13h0l1.15-.13h0l1.15-.13h0l1.15-.13h0l1.15-.13h0l1.15-.13h0l1.15-.13h0l1.15-.13h0l1.15-.13h0l1.15-.13h0l1.15-.13h0l1.15-.13h0l1.15-.13h0l1.15-.13h0l1.15-.13h0l1.15-.13h0l1.15-.13h0l1.15-.13h0l1.15-.13h0l1.15-.13h0l1.15-.13h0l1.15-.13h0l1.15-.13h0l1.15-.13h0l1.15-.13h0l1.15-.13h0l1.15-.13h0l1.15-.13h0l1.15-.13h0l1.15-.13h0l1.15-.13h0l1.15-.13h0l1.15-.13h0l1.15-.13h0l1.15-.13h0l1.15-.13h0l1.15-.13h0l1.15-.13h0l1.15-.13h0l1.15-.13h0l1.15-.13h0l1.15-.13h0l1.15-.13h0l1.15-.13h0l1.15-.13h0l1.15-.13h0l1.15-.13h0l1.15-.13h0l1.15-.13h0l1.15-.13h0l1.15-.13h0l1.15-.13h0l1.15-.13h0l1.15-.13h0l1.15-.13h0l1.15-.13h0l1.15-.13h0l1.15-.13h0l1.15-.13h0l1.15-.13h0l1.15-.13h0l1.15-.13h0l1.15-.13h0l1.15-.13h0l1.15-.13h0l1.15-.13h0l1.15-.13h0l1.15-.13h0l1.15-.13h0l1.15-.13h0l1.15-.13h0l1.15-.13h0l1.15-.13h0l1.15-.13h0l1.15-.13h0l1.15-.13h0l1.15-.13h0l1.15-.12h0l1.15-.12h0l1.15-.12h0l1.15-.12h0l1.15-.12h0l1.15-.12h0l1.15-.12h0l1.15-.12h0l1.15-.12h0l1.15-.12h0l1.15-.12h0l1.15-.12h0l1.15-.12h0l1.15-.12h0l1.15-.12h0l1.15-.12h0l1.15-.12h0l1.15-.12h0l1.15-.12h0l1.15-.12h0l1.15-.12h0l1.15-.12h0l1.15-.12h0l1.15-.12h0l1.15-.12h0l1.15-.12h0l1.15-.12h0l1.15-.12h0l1.15-.12h0l1.15-.12h0l1.15-.12h0l1.15-.12h0l1.15-.12h0l1.15-.12h0l1.15-.12h0l1.15-.12h0l1.15-.12h0l1.15-.12h0l1.15-.12h0l1.15-.12h0l1.15-.12h0l1.15-.12h0l1.15-.12h0l1.15-.12h0l1.15-.12h0l1.15-.12h0l1.15-.12h0l1.15-.12h0l1.15-.12h0l1.15-.12h0l1.15-.12h0l1.15-.12h0l1.15-.12h0l1.15-.12h0l1.15-.12h0l1.15-.12h0l1.15-.12h0l1.15-.12h0l1.15-.12h0l1.15-.12h0l1.15-.12h0l1.15-.12h0l1.15-.12h0l1.15-.12h0l1.15-.12h0l1.15-.12h0l1.15-.12h0l1.15-.12h0l1.15-.12h0l1.15-.12h0l1.15-.12h0l1.15-.12h0l1.15-.12h0l1.15-.12h0l1.15-.12h0l1.15-.12h0l1.15-.12h0l1.15-.12h0l1.15-.12h0l1.15-.12h0l1.15-.12h0l1.15-.12h0l1.15-.12h0l1.15-.12h0l1.15-.12h0l1.15-.12h0l1.15-.12h0l1.15-.12h0l1.15-.12h0l1.15-.12h0l1.15-.12h0l1.15-.12h0l1.15-.12h0l1.15-.12h0l1.15-.12h0l1.15-.12h0l1.15-.12h0l1.15-.11h0l1.15-.11h0l1.15-.11h0l1.15-.11h0l1.15-.11h0l1.15-.11h0l1.15-.11h0l1.15-.11h0l1.15-.11h0l1.15-.11h0l1.15-.11h0l1.15-.11h0l1.15-.11h0l1.15-.11h0l1.15-.11h0l1.15-.11h0l1.15-.11h0l1.15-.11h0l1.15-.11h0l1.15-.11h0l1.15-.11h0l1.15-.11h0l1.15-.11h0l1.15-.11h0l1.15-.11h0l1.15-.11h0l1.15-.11h0l1.15-.11h0l1.15-.11h0l1.15-.11h0l1.15-.11h0l1.15-.11h0l1.15-.11h0l1.15-.11h0l1.15-.11h0l1.15-.11h0l1.15-.11h0l1.15-.11h0l1.15-.11h0l1.15-.11h0l1.15-.11h0l1.15-.11h0l1.15-.11h0l1.15-.11h0l1.15-.11h0l1.15-.11h0l1.15-.11h0l1.15-.11h0l1.15-.11h0l1.15-.11h0l1.15-.11h0l1.15-.11h0l1.15-.11h0l1.15-.11h0l1.15-.11h0l1.15-.11h0l1.15-.11h0l1.15-.11h0l1.15-.11h0l1.15-.11h0l1.15-.11h0l1.15-.11h0l1.15-.11h0l1.15-.11h0l1.15-.11h0l1.15-.11h0l1.15-.11h0l1.15-.11h0l1.15-.11h0l1.15-.11h0l1.15-.11h0l1.15-.11h0l1.15-.11h0l1.15-.11h0l1.15-.11h0l1.15-.11h0l1.15-.11h0l1.15-.11h0l1.15-.11h0l1.15-.11h0l1.15-.11h0l1.15-.11h0l1.15-.11h0l1.15-.11h0l1.15-.11h0l1.15-.11h0l1.15-.11h0l1.15-.11h0l1.15-.11h0l1.15-.11h0l1.15-.11h0l1.15-.11h0l1.15-.11h0l1.15-.11h0l1.15-.11h0l1.15-.11h0l1.15-.11h0l1.15-.11h0l1.15-.11h0l1.15-.11h0l1.15-.11h0l1.15-.11h0l1.15-.11h0l1.15-.11h0l1.15-.11h0l1.15-.11h0l1.15-.11h0l1.15-.11h0l1.15-.11h0l1.15-.11h0l1.15-.11h0l1.15-.11h0l1.15-.11h0l1.15-.11h0l1.15-.11h0l1.15-.11h0l1.15-.11h0l1.15-.11h0l1.15-.11h0l1.15-.11h0l1.15-.11h0l1.15-.11h0l1.15-.1h0l1.15-.1h0l1.15-.1h0l1.15-.1h0l1.15-.1h0l1.15-.1h0l1.15-.1h0l1.15-.1h0l1.15-.1h0l1.15-.1h0l1.15-.1h0l1.15-.1h0l1.15-.1h0l1.15-.1h0l1.15-.1h0l1.15-.1h0l1.15-.1h0l1.15-.1h0l1.15-.1h0l1.15-.1h0l1.15-.1h0l1.15-.1h0l1.15-.1h0l1.15-.1h0l1.15-.1h0l1.15-.1h0l1.15-.1h0l1.15-.1h0l1.15-.1h0l1.15-.1h0l1.15-.1h0l1.15-.1h0l1.15-.1h0l1.15-.1h0l1.15-.1h0l1.15-.1h0l1.15-.1h0l1.15-.1h0l1.15-.1h0l1.15-.1h0l1.15-.1h0l1.15-.1h0l1.15-.1h0l1.15-.1h0l1.15-.1h0l1.15-.1h0l1.15-.1h0l1.15-.1h0l1.15-.1h0l1.15-.1h0l1.15-.1h0l1.15-.1h0l1.15-.1h0l1.15-.1h0l1.15-.1h0l1.15-.1h0l1.15-.1h0l1.15-.1h0l1.15-.1"/>
        </g>
      </g>
    </g>
  </g>
  <g id="uuid-cd8aa23a-a7ad-439f-8c8a-7cb4e55e78b9" data-name="Marco">
    <path class="uuid-4b860064-1749-4f4e-a720-29123041e4aa" d="m0-2V1022h1680V-2H0Zm1663,987c0,11.05-8.95,20-20,20H37c-11.05,0-20-8.95-20-20V35c0-11.05,8.95-20,20-20h1606c11.05,0,20,8.95,20,20v950Z"/>
  </g>
</svg>