<?xml version="1.0" encoding="UTF-8"?>
<svg xmlns="http://www.w3.org/2000/svg" width="1680" height="1020" xmlns:xlink="http://www.w3.org/1999/xlink" viewBox="0 0 1680 1020">
  <defs>
    <style>
      .uuid-b6915095-cce0-4d21-90aa-df0b9095240e {
        stroke: rgba(192, 192, 192, .24);
      }

      .uuid-b6915095-cce0-4d21-90aa-df0b9095240e, .uuid-4768c0a8-f697-4a6e-a5b9-d3bcdb1d612d, .uuid-8aec1a08-3126-41d3-9f2d-ab9f8ecb9ce1, .uuid-14386cfc-55c1-472f-8916-52338654487e, .uuid-a70dbabd-8bd4-488f-a9b7-6c1ced9bfc06, .uuid-25669906-83d9-4502-986a-8bdcfdac43cb, .uuid-7a51d828-a8c4-4a49-8dfb-37f260d146df, .uuid-8918ecd3-bad4-4a02-a559-b30f450cce64, .uuid-e1872d1b-5ef1-49f1-aa4e-cc0814ca129a {
        fill: none;
      }

      .uuid-b6915095-cce0-4d21-90aa-df0b9095240e, .uuid-8aec1a08-3126-41d3-9f2d-ab9f8ecb9ce1, .uuid-25669906-83d9-4502-986a-8bdcfdac43cb {
        stroke-linejoin: round;
      }

      .uuid-b6915095-cce0-4d21-90aa-df0b9095240e, .uuid-25669906-83d9-4502-986a-8bdcfdac43cb {
        stroke-dasharray: 0 0 1.15 3.44;
        stroke-width: 1.15px;
      }

      .uuid-132223d8-bfc9-4dbb-9958-fac32e7ab52e {
        fill: #fff;
      }

      .uuid-4768c0a8-f697-4a6e-a5b9-d3bcdb1d612d {
        clip-path: url(#uuid-c0209982-be6f-403b-9a6b-cf51ebb582a7);
      }

      .uuid-8aec1a08-3126-41d3-9f2d-ab9f8ecb9ce1 {
        stroke: rgba(255, 85, 0, .7);
        stroke-linecap: round;
        stroke-width: 4.59px;
      }

      .uuid-14386cfc-55c1-472f-8916-52338654487e {
        stroke: #606060;
        stroke-miterlimit: 10;
        stroke-width: 2.29px;
      }

      .uuid-e7aed9d0-6a50-4fee-8f5a-225db5f6d371 {
        fill: #333;
      }

      .uuid-a70dbabd-8bd4-488f-a9b7-6c1ced9bfc06 {
        clip-path: url(#uuid-5ec14c98-841b-4771-b018-aa18423182bd);
      }

      .uuid-25669906-83d9-4502-986a-8bdcfdac43cb {
        stroke: silver;
      }

      .uuid-7a51d828-a8c4-4a49-8dfb-37f260d146df {
        stroke: #fff;
        stroke-linejoin: bevel;
        stroke-width: 3.44px;
      }

      .uuid-8918ecd3-bad4-4a02-a559-b30f450cce64 {
        isolation: isolate;
      }

      .uuid-079037ab-1a46-4b13-a34c-8c0c2444d507 {
        fill: #00699b;
      }

      .uuid-01f4def5-3884-430a-bbac-130b8b8016ed, .uuid-06de5be4-52a9-4de6-9388-7fa0f3c7dbac {
        fill: #606060;
      }

      .uuid-06de5be4-52a9-4de6-9388-7fa0f3c7dbac {
        fill-rule: evenodd;
      }
    </style>
    <clipPath id="uuid-c0209982-be6f-403b-9a6b-cf51ebb582a7">
      <rect class="uuid-e1872d1b-5ef1-49f1-aa4e-cc0814ca129a" y="2.61" width="1680" height="1019.39"/>
    </clipPath>
    <clipPath id="uuid-5ec14c98-841b-4771-b018-aa18423182bd">
      <rect class="uuid-e1872d1b-5ef1-49f1-aa4e-cc0814ca129a" x="-3" y="-7.83" width="1686" height="1040.27"/>
    </clipPath>
  </defs>
  <g id="uuid-a36c3bbc-b4c8-483a-a396-e1772c6487bd" data-name="Grafica">
    <g class="uuid-4768c0a8-f697-4a6e-a5b9-d3bcdb1d612d">
      <g class="uuid-a70dbabd-8bd4-488f-a9b7-6c1ced9bfc06">
        <g>
          <rect class="uuid-132223d8-bfc9-4dbb-9958-fac32e7ab52e" x="-3" y="-7.83" width="1686" height="1040.27"/>
          <path class="uuid-25669906-83d9-4502-986a-8bdcfdac43cb" d="m9.04-7.26v1040.27M9.04-7.26v1040.27M286.6-7.26v1040.27M564.16-7.26v1040.27M1119.28-7.26v1040.27M1395.69-7.26v1040.27M1673.25-7.26v1040.27"/>
          <path class="uuid-b6915095-cce0-4d21-90aa-df0b9095240e" d="m65.24-7.26v1040.27M120.3-7.26v1040.27M175.35-7.26v1040.27M231.55-7.26v1040.27M341.66-7.26v1040.27M397.86-7.26v1040.27M452.91-7.26v1040.27M507.96-7.26v1040.27M619.21-7.26v1040.27M675.41-7.26v1040.27M730.47-7.26v1040.27M785.52-7.26v1040.27M896.77-7.26v1040.27M951.83-7.26v1040.27M1008.03-7.26v1040.27M1063.08-7.26v1040.27M1174.33-7.26v1040.27M1229.39-7.26v1040.27M1285.59-7.26v1040.27M1340.64-7.26v1040.27M1451.89-7.26v1040.27M1506.94-7.26v1040.27M1563.14-7.26v1040.27M1618.2-7.26v1040.27"/>
          <path class="uuid-25669906-83d9-4502-986a-8bdcfdac43cb" d="m-2.43,98.26h1686M-2.43,98.26h1686M-2.43,237.04h1686M-2.43,375.82h1686M-2.43,653.38h1686M-2.43,792.16h1686M-2.43,930.94h1686"/>
          <path class="uuid-b6915095-cce0-4d21-90aa-df0b9095240e" d="m-2.43,15.68h1686M-2.43,15.68h1686M-2.43,43.21h1686M-2.43,70.73h1686M-2.43,125.79h1686M-2.43,153.31h1686M-2.43,181.99h1686M-2.43,209.51h1686M-2.43,264.57h1686M-2.43,292.09h1686M-2.43,320.77h1686M-2.43,348.29h1686M-2.43,403.35h1686M-2.43,430.87h1686M-2.43,459.55h1686M-2.43,487.07h1686M-2.43,542.13h1686M-2.43,569.65h1686M-2.43,597.18h1686M-2.43,625.85h1686M-2.43,680.9h1686M-2.43,708.43h1686M-2.43,735.96h1686M-2.43,764.63h1686M-2.43,819.68h1686M-2.43,847.21h1686M-2.43,874.74h1686M-2.43,903.41h1686M-2.43,958.46h1686M-2.43,985.99h1686M-2.43,1013.52h1686"/>
          <path class="uuid-14386cfc-55c1-472f-8916-52338654487e" d="m841.15-4.39v1036.83"/>
          <path class="uuid-06de5be4-52a9-4de6-9388-7fa0f3c7dbac" d="m841.42-5.54l-5.73,22.94h11.47"/>
          <path class="uuid-14386cfc-55c1-472f-8916-52338654487e" d="m-3,514.03h1682.56"/>
          <path class="uuid-06de5be4-52a9-4de6-9388-7fa0f3c7dbac" d="m1680.71,514.5l-22.94-5.73v11.47"/>
          <g class="uuid-8918ecd3-bad4-4a02-a559-b30f450cce64">
            <path class="uuid-01f4def5-3884-430a-bbac-130b8b8016ed" d="m8.47,528.55v.28H1.59v-.28h6.88Z"/>
            <path class="uuid-01f4def5-3884-430a-bbac-130b8b8016ed" d="m9.49,524.58c.15-.38.36-.7.64-.96.28-.26.62-.45,1.02-.58.4-.13.84-.19,1.33-.19.38,0,.74.04,1.09.12.35.08.66.22.94.4s.5.42.66.72c.17.29.25.65.25,1.06,0,.66-.19,1.17-.57,1.54-.38.37-.86.58-1.44.63v.03c.27.03.54.09.8.2s.5.26.7.45c.21.2.37.44.5.74.12.29.19.64.19,1.05,0,.44-.08.83-.25,1.17-.17.34-.4.63-.69.86-.29.23-.62.41-1,.53s-.79.18-1.22.18c-.53,0-1.01-.07-1.45-.22-.43-.15-.8-.36-1.1-.64-.3-.28-.53-.63-.68-1.04s-.21-.88-.17-1.42h.28c-.04.5.01.93.15,1.31.14.38.34.7.62.96s.61.45,1.02.58c.4.13.85.2,1.33.2.38,0,.74-.05,1.09-.16s.66-.26.92-.47c.27-.21.48-.47.64-.78.16-.31.24-.66.24-1.07s-.07-.75-.2-1.03c-.13-.28-.32-.52-.56-.7s-.53-.32-.85-.41c-.33-.09-.68-.15-1.07-.17h-.67v-.28h.67c.3,0,.6-.03.9-.1.3-.07.57-.18.81-.34.24-.16.43-.37.58-.63.15-.26.22-.58.22-.97,0-.38-.09-.69-.25-.95-.16-.26-.36-.46-.61-.63-.25-.16-.53-.28-.84-.34-.31-.07-.63-.1-.96-.1-.45,0-.86.06-1.22.17-.36.12-.67.29-.93.52-.26.23-.45.53-.58.87-.13.35-.2.76-.19,1.22h-.27c0-.51.06-.96.21-1.34Z"/>
          </g>
          <g class="uuid-8918ecd3-bad4-4a02-a559-b30f450cce64">
            <path class="uuid-7a51d828-a8c4-4a49-8dfb-37f260d146df" d="m8.47,528.55v.28H1.59v-.28h6.88Z"/>
            <path class="uuid-7a51d828-a8c4-4a49-8dfb-37f260d146df" d="m9.49,524.58c.15-.38.36-.7.64-.96.28-.26.62-.45,1.02-.58.4-.13.84-.19,1.33-.19.38,0,.74.04,1.09.12.35.08.66.22.94.4s.5.42.66.72c.17.29.25.65.25,1.06,0,.66-.19,1.17-.57,1.54-.38.37-.86.58-1.44.63v.03c.27.03.54.09.8.2s.5.26.7.45c.21.2.37.44.5.74.12.29.19.64.19,1.05,0,.44-.08.83-.25,1.17-.17.34-.4.63-.69.86-.29.23-.62.41-1,.53s-.79.18-1.22.18c-.53,0-1.01-.07-1.45-.22-.43-.15-.8-.36-1.1-.64-.3-.28-.53-.63-.68-1.04s-.21-.88-.17-1.42h.28c-.04.5.01.93.15,1.31.14.38.34.7.62.96s.61.45,1.02.58c.4.13.85.2,1.33.2.38,0,.74-.05,1.09-.16s.66-.26.92-.47c.27-.21.48-.47.64-.78.16-.31.24-.66.24-1.07s-.07-.75-.2-1.03c-.13-.28-.32-.52-.56-.7s-.53-.32-.85-.41c-.33-.09-.68-.15-1.07-.17h-.67v-.28h.67c.3,0,.6-.03.9-.1.3-.07.57-.18.81-.34.24-.16.43-.37.58-.63.15-.26.22-.58.22-.97,0-.38-.09-.69-.25-.95-.16-.26-.36-.46-.61-.63-.25-.16-.53-.28-.84-.34-.31-.07-.63-.1-.96-.1-.45,0-.86.06-1.22.17-.36.12-.67.29-.93.52-.26.23-.45.53-.58.87-.13.35-.2.76-.19,1.22h-.27c0-.51.06-.96.21-1.34Z"/>
          </g>
          <g class="uuid-8918ecd3-bad4-4a02-a559-b30f450cce64">
            <path class="uuid-01f4def5-3884-430a-bbac-130b8b8016ed" d="m8.47,528.55v.28H1.59v-.28h6.88Z"/>
            <path class="uuid-01f4def5-3884-430a-bbac-130b8b8016ed" d="m9.49,524.58c.15-.38.36-.7.64-.96.28-.26.62-.45,1.02-.58.4-.13.84-.19,1.33-.19.38,0,.74.04,1.09.12.35.08.66.22.94.4s.5.42.66.72c.17.29.25.65.25,1.06,0,.66-.19,1.17-.57,1.54-.38.37-.86.58-1.44.63v.03c.27.03.54.09.8.2s.5.26.7.45c.21.2.37.44.5.74.12.29.19.64.19,1.05,0,.44-.08.83-.25,1.17-.17.34-.4.63-.69.86-.29.23-.62.41-1,.53s-.79.18-1.22.18c-.53,0-1.01-.07-1.45-.22-.43-.15-.8-.36-1.1-.64-.3-.28-.53-.63-.68-1.04s-.21-.88-.17-1.42h.28c-.04.5.01.93.15,1.31.14.38.34.7.62.96s.61.45,1.02.58c.4.13.85.2,1.33.2.38,0,.74-.05,1.09-.16s.66-.26.92-.47c.27-.21.48-.47.64-.78.16-.31.24-.66.24-1.07s-.07-.75-.2-1.03c-.13-.28-.32-.52-.56-.7s-.53-.32-.85-.41c-.33-.09-.68-.15-1.07-.17h-.67v-.28h.67c.3,0,.6-.03.9-.1.3-.07.57-.18.81-.34.24-.16.43-.37.58-.63.15-.26.22-.58.22-.97,0-.38-.09-.69-.25-.95-.16-.26-.36-.46-.61-.63-.25-.16-.53-.28-.84-.34-.31-.07-.63-.1-.96-.1-.45,0-.86.06-1.22.17-.36.12-.67.29-.93.52-.26.23-.45.53-.58.87-.13.35-.2.76-.19,1.22h-.27c0-.51.06-.96.21-1.34Z"/>
          </g>
          <g class="uuid-8918ecd3-bad4-4a02-a559-b30f450cce64">
            <path class="uuid-01f4def5-3884-430a-bbac-130b8b8016ed" d="m286.03,528.55v.28h-6.88v-.28h6.88Z"/>
            <path class="uuid-01f4def5-3884-430a-bbac-130b8b8016ed" d="m293.09,532.38h-6.3c0-.39.07-.75.25-1.07.17-.32.4-.62.69-.9.28-.28.6-.55.96-.8.35-.25.7-.5,1.05-.75.36-.25.71-.5,1.05-.76.34-.26.64-.53.91-.81.27-.28.48-.58.64-.89.16-.32.24-.66.24-1.03s-.07-.69-.2-.97c-.13-.28-.31-.51-.54-.7-.23-.19-.5-.33-.82-.43s-.66-.14-1.04-.14c-.49,0-.9.07-1.25.22-.35.15-.63.35-.85.61-.22.26-.38.57-.48.94s-.15.76-.15,1.19h-.28c0-1.03.26-1.82.76-2.39s1.25-.85,2.25-.85c.4,0,.78.05,1.13.16s.65.26.91.48c.26.21.46.47.61.78s.23.68.23,1.1c0,.51-.14.98-.41,1.4-.28.42-.62.82-1.04,1.18-.42.37-.87.71-1.36,1.04-.49.33-.94.65-1.37.98-.43.33-.79.66-1.09,1-.3.34-.47.72-.51,1.12h6.03v.28Z"/>
          </g>
          <g class="uuid-8918ecd3-bad4-4a02-a559-b30f450cce64">
            <path class="uuid-7a51d828-a8c4-4a49-8dfb-37f260d146df" d="m286.03,528.55v.28h-6.88v-.28h6.88Z"/>
            <path class="uuid-7a51d828-a8c4-4a49-8dfb-37f260d146df" d="m293.09,532.38h-6.3c0-.39.07-.75.25-1.07.17-.32.4-.62.69-.9.28-.28.6-.55.96-.8.35-.25.7-.5,1.05-.75.36-.25.71-.5,1.05-.76.34-.26.64-.53.91-.81.27-.28.48-.58.64-.89.16-.32.24-.66.24-1.03s-.07-.69-.2-.97c-.13-.28-.31-.51-.54-.7-.23-.19-.5-.33-.82-.43s-.66-.14-1.04-.14c-.49,0-.9.07-1.25.22-.35.15-.63.35-.85.61-.22.26-.38.57-.48.94s-.15.76-.15,1.19h-.28c0-1.03.26-1.82.76-2.39s1.25-.85,2.25-.85c.4,0,.78.05,1.13.16s.65.26.91.48c.26.21.46.47.61.78s.23.68.23,1.1c0,.51-.14.98-.41,1.4-.28.42-.62.82-1.04,1.18-.42.37-.87.71-1.36,1.04-.49.33-.94.65-1.37.98-.43.33-.79.66-1.09,1-.3.34-.47.72-.51,1.12h6.03v.28Z"/>
          </g>
          <g class="uuid-8918ecd3-bad4-4a02-a559-b30f450cce64">
            <path class="uuid-01f4def5-3884-430a-bbac-130b8b8016ed" d="m286.03,528.55v.28h-6.88v-.28h6.88Z"/>
            <path class="uuid-01f4def5-3884-430a-bbac-130b8b8016ed" d="m293.09,532.38h-6.3c0-.39.07-.75.25-1.07.17-.32.4-.62.69-.9.28-.28.6-.55.96-.8.35-.25.7-.5,1.05-.75.36-.25.71-.5,1.05-.76.34-.26.64-.53.91-.81.27-.28.48-.58.64-.89.16-.32.24-.66.24-1.03s-.07-.69-.2-.97c-.13-.28-.31-.51-.54-.7-.23-.19-.5-.33-.82-.43s-.66-.14-1.04-.14c-.49,0-.9.07-1.25.22-.35.15-.63.35-.85.61-.22.26-.38.57-.48.94s-.15.76-.15,1.19h-.28c0-1.03.26-1.82.76-2.39s1.25-.85,2.25-.85c.4,0,.78.05,1.13.16s.65.26.91.48c.26.21.46.47.61.78s.23.68.23,1.1c0,.51-.14.98-.41,1.4-.28.42-.62.82-1.04,1.18-.42.37-.87.71-1.36,1.04-.49.33-.94.65-1.37.98-.43.33-.79.66-1.09,1-.3.34-.47.72-.51,1.12h6.03v.28Z"/>
          </g>
          <g class="uuid-8918ecd3-bad4-4a02-a559-b30f450cce64">
            <path class="uuid-01f4def5-3884-430a-bbac-130b8b8016ed" d="m563.59,528.55v.28h-6.88v-.28h6.88Z"/>
            <path class="uuid-01f4def5-3884-430a-bbac-130b8b8016ed" d="m567.66,523.38c-.29.39-.65.74-1.11,1.03s-.92.5-1.38.63v-.28c.28-.09.54-.19.76-.3.22-.11.43-.23.62-.37s.38-.29.56-.47c.18-.17.36-.37.56-.59h.3v9.36h-.28v-9h-.03Z"/>
          </g>
          <g class="uuid-8918ecd3-bad4-4a02-a559-b30f450cce64">
            <path class="uuid-7a51d828-a8c4-4a49-8dfb-37f260d146df" d="m563.59,528.55v.28h-6.88v-.28h6.88Z"/>
            <path class="uuid-7a51d828-a8c4-4a49-8dfb-37f260d146df" d="m567.66,523.38c-.29.39-.65.74-1.11,1.03s-.92.5-1.38.63v-.28c.28-.09.54-.19.76-.3.22-.11.43-.23.62-.37s.38-.29.56-.47c.18-.17.36-.37.56-.59h.3v9.36h-.28v-9h-.03Z"/>
          </g>
          <g class="uuid-8918ecd3-bad4-4a02-a559-b30f450cce64">
            <path class="uuid-01f4def5-3884-430a-bbac-130b8b8016ed" d="m563.59,528.55v.28h-6.88v-.28h6.88Z"/>
            <path class="uuid-01f4def5-3884-430a-bbac-130b8b8016ed" d="m567.66,523.38c-.29.39-.65.74-1.11,1.03s-.92.5-1.38.63v-.28c.28-.09.54-.19.76-.3.22-.11.43-.23.62-.37s.38-.29.56-.47c.18-.17.36-.37.56-.59h.3v9.36h-.28v-9h-.03Z"/>
          </g>
          <g class="uuid-8918ecd3-bad4-4a02-a559-b30f450cce64">
            <path class="uuid-01f4def5-3884-430a-bbac-130b8b8016ed" d="m1119.34,523.38c-.29.39-.65.74-1.11,1.03s-.92.5-1.38.63v-.28c.28-.09.54-.19.76-.3.22-.11.43-.23.62-.37s.38-.29.56-.47c.18-.17.36-.37.56-.59h.3v9.36h-.28v-9h-.03Z"/>
          </g>
          <g class="uuid-8918ecd3-bad4-4a02-a559-b30f450cce64">
            <path class="uuid-7a51d828-a8c4-4a49-8dfb-37f260d146df" d="m1119.34,523.38c-.29.39-.65.74-1.11,1.03s-.92.5-1.38.63v-.28c.28-.09.54-.19.76-.3.22-.11.43-.23.62-.37s.38-.29.56-.47c.18-.17.36-.37.56-.59h.3v9.36h-.28v-9h-.03Z"/>
          </g>
          <g class="uuid-8918ecd3-bad4-4a02-a559-b30f450cce64">
            <path class="uuid-01f4def5-3884-430a-bbac-130b8b8016ed" d="m1119.34,523.38c-.29.39-.65.74-1.11,1.03s-.92.5-1.38.63v-.28c.28-.09.54-.19.76-.3.22-.11.43-.23.62-.37s.38-.29.56-.47c.18-.17.36-.37.56-.59h.3v9.36h-.28v-9h-.03Z"/>
          </g>
          <g class="uuid-8918ecd3-bad4-4a02-a559-b30f450cce64">
            <path class="uuid-01f4def5-3884-430a-bbac-130b8b8016ed" d="m1399.89,532.38h-6.3c0-.39.07-.75.25-1.07.17-.32.4-.62.69-.9.28-.28.6-.55.96-.8.35-.25.7-.5,1.05-.75.36-.25.71-.5,1.05-.76.34-.26.64-.53.91-.81.27-.28.48-.58.64-.89.16-.32.24-.66.24-1.03s-.07-.69-.2-.97c-.13-.28-.31-.51-.54-.7-.23-.19-.5-.33-.82-.43s-.66-.14-1.04-.14c-.49,0-.9.07-1.25.22-.35.15-.63.35-.85.61-.22.26-.38.57-.48.94s-.15.76-.15,1.19h-.28c0-1.03.26-1.82.76-2.39s1.25-.85,2.25-.85c.4,0,.78.05,1.13.16s.65.26.91.48c.26.21.46.47.61.78s.23.68.23,1.1c0,.51-.14.98-.41,1.4-.28.42-.62.82-1.04,1.18-.42.37-.87.71-1.36,1.04-.49.33-.94.65-1.37.98-.43.33-.79.66-1.09,1-.3.34-.47.72-.51,1.12h6.03v.28Z"/>
          </g>
          <g class="uuid-8918ecd3-bad4-4a02-a559-b30f450cce64">
            <path class="uuid-7a51d828-a8c4-4a49-8dfb-37f260d146df" d="m1399.89,532.38h-6.3c0-.39.07-.75.25-1.07.17-.32.4-.62.69-.9.28-.28.6-.55.96-.8.35-.25.7-.5,1.05-.75.36-.25.71-.5,1.05-.76.34-.26.64-.53.91-.81.27-.28.48-.58.64-.89.16-.32.24-.66.24-1.03s-.07-.69-.2-.97c-.13-.28-.31-.51-.54-.7-.23-.19-.5-.33-.82-.43s-.66-.14-1.04-.14c-.49,0-.9.07-1.25.22-.35.15-.63.35-.85.61-.22.26-.38.57-.48.94s-.15.76-.15,1.19h-.28c0-1.03.26-1.82.76-2.39s1.25-.85,2.25-.85c.4,0,.78.05,1.13.16s.65.26.91.48c.26.21.46.47.61.78s.23.68.23,1.1c0,.51-.14.98-.41,1.4-.28.42-.62.82-1.04,1.18-.42.37-.87.71-1.36,1.04-.49.33-.94.65-1.37.98-.43.33-.79.66-1.09,1-.3.34-.47.72-.51,1.12h6.03v.28Z"/>
          </g>
          <g class="uuid-8918ecd3-bad4-4a02-a559-b30f450cce64">
            <path class="uuid-01f4def5-3884-430a-bbac-130b8b8016ed" d="m1399.89,532.38h-6.3c0-.39.07-.75.25-1.07.17-.32.4-.62.69-.9.28-.28.6-.55.96-.8.35-.25.7-.5,1.05-.75.36-.25.71-.5,1.05-.76.34-.26.64-.53.91-.81.27-.28.48-.58.64-.89.16-.32.24-.66.24-1.03s-.07-.69-.2-.97c-.13-.28-.31-.51-.54-.7-.23-.19-.5-.33-.82-.43s-.66-.14-1.04-.14c-.49,0-.9.07-1.25.22-.35.15-.63.35-.85.61-.22.26-.38.57-.48.94s-.15.76-.15,1.19h-.28c0-1.03.26-1.82.76-2.39s1.25-.85,2.25-.85c.4,0,.78.05,1.13.16s.65.26.91.48c.26.21.46.47.61.78s.23.68.23,1.1c0,.51-.14.98-.41,1.4-.28.42-.62.82-1.04,1.18-.42.37-.87.71-1.36,1.04-.49.33-.94.65-1.37.98-.43.33-.79.66-1.09,1-.3.34-.47.72-.51,1.12h6.03v.28Z"/>
          </g>
          <g class="uuid-8918ecd3-bad4-4a02-a559-b30f450cce64">
            <path class="uuid-01f4def5-3884-430a-bbac-130b8b8016ed" d="m825.09,932.27v.28h-6.88v-.28h6.88Z"/>
            <path class="uuid-01f4def5-3884-430a-bbac-130b8b8016ed" d="m826.11,928.3c.15-.38.36-.7.64-.96.28-.26.62-.45,1.02-.58.4-.13.84-.19,1.33-.19.38,0,.74.04,1.09.12.35.08.66.22.94.4s.5.42.66.72c.17.29.25.65.25,1.06,0,.66-.19,1.17-.57,1.54-.38.37-.86.58-1.44.63v.03c.27.03.54.09.8.2s.5.26.7.45c.21.2.37.44.5.74.12.29.19.64.19,1.05,0,.44-.08.83-.25,1.17-.17.34-.4.63-.69.86-.29.23-.62.41-1,.53s-.79.18-1.22.18c-.53,0-1.01-.07-1.45-.22-.43-.15-.8-.36-1.1-.64-.3-.28-.53-.63-.68-1.04s-.21-.88-.17-1.42h.28c-.04.5.01.93.15,1.31.14.38.34.7.62.96s.61.45,1.02.58c.4.13.85.2,1.33.2.38,0,.74-.05,1.09-.16s.66-.26.92-.47c.27-.21.48-.47.64-.78.16-.31.24-.66.24-1.07s-.07-.75-.2-1.03c-.13-.28-.32-.52-.56-.7s-.53-.32-.85-.41c-.33-.09-.68-.15-1.07-.17h-.67v-.28h.67c.3,0,.6-.03.9-.1.3-.07.57-.18.81-.34.24-.16.43-.37.58-.63.15-.26.22-.58.22-.97,0-.38-.09-.69-.25-.95-.16-.26-.36-.46-.61-.63-.25-.16-.53-.28-.84-.34-.31-.07-.63-.1-.96-.1-.45,0-.86.06-1.22.17-.36.12-.67.29-.93.52-.26.23-.45.53-.58.87-.13.35-.2.76-.19,1.22h-.27c0-.51.06-.96.21-1.34Z"/>
          </g>
          <g class="uuid-8918ecd3-bad4-4a02-a559-b30f450cce64">
            <path class="uuid-7a51d828-a8c4-4a49-8dfb-37f260d146df" d="m825.09,932.27v.28h-6.88v-.28h6.88Z"/>
            <path class="uuid-7a51d828-a8c4-4a49-8dfb-37f260d146df" d="m826.11,928.3c.15-.38.36-.7.64-.96.28-.26.62-.45,1.02-.58.4-.13.84-.19,1.33-.19.38,0,.74.04,1.09.12.35.08.66.22.94.4s.5.42.66.72c.17.29.25.65.25,1.06,0,.66-.19,1.17-.57,1.54-.38.37-.86.58-1.44.63v.03c.27.03.54.09.8.2s.5.26.7.45c.21.2.37.44.5.74.12.29.19.64.19,1.05,0,.44-.08.83-.25,1.17-.17.34-.4.63-.69.86-.29.23-.62.41-1,.53s-.79.18-1.22.18c-.53,0-1.01-.07-1.45-.22-.43-.15-.8-.36-1.1-.64-.3-.28-.53-.63-.68-1.04s-.21-.88-.17-1.42h.28c-.04.5.01.93.15,1.31.14.38.34.7.62.96s.61.45,1.02.58c.4.13.85.2,1.33.2.38,0,.74-.05,1.09-.16s.66-.26.92-.47c.27-.21.48-.47.64-.78.16-.31.24-.66.24-1.07s-.07-.75-.2-1.03c-.13-.28-.32-.52-.56-.7s-.53-.32-.85-.41c-.33-.09-.68-.15-1.07-.17h-.67v-.28h.67c.3,0,.6-.03.9-.1.3-.07.57-.18.81-.34.24-.16.43-.37.58-.63.15-.26.22-.58.22-.97,0-.38-.09-.69-.25-.95-.16-.26-.36-.46-.61-.63-.25-.16-.53-.28-.84-.34-.31-.07-.63-.1-.96-.1-.45,0-.86.06-1.22.17-.36.12-.67.29-.93.52-.26.23-.45.53-.58.87-.13.35-.2.76-.19,1.22h-.27c0-.51.06-.96.21-1.34Z"/>
          </g>
          <g class="uuid-8918ecd3-bad4-4a02-a559-b30f450cce64">
            <path class="uuid-01f4def5-3884-430a-bbac-130b8b8016ed" d="m825.09,932.27v.28h-6.88v-.28h6.88Z"/>
            <path class="uuid-01f4def5-3884-430a-bbac-130b8b8016ed" d="m826.11,928.3c.15-.38.36-.7.64-.96.28-.26.62-.45,1.02-.58.4-.13.84-.19,1.33-.19.38,0,.74.04,1.09.12.35.08.66.22.94.4s.5.42.66.72c.17.29.25.65.25,1.06,0,.66-.19,1.17-.57,1.54-.38.37-.86.58-1.44.63v.03c.27.03.54.09.8.2s.5.26.7.45c.21.2.37.44.5.74.12.29.19.64.19,1.05,0,.44-.08.83-.25,1.17-.17.34-.4.63-.69.86-.29.23-.62.41-1,.53s-.79.18-1.22.18c-.53,0-1.01-.07-1.45-.22-.43-.15-.8-.36-1.1-.64-.3-.28-.53-.63-.68-1.04s-.21-.88-.17-1.42h.28c-.04.5.01.93.15,1.31.14.38.34.7.62.96s.61.45,1.02.58c.4.13.85.2,1.33.2.38,0,.74-.05,1.09-.16s.66-.26.92-.47c.27-.21.48-.47.64-.78.16-.31.24-.66.24-1.07s-.07-.75-.2-1.03c-.13-.28-.32-.52-.56-.7s-.53-.32-.85-.41c-.33-.09-.68-.15-1.07-.17h-.67v-.28h.67c.3,0,.6-.03.9-.1.3-.07.57-.18.81-.34.24-.16.43-.37.58-.63.15-.26.22-.58.22-.97,0-.38-.09-.69-.25-.95-.16-.26-.36-.46-.61-.63-.25-.16-.53-.28-.84-.34-.31-.07-.63-.1-.96-.1-.45,0-.86.06-1.22.17-.36.12-.67.29-.93.52-.26.23-.45.53-.58.87-.13.35-.2.76-.19,1.22h-.27c0-.51.06-.96.21-1.34Z"/>
          </g>
          <g class="uuid-8918ecd3-bad4-4a02-a559-b30f450cce64">
            <path class="uuid-01f4def5-3884-430a-bbac-130b8b8016ed" d="m825.09,793.49v.28h-6.88v-.28h6.88Z"/>
            <path class="uuid-01f4def5-3884-430a-bbac-130b8b8016ed" d="m832.15,797.32h-6.3c0-.39.07-.75.25-1.07.17-.32.4-.62.69-.9.28-.28.6-.55.96-.8.35-.25.7-.5,1.05-.75.36-.25.71-.5,1.05-.76.34-.26.64-.53.91-.81.27-.28.48-.58.64-.89.16-.32.24-.66.24-1.03s-.07-.69-.2-.97c-.13-.28-.31-.51-.54-.7-.23-.19-.5-.33-.82-.43s-.66-.14-1.04-.14c-.49,0-.9.07-1.25.22-.35.15-.63.35-.85.61-.22.26-.38.57-.48.94s-.15.76-.15,1.19h-.28c0-1.03.26-1.82.76-2.39s1.25-.85,2.25-.85c.4,0,.78.05,1.13.16s.65.26.91.48c.26.21.46.47.61.78s.23.68.23,1.1c0,.51-.14.98-.41,1.4-.28.42-.62.82-1.04,1.18-.42.37-.87.71-1.36,1.04-.49.33-.94.65-1.37.98-.43.33-.79.66-1.09,1-.3.34-.47.72-.51,1.12h6.03v.28Z"/>
          </g>
          <g class="uuid-8918ecd3-bad4-4a02-a559-b30f450cce64">
            <path class="uuid-7a51d828-a8c4-4a49-8dfb-37f260d146df" d="m825.09,793.49v.28h-6.88v-.28h6.88Z"/>
            <path class="uuid-7a51d828-a8c4-4a49-8dfb-37f260d146df" d="m832.15,797.32h-6.3c0-.39.07-.75.25-1.07.17-.32.4-.62.69-.9.28-.28.6-.55.96-.8.35-.25.7-.5,1.05-.75.36-.25.71-.5,1.05-.76.34-.26.64-.53.91-.81.27-.28.48-.58.64-.89.16-.32.24-.66.24-1.03s-.07-.69-.2-.97c-.13-.28-.31-.51-.54-.7-.23-.19-.5-.33-.82-.43s-.66-.14-1.04-.14c-.49,0-.9.07-1.25.22-.35.15-.63.35-.85.61-.22.26-.38.57-.48.94s-.15.76-.15,1.19h-.28c0-1.03.26-1.82.76-2.39s1.25-.85,2.25-.85c.4,0,.78.05,1.13.16s.65.26.91.48c.26.21.46.47.61.78s.23.68.23,1.1c0,.51-.14.98-.41,1.4-.28.42-.62.82-1.04,1.18-.42.37-.87.71-1.36,1.04-.49.33-.94.65-1.37.98-.43.33-.79.66-1.09,1-.3.34-.47.72-.51,1.12h6.03v.28Z"/>
          </g>
          <g class="uuid-8918ecd3-bad4-4a02-a559-b30f450cce64">
            <path class="uuid-01f4def5-3884-430a-bbac-130b8b8016ed" d="m825.09,793.49v.28h-6.88v-.28h6.88Z"/>
            <path class="uuid-01f4def5-3884-430a-bbac-130b8b8016ed" d="m832.15,797.32h-6.3c0-.39.07-.75.25-1.07.17-.32.4-.62.69-.9.28-.28.6-.55.96-.8.35-.25.7-.5,1.05-.75.36-.25.71-.5,1.05-.76.34-.26.64-.53.91-.81.27-.28.48-.58.64-.89.16-.32.24-.66.24-1.03s-.07-.69-.2-.97c-.13-.28-.31-.51-.54-.7-.23-.19-.5-.33-.82-.43s-.66-.14-1.04-.14c-.49,0-.9.07-1.25.22-.35.15-.63.35-.85.61-.22.26-.38.57-.48.94s-.15.76-.15,1.19h-.28c0-1.03.26-1.82.76-2.39s1.25-.85,2.25-.85c.4,0,.78.05,1.13.16s.65.26.91.48c.26.21.46.47.61.78s.23.68.23,1.1c0,.51-.14.98-.41,1.4-.28.42-.62.82-1.04,1.18-.42.37-.87.71-1.36,1.04-.49.33-.94.65-1.37.98-.43.33-.79.66-1.09,1-.3.34-.47.72-.51,1.12h6.03v.28Z"/>
          </g>
          <g class="uuid-8918ecd3-bad4-4a02-a559-b30f450cce64">
            <path class="uuid-01f4def5-3884-430a-bbac-130b8b8016ed" d="m825.09,654.71v.28h-6.88v-.28h6.88Z"/>
            <path class="uuid-01f4def5-3884-430a-bbac-130b8b8016ed" d="m829.16,649.54c-.29.39-.65.74-1.11,1.03s-.92.5-1.38.63v-.28c.28-.09.54-.19.76-.3.22-.11.43-.23.62-.37s.38-.29.56-.47c.18-.17.36-.37.56-.59h.3v9.36h-.28v-9h-.03Z"/>
          </g>
          <g class="uuid-8918ecd3-bad4-4a02-a559-b30f450cce64">
            <path class="uuid-7a51d828-a8c4-4a49-8dfb-37f260d146df" d="m825.09,654.71v.28h-6.88v-.28h6.88Z"/>
            <path class="uuid-7a51d828-a8c4-4a49-8dfb-37f260d146df" d="m829.16,649.54c-.29.39-.65.74-1.11,1.03s-.92.5-1.38.63v-.28c.28-.09.54-.19.76-.3.22-.11.43-.23.62-.37s.38-.29.56-.47c.18-.17.36-.37.56-.59h.3v9.36h-.28v-9h-.03Z"/>
          </g>
          <g class="uuid-8918ecd3-bad4-4a02-a559-b30f450cce64">
            <path class="uuid-01f4def5-3884-430a-bbac-130b8b8016ed" d="m825.09,654.71v.28h-6.88v-.28h6.88Z"/>
            <path class="uuid-01f4def5-3884-430a-bbac-130b8b8016ed" d="m829.16,649.54c-.29.39-.65.74-1.11,1.03s-.92.5-1.38.63v-.28c.28-.09.54-.19.76-.3.22-.11.43-.23.62-.37s.38-.29.56-.47c.18-.17.36-.37.56-.59h.3v9.36h-.28v-9h-.03Z"/>
          </g>
          <g class="uuid-8918ecd3-bad4-4a02-a559-b30f450cce64">
            <path class="uuid-01f4def5-3884-430a-bbac-130b8b8016ed" d="m829.16,371.98c-.29.39-.65.74-1.11,1.03-.45.29-.92.5-1.38.63v-.28c.28-.09.54-.19.76-.3s.43-.23.62-.37.38-.29.56-.47.36-.37.56-.59h.3v9.36h-.28v-9h-.03Z"/>
          </g>
          <g class="uuid-8918ecd3-bad4-4a02-a559-b30f450cce64">
            <path class="uuid-7a51d828-a8c4-4a49-8dfb-37f260d146df" d="m829.16,371.98c-.29.39-.65.74-1.11,1.03-.45.29-.92.5-1.38.63v-.28c.28-.09.54-.19.76-.3s.43-.23.62-.37.38-.29.56-.47.36-.37.56-.59h.3v9.36h-.28v-9h-.03Z"/>
          </g>
          <g class="uuid-8918ecd3-bad4-4a02-a559-b30f450cce64">
            <path class="uuid-01f4def5-3884-430a-bbac-130b8b8016ed" d="m829.16,371.98c-.29.39-.65.74-1.11,1.03-.45.29-.92.5-1.38.63v-.28c.28-.09.54-.19.76-.3s.43-.23.62-.37.38-.29.56-.47.36-.37.56-.59h.3v9.36h-.28v-9h-.03Z"/>
          </g>
          <g class="uuid-8918ecd3-bad4-4a02-a559-b30f450cce64">
            <path class="uuid-01f4def5-3884-430a-bbac-130b8b8016ed" d="m832.15,242.2h-6.3c0-.39.07-.75.25-1.07.17-.32.4-.62.69-.9.28-.28.6-.55.96-.8.35-.25.7-.5,1.05-.75.36-.25.71-.5,1.05-.76.34-.26.64-.53.91-.81.27-.28.48-.58.64-.89.16-.32.24-.66.24-1.03s-.07-.69-.2-.97-.31-.51-.54-.7-.5-.33-.82-.43-.66-.14-1.04-.14c-.49,0-.9.07-1.25.22-.35.15-.63.35-.85.61-.22.26-.38.57-.48.94-.1.36-.15.76-.15,1.19h-.28c0-1.03.26-1.82.76-2.39s1.25-.85,2.25-.85c.4,0,.78.05,1.13.16s.65.26.91.47c.26.21.46.47.61.78s.23.68.23,1.1c0,.51-.14.98-.41,1.4-.28.42-.62.82-1.04,1.18-.42.37-.87.71-1.36,1.04s-.94.65-1.37.98c-.43.33-.79.66-1.09,1-.3.34-.47.72-.51,1.12h6.03v.28Z"/>
          </g>
          <g class="uuid-8918ecd3-bad4-4a02-a559-b30f450cce64">
            <path class="uuid-7a51d828-a8c4-4a49-8dfb-37f260d146df" d="m832.15,242.2h-6.3c0-.39.07-.75.25-1.07.17-.32.4-.62.69-.9.28-.28.6-.55.96-.8.35-.25.7-.5,1.05-.75.36-.25.71-.5,1.05-.76.34-.26.64-.53.91-.81.27-.28.48-.58.64-.89.16-.32.24-.66.24-1.03s-.07-.69-.2-.97-.31-.51-.54-.7-.5-.33-.82-.43-.66-.14-1.04-.14c-.49,0-.9.07-1.25.22-.35.15-.63.35-.85.61-.22.26-.38.57-.48.94-.1.36-.15.76-.15,1.19h-.28c0-1.03.26-1.82.76-2.39s1.25-.85,2.25-.85c.4,0,.78.05,1.13.16s.65.26.91.47c.26.21.46.47.61.78s.23.68.23,1.1c0,.51-.14.98-.41,1.4-.28.42-.62.82-1.04,1.18-.42.37-.87.71-1.36,1.04s-.94.65-1.37.98c-.43.33-.79.66-1.09,1-.3.34-.47.72-.51,1.12h6.03v.28Z"/>
          </g>
          <g class="uuid-8918ecd3-bad4-4a02-a559-b30f450cce64">
            <path class="uuid-01f4def5-3884-430a-bbac-130b8b8016ed" d="m832.15,242.2h-6.3c0-.39.07-.75.25-1.07.17-.32.4-.62.69-.9.28-.28.6-.55.96-.8.35-.25.7-.5,1.05-.75.36-.25.71-.5,1.05-.76.34-.26.64-.53.91-.81.27-.28.48-.58.64-.89.16-.32.24-.66.24-1.03s-.07-.69-.2-.97-.31-.51-.54-.7-.5-.33-.82-.43-.66-.14-1.04-.14c-.49,0-.9.07-1.25.22-.35.15-.63.35-.85.61-.22.26-.38.57-.48.94-.1.36-.15.76-.15,1.19h-.28c0-1.03.26-1.82.76-2.39s1.25-.85,2.25-.85c.4,0,.78.05,1.13.16s.65.26.91.47c.26.21.46.47.61.78s.23.68.23,1.1c0,.51-.14.98-.41,1.4-.28.42-.62.82-1.04,1.18-.42.37-.87.71-1.36,1.04s-.94.65-1.37.98c-.43.33-.79.66-1.09,1-.3.34-.47.72-.51,1.12h6.03v.28Z"/>
          </g>
          <g class="uuid-8918ecd3-bad4-4a02-a559-b30f450cce64">
            <path class="uuid-01f4def5-3884-430a-bbac-130b8b8016ed" d="m826.11,95.62c.15-.38.36-.7.64-.96.28-.26.62-.45,1.02-.58s.84-.19,1.33-.19c.38,0,.74.04,1.09.12.35.08.66.22.94.4s.5.42.66.72c.17.29.25.65.25,1.06,0,.66-.19,1.17-.57,1.54s-.86.58-1.44.63v.03c.27.03.54.09.8.2.26.11.5.26.7.45.21.2.37.44.5.74.12.29.19.64.19,1.05,0,.44-.08.83-.25,1.17-.17.34-.4.63-.69.86-.29.23-.62.41-1,.53s-.79.18-1.22.18c-.53,0-1.01-.07-1.45-.22s-.8-.36-1.1-.64c-.3-.28-.53-.63-.68-1.04-.15-.41-.21-.89-.17-1.42h.28c-.04.5.01.93.15,1.31s.34.7.62.96.61.45,1.02.58c.4.13.85.2,1.33.2.38,0,.74-.05,1.09-.16.35-.1.66-.26.92-.47.27-.21.48-.47.64-.78.16-.31.24-.66.24-1.07s-.07-.75-.2-1.03-.32-.52-.56-.7c-.24-.18-.53-.32-.85-.41-.33-.09-.68-.15-1.07-.17h-.67v-.27h.67c.3,0,.6-.03.9-.1.3-.07.57-.18.81-.34.24-.16.43-.37.58-.63.15-.26.22-.58.22-.97,0-.38-.09-.69-.25-.95-.16-.26-.36-.47-.61-.63-.25-.16-.53-.27-.84-.34-.31-.07-.63-.1-.96-.1-.45,0-.86.06-1.22.17s-.67.29-.93.52c-.26.23-.45.53-.58.87-.13.35-.2.76-.19,1.22h-.27c0-.51.06-.96.21-1.34Z"/>
          </g>
          <g class="uuid-8918ecd3-bad4-4a02-a559-b30f450cce64">
            <path class="uuid-7a51d828-a8c4-4a49-8dfb-37f260d146df" d="m826.11,95.62c.15-.38.36-.7.64-.96.28-.26.62-.45,1.02-.58s.84-.19,1.33-.19c.38,0,.74.04,1.09.12.35.08.66.22.94.4s.5.42.66.72c.17.29.25.65.25,1.06,0,.66-.19,1.17-.57,1.54s-.86.58-1.44.63v.03c.27.03.54.09.8.2.26.11.5.26.7.45.21.2.37.44.5.74.12.29.19.64.19,1.05,0,.44-.08.83-.25,1.17-.17.34-.4.63-.69.86-.29.23-.62.41-1,.53s-.79.18-1.22.18c-.53,0-1.01-.07-1.45-.22s-.8-.36-1.1-.64c-.3-.28-.53-.63-.68-1.04-.15-.41-.21-.89-.17-1.42h.28c-.04.5.01.93.15,1.31s.34.7.62.96.61.45,1.02.58c.4.13.85.2,1.33.2.38,0,.74-.05,1.09-.16.35-.1.66-.26.92-.47.27-.21.48-.47.64-.78.16-.31.24-.66.24-1.07s-.07-.75-.2-1.03-.32-.52-.56-.7c-.24-.18-.53-.32-.85-.41-.33-.09-.68-.15-1.07-.17h-.67v-.27h.67c.3,0,.6-.03.9-.1.3-.07.57-.18.81-.34.24-.16.43-.37.58-.63.15-.26.22-.58.22-.97,0-.38-.09-.69-.25-.95-.16-.26-.36-.47-.61-.63-.25-.16-.53-.27-.84-.34-.31-.07-.63-.1-.96-.1-.45,0-.86.06-1.22.17s-.67.29-.93.52c-.26.23-.45.53-.58.87-.13.35-.2.76-.19,1.22h-.27c0-.51.06-.96.21-1.34Z"/>
          </g>
          <g class="uuid-8918ecd3-bad4-4a02-a559-b30f450cce64">
            <path class="uuid-01f4def5-3884-430a-bbac-130b8b8016ed" d="m826.11,95.62c.15-.38.36-.7.64-.96.28-.26.62-.45,1.02-.58s.84-.19,1.33-.19c.38,0,.74.04,1.09.12.35.08.66.22.94.4s.5.42.66.72c.17.29.25.65.25,1.06,0,.66-.19,1.17-.57,1.54s-.86.58-1.44.63v.03c.27.03.54.09.8.2.26.11.5.26.7.45.21.2.37.44.5.74.12.29.19.64.19,1.05,0,.44-.08.83-.25,1.17-.17.34-.4.63-.69.86-.29.23-.62.41-1,.53s-.79.18-1.22.18c-.53,0-1.01-.07-1.45-.22s-.8-.36-1.1-.64c-.3-.28-.53-.63-.68-1.04-.15-.41-.21-.89-.17-1.42h.28c-.04.5.01.93.15,1.31s.34.7.62.96.61.45,1.02.58c.4.13.85.2,1.33.2.38,0,.74-.05,1.09-.16.35-.1.66-.26.92-.47.27-.21.48-.47.64-.78.16-.31.24-.66.24-1.07s-.07-.75-.2-1.03-.32-.52-.56-.7c-.24-.18-.53-.32-.85-.41-.33-.09-.68-.15-1.07-.17h-.67v-.27h.67c.3,0,.6-.03.9-.1.3-.07.57-.18.81-.34.24-.16.43-.37.58-.63.15-.26.22-.58.22-.97,0-.38-.09-.69-.25-.95-.16-.26-.36-.47-.61-.63-.25-.16-.53-.27-.84-.34-.31-.07-.63-.1-.96-.1-.45,0-.86.06-1.22.17s-.67.29-.93.52c-.26.23-.45.53-.58.87-.13.35-.2.76-.19,1.22h-.27c0-.51.06-.96.21-1.34Z"/>
          </g>
          <g class="uuid-8918ecd3-bad4-4a02-a559-b30f450cce64">
            <path class="uuid-01f4def5-3884-430a-bbac-130b8b8016ed" d="m832.28,529.44c-.12.58-.31,1.1-.58,1.56s-.64.83-1.09,1.11c-.45.28-1.01.42-1.69.42s-1.23-.14-1.69-.42c-.46-.28-.82-.65-1.09-1.11s-.47-.98-.58-1.56c-.11-.58-.17-1.16-.17-1.75s.06-1.17.17-1.75c.12-.58.31-1.1.58-1.55s.64-.83,1.09-1.12c.45-.28,1.02-.43,1.69-.43s1.24.14,1.69.43c.45.28.81.66,1.09,1.12s.47.98.58,1.55c.11.58.17,1.16.17,1.75s-.06,1.17-.17,1.75Zm-.25-3.34c-.1-.54-.28-1.03-.52-1.47-.25-.44-.58-.8-1-1.08-.42-.28-.95-.42-1.59-.42s-1.17.14-1.59.42c-.42.28-.75.64-1,1.08-.25.44-.42.93-.52,1.47-.1.54-.15,1.07-.15,1.6s.05,1.06.15,1.6c.1.54.28,1.03.52,1.47.25.44.58.8,1,1.08.42.28.95.42,1.59.42s1.17-.14,1.59-.42c.42-.28.75-.64,1-1.08.25-.44.42-.93.52-1.47.1-.54.15-1.07.15-1.6s-.05-1.05-.15-1.6Z"/>
          </g>
          <g class="uuid-8918ecd3-bad4-4a02-a559-b30f450cce64">
            <path class="uuid-7a51d828-a8c4-4a49-8dfb-37f260d146df" d="m832.28,529.44c-.12.58-.31,1.1-.58,1.56s-.64.83-1.09,1.11c-.45.28-1.01.42-1.69.42s-1.23-.14-1.69-.42c-.46-.28-.82-.65-1.09-1.11s-.47-.98-.58-1.56c-.11-.58-.17-1.16-.17-1.75s.06-1.17.17-1.75c.12-.58.31-1.1.58-1.55s.64-.83,1.09-1.12c.45-.28,1.02-.43,1.69-.43s1.24.14,1.69.43c.45.28.81.66,1.09,1.12s.47.98.58,1.55c.11.58.17,1.16.17,1.75s-.06,1.17-.17,1.75Zm-.25-3.34c-.1-.54-.28-1.03-.52-1.47-.25-.44-.58-.8-1-1.08-.42-.28-.95-.42-1.59-.42s-1.17.14-1.59.42c-.42.28-.75.64-1,1.08-.25.44-.42.93-.52,1.47-.1.54-.15,1.07-.15,1.6s.05,1.06.15,1.6c.1.54.28,1.03.52,1.47.25.44.58.8,1,1.08.42.28.95.42,1.59.42s1.17-.14,1.59-.42c.42-.28.75-.64,1-1.08.25-.44.42-.93.52-1.47.1-.54.15-1.07.15-1.6s-.05-1.05-.15-1.6Z"/>
          </g>
          <g class="uuid-8918ecd3-bad4-4a02-a559-b30f450cce64">
            <path class="uuid-01f4def5-3884-430a-bbac-130b8b8016ed" d="m832.28,529.44c-.12.58-.31,1.1-.58,1.56s-.64.83-1.09,1.11c-.45.28-1.01.42-1.69.42s-1.23-.14-1.69-.42c-.46-.28-.82-.65-1.09-1.11s-.47-.98-.58-1.56c-.11-.58-.17-1.16-.17-1.75s.06-1.17.17-1.75c.12-.58.31-1.1.58-1.55s.64-.83,1.09-1.12c.45-.28,1.02-.43,1.69-.43s1.24.14,1.69.43c.45.28.81.66,1.09,1.12s.47.98.58,1.55c.11.58.17,1.16.17,1.75s-.06,1.17-.17,1.75Zm-.25-3.34c-.1-.54-.28-1.03-.52-1.47-.25-.44-.58-.8-1-1.08-.42-.28-.95-.42-1.59-.42s-1.17.14-1.59.42c-.42.28-.75.64-1,1.08-.25.44-.42.93-.52,1.47-.1.54-.15,1.07-.15,1.6s.05,1.06.15,1.6c.1.54.28,1.03.52,1.47.25.44.58.8,1,1.08.42.28.95.42,1.59.42s1.17-.14,1.59-.42c.42-.28.75-.64,1-1.08.25-.44.42-.93.52-1.47.1-.54.15-1.07.15-1.6s-.05-1.05-.15-1.6Z"/>
          </g>
          <path class="uuid-8aec1a08-3126-41d3-9f2d-ab9f8ecb9ce1" d="m-1.85,4410.71v15.92-15.92l1.15-15.88h0l1.15-15.83H.44l1.15-15.79h0l1.15-15.75h0l1.15-15.7h0l1.15-15.66h0l1.15-15.62h0l1.15-15.58h0l1.15-15.53h0l1.15-15.49h0l1.15-15.45h0l1.15-15.4h0l1.15-15.36h0l1.15-15.32h0l1.15-15.28h0l1.15-15.23h0l1.15-15.19h0l1.15-15.15h0l1.15-15.11h0l1.15-15.07h0l1.15-15.02h0l1.15-14.98h0l1.15-14.94h0l1.15-14.9h0l1.15-14.86h0l1.15-14.81h0l1.15-14.77h0l1.15-14.73h0l1.15-14.69h0l1.15-14.65h0l1.15-14.61h0l1.15-14.56h0l1.15-14.52h0l1.15-14.48h0l1.15-14.44h0l1.15-14.4h0l1.15-14.36h0l1.15-14.32h0l1.15-14.28h0l1.15-14.24h0l1.15-14.19h0l1.15-14.15h0l1.15-14.11h0l1.15-14.07h0l1.15-14.03h0l1.15-13.99h0l1.15-13.95h0l1.15-13.91h0l1.15-13.87h0l1.15-13.83h0l1.15-13.79h0l1.15-13.75h0l1.15-13.71h0l1.15-13.67h0l1.15-13.63h0l1.15-13.59h0l1.15-13.55h0l1.15-13.51h0l1.15-13.47h0l1.15-13.43h0l1.15-13.39h0l1.15-13.35h0l1.15-13.31h0l1.15-13.27h0l1.15-13.23h0l1.15-13.19h0l1.15-13.15h0l1.15-13.11h0l1.15-13.07h0l1.15-13.03h0l1.15-13h0l1.15-12.96h0l1.15-12.92h0l1.15-12.88h0l1.15-12.84h0l1.15-12.8h0l1.15-12.76h0l1.15-12.72h0l1.15-12.68h0l1.15-12.65h0l1.15-12.61h0l1.15-12.57h0l1.15-12.53h0l1.15-12.49h0l1.15-12.45h0l1.15-12.42h0l1.15-12.38h0l1.15-12.34h0l1.15-12.3h0l1.15-12.26h0l1.15-12.22h0l1.15-12.19h0l1.15-12.15h0l1.15-12.11h0l1.15-12.07h0l1.15-12.04h0l1.15-12h0l1.15-11.96h0l1.15-11.92h0l1.15-11.89h0l1.15-11.85h0l1.15-11.81h0l1.15-11.77h0l1.15-11.74h0l1.15-11.7h0l1.15-11.66h0l1.15-11.63h0l1.15-11.59h0l1.15-11.55h0l1.15-11.52h0l1.15-11.48h0l1.15-11.44h0l1.15-11.4h0l1.15-11.37h0l1.15-11.33h0l1.15-11.3h0l1.15-11.26h0l1.15-11.22h0l1.15-11.19h0l1.15-11.15h0l1.15-11.11h0l1.15-11.08h0l1.15-11.04h0l1.15-11.01h0l1.15-10.97h0l1.15-10.93h0l1.15-10.9h0l1.15-10.86h0l1.15-10.83h0l1.15-10.79h0l1.15-10.76h0l1.15-10.72h0l1.15-10.68h0l1.15-10.65h0l1.15-10.61h0l1.15-10.58h0l1.15-10.54h0l1.15-10.51h0l1.15-10.47h0l1.15-10.44h0l1.15-10.4h0l1.15-10.37h0l1.15-10.33h0l1.15-10.3h0l1.15-10.26h0l1.15-10.23h0l1.15-10.19h0l1.15-10.16h0l1.15-10.12h0l1.15-10.09h0l1.15-10.06h0l1.15-10.02h0l1.15-9.99h0l1.15-9.95h0l1.15-9.92h0l1.15-9.88h0l1.15-9.85h0l1.15-9.82h0l1.15-9.78h0l1.15-9.75h0l1.15-9.71h0l1.15-9.68h0l1.15-9.65h0l1.15-9.61h0l1.15-9.58h0l1.15-9.55h0l1.15-9.51h0l1.15-9.48h0l1.15-9.45h0l1.15-9.41h0l1.15-9.38h0l1.15-9.35h0l1.15-9.31h0l1.15-9.28h0l1.15-9.25h0l1.15-9.21h0l1.15-9.18h0l1.15-9.15h0l1.15-9.12h0l1.15-9.08h0l1.15-9.05h0l1.15-9.02h0l1.15-8.98h0l1.15-8.95h0l1.15-8.92h0l1.15-8.89h0l1.15-8.86h0l1.15-8.82h0l1.15-8.79h0l1.15-8.76h0l1.15-8.73h0l1.15-8.69h0l1.15-8.66h0l1.15-8.63h0l1.15-8.6h0l1.15-8.57h0l1.15-8.54h0l1.15-8.5h0l1.15-8.47h0l1.15-8.44h0l1.15-8.41h0l1.15-8.38h0l1.15-8.35h0l1.15-8.32h0l1.15-8.28h0l1.15-8.25h0l1.15-8.22h0l1.15-8.19h0l1.15-8.16h0l1.15-8.13h0l1.15-8.1h0l1.15-8.07h0l1.15-8.04h0l1.15-8.01h0l1.15-7.97h0l1.15-7.94h0l1.15-7.91h0l1.15-7.88h0l1.15-7.85h0l1.15-7.82h0l1.15-7.79h0l1.15-7.76h0l1.15-7.73h0l1.15-7.7h0l1.15-7.67h0l1.15-7.64h0l1.15-7.61h0l1.15-7.58h0l1.15-7.55h0l1.15-7.52h0l1.15-7.49h0l1.15-7.46h0l1.15-7.43h0l1.15-7.4h0l1.15-7.37h0l1.15-7.34h0l1.15-7.32h0l1.15-7.29h0l1.15-7.26h0l1.15-7.23h0l1.15-7.2h0l1.15-7.17h0l1.15-7.14h0l1.15-7.11h0l1.15-7.08h0l1.15-7.05h0l1.15-7.02h0l1.15-7h0l1.15-6.97h0l1.15-6.94h0l1.15-6.91h0l1.15-6.88h0l1.15-6.85h0l1.15-6.83h0l1.15-6.8h0l1.15-6.77h0l1.15-6.74h0l1.15-6.71h0l1.15-6.68h0l1.15-6.66h0l1.15-6.63h0l1.15-6.6h0l1.15-6.57h0l1.15-6.54h0l1.15-6.52h0l1.15-6.49h0l1.15-6.46h0l1.15-6.43h0l1.15-6.41h0l1.15-6.38h0l1.15-6.35h0l1.15-6.32h0l1.15-6.3h0l1.15-6.27h0l1.15-6.24h0l1.15-6.22h0l1.15-6.19h0l1.15-6.16h0l1.15-6.13h0l1.15-6.11h0l1.15-6.08h0l1.15-6.05h0l1.15-6.03h0l1.15-6h0l1.15-5.97h0l1.15-5.95h0l1.15-5.92h0l1.15-5.9h0l1.15-5.87h0l1.15-5.84h0l1.15-5.82h0l1.15-5.79h0l1.15-5.76h0l1.15-5.74h0l1.15-5.71h0l1.15-5.69h0l1.15-5.66h0l1.15-5.64h0l1.15-5.61h0l1.15-5.58h0l1.15-5.56h0l1.15-5.53h0l1.15-5.51h0l1.15-5.48h0l1.15-5.46h0l1.15-5.43h0l1.15-5.41h0l1.15-5.38h0l1.15-5.36h0l1.15-5.33h0l1.15-5.31h0l1.15-5.28h0l1.15-5.26h0l1.15-5.23h0l1.15-5.21h0l1.15-5.18h0l1.15-5.16h0l1.15-5.13h0l1.15-5.11h0l1.15-5.08h0l1.15-5.06h0l1.15-5.03h0l1.15-5.01h0l1.15-4.99h0l1.15-4.96h0l1.15-4.94h0l1.15-4.91h0l1.15-4.89h0l1.15-4.87h0l1.15-4.84h0l1.15-4.82h0l1.15-4.79h0l1.15-4.77h0l1.15-4.75h0l1.15-4.72h0l1.15-4.7h0l1.15-4.68h0l1.15-4.65h0l1.15-4.63h0l1.15-4.61h0l1.15-4.58h0l1.15-4.56h0l1.15-4.54h0l1.15-4.51h0l1.15-4.49h0l1.15-4.47h0l1.15-4.44h0l1.15-4.42h0l1.15-4.4h0l1.15-4.38h0l1.15-4.35h0l1.15-4.33h0l1.15-4.31h0l1.15-4.29h0l1.15-4.26h0l1.15-4.24h0l1.15-4.22h0l1.15-4.2h0l1.15-4.17h0l1.15-4.15h0l1.15-4.13h0l1.15-4.11h0l1.15-4.09h0l1.15-4.06h0l1.15-4.04h0l1.15-4.02h0l1.15-4h0l1.15-3.98h0l1.15-3.96h0l1.15-3.93h0l1.15-3.91h0l1.15-3.89h0l1.15-3.87h0l1.15-3.85h0l1.15-3.83h0l1.15-3.81h0l1.15-3.78h0l1.15-3.76h0l1.15-3.74h0l1.15-3.72h0l1.15-3.7h0l1.15-3.68h0l1.15-3.66h0l1.15-3.64h0l1.15-3.62h0l1.15-3.6h0l1.15-3.58h0l1.15-3.56h0l1.15-3.54h0l1.15-3.52h0l1.15-3.5h0l1.15-3.47h0l1.15-3.45h0l1.15-3.43h0l1.15-3.41h0l1.15-3.39h0l1.15-3.37h0l1.15-3.35h0l1.15-3.33h0l1.15-3.32h0l1.15-3.3h0l1.15-3.28h0l1.15-3.26h0l1.15-3.24h0l1.15-3.22h0l1.15-3.2h0l1.15-3.18h0l1.15-3.16h0l1.15-3.14h0l1.15-3.12h0l1.15-3.1h0l1.15-3.08h0l1.15-3.06h0l1.15-3.04h0l1.15-3.03h0l1.15-3.01h0l1.15-2.99h0l1.15-2.97h0l1.15-2.95h0l1.15-2.93h0l1.15-2.91h0l1.15-2.89h0l1.15-2.88h0l1.15-2.86h0l1.15-2.84h0l1.15-2.82h0l1.15-2.8h0l1.15-2.79h0l1.15-2.77h0l1.15-2.75h0l1.15-2.73h0l1.15-2.71h0l1.15-2.7h0l1.15-2.68h0l1.15-2.66h0l1.15-2.64h0l1.15-2.62h0l1.15-2.61h0l1.15-2.59h0l1.15-2.57h0l1.15-2.55h0l1.15-2.54h0l1.15-2.52h0l1.15-2.5h0l1.15-2.49h0l1.15-2.47h0l1.15-2.45h0l1.15-2.43h0l1.15-2.42h0l1.15-2.4h0l1.15-2.38h0l1.15-2.37h0l1.15-2.35h0l1.15-2.33h0l1.15-2.32h0l1.15-2.3h0l1.15-2.28h0l1.15-2.27h0l1.15-2.25h0l1.15-2.24h0l1.15-2.22h0l1.15-2.2h0l1.15-2.19h0l1.15-2.17h0l1.15-2.16h0l1.15-2.14h0l1.15-2.12h0l1.15-2.11h0l1.15-2.09h0l1.15-2.08h0l1.15-2.06h0l1.15-2.05h0l1.15-2.03h0l1.15-2.01h0l1.15-2h0l1.15-1.98h0l1.15-1.97h0l1.15-1.95h0l1.15-1.94h0l1.15-1.92h0l1.15-1.91h0l1.15-1.89h0l1.15-1.88h0l1.15-1.86h0l1.15-1.85h0l1.15-1.83h0l1.15-1.82h0l1.15-1.8h0l1.15-1.79h0l1.15-1.78h0l1.15-1.76h0l1.15-1.75h0l1.15-1.73h0l1.15-1.72h0l1.15-1.7h0l1.15-1.69h0l1.15-1.68h0l1.15-1.66h0l1.15-1.65h0l1.15-1.63h0l1.15-1.62h0l1.15-1.61h0l1.15-1.59h0l1.15-1.58h0l1.15-1.57h0l1.15-1.55h0l1.15-1.54h0l1.15-1.53h0l1.15-1.51h0l1.15-1.5h0l1.15-1.49h0l1.15-1.47h0l1.15-1.46h0l1.15-1.45h0l1.15-1.43h0l1.15-1.42h0l1.15-1.41h0l1.15-1.39h0l1.15-1.38h0l1.15-1.37h0l1.15-1.36h0l1.15-1.34h0l1.15-1.33h0l1.15-1.32h0l1.15-1.31h0l1.15-1.29h0l1.15-1.28h0l1.15-1.27h0l1.15-1.26h0l1.15-1.24h0l1.15-1.23h0l1.15-1.22h0l1.15-1.21h0l1.15-1.2h0l1.15-1.19h0l1.15-1.17h0l1.15-1.16h0l1.15-1.15h0l1.15-1.14h0l1.15-1.13h0l1.15-1.12h0l1.15-1.1h0l1.15-1.09h0l1.15-1.08h0l1.15-1.07h0l1.15-1.06h0l1.15-1.05h0l1.15-1.04h0l1.15-1.03h0l1.15-1.01h0l1.15-1h0l1.15-.99h0l1.15-.98h0l1.15-.97h0l1.15-.96h0l1.15-.95h0l1.15-.94h0l1.15-.93h0l1.15-.92h0l1.15-.91h0l1.15-.9h0l1.15-.89h0l1.15-.88h0l1.15-.87h0l1.15-.86h0l1.15-.85h0l1.15-.84h0l1.15-.83h0l1.15-.82h0l1.15-.81h0l1.15-.8h0l1.15-.79h0l1.15-.78h0l1.15-.77h0l1.15-.76h0l1.15-.75h0l1.15-.74h0l1.15-.73h0l1.15-.72h0l1.15-.71h0l1.15-.7h0l1.15-.7h0l1.15-.69h0l1.15-.68h0l1.15-.67h0l1.15-.66h0l1.15-.65h0l1.15-.64h0l1.15-.63h0l1.15-.62h0l1.15-.62h0l1.15-.61h0l1.15-.6h0l1.15-.59h0l1.15-.58h0l1.15-.57h0l1.15-.57h0l1.15-.56h0l1.15-.55h0l1.15-.54h0l1.15-.53h0l1.15-.53h0l1.15-.52h0l1.15-.51h0l1.15-.5h0l1.15-.49h0l1.15-.49h0l1.15-.48h0l1.15-.47h0l1.15-.46h0l1.15-.46h0l1.15-.45h0l1.15-.44h0l1.15-.44h0l1.15-.43h0l1.15-.42h0l1.15-.41h0l1.15-.41h0l1.15-.4h0l1.15-.39h0l1.15-.39h0l1.15-.38h0l1.15-.37h0l1.15-.37h0l1.15-.36h0l1.15-.35h0l1.15-.35h0l1.15-.34h0l1.15-.34h0l1.15-.33h0l1.15-.32h0l1.15-.32h0l1.15-.31h0l1.15-.3h0l1.15-.3h0l1.15-.29h0l1.15-.29h0l1.15-.28h0l1.15-.28h0l1.15-.27h0l1.15-.26h0l1.15-.26h0l1.15-.25h0l1.15-.25h0l1.15-.24h0l1.15-.24h0l1.15-.23h0l1.15-.23h0l1.15-.22h0l1.15-.22h0l1.15-.21h0l1.15-.21h0l1.15-.2h0l1.15-.2h0l1.15-.19h0l1.15-.19h0l1.15-.18h0l1.15-.18h0l1.15-.17h0l1.15-.17h0l1.15-.16h0l1.15-.16h0l1.15-.16h0l1.15-.15h0l1.15-.15h0l1.15-.14h0l1.15-.14h0l1.15-.13h0l1.15-.13h0l1.15-.13h0l1.15-.12h0l1.15-.12h0l1.15-.12h0l1.15-.11h0l1.15-.11h0l1.15-.1h0l1.15-.1h0l1.15-.1h0l1.15-.09h0l1.15-.09h0l1.15-.09h0l1.15-.08h0l1.15-.08h0l1.15-.08h0l1.15-.08h0l1.15-.07h0l1.15-.07h0l1.15-.07h0l1.15-.06h0l1.15-.06h0l1.15-.06h0l1.15-.06h0l1.15-.05h0l1.15-.05h0l1.15-.05h0l1.15-.05h0l1.15-.04h0l1.15-.04h0l1.15-.04h0l1.15-.04h0l1.15-.04h0l1.15-.03h0l1.15-.03h0l1.15-.03h0l1.15-.03h0l1.15-.03h0l1.15-.02h0l1.15-.02h0l1.15-.02h0l1.15-.02h0l1.15-.02h0l1.15-.02h0l1.15-.02h1.15s1.15-.03,1.15-.03h1.15s1.15-.02,1.15-.02h1.15s1.15-.02,1.15-.02h1.15s1.15-.01,1.15-.01h1.15s1.15-.01,1.15-.01h1.15s1.15,0,1.15,0h1.15s1.15,0,1.15,0h1.15s1.15,0,1.15,0h1.15s1.15,0,1.15,0h1.15s1.15,0,1.15,0h1.15s1.15,0,1.15,0h2.29s1.15,0,1.15,0h1.15s1.15,0,1.15,0h1.15s1.15,0,1.15,0h1.15s1.15,0,1.15,0h1.15s1.15,0,1.15,0h1.15s1.15,0,1.15,0h1.15s1.15-.01,1.15-.01h1.15s1.15-.01,1.15-.01h1.15s1.15-.02,1.15-.02h1.15s1.15-.02,1.15-.02h1.15s1.15-.03,1.15-.03h0l1.15-.02h0l1.15-.02h0l1.15-.02h0l1.15-.02h0l1.15-.02h0l1.15-.02h0l1.15-.03h0l1.15-.03h0l1.15-.03h0l1.15-.03h0l1.15-.03h0l1.15-.03h0l1.15-.04h0l1.15-.04h0l1.15-.04h0l1.15-.04h0l1.15-.05h0l1.15-.05h0l1.15-.05h0l1.15-.05h0l1.15-.06h0l1.15-.06h0l1.15-.06h0l1.15-.06h0l1.15-.07h0l1.15-.07h0l1.15-.07h0l1.15-.07h0l1.15-.08h0l1.15-.08h0l1.15-.08h0l1.15-.09h0l1.15-.09h0l1.15-.09h0l1.15-.1h0l1.15-.1h0l1.15-.1h0l1.15-.11h0l1.15-.11h0l1.15-.11h0l1.15-.12h0l1.15-.12h0l1.15-.13h0l1.15-.13h0l1.15-.13h0l1.15-.14h0l1.15-.14h0l1.15-.15h0l1.15-.15h0l1.15-.15h0l1.15-.16h0l1.15-.16h0l1.15-.17h0l1.15-.17h0l1.15-.18h0l1.15-.18h0l1.15-.18h0l1.15-.19h0l1.15-.19h0l1.15-.2h0l1.15-.2h0l1.15-.21h0l1.15-.21h0l1.15-.22h0l1.15-.22h0l1.15-.23h0l1.15-.23h0l1.15-.24h0l1.15-.24h0l1.15-.25h0l1.15-.26h0l1.15-.26h0l1.15-.27h0l1.15-.27h0l1.15-.28h0l1.15-.28h0l1.15-.29h0l1.15-.3h0l1.15-.3h0l1.15-.31h0l1.15-.31h0l1.15-.32h0l1.15-.33h0l1.15-.33h0l1.15-.34h0l1.15-.34h0l1.15-.35h0l1.15-.36h0l1.15-.36h0l1.15-.37h0l1.15-.38h0l1.15-.38h0l1.15-.39h0l1.15-.4h0l1.15-.4h0l1.15-.41h0l1.15-.42h0l1.15-.43h0l1.15-.43h0l1.15-.44h0l1.15-.45h0l1.15-.45h0l1.15-.46h0l1.15-.47h0l1.15-.48h0l1.15-.48h0l1.15-.49h0l1.15-.5h0l1.15-.51h0l1.15-.51h0l1.15-.52h0l1.15-.53h0l1.15-.54h0l1.15-.55h0l1.15-.55h0l1.15-.56h0l1.15-.57h0l1.15-.58h0l1.15-.59h0l1.15-.6h0l1.15-.6h0l1.15-.61h0l1.15-.62h0l1.15-.63h0l1.15-.64h0l1.15-.65h0l1.15-.66h0l1.15-.66h0l1.15-.67h0l1.15-.68h0l1.15-.69h0l1.15-.7h0l1.15-.71h0l1.15-.72h0l1.15-.73h0l1.15-.74h0l1.15-.75h0l1.15-.76h0l1.15-.76h0l1.15-.77h0l1.15-.78h0l1.15-.79h0l1.15-.8h0l1.15-.81h0l1.15-.82h0l1.15-.83h0l1.15-.84h0l1.15-.85h0l1.15-.86h0l1.15-.87h0l1.15-.88h0l1.15-.89h0l1.15-.9h0l1.15-.91h0l1.15-.92h0l1.15-.93h0l1.15-.95h0l1.15-.96h0l1.15-.97h0l1.15-.98h0l1.15-.99h0l1.15-1h0l1.15-1.01h0l1.15-1.02h0l1.15-1.03h0l1.15-1.04h0l1.15-1.05h0l1.15-1.06h0l1.15-1.08h0l1.15-1.09h0l1.15-1.1h0l1.15-1.11h0l1.15-1.12h0l1.15-1.13h0l1.15-1.14h0l1.15-1.16h0l1.15-1.17h0l1.15-1.18h0l1.15-1.19h0l1.15-1.2h0l1.15-1.22h0l1.15-1.23h0l1.15-1.24h0l1.15-1.25h0l1.15-1.26h0l1.15-1.28h0l1.15-1.29h0l1.15-1.3h0l1.15-1.31h0l1.15-1.32h0l1.15-1.34h0l1.15-1.35h0l1.15-1.36h0l1.15-1.38h0l1.15-1.39h0l1.15-1.4h0l1.15-1.41h0l1.15-1.43h0l1.15-1.44h0l1.15-1.45h0l1.15-1.47h0l1.15-1.48h0l1.15-1.49h0l1.15-1.51h0l1.15-1.52h0l1.15-1.53h0l1.15-1.55h0l1.15-1.56h0l1.15-1.57h0l1.15-1.59h0l1.15-1.6h0l1.15-1.61h0l1.15-1.63h0l1.15-1.64h0l1.15-1.66h0l1.15-1.67h0l1.15-1.68h0l1.15-1.7h0l1.15-1.71h0l1.15-1.73h0l1.15-1.74h0l1.15-1.75h0l1.15-1.77h0l1.15-1.78h0l1.15-1.8h0l1.15-1.81h0l1.15-1.83h0l1.15-1.84h0l1.15-1.86h0l1.15-1.87h0l1.15-1.89h0l1.15-1.9h0l1.15-1.92h0l1.15-1.93h0l1.15-1.95h0l1.15-1.96h0l1.15-1.98h0l1.15-1.99h0l1.15-2.01h0l1.15-2.02h0l1.15-2.04h0l1.15-2.05h0l1.15-2.07h0l1.15-2.08h0l1.15-2.1h0l1.15-2.12h0l1.15-2.13h0l1.15-2.15h0l1.15-2.16h0l1.15-2.18h0l1.15-2.2h0l1.15-2.21h0l1.15-2.23h0l1.15-2.24h0l1.15-2.26h0l1.15-2.28h0l1.15-2.29h0l1.15-2.31h0l1.15-2.33h0l1.15-2.34h0l1.15-2.36h0l1.15-2.38h0l1.15-2.39h0l1.15-2.41h0l1.15-2.43h0l1.15-2.44h0l1.15-2.46h0l1.15-2.48h0l1.15-2.49h0l1.15-2.51h0l1.15-2.53h0l1.15-2.55h0l1.15-2.56h0l1.15-2.58h0l1.15-2.6h0l1.15-2.62h0l1.15-2.63h0l1.15-2.65h0l1.15-2.67h0l1.15-2.69h0l1.15-2.7h0l1.15-2.72h0l1.15-2.74h0l1.15-2.76h0l1.15-2.78h0l1.15-2.79h0l1.15-2.81h0l1.15-2.83h0l1.15-2.85h0l1.15-2.87h0l1.15-2.89h0l1.15-2.9h0l1.15-2.92h0l1.15-2.94h0l1.15-2.96h0l1.15-2.98h0l1.15-3h0l1.15-3.02h0l1.15-3.04h0l1.15-3.05h0l1.15-3.07h0l1.15-3.09h0l1.15-3.11h0l1.15-3.13h0l1.15-3.15h0l1.15-3.17h0l1.15-3.19h0l1.15-3.21h0l1.15-3.23h0l1.15-3.25h0l1.15-3.27h0l1.15-3.29h0l1.15-3.31h0l1.15-3.33h0l1.15-3.35h0l1.15-3.37h0l1.15-3.38h0l1.15-3.4h0l1.15-3.42h0l1.15-3.45h0l1.15-3.47h0l1.15-3.49h0l1.15-3.51h0l1.15-3.53h0l1.15-3.55h0l1.15-3.57h0l1.15-3.59h0l1.15-3.61h0l1.15-3.63h0l1.15-3.65h0l1.15-3.67h0l1.15-3.69h0l1.15-3.71h0l1.15-3.73h0l1.15-3.75h0l1.15-3.77h0l1.15-3.8h0l1.15-3.82h0l1.15-3.84h0l1.15-3.86h0l1.15-3.88h0l1.15-3.9h0l1.15-3.92h0l1.15-3.95h0l1.15-3.97h0l1.15-3.99h0l1.15-4.01h0l1.15-4.03h0l1.15-4.05h0l1.15-4.08h0l1.15-4.1h0l1.15-4.12h0l1.15-4.14h0l1.15-4.16h0l1.15-4.19h0l1.15-4.21h0l1.15-4.23h0l1.15-4.25h0l1.15-4.27h0l1.15-4.3h0l1.15-4.32h0l1.15-4.34h0l1.15-4.37h0l1.15-4.39h0l1.15-4.41h0l1.15-4.43h0l1.15-4.46h0l1.15-4.48h0l1.15-4.5h0l1.15-4.53h0l1.15-4.55h0l1.15-4.57h0l1.15-4.59h0l1.15-4.62h0l1.15-4.64h0l1.15-4.66h0l1.15-4.69h0l1.15-4.71h0l1.15-4.74h0l1.15-4.76h0l1.15-4.78h0l1.15-4.81h0l1.15-4.83h0l1.15-4.85h0l1.15-4.88h0l1.15-4.9h0l1.15-4.93h0l1.15-4.95h0l1.15-4.97h0l1.15-5h0l1.15-5.02h0l1.15-5.05h0l1.15-5.07h0l1.15-5.1h0l1.15-5.12h0l1.15-5.14h0l1.15-5.17h0l1.15-5.19h0l1.15-5.22h0l1.15-5.24h0l1.15-5.27h0l1.15-5.29h0l1.15-5.32h0l1.15-5.34h0l1.15-5.37h0l1.15-5.39h0l1.15-5.42h0l1.15-5.44h0l1.15-5.47h0l1.15-5.5h0l1.15-5.52h0l1.15-5.55h0l1.15-5.57h0l1.15-5.6h0l1.15-5.62h0l1.15-5.65h0l1.15-5.67h0l1.15-5.7h0l1.15-5.73h0l1.15-5.75h0l1.15-5.78h0l1.15-5.8h0l1.15-5.83h0l1.15-5.86h0l1.15-5.88h0l1.15-5.91h0l1.15-5.94h0l1.15-5.96h0l1.15-5.99h0l1.15-6.02h0l1.15-6.04h0l1.15-6.07h0l1.15-6.1h0l1.15-6.12h0l1.15-6.15h0l1.15-6.18h0l1.15-6.2h0l1.15-6.23h0l1.15-6.26h0l1.15-6.28h0l1.15-6.31h0l1.15-6.34h0l1.15-6.37h0l1.15-6.39h0l1.15-6.42h0l1.15-6.45h0l1.15-6.48h0l1.15-6.5h0l1.15-6.53h0l1.15-6.56h0l1.15-6.59h0l1.15-6.61h0l1.15-6.64h0l1.15-6.67h0l1.15-6.7h0l1.15-6.73h0l1.15-6.75h0l1.15-6.78h0l1.15-6.81h0l1.15-6.84h0l1.15-6.87h0l1.15-6.9h0l1.15-6.93h0l1.15-6.95h0l1.15-6.98h0l1.15-7.01h0l1.15-7.04h0l1.15-7.07h0l1.15-7.1h0l1.15-7.13h0l1.15-7.16h0l1.15-7.18h0l1.15-7.21h0l1.15-7.24h0l1.15-7.27h0l1.15-7.3h0l1.15-7.33h0l1.15-7.36h0l1.15-7.39h0l1.15-7.42h0l1.15-7.45h0l1.15-7.48h0l1.15-7.51h0l1.15-7.54h0l1.15-7.57h0l1.15-7.6h0l1.15-7.63h0l1.15-7.66h0l1.15-7.69h0l1.15-7.72h0l1.15-7.75h0l1.15-7.78h0l1.15-7.81h0l1.15-7.84h0l1.15-7.87h0l1.15-7.9h0l1.15-7.93h0l1.15-7.96h0l1.15-7.99h0l1.15-8.02h0l1.15-8.05h0l1.15-8.08h0l1.15-8.11h0l1.15-8.14h0l1.15-8.18h0l1.15-8.21h0l1.15-8.24h0l1.15-8.27h0l1.15-8.3h0l1.15-8.33h0l1.15-8.36h0l1.15-8.39h0l1.15-8.43h0l1.15-8.46h0l1.15-8.49h0l1.15-8.52h0l1.15-8.55h0l1.15-8.58h0l1.15-8.62h0l1.15-8.65h0l1.15-8.68h0l1.15-8.71h0l1.15-8.74h0l1.15-8.78h0l1.15-8.81h0l1.15-8.84h0l1.15-8.87h0l1.15-8.9h0l1.15-8.94h0l1.15-8.97h0l1.15-9h0l1.15-9.03h0l1.15-9.07h0l1.15-9.1h0l1.15-9.13h0l1.15-9.17h0l1.15-9.2h0l1.15-9.23h0l1.15-9.26h0l1.15-9.3h0l1.15-9.33h0l1.15-9.36h0l1.15-9.4h0l1.15-9.43h0l1.15-9.46h0l1.15-9.5h0l1.15-9.53h0l1.15-9.56h0l1.15-9.6h0l1.15-9.63h0l1.15-9.66h0l1.15-9.7h0l1.15-9.73h0l1.15-9.77h0l1.15-9.8h0l1.15-9.83h0l1.15-9.87h0l1.15-9.9h0l1.15-9.94h0l1.15-9.97h0l1.15-10h0l1.15-10.04h0l1.15-10.07h0l1.15-10.11h0l1.15-10.14h0l1.15-10.18h0l1.15-10.21h0l1.15-10.25h0l1.15-10.28h0l1.15-10.32h0l1.15-10.35h0l1.15-10.39h0l1.15-10.42h0l1.15-10.46h0l1.15-10.49h0l1.15-10.53h0l1.15-10.56h0l1.15-10.6h0l1.15-10.63h0l1.15-10.67h0l1.15-10.7h0l1.15-10.74h0l1.15-10.77h0l1.15-10.81h0l1.15-10.85h0l1.15-10.88h0l1.15-10.92h0l1.15-10.95h0l1.15-10.99h0l1.15-11.02h0l1.15-11.06h0l1.15-11.1h0l1.15-11.13h0l1.15-11.17h0l1.15-11.21h0l1.15-11.24h0l1.15-11.28h0l1.15-11.31h0l1.15-11.35h0l1.15-11.39h0l1.15-11.42h0l1.15-11.46h0l1.15-11.5h0l1.15-11.53h0l1.15-11.57h0l1.15-11.61h0l1.15-11.65h0l1.15-11.68h0l1.15-11.72h0l1.15-11.76h0l1.15-11.79h0l1.15-11.83h0l1.15-11.87h0l1.15-11.91h0l1.15-11.94h0l1.15-11.98h0l1.15-12.02h0l1.15-12.06h0l1.15-12.09h0l1.15-12.13h0l1.15-12.17h0l1.15-12.21h0l1.15-12.24h0l1.15-12.28h0l1.15-12.32h0l1.15-12.36h0l1.15-12.4h0l1.15-12.44h0l1.15-12.47h0l1.15-12.51h0l1.15-12.55h0l1.15-12.59h0l1.15-12.63h0l1.15-12.67h0l1.15-12.7h0l1.15-12.74h0l1.15-12.78h0l1.15-12.82h0l1.15-12.86h0l1.15-12.9h0l1.15-12.94h0l1.15-12.98h0l1.15-13.02h0l1.15-13.05h0l1.15-13.09h0l1.15-13.13h0l1.15-13.17h0l1.15-13.21h0l1.15-13.25h0l1.15-13.29h0l1.15-13.33h0l1.15-13.37h0l1.15-13.41h0l1.15-13.45h0l1.15-13.49h0l1.15-13.53h0l1.15-13.57h0l1.15-13.61h0l1.15-13.65h0l1.15-13.69h0l1.15-13.73h0l1.15-13.77h0l1.15-13.81h0l1.15-13.85h0l1.15-13.89h0l1.15-13.93h0l1.15-13.97h0l1.15-14.01h0l1.15-14.05h0l1.15-14.09h0l1.15-14.13h0l1.15-14.18h0l1.15-14.22h0l1.15-14.26h0l1.15-14.3h0l1.15-14.34h0l1.15-14.38h0l1.15-14.42h0l1.15-14.46h0l1.15-14.5h0l1.15-14.55h0l1.15-14.59h0l1.15-14.63h0l1.15-14.67h0l1.15-14.71h0l1.15-14.75h0l1.15-14.79h0l1.15-14.84h0l1.15-14.88h0l1.15-14.92h0l1.15-14.96h0l1.15-15h0l1.15-15.05h0l1.15-15.09h0l1.15-15.13h0l1.15-15.17h0l1.15-15.21h0l1.15-15.26h0l1.15-15.3h0l1.15-15.34h0l1.15-15.38h0l1.15-15.43h0l1.15-15.47h0l1.15-15.51h0l1.15-15.55h0l1.15-15.6h0l1.15-15.64h0l1.15-15.68h0l1.15-15.73h0l1.15-15.77h0l1.15-15.81"/>
        </g>
      </g>
    </g>
  </g>
  <g id="uuid-ae2226ad-4f74-49b8-a6ce-29ede081586d" data-name="Marco">
    <path class="uuid-079037ab-1a46-4b13-a34c-8c0c2444d507" d="m0-2V1022h1680V-2H0Zm1663,987c0,11.05-8.95,20-20,20H37c-11.05,0-20-8.95-20-20V35c0-11.05,8.95-20,20-20h1606c11.05,0,20,8.95,20,20v950Z"/>
  </g>
  <g id="uuid-801774d6-22f9-4a21-a187-882e5580cb9d" data-name="Texto">
    <g>
      <path class="uuid-e7aed9d0-6a50-4fee-8f5a-225db5f6d371" d="m1184.15,387.29c-.6,2.83-1.52,4.93-2.75,6.32-1.24,1.39-2.79,2.08-4.67,2.08-.55,0-.98-.03-1.29-.1l.33-1.72c.13.04.44.06.92.06.59,0,1.09-.15,1.5-.45.42-.3.8-.82,1.16-1.56.36-.74.69-1.77.99-3.09l4.2-18.57h-3.3l.29-1.35c.87-.05,1.5-.12,1.88-.21.38-.09.68-.23.9-.41s.4-.42.55-.71c.15-.29.34-.83.58-1.61.69-2.34,1.75-4.1,3.19-5.28,1.44-1.18,3.27-1.77,5.5-1.77,1.28,0,2.38.1,3.3.31l-.76,3.32h-1.72c-.18-.74-.42-1.28-.71-1.6s-.73-.49-1.3-.49c-.74,0-1.37.21-1.88.62-.51.41-.95,1.02-1.32,1.83-.37.81-.7,1.89-1.02,3.26l-.49,2.13h5.02l-.43,1.97h-5.04l-3.63,17.03Z"/>
      <path class="uuid-e7aed9d0-6a50-4fee-8f5a-225db5f6d371" d="m1205.5,376.39c0,4.8.72,8.68,2.15,11.63,1.43,2.95,3.57,4.83,6.41,5.63l-.31,1.89c-4.19-.82-7.34-2.87-9.44-6.16-2.1-3.29-3.15-7.56-3.15-12.8,0-5.59,1.05-10.02,3.15-13.31,2.1-3.29,5.25-5.22,9.44-5.81l.31,1.89c-2.84.57-4.97,2.33-6.41,5.28-1.43,2.95-2.15,6.87-2.15,11.75Z"/>
      <path class="uuid-e7aed9d0-6a50-4fee-8f5a-225db5f6d371" d="m1224.35,378.12c-.2-1.03-.4-2.02-.61-2.97-.21-.95-.42-1.84-.64-2.66-.22-.82-.4-1.36-.55-1.61-.14-.25-.3-.43-.46-.53-.16-.1-.37-.15-.62-.15-.27,0-.52.06-.74.19-.22.12-.46.34-.72.64-.26.31-.61.78-1.04,1.44l-1.27-.84c.82-1.24,1.61-2.16,2.36-2.77.75-.61,1.65-.92,2.68-.92.4,0,.76.05,1.06.14.31.09.58.23.81.42s.44.43.62.73c.18.3.36.71.53,1.22.17.51.33,1.15.48,1.91.15.76.28,1.55.4,2.37h.2c1.25-1.76,2.2-3.04,2.84-3.86s1.19-1.42,1.63-1.82c.44-.4.87-.68,1.28-.84s.95-.24,1.63-.24c.61,0,1.11.08,1.5.23l-.78,3.54h-1.37c-.08-.55-.31-.82-.68-.82-.12,0-.24.02-.37.06-.13.04-.29.12-.48.25-.19.13-.47.38-.83.76-.37.38-.78.84-1.23,1.39-.46.55-.92,1.12-1.41,1.72l-1.33,1.66c.23,1.25.46,2.33.66,3.24.21.91.39,1.67.56,2.28.16.61.31,1.08.43,1.44.12.35.26.62.4.79.14.18.29.3.44.37.15.07.32.11.52.11.35,0,.69-.14,1.03-.41s.81-.89,1.44-1.86l1.27.84c-.91,1.35-1.74,2.31-2.47,2.86-.74.55-1.61.83-2.63.83-.56,0-1.04-.1-1.43-.3s-.73-.52-1.02-.97c-.29-.44-.54-1.13-.76-2.07-.4-1.67-.65-2.94-.74-3.83h-.2c-1.38,1.94-2.41,3.33-3.08,4.18-.67.85-1.22,1.47-1.66,1.88-.44.4-.86.69-1.27.85s-.95.24-1.63.24c-.61,0-1.11-.08-1.5-.23l.78-3.54h1.37c.08.55.31.82.68.82.18,0,.37-.05.58-.15.2-.1.49-.33.87-.7.38-.37.9-.95,1.56-1.75s1.63-1.99,2.89-3.57Z"/>
      <path class="uuid-e7aed9d0-6a50-4fee-8f5a-225db5f6d371" d="m1245.85,376.39c0-4.88-.72-8.8-2.15-11.75-1.43-2.95-3.57-4.71-6.41-5.28l.31-1.89c4.19.59,7.34,2.52,9.44,5.81,2.1,3.29,3.15,7.72,3.15,13.31,0,5.25-1.05,9.51-3.15,12.8-2.1,3.29-5.25,5.34-9.44,6.16l-.31-1.89c2.84-.81,4.97-2.69,6.41-5.63,1.43-2.95,2.15-6.83,2.15-11.63Z"/>
      <path class="uuid-e7aed9d0-6a50-4fee-8f5a-225db5f6d371" d="m1265.35,372.77v-2.6h24.06v2.6h-24.06Zm0,8.11v-2.6h24.06v2.6h-24.06Z"/>
      <path class="uuid-e7aed9d0-6a50-4fee-8f5a-225db5f6d371" d="m1310.44,378.12c-.2-1.03-.4-2.02-.61-2.97-.21-.95-.42-1.84-.64-2.66-.22-.82-.4-1.36-.55-1.61-.14-.25-.3-.43-.46-.53-.16-.1-.37-.15-.62-.15-.27,0-.52.06-.74.19-.22.12-.46.34-.72.64-.26.31-.61.78-1.04,1.44l-1.27-.84c.82-1.24,1.61-2.16,2.36-2.77.75-.61,1.65-.92,2.68-.92.4,0,.76.05,1.06.14.31.09.58.23.81.42s.44.43.62.73c.18.3.36.71.53,1.22.17.51.33,1.15.48,1.91.15.76.28,1.55.4,2.37h.2c1.25-1.76,2.2-3.04,2.84-3.86s1.19-1.42,1.63-1.82c.44-.4.87-.68,1.28-.84s.95-.24,1.63-.24c.61,0,1.11.08,1.5.23l-.78,3.54h-1.37c-.08-.55-.31-.82-.68-.82-.12,0-.24.02-.37.06-.13.04-.29.12-.48.25-.19.13-.47.38-.83.76-.37.38-.78.84-1.23,1.39-.46.55-.92,1.12-1.41,1.72l-1.33,1.66c.23,1.25.46,2.33.66,3.24.21.91.39,1.67.56,2.28.16.61.31,1.08.43,1.44.12.35.26.62.4.79.14.18.29.3.44.37.15.07.32.11.52.11.35,0,.69-.14,1.03-.41s.81-.89,1.44-1.86l1.27.84c-.91,1.35-1.74,2.31-2.47,2.86-.74.55-1.61.83-2.63.83-.56,0-1.04-.1-1.43-.3s-.73-.52-1.02-.97c-.29-.44-.54-1.13-.76-2.07-.4-1.67-.65-2.94-.74-3.83h-.2c-1.38,1.94-2.41,3.33-3.08,4.18-.67.85-1.22,1.47-1.66,1.88-.44.4-.86.69-1.27.85s-.95.24-1.63.24c-.61,0-1.11-.08-1.5-.23l.78-3.54h1.37c.08.55.31.82.68.82.18,0,.37-.05.58-.15.2-.1.49-.33.87-.7.38-.37.9-.95,1.56-1.75s1.63-1.99,2.89-3.57Z"/>
      <path class="uuid-e7aed9d0-6a50-4fee-8f5a-225db5f6d371" d="m1324.86,358.18v-2.7c2.1-.86,4-1.29,5.72-1.29.91,0,1.75.12,2.53.37.77.25,1.4.64,1.87,1.17s.7,1.2.7,2.01c0,.7-.16,1.31-.48,1.83-.32.51-.76.96-1.31,1.34-.55.38-1.27.75-2.14,1.11v.2c1.29.21,2.32.67,3.11,1.4s1.17,1.6,1.17,2.63c0,.91-.24,1.73-.71,2.44-.48.72-1.2,1.28-2.17,1.7-.97.42-2.15.62-3.54.62-.89,0-1.75-.08-2.6-.23-.85-.16-1.63-.37-2.34-.64v-2.85h1.78c.27.83.67,1.44,1.18,1.82.51.38,1.2.57,2.06.57,1.13,0,1.99-.26,2.57-.78.58-.52.87-1.3.87-2.32,0-1.09-.38-1.93-1.15-2.5-.77-.57-1.91-.86-3.44-.86h-1.17v-1.39c1.22-.04,2.25-.22,3.07-.56s1.42-.76,1.79-1.29.56-1.13.56-1.81c0-.79-.24-1.42-.72-1.88-.48-.46-1.18-.68-2.09-.68-.79,0-1.47.21-2.03.64-.56.43-.99,1.07-1.29,1.91l-1.78.02Z"/>
    </g>
  </g>
</svg>