<?xml version="1.0" encoding="UTF-8"?>
<svg xmlns="http://www.w3.org/2000/svg" width="1680" height="1020" xmlns:xlink="http://www.w3.org/1999/xlink" viewBox="0 0 1680 1020">
  <defs>
    <style>
      .uuid-5d16e9b9-7274-4226-936d-e9efdd65b4e6 {
        stroke: rgba(192, 192, 192, .24);
      }

      .uuid-5d16e9b9-7274-4226-936d-e9efdd65b4e6, .uuid-77a9721b-b3f2-48cf-95a9-68967a18f717, .uuid-2e08645d-df73-4021-8871-48031e1edd88, .uuid-b8673a03-6868-44fb-8893-2f150212e9a9, .uuid-64af8302-5ccf-400f-8c52-55991020a131, .uuid-86111b55-b99e-4bae-9d30-38b27b39f264, .uuid-228ef209-f38e-4ed3-8f13-5a43cef84563, .uuid-86b86aba-d640-455a-9b6b-f725d74b1324, .uuid-b8b993f0-77f4-4e3f-a3df-975953e402d9 {
        fill: none;
      }

      .uuid-5d16e9b9-7274-4226-936d-e9efdd65b4e6, .uuid-2e08645d-df73-4021-8871-48031e1edd88 {
        stroke-dasharray: 0 0 1.15 3.44;
        stroke-width: 1.15px;
      }

      .uuid-5d16e9b9-7274-4226-936d-e9efdd65b4e6, .uuid-2e08645d-df73-4021-8871-48031e1edd88, .uuid-b8b993f0-77f4-4e3f-a3df-975953e402d9 {
        stroke-linejoin: round;
      }

      .uuid-40a62076-7871-4504-85e4-5fb332dff9c2 {
        fill: #fff;
      }

      .uuid-77a9721b-b3f2-48cf-95a9-68967a18f717 {
        stroke: #606060;
        stroke-miterlimit: 10;
        stroke-width: 2.29px;
      }

      .uuid-76dfd998-0656-420a-927f-c822d6b4bf63 {
        fill: #333;
      }

      .uuid-2e08645d-df73-4021-8871-48031e1edd88 {
        stroke: silver;
      }

      .uuid-b8673a03-6868-44fb-8893-2f150212e9a9 {
        stroke: #fff;
        stroke-linejoin: bevel;
        stroke-width: 3.44px;
      }

      .uuid-64af8302-5ccf-400f-8c52-55991020a131 {
        isolation: isolate;
      }

      .uuid-cf1d24b7-55a7-4846-b54a-66b279a0aee9 {
        fill: #00699b;
      }

      .uuid-86111b55-b99e-4bae-9d30-38b27b39f264 {
        clip-path: url(#uuid-410c4d75-f013-432d-987f-915a5f743bf2);
      }

      .uuid-c2080922-c497-4ffc-bc96-78b036a08b3f, .uuid-0464a8c9-ee2e-48d3-88ff-97741c614014 {
        fill: #606060;
      }

      .uuid-86b86aba-d640-455a-9b6b-f725d74b1324 {
        clip-path: url(#uuid-02fb27df-7583-4ac6-a330-992a79f2e1cd);
      }

      .uuid-b8b993f0-77f4-4e3f-a3df-975953e402d9 {
        stroke: rgba(244, 0, 153, .7);
        stroke-linecap: round;
        stroke-width: 4.59px;
      }

      .uuid-0464a8c9-ee2e-48d3-88ff-97741c614014 {
        fill-rule: evenodd;
      }
    </style>
    <clipPath id="uuid-410c4d75-f013-432d-987f-915a5f743bf2">
      <rect class="uuid-228ef209-f38e-4ed3-8f13-5a43cef84563" x="-.71" y="2.61" width="1681.41" height="1019.39"/>
    </clipPath>
    <clipPath id="uuid-02fb27df-7583-4ac6-a330-992a79f2e1cd">
      <rect class="uuid-228ef209-f38e-4ed3-8f13-5a43cef84563" x="-3" y="-10.14" width="1686" height="1040.27"/>
    </clipPath>
  </defs>
  <g id="uuid-5fdc73af-3772-47d1-822a-9a896f883295" data-name="Grafica">
    <g class="uuid-86111b55-b99e-4bae-9d30-38b27b39f264">
      <g class="uuid-86b86aba-d640-455a-9b6b-f725d74b1324">
        <g>
          <rect class="uuid-40a62076-7871-4504-85e4-5fb332dff9c2" x="-3" y="-10.14" width="1686" height="1040.27"/>
          <path class="uuid-2e08645d-df73-4021-8871-48031e1edd88" d="m25.1-9.56v1040.27M25.1-9.56v1040.27M529.75-9.56v1040.27M780.93-9.56v1040.27M1033.26-9.56v1040.27M1285.59-9.56v1040.27M1537.91-9.56v1040.27"/>
          <path class="uuid-5d16e9b9-7274-4226-936d-e9efdd65b4e6" d="m75.57-9.56v1040.27M126.03-9.56v1040.27M176.5-9.56v1040.27M226.96-9.56v1040.27M327.89-9.56v1040.27M378.36-9.56v1040.27M428.82-9.56v1040.27M479.29-9.56v1040.27M579.07-9.56v1040.27M629.54-9.56v1040.27M680-9.56v1040.27M730.47-9.56v1040.27M831.4-9.56v1040.27M881.86-9.56v1040.27M932.33-9.56v1040.27M982.79-9.56v1040.27M1083.72-9.56v1040.27M1134.19-9.56v1040.27M1184.66-9.56v1040.27M1235.12-9.56v1040.27M1336.05-9.56v1040.27M1386.52-9.56v1040.27M1436.98-9.56v1040.27M1487.45-9.56v1040.27M1588.38-9.56v1040.27M1638.84-9.56v1040.27"/>
          <path class="uuid-2e08645d-df73-4021-8871-48031e1edd88" d="m-2.43,120.04h1686M-2.43,120.04h1686M-2.43,372.37h1686M-2.43,624.69h1686"/>
          <path class="uuid-5d16e9b9-7274-4226-936d-e9efdd65b4e6" d="m-2.43,19.11h1686M-2.43,19.11h1686M-2.43,69.58h1686M-2.43,170.51h1686M-2.43,220.97h1686M-2.43,271.44h1686M-2.43,321.9h1686M-2.43,422.83h1686M-2.43,473.3h1686M-2.43,523.76h1686M-2.43,574.23h1686M-2.43,675.16h1686M-2.43,725.62h1686M-2.43,776.09h1686M-2.43,826.56h1686M-2.43,926.34h1686M-2.43,976.8h1686M-2.43,1027.27h1686"/>
          <path class="uuid-77a9721b-b3f2-48cf-95a9-68967a18f717" d="m276.85-6.7v1036.83"/>
          <path class="uuid-0464a8c9-ee2e-48d3-88ff-97741c614014" d="m277-7.84l-5.73,22.94h11.47"/>
          <path class="uuid-77a9721b-b3f2-48cf-95a9-68967a18f717" d="m-3,876.45h1682.56"/>
          <path class="uuid-0464a8c9-ee2e-48d3-88ff-97741c614014" d="m1680.71,876.46l-22.94-5.73v11.47"/>
          <g class="uuid-64af8302-5ccf-400f-8c52-55991020a131">
            <path class="uuid-c2080922-c497-4ffc-bc96-78b036a08b3f" d="m24.53,890.97v.28h-6.88v-.28h6.88Z"/>
            <path class="uuid-c2080922-c497-4ffc-bc96-78b036a08b3f" d="m28.6,885.8c-.28.39-.65.74-1.11,1.03-.45.29-.92.5-1.38.63v-.28c.28-.09.54-.19.76-.3s.43-.23.62-.37c.19-.14.38-.29.56-.47.18-.17.36-.37.56-.59h.3v9.36h-.28v-9h-.03Z"/>
          </g>
          <g class="uuid-64af8302-5ccf-400f-8c52-55991020a131">
            <path class="uuid-b8673a03-6868-44fb-8893-2f150212e9a9" d="m24.53,890.97v.28h-6.88v-.28h6.88Z"/>
            <path class="uuid-b8673a03-6868-44fb-8893-2f150212e9a9" d="m28.6,885.8c-.28.39-.65.74-1.11,1.03-.45.29-.92.5-1.38.63v-.28c.28-.09.54-.19.76-.3s.43-.23.62-.37c.19-.14.38-.29.56-.47.18-.17.36-.37.56-.59h.3v9.36h-.28v-9h-.03Z"/>
          </g>
          <g class="uuid-64af8302-5ccf-400f-8c52-55991020a131">
            <path class="uuid-c2080922-c497-4ffc-bc96-78b036a08b3f" d="m24.53,890.97v.28h-6.88v-.28h6.88Z"/>
            <path class="uuid-c2080922-c497-4ffc-bc96-78b036a08b3f" d="m28.6,885.8c-.28.39-.65.74-1.11,1.03-.45.29-.92.5-1.38.63v-.28c.28-.09.54-.19.76-.3s.43-.23.62-.37c.19-.14.38-.29.56-.47.18-.17.36-.37.56-.59h.3v9.36h-.28v-9h-.03Z"/>
          </g>
          <g class="uuid-64af8302-5ccf-400f-8c52-55991020a131">
            <path class="uuid-c2080922-c497-4ffc-bc96-78b036a08b3f" d="m529.81,885.8c-.28.39-.65.74-1.11,1.03-.45.29-.92.5-1.38.63v-.28c.28-.09.54-.19.76-.3s.43-.23.62-.37c.19-.14.38-.29.56-.47.18-.17.36-.37.56-.59h.3v9.36h-.28v-9h-.03Z"/>
          </g>
          <g class="uuid-64af8302-5ccf-400f-8c52-55991020a131">
            <path class="uuid-b8673a03-6868-44fb-8893-2f150212e9a9" d="m529.81,885.8c-.28.39-.65.74-1.11,1.03-.45.29-.92.5-1.38.63v-.28c.28-.09.54-.19.76-.3s.43-.23.62-.37c.19-.14.38-.29.56-.47.18-.17.36-.37.56-.59h.3v9.36h-.28v-9h-.03Z"/>
          </g>
          <g class="uuid-64af8302-5ccf-400f-8c52-55991020a131">
            <path class="uuid-c2080922-c497-4ffc-bc96-78b036a08b3f" d="m529.81,885.8c-.28.39-.65.74-1.11,1.03-.45.29-.92.5-1.38.63v-.28c.28-.09.54-.19.76-.3s.43-.23.62-.37c.19-.14.38-.29.56-.47.18-.17.36-.37.56-.59h.3v9.36h-.28v-9h-.03Z"/>
          </g>
          <g class="uuid-64af8302-5ccf-400f-8c52-55991020a131">
            <path class="uuid-c2080922-c497-4ffc-bc96-78b036a08b3f" d="m785.13,894.8h-6.3c0-.39.07-.75.25-1.07.17-.32.4-.62.69-.9.28-.28.6-.55.96-.8.35-.25.7-.5,1.05-.75.36-.25.71-.5,1.05-.76.34-.26.64-.53.91-.81.27-.28.48-.58.64-.89.16-.32.24-.66.24-1.03s-.07-.69-.2-.97c-.13-.28-.31-.51-.54-.7-.23-.19-.5-.33-.82-.43-.32-.1-.66-.14-1.04-.14-.49,0-.9.07-1.25.22-.35.15-.63.35-.85.61s-.38.57-.48.94-.15.76-.15,1.19h-.27c0-1.03.26-1.82.76-2.39s1.25-.85,2.25-.85c.4,0,.78.05,1.13.16s.65.26.91.48.46.47.61.78.23.68.23,1.1c0,.51-.14.98-.41,1.4s-.62.82-1.04,1.18-.87.71-1.36,1.04c-.49.33-.94.65-1.37.98-.43.33-.79.66-1.09,1-.3.34-.47.72-.51,1.12h6.03v.28Z"/>
          </g>
          <g class="uuid-64af8302-5ccf-400f-8c52-55991020a131">
            <path class="uuid-b8673a03-6868-44fb-8893-2f150212e9a9" d="m785.13,894.8h-6.3c0-.39.07-.75.25-1.07.17-.32.4-.62.69-.9.28-.28.6-.55.96-.8.35-.25.7-.5,1.05-.75.36-.25.71-.5,1.05-.76.34-.26.64-.53.91-.81.27-.28.48-.58.64-.89.16-.32.24-.66.24-1.03s-.07-.69-.2-.97c-.13-.28-.31-.51-.54-.7-.23-.19-.5-.33-.82-.43-.32-.1-.66-.14-1.04-.14-.49,0-.9.07-1.25.22-.35.15-.63.35-.85.61s-.38.57-.48.94-.15.76-.15,1.19h-.27c0-1.03.26-1.82.76-2.39s1.25-.85,2.25-.85c.4,0,.78.05,1.13.16s.65.26.91.48.46.47.61.78.23.68.23,1.1c0,.51-.14.98-.41,1.4s-.62.82-1.04,1.18-.87.71-1.36,1.04c-.49.33-.94.65-1.37.98-.43.33-.79.66-1.09,1-.3.34-.47.72-.51,1.12h6.03v.28Z"/>
          </g>
          <g class="uuid-64af8302-5ccf-400f-8c52-55991020a131">
            <path class="uuid-c2080922-c497-4ffc-bc96-78b036a08b3f" d="m785.13,894.8h-6.3c0-.39.07-.75.25-1.07.17-.32.4-.62.69-.9.28-.28.6-.55.96-.8.35-.25.7-.5,1.05-.75.36-.25.71-.5,1.05-.76.34-.26.64-.53.91-.81.27-.28.48-.58.64-.89.16-.32.24-.66.24-1.03s-.07-.69-.2-.97c-.13-.28-.31-.51-.54-.7-.23-.19-.5-.33-.82-.43-.32-.1-.66-.14-1.04-.14-.49,0-.9.07-1.25.22-.35.15-.63.35-.85.61s-.38.57-.48.94-.15.76-.15,1.19h-.27c0-1.03.26-1.82.76-2.39s1.25-.85,2.25-.85c.4,0,.78.05,1.13.16s.65.26.91.48.46.47.61.78.23.68.23,1.1c0,.51-.14.98-.41,1.4s-.62.82-1.04,1.18-.87.71-1.36,1.04c-.49.33-.94.65-1.37.98-.43.33-.79.66-1.09,1-.3.34-.47.72-.51,1.12h6.03v.28Z"/>
          </g>
          <g class="uuid-64af8302-5ccf-400f-8c52-55991020a131">
            <path class="uuid-c2080922-c497-4ffc-bc96-78b036a08b3f" d="m1031.41,887c.15-.38.36-.7.64-.96.28-.26.62-.45,1.02-.58.4-.13.84-.19,1.33-.19.38,0,.74.04,1.09.12.35.08.66.22.94.4s.5.42.66.72c.17.29.25.65.25,1.06,0,.66-.19,1.17-.57,1.54-.38.37-.86.58-1.44.63v.03c.28.03.54.09.81.2s.5.26.7.45c.21.2.37.44.5.74.12.29.19.64.19,1.05,0,.44-.08.83-.25,1.17-.17.34-.4.63-.69.86-.29.23-.62.41-1,.53s-.79.18-1.22.18c-.53,0-1.01-.07-1.45-.22-.43-.15-.8-.36-1.1-.64-.3-.28-.53-.63-.68-1.04s-.21-.88-.17-1.42h.28c-.04.5.01.93.15,1.31.14.38.34.7.62.96.27.26.61.45,1.02.58.4.13.85.2,1.33.2.38,0,.74-.05,1.09-.16.35-.11.66-.26.92-.47s.48-.47.64-.78c.16-.31.24-.66.24-1.07s-.07-.75-.2-1.03c-.13-.28-.32-.52-.56-.7-.24-.18-.53-.32-.85-.41s-.68-.15-1.07-.17h-.67v-.28h.67c.3,0,.6-.03.9-.1.3-.07.57-.18.81-.34.24-.16.43-.37.58-.63.15-.26.22-.58.22-.97,0-.38-.09-.69-.25-.95-.16-.26-.36-.46-.61-.63-.25-.16-.53-.28-.84-.34-.31-.07-.63-.1-.96-.1-.45,0-.86.06-1.22.17-.36.12-.67.29-.93.52-.26.23-.45.53-.58.87s-.19.76-.19,1.22h-.28c0-.51.06-.96.21-1.34Z"/>
          </g>
          <g class="uuid-64af8302-5ccf-400f-8c52-55991020a131">
            <path class="uuid-b8673a03-6868-44fb-8893-2f150212e9a9" d="m1031.41,887c.15-.38.36-.7.64-.96.28-.26.62-.45,1.02-.58.4-.13.84-.19,1.33-.19.38,0,.74.04,1.09.12.35.08.66.22.94.4s.5.42.66.72c.17.29.25.65.25,1.06,0,.66-.19,1.17-.57,1.54-.38.37-.86.58-1.44.63v.03c.28.03.54.09.81.2s.5.26.7.45c.21.2.37.44.5.74.12.29.19.64.19,1.05,0,.44-.08.83-.25,1.17-.17.34-.4.63-.69.86-.29.23-.62.41-1,.53s-.79.18-1.22.18c-.53,0-1.01-.07-1.45-.22-.43-.15-.8-.36-1.1-.64-.3-.28-.53-.63-.68-1.04s-.21-.88-.17-1.42h.28c-.04.5.01.93.15,1.31.14.38.34.7.62.96.27.26.61.45,1.02.58.4.13.85.2,1.33.2.38,0,.74-.05,1.09-.16.35-.11.66-.26.92-.47s.48-.47.64-.78c.16-.31.24-.66.24-1.07s-.07-.75-.2-1.03c-.13-.28-.32-.52-.56-.7-.24-.18-.53-.32-.85-.41s-.68-.15-1.07-.17h-.67v-.28h.67c.3,0,.6-.03.9-.1.3-.07.57-.18.81-.34.24-.16.43-.37.58-.63.15-.26.22-.58.22-.97,0-.38-.09-.69-.25-.95-.16-.26-.36-.46-.61-.63-.25-.16-.53-.28-.84-.34-.31-.07-.63-.1-.96-.1-.45,0-.86.06-1.22.17-.36.12-.67.29-.93.52-.26.23-.45.53-.58.87s-.19.76-.19,1.22h-.28c0-.51.06-.96.21-1.34Z"/>
          </g>
          <g class="uuid-64af8302-5ccf-400f-8c52-55991020a131">
            <path class="uuid-c2080922-c497-4ffc-bc96-78b036a08b3f" d="m1031.41,887c.15-.38.36-.7.64-.96.28-.26.62-.45,1.02-.58.4-.13.84-.19,1.33-.19.38,0,.74.04,1.09.12.35.08.66.22.94.4s.5.42.66.72c.17.29.25.65.25,1.06,0,.66-.19,1.17-.57,1.54-.38.37-.86.58-1.44.63v.03c.28.03.54.09.81.2s.5.26.7.45c.21.2.37.44.5.74.12.29.19.64.19,1.05,0,.44-.08.83-.25,1.17-.17.34-.4.63-.69.86-.29.23-.62.41-1,.53s-.79.18-1.22.18c-.53,0-1.01-.07-1.45-.22-.43-.15-.8-.36-1.1-.64-.3-.28-.53-.63-.68-1.04s-.21-.88-.17-1.42h.28c-.04.5.01.93.15,1.31.14.38.34.7.62.96.27.26.61.45,1.02.58.4.13.85.2,1.33.2.38,0,.74-.05,1.09-.16.35-.11.66-.26.92-.47s.48-.47.64-.78c.16-.31.24-.66.24-1.07s-.07-.75-.2-1.03c-.13-.28-.32-.52-.56-.7-.24-.18-.53-.32-.85-.41s-.68-.15-1.07-.17h-.67v-.28h.67c.3,0,.6-.03.9-.1.3-.07.57-.18.81-.34.24-.16.43-.37.58-.63.15-.26.22-.58.22-.97,0-.38-.09-.69-.25-.95-.16-.26-.36-.46-.61-.63-.25-.16-.53-.28-.84-.34-.31-.07-.63-.1-.96-.1-.45,0-.86.06-1.22.17-.36.12-.67.29-.93.52-.26.23-.45.53-.58.87s-.19.76-.19,1.22h-.28c0-.51.06-.96.21-1.34Z"/>
          </g>
          <g class="uuid-64af8302-5ccf-400f-8c52-55991020a131">
            <path class="uuid-c2080922-c497-4ffc-bc96-78b036a08b3f" d="m1283.19,892.03l4.68-6.59h.34v6.65h1.69v.27h-1.69v2.44h-.28v-2.44h-4.75v-.33Zm4.72-6.21l-4.45,6.26h4.47v-6.26h-.03Z"/>
          </g>
          <g class="uuid-64af8302-5ccf-400f-8c52-55991020a131">
            <path class="uuid-b8673a03-6868-44fb-8893-2f150212e9a9" d="m1283.19,892.03l4.68-6.59h.34v6.65h1.69v.27h-1.69v2.44h-.28v-2.44h-4.75v-.33Zm4.72-6.21l-4.45,6.26h4.47v-6.26h-.03Z"/>
          </g>
          <g class="uuid-64af8302-5ccf-400f-8c52-55991020a131">
            <path class="uuid-c2080922-c497-4ffc-bc96-78b036a08b3f" d="m1283.19,892.03l4.68-6.59h.34v6.65h1.69v.27h-1.69v2.44h-.28v-2.44h-4.75v-.33Zm4.72-6.21l-4.45,6.26h4.47v-6.26h-.03Z"/>
          </g>
          <g class="uuid-64af8302-5ccf-400f-8c52-55991020a131">
            <path class="uuid-c2080922-c497-4ffc-bc96-78b036a08b3f" d="m1535.07,889.72h.03c.27-.44.62-.76,1.07-.96.44-.2.94-.3,1.49-.3.49,0,.93.08,1.32.24.39.16.73.38,1.02.67.28.28.5.63.66,1.03.16.4.23.83.23,1.3,0,.5-.08.95-.23,1.35-.16.4-.38.75-.66,1.03-.28.28-.62.5-1.02.65-.39.15-.83.23-1.32.23s-.92-.07-1.33-.21c-.41-.14-.76-.35-1.05-.61-.29-.27-.51-.59-.67-.98-.16-.39-.23-.84-.21-1.34h.28c-.02.46.04.87.18,1.22.14.36.34.66.6.91.26.25.58.44.96.56.38.13.79.19,1.24.19s.87-.07,1.23-.21c.36-.14.67-.34.93-.61.26-.26.45-.58.59-.95.14-.37.21-.78.21-1.23s-.07-.83-.21-1.19c-.14-.36-.34-.67-.6-.94-.26-.26-.57-.46-.94-.61-.37-.15-.77-.22-1.21-.22-.55,0-1.06.12-1.53.36-.47.24-.83.6-1.09,1.07h-.34l1-4.72h4.8v.28h-4.58l-.85,4Z"/>
          </g>
          <g class="uuid-64af8302-5ccf-400f-8c52-55991020a131">
            <path class="uuid-b8673a03-6868-44fb-8893-2f150212e9a9" d="m1535.07,889.72h.03c.27-.44.62-.76,1.07-.96.44-.2.94-.3,1.49-.3.49,0,.93.08,1.32.24.39.16.73.38,1.02.67.28.28.5.63.66,1.03.16.4.23.83.23,1.3,0,.5-.08.95-.23,1.35-.16.4-.38.75-.66,1.03-.28.28-.62.5-1.02.65-.39.15-.83.23-1.32.23s-.92-.07-1.33-.21c-.41-.14-.76-.35-1.05-.61-.29-.27-.51-.59-.67-.98-.16-.39-.23-.84-.21-1.34h.28c-.02.46.04.87.18,1.22.14.36.34.66.6.91.26.25.58.44.96.56.38.13.79.19,1.24.19s.87-.07,1.23-.21c.36-.14.67-.34.93-.61.26-.26.45-.58.59-.95.14-.37.21-.78.21-1.23s-.07-.83-.21-1.19c-.14-.36-.34-.67-.6-.94-.26-.26-.57-.46-.94-.61-.37-.15-.77-.22-1.21-.22-.55,0-1.06.12-1.53.36-.47.24-.83.6-1.09,1.07h-.34l1-4.72h4.8v.28h-4.58l-.85,4Z"/>
          </g>
          <g class="uuid-64af8302-5ccf-400f-8c52-55991020a131">
            <path class="uuid-c2080922-c497-4ffc-bc96-78b036a08b3f" d="m1535.07,889.72h.03c.27-.44.62-.76,1.07-.96.44-.2.94-.3,1.49-.3.49,0,.93.08,1.32.24.39.16.73.38,1.02.67.28.28.5.63.66,1.03.16.4.23.83.23,1.3,0,.5-.08.95-.23,1.35-.16.4-.38.75-.66,1.03-.28.28-.62.5-1.02.65-.39.15-.83.23-1.32.23s-.92-.07-1.33-.21c-.41-.14-.76-.35-1.05-.61-.29-.27-.51-.59-.67-.98-.16-.39-.23-.84-.21-1.34h.28c-.02.46.04.87.18,1.22.14.36.34.66.6.91.26.25.58.44.96.56.38.13.79.19,1.24.19s.87-.07,1.23-.21c.36-.14.67-.34.93-.61.26-.26.45-.58.59-.95.14-.37.21-.78.21-1.23s-.07-.83-.21-1.19c-.14-.36-.34-.67-.6-.94-.26-.26-.57-.46-.94-.61-.37-.15-.77-.22-1.21-.22-.55,0-1.06.12-1.53.36-.47.24-.83.6-1.09,1.07h-.34l1-4.72h4.8v.28h-4.58l-.85,4Z"/>
          </g>
          <g class="uuid-64af8302-5ccf-400f-8c52-55991020a131">
            <path class="uuid-c2080922-c497-4ffc-bc96-78b036a08b3f" d="m264.87,620.85c-.28.39-.65.74-1.11,1.03-.45.29-.92.5-1.38.63v-.28c.28-.09.54-.19.76-.3s.43-.23.62-.37c.19-.14.38-.29.56-.47.18-.17.36-.37.56-.59h.3v9.36h-.28v-9h-.03Z"/>
          </g>
          <g class="uuid-64af8302-5ccf-400f-8c52-55991020a131">
            <path class="uuid-b8673a03-6868-44fb-8893-2f150212e9a9" d="m264.87,620.85c-.28.39-.65.74-1.11,1.03-.45.29-.92.5-1.38.63v-.28c.28-.09.54-.19.76-.3s.43-.23.62-.37c.19-.14.38-.29.56-.47.18-.17.36-.37.56-.59h.3v9.36h-.28v-9h-.03Z"/>
          </g>
          <g class="uuid-64af8302-5ccf-400f-8c52-55991020a131">
            <path class="uuid-c2080922-c497-4ffc-bc96-78b036a08b3f" d="m264.87,620.85c-.28.39-.65.74-1.11,1.03-.45.29-.92.5-1.38.63v-.28c.28-.09.54-.19.76-.3s.43-.23.62-.37c.19-.14.38-.29.56-.47.18-.17.36-.37.56-.59h.3v9.36h-.28v-9h-.03Z"/>
          </g>
          <g class="uuid-64af8302-5ccf-400f-8c52-55991020a131">
            <path class="uuid-c2080922-c497-4ffc-bc96-78b036a08b3f" d="m267.86,377.53h-6.3c0-.39.07-.75.25-1.07s.4-.62.69-.9c.28-.28.6-.55.96-.8.35-.25.7-.5,1.05-.75.36-.25.71-.5,1.05-.76.34-.26.64-.53.91-.81.27-.28.48-.58.64-.89.16-.32.24-.66.24-1.03s-.07-.69-.2-.97c-.13-.28-.31-.51-.54-.7-.23-.19-.5-.33-.82-.43-.32-.1-.66-.14-1.04-.14-.49,0-.9.07-1.25.22-.35.15-.63.35-.85.61s-.38.57-.48.94c-.1.36-.15.76-.15,1.19h-.28c0-1.03.26-1.82.76-2.39.5-.56,1.25-.85,2.25-.85.4,0,.78.05,1.13.16.35.11.65.26.91.48s.46.47.61.78.23.68.23,1.1c0,.51-.14.98-.41,1.4-.28.42-.62.82-1.04,1.18-.42.37-.87.71-1.36,1.04-.49.33-.94.65-1.37.98-.43.33-.79.66-1.09,1-.3.34-.47.72-.51,1.12h6.03v.28Z"/>
          </g>
          <g class="uuid-64af8302-5ccf-400f-8c52-55991020a131">
            <path class="uuid-b8673a03-6868-44fb-8893-2f150212e9a9" d="m267.86,377.53h-6.3c0-.39.07-.75.25-1.07s.4-.62.69-.9c.28-.28.6-.55.96-.8.35-.25.7-.5,1.05-.75.36-.25.71-.5,1.05-.76.34-.26.64-.53.91-.81.27-.28.48-.58.64-.89.16-.32.24-.66.24-1.03s-.07-.69-.2-.97c-.13-.28-.31-.51-.54-.7-.23-.19-.5-.33-.82-.43-.32-.1-.66-.14-1.04-.14-.49,0-.9.07-1.25.22-.35.15-.63.35-.85.61s-.38.57-.48.94c-.1.36-.15.76-.15,1.19h-.28c0-1.03.26-1.82.76-2.39.5-.56,1.25-.85,2.25-.85.4,0,.78.05,1.13.16.35.11.65.26.91.48s.46.47.61.78.23.68.23,1.1c0,.51-.14.98-.41,1.4-.28.42-.62.82-1.04,1.18-.42.37-.87.71-1.36,1.04-.49.33-.94.65-1.37.98-.43.33-.79.66-1.09,1-.3.34-.47.72-.51,1.12h6.03v.28Z"/>
          </g>
          <g class="uuid-64af8302-5ccf-400f-8c52-55991020a131">
            <path class="uuid-c2080922-c497-4ffc-bc96-78b036a08b3f" d="m267.86,377.53h-6.3c0-.39.07-.75.25-1.07s.4-.62.69-.9c.28-.28.6-.55.96-.8.35-.25.7-.5,1.05-.75.36-.25.71-.5,1.05-.76.34-.26.64-.53.91-.81.27-.28.48-.58.64-.89.16-.32.24-.66.24-1.03s-.07-.69-.2-.97c-.13-.28-.31-.51-.54-.7-.23-.19-.5-.33-.82-.43-.32-.1-.66-.14-1.04-.14-.49,0-.9.07-1.25.22-.35.15-.63.35-.85.61s-.38.57-.48.94c-.1.36-.15.76-.15,1.19h-.28c0-1.03.26-1.82.76-2.39.5-.56,1.25-.85,2.25-.85.4,0,.78.05,1.13.16.35.11.65.26.91.48s.46.47.61.78.23.68.23,1.1c0,.51-.14.98-.41,1.4-.28.42-.62.82-1.04,1.18-.42.37-.87.71-1.36,1.04-.49.33-.94.65-1.37.98-.43.33-.79.66-1.09,1-.3.34-.47.72-.51,1.12h6.03v.28Z"/>
          </g>
          <g class="uuid-64af8302-5ccf-400f-8c52-55991020a131">
            <path class="uuid-c2080922-c497-4ffc-bc96-78b036a08b3f" d="m261.81,117.41c.15-.38.36-.7.64-.96.28-.26.62-.45,1.02-.58s.84-.19,1.33-.19c.38,0,.74.04,1.09.12.35.08.66.22.94.4.28.18.5.42.66.72.17.29.25.65.25,1.06,0,.66-.19,1.17-.57,1.54-.38.37-.86.58-1.44.63v.03c.28.03.54.09.81.2.26.11.5.26.7.45s.37.44.5.74c.12.29.19.64.19,1.05,0,.44-.08.83-.25,1.17-.17.34-.4.63-.69.86-.29.23-.62.41-1,.53-.38.12-.79.18-1.22.18-.53,0-1.01-.07-1.45-.22-.43-.15-.8-.36-1.1-.64-.3-.28-.53-.63-.68-1.04-.15-.41-.21-.89-.17-1.42h.28c-.04.5.01.93.15,1.31.14.38.34.7.62.96.28.26.61.45,1.02.58.4.13.85.2,1.33.2.38,0,.74-.05,1.09-.16.35-.1.66-.26.92-.47s.48-.47.64-.78c.16-.31.24-.66.24-1.07s-.07-.75-.2-1.03c-.13-.28-.32-.52-.56-.7-.24-.18-.53-.32-.85-.41s-.68-.15-1.07-.17h-.67v-.27h.67c.3,0,.6-.03.9-.1.3-.07.57-.18.8-.34s.43-.37.58-.63c.15-.26.22-.58.22-.97,0-.38-.09-.69-.25-.95s-.36-.47-.61-.63c-.25-.16-.53-.27-.84-.34-.31-.07-.63-.1-.96-.1-.45,0-.86.06-1.22.17-.36.11-.67.29-.93.52-.26.23-.45.53-.58.87-.13.35-.2.76-.19,1.22h-.28c0-.51.06-.96.21-1.34Z"/>
          </g>
          <g class="uuid-64af8302-5ccf-400f-8c52-55991020a131">
            <path class="uuid-b8673a03-6868-44fb-8893-2f150212e9a9" d="m261.81,117.41c.15-.38.36-.7.64-.96.28-.26.62-.45,1.02-.58s.84-.19,1.33-.19c.38,0,.74.04,1.09.12.35.08.66.22.94.4.28.18.5.42.66.72.17.29.25.65.25,1.06,0,.66-.19,1.17-.57,1.54-.38.37-.86.58-1.44.63v.03c.28.03.54.09.81.2.26.11.5.26.7.45s.37.44.5.74c.12.29.19.64.19,1.05,0,.44-.08.83-.25,1.17-.17.34-.4.63-.69.86-.29.23-.62.41-1,.53-.38.12-.79.18-1.22.18-.53,0-1.01-.07-1.45-.22-.43-.15-.8-.36-1.1-.64-.3-.28-.53-.63-.68-1.04-.15-.41-.21-.89-.17-1.42h.28c-.04.5.01.93.15,1.31.14.38.34.7.62.96.28.26.61.45,1.02.58.4.13.85.2,1.33.2.38,0,.74-.05,1.09-.16.35-.1.66-.26.92-.47s.48-.47.64-.78c.16-.31.24-.66.24-1.07s-.07-.75-.2-1.03c-.13-.28-.32-.52-.56-.7-.24-.18-.53-.32-.85-.41s-.68-.15-1.07-.17h-.67v-.27h.67c.3,0,.6-.03.9-.1.3-.07.57-.18.8-.34s.43-.37.58-.63c.15-.26.22-.58.22-.97,0-.38-.09-.69-.25-.95s-.36-.47-.61-.63c-.25-.16-.53-.27-.84-.34-.31-.07-.63-.1-.96-.1-.45,0-.86.06-1.22.17-.36.11-.67.29-.93.52-.26.23-.45.53-.58.87-.13.35-.2.76-.19,1.22h-.28c0-.51.06-.96.21-1.34Z"/>
          </g>
          <g class="uuid-64af8302-5ccf-400f-8c52-55991020a131">
            <path class="uuid-c2080922-c497-4ffc-bc96-78b036a08b3f" d="m261.81,117.41c.15-.38.36-.7.64-.96.28-.26.62-.45,1.02-.58s.84-.19,1.33-.19c.38,0,.74.04,1.09.12.35.08.66.22.94.4.28.18.5.42.66.72.17.29.25.65.25,1.06,0,.66-.19,1.17-.57,1.54-.38.37-.86.58-1.44.63v.03c.28.03.54.09.81.2.26.11.5.26.7.45s.37.44.5.74c.12.29.19.64.19,1.05,0,.44-.08.83-.25,1.17-.17.34-.4.63-.69.86-.29.23-.62.41-1,.53-.38.12-.79.18-1.22.18-.53,0-1.01-.07-1.45-.22-.43-.15-.8-.36-1.1-.64-.3-.28-.53-.63-.68-1.04-.15-.41-.21-.89-.17-1.42h.28c-.04.5.01.93.15,1.31.14.38.34.7.62.96.28.26.61.45,1.02.58.4.13.85.2,1.33.2.38,0,.74-.05,1.09-.16.35-.1.66-.26.92-.47s.48-.47.64-.78c.16-.31.24-.66.24-1.07s-.07-.75-.2-1.03c-.13-.28-.32-.52-.56-.7-.24-.18-.53-.32-.85-.41s-.68-.15-1.07-.17h-.67v-.27h.67c.3,0,.6-.03.9-.1.3-.07.57-.18.8-.34s.43-.37.58-.63c.15-.26.22-.58.22-.97,0-.38-.09-.69-.25-.95s-.36-.47-.61-.63c-.25-.16-.53-.27-.84-.34-.31-.07-.63-.1-.96-.1-.45,0-.86.06-1.22.17-.36.11-.67.29-.93.52-.26.23-.45.53-.58.87-.13.35-.2.76-.19,1.22h-.28c0-.51.06-.96.21-1.34Z"/>
          </g>
          <g class="uuid-64af8302-5ccf-400f-8c52-55991020a131">
            <path class="uuid-c2080922-c497-4ffc-bc96-78b036a08b3f" d="m267.99,891.87c-.11.58-.31,1.1-.58,1.56-.28.46-.64.83-1.09,1.11-.45.28-1.01.42-1.69.42s-1.23-.14-1.69-.42c-.45-.28-.82-.65-1.09-1.11-.28-.46-.47-.98-.58-1.56-.11-.58-.17-1.16-.17-1.75s.06-1.17.17-1.75c.11-.58.31-1.1.58-1.55.28-.46.64-.83,1.09-1.12.45-.28,1.02-.43,1.69-.43s1.24.14,1.69.43c.45.28.81.66,1.09,1.12.28.46.47.98.58,1.55.11.58.17,1.16.17,1.75s-.06,1.17-.17,1.75Zm-.25-3.34c-.1-.54-.28-1.03-.52-1.47-.25-.44-.58-.8-1-1.08s-.95-.42-1.59-.42-1.17.14-1.59.42c-.42.28-.75.64-1,1.08-.25.44-.42.93-.52,1.47-.1.54-.15,1.07-.15,1.6s.05,1.06.15,1.6c.1.54.28,1.03.52,1.47.25.44.58.8,1,1.08.42.28.95.42,1.59.42s1.17-.14,1.59-.42c.42-.28.75-.64,1-1.08.25-.44.42-.93.52-1.47.1-.54.15-1.07.15-1.6s-.05-1.05-.15-1.6Z"/>
          </g>
          <g class="uuid-64af8302-5ccf-400f-8c52-55991020a131">
            <path class="uuid-b8673a03-6868-44fb-8893-2f150212e9a9" d="m267.99,891.87c-.11.58-.31,1.1-.58,1.56-.28.46-.64.83-1.09,1.11-.45.28-1.01.42-1.69.42s-1.23-.14-1.69-.42c-.45-.28-.82-.65-1.09-1.11-.28-.46-.47-.98-.58-1.56-.11-.58-.17-1.16-.17-1.75s.06-1.17.17-1.75c.11-.58.31-1.1.58-1.55.28-.46.64-.83,1.09-1.12.45-.28,1.02-.43,1.69-.43s1.24.14,1.69.43c.45.28.81.66,1.09,1.12.28.46.47.98.58,1.55.11.58.17,1.16.17,1.75s-.06,1.17-.17,1.75Zm-.25-3.34c-.1-.54-.28-1.03-.52-1.47-.25-.44-.58-.8-1-1.08s-.95-.42-1.59-.42-1.17.14-1.59.42c-.42.28-.75.64-1,1.08-.25.44-.42.93-.52,1.47-.1.54-.15,1.07-.15,1.6s.05,1.06.15,1.6c.1.54.28,1.03.52,1.47.25.44.58.8,1,1.08.42.28.95.42,1.59.42s1.17-.14,1.59-.42c.42-.28.75-.64,1-1.08.25-.44.42-.93.52-1.47.1-.54.15-1.07.15-1.6s-.05-1.05-.15-1.6Z"/>
          </g>
          <g class="uuid-64af8302-5ccf-400f-8c52-55991020a131">
            <path class="uuid-c2080922-c497-4ffc-bc96-78b036a08b3f" d="m267.99,891.87c-.11.58-.31,1.1-.58,1.56-.28.46-.64.83-1.09,1.11-.45.28-1.01.42-1.69.42s-1.23-.14-1.69-.42c-.45-.28-.82-.65-1.09-1.11-.28-.46-.47-.98-.58-1.56-.11-.58-.17-1.16-.17-1.75s.06-1.17.17-1.75c.11-.58.31-1.1.58-1.55.28-.46.64-.83,1.09-1.12.45-.28,1.02-.43,1.69-.43s1.24.14,1.69.43c.45.28.81.66,1.09,1.12.28.46.47.98.58,1.55.11.58.17,1.16.17,1.75s-.06,1.17-.17,1.75Zm-.25-3.34c-.1-.54-.28-1.03-.52-1.47-.25-.44-.58-.8-1-1.08s-.95-.42-1.59-.42-1.17.14-1.59.42c-.42.28-.75.64-1,1.08-.25.44-.42.93-.52,1.47-.1.54-.15,1.07-.15,1.6s.05,1.06.15,1.6c.1.54.28,1.03.52,1.47.25.44.58.8,1,1.08.42.28.95.42,1.59.42s1.17-.14,1.59-.42c.42-.28.75-.64,1-1.08.25-.44.42-.93.52-1.47.1-.54.15-1.07.15-1.6s-.05-1.05-.15-1.6Z"/>
          </g>
          <path class="uuid-b8b993f0-77f4-4e3f-a3df-975953e402d9" d="m278,860.56v15.9-15.9l1.15-7.38h0l1.15-5.55h0l1.15-4.64h0l1.15-4.07h0l1.15-3.67h0l1.15-3.37h0l1.15-3.13h0l1.15-2.94h0l1.15-2.78h0l1.15-2.64h0l1.15-2.52h0l1.15-2.42h0l1.15-2.33h0l1.15-2.24h0l1.15-2.17h0l1.15-2.1h0l1.15-2.04h0l1.15-1.98h0l1.15-1.93h0l1.15-1.88h0l1.15-1.84h0l1.15-1.8h0l1.15-1.76h0l1.15-1.72h0l1.15-1.69h0l1.15-1.66h0l1.15-1.63h0l1.15-1.6h0l1.15-1.57h0l1.15-1.54h0l1.15-1.52h0l1.15-1.49h0l1.15-1.47h0l1.15-1.45h0l1.15-1.43h0l1.15-1.41h0l1.15-1.39h0l1.15-1.37h0l1.15-1.36h0l1.15-1.34h0l1.15-1.32h0l1.15-1.31h0l1.15-1.29h0l1.15-1.28h0l1.15-1.26h0l1.15-1.25h0l1.15-1.24h0l1.15-1.22h0l1.15-1.21h0l1.15-1.2h0l1.15-1.19h0l1.15-1.18h0l1.15-1.16h0l1.15-1.15h0l1.15-1.14h0l1.15-1.13h0l1.15-1.12h0l1.15-1.11h0l1.15-1.1h0l1.15-1.09h0l1.15-1.09h0l1.15-1.08h0l1.15-1.07h0l1.15-1.06h0l1.15-1.05h0l1.15-1.04h0l1.15-1.04h0l1.15-1.03h0l1.15-1.02h0l1.15-1.01h0l1.15-1.01h0l1.15-1h0l1.15-.99h0l1.15-.99h0l1.15-.98h0l1.15-.97h0l1.15-.97h0l1.15-.96h0l1.15-.95h0l1.15-.95h0l1.15-.94h0l1.15-.94h0l1.15-.93h0l1.15-.93h0l1.15-.92h0l1.15-.92h0l1.15-.91h0l1.15-.9h0l1.15-.9h0l1.15-.89h0l1.15-.89h0l1.15-.88h0l1.15-.88h0l1.15-.88h0l1.15-.87h0l1.15-.87h0l1.15-.86h0l1.15-.86h0l1.15-.85h0l1.15-.85h0l1.15-.84h0l1.15-.84h0l1.15-.84h0l1.15-.83h0l1.15-.83h0l1.15-.82h0l1.15-.82h0l1.15-.82h0l1.15-.81h0l1.15-.81h0l1.15-.81h0l1.15-.8h0l1.15-.8h0l1.15-.8h0l1.15-.79h0l1.15-.79h0l1.15-.78h0l1.15-.78h0l1.15-.78h0l1.15-.78h0l1.15-.77h0l1.15-.77h0l1.15-.77h0l1.15-.76h0l1.15-.76h0l1.15-.76h0l1.15-.75h0l1.15-.75h0l1.15-.75h0l1.15-.74h0l1.15-.74h0l1.15-.74h0l1.15-.74h0l1.15-.73h0l1.15-.73h0l1.15-.73h0l1.15-.73h0l1.15-.72h0l1.15-.72h0l1.15-.72h0l1.15-.72h0l1.15-.71h0l1.15-.71h0l1.15-.71h0l1.15-.71h0l1.15-.7h0l1.15-.7h0l1.15-.7h0l1.15-.7h0l1.15-.69h0l1.15-.69h0l1.15-.69h0l1.15-.69h0l1.15-.68h0l1.15-.68h0l1.15-.68h0l1.15-.68h0l1.15-.68h0l1.15-.67h0l1.15-.67h0l1.15-.67h0l1.15-.67h0l1.15-.67h0l1.15-.66h0l1.15-.66h0l1.15-.66h0l1.15-.66h0l1.15-.66h0l1.15-.65h0l1.15-.65h0l1.15-.65h0l1.15-.65h0l1.15-.65h0l1.15-.64h0l1.15-.64h0l1.15-.64h0l1.15-.64h0l1.15-.64h0l1.15-.63h0l1.15-.63h0l1.15-.63h0l1.15-.63h0l1.15-.63h0l1.15-.63h0l1.15-.62h0l1.15-.62h0l1.15-.62h0l1.15-.62h0l1.15-.62h0l1.15-.62h0l1.15-.61h0l1.15-.61h0l1.15-.61h0l1.15-.61h0l1.15-.61h0l1.15-.61h0l1.15-.61h0l1.15-.6h0l1.15-.6h0l1.15-.6h0l1.15-.6h0l1.15-.6h0l1.15-.6h0l1.15-.59h0l1.15-.59h0l1.15-.59h0l1.15-.59h0l1.15-.59h0l1.15-.59h0l1.15-.59h0l1.15-.58h0l1.15-.58h0l1.15-.58h0l1.15-.58h0l1.15-.58h0l1.15-.58h0l1.15-.58h0l1.15-.58h0l1.15-.57h0l1.15-.57h0l1.15-.57h0l1.15-.57h0l1.15-.57h0l1.15-.57h0l1.15-.57h0l1.15-.57h0l1.15-.56h0l1.15-.56h0l1.15-.56h0l1.15-.56h0l1.15-.56h0l1.15-.56h0l1.15-.56h0l1.15-.56h0l1.15-.55h0l1.15-.55h0l1.15-.55h0l1.15-.55h0l1.15-.55h0l1.15-.55h0l1.15-.55h0l1.15-.55h0l1.15-.55h0l1.15-.54h0l1.15-.54h0l1.15-.54h0l1.15-.54h0l1.15-.54h0l1.15-.54h0l1.15-.54h0l1.15-.54h0l1.15-.54h0l1.15-.53h0l1.15-.53h0l1.15-.53h0l1.15-.53h0l1.15-.53h0l1.15-.53h0l1.15-.53h0l1.15-.53h0l1.15-.53h0l1.15-.53h0l1.15-.52h0l1.15-.52h0l1.15-.52h0l1.15-.52h0l1.15-.52h0l1.15-.52h0l1.15-.52h0l1.15-.52h0l1.15-.52h0l1.15-.52h0l1.15-.51h0l1.15-.51h0l1.15-.51h0l1.15-.51h0l1.15-.51h0l1.15-.51h0l1.15-.51h0l1.15-.51h0l1.15-.51h0l1.15-.51h0l1.15-.51h0l1.15-.5h0l1.15-.5h0l1.15-.5h0l1.15-.5h0l1.15-.5h0l1.15-.5h0l1.15-.5h0l1.15-.5h0l1.15-.5h0l1.15-.5h0l1.15-.5h0l1.15-.49h0l1.15-.49h0l1.15-.49h0l1.15-.49h0l1.15-.49h0l1.15-.49h0l1.15-.49h0l1.15-.49h0l1.15-.49h0l1.15-.49h0l1.15-.49h0l1.15-.49h0l1.15-.49h0l1.15-.48h0l1.15-.48h0l1.15-.48h0l1.15-.48h0l1.15-.48h0l1.15-.48h0l1.15-.48h0l1.15-.48h0l1.15-.48h0l1.15-.48h0l1.15-.48h0l1.15-.48h0l1.15-.48h0l1.15-.47h0l1.15-.47h0l1.15-.47h0l1.15-.47h0l1.15-.47h0l1.15-.47h0l1.15-.47h0l1.15-.47h0l1.15-.47h0l1.15-.47h0l1.15-.47h0l1.15-.47h0l1.15-.47h0l1.15-.47h0l1.15-.46h0l1.15-.46h0l1.15-.46h0l1.15-.46h0l1.15-.46h0l1.15-.46h0l1.15-.46h0l1.15-.46h0l1.15-.46h0l1.15-.46h0l1.15-.46h0l1.15-.46h0l1.15-.46h0l1.15-.46h0l1.15-.45h0l1.15-.45h0l1.15-.45h0l1.15-.45h0l1.15-.45h0l1.15-.45h0l1.15-.45h0l1.15-.45h0l1.15-.45h0l1.15-.45h0l1.15-.45h0l1.15-.45h0l1.15-.45h0l1.15-.45h0l1.15-.45h0l1.15-.45h0l1.15-.44h0l1.15-.44h0l1.15-.44h0l1.15-.44h0l1.15-.44h0l1.15-.44h0l1.15-.44h0l1.15-.44h0l1.15-.44h0l1.15-.44h0l1.15-.44h0l1.15-.44h0l1.15-.44h0l1.15-.44h0l1.15-.44h0l1.15-.44h0l1.15-.44h0l1.15-.43h0l1.15-.43h0l1.15-.43h0l1.15-.43h0l1.15-.43h0l1.15-.43h0l1.15-.43h0l1.15-.43h0l1.15-.43h0l1.15-.43h0l1.15-.43h0l1.15-.43h0l1.15-.43h0l1.15-.43h0l1.15-.43h0l1.15-.43h0l1.15-.43h0l1.15-.43h0l1.15-.42h0l1.15-.42h0l1.15-.42h0l1.15-.42h0l1.15-.42h0l1.15-.42h0l1.15-.42h0l1.15-.42h0l1.15-.42h0l1.15-.42h0l1.15-.42h0l1.15-.42h0l1.15-.42h0l1.15-.42h0l1.15-.42h0l1.15-.42h0l1.15-.42h0l1.15-.42h0l1.15-.42h0l1.15-.42h0l1.15-.41h0l1.15-.41h0l1.15-.41h0l1.15-.41h0l1.15-.41h0l1.15-.41h0l1.15-.41h0l1.15-.41h0l1.15-.41h0l1.15-.41h0l1.15-.41h0l1.15-.41h0l1.15-.41h0l1.15-.41h0l1.15-.41h0l1.15-.41h0l1.15-.41h0l1.15-.41h0l1.15-.41h0l1.15-.41h0l1.15-.41h0l1.15-.4h0l1.15-.4h0l1.15-.4h0l1.15-.4h0l1.15-.4h0l1.15-.4h0l1.15-.4h0l1.15-.4h0l1.15-.4h0l1.15-.4h0l1.15-.4h0l1.15-.4h0l1.15-.4h0l1.15-.4h0l1.15-.4h0l1.15-.4h0l1.15-.4h0l1.15-.4h0l1.15-.4h0l1.15-.4h0l1.15-.4h0l1.15-.4h0l1.15-.4h0l1.15-.39h0l1.15-.39h0l1.15-.39h0l1.15-.39h0l1.15-.39h0l1.15-.39h0l1.15-.39h0l1.15-.39h0l1.15-.39h0l1.15-.39h0l1.15-.39h0l1.15-.39h0l1.15-.39h0l1.15-.39h0l1.15-.39h0l1.15-.39h0l1.15-.39h0l1.15-.39h0l1.15-.39h0l1.15-.39h0l1.15-.39h0l1.15-.39h0l1.15-.39h0l1.15-.39h0l1.15-.38h0l1.15-.38h0l1.15-.38h0l1.15-.38h0l1.15-.38h0l1.15-.38h0l1.15-.38h0l1.15-.38h0l1.15-.38h0l1.15-.38h0l1.15-.38h0l1.15-.38h0l1.15-.38h0l1.15-.38h0l1.15-.38h0l1.15-.38h0l1.15-.38h0l1.15-.38h0l1.15-.38h0l1.15-.38h0l1.15-.38h0l1.15-.38h0l1.15-.38h0l1.15-.38h0l1.15-.38h0l1.15-.38h0l1.15-.37h0l1.15-.37h0l1.15-.37h0l1.15-.37h0l1.15-.37h0l1.15-.37h0l1.15-.37h0l1.15-.37h0l1.15-.37h0l1.15-.37h0l1.15-.37h0l1.15-.37h0l1.15-.37h0l1.15-.37h0l1.15-.37h0l1.15-.37h0l1.15-.37h0l1.15-.37h0l1.15-.37h0l1.15-.37h0l1.15-.37h0l1.15-.37h0l1.15-.37h0l1.15-.37h0l1.15-.37h0l1.15-.37h0l1.15-.37h0l1.15-.37h0l1.15-.37h0l1.15-.36h0l1.15-.36h0l1.15-.36h0l1.15-.36h0l1.15-.36h0l1.15-.36h0l1.15-.36h0l1.15-.36h0l1.15-.36h0l1.15-.36h0l1.15-.36h0l1.15-.36h0l1.15-.36h0l1.15-.36h0l1.15-.36h0l1.15-.36h0l1.15-.36h0l1.15-.36h0l1.15-.36h0l1.15-.36h0l1.15-.36h0l1.15-.36h0l1.15-.36h0l1.15-.36h0l1.15-.36h0l1.15-.36h0l1.15-.36h0l1.15-.36h0l1.15-.36h0l1.15-.36h0l1.15-.36h0l1.15-.35h0l1.15-.35h0l1.15-.35h0l1.15-.35h0l1.15-.35h0l1.15-.35h0l1.15-.35h0l1.15-.35h0l1.15-.35h0l1.15-.35h0l1.15-.35h0l1.15-.35h0l1.15-.35h0l1.15-.35h0l1.15-.35h0l1.15-.35h0l1.15-.35h0l1.15-.35h0l1.15-.35h0l1.15-.35h0l1.15-.35h0l1.15-.35h0l1.15-.35h0l1.15-.35h0l1.15-.35h0l1.15-.35h0l1.15-.35h0l1.15-.35h0l1.15-.35h0l1.15-.35h0l1.15-.35h0l1.15-.35h0l1.15-.35h0l1.15-.35h0l1.15-.34h0l1.15-.34h0l1.15-.34h0l1.15-.34h0l1.15-.34h0l1.15-.34h0l1.15-.34h0l1.15-.34h0l1.15-.34h0l1.15-.34h0l1.15-.34h0l1.15-.34h0l1.15-.34h0l1.15-.34h0l1.15-.34h0l1.15-.34h0l1.15-.34h0l1.15-.34h0l1.15-.34h0l1.15-.34h0l1.15-.34h0l1.15-.34h0l1.15-.34h0l1.15-.34h0l1.15-.34h0l1.15-.34h0l1.15-.34h0l1.15-.34h0l1.15-.34h0l1.15-.34h0l1.15-.34h0l1.15-.34h0l1.15-.34h0l1.15-.34h0l1.15-.34h0l1.15-.34h0l1.15-.34h0l1.15-.33h0l1.15-.33h0l1.15-.33h0l1.15-.33h0l1.15-.33h0l1.15-.33h0l1.15-.33h0l1.15-.33h0l1.15-.33h0l1.15-.33h0l1.15-.33h0l1.15-.33h0l1.15-.33h0l1.15-.33h0l1.15-.33h0l1.15-.33h0l1.15-.33h0l1.15-.33h0l1.15-.33h0l1.15-.33h0l1.15-.33h0l1.15-.33h0l1.15-.33h0l1.15-.33h0l1.15-.33h0l1.15-.33h0l1.15-.33h0l1.15-.33h0l1.15-.33h0l1.15-.33h0l1.15-.33h0l1.15-.33h0l1.15-.33h0l1.15-.33h0l1.15-.33h0l1.15-.33h0l1.15-.33h0l1.15-.33h0l1.15-.33h0l1.15-.33h0l1.15-.32h0l1.15-.32h0l1.15-.32h0l1.15-.32h0l1.15-.32h0l1.15-.32h0l1.15-.32h0l1.15-.32h0l1.15-.32h0l1.15-.32h0l1.15-.32h0l1.15-.32h0l1.15-.32h0l1.15-.32h0l1.15-.32h0l1.15-.32h0l1.15-.32h0l1.15-.32h0l1.15-.32h0l1.15-.32h0l1.15-.32h0l1.15-.32h0l1.15-.32h0l1.15-.32h0l1.15-.32h0l1.15-.32h0l1.15-.32h0l1.15-.32h0l1.15-.32h0l1.15-.32h0l1.15-.32h0l1.15-.32h0l1.15-.32h0l1.15-.32h0l1.15-.32h0l1.15-.32h0l1.15-.32h0l1.15-.32h0l1.15-.32h0l1.15-.32h0l1.15-.32h0l1.15-.32h0l1.15-.32h0l1.15-.32h0l1.15-.31h0l1.15-.31h0l1.15-.31h0l1.15-.31h0l1.15-.31h0l1.15-.31h0l1.15-.31h0l1.15-.31h0l1.15-.31h0l1.15-.31h0l1.15-.31h0l1.15-.31h0l1.15-.31h0l1.15-.31h0l1.15-.31h0l1.15-.31h0l1.15-.31h0l1.15-.31h0l1.15-.31h0l1.15-.31h0l1.15-.31h0l1.15-.31h0l1.15-.31h0l1.15-.31h0l1.15-.31h0l1.15-.31h0l1.15-.31h0l1.15-.31h0l1.15-.31h0l1.15-.31h0l1.15-.31h0l1.15-.31h0l1.15-.31h0l1.15-.31h0l1.15-.31h0l1.15-.31h0l1.15-.31h0l1.15-.31h0l1.15-.31h0l1.15-.31h0l1.15-.31h0l1.15-.31h0l1.15-.31h0l1.15-.31h0l1.15-.31h0l1.15-.31h0l1.15-.31h0l1.15-.31h0l1.15-.3h0l1.15-.3h0l1.15-.3h0l1.15-.3h0l1.15-.3h0l1.15-.3h0l1.15-.3h0l1.15-.3h0l1.15-.3h0l1.15-.3h0l1.15-.3h0l1.15-.3h0l1.15-.3h0l1.15-.3h0l1.15-.3h0l1.15-.3h0l1.15-.3h0l1.15-.3h0l1.15-.3h0l1.15-.3h0l1.15-.3h0l1.15-.3h0l1.15-.3h0l1.15-.3h0l1.15-.3h0l1.15-.3h0l1.15-.3h0l1.15-.3h0l1.15-.3h0l1.15-.3h0l1.15-.3h0l1.15-.3h0l1.15-.3h0l1.15-.3h0l1.15-.3h0l1.15-.3h0l1.15-.3h0l1.15-.3h0l1.15-.3h0l1.15-.3h0l1.15-.3h0l1.15-.3h0l1.15-.3h0l1.15-.3h0l1.15-.3h0l1.15-.3h0l1.15-.3h0l1.15-.3h0l1.15-.3h0l1.15-.3h0l1.15-.3h0l1.15-.3h0l1.15-.3h0l1.15-.3h0l1.15-.29h0l1.15-.29h0l1.15-.29h0l1.15-.29h0l1.15-.29h0l1.15-.29h0l1.15-.29h0l1.15-.29h0l1.15-.29h0l1.15-.29h0l1.15-.29h0l1.15-.29h0l1.15-.29h0l1.15-.29h0l1.15-.29h0l1.15-.29h0l1.15-.29h0l1.15-.29h0l1.15-.29h0l1.15-.29h0l1.15-.29h0l1.15-.29h0l1.15-.29h0l1.15-.29h0l1.15-.29h0l1.15-.29h0l1.15-.29h0l1.15-.29h0l1.15-.29h0l1.15-.29h0l1.15-.29h0l1.15-.29h0l1.15-.29h0l1.15-.29h0l1.15-.29h0l1.15-.29h0l1.15-.29h0l1.15-.29h0l1.15-.29h0l1.15-.29h0l1.15-.29h0l1.15-.29h0l1.15-.29h0l1.15-.29h0l1.15-.29h0l1.15-.29h0l1.15-.29h0l1.15-.29h0l1.15-.29h0l1.15-.29h0l1.15-.29h0l1.15-.29h0l1.15-.29h0l1.15-.29h0l1.15-.29h0l1.15-.29h0l1.15-.29h0l1.15-.29h0l1.15-.29h0l1.15-.28h0l1.15-.28h0l1.15-.28h0l1.15-.28h0l1.15-.28h0l1.15-.28h0l1.15-.28h0l1.15-.28h0l1.15-.28h0l1.15-.28h0l1.15-.28h0l1.15-.28h0l1.15-.28h0l1.15-.28h0l1.15-.28h0l1.15-.28h0l1.15-.28h0l1.15-.28h0l1.15-.28h0l1.15-.28h0l1.15-.28h0l1.15-.28h0l1.15-.28h0l1.15-.28h0l1.15-.28h0l1.15-.28h0l1.15-.28h0l1.15-.28h0l1.15-.28h0l1.15-.28h0l1.15-.28h0l1.15-.28h0l1.15-.28h0l1.15-.28h0l1.15-.28h0l1.15-.28h0l1.15-.28h0l1.15-.28h0l1.15-.28h0l1.15-.28h0l1.15-.28h0l1.15-.28h0l1.15-.28h0l1.15-.28h0l1.15-.28h0l1.15-.28h0l1.15-.28h0l1.15-.28h0l1.15-.28h0l1.15-.28h0l1.15-.28h0l1.15-.28h0l1.15-.28h0l1.15-.28h0l1.15-.28h0l1.15-.28h0l1.15-.28h0l1.15-.28h0l1.15-.28h0l1.15-.28h0l1.15-.28h0l1.15-.28h0l1.15-.28h0l1.15-.28h0l1.15-.28h0l1.15-.28h0l1.15-.27h0l1.15-.27h0l1.15-.27h0l1.15-.27h0l1.15-.27h0l1.15-.27h0l1.15-.27h0l1.15-.27h0l1.15-.27h0l1.15-.27h0l1.15-.27h0l1.15-.27h0l1.15-.27h0l1.15-.27h0l1.15-.27h0l1.15-.27h0l1.15-.27h0l1.15-.27h0l1.15-.27h0l1.15-.27h0l1.15-.27h0l1.15-.27h0l1.15-.27h0l1.15-.27h0l1.15-.27h0l1.15-.27h0l1.15-.27h0l1.15-.27h0l1.15-.27h0l1.15-.27h0l1.15-.27h0l1.15-.27h0l1.15-.27h0l1.15-.27h0l1.15-.27h0l1.15-.27h0l1.15-.27h0l1.15-.27h0l1.15-.27h0l1.15-.27h0l1.15-.27h0l1.15-.27h0l1.15-.27h0l1.15-.27h0l1.15-.27h0l1.15-.27h0l1.15-.27h0l1.15-.27h0l1.15-.27h0l1.15-.27h0l1.15-.27h0l1.15-.27h0l1.15-.27h0l1.15-.27h0l1.15-.27h0l1.15-.27h0l1.15-.27h0l1.15-.27h0l1.15-.27h0l1.15-.27h0l1.15-.27h0l1.15-.27h0l1.15-.27h0l1.15-.27h0l1.15-.27h0l1.15-.27h0l1.15-.27h0l1.15-.27h0l1.15-.27h0l1.15-.27h0l1.15-.27h0l1.15-.27h0l1.15-.27h0l1.15-.27h0l1.15-.26h0l1.15-.26h0l1.15-.26h0l1.15-.26h0l1.15-.26h0l1.15-.26h0l1.15-.26h0l1.15-.26h0l1.15-.26h0l1.15-.26h0l1.15-.26h0l1.15-.26h0l1.15-.26h0l1.15-.26h0l1.15-.26h0l1.15-.26h0l1.15-.26h0l1.15-.26h0l1.15-.26h0l1.15-.26h0l1.15-.26h0l1.15-.26h0l1.15-.26h0l1.15-.26h0l1.15-.26h0l1.15-.26h0l1.15-.26h0l1.15-.26h0l1.15-.26h0l1.15-.26h0l1.15-.26h0l1.15-.26h0l1.15-.26h0l1.15-.26h0l1.15-.26h0l1.15-.26h0l1.15-.26h0l1.15-.26h0l1.15-.26h0l1.15-.26h0l1.15-.26h0l1.15-.26h0l1.15-.26h0l1.15-.26h0l1.15-.26h0l1.15-.26h0l1.15-.26h0l1.15-.26h0l1.15-.26h0l1.15-.26h0l1.15-.26h0l1.15-.26h0l1.15-.26h0l1.15-.26h0l1.15-.26h0l1.15-.26h0l1.15-.26h0l1.15-.26h0l1.15-.26h0l1.15-.26h0l1.15-.26h0l1.15-.26h0l1.15-.26h0l1.15-.26h0l1.15-.26h0l1.15-.26h0l1.15-.26h0l1.15-.26h0l1.15-.26h0l1.15-.26h0l1.15-.26h0l1.15-.26h0l1.15-.26h0l1.15-.26h0l1.15-.26h0l1.15-.26h0l1.15-.26h0l1.15-.26h0l1.15-.26h0l1.15-.26h0l1.15-.26h0l1.15-.26h0l1.15-.25h0l1.15-.25h0l1.15-.25h0l1.15-.25h0l1.15-.25h0l1.15-.25h0l1.15-.25h0l1.15-.25h0l1.15-.25h0l1.15-.25h0l1.15-.25h0l1.15-.25h0l1.15-.25h0l1.15-.25h0l1.15-.25h0l1.15-.25h0l1.15-.25h0l1.15-.25h0l1.15-.25h0l1.15-.25h0l1.15-.25h0l1.15-.25h0l1.15-.25h0l1.15-.25h0l1.15-.25h0l1.15-.25h0l1.15-.25h0l1.15-.25h0l1.15-.25h0l1.15-.25h0l1.15-.25h0l1.15-.25h0l1.15-.25h0l1.15-.25h0l1.15-.25h0l1.15-.25h0l1.15-.25h0l1.15-.25h0l1.15-.25h0l1.15-.25h0l1.15-.25h0l1.15-.25h0l1.15-.25h0l1.15-.25h0l1.15-.25h0l1.15-.25h0l1.15-.25h0l1.15-.25h0l1.15-.25h0l1.15-.25h0l1.15-.25h0l1.15-.25h0l1.15-.25h0l1.15-.25h0l1.15-.25h0l1.15-.25h0l1.15-.25h0l1.15-.25h0l1.15-.25h0l1.15-.25h0l1.15-.25h0l1.15-.25h0l1.15-.25h0l1.15-.25h0l1.15-.25h0l1.15-.25h0l1.15-.25h0l1.15-.25h0l1.15-.25h0l1.15-.25h0l1.15-.25h0l1.15-.25h0l1.15-.25h0l1.15-.25h0l1.15-.25h0l1.15-.25h0l1.15-.25h0l1.15-.25h0l1.15-.25h0l1.15-.25h0l1.15-.25h0l1.15-.25h0l1.15-.25h0l1.15-.25h0l1.15-.25h0l1.15-.25h0l1.15-.25h0l1.15-.25h0l1.15-.25h0l1.15-.25h0l1.15-.25h0l1.15-.25h0l1.15-.25h0l1.15-.24h0l1.15-.24h0l1.15-.24h0l1.15-.24h0l1.15-.24h0l1.15-.24h0l1.15-.24h0l1.15-.24h0l1.15-.24h0l1.15-.24h0l1.15-.24h0l1.15-.24h0l1.15-.24h0l1.15-.24h0l1.15-.24h0l1.15-.24h0l1.15-.24h0l1.15-.24h0l1.15-.24h0l1.15-.24h0l1.15-.24h0l1.15-.24"/>
        </g>
      </g>
    </g>
  </g>
  <g id="uuid-76b80a9b-8cc5-4a3d-85fb-649cf370f41e" data-name="Marco">
    <path class="uuid-cf1d24b7-55a7-4846-b54a-66b279a0aee9" d="m-2.43-2V1022h1682.43V-2H-2.43Zm1665.43,987c0,11.05-8.95,20-20,20H34.57c-11.05,0-20-8.95-20-20V35c0-11.05,8.95-20,20-20h1608.43c11.05,0,20,8.95,20,20v950Z"/>
  </g>
  <g id="uuid-240cfb9e-0a33-46d5-bea4-a9d687227a84" data-name="Texto">
    <g>
      <path class="uuid-76dfd998-0656-420a-927f-c822d6b4bf63" d="m664.64,441.11c-.6,2.83-1.52,4.93-2.75,6.32-1.24,1.39-2.79,2.08-4.67,2.08-.55,0-.98-.03-1.29-.1l.33-1.72c.13.04.44.06.92.06.59,0,1.09-.15,1.5-.45.42-.3.8-.82,1.16-1.56.36-.74.69-1.77.99-3.09l4.2-18.57h-3.3l.29-1.35c.87-.05,1.5-.12,1.88-.21.38-.09.68-.23.9-.41s.4-.42.55-.71c.15-.29.34-.83.58-1.61.69-2.34,1.75-4.1,3.19-5.28,1.44-1.18,3.27-1.77,5.5-1.77,1.28,0,2.38.1,3.3.31l-.76,3.32h-1.72c-.18-.74-.42-1.28-.71-1.6s-.73-.49-1.3-.49c-.74,0-1.37.21-1.88.62-.51.41-.95,1.02-1.32,1.83-.36.81-.7,1.89-1.02,3.26l-.49,2.13h5.02l-.43,1.97h-5.04l-3.63,17.03Z"/>
      <path class="uuid-76dfd998-0656-420a-927f-c822d6b4bf63" d="m685.99,430.21c0,4.8.72,8.68,2.15,11.63,1.43,2.95,3.57,4.83,6.41,5.63l-.31,1.89c-4.19-.82-7.34-2.87-9.44-6.16-2.1-3.29-3.15-7.56-3.15-12.8,0-5.59,1.05-10.02,3.15-13.31,2.1-3.29,5.25-5.22,9.44-5.81l.31,1.89c-2.84.57-4.97,2.33-6.41,5.28-1.43,2.95-2.15,6.87-2.15,11.75Z"/>
      <path class="uuid-76dfd998-0656-420a-927f-c822d6b4bf63" d="m704.83,431.95c-.2-1.03-.4-2.02-.61-2.97-.21-.95-.42-1.84-.64-2.66-.22-.82-.4-1.36-.55-1.61-.14-.25-.3-.43-.46-.53-.16-.1-.37-.15-.62-.15-.27,0-.52.06-.74.19-.22.12-.46.34-.72.64-.26.31-.61.78-1.04,1.44l-1.27-.84c.82-1.24,1.61-2.16,2.36-2.77.75-.61,1.65-.92,2.68-.92.4,0,.76.05,1.06.14.31.09.58.23.81.42s.44.43.62.73c.18.3.36.71.53,1.22.17.51.33,1.15.48,1.91.15.76.28,1.55.4,2.37h.2c1.25-1.76,2.2-3.04,2.84-3.86s1.19-1.42,1.63-1.82c.44-.4.87-.68,1.28-.84s.95-.24,1.63-.24c.61,0,1.11.08,1.5.23l-.78,3.54h-1.37c-.08-.55-.31-.82-.68-.82-.12,0-.24.02-.37.06-.13.04-.29.12-.48.25-.19.13-.47.38-.83.76-.36.38-.77.84-1.23,1.39-.46.55-.92,1.12-1.41,1.72l-1.33,1.66c.23,1.25.46,2.33.66,3.24.21.91.39,1.67.56,2.28.16.61.31,1.08.43,1.44.12.35.26.62.4.79.14.18.29.3.44.37.15.07.32.11.52.11.35,0,.69-.14,1.03-.41s.81-.89,1.44-1.86l1.27.84c-.91,1.35-1.74,2.31-2.47,2.86-.74.55-1.61.83-2.63.83-.56,0-1.04-.1-1.43-.3s-.73-.52-1.02-.97c-.29-.44-.54-1.13-.76-2.07-.4-1.67-.65-2.94-.74-3.83h-.2c-1.38,1.94-2.41,3.33-3.08,4.18-.67.85-1.22,1.47-1.66,1.88-.44.4-.86.69-1.27.85s-.95.24-1.63.24c-.61,0-1.11-.08-1.5-.23l.78-3.54h1.37c.08.55.31.82.68.82.18,0,.37-.05.58-.15.2-.1.49-.33.87-.7.38-.37.9-.95,1.56-1.75s1.63-1.99,2.89-3.57Z"/>
      <path class="uuid-76dfd998-0656-420a-927f-c822d6b4bf63" d="m726.34,430.21c0-4.88-.72-8.8-2.15-11.75-1.43-2.95-3.57-4.71-6.41-5.28l.31-1.89c4.19.59,7.34,2.52,9.44,5.81,2.1,3.29,3.15,7.72,3.15,13.31,0,5.25-1.05,9.51-3.15,12.8-2.1,3.29-5.25,5.34-9.44,6.16l-.31-1.89c2.84-.81,4.97-2.69,6.41-5.63,1.43-2.95,2.15-6.83,2.15-11.63Z"/>
      <path class="uuid-76dfd998-0656-420a-927f-c822d6b4bf63" d="m745.83,426.6v-2.6h24.06v2.6h-24.06Zm0,8.11v-2.6h24.06v2.6h-24.06Z"/>
      <path class="uuid-76dfd998-0656-420a-927f-c822d6b4bf63" d="m788.7,431.6l6.76,15.08,11.86-44.43h5.47v2.6h-3.91l-12.7,47.07h-1.89l-8.09-17.38-3.3,1.46-.61-1.46,6.41-2.93Z"/>
      <path class="uuid-76dfd998-0656-420a-927f-c822d6b4bf63" d="m820.63,431.95c-.2-1.03-.4-2.02-.61-2.97s-.42-1.84-.64-2.66-.4-1.36-.55-1.61-.3-.43-.46-.53-.37-.15-.62-.15c-.27,0-.52.06-.74.19s-.46.34-.72.64-.61.78-1.04,1.44l-1.27-.84c.82-1.24,1.61-2.16,2.36-2.77s1.65-.92,2.68-.92c.4,0,.76.05,1.06.14s.58.23.81.42.44.43.62.73.36.71.53,1.22.33,1.15.48,1.91.28,1.55.4,2.37h.2c1.25-1.76,2.2-3.04,2.84-3.86s1.19-1.42,1.63-1.82.87-.68,1.28-.84.95-.24,1.63-.24c.61,0,1.11.08,1.5.23l-.78,3.54h-1.37c-.08-.55-.31-.82-.68-.82-.12,0-.24.02-.37.06s-.29.12-.48.25-.47.38-.83.76-.77.84-1.23,1.39-.92,1.12-1.41,1.72l-1.33,1.66c.23,1.25.46,2.33.66,3.24s.39,1.67.56,2.28.31,1.08.43,1.44.26.62.4.79.29.3.44.37.32.11.52.11c.35,0,.69-.14,1.03-.41s.81-.89,1.44-1.86l1.27.84c-.91,1.35-1.74,2.31-2.47,2.86s-1.61.83-2.63.83c-.56,0-1.04-.1-1.43-.3s-.73-.52-1.02-.97-.54-1.13-.76-2.07c-.4-1.67-.65-2.94-.74-3.83h-.2c-1.38,1.94-2.41,3.33-3.08,4.18s-1.22,1.47-1.66,1.88-.86.69-1.27.85-.95.24-1.63.24c-.61,0-1.11-.08-1.5-.23l.78-3.54h1.37c.08.55.31.82.68.82.18,0,.37-.05.58-.15s.49-.33.87-.7.9-.95,1.56-1.75,1.63-1.99,2.89-3.57Z"/>
    </g>
  </g>
</svg>