<?xml version="1.0" encoding="UTF-8"?>
<svg xmlns="http://www.w3.org/2000/svg" width="1680" height="1020" xmlns:xlink="http://www.w3.org/1999/xlink" viewBox="0 0 1680 1020">
  <defs>
    <style>
      .uuid-05fab3a6-04e7-43ca-b641-29823f044362 {
        stroke: rgba(192, 192, 192, .24);
      }

      .uuid-05fab3a6-04e7-43ca-b641-29823f044362, .uuid-30757f7c-399a-4224-9e66-96403c70968f, .uuid-065112e4-ba9c-4841-bef3-5ddc255ae694, .uuid-a0e9ccdd-9189-42ab-bb7a-9e638079cae4, .uuid-41d0d962-f033-4ac1-b5d9-c39714ae22a1, .uuid-ddd8edaf-7fa9-456c-9bec-ba6ed46fcf92, .uuid-ea417de7-34c4-4918-8d75-0d709b77d0cb, .uuid-ebefb872-b00c-45ce-bba1-37cb101cb02a, .uuid-fb8fe1e0-f370-42ac-93b7-d7e77e3da372 {
        fill: none;
      }

      .uuid-05fab3a6-04e7-43ca-b641-29823f044362, .uuid-065112e4-ba9c-4841-bef3-5ddc255ae694 {
        stroke-dasharray: 0 0 1.15 3.44;
        stroke-width: 1.15px;
      }

      .uuid-05fab3a6-04e7-43ca-b641-29823f044362, .uuid-065112e4-ba9c-4841-bef3-5ddc255ae694, .uuid-ebefb872-b00c-45ce-bba1-37cb101cb02a {
        stroke-linejoin: round;
      }

      .uuid-51aca960-eaaa-4aaa-a898-0c02ee11a175 {
        fill: #fff;
      }

      .uuid-30757f7c-399a-4224-9e66-96403c70968f {
        stroke: #606060;
        stroke-miterlimit: 10;
        stroke-width: 2.29px;
      }

      .uuid-065112e4-ba9c-4841-bef3-5ddc255ae694 {
        stroke: silver;
      }

      .uuid-a0e9ccdd-9189-42ab-bb7a-9e638079cae4 {
        stroke: #fff;
        stroke-linejoin: bevel;
        stroke-width: 3.44px;
      }

      .uuid-41d0d962-f033-4ac1-b5d9-c39714ae22a1 {
        isolation: isolate;
      }

      .uuid-eb1ee76d-04e6-40e0-9b07-6fea5d720936 {
        fill: #00699b;
      }

      .uuid-ea417de7-34c4-4918-8d75-0d709b77d0cb {
        clip-path: url(#uuid-79cd8919-12cd-4d03-bac0-59d9f27e6196);
      }

      .uuid-bc018b2c-8894-4d03-9d63-d20ccde16afd, .uuid-8b92a2a2-5819-456d-8c50-70516f4a08db {
        fill: #606060;
      }

      .uuid-8b92a2a2-5819-456d-8c50-70516f4a08db {
        fill-rule: evenodd;
      }

      .uuid-ebefb872-b00c-45ce-bba1-37cb101cb02a {
        stroke: rgba(0, 153, 0, .7);
        stroke-linecap: round;
        stroke-width: 4.59px;
      }

      .uuid-fb8fe1e0-f370-42ac-93b7-d7e77e3da372 {
        clip-path: url(#uuid-59d19299-d882-4e2a-86e1-49811b50d007);
      }
    </style>
    <clipPath id="uuid-79cd8919-12cd-4d03-bac0-59d9f27e6196">
      <rect class="uuid-ddd8edaf-7fa9-456c-9bec-ba6ed46fcf92" y="2.61" width="1680" height="1019.39"/>
    </clipPath>
    <clipPath id="uuid-59d19299-d882-4e2a-86e1-49811b50d007">
      <rect class="uuid-ddd8edaf-7fa9-456c-9bec-ba6ed46fcf92" x="-3" y="-10.14" width="1686" height="1040.27"/>
    </clipPath>
  </defs>
  <g id="uuid-810525e0-a1e6-4d49-8abc-24aa7e2152ac" data-name="Grafica">
    <g class="uuid-ea417de7-34c4-4918-8d75-0d709b77d0cb">
      <g class="uuid-fb8fe1e0-f370-42ac-93b7-d7e77e3da372">
        <g>
          <rect class="uuid-51aca960-eaaa-4aaa-a898-0c02ee11a175" x="-3" y="-10.14" width="1686" height="1040.27"/>
          <path class="uuid-065112e4-ba9c-4841-bef3-5ddc255ae694" d="m54.92-9.56v1040.27M54.92-9.56v1040.27M152.41-9.56v1040.27M249.9-9.56v1040.27M347.39-9.56v1040.27M444.88-9.56v1040.27M542.37-9.56v1040.27M639.86-9.56v1040.27M737.35-9.56v1040.27M932.33-9.56v1040.27M1029.82-9.56v1040.27M1127.31-9.56v1040.27M1223.65-9.56v1040.27M1321.14-9.56v1040.27M1418.63-9.56v1040.27M1516.12-9.56v1040.27M1613.61-9.56v1040.27"/>
          <path class="uuid-05fab3a6-04e7-43ca-b641-29823f044362" d="m-2.43-9.56v1040.27M17.07-9.56v1040.27M35.42-9.56v1040.27M74.42-9.56v1040.27M93.92-9.56v1040.27M113.41-9.56v1040.27M132.91-9.56v1040.27M171.91-9.56v1040.27M191.41-9.56v1040.27M210.9-9.56v1040.27M230.4-9.56v1040.27M269.4-9.56v1040.27M288.9-9.56v1040.27M308.39-9.56v1040.27M327.89-9.56v1040.27M366.89-9.56v1040.27M386.39-9.56v1040.27M405.88-9.56v1040.27M425.38-9.56v1040.27M464.38-9.56v1040.27M483.88-9.56v1040.27M503.37-9.56v1040.27M522.87-9.56v1040.27M561.87-9.56v1040.27M581.37-9.56v1040.27M600.86-9.56v1040.27M620.36-9.56v1040.27M659.36-9.56v1040.27M678.86-9.56v1040.27M698.35-9.56v1040.27M717.85-9.56v1040.27M756.85-9.56v1040.27M776.34-9.56v1040.27M795.84-9.56v1040.27M815.34-9.56v1040.27M854.34-9.56v1040.27M873.83-9.56v1040.27M893.33-9.56v1040.27M912.83-9.56v1040.27M951.83-9.56v1040.27M971.32-9.56v1040.27M990.82-9.56v1040.27M1010.32-9.56v1040.27M1049.32-9.56v1040.27M1068.81-9.56v1040.27M1088.31-9.56v1040.27M1107.81-9.56v1040.27M1146.81-9.56v1040.27M1166.3-9.56v1040.27M1185.8-9.56v1040.27M1205.3-9.56v1040.27M1243.15-9.56v1040.27M1262.65-9.56v1040.27M1282.14-9.56v1040.27M1301.64-9.56v1040.27M1340.64-9.56v1040.27M1360.14-9.56v1040.27M1379.63-9.56v1040.27M1399.13-9.56v1040.27M1438.13-9.56v1040.27M1457.63-9.56v1040.27M1477.12-9.56v1040.27M1496.62-9.56v1040.27M1535.62-9.56v1040.27M1555.12-9.56v1040.27M1574.61-9.56v1040.27M1594.11-9.56v1040.27M1633.11-9.56v1040.27M1652.61-9.56v1040.27M1672.1-9.56v1040.27"/>
          <path class="uuid-065112e4-ba9c-4841-bef3-5ddc255ae694" d="m-2.43,22.55h1686M-2.43,22.55h1686M-2.43,120.04h1686M-2.43,217.53h1686M-2.43,315.02h1686M-2.43,412.51h1686M-2.43,606.34h1686M-2.43,703.83h1686M-2.43,801.32h1686M-2.43,898.81h1686M-2.43,996.3h1686"/>
          <path class="uuid-05fab3a6-04e7-43ca-b641-29823f044362" d="m-2.43,3.05h1686M-2.43,3.05h1686M-2.43,42.05h1686M-2.43,61.55h1686M-2.43,81.04h1686M-2.43,100.54h1686M-2.43,139.54h1686M-2.43,159.04h1686M-2.43,178.53h1686M-2.43,198.03h1686M-2.43,237.03h1686M-2.43,256.53h1686M-2.43,276.02h1686M-2.43,295.52h1686M-2.43,334.52h1686M-2.43,354.02h1686M-2.43,373.51h1686M-2.43,393.01h1686M-2.43,432.01h1686M-2.43,451.51h1686M-2.43,471h1686M-2.43,490.5h1686M-2.43,528.35h1686M-2.43,547.85h1686M-2.43,567.35h1686M-2.43,586.84h1686M-2.43,625.84h1686M-2.43,645.34h1686M-2.43,664.84h1686M-2.43,684.33h1686M-2.43,723.33h1686M-2.43,742.83h1686M-2.43,762.33h1686M-2.43,781.82h1686M-2.43,820.82h1686M-2.43,840.32h1686M-2.43,859.82h1686M-2.43,879.31h1686M-2.43,918.31h1686M-2.43,937.81h1686M-2.43,957.31h1686M-2.43,976.8h1686M-2.43,1015.8h1686"/>
          <path class="uuid-30757f7c-399a-4224-9e66-96403c70968f" d="m834.27-6.7v1036.83"/>
          <path class="uuid-8b92a2a2-5819-456d-8c50-70516f4a08db" d="m834.63-7.84l-5.73,22.94h11.47"/>
          <path class="uuid-30757f7c-399a-4224-9e66-96403c70968f" d="m-3,509.43h1682.56"/>
          <path class="uuid-8b92a2a2-5819-456d-8c50-70516f4a08db" d="m1680.71,509.44l-22.94-5.73v11.47"/>
          <g class="uuid-41d0d962-f033-4ac1-b5d9-c39714ae22a1">
            <path class="uuid-bc018b2c-8894-4d03-9d63-d20ccde16afd" d="m54.35,523.95v.28h-6.88v-.28h6.88Z"/>
            <path class="uuid-bc018b2c-8894-4d03-9d63-d20ccde16afd" d="m60.93,523.42c.43.45.64,1.03.64,1.74,0,.49-.09.9-.27,1.25-.18.35-.43.63-.74.86-.31.22-.67.39-1.08.5-.41.11-.85.16-1.31.16s-.89-.05-1.31-.16c-.41-.11-.77-.27-1.08-.5-.31-.23-.55-.51-.74-.86-.18-.35-.28-.77-.28-1.25,0-.72.21-1.3.64-1.74.43-.44,1.01-.7,1.75-.78v-.03c-.27-.04-.52-.11-.75-.23-.23-.11-.44-.26-.61-.43-.17-.17-.31-.37-.41-.6-.1-.23-.15-.48-.15-.74,0-.42.08-.78.23-1.08s.36-.54.63-.74.58-.33.94-.42c.36-.09.74-.13,1.14-.13s.78.04,1.14.13c.36.09.67.23.94.42s.48.44.63.74.23.66.23,1.08c0,.27-.05.51-.15.74-.1.23-.24.43-.41.6-.17.17-.38.31-.61.43-.23.12-.48.19-.75.23v.03c.74.07,1.33.33,1.75.78Zm.1.61c-.17-.3-.41-.55-.69-.73-.29-.18-.62-.31-1-.39-.38-.08-.77-.12-1.17-.12s-.79.04-1.17.12c-.38.08-.71.21-1,.39-.29.18-.52.43-.7.73-.17.3-.26.68-.26,1.13s.08.83.25,1.15.4.58.69.78c.29.2.62.35,1,.44.38.09.77.14,1.18.14s.81-.05,1.18-.14c.38-.09.71-.24,1-.44.29-.2.52-.46.69-.78s.25-.7.25-1.15-.09-.83-.26-1.13Zm-.43-4.42c-.15-.27-.35-.48-.6-.64-.25-.16-.53-.28-.85-.34-.32-.07-.64-.1-.98-.1s-.67.03-.98.1c-.32.07-.6.18-.85.34-.25.16-.45.37-.6.64-.15.27-.23.6-.23,1,0,.33.08.62.24.86s.37.44.62.59c.25.15.54.26.85.34.32.07.63.11.94.11s.63-.04.94-.11c.32-.07.6-.19.85-.34s.46-.35.62-.59c.16-.24.24-.53.24-.86,0-.4-.08-.74-.23-1Z"/>
          </g>
          <g class="uuid-41d0d962-f033-4ac1-b5d9-c39714ae22a1">
            <path class="uuid-a0e9ccdd-9189-42ab-bb7a-9e638079cae4" d="m54.35,523.95v.28h-6.88v-.28h6.88Z"/>
            <path class="uuid-a0e9ccdd-9189-42ab-bb7a-9e638079cae4" d="m60.93,523.42c.43.45.64,1.03.64,1.74,0,.49-.09.9-.27,1.25-.18.35-.43.63-.74.86-.31.22-.67.39-1.08.5-.41.11-.85.16-1.31.16s-.89-.05-1.31-.16c-.41-.11-.77-.27-1.08-.5-.31-.23-.55-.51-.74-.86-.18-.35-.28-.77-.28-1.25,0-.72.21-1.3.64-1.74.43-.44,1.01-.7,1.75-.78v-.03c-.27-.04-.52-.11-.75-.23-.23-.11-.44-.26-.61-.43-.17-.17-.31-.37-.41-.6-.1-.23-.15-.48-.15-.74,0-.42.08-.78.23-1.08s.36-.54.63-.74.58-.33.94-.42c.36-.09.74-.13,1.14-.13s.78.04,1.14.13c.36.09.67.23.94.42s.48.44.63.74.23.66.23,1.08c0,.27-.05.51-.15.74-.1.23-.24.43-.41.6-.17.17-.38.31-.61.43-.23.12-.48.19-.75.23v.03c.74.07,1.33.33,1.75.78Zm.1.61c-.17-.3-.41-.55-.69-.73-.29-.18-.62-.31-1-.39-.38-.08-.77-.12-1.17-.12s-.79.04-1.17.12c-.38.08-.71.21-1,.39-.29.18-.52.43-.7.73-.17.3-.26.68-.26,1.13s.08.83.25,1.15.4.58.69.78c.29.2.62.35,1,.44.38.09.77.14,1.18.14s.81-.05,1.18-.14c.38-.09.71-.24,1-.44.29-.2.52-.46.69-.78s.25-.7.25-1.15-.09-.83-.26-1.13Zm-.43-4.42c-.15-.27-.35-.48-.6-.64-.25-.16-.53-.28-.85-.34-.32-.07-.64-.1-.98-.1s-.67.03-.98.1c-.32.07-.6.18-.85.34-.25.16-.45.37-.6.64-.15.27-.23.6-.23,1,0,.33.08.62.24.86s.37.44.62.59c.25.15.54.26.85.34.32.07.63.11.94.11s.63-.04.94-.11c.32-.07.6-.19.85-.34s.46-.35.62-.59c.16-.24.24-.53.24-.86,0-.4-.08-.74-.23-1Z"/>
          </g>
          <g class="uuid-41d0d962-f033-4ac1-b5d9-c39714ae22a1">
            <path class="uuid-bc018b2c-8894-4d03-9d63-d20ccde16afd" d="m54.35,523.95v.28h-6.88v-.28h6.88Z"/>
            <path class="uuid-bc018b2c-8894-4d03-9d63-d20ccde16afd" d="m60.93,523.42c.43.45.64,1.03.64,1.74,0,.49-.09.9-.27,1.25-.18.35-.43.63-.74.86-.31.22-.67.39-1.08.5-.41.11-.85.16-1.31.16s-.89-.05-1.31-.16c-.41-.11-.77-.27-1.08-.5-.31-.23-.55-.51-.74-.86-.18-.35-.28-.77-.28-1.25,0-.72.21-1.3.64-1.74.43-.44,1.01-.7,1.75-.78v-.03c-.27-.04-.52-.11-.75-.23-.23-.11-.44-.26-.61-.43-.17-.17-.31-.37-.41-.6-.1-.23-.15-.48-.15-.74,0-.42.08-.78.23-1.08s.36-.54.63-.74.58-.33.94-.42c.36-.09.74-.13,1.14-.13s.78.04,1.14.13c.36.09.67.23.94.42s.48.44.63.74.23.66.23,1.08c0,.27-.05.51-.15.74-.1.23-.24.43-.41.6-.17.17-.38.31-.61.43-.23.12-.48.19-.75.23v.03c.74.07,1.33.33,1.75.78Zm.1.61c-.17-.3-.41-.55-.69-.73-.29-.18-.62-.31-1-.39-.38-.08-.77-.12-1.17-.12s-.79.04-1.17.12c-.38.08-.71.21-1,.39-.29.18-.52.43-.7.73-.17.3-.26.68-.26,1.13s.08.83.25,1.15.4.58.69.78c.29.2.62.35,1,.44.38.09.77.14,1.18.14s.81-.05,1.18-.14c.38-.09.71-.24,1-.44.29-.2.52-.46.69-.78s.25-.7.25-1.15-.09-.83-.26-1.13Zm-.43-4.42c-.15-.27-.35-.48-.6-.64-.25-.16-.53-.28-.85-.34-.32-.07-.64-.1-.98-.1s-.67.03-.98.1c-.32.07-.6.18-.85.34-.25.16-.45.37-.6.64-.15.27-.23.6-.23,1,0,.33.08.62.24.86s.37.44.62.59c.25.15.54.26.85.34.32.07.63.11.94.11s.63-.04.94-.11c.32-.07.6-.19.85-.34s.46-.35.62-.59c.16-.24.24-.53.24-.86,0-.4-.08-.74-.23-1Z"/>
          </g>
          <g class="uuid-41d0d962-f033-4ac1-b5d9-c39714ae22a1">
            <path class="uuid-bc018b2c-8894-4d03-9d63-d20ccde16afd" d="m151.84,523.95v.28h-6.88v-.28h6.88Z"/>
            <path class="uuid-bc018b2c-8894-4d03-9d63-d20ccde16afd" d="m152.68,518.42h5.97v.37c-.63.63-1.21,1.28-1.73,1.95s-.97,1.37-1.33,2.1c-.37.73-.65,1.5-.85,2.31-.2.81-.3,1.69-.3,2.62h-.28c0-.92.08-1.79.28-2.62.2-.83.48-1.61.85-2.36s.82-1.46,1.33-2.14c.52-.68,1.09-1.33,1.73-1.97h-5.67v-.28Z"/>
          </g>
          <g class="uuid-41d0d962-f033-4ac1-b5d9-c39714ae22a1">
            <path class="uuid-a0e9ccdd-9189-42ab-bb7a-9e638079cae4" d="m151.84,523.95v.28h-6.88v-.28h6.88Z"/>
            <path class="uuid-a0e9ccdd-9189-42ab-bb7a-9e638079cae4" d="m152.68,518.42h5.97v.37c-.63.63-1.21,1.28-1.73,1.95s-.97,1.37-1.33,2.1c-.37.73-.65,1.5-.85,2.31-.2.81-.3,1.69-.3,2.62h-.28c0-.92.08-1.79.28-2.62.2-.83.48-1.61.85-2.36s.82-1.46,1.33-2.14c.52-.68,1.09-1.33,1.73-1.97h-5.67v-.28Z"/>
          </g>
          <g class="uuid-41d0d962-f033-4ac1-b5d9-c39714ae22a1">
            <path class="uuid-bc018b2c-8894-4d03-9d63-d20ccde16afd" d="m151.84,523.95v.28h-6.88v-.28h6.88Z"/>
            <path class="uuid-bc018b2c-8894-4d03-9d63-d20ccde16afd" d="m152.68,518.42h5.97v.37c-.63.63-1.21,1.28-1.73,1.95s-.97,1.37-1.33,2.1c-.37.73-.65,1.5-.85,2.31-.2.81-.3,1.69-.3,2.62h-.28c0-.92.08-1.79.28-2.62.2-.83.48-1.61.85-2.36s.82-1.46,1.33-2.14c.52-.68,1.09-1.33,1.73-1.97h-5.67v-.28Z"/>
          </g>
          <g class="uuid-41d0d962-f033-4ac1-b5d9-c39714ae22a1">
            <path class="uuid-bc018b2c-8894-4d03-9d63-d20ccde16afd" d="m249.33,523.95v.28h-6.88v-.28h6.88Z"/>
            <path class="uuid-bc018b2c-8894-4d03-9d63-d20ccde16afd" d="m255.57,519.58c-.2-.27-.42-.48-.67-.64-.25-.16-.5-.26-.77-.32s-.52-.09-.76-.09c-.7,0-1.26.17-1.69.52s-.76.79-1,1.32c-.23.53-.39,1.11-.46,1.72-.07.62-.11,1.19-.1,1.73h.03c.06-.33.19-.64.38-.92s.42-.53.69-.75c.27-.22.58-.38.92-.5.34-.12.7-.18,1.07-.18.4,0,.8.08,1.19.23.39.16.74.38,1.04.66.3.29.55.62.73,1.02s.28.83.28,1.32-.09.9-.26,1.29-.41.73-.71,1.02c-.3.28-.64.51-1.03.67-.39.16-.8.24-1.23.24-.32,0-.62-.04-.9-.12-.28-.08-.53-.19-.76-.33s-.43-.29-.61-.47c-.18-.17-.33-.35-.45-.54-.27-.41-.44-.88-.51-1.41-.07-.53-.11-1.09-.11-1.7s.06-1.17.17-1.78c.11-.61.3-1.16.57-1.65.27-.5.63-.9,1.08-1.21.45-.31,1.02-.47,1.71-.47.4,0,.77.06,1.11.19.33.12.63.29.87.5.25.21.45.46.61.75.16.29.26.6.3.93h-.28c-.09-.42-.24-.77-.43-1.04Zm.36,3.97c-.16-.36-.37-.67-.63-.94-.27-.27-.58-.48-.94-.63-.36-.16-.74-.23-1.16-.23s-.8.08-1.16.23c-.36.16-.67.37-.94.63-.27.27-.48.58-.63.94-.16.36-.23.74-.23,1.16s.08.8.23,1.16c.16.36.37.67.63.94.27.27.58.48.94.63s.74.23,1.16.23.8-.08,1.16-.23c.36-.16.67-.37.94-.63.27-.27.48-.58.63-.94.16-.36.23-.74.23-1.16s-.08-.8-.23-1.16Z"/>
          </g>
          <g class="uuid-41d0d962-f033-4ac1-b5d9-c39714ae22a1">
            <path class="uuid-a0e9ccdd-9189-42ab-bb7a-9e638079cae4" d="m249.33,523.95v.28h-6.88v-.28h6.88Z"/>
            <path class="uuid-a0e9ccdd-9189-42ab-bb7a-9e638079cae4" d="m255.57,519.58c-.2-.27-.42-.48-.67-.64-.25-.16-.5-.26-.77-.32s-.52-.09-.76-.09c-.7,0-1.26.17-1.69.52s-.76.79-1,1.32c-.23.53-.39,1.11-.46,1.72-.07.62-.11,1.19-.1,1.73h.03c.06-.33.19-.64.38-.92s.42-.53.69-.75c.27-.22.58-.38.92-.5.34-.12.7-.18,1.07-.18.4,0,.8.08,1.19.23.39.16.74.38,1.04.66.3.29.55.62.73,1.02s.28.83.28,1.32-.09.9-.26,1.29-.41.73-.71,1.02c-.3.28-.64.51-1.03.67-.39.16-.8.24-1.23.24-.32,0-.62-.04-.9-.12-.28-.08-.53-.19-.76-.33s-.43-.29-.61-.47c-.18-.17-.33-.35-.45-.54-.27-.41-.44-.88-.51-1.41-.07-.53-.11-1.09-.11-1.7s.06-1.17.17-1.78c.11-.61.3-1.16.57-1.65.27-.5.63-.9,1.08-1.21.45-.31,1.02-.47,1.71-.47.4,0,.77.06,1.11.19.33.12.63.29.87.5.25.21.45.46.61.75.16.29.26.6.3.93h-.28c-.09-.42-.24-.77-.43-1.04Zm.36,3.97c-.16-.36-.37-.67-.63-.94-.27-.27-.58-.48-.94-.63-.36-.16-.74-.23-1.16-.23s-.8.08-1.16.23c-.36.16-.67.37-.94.63-.27.27-.48.58-.63.94-.16.36-.23.74-.23,1.16s.08.8.23,1.16c.16.36.37.67.63.94.27.27.58.48.94.63s.74.23,1.16.23.8-.08,1.16-.23c.36-.16.67-.37.94-.63.27-.27.48-.58.63-.94.16-.36.23-.74.23-1.16s-.08-.8-.23-1.16Z"/>
          </g>
          <g class="uuid-41d0d962-f033-4ac1-b5d9-c39714ae22a1">
            <path class="uuid-bc018b2c-8894-4d03-9d63-d20ccde16afd" d="m249.33,523.95v.28h-6.88v-.28h6.88Z"/>
            <path class="uuid-bc018b2c-8894-4d03-9d63-d20ccde16afd" d="m255.57,519.58c-.2-.27-.42-.48-.67-.64-.25-.16-.5-.26-.77-.32s-.52-.09-.76-.09c-.7,0-1.26.17-1.69.52s-.76.79-1,1.32c-.23.53-.39,1.11-.46,1.72-.07.62-.11,1.19-.1,1.73h.03c.06-.33.19-.64.38-.92s.42-.53.69-.75c.27-.22.58-.38.92-.5.34-.12.7-.18,1.07-.18.4,0,.8.08,1.19.23.39.16.74.38,1.04.66.3.29.55.62.73,1.02s.28.83.28,1.32-.09.9-.26,1.29-.41.73-.71,1.02c-.3.28-.64.51-1.03.67-.39.16-.8.24-1.23.24-.32,0-.62-.04-.9-.12-.28-.08-.53-.19-.76-.33s-.43-.29-.61-.47c-.18-.17-.33-.35-.45-.54-.27-.41-.44-.88-.51-1.41-.07-.53-.11-1.09-.11-1.7s.06-1.17.17-1.78c.11-.61.3-1.16.57-1.65.27-.5.63-.9,1.08-1.21.45-.31,1.02-.47,1.71-.47.4,0,.77.06,1.11.19.33.12.63.29.87.5.25.21.45.46.61.75.16.29.26.6.3.93h-.28c-.09-.42-.24-.77-.43-1.04Zm.36,3.97c-.16-.36-.37-.67-.63-.94-.27-.27-.58-.48-.94-.63-.36-.16-.74-.23-1.16-.23s-.8.08-1.16.23c-.36.16-.67.37-.94.63-.27.27-.48.58-.63.94-.16.36-.23.74-.23,1.16s.08.8.23,1.16c.16.36.37.67.63.94.27.27.58.48.94.63s.74.23,1.16.23.8-.08,1.16-.23c.36-.16.67-.37.94-.63.27-.27.48-.58.63-.94.16-.36.23-.74.23-1.16s-.08-.8-.23-1.16Z"/>
          </g>
          <g class="uuid-41d0d962-f033-4ac1-b5d9-c39714ae22a1">
            <path class="uuid-bc018b2c-8894-4d03-9d63-d20ccde16afd" d="m346.82,523.95v.28h-6.88v-.28h6.88Z"/>
            <path class="uuid-bc018b2c-8894-4d03-9d63-d20ccde16afd" d="m347.99,522.7h.03c.27-.44.62-.76,1.07-.96.44-.2.94-.3,1.49-.3.49,0,.93.08,1.32.24.39.16.73.38,1.02.67.28.28.5.63.66,1.03.16.4.23.83.23,1.3,0,.5-.08.95-.23,1.35-.16.4-.38.75-.66,1.03-.28.28-.62.5-1.02.65-.39.15-.83.23-1.32.23s-.92-.07-1.33-.21c-.41-.14-.76-.35-1.05-.61-.29-.27-.51-.59-.67-.98-.16-.39-.23-.84-.21-1.34h.28c-.02.46.04.87.18,1.22.14.36.34.66.6.91.26.25.58.44.96.56.38.13.79.19,1.24.19s.87-.07,1.23-.21c.36-.14.67-.34.93-.61.26-.26.45-.58.59-.95.14-.37.21-.78.21-1.23s-.07-.83-.21-1.19c-.14-.36-.34-.67-.6-.94-.26-.26-.57-.46-.94-.61-.37-.15-.77-.22-1.21-.22-.55,0-1.06.12-1.53.36-.47.24-.83.6-1.09,1.07h-.34l1-4.72h4.8v.28h-4.58l-.85,4Z"/>
          </g>
          <g class="uuid-41d0d962-f033-4ac1-b5d9-c39714ae22a1">
            <path class="uuid-a0e9ccdd-9189-42ab-bb7a-9e638079cae4" d="m346.82,523.95v.28h-6.88v-.28h6.88Z"/>
            <path class="uuid-a0e9ccdd-9189-42ab-bb7a-9e638079cae4" d="m347.99,522.7h.03c.27-.44.62-.76,1.07-.96.44-.2.94-.3,1.49-.3.49,0,.93.08,1.32.24.39.16.73.38,1.02.67.28.28.5.63.66,1.03.16.4.23.83.23,1.3,0,.5-.08.95-.23,1.35-.16.4-.38.75-.66,1.03-.28.28-.62.5-1.02.65-.39.15-.83.23-1.32.23s-.92-.07-1.33-.21c-.41-.14-.76-.35-1.05-.61-.29-.27-.51-.59-.67-.98-.16-.39-.23-.84-.21-1.34h.28c-.02.46.04.87.18,1.22.14.36.34.66.6.91.26.25.58.44.96.56.38.13.79.19,1.24.19s.87-.07,1.23-.21c.36-.14.67-.34.93-.61.26-.26.45-.58.59-.95.14-.37.21-.78.21-1.23s-.07-.83-.21-1.19c-.14-.36-.34-.67-.6-.94-.26-.26-.57-.46-.94-.61-.37-.15-.77-.22-1.21-.22-.55,0-1.06.12-1.53.36-.47.24-.83.6-1.09,1.07h-.34l1-4.72h4.8v.28h-4.58l-.85,4Z"/>
          </g>
          <g class="uuid-41d0d962-f033-4ac1-b5d9-c39714ae22a1">
            <path class="uuid-bc018b2c-8894-4d03-9d63-d20ccde16afd" d="m346.82,523.95v.28h-6.88v-.28h6.88Z"/>
            <path class="uuid-bc018b2c-8894-4d03-9d63-d20ccde16afd" d="m347.99,522.7h.03c.27-.44.62-.76,1.07-.96.44-.2.94-.3,1.49-.3.49,0,.93.08,1.32.24.39.16.73.38,1.02.67.28.28.5.63.66,1.03.16.4.23.83.23,1.3,0,.5-.08.95-.23,1.35-.16.4-.38.75-.66,1.03-.28.28-.62.5-1.02.65-.39.15-.83.23-1.32.23s-.92-.07-1.33-.21c-.41-.14-.76-.35-1.05-.61-.29-.27-.51-.59-.67-.98-.16-.39-.23-.84-.21-1.34h.28c-.02.46.04.87.18,1.22.14.36.34.66.6.91.26.25.58.44.96.56.38.13.79.19,1.24.19s.87-.07,1.23-.21c.36-.14.67-.34.93-.61.26-.26.45-.58.59-.95.14-.37.21-.78.21-1.23s-.07-.83-.21-1.19c-.14-.36-.34-.67-.6-.94-.26-.26-.57-.46-.94-.61-.37-.15-.77-.22-1.21-.22-.55,0-1.06.12-1.53.36-.47.24-.83.6-1.09,1.07h-.34l1-4.72h4.8v.28h-4.58l-.85,4Z"/>
          </g>
          <g class="uuid-41d0d962-f033-4ac1-b5d9-c39714ae22a1">
            <path class="uuid-bc018b2c-8894-4d03-9d63-d20ccde16afd" d="m444.31,523.95v.28h-6.88v-.28h6.88Z"/>
            <path class="uuid-bc018b2c-8894-4d03-9d63-d20ccde16afd" d="m444.77,525.01l4.68-6.59h.34v6.65h1.69v.27h-1.69v2.44h-.28v-2.44h-4.75v-.33Zm4.72-6.21l-4.45,6.26h4.47v-6.26h-.03Z"/>
          </g>
          <g class="uuid-41d0d962-f033-4ac1-b5d9-c39714ae22a1">
            <path class="uuid-a0e9ccdd-9189-42ab-bb7a-9e638079cae4" d="m444.31,523.95v.28h-6.88v-.28h6.88Z"/>
            <path class="uuid-a0e9ccdd-9189-42ab-bb7a-9e638079cae4" d="m444.77,525.01l4.68-6.59h.34v6.65h1.69v.27h-1.69v2.44h-.28v-2.44h-4.75v-.33Zm4.72-6.21l-4.45,6.26h4.47v-6.26h-.03Z"/>
          </g>
          <g class="uuid-41d0d962-f033-4ac1-b5d9-c39714ae22a1">
            <path class="uuid-bc018b2c-8894-4d03-9d63-d20ccde16afd" d="m444.31,523.95v.28h-6.88v-.28h6.88Z"/>
            <path class="uuid-bc018b2c-8894-4d03-9d63-d20ccde16afd" d="m444.77,525.01l4.68-6.59h.34v6.65h1.69v.27h-1.69v2.44h-.28v-2.44h-4.75v-.33Zm4.72-6.21l-4.45,6.26h4.47v-6.26h-.03Z"/>
          </g>
          <g class="uuid-41d0d962-f033-4ac1-b5d9-c39714ae22a1">
            <path class="uuid-bc018b2c-8894-4d03-9d63-d20ccde16afd" d="m541.8,523.95v.28h-6.88v-.28h6.88Z"/>
            <path class="uuid-bc018b2c-8894-4d03-9d63-d20ccde16afd" d="m542.81,519.98c.15-.38.36-.7.64-.96.28-.26.62-.45,1.02-.58.4-.13.84-.19,1.33-.19.38,0,.74.04,1.09.12.35.08.66.22.94.4s.5.42.66.72c.17.29.25.65.25,1.06,0,.66-.19,1.17-.57,1.54-.38.37-.86.58-1.44.63v.03c.28.03.54.09.81.2s.5.26.7.45c.21.2.37.44.5.74.12.29.19.64.19,1.05,0,.44-.08.83-.25,1.17-.17.34-.4.63-.69.86-.29.23-.62.41-1,.53s-.79.18-1.22.18c-.53,0-1.01-.07-1.45-.22-.43-.15-.8-.36-1.1-.64-.3-.28-.53-.63-.68-1.04s-.21-.88-.17-1.42h.28c-.04.5.01.93.15,1.31.14.38.34.7.62.96.27.26.61.45,1.02.58.4.13.85.2,1.33.2.38,0,.74-.05,1.09-.16.35-.11.66-.26.92-.47s.48-.47.64-.78c.16-.31.24-.66.24-1.07s-.07-.75-.2-1.03c-.13-.28-.32-.52-.56-.7-.24-.18-.53-.32-.85-.41s-.68-.15-1.07-.17h-.67v-.28h.67c.3,0,.6-.03.9-.1.3-.07.57-.18.81-.34.24-.16.43-.37.58-.63.15-.26.22-.58.22-.97,0-.38-.09-.69-.25-.95-.16-.26-.36-.46-.61-.63-.25-.16-.53-.28-.84-.34-.31-.07-.63-.1-.96-.1-.45,0-.86.06-1.22.17-.36.12-.67.29-.93.52-.26.23-.45.53-.58.87s-.19.76-.19,1.22h-.28c0-.51.06-.96.21-1.34Z"/>
          </g>
          <g class="uuid-41d0d962-f033-4ac1-b5d9-c39714ae22a1">
            <path class="uuid-a0e9ccdd-9189-42ab-bb7a-9e638079cae4" d="m541.8,523.95v.28h-6.88v-.28h6.88Z"/>
            <path class="uuid-a0e9ccdd-9189-42ab-bb7a-9e638079cae4" d="m542.81,519.98c.15-.38.36-.7.64-.96.28-.26.62-.45,1.02-.58.4-.13.84-.19,1.33-.19.38,0,.74.04,1.09.12.35.08.66.22.94.4s.5.42.66.72c.17.29.25.65.25,1.06,0,.66-.19,1.17-.57,1.54-.38.37-.86.58-1.44.63v.03c.28.03.54.09.81.2s.5.26.7.45c.21.2.37.44.5.74.12.29.19.64.19,1.05,0,.44-.08.83-.25,1.17-.17.34-.4.63-.69.86-.29.23-.62.41-1,.53s-.79.18-1.22.18c-.53,0-1.01-.07-1.45-.22-.43-.15-.8-.36-1.1-.64-.3-.28-.53-.63-.68-1.04s-.21-.88-.17-1.42h.28c-.04.5.01.93.15,1.31.14.38.34.7.62.96.27.26.61.45,1.02.58.4.13.85.2,1.33.2.38,0,.74-.05,1.09-.16.35-.11.66-.26.92-.47s.48-.47.64-.78c.16-.31.24-.66.24-1.07s-.07-.75-.2-1.03c-.13-.28-.32-.52-.56-.7-.24-.18-.53-.32-.85-.41s-.68-.15-1.07-.17h-.67v-.28h.67c.3,0,.6-.03.9-.1.3-.07.57-.18.81-.34.24-.16.43-.37.58-.63.15-.26.22-.58.22-.97,0-.38-.09-.69-.25-.95-.16-.26-.36-.46-.61-.63-.25-.16-.53-.28-.84-.34-.31-.07-.63-.1-.96-.1-.45,0-.86.06-1.22.17-.36.12-.67.29-.93.52-.26.23-.45.53-.58.87s-.19.76-.19,1.22h-.28c0-.51.06-.96.21-1.34Z"/>
          </g>
          <g class="uuid-41d0d962-f033-4ac1-b5d9-c39714ae22a1">
            <path class="uuid-bc018b2c-8894-4d03-9d63-d20ccde16afd" d="m541.8,523.95v.28h-6.88v-.28h6.88Z"/>
            <path class="uuid-bc018b2c-8894-4d03-9d63-d20ccde16afd" d="m542.81,519.98c.15-.38.36-.7.64-.96.28-.26.62-.45,1.02-.58.4-.13.84-.19,1.33-.19.38,0,.74.04,1.09.12.35.08.66.22.94.4s.5.42.66.72c.17.29.25.65.25,1.06,0,.66-.19,1.17-.57,1.54-.38.37-.86.58-1.44.63v.03c.28.03.54.09.81.2s.5.26.7.45c.21.2.37.44.5.74.12.29.19.64.19,1.05,0,.44-.08.83-.25,1.17-.17.34-.4.63-.69.86-.29.23-.62.41-1,.53s-.79.18-1.22.18c-.53,0-1.01-.07-1.45-.22-.43-.15-.8-.36-1.1-.64-.3-.28-.53-.63-.68-1.04s-.21-.88-.17-1.42h.28c-.04.5.01.93.15,1.31.14.38.34.7.62.96.27.26.61.45,1.02.58.4.13.85.2,1.33.2.38,0,.74-.05,1.09-.16.35-.11.66-.26.92-.47s.48-.47.64-.78c.16-.31.24-.66.24-1.07s-.07-.75-.2-1.03c-.13-.28-.32-.52-.56-.7-.24-.18-.53-.32-.85-.41s-.68-.15-1.07-.17h-.67v-.28h.67c.3,0,.6-.03.9-.1.3-.07.57-.18.81-.34.24-.16.43-.37.58-.63.15-.26.22-.58.22-.97,0-.38-.09-.69-.25-.95-.16-.26-.36-.46-.61-.63-.25-.16-.53-.28-.84-.34-.31-.07-.63-.1-.96-.1-.45,0-.86.06-1.22.17-.36.12-.67.29-.93.52-.26.23-.45.53-.58.87s-.19.76-.19,1.22h-.28c0-.51.06-.96.21-1.34Z"/>
          </g>
          <g class="uuid-41d0d962-f033-4ac1-b5d9-c39714ae22a1">
            <path class="uuid-bc018b2c-8894-4d03-9d63-d20ccde16afd" d="m639.29,523.95v.28h-6.88v-.28h6.88Z"/>
            <path class="uuid-bc018b2c-8894-4d03-9d63-d20ccde16afd" d="m646.35,527.78h-6.3c0-.39.07-.75.25-1.07.17-.32.4-.62.69-.9.28-.28.6-.55.96-.8.35-.25.7-.5,1.05-.75.36-.25.71-.5,1.05-.76.34-.26.64-.53.91-.81.27-.28.48-.58.64-.89.16-.32.24-.66.24-1.03s-.07-.69-.2-.97c-.13-.28-.31-.51-.54-.7-.23-.19-.5-.33-.82-.43-.32-.1-.66-.14-1.04-.14-.49,0-.9.07-1.25.22-.35.15-.63.35-.85.61s-.38.57-.48.94-.15.76-.15,1.19h-.27c0-1.03.26-1.82.76-2.39s1.25-.85,2.25-.85c.4,0,.78.05,1.13.16s.65.26.91.48.46.47.61.78.23.68.23,1.1c0,.51-.14.98-.41,1.4s-.62.82-1.04,1.18-.87.71-1.36,1.04c-.49.33-.94.65-1.37.98-.43.33-.79.66-1.09,1-.3.34-.47.72-.51,1.12h6.03v.28Z"/>
          </g>
          <g class="uuid-41d0d962-f033-4ac1-b5d9-c39714ae22a1">
            <path class="uuid-a0e9ccdd-9189-42ab-bb7a-9e638079cae4" d="m639.29,523.95v.28h-6.88v-.28h6.88Z"/>
            <path class="uuid-a0e9ccdd-9189-42ab-bb7a-9e638079cae4" d="m646.35,527.78h-6.3c0-.39.07-.75.25-1.07.17-.32.4-.62.69-.9.28-.28.6-.55.96-.8.35-.25.7-.5,1.05-.75.36-.25.71-.5,1.05-.76.34-.26.64-.53.91-.81.27-.28.48-.58.64-.89.16-.32.24-.66.24-1.03s-.07-.69-.2-.97c-.13-.28-.31-.51-.54-.7-.23-.19-.5-.33-.82-.43-.32-.1-.66-.14-1.04-.14-.49,0-.9.07-1.25.22-.35.15-.63.35-.85.61s-.38.57-.48.94-.15.76-.15,1.19h-.27c0-1.03.26-1.82.76-2.39s1.25-.85,2.25-.85c.4,0,.78.05,1.13.16s.65.26.91.48.46.47.61.78.23.68.23,1.1c0,.51-.14.98-.41,1.4s-.62.82-1.04,1.18-.87.71-1.36,1.04c-.49.33-.94.65-1.37.98-.43.33-.79.66-1.09,1-.3.34-.47.72-.51,1.12h6.03v.28Z"/>
          </g>
          <g class="uuid-41d0d962-f033-4ac1-b5d9-c39714ae22a1">
            <path class="uuid-bc018b2c-8894-4d03-9d63-d20ccde16afd" d="m639.29,523.95v.28h-6.88v-.28h6.88Z"/>
            <path class="uuid-bc018b2c-8894-4d03-9d63-d20ccde16afd" d="m646.35,527.78h-6.3c0-.39.07-.75.25-1.07.17-.32.4-.62.69-.9.28-.28.6-.55.96-.8.35-.25.7-.5,1.05-.75.36-.25.71-.5,1.05-.76.34-.26.64-.53.91-.81.27-.28.48-.58.64-.89.16-.32.24-.66.24-1.03s-.07-.69-.2-.97c-.13-.28-.31-.51-.54-.7-.23-.19-.5-.33-.82-.43-.32-.1-.66-.14-1.04-.14-.49,0-.9.07-1.25.22-.35.15-.63.35-.85.61s-.38.57-.48.94-.15.76-.15,1.19h-.27c0-1.03.26-1.82.76-2.39s1.25-.85,2.25-.85c.4,0,.78.05,1.13.16s.65.26.91.48.46.47.61.78.23.68.23,1.1c0,.51-.14.98-.41,1.4s-.62.82-1.04,1.18-.87.71-1.36,1.04c-.49.33-.94.65-1.37.98-.43.33-.79.66-1.09,1-.3.34-.47.72-.51,1.12h6.03v.28Z"/>
          </g>
          <g class="uuid-41d0d962-f033-4ac1-b5d9-c39714ae22a1">
            <path class="uuid-bc018b2c-8894-4d03-9d63-d20ccde16afd" d="m736.78,523.95v.28h-6.88v-.28h6.88Z"/>
            <path class="uuid-bc018b2c-8894-4d03-9d63-d20ccde16afd" d="m740.85,518.78c-.28.39-.65.74-1.11,1.03-.45.29-.92.5-1.38.63v-.28c.28-.09.54-.19.76-.3s.43-.23.62-.37c.19-.14.38-.29.56-.47.18-.17.36-.37.56-.59h.3v9.36h-.28v-9h-.03Z"/>
          </g>
          <g class="uuid-41d0d962-f033-4ac1-b5d9-c39714ae22a1">
            <path class="uuid-a0e9ccdd-9189-42ab-bb7a-9e638079cae4" d="m736.78,523.95v.28h-6.88v-.28h6.88Z"/>
            <path class="uuid-a0e9ccdd-9189-42ab-bb7a-9e638079cae4" d="m740.85,518.78c-.28.39-.65.74-1.11,1.03-.45.29-.92.5-1.38.63v-.28c.28-.09.54-.19.76-.3s.43-.23.62-.37c.19-.14.38-.29.56-.47.18-.17.36-.37.56-.59h.3v9.36h-.28v-9h-.03Z"/>
          </g>
          <g class="uuid-41d0d962-f033-4ac1-b5d9-c39714ae22a1">
            <path class="uuid-bc018b2c-8894-4d03-9d63-d20ccde16afd" d="m736.78,523.95v.28h-6.88v-.28h6.88Z"/>
            <path class="uuid-bc018b2c-8894-4d03-9d63-d20ccde16afd" d="m740.85,518.78c-.28.39-.65.74-1.11,1.03-.45.29-.92.5-1.38.63v-.28c.28-.09.54-.19.76-.3s.43-.23.62-.37c.19-.14.38-.29.56-.47.18-.17.36-.37.56-.59h.3v9.36h-.28v-9h-.03Z"/>
          </g>
          <g class="uuid-41d0d962-f033-4ac1-b5d9-c39714ae22a1">
            <path class="uuid-bc018b2c-8894-4d03-9d63-d20ccde16afd" d="m932.39,518.78c-.28.39-.65.74-1.11,1.03-.45.29-.92.5-1.38.63v-.28c.28-.09.54-.19.76-.3s.43-.23.62-.37c.19-.14.38-.29.56-.47.18-.17.36-.37.56-.59h.3v9.36h-.28v-9h-.03Z"/>
          </g>
          <g class="uuid-41d0d962-f033-4ac1-b5d9-c39714ae22a1">
            <path class="uuid-a0e9ccdd-9189-42ab-bb7a-9e638079cae4" d="m932.39,518.78c-.28.39-.65.74-1.11,1.03-.45.29-.92.5-1.38.63v-.28c.28-.09.54-.19.76-.3s.43-.23.62-.37c.19-.14.38-.29.56-.47.18-.17.36-.37.56-.59h.3v9.36h-.28v-9h-.03Z"/>
          </g>
          <g class="uuid-41d0d962-f033-4ac1-b5d9-c39714ae22a1">
            <path class="uuid-bc018b2c-8894-4d03-9d63-d20ccde16afd" d="m932.39,518.78c-.28.39-.65.74-1.11,1.03-.45.29-.92.5-1.38.63v-.28c.28-.09.54-.19.76-.3s.43-.23.62-.37c.19-.14.38-.29.56-.47.18-.17.36-.37.56-.59h.3v9.36h-.28v-9h-.03Z"/>
          </g>
          <g class="uuid-41d0d962-f033-4ac1-b5d9-c39714ae22a1">
            <path class="uuid-bc018b2c-8894-4d03-9d63-d20ccde16afd" d="m1032.86,527.78h-6.3c0-.39.07-.75.25-1.07.17-.32.4-.62.69-.9.28-.28.6-.55.96-.8.35-.25.7-.5,1.05-.75.36-.25.71-.5,1.05-.76.34-.26.64-.53.91-.81.27-.28.48-.58.64-.89.16-.32.24-.66.24-1.03s-.07-.69-.2-.97c-.13-.28-.31-.51-.54-.7-.23-.19-.5-.33-.82-.43-.32-.1-.66-.14-1.04-.14-.49,0-.9.07-1.25.22-.35.15-.63.35-.85.61s-.38.57-.48.94-.15.76-.15,1.19h-.27c0-1.03.26-1.82.76-2.39s1.25-.85,2.25-.85c.4,0,.78.05,1.13.16s.65.26.91.48.46.47.61.78.23.68.23,1.1c0,.51-.14.98-.41,1.4s-.62.82-1.04,1.18-.87.71-1.36,1.04c-.49.33-.94.65-1.37.98-.43.33-.79.66-1.09,1-.3.34-.47.72-.51,1.12h6.03v.28Z"/>
          </g>
          <g class="uuid-41d0d962-f033-4ac1-b5d9-c39714ae22a1">
            <path class="uuid-a0e9ccdd-9189-42ab-bb7a-9e638079cae4" d="m1032.86,527.78h-6.3c0-.39.07-.75.25-1.07.17-.32.4-.62.69-.9.28-.28.6-.55.96-.8.35-.25.7-.5,1.05-.75.36-.25.71-.5,1.05-.76.34-.26.64-.53.91-.81.27-.28.48-.58.64-.89.16-.32.24-.66.24-1.03s-.07-.69-.2-.97c-.13-.28-.31-.51-.54-.7-.23-.19-.5-.33-.82-.43-.32-.1-.66-.14-1.04-.14-.49,0-.9.07-1.25.22-.35.15-.63.35-.85.61s-.38.57-.48.94-.15.76-.15,1.19h-.27c0-1.03.26-1.82.76-2.39s1.25-.85,2.25-.85c.4,0,.78.05,1.13.16s.65.26.91.48.46.47.61.78.23.68.23,1.1c0,.51-.14.98-.41,1.4s-.62.82-1.04,1.18-.87.71-1.36,1.04c-.49.33-.94.65-1.37.98-.43.33-.79.66-1.09,1-.3.34-.47.72-.51,1.12h6.03v.28Z"/>
          </g>
          <g class="uuid-41d0d962-f033-4ac1-b5d9-c39714ae22a1">
            <path class="uuid-bc018b2c-8894-4d03-9d63-d20ccde16afd" d="m1032.86,527.78h-6.3c0-.39.07-.75.25-1.07.17-.32.4-.62.69-.9.28-.28.6-.55.96-.8.35-.25.7-.5,1.05-.75.36-.25.71-.5,1.05-.76.34-.26.64-.53.91-.81.27-.28.48-.58.64-.89.16-.32.24-.66.24-1.03s-.07-.69-.2-.97c-.13-.28-.31-.51-.54-.7-.23-.19-.5-.33-.82-.43-.32-.1-.66-.14-1.04-.14-.49,0-.9.07-1.25.22-.35.15-.63.35-.85.61s-.38.57-.48.94-.15.76-.15,1.19h-.27c0-1.03.26-1.82.76-2.39s1.25-.85,2.25-.85c.4,0,.78.05,1.13.16s.65.26.91.48.46.47.61.78.23.68.23,1.1c0,.51-.14.98-.41,1.4s-.62.82-1.04,1.18-.87.71-1.36,1.04c-.49.33-.94.65-1.37.98-.43.33-.79.66-1.09,1-.3.34-.47.72-.51,1.12h6.03v.28Z"/>
          </g>
          <g class="uuid-41d0d962-f033-4ac1-b5d9-c39714ae22a1">
            <path class="uuid-bc018b2c-8894-4d03-9d63-d20ccde16afd" d="m1124.31,519.98c.15-.38.36-.7.64-.96.28-.26.62-.45,1.02-.58.4-.13.84-.19,1.33-.19.38,0,.74.04,1.09.12.35.08.66.22.94.4s.5.42.66.72c.17.29.25.65.25,1.06,0,.66-.19,1.17-.57,1.54-.38.37-.86.58-1.44.63v.03c.28.03.54.09.81.2s.5.26.7.45c.21.2.37.44.5.74.12.29.19.64.19,1.05,0,.44-.08.83-.25,1.17-.17.34-.4.63-.69.86-.29.23-.62.41-1,.53s-.79.18-1.22.18c-.53,0-1.01-.07-1.45-.22-.43-.15-.8-.36-1.1-.64-.3-.28-.53-.63-.68-1.04s-.21-.88-.17-1.42h.28c-.04.5.01.93.15,1.31.14.38.34.7.62.96.27.26.61.45,1.02.58.4.13.85.2,1.33.2.38,0,.74-.05,1.09-.16.35-.11.66-.26.92-.47s.48-.47.64-.78c.16-.31.24-.66.24-1.07s-.07-.75-.2-1.03c-.13-.28-.32-.52-.56-.7-.24-.18-.53-.32-.85-.41s-.68-.15-1.07-.17h-.67v-.28h.67c.3,0,.6-.03.9-.1.3-.07.57-.18.81-.34.24-.16.43-.37.58-.63.15-.26.22-.58.22-.97,0-.38-.09-.69-.25-.95-.16-.26-.36-.46-.61-.63-.25-.16-.53-.28-.84-.34-.31-.07-.63-.1-.96-.1-.45,0-.86.06-1.22.17-.36.12-.67.29-.93.52-.26.23-.45.53-.58.87s-.19.76-.19,1.22h-.28c0-.51.06-.96.21-1.34Z"/>
          </g>
          <g class="uuid-41d0d962-f033-4ac1-b5d9-c39714ae22a1">
            <path class="uuid-a0e9ccdd-9189-42ab-bb7a-9e638079cae4" d="m1124.31,519.98c.15-.38.36-.7.64-.96.28-.26.62-.45,1.02-.58.4-.13.84-.19,1.33-.19.38,0,.74.04,1.09.12.35.08.66.22.94.4s.5.42.66.72c.17.29.25.65.25,1.06,0,.66-.19,1.17-.57,1.54-.38.37-.86.58-1.44.63v.03c.28.03.54.09.81.2s.5.26.7.45c.21.2.37.44.5.74.12.29.19.64.19,1.05,0,.44-.08.83-.25,1.17-.17.34-.4.63-.69.86-.29.23-.62.41-1,.53s-.79.18-1.22.18c-.53,0-1.01-.07-1.45-.22-.43-.15-.8-.36-1.1-.64-.3-.28-.53-.63-.68-1.04s-.21-.88-.17-1.42h.28c-.04.5.01.93.15,1.31.14.38.34.7.62.96.27.26.61.45,1.02.58.4.13.85.2,1.33.2.38,0,.74-.05,1.09-.16.35-.11.66-.26.92-.47s.48-.47.64-.78c.16-.31.24-.66.24-1.07s-.07-.75-.2-1.03c-.13-.28-.32-.52-.56-.7-.24-.18-.53-.32-.85-.41s-.68-.15-1.07-.17h-.67v-.28h.67c.3,0,.6-.03.9-.1.3-.07.57-.18.81-.34.24-.16.43-.37.58-.63.15-.26.22-.58.22-.97,0-.38-.09-.69-.25-.95-.16-.26-.36-.46-.61-.63-.25-.16-.53-.28-.84-.34-.31-.07-.63-.1-.96-.1-.45,0-.86.06-1.22.17-.36.12-.67.29-.93.52-.26.23-.45.53-.58.87s-.19.76-.19,1.22h-.28c0-.51.06-.96.21-1.34Z"/>
          </g>
          <g class="uuid-41d0d962-f033-4ac1-b5d9-c39714ae22a1">
            <path class="uuid-bc018b2c-8894-4d03-9d63-d20ccde16afd" d="m1124.31,519.98c.15-.38.36-.7.64-.96.28-.26.62-.45,1.02-.58.4-.13.84-.19,1.33-.19.38,0,.74.04,1.09.12.35.08.66.22.94.4s.5.42.66.72c.17.29.25.65.25,1.06,0,.66-.19,1.17-.57,1.54-.38.37-.86.58-1.44.63v.03c.28.03.54.09.81.2s.5.26.7.45c.21.2.37.44.5.74.12.29.19.64.19,1.05,0,.44-.08.83-.25,1.17-.17.34-.4.63-.69.86-.29.23-.62.41-1,.53s-.79.18-1.22.18c-.53,0-1.01-.07-1.45-.22-.43-.15-.8-.36-1.1-.64-.3-.28-.53-.63-.68-1.04s-.21-.88-.17-1.42h.28c-.04.5.01.93.15,1.31.14.38.34.7.62.96.27.26.61.45,1.02.58.4.13.85.2,1.33.2.38,0,.74-.05,1.09-.16.35-.11.66-.26.92-.47s.48-.47.64-.78c.16-.31.24-.66.24-1.07s-.07-.75-.2-1.03c-.13-.28-.32-.52-.56-.7-.24-.18-.53-.32-.85-.41s-.68-.15-1.07-.17h-.67v-.28h.67c.3,0,.6-.03.9-.1.3-.07.57-.18.81-.34.24-.16.43-.37.58-.63.15-.26.22-.58.22-.97,0-.38-.09-.69-.25-.95-.16-.26-.36-.46-.61-.63-.25-.16-.53-.28-.84-.34-.31-.07-.63-.1-.96-.1-.45,0-.86.06-1.22.17-.36.12-.67.29-.93.52-.26.23-.45.53-.58.87s-.19.76-.19,1.22h-.28c0-.51.06-.96.21-1.34Z"/>
          </g>
          <g class="uuid-41d0d962-f033-4ac1-b5d9-c39714ae22a1">
            <path class="uuid-bc018b2c-8894-4d03-9d63-d20ccde16afd" d="m1221.25,525.01l4.68-6.59h.34v6.65h1.69v.27h-1.69v2.44h-.28v-2.44h-4.75v-.33Zm4.72-6.21l-4.45,6.26h4.47v-6.26h-.03Z"/>
          </g>
          <g class="uuid-41d0d962-f033-4ac1-b5d9-c39714ae22a1">
            <path class="uuid-a0e9ccdd-9189-42ab-bb7a-9e638079cae4" d="m1221.25,525.01l4.68-6.59h.34v6.65h1.69v.27h-1.69v2.44h-.28v-2.44h-4.75v-.33Zm4.72-6.21l-4.45,6.26h4.47v-6.26h-.03Z"/>
          </g>
          <g class="uuid-41d0d962-f033-4ac1-b5d9-c39714ae22a1">
            <path class="uuid-bc018b2c-8894-4d03-9d63-d20ccde16afd" d="m1221.25,525.01l4.68-6.59h.34v6.65h1.69v.27h-1.69v2.44h-.28v-2.44h-4.75v-.33Zm4.72-6.21l-4.45,6.26h4.47v-6.26h-.03Z"/>
          </g>
          <g class="uuid-41d0d962-f033-4ac1-b5d9-c39714ae22a1">
            <path class="uuid-bc018b2c-8894-4d03-9d63-d20ccde16afd" d="m1319.44,522.7h.03c.27-.44.62-.76,1.07-.96.44-.2.94-.3,1.49-.3.49,0,.93.08,1.32.24.39.16.73.38,1.02.67.28.28.5.63.66,1.03.16.4.23.83.23,1.3,0,.5-.08.95-.23,1.35-.16.4-.38.75-.66,1.03-.28.28-.62.5-1.02.65-.39.15-.83.23-1.32.23s-.92-.07-1.33-.21c-.41-.14-.76-.35-1.05-.61-.29-.27-.51-.59-.67-.98-.16-.39-.23-.84-.21-1.34h.28c-.02.46.04.87.18,1.22.14.36.34.66.6.91.26.25.58.44.96.56.38.13.79.19,1.24.19s.87-.07,1.23-.21c.36-.14.67-.34.93-.61.26-.26.45-.58.59-.95.14-.37.21-.78.21-1.23s-.07-.83-.21-1.19c-.14-.36-.34-.67-.6-.94-.26-.26-.57-.46-.94-.61-.37-.15-.77-.22-1.21-.22-.55,0-1.06.12-1.53.36-.47.24-.83.6-1.09,1.07h-.34l1-4.72h4.8v.28h-4.58l-.85,4Z"/>
          </g>
          <g class="uuid-41d0d962-f033-4ac1-b5d9-c39714ae22a1">
            <path class="uuid-a0e9ccdd-9189-42ab-bb7a-9e638079cae4" d="m1319.44,522.7h.03c.27-.44.62-.76,1.07-.96.44-.2.94-.3,1.49-.3.49,0,.93.08,1.32.24.39.16.73.38,1.02.67.28.28.5.63.66,1.03.16.4.23.83.23,1.3,0,.5-.08.95-.23,1.35-.16.4-.38.75-.66,1.03-.28.28-.62.5-1.02.65-.39.15-.83.23-1.32.23s-.92-.07-1.33-.21c-.41-.14-.76-.35-1.05-.61-.29-.27-.51-.59-.67-.98-.16-.39-.23-.84-.21-1.34h.28c-.02.46.04.87.18,1.22.14.36.34.66.6.91.26.25.58.44.96.56.38.13.79.19,1.24.19s.87-.07,1.23-.21c.36-.14.67-.34.93-.61.26-.26.45-.58.59-.95.14-.37.21-.78.21-1.23s-.07-.83-.21-1.19c-.14-.36-.34-.67-.6-.94-.26-.26-.57-.46-.94-.61-.37-.15-.77-.22-1.21-.22-.55,0-1.06.12-1.53.36-.47.24-.83.6-1.09,1.07h-.34l1-4.72h4.8v.28h-4.58l-.85,4Z"/>
          </g>
          <g class="uuid-41d0d962-f033-4ac1-b5d9-c39714ae22a1">
            <path class="uuid-bc018b2c-8894-4d03-9d63-d20ccde16afd" d="m1319.44,522.7h.03c.27-.44.62-.76,1.07-.96.44-.2.94-.3,1.49-.3.49,0,.93.08,1.32.24.39.16.73.38,1.02.67.28.28.5.63.66,1.03.16.4.23.83.23,1.3,0,.5-.08.95-.23,1.35-.16.4-.38.75-.66,1.03-.28.28-.62.5-1.02.65-.39.15-.83.23-1.32.23s-.92-.07-1.33-.21c-.41-.14-.76-.35-1.05-.61-.29-.27-.51-.59-.67-.98-.16-.39-.23-.84-.21-1.34h.28c-.02.46.04.87.18,1.22.14.36.34.66.6.91.26.25.58.44.96.56.38.13.79.19,1.24.19s.87-.07,1.23-.21c.36-.14.67-.34.93-.61.26-.26.45-.58.59-.95.14-.37.21-.78.21-1.23s-.07-.83-.21-1.19c-.14-.36-.34-.67-.6-.94-.26-.26-.57-.46-.94-.61-.37-.15-.77-.22-1.21-.22-.55,0-1.06.12-1.53.36-.47.24-.83.6-1.09,1.07h-.34l1-4.72h4.8v.28h-4.58l-.85,4Z"/>
          </g>
          <g class="uuid-41d0d962-f033-4ac1-b5d9-c39714ae22a1">
            <path class="uuid-bc018b2c-8894-4d03-9d63-d20ccde16afd" d="m1422,519.58c-.2-.27-.42-.48-.67-.64-.25-.16-.5-.26-.77-.32s-.52-.09-.76-.09c-.7,0-1.26.17-1.69.52s-.76.79-1,1.32c-.23.53-.39,1.11-.46,1.72-.07.62-.11,1.19-.1,1.73h.03c.06-.33.19-.64.38-.92s.42-.53.69-.75c.27-.22.58-.38.92-.5.34-.12.7-.18,1.07-.18.4,0,.8.08,1.19.23.39.16.74.38,1.04.66.3.29.55.62.73,1.02s.28.83.28,1.32-.09.9-.26,1.29-.41.73-.71,1.02c-.3.28-.64.51-1.03.67-.39.16-.8.24-1.23.24-.32,0-.62-.04-.9-.12-.28-.08-.53-.19-.76-.33s-.43-.29-.61-.47c-.18-.17-.33-.35-.45-.54-.27-.41-.44-.88-.51-1.41-.07-.53-.11-1.09-.11-1.7s.06-1.17.17-1.78c.11-.61.3-1.16.57-1.65.27-.5.63-.9,1.08-1.21.45-.31,1.02-.47,1.71-.47.4,0,.77.06,1.11.19.33.12.63.29.87.5.25.21.45.46.61.75.16.29.26.6.3.93h-.28c-.09-.42-.24-.77-.43-1.04Zm.36,3.97c-.16-.36-.37-.67-.63-.94-.27-.27-.58-.48-.94-.63-.36-.16-.74-.23-1.16-.23s-.8.08-1.16.23c-.36.16-.67.37-.94.63-.27.27-.48.58-.63.94-.16.36-.23.74-.23,1.16s.08.8.23,1.16c.16.36.37.67.63.94.27.27.58.48.94.63s.74.23,1.16.23.8-.08,1.16-.23c.36-.16.67-.37.94-.63.27-.27.48-.58.63-.94.16-.36.23-.74.23-1.16s-.08-.8-.23-1.16Z"/>
          </g>
          <g class="uuid-41d0d962-f033-4ac1-b5d9-c39714ae22a1">
            <path class="uuid-a0e9ccdd-9189-42ab-bb7a-9e638079cae4" d="m1422,519.58c-.2-.27-.42-.48-.67-.64-.25-.16-.5-.26-.77-.32s-.52-.09-.76-.09c-.7,0-1.26.17-1.69.52s-.76.79-1,1.32c-.23.53-.39,1.11-.46,1.72-.07.62-.11,1.19-.1,1.73h.03c.06-.33.19-.64.38-.92s.42-.53.69-.75c.27-.22.58-.38.92-.5.34-.12.7-.18,1.07-.18.4,0,.8.08,1.19.23.39.16.74.38,1.04.66.3.29.55.62.73,1.02s.28.83.28,1.32-.09.9-.26,1.29-.41.73-.71,1.02c-.3.28-.64.51-1.03.67-.39.16-.8.24-1.23.24-.32,0-.62-.04-.9-.12-.28-.08-.53-.19-.76-.33s-.43-.29-.61-.47c-.18-.17-.33-.35-.45-.54-.27-.41-.44-.88-.51-1.41-.07-.53-.11-1.09-.11-1.7s.06-1.17.17-1.78c.11-.61.3-1.16.57-1.65.27-.5.63-.9,1.08-1.21.45-.31,1.02-.47,1.71-.47.4,0,.77.06,1.11.19.33.12.63.29.87.5.25.21.45.46.61.75.16.29.26.6.3.93h-.28c-.09-.42-.24-.77-.43-1.04Zm.36,3.97c-.16-.36-.37-.67-.63-.94-.27-.27-.58-.48-.94-.63-.36-.16-.74-.23-1.16-.23s-.8.08-1.16.23c-.36.16-.67.37-.94.63-.27.27-.48.58-.63.94-.16.36-.23.74-.23,1.16s.08.8.23,1.16c.16.36.37.67.63.94.27.27.58.48.94.63s.74.23,1.16.23.8-.08,1.16-.23c.36-.16.67-.37.94-.63.27-.27.48-.58.63-.94.16-.36.23-.74.23-1.16s-.08-.8-.23-1.16Z"/>
          </g>
          <g class="uuid-41d0d962-f033-4ac1-b5d9-c39714ae22a1">
            <path class="uuid-bc018b2c-8894-4d03-9d63-d20ccde16afd" d="m1422,519.58c-.2-.27-.42-.48-.67-.64-.25-.16-.5-.26-.77-.32s-.52-.09-.76-.09c-.7,0-1.26.17-1.69.52s-.76.79-1,1.32c-.23.53-.39,1.11-.46,1.72-.07.62-.11,1.19-.1,1.73h.03c.06-.33.19-.64.38-.92s.42-.53.69-.75c.27-.22.58-.38.92-.5.34-.12.7-.18,1.07-.18.4,0,.8.08,1.19.23.39.16.74.38,1.04.66.3.29.55.62.73,1.02s.28.83.28,1.32-.09.9-.26,1.29-.41.73-.71,1.02c-.3.28-.64.51-1.03.67-.39.16-.8.24-1.23.24-.32,0-.62-.04-.9-.12-.28-.08-.53-.19-.76-.33s-.43-.29-.61-.47c-.18-.17-.33-.35-.45-.54-.27-.41-.44-.88-.51-1.41-.07-.53-.11-1.09-.11-1.7s.06-1.17.17-1.78c.11-.61.3-1.16.57-1.65.27-.5.63-.9,1.08-1.21.45-.31,1.02-.47,1.71-.47.4,0,.77.06,1.11.19.33.12.63.29.87.5.25.21.45.46.61.75.16.29.26.6.3.93h-.28c-.09-.42-.24-.77-.43-1.04Zm.36,3.97c-.16-.36-.37-.67-.63-.94-.27-.27-.58-.48-.94-.63-.36-.16-.74-.23-1.16-.23s-.8.08-1.16.23c-.36.16-.67.37-.94.63-.27.27-.48.58-.63.94-.16.36-.23.74-.23,1.16s.08.8.23,1.16c.16.36.37.67.63.94.27.27.58.48.94.63s.74.23,1.16.23.8-.08,1.16-.23c.36-.16.67-.37.94-.63.27-.27.48-.58.63-.94.16-.36.23-.74.23-1.16s-.08-.8-.23-1.16Z"/>
          </g>
          <g class="uuid-41d0d962-f033-4ac1-b5d9-c39714ae22a1">
            <path class="uuid-bc018b2c-8894-4d03-9d63-d20ccde16afd" d="m1514.09,518.42h5.97v.37c-.63.63-1.21,1.28-1.73,1.95s-.97,1.37-1.33,2.1c-.37.73-.65,1.5-.85,2.31-.2.81-.3,1.69-.3,2.62h-.28c0-.92.08-1.79.28-2.62.2-.83.48-1.61.85-2.36s.82-1.46,1.33-2.14c.52-.68,1.09-1.33,1.73-1.97h-5.67v-.28Z"/>
          </g>
          <g class="uuid-41d0d962-f033-4ac1-b5d9-c39714ae22a1">
            <path class="uuid-a0e9ccdd-9189-42ab-bb7a-9e638079cae4" d="m1514.09,518.42h5.97v.37c-.63.63-1.21,1.28-1.73,1.95s-.97,1.37-1.33,2.1c-.37.73-.65,1.5-.85,2.31-.2.81-.3,1.69-.3,2.62h-.28c0-.92.08-1.79.28-2.62.2-.83.48-1.61.85-2.36s.82-1.46,1.33-2.14c.52-.68,1.09-1.33,1.73-1.97h-5.67v-.28Z"/>
          </g>
          <g class="uuid-41d0d962-f033-4ac1-b5d9-c39714ae22a1">
            <path class="uuid-bc018b2c-8894-4d03-9d63-d20ccde16afd" d="m1514.09,518.42h5.97v.37c-.63.63-1.21,1.28-1.73,1.95s-.97,1.37-1.33,2.1c-.37.73-.65,1.5-.85,2.31-.2.81-.3,1.69-.3,2.62h-.28c0-.92.08-1.79.28-2.62.2-.83.48-1.61.85-2.36s.82-1.46,1.33-2.14c.52-.68,1.09-1.33,1.73-1.97h-5.67v-.28Z"/>
          </g>
          <g class="uuid-41d0d962-f033-4ac1-b5d9-c39714ae22a1">
            <path class="uuid-bc018b2c-8894-4d03-9d63-d20ccde16afd" d="m1617.33,523.42c.43.45.64,1.03.64,1.74,0,.49-.09.9-.27,1.25-.18.35-.43.63-.74.86-.31.22-.67.39-1.08.5-.41.11-.85.16-1.31.16s-.89-.05-1.31-.16c-.41-.11-.77-.27-1.08-.5-.31-.23-.55-.51-.74-.86-.18-.35-.28-.77-.28-1.25,0-.72.21-1.3.64-1.74.43-.44,1.01-.7,1.75-.78v-.03c-.27-.04-.52-.11-.75-.23-.23-.11-.44-.26-.61-.43-.17-.17-.31-.37-.41-.6-.1-.23-.15-.48-.15-.74,0-.42.08-.78.23-1.08s.36-.54.63-.74.58-.33.94-.42c.36-.09.74-.13,1.14-.13s.78.04,1.14.13c.36.09.67.23.94.42s.48.44.63.74.23.66.23,1.08c0,.27-.05.51-.15.74-.1.23-.24.43-.41.6-.17.17-.38.31-.61.43-.23.12-.48.19-.75.23v.03c.74.07,1.33.33,1.75.78Zm.1.61c-.17-.3-.41-.55-.69-.73-.29-.18-.62-.31-1-.39-.38-.08-.77-.12-1.17-.12s-.79.04-1.17.12c-.38.08-.71.21-1,.39-.29.18-.52.43-.7.73-.17.3-.26.68-.26,1.13s.08.83.25,1.15.4.58.69.78c.29.2.62.35,1,.44.38.09.77.14,1.18.14s.81-.05,1.18-.14c.38-.09.71-.24,1-.44.29-.2.52-.46.69-.78s.25-.7.25-1.15-.09-.83-.26-1.13Zm-.43-4.42c-.15-.27-.35-.48-.6-.64-.25-.16-.53-.28-.85-.34-.32-.07-.64-.1-.98-.1s-.67.03-.98.1c-.32.07-.6.18-.85.34-.25.16-.45.37-.6.64-.15.27-.23.6-.23,1,0,.33.08.62.24.86s.37.44.62.59c.25.15.54.26.85.34.32.07.63.11.94.11s.63-.04.94-.11c.32-.07.6-.19.85-.34s.46-.35.62-.59c.16-.24.24-.53.24-.86,0-.4-.08-.74-.23-1Z"/>
          </g>
          <g class="uuid-41d0d962-f033-4ac1-b5d9-c39714ae22a1">
            <path class="uuid-a0e9ccdd-9189-42ab-bb7a-9e638079cae4" d="m1617.33,523.42c.43.45.64,1.03.64,1.74,0,.49-.09.9-.27,1.25-.18.35-.43.63-.74.86-.31.22-.67.39-1.08.5-.41.11-.85.16-1.31.16s-.89-.05-1.31-.16c-.41-.11-.77-.27-1.08-.5-.31-.23-.55-.51-.74-.86-.18-.35-.28-.77-.28-1.25,0-.72.21-1.3.64-1.74.43-.44,1.01-.7,1.75-.78v-.03c-.27-.04-.52-.11-.75-.23-.23-.11-.44-.26-.61-.43-.17-.17-.31-.37-.41-.6-.1-.23-.15-.48-.15-.74,0-.42.08-.78.23-1.08s.36-.54.63-.74.58-.33.94-.42c.36-.09.74-.13,1.14-.13s.78.04,1.14.13c.36.09.67.23.94.42s.48.44.63.74.23.66.23,1.08c0,.27-.05.51-.15.74-.1.23-.24.43-.41.6-.17.17-.38.31-.61.43-.23.12-.48.19-.75.23v.03c.74.07,1.33.33,1.75.78Zm.1.61c-.17-.3-.41-.55-.69-.73-.29-.18-.62-.31-1-.39-.38-.08-.77-.12-1.17-.12s-.79.04-1.17.12c-.38.08-.71.21-1,.39-.29.18-.52.43-.7.73-.17.3-.26.68-.26,1.13s.08.83.25,1.15.4.58.69.78c.29.2.62.35,1,.44.38.09.77.14,1.18.14s.81-.05,1.18-.14c.38-.09.71-.24,1-.44.29-.2.52-.46.69-.78s.25-.7.25-1.15-.09-.83-.26-1.13Zm-.43-4.42c-.15-.27-.35-.48-.6-.64-.25-.16-.53-.28-.85-.34-.32-.07-.64-.1-.98-.1s-.67.03-.98.1c-.32.07-.6.18-.85.34-.25.16-.45.37-.6.64-.15.27-.23.6-.23,1,0,.33.08.62.24.86s.37.44.62.59c.25.15.54.26.85.34.32.07.63.11.94.11s.63-.04.94-.11c.32-.07.6-.19.85-.34s.46-.35.62-.59c.16-.24.24-.53.24-.86,0-.4-.08-.74-.23-1Z"/>
          </g>
          <g class="uuid-41d0d962-f033-4ac1-b5d9-c39714ae22a1">
            <path class="uuid-bc018b2c-8894-4d03-9d63-d20ccde16afd" d="m1617.33,523.42c.43.45.64,1.03.64,1.74,0,.49-.09.9-.27,1.25-.18.35-.43.63-.74.86-.31.22-.67.39-1.08.5-.41.11-.85.16-1.31.16s-.89-.05-1.31-.16c-.41-.11-.77-.27-1.08-.5-.31-.23-.55-.51-.74-.86-.18-.35-.28-.77-.28-1.25,0-.72.21-1.3.64-1.74.43-.44,1.01-.7,1.75-.78v-.03c-.27-.04-.52-.11-.75-.23-.23-.11-.44-.26-.61-.43-.17-.17-.31-.37-.41-.6-.1-.23-.15-.48-.15-.74,0-.42.08-.78.23-1.08s.36-.54.63-.74.58-.33.94-.42c.36-.09.74-.13,1.14-.13s.78.04,1.14.13c.36.09.67.23.94.42s.48.44.63.74.23.66.23,1.08c0,.27-.05.51-.15.74-.1.23-.24.43-.41.6-.17.17-.38.31-.61.43-.23.12-.48.19-.75.23v.03c.74.07,1.33.33,1.75.78Zm.1.61c-.17-.3-.41-.55-.69-.73-.29-.18-.62-.31-1-.39-.38-.08-.77-.12-1.17-.12s-.79.04-1.17.12c-.38.08-.71.21-1,.39-.29.18-.52.43-.7.73-.17.3-.26.68-.26,1.13s.08.83.25,1.15.4.58.69.78c.29.2.62.35,1,.44.38.09.77.14,1.18.14s.81-.05,1.18-.14c.38-.09.71-.24,1-.44.29-.2.52-.46.69-.78s.25-.7.25-1.15-.09-.83-.26-1.13Zm-.43-4.42c-.15-.27-.35-.48-.6-.64-.25-.16-.53-.28-.85-.34-.32-.07-.64-.1-.98-.1s-.67.03-.98.1c-.32.07-.6.18-.85.34-.25.16-.45.37-.6.64-.15.27-.23.6-.23,1,0,.33.08.62.24.86s.37.44.62.59c.25.15.54.26.85.34.32.07.63.11.94.11s.63-.04.94-.11c.32-.07.6-.19.85-.34s.46-.35.62-.59c.16-.24.24-.53.24-.86,0-.4-.08-.74-.23-1Z"/>
          </g>
          <g class="uuid-41d0d962-f033-4ac1-b5d9-c39714ae22a1">
            <path class="uuid-bc018b2c-8894-4d03-9d63-d20ccde16afd" d="m818.21,997.64v.28h-6.88v-.28h6.88Z"/>
            <path class="uuid-bc018b2c-8894-4d03-9d63-d20ccde16afd" d="m819.38,996.38h.03c.27-.44.62-.76,1.07-.96.44-.2.94-.3,1.49-.3.49,0,.93.08,1.32.24.39.16.73.38,1.02.67.28.28.5.63.66,1.03.16.4.23.83.23,1.3,0,.5-.08.95-.23,1.35-.16.4-.38.75-.66,1.03-.28.28-.62.5-1.02.65-.39.15-.83.23-1.32.23s-.92-.07-1.33-.21c-.41-.14-.76-.35-1.05-.61-.29-.27-.51-.59-.67-.98-.16-.39-.23-.84-.21-1.34h.28c-.02.46.04.87.18,1.22.14.36.34.66.6.91.26.25.58.44.96.56.38.13.79.19,1.24.19s.87-.07,1.23-.21c.36-.14.67-.34.93-.61.26-.26.45-.58.59-.95.14-.37.21-.78.21-1.23s-.07-.83-.21-1.19c-.14-.36-.34-.67-.6-.94-.26-.26-.57-.46-.94-.61-.37-.15-.77-.22-1.21-.22-.55,0-1.06.12-1.53.36-.47.24-.83.6-1.09,1.07h-.34l1-4.72h4.8v.28h-4.58l-.85,4Z"/>
          </g>
          <g class="uuid-41d0d962-f033-4ac1-b5d9-c39714ae22a1">
            <path class="uuid-a0e9ccdd-9189-42ab-bb7a-9e638079cae4" d="m818.21,997.64v.28h-6.88v-.28h6.88Z"/>
            <path class="uuid-a0e9ccdd-9189-42ab-bb7a-9e638079cae4" d="m819.38,996.38h.03c.27-.44.62-.76,1.07-.96.44-.2.94-.3,1.49-.3.49,0,.93.08,1.32.24.39.16.73.38,1.02.67.28.28.5.63.66,1.03.16.4.23.83.23,1.3,0,.5-.08.95-.23,1.35-.16.4-.38.75-.66,1.03-.28.28-.62.5-1.02.65-.39.15-.83.23-1.32.23s-.92-.07-1.33-.21c-.41-.14-.76-.35-1.05-.61-.29-.27-.51-.59-.67-.98-.16-.39-.23-.84-.21-1.34h.28c-.02.46.04.87.18,1.22.14.36.34.66.6.91.26.25.58.44.96.56.38.13.79.19,1.24.19s.87-.07,1.23-.21c.36-.14.67-.34.93-.61.26-.26.45-.58.59-.95.14-.37.21-.78.21-1.23s-.07-.83-.21-1.19c-.14-.36-.34-.67-.6-.94-.26-.26-.57-.46-.94-.61-.37-.15-.77-.22-1.21-.22-.55,0-1.06.12-1.53.36-.47.24-.83.6-1.09,1.07h-.34l1-4.72h4.8v.28h-4.58l-.85,4Z"/>
          </g>
          <g class="uuid-41d0d962-f033-4ac1-b5d9-c39714ae22a1">
            <path class="uuid-bc018b2c-8894-4d03-9d63-d20ccde16afd" d="m818.21,997.64v.28h-6.88v-.28h6.88Z"/>
            <path class="uuid-bc018b2c-8894-4d03-9d63-d20ccde16afd" d="m819.38,996.38h.03c.27-.44.62-.76,1.07-.96.44-.2.94-.3,1.49-.3.49,0,.93.08,1.32.24.39.16.73.38,1.02.67.28.28.5.63.66,1.03.16.4.23.83.23,1.3,0,.5-.08.95-.23,1.35-.16.4-.38.75-.66,1.03-.28.28-.62.5-1.02.65-.39.15-.83.23-1.32.23s-.92-.07-1.33-.21c-.41-.14-.76-.35-1.05-.61-.29-.27-.51-.59-.67-.98-.16-.39-.23-.84-.21-1.34h.28c-.02.46.04.87.18,1.22.14.36.34.66.6.91.26.25.58.44.96.56.38.13.79.19,1.24.19s.87-.07,1.23-.21c.36-.14.67-.34.93-.61.26-.26.45-.58.59-.95.14-.37.21-.78.21-1.23s-.07-.83-.21-1.19c-.14-.36-.34-.67-.6-.94-.26-.26-.57-.46-.94-.61-.37-.15-.77-.22-1.21-.22-.55,0-1.06.12-1.53.36-.47.24-.83.6-1.09,1.07h-.34l1-4.72h4.8v.28h-4.58l-.85,4Z"/>
          </g>
          <g class="uuid-41d0d962-f033-4ac1-b5d9-c39714ae22a1">
            <path class="uuid-bc018b2c-8894-4d03-9d63-d20ccde16afd" d="m818.21,900.15v.28h-6.88v-.28h6.88Z"/>
            <path class="uuid-bc018b2c-8894-4d03-9d63-d20ccde16afd" d="m818.68,901.21l4.68-6.59h.34v6.65h1.69v.27h-1.69v2.44h-.28v-2.44h-4.75v-.33Zm4.72-6.21l-4.45,6.26h4.47v-6.26h-.03Z"/>
          </g>
          <g class="uuid-41d0d962-f033-4ac1-b5d9-c39714ae22a1">
            <path class="uuid-a0e9ccdd-9189-42ab-bb7a-9e638079cae4" d="m818.21,900.15v.28h-6.88v-.28h6.88Z"/>
            <path class="uuid-a0e9ccdd-9189-42ab-bb7a-9e638079cae4" d="m818.68,901.21l4.68-6.59h.34v6.65h1.69v.27h-1.69v2.44h-.28v-2.44h-4.75v-.33Zm4.72-6.21l-4.45,6.26h4.47v-6.26h-.03Z"/>
          </g>
          <g class="uuid-41d0d962-f033-4ac1-b5d9-c39714ae22a1">
            <path class="uuid-bc018b2c-8894-4d03-9d63-d20ccde16afd" d="m818.21,900.15v.28h-6.88v-.28h6.88Z"/>
            <path class="uuid-bc018b2c-8894-4d03-9d63-d20ccde16afd" d="m818.68,901.21l4.68-6.59h.34v6.65h1.69v.27h-1.69v2.44h-.28v-2.44h-4.75v-.33Zm4.72-6.21l-4.45,6.26h4.47v-6.26h-.03Z"/>
          </g>
          <g class="uuid-41d0d962-f033-4ac1-b5d9-c39714ae22a1">
            <path class="uuid-bc018b2c-8894-4d03-9d63-d20ccde16afd" d="m818.21,802.66v.28h-6.88v-.28h6.88Z"/>
            <path class="uuid-bc018b2c-8894-4d03-9d63-d20ccde16afd" d="m819.23,798.69c.15-.38.36-.7.64-.96.28-.26.62-.45,1.02-.58.4-.13.84-.19,1.33-.19.38,0,.74.04,1.09.12.35.08.66.22.94.4s.5.42.66.72c.17.29.25.65.25,1.06,0,.66-.19,1.17-.57,1.54-.38.37-.86.58-1.44.63v.03c.28.03.54.09.81.2s.5.26.7.45c.21.2.37.44.5.74.12.29.19.64.19,1.05,0,.44-.08.83-.25,1.17-.17.34-.4.63-.69.86-.29.23-.62.41-1,.53s-.79.18-1.22.18c-.53,0-1.01-.07-1.45-.22-.43-.15-.8-.36-1.1-.64-.3-.28-.53-.63-.68-1.04s-.21-.88-.17-1.42h.28c-.04.5.01.93.15,1.31.14.38.34.7.62.96.27.26.61.45,1.02.58.4.13.85.2,1.33.2.38,0,.74-.05,1.09-.16.35-.11.66-.26.92-.47s.48-.47.64-.78c.16-.31.24-.66.24-1.07s-.07-.75-.2-1.03c-.13-.28-.32-.52-.56-.7-.24-.18-.53-.32-.85-.41s-.68-.15-1.07-.17h-.67v-.28h.67c.3,0,.6-.03.9-.1.3-.07.57-.18.81-.34.24-.16.43-.37.58-.63.15-.26.22-.58.22-.97,0-.38-.09-.69-.25-.95-.16-.26-.36-.46-.61-.63-.25-.16-.53-.28-.84-.34-.31-.07-.63-.1-.96-.1-.45,0-.86.06-1.22.17-.36.12-.67.29-.93.52-.26.23-.45.53-.58.87s-.19.76-.19,1.22h-.28c0-.51.06-.96.21-1.34Z"/>
          </g>
          <g class="uuid-41d0d962-f033-4ac1-b5d9-c39714ae22a1">
            <path class="uuid-a0e9ccdd-9189-42ab-bb7a-9e638079cae4" d="m818.21,802.66v.28h-6.88v-.28h6.88Z"/>
            <path class="uuid-a0e9ccdd-9189-42ab-bb7a-9e638079cae4" d="m819.23,798.69c.15-.38.36-.7.64-.96.28-.26.62-.45,1.02-.58.4-.13.84-.19,1.33-.19.38,0,.74.04,1.09.12.35.08.66.22.94.4s.5.42.66.72c.17.29.25.65.25,1.06,0,.66-.19,1.17-.57,1.54-.38.37-.86.58-1.44.63v.03c.28.03.54.09.81.2s.5.26.7.45c.21.2.37.44.5.74.12.29.19.64.19,1.05,0,.44-.08.83-.25,1.17-.17.34-.4.63-.69.86-.29.23-.62.41-1,.53s-.79.18-1.22.18c-.53,0-1.01-.07-1.45-.22-.43-.15-.8-.36-1.1-.64-.3-.28-.53-.63-.68-1.04s-.21-.88-.17-1.42h.28c-.04.5.01.93.15,1.31.14.38.34.7.62.96.27.26.61.45,1.02.58.4.13.85.2,1.33.2.38,0,.74-.05,1.09-.16.35-.11.66-.26.92-.47s.48-.47.64-.78c.16-.31.24-.66.24-1.07s-.07-.75-.2-1.03c-.13-.28-.32-.52-.56-.7-.24-.18-.53-.32-.85-.41s-.68-.15-1.07-.17h-.67v-.28h.67c.3,0,.6-.03.9-.1.3-.07.57-.18.81-.34.24-.16.43-.37.58-.63.15-.26.22-.58.22-.97,0-.38-.09-.69-.25-.95-.16-.26-.36-.46-.61-.63-.25-.16-.53-.28-.84-.34-.31-.07-.63-.1-.96-.1-.45,0-.86.06-1.22.17-.36.12-.67.29-.93.52-.26.23-.45.53-.58.87s-.19.76-.19,1.22h-.28c0-.51.06-.96.21-1.34Z"/>
          </g>
          <g class="uuid-41d0d962-f033-4ac1-b5d9-c39714ae22a1">
            <path class="uuid-bc018b2c-8894-4d03-9d63-d20ccde16afd" d="m818.21,802.66v.28h-6.88v-.28h6.88Z"/>
            <path class="uuid-bc018b2c-8894-4d03-9d63-d20ccde16afd" d="m819.23,798.69c.15-.38.36-.7.64-.96.28-.26.62-.45,1.02-.58.4-.13.84-.19,1.33-.19.38,0,.74.04,1.09.12.35.08.66.22.94.4s.5.42.66.72c.17.29.25.65.25,1.06,0,.66-.19,1.17-.57,1.54-.38.37-.86.58-1.44.63v.03c.28.03.54.09.81.2s.5.26.7.45c.21.2.37.44.5.74.12.29.19.64.19,1.05,0,.44-.08.83-.25,1.17-.17.34-.4.63-.69.86-.29.23-.62.41-1,.53s-.79.18-1.22.18c-.53,0-1.01-.07-1.45-.22-.43-.15-.8-.36-1.1-.64-.3-.28-.53-.63-.68-1.04s-.21-.88-.17-1.42h.28c-.04.5.01.93.15,1.31.14.38.34.7.62.96.27.26.61.45,1.02.58.4.13.85.2,1.33.2.38,0,.74-.05,1.09-.16.35-.11.66-.26.92-.47s.48-.47.64-.78c.16-.31.24-.66.24-1.07s-.07-.75-.2-1.03c-.13-.28-.32-.52-.56-.7-.24-.18-.53-.32-.85-.41s-.68-.15-1.07-.17h-.67v-.28h.67c.3,0,.6-.03.9-.1.3-.07.57-.18.81-.34.24-.16.43-.37.58-.63.15-.26.22-.58.22-.97,0-.38-.09-.69-.25-.95-.16-.26-.36-.46-.61-.63-.25-.16-.53-.28-.84-.34-.31-.07-.63-.1-.96-.1-.45,0-.86.06-1.22.17-.36.12-.67.29-.93.52-.26.23-.45.53-.58.87s-.19.76-.19,1.22h-.28c0-.51.06-.96.21-1.34Z"/>
          </g>
          <g class="uuid-41d0d962-f033-4ac1-b5d9-c39714ae22a1">
            <path class="uuid-bc018b2c-8894-4d03-9d63-d20ccde16afd" d="m818.21,705.17v.28h-6.88v-.28h6.88Z"/>
            <path class="uuid-bc018b2c-8894-4d03-9d63-d20ccde16afd" d="m825.27,708.99h-6.3c0-.39.07-.75.25-1.07.17-.32.4-.62.69-.9.28-.28.6-.55.96-.8.35-.25.7-.5,1.05-.75.36-.25.71-.5,1.05-.76.34-.26.64-.53.91-.81.27-.28.48-.58.64-.89.16-.32.24-.66.24-1.03s-.07-.69-.2-.97c-.13-.28-.31-.51-.54-.7-.23-.19-.5-.33-.82-.43-.32-.1-.66-.14-1.04-.14-.49,0-.9.07-1.25.22-.35.15-.63.35-.85.61s-.38.57-.48.94-.15.76-.15,1.19h-.27c0-1.03.26-1.82.76-2.39s1.25-.85,2.25-.85c.4,0,.78.05,1.13.16s.65.26.91.48.46.47.61.78.23.68.23,1.1c0,.51-.14.98-.41,1.4s-.62.82-1.04,1.18-.87.71-1.36,1.04c-.49.33-.94.65-1.37.98-.43.33-.79.66-1.09,1-.3.34-.47.72-.51,1.12h6.03v.28Z"/>
          </g>
          <g class="uuid-41d0d962-f033-4ac1-b5d9-c39714ae22a1">
            <path class="uuid-a0e9ccdd-9189-42ab-bb7a-9e638079cae4" d="m818.21,705.17v.28h-6.88v-.28h6.88Z"/>
            <path class="uuid-a0e9ccdd-9189-42ab-bb7a-9e638079cae4" d="m825.27,708.99h-6.3c0-.39.07-.75.25-1.07.17-.32.4-.62.69-.9.28-.28.6-.55.96-.8.35-.25.7-.5,1.05-.75.36-.25.71-.5,1.05-.76.34-.26.64-.53.91-.81.27-.28.48-.58.64-.89.16-.32.24-.66.24-1.03s-.07-.69-.2-.97c-.13-.28-.31-.51-.54-.7-.23-.19-.5-.33-.82-.43-.32-.1-.66-.14-1.04-.14-.49,0-.9.07-1.25.22-.35.15-.63.35-.85.61s-.38.57-.48.94-.15.76-.15,1.19h-.27c0-1.03.26-1.82.76-2.39s1.25-.85,2.25-.85c.4,0,.78.05,1.13.16s.65.26.91.48.46.47.61.78.23.68.23,1.1c0,.51-.14.98-.41,1.4s-.62.82-1.04,1.18-.87.71-1.36,1.04c-.49.33-.94.65-1.37.98-.43.33-.79.66-1.09,1-.3.34-.47.72-.51,1.12h6.03v.28Z"/>
          </g>
          <g class="uuid-41d0d962-f033-4ac1-b5d9-c39714ae22a1">
            <path class="uuid-bc018b2c-8894-4d03-9d63-d20ccde16afd" d="m818.21,705.17v.28h-6.88v-.28h6.88Z"/>
            <path class="uuid-bc018b2c-8894-4d03-9d63-d20ccde16afd" d="m825.27,708.99h-6.3c0-.39.07-.75.25-1.07.17-.32.4-.62.69-.9.28-.28.6-.55.96-.8.35-.25.7-.5,1.05-.75.36-.25.71-.5,1.05-.76.34-.26.64-.53.91-.81.27-.28.48-.58.64-.89.16-.32.24-.66.24-1.03s-.07-.69-.2-.97c-.13-.28-.31-.51-.54-.7-.23-.19-.5-.33-.82-.43-.32-.1-.66-.14-1.04-.14-.49,0-.9.07-1.25.22-.35.15-.63.35-.85.61s-.38.57-.48.94-.15.76-.15,1.19h-.27c0-1.03.26-1.82.76-2.39s1.25-.85,2.25-.85c.4,0,.78.05,1.13.16s.65.26.91.48.46.47.61.78.23.68.23,1.1c0,.51-.14.98-.41,1.4s-.62.82-1.04,1.18-.87.71-1.36,1.04c-.49.33-.94.65-1.37.98-.43.33-.79.66-1.09,1-.3.34-.47.72-.51,1.12h6.03v.28Z"/>
          </g>
          <g class="uuid-41d0d962-f033-4ac1-b5d9-c39714ae22a1">
            <path class="uuid-bc018b2c-8894-4d03-9d63-d20ccde16afd" d="m818.21,607.68v.28h-6.88v-.28h6.88Z"/>
            <path class="uuid-bc018b2c-8894-4d03-9d63-d20ccde16afd" d="m822.28,602.5c-.28.39-.65.74-1.11,1.03-.45.29-.92.5-1.38.63v-.28c.28-.09.54-.19.76-.3s.43-.23.62-.37c.19-.14.38-.29.56-.47.18-.17.36-.37.56-.59h.3v9.36h-.28v-9h-.03Z"/>
          </g>
          <g class="uuid-41d0d962-f033-4ac1-b5d9-c39714ae22a1">
            <path class="uuid-a0e9ccdd-9189-42ab-bb7a-9e638079cae4" d="m818.21,607.68v.28h-6.88v-.28h6.88Z"/>
            <path class="uuid-a0e9ccdd-9189-42ab-bb7a-9e638079cae4" d="m822.28,602.5c-.28.39-.65.74-1.11,1.03-.45.29-.92.5-1.38.63v-.28c.28-.09.54-.19.76-.3s.43-.23.62-.37c.19-.14.38-.29.56-.47.18-.17.36-.37.56-.59h.3v9.36h-.28v-9h-.03Z"/>
          </g>
          <g class="uuid-41d0d962-f033-4ac1-b5d9-c39714ae22a1">
            <path class="uuid-bc018b2c-8894-4d03-9d63-d20ccde16afd" d="m818.21,607.68v.28h-6.88v-.28h6.88Z"/>
            <path class="uuid-bc018b2c-8894-4d03-9d63-d20ccde16afd" d="m822.28,602.5c-.28.39-.65.74-1.11,1.03-.45.29-.92.5-1.38.63v-.28c.28-.09.54-.19.76-.3s.43-.23.62-.37c.19-.14.38-.29.56-.47.18-.17.36-.37.56-.59h.3v9.36h-.28v-9h-.03Z"/>
          </g>
          <g class="uuid-41d0d962-f033-4ac1-b5d9-c39714ae22a1">
            <path class="uuid-bc018b2c-8894-4d03-9d63-d20ccde16afd" d="m822.28,408.67c-.28.39-.65.74-1.11,1.03-.45.29-.92.5-1.38.63v-.28c.28-.09.54-.19.76-.3s.43-.23.62-.37c.19-.14.38-.29.56-.47.18-.17.36-.37.56-.59h.3v9.36h-.28v-9h-.03Z"/>
          </g>
          <g class="uuid-41d0d962-f033-4ac1-b5d9-c39714ae22a1">
            <path class="uuid-a0e9ccdd-9189-42ab-bb7a-9e638079cae4" d="m822.28,408.67c-.28.39-.65.74-1.11,1.03-.45.29-.92.5-1.38.63v-.28c.28-.09.54-.19.76-.3s.43-.23.62-.37c.19-.14.38-.29.56-.47.18-.17.36-.37.56-.59h.3v9.36h-.28v-9h-.03Z"/>
          </g>
          <g class="uuid-41d0d962-f033-4ac1-b5d9-c39714ae22a1">
            <path class="uuid-bc018b2c-8894-4d03-9d63-d20ccde16afd" d="m822.28,408.67c-.28.39-.65.74-1.11,1.03-.45.29-.92.5-1.38.63v-.28c.28-.09.54-.19.76-.3s.43-.23.62-.37c.19-.14.38-.29.56-.47.18-.17.36-.37.56-.59h.3v9.36h-.28v-9h-.03Z"/>
          </g>
          <g class="uuid-41d0d962-f033-4ac1-b5d9-c39714ae22a1">
            <path class="uuid-bc018b2c-8894-4d03-9d63-d20ccde16afd" d="m825.27,320.18h-6.3c0-.39.07-.75.25-1.07.17-.32.4-.62.69-.9.28-.28.6-.55.96-.8.35-.25.7-.5,1.05-.75.36-.25.71-.5,1.05-.76.34-.26.64-.53.91-.81.27-.28.48-.58.64-.89.16-.32.24-.66.24-1.03s-.07-.69-.2-.97c-.13-.28-.31-.51-.54-.7-.23-.19-.5-.33-.82-.43-.32-.1-.66-.14-1.04-.14-.49,0-.9.07-1.25.22-.35.15-.63.35-.85.61s-.38.57-.48.94-.15.76-.15,1.19h-.27c0-1.03.26-1.82.76-2.39s1.25-.85,2.25-.85c.4,0,.78.05,1.13.16s.65.26.91.48.46.47.61.78.23.68.23,1.1c0,.51-.14.98-.41,1.4s-.62.82-1.04,1.18-.87.71-1.36,1.04c-.49.33-.94.65-1.37.98-.43.33-.79.66-1.09,1-.3.34-.47.72-.51,1.12h6.03v.28Z"/>
          </g>
          <g class="uuid-41d0d962-f033-4ac1-b5d9-c39714ae22a1">
            <path class="uuid-a0e9ccdd-9189-42ab-bb7a-9e638079cae4" d="m825.27,320.18h-6.3c0-.39.07-.75.25-1.07.17-.32.4-.62.69-.9.28-.28.6-.55.96-.8.35-.25.7-.5,1.05-.75.36-.25.71-.5,1.05-.76.34-.26.64-.53.91-.81.27-.28.48-.58.64-.89.16-.32.24-.66.24-1.03s-.07-.69-.2-.97c-.13-.28-.31-.51-.54-.7-.23-.19-.5-.33-.82-.43-.32-.1-.66-.14-1.04-.14-.49,0-.9.07-1.25.22-.35.15-.63.35-.85.61s-.38.57-.48.94-.15.76-.15,1.19h-.27c0-1.03.26-1.82.76-2.39s1.25-.85,2.25-.85c.4,0,.78.05,1.13.16s.65.26.91.48.46.47.61.78.23.68.23,1.1c0,.51-.14.98-.41,1.4s-.62.82-1.04,1.18-.87.71-1.36,1.04c-.49.33-.94.65-1.37.98-.43.33-.79.66-1.09,1-.3.34-.47.72-.51,1.12h6.03v.28Z"/>
          </g>
          <g class="uuid-41d0d962-f033-4ac1-b5d9-c39714ae22a1">
            <path class="uuid-bc018b2c-8894-4d03-9d63-d20ccde16afd" d="m825.27,320.18h-6.3c0-.39.07-.75.25-1.07.17-.32.4-.62.69-.9.28-.28.6-.55.96-.8.35-.25.7-.5,1.05-.75.36-.25.71-.5,1.05-.76.34-.26.64-.53.91-.81.27-.28.48-.58.64-.89.16-.32.24-.66.24-1.03s-.07-.69-.2-.97c-.13-.28-.31-.51-.54-.7-.23-.19-.5-.33-.82-.43-.32-.1-.66-.14-1.04-.14-.49,0-.9.07-1.25.22-.35.15-.63.35-.85.61s-.38.57-.48.94-.15.76-.15,1.19h-.27c0-1.03.26-1.82.76-2.39s1.25-.85,2.25-.85c.4,0,.78.05,1.13.16s.65.26.91.48.46.47.61.78.23.68.23,1.1c0,.51-.14.98-.41,1.4s-.62.82-1.04,1.18-.87.71-1.36,1.04c-.49.33-.94.65-1.37.98-.43.33-.79.66-1.09,1-.3.34-.47.72-.51,1.12h6.03v.28Z"/>
          </g>
          <g class="uuid-41d0d962-f033-4ac1-b5d9-c39714ae22a1">
            <path class="uuid-bc018b2c-8894-4d03-9d63-d20ccde16afd" d="m819.23,214.89c.15-.38.36-.7.64-.96.28-.26.62-.45,1.02-.58.4-.13.84-.19,1.33-.19.38,0,.74.04,1.09.12s.66.22.94.4.5.42.66.72c.17.29.25.65.25,1.06,0,.66-.19,1.17-.57,1.54-.38.37-.86.58-1.44.63v.03c.28.03.54.09.81.2.26.11.5.26.7.45.21.2.37.44.5.74.12.29.19.64.19,1.05,0,.44-.08.83-.25,1.17s-.4.63-.69.86c-.29.23-.62.41-1,.53s-.79.18-1.22.18c-.53,0-1.01-.07-1.45-.22s-.8-.36-1.1-.64c-.3-.28-.53-.63-.68-1.04-.15-.41-.21-.89-.17-1.42h.28c-.04.5.01.93.15,1.31s.34.7.62.96c.27.26.61.45,1.02.58.4.13.85.2,1.33.2.38,0,.74-.05,1.09-.16.35-.1.66-.26.92-.47s.48-.47.64-.78c.16-.31.24-.66.24-1.07s-.07-.75-.2-1.03-.32-.52-.56-.7c-.24-.18-.53-.32-.85-.41s-.68-.15-1.07-.17h-.67v-.27h.67c.3,0,.6-.03.9-.1.3-.07.57-.18.81-.34.24-.16.43-.37.58-.63.15-.26.22-.58.22-.97,0-.38-.09-.69-.25-.95s-.36-.47-.61-.63c-.25-.16-.53-.27-.84-.34-.31-.07-.63-.1-.96-.1-.45,0-.86.06-1.22.17-.36.11-.67.29-.93.52-.26.23-.45.53-.58.87s-.19.76-.19,1.22h-.28c0-.51.06-.96.21-1.34Z"/>
          </g>
          <g class="uuid-41d0d962-f033-4ac1-b5d9-c39714ae22a1">
            <path class="uuid-a0e9ccdd-9189-42ab-bb7a-9e638079cae4" d="m819.23,214.89c.15-.38.36-.7.64-.96.28-.26.62-.45,1.02-.58.4-.13.84-.19,1.33-.19.38,0,.74.04,1.09.12s.66.22.94.4.5.42.66.72c.17.29.25.65.25,1.06,0,.66-.19,1.17-.57,1.54-.38.37-.86.58-1.44.63v.03c.28.03.54.09.81.2.26.11.5.26.7.45.21.2.37.44.5.74.12.29.19.64.19,1.05,0,.44-.08.83-.25,1.17s-.4.63-.69.86c-.29.23-.62.41-1,.53s-.79.18-1.22.18c-.53,0-1.01-.07-1.45-.22s-.8-.36-1.1-.64c-.3-.28-.53-.63-.68-1.04-.15-.41-.21-.89-.17-1.42h.28c-.04.5.01.93.15,1.31s.34.7.62.96c.27.26.61.45,1.02.58.4.13.85.2,1.33.2.38,0,.74-.05,1.09-.16.35-.1.66-.26.92-.47s.48-.47.64-.78c.16-.31.24-.66.24-1.07s-.07-.75-.2-1.03-.32-.52-.56-.7c-.24-.18-.53-.32-.85-.41s-.68-.15-1.07-.17h-.67v-.27h.67c.3,0,.6-.03.9-.1.3-.07.57-.18.81-.34.24-.16.43-.37.58-.63.15-.26.22-.58.22-.97,0-.38-.09-.69-.25-.95s-.36-.47-.61-.63c-.25-.16-.53-.27-.84-.34-.31-.07-.63-.1-.96-.1-.45,0-.86.06-1.22.17-.36.11-.67.29-.93.52-.26.23-.45.53-.58.87s-.19.76-.19,1.22h-.28c0-.51.06-.96.21-1.34Z"/>
          </g>
          <g class="uuid-41d0d962-f033-4ac1-b5d9-c39714ae22a1">
            <path class="uuid-bc018b2c-8894-4d03-9d63-d20ccde16afd" d="m819.23,214.89c.15-.38.36-.7.64-.96.28-.26.62-.45,1.02-.58.4-.13.84-.19,1.33-.19.38,0,.74.04,1.09.12s.66.22.94.4.5.42.66.72c.17.29.25.65.25,1.06,0,.66-.19,1.17-.57,1.54-.38.37-.86.58-1.44.63v.03c.28.03.54.09.81.2.26.11.5.26.7.45.21.2.37.44.5.74.12.29.19.64.19,1.05,0,.44-.08.83-.25,1.17s-.4.63-.69.86c-.29.23-.62.41-1,.53s-.79.18-1.22.18c-.53,0-1.01-.07-1.45-.22s-.8-.36-1.1-.64c-.3-.28-.53-.63-.68-1.04-.15-.41-.21-.89-.17-1.42h.28c-.04.5.01.93.15,1.31s.34.7.62.96c.27.26.61.45,1.02.58.4.13.85.2,1.33.2.38,0,.74-.05,1.09-.16.35-.1.66-.26.92-.47s.48-.47.64-.78c.16-.31.24-.66.24-1.07s-.07-.75-.2-1.03-.32-.52-.56-.7c-.24-.18-.53-.32-.85-.41s-.68-.15-1.07-.17h-.67v-.27h.67c.3,0,.6-.03.9-.1.3-.07.57-.18.81-.34.24-.16.43-.37.58-.63.15-.26.22-.58.22-.97,0-.38-.09-.69-.25-.95s-.36-.47-.61-.63c-.25-.16-.53-.27-.84-.34-.31-.07-.63-.1-.96-.1-.45,0-.86.06-1.22.17-.36.11-.67.29-.93.52-.26.23-.45.53-.58.87s-.19.76-.19,1.22h-.28c0-.51.06-.96.21-1.34Z"/>
          </g>
          <g class="uuid-41d0d962-f033-4ac1-b5d9-c39714ae22a1">
            <path class="uuid-bc018b2c-8894-4d03-9d63-d20ccde16afd" d="m818.68,122.44l4.68-6.59h.34v6.65h1.69v.28h-1.69v2.44h-.28v-2.44h-4.75v-.33Zm4.72-6.21l-4.45,6.26h4.47v-6.26h-.03Z"/>
          </g>
          <g class="uuid-41d0d962-f033-4ac1-b5d9-c39714ae22a1">
            <path class="uuid-a0e9ccdd-9189-42ab-bb7a-9e638079cae4" d="m818.68,122.44l4.68-6.59h.34v6.65h1.69v.28h-1.69v2.44h-.28v-2.44h-4.75v-.33Zm4.72-6.21l-4.45,6.26h4.47v-6.26h-.03Z"/>
          </g>
          <g class="uuid-41d0d962-f033-4ac1-b5d9-c39714ae22a1">
            <path class="uuid-bc018b2c-8894-4d03-9d63-d20ccde16afd" d="m818.68,122.44l4.68-6.59h.34v6.65h1.69v.28h-1.69v2.44h-.28v-2.44h-4.75v-.33Zm4.72-6.21l-4.45,6.26h4.47v-6.26h-.03Z"/>
          </g>
          <g class="uuid-41d0d962-f033-4ac1-b5d9-c39714ae22a1">
            <path class="uuid-bc018b2c-8894-4d03-9d63-d20ccde16afd" d="m819.38,22.63h.03c.27-.44.62-.76,1.07-.96.44-.2.94-.3,1.49-.3.49,0,.93.08,1.32.24s.73.38,1.02.67c.28.28.5.63.66,1.03.16.4.23.83.23,1.3,0,.5-.08.94-.23,1.35-.16.4-.38.75-.66,1.03s-.62.5-1.02.65-.83.23-1.32.23-.92-.07-1.33-.21-.76-.35-1.05-.61-.51-.59-.67-.98c-.16-.39-.23-.84-.21-1.34h.28c-.02.46.04.87.18,1.23s.34.66.6.91c.26.25.58.44.96.56.38.13.79.19,1.24.19s.87-.07,1.23-.21c.36-.14.67-.34.93-.61.26-.26.45-.58.59-.95.14-.37.21-.78.21-1.23s-.07-.83-.21-1.19c-.14-.36-.34-.67-.6-.94-.26-.26-.57-.47-.94-.61-.37-.15-.77-.22-1.21-.22-.55,0-1.06.12-1.53.36-.47.24-.83.6-1.09,1.07h-.34l1-4.72h4.8v.27h-4.58l-.85,4.01Z"/>
          </g>
          <g class="uuid-41d0d962-f033-4ac1-b5d9-c39714ae22a1">
            <path class="uuid-a0e9ccdd-9189-42ab-bb7a-9e638079cae4" d="m819.38,22.63h.03c.27-.44.62-.76,1.07-.96.44-.2.94-.3,1.49-.3.49,0,.93.08,1.32.24s.73.38,1.02.67c.28.28.5.63.66,1.03.16.4.23.83.23,1.3,0,.5-.08.94-.23,1.35-.16.4-.38.75-.66,1.03s-.62.5-1.02.65-.83.23-1.32.23-.92-.07-1.33-.21-.76-.35-1.05-.61-.51-.59-.67-.98c-.16-.39-.23-.84-.21-1.34h.28c-.02.46.04.87.18,1.23s.34.66.6.91c.26.25.58.44.96.56.38.13.79.19,1.24.19s.87-.07,1.23-.21c.36-.14.67-.34.93-.61.26-.26.45-.58.59-.95.14-.37.21-.78.21-1.23s-.07-.83-.21-1.19c-.14-.36-.34-.67-.6-.94-.26-.26-.57-.47-.94-.61-.37-.15-.77-.22-1.21-.22-.55,0-1.06.12-1.53.36-.47.24-.83.6-1.09,1.07h-.34l1-4.72h4.8v.27h-4.58l-.85,4.01Z"/>
          </g>
          <g class="uuid-41d0d962-f033-4ac1-b5d9-c39714ae22a1">
            <path class="uuid-bc018b2c-8894-4d03-9d63-d20ccde16afd" d="m819.38,22.63h.03c.27-.44.62-.76,1.07-.96.44-.2.94-.3,1.49-.3.49,0,.93.08,1.32.24s.73.38,1.02.67c.28.28.5.63.66,1.03.16.4.23.83.23,1.3,0,.5-.08.94-.23,1.35-.16.4-.38.75-.66,1.03s-.62.5-1.02.65-.83.23-1.32.23-.92-.07-1.33-.21-.76-.35-1.05-.61-.51-.59-.67-.98c-.16-.39-.23-.84-.21-1.34h.28c-.02.46.04.87.18,1.23s.34.66.6.91c.26.25.58.44.96.56.38.13.79.19,1.24.19s.87-.07,1.23-.21c.36-.14.67-.34.93-.61.26-.26.45-.58.59-.95.14-.37.21-.78.21-1.23s-.07-.83-.21-1.19c-.14-.36-.34-.67-.6-.94-.26-.26-.57-.47-.94-.61-.37-.15-.77-.22-1.21-.22-.55,0-1.06.12-1.53.36-.47.24-.83.6-1.09,1.07h-.34l1-4.72h4.8v.27h-4.58l-.85,4.01Z"/>
          </g>
          <g class="uuid-41d0d962-f033-4ac1-b5d9-c39714ae22a1">
            <path class="uuid-bc018b2c-8894-4d03-9d63-d20ccde16afd" d="m825.4,524.85c-.11.58-.31,1.1-.58,1.56s-.64.83-1.09,1.11c-.45.28-1.01.42-1.69.42s-1.23-.14-1.69-.42c-.45-.28-.82-.65-1.09-1.11s-.47-.98-.58-1.56-.17-1.16-.17-1.75.06-1.17.17-1.75.31-1.1.58-1.55.64-.83,1.09-1.12,1.02-.43,1.69-.43,1.24.14,1.69.43.81.66,1.09,1.12.47.98.58,1.55.17,1.16.17,1.75-.06,1.17-.17,1.75Zm-.25-3.34c-.1-.54-.27-1.03-.52-1.47-.25-.44-.58-.8-1-1.08-.42-.28-.95-.42-1.59-.42s-1.17.14-1.59.42-.75.64-1,1.08c-.25.44-.42.93-.52,1.47-.1.54-.15,1.07-.15,1.6s.05,1.06.15,1.6c.1.54.27,1.03.52,1.47.25.44.58.8,1,1.08.42.28.95.42,1.59.42s1.17-.14,1.59-.42c.42-.28.75-.64,1-1.08.25-.44.42-.93.52-1.47.1-.54.15-1.07.15-1.6s-.05-1.05-.15-1.6Z"/>
          </g>
          <g class="uuid-41d0d962-f033-4ac1-b5d9-c39714ae22a1">
            <path class="uuid-a0e9ccdd-9189-42ab-bb7a-9e638079cae4" d="m825.4,524.85c-.11.58-.31,1.1-.58,1.56s-.64.83-1.09,1.11c-.45.28-1.01.42-1.69.42s-1.23-.14-1.69-.42c-.45-.28-.82-.65-1.09-1.11s-.47-.98-.58-1.56-.17-1.16-.17-1.75.06-1.17.17-1.75.31-1.1.58-1.55.64-.83,1.09-1.12,1.02-.43,1.69-.43,1.24.14,1.69.43.81.66,1.09,1.12.47.98.58,1.55.17,1.16.17,1.75-.06,1.17-.17,1.75Zm-.25-3.34c-.1-.54-.27-1.03-.52-1.47-.25-.44-.58-.8-1-1.08-.42-.28-.95-.42-1.59-.42s-1.17.14-1.59.42-.75.64-1,1.08c-.25.44-.42.93-.52,1.47-.1.54-.15,1.07-.15,1.6s.05,1.06.15,1.6c.1.54.27,1.03.52,1.47.25.44.58.8,1,1.08.42.28.95.42,1.59.42s1.17-.14,1.59-.42c.42-.28.75-.64,1-1.08.25-.44.42-.93.52-1.47.1-.54.15-1.07.15-1.6s-.05-1.05-.15-1.6Z"/>
          </g>
          <g class="uuid-41d0d962-f033-4ac1-b5d9-c39714ae22a1">
            <path class="uuid-bc018b2c-8894-4d03-9d63-d20ccde16afd" d="m825.4,524.85c-.11.58-.31,1.1-.58,1.56s-.64.83-1.09,1.11c-.45.28-1.01.42-1.69.42s-1.23-.14-1.69-.42c-.45-.28-.82-.65-1.09-1.11s-.47-.98-.58-1.56-.17-1.16-.17-1.75.06-1.17.17-1.75.31-1.1.58-1.55.64-.83,1.09-1.12,1.02-.43,1.69-.43,1.24.14,1.69.43.81.66,1.09,1.12.47.98.58,1.55.17,1.16.17,1.75-.06,1.17-.17,1.75Zm-.25-3.34c-.1-.54-.27-1.03-.52-1.47-.25-.44-.58-.8-1-1.08-.42-.28-.95-.42-1.59-.42s-1.17.14-1.59.42-.75.64-1,1.08c-.25.44-.42.93-.52,1.47-.1.54-.15,1.07-.15,1.6s.05,1.06.15,1.6c.1.54.27,1.03.52,1.47.25.44.58.8,1,1.08.42.28.95.42,1.59.42s1.17-.14,1.59-.42c.42-.28.75-.64,1-1.08.25-.44.42-.93.52-1.47.1-.54.15-1.07.15-1.6s-.05-1.05-.15-1.6Z"/>
          </g>
          <path class="uuid-ebefb872-b00c-45ce-bba1-37cb101cb02a" d="m-1.85,519.59h0s1.15.02,1.15.02H.44s1.15.03,1.15.03h1.15s1.15.03,1.15.03h1.15s1.15.03,1.15.03h1.15s1.15.03,1.15.03h1.15s1.15.03,1.15.03h1.15s1.15.03,1.15.03h1.15s1.15.03,1.15.03h1.15s1.15.03,1.15.03h1.15s1.15.03,1.15.03h1.15s1.15.03,1.15.03h1.15s1.15.03,1.15.03h1.15s1.15.03,1.15.03h1.15s1.15.03,1.15.03h1.15s1.15.03,1.15.03h1.15s1.15.03,1.15.03h1.15s1.15.03,1.15.03h1.15s1.15.03,1.15.03h1.15s1.15.03,1.15.03h1.15s1.15.03,1.15.03h1.15s1.15.03,1.15.03h1.15s1.15.03,1.15.03h1.15s1.15.03,1.15.03h1.15s1.15.03,1.15.03h1.15s1.15.03,1.15.03h1.15s1.15.03,1.15.03h1.15s1.15.03,1.15.03h1.15s1.15.03,1.15.03h1.15s1.15.03,1.15.03h1.15s1.15.03,1.15.03h1.15s1.15.03,1.15.03h1.15s1.15.03,1.15.03h1.15s1.15.03,1.15.03h1.15s1.15.03,1.15.03h1.15s1.15.03,1.15.03h1.15s1.15.03,1.15.03h0l1.15.02h0l1.15.02h0l1.15.02h0l1.15.02h0l1.15.02h0l1.15.02h0l1.15.02h0l1.15.02h0l1.15.02h0l1.15.02h0l1.15.02h0l1.15.02h0l1.15.02h0l1.15.02h0l1.15.02h0l1.15.02h0l1.15.02h0l1.15.02h0l1.15.02h0l1.15.02h0l1.15.02h0l1.15.02h0l1.15.02h0l1.15.02h0l1.15.02h0l1.15.02h0l1.15.02h0l1.15.02h0l1.15.02h0l1.15.02h0l1.15.02h0l1.15.02h0l1.15.02h0l1.15.02h0l1.15.02h0l1.15.02h0l1.15.02h0l1.15.02h0l1.15.02h0l1.15.02h0l1.15.02h0l1.15.02h0l1.15.02h0l1.15.02h0l1.15.02h0l1.15.02h0l1.15.02h0l1.15.02h0l1.15.02h0l1.15.02h0l1.15.02h0l1.15.02h0l1.15.02h0l1.15.02h0l1.15.02h0l1.15.02h0l1.15.02h0l1.15.02h0l1.15.02h0l1.15.02h0l1.15.02h0l1.15.02h0l1.15.02h0l1.15.02h0l1.15.02h0l1.15.02h0l1.15.02h0l1.15.02h0l1.15.02h0l1.15.02h0l1.15.02h0l1.15.02h0l1.15.02h0l1.15.02h0l1.15.02h0l1.15.02h0l1.15.02h0l1.15.02h0l1.15.02h0l1.15.02h0l1.15.02h0l1.15.02h0l1.15.02h0l1.15.02h0l1.15.02h0l1.15.02h0l1.15.02h0l1.15.02h0l1.15.02h0l1.15.02h0l1.15.02h0l1.15.02h0l1.15.02h0l1.15.02h0l1.15.02h0l1.15.02h0l1.15.02h0l1.15.02h0l1.15.02h0l1.15.02h0l1.15.02h0l1.15.02h0l1.15.02h0l1.15.02h0l1.15.02h0l1.15.02h0l1.15.02h0l1.15.02h0l1.15.02h0l1.15.02h0l1.15.02h0l1.15.02h0l1.15.02h0l1.15.02h0l1.15.02h0l1.15.02h0l1.15.02h0l1.15.02h0l1.15.02h0l1.15.02h0l1.15.02h0l1.15.02h0l1.15.02h0l1.15.02h0l1.15.02h0l1.15.02h0l1.15.02h0l1.15.02h0l1.15.02h0l1.15.02h0l1.15.02h0l1.15.02h0l1.15.02h0l1.15.02h0l1.15.02h0l1.15.02h0l1.15.02h0l1.15.02h0l1.15.02h0l1.15.02h0l1.15.02h0l1.15.02h0l1.15.02h0l1.15.02h0l1.15.02h0l1.15.02h0l1.15.02h0l1.15.02h0l1.15.02h0l1.15.02h0l1.15.02h0l1.15.02h0l1.15.02h0l1.15.02h0l1.15.02h0l1.15.02h0l1.15.02h0l1.15.02h0l1.15.02h0l1.15.02h0l1.15.02h0l1.15.02h0l1.15.02h0l1.15.02h0l1.15.02h0l1.15.02h0l1.15.02h0l1.15.02h0l1.15.03h0l1.15.03h0l1.15.03h0l1.15.03h0l1.15.03h0l1.15.03h0l1.15.03h0l1.15.03h0l1.15.03h0l1.15.03h0l1.15.03h0l1.15.03h0l1.15.03h0l1.15.03h0l1.15.03h0l1.15.03h0l1.15.03h0l1.15.03h0l1.15.03h0l1.15.03h0l1.15.03h0l1.15.03h0l1.15.03h0l1.15.03h0l1.15.03h0l1.15.03h0l1.15.03h0l1.15.03h0l1.15.03h0l1.15.03h0l1.15.03h0l1.15.03h0l1.15.03h0l1.15.03h0l1.15.03h0l1.15.03h0l1.15.03h0l1.15.03h0l1.15.03h0l1.15.03h0l1.15.03h0l1.15.03h0l1.15.03h0l1.15.03h0l1.15.03h0l1.15.03h0l1.15.03h0l1.15.03h0l1.15.03h0l1.15.03h0l1.15.03h0l1.15.03h0l1.15.03h0l1.15.03h0l1.15.03h0l1.15.03h0l1.15.03h0l1.15.03h0l1.15.03h0l1.15.03h0l1.15.03h0l1.15.03h0l1.15.03h0l1.15.03h0l1.15.03h0l1.15.03h0l1.15.03h0l1.15.03h0l1.15.03h0l1.15.03h0l1.15.03h0l1.15.03h0l1.15.03h0l1.15.03h0l1.15.03h0l1.15.03h0l1.15.03h0l1.15.03h0l1.15.03h0l1.15.03h0l1.15.03h0l1.15.03h0l1.15.03h0l1.15.03h0l1.15.03h0l1.15.03h0l1.15.03h0l1.15.03h0l1.15.03h0l1.15.04h0l1.15.04h0l1.15.04h0l1.15.04h0l1.15.04h0l1.15.04h0l1.15.04h0l1.15.04h0l1.15.04h0l1.15.04h0l1.15.04h0l1.15.04h0l1.15.04h0l1.15.04h0l1.15.04h0l1.15.04h0l1.15.04h0l1.15.04h0l1.15.04h0l1.15.04h0l1.15.04h0l1.15.04h0l1.15.04h0l1.15.04h0l1.15.04h0l1.15.04h0l1.15.04h0l1.15.04h0l1.15.04h0l1.15.04h0l1.15.04h0l1.15.04h0l1.15.04h0l1.15.04h0l1.15.04h0l1.15.04h0l1.15.04h0l1.15.04h0l1.15.04h0l1.15.04h0l1.15.04h0l1.15.04h0l1.15.04h0l1.15.04h0l1.15.04h0l1.15.04h0l1.15.04h0l1.15.04h0l1.15.04h0l1.15.04h0l1.15.04h0l1.15.04h0l1.15.04h0l1.15.04h0l1.15.04h0l1.15.04h0l1.15.04h0l1.15.05h0l1.15.05h0l1.15.05h0l1.15.05h0l1.15.05h0l1.15.05h0l1.15.05h0l1.15.05h0l1.15.05h0l1.15.05h0l1.15.05h0l1.15.05h0l1.15.05h0l1.15.05h0l1.15.05h0l1.15.05h0l1.15.05h0l1.15.05h0l1.15.05h0l1.15.05h0l1.15.05h0l1.15.05h0l1.15.05h0l1.15.05h0l1.15.05h0l1.15.05h0l1.15.05h0l1.15.05h0l1.15.05h0l1.15.05h0l1.15.05h0l1.15.05h0l1.15.05h0l1.15.05h0l1.15.05h0l1.15.05h0l1.15.05h0l1.15.05h0l1.15.05h0l1.15.05h0l1.15.05h0l1.15.06h0l1.15.06h0l1.15.06h0l1.15.06h0l1.15.06h0l1.15.06h0l1.15.06h0l1.15.06h0l1.15.06h0l1.15.06h0l1.15.06h0l1.15.06h0l1.15.06h0l1.15.06h0l1.15.06h0l1.15.06h0l1.15.06h0l1.15.06h0l1.15.06h0l1.15.06h0l1.15.06h0l1.15.06h0l1.15.06h0l1.15.06h0l1.15.06h0l1.15.06h0l1.15.06h0l1.15.06h0l1.15.06h0l1.15.06h0l1.15.06h0l1.15.06h0l1.15.07h0l1.15.07h0l1.15.07h0l1.15.07h0l1.15.07h0l1.15.07h0l1.15.07h0l1.15.07h0l1.15.07h0l1.15.07h0l1.15.07h0l1.15.07h0l1.15.07h0l1.15.07h0l1.15.07h0l1.15.07h0l1.15.07h0l1.15.07h0l1.15.07h0l1.15.07h0l1.15.07h0l1.15.07h0l1.15.07h0l1.15.07h0l1.15.08h0l1.15.08h0l1.15.08h0l1.15.08h0l1.15.08h0l1.15.08h0l1.15.08h0l1.15.08h0l1.15.08h0l1.15.08h0l1.15.08h0l1.15.08h0l1.15.08h0l1.15.08h0l1.15.08h0l1.15.08h0l1.15.08h0l1.15.08h0l1.15.08h0l1.15.08h0l1.15.09h0l1.15.09h0l1.15.09h0l1.15.09h0l1.15.09h0l1.15.09h0l1.15.09h0l1.15.09h0l1.15.09h0l1.15.09h0l1.15.09h0l1.15.09h0l1.15.09h0l1.15.09h0l1.15.09h0l1.15.09h0l1.15.09h0l1.15.1h0l1.15.1h0l1.15.1h0l1.15.1h0l1.15.1h0l1.15.1h0l1.15.1h0l1.15.1h0l1.15.1h0l1.15.1h0l1.15.1h0l1.15.1h0l1.15.1h0l1.15.1h0l1.15.1h0l1.15.11h0l1.15.11h0l1.15.11h0l1.15.11h0l1.15.11h0l1.15.11h0l1.15.11h0l1.15.11h0l1.15.11h0l1.15.11h0l1.15.11h0l1.15.11h0l1.15.12h0l1.15.12h0l1.15.12h0l1.15.12h0l1.15.12h0l1.15.12h0l1.15.12h0l1.15.12h0l1.15.12h0l1.15.12h0l1.15.12h0l1.15.13h0l1.15.13h0l1.15.13h0l1.15.13h0l1.15.13h0l1.15.13h0l1.15.13h0l1.15.13h0l1.15.13h0l1.15.13h0l1.15.14h0l1.15.14h0l1.15.14h0l1.15.14h0l1.15.14h0l1.15.14h0l1.15.14h0l1.15.14h0l1.15.15h0l1.15.15h0l1.15.15h0l1.15.15h0l1.15.15h0l1.15.15h0l1.15.15h0l1.15.15h0l1.15.16h0l1.15.16h0l1.15.16h0l1.15.16h0l1.15.16h0l1.15.16h0l1.15.16h0l1.15.17h0l1.15.17h0l1.15.17h0l1.15.17h0l1.15.17h0l1.15.17h0l1.15.17h0l1.15.18h0l1.15.18h0l1.15.18h0l1.15.18h0l1.15.18h0l1.15.18h0l1.15.19h0l1.15.19h0l1.15.19h0l1.15.19h0l1.15.19h0l1.15.2h0l1.15.2h0l1.15.2h0l1.15.2h0l1.15.2h0l1.15.21h0l1.15.21h0l1.15.21h0l1.15.21h0l1.15.21h0l1.15.22h0l1.15.22h0l1.15.22h0l1.15.22h0l1.15.22h0l1.15.23h0l1.15.23h0l1.15.23h0l1.15.23h0l1.15.24h0l1.15.24h0l1.15.24h0l1.15.24h0l1.15.25h0l1.15.25h0l1.15.25h0l1.15.26h0l1.15.26h0l1.15.26h0l1.15.26h0l1.15.27h0l1.15.27h0l1.15.27h0l1.15.28h0l1.15.28h0l1.15.28h0l1.15.29h0l1.15.29h0l1.15.29h0l1.15.3h0l1.15.3h0l1.15.3h0l1.15.31h0l1.15.31h0l1.15.32h0l1.15.32h0l1.15.32h0l1.15.33h0l1.15.33h0l1.15.34h0l1.15.34h0l1.15.35h0l1.15.35h0l1.15.35h0l1.15.36h0l1.15.36h0l1.15.37h0l1.15.37h0l1.15.38h0l1.15.38h0l1.15.39h0l1.15.39h0l1.15.4h0l1.15.41h0l1.15.41h0l1.15.42h0l1.15.42h0l1.15.43h0l1.15.44h0l1.15.44h0l1.15.45h0l1.15.46h0l1.15.46h0l1.15.47h0l1.15.48h0l1.15.48h0l1.15.49h0l1.15.5h0l1.15.51h0l1.15.51h0l1.15.52h0l1.15.53h0l1.15.54h0l1.15.55h0l1.15.56h0l1.15.57h0l1.15.58h0l1.15.59h0l1.15.6h0l1.15.61h0l1.15.62h0l1.15.63h0l1.15.64h0l1.15.65h0l1.15.66h0l1.15.67h0l1.15.69h0l1.15.7h0l1.15.71h0l1.15.73h0l1.15.74h0l1.15.75h0l1.15.77h0l1.15.78h0l1.15.8h0l1.15.82h0l1.15.83h0l1.15.85h0l1.15.87h0l1.15.88h0l1.15.9h0l1.15.92h0l1.15.94h0l1.15.96h0l1.15.98h0l1.15,1h0l1.15,1.03h0l1.15,1.05h0l1.15,1.07h0l1.15,1.1h0l1.15,1.13h0l1.15,1.15h0l1.15,1.18h0l1.15,1.21h0l1.15,1.24h0l1.15,1.27h0l1.15,1.3h0l1.15,1.33h0l1.15,1.37h0l1.15,1.4h0l1.15,1.44h0l1.15,1.48h0l1.15,1.52h0l1.15,1.56h0l1.15,1.61h0l1.15,1.65h0l1.15,1.7h0l1.15,1.75h0l1.15,1.8h0l1.15,1.86h0l1.15,1.91h0l1.15,1.97h0l1.15,2.04h0l1.15,2.1h0l1.15,2.17h0l1.15,2.24h0l1.15,2.32h0l1.15,2.4h0l1.15,2.48h0l1.15,2.57h0l1.15,2.66h0l1.15,2.76h0l1.15,2.86h0l1.15,2.97h0l1.15,3.09h0l1.15,3.21h0l1.15,3.34h0l1.15,3.48h0l1.15,3.63h0l1.15,3.79h0l1.15,3.95h0l1.15,4.13h0l1.15,4.32h0l1.15,4.53h0l1.15,4.75h0l1.15,4.98h0l1.15,5.24h0l1.15,5.51h0l1.15,5.81h0l1.15,6.13h0l1.15,6.48h0l1.15,6.86h0l1.15,7.27h0l1.15,7.72h0l1.15,8.21h0l1.15,8.76h0l1.15,9.35h0l1.15,10.02h0l1.15,10.75h0l1.15,11.57h0l1.15,12.49h0l1.15,13.52h0l1.15,14.68h0l1.15,16h0l1.15,17.51h0l1.15,19.24h0l1.15,21.24h0l1.15,23.57h0l1.15,26.31h0l1.15,29.55h0l.9,26.27M933.53-25.05h16.26l.32,9.78h0l1.15,31.3h0l1.15,27.78h0l1.15,24.82h0l1.15,22.31h0l1.15,20.16h0l1.15,18.3h0l1.15,16.7h0l1.15,15.29h0l1.15,14.06h0l1.15,12.96h0l1.15,12h0l1.15,11.13h0l1.15,10.36h0l1.15,9.66h0l1.15,9.03h0l1.15,8.46h0l1.15,7.95h0l1.15,7.48h0l1.15,7.05h0l1.15,6.65h0l1.15,6.29h0l1.15,5.96h0l1.15,5.65h0l1.15,5.37h0l1.15,5.1h0l1.15,4.86h0l1.15,4.63h0l1.15,4.42h0l1.15,4.22h0l1.15,4.04h0l1.15,3.86h0l1.15,3.7h0l1.15,3.55h0l1.15,3.41h0l1.15,3.27h0l1.15,3.15h0l1.15,3.03h0l1.15,2.92h0l1.15,2.81h0l1.15,2.71h0l1.15,2.61h0l1.15,2.52h0l1.15,2.44h0l1.15,2.36h0l1.15,2.28h0l1.15,2.2h0l1.15,2.13h0l1.15,2.07h0l1.15,2h0l1.15,1.94h0l1.15,1.88h0l1.15,1.83h0l1.15,1.78h0l1.15,1.72h0l1.15,1.68h0l1.15,1.63h0l1.15,1.58h0l1.15,1.54h0l1.15,1.5h0l1.15,1.46h0l1.15,1.42h0l1.15,1.39h0l1.15,1.35h0l1.15,1.32h0l1.15,1.28h0l1.15,1.25h0l1.15,1.22h0l1.15,1.19h0l1.15,1.16h0l1.15,1.14h0l1.15,1.11h0l1.15,1.09h0l1.15,1.06h0l1.15,1.04h0l1.15,1.02h0l1.15.99h0l1.15.97h0l1.15.95h0l1.15.93h0l1.15.91h0l1.15.89h0l1.15.87h0l1.15.86h0l1.15.84h0l1.15.82h0l1.15.81h0l1.15.79h0l1.15.78h0l1.15.76h0l1.15.75h0l1.15.73h0l1.15.72h0l1.15.71h0l1.15.69h0l1.15.68h0l1.15.67h0l1.15.66h0l1.15.64h0l1.15.63h0l1.15.62h0l1.15.61h0l1.15.6h0l1.15.59h0l1.15.58h0l1.15.57h0l1.15.56h0l1.15.55h0l1.15.54h0l1.15.54h0l1.15.53h0l1.15.52h0l1.15.51h0l1.15.5h0l1.15.49h0l1.15.49h0l1.15.48h0l1.15.47h0l1.15.47h0l1.15.46h0l1.15.45h0l1.15.45h0l1.15.44h0l1.15.43h0l1.15.43h0l1.15.42h0l1.15.41h0l1.15.41h0l1.15.4h0l1.15.4h0l1.15.39h0l1.15.39h0l1.15.38h0l1.15.38h0l1.15.37h0l1.15.37h0l1.15.36h0l1.15.36h0l1.15.35h0l1.15.35h0l1.15.34h0l1.15.34h0l1.15.33h0l1.15.33h0l1.15.33h0l1.15.32h0l1.15.32h0l1.15.31h0l1.15.31h0l1.15.31h0l1.15.3h0l1.15.3h0l1.15.3h0l1.15.29h0l1.15.29h0l1.15.29h0l1.15.28h0l1.15.28h0l1.15.28h0l1.15.27h0l1.15.27h0l1.15.27h0l1.15.26h0l1.15.26h0l1.15.26h0l1.15.25h0l1.15.25h0l1.15.25h0l1.15.25h0l1.15.24h0l1.15.24h0l1.15.24h0l1.15.24h0l1.15.23h0l1.15.23h0l1.15.23h0l1.15.23h0l1.15.22h0l1.15.22h0l1.15.22h0l1.15.22h0l1.15.21h0l1.15.21h0l1.15.21h0l1.15.21h0l1.15.21h0l1.15.2h0l1.15.2h0l1.15.2h0l1.15.2h0l1.15.2h0l1.15.19h0l1.15.19h0l1.15.19h0l1.15.19h0l1.15.19h0l1.15.19h0l1.15.18h0l1.15.18h0l1.15.18h0l1.15.18h0l1.15.18h0l1.15.18h0l1.15.17h0l1.15.17h0l1.15.17h0l1.15.17h0l1.15.17h0l1.15.17h0l1.15.16h0l1.15.16h0l1.15.16h0l1.15.16h0l1.15.16h0l1.15.16h0l1.15.16h0l1.15.15h0l1.15.15h0l1.15.15h0l1.15.15h0l1.15.15h0l1.15.15h0l1.15.15h0l1.15.15h0l1.15.14h0l1.15.14h0l1.15.14h0l1.15.14h0l1.15.14h0l1.15.14h0l1.15.14h0l1.15.14h0l1.15.14h0l1.15.13h0l1.15.13h0l1.15.13h0l1.15.13h0l1.15.13h0l1.15.13h0l1.15.13h0l1.15.13h0l1.15.13h0l1.15.12h0l1.15.12h0l1.15.12h0l1.15.12h0l1.15.12h0l1.15.12h0l1.15.12h0l1.15.12h0l1.15.12h0l1.15.12h0l1.15.12h0l1.15.11h0l1.15.11h0l1.15.11h0l1.15.11h0l1.15.11h0l1.15.11h0l1.15.11h0l1.15.11h0l1.15.11h0l1.15.11h0l1.15.11h0l1.15.11h0l1.15.11h0l1.15.1h0l1.15.1h0l1.15.1h0l1.15.1h0l1.15.1h0l1.15.1h0l1.15.1h0l1.15.1h0l1.15.1h0l1.15.1h0l1.15.1h0l1.15.1h0l1.15.1h0l1.15.1h0l1.15.09h0l1.15.09h0l1.15.09h0l1.15.09h0l1.15.09h0l1.15.09h0l1.15.09h0l1.15.09h0l1.15.09h0l1.15.09h0l1.15.09h0l1.15.09h0l1.15.09h0l1.15.09h0l1.15.09h0l1.15.09h0l1.15.09h0l1.15.08h0l1.15.08h0l1.15.08h0l1.15.08h0l1.15.08h0l1.15.08h0l1.15.08h0l1.15.08h0l1.15.08h0l1.15.08h0l1.15.08h0l1.15.08h0l1.15.08h0l1.15.08h0l1.15.08h0l1.15.08h0l1.15.08h0l1.15.08h0l1.15.08h0l1.15.08h0l1.15.07h0l1.15.07h0l1.15.07h0l1.15.07h0l1.15.07h0l1.15.07h0l1.15.07h0l1.15.07h0l1.15.07h0l1.15.07h0l1.15.07h0l1.15.07h0l1.15.07h0l1.15.07h0l1.15.07h0l1.15.07h0l1.15.07h0l1.15.07h0l1.15.07h0l1.15.07h0l1.15.07h0l1.15.07h0l1.15.07h0l1.15.07h0l1.15.07h0l1.15.06h0l1.15.06h0l1.15.06h0l1.15.06h0l1.15.06h0l1.15.06h0l1.15.06h0l1.15.06h0l1.15.06h0l1.15.06h0l1.15.06h0l1.15.06h0l1.15.06h0l1.15.06h0l1.15.06h0l1.15.06h0l1.15.06h0l1.15.06h0l1.15.06h0l1.15.06h0l1.15.06h0l1.15.06h0l1.15.06h0l1.15.06h0l1.15.06h0l1.15.06h0l1.15.06h0l1.15.06h0l1.15.06h0l1.15.06h0l1.15.06h0l1.15.05h0l1.15.05h0l1.15.05h0l1.15.05h0l1.15.05h0l1.15.05h0l1.15.05h0l1.15.05h0l1.15.05h0l1.15.05h0l1.15.05h0l1.15.05h0l1.15.05h0l1.15.05h0l1.15.05h0l1.15.05h0l1.15.05h0l1.15.05h0l1.15.05h0l1.15.05h0l1.15.05h0l1.15.05h0l1.15.05h0l1.15.05h0l1.15.05h0l1.15.05h0l1.15.05h0l1.15.05h0l1.15.05h0l1.15.05h0l1.15.05h0l1.15.05h0l1.15.05h0l1.15.05h0l1.15.05h0l1.15.05h0l1.15.05h0l1.15.05h0l1.15.05h0l1.15.05h0l1.15.05h0l1.15.04h0l1.15.04h0l1.15.04h0l1.15.04h0l1.15.04h0l1.15.04h0l1.15.04h0l1.15.04h0l1.15.04h0l1.15.04h0l1.15.04h0l1.15.04h0l1.15.04h0l1.15.04h0l1.15.04h0l1.15.04h0l1.15.04h0l1.15.04h0l1.15.04h0l1.15.04h0l1.15.04h0l1.15.04h0l1.15.04h0l1.15.04h0l1.15.04h0l1.15.04h0l1.15.04h0l1.15.04h0l1.15.04h0l1.15.04h0l1.15.04h0l1.15.04h0l1.15.04h0l1.15.04h0l1.15.04h0l1.15.04h0l1.15.04h0l1.15.04h0l1.15.04h0l1.15.04h0l1.15.04h0l1.15.04h0l1.15.04h0l1.15.04h0l1.15.04h0l1.15.04h0l1.15.04h0l1.15.04h0l1.15.04h0l1.15.04h0l1.15.04h0l1.15.04h0l1.15.04h0l1.15.04h0l1.15.04h0l1.15.04h0l1.15.04h0l1.15.04h0l1.15.03h0l1.15.03h0l1.15.03h0l1.15.03h0l1.15.03h0l1.15.03h0l1.15.03h0l1.15.03h0l1.15.03h0l1.15.03h0l1.15.03h0l1.15.03h0l1.15.03h0l1.15.03h0l1.15.03h0l1.15.03h0l1.15.03h0l1.15.03h0l1.15.03h0l1.15.03h0l1.15.03h0l1.15.03h0l1.15.03h0l1.15.03h0l1.15.03h0l1.15.03h0l1.15.03h0l1.15.03h0l1.15.03h0l1.15.03h0l1.15.03h0l1.15.03h0l1.15.03h0l1.15.03h0l1.15.03h0l1.15.03h0l1.15.03h0l1.15.03h0l1.15.03h0l1.15.03h0l1.15.03h0l1.15.03h0l1.15.03h0l1.15.03h0l1.15.03h0l1.15.03h0l1.15.03h0l1.15.03h0l1.15.03h0l1.15.03h0l1.15.03h0l1.15.03h0l1.15.03h0l1.15.03h0l1.15.03h0l1.15.03h0l1.15.03h0l1.15.03h0l1.15.03h0l1.15.03h0l1.15.03h0l1.15.03h0l1.15.03h0l1.15.03h0l1.15.03h0l1.15.03h0l1.15.03h0l1.15.03h0l1.15.03h0l1.15.03h0l1.15.03h0l1.15.03h0l1.15.03h0l1.15.03h0l1.15.03h0l1.15.03h0l1.15.03h0l1.15.03h0l1.15.03h0l1.15.03h0l1.15.03h0l1.15.03h0l1.15.03h0l1.15.03h0l1.15.03h0l1.15.03h0l1.15.03h0l1.15.03h0l1.15.02h0l1.15.02h0l1.15.02h0l1.15.02h0l1.15.02h0l1.15.02h0l1.15.02h0l1.15.02h0l1.15.02h0l1.15.02h0l1.15.02h0l1.15.02h0l1.15.02h0l1.15.02h0l1.15.02h0l1.15.02h0l1.15.02h0l1.15.02h0l1.15.02h0l1.15.02h0l1.15.02h0l1.15.02h0l1.15.02h0l1.15.02h0l1.15.02h0l1.15.02h0l1.15.02h0l1.15.02h0l1.15.02h0l1.15.02h0l1.15.02h0l1.15.02h0l1.15.02h0l1.15.02h0l1.15.02h0l1.15.02h0l1.15.02h0l1.15.02h0l1.15.02h0l1.15.02h0l1.15.02h0l1.15.02h0l1.15.02h0l1.15.02h0l1.15.02h0l1.15.02h0l1.15.02h0l1.15.02h0l1.15.02h0l1.15.02h0l1.15.02h0l1.15.02h0l1.15.02h0l1.15.02h0l1.15.02h0l1.15.02h0l1.15.02h0l1.15.02h0l1.15.02h0l1.15.02h0l1.15.02h0l1.15.02h0l1.15.02h0l1.15.02h0l1.15.02h0l1.15.02h0l1.15.02h0l1.15.02h0l1.15.02h0l1.15.02h0l1.15.02h0l1.15.02h0l1.15.02h0l1.15.02h0l1.15.02h0l1.15.02h0l1.15.02h0l1.15.02h0l1.15.02h0l1.15.02"/>
        </g>
      </g>
    </g>
  </g>
  <g id="uuid-07b9a44b-d552-4d46-b266-f7c3cf97ed32" data-name="Marco">
    <path class="uuid-eb1ee76d-04e6-40e0-9b07-6fea5d720936" d="m0-2V1022h1680V-2H0Zm1663,987c0,11.05-8.95,20-20,20H37c-11.05,0-20-8.95-20-20V35c0-11.05,8.95-20,20-20h1606c11.05,0,20,8.95,20,20v950Z"/>
  </g>
</svg>