<?xml version="1.0" encoding="UTF-8"?>
<svg xmlns="http://www.w3.org/2000/svg" width="1680" height="1020" xmlns:xlink="http://www.w3.org/1999/xlink" viewBox="0 0 1680 1020">
  <defs>
    <style>
      .uuid-f8ba1e3d-8263-41f5-9372-128e85452812 {
        stroke: rgba(192, 192, 192, .24);
      }

      .uuid-f8ba1e3d-8263-41f5-9372-128e85452812, .uuid-b0df557b-ec40-4fa3-966c-34561b07fd74, .uuid-a22e00a2-ecee-404f-951c-f8bb34528186, .uuid-ecdead18-3aa8-43ed-8092-ef1ced222ebb, .uuid-000f822f-05a0-457a-b9d3-9673fbbf0b7a, .uuid-0d587fad-6196-44ad-8f18-fb73606d4fc3, .uuid-56f026bf-dc7e-40e9-9684-97838fe8af73, .uuid-ba2ab379-cade-4906-b97b-85f042287037, .uuid-02c88a3a-8f6a-46be-a9c1-eb35d9d69bcd {
        fill: none;
      }

      .uuid-f8ba1e3d-8263-41f5-9372-128e85452812, .uuid-ecdead18-3aa8-43ed-8092-ef1ced222ebb {
        stroke-dasharray: 0 0 1.15 3.44;
        stroke-width: 1.15px;
      }

      .uuid-f8ba1e3d-8263-41f5-9372-128e85452812, .uuid-ecdead18-3aa8-43ed-8092-ef1ced222ebb, .uuid-02c88a3a-8f6a-46be-a9c1-eb35d9d69bcd {
        stroke-linejoin: round;
      }

      .uuid-24f4f8b8-34f7-4c6a-91bf-787c4db14271 {
        fill: #fff;
      }

      .uuid-b0df557b-ec40-4fa3-966c-34561b07fd74 {
        stroke: #606060;
        stroke-miterlimit: 10;
        stroke-width: 2.29px;
      }

      .uuid-a22e00a2-ecee-404f-951c-f8bb34528186 {
        clip-path: url(#uuid-808d87ea-a279-4f05-8918-519fc2163664);
      }

      .uuid-ecdead18-3aa8-43ed-8092-ef1ced222ebb {
        stroke: silver;
      }

      .uuid-000f822f-05a0-457a-b9d3-9673fbbf0b7a {
        stroke: #fff;
        stroke-linejoin: bevel;
        stroke-width: 3.44px;
      }

      .uuid-0d587fad-6196-44ad-8f18-fb73606d4fc3 {
        isolation: isolate;
      }

      .uuid-56f026bf-dc7e-40e9-9684-97838fe8af73 {
        clip-path: url(#uuid-5cf04736-956d-406a-ad66-bf5237404e63);
      }

      .uuid-383363f4-6e2c-4fe3-9033-5b2ddc437535 {
        fill: #00699b;
      }

      .uuid-682e09a0-c1c8-43b8-9533-828e5e3f0d07, .uuid-334301f4-dd91-4f1f-8e8a-82bd78ef9043 {
        fill: #606060;
      }

      .uuid-334301f4-dd91-4f1f-8e8a-82bd78ef9043 {
        fill-rule: evenodd;
      }

      .uuid-02c88a3a-8f6a-46be-a9c1-eb35d9d69bcd {
        stroke: rgba(0, 0, 255, .7);
        stroke-linecap: round;
        stroke-width: 4.59px;
      }
    </style>
    <clipPath id="uuid-808d87ea-a279-4f05-8918-519fc2163664">
      <rect class="uuid-ba2ab379-cade-4906-b97b-85f042287037" y="2.61" width="1680" height="1019.39"/>
    </clipPath>
    <clipPath id="uuid-5cf04736-956d-406a-ad66-bf5237404e63">
      <rect class="uuid-ba2ab379-cade-4906-b97b-85f042287037" x="-3" y="-10.14" width="1686" height="1040.27"/>
    </clipPath>
  </defs>
  <g id="uuid-27902de9-bb17-440a-8688-ff9dff0934f9" data-name="Grafica">
    <g class="uuid-a22e00a2-ecee-404f-951c-f8bb34528186">
      <g class="uuid-56f026bf-dc7e-40e9-9684-97838fe8af73">
        <g>
          <rect class="uuid-24f4f8b8-34f7-4c6a-91bf-787c4db14271" x="-3" y="-10.14" width="1686" height="1040.27"/>
          <path class="uuid-ecdead18-3aa8-43ed-8092-ef1ced222ebb" d="m46.89-9.56v1040.27M46.89-9.56v1040.27M294.63-9.56v1040.27M418.5-9.56v1040.27M542.37-9.56v1040.27M667.39-9.56v1040.27M791.26-9.56v1040.27M915.12-9.56v1040.27M1038.99-9.56v1040.27M1162.86-9.56v1040.27M1287.88-9.56v1040.27M1411.75-9.56v1040.27M1535.62-9.56v1040.27M1659.49-9.56v1040.27"/>
          <path class="uuid-f8ba1e3d-8263-41f5-9372-128e85452812" d="m21.66-9.56v1040.27M70.98-9.56v1040.27M96.21-9.56v1040.27M120.3-9.56v1040.27M145.53-9.56v1040.27M194.85-9.56v1040.27M220.08-9.56v1040.27M245.31-9.56v1040.27M269.4-9.56v1040.27M319.86-9.56v1040.27M343.95-9.56v1040.27M369.18-9.56v1040.27M394.41-9.56v1040.27M443.73-9.56v1040.27M467.82-9.56v1040.27M493.05-9.56v1040.27M518.28-9.56v1040.27M567.6-9.56v1040.27M592.83-9.56v1040.27M616.92-9.56v1040.27M642.15-9.56v1040.27M691.47-9.56v1040.27M716.7-9.56v1040.27M741.94-9.56v1040.27M766.02-9.56v1040.27M815.34-9.56v1040.27M840.57-9.56v1040.27M865.81-9.56v1040.27M889.89-9.56v1040.27M940.36-9.56v1040.27M964.44-9.56v1040.27M989.68-9.56v1040.27M1014.91-9.56v1040.27M1064.23-9.56v1040.27M1088.31-9.56v1040.27M1113.54-9.56v1040.27M1138.78-9.56v1040.27M1188.1-9.56v1040.27M1213.33-9.56v1040.27M1237.41-9.56v1040.27M1262.65-9.56v1040.27M1311.97-9.56v1040.27M1337.2-9.56v1040.27M1362.43-9.56v1040.27M1386.52-9.56v1040.27M1435.83-9.56v1040.27M1461.07-9.56v1040.27M1486.3-9.56v1040.27M1510.39-9.56v1040.27M1560.85-9.56v1040.27M1584.94-9.56v1040.27M1610.17-9.56v1040.27M1635.4-9.56v1040.27"/>
          <path class="uuid-ecdead18-3aa8-43ed-8092-ef1ced222ebb" d="m-2.43,43.2h1686M-2.43,43.2h1686M-2.43,168.21h1686M-2.43,292.08h1686M-2.43,415.95h1686M-2.43,539.82h1686M-2.43,788.71h1686M-2.43,912.58h1686"/>
          <path class="uuid-f8ba1e3d-8263-41f5-9372-128e85452812" d="m-2.43-6.12h1686M-2.43-6.12h1686M-2.43,19.11h1686M-2.43,68.43h1686M-2.43,93.66h1686M-2.43,117.75h1686M-2.43,142.98h1686M-2.43,192.3h1686M-2.43,217.53h1686M-2.43,242.76h1686M-2.43,266.85h1686M-2.43,317.31h1686M-2.43,341.4h1686M-2.43,366.63h1686M-2.43,390.72h1686M-2.43,441.18h1686M-2.43,465.27h1686M-2.43,490.5h1686M-2.43,515.73h1686M-2.43,565.05h1686M-2.43,590.29h1686M-2.43,614.37h1686M-2.43,639.6h1686M-2.43,688.92h1686M-2.43,714.16h1686M-2.43,738.24h1686M-2.43,763.47h1686M-2.43,812.79h1686M-2.43,838.02h1686M-2.43,863.26h1686M-2.43,887.34h1686M-2.43,937.81h1686M-2.43,961.89h1686M-2.43,987.13h1686M-2.43,1011.21h1686"/>
          <path class="uuid-b0df557b-ec40-4fa3-966c-34561b07fd74" d="m170.19-6.7v1036.83"/>
          <path class="uuid-334301f4-dd91-4f1f-8e8a-82bd78ef9043" d="m170.47-7.84l-5.73,22.94h11.47"/>
          <path class="uuid-b0df557b-ec40-4fa3-966c-34561b07fd74" d="m-3,664.26h1682.56"/>
          <path class="uuid-334301f4-dd91-4f1f-8e8a-82bd78ef9043" d="m1680.71,664.26l-22.94-5.73v11.47"/>
          <g class="uuid-0d587fad-6196-44ad-8f18-fb73606d4fc3">
            <path class="uuid-682e09a0-c1c8-43b8-9533-828e5e3f0d07" d="m45.17,677.64v.28h-6.88v-.28h6.88Z"/>
            <path class="uuid-682e09a0-c1c8-43b8-9533-828e5e3f0d07" d="m49.25,672.47c-.28.39-.65.74-1.11,1.03-.45.29-.92.5-1.38.63v-.28c.28-.09.54-.19.76-.3s.43-.23.62-.37c.19-.14.38-.29.56-.47.18-.17.36-.37.56-.59h.3v9.36h-.28v-9h-.03Z"/>
          </g>
          <g class="uuid-0d587fad-6196-44ad-8f18-fb73606d4fc3">
            <path class="uuid-000f822f-05a0-457a-b9d3-9673fbbf0b7a" d="m45.17,677.64v.28h-6.88v-.28h6.88Z"/>
            <path class="uuid-000f822f-05a0-457a-b9d3-9673fbbf0b7a" d="m49.25,672.47c-.28.39-.65.74-1.11,1.03-.45.29-.92.5-1.38.63v-.28c.28-.09.54-.19.76-.3s.43-.23.62-.37c.19-.14.38-.29.56-.47.18-.17.36-.37.56-.59h.3v9.36h-.28v-9h-.03Z"/>
          </g>
          <g class="uuid-0d587fad-6196-44ad-8f18-fb73606d4fc3">
            <path class="uuid-682e09a0-c1c8-43b8-9533-828e5e3f0d07" d="m45.17,677.64v.28h-6.88v-.28h6.88Z"/>
            <path class="uuid-682e09a0-c1c8-43b8-9533-828e5e3f0d07" d="m49.25,672.47c-.28.39-.65.74-1.11,1.03-.45.29-.92.5-1.38.63v-.28c.28-.09.54-.19.76-.3s.43-.23.62-.37c.19-.14.38-.29.56-.47.18-.17.36-.37.56-.59h.3v9.36h-.28v-9h-.03Z"/>
          </g>
          <g class="uuid-0d587fad-6196-44ad-8f18-fb73606d4fc3">
            <path class="uuid-682e09a0-c1c8-43b8-9533-828e5e3f0d07" d="m294.69,672.47c-.28.39-.65.74-1.11,1.03-.45.29-.92.5-1.38.63v-.28c.28-.09.54-.19.76-.3s.43-.23.62-.37c.19-.14.38-.29.56-.47.18-.17.36-.37.56-.59h.3v9.36h-.28v-9h-.03Z"/>
          </g>
          <g class="uuid-0d587fad-6196-44ad-8f18-fb73606d4fc3">
            <path class="uuid-000f822f-05a0-457a-b9d3-9673fbbf0b7a" d="m294.69,672.47c-.28.39-.65.74-1.11,1.03-.45.29-.92.5-1.38.63v-.28c.28-.09.54-.19.76-.3s.43-.23.62-.37c.19-.14.38-.29.56-.47.18-.17.36-.37.56-.59h.3v9.36h-.28v-9h-.03Z"/>
          </g>
          <g class="uuid-0d587fad-6196-44ad-8f18-fb73606d4fc3">
            <path class="uuid-682e09a0-c1c8-43b8-9533-828e5e3f0d07" d="m294.69,672.47c-.28.39-.65.74-1.11,1.03-.45.29-.92.5-1.38.63v-.28c.28-.09.54-.19.76-.3s.43-.23.62-.37c.19-.14.38-.29.56-.47.18-.17.36-.37.56-.59h.3v9.36h-.28v-9h-.03Z"/>
          </g>
          <g class="uuid-0d587fad-6196-44ad-8f18-fb73606d4fc3">
            <path class="uuid-682e09a0-c1c8-43b8-9533-828e5e3f0d07" d="m422.69,681.47h-6.3c0-.39.07-.75.25-1.07.17-.32.4-.62.69-.9.28-.28.6-.55.96-.8.35-.25.7-.5,1.05-.75.36-.25.71-.5,1.05-.76.34-.26.64-.53.91-.81.27-.28.48-.58.64-.89.16-.32.24-.66.24-1.03s-.07-.69-.2-.97c-.13-.28-.31-.51-.54-.7-.23-.19-.5-.33-.82-.43-.32-.1-.66-.14-1.04-.14-.49,0-.9.07-1.25.22-.35.15-.63.35-.85.61s-.38.57-.48.94-.15.76-.15,1.19h-.27c0-1.03.26-1.82.76-2.39s1.25-.85,2.25-.85c.4,0,.78.05,1.13.16s.65.26.91.48.46.47.61.78.23.68.23,1.1c0,.51-.14.98-.41,1.4s-.62.82-1.04,1.18-.87.71-1.36,1.04c-.49.33-.94.65-1.37.98-.43.33-.79.66-1.09,1-.3.34-.47.72-.51,1.12h6.03v.28Z"/>
          </g>
          <g class="uuid-0d587fad-6196-44ad-8f18-fb73606d4fc3">
            <path class="uuid-000f822f-05a0-457a-b9d3-9673fbbf0b7a" d="m422.69,681.47h-6.3c0-.39.07-.75.25-1.07.17-.32.4-.62.69-.9.28-.28.6-.55.96-.8.35-.25.7-.5,1.05-.75.36-.25.71-.5,1.05-.76.34-.26.64-.53.91-.81.27-.28.48-.58.64-.89.16-.32.24-.66.24-1.03s-.07-.69-.2-.97c-.13-.28-.31-.51-.54-.7-.23-.19-.5-.33-.82-.43-.32-.1-.66-.14-1.04-.14-.49,0-.9.07-1.25.22-.35.15-.63.35-.85.61s-.38.57-.48.94-.15.76-.15,1.19h-.27c0-1.03.26-1.82.76-2.39s1.25-.85,2.25-.85c.4,0,.78.05,1.13.16s.65.26.91.48.46.47.61.78.23.68.23,1.1c0,.51-.14.98-.41,1.4s-.62.82-1.04,1.18-.87.71-1.36,1.04c-.49.33-.94.65-1.37.98-.43.33-.79.66-1.09,1-.3.34-.47.72-.51,1.12h6.03v.28Z"/>
          </g>
          <g class="uuid-0d587fad-6196-44ad-8f18-fb73606d4fc3">
            <path class="uuid-682e09a0-c1c8-43b8-9533-828e5e3f0d07" d="m422.69,681.47h-6.3c0-.39.07-.75.25-1.07.17-.32.4-.62.69-.9.28-.28.6-.55.96-.8.35-.25.7-.5,1.05-.75.36-.25.71-.5,1.05-.76.34-.26.64-.53.91-.81.27-.28.48-.58.64-.89.16-.32.24-.66.24-1.03s-.07-.69-.2-.97c-.13-.28-.31-.51-.54-.7-.23-.19-.5-.33-.82-.43-.32-.1-.66-.14-1.04-.14-.49,0-.9.07-1.25.22-.35.15-.63.35-.85.61s-.38.57-.48.94-.15.76-.15,1.19h-.27c0-1.03.26-1.82.76-2.39s1.25-.85,2.25-.85c.4,0,.78.05,1.13.16s.65.26.91.48.46.47.61.78.23.68.23,1.1c0,.51-.14.98-.41,1.4s-.62.82-1.04,1.18-.87.71-1.36,1.04c-.49.33-.94.65-1.37.98-.43.33-.79.66-1.09,1-.3.34-.47.72-.51,1.12h6.03v.28Z"/>
          </g>
          <g class="uuid-0d587fad-6196-44ad-8f18-fb73606d4fc3">
            <path class="uuid-682e09a0-c1c8-43b8-9533-828e5e3f0d07" d="m540.52,673.67c.15-.38.36-.7.64-.96.28-.26.62-.45,1.02-.58.4-.13.84-.19,1.33-.19.38,0,.74.04,1.09.12.35.08.66.22.94.4s.5.42.66.72c.17.29.25.65.25,1.06,0,.66-.19,1.17-.57,1.54-.38.37-.86.58-1.44.63v.03c.28.03.54.09.81.2s.5.26.7.45c.21.2.37.44.5.74.12.29.19.64.19,1.05,0,.44-.08.83-.25,1.17-.17.34-.4.63-.69.86-.29.23-.62.41-1,.53s-.79.18-1.22.18c-.53,0-1.01-.07-1.45-.22-.43-.15-.8-.36-1.1-.64-.3-.28-.53-.63-.68-1.04s-.21-.88-.17-1.42h.28c-.04.5.01.93.15,1.31.14.38.34.7.62.96.27.26.61.45,1.02.58.4.13.85.2,1.33.2.38,0,.74-.05,1.09-.16.35-.11.66-.26.92-.47s.48-.47.64-.78c.16-.31.24-.66.24-1.07s-.07-.75-.2-1.03c-.13-.28-.32-.52-.56-.7-.24-.18-.53-.32-.85-.41s-.68-.15-1.07-.17h-.67v-.28h.67c.3,0,.6-.03.9-.1.3-.07.57-.18.81-.34.24-.16.43-.37.58-.63.15-.26.22-.58.22-.97,0-.38-.09-.69-.25-.95-.16-.26-.36-.46-.61-.63-.25-.16-.53-.28-.84-.34-.31-.07-.63-.1-.96-.1-.45,0-.86.06-1.22.17-.36.12-.67.29-.93.52-.26.23-.45.53-.58.87s-.19.76-.19,1.22h-.28c0-.51.06-.96.21-1.34Z"/>
          </g>
          <g class="uuid-0d587fad-6196-44ad-8f18-fb73606d4fc3">
            <path class="uuid-000f822f-05a0-457a-b9d3-9673fbbf0b7a" d="m540.52,673.67c.15-.38.36-.7.64-.96.28-.26.62-.45,1.02-.58.4-.13.84-.19,1.33-.19.38,0,.74.04,1.09.12.35.08.66.22.94.4s.5.42.66.72c.17.29.25.65.25,1.06,0,.66-.19,1.17-.57,1.54-.38.37-.86.58-1.44.63v.03c.28.03.54.09.81.2s.5.26.7.45c.21.2.37.44.5.74.12.29.19.64.19,1.05,0,.44-.08.83-.25,1.17-.17.34-.4.63-.69.86-.29.23-.62.41-1,.53s-.79.18-1.22.18c-.53,0-1.01-.07-1.45-.22-.43-.15-.8-.36-1.1-.64-.3-.28-.53-.63-.68-1.04s-.21-.88-.17-1.42h.28c-.04.5.01.93.15,1.31.14.38.34.7.62.96.27.26.61.45,1.02.58.4.13.85.2,1.33.2.38,0,.74-.05,1.09-.16.35-.11.66-.26.92-.47s.48-.47.64-.78c.16-.31.24-.66.24-1.07s-.07-.75-.2-1.03c-.13-.28-.32-.52-.56-.7-.24-.18-.53-.32-.85-.41s-.68-.15-1.07-.17h-.67v-.28h.67c.3,0,.6-.03.9-.1.3-.07.57-.18.81-.34.24-.16.43-.37.58-.63.15-.26.22-.58.22-.97,0-.38-.09-.69-.25-.95-.16-.26-.36-.46-.61-.63-.25-.16-.53-.28-.84-.34-.31-.07-.63-.1-.96-.1-.45,0-.86.06-1.22.17-.36.12-.67.29-.93.52-.26.23-.45.53-.58.87s-.19.76-.19,1.22h-.28c0-.51.06-.96.21-1.34Z"/>
          </g>
          <g class="uuid-0d587fad-6196-44ad-8f18-fb73606d4fc3">
            <path class="uuid-682e09a0-c1c8-43b8-9533-828e5e3f0d07" d="m540.52,673.67c.15-.38.36-.7.64-.96.28-.26.62-.45,1.02-.58.4-.13.84-.19,1.33-.19.38,0,.74.04,1.09.12.35.08.66.22.94.4s.5.42.66.72c.17.29.25.65.25,1.06,0,.66-.19,1.17-.57,1.54-.38.37-.86.58-1.44.63v.03c.28.03.54.09.81.2s.5.26.7.45c.21.2.37.44.5.74.12.29.19.64.19,1.05,0,.44-.08.83-.25,1.17-.17.34-.4.63-.69.86-.29.23-.62.41-1,.53s-.79.18-1.22.18c-.53,0-1.01-.07-1.45-.22-.43-.15-.8-.36-1.1-.64-.3-.28-.53-.63-.68-1.04s-.21-.88-.17-1.42h.28c-.04.5.01.93.15,1.31.14.38.34.7.62.96.27.26.61.45,1.02.58.4.13.85.2,1.33.2.38,0,.74-.05,1.09-.16.35-.11.66-.26.92-.47s.48-.47.64-.78c.16-.31.24-.66.24-1.07s-.07-.75-.2-1.03c-.13-.28-.32-.52-.56-.7-.24-.18-.53-.32-.85-.41s-.68-.15-1.07-.17h-.67v-.28h.67c.3,0,.6-.03.9-.1.3-.07.57-.18.81-.34.24-.16.43-.37.58-.63.15-.26.22-.58.22-.97,0-.38-.09-.69-.25-.95-.16-.26-.36-.46-.61-.63-.25-.16-.53-.28-.84-.34-.31-.07-.63-.1-.96-.1-.45,0-.86.06-1.22.17-.36.12-.67.29-.93.52-.26.23-.45.53-.58.87s-.19.76-.19,1.22h-.28c0-.51.06-.96.21-1.34Z"/>
          </g>
          <g class="uuid-0d587fad-6196-44ad-8f18-fb73606d4fc3">
            <path class="uuid-682e09a0-c1c8-43b8-9533-828e5e3f0d07" d="m663.84,678.7l4.68-6.59h.34v6.65h1.69v.27h-1.69v2.44h-.28v-2.44h-4.75v-.33Zm4.72-6.21l-4.45,6.26h4.47v-6.26h-.03Z"/>
          </g>
          <g class="uuid-0d587fad-6196-44ad-8f18-fb73606d4fc3">
            <path class="uuid-000f822f-05a0-457a-b9d3-9673fbbf0b7a" d="m663.84,678.7l4.68-6.59h.34v6.65h1.69v.27h-1.69v2.44h-.28v-2.44h-4.75v-.33Zm4.72-6.21l-4.45,6.26h4.47v-6.26h-.03Z"/>
          </g>
          <g class="uuid-0d587fad-6196-44ad-8f18-fb73606d4fc3">
            <path class="uuid-682e09a0-c1c8-43b8-9533-828e5e3f0d07" d="m663.84,678.7l4.68-6.59h.34v6.65h1.69v.27h-1.69v2.44h-.28v-2.44h-4.75v-.33Zm4.72-6.21l-4.45,6.26h4.47v-6.26h-.03Z"/>
          </g>
          <g class="uuid-0d587fad-6196-44ad-8f18-fb73606d4fc3">
            <path class="uuid-682e09a0-c1c8-43b8-9533-828e5e3f0d07" d="m788.41,676.39h.03c.27-.44.62-.76,1.07-.96.44-.2.94-.3,1.49-.3.49,0,.93.08,1.32.24.39.16.73.38,1.02.67.28.28.5.63.66,1.03.16.4.23.83.23,1.3,0,.5-.08.95-.23,1.35-.16.4-.38.75-.66,1.03-.28.28-.62.5-1.02.65-.39.15-.83.23-1.32.23s-.92-.07-1.33-.21c-.41-.14-.76-.35-1.05-.61-.29-.27-.51-.59-.67-.98-.16-.39-.23-.84-.21-1.34h.28c-.02.46.04.87.18,1.22.14.36.34.66.6.91.26.25.58.44.96.56.38.13.79.19,1.24.19s.87-.07,1.23-.21c.36-.14.67-.34.93-.61.26-.26.45-.58.59-.95.14-.37.21-.78.21-1.23s-.07-.83-.21-1.19c-.14-.36-.34-.67-.6-.94-.26-.26-.57-.46-.94-.61-.37-.15-.77-.22-1.21-.22-.55,0-1.06.12-1.53.36-.47.24-.83.6-1.09,1.07h-.34l1-4.72h4.8v.28h-4.58l-.85,4Z"/>
          </g>
          <g class="uuid-0d587fad-6196-44ad-8f18-fb73606d4fc3">
            <path class="uuid-000f822f-05a0-457a-b9d3-9673fbbf0b7a" d="m788.41,676.39h.03c.27-.44.62-.76,1.07-.96.44-.2.94-.3,1.49-.3.49,0,.93.08,1.32.24.39.16.73.38,1.02.67.28.28.5.63.66,1.03.16.4.23.83.23,1.3,0,.5-.08.95-.23,1.35-.16.4-.38.75-.66,1.03-.28.28-.62.5-1.02.65-.39.15-.83.23-1.32.23s-.92-.07-1.33-.21c-.41-.14-.76-.35-1.05-.61-.29-.27-.51-.59-.67-.98-.16-.39-.23-.84-.21-1.34h.28c-.02.46.04.87.18,1.22.14.36.34.66.6.91.26.25.58.44.96.56.38.13.79.19,1.24.19s.87-.07,1.23-.21c.36-.14.67-.34.93-.61.26-.26.45-.58.59-.95.14-.37.21-.78.21-1.23s-.07-.83-.21-1.19c-.14-.36-.34-.67-.6-.94-.26-.26-.57-.46-.94-.61-.37-.15-.77-.22-1.21-.22-.55,0-1.06.12-1.53.36-.47.24-.83.6-1.09,1.07h-.34l1-4.72h4.8v.28h-4.58l-.85,4Z"/>
          </g>
          <g class="uuid-0d587fad-6196-44ad-8f18-fb73606d4fc3">
            <path class="uuid-682e09a0-c1c8-43b8-9533-828e5e3f0d07" d="m788.41,676.39h.03c.27-.44.62-.76,1.07-.96.44-.2.94-.3,1.49-.3.49,0,.93.08,1.32.24.39.16.73.38,1.02.67.28.28.5.63.66,1.03.16.4.23.83.23,1.3,0,.5-.08.95-.23,1.35-.16.4-.38.75-.66,1.03-.28.28-.62.5-1.02.65-.39.15-.83.23-1.32.23s-.92-.07-1.33-.21c-.41-.14-.76-.35-1.05-.61-.29-.27-.51-.59-.67-.98-.16-.39-.23-.84-.21-1.34h.28c-.02.46.04.87.18,1.22.14.36.34.66.6.91.26.25.58.44.96.56.38.13.79.19,1.24.19s.87-.07,1.23-.21c.36-.14.67-.34.93-.61.26-.26.45-.58.59-.95.14-.37.21-.78.21-1.23s-.07-.83-.21-1.19c-.14-.36-.34-.67-.6-.94-.26-.26-.57-.46-.94-.61-.37-.15-.77-.22-1.21-.22-.55,0-1.06.12-1.53.36-.47.24-.83.6-1.09,1.07h-.34l1-4.72h4.8v.28h-4.58l-.85,4Z"/>
          </g>
          <g class="uuid-0d587fad-6196-44ad-8f18-fb73606d4fc3">
            <path class="uuid-682e09a0-c1c8-43b8-9533-828e5e3f0d07" d="m917.35,673.27c-.2-.27-.42-.48-.67-.64-.25-.16-.5-.26-.77-.32s-.52-.09-.76-.09c-.7,0-1.26.17-1.69.52s-.76.79-1,1.32c-.23.53-.39,1.11-.46,1.72-.07.62-.11,1.19-.1,1.73h.03c.06-.33.19-.64.38-.92s.42-.53.69-.75c.27-.22.58-.38.92-.5.34-.12.7-.18,1.07-.18.4,0,.8.08,1.19.23.39.16.74.38,1.04.66.3.29.55.62.73,1.02s.28.83.28,1.32-.09.9-.26,1.29-.41.73-.71,1.02c-.3.28-.64.51-1.03.67-.39.16-.8.24-1.23.24-.32,0-.62-.04-.9-.12-.28-.08-.53-.19-.76-.33s-.43-.29-.61-.47c-.18-.17-.33-.35-.45-.54-.27-.41-.44-.88-.51-1.41-.07-.53-.11-1.09-.11-1.7s.06-1.17.17-1.78c.11-.61.3-1.16.57-1.65.27-.5.63-.9,1.08-1.21.45-.31,1.02-.47,1.71-.47.4,0,.77.06,1.11.19.33.12.63.29.87.5.25.21.45.46.61.75.16.29.26.6.3.93h-.28c-.09-.42-.24-.77-.43-1.04Zm.36,3.97c-.16-.36-.37-.67-.63-.94-.27-.27-.58-.48-.94-.63-.36-.16-.74-.23-1.16-.23s-.8.08-1.16.23c-.36.16-.67.37-.94.63-.27.27-.48.58-.63.94-.16.36-.23.74-.23,1.16s.08.8.23,1.16c.16.36.37.67.63.94.27.27.58.48.94.63s.74.23,1.16.23.8-.08,1.16-.23c.36-.16.67-.37.94-.63.27-.27.48-.58.63-.94.16-.36.23-.74.23-1.16s-.08-.8-.23-1.16Z"/>
          </g>
          <g class="uuid-0d587fad-6196-44ad-8f18-fb73606d4fc3">
            <path class="uuid-000f822f-05a0-457a-b9d3-9673fbbf0b7a" d="m917.35,673.27c-.2-.27-.42-.48-.67-.64-.25-.16-.5-.26-.77-.32s-.52-.09-.76-.09c-.7,0-1.26.17-1.69.52s-.76.79-1,1.32c-.23.53-.39,1.11-.46,1.72-.07.62-.11,1.19-.1,1.73h.03c.06-.33.19-.64.38-.92s.42-.53.69-.75c.27-.22.58-.38.92-.5.34-.12.7-.18,1.07-.18.4,0,.8.08,1.19.23.39.16.74.38,1.04.66.3.29.55.62.73,1.02s.28.83.28,1.32-.09.9-.26,1.29-.41.73-.71,1.02c-.3.28-.64.51-1.03.67-.39.16-.8.24-1.23.24-.32,0-.62-.04-.9-.12-.28-.08-.53-.19-.76-.33s-.43-.29-.61-.47c-.18-.17-.33-.35-.45-.54-.27-.41-.44-.88-.51-1.41-.07-.53-.11-1.09-.11-1.7s.06-1.17.17-1.78c.11-.61.3-1.16.57-1.65.27-.5.63-.9,1.08-1.21.45-.31,1.02-.47,1.71-.47.4,0,.77.06,1.11.19.33.12.63.29.87.5.25.21.45.46.61.75.16.29.26.6.3.93h-.28c-.09-.42-.24-.77-.43-1.04Zm.36,3.97c-.16-.36-.37-.67-.63-.94-.27-.27-.58-.48-.94-.63-.36-.16-.74-.23-1.16-.23s-.8.08-1.16.23c-.36.16-.67.37-.94.63-.27.27-.48.58-.63.94-.16.36-.23.74-.23,1.16s.08.8.23,1.16c.16.36.37.67.63.94.27.27.58.48.94.63s.74.23,1.16.23.8-.08,1.16-.23c.36-.16.67-.37.94-.63.27-.27.48-.58.63-.94.16-.36.23-.74.23-1.16s-.08-.8-.23-1.16Z"/>
          </g>
          <g class="uuid-0d587fad-6196-44ad-8f18-fb73606d4fc3">
            <path class="uuid-682e09a0-c1c8-43b8-9533-828e5e3f0d07" d="m917.35,673.27c-.2-.27-.42-.48-.67-.64-.25-.16-.5-.26-.77-.32s-.52-.09-.76-.09c-.7,0-1.26.17-1.69.52s-.76.79-1,1.32c-.23.53-.39,1.11-.46,1.72-.07.62-.11,1.19-.1,1.73h.03c.06-.33.19-.64.38-.92s.42-.53.69-.75c.27-.22.58-.38.92-.5.34-.12.7-.18,1.07-.18.4,0,.8.08,1.19.23.39.16.74.38,1.04.66.3.29.55.62.73,1.02s.28.83.28,1.32-.09.9-.26,1.29-.41.73-.71,1.02c-.3.28-.64.51-1.03.67-.39.16-.8.24-1.23.24-.32,0-.62-.04-.9-.12-.28-.08-.53-.19-.76-.33s-.43-.29-.61-.47c-.18-.17-.33-.35-.45-.54-.27-.41-.44-.88-.51-1.41-.07-.53-.11-1.09-.11-1.7s.06-1.17.17-1.78c.11-.61.3-1.16.57-1.65.27-.5.63-.9,1.08-1.21.45-.31,1.02-.47,1.71-.47.4,0,.77.06,1.11.19.33.12.63.29.87.5.25.21.45.46.61.75.16.29.26.6.3.93h-.28c-.09-.42-.24-.77-.43-1.04Zm.36,3.97c-.16-.36-.37-.67-.63-.94-.27-.27-.58-.48-.94-.63-.36-.16-.74-.23-1.16-.23s-.8.08-1.16.23c-.36.16-.67.37-.94.63-.27.27-.48.58-.63.94-.16.36-.23.74-.23,1.16s.08.8.23,1.16c.16.36.37.67.63.94.27.27.58.48.94.63s.74.23,1.16.23.8-.08,1.16-.23c.36-.16.67-.37.94-.63.27-.27.48-.58.63-.94.16-.36.23-.74.23-1.16s-.08-.8-.23-1.16Z"/>
          </g>
          <g class="uuid-0d587fad-6196-44ad-8f18-fb73606d4fc3">
            <path class="uuid-682e09a0-c1c8-43b8-9533-828e5e3f0d07" d="m1036.97,672.11h5.97v.37c-.63.63-1.21,1.28-1.73,1.95s-.97,1.37-1.33,2.1c-.37.73-.65,1.5-.85,2.31-.2.81-.3,1.69-.3,2.62h-.28c0-.92.08-1.79.28-2.62.2-.83.48-1.61.85-2.36s.82-1.46,1.33-2.14c.52-.68,1.09-1.33,1.73-1.97h-5.67v-.28Z"/>
          </g>
          <g class="uuid-0d587fad-6196-44ad-8f18-fb73606d4fc3">
            <path class="uuid-000f822f-05a0-457a-b9d3-9673fbbf0b7a" d="m1036.97,672.11h5.97v.37c-.63.63-1.21,1.28-1.73,1.95s-.97,1.37-1.33,2.1c-.37.73-.65,1.5-.85,2.31-.2.81-.3,1.69-.3,2.62h-.28c0-.92.08-1.79.28-2.62.2-.83.48-1.61.85-2.36s.82-1.46,1.33-2.14c.52-.68,1.09-1.33,1.73-1.97h-5.67v-.28Z"/>
          </g>
          <g class="uuid-0d587fad-6196-44ad-8f18-fb73606d4fc3">
            <path class="uuid-682e09a0-c1c8-43b8-9533-828e5e3f0d07" d="m1036.97,672.11h5.97v.37c-.63.63-1.21,1.28-1.73,1.95s-.97,1.37-1.33,2.1c-.37.73-.65,1.5-.85,2.31-.2.81-.3,1.69-.3,2.62h-.28c0-.92.08-1.79.28-2.62.2-.83.48-1.61.85-2.36s.82-1.46,1.33-2.14c.52-.68,1.09-1.33,1.73-1.97h-5.67v-.28Z"/>
          </g>
          <g class="uuid-0d587fad-6196-44ad-8f18-fb73606d4fc3">
            <path class="uuid-682e09a0-c1c8-43b8-9533-828e5e3f0d07" d="m1166.58,677.11c.43.45.64,1.03.64,1.74,0,.49-.09.9-.27,1.25-.18.35-.43.63-.74.86-.31.22-.67.39-1.08.5-.41.11-.85.16-1.31.16s-.89-.05-1.31-.16c-.41-.11-.77-.27-1.08-.5-.31-.23-.55-.51-.74-.86-.18-.35-.28-.77-.28-1.25,0-.72.21-1.3.64-1.74.43-.44,1.01-.7,1.75-.78v-.03c-.27-.04-.52-.11-.75-.23-.23-.11-.44-.26-.61-.43-.17-.17-.31-.37-.41-.6-.1-.23-.15-.48-.15-.74,0-.42.08-.78.23-1.08s.36-.54.63-.74.58-.33.94-.42c.36-.09.74-.13,1.14-.13s.78.04,1.14.13c.36.09.67.23.94.42s.48.44.63.74.23.66.23,1.08c0,.27-.05.51-.15.74-.1.23-.24.43-.41.6-.17.17-.38.31-.61.43-.23.12-.48.19-.75.23v.03c.74.07,1.33.33,1.75.78Zm.1.61c-.17-.3-.41-.55-.69-.73-.29-.18-.62-.31-1-.39-.38-.08-.77-.12-1.17-.12s-.79.04-1.17.12c-.38.08-.71.21-1,.39-.29.18-.52.43-.7.73-.17.3-.26.68-.26,1.13s.08.83.25,1.15.4.58.69.78c.29.2.62.35,1,.44.38.09.77.14,1.18.14s.81-.05,1.18-.14c.38-.09.71-.24,1-.44.29-.2.52-.46.69-.78s.25-.7.25-1.15-.09-.83-.26-1.13Zm-.43-4.42c-.15-.27-.35-.48-.6-.64-.25-.16-.53-.28-.85-.34-.32-.07-.64-.1-.98-.1s-.67.03-.98.1c-.32.07-.6.18-.85.34-.25.16-.45.37-.6.64-.15.27-.23.6-.23,1,0,.33.08.62.24.86s.37.44.62.59c.25.15.54.26.85.34.32.07.63.11.94.11s.63-.04.94-.11c.32-.07.6-.19.85-.34s.46-.35.62-.59c.16-.24.24-.53.24-.86,0-.4-.08-.74-.23-1Z"/>
          </g>
          <g class="uuid-0d587fad-6196-44ad-8f18-fb73606d4fc3">
            <path class="uuid-000f822f-05a0-457a-b9d3-9673fbbf0b7a" d="m1166.58,677.11c.43.45.64,1.03.64,1.74,0,.49-.09.9-.27,1.25-.18.35-.43.63-.74.86-.31.22-.67.39-1.08.5-.41.11-.85.16-1.31.16s-.89-.05-1.31-.16c-.41-.11-.77-.27-1.08-.5-.31-.23-.55-.51-.74-.86-.18-.35-.28-.77-.28-1.25,0-.72.21-1.3.64-1.74.43-.44,1.01-.7,1.75-.78v-.03c-.27-.04-.52-.11-.75-.23-.23-.11-.44-.26-.61-.43-.17-.17-.31-.37-.41-.6-.1-.23-.15-.48-.15-.74,0-.42.08-.78.23-1.08s.36-.54.63-.74.58-.33.94-.42c.36-.09.74-.13,1.14-.13s.78.04,1.14.13c.36.09.67.23.94.42s.48.44.63.74.23.66.23,1.08c0,.27-.05.51-.15.74-.1.23-.24.43-.41.6-.17.17-.38.31-.61.43-.23.12-.48.19-.75.23v.03c.74.07,1.33.33,1.75.78Zm.1.61c-.17-.3-.41-.55-.69-.73-.29-.18-.62-.31-1-.39-.38-.08-.77-.12-1.17-.12s-.79.04-1.17.12c-.38.08-.71.21-1,.39-.29.18-.52.43-.7.73-.17.3-.26.68-.26,1.13s.08.83.25,1.15.4.58.69.78c.29.2.62.35,1,.44.38.09.77.14,1.18.14s.81-.05,1.18-.14c.38-.09.71-.24,1-.44.29-.2.52-.46.69-.78s.25-.7.25-1.15-.09-.83-.26-1.13Zm-.43-4.42c-.15-.27-.35-.48-.6-.64-.25-.16-.53-.28-.85-.34-.32-.07-.64-.1-.98-.1s-.67.03-.98.1c-.32.07-.6.18-.85.34-.25.16-.45.37-.6.64-.15.27-.23.6-.23,1,0,.33.08.62.24.86s.37.44.62.59c.25.15.54.26.85.34.32.07.63.11.94.11s.63-.04.94-.11c.32-.07.6-.19.85-.34s.46-.35.62-.59c.16-.24.24-.53.24-.86,0-.4-.08-.74-.23-1Z"/>
          </g>
          <g class="uuid-0d587fad-6196-44ad-8f18-fb73606d4fc3">
            <path class="uuid-682e09a0-c1c8-43b8-9533-828e5e3f0d07" d="m1166.58,677.11c.43.45.64,1.03.64,1.74,0,.49-.09.9-.27,1.25-.18.35-.43.63-.74.86-.31.22-.67.39-1.08.5-.41.11-.85.16-1.31.16s-.89-.05-1.31-.16c-.41-.11-.77-.27-1.08-.5-.31-.23-.55-.51-.74-.86-.18-.35-.28-.77-.28-1.25,0-.72.21-1.3.64-1.74.43-.44,1.01-.7,1.75-.78v-.03c-.27-.04-.52-.11-.75-.23-.23-.11-.44-.26-.61-.43-.17-.17-.31-.37-.41-.6-.1-.23-.15-.48-.15-.74,0-.42.08-.78.23-1.08s.36-.54.63-.74.58-.33.94-.42c.36-.09.74-.13,1.14-.13s.78.04,1.14.13c.36.09.67.23.94.42s.48.44.63.74.23.66.23,1.08c0,.27-.05.51-.15.74-.1.23-.24.43-.41.6-.17.17-.38.31-.61.43-.23.12-.48.19-.75.23v.03c.74.07,1.33.33,1.75.78Zm.1.61c-.17-.3-.41-.55-.69-.73-.29-.18-.62-.31-1-.39-.38-.08-.77-.12-1.17-.12s-.79.04-1.17.12c-.38.08-.71.21-1,.39-.29.18-.52.43-.7.73-.17.3-.26.68-.26,1.13s.08.83.25,1.15.4.58.69.78c.29.2.62.35,1,.44.38.09.77.14,1.18.14s.81-.05,1.18-.14c.38-.09.71-.24,1-.44.29-.2.52-.46.69-.78s.25-.7.25-1.15-.09-.83-.26-1.13Zm-.43-4.42c-.15-.27-.35-.48-.6-.64-.25-.16-.53-.28-.85-.34-.32-.07-.64-.1-.98-.1s-.67.03-.98.1c-.32.07-.6.18-.85.34-.25.16-.45.37-.6.64-.15.27-.23.6-.23,1,0,.33.08.62.24.86s.37.44.62.59c.25.15.54.26.85.34.32.07.63.11.94.11s.63-.04.94-.11c.32-.07.6-.19.85-.34s.46-.35.62-.59c.16-.24.24-.53.24-.86,0-.4-.08-.74-.23-1Z"/>
          </g>
          <g class="uuid-0d587fad-6196-44ad-8f18-fb73606d4fc3">
            <path class="uuid-682e09a0-c1c8-43b8-9533-828e5e3f0d07" d="m1285.28,680.3c.2.27.42.48.67.64.25.16.51.26.78.32.27.06.52.09.75.09.47,0,.87-.08,1.22-.24.34-.16.64-.38.88-.65.24-.28.44-.59.59-.95.15-.36.27-.73.36-1.13.09-.39.14-.79.17-1.19.03-.4.04-.78.03-1.14h-.03c-.07.33-.2.64-.39.92-.18.29-.41.54-.68.75-.27.21-.58.38-.92.5-.34.12-.7.18-1.07.18-.4,0-.8-.08-1.19-.23s-.74-.38-1.04-.66-.55-.63-.73-1.03-.28-.84-.28-1.31.09-.9.26-1.29c.17-.39.41-.74.71-1.03.3-.29.64-.51,1.03-.67.39-.16.8-.24,1.23-.24.32,0,.62.04.9.13.28.09.53.2.76.34.23.14.43.29.61.47.18.17.33.35.45.54.28.41.45.88.52,1.41.07.53.11,1.09.11,1.7s-.06,1.18-.17,1.78c-.11.6-.3,1.15-.57,1.64-.27.49-.63.89-1.09,1.2s-1.03.47-1.71.47c-.4,0-.77-.06-1.11-.18s-.63-.28-.87-.5c-.25-.21-.45-.46-.61-.75-.16-.29-.26-.6-.3-.93h.27c.09.42.24.77.43,1.04Zm5.09-6.28c-.16-.36-.37-.67-.63-.94-.27-.27-.58-.48-.94-.63s-.74-.23-1.16-.23-.8.08-1.16.23c-.36.16-.67.37-.94.63-.27.27-.48.58-.63.94-.16.36-.23.74-.23,1.16s.08.8.23,1.16c.16.36.37.67.63.94.27.27.58.48.94.63.36.16.74.23,1.16.23s.8-.08,1.16-.23.67-.37.94-.63c.27-.27.48-.58.63-.94.16-.36.23-.74.23-1.16s-.08-.8-.23-1.16Z"/>
          </g>
          <g class="uuid-0d587fad-6196-44ad-8f18-fb73606d4fc3">
            <path class="uuid-000f822f-05a0-457a-b9d3-9673fbbf0b7a" d="m1285.28,680.3c.2.27.42.48.67.64.25.16.51.26.78.32.27.06.52.09.75.09.47,0,.87-.08,1.22-.24.34-.16.64-.38.88-.65.24-.28.44-.59.59-.95.15-.36.27-.73.36-1.13.09-.39.14-.79.17-1.19.03-.4.04-.78.03-1.14h-.03c-.07.33-.2.64-.39.92-.18.29-.41.54-.68.75-.27.21-.58.38-.92.5-.34.12-.7.18-1.07.18-.4,0-.8-.08-1.19-.23s-.74-.38-1.04-.66-.55-.63-.73-1.03-.28-.84-.28-1.31.09-.9.26-1.29c.17-.39.41-.74.71-1.03.3-.29.64-.51,1.03-.67.39-.16.8-.24,1.23-.24.32,0,.62.04.9.13.28.09.53.2.76.34.23.14.43.29.61.47.18.17.33.35.45.54.28.41.45.88.52,1.41.07.53.11,1.09.11,1.7s-.06,1.18-.17,1.78c-.11.6-.3,1.15-.57,1.64-.27.49-.63.89-1.09,1.2s-1.03.47-1.71.47c-.4,0-.77-.06-1.11-.18s-.63-.28-.87-.5c-.25-.21-.45-.46-.61-.75-.16-.29-.26-.6-.3-.93h.27c.09.42.24.77.43,1.04Zm5.09-6.28c-.16-.36-.37-.67-.63-.94-.27-.27-.58-.48-.94-.63s-.74-.23-1.16-.23-.8.08-1.16.23c-.36.16-.67.37-.94.63-.27.27-.48.58-.63.94-.16.36-.23.74-.23,1.16s.08.8.23,1.16c.16.36.37.67.63.94.27.27.58.48.94.63.36.16.74.23,1.16.23s.8-.08,1.16-.23.67-.37.94-.63c.27-.27.48-.58.63-.94.16-.36.23-.74.23-1.16s-.08-.8-.23-1.16Z"/>
          </g>
          <g class="uuid-0d587fad-6196-44ad-8f18-fb73606d4fc3">
            <path class="uuid-682e09a0-c1c8-43b8-9533-828e5e3f0d07" d="m1285.28,680.3c.2.27.42.48.67.64.25.16.51.26.78.32.27.06.52.09.75.09.47,0,.87-.08,1.22-.24.34-.16.64-.38.88-.65.24-.28.44-.59.59-.95.15-.36.27-.73.36-1.13.09-.39.14-.79.17-1.19.03-.4.04-.78.03-1.14h-.03c-.07.33-.2.64-.39.92-.18.29-.41.54-.68.75-.27.21-.58.38-.92.5-.34.12-.7.18-1.07.18-.4,0-.8-.08-1.19-.23s-.74-.38-1.04-.66-.55-.63-.73-1.03-.28-.84-.28-1.31.09-.9.26-1.29c.17-.39.41-.74.71-1.03.3-.29.64-.51,1.03-.67.39-.16.8-.24,1.23-.24.32,0,.62.04.9.13.28.09.53.2.76.34.23.14.43.29.61.47.18.17.33.35.45.54.28.41.45.88.52,1.41.07.53.11,1.09.11,1.7s-.06,1.18-.17,1.78c-.11.6-.3,1.15-.57,1.64-.27.49-.63.89-1.09,1.2s-1.03.47-1.71.47c-.4,0-.77-.06-1.11-.18s-.63-.28-.87-.5c-.25-.21-.45-.46-.61-.75-.16-.29-.26-.6-.3-.93h.27c.09.42.24.77.43,1.04Zm5.09-6.28c-.16-.36-.37-.67-.63-.94-.27-.27-.58-.48-.94-.63s-.74-.23-1.16-.23-.8.08-1.16.23c-.36.16-.67.37-.94.63-.27.27-.48.58-.63.94-.16.36-.23.74-.23,1.16s.08.8.23,1.16c.16.36.37.67.63.94.27.27.58.48.94.63.36.16.74.23,1.16.23s.8-.08,1.16-.23.67-.37.94-.63c.27-.27.48-.58.63-.94.16-.36.23-.74.23-1.16s-.08-.8-.23-1.16Z"/>
          </g>
          <g class="uuid-0d587fad-6196-44ad-8f18-fb73606d4fc3">
            <path class="uuid-682e09a0-c1c8-43b8-9533-828e5e3f0d07" d="m1408.37,672.47c-.28.39-.65.74-1.11,1.03-.45.29-.92.5-1.38.63v-.28c.28-.09.54-.19.76-.3s.43-.23.62-.37c.19-.14.38-.29.56-.47.18-.17.36-.37.56-.59h.3v9.36h-.28v-9h-.03Z"/>
            <path class="uuid-682e09a0-c1c8-43b8-9533-828e5e3f0d07" d="m1419.14,678.54c-.11.58-.31,1.1-.58,1.56s-.64.83-1.09,1.11c-.45.28-1.01.42-1.69.42s-1.23-.14-1.69-.42c-.45-.28-.82-.65-1.09-1.11s-.47-.98-.58-1.56-.17-1.16-.17-1.75.06-1.17.17-1.75.31-1.1.58-1.55.64-.83,1.09-1.12,1.02-.43,1.69-.43,1.24.14,1.69.43.81.66,1.09,1.12.47.98.58,1.55.17,1.16.17,1.75-.06,1.17-.17,1.75Zm-.25-3.34c-.1-.54-.27-1.03-.52-1.47-.25-.44-.58-.8-1-1.08-.42-.28-.95-.42-1.59-.42s-1.17.14-1.59.42-.75.64-1,1.08c-.25.44-.42.93-.52,1.47-.1.54-.15,1.07-.15,1.6s.05,1.06.15,1.6c.1.54.27,1.03.52,1.47.25.44.58.8,1,1.08.42.28.95.42,1.59.42s1.17-.14,1.59-.42c.42-.28.75-.64,1-1.08.25-.44.42-.93.52-1.47.1-.54.15-1.07.15-1.6s-.05-1.05-.15-1.6Z"/>
          </g>
          <g class="uuid-0d587fad-6196-44ad-8f18-fb73606d4fc3">
            <path class="uuid-000f822f-05a0-457a-b9d3-9673fbbf0b7a" d="m1408.37,672.47c-.28.39-.65.74-1.11,1.03-.45.29-.92.5-1.38.63v-.28c.28-.09.54-.19.76-.3s.43-.23.62-.37c.19-.14.38-.29.56-.47.18-.17.36-.37.56-.59h.3v9.36h-.28v-9h-.03Z"/>
            <path class="uuid-000f822f-05a0-457a-b9d3-9673fbbf0b7a" d="m1419.14,678.54c-.11.58-.31,1.1-.58,1.56s-.64.83-1.09,1.11c-.45.28-1.01.42-1.69.42s-1.23-.14-1.69-.42c-.45-.28-.82-.65-1.09-1.11s-.47-.98-.58-1.56-.17-1.16-.17-1.75.06-1.17.17-1.75.31-1.1.58-1.55.64-.83,1.09-1.12,1.02-.43,1.69-.43,1.24.14,1.69.43.81.66,1.09,1.12.47.98.58,1.55.17,1.16.17,1.75-.06,1.17-.17,1.75Zm-.25-3.34c-.1-.54-.27-1.03-.52-1.47-.25-.44-.58-.8-1-1.08-.42-.28-.95-.42-1.59-.42s-1.17.14-1.59.42-.75.64-1,1.08c-.25.44-.42.93-.52,1.47-.1.54-.15,1.07-.15,1.6s.05,1.06.15,1.6c.1.54.27,1.03.52,1.47.25.44.58.8,1,1.08.42.28.95.42,1.59.42s1.17-.14,1.59-.42c.42-.28.75-.64,1-1.08.25-.44.42-.93.52-1.47.1-.54.15-1.07.15-1.6s-.05-1.05-.15-1.6Z"/>
          </g>
          <g class="uuid-0d587fad-6196-44ad-8f18-fb73606d4fc3">
            <path class="uuid-682e09a0-c1c8-43b8-9533-828e5e3f0d07" d="m1408.37,672.47c-.28.39-.65.74-1.11,1.03-.45.29-.92.5-1.38.63v-.28c.28-.09.54-.19.76-.3s.43-.23.62-.37c.19-.14.38-.29.56-.47.18-.17.36-.37.56-.59h.3v9.36h-.28v-9h-.03Z"/>
            <path class="uuid-682e09a0-c1c8-43b8-9533-828e5e3f0d07" d="m1419.14,678.54c-.11.58-.31,1.1-.58,1.56s-.64.83-1.09,1.11c-.45.28-1.01.42-1.69.42s-1.23-.14-1.69-.42c-.45-.28-.82-.65-1.09-1.11s-.47-.98-.58-1.56-.17-1.16-.17-1.75.06-1.17.17-1.75.31-1.1.58-1.55.64-.83,1.09-1.12,1.02-.43,1.69-.43,1.24.14,1.69.43.81.66,1.09,1.12.47.98.58,1.55.17,1.16.17,1.75-.06,1.17-.17,1.75Zm-.25-3.34c-.1-.54-.27-1.03-.52-1.47-.25-.44-.58-.8-1-1.08-.42-.28-.95-.42-1.59-.42s-1.17.14-1.59.42-.75.64-1,1.08c-.25.44-.42.93-.52,1.47-.1.54-.15,1.07-.15,1.6s.05,1.06.15,1.6c.1.54.27,1.03.52,1.47.25.44.58.8,1,1.08.42.28.95.42,1.59.42s1.17-.14,1.59-.42c.42-.28.75-.64,1-1.08.25-.44.42-.93.52-1.47.1-.54.15-1.07.15-1.6s-.05-1.05-.15-1.6Z"/>
          </g>
          <g class="uuid-0d587fad-6196-44ad-8f18-fb73606d4fc3">
            <path class="uuid-682e09a0-c1c8-43b8-9533-828e5e3f0d07" d="m1532.24,672.47c-.28.39-.65.74-1.11,1.03-.45.29-.92.5-1.38.63v-.28c.28-.09.54-.19.76-.3s.43-.23.62-.37c.19-.14.38-.29.56-.47.18-.17.36-.37.56-.59h.3v9.36h-.28v-9h-.03Z"/>
            <path class="uuid-682e09a0-c1c8-43b8-9533-828e5e3f0d07" d="m1539.89,672.47c-.28.39-.65.74-1.11,1.03-.45.29-.92.5-1.38.63v-.28c.28-.09.54-.19.76-.3s.43-.23.62-.37c.19-.14.38-.29.56-.47.18-.17.36-.37.56-.59h.3v9.36h-.28v-9h-.03Z"/>
          </g>
          <g class="uuid-0d587fad-6196-44ad-8f18-fb73606d4fc3">
            <path class="uuid-000f822f-05a0-457a-b9d3-9673fbbf0b7a" d="m1532.24,672.47c-.28.39-.65.74-1.11,1.03-.45.29-.92.5-1.38.63v-.28c.28-.09.54-.19.76-.3s.43-.23.62-.37c.19-.14.38-.29.56-.47.18-.17.36-.37.56-.59h.3v9.36h-.28v-9h-.03Z"/>
            <path class="uuid-000f822f-05a0-457a-b9d3-9673fbbf0b7a" d="m1539.89,672.47c-.28.39-.65.74-1.11,1.03-.45.29-.92.5-1.38.63v-.28c.28-.09.54-.19.76-.3s.43-.23.62-.37c.19-.14.38-.29.56-.47.18-.17.36-.37.56-.59h.3v9.36h-.28v-9h-.03Z"/>
          </g>
          <g class="uuid-0d587fad-6196-44ad-8f18-fb73606d4fc3">
            <path class="uuid-682e09a0-c1c8-43b8-9533-828e5e3f0d07" d="m1532.24,672.47c-.28.39-.65.74-1.11,1.03-.45.29-.92.5-1.38.63v-.28c.28-.09.54-.19.76-.3s.43-.23.62-.37c.19-.14.38-.29.56-.47.18-.17.36-.37.56-.59h.3v9.36h-.28v-9h-.03Z"/>
            <path class="uuid-682e09a0-c1c8-43b8-9533-828e5e3f0d07" d="m1539.89,672.47c-.28.39-.65.74-1.11,1.03-.45.29-.92.5-1.38.63v-.28c.28-.09.54-.19.76-.3s.43-.23.62-.37c.19-.14.38-.29.56-.47.18-.17.36-.37.56-.59h.3v9.36h-.28v-9h-.03Z"/>
          </g>
          <g class="uuid-0d587fad-6196-44ad-8f18-fb73606d4fc3">
            <path class="uuid-682e09a0-c1c8-43b8-9533-828e5e3f0d07" d="m1656.11,672.47c-.28.39-.65.74-1.11,1.03-.45.29-.92.5-1.38.63v-.28c.28-.09.54-.19.76-.3s.43-.23.62-.37c.19-.14.38-.29.56-.47.18-.17.36-.37.56-.59h.3v9.36h-.28v-9h-.03Z"/>
            <path class="uuid-682e09a0-c1c8-43b8-9533-828e5e3f0d07" d="m1666.75,681.47h-6.3c0-.39.07-.75.25-1.07.17-.32.4-.62.69-.9.28-.28.6-.55.96-.8.35-.25.7-.5,1.05-.75.36-.25.71-.5,1.05-.76.34-.26.64-.53.91-.81.27-.28.48-.58.64-.89.16-.32.24-.66.24-1.03s-.07-.69-.2-.97c-.13-.28-.31-.51-.54-.7-.23-.19-.5-.33-.82-.43-.32-.1-.66-.14-1.04-.14-.49,0-.9.07-1.25.22-.35.15-.63.35-.85.61s-.38.57-.48.94-.15.76-.15,1.19h-.27c0-1.03.26-1.82.76-2.39s1.25-.85,2.25-.85c.4,0,.78.05,1.13.16s.65.26.91.48.46.47.61.78.23.68.23,1.1c0,.51-.14.98-.41,1.4s-.62.82-1.04,1.18-.87.71-1.36,1.04c-.49.33-.94.65-1.37.98-.43.33-.79.66-1.09,1-.3.34-.47.72-.51,1.12h6.03v.28Z"/>
          </g>
          <g class="uuid-0d587fad-6196-44ad-8f18-fb73606d4fc3">
            <path class="uuid-000f822f-05a0-457a-b9d3-9673fbbf0b7a" d="m1656.11,672.47c-.28.39-.65.74-1.11,1.03-.45.29-.92.5-1.38.63v-.28c.28-.09.54-.19.76-.3s.43-.23.62-.37c.19-.14.38-.29.56-.47.18-.17.36-.37.56-.59h.3v9.36h-.28v-9h-.03Z"/>
            <path class="uuid-000f822f-05a0-457a-b9d3-9673fbbf0b7a" d="m1666.75,681.47h-6.3c0-.39.07-.75.25-1.07.17-.32.4-.62.69-.9.28-.28.6-.55.96-.8.35-.25.7-.5,1.05-.75.36-.25.71-.5,1.05-.76.34-.26.64-.53.91-.81.27-.28.48-.58.64-.89.16-.32.24-.66.24-1.03s-.07-.69-.2-.97c-.13-.28-.31-.51-.54-.7-.23-.19-.5-.33-.82-.43-.32-.1-.66-.14-1.04-.14-.49,0-.9.07-1.25.22-.35.15-.63.35-.85.61s-.38.57-.48.94-.15.76-.15,1.19h-.27c0-1.03.26-1.82.76-2.39s1.25-.85,2.25-.85c.4,0,.78.05,1.13.16s.65.26.91.48.46.47.61.78.23.68.23,1.1c0,.51-.14.98-.41,1.4s-.62.82-1.04,1.18-.87.71-1.36,1.04c-.49.33-.94.65-1.37.98-.43.33-.79.66-1.09,1-.3.34-.47.72-.51,1.12h6.03v.28Z"/>
          </g>
          <g class="uuid-0d587fad-6196-44ad-8f18-fb73606d4fc3">
            <path class="uuid-682e09a0-c1c8-43b8-9533-828e5e3f0d07" d="m1656.11,672.47c-.28.39-.65.74-1.11,1.03-.45.29-.92.5-1.38.63v-.28c.28-.09.54-.19.76-.3s.43-.23.62-.37c.19-.14.38-.29.56-.47.18-.17.36-.37.56-.59h.3v9.36h-.28v-9h-.03Z"/>
            <path class="uuid-682e09a0-c1c8-43b8-9533-828e5e3f0d07" d="m1666.75,681.47h-6.3c0-.39.07-.75.25-1.07.17-.32.4-.62.69-.9.28-.28.6-.55.96-.8.35-.25.7-.5,1.05-.75.36-.25.71-.5,1.05-.76.34-.26.64-.53.91-.81.27-.28.48-.58.64-.89.16-.32.24-.66.24-1.03s-.07-.69-.2-.97c-.13-.28-.31-.51-.54-.7-.23-.19-.5-.33-.82-.43-.32-.1-.66-.14-1.04-.14-.49,0-.9.07-1.25.22-.35.15-.63.35-.85.61s-.38.57-.48.94-.15.76-.15,1.19h-.27c0-1.03.26-1.82.76-2.39s1.25-.85,2.25-.85c.4,0,.78.05,1.13.16s.65.26.91.48.46.47.61.78.23.68.23,1.1c0,.51-.14.98-.41,1.4s-.62.82-1.04,1.18-.87.71-1.36,1.04c-.49.33-.94.65-1.37.98-.43.33-.79.66-1.09,1-.3.34-.47.72-.51,1.12h6.03v.28Z"/>
          </g>
          <g class="uuid-0d587fad-6196-44ad-8f18-fb73606d4fc3">
            <path class="uuid-682e09a0-c1c8-43b8-9533-828e5e3f0d07" d="m154.13,913.91v.28h-6.88v-.28h6.88Z"/>
            <path class="uuid-682e09a0-c1c8-43b8-9533-828e5e3f0d07" d="m161.19,917.74h-6.3c0-.39.07-.75.25-1.07.17-.32.4-.62.69-.9.28-.28.6-.55.96-.8.35-.25.7-.5,1.05-.75.36-.25.71-.5,1.05-.76.34-.26.64-.53.91-.81.27-.28.48-.58.64-.89.16-.32.24-.66.24-1.03s-.07-.69-.2-.97c-.13-.28-.31-.51-.54-.7-.23-.19-.5-.33-.82-.43-.32-.1-.66-.14-1.04-.14-.49,0-.9.07-1.25.22-.35.15-.63.35-.85.61s-.38.57-.48.94-.15.76-.15,1.19h-.27c0-1.03.26-1.82.76-2.39s1.25-.85,2.25-.85c.4,0,.78.05,1.13.16s.65.26.91.48.46.47.61.78.23.68.23,1.1c0,.51-.14.98-.41,1.4s-.62.82-1.04,1.18-.87.71-1.36,1.04c-.49.33-.94.65-1.37.98-.43.33-.79.66-1.09,1-.3.34-.47.72-.51,1.12h6.03v.28Z"/>
          </g>
          <g class="uuid-0d587fad-6196-44ad-8f18-fb73606d4fc3">
            <path class="uuid-000f822f-05a0-457a-b9d3-9673fbbf0b7a" d="m154.13,913.91v.28h-6.88v-.28h6.88Z"/>
            <path class="uuid-000f822f-05a0-457a-b9d3-9673fbbf0b7a" d="m161.19,917.74h-6.3c0-.39.07-.75.25-1.07.17-.32.4-.62.69-.9.28-.28.6-.55.96-.8.35-.25.7-.5,1.05-.75.36-.25.71-.5,1.05-.76.34-.26.64-.53.91-.81.27-.28.48-.58.64-.89.16-.32.24-.66.24-1.03s-.07-.69-.2-.97c-.13-.28-.31-.51-.54-.7-.23-.19-.5-.33-.82-.43-.32-.1-.66-.14-1.04-.14-.49,0-.9.07-1.25.22-.35.15-.63.35-.85.61s-.38.57-.48.94-.15.76-.15,1.19h-.27c0-1.03.26-1.82.76-2.39s1.25-.85,2.25-.85c.4,0,.78.05,1.13.16s.65.26.91.48.46.47.61.78.23.68.23,1.1c0,.51-.14.98-.41,1.4s-.62.82-1.04,1.18-.87.71-1.36,1.04c-.49.33-.94.65-1.37.98-.43.33-.79.66-1.09,1-.3.34-.47.72-.51,1.12h6.03v.28Z"/>
          </g>
          <g class="uuid-0d587fad-6196-44ad-8f18-fb73606d4fc3">
            <path class="uuid-682e09a0-c1c8-43b8-9533-828e5e3f0d07" d="m154.13,913.91v.28h-6.88v-.28h6.88Z"/>
            <path class="uuid-682e09a0-c1c8-43b8-9533-828e5e3f0d07" d="m161.19,917.74h-6.3c0-.39.07-.75.25-1.07.17-.32.4-.62.69-.9.28-.28.6-.55.96-.8.35-.25.7-.5,1.05-.75.36-.25.71-.5,1.05-.76.34-.26.64-.53.91-.81.27-.28.48-.58.64-.89.16-.32.24-.66.24-1.03s-.07-.69-.2-.97c-.13-.28-.31-.51-.54-.7-.23-.19-.5-.33-.82-.43-.32-.1-.66-.14-1.04-.14-.49,0-.9.07-1.25.22-.35.15-.63.35-.85.61s-.38.57-.48.94-.15.76-.15,1.19h-.27c0-1.03.26-1.82.76-2.39s1.25-.85,2.25-.85c.4,0,.78.05,1.13.16s.65.26.91.48.46.47.61.78.23.68.23,1.1c0,.51-.14.98-.41,1.4s-.62.82-1.04,1.18-.87.71-1.36,1.04c-.49.33-.94.65-1.37.98-.43.33-.79.66-1.09,1-.3.34-.47.72-.51,1.12h6.03v.28Z"/>
          </g>
          <g class="uuid-0d587fad-6196-44ad-8f18-fb73606d4fc3">
            <path class="uuid-682e09a0-c1c8-43b8-9533-828e5e3f0d07" d="m154.13,790.04v.28h-6.88v-.28h6.88Z"/>
            <path class="uuid-682e09a0-c1c8-43b8-9533-828e5e3f0d07" d="m158.2,784.87c-.28.39-.65.74-1.11,1.03-.45.29-.92.5-1.38.63v-.28c.28-.09.54-.19.76-.3s.43-.23.62-.37c.19-.14.38-.29.56-.47.18-.17.36-.37.56-.59h.3v9.36h-.28v-9h-.03Z"/>
          </g>
          <g class="uuid-0d587fad-6196-44ad-8f18-fb73606d4fc3">
            <path class="uuid-000f822f-05a0-457a-b9d3-9673fbbf0b7a" d="m154.13,790.04v.28h-6.88v-.28h6.88Z"/>
            <path class="uuid-000f822f-05a0-457a-b9d3-9673fbbf0b7a" d="m158.2,784.87c-.28.39-.65.74-1.11,1.03-.45.29-.92.5-1.38.63v-.28c.28-.09.54-.19.76-.3s.43-.23.62-.37c.19-.14.38-.29.56-.47.18-.17.36-.37.56-.59h.3v9.36h-.28v-9h-.03Z"/>
          </g>
          <g class="uuid-0d587fad-6196-44ad-8f18-fb73606d4fc3">
            <path class="uuid-682e09a0-c1c8-43b8-9533-828e5e3f0d07" d="m154.13,790.04v.28h-6.88v-.28h6.88Z"/>
            <path class="uuid-682e09a0-c1c8-43b8-9533-828e5e3f0d07" d="m158.2,784.87c-.28.39-.65.74-1.11,1.03-.45.29-.92.5-1.38.63v-.28c.28-.09.54-.19.76-.3s.43-.23.62-.37c.19-.14.38-.29.56-.47.18-.17.36-.37.56-.59h.3v9.36h-.28v-9h-.03Z"/>
          </g>
          <g class="uuid-0d587fad-6196-44ad-8f18-fb73606d4fc3">
            <path class="uuid-682e09a0-c1c8-43b8-9533-828e5e3f0d07" d="m158.2,535.98c-.28.39-.65.74-1.11,1.03-.45.29-.92.5-1.38.63v-.28c.28-.09.54-.19.76-.3s.43-.23.62-.37c.19-.14.38-.29.56-.47.18-.17.36-.37.56-.59h.3v9.36h-.28v-9h-.03Z"/>
          </g>
          <g class="uuid-0d587fad-6196-44ad-8f18-fb73606d4fc3">
            <path class="uuid-000f822f-05a0-457a-b9d3-9673fbbf0b7a" d="m158.2,535.98c-.28.39-.65.74-1.11,1.03-.45.29-.92.5-1.38.63v-.28c.28-.09.54-.19.76-.3s.43-.23.62-.37c.19-.14.38-.29.56-.47.18-.17.36-.37.56-.59h.3v9.36h-.28v-9h-.03Z"/>
          </g>
          <g class="uuid-0d587fad-6196-44ad-8f18-fb73606d4fc3">
            <path class="uuid-682e09a0-c1c8-43b8-9533-828e5e3f0d07" d="m158.2,535.98c-.28.39-.65.74-1.11,1.03-.45.29-.92.5-1.38.63v-.28c.28-.09.54-.19.76-.3s.43-.23.62-.37c.19-.14.38-.29.56-.47.18-.17.36-.37.56-.59h.3v9.36h-.28v-9h-.03Z"/>
          </g>
          <g class="uuid-0d587fad-6196-44ad-8f18-fb73606d4fc3">
            <path class="uuid-682e09a0-c1c8-43b8-9533-828e5e3f0d07" d="m161.19,421.11h-6.3c0-.39.07-.75.25-1.07.17-.32.4-.62.69-.9.28-.28.6-.55.96-.8.35-.25.7-.5,1.05-.75.36-.25.71-.5,1.05-.76.34-.26.64-.53.91-.81.27-.28.48-.58.64-.89.16-.32.24-.66.24-1.03s-.07-.69-.2-.97c-.13-.28-.31-.51-.54-.7-.23-.19-.5-.33-.82-.43-.32-.1-.66-.14-1.04-.14-.49,0-.9.07-1.25.22-.35.15-.63.35-.85.61s-.38.57-.48.94-.15.76-.15,1.19h-.27c0-1.03.26-1.82.76-2.39s1.25-.85,2.25-.85c.4,0,.78.05,1.13.16s.65.26.91.48.46.47.61.78.23.68.23,1.1c0,.51-.14.98-.41,1.4s-.62.82-1.04,1.18-.87.71-1.36,1.04c-.49.33-.94.65-1.37.98-.43.33-.79.66-1.09,1-.3.34-.47.72-.51,1.12h6.03v.28Z"/>
          </g>
          <g class="uuid-0d587fad-6196-44ad-8f18-fb73606d4fc3">
            <path class="uuid-000f822f-05a0-457a-b9d3-9673fbbf0b7a" d="m161.19,421.11h-6.3c0-.39.07-.75.25-1.07.17-.32.4-.62.69-.9.28-.28.6-.55.96-.8.35-.25.7-.5,1.05-.75.36-.25.71-.5,1.05-.76.34-.26.64-.53.91-.81.27-.28.48-.58.64-.89.16-.32.24-.66.24-1.03s-.07-.69-.2-.97c-.13-.28-.31-.51-.54-.7-.23-.19-.5-.33-.82-.43-.32-.1-.66-.14-1.04-.14-.49,0-.9.07-1.25.22-.35.15-.63.35-.85.61s-.38.57-.48.94-.15.76-.15,1.19h-.27c0-1.03.26-1.82.76-2.39s1.25-.85,2.25-.85c.4,0,.78.05,1.13.16s.65.26.91.48.46.47.61.78.23.68.23,1.1c0,.51-.14.98-.41,1.4s-.62.82-1.04,1.18-.87.71-1.36,1.04c-.49.33-.94.65-1.37.98-.43.33-.79.66-1.09,1-.3.34-.47.72-.51,1.12h6.03v.28Z"/>
          </g>
          <g class="uuid-0d587fad-6196-44ad-8f18-fb73606d4fc3">
            <path class="uuid-682e09a0-c1c8-43b8-9533-828e5e3f0d07" d="m161.19,421.11h-6.3c0-.39.07-.75.25-1.07.17-.32.4-.62.69-.9.28-.28.6-.55.96-.8.35-.25.7-.5,1.05-.75.36-.25.71-.5,1.05-.76.34-.26.64-.53.91-.81.27-.28.48-.58.64-.89.16-.32.24-.66.24-1.03s-.07-.69-.2-.97c-.13-.28-.31-.51-.54-.7-.23-.19-.5-.33-.82-.43-.32-.1-.66-.14-1.04-.14-.49,0-.9.07-1.25.22-.35.15-.63.35-.85.61s-.38.57-.48.94-.15.76-.15,1.19h-.27c0-1.03.26-1.82.76-2.39s1.25-.85,2.25-.85c.4,0,.78.05,1.13.16s.65.26.91.48.46.47.61.78.23.68.23,1.1c0,.51-.14.98-.41,1.4s-.62.82-1.04,1.18-.87.71-1.36,1.04c-.49.33-.94.65-1.37.98-.43.33-.79.66-1.09,1-.3.34-.47.72-.51,1.12h6.03v.28Z"/>
          </g>
          <g class="uuid-0d587fad-6196-44ad-8f18-fb73606d4fc3">
            <path class="uuid-682e09a0-c1c8-43b8-9533-828e5e3f0d07" d="m155.15,289.45c.15-.38.36-.7.64-.96.28-.26.62-.45,1.02-.58.4-.13.84-.19,1.33-.19.38,0,.74.04,1.09.12.35.08.66.22.94.4s.5.42.66.72c.17.29.25.65.25,1.06,0,.66-.19,1.17-.57,1.54-.38.37-.86.58-1.44.63v.03c.28.03.54.09.81.2s.5.26.7.45c.21.2.37.44.5.74.12.29.19.64.19,1.05,0,.44-.08.83-.25,1.17-.17.34-.4.63-.69.86-.29.23-.62.41-1,.53s-.79.18-1.22.18c-.53,0-1.01-.07-1.45-.22-.43-.15-.8-.36-1.1-.64-.3-.28-.53-.63-.68-1.04s-.21-.88-.17-1.42h.28c-.04.5.01.93.15,1.31.14.38.34.7.62.96.27.26.61.45,1.02.58.4.13.85.2,1.33.2.38,0,.74-.05,1.09-.16.35-.11.66-.26.92-.47s.48-.47.64-.78c.16-.31.24-.66.24-1.07s-.07-.75-.2-1.03c-.13-.28-.32-.52-.56-.7-.24-.18-.53-.32-.85-.41s-.68-.15-1.07-.17h-.67v-.28h.67c.3,0,.6-.03.9-.1.3-.07.57-.18.81-.34.24-.16.43-.37.58-.63.15-.26.22-.58.22-.97,0-.38-.09-.69-.25-.95-.16-.26-.36-.46-.61-.63-.25-.16-.53-.28-.84-.34-.31-.07-.63-.1-.96-.1-.45,0-.86.06-1.22.17-.36.12-.67.29-.93.52-.26.23-.45.53-.58.87s-.19.76-.19,1.22h-.28c0-.51.06-.96.21-1.34Z"/>
          </g>
          <g class="uuid-0d587fad-6196-44ad-8f18-fb73606d4fc3">
            <path class="uuid-000f822f-05a0-457a-b9d3-9673fbbf0b7a" d="m155.15,289.45c.15-.38.36-.7.64-.96.28-.26.62-.45,1.02-.58.4-.13.84-.19,1.33-.19.38,0,.74.04,1.09.12.35.08.66.22.94.4s.5.42.66.72c.17.29.25.65.25,1.06,0,.66-.19,1.17-.57,1.54-.38.37-.86.58-1.44.63v.03c.28.03.54.09.81.2s.5.26.7.45c.21.2.37.44.5.74.12.29.19.64.19,1.05,0,.44-.08.83-.25,1.17-.17.34-.4.63-.69.86-.29.23-.62.41-1,.53s-.79.18-1.22.18c-.53,0-1.01-.07-1.45-.22-.43-.15-.8-.36-1.1-.64-.3-.28-.53-.63-.68-1.04s-.21-.88-.17-1.42h.28c-.04.5.01.93.15,1.31.14.38.34.7.62.96.27.26.61.45,1.02.58.4.13.85.2,1.33.2.38,0,.74-.05,1.09-.16.35-.11.66-.26.92-.47s.48-.47.64-.78c.16-.31.24-.66.24-1.07s-.07-.75-.2-1.03c-.13-.28-.32-.52-.56-.7-.24-.18-.53-.32-.85-.41s-.68-.15-1.07-.17h-.67v-.28h.67c.3,0,.6-.03.9-.1.3-.07.57-.18.81-.34.24-.16.43-.37.58-.63.15-.26.22-.58.22-.97,0-.38-.09-.69-.25-.95-.16-.26-.36-.46-.61-.63-.25-.16-.53-.28-.84-.34-.31-.07-.63-.1-.96-.1-.45,0-.86.06-1.22.17-.36.12-.67.29-.93.52-.26.23-.45.53-.58.87s-.19.76-.19,1.22h-.28c0-.51.06-.96.21-1.34Z"/>
          </g>
          <g class="uuid-0d587fad-6196-44ad-8f18-fb73606d4fc3">
            <path class="uuid-682e09a0-c1c8-43b8-9533-828e5e3f0d07" d="m155.15,289.45c.15-.38.36-.7.64-.96.28-.26.62-.45,1.02-.58.4-.13.84-.19,1.33-.19.38,0,.74.04,1.09.12.35.08.66.22.94.4s.5.42.66.72c.17.29.25.65.25,1.06,0,.66-.19,1.17-.57,1.54-.38.37-.86.58-1.44.63v.03c.28.03.54.09.81.2s.5.26.7.45c.21.2.37.44.5.74.12.29.19.64.19,1.05,0,.44-.08.83-.25,1.17-.17.34-.4.63-.69.86-.29.23-.62.41-1,.53s-.79.18-1.22.18c-.53,0-1.01-.07-1.45-.22-.43-.15-.8-.36-1.1-.64-.3-.28-.53-.63-.68-1.04s-.21-.88-.17-1.42h.28c-.04.5.01.93.15,1.31.14.38.34.7.62.96.27.26.61.45,1.02.58.4.13.85.2,1.33.2.38,0,.74-.05,1.09-.16.35-.11.66-.26.92-.47s.48-.47.64-.78c.16-.31.24-.66.24-1.07s-.07-.75-.2-1.03c-.13-.28-.32-.52-.56-.7-.24-.18-.53-.32-.85-.41s-.68-.15-1.07-.17h-.67v-.28h.67c.3,0,.6-.03.9-.1.3-.07.57-.18.81-.34.24-.16.43-.37.58-.63.15-.26.22-.58.22-.97,0-.38-.09-.69-.25-.95-.16-.26-.36-.46-.61-.63-.25-.16-.53-.28-.84-.34-.31-.07-.63-.1-.96-.1-.45,0-.86.06-1.22.17-.36.12-.67.29-.93.52-.26.23-.45.53-.58.87s-.19.76-.19,1.22h-.28c0-.51.06-.96.21-1.34Z"/>
          </g>
          <g class="uuid-0d587fad-6196-44ad-8f18-fb73606d4fc3">
            <path class="uuid-682e09a0-c1c8-43b8-9533-828e5e3f0d07" d="m154.6,170.61l4.68-6.59h.34v6.65h1.69v.27h-1.69v2.44h-.28v-2.44h-4.75v-.33Zm4.72-6.21l-4.45,6.26h4.47v-6.26h-.03Z"/>
          </g>
          <g class="uuid-0d587fad-6196-44ad-8f18-fb73606d4fc3">
            <path class="uuid-000f822f-05a0-457a-b9d3-9673fbbf0b7a" d="m154.6,170.61l4.68-6.59h.34v6.65h1.69v.27h-1.69v2.44h-.28v-2.44h-4.75v-.33Zm4.72-6.21l-4.45,6.26h4.47v-6.26h-.03Z"/>
          </g>
          <g class="uuid-0d587fad-6196-44ad-8f18-fb73606d4fc3">
            <path class="uuid-682e09a0-c1c8-43b8-9533-828e5e3f0d07" d="m154.6,170.61l4.68-6.59h.34v6.65h1.69v.27h-1.69v2.44h-.28v-2.44h-4.75v-.33Zm4.72-6.21l-4.45,6.26h4.47v-6.26h-.03Z"/>
          </g>
          <g class="uuid-0d587fad-6196-44ad-8f18-fb73606d4fc3">
            <path class="uuid-682e09a0-c1c8-43b8-9533-828e5e3f0d07" d="m155.3,43.28h.03c.27-.44.62-.76,1.07-.96.44-.2.94-.3,1.49-.3.49,0,.93.08,1.32.24.39.16.73.38,1.02.67.28.28.5.63.66,1.03.16.4.23.83.23,1.3,0,.5-.08.95-.23,1.35-.16.4-.38.75-.66,1.03-.28.28-.62.5-1.02.65-.39.15-.83.23-1.32.23s-.92-.07-1.33-.21c-.41-.14-.76-.35-1.05-.61-.29-.27-.51-.59-.67-.98-.16-.39-.23-.84-.21-1.34h.28c-.02.46.04.87.18,1.22.14.36.34.66.6.91.26.25.58.44.96.56.38.13.79.19,1.24.19s.87-.07,1.23-.21c.36-.14.67-.34.93-.61.26-.26.45-.58.59-.95.14-.37.21-.78.21-1.23s-.07-.83-.21-1.19c-.14-.36-.34-.67-.6-.94-.26-.26-.57-.46-.94-.61-.37-.15-.77-.22-1.21-.22-.55,0-1.06.12-1.53.36-.47.24-.83.6-1.09,1.07h-.34l1-4.72h4.8v.28h-4.58l-.85,4Z"/>
          </g>
          <g class="uuid-0d587fad-6196-44ad-8f18-fb73606d4fc3">
            <path class="uuid-000f822f-05a0-457a-b9d3-9673fbbf0b7a" d="m155.3,43.28h.03c.27-.44.62-.76,1.07-.96.44-.2.94-.3,1.49-.3.49,0,.93.08,1.32.24.39.16.73.38,1.02.67.28.28.5.63.66,1.03.16.4.23.83.23,1.3,0,.5-.08.95-.23,1.35-.16.4-.38.75-.66,1.03-.28.28-.62.5-1.02.65-.39.15-.83.23-1.32.23s-.92-.07-1.33-.21c-.41-.14-.76-.35-1.05-.61-.29-.27-.51-.59-.67-.98-.16-.39-.23-.84-.21-1.34h.28c-.02.46.04.87.18,1.22.14.36.34.66.6.91.26.25.58.44.96.56.38.13.79.19,1.24.19s.87-.07,1.23-.21c.36-.14.67-.34.93-.61.26-.26.45-.58.59-.95.14-.37.21-.78.21-1.23s-.07-.83-.21-1.19c-.14-.36-.34-.67-.6-.94-.26-.26-.57-.46-.94-.61-.37-.15-.77-.22-1.21-.22-.55,0-1.06.12-1.53.36-.47.24-.83.6-1.09,1.07h-.34l1-4.72h4.8v.28h-4.58l-.85,4Z"/>
          </g>
          <g class="uuid-0d587fad-6196-44ad-8f18-fb73606d4fc3">
            <path class="uuid-682e09a0-c1c8-43b8-9533-828e5e3f0d07" d="m155.3,43.28h.03c.27-.44.62-.76,1.07-.96.44-.2.94-.3,1.49-.3.49,0,.93.08,1.32.24.39.16.73.38,1.02.67.28.28.5.63.66,1.03.16.4.23.83.23,1.3,0,.5-.08.95-.23,1.35-.16.4-.38.75-.66,1.03-.28.28-.62.5-1.02.65-.39.15-.83.23-1.32.23s-.92-.07-1.33-.21c-.41-.14-.76-.35-1.05-.61-.29-.27-.51-.59-.67-.98-.16-.39-.23-.84-.21-1.34h.28c-.02.46.04.87.18,1.22.14.36.34.66.6.91.26.25.58.44.96.56.38.13.79.19,1.24.19s.87-.07,1.23-.21c.36-.14.67-.34.93-.61.26-.26.45-.58.59-.95.14-.37.21-.78.21-1.23s-.07-.83-.21-1.19c-.14-.36-.34-.67-.6-.94-.26-.26-.57-.46-.94-.61-.37-.15-.77-.22-1.21-.22-.55,0-1.06.12-1.53.36-.47.24-.83.6-1.09,1.07h-.34l1-4.72h4.8v.28h-4.58l-.85,4Z"/>
          </g>
          <g class="uuid-0d587fad-6196-44ad-8f18-fb73606d4fc3">
            <path class="uuid-682e09a0-c1c8-43b8-9533-828e5e3f0d07" d="m161.32,678.54c-.11.58-.31,1.1-.58,1.56s-.64.83-1.09,1.11c-.45.28-1.01.42-1.69.42s-1.23-.14-1.69-.42c-.45-.28-.82-.65-1.09-1.11s-.47-.98-.58-1.56-.17-1.16-.17-1.75.06-1.17.17-1.75.31-1.1.58-1.55.64-.83,1.09-1.12,1.02-.43,1.69-.43,1.24.14,1.69.43.81.66,1.09,1.12.47.98.58,1.55.17,1.16.17,1.75-.06,1.17-.17,1.75Zm-.25-3.34c-.1-.54-.27-1.03-.52-1.47-.25-.44-.58-.8-1-1.08-.42-.28-.95-.42-1.59-.42s-1.17.14-1.59.42-.75.64-1,1.08c-.25.44-.42.93-.52,1.47-.1.54-.15,1.07-.15,1.6s.05,1.06.15,1.6c.1.54.27,1.03.52,1.47.25.44.58.8,1,1.08.42.28.95.42,1.59.42s1.17-.14,1.59-.42c.42-.28.75-.64,1-1.08.25-.44.42-.93.52-1.47.1-.54.15-1.07.15-1.6s-.05-1.05-.15-1.6Z"/>
          </g>
          <g class="uuid-0d587fad-6196-44ad-8f18-fb73606d4fc3">
            <path class="uuid-000f822f-05a0-457a-b9d3-9673fbbf0b7a" d="m161.32,678.54c-.11.58-.31,1.1-.58,1.56s-.64.83-1.09,1.11c-.45.28-1.01.42-1.69.42s-1.23-.14-1.69-.42c-.45-.28-.82-.65-1.09-1.11s-.47-.98-.58-1.56-.17-1.16-.17-1.75.06-1.17.17-1.75.31-1.1.58-1.55.64-.83,1.09-1.12,1.02-.43,1.69-.43,1.24.14,1.69.43.81.66,1.09,1.12.47.98.58,1.55.17,1.16.17,1.75-.06,1.17-.17,1.75Zm-.25-3.34c-.1-.54-.27-1.03-.52-1.47-.25-.44-.58-.8-1-1.08-.42-.28-.95-.42-1.59-.42s-1.17.14-1.59.42-.75.64-1,1.08c-.25.44-.42.93-.52,1.47-.1.54-.15,1.07-.15,1.6s.05,1.06.15,1.6c.1.54.27,1.03.52,1.47.25.44.58.8,1,1.08.42.28.95.42,1.59.42s1.17-.14,1.59-.42c.42-.28.75-.64,1-1.08.25-.44.42-.93.52-1.47.1-.54.15-1.07.15-1.6s-.05-1.05-.15-1.6Z"/>
          </g>
          <g class="uuid-0d587fad-6196-44ad-8f18-fb73606d4fc3">
            <path class="uuid-682e09a0-c1c8-43b8-9533-828e5e3f0d07" d="m161.32,678.54c-.11.58-.31,1.1-.58,1.56s-.64.83-1.09,1.11c-.45.28-1.01.42-1.69.42s-1.23-.14-1.69-.42c-.45-.28-.82-.65-1.09-1.11s-.47-.98-.58-1.56-.17-1.16-.17-1.75.06-1.17.17-1.75.31-1.1.58-1.55.64-.83,1.09-1.12,1.02-.43,1.69-.43,1.24.14,1.69.43.81.66,1.09,1.12.47.98.58,1.55.17,1.16.17,1.75-.06,1.17-.17,1.75Zm-.25-3.34c-.1-.54-.27-1.03-.52-1.47-.25-.44-.58-.8-1-1.08-.42-.28-.95-.42-1.59-.42s-1.17.14-1.59.42-.75.64-1,1.08c-.25.44-.42.93-.52,1.47-.1.54-.15,1.07-.15,1.6s.05,1.06.15,1.6c.1.54.27,1.03.52,1.47.25.44.58.8,1,1.08.42.28.95.42,1.59.42s1.17-.14,1.59-.42c.42-.28.75-.64,1-1.08.25-.44.42-.93.52-1.47.1-.54.15-1.07.15-1.6s-.05-1.05-.15-1.6Z"/>
          </g>
          <path class="uuid-02c88a3a-8f6a-46be-a9c1-eb35d9d69bcd" d="m420.22-176.37V-5.2h0l1.15,69.33h0l1.15,44.22h0l1.15,32.53h0l1.15,25.75h0l1.15,21.32h0l1.15,18.19h0l1.15,15.86h0l1.15,14.06h0l1.15,12.63h0l1.15,11.46h0l1.15,10.49h0l1.15,9.67h0l1.15,8.97h0l1.15,8.37h0l1.15,7.84h0l1.15,7.37h0l1.15,6.96h0l1.15,6.59h0l1.15,6.26h0l1.15,5.96h0l1.15,5.68h0l1.15,5.44h0l1.15,5.21h0l1.15,5h0l1.15,4.8h0l1.15,4.63h0l1.15,4.46h0l1.15,4.3h0l1.15,4.16h0l1.15,4.03h0l1.15,3.9h0l1.15,3.78h0l1.15,3.67h0l1.15,3.56h0l1.15,3.46h0l1.15,3.37h0l1.15,3.28h0l1.15,3.2h0l1.15,3.12h0l1.15,3.04h0l1.15,2.97h0l1.15,2.9h0l1.15,2.83h0l1.15,2.77h0l1.15,2.71h0l1.15,2.65h0l1.15,2.59h0l1.15,2.54h0l1.15,2.49h0l1.15,2.44h0l1.15,2.39h0l1.15,2.35h0l1.15,2.31h0l1.15,2.26h0l1.15,2.22h0l1.15,2.18h0l1.15,2.15h0l1.15,2.11h0l1.15,2.07h0l1.15,2.04h0l1.15,2.01h0l1.15,1.98h0l1.15,1.94h0l1.15,1.91h0l1.15,1.89h0l1.15,1.86h0l1.15,1.83h0l1.15,1.8h0l1.15,1.78h0l1.15,1.75h0l1.15,1.73h0l1.15,1.7h0l1.15,1.68h0l1.15,1.66h0l1.15,1.64h0l1.15,1.62h0l1.15,1.59h0l1.15,1.57h0l1.15,1.55h0l1.15,1.54h0l1.15,1.52h0l1.15,1.5h0l1.15,1.48h0l1.15,1.46h0l1.15,1.45h0l1.15,1.43h0l1.15,1.41h0l1.15,1.4h0l1.15,1.38h0l1.15,1.37h0l1.15,1.35h0l1.15,1.34h0l1.15,1.32h0l1.15,1.31h0l1.15,1.3h0l1.15,1.28h0l1.15,1.27h0l1.15,1.26h0l1.15,1.24h0l1.15,1.23h0l1.15,1.22h0l1.15,1.21h0l1.15,1.2h0l1.15,1.18h0l1.15,1.17h0l1.15,1.16h0l1.15,1.15h0l1.15,1.14h0l1.15,1.13h0l1.15,1.12h0l1.15,1.11h0l1.15,1.1h0l1.15,1.09h0l1.15,1.08h0l1.15,1.07h0l1.15,1.06h0l1.15,1.05h0l1.15,1.04h0l1.15,1.04h0l1.15,1.03h0l1.15,1.02h0l1.15,1.01h0l1.15,1h0l1.15.99h0l1.15.99h0l1.15.98h0l1.15.97h0l1.15.96h0l1.15.96h0l1.15.95h0l1.15.94h0l1.15.93h0l1.15.93h0l1.15.92h0l1.15.91h0l1.15.91h0l1.15.9h0l1.15.89h0l1.15.89h0l1.15.88h0l1.15.88h0l1.15.87h0l1.15.86h0l1.15.86h0l1.15.85h0l1.15.85h0l1.15.84h0l1.15.83h0l1.15.83h0l1.15.82h0l1.15.82h0l1.15.81h0l1.15.81h0l1.15.8h0l1.15.8h0l1.15.79h0l1.15.79h0l1.15.78h0l1.15.78h0l1.15.77h0l1.15.77h0l1.15.76h0l1.15.76h0l1.15.75h0l1.15.75h0l1.15.74h0l1.15.74h0l1.15.74h0l1.15.73h0l1.15.73h0l1.15.72h0l1.15.72h0l1.15.71h0l1.15.71h0l1.15.71h0l1.15.7h0l1.15.7h0l1.15.69h0l1.15.69h0l1.15.69h0l1.15.68h0l1.15.68h0l1.15.68h0l1.15.67h0l1.15.67h0l1.15.66h0l1.15.66h0l1.15.66h0l1.15.65h0l1.15.65h0l1.15.65h0l1.15.64h0l1.15.64h0l1.15.64h0l1.15.63h0l1.15.63h0l1.15.63h0l1.15.62h0l1.15.62h0l1.15.62h0l1.15.61h0l1.15.61h0l1.15.61h0l1.15.61h0l1.15.6h0l1.15.6h0l1.15.6h0l1.15.59h0l1.15.59h0l1.15.59h0l1.15.59h0l1.15.58h0l1.15.58h0l1.15.58h0l1.15.58h0l1.15.57h0l1.15.57h0l1.15.57h0l1.15.56h0l1.15.56h0l1.15.56h0l1.15.56h0l1.15.55h0l1.15.55h0l1.15.55h0l1.15.55h0l1.15.54h0l1.15.54h0l1.15.54h0l1.15.54h0l1.15.54h0l1.15.53h0l1.15.53h0l1.15.53h0l1.15.53h0l1.15.52h0l1.15.52h0l1.15.52h0l1.15.52h0l1.15.52h0l1.15.51h0l1.15.51h0l1.15.51h0l1.15.51h0l1.15.5h0l1.15.5h0l1.15.5h0l1.15.5h0l1.15.5h0l1.15.49h0l1.15.49h0l1.15.49h0l1.15.49h0l1.15.49h0l1.15.49h0l1.15.48h0l1.15.48h0l1.15.48h0l1.15.48h0l1.15.48h0l1.15.47h0l1.15.47h0l1.15.47h0l1.15.47h0l1.15.47h0l1.15.47h0l1.15.46h0l1.15.46h0l1.15.46h0l1.15.46h0l1.15.46h0l1.15.45h0l1.15.45h0l1.15.45h0l1.15.45h0l1.15.45h0l1.15.45h0l1.15.45h0l1.15.44h0l1.15.44h0l1.15.44h0l1.15.44h0l1.15.44h0l1.15.44h0l1.15.43h0l1.15.43h0l1.15.43h0l1.15.43h0l1.15.43h0l1.15.43h0l1.15.43h0l1.15.42h0l1.15.42h0l1.15.42h0l1.15.42h0l1.15.42h0l1.15.42h0l1.15.42h0l1.15.41h0l1.15.41h0l1.15.41h0l1.15.41h0l1.15.41h0l1.15.41h0l1.15.41h0l1.15.4h0l1.15.4h0l1.15.4h0l1.15.4h0l1.15.4h0l1.15.4h0l1.15.4h0l1.15.4h0l1.15.39h0l1.15.39h0l1.15.39h0l1.15.39h0l1.15.39h0l1.15.39h0l1.15.39h0l1.15.39h0l1.15.38h0l1.15.38h0l1.15.38h0l1.15.38h0l1.15.38h0l1.15.38h0l1.15.38h0l1.15.38h0l1.15.38h0l1.15.37h0l1.15.37h0l1.15.37h0l1.15.37h0l1.15.37h0l1.15.37h0l1.15.37h0l1.15.37h0l1.15.37h0l1.15.36h0l1.15.36h0l1.15.36h0l1.15.36h0l1.15.36h0l1.15.36h0l1.15.36h0l1.15.36h0l1.15.36h0l1.15.35h0l1.15.35h0l1.15.35h0l1.15.35h0l1.15.35h0l1.15.35h0l1.15.35h0l1.15.35h0l1.15.35h0l1.15.35h0l1.15.34h0l1.15.34h0l1.15.34h0l1.15.34h0l1.15.34h0l1.15.34h0l1.15.34h0l1.15.34h0l1.15.34h0l1.15.34h0l1.15.34h0l1.15.33h0l1.15.33h0l1.15.33h0l1.15.33h0l1.15.33h0l1.15.33h0l1.15.33h0l1.15.33h0l1.15.33h0l1.15.33h0l1.15.33h0l1.15.33h0l1.15.32h0l1.15.32h0l1.15.32h0l1.15.32h0l1.15.32h0l1.15.32h0l1.15.32h0l1.15.32h0l1.15.32h0l1.15.32h0l1.15.32h0l1.15.32h0l1.15.31h0l1.15.31h0l1.15.31h0l1.15.31h0l1.15.31h0l1.15.31h0l1.15.31h0l1.15.31h0l1.15.31h0l1.15.31h0l1.15.31h0l1.15.31h0l1.15.31h0l1.15.3h0l1.15.3h0l1.15.3h0l1.15.3h0l1.15.3h0l1.15.3h0l1.15.3h0l1.15.3h0l1.15.3h0l1.15.3h0l1.15.3h0l1.15.3h0l1.15.3h0l1.15.29h0l1.15.29h0l1.15.29h0l1.15.29h0l1.15.29h0l1.15.29h0l1.15.29h0l1.15.29h0l1.15.29h0l1.15.29h0l1.15.29h0l1.15.29h0l1.15.29h0l1.15.29h0l1.15.29h0l1.15.28h0l1.15.28h0l1.15.28h0l1.15.28h0l1.15.28h0l1.15.28h0l1.15.28h0l1.15.28h0l1.15.28h0l1.15.28h0l1.15.28h0l1.15.28h0l1.15.28h0l1.15.28h0l1.15.28h0l1.15.28h0l1.15.27h0l1.15.27h0l1.15.27h0l1.15.27h0l1.15.27h0l1.15.27h0l1.15.27h0l1.15.27h0l1.15.27h0l1.15.27h0l1.15.27h0l1.15.27h0l1.15.27h0l1.15.27h0l1.15.27h0l1.15.27h0l1.15.27h0l1.15.26h0l1.15.26h0l1.15.26h0l1.15.26h0l1.15.26h0l1.15.26h0l1.15.26h0l1.15.26h0l1.15.26h0l1.15.26h0l1.15.26h0l1.15.26h0l1.15.26h0l1.15.26h0l1.15.26h0l1.15.26h0l1.15.26h0l1.15.26h0l1.15.25h0l1.15.25h0l1.15.25h0l1.15.25h0l1.15.25h0l1.15.25h0l1.15.25h0l1.15.25h0l1.15.25h0l1.15.25h0l1.15.25h0l1.15.25h0l1.15.25h0l1.15.25h0l1.15.25h0l1.15.25h0l1.15.25h0l1.15.25h0l1.15.25h0l1.15.25h0l1.15.24h0l1.15.24h0l1.15.24h0l1.15.24h0l1.15.24h0l1.15.24h0l1.15.24h0l1.15.24h0l1.15.24h0l1.15.24h0l1.15.24h0l1.15.24h0l1.15.24h0l1.15.24h0l1.15.24h0l1.15.24h0l1.15.24h0l1.15.24h0l1.15.24h0l1.15.24h0l1.15.24h0l1.15.24h0l1.15.23h0l1.15.23h0l1.15.23h0l1.15.23h0l1.15.23h0l1.15.23h0l1.15.23h0l1.15.23h0l1.15.23h0l1.15.23h0l1.15.23h0l1.15.23h0l1.15.23h0l1.15.23h0l1.15.23h0l1.15.23h0l1.15.23h0l1.15.23h0l1.15.23h0l1.15.23h0l1.15.23h0l1.15.23h0l1.15.23h0l1.15.22h0l1.15.22h0l1.15.22h0l1.15.22h0l1.15.22h0l1.15.22h0l1.15.22h0l1.15.22h0l1.15.22h0l1.15.22h0l1.15.22h0l1.15.22h0l1.15.22h0l1.15.22h0l1.15.22h0l1.15.22h0l1.15.22h0l1.15.22h0l1.15.22h0l1.15.22h0l1.15.22h0l1.15.22h0l1.15.22h0l1.15.22h0l1.15.22h0l1.15.22h0l1.15.21h0l1.15.21h0l1.15.21h0l1.15.21h0l1.15.21h0l1.15.21h0l1.15.21h0l1.15.21h0l1.15.21h0l1.15.21h0l1.15.21h0l1.15.21h0l1.15.21h0l1.15.21h0l1.15.21h0l1.15.21h0l1.15.21h0l1.15.21h0l1.15.21h0l1.15.21h0l1.15.21h0l1.15.21h0l1.15.21h0l1.15.21h0l1.15.21h0l1.15.21h0l1.15.21h0l1.15.21h0l1.15.2h0l1.15.2h0l1.15.2h0l1.15.2h0l1.15.2h0l1.15.2h0l1.15.2h0l1.15.2h0l1.15.2h0l1.15.2h0l1.15.2h0l1.15.2h0l1.15.2h0l1.15.2h0l1.15.2h0l1.15.2h0l1.15.2h0l1.15.2h0l1.15.2h0l1.15.2h0l1.15.2h0l1.15.2h0l1.15.2h0l1.15.2h0l1.15.2h0l1.15.2h0l1.15.2h0l1.15.2h0l1.15.2h0l1.15.2h0l1.15.2h0l1.15.19h0l1.15.19h0l1.15.19h0l1.15.19h0l1.15.19h0l1.15.19h0l1.15.19h0l1.15.19h0l1.15.19h0l1.15.19h0l1.15.19h0l1.15.19h0l1.15.19h0l1.15.19h0l1.15.19h0l1.15.19h0l1.15.19h0l1.15.19h0l1.15.19h0l1.15.19h0l1.15.19h0l1.15.19h0l1.15.19h0l1.15.19h0l1.15.19h0l1.15.19h0l1.15.19h0l1.15.19h0l1.15.19h0l1.15.19h0l1.15.19h0l1.15.19h0l1.15.19h0l1.15.19h0l1.15.19h0l1.15.18h0l1.15.18h0l1.15.18h0l1.15.18h0l1.15.18h0l1.15.18h0l1.15.18h0l1.15.18h0l1.15.18h0l1.15.18h0l1.15.18h0l1.15.18h0l1.15.18h0l1.15.18h0l1.15.18h0l1.15.18h0l1.15.18h0l1.15.18h0l1.15.18h0l1.15.18h0l1.15.18h0l1.15.18h0l1.15.18h0l1.15.18h0l1.15.18h0l1.15.18h0l1.15.18h0l1.15.18h0l1.15.18h0l1.15.18h0l1.15.18h0l1.15.18h0l1.15.18h0l1.15.18h0l1.15.18h0l1.15.18h0l1.15.18h0l1.15.18h0l1.15.17h0l1.15.17h0l1.15.17h0l1.15.17h0l1.15.17h0l1.15.17h0l1.15.17h0l1.15.17h0l1.15.17h0l1.15.17h0l1.15.17h0l1.15.17h0l1.15.17h0l1.15.17h0l1.15.17h0l1.15.17h0l1.15.17h0l1.15.17h0l1.15.17h0l1.15.17h0l1.15.17h0l1.15.17h0l1.15.17h0l1.15.17h0l1.15.17h0l1.15.17h0l1.15.17h0l1.15.17h0l1.15.17h0l1.15.17h0l1.15.17h0l1.15.17h0l1.15.17h0l1.15.17h0l1.15.17h0l1.15.17h0l1.15.17h0l1.15.17h0l1.15.17h0l1.15.17h0l1.15.17h0l1.15.17h0l1.15.17h0l1.15.16h0l1.15.16h0l1.15.16h0l1.15.16h0l1.15.16h0l1.15.16h0l1.15.16h0l1.15.16h0l1.15.16h0l1.15.16h0l1.15.16h0l1.15.16h0l1.15.16h0l1.15.16h0l1.15.16h0l1.15.16h0l1.15.16h0l1.15.16h0l1.15.16h0l1.15.16h0l1.15.16h0l1.15.16h0l1.15.16h0l1.15.16h0l1.15.16h0l1.15.16h0l1.15.16h0l1.15.16h0l1.15.16h0l1.15.16h0l1.15.16h0l1.15.16h0l1.15.16h0l1.15.16h0l1.15.16h0l1.15.16h0l1.15.16h0l1.15.16h0l1.15.16h0l1.15.16h0l1.15.16h0l1.15.16h0l1.15.16h0l1.15.16h0l1.15.16h0l1.15.16h0l1.15.16h0l1.15.16h0l1.15.15h0l1.15.15h0l1.15.15h0l1.15.15h0l1.15.15h0l1.15.15h0l1.15.15h0l1.15.15h0l1.15.15h0l1.15.15h0l1.15.15h0l1.15.15h0l1.15.15h0l1.15.15h0l1.15.15h0l1.15.15h0l1.15.15h0l1.15.15h0l1.15.15h0l1.15.15h0l1.15.15h0l1.15.15h0l1.15.15h0l1.15.15h0l1.15.15h0l1.15.15h0l1.15.15h0l1.15.15h0l1.15.15h0l1.15.15h0l1.15.15h0l1.15.15h0l1.15.15h0l1.15.15h0l1.15.15h0l1.15.15h0l1.15.15h0l1.15.15h0l1.15.15h0l1.15.15h0l1.15.15h0l1.15.15h0l1.15.15h0l1.15.15h0l1.15.15h0l1.15.15h0l1.15.15h0l1.15.15h0l1.15.15h0l1.15.15h0l1.15.15h0l1.15.15h0l1.15.15h0l1.15.15h0l1.15.15h0l1.15.15h0l1.15.14h0l1.15.14h0l1.15.14h0l1.15.14h0l1.15.14h0l1.15.14h0l1.15.14h0l1.15.14h0l1.15.14h0l1.15.14h0l1.15.14h0l1.15.14h0l1.15.14h0l1.15.14h0l1.15.14h0l1.15.14h0l1.15.14h0l1.15.14h0l1.15.14h0l1.15.14h0l1.15.14h0l1.15.14h0l1.15.14h0l1.15.14h0l1.15.14h0l1.15.14h0l1.15.14h0l1.15.14h0l1.15.14h0l1.15.14h0l1.15.14h0l1.15.14h0l1.15.14h0l1.15.14h0l1.15.14h0l1.15.14h0l1.15.14h0l1.15.14h0l1.15.14h0l1.15.14h0l1.15.14h0l1.15.14h0l1.15.14h0l1.15.14h0l1.15.14h0l1.15.14h0l1.15.14h0l1.15.14h0l1.15.14h0l1.15.14h0l1.15.14h0l1.15.14h0l1.15.14h0l1.15.14h0l1.15.14h0l1.15.14h0l1.15.14h0l1.15.14h0l1.15.14h0l1.15.14h0l1.15.14h0l1.15.14h0l1.15.14h0l1.15.13h0l1.15.13h0l1.15.13h0l1.15.13h0l1.15.13h0l1.15.13h0l1.15.13h0l1.15.13h0l1.15.13h0l1.15.13h0l1.15.13h0l1.15.13h0l1.15.13h0l1.15.13h0l1.15.13h0l1.15.13h0l1.15.13h0l1.15.13h0l1.15.13h0l1.15.13h0l1.15.13h0l1.15.13h0l1.15.13h0l1.15.13h0l1.15.13h0l1.15.13h0l1.15.13h0l1.15.13h0l1.15.13h0l1.15.13h0l1.15.13h0l1.15.13h0l1.15.13h0l1.15.13h0l1.15.13h0l1.15.13h0l1.15.13h0l1.15.13h0l1.15.13h0l1.15.13h0l1.15.13h0l1.15.13h0l1.15.13h0l1.15.13h0l1.15.13h0l1.15.13h0l1.15.13h0l1.15.13h0l1.15.13h0l1.15.13h0l1.15.13h0l1.15.13h0l1.15.13h0l1.15.13h0l1.15.13h0l1.15.13h0l1.15.13h0l1.15.13h0l1.15.13h0l1.15.13h0l1.15.13h0l1.15.13h0l1.15.13h0l1.15.13h0l1.15.13h0l1.15.13h0l1.15.13h0l1.15.13h0l1.15.13h0l1.15.13h0l1.15.13h0l1.15.13h0l1.15.13h0l1.15.13h0l1.15.12h0l1.15.12h0l1.15.12h0l1.15.12h0l1.15.12h0l1.15.12h0l1.15.12h0l1.15.12h0l1.15.12h0l1.15.12h0l1.15.12h0l1.15.12h0l1.15.12h0l1.15.12h0l1.15.12h0l1.15.12h0l1.15.12h0l1.15.12h0l1.15.12h0l1.15.12h0l1.15.12h0l1.15.12h0l1.15.12h0l1.15.12h0l1.15.12h0l1.15.12h0l1.15.12h0l1.15.12h0l1.15.12h0l1.15.12h0l1.15.12h0l1.15.12h0l1.15.12h0l1.15.12h0l1.15.12h0l1.15.12h0l1.15.12h0l1.15.12h0l1.15.12h0l1.15.12h0l1.15.12h0l1.15.12h0l1.15.12h0l1.15.12h0l1.15.12h0l1.15.12h0l1.15.12h0l1.15.12h0l1.15.12h0l1.15.12h0l1.15.12h0l1.15.12h0l1.15.12h0l1.15.12h0l1.15.12h0l1.15.12h0l1.15.12h0l1.15.12h0l1.15.12h0l1.15.12h0l1.15.12h0l1.15.12h0l1.15.12h0l1.15.12h0l1.15.12h0l1.15.12h0l1.15.12h0l1.15.12h0l1.15.12h0l1.15.12h0l1.15.12h0l1.15.12h0l1.15.12h0l1.15.12h0l1.15.12h0l1.15.12h0l1.15.12h0l1.15.12h0l1.15.12h0l1.15.12h0l1.15.12h0l1.15.12h0l1.15.12h0l1.15.12h0l1.15.12h0l1.15.12h0l1.15.11h0l1.15.11h0l1.15.11h0l1.15.11h0l1.15.11h0l1.15.11h0l1.15.11h0l1.15.11h0l1.15.11h0l1.15.11h0l1.15.11h0l1.15.11h0l1.15.11h0l1.15.11h0l1.15.11h0l1.15.11h0l1.15.11h0l1.15.11h0l1.15.11h0l1.15.11h0l1.15.11h0l1.15.11h0l1.15.11"/>
        </g>
      </g>
    </g>
  </g>
  <g id="uuid-1f2c2c64-dbe4-4ac0-9e60-bda2a955964f" data-name="Marco">
    <path class="uuid-383363f4-6e2c-4fe3-9033-5b2ddc437535" d="m0-2V1022h1680V-2H0Zm1663,987c0,11.05-8.95,20-20,20H37c-11.05,0-20-8.95-20-20V35c0-11.05,8.95-20,20-20h1606c11.05,0,20,8.95,20,20v950Z"/>
  </g>
</svg>