<?xml version="1.0" encoding="UTF-8"?><svg xmlns="http://www.w3.org/2000/svg" xmlns:xlink="http://www.w3.org/1999/xlink" viewBox="0 0 1232.74 1010.14"><defs><style>.e{fill:#fff;}.f{fill:#252525;}.f,.g{font-family:Helvetica-Bold, Helvetica;font-size:13.24px;font-weight:700;isolation:isolate;}.h{stroke:rgba(0,153,255,.7);stroke-linecap:round;stroke-linejoin:round;stroke-width:7px;}.h,.g,.i,.j,.k{fill:none;}.g{stroke:#fff;stroke-linejoin:bevel;stroke-width:3px;}.i{clip-path:url(#b);}.j{stroke:#252525;stroke-miterlimit:10;stroke-width:2px;}.l{fill:#00699b;}.m{fill:#db6114;}</style><clipPath id="b"><rect class="k" x="1.18" y="15.23" width="1218.15" height="980.92"/></clipPath></defs><g id="a"><g class="i"><rect class="e" x="1.18" y="15.23" width="1218.15" height="980.92"/><path class="j" d="m456.88,18.54v977.61"/><path class="j" d="m456.88,17.44l-5.52,5.52"/><path class="j" d="m456.88,17.44l5.52,5.52"/><path class="j" d="m1.18,667.34h1214.84"/><path class="j" d="m1217.12,667.34l-5.52-5.52"/><path class="j" d="m1217.12,667.34l-5.52,5.52"/><text class="f" transform="translate(11.11 683.89)"><tspan x="0" y="0">–3</tspan></text><text class="g" transform="translate(11.11 683.89)"><tspan x="0" y="0">–3</tspan></text><text class="f" transform="translate(11.11 683.89)"><tspan x="0" y="0">–3</tspan></text><path class="j" d="m18.83,667.34v3.31"/><text class="f" transform="translate(157.86 683.89)"><tspan x="0" y="0">–2</tspan></text><text class="g" transform="translate(157.86 683.89)"><tspan x="0" y="0">–2</tspan></text><text class="f" transform="translate(157.86 683.89)"><tspan x="0" y="0">–2</tspan></text><path class="j" d="m164.48,667.34v3.31"/><text class="f" transform="translate(303.51 683.89)"><tspan x="0" y="0">–1</tspan></text><text class="g" transform="translate(303.51 683.89)"><tspan x="0" y="0">–1</tspan></text><text class="f" transform="translate(303.51 683.89)"><tspan x="0" y="0">–1</tspan></text><path class="j" d="m311.23,667.34v3.31"/><path class="j" d="m456.88,667.34v3.31"/><text class="f" transform="translate(599.22 683.89)"><tspan x="0" y="0">1</tspan></text><text class="g" transform="translate(599.22 683.89)"><tspan x="0" y="0">1</tspan></text><text class="f" transform="translate(599.22 683.89)"><tspan x="0" y="0">1</tspan></text><path class="j" d="m602.53,667.34v3.31"/><text class="f" transform="translate(744.87 683.89)"><tspan x="0" y="0">2</tspan></text><text class="g" transform="translate(744.87 683.89)"><tspan x="0" y="0">2</tspan></text><text class="f" transform="translate(744.87 683.89)"><tspan x="0" y="0">2</tspan></text><path class="j" d="m748.18,667.34v3.31"/><text class="f" transform="translate(891.62 683.89)"><tspan x="0" y="0">3</tspan></text><text class="g" transform="translate(891.62 683.89)"><tspan x="0" y="0">3</tspan></text><text class="f" transform="translate(891.62 683.89)"><tspan x="0" y="0">3</tspan></text><path class="j" d="m894.93,667.34v3.31"/><text class="f" transform="translate(1037.27 683.89)"><tspan x="0" y="0">4</tspan></text><text class="g" transform="translate(1037.27 683.89)"><tspan x="0" y="0">4</tspan></text><text class="f" transform="translate(1037.27 683.89)"><tspan x="0" y="0">4</tspan></text><path class="j" d="m1040.58,667.34v3.31"/><text class="f" transform="translate(1182.92 683.89)"><tspan x="0" y="0">5</tspan></text><text class="g" transform="translate(1182.92 683.89)"><tspan x="0" y="0">5</tspan></text><text class="f" transform="translate(1182.92 683.89)"><tspan x="0" y="0">5</tspan></text><path class="j" d="m1186.23,667.34v3.31"/><path class="j" d="m453.57,984.01h3.31"/><path class="j" d="m453.57,921.12h3.31"/><path class="j" d="m453.57,857.12h3.31"/><path class="j" d="m453.57,794.23h3.31"/><path class="j" d="m453.57,730.23h3.31"/><path class="j" d="m453.57,603.34h3.31"/><path class="j" d="m453.57,540.45h3.31"/><path class="j" d="m453.57,476.45h3.31"/><path class="j" d="m453.57,413.56h3.31"/><path class="j" d="m453.57,349.56h3.31"/><path class="j" d="m453.57,286.67h3.31"/><path class="j" d="m453.57,222.67h3.31"/><path class="j" d="m453.57,159.77h3.31"/><path class="j" d="m453.57,95.78h3.31"/><path class="j" d="m453.57,32.88h3.31"/><text class="f" transform="translate(433.71 989.53)"><tspan x="0" y="0">–5</tspan></text><text class="g" transform="translate(433.71 989.53)"><tspan x="0" y="0">–5</tspan></text><text class="f" transform="translate(433.71 989.53)"><tspan x="0" y="0">–5</tspan></text><text class="f" transform="translate(433.71 925.53)"><tspan x="0" y="0">–4</tspan></text><text class="g" transform="translate(433.71 925.53)"><tspan x="0" y="0">–4</tspan></text><text class="f" transform="translate(433.71 925.53)"><tspan x="0" y="0">–4</tspan></text><text class="f" transform="translate(433.71 862.64)"><tspan x="0" y="0">–3</tspan></text><text class="g" transform="translate(433.71 862.64)"><tspan x="0" y="0">–3</tspan></text><text class="f" transform="translate(433.71 862.64)"><tspan x="0" y="0">–3</tspan></text><text class="f" transform="translate(433.71 798.64)"><tspan x="0" y="0">–2</tspan></text><text class="g" transform="translate(433.71 798.64)"><tspan x="0" y="0">–2</tspan></text><text class="f" transform="translate(433.71 798.64)"><tspan x="0" y="0">–2</tspan></text><text class="f" transform="translate(433.71 735.75)"><tspan x="0" y="0">–1</tspan></text><text class="g" transform="translate(433.71 735.75)"><tspan x="0" y="0">–1</tspan></text><text class="f" transform="translate(433.71 735.75)"><tspan x="0" y="0">–1</tspan></text><text class="f" transform="translate(440.33 608.86)"><tspan x="0" y="0">1</tspan></text><text class="g" transform="translate(440.33 608.86)"><tspan x="0" y="0">1</tspan></text><text class="f" transform="translate(440.33 608.86)"><tspan x="0" y="0">1</tspan></text><text class="f" transform="translate(440.33 544.86)"><tspan x="0" y="0">2</tspan></text><text class="g" transform="translate(440.33 544.86)"><tspan x="0" y="0">2</tspan></text><text class="f" transform="translate(440.33 544.86)"><tspan x="0" y="0">2</tspan></text><text class="f" transform="translate(440.33 481.97)"><tspan x="0" y="0">3</tspan></text><text class="g" transform="translate(440.33 481.97)"><tspan x="0" y="0">3</tspan></text><text class="f" transform="translate(440.33 481.97)"><tspan x="0" y="0">3</tspan></text><text class="f" transform="translate(440.33 417.97)"><tspan x="0" y="0">4</tspan></text><text class="g" transform="translate(440.33 417.97)"><tspan x="0" y="0">4</tspan></text><text class="f" transform="translate(440.33 417.97)"><tspan x="0" y="0">4</tspan></text><text class="f" transform="translate(440.33 355.08)"><tspan x="0" y="0">5</tspan></text><text class="g" transform="translate(440.33 355.08)"><tspan x="0" y="0">5</tspan></text><text class="f" transform="translate(440.33 355.08)"><tspan x="0" y="0">5</tspan></text><text class="f" transform="translate(440.33 291.08)"><tspan x="0" y="0">6</tspan></text><text class="g" transform="translate(440.33 291.08)"><tspan x="0" y="0">6</tspan></text><text class="f" transform="translate(440.33 291.08)"><tspan x="0" y="0">6</tspan></text><text class="f" transform="translate(440.33 228.19)"><tspan x="0" y="0">7</tspan></text><text class="g" transform="translate(440.33 228.19)"><tspan x="0" y="0">7</tspan></text><text class="f" transform="translate(440.33 228.19)"><tspan x="0" y="0">7</tspan></text><text class="f" transform="translate(440.33 164.19)"><tspan x="0" y="0">8</tspan></text><text class="g" transform="translate(440.33 164.19)"><tspan x="0" y="0">8</tspan></text><text class="f" transform="translate(440.33 164.19)"><tspan x="0" y="0">8</tspan></text><text class="f" transform="translate(440.33 101.29)"><tspan x="0" y="0">9</tspan></text><text class="g" transform="translate(440.33 101.29)"><tspan x="0" y="0">9</tspan></text><text class="f" transform="translate(440.33 101.29)"><tspan x="0" y="0">9</tspan></text><text class="f" transform="translate(433.71 37.3)"><tspan x="0" y="0">10</tspan></text><text class="g" transform="translate(433.71 37.3)"><tspan x="0" y="0">10</tspan></text><text class="f" transform="translate(433.71 37.3)"><tspan x="0" y="0">10</tspan></text><text class="f" transform="translate(440.33 683.89)"><tspan x="0" y="0">0</tspan></text><text class="g" transform="translate(440.33 683.89)"><tspan x="0" y="0">0</tspan></text><text class="f" transform="translate(440.33 683.89)"><tspan x="0" y="0">0</tspan></text><path class="h" d="m2.28,687.46v.05h0l1.1.05h0l1.1.05h0l1.1.05h0l1.1.05h0l1.1.05h0l1.1.05h0l1.1.05h0l1.1.05h0l1.1.05h0l1.1.05h0l1.1.05h0l1.1.05h0l1.1.05h0l1.1.05h0l1.1.05h0l1.1.05h0l1.1.05h0l1.1.05h0l1.1.05h0l1.1.05h0l1.1.05h0l1.1.06h0l1.1.06h0l1.1.06h0l1.1.06h0l1.1.06h0l1.1.06h0l1.1.06h0l1.1.06h0l1.1.06h0l1.1.06h0l1.1.06h0l1.1.06h0l1.1.06h0l1.1.06h0l1.1.06h0l1.1.06h0l1.1.06h0l1.1.06h0l1.1.06h0l1.1.06h0l1.1.06h0l1.1.06h0l1.1.06h0l1.1.06h0l1.1.06h0l1.1.06h0l1.1.06h0l1.1.06h0l1.1.06h0l1.1.06h0l1.1.06h0l1.1.06h0l1.1.07h0l1.1.07h0l1.1.07h0l1.1.07h0l1.1.07h0l1.1.07h0l1.1.07h0l1.1.07h0l1.1.07h0l1.1.07h0l1.1.07h0l1.1.07h0l1.1.07h0l1.1.07h0l1.1.07h0l1.1.07h0l1.1.07h0l1.1.07h0l1.1.07h0l1.1.07h0l1.1.07h0l1.1.07h0l1.1.07h0l1.1.07h0l1.1.08h0l1.1.08h0l1.1.08h0l1.1.08h0l1.1.08h0l1.1.08h0l1.1.08h0l1.1.08h0l1.1.08h0l1.1.08h0l1.1.08h0l1.1.08h0l1.1.08h0l1.1.08h0l1.1.08h0l1.1.08h0l1.1.08h0l1.1.08h0l1.1.08h0l1.1.08h0l1.1.08h0l1.1.09h0l1.1.09h0l1.1.09h0l1.1.09h0l1.1.09h0l1.1.09h0l1.1.09h0l1.1.09h0l1.1.09h0l1.1.09h0l1.1.09h0l1.1.09h0l1.1.09h0l1.1.09h0l1.1.09h0l1.1.09h0l1.1.09h0l1.1.1h0l1.1.1h0l1.1.1h0l1.1.1h0l1.1.1h0l1.1.1h0l1.1.1h0l1.1.1h0l1.1.1h0l1.1.1h0l1.1.1h0l1.1.1h0l1.1.1h0l1.1.1h0l1.1.11h0l1.1.11h0l1.1.11h0l1.1.11h0l1.1.11h0l1.1.11h0l1.1.11h0l1.1.11h0l1.1.11h0l1.1.11h0l1.1.11h0l1.1.11h0l1.1.11h0l1.1.12h0l1.1.12h0l1.1.12h0l1.1.12h0l1.1.12h0l1.1.12h0l1.1.12h0l1.1.12h0l1.1.12h0l1.1.12h0l1.1.12h0l1.1.13h0l1.1.13h0l1.1.13h0l1.1.13h0l1.1.13h0l1.1.13h0l1.1.13h0l1.1.13h0l1.1.13h0l1.1.13h0l1.1.14h0l1.1.14h0l1.1.14h0l1.1.14h0l1.1.14h0l1.1.14h0l1.1.14h0l1.1.14h0l1.1.15h0l1.1.15h0l1.1.15h0l1.1.15h0l1.1.15h0l1.1.15h0l1.1.15h0l1.1.15h0l1.1.16h0l1.1.16h0l1.1.16h0l1.1.16h0l1.1.16h0l1.1.16h0l1.1.16h0l1.1.17h0l1.1.17h0l1.1.17h0l1.1.17h0l1.1.17h0l1.1.17h0l1.1.17h0l1.1.18h0l1.1.18h0l1.1.18h0l1.1.18h0l1.1.18h0l1.1.18h0l1.1.19h0l1.1.19h0l1.1.19h0l1.1.19h0l1.1.19h0l1.1.2h0l1.1.2h0l1.1.2h0l1.1.2h0l1.1.2h0l1.1.2h0l1.1.21h0l1.1.21h0l1.1.21h0l1.1.21h0l1.1.22h0l1.1.22h0l1.1.22h0l1.1.22h0l1.1.22h0l1.1.23h0l1.1.23h0l1.1.23h0l1.1.23h0l1.1.24h0l1.1.24h0l1.1.24h0l1.1.24h0l1.1.25h0l1.1.25h0l1.1.25h0l1.1.26h0l1.1.26h0l1.1.26h0l1.1.26h0l1.1.27h0l1.1.27h0l1.1.27h0l1.1.28h0l1.1.28h0l1.1.28h0l1.1.29h0l1.1.29h0l1.1.29h0l1.1.3h0l1.1.3h0l1.1.3h0l1.1.31h0l1.1.31h0l1.1.31h0l1.1.32h0l1.1.32h0l1.1.33h0l1.1.33h0l1.1.33h0l1.1.34h0l1.1.34h0l1.1.35h0l1.1.35h0l1.1.36h0l1.1.36h0l1.1.37h0l1.1.37h0l1.1.38h0l1.1.38h0l1.1.39h0l1.1.39h0l1.1.4h0l1.1.4h0l1.1.41h0l1.1.41h0l1.1.42h0l1.1.43h0l1.1.43h0l1.1.44h0l1.1.44h0l1.1.45h0l1.1.46h0l1.1.46h0l1.1.47h0l1.1.48h0l1.1.49h0l1.1.49h0l1.1.5h0l1.1.51h0l1.1.52h0l1.1.53h0l1.1.53h0l1.1.54h0l1.1.55h0l1.1.56h0l1.1.57h0l1.1.58h0l1.1.59h0l1.1.6h0l1.1.61h0l1.1.62h0l1.1.63h0l1.1.64h0l1.1.65h0l1.1.66h0l1.1.68h0l1.1.69h0l1.1.7h0l1.1.71h0l1.1.73h0l1.1.74h0l1.1.76h0l1.1.77h0l1.1.79h0l1.1.8h0l1.1.82h0l1.1.83h0l1.1.85h0l1.1.87h0l1.1.88h0l1.1.9h0l1.1.92h0l1.1.94h0l1.1.96h0l1.1.98h0l1.1,1h0l1.1,1.03h0l1.1,1.05h0l1.1,1.07h0l1.1,1.1h0l1.1,1.12h0l1.1,1.15h0l1.1,1.18h0l1.1,1.21h0l1.1,1.24h0l1.1,1.27h0l1.1,1.3h0l1.1,1.33h0l1.1,1.37h0l1.1,1.4h0l1.1,1.44h0l1.1,1.48h0l1.1,1.52h0l1.1,1.56h0l1.1,1.6h0l1.1,1.65h0l1.1,1.69h0l1.1,1.74h0l1.1,1.79h0l1.1,1.85h0l1.1,1.9h0l1.1,1.96h0l1.1,2.02h0l1.1,2.09h0l1.1,2.16h0l1.1,2.23h0l1.1,2.3h0l1.1,2.38h0l1.1,2.46h0l1.1,2.55h0l1.1,2.64h0l1.1,2.74h0l1.1,2.84h0l1.1,2.95h0l1.1,3.06h0l1.1,3.18h0l1.1,3.31h0l1.1,3.44h0l1.1,3.59h0l1.1,3.74h0l1.1,3.9h0l1.1,4.07h0l1.1,4.26h0l1.1,4.46h0l1.1,4.67h0l1.1,4.9h0l1.1,5.15h0l1.1,5.41h0l1.1,5.7h0l1.1,6.01h0l1.1,6.34h0l1.1,6.7h0l1.1,7.1h0l1.1,7.53h0l1.1,8h0l1.1,8.52h0l1.1,9.09h0l1.1,9.72h0l1.1,10.42h0l1.1,11.2h0l1.1,12.06h0l1.1,13.03h0l.48,6.1M456.05.88h14.61l.56,26.55h0l1.1,45.31h0l1.1,39.32h0l1.1,34.44h0l1.1,30.41h0l1.1,27.06h0l1.1,24.23h0l1.1,21.82h0l1.1,19.75h0l1.1,17.97h0l1.1,16.41h0l1.1,15.05h0l1.1,13.85h0l1.1,12.79h0l1.1,11.85h0l1.1,11.01h0l1.1,10.25h0l1.1,9.57h0l1.1,8.95h0l1.1,8.4h0l1.1,7.89h0l1.1,7.43h0l1.1,7h0l1.1,6.62h0l1.1,6.26h0l1.1,5.93h0l1.1,5.63h0l1.1,5.35h0l1.1,5.09h0l1.1,4.85h0l1.1,4.62h0l1.1,4.41h0l1.1,4.22h0l1.1,4.03h0l1.1,3.86h0l1.1,3.7h0l1.1,3.55h0l1.1,3.41h0l1.1,3.28h0l1.1,3.15h0l1.1,3.03h0l1.1,2.92h0l1.1,2.81h0l1.1,2.71h0l1.1,2.62h0l1.1,2.53h0l1.1,2.44h0l1.1,2.36h0l1.1,2.28h0l1.1,2.21h0l1.1,2.14h0l1.1,2.07h0l1.1,2.01h0l1.1,1.95h0l1.1,1.89h0l1.1,1.84h0l1.1,1.78h0l1.1,1.73h0l1.1,1.68h0l1.1,1.64h0l1.1,1.59h0l1.1,1.55h0l1.1,1.51h0l1.1,1.47h0l1.1,1.43h0l1.1,1.39h0l1.1,1.36h0l1.1,1.32h0l1.1,1.29h0l1.1,1.26h0l1.1,1.23h0l1.1,1.2h0l1.1,1.17h0l1.1,1.14h0l1.1,1.12h0l1.1,1.09h0l1.1,1.07h0l1.1,1.04h0l1.1,1.02h0l1.1,1h0l1.1.98h0l1.1.96h0l1.1.94h0l1.1.92h0l1.1.9h0l1.1.88h0l1.1.86h0l1.1.85h0l1.1.83h0l1.1.81h0l1.1.8h0l1.1.78h0l1.1.77h0l1.1.75h0l1.1.74h0l1.1.72h0l1.1.71h0l1.1.7h0l1.1.69h0l1.1.67h0l1.1.66h0l1.1.65h0l1.1.64h0l1.1.63h0l1.1.62h0l1.1.61h0l1.1.6h0l1.1.59h0l1.1.58h0l1.1.57h0l1.1.56h0l1.1.55h0l1.1.54h0l1.1.53h0l1.1.52h0l1.1.52h0l1.1.51h0l1.1.5h0l1.1.49h0l1.1.48h0l1.1.48h0l1.1.47h0l1.1.46h0l1.1.46h0l1.1.45h0l1.1.44h0l1.1.44h0l1.1.43h0l1.1.42h0l1.1.42h0l1.1.41h0l1.1.41h0l1.1.4h0l1.1.4h0l1.1.39h0l1.1.39h0l1.1.38h0l1.1.37h0l1.1.37h0l1.1.37h0l1.1.36h0l1.1.36h0l1.1.35h0l1.1.35h0l1.1.34h0l1.1.34h0l1.1.33h0l1.1.33h0l1.1.33h0l1.1.32h0l1.1.32h0l1.1.31h0l1.1.31h0l1.1.31h0l1.1.3h0l1.1.3h0l1.1.3h0l1.1.29h0l1.1.29h0l1.1.28h0l1.1.28h0l1.1.28h0l1.1.28h0l1.1.27h0l1.1.27h0l1.1.27h0l1.1.26h0l1.1.26h0l1.1.26h0l1.1.25h0l1.1.25h0l1.1.25h0l1.1.25h0l1.1.24h0l1.1.24h0l1.1.24h0l1.1.24h0l1.1.23h0l1.1.23h0l1.1.23h0l1.1.23h0l1.1.22h0l1.1.22h0l1.1.22h0l1.1.22h0l1.1.21h0l1.1.21h0l1.1.21h0l1.1.21h0l1.1.21h0l1.1.2h0l1.1.2h0l1.1.2h0l1.1.2h0l1.1.2h0l1.1.19h0l1.1.19h0l1.1.19h0l1.1.19h0l1.1.19h0l1.1.19h0l1.1.18h0l1.1.18h0l1.1.18h0l1.1.18h0l1.1.18h0l1.1.18h0l1.1.17h0l1.1.17h0l1.1.17h0l1.1.17h0l1.1.17h0l1.1.17h0l1.1.16h0l1.1.16h0l1.1.16h0l1.1.16h0l1.1.16h0l1.1.16h0l1.1.16h0l1.1.16h0l1.1.15h0l1.1.15h0l1.1.15h0l1.1.15h0l1.1.15h0l1.1.15h0l1.1.15h0l1.1.14h0l1.1.14h0l1.1.14h0l1.1.14h0l1.1.14h0l1.1.14h0l1.1.14h0l1.1.14h0l1.1.14h0l1.1.13h0l1.1.13h0l1.1.13h0l1.1.13h0l1.1.13h0l1.1.13h0l1.1.13h0l1.1.13h0l1.1.13h0l1.1.13h0l1.1.12h0l1.1.12h0l1.1.12h0l1.1.12h0l1.1.12h0l1.1.12h0l1.1.12h0l1.1.12h0l1.1.12h0l1.1.12h0l1.1.12h0l1.1.11h0l1.1.11h0l1.1.11h0l1.1.11h0l1.1.11h0l1.1.11h0l1.1.11h0l1.1.11h0l1.1.11h0l1.1.11h0l1.1.11h0l1.1.11h0l1.1.11h0l1.1.1h0l1.1.1h0l1.1.1h0l1.1.1h0l1.1.1h0l1.1.1h0l1.1.1h0l1.1.1h0l1.1.1h0l1.1.1h0l1.1.1h0l1.1.1h0l1.1.1h0l1.1.1h0l1.1.09h0l1.1.09h0l1.1.09h0l1.1.09h0l1.1.09h0l1.1.09h0l1.1.09h0l1.1.09h0l1.1.09h0l1.1.09h0l1.1.09h0l1.1.09h0l1.1.09h0l1.1.09h0l1.1.09h0l1.1.09h0l1.1.09h0l1.1.08h0l1.1.08h0l1.1.08h0l1.1.08h0l1.1.08h0l1.1.08h0l1.1.08h0l1.1.08h0l1.1.08h0l1.1.08h0l1.1.08h0l1.1.08h0l1.1.08h0l1.1.08h0l1.1.08h0l1.1.08h0l1.1.08h0l1.1.08h0l1.1.08h0l1.1.08h0l1.1.07h0l1.1.07h0l1.1.07h0l1.1.07h0l1.1.07h0l1.1.07h0l1.1.07h0l1.1.07h0l1.1.07h0l1.1.07h0l1.1.07h0l1.1.07h0l1.1.07h0l1.1.07h0l1.1.07h0l1.1.07h0l1.1.07h0l1.1.07h0l1.1.07h0l1.1.07h0l1.1.07h0l1.1.07h0l1.1.07h0l1.1.07h0l1.1.07h0l1.1.06h0l1.1.06h0l1.1.06h0l1.1.06h0l1.1.06h0l1.1.06h0l1.1.06h0l1.1.06h0l1.1.06h0l1.1.06h0l1.1.06h0l1.1.06h0l1.1.06h0l1.1.06h0l1.1.06h0l1.1.06h0l1.1.06h0l1.1.06h0l1.1.06h0l1.1.06h0l1.1.06h0l1.1.06h0l1.1.06h0l1.1.06h0l1.1.06h0l1.1.06h0l1.1.06h0l1.1.06h0l1.1.06h0l1.1.06h0l1.1.06h0l1.1.06h0l1.1.05h0l1.1.05h0l1.1.05h0l1.1.05h0l1.1.05h0l1.1.05h0l1.1.05h0l1.1.05h0l1.1.05h0l1.1.05h0l1.1.05h0l1.1.05h0l1.1.05h0l1.1.05h0l1.1.05h0l1.1.05h0l1.1.05h0l1.1.05h0l1.1.05h0l1.1.05h0l1.1.05h0l1.1.05h0l1.1.05h0l1.1.05h0l1.1.05h0l1.1.05h0l1.1.05h0l1.1.05h0l1.1.05h0l1.1.05h0l1.1.05h0l1.1.05h0l1.1.05h0l1.1.05h0l1.1.05h0l1.1.05h0l1.1.05h0l1.1.05h0l1.1.05h0l1.1.05h0l1.1.05h0l1.1.04h0l1.1.04h0l1.1.04h0l1.1.04h0l1.1.04h0l1.1.04h0l1.1.04h0l1.1.04h0l1.1.04h0l1.1.04h0l1.1.04h0l1.1.04h0l1.1.04h0l1.1.04h0l1.1.04h0l1.1.04h0l1.1.04h0l1.1.04h0l1.1.04h0l1.1.04h0l1.1.04h0l1.1.04h0l1.1.04h0l1.1.04h0l1.1.04h0l1.1.04h0l1.1.04h0l1.1.04h0l1.1.04h0l1.1.04h0l1.1.04h0l1.1.04h0l1.1.04h0l1.1.04h0l1.1.04h0l1.1.04h0l1.1.04h0l1.1.04h0l1.1.04h0l1.1.04h0l1.1.04h0l1.1.04h0l1.1.04h0l1.1.04h0l1.1.04h0l1.1.04h0l1.1.04h0l1.1.04h0l1.1.04h0l1.1.04h0l1.1.04h0l1.1.04h0l1.1.04h0l1.1.04h0l1.1.04h0l1.1.04h0l1.1.04h0l1.1.04h0l1.1.03h0l1.1.03h0l1.1.03h0l1.1.03h0l1.1.03h0l1.1.03h0l1.1.03h0l1.1.03h0l1.1.03h0l1.1.03h0l1.1.03h0l1.1.03h0l1.1.03h0l1.1.03h0l1.1.03h0l1.1.03h0l1.1.03h0l1.1.03h0l1.1.03h0l1.1.03h0l1.1.03h0l1.1.03h0l1.1.03h0l1.1.03h0l1.1.03h0l1.1.03h0l1.1.03h0l1.1.03h0l1.1.03h0l1.1.03h0l1.1.03h0l1.1.03h0l1.1.03h0l1.1.03h0l1.1.03h0l1.1.03h0l1.1.03h0l1.1.03h0l1.1.03h0l1.1.03h0l1.1.03h0l1.1.03h0l1.1.03h0l1.1.03h0l1.1.03h0l1.1.03h0l1.1.03h0l1.1.03h0l1.1.03h0l1.1.03h0l1.1.03h0l1.1.03h0l1.1.03h0l1.1.03h0l1.1.03h0l1.1.03h0l1.1.03h0l1.1.03h0l1.1.03h0l1.1.03h0l1.1.03h0l1.1.03h0l1.1.03h0l1.1.03h0l1.1.03h0l1.1.03h0l1.1.03h0l1.1.03h0l1.1.03h0l1.1.03h0l1.1.03h0l1.1.03h0l1.1.03h0l1.1.03h0l1.1.03h0l1.1.03h0l1.1.03h0l1.1.03h0l1.1.03h0l1.1.03h0l1.1.03h0l1.1.03h0l1.1.03h0l1.1.03h0l1.1.03h0l1.1.03h0l1.1.03h0l1.1.03h0l1.1.03h0l1.1.02h0l1.1.02h0l1.1.02h0l1.1.02h0l1.1.02h0l1.1.02h0l1.1.02h0l1.1.02h0l1.1.02h0l1.1.02h0l1.1.02h0l1.1.02h0l1.1.02h0l1.1.02h0l1.1.02h0l1.1.02h0l1.1.02h0l1.1.02h0l1.1.02h0l1.1.02h0l1.1.02h0l1.1.02h0l1.1.02h0l1.1.02h0l1.1.02h0l1.1.02h0l1.1.02h0l1.1.02h0l1.1.02h0l1.1.02h0l1.1.02h0l1.1.02h0l1.1.02h0l1.1.02h0l1.1.02h0l1.1.02h0l1.1.02h0l1.1.02h0l1.1.02h0l1.1.02h0l1.1.02h0l1.1.02h0l1.1.02h0l1.1.02h0l1.1.02h0l1.1.02h0l1.1.02h0l1.1.02h0l1.1.02h0l1.1.02h0l1.1.02h0l1.1.02h0l1.1.02h0l1.1.02h0l1.1.02h0l1.1.02h0l1.1.02h0l1.1.02h0l1.1.02h0l1.1.02h0l1.1.02h0l1.1.02h0l1.1.02h0l1.1.02h0l1.1.02h0l1.1.02h0l1.1.02h0l1.1.02h0l1.1.02h0l1.1.02h0l1.1.02h0l1.1.02h0l1.1.02h0l1.1.02h0l1.1.02h0l1.1.02h0l1.1.02h0l1.1.02h0l1.1.02h0l1.1.02h0l1.1.02h0l1.1.02h0l1.1.02h0l1.1.02h0l1.1.02h0l1.1.02h0l1.1.02h0l1.1.02h0l1.1.02h0l1.1.02h0l1.1.02h0l1.1.02h0l1.1.02h0l1.1.02h0l1.1.02h0l1.1.02h0l1.1.02h0l1.1.02h0l1.1.02h0l1.1.02h0l1.1.02h0l1.1.02h0l1.1.02h0l1.1.02h0l1.1.02h0l1.1.02h0l1.1.02h0l1.1.02h0l1.1.02h0l1.1.02h0l1.1.02h0l1.1.02"/><path class="m" d="m463.37,667.14c0,3.66-2.96,6.62-6.62,6.62s-6.62-2.96-6.62-6.62,2.96-6.62,6.62-6.62,6.62,2.96,6.62,6.62Z"/></g></g><g id="c"><path class="l" d="m-2-1.77v1013.91h1237V-1.77H-2Zm1220,976.91c0,11.05-8.95,20-20,20H35c-11.05,0-20-8.95-20-20V35.23c0-11.05,8.95-20,20-20h1163c11.05,0,20,8.95,20,20v939.91Z"/></g></svg>