<?xml version="1.0" encoding="UTF-8"?><svg xmlns="http://www.w3.org/2000/svg" xmlns:xlink="http://www.w3.org/1999/xlink" viewBox="0 0 1232.74 1010.14"><defs><style>.e{fill:#fff;}.f{clip-path:url(#b);}.f,.g,.h,.i,.j{fill:none;}.g{stroke:#252525;stroke-miterlimit:10;stroke-width:2px;}.k{fill:#00699b;}.l{fill:#252525;}.l,.i{font-family:Helvetica-Bold, Helvetica;font-size:13.22px;font-weight:700;isolation:isolate;}.i{stroke:#fff;stroke-linejoin:bevel;stroke-width:3px;}.j{stroke:rgba(21,101,192,.8);stroke-linecap:round;stroke-linejoin:round;stroke-width:7px;}</style><clipPath id="b"><rect class="h" y="15.4" width="1216.19" height="979.34"/></clipPath></defs><g id="a"><g class="f"><rect class="e" y="15.4" width="1216.19" height="979.34"/><path class="g" d="m606.99,18.7v976.04"/><path class="g" d="m606.99,17.6l-5.51,5.51"/><path class="g" d="m606.99,17.6l5.51,5.51"/><path class="g" d="m0,506.72h1212.89"/><path class="g" d="m1213.99,506.72l-5.51-5.51"/><path class="g" d="m1213.99,506.72l-5.51,5.51"/><text class="l" transform="translate(101.35 524.35)"><tspan x="0" y="0">–4</tspan></text><text class="i" transform="translate(101.35 524.35)"><tspan x="0" y="0">–4</tspan></text><text class="l" transform="translate(101.35 524.35)"><tspan x="0" y="0">–4</tspan></text><path class="g" d="m109.06,506.72v3.3"/><text class="l" transform="translate(350.32 524.35)"><tspan x="0" y="0">–2</tspan></text><text class="i" transform="translate(350.32 524.35)"><tspan x="0" y="0">–2</tspan></text><text class="l" transform="translate(350.32 524.35)"><tspan x="0" y="0">–2</tspan></text><path class="g" d="m358.03,506.72v3.3"/><path class="g" d="m606.99,506.72v3.3"/><text class="l" transform="translate(852.66 524.35)"><tspan x="0" y="0">2</tspan></text><text class="i" transform="translate(852.66 524.35)"><tspan x="0" y="0">2</tspan></text><text class="l" transform="translate(852.66 524.35)"><tspan x="0" y="0">2</tspan></text><path class="g" d="m855.96,506.72v3.3"/><text class="l" transform="translate(1101.62 524.35)"><tspan x="0" y="0">4</tspan></text><text class="i" transform="translate(1101.62 524.35)"><tspan x="0" y="0">4</tspan></text><text class="l" transform="translate(1101.62 524.35)"><tspan x="0" y="0">4</tspan></text><path class="g" d="m1104.93,506.72v3.3"/><path class="g" d="m603.69,881.28h3.3"/><path class="g" d="m603.69,756.79h3.3"/><path class="g" d="m603.69,631.21h3.3"/><path class="g" d="m603.69,382.24h3.3"/><path class="g" d="m603.69,257.76h3.3"/><path class="g" d="m603.69,133.27h3.3"/><text class="l" transform="translate(583.86 885.68)"><tspan x="0" y="0">–6</tspan></text><text class="i" transform="translate(583.86 885.68)"><tspan x="0" y="0">–6</tspan></text><text class="l" transform="translate(583.86 885.68)"><tspan x="0" y="0">–6</tspan></text><text class="l" transform="translate(583.86 761.2)"><tspan x="0" y="0">–4</tspan></text><text class="i" transform="translate(583.86 761.2)"><tspan x="0" y="0">–4</tspan></text><text class="l" transform="translate(583.86 761.2)"><tspan x="0" y="0">–4</tspan></text><text class="l" transform="translate(583.86 636.71)"><tspan x="0" y="0">–2</tspan></text><text class="i" transform="translate(583.86 636.71)"><tspan x="0" y="0">–2</tspan></text><text class="l" transform="translate(583.86 636.71)"><tspan x="0" y="0">–2</tspan></text><text class="l" transform="translate(590.47 387.75)"><tspan x="0" y="0">2</tspan></text><text class="i" transform="translate(590.47 387.75)"><tspan x="0" y="0">2</tspan></text><text class="l" transform="translate(590.47 387.75)"><tspan x="0" y="0">2</tspan></text><text class="l" transform="translate(590.47 263.26)"><tspan x="0" y="0">4</tspan></text><text class="i" transform="translate(590.47 263.26)"><tspan x="0" y="0">4</tspan></text><text class="l" transform="translate(590.47 263.26)"><tspan x="0" y="0">4</tspan></text><text class="l" transform="translate(590.47 138.78)"><tspan x="0" y="0">6</tspan></text><text class="i" transform="translate(590.47 138.78)"><tspan x="0" y="0">6</tspan></text><text class="l" transform="translate(590.47 138.78)"><tspan x="0" y="0">6</tspan></text><text class="l" transform="translate(590.47 524.35)"><tspan x="0" y="0">0</tspan></text><text class="i" transform="translate(590.47 524.35)"><tspan x="0" y="0">0</tspan></text><text class="l" transform="translate(590.47 524.35)"><tspan x="0" y="0">0</tspan></text><path class="j" d="m178.75,1006.88l.59-6.68.59-6.65.59-6.62.59-6.59.59-6.57.59-6.54.59-6.51.59-6.48.59-6.45.59-6.42.59-6.39.59-6.36.59-6.34.59-6.31.59-6.28.59-6.25.59-6.22.59-6.19.59-6.17.59-6.14.59-6.11.59-6.08.59-6.05.59-6.03.59-6,.59-5.97.59-5.94.59-5.92.59-5.89.59-5.86.59-5.83.59-5.81.59-5.78.59-5.75.59-5.72.59-5.7.59-5.67.59-5.64.59-5.61.59-5.59.59-5.56.59-5.53.59-5.51,1.19-10.93,1.19-10.83,1.19-10.72,1.19-10.61,1.19-10.51,1.19-10.4,1.19-10.3,1.19-10.19,1.19-10.09,1.19-9.99,1.19-9.88,1.19-9.78,1.19-9.68,1.19-9.58,1.19-9.47,1.19-9.37,1.19-9.27,1.19-9.17,1.19-9.07,1.19-8.97,1.19-8.87,1.19-8.78,1.19-8.68,1.19-8.58,1.19-8.48,1.19-8.39,1.19-8.29,1.19-8.19,1.19-8.1,1.19-8,1.19-7.91,1.19-7.81,1.19-7.72,1.19-7.63,1.19-7.53,1.19-7.44,1.19-7.35,1.19-7.26,1.19-7.16,1.19-7.07,1.19-6.98,1.19-6.89,1.19-6.8,1.19-6.71,1.19-6.62,1.19-6.54,1.19-6.45,1.19-6.36,1.19-6.27,1.19-6.19,1.19-6.1,1.19-6.01,1.19-5.93,1.19-5.84,1.19-5.76,1.19-5.67,1.19-5.59,1.19-5.51,2.38-10.76,2.38-10.43,2.38-10.11,2.38-9.78,2.38-9.46,2.38-9.15,2.38-8.84,2.38-8.53,2.38-8.22,2.38-7.92,2.38-7.62,2.38-7.32,2.38-7.03,2.38-6.74,2.38-6.46,2.38-6.17,2.38-5.89,4.75-10.96,4.75-9.89,4.75-8.84,4.75-7.81,4.75-6.82,4.75-5.85,4.75-4.9,4.75-3.99,4.75-3.1,4.75-2.23,4.75-1.4,4.75-.59,4.75.2,4.75.95,4.75,1.68,4.75,2.39,4.75,3.06,4.75,3.71,4.75,4.34,4.75,4.93,4.75,5.5,4.75,6.05,4.75,6.56,4.75,7.05,4.75,7.52,4.75,7.95,4.75,8.36,4.75,8.75,4.75,9.1,4.75,9.43,4.75,9.74,4.75,10.01,4.75,10.26,4.75,10.49,4.75,10.68,4.75,10.85,4.75,10.99,2.38,5.54,2.38,5.57,2.38,5.59,2.38,5.61,2.38,5.63,2.38,5.64,2.38,5.65,2.38,5.65,2.38,5.66,2.38,5.65,2.38,5.65,2.38,5.64,2.38,5.63,2.38,5.62,2.38,5.6,2.38,5.58,2.38,5.55,2.38,5.53,4.75,10.96,4.75,10.81,4.75,10.63,4.75,10.43,4.75,10.2,4.75,9.94,4.75,9.66,4.75,9.35,4.75,9.01,4.75,8.64,4.75,8.25,4.75,7.84,4.75,7.39,4.75,6.92,4.75,6.43,4.75,5.9,4.75,5.35,4.75,4.77,4.75,4.17,4.75,3.54,4.75,2.88,4.75,2.2,4.75,1.49,4.75.75h4.75s4.75-.82,4.75-.82l4.75-1.62,4.75-2.47,4.75-3.34,4.75-4.23,4.75-5.16,4.75-6.11,4.75-7.09,4.75-8.09,4.75-9.12,4.75-10.18,2.38-5.49,2.38-5.77,2.38-6.05,2.38-6.33,2.38-6.61,2.38-6.9,2.38-7.19,2.38-7.48,2.38-7.78,2.38-8.08,2.38-8.39,2.38-8.7,2.38-9.01,2.38-9.32,2.38-9.64,2.38-9.96,2.38-10.28,2.38-10.61,2.38-10.94,1.19-5.6,1.19-5.68,1.19-5.76,1.19-5.85,1.19-5.93,1.19-6.02,1.19-6.11,1.19-6.19,1.19-6.28,1.19-6.37,1.19-6.46,1.19-6.54,1.19-6.63,1.19-6.72,1.19-6.81,1.19-6.9,1.19-6.99,1.19-7.08,1.19-7.17,1.19-7.26,1.19-7.36,1.19-7.45,1.19-7.54,1.19-7.63,1.19-7.73,1.19-7.82,1.19-7.92,1.19-8.01,1.19-8.11,1.19-8.2,1.19-8.3,1.19-8.39,1.19-8.49,1.19-8.59,1.19-8.69,1.19-8.78,1.19-8.88,1.19-8.98,1.19-9.08,1.19-9.18"/></g></g><g id="c"><path class="k" d="m-2-1.77v1013.91h1237V-1.77H-2Zm1220,976.91c0,11.05-8.95,20-20,20H35c-11.05,0-20-8.95-20-20V35.23c0-11.05,8.95-20,20-20h1163c11.05,0,20,8.95,20,20v939.91Z"/></g></svg>