<?xml version="1.0" encoding="UTF-8"?><svg xmlns="http://www.w3.org/2000/svg" xmlns:xlink="http://www.w3.org/1999/xlink" viewBox="0 0 1232.74 1010.14"><defs><style>.e,.f{fill:#fff;}.g{stroke:#fff;stroke-linejoin:bevel;stroke-width:3px;}.g,.h{font-family:Helvetica-Bold, Helvetica;font-size:13.24px;font-weight:700;isolation:isolate;}.g,.i,.j,.k,.l{fill:none;}.h{fill:#252525;}.i{clip-path:url(#b);}.m{fill:blue;}.f{stroke:#4c4d4d;stroke-linecap:square;stroke-width:2.5px;}.f,.j{stroke-miterlimit:10;}.j{stroke:#252525;stroke-width:2px;}.n{fill:#00699b;}.k{stroke:rgba(219,97,20,.7);stroke-linecap:round;stroke-linejoin:round;stroke-width:7px;}</style><clipPath id="b"><rect class="l" y="15.23" width="1218" height="980.8"/></clipPath></defs><g id="a"><g class="i"><rect class="e" y="15.23" width="1218" height="980.8"/><path class="j" d="m604.59,18.54v977.49"/><path class="j" d="m604.59,17.44l-5.52,5.52"/><path class="j" d="m604.59,17.44l5.52,5.52"/><path class="j" d="m0,634.16h1214.69"/><path class="j" d="m1215.79,634.16l-5.52-5.52"/><path class="j" d="m1215.79,634.16l-5.52,5.52"/><text class="h" transform="translate(36.41 650.71)"><tspan x="0" y="0">–5</tspan></text><text class="g" transform="translate(36.41 650.71)"><tspan x="0" y="0">–5</tspan></text><text class="h" transform="translate(36.41 650.71)"><tspan x="0" y="0">–5</tspan></text><path class="j" d="m44.13,634.16v3.31"/><text class="h" transform="translate(148.94 650.71)"><tspan x="0" y="0">–4</tspan></text><text class="g" transform="translate(148.94 650.71)"><tspan x="0" y="0">–4</tspan></text><text class="h" transform="translate(148.94 650.71)"><tspan x="0" y="0">–4</tspan></text><path class="j" d="m155.56,634.16v3.31"/><text class="h" transform="translate(260.37 650.71)"><tspan x="0" y="0">–3</tspan></text><text class="g" transform="translate(260.37 650.71)"><tspan x="0" y="0">–3</tspan></text><text class="h" transform="translate(260.37 650.71)"><tspan x="0" y="0">–3</tspan></text><path class="j" d="m268.09,634.16v3.31"/><text class="h" transform="translate(372.9 650.71)"><tspan x="0" y="0">–2</tspan></text><text class="g" transform="translate(372.9 650.71)"><tspan x="0" y="0">–2</tspan></text><text class="h" transform="translate(372.9 650.71)"><tspan x="0" y="0">–2</tspan></text><path class="j" d="m380.62,634.16v3.31"/><text class="h" transform="translate(484.33 650.71)"><tspan x="0" y="0">–1</tspan></text><text class="g" transform="translate(484.33 650.71)"><tspan x="0" y="0">–1</tspan></text><text class="h" transform="translate(484.33 650.71)"><tspan x="0" y="0">–1</tspan></text><path class="j" d="m492.05,634.16v3.31"/><path class="j" d="m604.59,634.16v3.31"/><text class="h" transform="translate(712.71 650.71)"><tspan x="0" y="0">1</tspan></text><text class="g" transform="translate(712.71 650.71)"><tspan x="0" y="0">1</tspan></text><text class="h" transform="translate(712.71 650.71)"><tspan x="0" y="0">1</tspan></text><path class="j" d="m716.02,634.16v3.31"/><text class="h" transform="translate(825.24 650.71)"><tspan x="0" y="0">2</tspan></text><text class="g" transform="translate(825.24 650.71)"><tspan x="0" y="0">2</tspan></text><text class="h" transform="translate(825.24 650.71)"><tspan x="0" y="0">2</tspan></text><path class="j" d="m828.55,634.16v3.31"/><text class="h" transform="translate(937.77 650.71)"><tspan x="0" y="0">3</tspan></text><text class="g" transform="translate(937.77 650.71)"><tspan x="0" y="0">3</tspan></text><text class="h" transform="translate(937.77 650.71)"><tspan x="0" y="0">3</tspan></text><path class="j" d="m941.08,634.16v3.31"/><text class="h" transform="translate(1049.2 650.71)"><tspan x="0" y="0">4</tspan></text><text class="g" transform="translate(1049.2 650.71)"><tspan x="0" y="0">4</tspan></text><text class="h" transform="translate(1049.2 650.71)"><tspan x="0" y="0">4</tspan></text><path class="j" d="m1052.51,634.16v3.31"/><text class="h" transform="translate(1161.73 650.71)"><tspan x="0" y="0">5</tspan></text><text class="g" transform="translate(1161.73 650.71)"><tspan x="0" y="0">5</tspan></text><text class="h" transform="translate(1161.73 650.71)"><tspan x="0" y="0">5</tspan></text><path class="j" d="m1165.04,634.16v3.31"/><path class="j" d="m601.28,970.65h3.31"/><path class="j" d="m601.28,914.39h3.31"/><path class="j" d="m601.28,858.12h3.31"/><path class="j" d="m601.28,801.85h3.31"/><path class="j" d="m601.28,745.59h3.31"/><path class="j" d="m601.28,690.42h3.31"/><path class="j" d="m601.28,577.89h3.31"/><path class="j" d="m601.28,521.63h3.31"/><path class="j" d="m601.28,465.36h3.31"/><path class="j" d="m601.28,409.09h3.31"/><path class="j" d="m601.28,353.93h3.31"/><path class="j" d="m601.28,297.66h3.31"/><path class="j" d="m601.28,241.4h3.31"/><path class="j" d="m601.28,185.13h3.31"/><path class="j" d="m601.28,128.86h3.31"/><path class="j" d="m601.28,73.7h3.31"/><text class="h" transform="translate(581.42 975.07)"><tspan x="0" y="0">–6</tspan></text><text class="g" transform="translate(581.42 975.07)"><tspan x="0" y="0">–6</tspan></text><text class="h" transform="translate(581.42 975.07)"><tspan x="0" y="0">–6</tspan></text><text class="h" transform="translate(581.42 918.8)"><tspan x="0" y="0">–5</tspan></text><text class="g" transform="translate(581.42 918.8)"><tspan x="0" y="0">–5</tspan></text><text class="h" transform="translate(581.42 918.8)"><tspan x="0" y="0">–5</tspan></text><text class="h" transform="translate(581.42 862.53)"><tspan x="0" y="0">–4</tspan></text><text class="g" transform="translate(581.42 862.53)"><tspan x="0" y="0">–4</tspan></text><text class="h" transform="translate(581.42 862.53)"><tspan x="0" y="0">–4</tspan></text><text class="h" transform="translate(581.42 807.37)"><tspan x="0" y="0">–3</tspan></text><text class="g" transform="translate(581.42 807.37)"><tspan x="0" y="0">–3</tspan></text><text class="h" transform="translate(581.42 807.37)"><tspan x="0" y="0">–3</tspan></text><text class="h" transform="translate(581.42 751.1)"><tspan x="0" y="0">–2</tspan></text><text class="g" transform="translate(581.42 751.1)"><tspan x="0" y="0">–2</tspan></text><text class="h" transform="translate(581.42 751.1)"><tspan x="0" y="0">–2</tspan></text><text class="h" transform="translate(581.42 694.84)"><tspan x="0" y="0">–1</tspan></text><text class="g" transform="translate(581.42 694.84)"><tspan x="0" y="0">–1</tspan></text><text class="h" transform="translate(581.42 694.84)"><tspan x="0" y="0">–1</tspan></text><text class="h" transform="translate(588.04 582.31)"><tspan x="0" y="0">1</tspan></text><text class="g" transform="translate(588.04 582.31)"><tspan x="0" y="0">1</tspan></text><text class="h" transform="translate(588.04 582.31)"><tspan x="0" y="0">1</tspan></text><text class="h" transform="translate(588.04 527.14)"><tspan x="0" y="0">2</tspan></text><text class="g" transform="translate(588.04 527.14)"><tspan x="0" y="0">2</tspan></text><text class="h" transform="translate(588.04 527.14)"><tspan x="0" y="0">2</tspan></text><text class="h" transform="translate(588.04 470.88)"><tspan x="0" y="0">3</tspan></text><text class="g" transform="translate(588.04 470.88)"><tspan x="0" y="0">3</tspan></text><text class="h" transform="translate(588.04 470.88)"><tspan x="0" y="0">3</tspan></text><text class="h" transform="translate(588.04 414.61)"><tspan x="0" y="0">4</tspan></text><text class="g" transform="translate(588.04 414.61)"><tspan x="0" y="0">4</tspan></text><text class="h" transform="translate(588.04 414.61)"><tspan x="0" y="0">4</tspan></text><text class="h" transform="translate(588.04 358.34)"><tspan x="0" y="0">5</tspan></text><text class="g" transform="translate(588.04 358.34)"><tspan x="0" y="0">5</tspan></text><text class="h" transform="translate(588.04 358.34)"><tspan x="0" y="0">5</tspan></text><text class="h" transform="translate(588.04 302.08)"><tspan x="0" y="0">6</tspan></text><text class="g" transform="translate(588.04 302.08)"><tspan x="0" y="0">6</tspan></text><text class="h" transform="translate(588.04 302.08)"><tspan x="0" y="0">6</tspan></text><text class="h" transform="translate(588.04 246.91)"><tspan x="0" y="0">7</tspan></text><text class="g" transform="translate(588.04 246.91)"><tspan x="0" y="0">7</tspan></text><text class="h" transform="translate(588.04 246.91)"><tspan x="0" y="0">7</tspan></text><text class="h" transform="translate(588.04 190.65)"><tspan x="0" y="0">8</tspan></text><text class="g" transform="translate(588.04 190.65)"><tspan x="0" y="0">8</tspan></text><text class="h" transform="translate(588.04 190.65)"><tspan x="0" y="0">8</tspan></text><text class="h" transform="translate(588.04 134.38)"><tspan x="0" y="0">9</tspan></text><text class="g" transform="translate(588.04 134.38)"><tspan x="0" y="0">9</tspan></text><text class="h" transform="translate(588.04 134.38)"><tspan x="0" y="0">9</tspan></text><text class="h" transform="translate(581.42 78.11)"><tspan x="0" y="0">10</tspan></text><text class="g" transform="translate(581.42 78.11)"><tspan x="0" y="0">10</tspan></text><text class="h" transform="translate(581.42 78.11)"><tspan x="0" y="0">10</tspan></text><text class="h" transform="translate(588.04 650.71)"><tspan x="0" y="0">0</tspan></text><text class="g" transform="translate(588.04 650.71)"><tspan x="0" y="0">0</tspan></text><text class="h" transform="translate(588.04 650.71)"><tspan x="0" y="0">0</tspan></text><path class="k" d="m-5.52,770.57L1223.52,156.06"/><path class="f" d="m834.08,353.53c0,3.05-2.47,5.52-5.52,5.52s-5.52-2.47-5.52-5.52,2.47-5.52,5.52-5.52,5.52,2.47,5.52,5.52Z"/><path class="m" d="m834.08,577.78c0,3.05-2.47,5.52-5.52,5.52s-5.52-2.47-5.52-5.52,2.47-5.52,5.52-5.52,5.52,2.47,5.52,5.52Z"/></g></g><g id="c"><path class="n" d="m-2-1.77v1013.91h1237V-1.77H-2Zm1220,976.91c0,11.05-8.95,20-20,20H35c-11.05,0-20-8.95-20-20V35.23c0-11.05,8.95-20,20-20h1163c11.05,0,20,8.95,20,20v939.91Z"/></g></svg>