<?xml version="1.0" encoding="UTF-8"?><svg xmlns="http://www.w3.org/2000/svg" xmlns:xlink="http://www.w3.org/1999/xlink" viewBox="0 0 1232.74 1010.14"><defs><style>.e{fill:#fff;}.f{stroke:#fff;stroke-linejoin:bevel;stroke-width:3px;}.f,.g{font-family:Helvetica-Bold, Helvetica;font-size:13.24px;font-weight:700;isolation:isolate;}.f,.h,.i,.j,.k{fill:none;}.g{fill:#252525;}.h{clip-path:url(#b);}.i{stroke:#252525;stroke-miterlimit:10;stroke-width:2px;}.l{fill:#00699b;}.k{stroke:rgba(204,0,255,.7);stroke-linecap:round;stroke-linejoin:round;stroke-width:7px;}</style><clipPath id="b"><rect class="j" y="15.23" width="1218" height="980.8"/></clipPath></defs><g id="a"><g class="h"><rect class="e" y="15.23" width="1218" height="980.8"/><path class="i" d="m604.59,18.54v977.49"/><path class="i" d="m604.59,17.44l-5.52,5.52"/><path class="i" d="m604.59,17.44l5.52,5.52"/><path class="i" d="m0,603.27h1214.69"/><path class="i" d="m1215.79,603.27l-5.52-5.52"/><path class="i" d="m1215.79,603.27l-5.52,5.52"/><text class="g" transform="translate(54.06 620.92)"><tspan x="0" y="0">–4</tspan></text><text class="f" transform="translate(54.06 620.92)"><tspan x="0" y="0">–4</tspan></text><text class="g" transform="translate(54.06 620.92)"><tspan x="0" y="0">–4</tspan></text><path class="i" d="m61.78,603.27v3.31"/><text class="g" transform="translate(325.46 620.92)"><tspan x="0" y="0">–2</tspan></text><text class="f" transform="translate(325.46 620.92)"><tspan x="0" y="0">–2</tspan></text><text class="g" transform="translate(325.46 620.92)"><tspan x="0" y="0">–2</tspan></text><path class="i" d="m333.18,603.27v3.31"/><path class="i" d="m604.59,603.27v3.31"/><text class="g" transform="translate(872.68 620.92)"><tspan x="0" y="0">2</tspan></text><text class="f" transform="translate(872.68 620.92)"><tspan x="0" y="0">2</tspan></text><text class="g" transform="translate(872.68 620.92)"><tspan x="0" y="0">2</tspan></text><path class="i" d="m875.99,603.27v3.31"/><text class="g" transform="translate(1142.98 620.92)"><tspan x="0" y="0">4</tspan></text><text class="f" transform="translate(1142.98 620.92)"><tspan x="0" y="0">4</tspan></text><text class="g" transform="translate(1142.98 620.92)"><tspan x="0" y="0">4</tspan></text><path class="i" d="m1147.39,603.27v3.31"/><path class="i" d="m601.28,965.14h3.31"/><path class="i" d="m601.28,784.2h3.31"/><path class="i" d="m601.28,422.33h3.31"/><path class="i" d="m601.28,241.4h3.31"/><path class="i" d="m601.28,60.46h3.31"/><text class="g" transform="translate(581.42 970.65)"><tspan x="0" y="0">–4</tspan></text><text class="f" transform="translate(581.42 970.65)"><tspan x="0" y="0">–4</tspan></text><text class="g" transform="translate(581.42 970.65)"><tspan x="0" y="0">–4</tspan></text><text class="g" transform="translate(581.42 789.72)"><tspan x="0" y="0">–2</tspan></text><text class="f" transform="translate(581.42 789.72)"><tspan x="0" y="0">–2</tspan></text><text class="g" transform="translate(581.42 789.72)"><tspan x="0" y="0">–2</tspan></text><text class="g" transform="translate(588.04 427.85)"><tspan x="0" y="0">2</tspan></text><text class="f" transform="translate(588.04 427.85)"><tspan x="0" y="0">2</tspan></text><text class="g" transform="translate(588.04 427.85)"><tspan x="0" y="0">2</tspan></text><text class="g" transform="translate(588.04 246.91)"><tspan x="0" y="0">4</tspan></text><text class="f" transform="translate(588.04 246.91)"><tspan x="0" y="0">4</tspan></text><text class="g" transform="translate(588.04 246.91)"><tspan x="0" y="0">4</tspan></text><text class="g" transform="translate(588.04 65.98)"><tspan x="0" y="0">6</tspan></text><text class="f" transform="translate(588.04 65.98)"><tspan x="0" y="0">6</tspan></text><text class="g" transform="translate(588.04 65.98)"><tspan x="0" y="0">6</tspan></text><text class="g" transform="translate(588.04 620.92)"><tspan x="0" y="0">0</tspan></text><text class="f" transform="translate(588.04 620.92)"><tspan x="0" y="0">0</tspan></text><text class="g" transform="translate(588.04 620.92)"><tspan x="0" y="0">0</tspan></text><path class="k" d="m197.26,874.85h135.67"/><path class="k" d="m332.93,784.41h135.67"/><path class="k" d="m468.6,693.96h135.67"/><path class="k" d="m604.26,603.52h135.67"/><path class="k" d="m739.93,513.07h135.67"/><path class="k" d="m875.6,422.63h135.67"/><path class="k" d="m1011.27,332.18h135.67"/></g></g><g id="c"><path class="l" d="m-2-1.77v1013.91h1237V-1.77H-2Zm1220,976.91c0,11.05-8.95,20-20,20H35c-11.05,0-20-8.95-20-20V35.23c0-11.05,8.95-20,20-20h1163c11.05,0,20,8.95,20,20v939.91Z"/></g></svg>