<?xml version="1.0" encoding="UTF-8"?><svg xmlns="http://www.w3.org/2000/svg" xmlns:xlink="http://www.w3.org/1999/xlink" viewBox="0 0 1232.74 1010.14"><defs><style>.e{fill:#fff;}.f{stroke:#fff;stroke-linejoin:bevel;stroke-width:3px;}.f,.g{font-family:Helvetica-Bold, Helvetica;font-size:13.24px;font-weight:700;isolation:isolate;}.f,.h,.i,.j,.k{fill:none;}.g{fill:#252525;}.h{clip-path:url(#b);}.i{stroke:rgba(211,47,47,.8);stroke-linecap:round;stroke-linejoin:round;stroke-width:7px;}.j{stroke:#252525;stroke-miterlimit:10;stroke-width:2px;}.l{fill:#00699b;}</style><clipPath id="b"><rect class="k" y="15.23" width="1218" height="980.8"/></clipPath></defs><g id="a"><g class="h"><rect class="e" y="15.23" width="1218" height="980.8"/><path class="j" d="m606.79,18.54v977.49"/><path class="j" d="m606.79,17.44l-5.52,5.52"/><path class="j" d="m606.79,17.44l5.52,5.52"/><path class="j" d="m0,507.28h1214.69"/><path class="j" d="m1215.79,507.28l-5.52-5.52"/><path class="j" d="m1215.79,507.28l-5.52,5.52"/><text class="g" transform="translate(22.06 523.83)"><tspan x="0" y="0">–8</tspan></text><text class="f" transform="translate(22.06 523.83)"><tspan x="0" y="0">–8</tspan></text><text class="g" transform="translate(22.06 523.83)"><tspan x="0" y="0">–8</tspan></text><path class="j" d="m28.68,507.28v3.31"/><text class="g" transform="translate(166.59 523.83)"><tspan x="0" y="0">–6</tspan></text><text class="f" transform="translate(166.59 523.83)"><tspan x="0" y="0">–6</tspan></text><text class="g" transform="translate(166.59 523.83)"><tspan x="0" y="0">–6</tspan></text><path class="j" d="m173.21,507.28v3.31"/><text class="g" transform="translate(310.02 523.83)"><tspan x="0" y="0">–4</tspan></text><text class="f" transform="translate(310.02 523.83)"><tspan x="0" y="0">–4</tspan></text><text class="g" transform="translate(310.02 523.83)"><tspan x="0" y="0">–4</tspan></text><path class="j" d="m317.74,507.28v3.31"/><text class="g" transform="translate(454.54 523.83)"><tspan x="0" y="0">–2</tspan></text><text class="f" transform="translate(454.54 523.83)"><tspan x="0" y="0">–2</tspan></text><text class="g" transform="translate(454.54 523.83)"><tspan x="0" y="0">–2</tspan></text><path class="j" d="m462.27,507.28v3.31"/><path class="j" d="m606.79,507.28v3.31"/><text class="g" transform="translate(746.91 523.83)"><tspan x="0" y="0">2</tspan></text><text class="f" transform="translate(746.91 523.83)"><tspan x="0" y="0">2</tspan></text><text class="g" transform="translate(746.91 523.83)"><tspan x="0" y="0">2</tspan></text><path class="j" d="m750.22,507.28v3.31"/><text class="g" transform="translate(891.43 523.83)"><tspan x="0" y="0">4</tspan></text><text class="f" transform="translate(891.43 523.83)"><tspan x="0" y="0">4</tspan></text><text class="g" transform="translate(891.43 523.83)"><tspan x="0" y="0">4</tspan></text><path class="j" d="m894.74,507.28v3.31"/><text class="g" transform="translate(1035.96 523.83)"><tspan x="0" y="0">6</tspan></text><text class="f" transform="translate(1035.96 523.83)"><tspan x="0" y="0">6</tspan></text><text class="g" transform="translate(1035.96 523.83)"><tspan x="0" y="0">6</tspan></text><path class="j" d="m1039.27,507.28v3.31"/><text class="g" transform="translate(1180.49 523.83)"><tspan x="0" y="0">8</tspan></text><text class="f" transform="translate(1180.49 523.83)"><tspan x="0" y="0">8</tspan></text><text class="g" transform="translate(1180.49 523.83)"><tspan x="0" y="0">8</tspan></text><path class="j" d="m1183.8,507.28v3.31"/><path class="j" d="m603.48,957.41h3.31"/><path class="j" d="m603.48,868.05h3.31"/><path class="j" d="m603.48,777.58h3.31"/><path class="j" d="m603.48,687.11h3.31"/><path class="j" d="m603.48,596.65h3.31"/><path class="j" d="m603.48,416.82h3.31"/><path class="j" d="m603.48,326.35h3.31"/><path class="j" d="m603.48,235.88h3.31"/><path class="j" d="m603.48,146.52h3.31"/><path class="j" d="m603.48,56.05h3.31"/><text class="g" transform="translate(575.9 962.93)"><tspan x="0" y="0">–10</tspan></text><text class="f" transform="translate(575.9 962.93)"><tspan x="0" y="0">–10</tspan></text><text class="g" transform="translate(575.9 962.93)"><tspan x="0" y="0">–10</tspan></text><text class="g" transform="translate(583.62 872.46)"><tspan x="0" y="0">–8</tspan></text><text class="f" transform="translate(583.62 872.46)"><tspan x="0" y="0">–8</tspan></text><text class="g" transform="translate(583.62 872.46)"><tspan x="0" y="0">–8</tspan></text><text class="g" transform="translate(583.62 782)"><tspan x="0" y="0">–6</tspan></text><text class="f" transform="translate(583.62 782)"><tspan x="0" y="0">–6</tspan></text><text class="g" transform="translate(583.62 782)"><tspan x="0" y="0">–6</tspan></text><text class="g" transform="translate(583.62 692.63)"><tspan x="0" y="0">–4</tspan></text><text class="f" transform="translate(583.62 692.63)"><tspan x="0" y="0">–4</tspan></text><text class="g" transform="translate(583.62 692.63)"><tspan x="0" y="0">–4</tspan></text><text class="g" transform="translate(583.62 602.16)"><tspan x="0" y="0">–2</tspan></text><text class="f" transform="translate(583.62 602.16)"><tspan x="0" y="0">–2</tspan></text><text class="g" transform="translate(583.62 602.16)"><tspan x="0" y="0">–2</tspan></text><text class="g" transform="translate(590.24 421.23)"><tspan x="0" y="0">2</tspan></text><text class="f" transform="translate(590.24 421.23)"><tspan x="0" y="0">2</tspan></text><text class="g" transform="translate(590.24 421.23)"><tspan x="0" y="0">2</tspan></text><text class="g" transform="translate(590.24 331.86)"><tspan x="0" y="0">4</tspan></text><text class="f" transform="translate(590.24 331.86)"><tspan x="0" y="0">4</tspan></text><text class="g" transform="translate(590.24 331.86)"><tspan x="0" y="0">4</tspan></text><text class="g" transform="translate(590.24 241.4)"><tspan x="0" y="0">6</tspan></text><text class="f" transform="translate(590.24 241.4)"><tspan x="0" y="0">6</tspan></text><text class="g" transform="translate(590.24 241.4)"><tspan x="0" y="0">6</tspan></text><text class="g" transform="translate(590.24 150.93)"><tspan x="0" y="0">8</tspan></text><text class="f" transform="translate(590.24 150.93)"><tspan x="0" y="0">8</tspan></text><text class="g" transform="translate(590.24 150.93)"><tspan x="0" y="0">8</tspan></text><text class="g" transform="translate(583.62 60.46)"><tspan x="0" y="0">10</tspan></text><text class="f" transform="translate(583.62 60.46)"><tspan x="0" y="0">10</tspan></text><text class="g" transform="translate(583.62 60.46)"><tspan x="0" y="0">10</tspan></text><text class="g" transform="translate(590.24 523.83)"><tspan x="0" y="0">0</tspan></text><text class="f" transform="translate(590.24 523.83)"><tspan x="0" y="0">0</tspan></text><text class="g" transform="translate(590.24 523.83)"><tspan x="0" y="0">0</tspan></text><path class="i" d="m0,795.11l4.76-2.98,4.76-2.98,4.76-2.98,4.76-2.98,4.76-2.99,4.76-2.99,4.76-2.99,4.76-2.99,4.76-2.99,4.76-2.99,4.76-2.99,4.76-2.99,4.76-2.99,4.76-2.99,4.76-2.99,4.76-2.99,4.76-2.99,4.76-2.99,4.76-2.99,4.76-2.99,4.76-2.99,4.76-2.99,4.76-2.99,4.76-2.99,4.76-2.99,4.76-2.99,4.76-2.99,4.76-3,4.76-3,4.76-3,4.76-3,4.76-3,4.76-3,4.76-3,4.76-3,4.76-3,4.76-3,4.76-3,4.76-3,4.76-3.01,4.76-3.01,4.76-3.01,4.76-3.01,4.76-3.01,4.76-3.01,4.76-3.01,4.76-3.02,4.76-3.02,4.76-3.02,4.76-3.02,4.76-3.02,4.76-3.02,4.76-3.03,4.76-3.03,4.76-3.03,4.76-3.03,4.76-3.04,4.76-3.04,4.76-3.04,4.76-3.05,4.76-3.05,4.76-3.05,4.76-3.06,4.76-3.06,4.76-3.07,4.76-3.07,4.76-3.08,4.76-3.08,4.76-3.09,4.76-3.1,4.76-3.1,4.76-3.11,4.76-3.12,4.76-3.13,4.76-3.14,4.76-3.15,4.76-3.16,4.76-3.18,4.76-3.19,4.76-3.21,4.76-3.22,4.76-3.24,4.76-3.26,4.76-3.29,4.76-3.32,4.76-3.35,4.76-3.38,4.76-3.42,4.76-3.46,4.76-3.51,4.76-3.57,4.76-3.63,4.76-3.71,4.76-3.8,4.76-3.91,4.76-4.03,4.76-4.19,4.76-4.37,4.76-4.6,4.76-4.88,4.76-5.25,4.76-5.72,4.76-6.34,4.76-7.19,4.76-8.4,4.76-10.19,2.38-6.06,2.38-6.94,2.38-8.11,2.38-9.68,1.19-5.61,1.19-6.26,1.19-7.05,1.19-8.02,1.19-9.23,1.19-10.77.59-6.1.59-6.66.59-7.32.59-8.08.59-8.98.59-10.04.3-5.48.3-5.83.3-6.21.3-6.64.3-7.1.3-7.63.3-8.21.3-8.86.3-9.6.3-10.44.15-5.57.15-5.82.15-6.09.15-6.39.15-6.7.15-7.04.15-7.4.15-7.8.15-8.22.15-8.69.15-9.19.15-9.74.15-10.34.15-11,.07-5.77.07-5.96.07-6.16.07-6.36.07-6.59.07-6.82.07-7.06.07-7.32.07-7.59.07-7.88.07-8.19.07-8.51.07-8.86.07-9.22.07-9.61.07-10.02m6.47,1006.7l.07-12.95.07-12.34.07-11.78.07-11.25.07-10.76.07-10.3.07-9.87.07-9.47.07-9.09.07-8.73.07-8.4.07-8.08.07-7.78.07-7.5.07-7.23.07-6.97.07-6.73.07-6.51.07-6.29.07-6.08.07-5.89.07-5.7.07-5.52.15-10.54.15-9.93.15-9.36.15-8.84.15-8.37.15-7.93.15-7.52.15-7.15.15-6.8.15-6.48.15-6.18.15-5.91.15-5.65.3-10.58.3-9.73.3-8.97.3-8.31.3-7.71.3-7.18.3-6.7.3-6.27.3-5.88.59-10.74.59-9.56.59-8.57.59-7.73.59-7.02.59-6.4.59-5.86.59-5.39,1.19-9.6,1.19-8.3,1.19-7.27,1.19-6.43,1.19-5.74,2.38-9.84,2.38-8.18,2.38-6.95,2.38-6.01,2.38-5.28,4.76-8.93,4.76-7.36,4.76-6.25,4.76-5.41,4.76-4.76,4.76-4.23,4.76-3.77,4.76-3.35,4.76-2.95,4.76-2.56,4.76-2.14,4.76-1.67,4.76-1.13,4.76-.46,2.38.08,2.38.32,2.38.6,2.38.94,2.38,1.35,2.38,1.84,2.38,2.44,2.38,3.21,2.38,4.19,2.38,5.49,2.38,7.27,2.38,9.77,1.19,6.17,1.19,7.3,1.19,8.73,1.19,10.56.59,6.14.59,6.84.59,7.65.59,8.61.59,9.74.3,5.37.3,5.74.3,6.15.3,6.61.3,7.12.3,7.69.3,8.32.3,9.04.3,9.85.3,10.77.15,5.77.15,6.06.15,6.36.15,6.69.15,7.04.15,7.42.15,7.83.15,8.27.15,8.76.15,9.28.15,9.86.15,10.49.07,5.5.07,5.68.07,5.87.07,6.07.07,6.28.07,6.5.07,6.73.07,6.98.07,7.24.07,7.51.07,7.8.07,8.11.07,8.43.07,8.78.07,9.14.07,9.53.07,9.95.07,10.39.07,10.86.07,11.37.07,11.91.07,12.48.07,13.11.07,13.78.07,14.5.07,15.28.07,16.13.07,17.04m6.99-997.73l.07,6.19.07,5.98.07,5.79.07,5.6.15,10.68.15,10.03.15,9.44.15,8.9.15,8.4.15,7.95.15,7.53.15,7.14.15,6.78.15,6.45.15,6.14.15,5.85.15,5.58.3,10.43.3,9.55.3,8.78.3,8.09.3,7.48.3,6.93.3,6.45.3,6,.59,10.85.59,9.53.59,8.43.59,7.51.59,6.72.59,6.04,1.19,10.41,1.19,8.62,1.19,7.23,1.19,6.12,1.19,5.23,2.38,8.4,2.38,6.35,2.38,4.87,4.76,6.7,1.19,1.21,1.19,1.06,2.38,1.75,2.38,1.33,2.38.98,4.76,1.15,4.76.32,4.76-.28,4.76-.74,4.76-1.09,4.76-1.37,4.76-1.6,4.76-1.78,4.76-1.93,4.76-2.05,4.76-2.16,4.76-2.24,4.76-2.32,4.76-2.38,4.76-2.44,4.76-2.49,4.76-2.53,4.76-2.57,4.76-2.6,4.76-2.63,4.76-2.66,4.76-2.69,4.76-2.71,4.76-2.73,4.76-2.74,4.76-2.76,4.76-2.77,4.76-2.79,4.76-2.8,4.76-2.81,4.76-2.82,4.76-2.83,4.76-2.84,4.76-2.84,4.76-2.85,4.76-2.86,4.76-2.86,4.76-2.87,4.76-2.88,4.76-2.88,4.76-2.89,4.76-2.89,4.76-2.89,4.76-2.9,4.76-2.9,4.76-2.9,4.76-2.91,4.76-2.91,4.76-2.91,4.76-2.92,4.76-2.92,4.76-2.92,4.76-2.92,4.76-2.92,4.76-2.93,4.76-2.93,4.76-2.93,4.76-2.93,4.76-2.93,4.76-2.93,4.76-2.94,4.76-2.94,4.76-2.94,4.76-2.94,4.76-2.94,4.76-2.94,4.76-2.94,4.76-2.94,4.76-2.95,4.76-2.95,4.76-2.95,4.76-2.95,4.76-2.95,4.76-2.95,4.76-2.95,4.76-2.95,4.76-2.95,4.76-2.95,4.76-2.95,4.76-2.95,4.76-2.95,4.76-2.95,4.76-2.96,4.76-2.96,4.76-2.96,4.76-2.96,4.76-2.96,4.76-2.96,4.76-2.96,4.76-2.96,4.76-2.96,4.76-2.96,4.76-2.96,4.76-2.96,4.76-2.96,4.76-2.96,4.76-2.96,4.76-2.96,4.76-2.96,4.76-2.96,4.76-2.96,4.76-2.96,4.76-2.96,4.76-2.96,4.76-2.96"/></g></g><g id="c"><path class="l" d="m-2-1.77v1013.91h1237V-1.77H-2Zm1220,976.91c0,11.05-8.95,20-20,20H35c-11.05,0-20-8.95-20-20V35.23c0-11.05,8.95-20,20-20h1163c11.05,0,20,8.95,20,20v939.91Z"/></g></svg>