<?xml version="1.0" encoding="UTF-8"?><svg xmlns="http://www.w3.org/2000/svg" xmlns:xlink="http://www.w3.org/1999/xlink" viewBox="0 0 1232.74 1010.14"><defs><style>.e,.f{fill:#fff;}.g{fill:#252525;}.g,.h{font-family:Helvetica-Bold, Helvetica;font-size:13.23px;font-weight:700;isolation:isolate;}.i{clip-path:url(#b);}.i,.h,.j,.k,.l,.m,.n{fill:none;}.h{stroke:#fff;stroke-linejoin:bevel;}.h,.f{stroke-width:3px;}.j{stroke:#252525;stroke-width:2px;}.j,.f{stroke-miterlimit:10;}.o{fill:#00699b;}.k{stroke:rgba(219,97,20,.7);}.k,.m{stroke-linecap:round;stroke-width:7px;}.k,.m,.n{stroke-linejoin:round;}.m{stroke:rgba(255,102,153,.7);}.n{stroke:rgba(0,204,0,.7);stroke-dasharray:0 0 12 8;stroke-width:4px;}.f{stroke:#000;stroke-linecap:square;}</style><clipPath id="b"><rect class="l" x="1.1" y="15.23" width="1216.9" height="979.91"/></clipPath></defs><g id="a"><g class="i"><rect class="e" x="1.1" y="15.23" width="1216.9" height="979.91"/><path class="j" d="m608.45,18.54v976.61"/><path class="j" d="m608.45,17.43l-5.51,5.51"/><path class="j" d="m608.45,17.43l5.51,5.51"/><path class="j" d="m1.1,506.84h1213.59"/><path class="j" d="m1215.8,506.84l-5.51-5.51"/><path class="j" d="m1215.8,506.84l-5.51,5.51"/><text class="g" transform="translate(102.51 524.48)"><tspan x="0" y="0">–4</tspan></text><text class="h" transform="translate(102.51 524.48)"><tspan x="0" y="0">–4</tspan></text><text class="g" transform="translate(102.51 524.48)"><tspan x="0" y="0">–4</tspan></text><path class="j" d="m110.22,506.84v3.31"/><text class="g" transform="translate(351.62 524.48)"><tspan x="0" y="0">–2</tspan></text><text class="h" transform="translate(351.62 524.48)"><tspan x="0" y="0">–2</tspan></text><text class="g" transform="translate(351.62 524.48)"><tspan x="0" y="0">–2</tspan></text><path class="j" d="m359.34,506.84v3.31"/><path class="j" d="m608.45,506.84v3.31"/><text class="g" transform="translate(854.25 524.48)"><tspan x="0" y="0">2</tspan></text><text class="h" transform="translate(854.25 524.48)"><tspan x="0" y="0">2</tspan></text><text class="g" transform="translate(854.25 524.48)"><tspan x="0" y="0">2</tspan></text><path class="j" d="m857.56,506.84v3.31"/><text class="g" transform="translate(1103.37 524.48)"><tspan x="0" y="0">4</tspan></text><text class="h" transform="translate(1103.37 524.48)"><tspan x="0" y="0">4</tspan></text><text class="g" transform="translate(1103.37 524.48)"><tspan x="0" y="0">4</tspan></text><path class="j" d="m1106.67,506.84v3.31"/><path class="j" d="m605.14,881.61h3.31"/><path class="j" d="m605.14,757.05h3.31"/><path class="j" d="m605.14,631.39h3.31"/><path class="j" d="m605.14,382.28h3.31"/><path class="j" d="m605.14,257.73h3.31"/><path class="j" d="m605.14,133.17h3.31"/><text class="g" transform="translate(585.3 886.02)"><tspan x="0" y="0">–6</tspan></text><text class="h" transform="translate(585.3 886.02)"><tspan x="0" y="0">–6</tspan></text><text class="g" transform="translate(585.3 886.02)"><tspan x="0" y="0">–6</tspan></text><text class="g" transform="translate(585.3 761.46)"><tspan x="0" y="0">–4</tspan></text><text class="h" transform="translate(585.3 761.46)"><tspan x="0" y="0">–4</tspan></text><text class="g" transform="translate(585.3 761.46)"><tspan x="0" y="0">–4</tspan></text><text class="g" transform="translate(585.3 636.91)"><tspan x="0" y="0">–2</tspan></text><text class="h" transform="translate(585.3 636.91)"><tspan x="0" y="0">–2</tspan></text><text class="g" transform="translate(585.3 636.91)"><tspan x="0" y="0">–2</tspan></text><text class="g" transform="translate(591.91 387.79)"><tspan x="0" y="0">2</tspan></text><text class="h" transform="translate(591.91 387.79)"><tspan x="0" y="0">2</tspan></text><text class="g" transform="translate(591.91 387.79)"><tspan x="0" y="0">2</tspan></text><text class="g" transform="translate(591.91 263.24)"><tspan x="0" y="0">4</tspan></text><text class="h" transform="translate(591.91 263.24)"><tspan x="0" y="0">4</tspan></text><text class="g" transform="translate(591.91 263.24)"><tspan x="0" y="0">4</tspan></text><text class="g" transform="translate(591.91 138.68)"><tspan x="0" y="0">6</tspan></text><text class="h" transform="translate(591.91 138.68)"><tspan x="0" y="0">6</tspan></text><text class="g" transform="translate(591.91 138.68)"><tspan x="0" y="0">6</tspan></text><text class="g" transform="translate(591.91 524.48)"><tspan x="0" y="0">0</tspan></text><text class="h" transform="translate(591.91 524.48)"><tspan x="0" y="0">0</tspan></text><text class="g" transform="translate(591.91 524.48)"><tspan x="0" y="0">0</tspan></text><path class="k" d="m110.03-302.43c249.27,997.08,498.54,1246.03,747.81,746.84"/><path class="m" d="m864.89,192.71L1223.51,12.89"/><path class="n" d="m857.51,195.89v249.16"/><path class="f" d="m864.13,195.89c0,3.65-2.96,6.61-6.61,6.61s-6.61-2.96-6.61-6.61,2.96-6.61,6.61-6.61,6.61,2.96,6.61,6.61Z"/></g></g><g id="c"><path class="o" d="m-2-1.77v1013.91h1237V-1.77H-2Zm1220,976.91c0,11.05-8.95,20-20,20H35c-11.05,0-20-8.95-20-20V35.23c0-11.05,8.95-20,20-20h1163c11.05,0,20,8.95,20,20v939.91Z"/></g></svg>