<?xml version="1.0" encoding="UTF-8"?><svg xmlns="http://www.w3.org/2000/svg" xmlns:xlink="http://www.w3.org/1999/xlink" viewBox="0 0 1232.74 1010.14"><defs><style>.e{fill:#fff;}.f{stroke:#fff;stroke-linejoin:bevel;stroke-width:3px;}.f,.g{font-family:Helvetica-Bold, Helvetica;font-size:13.24px;font-weight:700;isolation:isolate;}.f,.h,.i,.j,.k{fill:none;}.g{fill:#252525;}.h{clip-path:url(#b);}.l{fill:blue;}.i{stroke:rgba(255,182,0,.7);stroke-linecap:round;stroke-linejoin:round;stroke-width:1.5px;}.j{stroke:#252525;stroke-miterlimit:10;stroke-width:2px;}.m{fill:#00699b;}</style><clipPath id="b"><rect class="k" y="15.23" width="1218" height="980.8"/></clipPath></defs><g id="a"><g class="h"><rect class="e" y="15.23" width="1218" height="980.8"/><path class="j" d="m604.59,18.54v977.49"/><path class="j" d="m604.59,17.44l-5.52,5.52"/><path class="j" d="m604.59,17.44l5.52,5.52"/><path class="j" d="m0,507.28h1214.69"/><path class="j" d="m1215.79,507.28l-5.52-5.52"/><path class="j" d="m1215.79,507.28l-5.52,5.52"/><text class="g" transform="translate(33.1 523.83)"><tspan x="0" y="0">–4</tspan></text><text class="f" transform="translate(33.1 523.83)"><tspan x="0" y="0">–4</tspan></text><text class="g" transform="translate(33.1 523.83)"><tspan x="0" y="0">–4</tspan></text><path class="j" d="m40.82,507.28v3.31"/><text class="g" transform="translate(174.31 523.83)"><tspan x="0" y="0">–3</tspan></text><text class="f" transform="translate(174.31 523.83)"><tspan x="0" y="0">–3</tspan></text><text class="g" transform="translate(174.31 523.83)"><tspan x="0" y="0">–3</tspan></text><path class="j" d="m182.04,507.28v3.31"/><text class="g" transform="translate(315.53 523.83)"><tspan x="0" y="0">–2</tspan></text><text class="f" transform="translate(315.53 523.83)"><tspan x="0" y="0">–2</tspan></text><text class="g" transform="translate(315.53 523.83)"><tspan x="0" y="0">–2</tspan></text><path class="j" d="m322.15,507.28v3.31"/><text class="g" transform="translate(455.65 523.83)"><tspan x="0" y="0">–1</tspan></text><text class="f" transform="translate(455.65 523.83)"><tspan x="0" y="0">–1</tspan></text><text class="g" transform="translate(455.65 523.83)"><tspan x="0" y="0">–1</tspan></text><path class="j" d="m463.37,507.28v3.31"/><path class="j" d="m604.59,507.28v3.31"/><text class="g" transform="translate(742.49 523.83)"><tspan x="0" y="0">1</tspan></text><text class="f" transform="translate(742.49 523.83)"><tspan x="0" y="0">1</tspan></text><text class="g" transform="translate(742.49 523.83)"><tspan x="0" y="0">1</tspan></text><path class="j" d="m745.8,507.28v3.31"/><text class="g" transform="translate(882.61 523.83)"><tspan x="0" y="0">2</tspan></text><text class="f" transform="translate(882.61 523.83)"><tspan x="0" y="0">2</tspan></text><text class="g" transform="translate(882.61 523.83)"><tspan x="0" y="0">2</tspan></text><path class="j" d="m887.02,507.28v3.31"/><text class="g" transform="translate(1023.83 523.83)"><tspan x="0" y="0">3</tspan></text><text class="f" transform="translate(1023.83 523.83)"><tspan x="0" y="0">3</tspan></text><text class="g" transform="translate(1023.83 523.83)"><tspan x="0" y="0">3</tspan></text><path class="j" d="m1027.14,507.28v3.31"/><text class="g" transform="translate(1165.04 523.83)"><tspan x="0" y="0">4</tspan></text><text class="f" transform="translate(1165.04 523.83)"><tspan x="0" y="0">4</tspan></text><text class="g" transform="translate(1165.04 523.83)"><tspan x="0" y="0">4</tspan></text><path class="j" d="m1168.35,507.28v3.31"/><path class="j" d="m601.28,813.99h3.31"/><path class="j" d="m601.28,200.58h3.31"/><text class="g" transform="translate(581.42 818.4)"><tspan x="0" y="0">–1</tspan></text><text class="f" transform="translate(581.42 818.4)"><tspan x="0" y="0">–1</tspan></text><text class="g" transform="translate(581.42 818.4)"><tspan x="0" y="0">–1</tspan></text><text class="g" transform="translate(588.04 204.99)"><tspan x="0" y="0">1</tspan></text><text class="f" transform="translate(588.04 204.99)"><tspan x="0" y="0">1</tspan></text><text class="g" transform="translate(588.04 204.99)"><tspan x="0" y="0">1</tspan></text><text class="g" transform="translate(588.04 523.83)"><tspan x="0" y="0">0</tspan></text><text class="f" transform="translate(588.04 523.83)"><tspan x="0" y="0">0</tspan></text><text class="g" transform="translate(588.04 523.83)"><tspan x="0" y="0">0</tspan></text><path class="i" d="m1.1,577.91v.13h0l1.1.13h0l1.1.13h0l1.1.13h0l1.1.13h0l1.1.13h0l1.1.13h0l1.1.13h0l1.1.13h0l1.1.13h0l1.1.13h0l1.1.13h0l1.1.13h0l1.1.13h0l1.1.13h0l1.1.13h0l1.1.13h0l1.1.14h0l1.1.14h0l1.1.14h0l1.1.14h0l1.1.14h0l1.1.14h0l1.1.14h0l1.1.14h0l1.1.14h0l1.1.14h0l1.1.14h0l1.1.14h0l1.1.14h0l1.1.14h0l1.1.14h0l1.1.14h0l1.1.14h0l1.1.14h0l1.1.14h0l1.1.15h0l1.1.15h0l1.1.15h0l1.1.15h0l1.1.15h0l1.1.15h0l1.1.15h0l1.1.15h0l1.1.15h0l1.1.15h0l1.1.15h0l1.1.15h0l1.1.15h0l1.1.15h0l1.1.15h0l1.1.15h0l1.1.15h0l1.1.15h0l1.1.16h0l1.1.16h0l1.1.16h0l1.1.16h0l1.1.16h0l1.1.16h0l1.1.16h0l1.1.16h0l1.1.16h0l1.1.16h0l1.1.16h0l1.1.16h0l1.1.16h0l1.1.16h0l1.1.16h0l1.1.17h0l1.1.17h0l1.1.17h0l1.1.17h0l1.1.17h0l1.1.17h0l1.1.17h0l1.1.17h0l1.1.17h0l1.1.17h0l1.1.17h0l1.1.17h0l1.1.17h0l1.1.17h0l1.1.17h0l1.1.18h0l1.1.18h0l1.1.18h0l1.1.18h0l1.1.18h0l1.1.18h0l1.1.18h0l1.1.18h0l1.1.18h0l1.1.18h0l1.1.18h0l1.1.18h0l1.1.18h0l1.1.19h0l1.1.19h0l1.1.19h0l1.1.19h0l1.1.19h0l1.1.19h0l1.1.19h0l1.1.19h0l1.1.19h0l1.1.19h0l1.1.19h0l1.1.19h0l1.1.2h0l1.1.2h0l1.1.2h0l1.1.2h0l1.1.2h0l1.1.2h0l1.1.2h0l1.1.2h0l1.1.2h0l1.1.2h0l1.1.2h0l1.1.2h0l1.1.21h0l1.1.21h0l1.1.21h0l1.1.21h0l1.1.21h0l1.1.21h0l1.1.21h0l1.1.21h0l1.1.21h0l1.1.21h0l1.1.22h0l1.1.22h0l1.1.22h0l1.1.22h0l1.1.22h0l1.1.22h0l1.1.22h0l1.1.22h0l1.1.22h0l1.1.22h0l1.1.23h0l1.1.23h0l1.1.23h0l1.1.23h0l1.1.23h0l1.1.23h0l1.1.23h0l1.1.23h0l1.1.23h0l1.1.24h0l1.1.24h0l1.1.24h0l1.1.24h0l1.1.24h0l1.1.24h0l1.1.24h0l1.1.24h0l1.1.24h0l1.1.25h0l1.1.25h0l1.1.25h0l1.1.25h0l1.1.25h0l1.1.25h0l1.1.25h0l1.1.25h0l1.1.26h0l1.1.26h0l1.1.26h0l1.1.26h0l1.1.26h0l1.1.26h0l1.1.26h0l1.1.26h0l1.1.27h0l1.1.27h0l1.1.27h0l1.1.27h0l1.1.27h0l1.1.27h0l1.1.27h0l1.1.28h0l1.1.28h0l1.1.28h0l1.1.28h0l1.1.28h0l1.1.28h0l1.1.28h0l1.1.29h0l1.1.29h0l1.1.29h0l1.1.29h0l1.1.29h0l1.1.29h0l1.1.29h0l1.1.3h0l1.1.3h0l1.1.3h0l1.1.3h0l1.1.3h0l1.1.3h0l1.1.31h0l1.1.31h0l1.1.31h0l1.1.31h0l1.1.31h0l1.1.31h0l1.1.32h0l1.1.32h0l1.1.32h0l1.1.32h0l1.1.32h0l1.1.33h0l1.1.33h0l1.1.33h0l1.1.33h0l1.1.33h0l1.1.33h0l1.1.34h0l1.1.34h0l1.1.34h0l1.1.34h0l1.1.34h0l1.1.35h0l1.1.35h0l1.1.35h0l1.1.35h0l1.1.35h0l1.1.36h0l1.1.36h0l1.1.36h0l1.1.36h0l1.1.36h0l1.1.37h0l1.1.37h0l1.1.37h0l1.1.37h0l1.1.37h0l1.1.38h0l1.1.38h0l1.1.38h0l1.1.38h0l1.1.39h0l1.1.39h0l1.1.39h0l1.1.39h0l1.1.4h0l1.1.4h0l1.1.4h0l1.1.4h0l1.1.41h0l1.1.41h0l1.1.41h0l1.1.41h0l1.1.42h0l1.1.42h0l1.1.42h0l1.1.42h0l1.1.43h0l1.1.43h0l1.1.43h0l1.1.43h0l1.1.44h0l1.1.44h0l1.1.44h0l1.1.44h0l1.1.45h0l1.1.45h0l1.1.45h0l1.1.46h0l1.1.46h0l1.1.46h0l1.1.46h0l1.1.47h0l1.1.47h0l1.1.47h0l1.1.48h0l1.1.48h0l1.1.48h0l1.1.49h0l1.1.49h0l1.1.49h0l1.1.5h0l1.1.5h0l1.1.5h0l1.1.51h0l1.1.51h0l1.1.51h0l1.1.52h0l1.1.52h0l1.1.52h0l1.1.53h0l1.1.53h0l1.1.53h0l1.1.54h0l1.1.54h0l1.1.55h0l1.1.55h0l1.1.55h0l1.1.56h0l1.1.56h0l1.1.56h0l1.1.57h0l1.1.57h0l1.1.58h0l1.1.58h0l1.1.58h0l1.1.59h0l1.1.59h0l1.1.6h0l1.1.6h0l1.1.61h0l1.1.61h0l1.1.61h0l1.1.62h0l1.1.62h0l1.1.63h0l1.1.63h0l1.1.64h0l1.1.64h0l1.1.65h0l1.1.65h0l1.1.65h0l1.1.66h0l1.1.66h0l1.1.67h0l1.1.67h0l1.1.68h0l1.1.68h0l1.1.69h0l1.1.69h0l1.1.7h0l1.1.71h0l1.1.71h0l1.1.72h0l1.1.72h0l1.1.73h0l1.1.73h0l1.1.74h0l1.1.74h0l1.1.75h0l1.1.75h0l1.1.76h0l1.1.77h0l1.1.77h0l1.1.78h0l1.1.78h0l1.1.79h0l1.1.8h0l1.1.8h0l1.1.81h0l1.1.81h0l1.1.82h0l1.1.83h0l1.1.83h0l1.1.84h0l1.1.85h0l1.1.85h0l1.1.86h0l1.1.87h0l1.1.87h0l1.1.88h0l1.1.89h0l1.1.89h0l1.1.9h0l1.1.91h0l1.1.91h0l1.1.92h0l1.1.93h0l1.1.94h0l1.1.94h0l1.1.95h0l1.1.96h0l1.1.96h0l1.1.97h0l1.1.98h0l1.1.99h0l1.1.99h0l1.1,1h0l1.1,1.01h0l1.1,1.02h0l1.1,1.03h0l1.1,1.03h0l1.1,1.04h0l1.1,1.05h0l1.1,1.06h0l1.1,1.06h0l1.1,1.07h0l1.1,1.08h0l1.1,1.09h0l1.1,1.1h0l1.1,1.1h0l1.1,1.11h0l1.1,1.12h0l1.1,1.13h0l1.1,1.14h0l1.1,1.14h0l1.1,1.15h0l1.1,1.16h0l1.1,1.17h0l1.1,1.17h0l1.1,1.18h0l1.1,1.19h0l1.1,1.2h0l1.1,1.2h0l1.1,1.21h0l1.1,1.22h0l1.1,1.23h0l1.1,1.23h0l1.1,1.24h0l1.1,1.25h0l1.1,1.25h0l1.1,1.26h0l1.1,1.27h0l1.1,1.27h0l1.1,1.28h0l1.1,1.28h0l1.1,1.29h0l1.1,1.29h0l1.1,1.3h0l1.1,1.3h0l1.1,1.31h0l1.1,1.31h0l1.1,1.31h0l1.1,1.31h0l1.1,1.32h0l1.1,1.32h0l1.1,1.32h0l1.1,1.32h0l1.1,1.32h0l1.1,1.32h0l1.1,1.31h0l1.1,1.31h0l1.1,1.31h0l1.1,1.3h0l1.1,1.3h0l1.1,1.29h0l1.1,1.28h0l1.1,1.27h0l1.1,1.26h0l1.1,1.25h0l1.1,1.24h0l1.1,1.22h0l1.1,1.2h0l1.1,1.19h0l1.1,1.16h0l1.1,1.14h0l1.1,1.12h0l1.1,1.09h0l1.1,1.06h0l1.1,1.02h0l1.1.99h0l1.1.95h0l1.1.9h0l1.1.86h0l1.1.81h0l1.1.75h0l1.1.69h0l1.1.63h0l1.1.56h0l1.1.48h0l1.1.4h0l1.1.31h0l1.1.22h0l1.1.12h0l1.1.02h0s1.1-.12,1.1-.12h0l1.1-.24h0l1.1-.37h0l1.1-.52h0l1.1-.68h0l1.1-.85h0l1.1-1.03h0l1.1-1.22h0l1.1-1.43h0l1.1-1.66h0l1.1-1.9h0l1.1-2.16h0l1.1-2.44h0l1.1-2.74h0l1.1-3.06h0l1.1-3.41h0l1.1-3.78h0l1.1-4.18h0l1.1-4.6h0l1.1-5.06h0l1.1-5.54h0l1.1-6.07h0l1.1-6.62h0l1.1-7.22h0l1.1-7.86h0l1.1-8.54h0l1.1-9.26h0l1.1-10.03h0l1.1-10.85h0l1.1-11.72h0l1.1-12.63h0l1.1-13.6h0l1.1-14.62h0l1.1-15.68h0l1.1-16.79h0l1.1-17.94h0l1.1-19.13h0l1.1-20.34h0l1.1-21.55h0l1.1-22.76h0l1.1-23.94h0l1.1-25.05h0l1.1-26.05h0l1.1-26.9h0l1.1-27.53h0l1.1-27.87h0l1.1-27.8h0l1.1-27.22h0l1.1-25.97h0l1.1-23.89h0l1.1-20.77h0l1.1-16.39h0l1.1-10.51h0l1.1-3v.13l1.1,6.75h0l1.1,18.48h0l1.1,32.32h0l1.1,47.93h0l1.1,64.52h0l1.1,80.53h0l1.1,93.31h0l1.1,98.76h0l1.1,91.25h0l1.1,64.03h0l1.1,15.07v-3.8l1.1-67h0l1.1-155.53h0l1.1-211.45h0l1.1-161.35v52.94l1.1-66.9v66.9l1.1,322.85h0l1.1,223.34v-2.93l1.1-412.31h0l1.1-197.85v168.29l1.1,444.8v-115.96l1.1-497.13h0l1.1,613.09h0l1.1-613.09v613.09l1.1-613.09v613.09l1.1-613.09v613.09l1.1-613.09v613.09l1.1-613.09v613.09l1.1-613.09v613.09l1.1-613.09v613.09l1.1-613.09v613.09l1.1-613.09v613.09l1.1-537.6v431.28l1.1-506.77v360.15l1.1,252.94v-252.94l1.1-360.15v259.1l1.1-259.09v259.09l1.1,304.77h0l1.1,49.22v-22.54l1.1-172.66h0l1.1-209.43h0l1.1-147.72h0l1.1-58.85v17.36l1.1-19.24v19.24l1.1,67.59h0l1.1,92.68h0l1.1,98.7h0l1.1,92.35h0l1.1,79.12h0l1.1,62.97h0l1.1,46.41h0l1.1,30.94h0l1.1,17.3h0l1.1,5.76v-3.66l1.1,3.69v-3.69l1.1-11.13h0l1.1-16.86h0l1.1-21.11h0l1.1-24.12h0l1.1-26.12h0l1.1-27.3h0l1.1-27.83h0l1.1-27.85h0l1.1-27.49h0l1.1-26.83h0l1.1-25.96h0l1.1-24.95h0l1.1-23.83h0l1.1-22.65h0l1.1-21.44h0l1.1-20.22h0l1.1-19.02h0l1.1-17.84h0l1.1-16.69h0l1.1-15.58h0l1.1-14.52h0l1.1-13.51h0l1.1-12.54h0l1.1-11.63h0l1.1-10.77h0l1.1-9.96h0l1.1-9.19h0l1.1-8.47h0l1.1-7.8h0l1.1-7.16h0l1.1-6.57h0l1.1-6.02h0l1.1-5.5h0l1.1-5.01h0l1.1-4.56h0l1.1-4.14h0l1.1-3.74h0l1.1-3.38h0l1.1-3.03h0l1.1-2.71h0l1.1-2.42h0l1.1-2.14h0l1.1-1.88h0l1.1-1.64h0l1.1-1.41h0l1.1-1.2h0l1.1-1.01h0l1.1-.83h0l1.1-.66h0l1.1-.5h0l1.1-.36h0l1.1-.22h0l1.1-.1v.02l1.1-.03v.03l1.1.13h0l1.1.23h0l1.1.32h0l1.1.41h0l1.1.49h0l1.1.57h0l1.1.63h0l1.1.7h0l1.1.76h0l1.1.81h0l1.1.86h0l1.1.91h0l1.1.95h0l1.1.99h0l1.1,1.03h0l1.1,1.06h0l1.1,1.09h0l1.1,1.12h0l1.1,1.14h0l1.1,1.17h0l1.1,1.19h0l1.1,1.21h0l1.1,1.22h0l1.1,1.24h0l1.1,1.25h0l1.1,1.26h0l1.1,1.27h0l1.1,1.28h0l1.1,1.29h0l1.1,1.3h0l1.1,1.3h0l1.1,1.31h0l1.1,1.31h0l1.1,1.31h0l1.1,1.32h0l1.1,1.32h0l1.1,1.32h0l1.1,1.32h0l1.1,1.32h0l1.1,1.32h0l1.1,1.31h0l1.1,1.31h0l1.1,1.31h0l1.1,1.31h0l1.1,1.3h0l1.1,1.3h0l1.1,1.29h0l1.1,1.29h0l1.1,1.28h0l1.1,1.28h0l1.1,1.27h0l1.1,1.27h0l1.1,1.26h0l1.1,1.25h0l1.1,1.25h0l1.1,1.24h0l1.1,1.23h0l1.1,1.23h0l1.1,1.22h0l1.1,1.21h0l1.1,1.2h0l1.1,1.2h0l1.1,1.19h0l1.1,1.18h0l1.1,1.17h0l1.1,1.17h0l1.1,1.16h0l1.1,1.15h0l1.1,1.14h0l1.1,1.13h0l1.1,1.13h0l1.1,1.12h0l1.1,1.11h0l1.1,1.1h0l1.1,1.09h0l1.1,1.09h0l1.1,1.08h0l1.1,1.07h0l1.1,1.06h0l1.1,1.06h0l1.1,1.05h0l1.1,1.04h0l1.1,1.03h0l1.1,1.02h0l1.1,1.02h0l1.1,1.01h0l1.1,1h0l1.1.99h0l1.1.99h0l1.1.98h0l1.1.97h0l1.1.96h0l1.1.96h0l1.1.95h0l1.1.94h0l1.1.93h0l1.1.93h0l1.1.92h0l1.1.91h0l1.1.91h0l1.1.9h0l1.1.89h0l1.1.89h0l1.1.88h0l1.1.87h0l1.1.87h0l1.1.86h0l1.1.85h0l1.1.85h0l1.1.84h0l1.1.83h0l1.1.83h0l1.1.82h0l1.1.81h0l1.1.81h0l1.1.8h0l1.1.79h0l1.1.79h0l1.1.78h0l1.1.78h0l1.1.77h0l1.1.77h0l1.1.76h0l1.1.75h0l1.1.75h0l1.1.74h0l1.1.74h0l1.1.73h0l1.1.73h0l1.1.72h0l1.1.72h0l1.1.71h0l1.1.7h0l1.1.7h0l1.1.69h0l1.1.69h0l1.1.68h0l1.1.68h0l1.1.67h0l1.1.67h0l1.1.66h0l1.1.66h0l1.1.65h0l1.1.65h0l1.1.65h0l1.1.64h0l1.1.64h0l1.1.63h0l1.1.63h0l1.1.62h0l1.1.62h0l1.1.61h0l1.1.61h0l1.1.6h0l1.1.6h0l1.1.6h0l1.1.59h0l1.1.59h0l1.1.58h0l1.1.58h0l1.1.58h0l1.1.57h0l1.1.57h0l1.1.56h0l1.1.56h0l1.1.56h0l1.1.55h0l1.1.55h0l1.1.54h0l1.1.54h0l1.1.54h0l1.1.53h0l1.1.53h0l1.1.53h0l1.1.52h0l1.1.52h0l1.1.52h0l1.1.51h0l1.1.51h0l1.1.51h0l1.1.5h0l1.1.5h0l1.1.5h0l1.1.49h0l1.1.49h0l1.1.49h0l1.1.48h0l1.1.48h0l1.1.48h0l1.1.47h0l1.1.47h0l1.1.47h0l1.1.46h0l1.1.46h0l1.1.46h0l1.1.46h0l1.1.45h0l1.1.45h0l1.1.45h0l1.1.44h0l1.1.44h0l1.1.44h0l1.1.44h0l1.1.43h0l1.1.43h0l1.1.43h0l1.1.43h0l1.1.42h0l1.1.42h0l1.1.42h0l1.1.41h0l1.1.41h0l1.1.41h0l1.1.41h0l1.1.4h0l1.1.4h0l1.1.4h0l1.1.4h0l1.1.4h0l1.1.39h0l1.1.39h0l1.1.39h0l1.1.39h0l1.1.38h0l1.1.38h0l1.1.38h0l1.1.38h0l1.1.37h0l1.1.37h0l1.1.37h0l1.1.37h0l1.1.37h0l1.1.36h0l1.1.36h0l1.1.36h0l1.1.36h0l1.1.36h0l1.1.35h0l1.1.35h0l1.1.35h0l1.1.35h0l1.1.35h0l1.1.34h0l1.1.34h0l1.1.34h0l1.1.34h0l1.1.34h0l1.1.33h0l1.1.33h0l1.1.33h0l1.1.33h0l1.1.33h0l1.1.32h0l1.1.32h0l1.1.32h0l1.1.32h0l1.1.32h0l1.1.32h0l1.1.31h0l1.1.31h0l1.1.31h0l1.1.31h0l1.1.31h0l1.1.31h0l1.1.3h0l1.1.3h0l1.1.3h0l1.1.3h0l1.1.3h0l1.1.3h0l1.1.29h0l1.1.29h0l1.1.29h0l1.1.29h0l1.1.29h0l1.1.29h0l1.1.29h0l1.1.28h0l1.1.28h0l1.1.28h0l1.1.28h0l1.1.28h0l1.1.28h0l1.1.28h0l1.1.27h0l1.1.27h0l1.1.27h0l1.1.27h0l1.1.27h0l1.1.27h0l1.1.27h0l1.1.26h0l1.1.26h0l1.1.26h0l1.1.26h0l1.1.26h0l1.1.26h0l1.1.26h0l1.1.26h0l1.1.25h0l1.1.25h0l1.1.25h0l1.1.25h0l1.1.25h0l1.1.25h0l1.1.25h0l1.1.25h0l1.1.24h0l1.1.24h0l1.1.24h0l1.1.24h0l1.1.24h0l1.1.24h0l1.1.24h0l1.1.24h0l1.1.24h0l1.1.23h0l1.1.23h0l1.1.23h0l1.1.23h0l1.1.23h0l1.1.23h0l1.1.23h0l1.1.23h0l1.1.23h0l1.1.22h0l1.1.22h0l1.1.22h0l1.1.22h0l1.1.22h0l1.1.22h0l1.1.22h0l1.1.22h0l1.1.22h0l1.1.22h0l1.1.21h0l1.1.21h0l1.1.21h0l1.1.21h0l1.1.21h0l1.1.21h0l1.1.21h0l1.1.21h0l1.1.21h0l1.1.21h0l1.1.2h0l1.1.2h0l1.1.2h0l1.1.2h0l1.1.2h0l1.1.2h0l1.1.2h0l1.1.2h0l1.1.2h0l1.1.2h0l1.1.2h0l1.1.2h0l1.1.19h0l1.1.19h0l1.1.19h0l1.1.19h0l1.1.19h0l1.1.19h0l1.1.19h0l1.1.19h0l1.1.19h0l1.1.19h0l1.1.19h0l1.1.19h0l1.1.18h0l1.1.18h0l1.1.18h0l1.1.18h0l1.1.18h0l1.1.18h0l1.1.18h0l1.1.18h0l1.1.18h0l1.1.18h0l1.1.18h0l1.1.18h0l1.1.18h0l1.1.17h0l1.1.17h0l1.1.17h0l1.1.17h0l1.1.17h0l1.1.17h0l1.1.17h0l1.1.17h0l1.1.17h0l1.1.17h0l1.1.17h0l1.1.17h0l1.1.17h0l1.1.17h0l1.1.17h0l1.1.16h0l1.1.16h0l1.1.16h0l1.1.16h0l1.1.16h0l1.1.16h0l1.1.16h0l1.1.16h0l1.1.16h0l1.1.16h0l1.1.16h0l1.1.16h0l1.1.16h0l1.1.16h0l1.1.16h0l1.1.15h0l1.1.15h0l1.1.15h0l1.1.15h0l1.1.15h0l1.1.15h0l1.1.15h0l1.1.15h0l1.1.15h0l1.1.15h0l1.1.15h0l1.1.15h0l1.1.15h0l1.1.15h0l1.1.15h0l1.1.15h0l1.1.15h0l1.1.15h0l1.1.14h0l1.1.14h0l1.1.14h0l1.1.14h0l1.1.14h0l1.1.14h0l1.1.14h0l1.1.14h0l1.1.14h0l1.1.14h0l1.1.14h0l1.1.14h0l1.1.14h0l1.1.14h0l1.1.14h0l1.1.14h0l1.1.14h0l1.1.14h0l1.1.14h0l1.1.13h0l1.1.13h0l1.1.13h0l1.1.13h0l1.1.13h0l1.1.13h0l1.1.13h0l1.1.13h0l1.1.13h0l1.1.13h0l1.1.13h0l1.1.13h0l1.1.13h0l1.1.13h0l1.1.13h0l1.1.13h0l1.1.13h0l1.1.13h0l1.1.13h0l1.1.13h0l1.1.13h0l1.1.12h0l1.1.12h0l1.1.12h0l1.1.12"/><path class="l" d="m611.15,507.05c0,3.66-2.96,6.62-6.62,6.62s-6.62-2.96-6.62-6.62,2.96-6.62,6.62-6.62,6.62,2.96,6.62,6.62Z"/></g></g><g id="c"><path class="m" d="m-2-1.77v1013.91h1237V-1.77H-2Zm1220,976.91c0,11.05-8.95,20-20,20H35c-11.05,0-20-8.95-20-20V35.23c0-11.05,8.95-20,20-20h1163c11.05,0,20,8.95,20,20v939.91Z"/></g></svg>