<?xml version="1.0" encoding="UTF-8"?><svg xmlns="http://www.w3.org/2000/svg" xmlns:xlink="http://www.w3.org/1999/xlink" viewBox="0 0 1232.74 1010.14"><defs><style>.e,.f{fill:#fff;}.g{fill:#252525;}.g,.h{font-family:Helvetica-Bold, Helvetica;font-size:13.23px;font-weight:700;isolation:isolate;}.i{clip-path:url(#b);}.i,.j,.h,.k,.l{fill:none;}.j{stroke:rgba(255,153,0,.7);stroke-linecap:round;stroke-linejoin:round;stroke-width:7px;}.f{stroke:#000;stroke-linecap:square;stroke-width:2.5px;}.f,.k{stroke-miterlimit:10;}.h{stroke:#fff;stroke-linejoin:bevel;stroke-width:3px;}.k{stroke:#252525;stroke-width:2px;}.m{fill:#00699b;}</style><clipPath id="b"><rect class="l" x="1.1" y="15.23" width="1216.9" height="979.91"/></clipPath></defs><g id="a"><g class="i"><rect class="e" x="1.1" y="15.23" width="1216.9" height="979.91"/><path class="k" d="m606.24,18.54v976.61"/><path class="k" d="m606.24,17.43l-5.51,5.51"/><path class="k" d="m606.24,17.43l5.51,5.51"/><path class="k" d="m1.1,911.37h1213.59"/><path class="k" d="m1215.8,911.37l-5.51-5.51"/><path class="k" d="m1215.8,911.37l-5.51,5.51"/><text class="g" transform="translate(259.03 929.01)"><tspan x="0" y="0">–2</tspan></text><text class="h" transform="translate(259.03 929.01)"><tspan x="0" y="0">–2</tspan></text><text class="g" transform="translate(259.03 929.01)"><tspan x="0" y="0">–2</tspan></text><path class="k" d="m266.75,911.37v3.31"/><path class="k" d="m606.24,911.37v3.31"/><text class="g" transform="translate(942.43 929.01)"><tspan x="0" y="0">2</tspan></text><text class="h" transform="translate(942.43 929.01)"><tspan x="0" y="0">2</tspan></text><text class="g" transform="translate(942.43 929.01)"><tspan x="0" y="0">2</tspan></text><path class="k" d="m946.84,911.37v3.31"/><path class="k" d="m602.94,699.73h3.31"/><path class="k" d="m602.94,487h3.31"/><path class="k" d="m602.94,274.26h3.31"/><path class="k" d="m602.94,61.52h3.31"/><text class="g" transform="translate(590.81 704.14)"><tspan x="0" y="0">2</tspan></text><text class="h" transform="translate(590.81 704.14)"><tspan x="0" y="0">2</tspan></text><text class="g" transform="translate(590.81 704.14)"><tspan x="0" y="0">2</tspan></text><text class="g" transform="translate(590.81 491.41)"><tspan x="0" y="0">4</tspan></text><text class="h" transform="translate(590.81 491.41)"><tspan x="0" y="0">4</tspan></text><text class="g" transform="translate(590.81 491.41)"><tspan x="0" y="0">4</tspan></text><text class="g" transform="translate(590.81 279.77)"><tspan x="0" y="0">6</tspan></text><text class="h" transform="translate(590.81 279.77)"><tspan x="0" y="0">6</tspan></text><text class="g" transform="translate(590.81 279.77)"><tspan x="0" y="0">6</tspan></text><text class="g" transform="translate(590.81 67.04)"><tspan x="0" y="0">8</tspan></text><text class="h" transform="translate(590.81 67.04)"><tspan x="0" y="0">8</tspan></text><text class="g" transform="translate(590.81 67.04)"><tspan x="0" y="0">8</tspan></text><text class="g" transform="translate(590.81 929.01)"><tspan x="0" y="0">0</tspan></text><text class="h" transform="translate(590.81 929.01)"><tspan x="0" y="0">0</tspan></text><text class="g" transform="translate(590.81 929.01)"><tspan x="0" y="0">0</tspan></text><path class="j" d="m96.49-44.15c339.93,1274.72,679.85,1274.72,1019.78,0"/><path class="f" d="m951.82,486.98c0,3.04-2.47,5.51-5.51,5.51s-5.51-2.47-5.51-5.51,2.47-5.51,5.51-5.51,5.51,2.47,5.51,5.51Z"/></g></g><g id="c"><path class="m" d="m-2-1.77v1013.91h1237V-1.77H-2Zm1220,976.91c0,11.05-8.95,20-20,20H35c-11.05,0-20-8.95-20-20V35.23c0-11.05,8.95-20,20-20h1163c11.05,0,20,8.95,20,20v939.91Z"/></g></svg>