<?xml version="1.0" encoding="UTF-8"?><svg xmlns="http://www.w3.org/2000/svg" xmlns:xlink="http://www.w3.org/1999/xlink" viewBox="0 0 1232.74 1010.14"><defs><style>.e,.f{fill:#fff;}.g{stroke:#fff;stroke-linejoin:bevel;stroke-width:3px;}.g,.h,.i,.j,.k,.l{fill:none;}.g,.m{font-family:Helvetica-Bold, Helvetica;font-size:13.27px;font-weight:700;isolation:isolate;}.h{clip-path:url(#b);}.f{stroke:#000;stroke-linecap:square;}.f,.i{stroke-miterlimit:10;}.f,.j{stroke-width:2.5px;}.i{stroke:#252525;stroke-width:2px;}.n{fill:#00699b;}.j{stroke:rgba(0,204,0,.7);stroke-dasharray:0 0 10.5 8;}.j,.l{stroke-linejoin:round;}.l{stroke:rgba(211,47,47,.7);stroke-linecap:round;stroke-width:7px;}.m{fill:#252525;}</style><clipPath id="b"><rect class="k" x="-2" y="13.86" width="1220.95" height="983.17"/></clipPath></defs><g id="a"><g class="h"><rect class="e" x="-2" y="13.86" width="1220.95" height="983.17"/><path class="i" d="m454.75,17.18v979.86"/><path class="i" d="m454.75,16.08l-5.53,5.53"/><path class="i" d="m454.75,16.08l5.53,5.53"/><path class="i" d="m-2,674.11h1217.63"/><path class="i" d="m1216.74,674.11l-5.53-5.53"/><path class="i" d="m1216.74,674.11l-5.53,5.53"/><text class="m" transform="translate(7.95 690.69)"><tspan x="0" y="0">–3</tspan></text><text class="g" transform="translate(7.95 690.69)"><tspan x="0" y="0">–3</tspan></text><text class="m" transform="translate(7.95 690.69)"><tspan x="0" y="0">–3</tspan></text><path class="i" d="m15.69,674.11v3.32"/><text class="m" transform="translate(155.04 690.69)"><tspan x="0" y="0">–2</tspan></text><text class="g" transform="translate(155.04 690.69)"><tspan x="0" y="0">–2</tspan></text><text class="m" transform="translate(155.04 690.69)"><tspan x="0" y="0">–2</tspan></text><path class="i" d="m161.68,674.11v3.32"/><text class="m" transform="translate(301.03 690.69)"><tspan x="0" y="0">–1</tspan></text><text class="g" transform="translate(301.03 690.69)"><tspan x="0" y="0">–1</tspan></text><text class="m" transform="translate(301.03 690.69)"><tspan x="0" y="0">–1</tspan></text><path class="i" d="m308.77,674.11v3.32"/><path class="i" d="m454.75,674.11v3.32"/><text class="m" transform="translate(597.42 690.69)"><tspan x="0" y="0">1</tspan></text><text class="g" transform="translate(597.42 690.69)"><tspan x="0" y="0">1</tspan></text><text class="m" transform="translate(597.42 690.69)"><tspan x="0" y="0">1</tspan></text><path class="i" d="m600.73,674.11v3.32"/><text class="m" transform="translate(743.4 690.69)"><tspan x="0" y="0">2</tspan></text><text class="g" transform="translate(743.4 690.69)"><tspan x="0" y="0">2</tspan></text><text class="m" transform="translate(743.4 690.69)"><tspan x="0" y="0">2</tspan></text><path class="i" d="m746.72,674.11v3.32"/><text class="m" transform="translate(890.49 690.69)"><tspan x="0" y="0">3</tspan></text><text class="g" transform="translate(890.49 690.69)"><tspan x="0" y="0">3</tspan></text><text class="m" transform="translate(890.49 690.69)"><tspan x="0" y="0">3</tspan></text><path class="i" d="m893.81,674.11v3.32"/><text class="m" transform="translate(1036.47 690.69)"><tspan x="0" y="0">4</tspan></text><text class="g" transform="translate(1036.47 690.69)"><tspan x="0" y="0">4</tspan></text><text class="m" transform="translate(1036.47 690.69)"><tspan x="0" y="0">4</tspan></text><path class="i" d="m1039.79,674.11v3.32"/><text class="m" transform="translate(1182.45 690.69)"><tspan x="0" y="0">5</tspan></text><text class="g" transform="translate(1182.45 690.69)"><tspan x="0" y="0">5</tspan></text><text class="m" transform="translate(1182.45 690.69)"><tspan x="0" y="0">5</tspan></text><path class="i" d="m1185.77,674.11v3.32"/><path class="i" d="m451.43,991.51h3.32"/><path class="i" d="m451.43,928.47h3.32"/><path class="i" d="m451.43,864.33h3.32"/><path class="i" d="m451.43,801.29h3.32"/><path class="i" d="m451.43,737.14h3.32"/><path class="i" d="m451.43,609.96h3.32"/><path class="i" d="m451.43,546.92h3.32"/><path class="i" d="m451.43,482.78h3.32"/><path class="i" d="m451.43,419.74h3.32"/><path class="i" d="m451.43,355.6h3.32"/><path class="i" d="m451.43,292.56h3.32"/><path class="i" d="m451.43,228.42h3.32"/><path class="i" d="m451.43,165.38h3.32"/><path class="i" d="m451.43,101.23h3.32"/><path class="i" d="m451.43,38.19h3.32"/><text class="m" transform="translate(431.53 932.89)"><tspan x="0" y="0">–4</tspan></text><text class="g" transform="translate(431.53 932.89)"><tspan x="0" y="0">–4</tspan></text><text class="m" transform="translate(431.53 932.89)"><tspan x="0" y="0">–4</tspan></text><text class="m" transform="translate(431.53 869.86)"><tspan x="0" y="0">–3</tspan></text><text class="g" transform="translate(431.53 869.86)"><tspan x="0" y="0">–3</tspan></text><text class="m" transform="translate(431.53 869.86)"><tspan x="0" y="0">–3</tspan></text><text class="m" transform="translate(431.53 805.71)"><tspan x="0" y="0">–2</tspan></text><text class="g" transform="translate(431.53 805.71)"><tspan x="0" y="0">–2</tspan></text><text class="m" transform="translate(431.53 805.71)"><tspan x="0" y="0">–2</tspan></text><text class="m" transform="translate(431.53 742.67)"><tspan x="0" y="0">–1</tspan></text><text class="g" transform="translate(431.53 742.67)"><tspan x="0" y="0">–1</tspan></text><text class="m" transform="translate(431.53 742.67)"><tspan x="0" y="0">–1</tspan></text><text class="m" transform="translate(438.16 615.49)"><tspan x="0" y="0">1</tspan></text><text class="g" transform="translate(438.16 615.49)"><tspan x="0" y="0">1</tspan></text><text class="m" transform="translate(438.16 615.49)"><tspan x="0" y="0">1</tspan></text><text class="m" transform="translate(438.16 551.35)"><tspan x="0" y="0">2</tspan></text><text class="g" transform="translate(438.16 551.35)"><tspan x="0" y="0">2</tspan></text><text class="m" transform="translate(438.16 551.35)"><tspan x="0" y="0">2</tspan></text><text class="m" transform="translate(438.16 488.31)"><tspan x="0" y="0">3</tspan></text><text class="g" transform="translate(438.16 488.31)"><tspan x="0" y="0">3</tspan></text><text class="m" transform="translate(438.16 488.31)"><tspan x="0" y="0">3</tspan></text><text class="m" transform="translate(438.16 424.17)"><tspan x="0" y="0">4</tspan></text><text class="g" transform="translate(438.16 424.17)"><tspan x="0" y="0">4</tspan></text><text class="m" transform="translate(438.16 424.17)"><tspan x="0" y="0">4</tspan></text><text class="m" transform="translate(438.16 361.13)"><tspan x="0" y="0">5</tspan></text><text class="g" transform="translate(438.16 361.13)"><tspan x="0" y="0">5</tspan></text><text class="m" transform="translate(438.16 361.13)"><tspan x="0" y="0">5</tspan></text><text class="m" transform="translate(438.16 296.98)"><tspan x="0" y="0">6</tspan></text><text class="g" transform="translate(438.16 296.98)"><tspan x="0" y="0">6</tspan></text><text class="m" transform="translate(438.16 296.98)"><tspan x="0" y="0">6</tspan></text><text class="m" transform="translate(438.16 233.94)"><tspan x="0" y="0">7</tspan></text><text class="g" transform="translate(438.16 233.94)"><tspan x="0" y="0">7</tspan></text><text class="m" transform="translate(438.16 233.94)"><tspan x="0" y="0">7</tspan></text><text class="m" transform="translate(438.16 169.8)"><tspan x="0" y="0">8</tspan></text><text class="g" transform="translate(438.16 169.8)"><tspan x="0" y="0">8</tspan></text><text class="m" transform="translate(438.16 169.8)"><tspan x="0" y="0">8</tspan></text><text class="m" transform="translate(438.16 106.76)"><tspan x="0" y="0">9</tspan></text><text class="g" transform="translate(438.16 106.76)"><tspan x="0" y="0">9</tspan></text><text class="m" transform="translate(438.16 106.76)"><tspan x="0" y="0">9</tspan></text><text class="m" transform="translate(431.53 42.62)"><tspan x="0" y="0">10</tspan></text><text class="g" transform="translate(431.53 42.62)"><tspan x="0" y="0">10</tspan></text><text class="m" transform="translate(431.53 42.62)"><tspan x="0" y="0">10</tspan></text><text class="m" transform="translate(438.16 690.69)"><tspan x="0" y="0">0</tspan></text><text class="g" transform="translate(438.16 690.69)"><tspan x="0" y="0">0</tspan></text><text class="m" transform="translate(438.16 690.69)"><tspan x="0" y="0">0</tspan></text><path class="l" d="m107.14,1002.57L747.91,166.78"/><path class="l" d="m753.79,422.42l470.69,204.65"/><path class="j" d="m747.15,165.15v254.38"/><path class="f" d="m752.68,419.53c0,3.05-2.48,5.53-5.53,5.53s-5.53-2.48-5.53-5.53,2.48-5.53,5.53-5.53,5.53,2.48,5.53,5.53Z"/></g></g><g id="c"><path class="n" d="m-2-1.77v1013.91h1237V-1.77H-2Zm1220,976.91c0,11.05-8.95,20-20,20H35c-11.05,0-20-8.95-20-20V35.23c0-11.05,8.95-20,20-20h1163c11.05,0,20,8.95,20,20v939.91Z"/></g></svg>