<?xml version="1.0" encoding="UTF-8"?><svg xmlns="http://www.w3.org/2000/svg" xmlns:xlink="http://www.w3.org/1999/xlink" viewBox="0 0 1232.74 1010.14"><defs><style>.e{fill:#fff;}.f{stroke:#fff;stroke-linejoin:bevel;stroke-width:3px;}.f,.g,.h,.i,.j,.k{fill:none;}.f,.l{font-family:Helvetica-Bold, Helvetica;font-size:13.21px;font-weight:700;isolation:isolate;}.g{clip-path:url(#b);}.h{stroke:rgba(211,47,47,.8);stroke-width:7px;}.h,.k{stroke-linecap:round;stroke-linejoin:round;}.i{stroke:#252525;stroke-miterlimit:10;stroke-width:2px;}.m{fill:#00699b;}.l{fill:#252525;}.k{stroke:rgba(0,0,255,.7);stroke-width:2.5px;}</style><clipPath id="b"><rect class="j" x="-2" y="15.23" width="1220" height="978.86"/></clipPath></defs><g id="a"><g class="g"><rect class="e" x="-2" y="15.23" width="1220" height="978.86"/><path class="i" d="m604.7,18.53v975.56"/><path class="i" d="m604.7,17.43l-5.51,5.51"/><path class="i" d="m604.7,17.43l5.51,5.51"/><path class="i" d="m-2,506.31h1216.7"/><path class="i" d="m1215.8,506.31l-5.51-5.51"/><path class="i" d="m1215.8,506.31l-5.51,5.51"/><text class="l" transform="translate(35.44 522.83)"><tspan x="0" y="0">–8</tspan></text><text class="f" transform="translate(35.44 522.83)"><tspan x="0" y="0">–8</tspan></text><text class="l" transform="translate(35.44 522.83)"><tspan x="0" y="0">–8</tspan></text><path class="i" d="m43.14,506.31v3.3"/><text class="l" transform="translate(176.38 522.83)"><tspan x="0" y="0">–6</tspan></text><text class="f" transform="translate(176.38 522.83)"><tspan x="0" y="0">–6</tspan></text><text class="l" transform="translate(176.38 522.83)"><tspan x="0" y="0">–6</tspan></text><path class="i" d="m182.98,506.31v3.3"/><text class="l" transform="translate(316.21 522.83)"><tspan x="0" y="0">–4</tspan></text><text class="f" transform="translate(316.21 522.83)"><tspan x="0" y="0">–4</tspan></text><text class="l" transform="translate(316.21 522.83)"><tspan x="0" y="0">–4</tspan></text><path class="i" d="m323.92,506.31v3.3"/><text class="l" transform="translate(457.15 522.83)"><tspan x="0" y="0">–2</tspan></text><text class="f" transform="translate(457.15 522.83)"><tspan x="0" y="0">–2</tspan></text><text class="l" transform="translate(457.15 522.83)"><tspan x="0" y="0">–2</tspan></text><path class="i" d="m464.86,506.31v3.3"/><path class="i" d="m604.7,506.31v3.3"/><text class="l" transform="translate(742.33 522.83)"><tspan x="0" y="0">2</tspan></text><text class="f" transform="translate(742.33 522.83)"><tspan x="0" y="0">2</tspan></text><text class="l" transform="translate(742.33 522.83)"><tspan x="0" y="0">2</tspan></text><path class="i" d="m745.64,506.31v3.3"/><text class="l" transform="translate(882.17 522.83)"><tspan x="0" y="0">4</tspan></text><text class="f" transform="translate(882.17 522.83)"><tspan x="0" y="0">4</tspan></text><text class="l" transform="translate(882.17 522.83)"><tspan x="0" y="0">4</tspan></text><path class="i" d="m885.47,506.31v3.3"/><text class="l" transform="translate(1023.11 522.83)"><tspan x="0" y="0">6</tspan></text><text class="f" transform="translate(1023.11 522.83)"><tspan x="0" y="0">6</tspan></text><text class="l" transform="translate(1023.11 522.83)"><tspan x="0" y="0">6</tspan></text><path class="i" d="m1026.41,506.31v3.3"/><text class="l" transform="translate(1162.95 522.83)"><tspan x="0" y="0">8</tspan></text><text class="f" transform="translate(1162.95 522.83)"><tspan x="0" y="0">8</tspan></text><text class="l" transform="translate(1162.95 522.83)"><tspan x="0" y="0">8</tspan></text><path class="i" d="m1167.35,506.31v3.3"/><path class="i" d="m601.39,974.27h3.3"/><path class="i" d="m601.39,880.68h3.3"/><path class="i" d="m601.39,787.09h3.3"/><path class="i" d="m601.39,693.5h3.3"/><path class="i" d="m601.39,599.9h3.3"/><path class="i" d="m601.39,412.72h3.3"/><path class="i" d="m601.39,319.13h3.3"/><path class="i" d="m601.39,225.54h3.3"/><path class="i" d="m601.39,131.94h3.3"/><path class="i" d="m601.39,38.35h3.3"/><text class="l" transform="translate(574.97 979.78)"><tspan x="0" y="0">–10</tspan></text><text class="f" transform="translate(574.97 979.78)"><tspan x="0" y="0">–10</tspan></text><text class="l" transform="translate(574.97 979.78)"><tspan x="0" y="0">–10</tspan></text><text class="l" transform="translate(582.67 886.19)"><tspan x="0" y="0">–8</tspan></text><text class="f" transform="translate(582.67 886.19)"><tspan x="0" y="0">–8</tspan></text><text class="l" transform="translate(582.67 886.19)"><tspan x="0" y="0">–8</tspan></text><text class="l" transform="translate(582.67 792.59)"><tspan x="0" y="0">–6</tspan></text><text class="f" transform="translate(582.67 792.59)"><tspan x="0" y="0">–6</tspan></text><text class="l" transform="translate(582.67 792.59)"><tspan x="0" y="0">–6</tspan></text><text class="l" transform="translate(582.67 697.9)"><tspan x="0" y="0">–4</tspan></text><text class="f" transform="translate(582.67 697.9)"><tspan x="0" y="0">–4</tspan></text><text class="l" transform="translate(582.67 697.9)"><tspan x="0" y="0">–4</tspan></text><text class="l" transform="translate(582.67 604.31)"><tspan x="0" y="0">–2</tspan></text><text class="f" transform="translate(582.67 604.31)"><tspan x="0" y="0">–2</tspan></text><text class="l" transform="translate(582.67 604.31)"><tspan x="0" y="0">–2</tspan></text><text class="l" transform="translate(589.28 417.12)"><tspan x="0" y="0">2</tspan></text><text class="f" transform="translate(589.28 417.12)"><tspan x="0" y="0">2</tspan></text><text class="l" transform="translate(589.28 417.12)"><tspan x="0" y="0">2</tspan></text><text class="l" transform="translate(589.28 323.53)"><tspan x="0" y="0">4</tspan></text><text class="f" transform="translate(589.28 323.53)"><tspan x="0" y="0">4</tspan></text><text class="l" transform="translate(589.28 323.53)"><tspan x="0" y="0">4</tspan></text><text class="l" transform="translate(589.28 229.94)"><tspan x="0" y="0">6</tspan></text><text class="f" transform="translate(589.28 229.94)"><tspan x="0" y="0">6</tspan></text><text class="l" transform="translate(589.28 229.94)"><tspan x="0" y="0">6</tspan></text><text class="l" transform="translate(589.28 136.35)"><tspan x="0" y="0">8</tspan></text><text class="f" transform="translate(589.28 136.35)"><tspan x="0" y="0">8</tspan></text><text class="l" transform="translate(589.28 136.35)"><tspan x="0" y="0">8</tspan></text><text class="l" transform="translate(582.67 42.76)"><tspan x="0" y="0">10</tspan></text><text class="f" transform="translate(582.67 42.76)"><tspan x="0" y="0">10</tspan></text><text class="l" transform="translate(582.67 42.76)"><tspan x="0" y="0">10</tspan></text><text class="l" transform="translate(589.28 522.83)"><tspan x="0" y="0">0</tspan></text><text class="f" transform="translate(589.28 522.83)"><tspan x="0" y="0">0</tspan></text><text class="l" transform="translate(589.28 522.83)"><tspan x="0" y="0">0</tspan></text><path class="h" d="m-2,933.64l4.77-2.97,4.77-2.97,4.77-2.97,4.77-2.96,4.77-2.96,4.77-2.95,4.77-2.95,4.77-2.95,4.77-2.94,4.77-2.94,4.77-2.93,4.77-2.93,4.77-2.92,4.77-2.92,4.77-2.91,4.77-2.9,4.77-2.9,4.77-2.89,4.77-2.89,4.77-2.88,4.77-2.87,4.77-2.87,4.77-2.86,4.77-2.85,4.77-2.84,4.77-2.83,4.77-2.82,4.77-2.82,4.77-2.81,4.77-2.8,4.77-2.79,4.77-2.78,4.77-2.76,4.77-2.75,4.77-2.74,4.77-2.73,4.77-2.72,4.77-2.7,4.77-2.69,4.77-2.67,4.77-2.66,4.77-2.64,4.77-2.62,4.77-2.6,4.77-2.58,4.77-2.56,4.77-2.54,4.77-2.52,4.77-2.49,4.77-2.47,4.77-2.44,4.77-2.41,4.77-2.38,4.77-2.35,4.77-2.31,4.77-2.27,4.77-2.23,4.77-2.19,4.77-2.14,4.77-2.09,4.77-2.04,4.77-1.98,4.77-1.92,4.77-1.85,4.77-1.78,4.77-1.69,4.77-1.6,4.77-1.51,4.77-1.4,4.77-1.28,4.77-1.15,4.77-1,4.77-.84,4.77-.65,4.77-.45,4.77-.21,4.77.06,4.77.37,4.77.73,4.77,1.15,4.77,1.64,4.77,2.22,4.77,2.92,4.77,3.77,4.77,4.82,4.77,6.13,4.77,7.79,4.77,9.97,2.38,6.02,2.38,6.86,2.38,7.85,2.38,9.03,2.38,10.46,1.19,5.85,1.19,6.33,1.19,6.87,1.19,7.46,1.19,8.13,1.19,8.88,1.19,9.74,1.19,10.71.6,5.76.6,6.06.6,6.38.6,6.73.6,7.1.6,7.5.6,7.94.6,8.42.6,8.93.6,9.49.6,10.11.6,10.79.3,5.67.3,5.86M475.16,3.58l.15,8.31.15,8.09.15,7.87.15,7.66.15,7.46.15,7.27.15,7.08.15,6.9.15,6.73.15,6.56.15,6.4.15,6.25.15,6.1.15,5.95.15,5.82.15,5.68.3,10.98.3,10.49.3,10.04.3,9.62.3,9.22.3,8.84.3,8.49.3,8.15.3,7.84.3,7.54.3,7.26.3,7,.3,6.75.3,6.51.3,6.28.3,6.07.3,5.86.3,5.67.6,10.79.6,10.12.6,9.5.6,8.94.6,8.42.6,7.95.6,7.51.6,7.11.6,6.74.6,6.39.6,6.07.6,5.78,1.19,10.74,1.19,9.77,1.19,8.92,1.19,8.17,1.19,7.5,1.19,6.91,1.19,6.38,1.19,5.9,1.19,5.47,2.38,9.82,2.38,8.53,2.38,7.46,2.38,6.55,2.38,5.78,4.77,9.67,4.77,7.67,4.77,6.14,4.77,4.94,4.77,3.99,4.77,3.22,4.77,2.59,4.77,2.08,4.77,1.65,4.77,1.3,4.77,1.01,4.77.77,4.77.57,4.77.4,4.77.27,4.77.17,4.77.09,4.77.04h4.77s4.77.01,4.77.01l4.77.02,4.77.05,4.77.11,4.77.2,4.77.31,4.77.45,4.77.62,4.77.83,4.77,1.09,4.77,1.4,4.77,1.77,4.77,2.22,4.77,2.76,4.77,3.42,4.77,4.24,4.77,5.26,4.77,6.55,4.77,8.2,4.77,10.36,2.38,6.21,2.38,7.06,2.38,8.06,2.38,9.25,2.38,10.68,1.19,5.97,1.19,6.46,1.19,7,1.19,7.6,1.19,8.28,1.19,9.05,1.19,9.92,1.19,10.91.6,5.87.6,6.17.6,6.5.6,6.86.6,7.24.6,7.65.6,8.1.6,8.58.6,9.11.6,9.69.6,10.32.3,5.42.3,5.6.3,5.79.3,5.99.3,6.2.3,6.42.3,6.66.3,6.91.3,7.17.3,7.44.3,7.73.3,8.04.3,8.36.3,8.71.3,9.08.3,9.47.3,9.88.3,10.33.3,10.8.15,5.59.15,5.72.15,5.85.15,5.99.15,6.14.15,6.29.15,6.44.15,6.61.15,6.77.15,6.95.15,7.13.15,7.32.15,7.51.15,7.72.15,7.93.15,8.15M763.18,8.1l.3,5.93.3,5.74.3,5.55.6,10.56.6,9.91.6,9.31.6,8.76.6,8.26.6,7.8.6,7.37.6,6.98.6,6.61.6,6.28.6,5.96.6,5.67,1.19,10.54,1.19,9.59,1.19,8.76,1.19,8.02,1.19,7.36,1.19,6.78,1.19,6.25,1.19,5.78,1.19,5.36,2.38,9.6,2.38,8.32,2.38,7.26,2.38,6.35,2.38,5.58,4.77,9.28,4.77,7.27,4.77,5.71,4.77,4.49,4.77,3.51,4.77,2.7,4.77,2.04,4.77,1.49,4.77,1.02,4.77.62,4.77.28,4.77-.02,4.77-.28,4.77-.51,4.77-.71,4.77-.89,4.77-1.05,4.77-1.19,4.77-1.32,4.77-1.43,4.77-1.54,4.77-1.63,4.77-1.72,4.77-1.8,4.77-1.87,4.77-1.94,4.77-2,4.77-2.06,4.77-2.11,4.77-2.16,4.77-2.2,4.77-2.25,4.77-2.28,4.77-2.32,4.77-2.36,4.77-2.39,4.77-2.42,4.77-2.45,4.77-2.47,4.77-2.5,4.77-2.52,4.77-2.55,4.77-2.57,4.77-2.59,4.77-2.61,4.77-2.63,4.77-2.64,4.77-2.66,4.77-2.68,4.77-2.69,4.77-2.71,4.77-2.72,4.77-2.73,4.77-2.74,4.77-2.76,4.77-2.77,4.77-2.78,4.77-2.79,4.77-2.8,4.77-2.81,4.77-2.82,4.77-2.83,4.77-2.84,4.77-2.84,4.77-2.85,4.77-2.86,4.77-2.87,4.77-2.87,4.77-2.88,4.77-2.89,4.77-2.89,4.77-2.9,4.77-2.91,4.77-2.91,4.77-2.92,4.77-2.92,4.77-2.93,4.77-2.93,4.77-2.94,4.77-2.94,4.77-2.95,4.77-2.95,4.77-2.96,4.77-2.96,4.77-2.96,4.77-2.97,4.77-2.97,4.77-2.98,4.77-2.98"/><path class="k" d="m-7.51,914.41L1223.51,93.73"/><path class="k" d="m464.43,999.6V9.72"/><path class="k" d="m745.42,999.6V9.72"/></g></g><g id="c"><path class="m" d="m-2-1.77v1013.91h1237V-1.77H-2Zm1220,976.91c0,11.05-8.95,20-20,20H35c-11.05,0-20-8.95-20-20V35.23c0-11.05,8.95-20,20-20h1163c11.05,0,20,8.95,20,20v939.91Z"/></g></svg>