<?xml version="1.0" encoding="UTF-8"?><svg xmlns="http://www.w3.org/2000/svg" xmlns:xlink="http://www.w3.org/1999/xlink" viewBox="0 0 1232.74 1010.14"><defs><style>.e{fill:#fff;}.f{fill:#252525;}.f,.g{font-family:Helvetica-Bold, Helvetica;font-size:13.23px;font-weight:700;isolation:isolate;}.h{clip-path:url(#b);}.h,.g,.i,.j,.k{fill:none;}.g{stroke:#fff;stroke-linejoin:bevel;stroke-width:3px;}.i{stroke:#252525;stroke-miterlimit:10;stroke-width:2px;}.l{fill:#00699b;}.k{stroke:rgba(219,97,20,.8);stroke-linecap:round;stroke-linejoin:round;stroke-width:7px;}</style><clipPath id="b"><rect class="j" x="-2.57" y="15.23" width="1221.15" height="979.79"/></clipPath></defs><g id="a"><g class="h"><rect class="e" x="-2.57" y="15.23" width="1221.15" height="979.79"/><path class="i" d="m604.7,18.53v976.48"/><path class="i" d="m604.7,17.43l-5.51,5.51"/><path class="i" d="m604.7,17.43l5.51,5.51"/><path class="i" d="m-2.57,926.68h1217.85"/><path class="i" d="m1216.38,926.68l-5.51-5.51"/><path class="i" d="m1216.38,926.68l-5.51,5.51"/><text class="f" transform="translate(40.41 943.21)"><tspan x="0" y="0">–3</tspan></text><text class="g" transform="translate(40.41 943.21)"><tspan x="0" y="0">–3</tspan></text><text class="f" transform="translate(40.41 943.21)"><tspan x="0" y="0">–3</tspan></text><path class="i" d="m48.13,926.68v3.31"/><text class="f" transform="translate(225.57 943.21)"><tspan x="0" y="0">–2</tspan></text><text class="g" transform="translate(225.57 943.21)"><tspan x="0" y="0">–2</tspan></text><text class="f" transform="translate(225.57 943.21)"><tspan x="0" y="0">–2</tspan></text><path class="i" d="m233.29,926.68v3.31"/><text class="f" transform="translate(411.83 943.21)"><tspan x="0" y="0">–1</tspan></text><text class="g" transform="translate(411.83 943.21)"><tspan x="0" y="0">–1</tspan></text><text class="f" transform="translate(411.83 943.21)"><tspan x="0" y="0">–1</tspan></text><path class="i" d="m418.44,926.68v3.31"/><path class="i" d="m604.7,926.68v3.31"/><text class="f" transform="translate(786.55 943.21)"><tspan x="0" y="0">1</tspan></text><text class="g" transform="translate(786.55 943.21)"><tspan x="0" y="0">1</tspan></text><text class="f" transform="translate(786.55 943.21)"><tspan x="0" y="0">1</tspan></text><path class="i" d="m789.86,926.68v3.31"/><text class="f" transform="translate(971.71 943.21)"><tspan x="0" y="0">2</tspan></text><text class="g" transform="translate(971.71 943.21)"><tspan x="0" y="0">2</tspan></text><text class="f" transform="translate(971.71 943.21)"><tspan x="0" y="0">2</tspan></text><path class="i" d="m975.01,926.68v3.31"/><text class="f" transform="translate(1156.86 943.21)"><tspan x="0" y="0">3</tspan></text><text class="g" transform="translate(1156.86 943.21)"><tspan x="0" y="0">3</tspan></text><text class="f" transform="translate(1156.86 943.21)"><tspan x="0" y="0">3</tspan></text><path class="i" d="m1160.17,926.68v3.31"/><path class="i" d="m601.39,833h3.31"/><path class="i" d="m601.39,740.43h3.31"/><path class="i" d="m601.39,647.85h3.31"/><path class="i" d="m601.39,555.27h3.31"/><path class="i" d="m601.39,462.69h3.31"/><path class="i" d="m601.39,370.11h3.31"/><path class="i" d="m601.39,277.53h3.31"/><path class="i" d="m601.39,184.96h3.31"/><path class="i" d="m601.39,92.38h3.31"/><text class="f" transform="translate(588.17 838.51)"><tspan x="0" y="0">2</tspan></text><text class="g" transform="translate(588.17 838.51)"><tspan x="0" y="0">2</tspan></text><text class="f" transform="translate(588.17 838.51)"><tspan x="0" y="0">2</tspan></text><text class="f" transform="translate(588.17 745.94)"><tspan x="0" y="0">4</tspan></text><text class="g" transform="translate(588.17 745.94)"><tspan x="0" y="0">4</tspan></text><text class="f" transform="translate(588.17 745.94)"><tspan x="0" y="0">4</tspan></text><text class="f" transform="translate(588.17 653.36)"><tspan x="0" y="0">6</tspan></text><text class="g" transform="translate(588.17 653.36)"><tspan x="0" y="0">6</tspan></text><text class="f" transform="translate(588.17 653.36)"><tspan x="0" y="0">6</tspan></text><text class="f" transform="translate(588.17 560.78)"><tspan x="0" y="0">8</tspan></text><text class="g" transform="translate(588.17 560.78)"><tspan x="0" y="0">8</tspan></text><text class="f" transform="translate(588.17 560.78)"><tspan x="0" y="0">8</tspan></text><text class="f" transform="translate(581.56 467.1)"><tspan x="0" y="0">10</tspan></text><text class="g" transform="translate(581.56 467.1)"><tspan x="0" y="0">10</tspan></text><text class="f" transform="translate(581.56 467.1)"><tspan x="0" y="0">10</tspan></text><text class="f" transform="translate(581.56 374.52)"><tspan x="0" y="0">12</tspan></text><text class="g" transform="translate(581.56 374.52)"><tspan x="0" y="0">12</tspan></text><text class="f" transform="translate(581.56 374.52)"><tspan x="0" y="0">12</tspan></text><text class="f" transform="translate(581.56 281.94)"><tspan x="0" y="0">14</tspan></text><text class="g" transform="translate(581.56 281.94)"><tspan x="0" y="0">14</tspan></text><text class="f" transform="translate(581.56 281.94)"><tspan x="0" y="0">14</tspan></text><text class="f" transform="translate(581.56 189.36)"><tspan x="0" y="0">16</tspan></text><text class="g" transform="translate(581.56 189.36)"><tspan x="0" y="0">16</tspan></text><text class="f" transform="translate(581.56 189.36)"><tspan x="0" y="0">16</tspan></text><text class="f" transform="translate(581.56 96.78)"><tspan x="0" y="0">18</tspan></text><text class="g" transform="translate(581.56 96.78)"><tspan x="0" y="0">18</tspan></text><text class="f" transform="translate(581.56 96.78)"><tspan x="0" y="0">18</tspan></text><text class="f" transform="translate(588.17 943.21)"><tspan x="0" y="0">0</tspan></text><text class="g" transform="translate(588.17 943.21)"><tspan x="0" y="0">0</tspan></text><text class="f" transform="translate(588.17 943.21)"><tspan x="0" y="0">0</tspan></text><path class="k" d="m-1.47,921.84v.02-.02l1.1-.02H-.36l1.1-.02h0l1.1-.02h0l1.1-.02h0l1.1-.02h0l1.1-.02h0l1.1-.02h0l1.1-.02h0l1.1-.02h0l1.1-.02h0l1.1-.02h0l1.1-.02h0l1.1-.02h0l1.1-.02h0l1.1-.02h0l1.1-.02h0l1.1-.02h0l1.1-.02h0l1.1-.02h0l1.1-.02h0l1.1-.02h0l1.1-.02h0l1.1-.02h0l1.1-.02h0l1.1-.02h0l1.1-.02h0l1.1-.02h0l1.1-.02h0l1.1-.02h0l1.1-.02h0l1.1-.02h0l1.1-.02h0l1.1-.02h0l1.1-.02h0l1.1-.02h0l1.1-.02h0l1.1-.02h0l1.1-.02h0l1.1-.02h0l1.1-.02h0l1.1-.02h0l1.1-.02h0l1.1-.02h0l1.1-.02h0l1.1-.02h0l1.1-.02h0l1.1-.02h0l1.1-.02h0l1.1-.02h0l1.1-.02h0l1.1-.02h0l1.1-.02h0l1.1-.02h0l1.1-.02h0l1.1-.02h0l1.1-.02h0l1.1-.02h0l1.1-.02h0l1.1-.02h0l1.1-.02h0l1.1-.02h0l1.1-.02h0l1.1-.02h0l1.1-.02h0l1.1-.02h0l1.1-.02h0l1.1-.02h0l1.1-.02h0l1.1-.02h0l1.1-.02h0l1.1-.02h0l1.1-.02h0l1.1-.02h0l1.1-.02h0l1.1-.02h0l1.1-.02h0l1.1-.02h0l1.1-.02h0l1.1-.03h0l1.1-.03h0l1.1-.03h0l1.1-.03h0l1.1-.03h0l1.1-.03h0l1.1-.03h0l1.1-.03h0l1.1-.03h0l1.1-.03h0l1.1-.03h0l1.1-.03h0l1.1-.03h0l1.1-.03h0l1.1-.03h0l1.1-.03h0l1.1-.03h0l1.1-.03h0l1.1-.03h0l1.1-.03h0l1.1-.03h0l1.1-.03h0l1.1-.03h0l1.1-.03h0l1.1-.03h0l1.1-.03h0l1.1-.03h0l1.1-.03h0l1.1-.03h0l1.1-.03h0l1.1-.03h0l1.1-.03h0l1.1-.03h0l1.1-.03h0l1.1-.03h0l1.1-.03h0l1.1-.03h0l1.1-.03h0l1.1-.03h0l1.1-.03h0l1.1-.03h0l1.1-.03h0l1.1-.03h0l1.1-.03h0l1.1-.03h0l1.1-.03h0l1.1-.03h0l1.1-.03h0l1.1-.03h0l1.1-.03h0l1.1-.04h0l1.1-.04h0l1.1-.04h0l1.1-.04h0l1.1-.04h0l1.1-.04h0l1.1-.04h0l1.1-.04h0l1.1-.04h0l1.1-.04h0l1.1-.04h0l1.1-.04h0l1.1-.04h0l1.1-.04h0l1.1-.04h0l1.1-.04h0l1.1-.04h0l1.1-.04h0l1.1-.04h0l1.1-.04h0l1.1-.04h0l1.1-.04h0l1.1-.04h0l1.1-.04h0l1.1-.04h0l1.1-.04h0l1.1-.04h0l1.1-.04h0l1.1-.04h0l1.1-.04h0l1.1-.04h0l1.1-.04h0l1.1-.04h0l1.1-.04h0l1.1-.05h0l1.1-.05h0l1.1-.05h0l1.1-.05h0l1.1-.05h0l1.1-.05h0l1.1-.05h0l1.1-.05h0l1.1-.05h0l1.1-.05h0l1.1-.05h0l1.1-.05h0l1.1-.05h0l1.1-.05h0l1.1-.05h0l1.1-.05h0l1.1-.05h0l1.1-.05h0l1.1-.05h0l1.1-.05h0l1.1-.05h0l1.1-.05h0l1.1-.05h0l1.1-.05h0l1.1-.05h0l1.1-.06h0l1.1-.06h0l1.1-.06h0l1.1-.06h0l1.1-.06h0l1.1-.06h0l1.1-.06h0l1.1-.06h0l1.1-.06h0l1.1-.06h0l1.1-.06h0l1.1-.06h0l1.1-.06h0l1.1-.06h0l1.1-.06h0l1.1-.06h0l1.1-.06h0l1.1-.06h0l1.1-.06h0l1.1-.06h0l1.1-.07h0l1.1-.07h0l1.1-.07h0l1.1-.07h0l1.1-.07h0l1.1-.07h0l1.1-.07h0l1.1-.07h0l1.1-.07h0l1.1-.07h0l1.1-.07h0l1.1-.07h0l1.1-.07h0l1.1-.07h0l1.1-.07h0l1.1-.08h0l1.1-.08h0l1.1-.08h0l1.1-.08h0l1.1-.08h0l1.1-.08h0l1.1-.08h0l1.1-.08h0l1.1-.08h0l1.1-.08h0l1.1-.08h0l1.1-.08h0l1.1-.08h0l1.1-.08h0l1.1-.09h0l1.1-.09h0l1.1-.09h0l1.1-.09h0l1.1-.09h0l1.1-.09h0l1.1-.09h0l1.1-.09h0l1.1-.09h0l1.1-.09h0l1.1-.09h0l1.1-.1h0l1.1-.1h0l1.1-.1h0l1.1-.1h0l1.1-.1h0l1.1-.1h0l1.1-.1h0l1.1-.1h0l1.1-.1h0l1.1-.1h0l1.1-.11h0l1.1-.11h0l1.1-.11h0l1.1-.11h0l1.1-.11h0l1.1-.11h0l1.1-.11h0l1.1-.11h0l1.1-.11h0l1.1-.12h0l1.1-.12h0l1.1-.12h0l1.1-.12h0l1.1-.12h0l1.1-.12h0l1.1-.12h0l1.1-.12h0l1.1-.13h0l1.1-.13h0l1.1-.13h0l1.1-.13h0l1.1-.13h0l1.1-.13h0l1.1-.13h0l1.1-.14h0l1.1-.14h0l1.1-.14h0l1.1-.14h0l1.1-.14h0l1.1-.14h0l1.1-.15h0l1.1-.15h0l1.1-.15h0l1.1-.15h0l1.1-.15h0l1.1-.15h0l1.1-.16h0l1.1-.16h0l1.1-.16h0l1.1-.16h0l1.1-.16h0l1.1-.17h0l1.1-.17h0l1.1-.17h0l1.1-.17h0l1.1-.17h0l1.1-.18h0l1.1-.18h0l1.1-.18h0l1.1-.18h0l1.1-.18h0l1.1-.19h0l1.1-.19h0l1.1-.19h0l1.1-.19h0l1.1-.2h0l1.1-.2h0l1.1-.2h0l1.1-.2h0l1.1-.21h0l1.1-.21h0l1.1-.21h0l1.1-.22h0l1.1-.22h0l1.1-.22h0l1.1-.22h0l1.1-.23h0l1.1-.23h0l1.1-.23h0l1.1-.24h0l1.1-.24h0l1.1-.24h0l1.1-.25h0l1.1-.25h0l1.1-.25h0l1.1-.26h0l1.1-.26h0l1.1-.26h0l1.1-.27h0l1.1-.27h0l1.1-.27h0l1.1-.28h0l1.1-.28h0l1.1-.29h0l1.1-.29h0l1.1-.3h0l1.1-.3h0l1.1-.3h0l1.1-.31h0l1.1-.31h0l1.1-.32h0l1.1-.32h0l1.1-.33h0l1.1-.33h0l1.1-.34h0l1.1-.34h0l1.1-.35h0l1.1-.35h0l1.1-.36h0l1.1-.36h0l1.1-.37h0l1.1-.38h0l1.1-.38h0l1.1-.39h0l1.1-.39h0l1.1-.4h0l1.1-.41h0l1.1-.41h0l1.1-.42h0l1.1-.43h0l1.1-.43h0l1.1-.44h0l1.1-.45h0l1.1-.46h0l1.1-.46h0l1.1-.47h0l1.1-.48h0l1.1-.49h0l1.1-.5h0l1.1-.51h0l1.1-.51h0l1.1-.52h0l1.1-.53h0l1.1-.54h0l1.1-.55h0l1.1-.56h0l1.1-.57h0l1.1-.58h0l1.1-.59h0l1.1-.6h0l1.1-.62h0l1.1-.63h0l1.1-.64h0l1.1-.65h0l1.1-.66h0l1.1-.68h0l1.1-.69h0l1.1-.7h0l1.1-.72h0l1.1-.73h0l1.1-.75h0l1.1-.76h0l1.1-.78h0l1.1-.79h0l1.1-.81h0l1.1-.82h0l1.1-.84h0l1.1-.86h0l1.1-.88h0l1.1-.9h0l1.1-.91h0l1.1-.93h0l1.1-.95h0l1.1-.97h0l1.1-1h0l1.1-1.02h0l1.1-1.04h0l1.1-1.06h0l1.1-1.09h0l1.1-1.11h0l1.1-1.14h0l1.1-1.16h0l1.1-1.19h0l1.1-1.22h0l1.1-1.25h0l1.1-1.28h0l1.1-1.31h0l1.1-1.34h0l1.1-1.37h0l1.1-1.41h0l1.1-1.44h0l1.1-1.48h0l1.1-1.51h0l1.1-1.55h0l1.1-1.59h0l1.1-1.63h0l1.1-1.68h0l1.1-1.72h0l1.1-1.77h0l1.1-1.81h0l1.1-1.86h0l1.1-1.91h0l1.1-1.97h0l1.1-2.02h0l1.1-2.08h0l1.1-2.14h0l1.1-2.2h0l1.1-2.26h0l1.1-2.33h0l1.1-2.39h0l1.1-2.47h0l1.1-2.54h0l1.1-2.62h0l1.1-2.7h0l1.1-2.78h0l1.1-2.87h0l1.1-2.96h0l1.1-3.05h0l1.1-3.15h0l1.1-3.25h0l1.1-3.36h0l1.1-3.47h0l1.1-3.59h0l1.1-3.71h0l1.1-3.84h0l1.1-3.97h0l1.1-4.11h0l1.1-4.26h0l1.1-4.41h0l1.1-4.57h0l1.1-4.74h0l1.1-4.92h0l1.1-5.11h0l1.1-5.3h0l1.1-5.51h0l1.1-5.73h0l1.1-5.96h0l1.1-6.2h0l1.1-6.45h0l1.1-6.72h0l1.1-7h0l1.1-7.3h0l1.1-7.62h0l1.1-7.95h0l1.1-8.31h0l1.1-8.69h0l1.1-9.09h0l1.1-9.51h0l1.1-9.97h0l1.1-10.45h0l1.1-10.96h0l1.1-11.51h0l1.1-12.09h0l1.1-12.72h0l1.1-13.38h0l1.1-14.1h0l1.1-14.87h0l1.1-15.69h0l1.1-16.58h0l1.1-17.53h0l1.1-18.56h0l1.1-19.67h0l1.1-20.87h0l1.1-22.18h0l1.1-23.59h0l1.1-25.12h0l1.1-26.79h0l1.1-28.62h0l1.1-30.61h0l1.1-32.79h0l1.1-35.18h0l1.1-37.82h0l1.1-40.72h0l1.1-43.92h0l1.04-44.6h83.01l.82,35.77h0l1.1,44.58h0l1.1,41.31h0l1.1,38.35h0l1.1,35.67h0l1.1,33.23h0l1.1,31.01h0l1.1,28.99h0l1.1,27.13h0l1.1,25.43h0l1.1,23.87h0l1.1,22.44h0l1.1,21.12h0l1.1,19.9h0l1.1,18.77h0l1.1,17.72h0l1.1,16.76h0l1.1,15.86h0l1.1,15.02h0l1.1,14.24h0l1.1,13.52h0l1.1,12.84h0l1.1,12.21h0l1.1,11.62h0l1.1,11.06h0l1.1,10.54h0l1.1,10.06h0l1.1,9.6h0l1.1,9.17h0l1.1,8.76h0l1.1,8.38h0l1.1,8.02h0l1.1,7.68h0l1.1,7.36h0l1.1,7.06h0l1.1,6.77h0l1.1,6.5h0l1.1,6.24h0l1.1,6h0l1.1,5.77h0l1.1,5.55h0l1.1,5.34h0l1.1,5.14h0l1.1,4.96h0l1.1,4.78h0l1.1,4.61h0l1.1,4.44h0l1.1,4.29h0l1.1,4.14h0l1.1,4h0l1.1,3.86h0l1.1,3.73h0l1.1,3.61h0l1.1,3.49h0l1.1,3.38h0l1.1,3.27h0l1.1,3.17h0l1.1,3.07h0l1.1,2.97h0l1.1,2.88h0l1.1,2.8h0l1.1,2.71h0l1.1,2.63h0l1.1,2.55h0l1.1,2.48h0l1.1,2.41h0l1.1,2.34h0l1.1,2.27h0l1.1,2.21h0l1.1,2.15h0l1.1,2.09h0l1.1,2.03h0l1.1,1.98h0l1.1,1.92h0l1.1,1.87h0l1.1,1.82h0l1.1,1.78h0l1.1,1.73h0l1.1,1.69h0l1.1,1.64h0l1.1,1.6h0l1.1,1.56h0l1.1,1.52h0l1.1,1.48h0l1.1,1.45h0l1.1,1.41h0l1.1,1.38h0l1.1,1.35h0l1.1,1.31h0l1.1,1.28h0l1.1,1.25h0l1.1,1.23h0l1.1,1.2h0l1.1,1.17h0l1.1,1.14h0l1.1,1.12h0l1.1,1.09h0l1.1,1.07h0l1.1,1.05h0l1.1,1.02h0l1.1,1h0l1.1.98h0l1.1.96h0l1.1.94h0l1.1.92h0l1.1.9h0l1.1.88h0l1.1.86h0l1.1.84h0l1.1.83h0l1.1.81h0l1.1.79h0l1.1.78h0l1.1.76h0l1.1.75h0l1.1.73h0l1.1.72h0l1.1.71h0l1.1.69h0l1.1.68h0l1.1.67h0l1.1.65h0l1.1.64h0l1.1.63h0l1.1.62h0l1.1.61h0l1.1.6h0l1.1.59h0l1.1.57h0l1.1.56h0l1.1.55h0l1.1.54h0l1.1.53h0l1.1.53h0l1.1.52h0l1.1.51h0l1.1.5h0l1.1.49h0l1.1.48h0l1.1.47h0l1.1.47h0l1.1.46h0l1.1.45h0l1.1.44h0l1.1.44h0l1.1.43h0l1.1.42h0l1.1.42h0l1.1.41h0l1.1.4h0l1.1.4h0l1.1.39h0l1.1.38h0l1.1.38h0l1.1.37h0l1.1.37h0l1.1.36h0l1.1.35h0l1.1.35h0l1.1.34h0l1.1.34h0l1.1.33h0l1.1.33h0l1.1.32h0l1.1.32h0l1.1.31h0l1.1.31h0l1.1.3h0l1.1.3h0l1.1.3h0l1.1.29h0l1.1.29h0l1.1.28h0l1.1.28h0l1.1.28h0l1.1.27h0l1.1.27h0l1.1.26h0l1.1.26h0l1.1.26h0l1.1.25h0l1.1.25h0l1.1.25h0l1.1.24h0l1.1.24h0l1.1.24h0l1.1.23h0l1.1.23h0l1.1.23h0l1.1.22h0l1.1.22h0l1.1.22h0l1.1.22h0l1.1.21h0l1.1.21h0l1.1.21h0l1.1.21h0l1.1.2h0l1.1.2h0l1.1.2h0l1.1.19h0l1.1.19h0l1.1.19h0l1.1.19h0l1.1.19h0l1.1.18h0l1.1.18h0l1.1.18h0l1.1.18h0l1.1.17h0l1.1.17h0l1.1.17h0l1.1.17h0l1.1.17h0l1.1.16h0l1.1.16h0l1.1.16h0l1.1.16h0l1.1.16h0l1.1.15h0l1.1.15h0l1.1.15h0l1.1.15h0l1.1.15h0l1.1.15h0l1.1.14h0l1.1.14h0l1.1.14h0l1.1.14h0l1.1.14h0l1.1.14h0l1.1.13h0l1.1.13h0l1.1.13h0l1.1.13h0l1.1.13h0l1.1.13h0l1.1.13h0l1.1.12h0l1.1.12h0l1.1.12h0l1.1.12h0l1.1.12h0l1.1.12h0l1.1.12h0l1.1.12h0l1.1.11h0l1.1.11h0l1.1.11h0l1.1.11h0l1.1.11h0l1.1.11h0l1.1.11h0l1.1.11h0l1.1.11h0l1.1.1h0l1.1.1h0l1.1.1h0l1.1.1h0l1.1.1h0l1.1.1h0l1.1.1h0l1.1.1h0l1.1.1h0l1.1.1h0l1.1.09h0l1.1.09h0l1.1.09h0l1.1.09h0l1.1.09h0l1.1.09h0l1.1.09h0l1.1.09h0l1.1.09h0l1.1.09h0l1.1.09h0l1.1.08h0l1.1.08h0l1.1.08h0l1.1.08h0l1.1.08h0l1.1.08h0l1.1.08h0l1.1.08h0l1.1.08h0l1.1.08h0l1.1.08h0l1.1.08h0l1.1.08h0l1.1.08h0l1.1.07h0l1.1.07h0l1.1.07h0l1.1.07h0l1.1.07h0l1.1.07h0l1.1.07h0l1.1.07h0l1.1.07h0l1.1.07h0l1.1.07h0l1.1.07h0l1.1.07h0l1.1.07h0l1.1.07h0l1.1.07h0l1.1.06h0l1.1.06h0l1.1.06h0l1.1.06h0l1.1.06h0l1.1.06h0l1.1.06h0l1.1.06h0l1.1.06h0l1.1.06h0l1.1.06h0l1.1.06h0l1.1.06h0l1.1.06h0l1.1.06h0l1.1.06h0l1.1.06h0l1.1.06h0l1.1.06h0l1.1.05h0l1.1.05h0l1.1.05h0l1.1.05h0l1.1.05h0l1.1.05h0l1.1.05h0l1.1.05h0l1.1.05h0l1.1.05h0l1.1.05h0l1.1.05h0l1.1.05h0l1.1.05h0l1.1.05h0l1.1.05h0l1.1.05h0l1.1.05h0l1.1.05h0l1.1.05h0l1.1.05h0l1.1.05h0l1.1.05h0l1.1.05h0l1.1.05h0l1.1.04h0l1.1.04h0l1.1.04h0l1.1.04h0l1.1.04h0l1.1.04h0l1.1.04h0l1.1.04h0l1.1.04h0l1.1.04h0l1.1.04h0l1.1.04h0l1.1.04h0l1.1.04h0l1.1.04h0l1.1.04h0l1.1.04h0l1.1.04h0l1.1.04h0l1.1.04h0l1.1.04h0l1.1.04h0l1.1.04h0l1.1.04h0l1.1.04h0l1.1.04h0l1.1.04h0l1.1.04h0l1.1.04h0l1.1.04h0l1.1.04h0l1.1.04h0l1.1.04h0l1.1.04h0l1.1.03h0l1.1.03h0l1.1.03h0l1.1.03h0l1.1.03h0l1.1.03h0l1.1.03h0l1.1.03h0l1.1.03h0l1.1.03h0l1.1.03h0l1.1.03h0l1.1.03h0l1.1.03h0l1.1.03h0l1.1.03h0l1.1.03h0l1.1.03h0l1.1.03h0l1.1.03h0l1.1.03h0l1.1.03h0l1.1.03h0l1.1.03h0l1.1.03h0l1.1.03h0l1.1.03h0l1.1.03h0l1.1.03h0l1.1.03h0l1.1.03h0l1.1.03h0l1.1.03h0l1.1.03h0l1.1.03h0l1.1.03h0l1.1.03h0l1.1.03h0l1.1.03h0l1.1.03h0l1.1.03h0l1.1.03h0l1.1.03h0l1.1.03h0l1.1.03h0l1.1.03h0l1.1.03h0l1.1.03h0l1.1.03h0l1.1.03h0l1.1.02h0l1.1.02h0l1.1.02h0l1.1.02h0l1.1.02h0l1.1.02h0l1.1.02h0l1.1.02h0l1.1.02h0l1.1.02h0l1.1.02h0l1.1.02h0l1.1.02h0l1.1.02h0l1.1.02h0l1.1.02h0l1.1.02h0l1.1.02h0l1.1.02h0l1.1.02h0l1.1.02h0l1.1.02h0l1.1.02h0l1.1.02h0l1.1.02h0l1.1.02h0l1.1.02h0l1.1.02h0l1.1.02h0l1.1.02h0l1.1.02h0l1.1.02h0l1.1.02h0l1.1.02h0l1.1.02h0l1.1.02h0l1.1.02h0l1.1.02h0l1.1.02h0l1.1.02h0l1.1.02h0l1.1.02h0l1.1.02h0l1.1.02h0l1.1.02h0l1.1.02h0l1.1.02h0l1.1.02h0l1.1.02h0l1.1.02h0l1.1.02h0l1.1.02h0l1.1.02h0l1.1.02h0l1.1.02h0l1.1.02h0l1.1.02h0l1.1.02h0l1.1.02h0l1.1.02h0l1.1.02h0l1.1.02h0l1.1.02h0l1.1.02h0l1.1.02h0l1.1.02h0l1.1.02h0l1.1.02h0l1.1.02h0l1.1.02h0l1.1.02h0l1.1.02h0l1.1.02h0l1.1.02h0l1.1.02h0l1.1.02h0l1.1.02h0l1.1.02h0l1.1.02h0l1.1.02h0l1.1.02h0l1.1.02h0l1.1.02h0l1.1.02h0l1.1.02h0l1.1.02"/></g></g><g id="c"><path class="l" d="m-2-1.77v1013.91h1237V-1.77H-2Zm1220,976.91c0,11.05-8.95,20-20,20H35c-11.05,0-20-8.95-20-20V35.23c0-11.05,8.95-20,20-20h1163c11.05,0,20,8.95,20,20v939.91Z"/></g></svg>