<?xml version="1.0" encoding="UTF-8"?><svg xmlns="http://www.w3.org/2000/svg" xmlns:xlink="http://www.w3.org/1999/xlink" viewBox="0 0 1232.74 1010.14"><defs><style>.e,.f{fill:#fff;}.g{clip-path:url(#b);}.g,.h,.i,.j,.k,.l{fill:none;}.f{stroke:#000;}.f,.h,.l{stroke-linecap:round;stroke-linejoin:round;}.f,.i{stroke-width:2px;}.h{stroke:rgba(255,0,255,.7);stroke-width:7px;}.i{stroke:#252525;stroke-miterlimit:10;}.m{fill:#00699b;}.k{stroke:#fff;stroke-linejoin:bevel;stroke-width:3px;}.k,.n{font-family:Helvetica-Bold, Helvetica;font-size:13.19px;font-weight:700;isolation:isolate;}.n{fill:#252525;}.l{stroke:rgba(97,97,97,.7);stroke-width:2.5px;}</style><clipPath id="b"><rect class="j" y="15.23" width="1218" height="977.26"/></clipPath></defs><g id="a"><g class="g"><rect class="e" y="15.23" width="1218" height="977.26"/><path class="i" d="m606.8,18.53v973.96"/><path class="i" d="m606.8,17.43l-5.5,5.5"/><path class="i" d="m606.8,17.43l5.5,5.5"/><path class="i" d="m0,506.61h1214.7"/><path class="i" d="m1215.8,506.61l-5.5-5.5"/><path class="i" d="m1215.8,506.61l-5.5,5.5"/><text class="n" transform="translate(106.63 524.19)"><tspan x="0" y="0">–3</tspan></text><text class="k" transform="translate(106.63 524.19)"><tspan x="0" y="0">–3</tspan></text><text class="n" transform="translate(106.63 524.19)"><tspan x="0" y="0">–3</tspan></text><path class="i" d="m114.32,506.61v3.3"/><text class="n" transform="translate(271.52 524.19)"><tspan x="0" y="0">–2</tspan></text><text class="k" transform="translate(271.52 524.19)"><tspan x="0" y="0">–2</tspan></text><text class="n" transform="translate(271.52 524.19)"><tspan x="0" y="0">–2</tspan></text><path class="i" d="m278.12,506.61v3.3"/><text class="n" transform="translate(435.31 524.19)"><tspan x="0" y="0">–1</tspan></text><text class="k" transform="translate(435.31 524.19)"><tspan x="0" y="0">–1</tspan></text><text class="n" transform="translate(435.31 524.19)"><tspan x="0" y="0">–1</tspan></text><path class="i" d="m441.91,506.61v3.3"/><path class="i" d="m606.8,506.61v3.3"/><text class="n" transform="translate(767.3 524.19)"><tspan x="0" y="0">1</tspan></text><text class="k" transform="translate(767.3 524.19)"><tspan x="0" y="0">1</tspan></text><text class="n" transform="translate(767.3 524.19)"><tspan x="0" y="0">1</tspan></text><path class="i" d="m770.59,506.61v3.3"/><text class="n" transform="translate(931.09 524.19)"><tspan x="0" y="0">2</tspan></text><text class="k" transform="translate(931.09 524.19)"><tspan x="0" y="0">2</tspan></text><text class="n" transform="translate(931.09 524.19)"><tspan x="0" y="0">2</tspan></text><path class="i" d="m934.39,506.61v3.3"/><text class="n" transform="translate(1094.88 524.19)"><tspan x="0" y="0">3</tspan></text><text class="k" transform="translate(1094.88 524.19)"><tspan x="0" y="0">3</tspan></text><text class="n" transform="translate(1094.88 524.19)"><tspan x="0" y="0">3</tspan></text><path class="i" d="m1098.18,506.61v3.3"/><path class="i" d="m603.5,916.64h3.3"/><path class="i" d="m603.5,835.29h3.3"/><path class="i" d="m603.5,752.84h3.3"/><path class="i" d="m603.5,670.4h3.3"/><path class="i" d="m603.5,589.05h3.3"/><path class="i" d="m603.5,425.26h3.3"/><path class="i" d="m603.5,342.81h3.3"/><path class="i" d="m603.5,260.37h3.3"/><path class="i" d="m603.5,179.02h3.3"/><path class="i" d="m603.5,96.58h3.3"/><text class="n" transform="translate(583.72 922.13)"><tspan x="0" y="0">–5</tspan></text><text class="k" transform="translate(583.72 922.13)"><tspan x="0" y="0">–5</tspan></text><text class="n" transform="translate(583.72 922.13)"><tspan x="0" y="0">–5</tspan></text><text class="n" transform="translate(583.72 839.69)"><tspan x="0" y="0">–4</tspan></text><text class="k" transform="translate(583.72 839.69)"><tspan x="0" y="0">–4</tspan></text><text class="n" transform="translate(583.72 839.69)"><tspan x="0" y="0">–4</tspan></text><text class="n" transform="translate(583.72 757.24)"><tspan x="0" y="0">–3</tspan></text><text class="k" transform="translate(583.72 757.24)"><tspan x="0" y="0">–3</tspan></text><text class="n" transform="translate(583.72 757.24)"><tspan x="0" y="0">–3</tspan></text><text class="n" transform="translate(583.72 675.9)"><tspan x="0" y="0">–2</tspan></text><text class="k" transform="translate(583.72 675.9)"><tspan x="0" y="0">–2</tspan></text><text class="n" transform="translate(583.72 675.9)"><tspan x="0" y="0">–2</tspan></text><text class="n" transform="translate(583.72 593.45)"><tspan x="0" y="0">–1</tspan></text><text class="k" transform="translate(583.72 593.45)"><tspan x="0" y="0">–1</tspan></text><text class="n" transform="translate(583.72 593.45)"><tspan x="0" y="0">–1</tspan></text><text class="n" transform="translate(590.31 429.66)"><tspan x="0" y="0">1</tspan></text><text class="k" transform="translate(590.31 429.66)"><tspan x="0" y="0">1</tspan></text><text class="n" transform="translate(590.31 429.66)"><tspan x="0" y="0">1</tspan></text><text class="n" transform="translate(590.31 348.31)"><tspan x="0" y="0">2</tspan></text><text class="k" transform="translate(590.31 348.31)"><tspan x="0" y="0">2</tspan></text><text class="n" transform="translate(590.31 348.31)"><tspan x="0" y="0">2</tspan></text><text class="n" transform="translate(590.31 265.86)"><tspan x="0" y="0">3</tspan></text><text class="k" transform="translate(590.31 265.86)"><tspan x="0" y="0">3</tspan></text><text class="n" transform="translate(590.31 265.86)"><tspan x="0" y="0">3</tspan></text><text class="n" transform="translate(590.31 183.42)"><tspan x="0" y="0">4</tspan></text><text class="k" transform="translate(590.31 183.42)"><tspan x="0" y="0">4</tspan></text><text class="n" transform="translate(590.31 183.42)"><tspan x="0" y="0">4</tspan></text><text class="n" transform="translate(590.31 102.07)"><tspan x="0" y="0">5</tspan></text><text class="k" transform="translate(590.31 102.07)"><tspan x="0" y="0">5</tspan></text><text class="n" transform="translate(590.31 102.07)"><tspan x="0" y="0">5</tspan></text><text class="n" transform="translate(590.31 524.19)"><tspan x="0" y="0">0</tspan></text><text class="k" transform="translate(590.31 524.19)"><tspan x="0" y="0">0</tspan></text><text class="n" transform="translate(590.31 524.19)"><tspan x="0" y="0">0</tspan></text><path class="h" d="m-5.5,976.71L1223.5,362.21"/><path class="l" d="m278.34,506.85v327.94"/><path class="f" d="m284.47,834.79c0,3.39-2.75,6.14-6.14,6.14s-6.14-2.75-6.14-6.14,2.75-6.14,6.14-6.14,6.14,2.75,6.14,6.14Z"/></g></g><g id="c"><path class="m" d="m-2-1.77v1013.91h1237V-1.77H-2Zm1220,976.91c0,11.05-8.95,20-20,20H35c-11.05,0-20-8.95-20-20V35.23c0-11.05,8.95-20,20-20h1163c11.05,0,20,8.95,20,20v939.91Z"/></g></svg>