<?xml version="1.0" encoding="UTF-8"?><svg xmlns="http://www.w3.org/2000/svg" xmlns:xlink="http://www.w3.org/1999/xlink" viewBox="0 0 1232.74 1010.14"><defs><style>.e{fill:#fff;}.f{stroke:#fff;stroke-linejoin:bevel;stroke-width:3px;}.f,.g,.h,.i,.j{fill:none;}.f,.k{font-family:Helvetica-Bold, Helvetica;font-size:13.21px;font-weight:700;isolation:isolate;}.g{clip-path:url(#b);}.h{stroke:rgba(211,47,47,.8);stroke-linecap:round;stroke-linejoin:round;stroke-width:7px;}.i{stroke:#252525;stroke-miterlimit:10;stroke-width:2px;}.l{fill:#00699b;}.k{fill:#252525;}</style><clipPath id="b"><rect class="j" x="-2" y="15.23" width="1220" height="978.86"/></clipPath></defs><g id="a"><g class="g"><rect class="e" x="-2" y="15.23" width="1220" height="978.86"/><path class="i" d="m601.39,18.53v975.56"/><path class="i" d="m601.39,17.43l-5.51,5.51"/><path class="i" d="m601.39,17.43l5.51,5.51"/><path class="i" d="m-2,514.02h1216.7"/><path class="i" d="m1215.8,514.02l-5.51-5.51"/><path class="i" d="m1215.8,514.02l-5.51,5.51"/><text class="k" transform="translate(20.02 531.64)"><tspan x="0" y="0">–4</tspan></text><text class="f" transform="translate(20.02 531.64)"><tspan x="0" y="0">–4</tspan></text><text class="k" transform="translate(20.02 531.64)"><tspan x="0" y="0">–4</tspan></text><path class="i" d="m26.63,514.02v3.3"/><text class="k" transform="translate(163.16 531.64)"><tspan x="0" y="0">–3</tspan></text><text class="f" transform="translate(163.16 531.64)"><tspan x="0" y="0">–3</tspan></text><text class="k" transform="translate(163.16 531.64)"><tspan x="0" y="0">–3</tspan></text><path class="i" d="m170.87,514.02v3.3"/><text class="k" transform="translate(307.4 531.64)"><tspan x="0" y="0">–2</tspan></text><text class="f" transform="translate(307.4 531.64)"><tspan x="0" y="0">–2</tspan></text><text class="k" transform="translate(307.4 531.64)"><tspan x="0" y="0">–2</tspan></text><path class="i" d="m314.01,514.02v3.3"/><text class="k" transform="translate(450.54 531.64)"><tspan x="0" y="0">–1</tspan></text><text class="f" transform="translate(450.54 531.64)"><tspan x="0" y="0">–1</tspan></text><text class="k" transform="translate(450.54 531.64)"><tspan x="0" y="0">–1</tspan></text><path class="i" d="m458.25,514.02v3.3"/><path class="i" d="m601.39,514.02v3.3"/><text class="k" transform="translate(741.23 531.64)"><tspan x="0" y="0">1</tspan></text><text class="f" transform="translate(741.23 531.64)"><tspan x="0" y="0">1</tspan></text><text class="k" transform="translate(741.23 531.64)"><tspan x="0" y="0">1</tspan></text><path class="i" d="m745.64,514.02v3.3"/><text class="k" transform="translate(885.47 531.64)"><tspan x="0" y="0">2</tspan></text><text class="f" transform="translate(885.47 531.64)"><tspan x="0" y="0">2</tspan></text><text class="k" transform="translate(885.47 531.64)"><tspan x="0" y="0">2</tspan></text><path class="i" d="m888.78,514.02v3.3"/><text class="k" transform="translate(1028.61 531.64)"><tspan x="0" y="0">3</tspan></text><text class="f" transform="translate(1028.61 531.64)"><tspan x="0" y="0">3</tspan></text><text class="k" transform="translate(1028.61 531.64)"><tspan x="0" y="0">3</tspan></text><path class="i" d="m1031.92,514.02v3.3"/><text class="k" transform="translate(1172.86 531.64)"><tspan x="0" y="0">4</tspan></text><text class="f" transform="translate(1172.86 531.64)"><tspan x="0" y="0">4</tspan></text><text class="k" transform="translate(1172.86 531.64)"><tspan x="0" y="0">4</tspan></text><path class="i" d="m1176.16,514.02v3.3"/><path class="i" d="m598.09,956.65h3.3"/><path class="i" d="m598.09,845.45h3.3"/><path class="i" d="m598.09,735.34h3.3"/><path class="i" d="m598.09,625.23h3.3"/><path class="i" d="m598.09,403.91h3.3"/><path class="i" d="m598.09,293.8h3.3"/><path class="i" d="m598.09,182.59h3.3"/><path class="i" d="m598.09,72.48h3.3"/><text class="k" transform="translate(579.37 961.06)"><tspan x="0" y="0">–4</tspan></text><text class="f" transform="translate(579.37 961.06)"><tspan x="0" y="0">–4</tspan></text><text class="k" transform="translate(579.37 961.06)"><tspan x="0" y="0">–4</tspan></text><text class="k" transform="translate(579.37 850.95)"><tspan x="0" y="0">–3</tspan></text><text class="f" transform="translate(579.37 850.95)"><tspan x="0" y="0">–3</tspan></text><text class="k" transform="translate(579.37 850.95)"><tspan x="0" y="0">–3</tspan></text><text class="k" transform="translate(579.37 739.74)"><tspan x="0" y="0">–2</tspan></text><text class="f" transform="translate(579.37 739.74)"><tspan x="0" y="0">–2</tspan></text><text class="k" transform="translate(579.37 739.74)"><tspan x="0" y="0">–2</tspan></text><text class="k" transform="translate(579.37 629.63)"><tspan x="0" y="0">–1</tspan></text><text class="f" transform="translate(579.37 629.63)"><tspan x="0" y="0">–1</tspan></text><text class="k" transform="translate(579.37 629.63)"><tspan x="0" y="0">–1</tspan></text><text class="k" transform="translate(585.98 408.32)"><tspan x="0" y="0">1</tspan></text><text class="f" transform="translate(585.98 408.32)"><tspan x="0" y="0">1</tspan></text><text class="k" transform="translate(585.98 408.32)"><tspan x="0" y="0">1</tspan></text><text class="k" transform="translate(585.98 298.21)"><tspan x="0" y="0">2</tspan></text><text class="f" transform="translate(585.98 298.21)"><tspan x="0" y="0">2</tspan></text><text class="k" transform="translate(585.98 298.21)"><tspan x="0" y="0">2</tspan></text><text class="k" transform="translate(585.98 188.1)"><tspan x="0" y="0">3</tspan></text><text class="f" transform="translate(585.98 188.1)"><tspan x="0" y="0">3</tspan></text><text class="k" transform="translate(585.98 188.1)"><tspan x="0" y="0">3</tspan></text><text class="k" transform="translate(585.98 76.89)"><tspan x="0" y="0">4</tspan></text><text class="f" transform="translate(585.98 76.89)"><tspan x="0" y="0">4</tspan></text><text class="k" transform="translate(585.98 76.89)"><tspan x="0" y="0">4</tspan></text><text class="k" transform="translate(585.98 531.64)"><tspan x="0" y="0">0</tspan></text><text class="f" transform="translate(585.98 531.64)"><tspan x="0" y="0">0</tspan></text><text class="k" transform="translate(585.98 531.64)"><tspan x="0" y="0">0</tspan></text><path class="h" d="m-.9,540.57v.05h0l1.1.05H.2l1.1.05h0l1.1.05h0l1.1.05h0l1.1.05h0l1.1.05h0l1.1.05h0l1.1.05h0l1.1.05h0l1.1.05h0l1.1.05h0l1.1.05h0l1.1.05h0l1.1.05h0l1.1.05h0l1.1.05h0l1.1.05h0l1.1.05h0l1.1.05h0l1.1.05h0l1.1.05h0l1.1.05h0l1.1.05h0l1.1.05h0l1.1.05h0l1.1.05h0l1.1.05h0l1.1.05h0l1.1.05h0l1.1.05h0l1.1.05h0l1.1.05h0l1.1.05h0l1.1.05h0l1.1.05h0l1.1.06h0l1.1.06h0l1.1.06h0l1.1.06h0l1.1.06h0l1.1.06h0l1.1.06h0l1.1.06h0l1.1.06h0l1.1.06h0l1.1.06h0l1.1.06h0l1.1.06h0l1.1.06h0l1.1.06h0l1.1.06h0l1.1.06h0l1.1.06h0l1.1.06h0l1.1.06h0l1.1.06h0l1.1.06h0l1.1.06h0l1.1.06h0l1.1.06h0l1.1.06h0l1.1.06h0l1.1.06h0l1.1.06h0l1.1.06h0l1.1.06h0l1.1.06h0l1.1.06h0l1.1.06h0l1.1.06h0l1.1.06h0l1.1.06h0l1.1.06h0l1.1.06h0l1.1.06h0l1.1.06h0l1.1.07h0l1.1.07h0l1.1.07h0l1.1.07h0l1.1.07h0l1.1.07h0l1.1.07h0l1.1.07h0l1.1.07h0l1.1.07h0l1.1.07h0l1.1.07h0l1.1.07h0l1.1.07h0l1.1.07h0l1.1.07h0l1.1.07h0l1.1.07h0l1.1.07h0l1.1.07h0l1.1.07h0l1.1.07h0l1.1.07h0l1.1.07h0l1.1.07h0l1.1.07h0l1.1.07h0l1.1.07h0l1.1.07h0l1.1.07h0l1.1.07h0l1.1.07h0l1.1.07h0l1.1.08h0l1.1.08h0l1.1.08h0l1.1.08h0l1.1.08h0l1.1.08h0l1.1.08h0l1.1.08h0l1.1.08h0l1.1.08h0l1.1.08h0l1.1.08h0l1.1.08h0l1.1.08h0l1.1.08h0l1.1.08h0l1.1.08h0l1.1.08h0l1.1.08h0l1.1.08h0l1.1.08h0l1.1.08h0l1.1.08h0l1.1.08h0l1.1.08h0l1.1.08h0l1.1.09h0l1.1.09h0l1.1.09h0l1.1.09h0l1.1.09h0l1.1.09h0l1.1.09h0l1.1.09h0l1.1.09h0l1.1.09h0l1.1.09h0l1.1.09h0l1.1.09h0l1.1.09h0l1.1.09h0l1.1.09h0l1.1.09h0l1.1.09h0l1.1.09h0l1.1.09h0l1.1.09h0l1.1.09h0l1.1.09h0l1.1.1h0l1.1.1h0l1.1.1h0l1.1.1h0l1.1.1h0l1.1.1h0l1.1.1h0l1.1.1h0l1.1.1h0l1.1.1h0l1.1.1h0l1.1.1h0l1.1.1h0l1.1.1h0l1.1.1h0l1.1.1h0l1.1.1h0l1.1.1h0l1.1.1h0l1.1.11h0l1.1.11h0l1.1.11h0l1.1.11h0l1.1.11h0l1.1.11h0l1.1.11h0l1.1.11h0l1.1.11h0l1.1.11h0l1.1.11h0l1.1.11h0l1.1.11h0l1.1.11h0l1.1.11h0l1.1.11h0l1.1.12h0l1.1.12h0l1.1.12h0l1.1.12h0l1.1.12h0l1.1.12h0l1.1.12h0l1.1.12h0l1.1.12h0l1.1.12h0l1.1.12h0l1.1.12h0l1.1.12h0l1.1.12h0l1.1.12h0l1.1.13h0l1.1.13h0l1.1.13h0l1.1.13h0l1.1.13h0l1.1.13h0l1.1.13h0l1.1.13h0l1.1.13h0l1.1.13h0l1.1.13h0l1.1.13h0l1.1.14h0l1.1.14h0l1.1.14h0l1.1.14h0l1.1.14h0l1.1.14h0l1.1.14h0l1.1.14h0l1.1.14h0l1.1.14h0l1.1.14h0l1.1.14h0l1.1.15h0l1.1.15h0l1.1.15h0l1.1.15h0l1.1.15h0l1.1.15h0l1.1.15h0l1.1.15h0l1.1.15h0l1.1.15h0l1.1.16h0l1.1.16h0l1.1.16h0l1.1.16h0l1.1.16h0l1.1.16h0l1.1.16h0l1.1.16h0l1.1.16h0l1.1.16h0l1.1.17h0l1.1.17h0l1.1.17h0l1.1.17h0l1.1.17h0l1.1.17h0l1.1.17h0l1.1.17h0l1.1.18h0l1.1.18h0l1.1.18h0l1.1.18h0l1.1.18h0l1.1.18h0l1.1.18h0l1.1.18h0l1.1.19h0l1.1.19h0l1.1.19h0l1.1.19h0l1.1.19h0l1.1.19h0l1.1.19h0l1.1.2h0l1.1.2h0l1.1.2h0l1.1.2h0l1.1.2h0l1.1.2h0l1.1.2h0l1.1.21h0l1.1.21h0l1.1.21h0l1.1.21h0l1.1.21h0l1.1.21h0l1.1.22h0l1.1.22h0l1.1.22h0l1.1.22h0l1.1.22h0l1.1.22h0l1.1.23h0l1.1.23h0l1.1.23h0l1.1.23h0l1.1.23h0l1.1.23h0l1.1.24h0l1.1.24h0l1.1.24h0l1.1.24h0l1.1.24h0l1.1.25h0l1.1.25h0l1.1.25h0l1.1.25h0l1.1.26h0l1.1.26h0l1.1.26h0l1.1.26h0l1.1.26h0l1.1.27h0l1.1.27h0l1.1.27h0l1.1.27h0l1.1.28h0l1.1.28h0l1.1.28h0l1.1.28h0l1.1.29h0l1.1.29h0l1.1.29h0l1.1.29h0l1.1.3h0l1.1.3h0l1.1.3h0l1.1.3h0l1.1.31h0l1.1.31h0l1.1.31h0l1.1.32h0l1.1.32h0l1.1.32h0l1.1.32h0l1.1.33h0l1.1.33h0l1.1.33h0l1.1.34h0l1.1.34h0l1.1.34h0l1.1.35h0l1.1.35h0l1.1.35h0l1.1.36h0l1.1.36h0l1.1.37h0l1.1.37h0l1.1.37h0l1.1.38h0l1.1.38h0l1.1.38h0l1.1.39h0l1.1.39h0l1.1.4h0l1.1.4h0l1.1.4h0l1.1.41h0l1.1.41h0l1.1.42h0l1.1.42h0l1.1.43h0l1.1.43h0l1.1.44h0l1.1.44h0l1.1.45h0l1.1.45h0l1.1.46h0l1.1.46h0l1.1.47h0l1.1.47h0l1.1.48h0l1.1.48h0l1.1.49h0l1.1.49h0l1.1.5h0l1.1.51h0l1.1.51h0l1.1.52h0l1.1.53h0l1.1.53h0l1.1.54h0l1.1.54h0l1.1.55h0l1.1.56h0l1.1.57h0l1.1.57h0l1.1.58h0l1.1.59h0l1.1.59h0l1.1.6h0l1.1.61h0l1.1.62h0l1.1.63h0l1.1.64h0l1.1.64h0l1.1.65h0l1.1.66h0l1.1.67h0l1.1.68h0l1.1.69h0l1.1.7h0l1.1.71h0l1.1.72h0l1.1.73h0l1.1.74h0l1.1.75h0l1.1.76h0l1.1.77h0l1.1.78h0l1.1.79h0l1.1.81h0l1.1.82h0l1.1.83h0l1.1.84h0l1.1.86h0l1.1.87h0l1.1.88h0l1.1.9h0l1.1.91h0l1.1.93h0l1.1.94h0l1.1.96h0l1.1.97h0l1.1.99h0l1.1,1.01h0l1.1,1.02h0l1.1,1.04h0l1.1,1.06h0l1.1,1.08h0l1.1,1.1h0l1.1,1.12h0l1.1,1.14h0l1.1,1.16h0l1.1,1.18h0l1.1,1.2h0l1.1,1.22h0l1.1,1.24h0l1.1,1.27h0l1.1,1.29h0l1.1,1.32h0l1.1,1.34h0l1.1,1.37h0l1.1,1.39h0l1.1,1.42h0l1.1,1.45h0l1.1,1.48h0l1.1,1.51h0l1.1,1.54h0l1.1,1.58h0l1.1,1.61h0l1.1,1.64h0l1.1,1.68h0l1.1,1.72h0l1.1,1.75h0l1.1,1.79h0l1.1,1.83h0l1.1,1.88h0l1.1,1.92h0l1.1,1.97h0l1.1,2.01h0l1.1,2.06h0l1.1,2.11h0l1.1,2.16h0l1.1,2.22h0l1.1,2.27h0l1.1,2.33h0l1.1,2.39h0l1.1,2.45h0l1.1,2.52h0l1.1,2.59h0l1.1,2.66h0l1.1,2.73h0l1.1,2.81h0l1.1,2.89h0l1.1,2.97h0l1.1,3.06h0l1.1,3.15h0l1.1,3.25h0l1.1,3.35h0l1.1,3.45h0l1.1,3.56h0l1.1,3.67h0l1.1,3.79h0l1.1,3.92h0l1.1,4.05h0l1.1,4.19h0l1.1,4.34h0l1.1,4.49h0l1.1,4.66h0l1.1,4.83h0l1.1,5.01h0l1.1,5.2h0l1.1,5.41h0l1.1,5.62h0l1.1,5.85h0l1.1,6.09h0l1.1,6.35h0l1.1,6.63h0l1.1,6.92h0l1.1,7.23h0l1.1,7.57h0l1.1,7.93h0l1.1,8.31h0l1.1,8.73h0l1.1,9.17h0l1.1,9.65h0l1.1,10.17h0l1.1,10.74h0l1.1,11.35h0l1.1,12.01h0l1.1,12.74h0l1.1,13.53h0l1.1,14.4h0l1.1,15.36h0l1.07,15.96M603.31.91h29.15l.87,14.13h0l1.1,16.72h0l1.1,15.63h0l1.1,14.65h0l1.1,13.76h0l1.1,12.95h0l1.1,12.21h0l1.1,11.52h0l1.1,10.9h0l1.1,10.32h0l1.1,9.79h0l1.1,9.3h0l1.1,8.85h0l1.1,8.42h0l1.1,8.03h0l1.1,7.66h0l1.1,7.32h0l1.1,7h0l1.1,6.7h0l1.1,6.42h0l1.1,6.16h0l1.1,5.91h0l1.1,5.68h0l1.1,5.46h0l1.1,5.26h0l1.1,5.06h0l1.1,4.88h0l1.1,4.7h0l1.1,4.54h0l1.1,4.38h0l1.1,4.23h0l1.1,4.09h0l1.1,3.95h0l1.1,3.83h0l1.1,3.71h0l1.1,3.59h0l1.1,3.48h0l1.1,3.37h0l1.1,3.27h0l1.1,3.18h0l1.1,3.08h0l1.1,3h0l1.1,2.91h0l1.1,2.83h0l1.1,2.75h0l1.1,2.68h0l1.1,2.61h0l1.1,2.54h0l1.1,2.47h0l1.1,2.41h0l1.1,2.35h0l1.1,2.29h0l1.1,2.23h0l1.1,2.18h0l1.1,2.12h0l1.1,2.07h0l1.1,2.02h0l1.1,1.98h0l1.1,1.93h0l1.1,1.89h0l1.1,1.85h0l1.1,1.8h0l1.1,1.76h0l1.1,1.73h0l1.1,1.69h0l1.1,1.65h0l1.1,1.62h0l1.1,1.58h0l1.1,1.55h0l1.1,1.52h0l1.1,1.49h0l1.1,1.46h0l1.1,1.43h0l1.1,1.4h0l1.1,1.38h0l1.1,1.35h0l1.1,1.32h0l1.1,1.3h0l1.1,1.27h0l1.1,1.25h0l1.1,1.23h0l1.1,1.2h0l1.1,1.18h0l1.1,1.16h0l1.1,1.14h0l1.1,1.12h0l1.1,1.1h0l1.1,1.08h0l1.1,1.06h0l1.1,1.05h0l1.1,1.03h0l1.1,1.01h0l1.1.99h0l1.1.98h0l1.1.96h0l1.1.95h0l1.1.93h0l1.1.92h0l1.1.9h0l1.1.89h0l1.1.87h0l1.1.86h0l1.1.85h0l1.1.84h0l1.1.82h0l1.1.81h0l1.1.8h0l1.1.79h0l1.1.77h0l1.1.76h0l1.1.75h0l1.1.74h0l1.1.73h0l1.1.72h0l1.1.71h0l1.1.7h0l1.1.69h0l1.1.68h0l1.1.67h0l1.1.66h0l1.1.65h0l1.1.65h0l1.1.64h0l1.1.63h0l1.1.62h0l1.1.61h0l1.1.6h0l1.1.6h0l1.1.59h0l1.1.58h0l1.1.57h0l1.1.57h0l1.1.56h0l1.1.55h0l1.1.55h0l1.1.54h0l1.1.53h0l1.1.53h0l1.1.52h0l1.1.51h0l1.1.51h0l1.1.5h0l1.1.5h0l1.1.49h0l1.1.49h0l1.1.48h0l1.1.47h0l1.1.47h0l1.1.46h0l1.1.46h0l1.1.45h0l1.1.45h0l1.1.44h0l1.1.44h0l1.1.43h0l1.1.43h0l1.1.42h0l1.1.42h0l1.1.41h0l1.1.41h0l1.1.41h0l1.1.4h0l1.1.4h0l1.1.39h0l1.1.39h0l1.1.39h0l1.1.38h0l1.1.38h0l1.1.37h0l1.1.37h0l1.1.37h0l1.1.36h0l1.1.36h0l1.1.36h0l1.1.35h0l1.1.35h0l1.1.35h0l1.1.34h0l1.1.34h0l1.1.34h0l1.1.33h0l1.1.33h0l1.1.33h0l1.1.32h0l1.1.32h0l1.1.32h0l1.1.31h0l1.1.31h0l1.1.31h0l1.1.3h0l1.1.3h0l1.1.3h0l1.1.3h0l1.1.29h0l1.1.29h0l1.1.29h0l1.1.29h0l1.1.28h0l1.1.28h0l1.1.28h0l1.1.28h0l1.1.27h0l1.1.27h0l1.1.27h0l1.1.27h0l1.1.26h0l1.1.26h0l1.1.26h0l1.1.26h0l1.1.26h0l1.1.25h0l1.1.25h0l1.1.25h0l1.1.25h0l1.1.25h0l1.1.24h0l1.1.24h0l1.1.24h0l1.1.24h0l1.1.24h0l1.1.23h0l1.1.23h0l1.1.23h0l1.1.23h0l1.1.23h0l1.1.22h0l1.1.22h0l1.1.22h0l1.1.22h0l1.1.22h0l1.1.22h0l1.1.21h0l1.1.21h0l1.1.21h0l1.1.21h0l1.1.21h0l1.1.21h0l1.1.2h0l1.1.2h0l1.1.2h0l1.1.2h0l1.1.2h0l1.1.2h0l1.1.2h0l1.1.19h0l1.1.19h0l1.1.19h0l1.1.19h0l1.1.19h0l1.1.19h0l1.1.19h0l1.1.18h0l1.1.18h0l1.1.18h0l1.1.18h0l1.1.18h0l1.1.18h0l1.1.18h0l1.1.18h0l1.1.17h0l1.1.17h0l1.1.17h0l1.1.17h0l1.1.17h0l1.1.17h0l1.1.17h0l1.1.17h0l1.1.17h0l1.1.16h0l1.1.16h0l1.1.16h0l1.1.16h0l1.1.16h0l1.1.16h0l1.1.16h0l1.1.16h0l1.1.16h0l1.1.15h0l1.1.15h0l1.1.15h0l1.1.15h0l1.1.15h0l1.1.15h0l1.1.15h0l1.1.15h0l1.1.15h0l1.1.15h0l1.1.14h0l1.1.14h0l1.1.14h0l1.1.14h0l1.1.14h0l1.1.14h0l1.1.14h0l1.1.14h0l1.1.14h0l1.1.14h0l1.1.14h0l1.1.14h0l1.1.13h0l1.1.13h0l1.1.13h0l1.1.13h0l1.1.13h0l1.1.13h0l1.1.13h0l1.1.13h0l1.1.13h0l1.1.13h0l1.1.13h0l1.1.13h0l1.1.13h0l1.1.12h0l1.1.12h0l1.1.12h0l1.1.12h0l1.1.12h0l1.1.12h0l1.1.12h0l1.1.12h0l1.1.12h0l1.1.12h0l1.1.12h0l1.1.12h0l1.1.12h0l1.1.12h0l1.1.11h0l1.1.11h0l1.1.11h0l1.1.11h0l1.1.11h0l1.1.11h0l1.1.11h0l1.1.11h0l1.1.11h0l1.1.11h0l1.1.11h0l1.1.11h0l1.1.11h0l1.1.11h0l1.1.11h0l1.1.11h0l1.1.11h0l1.1.1h0l1.1.1h0l1.1.1h0l1.1.1h0l1.1.1h0l1.1.1h0l1.1.1h0l1.1.1h0l1.1.1h0l1.1.1h0l1.1.1h0l1.1.1h0l1.1.1h0l1.1.1h0l1.1.1h0l1.1.1h0l1.1.1h0l1.1.1h0l1.1.1h0l1.1.09h0l1.1.09h0l1.1.09h0l1.1.09h0l1.1.09h0l1.1.09h0l1.1.09h0l1.1.09h0l1.1.09h0l1.1.09h0l1.1.09h0l1.1.09h0l1.1.09h0l1.1.09h0l1.1.09h0l1.1.09h0l1.1.09h0l1.1.09h0l1.1.09h0l1.1.09h0l1.1.09h0l1.1.09h0l1.1.08h0l1.1.08h0l1.1.08h0l1.1.08h0l1.1.08h0l1.1.08h0l1.1.08h0l1.1.08h0l1.1.08h0l1.1.08h0l1.1.08h0l1.1.08h0l1.1.08h0l1.1.08h0l1.1.08h0l1.1.08h0l1.1.08h0l1.1.08h0l1.1.08h0l1.1.08h0l1.1.08h0l1.1.08h0l1.1.08h0l1.1.08h0l1.1.08h0l1.1.08h0l1.1.07h0l1.1.07h0l1.1.07h0l1.1.07h0l1.1.07h0l1.1.07h0l1.1.07h0l1.1.07h0l1.1.07h0l1.1.07h0l1.1.07h0l1.1.07h0l1.1.07h0l1.1.07h0l1.1.07h0l1.1.07h0l1.1.07h0l1.1.07h0l1.1.07h0l1.1.07h0l1.1.07h0l1.1.07h0l1.1.07h0l1.1.07h0l1.1.07h0l1.1.07h0l1.1.07h0l1.1.07h0l1.1.07h0l1.1.07h0l1.1.07h0l1.1.07h0l1.1.07h0l1.1.06h0l1.1.06h0l1.1.06h0l1.1.06h0l1.1.06h0l1.1.06h0l1.1.06h0l1.1.06h0l1.1.06h0l1.1.06h0l1.1.06h0l1.1.06h0l1.1.06h0l1.1.06h0l1.1.06h0l1.1.06h0l1.1.06h0l1.1.06h0l1.1.06h0l1.1.06h0l1.1.06h0l1.1.06h0l1.1.06h0l1.1.06h0l1.1.06h0l1.1.06h0l1.1.06h0l1.1.06h0l1.1.06h0l1.1.06h0l1.1.06h0l1.1.06h0l1.1.06h0l1.1.06h0l1.1.06h0l1.1.06h0l1.1.06h0l1.1.06h0l1.1.06h0l1.1.06h0l1.1.06h0l1.1.05h0l1.1.05h0l1.1.05h0l1.1.05h0l1.1.05h0l1.1.05h0l1.1.05h0l1.1.05h0l1.1.05h0l1.1.05h0l1.1.05h0l1.1.05h0l1.1.05h0l1.1.05h0l1.1.05h0l1.1.05h0l1.1.05h0l1.1.05h0l1.1.05h0l1.1.05h0l1.1.05h0l1.1.05h0l1.1.05h0l1.1.05h0l1.1.05h0l1.1.05h0l1.1.05h0l1.1.05h0l1.1.05h0l1.1.05h0l1.1.05h0l1.1.05h0l1.1.05h0l1.1.05h0l1.1.05h0l1.1.05h0l1.1.05h0l1.1.05h0l1.1.05h0l1.1.05h0l1.1.05h0l1.1.05h0l1.1.05h0l1.1.05h0l1.1.05h0l1.1.05h0l1.1.05h0l1.1.05h0l1.1.05"/></g></g><g id="c"><path class="l" d="m-2-1.77v1013.91h1237V-1.77H-2Zm1220,976.91c0,11.05-8.95,20-20,20H35c-11.05,0-20-8.95-20-20V35.23c0-11.05,8.95-20,20-20h1163c11.05,0,20,8.95,20,20v939.91Z"/></g></svg>