<?xml version="1.0" encoding="UTF-8"?><svg xmlns="http://www.w3.org/2000/svg" xmlns:xlink="http://www.w3.org/1999/xlink" viewBox="0 0 1232.74 1010.14"><defs><style>.e{fill:#fff;}.f{stroke:rgba(120,89,209,.8);stroke-linecap:round;stroke-linejoin:round;stroke-width:7px;}.f,.g,.h,.i,.j{fill:none;}.g{stroke:#fff;stroke-linejoin:bevel;stroke-width:3px;}.g,.k{font-family:Helvetica-Bold, Helvetica;font-size:13.21px;font-weight:700;isolation:isolate;}.h{clip-path:url(#b);}.i{stroke:#252525;stroke-miterlimit:10;stroke-width:2px;}.l{fill:#00699b;}.k{fill:#252525;}</style><clipPath id="b"><rect class="j" x="-2" y="15.23" width="1220" height="978.86"/></clipPath></defs><g id="a"><g class="h"><rect class="e" x="-2" y="15.23" width="1220" height="978.86"/><path class="i" d="m600.29,18.53v975.56"/><path class="i" d="m600.29,17.43l-5.51,5.51"/><path class="i" d="m600.29,17.43l5.51,5.51"/><path class="i" d="m-2,508.51h1216.7"/><path class="i" d="m1215.8,508.51l-5.51-5.51"/><path class="i" d="m1215.8,508.51l-5.51,5.51"/><text class="k" transform="translate(27.73 526.13)"><tspan x="0" y="0">–10</tspan></text><text class="g" transform="translate(27.73 526.13)"><tspan x="0" y="0">–10</tspan></text><text class="k" transform="translate(27.73 526.13)"><tspan x="0" y="0">–10</tspan></text><path class="i" d="m38.74,508.51v3.3"/><text class="k" transform="translate(143.34 526.13)"><tspan x="0" y="0">–8</tspan></text><text class="g" transform="translate(143.34 526.13)"><tspan x="0" y="0">–8</tspan></text><text class="k" transform="translate(143.34 526.13)"><tspan x="0" y="0">–8</tspan></text><path class="i" d="m151.05,508.51v3.3"/><text class="k" transform="translate(256.75 526.13)"><tspan x="0" y="0">–6</tspan></text><text class="g" transform="translate(256.75 526.13)"><tspan x="0" y="0">–6</tspan></text><text class="k" transform="translate(256.75 526.13)"><tspan x="0" y="0">–6</tspan></text><path class="i" d="m263.36,508.51v3.3"/><text class="k" transform="translate(369.06 526.13)"><tspan x="0" y="0">–4</tspan></text><text class="g" transform="translate(369.06 526.13)"><tspan x="0" y="0">–4</tspan></text><text class="k" transform="translate(369.06 526.13)"><tspan x="0" y="0">–4</tspan></text><path class="i" d="m375.67,508.51v3.3"/><text class="k" transform="translate(481.38 526.13)"><tspan x="0" y="0">–2</tspan></text><text class="g" transform="translate(481.38 526.13)"><tspan x="0" y="0">–2</tspan></text><text class="k" transform="translate(481.38 526.13)"><tspan x="0" y="0">–2</tspan></text><path class="i" d="m487.98,508.51v3.3"/><path class="i" d="m600.29,508.51v3.3"/><text class="k" transform="translate(709.3 526.13)"><tspan x="0" y="0">2</tspan></text><text class="g" transform="translate(709.3 526.13)"><tspan x="0" y="0">2</tspan></text><text class="k" transform="translate(709.3 526.13)"><tspan x="0" y="0">2</tspan></text><path class="i" d="m712.6,508.51v3.3"/><text class="k" transform="translate(821.61 526.13)"><tspan x="0" y="0">4</tspan></text><text class="g" transform="translate(821.61 526.13)"><tspan x="0" y="0">4</tspan></text><text class="k" transform="translate(821.61 526.13)"><tspan x="0" y="0">4</tspan></text><path class="i" d="m824.91,508.51v3.3"/><text class="k" transform="translate(933.92 526.13)"><tspan x="0" y="0">6</tspan></text><text class="g" transform="translate(933.92 526.13)"><tspan x="0" y="0">6</tspan></text><text class="k" transform="translate(933.92 526.13)"><tspan x="0" y="0">6</tspan></text><path class="i" d="m937.22,508.51v3.3"/><text class="k" transform="translate(1046.23 526.13)"><tspan x="0" y="0">8</tspan></text><text class="g" transform="translate(1046.23 526.13)"><tspan x="0" y="0">8</tspan></text><text class="k" transform="translate(1046.23 526.13)"><tspan x="0" y="0">8</tspan></text><path class="i" d="m1049.53,508.51v3.3"/><text class="k" transform="translate(1155.24 526.13)"><tspan x="0" y="0">10</tspan></text><text class="g" transform="translate(1155.24 526.13)"><tspan x="0" y="0">10</tspan></text><text class="k" transform="translate(1155.24 526.13)"><tspan x="0" y="0">10</tspan></text><path class="i" d="m1162.95,508.51v3.3"/><path class="i" d="m596.99,957.76h3.3"/><path class="i" d="m596.99,733.13h3.3"/><path class="i" d="m596.99,283.89h3.3"/><path class="i" d="m596.99,59.27h3.3"/><text class="k" transform="translate(578.27 963.26)"><tspan x="0" y="0">–2</tspan></text><text class="g" transform="translate(578.27 963.26)"><tspan x="0" y="0">–2</tspan></text><text class="k" transform="translate(578.27 963.26)"><tspan x="0" y="0">–2</tspan></text><text class="k" transform="translate(578.27 738.64)"><tspan x="0" y="0">–1</tspan></text><text class="g" transform="translate(578.27 738.64)"><tspan x="0" y="0">–1</tspan></text><text class="k" transform="translate(578.27 738.64)"><tspan x="0" y="0">–1</tspan></text><text class="k" transform="translate(584.88 289.4)"><tspan x="0" y="0">1</tspan></text><text class="g" transform="translate(584.88 289.4)"><tspan x="0" y="0">1</tspan></text><text class="k" transform="translate(584.88 289.4)"><tspan x="0" y="0">1</tspan></text><text class="k" transform="translate(584.88 63.68)"><tspan x="0" y="0">2</tspan></text><text class="g" transform="translate(584.88 63.68)"><tspan x="0" y="0">2</tspan></text><text class="k" transform="translate(584.88 63.68)"><tspan x="0" y="0">2</tspan></text><text class="k" transform="translate(584.88 526.13)"><tspan x="0" y="0">0</tspan></text><text class="g" transform="translate(584.88 526.13)"><tspan x="0" y="0">0</tspan></text><text class="k" transform="translate(584.88 526.13)"><tspan x="0" y="0">0</tspan></text><path class="f" d="m-.9,568.09v4.24h0l1.1,4.21H.2l1.1,4.18h0l1.1,4.16h0l1.1,4.13h0l1.1,4.1h0l1.1,4.06h0l1.1,4.03h0l1.1,4h0l1.1,3.96h0l1.1,3.92h0l1.1,3.88h0l1.1,3.84h0l1.1,3.79h0l1.1,3.75h0l1.1,3.7h0l1.1,3.66h0l1.1,3.61h0l1.1,3.56h0l1.1,3.51h0l1.1,3.45h0l1.1,3.4h0l1.1,3.34h0l1.1,3.29h0l1.1,3.23h0l1.1,3.17h0l1.1,3.11h0l1.1,3.05h0l1.1,2.98h0l1.1,2.92h0l1.1,2.85h0l1.1,2.79h0l1.1,2.72h0l1.1,2.65h0l1.1,2.58h0l1.1,2.51h0l1.1,2.44h0l1.1,2.37h0l1.1,2.3h0l1.1,2.22h0l1.1,2.15h0l1.1,2.07h0l1.1,1.99h0l1.1,1.92h0l1.1,1.84h0l1.1,1.76h0l1.1,1.68h0l1.1,1.6h0l1.1,1.52h0l1.1,1.44h0l1.1,1.36h0l1.1,1.27h0l1.1,1.19h0l1.1,1.11h0l1.1,1.02h0l1.1.94h0l1.1.86h0l1.1.77h0l1.1.69h0l1.1.6h0l1.1.51h0l1.1.43h0l1.1.34h0l1.1.26h0l1.1.17h0l1.1.08h0s1.1,0,1.1,0h0s1.1-.1,1.1-.1h0l1.1-.17h0l1.1-.26h0l1.1-.35h0l1.1-.43h0l1.1-.52h0l1.1-.6h0l1.1-.69h0l1.1-.78h0l1.1-.86h0l1.1-.94h0l1.1-1.03h0l1.1-1.11h0l1.1-1.2h0l1.1-1.28h0l1.1-1.36h0l1.1-1.44h0l1.1-1.52h0l1.1-1.6h0l1.1-1.68h0l1.1-1.76h0l1.1-1.84h0l1.1-1.92h0l1.1-2h0l1.1-2.07h0l1.1-2.15h0l1.1-2.23h0l1.1-2.3h0l1.1-2.37h0l1.1-2.44h0l1.1-2.52h0l1.1-2.59h0l1.1-2.66h0l1.1-2.72h0l1.1-2.79h0l1.1-2.86h0l1.1-2.92h0l1.1-2.99h0l1.1-3.05h0l1.1-3.11h0l1.1-3.17h0l1.1-3.23h0l1.1-3.29h0l1.1-3.35h0l1.1-3.4h0l1.1-3.46h0l1.1-3.51h0l1.1-3.56h0l1.1-3.61h0l1.1-3.66h0l1.1-3.71h0l1.1-3.75h0l1.1-3.8h0l1.1-3.84h0l1.1-3.88h0l1.1-3.92h0l1.1-3.96h0l1.1-4h0l1.1-4.03h0l1.1-4.07h0l1.1-4.1h0l1.1-4.13h0l1.1-4.16h0l1.1-4.19h0l1.1-4.21h0l1.1-4.24h0l1.1-4.26h0l1.1-4.28h0l1.1-4.3h0l1.1-4.32h0l1.1-4.33h0l1.1-4.35h0l1.1-4.36h0l1.1-4.37h0l1.1-4.38h0l1.1-4.39h0l1.1-4.4h0l1.1-4.4h0l1.1-4.4h0l1.1-4.4h0l1.1-4.4h0l1.1-4.4h0l1.1-4.4h0l1.1-4.39h0l1.1-4.38h0l1.1-4.38h0l1.1-4.36h0l1.1-4.35h0l1.1-4.34h0l1.1-4.32h0l1.1-4.3h0l1.1-4.29h0l1.1-4.26h0l1.1-4.24h0l1.1-4.22h0l1.1-4.19h0l1.1-4.17h0l1.1-4.14h0l1.1-4.11h0l1.1-4.07h0l1.1-4.04h0l1.1-4.01h0l1.1-3.97h0l1.1-3.93h0l1.1-3.89h0l1.1-3.85h0l1.1-3.81h0l1.1-3.76h0l1.1-3.72h0l1.1-3.67h0l1.1-3.62h0l1.1-3.57h0l1.1-3.52h0l1.1-3.47h0l1.1-3.41h0l1.1-3.36h0l1.1-3.3h0l1.1-3.24h0l1.1-3.19h0l1.1-3.13h0l1.1-3.06h0l1.1-3h0l1.1-2.94h0l1.1-2.87h0l1.1-2.81h0l1.1-2.74h0l1.1-2.67h0l1.1-2.6h0l1.1-2.53h0l1.1-2.46h0l1.1-2.39h0l1.1-2.32h0l1.1-2.24h0l1.1-2.17h0l1.1-2.09h0l1.1-2.02h0l1.1-1.94h0l1.1-1.86h0l1.1-1.78h0l1.1-1.7h0l1.1-1.62h0l1.1-1.54h0l1.1-1.46h0l1.1-1.38h0l1.1-1.3h0l1.1-1.21h0l1.1-1.13h0l1.1-1.05h0l1.1-.96h0l1.1-.88h0l1.1-.79h0l1.1-.71h0l1.1-.62h0l1.1-.54h0l1.1-.45h0l1.1-.37h0l1.1-.28h0l1.1-.19h0l1.1-.11h0l1.1-.02h0s1.1.07,1.1.07h0l1.1.15h0l1.1.24h0l1.1.32h0l1.1.41h0l1.1.49h0l1.1.58h0l1.1.67h0l1.1.75h0l1.1.84h0l1.1.92h0l1.1,1h0l1.1,1.09h0l1.1,1.17h0l1.1,1.25h0l1.1,1.34h0l1.1,1.42h0l1.1,1.5h0l1.1,1.58h0l1.1,1.66h0l1.1,1.74h0l1.1,1.82h0l1.1,1.9h0l1.1,1.98h0l1.1,2.05h0l1.1,2.13h0l1.1,2.2h0l1.1,2.28h0l1.1,2.35h0l1.1,2.42h0l1.1,2.5h0l1.1,2.57h0l1.1,2.64h0l1.1,2.71h0l1.1,2.77h0l1.1,2.84h0l1.1,2.9h0l1.1,2.97h0l1.1,3.03h0l1.1,3.09h0l1.1,3.15h0l1.1,3.21h0l1.1,3.27h0l1.1,3.33h0l1.1,3.39h0l1.1,3.44h0l1.1,3.49h0l1.1,3.55h0l1.1,3.6h0l1.1,3.65h0l1.1,3.69h0l1.1,3.74h0l1.1,3.78h0l1.1,3.83h0l1.1,3.87h0l1.1,3.91h0l1.1,3.95h0l1.1,3.99h0l1.1,4.02h0l1.1,4.06h0l1.1,4.09h0l1.1,4.12h0l1.1,4.15h0l1.1,4.18h0l1.1,4.21h0l1.1,4.23h0l1.1,4.25h0l1.1,4.27h0l1.1,4.29h0l1.1,4.31h0l1.1,4.33h0l1.1,4.34h0l1.1,4.36h0l1.1,4.37h0l1.1,4.38h0l1.1,4.39h0l1.1,4.39h0l1.1,4.4h0l1.1,4.4h0l1.1,4.4h0l1.1,4.4h0l1.1,4.4h0l1.1,4.4h0l1.1,4.39h0l1.1,4.39h0l1.1,4.38h0l1.1,4.37h0l1.1,4.36h0l1.1,4.34h0l1.1,4.33h0l1.1,4.31h0l1.1,4.29h0l1.1,4.27h0l1.1,4.25h0l1.1,4.23h0l1.1,4.2h0l1.1,4.17h0l1.1,4.14h0l1.1,4.11h0l1.1,4.08h0l1.1,4.05h0l1.1,4.02h0l1.1,3.98h0l1.1,3.94h0l1.1,3.9h0l1.1,3.86h0l1.1,3.82h0l1.1,3.78h0l1.1,3.73h0l1.1,3.68h0l1.1,3.64h0l1.1,3.59h0l1.1,3.54h0l1.1,3.48h0l1.1,3.43h0l1.1,3.37h0l1.1,3.32h0l1.1,3.26h0l1.1,3.2h0l1.1,3.14h0l1.1,3.08h0l1.1,3.02h0l1.1,2.96h0l1.1,2.89h0l1.1,2.83h0l1.1,2.76h0l1.1,2.69h0l1.1,2.62h0l1.1,2.55h0l1.1,2.48h0l1.1,2.41h0l1.1,2.34h0l1.1,2.26h0l1.1,2.19h0l1.1,2.11h0l1.1,2.04h0l1.1,1.96h0l1.1,1.88h0l1.1,1.8h0l1.1,1.73h0l1.1,1.65h0l1.1,1.57h0l1.1,1.48h0l1.1,1.4h0l1.1,1.32h0l1.1,1.24h0l1.1,1.16h0l1.1,1.07h0l1.1.99h0l1.1.9h0l1.1.82h0l1.1.73h0l1.1.65h0l1.1.56h0l1.1.48h0l1.1.39h0l1.1.31h0l1.1.22h0l1.1.13h0l1.1.05v-.04l1.1.04v-.04l1.1-.13h0l1.1-.21h0l1.1-.3h0l1.1-.38h0l1.1-.47h0l1.1-.56h0l1.1-.64h0l1.1-.73h0l1.1-.81h0l1.1-.9h0l1.1-.98h0l1.1-1.06h0l1.1-1.15h0l1.1-1.23h0l1.1-1.31h0l1.1-1.4h0l1.1-1.48h0l1.1-1.56h0l1.1-1.64h0l1.1-1.72h0l1.1-1.8h0l1.1-1.88h0l1.1-1.95h0l1.1-2.03h0l1.1-2.11h0l1.1-2.18h0l1.1-2.26h0l1.1-2.33h0l1.1-2.4h0l1.1-2.48h0l1.1-2.55h0l1.1-2.62h0l1.1-2.69h0l1.1-2.75h0l1.1-2.82h0l1.1-2.89h0l1.1-2.95h0l1.1-3.01h0l1.1-3.08h0l1.1-3.14h0l1.1-3.2h0l1.1-3.26h0l1.1-3.31h0l1.1-3.37h0l1.1-3.43h0l1.1-3.48h0l1.1-3.53h0l1.1-3.58h0l1.1-3.63h0l1.1-3.68h0l1.1-3.73h0l1.1-3.77h0l1.1-3.82h0l1.1-3.86h0l1.1-3.9h0l1.1-3.94h0l1.1-3.98h0l1.1-4.01h0l1.1-4.05h0l1.1-4.08h0l1.1-4.11h0l1.1-4.14h0l1.1-4.17h0l1.1-4.2h0l1.1-4.22h0l1.1-4.25h0l1.1-4.27h0l1.1-4.29h0l1.1-4.31h0l1.1-4.33h0l1.1-4.34h0l1.1-4.35h0l1.1-4.37h0l1.1-4.38h0l1.1-4.39h0l1.1-4.39h0l1.1-4.4h0l1.1-4.4h0l1.1-4.4h0l1.1-4.4h0l1.1-4.4h0l1.1-4.4h0l1.1-4.39h0l1.1-4.39h0l1.1-4.38h0l1.1-4.37h0l1.1-4.36h0l1.1-4.35h0l1.1-4.33h0l1.1-4.31h0l1.1-4.3h0l1.1-4.28h0l1.1-4.26h0l1.1-4.23h0l1.1-4.21h0l1.1-4.18h0l1.1-4.15h0l1.1-4.12h0l1.1-4.09h0l1.1-4.06h0l1.1-4.03h0l1.1-3.99h0l1.1-3.95h0l1.1-3.91h0l1.1-3.87h0l1.1-3.83h0l1.1-3.79h0l1.1-3.74h0l1.1-3.7h0l1.1-3.65h0l1.1-3.6h0l1.1-3.55h0l1.1-3.5h0l1.1-3.45h0l1.1-3.39h0l1.1-3.33h0l1.1-3.28h0l1.1-3.22h0l1.1-3.16h0l1.1-3.1h0l1.1-3.04h0l1.1-2.97h0l1.1-2.91h0l1.1-2.84h0l1.1-2.78h0l1.1-2.71h0l1.1-2.64h0l1.1-2.57h0l1.1-2.5h0l1.1-2.43h0l1.1-2.36h0l1.1-2.28h0l1.1-2.21h0l1.1-2.14h0l1.1-2.06h0l1.1-1.98h0l1.1-1.91h0l1.1-1.83h0l1.1-1.75h0l1.1-1.67h0l1.1-1.59h0l1.1-1.51h0l1.1-1.43h0l1.1-1.34h0l1.1-1.26h0l1.1-1.18h0l1.1-1.1h0l1.1-1.01h0l1.1-.93h0l1.1-.84h0l1.1-.76h0l1.1-.67h0l1.1-.59h0l1.1-.5h0l1.1-.42h0l1.1-.33h0l1.1-.24h0l1.1-.16h0l1.1-.07v.02l1.1-.02v.02l1.1.1h0l1.1.19h0l1.1.27h0l1.1.36h0l1.1.45h0l1.1.53h0l1.1.62h0l1.1.7h0l1.1.79h0l1.1.87h0l1.1.96h0l1.1,1.04h0l1.1,1.12h0l1.1,1.21h0l1.1,1.29h0l1.1,1.37h0l1.1,1.45h0l1.1,1.54h0l1.1,1.62h0l1.1,1.7h0l1.1,1.78h0l1.1,1.85h0l1.1,1.93h0l1.1,2.01h0l1.1,2.09h0l1.1,2.16h0l1.1,2.24h0l1.1,2.31h0l1.1,2.38h0l1.1,2.46h0l1.1,2.53h0l1.1,2.6h0l1.1,2.67h0l1.1,2.73h0l1.1,2.8h0l1.1,2.87h0l1.1,2.93h0l1.1,3h0l1.1,3.06h0l1.1,3.12h0l1.1,3.18h0l1.1,3.24h0l1.1,3.3h0l1.1,3.35h0l1.1,3.41h0l1.1,3.46h0l1.1,3.52h0l1.1,3.57h0l1.1,3.62h0l1.1,3.67h0l1.1,3.71h0l1.1,3.76h0l1.1,3.8h0l1.1,3.85h0l1.1,3.89h0l1.1,3.93h0l1.1,3.97h0l1.1,4h0l1.1,4.04h0l1.1,4.07h0l1.1,4.1h0l1.1,4.13h0l1.1,4.16h0l1.1,4.19h0l1.1,4.22h0l1.1,4.24h0l1.1,4.26h0l1.1,4.28h0l1.1,4.3h0l1.1,4.32h0l1.1,4.34h0l1.1,4.35h0l1.1,4.36h0l1.1,4.37h0l1.1,4.38h0l1.1,4.39h0l1.1,4.4h0l1.1,4.4h0l1.1,4.4h0l1.1,4.4h0l1.1,4.4h0l1.1,4.4h0l1.1,4.4h0l1.1,4.39h0l1.1,4.38h0l1.1,4.37h0l1.1,4.36h0l1.1,4.35h0l1.1,4.34h0l1.1,4.32h0l1.1,4.3h0l1.1,4.28h0l1.1,4.26h0l1.1,4.24h0l1.1,4.21h0l1.1,4.19h0l1.1,4.16h0l1.1,4.13h0l1.1,4.1h0l1.1,4.07h0l1.1,4.04h0l1.1,4h0l1.1,3.96h0l1.1,3.92h0l1.1,3.88h0l1.1,3.84h0l1.1,3.8h0l1.1,3.76h0l1.1,3.71h0l1.1,3.66h0l1.1,3.61h0l1.1,3.56h0l1.1,3.51h0l1.1,3.46h0l1.1,3.41h0l1.1,3.35h0l1.1,3.29h0l1.1,3.24h0l1.1,3.18h0l1.1,3.12h0l1.1,3.06h0l1.1,2.99h0l1.1,2.93h0l1.1,2.86h0l1.1,2.8h0l1.1,2.73h0l1.1,2.66h0l1.1,2.59h0l1.1,2.52h0l1.1,2.45h0l1.1,2.38h0l1.1,2.31h0l1.1,2.23h0l1.1,2.16h0l1.1,2.08h0l1.1,2h0l1.1,1.93h0l1.1,1.85h0l1.1,1.77h0l1.1,1.69h0l1.1,1.61h0l1.1,1.53h0l1.1,1.45h0l1.1,1.37h0l1.1,1.29h0l1.1,1.2h0l1.1,1.12h0l1.1,1.04h0l1.1.95h0l1.1.87h0l1.1.78h0l1.1.7h0l1.1.61h0l1.1.53h0l1.1.44h0l1.1.35h0l1.1.27h0l1.1.18h0l1.1.1h0l1.1.02h0s1.1-.08,1.1-.08h0l1.1-.16h0l1.1-.25h0l1.1-.34h0l1.1-.42h0l1.1-.51h0l1.1-.59h0l1.1-.68h0l1.1-.76h0l1.1-.85h0l1.1-.93h0l1.1-1.02h0l1.1-1.1h0l1.1-1.18h0l1.1-1.27h0l1.1-1.35h0l1.1-1.43h0l1.1-1.51h0l1.1-1.59h0l1.1-1.67h0l1.1-1.75h0l1.1-1.83h0l1.1-1.91h0l1.1-1.99h0l1.1-2.06h0l1.1-2.14h0l1.1-2.22h0l1.1-2.29h0l1.1-2.36h0l1.1-2.44h0l1.1-2.51h0l1.1-2.58h0l1.1-2.65h0l1.1-2.72h0l1.1-2.78h0l1.1-2.85h0l1.1-2.91h0l1.1-2.98h0l1.1-3.04h0l1.1-3.1h0l1.1-3.16h0l1.1-3.22h0l1.1-3.28h0l1.1-3.34h0l1.1-3.39h0l1.1-3.45h0l1.1-3.5h0l1.1-3.55h0l1.1-3.6h0l1.1-3.65h0l1.1-3.7h0l1.1-3.75h0l1.1-3.79h0l1.1-3.83h0l1.1-3.88h0l1.1-3.92h0l1.1-3.95h0l1.1-3.99h0l1.1-4.03h0l1.1-4.06h0l1.1-4.09h0l1.1-4.13h0l1.1-4.15h0l1.1-4.18h0l1.1-4.21h0l1.1-4.23h0l1.1-4.26h0l1.1-4.28h0l1.1-4.3h0l1.1-4.32h0l1.1-4.33h0l1.1-4.35h0l1.1-4.36h0l1.1-4.37h0l1.1-4.38h0l1.1-4.39h0l1.1-4.4h0l1.1-4.4h0l1.1-4.4h0l1.1-4.4h0l1.1-4.4h0l1.1-4.4h0l1.1-4.4h0l1.1-4.39h0l1.1-4.39h0l1.1-4.38h0l1.1-4.37h0l1.1-4.35h0l1.1-4.34h0l1.1-4.32h0l1.1-4.31h0l1.1-4.29h0l1.1-4.27h0l1.1-4.25h0l1.1-4.22h0l1.1-4.2h0l1.1-4.17h0l1.1-4.14h0l1.1-4.11h0l1.1-4.08h0l1.1-4.05h0l1.1-4.01h0l1.1-3.97h0l1.1-3.94h0l1.1-3.9h0l1.1-3.86h0l1.1-3.81h0l1.1-3.77h0l1.1-3.72h0l1.1-3.68h0l1.1-3.63h0l1.1-3.58h0l1.1-3.53h0l1.1-3.48h0l1.1-3.42h0l1.1-3.37h0l1.1-3.31h0l1.1-3.25h0l1.1-3.19h0l1.1-3.13h0l1.1-3.07h0l1.1-3.01h0l1.1-2.95h0l1.1-2.88h0l1.1-2.82h0l1.1-2.75h0l1.1-2.68h0l1.1-2.61h0l1.1-2.54h0l1.1-2.47h0l1.1-2.4h0l1.1-2.33h0l1.1-2.25h0l1.1-2.18h0l1.1-2.1h0l1.1-2.03h0l1.1-1.95h0l1.1-1.87h0l1.1-1.79h0l1.1-1.71h0l1.1-1.63h0l1.1-1.55h0l1.1-1.47h0l1.1-1.39h0l1.1-1.31h0l1.1-1.23h0l1.1-1.14h0l1.1-1.06h0l1.1-.98h0l1.1-.89h0l1.1-.81h0l1.1-.72h0l1.1-.64h0l1.1-.55h0l1.1-.46h0l1.1-.38h0l1.1-.29h0l1.1-.21h0l1.1-.12h0l1.1-.03h0s1.1.05,1.1.05h0l1.1.14h0l1.1.22h0l1.1.31h0l1.1.4h0l1.1.48h0l1.1.57h0l1.1.65h0l1.1.74h0l1.1.82h0l1.1.91h0l1.1.99h0l1.1,1.08h0l1.1,1.16h0l1.1,1.24h0l1.1,1.33h0l1.1,1.41h0l1.1,1.49h0l1.1,1.57h0l1.1,1.65h0l1.1,1.73h0l1.1,1.81h0l1.1,1.89h0l1.1,1.97h0l1.1,2.04h0l1.1,2.12h0l1.1,2.19h0l1.1,2.27h0l1.1,2.34h0l1.1,2.41h0l1.1,2.49h0l1.1,2.56h0l1.1,2.63h0l1.1,2.7h0l1.1,2.76h0l1.1,2.83h0l1.1,2.9h0l1.1,2.96h0l1.1,3.02h0l1.1,3.09h0l1.1,3.15h0l1.1,3.21h0l1.1,3.27h0l1.1,3.32h0l1.1,3.38h0l1.1,3.43h0l1.1,3.49h0l1.1,3.54h0l1.1,3.59h0l1.1,3.64h0l1.1,3.69h0l1.1,3.73h0l1.1,3.78h0l1.1,3.82h0l1.1,3.86h0l1.1,3.9h0l1.1,3.94h0l1.1,3.98h0l1.1,4.02h0l1.1,4.05h0l1.1,4.09h0l1.1,4.12h0l1.1,4.15h0l1.1,4.17h0l1.1,4.2h0l1.1,4.23h0l1.1,4.25h0l1.1,4.27h0l1.1,4.29h0l1.1,4.31h0l1.1,4.33h0l1.1,4.34h0l1.1,4.36h0l1.1,4.37h0l1.1,4.38h0l1.1,4.39h0l1.1,4.39h0l1.1,4.4h0l1.1,4.4h0l1.1,4.4h0l1.1,4.4h0l1.1,4.4h0l1.1,4.4h0l1.1,4.39h0l1.1,4.39h0l1.1,4.38h0l1.1,4.37h0l1.1,4.36h0l1.1,4.34h0l1.1,4.33h0l1.1,4.31h0l1.1,4.29h0l1.1,4.27h0l1.1,4.25h0l1.1,4.23h0l1.1,4.2h0l1.1,4.18h0l1.1,4.15h0l1.1,4.12h0l1.1,4.09h0l1.1,4.05h0l1.1,4.02h0l1.1,3.98h0l1.1,3.95h0l1.1,3.91h0l1.1,3.87h0l1.1,3.82h0l1.1,3.78h0l1.1,3.74h0l1.1,3.69h0l1.1,3.64h0l1.1,3.59h0l1.1,3.54h0l1.1,3.49h0l1.1,3.44h0l1.1,3.38h0l1.1,3.33h0l1.1,3.27h0l1.1,3.21h0l1.1,3.15h0l1.1,3.09h0l1.1,3.03h0l1.1,2.96h0l1.1,2.9h0l1.1,2.83h0l1.1,2.77h0l1.1,2.7h0l1.1,2.63h0l1.1,2.56h0l1.1,2.49h0l1.1,2.42h0l1.1,2.35h0l1.1,2.27h0l1.1,2.2h0l1.1,2.12h0l1.1,2.05h0l1.1,1.97h0l1.1,1.89h0l1.1,1.82h0l1.1,1.74h0l1.1,1.66h0l1.1,1.58h0l1.1,1.5h0l1.1,1.41h0l1.1,1.33h0l1.1,1.25h0l1.1,1.17h0l1.1,1.08h0l1.1,1h0l1.1.92h0l1.1.83h0l1.1.75h0l1.1.66h0l1.1.57h0l1.1.49h0l1.1.4h0l1.1.32h0l1.1.23h0l1.1.14h0l1.1.06v-.03l1.1.03v-.03l1.1-.11h0l1.1-.2h0l1.1-.29h0l1.1-.37h0l1.1-.46h0l1.1-.54h0l1.1-.63h0l1.1-.72h0l1.1-.8h0l1.1-.88h0l1.1-.97h0l1.1-1.05h0l1.1-1.14h0l1.1-1.22h0l1.1-1.3h0l1.1-1.39h0l1.1-1.47h0l1.1-1.55h0l1.1-1.63h0l1.1-1.71h0l1.1-1.79h0l1.1-1.87h0l1.1-1.94h0l1.1-2.02h0l1.1-2.1h0l1.1-2.17h0l1.1-2.25h0l1.1-2.32h0l1.1-2.39h0l1.1-2.47h0l1.1-2.54h0l1.1-2.61h0l1.1-2.68h0l1.1-2.74h0l1.1-2.81h0l1.1-2.88h0l1.1-2.94h0l1.1-3.01h0l1.1-3.07h0l1.1-3.13h0l1.1-3.19h0l1.1-3.25h0l1.1-3.31h0l1.1-3.36h0l1.1-3.42h0l1.1-3.47h0l1.1-3.52h0l1.1-3.58h0l1.1-3.62h0l1.1-3.67h0l1.1-3.72h0l1.1-3.77h0l1.1-3.81h0l1.1-3.85h0l1.1-3.89h0l1.1-3.93h0l1.1-3.97h0l1.1-4.01h0l1.1-4.04h0l1.1-4.08h0l1.1-4.11h0l1.1-4.14h0l1.1-4.17h0l1.1-4.19h0l1.1-4.22h0l1.1-4.24h0l1.1-4.27h0l1.1-4.29h0l1.1-4.31h0l1.1-4.32h0l1.1-4.34h0l1.1-4.35h0l1.1-4.36h0l1.1-4.38h0l1.1-4.38h0l1.1-4.39h0l1.1-4.4h0l1.1-4.4h0l1.1-4.4"/></g></g><g id="c"><path class="l" d="m-2-1.77v1013.91h1237V-1.77H-2Zm1220,976.91c0,11.05-8.95,20-20,20H35c-11.05,0-20-8.95-20-20V35.23c0-11.05,8.95-20,20-20h1163c11.05,0,20,8.95,20,20v939.91Z"/></g></svg>