<?xml version="1.0" encoding="UTF-8"?><svg xmlns="http://www.w3.org/2000/svg" xmlns:xlink="http://www.w3.org/1999/xlink" viewBox="0 0 1232.74 1010.14"><defs><style>.e{fill:#fff;}.f{stroke:#fff;stroke-linejoin:bevel;stroke-width:3px;}.f,.g,.h,.i,.j,.k{fill:none;}.f,.l{font-family:Helvetica-Bold, Helvetica;font-size:13.21px;font-weight:700;isolation:isolate;}.g{clip-path:url(#b);}.h{stroke:#252525;stroke-miterlimit:10;stroke-width:2px;}.m{fill:#00699b;}.l{fill:#252525;}.j{stroke:rgba(0,0,255,.7);stroke-width:2.5px;}.j,.k{stroke-linecap:round;stroke-linejoin:round;}.k{stroke:rgba(0,204,97,.8);stroke-width:7px;}</style><clipPath id="b"><rect class="i" x="6.37" y="15.23" width="1220" height="978.86"/></clipPath></defs><g id="a"><g class="g"><rect class="e" x="6.37" y="15.23" width="1220" height="978.86"/><path class="h" d="m615.27,18.53v975.56"/><path class="h" d="m615.27,17.43l-5.51,5.51"/><path class="h" d="m615.27,17.43l5.51,5.51"/><path class="h" d="m6.37,511.82h1210.7"/><path class="h" d="m1218.17,511.82l-5.51-5.51"/><path class="h" d="m1218.17,511.82l-5.51,5.51"/><text class="l" transform="translate(103.27 528.33)"><tspan x="0" y="0">–4</tspan></text><text class="f" transform="translate(103.27 528.33)"><tspan x="0" y="0">–4</tspan></text><text class="l" transform="translate(103.27 528.33)"><tspan x="0" y="0">–4</tspan></text><path class="h" d="m110.97,511.82v3.3"/><text class="l" transform="translate(229.89 528.33)"><tspan x="0" y="0">–3</tspan></text><text class="f" transform="translate(229.89 528.33)"><tspan x="0" y="0">–3</tspan></text><text class="l" transform="translate(229.89 528.33)"><tspan x="0" y="0">–3</tspan></text><path class="h" d="m236.5,511.82v3.3"/><text class="l" transform="translate(355.41 528.33)"><tspan x="0" y="0">–2</tspan></text><text class="f" transform="translate(355.41 528.33)"><tspan x="0" y="0">–2</tspan></text><text class="l" transform="translate(355.41 528.33)"><tspan x="0" y="0">–2</tspan></text><path class="h" d="m363.12,511.82v3.3"/><text class="l" transform="translate(482.04 528.33)"><tspan x="0" y="0">–1</tspan></text><text class="f" transform="translate(482.04 528.33)"><tspan x="0" y="0">–1</tspan></text><text class="l" transform="translate(482.04 528.33)"><tspan x="0" y="0">–1</tspan></text><path class="h" d="m489.75,511.82v3.3"/><path class="h" d="m615.27,511.82v3.3"/><text class="l" transform="translate(738.59 528.33)"><tspan x="0" y="0">1</tspan></text><text class="f" transform="translate(738.59 528.33)"><tspan x="0" y="0">1</tspan></text><text class="l" transform="translate(738.59 528.33)"><tspan x="0" y="0">1</tspan></text><path class="h" d="m741.89,511.82v3.3"/><text class="l" transform="translate(864.11 528.33)"><tspan x="0" y="0">2</tspan></text><text class="f" transform="translate(864.11 528.33)"><tspan x="0" y="0">2</tspan></text><text class="l" transform="translate(864.11 528.33)"><tspan x="0" y="0">2</tspan></text><path class="h" d="m868.52,511.82v3.3"/><text class="l" transform="translate(990.74 528.33)"><tspan x="0" y="0">3</tspan></text><text class="f" transform="translate(990.74 528.33)"><tspan x="0" y="0">3</tspan></text><text class="l" transform="translate(990.74 528.33)"><tspan x="0" y="0">3</tspan></text><path class="h" d="m994.04,511.82v3.3"/><text class="l" transform="translate(1117.36 528.33)"><tspan x="0" y="0">4</tspan></text><text class="f" transform="translate(1117.36 528.33)"><tspan x="0" y="0">4</tspan></text><text class="l" transform="translate(1117.36 528.33)"><tspan x="0" y="0">4</tspan></text><path class="h" d="m1120.67,511.82v3.3"/><path class="h" d="m611.97,932.43h3.3"/><path class="h" d="m611.97,847.65h3.3"/><path class="h" d="m611.97,763.97h3.3"/><path class="h" d="m611.97,679.18h3.3"/><path class="h" d="m611.97,595.5h3.3"/><path class="h" d="m611.97,427.03h3.3"/><path class="h" d="m611.97,343.35h3.3"/><path class="h" d="m611.97,258.57h3.3"/><path class="h" d="m611.97,174.89h3.3"/><path class="h" d="m611.97,91.2h3.3"/><text class="l" transform="translate(585.54 936.83)"><tspan x="0" y="0">–10</tspan></text><text class="f" transform="translate(585.54 936.83)"><tspan x="0" y="0">–10</tspan></text><text class="l" transform="translate(585.54 936.83)"><tspan x="0" y="0">–10</tspan></text><text class="l" transform="translate(593.25 853.15)"><tspan x="0" y="0">–8</tspan></text><text class="f" transform="translate(593.25 853.15)"><tspan x="0" y="0">–8</tspan></text><text class="l" transform="translate(593.25 853.15)"><tspan x="0" y="0">–8</tspan></text><text class="l" transform="translate(593.25 768.37)"><tspan x="0" y="0">–6</tspan></text><text class="f" transform="translate(593.25 768.37)"><tspan x="0" y="0">–6</tspan></text><text class="l" transform="translate(593.25 768.37)"><tspan x="0" y="0">–6</tspan></text><text class="l" transform="translate(593.25 684.69)"><tspan x="0" y="0">–4</tspan></text><text class="f" transform="translate(593.25 684.69)"><tspan x="0" y="0">–4</tspan></text><text class="l" transform="translate(593.25 684.69)"><tspan x="0" y="0">–4</tspan></text><text class="l" transform="translate(593.25 601)"><tspan x="0" y="0">–2</tspan></text><text class="f" transform="translate(593.25 601)"><tspan x="0" y="0">–2</tspan></text><text class="l" transform="translate(593.25 601)"><tspan x="0" y="0">–2</tspan></text><text class="l" transform="translate(599.85 432.54)"><tspan x="0" y="0">2</tspan></text><text class="f" transform="translate(599.85 432.54)"><tspan x="0" y="0">2</tspan></text><text class="l" transform="translate(599.85 432.54)"><tspan x="0" y="0">2</tspan></text><text class="l" transform="translate(599.85 347.76)"><tspan x="0" y="0">4</tspan></text><text class="f" transform="translate(599.85 347.76)"><tspan x="0" y="0">4</tspan></text><text class="l" transform="translate(599.85 347.76)"><tspan x="0" y="0">4</tspan></text><text class="l" transform="translate(599.85 264.07)"><tspan x="0" y="0">6</tspan></text><text class="f" transform="translate(599.85 264.07)"><tspan x="0" y="0">6</tspan></text><text class="l" transform="translate(599.85 264.07)"><tspan x="0" y="0">6</tspan></text><text class="l" transform="translate(599.85 179.29)"><tspan x="0" y="0">8</tspan></text><text class="f" transform="translate(599.85 179.29)"><tspan x="0" y="0">8</tspan></text><text class="l" transform="translate(599.85 179.29)"><tspan x="0" y="0">8</tspan></text><text class="l" transform="translate(593.25 95.61)"><tspan x="0" y="0">10</tspan></text><text class="f" transform="translate(593.25 95.61)"><tspan x="0" y="0">10</tspan></text><text class="l" transform="translate(593.25 95.61)"><tspan x="0" y="0">10</tspan></text><text class="l" transform="translate(599.85 528.33)"><tspan x="0" y="0">0</tspan></text><text class="f" transform="translate(599.85 528.33)"><tspan x="0" y="0">0</tspan></text><text class="l" transform="translate(599.85 528.33)"><tspan x="0" y="0">0</tspan></text><path class="k" d="m7.47,116.68v29.7-29.7l1.1-34.99h0l1.1-41.84h0L10.51.91m12.16,1007.49h8.97l.05-2.58h0l1.1-45.83h0l1.1-38.02h0l1.1-32.06h0l1.1-27.39h0l1.1-23.67h0l1.1-20.66h0l1.1-18.19h0l1.1-16.13h0l1.1-14.4h0l1.1-12.94h0l1.1-11.69h0l1.1-10.61h0l1.1-9.67h0l1.1-8.85h0l1.1-8.13h0l1.1-7.5h0l1.1-6.93h0l1.1-6.43h0l1.1-5.98h0l1.1-5.57h0l1.1-5.2h0l1.1-4.87h0l1.1-4.57h0l1.1-4.3h0l1.1-4.04h0l1.1-3.81h0l1.1-3.6h0l1.1-3.41h0l1.1-3.23h0l1.1-3.06h0l1.1-2.91h0l1.1-2.77h0l1.1-2.64h0l1.1-2.51h0l1.1-2.4h0l1.1-2.29h0l1.1-2.19h0l1.1-2.09h0l1.1-2h0l1.1-1.92h0l1.1-1.84h0l1.1-1.77h0l1.1-1.7h0l1.1-1.63h0l1.1-1.57h0l1.1-1.51h0l1.1-1.46h0l1.1-1.4h0l1.1-1.35h0l1.1-1.31h0l1.1-1.26h0l1.1-1.22h0l1.1-1.18h0l1.1-1.14h0l1.1-1.1h0l1.1-1.06h0l1.1-1.03h0l1.1-1h0l1.1-.97h0l1.1-.94h0l1.1-.91h0l1.1-.88h0l1.1-.85h0l1.1-.83h0l1.1-.8h0l1.1-.78h0l1.1-.76h0l1.1-.74h0l1.1-.72h0l1.1-.7h0l1.1-.68h0l1.1-.66h0l1.1-.64h0l1.1-.62h0l1.1-.61h0l1.1-.59h0l1.1-.57h0l1.1-.56h0l1.1-.54h0l1.1-.53h0l1.1-.52h0l1.1-.5h0l1.1-.49h0l1.1-.48h0l1.1-.47h0l1.1-.45h0l1.1-.44h0l1.1-.43h0l1.1-.42h0l1.1-.41h0l1.1-.4h0l1.1-.39h0l1.1-.38h0l1.1-.37h0l1.1-.36h0l1.1-.35h0l1.1-.34h0l1.1-.34h0l1.1-.33h0l1.1-.32h0l1.1-.31h0l1.1-.3h0l1.1-.3h0l1.1-.29h0l1.1-.28h0l1.1-.28h0l1.1-.27h0l1.1-.26h0l1.1-.26h0l1.1-.25h0l1.1-.24h0l1.1-.24h0l1.1-.23h0l1.1-.23h0l1.1-.22h0l1.1-.21h0l1.1-.21h0l1.1-.2h0l1.1-.2h0l1.1-.19h0l1.1-.19h0l1.1-.18h0l1.1-.18h0l1.1-.17h0l1.1-.17h0l1.1-.16h0l1.1-.16h0l1.1-.15h0l1.1-.15h0l1.1-.15h0l1.1-.14h0l1.1-.14h0l1.1-.13h0l1.1-.13h0l1.1-.12h0l1.1-.12h0l1.1-.12h0l1.1-.11h0l1.1-.11h0l1.1-.1h0l1.1-.1h0l1.1-.1h0l1.1-.09h0l1.1-.09h0l1.1-.09h0l1.1-.08h0l1.1-.08h0l1.1-.08h0l1.1-.07h0l1.1-.07h0l1.1-.06h0l1.1-.06h0l1.1-.06h0l1.1-.05h0l1.1-.05h0l1.1-.05h0l1.1-.04h0l1.1-.04h0l1.1-.04h0l1.1-.03h0l1.1-.03h0l1.1-.03h0l1.1-.02h0l1.1-.02h0l1.1-.02h0l1.1-.02h1.1s1.1-.02,1.1-.02h1.1s1.1,0,1.1,0h0s1.1,0,1.1,0h0s1.1,0,1.1,0h1.1s1.1.02,1.1.02h1.1s1.1.03,1.1.03h0l1.1.02h0l1.1.02h0l1.1.03h0l1.1.03h0l1.1.03h0l1.1.04h0l1.1.04h0l1.1.04h0l1.1.05h0l1.1.05h0l1.1.05h0l1.1.06h0l1.1.06h0l1.1.06h0l1.1.07h0l1.1.07h0l1.1.07h0l1.1.08h0l1.1.08h0l1.1.08h0l1.1.09h0l1.1.09h0l1.1.1h0l1.1.1h0l1.1.1h0l1.1.11h0l1.1.11h0l1.1.11h0l1.1.12h0l1.1.12h0l1.1.13h0l1.1.13h0l1.1.13h0l1.1.14h0l1.1.14h0l1.1.15h0l1.1.15h0l1.1.16h0l1.1.16h0l1.1.17h0l1.1.17h0l1.1.18h0l1.1.18h0l1.1.18h0l1.1.19h0l1.1.2h0l1.1.2h0l1.1.21h0l1.1.21h0l1.1.22h0l1.1.22h0l1.1.23h0l1.1.23h0l1.1.24h0l1.1.25h0l1.1.25h0l1.1.26h0l1.1.27h0l1.1.27h0l1.1.28h0l1.1.29h0l1.1.29h0l1.1.3h0l1.1.31h0l1.1.32h0l1.1.32h0l1.1.33h0l1.1.34h0l1.1.35h0l1.1.36h0l1.1.37h0l1.1.38h0l1.1.38h0l1.1.39h0l1.1.4h0l1.1.41h0l1.1.43h0l1.1.44h0l1.1.45h0l1.1.46h0l1.1.47h0l1.1.48h0l1.1.5h0l1.1.51h0l1.1.52h0l1.1.54h0l1.1.55h0l1.1.57h0l1.1.58h0l1.1.6h0l1.1.61h0l1.1.63h0l1.1.65h0l1.1.67h0l1.1.68h0l1.1.7h0l1.1.72h0l1.1.75h0l1.1.77h0l1.1.79h0l1.1.81h0l1.1.84h0l1.1.87h0l1.1.89h0l1.1.92h0l1.1.95h0l1.1.98h0l1.1,1.01h0l1.1,1.05h0l1.1,1.08h0l1.1,1.12h0l1.1,1.15h0l1.1,1.19h0l1.1,1.24h0l1.1,1.28h0l1.1,1.33h0l1.1,1.38h0l1.1,1.43h0l1.1,1.48h0l1.1,1.54h0l1.1,1.6h0l1.1,1.66h0l1.1,1.73h0l1.1,1.8h0l1.1,1.88h0l1.1,1.96h0l1.1,2.05h0l1.1,2.14h0l1.1,2.23h0l1.1,2.34h0l1.1,2.45h0l1.1,2.57h0l1.1,2.7h0l1.1,2.83h0l1.1,2.98h0l1.1,3.14h0l1.1,3.31h0l1.1,3.5h0l1.1,3.7h0l1.1,3.92h0l1.1,4.16h0l1.1,4.42h0l1.1,4.71h0l1.1,5.02h0l1.1,5.37h0l1.1,5.75h0l1.1,6.18h0l1.1,6.66h0l1.1,7.19h0l1.1,7.78h0l1.1,8.46h0l1.1,9.22h0l1.1,10.09h0l1.1,11.09h0l1.1,12.25h0l1.1,13.6h0l1.1,15.18h0l1.1,17.05h0l1.1,19.29h0l1.1,21.99h0l1.1,25.31h0l1.1,29.44h0l1.1,34.66h0l1.1,41.41h0l.61,28.05M418.68.91h9.15l.25,13.18h0l1.1,46.33h0l1.1,38.4h0l1.1,32.35h0l1.1,27.62h0l1.1,23.86h0l1.1,20.81h0l1.1,18.31h0l1.1,16.24h0l1.1,14.49h0l1.1,13.02h0l1.1,11.75h0l1.1,10.66h0l1.1,9.72h0l1.1,8.89h0l1.1,8.17h0l1.1,7.53h0l1.1,6.96h0l1.1,6.45h0l1.1,6h0l1.1,5.59h0l1.1,5.22h0l1.1,4.89h0l1.1,4.59h0l1.1,4.31h0l1.1,4.06h0l1.1,3.83h0l1.1,3.61h0l1.1,3.42h0l1.1,3.24h0l1.1,3.07h0l1.1,2.92h0l1.1,2.78h0l1.1,2.64h0l1.1,2.52h0l1.1,2.4h0l1.1,2.29h0l1.1,2.19h0l1.1,2.1h0l1.1,2.01h0l1.1,1.93h0l1.1,1.85h0l1.1,1.77h0l1.1,1.7h0l1.1,1.64h0l1.1,1.57h0l1.1,1.52h0l1.1,1.46h0l1.1,1.41h0l1.1,1.36h0l1.1,1.31h0l1.1,1.26h0l1.1,1.22h0l1.1,1.18h0l1.1,1.14h0l1.1,1.1h0l1.1,1.07h0l1.1,1.03h0l1.1,1h0l1.1.97h0l1.1.94h0l1.1.91h0l1.1.88h0l1.1.85h0l1.1.83h0l1.1.8h0l1.1.78h0l1.1.76h0l1.1.74h0l1.1.72h0l1.1.7h0l1.1.68h0l1.1.66h0l1.1.64h0l1.1.62h0l1.1.61h0l1.1.59h0l1.1.57h0l1.1.56h0l1.1.54h0l1.1.53h0l1.1.52h0l1.1.5h0l1.1.49h0l1.1.48h0l1.1.47h0l1.1.45h0l1.1.44h0l1.1.43h0l1.1.42h0l1.1.41h0l1.1.4h0l1.1.39h0l1.1.38h0l1.1.37h0l1.1.36h0l1.1.35h0l1.1.34h0l1.1.34h0l1.1.33h0l1.1.32h0l1.1.31h0l1.1.3h0l1.1.3h0l1.1.29h0l1.1.28h0l1.1.28h0l1.1.27h0l1.1.26h0l1.1.26h0l1.1.25h0l1.1.24h0l1.1.24h0l1.1.23h0l1.1.23h0l1.1.22h0l1.1.21h0l1.1.21h0l1.1.2h0l1.1.2h0l1.1.19h0l1.1.19h0l1.1.18h0l1.1.18h0l1.1.17h0l1.1.17h0l1.1.16h0l1.1.16h0l1.1.15h0l1.1.15h0l1.1.15h0l1.1.14h0l1.1.14h0l1.1.13h0l1.1.13h0l1.1.12h0l1.1.12h0l1.1.12h0l1.1.11h0l1.1.11h0l1.1.1h0l1.1.1h0l1.1.1h0l1.1.09h0l1.1.09h0l1.1.09h0l1.1.08h0l1.1.08h0l1.1.08h0l1.1.07h0l1.1.07h0l1.1.07h0l1.1.06h0l1.1.06h0l1.1.05h0l1.1.05h0l1.1.05h0l1.1.04h0l1.1.04h0l1.1.04h0l1.1.03h0l1.1.03h0l1.1.03h0l1.1.03h0l1.1.02h0l1.1.02h0l1.1.02h1.1s1.1.02,1.1.02h1.1s1.1,0,1.1,0h0s1.1,0,1.1,0h0s1.1,0,1.1,0h1.1s1.1-.02,1.1-.02h1.1s1.1-.03,1.1-.03h0l1.1-.02h0l1.1-.02h0l1.1-.03h0l1.1-.03h0l1.1-.03h0l1.1-.04h0l1.1-.04h0l1.1-.04h0l1.1-.05h0l1.1-.05h0l1.1-.05h0l1.1-.06h0l1.1-.06h0l1.1-.06h0l1.1-.07h0l1.1-.07h0l1.1-.07h0l1.1-.08h0l1.1-.08h0l1.1-.08h0l1.1-.09h0l1.1-.09h0l1.1-.09h0l1.1-.1h0l1.1-.1h0l1.1-.11h0l1.1-.11h0l1.1-.11h0l1.1-.12h0l1.1-.12h0l1.1-.13h0l1.1-.13h0l1.1-.13h0l1.1-.14h0l1.1-.14h0l1.1-.15h0l1.1-.15h0l1.1-.16h0l1.1-.16h0l1.1-.17h0l1.1-.17h0l1.1-.17h0l1.1-.18h0l1.1-.18h0l1.1-.19h0l1.1-.19h0l1.1-.2h0l1.1-.21h0l1.1-.21h0l1.1-.22h0l1.1-.22h0l1.1-.23h0l1.1-.23h0l1.1-.24h0l1.1-.25h0l1.1-.25h0l1.1-.26h0l1.1-.26h0l1.1-.27h0l1.1-.28h0l1.1-.29h0l1.1-.29h0l1.1-.3h0l1.1-.31h0l1.1-.32h0l1.1-.32h0l1.1-.33h0l1.1-.34h0l1.1-.35h0l1.1-.36h0l1.1-.37h0l1.1-.37h0l1.1-.38h0l1.1-.39h0l1.1-.4h0l1.1-.41h0l1.1-.42h0l1.1-.44h0l1.1-.45h0l1.1-.46h0l1.1-.47h0l1.1-.48h0l1.1-.49h0l1.1-.51h0l1.1-.52h0l1.1-.54h0l1.1-.55h0l1.1-.56h0l1.1-.58h0l1.1-.6h0l1.1-.61h0l1.1-.63h0l1.1-.65h0l1.1-.66h0l1.1-.68h0l1.1-.7h0l1.1-.72h0l1.1-.74h0l1.1-.77h0l1.1-.79h0l1.1-.81h0l1.1-.84h0l1.1-.86h0l1.1-.89h0l1.1-.92h0l1.1-.95h0l1.1-.98h0l1.1-1.01h0l1.1-1.04h0l1.1-1.08h0l1.1-1.11h0l1.1-1.15h0l1.1-1.19h0l1.1-1.23h0l1.1-1.28h0l1.1-1.33h0l1.1-1.37h0l1.1-1.43h0l1.1-1.48h0l1.1-1.54h0l1.1-1.6h0l1.1-1.66h0l1.1-1.73h0l1.1-1.8h0l1.1-1.87h0l1.1-1.96h0l1.1-2.04h0l1.1-2.13h0l1.1-2.23h0l1.1-2.33h0l1.1-2.44h0l1.1-2.56h0l1.1-2.69h0l1.1-2.83h0l1.1-2.97h0l1.1-3.13h0l1.1-3.3h0l1.1-3.49h0l1.1-3.69h0l1.1-3.91h0l1.1-4.15h0l1.1-4.41h0l1.1-4.69h0l1.1-5h0l1.1-5.35h0l1.1-5.73h0l1.1-6.16h0l1.1-6.63h0l1.1-7.16h0l1.1-7.75h0l1.1-8.42h0l1.1-9.18h0l1.1-10.04h0l1.1-11.04h0l1.1-12.18h0l1.1-13.52h0l1.1-15.08h0l1.1-16.93h0l1.1-19.15h0l1.1-21.83h0l1.1-25.11h0l1.1-29.18h0l1.1-34.34h0l1.1-40.98h0l.97-44m11.92,1007.49h9.2l1.03-43.73h0l1.1-38.79h0l1.1-32.65h0l1.1-27.86h0l1.1-24.04h0l1.1-20.96h0l1.1-18.44h0l1.1-16.34h0l1.1-14.58h0l1.1-13.09h0l1.1-11.82h0l1.1-10.72h0l1.1-9.77h0l1.1-8.94h0l1.1-8.21h0l1.1-7.56h0l1.1-6.99h0l1.1-6.48h0l1.1-6.02h0l1.1-5.61h0l1.1-5.24h0l1.1-4.91h0l1.1-4.6h0l1.1-4.32h0l1.1-4.07h0l1.1-3.84h0l1.1-3.63h0l1.1-3.43h0l1.1-3.25h0l1.1-3.08h0l1.1-2.93h0l1.1-2.78h0l1.1-2.65h0l1.1-2.53h0l1.1-2.41h0l1.1-2.3h0l1.1-2.2h0l1.1-2.1h0l1.1-2.01h0l1.1-1.93h0l1.1-1.85h0l1.1-1.78h0l1.1-1.71h0l1.1-1.64h0l1.1-1.58h0l1.1-1.52h0l1.1-1.46h0l1.1-1.41h0l1.1-1.36h0l1.1-1.31h0l1.1-1.27h0l1.1-1.22h0l1.1-1.18h0l1.1-1.14h0l1.1-1.1h0l1.1-1.07h0l1.1-1.03h0l1.1-1h0l1.1-.97h0l1.1-.94h0l1.1-.91h0l1.1-.88h0l1.1-.86h0l1.1-.83h0l1.1-.81h0l1.1-.78h0l1.1-.76h0l1.1-.74h0l1.1-.72h0l1.1-.7h0l1.1-.68h0l1.1-.66h0l1.1-.64h0l1.1-.62h0l1.1-.61h0l1.1-.59h0l1.1-.58h0l1.1-.56h0l1.1-.55h0l1.1-.53h0l1.1-.52h0l1.1-.5h0l1.1-.49h0l1.1-.48h0l1.1-.47h0l1.1-.45h0l1.1-.44h0l1.1-.43h0l1.1-.42h0l1.1-.41h0l1.1-.4h0l1.1-.39h0l1.1-.38h0l1.1-.37h0l1.1-.36h0l1.1-.35h0l1.1-.35h0l1.1-.34h0l1.1-.33h0l1.1-.32h0l1.1-.31h0l1.1-.31h0l1.1-.3h0l1.1-.29h0l1.1-.28h0l1.1-.28h0l1.1-.27h0l1.1-.26h0l1.1-.26h0l1.1-.25h0l1.1-.24h0l1.1-.24h0l1.1-.23h0l1.1-.23h0l1.1-.22h0l1.1-.21h0l1.1-.21h0l1.1-.2h0l1.1-.2h0l1.1-.19h0l1.1-.19h0l1.1-.18h0l1.1-.18h0l1.1-.17h0l1.1-.17h0l1.1-.16h0l1.1-.16h0l1.1-.15h0l1.1-.15h0l1.1-.15h0l1.1-.14h0l1.1-.14h0l1.1-.13h0l1.1-.13h0l1.1-.12h0l1.1-.12h0l1.1-.12h0l1.1-.11h0l1.1-.11h0l1.1-.11h0l1.1-.1h0l1.1-.1h0l1.1-.09h0l1.1-.09h0l1.1-.09h0l1.1-.08h0l1.1-.08h0l1.1-.08h0l1.1-.07h0l1.1-.07h0l1.1-.07h0l1.1-.06h0l1.1-.06h0l1.1-.06h0l1.1-.05h0l1.1-.05h0l1.1-.04h0l1.1-.04h0l1.1-.04h0l1.1-.04h0l1.1-.03h0l1.1-.03h0l1.1-.03h0l1.1-.02h0l1.1-.02h0l1.1-.02h1.1s1.1-.02,1.1-.02h1.1s1.1,0,1.1,0h0s1.1,0,1.1,0h0s1.1,0,1.1,0h1.1s1.1.02,1.1.02h1.1s1.1.03,1.1.03h0l1.1.02h0l1.1.02h0l1.1.03h0l1.1.03h0l1.1.03h0l1.1.04h0l1.1.04h0l1.1.04h0l1.1.05h0l1.1.05h0l1.1.05h0l1.1.06h0l1.1.06h0l1.1.06h0l1.1.07h0l1.1.07h0l1.1.07h0l1.1.08h0l1.1.08h0l1.1.08h0l1.1.09h0l1.1.09h0l1.1.09h0l1.1.1h0l1.1.1h0l1.1.11h0l1.1.11h0l1.1.11h0l1.1.12h0l1.1.12h0l1.1.13h0l1.1.13h0l1.1.13h0l1.1.14h0l1.1.14h0l1.1.15h0l1.1.15h0l1.1.16h0l1.1.16h0l1.1.17h0l1.1.17h0l1.1.17h0l1.1.18h0l1.1.18h0l1.1.19h0l1.1.19h0l1.1.2h0l1.1.21h0l1.1.21h0l1.1.22h0l1.1.22h0l1.1.23h0l1.1.23h0l1.1.24h0l1.1.25h0l1.1.25h0l1.1.26h0l1.1.26h0l1.1.27h0l1.1.28h0l1.1.28h0l1.1.29h0l1.1.3h0l1.1.31h0l1.1.31h0l1.1.32h0l1.1.33h0l1.1.34h0l1.1.35h0l1.1.36h0l1.1.36h0l1.1.37h0l1.1.38h0l1.1.39h0l1.1.4h0l1.1.41h0l1.1.42h0l1.1.43h0l1.1.45h0l1.1.46h0l1.1.47h0l1.1.48h0l1.1.49h0l1.1.51h0l1.1.52h0l1.1.53h0l1.1.55h0l1.1.56h0l1.1.58h0l1.1.59h0l1.1.61h0l1.1.63h0l1.1.65h0l1.1.66h0l1.1.68h0l1.1.7h0l1.1.72h0l1.1.74h0l1.1.77h0l1.1.79h0l1.1.81h0l1.1.84h0l1.1.86h0l1.1.89h0l1.1.92h0l1.1.95h0l1.1.98h0l1.1,1.01h0l1.1,1.04h0l1.1,1.08h0l1.1,1.11h0l1.1,1.15h0l1.1,1.19h0l1.1,1.23h0l1.1,1.28h0l1.1,1.32h0l1.1,1.37h0l1.1,1.42h0l1.1,1.48h0l1.1,1.53h0l1.1,1.59h0l1.1,1.66h0l1.1,1.72h0l1.1,1.8h0l1.1,1.87h0l1.1,1.95h0l1.1,2.04h0l1.1,2.13h0l1.1,2.22h0l1.1,2.33h0l1.1,2.44h0l1.1,2.55h0l1.1,2.68h0l1.1,2.82h0l1.1,2.96h0l1.1,3.12h0l1.1,3.29h0l1.1,3.48h0l1.1,3.68h0l1.1,3.89h0l1.1,4.13h0l1.1,4.39h0l1.1,4.67h0l1.1,4.99h0l1.1,5.33h0l1.1,5.71h0l1.1,6.13h0l1.1,6.6h0l1.1,7.12h0l1.1,7.71h0l1.1,8.38h0l1.1,9.13h0l1.1,9.99h0l1.1,10.98h0l1.1,12.11h0l1.1,13.44h0l1.1,14.99h0l1.1,16.82h0l1.1,19.01h0l1.1,21.66h0l1.1,24.9h0l1.1,28.93h0l1.1,34.01h0l1.1,40.56h0l.74,33.06M1211.22.91h9.5l.14,7.42h0l1.1,47.36h0l1.1,39.18h0l1.1,32.95h0l1.1,28.09h0l1.1,24.24h0l1.1,21.12"/><path class="j" d="m813.85,999.6V9.72"/></g></g><g id="c"><path class="m" d="m-2-1.77v1013.91h1237V-1.77H-2Zm1220,976.91c0,11.05-8.95,20-20,20H35c-11.05,0-20-8.95-20-20V35.23c0-11.05,8.95-20,20-20h1163c11.05,0,20,8.95,20,20v939.91Z"/></g></svg>