<?xml version="1.0" encoding="UTF-8"?><svg xmlns="http://www.w3.org/2000/svg" xmlns:xlink="http://www.w3.org/1999/xlink" viewBox="0 0 1232.74 1010.14"><defs><style>.e{fill:#fff;}.f{stroke:rgba(255,102,0,.8);stroke-width:7px;}.f,.g,.h,.i,.j,.k{fill:none;}.f,.i{stroke-linecap:round;stroke-linejoin:round;}.g{stroke:#fff;stroke-linejoin:bevel;stroke-width:3px;}.g,.l{font-family:Helvetica-Bold, Helvetica;font-size:13.21px;font-weight:700;isolation:isolate;}.h{clip-path:url(#b);}.i{stroke:rgba(51,51,255,.7);stroke-width:2.5px;}.j{stroke:#252525;stroke-miterlimit:10;stroke-width:2px;}.m{fill:#00699b;}.l{fill:#252525;}</style><clipPath id="b"><rect class="k" x="-2" y="15.23" width="1220" height="978.86"/></clipPath></defs><g id="a"><g class="h"><rect class="e" x="-2" y="15.23" width="1220" height="978.86"/><path class="j" d="m432.93,18.53v975.56"/><path class="j" d="m432.93,17.43l-5.51,5.51"/><path class="j" d="m432.93,17.43l5.51,5.51"/><path class="j" d="m-2,647.25h1216.7"/><path class="j" d="m1215.8,647.25l-5.51-5.51"/><path class="j" d="m1215.8,647.25l-5.51,5.51"/><text class="l" transform="translate(75.08 663.77)"><tspan x="0" y="0">–3</tspan></text><text class="g" transform="translate(75.08 663.77)"><tspan x="0" y="0">–3</tspan></text><text class="l" transform="translate(75.08 663.77)"><tspan x="0" y="0">–3</tspan></text><path class="j" d="m82.78,647.25v3.3"/><text class="l" transform="translate(191.79 663.77)"><tspan x="0" y="0">–2</tspan></text><text class="g" transform="translate(191.79 663.77)"><tspan x="0" y="0">–2</tspan></text><text class="l" transform="translate(191.79 663.77)"><tspan x="0" y="0">–2</tspan></text><path class="j" d="m199.5,647.25v3.3"/><text class="l" transform="translate(308.51 663.77)"><tspan x="0" y="0">–1</tspan></text><text class="g" transform="translate(308.51 663.77)"><tspan x="0" y="0">–1</tspan></text><text class="l" transform="translate(308.51 663.77)"><tspan x="0" y="0">–1</tspan></text><path class="j" d="m316.21,647.25v3.3"/><path class="j" d="m432.93,647.25v3.3"/><text class="l" transform="translate(546.34 663.77)"><tspan x="0" y="0">1</tspan></text><text class="g" transform="translate(546.34 663.77)"><tspan x="0" y="0">1</tspan></text><text class="l" transform="translate(546.34 663.77)"><tspan x="0" y="0">1</tspan></text><path class="j" d="m549.64,647.25v3.3"/><text class="l" transform="translate(663.05 663.77)"><tspan x="0" y="0">2</tspan></text><text class="g" transform="translate(663.05 663.77)"><tspan x="0" y="0">2</tspan></text><text class="l" transform="translate(663.05 663.77)"><tspan x="0" y="0">2</tspan></text><path class="j" d="m666.36,647.25v3.3"/><text class="l" transform="translate(779.77 663.77)"><tspan x="0" y="0">3</tspan></text><text class="g" transform="translate(779.77 663.77)"><tspan x="0" y="0">3</tspan></text><text class="l" transform="translate(779.77 663.77)"><tspan x="0" y="0">3</tspan></text><path class="j" d="m783.07,647.25v3.3"/><text class="l" transform="translate(896.48 663.77)"><tspan x="0" y="0">4</tspan></text><text class="g" transform="translate(896.48 663.77)"><tspan x="0" y="0">4</tspan></text><text class="l" transform="translate(896.48 663.77)"><tspan x="0" y="0">4</tspan></text><path class="j" d="m899.79,647.25v3.3"/><text class="l" transform="translate(1013.2 663.77)"><tspan x="0" y="0">5</tspan></text><text class="g" transform="translate(1013.2 663.77)"><tspan x="0" y="0">5</tspan></text><text class="l" transform="translate(1013.2 663.77)"><tspan x="0" y="0">5</tspan></text><path class="j" d="m1016.5,647.25v3.3"/><text class="l" transform="translate(1129.91 663.77)"><tspan x="0" y="0">6</tspan></text><text class="g" transform="translate(1129.91 663.77)"><tspan x="0" y="0">6</tspan></text><text class="l" transform="translate(1129.91 663.77)"><tspan x="0" y="0">6</tspan></text><path class="j" d="m1133.22,647.25v3.3"/><path class="j" d="m429.62,915.91h3.3"/><path class="j" d="m429.62,826.73h3.3"/><path class="j" d="m429.62,736.44h3.3"/><path class="j" d="m429.62,556.96h3.3"/><path class="j" d="m429.62,466.67h3.3"/><path class="j" d="m429.62,377.48h3.3"/><path class="j" d="m429.62,287.2h3.3"/><path class="j" d="m429.62,198.01h3.3"/><path class="j" d="m429.62,107.72h3.3"/><text class="l" transform="translate(409.81 921.42)"><tspan x="0" y="0">–3</tspan></text><text class="g" transform="translate(409.81 921.42)"><tspan x="0" y="0">–3</tspan></text><text class="l" transform="translate(409.81 921.42)"><tspan x="0" y="0">–3</tspan></text><text class="l" transform="translate(409.81 831.13)"><tspan x="0" y="0">–2</tspan></text><text class="g" transform="translate(409.81 831.13)"><tspan x="0" y="0">–2</tspan></text><text class="l" transform="translate(409.81 831.13)"><tspan x="0" y="0">–2</tspan></text><text class="l" transform="translate(409.81 741.94)"><tspan x="0" y="0">–1</tspan></text><text class="g" transform="translate(409.81 741.94)"><tspan x="0" y="0">–1</tspan></text><text class="l" transform="translate(409.81 741.94)"><tspan x="0" y="0">–1</tspan></text><text class="l" transform="translate(416.41 562.47)"><tspan x="0" y="0">1</tspan></text><text class="g" transform="translate(416.41 562.47)"><tspan x="0" y="0">1</tspan></text><text class="l" transform="translate(416.41 562.47)"><tspan x="0" y="0">1</tspan></text><text class="l" transform="translate(416.41 472.18)"><tspan x="0" y="0">2</tspan></text><text class="g" transform="translate(416.41 472.18)"><tspan x="0" y="0">2</tspan></text><text class="l" transform="translate(416.41 472.18)"><tspan x="0" y="0">2</tspan></text><text class="l" transform="translate(416.41 381.89)"><tspan x="0" y="0">3</tspan></text><text class="g" transform="translate(416.41 381.89)"><tspan x="0" y="0">3</tspan></text><text class="l" transform="translate(416.41 381.89)"><tspan x="0" y="0">3</tspan></text><text class="l" transform="translate(416.41 292.7)"><tspan x="0" y="0">4</tspan></text><text class="g" transform="translate(416.41 292.7)"><tspan x="0" y="0">4</tspan></text><text class="l" transform="translate(416.41 292.7)"><tspan x="0" y="0">4</tspan></text><text class="l" transform="translate(416.41 202.41)"><tspan x="0" y="0">5</tspan></text><text class="g" transform="translate(416.41 202.41)"><tspan x="0" y="0">5</tspan></text><text class="l" transform="translate(416.41 202.41)"><tspan x="0" y="0">5</tspan></text><text class="l" transform="translate(416.41 113.22)"><tspan x="0" y="0">6</tspan></text><text class="g" transform="translate(416.41 113.22)"><tspan x="0" y="0">6</tspan></text><text class="l" transform="translate(416.41 113.22)"><tspan x="0" y="0">6</tspan></text><text class="l" transform="translate(416.41 663.77)"><tspan x="0" y="0">0</tspan></text><text class="g" transform="translate(416.41 663.77)"><tspan x="0" y="0">0</tspan></text><text class="l" transform="translate(416.41 663.77)"><tspan x="0" y="0">0</tspan></text><path class="f" d="m-2,647.58l4.77.02,4.77.02,4.77.02,4.77.02,4.77.02,4.77.02,4.77.02,4.77.02,4.77.03,4.77.03,4.77.03,4.77.03,4.77.03,4.77.03,4.77.03,4.77.03,4.77.03,4.77.04,4.77.04,4.77.04,4.77.04,4.77.04,4.77.04,4.77.05,4.77.05,4.77.05,4.77.05,4.77.05,4.77.06,4.77.06,4.77.06,4.77.07,4.77.07,4.77.07,4.77.08,4.77.08,4.77.08,4.77.09,4.77.09,4.77.1,4.77.1,4.77.11,4.77.12,4.77.12,4.77.13,4.77.14,4.77.15,4.77.16,4.77.17,4.77.18,4.77.19,4.77.2,4.77.22,4.77.23,4.77.25,4.77.27,4.77.29,4.77.31,4.77.33,4.77.36,4.77.39,4.77.42,4.77.46,4.77.5,4.77.55,4.77.61,4.77.67,4.77.74,4.77.82,4.77.91,4.77,1.01,4.77,1.14,4.77,1.28,4.77,1.45,4.77,1.66,4.77,1.91,4.77,2.21,4.77,2.58,4.77,3.05,4.77,3.64,4.77,4.42,4.77,5.45,4.77,6.86,4.77,8.87,2.38,5.47,2.38,6.39,2.38,7.55,2.38,9.05,1.19,5.23,1.19,5.8,1.19,6.46,1.19,7.25,1.19,8.18,1.19,9.31,1.19,10.68.6,5.95.6,6.42.6,6.95.6,7.55.6,8.22.6,8.99.6,9.88.6,10.9.3,5.88.3,6.2.3,6.54.3,6.92.3,7.33.3,7.77.3,8.26.3,8.8.3,9.38.3,10.03.3,10.75.15,5.67.15,5.88.15,6.1.15,6.33.15,6.58.15,6.85.15,7.13.15,7.42.15,7.74.15,8.07M436.81,2.99l.07,10.74.07,10.38.07,10.03.07,9.7.07,9.38.07,9.08.07,8.8.07,8.53.07,8.27.07,8.02.07,7.78.07,7.55.07,7.34.07,7.13.07,6.93.07,6.74.07,6.56.07,6.38.07,6.21.07,6.05.07,5.89.07,5.74.07,5.6.15,10.79.15,10.27.15,9.79.15,9.34.15,8.92.15,8.53.15,8.17.15,7.83.15,7.51.15,7.2.15,6.92.15,6.65.15,6.4.15,6.16.15,5.93.15,5.72.3,10.85.3,10.12.3,9.46.3,8.87.3,8.32.3,7.83.3,7.38.3,6.97.3,6.59.3,6.24.3,5.91.6,10.95.6,9.92.6,9.03.6,8.25.6,7.57.6,6.96.6,6.43.6,5.95.6,5.52,1.19,9.94,1.19,8.68,1.19,7.65,1.19,6.78,1.19,6.05,2.38,10.32,2.38,8.45,2.38,7.02,2.38,5.9,4.77,9.29,4.77,6.87,4.77,5.16,4.77,3.89,4.77,2.92,4.77,2.14,4.77,1.49,4.77.94,4.77.46h4.77s4.77-.39,4.77-.39l4.77-.81,4.77-1.21,4.77-1.62,4.77-2.05,4.77-2.5,4.77-3,4.77-3.55,4.77-4.18,4.77-4.89,4.77-5.72,4.77-6.69,4.77-7.85,4.77-9.24,4.77-10.95,2.38-6.24,2.38-6.82,2.38-7.49,2.38-8.23,2.38-9.08,2.38-10.04,1.19-5.42,1.19-5.72,1.19-6.03,1.19-6.37,1.19-6.74,1.19-7.13,1.19-7.56,1.19-8.02,1.19-8.51,1.19-9.05,1.19-9.64,1.19-10.27,1.19-10.97.6-5.77.6-5.96.6-6.17.6-6.39.6-6.62.6-6.86.6-7.11.6-7.37.6-7.65.6-7.94.6-8.24.6-8.56.6-8.9.6-9.26.6-9.63.6-10.03.6-10.45.6-10.89.3-5.62.3-5.74.3-5.87.3-5.99.3-6.13.3-6.26.3-6.4.3-6.54.3-6.69.3-6.84.3-7,.3-7.16.3-7.33.3-7.5.3-7.68.3-7.87.3-8.06.3-8.25.3-8.46.3-8.66.3-8.88.3-9.1.3-9.34.3-9.57.3-9.82.3-10.08.3-10.34m62.55.75l.15,6.85.15,6.74.15,6.64.15,6.54.15,6.44.15,6.34.15,6.24.15,6.15.15,6.06.15,5.97.15,5.88.15,5.79.15,5.71.15,5.62.3,11.01.3,10.69.3,10.39.3,10.1.3,9.82.3,9.55.3,9.29.3,9.03.3,8.79.3,8.56.3,8.33.3,8.11.3,7.9.3,7.7.3,7.5.3,7.31.3,7.13.3,6.95.3,6.78.3,6.61.3,6.45.3,6.29.3,6.14.3,6,.3,5.85.3,5.72.3,5.58.3,5.46.6,10.54.6,10.07.6,9.62.6,9.2.6,8.81.6,8.43.6,8.08.6,7.75.6,7.43.6,7.13.6,6.85.6,6.58.6,6.33.6,6.08.6,5.85.6,5.63,1.19,10.65,1.19,9.9,1.19,9.21,1.19,8.58,1.19,8.01,1.19,7.49,1.19,7.01,1.19,6.57,1.19,6.16,1.19,5.79,2.38,10.58,2.38,9.4,2.38,8.39,2.38,7.51,2.38,6.76,2.38,6.09,4.77,10.52,4.77,8.71,4.77,7.28,4.77,6.14,4.77,5.23,4.77,4.48,4.77,3.86,4.77,3.35,4.77,2.93,4.77,2.57,4.77,2.27,4.77,2.01,4.77,1.78,4.77,1.59,4.77,1.43,4.77,1.28,4.77,1.16,4.77,1.05,4.77.95,4.77.86,4.77.79,4.77.72,4.77.66,4.77.6,4.77.55,4.77.51,4.77.47,4.77.44,4.77.4,4.77.37,4.77.35,4.77.32,4.77.3,4.77.28,4.77.26,4.77.24,4.77.23,4.77.21,4.77.2,4.77.19,4.77.18,4.77.17,4.77.16,4.77.15,4.77.14,4.77.13,4.77.13,4.77.12,4.77.11,4.77.11,4.77.1,4.77.1,4.77.09,4.77.09,4.77.08,4.77.08,4.77.07,4.77.07,4.77.07,4.77.06,4.77.06,4.77.06,4.77.06,4.77.05,4.77.05,4.77.05,4.77.05,4.77.05,4.77.04,4.77.04,4.77.04,4.77.04,4.77.04,4.77.04,4.77.03,4.77.03,4.77.03,4.77.03,4.77.03,4.77.03,4.77.03,4.77.03,4.77.03,4.77.02,4.77.02,4.77.02,4.77.02,4.77.02,4.77.02,4.77.02,4.77.02,4.77.02,4.77.02,4.77.02,4.77.02,4.77.02,4.77.02,4.77.02h4.77s4.77.03,4.77.03"/><path class="i" d="m666.11,999.6V9.72"/></g></g><g id="c"><path class="m" d="m-2-1.77v1013.91h1237V-1.77H-2Zm1220,976.91c0,11.05-8.95,20-20,20H35c-11.05,0-20-8.95-20-20V35.23c0-11.05,8.95-20,20-20h1163c11.05,0,20,8.95,20,20v939.91Z"/></g></svg>