<?xml version="1.0" encoding="UTF-8"?><svg xmlns="http://www.w3.org/2000/svg" xmlns:xlink="http://www.w3.org/1999/xlink" viewBox="0 0 1232.74 1010.14"><defs><style>.e{fill:#fff;}.f{stroke:#fff;stroke-linejoin:bevel;stroke-width:3px;}.f,.g,.h,.i,.j,.k{fill:none;}.f,.l{font-family:Helvetica-Bold, Helvetica;font-size:13.21px;font-weight:700;isolation:isolate;}.g{clip-path:url(#b);}.h{stroke:#252525;stroke-miterlimit:10;stroke-width:2px;}.m{fill:#00699b;}.l{fill:#252525;}.j{stroke:rgba(0,0,255,.7);stroke-width:2.5px;}.j,.k{stroke-linecap:round;stroke-linejoin:round;}.k{stroke:rgba(219,97,20,.8);stroke-width:7px;}</style><clipPath id="b"><rect class="i" x="-2" y="15.23" width="1220" height="978.86"/></clipPath></defs><g id="a"><g class="g"><rect class="e" x="-2" y="15.23" width="1220" height="978.86"/><path class="h" d="m137.84,18.53v975.56"/><path class="h" d="m137.84,17.43l-5.51,5.51"/><path class="h" d="m137.84,17.43l5.51,5.51"/><path class="h" d="m-2,510.72h1216.7"/><path class="h" d="m1215.8,510.72l-5.51-5.51"/><path class="h" d="m1215.8,510.72l-5.51,5.51"/><path class="h" d="m137.84,510.72v3.3"/><text class="l" transform="translate(303 528.33)"><tspan x="0" y="0">1</tspan></text><text class="f" transform="translate(303 528.33)"><tspan x="0" y="0">1</tspan></text><text class="l" transform="translate(303 528.33)"><tspan x="0" y="0">1</tspan></text><path class="h" d="m306.3,510.72v3.3"/><text class="l" transform="translate(471.47 528.33)"><tspan x="0" y="0">2</tspan></text><text class="f" transform="translate(471.47 528.33)"><tspan x="0" y="0">2</tspan></text><text class="l" transform="translate(471.47 528.33)"><tspan x="0" y="0">2</tspan></text><path class="h" d="m474.77,510.72v3.3"/><text class="l" transform="translate(639.93 528.33)"><tspan x="0" y="0">3</tspan></text><text class="f" transform="translate(639.93 528.33)"><tspan x="0" y="0">3</tspan></text><text class="l" transform="translate(639.93 528.33)"><tspan x="0" y="0">3</tspan></text><path class="h" d="m643.23,510.72v3.3"/><text class="l" transform="translate(808.4 528.33)"><tspan x="0" y="0">4</tspan></text><text class="f" transform="translate(808.4 528.33)"><tspan x="0" y="0">4</tspan></text><text class="l" transform="translate(808.4 528.33)"><tspan x="0" y="0">4</tspan></text><path class="h" d="m811.7,510.72v3.3"/><text class="l" transform="translate(976.86 528.33)"><tspan x="0" y="0">5</tspan></text><text class="f" transform="translate(976.86 528.33)"><tspan x="0" y="0">5</tspan></text><text class="l" transform="translate(976.86 528.33)"><tspan x="0" y="0">5</tspan></text><path class="h" d="m980.17,510.72v3.3"/><text class="l" transform="translate(1145.33 528.33)"><tspan x="0" y="0">6</tspan></text><text class="f" transform="translate(1145.33 528.33)"><tspan x="0" y="0">6</tspan></text><text class="l" transform="translate(1145.33 528.33)"><tspan x="0" y="0">6</tspan></text><path class="h" d="m1148.63,510.72v3.3"/><path class="h" d="m134.53,931.33h3.3"/><path class="h" d="m134.53,847.65h3.3"/><path class="h" d="m134.53,763.97h3.3"/><path class="h" d="m134.53,679.18h3.3"/><path class="h" d="m134.53,595.5h3.3"/><path class="h" d="m134.53,427.03h3.3"/><path class="h" d="m134.53,342.25h3.3"/><path class="h" d="m134.53,258.57h3.3"/><path class="h" d="m134.53,173.78h3.3"/><path class="h" d="m134.53,90.1h3.3"/><text class="l" transform="translate(108.11 936.83)"><tspan x="0" y="0">–15</tspan></text><text class="f" transform="translate(108.11 936.83)"><tspan x="0" y="0">–15</tspan></text><text class="l" transform="translate(108.11 936.83)"><tspan x="0" y="0">–15</tspan></text><text class="l" transform="translate(108.11 853.15)"><tspan x="0" y="0">–12</tspan></text><text class="f" transform="translate(108.11 853.15)"><tspan x="0" y="0">–12</tspan></text><text class="l" transform="translate(108.11 853.15)"><tspan x="0" y="0">–12</tspan></text><text class="l" transform="translate(115.82 768.37)"><tspan x="0" y="0">–9</tspan></text><text class="f" transform="translate(115.82 768.37)"><tspan x="0" y="0">–9</tspan></text><text class="l" transform="translate(115.82 768.37)"><tspan x="0" y="0">–9</tspan></text><text class="l" transform="translate(115.82 684.69)"><tspan x="0" y="0">–6</tspan></text><text class="f" transform="translate(115.82 684.69)"><tspan x="0" y="0">–6</tspan></text><text class="l" transform="translate(115.82 684.69)"><tspan x="0" y="0">–6</tspan></text><text class="l" transform="translate(115.82 599.9)"><tspan x="0" y="0">–3</tspan></text><text class="f" transform="translate(115.82 599.9)"><tspan x="0" y="0">–3</tspan></text><text class="l" transform="translate(115.82 599.9)"><tspan x="0" y="0">–3</tspan></text><text class="l" transform="translate(122.42 431.44)"><tspan x="0" y="0">3</tspan></text><text class="f" transform="translate(122.42 431.44)"><tspan x="0" y="0">3</tspan></text><text class="l" transform="translate(122.42 431.44)"><tspan x="0" y="0">3</tspan></text><text class="l" transform="translate(122.42 347.76)"><tspan x="0" y="0">6</tspan></text><text class="f" transform="translate(122.42 347.76)"><tspan x="0" y="0">6</tspan></text><text class="l" transform="translate(122.42 347.76)"><tspan x="0" y="0">6</tspan></text><text class="l" transform="translate(122.42 262.97)"><tspan x="0" y="0">9</tspan></text><text class="f" transform="translate(122.42 262.97)"><tspan x="0" y="0">9</tspan></text><text class="l" transform="translate(122.42 262.97)"><tspan x="0" y="0">9</tspan></text><text class="l" transform="translate(115.82 179.29)"><tspan x="0" y="0">12</tspan></text><text class="f" transform="translate(115.82 179.29)"><tspan x="0" y="0">12</tspan></text><text class="l" transform="translate(115.82 179.29)"><tspan x="0" y="0">12</tspan></text><text class="l" transform="translate(115.82 94.51)"><tspan x="0" y="0">15</tspan></text><text class="f" transform="translate(115.82 94.51)"><tspan x="0" y="0">15</tspan></text><text class="l" transform="translate(115.82 94.51)"><tspan x="0" y="0">15</tspan></text><text class="l" transform="translate(122.42 528.33)"><tspan x="0" y="0">0</tspan></text><text class="f" transform="translate(122.42 528.33)"><tspan x="0" y="0">0</tspan></text><text class="l" transform="translate(122.42 528.33)"><tspan x="0" y="0">0</tspan></text><path class="k" d="m-.9,525.5v.03h0l1.1.03H.2l1.1.03h0l1.1.03h0l1.1.03h0l1.1.03h0l1.1.03h0l1.1.03h0l1.1.03h0l1.1.03h0l1.1.03h0l1.1.03h0l1.1.03h0l1.1.03h0l1.1.03h0l1.1.03h0l1.1.03h0l1.1.03h0l1.1.03h0l1.1.03h0l1.1.03h0l1.1.03h0l1.1.03h0l1.1.03h0l1.1.03h0l1.1.03h0l1.1.03h0l1.1.03h0l1.1.03h0l1.1.03h0l1.1.03h0l1.1.03h0l1.1.03h0l1.1.03h0l1.1.03h0l1.1.03h0l1.1.03h0l1.1.03h0l1.1.03h0l1.1.03h0l1.1.03h0l1.1.03h0l1.1.03h0l1.1.03h0l1.1.03h0l1.1.03h0l1.1.03h0l1.1.03h0l1.1.03h0l1.1.03h0l1.1.03h0l1.1.03h0l1.1.03h0l1.1.03h0l1.1.03h0l1.1.03h0l1.1.03h0l1.1.03h0l1.1.03h0l1.1.03h0l1.1.03h0l1.1.03h0l1.1.03h0l1.1.03h0l1.1.03h0l1.1.03h0l1.1.03h0l1.1.03h0l1.1.03h0l1.1.03h0l1.1.03h0l1.1.03h0l1.1.03h0l1.1.03h0l1.1.03h0l1.1.03h0l1.1.03h0l1.1.03h0l1.1.03h0l1.1.03h0l1.1.03h0l1.1.03h0l1.1.03h0l1.1.03h0l1.1.03h0l1.1.03h0l1.1.03h0l1.1.03h0l1.1.03h0l1.1.03h0l1.1.03h0l1.1.04h0l1.1.04h0l1.1.04h0l1.1.04h0l1.1.04h0l1.1.04h0l1.1.04h0l1.1.04h0l1.1.04h0l1.1.04h0l1.1.04h0l1.1.04h0l1.1.04h0l1.1.04h0l1.1.04h0l1.1.04h0l1.1.04h0l1.1.04h0l1.1.04h0l1.1.04h0l1.1.04h0l1.1.04h0l1.1.04h0l1.1.04h0l1.1.04h0l1.1.04h0l1.1.04h0l1.1.04h0l1.1.04h0l1.1.04h0l1.1.04h0l1.1.04h0l1.1.04h0l1.1.04h0l1.1.04h0l1.1.04h0l1.1.04h0l1.1.04h0l1.1.04h0l1.1.04h0l1.1.04h0l1.1.04h0l1.1.04h0l1.1.04h0l1.1.04h0l1.1.04h0l1.1.04h0l1.1.04h0l1.1.04h0l1.1.04h0l1.1.04h0l1.1.04h0l1.1.04h0l1.1.04h0l1.1.04h0l1.1.04h0l1.1.04h0l1.1.04h0l1.1.04h0l1.1.05h0l1.1.05h0l1.1.05h0l1.1.05h0l1.1.05h0l1.1.05h0l1.1.05h0l1.1.05h0l1.1.05h0l1.1.05h0l1.1.05h0l1.1.05h0l1.1.05h0l1.1.05h0l1.1.05h0l1.1.05h0l1.1.05h0l1.1.05h0l1.1.05h0l1.1.05h0l1.1.05h0l1.1.05h0l1.1.05h0l1.1.05h0l1.1.05h0l1.1.05h0l1.1.05h0l1.1.05h0l1.1.05h0l1.1.05h0l1.1.05h0l1.1.05h0l1.1.05h0l1.1.05h0l1.1.05h0l1.1.05h0l1.1.05h0l1.1.05h0l1.1.05h0l1.1.05h0l1.1.05h0l1.1.06h0l1.1.06h0l1.1.06h0l1.1.06h0l1.1.06h0l1.1.06h0l1.1.06h0l1.1.06h0l1.1.06h0l1.1.06h0l1.1.06h0l1.1.06h0l1.1.06h0l1.1.06h0l1.1.06h0l1.1.06h0l1.1.06h0l1.1.06h0l1.1.06h0l1.1.06h0l1.1.06h0l1.1.06h0l1.1.06h0l1.1.06h0l1.1.06h0l1.1.06h0l1.1.06h0l1.1.06h0l1.1.06h0l1.1.06h0l1.1.06h0l1.1.06h0l1.1.07h0l1.1.07h0l1.1.07h0l1.1.07h0l1.1.07h0l1.1.07h0l1.1.07h0l1.1.07h0l1.1.07h0l1.1.07h0l1.1.07h0l1.1.07h0l1.1.07h0l1.1.07h0l1.1.07h0l1.1.07h0l1.1.07h0l1.1.07h0l1.1.07h0l1.1.07h0l1.1.07h0l1.1.07h0l1.1.07h0l1.1.07h0l1.1.07h0l1.1.08h0l1.1.08h0l1.1.08h0l1.1.08h0l1.1.08h0l1.1.08h0l1.1.08h0l1.1.08h0l1.1.08h0l1.1.08h0l1.1.08h0l1.1.08h0l1.1.08h0l1.1.08h0l1.1.08h0l1.1.08h0l1.1.08h0l1.1.08h0l1.1.08h0l1.1.08h0l1.1.09h0l1.1.09h0l1.1.09h0l1.1.09h0l1.1.09h0l1.1.09h0l1.1.09h0l1.1.09h0l1.1.09h0l1.1.09h0l1.1.09h0l1.1.09h0l1.1.09h0l1.1.09h0l1.1.09h0l1.1.09h0l1.1.09h0l1.1.09h0l1.1.1h0l1.1.1h0l1.1.1h0l1.1.1h0l1.1.1h0l1.1.1h0l1.1.1h0l1.1.1h0l1.1.1h0l1.1.1h0l1.1.1h0l1.1.1h0l1.1.1h0l1.1.1h0l1.1.11h0l1.1.11h0l1.1.11h0l1.1.11h0l1.1.11h0l1.1.11h0l1.1.11h0l1.1.11h0l1.1.11h0l1.1.11h0l1.1.11h0l1.1.11h0l1.1.11h0l1.1.12h0l1.1.12h0l1.1.12h0l1.1.12h0l1.1.12h0l1.1.12h0l1.1.12h0l1.1.12h0l1.1.12h0l1.1.12h0l1.1.12h0l1.1.13h0l1.1.13h0l1.1.13h0l1.1.13h0l1.1.13h0l1.1.13h0l1.1.13h0l1.1.13h0l1.1.13h0l1.1.13h0l1.1.14h0l1.1.14h0l1.1.14h0l1.1.14h0l1.1.14h0l1.1.14h0l1.1.14h0l1.1.14h0l1.1.14h0l1.1.15h0l1.1.15h0l1.1.15h0l1.1.15h0l1.1.15h0l1.1.15h0l1.1.15h0l1.1.15h0l1.1.16h0l1.1.16h0l1.1.16h0l1.1.16h0l1.1.16h0l1.1.16h0l1.1.16h0l1.1.17h0l1.1.17h0l1.1.17h0l1.1.17h0l1.1.17h0l1.1.17h0l1.1.17h0l1.1.18h0l1.1.18h0l1.1.18h0l1.1.18h0l1.1.18h0l1.1.18h0l1.1.19h0l1.1.19h0l1.1.19h0l1.1.19h0l1.1.19h0l1.1.2h0l1.1.2h0l1.1.2h0l1.1.2h0l1.1.2h0l1.1.2h0l1.1.21h0l1.1.21h0l1.1.21h0l1.1.21h0l1.1.22h0l1.1.22h0l1.1.22h0l1.1.22h0l1.1.22h0l1.1.23h0l1.1.23h0l1.1.23h0l1.1.23h0l1.1.24h0l1.1.24h0l1.1.24h0l1.1.24h0l1.1.25h0l1.1.25h0l1.1.25h0l1.1.25h0l1.1.26h0l1.1.26h0l1.1.26h0l1.1.27h0l1.1.27h0l1.1.27h0l1.1.27h0l1.1.28h0l1.1.28h0l1.1.28h0l1.1.29h0l1.1.29h0l1.1.29h0l1.1.3h0l1.1.3h0l1.1.31h0l1.1.31h0l1.1.31h0l1.1.32h0l1.1.32h0l1.1.32h0l1.1.33h0l1.1.33h0l1.1.34h0l1.1.34h0l1.1.35h0l1.1.35h0l1.1.35h0l1.1.36h0l1.1.36h0l1.1.37h0l1.1.37h0l1.1.38h0l1.1.38h0l1.1.39h0l1.1.39h0l1.1.4h0l1.1.4h0l1.1.41h0l1.1.42h0l1.1.42h0l1.1.43h0l1.1.43h0l1.1.44h0l1.1.45h0l1.1.45h0l1.1.46h0l1.1.47h0l1.1.47h0l1.1.48h0l1.1.49h0l1.1.49h0l1.1.5h0l1.1.51h0l1.1.52h0l1.1.53h0l1.1.53h0l1.1.54h0l1.1.55h0l1.1.56h0l1.1.57h0l1.1.58h0l1.1.59h0l1.1.6h0l1.1.61h0l1.1.62h0l1.1.63h0l1.1.64h0l1.1.65h0l1.1.66h0l1.1.68h0l1.1.69h0l1.1.7h0l1.1.71h0l1.1.73h0l1.1.74h0l1.1.75h0l1.1.77h0l1.1.78h0l1.1.8h0l1.1.81h0l1.1.83h0l1.1.85h0l1.1.86h0l1.1.88h0l1.1.9h0l1.1.92h0l1.1.94h0l1.1.96h0l1.1.98h0l1.1,1h0l1.1,1.02h0l1.1,1.04h0l1.1,1.07h0l1.1,1.09h0l1.1,1.11h0l1.1,1.14h0l1.1,1.17h0l1.1,1.2h0l1.1,1.22h0l1.1,1.25h0l1.1,1.28h0l1.1,1.32h0l1.1,1.35h0l1.1,1.38h0l1.1,1.42h0l1.1,1.46h0l1.1,1.5h0l1.1,1.54h0l1.1,1.58h0l1.1,1.62h0l1.1,1.67h0l1.1,1.72h0l1.1,1.76h0l1.1,1.82h0l1.1,1.87h0l1.1,1.93h0l1.1,1.99h0l1.1,2.05h0l1.1,2.11h0l1.1,2.18h0l1.1,2.25h0l1.1,2.33h0l1.1,2.41h0l1.1,2.49h0l1.1,2.57h0l1.1,2.67h0l1.1,2.76h0l1.1,2.86h0l1.1,2.97h0l1.1,3.09h0l1.1,3.21h0l1.1,3.33h0l1.1,3.47h0l1.1,3.61h0l1.1,3.77h0l1.1,3.93h0l1.1,4.1h0l1.1,4.29h0l1.1,4.49h0l1.1,4.7h0l1.1,4.93h0l1.1,5.17h0l1.1,5.43h0l1.1,5.72h0l1.1,6.03h0l1.1,6.36h0l1.1,6.72h0l1.1,7.11h0l1.1,7.54h0l1.1,8.01h0l1.1,8.52h0l1.1,9.08h0l1.1,9.7h0l1.1,10.39h0l1.1,11.15h0l1.1,12h0l1.1,12.95h0l1.1,14.02h0l1.1,15.23h0l1.1,16.6h0l1.1,18.16h0l1.1,19.96h0l1.1,22.03h0l1.1,24.44h0l1.09,27.07M644.92.91h17.13l1.01,26.36h0l1.1,25.79h0l1.1,23.18h0l1.1,20.94h0l1.1,19.02h0l1.1,17.35h0l1.1,15.89h0l1.1,14.6h0l1.1,13.47h0l1.1,12.46h0l1.1,11.56h0l1.1,10.76h0l1.1,10.04h0l1.1,9.38h0l1.1,8.79h0l1.1,8.25h0l1.1,7.77h0l1.1,7.32h0l1.1,6.91h0l1.1,6.53h0l1.1,6.19h0l1.1,5.87h0l1.1,5.57h0l1.1,5.3h0l1.1,5.05h0l1.1,4.81h0l1.1,4.59h0l1.1,4.38h0l1.1,4.19h0l1.1,4.01h0l1.1,3.85h0l1.1,3.69h0l1.1,3.54h0l1.1,3.4h0l1.1,3.27h0l1.1,3.14h0l1.1,3.03h0l1.1,2.92h0l1.1,2.81h0l1.1,2.71h0l1.1,2.62h0l1.1,2.53h0l1.1,2.45h0l1.1,2.36h0l1.1,2.29h0l1.1,2.22h0l1.1,2.15h0l1.1,2.08h0l1.1,2.02h0l1.1,1.96h0l1.1,1.9h0l1.1,1.84h0l1.1,1.79h0l1.1,1.74h0l1.1,1.69h0l1.1,1.64h0l1.1,1.6h0l1.1,1.56h0l1.1,1.52h0l1.1,1.48h0l1.1,1.44h0l1.1,1.4h0l1.1,1.37h0l1.1,1.33h0l1.1,1.3h0l1.1,1.27h0l1.1,1.24h0l1.1,1.21h0l1.1,1.18h0l1.1,1.15h0l1.1,1.13h0l1.1,1.1h0l1.1,1.08h0l1.1,1.05h0l1.1,1.03h0l1.1,1.01h0l1.1.99h0l1.1.97h0l1.1.95h0l1.1.93h0l1.1.91h0l1.1.89h0l1.1.87h0l1.1.85h0l1.1.84h0l1.1.82h0l1.1.81h0l1.1.79h0l1.1.77h0l1.1.76h0l1.1.75h0l1.1.73h0l1.1.72h0l1.1.71h0l1.1.69h0l1.1.68h0l1.1.67h0l1.1.66h0l1.1.65h0l1.1.64h0l1.1.62h0l1.1.61h0l1.1.6h0l1.1.59h0l1.1.58h0l1.1.57h0l1.1.57h0l1.1.56h0l1.1.55h0l1.1.54h0l1.1.53h0l1.1.52h0l1.1.51h0l1.1.51h0l1.1.5h0l1.1.49h0l1.1.48h0l1.1.48h0l1.1.47h0l1.1.46h0l1.1.46h0l1.1.45h0l1.1.44h0l1.1.44h0l1.1.43h0l1.1.42h0l1.1.42h0l1.1.41h0l1.1.41h0l1.1.4h0l1.1.4h0l1.1.39h0l1.1.39h0l1.1.38h0l1.1.38h0l1.1.37h0l1.1.37h0l1.1.36h0l1.1.36h0l1.1.35h0l1.1.35h0l1.1.34h0l1.1.34h0l1.1.33h0l1.1.33h0l1.1.33h0l1.1.32h0l1.1.32h0l1.1.31h0l1.1.31h0l1.1.31h0l1.1.3h0l1.1.3h0l1.1.3h0l1.1.29h0l1.1.29h0l1.1.29h0l1.1.28h0l1.1.28h0l1.1.28h0l1.1.27h0l1.1.27h0l1.1.27h0l1.1.26h0l1.1.26h0l1.1.26h0l1.1.26h0l1.1.25h0l1.1.25h0l1.1.25h0l1.1.24h0l1.1.24h0l1.1.24h0l1.1.24h0l1.1.23h0l1.1.23h0l1.1.23h0l1.1.23h0l1.1.23h0l1.1.22h0l1.1.22h0l1.1.22h0l1.1.22h0l1.1.21h0l1.1.21h0l1.1.21h0l1.1.21h0l1.1.21h0l1.1.2h0l1.1.2h0l1.1.2h0l1.1.2h0l1.1.2h0l1.1.19h0l1.1.19h0l1.1.19h0l1.1.19h0l1.1.19h0l1.1.19h0l1.1.18h0l1.1.18h0l1.1.18h0l1.1.18h0l1.1.18h0l1.1.18h0l1.1.17h0l1.1.17h0l1.1.17h0l1.1.17h0l1.1.17h0l1.1.17h0l1.1.16h0l1.1.16h0l1.1.16h0l1.1.16h0l1.1.16h0l1.1.16h0l1.1.16h0l1.1.16h0l1.1.15h0l1.1.15h0l1.1.15h0l1.1.15h0l1.1.15h0l1.1.15h0l1.1.15h0l1.1.15h0l1.1.14h0l1.1.14h0l1.1.14h0l1.1.14h0l1.1.14h0l1.1.14h0l1.1.14h0l1.1.14h0l1.1.13h0l1.1.13h0l1.1.13h0l1.1.13h0l1.1.13h0l1.1.13h0l1.1.13h0l1.1.13h0l1.1.13h0l1.1.13h0l1.1.12h0l1.1.12h0l1.1.12h0l1.1.12h0l1.1.12h0l1.1.12h0l1.1.12h0l1.1.12h0l1.1.12h0l1.1.12h0l1.1.12h0l1.1.11h0l1.1.11h0l1.1.11h0l1.1.11h0l1.1.11h0l1.1.11h0l1.1.11h0l1.1.11h0l1.1.11h0l1.1.11h0l1.1.11h0l1.1.11h0l1.1.11h0l1.1.1h0l1.1.1h0l1.1.1h0l1.1.1h0l1.1.1h0l1.1.1h0l1.1.1h0l1.1.1h0l1.1.1h0l1.1.1h0l1.1.1h0l1.1.1h0l1.1.1h0l1.1.1h0l1.1.1h0l1.1.09h0l1.1.09h0l1.1.09h0l1.1.09h0l1.1.09h0l1.1.09h0l1.1.09h0l1.1.09h0l1.1.09h0l1.1.09h0l1.1.09h0l1.1.09h0l1.1.09h0l1.1.09h0l1.1.09h0l1.1.09h0l1.1.09h0l1.1.08h0l1.1.08h0l1.1.08h0l1.1.08h0l1.1.08h0l1.1.08h0l1.1.08h0l1.1.08h0l1.1.08h0l1.1.08h0l1.1.08h0l1.1.08h0l1.1.08h0l1.1.08h0l1.1.08h0l1.1.08h0l1.1.08h0l1.1.08h0l1.1.08h0l1.1.08h0l1.1.08h0l1.1.07h0l1.1.07h0l1.1.07h0l1.1.07h0l1.1.07h0l1.1.07h0l1.1.07h0l1.1.07h0l1.1.07h0l1.1.07h0l1.1.07h0l1.1.07h0l1.1.07h0l1.1.07h0l1.1.07h0l1.1.07h0l1.1.07h0l1.1.07h0l1.1.07h0l1.1.07h0l1.1.07h0l1.1.07h0l1.1.07h0l1.1.07h0l1.1.07h0l1.1.06h0l1.1.06h0l1.1.06h0l1.1.06h0l1.1.06h0l1.1.06h0l1.1.06h0l1.1.06h0l1.1.06h0l1.1.06h0l1.1.06h0l1.1.06h0l1.1.06h0l1.1.06h0l1.1.06h0l1.1.06h0l1.1.06h0l1.1.06h0l1.1.06h0l1.1.06h0l1.1.06h0l1.1.06h0l1.1.06h0l1.1.06h0l1.1.06h0l1.1.06h0l1.1.06h0l1.1.06h0l1.1.06h0l1.1.06h0l1.1.06h0l1.1.05h0l1.1.05h0l1.1.05h0l1.1.05h0l1.1.05h0l1.1.05h0l1.1.05h0l1.1.05h0l1.1.05h0l1.1.05h0l1.1.05h0l1.1.05h0l1.1.05h0l1.1.05h0l1.1.05h0l1.1.05h0l1.1.05h0l1.1.05h0l1.1.05h0l1.1.05h0l1.1.05h0l1.1.05h0l1.1.05h0l1.1.05h0l1.1.05h0l1.1.05h0l1.1.05h0l1.1.05h0l1.1.05h0l1.1.05h0l1.1.05h0l1.1.05h0l1.1.05h0l1.1.05h0l1.1.05h0l1.1.05h0l1.1.05h0l1.1.05h0l1.1.05h0l1.1.05h0l1.1.05h0l1.1.05h0l1.1.04h0l1.1.04h0l1.1.04h0l1.1.04h0l1.1.04h0l1.1.04h0l1.1.04h0l1.1.04h0l1.1.04h0l1.1.04h0l1.1.04h0l1.1.04h0l1.1.04h0l1.1.04h0l1.1.04h0l1.1.04h0l1.1.04h0l1.1.04h0l1.1.04h0l1.1.04h0l1.1.04h0l1.1.04h0l1.1.04h0l1.1.04h0l1.1.04h0l1.1.04h0l1.1.04h0l1.1.04h0l1.1.04h0l1.1.04h0l1.1.04h0l1.1.04h0l1.1.04h0l1.1.04h0l1.1.04h0l1.1.04h0l1.1.04h0l1.1.04h0l1.1.04h0l1.1.04h0l1.1.04h0l1.1.04h0l1.1.04h0l1.1.04h0l1.1.04h0l1.1.04h0l1.1.04h0l1.1.04h0l1.1.04h0l1.1.04h0l1.1.04h0l1.1.04h0l1.1.04h0l1.1.04h0l1.1.04h0l1.1.04h0l1.1.04h0l1.1.04h0l1.1.04h0l1.1.03h0l1.1.03h0l1.1.03h0l1.1.03h0l1.1.03h0l1.1.03h0l1.1.03h0l1.1.03h0l1.1.03h0l1.1.03h0l1.1.03h0l1.1.03h0l1.1.03h0l1.1.03h0l1.1.03h0l1.1.03h0l1.1.03h0l1.1.03h0l1.1.03h0l1.1.03h0l1.1.03h0l1.1.03h0l1.1.03h0l1.1.03h0l1.1.03h0l1.1.03"/><path class="j" d="m643.51,999.6V9.72"/></g></g><g id="c"><path class="m" d="m-2-1.77v1013.91h1237V-1.77H-2Zm1220,976.91c0,11.05-8.95,20-20,20H35c-11.05,0-20-8.95-20-20V35.23c0-11.05,8.95-20,20-20h1163c11.05,0,20,8.95,20,20v939.91Z"/></g></svg>