<?xml version="1.0" encoding="UTF-8"?><svg xmlns="http://www.w3.org/2000/svg" xmlns:xlink="http://www.w3.org/1999/xlink" viewBox="0 0 1232.74 1010.14"><defs><style>.e{fill:#fff;}.f{stroke:#fff;stroke-linejoin:bevel;stroke-width:3px;}.f,.g,.h,.i,.j,.k{fill:none;}.f,.l{font-family:Helvetica-Bold, Helvetica;font-size:13.21px;font-weight:700;isolation:isolate;}.g{clip-path:url(#b);}.h{stroke:rgba(50,191,50,.8);stroke-width:7px;}.h,.k{stroke-linecap:round;stroke-linejoin:round;}.i{stroke:#252525;stroke-miterlimit:10;stroke-width:2px;}.m{fill:#00699b;}.l{fill:#252525;}.k{stroke:rgba(0,0,255,.7);stroke-width:2.5px;}</style><clipPath id="b"><rect class="j" x="-2" y="15.23" width="1220" height="978.86"/></clipPath></defs><g id="a"><g class="g"><rect class="e" x="-2" y="15.23" width="1220" height="978.86"/><path class="i" d="m604.7,18.53v975.56"/><path class="i" d="m604.7,17.43l-5.51,5.51"/><path class="i" d="m604.7,17.43l5.51,5.51"/><path class="i" d="m-2,509.61h1216.7"/><path class="i" d="m1215.8,509.61l-5.51-5.51"/><path class="i" d="m1215.8,509.61l-5.51,5.51"/><text class="l" transform="translate(10.11 526.13)"><tspan x="0" y="0">–20</tspan></text><text class="f" transform="translate(10.11 526.13)"><tspan x="0" y="0">–20</tspan></text><text class="l" transform="translate(10.11 526.13)"><tspan x="0" y="0">–20</tspan></text><path class="i" d="m21.12,509.61v3.3"/><text class="l" transform="translate(155.46 526.13)"><tspan x="0" y="0">–15</tspan></text><text class="f" transform="translate(155.46 526.13)"><tspan x="0" y="0">–15</tspan></text><text class="l" transform="translate(155.46 526.13)"><tspan x="0" y="0">–15</tspan></text><path class="i" d="m167.57,509.61v3.3"/><text class="l" transform="translate(301.9 526.13)"><tspan x="0" y="0">–10</tspan></text><text class="f" transform="translate(301.9 526.13)"><tspan x="0" y="0">–10</tspan></text><text class="l" transform="translate(301.9 526.13)"><tspan x="0" y="0">–10</tspan></text><path class="i" d="m312.91,509.61v3.3"/><text class="l" transform="translate(451.65 526.13)"><tspan x="0" y="0">–5</tspan></text><text class="f" transform="translate(451.65 526.13)"><tspan x="0" y="0">–5</tspan></text><text class="l" transform="translate(451.65 526.13)"><tspan x="0" y="0">–5</tspan></text><path class="i" d="m458.25,509.61v3.3"/><path class="i" d="m604.7,509.61v3.3"/><text class="l" transform="translate(746.74 526.13)"><tspan x="0" y="0">5</tspan></text><text class="f" transform="translate(746.74 526.13)"><tspan x="0" y="0">5</tspan></text><text class="l" transform="translate(746.74 526.13)"><tspan x="0" y="0">5</tspan></text><path class="i" d="m750.04,509.61v3.3"/><text class="l" transform="translate(888.78 526.13)"><tspan x="0" y="0">10</tspan></text><text class="f" transform="translate(888.78 526.13)"><tspan x="0" y="0">10</tspan></text><text class="l" transform="translate(888.78 526.13)"><tspan x="0" y="0">10</tspan></text><path class="i" d="m895.38,509.61v3.3"/><text class="l" transform="translate(1034.12 526.13)"><tspan x="0" y="0">15</tspan></text><text class="f" transform="translate(1034.12 526.13)"><tspan x="0" y="0">15</tspan></text><text class="l" transform="translate(1034.12 526.13)"><tspan x="0" y="0">15</tspan></text><path class="i" d="m1041.83,509.61v3.3"/><text class="l" transform="translate(1179.46 526.13)"><tspan x="0" y="0">20</tspan></text><text class="f" transform="translate(1179.46 526.13)"><tspan x="0" y="0">20</tspan></text><text class="l" transform="translate(1179.46 526.13)"><tspan x="0" y="0">20</tspan></text><path class="i" d="m1187.17,509.61v3.3"/><path class="i" d="m601.39,980.88h3.3"/><path class="i" d="m601.39,823.42h3.3"/><path class="i" d="m601.39,665.97h3.3"/><path class="i" d="m601.39,352.16h3.3"/><path class="i" d="m601.39,194.71h3.3"/><path class="i" d="m601.39,37.25h3.3"/><text class="l" transform="translate(581.57 986.38)"><tspan x="0" y="0">–3</tspan></text><text class="f" transform="translate(581.57 986.38)"><tspan x="0" y="0">–3</tspan></text><text class="l" transform="translate(581.57 986.38)"><tspan x="0" y="0">–3</tspan></text><text class="l" transform="translate(581.57 828.93)"><tspan x="0" y="0">–2</tspan></text><text class="f" transform="translate(581.57 828.93)"><tspan x="0" y="0">–2</tspan></text><text class="l" transform="translate(581.57 828.93)"><tspan x="0" y="0">–2</tspan></text><text class="l" transform="translate(581.57 671.47)"><tspan x="0" y="0">–1</tspan></text><text class="f" transform="translate(581.57 671.47)"><tspan x="0" y="0">–1</tspan></text><text class="l" transform="translate(581.57 671.47)"><tspan x="0" y="0">–1</tspan></text><text class="l" transform="translate(588.18 356.56)"><tspan x="0" y="0">1</tspan></text><text class="f" transform="translate(588.18 356.56)"><tspan x="0" y="0">1</tspan></text><text class="l" transform="translate(588.18 356.56)"><tspan x="0" y="0">1</tspan></text><text class="l" transform="translate(588.18 199.11)"><tspan x="0" y="0">2</tspan></text><text class="f" transform="translate(588.18 199.11)"><tspan x="0" y="0">2</tspan></text><text class="l" transform="translate(588.18 199.11)"><tspan x="0" y="0">2</tspan></text><text class="l" transform="translate(588.18 41.65)"><tspan x="0" y="0">3</tspan></text><text class="f" transform="translate(588.18 41.65)"><tspan x="0" y="0">3</tspan></text><text class="l" transform="translate(588.18 41.65)"><tspan x="0" y="0">3</tspan></text><text class="l" transform="translate(588.18 526.13)"><tspan x="0" y="0">0</tspan></text><text class="f" transform="translate(588.18 526.13)"><tspan x="0" y="0">0</tspan></text><text class="l" transform="translate(588.18 526.13)"><tspan x="0" y="0">0</tspan></text><path class="h" d="m-2,599.61l4.77.09,4.77.1,4.77.1,4.77.1,4.77.1,4.77.1,4.77.1,4.77.11,4.77.11,4.77.11,4.77.11,4.77.11,4.77.11,4.77.12,4.77.12,4.77.12,4.77.12,4.77.13,4.77.13,4.77.13,4.77.13,4.77.13,4.77.14,4.77.14,4.77.14,4.77.15,4.77.15,4.77.15,4.77.15,4.77.16,4.77.16,4.77.16,4.77.17,4.77.17,4.77.18,4.77.18,4.77.18,4.77.19,4.77.19,4.77.2,4.77.2,4.77.21,4.77.21,4.77.22,4.77.22,4.77.23,4.77.23,4.77.24,4.77.24,4.77.25,4.77.26,4.77.26,4.77.27,4.77.28,4.77.29,4.77.29,4.77.3,4.77.31,4.77.32,4.77.33,4.77.34,4.77.35,4.77.36,4.77.37,4.77.38,4.77.4,4.77.41,4.77.42,4.77.44,4.77.45,4.77.47,4.77.49,4.77.5,4.77.52,4.77.54,4.77.56,4.77.58,4.77.61,4.77.63,4.77.66,4.77.69,4.77.72,4.77.75,4.77.79,4.77.82,4.77.86,4.77.9,4.77.95,4.77,1,4.77,1.05,4.77,1.11,4.77,1.17,4.77,1.24,4.77,1.31,4.77,1.39,4.77,1.48,4.77,1.58,4.77,1.68,4.77,1.8,4.77,1.93,4.77,2.07,4.77,2.23,4.77,2.4,4.77,2.6,4.77,2.83,4.77,3.08,4.77,3.37,4.77,3.7,4.77,4.08,4.77,4.51,4.77,5.02,4.77,5.61,4.77,6.31,4.77,7.14,4.77,8.12,4.77,9.29,4.77,10.7,2.38,5.96,2.38,6.42,2.38,6.92,2.38,7.46,2.38,8.04,2.38,8.66,2.38,9.29,2.38,9.93,2.38,10.54,1.19,5.47,1.19,5.59,1.19,5.68,1.19,5.75,1.19,5.77,1.19,5.75,1.19,5.67,1.19,5.52,2.38,10.24,2.38,8.49,2.38,5.79.6.91.6.66.6.4.6.13.6-.15.6-.45.6-.75.6-1.05,1.19-3.04,1.19-4.28,1.19-5.49,1.19-6.62,1.19-7.64,1.19-8.54,1.19-9.28,1.19-9.87,1.19-10.31,1.19-10.6,1.19-10.75,1.19-10.78,1.19-10.72,1.19-10.56,1.19-10.34,1.19-10.07,1.19-9.76,1.19-9.43,1.19-9.08,1.19-8.72,1.19-8.36,1.19-8,1.19-7.64,1.19-7.3,1.19-6.97,1.19-6.65,1.19-6.34,1.19-6.05,1.19-5.77,1.19-5.5,2.38-10.27,2.38-9.37,2.38-8.56,2.38-7.84,2.38-7.2,2.38-6.62,2.38-6.1,4.77-10.87,4.77-9.37,4.77-8.14,4.77-7.13,4.77-6.29,4.77-5.58,4.77-4.99,4.77-4.48,4.77-4.04,4.77-3.67,4.77-3.34,4.77-3.05,4.77-2.8,4.77-2.58,4.77-2.38,4.77-2.21,4.77-2.05,4.77-1.91,4.77-1.78,4.77-1.67,4.77-1.56,4.77-1.47,4.77-1.38,4.77-1.3,4.77-1.23,4.77-1.16,4.77-1.1,4.77-1.04,4.77-.99,4.77-.94,4.77-.9,4.77-.86,4.77-.82,4.77-.78,4.77-.75,4.77-.71,4.77-.68,4.77-.66,4.77-.63,4.77-.6,4.77-.58,4.77-.56,4.77-.54,4.77-.52,4.77-.5,4.77-.48,4.77-.47,4.77-.45,4.77-.43,4.77-.42,4.77-.41,4.77-.39,4.77-.38,4.77-.37,4.77-.36,4.77-.35,4.77-.34,4.77-.33,4.77-.32,4.77-.31,4.77-.3,4.77-.29,4.77-.28,4.77-.28,4.77-.27,4.77-.26,4.77-.26,4.77-.25,4.77-.24,4.77-.24,4.77-.23,4.77-.22,4.77-.22,4.77-.21,4.77-.21,4.77-.2,4.77-.2,4.77-.2,4.77-.19,4.77-.19,4.77-.18,4.77-.18,4.77-.17,4.77-.17,4.77-.17,4.77-.16,4.77-.16,4.77-.16,4.77-.15,4.77-.15,4.77-.15,4.77-.15,4.77-.14,4.77-.14,4.77-.14,4.77-.13,4.77-.13,4.77-.13,4.77-.13,4.77-.12,4.77-.12,4.77-.12,4.77-.12,4.77-.12,4.77-.11,4.77-.11,4.77-.11,4.77-.11,4.77-.11,4.77-.1,4.77-.1,4.77-.1,4.77-.1,4.77-.1,4.77-.1,4.77-.1,4.77-.09,4.77-.09,4.77-.09"/><path class="h" d="m-2,418.58l4.77-.09,4.77-.1,4.77-.1,4.77-.1,4.77-.1,4.77-.1,4.77-.1,4.77-.11,4.77-.11,4.77-.11,4.77-.11,4.77-.11,4.77-.11,4.77-.12,4.77-.12,4.77-.12,4.77-.12,4.77-.13,4.77-.13,4.77-.13,4.77-.13,4.77-.13,4.77-.14,4.77-.14,4.77-.14,4.77-.15,4.77-.15,4.77-.15,4.77-.15,4.77-.16,4.77-.16,4.77-.16,4.77-.17,4.77-.17,4.77-.18,4.77-.18,4.77-.18,4.77-.19,4.77-.19,4.77-.2,4.77-.2,4.77-.21,4.77-.21,4.77-.22,4.77-.22,4.77-.23,4.77-.23,4.77-.24,4.77-.24,4.77-.25,4.77-.26,4.77-.26,4.77-.27,4.77-.28,4.77-.29,4.77-.29,4.77-.3,4.77-.31,4.77-.32,4.77-.33,4.77-.34,4.77-.35,4.77-.36,4.77-.37,4.77-.38,4.77-.4,4.77-.41,4.77-.42,4.77-.44,4.77-.45,4.77-.47,4.77-.49,4.77-.5,4.77-.52,4.77-.54,4.77-.56,4.77-.58,4.77-.61,4.77-.63,4.77-.66,4.77-.69,4.77-.72,4.77-.75,4.77-.79,4.77-.82,4.77-.86,4.77-.9,4.77-.95,4.77-1,4.77-1.05,4.77-1.11,4.77-1.17,4.77-1.24,4.77-1.31,4.77-1.39,4.77-1.48,4.77-1.58,4.77-1.68,4.77-1.8,4.77-1.93,4.77-2.07,4.77-2.23,4.77-2.4,4.77-2.6,4.77-2.83,4.77-3.08,4.77-3.37,4.77-3.7,4.77-4.08,4.77-4.51,4.77-5.02,4.77-5.61,4.77-6.31,4.77-7.14,4.77-8.12,4.77-9.29,4.77-10.7,2.38-5.96,2.38-6.42,2.38-6.92,2.38-7.46,2.38-8.04,2.38-8.66,2.38-9.29,2.38-9.93,2.38-10.54,1.19-5.47,1.19-5.59,1.19-5.68,1.19-5.75,1.19-5.77,1.19-5.75,1.19-5.67,1.19-5.52,2.38-10.24,2.38-8.49,2.38-5.79.6-.91.6-.66.6-.4.6-.13.6.15.6.45.6.75.6,1.05,1.19,3.04,1.19,4.28,1.19,5.49,1.19,6.62,1.19,7.64,1.19,8.54,1.19,9.28,1.19,9.87,1.19,10.31,1.19,10.6,1.19,10.75,1.19,10.78,1.19,10.72,1.19,10.56,1.19,10.34,1.19,10.07,1.19,9.76,1.19,9.43,1.19,9.08,1.19,8.72,1.19,8.36,1.19,8,1.19,7.64,1.19,7.3,1.19,6.97,1.19,6.65,1.19,6.34,1.19,6.05,1.19,5.77,1.19,5.5,2.38,10.27,2.38,9.37,2.38,8.56,2.38,7.84,2.38,7.2,2.38,6.62,2.38,6.1,4.77,10.87,4.77,9.37,4.77,8.14,4.77,7.13,4.77,6.29,4.77,5.58,4.77,4.99,4.77,4.48,4.77,4.04,4.77,3.67,4.77,3.34,4.77,3.05,4.77,2.8,4.77,2.58,4.77,2.38,4.77,2.21,4.77,2.05,4.77,1.91,4.77,1.78,4.77,1.67,4.77,1.56,4.77,1.47,4.77,1.38,4.77,1.3,4.77,1.23,4.77,1.16,4.77,1.1,4.77,1.04,4.77.99,4.77.94,4.77.9,4.77.86,4.77.82,4.77.78,4.77.75,4.77.71,4.77.68,4.77.66,4.77.63,4.77.6,4.77.58,4.77.56,4.77.54,4.77.52,4.77.5,4.77.48,4.77.47,4.77.45,4.77.43,4.77.42,4.77.41,4.77.39,4.77.38,4.77.37,4.77.36,4.77.35,4.77.34,4.77.33,4.77.32,4.77.31,4.77.3,4.77.29,4.77.28,4.77.28,4.77.27,4.77.26,4.77.26,4.77.25,4.77.24,4.77.24,4.77.23,4.77.22,4.77.22,4.77.21,4.77.21,4.77.2,4.77.2,4.77.2,4.77.19,4.77.19,4.77.18,4.77.18,4.77.17,4.77.17,4.77.17,4.77.16,4.77.16,4.77.16,4.77.15,4.77.15,4.77.15,4.77.15,4.77.14,4.77.14,4.77.14,4.77.13,4.77.13,4.77.13,4.77.13,4.77.12,4.77.12,4.77.12,4.77.12,4.77.12,4.77.11,4.77.11,4.77.11,4.77.11,4.77.11,4.77.1,4.77.1,4.77.1,4.77.1,4.77.1,4.77.1,4.77.1,4.77.09,4.77.09,4.77.09"/><path class="k" d="m-7.51,430.41h1231.01"/><path class="k" d="m-7.51,587.77h1231.01"/></g></g><g id="c"><path class="m" d="m-2-1.77v1013.91h1237V-1.77H-2Zm1220,976.91c0,11.05-8.95,20-20,20H35c-11.05,0-20-8.95-20-20V35.23c0-11.05,8.95-20,20-20h1163c11.05,0,20,8.95,20,20v939.91Z"/></g></svg>