<?xml version="1.0" encoding="UTF-8"?><svg xmlns="http://www.w3.org/2000/svg" xmlns:xlink="http://www.w3.org/1999/xlink" viewBox="0 0 1232.74 1010.14"><defs><style>.e{fill:#fff;}.f{stroke:#fff;stroke-linejoin:bevel;stroke-width:3px;}.f,.g,.h,.i,.j{fill:none;}.f,.k{font-family:Helvetica-Bold, Helvetica;font-size:13.23px;font-weight:700;isolation:isolate;}.g{clip-path:url(#b);}.h{stroke:#252525;stroke-miterlimit:10;stroke-width:2px;}.l{fill:#00699b;}.j{stroke:rgba(226,100,217,.8);stroke-linecap:round;stroke-linejoin:round;stroke-width:7px;}.k{fill:#252525;}</style><clipPath id="b"><rect class="i" x="-2.59" y="15" width="1221.59" height="980.14"/></clipPath></defs><g id="a"><g class="g"><rect class="e" x="-2.59" y="15" width="1221.59" height="980.14"/><path class="h" d="m601.59,18.31v976.83"/><path class="h" d="m601.59,17.21l-5.51,5.51"/><path class="h" d="m601.59,17.21l5.51,5.51"/><path class="h" d="m-2.59,507.83h1218.29"/><path class="h" d="m1216.8,507.83l-5.51-5.51"/><path class="h" d="m1216.8,507.83l-5.51,5.51"/><text class="k" transform="translate(33.79 524.36)"><tspan x="0" y="0">–6</tspan></text><text class="f" transform="translate(33.79 524.36)"><tspan x="0" y="0">–6</tspan></text><text class="k" transform="translate(33.79 524.36)"><tspan x="0" y="0">–6</tspan></text><path class="h" d="m41.51,507.83v3.31"/><text class="k" transform="translate(220.12 524.36)"><tspan x="0" y="0">–4</tspan></text><text class="f" transform="translate(220.12 524.36)"><tspan x="0" y="0">–4</tspan></text><text class="k" transform="translate(220.12 524.36)"><tspan x="0" y="0">–4</tspan></text><path class="h" d="m227.84,507.83v3.31"/><text class="k" transform="translate(407.55 524.36)"><tspan x="0" y="0">–2</tspan></text><text class="f" transform="translate(407.55 524.36)"><tspan x="0" y="0">–2</tspan></text><text class="k" transform="translate(407.55 524.36)"><tspan x="0" y="0">–2</tspan></text><path class="h" d="m415.27,507.83v3.31"/><path class="h" d="m601.59,507.83v3.31"/><text class="k" transform="translate(784.61 524.36)"><tspan x="0" y="0">2</tspan></text><text class="f" transform="translate(784.61 524.36)"><tspan x="0" y="0">2</tspan></text><text class="k" transform="translate(784.61 524.36)"><tspan x="0" y="0">2</tspan></text><path class="h" d="m789.02,507.83v3.31"/><text class="k" transform="translate(972.04 524.36)"><tspan x="0" y="0">4</tspan></text><text class="f" transform="translate(972.04 524.36)"><tspan x="0" y="0">4</tspan></text><text class="k" transform="translate(972.04 524.36)"><tspan x="0" y="0">4</tspan></text><path class="h" d="m975.35,507.83v3.31"/><text class="k" transform="translate(1158.36 524.36)"><tspan x="0" y="0">6</tspan></text><text class="f" transform="translate(1158.36 524.36)"><tspan x="0" y="0">6</tspan></text><text class="k" transform="translate(1158.36 524.36)"><tspan x="0" y="0">6</tspan></text><path class="h" d="m1161.67,507.83v3.31"/><path class="h" d="m598.28,881.58h3.31"/><path class="h" d="m598.28,694.15h3.31"/><path class="h" d="m598.28,321.5h3.31"/><path class="h" d="m598.28,134.07h3.31"/><text class="k" transform="translate(579.54 885.99)"><tspan x="0" y="0">–2</tspan></text><text class="f" transform="translate(579.54 885.99)"><tspan x="0" y="0">–2</tspan></text><text class="k" transform="translate(579.54 885.99)"><tspan x="0" y="0">–2</tspan></text><text class="k" transform="translate(579.54 699.66)"><tspan x="0" y="0">–1</tspan></text><text class="f" transform="translate(579.54 699.66)"><tspan x="0" y="0">–1</tspan></text><text class="k" transform="translate(579.54 699.66)"><tspan x="0" y="0">–1</tspan></text><text class="k" transform="translate(586.16 325.91)"><tspan x="0" y="0">1</tspan></text><text class="f" transform="translate(586.16 325.91)"><tspan x="0" y="0">1</tspan></text><text class="k" transform="translate(586.16 325.91)"><tspan x="0" y="0">1</tspan></text><text class="k" transform="translate(586.16 139.58)"><tspan x="0" y="0">2</tspan></text><text class="f" transform="translate(586.16 139.58)"><tspan x="0" y="0">2</tspan></text><text class="k" transform="translate(586.16 139.58)"><tspan x="0" y="0">2</tspan></text><text class="k" transform="translate(586.16 524.36)"><tspan x="0" y="0">0</tspan></text><text class="f" transform="translate(586.16 524.36)"><tspan x="0" y="0">0</tspan></text><text class="k" transform="translate(586.16 524.36)"><tspan x="0" y="0">0</tspan></text><path class="j" d="m-1.49,694.65H-.38s1.1,0,1.1,0h2.21s1.1,0,1.1,0h2.21s1.1,0,1.1,0h2.21s1.1,0,1.1,0h1.1s1.1,0,1.1,0h1.1s1.1,0,1.1,0h2.21s1.1,0,1.1,0h1.1s1.1,0,1.1,0h1.1s1.1,0,1.1,0h2.21s1.1,0,1.1,0h1.1s1.1,0,1.1,0h1.1s1.1,0,1.1,0h2.21s1.1,0,1.1,0h2.21s1.1,0,1.1,0h1.1s1.1,0,1.1,0h1.1s1.1,0,1.1,0h1.1s1.1,0,1.1,0h2.21s1.1,0,1.1,0h1.1s1.1,0,1.1,0h1.1s1.1,0,1.1,0h1.1s1.1,0,1.1,0h1.1s1.1,0,1.1,0h1.1s1.1,0,1.1,0h1.1s1.1,0,1.1,0h1.1s1.1,0,1.1,0h1.1s1.1,0,1.1,0h1.1s1.1,0,1.1,0h1.1s1.1,0,1.1,0h1.1s1.1,0,1.1,0h1.1s1.1,0,1.1,0h1.1s1.1,0,1.1,0h1.1s1.1,0,1.1,0h1.1s1.1,0,1.1,0h1.1s1.1,0,1.1,0h1.1s1.1,0,1.1,0h1.1s1.1,0,1.1,0h1.1s1.1,0,1.1,0h1.1s1.1,0,1.1,0h1.1s1.1,0,1.1,0h1.1s1.1,0,1.1,0h1.1s1.1,0,1.1,0h1.1s1.1,0,1.1,0h1.1s1.1,0,1.1,0h1.1s1.1,0,1.1,0h1.1s1.1,0,1.1,0h1.1s1.1,0,1.1,0h1.1s1.1,0,1.1,0h1.1s1.1,0,1.1,0h1.1s1.1,0,1.1,0h1.1s1.1,0,1.1,0h1.1s1.1,0,1.1,0h1.1s1.1,0,1.1,0h1.1s1.1,0,1.1,0h1.1s1.1,0,1.1,0h1.1s1.1,0,1.1,0h1.1s1.1,0,1.1,0h1.1s1.1,0,1.1,0h1.1s1.1,0,1.1,0h1.1s1.1,0,1.1,0h1.1s1.1,0,1.1,0h1.1s1.1,0,1.1,0h1.1s1.1,0,1.1,0h1.1s1.1,0,1.1,0h1.1s1.1,0,1.1,0h1.1s1.1,0,1.1,0h1.1s1.1,0,1.1,0h1.1s1.1,0,1.1,0h1.1s1.1,0,1.1,0h1.1s1.1,0,1.1,0h1.1s1.1,0,1.1,0h1.1s1.1,0,1.1,0h1.1s1.1,0,1.1,0h1.1s1.1,0,1.1,0h1.1s1.1,0,1.1,0h1.1s1.1,0,1.1,0h1.1s1.1,0,1.1,0h1.1s1.1,0,1.1,0h1.1s1.1,0,1.1,0h1.1s1.1,0,1.1,0h1.1s1.1,0,1.1,0h1.1s1.1,0,1.1,0h1.1s1.1,0,1.1,0h1.1s1.1,0,1.1,0h1.1s1.1,0,1.1,0h1.1s1.1,0,1.1,0h1.1s1.1,0,1.1,0h1.1s1.1,0,1.1,0h1.1s1.1,0,1.1,0h1.1s1.1,0,1.1,0h1.1s1.1,0,1.1,0h1.1s1.1,0,1.1,0h1.1s1.1,0,1.1,0h1.1s1.1,0,1.1,0h1.1s1.1,0,1.1,0h1.1s1.1,0,1.1,0h1.1s1.1,0,1.1,0h1.1s1.1,0,1.1,0h1.1s1.1,0,1.1,0h1.1s1.1,0,1.1,0h1.1s1.1,0,1.1,0h1.1s1.1,0,1.1,0h1.1s1.1,0,1.1,0h1.1s1.1,0,1.1,0h1.1s1.1,0,1.1,0h1.1s1.1,0,1.1,0h1.1s1.1,0,1.1,0h1.1s1.1,0,1.1,0h1.1s1.1,0,1.1,0h1.1s1.1,0,1.1,0h1.1s1.1,0,1.1,0h1.1s1.1,0,1.1,0h1.1s1.1-.01,1.1-.01h1.1s1.1-.01,1.1-.01h1.1s1.1-.01,1.1-.01h1.1s1.1-.01,1.1-.01h1.1s1.1-.01,1.1-.01h1.1s1.1-.01,1.1-.01h1.1s1.1-.01,1.1-.01h1.1s1.1-.01,1.1-.01h1.1s1.1-.01,1.1-.01h1.1s1.1-.02,1.1-.02h1.1s1.1-.02,1.1-.02h1.1s1.1-.02,1.1-.02h1.1s1.1-.02,1.1-.02h1.1s1.1-.02,1.1-.02h1.1s1.1-.02,1.1-.02h1.1s1.1-.02,1.1-.02h1.1s1.1-.02,1.1-.02h1.1s1.1-.02,1.1-.02h1.1s1.1-.02,1.1-.02h1.1s1.1-.02,1.1-.02h1.1s1.1-.03,1.1-.03h1.1s1.1-.03,1.1-.03h1.1s1.1-.03,1.1-.03h1.1s1.1-.03,1.1-.03h0l1.1-.02h0l1.1-.02h0l1.1-.02h0l1.1-.02h0l1.1-.02h0l1.1-.02h0l1.1-.02h0l1.1-.02h0l1.1-.02h0l1.1-.02h0l1.1-.02h0l1.1-.02h0l1.1-.02h0l1.1-.02h0l1.1-.02h0l1.1-.02h0l1.1-.02h0l1.1-.02h0l1.1-.02h0l1.1-.02h0l1.1-.02h0l1.1-.03h0l1.1-.03h0l1.1-.03h0l1.1-.03h0l1.1-.03h0l1.1-.03h0l1.1-.03h0l1.1-.03h0l1.1-.03h0l1.1-.03h0l1.1-.03h0l1.1-.03h0l1.1-.03h0l1.1-.03h0l1.1-.04h0l1.1-.04h0l1.1-.04h0l1.1-.04h0l1.1-.04h0l1.1-.04h0l1.1-.04h0l1.1-.04h0l1.1-.04h0l1.1-.04h0l1.1-.04h0l1.1-.05h0l1.1-.05h0l1.1-.05h0l1.1-.05h0l1.1-.05h0l1.1-.05h0l1.1-.05h0l1.1-.05h0l1.1-.06h0l1.1-.06h0l1.1-.06h0l1.1-.06h0l1.1-.06h0l1.1-.06h0l1.1-.06h0l1.1-.06h0l1.1-.07h0l1.1-.07h0l1.1-.07h0l1.1-.07h0l1.1-.07h0l1.1-.07h0l1.1-.08h0l1.1-.08h0l1.1-.08h0l1.1-.08h0l1.1-.08h0l1.1-.09h0l1.1-.09h0l1.1-.09h0l1.1-.09h0l1.1-.09h0l1.1-.1h0l1.1-.1h0l1.1-.1h0l1.1-.1h0l1.1-.11h0l1.1-.11h0l1.1-.11h0l1.1-.11h0l1.1-.12h0l1.1-.12h0l1.1-.12h0l1.1-.12h0l1.1-.13h0l1.1-.13h0l1.1-.13h0l1.1-.14h0l1.1-.14h0l1.1-.14h0l1.1-.15h0l1.1-.15h0l1.1-.15h0l1.1-.16h0l1.1-.16h0l1.1-.16h0l1.1-.17h0l1.1-.17h0l1.1-.17h0l1.1-.18h0l1.1-.18h0l1.1-.19h0l1.1-.19h0l1.1-.2h0l1.1-.2h0l1.1-.2h0l1.1-.21h0l1.1-.21h0l1.1-.22h0l1.1-.22h0l1.1-.23h0l1.1-.23h0l1.1-.24h0l1.1-.24h0l1.1-.25h0l1.1-.26h0l1.1-.26h0l1.1-.27h0l1.1-.27h0l1.1-.28h0l1.1-.28h0l1.1-.29h0l1.1-.3h0l1.1-.3h0l1.1-.31h0l1.1-.32h0l1.1-.32h0l1.1-.33h0l1.1-.34h0l1.1-.35h0l1.1-.35h0l1.1-.36h0l1.1-.37h0l1.1-.38h0l1.1-.39h0l1.1-.39h0l1.1-.4h0l1.1-.41h0l1.1-.42h0l1.1-.43h0l1.1-.44h0l1.1-.45h0l1.1-.46h0l1.1-.47h0l1.1-.48h0l1.1-.49h0l1.1-.5h0l1.1-.51h0l1.1-.52h0l1.1-.53h0l1.1-.54h0l1.1-.55h0l1.1-.56h0l1.1-.57h0l1.1-.59h0l1.1-.6h0l1.1-.61h0l1.1-.62h0l1.1-.64h0l1.1-.65h0l1.1-.66h0l1.1-.67h0l1.1-.69h0l1.1-.7h0l1.1-.72h0l1.1-.73h0l1.1-.74h0l1.1-.76h0l1.1-.77h0l1.1-.79h0l1.1-.8h0l1.1-.82h0l1.1-.83h0l1.1-.85h0l1.1-.86h0l1.1-.88h0l1.1-.9h0l1.1-.91h0l1.1-.93h0l1.1-.95h0l1.1-.96h0l1.1-.98h0l1.1-1h0l1.1-1.02h0l1.1-1.03h0l1.1-1.05h0l1.1-1.07h0l1.1-1.09h0l1.1-1.11h0l1.1-1.12h0l1.1-1.14h0l1.1-1.16h0l1.1-1.18h0l1.1-1.2h0l1.1-1.22h0l1.1-1.24h0l1.1-1.26h0l1.1-1.28h0l1.1-1.3h0l1.1-1.32h0l1.1-1.34h0l1.1-1.36h0l1.1-1.38h0l1.1-1.4h0l1.1-1.42h0l1.1-1.44h0l1.1-1.46h0l1.1-1.48h0l1.1-1.5h0l1.1-1.52h0l1.1-1.54h0l1.1-1.56h0l1.1-1.57h0l1.1-1.59h0l1.1-1.61h0l1.1-1.63h0l1.1-1.65h0l1.1-1.67h0l1.1-1.69h0l1.1-1.71h0l1.1-1.73h0l1.1-1.75h0l1.1-1.77h0l1.1-1.79h0l1.1-1.81h0l1.1-1.82h0l1.1-1.84h0l1.1-1.86h0l1.1-1.88h0l1.1-1.89h0l1.1-1.91h0l1.1-1.93h0l1.1-1.94h0l1.1-1.96h0l1.1-1.97h0l1.1-1.99h0l1.1-2h0l1.1-2.02h0l1.1-2.03h0l1.1-2.04h0l1.1-2.06h0l1.1-2.07h0l1.1-2.08h0l1.1-2.09h0l1.1-2.1h0l1.1-2.11h0l1.1-2.12h0l1.1-2.13h0l1.1-2.14h0l1.1-2.15h0l1.1-2.16h0l1.1-2.16h0l1.1-2.17h0l1.1-2.18h0l1.1-2.18h0l1.1-2.19h0l1.1-2.19h0l1.1-2.2h0l1.1-2.2h0l1.1-2.2h0l1.1-2.2h0l1.1-2.2h0l1.1-2.2h0l1.1-2.2h0l1.1-2.2h0l1.1-2.2h0l1.1-2.2h0l1.1-2.2h0l1.1-2.2h0l1.1-2.19h0l1.1-2.19h0l1.1-2.18h0l1.1-2.18h0l1.1-2.17h0l1.1-2.17h0l1.1-2.16h0l1.1-2.15h0l1.1-2.14h0l1.1-2.13h0l1.1-2.12h0l1.1-2.11h0l1.1-2.1h0l1.1-2.09h0l1.1-2.08h0l1.1-2.07h0l1.1-2.06h0l1.1-2.04h0l1.1-2.03h0l1.1-2.02h0l1.1-2h0l1.1-1.99h0l1.1-1.97h0l1.1-1.96h0l1.1-1.94h0l1.1-1.93h0l1.1-1.91h0l1.1-1.89h0l1.1-1.88h0l1.1-1.86h0l1.1-1.84h0l1.1-1.82h0l1.1-1.81h0l1.1-1.79h0l1.1-1.77h0l1.1-1.75h0l1.1-1.73h0l1.1-1.71h0l1.1-1.69h0l1.1-1.67h0l1.1-1.66h0l1.1-1.64h0l1.1-1.62h0l1.1-1.6h0l1.1-1.58h0l1.1-1.56h0l1.1-1.54h0l1.1-1.52h0l1.1-1.5h0l1.1-1.48h0l1.1-1.46h0l1.1-1.44h0l1.1-1.42h0l1.1-1.4h0l1.1-1.38h0l1.1-1.36h0l1.1-1.34h0l1.1-1.32h0l1.1-1.3h0l1.1-1.28h0l1.1-1.26h0l1.1-1.24h0l1.1-1.22h0l1.1-1.2h0l1.1-1.18h0l1.1-1.16h0l1.1-1.14h0l1.1-1.13h0l1.1-1.11h0l1.1-1.09h0l1.1-1.07h0l1.1-1.05h0l1.1-1.03h0l1.1-1.02h0l1.1-1h0l1.1-.98h0l1.1-.96h0l1.1-.95h0l1.1-.93h0l1.1-.91h0l1.1-.9h0l1.1-.88h0l1.1-.87h0l1.1-.85h0l1.1-.83h0l1.1-.82h0l1.1-.8h0l1.1-.79h0l1.1-.77h0l1.1-.76h0l1.1-.74h0l1.1-.73h0l1.1-.72h0l1.1-.7h0l1.1-.69h0l1.1-.68h0l1.1-.66h0l1.1-.65h0l1.1-.64h0l1.1-.62h0l1.1-.61h0l1.1-.6h0l1.1-.59h0l1.1-.58h0l1.1-.56h0l1.1-.55h0l1.1-.54h0l1.1-.53h0l1.1-.52h0l1.1-.51h0l1.1-.5h0l1.1-.49h0l1.1-.48h0l1.1-.47h0l1.1-.46h0l1.1-.45h0l1.1-.44h0l1.1-.43h0l1.1-.42h0l1.1-.41h0l1.1-.4h0l1.1-.4h0l1.1-.39h0l1.1-.38h0l1.1-.37h0l1.1-.36h0l1.1-.36h0l1.1-.35h0l1.1-.34h0l1.1-.33h0l1.1-.33h0l1.1-.32h0l1.1-.31h0l1.1-.3h0l1.1-.3h0l1.1-.29h0l1.1-.29h0l1.1-.28h0l1.1-.27h0l1.1-.27h0l1.1-.26h0l1.1-.26h0l1.1-.25h0l1.1-.24h0l1.1-.24h0l1.1-.23h0l1.1-.23h0l1.1-.22h0l1.1-.22h0l1.1-.21h0l1.1-.21h0l1.1-.2h0l1.1-.2h0l1.1-.2h0l1.1-.19h0l1.1-.19h0l1.1-.18h0l1.1-.18h0l1.1-.17h0l1.1-.17h0l1.1-.17h0l1.1-.16h0l1.1-.16h0l1.1-.16h0l1.1-.15h0l1.1-.15h0l1.1-.15h0l1.1-.14h0l1.1-.14h0l1.1-.14h0l1.1-.13h0l1.1-.13h0l1.1-.13h0l1.1-.12h0l1.1-.12h0l1.1-.12h0l1.1-.12h0l1.1-.11h0l1.1-.11h0l1.1-.11h0l1.1-.11h0l1.1-.1h0l1.1-.1h0l1.1-.1h0l1.1-.1h0l1.1-.09h0l1.1-.09h0l1.1-.09h0l1.1-.09h0l1.1-.09h0l1.1-.08h0l1.1-.08h0l1.1-.08h0l1.1-.08h0l1.1-.08h0l1.1-.07h0l1.1-.07h0l1.1-.07h0l1.1-.07h0l1.1-.07h0l1.1-.07h0l1.1-.06h0l1.1-.06h0l1.1-.06h0l1.1-.06h0l1.1-.06h0l1.1-.06h0l1.1-.06h0l1.1-.06h0l1.1-.05h0l1.1-.05h0l1.1-.05h0l1.1-.05h0l1.1-.05h0l1.1-.05h0l1.1-.05h0l1.1-.05h0l1.1-.04h0l1.1-.04h0l1.1-.04h0l1.1-.04h0l1.1-.04h0l1.1-.04h0l1.1-.04h0l1.1-.04h0l1.1-.04h0l1.1-.04h0l1.1-.04h0l1.1-.03h0l1.1-.03h0l1.1-.03h0l1.1-.03h0l1.1-.03h0l1.1-.03h0l1.1-.03h0l1.1-.03h0l1.1-.03h0l1.1-.03h0l1.1-.03h0l1.1-.03h0l1.1-.03h0l1.1-.03h0l1.1-.02h0l1.1-.02h0l1.1-.02h0l1.1-.02h0l1.1-.02h0l1.1-.02h0l1.1-.02h0l1.1-.02h0l1.1-.02h0l1.1-.02h0l1.1-.02h0l1.1-.02h0l1.1-.02h0l1.1-.02h0l1.1-.02h0l1.1-.02h0l1.1-.02h0l1.1-.02h0l1.1-.02h0l1.1-.02h0l1.1-.02h0l1.1-.02h1.1s1.1-.03,1.1-.03h1.1s1.1-.03,1.1-.03h1.1s1.1-.03,1.1-.03h1.1s1.1-.03,1.1-.03h1.1s1.1-.02,1.1-.02h1.1s1.1-.02,1.1-.02h1.1s1.1-.02,1.1-.02h1.1s1.1-.02,1.1-.02h1.1s1.1-.02,1.1-.02h1.1s1.1-.02,1.1-.02h1.1s1.1-.02,1.1-.02h1.1s1.1-.02,1.1-.02h1.1s1.1-.02,1.1-.02h1.1s1.1-.02,1.1-.02h1.1s1.1-.02,1.1-.02h1.1s1.1-.01,1.1-.01h1.1s1.1-.01,1.1-.01h1.1s1.1-.01,1.1-.01h1.1s1.1-.01,1.1-.01h1.1s1.1-.01,1.1-.01h1.1s1.1-.01,1.1-.01h1.1s1.1-.01,1.1-.01h1.1s1.1-.01,1.1-.01h1.1s1.1,0,1.1,0h1.1s1.1,0,1.1,0h1.1s1.1,0,1.1,0h1.1s1.1,0,1.1,0h1.1s1.1,0,1.1,0h1.1s1.1,0,1.1,0h1.1s1.1,0,1.1,0h1.1s1.1,0,1.1,0h1.1s1.1,0,1.1,0h1.1s1.1,0,1.1,0h1.1s1.1,0,1.1,0h1.1s1.1,0,1.1,0h1.1s1.1,0,1.1,0h1.1s1.1,0,1.1,0h1.1s1.1,0,1.1,0h1.1s1.1,0,1.1,0h1.1s1.1,0,1.1,0h1.1s1.1,0,1.1,0h1.1s1.1,0,1.1,0h1.1s1.1,0,1.1,0h1.1s1.1,0,1.1,0h1.1s1.1,0,1.1,0h1.1s1.1,0,1.1,0h1.1s1.1,0,1.1,0h1.1s1.1,0,1.1,0h1.1s1.1,0,1.1,0h1.1s1.1,0,1.1,0h1.1s1.1,0,1.1,0h1.1s1.1,0,1.1,0h1.1s1.1,0,1.1,0h1.1s1.1,0,1.1,0h1.1s1.1,0,1.1,0h1.1s1.1,0,1.1,0h1.1s1.1,0,1.1,0h1.1s1.1,0,1.1,0h1.1s1.1,0,1.1,0h1.1s1.1,0,1.1,0h1.1s1.1,0,1.1,0h1.1s1.1,0,1.1,0h1.1s1.1,0,1.1,0h1.1s1.1,0,1.1,0h1.1s1.1,0,1.1,0h1.1s1.1,0,1.1,0h1.1s1.1,0,1.1,0h1.1s1.1,0,1.1,0h1.1s1.1,0,1.1,0h1.1s1.1,0,1.1,0h1.1s1.1,0,1.1,0h1.1s1.1,0,1.1,0h1.1s1.1,0,1.1,0h1.1s1.1,0,1.1,0h1.1s1.1,0,1.1,0h1.1s1.1,0,1.1,0h1.1s1.1,0,1.1,0h1.1s1.1,0,1.1,0h1.1s1.1,0,1.1,0h1.1s1.1,0,1.1,0h1.1s1.1,0,1.1,0h1.1s1.1,0,1.1,0h1.1s1.1,0,1.1,0h1.1s1.1,0,1.1,0h1.1s1.1,0,1.1,0h1.1s1.1,0,1.1,0h1.1s1.1,0,1.1,0h1.1s1.1,0,1.1,0h1.1s1.1,0,1.1,0h1.1s1.1,0,1.1,0h1.1s1.1,0,1.1,0h1.1s1.1,0,1.1,0h1.1s1.1,0,1.1,0h1.1s1.1,0,1.1,0h1.1s1.1,0,1.1,0h1.1s1.1,0,1.1,0h1.1s1.1,0,1.1,0h1.1s1.1,0,1.1,0h1.1s1.1,0,1.1,0h1.1s1.1,0,1.1,0h1.1s1.1,0,1.1,0h1.1s1.1,0,1.1,0h1.1s1.1,0,1.1,0h1.1s1.1,0,1.1,0h1.1s1.1,0,1.1,0h1.1s1.1,0,1.1,0h1.1s1.1,0,1.1,0h1.1s1.1,0,1.1,0h1.1s1.1,0,1.1,0h1.1s1.1,0,1.1,0h1.1s1.1,0,1.1,0h1.1s1.1,0,1.1,0h1.1s1.1,0,1.1,0h1.1s1.1,0,1.1,0h1.1s1.1,0,1.1,0h1.1s1.1,0,1.1,0h1.1s1.1,0,1.1,0h1.1s1.1,0,1.1,0h1.1s1.1,0,1.1,0h1.1s1.1,0,1.1,0h1.1s1.1,0,1.1,0h1.1s1.1,0,1.1,0h1.1s1.1,0,1.1,0h1.1s1.1,0,1.1,0h1.1s1.1,0,1.1,0h1.1s1.1,0,1.1,0h1.1s1.1,0,1.1,0h1.1s1.1,0,1.1,0h1.1s1.1,0,1.1,0h1.1s1.1,0,1.1,0h1.1s1.1,0,1.1,0h1.1s1.1,0,1.1,0h1.1s1.1,0,1.1,0h1.1s1.1,0,1.1,0h1.1s1.1,0,1.1,0h1.1s1.1,0,1.1,0h1.1s1.1,0,1.1,0h1.1s1.1,0,1.1,0h2.21s1.1,0,1.1,0h2.21s1.1,0,1.1,0h1.1s1.1,0,1.1,0h1.1s1.1,0,1.1,0h2.21s1.1,0,1.1,0h1.1"/></g></g><g id="c"><path class="l" d="m-2-1.77v1013.91h1237V-1.77H-2Zm1220,976.91c0,11.05-8.95,20-20,20H35c-11.05,0-20-8.95-20-20V35.23c0-11.05,8.95-20,20-20h1163c11.05,0,20,8.95,20,20v939.91Z"/></g></svg>