<?xml version="1.0" encoding="UTF-8"?><svg xmlns="http://www.w3.org/2000/svg" viewBox="0 0 420 365"><defs><style>.uuid-9dc53fa9-53c0-424b-9797-86e7b9a7d4fc{stroke-dasharray:0 0 9.73 9.73;}.uuid-9dc53fa9-53c0-424b-9797-86e7b9a7d4fc,.uuid-785dc840-cc7f-475e-aca4-a7acf93339de,.uuid-af842ec8-9094-4f87-adde-212981de0316,.uuid-22620b37-ead6-468c-9d2c-d1be6d79ee59,.uuid-85714b7a-f306-4781-8d3f-1c4e41b576fe,.uuid-87256603-3f07-4424-b0fa-e0ab34677b37,.uuid-fb137873-e50b-440b-aca0-026678d37bb7,.uuid-855eca63-8317-47a5-8f87-29793734beee{fill:none;}.uuid-9dc53fa9-53c0-424b-9797-86e7b9a7d4fc,.uuid-785dc840-cc7f-475e-aca4-a7acf93339de,.uuid-22620b37-ead6-468c-9d2c-d1be6d79ee59,.uuid-85714b7a-f306-4781-8d3f-1c4e41b576fe,.uuid-87256603-3f07-4424-b0fa-e0ab34677b37,.uuid-fb137873-e50b-440b-aca0-026678d37bb7{stroke-linecap:round;stroke-linejoin:round;stroke-width:1.5px;}.uuid-9dc53fa9-53c0-424b-9797-86e7b9a7d4fc,.uuid-fb137873-e50b-440b-aca0-026678d37bb7{stroke:#1d71b8;}.uuid-785dc840-cc7f-475e-aca4-a7acf93339de,.uuid-85714b7a-f306-4781-8d3f-1c4e41b576fe{stroke:#008d36;}.uuid-af842ec8-9094-4f87-adde-212981de0316{stroke:#3c3c3b;}.uuid-af842ec8-9094-4f87-adde-212981de0316,.uuid-855eca63-8317-47a5-8f87-29793734beee{stroke-miterlimit:10;stroke-width:2px;}.uuid-73d09213-18f8-48aa-9e90-6b5f36f5ae0e{fill:#f6f6f6;}.uuid-22620b37-ead6-468c-9d2c-d1be6d79ee59{stroke-dasharray:0 0 10.3 10.3;}.uuid-22620b37-ead6-468c-9d2c-d1be6d79ee59,.uuid-87256603-3f07-4424-b0fa-e0ab34677b37{stroke:#e30613;}.uuid-85714b7a-f306-4781-8d3f-1c4e41b576fe{stroke-dasharray:0 0 10.29 10.29;}.uuid-330744ba-f51b-4aff-af98-1159fb8c4566{fill:#e30613;}.uuid-e7f3d7b5-628d-4fc7-a8de-0eed3a7e5f54{fill:#1d71b8;}.uuid-d930abd7-5795-40fb-8598-aa6a6dfbeefe{fill:#008d36;}.uuid-deaabb85-f7eb-468c-9731-1d2a15bd1186{fill:#c6c6c6;}.uuid-855eca63-8317-47a5-8f87-29793734beee{stroke:#c6c6c6;}</style></defs><g id="uuid-e3f31d7c-5102-487d-a1ed-28fdd5129e5c"><rect class="uuid-73d09213-18f8-48aa-9e90-6b5f36f5ae0e" x="3" y="3.5" width="414" height="358" rx="9.6" ry="9.6"/></g><g id="uuid-286411e3-444e-469d-b41f-979883299dac"><line class="uuid-855eca63-8317-47a5-8f87-29793734beee" x1="210" y1="347.11" x2="210" y2="26.89"/><polygon class="uuid-deaabb85-f7eb-468c-9731-1d2a15bd1186" points="216.98 28.93 210 16.85 203.02 28.93 216.98 28.93"/><line class="uuid-855eca63-8317-47a5-8f87-29793734beee" x1="38.39" y1="182.5" x2="381.61" y2="182.5"/><polygon class="uuid-deaabb85-f7eb-468c-9731-1d2a15bd1186" points="379.57 189.48 391.65 182.5 379.57 175.52 379.57 189.48"/><path class="uuid-e7f3d7b5-628d-4fc7-a8de-0eed3a7e5f54" d="m129.84,303.38l-4.34,4.08,1.02,2.89-1.2,1.13-3.97-11.64,1.16-1.08,11.38,4.69-1.22,1.15-2.82-1.2Zm-1.29-.55l-5.52-2.35,2,5.66,3.52-3.31Z"/><path class="uuid-e7f3d7b5-628d-4fc7-a8de-0eed3a7e5f54" d="m133.71,302.21c-.44-.47-.38-1.13.05-1.54.42-.39,1.08-.4,1.51.07s.41,1.13-.01,1.53c-.43.41-1.11.41-1.55-.06Z"/><path class="uuid-e7f3d7b5-628d-4fc7-a8de-0eed3a7e5f54" d="m135.17,294.53c-2.25-2.39-2.08-5.91.43-8.26,2.48-2.33,5.99-2.29,8.25.11,2.26,2.4,2.08,5.91-.41,8.24-2.51,2.36-6.03,2.3-8.28-.09Zm7.52-7.06c-1.7-1.81-4.3-1.87-6.11-.17-1.83,1.72-1.94,4.32-.24,6.13,1.7,1.81,4.3,1.87,6.13.15,1.81-1.7,1.91-4.3.21-6.11Z"/><path class="uuid-e7f3d7b5-628d-4fc7-a8de-0eed3a7e5f54" d="m152.81,279.84c1.78,1.89,1.65,4.4-.16,6.1-.91.85-2.03,1.25-3.19,1.02l.92.98-1.07,1.01-8.13-8.66,1.12-1.05,3.2,3.41c-.11-1.15.35-2.2,1.23-3.02,1.81-1.7,4.31-1.68,6.08.21Zm-1.13,1.06c-1.24-1.32-2.94-1.33-4.13-.21-1.18,1.11-1.28,2.8-.04,4.12,1.24,1.32,2.95,1.34,4.13.23,1.19-1.12,1.28-2.82.04-4.14Z"/><path class="uuid-e7f3d7b5-628d-4fc7-a8de-0eed3a7e5f54" d="m149.13,272.82l1.12-1.05,8.13,8.66-1.12,1.05-8.13-8.66Z"/><path class="uuid-e7f3d7b5-628d-4fc7-a8de-0eed3a7e5f54" d="m152.72,270.51c-.38-.41-.36-1.04.07-1.45.43-.41,1.05-.4,1.43,0,.39.42.38,1.04-.06,1.46-.43.41-1.05.4-1.44-.01Zm2,1.73l1.12-1.05,5.81,6.19-1.12,1.05-5.81-6.19Z"/><path class="uuid-e7f3d7b5-628d-4fc7-a8de-0eed3a7e5f54" d="m160.3,272.81c-1.73-1.84-1.59-4.43.31-6.22,1.11-1.04,2.46-1.45,3.76-1.05l-.34,1.35c-.97-.23-1.84.06-2.51.69-1.21,1.14-1.32,2.85-.09,4.16,1.26,1.34,2.96,1.33,4.17.19.68-.64,1.02-1.49.85-2.46l1.36-.26c.32,1.32-.16,2.66-1.27,3.7-1.9,1.79-4.51,1.75-6.24-.1Z"/><path class="uuid-e7f3d7b5-628d-4fc7-a8de-0eed3a7e5f54" d="m170.39,257.52l5.81,6.19-1.06,1-.88-.93c.15,1.07-.28,2.15-1.16,2.98-1.6,1.5-3.48,1.62-5.19-.2l-3.34-3.56,1.12-1.05,3.22,3.43c1.14,1.21,2.32,1.25,3.38.25,1.17-1.1,1.23-2.52-.01-3.85l-3-3.2,1.12-1.05Z"/><path class="uuid-e7f3d7b5-628d-4fc7-a8de-0eed3a7e5f54" d="m179.72,253.37l3.51,3.73-1.06,1-.77-.82c.15.91-.23,1.88-1.2,2.79-1.4,1.31-2.99,1.4-4,.33-.93-.99-1.05-2.41.79-4.14l1.77-1.67-.21-.22c-.89-.95-1.95-.98-3.06.06-.74.69-1.24,1.65-1.34,2.5l-1.26-.4c.16-1.12.82-2.26,1.81-3.19,1.69-1.59,3.42-1.67,5,.02Zm.61,2.9l-.81-.86-1.73,1.62c-1.11,1.04-1.02,1.77-.53,2.29.58.62,1.46.52,2.31-.28.84-.79,1.14-1.8.76-2.77Z"/><path class="uuid-330744ba-f51b-4aff-af98-1159fb8c4566" d="m263.37,147.67v5.95l2.8,1.23v1.65l-11.2-5.07v-1.58l11.2-5.09v1.68l-2.8,1.23Zm-1.28.56l-5.49,2.42,5.49,2.42v-4.83Z"/><path class="uuid-330744ba-f51b-4aff-af98-1159fb8c4566" d="m265.17,144.05c-.64,0-1.09-.5-1.09-1.09s.45-1.06,1.09-1.06,1.1.48,1.1,1.06-.46,1.09-1.1,1.09Z"/><path class="uuid-330744ba-f51b-4aff-af98-1159fb8c4566" d="m254.97,127.08l11.2,4.91v1.58l-11.2,4.93v-1.73l9.2-4.03-9.2-4.07v-1.6Z"/><path class="uuid-330744ba-f51b-4aff-af98-1159fb8c4566" d="m262.44,118.89v6.88c1.49-.19,2.48-1.39,2.48-3.07,0-.99-.34-1.82-1.02-2.45l.99-.85c.9.77,1.38,1.94,1.38,3.35,0,2.74-1.81,4.56-4.34,4.56s-4.32-1.81-4.32-4.26,1.76-4.19,4.37-4.19c.13,0,.32.02.46.03Zm-1.1,6.88v-5.44c-1.42.16-2.43,1.23-2.43,2.72s.99,2.56,2.43,2.72Z"/><path class="uuid-330744ba-f51b-4aff-af98-1159fb8c4566" d="m257.61,112.17h1.49c-.02.13-.02.24-.02.35,0,1.65,1.01,2.67,2.87,2.67h4.23v1.54h-8.48v-1.47h1.42c-.99-.54-1.5-1.6-1.5-3.09Z"/><path class="uuid-330744ba-f51b-4aff-af98-1159fb8c4566" d="m265.68,105.16c.4.46.59,1.17.59,1.86,0,1.71-.94,2.69-2.66,2.69h-4.66v1.44h-1.26v-1.44h-1.86v-1.54h1.86v-2.43h1.26v2.43h4.59c.91,0,1.42-.48,1.42-1.33,0-.45-.14-.88-.4-1.2l1.1-.48Z"/><path class="uuid-330744ba-f51b-4aff-af98-1159fb8c4566" d="m255.07,103.58c-.56,0-1.01-.45-1.01-1.04s.43-1.04.98-1.04c.58,0,1.02.43,1.02,1.04s-.43,1.04-.99,1.04Zm2.62-.27v-1.54h8.48v1.54h-8.48Z"/><path class="uuid-330744ba-f51b-4aff-af98-1159fb8c4566" d="m261.93,99.63c-2.53,0-4.32-1.87-4.32-4.48,0-1.52.62-2.79,1.81-3.46l.75,1.17c-.83.54-1.22,1.38-1.22,2.3,0,1.66,1.17,2.91,2.98,2.91s2.99-1.25,2.99-2.91c0-.93-.38-1.76-1.22-2.3l.74-1.17c1.18.67,1.82,1.94,1.82,3.46,0,2.61-1.81,4.48-4.34,4.48Z"/><path class="uuid-330744ba-f51b-4aff-af98-1159fb8c4566" d="m261.05,82.99h5.12v1.46h-1.12c.77.51,1.22,1.46,1.22,2.79,0,1.92-1.02,3.14-2.5,3.14-1.36,0-2.48-.88-2.48-3.41v-2.43h-.3c-1.3,0-2.05.75-2.05,2.27,0,1.01.35,2.03.91,2.69l-1.15.64c-.7-.88-1.09-2.14-1.09-3.51,0-2.32,1.12-3.63,3.44-3.63Zm2.53,1.54h-1.18v2.37c0,1.52.59,1.95,1.31,1.95.85,0,1.38-.7,1.38-1.87s-.53-2.06-1.5-2.45Z"/><path class="uuid-330744ba-f51b-4aff-af98-1159fb8c4566" d="m254.3,80.14v-1.54h11.88v1.54h-11.88Z"/><path class="uuid-d930abd7-5795-40fb-8598-aa6a6dfbeefe" d="m86.42,108.33h-5.95l-1.23,2.8h-1.65l5.07-11.2h1.58l5.09,11.2h-1.68l-1.23-2.8Zm-.56-1.28l-2.42-5.49-2.42,5.49h4.83Z"/><path class="uuid-d930abd7-5795-40fb-8598-aa6a6dfbeefe" d="m90.05,110.12c0-.64.5-1.09,1.09-1.09s1.06.45,1.06,1.09-.48,1.1-1.06,1.1-1.09-.46-1.09-1.1Z"/><path class="uuid-d930abd7-5795-40fb-8598-aa6a6dfbeefe" d="m106.91,99.92v11.2h-1.6v-4.99h-6.43v4.99h-1.6v-11.2h1.6v4.82h6.43v-4.82h1.6Z"/><path class="uuid-d930abd7-5795-40fb-8598-aa6a6dfbeefe" d="m109.26,106.89c0-2.53,1.87-4.32,4.42-4.32s4.4,1.79,4.4,4.32-1.86,4.34-4.4,4.34-4.42-1.81-4.42-4.34Zm7.27,0c0-1.81-1.22-2.98-2.85-2.98s-2.86,1.17-2.86,2.98,1.23,2.99,2.86,2.99,2.85-1.18,2.85-2.99Z"/><path class="uuid-d930abd7-5795-40fb-8598-aa6a6dfbeefe" d="m124.77,102.56v1.49c-.13-.02-.24-.02-.35-.02-1.65,0-2.67,1.01-2.67,2.87v4.23h-1.54v-8.48h1.47v1.42c.54-.99,1.6-1.5,3.09-1.5Z"/><path class="uuid-d930abd7-5795-40fb-8598-aa6a6dfbeefe" d="m126.38,100.02c0-.56.45-1.01,1.04-1.01s1.04.43,1.04.98c0,.58-.43,1.02-1.04,1.02s-1.04-.43-1.04-.99Zm.27,2.62h1.54v8.48h-1.54v-8.48Z"/><path class="uuid-d930abd7-5795-40fb-8598-aa6a6dfbeefe" d="m137.41,109.86v1.26h-7.11v-.99l5.01-6.23h-4.91v-1.26h6.88v1.01l-5.01,6.21h5.14Z"/><path class="uuid-d930abd7-5795-40fb-8598-aa6a6dfbeefe" d="m138.54,106.89c0-2.53,1.87-4.32,4.42-4.32s4.4,1.79,4.4,4.32-1.86,4.34-4.4,4.34-4.42-1.81-4.42-4.34Zm7.27,0c0-1.81-1.22-2.98-2.85-2.98s-2.86,1.17-2.86,2.98,1.23,2.99,2.86,2.99,2.85-1.18,2.85-2.99Z"/><path class="uuid-d930abd7-5795-40fb-8598-aa6a6dfbeefe" d="m157.54,106.25v4.88h-1.54v-4.71c0-1.66-.83-2.48-2.29-2.48-1.63,0-2.69.98-2.69,2.82v4.37h-1.54v-8.48h1.47v1.28c.62-.86,1.71-1.36,3.06-1.36,2.06,0,3.52,1.18,3.52,3.68Z"/><path class="uuid-d930abd7-5795-40fb-8598-aa6a6dfbeefe" d="m165.15,110.63c-.46.4-1.17.59-1.86.59-1.71,0-2.69-.94-2.69-2.66v-4.66h-1.44v-1.26h1.44v-1.86h1.54v1.86h2.43v1.26h-2.43v4.59c0,.91.48,1.42,1.33,1.42.45,0,.88-.14,1.2-.4l.48,1.1Z"/><path class="uuid-d930abd7-5795-40fb-8598-aa6a6dfbeefe" d="m173.73,106.01v5.12h-1.46v-1.12c-.51.77-1.46,1.22-2.79,1.22-1.92,0-3.14-1.02-3.14-2.5,0-1.36.88-2.48,3.41-2.48h2.43v-.3c0-1.3-.75-2.05-2.27-2.05-1.01,0-2.03.35-2.69.91l-.64-1.15c.88-.7,2.14-1.09,3.51-1.09,2.32,0,3.63,1.12,3.63,3.44Zm-1.54,2.53v-1.18h-2.37c-1.52,0-1.95.59-1.95,1.31,0,.85.7,1.38,1.87,1.38s2.06-.53,2.45-1.5Z"/><path class="uuid-d930abd7-5795-40fb-8598-aa6a6dfbeefe" d="m176.57,99.25h1.54v11.88h-1.54v-11.88Z"/><path class="uuid-af842ec8-9094-4f87-adde-212981de0316" d="m42.48,125.37c18.78-.99,93.35-5.61,137.22,9.91,58.96,20.87,77.22,37.72,80.35,200.87"/><path class="uuid-af842ec8-9094-4f87-adde-212981de0316" d="m280.02,14.02c0,22.43,2.81,96.26,16.46,111.43,13.8,15.35,67.54-37.87,79.02-52.48"/><line class="uuid-fb137873-e50b-440b-aca0-026678d37bb7" x1="108.91" y1="336.15" x2="112.55" y2="332.72"/><line class="uuid-9dc53fa9-53c0-424b-9797-86e7b9a7d4fc" x1="119.63" y1="326.05" x2="371.06" y2="89.24"/><line class="uuid-fb137873-e50b-440b-aca0-026678d37bb7" x1="374.6" y1="85.9" x2="378.24" y2="82.48"/><line class="uuid-87256603-3f07-4424-b0fa-e0ab34677b37" x1="272.3" y1="17.89" x2="272.3" y2="22.89"/><line class="uuid-22620b37-ead6-468c-9d2c-d1be6d79ee59" x1="272.3" y1="33.19" x2="272.3" y2="336.96"/><line class="uuid-87256603-3f07-4424-b0fa-e0ab34677b37" x1="272.3" y1="342.11" x2="272.3" y2="347.11"/><line class="uuid-785dc840-cc7f-475e-aca4-a7acf93339de" x1="45.59" y1="117.54" x2="50.59" y2="117.54"/><line class="uuid-85714b7a-f306-4781-8d3f-1c4e41b576fe" x1="60.88" y1="117.54" x2="199.85" y2="117.54"/><line class="uuid-785dc840-cc7f-475e-aca4-a7acf93339de" x1="205" y1="117.54" x2="210" y2="117.54"/></g></svg>