<?xml version="1.0" encoding="UTF-8"?><svg xmlns="http://www.w3.org/2000/svg" xmlns:xlink="http://www.w3.org/1999/xlink" viewBox="0 0 1232.74 1010.14"><defs><style>.e{fill:#fff;}.f{fill:#252525;}.f,.g{font-family:Helvetica-Bold, Helvetica;font-size:13.21px;font-weight:700;isolation:isolate;}.h{letter-spacing:-.05em;}.i{clip-path:url(#b);}.i,.j,.k,.g,.l{fill:none;}.j{stroke:#252525;stroke-miterlimit:10;stroke-width:2px;}.m{fill:#00699b;}.g{stroke:#fff;stroke-linejoin:bevel;stroke-width:3px;}.l{stroke:rgba(219,97,20,.8);stroke-linecap:round;stroke-linejoin:round;stroke-width:7px;}</style><clipPath id="b"><rect class="k" x="-.89" y="16.56" width="1219.65" height="978.59"/></clipPath></defs><g id="a"><g class="i"><rect class="e" x="-.89" y="16.56" width="1219.65" height="978.59"/><path class="j" d="m602.33,19.86v975.28"/><path class="j" d="m602.33,18.76l-5.5,5.5"/><path class="j" d="m602.33,18.76l5.5,5.5"/><path class="j" d="m-.89,939h1216.35"/><path class="j" d="m1216.56,939l-5.5-5.5"/><path class="j" d="m1216.56,939l-5.5,5.5"/><text class="f" transform="translate(98.18 955.51)"><tspan x="0" y="0">–4</tspan></text><text class="g" transform="translate(98.18 955.51)"><tspan x="0" y="0">–4</tspan></text><text class="f" transform="translate(98.18 955.51)"><tspan x="0" y="0">–4</tspan></text><path class="j" d="m105.89,939v3.3"/><text class="f" transform="translate(345.85 955.51)"><tspan x="0" y="0">–2</tspan></text><text class="g" transform="translate(345.85 955.51)"><tspan x="0" y="0">–2</tspan></text><text class="f" transform="translate(345.85 955.51)"><tspan x="0" y="0">–2</tspan></text><path class="j" d="m353.56,939v3.3"/><path class="j" d="m602.33,939v3.3"/><text class="f" transform="translate(846.71 955.51)"><tspan x="0" y="0">2</tspan></text><text class="g" transform="translate(846.71 955.51)"><tspan x="0" y="0">2</tspan></text><text class="f" transform="translate(846.71 955.51)"><tspan x="0" y="0">2</tspan></text><path class="j" d="m850.01,939v3.3"/><text class="f" transform="translate(1095.48 955.51)"><tspan x="0" y="0">4</tspan></text><text class="g" transform="translate(1095.48 955.51)"><tspan x="0" y="0">4</tspan></text><text class="f" transform="translate(1095.48 955.51)"><tspan x="0" y="0">4</tspan></text><path class="j" d="m1098.78,939v3.3"/><path class="j" d="m599.03,876.26h3.3"/><path class="j" d="m599.03,814.61h3.3"/><path class="j" d="m599.03,752.97h3.3"/><path class="j" d="m599.03,690.23h3.3"/><path class="j" d="m599.03,628.58h3.3"/><path class="j" d="m599.03,565.84h3.3"/><path class="j" d="m599.03,504.2h3.3"/><path class="j" d="m599.03,442.55h3.3"/><path class="j" d="m599.03,379.81h3.3"/><path class="j" d="m599.03,318.17h3.3"/><path class="j" d="m599.03,255.42h3.3"/><path class="j" d="m599.03,193.78h3.3"/><path class="j" d="m599.03,132.14h3.3"/><path class="j" d="m599.03,69.39h3.3"/><text class="f" transform="translate(585.82 881.76)"><tspan x="0" y="0">1</tspan></text><text class="g" transform="translate(585.82 881.76)"><tspan x="0" y="0">1</tspan></text><text class="f" transform="translate(585.82 881.76)"><tspan x="0" y="0">1</tspan></text><text class="f" transform="translate(585.82 819.02)"><tspan x="0" y="0">2</tspan></text><text class="g" transform="translate(585.82 819.02)"><tspan x="0" y="0">2</tspan></text><text class="f" transform="translate(585.82 819.02)"><tspan x="0" y="0">2</tspan></text><text class="f" transform="translate(585.82 757.37)"><tspan x="0" y="0">3</tspan></text><text class="g" transform="translate(585.82 757.37)"><tspan x="0" y="0">3</tspan></text><text class="f" transform="translate(585.82 757.37)"><tspan x="0" y="0">3</tspan></text><text class="f" transform="translate(585.82 695.73)"><tspan x="0" y="0">4</tspan></text><text class="g" transform="translate(585.82 695.73)"><tspan x="0" y="0">4</tspan></text><text class="f" transform="translate(585.82 695.73)"><tspan x="0" y="0">4</tspan></text><text class="f" transform="translate(585.82 632.99)"><tspan x="0" y="0">5</tspan></text><text class="g" transform="translate(585.82 632.99)"><tspan x="0" y="0">5</tspan></text><text class="f" transform="translate(585.82 632.99)"><tspan x="0" y="0">5</tspan></text><text class="f" transform="translate(585.82 571.34)"><tspan x="0" y="0">6</tspan></text><text class="g" transform="translate(585.82 571.34)"><tspan x="0" y="0">6</tspan></text><text class="f" transform="translate(585.82 571.34)"><tspan x="0" y="0">6</tspan></text><text class="f" transform="translate(585.82 509.7)"><tspan x="0" y="0">7</tspan></text><text class="g" transform="translate(585.82 509.7)"><tspan x="0" y="0">7</tspan></text><text class="f" transform="translate(585.82 509.7)"><tspan x="0" y="0">7</tspan></text><text class="f" transform="translate(585.82 446.96)"><tspan x="0" y="0">8</tspan></text><text class="g" transform="translate(585.82 446.96)"><tspan x="0" y="0">8</tspan></text><text class="f" transform="translate(585.82 446.96)"><tspan x="0" y="0">8</tspan></text><text class="f" transform="translate(585.82 385.31)"><tspan x="0" y="0">9</tspan></text><text class="g" transform="translate(585.82 385.31)"><tspan x="0" y="0">9</tspan></text><text class="f" transform="translate(585.82 385.31)"><tspan x="0" y="0">9</tspan></text><text class="f" transform="translate(579.22 322.57)"><tspan x="0" y="0">10</tspan></text><text class="g" transform="translate(579.22 322.57)"><tspan x="0" y="0">10</tspan></text><text class="f" transform="translate(579.22 322.57)"><tspan x="0" y="0">10</tspan></text><text class="f" transform="translate(579.22 260.93)"><tspan class="h" x="0" y="0">1</tspan><tspan x="6.62" y="0">1</tspan></text><text class="g" transform="translate(579.22 260.93)"><tspan class="h" x="0" y="0">1</tspan><tspan x="6.62" y="0">1</tspan></text><text class="f" transform="translate(579.22 260.93)"><tspan class="h" x="0" y="0">1</tspan><tspan x="6.62" y="0">1</tspan></text><text class="f" transform="translate(579.22 199.28)"><tspan x="0" y="0">12</tspan></text><text class="g" transform="translate(579.22 199.28)"><tspan x="0" y="0">12</tspan></text><text class="f" transform="translate(579.22 199.28)"><tspan x="0" y="0">12</tspan></text><text class="f" transform="translate(579.22 136.54)"><tspan x="0" y="0">13</tspan></text><text class="g" transform="translate(579.22 136.54)"><tspan x="0" y="0">13</tspan></text><text class="f" transform="translate(579.22 136.54)"><tspan x="0" y="0">13</tspan></text><text class="f" transform="translate(579.22 74.9)"><tspan x="0" y="0">14</tspan></text><text class="g" transform="translate(579.22 74.9)"><tspan x="0" y="0">14</tspan></text><text class="f" transform="translate(579.22 74.9)"><tspan x="0" y="0">14</tspan></text><text class="f" transform="translate(585.82 955.51)"><tspan x="0" y="0">0</tspan></text><text class="g" transform="translate(585.82 955.51)"><tspan x="0" y="0">0</tspan></text><text class="f" transform="translate(585.82 955.51)"><tspan x="0" y="0">0</tspan></text><path class="l" d="m.21,938.23H.21s0,0,0,0h1.1s1.1,0,1.1,0h1.1s1.1,0,1.1,0h1.1s1.1,0,1.1,0h1.1s1.1,0,1.1,0h1.1s1.1,0,1.1,0h1.1s1.1,0,1.1,0h1.1s1.1,0,1.1,0h1.1s1.1,0,1.1,0h1.1s1.1-.01,1.1-.01h1.1s1.1-.01,1.1-.01h1.1s1.1-.01,1.1-.01h1.1s1.1-.01,1.1-.01h1.1s1.1-.01,1.1-.01h1.1s1.1-.01,1.1-.01h1.1s1.1-.01,1.1-.01h1.1s1.1-.01,1.1-.01h1.1s1.1-.01,1.1-.01h1.1s1.1-.01,1.1-.01h1.1s1.1-.01,1.1-.01h1.1s1.1-.01,1.1-.01h1.1s1.1-.01,1.1-.01h1.1s1.1-.01,1.1-.01h1.1s1.1-.01,1.1-.01h1.1s1.1-.01,1.1-.01h1.1s1.1-.01,1.1-.01h1.1s1.1-.01,1.1-.01h1.1s1.1-.01,1.1-.01h1.1s1.1-.01,1.1-.01h1.1s1.1-.01,1.1-.01h1.1s1.1-.01,1.1-.01h1.1s1.1-.01,1.1-.01h1.1s1.1-.02,1.1-.02h1.1s1.1-.02,1.1-.02h1.1s1.1-.02,1.1-.02h1.1s1.1-.02,1.1-.02h1.1s1.1-.02,1.1-.02h1.1s1.1-.02,1.1-.02h1.1s1.1-.02,1.1-.02h1.1s1.1-.02,1.1-.02h1.1s1.1-.02,1.1-.02h1.1s1.1-.02,1.1-.02h1.1s1.1-.02,1.1-.02h1.1s1.1-.02,1.1-.02h1.1s1.1-.02,1.1-.02h1.1s1.1-.02,1.1-.02h1.1s1.1-.02,1.1-.02h1.1s1.1-.02,1.1-.02h1.1s1.1-.02,1.1-.02h1.1s1.1-.02,1.1-.02h1.1s1.1-.02,1.1-.02h1.1s1.1-.02,1.1-.02h1.1s1.1-.02,1.1-.02h1.1s1.1-.02,1.1-.02h1.1s1.1-.02,1.1-.02h1.1s1.1-.02,1.1-.02h1.1s1.1-.02,1.1-.02h1.1s1.1-.02,1.1-.02h1.1s1.1-.02,1.1-.02h1.1s1.1-.02,1.1-.02h1.1s1.1-.02,1.1-.02h1.1s1.1-.03,1.1-.03h1.1s1.1-.03,1.1-.03h1.1s1.1-.03,1.1-.03h1.1s1.1-.03,1.1-.03h1.1s1.1-.03,1.1-.03h1.1s1.1-.03,1.1-.03h1.1s1.1-.03,1.1-.03h1.1s1.1-.03,1.1-.03h1.1s1.1-.03,1.1-.03h1.1s1.1-.03,1.1-.03h0l1.1-.02h0l1.1-.02h0l1.1-.02h0l1.1-.02h0l1.1-.02h0l1.1-.02h0l1.1-.02h0l1.1-.02h0l1.1-.02h0l1.1-.02h0l1.1-.02h0l1.1-.02h0l1.1-.02h0l1.1-.02h0l1.1-.02h0l1.1-.02h0l1.1-.02h0l1.1-.02h0l1.1-.02h0l1.1-.02h0l1.1-.02h0l1.1-.02h0l1.1-.02h0l1.1-.02h0l1.1-.02h0l1.1-.02h0l1.1-.02h0l1.1-.02h0l1.1-.02h0l1.1-.02h0l1.1-.02h0l1.1-.02h0l1.1-.02h0l1.1-.02h0l1.1-.02h0l1.1-.02h0l1.1-.02h0l1.1-.02h0l1.1-.02h0l1.1-.02h0l1.1-.02h0l1.1-.02h0l1.1-.02h0l1.1-.02h0l1.1-.02h0l1.1-.02h0l1.1-.02h0l1.1-.02h0l1.1-.02h0l1.1-.02h0l1.1-.02h0l1.1-.02h0l1.1-.02h0l1.1-.02h0l1.1-.02h0l1.1-.02h0l1.1-.02h0l1.1-.02h0l1.1-.03h0l1.1-.03h0l1.1-.03h0l1.1-.03h0l1.1-.03h0l1.1-.03h0l1.1-.03h0l1.1-.03h0l1.1-.03h0l1.1-.03h0l1.1-.03h0l1.1-.03h0l1.1-.03h0l1.1-.03h0l1.1-.03h0l1.1-.03h0l1.1-.03h0l1.1-.03h0l1.1-.03h0l1.1-.03h0l1.1-.03h0l1.1-.03h0l1.1-.03h0l1.1-.03h0l1.1-.03h0l1.1-.03h0l1.1-.03h0l1.1-.03h0l1.1-.03h0l1.1-.03h0l1.1-.03h0l1.1-.03h0l1.1-.03h0l1.1-.03h0l1.1-.03h0l1.1-.03h0l1.1-.03h0l1.1-.03h0l1.1-.04h0l1.1-.04h0l1.1-.04h0l1.1-.04h0l1.1-.04h0l1.1-.04h0l1.1-.04h0l1.1-.04h0l1.1-.04h0l1.1-.04h0l1.1-.04h0l1.1-.04h0l1.1-.04h0l1.1-.04h0l1.1-.04h0l1.1-.04h0l1.1-.04h0l1.1-.04h0l1.1-.04h0l1.1-.04h0l1.1-.04h0l1.1-.04h0l1.1-.04h0l1.1-.04h0l1.1-.04h0l1.1-.04h0l1.1-.04h0l1.1-.04h0l1.1-.05h0l1.1-.05h0l1.1-.05h0l1.1-.05h0l1.1-.05h0l1.1-.05h0l1.1-.05h0l1.1-.05h0l1.1-.05h0l1.1-.05h0l1.1-.05h0l1.1-.05h0l1.1-.05h0l1.1-.05h0l1.1-.05h0l1.1-.05h0l1.1-.05h0l1.1-.05h0l1.1-.05h0l1.1-.05h0l1.1-.05h0l1.1-.05h0l1.1-.05h0l1.1-.06h0l1.1-.06h0l1.1-.06h0l1.1-.06h0l1.1-.06h0l1.1-.06h0l1.1-.06h0l1.1-.06h0l1.1-.06h0l1.1-.06h0l1.1-.06h0l1.1-.06h0l1.1-.06h0l1.1-.06h0l1.1-.06h0l1.1-.06h0l1.1-.06h0l1.1-.06h0l1.1-.06h0l1.1-.07h0l1.1-.07h0l1.1-.07h0l1.1-.07h0l1.1-.07h0l1.1-.07h0l1.1-.07h0l1.1-.07h0l1.1-.07h0l1.1-.07h0l1.1-.07h0l1.1-.07h0l1.1-.07h0l1.1-.07h0l1.1-.07h0l1.1-.07h0l1.1-.08h0l1.1-.08h0l1.1-.08h0l1.1-.08h0l1.1-.08h0l1.1-.08h0l1.1-.08h0l1.1-.08h0l1.1-.08h0l1.1-.08h0l1.1-.08h0l1.1-.08h0l1.1-.08h0l1.1-.08h0l1.1-.09h0l1.1-.09h0l1.1-.09h0l1.1-.09h0l1.1-.09h0l1.1-.09h0l1.1-.09h0l1.1-.09h0l1.1-.09h0l1.1-.09h0l1.1-.09h0l1.1-.09h0l1.1-.09h0l1.1-.1h0l1.1-.1h0l1.1-.1h0l1.1-.1h0l1.1-.1h0l1.1-.1h0l1.1-.1h0l1.1-.1h0l1.1-.1h0l1.1-.1h0l1.1-.1h0l1.1-.11h0l1.1-.11h0l1.1-.11h0l1.1-.11h0l1.1-.11h0l1.1-.11h0l1.1-.11h0l1.1-.11h0l1.1-.11h0l1.1-.11h0l1.1-.12h0l1.1-.12h0l1.1-.12h0l1.1-.12h0l1.1-.12h0l1.1-.12h0l1.1-.12h0l1.1-.12h0l1.1-.12h0l1.1-.12h0l1.1-.13h0l1.1-.13h0l1.1-.13h0l1.1-.13h0l1.1-.13h0l1.1-.13h0l1.1-.13h0l1.1-.13h0l1.1-.14h0l1.1-.14h0l1.1-.14h0l1.1-.14h0l1.1-.14h0l1.1-.14h0l1.1-.14h0l1.1-.14h0l1.1-.15h0l1.1-.15h0l1.1-.15h0l1.1-.15h0l1.1-.15h0l1.1-.15h0l1.1-.15h0l1.1-.15h0l1.1-.16h0l1.1-.16h0l1.1-.16h0l1.1-.16h0l1.1-.16h0l1.1-.16h0l1.1-.16h0l1.1-.17h0l1.1-.17h0l1.1-.17h0l1.1-.17h0l1.1-.17h0l1.1-.17h0l1.1-.18h0l1.1-.18h0l1.1-.18h0l1.1-.18h0l1.1-.18h0l1.1-.18h0l1.1-.18h0l1.1-.19h0l1.1-.19h0l1.1-.19h0l1.1-.19h0l1.1-.19h0l1.1-.19h0l1.1-.2h0l1.1-.2h0l1.1-.2h0l1.1-.2h0l1.1-.2h0l1.1-.21h0l1.1-.21h0l1.1-.21h0l1.1-.21h0l1.1-.21h0l1.1-.21h0l1.1-.22h0l1.1-.22h0l1.1-.22h0l1.1-.22h0l1.1-.22h0l1.1-.23h0l1.1-.23h0l1.1-.23h0l1.1-.23h0l1.1-.23h0l1.1-.24h0l1.1-.24h0l1.1-.24h0l1.1-.24h0l1.1-.25h0l1.1-.25h0l1.1-.25h0l1.1-.25h0l1.1-.25h0l1.1-.26h0l1.1-.26h0l1.1-.26h0l1.1-.26h0l1.1-.27h0l1.1-.27h0l1.1-.27h0l1.1-.27h0l1.1-.28h0l1.1-.28h0l1.1-.28h0l1.1-.28h0l1.1-.29h0l1.1-.29h0l1.1-.29h0l1.1-.29h0l1.1-.3h0l1.1-.3h0l1.1-.3h0l1.1-.3h0l1.1-.31h0l1.1-.31h0l1.1-.31h0l1.1-.31h0l1.1-.32h0l1.1-.32h0l1.1-.32h0l1.1-.33h0l1.1-.33h0l1.1-.33h0l1.1-.33h0l1.1-.34h0l1.1-.34h0l1.1-.34h0l1.1-.35h0l1.1-.35h0l1.1-.35h0l1.1-.36h0l1.1-.36h0l1.1-.36h0l1.1-.37h0l1.1-.37h0l1.1-.37h0l1.1-.38h0l1.1-.38h0l1.1-.38h0l1.1-.39h0l1.1-.39h0l1.1-.39h0l1.1-.4h0l1.1-.4h0l1.1-.4h0l1.1-.41h0l1.1-.41h0l1.1-.41h0l1.1-.42h0l1.1-.42h0l1.1-.42h0l1.1-.43h0l1.1-.43h0l1.1-.44h0l1.1-.44h0l1.1-.44h0l1.1-.45h0l1.1-.45h0l1.1-.46h0l1.1-.46h0l1.1-.46h0l1.1-.47h0l1.1-.47h0l1.1-.48h0l1.1-.48h0l1.1-.49h0l1.1-.49h0l1.1-.49h0l1.1-.5h0l1.1-.5h0l1.1-.51h0l1.1-.51h0l1.1-.52h0l1.1-.52h0l1.1-.53h0l1.1-.53h0l1.1-.53h0l1.1-.54h0l1.1-.54h0l1.1-.55h0l1.1-.55h0l1.1-.56h0l1.1-.56h0l1.1-.57h0l1.1-.57h0l1.1-.58h0l1.1-.58h0l1.1-.59h0l1.1-.59h0l1.1-.6h0l1.1-.61h0l1.1-.61h0l1.1-.62h0l1.1-.62h0l1.1-.63h0l1.1-.63h0l1.1-.64h0l1.1-.64h0l1.1-.65h0l1.1-.66h0l1.1-.66h0l1.1-.67h0l1.1-.67h0l1.1-.68h0l1.1-.69h0l1.1-.69h0l1.1-.7h0l1.1-.7h0l1.1-.71h0l1.1-.72h0l1.1-.72h0l1.1-.73h0l1.1-.74h0l1.1-.74h0l1.1-.75h0l1.1-.76h0l1.1-.76h0l1.1-.77h0l1.1-.78h0l1.1-.78h0l1.1-.79h0l1.1-.8h0l1.1-.8h0l1.1-.81h0l1.1-.82h0l1.1-.83h0l1.1-.83h0l1.1-.84h0l1.1-.85h0l1.1-.86h0l1.1-.86h0l1.1-.87h0l1.1-.88h0l1.1-.89h0l1.1-.89h0l1.1-.9h0l1.1-.91h0l1.1-.92h0l1.1-.93h0l1.1-.94h0l1.1-.94h0l1.1-.95h0l1.1-.96h0l1.1-.97h0l1.1-.98h0l1.1-.99h0l1.1-1h0l1.1-1h0l1.1-1.01h0l1.1-1.02h0l1.1-1.03h0l1.1-1.04h0l1.1-1.05h0l1.1-1.06h0l1.1-1.07h0l1.1-1.08h0l1.1-1.09h0l1.1-1.1h0l1.1-1.11h0l1.1-1.12h0l1.1-1.13h0l1.1-1.14h0l1.1-1.15h0l1.1-1.16h0l1.1-1.17h0l1.1-1.18h0l1.1-1.19h0l1.1-1.2h0l1.1-1.21h0l1.1-1.22h0l1.1-1.23h0l1.1-1.24h0l1.1-1.25h0l1.1-1.26h0l1.1-1.28h0l1.1-1.29h0l1.1-1.3h0l1.1-1.31h0l1.1-1.32h0l1.1-1.33h0l1.1-1.35h0l1.1-1.36h0l1.1-1.37h0l1.1-1.38h0l1.1-1.39h0l1.1-1.41h0l1.1-1.42h0l1.1-1.43h0l1.1-1.44h0l1.1-1.46h0l1.1-1.47h0l1.1-1.48h0l1.1-1.5h0l1.1-1.51h0l1.1-1.52h0l1.1-1.54h0l1.1-1.55h0l1.1-1.56h0l1.1-1.58h0l1.1-1.59h0l1.1-1.61h0l1.1-1.62h0l1.1-1.63h0l1.1-1.65h0l1.1-1.66h0l1.1-1.68h0l1.1-1.69h0l1.1-1.71h0l1.1-1.72h0l1.1-1.74h0l1.1-1.76h0l1.1-1.77h0l1.1-1.79h0l1.1-1.8h0l1.1-1.82h0l1.1-1.83h0l1.1-1.85h0l1.1-1.87h0l1.1-1.88h0l1.1-1.9h0l1.1-1.92h0l1.1-1.93h0l1.1-1.95h0l1.1-1.97h0l1.1-1.99h0l1.1-2h0l1.1-2.02h0l1.1-2.04h0l1.1-2.06h0l1.1-2.08h0l1.1-2.1h0l1.1-2.11h0l1.1-2.13h0l1.1-2.15h0l1.1-2.17h0l1.1-2.19h0l1.1-2.21h0l1.1-2.23h0l1.1-2.25h0l1.1-2.27h0l1.1-2.29h0l1.1-2.31h0l1.1-2.33h0l1.1-2.35h0l1.1-2.37h0l1.1-2.39h0l1.1-2.41h0l1.1-2.44h0l1.1-2.46h0l1.1-2.48h0l1.1-2.5h0l1.1-2.52h0l1.1-2.55h0l1.1-2.57h0l1.1-2.59h0l1.1-2.62h0l1.1-2.64h0l1.1-2.66h0l1.1-2.69h0l1.1-2.71h0l1.1-2.73h0l1.1-2.76h0l1.1-2.78h0l1.1-2.81h0l1.1-2.83h0l1.1-2.86h0l1.1-2.88h0l1.1-2.91h0l1.1-2.94h0l1.1-2.96h0l1.1-2.99h0l1.1-3.01h0l1.1-3.04h0l1.1-3.07h0l1.1-3.1h0l1.1-3.12h0l1.1-3.15h0l1.1-3.18h0l1.1-3.21h0l1.1-3.24h0l1.1-3.26h0l1.1-3.29h0l1.1-3.32h0l1.1-3.35h0l1.1-3.38h0l1.1-3.41h0l1.1-3.44h0l1.1-3.47h0l1.1-3.5h0l1.1-3.54h0l1.1-3.57h0l1.1-3.6h0l1.1-3.63h0l1.1-3.66h0l1.1-3.7h0l1.1-3.73h0l1.1-3.76h0l1.1-3.8h0l1.1-3.83h0l1.1-3.86h0l1.1-3.9h0l1.1-3.93h0l1.1-3.97h0l1.1-4h0l1.1-4.04h0l1.1-4.08h0l1.1-4.11h0l1.1-4.15h0l1.1-4.18h0l1.1-4.22h0l1.1-4.26h0l1.1-4.3h0l1.1-4.34h0l1.1-4.37h0l1.1-4.41h0l1.1-4.45h0l1.1-4.49h0l1.1-4.53h0l1.1-4.57h0l1.1-4.61h0l1.1-4.65h0l1.1-4.7h0l1.1-4.74h0l1.1-4.78h0l1.1-4.82h0l1.1-4.87h0l1.1-4.91h0l1.1-4.95h0l1.1-5h0l1.1-5.04h0l1.1-5.09h0l1.1-5.13h0l1.1-5.18h0l1.1-5.22h0l1.1-5.27h0l1.1-5.32h0l1.1-5.36h0l1.1-5.41h0l1.1-5.46h0l1.1-5.51h0l1.1-5.56h0l1.1-5.61h0l1.1-5.66h0l1.1-5.71h0l1.1-5.76h0l1.1-5.81h0l1.1-5.86h0l1.1-5.91h0l1.1-5.97h0l1.1-6.02h0l1.1-6.07h0l1.1-6.13h0l1.1-6.18h0l1.1-6.24h0l1.1-6.29h0l1.1-6.35h0l1.1-6.41h0l1.1-6.46h0l1.1-6.52h0l1.1-6.58h0l1.1-6.64h0l1.1-6.7h0l1.1-6.76h0l1.1-6.82h0l1.1-6.88h0l1.1-6.94h0l1.1-7h0l1.1-7.06h0l1.1-7.12h0l1.1-7.19h0l1.1-7.25h0l1.1-7.32h0l1.1-7.38h0l1.1-7.45h0l1.1-7.51h0l1.1-7.58h0l1.1-7.65h0l1.1-7.72h0l1.1-7.78h0l1.1-7.85h0l1.1-7.92h0l1.1-7.99h0l1.1-8.07h0l1.1-8.14h0l1.1-8.21h0l1.1-8.28h0l1.1-8.36h0l1.1-8.43h0l1.1-8.51h0l1.1-8.58h0l1.1-8.66h0l1.1-8.74h0l1.1-8.81h0l1.1-8.89h0l1.1-8.97h0l1.1-9.05h0l1.1-9.13h0l1.1-9.21h0l1.1-9.3h0l1.1-9.38h0l1.1-9.46h0l1.1-9.55h0l1.1-9.63h0l1.1-9.72h0l1.1-9.8h0l1.1-9.89h0l1.1-9.98h0l1.1-10.07h0l1.1-10.16h0l1.1-10.25h0l1.1-10.34h0l1.1-10.43h0l1.1-10.52h0l1.1-10.62h0l1.1-10.71h0l1.1-10.81h0l1.1-10.9h0l1.1-11h0l1.1-11.1h0l1.1-11.2h0l1.1-11.3h0l1.1-11.4h0l1.1-11.5h0l1.1-11.6h0l1.1-11.71h0l1.1-11.81h0l1.1-11.91h0l1.1-12.02h0l1.1-12.13h0l1.1-12.24h0l1.1-12.35h0l1.1-12.46h0l1.1-12.57h0l1.1-12.68h0l1.1-12.79h0l1.1-12.9h0l1.1-13.02h0l1.1-13.14h0l1.1-13.25h0l1.1-13.37h0l1.1-13.49h0l1.1-13.61h0l1.1-13.73h0l1.1-13.85h0l1.1-13.98h0l1.1-14.1h0l1.1-14.23h0l1.1-14.35h0l1.1-14.48h0l1.1-14.61h0l1.1-14.74h0l1.1-14.87h0l1.1-15h0l1.1-15.14h0l1.1-15.27h0l1.1-15.41h0l1.1-15.55h0l1.1-15.68h0l1.1-15.82h0l1.1-15.97h0l1.1-16.11h0l1.1-16.25h0l1.1-16.4h0l1.1-16.54h0l1.1-16.69h0l1.1-16.84h0l1.1-16.99h0l1.1-17.14h0l1.1-17.29h0l1.1-17.45h0l1.1-17.6h0l1.1-17.76h0l1.1-17.92h0l1.1-18.08h0l1.1-18.24h0l1.1-18.4h0l1.1-18.56h0l1.1-18.73h0l1.1-18.89h0l1.1-19.06h0l1.1-19.23h0l1.1-19.4h0l1.1-19.58h0l1.1-19.75h0l1.1-19.93h0l1.1-20.1h0l1.1-20.28h0l1.1-20.46h0l1.1-20.65h0l1.1-20.83h0l1.1-21.02h0l1.1-21.2h0l1.1-21.39h0l1.1-21.58h0l1.1-21.77h0l1.1-21.97h0l1.1-22.16h0l1.1-22.36h0l1.1-22.56h0l1.1-22.76h0l1.1-22.96h0l1.1-23.17h0l1.1-23.38h0l1.1-23.58h0l1.1-23.79h0l1.1-24.01h0l1.1-24.22h0l1.1-24.44h0l1.1-24.65h0l1.1-24.87h0l1.1-25.09h0l1.1-25.32h0l1.1-25.54h0l1.1-25.77h0l1.1-26h0l1.1-26.23h0l1.1-26.47h0l1.1-26.7h0l1.1-26.94h0l1.1-27.18h0l1.1-27.42h0l1.1-27.67h0l1.1-27.91h0l1.1-28.16h0l1.1-28.41h0l1.1-28.66h0l1.1-28.92h0l1.1-29.18h0l1.1-29.44h0l1.1-29.7h0l1.1-29.96h0l1.1-30.23h0l1.1-30.5h0l1.1-30.77h0l1.1-31.05h0l1.1-31.32h0l1.1-31.6h0l1.1-31.88h0l1.1-32.17h0l1.1-32.45h0l1.1-32.74h0l1.1-33.03h0l1.1-33.33h0l1.1-33.62h0l1.1-33.92h0l1.1-34.23h0l1.1-34.53h0l1.1-34.84h0l1.1-35.15h0l1.1-35.46h0l1.1-35.78h0l1.1-36.1h0l1.1-36.42h0l1.1-36.74h0l1.1-37.07h0l1.1-37.4h0l1.1-37.73h0l1.1-38.07h0l1.1-38.41h0l1.1-38.75h0l1.1-39.09h0l1.1-39.44h0l1.1-39.79h0l1.1-40.15h0l1.1-40.51h0l1.1-40.87h0l1.1-41.23h0l1.1-41.6h0l1.1-41.97h0l1.1-42.34h0l1.1-42.72h0l1.1-43.1h0l1.1-43.48h0l1.1-43.87h0l1.1-44.26h0l1.1-44.66h0l1.1-45.05h0l1.1-45.46h0l1.1-45.86h0l1.1-46.27h0l1.1-46.68h0l1.1-47.1h0l1.1-47.52h0l1.1-47.94h0l1.1-48.37h0l1.1-48.8h0l1.1-49.23h0l1.1-49.67h0l1.1-50.11h0l1.1-50.56h0l1.1-51.01h0l1.1-51.46h0l1.1-51.92h0l1.1-52.38h0l1.1-52.85h0l1.1-53.32h0l1.1-53.8h0l1.1-54.28h0l1.1-54.76h0l1.1-55.25h0l1.1-55.74h0l1.1-56.23h0l1.1-56.74h0l1.1-57.24h0l1.1-57.75h0l1.1-58.27h0l1.1-58.78h0l1.1-59.31h0l1.1-59.84h0l1.1-60.37h0l1.1-60.91h0l1.1-61.45h0l1.1-62h0l1.1-62.55h0l1.1-63.11h0l1.1-63.67h0l1.1-64.23h0l1.1-64.81h0l1.1-65.38h0l1.1-65.97h0l1.1-66.55h0l1.1-67.15h0l1.1-67.74h0l1.1-68.35h0l1.1-68.96h0l1.1-69.57h0l1.1-70.19h0l1.1-70.82h0l1.1-71.45h0l1.1-72.08h0l1.1-72.73h0l1.1-73.37h0l1.1-74.03h0l1.1-74.69h0l1.1-75.35h0l1.1-76.02h0l1.1-76.7h0l1.1-77.38h0l1.1-78.07h0l1.1-78.77"/></g></g><g id="c"><path class="m" d="m-2-1.77v1013.91h1237V-1.77H-2Zm1220,976.91c0,11.05-8.95,20-20,20H35c-11.05,0-20-8.95-20-20V35.23c0-11.05,8.95-20,20-20h1163c11.05,0,20,8.95,20,20v939.91Z"/></g></svg>