<?xml version="1.0" encoding="UTF-8"?><svg xmlns="http://www.w3.org/2000/svg" xmlns:xlink="http://www.w3.org/1999/xlink" viewBox="0 0 1232.74 1010.14"><defs><style>.e{fill:#fff;}.f{stroke:rgba(128,0,128,.8);stroke-linecap:round;stroke-linejoin:round;stroke-width:7px;}.f,.g,.h,.i,.j{fill:none;}.k{fill:#252525;}.k,.h{font-family:Helvetica-Bold, Helvetica;font-size:13.23px;font-weight:700;isolation:isolate;}.g{clip-path:url(#b);}.h{stroke:#fff;stroke-linejoin:bevel;stroke-width:3px;}.i{stroke:#252525;stroke-miterlimit:10;stroke-width:2px;}.l{fill:#00699b;}</style><clipPath id="b"><rect class="j" x="-2.57" y="15.35" width="1221.15" height="979.79"/></clipPath></defs><g id="a"><g class="g"><rect class="e" x="-2.57" y="15.35" width="1221.15" height="979.79"/><path class="i" d="m604.7,18.66v976.48"/><path class="i" d="m604.7,17.56l-5.51,5.51"/><path class="i" d="m604.7,17.56l5.51,5.51"/><path class="i" d="m-2.57,513.51h1217.85"/><path class="i" d="m1216.38,513.51l-5.51-5.51"/><path class="i" d="m1216.38,513.51l-5.51,5.51"/><text class="k" transform="translate(148.42 530.05)"><tspan x="0" y="0">–2</tspan></text><text class="h" transform="translate(148.42 530.05)"><tspan x="0" y="0">–2</tspan></text><text class="k" transform="translate(148.42 530.05)"><tspan x="0" y="0">–2</tspan></text><path class="i" d="m156.14,513.51v3.31"/><text class="k" transform="translate(372.15 530.05)"><tspan x="0" y="0">–1</tspan></text><text class="h" transform="translate(372.15 530.05)"><tspan x="0" y="0">–1</tspan></text><text class="k" transform="translate(372.15 530.05)"><tspan x="0" y="0">–1</tspan></text><path class="i" d="m379.87,513.51v3.31"/><path class="i" d="m604.7,513.51v3.31"/><text class="k" transform="translate(825.13 530.05)"><tspan x="0" y="0">1</tspan></text><text class="h" transform="translate(825.13 530.05)"><tspan x="0" y="0">1</tspan></text><text class="k" transform="translate(825.13 530.05)"><tspan x="0" y="0">1</tspan></text><path class="i" d="m828.43,513.51v3.31"/><text class="k" transform="translate(1049.96 530.05)"><tspan x="0" y="0">2</tspan></text><text class="h" transform="translate(1049.96 530.05)"><tspan x="0" y="0">2</tspan></text><text class="k" transform="translate(1049.96 530.05)"><tspan x="0" y="0">2</tspan></text><path class="i" d="m1053.26,513.51v3.31"/><path class="i" d="m601.39,962.08h3.31"/><path class="i" d="m601.39,849.66h3.31"/><path class="i" d="m601.39,737.24h3.31"/><path class="i" d="m601.39,625.93h3.31"/><path class="i" d="m601.39,401.1h3.31"/><path class="i" d="m601.39,288.68h3.31"/><path class="i" d="m601.39,177.37h3.31"/><path class="i" d="m601.39,64.95h3.31"/><text class="k" transform="translate(581.56 967.59)"><tspan x="0" y="0">–8</tspan></text><text class="h" transform="translate(581.56 967.59)"><tspan x="0" y="0">–8</tspan></text><text class="k" transform="translate(581.56 967.59)"><tspan x="0" y="0">–8</tspan></text><text class="k" transform="translate(581.56 855.17)"><tspan x="0" y="0">–6</tspan></text><text class="h" transform="translate(581.56 855.17)"><tspan x="0" y="0">–6</tspan></text><text class="k" transform="translate(581.56 855.17)"><tspan x="0" y="0">–6</tspan></text><text class="k" transform="translate(581.56 742.76)"><tspan x="0" y="0">–4</tspan></text><text class="h" transform="translate(581.56 742.76)"><tspan x="0" y="0">–4</tspan></text><text class="k" transform="translate(581.56 742.76)"><tspan x="0" y="0">–4</tspan></text><text class="k" transform="translate(581.56 630.34)"><tspan x="0" y="0">–2</tspan></text><text class="h" transform="translate(581.56 630.34)"><tspan x="0" y="0">–2</tspan></text><text class="k" transform="translate(581.56 630.34)"><tspan x="0" y="0">–2</tspan></text><text class="k" transform="translate(588.17 406.61)"><tspan x="0" y="0">2</tspan></text><text class="h" transform="translate(588.17 406.61)"><tspan x="0" y="0">2</tspan></text><text class="k" transform="translate(588.17 406.61)"><tspan x="0" y="0">2</tspan></text><text class="k" transform="translate(588.17 294.19)"><tspan x="0" y="0">4</tspan></text><text class="h" transform="translate(588.17 294.19)"><tspan x="0" y="0">4</tspan></text><text class="k" transform="translate(588.17 294.19)"><tspan x="0" y="0">4</tspan></text><text class="k" transform="translate(588.17 181.77)"><tspan x="0" y="0">6</tspan></text><text class="h" transform="translate(588.17 181.77)"><tspan x="0" y="0">6</tspan></text><text class="k" transform="translate(588.17 181.77)"><tspan x="0" y="0">6</tspan></text><text class="k" transform="translate(588.17 69.36)"><tspan x="0" y="0">8</tspan></text><text class="h" transform="translate(588.17 69.36)"><tspan x="0" y="0">8</tspan></text><text class="k" transform="translate(588.17 69.36)"><tspan x="0" y="0">8</tspan></text><text class="k" transform="translate(588.17 530.05)"><tspan x="0" y="0">0</tspan></text><text class="h" transform="translate(588.17 530.05)"><tspan x="0" y="0">0</tspan></text><text class="k" transform="translate(588.17 530.05)"><tspan x="0" y="0">0</tspan></text><path class="f" d="m-1.47,534.11v.04h0l1.1.04H-.36l1.1.04h0l1.1.04h0l1.1.04h0l1.1.04h0l1.1.04h0l1.1.04h0l1.1.04h0l1.1.04h0l1.1.04h0l1.1.04h0l1.1.04h0l1.1.04h0l1.1.04h0l1.1.04h0l1.1.04h0l1.1.04h0l1.1.04h0l1.1.04h0l1.1.04h0l1.1.04h0l1.1.04h0l1.1.04h0l1.1.04h0l1.1.04h0l1.1.04h0l1.1.04h0l1.1.04h0l1.1.04h0l1.1.04h0l1.1.04h0l1.1.04h0l1.1.04h0l1.1.04h0l1.1.04h0l1.1.04h0l1.1.04h0l1.1.04h0l1.1.04h0l1.1.04h0l1.1.04h0l1.1.04h0l1.1.04h0l1.1.04h0l1.1.04h0l1.1.04h0l1.1.05h0l1.1.05h0l1.1.05h0l1.1.05h0l1.1.05h0l1.1.05h0l1.1.05h0l1.1.05h0l1.1.05h0l1.1.05h0l1.1.05h0l1.1.05h0l1.1.05h0l1.1.05h0l1.1.05h0l1.1.05h0l1.1.05h0l1.1.05h0l1.1.05h0l1.1.05h0l1.1.05h0l1.1.05h0l1.1.05h0l1.1.05h0l1.1.05h0l1.1.05h0l1.1.05h0l1.1.05h0l1.1.05h0l1.1.05h0l1.1.05h0l1.1.05h0l1.1.05h0l1.1.05h0l1.1.05h0l1.1.05h0l1.1.05h0l1.1.05h0l1.1.05h0l1.1.05h0l1.1.05h0l1.1.05h0l1.1.05h0l1.1.05h0l1.1.05h0l1.1.05h0l1.1.05h0l1.1.05h0l1.1.06h0l1.1.06h0l1.1.06h0l1.1.06h0l1.1.06h0l1.1.06h0l1.1.06h0l1.1.06h0l1.1.06h0l1.1.06h0l1.1.06h0l1.1.06h0l1.1.06h0l1.1.06h0l1.1.06h0l1.1.06h0l1.1.06h0l1.1.06h0l1.1.06h0l1.1.06h0l1.1.06h0l1.1.06h0l1.1.06h0l1.1.06h0l1.1.06h0l1.1.06h0l1.1.06h0l1.1.06h0l1.1.06h0l1.1.06h0l1.1.06h0l1.1.06h0l1.1.06h0l1.1.06h0l1.1.06h0l1.1.06h0l1.1.06h0l1.1.07h0l1.1.07h0l1.1.07h0l1.1.07h0l1.1.07h0l1.1.07h0l1.1.07h0l1.1.07h0l1.1.07h0l1.1.07h0l1.1.07h0l1.1.07h0l1.1.07h0l1.1.07h0l1.1.07h0l1.1.07h0l1.1.07h0l1.1.07h0l1.1.07h0l1.1.07h0l1.1.07h0l1.1.07h0l1.1.07h0l1.1.07h0l1.1.07h0l1.1.07h0l1.1.07h0l1.1.07h0l1.1.08h0l1.1.08h0l1.1.08h0l1.1.08h0l1.1.08h0l1.1.08h0l1.1.08h0l1.1.08h0l1.1.08h0l1.1.08h0l1.1.08h0l1.1.08h0l1.1.08h0l1.1.08h0l1.1.08h0l1.1.08h0l1.1.08h0l1.1.08h0l1.1.08h0l1.1.08h0l1.1.08h0l1.1.08h0l1.1.08h0l1.1.08h0l1.1.09h0l1.1.09h0l1.1.09h0l1.1.09h0l1.1.09h0l1.1.09h0l1.1.09h0l1.1.09h0l1.1.09h0l1.1.09h0l1.1.09h0l1.1.09h0l1.1.09h0l1.1.09h0l1.1.09h0l1.1.09h0l1.1.09h0l1.1.09h0l1.1.09h0l1.1.09h0l1.1.1h0l1.1.1h0l1.1.1h0l1.1.1h0l1.1.1h0l1.1.1h0l1.1.1h0l1.1.1h0l1.1.1h0l1.1.1h0l1.1.1h0l1.1.1h0l1.1.1h0l1.1.1h0l1.1.1h0l1.1.1h0l1.1.1h0l1.1.11h0l1.1.11h0l1.1.11h0l1.1.11h0l1.1.11h0l1.1.11h0l1.1.11h0l1.1.11h0l1.1.11h0l1.1.11h0l1.1.11h0l1.1.11h0l1.1.11h0l1.1.11h0l1.1.11h0l1.1.12h0l1.1.12h0l1.1.12h0l1.1.12h0l1.1.12h0l1.1.12h0l1.1.12h0l1.1.12h0l1.1.12h0l1.1.12h0l1.1.12h0l1.1.12h0l1.1.12h0l1.1.13h0l1.1.13h0l1.1.13h0l1.1.13h0l1.1.13h0l1.1.13h0l1.1.13h0l1.1.13h0l1.1.13h0l1.1.13h0l1.1.13h0l1.1.14h0l1.1.14h0l1.1.14h0l1.1.14h0l1.1.14h0l1.1.14h0l1.1.14h0l1.1.14h0l1.1.14h0l1.1.14h0l1.1.15h0l1.1.15h0l1.1.15h0l1.1.15h0l1.1.15h0l1.1.15h0l1.1.15h0l1.1.15h0l1.1.15h0l1.1.16h0l1.1.16h0l1.1.16h0l1.1.16h0l1.1.16h0l1.1.16h0l1.1.16h0l1.1.16h0l1.1.16h0l1.1.17h0l1.1.17h0l1.1.17h0l1.1.17h0l1.1.17h0l1.1.17h0l1.1.17h0l1.1.18h0l1.1.18h0l1.1.18h0l1.1.18h0l1.1.18h0l1.1.18h0l1.1.18h0l1.1.19h0l1.1.19h0l1.1.19h0l1.1.19h0l1.1.19h0l1.1.19h0l1.1.19h0l1.1.2h0l1.1.2h0l1.1.2h0l1.1.2h0l1.1.2h0l1.1.2h0l1.1.21h0l1.1.21h0l1.1.21h0l1.1.21h0l1.1.21h0l1.1.22h0l1.1.22h0l1.1.22h0l1.1.22h0l1.1.22h0l1.1.23h0l1.1.23h0l1.1.23h0l1.1.23h0l1.1.23h0l1.1.24h0l1.1.24h0l1.1.24h0l1.1.24h0l1.1.24h0l1.1.25h0l1.1.25h0l1.1.25h0l1.1.25h0l1.1.26h0l1.1.26h0l1.1.26h0l1.1.26h0l1.1.27h0l1.1.27h0l1.1.27h0l1.1.27h0l1.1.28h0l1.1.28h0l1.1.28h0l1.1.28h0l1.1.29h0l1.1.29h0l1.1.29h0l1.1.3h0l1.1.3h0l1.1.3h0l1.1.31h0l1.1.31h0l1.1.31h0l1.1.32h0l1.1.32h0l1.1.32h0l1.1.33h0l1.1.33h0l1.1.33h0l1.1.34h0l1.1.34h0l1.1.34h0l1.1.35h0l1.1.35h0l1.1.36h0l1.1.36h0l1.1.36h0l1.1.37h0l1.1.37h0l1.1.38h0l1.1.38h0l1.1.38h0l1.1.39h0l1.1.39h0l1.1.4h0l1.1.4h0l1.1.41h0l1.1.41h0l1.1.42h0l1.1.42h0l1.1.43h0l1.1.43h0l1.1.44h0l1.1.44h0l1.1.45h0l1.1.46h0l1.1.46h0l1.1.47h0l1.1.47h0l1.1.48h0l1.1.49h0l1.1.49h0l1.1.5h0l1.1.51h0l1.1.51h0l1.1.52h0l1.1.53h0l1.1.53h0l1.1.54h0l1.1.55h0l1.1.56h0l1.1.56h0l1.1.57h0l1.1.58h0l1.1.59h0l1.1.6h0l1.1.61h0l1.1.62h0l1.1.62h0l1.1.63h0l1.1.64h0l1.1.65h0l1.1.66h0l1.1.67h0l1.1.68h0l1.1.69h0l1.1.71h0l1.1.72h0l1.1.73h0l1.1.74h0l1.1.75h0l1.1.76h0l1.1.78h0l1.1.79h0l1.1.8h0l1.1.82h0l1.1.83h0l1.1.85h0l1.1.86h0l1.1.88h0l1.1.89h0l1.1.91h0l1.1.92h0l1.1.94h0l1.1.96h0l1.1.97h0l1.1.99h0l1.1,1.01h0l1.1,1.03h0l1.1,1.05h0l1.1,1.07h0l1.1,1.09h0l1.1,1.11h0l1.1,1.14h0l1.1,1.16h0l1.1,1.18h0l1.1,1.21h0l1.1,1.23h0l1.1,1.26h0l1.1,1.29h0l1.1,1.31h0l1.1,1.34h0l1.1,1.37h0l1.1,1.4h0l1.1,1.43h0l1.1,1.47h0l1.1,1.5h0l1.1,1.54h0l1.1,1.57h0l1.1,1.61h0l1.1,1.65h0l1.1,1.69h0l1.1,1.73h0l1.1,1.77h0l1.1,1.82h0l1.1,1.87h0l1.1,1.91h0l1.1,1.97h0l1.1,2.02h0l1.1,2.07h0l1.1,2.13h0l1.1,2.19h0l1.1,2.25h0l1.1,2.32h0l1.1,2.38h0l1.1,2.45h0l1.1,2.53h0l1.1,2.6h0l1.1,2.68h0l1.1,2.77h0l1.1,2.86h0l1.1,2.95h0l1.1,3.05h0l1.1,3.15h0l1.1,3.26h0l1.1,3.37h0l1.1,3.49h0l1.1,3.61h0l1.1,3.74h0l1.1,3.88h0l1.1,4.03h0l1.1,4.19h0l1.1,4.35h0l1.1,4.53h0l1.1,4.71h0l1.1,4.91h0l1.1,5.12h0l1.1,5.34h0l1.1,5.58h0l1.1,5.84h0l1.1,6.11h0l1.1,6.41h0l1.1,6.72h0l1.1,7.06h0l1.1,7.42h0l1.1,7.82h0l1.1,8.24h0l1.1,8.7h0l1.1,9.21h0l1.1,9.75h0l1.1,10.35h0l1.1,11h0l1.1,11.72h0l1.1,12.5h0l1.1,13.38h0l1.1,14.34h0l1.1,15.41h0l1.1,16.61h0l1.1,17.96h0l1.1,19.47h0l.77,14.78M604.23,1.03h24.72l1.1,21.89h0l1.1,20.2h0l1.1,18.6h0l1.1,17.19h0l1.1,15.93h0l1.1,14.8h0l1.1,13.79h0l1.1,12.88h0l1.1,12.06h0l1.1,11.31h0l1.1,10.63h0l1.1,10.01h0l1.1,9.44h0l1.1,8.92h0l1.1,8.44h0l1.1,8h0l1.1,7.59h0l1.1,7.22h0l1.1,6.87h0l1.1,6.54h0l1.1,6.24h0l1.1,5.96h0l1.1,5.69h0l1.1,5.45h0l1.1,5.22h0l1.1,5h0l1.1,4.8h0l1.1,4.61h0l1.1,4.43h0l1.1,4.26h0l1.1,4.1h0l1.1,3.95h0l1.1,3.81h0l1.1,3.67h0l1.1,3.54h0l1.1,3.42h0l1.1,3.3h0l1.1,3.2h0l1.1,3.09h0l1.1,2.99h0l1.1,2.9h0l1.1,2.81h0l1.1,2.72h0l1.1,2.64h0l1.1,2.56h0l1.1,2.49h0l1.1,2.41h0l1.1,2.34h0l1.1,2.28h0l1.1,2.22h0l1.1,2.16h0l1.1,2.1h0l1.1,2.04h0l1.1,1.99h0l1.1,1.94h0l1.1,1.89h0l1.1,1.84h0l1.1,1.79h0l1.1,1.75h0l1.1,1.71h0l1.1,1.67h0l1.1,1.63h0l1.1,1.59h0l1.1,1.55h0l1.1,1.52h0l1.1,1.48h0l1.1,1.45h0l1.1,1.42h0l1.1,1.39h0l1.1,1.36h0l1.1,1.33h0l1.1,1.3h0l1.1,1.27h0l1.1,1.24h0l1.1,1.22h0l1.1,1.19h0l1.1,1.17h0l1.1,1.15h0l1.1,1.12h0l1.1,1.1h0l1.1,1.08h0l1.1,1.06h0l1.1,1.04h0l1.1,1.02h0l1.1,1h0l1.1.98h0l1.1.96h0l1.1.95h0l1.1.93h0l1.1.91h0l1.1.9h0l1.1.88h0l1.1.87h0l1.1.85h0l1.1.84h0l1.1.82h0l1.1.81h0l1.1.8h0l1.1.78h0l1.1.77h0l1.1.76h0l1.1.75h0l1.1.73h0l1.1.72h0l1.1.71h0l1.1.7h0l1.1.69h0l1.1.68h0l1.1.67h0l1.1.66h0l1.1.65h0l1.1.64h0l1.1.63h0l1.1.62h0l1.1.61h0l1.1.6h0l1.1.59h0l1.1.58h0l1.1.58h0l1.1.57h0l1.1.56h0l1.1.55h0l1.1.54h0l1.1.54h0l1.1.53h0l1.1.52h0l1.1.52h0l1.1.51h0l1.1.5h0l1.1.5h0l1.1.49h0l1.1.48h0l1.1.48h0l1.1.47h0l1.1.46h0l1.1.46h0l1.1.45h0l1.1.45h0l1.1.44h0l1.1.44h0l1.1.43h0l1.1.43h0l1.1.42h0l1.1.42h0l1.1.41h0l1.1.41h0l1.1.4h0l1.1.4h0l1.1.39h0l1.1.39h0l1.1.38h0l1.1.38h0l1.1.37h0l1.1.37h0l1.1.37h0l1.1.36h0l1.1.36h0l1.1.35h0l1.1.35h0l1.1.35h0l1.1.34h0l1.1.34h0l1.1.33h0l1.1.33h0l1.1.33h0l1.1.32h0l1.1.32h0l1.1.32h0l1.1.31h0l1.1.31h0l1.1.31h0l1.1.3h0l1.1.3h0l1.1.3h0l1.1.29h0l1.1.29h0l1.1.29h0l1.1.29h0l1.1.28h0l1.1.28h0l1.1.28h0l1.1.27h0l1.1.27h0l1.1.27h0l1.1.27h0l1.1.26h0l1.1.26h0l1.1.26h0l1.1.26h0l1.1.25h0l1.1.25h0l1.1.25h0l1.1.25h0l1.1.25h0l1.1.24h0l1.1.24h0l1.1.24h0l1.1.24h0l1.1.23h0l1.1.23h0l1.1.23h0l1.1.23h0l1.1.23h0l1.1.22h0l1.1.22h0l1.1.22h0l1.1.22h0l1.1.22h0l1.1.21h0l1.1.21h0l1.1.21h0l1.1.21h0l1.1.21h0l1.1.21h0l1.1.2h0l1.1.2h0l1.1.2h0l1.1.2h0l1.1.2h0l1.1.2h0l1.1.19h0l1.1.19h0l1.1.19h0l1.1.19h0l1.1.19h0l1.1.19h0l1.1.18h0l1.1.18h0l1.1.18h0l1.1.18h0l1.1.18h0l1.1.18h0l1.1.18h0l1.1.17h0l1.1.17h0l1.1.17h0l1.1.17h0l1.1.17h0l1.1.17h0l1.1.17h0l1.1.17h0l1.1.16h0l1.1.16h0l1.1.16h0l1.1.16h0l1.1.16h0l1.1.16h0l1.1.16h0l1.1.16h0l1.1.15h0l1.1.15h0l1.1.15h0l1.1.15h0l1.1.15h0l1.1.15h0l1.1.15h0l1.1.15h0l1.1.15h0l1.1.14h0l1.1.14h0l1.1.14h0l1.1.14h0l1.1.14h0l1.1.14h0l1.1.14h0l1.1.14h0l1.1.14h0l1.1.14h0l1.1.14h0l1.1.13h0l1.1.13h0l1.1.13h0l1.1.13h0l1.1.13h0l1.1.13h0l1.1.13h0l1.1.13h0l1.1.13h0l1.1.13h0l1.1.13h0l1.1.12h0l1.1.12h0l1.1.12h0l1.1.12h0l1.1.12h0l1.1.12h0l1.1.12h0l1.1.12h0l1.1.12h0l1.1.12h0l1.1.12h0l1.1.12h0l1.1.12h0l1.1.11h0l1.1.11h0l1.1.11h0l1.1.11h0l1.1.11h0l1.1.11h0l1.1.11h0l1.1.11h0l1.1.11h0l1.1.11h0l1.1.11h0l1.1.11h0l1.1.11h0l1.1.11h0l1.1.11h0l1.1.1h0l1.1.1h0l1.1.1h0l1.1.1h0l1.1.1h0l1.1.1h0l1.1.1h0l1.1.1h0l1.1.1h0l1.1.1h0l1.1.1h0l1.1.1h0l1.1.1h0l1.1.1h0l1.1.1h0l1.1.1h0l1.1.09h0l1.1.09h0l1.1.09h0l1.1.09h0l1.1.09h0l1.1.09h0l1.1.09h0l1.1.09h0l1.1.09h0l1.1.09h0l1.1.09h0l1.1.09h0l1.1.09h0l1.1.09h0l1.1.09h0l1.1.09h0l1.1.09h0l1.1.09h0l1.1.09h0l1.1.09h0l1.1.08h0l1.1.08h0l1.1.08h0l1.1.08h0l1.1.08h0l1.1.08h0l1.1.08h0l1.1.08h0l1.1.08h0l1.1.08h0l1.1.08h0l1.1.08h0l1.1.08h0l1.1.08h0l1.1.08h0l1.1.08h0l1.1.08h0l1.1.08h0l1.1.08h0l1.1.08h0l1.1.08h0l1.1.08h0l1.1.08h0l1.1.08h0l1.1.07h0l1.1.07h0l1.1.07h0l1.1.07h0l1.1.07h0l1.1.07h0l1.1.07h0l1.1.07h0l1.1.07h0l1.1.07h0l1.1.07h0l1.1.07h0l1.1.07h0l1.1.07h0l1.1.07h0l1.1.07h0l1.1.07h0l1.1.07h0l1.1.07h0l1.1.07h0l1.1.07h0l1.1.07h0l1.1.07h0l1.1.07h0l1.1.07h0l1.1.07h0l1.1.07h0l1.1.07h0l1.1.07h0l1.1.06h0l1.1.06h0l1.1.06h0l1.1.06h0l1.1.06h0l1.1.06h0l1.1.06h0l1.1.06h0l1.1.06h0l1.1.06h0l1.1.06h0l1.1.06h0l1.1.06h0l1.1.06h0l1.1.06h0l1.1.06h0l1.1.06h0l1.1.06h0l1.1.06h0l1.1.06h0l1.1.06h0l1.1.06h0l1.1.06h0l1.1.06h0l1.1.06h0l1.1.06h0l1.1.06h0l1.1.06h0l1.1.06h0l1.1.06h0l1.1.06h0l1.1.06h0l1.1.06h0l1.1.06h0l1.1.06h0l1.1.06h0l1.1.05h0l1.1.05h0l1.1.05h0l1.1.05h0l1.1.05h0l1.1.05h0l1.1.05h0l1.1.05h0l1.1.05h0l1.1.05h0l1.1.05h0l1.1.05h0l1.1.05h0l1.1.05h0l1.1.05h0l1.1.05h0l1.1.05h0l1.1.05h0l1.1.05h0l1.1.05h0l1.1.05h0l1.1.05h0l1.1.05h0l1.1.05h0l1.1.05h0l1.1.05h0l1.1.05h0l1.1.05h0l1.1.05h0l1.1.05h0l1.1.05h0l1.1.05h0l1.1.05h0l1.1.05h0l1.1.05h0l1.1.05h0l1.1.05h0l1.1.05h0l1.1.05h0l1.1.05h0l1.1.05h0l1.1.05h0l1.1.05h0l1.1.05h0l1.1.05h0l1.1.05h0l1.1.05h0l1.1.05h0l1.1.05h0l1.1.04h0l1.1.04h0l1.1.04h0l1.1.04h0l1.1.04h0l1.1.04h0l1.1.04h0l1.1.04h0l1.1.04h0l1.1.04h0l1.1.04h0l1.1.04h0l1.1.04h0l1.1.04h0l1.1.04h0l1.1.04h0l1.1.04h0l1.1.04h0l1.1.04h0l1.1.04h0l1.1.04h0l1.1.04h0l1.1.04h0l1.1.04h0l1.1.04h0l1.1.04h0l1.1.04h0l1.1.04h0l1.1.04h0l1.1.04h0l1.1.04h0l1.1.04h0l1.1.04h0l1.1.04h0l1.1.04h0l1.1.04h0l1.1.04h0l1.1.04h0l1.1.04h0l1.1.04h0l1.1.04h0l1.1.04h0l1.1.04h0l1.1.04h0l1.1.04h0l1.1.04h0l1.1.04h0l1.1.04h0l1.1.04h0l1.1.04h0l1.1.04h0l1.1.04h0l1.1.04"/></g></g><g id="c"><path class="l" d="m-2-1.77v1013.91h1237V-1.77H-2Zm1220,976.91c0,11.05-8.95,20-20,20H35c-11.05,0-20-8.95-20-20V35.23c0-11.05,8.95-20,20-20h1163c11.05,0,20,8.95,20,20v939.91Z"/></g></svg>