<?xml version="1.0" encoding="UTF-8"?>
<svg xmlns="http://www.w3.org/2000/svg" xmlns:xlink="http://www.w3.org/1999/xlink" viewBox="0 0 1245 1020">
  <defs>
    <style>
      .uuid-496b7130-0fb4-42fb-9af8-1aaaa57704b3 {
        stroke: silver;
      }

      .uuid-496b7130-0fb4-42fb-9af8-1aaaa57704b3, .uuid-4c93314c-65a8-4a02-a1f1-0223f36d08ec, .uuid-8ce44984-3f04-441c-ad14-c8e3bc46c65b, .uuid-cd684787-b511-4efa-822b-b2dada96f554, .uuid-b3e35ab2-7e7f-4a38-9106-0ecfe094e629, .uuid-46abac66-67e6-4581-ac8a-63328bd9dd12, .uuid-8d08db0e-0e3f-4c17-88ef-46484fcbfd5c, .uuid-28ac8899-8eb3-42c5-81d8-e9d248ccb327, .uuid-f886d84f-3603-4a20-9ba2-5fc93b461c39 {
        fill: none;
      }

      .uuid-496b7130-0fb4-42fb-9af8-1aaaa57704b3, .uuid-8ce44984-3f04-441c-ad14-c8e3bc46c65b, .uuid-f886d84f-3603-4a20-9ba2-5fc93b461c39 {
        stroke-linecap: round;
        stroke-linejoin: round;
      }

      .uuid-191c249f-c421-4f78-9e73-51ffde95dba1 {
        fill: #fff;
      }

      .uuid-4c93314c-65a8-4a02-a1f1-0223f36d08ec {
        stroke: #fff;
        stroke-linejoin: bevel;
        stroke-width: 3px;
      }

      .uuid-8ce44984-3f04-441c-ad14-c8e3bc46c65b {
        stroke: rgba(192, 192, 192, .24);
      }

      .uuid-cd684787-b511-4efa-822b-b2dada96f554 {
        isolation: isolate;
      }

      .uuid-b3e35ab2-7e7f-4a38-9106-0ecfe094e629 {
        clip-path: url(#uuid-b03ca8e0-233b-43a8-b20d-46d62a8c19c0);
      }

      .uuid-a9fdd0f0-d96c-4a45-b269-6f63b9388e4b {
        fill: #00699b;
      }

      .uuid-8d08db0e-0e3f-4c17-88ef-46484fcbfd5c {
        stroke: #252525;
        stroke-miterlimit: 10;
      }

      .uuid-dad095cc-f2c1-4726-a00d-075cd055c662 {
        fill: #252525;
      }

      .uuid-28ac8899-8eb3-42c5-81d8-e9d248ccb327 {
        clip-path: url(#uuid-6591ff0e-dd71-431c-8265-832f4c286e99);
      }

      .uuid-f886d84f-3603-4a20-9ba2-5fc93b461c39 {
        stroke: rgba(102, 153, 0, .7);
        stroke-width: 5px;
      }
    </style>
    <clipPath id="uuid-6591ff0e-dd71-431c-8265-832f4c286e99">
      <rect class="uuid-46abac66-67e6-4581-ac8a-63328bd9dd12" width="1246.96" height="1019.08"/>
    </clipPath>
    <clipPath id="uuid-b03ca8e0-233b-43a8-b20d-46d62a8c19c0">
      <rect class="uuid-46abac66-67e6-4581-ac8a-63328bd9dd12" x="-1.43" y="-34.87" width="1247.86" height="1089.74"/>
    </clipPath>
  </defs>
  <g id="uuid-e7ff40ad-8773-4bd6-bad2-df7356a2c914" data-name="Grafica">
    <g class="uuid-28ac8899-8eb3-42c5-81d8-e9d248ccb327">
      <g class="uuid-b3e35ab2-7e7f-4a38-9106-0ecfe094e629">
        <g>
          <rect class="uuid-191c249f-c421-4f78-9e73-51ffde95dba1" x="-1.43" y="-34.87" width="1247.86" height="1089.74"/>
          <path class="uuid-496b7130-0fb4-42fb-9af8-1aaaa57704b3" d="m7.65-34.34v1089.74M7.65-34.34v1089.74M110.22-34.34v1089.74M212.78-34.34v1089.74M315.34-34.34v1089.74M417.91-34.34v1089.74M520.47-34.34v1089.74M725.6-34.34v1089.74M829.23-34.34v1089.74M931.79-34.34v1089.74M1034.36-34.34v1089.74M1136.92-34.34v1089.74M1239.48-34.34v1089.74"/>
          <path class="uuid-8ce44984-3f04-441c-ad14-c8e3bc46c65b" d="m29.02-34.34v1089.74M49.32-34.34v1089.74M69.62-34.34v1089.74M89.92-34.34v1089.74M131.58-34.34v1089.74M151.88-34.34v1089.74M172.18-34.34v1089.74M192.48-34.34v1089.74M234.15-34.34v1089.74M254.45-34.34v1089.74M274.75-34.34v1089.74M295.04-34.34v1089.74M336.71-34.34v1089.74M357.01-34.34v1089.74M377.31-34.34v1089.74M397.61-34.34v1089.74M439.27-34.34v1089.74M459.57-34.34v1089.74M479.87-34.34v1089.74M500.17-34.34v1089.74M541.84-34.34v1089.74m20.3-1089.74v1089.74m20.3-1089.74v1089.74m20.3-1089.74v1089.74M644.4-34.34v1089.74m20.3-1089.74v1089.74m20.3-1089.74v1089.74m20.3-1089.74v1089.74M746.97-34.34v1089.74m20.3-1089.74v1089.74m20.3-1089.74v1089.74m20.3-1089.74v1089.74M849.53-34.34v1089.74m20.3-1089.74v1089.74m20.3-1089.74v1089.74m20.3-1089.74v1089.74M952.09-34.34v1089.74m20.3-1089.74v1089.74m20.3-1089.74v1089.74m20.3-1089.74v1089.74m41.67-1089.74v1089.74m20.3-1089.74v1089.74m20.3-1089.74v1089.74m20.3-1089.74v1089.74m41.67-1089.74v1089.74m20.3-1089.74v1089.74m20.3-1089.74v1089.74m20.3-1089.74v1089.74"/>
          <path class="uuid-496b7130-0fb4-42fb-9af8-1aaaa57704b3" d="m-.89-6.56h1247.86M-.89-6.56h1247.86M-.89,96.01h1247.86M-.89,198.57h1247.86M-.89,301.13h1247.86M-.89,403.7h1247.86M-.89,608.82h1247.86M-.89,711.39h1247.86M-.89,813.95h1247.86M-.89,916.52h1247.86M-.89,1019.08h1247.86"/>
          <path class="uuid-8ce44984-3f04-441c-ad14-c8e3bc46c65b" d="m-.89-27.93h1247.86M-.89-27.93h1247.86M-.89,13.74h1247.86M-.89,34.04h1247.86M-.89,54.34h1247.86M-.89,74.64h1247.86M-.89,116.31h1247.86M-.89,136.6h1247.86M-.89,156.9h1247.86M-.89,178.27h1247.86M-.89,218.87h1247.86M-.89,239.17h1247.86M-.89,259.47h1247.86M-.89,280.83h1247.86M-.89,321.43h1247.86M-.89,341.73h1247.86M-.89,362.03h1247.86M-.89,383.4h1247.86M-.89,424h1247.86M-.89,444.3h1247.86M-.89,464.59h1247.86M-.89,485.96h1247.86M-.89,526.56h1247.86M-.89,546.86h1247.86M-.89,567.16h1247.86M-.89,588.53h1247.86M-.89,629.12h1247.86M-.89,649.42h1247.86M-.89,669.72h1247.86M-.89,691.09h1247.86M-.89,731.69h1247.86M-.89,751.99h1247.86M-.89,772.29h1247.86M-.89,793.65h1247.86M-.89,834.25h1247.86M-.89,854.55h1247.86M-.89,874.85h1247.86M-.89,896.22h1247.86M-.89,936.81h1247.86M-.89,957.11h1247.86M-.89,977.41h1247.86M-.89,998.78h1247.86M-.89,1039.38h1247.86"/>
          <path class="uuid-8d08db0e-0e3f-4c17-88ef-46484fcbfd5c" d="m623.03-32.2v1087.6"/>
          <path class="uuid-8d08db0e-0e3f-4c17-88ef-46484fcbfd5c" d="m-.89,506.26h1245.72"/>
          <path class="uuid-8d08db0e-0e3f-4c17-88ef-46484fcbfd5c" d="m1245.89,506.26l-4.27-4.27"/>
          <path class="uuid-8d08db0e-0e3f-4c17-88ef-46484fcbfd5c" d="m1245.89,506.26l-4.27,4.27"/>
          <g class="uuid-cd684787-b511-4efa-822b-b2dada96f554">
            <path class="uuid-dad095cc-f2c1-4726-a00d-075cd055c662" d="m110.75,519.26v.26h-6.41v-.26h6.41Z"/>
            <path class="uuid-dad095cc-f2c1-4726-a00d-075cd055c662" d="m111.84,518.09h.03c.25-.41.58-.71.99-.9.41-.19.88-.28,1.39-.28.45,0,.86.08,1.23.22.37.15.68.36.95.62.26.27.47.58.62.96.15.37.22.78.22,1.21,0,.46-.07.88-.22,1.26-.15.38-.35.7-.62.96-.27.27-.58.47-.95.61-.37.14-.78.21-1.23.21s-.86-.07-1.24-.2-.71-.32-.97-.57c-.27-.25-.48-.55-.62-.92s-.21-.78-.19-1.25h.26c-.02.43.04.81.17,1.14.13.33.31.62.56.85s.54.41.89.53c.35.12.73.18,1.15.18s.81-.07,1.15-.2c.34-.13.63-.32.87-.56.24-.24.42-.54.55-.88.13-.35.19-.73.19-1.15s-.07-.77-.2-1.11c-.13-.34-.32-.63-.56-.87-.24-.24-.53-.43-.87-.57-.34-.14-.72-.21-1.13-.21-.51,0-.99.11-1.42.34-.44.23-.77.56-1.01.99h-.32l.94-4.4h4.47v.26h-4.27l-.79,3.73Z"/>
          </g>
          <g class="uuid-cd684787-b511-4efa-822b-b2dada96f554">
            <path class="uuid-4c93314c-65a8-4a02-a1f1-0223f36d08ec" d="m110.75,519.26v.26h-6.41v-.26h6.41Z"/>
            <path class="uuid-4c93314c-65a8-4a02-a1f1-0223f36d08ec" d="m111.84,518.09h.03c.25-.41.58-.71.99-.9.41-.19.88-.28,1.39-.28.45,0,.86.08,1.23.22.37.15.68.36.95.62.26.27.47.58.62.96.15.37.22.78.22,1.21,0,.46-.07.88-.22,1.26-.15.38-.35.7-.62.96-.27.27-.58.47-.95.61-.37.14-.78.21-1.23.21s-.86-.07-1.24-.2-.71-.32-.97-.57c-.27-.25-.48-.55-.62-.92s-.21-.78-.19-1.25h.26c-.02.43.04.81.17,1.14.13.33.31.62.56.85s.54.41.89.53c.35.12.73.18,1.15.18s.81-.07,1.15-.2c.34-.13.63-.32.87-.56.24-.24.42-.54.55-.88.13-.35.19-.73.19-1.15s-.07-.77-.2-1.11c-.13-.34-.32-.63-.56-.87-.24-.24-.53-.43-.87-.57-.34-.14-.72-.21-1.13-.21-.51,0-.99.11-1.42.34-.44.23-.77.56-1.01.99h-.32l.94-4.4h4.47v.26h-4.27l-.79,3.73Z"/>
          </g>
          <g class="uuid-cd684787-b511-4efa-822b-b2dada96f554">
            <path class="uuid-dad095cc-f2c1-4726-a00d-075cd055c662" d="m110.75,519.26v.26h-6.41v-.26h6.41Z"/>
            <path class="uuid-dad095cc-f2c1-4726-a00d-075cd055c662" d="m111.84,518.09h.03c.25-.41.58-.71.99-.9.41-.19.88-.28,1.39-.28.45,0,.86.08,1.23.22.37.15.68.36.95.62.26.27.47.58.62.96.15.37.22.78.22,1.21,0,.46-.07.88-.22,1.26-.15.38-.35.7-.62.96-.27.27-.58.47-.95.61-.37.14-.78.21-1.23.21s-.86-.07-1.24-.2-.71-.32-.97-.57c-.27-.25-.48-.55-.62-.92s-.21-.78-.19-1.25h.26c-.02.43.04.81.17,1.14.13.33.31.62.56.85s.54.41.89.53c.35.12.73.18,1.15.18s.81-.07,1.15-.2c.34-.13.63-.32.87-.56.24-.24.42-.54.55-.88.13-.35.19-.73.19-1.15s-.07-.77-.2-1.11c-.13-.34-.32-.63-.56-.87-.24-.24-.53-.43-.87-.57-.34-.14-.72-.21-1.13-.21-.51,0-.99.11-1.42.34-.44.23-.77.56-1.01.99h-.32l.94-4.4h4.47v.26h-4.27l-.79,3.73Z"/>
          </g>
          <g class="uuid-cd684787-b511-4efa-822b-b2dada96f554">
            <path class="uuid-dad095cc-f2c1-4726-a00d-075cd055c662" d="m213.31,519.26v.26h-6.41v-.26h6.41Z"/>
            <path class="uuid-dad095cc-f2c1-4726-a00d-075cd055c662" d="m213.75,520.24l4.36-6.14h.32v6.19h1.58v.26h-1.58v2.27h-.26v-2.27h-4.42v-.31Zm4.4-5.78l-4.14,5.83h4.17v-5.83h-.03Z"/>
          </g>
          <g class="uuid-cd684787-b511-4efa-822b-b2dada96f554">
            <path class="uuid-4c93314c-65a8-4a02-a1f1-0223f36d08ec" d="m213.31,519.26v.26h-6.41v-.26h6.41Z"/>
            <path class="uuid-4c93314c-65a8-4a02-a1f1-0223f36d08ec" d="m213.75,520.24l4.36-6.14h.32v6.19h1.58v.26h-1.58v2.27h-.26v-2.27h-4.42v-.31Zm4.4-5.78l-4.14,5.83h4.17v-5.83h-.03Z"/>
          </g>
          <g class="uuid-cd684787-b511-4efa-822b-b2dada96f554">
            <path class="uuid-dad095cc-f2c1-4726-a00d-075cd055c662" d="m213.31,519.26v.26h-6.41v-.26h6.41Z"/>
            <path class="uuid-dad095cc-f2c1-4726-a00d-075cd055c662" d="m213.75,520.24l4.36-6.14h.32v6.19h1.58v.26h-1.58v2.27h-.26v-2.27h-4.42v-.31Zm4.4-5.78l-4.14,5.83h4.17v-5.83h-.03Z"/>
          </g>
          <g class="uuid-cd684787-b511-4efa-822b-b2dada96f554">
            <path class="uuid-dad095cc-f2c1-4726-a00d-075cd055c662" d="m315.88,519.26v.26h-6.41v-.26h6.41Z"/>
            <path class="uuid-dad095cc-f2c1-4726-a00d-075cd055c662" d="m316.83,515.56c.14-.35.34-.65.6-.89.26-.24.58-.42.95-.54.37-.12.78-.18,1.24-.18.35,0,.69.04,1.01.12.32.08.62.2.87.37s.46.39.62.67c.15.27.23.6.23.99,0,.62-.18,1.09-.53,1.44-.35.34-.8.54-1.34.59v.03c.26.03.51.09.75.19.24.1.46.24.65.42s.35.41.46.69.17.6.17.97c0,.41-.08.77-.24,1.09-.16.32-.37.58-.64.8s-.58.38-.94.49c-.35.11-.73.17-1.13.17-.5,0-.94-.07-1.35-.21-.4-.14-.74-.33-1.03-.6-.28-.26-.49-.58-.63-.97-.14-.38-.19-.83-.16-1.32h.26c-.03.46.01.87.14,1.22.13.36.32.65.58.89s.57.42.95.54c.38.12.79.19,1.24.19.35,0,.69-.05,1.01-.15.32-.1.61-.25.86-.44.25-.2.45-.44.6-.72.15-.29.22-.62.22-.99s-.06-.7-.19-.96c-.12-.26-.3-.48-.53-.65s-.49-.3-.79-.38c-.3-.08-.63-.14-.99-.15h-.63v-.26h.63c.28,0,.56-.03.84-.1.28-.06.53-.17.75-.32s.4-.35.54-.59c.14-.24.21-.54.21-.9,0-.35-.09-.65-.23-.88-.15-.24-.33-.43-.56-.58-.23-.15-.49-.26-.78-.32-.29-.06-.59-.1-.9-.1-.42,0-.8.05-1.13.16-.34.11-.63.27-.87.49-.24.22-.42.49-.54.81-.12.33-.18.71-.17,1.14h-.26c0-.48.06-.9.19-1.25Z"/>
          </g>
          <g class="uuid-cd684787-b511-4efa-822b-b2dada96f554">
            <path class="uuid-4c93314c-65a8-4a02-a1f1-0223f36d08ec" d="m315.88,519.26v.26h-6.41v-.26h6.41Z"/>
            <path class="uuid-4c93314c-65a8-4a02-a1f1-0223f36d08ec" d="m316.83,515.56c.14-.35.34-.65.6-.89.26-.24.58-.42.95-.54.37-.12.78-.18,1.24-.18.35,0,.69.04,1.01.12.32.08.62.2.87.37s.46.39.62.67c.15.27.23.6.23.99,0,.62-.18,1.09-.53,1.44-.35.34-.8.54-1.34.59v.03c.26.03.51.09.75.19.24.1.46.24.65.42s.35.41.46.69.17.6.17.97c0,.41-.08.77-.24,1.09-.16.32-.37.58-.64.8s-.58.38-.94.49c-.35.11-.73.17-1.13.17-.5,0-.94-.07-1.35-.21-.4-.14-.74-.33-1.03-.6-.28-.26-.49-.58-.63-.97-.14-.38-.19-.83-.16-1.32h.26c-.03.46.01.87.14,1.22.13.36.32.65.58.89s.57.42.95.54c.38.12.79.19,1.24.19.35,0,.69-.05,1.01-.15.32-.1.61-.25.86-.44.25-.2.45-.44.6-.72.15-.29.22-.62.22-.99s-.06-.7-.19-.96c-.12-.26-.3-.48-.53-.65s-.49-.3-.79-.38c-.3-.08-.63-.14-.99-.15h-.63v-.26h.63c.28,0,.56-.03.84-.1.28-.06.53-.17.75-.32s.4-.35.54-.59c.14-.24.21-.54.21-.9,0-.35-.09-.65-.23-.88-.15-.24-.33-.43-.56-.58-.23-.15-.49-.26-.78-.32-.29-.06-.59-.1-.9-.1-.42,0-.8.05-1.13.16-.34.11-.63.27-.87.49-.24.22-.42.49-.54.81-.12.33-.18.71-.17,1.14h-.26c0-.48.06-.9.19-1.25Z"/>
          </g>
          <g class="uuid-cd684787-b511-4efa-822b-b2dada96f554">
            <path class="uuid-dad095cc-f2c1-4726-a00d-075cd055c662" d="m315.88,519.26v.26h-6.41v-.26h6.41Z"/>
            <path class="uuid-dad095cc-f2c1-4726-a00d-075cd055c662" d="m316.83,515.56c.14-.35.34-.65.6-.89.26-.24.58-.42.95-.54.37-.12.78-.18,1.24-.18.35,0,.69.04,1.01.12.32.08.62.2.87.37s.46.39.62.67c.15.27.23.6.23.99,0,.62-.18,1.09-.53,1.44-.35.34-.8.54-1.34.59v.03c.26.03.51.09.75.19.24.1.46.24.65.42s.35.41.46.69.17.6.17.97c0,.41-.08.77-.24,1.09-.16.32-.37.58-.64.8s-.58.38-.94.49c-.35.11-.73.17-1.13.17-.5,0-.94-.07-1.35-.21-.4-.14-.74-.33-1.03-.6-.28-.26-.49-.58-.63-.97-.14-.38-.19-.83-.16-1.32h.26c-.03.46.01.87.14,1.22.13.36.32.65.58.89s.57.42.95.54c.38.12.79.19,1.24.19.35,0,.69-.05,1.01-.15.32-.1.61-.25.86-.44.25-.2.45-.44.6-.72.15-.29.22-.62.22-.99s-.06-.7-.19-.96c-.12-.26-.3-.48-.53-.65s-.49-.3-.79-.38c-.3-.08-.63-.14-.99-.15h-.63v-.26h.63c.28,0,.56-.03.84-.1.28-.06.53-.17.75-.32s.4-.35.54-.59c.14-.24.21-.54.21-.9,0-.35-.09-.65-.23-.88-.15-.24-.33-.43-.56-.58-.23-.15-.49-.26-.78-.32-.29-.06-.59-.1-.9-.1-.42,0-.8.05-1.13.16-.34.11-.63.27-.87.49-.24.22-.42.49-.54.81-.12.33-.18.71-.17,1.14h-.26c0-.48.06-.9.19-1.25Z"/>
          </g>
          <g class="uuid-cd684787-b511-4efa-822b-b2dada96f554">
            <path class="uuid-dad095cc-f2c1-4726-a00d-075cd055c662" d="m418.44,519.26v.26h-6.41v-.26h6.41Z"/>
            <path class="uuid-dad095cc-f2c1-4726-a00d-075cd055c662" d="m425.02,522.82h-5.87c0-.37.07-.7.23-1,.16-.3.38-.58.64-.84.26-.26.56-.51.89-.74.33-.24.66-.47.98-.7.33-.23.66-.47.97-.71.32-.24.6-.49.85-.75s.45-.54.6-.83.22-.61.22-.96-.06-.64-.19-.9-.29-.48-.51-.65c-.21-.18-.47-.31-.76-.4s-.62-.13-.97-.13c-.45,0-.84.07-1.17.21s-.59.33-.79.57c-.21.24-.35.53-.45.87s-.14.71-.14,1.11h-.26c0-.96.25-1.7.71-2.22.47-.53,1.16-.79,2.1-.79.38,0,.73.05,1.05.15.32.1.61.25.85.44.24.2.43.44.57.73.14.29.21.63.21,1.03,0,.48-.13.91-.38,1.31s-.58.76-.97,1.1c-.39.34-.81.66-1.26.97-.45.3-.88.61-1.28.91-.4.3-.74.62-1.02.94-.28.32-.44.67-.47,1.04h5.62v.26Z"/>
          </g>
          <g class="uuid-cd684787-b511-4efa-822b-b2dada96f554">
            <path class="uuid-4c93314c-65a8-4a02-a1f1-0223f36d08ec" d="m418.44,519.26v.26h-6.41v-.26h6.41Z"/>
            <path class="uuid-4c93314c-65a8-4a02-a1f1-0223f36d08ec" d="m425.02,522.82h-5.87c0-.37.07-.7.23-1,.16-.3.38-.58.64-.84.26-.26.56-.51.89-.74.33-.24.66-.47.98-.7.33-.23.66-.47.97-.71.32-.24.6-.49.85-.75s.45-.54.6-.83.22-.61.22-.96-.06-.64-.19-.9-.29-.48-.51-.65c-.21-.18-.47-.31-.76-.4s-.62-.13-.97-.13c-.45,0-.84.07-1.17.21s-.59.33-.79.57c-.21.24-.35.53-.45.87s-.14.71-.14,1.11h-.26c0-.96.25-1.7.71-2.22.47-.53,1.16-.79,2.1-.79.38,0,.73.05,1.05.15.32.1.61.25.85.44.24.2.43.44.57.73.14.29.21.63.21,1.03,0,.48-.13.91-.38,1.31s-.58.76-.97,1.1c-.39.34-.81.66-1.26.97-.45.3-.88.61-1.28.91-.4.3-.74.62-1.02.94-.28.32-.44.67-.47,1.04h5.62v.26Z"/>
          </g>
          <g class="uuid-cd684787-b511-4efa-822b-b2dada96f554">
            <path class="uuid-dad095cc-f2c1-4726-a00d-075cd055c662" d="m418.44,519.26v.26h-6.41v-.26h6.41Z"/>
            <path class="uuid-dad095cc-f2c1-4726-a00d-075cd055c662" d="m425.02,522.82h-5.87c0-.37.07-.7.23-1,.16-.3.38-.58.64-.84.26-.26.56-.51.89-.74.33-.24.66-.47.98-.7.33-.23.66-.47.97-.71.32-.24.6-.49.85-.75s.45-.54.6-.83.22-.61.22-.96-.06-.64-.19-.9-.29-.48-.51-.65c-.21-.18-.47-.31-.76-.4s-.62-.13-.97-.13c-.45,0-.84.07-1.17.21s-.59.33-.79.57c-.21.24-.35.53-.45.87s-.14.71-.14,1.11h-.26c0-.96.25-1.7.71-2.22.47-.53,1.16-.79,2.1-.79.38,0,.73.05,1.05.15.32.1.61.25.85.44.24.2.43.44.57.73.14.29.21.63.21,1.03,0,.48-.13.91-.38,1.31s-.58.76-.97,1.1c-.39.34-.81.66-1.26.97-.45.3-.88.61-1.28.91-.4.3-.74.62-1.02.94-.28.32-.44.67-.47,1.04h5.62v.26Z"/>
          </g>
          <g class="uuid-cd684787-b511-4efa-822b-b2dada96f554">
            <path class="uuid-dad095cc-f2c1-4726-a00d-075cd055c662" d="m521.01,519.26v.26h-6.41v-.26h6.41Z"/>
            <path class="uuid-dad095cc-f2c1-4726-a00d-075cd055c662" d="m524.8,514.44c-.27.37-.61.69-1.03.96-.42.27-.85.46-1.29.58v-.26c.27-.08.5-.18.71-.28.21-.1.4-.22.58-.35.18-.13.35-.27.52-.44.17-.16.34-.35.52-.55h.28v8.72h-.26v-8.38h-.03Z"/>
          </g>
          <g class="uuid-cd684787-b511-4efa-822b-b2dada96f554">
            <path class="uuid-4c93314c-65a8-4a02-a1f1-0223f36d08ec" d="m521.01,519.26v.26h-6.41v-.26h6.41Z"/>
            <path class="uuid-4c93314c-65a8-4a02-a1f1-0223f36d08ec" d="m524.8,514.44c-.27.37-.61.69-1.03.96-.42.27-.85.46-1.29.58v-.26c.27-.08.5-.18.71-.28.21-.1.4-.22.58-.35.18-.13.35-.27.52-.44.17-.16.34-.35.52-.55h.28v8.72h-.26v-8.38h-.03Z"/>
          </g>
          <g class="uuid-cd684787-b511-4efa-822b-b2dada96f554">
            <path class="uuid-dad095cc-f2c1-4726-a00d-075cd055c662" d="m521.01,519.26v.26h-6.41v-.26h6.41Z"/>
            <path class="uuid-dad095cc-f2c1-4726-a00d-075cd055c662" d="m524.8,514.44c-.27.37-.61.69-1.03.96-.42.27-.85.46-1.29.58v-.26c.27-.08.5-.18.71-.28.21-.1.4-.22.58-.35.18-.13.35-.27.52-.44.17-.16.34-.35.52-.55h.28v8.72h-.26v-8.38h-.03Z"/>
          </g>
          <g class="uuid-cd684787-b511-4efa-822b-b2dada96f554">
            <path class="uuid-dad095cc-f2c1-4726-a00d-075cd055c662" d="m726.72,514.44c-.26.37-.61.69-1.03.96-.42.27-.85.46-1.29.58v-.26c.26-.08.5-.18.71-.28s.4-.22.58-.35c.18-.13.35-.27.52-.44.17-.16.34-.35.52-.55h.28v8.72h-.26v-8.38h-.03Z"/>
          </g>
          <g class="uuid-cd684787-b511-4efa-822b-b2dada96f554">
            <path class="uuid-4c93314c-65a8-4a02-a1f1-0223f36d08ec" d="m726.72,514.44c-.26.37-.61.69-1.03.96-.42.27-.85.46-1.29.58v-.26c.26-.08.5-.18.71-.28s.4-.22.58-.35c.18-.13.35-.27.52-.44.17-.16.34-.35.52-.55h.28v8.72h-.26v-8.38h-.03Z"/>
          </g>
          <g class="uuid-cd684787-b511-4efa-822b-b2dada96f554">
            <path class="uuid-dad095cc-f2c1-4726-a00d-075cd055c662" d="m726.72,514.44c-.26.37-.61.69-1.03.96-.42.27-.85.46-1.29.58v-.26c.26-.08.5-.18.71-.28s.4-.22.58-.35c.18-.13.35-.27.52-.44.17-.16.34-.35.52-.55h.28v8.72h-.26v-8.38h-.03Z"/>
          </g>
          <g class="uuid-cd684787-b511-4efa-822b-b2dada96f554">
            <path class="uuid-dad095cc-f2c1-4726-a00d-075cd055c662" d="m833.14,522.82h-5.87c0-.37.07-.7.23-1,.16-.3.38-.58.64-.84.26-.26.56-.51.89-.74.33-.24.66-.47.98-.7.33-.23.66-.47.97-.71s.6-.49.85-.75c.25-.26.45-.54.6-.83s.22-.61.22-.96-.06-.64-.19-.9c-.12-.26-.29-.48-.51-.65-.21-.18-.47-.31-.76-.4s-.62-.13-.97-.13c-.45,0-.84.07-1.17.21s-.59.33-.79.57c-.21.24-.35.53-.45.87-.09.34-.14.71-.14,1.11h-.26c0-.96.25-1.7.71-2.22.47-.53,1.17-.79,2.1-.79.38,0,.73.05,1.05.15.33.1.61.25.85.44.24.2.43.44.57.73.14.29.21.63.21,1.03,0,.48-.13.91-.38,1.31-.26.39-.58.76-.97,1.1-.39.34-.81.66-1.26.97s-.88.61-1.28.91c-.4.3-.74.62-1.02.94-.28.32-.44.67-.47,1.04h5.62v.26Z"/>
          </g>
          <g class="uuid-cd684787-b511-4efa-822b-b2dada96f554">
            <path class="uuid-4c93314c-65a8-4a02-a1f1-0223f36d08ec" d="m833.14,522.82h-5.87c0-.37.07-.7.23-1,.16-.3.38-.58.64-.84.26-.26.56-.51.89-.74.33-.24.66-.47.98-.7.33-.23.66-.47.97-.71s.6-.49.85-.75c.25-.26.45-.54.6-.83s.22-.61.22-.96-.06-.64-.19-.9c-.12-.26-.29-.48-.51-.65-.21-.18-.47-.31-.76-.4s-.62-.13-.97-.13c-.45,0-.84.07-1.17.21s-.59.33-.79.57c-.21.24-.35.53-.45.87-.09.34-.14.71-.14,1.11h-.26c0-.96.25-1.7.71-2.22.47-.53,1.17-.79,2.1-.79.38,0,.73.05,1.05.15.33.1.61.25.85.44.24.2.43.44.57.73.14.29.21.63.21,1.03,0,.48-.13.91-.38,1.31-.26.39-.58.76-.97,1.1-.39.34-.81.66-1.26.97s-.88.61-1.28.91c-.4.3-.74.62-1.02.94-.28.32-.44.67-.47,1.04h5.62v.26Z"/>
          </g>
          <g class="uuid-cd684787-b511-4efa-822b-b2dada96f554">
            <path class="uuid-dad095cc-f2c1-4726-a00d-075cd055c662" d="m833.14,522.82h-5.87c0-.37.07-.7.23-1,.16-.3.38-.58.64-.84.26-.26.56-.51.89-.74.33-.24.66-.47.98-.7.33-.23.66-.47.97-.71s.6-.49.85-.75c.25-.26.45-.54.6-.83s.22-.61.22-.96-.06-.64-.19-.9c-.12-.26-.29-.48-.51-.65-.21-.18-.47-.31-.76-.4s-.62-.13-.97-.13c-.45,0-.84.07-1.17.21s-.59.33-.79.57c-.21.24-.35.53-.45.87-.09.34-.14.71-.14,1.11h-.26c0-.96.25-1.7.71-2.22.47-.53,1.17-.79,2.1-.79.38,0,.73.05,1.05.15.33.1.61.25.85.44.24.2.43.44.57.73.14.29.21.63.21,1.03,0,.48-.13.91-.38,1.31-.26.39-.58.76-.97,1.1-.39.34-.81.66-1.26.97s-.88.61-1.28.91c-.4.3-.74.62-1.02.94-.28.32-.44.67-.47,1.04h5.62v.26Z"/>
          </g>
          <g class="uuid-cd684787-b511-4efa-822b-b2dada96f554">
            <path class="uuid-dad095cc-f2c1-4726-a00d-075cd055c662" d="m930.07,515.56c.14-.35.34-.65.6-.89.26-.24.58-.42.95-.54.37-.12.78-.18,1.24-.18.35,0,.69.04,1.01.12.33.08.62.2.87.37.26.17.46.39.62.67.15.27.23.6.23.99,0,.62-.18,1.09-.53,1.44-.36.34-.8.54-1.34.59v.03c.26.03.51.09.75.19.24.1.46.24.65.42s.35.41.46.69.17.6.17.97c0,.41-.08.77-.24,1.09s-.37.58-.64.8-.58.38-.94.49c-.36.11-.73.17-1.13.17-.5,0-.94-.07-1.35-.21-.4-.14-.74-.33-1.03-.6s-.49-.58-.63-.97c-.14-.38-.19-.83-.16-1.32h.26c-.03.46.01.87.14,1.22.13.36.32.65.58.89.26.24.57.42.95.54s.79.19,1.24.19c.35,0,.69-.05,1.01-.15.32-.1.61-.25.86-.44.25-.2.45-.44.6-.72.15-.29.22-.62.22-.99s-.06-.7-.19-.96c-.12-.26-.3-.48-.53-.65s-.49-.3-.79-.38c-.3-.08-.63-.14-.99-.15h-.63v-.26h.63c.28,0,.56-.03.84-.1.28-.06.53-.17.75-.32.22-.15.4-.35.54-.59.14-.24.21-.54.21-.9,0-.35-.09-.65-.23-.88-.15-.24-.33-.43-.56-.58s-.49-.26-.78-.32c-.29-.06-.59-.1-.9-.1-.42,0-.8.05-1.13.16-.34.11-.63.27-.87.49s-.42.49-.54.81c-.12.33-.18.71-.17,1.14h-.26c0-.48.05-.9.19-1.25Z"/>
          </g>
          <g class="uuid-cd684787-b511-4efa-822b-b2dada96f554">
            <path class="uuid-4c93314c-65a8-4a02-a1f1-0223f36d08ec" d="m930.07,515.56c.14-.35.34-.65.6-.89.26-.24.58-.42.95-.54.37-.12.78-.18,1.24-.18.35,0,.69.04,1.01.12.33.08.62.2.87.37.26.17.46.39.62.67.15.27.23.6.23.99,0,.62-.18,1.09-.53,1.44-.36.34-.8.54-1.34.59v.03c.26.03.51.09.75.19.24.1.46.24.65.42s.35.41.46.69.17.6.17.97c0,.41-.08.77-.24,1.09s-.37.58-.64.8-.58.38-.94.49c-.36.11-.73.17-1.13.17-.5,0-.94-.07-1.35-.21-.4-.14-.74-.33-1.03-.6s-.49-.58-.63-.97c-.14-.38-.19-.83-.16-1.32h.26c-.03.46.01.87.14,1.22.13.36.32.65.58.89.26.24.57.42.95.54s.79.19,1.24.19c.35,0,.69-.05,1.01-.15.32-.1.61-.25.86-.44.25-.2.45-.44.6-.72.15-.29.22-.62.22-.99s-.06-.7-.19-.96c-.12-.26-.3-.48-.53-.65s-.49-.3-.79-.38c-.3-.08-.63-.14-.99-.15h-.63v-.26h.63c.28,0,.56-.03.84-.1.28-.06.53-.17.75-.32.22-.15.4-.35.54-.59.14-.24.21-.54.21-.9,0-.35-.09-.65-.23-.88-.15-.24-.33-.43-.56-.58s-.49-.26-.78-.32c-.29-.06-.59-.1-.9-.1-.42,0-.8.05-1.13.16-.34.11-.63.27-.87.49s-.42.49-.54.81c-.12.33-.18.71-.17,1.14h-.26c0-.48.05-.9.19-1.25Z"/>
          </g>
          <g class="uuid-cd684787-b511-4efa-822b-b2dada96f554">
            <path class="uuid-dad095cc-f2c1-4726-a00d-075cd055c662" d="m930.07,515.56c.14-.35.34-.65.6-.89.26-.24.58-.42.95-.54.37-.12.78-.18,1.24-.18.35,0,.69.04,1.01.12.33.08.62.2.87.37.26.17.46.39.62.67.15.27.23.6.23.99,0,.62-.18,1.09-.53,1.44-.36.34-.8.54-1.34.59v.03c.26.03.51.09.75.19.24.1.46.24.65.42s.35.41.46.69.17.6.17.97c0,.41-.08.77-.24,1.09s-.37.58-.64.8-.58.38-.94.49c-.36.11-.73.17-1.13.17-.5,0-.94-.07-1.35-.21-.4-.14-.74-.33-1.03-.6s-.49-.58-.63-.97c-.14-.38-.19-.83-.16-1.32h.26c-.03.46.01.87.14,1.22.13.36.32.65.58.89.26.24.57.42.95.54s.79.19,1.24.19c.35,0,.69-.05,1.01-.15.32-.1.61-.25.86-.44.25-.2.45-.44.6-.72.15-.29.22-.62.22-.99s-.06-.7-.19-.96c-.12-.26-.3-.48-.53-.65s-.49-.3-.79-.38c-.3-.08-.63-.14-.99-.15h-.63v-.26h.63c.28,0,.56-.03.84-.1.28-.06.53-.17.75-.32.22-.15.4-.35.54-.59.14-.24.21-.54.21-.9,0-.35-.09-.65-.23-.88-.15-.24-.33-.43-.56-.58s-.49-.26-.78-.32c-.29-.06-.59-.1-.9-.1-.42,0-.8.05-1.13.16-.34.11-.63.27-.87.49s-.42.49-.54.81c-.12.33-.18.71-.17,1.14h-.26c0-.48.05-.9.19-1.25Z"/>
          </g>
          <g class="uuid-cd684787-b511-4efa-822b-b2dada96f554">
            <path class="uuid-dad095cc-f2c1-4726-a00d-075cd055c662" d="m1032.12,520.24l4.36-6.14h.32v6.19h1.58v.26h-1.58v2.27h-.26v-2.27h-4.42v-.31Zm4.4-5.78l-4.14,5.83h4.17v-5.83h-.03Z"/>
          </g>
          <g class="uuid-cd684787-b511-4efa-822b-b2dada96f554">
            <path class="uuid-4c93314c-65a8-4a02-a1f1-0223f36d08ec" d="m1032.12,520.24l4.36-6.14h.32v6.19h1.58v.26h-1.58v2.27h-.26v-2.27h-4.42v-.31Zm4.4-5.78l-4.14,5.83h4.17v-5.83h-.03Z"/>
          </g>
          <g class="uuid-cd684787-b511-4efa-822b-b2dada96f554">
            <path class="uuid-dad095cc-f2c1-4726-a00d-075cd055c662" d="m1032.12,520.24l4.36-6.14h.32v6.19h1.58v.26h-1.58v2.27h-.26v-2.27h-4.42v-.31Zm4.4-5.78l-4.14,5.83h4.17v-5.83h-.03Z"/>
          </g>
          <g class="uuid-cd684787-b511-4efa-822b-b2dada96f554">
            <path class="uuid-dad095cc-f2c1-4726-a00d-075cd055c662" d="m1135.34,518.09h.03c.25-.41.58-.71.99-.9.41-.19.88-.28,1.39-.28.45,0,.86.08,1.23.22s.68.36.95.62c.26.27.47.58.62.96.15.37.22.78.22,1.21,0,.46-.07.88-.22,1.26s-.35.7-.62.96-.58.47-.95.61c-.37.14-.78.21-1.23.21s-.86-.07-1.24-.2-.71-.32-.97-.57c-.27-.25-.48-.55-.62-.92-.15-.36-.21-.78-.19-1.25h.26c-.02.43.04.81.17,1.14.13.33.31.62.56.85s.54.41.89.53c.35.12.74.18,1.15.18s.81-.07,1.15-.2c.34-.13.63-.32.87-.56.24-.24.42-.54.55-.88.13-.35.19-.73.19-1.15s-.07-.77-.2-1.11c-.13-.34-.32-.63-.56-.87-.24-.24-.53-.43-.87-.57s-.72-.21-1.13-.21c-.51,0-.99.11-1.42.34-.44.23-.77.56-1.01.99h-.32l.94-4.4h4.47v.26h-4.27l-.79,3.73Z"/>
          </g>
          <g class="uuid-cd684787-b511-4efa-822b-b2dada96f554">
            <path class="uuid-4c93314c-65a8-4a02-a1f1-0223f36d08ec" d="m1135.34,518.09h.03c.25-.41.58-.71.99-.9.41-.19.88-.28,1.39-.28.45,0,.86.08,1.23.22s.68.36.95.62c.26.27.47.58.62.96.15.37.22.78.22,1.21,0,.46-.07.88-.22,1.26s-.35.7-.62.96-.58.47-.95.61c-.37.14-.78.21-1.23.21s-.86-.07-1.24-.2-.71-.32-.97-.57c-.27-.25-.48-.55-.62-.92-.15-.36-.21-.78-.19-1.25h.26c-.02.43.04.81.17,1.14.13.33.31.62.56.85s.54.41.89.53c.35.12.74.18,1.15.18s.81-.07,1.15-.2c.34-.13.63-.32.87-.56.24-.24.42-.54.55-.88.13-.35.19-.73.19-1.15s-.07-.77-.2-1.11c-.13-.34-.32-.63-.56-.87-.24-.24-.53-.43-.87-.57s-.72-.21-1.13-.21c-.51,0-.99.11-1.42.34-.44.23-.77.56-1.01.99h-.32l.94-4.4h4.47v.26h-4.27l-.79,3.73Z"/>
          </g>
          <g class="uuid-cd684787-b511-4efa-822b-b2dada96f554">
            <path class="uuid-dad095cc-f2c1-4726-a00d-075cd055c662" d="m1135.34,518.09h.03c.25-.41.58-.71.99-.9.41-.19.88-.28,1.39-.28.45,0,.86.08,1.23.22s.68.36.95.62c.26.27.47.58.62.96.15.37.22.78.22,1.21,0,.46-.07.88-.22,1.26s-.35.7-.62.96-.58.47-.95.61c-.37.14-.78.21-1.23.21s-.86-.07-1.24-.2-.71-.32-.97-.57c-.27-.25-.48-.55-.62-.92-.15-.36-.21-.78-.19-1.25h.26c-.02.43.04.81.17,1.14.13.33.31.62.56.85s.54.41.89.53c.35.12.74.18,1.15.18s.81-.07,1.15-.2c.34-.13.63-.32.87-.56.24-.24.42-.54.55-.88.13-.35.19-.73.19-1.15s-.07-.77-.2-1.11c-.13-.34-.32-.63-.56-.87-.24-.24-.53-.43-.87-.57s-.72-.21-1.13-.21c-.51,0-.99.11-1.42.34-.44.23-.77.56-1.01.99h-.32l.94-4.4h4.47v.26h-4.27l-.79,3.73Z"/>
          </g>
          <g class="uuid-cd684787-b511-4efa-822b-b2dada96f554">
            <path class="uuid-dad095cc-f2c1-4726-a00d-075cd055c662" d="m608.63,1019.16h.03c.25-.41.58-.71.99-.9.41-.19.88-.28,1.39-.28.45,0,.86.08,1.23.22.37.15.68.36.95.62.26.27.47.58.62.96.15.37.22.78.22,1.21,0,.46-.07.88-.22,1.26-.15.38-.35.7-.62.96-.27.27-.58.47-.95.61-.37.14-.78.21-1.23.21s-.86-.07-1.24-.2-.71-.32-.97-.57c-.27-.25-.48-.55-.62-.92s-.21-.78-.19-1.25h.26c-.02.43.04.81.17,1.14.13.33.31.62.56.85s.54.41.89.53c.35.12.73.18,1.15.18s.81-.07,1.15-.2c.34-.13.63-.32.87-.56.24-.24.42-.54.55-.88.13-.35.19-.73.19-1.15s-.07-.77-.2-1.11c-.13-.34-.32-.63-.56-.87-.24-.24-.53-.43-.87-.57-.34-.14-.72-.21-1.13-.21-.51,0-.99.11-1.42.34-.44.23-.77.56-1.01.99h-.32l.94-4.4h4.47v.26h-4.27l-.79,3.73Z"/>
          </g>
          <g class="uuid-cd684787-b511-4efa-822b-b2dada96f554">
            <path class="uuid-4c93314c-65a8-4a02-a1f1-0223f36d08ec" d="m607.54,1020.32v.26h-6.41v-.26h6.41Z"/>
            <path class="uuid-4c93314c-65a8-4a02-a1f1-0223f36d08ec" d="m608.63,1019.16h.03c.25-.41.58-.71.99-.9.41-.19.88-.28,1.39-.28.45,0,.86.08,1.23.22.37.15.68.36.95.62.26.27.47.58.62.96.15.37.22.78.22,1.21,0,.46-.07.88-.22,1.26-.15.38-.35.7-.62.96-.27.27-.58.47-.95.61-.37.14-.78.21-1.23.21s-.86-.07-1.24-.2-.71-.32-.97-.57c-.27-.25-.48-.55-.62-.92s-.21-.78-.19-1.25h.26c-.02.43.04.81.17,1.14.13.33.31.62.56.85s.54.41.89.53c.35.12.73.18,1.15.18s.81-.07,1.15-.2c.34-.13.63-.32.87-.56.24-.24.42-.54.55-.88.13-.35.19-.73.19-1.15s-.07-.77-.2-1.11c-.13-.34-.32-.63-.56-.87-.24-.24-.53-.43-.87-.57-.34-.14-.72-.21-1.13-.21-.51,0-.99.11-1.42.34-.44.23-.77.56-1.01.99h-.32l.94-4.4h4.47v.26h-4.27l-.79,3.73Z"/>
          </g>
          <g class="uuid-cd684787-b511-4efa-822b-b2dada96f554">
            <path class="uuid-dad095cc-f2c1-4726-a00d-075cd055c662" d="m608.63,1019.16h.03c.25-.41.58-.71.99-.9.41-.19.88-.28,1.39-.28.45,0,.86.08,1.23.22.37.15.68.36.95.62.26.27.47.58.62.96.15.37.22.78.22,1.21,0,.46-.07.88-.22,1.26-.15.38-.35.7-.62.96-.27.27-.58.47-.95.61-.37.14-.78.21-1.23.21s-.86-.07-1.24-.2-.71-.32-.97-.57c-.27-.25-.48-.55-.62-.92s-.21-.78-.19-1.25h.26c-.02.43.04.81.17,1.14.13.33.31.62.56.85s.54.41.89.53c.35.12.73.18,1.15.18s.81-.07,1.15-.2c.34-.13.63-.32.87-.56.24-.24.42-.54.55-.88.13-.35.19-.73.19-1.15s-.07-.77-.2-1.11c-.13-.34-.32-.63-.56-.87-.24-.24-.53-.43-.87-.57-.34-.14-.72-.21-1.13-.21-.51,0-.99.11-1.42.34-.44.23-.77.56-1.01.99h-.32l.94-4.4h4.47v.26h-4.27l-.79,3.73Z"/>
          </g>
          <g class="uuid-cd684787-b511-4efa-822b-b2dada96f554">
            <path class="uuid-dad095cc-f2c1-4726-a00d-075cd055c662" d="m607.54,917.76v.26h-6.41v-.26h6.41Z"/>
            <path class="uuid-dad095cc-f2c1-4726-a00d-075cd055c662" d="m607.98,918.75l4.36-6.14h.32v6.19h1.58v.26h-1.58v2.27h-.26v-2.27h-4.42v-.31Zm4.4-5.78l-4.14,5.83h4.17v-5.83h-.03Z"/>
          </g>
          <g class="uuid-cd684787-b511-4efa-822b-b2dada96f554">
            <path class="uuid-4c93314c-65a8-4a02-a1f1-0223f36d08ec" d="m607.54,917.76v.26h-6.41v-.26h6.41Z"/>
            <path class="uuid-4c93314c-65a8-4a02-a1f1-0223f36d08ec" d="m607.98,918.75l4.36-6.14h.32v6.19h1.58v.26h-1.58v2.27h-.26v-2.27h-4.42v-.31Zm4.4-5.78l-4.14,5.83h4.17v-5.83h-.03Z"/>
          </g>
          <g class="uuid-cd684787-b511-4efa-822b-b2dada96f554">
            <path class="uuid-dad095cc-f2c1-4726-a00d-075cd055c662" d="m607.54,917.76v.26h-6.41v-.26h6.41Z"/>
            <path class="uuid-dad095cc-f2c1-4726-a00d-075cd055c662" d="m607.98,918.75l4.36-6.14h.32v6.19h1.58v.26h-1.58v2.27h-.26v-2.27h-4.42v-.31Zm4.4-5.78l-4.14,5.83h4.17v-5.83h-.03Z"/>
          </g>
          <g class="uuid-cd684787-b511-4efa-822b-b2dada96f554">
            <path class="uuid-dad095cc-f2c1-4726-a00d-075cd055c662" d="m607.54,815.2v.26h-6.41v-.26h6.41Z"/>
            <path class="uuid-dad095cc-f2c1-4726-a00d-075cd055c662" d="m608.49,811.5c.14-.35.34-.65.6-.89.26-.24.58-.42.95-.54.37-.12.78-.18,1.24-.18.35,0,.69.04,1.01.12.32.08.62.2.87.37s.46.39.62.67c.15.27.23.6.23.99,0,.62-.18,1.09-.53,1.44-.35.34-.8.54-1.34.59v.03c.26.03.51.09.75.19.24.1.46.24.65.42s.35.41.46.69.17.6.17.97c0,.41-.08.77-.24,1.09-.16.32-.37.58-.64.8s-.58.38-.94.49c-.35.11-.73.17-1.13.17-.5,0-.94-.07-1.35-.21-.4-.14-.74-.33-1.03-.6-.28-.26-.49-.58-.63-.97-.14-.38-.19-.83-.16-1.32h.26c-.03.46.01.87.14,1.22.13.36.32.65.58.89s.57.42.95.54c.38.12.79.19,1.24.19.35,0,.69-.05,1.01-.15.32-.1.61-.25.86-.44.25-.2.45-.44.6-.72.15-.29.22-.62.22-.99s-.06-.7-.19-.96c-.12-.26-.3-.48-.53-.65s-.49-.3-.79-.38c-.3-.08-.63-.14-.99-.15h-.63v-.26h.63c.28,0,.56-.03.84-.1.28-.06.53-.17.75-.32s.4-.35.54-.59c.14-.24.21-.54.21-.9,0-.35-.09-.65-.23-.88-.15-.24-.33-.43-.56-.58-.23-.15-.49-.26-.78-.32-.29-.06-.59-.1-.9-.1-.42,0-.8.05-1.13.16-.34.11-.63.27-.87.49-.24.22-.42.49-.54.81-.12.33-.18.71-.17,1.14h-.26c0-.48.06-.9.19-1.25Z"/>
          </g>
          <g class="uuid-cd684787-b511-4efa-822b-b2dada96f554">
            <path class="uuid-4c93314c-65a8-4a02-a1f1-0223f36d08ec" d="m607.54,815.2v.26h-6.41v-.26h6.41Z"/>
            <path class="uuid-4c93314c-65a8-4a02-a1f1-0223f36d08ec" d="m608.49,811.5c.14-.35.34-.65.6-.89.26-.24.58-.42.95-.54.37-.12.78-.18,1.24-.18.35,0,.69.04,1.01.12.32.08.62.2.87.37s.46.39.62.67c.15.27.23.6.23.99,0,.62-.18,1.09-.53,1.44-.35.34-.8.54-1.34.59v.03c.26.03.51.09.75.19.24.1.46.24.65.42s.35.41.46.69.17.6.17.97c0,.41-.08.77-.24,1.09-.16.32-.37.58-.64.8s-.58.38-.94.49c-.35.11-.73.17-1.13.17-.5,0-.94-.07-1.35-.21-.4-.14-.74-.33-1.03-.6-.28-.26-.49-.58-.63-.97-.14-.38-.19-.83-.16-1.32h.26c-.03.46.01.87.14,1.22.13.36.32.65.58.89s.57.42.95.54c.38.12.79.19,1.24.19.35,0,.69-.05,1.01-.15.32-.1.61-.25.86-.44.25-.2.45-.44.6-.72.15-.29.22-.62.22-.99s-.06-.7-.19-.96c-.12-.26-.3-.48-.53-.65s-.49-.3-.79-.38c-.3-.08-.63-.14-.99-.15h-.63v-.26h.63c.28,0,.56-.03.84-.1.28-.06.53-.17.75-.32s.4-.35.54-.59c.14-.24.21-.54.21-.9,0-.35-.09-.65-.23-.88-.15-.24-.33-.43-.56-.58-.23-.15-.49-.26-.78-.32-.29-.06-.59-.1-.9-.1-.42,0-.8.05-1.13.16-.34.11-.63.27-.87.49-.24.22-.42.49-.54.81-.12.33-.18.71-.17,1.14h-.26c0-.48.06-.9.19-1.25Z"/>
          </g>
          <g class="uuid-cd684787-b511-4efa-822b-b2dada96f554">
            <path class="uuid-dad095cc-f2c1-4726-a00d-075cd055c662" d="m607.54,815.2v.26h-6.41v-.26h6.41Z"/>
            <path class="uuid-dad095cc-f2c1-4726-a00d-075cd055c662" d="m608.49,811.5c.14-.35.34-.65.6-.89.26-.24.58-.42.95-.54.37-.12.78-.18,1.24-.18.35,0,.69.04,1.01.12.32.08.62.2.87.37s.46.39.62.67c.15.27.23.6.23.99,0,.62-.18,1.09-.53,1.44-.35.34-.8.54-1.34.59v.03c.26.03.51.09.75.19.24.1.46.24.65.42s.35.41.46.69.17.6.17.97c0,.41-.08.77-.24,1.09-.16.32-.37.58-.64.8s-.58.38-.94.49c-.35.11-.73.17-1.13.17-.5,0-.94-.07-1.35-.21-.4-.14-.74-.33-1.03-.6-.28-.26-.49-.58-.63-.97-.14-.38-.19-.83-.16-1.32h.26c-.03.46.01.87.14,1.22.13.36.32.65.58.89s.57.42.95.54c.38.12.79.19,1.24.19.35,0,.69-.05,1.01-.15.32-.1.61-.25.86-.44.25-.2.45-.44.6-.72.15-.29.22-.62.22-.99s-.06-.7-.19-.96c-.12-.26-.3-.48-.53-.65s-.49-.3-.79-.38c-.3-.08-.63-.14-.99-.15h-.63v-.26h.63c.28,0,.56-.03.84-.1.28-.06.53-.17.75-.32s.4-.35.54-.59c.14-.24.21-.54.21-.9,0-.35-.09-.65-.23-.88-.15-.24-.33-.43-.56-.58-.23-.15-.49-.26-.78-.32-.29-.06-.59-.1-.9-.1-.42,0-.8.05-1.13.16-.34.11-.63.27-.87.49-.24.22-.42.49-.54.81-.12.33-.18.71-.17,1.14h-.26c0-.48.06-.9.19-1.25Z"/>
          </g>
          <g class="uuid-cd684787-b511-4efa-822b-b2dada96f554">
            <path class="uuid-dad095cc-f2c1-4726-a00d-075cd055c662" d="m607.54,712.63v.26h-6.41v-.26h6.41Z"/>
            <path class="uuid-dad095cc-f2c1-4726-a00d-075cd055c662" d="m614.12,716.2h-5.87c0-.37.07-.7.23-1,.16-.3.38-.58.64-.84.26-.26.56-.51.89-.74.33-.24.66-.47.98-.7.33-.23.66-.47.97-.71.32-.24.6-.49.85-.75s.45-.54.6-.83.22-.61.22-.96-.06-.64-.19-.9-.29-.48-.51-.65c-.21-.18-.47-.31-.76-.4s-.62-.13-.97-.13c-.45,0-.84.07-1.17.21s-.59.33-.79.57c-.21.24-.35.53-.45.87s-.14.71-.14,1.11h-.26c0-.96.25-1.7.71-2.22.47-.53,1.16-.79,2.1-.79.38,0,.73.05,1.05.15.32.1.61.25.85.44.24.2.43.44.57.73.14.29.21.63.21,1.03,0,.48-.13.91-.38,1.31s-.58.76-.97,1.1c-.39.34-.81.66-1.26.97-.45.3-.88.61-1.28.91-.4.3-.74.62-1.02.94-.28.32-.44.67-.47,1.04h5.62v.26Z"/>
          </g>
          <g class="uuid-cd684787-b511-4efa-822b-b2dada96f554">
            <path class="uuid-4c93314c-65a8-4a02-a1f1-0223f36d08ec" d="m607.54,712.63v.26h-6.41v-.26h6.41Z"/>
            <path class="uuid-4c93314c-65a8-4a02-a1f1-0223f36d08ec" d="m614.12,716.2h-5.87c0-.37.07-.7.23-1,.16-.3.38-.58.64-.84.26-.26.56-.51.89-.74.33-.24.66-.47.98-.7.33-.23.66-.47.97-.71.32-.24.6-.49.85-.75s.45-.54.6-.83.22-.61.22-.96-.06-.64-.19-.9-.29-.48-.51-.65c-.21-.18-.47-.31-.76-.4s-.62-.13-.97-.13c-.45,0-.84.07-1.17.21s-.59.33-.79.57c-.21.24-.35.53-.45.87s-.14.71-.14,1.11h-.26c0-.96.25-1.7.71-2.22.47-.53,1.16-.79,2.1-.79.38,0,.73.05,1.05.15.32.1.61.25.85.44.24.2.43.44.57.73.14.29.21.63.21,1.03,0,.48-.13.91-.38,1.31s-.58.76-.97,1.1c-.39.34-.81.66-1.26.97-.45.3-.88.61-1.28.91-.4.3-.74.62-1.02.94-.28.32-.44.67-.47,1.04h5.62v.26Z"/>
          </g>
          <g class="uuid-cd684787-b511-4efa-822b-b2dada96f554">
            <path class="uuid-dad095cc-f2c1-4726-a00d-075cd055c662" d="m607.54,712.63v.26h-6.41v-.26h6.41Z"/>
            <path class="uuid-dad095cc-f2c1-4726-a00d-075cd055c662" d="m614.12,716.2h-5.87c0-.37.07-.7.23-1,.16-.3.38-.58.64-.84.26-.26.56-.51.89-.74.33-.24.66-.47.98-.7.33-.23.66-.47.97-.71.32-.24.6-.49.85-.75s.45-.54.6-.83.22-.61.22-.96-.06-.64-.19-.9-.29-.48-.51-.65c-.21-.18-.47-.31-.76-.4s-.62-.13-.97-.13c-.45,0-.84.07-1.17.21s-.59.33-.79.57c-.21.24-.35.53-.45.87s-.14.71-.14,1.11h-.26c0-.96.25-1.7.71-2.22.47-.53,1.16-.79,2.1-.79.38,0,.73.05,1.05.15.32.1.61.25.85.44.24.2.43.44.57.73.14.29.21.63.21,1.03,0,.48-.13.91-.38,1.31s-.58.76-.97,1.1c-.39.34-.81.66-1.26.97-.45.3-.88.61-1.28.91-.4.3-.74.62-1.02.94-.28.32-.44.67-.47,1.04h5.62v.26Z"/>
          </g>
          <g class="uuid-cd684787-b511-4efa-822b-b2dada96f554">
            <path class="uuid-dad095cc-f2c1-4726-a00d-075cd055c662" d="m607.54,610.07v.26h-6.41v-.26h6.41Z"/>
            <path class="uuid-dad095cc-f2c1-4726-a00d-075cd055c662" d="m611.34,605.25c-.27.37-.61.69-1.03.96-.42.27-.85.46-1.29.58v-.26c.27-.08.5-.18.71-.28.21-.1.4-.22.58-.35.18-.13.35-.27.52-.44.17-.16.34-.35.52-.55h.28v8.72h-.26v-8.38h-.03Z"/>
          </g>
          <g class="uuid-cd684787-b511-4efa-822b-b2dada96f554">
            <path class="uuid-4c93314c-65a8-4a02-a1f1-0223f36d08ec" d="m607.54,610.07v.26h-6.41v-.26h6.41Z"/>
            <path class="uuid-4c93314c-65a8-4a02-a1f1-0223f36d08ec" d="m611.34,605.25c-.27.37-.61.69-1.03.96-.42.27-.85.46-1.29.58v-.26c.27-.08.5-.18.71-.28.21-.1.4-.22.58-.35.18-.13.35-.27.52-.44.17-.16.34-.35.52-.55h.28v8.72h-.26v-8.38h-.03Z"/>
          </g>
          <g class="uuid-cd684787-b511-4efa-822b-b2dada96f554">
            <path class="uuid-dad095cc-f2c1-4726-a00d-075cd055c662" d="m607.54,610.07v.26h-6.41v-.26h6.41Z"/>
            <path class="uuid-dad095cc-f2c1-4726-a00d-075cd055c662" d="m611.34,605.25c-.27.37-.61.69-1.03.96-.42.27-.85.46-1.29.58v-.26c.27-.08.5-.18.71-.28.21-.1.4-.22.58-.35.18-.13.35-.27.52-.44.17-.16.34-.35.52-.55h.28v8.72h-.26v-8.38h-.03Z"/>
          </g>
          <g class="uuid-cd684787-b511-4efa-822b-b2dada96f554">
            <path class="uuid-dad095cc-f2c1-4726-a00d-075cd055c662" d="m611.34,400.12c-.27.37-.61.69-1.03.96-.42.27-.85.46-1.29.58v-.26c.27-.09.5-.18.71-.28.21-.1.4-.22.58-.35.18-.13.35-.27.52-.44.17-.16.34-.35.52-.55h.28v8.72h-.26v-8.38h-.03Z"/>
          </g>
          <g class="uuid-cd684787-b511-4efa-822b-b2dada96f554">
            <path class="uuid-4c93314c-65a8-4a02-a1f1-0223f36d08ec" d="m611.34,400.12c-.27.37-.61.69-1.03.96-.42.27-.85.46-1.29.58v-.26c.27-.09.5-.18.71-.28.21-.1.4-.22.58-.35.18-.13.35-.27.52-.44.17-.16.34-.35.52-.55h.28v8.72h-.26v-8.38h-.03Z"/>
          </g>
          <g class="uuid-cd684787-b511-4efa-822b-b2dada96f554">
            <path class="uuid-dad095cc-f2c1-4726-a00d-075cd055c662" d="m611.34,400.12c-.27.37-.61.69-1.03.96-.42.27-.85.46-1.29.58v-.26c.27-.09.5-.18.71-.28.21-.1.4-.22.58-.35.18-.13.35-.27.52-.44.17-.16.34-.35.52-.55h.28v8.72h-.26v-8.38h-.03Z"/>
          </g>
          <g class="uuid-cd684787-b511-4efa-822b-b2dada96f554">
            <path class="uuid-dad095cc-f2c1-4726-a00d-075cd055c662" d="m614.12,305.94h-5.87c0-.37.07-.7.23-1,.16-.3.38-.58.64-.84.26-.26.56-.51.89-.74.33-.23.66-.47.98-.7.33-.23.66-.47.97-.71.32-.24.6-.49.85-.75.25-.26.45-.54.6-.83s.22-.61.22-.96-.06-.64-.19-.9c-.12-.26-.29-.48-.51-.65-.21-.17-.47-.31-.76-.4-.29-.09-.62-.13-.97-.13-.45,0-.84.07-1.17.21s-.59.33-.79.57-.35.53-.45.87c-.09.34-.14.71-.14,1.11h-.26c0-.96.25-1.7.71-2.22.47-.53,1.16-.79,2.1-.79.38,0,.73.05,1.05.15s.61.25.85.44c.24.2.43.44.57.73.14.29.21.63.21,1.03,0,.48-.13.91-.38,1.31s-.58.76-.97,1.1c-.39.34-.81.66-1.26.97-.45.3-.88.61-1.28.91-.4.3-.74.62-1.02.94-.28.32-.44.67-.47,1.04h5.62v.26Z"/>
          </g>
          <g class="uuid-cd684787-b511-4efa-822b-b2dada96f554">
            <path class="uuid-4c93314c-65a8-4a02-a1f1-0223f36d08ec" d="m614.12,305.94h-5.87c0-.37.07-.7.23-1,.16-.3.38-.58.64-.84.26-.26.56-.51.89-.74.33-.23.66-.47.98-.7.33-.23.66-.47.97-.71.32-.24.6-.49.85-.75.25-.26.45-.54.6-.83s.22-.61.22-.96-.06-.64-.19-.9c-.12-.26-.29-.48-.51-.65-.21-.17-.47-.31-.76-.4-.29-.09-.62-.13-.97-.13-.45,0-.84.07-1.17.21s-.59.33-.79.57-.35.53-.45.87c-.09.34-.14.71-.14,1.11h-.26c0-.96.25-1.7.71-2.22.47-.53,1.16-.79,2.1-.79.38,0,.73.05,1.05.15s.61.25.85.44c.24.2.43.44.57.73.14.29.21.63.21,1.03,0,.48-.13.91-.38,1.31s-.58.76-.97,1.1c-.39.34-.81.66-1.26.97-.45.3-.88.61-1.28.91-.4.3-.74.62-1.02.94-.28.32-.44.67-.47,1.04h5.62v.26Z"/>
          </g>
          <g class="uuid-cd684787-b511-4efa-822b-b2dada96f554">
            <path class="uuid-dad095cc-f2c1-4726-a00d-075cd055c662" d="m614.12,305.94h-5.87c0-.37.07-.7.23-1,.16-.3.38-.58.64-.84.26-.26.56-.51.89-.74.33-.23.66-.47.98-.7.33-.23.66-.47.97-.71.32-.24.6-.49.85-.75.25-.26.45-.54.6-.83s.22-.61.22-.96-.06-.64-.19-.9c-.12-.26-.29-.48-.51-.65-.21-.17-.47-.31-.76-.4-.29-.09-.62-.13-.97-.13-.45,0-.84.07-1.17.21s-.59.33-.79.57-.35.53-.45.87c-.09.34-.14.71-.14,1.11h-.26c0-.96.25-1.7.71-2.22.47-.53,1.16-.79,2.1-.79.38,0,.73.05,1.05.15s.61.25.85.44c.24.2.43.44.57.73.14.29.21.63.21,1.03,0,.48-.13.91-.38,1.31s-.58.76-.97,1.1c-.39.34-.81.66-1.26.97-.45.3-.88.61-1.28.91-.4.3-.74.62-1.02.94-.28.32-.44.67-.47,1.04h5.62v.26Z"/>
          </g>
          <g class="uuid-cd684787-b511-4efa-822b-b2dada96f554">
            <path class="uuid-dad095cc-f2c1-4726-a00d-075cd055c662" d="m608.49,196.11c.14-.35.34-.65.6-.89s.58-.42.95-.54c.37-.12.78-.18,1.24-.18.35,0,.69.04,1.01.12.32.08.62.2.87.37.26.17.46.39.62.67.15.27.23.6.23.99,0,.62-.18,1.09-.53,1.44-.35.34-.8.54-1.34.59v.03c.26.03.51.09.75.19.24.1.46.24.65.42.19.18.35.41.46.69.12.27.17.6.17.97,0,.41-.08.77-.24,1.09-.16.32-.37.58-.64.8-.27.22-.58.38-.94.49-.35.11-.73.17-1.13.17-.5,0-.94-.07-1.35-.21-.4-.14-.74-.34-1.03-.6-.28-.26-.49-.58-.63-.97-.14-.38-.19-.82-.16-1.32h.26c-.03.46.01.87.14,1.22.13.35.32.65.58.89.26.24.57.42.95.54.38.12.79.19,1.24.19.35,0,.69-.05,1.01-.15.32-.1.61-.25.86-.44.25-.2.45-.44.6-.72.15-.29.22-.62.22-.99s-.06-.7-.19-.96c-.12-.27-.3-.48-.53-.65s-.49-.3-.79-.38-.63-.14-.99-.15h-.63v-.26h.63c.28,0,.56-.03.84-.1.28-.06.53-.17.75-.32.22-.15.4-.35.54-.59.14-.24.21-.54.21-.9,0-.35-.09-.65-.23-.88-.15-.24-.33-.43-.56-.58-.23-.15-.49-.26-.78-.32-.29-.06-.59-.1-.9-.1-.42,0-.8.05-1.13.16-.34.11-.63.27-.87.49-.24.22-.42.49-.54.81-.12.32-.18.71-.17,1.14h-.26c0-.48.06-.9.19-1.25Z"/>
          </g>
          <g class="uuid-cd684787-b511-4efa-822b-b2dada96f554">
            <path class="uuid-4c93314c-65a8-4a02-a1f1-0223f36d08ec" d="m608.49,196.11c.14-.35.34-.65.6-.89s.58-.42.95-.54c.37-.12.78-.18,1.24-.18.35,0,.69.04,1.01.12.32.08.62.2.87.37.26.17.46.39.62.67.15.27.23.6.23.99,0,.62-.18,1.09-.53,1.44-.35.34-.8.54-1.34.59v.03c.26.03.51.09.75.19.24.1.46.24.65.42.19.18.35.41.46.69.12.27.17.6.17.97,0,.41-.08.77-.24,1.09-.16.32-.37.58-.64.8-.27.22-.58.38-.94.49-.35.11-.73.17-1.13.17-.5,0-.94-.07-1.35-.21-.4-.14-.74-.34-1.03-.6-.28-.26-.49-.58-.63-.97-.14-.38-.19-.82-.16-1.32h.26c-.03.46.01.87.14,1.22.13.35.32.65.58.89.26.24.57.42.95.54.38.12.79.19,1.24.19.35,0,.69-.05,1.01-.15.32-.1.61-.25.86-.44.25-.2.45-.44.6-.72.15-.29.22-.62.22-.99s-.06-.7-.19-.96c-.12-.27-.3-.48-.53-.65s-.49-.3-.79-.38-.63-.14-.99-.15h-.63v-.26h.63c.28,0,.56-.03.84-.1.28-.06.53-.17.75-.32.22-.15.4-.35.54-.59.14-.24.21-.54.21-.9,0-.35-.09-.65-.23-.88-.15-.24-.33-.43-.56-.58-.23-.15-.49-.26-.78-.32-.29-.06-.59-.1-.9-.1-.42,0-.8.05-1.13.16-.34.11-.63.27-.87.49-.24.22-.42.49-.54.81-.12.32-.18.71-.17,1.14h-.26c0-.48.06-.9.19-1.25Z"/>
          </g>
          <g class="uuid-cd684787-b511-4efa-822b-b2dada96f554">
            <path class="uuid-dad095cc-f2c1-4726-a00d-075cd055c662" d="m608.49,196.11c.14-.35.34-.65.6-.89s.58-.42.95-.54c.37-.12.78-.18,1.24-.18.35,0,.69.04,1.01.12.32.08.62.2.87.37.26.17.46.39.62.67.15.27.23.6.23.99,0,.62-.18,1.09-.53,1.44-.35.34-.8.54-1.34.59v.03c.26.03.51.09.75.19.24.1.46.24.65.42.19.18.35.41.46.69.12.27.17.6.17.97,0,.41-.08.77-.24,1.09-.16.32-.37.58-.64.8-.27.22-.58.38-.94.49-.35.11-.73.17-1.13.17-.5,0-.94-.07-1.35-.21-.4-.14-.74-.34-1.03-.6-.28-.26-.49-.58-.63-.97-.14-.38-.19-.82-.16-1.32h.26c-.03.46.01.87.14,1.22.13.35.32.65.58.89.26.24.57.42.95.54.38.12.79.19,1.24.19.35,0,.69-.05,1.01-.15.32-.1.61-.25.86-.44.25-.2.45-.44.6-.72.15-.29.22-.62.22-.99s-.06-.7-.19-.96c-.12-.27-.3-.48-.53-.65s-.49-.3-.79-.38-.63-.14-.99-.15h-.63v-.26h.63c.28,0,.56-.03.84-.1.28-.06.53-.17.75-.32.22-.15.4-.35.54-.59.14-.24.21-.54.21-.9,0-.35-.09-.65-.23-.88-.15-.24-.33-.43-.56-.58-.23-.15-.49-.26-.78-.32-.29-.06-.59-.1-.9-.1-.42,0-.8.05-1.13.16-.34.11-.63.27-.87.49-.24.22-.42.49-.54.81-.12.32-.18.71-.17,1.14h-.26c0-.48.06-.9.19-1.25Z"/>
          </g>
          <g class="uuid-cd684787-b511-4efa-822b-b2dada96f554">
            <path class="uuid-dad095cc-f2c1-4726-a00d-075cd055c662" d="m607.98,98.24l4.36-6.14h.32v6.19h1.58v.26h-1.58v2.27h-.26v-2.27h-4.42v-.31Zm4.4-5.78l-4.14,5.83h4.17v-5.83h-.03Z"/>
          </g>
          <g class="uuid-cd684787-b511-4efa-822b-b2dada96f554">
            <path class="uuid-4c93314c-65a8-4a02-a1f1-0223f36d08ec" d="m607.98,98.24l4.36-6.14h.32v6.19h1.58v.26h-1.58v2.27h-.26v-2.27h-4.42v-.31Zm4.4-5.78l-4.14,5.83h4.17v-5.83h-.03Z"/>
          </g>
          <g class="uuid-cd684787-b511-4efa-822b-b2dada96f554">
            <path class="uuid-dad095cc-f2c1-4726-a00d-075cd055c662" d="m607.98,98.24l4.36-6.14h.32v6.19h1.58v.26h-1.58v2.27h-.26v-2.27h-4.42v-.31Zm4.4-5.78l-4.14,5.83h4.17v-5.83h-.03Z"/>
          </g>
          <g class="uuid-cd684787-b511-4efa-822b-b2dada96f554">
            <path class="uuid-dad095cc-f2c1-4726-a00d-075cd055c662" d="m614.24,520.09c-.11.54-.29,1.02-.54,1.45-.26.43-.59.77-1.01,1.03-.42.26-.94.39-1.58.39s-1.15-.13-1.57-.39c-.42-.26-.76-.6-1.02-1.03-.26-.43-.44-.91-.54-1.45-.11-.54-.16-1.08-.16-1.63s.05-1.09.16-1.63c.11-.54.29-1.02.54-1.45.26-.43.6-.77,1.02-1.04.42-.26.95-.4,1.57-.4s1.16.13,1.58.4c.42.27.76.61,1.01,1.04.26.43.44.91.54,1.45.11.54.16,1.08.16,1.63s-.05,1.09-.16,1.63Zm-.24-3.12c-.09-.5-.26-.96-.49-1.37-.23-.41-.54-.75-.93-1.01-.39-.26-.88-.39-1.48-.39s-1.09.13-1.48.39c-.39.26-.7.6-.93,1.01s-.39.87-.49,1.37c-.09.5-.14,1-.14,1.49s.05.98.14,1.49c.09.5.26.96.49,1.37s.54.75.93,1.01c.39.26.88.39,1.48.39s1.09-.13,1.48-.39c.39-.26.7-.6.93-1.01.23-.41.39-.87.49-1.37.09-.5.14-1,.14-1.49s-.05-.98-.14-1.49Z"/>
          </g>
          <g class="uuid-cd684787-b511-4efa-822b-b2dada96f554">
            <path class="uuid-4c93314c-65a8-4a02-a1f1-0223f36d08ec" d="m614.24,520.09c-.11.54-.29,1.02-.54,1.45-.26.43-.59.77-1.01,1.03-.42.26-.94.39-1.58.39s-1.15-.13-1.57-.39c-.42-.26-.76-.6-1.02-1.03-.26-.43-.44-.91-.54-1.45-.11-.54-.16-1.08-.16-1.63s.05-1.09.16-1.63c.11-.54.29-1.02.54-1.45.26-.43.6-.77,1.02-1.04.42-.26.95-.4,1.57-.4s1.16.13,1.58.4c.42.27.76.61,1.01,1.04.26.43.44.91.54,1.45.11.54.16,1.08.16,1.63s-.05,1.09-.16,1.63Zm-.24-3.12c-.09-.5-.26-.96-.49-1.37-.23-.41-.54-.75-.93-1.01-.39-.26-.88-.39-1.48-.39s-1.09.13-1.48.39c-.39.26-.7.6-.93,1.01s-.39.87-.49,1.37c-.09.5-.14,1-.14,1.49s.05.98.14,1.49c.09.5.26.96.49,1.37s.54.75.93,1.01c.39.26.88.39,1.48.39s1.09-.13,1.48-.39c.39-.26.7-.6.93-1.01.23-.41.39-.87.49-1.37.09-.5.14-1,.14-1.49s-.05-.98-.14-1.49Z"/>
          </g>
          <g class="uuid-cd684787-b511-4efa-822b-b2dada96f554">
            <path class="uuid-dad095cc-f2c1-4726-a00d-075cd055c662" d="m614.24,520.09c-.11.54-.29,1.02-.54,1.45-.26.43-.59.77-1.01,1.03-.42.26-.94.39-1.58.39s-1.15-.13-1.57-.39c-.42-.26-.76-.6-1.02-1.03-.26-.43-.44-.91-.54-1.45-.11-.54-.16-1.08-.16-1.63s.05-1.09.16-1.63c.11-.54.29-1.02.54-1.45.26-.43.6-.77,1.02-1.04.42-.26.95-.4,1.57-.4s1.16.13,1.58.4c.42.27.76.61,1.01,1.04.26.43.44.91.54,1.45.11.54.16,1.08.16,1.63s-.05,1.09-.16,1.63Zm-.24-3.12c-.09-.5-.26-.96-.49-1.37-.23-.41-.54-.75-.93-1.01-.39-.26-.88-.39-1.48-.39s-1.09.13-1.48.39c-.39.26-.7.6-.93,1.01s-.39.87-.49,1.37c-.09.5-.14,1-.14,1.49s.05.98.14,1.49c.09.5.26.96.49,1.37s.54.75.93,1.01c.39.26.88.39,1.48.39s1.09-.13,1.48-.39c.39-.26.7-.6.93-1.01.23-.41.39-.87.49-1.37.09-.5.14-1,.14-1.49s-.05-.98-.14-1.49Z"/>
          </g>
          <path class="uuid-f886d84f-3603-4a20-9ba2-5fc93b461c39" d="m-.36,5181.13v7.48-7.48l1.07-7.48h0l1.07-7.48h0l1.07-7.48h0l1.07-7.48h0l1.07-7.48h0l1.07-7.48h0l1.07-7.48h0l1.07-7.48h0l1.07-7.48h0l1.07-7.48h0l1.07-7.48h0l1.07-7.48h0l1.07-7.48h0l1.07-7.48h0l1.07-7.48h0l1.07-7.48h0l1.07-7.48h0l1.07-7.48h0l1.07-7.48h0l1.07-7.48h0l1.07-7.48h0l1.07-7.48h0l1.07-7.48h0l1.07-7.48h0l1.07-7.48h0l1.07-7.48h0l1.07-7.48h0l1.07-7.48h0l1.07-7.48h0l1.07-7.48h0l1.07-7.48h0l1.07-7.48h0l1.07-7.48h0l1.07-7.48h0l1.07-7.48h0l1.07-7.48h0l1.07-7.48h0l1.07-7.48h0l1.07-7.48h0l1.07-7.48h0l1.07-7.48h0l1.07-7.48h0l1.07-7.48h0l1.07-7.48h0l1.07-7.48h0l1.07-7.48h0l1.07-7.48h0l1.07-7.48h0l1.07-7.48h0l1.07-7.48h0l1.07-7.48h0l1.07-7.48h0l1.07-7.48h0l1.07-7.48h0l1.07-7.48h0l1.07-7.48h0l1.07-7.48h0l1.07-7.48h0l1.07-7.48h0l1.07-7.48h0l1.07-7.48h0l1.07-7.48h0l1.07-7.48h0l1.07-7.48h0l1.07-7.48h0l1.07-7.48h0l1.07-7.48h0l1.07-7.48h0l1.07-7.48h0l1.07-7.48h0l1.07-7.48h0l1.07-7.48h0l1.07-7.48h0l1.07-7.48h0l1.07-7.48h0l1.07-7.48h0l1.07-7.48h0l1.07-7.48h0l1.07-7.48h0l1.07-7.48h0l1.07-7.48h0l1.07-7.48h0l1.07-7.48h0l1.07-7.48h0l1.07-7.48h0l1.07-7.48h0l1.07-7.48h0l1.07-7.48h0l1.07-7.48h0l1.07-7.48h0l1.07-7.48h0l1.07-7.48h0l1.07-7.48h0l1.07-7.48h0l1.07-7.48h0l1.07-7.48h0l1.07-7.48h0l1.07-7.48h0l1.07-7.48h0l1.07-7.48h0l1.07-7.48h0l1.07-7.48h0l1.07-7.48h0l1.07-7.48h0l1.07-7.48h0l1.07-7.48h0l1.07-7.48h0l1.07-7.48h0l1.07-7.48h0l1.07-7.48h0l1.07-7.48h0l1.07-7.48h0l1.07-7.48h0l1.07-7.48h0l1.07-7.48h0l1.07-7.48h0l1.07-7.48h0l1.07-7.48h0l1.07-7.48h0l1.07-7.48h0l1.07-7.48h0l1.07-7.48h0l1.07-7.48h0l1.07-7.48h0l1.07-7.48h0l1.07-7.48h0l1.07-7.48h0l1.07-7.48h0l1.07-7.48h0l1.07-7.48h0l1.07-7.48h0l1.07-7.48h0l1.07-7.48h0l1.07-7.48h0l1.07-7.48h0l1.07-7.48h0l1.07-7.48h0l1.07-7.48h0l1.07-7.48h0l1.07-7.48h0l1.07-7.48h0l1.07-7.48h0l1.07-7.48h0l1.07-7.48h0l1.07-7.48h0l1.07-7.48h0l1.07-7.48h0l1.07-7.48h0l1.07-7.48h0l1.07-7.48h0l1.07-7.48h0l1.07-7.48h0l1.07-7.48h0l1.07-7.48h0l1.07-7.48h0l1.07-7.48h0l1.07-7.48h0l1.07-7.48h0l1.07-7.48h0l1.07-7.48h0l1.07-7.48h0l1.07-7.48h0l1.07-7.48h0l1.07-7.48h0l1.07-7.48h0l1.07-7.48h0l1.07-7.48h0l1.07-7.48h0l1.07-7.48h0l1.07-7.48h0l1.07-7.48h0l1.07-7.48h0l1.07-7.48h0l1.07-7.48h0l1.07-7.48h0l1.07-7.48h0l1.07-7.48h0l1.07-7.48h0l1.07-7.48h0l1.07-7.48h0l1.07-7.48h0l1.07-7.48h0l1.07-7.48h0l1.07-7.48h0l1.07-7.48h0l1.07-7.48h0l1.07-7.48h0l1.07-7.48h0l1.07-7.48h0l1.07-7.48h0l1.07-7.48h0l1.07-7.48h0l1.07-7.48h0l1.07-7.48h0l1.07-7.48h0l1.07-7.48h0l1.07-7.48h0l1.07-7.48h0l1.07-7.48h0l1.07-7.48h0l1.07-7.48h0l1.07-7.48h0l1.07-7.48h0l1.07-7.48h0l1.07-7.48h0l1.07-7.48h0l1.07-7.48h0l1.07-7.48h0l1.07-7.48h0l1.07-7.48h0l1.07-7.48h0l1.07-7.48h0l1.07-7.48h0l1.07-7.48h0l1.07-7.48h0l1.07-7.48h0l1.07-7.48h0l1.07-7.48h0l1.07-7.48h0l1.07-7.48h0l1.07-7.48h0l1.07-7.48h0l1.07-7.48h0l1.07-7.48h0l1.07-7.48h0l1.07-7.48h0l1.07-7.48h0l1.07-7.48h0l1.07-7.48h0l1.07-7.48h0l1.07-7.48h0l1.07-7.48h0l1.07-7.48h0l1.07-7.48h0l1.07-7.48h0l1.07-7.48h0l1.07-7.48h0l1.07-7.48h0l1.07-7.48h0l1.07-7.48h0l1.07-7.48h0l1.07-7.48h0l1.07-7.48h0l1.07-7.48h0l1.07-7.48h0l1.07-7.48h0l1.07-7.48h0l1.07-7.48h0l1.07-7.48h0l1.07-7.48h0l1.07-7.48h0l1.07-7.48h0l1.07-7.48h0l1.07-7.48h0l1.07-7.48h0l1.07-7.48h0l1.07-7.48h0l1.07-7.48h0l1.07-7.48h0l1.07-7.48h0l1.07-7.48h0l1.07-7.48h0l1.07-7.48h0l1.07-7.48h0l1.07-7.48h0l1.07-7.48h0l1.07-7.48h0l1.07-7.48h0l1.07-7.48h0l1.07-7.48h0l1.07-7.48h0l1.07-7.48h0l1.07-7.48h0l1.07-7.48h0l1.07-7.48h0l1.07-7.48h0l1.07-7.48h0l1.07-7.48h0l1.07-7.48h0l1.07-7.48h0l1.07-7.48h0l1.07-7.48h0l1.07-7.48h0l1.07-7.48h0l1.07-7.48h0l1.07-7.48h0l1.07-7.48h0l1.07-7.48h0l1.07-7.48h0l1.07-7.48h0l1.07-7.48h0l1.07-7.48h0l1.07-7.48h0l1.07-7.48h0l1.07-7.48h0l1.07-7.48h0l1.07-7.48h0l1.07-7.48h0l1.07-7.48h0l1.07-7.48h0l1.07-7.48h0l1.07-7.48h0l1.07-7.48h0l1.07-7.48h0l1.07-7.48h0l1.07-7.48h0l1.07-7.48h0l1.07-7.48h0l1.07-7.48h0l1.07-7.48h0l1.07-7.48h0l1.07-7.48h0l1.07-7.48h0l1.07-7.48h0l1.07-7.48h0l1.07-7.48h0l1.07-7.48h0l1.07-7.48h0l1.07-7.48h0l1.07-7.48h0l1.07-7.48h0l1.07-7.48h0l1.07-7.48h0l1.07-7.48h0l1.07-7.48h0l1.07-7.48h0l1.07-7.48h0l1.07-7.48h0l1.07-7.48h0l1.07-7.48h0l1.07-7.48h0l1.07-7.48h0l1.07-7.48h0l1.07-7.48h0l1.07-7.48h0l1.07-7.48h0l1.07-7.48h0l1.07-7.48h0l1.07-7.48h0l1.07-7.48h0l1.07-7.48h0l1.07-7.48h0l1.07-7.48h0l1.07-7.48h0l1.07-7.48h0l1.07-7.48h0l1.07-7.48h0l1.07-7.48h0l1.07-7.48h0l1.07-7.48h0l1.07-7.48h0l1.07-7.48h0l1.07-7.48h0l1.07-7.48h0l1.07-7.48h0l1.07-7.48h0l1.07-7.48h0l1.07-7.48h0l1.07-7.48h0l1.07-7.48h0l1.07-7.48h0l1.07-7.48h0l1.07-7.48h0l1.07-7.48h0l1.07-7.48h0l1.07-7.48h0l1.07-7.48h0l1.07-7.48h0l1.07-7.48h0l1.07-7.48h0l1.07-7.48h0l1.07-7.48h0l1.07-7.48h0l1.07-7.48h0l1.07-7.48h0l1.07-7.48h0l1.07-7.48h0l1.07-7.48h0l1.07-7.48h0l1.07-7.48h0l1.07-7.48h0l1.07-7.48h0l1.07-7.48h0l1.07-7.48h0l1.07-7.48h0l1.07-7.48h0l1.07-7.48h0l1.07-7.48h0l1.07-7.48h0l1.07-7.48h0l1.07-7.48h0l1.07-7.48h0l1.07-7.48h0l1.07-7.48h0l1.07-7.48h0l1.07-7.48h0l1.07-7.48h0l1.07-7.48h0l1.07-7.48h0l1.07-7.48h0l1.07-7.48h0l1.07-7.48h0l1.07-7.48h0l1.07-7.48h0l1.07-7.48h0l1.07-7.48h0l1.07-7.48h0l1.07-7.48h0l1.07-7.48h0l1.07-7.48h0l1.07-7.48h0l1.07-7.48h0l1.07-7.48h0l1.07-7.48h0l1.07-7.48h0l1.07-7.48h0l1.07-7.48h0l1.07-7.48h0l1.07-7.48h0l1.07-7.48h0l1.07-7.48h0l1.07-7.48h0l1.07-7.48h0l1.07-7.48h0l1.07-7.48h0l1.07-7.48h0l1.07-7.48h0l1.07-7.48h0l1.07-7.48h0l1.07-7.48h0l1.07-7.48h0l1.07-7.48h0l1.07-7.48h0l1.07-7.48h0l1.07-7.48h0l1.07-7.48h0l1.07-7.48h0l1.07-7.48h0l1.07-7.48h0l1.07-7.48h0l1.07-7.48h0l1.07-7.48h0l1.07-7.48h0l1.07-7.48h0l1.07-7.48h0l1.07-7.48h0l1.07-7.48h0l1.07-7.48h0l1.07-7.48h0l1.07-7.48h0l1.07-7.48h0l1.07-7.48h0l1.07-7.48h0l1.07-7.48h0l1.07-7.48h0l1.07-7.48h0l1.07-7.48h0l1.07-7.48h0l1.07-7.48h0l1.07-7.48h0l1.07-7.48h0l1.07-7.48h0l1.07-7.48h0l1.07-7.48h0l1.07-7.48h0l1.07-7.48h0l1.07-7.48h0l1.07-7.48h0l1.07-7.48h0l1.07-7.48h0l1.07-7.48h0l1.07-7.48h0l1.07-7.48h0l1.07-7.48h0l1.07-7.48h0l1.07-7.48h0l1.07-7.48h0l1.07-7.48h0l1.07-7.48h0l1.07-7.48h0l1.07-7.48h0l1.07-7.48h0l1.07-7.48h0l1.07-7.48h0l1.07-7.48h0l1.07-7.48h0l1.07-7.48h0l1.07-7.48h0l1.07-7.48h0l1.07-7.48h0l1.07-7.48h0l1.07-7.48h0l1.07-7.48h0l1.07-7.48h0l1.07-7.48h0l1.07-7.48h0l1.07-7.48h0l1.07-7.48h0l1.07-7.48h0l1.07-7.48h0l1.07-7.48h0l1.07-7.48h0l1.07-7.48h0l1.07-7.48h0l1.07-7.48h0l1.07-7.48h0l1.07-7.48h0l1.07-7.48h0l1.07-7.48h0l1.07-7.48h0l1.07-7.48h0l1.07-7.48h0l1.07-7.48h0l1.07-7.48h0l1.07-7.48h0l1.07-7.48h0l1.07-7.48h0l1.07-7.48h0l1.07-7.48h0l1.07-7.48h0l1.07-7.48h0l1.07-7.48h0l1.07-7.48h0l1.07-7.48h0l1.07-7.48h0l1.07-7.48h0l1.07-7.48h0l1.07-7.48h0l1.07-7.48h0l1.07-7.48h0l1.07-7.48h0l1.07-7.48h0l1.07-7.48h0l1.07-7.48h0l1.07-7.48h0l1.07-7.48h0l1.07-7.48h0l1.07-7.48h0l1.07-7.48h0l1.07-7.48h0l1.07-7.48h0l1.07-7.48h0l1.07-7.48h0l1.07-7.48h0l1.07-7.48h0l1.07-7.48h0l1.07-7.48h0l1.07-7.48h0l1.07-7.48h0l1.07-7.48h0l1.07-7.48h0l1.07-7.48h0l1.07-7.48h0l1.07-7.48h0l1.07-7.48h0l1.07-7.48h0l1.07-7.48h0l1.07-7.48h0l1.07-7.48h0l1.07-7.48h0l1.07-7.48h0l1.07-7.48h0l1.07-7.48h0l1.07-7.48h0l1.07-7.48h0l1.07-7.48h0l1.07-7.48h0l1.07-7.48h0l1.07-7.48h0l1.07-7.48h0l1.07-7.48h0l1.07-7.48h0l1.07-7.48h0l1.07-7.48h0l1.07-7.48h0l1.07-7.48h0l1.07-7.48h0l1.07-7.48h0l1.07-7.48h0l1.07-7.48h0l1.07-7.48h0l1.07-7.48h0l1.07-7.48h0l1.07-7.48h0l1.07-7.48h0l1.07-7.48h0l1.07-7.48h0l1.07-7.48h0l1.07-7.48h0l1.07-7.48h0l1.07-7.48h0l1.07-7.48h0l1.07-7.48h0l1.07-7.48h0l1.07-7.48h0l1.07-7.48h0l1.07-7.48h0l1.07-7.48h0l1.07-7.48h0l1.07-7.48h0l1.07-7.48h0l1.07-7.48h0l1.07-7.48h0l1.07-7.48h0l1.07-7.48h0l1.07-7.48h0l1.07-7.48h0l1.07-7.48h0l1.07-7.48h0l1.07-7.48h0l1.07-7.48h0l1.07-7.48h0l1.07-7.48h0l1.07-7.48h0l1.07-7.48h0l1.07-7.48h0l1.07-7.48h0l1.07-7.48h0l1.07-7.48h0l1.07-7.48h0l1.07-7.48h0l1.07-7.48h0l1.07-7.48h0l1.07-7.48h0l1.07-7.48h0l1.07-7.48h0l1.07-7.48h0l1.07-7.48h0l1.07-7.48h0l1.07-7.48h0l1.07-7.48h0l1.07-7.48h0l1.07-7.48h0l1.07-7.48h0l1.07-7.48h0l1.07-7.48h0l1.07-7.48h0l1.07-7.48h0l1.07-7.48h0l1.07-7.48h0l1.07-7.48h0l1.07-7.48h0l1.07-7.48h0l1.07-7.48h0l1.07-7.48h0l1.07-7.48h0l1.07-7.48h0l1.07-7.48h0l1.07-7.48h0l1.07-7.48h0l1.07-7.48h0l1.07-7.48h0l1.07-7.48h0l1.07-7.48h0l1.07-7.48h0l1.07-7.48h0l1.07-7.48h0l1.07-7.48h0l1.07-7.48h0l1.07-7.48h0l1.07-7.48h0l1.07-7.48h0l1.07-7.48h0l1.07-7.48h0l1.07-7.48h0l1.07-7.48h0l1.07-7.48h0l1.07-7.48h0l1.07-7.48h0l1.07-7.48h0l1.07-7.48h0l1.07-7.48h0l1.07-7.48h0l1.07-7.48h0l1.07-7.48h0l1.07-7.48h0l1.07-7.48h0l1.07-7.48h0l1.07-7.48h0l1.07-7.48h0l1.07-7.48h0l1.07-7.48h0l1.07-7.48h0l1.07-7.48h0l1.07-7.48h0l1.07-7.48h0l1.07-7.48h0l1.07-7.48h0l1.07-7.48h0l1.07-7.48h0l1.07-7.48h0l1.07-7.48h0l1.07-7.48h0l1.07-7.48h0l1.07-7.48h0l1.07-7.48h0l1.07-7.48h0l1.07-7.48h0l1.07-7.48h0l1.07-7.48h0l1.07-7.48h0l1.07-7.48h0l1.07-7.48h0l1.07-7.48h0l1.07-7.48h0l1.07-7.48h0l1.07-7.48h0l1.07-7.48h0l1.07-7.48h0l1.07-7.48h0l1.07-7.48h0l1.07-7.48h0l1.07-7.48h0l1.07-7.48h0l1.07-7.48h0l1.07-7.48h0l1.07-7.48h0l1.07-7.48h0l1.07-7.48h0l1.07-7.48h0l1.07-7.48h0l1.07-7.48h0l1.07-7.48h0l1.07-7.48h0l1.07-7.48h0l1.07-7.48h0l1.07-7.48h0l1.07-7.48h0l1.07-7.48h0l1.07-7.48h0l1.07-7.48h0l1.07-7.48h0l1.07-7.48h0l1.07-7.48h0l1.07-7.48h0l1.07-7.48h0l1.07-7.48h0l1.07-7.48h0l1.07-7.48h0l1.07-7.48h0l1.07-7.48h0l1.07-7.48h0l1.07-7.48h0l1.07-7.48h0l1.07-7.48h0l1.07-7.48h0l1.07-7.48h0l1.07-7.48h0l1.07-7.48h0l1.07-7.48h0l1.07-7.48h0l1.07-7.48h0l1.07-7.48h0l1.07-7.48h0l1.07-7.48h0l1.07-7.48h0l1.07-7.48h0l1.07-7.48h0l1.07-7.48h0l1.07-7.48h0l1.07-7.48h0l1.07-7.48h0l1.07-7.48h0l1.07-7.48h0l1.07-7.48h0l1.07-7.48h0l1.07-7.48h0l1.07-7.48h0l1.07-7.48h0l1.07-7.48h0l1.07-7.48h0l1.07-7.48h0l1.07-7.48h0l1.07-7.48h0l1.07-7.48h0l1.07-7.48h0l1.07-7.48h0l1.07-7.48h0l1.07-7.48h0l1.07-7.48h0l1.07-7.48h0l1.07-7.48h0l1.07-7.48h0l1.07-7.48h0l1.07-7.48h0l1.07-7.48h0l1.07-7.48h0l1.07-7.48h0l1.07-7.48h0l1.07-7.48h0l1.07-7.48h0l1.07-7.48h0l1.07-7.48h0l1.07-7.48h0l1.07-7.48h0l1.07-7.48h0l1.07-7.48h0l1.07-7.48h0l1.07-7.48h0l1.07-7.48h0l1.07-7.48h0l1.07-7.48h0l1.07-7.48h0l1.07-7.48h0l1.07-7.48h0l1.07-7.48h0l1.07-7.48h0l1.07-7.48h0l1.07-7.48h0l1.07-7.48h0l1.07-7.48h0l1.07-7.48h0l1.07-7.48h0l1.07-7.48h0l1.07-7.48h0l1.07-7.48h0l1.07-7.48h0l1.07-7.48h0l1.07-7.48h0l1.07-7.48h0l1.07-7.48h0l1.07-7.48h0l1.07-7.48h0l1.07-7.48h0l1.07-7.48h0l1.07-7.48h0l1.07-7.48h0l1.07-7.48h0l1.07-7.48h0l1.07-7.48h0l1.07-7.48h0l1.07-7.48h0l1.07-7.48h0l1.07-7.48h0l1.07-7.48h0l1.07-7.48h0l1.07-7.48h0l1.07-7.48h0l1.07-7.48h0l1.07-7.48h0l1.07-7.48h0l1.07-7.48h0l1.07-7.48h0l1.07-7.48h0l1.07-7.48h0l1.07-7.48h0l1.07-7.48h0l1.07-7.48h0l1.07-7.48h0l1.07-7.48h0l1.07-7.48h0l1.07-7.48h0l1.07-7.48h0l1.07-7.48h0l1.07-7.48h0l1.07-7.48h0l1.07-7.48h0l1.07-7.48h0l1.07-7.48h0l1.07-7.48h0l1.07-7.48h0l1.07-7.48h0l1.07-7.48h0l1.07-7.48h0l1.07-7.48h0l1.07-7.48h0l1.07-7.48h0l1.07-7.48h0l1.07-7.48h0l1.07-7.48h0l1.07-7.48h0l1.07-7.48h0l1.07-7.48h0l1.07-7.48h0l1.07-7.48h0l1.07-7.48h0l1.07-7.48h0l1.07-7.48h0l1.07-7.48h0l1.07-7.48h0l1.07-7.48h0l1.07-7.48h0l1.07-7.48h0l1.07-7.48h0l1.07-7.48h0l1.07-7.48h0l1.07-7.48h0l1.07-7.48h0l1.07-7.48h0l1.07-7.48h0l1.07-7.48h0l1.07-7.48h0l1.07-7.48h0l1.07-7.48h0l1.07-7.48h0l1.07-7.48h0l1.07-7.48h0l1.07-7.48h0l1.07-7.48h0l1.07-7.48h0l1.07-7.48h0l1.07-7.48h0l1.07-7.48h0l1.07-7.48h0l1.07-7.48h0l1.07-7.48h0l1.07-7.48h0l1.07-7.48h0l1.07-7.48h0l1.07-7.48h0l1.07-7.48h0l1.07-7.48h0l1.07-7.48h0l1.07-7.48h0l1.07-7.48h0l1.07-7.48h0l1.07-7.48h0l1.07-7.48h0l1.07-7.48h0l1.07-7.48h0l1.07-7.48h0l1.07-7.48h0l1.07-7.48h0l1.07-7.48h0l1.07-7.48h0l1.07-7.48h0l1.07-7.48h0l1.07-7.48h0l1.07-7.48h0l1.07-7.48h0l1.07-7.48h0l1.07-7.48h0l1.07-7.48h0l1.07-7.48h0l1.07-7.48h0l1.07-7.48h0l1.07-7.48h0l1.07-7.48h0l1.07-7.48h0l1.07-7.48h0l1.07-7.48h0l1.07-7.48h0l1.07-7.48h0l1.07-7.48h0l1.07-7.48h0l1.07-7.48h0l1.07-7.48h0l1.07-7.48h0l1.07-7.48h0l1.07-7.48h0l1.07-7.48h0l1.07-7.48h0l1.07-7.48h0l1.07-7.48h0l1.07-7.48h0l1.07-7.48h0l1.07-7.48h0l1.07-7.48h0l1.07-7.48h0l1.07-7.48h0l1.07-7.48h0l1.07-7.48h0l1.07-7.48h0l1.07-7.48h0l1.07-7.48h0l1.07-7.48h0l1.07-7.48h0l1.07-7.48h0l1.07-7.48h0l1.07-7.48h0l1.07-7.48h0l1.07-7.48h0l1.07-7.48h0l1.07-7.48h0l1.07-7.48h0l1.07-7.48h0l1.07-7.48h0l1.07-7.48h0l1.07-7.48h0l1.07-7.48h0l1.07-7.48h0l1.07-7.48h0l1.07-7.48h0l1.07-7.48h0l1.07-7.48h0l1.07-7.48h0l1.07-7.48h0l1.07-7.48h0l1.07-7.48h0l1.07-7.48h0l1.07-7.48h0l1.07-7.48h0l1.07-7.48h0l1.07-7.48h0l1.07-7.48h0l1.07-7.48h0l1.07-7.48h0l1.07-7.48h0l1.07-7.48h0l1.07-7.48h0l1.07-7.48h0l1.07-7.48h0l1.07-7.48h0l1.07-7.48h0l1.07-7.48h0l1.07-7.48h0l1.07-7.48h0l1.07-7.48h0l1.07-7.48h0l1.07-7.48h0l1.07-7.48h0l1.07-7.48h0l1.07-7.48h0l1.07-7.48h0l1.07-7.48h0l1.07-7.48h0l1.07-7.48h0l1.07-7.48h0l1.07-7.48h0l1.07-7.48h0l1.07-7.48h0l1.07-7.48h0l1.07-7.48h0l1.07-7.48h0l1.07-7.48h0l1.07-7.48h0l1.07-7.48h0l1.07-7.48h0l1.07-7.48h0l1.07-7.48h0l1.07-7.48h0l1.07-7.48h0l1.07-7.48h0l1.07-7.48h0l1.07-7.48h0l1.07-7.48h0l1.07-7.48h0l1.07-7.48h0l1.07-7.48h0l1.07-7.48h0l1.07-7.48h0l1.07-7.48h0l1.07-7.48h0l1.07-7.48h0l1.07-7.48h0l1.07-7.48h0l1.07-7.48h0l1.07-7.48h0l1.07-7.48h0l1.07-7.48h0l1.07-7.48h0l1.07-7.48h0l1.07-7.48h0l1.07-7.48h0l1.07-7.48h0l1.07-7.48h0l1.07-7.48h0l1.07-7.48h0l1.07-7.48h0l1.07-7.48h0l1.07-7.48h0l1.07-7.48h0l1.07-7.48h0l1.07-7.48h0l1.07-7.48h0l1.07-7.48h0l1.07-7.48h0l1.07-7.48h0l1.07-7.48h0l1.07-7.48h0l1.07-7.48h0l1.07-7.48h0l1.07-7.48h0l1.07-7.48h0l1.07-7.48h0l1.07-7.48h0l1.07-7.48h0l1.07-7.48h0l1.07-7.48h0l1.07-7.48h0l1.07-7.48h0l1.07-7.48h0l1.07-7.48h0l1.07-7.48h0l1.07-7.48h0l1.07-7.48h0l1.07-7.48h0l1.07-7.48h0l1.07-7.48h0l1.07-7.48h0l1.07-7.48h0l1.07-7.48h0l1.07-7.48h0l1.07-7.48h0l1.07-7.48h0l1.07-7.48h0l1.07-7.48h0l1.07-7.48h0l1.07-7.48h0l1.07-7.48h0l1.07-7.48h0l1.07-7.48h0l1.07-7.48h0l1.07-7.48h0l1.07-7.48h0l1.07-7.48h0l1.07-7.48h0l1.07-7.48h0l1.07-7.48h0l1.07-7.48h0l1.07-7.48h0l1.07-7.48h0l1.07-7.48h0l1.07-7.48h0l1.07-7.48h0l1.07-7.48h0l1.07-7.48h0l1.07-7.48h0l1.07-7.48h0l1.07-7.48h0l1.07-7.48h0l1.07-7.48h0l1.07-7.48h0l1.07-7.48h0l1.07-7.48h0l1.07-7.48h0l1.07-7.48h0l1.07-7.48h0l1.07-7.48h0l1.07-7.48h0l1.07-7.48h0l1.07-7.48h0l1.07-7.48h0l1.07-7.48h0l1.07-7.48h0l1.07-7.48h0l1.07-7.48h0l1.07-7.48h0l1.07-7.48h0l1.07-7.48h0l1.07-7.48h0l1.07-7.48h0l1.07-7.48h0l1.07-7.48h0l1.07-7.48h0l1.07-7.48h0l1.07-7.48h0l1.07-7.48h0l1.07-7.48h0l1.07-7.48h0l1.07-7.48h0l1.07-7.48h0l1.07-7.48h0l1.07-7.48h0l1.07-7.48h0l1.07-7.48h0l1.07-7.48h0l1.07-7.48h0l1.07-7.48h0l1.07-7.48h0l1.07-7.48h0l1.07-7.48h0l1.07-7.48h0l1.07-7.48h0l1.07-7.48h0l1.07-7.48h0l1.07-7.48"/>
        </g>
      </g>
    </g>
  </g>
  <g id="uuid-cd3e8b79-f1cc-43f6-b461-5e765eeb4541" data-name="Marco">
    <path class="uuid-a9fdd0f0-d96c-4a45-b269-6f63b9388e4b" d="m-2-2V1022h1249V-2H-2Zm1232,987c0,11.05-8.95,20-20,20H35c-11.05,0-20-8.95-20-20V35c0-11.05,8.95-20,20-20h1175c11.05,0,20,8.95,20,20v950Z"/>
  </g>
</svg>