<?xml version="1.0" encoding="UTF-8"?>
<svg xmlns="http://www.w3.org/2000/svg" xmlns:xlink="http://www.w3.org/1999/xlink" viewBox="0 0 1245 1020">
  <defs>
    <style>
      .uuid-6c487375-e7bf-46d5-b6be-6d623a2b04d5 {
        stroke: silver;
      }

      .uuid-6c487375-e7bf-46d5-b6be-6d623a2b04d5, .uuid-eb338252-9d4a-408d-980f-cae29eb75f18, .uuid-1cec4539-1bd9-4fbc-ab03-fe8909b11721, .uuid-cf958f58-f39f-4e0b-9a1a-832124e5a133, .uuid-2b38fc6e-774e-4906-b909-9d7203dab0d5, .uuid-6b24893f-b069-4f33-9280-9f608f7520e2, .uuid-18f36dfb-8037-4bb5-adae-40c706f412ac, .uuid-7d236969-6624-464f-9684-314e31fc29fb, .uuid-59895abc-585e-46d7-a54a-e942afe889ec, .uuid-5be14f69-194d-49ac-b9e4-58a04e697e72 {
        fill: none;
      }

      .uuid-6c487375-e7bf-46d5-b6be-6d623a2b04d5, .uuid-1cec4539-1bd9-4fbc-ab03-fe8909b11721, .uuid-2b38fc6e-774e-4906-b909-9d7203dab0d5, .uuid-59895abc-585e-46d7-a54a-e942afe889ec, .uuid-5be14f69-194d-49ac-b9e4-58a04e697e72 {
        stroke-linecap: round;
        stroke-linejoin: round;
      }

      .uuid-319976cc-ab52-4870-89c9-d422d87eeea8 {
        fill: #fff;
      }

      .uuid-eb338252-9d4a-408d-980f-cae29eb75f18 {
        stroke: #fff;
        stroke-linejoin: bevel;
        stroke-width: 3px;
      }

      .uuid-1cec4539-1bd9-4fbc-ab03-fe8909b11721 {
        stroke: rgba(0, 51, 204, .7);
      }

      .uuid-1cec4539-1bd9-4fbc-ab03-fe8909b11721, .uuid-2b38fc6e-774e-4906-b909-9d7203dab0d5, .uuid-5be14f69-194d-49ac-b9e4-58a04e697e72 {
        stroke-width: 5px;
      }

      .uuid-cf958f58-f39f-4e0b-9a1a-832124e5a133 {
        clip-path: url(#uuid-0b81449d-d75a-4d02-9532-7a284c44a249);
      }

      .uuid-2b38fc6e-774e-4906-b909-9d7203dab0d5 {
        stroke: rgba(102, 0, 204, .7);
      }

      .uuid-6b24893f-b069-4f33-9280-9f608f7520e2 {
        isolation: isolate;
      }

      .uuid-63c2cc98-0405-4159-b75f-dc11a4b3730f {
        fill: #00699b;
      }

      .uuid-7d236969-6624-464f-9684-314e31fc29fb {
        stroke: #252525;
        stroke-miterlimit: 10;
      }

      .uuid-59895abc-585e-46d7-a54a-e942afe889ec {
        stroke: rgba(192, 192, 192, .24);
      }

      .uuid-7dad3aee-a91f-4148-9a09-309c8c6605cc {
        fill: #252525;
      }

      .uuid-5be14f69-194d-49ac-b9e4-58a04e697e72 {
        stroke: rgba(204, 0, 0, .7);
      }
    </style>
    <clipPath id="uuid-0b81449d-d75a-4d02-9532-7a284c44a249">
      <rect class="uuid-18f36dfb-8037-4bb5-adae-40c706f412ac" width="1245" height="1020"/>
    </clipPath>
  </defs>
  <g id="uuid-d03d4b2b-40a4-42e3-bbd4-fd4fa31249e8" data-name="Grafica">
    <g id="uuid-2d6ba76c-2f38-4d0d-8fcc-194d15ee5256" data-name="Grafica">
      <g class="uuid-cf958f58-f39f-4e0b-9a1a-832124e5a133">
        <g>
          <rect class="uuid-319976cc-ab52-4870-89c9-d422d87eeea8" width="1245" height="1020"/>
          <path class="uuid-6c487375-e7bf-46d5-b6be-6d623a2b04d5" d="m35.5.5v1020M35.5.5v1020M131.5.5v1020M227.5.5v1020M323.5.5v1020M419.5.5v1020M515.5.5v1020M707.5.5v1020M804.5.5v1020M900.5.5v1020M996.5.5v1020M1092.5.5v1020M1188.5.5v1020"/>
          <path class="uuid-59895abc-585e-46d7-a54a-e942afe889ec" d="m16.5.5v1020M55.5.5v1020M74.5.5v1020M93.5.5v1020M112.5.5v1020M151.5.5v1020M170.5.5v1020M189.5.5v1020M208.5.5v1020M247.5.5v1020M266.5.5v1020M285.5.5v1020M304.5.5v1020M343.5.5v1020M362.5.5v1020M381.5.5v1020M400.5.5v1020M439.5.5v1020M458.5.5v1020M477.5.5v1020M496.5.5v1020M535.5.5v1020M554.5.5v1020M573.5.5v1020M592.5.5v1020M631.5.5v1020M650.5.5v1020M669.5.5v1020M688.5.5v1020M727.5.5v1020M746.5.5v1020M765.5.5v1020M784.5.5v1020M823.5.5v1020M842.5.5v1020M861.5.5v1020M880.5.5v1020M919.5.5v1020M938.5.5v1020M957.5.5v1020M976.5.5v1020M1015.5.5v1020M1034.5.5v1020M1053.5.5v1020M1072.5.5v1020M1111.5.5v1020M1130.5.5v1020M1149.5.5v1020M1168.5.5v1020M1207.5.5v1020M1226.5.5v1020"/>
          <path class="uuid-6c487375-e7bf-46d5-b6be-6d623a2b04d5" d="m.5,29.5h1245M.5,29.5h1245M.5,125.5h1245M.5,221.5h1245M.5,317.5h1245M.5,413.5h1245M.5,605.5h1245M.5,701.5h1245M.5,797.5h1245M.5,893.5h1245M.5,989.5h1245"/>
          <path class="uuid-59895abc-585e-46d7-a54a-e942afe889ec" d="m.5,9.5h1245M.5,9.5h1245M.5,48.5h1245M.5,67.5h1245M.5,86.5h1245M.5,105.5h1245M.5,144.5h1245M.5,163.5h1245M.5,182.5h1245M.5,202.5h1245M.5,240.5h1245M.5,259.5h1245M.5,278.5h1245M.5,298.5h1245M.5,336.5h1245M.5,355.5h1245M.5,374.5h1245M.5,394.5h1245M.5,432.5h1245M.5,451.5h1245M.5,470.5h1245M.5,490.5h1245M.5,528.5h1245M.5,547.5h1245M.5,566.5h1245M.5,586.5h1245M.5,624.5h1245M.5,643.5h1245M.5,662.5h1245M.5,682.5h1245M.5,720.5h1245M.5,739.5h1245M.5,758.5h1245M.5,778.5h1245M.5,816.5h1245M.5,835.5h1245M.5,854.5h1245M.5,874.5h1245M.5,912.5h1245M.5,931.5h1245M.5,950.5h1245M.5,970.5h1245M.5,1008.5h1245"/>
          <path class="uuid-7d236969-6624-464f-9684-314e31fc29fb" d="m611.5,2.5v1018"/>
          <path class="uuid-7d236969-6624-464f-9684-314e31fc29fb" d="m611.5,1.5l-4,4"/>
          <path class="uuid-7d236969-6624-464f-9684-314e31fc29fb" d="m611.5,1.5l4,4"/>
          <path class="uuid-7d236969-6624-464f-9684-314e31fc29fb" d="m.5,509.5h1243"/>
          <path class="uuid-7d236969-6624-464f-9684-314e31fc29fb" d="m1244.5,509.5l-4-4"/>
          <path class="uuid-7d236969-6624-464f-9684-314e31fc29fb" d="m1244.5,509.5l-4,4"/>
          <g class="uuid-6b24893f-b069-4f33-9280-9f608f7520e2">
            <path class="uuid-7dad3aee-a91f-4148-9a09-309c8c6605cc" d="m36,521.66v.24h-6v-.24h6Z"/>
            <path class="uuid-7dad3aee-a91f-4148-9a09-309c8c6605cc" d="m41.44,517.85c-.17-.24-.37-.42-.58-.56-.22-.14-.44-.23-.67-.28-.23-.05-.45-.08-.66-.08-.61,0-1.1.15-1.48.46-.38.3-.67.69-.87,1.15s-.34.96-.4,1.5-.09,1.04-.08,1.51h.02c.06-.29.17-.56.33-.8s.36-.47.6-.65c.24-.19.5-.33.8-.44.3-.1.61-.16.93-.16.35,0,.7.07,1.04.2s.64.33.91.58c.26.25.48.54.64.89s.24.73.24,1.15-.08.78-.23,1.13c-.15.34-.36.64-.62.89s-.56.44-.9.58c-.34.14-.7.21-1.07.21-.28,0-.54-.04-.79-.11-.24-.07-.47-.17-.67-.29-.2-.12-.38-.26-.53-.41-.16-.15-.29-.31-.39-.47-.23-.36-.38-.77-.44-1.23s-.1-.95-.1-1.48.05-1.02.14-1.55c.1-.53.26-1.01.5-1.44.24-.43.55-.78.94-1.06.39-.27.89-.41,1.49-.41.35,0,.67.05.97.16.29.11.55.25.76.44.22.18.39.4.53.65s.22.52.26.81h-.24c-.08-.37-.21-.67-.38-.91Zm.32,3.46c-.14-.31-.32-.58-.55-.82s-.5-.42-.82-.55-.65-.2-1.01-.2-.7.07-1.01.2-.58.32-.82.55c-.23.23-.42.5-.55.82-.14.31-.2.65-.2,1.01s.07.7.2,1.01c.14.31.32.58.55.82.23.23.5.42.82.55s.65.2,1.01.2.7-.07,1.01-.2.58-.32.82-.55c.23-.23.42-.5.55-.82.14-.31.2-.65.2-1.01s-.07-.7-.2-1.01Z"/>
          </g>
          <g class="uuid-6b24893f-b069-4f33-9280-9f608f7520e2">
            <path class="uuid-eb338252-9d4a-408d-980f-cae29eb75f18" d="m36,521.66v.24h-6v-.24h6Z"/>
            <path class="uuid-eb338252-9d4a-408d-980f-cae29eb75f18" d="m41.44,517.85c-.17-.24-.37-.42-.58-.56-.22-.14-.44-.23-.67-.28-.23-.05-.45-.08-.66-.08-.61,0-1.1.15-1.48.46-.38.3-.67.69-.87,1.15s-.34.96-.4,1.5-.09,1.04-.08,1.51h.02c.06-.29.17-.56.33-.8s.36-.47.6-.65c.24-.19.5-.33.8-.44.3-.1.61-.16.93-.16.35,0,.7.07,1.04.2s.64.33.91.58c.26.25.48.54.64.89s.24.73.24,1.15-.08.78-.23,1.13c-.15.34-.36.64-.62.89s-.56.44-.9.58c-.34.14-.7.21-1.07.21-.28,0-.54-.04-.79-.11-.24-.07-.47-.17-.67-.29-.2-.12-.38-.26-.53-.41-.16-.15-.29-.31-.39-.47-.23-.36-.38-.77-.44-1.23s-.1-.95-.1-1.48.05-1.02.14-1.55c.1-.53.26-1.01.5-1.44.24-.43.55-.78.94-1.06.39-.27.89-.41,1.49-.41.35,0,.67.05.97.16.29.11.55.25.76.44.22.18.39.4.53.65s.22.52.26.81h-.24c-.08-.37-.21-.67-.38-.91Zm.32,3.46c-.14-.31-.32-.58-.55-.82s-.5-.42-.82-.55-.65-.2-1.01-.2-.7.07-1.01.2-.58.32-.82.55c-.23.23-.42.5-.55.82-.14.31-.2.65-.2,1.01s.07.7.2,1.01c.14.31.32.58.55.82.23.23.5.42.82.55s.65.2,1.01.2.7-.07,1.01-.2.58-.32.82-.55c.23-.23.42-.5.55-.82.14-.31.2-.65.2-1.01s-.07-.7-.2-1.01Z"/>
          </g>
          <g class="uuid-6b24893f-b069-4f33-9280-9f608f7520e2">
            <path class="uuid-7dad3aee-a91f-4148-9a09-309c8c6605cc" d="m36,521.66v.24h-6v-.24h6Z"/>
            <path class="uuid-7dad3aee-a91f-4148-9a09-309c8c6605cc" d="m41.44,517.85c-.17-.24-.37-.42-.58-.56-.22-.14-.44-.23-.67-.28-.23-.05-.45-.08-.66-.08-.61,0-1.1.15-1.48.46-.38.3-.67.69-.87,1.15s-.34.96-.4,1.5-.09,1.04-.08,1.51h.02c.06-.29.17-.56.33-.8s.36-.47.6-.65c.24-.19.5-.33.8-.44.3-.1.61-.16.93-.16.35,0,.7.07,1.04.2s.64.33.91.58c.26.25.48.54.64.89s.24.73.24,1.15-.08.78-.23,1.13c-.15.34-.36.64-.62.89s-.56.44-.9.58c-.34.14-.7.21-1.07.21-.28,0-.54-.04-.79-.11-.24-.07-.47-.17-.67-.29-.2-.12-.38-.26-.53-.41-.16-.15-.29-.31-.39-.47-.23-.36-.38-.77-.44-1.23s-.1-.95-.1-1.48.05-1.02.14-1.55c.1-.53.26-1.01.5-1.44.24-.43.55-.78.94-1.06.39-.27.89-.41,1.49-.41.35,0,.67.05.97.16.29.11.55.25.76.44.22.18.39.4.53.65s.22.52.26.81h-.24c-.08-.37-.21-.67-.38-.91Zm.32,3.46c-.14-.31-.32-.58-.55-.82s-.5-.42-.82-.55-.65-.2-1.01-.2-.7.07-1.01.2-.58.32-.82.55c-.23.23-.42.5-.55.82-.14.31-.2.65-.2,1.01s.07.7.2,1.01c.14.31.32.58.55.82.23.23.5.42.82.55s.65.2,1.01.2.7-.07,1.01-.2.58-.32.82-.55c.23-.23.42-.5.55-.82.14-.31.2-.65.2-1.01s-.07-.7-.2-1.01Z"/>
          </g>
          <g class="uuid-6b24893f-b069-4f33-9280-9f608f7520e2">
            <path class="uuid-7dad3aee-a91f-4148-9a09-309c8c6605cc" d="m132,521.66v.24h-6v-.24h6Z"/>
            <path class="uuid-7dad3aee-a91f-4148-9a09-309c8c6605cc" d="m133.02,520.57h.02c.23-.38.54-.66.93-.84.39-.18.82-.26,1.3-.26.42,0,.81.07,1.15.21.34.14.64.33.89.58s.44.55.58.89c.14.35.2.73.2,1.13,0,.43-.07.82-.2,1.18-.14.35-.33.65-.58.9s-.54.44-.89.57c-.34.13-.73.2-1.15.2s-.8-.06-1.16-.19c-.36-.12-.66-.3-.91-.53s-.45-.52-.58-.86c-.14-.34-.2-.73-.18-1.17h.24c-.02.4.04.76.16,1.07.12.31.29.58.52.79s.51.38.83.49c.33.11.69.17,1.08.17s.76-.06,1.07-.19c.32-.12.59-.3.81-.53.22-.23.4-.5.52-.83.12-.32.18-.68.18-1.07s-.06-.72-.19-1.04-.3-.59-.52-.82c-.22-.23-.5-.41-.82-.53-.32-.13-.67-.19-1.06-.19-.48,0-.92.11-1.33.32-.41.21-.72.52-.95.93h-.3l.88-4.12h4.19v.24h-4l-.74,3.49Z"/>
          </g>
          <g class="uuid-6b24893f-b069-4f33-9280-9f608f7520e2">
            <path class="uuid-eb338252-9d4a-408d-980f-cae29eb75f18" d="m132,521.66v.24h-6v-.24h6Z"/>
            <path class="uuid-eb338252-9d4a-408d-980f-cae29eb75f18" d="m133.02,520.57h.02c.23-.38.54-.66.93-.84.39-.18.82-.26,1.3-.26.42,0,.81.07,1.15.21.34.14.64.33.89.58s.44.55.58.89c.14.35.2.73.2,1.13,0,.43-.07.82-.2,1.18-.14.35-.33.65-.58.9s-.54.44-.89.57c-.34.13-.73.2-1.15.2s-.8-.06-1.16-.19c-.36-.12-.66-.3-.91-.53s-.45-.52-.58-.86c-.14-.34-.2-.73-.18-1.17h.24c-.02.4.04.76.16,1.07.12.31.29.58.52.79s.51.38.83.49c.33.11.69.17,1.08.17s.76-.06,1.07-.19c.32-.12.59-.3.81-.53.22-.23.4-.5.52-.83.12-.32.18-.68.18-1.07s-.06-.72-.19-1.04-.3-.59-.52-.82c-.22-.23-.5-.41-.82-.53-.32-.13-.67-.19-1.06-.19-.48,0-.92.11-1.33.32-.41.21-.72.52-.95.93h-.3l.88-4.12h4.19v.24h-4l-.74,3.49Z"/>
          </g>
          <g class="uuid-6b24893f-b069-4f33-9280-9f608f7520e2">
            <path class="uuid-7dad3aee-a91f-4148-9a09-309c8c6605cc" d="m132,521.66v.24h-6v-.24h6Z"/>
            <path class="uuid-7dad3aee-a91f-4148-9a09-309c8c6605cc" d="m133.02,520.57h.02c.23-.38.54-.66.93-.84.39-.18.82-.26,1.3-.26.42,0,.81.07,1.15.21.34.14.64.33.89.58s.44.55.58.89c.14.35.2.73.2,1.13,0,.43-.07.82-.2,1.18-.14.35-.33.65-.58.9s-.54.44-.89.57c-.34.13-.73.2-1.15.2s-.8-.06-1.16-.19c-.36-.12-.66-.3-.91-.53s-.45-.52-.58-.86c-.14-.34-.2-.73-.18-1.17h.24c-.02.4.04.76.16,1.07.12.31.29.58.52.79s.51.38.83.49c.33.11.69.17,1.08.17s.76-.06,1.07-.19c.32-.12.59-.3.81-.53.22-.23.4-.5.52-.83.12-.32.18-.68.18-1.07s-.06-.72-.19-1.04-.3-.59-.52-.82c-.22-.23-.5-.41-.82-.53-.32-.13-.67-.19-1.06-.19-.48,0-.92.11-1.33.32-.41.21-.72.52-.95.93h-.3l.88-4.12h4.19v.24h-4l-.74,3.49Z"/>
          </g>
          <g class="uuid-6b24893f-b069-4f33-9280-9f608f7520e2">
            <path class="uuid-7dad3aee-a91f-4148-9a09-309c8c6605cc" d="m228,521.66v.24h-6v-.24h6Z"/>
            <path class="uuid-7dad3aee-a91f-4148-9a09-309c8c6605cc" d="m228.41,522.59l4.08-5.75h.3v5.8h1.48v.24h-1.48v2.12h-.24v-2.12h-4.14v-.29Zm4.12-5.41l-3.88,5.46h3.9v-5.46h-.02Z"/>
          </g>
          <g class="uuid-6b24893f-b069-4f33-9280-9f608f7520e2">
            <path class="uuid-eb338252-9d4a-408d-980f-cae29eb75f18" d="m228,521.66v.24h-6v-.24h6Z"/>
            <path class="uuid-eb338252-9d4a-408d-980f-cae29eb75f18" d="m228.41,522.59l4.08-5.75h.3v5.8h1.48v.24h-1.48v2.12h-.24v-2.12h-4.14v-.29Zm4.12-5.41l-3.88,5.46h3.9v-5.46h-.02Z"/>
          </g>
          <g class="uuid-6b24893f-b069-4f33-9280-9f608f7520e2">
            <path class="uuid-7dad3aee-a91f-4148-9a09-309c8c6605cc" d="m228,521.66v.24h-6v-.24h6Z"/>
            <path class="uuid-7dad3aee-a91f-4148-9a09-309c8c6605cc" d="m228.41,522.59l4.08-5.75h.3v5.8h1.48v.24h-1.48v2.12h-.24v-2.12h-4.14v-.29Zm4.12-5.41l-3.88,5.46h3.9v-5.46h-.02Z"/>
          </g>
          <g class="uuid-6b24893f-b069-4f33-9280-9f608f7520e2">
            <path class="uuid-7dad3aee-a91f-4148-9a09-309c8c6605cc" d="m324,521.66v.24h-6v-.24h6Z"/>
            <path class="uuid-7dad3aee-a91f-4148-9a09-309c8c6605cc" d="m324.89,518.2c.13-.33.31-.61.56-.83s.54-.39.89-.5.73-.17,1.16-.17c.33,0,.64.04.95.11.3.07.58.19.82.35.24.16.43.37.58.62s.22.56.22.92c0,.58-.17,1.02-.5,1.34-.33.32-.75.5-1.25.55v.02c.24.02.47.08.7.17s.43.22.61.4c.18.17.32.39.43.64s.16.56.16.91c0,.38-.07.72-.22,1.02-.15.3-.35.55-.6.75s-.54.36-.88.46c-.33.1-.69.16-1.06.16-.46,0-.88-.06-1.26-.19s-.7-.31-.96-.56c-.26-.24-.46-.55-.59-.91-.13-.36-.18-.77-.15-1.24h.24c-.03.43.01.81.13,1.15s.3.61.54.83c.24.22.54.39.89.51.35.12.74.17,1.16.17.33,0,.64-.05.95-.14.3-.09.57-.23.8-.41.23-.18.42-.41.56-.68.14-.27.21-.58.21-.93s-.06-.65-.17-.9c-.12-.25-.28-.45-.49-.61s-.46-.28-.74-.36c-.28-.08-.59-.13-.93-.14h-.59v-.24h.59c.26,0,.53-.03.79-.09.26-.06.49-.16.7-.3.21-.14.38-.32.5-.55.13-.23.19-.51.19-.85,0-.33-.08-.6-.22-.83-.14-.22-.31-.41-.53-.55s-.46-.24-.73-.3c-.27-.06-.55-.09-.84-.09-.39,0-.75.05-1.06.15-.32.1-.59.25-.81.46-.22.2-.39.46-.51.76-.12.3-.17.66-.16,1.07h-.24c0-.45.05-.84.18-1.17Z"/>
          </g>
          <g class="uuid-6b24893f-b069-4f33-9280-9f608f7520e2">
            <path class="uuid-eb338252-9d4a-408d-980f-cae29eb75f18" d="m324,521.66v.24h-6v-.24h6Z"/>
            <path class="uuid-eb338252-9d4a-408d-980f-cae29eb75f18" d="m324.89,518.2c.13-.33.31-.61.56-.83s.54-.39.89-.5.73-.17,1.16-.17c.33,0,.64.04.95.11.3.07.58.19.82.35.24.16.43.37.58.62s.22.56.22.92c0,.58-.17,1.02-.5,1.34-.33.32-.75.5-1.25.55v.02c.24.02.47.08.7.17s.43.22.61.4c.18.17.32.39.43.64s.16.56.16.91c0,.38-.07.72-.22,1.02-.15.3-.35.55-.6.75s-.54.36-.88.46c-.33.1-.69.16-1.06.16-.46,0-.88-.06-1.26-.19s-.7-.31-.96-.56c-.26-.24-.46-.55-.59-.91-.13-.36-.18-.77-.15-1.24h.24c-.03.43.01.81.13,1.15s.3.61.54.83c.24.22.54.39.89.51.35.12.74.17,1.16.17.33,0,.64-.05.95-.14.3-.09.57-.23.8-.41.23-.18.42-.41.56-.68.14-.27.21-.58.21-.93s-.06-.65-.17-.9c-.12-.25-.28-.45-.49-.61s-.46-.28-.74-.36c-.28-.08-.59-.13-.93-.14h-.59v-.24h.59c.26,0,.53-.03.79-.09.26-.06.49-.16.7-.3.21-.14.38-.32.5-.55.13-.23.19-.51.19-.85,0-.33-.08-.6-.22-.83-.14-.22-.31-.41-.53-.55s-.46-.24-.73-.3c-.27-.06-.55-.09-.84-.09-.39,0-.75.05-1.06.15-.32.1-.59.25-.81.46-.22.2-.39.46-.51.76-.12.3-.17.66-.16,1.07h-.24c0-.45.05-.84.18-1.17Z"/>
          </g>
          <g class="uuid-6b24893f-b069-4f33-9280-9f608f7520e2">
            <path class="uuid-7dad3aee-a91f-4148-9a09-309c8c6605cc" d="m324,521.66v.24h-6v-.24h6Z"/>
            <path class="uuid-7dad3aee-a91f-4148-9a09-309c8c6605cc" d="m324.89,518.2c.13-.33.31-.61.56-.83s.54-.39.89-.5.73-.17,1.16-.17c.33,0,.64.04.95.11.3.07.58.19.82.35.24.16.43.37.58.62s.22.56.22.92c0,.58-.17,1.02-.5,1.34-.33.32-.75.5-1.25.55v.02c.24.02.47.08.7.17s.43.22.61.4c.18.17.32.39.43.64s.16.56.16.91c0,.38-.07.72-.22,1.02-.15.3-.35.55-.6.75s-.54.36-.88.46c-.33.1-.69.16-1.06.16-.46,0-.88-.06-1.26-.19s-.7-.31-.96-.56c-.26-.24-.46-.55-.59-.91-.13-.36-.18-.77-.15-1.24h.24c-.03.43.01.81.13,1.15s.3.61.54.83c.24.22.54.39.89.51.35.12.74.17,1.16.17.33,0,.64-.05.95-.14.3-.09.57-.23.8-.41.23-.18.42-.41.56-.68.14-.27.21-.58.21-.93s-.06-.65-.17-.9c-.12-.25-.28-.45-.49-.61s-.46-.28-.74-.36c-.28-.08-.59-.13-.93-.14h-.59v-.24h.59c.26,0,.53-.03.79-.09.26-.06.49-.16.7-.3.21-.14.38-.32.5-.55.13-.23.19-.51.19-.85,0-.33-.08-.6-.22-.83-.14-.22-.31-.41-.53-.55s-.46-.24-.73-.3c-.27-.06-.55-.09-.84-.09-.39,0-.75.05-1.06.15-.32.1-.59.25-.81.46-.22.2-.39.46-.51.76-.12.3-.17.66-.16,1.07h-.24c0-.45.05-.84.18-1.17Z"/>
          </g>
          <g class="uuid-6b24893f-b069-4f33-9280-9f608f7520e2">
            <path class="uuid-7dad3aee-a91f-4148-9a09-309c8c6605cc" d="m420,521.66v.24h-6v-.24h6Z"/>
            <path class="uuid-7dad3aee-a91f-4148-9a09-309c8c6605cc" d="m426.16,525h-5.5c0-.34.06-.66.22-.94.15-.28.35-.54.6-.79.25-.24.53-.48.83-.7.31-.22.61-.44.92-.65.31-.22.62-.44.91-.66.3-.22.56-.46.79-.7.23-.24.42-.5.56-.78.14-.28.21-.57.21-.89s-.06-.6-.17-.85c-.12-.24-.27-.45-.47-.61-.2-.16-.44-.29-.71-.37-.28-.08-.58-.13-.91-.13-.42,0-.79.06-1.09.19s-.55.31-.74.53c-.19.23-.33.5-.42.82-.09.32-.13.66-.13,1.04h-.24c0-.9.23-1.59.67-2.08.44-.49,1.09-.74,1.96-.74.35,0,.68.05.98.14.3.09.57.23.79.41.22.18.4.41.53.68.13.27.2.59.2.96,0,.45-.12.86-.36,1.22-.24.37-.54.71-.91,1.03-.36.32-.76.62-1.18.91-.42.28-.82.57-1.19.85s-.69.58-.95.88c-.26.3-.41.63-.44.98h5.26v.24Z"/>
          </g>
          <g class="uuid-6b24893f-b069-4f33-9280-9f608f7520e2">
            <path class="uuid-eb338252-9d4a-408d-980f-cae29eb75f18" d="m420,521.66v.24h-6v-.24h6Z"/>
            <path class="uuid-eb338252-9d4a-408d-980f-cae29eb75f18" d="m426.16,525h-5.5c0-.34.06-.66.22-.94.15-.28.35-.54.6-.79.25-.24.53-.48.83-.7.31-.22.61-.44.92-.65.31-.22.62-.44.91-.66.3-.22.56-.46.79-.7.23-.24.42-.5.56-.78.14-.28.21-.57.21-.89s-.06-.6-.17-.85c-.12-.24-.27-.45-.47-.61-.2-.16-.44-.29-.71-.37-.28-.08-.58-.13-.91-.13-.42,0-.79.06-1.09.19s-.55.31-.74.53c-.19.23-.33.5-.42.82-.09.32-.13.66-.13,1.04h-.24c0-.9.23-1.59.67-2.08.44-.49,1.09-.74,1.96-.74.35,0,.68.05.98.14.3.09.57.23.79.41.22.18.4.41.53.68.13.27.2.59.2.96,0,.45-.12.86-.36,1.22-.24.37-.54.71-.91,1.03-.36.32-.76.62-1.18.91-.42.28-.82.57-1.19.85s-.69.58-.95.88c-.26.3-.41.63-.44.98h5.26v.24Z"/>
          </g>
          <g class="uuid-6b24893f-b069-4f33-9280-9f608f7520e2">
            <path class="uuid-7dad3aee-a91f-4148-9a09-309c8c6605cc" d="m420,521.66v.24h-6v-.24h6Z"/>
            <path class="uuid-7dad3aee-a91f-4148-9a09-309c8c6605cc" d="m426.16,525h-5.5c0-.34.06-.66.22-.94.15-.28.35-.54.6-.79.25-.24.53-.48.83-.7.31-.22.61-.44.92-.65.31-.22.62-.44.91-.66.3-.22.56-.46.79-.7.23-.24.42-.5.56-.78.14-.28.21-.57.21-.89s-.06-.6-.17-.85c-.12-.24-.27-.45-.47-.61-.2-.16-.44-.29-.71-.37-.28-.08-.58-.13-.91-.13-.42,0-.79.06-1.09.19s-.55.31-.74.53c-.19.23-.33.5-.42.82-.09.32-.13.66-.13,1.04h-.24c0-.9.23-1.59.67-2.08.44-.49,1.09-.74,1.96-.74.35,0,.68.05.98.14.3.09.57.23.79.41.22.18.4.41.53.68.13.27.2.59.2.96,0,.45-.12.86-.36,1.22-.24.37-.54.71-.91,1.03-.36.32-.76.62-1.18.91-.42.28-.82.57-1.19.85s-.69.58-.95.88c-.26.3-.41.63-.44.98h5.26v.24Z"/>
          </g>
          <g class="uuid-6b24893f-b069-4f33-9280-9f608f7520e2">
            <path class="uuid-7dad3aee-a91f-4148-9a09-309c8c6605cc" d="m516,521.66v.24h-6v-.24h6Z"/>
            <path class="uuid-7dad3aee-a91f-4148-9a09-309c8c6605cc" d="m519.55,517.15c-.25.34-.57.64-.97.89s-.8.43-1.21.55v-.24c.25-.08.47-.17.66-.26s.37-.2.54-.32.33-.26.49-.41c.16-.15.32-.32.49-.52h.26v8.16h-.24v-7.85h-.02Z"/>
          </g>
          <g class="uuid-6b24893f-b069-4f33-9280-9f608f7520e2">
            <path class="uuid-eb338252-9d4a-408d-980f-cae29eb75f18" d="m516,521.66v.24h-6v-.24h6Z"/>
            <path class="uuid-eb338252-9d4a-408d-980f-cae29eb75f18" d="m519.55,517.15c-.25.34-.57.64-.97.89s-.8.43-1.21.55v-.24c.25-.08.47-.17.66-.26s.37-.2.54-.32.33-.26.49-.41c.16-.15.32-.32.49-.52h.26v8.16h-.24v-7.85h-.02Z"/>
          </g>
          <g class="uuid-6b24893f-b069-4f33-9280-9f608f7520e2">
            <path class="uuid-7dad3aee-a91f-4148-9a09-309c8c6605cc" d="m516,521.66v.24h-6v-.24h6Z"/>
            <path class="uuid-7dad3aee-a91f-4148-9a09-309c8c6605cc" d="m519.55,517.15c-.25.34-.57.64-.97.89s-.8.43-1.21.55v-.24c.25-.08.47-.17.66-.26s.37-.2.54-.32.33-.26.49-.41c.16-.15.32-.32.49-.52h.26v8.16h-.24v-7.85h-.02Z"/>
          </g>
          <g class="uuid-6b24893f-b069-4f33-9280-9f608f7520e2">
            <path class="uuid-7dad3aee-a91f-4148-9a09-309c8c6605cc" d="m708.55,517.15c-.25.34-.57.64-.97.89s-.8.43-1.21.55v-.24c.25-.08.47-.17.66-.26s.37-.2.54-.32.33-.26.49-.41c.16-.15.32-.32.49-.52h.26v8.16h-.24v-7.85h-.02Z"/>
          </g>
          <g class="uuid-6b24893f-b069-4f33-9280-9f608f7520e2">
            <path class="uuid-eb338252-9d4a-408d-980f-cae29eb75f18" d="m708.55,517.15c-.25.34-.57.64-.97.89s-.8.43-1.21.55v-.24c.25-.08.47-.17.66-.26s.37-.2.54-.32.33-.26.49-.41c.16-.15.32-.32.49-.52h.26v8.16h-.24v-7.85h-.02Z"/>
          </g>
          <g class="uuid-6b24893f-b069-4f33-9280-9f608f7520e2">
            <path class="uuid-7dad3aee-a91f-4148-9a09-309c8c6605cc" d="m708.55,517.15c-.25.34-.57.64-.97.89s-.8.43-1.21.55v-.24c.25-.08.47-.17.66-.26s.37-.2.54-.32.33-.26.49-.41c.16-.15.32-.32.49-.52h.26v8.16h-.24v-7.85h-.02Z"/>
          </g>
          <g class="uuid-6b24893f-b069-4f33-9280-9f608f7520e2">
            <path class="uuid-7dad3aee-a91f-4148-9a09-309c8c6605cc" d="m808.16,525h-5.5c0-.34.06-.66.22-.94.15-.28.35-.54.6-.79.25-.24.53-.48.83-.7.31-.22.61-.44.92-.65.31-.22.62-.44.91-.66.29-.22.56-.46.79-.7s.42-.5.56-.78c.14-.28.21-.57.21-.89s-.06-.6-.17-.85c-.12-.24-.27-.45-.47-.61-.2-.16-.44-.29-.71-.37-.28-.08-.58-.13-.91-.13-.42,0-.79.06-1.09.19s-.55.31-.74.53c-.19.23-.33.5-.42.82-.09.32-.13.66-.13,1.04h-.24c0-.9.23-1.59.67-2.08.44-.49,1.09-.74,1.96-.74.35,0,.68.05.98.14.3.09.57.23.79.41s.4.41.53.68c.13.27.2.59.2.96,0,.45-.12.86-.36,1.22s-.54.71-.91,1.03c-.36.32-.76.62-1.18.91-.42.28-.82.57-1.19.85s-.69.58-.95.88-.41.63-.44.98h5.26v.24Z"/>
          </g>
          <g class="uuid-6b24893f-b069-4f33-9280-9f608f7520e2">
            <path class="uuid-eb338252-9d4a-408d-980f-cae29eb75f18" d="m808.16,525h-5.5c0-.34.06-.66.22-.94.15-.28.35-.54.6-.79.25-.24.53-.48.83-.7.31-.22.61-.44.92-.65.31-.22.62-.44.91-.66.29-.22.56-.46.79-.7s.42-.5.56-.78c.14-.28.21-.57.21-.89s-.06-.6-.17-.85c-.12-.24-.27-.45-.47-.61-.2-.16-.44-.29-.71-.37-.28-.08-.58-.13-.91-.13-.42,0-.79.06-1.09.19s-.55.31-.74.53c-.19.23-.33.5-.42.82-.09.32-.13.66-.13,1.04h-.24c0-.9.23-1.59.67-2.08.44-.49,1.09-.74,1.96-.74.35,0,.68.05.98.14.3.09.57.23.79.41s.4.41.53.68c.13.27.2.59.2.96,0,.45-.12.86-.36,1.22s-.54.71-.91,1.03c-.36.32-.76.62-1.18.91-.42.28-.82.57-1.19.85s-.69.58-.95.88-.41.63-.44.98h5.26v.24Z"/>
          </g>
          <g class="uuid-6b24893f-b069-4f33-9280-9f608f7520e2">
            <path class="uuid-7dad3aee-a91f-4148-9a09-309c8c6605cc" d="m808.16,525h-5.5c0-.34.06-.66.22-.94.15-.28.35-.54.6-.79.25-.24.53-.48.83-.7.31-.22.61-.44.92-.65.31-.22.62-.44.91-.66.29-.22.56-.46.79-.7s.42-.5.56-.78c.14-.28.21-.57.21-.89s-.06-.6-.17-.85c-.12-.24-.27-.45-.47-.61-.2-.16-.44-.29-.71-.37-.28-.08-.58-.13-.91-.13-.42,0-.79.06-1.09.19s-.55.31-.74.53c-.19.23-.33.5-.42.82-.09.32-.13.66-.13,1.04h-.24c0-.9.23-1.59.67-2.08.44-.49,1.09-.74,1.96-.74.35,0,.68.05.98.14.3.09.57.23.79.41s.4.41.53.68c.13.27.2.59.2.96,0,.45-.12.86-.36,1.22s-.54.71-.91,1.03c-.36.32-.76.62-1.18.91-.42.28-.82.57-1.19.85s-.69.58-.95.88-.41.63-.44.98h5.26v.24Z"/>
          </g>
          <g class="uuid-6b24893f-b069-4f33-9280-9f608f7520e2">
            <path class="uuid-7dad3aee-a91f-4148-9a09-309c8c6605cc" d="m898.89,518.2c.13-.33.31-.61.56-.83s.54-.39.89-.5.73-.17,1.16-.17c.33,0,.64.04.95.11.3.07.58.19.82.35s.43.37.58.62.22.56.22.92c0,.58-.17,1.02-.5,1.34-.33.32-.75.5-1.25.55v.02c.24.02.47.08.7.17s.43.22.61.4c.18.17.32.39.43.64s.16.56.16.91c0,.38-.07.72-.22,1.02-.15.3-.35.55-.6.75s-.54.36-.88.46c-.33.1-.69.16-1.06.16-.46,0-.88-.06-1.26-.19-.38-.13-.7-.31-.96-.56-.26-.24-.46-.55-.59-.91-.13-.36-.18-.77-.15-1.24h.24c-.03.43.01.81.13,1.15.12.33.3.61.54.83.24.22.54.39.89.51.35.12.74.17,1.16.17.33,0,.64-.05.95-.14.3-.09.57-.23.8-.41.23-.18.42-.41.56-.68.14-.27.21-.58.21-.93s-.06-.65-.17-.9-.28-.45-.49-.61-.46-.28-.74-.36c-.29-.08-.59-.13-.93-.14h-.59v-.24h.59c.26,0,.53-.03.79-.09.26-.06.49-.16.7-.3.21-.14.38-.32.5-.55.13-.23.19-.51.19-.85,0-.33-.08-.6-.22-.83-.14-.22-.31-.41-.53-.55-.22-.14-.46-.24-.73-.3-.27-.06-.55-.09-.84-.09-.39,0-.75.05-1.06.15-.32.1-.59.25-.81.46s-.39.46-.51.76c-.12.3-.17.66-.16,1.07h-.24c0-.45.05-.84.18-1.17Z"/>
          </g>
          <g class="uuid-6b24893f-b069-4f33-9280-9f608f7520e2">
            <path class="uuid-eb338252-9d4a-408d-980f-cae29eb75f18" d="m898.89,518.2c.13-.33.31-.61.56-.83s.54-.39.89-.5.73-.17,1.16-.17c.33,0,.64.04.95.11.3.07.58.19.82.35s.43.37.58.62.22.56.22.92c0,.58-.17,1.02-.5,1.34-.33.32-.75.5-1.25.55v.02c.24.02.47.08.7.17s.43.22.61.4c.18.17.32.39.43.64s.16.56.16.91c0,.38-.07.72-.22,1.02-.15.3-.35.55-.6.75s-.54.36-.88.46c-.33.1-.69.16-1.06.16-.46,0-.88-.06-1.26-.19-.38-.13-.7-.31-.96-.56-.26-.24-.46-.55-.59-.91-.13-.36-.18-.77-.15-1.24h.24c-.03.43.01.81.13,1.15.12.33.3.61.54.83.24.22.54.39.89.51.35.12.74.17,1.16.17.33,0,.64-.05.95-.14.3-.09.57-.23.8-.41.23-.18.42-.41.56-.68.14-.27.21-.58.21-.93s-.06-.65-.17-.9-.28-.45-.49-.61-.46-.28-.74-.36c-.29-.08-.59-.13-.93-.14h-.59v-.24h.59c.26,0,.53-.03.79-.09.26-.06.49-.16.7-.3.21-.14.38-.32.5-.55.13-.23.19-.51.19-.85,0-.33-.08-.6-.22-.83-.14-.22-.31-.41-.53-.55-.22-.14-.46-.24-.73-.3-.27-.06-.55-.09-.84-.09-.39,0-.75.05-1.06.15-.32.1-.59.25-.81.46s-.39.46-.51.76c-.12.3-.17.66-.16,1.07h-.24c0-.45.05-.84.18-1.17Z"/>
          </g>
          <g class="uuid-6b24893f-b069-4f33-9280-9f608f7520e2">
            <path class="uuid-7dad3aee-a91f-4148-9a09-309c8c6605cc" d="m898.89,518.2c.13-.33.31-.61.56-.83s.54-.39.89-.5.73-.17,1.16-.17c.33,0,.64.04.95.11.3.07.58.19.82.35s.43.37.58.62.22.56.22.92c0,.58-.17,1.02-.5,1.34-.33.32-.75.5-1.25.55v.02c.24.02.47.08.7.17s.43.22.61.4c.18.17.32.39.43.64s.16.56.16.91c0,.38-.07.72-.22,1.02-.15.3-.35.55-.6.75s-.54.36-.88.46c-.33.1-.69.16-1.06.16-.46,0-.88-.06-1.26-.19-.38-.13-.7-.31-.96-.56-.26-.24-.46-.55-.59-.91-.13-.36-.18-.77-.15-1.24h.24c-.03.43.01.81.13,1.15.12.33.3.61.54.83.24.22.54.39.89.51.35.12.74.17,1.16.17.33,0,.64-.05.95-.14.3-.09.57-.23.8-.41.23-.18.42-.41.56-.68.14-.27.21-.58.21-.93s-.06-.65-.17-.9-.28-.45-.49-.61-.46-.28-.74-.36c-.29-.08-.59-.13-.93-.14h-.59v-.24h.59c.26,0,.53-.03.79-.09.26-.06.49-.16.7-.3.21-.14.38-.32.5-.55.13-.23.19-.51.19-.85,0-.33-.08-.6-.22-.83-.14-.22-.31-.41-.53-.55-.22-.14-.46-.24-.73-.3-.27-.06-.55-.09-.84-.09-.39,0-.75.05-1.06.15-.32.1-.59.25-.81.46s-.39.46-.51.76c-.12.3-.17.66-.16,1.07h-.24c0-.45.05-.84.18-1.17Z"/>
          </g>
          <g class="uuid-6b24893f-b069-4f33-9280-9f608f7520e2">
            <path class="uuid-7dad3aee-a91f-4148-9a09-309c8c6605cc" d="m994.41,522.59l4.08-5.75h.3v5.8h1.48v.24h-1.48v2.12h-.24v-2.12h-4.14v-.29Zm4.12-5.41l-3.88,5.46h3.9v-5.46h-.02Z"/>
          </g>
          <g class="uuid-6b24893f-b069-4f33-9280-9f608f7520e2">
            <path class="uuid-eb338252-9d4a-408d-980f-cae29eb75f18" d="m994.41,522.59l4.08-5.75h.3v5.8h1.48v.24h-1.48v2.12h-.24v-2.12h-4.14v-.29Zm4.12-5.41l-3.88,5.46h3.9v-5.46h-.02Z"/>
          </g>
          <g class="uuid-6b24893f-b069-4f33-9280-9f608f7520e2">
            <path class="uuid-7dad3aee-a91f-4148-9a09-309c8c6605cc" d="m994.41,522.59l4.08-5.75h.3v5.8h1.48v.24h-1.48v2.12h-.24v-2.12h-4.14v-.29Zm4.12-5.41l-3.88,5.46h3.9v-5.46h-.02Z"/>
          </g>
          <g class="uuid-6b24893f-b069-4f33-9280-9f608f7520e2">
            <path class="uuid-7dad3aee-a91f-4148-9a09-309c8c6605cc" d="m1091.02,520.57h.02c.23-.38.54-.66.93-.84.39-.18.82-.26,1.3-.26.42,0,.81.07,1.15.21.34.14.64.33.89.58s.44.55.58.89c.13.35.2.73.2,1.13,0,.43-.07.82-.2,1.18-.14.35-.33.65-.58.9s-.54.44-.89.57c-.34.13-.73.2-1.15.2s-.8-.06-1.16-.19c-.36-.12-.66-.3-.91-.53s-.45-.52-.58-.86c-.14-.34-.2-.73-.18-1.17h.24c-.02.4.04.76.16,1.07.12.31.29.58.52.79.23.22.51.38.83.49.33.11.69.17,1.08.17s.76-.06,1.07-.19.59-.3.81-.53c.22-.23.4-.5.52-.83.12-.32.18-.68.18-1.07s-.06-.72-.19-1.04-.3-.59-.52-.82c-.22-.23-.5-.41-.82-.53s-.67-.19-1.06-.19c-.48,0-.92.11-1.33.32-.41.21-.72.52-.95.93h-.3l.88-4.12h4.19v.24h-4l-.74,3.49Z"/>
          </g>
          <g class="uuid-6b24893f-b069-4f33-9280-9f608f7520e2">
            <path class="uuid-eb338252-9d4a-408d-980f-cae29eb75f18" d="m1091.02,520.57h.02c.23-.38.54-.66.93-.84.39-.18.82-.26,1.3-.26.42,0,.81.07,1.15.21.34.14.64.33.89.58s.44.55.58.89c.13.35.2.73.2,1.13,0,.43-.07.82-.2,1.18-.14.35-.33.65-.58.9s-.54.44-.89.57c-.34.13-.73.2-1.15.2s-.8-.06-1.16-.19c-.36-.12-.66-.3-.91-.53s-.45-.52-.58-.86c-.14-.34-.2-.73-.18-1.17h.24c-.02.4.04.76.16,1.07.12.31.29.58.52.79.23.22.51.38.83.49.33.11.69.17,1.08.17s.76-.06,1.07-.19.59-.3.81-.53c.22-.23.4-.5.52-.83.12-.32.18-.68.18-1.07s-.06-.72-.19-1.04-.3-.59-.52-.82c-.22-.23-.5-.41-.82-.53s-.67-.19-1.06-.19c-.48,0-.92.11-1.33.32-.41.21-.72.52-.95.93h-.3l.88-4.12h4.19v.24h-4l-.74,3.49Z"/>
          </g>
          <g class="uuid-6b24893f-b069-4f33-9280-9f608f7520e2">
            <path class="uuid-7dad3aee-a91f-4148-9a09-309c8c6605cc" d="m1091.02,520.57h.02c.23-.38.54-.66.93-.84.39-.18.82-.26,1.3-.26.42,0,.81.07,1.15.21.34.14.64.33.89.58s.44.55.58.89c.13.35.2.73.2,1.13,0,.43-.07.82-.2,1.18-.14.35-.33.65-.58.9s-.54.44-.89.57c-.34.13-.73.2-1.15.2s-.8-.06-1.16-.19c-.36-.12-.66-.3-.91-.53s-.45-.52-.58-.86c-.14-.34-.2-.73-.18-1.17h.24c-.02.4.04.76.16,1.07.12.31.29.58.52.79.23.22.51.38.83.49.33.11.69.17,1.08.17s.76-.06,1.07-.19.59-.3.81-.53c.22-.23.4-.5.52-.83.12-.32.18-.68.18-1.07s-.06-.72-.19-1.04-.3-.59-.52-.82c-.22-.23-.5-.41-.82-.53s-.67-.19-1.06-.19c-.48,0-.92.11-1.33.32-.41.21-.72.52-.95.93h-.3l.88-4.12h4.19v.24h-4l-.74,3.49Z"/>
          </g>
          <g class="uuid-6b24893f-b069-4f33-9280-9f608f7520e2">
            <path class="uuid-7dad3aee-a91f-4148-9a09-309c8c6605cc" d="m1191.44,517.85c-.17-.24-.37-.42-.58-.56-.21-.14-.44-.23-.67-.28-.23-.05-.45-.08-.66-.08-.61,0-1.1.15-1.48.46-.38.3-.67.69-.87,1.15-.2.46-.34.96-.4,1.5-.06.54-.09,1.04-.08,1.51h.03c.05-.29.17-.56.33-.8s.36-.47.6-.65c.24-.19.5-.33.8-.44.3-.1.61-.16.93-.16.35,0,.7.07,1.04.2s.64.33.91.58.48.54.64.89.24.73.24,1.15-.08.78-.23,1.13c-.15.34-.36.64-.62.89s-.56.44-.9.58c-.34.14-.7.21-1.07.21-.28,0-.54-.04-.79-.11-.24-.07-.47-.17-.67-.29-.2-.12-.38-.26-.53-.41s-.29-.31-.39-.47c-.23-.36-.38-.77-.44-1.23-.06-.46-.1-.95-.1-1.48s.05-1.02.14-1.55c.1-.53.26-1.01.5-1.44.24-.43.55-.78.94-1.06.39-.27.89-.41,1.49-.41.35,0,.67.05.97.16.29.11.55.25.76.44.22.18.39.4.53.65s.22.52.26.81h-.24c-.08-.37-.21-.67-.38-.91Zm.32,3.46c-.14-.31-.32-.58-.55-.82s-.5-.42-.82-.55c-.31-.14-.65-.2-1.01-.2s-.7.07-1.01.2-.58.32-.82.55c-.23.23-.42.5-.55.82-.14.31-.2.65-.2,1.01s.07.7.2,1.01c.14.31.32.58.55.82s.5.42.82.55.65.2,1.01.2.7-.07,1.01-.2c.31-.14.58-.32.82-.55.23-.23.42-.5.55-.82.14-.31.2-.65.2-1.01s-.07-.7-.2-1.01Z"/>
          </g>
          <g class="uuid-6b24893f-b069-4f33-9280-9f608f7520e2">
            <path class="uuid-eb338252-9d4a-408d-980f-cae29eb75f18" d="m1191.44,517.85c-.17-.24-.37-.42-.58-.56-.21-.14-.44-.23-.67-.28-.23-.05-.45-.08-.66-.08-.61,0-1.1.15-1.48.46-.38.3-.67.69-.87,1.15-.2.46-.34.96-.4,1.5-.06.54-.09,1.04-.08,1.51h.03c.05-.29.17-.56.33-.8s.36-.47.6-.65c.24-.19.5-.33.8-.44.3-.1.61-.16.93-.16.35,0,.7.07,1.04.2s.64.33.91.58.48.54.64.89.24.73.24,1.15-.08.78-.23,1.13c-.15.34-.36.64-.62.89s-.56.44-.9.58c-.34.14-.7.21-1.07.21-.28,0-.54-.04-.79-.11-.24-.07-.47-.17-.67-.29-.2-.12-.38-.26-.53-.41s-.29-.31-.39-.47c-.23-.36-.38-.77-.44-1.23-.06-.46-.1-.95-.1-1.48s.05-1.02.14-1.55c.1-.53.26-1.01.5-1.44.24-.43.55-.78.94-1.06.39-.27.89-.41,1.49-.41.35,0,.67.05.97.16.29.11.55.25.76.44.22.18.39.4.53.65s.22.52.26.81h-.24c-.08-.37-.21-.67-.38-.91Zm.32,3.46c-.14-.31-.32-.58-.55-.82s-.5-.42-.82-.55c-.31-.14-.65-.2-1.01-.2s-.7.07-1.01.2-.58.32-.82.55c-.23.23-.42.5-.55.82-.14.31-.2.65-.2,1.01s.07.7.2,1.01c.14.31.32.58.55.82s.5.42.82.55.65.2,1.01.2.7-.07,1.01-.2c.31-.14.58-.32.82-.55.23-.23.42-.5.55-.82.14-.31.2-.65.2-1.01s-.07-.7-.2-1.01Z"/>
          </g>
          <g class="uuid-6b24893f-b069-4f33-9280-9f608f7520e2">
            <path class="uuid-7dad3aee-a91f-4148-9a09-309c8c6605cc" d="m1191.44,517.85c-.17-.24-.37-.42-.58-.56-.21-.14-.44-.23-.67-.28-.23-.05-.45-.08-.66-.08-.61,0-1.1.15-1.48.46-.38.3-.67.69-.87,1.15-.2.46-.34.96-.4,1.5-.06.54-.09,1.04-.08,1.51h.03c.05-.29.17-.56.33-.8s.36-.47.6-.65c.24-.19.5-.33.8-.44.3-.1.61-.16.93-.16.35,0,.7.07,1.04.2s.64.33.91.58.48.54.64.89.24.73.24,1.15-.08.78-.23,1.13c-.15.34-.36.64-.62.89s-.56.44-.9.58c-.34.14-.7.21-1.07.21-.28,0-.54-.04-.79-.11-.24-.07-.47-.17-.67-.29-.2-.12-.38-.26-.53-.41s-.29-.31-.39-.47c-.23-.36-.38-.77-.44-1.23-.06-.46-.1-.95-.1-1.48s.05-1.02.14-1.55c.1-.53.26-1.01.5-1.44.24-.43.55-.78.94-1.06.39-.27.89-.41,1.49-.41.35,0,.67.05.97.16.29.11.55.25.76.44.22.18.39.4.53.65s.22.52.26.81h-.24c-.08-.37-.21-.67-.38-.91Zm.32,3.46c-.14-.31-.32-.58-.55-.82s-.5-.42-.82-.55c-.31-.14-.65-.2-1.01-.2s-.7.07-1.01.2-.58.32-.82.55c-.23.23-.42.5-.55.82-.14.31-.2.65-.2,1.01s.07.7.2,1.01c.14.31.32.58.55.82s.5.42.82.55.65.2,1.01.2.7-.07,1.01-.2c.31-.14.58-.32.82-.55.23-.23.42-.5.55-.82.14-.31.2-.65.2-1.01s-.07-.7-.2-1.01Z"/>
          </g>
          <g class="uuid-6b24893f-b069-4f33-9280-9f608f7520e2">
            <path class="uuid-7dad3aee-a91f-4148-9a09-309c8c6605cc" d="m597,990.66v.24h-6v-.24h6Z"/>
            <path class="uuid-7dad3aee-a91f-4148-9a09-309c8c6605cc" d="m598.02,989.57h.02c.23-.38.54-.66.93-.84.39-.18.82-.26,1.3-.26.42,0,.81.07,1.15.21.34.14.64.33.89.58s.44.55.58.89c.14.35.2.73.2,1.13,0,.43-.07.82-.2,1.18-.14.35-.33.65-.58.9s-.54.44-.89.57c-.34.13-.73.2-1.15.2s-.8-.06-1.16-.19c-.36-.12-.66-.3-.91-.53s-.45-.52-.58-.86c-.14-.34-.2-.73-.18-1.17h.24c-.02.4.04.76.16,1.07.12.31.29.58.52.79s.51.38.83.49c.33.11.69.17,1.08.17s.76-.06,1.07-.19c.32-.12.59-.3.81-.53.22-.23.4-.5.52-.83.12-.32.18-.68.18-1.07s-.06-.72-.19-1.04-.3-.59-.52-.82c-.22-.23-.5-.41-.82-.53-.32-.13-.67-.19-1.06-.19-.48,0-.92.11-1.33.32-.41.21-.72.52-.95.93h-.3l.88-4.12h4.19v.24h-4l-.74,3.49Z"/>
          </g>
          <g class="uuid-6b24893f-b069-4f33-9280-9f608f7520e2">
            <path class="uuid-eb338252-9d4a-408d-980f-cae29eb75f18" d="m597,990.66v.24h-6v-.24h6Z"/>
            <path class="uuid-eb338252-9d4a-408d-980f-cae29eb75f18" d="m598.02,989.57h.02c.23-.38.54-.66.93-.84.39-.18.82-.26,1.3-.26.42,0,.81.07,1.15.21.34.14.64.33.89.58s.44.55.58.89c.14.35.2.73.2,1.13,0,.43-.07.82-.2,1.18-.14.35-.33.65-.58.9s-.54.44-.89.57c-.34.13-.73.2-1.15.2s-.8-.06-1.16-.19c-.36-.12-.66-.3-.91-.53s-.45-.52-.58-.86c-.14-.34-.2-.73-.18-1.17h.24c-.02.4.04.76.16,1.07.12.31.29.58.52.79s.51.38.83.49c.33.11.69.17,1.08.17s.76-.06,1.07-.19c.32-.12.59-.3.81-.53.22-.23.4-.5.52-.83.12-.32.18-.68.18-1.07s-.06-.72-.19-1.04-.3-.59-.52-.82c-.22-.23-.5-.41-.82-.53-.32-.13-.67-.19-1.06-.19-.48,0-.92.11-1.33.32-.41.21-.72.52-.95.93h-.3l.88-4.12h4.19v.24h-4l-.74,3.49Z"/>
          </g>
          <g class="uuid-6b24893f-b069-4f33-9280-9f608f7520e2">
            <path class="uuid-7dad3aee-a91f-4148-9a09-309c8c6605cc" d="m597,990.66v.24h-6v-.24h6Z"/>
            <path class="uuid-7dad3aee-a91f-4148-9a09-309c8c6605cc" d="m598.02,989.57h.02c.23-.38.54-.66.93-.84.39-.18.82-.26,1.3-.26.42,0,.81.07,1.15.21.34.14.64.33.89.58s.44.55.58.89c.14.35.2.73.2,1.13,0,.43-.07.82-.2,1.18-.14.35-.33.65-.58.9s-.54.44-.89.57c-.34.13-.73.2-1.15.2s-.8-.06-1.16-.19c-.36-.12-.66-.3-.91-.53s-.45-.52-.58-.86c-.14-.34-.2-.73-.18-1.17h.24c-.02.4.04.76.16,1.07.12.31.29.58.52.79s.51.38.83.49c.33.11.69.17,1.08.17s.76-.06,1.07-.19c.32-.12.59-.3.81-.53.22-.23.4-.5.52-.83.12-.32.18-.68.18-1.07s-.06-.72-.19-1.04-.3-.59-.52-.82c-.22-.23-.5-.41-.82-.53-.32-.13-.67-.19-1.06-.19-.48,0-.92.11-1.33.32-.41.21-.72.52-.95.93h-.3l.88-4.12h4.19v.24h-4l-.74,3.49Z"/>
          </g>
          <g class="uuid-6b24893f-b069-4f33-9280-9f608f7520e2">
            <path class="uuid-7dad3aee-a91f-4148-9a09-309c8c6605cc" d="m597,894.66v.24h-6v-.24h6Z"/>
            <path class="uuid-7dad3aee-a91f-4148-9a09-309c8c6605cc" d="m597.41,895.59l4.08-5.75h.3v5.8h1.48v.24h-1.48v2.12h-.24v-2.12h-4.14v-.29Zm4.12-5.41l-3.88,5.46h3.9v-5.46h-.02Z"/>
          </g>
          <g class="uuid-6b24893f-b069-4f33-9280-9f608f7520e2">
            <path class="uuid-eb338252-9d4a-408d-980f-cae29eb75f18" d="m597,894.66v.24h-6v-.24h6Z"/>
            <path class="uuid-eb338252-9d4a-408d-980f-cae29eb75f18" d="m597.41,895.59l4.08-5.75h.3v5.8h1.48v.24h-1.48v2.12h-.24v-2.12h-4.14v-.29Zm4.12-5.41l-3.88,5.46h3.9v-5.46h-.02Z"/>
          </g>
          <g class="uuid-6b24893f-b069-4f33-9280-9f608f7520e2">
            <path class="uuid-7dad3aee-a91f-4148-9a09-309c8c6605cc" d="m597,894.66v.24h-6v-.24h6Z"/>
            <path class="uuid-7dad3aee-a91f-4148-9a09-309c8c6605cc" d="m597.41,895.59l4.08-5.75h.3v5.8h1.48v.24h-1.48v2.12h-.24v-2.12h-4.14v-.29Zm4.12-5.41l-3.88,5.46h3.9v-5.46h-.02Z"/>
          </g>
          <g class="uuid-6b24893f-b069-4f33-9280-9f608f7520e2">
            <path class="uuid-7dad3aee-a91f-4148-9a09-309c8c6605cc" d="m597,798.66v.24h-6v-.24h6Z"/>
            <path class="uuid-7dad3aee-a91f-4148-9a09-309c8c6605cc" d="m597.89,795.2c.13-.33.31-.61.56-.83s.54-.39.89-.5.73-.17,1.16-.17c.33,0,.64.04.95.11.3.07.58.19.82.35.24.16.43.37.58.62s.22.56.22.92c0,.58-.17,1.02-.5,1.34-.33.32-.75.5-1.25.55v.02c.24.02.47.08.7.17s.43.22.61.4c.18.17.32.39.43.64s.16.56.16.91c0,.38-.07.72-.22,1.02-.15.3-.35.55-.6.75s-.54.36-.88.46c-.33.1-.69.16-1.06.16-.46,0-.88-.06-1.26-.19s-.7-.31-.96-.56c-.26-.24-.46-.55-.59-.91-.13-.36-.18-.77-.15-1.24h.24c-.03.43.01.81.13,1.15s.3.61.54.83c.24.22.54.39.89.51.35.12.74.17,1.16.17.33,0,.64-.05.95-.14.3-.09.57-.23.8-.41.23-.18.42-.41.56-.68.14-.27.21-.58.21-.93s-.06-.65-.17-.9c-.12-.25-.28-.45-.49-.61s-.46-.28-.74-.36c-.28-.08-.59-.13-.93-.14h-.59v-.24h.59c.26,0,.53-.03.79-.09.26-.06.49-.16.7-.3.21-.14.38-.32.5-.55.13-.23.19-.51.19-.85,0-.33-.08-.6-.22-.83-.14-.22-.31-.41-.53-.55s-.46-.24-.73-.3c-.27-.06-.55-.09-.84-.09-.39,0-.75.05-1.06.15-.32.1-.59.25-.81.46-.22.2-.39.46-.51.76-.12.3-.17.66-.16,1.07h-.24c0-.45.05-.84.18-1.17Z"/>
          </g>
          <g class="uuid-6b24893f-b069-4f33-9280-9f608f7520e2">
            <path class="uuid-eb338252-9d4a-408d-980f-cae29eb75f18" d="m597,798.66v.24h-6v-.24h6Z"/>
            <path class="uuid-eb338252-9d4a-408d-980f-cae29eb75f18" d="m597.89,795.2c.13-.33.31-.61.56-.83s.54-.39.89-.5.73-.17,1.16-.17c.33,0,.64.04.95.11.3.07.58.19.82.35.24.16.43.37.58.62s.22.56.22.92c0,.58-.17,1.02-.5,1.34-.33.32-.75.5-1.25.55v.02c.24.02.47.08.7.17s.43.22.61.4c.18.17.32.39.43.64s.16.56.16.91c0,.38-.07.72-.22,1.02-.15.3-.35.55-.6.75s-.54.36-.88.46c-.33.1-.69.16-1.06.16-.46,0-.88-.06-1.26-.19s-.7-.31-.96-.56c-.26-.24-.46-.55-.59-.91-.13-.36-.18-.77-.15-1.24h.24c-.03.43.01.81.13,1.15s.3.61.54.83c.24.22.54.39.89.51.35.12.74.17,1.16.17.33,0,.64-.05.95-.14.3-.09.57-.23.8-.41.23-.18.42-.41.56-.68.14-.27.21-.58.21-.93s-.06-.65-.17-.9c-.12-.25-.28-.45-.49-.61s-.46-.28-.74-.36c-.28-.08-.59-.13-.93-.14h-.59v-.24h.59c.26,0,.53-.03.79-.09.26-.06.49-.16.7-.3.21-.14.38-.32.5-.55.13-.23.19-.51.19-.85,0-.33-.08-.6-.22-.83-.14-.22-.31-.41-.53-.55s-.46-.24-.73-.3c-.27-.06-.55-.09-.84-.09-.39,0-.75.05-1.06.15-.32.1-.59.25-.81.46-.22.2-.39.46-.51.76-.12.3-.17.66-.16,1.07h-.24c0-.45.05-.84.18-1.17Z"/>
          </g>
          <g class="uuid-6b24893f-b069-4f33-9280-9f608f7520e2">
            <path class="uuid-7dad3aee-a91f-4148-9a09-309c8c6605cc" d="m597,798.66v.24h-6v-.24h6Z"/>
            <path class="uuid-7dad3aee-a91f-4148-9a09-309c8c6605cc" d="m597.89,795.2c.13-.33.31-.61.56-.83s.54-.39.89-.5.73-.17,1.16-.17c.33,0,.64.04.95.11.3.07.58.19.82.35.24.16.43.37.58.62s.22.56.22.92c0,.58-.17,1.02-.5,1.34-.33.32-.75.5-1.25.55v.02c.24.02.47.08.7.17s.43.22.61.4c.18.17.32.39.43.64s.16.56.16.91c0,.38-.07.72-.22,1.02-.15.3-.35.55-.6.75s-.54.36-.88.46c-.33.1-.69.16-1.06.16-.46,0-.88-.06-1.26-.19s-.7-.31-.96-.56c-.26-.24-.46-.55-.59-.91-.13-.36-.18-.77-.15-1.24h.24c-.03.43.01.81.13,1.15s.3.61.54.83c.24.22.54.39.89.51.35.12.74.17,1.16.17.33,0,.64-.05.95-.14.3-.09.57-.23.8-.41.23-.18.42-.41.56-.68.14-.27.21-.58.21-.93s-.06-.65-.17-.9c-.12-.25-.28-.45-.49-.61s-.46-.28-.74-.36c-.28-.08-.59-.13-.93-.14h-.59v-.24h.59c.26,0,.53-.03.79-.09.26-.06.49-.16.7-.3.21-.14.38-.32.5-.55.13-.23.19-.51.19-.85,0-.33-.08-.6-.22-.83-.14-.22-.31-.41-.53-.55s-.46-.24-.73-.3c-.27-.06-.55-.09-.84-.09-.39,0-.75.05-1.06.15-.32.1-.59.25-.81.46-.22.2-.39.46-.51.76-.12.3-.17.66-.16,1.07h-.24c0-.45.05-.84.18-1.17Z"/>
          </g>
          <g class="uuid-6b24893f-b069-4f33-9280-9f608f7520e2">
            <path class="uuid-7dad3aee-a91f-4148-9a09-309c8c6605cc" d="m597,702.66v.24h-6v-.24h6Z"/>
            <path class="uuid-7dad3aee-a91f-4148-9a09-309c8c6605cc" d="m603.16,706h-5.5c0-.34.06-.66.22-.94.15-.28.35-.54.6-.79.25-.24.53-.48.83-.7.31-.22.61-.44.92-.65.31-.22.62-.44.91-.66.3-.22.56-.46.79-.7.23-.24.42-.5.56-.78.14-.28.21-.57.21-.89s-.06-.6-.17-.85c-.12-.24-.27-.45-.47-.61-.2-.16-.44-.29-.71-.37-.28-.08-.58-.13-.91-.13-.42,0-.79.06-1.09.19s-.55.31-.74.53c-.19.23-.33.5-.42.82-.09.32-.13.66-.13,1.04h-.24c0-.9.23-1.59.67-2.08.44-.49,1.09-.74,1.96-.74.35,0,.68.05.98.14.3.09.57.23.79.41.22.18.4.41.53.68.13.27.2.59.2.96,0,.45-.12.86-.36,1.22-.24.37-.54.71-.91,1.03-.36.32-.76.62-1.18.91-.42.28-.82.57-1.19.85s-.69.58-.95.88c-.26.3-.41.63-.44.98h5.26v.24Z"/>
          </g>
          <g class="uuid-6b24893f-b069-4f33-9280-9f608f7520e2">
            <path class="uuid-eb338252-9d4a-408d-980f-cae29eb75f18" d="m597,702.66v.24h-6v-.24h6Z"/>
            <path class="uuid-eb338252-9d4a-408d-980f-cae29eb75f18" d="m603.16,706h-5.5c0-.34.06-.66.22-.94.15-.28.35-.54.6-.79.25-.24.53-.48.83-.7.31-.22.61-.44.92-.65.31-.22.62-.44.91-.66.3-.22.56-.46.79-.7.23-.24.42-.5.56-.78.14-.28.21-.57.21-.89s-.06-.6-.17-.85c-.12-.24-.27-.45-.47-.61-.2-.16-.44-.29-.71-.37-.28-.08-.58-.13-.91-.13-.42,0-.79.06-1.09.19s-.55.31-.74.53c-.19.23-.33.5-.42.82-.09.32-.13.66-.13,1.04h-.24c0-.9.23-1.59.67-2.08.44-.49,1.09-.74,1.96-.74.35,0,.68.05.98.14.3.09.57.23.79.41.22.18.4.41.53.68.13.27.2.59.2.96,0,.45-.12.86-.36,1.22-.24.37-.54.71-.91,1.03-.36.32-.76.62-1.18.91-.42.28-.82.57-1.19.85s-.69.58-.95.88c-.26.3-.41.63-.44.98h5.26v.24Z"/>
          </g>
          <g class="uuid-6b24893f-b069-4f33-9280-9f608f7520e2">
            <path class="uuid-7dad3aee-a91f-4148-9a09-309c8c6605cc" d="m597,702.66v.24h-6v-.24h6Z"/>
            <path class="uuid-7dad3aee-a91f-4148-9a09-309c8c6605cc" d="m603.16,706h-5.5c0-.34.06-.66.22-.94.15-.28.35-.54.6-.79.25-.24.53-.48.83-.7.31-.22.61-.44.92-.65.31-.22.62-.44.91-.66.3-.22.56-.46.79-.7.23-.24.42-.5.56-.78.14-.28.21-.57.21-.89s-.06-.6-.17-.85c-.12-.24-.27-.45-.47-.61-.2-.16-.44-.29-.71-.37-.28-.08-.58-.13-.91-.13-.42,0-.79.06-1.09.19s-.55.31-.74.53c-.19.23-.33.5-.42.82-.09.32-.13.66-.13,1.04h-.24c0-.9.23-1.59.67-2.08.44-.49,1.09-.74,1.96-.74.35,0,.68.05.98.14.3.09.57.23.79.41.22.18.4.41.53.68.13.27.2.59.2.96,0,.45-.12.86-.36,1.22-.24.37-.54.71-.91,1.03-.36.32-.76.62-1.18.91-.42.28-.82.57-1.19.85s-.69.58-.95.88c-.26.3-.41.63-.44.98h5.26v.24Z"/>
          </g>
          <g class="uuid-6b24893f-b069-4f33-9280-9f608f7520e2">
            <path class="uuid-7dad3aee-a91f-4148-9a09-309c8c6605cc" d="m597,606.66v.24h-6v-.24h6Z"/>
            <path class="uuid-7dad3aee-a91f-4148-9a09-309c8c6605cc" d="m600.55,602.15c-.25.34-.57.64-.97.89s-.8.43-1.21.55v-.24c.25-.08.47-.17.66-.26s.37-.2.54-.32.33-.26.49-.41c.16-.15.32-.32.49-.52h.26v8.16h-.24v-7.85h-.02Z"/>
          </g>
          <g class="uuid-6b24893f-b069-4f33-9280-9f608f7520e2">
            <path class="uuid-eb338252-9d4a-408d-980f-cae29eb75f18" d="m597,606.66v.24h-6v-.24h6Z"/>
            <path class="uuid-eb338252-9d4a-408d-980f-cae29eb75f18" d="m600.55,602.15c-.25.34-.57.64-.97.89s-.8.43-1.21.55v-.24c.25-.08.47-.17.66-.26s.37-.2.54-.32.33-.26.49-.41c.16-.15.32-.32.49-.52h.26v8.16h-.24v-7.85h-.02Z"/>
          </g>
          <g class="uuid-6b24893f-b069-4f33-9280-9f608f7520e2">
            <path class="uuid-7dad3aee-a91f-4148-9a09-309c8c6605cc" d="m597,606.66v.24h-6v-.24h6Z"/>
            <path class="uuid-7dad3aee-a91f-4148-9a09-309c8c6605cc" d="m600.55,602.15c-.25.34-.57.64-.97.89s-.8.43-1.21.55v-.24c.25-.08.47-.17.66-.26s.37-.2.54-.32.33-.26.49-.41c.16-.15.32-.32.49-.52h.26v8.16h-.24v-7.85h-.02Z"/>
          </g>
          <g class="uuid-6b24893f-b069-4f33-9280-9f608f7520e2">
            <path class="uuid-7dad3aee-a91f-4148-9a09-309c8c6605cc" d="m600.55,410.15c-.25.34-.57.64-.97.89s-.8.43-1.21.55v-.24c.25-.08.47-.17.66-.26s.37-.2.54-.32.33-.26.49-.41c.16-.15.32-.32.49-.52h.26v8.16h-.24v-7.85h-.02Z"/>
          </g>
          <g class="uuid-6b24893f-b069-4f33-9280-9f608f7520e2">
            <path class="uuid-eb338252-9d4a-408d-980f-cae29eb75f18" d="m600.55,410.15c-.25.34-.57.64-.97.89s-.8.43-1.21.55v-.24c.25-.08.47-.17.66-.26s.37-.2.54-.32.33-.26.49-.41c.16-.15.32-.32.49-.52h.26v8.16h-.24v-7.85h-.02Z"/>
          </g>
          <g class="uuid-6b24893f-b069-4f33-9280-9f608f7520e2">
            <path class="uuid-7dad3aee-a91f-4148-9a09-309c8c6605cc" d="m600.55,410.15c-.25.34-.57.64-.97.89s-.8.43-1.21.55v-.24c.25-.08.47-.17.66-.26s.37-.2.54-.32.33-.26.49-.41c.16-.15.32-.32.49-.52h.26v8.16h-.24v-7.85h-.02Z"/>
          </g>
          <g class="uuid-6b24893f-b069-4f33-9280-9f608f7520e2">
            <path class="uuid-7dad3aee-a91f-4148-9a09-309c8c6605cc" d="m603.16,322h-5.5c0-.34.06-.66.22-.94.15-.28.35-.54.6-.79.25-.24.53-.48.83-.7.31-.22.61-.44.92-.65.31-.22.62-.44.91-.66.3-.22.56-.46.79-.7.23-.24.42-.5.56-.78.14-.28.21-.57.21-.89s-.06-.6-.17-.85c-.12-.24-.27-.45-.47-.61-.2-.16-.44-.29-.71-.37-.28-.08-.58-.13-.91-.13-.42,0-.79.06-1.09.19s-.55.31-.74.53c-.19.23-.33.5-.42.82-.09.32-.13.66-.13,1.04h-.24c0-.9.23-1.59.67-2.08.44-.49,1.09-.74,1.96-.74.35,0,.68.05.98.14.3.09.57.23.79.41.22.18.4.41.53.68.13.27.2.59.2.96,0,.45-.12.86-.36,1.22-.24.37-.54.71-.91,1.03-.36.32-.76.62-1.18.91-.42.28-.82.57-1.19.85s-.69.58-.95.88c-.26.3-.41.63-.44.98h5.26v.24Z"/>
          </g>
          <g class="uuid-6b24893f-b069-4f33-9280-9f608f7520e2">
            <path class="uuid-eb338252-9d4a-408d-980f-cae29eb75f18" d="m603.16,322h-5.5c0-.34.06-.66.22-.94.15-.28.35-.54.6-.79.25-.24.53-.48.83-.7.31-.22.61-.44.92-.65.31-.22.62-.44.91-.66.3-.22.56-.46.79-.7.23-.24.42-.5.56-.78.14-.28.21-.57.21-.89s-.06-.6-.17-.85c-.12-.24-.27-.45-.47-.61-.2-.16-.44-.29-.71-.37-.28-.08-.58-.13-.91-.13-.42,0-.79.06-1.09.19s-.55.31-.74.53c-.19.23-.33.5-.42.82-.09.32-.13.66-.13,1.04h-.24c0-.9.23-1.59.67-2.08.44-.49,1.09-.74,1.96-.74.35,0,.68.05.98.14.3.09.57.23.79.41.22.18.4.41.53.68.13.27.2.59.2.96,0,.45-.12.86-.36,1.22-.24.37-.54.71-.91,1.03-.36.32-.76.62-1.18.91-.42.28-.82.57-1.19.85s-.69.58-.95.88c-.26.3-.41.63-.44.98h5.26v.24Z"/>
          </g>
          <g class="uuid-6b24893f-b069-4f33-9280-9f608f7520e2">
            <path class="uuid-7dad3aee-a91f-4148-9a09-309c8c6605cc" d="m603.16,322h-5.5c0-.34.06-.66.22-.94.15-.28.35-.54.6-.79.25-.24.53-.48.83-.7.31-.22.61-.44.92-.65.31-.22.62-.44.91-.66.3-.22.56-.46.79-.7.23-.24.42-.5.56-.78.14-.28.21-.57.21-.89s-.06-.6-.17-.85c-.12-.24-.27-.45-.47-.61-.2-.16-.44-.29-.71-.37-.28-.08-.58-.13-.91-.13-.42,0-.79.06-1.09.19s-.55.31-.74.53c-.19.23-.33.5-.42.82-.09.32-.13.66-.13,1.04h-.24c0-.9.23-1.59.67-2.08.44-.49,1.09-.74,1.96-.74.35,0,.68.05.98.14.3.09.57.23.79.41.22.18.4.41.53.68.13.27.2.59.2.96,0,.45-.12.86-.36,1.22-.24.37-.54.71-.91,1.03-.36.32-.76.62-1.18.91-.42.28-.82.57-1.19.85s-.69.58-.95.88c-.26.3-.41.63-.44.98h5.26v.24Z"/>
          </g>
          <g class="uuid-6b24893f-b069-4f33-9280-9f608f7520e2">
            <path class="uuid-7dad3aee-a91f-4148-9a09-309c8c6605cc" d="m597.89,219.2c.13-.33.31-.61.56-.83s.54-.39.89-.5.73-.17,1.16-.17c.33,0,.64.04.95.11.3.07.58.19.82.35.24.16.43.37.58.62s.22.56.22.92c0,.58-.17,1.02-.5,1.34-.33.32-.75.5-1.25.55v.02c.24.02.47.08.7.17s.43.22.61.4c.18.17.32.39.43.64s.16.56.16.91c0,.38-.07.72-.22,1.02-.15.3-.35.55-.6.75s-.54.36-.88.46c-.33.1-.69.16-1.06.16-.46,0-.88-.06-1.26-.19s-.7-.31-.96-.56c-.26-.24-.46-.55-.59-.91-.13-.36-.18-.77-.15-1.24h.24c-.03.43.01.81.13,1.15s.3.61.54.83c.24.22.54.39.89.51.35.12.74.17,1.16.17.33,0,.64-.05.95-.14.3-.09.57-.23.8-.41.23-.18.42-.41.56-.68.14-.27.21-.58.21-.93s-.06-.65-.17-.9c-.12-.25-.28-.45-.49-.61s-.46-.28-.74-.36c-.28-.08-.59-.13-.93-.14h-.59v-.24h.59c.26,0,.53-.03.79-.09.26-.06.49-.16.7-.3.21-.14.38-.32.5-.55.13-.23.19-.51.19-.85,0-.33-.08-.6-.22-.83-.14-.22-.31-.41-.53-.55s-.46-.24-.73-.3c-.27-.06-.55-.09-.84-.09-.39,0-.75.05-1.06.15-.32.1-.59.25-.81.46-.22.2-.39.46-.51.76-.12.3-.17.66-.16,1.07h-.24c0-.45.05-.84.18-1.17Z"/>
          </g>
          <g class="uuid-6b24893f-b069-4f33-9280-9f608f7520e2">
            <path class="uuid-eb338252-9d4a-408d-980f-cae29eb75f18" d="m597.89,219.2c.13-.33.31-.61.56-.83s.54-.39.89-.5.73-.17,1.16-.17c.33,0,.64.04.95.11.3.07.58.19.82.35.24.16.43.37.58.62s.22.56.22.92c0,.58-.17,1.02-.5,1.34-.33.32-.75.5-1.25.55v.02c.24.02.47.08.7.17s.43.22.61.4c.18.17.32.39.43.64s.16.56.16.91c0,.38-.07.72-.22,1.02-.15.3-.35.55-.6.75s-.54.36-.88.46c-.33.1-.69.16-1.06.16-.46,0-.88-.06-1.26-.19s-.7-.31-.96-.56c-.26-.24-.46-.55-.59-.91-.13-.36-.18-.77-.15-1.24h.24c-.03.43.01.81.13,1.15s.3.61.54.83c.24.22.54.39.89.51.35.12.74.17,1.16.17.33,0,.64-.05.95-.14.3-.09.57-.23.8-.41.23-.18.42-.41.56-.68.14-.27.21-.58.21-.93s-.06-.65-.17-.9c-.12-.25-.28-.45-.49-.61s-.46-.28-.74-.36c-.28-.08-.59-.13-.93-.14h-.59v-.24h.59c.26,0,.53-.03.79-.09.26-.06.49-.16.7-.3.21-.14.38-.32.5-.55.13-.23.19-.51.19-.85,0-.33-.08-.6-.22-.83-.14-.22-.31-.41-.53-.55s-.46-.24-.73-.3c-.27-.06-.55-.09-.84-.09-.39,0-.75.05-1.06.15-.32.1-.59.25-.81.46-.22.2-.39.46-.51.76-.12.3-.17.66-.16,1.07h-.24c0-.45.05-.84.18-1.17Z"/>
          </g>
          <g class="uuid-6b24893f-b069-4f33-9280-9f608f7520e2">
            <path class="uuid-7dad3aee-a91f-4148-9a09-309c8c6605cc" d="m597.89,219.2c.13-.33.31-.61.56-.83s.54-.39.89-.5.73-.17,1.16-.17c.33,0,.64.04.95.11.3.07.58.19.82.35.24.16.43.37.58.62s.22.56.22.92c0,.58-.17,1.02-.5,1.34-.33.32-.75.5-1.25.55v.02c.24.02.47.08.7.17s.43.22.61.4c.18.17.32.39.43.64s.16.56.16.91c0,.38-.07.72-.22,1.02-.15.3-.35.55-.6.75s-.54.36-.88.46c-.33.1-.69.16-1.06.16-.46,0-.88-.06-1.26-.19s-.7-.31-.96-.56c-.26-.24-.46-.55-.59-.91-.13-.36-.18-.77-.15-1.24h.24c-.03.43.01.81.13,1.15s.3.61.54.83c.24.22.54.39.89.51.35.12.74.17,1.16.17.33,0,.64-.05.95-.14.3-.09.57-.23.8-.41.23-.18.42-.41.56-.68.14-.27.21-.58.21-.93s-.06-.65-.17-.9c-.12-.25-.28-.45-.49-.61s-.46-.28-.74-.36c-.28-.08-.59-.13-.93-.14h-.59v-.24h.59c.26,0,.53-.03.79-.09.26-.06.49-.16.7-.3.21-.14.38-.32.5-.55.13-.23.19-.51.19-.85,0-.33-.08-.6-.22-.83-.14-.22-.31-.41-.53-.55s-.46-.24-.73-.3c-.27-.06-.55-.09-.84-.09-.39,0-.75.05-1.06.15-.32.1-.59.25-.81.46-.22.2-.39.46-.51.76-.12.3-.17.66-.16,1.07h-.24c0-.45.05-.84.18-1.17Z"/>
          </g>
          <g class="uuid-6b24893f-b069-4f33-9280-9f608f7520e2">
            <path class="uuid-7dad3aee-a91f-4148-9a09-309c8c6605cc" d="m597.41,127.59l4.08-5.75h.3v5.8h1.48v.24h-1.48v2.12h-.24v-2.12h-4.14v-.29Zm4.12-5.41l-3.88,5.46h3.9v-5.46h-.02Z"/>
          </g>
          <g class="uuid-6b24893f-b069-4f33-9280-9f608f7520e2">
            <path class="uuid-eb338252-9d4a-408d-980f-cae29eb75f18" d="m597.41,127.59l4.08-5.75h.3v5.8h1.48v.24h-1.48v2.12h-.24v-2.12h-4.14v-.29Zm4.12-5.41l-3.88,5.46h3.9v-5.46h-.02Z"/>
          </g>
          <g class="uuid-6b24893f-b069-4f33-9280-9f608f7520e2">
            <path class="uuid-7dad3aee-a91f-4148-9a09-309c8c6605cc" d="m597.41,127.59l4.08-5.75h.3v5.8h1.48v.24h-1.48v2.12h-.24v-2.12h-4.14v-.29Zm4.12-5.41l-3.88,5.46h3.9v-5.46h-.02Z"/>
          </g>
          <g class="uuid-6b24893f-b069-4f33-9280-9f608f7520e2">
            <path class="uuid-7dad3aee-a91f-4148-9a09-309c8c6605cc" d="m598.02,29.57h.02c.23-.38.54-.66.93-.84.39-.18.82-.26,1.3-.26.42,0,.81.07,1.15.21.34.14.64.33.89.58s.44.55.58.89c.14.35.2.73.2,1.13,0,.43-.07.82-.2,1.18-.14.35-.33.65-.58.9s-.54.44-.89.57c-.34.13-.73.2-1.15.2s-.8-.06-1.16-.19c-.36-.12-.66-.3-.91-.53s-.45-.52-.58-.86c-.14-.34-.2-.73-.18-1.17h.24c-.02.4.04.76.16,1.07.12.31.29.58.52.79s.51.38.83.49c.33.11.69.17,1.08.17s.76-.06,1.07-.19c.32-.12.59-.3.81-.53.22-.23.4-.5.52-.83.12-.32.18-.68.18-1.07s-.06-.72-.19-1.04-.3-.59-.52-.82c-.22-.23-.5-.41-.82-.53-.32-.13-.67-.19-1.06-.19-.48,0-.92.11-1.33.32-.41.21-.72.52-.95.93h-.3l.88-4.12h4.19v.24h-4l-.74,3.49Z"/>
          </g>
          <g class="uuid-6b24893f-b069-4f33-9280-9f608f7520e2">
            <path class="uuid-eb338252-9d4a-408d-980f-cae29eb75f18" d="m598.02,29.57h.02c.23-.38.54-.66.93-.84.39-.18.82-.26,1.3-.26.42,0,.81.07,1.15.21.34.14.64.33.89.58s.44.55.58.89c.14.35.2.73.2,1.13,0,.43-.07.82-.2,1.18-.14.35-.33.65-.58.9s-.54.44-.89.57c-.34.13-.73.2-1.15.2s-.8-.06-1.16-.19c-.36-.12-.66-.3-.91-.53s-.45-.52-.58-.86c-.14-.34-.2-.73-.18-1.17h.24c-.02.4.04.76.16,1.07.12.31.29.58.52.79s.51.38.83.49c.33.11.69.17,1.08.17s.76-.06,1.07-.19c.32-.12.59-.3.81-.53.22-.23.4-.5.52-.83.12-.32.18-.68.18-1.07s-.06-.72-.19-1.04-.3-.59-.52-.82c-.22-.23-.5-.41-.82-.53-.32-.13-.67-.19-1.06-.19-.48,0-.92.11-1.33.32-.41.21-.72.52-.95.93h-.3l.88-4.12h4.19v.24h-4l-.74,3.49Z"/>
          </g>
          <g class="uuid-6b24893f-b069-4f33-9280-9f608f7520e2">
            <path class="uuid-7dad3aee-a91f-4148-9a09-309c8c6605cc" d="m598.02,29.57h.02c.23-.38.54-.66.93-.84.39-.18.82-.26,1.3-.26.42,0,.81.07,1.15.21.34.14.64.33.89.58s.44.55.58.89c.14.35.2.73.2,1.13,0,.43-.07.82-.2,1.18-.14.35-.33.65-.58.9s-.54.44-.89.57c-.34.13-.73.2-1.15.2s-.8-.06-1.16-.19c-.36-.12-.66-.3-.91-.53s-.45-.52-.58-.86c-.14-.34-.2-.73-.18-1.17h.24c-.02.4.04.76.16,1.07.12.31.29.58.52.79s.51.38.83.49c.33.11.69.17,1.08.17s.76-.06,1.07-.19c.32-.12.59-.3.81-.53.22-.23.4-.5.52-.83.12-.32.18-.68.18-1.07s-.06-.72-.19-1.04-.3-.59-.52-.82c-.22-.23-.5-.41-.82-.53-.32-.13-.67-.19-1.06-.19-.48,0-.92.11-1.33.32-.41.21-.72.52-.95.93h-.3l.88-4.12h4.19v.24h-4l-.74,3.49Z"/>
          </g>
          <g class="uuid-6b24893f-b069-4f33-9280-9f608f7520e2">
            <path class="uuid-7dad3aee-a91f-4148-9a09-309c8c6605cc" d="m603.27,522.44c-.1.5-.27.96-.51,1.36-.24.4-.56.72-.95.97-.39.24-.88.37-1.48.37s-1.07-.12-1.47-.37c-.4-.24-.71-.57-.95-.97-.24-.4-.41-.85-.51-1.36s-.15-1.01-.15-1.52.05-1.02.15-1.52c.1-.5.27-.96.51-1.36.24-.4.56-.72.95-.97s.89-.37,1.47-.37,1.08.12,1.48.37.71.57.95.97c.24.4.41.85.51,1.36.1.5.15,1.01.15,1.52s-.05,1.02-.15,1.52Zm-.22-2.92c-.09-.47-.24-.9-.46-1.28-.22-.38-.51-.7-.87-.94-.36-.24-.83-.37-1.39-.37s-1.02.12-1.39.37c-.36.24-.65.56-.87.94-.22.38-.37.81-.46,1.28-.09.47-.13.94-.13,1.39s.04.92.13,1.39c.09.47.24.9.46,1.28.22.38.51.7.87.94.36.24.83.37,1.39.37s1.02-.12,1.39-.37c.36-.24.65-.56.87-.94.22-.38.37-.81.46-1.28.09-.47.13-.94.13-1.39s-.04-.92-.13-1.39Z"/>
          </g>
          <g class="uuid-6b24893f-b069-4f33-9280-9f608f7520e2">
            <path class="uuid-eb338252-9d4a-408d-980f-cae29eb75f18" d="m603.27,522.44c-.1.5-.27.96-.51,1.36-.24.4-.56.72-.95.97-.39.24-.88.37-1.48.37s-1.07-.12-1.47-.37c-.4-.24-.71-.57-.95-.97-.24-.4-.41-.85-.51-1.36s-.15-1.01-.15-1.52.05-1.02.15-1.52c.1-.5.27-.96.51-1.36.24-.4.56-.72.95-.97s.89-.37,1.47-.37,1.08.12,1.48.37.71.57.95.97c.24.4.41.85.51,1.36.1.5.15,1.01.15,1.52s-.05,1.02-.15,1.52Zm-.22-2.92c-.09-.47-.24-.9-.46-1.28-.22-.38-.51-.7-.87-.94-.36-.24-.83-.37-1.39-.37s-1.02.12-1.39.37c-.36.24-.65.56-.87.94-.22.38-.37.81-.46,1.28-.09.47-.13.94-.13,1.39s.04.92.13,1.39c.09.47.24.9.46,1.28.22.38.51.7.87.94.36.24.83.37,1.39.37s1.02-.12,1.39-.37c.36-.24.65-.56.87-.94.22-.38.37-.81.46-1.28.09-.47.13-.94.13-1.39s-.04-.92-.13-1.39Z"/>
          </g>
          <g class="uuid-6b24893f-b069-4f33-9280-9f608f7520e2">
            <path class="uuid-7dad3aee-a91f-4148-9a09-309c8c6605cc" d="m603.27,522.44c-.1.5-.27.96-.51,1.36-.24.4-.56.72-.95.97-.39.24-.88.37-1.48.37s-1.07-.12-1.47-.37c-.4-.24-.71-.57-.95-.97-.24-.4-.41-.85-.51-1.36s-.15-1.01-.15-1.52.05-1.02.15-1.52c.1-.5.27-.96.51-1.36.24-.4.56-.72.95-.97s.89-.37,1.47-.37,1.08.12,1.48.37.71.57.95.97c.24.4.41.85.51,1.36.1.5.15,1.01.15,1.52s-.05,1.02-.15,1.52Zm-.22-2.92c-.09-.47-.24-.9-.46-1.28-.22-.38-.51-.7-.87-.94-.36-.24-.83-.37-1.39-.37s-1.02.12-1.39.37c-.36.24-.65.56-.87.94-.22.38-.37.81-.46,1.28-.09.47-.13.94-.13,1.39s.04.92.13,1.39c.09.47.24.9.46,1.28.22.38.51.7.87.94.36.24.83.37,1.39.37s1.02-.12,1.39-.37c.36-.24.65-.56.87-.94.22-.38.37-.81.46-1.28.09-.47.13-.94.13-1.39s-.04-.92-.13-1.39Z"/>
          </g>
          <path class="uuid-5be14f69-194d-49ac-b9e4-58a04e697e72" d="m582.6,1030h-112.3l.2-2.4h0l1-12.9h0l1-12.8h0l1-12.6h0l1-12.4h0l1-12.2h0l1-12h0l1-11.9h0l1-11.7h0l1-11.5h0l1-11.3h0l1-11.2h0l1-11h0l1-10.8h0l1-10.7h0l1-10.5h0l1-10.3h0l1-10.2h0l1-10h0l1-9.8h0l1-9.7h0l1-9.5h0l1-9.4h0l1-9.2h0l1-9.1h0l1-8.9h0l1-8.8h0l1-8.6h0l1-8.5h0l1-8.3h0l1-8.2h0l1-8h0l1-7.9h0l1-7.7h0l1-7.6h0l1-7.4h0l1-7.3h0l1-7.2h0l1-7h0l1-6.9h0l1-6.8h0l1-6.6h0l1-6.5h0l1-6.4h0l1-6.2h0l1-6.1h0l1-6h0l1-5.9h0l1-5.7h0l1-5.6h0l1-5.5h0l1-5.4h0l1-5.3h0l1-5.2h0l1-5h0l1-4.9h0l1-4.8h0l1-4.7h0l1-4.6h0l1-4.5h0l1-4.4h0l1-4.3h0l1-4.2h0l1-4.1h0l1-4h0l1-3.9h0l1-3.8h0l1-3.7h0l1-3.6h0l1-3.5h0l1-3.4h0l1-3.3h0l1-3.2h0l1-3.1h0l1-3h0l1-2.9h0l1-2.8h0l1-2.7h0l1-2.7h0l1-2.6h0l1-2.5h0l1-2.4h0l1-2.3h0l1-2.3h0l1-2.2h0l1-2.1h0l1-2h0l1-2h0l1-1.9h0l1-1.8h0l1-1.8h0l1-1.7h0l1-1.6h0l1-1.6h0l1-1.5h0l1-1.4h0l1-1.4h0l1-1.3h0l1-1.3h0l1-1.2h0l1-1.1h0l1-1.1h0l1-1h0l1-1h0l1-.9h0l1-.9h0l1-.8h0l1-.8h0l1-.8h0l1-.7h0l1-.7h0l1-.6h0l1-.6h0l1-.5h0l1-.5h0l1-.5h0l1-.4h0l1-.4h0l1-.4h0l1-.3h0l1-.3h0l1-.3h0l1-.3h0l1-.2h0l1-.2h0l1-.2h0l1-.2h0l1-.1h0l1-.1h0l1-.1h0l1-.1h0l1-.1h0l1-.1h0l1-.1h17l1-.1h0l1-.1h0l1-.1h0l1-.1h0l1-.1h0l1-.1h0l1-.1h0l1-.2h0l1-.2h0l1-.2h0l1-.2h0l1-.3h0l1-.3h0l1-.3h0l1-.3h0l1-.4h0l1-.4h0l1-.4h0l1-.5h0l1-.5h0l1-.5h0l1-.6h0l1-.6h0l1-.7h0l1-.7h0l1-.8h0l1-.8h0l1-.8h0l1-.9h0l1-.9h0l1-1h0l1-1h0l1-1.1h0l1-1.1h0l1-1.2h0l1-1.3h0l1-1.3h0l1-1.4h0l1-1.4h0l1-1.5h0l1-1.6h0l1-1.6h0l1-1.7h0l1-1.8h0l1-1.8h0l1-1.9h0l1-2h0l1-2h0l1-2.1h0l1-2.2h0l1-2.3h0l1-2.3h0l1-2.4h0l1-2.5h0l1-2.6h0l1-2.7h0l1-2.8h0l1-2.8h0l1-2.9h0l1-3h0l1-3.1h0l1-3.2h0l1-3.3h0l1-3.4h0l1-3.5h0l1-3.6h0l1-3.7h0l1-3.8h0l1-3.9h0l1-4h0l1-4.1h0l1-4.2h0l1-4.3h0l1-4.4h0l1-4.5h0l1-4.6h0l1-4.7h0l1-4.8h0l1-4.9h0l1-5h0l1-5.2h0l1-5.3h0l1-5.4h0l1-5.5h0l1-5.6h0l1-5.8h0l1-5.9h0l1-6h0l1-6.1h0l1-6.3h0l1-6.4h0l1-6.5h0l1-6.6h0l1-6.8h0l1-6.9h0l1-7h0l1-7.2h0l1-7.3h0l1-7.5h0l1-7.6h0l1-7.7h0l1-7.9h0l1-8h0l1-8.2h0l1-8.3h0l1-8.5h0l1-8.6h0l1-8.8h0l1-8.9h0l1-9.1h0l1-9.2h0l1-9.4h0l1-9.5h0l1-9.7h0l1-9.8h0l1-10h0l.4-4.4"/>
          <path class="uuid-1cec4539-1bd9-4fbc-ab03-fe8909b11721" d="m.5,657.6h0l1-.1h0l1-.1h0l1-.1h0l1-.1h0l1-.1h0l1-.1h0l1-.1h0l1-.1h0l1-.1h0l1-.1h0l1-.1h0l1-.1h0l1-.1h0l1-.1h0l1-.1h0l1-.1h0l1-.1h0l1-.1h0l1-.1h0l1-.1h0l1-.1h0l1-.1h0l1-.1h0l1-.1h0l1-.1h0l1-.1h0l1-.1h0l1-.1h0l1-.1h0l1-.1h0l1-.1h0l1-.1h0l1-.1h0l1-.1h0l1-.1h0l1-.1h0l1-.1h0l1-.1h0l1-.1h0l1-.1h0l1-.1h0l1-.1h0l1-.1h0l1-.1h0l1-.1h0l1-.1h0l1-.1h0l1-.1h0l1-.1h0l1-.1h0l1-.1h0l1-.1h0l1-.1h0l1-.1h0l1-.1h0l1-.1h0l1-.1h0l1-.1h0l1-.1h0l1-.1h0l1-.1h0l1-.1h0l1-.1h0l1-.1h0l1-.1h0l1-.1h0l1-.1h0l1-.1h0l1-.1h0l1-.1h0l1-.1h0l1-.1h0l1-.1h0l1-.1h0l1-.1h0l1-.1h0l1-.1h0l1-.1h0l1-.1h0l1-.1h0l1-.1h0l1-.1h0l1-.1h0l1-.1h0l1-.1h0l1-.1h0l1-.1h0l1-.1h0l1-.1h0l1-.1h0l1-.1h0l1-.1h0l1-.1h0l1-.1h0l1-.1h0l1-.1h0l1-.1h0l1-.1h0l1-.1h0l1-.1h0l1-.1h0l1-.1h0l1-.1h0l1-.1h0l1-.1h0l1-.1h0l1-.1h0l1-.1h0l1-.1h0l1-.1h0l1-.1h0l1-.1h0l1-.1h0l1-.1h0l1-.1h0l1-.1h0l1-.1h0l1-.1h0l1-.1h0l1-.1h0l1-.1h0l1-.1h0l1-.1h0l1-.1h0l1-.1h0l1-.1h0l1-.1h0l1-.1h0l1-.1h0l1-.1h0l1-.1h0l1-.1h0l1-.1h0l1-.1h0l1-.1h0l1-.1h0l1-.1h0l1-.1h0l1-.1h0l1-.1h0l1-.1h0l1-.1h0l1-.1h0l1-.1h0l1-.1h0l1-.1h0l1-.1h0l1-.1h0l1-.1h0l1-.1h0l1-.1h0l1-.1h0l1-.1h0l1-.1h0l1-.1h0l1-.1h0l1-.1h0l1-.1h0l1-.1h0l1-.1h0l1-.1h0l1-.1h0l1-.1h0l1-.1h0l1-.1h0l1-.1h0l1-.1h0l1-.1h0l1-.1h0l1-.1h0l1-.1h0l1-.1h0l1-.1h0l1-.1h0l1-.1h0l1-.1h0l1-.1h0l1-.1h0l1-.1h0l1-.1h0l1-.1h0l1-.1h0l1-.1h0l1-.1h0l1-.1h0l1-.1h0l1-.1h0l1-.1h0l1-.1h0l1-.1h0l1-.1h0l1-.1h0l1-.1h0l1-.1h0l1-.1h0l1-.1h0l1-.1h0l1-.1h0l1-.1h0l1-.1h0l1-.1h0l1-.1h0l1-.1h0l1-.1h0l1-.1h0l1-.1h0l1-.1h0l1-.1h0l1-.1h0l1-.1h0l1-.1h0l1-.1h0l1-.1h0l1-.1h0l1-.1h0l1-.1h0l1-.1h0l1-.1h0l1-.1h0l1-.1h0l1-.1h0l1-.1h0l1-.1h0l1-.1h0l1-.1h0l1-.1h0l1-.1h0l1-.1h0l1-.1h0l1-.1h0l1-.1h0l1-.1h0l1-.1h0l1-.1h0l1-.1h0l1-.1h0l1-.1h0l1-.1h0l1-.1h0l1-.1h0l1-.1h0l1-.1h0l1-.1h0l1-.1h0l1-.1h0l1-.1h0l1-.1h0l1-.1h0l1-.1h0l1-.1h0l1-.1h0l1-.1h0l1-.1h0l1-.1h0l1-.1h0l1-.1h0l1-.1h0l1-.1h0l1-.1h0l1-.1h0l1-.1h0l1-.1h0l1-.1h0l1-.1h0l1-.1h0l1-.1h0l1-.1h0l1-.1h0l1-.1h0l1-.1h0l1-.1h0l1-.1h0l1-.1h0l1-.1h0l1-.1h0l1-.1h0l1-.1h0l1-.1h0l1-.1h0l1-.1h0l1-.1h0l1-.1h0l1-.1h0l1-.1h0l1-.1h0l1-.1h0l1-.1h0l1-.1h0l1-.1h0l1-.1h0l1-.1h0l1-.1h0l1-.1h0l1-.1h0l1-.1h0l1-.1h0l1-.1h0l1-.1h0l1-.1h0l1-.1h0l1-.1h0l1-.1h0l1-.1h0l1-.1h0l1-.1h0l1-.1h0l1-.1h0l1-.1h0l1-.1h0l1-.1h0l1-.1h0l1-.1h0l1-.1h0l1-.1h0l1-.1h0l1-.1h0l1-.1h0l1-.1h0l1-.1h0l1-.1h0l1-.1h0l1-.1h0l1-.1h0l1-.1h0l1-.1h0l1-.1h0l1-.1h0l1-.1h0l1-.1h0l1-.1h0l1-.1h0l1-.1h0l1-.1h0l1-.1h0l1-.1h0l1-.1h0l1-.1h0l1-.1h0l1-.1h0l1-.1h0l1-.1h0l1-.1h0l1-.1h0l1-.1h0l1-.1h0l1-.1h0l1-.1h0l1-.1h0l1-.1h0l1-.1h0l1-.1h0l1-.1h0l1-.1h0l1-.1h0l1-.1h0l1-.1h0l1-.1h0l1-.1h0l1-.1h0l1-.1h0l1-.1h0l1-.1h0l1-.1h0l1-.1h0l1-.1h0l1-.1h0l1-.1h0l1-.1h0l1-.1h0l1-.1h0l1-.1h0l1-.1h0l1-.1h0l1-.1h0l1-.1h0l1-.1h0l1-.1h0l1-.1h0l1-.1h0l1-.1h0l1-.1h0l1-.1h0l1-.1h0l1-.1h0l1-.1h0l1-.1h0l1-.1h0l1-.1h0l1-.1h0l1-.1h0l1-.1h0l1-.1h0l1-.1h0l1-.1h0l1-.1h0l1-.1h0l1-.1h0l1-.1h0l1-.1h0l1-.1h0l1-.1h0l1-.1h0l1-.1h0l1-.1h0l1-.1h0l1-.1h0l1-.1h0l1-.1h0l1-.1h0l1-.1h0l1-.1h0l1-.1h0l1-.1h0l1-.1h0l1-.1h0l1-.1h0l1-.1h0l1-.1h0l1-.1h0l1-.1h0l1-.1h0l1-.1h0l1-.1h0l1-.1h0l1-.1h0l1-.1h0l1-.1h0l1-.1h0l1-.1h0l1-.1h0l1-.1h0l1-.1h0l1-.1h0l1-.1h0l1-.1h0l1-.1h0l1-.1h0l1-.1h0l1-.1h0l1-.1h0l1-.1h0l1-.1h0l1-.1h0l1-.1h0l1-.1h0l1-.1h0l1-.1h0l1-.1h0l1-.1h0l1-.1h0l1-.1h0l1-.1h0l1-.1h0l1-.1h0l1-.1h0l1-.1h0l1-.1h0l1-.1h0l1-.1h0l1-.1h0l1-.1h0l1-.1h0l1-.1h0l1-.1h0l1-.1h0l1-.1h0l1-.1h0l1-.1h0l1-.1h0l1-.1h0l1-.1h0l1-.1h0l1-.1h0l1-.1h0l1-.1h0l1-.1h0l1-.1h0l1-.1h0l1-.1h0l1-.1h0l1-.1h0l1-.1h0l1-.1h0l1-.2h0l1-.2h0l1-.2h0l1-.2h0l1-.2h0l1-.2h0l1-.2h0l1-.2h0l1-.2h0l1-.2h0l1-.2h0l1-.2h0l1-.2h0l1-.2h0l1-.2h0l1-.2h0l1-.2h0l1-.2h0l1-.2h0l1-.2h0l1-.2h0l1-.2h0l1-.2h0l1-.2h0l1-.2h0l1-.2h0l1-.2h0l1-.2h0l1-.2h0l1-.2h0l1-.2h0l1-.2h0l1-.2h0l1-.2h0l1-.2h0l1-.2h0l1-.2h0l1-.2h0l1-.2h0l1-.2h0l1-.2h0l1-.2h0l1-.2h0l1-.2h0l1-.2h0l1-.2h0l1-.2h0l1-.2h0l1-.2h0l1-.2h0l1-.2h0l1-.2h0l1-.2h0l1-.2h0l1-.2h0l1-.2h0l1-.2h0l1-.2h0l1-.2h0l1-.2h0l1-.2h0l1-.2h0l1-.2h0l1-.2h0l1-.2h0l1-.2h0l1-.2h0l1-.2h0l1-.2h0l1-.2h0l1-.2h0l1-.2h0l1-.2h0l1-.2h0l1-.2h0l1-.2h0l1-.2h0l1-.2h0l1-.2h0l1-.2h0l1-.2h0l1-.2h0l1-.2h0l1-.2h0l1-.2h0l1-.2h0l1-.2h0l1-.2h0l1-.2h0l1-.2h0l1-.2h0l1-.2h0l1-.2h0l1-.2h0l1-.2h0l1-.2h0l1-.2h0l1-.2h0l1-.2h0l1-.2h0l1-.2h0l1-.2h0l1-.2h0l1-.2h0l1-.2h0l1-.2h0l1-.2h0l1-.2h0l1-.2h0l1-.2h0l1-.2h0l1-.2h0l1-.2h0l1-.2h0l1-.2h0l1-.2h0l1-.2h0l1-.2h0l1-.2h0l1-.2h0l1-.3h0l1-.3h0l1-.3h0l1-.3h0l1-.3h0l1-.3h0l1-.3h0l1-.3h0l1-.3h0l1-.3h0l1-.3h0l1-.3h0l1-.3h0l1-.3h0l1-.3h0l1-.3h0l1-.3h0l1-.3h0l1-.3h0l1-.3h0l1-.3h0l1-.3h0l1-.3h0l1-.3h0l1-.3h0l1-.3h0l1-.3h0l1-.3h0l1-.3h0l1-.3h0l1-.3h0l1-.3h0l1-.3h0l1-.3h0l1-.3h0l1-.3h0l1-.3h0l1-.3h0l1-.3h0l1-.3h0l1-.3h0l1-.4h0l1-.4h0l1-.4h0l1-.4h0l1-.4h0l1-.4h0l1-.4h0l1-.4h0l1-.4h0l1-.4h0l1-.4h0l1-.4h0l1-.4h0l1-.4h0l1-.4h0l1-.4h0l1-.4h0l1-.4h0l1-.4h0l1-.4h0l1-.5h0l1-.5h0l1-.5h0l1-.5h0l1-.5h0l1-.5h0l1-.5h0l1-.5h0l1-.5h0l1-.5h0l1-.5h0l1-.6h0l1-.6h0l1-.6h0l1-.6h0l1-.6h0l1-.6h0l1-.6h0l1-.6h0l1-.7h0l1-.7h0l1-.7h0l1-.7h0l1-.8h0l1-.8h0l1-.8h0l1-.8h0l1-.9h0l1-.9h0l1-1h0l1-1h0l1-1.1h0l1-1.1h0l1-1.2h0l1-1.3h0l1-1.4h0l1-1.5h0l1-1.7h0l1-1.9h0l1-2.2h0l1-2.7h0l1-3.5h0l1-5.8h0l1-26.4h0l1-5.8h0l1-3.5h0l1-2.7h0l1-2.2h0l1-1.9h0l1-1.7h0l1-1.5h0l1-1.4h0l1-1.3h0l1-1.2h0l1-1.1h0l1-1.1h0l1-1h0l1-1h0l1-.9h0l1-.9h0l1-.8h0l1-.8h0l1-.8h0l1-.8h0l1-.7h0l1-.7h0l1-.7h0l1-.7h0l1-.6h0l1-.6h0l1-.6h0l1-.6h0l1-.6h0l1-.6h0l1-.6h0l1-.6h0l1-.5h0l1-.5h0l1-.5h0l1-.5h0l1-.5h0l1-.5h0l1-.5h0l1-.5h0l1-.5h0l1-.5h0l1-.5h0l1-.4h0l1-.4h0l1-.4h0l1-.4h0l1-.4h0l1-.4h0l1-.4h0l1-.4h0l1-.4h0l1-.4h0l1-.4h0l1-.4h0l1-.4h0l1-.4h0l1-.4h0l1-.4h0l1-.4h0l1-.4h0l1-.4h0l1-.4h0l1-.3h0l1-.3h0l1-.3h0l1-.3h0l1-.3h0l1-.3h0l1-.3h0l1-.3h0l1-.3h0l1-.3h0l1-.3h0l1-.3h0l1-.3h0l1-.3h0l1-.3h0l1-.3h0l1-.3h0l1-.3h0l1-.3h0l1-.3h0l1-.3h0l1-.3h0l1-.3h0l1-.3h0l1-.3h0l1-.3h0l1-.3h0l1-.3h0l1-.3h0l1-.3h0l1-.3h0l1-.3h0l1-.3h0l1-.3h0l1-.3h0l1-.3h0l1-.3h0l1-.3h0l1-.3h0l1-.3h0l1-.3h0l1-.2h0l1-.2h0l1-.2h0l1-.2h0l1-.2h0l1-.2h0l1-.2h0l1-.2h0l1-.2h0l1-.2h0l1-.2h0l1-.2h0l1-.2h0l1-.2h0l1-.2h0l1-.2h0l1-.2h0l1-.2h0l1-.2h0l1-.2h0l1-.2h0l1-.2h0l1-.2h0l1-.2h0l1-.2h0l1-.2h0l1-.2h0l1-.2h0l1-.2h0l1-.2h0l1-.2h0l1-.2h0l1-.2h0l1-.2h0l1-.2h0l1-.2h0l1-.2h0l1-.2h0l1-.2h0l1-.2h0l1-.2h0l1-.2h0l1-.2h0l1-.2h0l1-.2h0l1-.2h0l1-.2h0l1-.2h0l1-.2h0l1-.2h0l1-.2h0l1-.2h0l1-.2h0l1-.2h0l1-.2h0l1-.2h0l1-.2h0l1-.2h0l1-.2h0l1-.2h0l1-.2h0l1-.2h0l1-.2h0l1-.2h0l1-.2h0l1-.2h0l1-.2h0l1-.2h0l1-.2h0l1-.2h0l1-.2h0l1-.2h0l1-.2h0l1-.2h0l1-.2h0l1-.2h0l1-.2h0l1-.2h0l1-.2h0l1-.2h0l1-.2h0l1-.2h0l1-.2h0l1-.2h0l1-.2h0l1-.2h0l1-.2h0l1-.2h0l1-.2h0l1-.2h0l1-.2h0l1-.2h0l1-.2h0l1-.2h0l1-.2h0l1-.2h0l1-.2h0l1-.2h0l1-.2h0l1-.2h0l1-.2h0l1-.2h0l1-.2h0l1-.2h0l1-.2h0l1-.2h0l1-.2h0l1-.2h0l1-.2h0l1-.2h0l1-.2h0l1-.2h0l1-.2h0l1-.2h0l1-.2h0l1-.2h0l1-.2h0l1-.2h0l1-.2h0l1-.2h0l1-.1h0l1-.1h0l1-.1h0l1-.1h0l1-.1h0l1-.1h0l1-.1h0l1-.1h0l1-.1h0l1-.1h0l1-.1h0l1-.1h0l1-.1h0l1-.1h0l1-.1h0l1-.1h0l1-.1h0l1-.1h0l1-.1h0l1-.1h0l1-.1h0l1-.1h0l1-.1h0l1-.1h0l1-.1h0l1-.1h0l1-.1h0l1-.1h0l1-.1h0l1-.1h0l1-.1h0l1-.1h0l1-.1h0l1-.1h0l1-.1h0l1-.1h0l1-.1h0l1-.1h0l1-.1h0l1-.1h0l1-.1h0l1-.1h0l1-.1h0l1-.1h0l1-.1h0l1-.1h0l1-.1h0l1-.1h0l1-.1h0l1-.1h0l1-.1h0l1-.1h0l1-.1h0l1-.1h0l1-.1h0l1-.1h0l1-.1h0l1-.1h0l1-.1h0l1-.1h0l1-.1h0l1-.1h0l1-.1h0l1-.1h0l1-.1h0l1-.1h0l1-.1h0l1-.1h0l1-.1h0l1-.1h0l1-.1h0l1-.1h0l1-.1h0l1-.1h0l1-.1h0l1-.1h0l1-.1h0l1-.1h0l1-.1h0l1-.1h0l1-.1h0l1-.1h0l1-.1h0l1-.1h0l1-.1h0l1-.1h0l1-.1h0l1-.1h0l1-.1h0l1-.1h0l1-.1h0l1-.1h0l1-.1h0l1-.1h0l1-.1h0l1-.1h0l1-.1h0l1-.1h0l1-.1h0l1-.1h0l1-.1h0l1-.1h0l1-.1h0l1-.1h0l1-.1h0l1-.1h0l1-.1h0l1-.1h0l1-.1h0l1-.1h0l1-.1h0l1-.1h0l1-.1h0l1-.1h0l1-.1h0l1-.1h0l1-.1h0l1-.1h0l1-.1h0l1-.1h0l1-.1h0l1-.1h0l1-.1h0l1-.1h0l1-.1h0l1-.1h0l1-.1h0l1-.1h0l1-.1h0l1-.1h0l1-.1h0l1-.1h0l1-.1h0l1-.1h0l1-.1h0l1-.1h0l1-.1h0l1-.1h0l1-.1h0l1-.1h0l1-.1h0l1-.1h0l1-.1h0l1-.1h0l1-.1h0l1-.1h0l1-.1h0l1-.1h0l1-.1h0l1-.1h0l1-.1h0l1-.1h0l1-.1h0l1-.1h0l1-.1h0l1-.1h0l1-.1h0l1-.1h0l1-.1h0l1-.1h0l1-.1h0l1-.1h0l1-.1h0l1-.1h0l1-.1h0l1-.1h0l1-.1h0l1-.1h0l1-.1h0l1-.1h0l1-.1h0l1-.1h0l1-.1h0l1-.1h0l1-.1h0l1-.1h0l1-.1h0l1-.1h0l1-.1h0l1-.1h0l1-.1h0l1-.1h0l1-.1h0l1-.1h0l1-.1h0l1-.1h0l1-.1h0l1-.1h0l1-.1h0l1-.1h0l1-.1h0l1-.1h0l1-.1h0l1-.1h0l1-.1h0l1-.1h0l1-.1h0l1-.1h0l1-.1h0l1-.1h0l1-.1h0l1-.1h0l1-.1h0l1-.1h0l1-.1h0l1-.1h0l1-.1h0l1-.1h0l1-.1h0l1-.1h0l1-.1h0l1-.1h0l1-.1h0l1-.1h0l1-.1h0l1-.1h0l1-.1h0l1-.1h0l1-.1h0l1-.1h0l1-.1h0l1-.1h0l1-.1h0l1-.1h0l1-.1h0l1-.1h0l1-.1h0l1-.1h0l1-.1h0l1-.1h0l1-.1h0l1-.1h0l1-.1h0l1-.1h0l1-.1h0l1-.1h0l1-.1h0l1-.1h0l1-.1h0l1-.1h0l1-.1h0l1-.1h0l1-.1h0l1-.1h0l1-.1h0l1-.1h0l1-.1h0l1-.1h0l1-.1h0l1-.1h0l1-.1h0l1-.1h0l1-.1h0l1-.1h0l1-.1h0l1-.1h0l1-.1h0l1-.1h0l1-.1h0l1-.1h0l1-.1h0l1-.1h0l1-.1h0l1-.1h0l1-.1h0l1-.1h0l1-.1h0l1-.1h0l1-.1h0l1-.1h0l1-.1h0l1-.1h0l1-.1h0l1-.1h0l1-.1h0l1-.1h0l1-.1h0l1-.1h0l1-.1h0l1-.1h0l1-.1h0l1-.1h0l1-.1h0l1-.1h0l1-.1h0l1-.1h0l1-.1h0l1-.1h0l1-.1h0l1-.1h0l1-.1h0l1-.1h0l1-.1h0l1-.1h0l1-.1h0l1-.1h0l1-.1h0l1-.1h0l1-.1h0l1-.1h0l1-.1h0l1-.1h0l1-.1h0l1-.1h0l1-.1h0l1-.1h0l1-.1h0l1-.1h0l1-.1h0l1-.1h0l1-.1h0l1-.1h0l1-.1"/>
          <path class="uuid-2b38fc6e-774e-4906-b909-9d7203dab0d5" d="m96.3,1025L1126.3-5"/>
        </g>
      </g>
    </g>
  </g>
  <g id="uuid-c66de840-5d69-4507-8e40-5efb9a44d6d7" data-name="Marco">
    <path class="uuid-63c2cc98-0405-4159-b75f-dc11a4b3730f" d="m-2-2V1022h1249V-2H-2Zm1232,987c0,11.05-8.95,20-20,20H35c-11.05,0-20-8.95-20-20V35c0-11.05,8.95-20,20-20h1175c11.05,0,20,8.95,20,20v950Z"/>
  </g>
</svg>