<?xml version="1.0" encoding="UTF-8"?>
<svg xmlns="http://www.w3.org/2000/svg" xmlns:xlink="http://www.w3.org/1999/xlink" viewBox="0 0 1245 1020">
  <defs>
    <style>
      .uuid-f24a0b46-aa38-4afe-8b7f-2bc8de768f0c {
        stroke: silver;
      }

      .uuid-f24a0b46-aa38-4afe-8b7f-2bc8de768f0c, .uuid-85952453-79bc-4247-bb70-e15bed4841fe, .uuid-c8774b0e-7691-43c9-9bc8-6fe18ff8cba9, .uuid-db3876aa-c3df-4cc8-8103-6338dd384e26, .uuid-cb42a422-5ad8-48a0-91d3-286eb267fc0f, .uuid-58a61c97-379c-4cea-843a-6426b5f25585, .uuid-e04722e9-1b4a-4730-b2f3-4464b3999909, .uuid-baf19cb2-3e1f-4252-96d5-c010cd23e907, .uuid-a0433df2-c000-4d52-ab5a-8b9ee8668bb8 {
        fill: none;
      }

      .uuid-f24a0b46-aa38-4afe-8b7f-2bc8de768f0c, .uuid-db3876aa-c3df-4cc8-8103-6338dd384e26, .uuid-cb42a422-5ad8-48a0-91d3-286eb267fc0f {
        stroke-linecap: round;
        stroke-linejoin: round;
      }

      .uuid-d7d8bc02-42a3-4cfc-81e7-0c431f868a80 {
        fill: #fff;
      }

      .uuid-85952453-79bc-4247-bb70-e15bed4841fe {
        stroke: #fff;
        stroke-linejoin: bevel;
        stroke-width: 3px;
      }

      .uuid-c8774b0e-7691-43c9-9bc8-6fe18ff8cba9 {
        clip-path: url(#uuid-f0b79514-dd9b-4c99-b6bf-a0709d89ddb9);
      }

      .uuid-db3876aa-c3df-4cc8-8103-6338dd384e26 {
        stroke: rgba(204, 0, 0, .7);
        stroke-width: 5px;
      }

      .uuid-cb42a422-5ad8-48a0-91d3-286eb267fc0f {
        stroke: rgba(192, 192, 192, .24);
      }

      .uuid-58a61c97-379c-4cea-843a-6426b5f25585 {
        clip-path: url(#uuid-6517823d-3eef-46de-96f3-a141094f53a9);
      }

      .uuid-e04722e9-1b4a-4730-b2f3-4464b3999909 {
        isolation: isolate;
      }

      .uuid-72d37c75-5099-4cdf-94d7-044b9cdce02d {
        fill: #00699b;
      }

      .uuid-a0433df2-c000-4d52-ab5a-8b9ee8668bb8 {
        stroke: #252525;
        stroke-miterlimit: 10;
      }

      .uuid-a65f8481-7b1c-4d31-b14c-994d0f7c9dcc {
        fill: #252525;
      }
    </style>
    <clipPath id="uuid-f0b79514-dd9b-4c99-b6bf-a0709d89ddb9">
      <rect class="uuid-baf19cb2-3e1f-4252-96d5-c010cd23e907" width="1246.96" height="1019.08"/>
    </clipPath>
    <clipPath id="uuid-6517823d-3eef-46de-96f3-a141094f53a9">
      <rect class="uuid-baf19cb2-3e1f-4252-96d5-c010cd23e907" x="-58.57" width="1392.14" height="1215.74"/>
    </clipPath>
  </defs>
  <g id="uuid-e92a19c3-da57-41c5-9fae-6f5ec5c3d704" data-name="Grafica">
    <g class="uuid-c8774b0e-7691-43c9-9bc8-6fe18ff8cba9">
      <g class="uuid-58a61c97-379c-4cea-843a-6426b5f25585">
        <g>
          <rect class="uuid-d7d8bc02-42a3-4cfc-81e7-0c431f868a80" x="-58.57" width="1392.14" height="1215.74"/>
          <path class="uuid-f24a0b46-aa38-4afe-8b7f-2bc8de768f0c" d="m44.53.6v1215.74M44.53.6v1215.74M160.14.6v1215.74M275.76.6v1215.74M391.37.6v1215.74M506.99.6v1215.74M737.02.6v1215.74M852.64.6v1215.74M968.25.6v1215.74M1083.87.6v1215.74M1199.48.6v1215.74M1313.9.6v1215.74"/>
          <path class="uuid-cb42a422-5ad8-48a0-91d3-286eb267fc0f" d="m-47.25.6v1215.74M-24.6.6v1215.74M-.76.6v1215.74M21.88.6v1215.74M68.37.6v1215.74M91.01.6v1215.74M113.66.6v1215.74M137.5.6v1215.74M183.98.6v1215.74M206.63.6v1215.74M229.27.6v1215.74M253.11.6v1215.74M298.4.6v1215.74M322.24.6v1215.74M344.89.6v1215.74M367.53.6v1215.74M414.02.6v1215.74M437.86.6v1215.74M460.5.6v1215.74M483.15.6v1215.74M529.63.6v1215.74M552.28.6v1215.74M576.12.6v1215.74M598.76.6v1215.74M645.25.6v1215.74M667.89.6v1215.74M691.73.6v1215.74M714.38.6v1215.74M760.86.6v1215.74M783.51.6v1215.74M806.15.6v1215.74M829.99.6v1215.74M875.28.6v1215.74M899.12.6v1215.74M921.77.6v1215.74M945.61.6v1215.74M990.9.6v1215.74M1014.74.6v1215.74M1037.38.6v1215.74M1060.03.6v1215.74M1106.51.6v1215.74M1129.16.6v1215.74M1153,.6v1215.74M1175.64.6v1215.74M1222.13.6v1215.74M1244.77.6v1215.74M1268.61.6v1215.74M1291.26.6v1215.74"/>
          <path class="uuid-f24a0b46-aa38-4afe-8b7f-2bc8de768f0c" d="m-57.97,53.04h1392.14m-1392.14,0h1392.14M-57.97,146.01h1392.14M-57.97,237.78h1392.14M-57.97,330.75h1392.14M-57.97,422.53h1392.14M-57.97,515.5h1392.14M-57.97,607.27h1392.14M-57.97,700.24h1392.14M-57.97,792.02h1392.14M-57.97,976.76h1392.14M-57.97,1068.54h1392.14M-57.97,1161.51h1392.14"/>
          <path class="uuid-cb42a422-5ad8-48a0-91d3-286eb267fc0f" d="m-57.97,16.09h1392.14m-1392.14,0h1392.14M-57.97,35.16h1392.14M-57.97,72.11h1392.14M-57.97,89.99h1392.14M-57.97,109.06h1392.14M-57.97,126.94h1392.14M-57.97,163.89h1392.14M-57.97,182.96h1392.14M-57.97,200.84h1392.14M-57.97,219.91h1392.14M-57.97,256.85h1392.14M-57.97,274.73h1392.14M-57.97,293.8h1392.14M-57.97,311.68h1392.14M-57.97,348.63h1392.14M-57.97,367.7h1392.14M-57.97,385.58h1392.14M-57.97,404.65h1392.14M-57.97,441.6h1392.14M-57.97,459.48h1392.14M-57.97,478.55h1392.14M-57.97,496.43h1392.14M-57.97,533.38h1392.14m-1392.14,19.07h1392.14m-1392.14,17.88h1392.14m-1392.14,19.07h1392.14M-57.97,626.34h1392.14m-1392.14,17.88h1392.14m-1392.14,19.07h1392.14m-1392.14,17.88h1392.14M-57.97,718.12h1392.14m-1392.14,19.07h1392.14m-1392.14,17.88h1392.14m-1392.14,19.07h1392.14M-57.97,811.09h1392.14m-1392.14,17.88h1392.14m-1392.14,17.88h1392.14m-1392.14,19.07h1392.14M-57.97,902.87h1392.14m-1392.14,17.88h1392.14m-1392.14,19.07h1392.14m-1392.14,17.88h1392.14M-57.97,994.64h1392.14m-1392.14,19.07h1392.14m-1392.14,17.88h1392.14m-1392.14,19.07h1392.14m-1392.14,36.95h1392.14m-1392.14,17.88h1392.14m-1392.14,19.07h1392.14m-1392.14,17.88h1392.14m-1392.14,36.95h1392.14m-1392.14,19.07h1392.14"/>
          <path class="uuid-a0433df2-c000-4d52-ab5a-8b9ee8668bb8" d="m621.41,2.98v1213.36"/>
          <path class="uuid-a0433df2-c000-4d52-ab5a-8b9ee8668bb8" d="m621.41,1.79l-4.77,4.77"/>
          <path class="uuid-a0433df2-c000-4d52-ab5a-8b9ee8668bb8" d="m621.41,1.79l4.77,4.77"/>
          <path class="uuid-a0433df2-c000-4d52-ab5a-8b9ee8668bb8" d="m-57.97,883.79h1389.76"/>
          <g class="uuid-e04722e9-1b4a-4730-b2f3-4464b3999909">
            <path class="uuid-a65f8481-7b1c-4d31-b14c-994d0f7c9dcc" d="m37.97,898.29v.29h-7.15v-.29h7.15Z"/>
            <path class="uuid-a65f8481-7b1c-4d31-b14c-994d0f7c9dcc" d="m45.31,902.27h-6.55c0-.41.08-.78.26-1.12s.42-.65.72-.94c.3-.29.63-.57.99-.83.37-.26.73-.52,1.09-.78.37-.26.73-.52,1.09-.79.35-.27.67-.55.94-.84.28-.29.5-.6.67-.93s.25-.68.25-1.07-.07-.72-.21-1.01-.33-.53-.56-.73-.52-.34-.85-.44c-.33-.1-.69-.15-1.08-.15-.51,0-.94.08-1.3.23s-.66.37-.89.64-.4.6-.5.97c-.1.38-.16.79-.16,1.24h-.29c0-1.07.27-1.9.79-2.48.52-.59,1.3-.88,2.34-.88.42,0,.81.05,1.17.16.36.11.68.27.94.49.27.22.48.49.64.81.16.33.24.71.24,1.14,0,.53-.14,1.02-.43,1.46s-.65.85-1.08,1.23c-.43.38-.9.74-1.41,1.08-.51.34-.98.68-1.42,1.02-.44.34-.82.69-1.14,1.04-.31.36-.49.75-.53,1.17h6.26v.29Z"/>
            <path class="uuid-a65f8481-7b1c-4d31-b14c-994d0f7c9dcc" d="m47.77,902.27v-1.4h.29v1.4h-.29Z"/>
            <path class="uuid-a65f8481-7b1c-4d31-b14c-994d0f7c9dcc" d="m51.12,896.99h.03c.28-.46.65-.79,1.11-1,.46-.21.98-.31,1.55-.31.51,0,.96.08,1.37.25.41.17.76.4,1.06.69s.52.65.69,1.07.24.87.24,1.35c0,.51-.08.98-.24,1.4-.16.42-.39.78-.69,1.07s-.65.52-1.06.68c-.41.16-.87.24-1.37.24s-.96-.07-1.38-.22-.79-.36-1.09-.64c-.3-.28-.53-.62-.69-1.02s-.23-.87-.21-1.39h.29c-.02.48.04.9.19,1.27.14.37.35.69.62.94.27.26.6.45.99.59.39.13.82.2,1.29.2s.9-.07,1.28-.22c.38-.15.7-.36.97-.63.27-.27.47-.6.61-.99.14-.39.21-.81.21-1.28s-.07-.86-.22-1.24c-.15-.38-.36-.7-.62-.97s-.59-.48-.97-.64c-.38-.15-.8-.23-1.26-.23-.57,0-1.1.13-1.59.38-.49.25-.86.62-1.13,1.11h-.36l1.04-4.91h4.99v.29h-4.76l-.89,4.16Z"/>
          </g>
          <g class="uuid-e04722e9-1b4a-4730-b2f3-4464b3999909">
            <path class="uuid-85952453-79bc-4247-bb70-e15bed4841fe" d="m37.97,898.29v.29h-7.15v-.29h7.15Z"/>
            <path class="uuid-85952453-79bc-4247-bb70-e15bed4841fe" d="m45.31,902.27h-6.55c0-.41.08-.78.26-1.12s.42-.65.72-.94c.3-.29.63-.57.99-.83.37-.26.73-.52,1.09-.78.37-.26.73-.52,1.09-.79.35-.27.67-.55.94-.84.28-.29.5-.6.67-.93s.25-.68.25-1.07-.07-.72-.21-1.01-.33-.53-.56-.73-.52-.34-.85-.44c-.33-.1-.69-.15-1.08-.15-.51,0-.94.08-1.3.23s-.66.37-.89.64-.4.6-.5.97c-.1.38-.16.79-.16,1.24h-.29c0-1.07.27-1.9.79-2.48.52-.59,1.3-.88,2.34-.88.42,0,.81.05,1.17.16.36.11.68.27.94.49.27.22.48.49.64.81.16.33.24.71.24,1.14,0,.53-.14,1.02-.43,1.46s-.65.85-1.08,1.23c-.43.38-.9.74-1.41,1.08-.51.34-.98.68-1.42,1.02-.44.34-.82.69-1.14,1.04-.31.36-.49.75-.53,1.17h6.26v.29Z"/>
            <path class="uuid-85952453-79bc-4247-bb70-e15bed4841fe" d="m47.77,902.27v-1.4h.29v1.4h-.29Z"/>
            <path class="uuid-85952453-79bc-4247-bb70-e15bed4841fe" d="m51.12,896.99h.03c.28-.46.65-.79,1.11-1,.46-.21.98-.31,1.55-.31.51,0,.96.08,1.37.25.41.17.76.4,1.06.69s.52.65.69,1.07.24.87.24,1.35c0,.51-.08.98-.24,1.4-.16.42-.39.78-.69,1.07s-.65.52-1.06.68c-.41.16-.87.24-1.37.24s-.96-.07-1.38-.22-.79-.36-1.09-.64c-.3-.28-.53-.62-.69-1.02s-.23-.87-.21-1.39h.29c-.02.48.04.9.19,1.27.14.37.35.69.62.94.27.26.6.45.99.59.39.13.82.2,1.29.2s.9-.07,1.28-.22c.38-.15.7-.36.97-.63.27-.27.47-.6.61-.99.14-.39.21-.81.21-1.28s-.07-.86-.22-1.24c-.15-.38-.36-.7-.62-.97s-.59-.48-.97-.64c-.38-.15-.8-.23-1.26-.23-.57,0-1.1.13-1.59.38-.49.25-.86.62-1.13,1.11h-.36l1.04-4.91h4.99v.29h-4.76l-.89,4.16Z"/>
          </g>
          <g class="uuid-e04722e9-1b4a-4730-b2f3-4464b3999909">
            <path class="uuid-a65f8481-7b1c-4d31-b14c-994d0f7c9dcc" d="m37.97,898.29v.29h-7.15v-.29h7.15Z"/>
            <path class="uuid-a65f8481-7b1c-4d31-b14c-994d0f7c9dcc" d="m45.31,902.27h-6.55c0-.41.08-.78.26-1.12s.42-.65.72-.94c.3-.29.63-.57.99-.83.37-.26.73-.52,1.09-.78.37-.26.73-.52,1.09-.79.35-.27.67-.55.94-.84.28-.29.5-.6.67-.93s.25-.68.25-1.07-.07-.72-.21-1.01-.33-.53-.56-.73-.52-.34-.85-.44c-.33-.1-.69-.15-1.08-.15-.51,0-.94.08-1.3.23s-.66.37-.89.64-.4.6-.5.97c-.1.38-.16.79-.16,1.24h-.29c0-1.07.27-1.9.79-2.48.52-.59,1.3-.88,2.34-.88.42,0,.81.05,1.17.16.36.11.68.27.94.49.27.22.48.49.64.81.16.33.24.71.24,1.14,0,.53-.14,1.02-.43,1.46s-.65.85-1.08,1.23c-.43.38-.9.74-1.41,1.08-.51.34-.98.68-1.42,1.02-.44.34-.82.69-1.14,1.04-.31.36-.49.75-.53,1.17h6.26v.29Z"/>
            <path class="uuid-a65f8481-7b1c-4d31-b14c-994d0f7c9dcc" d="m47.77,902.27v-1.4h.29v1.4h-.29Z"/>
            <path class="uuid-a65f8481-7b1c-4d31-b14c-994d0f7c9dcc" d="m51.12,896.99h.03c.28-.46.65-.79,1.11-1,.46-.21.98-.31,1.55-.31.51,0,.96.08,1.37.25.41.17.76.4,1.06.69s.52.65.69,1.07.24.87.24,1.35c0,.51-.08.98-.24,1.4-.16.42-.39.78-.69,1.07s-.65.52-1.06.68c-.41.16-.87.24-1.37.24s-.96-.07-1.38-.22-.79-.36-1.09-.64c-.3-.28-.53-.62-.69-1.02s-.23-.87-.21-1.39h.29c-.02.48.04.9.19,1.27.14.37.35.69.62.94.27.26.6.45.99.59.39.13.82.2,1.29.2s.9-.07,1.28-.22c.38-.15.7-.36.97-.63.27-.27.47-.6.61-.99.14-.39.21-.81.21-1.28s-.07-.86-.22-1.24c-.15-.38-.36-.7-.62-.97s-.59-.48-.97-.64c-.38-.15-.8-.23-1.26-.23-.57,0-1.1.13-1.59.38-.49.25-.86.62-1.13,1.11h-.36l1.04-4.91h4.99v.29h-4.76l-.89,4.16Z"/>
          </g>
          <g class="uuid-e04722e9-1b4a-4730-b2f3-4464b3999909">
            <path class="uuid-a65f8481-7b1c-4d31-b14c-994d0f7c9dcc" d="m160.74,898.29v.29h-7.15v-.29h7.15Z"/>
            <path class="uuid-a65f8481-7b1c-4d31-b14c-994d0f7c9dcc" d="m168.08,902.27h-6.55c0-.41.08-.78.26-1.12s.42-.65.72-.94c.3-.29.63-.57.99-.83.37-.26.73-.52,1.09-.78.37-.26.73-.52,1.09-.79.35-.27.67-.55.94-.84.28-.29.5-.6.67-.93s.25-.68.25-1.07-.07-.72-.21-1.01-.33-.53-.56-.73-.52-.34-.85-.44c-.33-.1-.69-.15-1.08-.15-.51,0-.94.08-1.3.23s-.66.37-.89.64-.4.6-.5.97c-.1.38-.16.79-.16,1.24h-.29c0-1.07.27-1.9.79-2.48.52-.59,1.3-.88,2.34-.88.42,0,.81.05,1.17.16.36.11.68.27.94.49.27.22.48.49.64.81.16.33.24.71.24,1.14,0,.53-.14,1.02-.43,1.46s-.65.85-1.08,1.23c-.43.38-.9.74-1.41,1.08-.51.34-.98.68-1.42,1.02-.44.34-.82.69-1.14,1.04-.31.36-.49.75-.53,1.17h6.26v.29Z"/>
          </g>
          <g class="uuid-e04722e9-1b4a-4730-b2f3-4464b3999909">
            <path class="uuid-85952453-79bc-4247-bb70-e15bed4841fe" d="m160.74,898.29v.29h-7.15v-.29h7.15Z"/>
            <path class="uuid-85952453-79bc-4247-bb70-e15bed4841fe" d="m168.08,902.27h-6.55c0-.41.08-.78.26-1.12s.42-.65.72-.94c.3-.29.63-.57.99-.83.37-.26.73-.52,1.09-.78.37-.26.73-.52,1.09-.79.35-.27.67-.55.94-.84.28-.29.5-.6.67-.93s.25-.68.25-1.07-.07-.72-.21-1.01-.33-.53-.56-.73-.52-.34-.85-.44c-.33-.1-.69-.15-1.08-.15-.51,0-.94.08-1.3.23s-.66.37-.89.64-.4.6-.5.97c-.1.38-.16.79-.16,1.24h-.29c0-1.07.27-1.9.79-2.48.52-.59,1.3-.88,2.34-.88.42,0,.81.05,1.17.16.36.11.68.27.94.49.27.22.48.49.64.81.16.33.24.71.24,1.14,0,.53-.14,1.02-.43,1.46s-.65.85-1.08,1.23c-.43.38-.9.74-1.41,1.08-.51.34-.98.68-1.42,1.02-.44.34-.82.69-1.14,1.04-.31.36-.49.75-.53,1.17h6.26v.29Z"/>
          </g>
          <g class="uuid-e04722e9-1b4a-4730-b2f3-4464b3999909">
            <path class="uuid-a65f8481-7b1c-4d31-b14c-994d0f7c9dcc" d="m160.74,898.29v.29h-7.15v-.29h7.15Z"/>
            <path class="uuid-a65f8481-7b1c-4d31-b14c-994d0f7c9dcc" d="m168.08,902.27h-6.55c0-.41.08-.78.26-1.12s.42-.65.72-.94c.3-.29.63-.57.99-.83.37-.26.73-.52,1.09-.78.37-.26.73-.52,1.09-.79.35-.27.67-.55.94-.84.28-.29.5-.6.67-.93s.25-.68.25-1.07-.07-.72-.21-1.01-.33-.53-.56-.73-.52-.34-.85-.44c-.33-.1-.69-.15-1.08-.15-.51,0-.94.08-1.3.23s-.66.37-.89.64-.4.6-.5.97c-.1.38-.16.79-.16,1.24h-.29c0-1.07.27-1.9.79-2.48.52-.59,1.3-.88,2.34-.88.42,0,.81.05,1.17.16.36.11.68.27.94.49.27.22.48.49.64.81.16.33.24.71.24,1.14,0,.53-.14,1.02-.43,1.46s-.65.85-1.08,1.23c-.43.38-.9.74-1.41,1.08-.51.34-.98.68-1.42,1.02-.44.34-.82.69-1.14,1.04-.31.36-.49.75-.53,1.17h6.26v.29Z"/>
          </g>
          <g class="uuid-e04722e9-1b4a-4730-b2f3-4464b3999909">
            <path class="uuid-a65f8481-7b1c-4d31-b14c-994d0f7c9dcc" d="m269.2,898.29v.29h-7.15v-.29h7.15Z"/>
            <path class="uuid-a65f8481-7b1c-4d31-b14c-994d0f7c9dcc" d="m273.44,892.92c-.3.41-.68.77-1.15,1.07-.47.3-.95.52-1.44.65v-.29c.3-.09.56-.2.79-.31.23-.11.44-.24.64-.39.2-.14.39-.3.58-.49.19-.18.38-.39.58-.61h.31v9.73h-.29v-9.35h-.03Z"/>
            <path class="uuid-a65f8481-7b1c-4d31-b14c-994d0f7c9dcc" d="m279,902.27v-1.4h.29v1.4h-.29Z"/>
            <path class="uuid-a65f8481-7b1c-4d31-b14c-994d0f7c9dcc" d="m282.35,896.99h.03c.28-.46.65-.79,1.11-1,.46-.21.98-.31,1.55-.31.51,0,.96.08,1.37.25.41.17.76.4,1.06.69s.52.65.69,1.07.24.87.24,1.35c0,.51-.08.98-.24,1.4-.16.42-.39.78-.69,1.07s-.65.52-1.06.68c-.41.16-.87.24-1.37.24s-.96-.07-1.38-.22-.79-.36-1.09-.64c-.3-.28-.53-.62-.69-1.02s-.23-.87-.21-1.39h.29c-.02.48.04.9.19,1.27.14.37.35.69.62.94.27.26.6.45.99.59.39.13.82.2,1.29.2s.9-.07,1.28-.22c.38-.15.7-.36.97-.63.27-.27.47-.6.61-.99.14-.39.21-.81.21-1.28s-.07-.86-.22-1.24c-.15-.38-.36-.7-.62-.97s-.59-.48-.97-.64c-.38-.15-.8-.23-1.26-.23-.57,0-1.1.13-1.59.38-.49.25-.86.62-1.13,1.11h-.36l1.04-4.91h4.99v.29h-4.76l-.89,4.16Z"/>
          </g>
          <g class="uuid-e04722e9-1b4a-4730-b2f3-4464b3999909">
            <path class="uuid-85952453-79bc-4247-bb70-e15bed4841fe" d="m269.2,898.29v.29h-7.15v-.29h7.15Z"/>
            <path class="uuid-85952453-79bc-4247-bb70-e15bed4841fe" d="m273.44,892.92c-.3.41-.68.77-1.15,1.07-.47.3-.95.52-1.44.65v-.29c.3-.09.56-.2.79-.31.23-.11.44-.24.64-.39.2-.14.39-.3.58-.49.19-.18.38-.39.58-.61h.31v9.73h-.29v-9.35h-.03Z"/>
            <path class="uuid-85952453-79bc-4247-bb70-e15bed4841fe" d="m279,902.27v-1.4h.29v1.4h-.29Z"/>
            <path class="uuid-85952453-79bc-4247-bb70-e15bed4841fe" d="m282.35,896.99h.03c.28-.46.65-.79,1.11-1,.46-.21.98-.31,1.55-.31.51,0,.96.08,1.37.25.41.17.76.4,1.06.69s.52.65.69,1.07.24.87.24,1.35c0,.51-.08.98-.24,1.4-.16.42-.39.78-.69,1.07s-.65.52-1.06.68c-.41.16-.87.24-1.37.24s-.96-.07-1.38-.22-.79-.36-1.09-.64c-.3-.28-.53-.62-.69-1.02s-.23-.87-.21-1.39h.29c-.02.48.04.9.19,1.27.14.37.35.69.62.94.27.26.6.45.99.59.39.13.82.2,1.29.2s.9-.07,1.28-.22c.38-.15.7-.36.97-.63.27-.27.47-.6.61-.99.14-.39.21-.81.21-1.28s-.07-.86-.22-1.24c-.15-.38-.36-.7-.62-.97s-.59-.48-.97-.64c-.38-.15-.8-.23-1.26-.23-.57,0-1.1.13-1.59.38-.49.25-.86.62-1.13,1.11h-.36l1.04-4.91h4.99v.29h-4.76l-.89,4.16Z"/>
          </g>
          <g class="uuid-e04722e9-1b4a-4730-b2f3-4464b3999909">
            <path class="uuid-a65f8481-7b1c-4d31-b14c-994d0f7c9dcc" d="m269.2,898.29v.29h-7.15v-.29h7.15Z"/>
            <path class="uuid-a65f8481-7b1c-4d31-b14c-994d0f7c9dcc" d="m273.44,892.92c-.3.41-.68.77-1.15,1.07-.47.3-.95.52-1.44.65v-.29c.3-.09.56-.2.79-.31.23-.11.44-.24.64-.39.2-.14.39-.3.58-.49.19-.18.38-.39.58-.61h.31v9.73h-.29v-9.35h-.03Z"/>
            <path class="uuid-a65f8481-7b1c-4d31-b14c-994d0f7c9dcc" d="m279,902.27v-1.4h.29v1.4h-.29Z"/>
            <path class="uuid-a65f8481-7b1c-4d31-b14c-994d0f7c9dcc" d="m282.35,896.99h.03c.28-.46.65-.79,1.11-1,.46-.21.98-.31,1.55-.31.51,0,.96.08,1.37.25.41.17.76.4,1.06.69s.52.65.69,1.07.24.87.24,1.35c0,.51-.08.98-.24,1.4-.16.42-.39.78-.69,1.07s-.65.52-1.06.68c-.41.16-.87.24-1.37.24s-.96-.07-1.38-.22-.79-.36-1.09-.64c-.3-.28-.53-.62-.69-1.02s-.23-.87-.21-1.39h.29c-.02.48.04.9.19,1.27.14.37.35.69.62.94.27.26.6.45.99.59.39.13.82.2,1.29.2s.9-.07,1.28-.22c.38-.15.7-.36.97-.63.27-.27.47-.6.61-.99.14-.39.21-.81.21-1.28s-.07-.86-.22-1.24c-.15-.38-.36-.7-.62-.97s-.59-.48-.97-.64c-.38-.15-.8-.23-1.26-.23-.57,0-1.1.13-1.59.38-.49.25-.86.62-1.13,1.11h-.36l1.04-4.91h4.99v.29h-4.76l-.89,4.16Z"/>
          </g>
          <g class="uuid-e04722e9-1b4a-4730-b2f3-4464b3999909">
            <path class="uuid-a65f8481-7b1c-4d31-b14c-994d0f7c9dcc" d="m391.97,898.29v.29h-7.15v-.29h7.15Z"/>
            <path class="uuid-a65f8481-7b1c-4d31-b14c-994d0f7c9dcc" d="m396.2,892.92c-.3.41-.68.77-1.15,1.07-.47.3-.95.52-1.44.65v-.29c.3-.09.56-.2.79-.31.23-.11.44-.24.64-.39.2-.14.39-.3.58-.49.19-.18.38-.39.58-.61h.31v9.73h-.29v-9.35h-.03Z"/>
          </g>
          <g class="uuid-e04722e9-1b4a-4730-b2f3-4464b3999909">
            <path class="uuid-85952453-79bc-4247-bb70-e15bed4841fe" d="m391.97,898.29v.29h-7.15v-.29h7.15Z"/>
            <path class="uuid-85952453-79bc-4247-bb70-e15bed4841fe" d="m396.2,892.92c-.3.41-.68.77-1.15,1.07-.47.3-.95.52-1.44.65v-.29c.3-.09.56-.2.79-.31.23-.11.44-.24.64-.39.2-.14.39-.3.58-.49.19-.18.38-.39.58-.61h.31v9.73h-.29v-9.35h-.03Z"/>
          </g>
          <g class="uuid-e04722e9-1b4a-4730-b2f3-4464b3999909">
            <path class="uuid-a65f8481-7b1c-4d31-b14c-994d0f7c9dcc" d="m391.97,898.29v.29h-7.15v-.29h7.15Z"/>
            <path class="uuid-a65f8481-7b1c-4d31-b14c-994d0f7c9dcc" d="m396.2,892.92c-.3.41-.68.77-1.15,1.07-.47.3-.95.52-1.44.65v-.29c.3-.09.56-.2.79-.31.23-.11.44-.24.64-.39.2-.14.39-.3.58-.49.19-.18.38-.39.58-.61h.31v9.73h-.29v-9.35h-.03Z"/>
          </g>
          <g class="uuid-e04722e9-1b4a-4730-b2f3-4464b3999909">
            <path class="uuid-a65f8481-7b1c-4d31-b14c-994d0f7c9dcc" d="m500.43,898.29v.29h-7.15v-.29h7.15Z"/>
            <path class="uuid-a65f8481-7b1c-4d31-b14c-994d0f7c9dcc" d="m507.9,899.22c-.12.6-.32,1.14-.61,1.62-.29.48-.66.86-1.13,1.15-.47.29-1.05.44-1.76.44s-1.28-.15-1.75-.44c-.47-.29-.85-.67-1.14-1.15-.29-.48-.49-1.01-.61-1.62-.12-.6-.18-1.21-.18-1.82s.06-1.22.18-1.82.32-1.14.61-1.62c.29-.48.67-.86,1.14-1.16s1.06-.44,1.75-.44,1.29.15,1.76.44.84.68,1.13,1.16c.29.48.49,1.02.61,1.62s.18,1.21.18,1.82-.06,1.22-.18,1.82Zm-.26-3.48c-.1-.56-.29-1.07-.54-1.53-.26-.46-.6-.83-1.04-1.12-.43-.29-.98-.44-1.65-.44s-1.22.15-1.65.44c-.43.29-.78.67-1.04,1.12-.26.46-.44.97-.54,1.53-.1.56-.16,1.12-.16,1.66s.05,1.1.16,1.66c.1.56.29,1.07.54,1.53.26.46.6.83,1.04,1.12.43.29.98.44,1.65.44s1.22-.15,1.65-.44c.43-.29.78-.67,1.04-1.12.26-.46.44-.97.54-1.53.1-.56.16-1.12.16-1.66s-.05-1.1-.16-1.66Z"/>
            <path class="uuid-a65f8481-7b1c-4d31-b14c-994d0f7c9dcc" d="m510.23,902.27v-1.4h.29v1.4h-.29Z"/>
            <path class="uuid-a65f8481-7b1c-4d31-b14c-994d0f7c9dcc" d="m513.58,896.99h.03c.28-.46.65-.79,1.11-1,.46-.21.98-.31,1.55-.31.51,0,.96.08,1.37.25.41.17.76.4,1.06.69s.52.65.69,1.07.24.87.24,1.35c0,.51-.08.98-.24,1.4-.16.42-.39.78-.69,1.07s-.65.52-1.06.68c-.41.16-.87.24-1.37.24s-.96-.07-1.38-.22-.79-.36-1.09-.64c-.3-.28-.53-.62-.69-1.02s-.23-.87-.21-1.39h.29c-.02.48.04.9.19,1.27.14.37.35.69.62.94.27.26.6.45.99.59.39.13.82.2,1.29.2s.9-.07,1.28-.22c.38-.15.7-.36.97-.63.27-.27.47-.6.61-.99.14-.39.21-.81.21-1.28s-.07-.86-.22-1.24c-.15-.38-.36-.7-.62-.97s-.59-.48-.97-.64c-.38-.15-.8-.23-1.26-.23-.57,0-1.1.13-1.59.38-.49.25-.86.62-1.13,1.11h-.36l1.04-4.91h4.99v.29h-4.76l-.89,4.16Z"/>
          </g>
          <g class="uuid-e04722e9-1b4a-4730-b2f3-4464b3999909">
            <path class="uuid-85952453-79bc-4247-bb70-e15bed4841fe" d="m500.43,898.29v.29h-7.15v-.29h7.15Z"/>
            <path class="uuid-85952453-79bc-4247-bb70-e15bed4841fe" d="m507.9,899.22c-.12.6-.32,1.14-.61,1.62-.29.48-.66.86-1.13,1.15-.47.29-1.05.44-1.76.44s-1.28-.15-1.75-.44c-.47-.29-.85-.67-1.14-1.15-.29-.48-.49-1.01-.61-1.62-.12-.6-.18-1.21-.18-1.82s.06-1.22.18-1.82.32-1.14.61-1.62c.29-.48.67-.86,1.14-1.16s1.06-.44,1.75-.44,1.29.15,1.76.44.84.68,1.13,1.16c.29.48.49,1.02.61,1.62s.18,1.21.18,1.82-.06,1.22-.18,1.82Zm-.26-3.48c-.1-.56-.29-1.07-.54-1.53-.26-.46-.6-.83-1.04-1.12-.43-.29-.98-.44-1.65-.44s-1.22.15-1.65.44c-.43.29-.78.67-1.04,1.12-.26.46-.44.97-.54,1.53-.1.56-.16,1.12-.16,1.66s.05,1.1.16,1.66c.1.56.29,1.07.54,1.53.26.46.6.83,1.04,1.12.43.29.98.44,1.65.44s1.22-.15,1.65-.44c.43-.29.78-.67,1.04-1.12.26-.46.44-.97.54-1.53.1-.56.16-1.12.16-1.66s-.05-1.1-.16-1.66Z"/>
            <path class="uuid-85952453-79bc-4247-bb70-e15bed4841fe" d="m510.23,902.27v-1.4h.29v1.4h-.29Z"/>
            <path class="uuid-85952453-79bc-4247-bb70-e15bed4841fe" d="m513.58,896.99h.03c.28-.46.65-.79,1.11-1,.46-.21.98-.31,1.55-.31.51,0,.96.08,1.37.25.41.17.76.4,1.06.69s.52.65.69,1.07.24.87.24,1.35c0,.51-.08.98-.24,1.4-.16.42-.39.78-.69,1.07s-.65.52-1.06.68c-.41.16-.87.24-1.37.24s-.96-.07-1.38-.22-.79-.36-1.09-.64c-.3-.28-.53-.62-.69-1.02s-.23-.87-.21-1.39h.29c-.02.48.04.9.19,1.27.14.37.35.69.62.94.27.26.6.45.99.59.39.13.82.2,1.29.2s.9-.07,1.28-.22c.38-.15.7-.36.97-.63.27-.27.47-.6.61-.99.14-.39.21-.81.21-1.28s-.07-.86-.22-1.24c-.15-.38-.36-.7-.62-.97s-.59-.48-.97-.64c-.38-.15-.8-.23-1.26-.23-.57,0-1.1.13-1.59.38-.49.25-.86.62-1.13,1.11h-.36l1.04-4.91h4.99v.29h-4.76l-.89,4.16Z"/>
          </g>
          <g class="uuid-e04722e9-1b4a-4730-b2f3-4464b3999909">
            <path class="uuid-a65f8481-7b1c-4d31-b14c-994d0f7c9dcc" d="m500.43,898.29v.29h-7.15v-.29h7.15Z"/>
            <path class="uuid-a65f8481-7b1c-4d31-b14c-994d0f7c9dcc" d="m507.9,899.22c-.12.6-.32,1.14-.61,1.62-.29.48-.66.86-1.13,1.15-.47.29-1.05.44-1.76.44s-1.28-.15-1.75-.44c-.47-.29-.85-.67-1.14-1.15-.29-.48-.49-1.01-.61-1.62-.12-.6-.18-1.21-.18-1.82s.06-1.22.18-1.82.32-1.14.61-1.62c.29-.48.67-.86,1.14-1.16s1.06-.44,1.75-.44,1.29.15,1.76.44.84.68,1.13,1.16c.29.48.49,1.02.61,1.62s.18,1.21.18,1.82-.06,1.22-.18,1.82Zm-.26-3.48c-.1-.56-.29-1.07-.54-1.53-.26-.46-.6-.83-1.04-1.12-.43-.29-.98-.44-1.65-.44s-1.22.15-1.65.44c-.43.29-.78.67-1.04,1.12-.26.46-.44.97-.54,1.53-.1.56-.16,1.12-.16,1.66s.05,1.1.16,1.66c.1.56.29,1.07.54,1.53.26.46.6.83,1.04,1.12.43.29.98.44,1.65.44s1.22-.15,1.65-.44c.43-.29.78-.67,1.04-1.12.26-.46.44-.97.54-1.53.1-.56.16-1.12.16-1.66s-.05-1.1-.16-1.66Z"/>
            <path class="uuid-a65f8481-7b1c-4d31-b14c-994d0f7c9dcc" d="m510.23,902.27v-1.4h.29v1.4h-.29Z"/>
            <path class="uuid-a65f8481-7b1c-4d31-b14c-994d0f7c9dcc" d="m513.58,896.99h.03c.28-.46.65-.79,1.11-1,.46-.21.98-.31,1.55-.31.51,0,.96.08,1.37.25.41.17.76.4,1.06.69s.52.65.69,1.07.24.87.24,1.35c0,.51-.08.98-.24,1.4-.16.42-.39.78-.69,1.07s-.65.52-1.06.68c-.41.16-.87.24-1.37.24s-.96-.07-1.38-.22-.79-.36-1.09-.64c-.3-.28-.53-.62-.69-1.02s-.23-.87-.21-1.39h.29c-.02.48.04.9.19,1.27.14.37.35.69.62.94.27.26.6.45.99.59.39.13.82.2,1.29.2s.9-.07,1.28-.22c.38-.15.7-.36.97-.63.27-.27.47-.6.61-.99.14-.39.21-.81.21-1.28s-.07-.86-.22-1.24c-.15-.38-.36-.7-.62-.97s-.59-.48-.97-.64c-.38-.15-.8-.23-1.26-.23-.57,0-1.1.13-1.59.38-.49.25-.86.62-1.13,1.11h-.36l1.04-4.91h4.99v.29h-4.76l-.89,4.16Z"/>
          </g>
          <g class="uuid-e04722e9-1b4a-4730-b2f3-4464b3999909">
            <path class="uuid-a65f8481-7b1c-4d31-b14c-994d0f7c9dcc" d="m734.37,899.22c-.12.6-.32,1.14-.61,1.62-.29.48-.66.86-1.13,1.15-.47.29-1.05.44-1.76.44s-1.28-.15-1.75-.44c-.47-.29-.85-.67-1.14-1.15-.29-.48-.49-1.01-.61-1.62-.12-.6-.18-1.21-.18-1.82s.06-1.22.18-1.82c.12-.6.32-1.14.61-1.62.29-.48.67-.86,1.14-1.16.47-.3,1.06-.44,1.75-.44s1.29.15,1.76.44.84.68,1.13,1.16c.29.48.49,1.02.61,1.62.12.6.18,1.21.18,1.82s-.06,1.22-.18,1.82Zm-.26-3.48c-.11-.56-.29-1.07-.54-1.53-.26-.46-.6-.83-1.04-1.12-.43-.29-.98-.44-1.65-.44s-1.22.15-1.65.44c-.43.29-.78.67-1.04,1.12-.26.46-.44.97-.54,1.53-.11.56-.16,1.12-.16,1.66s.05,1.1.16,1.66c.1.56.29,1.07.54,1.53.26.46.6.83,1.04,1.12s.98.44,1.65.44,1.22-.15,1.65-.44.78-.67,1.04-1.12c.26-.46.44-.97.54-1.53.1-.56.16-1.12.16-1.66s-.05-1.1-.16-1.66Z"/>
            <path class="uuid-a65f8481-7b1c-4d31-b14c-994d0f7c9dcc" d="m736.69,902.27v-1.4h.29v1.4h-.29Z"/>
            <path class="uuid-a65f8481-7b1c-4d31-b14c-994d0f7c9dcc" d="m740.04,896.99h.03c.28-.46.65-.79,1.11-1,.46-.21.98-.31,1.55-.31.51,0,.96.08,1.37.25.41.17.76.4,1.06.69s.52.65.69,1.07.24.87.24,1.35c0,.51-.08.98-.24,1.4-.16.42-.39.78-.69,1.07s-.65.52-1.06.68c-.41.16-.87.24-1.37.24s-.96-.07-1.38-.22c-.42-.15-.79-.36-1.09-.64-.3-.28-.53-.62-.69-1.02-.16-.41-.23-.87-.21-1.39h.29c-.02.48.04.9.19,1.27.14.37.35.69.62.94.27.26.6.45.99.59s.82.2,1.29.2.9-.07,1.28-.22.7-.36.97-.63c.27-.27.47-.6.62-.99.14-.39.21-.81.21-1.28s-.07-.86-.22-1.24c-.15-.38-.36-.7-.62-.97s-.59-.48-.97-.64c-.38-.15-.8-.23-1.26-.23-.57,0-1.1.13-1.59.38-.49.25-.86.62-1.13,1.11h-.36l1.04-4.91h4.99v.29h-4.76l-.89,4.16Z"/>
          </g>
          <g class="uuid-e04722e9-1b4a-4730-b2f3-4464b3999909">
            <path class="uuid-85952453-79bc-4247-bb70-e15bed4841fe" d="m734.37,899.22c-.12.6-.32,1.14-.61,1.62-.29.48-.66.86-1.13,1.15-.47.29-1.05.44-1.76.44s-1.28-.15-1.75-.44c-.47-.29-.85-.67-1.14-1.15-.29-.48-.49-1.01-.61-1.62-.12-.6-.18-1.21-.18-1.82s.06-1.22.18-1.82c.12-.6.32-1.14.61-1.62.29-.48.67-.86,1.14-1.16.47-.3,1.06-.44,1.75-.44s1.29.15,1.76.44.84.68,1.13,1.16c.29.48.49,1.02.61,1.62.12.6.18,1.21.18,1.82s-.06,1.22-.18,1.82Zm-.26-3.48c-.11-.56-.29-1.07-.54-1.53-.26-.46-.6-.83-1.04-1.12-.43-.29-.98-.44-1.65-.44s-1.22.15-1.65.44c-.43.29-.78.67-1.04,1.12-.26.46-.44.97-.54,1.53-.11.56-.16,1.12-.16,1.66s.05,1.1.16,1.66c.1.56.29,1.07.54,1.53.26.46.6.83,1.04,1.12s.98.44,1.65.44,1.22-.15,1.65-.44.78-.67,1.04-1.12c.26-.46.44-.97.54-1.53.1-.56.16-1.12.16-1.66s-.05-1.1-.16-1.66Z"/>
            <path class="uuid-85952453-79bc-4247-bb70-e15bed4841fe" d="m736.69,902.27v-1.4h.29v1.4h-.29Z"/>
            <path class="uuid-85952453-79bc-4247-bb70-e15bed4841fe" d="m740.04,896.99h.03c.28-.46.65-.79,1.11-1,.46-.21.98-.31,1.55-.31.51,0,.96.08,1.37.25.41.17.76.4,1.06.69s.52.65.69,1.07.24.87.24,1.35c0,.51-.08.98-.24,1.4-.16.42-.39.78-.69,1.07s-.65.52-1.06.68c-.41.16-.87.24-1.37.24s-.96-.07-1.38-.22c-.42-.15-.79-.36-1.09-.64-.3-.28-.53-.62-.69-1.02-.16-.41-.23-.87-.21-1.39h.29c-.02.48.04.9.19,1.27.14.37.35.69.62.94.27.26.6.45.99.59s.82.2,1.29.2.9-.07,1.28-.22.7-.36.97-.63c.27-.27.47-.6.62-.99.14-.39.21-.81.21-1.28s-.07-.86-.22-1.24c-.15-.38-.36-.7-.62-.97s-.59-.48-.97-.64c-.38-.15-.8-.23-1.26-.23-.57,0-1.1.13-1.59.38-.49.25-.86.62-1.13,1.11h-.36l1.04-4.91h4.99v.29h-4.76l-.89,4.16Z"/>
          </g>
          <g class="uuid-e04722e9-1b4a-4730-b2f3-4464b3999909">
            <path class="uuid-a65f8481-7b1c-4d31-b14c-994d0f7c9dcc" d="m734.37,899.22c-.12.6-.32,1.14-.61,1.62-.29.48-.66.86-1.13,1.15-.47.29-1.05.44-1.76.44s-1.28-.15-1.75-.44c-.47-.29-.85-.67-1.14-1.15-.29-.48-.49-1.01-.61-1.62-.12-.6-.18-1.21-.18-1.82s.06-1.22.18-1.82c.12-.6.32-1.14.61-1.62.29-.48.67-.86,1.14-1.16.47-.3,1.06-.44,1.75-.44s1.29.15,1.76.44.84.68,1.13,1.16c.29.48.49,1.02.61,1.62.12.6.18,1.21.18,1.82s-.06,1.22-.18,1.82Zm-.26-3.48c-.11-.56-.29-1.07-.54-1.53-.26-.46-.6-.83-1.04-1.12-.43-.29-.98-.44-1.65-.44s-1.22.15-1.65.44c-.43.29-.78.67-1.04,1.12-.26.46-.44.97-.54,1.53-.11.56-.16,1.12-.16,1.66s.05,1.1.16,1.66c.1.56.29,1.07.54,1.53.26.46.6.83,1.04,1.12s.98.44,1.65.44,1.22-.15,1.65-.44.78-.67,1.04-1.12c.26-.46.44-.97.54-1.53.1-.56.16-1.12.16-1.66s-.05-1.1-.16-1.66Z"/>
            <path class="uuid-a65f8481-7b1c-4d31-b14c-994d0f7c9dcc" d="m736.69,902.27v-1.4h.29v1.4h-.29Z"/>
            <path class="uuid-a65f8481-7b1c-4d31-b14c-994d0f7c9dcc" d="m740.04,896.99h.03c.28-.46.65-.79,1.11-1,.46-.21.98-.31,1.55-.31.51,0,.96.08,1.37.25.41.17.76.4,1.06.69s.52.65.69,1.07.24.87.24,1.35c0,.51-.08.98-.24,1.4-.16.42-.39.78-.69,1.07s-.65.52-1.06.68c-.41.16-.87.24-1.37.24s-.96-.07-1.38-.22c-.42-.15-.79-.36-1.09-.64-.3-.28-.53-.62-.69-1.02-.16-.41-.23-.87-.21-1.39h.29c-.02.48.04.9.19,1.27.14.37.35.69.62.94.27.26.6.45.99.59s.82.2,1.29.2.9-.07,1.28-.22.7-.36.97-.63c.27-.27.47-.6.62-.99.14-.39.21-.81.21-1.28s-.07-.86-.22-1.24c-.15-.38-.36-.7-.62-.97s-.59-.48-.97-.64c-.38-.15-.8-.23-1.26-.23-.57,0-1.1.13-1.59.38-.49.25-.86.62-1.13,1.11h-.36l1.04-4.91h4.99v.29h-4.76l-.89,4.16Z"/>
          </g>
          <g class="uuid-e04722e9-1b4a-4730-b2f3-4464b3999909">
            <path class="uuid-a65f8481-7b1c-4d31-b14c-994d0f7c9dcc" d="m853.89,892.92c-.3.41-.68.77-1.15,1.07-.47.3-.95.52-1.44.65v-.29c.3-.09.56-.2.79-.31.23-.11.44-.24.64-.39.2-.14.39-.3.58-.49.19-.18.38-.39.58-.61h.31v9.73h-.29v-9.35h-.03Z"/>
          </g>
          <g class="uuid-e04722e9-1b4a-4730-b2f3-4464b3999909">
            <path class="uuid-85952453-79bc-4247-bb70-e15bed4841fe" d="m853.89,892.92c-.3.41-.68.77-1.15,1.07-.47.3-.95.52-1.44.65v-.29c.3-.09.56-.2.79-.31.23-.11.44-.24.64-.39.2-.14.39-.3.58-.49.19-.18.38-.39.58-.61h.31v9.73h-.29v-9.35h-.03Z"/>
          </g>
          <g class="uuid-e04722e9-1b4a-4730-b2f3-4464b3999909">
            <path class="uuid-a65f8481-7b1c-4d31-b14c-994d0f7c9dcc" d="m853.89,892.92c-.3.41-.68.77-1.15,1.07-.47.3-.95.52-1.44.65v-.29c.3-.09.56-.2.79-.31.23-.11.44-.24.64-.39.2-.14.39-.3.58-.49.19-.18.38-.39.58-.61h.31v9.73h-.29v-9.35h-.03Z"/>
          </g>
          <g class="uuid-e04722e9-1b4a-4730-b2f3-4464b3999909">
            <path class="uuid-a65f8481-7b1c-4d31-b14c-994d0f7c9dcc" d="m962.35,892.92c-.3.41-.68.77-1.15,1.07-.47.3-.95.52-1.44.65v-.29c.3-.09.56-.2.79-.31.23-.11.44-.24.64-.39.2-.14.39-.3.58-.49.19-.18.38-.39.58-.61h.31v9.73h-.29v-9.35h-.03Z"/>
            <path class="uuid-a65f8481-7b1c-4d31-b14c-994d0f7c9dcc" d="m967.92,902.27v-1.4h.29v1.4h-.29Z"/>
            <path class="uuid-a65f8481-7b1c-4d31-b14c-994d0f7c9dcc" d="m971.27,896.99h.03c.28-.46.65-.79,1.11-1,.46-.21.98-.31,1.55-.31.51,0,.96.08,1.37.25.41.17.76.4,1.06.69s.52.65.69,1.07.24.87.24,1.35c0,.51-.08.98-.24,1.4-.16.42-.39.78-.69,1.07s-.65.52-1.06.68c-.41.16-.87.24-1.37.24s-.96-.07-1.38-.22c-.42-.15-.79-.36-1.09-.64-.3-.28-.53-.62-.69-1.02-.16-.41-.23-.87-.21-1.39h.29c-.02.48.04.9.19,1.27.14.37.35.69.62.94.27.26.6.45.99.59s.82.2,1.29.2.9-.07,1.28-.22.7-.36.97-.63c.27-.27.47-.6.62-.99.14-.39.21-.81.21-1.28s-.07-.86-.22-1.24c-.15-.38-.36-.7-.62-.97s-.59-.48-.97-.64c-.38-.15-.8-.23-1.26-.23-.57,0-1.1.13-1.59.38-.49.25-.86.62-1.13,1.11h-.36l1.04-4.91h4.99v.29h-4.76l-.89,4.16Z"/>
          </g>
          <g class="uuid-e04722e9-1b4a-4730-b2f3-4464b3999909">
            <path class="uuid-85952453-79bc-4247-bb70-e15bed4841fe" d="m962.35,892.92c-.3.41-.68.77-1.15,1.07-.47.3-.95.52-1.44.65v-.29c.3-.09.56-.2.79-.31.23-.11.44-.24.64-.39.2-.14.39-.3.58-.49.19-.18.38-.39.58-.61h.31v9.73h-.29v-9.35h-.03Z"/>
            <path class="uuid-85952453-79bc-4247-bb70-e15bed4841fe" d="m967.92,902.27v-1.4h.29v1.4h-.29Z"/>
            <path class="uuid-85952453-79bc-4247-bb70-e15bed4841fe" d="m971.27,896.99h.03c.28-.46.65-.79,1.11-1,.46-.21.98-.31,1.55-.31.51,0,.96.08,1.37.25.41.17.76.4,1.06.69s.52.65.69,1.07.24.87.24,1.35c0,.51-.08.98-.24,1.4-.16.42-.39.78-.69,1.07s-.65.52-1.06.68c-.41.16-.87.24-1.37.24s-.96-.07-1.38-.22c-.42-.15-.79-.36-1.09-.64-.3-.28-.53-.62-.69-1.02-.16-.41-.23-.87-.21-1.39h.29c-.02.48.04.9.19,1.27.14.37.35.69.62.94.27.26.6.45.99.59s.82.2,1.29.2.9-.07,1.28-.22.7-.36.97-.63c.27-.27.47-.6.62-.99.14-.39.21-.81.21-1.28s-.07-.86-.22-1.24c-.15-.38-.36-.7-.62-.97s-.59-.48-.97-.64c-.38-.15-.8-.23-1.26-.23-.57,0-1.1.13-1.59.38-.49.25-.86.62-1.13,1.11h-.36l1.04-4.91h4.99v.29h-4.76l-.89,4.16Z"/>
          </g>
          <g class="uuid-e04722e9-1b4a-4730-b2f3-4464b3999909">
            <path class="uuid-a65f8481-7b1c-4d31-b14c-994d0f7c9dcc" d="m962.35,892.92c-.3.41-.68.77-1.15,1.07-.47.3-.95.52-1.44.65v-.29c.3-.09.56-.2.79-.31.23-.11.44-.24.64-.39.2-.14.39-.3.58-.49.19-.18.38-.39.58-.61h.31v9.73h-.29v-9.35h-.03Z"/>
            <path class="uuid-a65f8481-7b1c-4d31-b14c-994d0f7c9dcc" d="m967.92,902.27v-1.4h.29v1.4h-.29Z"/>
            <path class="uuid-a65f8481-7b1c-4d31-b14c-994d0f7c9dcc" d="m971.27,896.99h.03c.28-.46.65-.79,1.11-1,.46-.21.98-.31,1.55-.31.51,0,.96.08,1.37.25.41.17.76.4,1.06.69s.52.65.69,1.07.24.87.24,1.35c0,.51-.08.98-.24,1.4-.16.42-.39.78-.69,1.07s-.65.52-1.06.68c-.41.16-.87.24-1.37.24s-.96-.07-1.38-.22c-.42-.15-.79-.36-1.09-.64-.3-.28-.53-.62-.69-1.02-.16-.41-.23-.87-.21-1.39h.29c-.02.48.04.9.19,1.27.14.37.35.69.62.94.27.26.6.45.99.59s.82.2,1.29.2.9-.07,1.28-.22.7-.36.97-.63c.27-.27.47-.6.62-.99.14-.39.21-.81.21-1.28s-.07-.86-.22-1.24c-.15-.38-.36-.7-.62-.97s-.59-.48-.97-.64c-.38-.15-.8-.23-1.26-.23-.57,0-1.1.13-1.59.38-.49.25-.86.62-1.13,1.11h-.36l1.04-4.91h4.99v.29h-4.76l-.89,4.16Z"/>
          </g>
          <g class="uuid-e04722e9-1b4a-4730-b2f3-4464b3999909">
            <path class="uuid-a65f8481-7b1c-4d31-b14c-994d0f7c9dcc" d="m1088.22,902.27h-6.55c0-.41.08-.78.26-1.12.18-.33.42-.65.71-.94.3-.29.63-.57.99-.83.37-.26.73-.52,1.09-.78.37-.26.73-.52,1.09-.79.35-.27.67-.55.94-.84.28-.29.5-.6.67-.93.17-.33.25-.68.25-1.07s-.07-.72-.21-1.01c-.14-.29-.33-.53-.57-.73s-.52-.34-.85-.44c-.33-.1-.69-.15-1.08-.15-.51,0-.94.08-1.3.23s-.66.37-.89.64-.4.6-.5.97c-.1.38-.16.79-.16,1.24h-.29c0-1.07.27-1.9.79-2.48.52-.59,1.3-.88,2.34-.88.42,0,.81.05,1.17.16.36.11.68.27.94.49.27.22.48.49.64.81.16.33.24.71.24,1.14,0,.53-.14,1.02-.43,1.46-.29.44-.65.85-1.08,1.23-.43.38-.9.74-1.41,1.08-.51.34-.98.68-1.42,1.02-.44.34-.82.69-1.14,1.04-.31.36-.49.75-.53,1.17h6.26v.29Z"/>
          </g>
          <g class="uuid-e04722e9-1b4a-4730-b2f3-4464b3999909">
            <path class="uuid-85952453-79bc-4247-bb70-e15bed4841fe" d="m1088.22,902.27h-6.55c0-.41.08-.78.26-1.12.18-.33.42-.65.71-.94.3-.29.63-.57.99-.83.37-.26.73-.52,1.09-.78.37-.26.73-.52,1.09-.79.35-.27.67-.55.94-.84.28-.29.5-.6.67-.93.17-.33.25-.68.25-1.07s-.07-.72-.21-1.01c-.14-.29-.33-.53-.57-.73s-.52-.34-.85-.44c-.33-.1-.69-.15-1.08-.15-.51,0-.94.08-1.3.23s-.66.37-.89.64-.4.6-.5.97c-.1.38-.16.79-.16,1.24h-.29c0-1.07.27-1.9.79-2.48.52-.59,1.3-.88,2.34-.88.42,0,.81.05,1.17.16.36.11.68.27.94.49.27.22.48.49.64.81.16.33.24.71.24,1.14,0,.53-.14,1.02-.43,1.46-.29.44-.65.85-1.08,1.23-.43.38-.9.74-1.41,1.08-.51.34-.98.68-1.42,1.02-.44.34-.82.69-1.14,1.04-.31.36-.49.75-.53,1.17h6.26v.29Z"/>
          </g>
          <g class="uuid-e04722e9-1b4a-4730-b2f3-4464b3999909">
            <path class="uuid-a65f8481-7b1c-4d31-b14c-994d0f7c9dcc" d="m1088.22,902.27h-6.55c0-.41.08-.78.26-1.12.18-.33.42-.65.71-.94.3-.29.63-.57.99-.83.37-.26.73-.52,1.09-.78.37-.26.73-.52,1.09-.79.35-.27.67-.55.94-.84.28-.29.5-.6.67-.93.17-.33.25-.68.25-1.07s-.07-.72-.21-1.01c-.14-.29-.33-.53-.57-.73s-.52-.34-.85-.44c-.33-.1-.69-.15-1.08-.15-.51,0-.94.08-1.3.23s-.66.37-.89.64-.4.6-.5.97c-.1.38-.16.79-.16,1.24h-.29c0-1.07.27-1.9.79-2.48.52-.59,1.3-.88,2.34-.88.42,0,.81.05,1.17.16.36.11.68.27.94.49.27.22.48.49.64.81.16.33.24.71.24,1.14,0,.53-.14,1.02-.43,1.46-.29.44-.65.85-1.08,1.23-.43.38-.9.74-1.41,1.08-.51.34-.98.68-1.42,1.02-.44.34-.82.69-1.14,1.04-.31.36-.49.75-.53,1.17h6.26v.29Z"/>
          </g>
          <g class="uuid-e04722e9-1b4a-4730-b2f3-4464b3999909">
            <path class="uuid-a65f8481-7b1c-4d31-b14c-994d0f7c9dcc" d="m1196.69,902.27h-6.55c0-.41.08-.78.26-1.12.18-.33.42-.65.71-.94.3-.29.63-.57.99-.83.37-.26.73-.52,1.09-.78.37-.26.73-.52,1.09-.79.35-.27.67-.55.94-.84.28-.29.5-.6.67-.93.17-.33.25-.68.25-1.07s-.07-.72-.21-1.01c-.14-.29-.33-.53-.57-.73s-.52-.34-.85-.44c-.33-.1-.69-.15-1.08-.15-.51,0-.94.08-1.3.23s-.66.37-.89.64-.4.6-.5.97c-.1.38-.16.79-.16,1.24h-.29c0-1.07.27-1.9.79-2.48.52-.59,1.3-.88,2.34-.88.42,0,.81.05,1.17.16.36.11.68.27.94.49.27.22.48.49.64.81.16.33.24.71.24,1.14,0,.53-.14,1.02-.43,1.46-.29.44-.65.85-1.08,1.23-.43.38-.9.74-1.41,1.08-.51.34-.98.68-1.42,1.02-.44.34-.82.69-1.14,1.04-.31.36-.49.75-.53,1.17h6.26v.29Z"/>
            <path class="uuid-a65f8481-7b1c-4d31-b14c-994d0f7c9dcc" d="m1199.15,902.27v-1.4h.29v1.4h-.29Z"/>
            <path class="uuid-a65f8481-7b1c-4d31-b14c-994d0f7c9dcc" d="m1202.49,896.99h.03c.28-.46.65-.79,1.11-1,.46-.21.98-.31,1.55-.31.51,0,.96.08,1.37.25.41.17.76.4,1.06.69s.52.65.69,1.07.24.87.24,1.35c0,.51-.08.98-.24,1.4-.16.42-.39.78-.69,1.07s-.65.52-1.06.68c-.41.16-.87.24-1.37.24s-.96-.07-1.38-.22c-.42-.15-.79-.36-1.09-.64-.3-.28-.53-.62-.69-1.02-.16-.41-.23-.87-.21-1.39h.29c-.02.48.04.9.19,1.27.14.37.35.69.62.94.27.26.6.45.99.59s.82.2,1.29.2.9-.07,1.28-.22.7-.36.97-.63c.27-.27.47-.6.62-.99.14-.39.21-.81.21-1.28s-.07-.86-.22-1.24c-.15-.38-.36-.7-.62-.97s-.59-.48-.97-.64c-.38-.15-.8-.23-1.26-.23-.57,0-1.1.13-1.59.38-.49.25-.86.62-1.13,1.11h-.36l1.04-4.91h4.99v.29h-4.76l-.89,4.16Z"/>
          </g>
          <g class="uuid-e04722e9-1b4a-4730-b2f3-4464b3999909">
            <path class="uuid-85952453-79bc-4247-bb70-e15bed4841fe" d="m1196.69,902.27h-6.55c0-.41.08-.78.26-1.12.18-.33.42-.65.71-.94.3-.29.63-.57.99-.83.37-.26.73-.52,1.09-.78.37-.26.73-.52,1.09-.79.35-.27.67-.55.94-.84.28-.29.5-.6.67-.93.17-.33.25-.68.25-1.07s-.07-.72-.21-1.01c-.14-.29-.33-.53-.57-.73s-.52-.34-.85-.44c-.33-.1-.69-.15-1.08-.15-.51,0-.94.08-1.3.23s-.66.37-.89.64-.4.6-.5.97c-.1.38-.16.79-.16,1.24h-.29c0-1.07.27-1.9.79-2.48.52-.59,1.3-.88,2.34-.88.42,0,.81.05,1.17.16.36.11.68.27.94.49.27.22.48.49.64.81.16.33.24.71.24,1.14,0,.53-.14,1.02-.43,1.46-.29.44-.65.85-1.08,1.23-.43.38-.9.74-1.41,1.08-.51.34-.98.68-1.42,1.02-.44.34-.82.69-1.14,1.04-.31.36-.49.75-.53,1.17h6.26v.29Z"/>
            <path class="uuid-85952453-79bc-4247-bb70-e15bed4841fe" d="m1199.15,902.27v-1.4h.29v1.4h-.29Z"/>
            <path class="uuid-85952453-79bc-4247-bb70-e15bed4841fe" d="m1202.49,896.99h.03c.28-.46.65-.79,1.11-1,.46-.21.98-.31,1.55-.31.51,0,.96.08,1.37.25.41.17.76.4,1.06.69s.52.65.69,1.07.24.87.24,1.35c0,.51-.08.98-.24,1.4-.16.42-.39.78-.69,1.07s-.65.52-1.06.68c-.41.16-.87.24-1.37.24s-.96-.07-1.38-.22c-.42-.15-.79-.36-1.09-.64-.3-.28-.53-.62-.69-1.02-.16-.41-.23-.87-.21-1.39h.29c-.02.48.04.9.19,1.27.14.37.35.69.62.94.27.26.6.45.99.59s.82.2,1.29.2.9-.07,1.28-.22.7-.36.97-.63c.27-.27.47-.6.62-.99.14-.39.21-.81.21-1.28s-.07-.86-.22-1.24c-.15-.38-.36-.7-.62-.97s-.59-.48-.97-.64c-.38-.15-.8-.23-1.26-.23-.57,0-1.1.13-1.59.38-.49.25-.86.62-1.13,1.11h-.36l1.04-4.91h4.99v.29h-4.76l-.89,4.16Z"/>
          </g>
          <g class="uuid-e04722e9-1b4a-4730-b2f3-4464b3999909">
            <path class="uuid-a65f8481-7b1c-4d31-b14c-994d0f7c9dcc" d="m1196.69,902.27h-6.55c0-.41.08-.78.26-1.12.18-.33.42-.65.71-.94.3-.29.63-.57.99-.83.37-.26.73-.52,1.09-.78.37-.26.73-.52,1.09-.79.35-.27.67-.55.94-.84.28-.29.5-.6.67-.93.17-.33.25-.68.25-1.07s-.07-.72-.21-1.01c-.14-.29-.33-.53-.57-.73s-.52-.34-.85-.44c-.33-.1-.69-.15-1.08-.15-.51,0-.94.08-1.3.23s-.66.37-.89.64-.4.6-.5.97c-.1.38-.16.79-.16,1.24h-.29c0-1.07.27-1.9.79-2.48.52-.59,1.3-.88,2.34-.88.42,0,.81.05,1.17.16.36.11.68.27.94.49.27.22.48.49.64.81.16.33.24.71.24,1.14,0,.53-.14,1.02-.43,1.46-.29.44-.65.85-1.08,1.23-.43.38-.9.74-1.41,1.08-.51.34-.98.68-1.42,1.02-.44.34-.82.69-1.14,1.04-.31.36-.49.75-.53,1.17h6.26v.29Z"/>
            <path class="uuid-a65f8481-7b1c-4d31-b14c-994d0f7c9dcc" d="m1199.15,902.27v-1.4h.29v1.4h-.29Z"/>
            <path class="uuid-a65f8481-7b1c-4d31-b14c-994d0f7c9dcc" d="m1202.49,896.99h.03c.28-.46.65-.79,1.11-1,.46-.21.98-.31,1.55-.31.51,0,.96.08,1.37.25.41.17.76.4,1.06.69s.52.65.69,1.07.24.87.24,1.35c0,.51-.08.98-.24,1.4-.16.42-.39.78-.69,1.07s-.65.52-1.06.68c-.41.16-.87.24-1.37.24s-.96-.07-1.38-.22c-.42-.15-.79-.36-1.09-.64-.3-.28-.53-.62-.69-1.02-.16-.41-.23-.87-.21-1.39h.29c-.02.48.04.9.19,1.27.14.37.35.69.62.94.27.26.6.45.99.59s.82.2,1.29.2.9-.07,1.28-.22.7-.36.97-.63c.27-.27.47-.6.62-.99.14-.39.21-.81.21-1.28s-.07-.86-.22-1.24c-.15-.38-.36-.7-.62-.97s-.59-.48-.97-.64c-.38-.15-.8-.23-1.26-.23-.57,0-1.1.13-1.59.38-.49.25-.86.62-1.13,1.11h-.36l1.04-4.91h4.99v.29h-4.76l-.89,4.16Z"/>
          </g>
          <g class="uuid-e04722e9-1b4a-4730-b2f3-4464b3999909">
            <path class="uuid-a65f8481-7b1c-4d31-b14c-994d0f7c9dcc" d="m604.13,978.15v.29h-7.15v-.29h7.15Z"/>
            <path class="uuid-a65f8481-7b1c-4d31-b14c-994d0f7c9dcc" d="m611.46,982.13h-6.55c0-.41.08-.78.26-1.12s.42-.65.72-.94c.3-.29.63-.57.99-.83.37-.26.73-.52,1.09-.78.37-.26.73-.52,1.09-.79.35-.27.67-.55.94-.84.28-.29.5-.6.67-.93s.25-.68.25-1.07-.07-.72-.21-1.01-.33-.53-.56-.73-.52-.34-.85-.44c-.33-.1-.69-.15-1.08-.15-.51,0-.94.08-1.3.23s-.66.37-.89.64-.4.6-.5.97c-.1.38-.16.79-.16,1.24h-.29c0-1.07.27-1.9.79-2.48.52-.59,1.3-.88,2.34-.88.42,0,.81.05,1.17.16.36.11.68.27.94.49.27.22.48.49.64.81.16.33.24.71.24,1.14,0,.53-.14,1.02-.43,1.46s-.65.85-1.08,1.23c-.43.38-.9.74-1.41,1.08-.51.34-.98.68-1.42,1.02-.44.34-.82.69-1.14,1.04-.31.36-.49.75-.53,1.17h6.26v.29Z"/>
          </g>
          <g class="uuid-e04722e9-1b4a-4730-b2f3-4464b3999909">
            <path class="uuid-85952453-79bc-4247-bb70-e15bed4841fe" d="m604.13,978.15v.29h-7.15v-.29h7.15Z"/>
            <path class="uuid-85952453-79bc-4247-bb70-e15bed4841fe" d="m611.46,982.13h-6.55c0-.41.08-.78.26-1.12s.42-.65.72-.94c.3-.29.63-.57.99-.83.37-.26.73-.52,1.09-.78.37-.26.73-.52,1.09-.79.35-.27.67-.55.94-.84.28-.29.5-.6.67-.93s.25-.68.25-1.07-.07-.72-.21-1.01-.33-.53-.56-.73-.52-.34-.85-.44c-.33-.1-.69-.15-1.08-.15-.51,0-.94.08-1.3.23s-.66.37-.89.64-.4.6-.5.97c-.1.38-.16.79-.16,1.24h-.29c0-1.07.27-1.9.79-2.48.52-.59,1.3-.88,2.34-.88.42,0,.81.05,1.17.16.36.11.68.27.94.49.27.22.48.49.64.81.16.33.24.71.24,1.14,0,.53-.14,1.02-.43,1.46s-.65.85-1.08,1.23c-.43.38-.9.74-1.41,1.08-.51.34-.98.68-1.42,1.02-.44.34-.82.69-1.14,1.04-.31.36-.49.75-.53,1.17h6.26v.29Z"/>
          </g>
          <g class="uuid-e04722e9-1b4a-4730-b2f3-4464b3999909">
            <path class="uuid-a65f8481-7b1c-4d31-b14c-994d0f7c9dcc" d="m604.13,978.15v.29h-7.15v-.29h7.15Z"/>
            <path class="uuid-a65f8481-7b1c-4d31-b14c-994d0f7c9dcc" d="m611.46,982.13h-6.55c0-.41.08-.78.26-1.12s.42-.65.72-.94c.3-.29.63-.57.99-.83.37-.26.73-.52,1.09-.78.37-.26.73-.52,1.09-.79.35-.27.67-.55.94-.84.28-.29.5-.6.67-.93s.25-.68.25-1.07-.07-.72-.21-1.01-.33-.53-.56-.73-.52-.34-.85-.44c-.33-.1-.69-.15-1.08-.15-.51,0-.94.08-1.3.23s-.66.37-.89.64-.4.6-.5.97c-.1.38-.16.79-.16,1.24h-.29c0-1.07.27-1.9.79-2.48.52-.59,1.3-.88,2.34-.88.42,0,.81.05,1.17.16.36.11.68.27.94.49.27.22.48.49.64.81.16.33.24.71.24,1.14,0,.53-.14,1.02-.43,1.46s-.65.85-1.08,1.23c-.43.38-.9.74-1.41,1.08-.51.34-.98.68-1.42,1.02-.44.34-.82.69-1.14,1.04-.31.36-.49.75-.53,1.17h6.26v.29Z"/>
          </g>
          <g class="uuid-e04722e9-1b4a-4730-b2f3-4464b3999909">
            <path class="uuid-a65f8481-7b1c-4d31-b14c-994d0f7c9dcc" d="m611.46,797.38h-6.55c0-.41.08-.78.26-1.12s.42-.65.72-.94c.3-.29.63-.57.99-.83.37-.26.73-.52,1.09-.78.37-.26.73-.52,1.09-.79.35-.27.67-.55.94-.84.28-.29.5-.6.67-.93s.25-.68.25-1.07-.07-.72-.21-1.01-.33-.53-.56-.73-.52-.34-.85-.44c-.33-.1-.69-.15-1.08-.15-.51,0-.94.08-1.3.23s-.66.37-.89.64-.4.6-.5.97c-.1.38-.16.79-.16,1.24h-.29c0-1.07.27-1.9.79-2.48.52-.59,1.3-.88,2.34-.88.42,0,.81.05,1.17.16.36.11.68.27.94.49.27.22.48.49.64.81.16.33.24.71.24,1.14,0,.53-.14,1.02-.43,1.46s-.65.85-1.08,1.23c-.43.38-.9.74-1.41,1.08-.51.34-.98.68-1.42,1.02-.44.34-.82.69-1.14,1.04-.31.36-.49.75-.53,1.17h6.26v.29Z"/>
          </g>
          <g class="uuid-e04722e9-1b4a-4730-b2f3-4464b3999909">
            <path class="uuid-85952453-79bc-4247-bb70-e15bed4841fe" d="m611.46,797.38h-6.55c0-.41.08-.78.26-1.12s.42-.65.72-.94c.3-.29.63-.57.99-.83.37-.26.73-.52,1.09-.78.37-.26.73-.52,1.09-.79.35-.27.67-.55.94-.84.28-.29.5-.6.67-.93s.25-.68.25-1.07-.07-.72-.21-1.01-.33-.53-.56-.73-.52-.34-.85-.44c-.33-.1-.69-.15-1.08-.15-.51,0-.94.08-1.3.23s-.66.37-.89.64-.4.6-.5.97c-.1.38-.16.79-.16,1.24h-.29c0-1.07.27-1.9.79-2.48.52-.59,1.3-.88,2.34-.88.42,0,.81.05,1.17.16.36.11.68.27.94.49.27.22.48.49.64.81.16.33.24.71.24,1.14,0,.53-.14,1.02-.43,1.46s-.65.85-1.08,1.23c-.43.38-.9.74-1.41,1.08-.51.34-.98.68-1.42,1.02-.44.34-.82.69-1.14,1.04-.31.36-.49.75-.53,1.17h6.26v.29Z"/>
          </g>
          <g class="uuid-e04722e9-1b4a-4730-b2f3-4464b3999909">
            <path class="uuid-a65f8481-7b1c-4d31-b14c-994d0f7c9dcc" d="m611.46,797.38h-6.55c0-.41.08-.78.26-1.12s.42-.65.72-.94c.3-.29.63-.57.99-.83.37-.26.73-.52,1.09-.78.37-.26.73-.52,1.09-.79.35-.27.67-.55.94-.84.28-.29.5-.6.67-.93s.25-.68.25-1.07-.07-.72-.21-1.01-.33-.53-.56-.73-.52-.34-.85-.44c-.33-.1-.69-.15-1.08-.15-.51,0-.94.08-1.3.23s-.66.37-.89.64-.4.6-.5.97c-.1.38-.16.79-.16,1.24h-.29c0-1.07.27-1.9.79-2.48.52-.59,1.3-.88,2.34-.88.42,0,.81.05,1.17.16.36.11.68.27.94.49.27.22.48.49.64.81.16.33.24.71.24,1.14,0,.53-.14,1.02-.43,1.46s-.65.85-1.08,1.23c-.43.38-.9.74-1.41,1.08-.51.34-.98.68-1.42,1.02-.44.34-.82.69-1.14,1.04-.31.36-.49.75-.53,1.17h6.26v.29Z"/>
          </g>
          <g class="uuid-e04722e9-1b4a-4730-b2f3-4464b3999909">
            <path class="uuid-a65f8481-7b1c-4d31-b14c-994d0f7c9dcc" d="m604.61,702.73l4.86-6.85h.36v6.91h1.76v.29h-1.76v2.53h-.29v-2.53h-4.93v-.34Zm4.91-6.45l-4.62,6.51h4.65v-6.51h-.03Z"/>
          </g>
          <g class="uuid-e04722e9-1b4a-4730-b2f3-4464b3999909">
            <path class="uuid-85952453-79bc-4247-bb70-e15bed4841fe" d="m604.61,702.73l4.86-6.85h.36v6.91h1.76v.29h-1.76v2.53h-.29v-2.53h-4.93v-.34Zm4.91-6.45l-4.62,6.51h4.65v-6.51h-.03Z"/>
          </g>
          <g class="uuid-e04722e9-1b4a-4730-b2f3-4464b3999909">
            <path class="uuid-a65f8481-7b1c-4d31-b14c-994d0f7c9dcc" d="m604.61,702.73l4.86-6.85h.36v6.91h1.76v.29h-1.76v2.53h-.29v-2.53h-4.93v-.34Zm4.91-6.45l-4.62,6.51h4.65v-6.51h-.03Z"/>
          </g>
          <g class="uuid-e04722e9-1b4a-4730-b2f3-4464b3999909">
            <path class="uuid-a65f8481-7b1c-4d31-b14c-994d0f7c9dcc" d="m610.61,604.12c-.21-.28-.44-.5-.69-.67-.26-.16-.52-.27-.8-.34-.28-.06-.54-.09-.79-.09-.72,0-1.31.18-1.76.54-.45.36-.79.82-1.04,1.37-.24.55-.4,1.15-.48,1.79-.08.64-.11,1.24-.1,1.8h.03c.07-.34.2-.66.39-.96.2-.29.43-.55.72-.78.28-.22.6-.4.96-.52.36-.12.73-.19,1.11-.19.42,0,.83.08,1.24.24s.77.39,1.08.69c.31.3.57.65.76,1.06s.29.87.29,1.37-.09.93-.27,1.34-.43.76-.74,1.06c-.31.3-.67.53-1.07.69s-.83.25-1.28.25c-.33,0-.65-.04-.94-.13-.29-.09-.56-.2-.79-.34-.24-.14-.45-.31-.64-.49-.19-.18-.34-.37-.46-.56-.28-.43-.45-.92-.53-1.47-.08-.55-.11-1.14-.11-1.77s.06-1.22.17-1.85c.11-.63.31-1.2.59-1.72.28-.52.66-.93,1.12-1.26s1.06-.49,1.77-.49c.42,0,.8.06,1.15.19.35.13.65.3.91.52.26.22.47.48.63.78.16.3.27.62.31.97h-.29c-.1-.44-.25-.8-.45-1.08Zm.38,4.13c-.16-.37-.38-.7-.66-.97-.28-.28-.6-.5-.97-.66s-.77-.24-1.2-.24-.83.08-1.2.24c-.37.16-.7.38-.97.66-.28.28-.5.6-.66.97-.16.37-.24.77-.24,1.2s.08.83.24,1.2c.16.37.38.7.66.97.28.28.6.5.97.66.37.16.77.24,1.2.24s.83-.08,1.2-.24.7-.38.97-.66c.28-.28.5-.6.66-.97s.24-.77.24-1.2-.08-.83-.24-1.2Z"/>
          </g>
          <g class="uuid-e04722e9-1b4a-4730-b2f3-4464b3999909">
            <path class="uuid-85952453-79bc-4247-bb70-e15bed4841fe" d="m610.61,604.12c-.21-.28-.44-.5-.69-.67-.26-.16-.52-.27-.8-.34-.28-.06-.54-.09-.79-.09-.72,0-1.31.18-1.76.54-.45.36-.79.82-1.04,1.37-.24.55-.4,1.15-.48,1.79-.08.64-.11,1.24-.1,1.8h.03c.07-.34.2-.66.39-.96.2-.29.43-.55.72-.78.28-.22.6-.4.96-.52.36-.12.73-.19,1.11-.19.42,0,.83.08,1.24.24s.77.39,1.08.69c.31.3.57.65.76,1.06s.29.87.29,1.37-.09.93-.27,1.34-.43.76-.74,1.06c-.31.3-.67.53-1.07.69s-.83.25-1.28.25c-.33,0-.65-.04-.94-.13-.29-.09-.56-.2-.79-.34-.24-.14-.45-.31-.64-.49-.19-.18-.34-.37-.46-.56-.28-.43-.45-.92-.53-1.47-.08-.55-.11-1.14-.11-1.77s.06-1.22.17-1.85c.11-.63.31-1.2.59-1.72.28-.52.66-.93,1.12-1.26s1.06-.49,1.77-.49c.42,0,.8.06,1.15.19.35.13.65.3.91.52.26.22.47.48.63.78.16.3.27.62.31.97h-.29c-.1-.44-.25-.8-.45-1.08Zm.38,4.13c-.16-.37-.38-.7-.66-.97-.28-.28-.6-.5-.97-.66s-.77-.24-1.2-.24-.83.08-1.2.24c-.37.16-.7.38-.97.66-.28.28-.5.6-.66.97-.16.37-.24.77-.24,1.2s.08.83.24,1.2c.16.37.38.7.66.97.28.28.6.5.97.66.37.16.77.24,1.2.24s.83-.08,1.2-.24.7-.38.97-.66c.28-.28.5-.6.66-.97s.24-.77.24-1.2-.08-.83-.24-1.2Z"/>
          </g>
          <g class="uuid-e04722e9-1b4a-4730-b2f3-4464b3999909">
            <path class="uuid-a65f8481-7b1c-4d31-b14c-994d0f7c9dcc" d="m610.61,604.12c-.21-.28-.44-.5-.69-.67-.26-.16-.52-.27-.8-.34-.28-.06-.54-.09-.79-.09-.72,0-1.31.18-1.76.54-.45.36-.79.82-1.04,1.37-.24.55-.4,1.15-.48,1.79-.08.64-.11,1.24-.1,1.8h.03c.07-.34.2-.66.39-.96.2-.29.43-.55.72-.78.28-.22.6-.4.96-.52.36-.12.73-.19,1.11-.19.42,0,.83.08,1.24.24s.77.39,1.08.69c.31.3.57.65.76,1.06s.29.87.29,1.37-.09.93-.27,1.34-.43.76-.74,1.06c-.31.3-.67.53-1.07.69s-.83.25-1.28.25c-.33,0-.65-.04-.94-.13-.29-.09-.56-.2-.79-.34-.24-.14-.45-.31-.64-.49-.19-.18-.34-.37-.46-.56-.28-.43-.45-.92-.53-1.47-.08-.55-.11-1.14-.11-1.77s.06-1.22.17-1.85c.11-.63.31-1.2.59-1.72.28-.52.66-.93,1.12-1.26s1.06-.49,1.77-.49c.42,0,.8.06,1.15.19.35.13.65.3.91.52.26.22.47.48.63.78.16.3.27.62.31.97h-.29c-.1-.44-.25-.8-.45-1.08Zm.38,4.13c-.16-.37-.38-.7-.66-.97-.28-.28-.6-.5-.97-.66s-.77-.24-1.2-.24-.83.08-1.2.24c-.37.16-.7.38-.97.66-.28.28-.5.6-.66.97-.16.37-.24.77-.24,1.2s.08.83.24,1.2c.16.37.38.7.66.97.28.28.6.5.97.66.37.16.77.24,1.2.24s.83-.08,1.2-.24.7-.38.97-.66c.28-.28.5-.6.66-.97s.24-.77.24-1.2-.08-.83-.24-1.2Z"/>
          </g>
          <g class="uuid-e04722e9-1b4a-4730-b2f3-4464b3999909">
            <path class="uuid-a65f8481-7b1c-4d31-b14c-994d0f7c9dcc" d="m610.97,516.33c.44.46.67,1.07.67,1.81,0,.51-.1.94-.29,1.3-.19.36-.45.66-.77.89-.32.23-.69.41-1.12.52s-.88.16-1.36.16-.93-.05-1.36-.16c-.43-.11-.8-.28-1.12-.52-.32-.23-.57-.53-.77-.89-.19-.36-.29-.8-.29-1.3,0-.74.22-1.35.67-1.81.44-.46,1.05-.73,1.82-.81v-.03c-.28-.04-.54-.12-.78-.24-.24-.12-.46-.27-.64-.44s-.32-.38-.43-.62-.16-.5-.16-.77c0-.44.08-.81.24-1.12.16-.31.37-.56.65-.76.28-.2.6-.35.97-.44s.77-.14,1.19-.14.82.04,1.19.14c.37.09.7.24.97.44s.49.46.65.76c.16.31.24.68.24,1.12,0,.28-.05.53-.16.77s-.25.45-.43.62-.39.32-.64.44-.5.2-.78.24v.03c.77.08,1.38.35,1.82.81Zm.11.64c-.18-.31-.42-.57-.72-.76s-.65-.33-1.04-.41-.8-.12-1.22-.12-.82.04-1.22.12-.74.22-1.04.41-.54.44-.72.76-.27.71-.27,1.17.09.87.26,1.19c.18.33.41.6.71.81.3.21.65.36,1.04.46.39.1.8.14,1.23.14s.84-.05,1.23-.14c.39-.09.74-.25,1.04-.46s.54-.48.72-.81c.18-.33.26-.73.26-1.19s-.09-.86-.27-1.17Zm-.45-4.59c-.16-.28-.36-.5-.62-.67s-.55-.29-.88-.36c-.33-.07-.67-.11-1.02-.11s-.69.04-1.02.11c-.33.07-.62.19-.88.36-.26.17-.46.39-.62.67s-.24.62-.24,1.04c0,.34.08.64.25.89.17.25.38.46.64.62.26.16.56.27.89.35.33.08.66.11.98.11s.65-.04.98-.11c.33-.08.62-.19.89-.35s.48-.36.64-.62c.17-.25.25-.55.25-.89,0-.42-.08-.77-.24-1.04Z"/>
          </g>
          <g class="uuid-e04722e9-1b4a-4730-b2f3-4464b3999909">
            <path class="uuid-85952453-79bc-4247-bb70-e15bed4841fe" d="m610.97,516.33c.44.46.67,1.07.67,1.81,0,.51-.1.94-.29,1.3-.19.36-.45.66-.77.89-.32.23-.69.41-1.12.52s-.88.16-1.36.16-.93-.05-1.36-.16c-.43-.11-.8-.28-1.12-.52-.32-.23-.57-.53-.77-.89-.19-.36-.29-.8-.29-1.3,0-.74.22-1.35.67-1.81.44-.46,1.05-.73,1.82-.81v-.03c-.28-.04-.54-.12-.78-.24-.24-.12-.46-.27-.64-.44s-.32-.38-.43-.62-.16-.5-.16-.77c0-.44.08-.81.24-1.12.16-.31.37-.56.65-.76.28-.2.6-.35.97-.44s.77-.14,1.19-.14.82.04,1.19.14c.37.09.7.24.97.44s.49.46.65.76c.16.31.24.68.24,1.12,0,.28-.05.53-.16.77s-.25.45-.43.62-.39.32-.64.44-.5.2-.78.24v.03c.77.08,1.38.35,1.82.81Zm.11.64c-.18-.31-.42-.57-.72-.76s-.65-.33-1.04-.41-.8-.12-1.22-.12-.82.04-1.22.12-.74.22-1.04.41-.54.44-.72.76-.27.71-.27,1.17.09.87.26,1.19c.18.33.41.6.71.81.3.21.65.36,1.04.46.39.1.8.14,1.23.14s.84-.05,1.23-.14c.39-.09.74-.25,1.04-.46s.54-.48.72-.81c.18-.33.26-.73.26-1.19s-.09-.86-.27-1.17Zm-.45-4.59c-.16-.28-.36-.5-.62-.67s-.55-.29-.88-.36c-.33-.07-.67-.11-1.02-.11s-.69.04-1.02.11c-.33.07-.62.19-.88.36-.26.17-.46.39-.62.67s-.24.62-.24,1.04c0,.34.08.64.25.89.17.25.38.46.64.62.26.16.56.27.89.35.33.08.66.11.98.11s.65-.04.98-.11c.33-.08.62-.19.89-.35s.48-.36.64-.62c.17-.25.25-.55.25-.89,0-.42-.08-.77-.24-1.04Z"/>
          </g>
          <g class="uuid-e04722e9-1b4a-4730-b2f3-4464b3999909">
            <path class="uuid-a65f8481-7b1c-4d31-b14c-994d0f7c9dcc" d="m610.97,516.33c.44.46.67,1.07.67,1.81,0,.51-.1.94-.29,1.3-.19.36-.45.66-.77.89-.32.23-.69.41-1.12.52s-.88.16-1.36.16-.93-.05-1.36-.16c-.43-.11-.8-.28-1.12-.52-.32-.23-.57-.53-.77-.89-.19-.36-.29-.8-.29-1.3,0-.74.22-1.35.67-1.81.44-.46,1.05-.73,1.82-.81v-.03c-.28-.04-.54-.12-.78-.24-.24-.12-.46-.27-.64-.44s-.32-.38-.43-.62-.16-.5-.16-.77c0-.44.08-.81.24-1.12.16-.31.37-.56.65-.76.28-.2.6-.35.97-.44s.77-.14,1.19-.14.82.04,1.19.14c.37.09.7.24.97.44s.49.46.65.76c.16.31.24.68.24,1.12,0,.28-.05.53-.16.77s-.25.45-.43.62-.39.32-.64.44-.5.2-.78.24v.03c.77.08,1.38.35,1.82.81Zm.11.64c-.18-.31-.42-.57-.72-.76s-.65-.33-1.04-.41-.8-.12-1.22-.12-.82.04-1.22.12-.74.22-1.04.41-.54.44-.72.76-.27.71-.27,1.17.09.87.26,1.19c.18.33.41.6.71.81.3.21.65.36,1.04.46.39.1.8.14,1.23.14s.84-.05,1.23-.14c.39-.09.74-.25,1.04-.46s.54-.48.72-.81c.18-.33.26-.73.26-1.19s-.09-.86-.27-1.17Zm-.45-4.59c-.16-.28-.36-.5-.62-.67s-.55-.29-.88-.36c-.33-.07-.67-.11-1.02-.11s-.69.04-1.02.11c-.33.07-.62.19-.88.36-.26.17-.46.39-.62.67s-.24.62-.24,1.04c0,.34.08.64.25.89.17.25.38.46.64.62.26.16.56.27.89.35.33.08.66.11.98.11s.65-.04.98-.11c.33-.08.62-.19.89-.35s.48-.36.64-.62c.17-.25.25-.55.25-.89,0-.42-.08-.77-.24-1.04Z"/>
          </g>
          <g class="uuid-e04722e9-1b4a-4730-b2f3-4464b3999909">
            <path class="uuid-a65f8481-7b1c-4d31-b14c-994d0f7c9dcc" d="m601.21,418.54c-.3.41-.68.77-1.15,1.07-.47.3-.95.52-1.44.65v-.29c.3-.1.56-.2.79-.31.23-.11.44-.24.64-.39s.39-.31.58-.49.38-.39.58-.62h.31v9.73h-.29v-9.35h-.03Z"/>
            <path class="uuid-a65f8481-7b1c-4d31-b14c-994d0f7c9dcc" d="m612.4,424.85c-.12.6-.32,1.14-.61,1.62s-.66.86-1.13,1.15c-.47.29-1.05.44-1.76.44s-1.28-.15-1.75-.44c-.47-.29-.85-.67-1.14-1.15s-.49-1.02-.61-1.62-.18-1.21-.18-1.82.06-1.22.18-1.82c.12-.6.32-1.14.61-1.62.29-.48.67-.86,1.14-1.16s1.06-.44,1.75-.44,1.29.15,1.76.44.84.68,1.13,1.16c.29.48.49,1.02.61,1.62.12.6.18,1.21.18,1.82s-.06,1.22-.18,1.82Zm-.26-3.48c-.1-.56-.29-1.07-.54-1.53-.26-.46-.6-.83-1.04-1.12-.43-.29-.98-.44-1.65-.44s-1.22.15-1.65.44c-.43.29-.78.67-1.04,1.12-.26.46-.44.97-.54,1.53s-.16,1.12-.16,1.66.05,1.1.16,1.66.29,1.07.54,1.53c.26.46.6.83,1.04,1.12.43.29.98.44,1.65.44s1.22-.15,1.65-.44c.43-.29.78-.67,1.04-1.12.26-.46.44-.97.54-1.53s.16-1.12.16-1.66-.05-1.1-.16-1.66Z"/>
          </g>
          <g class="uuid-e04722e9-1b4a-4730-b2f3-4464b3999909">
            <path class="uuid-85952453-79bc-4247-bb70-e15bed4841fe" d="m601.21,418.54c-.3.41-.68.77-1.15,1.07-.47.3-.95.52-1.44.65v-.29c.3-.1.56-.2.79-.31.23-.11.44-.24.64-.39s.39-.31.58-.49.38-.39.58-.62h.31v9.73h-.29v-9.35h-.03Z"/>
            <path class="uuid-85952453-79bc-4247-bb70-e15bed4841fe" d="m612.4,424.85c-.12.6-.32,1.14-.61,1.62s-.66.86-1.13,1.15c-.47.29-1.05.44-1.76.44s-1.28-.15-1.75-.44c-.47-.29-.85-.67-1.14-1.15s-.49-1.02-.61-1.62-.18-1.21-.18-1.82.06-1.22.18-1.82c.12-.6.32-1.14.61-1.62.29-.48.67-.86,1.14-1.16s1.06-.44,1.75-.44,1.29.15,1.76.44.84.68,1.13,1.16c.29.48.49,1.02.61,1.62.12.6.18,1.21.18,1.82s-.06,1.22-.18,1.82Zm-.26-3.48c-.1-.56-.29-1.07-.54-1.53-.26-.46-.6-.83-1.04-1.12-.43-.29-.98-.44-1.65-.44s-1.22.15-1.65.44c-.43.29-.78.67-1.04,1.12-.26.46-.44.97-.54,1.53s-.16,1.12-.16,1.66.05,1.1.16,1.66.29,1.07.54,1.53c.26.46.6.83,1.04,1.12.43.29.98.44,1.65.44s1.22-.15,1.65-.44c.43-.29.78-.67,1.04-1.12.26-.46.44-.97.54-1.53s.16-1.12.16-1.66-.05-1.1-.16-1.66Z"/>
          </g>
          <g class="uuid-e04722e9-1b4a-4730-b2f3-4464b3999909">
            <path class="uuid-a65f8481-7b1c-4d31-b14c-994d0f7c9dcc" d="m601.21,418.54c-.3.41-.68.77-1.15,1.07-.47.3-.95.52-1.44.65v-.29c.3-.1.56-.2.79-.31.23-.11.44-.24.64-.39s.39-.31.58-.49.38-.39.58-.62h.31v9.73h-.29v-9.35h-.03Z"/>
            <path class="uuid-a65f8481-7b1c-4d31-b14c-994d0f7c9dcc" d="m612.4,424.85c-.12.6-.32,1.14-.61,1.62s-.66.86-1.13,1.15c-.47.29-1.05.44-1.76.44s-1.28-.15-1.75-.44c-.47-.29-.85-.67-1.14-1.15s-.49-1.02-.61-1.62-.18-1.21-.18-1.82.06-1.22.18-1.82c.12-.6.32-1.14.61-1.62.29-.48.67-.86,1.14-1.16s1.06-.44,1.75-.44,1.29.15,1.76.44.84.68,1.13,1.16c.29.48.49,1.02.61,1.62.12.6.18,1.21.18,1.82s-.06,1.22-.18,1.82Zm-.26-3.48c-.1-.56-.29-1.07-.54-1.53-.26-.46-.6-.83-1.04-1.12-.43-.29-.98-.44-1.65-.44s-1.22.15-1.65.44c-.43.29-.78.67-1.04,1.12-.26.46-.44.97-.54,1.53s-.16,1.12-.16,1.66.05,1.1.16,1.66.29,1.07.54,1.53c.26.46.6.83,1.04,1.12.43.29.98.44,1.65.44s1.22-.15,1.65-.44c.43-.29.78-.67,1.04-1.12.26-.46.44-.97.54-1.53s.16-1.12.16-1.66-.05-1.1-.16-1.66Z"/>
          </g>
          <g class="uuid-e04722e9-1b4a-4730-b2f3-4464b3999909">
            <path class="uuid-a65f8481-7b1c-4d31-b14c-994d0f7c9dcc" d="m601.21,326.76c-.3.41-.68.77-1.15,1.07-.47.3-.95.52-1.44.65v-.29c.3-.1.56-.2.79-.31.23-.11.44-.24.64-.39s.39-.31.58-.49.38-.39.58-.62h.31v9.73h-.29v-9.35h-.03Z"/>
            <path class="uuid-a65f8481-7b1c-4d31-b14c-994d0f7c9dcc" d="m612.27,336.12h-6.55c0-.41.08-.78.26-1.12.18-.33.42-.65.72-.94.3-.29.63-.57.99-.83.37-.26.73-.52,1.09-.78.37-.26.73-.52,1.09-.79.35-.27.67-.55.94-.84.28-.29.5-.6.67-.93.17-.33.25-.68.25-1.07s-.07-.72-.21-1.01c-.14-.29-.33-.53-.56-.73-.24-.2-.52-.34-.85-.44s-.69-.15-1.08-.15c-.51,0-.94.08-1.3.23-.36.15-.66.36-.89.64-.23.27-.4.6-.5.97-.1.38-.16.79-.16,1.24h-.29c0-1.07.27-1.9.79-2.48s1.3-.88,2.34-.88c.42,0,.81.05,1.17.16.36.11.68.27.94.49.27.22.48.49.64.82.16.32.24.71.24,1.14,0,.53-.14,1.02-.43,1.46-.29.44-.65.85-1.08,1.23s-.9.74-1.41,1.08-.98.68-1.42,1.02c-.44.34-.82.69-1.14,1.04-.31.36-.49.75-.53,1.17h6.26v.29Z"/>
          </g>
          <g class="uuid-e04722e9-1b4a-4730-b2f3-4464b3999909">
            <path class="uuid-85952453-79bc-4247-bb70-e15bed4841fe" d="m601.21,326.76c-.3.41-.68.77-1.15,1.07-.47.3-.95.52-1.44.65v-.29c.3-.1.56-.2.79-.31.23-.11.44-.24.64-.39s.39-.31.58-.49.38-.39.58-.62h.31v9.73h-.29v-9.35h-.03Z"/>
            <path class="uuid-85952453-79bc-4247-bb70-e15bed4841fe" d="m612.27,336.12h-6.55c0-.41.08-.78.26-1.12.18-.33.42-.65.72-.94.3-.29.63-.57.99-.83.37-.26.73-.52,1.09-.78.37-.26.73-.52,1.09-.79.35-.27.67-.55.94-.84.28-.29.5-.6.67-.93.17-.33.25-.68.25-1.07s-.07-.72-.21-1.01c-.14-.29-.33-.53-.56-.73-.24-.2-.52-.34-.85-.44s-.69-.15-1.08-.15c-.51,0-.94.08-1.3.23-.36.15-.66.36-.89.64-.23.27-.4.6-.5.97-.1.38-.16.79-.16,1.24h-.29c0-1.07.27-1.9.79-2.48s1.3-.88,2.34-.88c.42,0,.81.05,1.17.16.36.11.68.27.94.49.27.22.48.49.64.82.16.32.24.71.24,1.14,0,.53-.14,1.02-.43,1.46-.29.44-.65.85-1.08,1.23s-.9.74-1.41,1.08-.98.68-1.42,1.02c-.44.34-.82.69-1.14,1.04-.31.36-.49.75-.53,1.17h6.26v.29Z"/>
          </g>
          <g class="uuid-e04722e9-1b4a-4730-b2f3-4464b3999909">
            <path class="uuid-a65f8481-7b1c-4d31-b14c-994d0f7c9dcc" d="m601.21,326.76c-.3.41-.68.77-1.15,1.07-.47.3-.95.52-1.44.65v-.29c.3-.1.56-.2.79-.31.23-.11.44-.24.64-.39s.39-.31.58-.49.38-.39.58-.62h.31v9.73h-.29v-9.35h-.03Z"/>
            <path class="uuid-a65f8481-7b1c-4d31-b14c-994d0f7c9dcc" d="m612.27,336.12h-6.55c0-.41.08-.78.26-1.12.18-.33.42-.65.72-.94.3-.29.63-.57.99-.83.37-.26.73-.52,1.09-.78.37-.26.73-.52,1.09-.79.35-.27.67-.55.94-.84.28-.29.5-.6.67-.93.17-.33.25-.68.25-1.07s-.07-.72-.21-1.01c-.14-.29-.33-.53-.56-.73-.24-.2-.52-.34-.85-.44s-.69-.15-1.08-.15c-.51,0-.94.08-1.3.23-.36.15-.66.36-.89.64-.23.27-.4.6-.5.97-.1.38-.16.79-.16,1.24h-.29c0-1.07.27-1.9.79-2.48s1.3-.88,2.34-.88c.42,0,.81.05,1.17.16.36.11.68.27.94.49.27.22.48.49.64.82.16.32.24.71.24,1.14,0,.53-.14,1.02-.43,1.46-.29.44-.65.85-1.08,1.23s-.9.74-1.41,1.08-.98.68-1.42,1.02c-.44.34-.82.69-1.14,1.04-.31.36-.49.75-.53,1.17h6.26v.29Z"/>
          </g>
          <g class="uuid-e04722e9-1b4a-4730-b2f3-4464b3999909">
            <path class="uuid-a65f8481-7b1c-4d31-b14c-994d0f7c9dcc" d="m601.21,233.79c-.3.41-.68.77-1.15,1.07-.47.3-.95.52-1.44.65v-.29c.3-.1.56-.2.79-.31.23-.11.44-.24.64-.39s.39-.31.58-.49.38-.39.58-.62h.31v9.73h-.29v-9.35h-.03Z"/>
            <path class="uuid-a65f8481-7b1c-4d31-b14c-994d0f7c9dcc" d="m605.41,240.27l4.86-6.85h.36v6.91h1.76v.29h-1.76v2.53h-.29v-2.53h-4.93v-.34Zm4.91-6.45l-4.62,6.51h4.65v-6.51h-.03Z"/>
          </g>
          <g class="uuid-e04722e9-1b4a-4730-b2f3-4464b3999909">
            <path class="uuid-85952453-79bc-4247-bb70-e15bed4841fe" d="m601.21,233.79c-.3.41-.68.77-1.15,1.07-.47.3-.95.52-1.44.65v-.29c.3-.1.56-.2.79-.31.23-.11.44-.24.64-.39s.39-.31.58-.49.38-.39.58-.62h.31v9.73h-.29v-9.35h-.03Z"/>
            <path class="uuid-85952453-79bc-4247-bb70-e15bed4841fe" d="m605.41,240.27l4.86-6.85h.36v6.91h1.76v.29h-1.76v2.53h-.29v-2.53h-4.93v-.34Zm4.91-6.45l-4.62,6.51h4.65v-6.51h-.03Z"/>
          </g>
          <g class="uuid-e04722e9-1b4a-4730-b2f3-4464b3999909">
            <path class="uuid-a65f8481-7b1c-4d31-b14c-994d0f7c9dcc" d="m601.21,233.79c-.3.41-.68.77-1.15,1.07-.47.3-.95.52-1.44.65v-.29c.3-.1.56-.2.79-.31.23-.11.44-.24.64-.39s.39-.31.58-.49.38-.39.58-.62h.31v9.73h-.29v-9.35h-.03Z"/>
            <path class="uuid-a65f8481-7b1c-4d31-b14c-994d0f7c9dcc" d="m605.41,240.27l4.86-6.85h.36v6.91h1.76v.29h-1.76v2.53h-.29v-2.53h-4.93v-.34Zm4.91-6.45l-4.62,6.51h4.65v-6.51h-.03Z"/>
          </g>
          <g class="uuid-e04722e9-1b4a-4730-b2f3-4464b3999909">
            <path class="uuid-a65f8481-7b1c-4d31-b14c-994d0f7c9dcc" d="m601.21,142.02c-.3.41-.68.77-1.15,1.07-.47.3-.95.52-1.44.65v-.29c.3-.1.56-.2.79-.31.23-.11.44-.24.64-.39s.39-.31.58-.49.38-.39.58-.62h.31v9.73h-.29v-9.35h-.03Z"/>
            <path class="uuid-a65f8481-7b1c-4d31-b14c-994d0f7c9dcc" d="m611.41,142.85c-.21-.28-.44-.5-.69-.67-.26-.16-.52-.27-.8-.34-.28-.06-.54-.09-.79-.09-.72,0-1.31.18-1.76.54s-.79.82-1.04,1.37-.4,1.15-.48,1.79c-.08.64-.11,1.24-.1,1.8h.03c.07-.34.2-.66.39-.96s.43-.56.72-.78c.28-.22.6-.4.96-.52.36-.12.73-.19,1.11-.19.42,0,.83.08,1.24.24s.77.39,1.08.69c.31.3.57.65.76,1.06s.29.87.29,1.37-.09.93-.27,1.34c-.18.41-.43.76-.74,1.06-.31.3-.67.53-1.07.69-.41.17-.83.25-1.28.25-.33,0-.65-.04-.94-.13-.29-.09-.56-.2-.79-.34-.24-.14-.45-.31-.64-.49-.19-.18-.34-.37-.46-.56-.28-.43-.45-.92-.53-1.47-.08-.55-.11-1.14-.11-1.77s.06-1.22.17-1.84c.11-.63.31-1.2.59-1.72.28-.51.66-.93,1.12-1.26s1.06-.49,1.77-.49c.42,0,.8.06,1.15.19.35.13.65.3.91.52.26.22.47.48.63.78s.27.62.31.97h-.29c-.1-.44-.25-.8-.45-1.08Zm.38,4.13c-.16-.37-.38-.7-.66-.97-.28-.28-.6-.5-.97-.66s-.77-.24-1.2-.24-.83.08-1.2.24c-.37.16-.7.38-.97.66s-.5.6-.66.97c-.16.37-.24.77-.24,1.2s.08.83.24,1.2c.16.37.38.7.66.97.28.28.6.5.97.66.37.16.77.24,1.2.24s.83-.08,1.2-.24.7-.38.97-.66.5-.6.66-.97c.16-.37.24-.77.24-1.2s-.08-.83-.24-1.2Z"/>
          </g>
          <g class="uuid-e04722e9-1b4a-4730-b2f3-4464b3999909">
            <path class="uuid-85952453-79bc-4247-bb70-e15bed4841fe" d="m601.21,142.02c-.3.41-.68.77-1.15,1.07-.47.3-.95.52-1.44.65v-.29c.3-.1.56-.2.79-.31.23-.11.44-.24.64-.39s.39-.31.58-.49.38-.39.58-.62h.31v9.73h-.29v-9.35h-.03Z"/>
            <path class="uuid-85952453-79bc-4247-bb70-e15bed4841fe" d="m611.41,142.85c-.21-.28-.44-.5-.69-.67-.26-.16-.52-.27-.8-.34-.28-.06-.54-.09-.79-.09-.72,0-1.31.18-1.76.54s-.79.82-1.04,1.37-.4,1.15-.48,1.79c-.08.64-.11,1.24-.1,1.8h.03c.07-.34.2-.66.39-.96s.43-.56.72-.78c.28-.22.6-.4.96-.52.36-.12.73-.19,1.11-.19.42,0,.83.08,1.24.24s.77.39,1.08.69c.31.3.57.65.76,1.06s.29.87.29,1.37-.09.93-.27,1.34c-.18.41-.43.76-.74,1.06-.31.3-.67.53-1.07.69-.41.17-.83.25-1.28.25-.33,0-.65-.04-.94-.13-.29-.09-.56-.2-.79-.34-.24-.14-.45-.31-.64-.49-.19-.18-.34-.37-.46-.56-.28-.43-.45-.92-.53-1.47-.08-.55-.11-1.14-.11-1.77s.06-1.22.17-1.84c.11-.63.31-1.2.59-1.72.28-.51.66-.93,1.12-1.26s1.06-.49,1.77-.49c.42,0,.8.06,1.15.19.35.13.65.3.91.52.26.22.47.48.63.78s.27.62.31.97h-.29c-.1-.44-.25-.8-.45-1.08Zm.38,4.13c-.16-.37-.38-.7-.66-.97-.28-.28-.6-.5-.97-.66s-.77-.24-1.2-.24-.83.08-1.2.24c-.37.16-.7.38-.97.66s-.5.6-.66.97c-.16.37-.24.77-.24,1.2s.08.83.24,1.2c.16.37.38.7.66.97.28.28.6.5.97.66.37.16.77.24,1.2.24s.83-.08,1.2-.24.7-.38.97-.66.5-.6.66-.97c.16-.37.24-.77.24-1.2s-.08-.83-.24-1.2Z"/>
          </g>
          <g class="uuid-e04722e9-1b4a-4730-b2f3-4464b3999909">
            <path class="uuid-a65f8481-7b1c-4d31-b14c-994d0f7c9dcc" d="m601.21,142.02c-.3.41-.68.77-1.15,1.07-.47.3-.95.52-1.44.65v-.29c.3-.1.56-.2.79-.31.23-.11.44-.24.64-.39s.39-.31.58-.49.38-.39.58-.62h.31v9.73h-.29v-9.35h-.03Z"/>
            <path class="uuid-a65f8481-7b1c-4d31-b14c-994d0f7c9dcc" d="m611.41,142.85c-.21-.28-.44-.5-.69-.67-.26-.16-.52-.27-.8-.34-.28-.06-.54-.09-.79-.09-.72,0-1.31.18-1.76.54s-.79.82-1.04,1.37-.4,1.15-.48,1.79c-.08.64-.11,1.24-.1,1.8h.03c.07-.34.2-.66.39-.96s.43-.56.72-.78c.28-.22.6-.4.96-.52.36-.12.73-.19,1.11-.19.42,0,.83.08,1.24.24s.77.39,1.08.69c.31.3.57.65.76,1.06s.29.87.29,1.37-.09.93-.27,1.34c-.18.41-.43.76-.74,1.06-.31.3-.67.53-1.07.69-.41.17-.83.25-1.28.25-.33,0-.65-.04-.94-.13-.29-.09-.56-.2-.79-.34-.24-.14-.45-.31-.64-.49-.19-.18-.34-.37-.46-.56-.28-.43-.45-.92-.53-1.47-.08-.55-.11-1.14-.11-1.77s.06-1.22.17-1.84c.11-.63.31-1.2.59-1.72.28-.51.66-.93,1.12-1.26s1.06-.49,1.77-.49c.42,0,.8.06,1.15.19.35.13.65.3.91.52.26.22.47.48.63.78s.27.62.31.97h-.29c-.1-.44-.25-.8-.45-1.08Zm.38,4.13c-.16-.37-.38-.7-.66-.97-.28-.28-.6-.5-.97-.66s-.77-.24-1.2-.24-.83.08-1.2.24c-.37.16-.7.38-.97.66s-.5.6-.66.97c-.16.37-.24.77-.24,1.2s.08.83.24,1.2c.16.37.38.7.66.97.28.28.6.5.97.66.37.16.77.24,1.2.24s.83-.08,1.2-.24.7-.38.97-.66.5-.6.66-.97c.16-.37.24-.77.24-1.2s-.08-.83-.24-1.2Z"/>
          </g>
          <g class="uuid-e04722e9-1b4a-4730-b2f3-4464b3999909">
            <path class="uuid-a65f8481-7b1c-4d31-b14c-994d0f7c9dcc" d="m601.21,49.05c-.3.41-.68.77-1.15,1.07-.47.3-.95.52-1.44.65v-.29c.3-.1.56-.2.79-.31.23-.11.44-.24.64-.39s.39-.31.58-.49.38-.39.58-.62h.31v9.73h-.29v-9.35h-.03Z"/>
            <path class="uuid-a65f8481-7b1c-4d31-b14c-994d0f7c9dcc" d="m611.77,53.88c.44.46.67,1.07.67,1.81,0,.51-.1.94-.29,1.3-.19.36-.45.66-.77.89-.32.23-.69.41-1.12.51-.43.11-.88.16-1.36.16s-.93-.05-1.36-.16c-.43-.11-.8-.28-1.12-.51-.32-.23-.57-.53-.77-.89-.19-.36-.29-.8-.29-1.3,0-.74.22-1.35.67-1.81s1.05-.73,1.82-.81v-.03c-.28-.04-.54-.12-.78-.24-.24-.12-.46-.27-.64-.44-.18-.18-.32-.38-.43-.62s-.16-.5-.16-.77c0-.44.08-.81.24-1.12.16-.31.37-.56.65-.77.28-.2.6-.35.97-.44.37-.09.77-.14,1.19-.14s.82.05,1.19.14c.37.09.7.24.97.44.28.2.49.46.65.77.16.31.24.68.24,1.12,0,.28-.05.53-.16.77s-.25.45-.43.62c-.18.18-.39.32-.64.44-.24.12-.5.2-.78.24v.03c.77.08,1.38.35,1.82.81Zm.11.64c-.18-.31-.42-.57-.72-.76-.3-.19-.65-.33-1.04-.41-.39-.08-.8-.12-1.22-.12s-.82.04-1.22.12c-.39.08-.74.22-1.04.41-.3.19-.54.44-.72.76-.18.31-.27.71-.27,1.17s.09.87.26,1.19c.18.33.41.6.71.81.3.21.65.36,1.04.46s.8.14,1.23.14.84-.05,1.23-.14.74-.25,1.04-.46c.3-.21.54-.48.72-.81.18-.33.26-.73.26-1.19s-.09-.86-.27-1.17Zm-.45-4.59c-.16-.28-.36-.5-.62-.67s-.55-.29-.88-.36c-.33-.07-.67-.11-1.02-.11s-.69.04-1.02.11c-.33.07-.62.19-.88.36-.26.17-.46.39-.62.67s-.24.62-.24,1.04c0,.34.08.64.25.89.17.25.38.46.64.61.26.16.56.27.89.35.33.08.66.11.98.11s.65-.04.98-.11c.33-.08.62-.19.89-.35.26-.16.48-.36.64-.61.17-.25.25-.55.25-.89,0-.42-.08-.77-.24-1.04Z"/>
          </g>
          <g class="uuid-e04722e9-1b4a-4730-b2f3-4464b3999909">
            <path class="uuid-85952453-79bc-4247-bb70-e15bed4841fe" d="m601.21,49.05c-.3.41-.68.77-1.15,1.07-.47.3-.95.52-1.44.65v-.29c.3-.1.56-.2.79-.31.23-.11.44-.24.64-.39s.39-.31.58-.49.38-.39.58-.62h.31v9.73h-.29v-9.35h-.03Z"/>
            <path class="uuid-85952453-79bc-4247-bb70-e15bed4841fe" d="m611.77,53.88c.44.46.67,1.07.67,1.81,0,.51-.1.94-.29,1.3-.19.36-.45.66-.77.89-.32.23-.69.41-1.12.51-.43.11-.88.16-1.36.16s-.93-.05-1.36-.16c-.43-.11-.8-.28-1.12-.51-.32-.23-.57-.53-.77-.89-.19-.36-.29-.8-.29-1.3,0-.74.22-1.35.67-1.81s1.05-.73,1.82-.81v-.03c-.28-.04-.54-.12-.78-.24-.24-.12-.46-.27-.64-.44-.18-.18-.32-.38-.43-.62s-.16-.5-.16-.77c0-.44.08-.81.24-1.12.16-.31.37-.56.65-.77.28-.2.6-.35.97-.44.37-.09.77-.14,1.19-.14s.82.05,1.19.14c.37.09.7.24.97.44.28.2.49.46.65.77.16.31.24.68.24,1.12,0,.28-.05.53-.16.77s-.25.45-.43.62c-.18.18-.39.32-.64.44-.24.12-.5.2-.78.24v.03c.77.08,1.38.35,1.82.81Zm.11.64c-.18-.31-.42-.57-.72-.76-.3-.19-.65-.33-1.04-.41-.39-.08-.8-.12-1.22-.12s-.82.04-1.22.12c-.39.08-.74.22-1.04.41-.3.19-.54.44-.72.76-.18.31-.27.71-.27,1.17s.09.87.26,1.19c.18.33.41.6.71.81.3.21.65.36,1.04.46s.8.14,1.23.14.84-.05,1.23-.14.74-.25,1.04-.46c.3-.21.54-.48.72-.81.18-.33.26-.73.26-1.19s-.09-.86-.27-1.17Zm-.45-4.59c-.16-.28-.36-.5-.62-.67s-.55-.29-.88-.36c-.33-.07-.67-.11-1.02-.11s-.69.04-1.02.11c-.33.07-.62.19-.88.36-.26.17-.46.39-.62.67s-.24.62-.24,1.04c0,.34.08.64.25.89.17.25.38.46.64.61.26.16.56.27.89.35.33.08.66.11.98.11s.65-.04.98-.11c.33-.08.62-.19.89-.35.26-.16.48-.36.64-.61.17-.25.25-.55.25-.89,0-.42-.08-.77-.24-1.04Z"/>
          </g>
          <g class="uuid-e04722e9-1b4a-4730-b2f3-4464b3999909">
            <path class="uuid-a65f8481-7b1c-4d31-b14c-994d0f7c9dcc" d="m601.21,49.05c-.3.41-.68.77-1.15,1.07-.47.3-.95.52-1.44.65v-.29c.3-.1.56-.2.79-.31.23-.11.44-.24.64-.39s.39-.31.58-.49.38-.39.58-.62h.31v9.73h-.29v-9.35h-.03Z"/>
            <path class="uuid-a65f8481-7b1c-4d31-b14c-994d0f7c9dcc" d="m611.77,53.88c.44.46.67,1.07.67,1.81,0,.51-.1.94-.29,1.3-.19.36-.45.66-.77.89-.32.23-.69.41-1.12.51-.43.11-.88.16-1.36.16s-.93-.05-1.36-.16c-.43-.11-.8-.28-1.12-.51-.32-.23-.57-.53-.77-.89-.19-.36-.29-.8-.29-1.3,0-.74.22-1.35.67-1.81s1.05-.73,1.82-.81v-.03c-.28-.04-.54-.12-.78-.24-.24-.12-.46-.27-.64-.44-.18-.18-.32-.38-.43-.62s-.16-.5-.16-.77c0-.44.08-.81.24-1.12.16-.31.37-.56.65-.77.28-.2.6-.35.97-.44.37-.09.77-.14,1.19-.14s.82.05,1.19.14c.37.09.7.24.97.44.28.2.49.46.65.77.16.31.24.68.24,1.12,0,.28-.05.53-.16.77s-.25.45-.43.62c-.18.18-.39.32-.64.44-.24.12-.5.2-.78.24v.03c.77.08,1.38.35,1.82.81Zm.11.64c-.18-.31-.42-.57-.72-.76-.3-.19-.65-.33-1.04-.41-.39-.08-.8-.12-1.22-.12s-.82.04-1.22.12c-.39.08-.74.22-1.04.41-.3.19-.54.44-.72.76-.18.31-.27.71-.27,1.17s.09.87.26,1.19c.18.33.41.6.71.81.3.21.65.36,1.04.46s.8.14,1.23.14.84-.05,1.23-.14.74-.25,1.04-.46c.3-.21.54-.48.72-.81.18-.33.26-.73.26-1.19s-.09-.86-.27-1.17Zm-.45-4.59c-.16-.28-.36-.5-.62-.67s-.55-.29-.88-.36c-.33-.07-.67-.11-1.02-.11s-.69.04-1.02.11c-.33.07-.62.19-.88.36-.26.17-.46.39-.62.67s-.24.62-.24,1.04c0,.34.08.64.25.89.17.25.38.46.64.61.26.16.56.27.89.35.33.08.66.11.98.11s.65-.04.98-.11c.33-.08.62-.19.89-.35.26-.16.48-.36.64-.61.17-.25.25-.55.25-.89,0-.42-.08-.77-.24-1.04Z"/>
          </g>
          <g class="uuid-e04722e9-1b4a-4730-b2f3-4464b3999909">
            <path class="uuid-a65f8481-7b1c-4d31-b14c-994d0f7c9dcc" d="m611.6,899.22c-.12.6-.32,1.14-.61,1.62-.29.48-.66.86-1.13,1.15-.47.29-1.05.44-1.76.44s-1.28-.15-1.75-.44c-.47-.29-.85-.67-1.14-1.15-.29-.48-.49-1.01-.61-1.62-.12-.6-.18-1.21-.18-1.82s.06-1.22.18-1.82.32-1.14.61-1.62c.29-.48.67-.86,1.14-1.16s1.06-.44,1.75-.44,1.29.15,1.76.44.84.68,1.13,1.16c.29.48.49,1.02.61,1.62s.18,1.21.18,1.82-.06,1.22-.18,1.82Zm-.26-3.48c-.1-.56-.29-1.07-.54-1.53-.26-.46-.6-.83-1.04-1.12-.43-.29-.98-.44-1.65-.44s-1.22.15-1.65.44c-.43.29-.78.67-1.04,1.12-.26.46-.44.97-.54,1.53-.1.56-.16,1.12-.16,1.66s.05,1.1.16,1.66c.1.56.29,1.07.54,1.53.26.46.6.83,1.04,1.12.43.29.98.44,1.65.44s1.22-.15,1.65-.44c.43-.29.78-.67,1.04-1.12.26-.46.44-.97.54-1.53.1-.56.16-1.12.16-1.66s-.05-1.1-.16-1.66Z"/>
          </g>
          <g class="uuid-e04722e9-1b4a-4730-b2f3-4464b3999909">
            <path class="uuid-85952453-79bc-4247-bb70-e15bed4841fe" d="m611.6,899.22c-.12.6-.32,1.14-.61,1.62-.29.48-.66.86-1.13,1.15-.47.29-1.05.44-1.76.44s-1.28-.15-1.75-.44c-.47-.29-.85-.67-1.14-1.15-.29-.48-.49-1.01-.61-1.62-.12-.6-.18-1.21-.18-1.82s.06-1.22.18-1.82.32-1.14.61-1.62c.29-.48.67-.86,1.14-1.16s1.06-.44,1.75-.44,1.29.15,1.76.44.84.68,1.13,1.16c.29.48.49,1.02.61,1.62s.18,1.21.18,1.82-.06,1.22-.18,1.82Zm-.26-3.48c-.1-.56-.29-1.07-.54-1.53-.26-.46-.6-.83-1.04-1.12-.43-.29-.98-.44-1.65-.44s-1.22.15-1.65.44c-.43.29-.78.67-1.04,1.12-.26.46-.44.97-.54,1.53-.1.56-.16,1.12-.16,1.66s.05,1.1.16,1.66c.1.56.29,1.07.54,1.53.26.46.6.83,1.04,1.12.43.29.98.44,1.65.44s1.22-.15,1.65-.44c.43-.29.78-.67,1.04-1.12.26-.46.44-.97.54-1.53.1-.56.16-1.12.16-1.66s-.05-1.1-.16-1.66Z"/>
          </g>
          <g class="uuid-e04722e9-1b4a-4730-b2f3-4464b3999909">
            <path class="uuid-a65f8481-7b1c-4d31-b14c-994d0f7c9dcc" d="m611.6,899.22c-.12.6-.32,1.14-.61,1.62-.29.48-.66.86-1.13,1.15-.47.29-1.05.44-1.76.44s-1.28-.15-1.75-.44c-.47-.29-.85-.67-1.14-1.15-.29-.48-.49-1.01-.61-1.62-.12-.6-.18-1.21-.18-1.82s.06-1.22.18-1.82.32-1.14.61-1.62c.29-.48.67-.86,1.14-1.16s1.06-.44,1.75-.44,1.29.15,1.76.44.84.68,1.13,1.16c.29.48.49,1.02.61,1.62s.18,1.21.18,1.82-.06,1.22-.18,1.82Zm-.26-3.48c-.1-.56-.29-1.07-.54-1.53-.26-.46-.6-.83-1.04-1.12-.43-.29-.98-.44-1.65-.44s-1.22.15-1.65.44c-.43.29-.78.67-1.04,1.12-.26.46-.44.97-.54,1.53-.1.56-.16,1.12-.16,1.66s.05,1.1.16,1.66c.1.56.29,1.07.54,1.53.26.46.6.83,1.04,1.12.43.29.98.44,1.65.44s1.22-.15,1.65-.44c.43-.29.78-.67,1.04-1.12.26-.46.44-.97.54-1.53.1-.56.16-1.12.16-1.66s-.05-1.1-.16-1.66Z"/>
          </g>
          <path class="uuid-db3876aa-c3df-4cc8-8103-6338dd384e26" d="m-57.38-550.25v4.21h0l1.19,4.21h0l1.19,4.2h0l1.19,4.19h0l1.19,4.18h0l1.19,4.18h0l1.19,4.17h0l1.19,4.16h0l1.19,4.15h0l1.19,4.15h0l1.19,4.14h0l1.19,4.13h0l1.19,4.12h0l1.19,4.12h0l1.19,4.11h0l1.19,4.1h0l1.19,4.1h0l1.19,4.09h0l1.19,4.08h0l1.19,4.07h0l1.19,4.07h0l1.19,4.06h0l1.19,4.05h0l1.19,4.04h0l1.19,4.04h0l1.19,4.03h0l1.19,4.02h0l1.19,4.01h0l1.19,4.01h0l1.19,4h0l1.19,3.99h0l1.19,3.98h0l1.19,3.98h0l1.19,3.97h0l1.19,3.96h0l1.19,3.95h0l1.19,3.95h0l1.19,3.94h0l1.19,3.93h0l1.19,3.93h0l1.19,3.92h0l1.19,3.91h0l1.19,3.9h0l1.19,3.9h0l1.19,3.89h0l1.19,3.88h0l1.19,3.87h0l1.19,3.87h0l1.19,3.86H-.17l1.19,3.85h0l1.19,3.84h0l1.19,3.84h0l1.19,3.83h0l1.19,3.82h0l1.19,3.81h0l1.19,3.81h0l1.19,3.8h0l1.19,3.79h0l1.19,3.78h0l1.19,3.78h0l1.19,3.77h0l1.19,3.76h0l1.19,3.76h0l1.19,3.75h0l1.19,3.74h0l1.19,3.73h0l1.19,3.73h0l1.19,3.72h0l1.19,3.71h0l1.19,3.7h0l1.19,3.7h0l1.19,3.69h0l1.19,3.68h0l1.19,3.67h0l1.19,3.67h0l1.19,3.66h0l1.19,3.65h0l1.19,3.64h0l1.19,3.64h0l1.19,3.63h0l1.19,3.62h0l1.19,3.61h0l1.19,3.61h0l1.19,3.6h0l1.19,3.59h0l1.19,3.59h0l1.19,3.58h0l1.19,3.57h0l1.19,3.56h0l1.19,3.56h0l1.19,3.55h0l1.19,3.54h0l1.19,3.53h0l1.19,3.53h0l1.19,3.52h0l1.19,3.51h0l1.19,3.5h0l1.19,3.5h0l1.19,3.49h0l1.19,3.48h0l1.19,3.47h0l1.19,3.47h0l1.19,3.46h0l1.19,3.45h0l1.19,3.45h0l1.19,3.44h0l1.19,3.43h0l1.19,3.42h0l1.19,3.42h0l1.19,3.41h0l1.19,3.4h0l1.19,3.39h0l1.19,3.39h0l1.19,3.38h0l1.19,3.37h0l1.19,3.36h0l1.19,3.36h0l1.19,3.35h0l1.19,3.34h0l1.19,3.33h0l1.19,3.33h0l1.19,3.32h0l1.19,3.31h0l1.19,3.3h0l1.19,3.3h0l1.19,3.29h0l1.19,3.28h0l1.19,3.28h0l1.19,3.27h0l1.19,3.26h0l1.19,3.25h0l1.19,3.25h0l1.19,3.24h0l1.19,3.23h0l1.19,3.22h0l1.19,3.22h0l1.19,3.21h0l1.19,3.2h0l1.19,3.19h0l1.19,3.19h0l1.19,3.18h0l1.19,3.17h0l1.19,3.16h0l1.19,3.16h0l1.19,3.15h0l1.19,3.14h0l1.19,3.13h0l1.19,3.13h0l1.19,3.12h0l1.19,3.11h0l1.19,3.11h0l1.19,3.1h0l1.19,3.09h0l1.19,3.08h0l1.19,3.08h0l1.19,3.07h0l1.19,3.06h0l1.19,3.05h0l1.19,3.05h0l1.19,3.04h0l1.19,3.03h0l1.19,3.02h0l1.19,3.02h0l1.19,3.01h0l1.19,3h0l1.19,2.99h0l1.19,2.99h0l1.19,2.98h0l1.19,2.97h0l1.19,2.96h0l1.19,2.96h0l1.19,2.95h0l1.19,2.94h0l1.19,2.94h0l1.19,2.93h0l1.19,2.92h0l1.19,2.91h0l1.19,2.91h0l1.19,2.9h0l1.19,2.89h0l1.19,2.88h0l1.19,2.88h0l1.19,2.87h0l1.19,2.86h0l1.19,2.85h0l1.19,2.85h0l1.19,2.84h0l1.19,2.83h0l1.19,2.82h0l1.19,2.82h0l1.19,2.81h0l1.19,2.8h0l1.19,2.8h0l1.19,2.79h0l1.19,2.78h0l1.19,2.77h0l1.19,2.77h0l1.19,2.76h0l1.19,2.75h0l1.19,2.74h0l1.19,2.74h0l1.19,2.73h0l1.19,2.72h0l1.19,2.71h0l1.19,2.71h0l1.19,2.7h0l1.19,2.69h0l1.19,2.68h0l1.19,2.68h0l1.19,2.67h0l1.19,2.66h0l1.19,2.65h0l1.19,2.65h0l1.19,2.64h0l1.19,2.63h0l1.19,2.63h0l1.19,2.62h0l1.19,2.61h0l1.19,2.6h0l1.19,2.6h0l1.19,2.59h0l1.19,2.58h0l1.19,2.57h0l1.19,2.57h0l1.19,2.56h0l1.19,2.55h0l1.19,2.54h0l1.19,2.54h0l1.19,2.53h0l1.19,2.52h0l1.19,2.51h0l1.19,2.51h0l1.19,2.5h0l1.19,2.49h0l1.19,2.48h0l1.19,2.48h0l1.19,2.47h0l1.19,2.46h0l1.19,2.46h0l1.19,2.45h0l1.19,2.44h0l1.19,2.43h0l1.19,2.43h0l1.19,2.42h0l1.19,2.41h0l1.19,2.4h0l1.19,2.4h0l1.19,2.39h0l1.19,2.38h0l1.19,2.37h0l1.19,2.37h0l1.19,2.36h0l1.19,2.35h0l1.19,2.34h0l1.19,2.34h0l1.19,2.33h0l1.19,2.32h0l1.19,2.32h0l1.19,2.31h0l1.19,2.3h0l1.19,2.29h0l1.19,2.29h0l1.19,2.28h0l1.19,2.27h0l1.19,2.26h0l1.19,2.26h0l1.19,2.25h0l1.19,2.24h0l1.19,2.23h0l1.19,2.23h0l1.19,2.22h0l1.19,2.21h0l1.19,2.2h0l1.19,2.2h0l1.19,2.19h0l1.19,2.18h0l1.19,2.17h0l1.19,2.17h0l1.19,2.16h0l1.19,2.15h0l1.19,2.15h0l1.19,2.14h0l1.19,2.13h0l1.19,2.12h0l1.19,2.12h0l1.19,2.11h0l1.19,2.1h0l1.19,2.09h0l1.19,2.09h0l1.19,2.08h0l1.19,2.07h0l1.19,2.06h0l1.19,2.06h0l1.19,2.05h0l1.19,2.04h0l1.19,2.03h0l1.19,2.03h0l1.19,2.02h0l1.19,2.01h0l1.19,2h0l1.19,2h0l1.19,1.99h0l1.19,1.98h0l1.19,1.98h0l1.19,1.97h0l1.19,1.96h0l1.19,1.95h0l1.19,1.95h0l1.19,1.94h0l1.19,1.93h0l1.19,1.92h0l1.19,1.92h0l1.19,1.91h0l1.19,1.9h0l1.19,1.89h0l1.19,1.89h0l1.19,1.88h0l1.19,1.87h0l1.19,1.86h0l1.19,1.86h0l1.19,1.85h0l1.19,1.84h0l1.19,1.83h0l1.19,1.83h0l1.19,1.82h0l1.19,1.81h0l1.19,1.81h0l1.19,1.8h0l1.19,1.79h0l1.19,1.78h0l1.19,1.78h0l1.19,1.77h0l1.19,1.76h0l1.19,1.75h0l1.19,1.75h0l1.19,1.74h0l1.19,1.73h0l1.19,1.72h0l1.19,1.72h0l1.19,1.71h0l1.19,1.7h0l1.19,1.69h0l1.19,1.69h0l1.19,1.68h0l1.19,1.67h0l1.19,1.67h0l1.19,1.66h0l1.19,1.65h0l1.19,1.64h0l1.19,1.64h0l1.19,1.63h0l1.19,1.62h0l1.19,1.61h0l1.19,1.61h0l1.19,1.6h0l1.19,1.59h0l1.19,1.58h0l1.19,1.58h0l1.19,1.57h0l1.19,1.56h0l1.19,1.55h0l1.19,1.55h0l1.19,1.54h0l1.19,1.53h0l1.19,1.52h0l1.19,1.52h0l1.19,1.51h0l1.19,1.5h0l1.19,1.5h0l1.19,1.49h0l1.19,1.48h0l1.19,1.47h0l1.19,1.47h0l1.19,1.46h0l1.19,1.45h0l1.19,1.44h0l1.19,1.44h0l1.19,1.43h0l1.19,1.42h0l1.19,1.41h0l1.19,1.41h0l1.19,1.4h0l1.19,1.39h0l1.19,1.38h0l1.19,1.38h0l1.19,1.37h0l1.19,1.36h0l1.19,1.35h0l1.19,1.35h0l1.19,1.34h0l1.19,1.33h0l1.19,1.33h0l1.19,1.32h0l1.19,1.31h0l1.19,1.3h0l1.19,1.3h0l1.19,1.29h0l1.19,1.28h0l1.19,1.27h0l1.19,1.27h0l1.19,1.26h0l1.19,1.25h0l1.19,1.24h0l1.19,1.24h0l1.19,1.23h0l1.19,1.22h0l1.19,1.21h0l1.19,1.21h0l1.19,1.2h0l1.19,1.19h0l1.19,1.18h0l1.19,1.18h0l1.19,1.17h0l1.19,1.16h0l1.19,1.16h0l1.19,1.15h0l1.19,1.14h0l1.19,1.13h0l1.19,1.13h0l1.19,1.12h0l1.19,1.11h0l1.19,1.1h0l1.19,1.1h0l1.19,1.09h0l1.19,1.08h0l1.19,1.07h0l1.19,1.07h0l1.19,1.06h0l1.19,1.05h0l1.19,1.04h0l1.19,1.04h0l1.19,1.03h0l1.19,1.02h0l1.19,1.02h0l1.19,1.01h0l1.19,1h0l1.19.99h0l1.19.99h0l1.19.98h0l1.19.97h0l1.19.96h0l1.19.96h0l1.19.95h0l1.19.94h0l1.19.93h0l1.19.93h0l1.19.92h0l1.19.91h0l1.19.9h0l1.19.9h0l1.19.89h0l1.19.88h0l1.19.87h0l1.19.87h0l1.19.86h0l1.19.85h0l1.19.85h0l1.19.84h0l1.19.83h0l1.19.82h0l1.19.82h0l1.19.81h0l1.19.8h0l1.19.79h0l1.19.79h0l1.19.78h0l1.19.77h0l1.19.76h0l1.19.76h0l1.19.75h0l1.19.74h0l1.19.73h0l1.19.73h0l1.19.72h0l1.19.71h0l1.19.7h0l1.19.7h0l1.19.69h0l1.19.68h0l1.19.68h0l1.19.67h0l1.19.66h0l1.19.65h0l1.19.65h0l1.19.64h0l1.19.63h0l1.19.62h0l1.19.62h0l1.19.61h0l1.19.6h0l1.19.59h0l1.19.59h0l1.19.58h0l1.19.57h0l1.19.56h0l1.19.56h0l1.19.55h0l1.19.54h0l1.19.54h0l1.19.53h0l1.19.52h0l1.19.51h0l1.19.51h0l1.19.5h0l1.19.49h0l1.19.48h0l1.19.48h0l1.19.47h0l1.19.46h0l1.19.45h0l1.19.45h0l1.19.44h0l1.19.43h0l1.19.42h0l1.19.42h0l1.19.41h0l1.19.4h0l1.19.39h0l1.19.39h0l1.19.38h0l1.19.37h0l1.19.37h0l1.19.36h0l1.19.35h0l1.19.34h0l1.19.34h0l1.19.33h0l1.19.32h0l1.19.31h0l1.19.31h0l1.19.3h0l1.19.29h0l1.19.28h0l1.19.28h0l1.19.27h0l1.19.26h0l1.19.25h0l1.19.25h0l1.19.24h0l1.19.23h0l1.19.22h0l1.19.22h0l1.19.21h0l1.19.2h0l1.19.2h0l1.19.19h0l1.19.18h0l1.19.17h0l1.19.17h0l1.19.16h0l1.19.15h0l1.19.14h0l1.19.14h0l1.19.13h0l1.19.12h0l1.19.11h0l1.19.11h0l1.19.1h0l1.19.09h0l1.19.08h0l1.19.08h0l1.19.07h0l1.19.06h0l1.19.05h0l1.19.05h0l1.19.04h0l1.19.03h0l1.19.03h0l1.19.02h1.19s1.19.01,1.19.01h1.19s1.19-.02,1.19-.02h0l1.19-.02h0l1.19-.03h0l1.19-.03h0l1.19-.04h0l1.19-.05h0l1.19-.06h0l1.19-.06h0l1.19-.07h0l1.19-.08h0l1.19-.09h0l1.19-.09h0l1.19-.1h0l1.19-.11h0l1.19-.11h0l1.19-.12h0l1.19-.13h0l1.19-.14h0l1.19-.14h0l1.19-.15h0l1.19-.16h0l1.19-.17h0l1.19-.17h0l1.19-.18h0l1.19-.19h0l1.19-.2h0l1.19-.2h0l1.19-.21h0l1.19-.22h0l1.19-.23h0l1.19-.23h0l1.19-.24h0l1.19-.25h0l1.19-.26h0l1.19-.26h0l1.19-.27h0l1.19-.28h0l1.19-.28h0l1.19-.29h0l1.19-.3h0l1.19-.31h0l1.19-.31h0l1.19-.32h0l1.19-.33h0l1.19-.34h0l1.19-.34h0l1.19-.35h0l1.19-.36h0l1.19-.37h0l1.19-.37h0l1.19-.38h0l1.19-.39h0l1.19-.4h0l1.19-.4h0l1.19-.41h0l1.19-.42h0l1.19-.43h0l1.19-.43h0l1.19-.44h0l1.19-.45h0l1.19-.45h0l1.19-.46h0l1.19-.47h0l1.19-.48h0l1.19-.48h0l1.19-.49h0l1.19-.5h0l1.19-.51h0l1.19-.51h0l1.19-.52h0l1.19-.53h0l1.19-.54h0l1.19-.54h0l1.19-.55h0l1.19-.56h0l1.19-.57h0l1.19-.57h0l1.19-.58h0l1.19-.59h0l1.19-.6h0l1.19-.6h0l1.19-.61h0l1.19-.62h0l1.19-.62h0l1.19-.63h0l1.19-.64h0l1.19-.65h0l1.19-.65h0l1.19-.66h0l1.19-.67h0l1.19-.68h0l1.19-.68h0l1.19-.69h0l1.19-.7h0l1.19-.71h0l1.19-.71h0l1.19-.72h0l1.19-.73h0l1.19-.74h0l1.19-.74h0l1.19-.75h0l1.19-.76h0l1.19-.76h0l1.19-.77h0l1.19-.78h0l1.19-.79h0l1.19-.79h0l1.19-.8h0l1.19-.81h0l1.19-.82h0l1.19-.82h0l1.19-.83h0l1.19-.84h0l1.19-.85h0l1.19-.85h0l1.19-.86h0l1.19-.87h0l1.19-.88h0l1.19-.88h0l1.19-.89h0l1.19-.9h0l1.19-.91h0l1.19-.91h0l1.19-.92h0l1.19-.93h0l1.19-.93h0l1.19-.94h0l1.19-.95h0l1.19-.96h0l1.19-.96h0l1.19-.97h0l1.19-.98h0l1.19-.99h0l1.19-.99h0l1.19-1h0l1.19-1.01h0l1.19-1.02h0l1.19-1.02h0l1.19-1.03h0l1.19-1.04h0l1.19-1.05h0l1.19-1.05h0l1.19-1.06h0l1.19-1.07h0l1.19-1.08h0l1.19-1.08h0l1.19-1.09h0l1.19-1.1h0l1.19-1.1h0l1.19-1.11h0l1.19-1.12h0l1.19-1.13h0l1.19-1.13h0l1.19-1.14h0l1.19-1.15h0l1.19-1.16h0l1.19-1.16h0l1.19-1.17h0l1.19-1.18h0l1.19-1.19h0l1.19-1.19h0l1.19-1.2h0l1.19-1.21h0l1.19-1.22h0l1.19-1.22h0l1.19-1.23h0l1.19-1.24h0l1.19-1.24h0l1.19-1.25h0l1.19-1.26h0l1.19-1.27h0l1.19-1.27h0l1.19-1.28h0l1.19-1.29h0l1.19-1.3h0l1.19-1.3h0l1.19-1.31h0l1.19-1.32h0l1.19-1.33h0l1.19-1.33h0l1.19-1.34h0l1.19-1.35h0l1.19-1.36h0l1.19-1.36h0l1.19-1.37h0l1.19-1.38h0l1.19-1.39h0l1.19-1.39h0l1.19-1.4h0l1.19-1.41h0l1.19-1.41h0l1.19-1.42h0l1.19-1.43h0l1.19-1.44h0l1.19-1.44h0l1.19-1.45h0l1.19-1.46h0l1.19-1.47h0l1.19-1.47h0l1.19-1.48h0l1.19-1.49h0l1.19-1.5h0l1.19-1.5h0l1.19-1.51h0l1.19-1.52h0l1.19-1.53h0l1.19-1.53h0l1.19-1.54h0l1.19-1.55h0l1.19-1.56h0l1.19-1.56h0l1.19-1.57h0l1.19-1.58h0l1.19-1.58h0l1.19-1.59h0l1.19-1.6h0l1.19-1.61h0l1.19-1.61h0l1.19-1.62h0l1.19-1.63h0l1.19-1.64h0l1.19-1.64h0l1.19-1.65h0l1.19-1.66h0l1.19-1.67h0l1.19-1.67h0l1.19-1.68h0l1.19-1.69h0l1.19-1.7h0l1.19-1.7h0l1.19-1.71h0l1.19-1.72h0l1.19-1.72h0l1.19-1.73h0l1.19-1.74h0l1.19-1.75h0l1.19-1.75h0l1.19-1.76h0l1.19-1.77h0l1.19-1.78h0l1.19-1.78h0l1.19-1.79h0l1.19-1.8h0l1.19-1.81h0l1.19-1.81h0l1.19-1.82h0l1.19-1.83h0l1.19-1.84h0l1.19-1.84h0l1.19-1.85h0l1.19-1.86h0l1.19-1.87h0l1.19-1.87h0l1.19-1.88h0l1.19-1.89h0l1.19-1.89h0l1.19-1.9h0l1.19-1.91h0l1.19-1.92h0l1.19-1.92h0l1.19-1.93h0l1.19-1.94h0l1.19-1.95h0l1.19-1.95h0l1.19-1.96h0l1.19-1.97h0l1.19-1.98h0l1.19-1.98h0l1.19-1.99h0l1.19-2h0l1.19-2.01h0l1.19-2.01h0l1.19-2.02h0l1.19-2.03h0l1.19-2.04h0l1.19-2.04h0l1.19-2.05h0l1.19-2.06h0l1.19-2.06h0l1.19-2.07h0l1.19-2.08h0l1.19-2.09h0l1.19-2.09h0l1.19-2.1h0l1.19-2.11h0l1.19-2.12h0l1.19-2.12h0l1.19-2.13h0l1.19-2.14h0l1.19-2.15h0l1.19-2.15h0l1.19-2.16h0l1.19-2.17h0l1.19-2.18h0l1.19-2.18h0l1.19-2.19h0l1.19-2.2h0l1.19-2.21h0l1.19-2.21h0l1.19-2.22h0l1.19-2.23h0l1.19-2.23h0l1.19-2.24h0l1.19-2.25h0l1.19-2.26h0l1.19-2.26h0l1.19-2.27h0l1.19-2.28h0l1.19-2.29h0l1.19-2.29h0l1.19-2.3h0l1.19-2.31h0l1.19-2.32h0l1.19-2.32h0l1.19-2.33h0l1.19-2.34h0l1.19-2.35h0l1.19-2.35h0l1.19-2.36h0l1.19-2.37h0l1.19-2.37h0l1.19-2.38h0l1.19-2.39h0l1.19-2.4h0l1.19-2.4h0l1.19-2.41h0l1.19-2.42h0l1.19-2.43h0l1.19-2.43h0l1.19-2.44h0l1.19-2.45h0l1.19-2.46h0l1.19-2.46h0l1.19-2.47h0l1.19-2.48h0l1.19-2.49h0l1.19-2.49h0l1.19-2.5h0l1.19-2.51h0l1.19-2.52h0l1.19-2.52h0l1.19-2.53h0l1.19-2.54h0l1.19-2.54h0l1.19-2.55h0l1.19-2.56h0l1.19-2.57h0l1.19-2.57h0l1.19-2.58h0l1.19-2.59h0l1.19-2.6h0l1.19-2.6h0l1.19-2.61h0l1.19-2.62h0l1.19-2.63h0l1.19-2.63h0l1.19-2.64h0l1.19-2.65h0l1.19-2.66h0l1.19-2.66h0l1.19-2.67h0l1.19-2.68h0l1.19-2.69h0l1.19-2.69h0l1.19-2.7h0l1.19-2.71h0l1.19-2.71h0l1.19-2.72h0l1.19-2.73h0l1.19-2.74h0l1.19-2.74h0l1.19-2.75h0l1.19-2.76h0l1.19-2.77h0l1.19-2.77h0l1.19-2.78h0l1.19-2.79h0l1.19-2.8h0l1.19-2.8h0l1.19-2.81h0l1.19-2.82h0l1.19-2.83h0l1.19-2.83h0l1.19-2.84h0l1.19-2.85h0l1.19-2.86h0l1.19-2.86h0l1.19-2.87h0l1.19-2.88h0l1.19-2.88h0l1.19-2.89h0l1.19-2.9h0l1.19-2.91h0l1.19-2.91h0l1.19-2.92h0l1.19-2.93h0l1.19-2.94h0l1.19-2.94h0l1.19-2.95h0l1.19-2.96h0l1.19-2.97h0l1.19-2.97h0l1.19-2.98h0l1.19-2.99h0l1.19-3h0l1.19-3h0l1.19-3.01h0l1.19-3.02h0l1.19-3.02h0l1.19-3.03h0l1.19-3.04h0l1.19-3.05h0l1.19-3.05h0l1.19-3.06h0l1.19-3.07h0l1.19-3.08h0l1.19-3.08h0l1.19-3.09h0l1.19-3.1h0l1.19-3.11h0l1.19-3.11h0l1.19-3.12h0l1.19-3.13h0l1.19-3.14h0l1.19-3.14h0l1.19-3.15h0l1.19-3.16h0l1.19-3.17h0l1.19-3.17h0l1.19-3.18h0l1.19-3.19h0l1.19-3.19h0l1.19-3.2h0l1.19-3.21h0l1.19-3.22h0l1.19-3.22h0l1.19-3.23h0l1.19-3.24h0l1.19-3.25h0l1.19-3.25h0l1.19-3.26h0l1.19-3.27h0l1.19-3.28h0l1.19-3.28h0l1.19-3.29h0l1.19-3.3h0l1.19-3.31h0l1.19-3.31h0l1.19-3.32h0l1.19-3.33h0l1.19-3.34h0l1.19-3.34h0l1.19-3.35h0l1.19-3.36h0l1.19-3.36h0l1.19-3.37h0l1.19-3.38h0l1.19-3.39h0l1.19-3.39h0l1.19-3.4h0l1.19-3.41h0l1.19-3.42h0l1.19-3.42h0l1.19-3.43h0l1.19-3.44h0l1.19-3.45h0l1.19-3.45h0l1.19-3.46h0l1.19-3.47h0l1.19-3.48h0l1.19-3.48h0l1.19-3.49h0l1.19-3.5h0l1.19-3.5h0l1.19-3.51h0l1.19-3.52h0l1.19-3.53h0l1.19-3.53h0l1.19-3.54h0l1.19-3.55h0l1.19-3.56h0l1.19-3.56h0l1.19-3.57h0l1.19-3.58h0l1.19-3.59h0l1.19-3.59h0l1.19-3.6h0l1.19-3.61h0l1.19-3.62h0l1.19-3.62h0l1.19-3.63h0l1.19-3.64h0l1.19-3.65h0l1.19-3.65h0l1.19-3.66h0l1.19-3.67h0l1.19-3.67h0l1.19-3.68h0l1.19-3.69h0l1.19-3.7h0l1.19-3.7h0l1.19-3.71h0l1.19-3.72h0l1.19-3.73h0l1.19-3.73h0l1.19-3.74h0l1.19-3.75h0l1.19-3.76h0l1.19-3.76h0l1.19-3.77h0l1.19-3.78h0l1.19-3.79h0l1.19-3.79h0l1.19-3.8h0l1.19-3.81h0l1.19-3.82h0l1.19-3.82h0l1.19-3.83h0l1.19-3.84h0l1.19-3.84h0l1.19-3.85h0l1.19-3.86h0l1.19-3.87h0l1.19-3.87h0l1.19-3.88h0l1.19-3.89h0l1.19-3.9h0l1.19-3.9h0l1.19-3.91h0l1.19-3.92h0l1.19-3.93h0l1.19-3.93h0l1.19-3.94h0l1.19-3.95h0l1.19-3.96h0l1.19-3.96h0l1.19-3.97h0l1.19-3.98h0l1.19-3.99h0l1.19-3.99h0l1.19-4h0l1.19-4.01h0l1.19-4.01h0l1.19-4.02h0l1.19-4.03h0l1.19-4.04h0l1.19-4.04h0l1.19-4.05h0l1.19-4.06h0l1.19-4.07h0l1.19-4.07h0l1.19-4.08h0l1.19-4.09h0l1.19-4.1h0l1.19-4.1h0l1.19-4.11h0l1.19-4.12h0l1.19-4.13h0l1.19-4.13h0l1.19-4.14h0l1.19-4.15h0l1.19-4.15h0l1.19-4.16h0l1.19-4.17h0l1.19-4.18h0l1.19-4.18h0l1.19-4.19h0l1.19-4.2h0l1.19-4.21h0l1.19-4.21h0l1.19-4.22h0l1.19-4.23h0l1.19-4.24h0l1.19-4.24h0l1.19-4.25h0l1.19-4.26h0l1.19-4.27h0l1.19-4.27h0l1.19-4.28h0l1.19-4.29h0l1.19-4.3h0l1.19-4.3h0l1.19-4.31h0l1.19-4.32h0l1.19-4.32h0l1.19-4.33h0l1.19-4.34h0l1.19-4.35h0l1.19-4.35h0l1.19-4.36h0l1.19-4.37h0l1.19-4.38h0l1.19-4.38h0l1.19-4.39h0l1.19-4.4h0l1.19-4.41"/>
        </g>
      </g>
    </g>
  </g>
  <g id="uuid-7d09f29d-81d8-4103-a3cb-30d363296a78" data-name="Marco">
    <path class="uuid-72d37c75-5099-4cdf-94d7-044b9cdce02d" d="m-2-2V1022h1249V-2H-2Zm1232,987c0,11.05-8.95,20-20,20H35c-11.05,0-20-8.95-20-20V35c0-11.05,8.95-20,20-20h1175c11.05,0,20,8.95,20,20v950Z"/>
  </g>
</svg>