<?xml version="1.0" encoding="UTF-8"?>
<svg id="Capa_2" data-name="Capa 2" xmlns="http://www.w3.org/2000/svg" viewBox="0 0 28 18">
  <defs>
    <style>
      .cls-1 {
        fill: #18406f;
      }

      .cls-2 {
        fill: #00699b;
        opacity: .4;
      }
    </style>
  </defs>
  <path class="cls-1" d="m27.17,1.7c-.12-.1-.28-.13-.43-.09l-.74.18v12.95c0,.14-.06.27-.16.37-.1.09-.24.14-.38.13-2.51-.19-9.41-.32-11.11,1.39-.09.09-.22.15-.35.15s-.26-.05-.35-.15c-1.6-1.6-8.57-1.54-11.12-1.39-.14,0-.27-.04-.37-.13-.1-.09-.16-.23-.16-.36V1.79l-.74-.18c-.15-.04-.31,0-.43.09-.12.1-.19.24-.19.39v13.7c0,.26.2.48.46.5l11.91.89c.12.31.51.54.99.54s.87-.23.99-.53l11.91-.89c.26-.02.46-.24.46-.5V2.09c0-.15-.07-.3-.19-.39Z"/>
  <path class="cls-2" d="m3,.75v13.46c1.92-.11,7.77-.32,10.5,1.11V2.82C10.07-.6,4.79.69,3,.75Z"/>
  <path class="cls-2" d="m14.5,2.82v12.49c2.73-1.43,8.58-1.22,10.5-1.11V.75c-1.79-.06-7.07-1.35-10.5,2.07Z"/>
</svg>