<?xml version="1.0" encoding="UTF-8"?><svg xmlns="http://www.w3.org/2000/svg" viewBox="0 0 1096 654"><defs><style>.uuid-e6d6c503-7217-42d7-99d1-e91c1f470982{fill:#fff;}.uuid-66786b8b-c33f-4785-9e64-2eceec486d1f{fill:#002949;}.uuid-6ada3fca-35a8-492f-bb44-2a5670e988d6{fill:#e5f0f5;}.uuid-5ee7908a-f5a1-43a5-ba4a-a650a6ae3aba{fill:none;stroke:#b2d2e1;stroke-miterlimit:10;stroke-width:2px;}.uuid-e9d6b451-3622-4dbd-9ba6-5ae4d5eaceb9{fill:#333;}.uuid-0fc70704-e815-49a9-bda6-88876693fd9e{fill:#b2d2e1;}.uuid-b33d384c-7d74-429a-991a-dc302e161b8b{fill:#00699b;}.uuid-f958538b-f599-4032-b510-cacb9a5ffc39{fill:#999;}</style></defs><g id="uuid-b771f982-bd86-4e01-88eb-b0dd3c37533f"><rect class="uuid-e6d6c503-7217-42d7-99d1-e91c1f470982" x="6" y="6" width="1084" height="642" rx="5" ry="5"/></g><g id="uuid-15465364-bf88-45bc-97d2-3cecee98105e"><polyline class="uuid-5ee7908a-f5a1-43a5-ba4a-a650a6ae3aba" points="175.68 139.24 175.68 57.32 431.53 57.32"/><path class="uuid-0fc70704-e815-49a9-bda6-88876693fd9e" d="m175.68,146.48c1.26-3.41,3.42-7.64,5.71-10.26l-5.71,2.06-5.71-2.06c2.29,2.62,4.44,6.85,5.71,10.26Z"/><polyline class="uuid-5ee7908a-f5a1-43a5-ba4a-a650a6ae3aba" points="258.16 237.93 258.16 216.17 93.2 216.17 93.2 237.93"/><path class="uuid-0fc70704-e815-49a9-bda6-88876693fd9e" d="m258.16,245.17c1.26-3.41,3.42-7.64,5.71-10.26l-5.71,2.06-5.71-2.06c2.29,2.62,4.44,6.85,5.71,10.26Z"/><path class="uuid-0fc70704-e815-49a9-bda6-88876693fd9e" d="m93.2,245.17c-1.26-3.41-3.42-7.64-5.71-10.26l5.71,2.06,5.71-2.06c-2.29,2.62-4.44,6.85-5.71,10.26Z"/><line class="uuid-5ee7908a-f5a1-43a5-ba4a-a650a6ae3aba" x1="570.9" y1="97.72" x2="570.9" y2="139.24"/><path class="uuid-0fc70704-e815-49a9-bda6-88876693fd9e" d="m570.9,146.48c-1.26-3.41-3.42-7.64-5.71-10.26l5.71,2.06,5.71-2.06c-2.29,2.62-4.44,6.85-5.71,10.26Z"/><line class="uuid-5ee7908a-f5a1-43a5-ba4a-a650a6ae3aba" x1="93.2" y1="304.26" x2="93.2" y2="313.85"/><path class="uuid-0fc70704-e815-49a9-bda6-88876693fd9e" d="m93.2,321.09c-1.26-3.41-3.42-7.64-5.71-10.26l5.71,2.06,5.71-2.06c-2.29,2.62-4.44,6.85-5.71,10.26Z"/><polyline class="uuid-5ee7908a-f5a1-43a5-ba4a-a650a6ae3aba" points="388 304.26 388 607.54 407.54 607.54"/><path class="uuid-0fc70704-e815-49a9-bda6-88876693fd9e" d="m414.79,607.54c-3.41,1.26-7.64,3.42-10.26,5.71l2.06-5.71-2.06-5.71c2.62,2.29,6.85,4.44,10.26,5.71Z"/><line class="uuid-5ee7908a-f5a1-43a5-ba4a-a650a6ae3aba" x1="388" y1="532.96" x2="407.54" y2="532.96"/><path class="uuid-0fc70704-e815-49a9-bda6-88876693fd9e" d="m414.79,532.96c-3.41,1.26-7.64,3.42-10.26,5.71l2.06-5.71-2.06-5.71c2.62,2.29,6.85,4.44,10.26,5.71Z"/><line class="uuid-5ee7908a-f5a1-43a5-ba4a-a650a6ae3aba" x1="388" y1="458.38" x2="407.54" y2="458.38"/><path class="uuid-0fc70704-e815-49a9-bda6-88876693fd9e" d="m414.79,458.38c-3.41,1.26-7.64,3.42-10.26,5.71l2.06-5.71-2.06-5.71c2.62,2.29,6.85,4.44,10.26,5.71Z"/><line class="uuid-5ee7908a-f5a1-43a5-ba4a-a650a6ae3aba" x1="388" y1="383.8" x2="407.54" y2="383.8"/><path class="uuid-0fc70704-e815-49a9-bda6-88876693fd9e" d="m414.79,383.8c-3.41,1.26-7.64,3.42-10.26,5.71l2.06-5.71-2.06-5.71c2.62,2.29,6.85,4.44,10.26,5.71Z"/><polyline class="uuid-5ee7908a-f5a1-43a5-ba4a-a650a6ae3aba" points="641.22 304.26 641.22 532.96 660.76 532.96"/><path class="uuid-0fc70704-e815-49a9-bda6-88876693fd9e" d="m668,532.96c-3.41,1.26-7.64,3.42-10.26,5.71l2.06-5.71-2.06-5.71c2.62,2.29,6.85,4.44,10.26,5.71Z"/><line class="uuid-5ee7908a-f5a1-43a5-ba4a-a650a6ae3aba" x1="641.22" y1="458.38" x2="660.76" y2="458.38"/><path class="uuid-0fc70704-e815-49a9-bda6-88876693fd9e" d="m668,458.38c-3.41,1.26-7.64,3.42-10.26,5.71l2.06-5.71-2.06-5.71c2.62,2.29,6.85,4.44,10.26,5.71Z"/><line class="uuid-5ee7908a-f5a1-43a5-ba4a-a650a6ae3aba" x1="641.22" y1="383.8" x2="660.76" y2="383.8"/><path class="uuid-0fc70704-e815-49a9-bda6-88876693fd9e" d="m668,383.8c-3.41,1.26-7.64,3.42-10.26,5.71l2.06-5.71-2.06-5.71c2.62,2.29,6.85,4.44,10.26,5.71Z"/><line class="uuid-5ee7908a-f5a1-43a5-ba4a-a650a6ae3aba" x1="175.68" y1="216.17" x2="175.68" y2="195.17"/><path class="uuid-f958538b-f599-4032-b510-cacb9a5ffc39" d="m187.83,206.54h-5.72c.1,1.43,1.2,2.38,2.69,2.38.83,0,1.57-.3,2.09-.9l.52.6c-.61.73-1.56,1.12-2.64,1.12-2.13,0-3.59-1.46-3.59-3.48s1.42-3.47,3.34-3.47,3.31,1.42,3.31,3.47c0,.08-.01.18-.01.29Zm-5.72-.69h4.85c-.12-1.34-1.09-2.27-2.43-2.27s-2.3.94-2.42,2.27Z"/><path class="uuid-f958538b-f599-4032-b510-cacb9a5ffc39" d="m188.78,208.89l.42-.73c.55.43,1.47.77,2.43.77,1.3,0,1.83-.44,1.83-1.12,0-1.78-4.43-.38-4.43-3.08,0-1.12.96-1.95,2.7-1.95.88,0,1.85.25,2.42.64l-.4.74c-.6-.42-1.31-.58-2.02-.58-1.24,0-1.78.48-1.78,1.13,0,1.85,4.43.46,4.43,3.08,0,1.18-1.04,1.95-2.82,1.95-1.13,0-2.22-.36-2.78-.84Z"/><path class="uuid-f958538b-f599-4032-b510-cacb9a5ffc39" d="m188.04,95.06v6.84h-.88v-1.25c-.48.83-1.37,1.31-2.46,1.31-1.74,0-2.89-.98-2.89-2.94v-3.97h.92v3.87c0,1.46.75,2.2,2.05,2.2,1.43,0,2.33-.92,2.33-2.48v-3.59h.92Z"/><path class="uuid-f958538b-f599-4032-b510-cacb9a5ffc39" d="m196.92,97.94v3.97h-.92v-3.87c0-1.44-.75-2.18-2.05-2.18-1.47,0-2.39.91-2.39,2.47v3.59h-.92v-6.84h.88v1.26c.49-.83,1.42-1.31,2.6-1.31,1.66,0,2.81.96,2.81,2.92Z"/><path class="uuid-f958538b-f599-4032-b510-cacb9a5ffc39" d="m204.59,97.66v4.24h-.88v-1.07c-.42.7-1.22,1.13-2.35,1.13-1.55,0-2.5-.81-2.5-1.99,0-1.05.68-1.94,2.64-1.94h2.17v-.42c0-1.17-.66-1.81-1.94-1.81-.88,0-1.72.31-2.27.81l-.42-.69c.69-.58,1.7-.92,2.78-.92,1.77,0,2.77.88,2.77,2.65Zm-.92,2.18v-1.12h-2.15c-1.33,0-1.75.52-1.75,1.22,0,.79.64,1.29,1.73,1.29s1.81-.49,2.17-1.39Z"/><path class="uuid-f958538b-f599-4032-b510-cacb9a5ffc39" d="m581.35,119.18c-.36.33-.91.48-1.44.48-1.29,0-2-.73-2-1.99v-4.13h-1.22v-.78h1.22v-1.5h.92v1.5h2.08v.78h-2.08v4.08c0,.81.42,1.25,1.18,1.25.38,0,.75-.12,1.01-.35l.33.66Z"/><path class="uuid-f958538b-f599-4032-b510-cacb9a5ffc39" d="m582.82,110.6c0-.35.3-.65.68-.65s.68.29.68.64c0,.38-.29.68-.68.68s-.68-.3-.68-.66Zm.21,2.16h.92v6.84h-.92v-6.84Z"/><path class="uuid-f958538b-f599-4032-b510-cacb9a5ffc39" d="m593.45,116.17c0,2.08-1.46,3.48-3.41,3.48-1.09,0-2.03-.47-2.6-1.35v3.81h-.92v-9.36h.88v1.35c.56-.91,1.51-1.4,2.64-1.4,1.95,0,3.41,1.4,3.41,3.47Zm-.92,0c0-1.59-1.1-2.67-2.55-2.67s-2.55,1.08-2.55,2.67,1.09,2.67,2.55,2.67,2.55-1.07,2.55-2.67Z"/><path class="uuid-f958538b-f599-4032-b510-cacb9a5ffc39" d="m594.65,116.17c0-2.03,1.48-3.47,3.48-3.47s3.47,1.44,3.47,3.47-1.47,3.48-3.47,3.48-3.48-1.46-3.48-3.48Zm6.02,0c0-1.6-1.08-2.67-2.54-2.67s-2.55,1.07-2.55,2.67,1.09,2.67,2.55,2.67,2.54-1.07,2.54-2.67Z"/><path class="uuid-f958538b-f599-4032-b510-cacb9a5ffc39" d="m602.54,118.81l.42-.73c.55.43,1.47.77,2.43.77,1.3,0,1.83-.44,1.83-1.12,0-1.78-4.43-.38-4.43-3.08,0-1.12.96-1.95,2.7-1.95.88,0,1.85.25,2.42.64l-.4.74c-.6-.42-1.31-.58-2.02-.58-1.24,0-1.78.48-1.78,1.13,0,1.85,4.43.46,4.43,3.08,0,1.18-1.04,1.95-2.82,1.95-1.13,0-2.22-.36-2.78-.84Z"/><path class="uuid-f958538b-f599-4032-b510-cacb9a5ffc39" d="m740.81,50.41l.42-.73c.55.43,1.47.77,2.43.77,1.3,0,1.83-.44,1.83-1.12,0-1.78-4.43-.38-4.43-3.08,0-1.12.96-1.95,2.7-1.95.88,0,1.85.25,2.42.64l-.4.74c-.6-.42-1.31-.58-2.02-.58-1.24,0-1.78.48-1.78,1.13,0,1.85,4.43.46,4.43,3.08,0,1.18-1.04,1.95-2.82,1.95-1.13,0-2.22-.36-2.78-.84Z"/><path class="uuid-f958538b-f599-4032-b510-cacb9a5ffc39" d="m754.07,48.06h-5.72c.1,1.43,1.2,2.38,2.69,2.38.83,0,1.57-.3,2.09-.9l.52.6c-.61.73-1.56,1.12-2.64,1.12-2.13,0-3.59-1.46-3.59-3.48s1.42-3.47,3.34-3.47,3.31,1.42,3.31,3.47c0,.08-.01.18-.01.29Zm-5.72-.69h4.85c-.12-1.34-1.09-2.27-2.43-2.27s-2.3.94-2.42,2.27Z"/><polyline class="uuid-5ee7908a-f5a1-43a5-ba4a-a650a6ae3aba" points="653.33 171.17 696.9 171.17 696.9 237.93"/><path class="uuid-0fc70704-e815-49a9-bda6-88876693fd9e" d="m696.9,245.17c-1.26-3.41-3.42-7.64-5.71-10.26l5.71,2.06,5.71-2.06c-2.29,2.62-4.44,6.85-5.71,10.26Z"/><polyline class="uuid-5ee7908a-f5a1-43a5-ba4a-a650a6ae3aba" points="488.37 171.17 444.81 171.17 444.81 237.93"/><path class="uuid-0fc70704-e815-49a9-bda6-88876693fd9e" d="m444.81,245.17c-1.26-3.41-3.42-7.64-5.71-10.26l5.71,2.06,5.71-2.06c-2.29,2.62-4.44,6.85-5.71,10.26Z"/><path class="uuid-f958538b-f599-4032-b510-cacb9a5ffc39" d="m451.3,208.89l.42-.73c.55.43,1.47.77,2.43.77,1.3,0,1.83-.44,1.83-1.12,0-1.78-4.43-.38-4.43-3.08,0-1.12.96-1.95,2.7-1.95.88,0,1.85.25,2.42.64l-.4.74c-.6-.42-1.31-.58-2.02-.58-1.24,0-1.78.48-1.78,1.13,0,1.85,4.43.46,4.43,3.08,0,1.18-1.04,1.95-2.82,1.95-1.13,0-2.22-.36-2.78-.84Z"/><path class="uuid-f958538b-f599-4032-b510-cacb9a5ffc39" d="m464.56,206.54h-5.72c.1,1.43,1.2,2.38,2.69,2.38.83,0,1.57-.3,2.09-.9l.52.6c-.61.73-1.56,1.12-2.64,1.12-2.13,0-3.59-1.46-3.59-3.48s1.42-3.47,3.34-3.47,3.31,1.42,3.31,3.47c0,.08-.01.18-.01.29Zm-5.72-.69h4.85c-.12-1.34-1.09-2.27-2.43-2.27s-2.3.94-2.42,2.27Z"/><path class="uuid-f958538b-f599-4032-b510-cacb9a5ffc39" d="m703.34,208.89l.42-.73c.55.43,1.47.77,2.43.77,1.3,0,1.83-.44,1.83-1.12,0-1.78-4.43-.38-4.43-3.08,0-1.12.96-1.95,2.7-1.95.88,0,1.85.25,2.42.64l-.4.74c-.6-.42-1.31-.58-2.02-.58-1.24,0-1.78.48-1.78,1.13,0,1.85,4.43.46,4.43,3.08,0,1.18-1.04,1.95-2.82,1.95-1.13,0-2.22-.36-2.78-.84Z"/><path class="uuid-f958538b-f599-4032-b510-cacb9a5ffc39" d="m716.81,202.83v6.84h-.88v-1.25c-.48.83-1.37,1.31-2.46,1.31-1.74,0-2.89-.98-2.89-2.94v-3.97h.92v3.87c0,1.46.75,2.2,2.05,2.2,1.43,0,2.33-.92,2.33-2.48v-3.59h.92Z"/><path class="uuid-f958538b-f599-4032-b510-cacb9a5ffc39" d="m718.45,208.89l.42-.73c.55.43,1.47.77,2.43.77,1.3,0,1.83-.44,1.83-1.12,0-1.78-4.43-.38-4.43-3.08,0-1.12.96-1.95,2.7-1.95.88,0,1.85.25,2.42.64l-.4.74c-.6-.42-1.31-.58-2.02-.58-1.24,0-1.78.48-1.78,1.13,0,1.85,4.43.46,4.43,3.08,0,1.18-1.04,1.95-2.82,1.95-1.13,0-2.22-.36-2.78-.84Z"/><path class="uuid-f958538b-f599-4032-b510-cacb9a5ffc39" d="m401.1,324.61v9.65h-.88v-1.35c-.56.92-1.51,1.42-2.64,1.42-1.95,0-3.41-1.42-3.41-3.48s1.46-3.47,3.41-3.47c1.09,0,2.03.47,2.6,1.35v-4.11h.92Zm-.91,6.23c0-1.6-1.09-2.67-2.54-2.67s-2.55,1.07-2.55,2.67,1.09,2.67,2.55,2.67,2.54-1.07,2.54-2.67Z"/><path class="uuid-f958538b-f599-4032-b510-cacb9a5ffc39" d="m409.62,331.13h-5.72c.1,1.43,1.2,2.38,2.69,2.38.83,0,1.57-.3,2.09-.9l.52.6c-.61.73-1.56,1.12-2.64,1.12-2.13,0-3.59-1.46-3.59-3.48s1.42-3.47,3.34-3.47,3.31,1.42,3.31,3.47c0,.08-.01.18-.01.29Zm-5.72-.69h4.85c-.12-1.34-1.09-2.27-2.43-2.27s-2.3.94-2.42,2.27Z"/><path class="uuid-f958538b-f599-4032-b510-cacb9a5ffc39" d="m426.21,330.29v3.96h-.92v-3.87c0-1.44-.73-2.18-1.96-2.18-1.4,0-2.29.91-2.29,2.47v3.59h-.92v-3.87c0-1.44-.73-2.18-1.98-2.18-1.39,0-2.29.91-2.29,2.47v3.59h-.92v-6.84h.88v1.25c.48-.82,1.37-1.3,2.51-1.3s2.01.48,2.43,1.44c.49-.88,1.47-1.44,2.7-1.44,1.66,0,2.76.96,2.76,2.92Z"/><path class="uuid-f958538b-f599-4032-b510-cacb9a5ffc39" d="m433.88,330.02v4.24h-.88v-1.07c-.42.7-1.22,1.13-2.35,1.13-1.55,0-2.5-.81-2.5-1.99,0-1.05.68-1.94,2.64-1.94h2.17v-.42c0-1.17-.66-1.81-1.94-1.81-.88,0-1.72.31-2.27.81l-.42-.69c.69-.58,1.7-.92,2.78-.92,1.77,0,2.77.88,2.77,2.65Zm-.92,2.18v-1.12h-2.15c-1.33,0-1.75.52-1.75,1.22,0,.79.64,1.29,1.73,1.29s1.81-.49,2.17-1.39Z"/><path class="uuid-f958538b-f599-4032-b510-cacb9a5ffc39" d="m442.68,330.29v3.96h-.92v-3.87c0-1.44-.75-2.18-2.05-2.18-1.47,0-2.39.91-2.39,2.47v3.59h-.92v-6.84h.88v1.26c.49-.83,1.42-1.31,2.6-1.31,1.66,0,2.81.96,2.81,2.92Z"/><path class="uuid-f958538b-f599-4032-b510-cacb9a5ffc39" d="m451.17,331.13h-5.72c.1,1.43,1.2,2.38,2.69,2.38.83,0,1.57-.3,2.09-.9l.52.6c-.61.73-1.56,1.12-2.64,1.12-2.13,0-3.59-1.46-3.59-3.48s1.42-3.47,3.34-3.47,3.31,1.42,3.31,3.47c0,.08-.01.18-.01.29Zm-5.72-.69h4.85c-.12-1.34-1.09-2.27-2.43-2.27s-2.3.94-2.42,2.27Z"/><path class="uuid-f958538b-f599-4032-b510-cacb9a5ffc39" d="m456.51,327.37v.9c-.08,0-.16-.01-.22-.01-1.43,0-2.3.91-2.3,2.52v3.48h-.92v-6.84h.88v1.34c.43-.91,1.3-1.39,2.56-1.39Z"/><path class="uuid-f958538b-f599-4032-b510-cacb9a5ffc39" d="m463.33,330.02v4.24h-.88v-1.07c-.42.7-1.22,1.13-2.35,1.13-1.55,0-2.5-.81-2.5-1.99,0-1.05.68-1.94,2.64-1.94h2.17v-.42c0-1.17-.66-1.81-1.94-1.81-.88,0-1.72.31-2.27.81l-.42-.69c.69-.58,1.7-.92,2.78-.92,1.77,0,2.77.88,2.77,2.65Zm-.92,2.18v-1.12h-2.15c-1.33,0-1.75.52-1.75,1.22,0,.79.64,1.29,1.73,1.29s1.81-.49,2.17-1.39Z"/><path class="uuid-f958538b-f599-4032-b510-cacb9a5ffc39" d="m648.95,333.48l.42-.73c.55.43,1.47.77,2.43.77,1.3,0,1.83-.44,1.83-1.12,0-1.78-4.43-.38-4.43-3.08,0-1.12.96-1.95,2.7-1.95.88,0,1.85.25,2.42.64l-.4.74c-.6-.42-1.31-.58-2.02-.58-1.24,0-1.78.48-1.78,1.13,0,1.85,4.43.46,4.43,3.08,0,1.18-1.04,1.95-2.82,1.95-1.13,0-2.22-.36-2.78-.84Z"/><path class="uuid-f958538b-f599-4032-b510-cacb9a5ffc39" d="m655.57,330.84c0-2.03,1.48-3.47,3.48-3.47s3.47,1.44,3.47,3.47-1.47,3.48-3.47,3.48-3.48-1.46-3.48-3.48Zm6.02,0c0-1.6-1.08-2.67-2.54-2.67s-2.55,1.07-2.55,2.67,1.09,2.67,2.55,2.67,2.54-1.07,2.54-2.67Z"/><path class="uuid-f958538b-f599-4032-b510-cacb9a5ffc39" d="m670.7,330.29v3.96h-.92v-3.87c0-1.44-.75-2.18-2.05-2.18-1.47,0-2.39.91-2.39,2.47v3.59h-.92v-6.84h.88v1.26c.49-.83,1.42-1.31,2.6-1.31,1.66,0,2.81.96,2.81,2.92Z"/><polyline class="uuid-5ee7908a-f5a1-43a5-ba4a-a650a6ae3aba" points="902.31 196.16 902.31 424.86 921.85 424.86"/><path class="uuid-0fc70704-e815-49a9-bda6-88876693fd9e" d="m929.09,424.86c-3.41,1.26-7.64,3.42-10.26,5.71l2.06-5.71-2.06-5.71c2.62,2.29,6.85,4.44,10.26,5.71Z"/><line class="uuid-5ee7908a-f5a1-43a5-ba4a-a650a6ae3aba" x1="902.31" y1="350.28" x2="921.85" y2="350.28"/><path class="uuid-0fc70704-e815-49a9-bda6-88876693fd9e" d="m929.09,350.28c-3.41,1.26-7.64,3.42-10.26,5.71l2.06-5.71-2.06-5.71c2.62,2.29,6.85,4.44,10.26,5.71Z"/><line class="uuid-5ee7908a-f5a1-43a5-ba4a-a650a6ae3aba" x1="902.31" y1="275.7" x2="921.85" y2="275.7"/><path class="uuid-0fc70704-e815-49a9-bda6-88876693fd9e" d="m929.09,275.7c-3.41,1.26-7.64,3.42-10.26,5.71l2.06-5.71-2.06-5.71c2.62,2.29,6.85,4.44,10.26,5.71Z"/><line class="uuid-5ee7908a-f5a1-43a5-ba4a-a650a6ae3aba" x1="710.18" y1="57.32" x2="759.72" y2="57.32"/><path class="uuid-0fc70704-e815-49a9-bda6-88876693fd9e" d="m766.96,57.32c-3.41,1.26-7.64,3.42-10.26,5.71l2.06-5.71-2.06-5.71c2.62,2.29,6.85,4.44,10.26,5.71Z"/><path class="uuid-f958538b-f599-4032-b510-cacb9a5ffc39" d="m886.87,47.77c0,2.08-1.46,3.48-3.41,3.48-1.09,0-2.03-.47-2.6-1.35v3.81h-.92v-9.36h.88v1.35c.56-.91,1.51-1.4,2.64-1.4,1.95,0,3.41,1.4,3.41,3.47Zm-.92,0c0-1.59-1.1-2.67-2.55-2.67s-2.55,1.08-2.55,2.67,1.09,2.67,2.55,2.67,2.55-1.07,2.55-2.67Z"/><path class="uuid-f958538b-f599-4032-b510-cacb9a5ffc39" d="m893.88,46.95v4.24h-.88v-1.07c-.42.7-1.22,1.13-2.35,1.13-1.55,0-2.5-.81-2.5-1.99,0-1.05.68-1.94,2.64-1.94h2.17v-.42c0-1.17-.66-1.81-1.94-1.81-.88,0-1.72.31-2.28.81l-.42-.69c.69-.58,1.7-.92,2.78-.92,1.77,0,2.77.88,2.77,2.65Zm-.92,2.18v-1.12h-2.14c-1.33,0-1.76.52-1.76,1.22,0,.79.64,1.29,1.73,1.29s1.81-.49,2.17-1.39Z"/><path class="uuid-f958538b-f599-4032-b510-cacb9a5ffc39" d="m899.83,44.3v.9c-.08,0-.16-.01-.22-.01-1.43,0-2.3.91-2.3,2.52v3.48h-.92v-6.84h.88v1.34c.43-.91,1.3-1.39,2.56-1.39Z"/><path class="uuid-f958538b-f599-4032-b510-cacb9a5ffc39" d="m906.64,46.95v4.24h-.88v-1.07c-.42.7-1.22,1.13-2.35,1.13-1.55,0-2.5-.81-2.5-1.99,0-1.05.68-1.94,2.64-1.94h2.17v-.42c0-1.17-.66-1.81-1.94-1.81-.88,0-1.72.31-2.27.81l-.42-.69c.69-.58,1.7-.92,2.78-.92,1.77,0,2.77.88,2.77,2.65Zm-.92,2.18v-1.12h-2.15c-1.33,0-1.75.52-1.75,1.22,0,.79.64,1.29,1.73,1.29s1.81-.49,2.17-1.39Z"/><line class="uuid-5ee7908a-f5a1-43a5-ba4a-a650a6ae3aba" x1="863.37" y1="57.32" x2="912.91" y2="57.32"/><path class="uuid-0fc70704-e815-49a9-bda6-88876693fd9e" d="m920.15,57.32c-3.41,1.26-7.64,3.42-10.26,5.71l2.06-5.71-2.06-5.71c2.62,2.29,6.85,4.44,10.26,5.71Z"/><path class="uuid-f958538b-f599-4032-b510-cacb9a5ffc39" d="m910.04,208.89l.42-.73c.55.43,1.47.77,2.43.77,1.3,0,1.83-.44,1.83-1.12,0-1.78-4.43-.38-4.43-3.08,0-1.12.96-1.95,2.7-1.95.88,0,1.85.25,2.42.64l-.4.74c-.6-.42-1.31-.58-2.02-.58-1.24,0-1.78.48-1.78,1.13,0,1.85,4.43.46,4.43,3.08,0,1.18-1.04,1.95-2.82,1.95-1.13,0-2.22-.36-2.78-.84Z"/><path class="uuid-f958538b-f599-4032-b510-cacb9a5ffc39" d="m916.66,206.25c0-2.03,1.48-3.47,3.48-3.47s3.47,1.44,3.47,3.47-1.47,3.48-3.47,3.48-3.48-1.46-3.48-3.48Zm6.02,0c0-1.6-1.08-2.67-2.54-2.67s-2.55,1.07-2.55,2.67,1.09,2.67,2.55,2.67,2.54-1.07,2.54-2.67Z"/><path class="uuid-f958538b-f599-4032-b510-cacb9a5ffc39" d="m931.79,205.71v3.97h-.92v-3.87c0-1.44-.75-2.18-2.05-2.18-1.47,0-2.39.91-2.39,2.47v3.59h-.92v-6.84h.88v1.26c.49-.83,1.42-1.31,2.6-1.31,1.66,0,2.81.96,2.81,2.92Z"/><polyline class="uuid-5ee7908a-f5a1-43a5-ba4a-a650a6ae3aba" points="966.47 139.24 966.47 127.48 570.9 127.48"/><path class="uuid-0fc70704-e815-49a9-bda6-88876693fd9e" d="m966.47,146.48c1.26-3.41,3.42-7.64,5.71-10.26l-5.71,2.06-5.71-2.06c2.29,2.62,4.44,6.85,5.71,10.26Z"/><rect class="uuid-b33d384c-7d74-429a-991a-dc302e161b8b" x="93.68" y="147.67" width="164" height="47" rx="4.5" ry="4.5"/><path class="uuid-b33d384c-7d74-429a-991a-dc302e161b8b" d="m253.18,148.17c2.21,0,4,1.79,4,4v38c0,2.21-1.79,4-4,4H98.18c-2.21,0-4-1.79-4-4v-38c0-2.21,1.79-4,4-4h155m0-1H98.18c-2.76,0-5,2.24-5,5v38c0,2.76,2.24,5,5,5h155c2.76,0,5-2.24,5-5v-38c0-2.76-2.24-5-5-5h0Z"/><path class="uuid-e6d6c503-7217-42d7-99d1-e91c1f470982" d="m141.97,165.8v3.83h6.09v1.98h-6.09v4.83h-2.34v-12.6h9.2v1.96h-6.86Z"/><path class="uuid-e6d6c503-7217-42d7-99d1-e91c1f470982" d="m159.92,166.82v9.61h-2.14v-1.22c-.72.88-1.85,1.35-3.1,1.35-2.47,0-4.14-1.35-4.14-4.25v-5.49h2.25v5.19c0,1.75.83,2.57,2.25,2.57,1.57,0,2.63-.97,2.63-2.9v-4.86h2.25Z"/><path class="uuid-e6d6c503-7217-42d7-99d1-e91c1f470982" d="m172.34,170.93v5.51h-2.25v-5.22c0-1.71-.85-2.54-2.29-2.54-1.6,0-2.68.97-2.68,2.9v4.86h-2.25v-9.61h2.14v1.24c.74-.88,1.91-1.35,3.31-1.35,2.3,0,4.02,1.31,4.02,4.21Z"/><path class="uuid-e6d6c503-7217-42d7-99d1-e91c1f470982" d="m174.5,171.63c0-2.88,2.16-4.92,5.2-4.92,1.87,0,3.37.77,4.11,2.23l-1.73,1.01c-.58-.92-1.44-1.33-2.4-1.33-1.66,0-2.92,1.15-2.92,3.01s1.26,3.01,2.92,3.01c.95,0,1.82-.41,2.4-1.33l1.73,1.01c-.74,1.44-2.23,2.25-4.11,2.25-3.04,0-5.2-2.05-5.2-4.93Z"/><path class="uuid-e6d6c503-7217-42d7-99d1-e91c1f470982" d="m185.44,163.89c0-.76.61-1.35,1.44-1.35s1.44.56,1.44,1.3c0,.79-.59,1.4-1.44,1.4s-1.44-.59-1.44-1.35Zm.31,2.94h2.25v9.61h-2.25v-9.61Z"/><path class="uuid-e6d6c503-7217-42d7-99d1-e91c1f470982" d="m190.16,171.63c0-2.88,2.16-4.92,5.11-4.92s5.13,2.03,5.13,4.92-2.14,4.93-5.13,4.93-5.11-2.05-5.11-4.93Zm7.98,0c0-1.84-1.22-3.01-2.86-3.01s-2.85,1.17-2.85,3.01,1.22,3.01,2.85,3.01,2.86-1.17,2.86-3.01Zm-1.96-8.59h2.65l-3.13,2.47h-1.94l2.43-2.47Z"/><path class="uuid-e6d6c503-7217-42d7-99d1-e91c1f470982" d="m212.03,170.93v5.51h-2.25v-5.22c0-1.71-.85-2.54-2.29-2.54-1.6,0-2.68.97-2.68,2.9v4.86h-2.25v-9.61h2.14v1.24c.74-.88,1.91-1.35,3.31-1.35,2.3,0,4.02,1.31,4.02,4.21Z"/><rect class="uuid-e6d6c503-7217-42d7-99d1-e91c1f470982" x="20.13" y="245.67" width="146.13" height="58.09" rx="4.5" ry="4.5"/><path class="uuid-b33d384c-7d74-429a-991a-dc302e161b8b" d="m161.77,246.17c2.21,0,4,1.79,4,4v49.09c0,2.21-1.79,4-4,4H24.63c-2.21,0-4-1.79-4-4v-49.09c0-2.21,1.79-4,4-4h137.13m0-1H24.63c-2.76,0-5,2.24-5,5v49.09c0,2.76,2.24,5,5,5h137.13c2.76,0,5-2.24,5-5v-49.09c0-2.76-2.24-5-5-5h0Z"/><path class="uuid-e9d6b451-3622-4dbd-9ba6-5ae4d5eaceb9" d="m42.95,266v-6.37h1.6v6.31c0,2.48,1.14,3.6,3.15,3.6s3.17-1.12,3.17-3.6v-6.31h1.55v6.37c0,3.25-1.78,4.96-4.74,4.96s-4.74-1.71-4.74-4.96Z"/><path class="uuid-e9d6b451-3622-4dbd-9ba6-5ae4d5eaceb9" d="m63.53,265.96v4.88h-1.54v-4.71c0-1.66-.83-2.48-2.29-2.48-1.63,0-2.69.98-2.69,2.82v4.37h-1.54v-8.48h1.47v1.28c.62-.86,1.71-1.36,3.06-1.36,2.06,0,3.52,1.18,3.52,3.68Z"/><path class="uuid-e9d6b451-3622-4dbd-9ba6-5ae4d5eaceb9" d="m73.1,265.72v5.12h-1.46v-1.12c-.51.77-1.46,1.22-2.79,1.22-1.92,0-3.14-1.02-3.14-2.5,0-1.36.88-2.48,3.41-2.48h2.43v-.3c0-1.3-.75-2.05-2.27-2.05-1.01,0-2.03.35-2.69.91l-.64-1.15c.88-.7,2.14-1.09,3.51-1.09,2.32,0,3.63,1.12,3.63,3.44Zm-1.54,2.53v-1.18h-2.37c-1.52,0-1.95.59-1.95,1.31,0,.85.7,1.38,1.87,1.38s2.06-.53,2.45-1.5Z"/><path class="uuid-e9d6b451-3622-4dbd-9ba6-5ae4d5eaceb9" d="m84.81,262.27v1.49c-.13-.02-.24-.02-.35-.02-1.65,0-2.67,1.01-2.67,2.87v4.23h-1.54v-8.48h1.47v1.42c.54-.99,1.6-1.5,3.09-1.5Z"/><path class="uuid-e9d6b451-3622-4dbd-9ba6-5ae4d5eaceb9" d="m94.25,267.11h-6.88c.19,1.49,1.39,2.48,3.07,2.48.99,0,1.82-.34,2.45-1.02l.85.99c-.77.9-1.94,1.38-3.35,1.38-2.74,0-4.56-1.81-4.56-4.34s1.81-4.32,4.26-4.32,4.19,1.76,4.19,4.37c0,.13-.02.32-.03.46Zm-6.88-1.1h5.44c-.16-1.42-1.23-2.43-2.72-2.43s-2.56.99-2.72,2.43Z"/><path class="uuid-e9d6b451-3622-4dbd-9ba6-5ae4d5eaceb9" d="m104.52,262.36v7.33c0,2.99-1.52,4.35-4.4,4.35-1.55,0-3.12-.43-4.05-1.26l.74-1.18c.78.67,2.02,1.1,3.27,1.1,2,0,2.91-.93,2.91-2.85v-.67c-.74.88-1.84,1.31-3.06,1.31-2.45,0-4.31-1.66-4.31-4.11s1.86-4.1,4.31-4.1c1.26,0,2.42.46,3.14,1.39v-1.31h1.46Zm-1.5,4.02c0-1.65-1.22-2.75-2.91-2.75s-2.93,1.1-2.93,2.75,1.22,2.77,2.93,2.77,2.91-1.14,2.91-2.77Z"/><path class="uuid-e9d6b451-3622-4dbd-9ba6-5ae4d5eaceb9" d="m107.45,258.96h1.54v11.88h-1.54v-11.88Z"/><path class="uuid-e9d6b451-3622-4dbd-9ba6-5ae4d5eaceb9" d="m118.64,265.72v5.12h-1.46v-1.12c-.51.77-1.46,1.22-2.79,1.22-1.92,0-3.14-1.02-3.14-2.5,0-1.36.88-2.48,3.41-2.48h2.43v-.3c0-1.3-.75-2.05-2.27-2.05-1.01,0-2.03.35-2.69.91l-.64-1.15c.88-.7,2.14-1.09,3.51-1.09,2.32,0,3.63,1.12,3.63,3.44Zm-1.54,2.53v-1.18h-2.37c-1.52,0-1.95.59-1.95,1.31,0,.85.7,1.38,1.87,1.38s2.06-.53,2.45-1.5Z"/><path class="uuid-e9d6b451-3622-4dbd-9ba6-5ae4d5eaceb9" d="m133.79,258.96v11.88h-1.47v-1.34c-.69.96-1.78,1.44-3.03,1.44-2.48,0-4.29-1.74-4.29-4.34s1.81-4.32,4.29-4.32c1.2,0,2.26.45,2.96,1.36v-4.67h1.54Zm-1.52,7.64c0-1.81-1.23-2.98-2.85-2.98s-2.86,1.17-2.86,2.98,1.23,2.99,2.86,2.99,2.85-1.18,2.85-2.99Z"/><path class="uuid-e9d6b451-3622-4dbd-9ba6-5ae4d5eaceb9" d="m144.33,267.11h-6.88c.19,1.49,1.39,2.48,3.07,2.48.99,0,1.82-.34,2.45-1.02l.85.99c-.77.9-1.94,1.38-3.35,1.38-2.74,0-4.56-1.81-4.56-4.34s1.81-4.32,4.26-4.32,4.19,1.76,4.19,4.37c0,.13-.02.32-.03.46Zm-6.88-1.1h5.44c-.16-1.42-1.23-2.43-2.72-2.43s-2.56.99-2.72,2.43Z"/><path class="uuid-e9d6b451-3622-4dbd-9ba6-5ae4d5eaceb9" d="m25.56,285.8c0-2.53,1.87-4.32,4.48-4.32,1.52,0,2.78.62,3.46,1.81l-1.17.75c-.54-.83-1.38-1.22-2.3-1.22-1.66,0-2.91,1.17-2.91,2.98s1.25,2.99,2.91,2.99c.93,0,1.76-.38,2.3-1.22l1.17.74c-.67,1.18-1.94,1.82-3.46,1.82-2.61,0-4.48-1.81-4.48-4.34Z"/><path class="uuid-e9d6b451-3622-4dbd-9ba6-5ae4d5eaceb9" d="m34.57,285.8c0-2.53,1.87-4.32,4.42-4.32s4.4,1.79,4.4,4.32-1.86,4.34-4.4,4.34-4.42-1.81-4.42-4.34Zm7.27,0c0-1.81-1.22-2.98-2.85-2.98s-2.86,1.17-2.86,2.98,1.23,2.99,2.86,2.99,2.85-1.18,2.85-2.99Z"/><path class="uuid-e9d6b451-3622-4dbd-9ba6-5ae4d5eaceb9" d="m50.08,281.48v1.49c-.13-.02-.24-.02-.35-.02-1.65,0-2.67,1.01-2.67,2.87v4.23h-1.54v-8.48h1.47v1.42c.54-.99,1.6-1.5,3.09-1.5Z"/><path class="uuid-e9d6b451-3622-4dbd-9ba6-5ae4d5eaceb9" d="m56.52,281.48v1.49c-.13-.02-.24-.02-.35-.02-1.65,0-2.67,1.01-2.67,2.87v4.23h-1.54v-8.48h1.47v1.42c.54-.99,1.6-1.5,3.09-1.5Z"/><path class="uuid-e9d6b451-3622-4dbd-9ba6-5ae4d5eaceb9" d="m65.96,286.31h-6.88c.19,1.49,1.39,2.48,3.07,2.48.99,0,1.82-.34,2.45-1.02l.85.99c-.77.9-1.94,1.38-3.35,1.38-2.74,0-4.56-1.81-4.56-4.34s1.81-4.32,4.26-4.32,4.19,1.76,4.19,4.37c0,.13-.02.32-.03.46Zm-6.88-1.1h5.44c-.16-1.42-1.23-2.43-2.72-2.43s-2.56.99-2.72,2.43Z"/><path class="uuid-e9d6b451-3622-4dbd-9ba6-5ae4d5eaceb9" d="m67.05,289.14l.64-1.22c.72.51,1.87.88,2.98.88,1.42,0,2.02-.43,2.02-1.15,0-1.91-5.36-.26-5.36-3.63,0-1.52,1.36-2.54,3.54-2.54,1.1,0,2.35.29,3.09.77l-.66,1.22c-.77-.5-1.62-.67-2.45-.67-1.34,0-2,.5-2,1.17,0,2,5.38.37,5.38,3.67,0,1.54-1.41,2.51-3.67,2.51-1.41,0-2.8-.43-3.51-.99Z"/><path class="uuid-e9d6b451-3622-4dbd-9ba6-5ae4d5eaceb9" d="m84.92,285.8c0,2.61-1.81,4.34-4.29,4.34-1.2,0-2.26-.46-2.96-1.38v4.39h-1.54v-11.59h1.47v1.34c.69-.95,1.78-1.42,3.03-1.42,2.48,0,4.29,1.73,4.29,4.32Zm-1.55,0c0-1.79-1.23-2.98-2.87-2.98s-2.85,1.18-2.85,2.98,1.23,2.99,2.85,2.99,2.87-1.18,2.87-2.99Z"/><path class="uuid-e9d6b451-3622-4dbd-9ba6-5ae4d5eaceb9" d="m86.26,285.8c0-2.53,1.87-4.32,4.42-4.32s4.4,1.79,4.4,4.32-1.86,4.34-4.4,4.34-4.42-1.81-4.42-4.34Zm7.27,0c0-1.81-1.22-2.98-2.85-2.98s-2.86,1.17-2.86,2.98,1.23,2.99,2.86,2.99,2.85-1.18,2.85-2.99Z"/><path class="uuid-e9d6b451-3622-4dbd-9ba6-5ae4d5eaceb9" d="m105.26,285.16v4.88h-1.54v-4.71c0-1.67-.83-2.48-2.29-2.48-1.63,0-2.69.98-2.69,2.82v4.37h-1.54v-8.48h1.47v1.28c.62-.86,1.71-1.36,3.06-1.36,2.06,0,3.52,1.18,3.52,3.68Z"/><path class="uuid-e9d6b451-3622-4dbd-9ba6-5ae4d5eaceb9" d="m116.16,278.16v11.88h-1.47v-1.34c-.69.96-1.78,1.44-3.03,1.44-2.48,0-4.29-1.74-4.29-4.34s1.81-4.32,4.29-4.32c1.2,0,2.26.45,2.96,1.36v-4.67h1.54Zm-1.52,7.63c0-1.81-1.23-2.98-2.85-2.98s-2.86,1.17-2.86,2.98,1.23,2.99,2.86,2.99,2.85-1.18,2.85-2.99Z"/><path class="uuid-e9d6b451-3622-4dbd-9ba6-5ae4d5eaceb9" d="m126.7,286.31h-6.88c.19,1.49,1.39,2.48,3.07,2.48.99,0,1.82-.34,2.45-1.02l.85.99c-.77.9-1.94,1.38-3.35,1.38-2.74,0-4.56-1.81-4.56-4.34s1.81-4.32,4.26-4.32,4.19,1.76,4.19,4.37c0,.13-.02.32-.03.46Zm-6.88-1.1h5.44c-.16-1.42-1.23-2.43-2.72-2.43s-2.56.99-2.72,2.43Z"/><path class="uuid-e9d6b451-3622-4dbd-9ba6-5ae4d5eaceb9" d="m136.91,285.16v4.88h-1.54v-4.71c0-1.67-.83-2.48-2.29-2.48-1.63,0-2.69.98-2.69,2.82v4.37h-1.54v-8.48h1.47v1.28c.62-.86,1.71-1.36,3.06-1.36,2.06,0,3.52,1.18,3.52,3.68Z"/><path class="uuid-e9d6b451-3622-4dbd-9ba6-5ae4d5eaceb9" d="m139.02,285.8c0-2.53,1.87-4.32,4.48-4.32,1.52,0,2.78.62,3.46,1.81l-1.17.75c-.54-.83-1.38-1.22-2.3-1.22-1.66,0-2.91,1.17-2.91,2.98s1.25,2.99,2.91,2.99c.93,0,1.76-.38,2.3-1.22l1.17.74c-.67,1.18-1.94,1.82-3.46,1.82-2.61,0-4.48-1.81-4.48-4.34Z"/><path class="uuid-e9d6b451-3622-4dbd-9ba6-5ae4d5eaceb9" d="m148.66,278.93c0-.56.45-1.01,1.04-1.01s1.04.43,1.04.98c0,.58-.43,1.02-1.04,1.02s-1.04-.43-1.04-.99Zm.27,2.62h1.54v8.48h-1.54v-8.48Z"/><path class="uuid-e9d6b451-3622-4dbd-9ba6-5ae4d5eaceb9" d="m160.12,284.92v5.12h-1.46v-1.12c-.51.77-1.46,1.22-2.79,1.22-1.92,0-3.14-1.02-3.14-2.5,0-1.36.88-2.48,3.41-2.48h2.43v-.3c0-1.3-.75-2.05-2.27-2.05-1.01,0-2.03.35-2.69.91l-.64-1.15c.88-.7,2.14-1.09,3.51-1.09,2.32,0,3.63,1.12,3.63,3.44Zm-1.54,2.53v-1.18h-2.37c-1.52,0-1.95.59-1.95,1.31,0,.85.7,1.38,1.87,1.38s2.06-.53,2.45-1.5Z"/><rect class="uuid-e6d6c503-7217-42d7-99d1-e91c1f470982" x="185.09" y="245.67" width="146.13" height="58.09" rx="4.5" ry="4.5"/><path class="uuid-b33d384c-7d74-429a-991a-dc302e161b8b" d="m326.72,246.17c2.21,0,4,1.79,4,4v49.09c0,2.21-1.79,4-4,4h-137.13c-2.21,0-4-1.79-4-4v-49.09c0-2.21,1.79-4,4-4h137.13m0-1h-137.13c-2.76,0-5,2.24-5,5v49.09c0,2.76,2.24,5,5,5h137.13c2.76,0,5-2.24,5-5v-49.09c0-2.76-2.24-5-5-5h0Z"/><path class="uuid-e9d6b451-3622-4dbd-9ba6-5ae4d5eaceb9" d="m208.58,266.08v-6.37h1.6v6.31c0,2.48,1.14,3.6,3.15,3.6s3.17-1.12,3.17-3.6v-6.31h1.55v6.37c0,3.25-1.78,4.96-4.74,4.96s-4.74-1.71-4.74-4.96Z"/><path class="uuid-e9d6b451-3622-4dbd-9ba6-5ae4d5eaceb9" d="m229.16,266.03v4.88h-1.54v-4.71c0-1.66-.83-2.48-2.29-2.48-1.63,0-2.69.98-2.69,2.82v4.37h-1.54v-8.48h1.47v1.28c.62-.86,1.71-1.36,3.06-1.36,2.06,0,3.52,1.18,3.52,3.68Z"/><path class="uuid-e9d6b451-3622-4dbd-9ba6-5ae4d5eaceb9" d="m238.73,265.79v5.12h-1.46v-1.12c-.51.77-1.46,1.22-2.79,1.22-1.92,0-3.14-1.02-3.14-2.5,0-1.36.88-2.48,3.41-2.48h2.43v-.3c0-1.3-.75-2.05-2.27-2.05-1.01,0-2.03.35-2.69.91l-.64-1.15c.88-.7,2.14-1.09,3.51-1.09,2.32,0,3.63,1.12,3.63,3.44Zm-1.54,2.53v-1.18h-2.37c-1.52,0-1.95.59-1.95,1.31,0,.85.7,1.38,1.87,1.38s2.06-.53,2.45-1.5Z"/><path class="uuid-e9d6b451-3622-4dbd-9ba6-5ae4d5eaceb9" d="m250.44,262.35v1.49c-.13-.02-.24-.02-.35-.02-1.65,0-2.67,1.01-2.67,2.87v4.23h-1.54v-8.48h1.47v1.42c.54-.99,1.6-1.5,3.09-1.5Z"/><path class="uuid-e9d6b451-3622-4dbd-9ba6-5ae4d5eaceb9" d="m259.88,267.18h-6.88c.19,1.49,1.39,2.48,3.07,2.48.99,0,1.82-.34,2.45-1.02l.85.99c-.77.9-1.94,1.38-3.35,1.38-2.74,0-4.56-1.81-4.56-4.34s1.81-4.32,4.26-4.32,4.19,1.76,4.19,4.37c0,.13-.02.32-.03.46Zm-6.88-1.1h5.44c-.16-1.42-1.23-2.43-2.72-2.43s-2.56.99-2.72,2.43Z"/><path class="uuid-e9d6b451-3622-4dbd-9ba6-5ae4d5eaceb9" d="m262.04,259.03h1.54v11.88h-1.54v-11.88Z"/><path class="uuid-e9d6b451-3622-4dbd-9ba6-5ae4d5eaceb9" d="m273.22,265.79v5.12h-1.46v-1.12c-.51.77-1.46,1.22-2.79,1.22-1.92,0-3.14-1.02-3.14-2.5,0-1.36.88-2.48,3.41-2.48h2.43v-.3c0-1.3-.75-2.05-2.27-2.05-1.01,0-2.03.35-2.69.91l-.64-1.15c.88-.7,2.14-1.09,3.51-1.09,2.32,0,3.63,1.12,3.63,3.44Zm-1.54,2.53v-1.18h-2.37c-1.52,0-1.95.59-1.95,1.31,0,.85.7,1.38,1.87,1.38s2.06-.53,2.45-1.5Z"/><path class="uuid-e9d6b451-3622-4dbd-9ba6-5ae4d5eaceb9" d="m275.33,266.67c0-2.53,1.87-4.32,4.48-4.32,1.52,0,2.79.62,3.46,1.81l-1.17.75c-.54-.83-1.38-1.22-2.3-1.22-1.66,0-2.91,1.17-2.91,2.98s1.25,2.99,2.91,2.99c.93,0,1.76-.38,2.3-1.22l1.17.74c-.67,1.18-1.94,1.82-3.46,1.82-2.61,0-4.48-1.81-4.48-4.34Z"/><path class="uuid-e9d6b451-3622-4dbd-9ba6-5ae4d5eaceb9" d="m284.98,259.8c0-.56.45-1.01,1.04-1.01s1.04.43,1.04.98c0,.58-.43,1.02-1.04,1.02s-1.04-.43-1.04-.99Zm.27,2.62h1.54v8.48h-1.54v-8.48Z"/><path class="uuid-e9d6b451-3622-4dbd-9ba6-5ae4d5eaceb9" d="m288.93,266.67c0-2.53,1.87-4.32,4.42-4.32s4.4,1.79,4.4,4.32-1.86,4.34-4.4,4.34-4.42-1.81-4.42-4.34Zm7.27,0c0-1.81-1.22-2.98-2.85-2.98s-2.86,1.17-2.86,2.98,1.23,2.99,2.86,2.99,2.85-1.18,2.85-2.99Zm-1.89-7.56h1.95l-2.69,2.08h-1.44l2.18-2.08Z"/><path class="uuid-e9d6b451-3622-4dbd-9ba6-5ae4d5eaceb9" d="m307.93,266.03v4.88h-1.54v-4.71c0-1.66-.83-2.48-2.29-2.48-1.63,0-2.69.98-2.69,2.82v4.37h-1.54v-8.48h1.47v1.28c.62-.86,1.71-1.36,3.06-1.36,2.06,0,3.52,1.18,3.52,3.68Z"/><path class="uuid-e9d6b451-3622-4dbd-9ba6-5ae4d5eaceb9" d="m219.16,278.23v11.88h-1.47v-1.34c-.69.96-1.78,1.44-3.03,1.44-2.48,0-4.29-1.75-4.29-4.34s1.81-4.32,4.29-4.32c1.2,0,2.26.45,2.96,1.36v-4.67h1.54Zm-1.52,7.64c0-1.81-1.23-2.98-2.85-2.98s-2.86,1.17-2.86,2.98,1.23,2.99,2.86,2.99,2.85-1.18,2.85-2.99Z"/><path class="uuid-e9d6b451-3622-4dbd-9ba6-5ae4d5eaceb9" d="m229.71,286.38h-6.88c.19,1.49,1.39,2.48,3.07,2.48.99,0,1.82-.34,2.45-1.02l.85.99c-.77.9-1.94,1.38-3.35,1.38-2.74,0-4.56-1.81-4.56-4.34s1.81-4.32,4.26-4.32,4.19,1.76,4.19,4.37c0,.13-.02.32-.03.46Zm-6.88-1.1h5.44c-.16-1.42-1.23-2.43-2.72-2.43s-2.56.99-2.72,2.43Z"/><path class="uuid-e9d6b451-3622-4dbd-9ba6-5ae4d5eaceb9" d="m243.67,281.63l-3.71,8.48h-1.57l-3.71-8.48h1.6l2.91,6.8,2.98-6.8h1.5Z"/><path class="uuid-e9d6b451-3622-4dbd-9ba6-5ae4d5eaceb9" d="m251.56,284.99v5.12h-1.46v-1.12c-.51.77-1.46,1.22-2.79,1.22-1.92,0-3.14-1.02-3.14-2.5,0-1.36.88-2.48,3.41-2.48h2.43v-.3c0-1.3-.75-2.05-2.27-2.05-1.01,0-2.03.35-2.69.91l-.64-1.15c.88-.7,2.14-1.09,3.51-1.09,2.32,0,3.63,1.12,3.63,3.44Zm-1.54,2.53v-1.18h-2.37c-1.52,0-1.95.59-1.95,1.31,0,.85.7,1.38,1.87,1.38s2.06-.53,2.45-1.5Z"/><path class="uuid-e9d6b451-3622-4dbd-9ba6-5ae4d5eaceb9" d="m258.97,281.55v1.49c-.13-.02-.24-.02-.35-.02-1.65,0-2.67,1.01-2.67,2.87v4.23h-1.54v-8.48h1.47v1.42c.54-.99,1.6-1.5,3.09-1.5Z"/><path class="uuid-e9d6b451-3622-4dbd-9ba6-5ae4d5eaceb9" d="m260.58,279c0-.56.45-1.01,1.04-1.01s1.04.43,1.04.98c0,.58-.43,1.02-1.04,1.02s-1.04-.43-1.04-.99Zm.27,2.62h1.54v8.48h-1.54v-8.48Z"/><path class="uuid-e9d6b451-3622-4dbd-9ba6-5ae4d5eaceb9" d="m272.04,284.99v5.12h-1.46v-1.12c-.51.77-1.46,1.22-2.79,1.22-1.92,0-3.14-1.02-3.14-2.5,0-1.36.88-2.48,3.41-2.48h2.43v-.3c0-1.3-.75-2.05-2.27-2.05-1.01,0-2.03.35-2.69.91l-.64-1.15c.88-.7,2.14-1.09,3.51-1.09,2.32,0,3.63,1.12,3.63,3.44Zm-1.54,2.53v-1.18h-2.37c-1.52,0-1.95.59-1.95,1.31,0,.85.7,1.38,1.87,1.38s2.06-.53,2.45-1.5Z"/><path class="uuid-e9d6b451-3622-4dbd-9ba6-5ae4d5eaceb9" d="m283.67,285.87c0,2.59-1.81,4.34-4.29,4.34-1.25,0-2.34-.48-3.03-1.44v1.34h-1.47v-11.88h1.54v4.67c.7-.91,1.76-1.36,2.96-1.36,2.48,0,4.29,1.73,4.29,4.32Zm-1.55,0c0-1.81-1.23-2.98-2.87-2.98s-2.85,1.17-2.85,2.98,1.23,2.99,2.85,2.99,2.87-1.18,2.87-2.99Z"/><path class="uuid-e9d6b451-3622-4dbd-9ba6-5ae4d5eaceb9" d="m285.8,278.23h1.54v11.88h-1.54v-11.88Z"/><path class="uuid-e9d6b451-3622-4dbd-9ba6-5ae4d5eaceb9" d="m297.9,286.38h-6.88c.19,1.49,1.39,2.48,3.07,2.48.99,0,1.82-.34,2.45-1.02l.85.99c-.77.9-1.94,1.38-3.35,1.38-2.74,0-4.56-1.81-4.56-4.34s1.81-4.32,4.26-4.32,4.19,1.76,4.19,4.37c0,.13-.02.32-.03.46Zm-6.88-1.1h5.44c-.16-1.42-1.23-2.43-2.72-2.43s-2.56.99-2.72,2.43Z"/><path class="uuid-e9d6b451-3622-4dbd-9ba6-5ae4d5eaceb9" d="m298.98,289.21l.64-1.22c.72.51,1.87.88,2.98.88,1.42,0,2.02-.43,2.02-1.15,0-1.9-5.36-.26-5.36-3.63,0-1.52,1.36-2.54,3.54-2.54,1.1,0,2.35.29,3.09.77l-.66,1.22c-.77-.5-1.62-.67-2.45-.67-1.34,0-2,.5-2,1.17,0,2,5.38.37,5.38,3.67,0,1.54-1.41,2.51-3.67,2.51-1.41,0-2.8-.43-3.51-.99Z"/><rect class="uuid-e6d6c503-7217-42d7-99d1-e91c1f470982" x="20.13" y="321.59" width="146.13" height="58.09" rx="4.5" ry="4.5"/><path class="uuid-b33d384c-7d74-429a-991a-dc302e161b8b" d="m161.77,322.09c2.21,0,4,1.79,4,4v49.09c0,2.21-1.79,4-4,4H24.63c-2.21,0-4-1.79-4-4v-49.09c0-2.21,1.79-4,4-4h137.13m0-1H24.63c-2.76,0-5,2.24-5,5v49.09c0,2.76,2.24,5,5,5h137.13c2.76,0,5-2.24,5-5v-49.09c0-2.76-2.24-5-5-5h0Z"/><path class="uuid-e9d6b451-3622-4dbd-9ba6-5ae4d5eaceb9" d="m78.09,356.02c-.3,1.41-.76,2.47-1.38,3.16s-1.4,1.04-2.33,1.04c-.27,0-.49-.02-.64-.05l.17-.86c.06.02.22.03.46.03.29,0,.54-.07.75-.22.21-.15.4-.41.58-.78s.34-.88.49-1.54l2.1-9.29h-1.65l.15-.67c.44-.03.75-.06.94-.11.19-.04.34-.11.45-.21.11-.09.2-.21.27-.36s.17-.42.29-.81c.35-1.17.88-2.05,1.6-2.64.72-.59,1.64-.88,2.75-.88.64,0,1.19.05,1.65.16l-.38,1.66h-.86c-.09-.37-.21-.64-.36-.8-.15-.16-.36-.24-.65-.24-.37,0-.69.1-.94.31s-.48.51-.66.91c-.18.4-.35.95-.51,1.63l-.24,1.06h2.51l-.21.99h-2.52l-1.82,8.52Z"/><path class="uuid-e9d6b451-3622-4dbd-9ba6-5ae4d5eaceb9" d="m88.47,350.92c0,2.18.38,4.02,1.15,5.52.77,1.5,1.91,2.46,3.42,2.87l-.16.8c-2.1-.41-3.67-1.44-4.72-3.08-1.05-1.64-1.58-3.65-1.58-6.01,0-2.53.53-4.62,1.58-6.26,1.05-1.64,2.63-2.61,4.72-2.91l.16.8c-1.52.29-2.66,1.19-3.42,2.69-.77,1.5-1.15,3.36-1.15,5.58Z"/><path class="uuid-e9d6b451-3622-4dbd-9ba6-5ae4d5eaceb9" d="m98.03,351.44c-.1-.51-.2-1.01-.3-1.48-.1-.47-.21-.92-.32-1.33s-.2-.68-.27-.81-.15-.21-.23-.26-.18-.07-.31-.07c-.14,0-.26.03-.37.09-.11.06-.23.17-.36.32-.13.15-.3.39-.52.72l-.63-.42c.41-.62.8-1.08,1.18-1.39.38-.31.82-.46,1.34-.46.2,0,.38.02.53.07.15.05.29.12.41.21.12.09.22.22.31.37.09.15.18.35.26.61.08.26.16.58.24.96s.14.78.2,1.19h.1c.62-.88,1.1-1.52,1.42-1.93.32-.41.59-.71.82-.91.22-.2.43-.34.64-.42.21-.08.48-.12.82-.12.31,0,.56.04.75.12l-.39,1.77h-.68c-.04-.27-.15-.41-.34-.41-.06,0-.12,0-.19.03s-.15.06-.24.13c-.09.07-.23.19-.42.38-.18.19-.39.42-.62.69s-.46.56-.7.86l-.66.83c.12.62.23,1.17.33,1.62.1.46.2.83.28,1.14s.15.54.21.72.13.31.2.4.15.15.22.19c.07.04.16.05.26.05.18,0,.35-.07.51-.21s.41-.45.72-.93l.63.42c-.46.68-.87,1.15-1.24,1.43-.37.28-.81.42-1.31.42-.28,0-.52-.05-.71-.15-.2-.1-.36-.26-.51-.48-.14-.22-.27-.57-.38-1.04-.2-.83-.33-1.47-.37-1.91h-.1c-.69.97-1.2,1.67-1.54,2.09-.34.42-.61.74-.83.94-.22.2-.43.34-.63.42-.21.08-.48.12-.82.12-.31,0-.56-.04-.75-.12l.39-1.77h.68c.04.27.15.41.34.41.09,0,.19-.02.29-.07s.25-.17.43-.35.45-.48.78-.87c.33-.4.81-.99,1.45-1.79Z"/><path class="uuid-e9d6b451-3622-4dbd-9ba6-5ae4d5eaceb9" d="m108.92,350.92c0-2.22-.38-4.08-1.15-5.58-.77-1.5-1.91-2.4-3.42-2.69l.16-.8c2.1.29,3.67,1.26,4.72,2.91,1.05,1.64,1.58,3.73,1.58,6.26,0,2.36-.53,4.37-1.58,6.01-1.05,1.64-2.63,2.67-4.72,3.08l-.16-.8c1.52-.41,2.66-1.37,3.42-2.87.77-1.5,1.15-3.34,1.15-5.52Z"/><rect class="uuid-b33d384c-7d74-429a-991a-dc302e161b8b" x="488.85" y="147.67" width="164" height="47" rx="4.5" ry="4.5"/><path class="uuid-b33d384c-7d74-429a-991a-dc302e161b8b" d="m648.35,148.17c2.21,0,4,1.79,4,4v38c0,2.21-1.79,4-4,4h-155c-2.21,0-4-1.79-4-4v-38c0-2.21,1.79-4,4-4h155m0-1h-155c-2.76,0-5,2.24-5,5v38c0,2.76,2.24,5,5,5h155c2.76,0,5-2.24,5-5v-38c0-2.76-2.24-5-5-5h0Z"/><path class="uuid-e6d6c503-7217-42d7-99d1-e91c1f470982" d="m526.31,173.52h-6.3l-1.24,2.92h-2.41l5.67-12.6h2.3l5.69,12.6h-2.45l-1.26-2.92Zm-.77-1.84l-2.38-5.51-2.36,5.51h4.74Z"/><path class="uuid-e6d6c503-7217-42d7-99d1-e91c1f470982" d="m531.4,163.08h2.25v13.36h-2.25v-13.36Z"/><path class="uuid-e6d6c503-7217-42d7-99d1-e91c1f470982" d="m546.14,166.82v8.16c0,3.49-1.82,5.08-5.19,5.08-1.8,0-3.58-.47-4.68-1.37l1.01-1.69c.85.7,2.21,1.15,3.55,1.15,2.12,0,3.06-.97,3.06-2.92v-.5c-.79.86-1.93,1.28-3.22,1.28-2.75,0-4.86-1.87-4.86-4.66s2.11-4.63,4.86-4.63c1.35,0,2.54.43,3.33,1.39v-1.28h2.14Zm-2.21,4.52c0-1.62-1.22-2.72-2.92-2.72s-2.93,1.1-2.93,2.72,1.22,2.75,2.93,2.75,2.92-1.12,2.92-2.75Z"/><path class="uuid-e6d6c503-7217-42d7-99d1-e91c1f470982" d="m558.09,172.35h-7.54c.27,1.4,1.44,2.3,3.12,2.3,1.08,0,1.93-.34,2.61-1.04l1.21,1.39c-.86,1.03-2.21,1.57-3.87,1.57-3.22,0-5.31-2.07-5.31-4.93s2.11-4.92,4.97-4.92,4.86,1.96,4.86,4.97c0,.18-.02.45-.04.67Zm-7.56-1.49h5.46c-.18-1.39-1.24-2.34-2.72-2.34s-2.52.94-2.74,2.34Z"/><path class="uuid-e6d6c503-7217-42d7-99d1-e91c1f470982" d="m570.5,171.63c0,2.99-2.07,4.93-4.88,4.93-1.31,0-2.43-.45-3.19-1.37v1.24h-2.14v-13.36h2.25v4.92c.77-.86,1.85-1.28,3.08-1.28,2.81,0,4.88,1.93,4.88,4.92Zm-2.29,0c0-1.84-1.22-3.01-2.85-3.01s-2.86,1.17-2.86,3.01,1.24,3.01,2.86,3.01,2.85-1.17,2.85-3.01Z"/><path class="uuid-e6d6c503-7217-42d7-99d1-e91c1f470982" d="m578.2,166.71v2.14c-.2-.04-.36-.05-.52-.05-1.71,0-2.79,1.01-2.79,2.97v4.66h-2.25v-9.61h2.14v1.4c.65-1.01,1.82-1.51,3.42-1.51Z"/><path class="uuid-e6d6c503-7217-42d7-99d1-e91c1f470982" d="m588.1,170.8v5.64h-2.12v-1.17c-.54.83-1.58,1.3-3.03,1.3-2.2,0-3.58-1.21-3.58-2.88s1.08-2.86,4-2.86h2.48v-.14c0-1.31-.79-2.09-2.39-2.09-1.08,0-2.2.36-2.92.95l-.88-1.64c1.03-.79,2.52-1.19,4.07-1.19,2.77,0,4.38,1.31,4.38,4.09Zm-2.25,2.63v-1.12h-2.32c-1.53,0-1.94.58-1.94,1.28,0,.81.68,1.33,1.84,1.33s2.05-.5,2.43-1.49Z"/><path class="uuid-e6d6c503-7217-42d7-99d1-e91c1f470982" d="m590.67,163.89c0-.76.61-1.35,1.44-1.35s1.44.56,1.44,1.3c0,.79-.59,1.4-1.44,1.4s-1.44-.59-1.44-1.35Zm.31,2.94h2.25v9.61h-2.25v-9.61Z"/><path class="uuid-e6d6c503-7217-42d7-99d1-e91c1f470982" d="m595.39,171.63c0-2.88,2.16-4.92,5.2-4.92,1.87,0,3.37.77,4.11,2.23l-1.73,1.01c-.58-.92-1.44-1.33-2.39-1.33-1.66,0-2.92,1.15-2.92,3.01s1.26,3.01,2.92,3.01c.95,0,1.82-.41,2.39-1.33l1.73,1.01c-.74,1.44-2.23,2.25-4.11,2.25-3.04,0-5.2-2.05-5.2-4.93Z"/><path class="uuid-e6d6c503-7217-42d7-99d1-e91c1f470982" d="m614.68,170.8v5.64h-2.12v-1.17c-.54.83-1.58,1.3-3.02,1.3-2.2,0-3.58-1.21-3.58-2.88s1.08-2.86,4-2.86h2.48v-.14c0-1.31-.79-2.09-2.39-2.09-1.08,0-2.2.36-2.92.95l-.88-1.64c1.03-.79,2.52-1.19,4.07-1.19,2.77,0,4.38,1.31,4.38,4.09Zm-2.25,2.63v-1.12h-2.32c-1.53,0-1.95.58-1.95,1.28,0,.81.68,1.33,1.84,1.33s2.05-.5,2.43-1.49Z"/><path class="uuid-e6d6c503-7217-42d7-99d1-e91c1f470982" d="m616.46,175.48l.86-1.71c.85.56,2.14.95,3.35.95,1.42,0,2.02-.4,2.02-1.06,0-1.84-5.94-.11-5.94-3.94,0-1.82,1.64-3.01,4.23-3.01,1.28,0,2.74.31,3.6.83l-.86,1.71c-.92-.54-1.84-.72-2.75-.72-1.37,0-2.02.45-2.02,1.08,0,1.94,5.94.22,5.94,3.98,0,1.8-1.66,2.97-4.36,2.97-1.6,0-3.21-.47-4.07-1.08Z"/><rect class="uuid-e6d6c503-7217-42d7-99d1-e91c1f470982" x="371.74" y="245.67" width="146.13" height="58.09" rx="4.5" ry="4.5"/><path class="uuid-b33d384c-7d74-429a-991a-dc302e161b8b" d="m513.37,246.17c2.21,0,4,1.79,4,4v49.09c0,2.21-1.79,4-4,4h-137.13c-2.21,0-4-1.79-4-4v-49.09c0-2.21,1.79-4,4-4h137.13m0-1h-137.13c-2.76,0-5,2.24-5,5v49.09c0,2.76,2.24,5,5,5h137.13c2.76,0,5-2.24,5-5v-49.09c0-2.76-2.24-5-5-5h0Z"/><path class="uuid-e9d6b451-3622-4dbd-9ba6-5ae4d5eaceb9" d="m401.84,280.34l-2.42-3.44c-.22.02-.46.03-.7.03h-2.77v3.41h-1.6v-11.21h4.37c2.91,0,4.67,1.47,4.67,3.91,0,1.73-.9,2.98-2.46,3.54l2.66,3.76h-1.75Zm-.05-7.3c0-1.6-1.07-2.51-3.12-2.51h-2.72v5.04h2.72c2.05,0,3.12-.93,3.12-2.53Z"/><path class="uuid-e9d6b451-3622-4dbd-9ba6-5ae4d5eaceb9" d="m413.39,276.61h-6.88c.19,1.49,1.39,2.48,3.07,2.48.99,0,1.83-.34,2.45-1.02l.85.99c-.77.9-1.94,1.38-3.35,1.38-2.74,0-4.56-1.81-4.56-4.34s1.81-4.32,4.26-4.32,4.19,1.76,4.19,4.37c0,.13-.02.32-.03.46Zm-6.88-1.1h5.44c-.16-1.42-1.23-2.43-2.72-2.43s-2.56.99-2.72,2.43Z"/><path class="uuid-e9d6b451-3622-4dbd-9ba6-5ae4d5eaceb9" d="m424.33,276.1c0,2.61-1.81,4.34-4.29,4.34-1.2,0-2.26-.46-2.96-1.38v4.39h-1.54v-11.59h1.47v1.34c.69-.95,1.78-1.42,3.03-1.42,2.48,0,4.29,1.73,4.29,4.32Zm-1.55,0c0-1.79-1.23-2.98-2.87-2.98s-2.85,1.18-2.85,2.98,1.23,2.99,2.85,2.99,2.87-1.18,2.87-2.99Z"/><path class="uuid-e9d6b451-3622-4dbd-9ba6-5ae4d5eaceb9" d="m431.02,271.78v1.49c-.13-.02-.24-.02-.35-.02-1.65,0-2.67,1.01-2.67,2.87v4.23h-1.54v-8.48h1.47v1.42c.54-.99,1.6-1.5,3.09-1.5Z"/><path class="uuid-e9d6b451-3622-4dbd-9ba6-5ae4d5eaceb9" d="m440.46,276.61h-6.88c.19,1.49,1.39,2.48,3.07,2.48.99,0,1.83-.34,2.45-1.02l.85.99c-.77.9-1.94,1.38-3.35,1.38-2.74,0-4.56-1.81-4.56-4.34s1.81-4.32,4.26-4.32,4.19,1.76,4.19,4.37c0,.13-.02.32-.03.46Zm-6.88-1.1h5.44c-.16-1.42-1.23-2.43-2.72-2.43s-2.56.99-2.72,2.43Z"/><path class="uuid-e9d6b451-3622-4dbd-9ba6-5ae4d5eaceb9" d="m441.55,279.44l.64-1.22c.72.51,1.87.88,2.98.88,1.42,0,2.02-.43,2.02-1.15,0-1.91-5.36-.26-5.36-3.63,0-1.52,1.36-2.54,3.54-2.54,1.1,0,2.35.29,3.09.77l-.66,1.22c-.77-.5-1.62-.67-2.45-.67-1.34,0-2,.5-2,1.17,0,2,5.38.37,5.38,3.67,0,1.54-1.41,2.51-3.67,2.51-1.41,0-2.8-.43-3.5-.99Z"/><path class="uuid-e9d6b451-3622-4dbd-9ba6-5ae4d5eaceb9" d="m458.27,276.61h-6.88c.19,1.49,1.39,2.48,3.07,2.48.99,0,1.83-.34,2.45-1.02l.85.99c-.77.9-1.94,1.38-3.35,1.38-2.74,0-4.56-1.81-4.56-4.34s1.81-4.32,4.26-4.32,4.19,1.76,4.19,4.37c0,.13-.02.32-.03.46Zm-6.88-1.1h5.44c-.16-1.42-1.23-2.43-2.72-2.43s-2.56.99-2.72,2.43Z"/><path class="uuid-e9d6b451-3622-4dbd-9ba6-5ae4d5eaceb9" d="m468.48,275.46v4.88h-1.54v-4.71c0-1.67-.83-2.48-2.29-2.48-1.63,0-2.69.98-2.69,2.82v4.37h-1.54v-8.48h1.47v1.28c.62-.86,1.71-1.36,3.06-1.36,2.07,0,3.52,1.18,3.52,3.68Z"/><path class="uuid-e9d6b451-3622-4dbd-9ba6-5ae4d5eaceb9" d="m476.09,279.84c-.46.4-1.17.59-1.86.59-1.71,0-2.69-.94-2.69-2.66v-4.66h-1.44v-1.26h1.44v-1.86h1.54v1.86h2.43v1.26h-2.43v4.59c0,.91.48,1.42,1.33,1.42.45,0,.88-.14,1.2-.4l.48,1.1Z"/><path class="uuid-e9d6b451-3622-4dbd-9ba6-5ae4d5eaceb9" d="m484.67,275.22v5.12h-1.46v-1.12c-.51.77-1.46,1.22-2.79,1.22-1.92,0-3.14-1.02-3.14-2.5,0-1.36.88-2.48,3.41-2.48h2.43v-.3c0-1.3-.75-2.05-2.27-2.05-1.01,0-2.03.35-2.69.91l-.64-1.15c.88-.7,2.14-1.09,3.5-1.09,2.32,0,3.63,1.12,3.63,3.44Zm-1.54,2.53v-1.18h-2.37c-1.52,0-1.95.59-1.95,1.31,0,.85.7,1.38,1.87,1.38s2.06-.53,2.45-1.5Z"/><path class="uuid-e9d6b451-3622-4dbd-9ba6-5ae4d5eaceb9" d="m495.56,275.46v4.88h-1.54v-4.71c0-1.67-.83-2.48-2.29-2.48-1.63,0-2.69.98-2.69,2.82v4.37h-1.54v-8.48h1.47v1.28c.62-.86,1.71-1.36,3.06-1.36,2.06,0,3.52,1.18,3.52,3.68Z"/><rect class="uuid-e6d6c503-7217-42d7-99d1-e91c1f470982" x="623.83" y="245.67" width="146.13" height="58.09" rx="4.5" ry="4.5"/><path class="uuid-b33d384c-7d74-429a-991a-dc302e161b8b" d="m765.46,246.17c2.21,0,4,1.79,4,4v49.09c0,2.21-1.79,4-4,4h-137.13c-2.21,0-4-1.79-4-4v-49.09c0-2.21,1.79-4,4-4h137.13m0-1h-137.13c-2.76,0-5,2.24-5,5v49.09c0,2.76,2.24,5,5,5h137.13c2.76,0,5-2.24,5-5v-49.09c0-2.76-2.24-5-5-5h0Z"/><path class="uuid-e9d6b451-3622-4dbd-9ba6-5ae4d5eaceb9" d="m656.52,273.11c0,2.43-1.76,3.91-4.67,3.91h-2.77v3.39h-1.6v-11.21h4.37c2.91,0,4.67,1.47,4.67,3.91Zm-1.6,0c0-1.6-1.07-2.51-3.12-2.51h-2.72v5.03h2.72c2.05,0,3.12-.91,3.12-2.51Z"/><path class="uuid-e9d6b451-3622-4dbd-9ba6-5ae4d5eaceb9" d="m663.07,271.85v1.49c-.13-.02-.24-.02-.35-.02-1.65,0-2.67,1.01-2.67,2.87v4.23h-1.54v-8.48h1.47v1.42c.54-.99,1.6-1.5,3.09-1.5Z"/><path class="uuid-e9d6b451-3622-4dbd-9ba6-5ae4d5eaceb9" d="m664.09,276.17c0-2.53,1.87-4.32,4.42-4.32s4.4,1.79,4.4,4.32-1.86,4.34-4.4,4.34-4.42-1.81-4.42-4.34Zm7.27,0c0-1.81-1.22-2.98-2.85-2.98s-2.87,1.17-2.87,2.98,1.23,2.99,2.87,2.99,2.85-1.18,2.85-2.99Z"/><path class="uuid-e9d6b451-3622-4dbd-9ba6-5ae4d5eaceb9" d="m683.82,276.17c0,2.61-1.81,4.34-4.29,4.34-1.2,0-2.26-.46-2.96-1.38v4.39h-1.54v-11.59h1.47v1.34c.69-.95,1.78-1.42,3.03-1.42,2.48,0,4.29,1.73,4.29,4.32Zm-1.55,0c0-1.79-1.23-2.98-2.87-2.98s-2.85,1.18-2.85,2.98,1.23,2.99,2.85,2.99,2.87-1.18,2.87-2.99Z"/><path class="uuid-e9d6b451-3622-4dbd-9ba6-5ae4d5eaceb9" d="m685.67,269.3c0-.56.45-1.01,1.04-1.01s1.04.43,1.04.98c0,.58-.43,1.02-1.04,1.02s-1.04-.43-1.04-.99Zm.27,2.62h1.54v8.48h-1.54v-8.48Z"/><path class="uuid-e9d6b451-3622-4dbd-9ba6-5ae4d5eaceb9" d="m698.04,276.68h-6.88c.19,1.49,1.39,2.48,3.07,2.48.99,0,1.82-.34,2.45-1.02l.85.99c-.77.9-1.94,1.38-3.35,1.38-2.74,0-4.56-1.81-4.56-4.34s1.81-4.32,4.26-4.32,4.19,1.76,4.19,4.37c0,.13-.02.32-.03.46Zm-6.88-1.1h5.44c-.16-1.42-1.23-2.43-2.72-2.43s-2.56.99-2.72,2.43Z"/><path class="uuid-e9d6b451-3622-4dbd-9ba6-5ae4d5eaceb9" d="m708.2,268.54v11.88h-1.47v-1.34c-.69.96-1.78,1.44-3.03,1.44-2.48,0-4.29-1.74-4.29-4.34s1.81-4.32,4.29-4.32c1.2,0,2.26.45,2.96,1.36v-4.67h1.54Zm-1.52,7.63c0-1.81-1.23-2.98-2.85-2.98s-2.87,1.17-2.87,2.98,1.23,2.99,2.87,2.99,2.85-1.18,2.85-2.99Z"/><path class="uuid-e9d6b451-3622-4dbd-9ba6-5ae4d5eaceb9" d="m717.84,275.29v5.12h-1.46v-1.12c-.51.77-1.46,1.22-2.79,1.22-1.92,0-3.14-1.02-3.14-2.5,0-1.36.88-2.48,3.41-2.48h2.43v-.3c0-1.3-.75-2.05-2.27-2.05-1.01,0-2.03.35-2.69.91l-.64-1.15c.88-.7,2.14-1.09,3.51-1.09,2.32,0,3.63,1.12,3.63,3.44Zm-1.54,2.53v-1.18h-2.37c-1.52,0-1.95.59-1.95,1.31,0,.85.71,1.38,1.87,1.38s2.06-.53,2.45-1.5Z"/><path class="uuid-e9d6b451-3622-4dbd-9ba6-5ae4d5eaceb9" d="m728.73,268.54v11.88h-1.47v-1.34c-.69.96-1.78,1.44-3.03,1.44-2.48,0-4.29-1.74-4.29-4.34s1.81-4.32,4.29-4.32c1.2,0,2.26.45,2.96,1.36v-4.67h1.54Zm-1.52,7.63c0-1.81-1.23-2.98-2.85-2.98s-2.87,1.17-2.87,2.98,1.23,2.99,2.87,2.99,2.85-1.18,2.85-2.99Z"/><path class="uuid-e9d6b451-3622-4dbd-9ba6-5ae4d5eaceb9" d="m739.28,276.68h-6.88c.19,1.49,1.39,2.48,3.07,2.48.99,0,1.82-.34,2.45-1.02l.85.99c-.77.9-1.94,1.38-3.35,1.38-2.74,0-4.56-1.81-4.56-4.34s1.81-4.32,4.26-4.32,4.19,1.76,4.19,4.37c0,.13-.02.32-.03.46Zm-6.88-1.1h5.44c-.16-1.42-1.23-2.43-2.72-2.43s-2.56.99-2.72,2.43Z"/><path class="uuid-e9d6b451-3622-4dbd-9ba6-5ae4d5eaceb9" d="m740.36,279.52l.64-1.22c.72.51,1.87.88,2.98.88,1.42,0,2.02-.43,2.02-1.15,0-1.91-5.36-.26-5.36-3.63,0-1.52,1.36-2.54,3.54-2.54,1.1,0,2.35.29,3.09.77l-.66,1.22c-.77-.5-1.62-.67-2.45-.67-1.34,0-2,.5-2,1.17,0,2,5.38.37,5.38,3.67,0,1.54-1.41,2.51-3.67,2.51-1.41,0-2.8-.43-3.51-.99Z"/><rect class="uuid-e6d6c503-7217-42d7-99d1-e91c1f470982" x="415.29" y="354.76" width="146.13" height="58.09" rx="4.5" ry="4.5"/><path class="uuid-b33d384c-7d74-429a-991a-dc302e161b8b" d="m556.92,355.26c2.21,0,4,1.79,4,4v49.09c0,2.21-1.79,4-4,4h-137.13c-2.21,0-4-1.79-4-4v-49.09c0-2.21,1.79-4,4-4h137.13m0-1h-137.13c-2.76,0-5,2.24-5,5v49.09c0,2.76,2.24,5,5,5h137.13c2.76,0,5-2.24,5-5v-49.09c0-2.76-2.24-5-5-5h0Z"/><path class="uuid-e9d6b451-3622-4dbd-9ba6-5ae4d5eaceb9" d="m453.63,386.5h-5.95l-1.23,2.8h-1.65l5.07-11.21h1.58l5.09,11.21h-1.68l-1.23-2.8Zm-.56-1.28l-2.42-5.49-2.42,5.49h4.83Z"/><path class="uuid-e9d6b451-3622-4dbd-9ba6-5ae4d5eaceb9" d="m457.98,377.42h1.54v11.88h-1.54v-11.88Z"/><path class="uuid-e9d6b451-3622-4dbd-9ba6-5ae4d5eaceb9" d="m470.56,380.82v7.33c0,2.99-1.52,4.35-4.4,4.35-1.55,0-3.12-.43-4.05-1.26l.74-1.18c.78.67,2.02,1.1,3.27,1.1,2,0,2.91-.93,2.91-2.85v-.67c-.74.88-1.84,1.31-3.06,1.31-2.45,0-4.31-1.66-4.31-4.11s1.86-4.1,4.31-4.1c1.26,0,2.42.46,3.14,1.39v-1.31h1.46Zm-1.5,4.02c0-1.65-1.22-2.75-2.91-2.75s-2.93,1.1-2.93,2.75,1.22,2.77,2.93,2.77,2.91-1.14,2.91-2.77Z"/><path class="uuid-e9d6b451-3622-4dbd-9ba6-5ae4d5eaceb9" d="m481.12,385.57h-6.88c.19,1.49,1.39,2.48,3.07,2.48.99,0,1.83-.34,2.45-1.02l.85.99c-.77.9-1.94,1.38-3.35,1.38-2.74,0-4.56-1.81-4.56-4.34s1.81-4.32,4.26-4.32,4.19,1.76,4.19,4.37c0,.13-.02.32-.03.46Zm-6.88-1.1h5.44c-.16-1.42-1.23-2.43-2.72-2.43s-2.56.99-2.72,2.43Z"/><path class="uuid-e9d6b451-3622-4dbd-9ba6-5ae4d5eaceb9" d="m492.06,385.06c0,2.59-1.81,4.34-4.29,4.34-1.25,0-2.34-.48-3.03-1.44v1.34h-1.47v-11.88h1.54v4.67c.7-.91,1.76-1.36,2.96-1.36,2.48,0,4.29,1.73,4.29,4.32Zm-1.55,0c0-1.81-1.23-2.98-2.87-2.98s-2.85,1.17-2.85,2.98,1.23,2.99,2.85,2.99,2.87-1.18,2.87-2.99Z"/><path class="uuid-e9d6b451-3622-4dbd-9ba6-5ae4d5eaceb9" d="m498.75,380.74v1.49c-.13-.02-.24-.02-.35-.02-1.65,0-2.67,1.01-2.67,2.87v4.23h-1.54v-8.48h1.47v1.42c.54-.99,1.6-1.5,3.09-1.5Z"/><path class="uuid-e9d6b451-3622-4dbd-9ba6-5ae4d5eaceb9" d="m507.34,384.18v5.12h-1.46v-1.12c-.51.77-1.46,1.22-2.79,1.22-1.92,0-3.14-1.02-3.14-2.5,0-1.36.88-2.48,3.41-2.48h2.43v-.3c0-1.3-.75-2.05-2.27-2.05-1.01,0-2.03.35-2.69.91l-.64-1.15c.88-.7,2.14-1.09,3.5-1.09,2.32,0,3.63,1.12,3.63,3.44Zm-1.54,2.53v-1.18h-2.37c-1.52,0-1.95.59-1.95,1.31,0,.85.7,1.38,1.87,1.38s2.06-.53,2.45-1.5Z"/><path class="uuid-e9d6b451-3622-4dbd-9ba6-5ae4d5eaceb9" d="m509.91,378.19c0-.56.45-1.01,1.04-1.01s1.04.43,1.04.98c0,.58-.43,1.02-1.04,1.02s-1.04-.43-1.04-.99Zm.27,2.62h1.54v8.48h-1.54v-8.48Z"/><path class="uuid-e9d6b451-3622-4dbd-9ba6-5ae4d5eaceb9" d="m513.86,385.06c0-2.53,1.87-4.32,4.48-4.32,1.52,0,2.78.62,3.46,1.81l-1.17.75c-.54-.83-1.38-1.22-2.3-1.22-1.66,0-2.91,1.17-2.91,2.98s1.25,2.99,2.91,2.99c.93,0,1.76-.38,2.3-1.22l1.17.74c-.67,1.18-1.94,1.82-3.46,1.82-2.61,0-4.48-1.81-4.48-4.34Z"/><path class="uuid-e9d6b451-3622-4dbd-9ba6-5ae4d5eaceb9" d="m530.51,384.18v5.12h-1.46v-1.12c-.51.77-1.46,1.22-2.79,1.22-1.92,0-3.14-1.02-3.14-2.5,0-1.36.88-2.48,3.41-2.48h2.43v-.3c0-1.3-.75-2.05-2.27-2.05-1.01,0-2.03.35-2.69.91l-.64-1.15c.88-.7,2.14-1.09,3.5-1.09,2.32,0,3.63,1.12,3.63,3.44Zm-1.54,2.53v-1.18h-2.37c-1.52,0-1.95.59-1.95,1.31,0,.85.7,1.38,1.87,1.38s2.06-.53,2.45-1.5Z"/><rect class="uuid-e6d6c503-7217-42d7-99d1-e91c1f470982" x="415.29" y="578.49" width="146.13" height="58.09" rx="4.5" ry="4.5"/><path class="uuid-b33d384c-7d74-429a-991a-dc302e161b8b" d="m556.92,578.99c2.21,0,4,1.79,4,4v49.09c0,2.21-1.79,4-4,4h-137.13c-2.21,0-4-1.79-4-4v-49.09c0-2.21,1.79-4,4-4h137.13m0-1h-137.13c-2.76,0-5,2.24-5,5v49.09c0,2.76,2.24,5,5,5h137.13c2.76,0,5-2.24,5-5v-49.09c0-2.76-2.24-5-5-5h0Z"/><path class="uuid-e9d6b451-3622-4dbd-9ba6-5ae4d5eaceb9" d="m473.96,602.07l-4.91,11.2h-1.58l-4.93-11.2h1.73l4.03,9.2,4.07-9.2h1.6Z"/><path class="uuid-e9d6b451-3622-4dbd-9ba6-5ae4d5eaceb9" d="m482.15,609.55h-6.88c.19,1.49,1.39,2.48,3.07,2.48.99,0,1.83-.34,2.45-1.02l.85.99c-.77.9-1.94,1.38-3.35,1.38-2.74,0-4.56-1.81-4.56-4.34s1.81-4.32,4.26-4.32,4.19,1.76,4.19,4.37c0,.13-.02.32-.03.46Zm-6.88-1.1h5.44c-.16-1.42-1.23-2.43-2.72-2.43s-2.56.99-2.72,2.43Z"/><path class="uuid-e9d6b451-3622-4dbd-9ba6-5ae4d5eaceb9" d="m488.87,604.71v1.49c-.13-.02-.24-.02-.35-.02-1.65,0-2.67,1.01-2.67,2.87v4.23h-1.54v-8.48h1.47v1.42c.54-.99,1.6-1.5,3.09-1.5Z"/><path class="uuid-e9d6b451-3622-4dbd-9ba6-5ae4d5eaceb9" d="m499.54,609.04c0,2.59-1.81,4.34-4.29,4.34-1.25,0-2.34-.48-3.03-1.44v1.34h-1.47v-11.88h1.54v4.67c.7-.91,1.76-1.36,2.96-1.36,2.48,0,4.29,1.73,4.29,4.32Zm-1.55,0c0-1.81-1.23-2.98-2.87-2.98s-2.85,1.17-2.85,2.98,1.23,2.99,2.85,2.99,2.87-1.18,2.87-2.99Z"/><path class="uuid-e9d6b451-3622-4dbd-9ba6-5ae4d5eaceb9" d="m508.31,608.16v5.12h-1.46v-1.12c-.51.77-1.46,1.22-2.79,1.22-1.92,0-3.14-1.02-3.14-2.5,0-1.36.88-2.48,3.41-2.48h2.43v-.3c0-1.3-.75-2.05-2.27-2.05-1.01,0-2.03.35-2.69.91l-.64-1.15c.88-.7,2.14-1.09,3.5-1.09,2.32,0,3.63,1.12,3.63,3.44Zm-1.54,2.53v-1.18h-2.37c-1.52,0-1.95.59-1.95,1.31,0,.85.7,1.38,1.87,1.38s2.06-.53,2.45-1.5Z"/><path class="uuid-e9d6b451-3622-4dbd-9ba6-5ae4d5eaceb9" d="m511.15,601.4h1.54v11.88h-1.54v-11.88Z"/><rect class="uuid-e6d6c503-7217-42d7-99d1-e91c1f470982" x="415.29" y="429.34" width="146.13" height="58.09" rx="4.5" ry="4.5"/><path class="uuid-b33d384c-7d74-429a-991a-dc302e161b8b" d="m556.92,429.84c2.21,0,4,1.79,4,4v49.09c0,2.21-1.79,4-4,4h-137.13c-2.21,0-4-1.79-4-4v-49.09c0-2.21,1.79-4,4-4h137.13m0-1h-137.13c-2.76,0-5,2.24-5,5v49.09c0,2.76,2.24,5,5,5h137.13c2.76,0,5-2.24,5-5v-49.09c0-2.76-2.24-5-5-5h0Z"/><path class="uuid-e9d6b451-3622-4dbd-9ba6-5ae4d5eaceb9" d="m450.15,458.21h1.54v4.37c-1.12.94-2.67,1.42-4.24,1.42-3.44,0-5.97-2.42-5.97-5.73s2.53-5.73,6-5.73c1.78,0,3.28.59,4.31,1.73l-.99.99c-.93-.9-1.98-1.3-3.25-1.3-2.59,0-4.47,1.81-4.47,4.31s1.87,4.31,4.45,4.31c.94,0,1.82-.21,2.62-.72v-3.65Z"/><path class="uuid-e9d6b451-3622-4dbd-9ba6-5ae4d5eaceb9" d="m462.15,460.15h-6.88c.19,1.49,1.39,2.48,3.07,2.48.99,0,1.83-.34,2.45-1.02l.85.99c-.77.9-1.94,1.38-3.35,1.38-2.74,0-4.56-1.81-4.56-4.34s1.81-4.32,4.26-4.32,4.19,1.76,4.19,4.37c0,.13-.02.32-.03.46Zm-6.88-1.1h5.44c-.16-1.42-1.23-2.43-2.72-2.43s-2.56.99-2.72,2.43Z"/><path class="uuid-e9d6b451-3622-4dbd-9ba6-5ae4d5eaceb9" d="m463.52,459.64c0-2.53,1.87-4.32,4.42-4.32s4.4,1.79,4.4,4.32-1.86,4.34-4.4,4.34-4.42-1.81-4.42-4.34Zm7.27,0c0-1.81-1.22-2.98-2.85-2.98s-2.86,1.17-2.86,2.98,1.23,2.99,2.86,2.99,2.85-1.18,2.85-2.99Z"/><path class="uuid-e9d6b451-3622-4dbd-9ba6-5ae4d5eaceb9" d="m488.55,459v4.88h-1.54v-4.71c0-1.67-.8-2.48-2.19-2.48-1.54,0-2.55.98-2.55,2.82v4.37h-1.54v-4.71c0-1.67-.8-2.48-2.19-2.48-1.54,0-2.54.98-2.54,2.82v4.37h-1.54v-8.48h1.47v1.26c.61-.87,1.65-1.34,2.93-1.34s2.38.51,2.95,1.57c.64-.96,1.83-1.57,3.27-1.57,2.06,0,3.47,1.18,3.47,3.68Z"/><path class="uuid-e9d6b451-3622-4dbd-9ba6-5ae4d5eaceb9" d="m499.06,460.15h-6.88c.19,1.49,1.39,2.48,3.07,2.48.99,0,1.83-.34,2.45-1.02l.85.99c-.77.9-1.94,1.38-3.35,1.38-2.74,0-4.56-1.81-4.56-4.34s1.81-4.32,4.26-4.32,4.19,1.76,4.19,4.37c0,.13-.02.32-.03.46Zm-6.88-1.1h5.44c-.16-1.42-1.23-2.43-2.72-2.43s-2.56.99-2.72,2.43Zm2.95-4.88h-1.44l2.18-2.08h1.95l-2.69,2.08Z"/><path class="uuid-e9d6b451-3622-4dbd-9ba6-5ae4d5eaceb9" d="m505.99,463.38c-.46.4-1.17.59-1.86.59-1.71,0-2.69-.94-2.69-2.66v-4.66h-1.44v-1.26h1.44v-1.86h1.54v1.86h2.43v1.26h-2.43v4.59c0,.91.48,1.42,1.33,1.42.45,0,.88-.14,1.2-.4l.48,1.1Z"/><path class="uuid-e9d6b451-3622-4dbd-9ba6-5ae4d5eaceb9" d="m512.4,455.31v1.49c-.13-.02-.24-.02-.35-.02-1.65,0-2.67,1.01-2.67,2.87v4.23h-1.54v-8.48h1.47v1.42c.54-.99,1.6-1.5,3.09-1.5Z"/><path class="uuid-e9d6b451-3622-4dbd-9ba6-5ae4d5eaceb9" d="m514.02,452.77c0-.56.45-1.01,1.04-1.01s1.04.43,1.04.98c0,.58-.43,1.02-1.04,1.02s-1.04-.43-1.04-.99Zm.27,2.62h1.54v8.48h-1.54v-8.48Z"/><path class="uuid-e9d6b451-3622-4dbd-9ba6-5ae4d5eaceb9" d="m517.97,459.64c0-2.53,1.87-4.32,4.48-4.32,1.52,0,2.78.62,3.46,1.81l-1.17.75c-.54-.83-1.38-1.22-2.3-1.22-1.66,0-2.91,1.17-2.91,2.98s1.25,2.99,2.91,2.99c.93,0,1.76-.38,2.3-1.22l1.17.74c-.67,1.18-1.94,1.82-3.46,1.82-2.61,0-4.48-1.81-4.48-4.34Z"/><path class="uuid-e9d6b451-3622-4dbd-9ba6-5ae4d5eaceb9" d="m534.61,458.76v5.12h-1.46v-1.12c-.51.77-1.46,1.22-2.79,1.22-1.92,0-3.14-1.02-3.14-2.5,0-1.36.88-2.48,3.41-2.48h2.43v-.3c0-1.3-.75-2.05-2.27-2.05-1.01,0-2.03.35-2.69.91l-.64-1.15c.88-.7,2.14-1.09,3.51-1.09,2.32,0,3.63,1.12,3.63,3.44Zm-1.54,2.53v-1.18h-2.37c-1.52,0-1.95.59-1.95,1.31,0,.85.71,1.38,1.87,1.38s2.06-.53,2.45-1.5Z"/><rect class="uuid-e6d6c503-7217-42d7-99d1-e91c1f470982" x="415.29" y="503.92" width="146.13" height="58.09" rx="4.5" ry="4.5"/><path class="uuid-b33d384c-7d74-429a-991a-dc302e161b8b" d="m556.92,504.42c2.21,0,4,1.79,4,4v49.09c0,2.21-1.79,4-4,4h-137.13c-2.21,0-4-1.79-4-4v-49.09c0-2.21,1.79-4,4-4h137.13m0-1h-137.13c-2.76,0-5,2.24-5,5v49.09c0,2.76,2.24,5,5,5h137.13c2.76,0,5-2.24,5-5v-49.09c0-2.76-2.24-5-5-5h0Z"/><path class="uuid-e9d6b451-3622-4dbd-9ba6-5ae4d5eaceb9" d="m459.57,527.5v11.21h-1.31l-6.72-8.36v8.36h-1.6v-11.21h1.31l6.72,8.36v-8.36h1.6Z"/><path class="uuid-e9d6b451-3622-4dbd-9ba6-5ae4d5eaceb9" d="m470.61,530.22v8.48h-1.46v-1.28c-.62.88-1.68,1.38-2.88,1.38-2.19,0-3.65-1.2-3.65-3.7v-4.88h1.54v4.71c0,1.66.83,2.5,2.29,2.5,1.6,0,2.62-.99,2.62-2.82v-4.39h1.54Z"/><path class="uuid-e9d6b451-3622-4dbd-9ba6-5ae4d5eaceb9" d="m487.62,533.82v4.88h-1.54v-4.71c0-1.67-.8-2.48-2.19-2.48-1.54,0-2.55.98-2.55,2.82v4.37h-1.54v-4.71c0-1.67-.8-2.48-2.19-2.48-1.54,0-2.54.98-2.54,2.82v4.37h-1.54v-8.48h1.47v1.26c.61-.87,1.65-1.34,2.93-1.34s2.38.51,2.95,1.57c.64-.96,1.83-1.57,3.27-1.57,2.06,0,3.47,1.18,3.47,3.68Z"/><path class="uuid-e9d6b451-3622-4dbd-9ba6-5ae4d5eaceb9" d="m498.13,534.97h-6.88c.19,1.49,1.39,2.48,3.07,2.48.99,0,1.83-.34,2.45-1.02l.85.99c-.77.9-1.94,1.38-3.35,1.38-2.74,0-4.56-1.81-4.56-4.34s1.81-4.32,4.26-4.32,4.19,1.76,4.19,4.37c0,.13-.02.32-.03.46Zm-6.88-1.1h5.44c-.16-1.42-1.23-2.43-2.72-2.43s-2.56.99-2.72,2.43Zm2.95-4.88h-1.44l2.18-2.08h1.95l-2.69,2.08Z"/><path class="uuid-e9d6b451-3622-4dbd-9ba6-5ae4d5eaceb9" d="m504.85,530.14v1.49c-.13-.02-.24-.02-.35-.02-1.65,0-2.67,1.01-2.67,2.87v4.23h-1.54v-8.48h1.47v1.42c.54-.99,1.6-1.5,3.09-1.5Z"/><path class="uuid-e9d6b451-3622-4dbd-9ba6-5ae4d5eaceb9" d="m506.47,527.59c0-.56.45-1.01,1.04-1.01s1.04.43,1.04.98c0,.58-.43,1.02-1.04,1.02s-1.04-.43-1.04-.99Zm.27,2.62h1.54v8.48h-1.54v-8.48Z"/><path class="uuid-e9d6b451-3622-4dbd-9ba6-5ae4d5eaceb9" d="m510.42,534.46c0-2.53,1.87-4.32,4.48-4.32,1.52,0,2.78.62,3.46,1.81l-1.17.75c-.54-.83-1.38-1.22-2.3-1.22-1.66,0-2.91,1.17-2.91,2.98s1.25,2.99,2.91,2.99c.93,0,1.76-.38,2.3-1.22l1.17.74c-.67,1.18-1.94,1.82-3.46,1.82-2.61,0-4.48-1.81-4.48-4.34Z"/><path class="uuid-e9d6b451-3622-4dbd-9ba6-5ae4d5eaceb9" d="m527.06,533.58v5.12h-1.46v-1.12c-.51.77-1.46,1.22-2.79,1.22-1.92,0-3.14-1.02-3.14-2.5,0-1.36.88-2.48,3.41-2.48h2.43v-.3c0-1.3-.75-2.05-2.27-2.05-1.01,0-2.03.35-2.69.91l-.64-1.15c.88-.7,2.14-1.09,3.51-1.09,2.32,0,3.63,1.12,3.63,3.44Zm-1.54,2.53v-1.18h-2.37c-1.52,0-1.95.59-1.95,1.31,0,.85.71,1.38,1.87,1.38s2.06-.53,2.45-1.5Z"/><rect class="uuid-b33d384c-7d74-429a-991a-dc302e161b8b" x="884.92" y="147.67" width="164" height="47" rx="4.5" ry="4.5"/><path class="uuid-b33d384c-7d74-429a-991a-dc302e161b8b" d="m1044.42,148.17c2.21,0,4,1.79,4,4v38c0,2.21-1.79,4-4,4h-155c-2.21,0-4-1.79-4-4v-38c0-2.21,1.79-4,4-4h155m0-1h-155c-2.76,0-5,2.24-5,5v38c0,2.76,2.24,5,5,5h155c2.76,0,5-2.24,5-5v-38c0-2.76-2.24-5-5-5h0Z"/><path class="uuid-e6d6c503-7217-42d7-99d1-e91c1f470982" d="m903.26,165.82h-4.18v-1.98h10.69v1.98h-4.18v10.62h-2.34v-10.62Z"/><path class="uuid-e6d6c503-7217-42d7-99d1-e91c1f470982" d="m916.65,166.71v2.14c-.2-.04-.36-.05-.52-.05-1.71,0-2.79,1.01-2.79,2.97v4.66h-2.25v-9.61h2.14v1.4c.65-1.01,1.82-1.51,3.42-1.51Z"/><path class="uuid-e6d6c503-7217-42d7-99d1-e91c1f470982" d="m926.56,170.8v5.64h-2.12v-1.17c-.54.83-1.58,1.3-3.02,1.3-2.2,0-3.58-1.21-3.58-2.88s1.08-2.86,4-2.86h2.48v-.14c0-1.31-.79-2.09-2.39-2.09-1.08,0-2.2.36-2.92.95l-.88-1.64c1.03-.79,2.52-1.19,4.07-1.19,2.77,0,4.38,1.31,4.38,4.09Zm-2.25,2.63v-1.12h-2.32c-1.53,0-1.95.58-1.95,1.28,0,.81.68,1.33,1.84,1.33s2.05-.5,2.43-1.49Z"/><path class="uuid-e6d6c503-7217-42d7-99d1-e91c1f470982" d="m928.33,175.48l.86-1.71c.85.56,2.14.95,3.35.95,1.42,0,2.02-.4,2.02-1.06,0-1.84-5.94-.11-5.94-3.94,0-1.82,1.64-3.01,4.23-3.01,1.28,0,2.74.31,3.6.83l-.86,1.71c-.92-.54-1.84-.72-2.75-.72-1.37,0-2.02.45-2.02,1.08,0,1.94,5.94.22,5.94,3.98,0,1.8-1.66,2.97-4.36,2.97-1.6,0-3.21-.47-4.07-1.08Z"/><path class="uuid-e6d6c503-7217-42d7-99d1-e91c1f470982" d="m937.91,171.63c0-2.88,2.16-4.92,5.2-4.92,1.87,0,3.37.77,4.11,2.23l-1.73,1.01c-.58-.92-1.44-1.33-2.4-1.33-1.66,0-2.92,1.15-2.92,3.01s1.26,3.01,2.92,3.01c.96,0,1.82-.41,2.4-1.33l1.73,1.01c-.74,1.44-2.23,2.25-4.11,2.25-3.04,0-5.2-2.05-5.2-4.93Z"/><path class="uuid-e6d6c503-7217-42d7-99d1-e91c1f470982" d="m958.02,172.35h-7.54c.27,1.4,1.44,2.3,3.11,2.3,1.08,0,1.93-.34,2.61-1.04l1.21,1.39c-.86,1.03-2.21,1.57-3.87,1.57-3.22,0-5.31-2.07-5.31-4.93s2.11-4.92,4.97-4.92,4.86,1.96,4.86,4.97c0,.18-.02.45-.04.67Zm-7.56-1.49h5.46c-.18-1.39-1.24-2.34-2.72-2.34s-2.52.94-2.74,2.34Z"/><path class="uuid-e6d6c503-7217-42d7-99d1-e91c1f470982" d="m969.68,170.93v5.51h-2.25v-5.22c0-1.71-.85-2.54-2.29-2.54-1.6,0-2.68.97-2.68,2.9v4.86h-2.25v-9.61h2.14v1.24c.74-.88,1.91-1.35,3.31-1.35,2.3,0,4.02,1.31,4.02,4.21Z"/><path class="uuid-e6d6c503-7217-42d7-99d1-e91c1f470982" d="m982.05,163.08v13.36h-2.16v-1.24c-.76.92-1.87,1.37-3.19,1.37-2.79,0-4.86-1.94-4.86-4.93s2.07-4.92,4.86-4.92c1.24,0,2.34.41,3.1,1.3v-4.93h2.25Zm-2.21,8.55c0-1.84-1.24-3.01-2.86-3.01s-2.86,1.17-2.86,3.01,1.24,3.01,2.86,3.01,2.86-1.17,2.86-3.01Z"/><path class="uuid-e6d6c503-7217-42d7-99d1-e91c1f470982" d="m994,172.35h-7.54c.27,1.4,1.44,2.3,3.12,2.3,1.08,0,1.93-.34,2.61-1.04l1.21,1.39c-.86,1.03-2.21,1.57-3.87,1.57-3.22,0-5.31-2.07-5.31-4.93s2.11-4.92,4.97-4.92,4.86,1.96,4.86,4.97c0,.18-.02.45-.04.67Zm-7.56-1.49h5.46c-.18-1.39-1.24-2.34-2.72-2.34s-2.52.94-2.74,2.34Z"/><path class="uuid-e6d6c503-7217-42d7-99d1-e91c1f470982" d="m1005.67,170.93v5.51h-2.25v-5.22c0-1.71-.85-2.54-2.29-2.54-1.6,0-2.68.97-2.68,2.9v4.86h-2.25v-9.61h2.14v1.24c.74-.88,1.91-1.35,3.31-1.35,2.3,0,4.01,1.31,4.01,4.21Z"/><path class="uuid-e6d6c503-7217-42d7-99d1-e91c1f470982" d="m1014.31,175.92c-.54.43-1.35.65-2.16.65-2.11,0-3.31-1.12-3.31-3.24v-4.63h-1.58v-1.8h1.58v-2.2h2.25v2.2h2.58v1.8h-2.58v4.57c0,.94.47,1.44,1.33,1.44.47,0,.92-.13,1.26-.4l.63,1.6Z"/><path class="uuid-e6d6c503-7217-42d7-99d1-e91c1f470982" d="m1024.84,172.35h-7.54c.27,1.4,1.44,2.3,3.12,2.3,1.08,0,1.93-.34,2.61-1.04l1.21,1.39c-.86,1.03-2.21,1.57-3.87,1.57-3.22,0-5.31-2.07-5.31-4.93s2.11-4.92,4.97-4.92,4.86,1.96,4.86,4.97c0,.18-.02.45-.04.67Zm-7.56-1.49h5.46c-.18-1.39-1.24-2.34-2.72-2.34s-2.52.94-2.74,2.34Z"/><path class="uuid-e6d6c503-7217-42d7-99d1-e91c1f470982" d="m1025.93,175.48l.86-1.71c.85.56,2.14.95,3.35.95,1.42,0,2.02-.4,2.02-1.06,0-1.84-5.94-.11-5.94-3.94,0-1.82,1.64-3.01,4.23-3.01,1.28,0,2.74.31,3.6.83l-.86,1.71c-.92-.54-1.84-.72-2.75-.72-1.37,0-2.02.45-2.02,1.08,0,1.94,5.94.22,5.94,3.98,0,1.8-1.66,2.97-4.36,2.97-1.6,0-3.21-.47-4.07-1.08Z"/><rect class="uuid-e6d6c503-7217-42d7-99d1-e91c1f470982" x="668.65" y="354.76" width="146.13" height="58.09" rx="4.5" ry="4.5"/><path class="uuid-b33d384c-7d74-429a-991a-dc302e161b8b" d="m810.28,355.26c2.21,0,4,1.79,4,4v49.09c0,2.21-1.79,4-4,4h-137.13c-2.21,0-4-1.79-4-4v-49.09c0-2.21,1.79-4,4-4h137.13m0-1h-137.13c-2.76,0-5,2.24-5,5v49.09c0,2.76,2.24,5,5,5h137.13c2.76,0,5-2.24,5-5v-49.09c0-2.76-2.24-5-5-5h0Z"/><path class="uuid-e9d6b451-3622-4dbd-9ba6-5ae4d5eaceb9" d="m709.8,389.54l-.02-8.16-4.05,6.8h-.74l-4.05-6.75v8.12h-1.54v-11.2h1.31l4.67,7.88,4.61-7.88h1.31l.02,11.2h-1.54Z"/><path class="uuid-e9d6b451-3622-4dbd-9ba6-5ae4d5eaceb9" d="m713.68,385.3c0-2.53,1.87-4.32,4.42-4.32s4.4,1.79,4.4,4.32-1.86,4.34-4.4,4.34-4.42-1.81-4.42-4.34Zm7.27,0c0-1.81-1.22-2.98-2.85-2.98s-2.87,1.17-2.87,2.98,1.23,2.99,2.87,2.99,2.85-1.18,2.85-2.99Z"/><path class="uuid-e9d6b451-3622-4dbd-9ba6-5ae4d5eaceb9" d="m732.68,384.66v4.88h-1.54v-4.71c0-1.66-.83-2.48-2.29-2.48-1.63,0-2.69.98-2.69,2.82v4.37h-1.54v-8.48h1.47v1.28c.62-.86,1.71-1.36,3.06-1.36,2.06,0,3.52,1.18,3.52,3.68Z"/><path class="uuid-e9d6b451-3622-4dbd-9ba6-5ae4d5eaceb9" d="m734.79,385.3c0-2.53,1.87-4.32,4.42-4.32s4.4,1.79,4.4,4.32-1.86,4.34-4.4,4.34-4.42-1.81-4.42-4.34Zm7.27,0c0-1.81-1.22-2.98-2.85-2.98s-2.86,1.17-2.86,2.98,1.23,2.99,2.86,2.99,2.85-1.18,2.85-2.99Z"/><path class="uuid-e9d6b451-3622-4dbd-9ba6-5ae4d5eaceb9" d="m750.5,389.05c-.46.4-1.17.59-1.86.59-1.71,0-2.69-.94-2.69-2.66v-4.66h-1.44v-1.26h1.44v-1.86h1.54v1.86h2.43v1.26h-2.43v4.59c0,.91.48,1.42,1.33,1.42.45,0,.88-.14,1.2-.4l.48,1.1Z"/><path class="uuid-e9d6b451-3622-4dbd-9ba6-5ae4d5eaceb9" d="m751.28,385.3c0-2.53,1.87-4.32,4.42-4.32s4.4,1.79,4.4,4.32-1.86,4.34-4.4,4.34-4.42-1.81-4.42-4.34Zm7.27,0c0-1.81-1.22-2.98-2.85-2.98s-2.87,1.17-2.87,2.98,1.23,2.99,2.87,2.99,2.85-1.18,2.85-2.99Z"/><path class="uuid-e9d6b451-3622-4dbd-9ba6-5ae4d5eaceb9" d="m770.28,384.66v4.88h-1.54v-4.71c0-1.66-.83-2.48-2.29-2.48-1.63,0-2.69.98-2.69,2.82v4.37h-1.54v-8.48h1.47v1.28c.62-.86,1.71-1.36,3.06-1.36,2.06,0,3.52,1.18,3.52,3.68Z"/><path class="uuid-e9d6b451-3622-4dbd-9ba6-5ae4d5eaceb9" d="m774.87,377.75h1.95l-2.69,2.08h-1.44l2.18-2.08Zm-1.75,3.31h1.54v8.48h-1.54v-8.48Z"/><path class="uuid-e9d6b451-3622-4dbd-9ba6-5ae4d5eaceb9" d="m784.31,384.42v5.12h-1.46v-1.12c-.51.77-1.46,1.22-2.79,1.22-1.92,0-3.14-1.02-3.14-2.5,0-1.36.88-2.48,3.41-2.48h2.43v-.3c0-1.3-.75-2.05-2.27-2.05-1.01,0-2.03.35-2.69.91l-.64-1.15c.88-.7,2.14-1.09,3.51-1.09,2.32,0,3.63,1.12,3.63,3.44Zm-1.54,2.53v-1.18h-2.37c-1.52,0-1.95.59-1.95,1.31,0,.85.71,1.38,1.87,1.38s2.06-.53,2.45-1.5Z"/><rect class="uuid-e6d6c503-7217-42d7-99d1-e91c1f470982" x="668.65" y="429.34" width="146.13" height="58.09" rx="4.5" ry="4.5"/><path class="uuid-b33d384c-7d74-429a-991a-dc302e161b8b" d="m810.28,429.84c2.21,0,4,1.79,4,4v49.09c0,2.21-1.79,4-4,4h-137.13c-2.21,0-4-1.79-4-4v-49.09c0-2.21,1.79-4,4-4h137.13m0-1h-137.13c-2.76,0-5,2.24-5,5v49.09c0,2.76,2.24,5,5,5h137.13c2.76,0,5-2.24,5-5v-49.09c0-2.76-2.24-5-5-5h0Z"/><path class="uuid-e9d6b451-3622-4dbd-9ba6-5ae4d5eaceb9" d="m708.24,462.84l.59-1.25c.83.75,2.26,1.3,3.7,1.3,1.94,0,2.77-.75,2.77-1.73,0-2.74-6.79-1.01-6.79-5.17,0-1.73,1.34-3.2,4.29-3.2,1.31,0,2.67.35,3.6.99l-.53,1.28c-.98-.62-2.08-.91-3.07-.91-1.9,0-2.72.8-2.72,1.78,0,2.74,6.79,1.02,6.79,5.14,0,1.71-1.38,3.18-4.34,3.18-1.71,0-3.39-.58-4.29-1.41Z"/><path class="uuid-e9d6b451-3622-4dbd-9ba6-5ae4d5eaceb9" d="m718.71,453.01c0-.56.45-1.01,1.04-1.01s1.04.43,1.04.98c0,.58-.43,1.02-1.04,1.02s-1.04-.43-1.04-.99Zm.27,2.62h1.54v8.48h-1.54v-8.48Z"/><path class="uuid-e9d6b451-3622-4dbd-9ba6-5ae4d5eaceb9" d="m737.53,459.24v4.88h-1.54v-4.71c0-1.66-.8-2.48-2.19-2.48-1.54,0-2.54.98-2.54,2.82v4.37h-1.54v-4.71c0-1.66-.8-2.48-2.19-2.48-1.54,0-2.54.98-2.54,2.82v4.37h-1.54v-8.48h1.47v1.26c.61-.86,1.65-1.34,2.93-1.34s2.38.51,2.95,1.57c.64-.96,1.82-1.57,3.26-1.57,2.07,0,3.47,1.18,3.47,3.68Z"/><path class="uuid-e9d6b451-3622-4dbd-9ba6-5ae4d5eaceb9" d="m748.04,460.39h-6.88c.19,1.49,1.39,2.48,3.07,2.48.99,0,1.82-.34,2.45-1.02l.85.99c-.77.9-1.94,1.38-3.35,1.38-2.74,0-4.56-1.81-4.56-4.34s1.81-4.32,4.26-4.32,4.19,1.76,4.19,4.37c0,.13-.02.32-.03.46Zm-6.88-1.1h5.44c-.16-1.42-1.23-2.43-2.72-2.43s-2.56.99-2.72,2.43Z"/><path class="uuid-e9d6b451-3622-4dbd-9ba6-5ae4d5eaceb9" d="m754.96,463.63c-.46.4-1.17.59-1.86.59-1.71,0-2.69-.94-2.69-2.66v-4.66h-1.44v-1.26h1.44v-1.86h1.54v1.86h2.43v1.26h-2.43v4.59c0,.91.48,1.42,1.33,1.42.45,0,.88-.14,1.2-.4l.48,1.1Z"/><path class="uuid-e9d6b451-3622-4dbd-9ba6-5ae4d5eaceb9" d="m761.38,455.56v1.49c-.13-.02-.24-.02-.35-.02-1.65,0-2.67,1.01-2.67,2.87v4.23h-1.54v-8.48h1.47v1.42c.54-.99,1.6-1.5,3.09-1.5Z"/><path class="uuid-e9d6b451-3622-4dbd-9ba6-5ae4d5eaceb9" d="m765.01,452.33h1.95l-2.69,2.08h-1.44l2.18-2.08Zm-1.74,3.31h1.54v8.48h-1.54v-8.48Z"/><path class="uuid-e9d6b451-3622-4dbd-9ba6-5ae4d5eaceb9" d="m774.45,459v5.12h-1.46v-1.12c-.51.77-1.46,1.22-2.79,1.22-1.92,0-3.14-1.02-3.14-2.5,0-1.36.88-2.48,3.41-2.48h2.43v-.3c0-1.3-.75-2.05-2.27-2.05-1.01,0-2.03.35-2.69.91l-.64-1.15c.88-.7,2.14-1.09,3.5-1.09,2.32,0,3.63,1.12,3.63,3.44Zm-1.54,2.53v-1.18h-2.37c-1.52,0-1.95.59-1.95,1.31,0,.85.7,1.38,1.87,1.38s2.06-.53,2.45-1.5Z"/><rect class="uuid-e6d6c503-7217-42d7-99d1-e91c1f470982" x="668.65" y="503.92" width="146.13" height="58.09" rx="4.5" ry="4.5"/><path class="uuid-b33d384c-7d74-429a-991a-dc302e161b8b" d="m810.28,504.42c2.21,0,4,1.79,4,4v49.09c0,2.21-1.79,4-4,4h-137.13c-2.21,0-4-1.79-4-4v-49.09c0-2.21,1.79-4,4-4h137.13m0-1h-137.13c-2.76,0-5,2.24-5,5v49.09c0,2.76,2.24,5,5,5h137.13c2.76,0,5-2.24,5-5v-49.09c0-2.76-2.24-5-5-5h0Z"/><path class="uuid-e9d6b451-3622-4dbd-9ba6-5ae4d5eaceb9" d="m701.12,531.4c0,2.43-1.76,3.91-4.67,3.91h-2.77v3.39h-1.6v-11.21h4.37c2.91,0,4.67,1.47,4.67,3.91Zm-1.6,0c0-1.6-1.07-2.51-3.12-2.51h-2.72v5.03h2.72c2.05,0,3.12-.91,3.12-2.51Z"/><path class="uuid-e9d6b451-3622-4dbd-9ba6-5ae4d5eaceb9" d="m710.85,534.97h-6.88c.19,1.49,1.39,2.48,3.07,2.48.99,0,1.82-.34,2.45-1.02l.85.99c-.77.9-1.94,1.38-3.35,1.38-2.74,0-4.56-1.81-4.56-4.34s1.81-4.32,4.26-4.32,4.19,1.76,4.19,4.37c0,.13-.02.32-.03.46Zm-6.88-1.1h5.44c-.16-1.42-1.23-2.43-2.72-2.43s-2.56.99-2.72,2.43Z"/><path class="uuid-e9d6b451-3622-4dbd-9ba6-5ae4d5eaceb9" d="m717.56,530.14v1.49c-.13-.02-.24-.02-.35-.02-1.65,0-2.67,1.01-2.67,2.87v4.23h-1.54v-8.48h1.47v1.42c.54-.99,1.6-1.5,3.09-1.5Z"/><path class="uuid-e9d6b451-3622-4dbd-9ba6-5ae4d5eaceb9" d="m719.18,527.59c0-.56.45-1.01,1.04-1.01s1.04.43,1.04.98c0,.58-.43,1.02-1.04,1.02s-1.04-.43-1.04-.99Zm.27,2.62h1.54v8.48h-1.54v-8.48Z"/><path class="uuid-e9d6b451-3622-4dbd-9ba6-5ae4d5eaceb9" d="m723.13,534.46c0-2.53,1.87-4.32,4.42-4.32s4.4,1.79,4.4,4.32-1.86,4.34-4.4,4.34-4.42-1.81-4.42-4.34Zm7.27,0c0-1.81-1.22-2.98-2.85-2.98s-2.87,1.17-2.87,2.98,1.23,2.99,2.87,2.99,2.85-1.18,2.85-2.99Z"/><path class="uuid-e9d6b451-3622-4dbd-9ba6-5ae4d5eaceb9" d="m742.08,526.82v11.88h-1.47v-1.34c-.69.96-1.78,1.44-3.03,1.44-2.48,0-4.29-1.74-4.29-4.34s1.81-4.32,4.29-4.32c1.2,0,2.26.45,2.96,1.36v-4.67h1.54Zm-1.52,7.63c0-1.81-1.23-2.98-2.85-2.98s-2.87,1.17-2.87,2.98,1.23,2.99,2.87,2.99,2.85-1.18,2.85-2.99Z"/><path class="uuid-e9d6b451-3622-4dbd-9ba6-5ae4d5eaceb9" d="m744.72,527.59c0-.56.45-1.01,1.04-1.01s1.04.43,1.04.98c0,.58-.43,1.02-1.04,1.02s-1.04-.43-1.04-.99Zm.27,2.62h1.54v8.48h-1.54v-8.48Z"/><path class="uuid-e9d6b451-3622-4dbd-9ba6-5ae4d5eaceb9" d="m748.67,534.46c0-2.53,1.87-4.32,4.48-4.32,1.52,0,2.79.62,3.46,1.81l-1.17.75c-.54-.83-1.38-1.22-2.3-1.22-1.66,0-2.91,1.17-2.91,2.98s1.25,2.99,2.91,2.99c.93,0,1.76-.38,2.3-1.22l1.17.74c-.67,1.18-1.94,1.82-3.46,1.82-2.61,0-4.48-1.81-4.48-4.34Z"/><path class="uuid-e9d6b451-3622-4dbd-9ba6-5ae4d5eaceb9" d="m758.31,527.59c0-.56.45-1.01,1.04-1.01s1.04.43,1.04.98c0,.58-.43,1.02-1.04,1.02s-1.04-.43-1.04-.99Zm.27,2.62h1.54v8.48h-1.54v-8.48Z"/><path class="uuid-e9d6b451-3622-4dbd-9ba6-5ae4d5eaceb9" d="m771.05,526.82v11.88h-1.47v-1.34c-.69.96-1.78,1.44-3.03,1.44-2.48,0-4.29-1.74-4.29-4.34s1.81-4.32,4.29-4.32c1.2,0,2.26.45,2.96,1.36v-4.67h1.54Zm-1.52,7.63c0-1.81-1.23-2.98-2.85-2.98s-2.87,1.17-2.87,2.98,1.23,2.99,2.87,2.99,2.85-1.18,2.85-2.99Z"/><path class="uuid-e9d6b451-3622-4dbd-9ba6-5ae4d5eaceb9" d="m780.68,533.58v5.12h-1.46v-1.12c-.51.77-1.46,1.22-2.79,1.22-1.92,0-3.14-1.02-3.14-2.5,0-1.36.88-2.48,3.41-2.48h2.43v-.3c0-1.3-.75-2.05-2.27-2.05-1.01,0-2.03.35-2.69.91l-.64-1.15c.88-.7,2.14-1.09,3.51-1.09,2.32,0,3.63,1.12,3.63,3.44Zm-1.54,2.53v-1.18h-2.37c-1.52,0-1.95.59-1.95,1.31,0,.85.71,1.38,1.87,1.38s2.06-.53,2.45-1.5Z"/><path class="uuid-e9d6b451-3622-4dbd-9ba6-5ae4d5eaceb9" d="m791.58,526.82v11.88h-1.47v-1.34c-.69.96-1.78,1.44-3.03,1.44-2.48,0-4.29-1.74-4.29-4.34s1.81-4.32,4.29-4.32c1.2,0,2.26.45,2.96,1.36v-4.67h1.54Zm-1.52,7.63c0-1.81-1.23-2.98-2.85-2.98s-2.86,1.17-2.86,2.98,1.23,2.99,2.86,2.99,2.85-1.18,2.85-2.99Z"/><rect class="uuid-66786b8b-c33f-4785-9e64-2eceec486d1f" x="432.03" y="17.42" width="277.65" height="79.8" rx="4.5" ry="4.5"/><path class="uuid-66786b8b-c33f-4785-9e64-2eceec486d1f" d="m705.18,17.92c2.21,0,4,1.79,4,4v70.8c0,2.21-1.79,4-4,4h-268.65c-2.21,0-4-1.79-4-4V21.92c0-2.21,1.79-4,4-4h268.65m0-1h-268.65c-2.76,0-5,2.24-5,5v70.8c0,2.76,2.24,5,5,5h268.65c2.76,0,5-2.24,5-5V21.92c0-2.76-2.24-5-5-5h0Z"/><path class="uuid-e6d6c503-7217-42d7-99d1-e91c1f470982" d="m465.67,41.74v4.05h6.42v2.09h-6.42v5.09h-2.47v-13.3h9.71v2.07h-7.24Z"/><path class="uuid-e6d6c503-7217-42d7-99d1-e91c1f470982" d="m484.61,42.82v10.14h-2.26v-1.29c-.76.93-1.96,1.42-3.27,1.42-2.6,0-4.37-1.42-4.37-4.48v-5.79h2.38v5.47c0,1.84.87,2.72,2.38,2.72,1.65,0,2.77-1.03,2.77-3.06v-5.13h2.37Z"/><path class="uuid-e6d6c503-7217-42d7-99d1-e91c1f470982" d="m497.72,47.15v5.81h-2.38v-5.51c0-1.8-.89-2.68-2.41-2.68-1.69,0-2.83,1.03-2.83,3.06v5.13h-2.38v-10.14h2.26v1.31c.78-.93,2.01-1.42,3.5-1.42,2.43,0,4.24,1.39,4.24,4.45Z"/><path class="uuid-e6d6c503-7217-42d7-99d1-e91c1f470982" d="m500,47.89c0-3.04,2.28-5.19,5.49-5.19,1.98,0,3.55.82,4.33,2.36l-1.82,1.06c-.61-.97-1.52-1.41-2.53-1.41-1.75,0-3.08,1.22-3.08,3.17s1.33,3.17,3.08,3.17c1.01,0,1.92-.44,2.53-1.41l1.82,1.06c-.78,1.52-2.36,2.37-4.33,2.37-3.21,0-5.49-2.17-5.49-5.21Z"/><path class="uuid-e6d6c503-7217-42d7-99d1-e91c1f470982" d="m511.55,39.72c0-.8.65-1.42,1.52-1.42s1.52.59,1.52,1.37c0,.84-.63,1.48-1.52,1.48s-1.52-.63-1.52-1.42Zm.32,3.1h2.38v10.14h-2.38v-10.14Z"/><path class="uuid-e6d6c503-7217-42d7-99d1-e91c1f470982" d="m516.53,47.89c0-3.04,2.28-5.19,5.4-5.19s5.41,2.15,5.41,5.19-2.26,5.21-5.41,5.21-5.4-2.17-5.4-5.21Zm8.42,0c0-1.94-1.29-3.17-3.02-3.17s-3,1.23-3,3.17,1.29,3.17,3,3.17,3.02-1.23,3.02-3.17Z"/><path class="uuid-e6d6c503-7217-42d7-99d1-e91c1f470982" d="m539.62,47.15v5.81h-2.38v-5.51c0-1.8-.89-2.68-2.41-2.68-1.69,0-2.83,1.03-2.83,3.06v5.13h-2.38v-10.14h2.26v1.31c.78-.93,2.01-1.42,3.5-1.42,2.43,0,4.24,1.39,4.24,4.45Z"/><path class="uuid-e6d6c503-7217-42d7-99d1-e91c1f470982" d="m552.23,48.65h-7.96c.29,1.48,1.52,2.43,3.29,2.43,1.14,0,2.03-.36,2.75-1.1l1.27,1.46c-.91,1.08-2.34,1.65-4.08,1.65-3.4,0-5.6-2.18-5.6-5.21s2.22-5.19,5.24-5.19,5.13,2.07,5.13,5.24c0,.19-.02.47-.04.7Zm-7.98-1.58h5.76c-.19-1.46-1.31-2.47-2.87-2.47s-2.66.99-2.89,2.47Z"/><path class="uuid-e6d6c503-7217-42d7-99d1-e91c1f470982" d="m553.39,51.96l.91-1.8c.89.59,2.26,1.01,3.53,1.01,1.5,0,2.13-.42,2.13-1.12,0-1.94-6.27-.11-6.27-4.16,0-1.92,1.73-3.17,4.46-3.17,1.35,0,2.89.32,3.8.87l-.91,1.8c-.97-.57-1.94-.76-2.91-.76-1.44,0-2.13.48-2.13,1.14,0,2.05,6.27.23,6.27,4.2,0,1.9-1.75,3.13-4.6,3.13-1.69,0-3.38-.49-4.29-1.14Z"/><path class="uuid-e6d6c503-7217-42d7-99d1-e91c1f470982" d="m578.07,47.02v5.95h-2.24v-1.23c-.57.87-1.67,1.37-3.19,1.37-2.32,0-3.78-1.27-3.78-3.04s1.14-3.02,4.22-3.02h2.62v-.15c0-1.39-.84-2.2-2.53-2.2-1.14,0-2.32.38-3.08,1.01l-.93-1.73c1.08-.84,2.66-1.25,4.29-1.25,2.92,0,4.62,1.39,4.62,4.31Zm-2.38,2.77v-1.18h-2.45c-1.62,0-2.05.61-2.05,1.35,0,.85.72,1.41,1.94,1.41s2.17-.53,2.56-1.58Z"/><path class="uuid-e6d6c503-7217-42d7-99d1-e91c1f470982" d="m581.11,38.87h2.38v14.1h-2.38v-14.1Z"/><path class="uuid-e6d6c503-7217-42d7-99d1-e91c1f470982" d="m596.67,42.82v8.61c0,3.69-1.92,5.36-5.47,5.36-1.9,0-3.78-.49-4.94-1.44l1.06-1.79c.89.74,2.34,1.22,3.74,1.22,2.24,0,3.23-1.03,3.23-3.08v-.53c-.84.91-2.03,1.35-3.4,1.35-2.91,0-5.13-1.98-5.13-4.92s2.22-4.88,5.13-4.88c1.42,0,2.68.46,3.51,1.46v-1.35h2.26Zm-2.34,4.77c0-1.71-1.29-2.87-3.08-2.87s-3.1,1.16-3.1,2.87,1.29,2.91,3.1,2.91,3.08-1.18,3.08-2.91Z"/><path class="uuid-e6d6c503-7217-42d7-99d1-e91c1f470982" d="m609.29,48.65h-7.96c.29,1.48,1.52,2.43,3.29,2.43,1.14,0,2.03-.36,2.75-1.1l1.27,1.46c-.91,1.08-2.34,1.65-4.08,1.65-3.4,0-5.6-2.18-5.6-5.21s2.22-5.19,5.24-5.19,5.13,2.07,5.13,5.24c0,.19-.02.47-.04.7Zm-7.98-1.58h5.76c-.19-1.46-1.31-2.47-2.87-2.47s-2.66.99-2.89,2.47Z"/><path class="uuid-e6d6c503-7217-42d7-99d1-e91c1f470982" d="m622.38,47.89c0,3.15-2.18,5.21-5.15,5.21-1.39,0-2.56-.47-3.36-1.44v1.31h-2.26v-14.1h2.38v5.19c.82-.91,1.96-1.35,3.25-1.35,2.96,0,5.15,2.03,5.15,5.19Zm-2.41,0c0-1.94-1.29-3.17-3-3.17s-3.02,1.23-3.02,3.17,1.31,3.17,3.02,3.17,3-1.23,3-3.17Z"/><path class="uuid-e6d6c503-7217-42d7-99d1-e91c1f470982" d="m630.51,42.71v2.26c-.21-.04-.38-.06-.55-.06-1.8,0-2.94,1.06-2.94,3.13v4.92h-2.38v-10.14h2.26v1.48c.68-1.06,1.92-1.6,3.61-1.6Z"/><path class="uuid-e6d6c503-7217-42d7-99d1-e91c1f470982" d="m640.96,47.02v5.95h-2.24v-1.23c-.57.87-1.67,1.37-3.19,1.37-2.32,0-3.78-1.27-3.78-3.04s1.14-3.02,4.22-3.02h2.62v-.15c0-1.39-.84-2.2-2.53-2.2-1.14,0-2.32.38-3.08,1.01l-.93-1.73c1.08-.84,2.66-1.25,4.29-1.25,2.92,0,4.62,1.39,4.62,4.31Zm-2.38,2.77v-1.18h-2.45c-1.62,0-2.05.61-2.05,1.35,0,.85.72,1.41,1.94,1.41s2.17-.53,2.56-1.58Z"/><path class="uuid-e6d6c503-7217-42d7-99d1-e91c1f470982" d="m643.68,39.72c0-.8.65-1.42,1.52-1.42s1.52.59,1.52,1.37c0,.84-.63,1.48-1.52,1.48s-1.52-.63-1.52-1.42Zm.32,3.1h2.38v10.14h-2.38v-10.14Z"/><path class="uuid-e6d6c503-7217-42d7-99d1-e91c1f470982" d="m648.66,47.89c0-3.04,2.28-5.19,5.49-5.19,1.98,0,3.55.82,4.33,2.36l-1.82,1.06c-.61-.97-1.52-1.41-2.53-1.41-1.75,0-3.08,1.22-3.08,3.17s1.33,3.17,3.08,3.17c1.01,0,1.92-.44,2.53-1.41l1.82,1.06c-.78,1.52-2.36,2.37-4.33,2.37-3.21,0-5.49-2.17-5.49-5.21Z"/><path class="uuid-e6d6c503-7217-42d7-99d1-e91c1f470982" d="m669.03,47.02v5.95h-2.24v-1.23c-.57.87-1.67,1.37-3.19,1.37-2.32,0-3.78-1.27-3.78-3.04s1.14-3.02,4.22-3.02h2.62v-.15c0-1.39-.84-2.2-2.53-2.2-1.14,0-2.32.38-3.08,1.01l-.93-1.73c1.08-.84,2.66-1.25,4.29-1.25,2.92,0,4.62,1.39,4.62,4.31Zm-2.38,2.77v-1.18h-2.45c-1.62,0-2.05.61-2.05,1.35,0,.85.72,1.41,1.94,1.41s2.17-.53,2.56-1.58Z"/><path class="uuid-e6d6c503-7217-42d7-99d1-e91c1f470982" d="m670.91,51.96l.91-1.8c.89.59,2.26,1.01,3.53,1.01,1.5,0,2.13-.42,2.13-1.12,0-1.94-6.27-.11-6.27-4.16,0-1.92,1.73-3.17,4.46-3.17,1.35,0,2.89.32,3.8.87l-.91,1.8c-.97-.57-1.94-.76-2.91-.76-1.44,0-2.13.48-2.13,1.14,0,2.05,6.27.23,6.27,4.2,0,1.9-1.75,3.13-4.6,3.13-1.69,0-3.38-.49-4.29-1.14Z"/><path class="uuid-e6d6c503-7217-42d7-99d1-e91c1f470982" d="m503.69,65.62l-4.75,10.96c-.93,2.3-2.22,3-3.91,3-1.01,0-2.07-.34-2.72-.93l.95-1.75c.46.44,1.1.7,1.75.7.84,0,1.33-.4,1.79-1.41l.17-.4-4.43-10.18h2.47l3.19,7.5,3.21-7.5h2.28Z"/><path class="uuid-e6d6c503-7217-42d7-99d1-e91c1f470982" d="m516.51,75.21c-.57.46-1.42.68-2.28.68-2.22,0-3.5-1.18-3.5-3.42v-4.88h-1.67v-1.9h1.67v-2.32h2.37v2.32h2.72v1.9h-2.72v4.83c0,.99.49,1.52,1.41,1.52.49,0,.97-.13,1.33-.42l.67,1.69Z"/><path class="uuid-e6d6c503-7217-42d7-99d1-e91c1f470982" d="m524.34,65.51v2.26c-.21-.04-.38-.06-.55-.06-1.8,0-2.94,1.06-2.94,3.13v4.92h-2.38v-10.14h2.26v1.48c.68-1.06,1.92-1.6,3.61-1.6Z"/><path class="uuid-e6d6c503-7217-42d7-99d1-e91c1f470982" d="m534.79,69.82v5.95h-2.24v-1.23c-.57.87-1.67,1.37-3.19,1.37-2.32,0-3.78-1.27-3.78-3.04s1.14-3.02,4.22-3.02h2.62v-.15c0-1.39-.84-2.2-2.53-2.2-1.14,0-2.32.38-3.08,1.01l-.93-1.73c1.08-.84,2.66-1.25,4.29-1.25,2.92,0,4.62,1.39,4.62,4.31Zm-2.38,2.77v-1.18h-2.45c-1.62,0-2.05.61-2.05,1.35,0,.85.72,1.41,1.94,1.41s2.17-.53,2.56-1.58Z"/><path class="uuid-e6d6c503-7217-42d7-99d1-e91c1f470982" d="m536.67,74.76l.91-1.8c.89.59,2.26,1.01,3.53,1.01,1.5,0,2.13-.42,2.13-1.12,0-1.94-6.27-.11-6.27-4.16,0-1.92,1.73-3.17,4.46-3.17,1.35,0,2.89.32,3.8.87l-.91,1.8c-.97-.57-1.94-.76-2.91-.76-1.44,0-2.13.48-2.13,1.14,0,2.05,6.27.23,6.27,4.2,0,1.9-1.75,3.13-4.6,3.13-1.69,0-3.38-.49-4.29-1.14Z"/><path class="uuid-e6d6c503-7217-42d7-99d1-e91c1f470982" d="m546.78,70.69c0-3.04,2.28-5.19,5.49-5.19,1.98,0,3.55.82,4.33,2.36l-1.82,1.06c-.61-.97-1.52-1.41-2.53-1.41-1.75,0-3.08,1.22-3.08,3.17s1.33,3.17,3.08,3.17c1.01,0,1.92-.44,2.53-1.41l1.82,1.06c-.78,1.52-2.36,2.37-4.33,2.37-3.21,0-5.49-2.17-5.49-5.21Z"/><path class="uuid-e6d6c503-7217-42d7-99d1-e91c1f470982" d="m568,71.45h-7.96c.29,1.48,1.52,2.43,3.29,2.43,1.14,0,2.03-.36,2.75-1.1l1.27,1.46c-.91,1.08-2.34,1.65-4.08,1.65-3.4,0-5.6-2.18-5.6-5.21s2.22-5.19,5.24-5.19,5.13,2.07,5.13,5.24c0,.19-.02.47-.04.7Zm-7.98-1.58h5.76c-.19-1.46-1.31-2.47-2.87-2.47s-2.66.99-2.89,2.47Z"/><path class="uuid-e6d6c503-7217-42d7-99d1-e91c1f470982" d="m580.31,69.95v5.81h-2.38v-5.51c0-1.8-.89-2.68-2.41-2.68-1.69,0-2.83,1.03-2.83,3.06v5.13h-2.38v-10.14h2.26v1.31c.78-.93,2.01-1.42,3.5-1.42,2.43,0,4.24,1.39,4.24,4.45Z"/><path class="uuid-e6d6c503-7217-42d7-99d1-e91c1f470982" d="m593.37,61.67v14.1h-2.28v-1.31c-.8.97-1.98,1.44-3.36,1.44-2.95,0-5.13-2.05-5.13-5.21s2.18-5.19,5.13-5.19c1.31,0,2.47.44,3.27,1.37v-5.21h2.37Zm-2.34,9.02c0-1.94-1.31-3.17-3.02-3.17s-3.02,1.23-3.02,3.17,1.31,3.17,3.02,3.17,3.02-1.23,3.02-3.17Z"/><path class="uuid-e6d6c503-7217-42d7-99d1-e91c1f470982" d="m605.98,71.45h-7.96c.29,1.48,1.52,2.43,3.29,2.43,1.14,0,2.03-.36,2.75-1.1l1.27,1.46c-.91,1.08-2.34,1.65-4.08,1.65-3.4,0-5.6-2.18-5.6-5.21s2.22-5.19,5.24-5.19,5.13,2.07,5.13,5.24c0,.19-.02.47-.04.7Zm-7.98-1.58h5.76c-.19-1.46-1.31-2.47-2.87-2.47s-2.66.99-2.89,2.47Z"/><path class="uuid-e6d6c503-7217-42d7-99d1-e91c1f470982" d="m618.29,69.95v5.81h-2.38v-5.51c0-1.8-.89-2.68-2.41-2.68-1.69,0-2.83,1.03-2.83,3.06v5.13h-2.38v-10.14h2.26v1.31c.78-.93,2.01-1.42,3.5-1.42,2.43,0,4.24,1.39,4.24,4.45Z"/><path class="uuid-e6d6c503-7217-42d7-99d1-e91c1f470982" d="m627.41,75.21c-.57.46-1.42.68-2.28.68-2.22,0-3.5-1.18-3.5-3.42v-4.88h-1.67v-1.9h1.67v-2.32h2.37v2.32h2.72v1.9h-2.72v4.83c0,.99.49,1.52,1.41,1.52.49,0,.97-.13,1.33-.42l.67,1.69Z"/><path class="uuid-e6d6c503-7217-42d7-99d1-e91c1f470982" d="m638.53,71.45h-7.96c.29,1.48,1.52,2.43,3.29,2.43,1.14,0,2.03-.36,2.75-1.1l1.27,1.46c-.91,1.08-2.34,1.65-4.08,1.65-3.4,0-5.6-2.18-5.6-5.21s2.22-5.19,5.24-5.19,5.13,2.07,5.13,5.24c0,.19-.02.47-.04.7Zm-7.98-1.58h5.76c-.19-1.46-1.31-2.47-2.87-2.47s-2.66.99-2.89,2.47Z"/><path class="uuid-e6d6c503-7217-42d7-99d1-e91c1f470982" d="m639.69,74.76l.91-1.8c.89.59,2.26,1.01,3.53,1.01,1.5,0,2.13-.42,2.13-1.12,0-1.94-6.27-.11-6.27-4.16,0-1.92,1.73-3.17,4.46-3.17,1.35,0,2.89.32,3.8.87l-.91,1.8c-.97-.57-1.94-.76-2.91-.76-1.44,0-2.13.48-2.13,1.14,0,2.05,6.27.23,6.27,4.2,0,1.9-1.75,3.13-4.6,3.13-1.69,0-3.38-.49-4.29-1.14Z"/><rect class="uuid-e6d6c503-7217-42d7-99d1-e91c1f470982" x="929.73" y="247.01" width="146.13" height="58.09" rx="4.5" ry="4.5"/><path class="uuid-b33d384c-7d74-429a-991a-dc302e161b8b" d="m1071.37,247.51c2.21,0,4,1.79,4,4v49.09c0,2.21-1.79,4-4,4h-137.13c-2.21,0-4-1.79-4-4v-49.09c0-2.21,1.79-4,4-4h137.13m0-1h-137.13c-2.76,0-5,2.24-5,5v49.09c0,2.76,2.24,5,5,5h137.13c2.76,0,5-2.24,5-5v-49.09c0-2.76-2.24-5-5-5h0Z"/><path class="uuid-e9d6b451-3622-4dbd-9ba6-5ae4d5eaceb9" d="m953.84,280.41v1.39h-8.13v-11.21h7.91v1.39h-6.31v3.44h5.62v1.36h-5.62v3.62h6.53Z"/><path class="uuid-e9d6b451-3622-4dbd-9ba6-5ae4d5eaceb9" d="m961.42,281.8l-2.45-3.25-2.48,3.25h-1.71l3.34-4.34-3.18-4.15h1.71l2.34,3.06,2.32-3.06h1.68l-3.2,4.15,3.38,4.34h-1.74Z"/><path class="uuid-e9d6b451-3622-4dbd-9ba6-5ae4d5eaceb9" d="m973.63,277.56c0,2.61-1.81,4.34-4.29,4.34-1.2,0-2.26-.46-2.96-1.38v4.39h-1.54v-11.59h1.47v1.34c.69-.95,1.78-1.42,3.03-1.42,2.48,0,4.29,1.73,4.29,4.32Zm-1.55,0c0-1.79-1.23-2.98-2.87-2.98s-2.85,1.18-2.85,2.98,1.23,2.99,2.85,2.99,2.87-1.18,2.87-2.99Z"/><path class="uuid-e9d6b451-3622-4dbd-9ba6-5ae4d5eaceb9" d="m974.97,277.56c0-2.53,1.87-4.32,4.42-4.32s4.4,1.79,4.4,4.32-1.86,4.34-4.4,4.34-4.42-1.81-4.42-4.34Zm7.27,0c0-1.81-1.22-2.98-2.85-2.98s-2.86,1.17-2.86,2.98,1.23,2.99,2.86,2.99,2.85-1.18,2.85-2.99Z"/><path class="uuid-e9d6b451-3622-4dbd-9ba6-5ae4d5eaceb9" d="m993.97,276.92v4.88h-1.54v-4.71c0-1.67-.83-2.48-2.29-2.48-1.63,0-2.69.98-2.69,2.82v4.37h-1.54v-8.48h1.47v1.28c.62-.86,1.71-1.36,3.06-1.36,2.07,0,3.52,1.18,3.52,3.68Z"/><path class="uuid-e9d6b451-3622-4dbd-9ba6-5ae4d5eaceb9" d="m1004.49,278.07h-6.88c.19,1.49,1.39,2.48,3.07,2.48.99,0,1.82-.34,2.45-1.02l.85.99c-.77.9-1.94,1.38-3.35,1.38-2.74,0-4.56-1.81-4.56-4.34s1.81-4.32,4.26-4.32,4.19,1.76,4.19,4.37c0,.13-.02.32-.03.46Zm-6.88-1.1h5.44c-.16-1.42-1.23-2.43-2.72-2.43s-2.56.99-2.72,2.43Z"/><path class="uuid-e9d6b451-3622-4dbd-9ba6-5ae4d5eaceb9" d="m1014.7,276.92v4.88h-1.54v-4.71c0-1.67-.83-2.48-2.29-2.48-1.63,0-2.69.98-2.69,2.82v4.37h-1.54v-8.48h1.47v1.28c.62-.86,1.71-1.36,3.06-1.36,2.06,0,3.52,1.18,3.52,3.68Z"/><path class="uuid-e9d6b451-3622-4dbd-9ba6-5ae4d5eaceb9" d="m1016.81,277.56c0-2.53,1.87-4.32,4.48-4.32,1.52,0,2.79.62,3.46,1.81l-1.17.75c-.54-.83-1.38-1.22-2.3-1.22-1.67,0-2.91,1.17-2.91,2.98s1.25,2.99,2.91,2.99c.93,0,1.76-.38,2.3-1.22l1.17.74c-.67,1.18-1.94,1.82-3.46,1.82-2.61,0-4.48-1.81-4.48-4.34Z"/><path class="uuid-e9d6b451-3622-4dbd-9ba6-5ae4d5eaceb9" d="m1026.46,270.69c0-.56.45-1.01,1.04-1.01s1.04.43,1.04.98c0,.58-.43,1.02-1.04,1.02s-1.04-.43-1.04-.99Zm.27,2.62h1.54v8.48h-1.54v-8.48Z"/><path class="uuid-e9d6b451-3622-4dbd-9ba6-5ae4d5eaceb9" d="m1037.92,276.68v5.12h-1.46v-1.12c-.51.77-1.46,1.22-2.79,1.22-1.92,0-3.14-1.02-3.14-2.5,0-1.36.88-2.48,3.41-2.48h2.43v-.3c0-1.3-.75-2.05-2.27-2.05-1.01,0-2.03.35-2.69.91l-.64-1.15c.88-.7,2.14-1.09,3.5-1.09,2.32,0,3.63,1.12,3.63,3.44Zm-1.54,2.53v-1.18h-2.37c-1.52,0-1.95.59-1.95,1.31,0,.85.7,1.38,1.87,1.38s2.06-.53,2.45-1.5Z"/><path class="uuid-e9d6b451-3622-4dbd-9ba6-5ae4d5eaceb9" d="m1040.76,269.92h1.54v11.88h-1.54v-11.88Z"/><path class="uuid-e9d6b451-3622-4dbd-9ba6-5ae4d5eaceb9" d="m1052.86,278.07h-6.88c.19,1.49,1.39,2.48,3.07,2.48.99,0,1.82-.34,2.45-1.02l.85.99c-.77.9-1.94,1.38-3.35,1.38-2.74,0-4.56-1.81-4.56-4.34s1.81-4.32,4.26-4.32,4.19,1.76,4.19,4.37c0,.13-.02.32-.03.46Zm-6.88-1.1h5.44c-.16-1.42-1.23-2.43-2.72-2.43s-2.56.99-2.72,2.43Z"/><path class="uuid-e9d6b451-3622-4dbd-9ba6-5ae4d5eaceb9" d="m1053.94,280.9l.64-1.22c.72.51,1.87.88,2.98.88,1.42,0,2.02-.43,2.02-1.15,0-1.91-5.36-.26-5.36-3.63,0-1.52,1.36-2.54,3.54-2.54,1.1,0,2.35.29,3.09.77l-.66,1.22c-.77-.5-1.62-.67-2.45-.67-1.34,0-2,.5-2,1.17,0,2,5.38.37,5.38,3.67,0,1.54-1.41,2.51-3.67,2.51-1.41,0-2.8-.43-3.51-.99Z"/><rect class="uuid-6ada3fca-35a8-492f-bb44-2a5670e988d6" x="768.21" y="38.28" width="96.13" height="38.09" rx="4.5" ry="4.5"/><path class="uuid-6ada3fca-35a8-492f-bb44-2a5670e988d6" d="m859.84,38.78c2.21,0,4,1.79,4,4v29.09c0,2.21-1.79,4-4,4h-87.13c-2.21,0-4-1.79-4-4v-29.09c0-2.21,1.79-4,4-4h87.13m0-1h-87.13c-2.76,0-5,2.24-5,5v29.09c0,2.76,2.24,5,5,5h87.13c2.76,0,5-2.24,5-5v-29.09c0-2.76-2.24-5-5-5h0Z"/><path class="uuid-e9d6b451-3622-4dbd-9ba6-5ae4d5eaceb9" d="m798.97,56.62h1.34v3.82c-.98.83-2.34,1.25-3.71,1.25-3.01,0-5.22-2.11-5.22-5.01s2.21-5.01,5.25-5.01c1.55,0,2.87.52,3.77,1.51l-.87.87c-.81-.78-1.74-1.13-2.84-1.13-2.27,0-3.91,1.58-3.91,3.77s1.64,3.77,3.89,3.77c.83,0,1.6-.18,2.3-.63v-3.19Z"/><path class="uuid-e9d6b451-3622-4dbd-9ba6-5ae4d5eaceb9" d="m806.78,54.09v1.3c-.11-.01-.21-.01-.31-.01-1.44,0-2.34.88-2.34,2.51v3.7h-1.34v-7.42h1.29v1.25c.48-.87,1.4-1.32,2.7-1.32Z"/><path class="uuid-e9d6b451-3622-4dbd-9ba6-5ae4d5eaceb9" d="m814.3,57.1v4.48h-1.27v-.98c-.45.67-1.27,1.06-2.44,1.06-1.68,0-2.75-.9-2.75-2.19,0-1.19.77-2.17,2.98-2.17h2.13v-.27c0-1.13-.66-1.79-1.99-1.79-.88,0-1.78.31-2.35.8l-.56-1.01c.77-.62,1.88-.95,3.07-.95,2.03,0,3.18.98,3.18,3.01Zm-1.34,2.21v-1.04h-2.07c-1.33,0-1.71.52-1.71,1.15,0,.74.62,1.2,1.64,1.2s1.81-.46,2.14-1.32Z"/><path class="uuid-e9d6b451-3622-4dbd-9ba6-5ae4d5eaceb9" d="m819.44,51.1c.57,0,1.13.14,1.51.43l-.41,1.02c-.28-.21-.64-.35-1.04-.35-.8,0-1.21.45-1.21,1.3v.64h2.16v1.11h-2.13v6.32h-1.34v-6.32h-1.26v-1.11h1.26v-.66c0-1.44.87-2.4,2.45-2.4Zm3.18.76c0-.49.39-.88.91-.88s.91.38.91.85c0,.5-.38.9-.91.9s-.91-.38-.91-.87Zm.24,2.3h1.34v7.42h-1.34v-7.42Z"/><path class="uuid-e9d6b451-3622-4dbd-9ba6-5ae4d5eaceb9" d="m826.07,57.87c0-2.21,1.64-3.78,3.92-3.78,1.33,0,2.44.55,3.03,1.58l-1.02.66c-.48-.73-1.21-1.06-2.02-1.06-1.46,0-2.55,1.02-2.55,2.61s1.09,2.62,2.55,2.62c.81,0,1.54-.34,2.02-1.06l1.02.64c-.59,1.04-1.7,1.6-3.03,1.6-2.28,0-3.92-1.58-3.92-3.8Z"/><path class="uuid-e9d6b451-3622-4dbd-9ba6-5ae4d5eaceb9" d="m840.63,57.1v4.48h-1.27v-.98c-.45.67-1.27,1.06-2.44,1.06-1.68,0-2.75-.9-2.75-2.19,0-1.19.77-2.17,2.98-2.17h2.13v-.27c0-1.13-.66-1.79-1.99-1.79-.88,0-1.78.31-2.35.8l-.56-1.01c.77-.62,1.88-.95,3.07-.95,2.03,0,3.18.98,3.18,3.01Zm-1.34,2.21v-1.04h-2.07c-1.33,0-1.71.52-1.71,1.15,0,.74.62,1.2,1.64,1.2s1.81-.46,2.14-1.32Z"/><rect class="uuid-6ada3fca-35a8-492f-bb44-2a5670e988d6" x="920.65" y="38.28" width="136.13" height="38.09" rx="4.5" ry="4.5"/><path class="uuid-6ada3fca-35a8-492f-bb44-2a5670e988d6" d="m1052.28,38.78c2.21,0,4,1.79,4,4v29.09c0,2.21-1.79,4-4,4h-127.13c-2.21,0-4-1.79-4-4v-29.09c0-2.21,1.79-4,4-4h127.13m0-1h-127.13c-2.76,0-5,2.24-5,5v29.09c0,2.76,2.24,5,5,5h127.13c2.76,0,5-2.24,5-5v-29.09c0-2.76-2.24-5-5-5h0Z"/><path class="uuid-e9d6b451-3622-4dbd-9ba6-5ae4d5eaceb9" d="m958.7,52.8l.52-1.09c.73.66,1.98,1.13,3.24,1.13,1.7,0,2.42-.66,2.42-1.51,0-2.4-5.94-.88-5.94-4.52,0-1.51,1.18-2.8,3.75-2.8,1.15,0,2.34.31,3.15.87l-.46,1.12c-.85-.55-1.82-.8-2.69-.8-1.67,0-2.38.7-2.38,1.55,0,2.4,5.94.9,5.94,4.5,0,1.5-1.21,2.79-3.8,2.79-1.5,0-2.97-.5-3.75-1.23Z"/><path class="uuid-e9d6b451-3622-4dbd-9ba6-5ae4d5eaceb9" d="m973.97,49.44v4.48h-1.27v-.98c-.45.67-1.27,1.06-2.44,1.06-1.68,0-2.75-.9-2.75-2.19,0-1.19.77-2.17,2.98-2.17h2.13v-.27c0-1.13-.66-1.79-1.99-1.79-.88,0-1.78.31-2.35.8l-.56-1.01c.77-.62,1.88-.95,3.07-.95,2.03,0,3.18.98,3.18,3.01Zm-1.34,2.21v-1.04h-2.07c-1.33,0-1.71.52-1.71,1.15,0,.74.62,1.2,1.64,1.2s1.81-.46,2.14-1.32Z"/><path class="uuid-e9d6b451-3622-4dbd-9ba6-5ae4d5eaceb9" d="m984.15,50.21c0,2.27-1.58,3.8-3.75,3.8-1.09,0-2.05-.42-2.65-1.26v1.18h-1.29v-10.39h1.34v4.09c.62-.8,1.54-1.19,2.59-1.19,2.17,0,3.75,1.51,3.75,3.78Zm-1.36,0c0-1.58-1.08-2.61-2.51-2.61s-2.49,1.02-2.49,2.61,1.08,2.62,2.49,2.62,2.51-1.04,2.51-2.62Z"/><path class="uuid-e9d6b451-3622-4dbd-9ba6-5ae4d5eaceb9" d="m992.69,50.66h-6.02c.17,1.3,1.22,2.17,2.69,2.17.87,0,1.6-.29,2.14-.9l.74.87c-.67.78-1.69,1.2-2.93,1.2-2.4,0-3.99-1.58-3.99-3.8s1.58-3.78,3.73-3.78,3.67,1.54,3.67,3.82c0,.11-.01.28-.03.41Zm-6.02-.97h4.76c-.14-1.25-1.08-2.13-2.38-2.13s-2.24.87-2.38,2.13Z"/><path class="uuid-e9d6b451-3622-4dbd-9ba6-5ae4d5eaceb9" d="m998.57,46.43v1.3c-.11-.01-.21-.01-.31-.01-1.44,0-2.34.88-2.34,2.51v3.7h-1.34v-7.42h1.29v1.25c.48-.87,1.4-1.32,2.7-1.32Z"/><path class="uuid-e9d6b451-3622-4dbd-9ba6-5ae4d5eaceb9" d="m1003.15,53.14l.56-1.06c.63.45,1.64.77,2.61.77,1.25,0,1.77-.38,1.77-1.01,0-1.67-4.69-.22-4.69-3.18,0-1.33,1.19-2.23,3.1-2.23.97,0,2.06.25,2.7.67l-.57,1.06c-.67-.43-1.41-.59-2.14-.59-1.18,0-1.75.43-1.75,1.02,0,1.75,4.71.32,4.71,3.21,0,1.34-1.23,2.2-3.21,2.2-1.23,0-2.45-.38-3.07-.87Z"/><path class="uuid-e9d6b451-3622-4dbd-9ba6-5ae4d5eaceb9" d="m1018.02,46.5v7.42h-1.27v-1.12c-.55.77-1.47,1.2-2.52,1.2-1.92,0-3.19-1.05-3.19-3.24v-4.27h1.34v4.12c0,1.46.73,2.19,2,2.19,1.4,0,2.3-.87,2.3-2.47v-3.84h1.34Z"/><path class="uuid-e9d6b451-3622-4dbd-9ba6-5ae4d5eaceb9" d="m928.62,67.01c0-2.21,1.64-3.78,3.92-3.78,1.33,0,2.44.55,3.03,1.58l-1.02.66c-.48-.73-1.2-1.06-2.02-1.06-1.46,0-2.55,1.02-2.55,2.61s1.09,2.62,2.55,2.62c.81,0,1.54-.34,2.02-1.06l1.02.64c-.59,1.04-1.7,1.6-3.03,1.6-2.28,0-3.92-1.58-3.92-3.8Z"/><path class="uuid-e9d6b451-3622-4dbd-9ba6-5ae4d5eaceb9" d="m936.5,67.01c0-2.21,1.64-3.78,3.87-3.78s3.85,1.57,3.85,3.78-1.62,3.8-3.85,3.8-3.87-1.58-3.87-3.8Zm6.36,0c0-1.58-1.06-2.61-2.49-2.61s-2.51,1.02-2.51,2.61,1.08,2.62,2.51,2.62,2.49-1.04,2.49-2.62Z"/><path class="uuid-e9d6b451-3622-4dbd-9ba6-5ae4d5eaceb9" d="m958.4,66.45v4.27h-1.35v-4.12c0-1.46-.7-2.17-1.92-2.17-1.34,0-2.23.85-2.23,2.47v3.82h-1.34v-4.12c0-1.46-.7-2.17-1.92-2.17-1.34,0-2.23.85-2.23,2.47v3.82h-1.34v-7.42h1.29v1.11c.53-.76,1.44-1.18,2.56-1.18s2.09.45,2.58,1.37c.56-.84,1.6-1.37,2.86-1.37,1.81,0,3.04,1.04,3.04,3.22Z"/><path class="uuid-e9d6b451-3622-4dbd-9ba6-5ae4d5eaceb9" d="m968.56,67.01c0,2.28-1.58,3.8-3.75,3.8-1.05,0-1.97-.41-2.59-1.2v3.84h-1.34v-10.14h1.29v1.18c.6-.83,1.55-1.25,2.65-1.25,2.17,0,3.75,1.51,3.75,3.78Zm-1.36,0c0-1.57-1.08-2.61-2.51-2.61s-2.49,1.04-2.49,2.61,1.08,2.62,2.49,2.62,2.51-1.04,2.51-2.62Z"/><path class="uuid-e9d6b451-3622-4dbd-9ba6-5ae4d5eaceb9" d="m969.74,67.01c0-2.21,1.64-3.78,3.87-3.78s3.85,1.57,3.85,3.78-1.62,3.8-3.85,3.8-3.87-1.58-3.87-3.8Zm6.36,0c0-1.58-1.06-2.61-2.49-2.61s-2.51,1.02-2.51,2.61,1.08,2.62,2.51,2.62,2.49-1.04,2.49-2.62Z"/><path class="uuid-e9d6b451-3622-4dbd-9ba6-5ae4d5eaceb9" d="m983.31,63.23v1.3c-.11-.01-.21-.01-.31-.01-1.44,0-2.34.88-2.34,2.51v3.7h-1.35v-7.42h1.29v1.25c.48-.87,1.4-1.32,2.7-1.32Z"/><path class="uuid-e9d6b451-3622-4dbd-9ba6-5ae4d5eaceb9" d="m989.44,70.29c-.41.35-1.02.52-1.62.52-1.5,0-2.35-.83-2.35-2.33v-4.08h-1.26v-1.11h1.26v-1.62h1.34v1.62h2.13v1.11h-2.13v4.02c0,.8.42,1.25,1.16,1.25.39,0,.77-.13,1.05-.35l.42.97Z"/><path class="uuid-e9d6b451-3622-4dbd-9ba6-5ae4d5eaceb9" d="m996.94,66.24v4.48h-1.27v-.98c-.45.67-1.27,1.06-2.44,1.06-1.68,0-2.75-.9-2.75-2.19,0-1.19.77-2.17,2.98-2.17h2.13v-.27c0-1.13-.66-1.79-1.99-1.79-.88,0-1.78.31-2.35.8l-.56-1.01c.77-.62,1.88-.95,3.07-.95,2.03,0,3.18.98,3.18,3.01Zm-1.34,2.21v-1.04h-2.07c-1.33,0-1.71.52-1.71,1.15,0,.74.62,1.2,1.64,1.2s1.81-.46,2.14-1.32Z"/><path class="uuid-e9d6b451-3622-4dbd-9ba6-5ae4d5eaceb9" d="m1011.76,66.45v4.27h-1.35v-4.12c0-1.46-.7-2.17-1.92-2.17-1.34,0-2.23.85-2.23,2.47v3.82h-1.34v-4.12c0-1.46-.7-2.17-1.92-2.17-1.34,0-2.23.85-2.23,2.47v3.82h-1.34v-7.42h1.29v1.11c.53-.76,1.44-1.18,2.56-1.18s2.09.45,2.58,1.37c.56-.84,1.6-1.37,2.86-1.37,1.81,0,3.04,1.04,3.04,3.22Z"/><path class="uuid-e9d6b451-3622-4dbd-9ba6-5ae4d5eaceb9" d="m1013.99,61c0-.49.39-.88.91-.88s.91.38.91.85c0,.5-.38.9-.91.9s-.91-.38-.91-.87Zm.24,2.3h1.34v7.42h-1.34v-7.42Z"/><path class="uuid-e9d6b451-3622-4dbd-9ba6-5ae4d5eaceb9" d="m1024.82,67.46h-6.02c.17,1.3,1.22,2.17,2.69,2.17.87,0,1.6-.29,2.14-.9l.74.87c-.67.78-1.7,1.2-2.93,1.2-2.39,0-3.99-1.58-3.99-3.8s1.58-3.78,3.73-3.78,3.67,1.54,3.67,3.82c0,.11-.01.28-.03.41Zm-6.02-.97h4.76c-.14-1.25-1.08-2.13-2.38-2.13s-2.24.87-2.38,2.13Z"/><path class="uuid-e9d6b451-3622-4dbd-9ba6-5ae4d5eaceb9" d="m1033.75,66.45v4.27h-1.35v-4.12c0-1.46-.73-2.17-2-2.17-1.43,0-2.35.85-2.35,2.47v3.82h-1.34v-7.42h1.29v1.12c.55-.76,1.5-1.19,2.68-1.19,1.81,0,3.08,1.04,3.08,3.22Z"/><path class="uuid-e9d6b451-3622-4dbd-9ba6-5ae4d5eaceb9" d="m1040.41,70.29c-.41.35-1.02.52-1.62.52-1.5,0-2.35-.83-2.35-2.33v-4.08h-1.26v-1.11h1.26v-1.62h1.35v1.62h2.13v1.11h-2.13v4.02c0,.8.42,1.25,1.16,1.25.39,0,.77-.13,1.05-.35l.42.97Z"/><path class="uuid-e9d6b451-3622-4dbd-9ba6-5ae4d5eaceb9" d="m1041.09,67.01c0-2.21,1.64-3.78,3.87-3.78s3.85,1.57,3.85,3.78-1.62,3.8-3.85,3.8-3.87-1.58-3.87-3.8Zm6.36,0c0-1.58-1.06-2.61-2.49-2.61s-2.51,1.02-2.51,2.61,1.08,2.62,2.51,2.62,2.49-1.04,2.49-2.62Z"/><rect class="uuid-e6d6c503-7217-42d7-99d1-e91c1f470982" x="929.73" y="321.59" width="146.13" height="58.09" rx="4.5" ry="4.5"/><path class="uuid-b33d384c-7d74-429a-991a-dc302e161b8b" d="m1071.37,322.09c2.21,0,4,1.79,4,4v49.09c0,2.21-1.79,4-4,4h-137.13c-2.21,0-4-1.79-4-4v-49.09c0-2.21,1.79-4,4-4h137.13m0-1h-137.13c-2.76,0-5,2.24-5,5v49.09c0,2.76,2.24,5,5,5h137.13c2.76,0,5-2.24,5-5v-49.09c0-2.76-2.24-5-5-5h0Z"/><path class="uuid-e9d6b451-3622-4dbd-9ba6-5ae4d5eaceb9" d="m940,346.56h-3.84v-1.39h9.27v1.39h-3.84v9.81h-1.58v-9.81Z"/><path class="uuid-e9d6b451-3622-4dbd-9ba6-5ae4d5eaceb9" d="m951.3,347.81v1.49c-.13-.02-.24-.02-.35-.02-1.65,0-2.67,1.01-2.67,2.87v4.23h-1.54v-8.48h1.47v1.42c.54-.99,1.6-1.5,3.09-1.5Z"/><path class="uuid-e9d6b451-3622-4dbd-9ba6-5ae4d5eaceb9" d="m952.91,345.27c0-.56.45-1.01,1.04-1.01s1.04.43,1.04.98c0,.58-.43,1.02-1.04,1.02s-1.04-.43-1.04-.99Zm.27,2.62h1.54v8.48h-1.54v-8.48Z"/><path class="uuid-e9d6b451-3622-4dbd-9ba6-5ae4d5eaceb9" d="m965.76,347.89v7.33c0,2.99-1.52,4.35-4.4,4.35-1.55,0-3.12-.43-4.05-1.26l.74-1.18c.78.67,2.02,1.1,3.27,1.1,2,0,2.91-.93,2.91-2.85v-.67c-.74.88-1.84,1.31-3.06,1.31-2.45,0-4.31-1.67-4.31-4.11s1.86-4.1,4.31-4.1c1.26,0,2.42.46,3.14,1.39v-1.31h1.46Zm-1.5,4.02c0-1.65-1.22-2.75-2.91-2.75s-2.93,1.1-2.93,2.75,1.22,2.77,2.93,2.77,2.91-1.14,2.91-2.77Z"/><path class="uuid-e9d6b451-3622-4dbd-9ba6-5ae4d5eaceb9" d="m967.91,352.13c0-2.53,1.87-4.32,4.42-4.32s4.4,1.79,4.4,4.32-1.86,4.34-4.4,4.34-4.42-1.81-4.42-4.34Zm7.27,0c0-1.81-1.22-2.98-2.85-2.98s-2.87,1.17-2.87,2.98,1.23,2.99,2.87,2.99,2.85-1.18,2.85-2.99Z"/><path class="uuid-e9d6b451-3622-4dbd-9ba6-5ae4d5eaceb9" d="m986.9,351.49v4.88h-1.54v-4.71c0-1.66-.83-2.48-2.29-2.48-1.63,0-2.69.98-2.69,2.82v4.37h-1.54v-8.48h1.47v1.28c.62-.86,1.71-1.36,3.06-1.36,2.06,0,3.52,1.18,3.52,3.68Z"/><path class="uuid-e9d6b451-3622-4dbd-9ba6-5ae4d5eaceb9" d="m989.01,352.13c0-2.53,1.87-4.32,4.42-4.32s4.4,1.79,4.4,4.32-1.86,4.34-4.4,4.34-4.42-1.81-4.42-4.34Zm7.27,0c0-1.81-1.22-2.98-2.85-2.98s-2.87,1.17-2.87,2.98,1.23,2.99,2.87,2.99,2.85-1.18,2.85-2.99Z"/><path class="uuid-e9d6b451-3622-4dbd-9ba6-5ae4d5eaceb9" d="m1014.04,351.49v4.88h-1.54v-4.71c0-1.66-.8-2.48-2.19-2.48-1.54,0-2.54.98-2.54,2.82v4.37h-1.54v-4.71c0-1.66-.8-2.48-2.19-2.48-1.54,0-2.54.98-2.54,2.82v4.37h-1.54v-8.48h1.47v1.26c.61-.86,1.65-1.34,2.93-1.34s2.38.51,2.95,1.57c.64-.96,1.82-1.57,3.26-1.57,2.07,0,3.47,1.18,3.47,3.68Z"/><path class="uuid-e9d6b451-3622-4dbd-9ba6-5ae4d5eaceb9" d="m1024.55,352.65h-6.88c.19,1.49,1.39,2.48,3.07,2.48.99,0,1.82-.34,2.45-1.02l.85.99c-.77.9-1.94,1.38-3.35,1.38-2.74,0-4.56-1.81-4.56-4.34s1.81-4.32,4.26-4.32,4.19,1.76,4.19,4.37c0,.13-.02.32-.03.46Zm-6.88-1.1h5.44c-.16-1.42-1.23-2.43-2.72-2.43s-2.56.99-2.72,2.43Zm2.95-4.88h-1.44l2.18-2.08h1.95l-2.69,2.08Z"/><path class="uuid-e9d6b451-3622-4dbd-9ba6-5ae4d5eaceb9" d="m1031.48,355.88c-.46.4-1.17.59-1.86.59-1.71,0-2.69-.94-2.69-2.66v-4.66h-1.44v-1.26h1.44v-1.86h1.54v1.86h2.43v1.26h-2.43v4.59c0,.91.48,1.42,1.33,1.42.45,0,.88-.14,1.2-.4l.48,1.1Z"/><path class="uuid-e9d6b451-3622-4dbd-9ba6-5ae4d5eaceb9" d="m1037.89,347.81v1.49c-.13-.02-.24-.02-.35-.02-1.65,0-2.67,1.01-2.67,2.87v4.23h-1.54v-8.48h1.47v1.42c.54-.99,1.6-1.5,3.09-1.5Z"/><path class="uuid-e9d6b451-3622-4dbd-9ba6-5ae4d5eaceb9" d="m1039.51,345.27c0-.56.45-1.01,1.04-1.01s1.04.43,1.04.98c0,.58-.43,1.02-1.04,1.02s-1.04-.43-1.04-.99Zm.27,2.62h1.54v8.48h-1.54v-8.48Z"/><path class="uuid-e9d6b451-3622-4dbd-9ba6-5ae4d5eaceb9" d="m1043.46,352.13c0-2.53,1.87-4.32,4.48-4.32,1.52,0,2.79.62,3.46,1.81l-1.17.75c-.54-.83-1.38-1.22-2.3-1.22-1.66,0-2.91,1.17-2.91,2.98s1.25,2.99,2.91,2.99c.93,0,1.76-.38,2.3-1.22l1.17.74c-.67,1.18-1.94,1.83-3.46,1.83-2.61,0-4.48-1.81-4.48-4.34Z"/><path class="uuid-e9d6b451-3622-4dbd-9ba6-5ae4d5eaceb9" d="m1060.1,351.25v5.12h-1.46v-1.12c-.51.77-1.46,1.22-2.79,1.22-1.92,0-3.14-1.02-3.14-2.5,0-1.36.88-2.48,3.41-2.48h2.43v-.3c0-1.3-.75-2.05-2.27-2.05-1.01,0-2.03.35-2.69.91l-.64-1.15c.88-.7,2.14-1.09,3.51-1.09,2.32,0,3.63,1.12,3.63,3.44Zm-1.54,2.53v-1.18h-2.37c-1.52,0-1.95.59-1.95,1.31,0,.85.71,1.38,1.87,1.38s2.06-.53,2.45-1.5Z"/><path class="uuid-e9d6b451-3622-4dbd-9ba6-5ae4d5eaceb9" d="m1061.87,355.48l.64-1.22c.72.51,1.87.88,2.98.88,1.42,0,2.02-.43,2.02-1.15,0-1.9-5.36-.26-5.36-3.63,0-1.52,1.36-2.54,3.54-2.54,1.1,0,2.35.29,3.09.77l-.66,1.22c-.77-.5-1.62-.67-2.45-.67-1.34,0-2,.5-2,1.17,0,2,5.38.37,5.38,3.67,0,1.54-1.41,2.51-3.67,2.51-1.41,0-2.8-.43-3.51-.99Z"/><rect class="uuid-e6d6c503-7217-42d7-99d1-e91c1f470982" x="929.73" y="396.17" width="146.13" height="58.09" rx="4.5" ry="4.5"/><path class="uuid-b33d384c-7d74-429a-991a-dc302e161b8b" d="m1071.37,396.67c2.21,0,4,1.79,4,4v49.09c0,2.21-1.79,4-4,4h-137.13c-2.21,0-4-1.79-4-4v-49.09c0-2.21,1.79-4,4-4h137.13m0-1h-137.13c-2.76,0-5,2.24-5,5v49.09c0,2.76,2.24,5,5,5h137.13c2.76,0,5-2.24,5-5v-49.09c0-2.76-2.24-5-5-5h0Z"/><path class="uuid-e9d6b451-3622-4dbd-9ba6-5ae4d5eaceb9" d="m951.59,419.75h1.6v9.81h6.07v1.39h-7.67v-11.2Z"/><path class="uuid-e9d6b451-3622-4dbd-9ba6-5ae4d5eaceb9" d="m959.97,426.71c0-2.53,1.87-4.32,4.42-4.32s4.4,1.79,4.4,4.32-1.86,4.34-4.4,4.34-4.42-1.81-4.42-4.34Zm7.27,0c0-1.81-1.22-2.98-2.85-2.98s-2.87,1.17-2.87,2.98,1.23,2.99,2.87,2.99,2.85-1.18,2.85-2.99Z"/><path class="uuid-e9d6b451-3622-4dbd-9ba6-5ae4d5eaceb9" d="m979.03,422.47v7.33c0,2.99-1.52,4.35-4.4,4.35-1.55,0-3.12-.43-4.05-1.26l.74-1.18c.78.67,2.02,1.1,3.26,1.1,2,0,2.91-.93,2.91-2.85v-.67c-.74.88-1.84,1.31-3.06,1.31-2.45,0-4.31-1.67-4.31-4.11s1.86-4.1,4.31-4.1c1.26,0,2.42.46,3.14,1.39v-1.31h1.46Zm-1.5,4.02c0-1.65-1.22-2.75-2.91-2.75s-2.93,1.1-2.93,2.75,1.22,2.77,2.93,2.77,2.91-1.14,2.91-2.77Z"/><path class="uuid-e9d6b451-3622-4dbd-9ba6-5ae4d5eaceb9" d="m988.68,425.83v5.12h-1.46v-1.12c-.51.77-1.46,1.22-2.79,1.22-1.92,0-3.14-1.02-3.14-2.5,0-1.36.88-2.48,3.41-2.48h2.43v-.3c0-1.3-.75-2.05-2.27-2.05-1.01,0-2.03.35-2.69.91l-.64-1.15c.88-.7,2.14-1.09,3.5-1.09,2.32,0,3.63,1.12,3.63,3.44Zm-1.54,2.53v-1.18h-2.37c-1.52,0-1.95.59-1.95,1.31,0,.85.7,1.38,1.87,1.38s2.06-.53,2.45-1.5Z"/><path class="uuid-e9d6b451-3622-4dbd-9ba6-5ae4d5eaceb9" d="m996.08,422.39v1.49c-.13-.02-.24-.02-.35-.02-1.65,0-2.67,1.01-2.67,2.87v4.23h-1.54v-8.48h1.47v1.42c.54-.99,1.6-1.5,3.09-1.5Z"/><path class="uuid-e9d6b451-3622-4dbd-9ba6-5ae4d5eaceb9" d="m999.71,419.16h1.95l-2.69,2.08h-1.44l2.18-2.08Zm-1.75,3.31h1.54v8.48h-1.54v-8.48Z"/><path class="uuid-e9d6b451-3622-4dbd-9ba6-5ae4d5eaceb9" d="m1007.2,430.46c-.46.4-1.17.59-1.86.59-1.71,0-2.69-.94-2.69-2.66v-4.66h-1.44v-1.26h1.44v-1.86h1.54v1.86h2.43v1.26h-2.43v4.59c0,.91.48,1.42,1.33,1.42.45,0,.88-.14,1.2-.4l.48,1.1Z"/><path class="uuid-e9d6b451-3622-4dbd-9ba6-5ae4d5eaceb9" d="m1023.14,426.07v4.88h-1.54v-4.71c0-1.66-.8-2.48-2.19-2.48-1.54,0-2.54.98-2.54,2.82v4.37h-1.54v-4.71c0-1.66-.8-2.48-2.19-2.48-1.54,0-2.54.98-2.54,2.82v4.37h-1.54v-8.48h1.47v1.26c.61-.86,1.65-1.34,2.93-1.34s2.38.51,2.95,1.57c.64-.96,1.82-1.57,3.26-1.57,2.07,0,3.47,1.18,3.47,3.68Z"/><path class="uuid-e9d6b451-3622-4dbd-9ba6-5ae4d5eaceb9" d="m1025.7,419.84c0-.56.45-1.01,1.04-1.01s1.04.43,1.04.98c0,.58-.43,1.02-1.04,1.02s-1.04-.43-1.04-.99Zm.27,2.62h1.54v8.48h-1.54v-8.48Z"/><path class="uuid-e9d6b451-3622-4dbd-9ba6-5ae4d5eaceb9" d="m1029.65,426.71c0-2.53,1.87-4.32,4.48-4.32,1.52,0,2.79.62,3.46,1.81l-1.17.75c-.54-.83-1.38-1.22-2.3-1.22-1.66,0-2.91,1.17-2.91,2.98s1.25,2.99,2.91,2.99c.93,0,1.76-.38,2.3-1.22l1.17.74c-.67,1.18-1.94,1.83-3.46,1.83-2.61,0-4.48-1.81-4.48-4.34Z"/><path class="uuid-e9d6b451-3622-4dbd-9ba6-5ae4d5eaceb9" d="m1046.29,425.83v5.12h-1.46v-1.12c-.51.77-1.46,1.22-2.79,1.22-1.92,0-3.14-1.02-3.14-2.5,0-1.36.88-2.48,3.41-2.48h2.43v-.3c0-1.3-.75-2.05-2.27-2.05-1.01,0-2.03.35-2.69.91l-.64-1.15c.88-.7,2.14-1.09,3.51-1.09,2.32,0,3.63,1.12,3.63,3.44Zm-1.54,2.53v-1.18h-2.37c-1.52,0-1.95.59-1.95,1.31,0,.85.71,1.38,1.87,1.38s2.06-.53,2.45-1.5Z"/><path class="uuid-e9d6b451-3622-4dbd-9ba6-5ae4d5eaceb9" d="m1048.06,430.06l.64-1.22c.72.51,1.87.88,2.98.88,1.42,0,2.02-.43,2.02-1.15,0-1.9-5.36-.26-5.36-3.63,0-1.52,1.36-2.54,3.54-2.54,1.1,0,2.35.29,3.09.77l-.66,1.22c-.77-.5-1.62-.67-2.45-.67-1.34,0-2,.5-2,1.17,0,2,5.38.37,5.38,3.67,0,1.54-1.41,2.51-3.67,2.51-1.41,0-2.8-.43-3.5-.99Z"/></g></svg>