<?xml version="1.0" encoding="UTF-8"?><svg xmlns="http://www.w3.org/2000/svg" xmlns:xlink="http://www.w3.org/1999/xlink" viewBox="0 0 1232.74 1010.14"><defs><style>.e{fill:#fff;}.f{fill:#002949;}.g{clip-path:url(#b);}.g,.h,.i,.j,.k,.l,.m,.n{fill:none;}.h{stroke:rgba(211,47,47,.7);}.h,.i,.m{stroke-width:2.5px;}.h,.i,.n{stroke-linecap:round;stroke-linejoin:round;}.i{stroke:rgba(0,0,0,.7);}.j{stroke:#fff;stroke-linejoin:bevel;stroke-width:3px;}.j,.o{font-family:HelveticaNeue-UltraLight, 'Helvetica Neue';font-size:13.35px;font-weight:100;isolation:isolate;}.k{stroke:#252525;stroke-width:2px;}.k,.m{stroke-miterlimit:10;}.p{fill:#00699b;}.m{stroke:#4c4d4d;stroke-linecap:square;}.n{stroke:rgba(130,181,31,.8);stroke-width:7px;}.o{fill:#252525;}</style><clipPath id="b"><rect class="l" x="11.46" y="15.23" width="1204.99" height="986.91"/></clipPath></defs><g id="a"><g class="g"><rect class="e" x="11.46" y="15.23" width="1204.99" height="986.91"/><path class="k" d="m606.72,18.57v983.57"/><path class="k" d="m606.72,17.45l-5.56,5.56"/><path class="k" d="m606.72,17.45l5.56,5.56"/><path class="k" d="m11.46,651.66h1201.65"/><path class="k" d="m1214.23,651.66l-5.56-5.56"/><path class="k" d="m1214.23,651.66l-5.56,5.56"/><text class="o" transform="translate(48.18 669.46)"><tspan x="0" y="0">–2</tspan></text><text class="j" transform="translate(48.18 669.46)"><tspan x="0" y="0">–2</tspan></text><text class="o" transform="translate(48.18 669.46)"><tspan x="0" y="0">–2</tspan></text><path class="k" d="m54.85,651.66v3.34"/><text class="o" transform="translate(324.11 669.46)"><tspan x="0" y="0">–1</tspan></text><text class="j" transform="translate(324.11 669.46)"><tspan x="0" y="0">–1</tspan></text><text class="o" transform="translate(324.11 669.46)"><tspan x="0" y="0">–1</tspan></text><path class="k" d="m330.79,651.66v3.34"/><path class="k" d="m606.72,651.66v3.34"/><text class="o" transform="translate(879.32 669.46)"><tspan x="0" y="0">1</tspan></text><text class="j" transform="translate(879.32 669.46)"><tspan x="0" y="0">1</tspan></text><text class="o" transform="translate(879.32 669.46)"><tspan x="0" y="0">1</tspan></text><path class="k" d="m882.66,651.66v3.34"/><text class="o" transform="translate(1155.26 669.46)"><tspan x="0" y="0">2</tspan></text><text class="j" transform="translate(1155.26 669.46)"><tspan x="0" y="0">2</tspan></text><text class="o" transform="translate(1155.26 669.46)"><tspan x="0" y="0">2</tspan></text><path class="k" d="m1158.59,651.66v3.34"/><path class="k" d="m603.39,927.59h3.34"/><path class="k" d="m603.39,789.63h3.34"/><path class="k" d="m603.39,513.69h3.34"/><path class="k" d="m603.39,375.72h3.34"/><path class="k" d="m603.39,237.76h3.34"/><path class="k" d="m603.39,99.79h3.34"/><text class="o" transform="translate(584.47 933.16)"><tspan x="0" y="0">–4</tspan></text><text class="j" transform="translate(584.47 933.16)"><tspan x="0" y="0">–4</tspan></text><text class="o" transform="translate(584.47 933.16)"><tspan x="0" y="0">–4</tspan></text><text class="o" transform="translate(584.47 795.19)"><tspan x="0" y="0">–2</tspan></text><text class="j" transform="translate(584.47 795.19)"><tspan x="0" y="0">–2</tspan></text><text class="o" transform="translate(584.47 795.19)"><tspan x="0" y="0">–2</tspan></text><text class="o" transform="translate(591.15 519.26)"><tspan x="0" y="0">2</tspan></text><text class="j" transform="translate(591.15 519.26)"><tspan x="0" y="0">2</tspan></text><text class="o" transform="translate(591.15 519.26)"><tspan x="0" y="0">2</tspan></text><text class="o" transform="translate(591.15 381.29)"><tspan x="0" y="0">4</tspan></text><text class="j" transform="translate(591.15 381.29)"><tspan x="0" y="0">4</tspan></text><text class="o" transform="translate(591.15 381.29)"><tspan x="0" y="0">4</tspan></text><text class="o" transform="translate(591.15 243.32)"><tspan x="0" y="0">6</tspan></text><text class="j" transform="translate(591.15 243.32)"><tspan x="0" y="0">6</tspan></text><text class="o" transform="translate(591.15 243.32)"><tspan x="0" y="0">6</tspan></text><text class="o" transform="translate(591.15 105.35)"><tspan x="0" y="0">8</tspan></text><text class="j" transform="translate(591.15 105.35)"><tspan x="0" y="0">8</tspan></text><text class="o" transform="translate(591.15 105.35)"><tspan x="0" y="0">8</tspan></text><text class="o" transform="translate(591.15 669.46)"><tspan x="0" y="0">0</tspan></text><text class="j" transform="translate(591.15 669.46)"><tspan x="0" y="0">0</tspan></text><text class="o" transform="translate(591.15 669.46)"><tspan x="0" y="0">0</tspan></text><path class="n" d="m887.98,441.2l3.69-2.77,4.71-3.54,4.71-3.55,4.71-3.57,4.71-3.59,4.71-3.62,4.71-3.65,4.71-3.69,4.71-3.73,4.71-3.78,4.71-3.83,4.71-3.89,4.71-3.95,4.71-4.02,4.71-4.1,4.71-4.18,4.71-4.27,4.71-4.37,4.71-4.47,4.71-4.58,4.71-4.7,4.71-4.82,4.71-4.95,4.71-5.09,4.71-5.24,4.71-5.39,4.71-5.55,4.71-5.72,4.71-5.9,4.71-6.08,4.71-6.28,4.71-6.48,4.71-6.69,4.71-6.91,4.71-7.14,4.71-7.38,4.71-7.62,4.71-7.88,4.71-8.14,4.71-8.42,4.71-8.7,4.71-9,4.71-9.31,4.71-9.62,4.71-9.95,4.71-10.28,4.71-10.63,4.71-10.99,2.35-5.63,2.35-5.72,2.35-5.82,2.35-5.92,2.35-6.01,2.35-6.11,2.35-6.21,2.35-6.31,2.35-6.42,2.35-6.52,2.35-6.63,2.35-6.74,2.35-6.85,2.35-6.96,2.35-7.07,2.35-7.18,2.35-7.3,2.35-7.41,2.35-7.53,2.35-7.65,2.35-7.77,2.35-7.9,2.35-8.02"/><path class="n" d="m131.49,1.2l1.18,9.76,1.18,9.69,1.18,9.62,1.18,9.55,1.18,9.48,1.18,9.41,1.18,9.34,1.18,9.27,1.18,9.2,1.18,9.13,1.18,9.07,1.18,9,1.18,8.93,1.18,8.86,1.18,8.8,1.18,8.73,1.18,8.66,1.18,8.6,1.18,8.53,1.18,8.47,1.18,8.4,1.18,8.34,1.18,8.27,1.18,8.21,1.18,8.14,1.18,8.08,1.18,8.02,1.18,7.95,1.18,7.89,1.18,7.83,1.18,7.77,1.18,7.7,1.18,7.64,1.18,7.58,1.18,7.52,1.18,7.46,1.18,7.4,1.18,7.34,1.18,7.28,1.18,7.22,1.18,7.16,1.18,7.1,1.18,7.04,1.18,6.98,1.18,6.92,1.18,6.86,1.18,6.81,1.18,6.75,1.18,6.69,1.18,6.63,1.18,6.58,1.18,6.52,1.18,6.46,1.18,6.41,1.18,6.35,1.18,6.29,1.18,6.24,1.18,6.18,1.18,6.13,1.18,6.07,1.18,6.02,1.18,5.97,1.18,5.91,1.18,5.86,1.18,5.8,1.18,5.75,1.18,5.7,1.18,5.64,1.18,5.59,1.18,5.54,2.35,10.92,2.35,10.72,2.35,10.51,2.35,10.31,2.35,10.11,2.35,9.91,2.35,9.72,2.35,9.52,2.35,9.33,2.35,9.14,2.35,8.95,2.35,8.76,2.35,8.58,2.35,8.4,2.35,8.22,2.35,8.04,2.35,7.86,2.35,7.68,2.35,7.51,2.35,7.34,2.35,7.17,2.35,7,2.35,6.83,2.35,6.67,2.35,6.5,2.35,6.34,2.35,6.18,2.35,6.02,2.35,5.87,2.35,5.71,4.71,10.97,4.71,10.37,4.71,9.79,4.71,9.22,4.71,8.66,4.71,8.12,4.71,7.59,4.71,7.07,4.71,6.57,4.71,6.07,4.71,5.59,4.71,5.12,4.71,4.67,4.71,4.22,4.71,3.79,4.71,3.37,4.71,2.96,4.71,2.56,4.71,2.18,4.71,1.8,4.71,1.44,4.71,1.08,4.71.74,4.71.41,4.71.09,4.71-.22,4.71-.52,4.71-.82,4.71-1.1,4.71-1.37,4.71-1.63,4.71-1.88,4.71-2.13,4.71-2.36,4.71-2.59,4.71-2.8,4.71-3.01,4.71-3.21,4.71-3.4,4.71-3.58,4.71-3.76,4.71-3.92,4.71-4.08,4.71-4.23,4.71-4.38,4.71-4.51,4.71-4.64,4.71-4.76,4.71-4.87,4.71-4.98,4.71-5.08,4.71-5.17,4.71-5.26,4.71-5.34,4.71-5.42,4.71-5.48,4.71-5.55,4.71-5.6,4.71-5.65,4.71-5.7,4.71-5.74,4.71-5.77,4.71-5.8,4.71-5.83,4.71-5.85,4.71-5.86,4.71-5.88,4.71-5.88,4.71-5.88,4.71-5.88,4.71-5.88,4.71-5.87,4.71-5.85,4.71-5.84,4.71-5.81,4.71-5.79,4.71-5.76,4.71-5.73,4.71-5.7,4.71-5.67,4.71-5.63,4.71-5.59,4.71-5.55,4.71-5.5,4.71-5.45,4.71-5.4,4.71-5.35,4.71-5.3,4.71-5.25,4.71-5.19,4.71-5.14,4.71-5.08,4.71-5.02,4.71-4.96,4.71-4.91,4.71-4.85,4.71-4.79,4.71-4.73,4.71-4.67,4.71-4.61,4.71-4.55,4.71-4.49,4.71-4.43,4.71-4.37,4.71-4.31,4.71-4.25,4.71-4.2,4.71-4.14,4.71-4.09,4.71-4.04,4.71-3.99,4.71-3.94,4.71-3.9,4.71-3.85,4.71-3.81,4.71-3.77,4.71-3.73,4.71-3.7,4.71-3.67,4.71-3.64,4.71-3.61,4.71-3.59,4.71-3.57,4.71-3.56,4.71-3.54,4.71-3.54"/><path class="i" d="m882.97,651.99l-.14-200.36"/><path class="i" d="m876.32,445.06h-269.4"/><path class="m" d="m888.39,445.06c0,3.07-2.49,5.56-5.56,5.56s-5.56-2.49-5.56-5.56,2.49-5.56,5.56-5.56,5.56,2.49,5.56,5.56Z"/></g><path class="h" d="m855.76,651.99l1.12-187.34"/><path class="h" d="m856.88,464.65l-249.95.51"/><path class="h" d="m911.6,651.99v-228.65"/><path class="h" d="m911.6,423.34l-304.68-1.73"/></g><g id="c"><path class="p" d="m-2-1.77v1013.91h1237V-1.77H-2Zm1220,976.91c0,11.05-8.95,20-20,20H35c-11.05,0-20-8.95-20-20V35.23c0-11.05,8.95-20,20-20h1163c11.05,0,20,8.95,20,20v939.91Z"/></g><g id="d"><path class="f" d="m1106.02,254.88c-.6,2.83-1.52,4.93-2.75,6.32-1.24,1.39-2.79,2.08-4.67,2.08-.55,0-.98-.03-1.29-.1l.33-1.72c.13.04.44.06.92.06.59,0,1.09-.15,1.5-.45.42-.3.8-.82,1.16-1.56.36-.74.69-1.77.99-3.09l4.2-18.57h-3.3l.29-1.35c.87-.05,1.5-.12,1.88-.21.38-.09.68-.23.9-.41s.4-.42.55-.71c.15-.29.34-.83.58-1.61.69-2.34,1.75-4.1,3.19-5.28,1.44-1.18,3.27-1.77,5.5-1.77,1.28,0,2.38.1,3.3.31l-.76,3.32h-1.72c-.18-.74-.42-1.28-.71-1.6s-.73-.49-1.3-.49c-.74,0-1.37.21-1.88.62-.51.41-.95,1.02-1.32,1.83-.37.81-.7,1.89-1.02,3.26l-.49,2.13h5.02l-.43,1.97h-5.04l-3.63,17.03Z"/><path class="f" d="m1126.49,244.67c0,4.56.73,8.31,2.2,11.27s3.7,4.93,6.71,5.94l-.47,1.5c-3.82-1-6.74-3.16-8.77-6.47s-3.05-7.33-3.05-12.04,1.02-8.71,3.06-12.04c2.04-3.33,4.96-5.49,8.76-6.49l.53,1.5c-3.05,1-5.3,2.96-6.77,5.87s-2.2,6.57-2.2,10.97Z"/><path class="f" d="m1145.52,245.72c-.2-1.03-.4-2.02-.61-2.97-.21-.95-.42-1.84-.64-2.66-.22-.82-.4-1.36-.55-1.61-.14-.25-.3-.43-.46-.53-.16-.1-.37-.15-.62-.15-.27,0-.52.06-.74.19-.22.12-.46.34-.72.64-.26.31-.61.78-1.04,1.44l-1.27-.84c.82-1.24,1.61-2.16,2.36-2.77.75-.61,1.65-.92,2.68-.92.4,0,.76.05,1.06.14.31.09.58.23.81.42s.44.43.62.73c.18.3.36.71.53,1.22.17.51.33,1.15.48,1.91.15.76.28,1.55.4,2.37h.2c1.25-1.76,2.2-3.04,2.84-3.86s1.19-1.42,1.63-1.82c.44-.4.87-.68,1.28-.84s.95-.24,1.63-.24c.61,0,1.11.08,1.5.23l-.78,3.54h-1.37c-.08-.55-.31-.82-.68-.82-.12,0-.24.02-.37.06-.13.04-.29.12-.48.25-.19.13-.47.38-.83.76-.37.38-.78.84-1.23,1.39-.46.55-.92,1.12-1.41,1.72l-1.33,1.66c.23,1.25.46,2.33.66,3.24.21.91.39,1.67.56,2.28.16.61.31,1.08.43,1.44.12.35.26.62.4.79.14.18.29.3.44.37.15.07.32.11.52.11.35,0,.69-.14,1.03-.41s.81-.89,1.44-1.86l1.27.84c-.91,1.35-1.74,2.31-2.47,2.86-.74.55-1.61.83-2.63.83-.56,0-1.04-.1-1.43-.3s-.73-.52-1.02-.97c-.29-.44-.54-1.13-.76-2.07-.4-1.67-.65-2.94-.74-3.83h-.2c-1.38,1.94-2.41,3.33-3.08,4.18-.67.85-1.22,1.47-1.66,1.88-.44.4-.86.69-1.27.85s-.95.24-1.63.24c-.61,0-1.11-.08-1.5-.23l.78-3.54h1.37c.08.55.31.82.68.82.18,0,.37-.05.58-.15.2-.1.49-.33.87-.7.38-.37.9-.95,1.56-1.75s1.63-1.99,2.89-3.57Z"/><path class="f" d="m1167.2,244.67c0-4.4-.73-8.06-2.19-10.97-1.46-2.91-3.72-4.87-6.78-5.87l.53-1.5c3.8,1,6.72,3.17,8.76,6.49,2.04,3.33,3.06,7.34,3.06,12.04s-1.02,8.73-3.05,12.04-4.96,5.47-8.77,6.47l-.47-1.5c3.01-1,5.24-2.98,6.71-5.94s2.2-6.71,2.2-11.27Z"/></g></svg>