<?xml version="1.0" encoding="UTF-8"?><svg xmlns="http://www.w3.org/2000/svg" xmlns:xlink="http://www.w3.org/1999/xlink" viewBox="0 0 1232.74 1010.14"><defs><style>.e{stroke-width:4px;}.e,.f,.g,.h,.i,.j,.k,.l,.m{fill:none;}.e,.g,.h,.i,.j{stroke-linecap:round;stroke-linejoin:round;}.e,.j{stroke:rgba(128,0,128,.7);}.n{fill:#252525;}.n,.m{font-family:HelveticaNeue-UltraLight, 'Helvetica Neue';font-size:13.4px;font-weight:100;isolation:isolate;}.o,.p{fill:#fff;}.f{clip-path:url(#b);}.g{stroke:rgba(211,47,47,.7);}.g,.h,.p,.i{stroke-width:2.5px;}.h{stroke:rgba(102,204,255,.7);}.p{stroke:#4c4d4d;stroke-linecap:square;}.p,.k{stroke-miterlimit:10;}.i{stroke:rgba(255,153,204,.7);}.j{stroke-width:7px;}.k{stroke:#252525;stroke-width:2px;}.q{fill:#00699b;}.m{stroke:#fff;stroke-linejoin:bevel;stroke-width:3px;}</style><clipPath id="b"><rect class="l" x="13.13" y="14.01" width="1204.87" height="990.47"/></clipPath></defs><g id="a"><path class="g" d="m855.76,651.99l1.12-187.34"/><path class="g" d="m856.88,464.65l-249.95.51"/><path class="g" d="m911.6,651.99v-228.65"/><path class="g" d="m911.6,423.34l-304.68-1.73"/><g class="f"><rect class="o" x="13.13" y="14.01" width="1204.87" height="990.47"/><path class="k" d="m601.61,17.36v987.12"/><path class="k" d="m601.61,16.25l-5.58,5.58"/><path class="k" d="m601.61,16.25l5.58,5.58"/><path class="k" d="m13.13,815.77h1201.52"/><path class="k" d="m1215.77,815.77l-5.58-5.58"/><path class="k" d="m1215.77,815.77l-5.58,5.58"/><text class="n" transform="translate(58.91 833.64)"><tspan x="0" y="0">–3</tspan></text><text class="m" transform="translate(58.91 833.64)"><tspan x="0" y="0">–3</tspan></text><text class="n" transform="translate(58.91 833.64)"><tspan x="0" y="0">–3</tspan></text><path class="k" d="m65.61,815.77v3.35"/><text class="n" transform="translate(236.46 833.64)"><tspan x="0" y="0">–2</tspan></text><text class="m" transform="translate(236.46 833.64)"><tspan x="0" y="0">–2</tspan></text><text class="n" transform="translate(236.46 833.64)"><tspan x="0" y="0">–2</tspan></text><path class="k" d="m244.28,815.77v3.35"/><text class="n" transform="translate(415.12 833.64)"><tspan x="0" y="0">–1</tspan></text><text class="m" transform="translate(415.12 833.64)"><tspan x="0" y="0">–1</tspan></text><text class="n" transform="translate(415.12 833.64)"><tspan x="0" y="0">–1</tspan></text><path class="k" d="m422.94,815.77v3.35"/><path class="k" d="m601.61,815.77v3.35"/><text class="n" transform="translate(775.8 833.64)"><tspan x="0" y="0">1</tspan></text><text class="m" transform="translate(775.8 833.64)"><tspan x="0" y="0">1</tspan></text><text class="n" transform="translate(775.8 833.64)"><tspan x="0" y="0">1</tspan></text><path class="k" d="m779.15,815.77v3.35"/><text class="n" transform="translate(954.47 833.64)"><tspan x="0" y="0">2</tspan></text><text class="m" transform="translate(954.47 833.64)"><tspan x="0" y="0">2</tspan></text><text class="n" transform="translate(954.47 833.64)"><tspan x="0" y="0">2</tspan></text><path class="k" d="m957.82,815.77v3.35"/><text class="n" transform="translate(1133.13 833.64)"><tspan x="0" y="0">3</tspan></text><text class="m" transform="translate(1133.13 833.64)"><tspan x="0" y="0">3</tspan></text><text class="n" transform="translate(1133.13 833.64)"><tspan x="0" y="0">3</tspan></text><path class="k" d="m1136.48,815.77v3.35"/><path class="k" d="m598.26,935.26h3.35"/><path class="k" d="m598.26,697.41h3.35"/><path class="k" d="m598.26,577.93h3.35"/><path class="k" d="m598.26,459.56h3.35"/><path class="k" d="m598.26,340.08h3.35"/><path class="k" d="m598.26,220.6h3.35"/><path class="k" d="m598.26,102.23h3.35"/><text class="n" transform="translate(578.16 939.72)"><tspan x="0" y="0">–1</tspan></text><text class="m" transform="translate(578.16 939.72)"><tspan x="0" y="0">–1</tspan></text><text class="n" transform="translate(578.16 939.72)"><tspan x="0" y="0">–1</tspan></text><text class="n" transform="translate(584.86 701.88)"><tspan x="0" y="0">1</tspan></text><text class="m" transform="translate(584.86 701.88)"><tspan x="0" y="0">1</tspan></text><text class="n" transform="translate(584.86 701.88)"><tspan x="0" y="0">1</tspan></text><text class="n" transform="translate(584.86 583.51)"><tspan x="0" y="0">2</tspan></text><text class="m" transform="translate(584.86 583.51)"><tspan x="0" y="0">2</tspan></text><text class="n" transform="translate(584.86 583.51)"><tspan x="0" y="0">2</tspan></text><text class="n" transform="translate(584.86 464.03)"><tspan x="0" y="0">3</tspan></text><text class="m" transform="translate(584.86 464.03)"><tspan x="0" y="0">3</tspan></text><text class="n" transform="translate(584.86 464.03)"><tspan x="0" y="0">3</tspan></text><text class="n" transform="translate(584.86 345.66)"><tspan x="0" y="0">4</tspan></text><text class="m" transform="translate(584.86 345.66)"><tspan x="0" y="0">4</tspan></text><text class="n" transform="translate(584.86 345.66)"><tspan x="0" y="0">4</tspan></text><text class="n" transform="translate(584.86 226.18)"><tspan x="0" y="0">5</tspan></text><text class="m" transform="translate(584.86 226.18)"><tspan x="0" y="0">5</tspan></text><text class="n" transform="translate(584.86 226.18)"><tspan x="0" y="0">5</tspan></text><text class="n" transform="translate(584.86 106.7)"><tspan x="0" y="0">6</tspan></text><text class="m" transform="translate(584.86 106.7)"><tspan x="0" y="0">6</tspan></text><text class="n" transform="translate(584.86 106.7)"><tspan x="0" y="0">6</tspan></text><text class="n" transform="translate(584.86 833.64)"><tspan x="0" y="0">0</tspan></text><text class="m" transform="translate(584.86 833.64)"><tspan x="0" y="0">0</tspan></text><text class="n" transform="translate(584.86 833.64)"><tspan x="0" y="0">0</tspan></text><path class="j" d="m65.85,1291.86C303.99,339.31,542.13,22.33,780.26,340.93"/><path class="j" d="m786.14,815.83c176.29-8.54,352.58-365.39,528.87-1070.55"/><path class="e" d="m765.38,815.23c2.86.31,4.72.52,7.58.64"/><path class="h" d="m690.43,815.99V250.89"/><path class="h" d="m690.43,250.89h-89.23"/><path class="h" d="m761.81,815.99v-498.47"/><path class="h" d="m761.81,317.52h-160.61"/><path class="i" d="m833.19,815.99v-10.71"/><path class="i" d="m833.19,805.28h-231.99"/><path class="i" d="m868.88,815.99v-29.74"/><path class="i" d="m868.88,786.25h-267.68"/></g><path class="p" d="m785.09,815.62c0,3.07-2.49,5.56-5.56,5.56s-5.56-2.49-5.56-5.56,2.49-5.56,5.56-5.56,5.56,2.49,5.56,5.56Z"/></g><g id="c"><path class="q" d="m-2-1.77v1013.91h1237V-1.77H-2Zm1220,976.91c0,11.05-8.95,20-20,20H35c-11.05,0-20-8.95-20-20V35.23c0-11.05,8.95-20,20-20h1163c11.05,0,20,8.95,20,20v939.91Z"/></g></svg>