<?xml version="1.0" encoding="UTF-8"?><svg xmlns="http://www.w3.org/2000/svg" xmlns:xlink="http://www.w3.org/1999/xlink" viewBox="0 0 1232.74 1010.14"><defs><style>.e{fill:#fff;}.f{fill:#002949;}.g{fill:#252525;}.g,.h{font-family:HelveticaNeue-UltraLight, 'Helvetica Neue';font-size:13px;font-weight:100;isolation:isolate;}.i{clip-path:url(#b);}.i,.j,.k,.l,.m,.n,.h{fill:none;}.j{stroke:rgba(0,0,0,.7);}.j,.l{stroke-width:2.5px;}.j,.l,.n{stroke-linecap:round;stroke-linejoin:round;}.o{fill:#333;}.k{stroke:#252525;stroke-miterlimit:10;stroke-width:2px;}.p{fill:#00699b;}.l{stroke:rgba(0,153,255,.7);}.n{stroke:rgba(127,0,255,.7);stroke-width:7px;}.h{stroke:#fff;stroke-linejoin:bevel;stroke-width:3px;}</style><clipPath id="b"><rect class="m" x="13.5" y="15.89" width="1204" height="978.59"/></clipPath></defs><g id="a"><g class="i"><rect class="e" x="13.5" y="15.89" width="1204" height="978.59"/><path class="k" d="m167.39,19.14v975.34"/><path class="k" d="m167.39,18.06l-5.42,5.42"/><path class="k" d="m167.39,18.06l5.42,5.42"/><path class="k" d="m13.5,889.36h1200.75"/><path class="k" d="m1215.33,889.36l-5.42-5.42"/><path class="k" d="m1215.33,889.36l-5.42,5.42"/><path class="k" d="m167.39,889.36v3.25"/><text class="g" transform="translate(546.69 905.62)"><tspan x="0" y="0">1</tspan></text><text class="h" transform="translate(546.69 905.62)"><tspan x="0" y="0">1</tspan></text><text class="g" transform="translate(546.69 905.62)"><tspan x="0" y="0">1</tspan></text><path class="k" d="m549.94,889.36v3.25"/><text class="g" transform="translate(928.15 905.62)"><tspan x="0" y="0">2</tspan></text><text class="h" transform="translate(928.15 905.62)"><tspan x="0" y="0">2</tspan></text><text class="g" transform="translate(928.15 905.62)"><tspan x="0" y="0">2</tspan></text><path class="k" d="m931.4,889.36v3.25"/><path class="k" d="m164.14,761.48h3.25"/><path class="k" d="m164.14,634.69h3.25"/><path class="k" d="m164.14,506.81h3.25"/><path class="k" d="m164.14,380.02h3.25"/><path class="k" d="m164.14,252.14h3.25"/><path class="k" d="m164.14,124.26h3.25"/><text class="g" transform="translate(152.22 766.9)"><tspan x="0" y="0">1</tspan></text><text class="h" transform="translate(152.22 766.9)"><tspan x="0" y="0">1</tspan></text><text class="g" transform="translate(152.22 766.9)"><tspan x="0" y="0">1</tspan></text><text class="g" transform="translate(152.22 639.02)"><tspan x="0" y="0">2</tspan></text><text class="h" transform="translate(152.22 639.02)"><tspan x="0" y="0">2</tspan></text><text class="g" transform="translate(152.22 639.02)"><tspan x="0" y="0">2</tspan></text><text class="g" transform="translate(152.22 512.23)"><tspan x="0" y="0">3</tspan></text><text class="h" transform="translate(152.22 512.23)"><tspan x="0" y="0">3</tspan></text><text class="g" transform="translate(152.22 512.23)"><tspan x="0" y="0">3</tspan></text><text class="g" transform="translate(152.22 384.35)"><tspan x="0" y="0">4</tspan></text><text class="h" transform="translate(152.22 384.35)"><tspan x="0" y="0">4</tspan></text><text class="g" transform="translate(152.22 384.35)"><tspan x="0" y="0">4</tspan></text><text class="g" transform="translate(152.22 257.56)"><tspan x="0" y="0">5</tspan></text><text class="h" transform="translate(152.22 257.56)"><tspan x="0" y="0">5</tspan></text><text class="g" transform="translate(152.22 257.56)"><tspan x="0" y="0">5</tspan></text><text class="g" transform="translate(152.22 129.68)"><tspan x="0" y="0">6</tspan></text><text class="h" transform="translate(152.22 129.68)"><tspan x="0" y="0">6</tspan></text><text class="g" transform="translate(152.22 129.68)"><tspan x="0" y="0">6</tspan></text><text class="g" transform="translate(152.22 905.62)"><tspan x="0" y="0">0</tspan></text><text class="h" transform="translate(152.22 905.62)"><tspan x="0" y="0">0</tspan></text><text class="g" transform="translate(152.22 905.62)"><tspan x="0" y="0">0</tspan></text><path class="n" d="m-978.93,1271.12c764.23-1528.45,1528.45-1528.45,2292.68,0"/><path class="l" d="m167.41,411.36h573.17"/><path class="l" d="m740.58,411.36v477.64"/><path class="j" d="m167.41,340.03h496.75"/><path class="j" d="m664.16,340.03v548.97"/><path class="j" d="m167.41,374.42h534.96"/><path class="j" d="m702.37,374.42v514.58"/><path class="j" d="m167.41,450.85h611.38"/><path class="j" d="m778.79,450.85v438.16"/><path class="j" d="m167.41,492.88h649.59"/><path class="j" d="m817,492.88v396.12"/></g></g><g id="c"><path class="p" d="m-2-1.77v1013.91h1237V-1.77H-2Zm1220,976.91c0,11.05-8.95,20-20,20H35c-11.05,0-20-8.95-20-20V35.23c0-11.05,8.95-20,20-20h1163c11.05,0,20,8.95,20,20v939.91Z"/></g><g id="d"><path class="f" d="m417.2,138.07c-.6,2.83-1.52,4.93-2.75,6.32-1.24,1.39-2.79,2.08-4.67,2.08-.55,0-.98-.03-1.29-.1l.33-1.72c.13.04.44.06.92.06.59,0,1.09-.15,1.5-.45.42-.3.8-.82,1.16-1.56.36-.74.69-1.77.99-3.09l4.2-18.57h-3.3l.29-1.35c.87-.05,1.5-.12,1.88-.21.38-.09.68-.23.9-.41s.4-.42.55-.71c.15-.29.34-.83.58-1.61.69-2.34,1.75-4.1,3.19-5.28,1.44-1.18,3.27-1.77,5.5-1.77,1.28,0,2.38.1,3.3.31l-.76,3.32h-1.72c-.18-.74-.42-1.28-.71-1.6s-.73-.49-1.3-.49c-.74,0-1.37.21-1.88.62-.51.41-.95,1.02-1.32,1.83-.36.81-.7,1.89-1.02,3.26l-.49,2.13h5.02l-.43,1.97h-5.04l-3.63,17.03Z"/><path class="f" d="m437.67,127.86c0,4.56.73,8.31,2.2,11.27s3.7,4.93,6.71,5.94l-.47,1.5c-3.82-1-6.74-3.16-8.77-6.47s-3.05-7.33-3.05-12.04,1.02-8.71,3.06-12.04c2.04-3.33,4.96-5.49,8.76-6.49l.53,1.5c-3.05,1-5.3,2.96-6.77,5.87s-2.2,6.57-2.2,10.97Z"/><path class="f" d="m456.69,128.91c-.2-1.03-.4-2.02-.61-2.97-.21-.95-.42-1.84-.64-2.66-.22-.82-.4-1.36-.55-1.61-.14-.25-.3-.43-.46-.53-.16-.1-.37-.15-.62-.15-.27,0-.52.06-.74.19-.22.12-.46.34-.72.64-.26.31-.61.78-1.04,1.44l-1.27-.84c.82-1.24,1.61-2.16,2.36-2.77.75-.61,1.65-.92,2.68-.92.4,0,.76.05,1.06.14.31.09.58.23.81.42s.44.43.62.73c.18.3.36.71.53,1.22.17.51.33,1.15.48,1.91.15.76.28,1.55.4,2.37h.2c1.25-1.76,2.2-3.04,2.84-3.86s1.19-1.42,1.63-1.82c.44-.4.87-.68,1.28-.84s.95-.24,1.63-.24c.61,0,1.11.08,1.5.23l-.78,3.54h-1.37c-.08-.55-.31-.82-.68-.82-.12,0-.24.02-.37.06-.13.04-.29.12-.48.25-.19.13-.47.38-.83.76-.36.38-.77.84-1.23,1.39-.46.55-.92,1.12-1.41,1.72l-1.33,1.66c.23,1.25.46,2.33.66,3.24.21.91.39,1.67.56,2.28.16.61.31,1.08.43,1.44.12.35.26.62.4.79.14.18.29.3.44.37.15.07.32.11.52.11.35,0,.69-.14,1.03-.41s.81-.89,1.44-1.86l1.27.84c-.91,1.35-1.74,2.31-2.47,2.86-.74.55-1.61.83-2.63.83-.56,0-1.04-.1-1.43-.3s-.73-.52-1.02-.97c-.29-.44-.54-1.13-.76-2.07-.4-1.67-.65-2.94-.74-3.83h-.2c-1.38,1.94-2.41,3.33-3.08,4.18-.67.85-1.22,1.47-1.66,1.88-.44.4-.86.69-1.27.85s-.95.24-1.63.24c-.61,0-1.11-.08-1.5-.23l.78-3.54h1.37c.08.55.31.82.68.82.18,0,.37-.05.58-.15.2-.1.49-.33.87-.7.38-.37.9-.95,1.56-1.75s1.63-1.99,2.89-3.57Z"/><path class="f" d="m478.37,127.86c0-4.4-.73-8.06-2.19-10.97-1.46-2.91-3.72-4.87-6.78-5.87l.53-1.5c3.8,1,6.72,3.17,8.76,6.49,2.04,3.33,3.06,7.34,3.06,12.04s-1.02,8.73-3.05,12.04-4.95,5.47-8.77,6.47l-.47-1.5c3.01-1,5.24-2.98,6.71-5.94s2.2-6.71,2.2-11.27Z"/><path class="o" d="m83.5,347c-.45,2.12-1.14,3.7-2.07,4.74-.93,1.04-2.09,1.56-3.5,1.56-.41,0-.73-.02-.97-.07l.25-1.29c.1.03.33.04.69.04.44,0,.82-.11,1.13-.34s.6-.62.87-1.17.52-1.33.74-2.31l3.15-13.93h-2.48l.22-1.01c.65-.04,1.13-.09,1.41-.16s.51-.17.67-.31.3-.31.41-.54c.11-.22.26-.62.43-1.21.52-1.76,1.32-3.08,2.4-3.96s2.45-1.33,4.12-1.33c.96,0,1.78.08,2.48.23l-.57,2.49h-1.29c-.14-.56-.31-.96-.53-1.2s-.54-.37-.97-.37c-.56,0-1.03.15-1.41.46-.39.31-.72.76-.99,1.37s-.53,1.42-.76,2.45l-.37,1.6h3.76l-.32,1.48h-3.78l-2.72,12.77Z"/><path class="o" d="m98.86,339.34c0,3.42.55,6.24,1.65,8.45s2.78,3.7,5.03,4.45l-.35,1.13c-2.86-.75-5.05-2.37-6.58-4.86-1.52-2.49-2.29-5.5-2.29-9.03s.76-6.54,2.29-9.03c1.53-2.49,3.72-4.12,6.57-4.87l.4,1.13c-2.29.75-3.98,2.22-5.08,4.4-1.1,2.18-1.65,4.92-1.65,8.22Z"/><path class="o" d="m118.72,333.46l1.35-.97.94.23-2.15,9.29c-.21.93-.32,1.65-.32,2.17,0,.39.06.67.19.85s.33.26.6.26c.29,0,.61-.12.94-.36s.8-.7,1.41-1.37l.83.82c-.88.94-1.63,1.6-2.25,2-.62.4-1.29.59-2.01.59-.61,0-1.09-.2-1.45-.6s-.54-.93-.54-1.6c0-.54.11-1.11.34-1.71l-.19-.06c-.94,1.37-1.83,2.37-2.67,3s-1.73.95-2.67.95c-1.07,0-1.91-.41-2.5-1.22s-.89-1.95-.89-3.41c0-1.68.33-3.29.99-4.84s1.56-2.77,2.72-3.66c1.15-.89,2.44-1.34,3.85-1.34.63,0,1.23.07,1.78.21.55.14,1.12.39,1.71.75Zm-1.29,4.37c.09-.4.15-.75.18-1.04s.04-.61.04-.95c0-.75-.16-1.3-.48-1.66s-.87-.53-1.64-.53c-1.01,0-1.91.41-2.71,1.22s-1.43,1.9-1.88,3.26c-.45,1.36-.67,2.72-.67,4.08,0,1.02.14,1.78.42,2.28.28.5.74.75,1.4.75s1.28-.28,1.9-.83,1.26-1.35,1.92-2.38c.66-1.03,1.13-2.22,1.4-3.57l.13-.63Z"/><path class="o" d="m133.13,344.41c.48,0,.86-.03,1.16-.09s.53-.16.7-.29.31-.31.42-.54c.1-.22.23-.56.39-1.02h1.25l-.25,4.28h-12.06v-.7c.42-1.03.99-2.08,1.7-3.15s1.72-2.34,3.03-3.79c1.13-1.25,1.95-2.2,2.45-2.84.55-.7.95-1.31,1.22-1.82.27-.51.46-1,.58-1.45.12-.46.18-.91.18-1.37,0-.73-.12-1.38-.35-1.94s-.59-1-1.08-1.33-1.09-.48-1.82-.48c-1.83,0-3.06,1.02-3.69,3.05h-1.77v-2.81c1.18-.56,2.29-.96,3.32-1.21,1.03-.25,1.96-.37,2.78-.37,1.82,0,3.19.4,4.12,1.19s1.39,1.95,1.39,3.46c0,.52-.05.99-.15,1.43s-.26.86-.48,1.29c-.22.42-.52.88-.89,1.37s-.78.98-1.23,1.49c-.45.5-1.23,1.34-2.33,2.51-1.86,1.96-3.22,3.68-4.09,5.14h5.52Z"/><path class="o" d="m146.74,339.34c0-3.3-.55-6.04-1.64-8.22-1.09-2.18-2.79-3.65-5.08-4.4l.4-1.13c2.85.75,5.04,2.38,6.57,4.87,1.53,2.5,2.29,5.51,2.29,9.03s-.76,6.55-2.29,9.03c-1.52,2.48-3.72,4.1-6.58,4.86l-.35-1.13c2.26-.75,3.93-2.24,5.03-4.45s1.65-5.03,1.65-8.45Z"/><path class="o" d="m67.5,385.79c-.45,2.12-1.14,3.7-2.07,4.74-.93,1.04-2.09,1.56-3.5,1.56-.41,0-.73-.02-.97-.07l.25-1.29c.1.03.33.04.69.04.44,0,.82-.11,1.13-.34s.6-.62.87-1.17.52-1.33.74-2.31l3.15-13.93h-2.48l.22-1.01c.65-.04,1.13-.09,1.41-.16s.51-.17.67-.31.3-.31.41-.54c.11-.22.26-.62.43-1.21.52-1.76,1.32-3.08,2.4-3.96s2.45-1.33,4.12-1.33c.96,0,1.78.08,2.48.23l-.57,2.49h-1.29c-.14-.56-.31-.96-.53-1.2s-.54-.37-.97-.37c-.56,0-1.03.15-1.41.46-.39.31-.72.76-.99,1.37s-.53,1.42-.76,2.45l-.37,1.6h3.76l-.32,1.48h-3.78l-2.72,12.77Z"/><path class="o" d="m82.86,378.13c0,3.42.55,6.24,1.65,8.45s2.78,3.7,5.03,4.45l-.35,1.13c-2.86-.75-5.05-2.37-6.58-4.86-1.52-2.49-2.29-5.5-2.29-9.03s.76-6.54,2.29-9.03c1.53-2.49,3.72-4.12,6.57-4.87l.4,1.13c-2.29.75-3.98,2.22-5.08,4.4-1.1,2.18-1.65,4.92-1.65,8.22Z"/><path class="o" d="m102.72,372.26l1.35-.97.94.23-2.15,9.29c-.21.93-.32,1.65-.32,2.17,0,.39.06.67.19.85s.33.26.6.26c.29,0,.61-.12.94-.36s.8-.7,1.41-1.37l.83.82c-.88.94-1.63,1.6-2.25,2-.62.4-1.29.59-2.01.59-.61,0-1.09-.2-1.45-.6s-.54-.93-.54-1.6c0-.54.11-1.11.34-1.71l-.19-.06c-.94,1.37-1.83,2.37-2.67,3s-1.73.95-2.67.95c-1.07,0-1.91-.41-2.5-1.22s-.89-1.95-.89-3.41c0-1.68.33-3.29.99-4.84s1.56-2.77,2.72-3.66c1.15-.89,2.44-1.34,3.85-1.34.63,0,1.23.07,1.78.21.55.14,1.12.39,1.71.75Zm-1.29,4.37c.09-.4.15-.75.18-1.04s.04-.61.04-.95c0-.75-.16-1.3-.48-1.66s-.87-.53-1.64-.53c-1.01,0-1.91.41-2.71,1.22s-1.43,1.9-1.88,3.26c-.45,1.36-.67,2.72-.67,4.08,0,1.02.14,1.78.42,2.28.28.5.74.75,1.4.75s1.28-.28,1.9-.83,1.26-1.35,1.92-2.38c.66-1.03,1.13-2.22,1.4-3.57l.13-.63Z"/><path class="o" d="m114.41,384.83c.61-.16,1.01-.33,1.22-.52.21-.19.34-.46.4-.81s.1-.89.1-1.61v-2.4h-8.14v-1.1l8.57-12.93h2.09v12.61h.31c.57,0,.97-.04,1.22-.12s.45-.23.61-.44.31-.55.45-1.03h1.11l-.18,3.02h-3.52v2.4c0,.65.02,1.13.07,1.44s.12.54.22.72.25.32.45.44.52.23.97.35v.72h-5.95v-.72Zm-4.01-6.77h5.73v-3.65c0-.92.01-1.95.04-3.08.03-1.14.06-1.99.1-2.57h-.15l-5.73,9.1v.21Z"/><path class="o" d="m130.74,378.13c0-3.3-.55-6.04-1.64-8.22-1.09-2.18-2.79-3.65-5.08-4.4l.4-1.13c2.85.75,5.04,2.38,6.57,4.87,1.53,2.5,2.29,5.51,2.29,9.03s-.76,6.55-2.29,9.03c-1.52,2.48-3.72,4.1-6.58,4.86l-.35-1.13c2.26-.75,3.93-2.24,5.03-4.45s1.65-5.03,1.65-8.45Z"/><path class="o" d="m100.12,424.59c-.45,2.12-1.14,3.7-2.07,4.74-.93,1.04-2.09,1.56-3.5,1.56-.41,0-.73-.02-.97-.07l.25-1.29c.1.03.33.04.69.04.44,0,.82-.11,1.13-.34s.6-.62.87-1.17.52-1.33.74-2.31l3.15-13.93h-2.48l.22-1.01c.65-.04,1.13-.09,1.41-.16s.51-.17.67-.31.3-.31.41-.54c.11-.22.26-.62.43-1.21.52-1.76,1.32-3.08,2.4-3.96s2.45-1.33,4.12-1.33c.96,0,1.78.08,2.48.23l-.57,2.49h-1.29c-.14-.56-.31-.96-.53-1.2s-.54-.37-.97-.37c-.56,0-1.03.15-1.41.46-.39.31-.72.76-.99,1.37s-.53,1.42-.76,2.45l-.37,1.6h3.76l-.32,1.48h-3.78l-2.72,12.77Z"/><path class="o" d="m115.47,416.92c0,3.42.55,6.24,1.65,8.45s2.78,3.7,5.03,4.45l-.35,1.13c-2.86-.75-5.05-2.37-6.58-4.86-1.52-2.49-2.29-5.5-2.29-9.03s.76-6.54,2.29-9.03c1.53-2.49,3.72-4.12,6.57-4.87l.4,1.13c-2.29.75-3.98,2.22-5.08,4.4-1.1,2.18-1.65,4.92-1.65,8.22Z"/><path class="o" d="m135.33,411.05l1.35-.97.94.23-2.15,9.29c-.21.93-.32,1.65-.32,2.17,0,.39.06.67.19.85s.33.26.6.26c.29,0,.61-.12.94-.36s.8-.7,1.41-1.37l.83.82c-.88.94-1.63,1.6-2.25,2-.62.4-1.29.59-2.01.59-.61,0-1.09-.2-1.45-.6s-.54-.93-.54-1.6c0-.54.11-1.11.34-1.71l-.19-.06c-.94,1.37-1.83,2.37-2.67,3s-1.73.95-2.67.95c-1.07,0-1.91-.41-2.5-1.22s-.89-1.95-.89-3.41c0-1.68.33-3.29.99-4.84s1.56-2.77,2.72-3.66c1.15-.89,2.44-1.34,3.85-1.34.63,0,1.23.07,1.78.21.55.14,1.12.39,1.71.75Zm-1.29,4.37c.09-.4.15-.75.18-1.04s.04-.61.04-.95c0-.75-.16-1.3-.48-1.66s-.87-.53-1.64-.53c-1.01,0-1.91.41-2.71,1.22s-1.43,1.9-1.88,3.26c-.45,1.36-.67,2.72-.67,4.08,0,1.02.14,1.78.42,2.28.28.5.74.75,1.4.75s1.28-.28,1.9-.83,1.26-1.35,1.92-2.38c.66-1.03,1.13-2.22,1.4-3.57l.13-.63Z"/><path class="o" d="m146.74,416.92c0-3.3-.55-6.04-1.64-8.22-1.09-2.18-2.79-3.65-5.08-4.4l.4-1.13c2.85.75,5.04,2.38,6.57,4.87,1.53,2.5,2.29,5.51,2.29,9.03s-.76,6.55-2.29,9.03c-1.52,2.48-3.72,4.1-6.58,4.86l-.35-1.13c2.26-.75,3.93-2.24,5.03-4.45s1.65-5.03,1.65-8.45Z"/><path class="o" d="m67.5,463.38c-.45,2.12-1.14,3.7-2.07,4.74-.93,1.04-2.09,1.56-3.5,1.56-.41,0-.73-.02-.97-.07l.25-1.29c.1.03.33.04.69.04.44,0,.82-.11,1.13-.34s.6-.62.87-1.17.52-1.33.74-2.31l3.15-13.93h-2.48l.22-1.01c.65-.04,1.13-.09,1.41-.16s.51-.17.67-.31.3-.31.41-.54c.11-.22.26-.62.43-1.21.52-1.76,1.32-3.08,2.4-3.96s2.45-1.33,4.12-1.33c.96,0,1.78.08,2.48.23l-.57,2.49h-1.29c-.14-.56-.31-.96-.53-1.2s-.54-.37-.97-.37c-.56,0-1.03.15-1.41.46-.39.31-.72.76-.99,1.37s-.53,1.42-.76,2.45l-.37,1.6h3.76l-.32,1.48h-3.78l-2.72,12.77Z"/><path class="o" d="m82.86,455.72c0,3.42.55,6.24,1.65,8.45s2.78,3.7,5.03,4.45l-.35,1.13c-2.86-.75-5.05-2.37-6.58-4.86-1.52-2.49-2.29-5.5-2.29-9.03s.76-6.54,2.29-9.03c1.53-2.49,3.72-4.12,6.57-4.87l.4,1.13c-2.29.75-3.98,2.22-5.08,4.4-1.1,2.18-1.65,4.92-1.65,8.22Z"/><path class="o" d="m102.72,449.84l1.35-.97.94.23-2.15,9.29c-.21.93-.32,1.65-.32,2.17,0,.39.06.67.19.85s.33.26.6.26c.29,0,.61-.12.94-.36s.8-.7,1.41-1.37l.83.82c-.88.94-1.63,1.6-2.25,2-.62.4-1.29.59-2.01.59-.61,0-1.09-.2-1.45-.6s-.54-.93-.54-1.6c0-.54.11-1.11.34-1.71l-.19-.06c-.94,1.37-1.83,2.37-2.67,3s-1.73.95-2.67.95c-1.07,0-1.91-.41-2.5-1.22s-.89-1.95-.89-3.41c0-1.68.33-3.29.99-4.84s1.56-2.77,2.72-3.66c1.15-.89,2.44-1.34,3.85-1.34.63,0,1.23.07,1.78.21.55.14,1.12.39,1.71.75Zm-1.29,4.37c.09-.4.15-.75.18-1.04s.04-.61.04-.95c0-.75-.16-1.3-.48-1.66s-.87-.53-1.64-.53c-1.01,0-1.91.41-2.71,1.22s-1.43,1.9-1.88,3.26c-.45,1.36-.67,2.72-.67,4.08,0,1.02.14,1.78.42,2.28.28.5.74.75,1.4.75s1.28-.28,1.9-.83,1.26-1.35,1.92-2.38c.66-1.03,1.13-2.22,1.4-3.57l.13-.63Z"/><path class="o" d="m109.18,447.28v-2.78c1.13-.54,2.19-.94,3.18-1.2s1.94-.4,2.86-.4c1.1,0,2.07.17,2.9.51s1.46.83,1.9,1.47.66,1.4.66,2.29c0,.83-.17,1.56-.5,2.19-.33.63-.8,1.18-1.4,1.65s-1.38.93-2.34,1.38v.13c.6.11,1.17.29,1.72.55.55.26,1.04.59,1.47,1s.77.9,1.03,1.47c.26.57.39,1.22.39,1.96,0,1.13-.25,2.14-.74,3.02s-1.25,1.57-2.26,2.08-2.25.76-3.71.76c-.84,0-1.75-.1-2.72-.29-.97-.19-1.86-.44-2.67-.75v-3.11h1.76c.34,1.02.79,1.75,1.35,2.21s1.33.69,2.29.69c1.27,0,2.23-.35,2.88-1.04s.97-1.72.97-3.08c0-1.43-.43-2.51-1.29-3.27s-2.12-1.13-3.78-1.13h-1.32v-1.29c1.32-.08,2.43-.33,3.33-.76s1.57-.98,2.01-1.66.66-1.43.66-2.27c0-1.08-.29-1.92-.86-2.5s-1.42-.88-2.52-.88c-.92,0-1.67.25-2.24.75s-1,1.26-1.27,2.29h-1.76Z"/><path class="o" d="m130.74,455.72c0-3.3-.55-6.04-1.64-8.22-1.09-2.18-2.79-3.65-5.08-4.4l.4-1.13c2.85.75,5.04,2.38,6.57,4.87,1.53,2.5,2.29,5.51,2.29,9.03s-.76,6.55-2.29,9.03c-1.52,2.48-3.72,4.1-6.58,4.86l-.35-1.13c2.26-.75,3.93-2.24,5.03-4.45s1.65-5.03,1.65-8.45Z"/><path class="o" d="m83.5,502.17c-.45,2.12-1.14,3.7-2.07,4.74-.93,1.04-2.09,1.56-3.5,1.56-.41,0-.73-.02-.97-.07l.25-1.29c.1.03.33.04.69.04.44,0,.82-.11,1.13-.34s.6-.62.87-1.17.52-1.33.74-2.31l3.15-13.93h-2.48l.22-1.01c.65-.04,1.13-.09,1.41-.16s.51-.17.67-.31.3-.31.41-.54c.11-.22.26-.62.43-1.21.52-1.76,1.32-3.08,2.4-3.96s2.45-1.33,4.12-1.33c.96,0,1.78.08,2.48.23l-.57,2.49h-1.29c-.14-.56-.31-.96-.53-1.2s-.54-.37-.97-.37c-.56,0-1.03.15-1.41.46-.39.31-.72.76-.99,1.37s-.53,1.42-.76,2.45l-.37,1.6h3.76l-.32,1.48h-3.78l-2.72,12.77Z"/><path class="o" d="m98.86,494.51c0,3.42.55,6.24,1.65,8.45s2.78,3.7,5.03,4.45l-.35,1.13c-2.86-.75-5.05-2.37-6.58-4.86-1.52-2.49-2.29-5.5-2.29-9.03s.76-6.54,2.29-9.03c1.53-2.49,3.72-4.12,6.57-4.87l.4,1.13c-2.29.75-3.98,2.22-5.08,4.4-1.1,2.18-1.65,4.92-1.65,8.22Z"/><path class="o" d="m118.72,488.64l1.35-.97.94.23-2.15,9.29c-.21.93-.32,1.65-.32,2.17,0,.39.06.67.19.85s.33.26.6.26c.29,0,.61-.12.94-.36s.8-.7,1.41-1.37l.83.82c-.88.94-1.63,1.6-2.25,2-.62.4-1.29.59-2.01.59-.61,0-1.09-.2-1.45-.6s-.54-.93-.54-1.6c0-.54.11-1.11.34-1.71l-.19-.06c-.94,1.37-1.83,2.37-2.67,3s-1.73.95-2.67.95c-1.07,0-1.91-.41-2.5-1.22s-.89-1.95-.89-3.41c0-1.68.33-3.29.99-4.84s1.56-2.77,2.72-3.66c1.15-.89,2.44-1.34,3.85-1.34.63,0,1.23.07,1.78.21.55.14,1.12.39,1.71.75Zm-1.29,4.37c.09-.4.15-.75.18-1.04s.04-.61.04-.95c0-.75-.16-1.3-.48-1.66s-.87-.53-1.64-.53c-1.01,0-1.91.41-2.71,1.22s-1.43,1.9-1.88,3.26c-.45,1.36-.67,2.72-.67,4.08,0,1.02.14,1.78.42,2.28.28.5.74.75,1.4.75s1.28-.28,1.9-.83,1.26-1.35,1.92-2.38c.66-1.03,1.13-2.22,1.4-3.57l.13-.63Z"/><path class="o" d="m133.03,498.1c0,.57.03.99.1,1.28s.18.52.34.7.39.32.7.42c.3.1.68.18,1.14.23.46.05,1.06.09,1.82.11v1.07h-10.83v-1.07c1.08-.05,1.86-.11,2.32-.2.46-.08.82-.21,1.06-.37s.42-.4.53-.7.17-.8.17-1.48v-11.88c0-.39-.07-.68-.21-.86-.14-.18-.34-.27-.6-.27-.31,0-.76.16-1.33.48s-1.29.77-2.14,1.33l-.64-1.13,6.86-4.09h.81c-.06.94-.09,2.24-.09,3.9v12.51Z"/><path class="o" d="m146.74,494.51c0-3.3-.55-6.04-1.64-8.22-1.09-2.18-2.79-3.65-5.08-4.4l.4-1.13c2.85.75,5.04,2.38,6.57,4.87,1.53,2.5,2.29,5.51,2.29,9.03s-.76,6.55-2.29,9.03c-1.52,2.48-3.72,4.1-6.58,4.86l-.35-1.13c2.26-.75,3.93-2.24,5.03-4.45s1.65-5.03,1.65-8.45Z"/><path class="o" d="m658.7,904.77l1.35-.97.94.23-2.15,9.29c-.21.93-.32,1.65-.32,2.17,0,.39.06.67.19.85s.33.26.6.26c.29,0,.61-.12.94-.36s.8-.7,1.41-1.37l.83.82c-.88.94-1.63,1.6-2.25,2-.62.4-1.29.59-2.01.59-.61,0-1.09-.2-1.45-.6s-.54-.93-.54-1.6c0-.54.11-1.11.34-1.71l-.19-.06c-.94,1.37-1.83,2.37-2.67,3s-1.73.95-2.67.95c-1.07,0-1.91-.41-2.5-1.22s-.89-1.95-.89-3.41c0-1.68.33-3.29.99-4.84s1.56-2.77,2.72-3.66c1.15-.89,2.44-1.34,3.85-1.34.63,0,1.23.07,1.78.21.55.14,1.12.39,1.71.75Zm-1.29,4.37c.09-.4.15-.75.18-1.04s.04-.61.04-.95c0-.75-.16-1.3-.48-1.66s-.87-.53-1.64-.53c-1.01,0-1.91.41-2.71,1.22s-1.43,1.9-1.88,3.26c-.45,1.36-.67,2.72-.67,4.08,0,1.02.14,1.78.42,2.28.28.5.74.75,1.4.75s1.28-.28,1.9-.83,1.26-1.35,1.92-2.38c.66-1.03,1.12-2.22,1.4-3.57l.13-.63Z"/><path class="o" d="m673.12,915.71c.48,0,.86-.03,1.16-.09s.53-.16.7-.29.32-.31.42-.54c.1-.22.23-.56.39-1.02h1.25l-.25,4.28h-12.06v-.7c.42-1.03.99-2.08,1.7-3.15s1.72-2.34,3.03-3.79c1.13-1.25,1.95-2.2,2.45-2.84.55-.7.96-1.31,1.22-1.82.27-.51.46-1,.58-1.45.12-.46.18-.91.18-1.37,0-.73-.12-1.38-.35-1.94s-.59-1-1.08-1.33-1.09-.48-1.82-.48c-1.83,0-3.06,1.02-3.69,3.05h-1.77v-2.81c1.18-.56,2.29-.96,3.32-1.21,1.03-.25,1.96-.37,2.78-.37,1.82,0,3.19.4,4.12,1.19s1.39,1.95,1.39,3.46c0,.52-.05.99-.15,1.43s-.26.86-.48,1.29c-.22.42-.52.88-.89,1.37s-.78.98-1.23,1.49c-.45.5-1.23,1.34-2.33,2.51-1.86,1.96-3.22,3.68-4.09,5.14h5.52Z"/><path class="o" d="m697.15,916.77l1.35-.97.94.23-2.15,9.29c-.21.93-.32,1.65-.32,2.17,0,.39.06.67.19.85s.33.26.6.26c.29,0,.61-.12.94-.36s.8-.7,1.41-1.37l.83.82c-.88.94-1.63,1.6-2.25,2-.62.4-1.29.59-2.01.59-.61,0-1.09-.2-1.45-.6s-.54-.93-.54-1.6c0-.54.11-1.11.34-1.71l-.19-.06c-.94,1.37-1.83,2.37-2.67,3s-1.73.95-2.67.95c-1.07,0-1.91-.41-2.5-1.22s-.89-1.95-.89-3.41c0-1.68.33-3.29.99-4.84s1.56-2.77,2.72-3.66c1.15-.89,2.44-1.34,3.85-1.34.63,0,1.23.07,1.78.21.55.14,1.12.39,1.71.75Zm-1.29,4.37c.09-.4.15-.75.18-1.04s.04-.61.04-.95c0-.75-.16-1.3-.48-1.66s-.87-.53-1.64-.53c-1.01,0-1.91.41-2.71,1.22s-1.43,1.9-1.88,3.26c-.45,1.36-.67,2.72-.67,4.08,0,1.02.14,1.78.42,2.28.28.5.74.75,1.4.75s1.28-.28,1.9-.83,1.26-1.35,1.92-2.38c.66-1.03,1.12-2.22,1.4-3.57l.13-.63Z"/><path class="o" d="m708.84,929.34c.61-.16,1.01-.33,1.22-.52.21-.19.34-.46.4-.81s.09-.89.09-1.61v-2.4h-8.14v-1.1l8.57-12.93h2.09v12.61h.31c.57,0,.97-.04,1.22-.12s.45-.23.61-.44.31-.55.45-1.03h1.11l-.18,3.02h-3.52v2.4c0,.65.02,1.13.07,1.44s.12.54.22.72.25.32.45.44.52.23.97.35v.72h-5.95v-.72Zm-4.01-6.77h5.73v-3.65c0-.92.01-1.95.04-3.08.03-1.14.06-1.99.1-2.57h-.15l-5.73,9.1v.21Z"/><path class="o" d="m743.9,904.77l1.35-.97.94.23-2.15,9.29c-.21.93-.32,1.65-.32,2.17,0,.39.06.67.19.85s.33.26.6.26c.29,0,.61-.12.94-.36s.8-.7,1.41-1.37l.83.82c-.88.94-1.63,1.6-2.25,2-.62.4-1.29.59-2.01.59-.61,0-1.09-.2-1.45-.6s-.54-.93-.54-1.6c0-.54.11-1.11.34-1.71l-.19-.06c-.94,1.37-1.83,2.37-2.67,3s-1.73.95-2.67.95c-1.07,0-1.91-.41-2.5-1.22s-.89-1.95-.89-3.41c0-1.68.33-3.29.99-4.84s1.57-2.77,2.72-3.66c1.15-.89,2.44-1.34,3.85-1.34.63,0,1.23.07,1.78.21.55.14,1.12.39,1.71.75Zm-1.29,4.37c.09-.4.15-.75.18-1.04s.04-.61.04-.95c0-.75-.16-1.3-.48-1.66s-.87-.53-1.64-.53c-1.01,0-1.91.41-2.71,1.22s-1.43,1.9-1.88,3.26c-.45,1.36-.67,2.72-.67,4.08,0,1.02.14,1.78.42,2.28.28.5.75.75,1.4.75s1.28-.28,1.9-.83,1.26-1.35,1.92-2.38c.66-1.03,1.13-2.22,1.4-3.57l.13-.63Z"/><path class="o" d="m774.04,916.77l1.35-.97.94.23-2.15,9.29c-.21.93-.32,1.65-.32,2.17,0,.39.06.67.19.85s.33.26.6.26c.29,0,.61-.12.94-.36s.8-.7,1.41-1.37l.83.82c-.88.94-1.63,1.6-2.25,2-.62.4-1.29.59-2.01.59-.61,0-1.09-.2-1.45-.6s-.54-.93-.54-1.6c0-.54.11-1.11.34-1.71l-.19-.06c-.94,1.37-1.83,2.37-2.67,3s-1.73.95-2.67.95c-1.07,0-1.91-.41-2.5-1.22s-.89-1.95-.89-3.41c0-1.68.33-3.29.99-4.84s1.57-2.77,2.72-3.66c1.15-.89,2.44-1.34,3.85-1.34.63,0,1.23.07,1.78.21.55.14,1.12.39,1.71.75Zm-1.29,4.37c.09-.4.15-.75.18-1.04s.04-.61.04-.95c0-.75-.16-1.3-.48-1.66s-.87-.53-1.64-.53c-1.01,0-1.91.41-2.71,1.22s-1.43,1.9-1.88,3.26c-.45,1.36-.67,2.72-.67,4.08,0,1.02.14,1.78.42,2.28.28.5.75.75,1.4.75s1.28-.28,1.9-.83,1.26-1.35,1.92-2.38c.66-1.03,1.13-2.22,1.4-3.57l.13-.63Z"/><path class="o" d="m780.5,914.2v-2.78c1.13-.54,2.19-.94,3.18-1.2s1.94-.4,2.86-.4c1.1,0,2.07.17,2.9.51s1.46.83,1.9,1.47.66,1.4.66,2.29c0,.83-.17,1.56-.5,2.19-.33.63-.8,1.18-1.4,1.65s-1.38.93-2.34,1.38v.13c.6.11,1.17.29,1.72.55.55.26,1.04.59,1.47,1s.77.9,1.03,1.47c.26.57.39,1.22.39,1.96,0,1.13-.25,2.14-.74,3.02s-1.25,1.57-2.26,2.08-2.25.76-3.71.76c-.84,0-1.75-.1-2.72-.29-.97-.19-1.86-.44-2.67-.75v-3.11h1.76c.34,1.02.79,1.75,1.35,2.21s1.33.69,2.29.69c1.27,0,2.23-.35,2.88-1.04s.97-1.72.97-3.08c0-1.43-.43-2.51-1.29-3.27s-2.12-1.13-3.78-1.13h-1.32v-1.29c1.32-.08,2.43-.33,3.33-.76s1.58-.98,2.01-1.66.66-1.43.66-2.27c0-1.08-.29-1.92-.86-2.5s-1.42-.88-2.52-.88c-.92,0-1.67.25-2.24.75s-1,1.26-1.27,2.29h-1.76Z"/><path class="o" d="m812.49,904.77l1.35-.97.94.23-2.15,9.29c-.21.93-.32,1.65-.32,2.17,0,.39.06.67.19.85s.33.26.6.26c.29,0,.61-.12.94-.36s.8-.7,1.41-1.37l.83.82c-.88.94-1.63,1.6-2.25,2-.62.4-1.29.59-2.01.59-.61,0-1.09-.2-1.45-.6s-.54-.93-.54-1.6c0-.54.11-1.11.34-1.71l-.19-.06c-.94,1.37-1.83,2.37-2.67,3s-1.73.95-2.67.95c-1.07,0-1.91-.41-2.5-1.22s-.89-1.95-.89-3.41c0-1.68.33-3.29.99-4.84s1.57-2.77,2.72-3.66c1.15-.89,2.44-1.34,3.85-1.34.63,0,1.23.07,1.78.21.55.14,1.12.39,1.71.75Zm-1.29,4.37c.09-.4.15-.75.18-1.04s.04-.61.04-.95c0-.75-.16-1.3-.48-1.66s-.87-.53-1.64-.53c-1.01,0-1.91.41-2.71,1.22s-1.43,1.9-1.88,3.26c-.45,1.36-.67,2.72-.67,4.08,0,1.02.14,1.78.42,2.28.28.5.75.75,1.4.75s1.28-.28,1.9-.83,1.26-1.35,1.92-2.38c.66-1.03,1.13-2.22,1.4-3.57l.13-.63Z"/><path class="o" d="m826.8,914.23c0,.57.03.99.09,1.28s.18.52.34.7.39.32.7.42c.3.1.68.18,1.14.23.46.05,1.06.09,1.82.11v1.07h-10.83v-1.07c1.08-.05,1.86-.11,2.32-.2.46-.08.82-.21,1.06-.37s.42-.4.53-.7.17-.8.17-1.48v-11.88c0-.39-.07-.68-.21-.86-.14-.18-.34-.27-.6-.27-.31,0-.76.16-1.33.48s-1.29.77-2.14,1.33l-.64-1.13,6.86-4.09h.81c-.06.94-.09,2.24-.09,3.9v12.51Z"/></g></svg>