<?xml version="1.0" encoding="UTF-8"?><svg xmlns="http://www.w3.org/2000/svg" viewBox="0 0 540 478"><defs><style>.uuid-eba01a92-1772-4a03-8942-54dcf001d3ef{stroke:#fff;stroke-width:.25px;}.uuid-eba01a92-1772-4a03-8942-54dcf001d3ef,.uuid-a60d28b4-3af2-4fb6-b372-df7d05790536{stroke-miterlimit:10;}.uuid-eba01a92-1772-4a03-8942-54dcf001d3ef,.uuid-57bffa35-062c-42ca-bc81-3729d8157b16{fill:#fff;}.uuid-c7685768-6fc7-4898-b717-e55ffa6a98ee{fill:#7aa0c4;}.uuid-c7685768-6fc7-4898-b717-e55ffa6a98ee,.uuid-fc8f4c57-6a4d-45f0-97ac-fc38bd4e3a64,.uuid-ce742265-415f-40f2-b780-3d89b1cd5407,.uuid-57bffa35-062c-42ca-bc81-3729d8157b16,.uuid-579641b6-6a55-473b-8e25-80d10119415b,.uuid-169d01d0-1754-4038-a3b7-5e9e48177949{stroke-width:0px;}.uuid-a60d28b4-3af2-4fb6-b372-df7d05790536{fill:none;stroke:#00699b;stroke-linecap:round;stroke-width:3px;}.uuid-fc8f4c57-6a4d-45f0-97ac-fc38bd4e3a64{fill:#1e6093;}.uuid-ce742265-415f-40f2-b780-3d89b1cd5407{fill:#bfd9e6;}.uuid-579641b6-6a55-473b-8e25-80d10119415b{fill:#00699b;}.uuid-169d01d0-1754-4038-a3b7-5e9e48177949{fill:#002949;}</style></defs><g id="uuid-76a0b69c-a249-4abe-ace8-8b29e3d7a449"><rect class="uuid-169d01d0-1754-4038-a3b7-5e9e48177949" x="8.17" y="9.17" width="114.39" height="33.35"/><rect class="uuid-169d01d0-1754-4038-a3b7-5e9e48177949" x="126.43" y="9.17" width="114.39" height="33.35"/><rect class="uuid-ce742265-415f-40f2-b780-3d89b1cd5407" x="8.17" y="46.04" width="114.39" height="29.35"/><rect class="uuid-fc8f4c57-6a4d-45f0-97ac-fc38bd4e3a64" x="295.39" y="122.74" width="196.43" height="40.3"/><rect class="uuid-fc8f4c57-6a4d-45f0-97ac-fc38bd4e3a64" x="335.39" y="352.83" width="196.43" height="40.3"/><rect class="uuid-ce742265-415f-40f2-b780-3d89b1cd5407" x="126.43" y="46.04" width="114.39" height="29.35"/><rect class="uuid-ce742265-415f-40f2-b780-3d89b1cd5407" x="8.17" y="78.91" width="114.39" height="29.35"/><rect class="uuid-ce742265-415f-40f2-b780-3d89b1cd5407" x="126.43" y="78.91" width="114.39" height="29.35"/><rect class="uuid-ce742265-415f-40f2-b780-3d89b1cd5407" x="8.17" y="111.78" width="114.39" height="29.35"/><rect class="uuid-ce742265-415f-40f2-b780-3d89b1cd5407" x="126.43" y="111.78" width="114.39" height="29.35"/><rect class="uuid-ce742265-415f-40f2-b780-3d89b1cd5407" x="8.17" y="144.65" width="114.39" height="29.35"/><rect class="uuid-ce742265-415f-40f2-b780-3d89b1cd5407" x="126.43" y="144.65" width="114.39" height="29.35"/><rect class="uuid-ce742265-415f-40f2-b780-3d89b1cd5407" x="8.17" y="177.52" width="114.39" height="29.35"/><rect class="uuid-ce742265-415f-40f2-b780-3d89b1cd5407" x="126.43" y="177.52" width="114.39" height="29.35"/><rect class="uuid-ce742265-415f-40f2-b780-3d89b1cd5407" x="8.17" y="210.39" width="114.39" height="29.35"/><rect class="uuid-ce742265-415f-40f2-b780-3d89b1cd5407" x="126.43" y="210.39" width="114.39" height="29.35"/><rect class="uuid-c7685768-6fc7-4898-b717-e55ffa6a98ee" x="8.17" y="243.26" width="114.39" height="29.35"/><rect class="uuid-c7685768-6fc7-4898-b717-e55ffa6a98ee" x="126.43" y="243.26" width="114.39" height="29.35"/><rect class="uuid-ce742265-415f-40f2-b780-3d89b1cd5407" x="8.17" y="276.13" width="114.39" height="29.35"/><rect class="uuid-ce742265-415f-40f2-b780-3d89b1cd5407" x="126.43" y="276.13" width="114.39" height="29.35"/><rect class="uuid-ce742265-415f-40f2-b780-3d89b1cd5407" x="8.17" y="309" width="114.39" height="29.35"/><rect class="uuid-ce742265-415f-40f2-b780-3d89b1cd5407" x="126.43" y="309" width="114.39" height="29.35"/><rect class="uuid-ce742265-415f-40f2-b780-3d89b1cd5407" x="8.17" y="341.87" width="114.39" height="29.35"/><rect class="uuid-ce742265-415f-40f2-b780-3d89b1cd5407" x="126.43" y="341.87" width="114.39" height="29.35"/><rect class="uuid-ce742265-415f-40f2-b780-3d89b1cd5407" x="8.17" y="374.74" width="114.39" height="29.35"/><rect class="uuid-ce742265-415f-40f2-b780-3d89b1cd5407" x="126.43" y="374.74" width="114.39" height="29.35"/><rect class="uuid-ce742265-415f-40f2-b780-3d89b1cd5407" x="8.17" y="407.61" width="114.39" height="29.35"/><rect class="uuid-ce742265-415f-40f2-b780-3d89b1cd5407" x="126.43" y="407.61" width="114.39" height="29.35"/><rect class="uuid-ce742265-415f-40f2-b780-3d89b1cd5407" x="8.17" y="440.48" width="114.39" height="29.35"/><rect class="uuid-ce742265-415f-40f2-b780-3d89b1cd5407" x="126.43" y="440.48" width="114.39" height="29.35"/></g><g id="uuid-69481a68-bc09-452d-a56d-3bdb6060f358"><path class="uuid-eba01a92-1772-4a03-8942-54dcf001d3ef" d="m165.59,32.16c-.36,1.7-.91,2.96-1.65,3.79s-1.68,1.25-2.8,1.25c-.33,0-.59-.02-.77-.06l.2-1.03c.08.02.26.04.55.04.35,0,.65-.09.9-.27s.48-.49.7-.94.41-1.06.59-1.85l2.52-11.14h-1.98l.18-.81c.52-.03.9-.07,1.13-.13s.41-.14.54-.25.24-.25.33-.43.21-.5.35-.97c.41-1.41,1.05-2.46,1.92-3.17s1.96-1.06,3.3-1.06c.77,0,1.43.06,1.98.19l-.46,1.99h-1.03c-.11-.45-.25-.77-.43-.96s-.44-.29-.78-.29c-.45,0-.82.12-1.13.37s-.57.61-.79,1.1-.42,1.14-.61,1.96l-.29,1.28h3.01l-.26,1.18h-3.02l-2.18,10.22Z"/><path class="uuid-eba01a92-1772-4a03-8942-54dcf001d3ef" d="m178.05,26.03c0,2.62.46,4.83,1.38,6.63s2.29,2.95,4.11,3.44l-.19.96c-2.52-.49-4.4-1.72-5.67-3.7s-1.89-4.38-1.89-7.21c0-3.04.63-5.54,1.89-7.52s3.15-3.13,5.67-3.49l.19.96c-1.82.35-3.19,1.43-4.11,3.23s-1.38,4.03-1.38,6.7Z"/><path class="uuid-eba01a92-1772-4a03-8942-54dcf001d3ef" d="m189.52,26.66c-.12-.62-.24-1.21-.36-1.78s-.25-1.1-.39-1.59-.24-.81-.33-.97-.18-.26-.28-.32-.22-.09-.37-.09c-.16,0-.31.04-.45.11s-.28.2-.43.39-.36.47-.62.86l-.76-.5c.49-.74.96-1.3,1.42-1.66s.99-.55,1.61-.55c.24,0,.46.03.64.08s.35.14.49.25.27.26.38.44.21.42.32.73.2.69.29,1.15.17.93.24,1.42h.12c.75-1.05,1.32-1.83,1.71-2.31s.71-.85.98-1.09.52-.41.77-.5.57-.15.98-.15c.37,0,.67.05.9.14l-.47,2.12h-.82c-.05-.33-.18-.49-.41-.49-.07,0-.14.01-.22.04s-.17.07-.29.15-.28.23-.5.46-.46.5-.74.83-.55.67-.84,1.03l-.8,1c.14.75.27,1.4.4,1.95s.24,1,.33,1.37.18.65.26.86.15.37.24.47.17.18.26.22.19.06.31.06c.21,0,.42-.08.62-.25s.49-.54.86-1.11l.76.5c-.55.81-1.04,1.38-1.48,1.72s-.97.5-1.58.5c-.34,0-.62-.06-.86-.18s-.44-.31-.61-.58-.32-.68-.46-1.24c-.24-1-.39-1.77-.45-2.3h-.12c-.83,1.16-1.44,2-1.85,2.51s-.73.88-1,1.12-.52.41-.76.51-.57.15-.98.15c-.37,0-.67-.05-.9-.14l.47-2.12h.82c.05.33.18.49.41.49.11,0,.22-.03.35-.09s.29-.2.52-.42.54-.57.94-1.05.98-1.19,1.73-2.14Z"/><path class="uuid-eba01a92-1772-4a03-8942-54dcf001d3ef" d="m202.59,26.03c0-2.66-.46-4.9-1.38-6.7s-2.29-2.88-4.11-3.23l.19-.96c2.52.35,4.4,1.51,5.67,3.49s1.89,4.48,1.89,7.52c0,2.84-.63,5.24-1.89,7.21s-3.15,3.21-5.67,3.7l-.19-.96c1.82-.49,3.19-1.64,4.11-3.44s1.38-4.01,1.38-6.63Z"/><path class="uuid-eba01a92-1772-4a03-8942-54dcf001d3ef" d="m64.57,26.66c-.12-.62-.24-1.21-.36-1.78s-.25-1.1-.39-1.59-.24-.81-.33-.97-.18-.26-.28-.32-.22-.09-.37-.09c-.16,0-.31.04-.45.11s-.28.2-.43.39-.36.47-.62.86l-.76-.5c.49-.74.96-1.3,1.42-1.66s.99-.55,1.61-.55c.24,0,.46.03.64.08s.35.14.49.25.27.26.38.44.21.42.32.73.2.69.29,1.15.17.93.24,1.42h.12c.75-1.05,1.32-1.83,1.71-2.31s.71-.85.98-1.09.52-.41.77-.5.57-.15.98-.15c.37,0,.67.05.9.14l-.47,2.12h-.82c-.05-.33-.18-.49-.41-.49-.07,0-.14.01-.22.04s-.17.07-.29.15-.28.23-.5.46-.46.5-.74.83-.55.67-.84,1.03l-.8,1c.14.75.27,1.4.4,1.95s.24,1,.33,1.37.18.65.26.86.15.37.24.47.17.18.26.22.19.06.31.06c.21,0,.42-.08.62-.25s.49-.54.86-1.11l.76.5c-.55.81-1.04,1.38-1.48,1.72s-.97.5-1.58.5c-.34,0-.62-.06-.86-.18s-.44-.31-.61-.58-.32-.68-.46-1.24c-.24-1-.39-1.77-.45-2.3h-.12c-.83,1.16-1.44,2-1.85,2.51s-.73.88-1,1.12-.52.41-.76.51-.57.15-.98.15c-.37,0-.67-.05-.9-.14l.47-2.12h.82c.05.33.18.49.41.49.11,0,.22-.03.35-.09s.29-.2.52-.42.54-.57.94-1.05.98-1.19,1.73-2.14Z"/><path class="uuid-169d01d0-1754-4038-a3b7-5e9e48177949" d="m21.89,56.02v9.81h-1.39v-8.59h-2.21v-1.22h3.6Z"/><path class="uuid-57bffa35-062c-42ca-bc81-3729d8157b16" d="m322.15,137.63l-4.3,9.81h-1.39l-4.31-9.81h1.51l3.53,8.05,3.56-8.05h1.4Z"/><path class="uuid-57bffa35-062c-42ca-bc81-3729d8157b16" d="m328.52,142.95v4.48h-1.27v-.98c-.45.67-1.27,1.06-2.44,1.06-1.68,0-2.75-.9-2.75-2.19,0-1.19.77-2.17,2.98-2.17h2.13v-.27c0-1.13-.66-1.79-1.99-1.79-.88,0-1.78.31-2.35.8l-.56-1.01c.77-.62,1.88-.95,3.07-.95,2.03,0,3.18.98,3.18,3.01Zm-1.34,2.21v-1.04h-2.07c-1.33,0-1.71.52-1.71,1.15,0,.74.62,1.2,1.64,1.2s1.81-.46,2.14-1.32Z"/><path class="uuid-57bffa35-062c-42ca-bc81-3729d8157b16" d="m331.01,137.04h1.34v10.39h-1.34v-10.39Z"/><path class="uuid-57bffa35-062c-42ca-bc81-3729d8157b16" d="m334.23,143.72c0-2.21,1.64-3.78,3.87-3.78s3.85,1.57,3.85,3.78-1.62,3.8-3.85,3.8-3.87-1.58-3.87-3.8Zm6.36,0c0-1.58-1.06-2.61-2.49-2.61s-2.51,1.02-2.51,2.61,1.08,2.62,2.51,2.62,2.49-1.04,2.49-2.62Z"/><path class="uuid-57bffa35-062c-42ca-bc81-3729d8157b16" d="m347.79,139.94v1.3c-.11-.01-.21-.01-.31-.01-1.44,0-2.34.88-2.34,2.51v3.7h-1.34v-7.42h1.29v1.25c.48-.87,1.4-1.32,2.7-1.32Z"/><path class="uuid-57bffa35-062c-42ca-bc81-3729d8157b16" d="m356.05,144.17h-6.02c.17,1.3,1.22,2.17,2.69,2.17.87,0,1.6-.29,2.14-.9l.74.87c-.67.78-1.69,1.2-2.93,1.2-2.4,0-3.99-1.58-3.99-3.8s1.58-3.78,3.73-3.78,3.67,1.54,3.67,3.82c0,.11-.01.28-.03.41Zm-6.02-.97h4.76c-.14-1.25-1.08-2.13-2.38-2.13s-2.24.87-2.38,2.13Z"/><path class="uuid-57bffa35-062c-42ca-bc81-3729d8157b16" d="m357,146.65l.56-1.06c.63.45,1.64.77,2.61.77,1.25,0,1.76-.38,1.76-1.01,0-1.67-4.69-.22-4.69-3.18,0-1.33,1.19-2.23,3.1-2.23.97,0,2.06.25,2.7.67l-.57,1.06c-.67-.43-1.42-.59-2.14-.59-1.18,0-1.75.43-1.75,1.02,0,1.75,4.71.32,4.71,3.21,0,1.34-1.23,2.2-3.21,2.2-1.23,0-2.45-.38-3.07-.87Z"/><path class="uuid-57bffa35-062c-42ca-bc81-3729d8157b16" d="m381.05,143.16v4.27h-1.34v-4.12c0-1.46-.7-2.17-1.92-2.17-1.34,0-2.23.85-2.23,2.47v3.82h-1.34v-4.12c0-1.46-.7-2.17-1.92-2.17-1.34,0-2.23.85-2.23,2.47v3.82h-1.34v-7.42h1.29v1.11c.53-.76,1.44-1.18,2.56-1.18s2.09.45,2.58,1.37c.56-.84,1.6-1.37,2.86-1.37,1.81,0,3.04,1.04,3.04,3.22Z"/><path class="uuid-57bffa35-062c-42ca-bc81-3729d8157b16" d="m390.24,144.17h-6.02c.17,1.3,1.22,2.17,2.69,2.17.87,0,1.6-.29,2.14-.9l.74.87c-.67.78-1.69,1.2-2.93,1.2-2.4,0-3.99-1.58-3.99-3.8s1.58-3.78,3.73-3.78,3.67,1.54,3.67,3.82c0,.11-.01.28-.03.41Zm-6.02-.97h4.76c-.14-1.25-1.08-2.13-2.38-2.13s-2.24.87-2.38,2.13Z"/><path class="uuid-57bffa35-062c-42ca-bc81-3729d8157b16" d="m399.17,143.16v4.27h-1.34v-4.12c0-1.46-.73-2.17-2-2.17-1.43,0-2.35.85-2.35,2.47v3.82h-1.34v-7.42h1.29v1.12c.55-.76,1.5-1.19,2.68-1.19,1.81,0,3.08,1.04,3.08,3.22Z"/><path class="uuid-57bffa35-062c-42ca-bc81-3729d8157b16" d="m401.02,143.72c0-2.21,1.64-3.78,3.87-3.78s3.85,1.57,3.85,3.78-1.62,3.8-3.85,3.8-3.87-1.58-3.87-3.8Zm6.36,0c0-1.58-1.06-2.61-2.49-2.61s-2.51,1.02-2.51,2.61,1.08,2.62,2.51,2.62,2.49-1.04,2.49-2.62Z"/><path class="uuid-57bffa35-062c-42ca-bc81-3729d8157b16" d="m414.59,139.94v1.3c-.11-.01-.21-.01-.31-.01-1.44,0-2.34.88-2.34,2.51v3.7h-1.34v-7.42h1.29v1.25c.48-.87,1.4-1.32,2.7-1.32Z"/><path class="uuid-57bffa35-062c-42ca-bc81-3729d8157b16" d="m422.85,144.17h-6.02c.17,1.3,1.22,2.17,2.69,2.17.87,0,1.6-.29,2.14-.9l.74.87c-.67.78-1.7,1.2-2.93,1.2-2.4,0-3.99-1.58-3.99-3.8s1.58-3.78,3.73-3.78,3.67,1.54,3.67,3.82c0,.11-.01.28-.03.41Zm-6.02-.97h4.76c-.14-1.25-1.08-2.13-2.38-2.13s-2.24.87-2.38,2.13Z"/><path class="uuid-57bffa35-062c-42ca-bc81-3729d8157b16" d="m423.8,146.65l.56-1.06c.63.45,1.64.77,2.61.77,1.25,0,1.76-.38,1.76-1.01,0-1.67-4.69-.22-4.69-3.18,0-1.33,1.19-2.23,3.1-2.23.97,0,2.06.25,2.7.67l-.57,1.06c-.67-.43-1.42-.59-2.14-.59-1.18,0-1.75.43-1.75,1.02,0,1.75,4.71.32,4.71,3.21,0,1.34-1.23,2.2-3.21,2.2-1.23,0-2.45-.38-3.07-.87Z"/><path class="uuid-57bffa35-062c-42ca-bc81-3729d8157b16" d="m442.52,140.01v10.14h-1.34v-3.84c-.62.8-1.54,1.2-2.59,1.2-2.17,0-3.75-1.51-3.75-3.8s1.58-3.78,3.75-3.78c1.09,0,2.04.42,2.65,1.25v-1.18h1.29Zm-1.33,3.71c0-1.57-1.08-2.61-2.49-2.61s-2.51,1.04-2.51,2.61,1.08,2.62,2.51,2.62,2.49-1.04,2.49-2.62Z"/><path class="uuid-57bffa35-062c-42ca-bc81-3729d8157b16" d="m451.98,140.01v7.42h-1.27v-1.12c-.55.77-1.47,1.2-2.52,1.2-1.92,0-3.19-1.05-3.19-3.24v-4.27h1.34v4.12c0,1.46.73,2.19,2,2.19,1.4,0,2.3-.87,2.3-2.47v-3.84h1.34Z"/><path class="uuid-57bffa35-062c-42ca-bc81-3729d8157b16" d="m461.22,144.17h-6.02c.17,1.3,1.22,2.17,2.69,2.17.87,0,1.6-.29,2.14-.9l.74.87c-.67.78-1.69,1.2-2.93,1.2-2.4,0-3.99-1.58-3.99-3.8s1.58-3.78,3.73-3.78,3.67,1.54,3.67,3.82c0,.11-.01.28-.03.41Zm-6.02-.97h4.76c-.14-1.25-1.08-2.13-2.38-2.13s-2.24.87-2.38,2.13Z"/><path class="uuid-eba01a92-1772-4a03-8942-54dcf001d3ef" d="m472.73,139.91l.76-.55.53.13-1.22,5.26c-.12.53-.18.94-.18,1.23,0,.22.04.38.11.48.07.1.19.15.34.15.17,0,.34-.07.53-.2.19-.14.45-.39.8-.78l.47.46c-.5.53-.92.91-1.27,1.13-.35.22-.73.34-1.14.34-.34,0-.62-.11-.82-.34-.21-.23-.31-.53-.31-.9,0-.3.06-.63.19-.97l-.11-.03c-.53.77-1.03,1.34-1.51,1.7-.48.36-.98.54-1.51.54-.61,0-1.08-.23-1.42-.69s-.5-1.1-.5-1.93c0-.95.19-1.87.56-2.74.37-.88.89-1.57,1.54-2.08.65-.51,1.38-.76,2.18-.76.36,0,.7.04,1.01.12.31.08.64.22.97.43Zm-.73,2.47c.05-.23.08-.42.1-.59s.02-.35.02-.54c0-.43-.09-.74-.27-.94s-.49-.3-.93-.3c-.57,0-1.08.23-1.54.69-.45.46-.81,1.07-1.06,1.85-.25.77-.38,1.54-.38,2.31,0,.58.08,1.01.24,1.29.16.28.42.43.79.43s.72-.16,1.08-.47.71-.77,1.09-1.35c.37-.58.64-1.26.79-2.02l.08-.36Z"/><path class="uuid-57bffa35-062c-42ca-bc81-3729d8157b16" d="m363.32,367.76l-4.3,9.81h-1.39l-4.31-9.81h1.51l3.53,8.05,3.56-8.05h1.4Z"/><path class="uuid-57bffa35-062c-42ca-bc81-3729d8157b16" d="m369.68,373.08v4.48h-1.27v-.98c-.45.67-1.27,1.06-2.44,1.06-1.68,0-2.75-.9-2.75-2.19,0-1.19.77-2.17,2.98-2.17h2.13v-.27c0-1.13-.66-1.79-1.99-1.79-.88,0-1.78.31-2.35.8l-.56-1.01c.77-.62,1.88-.95,3.07-.95,2.03,0,3.18.98,3.18,3.01Zm-1.34,2.21v-1.04h-2.07c-1.33,0-1.71.52-1.71,1.15,0,.74.62,1.2,1.64,1.2s1.81-.46,2.14-1.32Z"/><path class="uuid-57bffa35-062c-42ca-bc81-3729d8157b16" d="m372.17,367.17h1.34v10.39h-1.34v-10.39Z"/><path class="uuid-57bffa35-062c-42ca-bc81-3729d8157b16" d="m375.39,373.85c0-2.21,1.64-3.78,3.87-3.78s3.85,1.57,3.85,3.78-1.62,3.8-3.85,3.8-3.87-1.58-3.87-3.8Zm6.36,0c0-1.58-1.06-2.61-2.49-2.61s-2.51,1.02-2.51,2.61,1.08,2.62,2.51,2.62,2.49-1.04,2.49-2.62Z"/><path class="uuid-57bffa35-062c-42ca-bc81-3729d8157b16" d="m388.96,370.07v1.3c-.11-.01-.21-.01-.31-.01-1.44,0-2.34.88-2.34,2.51v3.7h-1.34v-7.42h1.29v1.25c.48-.87,1.4-1.32,2.7-1.32Z"/><path class="uuid-57bffa35-062c-42ca-bc81-3729d8157b16" d="m397.22,374.3h-6.02c.17,1.3,1.22,2.17,2.69,2.17.87,0,1.6-.29,2.14-.9l.74.87c-.67.78-1.69,1.21-2.93,1.21-2.4,0-3.99-1.58-3.99-3.8s1.58-3.78,3.73-3.78,3.67,1.54,3.67,3.82c0,.11-.01.28-.03.41Zm-6.02-.97h4.76c-.14-1.25-1.08-2.13-2.38-2.13s-2.24.87-2.38,2.13Z"/><path class="uuid-57bffa35-062c-42ca-bc81-3729d8157b16" d="m398.17,376.78l.56-1.06c.63.45,1.64.77,2.61.77,1.25,0,1.76-.38,1.76-1.01,0-1.67-4.69-.22-4.69-3.18,0-1.33,1.19-2.23,3.1-2.23.97,0,2.06.25,2.7.67l-.57,1.06c-.67-.43-1.42-.59-2.14-.59-1.18,0-1.75.43-1.75,1.02,0,1.75,4.71.32,4.71,3.21,0,1.34-1.23,2.2-3.21,2.2-1.23,0-2.45-.38-3.07-.87Z"/><path class="uuid-57bffa35-062c-42ca-bc81-3729d8157b16" d="m422.22,373.29v4.27h-1.34v-4.12c0-1.46-.7-2.17-1.92-2.17-1.34,0-2.23.85-2.23,2.47v3.82h-1.34v-4.12c0-1.46-.7-2.17-1.92-2.17-1.34,0-2.23.85-2.23,2.47v3.82h-1.34v-7.42h1.29v1.11c.53-.76,1.44-1.18,2.56-1.18s2.09.45,2.58,1.37c.56-.84,1.6-1.37,2.86-1.37,1.81,0,3.04,1.04,3.04,3.22Z"/><path class="uuid-57bffa35-062c-42ca-bc81-3729d8157b16" d="m430.57,373.08v4.48h-1.27v-.98c-.45.67-1.27,1.06-2.44,1.06-1.68,0-2.75-.9-2.75-2.19,0-1.19.77-2.17,2.98-2.17h2.13v-.27c0-1.13-.66-1.79-1.99-1.79-.88,0-1.78.31-2.35.8l-.56-1.01c.77-.62,1.88-.95,3.07-.95,2.03,0,3.18.98,3.18,3.01Zm-1.34,2.21v-1.04h-2.07c-1.33,0-1.71.52-1.71,1.15,0,.74.62,1.2,1.64,1.2s1.81-.46,2.14-1.32Z"/><path class="uuid-57bffa35-062c-42ca-bc81-3729d8157b16" d="m439.49,370.14l-3.6,8.17c-.66,1.57-1.51,2.06-2.65,2.06-.71,0-1.44-.24-1.9-.69l.57-1.01c.36.35.83.55,1.33.55.64,0,1.05-.29,1.42-1.15l.24-.52-3.28-7.41h1.4l2.59,5.94,2.56-5.94h1.32Z"/><path class="uuid-57bffa35-062c-42ca-bc81-3729d8157b16" d="m439.85,373.85c0-2.21,1.64-3.78,3.87-3.78s3.85,1.57,3.85,3.78-1.62,3.8-3.85,3.8-3.87-1.58-3.87-3.8Zm6.36,0c0-1.58-1.06-2.61-2.49-2.61s-2.51,1.02-2.51,2.61,1.08,2.62,2.51,2.62,2.49-1.04,2.49-2.62Z"/><path class="uuid-57bffa35-062c-42ca-bc81-3729d8157b16" d="m453.42,370.07v1.3c-.11-.01-.21-.01-.31-.01-1.44,0-2.34.88-2.34,2.51v3.7h-1.34v-7.42h1.29v1.25c.48-.87,1.4-1.32,2.7-1.32Z"/><path class="uuid-57bffa35-062c-42ca-bc81-3729d8157b16" d="m461.68,374.3h-6.02c.17,1.3,1.22,2.17,2.69,2.17.87,0,1.6-.29,2.14-.9l.74.87c-.67.78-1.7,1.21-2.93,1.21-2.4,0-3.99-1.58-3.99-3.8s1.58-3.78,3.73-3.78,3.67,1.54,3.67,3.82c0,.11-.01.28-.03.41Zm-6.02-.97h4.76c-.14-1.25-1.08-2.13-2.38-2.13s-2.24.87-2.38,2.13Z"/><path class="uuid-57bffa35-062c-42ca-bc81-3729d8157b16" d="m462.63,376.78l.56-1.06c.63.45,1.64.77,2.61.77,1.25,0,1.76-.38,1.76-1.01,0-1.67-4.69-.22-4.69-3.18,0-1.33,1.19-2.23,3.1-2.23.97,0,2.06.25,2.7.67l-.57,1.06c-.67-.43-1.42-.59-2.14-.59-1.18,0-1.75.43-1.75,1.02,0,1.75,4.71.32,4.71,3.21,0,1.34-1.23,2.2-3.21,2.2-1.23,0-2.45-.38-3.07-.87Z"/><path class="uuid-57bffa35-062c-42ca-bc81-3729d8157b16" d="m481.35,370.14v10.14h-1.34v-3.84c-.62.8-1.54,1.21-2.59,1.21-2.17,0-3.75-1.51-3.75-3.8s1.58-3.78,3.75-3.78c1.09,0,2.04.42,2.65,1.25v-1.18h1.29Zm-1.33,3.71c0-1.57-1.08-2.61-2.49-2.61s-2.51,1.04-2.51,2.61,1.08,2.62,2.51,2.62,2.49-1.04,2.49-2.62Z"/><path class="uuid-57bffa35-062c-42ca-bc81-3729d8157b16" d="m490.81,370.14v7.42h-1.27v-1.12c-.55.77-1.47,1.21-2.52,1.21-1.92,0-3.19-1.05-3.19-3.24v-4.27h1.34v4.12c0,1.46.73,2.18,2,2.18,1.4,0,2.3-.87,2.3-2.46v-3.84h1.34Z"/><path class="uuid-57bffa35-062c-42ca-bc81-3729d8157b16" d="m500.05,374.3h-6.02c.17,1.3,1.22,2.17,2.69,2.17.87,0,1.6-.29,2.14-.9l.74.87c-.67.78-1.69,1.21-2.93,1.21-2.4,0-3.99-1.58-3.99-3.8s1.58-3.78,3.73-3.78,3.67,1.54,3.67,3.82c0,.11-.01.28-.03.41Zm-6.02-.97h4.76c-.14-1.25-1.08-2.13-2.38-2.13s-2.24.87-2.38,2.13Z"/><path class="uuid-eba01a92-1772-4a03-8942-54dcf001d3ef" d="m511.56,370.04l.76-.55.53.13-1.22,5.26c-.12.53-.18.94-.18,1.23,0,.22.04.38.11.48.07.1.19.15.34.15.17,0,.34-.07.53-.2.19-.14.45-.39.8-.78l.47.46c-.5.53-.92.91-1.27,1.13-.35.22-.73.34-1.14.34-.34,0-.62-.11-.82-.34-.21-.23-.31-.53-.31-.9,0-.3.06-.63.19-.97l-.11-.03c-.53.78-1.03,1.34-1.51,1.7-.48.36-.98.54-1.51.54-.61,0-1.08-.23-1.42-.69-.33-.46-.5-1.1-.5-1.93,0-.95.19-1.87.56-2.74.37-.88.89-1.57,1.54-2.08.65-.51,1.38-.76,2.18-.76.36,0,.7.04,1.01.12.31.08.64.22.97.43Zm-.73,2.47c.05-.23.08-.42.1-.59s.02-.35.02-.54c0-.43-.09-.74-.27-.94s-.49-.3-.93-.3c-.57,0-1.08.23-1.54.69-.45.46-.81,1.08-1.06,1.85-.25.77-.38,1.54-.38,2.31,0,.58.08,1.01.24,1.29.16.28.42.43.79.43s.72-.16,1.08-.47.71-.77,1.09-1.35c.37-.58.64-1.26.79-2.02l.08-.36Z"/><path class="uuid-169d01d0-1754-4038-a3b7-5e9e48177949" d="m21.89,88.89v9.81h-1.39v-8.59h-2.21v-1.22h3.6Z"/><path class="uuid-169d01d0-1754-4038-a3b7-5e9e48177949" d="m24,97.81c0-.56.43-.95.95-.95s.92.39.92.95-.42.97-.92.97-.95-.41-.95-.97Z"/><path class="uuid-169d01d0-1754-4038-a3b7-5e9e48177949" d="m34.08,95.75c0,1.69-1.21,3.05-3.71,3.05-1.39,0-2.76-.45-3.6-1.19l.64-1.11c.66.62,1.75,1.05,2.94,1.05,1.48,0,2.33-.69,2.33-1.75s-.7-1.79-2.97-1.79h-2.23l.52-5.13h5.53v1.22h-4.36l-.27,2.69h1.09c2.93,0,4.08,1.22,4.08,2.96Z"/><path class="uuid-169d01d0-1754-4038-a3b7-5e9e48177949" d="m21.89,121.76v9.81h-1.39v-8.59h-2.21v-1.22h3.6Z"/><path class="uuid-169d01d0-1754-4038-a3b7-5e9e48177949" d="m24,130.68c0-.56.43-.95.95-.95s.92.39.92.95-.42.97-.92.97-.95-.41-.95-.97Z"/><path class="uuid-169d01d0-1754-4038-a3b7-5e9e48177949" d="m34.17,121.76v.95l-3.96,8.85h-1.48l3.88-8.59h-4.48v1.75h-1.34v-2.97h7.4Z"/><path class="uuid-169d01d0-1754-4038-a3b7-5e9e48177949" d="m21.89,154.63v9.81h-1.39v-8.59h-2.21v-1.22h3.6Z"/><path class="uuid-169d01d0-1754-4038-a3b7-5e9e48177949" d="m24,163.55c0-.56.43-.95.95-.95s.92.39.92.95-.42.97-.92.97-.95-.41-.95-.97Z"/><path class="uuid-169d01d0-1754-4038-a3b7-5e9e48177949" d="m34.5,159.41c0,3.35-1.89,5.14-4.64,5.14-.92,0-1.81-.18-2.44-.57l.53-1.09c.52.34,1.18.46,1.89.46,1.99,0,3.25-1.25,3.25-3.7v-.35c-.57.85-1.61,1.29-2.83,1.29-1.95,0-3.35-1.16-3.35-2.97s1.51-3.1,3.46-3.1c2.63,0,4.12,1.77,4.12,4.89Zm-1.72-1.86c0-1.01-.81-1.89-2.34-1.89-1.27,0-2.16.74-2.16,1.9s.85,1.89,2.23,1.89,2.27-.83,2.27-1.9Z"/><path class="uuid-169d01d0-1754-4038-a3b7-5e9e48177949" d="m21.89,187.5v9.81h-1.39v-8.59h-2.21v-1.22h3.6Z"/><path class="uuid-169d01d0-1754-4038-a3b7-5e9e48177949" d="m24,196.42c0-.56.43-.95.95-.95s.92.39.92.95-.42.97-.92.97-.95-.41-.95-.97Z"/><path class="uuid-169d01d0-1754-4038-a3b7-5e9e48177949" d="m34.5,192.28c0,3.35-1.89,5.14-4.64,5.14-.92,0-1.81-.18-2.44-.57l.53-1.09c.52.34,1.18.46,1.89.46,1.99,0,3.25-1.25,3.25-3.7v-.35c-.57.85-1.61,1.29-2.83,1.29-1.95,0-3.35-1.16-3.35-2.97s1.51-3.1,3.46-3.1c2.63,0,4.12,1.77,4.12,4.89Zm-1.72-1.86c0-1.01-.81-1.89-2.34-1.89-1.27,0-2.16.74-2.16,1.9s.85,1.89,2.23,1.89,2.27-.83,2.27-1.9Z"/><path class="uuid-169d01d0-1754-4038-a3b7-5e9e48177949" d="m43.14,192.28c0,3.35-1.89,5.14-4.64,5.14-.92,0-1.81-.18-2.44-.57l.53-1.09c.52.34,1.18.46,1.89.46,1.99,0,3.25-1.25,3.25-3.7v-.35c-.57.85-1.61,1.29-2.83,1.29-1.95,0-3.35-1.16-3.35-2.97s1.51-3.1,3.46-3.1c2.63,0,4.12,1.77,4.12,4.89Zm-1.72-1.86c0-1.01-.81-1.89-2.34-1.89-1.27,0-2.16.74-2.16,1.9s.85,1.89,2.23,1.89,2.27-.83,2.27-1.9Z"/><path class="uuid-169d01d0-1754-4038-a3b7-5e9e48177949" d="m21.89,220.37v9.81h-1.39v-8.59h-2.21v-1.22h3.6Z"/><path class="uuid-169d01d0-1754-4038-a3b7-5e9e48177949" d="m24,229.29c0-.56.43-.95.95-.95s.92.39.92.95-.42.97-.92.97-.95-.41-.95-.97Z"/><path class="uuid-169d01d0-1754-4038-a3b7-5e9e48177949" d="m34.5,225.15c0,3.35-1.89,5.14-4.64,5.14-.92,0-1.81-.18-2.44-.57l.53-1.09c.52.34,1.18.46,1.89.46,1.99,0,3.25-1.25,3.25-3.7v-.35c-.57.85-1.61,1.29-2.83,1.29-1.95,0-3.35-1.16-3.35-2.97s1.51-3.1,3.46-3.1c2.63,0,4.12,1.77,4.12,4.89Zm-1.72-1.86c0-1.01-.81-1.89-2.34-1.89-1.27,0-2.16.74-2.16,1.9s.85,1.89,2.23,1.89,2.27-.83,2.27-1.9Z"/><path class="uuid-169d01d0-1754-4038-a3b7-5e9e48177949" d="m43.14,225.15c0,3.35-1.89,5.14-4.64,5.14-.92,0-1.81-.18-2.44-.57l.53-1.09c.52.34,1.18.46,1.89.46,1.99,0,3.25-1.25,3.25-3.7v-.35c-.57.85-1.61,1.29-2.83,1.29-1.95,0-3.35-1.16-3.35-2.97s1.51-3.1,3.46-3.1c2.63,0,4.12,1.77,4.12,4.89Zm-1.72-1.86c0-1.01-.81-1.89-2.34-1.89-1.27,0-2.16.74-2.16,1.9s.85,1.89,2.23,1.89,2.27-.83,2.27-1.9Z"/><path class="uuid-169d01d0-1754-4038-a3b7-5e9e48177949" d="m51.78,225.15c0,3.35-1.89,5.14-4.64,5.14-.92,0-1.81-.18-2.44-.57l.53-1.09c.52.34,1.18.46,1.89.46,1.99,0,3.25-1.25,3.25-3.7v-.35c-.57.85-1.61,1.29-2.83,1.29-1.95,0-3.35-1.16-3.35-2.97s1.51-3.1,3.46-3.1c2.63,0,4.12,1.77,4.12,4.89Zm-1.72-1.86c0-1.01-.81-1.89-2.34-1.89-1.27,0-2.16.74-2.16,1.9s.85,1.89,2.23,1.89,2.27-.83,2.27-1.9Z"/><path class="uuid-169d01d0-1754-4038-a3b7-5e9e48177949" d="m137.11,60.92c0-3.19,1.71-5.01,4.01-5.01s3.99,1.82,3.99,5.01-1.71,5.01-3.99,5.01-4.01-1.82-4.01-5.01Zm6.6,0c0-2.51-1.06-3.77-2.59-3.77s-2.61,1.26-2.61,3.77,1.06,3.77,2.61,3.77,2.59-1.26,2.59-3.77Z"/><path class="uuid-169d01d0-1754-4038-a3b7-5e9e48177949" d="m137.23,94.27h3.77v1.16h-3.77v-1.16Z"/><path class="uuid-169d01d0-1754-4038-a3b7-5e9e48177949" d="m145.26,88.89v9.81h-1.39v-8.59h-2.21v-1.22h3.6Z"/><path class="uuid-169d01d0-1754-4038-a3b7-5e9e48177949" d="m147.37,97.81c0-.56.43-.95.95-.95s.92.39.92.95-.42.97-.92.97-.95-.41-.95-.97Z"/><path class="uuid-169d01d0-1754-4038-a3b7-5e9e48177949" d="m157.42,95.81c0,1.65-1.22,3-3.71,3-1.4,0-2.77-.45-3.6-1.19l.64-1.11c.66.62,1.75,1.05,2.96,1.05,1.47,0,2.31-.67,2.31-1.74s-.74-1.71-2.42-1.71h-.78v-.98l2.47-3.03h-4.72v-1.22h6.47v.95l-2.56,3.17c1.96.18,2.96,1.29,2.96,2.8Z"/><path class="uuid-169d01d0-1754-4038-a3b7-5e9e48177949" d="m165.7,88.89v.95l-3.96,8.85h-1.48l3.88-8.59h-4.48v1.75h-1.34v-2.97h7.4Z"/><path class="uuid-169d01d0-1754-4038-a3b7-5e9e48177949" d="m173.55,95.75c0,1.69-1.21,3.05-3.71,3.05-1.39,0-2.76-.45-3.6-1.19l.64-1.11c.66.62,1.75,1.05,2.94,1.05,1.48,0,2.33-.69,2.33-1.75s-.7-1.79-2.97-1.79h-2.23l.52-5.13h5.53v1.22h-4.36l-.27,2.69h1.09c2.93,0,4.08,1.22,4.08,2.96Z"/><path class="uuid-169d01d0-1754-4038-a3b7-5e9e48177949" d="m137.23,127.14h3.77v1.16h-3.77v-1.16Z"/><path class="uuid-169d01d0-1754-4038-a3b7-5e9e48177949" d="m145.26,121.76v9.81h-1.39v-8.59h-2.21v-1.22h3.6Z"/><path class="uuid-169d01d0-1754-4038-a3b7-5e9e48177949" d="m147.37,130.68c0-.56.43-.95.95-.95s.92.39.92.95-.42.97-.92.97-.95-.41-.95-.97Z"/><path class="uuid-169d01d0-1754-4038-a3b7-5e9e48177949" d="m157.54,121.76v.95l-3.96,8.85h-1.48l3.88-8.59h-4.48v1.75h-1.34v-2.97h7.4Z"/><path class="uuid-169d01d0-1754-4038-a3b7-5e9e48177949" d="m165.39,128.62c0,1.69-1.21,3.05-3.71,3.05-1.39,0-2.76-.45-3.6-1.19l.64-1.11c.66.62,1.75,1.05,2.94,1.05,1.48,0,2.33-.69,2.33-1.75s-.7-1.79-2.97-1.79h-2.23l.52-5.13h5.53v1.22h-4.36l-.27,2.69h1.09c2.93,0,4.08,1.22,4.08,2.96Z"/><path class="uuid-169d01d0-1754-4038-a3b7-5e9e48177949" d="m173.51,121.76v.95l-3.96,8.85h-1.48l3.88-8.59h-4.48v1.75h-1.34v-2.97h7.4Z"/><path class="uuid-169d01d0-1754-4038-a3b7-5e9e48177949" d="m137.23,160.01h3.77v1.16h-3.77v-1.16Z"/><path class="uuid-169d01d0-1754-4038-a3b7-5e9e48177949" d="m145.26,154.63v9.81h-1.39v-8.59h-2.21v-1.22h3.6Z"/><path class="uuid-169d01d0-1754-4038-a3b7-5e9e48177949" d="m147.37,163.55c0-.56.43-.95.95-.95s.92.39.92.95-.42.97-.92.97-.95-.41-.95-.97Z"/><path class="uuid-169d01d0-1754-4038-a3b7-5e9e48177949" d="m157.87,159.41c0,3.35-1.89,5.14-4.64,5.14-.92,0-1.81-.18-2.44-.57l.53-1.09c.52.34,1.18.46,1.89.46,1.99,0,3.25-1.25,3.25-3.7v-.35c-.57.85-1.61,1.29-2.83,1.29-1.95,0-3.35-1.16-3.35-2.97s1.51-3.1,3.46-3.1c2.63,0,4.12,1.77,4.12,4.89Zm-1.72-1.86c0-1.01-.81-1.89-2.34-1.89-1.27,0-2.16.74-2.16,1.9s.85,1.89,2.23,1.89,2.27-.83,2.27-1.9Z"/><path class="uuid-169d01d0-1754-4038-a3b7-5e9e48177949" d="m166.26,154.63v.95l-3.96,8.85h-1.48l3.88-8.59h-4.48v1.75h-1.34v-2.97h7.4Z"/><path class="uuid-169d01d0-1754-4038-a3b7-5e9e48177949" d="m170.67,154.63v9.81h-1.39v-8.59h-2.21v-1.22h3.6Z"/><path class="uuid-169d01d0-1754-4038-a3b7-5e9e48177949" d="m137.23,192.88h3.77v1.16h-3.77v-1.16Z"/><path class="uuid-169d01d0-1754-4038-a3b7-5e9e48177949" d="m145.26,187.5v9.81h-1.39v-8.59h-2.21v-1.22h3.6Z"/><path class="uuid-169d01d0-1754-4038-a3b7-5e9e48177949" d="m147.37,196.42c0-.56.43-.95.95-.95s.92.39.92.95-.42.97-.92.97-.95-.41-.95-.97Z"/><path class="uuid-169d01d0-1754-4038-a3b7-5e9e48177949" d="m157.87,192.28c0,3.35-1.89,5.14-4.64,5.14-.92,0-1.81-.18-2.44-.57l.53-1.09c.52.34,1.18.46,1.89.46,1.99,0,3.25-1.25,3.25-3.7v-.35c-.57.85-1.61,1.29-2.83,1.29-1.95,0-3.35-1.16-3.35-2.97s1.51-3.1,3.46-3.1c2.63,0,4.12,1.77,4.12,4.89Zm-1.72-1.86c0-1.01-.81-1.89-2.34-1.89-1.27,0-2.16.74-2.16,1.9s.85,1.89,2.23,1.89,2.27-.83,2.27-1.9Z"/><path class="uuid-169d01d0-1754-4038-a3b7-5e9e48177949" d="m166.51,192.28c0,3.35-1.89,5.14-4.64,5.14-.92,0-1.81-.18-2.44-.57l.53-1.09c.52.34,1.18.46,1.89.46,1.99,0,3.25-1.25,3.25-3.7v-.35c-.57.85-1.61,1.29-2.83,1.29-1.95,0-3.35-1.16-3.35-2.97s1.51-3.1,3.46-3.1c2.63,0,4.12,1.77,4.12,4.89Zm-1.72-1.86c0-1.01-.81-1.89-2.34-1.89-1.27,0-2.16.74-2.16,1.9s.85,1.89,2.23,1.89,2.27-.83,2.27-1.9Z"/><path class="uuid-169d01d0-1754-4038-a3b7-5e9e48177949" d="m175.15,192.28c0,3.35-1.89,5.14-4.64,5.14-.92,0-1.81-.18-2.44-.57l.53-1.09c.52.34,1.18.46,1.89.46,1.99,0,3.25-1.25,3.25-3.7v-.35c-.57.85-1.61,1.29-2.83,1.29-1.95,0-3.35-1.16-3.35-2.97s1.51-3.1,3.46-3.1c2.63,0,4.12,1.77,4.12,4.89Zm-1.72-1.86c0-1.01-.81-1.89-2.34-1.89-1.27,0-2.16.74-2.16,1.9s.85,1.89,2.23,1.89,2.27-.83,2.27-1.9Z"/><path class="uuid-169d01d0-1754-4038-a3b7-5e9e48177949" d="m183.53,187.5v.95l-3.96,8.85h-1.48l3.88-8.59h-4.48v1.75h-1.34v-2.97h7.4Z"/><path class="uuid-169d01d0-1754-4038-a3b7-5e9e48177949" d="m184.48,192.4c0-3.19,1.71-5.01,4.01-5.01s3.99,1.82,3.99,5.01-1.71,5.01-3.99,5.01-4.01-1.82-4.01-5.01Zm6.6,0c0-2.51-1.06-3.77-2.59-3.77s-2.61,1.26-2.61,3.77,1.06,3.77,2.61,3.77,2.59-1.26,2.59-3.77Z"/><path class="uuid-169d01d0-1754-4038-a3b7-5e9e48177949" d="m193.82,192.4c0-3.19,1.71-5.01,4.01-5.01s3.99,1.82,3.99,5.01-1.71,5.01-3.99,5.01-4.01-1.82-4.01-5.01Zm6.6,0c0-2.51-1.06-3.77-2.59-3.77s-2.61,1.26-2.61,3.77,1.06,3.77,2.61,3.77,2.59-1.26,2.59-3.77Z"/><path class="uuid-169d01d0-1754-4038-a3b7-5e9e48177949" d="m210.46,192.28c0,3.35-1.89,5.14-4.64,5.14-.92,0-1.81-.18-2.44-.57l.53-1.09c.52.34,1.18.46,1.89.46,1.99,0,3.25-1.25,3.25-3.7v-.35c-.57.85-1.61,1.29-2.83,1.29-1.95,0-3.35-1.16-3.35-2.97s1.51-3.1,3.46-3.1c2.63,0,4.12,1.77,4.12,4.89Zm-1.72-1.86c0-1.01-.81-1.89-2.34-1.89-1.27,0-2.16.74-2.16,1.9s.85,1.89,2.23,1.89,2.27-.83,2.27-1.9Z"/><path class="uuid-169d01d0-1754-4038-a3b7-5e9e48177949" d="m219.09,192.28c0,3.35-1.89,5.14-4.64,5.14-.92,0-1.81-.18-2.44-.57l.53-1.09c.52.34,1.18.46,1.89.46,1.99,0,3.25-1.25,3.25-3.7v-.35c-.57.85-1.61,1.29-2.83,1.29-1.95,0-3.35-1.16-3.35-2.97s1.51-3.1,3.46-3.1c2.63,0,4.12,1.77,4.12,4.89Zm-1.72-1.86c0-1.01-.81-1.89-2.34-1.89-1.27,0-2.16.74-2.16,1.9s.85,1.89,2.23,1.89,2.27-.83,2.27-1.9Z"/><path class="uuid-169d01d0-1754-4038-a3b7-5e9e48177949" d="m227.73,192.28c0,3.35-1.89,5.14-4.64,5.14-.92,0-1.81-.18-2.44-.57l.53-1.09c.52.34,1.18.46,1.89.46,1.99,0,3.25-1.25,3.25-3.7v-.35c-.57.85-1.61,1.29-2.83,1.29-1.95,0-3.35-1.16-3.35-2.97s1.51-3.1,3.46-3.1c2.63,0,4.12,1.77,4.12,4.89Zm-1.72-1.86c0-1.01-.81-1.89-2.34-1.89-1.27,0-2.16.74-2.16,1.9s.85,1.89,2.23,1.89,2.27-.83,2.27-1.9Z"/><path class="uuid-169d01d0-1754-4038-a3b7-5e9e48177949" d="m137.23,225.75h3.77v1.16h-3.77v-1.16Z"/><path class="uuid-169d01d0-1754-4038-a3b7-5e9e48177949" d="m145.26,220.37v9.81h-1.39v-8.59h-2.21v-1.22h3.6Z"/><path class="uuid-169d01d0-1754-4038-a3b7-5e9e48177949" d="m147.37,229.29c0-.56.43-.95.95-.95s.92.39.92.95-.42.97-.92.97-.95-.41-.95-.97Z"/><path class="uuid-169d01d0-1754-4038-a3b7-5e9e48177949" d="m157.87,225.15c0,3.35-1.89,5.14-4.64,5.14-.92,0-1.81-.18-2.44-.57l.53-1.09c.52.34,1.18.46,1.89.46,1.99,0,3.25-1.25,3.25-3.7v-.35c-.57.85-1.61,1.29-2.83,1.29-1.95,0-3.35-1.16-3.35-2.97s1.51-3.1,3.46-3.1c2.63,0,4.12,1.77,4.12,4.89Zm-1.72-1.86c0-1.01-.81-1.89-2.34-1.89-1.27,0-2.16.74-2.16,1.9s.85,1.89,2.23,1.89,2.27-.83,2.27-1.9Z"/><path class="uuid-169d01d0-1754-4038-a3b7-5e9e48177949" d="m166.51,225.15c0,3.35-1.89,5.14-4.64,5.14-.92,0-1.81-.18-2.44-.57l.53-1.09c.52.34,1.18.46,1.89.46,1.99,0,3.25-1.25,3.25-3.7v-.35c-.57.85-1.61,1.29-2.83,1.29-1.95,0-3.35-1.16-3.35-2.97s1.51-3.1,3.46-3.1c2.63,0,4.12,1.77,4.12,4.89Zm-1.72-1.86c0-1.01-.81-1.89-2.34-1.89-1.27,0-2.16.74-2.16,1.9s.85,1.89,2.23,1.89,2.27-.83,2.27-1.9Z"/><path class="uuid-169d01d0-1754-4038-a3b7-5e9e48177949" d="m175.15,225.15c0,3.35-1.89,5.14-4.64,5.14-.92,0-1.81-.18-2.44-.57l.53-1.09c.52.34,1.18.46,1.89.46,1.99,0,3.25-1.25,3.25-3.7v-.35c-.57.85-1.61,1.29-2.83,1.29-1.95,0-3.35-1.16-3.35-2.97s1.51-3.1,3.46-3.1c2.63,0,4.12,1.77,4.12,4.89Zm-1.72-1.86c0-1.01-.81-1.89-2.34-1.89-1.27,0-2.16.74-2.16,1.9s.85,1.89,2.23,1.89,2.27-.83,2.27-1.9Z"/><path class="uuid-169d01d0-1754-4038-a3b7-5e9e48177949" d="m183.79,225.15c0,3.35-1.89,5.14-4.64,5.14-.92,0-1.81-.18-2.44-.57l.53-1.09c.52.34,1.18.46,1.89.46,1.99,0,3.25-1.25,3.25-3.7v-.35c-.57.85-1.61,1.29-2.83,1.29-1.95,0-3.35-1.16-3.35-2.97s1.51-3.1,3.46-3.1c2.63,0,4.12,1.77,4.12,4.89Zm-1.72-1.86c0-1.01-.81-1.89-2.34-1.89-1.27,0-2.16.74-2.16,1.9s.85,1.89,2.23,1.89,2.27-.83,2.27-1.9Z"/><path class="uuid-169d01d0-1754-4038-a3b7-5e9e48177949" d="m192.42,225.15c0,3.35-1.89,5.14-4.64,5.14-.92,0-1.81-.18-2.44-.57l.53-1.09c.52.34,1.18.46,1.89.46,1.99,0,3.25-1.25,3.25-3.7v-.35c-.57.85-1.61,1.29-2.83,1.29-1.95,0-3.35-1.16-3.35-2.97s1.51-3.1,3.46-3.1c2.63,0,4.12,1.77,4.12,4.89Zm-1.72-1.86c0-1.01-.81-1.89-2.34-1.89-1.27,0-2.16.74-2.16,1.9s.85,1.89,2.23,1.89,2.27-.83,2.27-1.9Z"/><path class="uuid-169d01d0-1754-4038-a3b7-5e9e48177949" d="m200.81,220.37v.95l-3.96,8.85h-1.48l3.88-8.59h-4.48v1.75h-1.34v-2.97h7.4Z"/><path class="uuid-169d01d0-1754-4038-a3b7-5e9e48177949" d="m201.76,225.27c0-3.19,1.71-5.01,4.01-5.01s3.99,1.82,3.99,5.01-1.71,5.01-3.99,5.01-4.01-1.82-4.01-5.01Zm6.6,0c0-2.51-1.06-3.77-2.59-3.77s-2.61,1.26-2.61,3.77,1.06,3.77,2.61,3.77,2.59-1.26,2.59-3.77Z"/><path class="uuid-169d01d0-1754-4038-a3b7-5e9e48177949" d="m211.1,225.27c0-3.19,1.71-5.01,4.01-5.01s3.99,1.82,3.99,5.01-1.71,5.01-3.99,5.01-4.01-1.82-4.01-5.01Zm6.6,0c0-2.51-1.06-3.77-2.59-3.77s-2.61,1.26-2.61,3.77,1.06,3.77,2.61,3.77,2.59-1.26,2.59-3.77Z"/><path class="uuid-169d01d0-1754-4038-a3b7-5e9e48177949" d="m223.43,220.37v9.81h-1.39v-8.59h-2.21v-1.22h3.6Z"/><path class="uuid-169d01d0-1754-4038-a3b7-5e9e48177949" d="m25.74,294.69v1.22h-7.05v-.95l3.99-3.85c1.04-1.01,1.23-1.62,1.23-2.24,0-1.01-.71-1.62-2.09-1.62-1.05,0-1.9.34-2.51,1.06l-.95-.83c.76-.94,2.06-1.49,3.59-1.49,2.04,0,3.36,1.05,3.36,2.73,0,.95-.28,1.81-1.61,3.08l-3,2.89h5.03Z"/><path class="uuid-169d01d0-1754-4038-a3b7-5e9e48177949" d="m26.99,295.03c0-.56.43-.95.95-.95s.92.39.92.95-.42.97-.92.97-.95-.41-.95-.97Z"/><path class="uuid-169d01d0-1754-4038-a3b7-5e9e48177949" d="m30.03,291.01c0-3.19,1.71-5.01,4.01-5.01s3.99,1.82,3.99,5.01-1.71,5.01-3.99,5.01-4.01-1.82-4.01-5.01Zm6.6,0c0-2.51-1.06-3.77-2.59-3.77s-2.61,1.26-2.61,3.77,1.06,3.77,2.61,3.77,2.59-1.26,2.59-3.77Z"/><path class="uuid-169d01d0-1754-4038-a3b7-5e9e48177949" d="m39.37,291.01c0-3.19,1.71-5.01,4.01-5.01s3.99,1.82,3.99,5.01-1.71,5.01-3.99,5.01-4.01-1.82-4.01-5.01Zm6.6,0c0-2.51-1.06-3.77-2.59-3.77s-2.61,1.26-2.61,3.77,1.06,3.77,2.61,3.77,2.59-1.26,2.59-3.77Z"/><path class="uuid-169d01d0-1754-4038-a3b7-5e9e48177949" d="m51.71,286.11v9.81h-1.39v-8.59h-2.21v-1.22h3.6Z"/><path class="uuid-169d01d0-1754-4038-a3b7-5e9e48177949" d="m25.74,327.56v1.22h-7.05v-.95l3.99-3.85c1.04-1.01,1.23-1.62,1.23-2.24,0-1.01-.71-1.62-2.09-1.62-1.05,0-1.9.34-2.51,1.06l-.95-.83c.76-.94,2.06-1.49,3.59-1.49,2.04,0,3.36,1.05,3.36,2.73,0,.95-.28,1.81-1.61,3.08l-3,2.89h5.03Z"/><path class="uuid-169d01d0-1754-4038-a3b7-5e9e48177949" d="m26.99,327.9c0-.56.43-.95.95-.95s.92.39.92.95-.42.97-.92.97-.95-.41-.95-.97Z"/><path class="uuid-169d01d0-1754-4038-a3b7-5e9e48177949" d="m30.03,323.88c0-3.19,1.71-5.01,4.01-5.01s3.99,1.82,3.99,5.01-1.71,5.01-3.99,5.01-4.01-1.82-4.01-5.01Zm6.6,0c0-2.51-1.06-3.77-2.59-3.77s-2.61,1.26-2.61,3.77,1.06,3.77,2.61,3.77,2.59-1.26,2.59-3.77Z"/><path class="uuid-169d01d0-1754-4038-a3b7-5e9e48177949" d="m42.37,318.98v9.81h-1.39v-8.59h-2.21v-1.22h3.6Z"/><path class="uuid-169d01d0-1754-4038-a3b7-5e9e48177949" d="m25.74,360.43v1.22h-7.05v-.95l3.99-3.85c1.04-1.01,1.23-1.62,1.23-2.24,0-1.01-.71-1.62-2.09-1.62-1.05,0-1.9.34-2.51,1.07l-.95-.83c.76-.94,2.06-1.48,3.59-1.48,2.04,0,3.36,1.05,3.36,2.73,0,.95-.28,1.81-1.61,3.08l-3,2.88h5.03Z"/><path class="uuid-169d01d0-1754-4038-a3b7-5e9e48177949" d="m26.99,360.77c0-.56.43-.95.95-.95s.92.39.92.95-.42.97-.92.97-.95-.41-.95-.97Z"/><path class="uuid-169d01d0-1754-4038-a3b7-5e9e48177949" d="m33.06,351.85v9.8h-1.39v-8.59h-2.21v-1.22h3.6Z"/><path class="uuid-169d01d0-1754-4038-a3b7-5e9e48177949" d="m25.74,393.3v1.22h-7.05v-.95l3.99-3.85c1.04-1.01,1.23-1.62,1.23-2.24,0-1.01-.71-1.62-2.09-1.62-1.05,0-1.9.34-2.51,1.07l-.95-.83c.76-.94,2.06-1.48,3.59-1.48,2.04,0,3.36,1.05,3.36,2.73,0,.95-.28,1.81-1.61,3.08l-3,2.88h5.03Z"/><path class="uuid-169d01d0-1754-4038-a3b7-5e9e48177949" d="m26.99,393.64c0-.56.43-.95.95-.95s.92.39.92.95-.42.97-.92.97-.95-.41-.95-.97Z"/><path class="uuid-169d01d0-1754-4038-a3b7-5e9e48177949" d="m37.05,391.64c0,1.65-1.22,3-3.71,3-1.4,0-2.77-.45-3.6-1.19l.64-1.11c.66.62,1.75,1.05,2.96,1.05,1.47,0,2.31-.67,2.31-1.74s-.74-1.71-2.42-1.71h-.78v-.98l2.47-3.03h-4.72v-1.22h6.47v.95l-2.56,3.17c1.96.18,2.96,1.29,2.96,2.8Z"/><path class="uuid-169d01d0-1754-4038-a3b7-5e9e48177949" d="m25.74,426.17v1.22h-7.05v-.95l3.99-3.85c1.04-1.01,1.23-1.62,1.23-2.24,0-1.01-.71-1.62-2.09-1.62-1.05,0-1.9.34-2.51,1.06l-.95-.83c.76-.94,2.06-1.49,3.59-1.49,2.04,0,3.36,1.05,3.36,2.73,0,.95-.28,1.81-1.61,3.08l-3,2.89h5.03Z"/><path class="uuid-169d01d0-1754-4038-a3b7-5e9e48177949" d="m26.99,426.51c0-.56.43-.95.95-.95s.92.39.92.95-.42.97-.92.97-.95-.41-.95-.97Z"/><path class="uuid-169d01d0-1754-4038-a3b7-5e9e48177949" d="m37.08,424.45c0,1.69-1.21,3.05-3.71,3.05-1.39,0-2.76-.45-3.6-1.19l.64-1.11c.66.62,1.75,1.05,2.94,1.05,1.48,0,2.33-.69,2.33-1.75s-.7-1.79-2.97-1.79h-2.23l.52-5.13h5.53v1.22h-4.36l-.27,2.69h1.09c2.93,0,4.08,1.22,4.08,2.96Z"/><path class="uuid-169d01d0-1754-4038-a3b7-5e9e48177949" d="m25.56,457.38c0,1.65-1.22,3-3.71,3-1.4,0-2.77-.45-3.6-1.19l.64-1.11c.66.62,1.75,1.05,2.96,1.05,1.47,0,2.31-.67,2.31-1.74s-.74-1.71-2.42-1.71h-.78v-.98l2.47-3.03h-4.72v-1.22h6.47v.95l-2.56,3.17c1.96.18,2.96,1.29,2.96,2.8Z"/><path class="uuid-169d01d0-1754-4038-a3b7-5e9e48177949" d="m137.23,291.49h3.77v1.16h-3.77v-1.16Z"/><path class="uuid-169d01d0-1754-4038-a3b7-5e9e48177949" d="m145.26,286.11v9.81h-1.39v-8.59h-2.21v-1.22h3.6Z"/><path class="uuid-169d01d0-1754-4038-a3b7-5e9e48177949" d="m147.37,295.03c0-.56.43-.95.95-.95s.92.39.92.95-.42.97-.92.97-.95-.41-.95-.97Z"/><path class="uuid-169d01d0-1754-4038-a3b7-5e9e48177949" d="m157.87,290.88c0,3.35-1.89,5.14-4.64,5.14-.92,0-1.81-.18-2.44-.57l.53-1.09c.52.34,1.18.46,1.89.46,1.99,0,3.25-1.25,3.25-3.7v-.35c-.57.85-1.61,1.29-2.83,1.29-1.95,0-3.35-1.16-3.35-2.97s1.51-3.1,3.46-3.1c2.63,0,4.12,1.77,4.12,4.89Zm-1.72-1.86c0-1.01-.81-1.89-2.34-1.89-1.27,0-2.16.74-2.16,1.91s.85,1.89,2.23,1.89,2.27-.83,2.27-1.9Z"/><path class="uuid-169d01d0-1754-4038-a3b7-5e9e48177949" d="m166.51,290.88c0,3.35-1.89,5.14-4.64,5.14-.92,0-1.81-.18-2.44-.57l.53-1.09c.52.34,1.18.46,1.89.46,1.99,0,3.25-1.25,3.25-3.7v-.35c-.57.85-1.61,1.29-2.83,1.29-1.95,0-3.35-1.16-3.35-2.97s1.51-3.1,3.46-3.1c2.63,0,4.12,1.77,4.12,4.89Zm-1.72-1.86c0-1.01-.81-1.89-2.34-1.89-1.27,0-2.16.74-2.16,1.91s.85,1.89,2.23,1.89,2.27-.83,2.27-1.9Z"/><path class="uuid-169d01d0-1754-4038-a3b7-5e9e48177949" d="m175.15,290.88c0,3.35-1.89,5.14-4.64,5.14-.92,0-1.81-.18-2.44-.57l.53-1.09c.52.34,1.18.46,1.89.46,1.99,0,3.25-1.25,3.25-3.7v-.35c-.57.85-1.61,1.29-2.83,1.29-1.95,0-3.35-1.16-3.35-2.97s1.51-3.1,3.46-3.1c2.63,0,4.12,1.77,4.12,4.89Zm-1.72-1.86c0-1.01-.81-1.89-2.34-1.89-1.27,0-2.16.74-2.16,1.91s.85,1.89,2.23,1.89,2.27-.83,2.27-1.9Z"/><path class="uuid-169d01d0-1754-4038-a3b7-5e9e48177949" d="m183.79,290.88c0,3.35-1.89,5.14-4.64,5.14-.92,0-1.81-.18-2.44-.57l.53-1.09c.52.34,1.18.46,1.89.46,1.99,0,3.25-1.25,3.25-3.7v-.35c-.57.85-1.61,1.29-2.83,1.29-1.95,0-3.35-1.16-3.35-2.97s1.51-3.1,3.46-3.1c2.63,0,4.12,1.77,4.12,4.89Zm-1.72-1.86c0-1.01-.81-1.89-2.34-1.89-1.27,0-2.16.74-2.16,1.91s.85,1.89,2.23,1.89,2.27-.83,2.27-1.9Z"/><path class="uuid-169d01d0-1754-4038-a3b7-5e9e48177949" d="m192.42,290.88c0,3.35-1.89,5.14-4.64,5.14-.92,0-1.81-.18-2.44-.57l.53-1.09c.52.34,1.18.46,1.89.46,1.99,0,3.25-1.25,3.25-3.7v-.35c-.57.85-1.61,1.29-2.83,1.29-1.95,0-3.35-1.16-3.35-2.97s1.51-3.1,3.46-3.1c2.63,0,4.12,1.77,4.12,4.89Zm-1.72-1.86c0-1.01-.81-1.89-2.34-1.89-1.27,0-2.16.74-2.16,1.91s.85,1.89,2.23,1.89,2.27-.83,2.27-1.9Z"/><path class="uuid-169d01d0-1754-4038-a3b7-5e9e48177949" d="m201.36,292.93c0,1.89-1.53,3.09-3.47,3.09-2.63,0-4.12-1.76-4.12-4.89,0-3.35,1.89-5.14,4.64-5.14.92,0,1.81.18,2.44.57l-.53,1.09c-.5-.34-1.18-.46-1.88-.46-1.99,0-3.26,1.25-3.26,3.7,0,.11,0,.22.01.35.56-.84,1.6-1.29,2.82-1.29,1.95,0,3.36,1.16,3.36,2.97Zm-1.36.06c0-1.15-.87-1.89-2.24-1.89s-2.26.83-2.26,1.91c0,1.01.81,1.89,2.33,1.89,1.27,0,2.17-.74,2.17-1.91Z"/><path class="uuid-169d01d0-1754-4038-a3b7-5e9e48177949" d="m209.7,290.88c0,3.35-1.89,5.14-4.64,5.14-.92,0-1.81-.18-2.44-.57l.53-1.09c.52.34,1.18.46,1.89.46,1.99,0,3.25-1.25,3.25-3.7v-.35c-.57.85-1.61,1.29-2.83,1.29-1.95,0-3.35-1.16-3.35-2.97s1.51-3.1,3.46-3.1c2.63,0,4.12,1.77,4.12,4.89Zm-1.72-1.86c0-1.01-.81-1.89-2.34-1.89-1.27,0-2.16.74-2.16,1.91s.85,1.89,2.23,1.89,2.27-.83,2.27-1.9Z"/><path class="uuid-169d01d0-1754-4038-a3b7-5e9e48177949" d="m218.34,290.88c0,3.35-1.89,5.14-4.64,5.14-.92,0-1.81-.18-2.44-.57l.53-1.09c.52.34,1.18.46,1.89.46,1.99,0,3.25-1.25,3.25-3.7v-.35c-.57.85-1.61,1.29-2.83,1.29-1.95,0-3.35-1.16-3.35-2.97s1.51-3.1,3.46-3.1c2.63,0,4.12,1.77,4.12,4.89Zm-1.72-1.86c0-1.01-.81-1.89-2.34-1.89-1.27,0-2.16.74-2.16,1.91s.85,1.89,2.23,1.89,2.27-.83,2.27-1.9Z"/><path class="uuid-169d01d0-1754-4038-a3b7-5e9e48177949" d="m227.41,293.14c0,1.78-1.51,2.88-3.91,2.88s-3.88-1.11-3.88-2.88c0-1.12.62-1.95,1.72-2.37-.9-.42-1.37-1.15-1.37-2.12,0-1.64,1.42-2.66,3.53-2.66s3.56,1.02,3.56,2.66c0,.97-.49,1.69-1.39,2.12,1.12.43,1.74,1.25,1.74,2.37Zm-1.4-.04c0-1.08-.95-1.75-2.51-1.75s-2.48.67-2.48,1.75.92,1.79,2.48,1.79,2.51-.69,2.51-1.79Zm-4.65-4.38c0,.97.8,1.57,2.14,1.57s2.19-.6,2.19-1.57-.87-1.58-2.19-1.58-2.14.6-2.14,1.58Z"/><path class="uuid-169d01d0-1754-4038-a3b7-5e9e48177949" d="m137.23,324.36h3.77v1.16h-3.77v-1.16Z"/><path class="uuid-169d01d0-1754-4038-a3b7-5e9e48177949" d="m145.26,318.98v9.81h-1.39v-8.59h-2.21v-1.22h3.6Z"/><path class="uuid-169d01d0-1754-4038-a3b7-5e9e48177949" d="m147.37,327.9c0-.56.43-.95.95-.95s.92.39.92.95-.42.97-.92.97-.95-.41-.95-.97Z"/><path class="uuid-169d01d0-1754-4038-a3b7-5e9e48177949" d="m157.87,323.75c0,3.35-1.89,5.14-4.64,5.14-.92,0-1.81-.18-2.44-.57l.53-1.09c.52.34,1.18.46,1.89.46,1.99,0,3.25-1.25,3.25-3.7v-.35c-.57.85-1.61,1.29-2.83,1.29-1.95,0-3.35-1.16-3.35-2.97s1.51-3.1,3.46-3.1c2.63,0,4.12,1.77,4.12,4.89Zm-1.72-1.86c0-1.01-.81-1.89-2.34-1.89-1.27,0-2.16.74-2.16,1.91s.85,1.89,2.23,1.89,2.27-.83,2.27-1.9Z"/><path class="uuid-169d01d0-1754-4038-a3b7-5e9e48177949" d="m166.51,323.75c0,3.35-1.89,5.14-4.64,5.14-.92,0-1.81-.18-2.44-.57l.53-1.09c.52.34,1.18.46,1.89.46,1.99,0,3.25-1.25,3.25-3.7v-.35c-.57.85-1.61,1.29-2.83,1.29-1.95,0-3.35-1.16-3.35-2.97s1.51-3.1,3.46-3.1c2.63,0,4.12,1.77,4.12,4.89Zm-1.72-1.86c0-1.01-.81-1.89-2.34-1.89-1.27,0-2.16.74-2.16,1.91s.85,1.89,2.23,1.89,2.27-.83,2.27-1.9Z"/><path class="uuid-169d01d0-1754-4038-a3b7-5e9e48177949" d="m175.15,323.75c0,3.35-1.89,5.14-4.64,5.14-.92,0-1.81-.18-2.44-.57l.53-1.09c.52.34,1.18.46,1.89.46,1.99,0,3.25-1.25,3.25-3.7v-.35c-.57.85-1.61,1.29-2.83,1.29-1.95,0-3.35-1.16-3.35-2.97s1.51-3.1,3.46-3.1c2.63,0,4.12,1.77,4.12,4.89Zm-1.72-1.86c0-1.01-.81-1.89-2.34-1.89-1.27,0-2.16.74-2.16,1.91s.85,1.89,2.23,1.89,2.27-.83,2.27-1.9Z"/><path class="uuid-169d01d0-1754-4038-a3b7-5e9e48177949" d="m184.08,325.8c0,1.89-1.53,3.09-3.47,3.09-2.63,0-4.12-1.76-4.12-4.89,0-3.35,1.89-5.14,4.64-5.14.92,0,1.81.18,2.44.57l-.53,1.09c-.5-.34-1.18-.46-1.88-.46-1.99,0-3.26,1.25-3.26,3.7,0,.11,0,.22.01.35.56-.84,1.6-1.29,2.82-1.29,1.95,0,3.36,1.16,3.36,2.97Zm-1.36.06c0-1.15-.87-1.89-2.24-1.89s-2.26.83-2.26,1.91c0,1.01.81,1.89,2.33,1.89,1.27,0,2.17-.74,2.17-1.91Z"/><path class="uuid-169d01d0-1754-4038-a3b7-5e9e48177949" d="m192.42,323.75c0,3.35-1.89,5.14-4.64,5.14-.92,0-1.81-.18-2.44-.57l.53-1.09c.52.34,1.18.46,1.89.46,1.99,0,3.25-1.25,3.25-3.7v-.35c-.57.85-1.61,1.29-2.83,1.29-1.95,0-3.35-1.16-3.35-2.97s1.51-3.1,3.46-3.1c2.63,0,4.12,1.77,4.12,4.89Zm-1.72-1.86c0-1.01-.81-1.89-2.34-1.89-1.27,0-2.16.74-2.16,1.91s.85,1.89,2.23,1.89,2.27-.83,2.27-1.9Z"/><path class="uuid-169d01d0-1754-4038-a3b7-5e9e48177949" d="m201.06,323.75c0,3.35-1.89,5.14-4.64,5.14-.92,0-1.81-.18-2.44-.57l.53-1.09c.52.34,1.18.46,1.89.46,1.99,0,3.25-1.25,3.25-3.7v-.35c-.57.85-1.61,1.29-2.83,1.29-1.95,0-3.35-1.16-3.35-2.97s1.51-3.1,3.46-3.1c2.63,0,4.12,1.77,4.12,4.89Zm-1.72-1.86c0-1.01-.81-1.89-2.34-1.89-1.27,0-2.16.74-2.16,1.91s.85,1.89,2.23,1.89,2.27-.83,2.27-1.9Z"/><path class="uuid-169d01d0-1754-4038-a3b7-5e9e48177949" d="m202.4,323.88c0-3.19,1.71-5.01,4.01-5.01s3.99,1.82,3.99,5.01-1.71,5.01-3.99,5.01-4.01-1.82-4.01-5.01Zm6.6,0c0-2.51-1.06-3.77-2.59-3.77s-2.61,1.26-2.61,3.77,1.06,3.77,2.61,3.77,2.59-1.26,2.59-3.77Z"/><path class="uuid-169d01d0-1754-4038-a3b7-5e9e48177949" d="m211.74,323.88c0-3.19,1.71-5.01,4.01-5.01s3.99,1.82,3.99,5.01-1.71,5.01-3.99,5.01-4.01-1.82-4.01-5.01Zm6.6,0c0-2.51-1.06-3.77-2.59-3.77s-2.61,1.26-2.61,3.77,1.06,3.77,2.61,3.77,2.59-1.26,2.59-3.77Z"/><path class="uuid-169d01d0-1754-4038-a3b7-5e9e48177949" d="m221.08,323.88c0-3.19,1.71-5.01,4.01-5.01s3.99,1.82,3.99,5.01-1.71,5.01-3.99,5.01-4.01-1.82-4.01-5.01Zm6.6,0c0-2.51-1.06-3.77-2.59-3.77s-2.61,1.26-2.61,3.77,1.06,3.77,2.61,3.77,2.59-1.26,2.59-3.77Z"/><path class="uuid-169d01d0-1754-4038-a3b7-5e9e48177949" d="m137.23,357.23h3.77v1.16h-3.77v-1.16Z"/><path class="uuid-169d01d0-1754-4038-a3b7-5e9e48177949" d="m145.26,351.85v9.8h-1.39v-8.59h-2.21v-1.22h3.6Z"/><path class="uuid-169d01d0-1754-4038-a3b7-5e9e48177949" d="m147.37,360.77c0-.56.43-.95.95-.95s.92.39.92.95-.42.97-.92.97-.95-.41-.95-.97Z"/><path class="uuid-169d01d0-1754-4038-a3b7-5e9e48177949" d="m157.87,356.62c0,3.35-1.89,5.14-4.64,5.14-.92,0-1.81-.18-2.44-.57l.53-1.09c.52.34,1.18.46,1.89.46,1.99,0,3.25-1.25,3.25-3.7v-.35c-.57.85-1.61,1.29-2.83,1.29-1.95,0-3.35-1.16-3.35-2.97s1.51-3.1,3.46-3.1c2.63,0,4.12,1.76,4.12,4.89Zm-1.72-1.86c0-1.01-.81-1.89-2.34-1.89-1.27,0-2.16.74-2.16,1.9s.85,1.89,2.23,1.89,2.27-.83,2.27-1.91Z"/><path class="uuid-169d01d0-1754-4038-a3b7-5e9e48177949" d="m166.81,358.67c0,1.89-1.53,3.1-3.47,3.1-2.63,0-4.12-1.76-4.12-4.89,0-3.35,1.89-5.14,4.64-5.14.92,0,1.81.18,2.44.57l-.53,1.09c-.5-.34-1.18-.46-1.88-.46-1.99,0-3.26,1.25-3.26,3.7,0,.11,0,.22.01.35.56-.84,1.6-1.29,2.82-1.29,1.95,0,3.36,1.16,3.36,2.97Zm-1.36.06c0-1.15-.87-1.89-2.24-1.89s-2.26.83-2.26,1.91c0,1.01.81,1.89,2.33,1.89,1.27,0,2.17-.74,2.17-1.91Z"/><path class="uuid-169d01d0-1754-4038-a3b7-5e9e48177949" d="m175.15,356.62c0,3.35-1.89,5.14-4.64,5.14-.92,0-1.81-.18-2.44-.57l.53-1.09c.52.34,1.18.46,1.89.46,1.99,0,3.25-1.25,3.25-3.7v-.35c-.57.85-1.61,1.29-2.83,1.29-1.95,0-3.35-1.16-3.35-2.97s1.51-3.1,3.46-3.1c2.63,0,4.12,1.76,4.12,4.89Zm-1.72-1.86c0-1.01-.81-1.89-2.34-1.89-1.27,0-2.16.74-2.16,1.9s.85,1.89,2.23,1.89,2.27-.83,2.27-1.91Z"/><path class="uuid-169d01d0-1754-4038-a3b7-5e9e48177949" d="m137.23,390.1h3.77v1.16h-3.77v-1.16Z"/><path class="uuid-169d01d0-1754-4038-a3b7-5e9e48177949" d="m145.26,384.72v9.8h-1.39v-8.59h-2.21v-1.22h3.6Z"/><path class="uuid-169d01d0-1754-4038-a3b7-5e9e48177949" d="m147.37,393.64c0-.56.43-.95.95-.95s.92.39.92.95-.42.97-.92.97-.95-.41-.95-.97Z"/><path class="uuid-169d01d0-1754-4038-a3b7-5e9e48177949" d="m157.54,384.72v.95l-3.96,8.85h-1.48l3.88-8.59h-4.48v1.75h-1.34v-2.97h7.4Z"/><path class="uuid-169d01d0-1754-4038-a3b7-5e9e48177949" d="m158.48,389.62c0-3.19,1.71-5.01,4.01-5.01s3.99,1.82,3.99,5.01-1.71,5.01-3.99,5.01-4.01-1.82-4.01-5.01Zm6.6,0c0-2.51-1.06-3.77-2.59-3.77s-2.61,1.26-2.61,3.77,1.06,3.77,2.61,3.77,2.59-1.26,2.59-3.77Z"/><path class="uuid-169d01d0-1754-4038-a3b7-5e9e48177949" d="m174.39,391.64c0,1.65-1.22,3-3.71,3-1.4,0-2.77-.45-3.6-1.19l.64-1.11c.66.62,1.75,1.05,2.96,1.05,1.47,0,2.31-.67,2.31-1.74s-.74-1.71-2.42-1.71h-.78v-.98l2.47-3.03h-4.72v-1.22h6.47v.95l-2.56,3.17c1.96.18,2.96,1.29,2.96,2.8Z"/><path class="uuid-169d01d0-1754-4038-a3b7-5e9e48177949" d="m137.23,422.97h3.77v1.16h-3.77v-1.16Z"/><path class="uuid-169d01d0-1754-4038-a3b7-5e9e48177949" d="m145.26,417.59v9.81h-1.39v-8.59h-2.21v-1.22h3.6Z"/><path class="uuid-169d01d0-1754-4038-a3b7-5e9e48177949" d="m147.37,426.51c0-.56.43-.95.95-.95s.92.39.92.95-.42.97-.92.97-.95-.41-.95-.97Z"/><path class="uuid-169d01d0-1754-4038-a3b7-5e9e48177949" d="m153.43,417.59v9.81h-1.39v-8.59h-2.21v-1.22h3.6Z"/><path class="uuid-169d01d0-1754-4038-a3b7-5e9e48177949" d="m162.46,426.17v1.22h-7.05v-.95l3.99-3.85c1.04-1.01,1.23-1.62,1.23-2.24,0-1.01-.71-1.62-2.09-1.62-1.05,0-1.9.34-2.51,1.06l-.95-.83c.76-.94,2.06-1.49,3.59-1.49,2.04,0,3.36,1.05,3.36,2.73,0,.95-.28,1.81-1.61,3.08l-3,2.89h5.03Z"/><path class="uuid-169d01d0-1754-4038-a3b7-5e9e48177949" d="m170.49,424.45c0,1.69-1.21,3.05-3.71,3.05-1.39,0-2.76-.45-3.6-1.19l.64-1.11c.66.62,1.75,1.05,2.94,1.05,1.48,0,2.33-.69,2.33-1.75s-.7-1.79-2.97-1.79h-2.23l.52-5.13h5.53v1.22h-4.36l-.27,2.69h1.09c2.93,0,4.08,1.22,4.08,2.96Z"/><path class="uuid-169d01d0-1754-4038-a3b7-5e9e48177949" d="m144,459.04v1.22h-7.05v-.95l3.99-3.85c1.04-1.01,1.23-1.62,1.23-2.24,0-1.01-.71-1.62-2.09-1.62-1.05,0-1.9.34-2.51,1.06l-.95-.83c.76-.94,2.06-1.49,3.59-1.49,2.04,0,3.36,1.05,3.36,2.73,0,.95-.28,1.81-1.61,3.08l-3,2.89h5.03Z"/><line class="uuid-a60d28b4-3af2-4fb6-b372-df7d05790536" x1="255.83" y1="46.04" x2="255.83" y2="230.69"/><path class="uuid-579641b6-6a55-473b-8e25-80d10119415b" d="m255.83,239.74c-1.58-4.26-4.28-9.54-7.13-12.82l7.13,2.58,7.13-2.58c-2.86,3.28-5.55,8.56-7.13,12.82Z"/><line class="uuid-a60d28b4-3af2-4fb6-b372-df7d05790536" x1="295.83" y1="469.83" x2="295.83" y2="285.18"/><path class="uuid-579641b6-6a55-473b-8e25-80d10119415b" d="m295.83,276.13c1.58,4.26,4.28,9.54,7.13,12.82l-7.13-2.58-7.13,2.58c2.86-3.28,5.55-8.56,7.13-12.82Z"/></g></svg>