<?xml version="1.0" encoding="UTF-8"?><svg xmlns="http://www.w3.org/2000/svg" xmlns:xlink="http://www.w3.org/1999/xlink" viewBox="0 0 1232.74 1010.14"><defs><style>.e{fill:#fff;}.f{fill:#002949;}.g{clip-path:url(#b);}.g,.h,.i,.j,.k,.l{fill:none;}.m,.n{fill:blue;}.h{stroke:#fff;stroke-linejoin:bevel;stroke-width:3px;}.h,.o{font-family:HelveticaNeue-UltraLight, 'Helvetica Neue';font-size:13.4px;font-weight:100;isolation:isolate;}.i{stroke:rgba(255,0,255,.7);stroke-width:7px;}.i,.l,.n{stroke-linecap:round;stroke-linejoin:round;}.o{fill:#252525;}.j{stroke:#252525;stroke-miterlimit:10;stroke-width:2px;}.p{fill:#00699b;}.l{stroke:rgba(204,153,255,.7);}.l,.n{stroke-width:2.5px;}.n{stroke:rgba(0,0,255,.7);}</style><clipPath id="b"><rect class="k" x="-13.63" y="14.14" width="1232" height="986.27"/></clipPath></defs><g id="a"><g class="g"><rect class="e" x="-13.63" y="15.14" width="1232" height="986.27"/><path class="j" d="m119.29,17.49v982.92"/><path class="j" d="m119.29,16.38l-5.58,5.58"/><path class="j" d="m119.29,16.38l5.58,5.58"/><path class="j" d="m-13.63,875.31h1228.65"/><path class="j" d="m1216.14,875.31l-5.58-5.58"/><path class="j" d="m1216.14,875.31l-5.58,5.58"/><path class="j" d="m119.29,875.31v3.35"/><text class="o" transform="translate(575 892.07)"><tspan x="0" y="0">1</tspan></text><text class="h" transform="translate(575 892.07)"><tspan x="0" y="0">1</tspan></text><text class="o" transform="translate(575 892.07)"><tspan x="0" y="0">1</tspan></text><path class="j" d="m578.36,875.31v3.35"/><text class="o" transform="translate(1032.96 892.07)"><tspan x="0" y="0">2</tspan></text><text class="h" transform="translate(1032.96 892.07)"><tspan x="0" y="0">2</tspan></text><text class="o" transform="translate(1032.96 892.07)"><tspan x="0" y="0">2</tspan></text><path class="j" d="m1037.42,875.31v3.35"/><path class="j" d="m115.94,722.29h3.35"/><path class="j" d="m115.94,569.27h3.35"/><path class="j" d="m115.94,416.25h3.35"/><path class="j" d="m115.94,263.22h3.35"/><path class="j" d="m115.94,111.32h3.35"/><text class="o" transform="translate(103.65 727.88)"><tspan x="0" y="0">1</tspan></text><text class="h" transform="translate(103.65 727.88)"><tspan x="0" y="0">1</tspan></text><text class="o" transform="translate(103.65 727.88)"><tspan x="0" y="0">1</tspan></text><text class="o" transform="translate(103.65 574.85)"><tspan x="0" y="0">2</tspan></text><text class="h" transform="translate(103.65 574.85)"><tspan x="0" y="0">2</tspan></text><text class="o" transform="translate(103.65 574.85)"><tspan x="0" y="0">2</tspan></text><text class="o" transform="translate(103.65 421.83)"><tspan x="0" y="0">3</tspan></text><text class="h" transform="translate(103.65 421.83)"><tspan x="0" y="0">3</tspan></text><text class="o" transform="translate(103.65 421.83)"><tspan x="0" y="0">3</tspan></text><text class="o" transform="translate(103.65 268.81)"><tspan x="0" y="0">4</tspan></text><text class="h" transform="translate(103.65 268.81)"><tspan x="0" y="0">4</tspan></text><text class="o" transform="translate(103.65 268.81)"><tspan x="0" y="0">4</tspan></text><text class="o" transform="translate(103.65 115.79)"><tspan x="0" y="0">5</tspan></text><text class="h" transform="translate(103.65 115.79)"><tspan x="0" y="0">5</tspan></text><text class="o" transform="translate(103.65 115.79)"><tspan x="0" y="0">5</tspan></text><text class="o" transform="translate(103.65 892.07)"><tspan x="0" y="0">0</tspan></text><text class="h" transform="translate(103.65 892.07)"><tspan x="0" y="0">0</tspan></text><text class="o" transform="translate(103.65 892.07)"><tspan x="0" y="0">0</tspan></text><path class="i" d="m-13.07,818.03v.14-.14l1.12-.14h0l1.12-.14h0l1.12-.14h0l1.12-.14h0l1.12-.14h0l1.12-.14h0l1.12-.14h0l1.12-.14h0l1.12-.14h0l1.12-.14h0l1.12-.14h0l1.12-.14H.33l1.12-.14h0l1.12-.14h0l1.12-.14h0l1.12-.14h0l1.12-.15h0l1.12-.15h0l1.12-.15h0l1.12-.15h0l1.12-.15h0l1.12-.15h0l1.12-.15h0l1.12-.15h0l1.12-.15h0l1.12-.15h0l1.12-.15h0l1.12-.15h0l1.12-.15h0l1.12-.15h0l1.12-.15h0l1.12-.15h0l1.12-.15h0l1.12-.15h0l1.12-.15h0l1.12-.15h0l1.12-.15h0l1.12-.15h0l1.12-.15h0l1.12-.15h0l1.12-.15h0l1.12-.15h0l1.12-.15h0l1.12-.15h0l1.12-.16h0l1.12-.16h0l1.12-.16h0l1.12-.16h0l1.12-.16h0l1.12-.16h0l1.12-.16h0l1.12-.16h0l1.12-.16h0l1.12-.16h0l1.12-.16h0l1.12-.16h0l1.12-.16h0l1.12-.16h0l1.12-.16h0l1.12-.16h0l1.12-.16h0l1.12-.16h0l1.12-.16h0l1.12-.16h0l1.12-.16h0l1.12-.16h0l1.12-.16h0l1.12-.16h0l1.12-.16h0l1.12-.17h0l1.12-.17h0l1.12-.17h0l1.12-.17h0l1.12-.17h0l1.12-.17h0l1.12-.17h0l1.12-.17h0l1.12-.17h0l1.12-.17h0l1.12-.17h0l1.12-.17h0l1.12-.17h0l1.12-.17h0l1.12-.17h0l1.12-.17h0l1.12-.17h0l1.12-.17h0l1.12-.17h0l1.12-.17h0l1.12-.17h0l1.12-.17h0l1.12-.17h0l1.12-.17h0l1.12-.18h0l1.12-.18h0l1.12-.18h0l1.12-.18h0l1.12-.18h0l1.12-.18h0l1.12-.18h0l1.12-.18h0l1.12-.18h0l1.12-.18h0l1.12-.18h0l1.12-.18h0l1.12-.18h0l1.12-.18h0l1.12-.18h0l1.12-.18h0l1.12-.18h0l1.12-.18h0l1.12-.18h0l1.12-.18h0l1.12-.18h0l1.12-.18h0l1.12-.18h0l1.12-.19h0l1.12-.19h0l1.12-.19h0l1.12-.19h0l1.12-.19h0l1.12-.19h0l1.12-.19h0l1.12-.19h0l1.12-.19h0l1.12-.19h0l1.12-.19h0l1.12-.19h0l1.12-.19h0l1.12-.19h0l1.12-.19h0l1.12-.19h0l1.12-.19h0l1.12-.19h0l1.12-.19h0l1.12-.19h0l1.12-.19h0l1.12-.19h0l1.12-.2h0l1.12-.2h0l1.12-.2h0l1.12-.2h0l1.12-.2h0l1.12-.2h0l1.12-.2h0l1.12-.2h0l1.12-.2h0l1.12-.2h0l1.12-.2h0l1.12-.2h0l1.12-.2h0l1.12-.2h0l1.12-.2h0l1.12-.2h0l1.12-.2h0l1.12-.2h0l1.12-.2h0l1.12-.2h0l1.12-.21h0l1.12-.21h0l1.12-.21h0l1.12-.21h0l1.12-.21h0l1.12-.21h0l1.12-.21h0l1.12-.21h0l1.12-.21h0l1.12-.21h0l1.12-.21h0l1.12-.21h0l1.12-.21h0l1.12-.21h0l1.12-.21h0l1.12-.21h0l1.12-.21h0l1.12-.21h0l1.12-.21h0l1.12-.21h0l1.12-.22h0l1.12-.22h0l1.12-.22h0l1.12-.22h0l1.12-.22h0l1.12-.22h0l1.12-.22h0l1.12-.22h0l1.12-.22h0l1.12-.22h0l1.12-.22h0l1.12-.22h0l1.12-.22h0l1.12-.22h0l1.12-.22h0l1.12-.22h0l1.12-.22h0l1.12-.22h0l1.12-.22h0l1.12-.23h0l1.12-.23h0l1.12-.23h0l1.12-.23h0l1.12-.23h0l1.12-.23h0l1.12-.23h0l1.12-.23h0l1.12-.23h0l1.12-.23h0l1.12-.23h0l1.12-.23h0l1.12-.23h0l1.12-.23h0l1.12-.23h0l1.12-.23h0l1.12-.23h0l1.12-.24h0l1.12-.24h0l1.12-.24h0l1.12-.24h0l1.12-.24h0l1.12-.24h0l1.12-.24h0l1.12-.24h0l1.12-.24h0l1.12-.24h0l1.12-.24h0l1.12-.24h0l1.12-.24h0l1.12-.24h0l1.12-.24h0l1.12-.24h0l1.12-.24h0l1.12-.24h0l1.12-.25h0l1.12-.25h0l1.12-.25h0l1.12-.25h0l1.12-.25h0l1.12-.25h0l1.12-.25h0l1.12-.25h0l1.12-.25h0l1.12-.25h0l1.12-.25h0l1.12-.25h0l1.12-.25h0l1.12-.25h0l1.12-.25h0l1.12-.25h0l1.12-.26h0l1.12-.26h0l1.12-.26h0l1.12-.26h0l1.12-.26h0l1.12-.26h0l1.12-.26h0l1.12-.26h0l1.12-.26h0l1.12-.26h0l1.12-.26h0l1.12-.26h0l1.12-.26h0l1.12-.26h0l1.12-.26h0l1.12-.26h0l1.12-.27h0l1.12-.27h0l1.12-.27h0l1.12-.27h0l1.12-.27h0l1.12-.27h0l1.12-.27h0l1.12-.27h0l1.12-.27h0l1.12-.27h0l1.12-.27h0l1.12-.27h0l1.12-.27h0l1.12-.27h0l1.12-.27h0l1.12-.28h0l1.12-.28h0l1.12-.28h0l1.12-.28h0l1.12-.28h0l1.12-.28h0l1.12-.28h0l1.12-.28h0l1.12-.28h0l1.12-.28h0l1.12-.28h0l1.12-.28h0l1.12-.28h0l1.12-.28h0l1.12-.28h0l1.12-.29h0l1.12-.29h0l1.12-.29h0l1.12-.29h0l1.12-.29h0l1.12-.29h0l1.12-.29h0l1.12-.29h0l1.12-.29h0l1.12-.29h0l1.12-.29h0l1.12-.29h0l1.12-.29h0l1.12-.29h0l1.12-.3h0l1.12-.3h0l1.12-.3h0l1.12-.3h0l1.12-.3h0l1.12-.3h0l1.12-.3h0l1.12-.3h0l1.12-.3h0l1.12-.3h0l1.12-.3h0l1.12-.3h0l1.12-.3h0l1.12-.3h0l1.12-.31h0l1.12-.31h0l1.12-.31h0l1.12-.31h0l1.12-.31h0l1.12-.31h0l1.12-.31h0l1.12-.31h0l1.12-.31h0l1.12-.31h0l1.12-.31h0l1.12-.31h0l1.12-.31h0l1.12-.32h0l1.12-.32h0l1.12-.32h0l1.12-.32h0l1.12-.32h0l1.12-.32h0l1.12-.32h0l1.12-.32h0l1.12-.32h0l1.12-.32h0l1.12-.32h0l1.12-.32h0l1.12-.32h0l1.12-.33h0l1.12-.33h0l1.12-.33h0l1.12-.33h0l1.12-.33h0l1.12-.33h0l1.12-.33h0l1.12-.33h0l1.12-.33h0l1.12-.33h0l1.12-.33h0l1.12-.33h0l1.12-.34h0l1.12-.34h0l1.12-.34h0l1.12-.34h0l1.12-.34h0l1.12-.34h0l1.12-.34h0l1.12-.34h0l1.12-.34h0l1.12-.34h0l1.12-.34h0l1.12-.34h0l1.12-.35h0l1.12-.35h0l1.12-.35h0l1.12-.35h0l1.12-.35h0l1.12-.35h0l1.12-.35h0l1.12-.35h0l1.12-.35h0l1.12-.35h0l1.12-.35h0l1.12-.35h0l1.12-.36h0l1.12-.36h0l1.12-.36h0l1.12-.36h0l1.12-.36h0l1.12-.36h0l1.12-.36h0l1.12-.36h0l1.12-.36h0l1.12-.36h0l1.12-.36h0l1.12-.37h0l1.12-.37h0l1.12-.37h0l1.12-.37h0l1.12-.37h0l1.12-.37h0l1.12-.37h0l1.12-.37h0l1.12-.37h0l1.12-.37h0l1.12-.37h0l1.12-.38h0l1.12-.38h0l1.12-.38h0l1.12-.38h0l1.12-.38h0l1.12-.38h0l1.12-.38h0l1.12-.38h0l1.12-.38h0l1.12-.38h0l1.12-.38h0l1.12-.39h0l1.12-.39h0l1.12-.39h0l1.12-.39h0l1.12-.39h0l1.12-.39h0l1.12-.39h0l1.12-.39h0l1.12-.39h0l1.12-.39h0l1.12-.39h0l1.12-.4h0l1.12-.4h0l1.12-.4h0l1.12-.4h0l1.12-.4h0l1.12-.4h0l1.12-.4h0l1.12-.4h0l1.12-.4h0l1.12-.4h0l1.12-.41h0l1.12-.41h0l1.12-.41h0l1.12-.41h0l1.12-.41h0l1.12-.41h0l1.12-.41h0l1.12-.41h0l1.12-.41h0l1.12-.41h0l1.12-.42h0l1.12-.42h0l1.12-.42h0l1.12-.42h0l1.12-.42h0l1.12-.42h0l1.12-.42h0l1.12-.42h0l1.12-.42h0l1.12-.42h0l1.12-.43h0l1.12-.43h0l1.12-.43h0l1.12-.43h0l1.12-.43h0l1.12-.43h0l1.12-.43h0l1.12-.43h0l1.12-.43h0l1.12-.44h0l1.12-.44h0l1.12-.44h0l1.12-.44h0l1.12-.44h0l1.12-.44h0l1.12-.44h0l1.12-.44h0l1.12-.44h0l1.12-.44h0l1.12-.45h0l1.12-.45h0l1.12-.45h0l1.12-.45h0l1.12-.45h0l1.12-.45h0l1.12-.45h0l1.12-.45h0l1.12-.45h0l1.12-.46h0l1.12-.46h0l1.12-.46h0l1.12-.46h0l1.12-.46h0l1.12-.46h0l1.12-.46h0l1.12-.46h0l1.12-.46h0l1.12-.47h0l1.12-.47h0l1.12-.47h0l1.12-.47h0l1.12-.47h0l1.12-.47h0l1.12-.47h0l1.12-.47h0l1.12-.48h0l1.12-.48h0l1.12-.48h0l1.12-.48h0l1.12-.48h0l1.12-.48h0l1.12-.48h0l1.12-.48h0l1.12-.48h0l1.12-.49h0l1.12-.49h0l1.12-.49h0l1.12-.49h0l1.12-.49h0l1.12-.49h0l1.12-.49h0l1.12-.49h0l1.12-.5h0l1.12-.5h0l1.12-.5h0l1.12-.5h0l1.12-.5h0l1.12-.5h0l1.12-.5h0l1.12-.5h0l1.12-.5h0l1.12-.51h0l1.12-.51h0l1.12-.51h0l1.12-.51h0l1.12-.51h0l1.12-.51h0l1.12-.51h0l1.12-.51h0l1.12-.52h0l1.12-.52h0l1.12-.52h0l1.12-.52h0l1.12-.52h0l1.12-.52h0l1.12-.52h0l1.12-.52h0l1.12-.53h0l1.12-.53h0l1.12-.53h0l1.12-.53h0l1.12-.53h0l1.12-.53h0l1.12-.53h0l1.12-.54h0l1.12-.54h0l1.12-.54h0l1.12-.54h0l1.12-.54h0l1.12-.54h0l1.12-.54h0l1.12-.54h0l1.12-.55h0l1.12-.55h0l1.12-.55h0l1.12-.55h0l1.12-.55h0l1.12-.55h0l1.12-.55h0l1.12-.56h0l1.12-.56h0l1.12-.56h0l1.12-.56h0l1.12-.56h0l1.12-.56h0l1.12-.56h0l1.12-.56h0l1.12-.57h0l1.12-.57h0l1.12-.57h0l1.12-.57h0l1.12-.57h0l1.12-.57h0l1.12-.57h0l1.12-.58h0l1.12-.58h0l1.12-.58h0l1.12-.58h0l1.12-.58h0l1.12-.58h0l1.12-.58h0l1.12-.59h0l1.12-.59h0l1.12-.59h0l1.12-.59h0l1.12-.59h0l1.12-.59h0l1.12-.59h0l1.12-.6h0l1.12-.6h0l1.12-.6h0l1.12-.6h0l1.12-.6h0l1.12-.6h0l1.12-.6h0l1.12-.61h0l1.12-.61h0l1.12-.61h0l1.12-.61h0l1.12-.61h0l1.12-.61h0l1.12-.61h0l1.12-.62h0l1.12-.62h0l1.12-.62h0l1.12-.62h0l1.12-.62h0l1.12-.62h0l1.12-.63h0l1.12-.63h0l1.12-.63h0l1.12-.63h0l1.12-.63h0l1.12-.63h0l1.12-.63h0l1.12-.64h0l1.12-.64h0l1.12-.64h0l1.12-.64h0l1.12-.64h0l1.12-.64h0l1.12-.65h0l1.12-.65h0l1.12-.65h0l1.12-.65h0l1.12-.65h0l1.12-.65h0l1.12-.66h0l1.12-.66h0l1.12-.66h0l1.12-.66h0l1.12-.66h0l1.12-.66h0l1.12-.66h0l1.12-.67h0l1.12-.67h0l1.12-.67h0l1.12-.67h0l1.12-.67h0l1.12-.67h0l1.12-.68h0l1.12-.68h0l1.12-.68h0l1.12-.68h0l1.12-.68h0l1.12-.68h0l1.12-.69h0l1.12-.69h0l1.12-.69h0l1.12-.69h0l1.12-.69h0l1.12-.69h0l1.12-.7h0l1.12-.7h0l1.12-.7h0l1.12-.7h0l1.12-.7h0l1.12-.7h0l1.12-.71h0l1.12-.71h0l1.12-.71h0l1.12-.71h0l1.12-.71h0l1.12-.72h0l1.12-.72h0l1.12-.72h0l1.12-.72h0l1.12-.72h0l1.12-.72h0l1.12-.73h0l1.12-.73h0l1.12-.73h0l1.12-.73h0l1.12-.73h0l1.12-.73h0l1.12-.74h0l1.12-.74h0l1.12-.74h0l1.12-.74h0l1.12-.74h0l1.12-.75h0l1.12-.75h0l1.12-.75h0l1.12-.75h0l1.12-.75h0l1.12-.75h0l1.12-.76h0l1.12-.76h0l1.12-.76h0l1.12-.76h0l1.12-.76h0l1.12-.77h0l1.12-.77h0l1.12-.77h0l1.12-.77h0l1.12-.77h0l1.12-.77h0l1.12-.78h0l1.12-.78h0l1.12-.78h0l1.12-.78h0l1.12-.78h0l1.12-.79h0l1.12-.79h0l1.12-.79h0l1.12-.79h0l1.12-.79h0l1.12-.8h0l1.12-.8h0l1.12-.8h0l1.12-.8h0l1.12-.8h0l1.12-.81h0l1.12-.81h0l1.12-.81h0l1.12-.81h0l1.12-.81h0l1.12-.82h0l1.12-.82h0l1.12-.82h0l1.12-.82h0l1.12-.82h0l1.12-.83h0l1.12-.83h0l1.12-.83h0l1.12-.83h0l1.12-.83h0l1.12-.84h0l1.12-.84h0l1.12-.84h0l1.12-.84h0l1.12-.84h0l1.12-.85h0l1.12-.85h0l1.12-.85h0l1.12-.85h0l1.12-.85h0l1.12-.86h0l1.12-.86h0l1.12-.86h0l1.12-.86h0l1.12-.86h0l1.12-.87h0l1.12-.87h0l1.12-.87h0l1.12-.87h0l1.12-.88h0l1.12-.88h0l1.12-.88h0l1.12-.88h0l1.12-.88h0l1.12-.89h0l1.12-.89h0l1.12-.89h0l1.12-.89h0l1.12-.89h0l1.12-.9h0l1.12-.9h0l1.12-.9h0l1.12-.9h0l1.12-.91h0l1.12-.91h0l1.12-.91h0l1.12-.91h0l1.12-.91h0l1.12-.92h0l1.12-.92h0l1.12-.92h0l1.12-.92h0l1.12-.93h0l1.12-.93h0l1.12-.93h0l1.12-.93h0l1.12-.93h0l1.12-.94h0l1.12-.94h0l1.12-.94h0l1.12-.94h0l1.12-.95h0l1.12-.95h0l1.12-.95h0l1.12-.95h0l1.12-.96h0l1.12-.96h0l1.12-.96h0l1.12-.96h0l1.12-.96h0l1.12-.97h0l1.12-.97h0l1.12-.97h0l1.12-.97h0l1.12-.98h0l1.12-.98h0l1.12-.98h0l1.12-.98h0l1.12-.99h0l1.12-.99h0l1.12-.99h0l1.12-.99h0l1.12-1h0l1.12-1h0l1.12-1h0l1.12-1h0l1.12-1.01h0l1.12-1.01h0l1.12-1.01h0l1.12-1.01h0l1.12-1.02h0l1.12-1.02h0l1.12-1.02h0l1.12-1.02h0l1.12-1.03h0l1.12-1.03h0l1.12-1.03h0l1.12-1.03h0l1.12-1.04h0l1.12-1.04h0l1.12-1.04h0l1.12-1.04h0l1.12-1.05h0l1.12-1.05h0l1.12-1.05h0l1.12-1.05h0l1.12-1.06h0l1.12-1.06h0l1.12-1.06h0l1.12-1.06h0l1.12-1.07h0l1.12-1.07h0l1.12-1.07h0l1.12-1.07h0l1.12-1.08h0l1.12-1.08h0l1.12-1.08h0l1.12-1.08h0l1.12-1.09h0l1.12-1.09h0l1.12-1.09h0l1.12-1.1h0l1.12-1.1h0l1.12-1.1h0l1.12-1.1h0l1.12-1.11h0l1.12-1.11h0l1.12-1.11h0l1.12-1.11h0l1.12-1.12h0l1.12-1.12h0l1.12-1.12h0l1.12-1.12h0l1.12-1.13h0l1.12-1.13h0l1.12-1.13h0l1.12-1.14h0l1.12-1.14h0l1.12-1.14h0l1.12-1.14h0l1.12-1.15h0l1.12-1.15h0l1.12-1.15h0l1.12-1.16h0l1.12-1.16h0l1.12-1.16h0l1.12-1.16h0l1.12-1.17h0l1.12-1.17h0l1.12-1.17h0l1.12-1.18h0l1.12-1.18h0l1.12-1.18h0l1.12-1.18h0l1.12-1.19h0l1.12-1.19h0l1.12-1.19h0l1.12-1.2h0l1.12-1.2h0l1.12-1.2h0l1.12-1.2h0l1.12-1.21h0l1.12-1.21h0l1.12-1.21h0l1.12-1.22h0l1.12-1.22h0l1.12-1.22h0l1.12-1.23h0l1.12-1.23h0l1.12-1.23h0l1.12-1.23h0l1.12-1.24h0l1.12-1.24h0l1.12-1.24h0l1.12-1.25h0l1.12-1.25h0l1.12-1.25h0l1.12-1.26h0l1.12-1.26h0l1.12-1.26h0l1.12-1.26h0l1.12-1.27h0l1.12-1.27h0l1.12-1.27h0l1.12-1.28h0l1.12-1.28h0l1.12-1.28h0l1.12-1.29h0l1.12-1.29h0l1.12-1.29h0l1.12-1.3h0l1.12-1.3h0l1.12-1.3h0l1.12-1.31h0l1.12-1.31h0l1.12-1.31h0l1.12-1.31h0l1.12-1.32h0l1.12-1.32h0l1.12-1.32h0l1.12-1.33h0l1.12-1.33h0l1.12-1.33h0l1.12-1.34h0l1.12-1.34h0l1.12-1.34h0l1.12-1.35h0l1.12-1.35h0l1.12-1.35h0l1.12-1.36h0l1.12-1.36h0l1.12-1.36h0l1.12-1.37h0l1.12-1.37h0l1.12-1.37h0l1.12-1.38h0l1.12-1.38h0l1.12-1.38h0l1.12-1.39h0l1.12-1.39h0l1.12-1.39h0l1.12-1.4h0l1.12-1.4h0l1.12-1.4h0l1.12-1.41h0l1.12-1.41h0l1.12-1.41h0l1.12-1.42h0l1.12-1.42h0l1.12-1.42h0l1.12-1.43h0l1.12-1.43h0l1.12-1.44h0l1.12-1.44h0l1.12-1.44h0l1.12-1.45h0l1.12-1.45h0l1.12-1.45h0l1.12-1.46h0l1.12-1.46h0l1.12-1.46h0l1.12-1.47h0l1.12-1.47h0l1.12-1.47h0l1.12-1.48h0l1.12-1.48h0l1.12-1.48h0l1.12-1.49h0l1.12-1.49h0l1.12-1.5h0l1.12-1.5h0l1.12-1.5h0l1.12-1.51h0l1.12-1.51h0l1.12-1.51h0l1.12-1.52h0l1.12-1.52h0l1.12-1.53h0l1.12-1.53h0l1.12-1.53h0l1.12-1.54h0l1.12-1.54h0l1.12-1.54h0l1.12-1.55h0l1.12-1.55h0l1.12-1.56h0l1.12-1.56h0l1.12-1.56h0l1.12-1.57h0l1.12-1.57h0l1.12-1.57h0l1.12-1.58h0l1.12-1.58h0l1.12-1.59h0l1.12-1.59h0l1.12-1.59h0l1.12-1.6h0l1.12-1.6h0l1.12-1.61h0l1.12-1.61h0l1.12-1.61h0l1.12-1.62h0l1.12-1.62h0l1.12-1.62h0l1.12-1.63h0l1.12-1.63h0l1.12-1.64h0l1.12-1.64h0l1.12-1.64h0l1.12-1.65h0l1.12-1.65h0l1.12-1.66h0l1.12-1.66h0l1.12-1.66h0l1.12-1.67h0l1.12-1.67h0l1.12-1.68h0l1.12-1.68h0l1.12-1.69h0l1.12-1.69h0l1.12-1.69h0l1.12-1.7h0l1.12-1.7h0l1.12-1.71h0l1.12-1.71h0l1.12-1.71h0l1.12-1.72h0l1.12-1.72h0l1.12-1.73h0l1.12-1.73h0l1.12-1.74h0l1.12-1.74h0l1.12-1.74h0l1.12-1.75h0l1.12-1.75h0l1.12-1.76h0l1.12-1.76h0l1.12-1.77h0l1.12-1.77h0l1.12-1.77h0l1.12-1.78h0l1.12-1.78h0l1.12-1.79h0l1.12-1.79h0l1.12-1.8h0l1.12-1.8h0l1.12-1.8h0l1.12-1.81h0l1.12-1.81h0l1.12-1.82h0l1.12-1.82h0l1.12-1.83h0l1.12-1.83h0l1.12-1.84h0l1.12-1.84h0l1.12-1.84h0l1.12-1.85h0l1.12-1.85h0l1.12-1.86h0l1.12-1.86h0l1.12-1.87h0l1.12-1.87h0l1.12-1.88h0l1.12-1.88h0l1.12-1.89h0l1.12-1.89h0l1.12-1.89h0l1.12-1.9h0l1.12-1.9h0l1.12-1.91h0l1.12-1.91h0l1.12-1.92h0l1.12-1.92h0l1.12-1.93h0l1.12-1.93h0l1.12-1.94h0l1.12-1.94h0l1.12-1.95h0l1.12-1.95h0l1.12-1.96h0l1.12-1.96h0l1.12-1.96h0l1.12-1.97h0l1.12-1.97h0l1.12-1.98h0l1.12-1.98h0l1.12-1.99h0l1.12-1.99h0l1.12-2h0l1.12-2h0l1.12-2.01h0l1.12-2.01h0l1.12-2.02h0l1.12-2.02h0l1.12-2.03h0l1.12-2.03h0l1.12-2.04h0l1.12-2.04"/><path class="l" d="m119.65,667.34l458.66,1.53"/><path class="l" d="m578.3,668.87v206.4"/><path class="l" d="m119.65,594.8l596.25.69"/><path class="l" d="m715.9,595.49v279.78"/><path class="n" d="m99.65,532.23l708.24.3"/><path class="n" d="m807.63,531.7v363.56"/><path class="l" d="m119.65,549.33l665.05.29"/><path class="l" d="m119.65,515.14l710.92.84"/><path class="l" d="m784.7,549.62v325.65"/><path class="l" d="m830.57,515.99v359.28"/><path class="l" d="m119.65,456.81l779.72,1.08"/><path class="l" d="m899.36,457.89v417.38"/><path class="l" d="m119.65,310.43l917.31.69"/><path class="l" d="m1036.96,311.12v564.15"/></g></g><g id="c"><path class="p" d="m-2-1.77v1013.91h1237V-1.77H-2Zm1220,976.91c0,11.05-8.95,20-20,20H35c-11.05,0-20-8.95-20-20V35.23c0-11.05,8.95-20,20-20h1163c11.05,0,20,8.95,20,20v939.91Z"/></g><g id="d"><path class="f" d="m1109.03,286.77c-.6,2.83-1.52,4.93-2.75,6.32s-2.79,2.08-4.67,2.08c-.55,0-.98-.03-1.29-.1l.33-1.72c.13.04.44.06.92.06.59,0,1.09-.15,1.5-.45s.8-.82,1.16-1.56.69-1.77.99-3.09l4.2-18.57h-3.3l.29-1.35c.87-.05,1.5-.12,1.88-.21s.68-.23.9-.41.4-.42.55-.71.34-.83.58-1.61c.69-2.34,1.75-4.1,3.19-5.28s3.27-1.77,5.5-1.77c1.28,0,2.38.1,3.3.31l-.76,3.32h-1.72c-.18-.74-.42-1.28-.71-1.6s-.73-.49-1.3-.49c-.74,0-1.37.21-1.88.62s-.95,1.02-1.32,1.83-.7,1.89-1.02,3.26l-.49,2.13h5.02l-.43,1.97h-5.04l-3.63,17.03Z"/><path class="f" d="m1129.5,276.55c0,4.56.73,8.31,2.2,11.27s3.7,4.93,6.71,5.94l-.47,1.5c-3.82-1-6.74-3.16-8.77-6.47s-3.05-7.33-3.05-12.04,1.02-8.71,3.06-12.04,4.96-5.49,8.76-6.49l.53,1.5c-3.05,1-5.3,2.96-6.77,5.87s-2.2,6.57-2.2,10.97Z"/><path class="f" d="m1148.52,277.61c-.2-1.03-.4-2.02-.61-2.97s-.42-1.84-.64-2.66-.4-1.36-.55-1.61-.3-.43-.46-.53-.37-.15-.62-.15c-.27,0-.52.06-.74.19s-.46.34-.72.64-.61.78-1.04,1.44l-1.27-.84c.82-1.24,1.61-2.16,2.36-2.77s1.65-.92,2.68-.92c.4,0,.76.05,1.06.14s.58.23.81.42.44.43.62.73.36.71.53,1.22.33,1.15.48,1.91.28,1.55.4,2.37h.2c1.25-1.76,2.2-3.04,2.84-3.86s1.19-1.42,1.63-1.82.87-.68,1.28-.84.95-.24,1.63-.24c.61,0,1.11.08,1.5.23l-.78,3.54h-1.37c-.08-.55-.31-.82-.68-.82-.12,0-.24.02-.37.06s-.29.12-.48.25-.47.38-.83.76-.77.84-1.23,1.39-.92,1.12-1.41,1.72l-1.33,1.66c.23,1.25.46,2.33.66,3.24s.39,1.67.56,2.28.31,1.08.43,1.44.26.62.4.79.29.3.44.37.32.11.52.11c.35,0,.69-.14,1.03-.41s.81-.89,1.44-1.86l1.27.84c-.91,1.35-1.74,2.31-2.47,2.86s-1.61.83-2.63.83c-.56,0-1.04-.1-1.43-.3s-.73-.52-1.02-.97-.54-1.13-.76-2.07c-.4-1.67-.65-2.94-.74-3.83h-.2c-1.38,1.94-2.41,3.33-3.08,4.18s-1.22,1.47-1.66,1.88-.86.69-1.27.85-.95.24-1.63.24c-.61,0-1.11-.08-1.5-.23l.78-3.54h1.37c.08.55.31.82.68.82.18,0,.37-.05.58-.15s.49-.33.87-.7.9-.95,1.56-1.75,1.63-1.99,2.89-3.57Z"/><path class="f" d="m1170.2,276.55c0-4.4-.73-8.06-2.19-10.97s-3.72-4.87-6.78-5.87l.53-1.5c3.8,1,6.72,3.17,8.76,6.49s3.06,7.34,3.06,12.04-1.02,8.73-3.05,12.04-4.95,5.47-8.77,6.47l-.47-1.5c3.01-1,5.24-2.98,6.71-5.94s2.2-6.71,2.2-11.27Z"/><path class="m" d="m37.68,538.68c-.45,2.12-1.14,3.7-2.07,4.74-.93,1.04-2.09,1.56-3.5,1.56-.41,0-.73-.02-.97-.07l.25-1.29c.1.03.33.04.69.04.44,0,.82-.11,1.13-.34s.6-.62.87-1.17.52-1.33.74-2.31l3.15-13.93h-2.48l.22-1.01c.65-.04,1.13-.09,1.41-.16s.51-.17.67-.31.3-.31.41-.54c.11-.22.26-.62.43-1.21.52-1.76,1.32-3.08,2.4-3.96s2.45-1.33,4.12-1.33c.96,0,1.78.08,2.48.23l-.57,2.49h-1.29c-.14-.56-.31-.96-.53-1.2s-.54-.37-.97-.37c-.56,0-1.03.15-1.41.46-.39.31-.72.76-.99,1.37s-.53,1.42-.76,2.45l-.37,1.6h3.76l-.32,1.48h-3.78l-2.72,12.77Z"/><path class="m" d="m53.03,531.02c0,3.42.55,6.24,1.65,8.45s2.78,3.7,5.03,4.45l-.35,1.13c-2.86-.75-5.05-2.37-6.58-4.86-1.52-2.49-2.29-5.5-2.29-9.03s.76-6.54,2.29-9.03c1.53-2.49,3.72-4.12,6.57-4.87l.4,1.13c-2.29.75-3.98,2.22-5.08,4.4-1.1,2.18-1.65,4.92-1.65,8.22Z"/><path class="m" d="m72.9,525.15l1.35-.97.94.23-2.15,9.29c-.21.93-.32,1.65-.32,2.17,0,.39.06.67.19.85s.33.26.6.26c.29,0,.61-.12.94-.36s.8-.7,1.41-1.37l.83.82c-.88.94-1.63,1.6-2.25,2-.62.4-1.29.59-2.01.59-.61,0-1.09-.2-1.45-.6s-.54-.93-.54-1.6c0-.54.11-1.11.34-1.71l-.19-.06c-.94,1.37-1.83,2.37-2.67,3s-1.73.95-2.67.95c-1.07,0-1.91-.41-2.5-1.22s-.89-1.95-.89-3.41c0-1.68.33-3.29.99-4.84s1.56-2.77,2.72-3.66c1.15-.89,2.44-1.34,3.85-1.34.63,0,1.23.07,1.78.21.55.14,1.12.39,1.71.75Zm-1.29,4.37c.09-.4.15-.75.18-1.04s.04-.61.04-.95c0-.75-.16-1.3-.48-1.66s-.87-.53-1.64-.53c-1.01,0-1.91.41-2.71,1.22s-1.43,1.9-1.88,3.26c-.45,1.36-.67,2.72-.67,4.08,0,1.02.14,1.78.42,2.28.28.5.74.75,1.4.75s1.28-.28,1.9-.83,1.26-1.35,1.92-2.38c.66-1.03,1.13-2.22,1.4-3.57l.13-.63Z"/><path class="m" d="m84.31,531.02c0-3.3-.55-6.04-1.64-8.22-1.09-2.18-2.79-3.65-5.08-4.4l.4-1.13c2.85.75,5.04,2.38,6.57,4.87,1.53,2.5,2.29,5.51,2.29,9.03s-.76,6.55-2.29,9.03c-1.52,2.48-3.72,4.1-6.58,4.86l-.35-1.13c2.26-.75,3.93-2.24,5.03-4.45s1.65-5.03,1.65-8.45Z"/><path class="m" d="m810.53,913.32l1.35-.97.94.23-2.15,9.29c-.21.93-.32,1.65-.32,2.17,0,.39.06.67.19.85s.33.26.6.26c.29,0,.61-.12.94-.36s.8-.7,1.41-1.37l.83.82c-.88.94-1.63,1.6-2.25,2-.62.4-1.29.59-2.01.59-.61,0-1.09-.2-1.45-.6s-.54-.93-.54-1.6c0-.54.11-1.11.34-1.71l-.19-.06c-.94,1.37-1.83,2.37-2.67,3s-1.73.95-2.67.95c-1.07,0-1.91-.41-2.5-1.22s-.89-1.95-.89-3.41c0-1.68.33-3.29.99-4.84s1.56-2.77,2.72-3.66c1.15-.89,2.44-1.34,3.85-1.34.63,0,1.23.07,1.78.21.55.14,1.12.39,1.71.75Zm-1.29,4.37c.09-.4.15-.75.18-1.04s.04-.61.04-.95c0-.75-.16-1.3-.48-1.66s-.87-.53-1.64-.53c-1.01,0-1.91.41-2.71,1.22s-1.43,1.9-1.88,3.26c-.45,1.36-.67,2.72-.67,4.08,0,1.02.14,1.78.42,2.28.28.5.74.75,1.4.75s1.28-.28,1.9-.83,1.26-1.35,1.92-2.38c.66-1.03,1.12-2.22,1.4-3.57l.13-.63Z"/></g></svg>