<?xml version="1.0" encoding="UTF-8"?><svg xmlns="http://www.w3.org/2000/svg" xmlns:xlink="http://www.w3.org/1999/xlink" viewBox="0 0 1232.74 1010.14"><defs><style>.e{fill:#fff;}.f{fill:#002949;}.g{stroke:#fff;stroke-linejoin:bevel;stroke-width:3px;}.g,.h,.i,.j,.k,.l,.m{fill:none;}.g,.n{font-family:HelveticaNeue-UltraLight, 'Helvetica Neue';font-size:13.38px;font-weight:100;isolation:isolate;}.h{stroke:rgba(46,125,50,.7);}.h,.l{stroke-width:2.5px;}.h,.l,.m{stroke-linecap:round;stroke-linejoin:round;}.i{clip-path:url(#b);}.o{fill:blue;}.n{fill:#252525;}.j{stroke:#252525;stroke-miterlimit:10;stroke-width:2px;}.p{fill:#00699b;}.l{stroke:rgba(0,0,255,.7);}.m{stroke:rgba(219,97,20,.8);stroke-width:7px;}</style><clipPath id="b"><rect class="k" x="15" y="6.14" width="1203.37" height="989.24"/></clipPath></defs><g id="a"><g class="i"><rect class="e" x="15" y="6.14" width="1203.37" height="989.24"/><path class="j" d="m331.73,9.49v985.89"/><path class="j" d="m331.73,16.37l-5.58,5.58"/><path class="j" d="m331.73,16.37l5.58,5.58"/><path class="j" d="m15,415.44h1200.02"/><path class="j" d="m1216.14,415.44l-5.58-5.58"/><path class="j" d="m1216.14,415.44l-5.58,5.58"/><text class="n" transform="translate(40.65 432.17)"><tspan x="0" y="0">–1</tspan></text><text class="g" transform="translate(40.65 432.17)"><tspan x="0" y="0">–1</tspan></text><text class="n" transform="translate(40.65 432.17)"><tspan x="0" y="0">–1</tspan></text><path class="j" d="m48.46,415.44v3.35"/><path class="j" d="m331.73,415.44v3.35"/><text class="n" transform="translate(611.67 432.17)"><tspan x="0" y="0">1</tspan></text><text class="g" transform="translate(611.67 432.17)"><tspan x="0" y="0">1</tspan></text><text class="n" transform="translate(611.67 432.17)"><tspan x="0" y="0">1</tspan></text><path class="j" d="m615.01,415.44v3.35"/><text class="n" transform="translate(894.94 432.17)"><tspan x="0" y="0">2</tspan></text><text class="g" transform="translate(894.94 432.17)"><tspan x="0" y="0">2</tspan></text><text class="n" transform="translate(894.94 432.17)"><tspan x="0" y="0">2</tspan></text><path class="j" d="m898.29,415.44v3.35"/><text class="n" transform="translate(1178.22 432.17)"><tspan x="0" y="0">3</tspan></text><text class="g" transform="translate(1178.22 432.17)"><tspan x="0" y="0">3</tspan></text><text class="n" transform="translate(1178.22 432.17)"><tspan x="0" y="0">3</tspan></text><path class="j" d="m1181.57,415.44v3.35"/><path class="j" d="m328.39,982h3.35"/><path class="j" d="m328.39,840.36h3.35"/><path class="j" d="m328.39,698.72h3.35"/><path class="j" d="m328.39,557.08h3.35"/><path class="j" d="m328.39,273.81h3.35"/><path class="j" d="m328.39,132.17h3.35"/><text class="n" transform="translate(308.31 986.46)"><tspan x="0" y="0">–4</tspan></text><text class="g" transform="translate(308.31 986.46)"><tspan x="0" y="0">–4</tspan></text><text class="n" transform="translate(308.31 986.46)"><tspan x="0" y="0">–4</tspan></text><text class="n" transform="translate(308.31 844.82)"><tspan x="0" y="0">–3</tspan></text><text class="g" transform="translate(308.31 844.82)"><tspan x="0" y="0">–3</tspan></text><text class="n" transform="translate(308.31 844.82)"><tspan x="0" y="0">–3</tspan></text><text class="n" transform="translate(308.31 703.18)"><tspan x="0" y="0">–2</tspan></text><text class="g" transform="translate(308.31 703.18)"><tspan x="0" y="0">–2</tspan></text><text class="n" transform="translate(308.31 703.18)"><tspan x="0" y="0">–2</tspan></text><text class="n" transform="translate(308.31 561.54)"><tspan x="0" y="0">–1</tspan></text><text class="g" transform="translate(308.31 561.54)"><tspan x="0" y="0">–1</tspan></text><text class="n" transform="translate(308.31 561.54)"><tspan x="0" y="0">–1</tspan></text><text class="n" transform="translate(315.01 278.27)"><tspan x="0" y="0">1</tspan></text><text class="g" transform="translate(315.01 278.27)"><tspan x="0" y="0">1</tspan></text><text class="n" transform="translate(315.01 278.27)"><tspan x="0" y="0">1</tspan></text><text class="n" transform="translate(315.01 137.74)"><tspan x="0" y="0">2</tspan></text><text class="g" transform="translate(315.01 137.74)"><tspan x="0" y="0">2</tspan></text><text class="n" transform="translate(315.01 137.74)"><tspan x="0" y="0">2</tspan></text><text class="n" transform="translate(315.01 432.17)"><tspan x="0" y="0">0</tspan></text><text class="g" transform="translate(315.01 432.17)"><tspan x="0" y="0">0</tspan></text><text class="n" transform="translate(315.01 432.17)"><tspan x="0" y="0">0</tspan></text><path class="m" d="m14,863.64l2.18-8.13,1.18-6.1,1.18-6.07,1.18-6.04,1.18-6.01,1.18-5.98,1.18-5.95,1.18-5.92,1.18-5.89,1.18-5.86,1.18-5.83,1.18-5.8,1.18-5.77,1.18-5.74,1.18-5.7,1.18-5.67,1.18-5.64,1.18-5.61,2.35-11.14,2.35-11.02,2.35-10.9,2.35-10.78,2.35-10.67,2.35-10.55,2.35-10.43,2.35-10.32,2.35-10.2,2.35-10.09,2.35-9.97,2.35-9.86,2.35-9.74,2.35-9.63,2.35-9.52,2.35-9.4,2.35-9.29,2.35-9.18,2.35-9.07,2.35-8.96,2.35-8.85,2.35-8.74,2.35-8.63,2.35-8.52,2.35-8.42,2.35-8.31,2.35-8.2,2.35-8.09,2.35-7.99,2.35-7.88,2.35-7.78,2.35-7.67,2.35-7.57,2.35-7.47,2.35-7.36,2.35-7.26,2.35-7.16,2.35-7.06,2.35-6.96,2.35-6.85,2.35-6.75,2.35-6.65,2.35-6.56,2.35-6.46,2.35-6.36,2.35-6.26,2.35-6.16,2.35-6.07,2.35-5.97,2.35-5.87,2.35-5.78,2.35-5.68,2.35-5.59,4.7-10.9,4.7-10.53,4.7-10.16,4.7-9.8,4.7-9.44,4.7-9.08,4.7-8.73,4.7-8.38,4.7-8.04,4.7-7.7,4.7-7.36,4.7-7.03,4.7-6.7,4.7-6.37,4.7-6.05,4.7-5.73,4.7-5.42,4.7-5.11,4.7-4.81,4.7-4.5,4.7-4.21,4.7-3.91,4.7-3.62,4.7-3.34,4.7-3.06,4.7-2.78,4.7-2.5,4.7-2.23,4.7-1.97,4.7-1.7,4.7-1.44,4.7-1.19,4.7-.94,4.7-.69,4.7-.45,4.7-.21,4.7.03,4.7.26,4.7.49,4.7.71,4.7.93,4.7,1.15,4.7,1.36,4.7,1.57,4.7,1.77,4.7,1.97,4.7,2.17,4.7,2.36,4.7,2.55,4.7,2.74,4.7,2.92,4.7,3.1,4.7,3.27,4.7,3.44,4.7,3.6,4.7,3.77,4.7,3.92,4.7,4.08,4.7,4.23,4.7,4.37,4.7,4.52,4.7,4.65,4.7,4.79,4.7,4.92,4.7,5.05,4.7,5.17,4.7,5.29,4.7,5.4,4.7,5.51,4.7,5.62,4.7,5.72,4.7,5.82,4.7,5.92,4.7,6.01,4.7,6.1,4.7,6.18,4.7,6.26,4.7,6.34,4.7,6.41,4.7,6.48,4.7,6.55,4.7,6.61,4.7,6.66,4.7,6.72,4.7,6.77,4.7,6.81,4.7,6.85,4.7,6.89,4.7,6.92,4.7,6.95,4.7,6.98,4.7,7,4.7,7.02,4.7,7.03,4.7,7.04,4.7,7.05,4.7,7.05,4.7,7.05,4.7,7.04,4.7,7.03,4.7,7.02,4.7,7,4.7,6.98,4.7,6.96,4.7,6.93,4.7,6.9,4.7,6.86,4.7,6.82,4.7,6.78,4.7,6.73,4.7,6.68,4.7,6.62,4.7,6.56,4.7,6.5,4.7,6.43,4.7,6.36,4.7,6.28,4.7,6.2,4.7,6.12,4.7,6.03,4.7,5.94,4.7,5.85,4.7,5.75,4.7,5.65,4.7,5.54,4.7,5.43,4.7,5.32,4.7,5.2,4.7,5.08,4.7,4.95,4.7,4.82,4.7,4.69,4.7,4.55,4.7,4.41,4.7,4.26,4.7,4.11,4.7,3.96,4.7,3.8,4.7,3.64,4.7,3.48,4.7,3.31,4.7,3.14,4.7,2.96,4.7,2.78,4.7,2.6,4.7,2.41,4.7,2.22,4.7,2.02,4.7,1.82,4.7,1.62,4.7,1.41,4.7,1.2,4.7.99,4.7.77,4.7.54,4.7.32,4.7.09,4.7-.15,4.7-.39,4.7-.63,4.7-.88,4.7-1.13,4.7-1.38,4.7-1.64,4.7-1.9,4.7-2.17,4.7-2.43,4.7-2.71,4.7-2.99,4.7-3.27,4.7-3.55,4.7-3.84,4.7-4.13,4.7-4.43,4.7-4.73,4.7-5.04,4.7-5.34,4.7-5.66,4.7-5.97,4.7-6.29,4.7-6.62,4.7-6.94,4.7-7.28,4.7-7.61,4.7-7.95,4.7-8.29,4.7-8.64,4.7-8.99,4.7-9.35,4.7-9.71,4.7-10.07,4.7-10.44,4.7-10.81,2.35-5.54,2.35-5.64,2.35-5.73,2.35-5.83,2.35-5.92,2.35-6.02,2.35-6.12,2.35-6.21,2.35-6.31,2.35-6.41,2.35-6.51,2.35-6.61,2.35-6.7,2.35-6.8,2.35-6.91,2.35-7.01,2.35-7.11,2.35-7.21,2.35-7.31,2.35-7.41,2.35-7.52,2.35-7.62,2.35-7.73,2.35-7.83,2.35-7.94,2.35-8.04,2.35-8.15,2.35-8.25,2.35-8.36,2.35-8.47,2.35-8.58,2.35-8.69,2.35-8.8,2.35-8.91,2.35-9.02,2.35-9.13,2.35-9.24,2.35-9.35,2.35-9.46,2.35-9.57,2.35-9.69,2.35-9.8,2.35-9.91,2.35-10.03,2.35-10.14,2.35-10.26,2.35-10.37,2.35-10.49,2.35-10.61,2.35-10.73,2.35-10.84,2.35-10.96,2.35-11.08,1.18-5.59,1.18-5.62,1.18-5.65,1.18-5.68,1.18-5.71,1.18-5.74,1.18-5.77,1.18-5.8,1.18-5.83,1.18-5.86,1.18-5.89,1.18-5.92,1.18-5.95,1.18-5.98"/><path class="l" d="m898.11,415.44v283.12"/><path class="l" d="m898.11,698.56H331.73"/><path class="h" d="m784.83,415.37v224.29"/><path class="h" d="m784.83,639.66h-453.1"/><path class="h" d="m869.79,415.37v279.08"/><path class="h" d="m869.79,694.46H331.73"/><path class="h" d="m926.43,415.37v278.8"/><path class="h" d="m926.43,694.17H331.73"/><path class="h" d="m983.06,415.37v241.14"/><path class="h" d="m983.07,656.51H331.73"/></g></g><g id="c"><path class="p" d="m-2-1.77v1013.91h1237V-1.77H-2Zm1220,976.91c0,11.05-8.95,20-20,20H35c-11.05,0-20-8.95-20-20V35.23c0-11.05,8.95-20,20-20h1163c11.05,0,20,8.95,20,20v939.91Z"/></g><g id="d"><path class="f" d="m1060.9,239.81c-.6,2.83-1.52,4.93-2.75,6.32-1.24,1.39-2.79,2.08-4.67,2.08-.55,0-.98-.03-1.29-.1l.33-1.72c.13.04.44.06.92.06.59,0,1.09-.15,1.5-.45.42-.3.8-.82,1.16-1.56.36-.74.69-1.77.99-3.09l4.2-18.57h-3.3l.29-1.35c.87-.05,1.5-.12,1.88-.21.38-.09.68-.23.9-.41s.4-.42.55-.71c.15-.29.34-.83.58-1.61.69-2.34,1.75-4.1,3.19-5.28,1.44-1.18,3.27-1.77,5.5-1.77,1.28,0,2.38.1,3.3.31l-.76,3.32h-1.72c-.18-.74-.42-1.28-.71-1.6s-.73-.49-1.3-.49c-.74,0-1.37.21-1.88.62-.51.41-.95,1.02-1.32,1.83-.37.81-.7,1.89-1.02,3.26l-.49,2.13h5.02l-.43,1.97h-5.04l-3.63,17.03Z"/><path class="f" d="m1081.37,229.6c0,4.56.73,8.31,2.2,11.27s3.7,4.93,6.71,5.94l-.47,1.5c-3.82-1-6.74-3.16-8.77-6.47s-3.05-7.33-3.05-12.04,1.02-8.71,3.06-12.04c2.04-3.33,4.96-5.49,8.76-6.49l.53,1.5c-3.05,1-5.3,2.96-6.77,5.87s-2.2,6.57-2.2,10.97Z"/><path class="f" d="m1100.39,230.65c-.2-1.03-.4-2.02-.61-2.97-.21-.95-.42-1.84-.64-2.66-.22-.82-.4-1.36-.55-1.61-.14-.25-.3-.43-.46-.53-.16-.1-.37-.15-.62-.15-.27,0-.52.06-.74.19-.22.12-.46.34-.72.64-.26.31-.61.78-1.04,1.44l-1.27-.84c.82-1.24,1.61-2.16,2.36-2.77.75-.61,1.65-.92,2.68-.92.4,0,.76.05,1.06.14.31.09.58.23.81.42s.44.43.62.73c.18.3.36.71.53,1.22.17.51.33,1.15.48,1.91.15.76.28,1.55.4,2.37h.2c1.25-1.76,2.2-3.04,2.84-3.86s1.19-1.42,1.63-1.82c.44-.4.87-.68,1.28-.84s.95-.24,1.63-.24c.61,0,1.11.08,1.5.23l-.78,3.54h-1.37c-.08-.55-.31-.82-.68-.82-.12,0-.24.02-.37.06-.13.04-.29.12-.48.25-.19.13-.47.38-.83.76-.37.38-.78.84-1.23,1.39-.46.55-.92,1.12-1.41,1.72l-1.33,1.66c.23,1.25.46,2.33.66,3.24.21.91.39,1.67.56,2.28.16.61.31,1.08.43,1.44.12.35.26.62.4.79.14.18.29.3.44.37.15.07.32.11.52.11.35,0,.69-.14,1.03-.41s.81-.89,1.44-1.86l1.27.84c-.91,1.35-1.74,2.31-2.47,2.86-.74.55-1.61.83-2.63.83-.56,0-1.04-.1-1.43-.3s-.73-.52-1.02-.97c-.29-.44-.54-1.13-.76-2.07-.4-1.67-.65-2.94-.74-3.83h-.2c-1.38,1.94-2.41,3.33-3.08,4.18-.67.85-1.22,1.47-1.66,1.88-.44.4-.86.69-1.27.85s-.95.24-1.63.24c-.61,0-1.11-.08-1.5-.23l.78-3.54h1.37c.08.55.31.82.68.82.18,0,.37-.05.58-.15.2-.1.49-.33.87-.7.38-.37.9-.95,1.56-1.75s1.63-1.99,2.89-3.57Z"/><path class="f" d="m1122.07,229.6c0-4.4-.73-8.06-2.19-10.97-1.46-2.91-3.72-4.87-6.78-5.87l.53-1.5c3.8,1,6.72,3.17,8.76,6.49,2.04,3.33,3.06,7.34,3.06,12.04s-1.02,8.73-3.05,12.04-4.96,5.47-8.77,6.47l-.47-1.5c3.01-1,5.24-2.98,6.71-5.94s2.2-6.71,2.2-11.27Z"/><path class="o" d="m251.33,706.55c-.45,2.12-1.14,3.7-2.07,4.74-.93,1.04-2.09,1.56-3.5,1.56-.41,0-.73-.02-.97-.07l.25-1.29c.1.03.33.04.69.04.44,0,.82-.11,1.13-.34s.6-.62.87-1.17.52-1.33.74-2.31l3.15-13.93h-2.48l.22-1.01c.65-.04,1.13-.09,1.41-.16s.51-.17.67-.31.3-.31.41-.54c.11-.22.26-.62.43-1.21.52-1.76,1.32-3.08,2.4-3.96s2.45-1.33,4.12-1.33c.96,0,1.78.08,2.48.23l-.57,2.49h-1.29c-.14-.56-.31-.96-.53-1.2s-.54-.37-.97-.37c-.56,0-1.03.15-1.41.46-.39.31-.72.76-.99,1.37s-.53,1.42-.76,2.45l-.37,1.6h3.76l-.32,1.48h-3.78l-2.72,12.77Z"/><path class="o" d="m266.69,698.89c0,3.42.55,6.24,1.65,8.45s2.78,3.7,5.03,4.45l-.35,1.13c-2.86-.75-5.05-2.37-6.58-4.86-1.52-2.49-2.29-5.5-2.29-9.03s.76-6.54,2.29-9.03c1.53-2.49,3.72-4.12,6.57-4.87l.4,1.13c-2.29.75-3.98,2.22-5.08,4.4-1.1,2.18-1.65,4.92-1.65,8.22Z"/><path class="o" d="m286.55,693.02l1.35-.97.94.23-2.15,9.29c-.21.93-.32,1.65-.32,2.17,0,.39.06.67.19.85s.33.26.6.26c.29,0,.61-.12.94-.36s.8-.7,1.41-1.37l.83.82c-.88.94-1.63,1.6-2.25,2-.62.4-1.29.59-2.01.59-.61,0-1.09-.2-1.45-.6s-.54-.93-.54-1.6c0-.54.11-1.11.34-1.71l-.19-.06c-.94,1.37-1.83,2.37-2.67,3s-1.73.95-2.67.95c-1.07,0-1.91-.41-2.5-1.22s-.89-1.95-.89-3.41c0-1.68.33-3.29.99-4.84s1.56-2.77,2.72-3.66c1.15-.89,2.44-1.34,3.85-1.34.63,0,1.23.07,1.78.21.55.14,1.12.39,1.71.75Zm-1.29,4.37c.09-.4.15-.75.18-1.04s.04-.61.04-.95c0-.75-.16-1.3-.48-1.66s-.87-.53-1.64-.53c-1.01,0-1.91.41-2.71,1.22s-1.43,1.9-1.88,3.26c-.45,1.36-.67,2.72-.67,4.08,0,1.02.14,1.78.42,2.28.28.5.74.75,1.4.75s1.28-.28,1.9-.83,1.26-1.35,1.92-2.38c.66-1.03,1.13-2.22,1.4-3.57l.13-.63Z"/><path class="o" d="m297.96,698.89c0-3.3-.55-6.04-1.64-8.22-1.09-2.18-2.79-3.65-5.08-4.4l.4-1.13c2.85.75,5.04,2.38,6.57,4.87,1.53,2.5,2.29,5.51,2.29,9.03s-.76,6.55-2.29,9.03c-1.52,2.48-3.72,4.1-6.58,4.86l-.35-1.13c2.26-.75,3.93-2.24,5.03-4.45s1.65-5.03,1.65-8.45Z"/><path class="o" d="m902.66,393.74l1.35-.97.94.23-2.15,9.29c-.21.93-.32,1.65-.32,2.17,0,.39.06.67.19.85s.33.26.6.26c.29,0,.61-.12.94-.36s.8-.7,1.41-1.37l.83.82c-.88.94-1.63,1.6-2.25,2-.62.4-1.29.59-2.01.59-.61,0-1.09-.2-1.45-.6s-.54-.93-.54-1.6c0-.54.11-1.11.34-1.71l-.19-.06c-.94,1.37-1.83,2.37-2.67,3s-1.73.95-2.67.95c-1.07,0-1.91-.41-2.5-1.22s-.89-1.95-.89-3.41c0-1.68.33-3.29.99-4.84s1.56-2.77,2.72-3.66c1.15-.89,2.44-1.34,3.85-1.34.63,0,1.23.07,1.78.21.55.14,1.12.39,1.71.75Zm-1.29,4.37c.09-.4.15-.75.18-1.04s.04-.61.04-.95c0-.75-.16-1.3-.48-1.66s-.87-.53-1.64-.53c-1.01,0-1.91.41-2.71,1.22s-1.43,1.9-1.88,3.26c-.45,1.36-.67,2.72-.67,4.08,0,1.02.14,1.78.42,2.28.28.5.74.75,1.4.75s1.28-.28,1.9-.83,1.26-1.35,1.92-2.38c.66-1.03,1.12-2.22,1.4-3.57l.13-.63Z"/></g></svg>