<?xml version="1.0" encoding="UTF-8"?><svg xmlns="http://www.w3.org/2000/svg" xmlns:xlink="http://www.w3.org/1999/xlink" viewBox="0 0 1232.74 1010.14"><defs><style>.e{fill:#fff;}.f{clip-path:url(#b);}.f,.g,.h,.i,.j,.k,.l{fill:none;}.g{stroke:rgba(0,0,0,.7);}.g,.k{stroke-width:2.5px;}.g,.l{stroke-linecap:round;stroke-linejoin:round;}.h{stroke:#fff;stroke-linejoin:bevel;stroke-width:3px;}.h,.m{font-family:HelveticaNeue-UltraLight, 'Helvetica Neue';font-size:13.35px;font-weight:100;isolation:isolate;}.i{stroke:#252525;stroke-width:2px;}.i,.k{stroke-miterlimit:10;}.n{fill:#00699b;}.k{stroke:#4c4d4d;stroke-linecap:square;}.l{stroke:rgba(130,181,31,.8);stroke-width:7px;}.m{fill:#252525;}</style><clipPath id="b"><rect class="j" x="11.46" y="15.23" width="1204.99" height="986.91"/></clipPath></defs><g id="a"><g class="f"><rect class="e" x="11.46" y="15.23" width="1204.99" height="986.91"/><path class="i" d="m606.72,18.57v983.57"/><path class="i" d="m606.72,17.45l-5.56,5.56"/><path class="i" d="m606.72,17.45l5.56,5.56"/><path class="i" d="m11.46,651.66h1201.65"/><path class="i" d="m1214.23,651.66l-5.56-5.56"/><path class="i" d="m1214.23,651.66l-5.56,5.56"/><text class="m" transform="translate(48.18 669.46)"><tspan x="0" y="0">–2</tspan></text><text class="h" transform="translate(48.18 669.46)"><tspan x="0" y="0">–2</tspan></text><text class="m" transform="translate(48.18 669.46)"><tspan x="0" y="0">–2</tspan></text><path class="i" d="m54.85,651.66v3.34"/><text class="m" transform="translate(324.11 669.46)"><tspan x="0" y="0">–1</tspan></text><text class="h" transform="translate(324.11 669.46)"><tspan x="0" y="0">–1</tspan></text><text class="m" transform="translate(324.11 669.46)"><tspan x="0" y="0">–1</tspan></text><path class="i" d="m330.79,651.66v3.34"/><path class="i" d="m606.72,651.66v3.34"/><text class="m" transform="translate(879.32 669.46)"><tspan x="0" y="0">1</tspan></text><text class="h" transform="translate(879.32 669.46)"><tspan x="0" y="0">1</tspan></text><text class="m" transform="translate(879.32 669.46)"><tspan x="0" y="0">1</tspan></text><path class="i" d="m882.66,651.66v3.34"/><text class="m" transform="translate(1155.26 669.46)"><tspan x="0" y="0">2</tspan></text><text class="h" transform="translate(1155.26 669.46)"><tspan x="0" y="0">2</tspan></text><text class="m" transform="translate(1155.26 669.46)"><tspan x="0" y="0">2</tspan></text><path class="i" d="m1158.59,651.66v3.34"/><path class="i" d="m603.39,927.59h3.34"/><path class="i" d="m603.39,789.63h3.34"/><path class="i" d="m603.39,513.69h3.34"/><path class="i" d="m603.39,375.72h3.34"/><path class="i" d="m603.39,237.76h3.34"/><path class="i" d="m603.39,99.79h3.34"/><text class="m" transform="translate(584.47 933.16)"><tspan x="0" y="0">–4</tspan></text><text class="h" transform="translate(584.47 933.16)"><tspan x="0" y="0">–4</tspan></text><text class="m" transform="translate(584.47 933.16)"><tspan x="0" y="0">–4</tspan></text><text class="m" transform="translate(584.47 795.19)"><tspan x="0" y="0">–2</tspan></text><text class="h" transform="translate(584.47 795.19)"><tspan x="0" y="0">–2</tspan></text><text class="m" transform="translate(584.47 795.19)"><tspan x="0" y="0">–2</tspan></text><text class="m" transform="translate(591.15 519.26)"><tspan x="0" y="0">2</tspan></text><text class="h" transform="translate(591.15 519.26)"><tspan x="0" y="0">2</tspan></text><text class="m" transform="translate(591.15 519.26)"><tspan x="0" y="0">2</tspan></text><text class="m" transform="translate(591.15 381.29)"><tspan x="0" y="0">4</tspan></text><text class="h" transform="translate(591.15 381.29)"><tspan x="0" y="0">4</tspan></text><text class="m" transform="translate(591.15 381.29)"><tspan x="0" y="0">4</tspan></text><text class="m" transform="translate(591.15 243.32)"><tspan x="0" y="0">6</tspan></text><text class="h" transform="translate(591.15 243.32)"><tspan x="0" y="0">6</tspan></text><text class="m" transform="translate(591.15 243.32)"><tspan x="0" y="0">6</tspan></text><text class="m" transform="translate(591.15 105.35)"><tspan x="0" y="0">8</tspan></text><text class="h" transform="translate(591.15 105.35)"><tspan x="0" y="0">8</tspan></text><text class="m" transform="translate(591.15 105.35)"><tspan x="0" y="0">8</tspan></text><text class="m" transform="translate(591.15 669.46)"><tspan x="0" y="0">0</tspan></text><text class="h" transform="translate(591.15 669.46)"><tspan x="0" y="0">0</tspan></text><text class="m" transform="translate(591.15 669.46)"><tspan x="0" y="0">0</tspan></text><path class="l" d="m887.98,441.2l3.69-2.77,4.71-3.54,4.71-3.55,4.71-3.57,4.71-3.59,4.71-3.62,4.71-3.65,4.71-3.69,4.71-3.73,4.71-3.78,4.71-3.83,4.71-3.89,4.71-3.95,4.71-4.02,4.71-4.1,4.71-4.18,4.71-4.27,4.71-4.37,4.71-4.47,4.71-4.58,4.71-4.7,4.71-4.82,4.71-4.95,4.71-5.09,4.71-5.24,4.71-5.39,4.71-5.55,4.71-5.72,4.71-5.9,4.71-6.08,4.71-6.28,4.71-6.48,4.71-6.69,4.71-6.91,4.71-7.14,4.71-7.38,4.71-7.62,4.71-7.88,4.71-8.14,4.71-8.42,4.71-8.7,4.71-9,4.71-9.31,4.71-9.62,4.71-9.95,4.71-10.28,4.71-10.63,4.71-10.99,2.35-5.63,2.35-5.72,2.35-5.82,2.35-5.92,2.35-6.01,2.35-6.11,2.35-6.21,2.35-6.31,2.35-6.42,2.35-6.52,2.35-6.63,2.35-6.74,2.35-6.85,2.35-6.96,2.35-7.07,2.35-7.18,2.35-7.3,2.35-7.41,2.35-7.53,2.35-7.65,2.35-7.77,2.35-7.9,2.35-8.02"/><path class="l" d="m131.49,1.2l1.18,9.76,1.18,9.69,1.18,9.62,1.18,9.55,1.18,9.48,1.18,9.41,1.18,9.34,1.18,9.27,1.18,9.2,1.18,9.13,1.18,9.07,1.18,9,1.18,8.93,1.18,8.86,1.18,8.8,1.18,8.73,1.18,8.66,1.18,8.6,1.18,8.53,1.18,8.47,1.18,8.4,1.18,8.34,1.18,8.27,1.18,8.21,1.18,8.14,1.18,8.08,1.18,8.02,1.18,7.95,1.18,7.89,1.18,7.83,1.18,7.77,1.18,7.7,1.18,7.64,1.18,7.58,1.18,7.52,1.18,7.46,1.18,7.4,1.18,7.34,1.18,7.28,1.18,7.22,1.18,7.16,1.18,7.1,1.18,7.04,1.18,6.98,1.18,6.92,1.18,6.86,1.18,6.81,1.18,6.75,1.18,6.69,1.18,6.63,1.18,6.58,1.18,6.52,1.18,6.46,1.18,6.41,1.18,6.35,1.18,6.29,1.18,6.24,1.18,6.18,1.18,6.13,1.18,6.07,1.18,6.02,1.18,5.97,1.18,5.91,1.18,5.86,1.18,5.8,1.18,5.75,1.18,5.7,1.18,5.64,1.18,5.59,1.18,5.54,2.35,10.92,2.35,10.72,2.35,10.51,2.35,10.31,2.35,10.11,2.35,9.91,2.35,9.72,2.35,9.52,2.35,9.33,2.35,9.14,2.35,8.95,2.35,8.76,2.35,8.58,2.35,8.4,2.35,8.22,2.35,8.04,2.35,7.86,2.35,7.68,2.35,7.51,2.35,7.34,2.35,7.17,2.35,7,2.35,6.83,2.35,6.67,2.35,6.5,2.35,6.34,2.35,6.18,2.35,6.02,2.35,5.87,2.35,5.71,4.71,10.97,4.71,10.37,4.71,9.79,4.71,9.22,4.71,8.66,4.71,8.12,4.71,7.59,4.71,7.07,4.71,6.57,4.71,6.07,4.71,5.59,4.71,5.12,4.71,4.67,4.71,4.22,4.71,3.79,4.71,3.37,4.71,2.96,4.71,2.56,4.71,2.18,4.71,1.8,4.71,1.44,4.71,1.08,4.71.74,4.71.41,4.71.09,4.71-.22,4.71-.52,4.71-.82,4.71-1.1,4.71-1.37,4.71-1.63,4.71-1.88,4.71-2.13,4.71-2.36,4.71-2.59,4.71-2.8,4.71-3.01,4.71-3.21,4.71-3.4,4.71-3.58,4.71-3.76,4.71-3.92,4.71-4.08,4.71-4.23,4.71-4.38,4.71-4.51,4.71-4.64,4.71-4.76,4.71-4.87,4.71-4.98,4.71-5.08,4.71-5.17,4.71-5.26,4.71-5.34,4.71-5.42,4.71-5.48,4.71-5.55,4.71-5.6,4.71-5.65,4.71-5.7,4.71-5.74,4.71-5.77,4.71-5.8,4.71-5.83,4.71-5.85,4.71-5.86,4.71-5.88,4.71-5.88,4.71-5.88,4.71-5.88,4.71-5.88,4.71-5.87,4.71-5.85,4.71-5.84,4.71-5.81,4.71-5.79,4.71-5.76,4.71-5.73,4.71-5.7,4.71-5.67,4.71-5.63,4.71-5.59,4.71-5.55,4.71-5.5,4.71-5.45,4.71-5.4,4.71-5.35,4.71-5.3,4.71-5.25,4.71-5.19,4.71-5.14,4.71-5.08,4.71-5.02,4.71-4.96,4.71-4.91,4.71-4.85,4.71-4.79,4.71-4.73,4.71-4.67,4.71-4.61,4.71-4.55,4.71-4.49,4.71-4.43,4.71-4.37,4.71-4.31,4.71-4.25,4.71-4.2,4.71-4.14,4.71-4.09,4.71-4.04,4.71-3.99,4.71-3.94,4.71-3.9,4.71-3.85,4.71-3.81,4.71-3.77,4.71-3.73,4.71-3.7,4.71-3.67,4.71-3.64,4.71-3.61,4.71-3.59,4.71-3.57,4.71-3.56,4.71-3.54,4.71-3.54"/><path class="g" d="m882.97,651.99l-.14-200.36"/><path class="g" d="m876.32,445.06h-269.4"/><path class="k" d="m888.39,445.06c0,3.07-2.49,5.56-5.56,5.56s-5.56-2.49-5.56-5.56,2.49-5.56,5.56-5.56,5.56,2.49,5.56,5.56Z"/></g></g><g id="c"><path class="n" d="m-2-1.77v1013.91h1237V-1.77H-2Zm1220,976.91c0,11.05-8.95,20-20,20H35c-11.05,0-20-8.95-20-20V35.23c0-11.05,8.95-20,20-20h1163c11.05,0,20,8.95,20,20v939.91Z"/></g></svg>