<?xml version="1.0" encoding="UTF-8"?>
<svg xmlns="http://www.w3.org/2000/svg" width="1245" height="1020" xmlns:xlink="http://www.w3.org/1999/xlink" viewBox="0 0 1245 1020">
  <defs>
    <style>
      .uuid-edb11150-adf7-4b62-92ea-7927fd5f349b, .uuid-64312a66-27a5-4cf3-96ab-021480ddd965 {
        font-family: HelveticaNeue-UltraLight, 'Helvetica Neue UltraLight';
        font-size: 13.75px;
        font-weight: 100;
        isolation: isolate;
      }

      .uuid-edb11150-adf7-4b62-92ea-7927fd5f349b, .uuid-9eb7b97e-7a98-454d-9dfe-71c5b711365a {
        fill: #606060;
      }

      .uuid-16cb32cb-e627-4a6c-a48a-80657cbdb19e {
        fill: #fff;
      }

      .uuid-eea81a02-1145-4421-848d-f159fbb6201a {
        stroke: rgba(0, 0, 255, .7);
        stroke-linecap: round;
        stroke-width: 4.01px;
      }

      .uuid-eea81a02-1145-4421-848d-f159fbb6201a, .uuid-fb8dfded-a803-41ac-8d68-848d366f76e7, .uuid-dcaa6873-a628-46ff-a759-37dad887bd91, .uuid-f7386c0c-7172-4a77-b00c-b54bcb2390ca, .uuid-2117323f-bd31-48b4-b22d-32d8f2e633cc, .uuid-18eb3eb0-e444-4d67-afda-d6ca77b49c99, .uuid-7bfe12ce-42ce-4510-aad0-b606c9f6f887, .uuid-64312a66-27a5-4cf3-96ab-021480ddd965 {
        fill: none;
      }

      .uuid-eea81a02-1145-4421-848d-f159fbb6201a, .uuid-2117323f-bd31-48b4-b22d-32d8f2e633cc, .uuid-18eb3eb0-e444-4d67-afda-d6ca77b49c99 {
        stroke-linejoin: round;
      }

      .uuid-fb8dfded-a803-41ac-8d68-848d366f76e7 {
        clip-path: url(#uuid-55462d97-6bc2-4e6e-87e4-ed9664ad89b0);
      }

      .uuid-dcaa6873-a628-46ff-a759-37dad887bd91 {
        stroke: #606060;
        stroke-miterlimit: 10;
        stroke-width: 2.29px;
      }

      .uuid-aea2f6ef-2bfe-48f7-99ff-7cc593df3078 {
        fill: #333;
      }

      .uuid-f7386c0c-7172-4a77-b00c-b54bcb2390ca {
        clip-path: url(#uuid-cac41547-de70-436a-bd43-8b34b6c90a40);
      }

      .uuid-2117323f-bd31-48b4-b22d-32d8f2e633cc {
        stroke: rgba(192, 192, 192, .24);
      }

      .uuid-2117323f-bd31-48b4-b22d-32d8f2e633cc, .uuid-18eb3eb0-e444-4d67-afda-d6ca77b49c99 {
        stroke-dasharray: 0 0 1.15 3.44;
        stroke-width: 1.15px;
      }

      .uuid-60e9e70c-64e3-4e18-bbd0-02a03908bd4f {
        fill: #00699b;
      }

      .uuid-18eb3eb0-e444-4d67-afda-d6ca77b49c99 {
        stroke: silver;
      }

      .uuid-64312a66-27a5-4cf3-96ab-021480ddd965 {
        stroke: #fff;
        stroke-linejoin: bevel;
        stroke-width: 3.44px;
      }

      .uuid-9eb7b97e-7a98-454d-9dfe-71c5b711365a {
        fill-rule: evenodd;
      }
    </style>
    <clipPath id="uuid-cac41547-de70-436a-bd43-8b34b6c90a40">
      <rect class="uuid-7bfe12ce-42ce-4510-aad0-b606c9f6f887" y="2.61" width="1245" height="1019.39"/>
    </clipPath>
    <clipPath id="uuid-55462d97-6bc2-4e6e-87e4-ed9664ad89b0">
      <rect class="uuid-7bfe12ce-42ce-4510-aad0-b606c9f6f887" x="-219.46" y="-9.49" width="1683.91" height="1038.98"/>
    </clipPath>
  </defs>
  <g id="uuid-a5344ae4-9d77-4a30-bf78-3c14b7801537" data-name="Grafica">
    <g class="uuid-f7386c0c-7172-4a77-b00c-b54bcb2390ca">
      <g class="uuid-fb8dfded-a803-41ac-8d68-848d366f76e7">
        <g>
          <rect class="uuid-16cb32cb-e627-4a6c-a48a-80657cbdb19e" x="-219.46" y="-9.49" width="1683.91" height="1038.98"/>
          <path class="uuid-18eb3eb0-e444-4d67-afda-d6ca77b49c99" d="m-155.88-8.92v1038.98m0-1038.98v1038.98M-26.44-8.92v1038.98M103.01-8.92v1038.98M232.45-8.92v1038.98M363.04-8.92v1038.98M492.48-8.92v1038.98M751.37-8.92v1038.98M880.81-8.92v1038.98M1011.4-8.92v1038.98M1140.85-8.92v1038.98M1270.29-8.92v1038.98M1399.73-8.92v1038.98"/>
          <path class="uuid-2117323f-bd31-48b4-b22d-32d8f2e633cc" d="m-208.57-8.92v1038.98M-182.23-8.92v1038.98M-130.68-8.92v1038.98M-104.33-8.92v1038.98M-77.98-8.92v1038.98M-52.78-8.92v1038.98M-.09-8.92v1038.98M25.11-8.92v1038.98M51.46-8.92v1038.98M77.81-8.92v1038.98M129.35-8.92v1038.98M154.56-8.92v1038.98M180.9-8.92v1038.98M207.25-8.92v1038.98M258.8-8.92v1038.98M285.15-8.92v1038.98M310.35-8.92v1038.98M336.69-8.92v1038.98M388.24-8.92v1038.98M414.59-8.92v1038.98M439.79-8.92v1038.98M466.14-8.92v1038.98M517.69-8.92v1038.98M544.03-8.92v1038.98M570.38-8.92v1038.98M595.58-8.92v1038.98M648.27-8.92v1038.98M673.48-8.92v1038.98M699.82-8.92v1038.98M726.17-8.92v1038.98M777.72-8.92v1038.98M802.92-8.92v1038.98M829.27-8.92v1038.98M855.61-8.92v1038.98M907.16-8.92v1038.98M933.51-8.92v1038.98M958.71-8.92v1038.98M985.06-8.92v1038.98M1036.6-8.92v1038.98M1062.95-8.92v1038.98M1089.3-8.92v1038.98M1114.5-8.92v1038.98M1166.05-8.92v1038.98M1192.39-8.92v1038.98M1218.74-8.92v1038.98M1243.94-8.92v1038.98M1296.64-8.92v1038.98M1321.84-8.92v1038.98M1348.19-8.92v1038.98M1374.53-8.92v1038.98M1426.08-8.92v1038.98M1452.43-8.92v1038.98"/>
          <path class="uuid-18eb3eb0-e444-4d67-afda-d6ca77b49c99" d="m-218.88-8.92h1683.91m-1683.91,0h1683.91M-218.88,120.52h1683.91M-218.88,251.11h1683.91M-218.88,380.56h1683.91M-218.88,639.44h1683.91M-218.88,768.89h1683.91M-218.88,899.48h1683.91m-1683.91,129.44h1683.91"/>
          <path class="uuid-2117323f-bd31-48b4-b22d-32d8f2e633cc" d="m-218.88-8.92h1683.91M-218.88,17.43h1683.91M-218.88,43.77h1683.91M-218.88,68.98h1683.91M-218.88,95.32h1683.91M-218.88,146.87h1683.91m-1683.91,26.35h1683.91m-1683.91,25.2h1683.91m-1683.91,26.35h1683.91m-1683.91,51.55h1683.91m-1683.91,26.35h1683.91m-1683.91,26.35h1683.91m-1683.91,25.2h1683.91m-1683.91,51.55h1683.91m-1683.91,26.35h1683.91m-1683.91,26.35h1683.91m-1683.91,25.2h1683.91m-1683.91,52.69h1683.91m-1683.91,25.2h1683.91m-1683.91,26.35h1683.91m-1683.91,26.35h1683.91m-1683.91,51.55h1683.91m-1683.91,26.35h1683.91m-1683.91,25.2h1683.91m-1683.91,26.35h1683.91m-1683.91,51.55h1683.91m-1683.91,26.35h1683.91m-1683.91,25.2h1683.91m-1683.91,26.35h1683.91m-1683.91,51.55h1683.91m-1683.91,26.35h1683.91m-1683.91,26.35h1683.91m-1683.91,25.2h1683.91"/>
          <path class="uuid-dcaa6873-a628-46ff-a759-37dad887bd91" d="m621.35-6.06v1035.55"/>
          <path class="uuid-9eb7b97e-7a98-454d-9dfe-71c5b711365a" d="m621.91-7.2l-5.73,22.91h11.46"/>
          <path class="uuid-dcaa6873-a628-46ff-a759-37dad887bd91" d="m-219.46,510.57h1680.47"/>
          <text class="uuid-edb11150-adf7-4b62-92ea-7927fd5f349b" transform="translate(95.56 527.76)"><tspan x="0" y="0">–4</tspan></text>
          <text class="uuid-64312a66-27a5-4cf3-96ab-021480ddd965" transform="translate(95.56 527.76)"><tspan x="0" y="0">–4</tspan></text>
          <text class="uuid-edb11150-adf7-4b62-92ea-7927fd5f349b" transform="translate(95.56 527.76)"><tspan x="0" y="0">–4</tspan></text>
          <text class="uuid-edb11150-adf7-4b62-92ea-7927fd5f349b" transform="translate(225.01 527.76)"><tspan x="0" y="0">–3</tspan></text>
          <text class="uuid-64312a66-27a5-4cf3-96ab-021480ddd965" transform="translate(225.01 527.76)"><tspan x="0" y="0">–3</tspan></text>
          <text class="uuid-edb11150-adf7-4b62-92ea-7927fd5f349b" transform="translate(225.01 527.76)"><tspan x="0" y="0">–3</tspan></text>
          <text class="uuid-edb11150-adf7-4b62-92ea-7927fd5f349b" transform="translate(354.45 527.76)"><tspan x="0" y="0">–2</tspan></text>
          <text class="uuid-64312a66-27a5-4cf3-96ab-021480ddd965" transform="translate(354.45 527.76)"><tspan x="0" y="0">–2</tspan></text>
          <text class="uuid-edb11150-adf7-4b62-92ea-7927fd5f349b" transform="translate(354.45 527.76)"><tspan x="0" y="0">–2</tspan></text>
          <text class="uuid-edb11150-adf7-4b62-92ea-7927fd5f349b" transform="translate(485.04 527.76)"><tspan x="0" y="0">–1</tspan></text>
          <text class="uuid-64312a66-27a5-4cf3-96ab-021480ddd965" transform="translate(485.04 527.76)"><tspan x="0" y="0">–1</tspan></text>
          <text class="uuid-edb11150-adf7-4b62-92ea-7927fd5f349b" transform="translate(485.04 527.76)"><tspan x="0" y="0">–1</tspan></text>
          <text class="uuid-edb11150-adf7-4b62-92ea-7927fd5f349b" transform="translate(748.51 527.76)"><tspan x="0" y="0">1</tspan></text>
          <text class="uuid-64312a66-27a5-4cf3-96ab-021480ddd965" transform="translate(748.51 527.76)"><tspan x="0" y="0">1</tspan></text>
          <text class="uuid-edb11150-adf7-4b62-92ea-7927fd5f349b" transform="translate(748.51 527.76)"><tspan x="0" y="0">1</tspan></text>
          <text class="uuid-edb11150-adf7-4b62-92ea-7927fd5f349b" transform="translate(877.95 527.76)"><tspan x="0" y="0">2</tspan></text>
          <text class="uuid-64312a66-27a5-4cf3-96ab-021480ddd965" transform="translate(877.95 527.76)"><tspan x="0" y="0">2</tspan></text>
          <text class="uuid-edb11150-adf7-4b62-92ea-7927fd5f349b" transform="translate(877.95 527.76)"><tspan x="0" y="0">2</tspan></text>
          <text class="uuid-edb11150-adf7-4b62-92ea-7927fd5f349b" transform="translate(1007.39 527.76)"><tspan x="0" y="0">3</tspan></text>
          <text class="uuid-64312a66-27a5-4cf3-96ab-021480ddd965" transform="translate(1007.39 527.76)"><tspan x="0" y="0">3</tspan></text>
          <text class="uuid-edb11150-adf7-4b62-92ea-7927fd5f349b" transform="translate(1007.39 527.76)"><tspan x="0" y="0">3</tspan></text>
          <text class="uuid-edb11150-adf7-4b62-92ea-7927fd5f349b" transform="translate(1136.84 527.76)"><tspan x="0" y="0">4</tspan></text>
          <text class="uuid-64312a66-27a5-4cf3-96ab-021480ddd965" transform="translate(1136.84 527.76)"><tspan x="0" y="0">4</tspan></text>
          <text class="uuid-edb11150-adf7-4b62-92ea-7927fd5f349b" transform="translate(1136.84 527.76)"><tspan x="0" y="0">4</tspan></text>
          <path class="uuid-dcaa6873-a628-46ff-a759-37dad887bd91" d="m617.92,964.2h3.44"/>
          <path class="uuid-dcaa6873-a628-46ff-a759-37dad887bd91" d="m617.92,898.9h3.44"/>
          <path class="uuid-dcaa6873-a628-46ff-a759-37dad887bd91" d="m617.92,834.75h3.44"/>
          <path class="uuid-dcaa6873-a628-46ff-a759-37dad887bd91" d="m617.92,769.46h3.44"/>
          <path class="uuid-dcaa6873-a628-46ff-a759-37dad887bd91" d="m617.92,704.17h3.44"/>
          <path class="uuid-dcaa6873-a628-46ff-a759-37dad887bd91" d="m617.92,640.02h3.44"/>
          <path class="uuid-dcaa6873-a628-46ff-a759-37dad887bd91" d="m617.92,574.72h3.44"/>
          <path class="uuid-dcaa6873-a628-46ff-a759-37dad887bd91" d="m617.92,445.28h3.44"/>
          <path class="uuid-dcaa6873-a628-46ff-a759-37dad887bd91" d="m617.92,379.98h3.44"/>
          <path class="uuid-dcaa6873-a628-46ff-a759-37dad887bd91" d="m617.92,315.83h3.44"/>
          <path class="uuid-dcaa6873-a628-46ff-a759-37dad887bd91" d="m617.92,250.54h3.44"/>
          <path class="uuid-dcaa6873-a628-46ff-a759-37dad887bd91" d="m617.92,186.39h3.44"/>
          <path class="uuid-dcaa6873-a628-46ff-a759-37dad887bd91" d="m617.92,121.1h3.44"/>
          <path class="uuid-dcaa6873-a628-46ff-a759-37dad887bd91" d="m617.92,55.8h3.44"/>
          <text class="uuid-edb11150-adf7-4b62-92ea-7927fd5f349b" transform="translate(586.99 968.78)"><tspan x="0" y="0">–3.5</tspan></text>
          <text class="uuid-64312a66-27a5-4cf3-96ab-021480ddd965" transform="translate(586.99 968.78)"><tspan x="0" y="0">–3.5</tspan></text>
          <text class="uuid-edb11150-adf7-4b62-92ea-7927fd5f349b" transform="translate(586.99 968.78)"><tspan x="0" y="0">–3.5</tspan></text>
          <text class="uuid-edb11150-adf7-4b62-92ea-7927fd5f349b" transform="translate(598.44 904.63)"><tspan x="0" y="0">–3</tspan></text>
          <text class="uuid-64312a66-27a5-4cf3-96ab-021480ddd965" transform="translate(598.44 904.63)"><tspan x="0" y="0">–3</tspan></text>
          <text class="uuid-edb11150-adf7-4b62-92ea-7927fd5f349b" transform="translate(598.44 904.63)"><tspan x="0" y="0">–3</tspan></text>
          <text class="uuid-edb11150-adf7-4b62-92ea-7927fd5f349b" transform="translate(586.99 839.34)"><tspan x="0" y="0">–2.5</tspan></text>
          <text class="uuid-64312a66-27a5-4cf3-96ab-021480ddd965" transform="translate(586.99 839.34)"><tspan x="0" y="0">–2.5</tspan></text>
          <text class="uuid-edb11150-adf7-4b62-92ea-7927fd5f349b" transform="translate(586.99 839.34)"><tspan x="0" y="0">–2.5</tspan></text>
          <text class="uuid-edb11150-adf7-4b62-92ea-7927fd5f349b" transform="translate(598.44 774.04)"><tspan x="0" y="0">–2</tspan></text>
          <text class="uuid-64312a66-27a5-4cf3-96ab-021480ddd965" transform="translate(598.44 774.04)"><tspan x="0" y="0">–2</tspan></text>
          <text class="uuid-edb11150-adf7-4b62-92ea-7927fd5f349b" transform="translate(598.44 774.04)"><tspan x="0" y="0">–2</tspan></text>
          <text class="uuid-edb11150-adf7-4b62-92ea-7927fd5f349b" transform="translate(586.99 709.89)"><tspan x="0" y="0">–1.5</tspan></text>
          <text class="uuid-64312a66-27a5-4cf3-96ab-021480ddd965" transform="translate(586.99 709.89)"><tspan x="0" y="0">–1.5</tspan></text>
          <text class="uuid-edb11150-adf7-4b62-92ea-7927fd5f349b" transform="translate(586.99 709.89)"><tspan x="0" y="0">–1.5</tspan></text>
          <text class="uuid-edb11150-adf7-4b62-92ea-7927fd5f349b" transform="translate(598.44 644.6)"><tspan x="0" y="0">–1</tspan></text>
          <text class="uuid-64312a66-27a5-4cf3-96ab-021480ddd965" transform="translate(598.44 644.6)"><tspan x="0" y="0">–1</tspan></text>
          <text class="uuid-edb11150-adf7-4b62-92ea-7927fd5f349b" transform="translate(598.44 644.6)"><tspan x="0" y="0">–1</tspan></text>
          <text class="uuid-edb11150-adf7-4b62-92ea-7927fd5f349b" transform="translate(586.99 580.45)"><tspan x="0" y="0">–0.5</tspan></text>
          <text class="uuid-64312a66-27a5-4cf3-96ab-021480ddd965" transform="translate(586.99 580.45)"><tspan x="0" y="0">–0.5</tspan></text>
          <text class="uuid-edb11150-adf7-4b62-92ea-7927fd5f349b" transform="translate(586.99 580.45)"><tspan x="0" y="0">–0.5</tspan></text>
          <text class="uuid-edb11150-adf7-4b62-92ea-7927fd5f349b" transform="translate(593.86 449.86)"><tspan x="0" y="0">0.5</tspan></text>
          <text class="uuid-64312a66-27a5-4cf3-96ab-021480ddd965" transform="translate(593.86 449.86)"><tspan x="0" y="0">0.5</tspan></text>
          <text class="uuid-edb11150-adf7-4b62-92ea-7927fd5f349b" transform="translate(593.86 449.86)"><tspan x="0" y="0">0.5</tspan></text>
          <text class="uuid-edb11150-adf7-4b62-92ea-7927fd5f349b" transform="translate(605.32 385.71)"><tspan x="0" y="0">1</tspan></text>
          <text class="uuid-64312a66-27a5-4cf3-96ab-021480ddd965" transform="translate(605.32 385.71)"><tspan x="0" y="0">1</tspan></text>
          <text class="uuid-edb11150-adf7-4b62-92ea-7927fd5f349b" transform="translate(605.32 385.71)"><tspan x="0" y="0">1</tspan></text>
          <text class="uuid-edb11150-adf7-4b62-92ea-7927fd5f349b" transform="translate(593.86 320.42)"><tspan x="0" y="0">1.5</tspan></text>
          <text class="uuid-64312a66-27a5-4cf3-96ab-021480ddd965" transform="translate(593.86 320.42)"><tspan x="0" y="0">1.5</tspan></text>
          <text class="uuid-edb11150-adf7-4b62-92ea-7927fd5f349b" transform="translate(593.86 320.42)"><tspan x="0" y="0">1.5</tspan></text>
          <text class="uuid-edb11150-adf7-4b62-92ea-7927fd5f349b" transform="translate(605.32 256.27)"><tspan x="0" y="0">2</tspan></text>
          <text class="uuid-64312a66-27a5-4cf3-96ab-021480ddd965" transform="translate(605.32 256.27)"><tspan x="0" y="0">2</tspan></text>
          <text class="uuid-edb11150-adf7-4b62-92ea-7927fd5f349b" transform="translate(605.32 256.27)"><tspan x="0" y="0">2</tspan></text>
          <text class="uuid-edb11150-adf7-4b62-92ea-7927fd5f349b" transform="translate(593.86 190.97)"><tspan x="0" y="0">2.5</tspan></text>
          <text class="uuid-64312a66-27a5-4cf3-96ab-021480ddd965" transform="translate(593.86 190.97)"><tspan x="0" y="0">2.5</tspan></text>
          <text class="uuid-edb11150-adf7-4b62-92ea-7927fd5f349b" transform="translate(593.86 190.97)"><tspan x="0" y="0">2.5</tspan></text>
          <text class="uuid-edb11150-adf7-4b62-92ea-7927fd5f349b" transform="translate(605.32 125.68)"><tspan x="0" y="0">3</tspan></text>
          <text class="uuid-64312a66-27a5-4cf3-96ab-021480ddd965" transform="translate(605.32 125.68)"><tspan x="0" y="0">3</tspan></text>
          <text class="uuid-edb11150-adf7-4b62-92ea-7927fd5f349b" transform="translate(605.32 125.68)"><tspan x="0" y="0">3</tspan></text>
          <text class="uuid-edb11150-adf7-4b62-92ea-7927fd5f349b" transform="translate(593.86 61.53)"><tspan x="0" y="0">3.5</tspan></text>
          <text class="uuid-64312a66-27a5-4cf3-96ab-021480ddd965" transform="translate(593.86 61.53)"><tspan x="0" y="0">3.5</tspan></text>
          <text class="uuid-edb11150-adf7-4b62-92ea-7927fd5f349b" transform="translate(593.86 61.53)"><tspan x="0" y="0">3.5</tspan></text>
          <text class="uuid-edb11150-adf7-4b62-92ea-7927fd5f349b" transform="translate(605.32 527.76)"><tspan x="0" y="0">0</tspan></text>
          <text class="uuid-64312a66-27a5-4cf3-96ab-021480ddd965" transform="translate(605.32 527.76)"><tspan x="0" y="0">0</tspan></text>
          <text class="uuid-edb11150-adf7-4b62-92ea-7927fd5f349b" transform="translate(605.32 527.76)"><tspan x="0" y="0">0</tspan></text>
          <path class="uuid-eea81a02-1145-4421-848d-f159fbb6201a" d="m-218.31,639.76h1.15s1.15,0,1.15,0h5.73s1.15,0,1.15,0h5.73s1.15,0,1.15,0h4.58s1.15,0,1.15,0h3.44s1.15,0,1.15,0h3.44s1.15,0,1.15,0h3.44s1.15,0,1.15,0h3.44s1.15,0,1.15,0h3.44s1.15,0,1.15,0h2.29s1.15,0,1.15,0h2.29s1.15,0,1.15,0h2.29s1.15,0,1.15,0h2.29s1.15,0,1.15,0h1.15s1.15,0,1.15,0h2.29s1.15,0,1.15,0h1.15s1.15,0,1.15,0h2.29s1.15,0,1.15,0h1.15s1.15,0,1.15,0h1.15s1.15,0,1.15,0h1.15s1.15,0,1.15,0h1.15s1.15,0,1.15,0h1.15s1.15,0,1.15,0h1.15s1.15,0,1.15,0h1.15s1.15,0,1.15,0h2.29s1.15,0,1.15,0h1.15s1.15,0,1.15,0h2.29s1.15,0,1.15,0h2.29s1.15,0,1.15,0h2.29s1.15,0,1.15,0h1.15s1.15,0,1.15,0h1.15s1.15,0,1.15,0h1.15s1.15,0,1.15,0h2.29s1.15,0,1.15,0h1.15s1.15,0,1.15,0h1.15s1.15,0,1.15,0h1.15s1.15,0,1.15,0h1.15s1.15,0,1.15,0h1.15s1.15,0,1.15,0h1.15s1.15,0,1.15,0h1.15s1.15,0,1.15,0h1.15s1.15,0,1.15,0h1.15s1.15,0,1.15,0h1.15s1.15,0,1.15,0h1.15s1.15,0,1.15,0h1.15s1.15,0,1.15,0h1.15s1.15,0,1.15,0h1.15s1.15,0,1.15,0h1.15s1.15,0,1.15,0h1.15s1.15,0,1.15,0h1.15s1.15,0,1.15,0h1.15s1.15,0,1.15,0h1.15s1.15,0,1.15,0h1.15s1.15,0,1.15,0h1.15s1.15,0,1.15,0h1.15s1.15,0,1.15,0h1.15s1.15,0,1.15,0h1.15s1.15,0,1.15,0h1.15s1.15,0,1.15,0h1.15s1.15,0,1.15,0h1.15s1.15,0,1.15,0h1.15s1.15,0,1.15,0h1.15s1.15,0,1.15,0h1.15s1.15,0,1.15,0h1.15s1.15,0,1.15,0h1.15s1.15,0,1.15,0h1.15s1.15,0,1.15,0h1.15s1.15,0,1.15,0h1.15s1.15,0,1.15,0h1.15s1.15,0,1.15,0h1.15s1.15,0,1.15,0h1.15s1.15,0,1.15,0h1.15s1.15,0,1.15,0h1.15s1.15,0,1.15,0h1.15s1.15,0,1.15,0h1.15s1.15,0,1.15,0h1.15s1.15,0,1.15,0h1.15s1.15,0,1.15,0h1.15s1.15,0,1.15,0h1.15s1.15,0,1.15,0H.48s1.15,0,1.15,0h1.15s1.15,0,1.15,0h1.15s1.15,0,1.15,0h1.15s1.15,0,1.15,0h1.15s1.15,0,1.15,0h1.15s1.15,0,1.15,0h1.15s1.15,0,1.15,0h1.15s1.15,0,1.15,0h1.15s1.15,0,1.15,0h1.15s1.15,0,1.15,0h1.15s1.15,0,1.15,0h1.15s1.15,0,1.15,0h1.15s1.15,0,1.15,0h1.15s1.15,0,1.15,0h1.15s1.15,0,1.15,0h1.15s1.15,0,1.15,0h1.15s1.15,0,1.15,0h1.15s1.15,0,1.15,0h1.15s1.15,0,1.15,0h1.15s1.15,0,1.15,0h1.15s1.15,0,1.15,0h1.15s1.15,0,1.15,0h1.15s1.15,0,1.15,0h1.15s1.15,0,1.15,0h1.15s1.15,0,1.15,0h1.15s1.15,0,1.15,0h1.15s1.15,0,1.15,0h1.15s1.15,0,1.15,0h1.15s1.15,0,1.15,0h1.15s1.15,0,1.15,0h1.15s1.15,0,1.15,0h1.15s1.15,0,1.15,0h1.15s1.15,0,1.15,0h1.15s1.15,0,1.15,0h1.15s1.15,0,1.15,0h1.15s1.15,0,1.15,0h1.15s1.15,0,1.15,0h1.15s1.15,0,1.15,0h1.15s1.15,0,1.15,0h1.15s1.15,0,1.15,0h1.15s1.15,0,1.15,0h1.15s1.15,0,1.15,0h1.15s1.15,0,1.15,0h1.15s1.15,0,1.15,0h1.15s1.15,0,1.15,0h1.15s1.15,0,1.15,0h1.15s1.15,0,1.15,0h1.15s1.15,0,1.15,0h1.15s1.15,0,1.15,0h1.15s1.15,0,1.15,0h1.15s1.15,0,1.15,0h1.15s1.15,0,1.15,0h1.15s1.15,0,1.15,0h1.15s1.15,0,1.15,0h1.15s1.15,0,1.15,0h1.15s1.15,0,1.15,0h1.15s1.15,0,1.15,0h1.15s1.15,0,1.15,0h1.15s1.15,0,1.15,0h1.15s1.15,0,1.15,0h1.15s1.15,0,1.15,0h1.15s1.15,0,1.15,0h1.15s1.15,0,1.15,0h1.15s1.15,0,1.15,0h1.15s1.15,0,1.15,0h1.15s1.15,0,1.15,0h1.15s1.15,0,1.15,0h1.15s1.15,0,1.15,0h1.15s1.15,0,1.15,0h1.15s1.15,0,1.15,0h1.15s1.15,0,1.15,0h1.15s1.15,0,1.15,0h1.15s1.15,0,1.15,0h1.15s1.15,0,1.15,0h1.15s1.15,0,1.15,0h1.15s1.15,0,1.15,0h1.15s1.15,0,1.15,0h1.15s1.15,0,1.15,0h1.15s1.15,0,1.15,0h1.15s1.15-.01,1.15-.01h1.15s1.15-.01,1.15-.01h1.15s1.15-.01,1.15-.01h1.15s1.15-.01,1.15-.01h1.15s1.15-.01,1.15-.01h1.15s1.15-.01,1.15-.01h1.15s1.15-.01,1.15-.01h1.15s1.15-.01,1.15-.01h1.15s1.15-.01,1.15-.01h1.15s1.15-.01,1.15-.01h1.15s1.15-.01,1.15-.01h1.15s1.15-.02,1.15-.02h1.15s1.15-.02,1.15-.02h1.15s1.15-.02,1.15-.02h1.15s1.15-.02,1.15-.02h1.15s1.15-.02,1.15-.02h1.15s1.15-.02,1.15-.02h1.15s1.15-.02,1.15-.02h1.15s1.15-.02,1.15-.02h1.15s1.15-.02,1.15-.02h1.15s1.15-.02,1.15-.02h1.15s1.15-.02,1.15-.02h1.15s1.15-.02,1.15-.02h1.15s1.15-.02,1.15-.02h1.15s1.15-.02,1.15-.02h1.15s1.15-.02,1.15-.02h1.15s1.15-.03,1.15-.03h1.15s1.15-.03,1.15-.03h1.15s1.15-.03,1.15-.03h1.15s1.15-.03,1.15-.03h1.15s1.15-.03,1.15-.03h0l1.15-.02h0l1.15-.02h0l1.15-.02h0l1.15-.02h0l1.15-.02h0l1.15-.02h0l1.15-.02h0l1.15-.02h0l1.15-.02h0l1.15-.02h0l1.15-.02h0l1.15-.02h0l1.15-.02h0l1.15-.02h0l1.15-.02h0l1.15-.02h0l1.15-.02h0l1.15-.02h0l1.15-.02h0l1.15-.02h0l1.15-.02h0l1.15-.02h0l1.15-.02h0l1.15-.02h0l1.15-.02h0l1.15-.02h0l1.15-.02h0l1.15-.02h0l1.15-.02h0l1.15-.03h0l1.15-.03h0l1.15-.03h0l1.15-.03h0l1.15-.03h0l1.15-.03h0l1.15-.03h0l1.15-.03h0l1.15-.03h0l1.15-.03h0l1.15-.03h0l1.15-.03h0l1.15-.03h0l1.15-.03h0l1.15-.03h0l1.15-.03h0l1.15-.03h0l1.15-.03h0l1.15-.03h0l1.15-.04h0l1.15-.04h0l1.15-.04h0l1.15-.04h0l1.15-.04h0l1.15-.04h0l1.15-.04h0l1.15-.04h0l1.15-.04h0l1.15-.04h0l1.15-.04h0l1.15-.04h0l1.15-.04h0l1.15-.04h0l1.15-.04h0l1.15-.05h0l1.15-.05h0l1.15-.05h0l1.15-.05h0l1.15-.05h0l1.15-.05h0l1.15-.05h0l1.15-.05h0l1.15-.05h0l1.15-.05h0l1.15-.05h0l1.15-.05h0l1.15-.06h0l1.15-.06h0l1.15-.06h0l1.15-.06h0l1.15-.06h0l1.15-.06h0l1.15-.06h0l1.15-.06h0l1.15-.06h0l1.15-.07h0l1.15-.07h0l1.15-.07h0l1.15-.07h0l1.15-.07h0l1.15-.07h0l1.15-.07h0l1.15-.07h0l1.15-.07h0l1.15-.08h0l1.15-.08h0l1.15-.08h0l1.15-.08h0l1.15-.08h0l1.15-.08h0l1.15-.08h0l1.15-.09h0l1.15-.09h0l1.15-.09h0l1.15-.09h0l1.15-.09h0l1.15-.09h0l1.15-.1h0l1.15-.1h0l1.15-.1h0l1.15-.1h0l1.15-.1h0l1.15-.1h0l1.15-.11h0l1.15-.11h0l1.15-.11h0l1.15-.11h0l1.15-.11h0l1.15-.11h0l1.15-.12h0l1.15-.12h0l1.15-.12h0l1.15-.12h0l1.15-.12h0l1.15-.13h0l1.15-.13h0l1.15-.13h0l1.15-.13h0l1.15-.14h0l1.15-.14h0l1.15-.14h0l1.15-.14h0l1.15-.14h0l1.15-.15h0l1.15-.15h0l1.15-.15h0l1.15-.15h0l1.15-.16h0l1.15-.16h0l1.15-.16h0l1.15-.16h0l1.15-.17h0l1.15-.17h0l1.15-.17h0l1.15-.18h0l1.15-.18h0l1.15-.18h0l1.15-.18h0l1.15-.19h0l1.15-.19h0l1.15-.19h0l1.15-.2h0l1.15-.2h0l1.15-.2h0l1.15-.21h0l1.15-.21h0l1.15-.21h0l1.15-.22h0l1.15-.22h0l1.15-.22h0l1.15-.23h0l1.15-.23h0l1.15-.23h0l1.15-.24h0l1.15-.24h0l1.15-.25h0l1.15-.25h0l1.15-.25h0l1.15-.26h0l1.15-.26h0l1.15-.27h0l1.15-.27h0l1.15-.27h0l1.15-.28h0l1.15-.28h0l1.15-.29h0l1.15-.29h0l1.15-.3h0l1.15-.3h0l1.15-.3h0l1.15-.31h0l1.15-.31h0l1.15-.32h0l1.15-.32h0l1.15-.33h0l1.15-.33h0l1.15-.34h0l1.15-.34h0l1.15-.35h0l1.15-.35h0l1.15-.36h0l1.15-.36h0l1.15-.37h0l1.15-.38h0l1.15-.38h0l1.15-.39h0l1.15-.39h0l1.15-.4h0l1.15-.4h0l1.15-.41h0l1.15-.41h0l1.15-.42h0l1.15-.43h0l1.15-.43h0l1.15-.44h0l1.15-.44h0l1.15-.45h0l1.15-.46h0l1.15-.46h0l1.15-.47h0l1.15-.48h0l1.15-.48h0l1.15-.49h0l1.15-.5h0l1.15-.5h0l1.15-.51h0l1.15-.52h0l1.15-.52h0l1.15-.53h0l1.15-.54h0l1.15-.54h0l1.15-.55h0l1.15-.56h0l1.15-.56h0l1.15-.57h0l1.15-.58h0l1.15-.59h0l1.15-.59h0l1.15-.6h0l1.15-.61h0l1.15-.61h0l1.15-.62h0l1.15-.63h0l1.15-.64h0l1.15-.64h0l1.15-.65h0l1.15-.66h0l1.15-.67h0l1.15-.68h0l1.15-.68h0l1.15-.69h0l1.15-.7h0l1.15-.71h0l1.15-.71h0l1.15-.72h0l1.15-.73h0l1.15-.74h0l1.15-.74h0l1.15-.75h0l1.15-.76h0l1.15-.77h0l1.15-.78h0l1.15-.78h0l1.15-.79h0l1.15-.8h0l1.15-.81h0l1.15-.81h0l1.15-.82h0l1.15-.83h0l1.15-.84h0l1.15-.85h0l1.15-.85h0l1.15-.86h0l1.15-.87h0l1.15-.88h0l1.15-.88h0l1.15-.89h0l1.15-.9h0l1.15-.91h0l1.15-.91h0l1.15-.92h0l1.15-.93h0l1.15-.93h0l1.15-.94h0l1.15-.95h0l1.15-.96h0l1.15-.96h0l1.15-.97h0l1.15-.98h0l1.15-.98h0l1.15-.99h0l1.15-1h0l1.15-1h0l1.15-1.01h0l1.15-1.01h0l1.15-1.02h0l1.15-1.03h0l1.15-1.03h0l1.15-1.04h0l1.15-1.04h0l1.15-1.05h0l1.15-1.05h0l1.15-1.06h0l1.15-1.06h0l1.15-1.07h0l1.15-1.07h0l1.15-1.08h0l1.15-1.08h0l1.15-1.09h0l1.15-1.09h0l1.15-1.1h0l1.15-1.1h0l1.15-1.1h0l1.15-1.11h0l1.15-1.11h0l1.15-1.11h0l1.15-1.12h0l1.15-1.12h0l1.15-1.12h0l1.15-1.13h0l1.15-1.13h0l1.15-1.13h0l1.15-1.13h0l1.15-1.13h0l1.15-1.14h0l1.15-1.14h0l1.15-1.14h0l1.15-1.14h0l1.15-1.14h0l1.15-1.14h0l1.15-1.14h0l1.15-1.14h0l1.15-1.15h0l1.15-1.15h0l1.15-1.15h0l1.15-1.15h0l1.15-1.15h0l1.15-1.14h0l1.15-1.14h0l1.15-1.14h0l1.15-1.14h0l1.15-1.14h0l1.15-1.14h0l1.15-1.14h0l1.15-1.14h0l1.15-1.13h0l1.15-1.13h0l1.15-1.13h0l1.15-1.13h0l1.15-1.13h0l1.15-1.12h0l1.15-1.12h0l1.15-1.12h0l1.15-1.11h0l1.15-1.11h0l1.15-1.11h0l1.15-1.1h0l1.15-1.1h0l1.15-1.1h0l1.15-1.09h0l1.15-1.09h0l1.15-1.08h0l1.15-1.08h0l1.15-1.07h0l1.15-1.07h0l1.15-1.06h0l1.15-1.06h0l1.15-1.05h0l1.15-1.05h0l1.15-1.04h0l1.15-1.04h0l1.15-1.03h0l1.15-1.03h0l1.15-1.02h0l1.15-1.01h0l1.15-1.01h0l1.15-1h0l1.15-.99h0l1.15-.99h0l1.15-.98h0l1.15-.98h0l1.15-.97h0l1.15-.96h0l1.15-.96h0l1.15-.95h0l1.15-.94h0l1.15-.93h0l1.15-.93h0l1.15-.92h0l1.15-.91h0l1.15-.91h0l1.15-.9h0l1.15-.89h0l1.15-.88h0l1.15-.88h0l1.15-.87h0l1.15-.86h0l1.15-.85h0l1.15-.85h0l1.15-.84h0l1.15-.83h0l1.15-.82h0l1.15-.81h0l1.15-.81h0l1.15-.8h0l1.15-.79h0l1.15-.78h0l1.15-.78h0l1.15-.77h0l1.15-.76h0l1.15-.75h0l1.15-.74h0l1.15-.74h0l1.15-.73h0l1.15-.72h0l1.15-.71h0l1.15-.71h0l1.15-.7h0l1.15-.69h0l1.15-.68h0l1.15-.67h0l1.15-.67h0l1.15-.66h0l1.15-.65h0l1.15-.64h0l1.15-.64h0l1.15-.63h0l1.15-.62h0l1.15-.61h0l1.15-.61h0l1.15-.6h0l1.15-.59h0l1.15-.59h0l1.15-.58h0l1.15-.57h0l1.15-.56h0l1.15-.56h0l1.15-.55h0l1.15-.54h0l1.15-.54h0l1.15-.53h0l1.15-.52h0l1.15-.52h0l1.15-.51h0l1.15-.5h0l1.15-.5h0l1.15-.49h0l1.15-.48h0l1.15-.48h0l1.15-.47h0l1.15-.46h0l1.15-.46h0l1.15-.45h0l1.15-.44h0l1.15-.44h0l1.15-.43h0l1.15-.43h0l1.15-.42h0l1.15-.41h0l1.15-.41h0l1.15-.4h0l1.15-.4h0l1.15-.39h0l1.15-.39h0l1.15-.38h0l1.15-.38h0l1.15-.37h0l1.15-.36h0l1.15-.36h0l1.15-.35h0l1.15-.35h0l1.15-.34h0l1.15-.34h0l1.15-.33h0l1.15-.33h0l1.15-.32h0l1.15-.32h0l1.15-.31h0l1.15-.31h0l1.15-.3h0l1.15-.3h0l1.15-.3h0l1.15-.29h0l1.15-.29h0l1.15-.28h0l1.15-.28h0l1.15-.27h0l1.15-.27h0l1.15-.27h0l1.15-.26h0l1.15-.26h0l1.15-.25h0l1.15-.25h0l1.15-.25h0l1.15-.24h0l1.15-.24h0l1.15-.23h0l1.15-.23h0l1.15-.23h0l1.15-.22h0l1.15-.22h0l1.15-.22h0l1.15-.21h0l1.15-.21h0l1.15-.21h0l1.15-.2h0l1.15-.2h0l1.15-.2h0l1.15-.19h0l1.15-.19h0l1.15-.19h0l1.15-.18h0l1.15-.18h0l1.15-.18h0l1.15-.18h0l1.15-.17h0l1.15-.17h0l1.15-.17h0l1.15-.16h0l1.15-.16h0l1.15-.16h0l1.15-.16h0l1.15-.15h0l1.15-.15h0l1.15-.15h0l1.15-.15h0l1.15-.14h0l1.15-.14h0l1.15-.14h0l1.15-.14h0l1.15-.14h0l1.15-.13h0l1.15-.13h0l1.15-.13h0l1.15-.13h0l1.15-.12h0l1.15-.12h0l1.15-.12h0l1.15-.12h0l1.15-.12h0l1.15-.11h0l1.15-.11h0l1.15-.11h0l1.15-.11h0l1.15-.11h0l1.15-.11h0l1.15-.1h0l1.15-.1h0l1.15-.1h0l1.15-.1h0l1.15-.1h0l1.15-.09h0l1.15-.09h0l1.15-.09h0l1.15-.09h0l1.15-.09h0l1.15-.09h0l1.15-.09h0l1.15-.08h0l1.15-.08h0l1.15-.08h0l1.15-.08h0l1.15-.08h0l1.15-.08h0l1.15-.08h0l1.15-.07h0l1.15-.07h0l1.15-.07h0l1.15-.07h0l1.15-.07h0l1.15-.07h0l1.15-.07h0l1.15-.07h0l1.15-.07h0l1.15-.06h0l1.15-.06h0l1.15-.06h0l1.15-.06h0l1.15-.06h0l1.15-.06h0l1.15-.06h0l1.15-.06h0l1.15-.06h0l1.15-.05h0l1.15-.05h0l1.15-.05h0l1.15-.05h0l1.15-.05h0l1.15-.05h0l1.15-.05h0l1.15-.05h0l1.15-.05h0l1.15-.05h0l1.15-.05h0l1.15-.05h0l1.15-.04h0l1.15-.04h0l1.15-.04h0l1.15-.04h0l1.15-.04h0l1.15-.04h0l1.15-.04h0l1.15-.04h0l1.15-.04h0l1.15-.04h0l1.15-.04h0l1.15-.04h0l1.15-.04h0l1.15-.04h0l1.15-.04h0l1.15-.03h0l1.15-.03h0l1.15-.03h0l1.15-.03h0l1.15-.03h0l1.15-.03h0l1.15-.03h0l1.15-.03h0l1.15-.03h0l1.15-.03h0l1.15-.03h0l1.15-.03h0l1.15-.03h0l1.15-.03h0l1.15-.03h0l1.15-.03h0l1.15-.03h0l1.15-.03h0l1.15-.03h0l1.15-.02h0l1.15-.02h0l1.15-.02h0l1.15-.02h0l1.15-.02h0l1.15-.02h0l1.15-.02h0l1.15-.02h0l1.15-.02h0l1.15-.02h0l1.15-.02h0l1.15-.02h0l1.15-.02h0l1.15-.02h0l1.15-.02h0l1.15-.02h0l1.15-.02h0l1.15-.02h0l1.15-.02h0l1.15-.02h0l1.15-.02h0l1.15-.02h0l1.15-.02h0l1.15-.02h0l1.15-.02h0l1.15-.02h0l1.15-.02h0l1.15-.02h0l1.15-.02h1.15s1.15-.03,1.15-.03h1.15s1.15-.03,1.15-.03h1.15s1.15-.03,1.15-.03h1.15s1.15-.03,1.15-.03h1.15s1.15-.03,1.15-.03h1.15s1.15-.02,1.15-.02h1.15s1.15-.02,1.15-.02h1.15s1.15-.02,1.15-.02h1.15s1.15-.02,1.15-.02h1.15s1.15-.02,1.15-.02h1.15s1.15-.02,1.15-.02h1.15s1.15-.02,1.15-.02h1.15s1.15-.02,1.15-.02h1.15s1.15-.02,1.15-.02h1.15s1.15-.02,1.15-.02h1.15s1.15-.02,1.15-.02h1.15s1.15-.02,1.15-.02h1.15s1.15-.02,1.15-.02h1.15s1.15-.02,1.15-.02h1.15s1.15-.02,1.15-.02h1.15s1.15-.01,1.15-.01h1.15s1.15-.01,1.15-.01h1.15s1.15-.01,1.15-.01h1.15s1.15-.01,1.15-.01h1.15s1.15-.01,1.15-.01h1.15s1.15-.01,1.15-.01h1.15s1.15-.01,1.15-.01h1.15s1.15-.01,1.15-.01h1.15s1.15-.01,1.15-.01h1.15s1.15-.01,1.15-.01h1.15s1.15-.01,1.15-.01h1.15s1.15,0,1.15,0h1.15s1.15,0,1.15,0h1.15s1.15,0,1.15,0h1.15s1.15,0,1.15,0h1.15s1.15,0,1.15,0h1.15s1.15,0,1.15,0h1.15s1.15,0,1.15,0h1.15s1.15,0,1.15,0h1.15s1.15,0,1.15,0h1.15s1.15,0,1.15,0h1.15s1.15,0,1.15,0h1.15s1.15,0,1.15,0h1.15s1.15,0,1.15,0h1.15s1.15,0,1.15,0h1.15s1.15,0,1.15,0h1.15s1.15,0,1.15,0h1.15s1.15,0,1.15,0h1.15s1.15,0,1.15,0h1.15s1.15,0,1.15,0h1.15s1.15,0,1.15,0h1.15s1.15,0,1.15,0h1.15s1.15,0,1.15,0h1.15s1.15,0,1.15,0h1.15s1.15,0,1.15,0h1.15s1.15,0,1.15,0h1.15s1.15,0,1.15,0h1.15s1.15,0,1.15,0h1.15s1.15,0,1.15,0h1.15s1.15,0,1.15,0h1.15s1.15,0,1.15,0h1.15s1.15,0,1.15,0h1.15s1.15,0,1.15,0h1.15s1.15,0,1.15,0h1.15s1.15,0,1.15,0h1.15s1.15,0,1.15,0h1.15s1.15,0,1.15,0h1.15s1.15,0,1.15,0h1.15s1.15,0,1.15,0h1.15s1.15,0,1.15,0h1.15s1.15,0,1.15,0h1.15s1.15,0,1.15,0h1.15s1.15,0,1.15,0h1.15s1.15,0,1.15,0h1.15s1.15,0,1.15,0h1.15s1.15,0,1.15,0h1.15s1.15,0,1.15,0h1.15s1.15,0,1.15,0h1.15s1.15,0,1.15,0h1.15s1.15,0,1.15,0h1.15s1.15,0,1.15,0h1.15s1.15,0,1.15,0h1.15s1.15,0,1.15,0h1.15s1.15,0,1.15,0h1.15s1.15,0,1.15,0h1.15s1.15,0,1.15,0h1.15s1.15,0,1.15,0h1.15s1.15,0,1.15,0h1.15s1.15,0,1.15,0h1.15s1.15,0,1.15,0h1.15s1.15,0,1.15,0h1.15s1.15,0,1.15,0h1.15s1.15,0,1.15,0h1.15s1.15,0,1.15,0h1.15s1.15,0,1.15,0h1.15s1.15,0,1.15,0h1.15s1.15,0,1.15,0h1.15s1.15,0,1.15,0h1.15s1.15,0,1.15,0h1.15s1.15,0,1.15,0h1.15s1.15,0,1.15,0h1.15s1.15,0,1.15,0h1.15s1.15,0,1.15,0h1.15s1.15,0,1.15,0h1.15s1.15,0,1.15,0h1.15s1.15,0,1.15,0h1.15s1.15,0,1.15,0h1.15s1.15,0,1.15,0h1.15s1.15,0,1.15,0h1.15s1.15,0,1.15,0h1.15s1.15,0,1.15,0h1.15s1.15,0,1.15,0h1.15s1.15,0,1.15,0h1.15s1.15,0,1.15,0h1.15s1.15,0,1.15,0h1.15s1.15,0,1.15,0h1.15s1.15,0,1.15,0h1.15s1.15,0,1.15,0h1.15s1.15,0,1.15,0h1.15s1.15,0,1.15,0h1.15s1.15,0,1.15,0h1.15s1.15,0,1.15,0h1.15s1.15,0,1.15,0h1.15s1.15,0,1.15,0h1.15s1.15,0,1.15,0h1.15s1.15,0,1.15,0h1.15s1.15,0,1.15,0h1.15s1.15,0,1.15,0h1.15s1.15,0,1.15,0h1.15s1.15,0,1.15,0h1.15s1.15,0,1.15,0h1.15s1.15,0,1.15,0h1.15s1.15,0,1.15,0h1.15s1.15,0,1.15,0h1.15s1.15,0,1.15,0h1.15s1.15,0,1.15,0h1.15s1.15,0,1.15,0h1.15s1.15,0,1.15,0h1.15s1.15,0,1.15,0h1.15s1.15,0,1.15,0h1.15s1.15,0,1.15,0h1.15s1.15,0,1.15,0h1.15s1.15,0,1.15,0h1.15s1.15,0,1.15,0h1.15s1.15,0,1.15,0h1.15s1.15,0,1.15,0h1.15s1.15,0,1.15,0h1.15s1.15,0,1.15,0h1.15s1.15,0,1.15,0h1.15s1.15,0,1.15,0h1.15s1.15,0,1.15,0h1.15s1.15,0,1.15,0h1.15s1.15,0,1.15,0h1.15s1.15,0,1.15,0h1.15s1.15,0,1.15,0h1.15s1.15,0,1.15,0h1.15s1.15,0,1.15,0h1.15s1.15,0,1.15,0h1.15s1.15,0,1.15,0h1.15s1.15,0,1.15,0h1.15s1.15,0,1.15,0h1.15s1.15,0,1.15,0h1.15s1.15,0,1.15,0h1.15s1.15,0,1.15,0h1.15s1.15,0,1.15,0h1.15s1.15,0,1.15,0h1.15s1.15,0,1.15,0h1.15s1.15,0,1.15,0h1.15s1.15,0,1.15,0h1.15s1.15,0,1.15,0h1.15s1.15,0,1.15,0h1.15s1.15,0,1.15,0h1.15s1.15,0,1.15,0h1.15s1.15,0,1.15,0h1.15s1.15,0,1.15,0h1.15s1.15,0,1.15,0h1.15s1.15,0,1.15,0h1.15s1.15,0,1.15,0h1.15s1.15,0,1.15,0h1.15s1.15,0,1.15,0h2.29s1.15,0,1.15,0h2.29s1.15,0,1.15,0h2.29s1.15,0,1.15,0h2.29s1.15,0,1.15,0h2.29s1.15,0,1.15,0h1.15s1.15,0,1.15,0h2.29s1.15,0,1.15,0h1.15s1.15,0,1.15,0h1.15s1.15,0,1.15,0h1.15s1.15,0,1.15,0h1.15s1.15,0,1.15,0h1.15s1.15,0,1.15,0h2.29s1.15,0,1.15,0h1.15s1.15,0,1.15,0h2.29s1.15,0,1.15,0h1.15s1.15,0,1.15,0h2.29s1.15,0,1.15,0h2.29s1.15,0,1.15,0h2.29s1.15,0,1.15,0h2.29s1.15,0,1.15,0"/>
        </g>
      </g>
    </g>
  </g>
  <g id="uuid-bfd801c7-ea7a-4f63-a158-837ce831cbeb" data-name="Marco">
    <path class="uuid-60e9e70c-64e3-4e18-bbd0-02a03908bd4f" d="m-2-2V1022h1249V-2H-2Zm1232,987c0,11.05-8.95,20-20,20H35c-11.05,0-20-8.95-20-20V35c0-11.05,8.95-20,20-20h1175c11.05,0,20,8.95,20,20v950Z"/>
  </g>
  <g id="uuid-452b119f-540e-4862-8856-e01d42adb31e" data-name="texto">
    <g>
      <path class="uuid-aea2f6ef-2bfe-48f7-99ff-7cc593df3078" d="m795.18,344.11c-.13-.99-.25-1.68-.37-2.06s-.31-.68-.57-.88c-.26-.2-.68-.32-1.27-.36l.21-.96h5.02l1.48,15.53c4.4-6.02,6.6-10.33,6.6-12.93,0-.61-.13-1.03-.39-1.25-.26-.22-.7-.35-1.33-.39l.2-.96h5.04l.53.98c-.69,1.81-1.57,3.68-2.65,5.62s-2.39,4.06-3.95,6.37c-1.56,2.3-3.28,4.7-5.19,7.19-1.46,1.91-2.68,3.36-3.67,4.34-.77.74-1.47,1.31-2.12,1.69s-1.27.66-1.88.82-1.25.24-1.92.24c-.35,0-.75-.04-1.19-.11-.44-.07-.82-.17-1.13-.28l.84-3.65h1.52c.01.44.12.79.31,1.05s.48.39.86.39c.42,0,.78-.04,1.07-.13.3-.08.62-.22.95-.42s.74-.51,1.21-.94c.48-.43,1.01-1,1.61-1.71.6-.71,1.27-1.57,2.01-2.57l-1.86-14.63Z"/>
      <path class="uuid-aea2f6ef-2bfe-48f7-99ff-7cc593df3078" d="m821.69,344.34v-2.6h24.06v2.6h-24.06Zm0,8.11v-2.6h24.06v2.6h-24.06Z"/>
      <path class="uuid-aea2f6ef-2bfe-48f7-99ff-7cc593df3078" d="m870.65,354.93c-1.07,1.29-2.12,2.26-3.16,2.92-1.04.66-2.15.99-3.32.99-1.38,0-2.41-.35-3.09-1.05-.68-.7-1.02-1.73-1.02-3.07,0-.82.12-1.74.35-2.75l2.42-10.14h-2.91l.21-1c.77-.09,1.38-.26,1.83-.5s.83-.56,1.13-.96c.31-.4.59-.92.85-1.55.26-.64.59-1.57.98-2.79h2.7l-1.07,4.82h6.19l-.43,1.97h-6.21l-1.88,7.58c-.52,2.11-.78,3.68-.78,4.73,0,.79.17,1.4.52,1.81.35.41.85.62,1.51.62.6,0,1.23-.23,1.88-.69.66-.46,1.38-1.16,2.16-2.1l1.13,1.17Z"/>
      <path class="uuid-aea2f6ef-2bfe-48f7-99ff-7cc593df3078" d="m887.29,340.81l1.8-1.29,1.25.31-2.99,13.26c-.18.78-.31,1.38-.37,1.81-.06.42-.1.77-.1,1.04,0,.53.15.92.45,1.16.3.24.87.39,1.72.46l-.18.96h-5.59l1.23-4.9-.25-.08c-1.25,1.82-2.43,3.16-3.55,4-1.12.85-2.3,1.27-3.55,1.27-1.43,0-2.54-.54-3.33-1.62-.79-1.08-1.18-2.6-1.18-4.55,0-1.25.14-2.5.43-3.76.29-1.26.72-2.45,1.3-3.57.58-1.13,1.27-2.12,2.08-2.98.81-.86,1.74-1.54,2.8-2.05,1.06-.51,2.22-.76,3.47-.76.81,0,1.58.09,2.3.28.73.19,1.48.52,2.27,1.01Zm-1.72,5.82c.12-.53.2-1,.23-1.39s.06-.81.06-1.27c0-1.02-.21-1.75-.64-2.22s-1.15-.69-2.15-.69c-.55,0-1.07.09-1.56.26-.49.18-1,.47-1.5.88s-.99.95-1.46,1.61c-.46.66-.88,1.47-1.26,2.42-.38.95-.67,1.97-.88,3.06-.21,1.09-.31,2.15-.31,3.17,0,1.35.19,2.37.56,3.04s.99,1.01,1.87,1.01c.4,0,.82-.09,1.26-.27.44-.18.92-.52,1.46-1.01.53-.49,1.14-1.21,1.82-2.16.61-.87,1.1-1.74,1.46-2.59.36-.85.65-1.86.89-3.02l.18-.84Z"/>
      <path class="uuid-aea2f6ef-2bfe-48f7-99ff-7cc593df3078" d="m910.46,358.52h-6.15l2.48-9.92c.16-.64.31-1.34.46-2.11.15-.77.22-1.46.22-2.07,0-.92-.16-1.59-.48-1.99-.32-.4-.82-.61-1.49-.61-.55,0-1.14.21-1.77.63-.63.42-1.29,1.05-1.98,1.89-.69.84-1.27,1.69-1.75,2.56-.47.87-.84,1.92-1.1,3.15l-1.78,8.46h-3.38l2.97-13.34c.07-.3.15-.74.26-1.33.11-.59.17-1.07.17-1.46,0-.36-.05-.65-.17-.85-.11-.2-.3-.35-.57-.45-.27-.1-.72-.17-1.36-.21l.23-1.04,4.43-.18h1.11l-1.31,5.08.23.08c1.28-1.8,2.51-3.13,3.69-3.99,1.19-.87,2.37-1.3,3.55-1.3,1.26,0,2.22.35,2.87,1.04.65.7.98,1.73.98,3.1,0,.47-.04.98-.13,1.53-.08.55-.18,1.04-.28,1.47l-1.64,6.95c-.22.94-.33,1.68-.33,2.23,0,.39.07.7.2.92.13.22.33.39.61.51s.72.21,1.35.27l-.16.96Z"/>
      <path class="uuid-aea2f6ef-2bfe-48f7-99ff-7cc593df3078" d="m931.67,358.52h-6.13l2.46-9.92c.18-.72.34-1.44.48-2.18s.21-1.4.21-2c0-.94-.16-1.6-.47-2s-.84-.6-1.58-.6c-.53,0-1.12.22-1.77.66s-1.32,1.12-2.04,2.02c-.72.91-1.29,1.77-1.71,2.6-.42.83-.76,1.81-1.01,2.96l-1.78,8.46h-3.38l5.02-22.32c.14-.65.24-1.12.3-1.42s.1-.56.13-.81c.03-.25.04-.47.04-.66,0-.55-.17-.93-.5-1.15s-.93-.34-1.79-.37l.23-1.02,4.94-.18h1.13l-3.36,13.54.23.08c1.22-1.63,2.39-2.81,3.5-3.55,1.11-.74,2.23-1.11,3.38-1.11,1.26,0,2.22.35,2.87,1.04.65.7.98,1.73.98,3.1,0,.83-.13,1.84-.39,3.01l-1.64,6.95c-.13.56-.22,1.01-.27,1.35-.05.34-.08.63-.08.88,0,.4.07.72.21.94s.35.39.62.5c.28.11.73.2,1.34.26l-.18.96Z"/>
      <path class="uuid-aea2f6ef-2bfe-48f7-99ff-7cc593df3078" d="m961.94,340.81c-2.53,2.7-5.17,5.36-7.93,7.99l1.82,4.28c.48,1.15.87,1.99,1.15,2.53.29.54.55.93.78,1.17s.47.42.7.53.61.2,1.11.26l-.21.96h-4.86l-2.71-7.85c-.31.27-.73.65-1.24,1.14-.51.49-1.01,1.01-1.49,1.56-.48.55-.82,1-1.02,1.34s-.32.63-.38.88-.09.5-.09.76c0,.34.09.61.28.8.19.2.51.33.97.41l-.21.96h-5.57l-.37-.96c2.85-3.06,5.66-5.88,8.42-8.46l-1.86-4.36c-.38-.89-.68-1.56-.92-2.02s-.46-.82-.67-1.07-.46-.45-.74-.59c-.28-.14-.68-.22-1.2-.26l.21-.96h4.86l2.6,7.36c.64-.59,1.24-1.19,1.82-1.82.57-.62.98-1.12,1.21-1.48s.4-.69.49-.98c.09-.29.14-.59.14-.9,0-.72-.42-1.13-1.25-1.23l.21-.96h5.57l.39.96Z"/>
    </g>
  </g>
</svg>