<?xml version="1.0" encoding="UTF-8"?>
<svg xmlns="http://www.w3.org/2000/svg" width="1245" height="1020" xmlns:xlink="http://www.w3.org/1999/xlink" viewBox="0 0 1245 1020">
  <defs>
    <style>
      .uuid-025efcbb-d6bd-45b1-8c5e-7106567077b1 {
        stroke: rgba(192, 192, 192, .24);
      }

      .uuid-025efcbb-d6bd-45b1-8c5e-7106567077b1, .uuid-a03380bc-d66e-48a9-b32c-7767385da1db, .uuid-837c592c-b267-4d06-838b-31f02fbfdb96, .uuid-235e4cae-96fa-4a7a-b2c9-f86a3fb7ceb4, .uuid-bcab72e9-9296-4bfa-8c3e-764a0c184458, .uuid-01569004-03b7-40b4-9df5-1c87b28f1c59, .uuid-3174c444-f627-4b25-9c4f-cc58866916fd, .uuid-f6d9859b-322f-43e9-97af-9b9528cbb169 {
        fill: none;
      }

      .uuid-025efcbb-d6bd-45b1-8c5e-7106567077b1, .uuid-837c592c-b267-4d06-838b-31f02fbfdb96, .uuid-f6d9859b-322f-43e9-97af-9b9528cbb169 {
        stroke-linejoin: round;
      }

      .uuid-025efcbb-d6bd-45b1-8c5e-7106567077b1, .uuid-f6d9859b-322f-43e9-97af-9b9528cbb169 {
        stroke-dasharray: 0 0 1.15 3.44;
        stroke-width: 1.15px;
      }

      .uuid-3af31ee6-ff37-4ea9-9df3-ce87bdfd03aa {
        fill: #fff;
      }

      .uuid-a03380bc-d66e-48a9-b32c-7767385da1db {
        stroke: #fff;
        stroke-linejoin: bevel;
        stroke-width: 3.44px;
      }

      .uuid-a03380bc-d66e-48a9-b32c-7767385da1db, .uuid-68af21e5-c3d0-4928-ba82-3bdf49c2c8da {
        font-family: HelveticaNeue-UltraLight, 'Helvetica Neue UltraLight';
        font-size: 13.75px;
        font-weight: 100;
        isolation: isolate;
      }

      .uuid-837c592c-b267-4d06-838b-31f02fbfdb96 {
        stroke: rgba(0, 153, 0, .7);
        stroke-linecap: round;
        stroke-width: 4.01px;
      }

      .uuid-235e4cae-96fa-4a7a-b2c9-f86a3fb7ceb4 {
        clip-path: url(#uuid-ab01e08c-1ce7-4b59-b2b2-b0be47cf3e74);
      }

      .uuid-bcab72e9-9296-4bfa-8c3e-764a0c184458 {
        stroke: #606060;
        stroke-miterlimit: 10;
        stroke-width: 2.29px;
      }

      .uuid-01569004-03b7-40b4-9df5-1c87b28f1c59 {
        clip-path: url(#uuid-fff0bc4b-1f54-414f-99fe-849729e41c87);
      }

      .uuid-bcc38439-bdd1-49e4-b30f-61b9fde45129 {
        fill: #333;
      }

      .uuid-01fd5830-968b-4fdc-96e9-7155d3a12e74 {
        fill: #00699b;
      }

      .uuid-68af21e5-c3d0-4928-ba82-3bdf49c2c8da {
        fill: #606060;
      }

      .uuid-f6d9859b-322f-43e9-97af-9b9528cbb169 {
        stroke: silver;
      }
    </style>
    <clipPath id="uuid-fff0bc4b-1f54-414f-99fe-849729e41c87">
      <rect class="uuid-3174c444-f627-4b25-9c4f-cc58866916fd" y="2.61" width="1245" height="1019.39"/>
    </clipPath>
    <clipPath id="uuid-ab01e08c-1ce7-4b59-b2b2-b0be47cf3e74">
      <rect class="uuid-3174c444-f627-4b25-9c4f-cc58866916fd" x="-310.04" y="-8.95" width="1684.01" height="1039.05"/>
    </clipPath>
  </defs>
  <g id="uuid-62a2f499-1688-406d-8f9c-59437802e6c7" data-name="Grafica">
    <g class="uuid-01569004-03b7-40b4-9df5-1c87b28f1c59">
      <g class="uuid-235e4cae-96fa-4a7a-b2c9-f86a3fb7ceb4">
        <g>
          <rect class="uuid-3af31ee6-ff37-4ea9-9df3-ce87bdfd03aa" x="-310.04" y="-8.95" width="1684.01" height="1039.05"/>
          <path class="uuid-f6d9859b-322f-43e9-97af-9b9528cbb169" d="m-301.45-8.38v1039.05m0-1039.05v1039.05M67.43-8.38v1039.05M251.87-8.38v1039.05M436.3-8.38v1039.05M620.74-8.38v1039.05M805.18-8.38v1039.05M989.62-8.38v1039.05M1174.06-8.38v1039.05M1358.5-8.38v1039.05"/>
          <path class="uuid-025efcbb-d6bd-45b1-8c5e-7106567077b1" d="m-264.79-8.38v1039.05M-226.99-8.38v1039.05M-190.33-8.38v1039.05M-153.67-8.38v1039.05M-80.35-8.38v1039.05M-42.55-8.38v1039.05M-5.89-8.38v1039.05M30.77-8.38v1039.05M104.08-8.38v1039.05M140.74-8.38v1039.05M178.55-8.38v1039.05M215.21-8.38v1039.05M288.52-8.38v1039.05M325.18-8.38v1039.05M362.99-8.38v1039.05M399.65-8.38v1039.05M472.96-8.38v1039.05M509.62-8.38v1039.05M547.43-8.38v1039.05M584.08-8.38v1039.05M657.4-8.38v1039.05M694.06-8.38v1039.05M731.87-8.38v1039.05M768.52-8.38v1039.05M841.84-8.38v1039.05M878.5-8.38v1039.05M916.3-8.38v1039.05M952.96-8.38v1039.05M1026.28-8.38v1039.05M1062.94-8.38v1039.05M1099.6-8.38v1039.05M1137.4-8.38v1039.05M1210.72-8.38v1039.05M1247.38-8.38v1039.05M1284.04-8.38v1039.05M1321.84-8.38v1039.05"/>
          <path class="uuid-f6d9859b-322f-43e9-97af-9b9528cbb169" d="m-309.47,107.33h1684.01m-1684.01,0h1684.01M-309.47,290.62h1684.01M-309.47,475.06h1684.01m-1684.01,184.44h1684.01m-1684.01,368.88h1684.01"/>
          <path class="uuid-025efcbb-d6bd-45b1-8c5e-7106567077b1" d="m-309.47-3.79h1684.01m-1684.01,0h1684.01M-309.47,32.86h1684.01M-309.47,69.52h1684.01M-309.47,143.99h1684.01m-1684.01,36.66h1684.01m-1684.01,36.66h1684.01m-1684.01,36.66h1684.01m-1684.01,74.46h1684.01m-1684.01,36.66h1684.01m-1684.01,36.66h1684.01m-1684.01,36.66h1684.01m-1684.01,74.46h1684.01m-1684.01,36.66h1684.01m-1684.01,36.66h1684.01m-1684.01,36.66h1684.01m-1684.01,74.46h1684.01m-1684.01,36.66h1684.01m-1684.01,36.66h1684.01m-1684.01,36.66h1684.01m-1684.01,74.46h1684.01m-1684.01,36.66h1684.01m-1684.01,36.66h1684.01m-1684.01,36.66h1684.01"/>
          <path class="uuid-bcab72e9-9296-4bfa-8c3e-764a0c184458" d="m-310.04,844.51h1680.57"/>
          <text class="uuid-68af21e5-c3d0-4928-ba82-3bdf49c2c8da" transform="translate(64.56 861.7)"><tspan x="0" y="0">1</tspan></text>
          <text class="uuid-a03380bc-d66e-48a9-b32c-7767385da1db" transform="translate(64.56 861.7)"><tspan x="0" y="0">1</tspan></text>
          <text class="uuid-68af21e5-c3d0-4928-ba82-3bdf49c2c8da" transform="translate(64.56 861.7)"><tspan x="0" y="0">1</tspan></text>
          <text class="uuid-68af21e5-c3d0-4928-ba82-3bdf49c2c8da" transform="translate(247.85 861.7)"><tspan x="0" y="0">2</tspan></text>
          <text class="uuid-a03380bc-d66e-48a9-b32c-7767385da1db" transform="translate(247.85 861.7)"><tspan x="0" y="0">2</tspan></text>
          <text class="uuid-68af21e5-c3d0-4928-ba82-3bdf49c2c8da" transform="translate(247.85 861.7)"><tspan x="0" y="0">2</tspan></text>
          <text class="uuid-68af21e5-c3d0-4928-ba82-3bdf49c2c8da" transform="translate(432.29 861.7)"><tspan x="0" y="0">3</tspan></text>
          <text class="uuid-a03380bc-d66e-48a9-b32c-7767385da1db" transform="translate(432.29 861.7)"><tspan x="0" y="0">3</tspan></text>
          <text class="uuid-68af21e5-c3d0-4928-ba82-3bdf49c2c8da" transform="translate(432.29 861.7)"><tspan x="0" y="0">3</tspan></text>
          <text class="uuid-68af21e5-c3d0-4928-ba82-3bdf49c2c8da" transform="translate(616.73 861.7)"><tspan x="0" y="0">4</tspan></text>
          <text class="uuid-a03380bc-d66e-48a9-b32c-7767385da1db" transform="translate(616.73 861.7)"><tspan x="0" y="0">4</tspan></text>
          <text class="uuid-68af21e5-c3d0-4928-ba82-3bdf49c2c8da" transform="translate(616.73 861.7)"><tspan x="0" y="0">4</tspan></text>
          <text class="uuid-68af21e5-c3d0-4928-ba82-3bdf49c2c8da" transform="translate(801.17 861.7)"><tspan x="0" y="0">5</tspan></text>
          <text class="uuid-a03380bc-d66e-48a9-b32c-7767385da1db" transform="translate(801.17 861.7)"><tspan x="0" y="0">5</tspan></text>
          <text class="uuid-68af21e5-c3d0-4928-ba82-3bdf49c2c8da" transform="translate(801.17 861.7)"><tspan x="0" y="0">5</tspan></text>
          <text class="uuid-68af21e5-c3d0-4928-ba82-3bdf49c2c8da" transform="translate(985.61 861.7)"><tspan x="0" y="0">6</tspan></text>
          <text class="uuid-a03380bc-d66e-48a9-b32c-7767385da1db" transform="translate(985.61 861.7)"><tspan x="0" y="0">6</tspan></text>
          <text class="uuid-68af21e5-c3d0-4928-ba82-3bdf49c2c8da" transform="translate(985.61 861.7)"><tspan x="0" y="0">6</tspan></text>
          <text class="uuid-68af21e5-c3d0-4928-ba82-3bdf49c2c8da" transform="translate(1170.05 861.7)"><tspan x="0" y="0">7</tspan></text>
          <text class="uuid-a03380bc-d66e-48a9-b32c-7767385da1db" transform="translate(1170.05 861.7)"><tspan x="0" y="0">7</tspan></text>
          <text class="uuid-68af21e5-c3d0-4928-ba82-3bdf49c2c8da" transform="translate(1170.05 861.7)"><tspan x="0" y="0">7</tspan></text>
          <path class="uuid-837c592c-b267-4d06-838b-31f02fbfdb96" d="m67.55,844.38l.25-9.52.25-3.94.49-5.57.98-7.88,1.97-11.12m0,0l1.64-7.22,1.64-6.2,3.29-10.53,3.29-8.93,3.29-7.88m0,0l3.29-7.12,3.29-6.54,3.29-6.08,3.29-5.69,6.58-10.46,6.58-9.48m0,0l6.58-8.71,6.58-8.09,6.58-7.58,6.58-7.14,6.58-6.76,6.58-6.42,6.58-6.13,6.58-5.86,6.58-5.63,6.58-5.41,6.58-5.21,6.58-5.03,6.58-4.87,6.58-4.71,6.58-4.57,6.58-4.44,6.58-4.31,6.58-4.2,6.58-4.09,6.58-3.98,6.58-3.88,6.58-3.79,6.58-3.7,6.58-3.62,6.58-3.54,6.58-3.47,6.58-3.39,6.58-3.33,6.58-3.26,6.58-3.2,6.58-3.14,6.58-3.08,6.58-3.02,6.58-2.97,6.58-2.92,6.58-2.87,6.58-2.82,6.58-2.77,6.58-2.73,6.58-2.69,6.58-2.65,6.58-2.61,6.58-2.57,6.58-2.53,6.58-2.49,6.58-2.46,6.58-2.42,6.58-2.39,6.58-2.36,6.58-2.32,6.58-2.29,6.58-2.26,6.58-2.24,6.58-2.21,6.58-2.18,6.58-2.15,6.58-2.13,6.58-2.1,6.58-2.08,6.58-2.05,6.58-2.03,6.58-2.01,6.58-1.98,6.58-1.96m0,0l6.58-1.94,6.58-1.92,6.58-1.9,6.58-1.88,6.58-1.86,6.58-1.84,6.58-1.82,6.58-1.8,6.58-1.78,6.58-1.77,6.58-1.75,6.58-1.73,6.58-1.71,6.58-1.7,6.58-1.68,6.58-1.67,6.58-1.65,6.58-1.64,6.58-1.62,6.58-1.61,6.58-1.59,6.58-1.58,6.58-1.56,6.58-1.55,6.58-1.54,6.58-1.52,6.58-1.51,6.58-1.5,6.58-1.49,6.58-1.47,6.58-1.46,6.58-1.45,6.58-1.44,6.58-1.43,6.58-1.42,6.58-1.41,6.58-1.39,6.58-1.38,6.58-1.37,6.58-1.36,6.58-1.35,6.58-1.34,6.58-1.33,6.58-1.32,6.58-1.31,6.58-1.3,6.58-1.29,6.58-1.29,6.58-1.28,6.58-1.27,6.58-1.26,6.58-1.25,6.58-1.24,6.58-1.23,6.58-1.22,6.58-1.22,6.58-1.21,6.58-1.2,6.58-1.19,6.58-1.18,6.58-1.18,6.58-1.17,6.58-1.16,6.58-1.15,6.58-1.15,6.58-1.14,6.58-1.13,6.58-1.13,6.58-1.12,6.58-1.11,6.58-1.11,6.58-1.1,6.58-1.09,6.58-1.09,6.58-1.08,6.58-1.07,6.58-1.07,6.58-1.06,6.58-1.05,6.58-1.05,6.58-1.04,6.58-1.04,6.58-1.03,6.58-1.02,6.58-1.02,6.58-1.01,6.58-1.01,6.58-1,6.58-1,6.58-.99,6.58-.99,6.58-.98,6.58-.98,6.58-.97,6.58-.97,6.58-.96,6.58-.95,6.58-.95,6.58-.95,6.58-.94,6.58-.94,6.58-.93,6.58-.93,6.58-.92,6.58-.92,6.58-.91,6.58-.91,6.58-.9,6.58-.9,6.58-.89,6.58-.89,6.58-.89,6.58-.88,6.58-.88,6.58-.87,6.58-.87,6.58-.86,6.58-.86,6.58-.86,6.58-.85,6.58-.85,6.58-.84,6.58-.84,6.58-.84,6.58-.83,6.58-.83,6.58-.83,6.58-.82"/>
        </g>
      </g>
    </g>
  </g>
  <g id="uuid-6f66dbad-0a57-49f4-9f8c-f6d606cca339" data-name="Marco">
    <path class="uuid-01fd5830-968b-4fdc-96e9-7155d3a12e74" d="m-2-2V1022h1249V-2H-2Zm1232,987c0,11.05-8.95,20-20,20H35c-11.05,0-20-8.95-20-20V35c0-11.05,8.95-20,20-20h1175c11.05,0,20,8.95,20,20v950Z"/>
  </g>
  <g id="uuid-807fa7d2-aee2-41a2-acca-bac8ece5cb77" data-name="texto">
    <g>
      <path class="uuid-bcc38439-bdd1-49e4-b30f-61b9fde45129" d="m766.99,344.11c-.13-.99-.25-1.68-.37-2.06s-.31-.68-.57-.88c-.26-.2-.68-.32-1.27-.36l.21-.96h5.02l1.48,15.53c4.4-6.02,6.6-10.33,6.6-12.93,0-.61-.13-1.03-.39-1.25-.26-.22-.7-.35-1.33-.39l.2-.96h5.04l.53.98c-.69,1.81-1.57,3.68-2.65,5.62s-2.39,4.06-3.95,6.37c-1.56,2.3-3.29,4.7-5.19,7.19-1.46,1.91-2.68,3.36-3.67,4.34-.77.74-1.47,1.31-2.12,1.69s-1.27.66-1.88.82-1.25.24-1.92.24c-.35,0-.75-.04-1.19-.11s-.82-.17-1.13-.28l.84-3.65h1.52c.01.44.12.79.31,1.05s.48.39.86.39c.42,0,.77-.04,1.07-.13s.62-.22.95-.42.74-.51,1.21-.94c.47-.43,1.01-1,1.61-1.71.6-.71,1.27-1.57,2.01-2.57l-1.86-14.63Z"/>
      <path class="uuid-bcc38439-bdd1-49e4-b30f-61b9fde45129" d="m793.49,344.34v-2.6h24.06v2.6h-24.06Zm0,8.11v-2.6h24.06v2.6h-24.06Z"/>
      <path class="uuid-bcc38439-bdd1-49e4-b30f-61b9fde45129" d="m843.63,344.54c-.03-.99-.11-1.71-.24-2.15s-.36-.77-.66-1c-.31-.22-.74-.33-1.3-.33-1.32,0-2.5.52-3.54,1.57-1.05,1.05-1.9,2.53-2.57,4.45s-1,3.77-1,5.54c0,.55.05,1.06.15,1.54s.27.9.51,1.25c.24.35.56.63.96.83.4.2.9.3,1.51.3,1.18,0,2.21-.22,3.08-.67.87-.45,1.78-1.16,2.74-2.12l1.19,1.19c-1.22,1.35-2.46,2.34-3.7,2.97-1.24.62-2.58.94-4.01.94-1.89,0-3.32-.56-4.3-1.68s-1.46-2.75-1.46-4.88c0-1.39.26-2.92.78-4.59.52-1.67,1.28-3.13,2.29-4.39,1-1.26,2.17-2.21,3.52-2.83,1.34-.62,2.77-.94,4.3-.94,1.04,0,1.95.06,2.72.18.77.12,1.46.25,2.06.41l-.96,4.41h-2.05Z"/>
      <path class="uuid-bcc38439-bdd1-49e4-b30f-61b9fde45129" d="m854.39,358.85c-2.02,0-3.58-.57-4.7-1.7s-1.67-2.76-1.67-4.88c0-.78.1-1.7.29-2.75.25-1.37.6-2.58,1.05-3.63.59-1.32,1.34-2.45,2.26-3.41s1.97-1.69,3.16-2.19,2.47-.75,3.84-.75c1.5,0,2.72.29,3.68.86s1.65,1.35,2.08,2.33.64,2.12.64,3.41c0,1.16-.16,2.4-.49,3.71-.47,1.93-1.15,3.56-2.05,4.9s-2.03,2.36-3.38,3.06c-1.35.7-2.93,1.04-4.73,1.04Zm-2.95-5.74c0,1.43.3,2.49.89,3.17.59.68,1.49,1.03,2.69,1.03,1.28,0,2.41-.57,3.4-1.72.99-1.15,1.77-2.75,2.34-4.81.57-2.06.86-3.88.86-5.44,0-1.41-.27-2.46-.82-3.17s-1.4-1.06-2.56-1.06c-1.35,0-2.54.57-3.54,1.7-1.01,1.13-1.8,2.75-2.38,4.86-.58,2.11-.87,3.93-.87,5.45Z"/>
      <path class="uuid-bcc38439-bdd1-49e4-b30f-61b9fde45129" d="m879.57,344.4c-.14-1.17-.48-2.02-1.01-2.55s-1.34-.79-2.45-.79c-.61,0-1.17.11-1.66.34-.5.23-.89.56-1.17,1-.29.44-.43.95-.43,1.53,0,.48.1.92.29,1.32s.52.81.99,1.24c.46.43,1.11.92,1.94,1.48,1.26.85,2.15,1.67,2.66,2.46s.76,1.71.76,2.75c0,1.22-.29,2.26-.88,3.12s-1.39,1.49-2.4,1.9-2.16.62-3.44.62c-1.15,0-2.22-.08-3.21-.25s-1.96-.38-2.9-.64l.92-4.22h1.52c.09,1.2.43,2.09,1.03,2.69.59.59,1.46.89,2.59.89s2.06-.29,2.71-.87c.65-.58.98-1.34.98-2.29,0-.56-.1-1.06-.29-1.5s-.5-.87-.92-1.27c-.42-.4-1.01-.87-1.78-1.39-.82-.56-1.48-1.09-1.99-1.58s-.9-1.04-1.18-1.63c-.28-.59-.42-1.25-.42-1.96,0-1.08.27-2.02.8-2.81.53-.79,1.29-1.4,2.28-1.82.98-.42,2.13-.62,3.45-.62,2.15,0,4.04.28,5.68.84l-.9,4.02h-1.56Z"/>
      <path class="uuid-bcc38439-bdd1-49e4-b30f-61b9fde45129" d="m900.17,358.52h-6.13l2.46-9.92c.18-.72.34-1.44.48-2.18s.21-1.4.21-2c0-.94-.16-1.6-.47-2s-.84-.6-1.58-.6c-.53,0-1.12.22-1.77.66s-1.33,1.12-2.04,2.02c-.72.91-1.29,1.77-1.71,2.6-.42.83-.76,1.81-1.01,2.96l-1.78,8.46h-3.38l5.02-22.32c.14-.65.24-1.12.3-1.42s.1-.56.13-.81c.03-.25.04-.47.04-.66,0-.55-.17-.93-.5-1.15s-.93-.34-1.79-.37l.23-1.02,4.94-.18h1.13l-3.36,13.54.23.08c1.22-1.63,2.39-2.81,3.5-3.55,1.11-.74,2.23-1.11,3.38-1.11,1.26,0,2.22.35,2.87,1.04.65.7.98,1.73.98,3.1,0,.83-.13,1.84-.39,3.01l-1.64,6.95c-.13.56-.22,1.01-.27,1.35-.05.34-.08.63-.08.88,0,.4.07.72.21.94s.34.39.62.5c.28.11.73.2,1.34.26l-.18.96Z"/>
      <path class="uuid-bcc38439-bdd1-49e4-b30f-61b9fde45129" d="m909.3,340.09h-4.98l.38-1.77h4.98l-.38,1.77Z"/>
      <path class="uuid-bcc38439-bdd1-49e4-b30f-61b9fde45129" d="m917.53,341.91c-.14.62-.21,1.07-.21,1.33,0,.3.08.53.24.68.16.15.42.25.79.32s.94.11,1.71.13l-.17.83h-8.04l.17-.83c.64-.03,1.13-.07,1.47-.12.34-.05.62-.13.83-.22.21-.09.38-.2.51-.33s.24-.3.34-.51c.1-.21.19-.53.29-.96l1.82-8.26c.07-.32.12-.57.15-.76s.05-.35.05-.47c0-.23-.06-.39-.17-.48-.11-.09-.25-.14-.41-.14-.2,0-.5.1-.9.29s-1,.53-1.8,1l-.44-.91,5.77-3.02h.79l-.33,1.33c-.12.49-.25,1.05-.39,1.7l-2.07,9.41Z"/>
      <path class="uuid-bcc38439-bdd1-49e4-b30f-61b9fde45129" d="m950.2,340.81c-2.53,2.7-5.17,5.36-7.93,7.99l1.82,4.28c.48,1.15.87,1.99,1.15,2.53.29.54.55.93.78,1.17s.47.42.7.53.61.2,1.11.26l-.21.96h-4.86l-2.71-7.85c-.31.27-.73.65-1.24,1.14-.51.49-1.01,1.01-1.49,1.56-.48.55-.82,1-1.02,1.34s-.32.63-.38.88-.09.5-.09.76c0,.34.09.61.28.8.19.2.51.33.97.41l-.21.96h-5.57l-.37-.96c2.85-3.06,5.66-5.88,8.42-8.46l-1.86-4.36c-.38-.89-.68-1.56-.92-2.02s-.46-.82-.67-1.07-.46-.45-.74-.59c-.28-.14-.68-.22-1.2-.26l.21-.96h4.86l2.6,7.36c.64-.59,1.24-1.19,1.82-1.82.57-.62.98-1.12,1.21-1.48s.4-.69.49-.98c.09-.29.14-.59.14-.9,0-.72-.42-1.13-1.25-1.23l.21-.96h5.57l.39.96Z"/>
    </g>
  </g>
</svg>