<?xml version="1.0" encoding="UTF-8"?>
<svg xmlns="http://www.w3.org/2000/svg" width="1245" height="1020" xmlns:xlink="http://www.w3.org/1999/xlink" viewBox="0 0 1245 1020">
  <defs>
    <style>
      .uuid-bc0b5f9f-3cac-4085-a97d-5735e9d7d06f {
        fill: #fff;
      }

      .uuid-1195d8c7-55bb-4c87-aeb7-fda5c263a703, .uuid-71d43820-64c2-4352-aac8-b37794307268 {
        font-family: HelveticaNeue-UltraLight, 'Helvetica Neue UltraLight';
        font-size: 13.76px;
        font-weight: 100;
        isolation: isolate;
      }

      .uuid-1195d8c7-55bb-4c87-aeb7-fda5c263a703, .uuid-5d2228b6-f3b5-4d8f-a96e-d78507949e23 {
        fill: #606060;
      }

      .uuid-4bf708b3-52c5-46e4-9042-8c76803a41e6 {
        stroke: #606060;
        stroke-miterlimit: 10;
        stroke-width: 2.29px;
      }

      .uuid-4bf708b3-52c5-46e4-9042-8c76803a41e6, .uuid-c38102a4-f650-4f75-aead-cf9634459902, .uuid-6952230f-5987-4454-a5cc-9cdfb2d7ac2e, .uuid-71d43820-64c2-4352-aac8-b37794307268, .uuid-39050717-8e3d-4c67-8d00-178763655bca, .uuid-6bc2a33b-5397-4638-ab07-4a3e2207f928, .uuid-d342e893-897e-479a-adfe-b8e95245a8c2, .uuid-ca83ab6f-9e27-4232-8963-251f2a29a689 {
        fill: none;
      }

      .uuid-c38102a4-f650-4f75-aead-cf9634459902 {
        stroke: rgba(192, 192, 192, .24);
      }

      .uuid-c38102a4-f650-4f75-aead-cf9634459902, .uuid-6952230f-5987-4454-a5cc-9cdfb2d7ac2e {
        stroke-dasharray: 0 0 1.15 3.44;
        stroke-width: 1.15px;
      }

      .uuid-c38102a4-f650-4f75-aead-cf9634459902, .uuid-6952230f-5987-4454-a5cc-9cdfb2d7ac2e, .uuid-ca83ab6f-9e27-4232-8963-251f2a29a689 {
        stroke-linejoin: round;
      }

      .uuid-6952230f-5987-4454-a5cc-9cdfb2d7ac2e {
        stroke: silver;
      }

      .uuid-cbde4857-1a0c-401e-96fd-18ebafdbc8bc {
        fill: #333;
      }

      .uuid-71d43820-64c2-4352-aac8-b37794307268 {
        stroke: #fff;
        stroke-linejoin: bevel;
        stroke-width: 3.44px;
      }

      .uuid-39050717-8e3d-4c67-8d00-178763655bca {
        clip-path: url(#uuid-eb5ec5dc-1828-405a-89a6-720a490cd0cb);
      }

      .uuid-f00eb2fc-bacb-4e27-ac8d-dd6090fea330 {
        fill: #00699b;
      }

      .uuid-5d2228b6-f3b5-4d8f-a96e-d78507949e23 {
        fill-rule: evenodd;
      }

      .uuid-d342e893-897e-479a-adfe-b8e95245a8c2 {
        clip-path: url(#uuid-bde85b29-1761-4220-95d7-f95fcd0dc2fe);
      }

      .uuid-ca83ab6f-9e27-4232-8963-251f2a29a689 {
        stroke: rgba(153, 51, 255, .7);
        stroke-linecap: round;
        stroke-width: 4.01px;
      }
    </style>
    <clipPath id="uuid-bde85b29-1761-4220-95d7-f95fcd0dc2fe">
      <rect class="uuid-6bc2a33b-5397-4638-ab07-4a3e2207f928" y="2.61" width="1245" height="1019.39"/>
    </clipPath>
    <clipPath id="uuid-eb5ec5dc-1828-405a-89a6-720a490cd0cb">
      <rect class="uuid-6bc2a33b-5397-4638-ab07-4a3e2207f928" x="-220.43" y="-10.1" width="1685.87" height="1040.19"/>
    </clipPath>
  </defs>
  <g id="uuid-bbab6438-4e5b-4b0a-a935-9d34335546e4" data-name="Grafica">
    <g class="uuid-d342e893-897e-479a-adfe-b8e95245a8c2">
      <g class="uuid-39050717-8e3d-4c67-8d00-178763655bca">
        <g>
          <rect class="uuid-bc0b5f9f-3cac-4085-a97d-5735e9d7d06f" x="-220.43" y="-10.1" width="1685.87" height="1040.19"/>
          <path class="uuid-6952230f-5987-4454-a5cc-9cdfb2d7ac2e" d="m-115.5-9.52v1040.19m0-1040.19v1040.19M69.14-9.52v1040.19M253.79-9.52v1040.19M438.43-9.52v1040.19M807.72-9.52v1040.19M992.36-9.52v1040.19M1177-9.52v1040.19M1361.64-9.52v1040.19"/>
          <path class="uuid-c38102a4-f650-4f75-aead-cf9634459902" d="m-188.9-9.52v1040.19M-152.2-9.52v1040.19M-78.8-9.52v1040.19M-40.95-9.52v1040.19M-4.25-9.52v1040.19M32.45-9.52v1040.19M105.84-9.52v1040.19M143.69-9.52v1040.19M180.39-9.52v1040.19M217.09-9.52v1040.19M290.49-9.52v1040.19M328.33-9.52v1040.19M365.03-9.52v1040.19M401.73-9.52v1040.19M475.13-9.52v1040.19M512.98-9.52v1040.19M549.68-9.52v1040.19M586.37-9.52v1040.19M659.77-9.52v1040.19M697.62-9.52v1040.19M734.32-9.52v1040.19M771.02-9.52v1040.19M844.42-9.52v1040.19M881.11-9.52v1040.19M918.96-9.52v1040.19M955.66-9.52v1040.19M1029.06-9.52v1040.19M1065.76-9.52v1040.19M1103.6-9.52v1040.19M1140.3-9.52v1040.19M1213.7-9.52v1040.19M1250.4-9.52v1040.19M1288.25-9.52v1040.19M1324.95-9.52v1040.19M1398.34-9.52v1040.19M1435.04-9.52v1040.19"/>
          <path class="uuid-6952230f-5987-4454-a5cc-9cdfb2d7ac2e" d="m-219.86,51.26h1685.87m-1685.87,0h1685.87M-219.86,143.01h1685.87M-219.86,235.9h1685.87M-219.86,327.65h1685.87M-219.86,420.55h1685.87M-219.86,605.19h1685.87m-1685.87,91.75h1685.87m-1685.87,92.89h1685.87m-1685.87,91.75h1685.87m-1685.87,92.89h1685.87"/>
          <path class="uuid-c38102a4-f650-4f75-aead-cf9634459902" d="m-219.86-3.79h1685.87M-219.86-3.79h1685.87M-219.86,14.56h1685.87M-219.86,32.91h1685.87M-219.86,69.61h1685.87M-219.86,87.96h1685.87M-219.86,106.31h1685.87M-219.86,124.66h1685.87M-219.86,162.5h1685.87m-1685.87,18.35h1685.87m-1685.87,18.35h1685.87m-1685.87,18.35h1685.87M-219.86,254.25h1685.87m-1685.87,18.35h1685.87m-1685.87,18.35h1685.87m-1685.87,18.35h1685.87m-1685.87,37.85h1685.87m-1685.87,18.35h1685.87m-1685.87,18.35h1685.87m-1685.87,18.35h1685.87m-1685.87,36.7h1685.87m-1685.87,18.35h1685.87m-1685.87,18.35h1685.87m-1685.87,18.35h1685.87m-1685.87,36.7h1685.87m-1685.87,19.5h1685.87m-1685.87,18.35h1685.87m-1685.87,18.35h1685.87m-1685.87,36.7h1685.87m-1685.87,18.35h1685.87m-1685.87,18.35h1685.87m-1685.87,18.35h1685.87m-1685.87,36.7h1685.87m-1685.87,19.5h1685.87m-1685.87,18.35h1685.87m-1685.87,18.35h1685.87m-1685.87,36.7h1685.87m-1685.87,18.35h1685.87m-1685.87,18.35h1685.87m-1685.87,18.35h1685.87m-1685.87,36.7h1685.87m-1685.87,18.35h1685.87m-1685.87,19.5h1685.87m-1685.87,18.35h1685.87m-1685.87,36.7h1685.87m-1685.87,18.35h1685.87m-1685.87,18.35h1685.87"/>
          <path class="uuid-4bf708b3-52c5-46e4-9042-8c76803a41e6" d="m623.65-6.66v1036.75"/>
          <path class="uuid-5d2228b6-f3b5-4d8f-a96e-d78507949e23" d="m623.24-7.8l-5.73,22.94h11.47"/>
          <path class="uuid-4bf708b3-52c5-46e4-9042-8c76803a41e6" d="m-220.43,512.87h1682.43"/>
          <text class="uuid-1195d8c7-55bb-4c87-aeb7-fda5c263a703" transform="translate(61.69 530.07)"><tspan x="0" y="0">–3</tspan></text>
          <text class="uuid-71d43820-64c2-4352-aac8-b37794307268" transform="translate(61.69 530.07)"><tspan x="0" y="0">–3</tspan></text>
          <text class="uuid-1195d8c7-55bb-4c87-aeb7-fda5c263a703" transform="translate(61.69 530.07)"><tspan x="0" y="0">–3</tspan></text>
          <text class="uuid-1195d8c7-55bb-4c87-aeb7-fda5c263a703" transform="translate(246.33 530.07)"><tspan x="0" y="0">–2</tspan></text>
          <text class="uuid-71d43820-64c2-4352-aac8-b37794307268" transform="translate(246.33 530.07)"><tspan x="0" y="0">–2</tspan></text>
          <text class="uuid-1195d8c7-55bb-4c87-aeb7-fda5c263a703" transform="translate(246.33 530.07)"><tspan x="0" y="0">–2</tspan></text>
          <text class="uuid-1195d8c7-55bb-4c87-aeb7-fda5c263a703" transform="translate(430.98 530.07)"><tspan x="0" y="0">–1</tspan></text>
          <text class="uuid-71d43820-64c2-4352-aac8-b37794307268" transform="translate(430.98 530.07)"><tspan x="0" y="0">–1</tspan></text>
          <text class="uuid-1195d8c7-55bb-4c87-aeb7-fda5c263a703" transform="translate(430.98 530.07)"><tspan x="0" y="0">–1</tspan></text>
          <text class="uuid-1195d8c7-55bb-4c87-aeb7-fda5c263a703" transform="translate(804.85 530.07)"><tspan x="0" y="0">1</tspan></text>
          <text class="uuid-71d43820-64c2-4352-aac8-b37794307268" transform="translate(804.85 530.07)"><tspan x="0" y="0">1</tspan></text>
          <text class="uuid-1195d8c7-55bb-4c87-aeb7-fda5c263a703" transform="translate(804.85 530.07)"><tspan x="0" y="0">1</tspan></text>
          <text class="uuid-1195d8c7-55bb-4c87-aeb7-fda5c263a703" transform="translate(988.34 530.07)"><tspan x="0" y="0">2</tspan></text>
          <text class="uuid-71d43820-64c2-4352-aac8-b37794307268" transform="translate(988.34 530.07)"><tspan x="0" y="0">2</tspan></text>
          <text class="uuid-1195d8c7-55bb-4c87-aeb7-fda5c263a703" transform="translate(988.34 530.07)"><tspan x="0" y="0">2</tspan></text>
          <text class="uuid-1195d8c7-55bb-4c87-aeb7-fda5c263a703" transform="translate(1172.99 530.07)"><tspan x="0" y="0">3</tspan></text>
          <text class="uuid-71d43820-64c2-4352-aac8-b37794307268" transform="translate(1172.99 530.07)"><tspan x="0" y="0">3</tspan></text>
          <text class="uuid-1195d8c7-55bb-4c87-aeb7-fda5c263a703" transform="translate(1172.99 530.07)"><tspan x="0" y="0">3</tspan></text>
          <text class="uuid-1195d8c7-55bb-4c87-aeb7-fda5c263a703" transform="translate(599.56 979.63)"><tspan x="0" y="0">–5</tspan></text>
          <text class="uuid-71d43820-64c2-4352-aac8-b37794307268" transform="translate(599.56 979.63)"><tspan x="0" y="0">–5</tspan></text>
          <text class="uuid-1195d8c7-55bb-4c87-aeb7-fda5c263a703" transform="translate(599.56 979.63)"><tspan x="0" y="0">–5</tspan></text>
          <text class="uuid-1195d8c7-55bb-4c87-aeb7-fda5c263a703" transform="translate(599.56 886.74)"><tspan x="0" y="0">–4</tspan></text>
          <text class="uuid-71d43820-64c2-4352-aac8-b37794307268" transform="translate(599.56 886.74)"><tspan x="0" y="0">–4</tspan></text>
          <text class="uuid-1195d8c7-55bb-4c87-aeb7-fda5c263a703" transform="translate(599.56 886.74)"><tspan x="0" y="0">–4</tspan></text>
          <text class="uuid-1195d8c7-55bb-4c87-aeb7-fda5c263a703" transform="translate(599.56 794.99)"><tspan x="0" y="0">–3</tspan></text>
          <text class="uuid-71d43820-64c2-4352-aac8-b37794307268" transform="translate(599.56 794.99)"><tspan x="0" y="0">–3</tspan></text>
          <text class="uuid-1195d8c7-55bb-4c87-aeb7-fda5c263a703" transform="translate(599.56 794.99)"><tspan x="0" y="0">–3</tspan></text>
          <text class="uuid-1195d8c7-55bb-4c87-aeb7-fda5c263a703" transform="translate(599.56 702.1)"><tspan x="0" y="0">–2</tspan></text>
          <text class="uuid-71d43820-64c2-4352-aac8-b37794307268" transform="translate(599.56 702.1)"><tspan x="0" y="0">–2</tspan></text>
          <text class="uuid-1195d8c7-55bb-4c87-aeb7-fda5c263a703" transform="translate(599.56 702.1)"><tspan x="0" y="0">–2</tspan></text>
          <text class="uuid-1195d8c7-55bb-4c87-aeb7-fda5c263a703" transform="translate(599.56 610.35)"><tspan x="0" y="0">–1</tspan></text>
          <text class="uuid-71d43820-64c2-4352-aac8-b37794307268" transform="translate(599.56 610.35)"><tspan x="0" y="0">–1</tspan></text>
          <text class="uuid-1195d8c7-55bb-4c87-aeb7-fda5c263a703" transform="translate(599.56 610.35)"><tspan x="0" y="0">–1</tspan></text>
          <text class="uuid-1195d8c7-55bb-4c87-aeb7-fda5c263a703" transform="translate(606.44 425.71)"><tspan x="0" y="0">1</tspan></text>
          <text class="uuid-71d43820-64c2-4352-aac8-b37794307268" transform="translate(606.44 425.71)"><tspan x="0" y="0">1</tspan></text>
          <text class="uuid-1195d8c7-55bb-4c87-aeb7-fda5c263a703" transform="translate(606.44 425.71)"><tspan x="0" y="0">1</tspan></text>
          <text class="uuid-1195d8c7-55bb-4c87-aeb7-fda5c263a703" transform="translate(606.44 332.81)"><tspan x="0" y="0">2</tspan></text>
          <text class="uuid-71d43820-64c2-4352-aac8-b37794307268" transform="translate(606.44 332.81)"><tspan x="0" y="0">2</tspan></text>
          <text class="uuid-1195d8c7-55bb-4c87-aeb7-fda5c263a703" transform="translate(606.44 332.81)"><tspan x="0" y="0">2</tspan></text>
          <text class="uuid-1195d8c7-55bb-4c87-aeb7-fda5c263a703" transform="translate(606.44 241.06)"><tspan x="0" y="0">3</tspan></text>
          <text class="uuid-71d43820-64c2-4352-aac8-b37794307268" transform="translate(606.44 241.06)"><tspan x="0" y="0">3</tspan></text>
          <text class="uuid-1195d8c7-55bb-4c87-aeb7-fda5c263a703" transform="translate(606.44 241.06)"><tspan x="0" y="0">3</tspan></text>
          <text class="uuid-1195d8c7-55bb-4c87-aeb7-fda5c263a703" transform="translate(606.44 148.17)"><tspan x="0" y="0">4</tspan></text>
          <text class="uuid-71d43820-64c2-4352-aac8-b37794307268" transform="translate(606.44 148.17)"><tspan x="0" y="0">4</tspan></text>
          <text class="uuid-1195d8c7-55bb-4c87-aeb7-fda5c263a703" transform="translate(606.44 148.17)"><tspan x="0" y="0">4</tspan></text>
          <text class="uuid-1195d8c7-55bb-4c87-aeb7-fda5c263a703" transform="translate(606.44 56.42)"><tspan x="0" y="0">5</tspan></text>
          <text class="uuid-71d43820-64c2-4352-aac8-b37794307268" transform="translate(606.44 56.42)"><tspan x="0" y="0">5</tspan></text>
          <text class="uuid-1195d8c7-55bb-4c87-aeb7-fda5c263a703" transform="translate(606.44 56.42)"><tspan x="0" y="0">5</tspan></text>
          <text class="uuid-1195d8c7-55bb-4c87-aeb7-fda5c263a703" transform="translate(606.44 530.07)"><tspan x="0" y="0">0</tspan></text>
          <text class="uuid-71d43820-64c2-4352-aac8-b37794307268" transform="translate(606.44 530.07)"><tspan x="0" y="0">0</tspan></text>
          <text class="uuid-1195d8c7-55bb-4c87-aeb7-fda5c263a703" transform="translate(606.44 530.07)"><tspan x="0" y="0">0</tspan></text>
          <path class="uuid-ca83ab6f-9e27-4232-8963-251f2a29a689" d="m-220.43,532.77l6.59.16,6.59.16,6.59.16,6.59.16,6.59.17,6.59.17,6.59.17,6.59.17,6.59.18,6.59.18,6.59.18,6.59.19,6.59.19,6.59.19,6.59.19,6.59.2,6.59.2,6.59.2,6.59.21,6.59.21,6.59.22,6.59.22,6.59.22,6.59.23,6.59.23,6.59.24,6.59.24,6.59.25,6.59.25,6.59.26,6.59.26,6.59.27,6.59.27,6.59.28,6.59.28,6.59.29,6.59.29,6.59.3,6.59.31,6.59.31,6.59.32,6.59.33,6.59.34,6.59.34,6.59.35,6.59.36,6.59.37,6.59.38,6.59.39,6.59.39,6.59.4,6.59.41,6.59.42,6.59.44,6.59.45,6.59.46,6.59.47,6.59.48,6.59.5,6.59.51,6.59.52,6.59.54,6.59.55,6.59.57,6.59.59,6.59.6,6.59.62,6.59.64,6.59.66,6.59.68,6.59.7,6.59.72,6.59.75,6.59.77,6.59.8,6.59.82,6.59.85,6.59.88,6.59.92,6.59.95,6.59.98,6.59,1.02,6.59,1.06,6.59,1.1,6.59,1.14,6.59,1.19,6.59,1.24,6.59,1.29,6.59,1.35,6.59,1.4,6.59,1.47,6.59,1.53,6.59,1.6,6.59,1.68,6.59,1.76,6.59,1.85,6.59,1.94,6.59,2.04,6.59,2.14,6.59,2.26,6.59,2.38,6.59,2.52,6.59,2.66,6.59,2.82,6.59,2.99,6.59,3.18,6.59,3.38,6.59,3.61,6.59,3.86,6.59,4.13,6.59,4.44,6.59,4.78,6.59,5.17,6.59,5.6,6.59,6.1,6.59,6.68,6.59,7.35,6.59,8.14,6.59,9.09,6.59,10.26,3.29,5.65,3.29,6.06,3.29,6.53,3.29,7.08,3.29,7.71,3.29,8.46,3.29,9.36,3.29,10.46,1.65,5.73,1.65,6.12,1.65,6.57,1.65,7.08,1.65,7.68,1.65,8.39,1.65,9.25,1.65,10.29.82,5.61.82,5.98.82,6.4.82,6.88.82,7.43.82,8.09.82,8.87.82,9.82.82,10.99.41,6.03.41,6.45.41,6.94.41,7.5.41,8.17.41,8.96.41,9.93.41,11.12.21,6.11.21,6.54.21,7.04.21,7.62.21,8.31.21,9.13.21,10.14.21,11.39.1,6.27.1,6.73.1,7.26m2.37-1060.53l.1,8.19.1,7.52.1,6.96.1,6.47.1,6.04.1,5.67.21,10.4.21,9.34.21,8.48.21,7.77.21,7.16.21,6.65.21,6.2.21,5.81.41,10.63.41,9.53.41,8.64.41,7.9.41,7.27.41,6.74.41,6.28.41,5.88.82,10.74.82,9.62.82,8.71.82,7.95.82,7.32.82,6.78.82,6.31,1.65,11.45,1.65,10.18,1.65,9.16,1.65,8.32,1.65,7.62,1.65,7.03,1.65,6.52,1.65,6.08,3.29,11.05,3.29,9.83,3.29,8.84,3.29,8.03,3.29,7.35,3.29,6.77,3.29,6.27,3.29,5.83,6.59,10.56,6.59,9.33,6.59,8.34,6.59,7.52,6.59,6.82,6.59,6.22,6.59,5.71,6.59,5.26,6.59,4.86,6.59,4.51,6.59,4.2,6.59,3.92,6.59,3.66,6.59,3.43,6.59,3.22,6.59,3.03,6.59,2.86,6.59,2.7,6.59,2.55,6.59,2.41,6.59,2.28,6.59,2.17,6.59,2.06,6.59,1.96,6.59,1.87,6.59,1.78,6.59,1.7,6.59,1.62,6.59,1.55,6.59,1.48,6.59,1.42,6.59,1.36,6.59,1.3,6.59,1.25,6.59,1.2,6.59,1.15,6.59,1.11,6.59,1.07,6.59,1.03,6.59.99,6.59.96,6.59.92,6.59.89,6.59.86,6.59.83,6.59.8,6.59.78,6.59.75,6.59.73,6.59.71,6.59.68,6.59.66,6.59.64,6.59.62,6.59.61,6.59.59,6.59.57,6.59.56,6.59.54,6.59.53,6.59.51,6.59.5,6.59.49,6.59.47,6.59.46,6.59.45,6.59.44,6.59.43,6.59.42,6.59.41,6.59.4,6.59.39,6.59.38,6.59.37,6.59.36,6.59.35,6.59.34,6.59.34,6.59.33,6.59.32,6.59.32,6.59.31,6.59.3,6.59.3,6.59.29,6.59.28,6.59.28,6.59.27,6.59.27,6.59.26,6.59.26,6.59.25,6.59.25,6.59.24,6.59.24,6.59.23,6.59.23,6.59.23,6.59.22,6.59.22,6.59.21,6.59.21,6.59.21,6.59.2,6.59.2,6.59.2,6.59.19,6.59.19,6.59.19,6.59.18,6.59.18,6.59.18,6.59.17,6.59.17,6.59.17,6.59.17,6.59.16,6.59.16,6.59.16,6.59.16"/>
        </g>
      </g>
    </g>
  </g>
  <g id="uuid-ca3530c1-8ab7-4b4b-9362-78a1861f5fd9" data-name="Marco">
    <path class="uuid-f00eb2fc-bacb-4e27-ac8d-dd6090fea330" d="m-2-2V1022h1249V-2H-2Zm1232,987c0,11.05-8.95,20-20,20H35c-11.05,0-20-8.95-20-20V35c0-11.05,8.95-20,20-20h1175c11.05,0,20,8.95,20,20v950Z"/>
  </g>
  <g id="uuid-7756e4ca-8567-45fc-98e4-3817f590b575" data-name="texto">
    <g>
      <path class="uuid-cbde4857-1a0c-401e-96fd-18ebafdbc8bc" d="m727.68,291.67c-.13-.99-.25-1.68-.37-2.06s-.31-.68-.57-.88c-.26-.2-.68-.32-1.27-.36l.21-.96h5.02l1.48,15.53c4.4-6.02,6.6-10.33,6.6-12.93,0-.61-.13-1.03-.39-1.25-.26-.22-.7-.35-1.33-.39l.2-.96h5.04l.53.98c-.69,1.81-1.57,3.68-2.65,5.62s-2.39,4.06-3.95,6.37c-1.56,2.3-3.28,4.7-5.19,7.19-1.46,1.91-2.68,3.36-3.67,4.34-.77.74-1.47,1.31-2.12,1.69s-1.27.66-1.88.82-1.25.24-1.92.24c-.35,0-.75-.04-1.19-.11-.44-.07-.82-.17-1.13-.28l.84-3.65h1.52c.01.44.12.79.31,1.05s.48.39.86.39c.42,0,.78-.04,1.07-.13.3-.08.62-.22.95-.42s.74-.51,1.21-.94c.48-.43,1.01-1,1.61-1.71.6-.71,1.27-1.57,2.01-2.57l-1.86-14.63Z"/>
      <path class="uuid-cbde4857-1a0c-401e-96fd-18ebafdbc8bc" d="m754.18,291.91v-2.6h24.06v2.6h-24.06Zm0,8.11v-2.6h24.06v2.6h-24.06Z"/>
      <path class="uuid-cbde4857-1a0c-401e-96fd-18ebafdbc8bc" d="m804.32,292.1c-.03-.99-.11-1.71-.24-2.15s-.36-.77-.66-1c-.31-.22-.74-.33-1.3-.33-1.31,0-2.5.52-3.54,1.57-1.05,1.05-1.9,2.53-2.57,4.45s-1,3.77-1,5.54c0,.55.05,1.06.15,1.54s.27.9.51,1.25c.24.35.56.63.96.83.4.2.9.3,1.51.3,1.19,0,2.21-.22,3.08-.67.87-.45,1.78-1.16,2.74-2.12l1.19,1.19c-1.22,1.35-2.46,2.34-3.7,2.97-1.24.62-2.58.94-4.01.94-1.89,0-3.32-.56-4.3-1.68s-1.46-2.75-1.46-4.88c0-1.39.26-2.92.78-4.59.52-1.67,1.28-3.13,2.29-4.39,1-1.26,2.17-2.21,3.52-2.83,1.34-.62,2.77-.94,4.3-.94,1.04,0,1.95.06,2.72.18.78.12,1.46.25,2.06.41l-.96,4.41h-2.05Z"/>
      <path class="uuid-cbde4857-1a0c-401e-96fd-18ebafdbc8bc" d="m820.18,291.97c-.14-1.17-.48-2.02-1.01-2.55s-1.34-.79-2.45-.79c-.61,0-1.17.11-1.66.34-.49.23-.88.56-1.17,1-.29.44-.43.95-.43,1.53,0,.48.1.92.29,1.32s.52.81.99,1.24c.46.43,1.11.92,1.94,1.48,1.26.85,2.15,1.67,2.66,2.46s.76,1.71.76,2.75c0,1.22-.29,2.26-.88,3.12s-1.39,1.49-2.4,1.9-2.16.62-3.44.62c-1.15,0-2.22-.08-3.21-.25s-1.96-.38-2.9-.64l.92-4.22h1.52c.09,1.2.43,2.09,1.03,2.69.59.59,1.46.89,2.59.89s2.06-.29,2.71-.87c.65-.58.98-1.34.98-2.29,0-.56-.1-1.06-.29-1.5s-.5-.87-.92-1.27c-.42-.4-1.01-.87-1.78-1.39-.82-.56-1.48-1.09-1.99-1.58s-.9-1.04-1.18-1.63c-.28-.59-.42-1.25-.42-1.96,0-1.08.27-2.02.8-2.81.53-.79,1.29-1.4,2.28-1.82.98-.42,2.13-.62,3.45-.62,2.15,0,4.04.28,5.68.84l-.9,4.02h-1.56Z"/>
      <path class="uuid-cbde4857-1a0c-401e-96fd-18ebafdbc8bc" d="m836.92,292.1c-.03-.99-.11-1.71-.24-2.15s-.36-.77-.66-1c-.31-.22-.74-.33-1.3-.33-1.31,0-2.5.52-3.54,1.57-1.05,1.05-1.9,2.53-2.57,4.45s-1,3.77-1,5.54c0,.55.05,1.06.15,1.54s.27.9.51,1.25c.24.35.56.63.96.83.4.2.9.3,1.51.3,1.19,0,2.21-.22,3.08-.67.87-.45,1.78-1.16,2.74-2.12l1.19,1.19c-1.22,1.35-2.46,2.34-3.7,2.97-1.24.62-2.58.94-4.01.94-1.89,0-3.32-.56-4.3-1.68s-1.46-2.75-1.46-4.88c0-1.39.26-2.92.78-4.59.52-1.67,1.28-3.13,2.29-4.39,1-1.26,2.17-2.21,3.52-2.83,1.34-.62,2.77-.94,4.3-.94,1.04,0,1.95.06,2.72.18.78.12,1.46.25,2.06.41l-.96,4.41h-2.05Z"/>
      <path class="uuid-cbde4857-1a0c-401e-96fd-18ebafdbc8bc" d="m857.91,306.09h-6.13l2.46-9.92c.18-.72.34-1.44.48-2.18s.21-1.4.21-2c0-.94-.16-1.6-.47-2s-.84-.6-1.58-.6c-.53,0-1.12.22-1.77.66s-1.32,1.12-2.04,2.02c-.72.91-1.29,1.77-1.71,2.6-.42.83-.76,1.81-1.01,2.96l-1.78,8.46h-3.38l5.02-22.32c.14-.65.24-1.12.3-1.42s.1-.56.13-.81c.03-.25.04-.47.04-.66,0-.55-.17-.93-.5-1.15s-.93-.34-1.79-.37l.23-1.02,4.94-.18h1.13l-3.36,13.54.23.08c1.22-1.63,2.39-2.81,3.5-3.55,1.11-.74,2.23-1.11,3.38-1.11,1.26,0,2.22.35,2.87,1.04.65.7.98,1.73.98,3.1,0,.83-.13,1.84-.39,3.01l-1.64,6.95c-.13.56-.22,1.01-.27,1.35-.05.34-.08.63-.08.88,0,.4.07.72.21.94s.35.39.62.5c.28.11.73.2,1.34.26l-.18.96Z"/>
      <path class="uuid-cbde4857-1a0c-401e-96fd-18ebafdbc8bc" d="m867.04,287.65h-4.98l.38-1.77h4.98l-.38,1.77Z"/>
      <path class="uuid-cbde4857-1a0c-401e-96fd-18ebafdbc8bc" d="m875.27,289.48c-.14.62-.21,1.07-.21,1.33,0,.3.08.53.24.68.16.15.42.25.79.32s.94.11,1.71.13l-.17.83h-8.04l.17-.83c.64-.03,1.13-.07,1.47-.12.34-.05.62-.13.83-.22.21-.09.38-.2.51-.33s.24-.3.34-.51c.1-.21.19-.53.29-.96l1.82-8.26c.07-.32.12-.57.15-.76.04-.19.05-.35.05-.47,0-.23-.06-.39-.17-.48-.11-.09-.25-.14-.41-.14-.2,0-.5.1-.9.29s-1,.53-1.8,1l-.44-.91,5.77-3.02h.79l-.33,1.33c-.12.49-.25,1.05-.39,1.7l-2.07,9.41Z"/>
      <path class="uuid-cbde4857-1a0c-401e-96fd-18ebafdbc8bc" d="m907.94,288.37c-2.53,2.7-5.17,5.36-7.93,7.99l1.82,4.28c.48,1.15.87,1.99,1.15,2.53.29.54.55.93.78,1.17s.47.42.7.53.61.2,1.11.26l-.21.96h-4.86l-2.71-7.85c-.31.27-.73.65-1.24,1.14-.51.49-1.01,1.01-1.49,1.56-.48.55-.82,1-1.02,1.34s-.32.63-.38.88-.09.5-.09.76c0,.34.09.61.28.8.19.2.51.33.97.41l-.21.96h-5.57l-.37-.96c2.85-3.06,5.66-5.88,8.42-8.46l-1.86-4.36c-.38-.89-.68-1.56-.92-2.02s-.46-.82-.67-1.07-.46-.45-.74-.59c-.28-.14-.68-.22-1.2-.26l.21-.96h4.86l2.6,7.36c.64-.59,1.24-1.19,1.82-1.82.57-.62.98-1.12,1.21-1.48s.4-.69.49-.98c.09-.29.14-.59.14-.9,0-.72-.42-1.13-1.25-1.23l.21-.96h5.57l.39.96Z"/>
    </g>
  </g>
</svg>