<?xml version="1.0" encoding="UTF-8"?>
<svg xmlns="http://www.w3.org/2000/svg" width="1245" height="1020" xmlns:xlink="http://www.w3.org/1999/xlink" viewBox="0 0 1245 1020">
  <defs>
    <style>
      .uuid-13c61b36-18d0-4aac-927e-37a294dcfbba, .uuid-19165314-3ed4-4b60-8811-c9bcefb2f380, .uuid-c690c61b-bacd-411f-8c5a-90b9dcaf5466, .uuid-b19f4275-ebf7-41c7-b4b0-93b4399843e8 {
        font-family: HelveticaNeue-UltraLight, 'Helvetica Neue UltraLight';
        font-weight: 100;
        isolation: isolate;
      }

      .uuid-13c61b36-18d0-4aac-927e-37a294dcfbba, .uuid-2834ae81-2c2a-451f-809b-a0fb761c3235, .uuid-a1fe988b-9d9a-47a4-9ec3-e0ff24a7801b, .uuid-c690c61b-bacd-411f-8c5a-90b9dcaf5466, .uuid-c93bff78-ef55-4718-8fd5-82f846290e2e, .uuid-d9a0ada3-02ab-44cc-ab0a-fe27fc973eaf, .uuid-57b1b223-8d96-4dda-bf9b-343843faff41, .uuid-2f7e5efb-1e9b-4711-ad42-6b7045d50c8e, .uuid-5f3cbd42-0da5-45c8-a091-95ba80a7d8d2, .uuid-2b1fe0b6-67e2-4618-9e2e-5b60b4e313d2 {
        fill: none;
      }

      .uuid-13c61b36-18d0-4aac-927e-37a294dcfbba, .uuid-c690c61b-bacd-411f-8c5a-90b9dcaf5466 {
        stroke: #fff;
        stroke-linejoin: bevel;
        stroke-width: 3.47px;
      }

      .uuid-13c61b36-18d0-4aac-927e-37a294dcfbba, .uuid-b19f4275-ebf7-41c7-b4b0-93b4399843e8 {
        font-size: 13.86px;
      }

      .uuid-4862ae0f-304e-48aa-8db7-4a8d23e93659 {
        fill: #fff;
      }

      .uuid-19165314-3ed4-4b60-8811-c9bcefb2f380 {
        fill: #c00;
      }

      .uuid-19165314-3ed4-4b60-8811-c9bcefb2f380, .uuid-c690c61b-bacd-411f-8c5a-90b9dcaf5466 {
        font-size: 18.48px;
      }

      .uuid-2834ae81-2c2a-451f-809b-a0fb761c3235 {
        stroke: silver;
      }

      .uuid-2834ae81-2c2a-451f-809b-a0fb761c3235, .uuid-c93bff78-ef55-4718-8fd5-82f846290e2e, .uuid-2b1fe0b6-67e2-4618-9e2e-5b60b4e313d2 {
        stroke-linecap: round;
        stroke-linejoin: round;
      }

      .uuid-2834ae81-2c2a-451f-809b-a0fb761c3235, .uuid-d9a0ada3-02ab-44cc-ab0a-fe27fc973eaf, .uuid-2b1fe0b6-67e2-4618-9e2e-5b60b4e313d2 {
        stroke-width: 1.16px;
      }

      .uuid-a1fe988b-9d9a-47a4-9ec3-e0ff24a7801b {
        clip-path: url(#uuid-3664c110-0188-43c9-a1e0-779ea313f875);
      }

      .uuid-c93bff78-ef55-4718-8fd5-82f846290e2e {
        stroke: rgba(204, 0, 0, .7);
        stroke-width: 4.04px;
      }

      .uuid-b19f4275-ebf7-41c7-b4b0-93b4399843e8 {
        fill: #252525;
      }

      .uuid-d9a0ada3-02ab-44cc-ab0a-fe27fc973eaf {
        stroke: #252525;
        stroke-miterlimit: 10;
      }

      .uuid-a25cb126-a94c-4b2c-9cbd-8a074b1ebe2a {
        fill: #00699b;
      }

      .uuid-57b1b223-8d96-4dda-bf9b-343843faff41 {
        clip-path: url(#uuid-0a0ed940-d95c-4750-97ab-9cb40d1eac56);
      }

      .uuid-5f3cbd42-0da5-45c8-a091-95ba80a7d8d2 {
        clip-path: url(#uuid-1477b716-c151-45d1-9775-654d0b9589d8);
      }

      .uuid-2b1fe0b6-67e2-4618-9e2e-5b60b4e313d2 {
        stroke: rgba(192, 192, 192, .24);
      }
    </style>
    <clipPath id="uuid-0a0ed940-d95c-4750-97ab-9cb40d1eac56">
      <rect class="uuid-2f7e5efb-1e9b-4711-ad42-6b7045d50c8e" y="2.61" width="1245" height="1019.39"/>
    </clipPath>
    <clipPath id="uuid-1477b716-c151-45d1-9775-654d0b9589d8">
      <rect class="uuid-2f7e5efb-1e9b-4711-ad42-6b7045d50c8e" y="2.61" width="1698.06" height="1055.8"/>
    </clipPath>
    <clipPath id="uuid-3664c110-0188-43c9-a1e0-779ea313f875">
      <rect class="uuid-2f7e5efb-1e9b-4711-ad42-6b7045d50c8e" y="2.61" width="1698.06" height="1055.8"/>
    </clipPath>
  </defs>
  <g id="uuid-28b89769-843a-4f8c-bf0c-5e49f38d7ea0" data-name="Grafica">
    <g class="uuid-57b1b223-8d96-4dda-bf9b-343843faff41">
      <g class="uuid-5f3cbd42-0da5-45c8-a091-95ba80a7d8d2">
        <g class="uuid-a1fe988b-9d9a-47a4-9ec3-e0ff24a7801b">
          <g>
            <rect class="uuid-4862ae0f-304e-48aa-8db7-4a8d23e93659" y="2.61" width="1698.06" height="1055.8"/>
            <path class="uuid-2834ae81-2c2a-451f-809b-a0fb761c3235" d="m29.46,3.19v1055.8M29.46,3.19v1055.8M131.11,3.19v1055.8M233.92,3.19v1055.8M336.72,3.19v1055.8M439.53,3.19v1055.8M542.34,3.19v1055.8M643.99,3.19v1055.8M746.8,3.19v1055.8M952.42,3.19v1055.8M1054.07,3.19v1055.8M1156.88,3.19v1055.8M1259.69,3.19v1055.8M1362.49,3.19v1055.8M1465.3,3.19v1055.8M1566.95,3.19v1055.8M1669.76,3.19v1055.8"/>
            <path class="uuid-2b1fe0b6-67e2-4618-9e2e-5b60b4e313d2" d="m8.66,3.19v1055.8M49.09,3.19v1055.8M69.89,3.19v1055.8M90.68,3.19v1055.8M111.47,3.19v1055.8M151.9,3.19v1055.8M172.69,3.19v1055.8M193.49,3.19v1055.8M213.12,3.19v1055.8M254.71,3.19v1055.8M275.5,3.19v1055.8M295.14,3.19v1055.8M315.93,3.19v1055.8M357.52,3.19v1055.8M378.31,3.19v1055.8M397.95,3.19v1055.8M418.74,3.19v1055.8M460.33,3.19v1055.8M479.96,3.19v1055.8M500.76,3.19v1055.8M521.55,3.19v1055.8M561.98,3.19v1055.8M582.77,3.19v1055.8M603.56,3.19v1055.8M624.36,3.19v1055.8M664.79,3.19v1055.8M685.58,3.19v1055.8M706.37,3.19v1055.8M726.01,3.19v1055.8M767.59,3.19v1055.8M788.39,3.19v1055.8M808.02,3.19v1055.8M828.82,3.19v1055.8M870.4,3.19v1055.8M890.04,3.19v1055.8M910.83,3.19v1055.8M931.62,3.19v1055.8M972.05,3.19v1055.8M992.85,3.19v1055.8M1013.64,3.19v1055.8M1034.43,3.19v1055.8M1074.86,3.19v1055.8M1095.66,3.19v1055.8M1116.45,3.19v1055.8M1136.09,3.19v1055.8M1177.67,3.19v1055.8M1198.46,3.19v1055.8M1218.1,3.19v1055.8M1238.89,3.19v1055.8M1280.48,3.19v1055.8M1301.27,3.19v1055.8M1320.91,3.19v1055.8M1341.7,3.19v1055.8M1383.29,3.19v1055.8M1402.92,3.19v1055.8M1423.72,3.19v1055.8M1444.51,3.19v1055.8M1484.94,3.19v1055.8M1505.73,3.19v1055.8M1526.52,3.19v1055.8M1547.32,3.19v1055.8M1587.75,3.19v1055.8M1608.54,3.19v1055.8M1629.33,3.19v1055.8M1648.97,3.19v1055.8M1690.56,3.19v1055.8"/>
            <path class="uuid-2834ae81-2c2a-451f-809b-a0fb761c3235" d="m.58,15.89h1698.06M.58,15.89h1698.06M.58,117.55h1698.06M.58,220.35h1698.06M.58,323.16h1698.06M.58,425.97h1698.06M.58,527.62h1698.06M.58,630.43h1698.06M.58,733.24h1698.06M.58,836.05h1698.06M.58,1040.51h1698.06"/>
            <path class="uuid-2b1fe0b6-67e2-4618-9e2e-5b60b4e313d2" d="m.58,15.89h1698.06M.58,35.53h1698.06M.58,56.32h1698.06M.58,77.12h1698.06M.58,97.91h1698.06M.58,138.34h1698.06M.58,159.13h1698.06M.58,179.92h1698.06M.58,199.56h1698.06M.58,241.15h1698.06M.58,261.94h1698.06M.58,281.58h1698.06M.58,302.37h1698.06M.58,343.96h1698.06M.58,363.59h1698.06M.58,384.39h1698.06M.58,405.18h1698.06M.58,445.61h1698.06M.58,466.4h1698.06M.58,487.19h1698.06M.58,507.99h1698.06M.58,548.42h1698.06M.58,569.21h1698.06M.58,590h1698.06M.58,609.64h1698.06M.58,651.22h1698.06M.58,672.02h1698.06M.58,691.65h1698.06M.58,712.45h1698.06M.58,754.03h1698.06M.58,774.82h1698.06M.58,794.46h1698.06M.58,815.25h1698.06M.58,856.84h1698.06M.58,876.48h1698.06M.58,897.27h1698.06M.58,918.06h1698.06M.58,958.49h1698.06M.58,979.29h1698.06M.58,1000.08h1698.06M.58,1020.87h1698.06"/>
            <path class="uuid-d9a0ada3-02ab-44cc-ab0a-fe27fc973eaf" d="m849.61,5.5v1053.49"/>
            <path class="uuid-d9a0ada3-02ab-44cc-ab0a-fe27fc973eaf" d="m849.61,4.34l-4.62,4.62"/>
            <path class="uuid-d9a0ada3-02ab-44cc-ab0a-fe27fc973eaf" d="m849.61,4.34l4.62,4.62"/>
            <path class="uuid-d9a0ada3-02ab-44cc-ab0a-fe27fc973eaf" d="m.58,938.86h1695.75"/>
            <text class="uuid-b19f4275-ebf7-41c7-b4b0-93b4399843e8" transform="translate(23.1 956.76)"><tspan x="0" y="0">–8</tspan></text>
            <text class="uuid-13c61b36-18d0-4aac-927e-37a294dcfbba" transform="translate(23.1 956.76)"><tspan x="0" y="0">–8</tspan></text>
            <text class="uuid-b19f4275-ebf7-41c7-b4b0-93b4399843e8" transform="translate(23.1 956.76)"><tspan x="0" y="0">–8</tspan></text>
            <text class="uuid-b19f4275-ebf7-41c7-b4b0-93b4399843e8" transform="translate(124.76 956.76)"><tspan x="0" y="0">–7</tspan></text>
            <text class="uuid-13c61b36-18d0-4aac-927e-37a294dcfbba" transform="translate(124.76 956.76)"><tspan x="0" y="0">–7</tspan></text>
            <text class="uuid-b19f4275-ebf7-41c7-b4b0-93b4399843e8" transform="translate(124.76 956.76)"><tspan x="0" y="0">–7</tspan></text>
            <text class="uuid-b19f4275-ebf7-41c7-b4b0-93b4399843e8" transform="translate(227.56 956.76)"><tspan x="0" y="0">–6</tspan></text>
            <text class="uuid-13c61b36-18d0-4aac-927e-37a294dcfbba" transform="translate(227.56 956.76)"><tspan x="0" y="0">–6</tspan></text>
            <text class="uuid-b19f4275-ebf7-41c7-b4b0-93b4399843e8" transform="translate(227.56 956.76)"><tspan x="0" y="0">–6</tspan></text>
            <text class="uuid-b19f4275-ebf7-41c7-b4b0-93b4399843e8" transform="translate(330.37 956.76)"><tspan x="0" y="0">–5</tspan></text>
            <text class="uuid-13c61b36-18d0-4aac-927e-37a294dcfbba" transform="translate(330.37 956.76)"><tspan x="0" y="0">–5</tspan></text>
            <text class="uuid-b19f4275-ebf7-41c7-b4b0-93b4399843e8" transform="translate(330.37 956.76)"><tspan x="0" y="0">–5</tspan></text>
            <text class="uuid-b19f4275-ebf7-41c7-b4b0-93b4399843e8" transform="translate(433.18 956.76)"><tspan x="0" y="0">–4</tspan></text>
            <text class="uuid-13c61b36-18d0-4aac-927e-37a294dcfbba" transform="translate(433.18 956.76)"><tspan x="0" y="0">–4</tspan></text>
            <text class="uuid-b19f4275-ebf7-41c7-b4b0-93b4399843e8" transform="translate(433.18 956.76)"><tspan x="0" y="0">–4</tspan></text>
            <text class="uuid-b19f4275-ebf7-41c7-b4b0-93b4399843e8" transform="translate(535.99 956.76)"><tspan x="0" y="0">–3</tspan></text>
            <text class="uuid-13c61b36-18d0-4aac-927e-37a294dcfbba" transform="translate(535.99 956.76)"><tspan x="0" y="0">–3</tspan></text>
            <text class="uuid-b19f4275-ebf7-41c7-b4b0-93b4399843e8" transform="translate(535.99 956.76)"><tspan x="0" y="0">–3</tspan></text>
            <text class="uuid-b19f4275-ebf7-41c7-b4b0-93b4399843e8" transform="translate(637.64 956.76)"><tspan x="0" y="0">–2</tspan></text>
            <text class="uuid-13c61b36-18d0-4aac-927e-37a294dcfbba" transform="translate(637.64 956.76)"><tspan x="0" y="0">–2</tspan></text>
            <text class="uuid-b19f4275-ebf7-41c7-b4b0-93b4399843e8" transform="translate(637.64 956.76)"><tspan x="0" y="0">–2</tspan></text>
            <text class="uuid-b19f4275-ebf7-41c7-b4b0-93b4399843e8" transform="translate(740.45 956.76)"><tspan x="0" y="0">–1</tspan></text>
            <text class="uuid-13c61b36-18d0-4aac-927e-37a294dcfbba" transform="translate(740.45 956.76)"><tspan x="0" y="0">–1</tspan></text>
            <text class="uuid-b19f4275-ebf7-41c7-b4b0-93b4399843e8" transform="translate(740.45 956.76)"><tspan x="0" y="0">–1</tspan></text>
            <text class="uuid-b19f4275-ebf7-41c7-b4b0-93b4399843e8" transform="translate(949.53 956.76)"><tspan x="0" y="0">1</tspan></text>
            <text class="uuid-13c61b36-18d0-4aac-927e-37a294dcfbba" transform="translate(949.53 956.76)"><tspan x="0" y="0">1</tspan></text>
            <text class="uuid-b19f4275-ebf7-41c7-b4b0-93b4399843e8" transform="translate(949.53 956.76)"><tspan x="0" y="0">1</tspan></text>
            <text class="uuid-b19f4275-ebf7-41c7-b4b0-93b4399843e8" transform="translate(1051.18 956.76)"><tspan x="0" y="0">2</tspan></text>
            <text class="uuid-13c61b36-18d0-4aac-927e-37a294dcfbba" transform="translate(1051.18 956.76)"><tspan x="0" y="0">2</tspan></text>
            <text class="uuid-b19f4275-ebf7-41c7-b4b0-93b4399843e8" transform="translate(1051.18 956.76)"><tspan x="0" y="0">2</tspan></text>
            <text class="uuid-b19f4275-ebf7-41c7-b4b0-93b4399843e8" transform="translate(1153.99 956.76)"><tspan x="0" y="0">3</tspan></text>
            <text class="uuid-13c61b36-18d0-4aac-927e-37a294dcfbba" transform="translate(1153.99 956.76)"><tspan x="0" y="0">3</tspan></text>
            <text class="uuid-b19f4275-ebf7-41c7-b4b0-93b4399843e8" transform="translate(1153.99 956.76)"><tspan x="0" y="0">3</tspan></text>
            <text class="uuid-b19f4275-ebf7-41c7-b4b0-93b4399843e8" transform="translate(832.86 841.25)"><tspan x="0" y="0">1</tspan></text>
            <text class="uuid-13c61b36-18d0-4aac-927e-37a294dcfbba" transform="translate(832.86 841.25)"><tspan x="0" y="0">1</tspan></text>
            <text class="uuid-b19f4275-ebf7-41c7-b4b0-93b4399843e8" transform="translate(832.86 841.25)"><tspan x="0" y="0">1</tspan></text>
            <text class="uuid-b19f4275-ebf7-41c7-b4b0-93b4399843e8" transform="translate(832.86 738.44)"><tspan x="0" y="0">2</tspan></text>
            <text class="uuid-13c61b36-18d0-4aac-927e-37a294dcfbba" transform="translate(832.86 738.44)"><tspan x="0" y="0">2</tspan></text>
            <text class="uuid-b19f4275-ebf7-41c7-b4b0-93b4399843e8" transform="translate(832.86 738.44)"><tspan x="0" y="0">2</tspan></text>
            <text class="uuid-b19f4275-ebf7-41c7-b4b0-93b4399843e8" transform="translate(832.86 635.63)"><tspan x="0" y="0">3</tspan></text>
            <text class="uuid-13c61b36-18d0-4aac-927e-37a294dcfbba" transform="translate(832.86 635.63)"><tspan x="0" y="0">3</tspan></text>
            <text class="uuid-b19f4275-ebf7-41c7-b4b0-93b4399843e8" transform="translate(832.86 635.63)"><tspan x="0" y="0">3</tspan></text>
            <text class="uuid-b19f4275-ebf7-41c7-b4b0-93b4399843e8" transform="translate(832.86 532.82)"><tspan x="0" y="0">4</tspan></text>
            <text class="uuid-13c61b36-18d0-4aac-927e-37a294dcfbba" transform="translate(832.86 532.82)"><tspan x="0" y="0">4</tspan></text>
            <text class="uuid-b19f4275-ebf7-41c7-b4b0-93b4399843e8" transform="translate(832.86 532.82)"><tspan x="0" y="0">4</tspan></text>
            <text class="uuid-b19f4275-ebf7-41c7-b4b0-93b4399843e8" transform="translate(832.86 431.17)"><tspan x="0" y="0">5</tspan></text>
            <text class="uuid-13c61b36-18d0-4aac-927e-37a294dcfbba" transform="translate(832.86 431.17)"><tspan x="0" y="0">5</tspan></text>
            <text class="uuid-b19f4275-ebf7-41c7-b4b0-93b4399843e8" transform="translate(832.86 431.17)"><tspan x="0" y="0">5</tspan></text>
            <text class="uuid-b19f4275-ebf7-41c7-b4b0-93b4399843e8" transform="translate(832.86 328.36)"><tspan x="0" y="0">6</tspan></text>
            <text class="uuid-13c61b36-18d0-4aac-927e-37a294dcfbba" transform="translate(832.86 328.36)"><tspan x="0" y="0">6</tspan></text>
            <text class="uuid-b19f4275-ebf7-41c7-b4b0-93b4399843e8" transform="translate(832.86 328.36)"><tspan x="0" y="0">6</tspan></text>
            <text class="uuid-b19f4275-ebf7-41c7-b4b0-93b4399843e8" transform="translate(832.86 225.55)"><tspan x="0" y="0">7</tspan></text>
            <text class="uuid-13c61b36-18d0-4aac-927e-37a294dcfbba" transform="translate(832.86 225.55)"><tspan x="0" y="0">7</tspan></text>
            <text class="uuid-b19f4275-ebf7-41c7-b4b0-93b4399843e8" transform="translate(832.86 225.55)"><tspan x="0" y="0">7</tspan></text>
            <text class="uuid-b19f4275-ebf7-41c7-b4b0-93b4399843e8" transform="translate(832.86 122.75)"><tspan x="0" y="0">8</tspan></text>
            <text class="uuid-13c61b36-18d0-4aac-927e-37a294dcfbba" transform="translate(832.86 122.75)"><tspan x="0" y="0">8</tspan></text>
            <text class="uuid-b19f4275-ebf7-41c7-b4b0-93b4399843e8" transform="translate(832.86 122.75)"><tspan x="0" y="0">8</tspan></text>
            <text class="uuid-b19f4275-ebf7-41c7-b4b0-93b4399843e8" transform="translate(832.86 21.09)"><tspan x="0" y="0">9</tspan></text>
            <text class="uuid-13c61b36-18d0-4aac-927e-37a294dcfbba" transform="translate(832.86 21.09)"><tspan x="0" y="0">9</tspan></text>
            <text class="uuid-b19f4275-ebf7-41c7-b4b0-93b4399843e8" transform="translate(832.86 21.09)"><tspan x="0" y="0">9</tspan></text>
            <text class="uuid-b19f4275-ebf7-41c7-b4b0-93b4399843e8" transform="translate(832.86 956.76)"><tspan x="0" y="0">0</tspan></text>
            <text class="uuid-13c61b36-18d0-4aac-927e-37a294dcfbba" transform="translate(832.86 956.76)"><tspan x="0" y="0">0</tspan></text>
            <text class="uuid-b19f4275-ebf7-41c7-b4b0-93b4399843e8" transform="translate(832.86 956.76)"><tspan x="0" y="0">0</tspan></text>
            <path class="uuid-c93bff78-ef55-4718-8fd5-82f846290e2e" d="m1.16,938h0s0,0,0,0h1.16s1.16,0,1.16,0h1.16s1.16,0,1.16,0h1.16s1.16,0,1.16,0h1.16s1.16,0,1.16,0h1.16s1.16,0,1.16,0h1.16s1.16,0,1.16,0h1.16s1.16,0,1.16,0h1.16s1.16,0,1.16,0h1.16s1.16,0,1.16,0h1.16s1.16,0,1.16,0h1.16s1.16,0,1.16,0h1.16s1.16,0,1.16,0h1.16s1.16,0,1.16,0h1.16s1.16,0,1.16,0h1.16s1.16,0,1.16,0h1.16s1.16,0,1.16,0h1.16s1.16,0,1.16,0h1.16s1.16,0,1.16,0h1.16s1.16,0,1.16,0h1.16s1.16,0,1.16,0h1.16s1.16,0,1.16,0h1.16s1.16,0,1.16,0h1.16s1.16,0,1.16,0h1.16s1.16,0,1.16,0h1.16s1.16,0,1.16,0h1.16s1.16,0,1.16,0h1.16s1.16,0,1.16,0h1.16s1.16,0,1.16,0h1.16s1.16,0,1.16,0h1.16s1.16,0,1.16,0h1.16s1.16,0,1.16,0h1.16s1.16,0,1.16,0h1.16s1.16,0,1.16,0h1.16s1.16,0,1.16,0h1.16s1.16,0,1.16,0h1.16s1.16,0,1.16,0h1.16s1.16,0,1.16,0h1.16s1.16,0,1.16,0h1.16s1.16,0,1.16,0h1.16s1.16,0,1.16,0h1.16s1.16,0,1.16,0h1.16s1.16,0,1.16,0h1.16s1.16-.01,1.16-.01h1.16s1.16-.01,1.16-.01h1.16s1.16-.01,1.16-.01h1.16s1.16-.01,1.16-.01h1.16s1.16-.01,1.16-.01h1.16s1.16-.01,1.16-.01h1.16s1.16-.01,1.16-.01h1.16s1.16-.01,1.16-.01h1.16s1.16-.01,1.16-.01h1.16s1.16-.01,1.16-.01h1.16s1.16-.01,1.16-.01h1.16s1.16-.01,1.16-.01h1.16s1.16-.01,1.16-.01h1.16s1.16-.01,1.16-.01h1.16s1.16-.01,1.16-.01h1.16s1.16-.01,1.16-.01h1.16s1.16-.01,1.16-.01h1.16s1.16-.01,1.16-.01h1.16s1.16-.01,1.16-.01h1.16s1.16-.01,1.16-.01h1.16s1.16-.01,1.16-.01h1.16s1.16-.01,1.16-.01h1.16s1.16-.01,1.16-.01h1.16s1.16-.01,1.16-.01h1.16s1.16-.01,1.16-.01h1.16s1.16-.01,1.16-.01h1.16s1.16-.02,1.16-.02h1.16s1.16-.02,1.16-.02h1.16s1.16-.02,1.16-.02h1.16s1.16-.02,1.16-.02h1.16s1.16-.02,1.16-.02h1.16s1.16-.02,1.16-.02h1.16s1.16-.02,1.16-.02h1.16s1.16-.02,1.16-.02h1.16s1.16-.02,1.16-.02h1.16s1.16-.02,1.16-.02h1.16s1.16-.02,1.16-.02h1.16s1.16-.02,1.16-.02h1.16s1.16-.02,1.16-.02h1.16s1.16-.02,1.16-.02h1.16s1.16-.02,1.16-.02h1.16s1.16-.02,1.16-.02h1.16s1.16-.02,1.16-.02h1.16s1.16-.02,1.16-.02h1.16s1.16-.02,1.16-.02h1.16s1.16-.02,1.16-.02h1.16s1.16-.02,1.16-.02h1.16s1.16-.02,1.16-.02h1.16s1.16-.02,1.16-.02h1.16s1.16-.02,1.16-.02h1.16s1.16-.02,1.16-.02h1.16s1.16-.02,1.16-.02h1.16s1.16-.02,1.16-.02h1.16s1.16-.02,1.16-.02h1.16s1.16-.02,1.16-.02h1.16s1.16-.02,1.16-.02h1.16s1.16-.02,1.16-.02h1.16s1.16-.02,1.16-.02h1.16s1.16-.02,1.16-.02h1.16s1.16-.03,1.16-.03h1.16s1.16-.03,1.16-.03h1.16s1.16-.03,1.16-.03h1.16s1.16-.03,1.16-.03h1.16s1.16-.03,1.16-.03h1.16s1.16-.03,1.16-.03h1.16s1.16-.03,1.16-.03h1.16s1.16-.03,1.16-.03h1.16s1.16-.03,1.16-.03h1.16s1.16-.03,1.16-.03h1.16s1.16-.03,1.16-.03h1.16s1.16-.03,1.16-.03h0l1.16-.02h0l1.16-.02h0l1.16-.02h0l1.16-.02h0l1.16-.02h0l1.16-.02h0l1.16-.02h0l1.16-.02h0l1.16-.02h0l1.16-.02h0l1.16-.02h0l1.16-.02h0l1.16-.02h0l1.16-.02h0l1.16-.02h0l1.16-.02h0l1.16-.02h0l1.16-.02h0l1.16-.02h0l1.16-.02h0l1.16-.02h0l1.16-.02h0l1.16-.02h0l1.16-.02h0l1.16-.02h0l1.16-.02h0l1.16-.02h0l1.16-.02h0l1.16-.02h0l1.16-.02h0l1.16-.02h0l1.16-.02h0l1.16-.02h0l1.16-.02h0l1.16-.02h0l1.16-.02h0l1.16-.02h0l1.16-.02h0l1.16-.02h0l1.16-.02h0l1.16-.02h0l1.16-.02h0l1.16-.02h0l1.16-.02h0l1.16-.02h0l1.16-.02h0l1.16-.02h0l1.16-.02h0l1.16-.02h0l1.16-.02h0l1.16-.02h0l1.16-.02h0l1.16-.02h0l1.16-.02h0l1.16-.02h0l1.16-.02h0l1.16-.02h0l1.16-.02h0l1.16-.02h0l1.16-.02h0l1.16-.02h0l1.16-.02h0l1.16-.02h0l1.16-.02h0l1.16-.03h0l1.16-.03h0l1.16-.03h0l1.16-.03h0l1.16-.03h0l1.16-.03h0l1.16-.03h0l1.16-.03h0l1.16-.03h0l1.16-.03h0l1.16-.03h0l1.16-.03h0l1.16-.03h0l1.16-.03h0l1.16-.03h0l1.16-.03h0l1.16-.03h0l1.16-.03h0l1.16-.03h0l1.16-.03h0l1.16-.03h0l1.16-.03h0l1.16-.03h0l1.16-.03h0l1.16-.03h0l1.16-.03h0l1.16-.03h0l1.16-.03h0l1.16-.03h0l1.16-.03h0l1.16-.03h0l1.16-.03h0l1.16-.03h0l1.16-.03h0l1.16-.03h0l1.16-.03h0l1.16-.03h0l1.16-.03h0l1.16-.03h0l1.16-.03h0l1.16-.03h0l1.16-.03h0l1.16-.03h0l1.16-.03h0l1.16-.04h0l1.16-.04h0l1.16-.04h0l1.16-.04h0l1.16-.04h0l1.16-.04h0l1.16-.04h0l1.16-.04h0l1.16-.04h0l1.16-.04h0l1.16-.04h0l1.16-.04h0l1.16-.04h0l1.16-.04h0l1.16-.04h0l1.16-.04h0l1.16-.04h0l1.16-.04h0l1.16-.04h0l1.16-.04h0l1.16-.04h0l1.16-.04h0l1.16-.04h0l1.16-.04h0l1.16-.04h0l1.16-.04h0l1.16-.04h0l1.16-.04h0l1.16-.04h0l1.16-.04h0l1.16-.04h0l1.16-.04h0l1.16-.05h0l1.16-.05h0l1.16-.05h0l1.16-.05h0l1.16-.05h0l1.16-.05h0l1.16-.05h0l1.16-.05h0l1.16-.05h0l1.16-.05h0l1.16-.05h0l1.16-.05h0l1.16-.05h0l1.16-.05h0l1.16-.05h0l1.16-.05h0l1.16-.05h0l1.16-.05h0l1.16-.05h0l1.16-.05h0l1.16-.05h0l1.16-.05h0l1.16-.05h0l1.16-.05h0l1.16-.05h0l1.16-.06h0l1.16-.06h0l1.16-.06h0l1.16-.06h0l1.16-.06h0l1.16-.06h0l1.16-.06h0l1.16-.06h0l1.16-.06h0l1.16-.06h0l1.16-.06h0l1.16-.06h0l1.16-.06h0l1.16-.06h0l1.16-.06h0l1.16-.06h0l1.16-.06h0l1.16-.06h0l1.16-.06h0l1.16-.06h0l1.16-.06h0l1.16-.06h0l1.16-.07h0l1.16-.07h0l1.16-.07h0l1.16-.07h0l1.16-.07h0l1.16-.07h0l1.16-.07h0l1.16-.07h0l1.16-.07h0l1.16-.07h0l1.16-.07h0l1.16-.07h0l1.16-.07h0l1.16-.07h0l1.16-.07h0l1.16-.07h0l1.16-.07h0l1.16-.07h0l1.16-.08h0l1.16-.08h0l1.16-.08h0l1.16-.08h0l1.16-.08h0l1.16-.08h0l1.16-.08h0l1.16-.08h0l1.16-.08h0l1.16-.08h0l1.16-.08h0l1.16-.08h0l1.16-.08h0l1.16-.08h0l1.16-.08h0l1.16-.08h0l1.16-.09h0l1.16-.09h0l1.16-.09h0l1.16-.09h0l1.16-.09h0l1.16-.09h0l1.16-.09h0l1.16-.09h0l1.16-.09h0l1.16-.09h0l1.16-.09h0l1.16-.09h0l1.16-.09h0l1.16-.09h0l1.16-.1h0l1.16-.1h0l1.16-.1h0l1.16-.1h0l1.16-.1h0l1.16-.1h0l1.16-.1h0l1.16-.1h0l1.16-.1h0l1.16-.1h0l1.16-.1h0l1.16-.1h0l1.16-.1h0l1.16-.11h0l1.16-.11h0l1.16-.11h0l1.16-.11h0l1.16-.11h0l1.16-.11h0l1.16-.11h0l1.16-.11h0l1.16-.11h0l1.16-.11h0l1.16-.11h0l1.16-.11h0l1.16-.12h0l1.16-.12h0l1.16-.12h0l1.16-.12h0l1.16-.12h0l1.16-.12h0l1.16-.12h0l1.16-.12h0l1.16-.12h0l1.16-.12h0l1.16-.13h0l1.16-.13h0l1.16-.13h0l1.16-.13h0l1.16-.13h0l1.16-.13h0l1.16-.13h0l1.16-.13h0l1.16-.13h0l1.16-.13h0l1.16-.14h0l1.16-.14h0l1.16-.14h0l1.16-.14h0l1.16-.14h0l1.16-.14h0l1.16-.14h0l1.16-.14h0l1.16-.14h0l1.16-.14h0l1.16-.15h0l1.16-.15h0l1.16-.15h0l1.16-.15h0l1.16-.15h0l1.16-.15h0l1.16-.15h0l1.16-.15h0l1.16-.16h0l1.16-.16h0l1.16-.16h0l1.16-.16h0l1.16-.16h0l1.16-.16h0l1.16-.16h0l1.16-.16h0l1.16-.17h0l1.16-.17h0l1.16-.17h0l1.16-.17h0l1.16-.17h0l1.16-.17h0l1.16-.17h0l1.16-.17h0l1.16-.18h0l1.16-.18h0l1.16-.18h0l1.16-.18h0l1.16-.18h0l1.16-.18h0l1.16-.18h0l1.16-.19h0l1.16-.19h0l1.16-.19h0l1.16-.19h0l1.16-.19h0l1.16-.19h0l1.16-.2h0l1.16-.2h0l1.16-.2h0l1.16-.2h0l1.16-.2h0l1.16-.2h0l1.16-.2h0l1.16-.21h0l1.16-.21h0l1.16-.21h0l1.16-.21h0l1.16-.21h0l1.16-.21h0l1.16-.22h0l1.16-.22h0l1.16-.22h0l1.16-.22h0l1.16-.22h0l1.16-.22h0l1.16-.23h0l1.16-.23h0l1.16-.23h0l1.16-.23h0l1.16-.23h0l1.16-.24h0l1.16-.24h0l1.16-.24h0l1.16-.24h0l1.16-.24h0l1.16-.24h0l1.16-.25h0l1.16-.25h0l1.16-.25h0l1.16-.25h0l1.16-.25h0l1.16-.26h0l1.16-.26h0l1.16-.26h0l1.16-.26h0l1.16-.26h0l1.16-.27h0l1.16-.27h0l1.16-.27h0l1.16-.27h0l1.16-.27h0l1.16-.28h0l1.16-.28h0l1.16-.28h0l1.16-.28h0l1.16-.29h0l1.16-.29h0l1.16-.29h0l1.16-.29h0l1.16-.29h0l1.16-.3h0l1.16-.3h0l1.16-.3h0l1.16-.3h0l1.16-.31h0l1.16-.31h0l1.16-.31h0l1.16-.31h0l1.16-.32h0l1.16-.32h0l1.16-.32h0l1.16-.32h0l1.16-.33h0l1.16-.33h0l1.16-.33h0l1.16-.33h0l1.16-.34h0l1.16-.34h0l1.16-.34h0l1.16-.34h0l1.16-.35h0l1.16-.35h0l1.16-.35h0l1.16-.36h0l1.16-.36h0l1.16-.36h0l1.16-.36h0l1.16-.37h0l1.16-.37h0l1.16-.37h0l1.16-.38h0l1.16-.38h0l1.16-.38h0l1.16-.38h0l1.16-.39h0l1.16-.39h0l1.16-.39h0l1.16-.4h0l1.16-.4h0l1.16-.4h0l1.16-.41h0l1.16-.41h0l1.16-.41h0l1.16-.42h0l1.16-.42h0l1.16-.42h0l1.16-.43h0l1.16-.43h0l1.16-.43h0l1.16-.44h0l1.16-.44h0l1.16-.44h0l1.16-.45h0l1.16-.45h0l1.16-.45h0l1.16-.46h0l1.16-.46h0l1.16-.46h0l1.16-.47h0l1.16-.47h0l1.16-.47h0l1.16-.48h0l1.16-.48h0l1.16-.49h0l1.16-.49h0l1.16-.49h0l1.16-.5h0l1.16-.5h0l1.16-.51h0l1.16-.51h0l1.16-.51h0l1.16-.52h0l1.16-.52h0l1.16-.53h0l1.16-.53h0l1.16-.53h0l1.16-.54h0l1.16-.54h0l1.16-.55h0l1.16-.55h0l1.16-.56h0l1.16-.56h0l1.16-.56h0l1.16-.57h0l1.16-.57h0l1.16-.58h0l1.16-.58h0l1.16-.59h0l1.16-.59h0l1.16-.6h0l1.16-.6h0l1.16-.61h0l1.16-.61h0l1.16-.61h0l1.16-.62h0l1.16-.62h0l1.16-.63h0l1.16-.63h0l1.16-.64h0l1.16-.64h0l1.16-.65h0l1.16-.65h0l1.16-.66h0l1.16-.66h0l1.16-.67h0l1.16-.67h0l1.16-.68h0l1.16-.69h0l1.16-.69h0l1.16-.7h0l1.16-.7h0l1.16-.71h0l1.16-.71h0l1.16-.72h0l1.16-.72h0l1.16-.73h0l1.16-.74h0l1.16-.74h0l1.16-.75h0l1.16-.75h0l1.16-.76h0l1.16-.76h0l1.16-.77h0l1.16-.78h0l1.16-.78h0l1.16-.79h0l1.16-.8h0l1.16-.8h0l1.16-.81h0l1.16-.81h0l1.16-.82h0l1.16-.83h0l1.16-.83h0l1.16-.84h0l1.16-.85h0l1.16-.85h0l1.16-.86h0l1.16-.87h0l1.16-.87h0l1.16-.88h0l1.16-.89h0l1.16-.89h0l1.16-.9h0l1.16-.91h0l1.16-.92h0l1.16-.92h0l1.16-.93h0l1.16-.94h0l1.16-.94h0l1.16-.95h0l1.16-.96h0l1.16-.97h0l1.16-.97h0l1.16-.98h0l1.16-.99h0l1.16-1h0l1.16-1.01h0l1.16-1.01h0l1.16-1.02h0l1.16-1.03h0l1.16-1.04h0l1.16-1.05h0l1.16-1.05h0l1.16-1.06h0l1.16-1.07h0l1.16-1.08h0l1.16-1.09h0l1.16-1.1h0l1.16-1.1h0l1.16-1.11h0l1.16-1.12h0l1.16-1.13h0l1.16-1.14h0l1.16-1.15h0l1.16-1.16h0l1.16-1.17h0l1.16-1.17h0l1.16-1.18h0l1.16-1.19h0l1.16-1.2h0l1.16-1.21h0l1.16-1.22h0l1.16-1.23h0l1.16-1.24h0l1.16-1.25h0l1.16-1.26h0l1.16-1.27h0l1.16-1.28h0l1.16-1.29h0l1.16-1.3h0l1.16-1.31h0l1.16-1.32h0l1.16-1.33h0l1.16-1.34h0l1.16-1.35h0l1.16-1.36h0l1.16-1.37h0l1.16-1.38h0l1.16-1.4h0l1.16-1.41h0l1.16-1.42h0l1.16-1.43h0l1.16-1.44h0l1.16-1.45h0l1.16-1.46h0l1.16-1.47h0l1.16-1.49h0l1.16-1.5h0l1.16-1.51h0l1.16-1.52h0l1.16-1.53h0l1.16-1.54h0l1.16-1.56h0l1.16-1.57h0l1.16-1.58h0l1.16-1.59h0l1.16-1.61h0l1.16-1.62h0l1.16-1.63h0l1.16-1.64h0l1.16-1.66h0l1.16-1.67h0l1.16-1.68h0l1.16-1.7h0l1.16-1.71h0l1.16-1.72h0l1.16-1.74h0l1.16-1.75h0l1.16-1.76h0l1.16-1.78h0l1.16-1.79h0l1.16-1.81h0l1.16-1.82h0l1.16-1.83h0l1.16-1.85h0l1.16-1.86h0l1.16-1.88h0l1.16-1.89h0l1.16-1.91h0l1.16-1.92h0l1.16-1.94h0l1.16-1.95h0l1.16-1.97h0l1.16-1.98h0l1.16-2h0l1.16-2.01h0l1.16-2.03h0l1.16-2.05h0l1.16-2.06h0l1.16-2.08h0l1.16-2.09h0l1.16-2.11h0l1.16-2.13h0l1.16-2.14h0l1.16-2.16h0l1.16-2.18h0l1.16-2.19h0l1.16-2.21h0l1.16-2.23h0l1.16-2.25h0l1.16-2.26h0l1.16-2.28h0l1.16-2.3h0l1.16-2.32h0l1.16-2.34h0l1.16-2.35h0l1.16-2.37h0l1.16-2.39h0l1.16-2.41h0l1.16-2.43h0l1.16-2.45h0l1.16-2.47h0l1.16-2.49h0l1.16-2.51h0l1.16-2.53h0l1.16-2.55h0l1.16-2.56h0l1.16-2.59h0l1.16-2.61h0l1.16-2.63h0l1.16-2.65h0l1.16-2.67h0l1.16-2.69h0l1.16-2.71h0l1.16-2.73h0l1.16-2.75h0l1.16-2.77h0l1.16-2.8h0l1.16-2.82h0l1.16-2.84h0l1.16-2.86h0l1.16-2.88h0l1.16-2.91h0l1.16-2.93h0l1.16-2.95h0l1.16-2.98h0l1.16-3h0l1.16-3.02h0l1.16-3.05h0l1.16-3.07h0l1.16-3.09h0l1.16-3.12h0l1.16-3.14h0l1.16-3.17h0l1.16-3.19h0l1.16-3.22h0l1.16-3.24h0l1.16-3.27h0l1.16-3.29h0l1.16-3.32h0l1.16-3.34h0l1.16-3.37h0l1.16-3.4h0l1.16-3.42h0l1.16-3.45h0l1.16-3.48h0l1.16-3.51h0l1.16-3.53h0l1.16-3.56h0l1.16-3.59h0l1.16-3.62h0l1.16-3.64h0l1.16-3.67h0l1.16-3.7h0l1.16-3.73h0l1.16-3.76h0l1.16-3.79h0l1.16-3.82h0l1.16-3.85h0l1.16-3.88h0l1.16-3.91h0l1.16-3.94h0l1.16-3.97h0l1.16-4h0l1.16-4.03h0l1.16-4.07h0l1.16-4.1h0l1.16-4.13h0l1.16-4.16h0l1.16-4.19h0l1.16-4.23h0l1.16-4.26h0l1.16-4.29h0l1.16-4.33h0l1.16-4.36h0l1.16-4.4h0l1.16-4.43h0l1.16-4.47h0l1.16-4.5h0l1.16-4.54h0l1.16-4.57h0l1.16-4.61h0l1.16-4.64h0l1.16-4.68h0l1.16-4.72h0l1.16-4.75h0l1.16-4.79h0l1.16-4.83h0l1.16-4.87h0l1.16-4.9h0l1.16-4.94h0l1.16-4.98h0l1.16-5.02h0l1.16-5.06h0l1.16-5.1h0l1.16-5.14h0l1.16-5.18h0l1.16-5.22h0l1.16-5.26h0l1.16-5.3h0l1.16-5.34h0l1.16-5.39h0l1.16-5.43h0l1.16-5.47h0l1.16-5.51h0l1.16-5.56h0l1.16-5.6h0l1.16-5.64h0l1.16-5.69h0l1.16-5.73h0l1.16-5.78h0l1.16-5.82h0l1.16-5.87h0l1.16-5.91h0l1.16-5.96h0l1.16-6.01h0l1.16-6.05h0l1.16-6.1h0l1.16-6.15h0l1.16-6.2h0l1.16-6.25h0l1.16-6.3h0l1.16-6.34h0l1.16-6.39h0l1.16-6.44h0l1.16-6.5h0l1.16-6.55h0l1.16-6.6h0l1.16-6.65h0l1.16-6.7h0l1.16-6.75h0l1.16-6.81h0l1.16-6.86h0l1.16-6.91h0l1.16-6.97h0l1.16-7.02h0l1.16-7.08h0l1.16-7.13h0l1.16-7.19h0l1.16-7.25h0l1.16-7.3h0l1.16-7.36h0l.51-3.29"/>
            <text class="uuid-19165314-3ed4-4b60-8811-c9bcefb2f380" transform="translate(9.24 937.12)"><tspan x="0" y="0">f</tspan></text>
            <text class="uuid-c690c61b-bacd-411f-8c5a-90b9dcaf5466" transform="translate(9.24 937.12)"><tspan x="0" y="0">f</tspan></text>
            <text class="uuid-19165314-3ed4-4b60-8811-c9bcefb2f380" transform="translate(9.24 937.12)"><tspan x="0" y="0">f</tspan></text>
          </g>
        </g>
      </g>
    </g>
  </g>
  <g id="uuid-77096022-455e-4fdc-9cca-07fb050cacca" data-name="Marco">
    <path class="uuid-a25cb126-a94c-4b2c-9cbd-8a074b1ebe2a" d="m-2-2V1022h1249V-2H-2Zm1232,987c0,11.05-8.95,20-20,20H35c-11.05,0-20-8.95-20-20V35c0-11.05,8.95-20,20-20h1175c11.05,0,20,8.95,20,20v950Z"/>
  </g>
</svg>