<?xml version="1.0" encoding="UTF-8"?>
<svg xmlns="http://www.w3.org/2000/svg" width="1245" height="1020" xmlns:xlink="http://www.w3.org/1999/xlink" viewBox="0 0 1245 1020">
  <defs>
    <style>
      .uuid-53739b92-d3b3-436c-8d49-3af88653e574 {
        fill: #fff;
      }

      .uuid-494a70be-ce04-411a-b476-7a9512a93bd8 {
        fill: #333;
      }

      .uuid-53ca9134-0bf5-4060-b5ef-24fc404f64d2 {
        stroke: rgba(153, 51, 255, .7);
        stroke-width: 3.92px;
      }

      .uuid-53ca9134-0bf5-4060-b5ef-24fc404f64d2, .uuid-9818a1a4-972e-422f-ac99-532106a0fc7b, .uuid-208ebb52-854f-4a5a-be37-2e9b21447888, .uuid-cf632cc7-9d71-4924-8adf-e29b74a2b8ab, .uuid-3d048307-95da-4d2d-9a33-3fc27231d1a1, .uuid-1644f1fd-a7ae-43d7-815c-0dae355c41b7, .uuid-9ed737ed-8827-4e8a-bbb0-1bed9b803eb9 {
        fill: none;
      }

      .uuid-53ca9134-0bf5-4060-b5ef-24fc404f64d2, .uuid-208ebb52-854f-4a5a-be37-2e9b21447888 {
        stroke-linecap: round;
        stroke-linejoin: round;
      }

      .uuid-9818a1a4-972e-422f-ac99-532106a0fc7b {
        clip-path: url(#uuid-f98d6c6a-f328-43e0-99d1-8fc2e43bad57);
      }

      .uuid-749f2112-96a3-4acf-b3c2-013cb4550ea8 {
        fill: #606060;
      }

      .uuid-749f2112-96a3-4acf-b3c2-013cb4550ea8, .uuid-9ed737ed-8827-4e8a-bbb0-1bed9b803eb9 {
        font-family: HelveticaNeue-UltraLight, 'Helvetica Neue UltraLight';
        font-size: 13.45px;
        font-weight: 100;
        isolation: isolate;
      }

      .uuid-208ebb52-854f-4a5a-be37-2e9b21447888 {
        stroke: silver;
        stroke-width: 1.12px;
      }

      .uuid-29b5852a-cb88-4a5c-9e1c-e38aaa638c69 {
        fill: #00699b;
      }

      .uuid-cf632cc7-9d71-4924-8adf-e29b74a2b8ab {
        clip-path: url(#uuid-7614b128-e8a6-43e5-9a1e-3d1c31807d3e);
      }

      .uuid-3d048307-95da-4d2d-9a33-3fc27231d1a1 {
        stroke: #606060;
        stroke-miterlimit: 10;
        stroke-width: 2.24px;
      }

      .uuid-9ed737ed-8827-4e8a-bbb0-1bed9b803eb9 {
        stroke: #fff;
        stroke-linejoin: bevel;
        stroke-width: 3.36px;
      }
    </style>
    <clipPath id="uuid-7614b128-e8a6-43e5-9a1e-3d1c31807d3e">
      <rect class="uuid-1644f1fd-a7ae-43d7-815c-0dae355c41b7" y="2.61" width="1245" height="1019.39"/>
    </clipPath>
    <clipPath id="uuid-f98d6c6a-f328-43e0-99d1-8fc2e43bad57">
      <rect class="uuid-1644f1fd-a7ae-43d7-815c-0dae355c41b7" x="-70.17" y="1.7" width="1385.35" height="1016.59"/>
    </clipPath>
  </defs>
  <g id="uuid-eab89ab0-c3a9-4305-aaed-cef2f37b29fc" data-name="Grafica">
    <g class="uuid-cf632cc7-9d71-4924-8adf-e29b74a2b8ab">
      <g class="uuid-9818a1a4-972e-422f-ac99-532106a0fc7b">
        <g>
          <rect class="uuid-53739b92-d3b3-436c-8d49-3af88653e574" x="-70.17" y="1.7" width="1385.35" height="1016.59"/>
          <path class="uuid-208ebb52-854f-4a5a-be37-2e9b21447888" d="m77.22,2.26v1016.59M77.22,2.26v1016.59M1171.15,2.26v1016.59M-70.17,1.7"/>
          <path class="uuid-208ebb52-854f-4a5a-be37-2e9b21447888" d="m-69.61,112.1h1385.35m-1385.35,0h1385.35M-69.61,385.59h1385.35M-69.61,659.07h1385.35M-70.17,1.7"/>
          <path class="uuid-3d048307-95da-4d2d-9a33-3fc27231d1a1" d="m624.74.58v1017.72"/>
          <path class="uuid-3d048307-95da-4d2d-9a33-3fc27231d1a1" d="m-70.17,931.99h1384.23"/>
          <text class="uuid-749f2112-96a3-4acf-b3c2-013cb4550ea8" transform="translate(119.25 949.93)"><tspan x="0" y="0">–0.9</tspan></text>
          <text class="uuid-9ed737ed-8827-4e8a-bbb0-1bed9b803eb9" transform="translate(119.25 949.93)"><tspan x="0" y="0">–0.9</tspan></text>
          <text class="uuid-749f2112-96a3-4acf-b3c2-013cb4550ea8" transform="translate(119.25 949.93)"><tspan x="0" y="0">–0.9</tspan></text>
          <path class="uuid-3d048307-95da-4d2d-9a33-3fc27231d1a1" d="m131.58,931.99v3.36"/>
          <text class="uuid-749f2112-96a3-4acf-b3c2-013cb4550ea8" transform="translate(282.89 949.93)"><tspan x="0" y="0">–0.6</tspan></text>
          <text class="uuid-9ed737ed-8827-4e8a-bbb0-1bed9b803eb9" transform="translate(282.89 949.93)"><tspan x="0" y="0">–0.6</tspan></text>
          <text class="uuid-749f2112-96a3-4acf-b3c2-013cb4550ea8" transform="translate(282.89 949.93)"><tspan x="0" y="0">–0.6</tspan></text>
          <path class="uuid-3d048307-95da-4d2d-9a33-3fc27231d1a1" d="m296.34,931.99v3.36"/>
          <text class="uuid-749f2112-96a3-4acf-b3c2-013cb4550ea8" transform="translate(447.65 949.93)"><tspan x="0" y="0">–0.3</tspan></text>
          <text class="uuid-9ed737ed-8827-4e8a-bbb0-1bed9b803eb9" transform="translate(447.65 949.93)"><tspan x="0" y="0">–0.3</tspan></text>
          <text class="uuid-749f2112-96a3-4acf-b3c2-013cb4550ea8" transform="translate(447.65 949.93)"><tspan x="0" y="0">–0.3</tspan></text>
          <path class="uuid-3d048307-95da-4d2d-9a33-3fc27231d1a1" d="m459.98,931.99v3.36"/>
          <path class="uuid-3d048307-95da-4d2d-9a33-3fc27231d1a1" d="m624.74,931.99v3.36"/>
          <text class="uuid-749f2112-96a3-4acf-b3c2-013cb4550ea8" transform="translate(779.42 949.93)"><tspan x="0" y="0">0.3</tspan></text>
          <text class="uuid-9ed737ed-8827-4e8a-bbb0-1bed9b803eb9" transform="translate(779.42 949.93)"><tspan x="0" y="0">0.3</tspan></text>
          <text class="uuid-749f2112-96a3-4acf-b3c2-013cb4550ea8" transform="translate(779.42 949.93)"><tspan x="0" y="0">0.3</tspan></text>
          <path class="uuid-3d048307-95da-4d2d-9a33-3fc27231d1a1" d="m788.38,931.99v3.36"/>
          <text class="uuid-749f2112-96a3-4acf-b3c2-013cb4550ea8" transform="translate(943.06 949.93)"><tspan x="0" y="0">0.6</tspan></text>
          <text class="uuid-9ed737ed-8827-4e8a-bbb0-1bed9b803eb9" transform="translate(943.06 949.93)"><tspan x="0" y="0">0.6</tspan></text>
          <text class="uuid-749f2112-96a3-4acf-b3c2-013cb4550ea8" transform="translate(943.06 949.93)"><tspan x="0" y="0">0.6</tspan></text>
          <path class="uuid-3d048307-95da-4d2d-9a33-3fc27231d1a1" d="m953.15,931.99v3.36"/>
          <text class="uuid-749f2112-96a3-4acf-b3c2-013cb4550ea8" transform="translate(1107.82 949.93)"><tspan x="0" y="0">0.9</tspan></text>
          <text class="uuid-9ed737ed-8827-4e8a-bbb0-1bed9b803eb9" transform="translate(1107.82 949.93)"><tspan x="0" y="0">0.9</tspan></text>
          <text class="uuid-749f2112-96a3-4acf-b3c2-013cb4550ea8" transform="translate(1107.82 949.93)"><tspan x="0" y="0">0.9</tspan></text>
          <path class="uuid-3d048307-95da-4d2d-9a33-3fc27231d1a1" d="m1116.79,931.99v3.36"/>
          <path class="uuid-3d048307-95da-4d2d-9a33-3fc27231d1a1" d="m621.38,795.25h3.36"/>
          <path class="uuid-3d048307-95da-4d2d-9a33-3fc27231d1a1" d="m621.38,658.51h3.36"/>
          <path class="uuid-3d048307-95da-4d2d-9a33-3fc27231d1a1" d="m621.38,521.77h3.36"/>
          <path class="uuid-3d048307-95da-4d2d-9a33-3fc27231d1a1" d="m621.38,385.03h3.36"/>
          <path class="uuid-3d048307-95da-4d2d-9a33-3fc27231d1a1" d="m621.38,248.29h3.36"/>
          <path class="uuid-3d048307-95da-4d2d-9a33-3fc27231d1a1" d="m621.38,111.54h3.36"/>
          <text class="uuid-749f2112-96a3-4acf-b3c2-013cb4550ea8" transform="translate(596.72 800.86)"><tspan x="0" y="0">0.5</tspan></text>
          <text class="uuid-9ed737ed-8827-4e8a-bbb0-1bed9b803eb9" transform="translate(596.72 800.86)"><tspan x="0" y="0">0.5</tspan></text>
          <text class="uuid-749f2112-96a3-4acf-b3c2-013cb4550ea8" transform="translate(596.72 800.86)"><tspan x="0" y="0">0.5</tspan></text>
          <text class="uuid-749f2112-96a3-4acf-b3c2-013cb4550ea8" transform="translate(607.93 664.11)"><tspan x="0" y="0">1</tspan></text>
          <text class="uuid-9ed737ed-8827-4e8a-bbb0-1bed9b803eb9" transform="translate(607.93 664.11)"><tspan x="0" y="0">1</tspan></text>
          <text class="uuid-749f2112-96a3-4acf-b3c2-013cb4550ea8" transform="translate(607.93 664.11)"><tspan x="0" y="0">1</tspan></text>
          <text class="uuid-749f2112-96a3-4acf-b3c2-013cb4550ea8" transform="translate(596.72 527.37)"><tspan x="0" y="0">1.5</tspan></text>
          <text class="uuid-9ed737ed-8827-4e8a-bbb0-1bed9b803eb9" transform="translate(596.72 527.37)"><tspan x="0" y="0">1.5</tspan></text>
          <text class="uuid-749f2112-96a3-4acf-b3c2-013cb4550ea8" transform="translate(596.72 527.37)"><tspan x="0" y="0">1.5</tspan></text>
          <text class="uuid-749f2112-96a3-4acf-b3c2-013cb4550ea8" transform="translate(607.93 390.63)"><tspan x="0" y="0">2</tspan></text>
          <text class="uuid-9ed737ed-8827-4e8a-bbb0-1bed9b803eb9" transform="translate(607.93 390.63)"><tspan x="0" y="0">2</tspan></text>
          <text class="uuid-749f2112-96a3-4acf-b3c2-013cb4550ea8" transform="translate(607.93 390.63)"><tspan x="0" y="0">2</tspan></text>
          <text class="uuid-749f2112-96a3-4acf-b3c2-013cb4550ea8" transform="translate(596.72 253.89)"><tspan x="0" y="0">2.5</tspan></text>
          <text class="uuid-9ed737ed-8827-4e8a-bbb0-1bed9b803eb9" transform="translate(596.72 253.89)"><tspan x="0" y="0">2.5</tspan></text>
          <text class="uuid-749f2112-96a3-4acf-b3c2-013cb4550ea8" transform="translate(596.72 253.89)"><tspan x="0" y="0">2.5</tspan></text>
          <text class="uuid-749f2112-96a3-4acf-b3c2-013cb4550ea8" transform="translate(607.93 117.15)"><tspan x="0" y="0">3</tspan></text>
          <text class="uuid-9ed737ed-8827-4e8a-bbb0-1bed9b803eb9" transform="translate(607.93 117.15)"><tspan x="0" y="0">3</tspan></text>
          <text class="uuid-749f2112-96a3-4acf-b3c2-013cb4550ea8" transform="translate(607.93 117.15)"><tspan x="0" y="0">3</tspan></text>
          <text class="uuid-749f2112-96a3-4acf-b3c2-013cb4550ea8" transform="translate(607.93 949.93)"><tspan x="0" y="0">0</tspan></text>
          <text class="uuid-9ed737ed-8827-4e8a-bbb0-1bed9b803eb9" transform="translate(607.93 949.93)"><tspan x="0" y="0">0</tspan></text>
          <text class="uuid-749f2112-96a3-4acf-b3c2-013cb4550ea8" transform="translate(607.93 949.93)"><tspan x="0" y="0">0</tspan></text>
          <path class="uuid-53ca9134-0bf5-4060-b5ef-24fc404f64d2" d="m77.78,72.86v11.14h0l1.12,9.62h0l1.12,6.41h0l1.12,5.16h0l1.12,4.45h0l1.12,3.97h0l1.12,3.62h0l1.12,3.35h0l1.12,3.13h0l1.12,2.95h0l1.12,2.8h0l1.12,2.67h0l1.12,2.55h0l1.12,2.45h0l1.12,2.37h0l1.12,2.29h0l1.12,2.21h0l1.12,2.15h0l1.12,2.09h0l1.12,2.03h0l1.12,1.98h0l1.12,1.94h0l1.12,1.89h0l1.12,1.85h0l1.12,1.81h0l1.12,1.78h0l1.12,1.74h0l1.12,1.71h0l1.12,1.68h0l1.12,1.65h0l1.12,1.63h0l1.12,1.6h0l1.12,1.58h0l1.12,1.55h0l1.12,1.53h0l1.12,1.51h0l1.12,1.49h0l1.12,1.47h0l1.12,1.45h0l1.12,1.43h0l1.12,1.42h0l1.12,1.4h0l1.12,1.38h0l1.12,1.37h0l1.12,1.35h0l1.12,1.34h0l1.12,1.32h0l1.12,1.31h0l1.12,1.3h0l1.12,1.28h0l1.12,1.27h0l1.12,1.26h0l1.12,1.25h0l1.12,1.24h0l1.12,1.23h0l1.12,1.22h0l1.12,1.21h0l1.12,1.2h0l1.12,1.19h0l1.12,1.18h0l1.12,1.17h0l1.12,1.16h0l1.12,1.15h0l1.12,1.14h0l1.12,1.13h0l1.12,1.12h0l1.12,1.12h0l1.12,1.11h0l1.12,1.1h0l1.12,1.09h0l1.12,1.09h0l1.12,1.08h0l1.12,1.07h0l1.12,1.07h0l1.12,1.06h0l1.12,1.05h0l1.12,1.05h0l1.12,1.04h0l1.12,1.03h0l1.12,1.03h0l1.12,1.02h0l1.12,1.02h0l1.12,1.01h0l1.12,1.01h0l1.12,1h0l1.12.99h0l1.12.99h0l1.12.98h0l1.12.98h0l1.12.97h0l1.12.97h0l1.12.96h0l1.12.96h0l1.12.95h0l1.12.95h0l1.12.95h0l1.12.94h0l1.12.94h0l1.12.93h0l1.12.93h0l1.12.92h0l1.12.92h0l1.12.92h0l1.12.91h0l1.12.91h0l1.12.9h0l1.12.9h0l1.12.9h0l1.12.89h0l1.12.89h0l1.12.89h0l1.12.88h0l1.12.88h0l1.12.88h0l1.12.87h0l1.12.87h0l1.12.87h0l1.12.86h0l1.12.86h0l1.12.86h0l1.12.85h0l1.12.85h0l1.12.85h0l1.12.84h0l1.12.84h0l1.12.84h0l1.12.84h0l1.12.83h0l1.12.83h0l1.12.83h0l1.12.83h0l1.12.82h0l1.12.82h0l1.12.82h0l1.12.81h0l1.12.81h0l1.12.81h0l1.12.81h0l1.12.8h0l1.12.8h0l1.12.8h0l1.12.8h0l1.12.8h0l1.12.79h0l1.12.79h0l1.12.79h0l1.12.79h0l1.12.78h0l1.12.78h0l1.12.78h0l1.12.78h0l1.12.78h0l1.12.77h0l1.12.77h0l1.12.77h0l1.12.77h0l1.12.76h0l1.12.76h0l1.12.76h0l1.12.76h0l1.12.76h0l1.12.76h0l1.12.75h0l1.12.75h0l1.12.75h0l1.12.75h0l1.12.75h0l1.12.74h0l1.12.74h0l1.12.74h0l1.12.74h0l1.12.74h0l1.12.74h0l1.12.73h0l1.12.73h0l1.12.73h0l1.12.73h0l1.12.73h0l1.12.73h0l1.12.72h0l1.12.72h0l1.12.72h0l1.12.72h0l1.12.72h0l1.12.72h0l1.12.72h0l1.12.71h0l1.12.71h0l1.12.71h0l1.12.71h0l1.12.71h0l1.12.71h0l1.12.71h0l1.12.7h0l1.12.7h0l1.12.7h0l1.12.7h0l1.12.7h0l1.12.7h0l1.12.7h0l1.12.69h0l1.12.69h0l1.12.69h0l1.12.69h0l1.12.69h0l1.12.69h0l1.12.69h0l1.12.69h0l1.12.68h0l1.12.68h0l1.12.68h0l1.12.68h0l1.12.68h0l1.12.68h0l1.12.68h0l1.12.68h0l1.12.68h0l1.12.67h0l1.12.67h0l1.12.67h0l1.12.67h0l1.12.67h0l1.12.67h0l1.12.67h0l1.12.67h0l1.12.67h0l1.12.66h0l1.12.66h0l1.12.66h0l1.12.66h0l1.12.66h0l1.12.66h0l1.12.66h0l1.12.66h0l1.12.66h0l1.12.66h0l1.12.65h0l1.12.65h0l1.12.65h0l1.12.65h0l1.12.65h0l1.12.65h0l1.12.65h0l1.12.65h0l1.12.65h0l1.12.65h0l1.12.65h0l1.12.64h0l1.12.64h0l1.12.64h0l1.12.64h0l1.12.64h0l1.12.64h0l1.12.64h0l1.12.64h0l1.12.64h0l1.12.64h0l1.12.64h0l1.12.64h0l1.12.63h0l1.12.63h0l1.12.63h0l1.12.63h0l1.12.63h0l1.12.63h0l1.12.63h0l1.12.63h0l1.12.63h0l1.12.63h0l1.12.63h0l1.12.63h0l1.12.63h0l1.12.63h0l1.12.62h0l1.12.62h0l1.12.62h0l1.12.62h0l1.12.62h0l1.12.62h0l1.12.62h0l1.12.62h0l1.12.62h0l1.12.62h0l1.12.62h0l1.12.62h0l1.12.62h0l1.12.62h0l1.12.62h0l1.12.61h0l1.12.61h0l1.12.61h0l1.12.61h0l1.12.61h0l1.12.61h0l1.12.61h0l1.12.61h0l1.12.61h0l1.12.61h0l1.12.61h0l1.12.61h0l1.12.61h0l1.12.61h0l1.12.61h0l1.12.61h0l1.12.61h0l1.12.6h0l1.12.6h0l1.12.6h0l1.12.6h0l1.12.6h0l1.12.6h0l1.12.6h0l1.12.6h0l1.12.6h0l1.12.6h0l1.12.6h0l1.12.6h0l1.12.6h0l1.12.6h0l1.12.6h0l1.12.6h0l1.12.6h0l1.12.6h0l1.12.6h0l1.12.6h0l1.12.59h0l1.12.59h0l1.12.59h0l1.12.59h0l1.12.59h0l1.12.59h0l1.12.59h0l1.12.59h0l1.12.59h0l1.12.59h0l1.12.59h0l1.12.59h0l1.12.59h0l1.12.59h0l1.12.59h0l1.12.59h0l1.12.59h0l1.12.59h0l1.12.59h0l1.12.59h0l1.12.59h0l1.12.59h0l1.12.59h0l1.12.59h0l1.12.58h0l1.12.58h0l1.12.58h0l1.12.58h0l1.12.58h0l1.12.58h0l1.12.58h0l1.12.58h0l1.12.58h0l1.12.58h0l1.12.58h0l1.12.58h0l1.12.58h0l1.12.58h0l1.12.58h0l1.12.58h0l1.12.58h0l1.12.58h0l1.12.58h0l1.12.58h0l1.12.58h0l1.12.58h0l1.12.58h0l1.12.58h0l1.12.58h0l1.12.58h0l1.12.58h0l1.12.58h0l1.12.58h0l1.12.58h0l1.12.58h0l1.12.57h0l1.12.57h0l1.12.57h0l1.12.57h0l1.12.57h0l1.12.57h0l1.12.57h0l1.12.57h0l1.12.57h0l1.12.57h0l1.12.57h0l1.12.57h0l1.12.57h0l1.12.57h0l1.12.57h0l1.12.57h0l1.12.57h0l1.12.57h0l1.12.57h0l1.12.57h0l1.12.57h0l1.12.57h0l1.12.57h0l1.12.57h0l1.12.57h0l1.12.57h0l1.12.57h0l1.12.57h0l1.12.57h0l1.12.57h0l1.12.57h0l1.12.57h0l1.12.57h0l1.12.57h0l1.12.57h0l1.12.57h0l1.12.57h0l1.12.57h0l1.12.57h0l1.12.57h0l1.12.57h0l1.12.57h0l1.12.57h0l1.12.57h0l1.12.57h0l1.12.57h0l1.12.57h0l1.12.56h0l1.12.56h0l1.12.56h0l1.12.56h0l1.12.56h0l1.12.56h0l1.12.56h0l1.12.56h0l1.12.56h0l1.12.56h0l1.12.56h0l1.12.56h0l1.12.56h0l1.12.56h0l1.12.56h0l1.12.56h0l1.12.56h0l1.12.56h0l1.12.56h0l1.12.56h0l1.12.56h0l1.12.56h0l1.12.56h0l1.12.56h0l1.12.56h0l1.12.56h0l1.12.56h0l1.12.56h0l1.12.56h0l1.12.56h0l1.12.56h0l1.12.56h0l1.12.56h0l1.12.56h0l1.12.56h0l1.12.56h0l1.12.56h0l1.12.56h0l1.12.56h0l1.12.56h0l1.12.56h0l1.12.56h0l1.12.56h0l1.12.56h0l1.12.56h0l1.12.56h0l1.12.56h0l1.12.56h0l1.12.56h0l1.12.56h0l1.12.56h0l1.12.56h0l1.12.56h0l1.12.56h0l1.12.56h0l1.12.56h0l1.12.56h0l1.12.56h0l1.12.56h0l1.12.56h0l1.12.56h0l1.12.56h0l1.12.56h0l1.12.56h0l1.12.56h0l1.12.56h0l1.12.56h0l1.12.56h0l1.12.56h0l1.12.56h0l1.12.56h0l1.12.56h0l1.12.56h0l1.12.56h0l1.12.56h0l1.12.56h0l1.12.56h0l1.12.56h0l1.12.56h0l1.12.56h0l1.12.56h0l1.12.56h0l1.12.56h0l1.12.56h0l1.12.56h0l1.12.56h0l1.12.56h0l1.12.56h0l1.12.56h0l1.12.56h0l1.12.56h0l1.12.56h0l1.12.56h0l1.12.56h0l1.12.56h0l1.12.56h0l1.12.56h0l1.12.56h0l1.12.56h0l1.12.56h0l1.12.56h0l1.12.56h0l1.12.56h0l1.12.56h0l1.12.56h0l1.12.56h0l1.12.56h0l1.12.56h0l1.12.56h0l1.12.56h0l1.12.56h0l1.12.56h0l1.12.56h0l1.12.56h0l1.12.56h0l1.12.56h0l1.12.56h0l1.12.56h0l1.12.56h0l1.12.56h0l1.12.56h0l1.12.56h0l1.12.56h0l1.12.56h0l1.12.57h0l1.12.57h0l1.12.57h0l1.12.57h0l1.12.57h0l1.12.57h0l1.12.57h0l1.12.57h0l1.12.57h0l1.12.57h0l1.12.57h0l1.12.57h0l1.12.57h0l1.12.57h0l1.12.57h0l1.12.57h0l1.12.57h0l1.12.57h0l1.12.57h0l1.12.57h0l1.12.57h0l1.12.57h0l1.12.57h0l1.12.57h0l1.12.57h0l1.12.57h0l1.12.57h0l1.12.57h0l1.12.57h0l1.12.57h0l1.12.57h0l1.12.57h0l1.12.57h0l1.12.57h0l1.12.57h0l1.12.57h0l1.12.57h0l1.12.57h0l1.12.57h0l1.12.57h0l1.12.57h0l1.12.57h0l1.12.57h0l1.12.57h0l1.12.57h0l1.12.57h0l1.12.57h0l1.12.58h0l1.12.58h0l1.12.58h0l1.12.58h0l1.12.58h0l1.12.58h0l1.12.58h0l1.12.58h0l1.12.58h0l1.12.58h0l1.12.58h0l1.12.58h0l1.12.58h0l1.12.58h0l1.12.58h0l1.12.58h0l1.12.58h0l1.12.58h0l1.12.58h0l1.12.58h0l1.12.58h0l1.12.58h0l1.12.58h0l1.12.58h0l1.12.58h0l1.12.58h0l1.12.58h0l1.12.58h0l1.12.58h0l1.12.58h0l1.12.58h0l1.12.59h0l1.12.59h0l1.12.59h0l1.12.59h0l1.12.59h0l1.12.59h0l1.12.59h0l1.12.59h0l1.12.59h0l1.12.59h0l1.12.59h0l1.12.59h0l1.12.59h0l1.12.59h0l1.12.59h0l1.12.59h0l1.12.59h0l1.12.59h0l1.12.59h0l1.12.59h0l1.12.59h0l1.12.59h0l1.12.59h0l1.12.59h0l1.12.6h0l1.12.6h0l1.12.6h0l1.12.6h0l1.12.6h0l1.12.6h0l1.12.6h0l1.12.6h0l1.12.6h0l1.12.6h0l1.12.6h0l1.12.6h0l1.12.6h0l1.12.6h0l1.12.6h0l1.12.6h0l1.12.6h0l1.12.6h0l1.12.6h0l1.12.6h0l1.12.61h0l1.12.61h0l1.12.61h0l1.12.61h0l1.12.61h0l1.12.61h0l1.12.61h0l1.12.61h0l1.12.61h0l1.12.61h0l1.12.61h0l1.12.61h0l1.12.61h0l1.12.61h0l1.12.61h0l1.12.61h0l1.12.61h0l1.12.62h0l1.12.62h0l1.12.62h0l1.12.62h0l1.12.62h0l1.12.62h0l1.12.62h0l1.12.62h0l1.12.62h0l1.12.62h0l1.12.62h0l1.12.62h0l1.12.62h0l1.12.62h0l1.12.62h0l1.12.63h0l1.12.63h0l1.12.63h0l1.12.63h0l1.12.63h0l1.12.63h0l1.12.63h0l1.12.63h0l1.12.63h0l1.12.63h0l1.12.63h0l1.12.63h0l1.12.63h0l1.12.64h0l1.12.64h0l1.12.64h0l1.12.64h0l1.12.64h0l1.12.64h0l1.12.64h0l1.12.64h0l1.12.64h0l1.12.64h0l1.12.64h0l1.12.64h0l1.12.65h0l1.12.65h0l1.12.65h0l1.12.65h0l1.12.65h0l1.12.65h0l1.12.65h0l1.12.65h0l1.12.65h0l1.12.65h0l1.12.65h0l1.12.66h0l1.12.66h0l1.12.66h0l1.12.66h0l1.12.66h0l1.12.66h0l1.12.66h0l1.12.66h0l1.12.66h0l1.12.66h0l1.12.66h0l1.12.67h0l1.12.67h0l1.12.67h0l1.12.67h0l1.12.67h0l1.12.67h0l1.12.67h0l1.12.67h0l1.12.67h0l1.12.68h0l1.12.68h0l1.12.68h0l1.12.68h0l1.12.68h0l1.12.68h0l1.12.68h0l1.12.68h0l1.12.68h0l1.12.69h0l1.12.69h0l1.12.69h0l1.12.69h0l1.12.69h0l1.12.69h0l1.12.69h0l1.12.69h0l1.12.7h0l1.12.7h0l1.12.7h0l1.12.7h0l1.12.7h0l1.12.7h0l1.12.7h0l1.12.71h0l1.12.71h0l1.12.71h0l1.12.71h0l1.12.71h0l1.12.71h0l1.12.71h0l1.12.72h0l1.12.72h0l1.12.72h0l1.12.72h0l1.12.72h0l1.12.72h0l1.12.73h0l1.12.73h0l1.12.73h0l1.12.73h0l1.12.73h0l1.12.73h0l1.12.73h0l1.12.74h0l1.12.74h0l1.12.74h0l1.12.74h0l1.12.74h0l1.12.75h0l1.12.75h0l1.12.75h0l1.12.75h0l1.12.75h0l1.12.75h0l1.12.76h0l1.12.76h0l1.12.76h0l1.12.76h0l1.12.76h0l1.12.77h0l1.12.77h0l1.12.77h0l1.12.77h0l1.12.77h0l1.12.78h0l1.12.78h0l1.12.78h0l1.12.78h0l1.12.78h0l1.12.79h0l1.12.79h0l1.12.79h0l1.12.79h0l1.12.8h0l1.12.8h0l1.12.8h0l1.12.8h0l1.12.81h0l1.12.81h0l1.12.81h0l1.12.81h0l1.12.82h0l1.12.82h0l1.12.82h0l1.12.82h0l1.12.83h0l1.12.83h0l1.12.83h0l1.12.83h0l1.12.84h0l1.12.84h0l1.12.84h0l1.12.85h0l1.12.85h0l1.12.85h0l1.12.86h0l1.12.86h0l1.12.86h0l1.12.86h0l1.12.87h0l1.12.87h0l1.12.87h0l1.12.88h0l1.12.88h0l1.12.88h0l1.12.89h0l1.12.89h0l1.12.9h0l1.12.9h0l1.12.9h0l1.12.91h0l1.12.91h0l1.12.91h0l1.12.92h0l1.12.92h0l1.12.93h0l1.12.93h0l1.12.93h0l1.12.94h0l1.12.94h0l1.12.95h0l1.12.95h0l1.12.96h0l1.12.96h0l1.12.97h0l1.12.97h0l1.12.98h0l1.12.98h0l1.12.99h0l1.12.99h0l1.12,1h0l1.12,1h0l1.12,1.01h0l1.12,1.01h0l1.12,1.02h0l1.12,1.02h0l1.12,1.03h0l1.12,1.04h0l1.12,1.04h0l1.12,1.05h0l1.12,1.06h0l1.12,1.06h0l1.12,1.07h0l1.12,1.08h0l1.12,1.08h0l1.12,1.09h0l1.12,1.1h0l1.12,1.1h0l1.12,1.11h0l1.12,1.12h0l1.12,1.13h0l1.12,1.14h0l1.12,1.14h0l1.12,1.15h0l1.12,1.16h0l1.12,1.17h0l1.12,1.18h0l1.12,1.19h0l1.12,1.2h0l1.12,1.21h0l1.12,1.22h0l1.12,1.23h0l1.12,1.24h0l1.12,1.25h0l1.12,1.27h0l1.12,1.28h0l1.12,1.29h0l1.12,1.3h0l1.12,1.32h0l1.12,1.33h0l1.12,1.34h0l1.12,1.36h0l1.12,1.37h0l1.12,1.39h0l1.12,1.41h0l1.12,1.42h0l1.12,1.44h0l1.12,1.46h0l1.12,1.48h0l1.12,1.5h0l1.12,1.52h0l1.12,1.54h0l1.12,1.56h0l1.12,1.59h0l1.12,1.61h0l1.12,1.64h0l1.12,1.67h0l1.12,1.69h0l1.12,1.73h0l1.12,1.76h0l1.12,1.79h0l1.12,1.83h0l1.12,1.87h0l1.12,1.91h0l1.12,1.96h0l1.12,2h0l1.12,2.06h0l1.12,2.11h0l1.12,2.18h0l1.12,2.24h0l1.12,2.32h0l1.12,2.4h0l1.12,2.5h0l1.12,2.6h0l1.12,2.72h0l1.12,2.86h0l1.12,3.02h0l1.12,3.22h0l1.12,3.46h0l1.12,3.76h0l1.12,4.16h0l1.12,4.72h0l1.12,5.61h0l1.12,7.34h0l1.12,17.25"/>
        </g>
      </g>
    </g>
  </g>
  <g id="uuid-1ef0d1cf-28d0-4de0-ba14-e9b8dcf224eb" data-name="Marco">
    <path class="uuid-29b5852a-cb88-4a5c-9e1c-e38aaa638c69" d="m-2-2V1022h1249V-2H-2Zm1232,987c0,11.05-8.95,20-20,20H35c-11.05,0-20-8.95-20-20V35c0-11.05,8.95-20,20-20h1175c11.05,0,20,8.95,20,20v950Z"/>
  </g>
  <g id="uuid-6158c44c-0db9-4e9e-b19f-4ab6d9032cca" data-name="texto">
    <g>
      <path class="uuid-494a70be-ce04-411a-b476-7a9512a93bd8" d="m956.08,92.11c-.13-.99-.25-1.68-.37-2.06s-.31-.68-.57-.88c-.26-.2-.68-.32-1.27-.36l.21-.96h5.02l1.48,15.53c4.4-6.02,6.6-10.33,6.6-12.93,0-.61-.13-1.03-.39-1.25-.26-.22-.7-.35-1.33-.39l.2-.96h5.04l.53.98c-.69,1.81-1.57,3.68-2.65,5.62s-2.39,4.06-3.95,6.37c-1.56,2.3-3.28,4.7-5.19,7.19-1.46,1.91-2.68,3.36-3.67,4.34-.77.74-1.47,1.31-2.12,1.69s-1.27.66-1.88.82-1.25.24-1.92.24c-.35,0-.75-.04-1.19-.11-.44-.07-.82-.17-1.13-.28l.84-3.65h1.52c.01.44.12.79.31,1.05s.48.39.86.39c.42,0,.77-.04,1.07-.13.3-.08.62-.22.95-.42s.74-.51,1.21-.94c.48-.43,1.01-1,1.61-1.71.6-.71,1.27-1.57,2.01-2.57l-1.86-14.63Z"/>
      <path class="uuid-494a70be-ce04-411a-b476-7a9512a93bd8" d="m982.09,92.4v-2.71h17.3v2.71h-17.3Zm0,8.11v-2.71h17.3v2.71h-17.3Z"/>
      <path class="uuid-494a70be-ce04-411a-b476-7a9512a93bd8" d="m1026.92,88.81l1.8-1.29,1.25.31-2.99,13.26c-.18.78-.31,1.38-.37,1.81-.07.42-.1.77-.1,1.04,0,.53.15.92.45,1.16.3.24.87.39,1.72.46l-.18.96h-5.59l1.23-4.9-.25-.08c-1.25,1.82-2.44,3.16-3.55,4-1.12.85-2.3,1.27-3.55,1.27-1.43,0-2.54-.54-3.33-1.62-.79-1.08-1.18-2.6-1.18-4.55,0-1.25.14-2.5.43-3.76.29-1.26.72-2.45,1.3-3.57.58-1.13,1.27-2.12,2.08-2.98.81-.86,1.74-1.54,2.8-2.05,1.06-.51,2.22-.76,3.47-.76.81,0,1.58.09,2.3.28.73.19,1.48.52,2.27,1.01Zm-1.72,5.82c.12-.53.2-1,.23-1.39s.06-.81.06-1.27c0-1.02-.21-1.75-.64-2.22s-1.15-.69-2.15-.69c-.55,0-1.07.09-1.56.26-.5.18-1,.47-1.5.88s-.99.95-1.46,1.61c-.46.66-.88,1.47-1.26,2.42-.38.95-.67,1.97-.88,3.06-.21,1.09-.31,2.15-.31,3.17,0,1.35.19,2.37.56,3.04s.99,1.01,1.87,1.01c.4,0,.82-.09,1.26-.27.44-.18.92-.52,1.46-1.01.53-.49,1.14-1.21,1.82-2.16.61-.87,1.1-1.74,1.46-2.59.36-.85.65-1.86.89-3.02l.18-.84Z"/>
      <path class="uuid-494a70be-ce04-411a-b476-7a9512a93bd8" d="m1039.44,87.67h1.17l-1.37,4.8.23.08c1.24-1.71,2.44-2.97,3.62-3.79,1.18-.82,2.39-1.23,3.64-1.23.95,0,1.74.07,2.38.21l-.94,4.38h-2.01c-.1-.68-.27-1.19-.49-1.54-.22-.35-.57-.53-1.04-.53-.51,0-1.09.26-1.76.78s-1.34,1.24-2.03,2.15c-.69.91-1.21,1.75-1.55,2.52-.35.77-.61,1.62-.79,2.56l-1.78,8.46h-3.38l2.97-13.34c.27-1.22.41-2.16.41-2.79,0-.36-.06-.65-.18-.85s-.31-.35-.57-.45c-.26-.1-.7-.17-1.33-.21l.21-1.04,4.55-.18Z"/>
      <path class="uuid-494a70be-ce04-411a-b476-7a9512a93bd8" d="m1061.92,92.54c-.03-.99-.11-1.71-.24-2.15s-.36-.77-.66-1c-.31-.22-.74-.33-1.3-.33-1.32,0-2.5.52-3.54,1.57-1.05,1.05-1.9,2.53-2.57,4.45s-1,3.77-1,5.54c0,.55.05,1.06.15,1.54s.27.9.51,1.25c.24.35.56.63.96.83.4.2.9.3,1.51.3,1.18,0,2.21-.22,3.08-.67.87-.45,1.78-1.16,2.74-2.12l1.19,1.19c-1.22,1.35-2.46,2.34-3.7,2.97-1.24.62-2.58.94-4.01.94-1.89,0-3.32-.56-4.3-1.68s-1.46-2.75-1.46-4.88c0-1.39.26-2.92.78-4.59.52-1.67,1.28-3.13,2.29-4.39,1-1.26,2.17-2.21,3.52-2.83,1.34-.62,2.77-.94,4.3-.94,1.04,0,1.95.06,2.72.18.77.12,1.46.25,2.06.41l-.96,4.41h-2.05Z"/>
      <path class="uuid-494a70be-ce04-411a-b476-7a9512a93bd8" d="m1079.05,92.54c-.03-.99-.11-1.71-.24-2.15s-.36-.77-.66-1c-.31-.22-.74-.33-1.3-.33-1.32,0-2.5.52-3.54,1.57-1.05,1.05-1.9,2.53-2.57,4.45s-1,3.77-1,5.54c0,.55.05,1.06.15,1.54s.27.9.51,1.25c.24.35.56.63.96.83.4.2.9.3,1.51.3,1.18,0,2.21-.22,3.08-.67.87-.45,1.78-1.16,2.74-2.12l1.19,1.19c-1.22,1.35-2.46,2.34-3.7,2.97-1.24.62-2.58.94-4.01.94-1.89,0-3.32-.56-4.3-1.68s-1.46-2.75-1.46-4.88c0-1.39.26-2.92.78-4.59.52-1.67,1.28-3.13,2.29-4.39,1-1.26,2.17-2.21,3.52-2.83,1.34-.62,2.77-.94,4.3-.94,1.04,0,1.95.06,2.72.18.77.12,1.46.25,2.06.41l-.96,4.41h-2.05Z"/>
      <path class="uuid-494a70be-ce04-411a-b476-7a9512a93bd8" d="m1089.81,106.85c-2.02,0-3.58-.57-4.7-1.7s-1.67-2.76-1.67-4.88c0-.78.1-1.7.29-2.75.25-1.37.6-2.58,1.05-3.63.59-1.32,1.34-2.45,2.26-3.41s1.97-1.69,3.16-2.19,2.47-.75,3.84-.75c1.5,0,2.72.29,3.68.86s1.65,1.35,2.08,2.33.64,2.12.64,3.41c0,1.16-.16,2.4-.49,3.71-.47,1.93-1.15,3.56-2.05,4.9s-2.02,2.36-3.38,3.06c-1.35.7-2.93,1.04-4.73,1.04Zm-2.95-5.74c0,1.43.3,2.49.89,3.17.59.68,1.49,1.03,2.69,1.03,1.28,0,2.41-.57,3.4-1.72.99-1.15,1.77-2.75,2.34-4.81.57-2.06.86-3.88.86-5.44,0-1.41-.27-2.46-.82-3.17s-1.4-1.06-2.56-1.06c-1.35,0-2.54.57-3.54,1.7-1.01,1.13-1.8,2.75-2.38,4.86-.58,2.11-.87,3.93-.87,5.45Z"/>
      <path class="uuid-494a70be-ce04-411a-b476-7a9512a93bd8" d="m1114.98,92.4c-.14-1.17-.48-2.02-1.01-2.55s-1.34-.79-2.45-.79c-.61,0-1.17.11-1.66.34-.5.23-.89.56-1.17,1-.29.44-.43.95-.43,1.53,0,.48.1.92.29,1.32s.52.81.99,1.24c.46.43,1.11.92,1.94,1.48,1.26.85,2.15,1.67,2.66,2.46s.76,1.71.76,2.75c0,1.22-.29,2.26-.88,3.12s-1.39,1.49-2.4,1.9-2.16.62-3.44.62c-1.15,0-2.22-.08-3.21-.25s-1.96-.38-2.9-.64l.92-4.22h1.52c.09,1.2.43,2.09,1.03,2.69.59.59,1.46.89,2.59.89s2.06-.29,2.71-.87c.65-.58.98-1.34.98-2.29,0-.56-.1-1.06-.29-1.5s-.5-.87-.92-1.27c-.42-.4-1.01-.87-1.78-1.39-.82-.56-1.48-1.09-1.99-1.58s-.9-1.04-1.18-1.63c-.28-.59-.42-1.25-.42-1.96,0-1.08.27-2.02.8-2.81.53-.79,1.29-1.4,2.28-1.82.98-.42,2.13-.62,3.45-.62,2.15,0,4.04.28,5.68.84l-.9,4.02h-1.56Z"/>
      <path class="uuid-494a70be-ce04-411a-b476-7a9512a93bd8" d="m1144.65,88.81c-2.53,2.7-5.17,5.36-7.93,7.99l1.82,4.28c.48,1.15.87,1.99,1.15,2.53.29.54.55.93.78,1.17s.47.42.7.53.61.2,1.11.26l-.21.96h-4.86l-2.71-7.85c-.31.27-.73.65-1.24,1.14-.51.49-1.01,1.01-1.49,1.56-.48.55-.82,1-1.02,1.34s-.32.63-.38.88-.09.5-.09.76c0,.34.09.61.28.8.19.2.51.33.97.41l-.21.96h-5.57l-.37-.96c2.85-3.06,5.66-5.88,8.42-8.46l-1.85-4.36c-.38-.89-.68-1.56-.92-2.02s-.46-.82-.67-1.07-.46-.45-.74-.59c-.28-.14-.68-.22-1.2-.26l.21-.96h4.86l2.6,7.36c.64-.59,1.24-1.19,1.82-1.82.57-.62.98-1.12,1.21-1.48s.4-.69.49-.98c.09-.29.14-.59.14-.9,0-.72-.42-1.13-1.25-1.23l.21-.96h5.57l.39.96Z"/>
    </g>
  </g>
</svg>