<?xml version="1.0" encoding="UTF-8"?>
<svg xmlns="http://www.w3.org/2000/svg" width="1617.3" height="1020" xmlns:xlink="http://www.w3.org/1999/xlink" viewBox="0 0 1617.3 1020">
  <defs>
    <style>
      .uuid-95a7659b-1f01-4fbe-8a38-569b25de4920 {
        fill: #fff;
      }

      .uuid-5c5ca1b0-e036-48cd-b2bd-4b9ded697f00, .uuid-7b89b7cb-b94e-4602-b1d4-e99203799925, .uuid-8c57eae7-eae4-49b3-8bd7-ec13da22e874, .uuid-153c0259-eb37-4537-8591-4d9f7ef4942f {
        font-family: HelveticaNeue-UltraLight, 'Helvetica Neue UltraLight';
        font-weight: 100;
        isolation: isolate;
      }

      .uuid-5c5ca1b0-e036-48cd-b2bd-4b9ded697f00, .uuid-8821894a-ad6b-44eb-9b5d-534e84872ee0, .uuid-be9b64b8-cc5a-4109-8497-81888735c0e2, .uuid-8c57eae7-eae4-49b3-8bd7-ec13da22e874, .uuid-2d95eb0f-300e-4aae-b8d2-a89d89fe08b8, .uuid-0030e86d-bf66-4aa1-86f7-1148065d0006, .uuid-18e0f9f1-08f0-4816-8ca0-66d8ff7b9378, .uuid-66ceb361-64a7-480f-b4ac-e9003e8c95bc, .uuid-c0d37c2c-d6de-4e30-824f-e122aba0a139 {
        fill: none;
      }

      .uuid-5c5ca1b0-e036-48cd-b2bd-4b9ded697f00, .uuid-8c57eae7-eae4-49b3-8bd7-ec13da22e874 {
        stroke: #fff;
        stroke-linejoin: bevel;
        stroke-width: 3.28px;
      }

      .uuid-5c5ca1b0-e036-48cd-b2bd-4b9ded697f00, .uuid-153c0259-eb37-4537-8591-4d9f7ef4942f {
        font-size: 17.47px;
      }

      .uuid-7b89b7cb-b94e-4602-b1d4-e99203799925, .uuid-8c57eae7-eae4-49b3-8bd7-ec13da22e874 {
        font-size: 13.1px;
      }

      .uuid-7b89b7cb-b94e-4602-b1d4-e99203799925, .uuid-1e3b2f52-4ef8-467d-97fc-470849d23df6 {
        fill: #606060;
      }

      .uuid-8821894a-ad6b-44eb-9b5d-534e84872ee0 {
        stroke: rgba(255, 0, 51, .7);
        stroke-width: 8.02px;
      }

      .uuid-8821894a-ad6b-44eb-9b5d-534e84872ee0, .uuid-66ceb361-64a7-480f-b4ac-e9003e8c95bc, .uuid-c0d37c2c-d6de-4e30-824f-e122aba0a139 {
        stroke-linecap: round;
        stroke-linejoin: round;
      }

      .uuid-be9b64b8-cc5a-4109-8497-81888735c0e2 {
        stroke: #606060;
        stroke-miterlimit: 10;
        stroke-width: 2.18px;
      }

      .uuid-2d95eb0f-300e-4aae-b8d2-a89d89fe08b8 {
        clip-path: url(#uuid-e54700cc-397c-4ab4-9048-b6c4a77abad5);
      }

      .uuid-153c0259-eb37-4537-8591-4d9f7ef4942f {
        fill: #f03;
      }

      .uuid-0030e86d-bf66-4aa1-86f7-1148065d0006 {
        clip-path: url(#uuid-50b647a3-76f4-4f89-842e-c2b265967d5d);
      }

      .uuid-e176dbb4-c42c-4a63-8137-ad6155b834aa {
        fill: #00699b;
      }

      .uuid-66ceb361-64a7-480f-b4ac-e9003e8c95bc {
        stroke: silver;
      }

      .uuid-66ceb361-64a7-480f-b4ac-e9003e8c95bc, .uuid-c0d37c2c-d6de-4e30-824f-e122aba0a139 {
        stroke-width: 1.09px;
      }

      .uuid-c0d37c2c-d6de-4e30-824f-e122aba0a139 {
        stroke: rgba(192, 192, 192, .24);
      }

      .uuid-1e3b2f52-4ef8-467d-97fc-470849d23df6 {
        fill-rule: evenodd;
      }
    </style>
    <clipPath id="uuid-e54700cc-397c-4ab4-9048-b6c4a77abad5">
      <rect class="uuid-18e0f9f1-08f0-4816-8ca0-66d8ff7b9378" y="3.66" width="1603.54" height="1021.45"/>
    </clipPath>
    <clipPath id="uuid-50b647a3-76f4-4f89-842e-c2b265967d5d">
      <rect class="uuid-18e0f9f1-08f0-4816-8ca0-66d8ff7b9378" x="-1.41" y="14.85" width="1604.76" height="990.15"/>
    </clipPath>
  </defs>
  <g id="uuid-20988db3-62e2-4bf6-811d-40589af8a08f" data-name="Grafica">
    <g class="uuid-2d95eb0f-300e-4aae-b8d2-a89d89fe08b8">
      <g class="uuid-0030e86d-bf66-4aa1-86f7-1148065d0006">
        <g>
          <rect class="uuid-95a7659b-1f01-4fbe-8a38-569b25de4920" x="-1.41" y="14.85" width="1604.76" height="990.15"/>
          <path class="uuid-66ceb361-64a7-480f-b4ac-e9003e8c95bc" d="m71.19,15.4v990.15m0-990.15v990.15M217.47,15.4v990.15M363.76,15.4v990.15M510.04,15.4v990.15M656.32,15.4v990.15M949.98,15.4v990.15M1096.27,15.4v990.15M1242.55,15.4v990.15M1388.84,15.4v990.15M1535.12,15.4v990.15"/>
          <path class="uuid-c0d37c2c-d6de-4e30-824f-e122aba0a139" d="m12.24,15.4v990.15M41.71,15.4v990.15M100.66,15.4v990.15M130.14,15.4v990.15M158.52,15.4v990.15M188,15.4v990.15M246.95,15.4v990.15M276.42,15.4v990.15M305.9,15.4v990.15M334.28,15.4v990.15M393.23,15.4v990.15M422.71,15.4v990.15M452.18,15.4v990.15M480.56,15.4v990.15M539.51,15.4v990.15M568.99,15.4v990.15M598.47,15.4v990.15M627.94,15.4v990.15M685.8,15.4v990.15M715.27,15.4v990.15M744.75,15.4v990.15M774.22,15.4v990.15M832.08,15.4v990.15M861.56,15.4v990.15M891.03,15.4v990.15M920.51,15.4v990.15M978.37,15.4v990.15M1007.84,15.4v990.15m29.48-990.15v990.15m29.48-990.15v990.15M1125.74,15.4v990.15m28.38-990.15v990.15m29.48-990.15v990.15m29.48-990.15v990.15M1272.03,15.4v990.15m29.48-990.15v990.15m28.38-990.15v990.15m29.48-990.15v990.15M1418.31,15.4v990.15m29.48-990.15v990.15m28.38-990.15v990.15m29.48-990.15v990.15M1564.6,15.4v990.15m29.48-990.15v990.15"/>
          <path class="uuid-66ceb361-64a7-480f-b4ac-e9003e8c95bc" d="m-.86,137.66h1604.76M-.86,137.66h1604.76M-.86,323.25h1604.76M-.86,696.6h1604.76M-.86,883.28h1604.76"/>
          <path class="uuid-c0d37c2c-d6de-4e30-824f-e122aba0a139" d="m-.86,25.22h1604.76M-.86,25.22h1604.76M-.86,62.34h1604.76M-.86,99.46h1604.76M-.86,174.78h1604.76M-.86,211.9h1604.76M-.86,249.02h1604.76M-.86,286.13h1604.76M-.86,360.37h1604.76M-.86,398.57h1604.76M-.86,435.69h1604.76M-.86,472.81h1604.76M-.86,547.04h1604.76M-.86,584.16h1604.76M-.86,621.28h1604.76M-.86,659.49h1604.76M-.86,733.72h1604.76M-.86,770.84h1604.76M-.86,807.95h1604.76M-.86,845.07h1604.76M-.86,920.4h1604.76M-.86,957.51h1604.76M-.86,994.63h1604.76"/>
          <path class="uuid-be9b64b8-cc5a-4109-8497-81888735c0e2" d="m803.15,18.13v986.87"/>
          <path class="uuid-1e3b2f52-4ef8-467d-97fc-470849d23df6" d="m803.17,17.03l-5.46,21.83h10.92"/>
          <path class="uuid-be9b64b8-cc5a-4109-8497-81888735c0e2" d="m-1.41,510.47h1601.49"/>
          <path class="uuid-1e3b2f52-4ef8-467d-97fc-470849d23df6" d="m1601.17,509.97l-21.83-5.46v10.92"/>
          <text class="uuid-7b89b7cb-b94e-4602-b1d4-e99203799925" transform="translate(44.44 526.85)"><tspan x="0" y="0">–5π / 2</tspan></text>
          <text class="uuid-8c57eae7-eae4-49b3-8bd7-ec13da22e874" transform="translate(44.44 526.85)"><tspan x="0" y="0">–5π / 2</tspan></text>
          <text class="uuid-7b89b7cb-b94e-4602-b1d4-e99203799925" transform="translate(44.44 526.85)"><tspan x="0" y="0">–5π / 2</tspan></text>
          <text class="uuid-7b89b7cb-b94e-4602-b1d4-e99203799925" transform="translate(206.01 526.85)"><tspan x="0" y="0">–2π</tspan></text>
          <text class="uuid-8c57eae7-eae4-49b3-8bd7-ec13da22e874" transform="translate(206.01 526.85)"><tspan x="0" y="0">–2π</tspan></text>
          <text class="uuid-7b89b7cb-b94e-4602-b1d4-e99203799925" transform="translate(206.01 526.85)"><tspan x="0" y="0">–2π</tspan></text>
          <text class="uuid-7b89b7cb-b94e-4602-b1d4-e99203799925" transform="translate(337.01 526.85)"><tspan x="0" y="0">–3π / 2</tspan></text>
          <text class="uuid-8c57eae7-eae4-49b3-8bd7-ec13da22e874" transform="translate(337.01 526.85)"><tspan x="0" y="0">–3π / 2</tspan></text>
          <text class="uuid-7b89b7cb-b94e-4602-b1d4-e99203799925" transform="translate(337.01 526.85)"><tspan x="0" y="0">–3π / 2</tspan></text>
          <text class="uuid-7b89b7cb-b94e-4602-b1d4-e99203799925" transform="translate(502.94 526.85)"><tspan x="0" y="0">–π</tspan></text>
          <text class="uuid-8c57eae7-eae4-49b3-8bd7-ec13da22e874" transform="translate(502.94 526.85)"><tspan x="0" y="0">–π</tspan></text>
          <text class="uuid-7b89b7cb-b94e-4602-b1d4-e99203799925" transform="translate(502.94 526.85)"><tspan x="0" y="0">–π</tspan></text>
          <text class="uuid-7b89b7cb-b94e-4602-b1d4-e99203799925" transform="translate(633.94 526.85)"><tspan x="0" y="0">–π / 2</tspan></text>
          <text class="uuid-8c57eae7-eae4-49b3-8bd7-ec13da22e874" transform="translate(633.94 526.85)"><tspan x="0" y="0">–π / 2</tspan></text>
          <text class="uuid-7b89b7cb-b94e-4602-b1d4-e99203799925" transform="translate(633.94 526.85)"><tspan x="0" y="0">–π / 2</tspan></text>
          <text class="uuid-7b89b7cb-b94e-4602-b1d4-e99203799925" transform="translate(930.88 526.85)"><tspan x="0" y="0">π / 2</tspan></text>
          <text class="uuid-8c57eae7-eae4-49b3-8bd7-ec13da22e874" transform="translate(930.88 526.85)"><tspan x="0" y="0">π / 2</tspan></text>
          <text class="uuid-7b89b7cb-b94e-4602-b1d4-e99203799925" transform="translate(930.88 526.85)"><tspan x="0" y="0">π / 2</tspan></text>
          <text class="uuid-7b89b7cb-b94e-4602-b1d4-e99203799925" transform="translate(1092.45 526.85)"><tspan x="0" y="0">π</tspan></text>
          <text class="uuid-8c57eae7-eae4-49b3-8bd7-ec13da22e874" transform="translate(1092.45 526.85)"><tspan x="0" y="0">π</tspan></text>
          <text class="uuid-7b89b7cb-b94e-4602-b1d4-e99203799925" transform="translate(1092.45 526.85)"><tspan x="0" y="0">π</tspan></text>
          <text class="uuid-7b89b7cb-b94e-4602-b1d4-e99203799925" transform="translate(1219.08 526.85)"><tspan x="0" y="0">3π / 2</tspan></text>
          <text class="uuid-8c57eae7-eae4-49b3-8bd7-ec13da22e874" transform="translate(1219.08 526.85)"><tspan x="0" y="0">3π / 2</tspan></text>
          <text class="uuid-7b89b7cb-b94e-4602-b1d4-e99203799925" transform="translate(1219.08 526.85)"><tspan x="0" y="0">3π / 2</tspan></text>
          <text class="uuid-7b89b7cb-b94e-4602-b1d4-e99203799925" transform="translate(1381.74 526.85)"><tspan x="0" y="0">2π</tspan></text>
          <text class="uuid-8c57eae7-eae4-49b3-8bd7-ec13da22e874" transform="translate(1381.74 526.85)"><tspan x="0" y="0">2π</tspan></text>
          <text class="uuid-7b89b7cb-b94e-4602-b1d4-e99203799925" transform="translate(1381.74 526.85)"><tspan x="0" y="0">2π</tspan></text>
          <text class="uuid-7b89b7cb-b94e-4602-b1d4-e99203799925" transform="translate(1511.65 526.85)"><tspan x="0" y="0">5π / 2</tspan></text>
          <text class="uuid-8c57eae7-eae4-49b3-8bd7-ec13da22e874" transform="translate(1511.65 526.85)"><tspan x="0" y="0">5π / 2</tspan></text>
          <text class="uuid-7b89b7cb-b94e-4602-b1d4-e99203799925" transform="translate(1511.65 526.85)"><tspan x="0" y="0">5π / 2</tspan></text>
          <text class="uuid-7b89b7cb-b94e-4602-b1d4-e99203799925" transform="translate(781.32 888.19)"><tspan x="0" y="0">–2</tspan></text>
          <text class="uuid-8c57eae7-eae4-49b3-8bd7-ec13da22e874" transform="translate(781.32 888.19)"><tspan x="0" y="0">–2</tspan></text>
          <text class="uuid-7b89b7cb-b94e-4602-b1d4-e99203799925" transform="translate(781.32 888.19)"><tspan x="0" y="0">–2</tspan></text>
          <text class="uuid-7b89b7cb-b94e-4602-b1d4-e99203799925" transform="translate(781.32 701.51)"><tspan x="0" y="0">–1</tspan></text>
          <text class="uuid-8c57eae7-eae4-49b3-8bd7-ec13da22e874" transform="translate(781.32 701.51)"><tspan x="0" y="0">–1</tspan></text>
          <text class="uuid-7b89b7cb-b94e-4602-b1d4-e99203799925" transform="translate(781.32 701.51)"><tspan x="0" y="0">–1</tspan></text>
          <text class="uuid-7b89b7cb-b94e-4602-b1d4-e99203799925" transform="translate(787.87 328.16)"><tspan x="0" y="0">1</tspan></text>
          <text class="uuid-8c57eae7-eae4-49b3-8bd7-ec13da22e874" transform="translate(787.87 328.16)"><tspan x="0" y="0">1</tspan></text>
          <text class="uuid-7b89b7cb-b94e-4602-b1d4-e99203799925" transform="translate(787.87 328.16)"><tspan x="0" y="0">1</tspan></text>
          <text class="uuid-7b89b7cb-b94e-4602-b1d4-e99203799925" transform="translate(787.87 142.58)"><tspan x="0" y="0">2</tspan></text>
          <text class="uuid-8c57eae7-eae4-49b3-8bd7-ec13da22e874" transform="translate(787.87 142.58)"><tspan x="0" y="0">2</tspan></text>
          <text class="uuid-7b89b7cb-b94e-4602-b1d4-e99203799925" transform="translate(787.87 142.58)"><tspan x="0" y="0">2</tspan></text>
          <text class="uuid-7b89b7cb-b94e-4602-b1d4-e99203799925" transform="translate(787.87 526.85)"><tspan x="0" y="0">0</tspan></text>
          <text class="uuid-8c57eae7-eae4-49b3-8bd7-ec13da22e874" transform="translate(787.87 526.85)"><tspan x="0" y="0">0</tspan></text>
          <text class="uuid-7b89b7cb-b94e-4602-b1d4-e99203799925" transform="translate(787.87 526.85)"><tspan x="0" y="0">0</tspan></text>
          <path class="uuid-8821894a-ad6b-44eb-9b5d-534e84872ee0" d="m-.32,316.37v4.48-4.48l1.09-4.59h0l1.09-4.71h0l1.09-4.83h0l1.09-4.96h0l1.09-5.09h0l1.09-5.24h0l1.09-5.38h0l1.09-5.54h0l1.09-5.71h0l1.09-5.88h0l1.09-6.06h0l1.09-6.26h0l1.09-6.47h0l1.09-6.68h0l1.09-6.92h0l1.09-7.16h0l1.09-7.42h0l1.09-7.7h0l1.09-8h0l1.09-8.31h0l1.09-8.65h0l1.09-9.01h0l1.09-9.4h0l1.09-9.81h0l1.09-10.26h0l1.09-10.74h0l1.09-11.26h0l1.09-11.81h0l1.09-12.42h0l1.09-13.08h0l1.09-13.79h0l1.09-14.57h0l1.09-15.42h0l1.09-16.35h0l1.09-17.37h0l.46-7.77m34.01,1016.35h31.54l.58-9.69h0l1.09-17.25h0l1.09-16.24h0l1.09-15.32h0l1.09-14.48h0l1.09-13.71h0l1.09-13h0l1.09-12.35h0l1.09-11.75h0l1.09-11.2h0l1.09-10.68h0l1.09-10.21h0l1.09-9.76h0l1.09-9.35h0l1.09-8.97h0l1.09-8.61h0l1.09-8.28h0l1.09-7.96h0l1.09-7.67h0l1.09-7.39h0l1.09-7.13h0l1.09-6.89h0l1.09-6.66h0l1.09-6.44h0l1.09-6.24h0l1.09-6.04h0l1.09-5.86h0l1.09-5.69h0l1.09-5.52h0l1.09-5.37h0l1.09-5.22h0l1.09-5.08h0l1.09-4.94h0l1.09-4.82h0l1.09-4.7h0l1.09-4.58h0l1.09-4.47h0l1.09-4.37h0l1.09-4.27h0l1.09-4.17h0l1.09-4.08h0l1.09-3.99h0l1.09-3.91h0l1.09-3.83h0l1.09-3.75h0l1.09-3.68h0l1.09-3.61h0l1.09-3.54h0l1.09-3.48h0l1.09-3.42h0l1.09-3.36h0l1.09-3.3h0l1.09-3.25h0l1.09-3.2h0l1.09-3.15h0l1.09-3.1h0l1.09-3.05h0l1.09-3.01h0l1.09-2.97h0l1.09-2.93h0l1.09-2.89h0l1.09-2.85h0l1.09-2.81h0l1.09-2.78h0l1.09-2.74h0l1.09-2.71h0l1.09-2.68h0l1.09-2.65h0l1.09-2.62h0l1.09-2.6h0l1.09-2.57h0l1.09-2.55h0l1.09-2.52h0l1.09-2.5h0l1.09-2.48h0l1.09-2.46h0l1.09-2.44h0l1.09-2.42h0l1.09-2.4h0l1.09-2.38h0l1.09-2.37h0l1.09-2.35h0l1.09-2.34h0l1.09-2.32h0l1.09-2.31h0l1.09-2.3h0l1.09-2.28h0l1.09-2.27h0l1.09-2.26h0l1.09-2.25h0l1.09-2.24h0l1.09-2.24h0l1.09-2.23h0l1.09-2.22h0l1.09-2.21h0l1.09-2.21h0l1.09-2.2h0l1.09-2.2h0l1.09-2.19h0l1.09-2.19h0l1.09-2.19h0l1.09-2.19h0l1.09-2.18h0l1.09-2.18h0l1.09-2.18h0l1.09-2.18h0l1.09-2.18h0l1.09-2.19h0l1.09-2.19h0l1.09-2.19h0l1.09-2.19h0l1.09-2.2h0l1.09-2.2h0l1.09-2.21h0l1.09-2.21h0l1.09-2.22h0l1.09-2.23h0l1.09-2.23h0l1.09-2.24h0l1.09-2.25h0l1.09-2.26h0l1.09-2.27h0l1.09-2.28h0l1.09-2.29h0l1.09-2.31h0l1.09-2.32h0l1.09-2.33h0l1.09-2.35h0l1.09-2.36h0l1.09-2.38h0l1.09-2.4h0l1.09-2.42h0l1.09-2.43h0l1.09-2.45h0l1.09-2.48h0l1.09-2.5h0l1.09-2.52h0l1.09-2.54h0l1.09-2.57h0l1.09-2.59h0l1.09-2.62h0l1.09-2.65h0l1.09-2.68h0l1.09-2.71h0l1.09-2.74h0l1.09-2.77h0l1.09-2.81h0l1.09-2.84h0l1.09-2.88h0l1.09-2.92h0l1.09-2.96h0l1.09-3h0l1.09-3.05h0l1.09-3.09h0l1.09-3.14h0l1.09-3.19h0l1.09-3.24h0l1.09-3.3h0l1.09-3.35h0l1.09-3.41h0l1.09-3.47h0l1.09-3.54h0l1.09-3.6h0l1.09-3.67h0l1.09-3.75h0l1.09-3.82h0l1.09-3.9h0l1.09-3.98h0l1.09-4.07h0l1.09-4.16h0l1.09-4.26h0l1.09-4.36h0l1.09-4.46h0l1.09-4.57h0l1.09-4.68h0l1.09-4.8h0l1.09-4.93h0l1.09-5.06h0l1.09-5.2h0l1.09-5.35h0l1.09-5.5h0l1.09-5.67h0l1.09-5.84h0l1.09-6.02h0l1.09-6.21h0l1.09-6.42h0l1.09-6.63h0l1.09-6.86h0l1.09-7.1h0l1.09-7.36h0l1.09-7.64h0l1.09-7.93h0l1.09-8.24h0l1.09-8.57h0l1.09-8.93h0l1.09-9.31h0l1.09-9.72h0l1.09-10.15h0l1.09-10.63h0l1.09-11.13h0l1.09-11.68h0l1.09-12.28h0l1.09-12.92h0l1.09-13.62h0l1.09-14.38h0l1.09-15.22h0l1.09-16.13h0l1.09-17.13h0l.71-11.82m33.52,1016.35h32.03l.33-5.6h0l1.09-17.5h0l1.09-16.46h0l1.09-15.52h0l1.09-14.66h0l1.09-13.88h0l1.09-13.16h0l1.09-12.49h0l1.09-11.88h0l1.09-11.32h0l1.09-10.8h0l1.09-10.31h0l1.09-9.86h0l1.09-9.44h0l1.09-9.05h0l1.09-8.69h0l1.09-8.35h0l1.09-8.03h0l1.09-7.73h0l1.09-7.45h0l1.09-7.19h0l1.09-6.94h0l1.09-6.71h0l1.09-6.49h0l1.09-6.28h0l1.09-6.09h0l1.09-5.9h0l1.09-5.73h0l1.09-5.56h0l1.09-5.4h0l1.09-5.25h0l1.09-5.11h0l1.09-4.97h0l1.09-4.85h0l1.09-4.72h0l1.09-4.61h0l1.09-4.5h0l1.09-4.39h0l1.09-4.29h0l1.09-4.19h0l1.09-4.1h0l1.09-4.01h0l1.09-3.93h0l1.09-3.85h0l1.09-3.77h0l1.09-3.7h0l1.09-3.63h0l1.09-3.56h0l1.09-3.49h0l1.09-3.43h0l1.09-3.37h0l1.09-3.32h0l1.09-3.26h0l1.09-3.21h0l1.09-3.16h0l1.09-3.11h0l1.09-3.06h0l1.09-3.02h0l1.09-2.98h0l1.09-2.93h0l1.09-2.89h0l1.09-2.86h0l1.09-2.82h0l1.09-2.79h0l1.09-2.75h0l1.09-2.72h0l1.09-2.69h0l1.09-2.66h0l1.09-2.63h0l1.09-2.6h0l1.09-2.58h0l1.09-2.55h0l1.09-2.53h0l1.09-2.5h0l1.09-2.48h0l1.09-2.46h0l1.09-2.44h0l1.09-2.42h0l1.09-2.4h0l1.09-2.39h0l1.09-2.37h0l1.09-2.35h0l1.09-2.34h0l1.09-2.32h0l1.09-2.31h0l1.09-2.3h0l1.09-2.29h0l1.09-2.28h0l1.09-2.26h0l1.09-2.25h0l1.09-2.25h0l1.09-2.24h0l1.09-2.23h0l1.09-2.22h0l1.09-2.22h0l1.09-2.21h0l1.09-2.2h0l1.09-2.2h0l1.09-2.2h0l1.09-2.19h0l1.09-2.19h0l1.09-2.19h0l1.09-2.18h0l1.09-2.18h0l1.09-2.18h0s1.09-2.18,1.09-2.18h0l1.09-2.18h0l1.09-2.19h0l1.09-2.19h0l1.09-2.19h0l1.09-2.19h0l1.09-2.2h0l1.09-2.2h0l1.09-2.21h0l1.09-2.21h0l1.09-2.22h0l1.09-2.23h0l1.09-2.23h0l1.09-2.24h0l1.09-2.25h0l1.09-2.26h0l1.09-2.27h0l1.09-2.28h0l1.09-2.29h0l1.09-2.3h0l1.09-2.32h0l1.09-2.33h0l1.09-2.35h0l1.09-2.36h0l1.09-2.38h0l1.09-2.39h0l1.09-2.41h0l1.09-2.43h0l1.09-2.45h0l1.09-2.47h0l1.09-2.49h0l1.09-2.51h0l1.09-2.54h0l1.09-2.56h0l1.09-2.59h0l1.09-2.61h0l1.09-2.64h0l1.09-2.67h0l1.09-2.7h0l1.09-2.73h0l1.09-2.77h0l1.09-2.8h0l1.09-2.84h0l1.09-2.87h0l1.09-2.91h0l1.09-2.95h0l1.09-2.99h0l1.09-3.04h0l1.09-3.08h0l1.09-3.13h0l1.09-3.18h0l1.09-3.23h0l1.09-3.28h0l1.09-3.34h0l1.09-3.4h0l1.09-3.46h0l1.09-3.52h0l1.09-3.59h0l1.09-3.66h0l1.09-3.73h0l1.09-3.8h0l1.09-3.88h0l1.09-3.96h0l1.09-4.05h0l1.09-4.14h0l1.09-4.23h0l1.09-4.33h0l1.09-4.44h0l1.09-4.54h0l1.09-4.66h0l1.09-4.78h0l1.09-4.9h0l1.09-5.03h0l1.09-5.17h0l1.09-5.32h0l1.09-5.47h0l1.09-5.63h0l1.09-5.8h0l1.09-5.98h0l1.09-6.17h0l1.09-6.37h0l1.09-6.58h0l1.09-6.81h0l1.09-7.05h0l1.09-7.3h0l1.09-7.57h0l1.09-7.86h0l1.09-8.17h0l1.09-8.49h0l1.09-8.84h0l1.09-9.22h0l1.09-9.62h0l1.09-10.05h0l1.09-10.51h0l1.09-11.01h0l1.09-11.55h0l1.09-12.14h0l1.09-12.77h0l1.09-13.46h0l1.09-14.2h0l1.09-15.02h0l1.09-15.91h0l1.09-16.89h0l.96-15.82m33.02,1016.35h32.52l.08-1.46h0l1.09-17.75h0l1.09-16.69h0l1.09-15.73h0l1.09-14.85h0l1.09-14.05h0l1.09-13.31h0l1.09-12.64h0l1.09-12.02h0l1.09-11.44h0l1.09-10.91h0l1.09-10.42h0l1.09-9.96h0l1.09-9.54h0l1.09-9.14h0l1.09-8.77h0l1.09-8.43h0l1.09-8.1h0l1.09-7.8h0l1.09-7.52h0l1.09-7.25h0l1.09-7h0l1.09-6.76h0l1.09-6.54h0l1.09-6.33h0l1.09-6.13h0l1.09-5.94h0l1.09-5.77h0l1.09-5.6h0l1.09-5.44h0l1.09-5.29h0l1.09-5.14h0l1.09-5h0l1.09-4.88h0l1.09-4.75h0l1.09-4.63h0l1.09-4.52h0l1.09-4.41h0l1.09-4.31h0l1.09-4.21h0l1.09-4.12h0l1.09-4.03h0l1.09-3.95h0l1.09-3.87h0l1.09-3.79h0l1.09-3.71h0l1.09-3.64h0l1.09-3.57h0l1.09-3.51h0l1.09-3.45h0l1.09-3.39h0l1.09-3.33h0l1.09-3.27h0l1.09-3.22h0l1.09-3.17h0l1.09-3.12h0l1.09-3.07h0l1.09-3.03h0l1.09-2.99h0l1.09-2.94h0l1.09-2.9h0l1.09-2.87h0l1.09-2.83h0l1.09-2.79h0l1.09-2.76h0l1.09-2.73h0l1.09-2.7h0l1.09-2.67h0l1.09-2.64h0l1.09-2.61h0l1.09-2.58h0l1.09-2.56h0l1.09-2.53h0l1.09-2.51h0l1.09-2.49h0l1.09-2.47h0l1.09-2.45h0l1.09-2.43h0l1.09-2.41h0l1.09-2.39h0l1.09-2.37h0l1.09-2.36h0l1.09-2.34h0l1.09-2.33h0l1.09-2.31h0l1.09-2.3h0l1.09-2.29h0l1.09-2.28h0l1.09-2.27h0l1.09-2.26h0l1.09-2.25h0l1.09-2.24h0l1.09-2.23h0l1.09-2.22h0l1.09-2.22h0l1.09-2.21h0l1.09-2.21h0l1.09-2.2h0l1.09-2.2h0l1.09-2.19h0l1.09-2.19h0l1.09-2.19h0l1.09-2.19h0l1.09-2.18h0l1.09-2.18h0l1.09-2.18h0l1.09-2.18h0l1.09-2.19h0l1.09-2.19h0l1.09-2.19h0l1.09-2.19h0l1.09-2.2h0l1.09-2.2h0l1.09-2.21h0l1.09-2.21h0l1.09-2.22h0l1.09-2.22h0l1.09-2.23h0l1.09-2.24h0l1.09-2.25h0l1.09-2.26h0l1.09-2.27h0l1.09-2.28h0l1.09-2.29h0l1.09-2.3h0l1.09-2.31h0l1.09-2.33h0l1.09-2.34h0l1.09-2.36h0l1.09-2.37h0l1.09-2.39h0l1.09-2.41h0l1.09-2.43h0l1.09-2.45h0l1.09-2.47h0l1.09-2.49h0l1.09-2.51h0l1.09-2.53h0l1.09-2.56h0l1.09-2.58h0l1.09-2.61h0l1.09-2.64h0l1.09-2.66h0l1.09-2.69h0l1.09-2.73h0l1.09-2.76h0l1.09-2.79h0l1.09-2.83h0l1.09-2.86h0l1.09-2.9h0l1.09-2.94h0l1.09-2.98h0l1.09-3.03h0l1.09-3.07h0l1.09-3.12h0l1.09-3.17h0l1.09-3.22h0l1.09-3.27h0l1.09-3.33h0l1.09-3.38h0l1.09-3.44h0l1.09-3.51h0l1.09-3.57h0l1.09-3.64h0l1.09-3.71h0l1.09-3.79h0l1.09-3.86h0l1.09-3.95h0l1.09-4.03h0l1.09-4.12h0l1.09-4.21h0l1.09-4.31h0l1.09-4.41h0l1.09-4.52h0l1.09-4.63h0l1.09-4.75h0l1.09-4.87h0l1.09-5h0l1.09-5.14h0l1.09-5.28h0l1.09-5.43h0l1.09-5.59h0l1.09-5.76h0l1.09-5.94h0l1.09-6.13h0l1.09-6.32h0l1.09-6.53h0l1.09-6.76h0l1.09-6.99h0l1.09-7.24h0l1.09-7.51h0l1.09-7.79h0l1.09-8.09h0l1.09-8.42h0l1.09-8.76h0l1.09-9.13h0l1.09-9.53h0l1.09-9.95h0l1.09-10.41h0l1.09-10.9h0l1.09-11.43h0l1.09-12h0l1.09-12.62h0l1.09-13.29h0l1.09-14.03h0l1.09-14.83h0l1.09-15.7h0l1.09-16.66h0l1.09-17.72h0l.12-2.05m34.68,1016.35h30.87l.92-15.25h0l1.09-16.92h0l1.09-15.94h0l1.09-15.05h0l1.09-14.23h0l1.09-13.48h0l1.09-12.79h0l1.09-12.15h0l1.09-11.57h0l1.09-11.03h0l1.09-10.53h0l1.09-10.06h0l1.09-9.63h0l1.09-9.23h0l1.09-8.85h0l1.09-8.5h0l1.09-8.18h0l1.09-7.87h0l1.09-7.58h0l1.09-7.31h0l1.09-7.05h0l1.09-6.82h0l1.09-6.59h0l1.09-6.38h0l1.09-6.18h0l1.09-5.98h0l1.09-5.8h0l1.09-5.63h0l1.09-5.47h0l1.09-5.32h0l1.09-5.17h0l1.09-5.04h0l1.09-4.9h0l1.09-4.78h0l1.09-4.66h0l1.09-4.55h0l1.09-4.44h0l1.09-4.33h0l1.09-4.24h0l1.09-4.14h0l1.09-4.05h0l1.09-3.97h0l1.09-3.88h0l1.09-3.81h0l1.09-3.73h0l1.09-3.66h0l1.09-3.59h0l1.09-3.52h0l1.09-3.46h0l1.09-3.4h0l1.09-3.34h0l1.09-3.29h0l1.09-3.23h0l1.09-3.18h0l1.09-3.13h0l1.09-3.08h0l1.09-3.04h0l1.09-2.99h0l1.09-2.95h0l1.09-2.91h0l1.09-2.87h0l1.09-2.84h0l1.09-2.8h0l1.09-2.77h0l1.09-2.73h0l1.09-2.7h0l1.09-2.67h0l1.09-2.64h0l1.09-2.62h0l1.09-2.59h0l1.09-2.56h0l1.09-2.54h0l1.09-2.52h0l1.09-2.49h0l1.09-2.47h0l1.09-2.45h0l1.09-2.43h0l1.09-2.41h0l1.09-2.39h0l1.09-2.38h0l1.09-2.36h0l1.09-2.35h0l1.09-2.33h0l1.09-2.32h0l1.09-2.3h0l1.09-2.29h0l1.09-2.28h0l1.09-2.27h0l1.09-2.26h0l1.09-2.25h0l1.09-2.24h0l1.09-2.23h0l1.09-2.23h0l1.09-2.22h0l1.09-2.21h0l1.09-2.21h0l1.09-2.2h0l1.09-2.2h0l1.09-2.19h0l1.09-2.19h0l1.09-2.19h0l1.09-2.19h0l1.09-2.18h0l1.09-2.18h0l1.09-2.18h0l1.09-2.18h0l1.09-2.18h0l1.09-2.19h0l1.09-2.19h0l1.09-2.19h0l1.09-2.2h0l1.09-2.2h0l1.09-2.2h0l1.09-2.21h0l1.09-2.22h0l1.09-2.22h0l1.09-2.23h0l1.09-2.24h0l1.09-2.25h0l1.09-2.25h0l1.09-2.26h0l1.09-2.28h0l1.09-2.29h0l1.09-2.3h0l1.09-2.31h0l1.09-2.32h0l1.09-2.34h0l1.09-2.35h0l1.09-2.37h0l1.09-2.39h0l1.09-2.4h0l1.09-2.42h0l1.09-2.44h0l1.09-2.46h0l1.09-2.48h0l1.09-2.5h0l1.09-2.53h0l1.09-2.55h0l1.09-2.58h0l1.09-2.6h0l1.09-2.63h0l1.09-2.66h0l1.09-2.69h0l1.09-2.72h0l1.09-2.75h0l1.09-2.78h0l1.09-2.82h0l1.09-2.86h0l1.09-2.89h0l1.09-2.93h0l1.09-2.97h0l1.09-3.02h0l1.09-3.06h0l1.09-3.11h0l1.09-3.16h0l1.09-3.21h0l1.09-3.26h0l1.09-3.31h0l1.09-3.37h0l1.09-3.43h0l1.09-3.49h0l1.09-3.56h0l1.09-3.62h0l1.09-3.7h0l1.09-3.77h0l1.09-3.85h0l1.09-3.93h0l1.09-4.01h0l1.09-4.1h0l1.09-4.19h0l1.09-4.29h0l1.09-4.39h0l1.09-4.49h0l1.09-4.6h0l1.09-4.72h0l1.09-4.84h0l1.09-4.97h0l1.09-5.11h0l1.09-5.25h0l1.09-5.4h0l1.09-5.55h0l1.09-5.72h0l1.09-5.9h0l1.09-6.08h0l1.09-6.28h0l1.09-6.48h0l1.09-6.7h0l1.09-6.94h0l1.09-7.18h0l1.09-7.45h0l1.09-7.73h0l1.09-8.02h0l1.09-8.34h0l1.09-8.68h0l1.09-9.04h0l1.09-9.43h0l1.09-9.85h0l1.09-10.3h0l1.09-10.78h0l1.09-11.3h0l1.09-11.87h0l1.09-12.47h0l1.09-13.14h0l1.09-13.86h0l1.09-14.64h0l1.09-15.5h0l1.09-16.44h0l1.09-17.47h0l.36-6.19m34.2,1016.35h31.35l.67-11.25h0l1.09-17.16h0l1.09-16.16h0l1.09-15.24h0l1.09-14.41h0l1.09-13.64h0l1.09-12.94h0l1.09-12.29h0l1.09-11.7h0l1.09-11.15h0l1.09-10.64h0l1.09-10.17h0l1.09-9.73h0l1.09-9.32h0l1.09-8.94h0l1.09-8.58h0l1.09-8.25h0l1.09-7.94h0l1.09-7.64h0l1.09-7.37h0l1.09-7.11h0l1.09-6.87h0l1.09-6.64h0l1.09-6.42h0l1.09-6.22h0l1.09-6.03h0l1.09-5.85h0l1.09-5.67h0l1.09-5.51h0l1.09-5.35h0l1.09-5.21h0l1.09-5.07h0l1.09-4.93h0l1.09-4.81h0l1.09-4.69h0l1.09-4.57h0l1.09-4.46h0l1.09-4.36h0l1.09-4.26h0l1.09-4.16h0l1.09-4.07h0l1.09-3.99h0l1.09-3.9h0l1.09-3.82h0l1.09-3.75h0l1.09-3.67h0l1.09-3.61h0l1.09-3.54h0l1.09-3.47h0l1.09-3.41h0l1.09-3.35h0l1.09-3.3h0l1.09-3.24h0l1.09-3.19h0l1.09-3.14h0l1.09-3.09h0l1.09-3.05h0l1.09-3h0l1.09-2.96h0l1.09-2.92h0l1.09-2.88h0l1.09-2.85h0l1.09-2.81h0l1.09-2.77h0l1.09-2.74h0l1.09-2.71h0l1.09-2.68h0l1.09-2.65h0l1.09-2.62h0l1.09-2.59h0l1.09-2.57h0l1.09-2.54h0l1.09-2.52h0l1.09-2.5h0l1.09-2.48h0l1.09-2.46h0l1.09-2.44h0l1.09-2.42h0l1.09-2.4h0l1.09-2.38h0l1.09-2.36h0l1.09-2.35h0l1.09-2.33h0l1.09-2.32h0l1.09-2.31h0l1.09-2.29h0l1.09-2.28h0l1.09-2.27h0l1.09-2.26h0l1.09-2.25h0l1.09-2.24h0l1.09-2.23h0l1.09-2.23h0l1.09-2.22h0l1.09-2.21h0l1.09-2.21h0l1.09-2.2h0l1.09-2.2h0l1.09-2.19h0l1.09-2.19h0l1.09-2.19h0l1.09-2.19h0l1.09-2.18h0l1.09-2.18h0l1.09-2.18h0l1.09-2.18h0l1.09-2.18h0l1.09-2.19h0l1.09-2.19h0l1.09-2.19h0l1.09-2.19h0l1.09-2.2h0l1.09-2.2h0l1.09-2.21h0l1.09-2.21h0l1.09-2.22h0l1.09-2.23h0l1.09-2.24h0l1.09-2.24h0l1.09-2.25h0l1.09-2.26h0l1.09-2.27h0l1.09-2.28h0l1.09-2.3h0l1.09-2.31h0l1.09-2.32h0l1.09-2.34h0l1.09-2.35h0l1.09-2.37h0l1.09-2.38h0l1.09-2.4h0l1.09-2.42h0l1.09-2.44h0l1.09-2.46h0l1.09-2.48h0l1.09-2.5h0l1.09-2.52h0l1.09-2.55h0l1.09-2.57h0l1.09-2.6h0l1.09-2.62h0l1.09-2.65h0l1.09-2.68h0l1.09-2.71h0l1.09-2.74h0l1.09-2.78h0l1.09-2.81h0l1.09-2.85h0l1.09-2.89h0l1.09-2.92h0l1.09-2.96h0l1.09-3.01h0l1.09-3.05h0l1.09-3.1h0l1.09-3.15h0l1.09-3.2h0l1.09-3.25h0l1.09-3.3h0l1.09-3.36h0l1.09-3.42h0l1.09-3.48h0l1.09-3.54h0l1.09-3.61h0l1.09-3.68h0l1.09-3.75h0l1.09-3.83h0l1.09-3.91h0l1.09-3.99h0l1.09-4.08h0l1.09-4.17h0l1.09-4.26h0l1.09-4.36h0l1.09-4.47h0l1.09-4.58h0l1.09-4.69h0l1.09-4.81h0l1.09-4.94h0l1.09-5.07h0l1.09-5.21h0l1.09-5.36h0l1.09-5.52h0l1.09-5.68h0l1.09-5.86h0l1.09-6.04h0l1.09-6.23h0l1.09-6.44h0l1.09-6.65h0l1.09-6.88h0l1.09-7.13h0l1.09-7.39h0l1.09-7.66h0l1.09-7.95h0l1.09-8.27h0l1.09-8.6h0l1.09-8.96h0l1.09-9.34h0l1.09-9.75h0l1.09-10.19h0l1.09-10.67h0l1.09-11.18h0l1.09-11.73h0l1.09-12.33h0l1.09-12.98h0l1.09-13.69h0l1.09-14.45h0l1.09-15.29h0l1.09-16.21h0l1.09-17.22h0l.61-10.27m33.71,1016.35h31.84l.42-7.18h0l1.09-17.4h0l1.09-16.38h0l1.09-15.44h0l1.09-14.59h0l1.09-13.81h0l1.09-13.1h0l1.09-12.44h0l1.09-11.83h0l1.09-11.27h0l1.09-10.75h0l1.09-10.27h0l1.09-9.82h0l1.09-9.41h0l1.09-9.02h0l1.09-8.66h0l1.09-8.32h0l1.09-8.01h0l1.09-7.71h0l1.09-7.43h0l1.09-7.17h0l1.09-6.92h0l1.09-6.69h0l1.09-6.47h0l1.09-6.27h0l1.09-6.07h0l1.09-5.89h0l1.09-5.71h0l1.09-5.55h0l1.09-5.39h0l1.09-5.24h0l1.09-5.1h0l1.09-4.96"/>
          <text class="uuid-153c0259-eb37-4537-8591-4d9f7ef4942f" transform="translate(7.32 281.22)"><tspan x="0" y="0">h</tspan></text>
          <text class="uuid-5c5ca1b0-e036-48cd-b2bd-4b9ded697f00" transform="translate(7.32 281.22)"><tspan x="0" y="0">h</tspan></text>
          <text class="uuid-153c0259-eb37-4537-8591-4d9f7ef4942f" transform="translate(7.32 281.22)"><tspan x="0" y="0">h</tspan></text>
        </g>
      </g>
    </g>
  </g>
  <g id="uuid-7d3beedb-5b84-4bdd-bd65-7fdb1cf1e502" data-name="Marco">
    <path class="uuid-e176dbb4-c42c-4a63-8137-ad6155b834aa" d="m0-2V1022h1617.3V-2H0Zm1600.3,987c0,11.05-8.95,20-20,20H37c-11.05,0-20-8.95-20-20V35c0-11.05,8.95-20,20-20h1543.3c11.05,0,20,8.95,20,20v950Z"/>
  </g>
</svg>