<?xml version="1.0" encoding="UTF-8"?>
<svg xmlns="http://www.w3.org/2000/svg" width="1245" height="1020" xmlns:xlink="http://www.w3.org/1999/xlink" viewBox="0 0 1245 1020">
  <defs>
    <style>
      .uuid-5a38d7a2-1310-49ca-92b5-42c6c82524f0 {
        fill: #fff;
      }

      .uuid-c7a836be-b571-4848-8fab-dbb2c3fa2cdf {
        stroke: rgba(0, 0, 255, .7);
        stroke-linecap: round;
        stroke-width: 3.94px;
      }

      .uuid-c7a836be-b571-4848-8fab-dbb2c3fa2cdf, .uuid-27877769-2316-49a3-8c07-f9770159966e, .uuid-fe556466-fda9-4dae-8d35-156b5e7e6d21, .uuid-a9f28c5a-9f0e-40a4-bffb-ed93f80ca9a9, .uuid-43d602f9-e9ea-409a-ae05-4733b0aa94e0, .uuid-3bdf7be7-c871-43d0-9f9d-519e050fe0bc, .uuid-3a968318-7d6c-45aa-aa3b-03ce36e8216b {
        fill: none;
      }

      .uuid-c7a836be-b571-4848-8fab-dbb2c3fa2cdf, .uuid-3a968318-7d6c-45aa-aa3b-03ce36e8216b {
        stroke-linejoin: round;
      }

      .uuid-27877769-2316-49a3-8c07-f9770159966e {
        clip-path: url(#uuid-13e78243-0c4d-4a80-9600-14af24ee7f7a);
      }

      .uuid-fe556466-fda9-4dae-8d35-156b5e7e6d21 {
        stroke: #606060;
        stroke-miterlimit: 10;
        stroke-width: 2.25px;
      }

      .uuid-d624434a-d11d-4f4d-bb10-0b52113a29dc {
        fill: #606060;
      }

      .uuid-d624434a-d11d-4f4d-bb10-0b52113a29dc, .uuid-a9f28c5a-9f0e-40a4-bffb-ed93f80ca9a9 {
        font-family: HelveticaNeue-UltraLight, 'Helvetica Neue UltraLight';
        font-size: 13.5px;
        font-weight: 100;
        isolation: isolate;
      }

      .uuid-d5ee6615-d18c-47c1-9142-df251db0a79e {
        fill: #333;
      }

      .uuid-a9f28c5a-9f0e-40a4-bffb-ed93f80ca9a9 {
        stroke: #fff;
        stroke-linejoin: bevel;
        stroke-width: 3.37px;
      }

      .uuid-e5ab1ad6-bba3-4653-94be-8942aefa4bbd {
        fill: #00699b;
      }

      .uuid-3bdf7be7-c871-43d0-9f9d-519e050fe0bc {
        clip-path: url(#uuid-4a1545c5-04e8-498d-a832-7b89b186cf1f);
      }

      .uuid-3a968318-7d6c-45aa-aa3b-03ce36e8216b {
        stroke: rgba(204, 0, 0, .7);
        stroke-dasharray: 0 0 20 20;
        stroke-width: 2px;
      }
    </style>
    <clipPath id="uuid-13e78243-0c4d-4a80-9600-14af24ee7f7a">
      <rect class="uuid-43d602f9-e9ea-409a-ae05-4733b0aa94e0" y="2.61" width="1245" height="1019.39"/>
    </clipPath>
    <clipPath id="uuid-4a1545c5-04e8-498d-a832-7b89b186cf1f">
      <rect class="uuid-43d602f9-e9ea-409a-ae05-4733b0aa94e0" x="-72.49" width="1389.99" height="1020"/>
    </clipPath>
  </defs>
  <g id="uuid-753aaa4d-8171-49eb-aaca-1e6dd73a54cb" data-name="Grafica">
    <g class="uuid-27877769-2316-49a3-8c07-f9770159966e">
      <g class="uuid-3bdf7be7-c871-43d0-9f9d-519e050fe0bc">
        <g>
          <rect class="uuid-5a38d7a2-1310-49ca-92b5-42c6c82524f0" x="-72.49" width="1389.99" height="1020"/>
          <path class="uuid-fe556466-fda9-4dae-8d35-156b5e7e6d21" d="m621.38-1.12v1021.12"/>
          <path class="uuid-fe556466-fda9-4dae-8d35-156b5e7e6d21" d="m-72.49,930.03h1388.86"/>
          <text class="uuid-d624434a-d11d-4f4d-bb10-0b52113a29dc" transform="translate(65.83 948.03)"><tspan x="0" y="0">–4</tspan></text>
          <text class="uuid-a9f28c5a-9f0e-40a4-bffb-ed93f80ca9a9" transform="translate(65.83 948.03)"><tspan x="0" y="0">–4</tspan></text>
          <text class="uuid-d624434a-d11d-4f4d-bb10-0b52113a29dc" transform="translate(65.83 948.03)"><tspan x="0" y="0">–4</tspan></text>
          <path class="uuid-fe556466-fda9-4dae-8d35-156b5e7e6d21" d="m71.45,930.03v3.37"/>
          <text class="uuid-d624434a-d11d-4f4d-bb10-0b52113a29dc" transform="translate(203.03 948.03)"><tspan x="0" y="0">–3</tspan></text>
          <text class="uuid-a9f28c5a-9f0e-40a4-bffb-ed93f80ca9a9" transform="translate(203.03 948.03)"><tspan x="0" y="0">–3</tspan></text>
          <text class="uuid-d624434a-d11d-4f4d-bb10-0b52113a29dc" transform="translate(203.03 948.03)"><tspan x="0" y="0">–3</tspan></text>
          <path class="uuid-fe556466-fda9-4dae-8d35-156b5e7e6d21" d="m208.65,930.03v3.37"/>
          <text class="uuid-d624434a-d11d-4f4d-bb10-0b52113a29dc" transform="translate(340.23 948.03)"><tspan x="0" y="0">–2</tspan></text>
          <text class="uuid-a9f28c5a-9f0e-40a4-bffb-ed93f80ca9a9" transform="translate(340.23 948.03)"><tspan x="0" y="0">–2</tspan></text>
          <text class="uuid-d624434a-d11d-4f4d-bb10-0b52113a29dc" transform="translate(340.23 948.03)"><tspan x="0" y="0">–2</tspan></text>
          <path class="uuid-fe556466-fda9-4dae-8d35-156b5e7e6d21" d="m346.98,930.03v3.37"/>
          <text class="uuid-d624434a-d11d-4f4d-bb10-0b52113a29dc" transform="translate(477.43 948.03)"><tspan x="0" y="0">–1</tspan></text>
          <text class="uuid-a9f28c5a-9f0e-40a4-bffb-ed93f80ca9a9" transform="translate(477.43 948.03)"><tspan x="0" y="0">–1</tspan></text>
          <text class="uuid-d624434a-d11d-4f4d-bb10-0b52113a29dc" transform="translate(477.43 948.03)"><tspan x="0" y="0">–1</tspan></text>
          <path class="uuid-fe556466-fda9-4dae-8d35-156b5e7e6d21" d="m484.18,930.03v3.37"/>
          <path class="uuid-fe556466-fda9-4dae-8d35-156b5e7e6d21" d="m621.38,930.03v3.37"/>
          <text class="uuid-d624434a-d11d-4f4d-bb10-0b52113a29dc" transform="translate(756.33 948.03)"><tspan x="0" y="0">1</tspan></text>
          <text class="uuid-a9f28c5a-9f0e-40a4-bffb-ed93f80ca9a9" transform="translate(756.33 948.03)"><tspan x="0" y="0">1</tspan></text>
          <text class="uuid-d624434a-d11d-4f4d-bb10-0b52113a29dc" transform="translate(756.33 948.03)"><tspan x="0" y="0">1</tspan></text>
          <path class="uuid-fe556466-fda9-4dae-8d35-156b5e7e6d21" d="m758.57,930.03v3.37"/>
          <text class="uuid-d624434a-d11d-4f4d-bb10-0b52113a29dc" transform="translate(893.53 948.03)"><tspan x="0" y="0">2</tspan></text>
          <text class="uuid-a9f28c5a-9f0e-40a4-bffb-ed93f80ca9a9" transform="translate(893.53 948.03)"><tspan x="0" y="0">2</tspan></text>
          <text class="uuid-d624434a-d11d-4f4d-bb10-0b52113a29dc" transform="translate(893.53 948.03)"><tspan x="0" y="0">2</tspan></text>
          <path class="uuid-fe556466-fda9-4dae-8d35-156b5e7e6d21" d="m896.9,930.03v3.37"/>
          <text class="uuid-d624434a-d11d-4f4d-bb10-0b52113a29dc" transform="translate(1030.73 948.03)"><tspan x="0" y="0">3</tspan></text>
          <text class="uuid-a9f28c5a-9f0e-40a4-bffb-ed93f80ca9a9" transform="translate(1030.73 948.03)"><tspan x="0" y="0">3</tspan></text>
          <text class="uuid-d624434a-d11d-4f4d-bb10-0b52113a29dc" transform="translate(1030.73 948.03)"><tspan x="0" y="0">3</tspan></text>
          <path class="uuid-fe556466-fda9-4dae-8d35-156b5e7e6d21" d="m1034.1,930.03v3.37"/>
          <text class="uuid-d624434a-d11d-4f4d-bb10-0b52113a29dc" transform="translate(1169.05 948.03)"><tspan x="0" y="0">4</tspan></text>
          <text class="uuid-a9f28c5a-9f0e-40a4-bffb-ed93f80ca9a9" transform="translate(1169.05 948.03)"><tspan x="0" y="0">4</tspan></text>
          <text class="uuid-d624434a-d11d-4f4d-bb10-0b52113a29dc" transform="translate(1169.05 948.03)"><tspan x="0" y="0">4</tspan></text>
          <path class="uuid-fe556466-fda9-4dae-8d35-156b5e7e6d21" d="m1171.3,930.03v3.37"/>
          <path class="uuid-fe556466-fda9-4dae-8d35-156b5e7e6d21" d="m618,806.33h3.37"/>
          <path class="uuid-fe556466-fda9-4dae-8d35-156b5e7e6d21" d="m618,682.62h3.37"/>
          <path class="uuid-fe556466-fda9-4dae-8d35-156b5e7e6d21" d="m618,558.92h3.37"/>
          <path class="uuid-fe556466-fda9-4dae-8d35-156b5e7e6d21" d="m618,435.21h3.37"/>
          <path class="uuid-fe556466-fda9-4dae-8d35-156b5e7e6d21" d="m618,311.51h3.37"/>
          <path class="uuid-fe556466-fda9-4dae-8d35-156b5e7e6d21" d="m618,187.81h3.37"/>
          <path class="uuid-fe556466-fda9-4dae-8d35-156b5e7e6d21" d="m618,64.1h3.37"/>
          <text class="uuid-d624434a-d11d-4f4d-bb10-0b52113a29dc" transform="translate(587.64 811.95)"><tspan x="0" y="0">0.45</tspan></text>
          <text class="uuid-a9f28c5a-9f0e-40a4-bffb-ed93f80ca9a9" transform="translate(587.64 811.95)"><tspan x="0" y="0">0.45</tspan></text>
          <text class="uuid-d624434a-d11d-4f4d-bb10-0b52113a29dc" transform="translate(587.64 811.95)"><tspan x="0" y="0">0.45</tspan></text>
          <text class="uuid-d624434a-d11d-4f4d-bb10-0b52113a29dc" transform="translate(594.39 688.25)"><tspan x="0" y="0">0.9</tspan></text>
          <text class="uuid-a9f28c5a-9f0e-40a4-bffb-ed93f80ca9a9" transform="translate(594.39 688.25)"><tspan x="0" y="0">0.9</tspan></text>
          <text class="uuid-d624434a-d11d-4f4d-bb10-0b52113a29dc" transform="translate(594.39 688.25)"><tspan x="0" y="0">0.9</tspan></text>
          <text class="uuid-d624434a-d11d-4f4d-bb10-0b52113a29dc" transform="translate(587.64 564.54)"><tspan x="0" y="0">1.35</tspan></text>
          <text class="uuid-a9f28c5a-9f0e-40a4-bffb-ed93f80ca9a9" transform="translate(587.64 564.54)"><tspan x="0" y="0">1.35</tspan></text>
          <text class="uuid-d624434a-d11d-4f4d-bb10-0b52113a29dc" transform="translate(587.64 564.54)"><tspan x="0" y="0">1.35</tspan></text>
          <text class="uuid-d624434a-d11d-4f4d-bb10-0b52113a29dc" transform="translate(594.39 440.84)"><tspan x="0" y="0">1.8</tspan></text>
          <text class="uuid-a9f28c5a-9f0e-40a4-bffb-ed93f80ca9a9" transform="translate(594.39 440.84)"><tspan x="0" y="0">1.8</tspan></text>
          <text class="uuid-d624434a-d11d-4f4d-bb10-0b52113a29dc" transform="translate(594.39 440.84)"><tspan x="0" y="0">1.8</tspan></text>
          <text class="uuid-d624434a-d11d-4f4d-bb10-0b52113a29dc" transform="translate(587.64 317.13)"><tspan x="0" y="0">2.25</tspan></text>
          <text class="uuid-a9f28c5a-9f0e-40a4-bffb-ed93f80ca9a9" transform="translate(587.64 317.13)"><tspan x="0" y="0">2.25</tspan></text>
          <text class="uuid-d624434a-d11d-4f4d-bb10-0b52113a29dc" transform="translate(587.64 317.13)"><tspan x="0" y="0">2.25</tspan></text>
          <text class="uuid-d624434a-d11d-4f4d-bb10-0b52113a29dc" transform="translate(594.39 193.43)"><tspan x="0" y="0">2.7</tspan></text>
          <text class="uuid-a9f28c5a-9f0e-40a4-bffb-ed93f80ca9a9" transform="translate(594.39 193.43)"><tspan x="0" y="0">2.7</tspan></text>
          <text class="uuid-d624434a-d11d-4f4d-bb10-0b52113a29dc" transform="translate(594.39 193.43)"><tspan x="0" y="0">2.7</tspan></text>
          <text class="uuid-d624434a-d11d-4f4d-bb10-0b52113a29dc" transform="translate(587.64 69.72)"><tspan x="0" y="0">3.15</tspan></text>
          <text class="uuid-a9f28c5a-9f0e-40a4-bffb-ed93f80ca9a9" transform="translate(587.64 69.72)"><tspan x="0" y="0">3.15</tspan></text>
          <text class="uuid-d624434a-d11d-4f4d-bb10-0b52113a29dc" transform="translate(587.64 69.72)"><tspan x="0" y="0">3.15</tspan></text>
          <text class="uuid-d624434a-d11d-4f4d-bb10-0b52113a29dc" transform="translate(605.63 948.03)"><tspan x="0" y="0">0</tspan></text>
          <text class="uuid-a9f28c5a-9f0e-40a4-bffb-ed93f80ca9a9" transform="translate(605.63 948.03)"><tspan x="0" y="0">0</tspan></text>
          <text class="uuid-d624434a-d11d-4f4d-bb10-0b52113a29dc" transform="translate(605.63 948.03)"><tspan x="0" y="0">0</tspan></text>
          <path class="uuid-c7a836be-b571-4848-8fab-dbb2c3fa2cdf" d="m-72.49,443.8l5.43-.44,5.43-.45,5.43-.45,5.43-.46,5.43-.47,5.43-.48,5.43-.48,5.43-.49,5.43-.5,5.43-.51,5.43-.52,5.43-.53,5.43-.54,5.43-.55,5.43-.56,5.43-.57,5.43-.58,5.43-.59,5.43-.6,5.43-.61,5.43-.62,5.43-.63,5.43-.65,5.43-.66,5.43-.67,5.43-.69,5.43-.7,5.43-.72,5.43-.73,5.43-.75,5.43-.76,5.43-.78,5.43-.8,5.43-.81,5.43-.83,5.43-.85,5.43-.87,5.43-.89,5.43-.91,5.43-.93,5.43-.95,5.43-.98,5.43-1,5.43-1.03,5.43-1.05,5.43-1.08,5.43-1.11,5.43-1.14,5.43-1.17,5.43-1.2,5.43-1.23,5.43-1.27,5.43-1.3,5.43-1.34,5.43-1.38,5.43-1.42,5.43-1.47,5.43-1.51,5.43-1.56,5.43-1.61,5.43-1.66,5.43-1.71,5.43-1.77,5.43-1.83m0,0l5.43-1.9,5.43-1.96,5.43-2.03,5.43-2.11,5.43-2.19,5.43-2.27,5.43-2.36,5.43-2.46,5.43-2.56,5.43-2.67,5.43-2.79,5.43-2.91,5.43-3.04,5.43-3.18,5.43-3.34,5.43-3.5,5.43-3.68,5.43-3.88,5.43-4.09,5.43-4.32,5.43-4.58,5.43-4.86,5.43-5.17,5.43-5.51,5.43-5.9,5.43-6.33,5.43-6.82,5.43-7.38,5.43-8.02,5.43-8.78,5.43-9.67,5.43-10.76m0,0l2.71-5.86,2.71-6.24,2.71-6.67,2.71-7.16,2.71-7.73,2.71-8.42,2.71-9.25,2.71-10.29m0,0l1.36-5.63,1.36-6.02,1.36-6.49,1.36-7.06,1.36-7.77,1.36-8.71,1.36-10.03.68-5.72.68-6.38m0,0l.65-7.05.65-8.41.65-11.02.33-7.83.16-5.55.08-3.93.08-9.49m274.98,863.87l.07-9.03.07-3.74.15-5.28.3-7.45.59-10.49.59-8.01.59-6.72,1.19-11.18,1.19-9.32m0,0l1.36-9.23,1.36-8.15,1.36-7.35,1.36-6.72,1.36-6.22,1.36-5.79,2.71-10.55m0,0l2.71-9.45,2.71-8.58,2.71-7.87,2.71-7.28,2.71-6.77,2.71-6.33,2.71-5.94,2.71-5.6m0,0l5.43-10.31,5.43-9.3,5.43-8.47,5.43-7.76,5.43-7.15,5.43-6.62,5.43-6.15,5.43-5.74,5.43-5.37,5.43-5.04,5.43-4.75,5.43-4.48,5.43-4.23,5.43-4.01,5.43-3.8,5.43-3.61,5.43-3.44,5.43-3.28,5.43-3.13,5.43-2.99,5.43-2.86,5.43-2.74,5.43-2.63,5.43-2.52,5.43-2.42,5.43-2.33,5.43-2.24,5.43-2.16,5.43-2.08,5.43-2.01,5.43-1.94,5.43-1.87m0,0l5.43-1.81,5.43-1.75,5.43-1.69,5.43-1.64,5.43-1.59,5.43-1.54,5.43-1.49,5.43-1.45,5.43-1.41,5.43-1.37,5.43-1.33,5.43-1.29,5.43-1.25,5.43-1.22,5.43-1.19,5.43-1.16,5.43-1.13,5.43-1.1,5.43-1.07,5.43-1.04,5.43-1.02,5.43-.99,5.43-.97,5.43-.95,5.43-.92,5.43-.9,5.43-.88,5.43-.86,5.43-.84,5.43-.82,5.43-.81,5.43-.79,5.43-.77,5.43-.76,5.43-.74,5.43-.72,5.43-.71,5.43-.7,5.43-.68,5.43-.67,5.43-.65,5.43-.64,5.43-.63,5.43-.62,5.43-.61,5.43-.59,5.43-.58,5.43-.57,5.43-.56,5.43-.55,5.43-.54,5.43-.53,5.43-.52,5.43-.51,5.43-.51,5.43-.5,5.43-.49,5.43-.48,5.43-.47,5.43-.46,5.43-.46,5.43-.45,5.43-.44,5.43-.44"/>
          <path class="uuid-3a968318-7d6c-45aa-aa3b-03ce36e8216b" d="m-78.12,498.4h1401.23"/>
        </g>
      </g>
    </g>
  </g>
  <g id="uuid-4784bd6c-4cbd-4192-aa32-e9c025bb6c48" data-name="Marco">
    <path class="uuid-e5ab1ad6-bba3-4653-94be-8942aefa4bbd" d="m-2-2V1022h1249V-2H-2Zm1232,987c0,11.05-8.95,20-20,20H35c-11.05,0-20-8.95-20-20V35c0-11.05,8.95-20,20-20h1175c11.05,0,20,8.95,20,20v950Z"/>
  </g>
  <g id="uuid-95a68abb-1bc1-4408-95d2-209fa5c18861" data-name="texto">
    <g>
      <path class="uuid-d5ee6615-d18c-47c1-9142-df251db0a79e" d="m109.31,92.11c-.13-.99-.25-1.68-.37-2.06s-.31-.68-.57-.88c-.26-.2-.68-.32-1.27-.36l.21-.96h5.02l1.48,15.53c4.4-6.02,6.6-10.33,6.6-12.93,0-.61-.13-1.03-.39-1.25-.26-.22-.7-.35-1.33-.39l.2-.96h5.04l.53.98c-.69,1.81-1.57,3.68-2.65,5.62s-2.39,4.06-3.95,6.37c-1.56,2.3-3.28,4.7-5.19,7.19-1.46,1.91-2.68,3.36-3.67,4.34-.77.74-1.47,1.31-2.12,1.69s-1.27.66-1.88.82-1.25.24-1.92.24c-.35,0-.75-.04-1.19-.11-.44-.07-.82-.17-1.13-.28l.84-3.65h1.52c.01.44.12.79.31,1.05s.48.39.86.39c.42,0,.77-.04,1.07-.13.3-.08.62-.22.95-.42s.74-.51,1.21-.94c.48-.43,1.01-1,1.61-1.71.6-.71,1.27-1.57,2.01-2.57l-1.86-14.63Z"/>
      <path class="uuid-d5ee6615-d18c-47c1-9142-df251db0a79e" d="m135.33,92.4v-2.71h17.3v2.71h-17.3Zm0,8.11v-2.71h17.3v2.71h-17.3Z"/>
      <path class="uuid-d5ee6615-d18c-47c1-9142-df251db0a79e" d="m180.15,88.81l1.8-1.29,1.25.31-2.99,13.26c-.18.78-.31,1.38-.37,1.81-.07.42-.1.77-.1,1.04,0,.53.15.92.45,1.16.3.24.87.39,1.72.46l-.18.96h-5.59l1.23-4.9-.25-.08c-1.25,1.82-2.44,3.16-3.55,4-1.12.85-2.3,1.27-3.55,1.27-1.43,0-2.54-.54-3.33-1.62-.79-1.08-1.18-2.6-1.18-4.55,0-1.25.14-2.5.43-3.76.29-1.26.72-2.45,1.3-3.57.58-1.13,1.27-2.12,2.08-2.98.81-.86,1.74-1.54,2.8-2.05,1.06-.51,2.22-.76,3.47-.76.81,0,1.58.09,2.3.28.73.19,1.48.52,2.27,1.01Zm-1.72,5.82c.12-.53.2-1,.23-1.39s.06-.81.06-1.27c0-1.02-.21-1.75-.64-2.22s-1.15-.69-2.15-.69c-.55,0-1.07.09-1.56.26-.5.18-1,.47-1.5.88s-.99.95-1.46,1.61c-.46.66-.88,1.47-1.26,2.42-.38.95-.67,1.97-.88,3.06-.21,1.09-.31,2.15-.31,3.17,0,1.35.19,2.37.56,3.04s.99,1.01,1.87,1.01c.4,0,.82-.09,1.26-.27.44-.18.92-.52,1.46-1.01.53-.49,1.14-1.21,1.82-2.16.61-.87,1.1-1.74,1.46-2.59.36-.85.65-1.86.89-3.02l.18-.84Z"/>
      <path class="uuid-d5ee6615-d18c-47c1-9142-df251db0a79e" d="m192.67,87.67h1.17l-1.37,4.8.23.08c1.24-1.71,2.44-2.97,3.62-3.79,1.18-.82,2.39-1.23,3.64-1.23.95,0,1.74.07,2.38.21l-.94,4.38h-2.01c-.1-.68-.27-1.19-.49-1.54-.22-.35-.57-.53-1.04-.53-.51,0-1.09.26-1.76.78s-1.34,1.24-2.03,2.15c-.69.91-1.21,1.75-1.55,2.52-.35.77-.61,1.62-.79,2.56l-1.78,8.46h-3.38l2.97-13.34c.27-1.22.41-2.16.41-2.79,0-.36-.06-.65-.18-.85s-.31-.35-.57-.45c-.26-.1-.7-.17-1.33-.21l.21-1.04,4.55-.18Z"/>
      <path class="uuid-d5ee6615-d18c-47c1-9142-df251db0a79e" d="m215.15,92.54c-.03-.99-.11-1.71-.24-2.15s-.36-.77-.66-1c-.31-.22-.74-.33-1.3-.33-1.32,0-2.5.52-3.54,1.57-1.05,1.05-1.9,2.53-2.57,4.45s-1,3.77-1,5.54c0,.55.05,1.06.15,1.54s.27.9.51,1.25c.24.35.56.63.96.83.4.2.9.3,1.51.3,1.18,0,2.21-.22,3.08-.67.87-.45,1.78-1.16,2.74-2.12l1.19,1.19c-1.22,1.35-2.46,2.34-3.7,2.97-1.24.62-2.58.94-4.01.94-1.89,0-3.32-.56-4.3-1.68s-1.46-2.75-1.46-4.88c0-1.39.26-2.92.78-4.59.52-1.67,1.28-3.13,2.29-4.39,1-1.26,2.17-2.21,3.52-2.83,1.34-.62,2.77-.94,4.3-.94,1.04,0,1.95.06,2.72.18.77.12,1.46.25,2.06.41l-.96,4.41h-2.05Z"/>
      <path class="uuid-d5ee6615-d18c-47c1-9142-df251db0a79e" d="m231.01,92.4c-.14-1.17-.48-2.02-1.01-2.55s-1.34-.79-2.45-.79c-.61,0-1.17.11-1.66.34-.5.23-.89.56-1.17,1-.29.44-.43.95-.43,1.53,0,.48.1.92.29,1.32s.52.81.99,1.24c.46.43,1.11.92,1.94,1.48,1.26.85,2.15,1.67,2.66,2.46s.76,1.71.76,2.75c0,1.22-.29,2.26-.88,3.12s-1.39,1.49-2.4,1.9-2.16.62-3.44.62c-1.15,0-2.22-.08-3.21-.25s-1.96-.38-2.9-.64l.92-4.22h1.52c.09,1.2.43,2.09,1.03,2.69.59.59,1.46.89,2.59.89s2.06-.29,2.71-.87c.65-.58.98-1.34.98-2.29,0-.56-.1-1.06-.29-1.5s-.5-.87-.92-1.27c-.42-.4-1.01-.87-1.78-1.39-.82-.56-1.48-1.09-1.99-1.58s-.9-1.04-1.18-1.63c-.28-.59-.42-1.25-.42-1.96,0-1.08.27-2.02.8-2.81.53-.79,1.29-1.4,2.28-1.82.98-.42,2.13-.62,3.45-.62,2.15,0,4.04.28,5.68.84l-.9,4.02h-1.56Z"/>
      <path class="uuid-d5ee6615-d18c-47c1-9142-df251db0a79e" d="m249.29,102.63c-.96,1.05-1.89,1.89-2.77,2.5-.89.61-1.77,1.05-2.66,1.31-.89.26-1.86.39-2.93.39s-1.91-.17-2.66-.5-1.36-.79-1.85-1.37-.85-1.27-1.08-2.07-.35-1.67-.35-2.61c0-1.39.25-2.89.75-4.48.5-1.59,1.26-3.03,2.28-4.3s2.23-2.25,3.65-2.95c1.42-.7,2.93-1.04,4.53-1.04s2.76.32,3.54.96c.79.64,1.18,1.63,1.18,2.99,0,2.21-1.04,3.87-3.12,4.98-2.08,1.11-5.16,1.66-9.25,1.66-.16.78-.23,1.63-.23,2.54,0,1.37.27,2.36.8,2.98.53.62,1.41.93,2.62.93s2.29-.26,3.26-.78,2-1.32,3.07-2.4l1.21,1.27Zm-10.39-6.19c1.2-.01,2.25-.08,3.15-.21.9-.12,1.68-.29,2.33-.51.65-.21,1.19-.47,1.62-.77s.77-.63,1.03-.99.43-.74.53-1.13.15-.81.15-1.24c0-.79-.19-1.42-.56-1.87s-.92-.67-1.65-.67c-.91,0-1.81.33-2.69.99s-1.65,1.54-2.32,2.66c-.67,1.11-1.2,2.36-1.59,3.74Z"/>
      <path class="uuid-d5ee6615-d18c-47c1-9142-df251db0a79e" d="m266.03,92.54c-.03-.99-.11-1.71-.24-2.15s-.36-.77-.66-1c-.31-.22-.74-.33-1.3-.33-1.32,0-2.5.52-3.54,1.57-1.05,1.05-1.9,2.53-2.57,4.45s-1,3.77-1,5.54c0,.55.05,1.06.15,1.54s.27.9.51,1.25c.24.35.56.63.96.83.4.2.9.3,1.51.3,1.18,0,2.21-.22,3.08-.67.87-.45,1.78-1.16,2.74-2.12l1.19,1.19c-1.22,1.35-2.46,2.34-3.7,2.97-1.24.62-2.58.94-4.01.94-1.89,0-3.32-.56-4.3-1.68s-1.46-2.75-1.46-4.88c0-1.39.26-2.92.78-4.59.52-1.67,1.28-3.13,2.29-4.39,1-1.26,2.17-2.21,3.52-2.83,1.34-.62,2.77-.94,4.3-.94,1.04,0,1.95.06,2.72.18.77.12,1.46.25,2.06.41l-.96,4.41h-2.05Z"/>
      <path class="uuid-d5ee6615-d18c-47c1-9142-df251db0a79e" d="m296.29,88.81c-2.53,2.7-5.17,5.36-7.93,7.99l1.82,4.28c.48,1.15.87,1.99,1.15,2.53.29.54.55.93.78,1.17s.47.42.7.53.61.2,1.11.26l-.21.96h-4.86l-2.71-7.85c-.31.27-.73.65-1.24,1.14-.51.49-1.01,1.01-1.49,1.56-.48.55-.82,1-1.02,1.34s-.32.63-.38.88-.09.5-.09.76c0,.34.09.61.28.8.19.2.51.33.97.41l-.21.96h-5.57l-.37-.96c2.85-3.06,5.66-5.88,8.42-8.46l-1.86-4.36c-.38-.89-.68-1.56-.92-2.02s-.46-.82-.67-1.07-.46-.45-.74-.59c-.28-.14-.68-.22-1.2-.26l.21-.96h4.86l2.6,7.36c.64-.59,1.24-1.19,1.82-1.82.57-.62.98-1.12,1.21-1.48s.4-.69.49-.98c.09-.29.14-.59.14-.9,0-.72-.42-1.13-1.25-1.23l.21-.96h5.57l.39.96Z"/>
    </g>
  </g>
</svg>