<?xml version="1.0" encoding="UTF-8"?>
<svg xmlns="http://www.w3.org/2000/svg" width="1245" height="1020" xmlns:xlink="http://www.w3.org/1999/xlink" viewBox="0 0 1245 1020">
  <defs>
    <style>
      .uuid-bbdddc41-3e67-4d6a-8437-8fe2533e0c11 {
        fill: #fff;
      }

      .uuid-d6b5f4a6-bfdb-4d47-b196-9b610a5a5e28 {
        stroke: #fff;
        stroke-linejoin: bevel;
        stroke-width: 3.32px;
      }

      .uuid-d6b5f4a6-bfdb-4d47-b196-9b610a5a5e28, .uuid-870b322b-7339-4f70-bc78-d1c6c51c9052, .uuid-5036c56b-6b9d-4950-af0f-9cf2a942a043, .uuid-ee5a9a2a-de34-45cb-938a-a1e754bd1b91, .uuid-770ed0f5-3d16-428a-a065-e42b85716a47, .uuid-18d057f6-22ce-4caa-9ea2-508434d1cd1c, .uuid-04ebf606-ed43-4094-bc7a-3174f769cd56, .uuid-79194b02-1b50-4f76-b912-5560d47fae70 {
        fill: none;
      }

      .uuid-d6b5f4a6-bfdb-4d47-b196-9b610a5a5e28, .uuid-f6f45ec7-f252-4f9f-8ba0-4e4be083ac91 {
        font-family: HelveticaNeue-UltraLight, 'Helvetica Neue UltraLight';
        font-size: 13.75px;
        font-weight: 100;
        isolation: isolate;
      }

      .uuid-870b322b-7339-4f70-bc78-d1c6c51c9052 {
        stroke: rgba(192, 192, 192, .24);
      }

      .uuid-870b322b-7339-4f70-bc78-d1c6c51c9052, .uuid-ee5a9a2a-de34-45cb-938a-a1e754bd1b91, .uuid-18d057f6-22ce-4caa-9ea2-508434d1cd1c {
        stroke-linejoin: round;
      }

      .uuid-870b322b-7339-4f70-bc78-d1c6c51c9052, .uuid-18d057f6-22ce-4caa-9ea2-508434d1cd1c {
        stroke-dasharray: 0 0 1.11 3.32;
        stroke-width: 1.11px;
      }

      .uuid-5036c56b-6b9d-4950-af0f-9cf2a942a043 {
        stroke: #606060;
        stroke-miterlimit: 10;
        stroke-width: 2.22px;
      }

      .uuid-cec8cce5-89e4-4545-829a-0d1c66f94311 {
        fill: #333;
      }

      .uuid-f6f45ec7-f252-4f9f-8ba0-4e4be083ac91, .uuid-9a70ec4e-01b3-48a1-999c-4ff7fdfa642e {
        fill: #606060;
      }

      .uuid-ee5a9a2a-de34-45cb-938a-a1e754bd1b91 {
        stroke: rgba(153, 51, 255, .7);
        stroke-linecap: round;
        stroke-width: 3.88px;
      }

      .uuid-682cf90e-ea8f-4edf-8657-12ec3aad3fce {
        fill: #00699b;
      }

      .uuid-18d057f6-22ce-4caa-9ea2-508434d1cd1c {
        stroke: silver;
      }

      .uuid-04ebf606-ed43-4094-bc7a-3174f769cd56 {
        clip-path: url(#uuid-d972ea51-b3d4-45a7-bd52-a345b5fac229);
      }

      .uuid-9a70ec4e-01b3-48a1-999c-4ff7fdfa642e {
        fill-rule: evenodd;
      }

      .uuid-79194b02-1b50-4f76-b912-5560d47fae70 {
        clip-path: url(#uuid-1e87ac35-a031-4bde-96dc-9c473ca5c752);
      }
    </style>
    <clipPath id="uuid-1e87ac35-a031-4bde-96dc-9c473ca5c752">
      <rect class="uuid-770ed0f5-3d16-428a-a065-e42b85716a47" y="2.61" width="1245" height="1019.39"/>
    </clipPath>
    <clipPath id="uuid-d972ea51-b3d4-45a7-bd52-a345b5fac229">
      <rect class="uuid-770ed0f5-3d16-428a-a065-e42b85716a47" x="-165.51" y="-9.52" width="1575.15" height="1039.62"/>
    </clipPath>
  </defs>
  <g id="uuid-ad1692d1-9b7a-4abe-a8f2-651838fb04eb" data-name="Grafica">
    <g class="uuid-79194b02-1b50-4f76-b912-5560d47fae70">
      <g class="uuid-04ebf606-ed43-4094-bc7a-3174f769cd56">
        <g>
          <rect class="uuid-bbdddc41-3e67-4d6a-8437-8fe2533e0c11" x="-165.51" y="-9.52" width="1575.15" height="1039.62"/>
          <path class="uuid-18d057f6-22ce-4caa-9ea2-508434d1cd1c" d="m-79.25-8.95v1039.62m0-1039.62v1039.62M21.47-8.95v1039.62M121.12-8.95v1039.62M221.85-8.95v1039.62M321.5-8.95v1039.62M422.22-8.95v1039.62M522.95-8.95v1039.62M723.33-8.95v1039.62M822.98-8.95v1039.62M923.7-8.95v1039.62M1023.35-8.95v1039.62M1124.08-8.95v1039.62M1223.73-8.95v1039.62M1324.46-8.95v1039.62"/>
          <path class="uuid-870b322b-7339-4f70-bc78-d1c6c51c9052" d="m-159.62-8.95v1039.62M-139.26-8.95v1039.62M-118.9-8.95v1039.62M-99.61-8.95v1039.62M-58.89-8.95v1039.62M-38.53-8.95v1039.62M-19.25-8.95v1039.62M1.11-8.95v1039.62M40.76-8.95v1039.62M61.12-8.95v1039.62M81.48-8.95v1039.62M101.84-8.95v1039.62M141.48-8.95v1039.62M161.84-8.95v1039.62M181.13-8.95v1039.62M201.49-8.95v1039.62M242.21-8.95v1039.62M261.49-8.95v1039.62M281.85-8.95v1039.62M302.21-8.95v1039.62M341.86-8.95v1039.62M362.22-8.95v1039.62M382.58-8.95v1039.62M401.87-8.95v1039.62M442.58-8.95v1039.62M461.87-8.95v1039.62M482.23-8.95v1039.62M502.59-8.95v1039.62M542.24-8.95v1039.62M562.6-8.95v1039.62M582.95-8.95v1039.62M602.24-8.95v1039.62M642.96-8.95v1039.62M663.32-8.95v1039.62M682.61-8.95v1039.62M702.97-8.95v1039.62M742.61-8.95v1039.62M762.97-8.95v1039.62M783.33-8.95v1039.62M802.62-8.95v1039.62M843.34-8.95v1039.62M863.7-8.95v1039.62M882.98-8.95v1039.62M903.34-8.95v1039.62M942.99-8.95v1039.62M963.35-8.95v1039.62M983.71-8.95v1039.62M1004.07-8.95v1039.62M1043.71-8.95v1039.62M1064.07-8.95v1039.62M1083.36-8.95v1039.62M1103.72-8.95v1039.62M1144.44-8.95v1039.62M1163.73-8.95v1039.62M1184.08-8.95v1039.62M1204.44-8.95v1039.62M1244.09-8.95v1039.62M1264.45-8.95v1039.62M1284.81-8.95v1039.62M1304.1-8.95v1039.62M1344.81-8.95v1039.62M1364.1-8.95v1039.62M1384.46-8.95v1039.62M1404.82-8.95v1039.62"/>
          <path class="uuid-18d057f6-22ce-4caa-9ea2-508434d1cd1c" d="m-164.98,27.73h1575.15m-1575.15,0h1575.15M-164.98,135.47h1575.15M-164.98,242.07h1575.15M-164.98,349.82h1575.15M-164.98,457.56h1575.15m-1575.15,106.6h1575.15m-1575.15,107.74h1575.15m-1575.15,106.6h1575.15M-164.98,992.84h1575.15"/>
          <path class="uuid-870b322b-7339-4f70-bc78-d1c6c51c9052" d="m-164.98,7.1h1575.15m-1575.15,0h1575.15M-164.98,49.51h1575.15M-164.98,71.29h1575.15M-164.98,91.92h1575.15M-164.98,113.7h1575.15M-164.98,157.25h1575.15m-1575.15,20.63h1575.15m-1575.15,21.78h1575.15m-1575.15,21.78h1575.15m-1575.15,42.41h1575.15m-1575.15,21.78h1575.15m-1575.15,21.78h1575.15m-1575.15,20.63h1575.15m-1575.15,43.56h1575.15m-1575.15,20.63h1575.15m-1575.15,21.78h1575.15m-1575.15,21.78h1575.15m-1575.15,42.41h1575.15m-1575.15,21.78h1575.15m-1575.15,21.78h1575.15m-1575.15,20.63h1575.15m-1575.15,43.56h1575.15m-1575.15,21.78h1575.15m-1575.15,20.63h1575.15m-1575.15,21.78h1575.15m-1575.15,42.41h1575.15m-1575.15,21.78h1575.15m-1575.15,21.78h1575.15m-1575.15,21.78h1575.15m-1575.15,42.41h1575.15m-1575.15,21.78h1575.15m-1575.15,20.63h1575.15m-1575.15,21.78h1575.15m-1575.15,43.56h1575.15m-1575.15,20.63h1575.15m-1575.15,21.78h1575.15m-1575.15,21.78h1575.15m-1575.15,42.41h1575.15"/>
          <path class="uuid-5036c56b-6b9d-4950-af0f-9cf2a942a043" d="m623.14-6.08v1036.18"/>
          <path class="uuid-9a70ec4e-01b3-48a1-999c-4ff7fdfa642e" d="m622.68-7.23l-5.36,22.92h10.72"/>
          <path class="uuid-5036c56b-6b9d-4950-af0f-9cf2a942a043" d="m-165.51,885.67h1571.94"/>
          <text class="uuid-f6f45ec7-f252-4f9f-8ba0-4e4be083ac91" transform="translate(13.43 904.01) scale(.93 1)"><tspan x="0" y="0">–6</tspan></text>
          <text class="uuid-d6b5f4a6-bfdb-4d47-b196-9b610a5a5e28" transform="translate(13.43 904.01) scale(.93 1)"><tspan x="0" y="0">–6</tspan></text>
          <text class="uuid-f6f45ec7-f252-4f9f-8ba0-4e4be083ac91" transform="translate(13.43 904.01) scale(.93 1)"><tspan x="0" y="0">–6</tspan></text>
          <text class="uuid-f6f45ec7-f252-4f9f-8ba0-4e4be083ac91" transform="translate(114.16 904.01) scale(.93 1)"><tspan x="0" y="0">–5</tspan></text>
          <text class="uuid-d6b5f4a6-bfdb-4d47-b196-9b610a5a5e28" transform="translate(114.16 904.01) scale(.93 1)"><tspan x="0" y="0">–5</tspan></text>
          <text class="uuid-f6f45ec7-f252-4f9f-8ba0-4e4be083ac91" transform="translate(114.16 904.01) scale(.93 1)"><tspan x="0" y="0">–5</tspan></text>
          <text class="uuid-f6f45ec7-f252-4f9f-8ba0-4e4be083ac91" transform="translate(214.88 904.01) scale(.93 1)"><tspan x="0" y="0">–4</tspan></text>
          <text class="uuid-d6b5f4a6-bfdb-4d47-b196-9b610a5a5e28" transform="translate(214.88 904.01) scale(.93 1)"><tspan x="0" y="0">–4</tspan></text>
          <text class="uuid-f6f45ec7-f252-4f9f-8ba0-4e4be083ac91" transform="translate(214.88 904.01) scale(.93 1)"><tspan x="0" y="0">–4</tspan></text>
          <text class="uuid-f6f45ec7-f252-4f9f-8ba0-4e4be083ac91" transform="translate(314.53 904.01) scale(.93 1)"><tspan x="0" y="0">–3</tspan></text>
          <text class="uuid-d6b5f4a6-bfdb-4d47-b196-9b610a5a5e28" transform="translate(314.53 904.01) scale(.93 1)"><tspan x="0" y="0">–3</tspan></text>
          <text class="uuid-f6f45ec7-f252-4f9f-8ba0-4e4be083ac91" transform="translate(314.53 904.01) scale(.93 1)"><tspan x="0" y="0">–3</tspan></text>
          <text class="uuid-f6f45ec7-f252-4f9f-8ba0-4e4be083ac91" transform="translate(415.26 904.01) scale(.93 1)"><tspan x="0" y="0">–2</tspan></text>
          <text class="uuid-d6b5f4a6-bfdb-4d47-b196-9b610a5a5e28" transform="translate(415.26 904.01) scale(.93 1)"><tspan x="0" y="0">–2</tspan></text>
          <text class="uuid-f6f45ec7-f252-4f9f-8ba0-4e4be083ac91" transform="translate(415.26 904.01) scale(.93 1)"><tspan x="0" y="0">–2</tspan></text>
          <text class="uuid-f6f45ec7-f252-4f9f-8ba0-4e4be083ac91" transform="translate(514.91 904.01) scale(.93 1)"><tspan x="0" y="0">–1</tspan></text>
          <text class="uuid-d6b5f4a6-bfdb-4d47-b196-9b610a5a5e28" transform="translate(514.91 904.01) scale(.93 1)"><tspan x="0" y="0">–1</tspan></text>
          <text class="uuid-f6f45ec7-f252-4f9f-8ba0-4e4be083ac91" transform="translate(514.91 904.01) scale(.93 1)"><tspan x="0" y="0">–1</tspan></text>
          <text class="uuid-f6f45ec7-f252-4f9f-8ba0-4e4be083ac91" transform="translate(719.57 904.01) scale(.93 1)"><tspan x="0" y="0">1</tspan></text>
          <text class="uuid-d6b5f4a6-bfdb-4d47-b196-9b610a5a5e28" transform="translate(719.57 904.01) scale(.93 1)"><tspan x="0" y="0">1</tspan></text>
          <text class="uuid-f6f45ec7-f252-4f9f-8ba0-4e4be083ac91" transform="translate(719.57 904.01) scale(.93 1)"><tspan x="0" y="0">1</tspan></text>
          <text class="uuid-f6f45ec7-f252-4f9f-8ba0-4e4be083ac91" transform="translate(820.3 904.01) scale(.93 1)"><tspan x="0" y="0">2</tspan></text>
          <text class="uuid-d6b5f4a6-bfdb-4d47-b196-9b610a5a5e28" transform="translate(820.3 904.01) scale(.93 1)"><tspan x="0" y="0">2</tspan></text>
          <text class="uuid-f6f45ec7-f252-4f9f-8ba0-4e4be083ac91" transform="translate(820.3 904.01) scale(.93 1)"><tspan x="0" y="0">2</tspan></text>
          <text class="uuid-f6f45ec7-f252-4f9f-8ba0-4e4be083ac91" transform="translate(919.95 904.01) scale(.93 1)"><tspan x="0" y="0">3</tspan></text>
          <text class="uuid-d6b5f4a6-bfdb-4d47-b196-9b610a5a5e28" transform="translate(919.95 904.01) scale(.93 1)"><tspan x="0" y="0">3</tspan></text>
          <text class="uuid-f6f45ec7-f252-4f9f-8ba0-4e4be083ac91" transform="translate(919.95 904.01) scale(.93 1)"><tspan x="0" y="0">3</tspan></text>
          <text class="uuid-f6f45ec7-f252-4f9f-8ba0-4e4be083ac91" transform="translate(1020.67 904.01) scale(.93 1)"><tspan x="0" y="0">4</tspan></text>
          <text class="uuid-d6b5f4a6-bfdb-4d47-b196-9b610a5a5e28" transform="translate(1020.67 904.01) scale(.93 1)"><tspan x="0" y="0">4</tspan></text>
          <text class="uuid-f6f45ec7-f252-4f9f-8ba0-4e4be083ac91" transform="translate(1020.67 904.01) scale(.93 1)"><tspan x="0" y="0">4</tspan></text>
          <text class="uuid-f6f45ec7-f252-4f9f-8ba0-4e4be083ac91" transform="translate(1120.33 904.01) scale(.93 1)"><tspan x="0" y="0">5</tspan></text>
          <text class="uuid-d6b5f4a6-bfdb-4d47-b196-9b610a5a5e28" transform="translate(1120.33 904.01) scale(.93 1)"><tspan x="0" y="0">5</tspan></text>
          <text class="uuid-f6f45ec7-f252-4f9f-8ba0-4e4be083ac91" transform="translate(1120.33 904.01) scale(.93 1)"><tspan x="0" y="0">5</tspan></text>
          <text class="uuid-f6f45ec7-f252-4f9f-8ba0-4e4be083ac91" transform="translate(1221.05 904.01) scale(.93 1)"><tspan x="0" y="0">6</tspan></text>
          <text class="uuid-d6b5f4a6-bfdb-4d47-b196-9b610a5a5e28" transform="translate(1221.05 904.01) scale(.93 1)"><tspan x="0" y="0">6</tspan></text>
          <text class="uuid-f6f45ec7-f252-4f9f-8ba0-4e4be083ac91" transform="translate(1221.05 904.01) scale(.93 1)"><tspan x="0" y="0">6</tspan></text>
          <text class="uuid-f6f45ec7-f252-4f9f-8ba0-4e4be083ac91" transform="translate(600.63 998) scale(.93 1)"><tspan x="0" y="0">–1</tspan></text>
          <text class="uuid-d6b5f4a6-bfdb-4d47-b196-9b610a5a5e28" transform="translate(600.63 998) scale(.93 1)"><tspan x="0" y="0">–1</tspan></text>
          <text class="uuid-f6f45ec7-f252-4f9f-8ba0-4e4be083ac91" transform="translate(600.63 998) scale(.93 1)"><tspan x="0" y="0">–1</tspan></text>
          <text class="uuid-f6f45ec7-f252-4f9f-8ba0-4e4be083ac91" transform="translate(607.06 783.66) scale(.93 1)"><tspan x="0" y="0">1</tspan></text>
          <text class="uuid-d6b5f4a6-bfdb-4d47-b196-9b610a5a5e28" transform="translate(607.06 783.66) scale(.93 1)"><tspan x="0" y="0">1</tspan></text>
          <text class="uuid-f6f45ec7-f252-4f9f-8ba0-4e4be083ac91" transform="translate(607.06 783.66) scale(.93 1)"><tspan x="0" y="0">1</tspan></text>
          <text class="uuid-f6f45ec7-f252-4f9f-8ba0-4e4be083ac91" transform="translate(607.06 677.06) scale(.93 1)"><tspan x="0" y="0">2</tspan></text>
          <text class="uuid-d6b5f4a6-bfdb-4d47-b196-9b610a5a5e28" transform="translate(607.06 677.06) scale(.93 1)"><tspan x="0" y="0">2</tspan></text>
          <text class="uuid-f6f45ec7-f252-4f9f-8ba0-4e4be083ac91" transform="translate(607.06 677.06) scale(.93 1)"><tspan x="0" y="0">2</tspan></text>
          <text class="uuid-f6f45ec7-f252-4f9f-8ba0-4e4be083ac91" transform="translate(607.06 569.32) scale(.93 1)"><tspan x="0" y="0">3</tspan></text>
          <text class="uuid-d6b5f4a6-bfdb-4d47-b196-9b610a5a5e28" transform="translate(607.06 569.32) scale(.93 1)"><tspan x="0" y="0">3</tspan></text>
          <text class="uuid-f6f45ec7-f252-4f9f-8ba0-4e4be083ac91" transform="translate(607.06 569.32) scale(.93 1)"><tspan x="0" y="0">3</tspan></text>
          <text class="uuid-f6f45ec7-f252-4f9f-8ba0-4e4be083ac91" transform="translate(607.06 462.72) scale(.93 1)"><tspan x="0" y="0">4</tspan></text>
          <text class="uuid-d6b5f4a6-bfdb-4d47-b196-9b610a5a5e28" transform="translate(607.06 462.72) scale(.93 1)"><tspan x="0" y="0">4</tspan></text>
          <text class="uuid-f6f45ec7-f252-4f9f-8ba0-4e4be083ac91" transform="translate(607.06 462.72) scale(.93 1)"><tspan x="0" y="0">4</tspan></text>
          <text class="uuid-f6f45ec7-f252-4f9f-8ba0-4e4be083ac91" transform="translate(607.06 354.97) scale(.93 1)"><tspan x="0" y="0">5</tspan></text>
          <text class="uuid-d6b5f4a6-bfdb-4d47-b196-9b610a5a5e28" transform="translate(607.06 354.97) scale(.93 1)"><tspan x="0" y="0">5</tspan></text>
          <text class="uuid-f6f45ec7-f252-4f9f-8ba0-4e4be083ac91" transform="translate(607.06 354.97) scale(.93 1)"><tspan x="0" y="0">5</tspan></text>
          <text class="uuid-f6f45ec7-f252-4f9f-8ba0-4e4be083ac91" transform="translate(607.06 247.23) scale(.93 1)"><tspan x="0" y="0">6</tspan></text>
          <text class="uuid-d6b5f4a6-bfdb-4d47-b196-9b610a5a5e28" transform="translate(607.06 247.23) scale(.93 1)"><tspan x="0" y="0">6</tspan></text>
          <text class="uuid-f6f45ec7-f252-4f9f-8ba0-4e4be083ac91" transform="translate(607.06 247.23) scale(.93 1)"><tspan x="0" y="0">6</tspan></text>
          <text class="uuid-f6f45ec7-f252-4f9f-8ba0-4e4be083ac91" transform="translate(607.06 140.63) scale(.93 1)"><tspan x="0" y="0">7</tspan></text>
          <text class="uuid-d6b5f4a6-bfdb-4d47-b196-9b610a5a5e28" transform="translate(607.06 140.63) scale(.93 1)"><tspan x="0" y="0">7</tspan></text>
          <text class="uuid-f6f45ec7-f252-4f9f-8ba0-4e4be083ac91" transform="translate(607.06 140.63) scale(.93 1)"><tspan x="0" y="0">7</tspan></text>
          <text class="uuid-f6f45ec7-f252-4f9f-8ba0-4e4be083ac91" transform="translate(607.06 32.89) scale(.93 1)"><tspan x="0" y="0">8</tspan></text>
          <text class="uuid-d6b5f4a6-bfdb-4d47-b196-9b610a5a5e28" transform="translate(607.06 32.89) scale(.93 1)"><tspan x="0" y="0">8</tspan></text>
          <text class="uuid-f6f45ec7-f252-4f9f-8ba0-4e4be083ac91" transform="translate(607.06 32.89) scale(.93 1)"><tspan x="0" y="0">8</tspan></text>
          <text class="uuid-f6f45ec7-f252-4f9f-8ba0-4e4be083ac91" transform="translate(607.06 904.01) scale(.93 1)"><tspan x="0" y="0">0</tspan></text>
          <text class="uuid-d6b5f4a6-bfdb-4d47-b196-9b610a5a5e28" transform="translate(607.06 904.01) scale(.93 1)"><tspan x="0" y="0">0</tspan></text>
          <text class="uuid-f6f45ec7-f252-4f9f-8ba0-4e4be083ac91" transform="translate(607.06 904.01) scale(.93 1)"><tspan x="0" y="0">0</tspan></text>
          <path class="uuid-ee5a9a2a-de34-45cb-938a-a1e754bd1b91" d="m339.24-23.28l1.01,9.08h0l1.07,9.5h0l1.07,9.4h0l1.07,9.3h0l1.07,9.2h0l1.07,9.1h0l1.07,9h0l1.07,8.91h0l1.07,8.81h0l1.07,8.72h0l1.07,8.62h0l1.07,8.53h0l1.07,8.44h0l1.07,8.35h0l1.07,8.26h0l1.07,8.17h0l1.07,8.08h0l1.07,8h0l1.07,7.91h0l1.07,7.83h0l1.07,7.74h0l1.07,7.66h0l1.07,7.58h0l1.07,7.49h0l1.07,7.41h0l1.07,7.33h0l1.07,7.26h0l1.07,7.18h0l1.07,7.1h0l1.07,7.02h0l1.07,6.95h0l1.07,6.87h0l1.07,6.8h0l1.07,6.73h0l1.07,6.65h0l1.07,6.58h0l1.07,6.51h0l1.07,6.44h0l1.07,6.37h0l1.07,6.3h0l1.07,6.23h0l1.07,6.17h0l1.07,6.1h0l1.07,6.03h0l1.07,5.97h0l1.07,5.9h0l1.07,5.84h0l1.07,5.78h0l1.07,5.71h0l1.07,5.65h0l1.07,5.59h0l1.07,5.53h0l1.07,5.47h0l1.07,5.41h0l1.07,5.35h0l1.07,5.29h0l1.07,5.24h0l1.07,5.18h0l1.07,5.12h0l1.07,5.07h0l1.07,5.01h0l1.07,4.96h0l1.07,4.9h0l1.07,4.85h0l1.07,4.8h0l1.07,4.74h0l1.07,4.69h0l1.07,4.64h0l1.07,4.59h0l1.07,4.54h0l1.07,4.49h0l1.07,4.44h0l1.07,4.39h0l1.07,4.34h0l1.07,4.3h0l1.07,4.25h0l1.07,4.2h0l1.07,4.15h0l1.07,4.11h0l1.07,4.06h0l1.07,4.02h0l1.07,3.97h0l1.07,3.93h0l1.07,3.89h0l1.07,3.84h0l1.07,3.8h0l1.07,3.76h0l1.07,3.72h0l1.07,3.68h0l1.07,3.63h0l1.07,3.59h0l1.07,3.55h0l1.07,3.51h0l1.07,3.48h0l1.07,3.44h0l1.07,3.4h0l1.07,3.36h0l1.07,3.32h0l1.07,3.28h0l1.07,3.25h0l1.07,3.21h0l1.07,3.17h0l1.07,3.14h0l1.07,3.1h0l1.07,3.07h0l1.07,3.03h0l1.07,3h0l1.07,2.96h0l1.07,2.93h0l1.07,2.9h0l1.07,2.86h0l1.07,2.83h0l1.07,2.8h0l1.07,2.77h0l1.07,2.73h0l1.07,2.7h0l1.07,2.67h0l1.07,2.64h0l1.07,2.61h0l1.07,2.58h0l1.07,2.55h0l1.07,2.52h0l1.07,2.49h0l1.07,2.46h0l1.07,2.43h0l1.07,2.4h0l1.07,2.38h0l1.07,2.35h0l1.07,2.32h0l1.07,2.29h0l1.07,2.27h0l1.07,2.24h0l1.07,2.21h0l1.07,2.19h0l1.07,2.16h0l1.07,2.13h0l1.07,2.11h0l1.07,2.08h0l1.07,2.06h0l1.07,2.03h0l1.07,2.01h0l1.07,1.98h0l1.07,1.96h0l1.07,1.93h0l1.07,1.91h0l1.07,1.89h0l1.07,1.86h0l1.07,1.84h0l1.07,1.82h0l1.07,1.79h0l1.07,1.77h0l1.07,1.75h0l1.07,1.73h0l1.07,1.7h0l1.07,1.68h0l1.07,1.66h0l1.07,1.64h0l1.07,1.62h0l1.07,1.6h0l1.07,1.58h0l1.07,1.55h0l1.07,1.53h0l1.07,1.51h0l1.07,1.49h0l1.07,1.47h0l1.07,1.45h0l1.07,1.43h0l1.07,1.41h0l1.07,1.4h0l1.07,1.38h0l1.07,1.36h0l1.07,1.34h0l1.07,1.32h0l1.07,1.3h0l1.07,1.28h0l1.07,1.26h0l1.07,1.25h0l1.07,1.23h0l1.07,1.21h0l1.07,1.19h0l1.07,1.17h0l1.07,1.16h0l1.07,1.14h0l1.07,1.12h0l1.07,1.11h0l1.07,1.09h0l1.07,1.07h0l1.07,1.05h0l1.07,1.04h0l1.07,1.02h0l1.07,1.01h0l1.07.99h0l1.07.97h0l1.07.96h0l1.07.94h0l1.07.93h0l1.07.91h0l1.07.89h0l1.07.88h0l1.07.86h0l1.07.85h0l1.07.83h0l1.07.82h0l1.07.8h0l1.07.79h0l1.07.77h0l1.07.76h0l1.07.74h0l1.07.73h0l1.07.71h0l1.07.7h0l1.07.69h0l1.07.67h0l1.07.66h0l1.07.64h0l1.07.63h0l1.07.62h0l1.07.6h0l1.07.59h0l1.07.57h0l1.07.56h0l1.07.55h0l1.07.53h0l1.07.52h0l1.07.51h0l1.07.49h0l1.07.48h0l1.07.47h0l1.07.45h0l1.07.44h0l1.07.43h0l1.07.41h0l1.07.4h0l1.07.39h0l1.07.37h0l1.07.36h0l1.07.35h0l1.07.34h0l1.07.32h0l1.07.31h0l1.07.3h0l1.07.29h0l1.07.27h0l1.07.26h0l1.07.25h0l1.07.24h0l1.07.22h0l1.07.21h0l1.07.2h0l1.07.19h0l1.07.17h0l1.07.16h0l1.07.15h0l1.07.14h0l1.07.12h0l1.07.11h0l1.07.1h0l1.07.09h0l1.07.07h0l1.07.06h0l1.07.05h0l1.07.04h0l1.07.03h1.07s1.07.02,1.07.02h0s1.07-.01,1.07-.01h0l1.07-.02h0l1.07-.04h0l1.07-.05h0l1.07-.06h0l1.07-.07h0l1.07-.08h0l1.07-.1h0l1.07-.11h0l1.07-.12h0l1.07-.13h0l1.07-.15h0l1.07-.16h0l1.07-.17h0l1.07-.18h0l1.07-.2h0l1.07-.21h0l1.07-.22h0l1.07-.23h0l1.07-.25h0l1.07-.26h0l1.07-.27h0l1.07-.28h0l1.07-.3h0l1.07-.31h0l1.07-.32h0l1.07-.33h0l1.07-.35h0l1.07-.36h0l1.07-.37h0l1.07-.39h0l1.07-.4h0l1.07-.41h0l1.07-.42h0l1.07-.44h0l1.07-.45h0l1.07-.46h0l1.07-.48h0l1.07-.49h0l1.07-.5h0l1.07-.52h0l1.07-.53h0l1.07-.54h0l1.07-.56h0l1.07-.57h0l1.07-.59h0l1.07-.6h0l1.07-.61h0l1.07-.63h0l1.07-.64h0l1.07-.66h0l1.07-.67h0l1.07-.68h0l1.07-.7h0l1.07-.71h0l1.07-.73h0l1.07-.74h0l1.07-.76h0l1.07-.77h0l1.07-.79h0l1.07-.8h0l1.07-.82h0l1.07-.83h0l1.07-.85h0l1.07-.86h0l1.07-.88h0l1.07-.89h0l1.07-.91h0l1.07-.92h0l1.07-.94h0l1.07-.95h0l1.07-.97h0l1.07-.99h0l1.07-1h0l1.07-1.02h0l1.07-1.04h0l1.07-1.05h0l1.07-1.07h0l1.07-1.09h0l1.07-1.1h0l1.07-1.12h0l1.07-1.14h0l1.07-1.15h0l1.07-1.17h0l1.07-1.19h0l1.07-1.21h0l1.07-1.22h0l1.07-1.24h0l1.07-1.26h0l1.07-1.28h0l1.07-1.3h0l1.07-1.32h0l1.07-1.33h0l1.07-1.35h0l1.07-1.37h0l1.07-1.39h0l1.07-1.41h0l1.07-1.43h0l1.07-1.45h0l1.07-1.47h0l1.07-1.49h0l1.07-1.51h0l1.07-1.53h0l1.07-1.55h0l1.07-1.57h0l1.07-1.59h0l1.07-1.61h0l1.07-1.64h0l1.07-1.66h0l1.07-1.68h0l1.07-1.7h0l1.07-1.72h0l1.07-1.74h0l1.07-1.77h0l1.07-1.79h0l1.07-1.81h0l1.07-1.84h0l1.07-1.86h0l1.07-1.88h0l1.07-1.91h0l1.07-1.93h0l1.07-1.95h0l1.07-1.98h0l1.07-2h0l1.07-2.03h0l1.07-2.05h0l1.07-2.08h0l1.07-2.1h0l1.07-2.13h0l1.07-2.15h0l1.07-2.18h0l1.07-2.21h0l1.07-2.23h0l1.07-2.26h0l1.07-2.29h0l1.07-2.32h0l1.07-2.34h0l1.07-2.37h0l1.07-2.4h0l1.07-2.43h0l1.07-2.46h0l1.07-2.49h0l1.07-2.52h0l1.07-2.55h0l1.07-2.58h0l1.07-2.61h0l1.07-2.64h0l1.07-2.67h0l1.07-2.7h0l1.07-2.73h0l1.07-2.76h0l1.07-2.79h0l1.07-2.83h0l1.07-2.86h0l1.07-2.89h0l1.07-2.93h0l1.07-2.96h0l1.07-2.99h0l1.07-3.03h0l1.07-3.06h0l1.07-3.1h0l1.07-3.13h0l1.07-3.17h0l1.07-3.21h0l1.07-3.24h0l1.07-3.28h0l1.07-3.32h0l1.07-3.35h0l1.07-3.39h0l1.07-3.43h0l1.07-3.47h0l1.07-3.51h0l1.07-3.55h0l1.07-3.59h0l1.07-3.63h0l1.07-3.67h0l1.07-3.71h0l1.07-3.75h0l1.07-3.79h0l1.07-3.84h0l1.07-3.88h0l1.07-3.92h0l1.07-3.97h0l1.07-4.01h0l1.07-4.06h0l1.07-4.1h0l1.07-4.15h0l1.07-4.19h0l1.07-4.24h0l1.07-4.29h0l1.07-4.34h0l1.07-4.38h0l1.07-4.43h0l1.07-4.48h0l1.07-4.53h0l1.07-4.58h0l1.07-4.63h0l1.07-4.68h0l1.07-4.74h0l1.07-4.79h0l1.07-4.84h0l1.07-4.89h0l1.07-4.95h0l1.07-5h0l1.07-5.06h0l1.07-5.11h0l1.07-5.17h0l1.07-5.23h0l1.07-5.28h0l1.07-5.34h0l1.07-5.4h0l1.07-5.46h0l1.07-5.52h0l1.07-5.58h0l1.07-5.64h0l1.07-5.7h0l1.07-5.77h0l1.07-5.83h0l1.07-5.89h0l1.07-5.96h0l1.07-6.02h0l1.07-6.09h0l1.07-6.16h0l1.07-6.22h0l1.07-6.29h0l1.07-6.36h0l1.07-6.43h0l1.07-6.5h0l1.07-6.57h0l1.07-6.64h0l1.07-6.71h0l1.07-6.79h0l1.07-6.86h0l1.07-6.94h0l1.07-7.01h0l1.07-7.09h0l1.07-7.17h0l1.07-7.24h0l1.07-7.32h0l1.07-7.4h0l1.07-7.48h0l1.07-7.56h0l1.07-7.65h0l1.07-7.73h0l1.07-7.81h0l1.07-7.9h0l1.07-7.98h0l1.07-8.07h0l1.07-8.16h0l1.07-8.25h0l1.07-8.34h0l1.07-8.43h0l1.07-8.52h0l1.07-8.61h0l1.07-8.7h0l1.07-8.8h0l1.07-8.89h0l1.07-8.99h0l1.07-9.09h0l1.07-9.18h0l1.07-9.28h0l1.07-9.38h0l1.07-9.49h0l1.07-9.59h0l.11-.97"/>
        </g>
      </g>
    </g>
  </g>
  <g id="uuid-7c1eecd6-84b3-4282-b04b-79d105b96003" data-name="Marco">
    <path class="uuid-682cf90e-ea8f-4edf-8657-12ec3aad3fce" d="m-2-2V1022h1249V-2H-2Zm1232,987c0,11.05-8.95,20-20,20H35c-11.05,0-20-8.95-20-20V35c0-11.05,8.95-20,20-20h1175c11.05,0,20,8.95,20,20v950Z"/>
  </g>
  <g id="uuid-d292b945-d58e-4ce0-a748-4a06736694a4" data-name="texto">
    <g>
      <path class="uuid-cec8cce5-89e4-4545-829a-0d1c66f94311" d="m742.14,740.11c-.13-.99-.25-1.68-.37-2.06s-.31-.68-.57-.88-.68-.32-1.27-.36l.21-.96h5.02l1.48,15.53c4.4-6.02,6.6-10.33,6.6-12.93,0-.61-.13-1.03-.39-1.25s-.7-.35-1.33-.39l.2-.96h5.04l.53.98c-.69,1.81-1.57,3.68-2.65,5.62s-2.39,4.06-3.95,6.37-3.28,4.7-5.19,7.19c-1.46,1.91-2.68,3.36-3.67,4.34-.77.74-1.47,1.31-2.12,1.69s-1.27.66-1.88.82-1.25.24-1.92.24c-.35,0-.75-.04-1.19-.11-.44-.07-.82-.17-1.13-.28l.84-3.65h1.52c.01.44.12.79.31,1.05s.48.39.86.39c.42,0,.78-.04,1.07-.13.3-.08.62-.22.95-.42s.74-.51,1.21-.94,1.01-1,1.61-1.71,1.27-1.57,2.01-2.57l-1.86-14.63Z"/>
      <path class="uuid-cec8cce5-89e4-4545-829a-0d1c66f94311" d="m768.64,740.34v-2.6h24.06v2.6h-24.06Zm0,8.11v-2.6h24.06v2.6h-24.06Z"/>
      <path class="uuid-cec8cce5-89e4-4545-829a-0d1c66f94311" d="m818.78,740.54c-.03-.99-.11-1.71-.24-2.15s-.36-.77-.66-1-.74-.33-1.3-.33c-1.32,0-2.5.52-3.54,1.57s-1.9,2.53-2.57,4.45-1,3.77-1,5.54c0,.55.05,1.06.15,1.54s.27.9.51,1.25.56.63.96.83.9.3,1.51.3c1.18,0,2.21-.22,3.08-.67s1.78-1.16,2.74-2.12l1.19,1.19c-1.22,1.35-2.46,2.34-3.7,2.97s-2.58.94-4.01.94c-1.89,0-3.32-.56-4.3-1.68s-1.46-2.75-1.46-4.88c0-1.39.26-2.92.78-4.59s1.28-3.13,2.29-4.39,2.17-2.21,3.52-2.83,2.77-.94,4.3-.94c1.04,0,1.95.06,2.72.18s1.46.25,2.06.41l-.96,4.41h-2.05Z"/>
      <path class="uuid-cec8cce5-89e4-4545-829a-0d1c66f94311" d="m829.54,754.85c-2.02,0-3.58-.57-4.7-1.7s-1.67-2.76-1.67-4.88c0-.78.1-1.7.29-2.75.25-1.37.6-2.58,1.05-3.63.59-1.32,1.34-2.45,2.26-3.41s1.97-1.69,3.16-2.19,2.47-.75,3.84-.75c1.5,0,2.72.29,3.68.86s1.65,1.35,2.08,2.33.64,2.12.64,3.41c0,1.16-.16,2.4-.49,3.71-.47,1.93-1.15,3.56-2.05,4.9s-2.02,2.36-3.38,3.06-2.93,1.04-4.73,1.04Zm-2.95-5.74c0,1.43.3,2.49.89,3.17s1.49,1.03,2.69,1.03c1.28,0,2.41-.57,3.4-1.72s1.77-2.75,2.34-4.81.86-3.88.86-5.44c0-1.41-.27-2.46-.82-3.17s-1.4-1.06-2.56-1.06c-1.35,0-2.54.57-3.54,1.7s-1.8,2.75-2.38,4.86-.87,3.93-.87,5.45Z"/>
      <path class="uuid-cec8cce5-89e4-4545-829a-0d1c66f94311" d="m854.72,740.4c-.14-1.17-.48-2.02-1.01-2.55s-1.34-.79-2.45-.79c-.61,0-1.17.11-1.66.34s-.89.56-1.17,1-.43.95-.43,1.53c0,.48.1.92.29,1.32s.52.81.99,1.24,1.11.92,1.94,1.48c1.26.85,2.15,1.67,2.66,2.46s.76,1.71.76,2.75c0,1.22-.29,2.26-.88,3.12s-1.39,1.49-2.4,1.9-2.16.62-3.44.62c-1.15,0-2.22-.08-3.21-.25s-1.96-.38-2.9-.64l.92-4.22h1.52c.09,1.2.43,2.09,1.03,2.69s1.46.89,2.59.89,2.06-.29,2.71-.87.98-1.34.98-2.29c0-.56-.1-1.06-.29-1.5s-.5-.87-.92-1.27-1.01-.87-1.78-1.39c-.82-.56-1.48-1.09-1.99-1.58s-.9-1.04-1.18-1.63-.42-1.25-.42-1.96c0-1.08.27-2.02.8-2.81s1.29-1.4,2.28-1.82,2.13-.62,3.45-.62c2.15,0,4.04.28,5.68.84l-.9,4.02h-1.56Z"/>
      <path class="uuid-cec8cce5-89e4-4545-829a-0d1c66f94311" d="m875.32,754.52h-6.13l2.46-9.92c.18-.72.34-1.44.48-2.18s.21-1.4.21-2c0-.94-.16-1.6-.47-2s-.84-.6-1.58-.6c-.53,0-1.12.22-1.77.66s-1.33,1.12-2.04,2.02-1.29,1.77-1.71,2.6-.76,1.81-1.01,2.96l-1.78,8.46h-3.38l5.02-22.32c.14-.65.24-1.12.3-1.42s.1-.56.13-.81.04-.47.04-.66c0-.55-.17-.93-.5-1.15s-.93-.34-1.79-.37l.23-1.02,4.94-.18h1.13l-3.36,13.54.23.08c1.22-1.63,2.39-2.81,3.5-3.55s2.23-1.11,3.38-1.11c1.26,0,2.22.35,2.87,1.04s.98,1.73.98,3.1c0,.83-.13,1.84-.39,3.01l-1.64,6.95c-.13.56-.22,1.01-.27,1.35s-.08.63-.08.88c0,.4.07.72.21.94s.34.39.62.5.73.2,1.34.26l-.18.96Z"/>
      <path class="uuid-cec8cce5-89e4-4545-829a-0d1c66f94311" d="m905.59,736.81c-2.53,2.7-5.17,5.36-7.93,7.99l1.82,4.28c.48,1.15.87,1.99,1.15,2.53s.55.93.78,1.17.47.42.7.53.61.2,1.11.26l-.21.96h-4.86l-2.71-7.85c-.31.27-.73.65-1.24,1.14s-1.01,1.01-1.49,1.56-.82,1-1.02,1.34-.32.63-.38.88-.09.5-.09.76c0,.34.09.61.28.8s.51.33.97.41l-.21.96h-5.57l-.37-.96c2.85-3.06,5.66-5.88,8.42-8.46l-1.86-4.36c-.38-.89-.68-1.56-.92-2.02s-.46-.82-.67-1.07-.46-.45-.74-.59-.68-.22-1.2-.26l.21-.96h4.86l2.6,7.36c.64-.59,1.24-1.19,1.82-1.82s.98-1.12,1.21-1.48.4-.69.49-.98.14-.59.14-.9c0-.72-.42-1.13-1.25-1.23l.21-.96h5.57l.39.96Z"/>
    </g>
  </g>
</svg>