<?xml version="1.0" encoding="UTF-8"?>
<svg xmlns="http://www.w3.org/2000/svg" width="1245" height="1020" xmlns:xlink="http://www.w3.org/1999/xlink" viewBox="0 0 1245 1020">
  <defs>
    <style>
      .uuid-6ec3f43c-2d25-49c3-99c2-e9e904b8c141 {
        stroke: silver;
      }

      .uuid-6ec3f43c-2d25-49c3-99c2-e9e904b8c141, .uuid-bd6ca468-e0ce-4291-99b9-0b3ca9c91b45, .uuid-869d4b3f-73f8-4c02-a169-0b1ede73728b, .uuid-89a132fc-7880-41e7-8347-078c151521d2, .uuid-de531a30-dfa1-4678-b272-39965691483c, .uuid-8548d10c-80c7-4a87-b088-d6f98e05ea76, .uuid-8275081f-02bb-4f05-a9f6-b6de2a3787b6, .uuid-5a0635eb-346d-4191-9c14-019b46be376e, .uuid-31e0710c-9dd6-4dae-8dd4-313a49268e0b {
        fill: none;
      }

      .uuid-6ec3f43c-2d25-49c3-99c2-e9e904b8c141, .uuid-bd6ca468-e0ce-4291-99b9-0b3ca9c91b45, .uuid-89a132fc-7880-41e7-8347-078c151521d2 {
        stroke-linecap: round;
        stroke-linejoin: round;
      }

      .uuid-6ec3f43c-2d25-49c3-99c2-e9e904b8c141, .uuid-89a132fc-7880-41e7-8347-078c151521d2, .uuid-8548d10c-80c7-4a87-b088-d6f98e05ea76 {
        stroke-width: 1.09px;
      }

      .uuid-bd6ca468-e0ce-4291-99b9-0b3ca9c91b45 {
        stroke: rgba(0, 0, 255, .7);
        stroke-width: 3.81px;
      }

      .uuid-8c4105f2-858f-43c7-9b62-f90d82bbd19c {
        fill: #fff;
      }

      .uuid-869d4b3f-73f8-4c02-a169-0b1ede73728b {
        stroke: #fff;
        stroke-linejoin: bevel;
        stroke-width: 3.27px;
      }

      .uuid-869d4b3f-73f8-4c02-a169-0b1ede73728b, .uuid-f8b96455-509c-4ab0-a3c0-9c02a50ed1eb {
        font-family: HelveticaNeue-UltraLight, 'Helvetica Neue UltraLight';
        font-size: 13.08px;
        font-weight: 100;
        isolation: isolate;
      }

      .uuid-89a132fc-7880-41e7-8347-078c151521d2 {
        stroke: rgba(192, 192, 192, .24);
      }

      .uuid-de531a30-dfa1-4678-b272-39965691483c {
        clip-path: url(#uuid-7d2f3f15-a5dd-4e14-8489-3124ffa65bcc);
      }

      .uuid-8548d10c-80c7-4a87-b088-d6f98e05ea76 {
        stroke: #252525;
        stroke-miterlimit: 10;
      }

      .uuid-8275081f-02bb-4f05-a9f6-b6de2a3787b6 {
        clip-path: url(#uuid-a482560b-f0f6-4613-a3eb-d6f9c05f07be);
      }

      .uuid-bb54e0f3-86d6-427c-aa03-80d6c1d55c60 {
        fill: #00699b;
      }

      .uuid-31e0710c-9dd6-4dae-8dd4-313a49268e0b {
        clip-path: url(#uuid-c5f6a0db-321f-4def-924d-da53a3f741c4);
      }

      .uuid-f8b96455-509c-4ab0-a3c0-9c02a50ed1eb {
        fill: #252525;
      }
    </style>
    <clipPath id="uuid-7d2f3f15-a5dd-4e14-8489-3124ffa65bcc">
      <rect class="uuid-5a0635eb-346d-4191-9c14-019b46be376e" y="2.61" width="1245" height="1019.39"/>
    </clipPath>
    <clipPath id="uuid-a482560b-f0f6-4613-a3eb-d6f9c05f07be">
      <rect class="uuid-5a0635eb-346d-4191-9c14-019b46be376e" y="2.61" width="1698.06" height="1055.8"/>
    </clipPath>
    <clipPath id="uuid-c5f6a0db-321f-4def-924d-da53a3f741c4">
      <rect class="uuid-5a0635eb-346d-4191-9c14-019b46be376e" x="-352.25" y="12.17" width="1601.86" height="995.99"/>
    </clipPath>
  </defs>
  <g id="uuid-136a220f-adeb-4183-a958-d972146a44ea" data-name="Grafica">
    <g class="uuid-de531a30-dfa1-4678-b272-39965691483c">
      <g class="uuid-8275081f-02bb-4f05-a9f6-b6de2a3787b6">
        <g class="uuid-31e0710c-9dd6-4dae-8dd4-313a49268e0b">
          <g>
            <rect class="uuid-8c4105f2-858f-43c7-9b62-f90d82bbd19c" x="-352.25" y="12.17" width="1601.86" height="995.99"/>
            <path class="uuid-6ec3f43c-2d25-49c3-99c2-e9e904b8c141" d="m-324.46,12.72v995.99m0-995.99v995.99M-228.57,12.72v995.99M-131.58,12.72v995.99M-34.6,12.72v995.99M62.38,12.72v995.99M159.37,12.72v995.99M255.26,12.72v995.99M352.24,12.72v995.99M546.21,12.72v995.99M642.1,12.72v995.99M739.09,12.72v995.99M836.07,12.72v995.99M933.06,12.72v995.99M1030.04,12.72v995.99M1125.93,12.72v995.99M1222.92,12.72v995.99"/>
            <path class="uuid-89a132fc-7880-41e7-8347-078c151521d2" d="m-344.08,12.72v995.99M-305.94,12.72v995.99M-286.32,12.72v995.99M-266.71,12.72v995.99M-247.09,12.72v995.99M-208.95,12.72v995.99M-189.34,12.72v995.99M-169.72,12.72v995.99M-151.2,12.72v995.99M-111.97,12.72v995.99M-92.35,12.72v995.99M-73.83,12.72v995.99M-54.22,12.72v995.99M-14.99,12.72v995.99M4.63,12.72v995.99M23.15,12.72v995.99M42.77,12.72v995.99M82,12.72v995.99M100.52,12.72v995.99M120.14,12.72v995.99M139.75,12.72v995.99M177.89,12.72v995.99M197.51,12.72v995.99M217.12,12.72v995.99M236.74,12.72v995.99M274.88,12.72v995.99M294.49,12.72v995.99M314.1,12.72v995.99M332.63,12.72v995.99M371.86,12.72v995.99M391.47,12.72v995.99M410,12.72v995.99M429.61,12.72v995.99M468.84,12.72v995.99M487.37,12.72v995.99M506.98,12.72v995.99M526.6,12.72v995.99M564.74,12.72v995.99M584.35,12.72v995.99M603.97,12.72v995.99M623.58,12.72v995.99M661.72,12.72v995.99M681.33,12.72v995.99M700.95,12.72v995.99M719.47,12.72v995.99M758.7,12.72v995.99M778.32,12.72v995.99M796.84,12.72v995.99M816.46,12.72v995.99M855.69,12.72v995.99M875.3,12.72v995.99M893.83,12.72v995.99M913.44,12.72v995.99M952.67,12.72v995.99M971.19,12.72v995.99M990.81,12.72v995.99M1010.42,12.72v995.99M1048.56,12.72v995.99m19.61-995.99v995.99m19.61-995.99v995.99m19.61-995.99v995.99M1145.55,12.72v995.99m19.61-995.99v995.99m19.61-995.99v995.99m18.52-995.99v995.99M1242.53,12.72v995.99"/>
            <path class="uuid-6ec3f43c-2d25-49c3-99c2-e9e904b8c141" d="m-351.7,24.7h1601.86m-1601.86,0h1601.86M-351.7,120.6h1601.86M-351.7,217.58h1601.86m-1601.86,96.98h1601.86m-1601.86,96.98h1601.86m-1601.86,95.89h1601.86m-1601.86,96.98h1601.86m-1601.86,96.98h1601.86m-1601.86,96.98h1601.86m-1601.86,192.88h1601.86"/>
            <path class="uuid-89a132fc-7880-41e7-8347-078c151521d2" d="m-351.7,24.7h1601.86M-351.7,43.23h1601.86M-351.7,62.84h1601.86m-1601.86,19.61h1601.86m-1601.86,19.61h1601.86m-1601.86,38.14h1601.86m-1601.86,19.61h1601.86m-1601.86,19.61h1601.86m-1601.86,18.52h1601.86m-1601.86,39.23h1601.86m-1601.86,19.61h1601.86m-1601.86,18.52h1601.86m-1601.86,19.61h1601.86m-1601.86,39.23h1601.86m-1601.86,18.52h1601.86m-1601.86,19.61h1601.86m-1601.86,19.61h1601.86m-1601.86,38.14h1601.86m-1601.86,19.61h1601.86m-1601.86,19.61h1601.86m-1601.86,19.61h1601.86m-1601.86,38.14h1601.86m-1601.86,19.61h1601.86m-1601.86,19.61h1601.86m-1601.86,18.52h1601.86m-1601.86,39.23h1601.86m-1601.86,19.61h1601.86m-1601.86,18.52h1601.86m-1601.86,19.61h1601.86m-1601.86,39.23h1601.86m-1601.86,19.61h1601.86m-1601.86,18.52h1601.86m-1601.86,19.61h1601.86m-1601.86,39.23h1601.86m-1601.86,18.52h1601.86m-1601.86,19.61h1601.86m-1601.86,19.61h1601.86m-1601.86,38.14h1601.86m-1601.86,19.61h1601.86m-1601.86,19.61h1601.86m-1601.86,19.61h1601.86"/>
            <path class="uuid-8548d10c-80c7-4a87-b088-d6f98e05ea76" d="m449.23,14.89v993.81"/>
            <path class="uuid-8548d10c-80c7-4a87-b088-d6f98e05ea76" d="m449.23,13.81l-4.36,4.36"/>
            <path class="uuid-8548d10c-80c7-4a87-b088-d6f98e05ea76" d="m449.23,13.81l4.36,4.36"/>
            <path class="uuid-8548d10c-80c7-4a87-b088-d6f98e05ea76" d="m-351.7,895.37h1599.68"/>
            <path class="uuid-8548d10c-80c7-4a87-b088-d6f98e05ea76" d="m1249.07,895.37l-4.36-4.36"/>
            <path class="uuid-8548d10c-80c7-4a87-b088-d6f98e05ea76" d="m1249.07,895.37l-4.36,4.36"/>
            <text class="uuid-f8b96455-509c-4ab0-a3c0-9c02a50ed1eb" transform="translate(56.39 912.26)"><tspan x="0" y="0">–4</tspan></text>
            <text class="uuid-869d4b3f-73f8-4c02-a169-0b1ede73728b" transform="translate(56.39 912.26)"><tspan x="0" y="0">–4</tspan></text>
            <text class="uuid-f8b96455-509c-4ab0-a3c0-9c02a50ed1eb" transform="translate(56.39 912.26)"><tspan x="0" y="0">–4</tspan></text>
            <text class="uuid-f8b96455-509c-4ab0-a3c0-9c02a50ed1eb" transform="translate(153.37 912.26)"><tspan x="0" y="0">–3</tspan></text>
            <text class="uuid-869d4b3f-73f8-4c02-a169-0b1ede73728b" transform="translate(153.37 912.26)"><tspan x="0" y="0">–3</tspan></text>
            <text class="uuid-f8b96455-509c-4ab0-a3c0-9c02a50ed1eb" transform="translate(153.37 912.26)"><tspan x="0" y="0">–3</tspan></text>
            <text class="uuid-f8b96455-509c-4ab0-a3c0-9c02a50ed1eb" transform="translate(249.27 912.26)"><tspan x="0" y="0">–2</tspan></text>
            <text class="uuid-869d4b3f-73f8-4c02-a169-0b1ede73728b" transform="translate(249.27 912.26)"><tspan x="0" y="0">–2</tspan></text>
            <text class="uuid-f8b96455-509c-4ab0-a3c0-9c02a50ed1eb" transform="translate(249.27 912.26)"><tspan x="0" y="0">–2</tspan></text>
            <text class="uuid-f8b96455-509c-4ab0-a3c0-9c02a50ed1eb" transform="translate(346.25 912.26)"><tspan x="0" y="0">–1</tspan></text>
            <text class="uuid-869d4b3f-73f8-4c02-a169-0b1ede73728b" transform="translate(346.25 912.26)"><tspan x="0" y="0">–1</tspan></text>
            <text class="uuid-f8b96455-509c-4ab0-a3c0-9c02a50ed1eb" transform="translate(346.25 912.26)"><tspan x="0" y="0">–1</tspan></text>
            <text class="uuid-f8b96455-509c-4ab0-a3c0-9c02a50ed1eb" transform="translate(543.49 912.26)"><tspan x="0" y="0">1</tspan></text>
            <text class="uuid-869d4b3f-73f8-4c02-a169-0b1ede73728b" transform="translate(543.49 912.26)"><tspan x="0" y="0">1</tspan></text>
            <text class="uuid-f8b96455-509c-4ab0-a3c0-9c02a50ed1eb" transform="translate(543.49 912.26)"><tspan x="0" y="0">1</tspan></text>
            <text class="uuid-f8b96455-509c-4ab0-a3c0-9c02a50ed1eb" transform="translate(639.38 912.26)"><tspan x="0" y="0">2</tspan></text>
            <text class="uuid-869d4b3f-73f8-4c02-a169-0b1ede73728b" transform="translate(639.38 912.26)"><tspan x="0" y="0">2</tspan></text>
            <text class="uuid-f8b96455-509c-4ab0-a3c0-9c02a50ed1eb" transform="translate(639.38 912.26)"><tspan x="0" y="0">2</tspan></text>
            <text class="uuid-f8b96455-509c-4ab0-a3c0-9c02a50ed1eb" transform="translate(736.36 912.26)"><tspan x="0" y="0">3</tspan></text>
            <text class="uuid-869d4b3f-73f8-4c02-a169-0b1ede73728b" transform="translate(736.36 912.26)"><tspan x="0" y="0">3</tspan></text>
            <text class="uuid-f8b96455-509c-4ab0-a3c0-9c02a50ed1eb" transform="translate(736.36 912.26)"><tspan x="0" y="0">3</tspan></text>
            <text class="uuid-f8b96455-509c-4ab0-a3c0-9c02a50ed1eb" transform="translate(833.35 912.26)"><tspan x="0" y="0">4</tspan></text>
            <text class="uuid-869d4b3f-73f8-4c02-a169-0b1ede73728b" transform="translate(833.35 912.26)"><tspan x="0" y="0">4</tspan></text>
            <text class="uuid-f8b96455-509c-4ab0-a3c0-9c02a50ed1eb" transform="translate(833.35 912.26)"><tspan x="0" y="0">4</tspan></text>
            <text class="uuid-f8b96455-509c-4ab0-a3c0-9c02a50ed1eb" transform="translate(930.33 912.26)"><tspan x="0" y="0">5</tspan></text>
            <text class="uuid-869d4b3f-73f8-4c02-a169-0b1ede73728b" transform="translate(930.33 912.26)"><tspan x="0" y="0">5</tspan></text>
            <text class="uuid-f8b96455-509c-4ab0-a3c0-9c02a50ed1eb" transform="translate(930.33 912.26)"><tspan x="0" y="0">5</tspan></text>
            <text class="uuid-f8b96455-509c-4ab0-a3c0-9c02a50ed1eb" transform="translate(1027.32 912.26)"><tspan x="0" y="0">6</tspan></text>
            <text class="uuid-869d4b3f-73f8-4c02-a169-0b1ede73728b" transform="translate(1027.32 912.26)"><tspan x="0" y="0">6</tspan></text>
            <text class="uuid-f8b96455-509c-4ab0-a3c0-9c02a50ed1eb" transform="translate(1027.32 912.26)"><tspan x="0" y="0">6</tspan></text>
            <text class="uuid-f8b96455-509c-4ab0-a3c0-9c02a50ed1eb" transform="translate(1123.21 912.26)"><tspan x="0" y="0">7</tspan></text>
            <text class="uuid-869d4b3f-73f8-4c02-a169-0b1ede73728b" transform="translate(1123.21 912.26)"><tspan x="0" y="0">7</tspan></text>
            <text class="uuid-f8b96455-509c-4ab0-a3c0-9c02a50ed1eb" transform="translate(1123.21 912.26)"><tspan x="0" y="0">7</tspan></text>
            <text class="uuid-f8b96455-509c-4ab0-a3c0-9c02a50ed1eb" transform="translate(1220.19 912.26)"><tspan x="0" y="0">8</tspan></text>
            <text class="uuid-869d4b3f-73f8-4c02-a169-0b1ede73728b" transform="translate(1220.19 912.26)"><tspan x="0" y="0">8</tspan></text>
            <text class="uuid-f8b96455-509c-4ab0-a3c0-9c02a50ed1eb" transform="translate(1220.19 912.26)"><tspan x="0" y="0">8</tspan></text>
            <text class="uuid-f8b96455-509c-4ab0-a3c0-9c02a50ed1eb" transform="translate(426.89 996.17)"><tspan x="0" y="0">–1</tspan></text>
            <text class="uuid-869d4b3f-73f8-4c02-a169-0b1ede73728b" transform="translate(426.89 996.17)"><tspan x="0" y="0">–1</tspan></text>
            <text class="uuid-f8b96455-509c-4ab0-a3c0-9c02a50ed1eb" transform="translate(426.89 996.17)"><tspan x="0" y="0">–1</tspan></text>
            <text class="uuid-f8b96455-509c-4ab0-a3c0-9c02a50ed1eb" transform="translate(433.43 803.29)"><tspan x="0" y="0">1</tspan></text>
            <text class="uuid-869d4b3f-73f8-4c02-a169-0b1ede73728b" transform="translate(433.43 803.29)"><tspan x="0" y="0">1</tspan></text>
            <text class="uuid-f8b96455-509c-4ab0-a3c0-9c02a50ed1eb" transform="translate(433.43 803.29)"><tspan x="0" y="0">1</tspan></text>
            <text class="uuid-f8b96455-509c-4ab0-a3c0-9c02a50ed1eb" transform="translate(433.43 706.31)"><tspan x="0" y="0">2</tspan></text>
            <text class="uuid-869d4b3f-73f8-4c02-a169-0b1ede73728b" transform="translate(433.43 706.31)"><tspan x="0" y="0">2</tspan></text>
            <text class="uuid-f8b96455-509c-4ab0-a3c0-9c02a50ed1eb" transform="translate(433.43 706.31)"><tspan x="0" y="0">2</tspan></text>
            <text class="uuid-f8b96455-509c-4ab0-a3c0-9c02a50ed1eb" transform="translate(433.43 609.33)"><tspan x="0" y="0">3</tspan></text>
            <text class="uuid-869d4b3f-73f8-4c02-a169-0b1ede73728b" transform="translate(433.43 609.33)"><tspan x="0" y="0">3</tspan></text>
            <text class="uuid-f8b96455-509c-4ab0-a3c0-9c02a50ed1eb" transform="translate(433.43 609.33)"><tspan x="0" y="0">3</tspan></text>
            <text class="uuid-f8b96455-509c-4ab0-a3c0-9c02a50ed1eb" transform="translate(433.43 512.34)"><tspan x="0" y="0">4</tspan></text>
            <text class="uuid-869d4b3f-73f8-4c02-a169-0b1ede73728b" transform="translate(433.43 512.34)"><tspan x="0" y="0">4</tspan></text>
            <text class="uuid-f8b96455-509c-4ab0-a3c0-9c02a50ed1eb" transform="translate(433.43 512.34)"><tspan x="0" y="0">4</tspan></text>
            <text class="uuid-f8b96455-509c-4ab0-a3c0-9c02a50ed1eb" transform="translate(433.43 416.45)"><tspan x="0" y="0">5</tspan></text>
            <text class="uuid-869d4b3f-73f8-4c02-a169-0b1ede73728b" transform="translate(433.43 416.45)"><tspan x="0" y="0">5</tspan></text>
            <text class="uuid-f8b96455-509c-4ab0-a3c0-9c02a50ed1eb" transform="translate(433.43 416.45)"><tspan x="0" y="0">5</tspan></text>
            <text class="uuid-f8b96455-509c-4ab0-a3c0-9c02a50ed1eb" transform="translate(433.43 319.47)"><tspan x="0" y="0">6</tspan></text>
            <text class="uuid-869d4b3f-73f8-4c02-a169-0b1ede73728b" transform="translate(433.43 319.47)"><tspan x="0" y="0">6</tspan></text>
            <text class="uuid-f8b96455-509c-4ab0-a3c0-9c02a50ed1eb" transform="translate(433.43 319.47)"><tspan x="0" y="0">6</tspan></text>
            <text class="uuid-f8b96455-509c-4ab0-a3c0-9c02a50ed1eb" transform="translate(433.43 222.48)"><tspan x="0" y="0">7</tspan></text>
            <text class="uuid-869d4b3f-73f8-4c02-a169-0b1ede73728b" transform="translate(433.43 222.48)"><tspan x="0" y="0">7</tspan></text>
            <text class="uuid-f8b96455-509c-4ab0-a3c0-9c02a50ed1eb" transform="translate(433.43 222.48)"><tspan x="0" y="0">7</tspan></text>
            <text class="uuid-f8b96455-509c-4ab0-a3c0-9c02a50ed1eb" transform="translate(433.43 125.5)"><tspan x="0" y="0">8</tspan></text>
            <text class="uuid-869d4b3f-73f8-4c02-a169-0b1ede73728b" transform="translate(433.43 125.5)"><tspan x="0" y="0">8</tspan></text>
            <text class="uuid-f8b96455-509c-4ab0-a3c0-9c02a50ed1eb" transform="translate(433.43 125.5)"><tspan x="0" y="0">8</tspan></text>
            <text class="uuid-f8b96455-509c-4ab0-a3c0-9c02a50ed1eb" transform="translate(433.43 29.6)"><tspan x="0" y="0">9</tspan></text>
            <text class="uuid-869d4b3f-73f8-4c02-a169-0b1ede73728b" transform="translate(433.43 29.6)"><tspan x="0" y="0">9</tspan></text>
            <text class="uuid-f8b96455-509c-4ab0-a3c0-9c02a50ed1eb" transform="translate(433.43 29.6)"><tspan x="0" y="0">9</tspan></text>
            <text class="uuid-f8b96455-509c-4ab0-a3c0-9c02a50ed1eb" transform="translate(433.43 912.26)"><tspan x="0" y="0">0</tspan></text>
            <text class="uuid-869d4b3f-73f8-4c02-a169-0b1ede73728b" transform="translate(433.43 912.26)"><tspan x="0" y="0">0</tspan></text>
            <text class="uuid-f8b96455-509c-4ab0-a3c0-9c02a50ed1eb" transform="translate(433.43 912.26)"><tspan x="0" y="0">0</tspan></text>
            <path class="uuid-bd6ca468-e0ce-4291-99b9-0b3ca9c91b45" d="m-351.16-5762.28v38.19h0l1.09,37.98h0l1.09,37.76h0l1.09,37.54h0l1.09,37.33h0l1.09,37.11h0l1.09,36.9h0l1.09,36.69h0l1.09,36.48h0l1.09,36.27h0l1.09,36.06h0l1.09,35.85h0l1.09,35.65h0l1.09,35.44h0l1.09,35.24h0l1.09,35.04h0l1.09,34.84h0l1.09,34.64h0l1.09,34.44h0l1.09,34.24h0l1.09,34.04h0l1.09,33.85h0l1.09,33.65h0l1.09,33.46h0l1.09,33.27h0l1.09,33.08h0l1.09,32.89h0l1.09,32.7h0l1.09,32.51h0l1.09,32.33h0l1.09,32.14h0l1.09,31.96h0l1.09,31.77h0l1.09,31.59h0l1.09,31.41h0l1.09,31.23h0l1.09,31.05h0l1.09,30.87h0l1.09,30.69h0l1.09,30.52h0l1.09,30.34h0l1.09,30.17h0l1.09,30h0l1.09,29.82h0l1.09,29.65h0l1.09,29.48h0l1.09,29.31h0l1.09,29.15h0l1.09,28.98h0l1.09,28.81h0l1.09,28.65h0l1.09,28.48h0l1.09,28.32h0l1.09,28.16h0l1.09,27.99h0l1.09,27.83h0l1.09,27.67h0l1.09,27.51h0l1.09,27.36h0l1.09,27.2h0l1.09,27.04h0l1.09,26.89h0l1.09,26.73h0l1.09,26.58h0l1.09,26.43h0l1.09,26.28h0l1.09,26.13h0l1.09,25.98h0l1.09,25.83h0l1.09,25.68h0l1.09,25.53h0l1.09,25.39h0l1.09,25.24h0l1.09,25.1h0l1.09,24.95h0l1.09,24.81h0l1.09,24.67h0l1.09,24.52h0l1.09,24.38h0l1.09,24.24h0l1.09,24.1h0l1.09,23.97h0l1.09,23.83h0l1.09,23.69h0l1.09,23.56h0l1.09,23.42h0l1.09,23.29h0l1.09,23.15h0l1.09,23.02h0l1.09,22.89h0l1.09,22.76h0l1.09,22.63h0l1.09,22.5h0l1.09,22.37h0l1.09,22.24h0l1.09,22.11h0l1.09,21.98h0l1.09,21.86h0l1.09,21.73h0l1.09,21.61h0l1.09,21.48h0l1.09,21.36h0l1.09,21.24h0l1.09,21.12h0l1.09,21h0l1.09,20.87h0l1.09,20.75h0l1.09,20.64h0l1.09,20.52h0l1.09,20.4h0l1.09,20.28h0l1.09,20.17h0l1.09,20.05h0l1.09,19.94h0l1.09,19.82h0l1.09,19.71h0l1.09,19.59h0l1.09,19.48h0l1.09,19.37h0l1.09,19.26h0l1.09,19.15h0l1.09,19.04h0l1.09,18.93h0l1.09,18.82h0l1.09,18.71h0l1.09,18.61h0l1.09,18.5h0l1.09,18.39h0l1.09,18.29h0l1.09,18.18h0l1.09,18.08h0l1.09,17.97h0l1.09,17.87h0l1.09,17.77h0l1.09,17.67h0l1.09,17.57h0l1.09,17.46h0l1.09,17.36h0l1.09,17.26h0l1.09,17.17h0l1.09,17.07h0l1.09,16.97h0l1.09,16.87h0l1.09,16.78h0l1.09,16.68h0l1.09,16.58h0l1.09,16.49h0l1.09,16.39h0l1.09,16.3h0l1.09,16.21h0l1.09,16.11h0l1.09,16.02h0l1.09,15.93h0l1.09,15.84h0l1.09,15.75h0l1.09,15.66h0l1.09,15.57h0l1.09,15.48h0l1.09,15.39h0l1.09,15.3h0l1.09,15.21h0l1.09,15.12h0l1.09,15.04h0l1.09,14.95h0l1.09,14.87h0l1.09,14.78h0l1.09,14.7h0l1.09,14.61h0l1.09,14.53h0l1.09,14.44h0l1.09,14.36h0l1.09,14.28h0l1.09,14.2h0l1.09,14.12h0l1.09,14.03h0l1.09,13.95h0l1.09,13.87h0l1.09,13.79h0l1.09,13.72h0l1.09,13.64h0l1.09,13.56h0l1.09,13.48h0l1.09,13.4h0l1.09,13.33h0l1.09,13.25h0l1.09,13.17h0l1.09,13.1h0l1.09,13.02h0l1.09,12.95h0l1.09,12.87h0l1.09,12.8h0l1.09,12.73h0l1.09,12.65h0l1.09,12.58h0l1.09,12.51h0l1.09,12.44h0l1.09,12.37h0l1.09,12.29h0l1.09,12.22h0l1.09,12.15h0l1.09,12.08h0l1.09,12.02h0l1.09,11.95h0l1.09,11.88h0l1.09,11.81h0l1.09,11.74h0l1.09,11.67h0l1.09,11.61h0l1.09,11.54h0l1.09,11.47h0l1.09,11.41h0l1.09,11.34h0l1.09,11.28h0l1.09,11.21h0l1.09,11.15h0l1.09,11.09h0l1.09,11.02h0l1.09,10.96h0l1.09,10.9h0l1.09,10.83h0l1.09,10.77h0l1.09,10.71h0l1.09,10.65h0l1.09,10.59h0l1.09,10.53h0l1.09,10.47h0l1.09,10.41h0l1.09,10.35h0l1.09,10.29h0l1.09,10.23h0l1.09,10.17h0l1.09,10.11h0l1.09,10.05h0l1.09,9.99h0l1.09,9.94h0l1.09,9.88h0l1.09,9.82h0l1.09,9.77h0l1.09,9.71h0l1.09,9.66h0l1.09,9.6h0l1.09,9.54h0l1.09,9.49h0l1.09,9.44h0l1.09,9.38h0l1.09,9.33h0l1.09,9.27h0l1.09,9.22h0l1.09,9.17h0l1.09,9.12h0l1.09,9.06h0l1.09,9.01h0l1.09,8.96h0l1.09,8.91h0l1.09,8.86h0l1.09,8.81h0l1.09,8.76h0l1.09,8.71h0l1.09,8.66h0l1.09,8.61h0l1.09,8.56h0l1.09,8.51h0l1.09,8.46h0l1.09,8.41h0l1.09,8.36h0l1.09,8.31h0l1.09,8.27h0l1.09,8.22h0l1.09,8.17h0l1.09,8.12h0l1.09,8.08h0l1.09,8.03h0l1.09,7.99h0l1.09,7.94h0l1.09,7.89h0l1.09,7.85h0l1.09,7.8h0l1.09,7.76h0l1.09,7.71h0l1.09,7.67h0l1.09,7.63h0l1.09,7.58h0l1.09,7.54h0l1.09,7.5h0l1.09,7.45h0l1.09,7.41h0l1.09,7.37h0l1.09,7.33h0l1.09,7.28h0l1.09,7.24h0l1.09,7.2h0l1.09,7.16h0l1.09,7.12h0l1.09,7.08h0l1.09,7.04h0l1.09,7h0l1.09,6.96h0l1.09,6.92h0l1.09,6.88h0l1.09,6.84h0l1.09,6.8h0l1.09,6.76h0l1.09,6.72h0l1.09,6.68h0l1.09,6.64h0l1.09,6.6h0l1.09,6.57h0l1.09,6.53h0l1.09,6.49h0l1.09,6.45h0l1.09,6.42h0l1.09,6.38h0l1.09,6.34h0l1.09,6.31h0l1.09,6.27h0l1.09,6.24h0l1.09,6.2h0l1.09,6.16h0l1.09,6.13h0l1.09,6.09h0l1.09,6.06h0l1.09,6.02h0l1.09,5.99H-.27l1.09,5.95h0l1.09,5.92h0l1.09,5.89h0l1.09,5.85h0l1.09,5.82h0l1.09,5.79h0l1.09,5.75h0l1.09,5.72h0l1.09,5.69h0l1.09,5.65h0l1.09,5.62h0l1.09,5.59h0l1.09,5.56h0l1.09,5.53h0l1.09,5.49h0l1.09,5.46h0l1.09,5.43h0l1.09,5.4h0l1.09,5.37h0l1.09,5.34h0l1.09,5.31h0l1.09,5.28h0l1.09,5.25h0l1.09,5.22h0l1.09,5.19h0l1.09,5.16h0l1.09,5.13h0l1.09,5.1h0l1.09,5.07h0l1.09,5.04h0l1.09,5.01h0l1.09,4.98h0l1.09,4.95h0l1.09,4.92h0l1.09,4.9h0l1.09,4.87h0l1.09,4.84h0l1.09,4.81h0l1.09,4.79h0l1.09,4.76h0l1.09,4.73h0l1.09,4.7h0l1.09,4.68h0l1.09,4.65h0l1.09,4.62h0l1.09,4.6h0l1.09,4.57h0l1.09,4.54h0l1.09,4.52h0l1.09,4.49h0l1.09,4.47h0l1.09,4.44h0l1.09,4.41h0l1.09,4.39h0l1.09,4.36h0l1.09,4.34h0l1.09,4.31h0l1.09,4.29h0l1.09,4.26h0l1.09,4.24h0l1.09,4.22h0l1.09,4.19h0l1.09,4.17h0l1.09,4.14h0l1.09,4.12h0l1.09,4.1h0l1.09,4.07h0l1.09,4.05h0l1.09,4.03h0l1.09,4h0l1.09,3.98h0l1.09,3.96h0l1.09,3.93h0l1.09,3.91h0l1.09,3.89h0l1.09,3.87h0l1.09,3.85h0l1.09,3.82h0l1.09,3.8h0l1.09,3.78h0l1.09,3.76h0l1.09,3.74h0l1.09,3.71h0l1.09,3.69h0l1.09,3.67h0l1.09,3.65h0l1.09,3.63h0l1.09,3.61h0l1.09,3.59h0l1.09,3.57h0l1.09,3.55h0l1.09,3.53h0l1.09,3.51h0l1.09,3.49h0l1.09,3.47h0l1.09,3.45h0l1.09,3.43h0l1.09,3.41h0l1.09,3.39h0l1.09,3.37h0l1.09,3.35h0l1.09,3.33h0l1.09,3.31h0l1.09,3.29h0l1.09,3.27h0l1.09,3.25h0l1.09,3.24h0l1.09,3.22h0l1.09,3.2h0l1.09,3.18h0l1.09,3.16h0l1.09,3.14h0l1.09,3.13h0l1.09,3.11h0l1.09,3.09h0l1.09,3.07h0l1.09,3.05h0l1.09,3.04h0l1.09,3.02h0l1.09,3h0l1.09,2.99h0l1.09,2.97h0l1.09,2.95h0l1.09,2.93h0l1.09,2.92h0l1.09,2.9h0l1.09,2.88h0l1.09,2.87h0l1.09,2.85h0l1.09,2.83h0l1.09,2.82h0l1.09,2.8h0l1.09,2.79h0l1.09,2.77h0l1.09,2.75h0l1.09,2.74h0l1.09,2.72h0l1.09,2.71h0l1.09,2.69h0l1.09,2.68h0l1.09,2.66h0l1.09,2.65h0l1.09,2.63h0l1.09,2.62h0l1.09,2.6h0l1.09,2.59h0l1.09,2.57h0l1.09,2.56h0l1.09,2.54h0l1.09,2.53h0l1.09,2.51h0l1.09,2.5h0l1.09,2.48h0l1.09,2.47h0l1.09,2.45h0l1.09,2.44h0l1.09,2.43h0l1.09,2.41h0l1.09,2.4h0l1.09,2.39h0l1.09,2.37h0l1.09,2.36h0l1.09,2.34h0l1.09,2.33h0l1.09,2.32h0l1.09,2.3h0l1.09,2.29h0l1.09,2.28h0l1.09,2.26h0l1.09,2.25h0l1.09,2.24h0l1.09,2.23h0l1.09,2.21h0l1.09,2.2h0l1.09,2.19h0l1.09,2.18h0l1.09,2.16h0l1.09,2.15h0l1.09,2.14h0l1.09,2.13h0l1.09,2.11h0l1.09,2.1h0l1.09,2.09h0l1.09,2.08h0l1.09,2.07h0l1.09,2.05h0l1.09,2.04h0l1.09,2.03h0l1.09,2.02h0l1.09,2.01h0l1.09,2h0l1.09,1.98h0l1.09,1.97h0l1.09,1.96h0l1.09,1.95h0l1.09,1.94h0l1.09,1.93h0l1.09,1.92h0l1.09,1.91h0l1.09,1.89h0l1.09,1.88h0l1.09,1.87h0l1.09,1.86h0l1.09,1.85h0l1.09,1.84h0l1.09,1.83h0l1.09,1.82h0l1.09,1.81h0l1.09,1.8h0l1.09,1.79h0l1.09,1.78h0l1.09,1.77h0l1.09,1.76h0l1.09,1.75h0l1.09,1.74h0l1.09,1.73h0l1.09,1.72h0l1.09,1.71h0l1.09,1.7h0l1.09,1.69h0l1.09,1.68h0l1.09,1.67h0l1.09,1.66h0l1.09,1.65h0l1.09,1.64h0l1.09,1.63h0l1.09,1.62h0l1.09,1.61h0l1.09,1.6h0l1.09,1.59h0l1.09,1.59h0l1.09,1.58h0l1.09,1.57h0l1.09,1.56h0l1.09,1.55h0l1.09,1.54h0l1.09,1.53h0l1.09,1.52h0l1.09,1.51h0l1.09,1.51h0l1.09,1.5h0l1.09,1.49h0l1.09,1.48h0l1.09,1.47h0l1.09,1.46h0l1.09,1.45h0l1.09,1.45h0l1.09,1.44h0l1.09,1.43h0l1.09,1.42h0l1.09,1.41h0l1.09,1.4h0l1.09,1.4h0l1.09,1.39h0l1.09,1.38h0l1.09,1.37h0l1.09,1.36h0l1.09,1.36h0l1.09,1.35h0l1.09,1.34h0l1.09,1.33h0l1.09,1.33h0l1.09,1.32h0l1.09,1.31h0l1.09,1.3h0l1.09,1.3h0l1.09,1.29h0l1.09,1.28h0l1.09,1.27h0l1.09,1.27h0l1.09,1.26h0l1.09,1.25h0l1.09,1.24h0l1.09,1.24h0l1.09,1.23h0l1.09,1.22h0l1.09,1.22h0l1.09,1.21h0l1.09,1.2h0l1.09,1.2h0l1.09,1.19h0l1.09,1.18h0l1.09,1.18h0l1.09,1.17h0l1.09,1.16h0l1.09,1.16h0l1.09,1.15h0l1.09,1.14h0l1.09,1.14h0l1.09,1.13h0l1.09,1.12h0l1.09,1.12h0l1.09,1.11h0l1.09,1.1h0l1.09,1.1h0l1.09,1.09h0l1.09,1.08h0l1.09,1.08h0l1.09,1.07h0l1.09,1.07h0l1.09,1.06h0l1.09,1.05h0l1.09,1.05h0l1.09,1.04h0l1.09,1.04h0l1.09,1.03h0l1.09,1.02h0l1.09,1.02h0l1.09,1.01h0l1.09,1.01h0l1.09,1h0l1.09.99h0l1.09.99h0l1.09.98h0l1.09.98h0l1.09.97h0l1.09.97h0l1.09.96h0l1.09.96h0l1.09.95h0l1.09.94h0l1.09.94h0l1.09.93h0l1.09.93h0l1.09.92h0l1.09.92h0l1.09.91h0l1.09.91h0l1.09.9h0l1.09.9h0l1.09.89h0l1.09.89h0l1.09.88h0l1.09.88h0l1.09.87h0l1.09.87h0l1.09.86h0l1.09.86h0l1.09.85h0l1.09.85h0l1.09.84h0l1.09.84h0l1.09.83h0l1.09.83h0l1.09.82h0l1.09.82h0l1.09.81h0l1.09.81h0l1.09.8h0l1.09.8h0l1.09.79h0l1.09.79h0l1.09.79h0l1.09.78h0l1.09.78h0l1.09.77h0l1.09.77h0l1.09.76h0l1.09.76h0l1.09.75h0l1.09.75h0l1.09.75h0l1.09.74h0l1.09.74h0l1.09.73h0l1.09.73h0l1.09.72h0l1.09.72h0l1.09.72h0l1.09.71h0l1.09.71h0l1.09.7h0l1.09.7h0l1.09.7h0l1.09.69h0l1.09.69h0l1.09.68h0l1.09.68h0l1.09.68h0l1.09.67h0l1.09.67h0l1.09.66h0l1.09.66h0l1.09.66h0l1.09.65h0l1.09.65h0l1.09.65h0l1.09.64h0l1.09.64h0l1.09.63h0l1.09.63h0l1.09.63h0l1.09.62h0l1.09.62h0l1.09.62h0l1.09.61h0l1.09.61h0l1.09.61h0l1.09.6h0l1.09.6h0l1.09.6h0l1.09.59h0l1.09.59h0l1.09.59h0l1.09.58h0l1.09.58h0l1.09.58h0l1.09.57h0l1.09.57h0l1.09.57h0l1.09.56h0l1.09.56h0l1.09.56h0l1.09.55h0l1.09.55h0l1.09.55h0l1.09.54h0l1.09.54h0l1.09.54h0l1.09.53h0l1.09.53h0l1.09.53h0l1.09.53h0l1.09.52h0l1.09.52h0l1.09.52h0l1.09.51h0l1.09.51h0l1.09.51h0l1.09.5h0l1.09.5h0l1.09.5h0l1.09.5h0l1.09.49h0l1.09.49h0l1.09.49h0l1.09.48h0l1.09.48h0l1.09.48h0l1.09.48h0l1.09.47h0l1.09.47h0l1.09.47h0l1.09.47h0l1.09.46h0l1.09.46h0l1.09.46h0l1.09.45h0l1.09.45h0l1.09.45h0l1.09.45h0l1.09.44h0l1.09.44h0l1.09.44h0l1.09.44h0l1.09.43h0l1.09.43h0l1.09.43h0l1.09.43h0l1.09.42h0l1.09.42h0l1.09.42h0l1.09.42h0l1.09.41h0l1.09.41h0l1.09.41h0l1.09.41h0l1.09.41h0l1.09.4h0l1.09.4h0l1.09.4h0l1.09.4h0l1.09.39h0l1.09.39h0l1.09.39h0l1.09.39h0l1.09.38h0l1.09.38h0l1.09.38h0l1.09.38h0l1.09.38h0l1.09.37h0l1.09.37h0l1.09.37h0l1.09.37h0l1.09.37h0l1.09.36h0l1.09.36h0l1.09.36h0l1.09.36h0l1.09.36h0l1.09.35h0l1.09.35h0l1.09.35h0l1.09.35h0l1.09.35h0l1.09.34h0l1.09.34h0l1.09.34h0l1.09.34h0l1.09.34h0l1.09.33h0l1.09.33h0l1.09.33h0l1.09.33h0l1.09.33h0l1.09.32h0l1.09.32h0l1.09.32h0l1.09.32h0l1.09.32h0l1.09.31h0l1.09.31h0l1.09.31h0l1.09.31h0l1.09.31h0l1.09.31h0l1.09.3h0l1.09.3h0l1.09.3h0l1.09.3h0l1.09.3h0l1.09.3h0l1.09.29h0l1.09.29h0l1.09.29h0l1.09.29h0l1.09.29h0l1.09.29h0l1.09.28h0l1.09.28h0l1.09.28h0l1.09.28h0l1.09.28h0l1.09.28h0l1.09.27h0l1.09.27h0l1.09.27h0l1.09.27h0l1.09.27h0l1.09.27h0l1.09.26h0l1.09.26h0l1.09.26h0l1.09.26h0l1.09.26h0l1.09.26h0l1.09.26h0l1.09.25h0l1.09.25h0l1.09.25h0l1.09.25h0l1.09.25h0l1.09.25h0l1.09.25h0l1.09.24h0l1.09.24h0l1.09.24h0l1.09.24h0l1.09.24h0l1.09.24h0l1.09.24h0l1.09.23h0l1.09.23h0l1.09.23h0l1.09.23h0l1.09.23h0l1.09.23h0l1.09.23h0l1.09.23h0l1.09.22h0l1.09.22h0l1.09.22h0l1.09.22h0l1.09.22h0l1.09.22h0l1.09.22h0l1.09.22h0l1.09.21h0l1.09.21h0l1.09.21h0l1.09.21h0l1.09.21h0l1.09.21h0l1.09.21h0l1.09.21h0l1.09.2h0l1.09.2h0l1.09.2h0l1.09.2h0l1.09.2h0l1.09.2h0l1.09.2h0l1.09.2h0l1.09.2h0l1.09.19h0l1.09.19h0l1.09.19h0l1.09.19h0l1.09.19h0l1.09.19h0l1.09.19h0l1.09.19h0l1.09.19h0l1.09.18h0l1.09.18h0l1.09.18h0l1.09.18h0l1.09.18h0l1.09.18h0l1.09.18h0l1.09.18h0l1.09.18h0l1.09.17h0l1.09.17h0l1.09.17h0l1.09.17h0l1.09.17h0l1.09.17h0l1.09.17h0l1.09.17h0l1.09.17h0l1.09.17h0l1.09.17h0l1.09.16h0l1.09.16h0l1.09.16h0l1.09.16h0l1.09.16h0l1.09.16h0l1.09.16h0l1.09.16h0l1.09.16h0l1.09.16h0l1.09.16h0l1.09.15h0l1.09.15h0l1.09.15h0l1.09.15h0l1.09.15h0l1.09.15h0l1.09.15h0l1.09.15h0l1.09.15h0l1.09.15h0l1.09.15h0l1.09.14h0l1.09.14h0l1.09.14h0l1.09.14h0l1.09.14h0l1.09.14h0l1.09.14h0l1.09.14h0l1.09.14h0l1.09.14h0l1.09.14h0l1.09.14h0l1.09.14h0l1.09.13h0l1.09.13h0l1.09.13h0l1.09.13h0l1.09.13h0l1.09.13h0l1.09.13h0l1.09.13h0l1.09.13h0l1.09.13h0l1.09.13h0l1.09.13h0l1.09.13h0l1.09.12h0l1.09.12h0l1.09.12h0l1.09.12h0l1.09.12h0l1.09.12h0l1.09.12h0l1.09.12h0l1.09.12h0l1.09.12h0l1.09.12h0l1.09.12h0l1.09.12h0l1.09.12h0l1.09.11h0l1.09.11h0l1.09.11h0l1.09.11h0l1.09.11h0l1.09.11h0l1.09.11h0l1.09.11h0l1.09.11h0l1.09.11h0l1.09.11h0l1.09.11h0l1.09.11h0l1.09.11h0l1.09.11h0l1.09.11h0l1.09.1h0l1.09.1h0l1.09.1h0l1.09.1h0l1.09.1h0l1.09.1h0l1.09.1h0l1.09.1h0l1.09.1h0l1.09.1h0l1.09.1h0l1.09.1h0l1.09.1h0l1.09.1h0l1.09.1h0l1.09.1h0l1.09.1h0l1.09.1h0l1.09.09h0l1.09.09h0l1.09.09h0l1.09.09h0l1.09.09h0l1.09.09h0l1.09.09h0l1.09.09h0l1.09.09h0l1.09.09h0l1.09.09h0l1.09.09h0l1.09.09h0l1.09.09h0l1.09.09h0l1.09.09h0l1.09.09h0l1.09.09h0l1.09.09h0l1.09.08h0l1.09.08h0l1.09.08h0l1.09.08h0l1.09.08h0l1.09.08h0l1.09.08h0l1.09.08h0l1.09.08h0l1.09.08h0l1.09.08h0l1.09.08h0l1.09.08h0l1.09.08h0l1.09.08h0l1.09.08h0l1.09.08h0l1.09.08h0l1.09.08h0l1.09.08h0l1.09.08h0l1.09.08h0l1.09.07h0l1.09.07h0l1.09.07h0l1.09.07h0l1.09.07h0l1.09.07h0l1.09.07h0l1.09.07h0l1.09.07h0l1.09.07h0l1.09.07h0l1.09.07h0l1.09.07h0l1.09.07h0l1.09.07h0l1.09.07h0l1.09.07h0l1.09.07h0l1.09.07h0l1.09.07h0l1.09.07h0l1.09.07h0l1.09.07h0l1.09.07h0l1.09.07h0l1.09.06h0l1.09.06h0l1.09.06h0l1.09.06h0l1.09.06h0l1.09.06h0l1.09.06h0l1.09.06h0l1.09.06h0l1.09.06h0l1.09.06h0l1.09.06h0l1.09.06h0l1.09.06h0l1.09.06h0l1.09.06h0l1.09.06h0l1.09.06h0l1.09.06h0l1.09.06h0l1.09.06h0l1.09.06h0l1.09.06h0l1.09.06h0l1.09.06h0l1.09.06h0l1.09.06h0l1.09.06h0l1.09.06h0l1.09.05h0l1.09.05h0l1.09.05h0l1.09.05h0l1.09.05h0l1.09.05h0l1.09.05h0l1.09.05h0l1.09.05h0l1.09.05h0l1.09.05h0l1.09.05h0l1.09.05h0l1.09.05h0l1.09.05h0l1.09.05h0l1.09.05h0l1.09.05h0l1.09.05h0l1.09.05h0l1.09.05h0l1.09.05h0l1.09.05h0l1.09.05h0l1.09.05h0l1.09.05h0l1.09.05h0l1.09.05h0l1.09.05h0l1.09.05h0l1.09.05h0l1.09.05h0l1.09.05h0l1.09.05h0l1.09.05h0l1.09.04h0l1.09.04h0l1.09.04h0l1.09.04h0l1.09.04h0l1.09.04h0l1.09.04h0l1.09.04h0l1.09.04h0l1.09.04h0l1.09.04h0l1.09.04h0l1.09.04h0l1.09.04h0l1.09.04h0l1.09.04h0l1.09.04h0l1.09.04h0l1.09.04h0l1.09.04h0l1.09.04h0l1.09.04h0l1.09.04h0l1.09.04h0l1.09.04h0l1.09.04h0l1.09.04h0l1.09.04h0l1.09.04h0l1.09.04h0l1.09.04h0l1.09.04h0l1.09.04h0l1.09.04h0l1.09.04h0l1.09.04h0l1.09.04h0l1.09.04h0l1.09.04h0l1.09.04h0l1.09.04h0l1.09.04h0l1.09.04h0l1.09.03h0l1.09.03h0l1.09.03h0l1.09.03h0l1.09.03h0l1.09.03h0l1.09.03h0l1.09.03h0l1.09.03h0l1.09.03h0l1.09.03h0l1.09.03h0l1.09.03h0l1.09.03h0l1.09.03h0l1.09.03h0l1.09.03h0l1.09.03h0l1.09.03h0l1.09.03h0l1.09.03h0l1.09.03h0l1.09.03h0l1.09.03h0l1.09.03h0l1.09.03h0l1.09.03h0l1.09.03h0l1.09.03h0l1.09.03h0l1.09.03h0l1.09.03h0l1.09.03h0l1.09.03h0l1.09.03h0l1.09.03h0l1.09.03h0l1.09.03h0l1.09.03h0l1.09.03h0l1.09.03h0l1.09.03h0l1.09.03h0l1.09.03h0l1.09.03h0l1.09.03h0l1.09.03h0l1.09.03h0l1.09.03h0l1.09.03h0l1.09.03h0l1.09.03h0l1.09.03h0l1.09.03h0l1.09.03h0l1.09.03h0l1.09.03h0l1.09.03h0l1.09.03h0l1.09.02h0l1.09.02h0l1.09.02h0l1.09.02h0l1.09.02h0l1.09.02h0l1.09.02h0l1.09.02h0l1.09.02h0l1.09.02h0l1.09.02h0l1.09.02h0l1.09.02h0l1.09.02h0l1.09.02h0l1.09.02h0l1.09.02h0l1.09.02h0l1.09.02h0l1.09.02h0l1.09.02h0l1.09.02h0l1.09.02h0l1.09.02h0l1.09.02h0l1.09.02h0l1.09.02h0l1.09.02h0l1.09.02h0l1.09.02h0l1.09.02h0l1.09.02h0l1.09.02h0l1.09.02h0l1.09.02h0l1.09.02h0l1.09.02h0l1.09.02h0l1.09.02h0l1.09.02h0l1.09.02h0l1.09.02h0l1.09.02h0l1.09.02h0l1.09.02h0l1.09.02h0l1.09.02h0l1.09.02h0l1.09.02h0l1.09.02h0l1.09.02h0l1.09.02h0l1.09.02h0l1.09.02h0l1.09.02h0l1.09.02h0l1.09.02h0l1.09.02h0l1.09.02h0l1.09.02h0l1.09.02h0l1.09.02h0l1.09.02h0l1.09.02h0l1.09.02h0l1.09.02h0l1.09.02h0l1.09.02h0l1.09.02h0l1.09.02h0l1.09.02h0l1.09.02h0l1.09.02h0l1.09.02h0l1.09.02h0l1.09.02h0l1.09.02h0l1.09.02h0l1.09.02h0l1.09.02h0l1.09.02h0l1.09.02h0l1.09.02h0l1.09.02h0l1.09.02h0l1.09.02h0l1.09.02h0l1.09.02h0l1.09.02h1.09s1.09.03,1.09.03h1.09s1.09.03,1.09.03h1.09s1.09.03,1.09.03h1.09s1.09.03,1.09.03h1.09s1.09.03,1.09.03h1.09s1.09.03,1.09.03h1.09s1.09.03,1.09.03h1.09s1.09.03,1.09.03h1.09s1.09.03,1.09.03h1.09s1.09.03,1.09.03h1.09s1.09.03,1.09.03h1.09s1.09.03,1.09.03h1.09s1.09.03,1.09.03h1.09s1.09.03,1.09.03h1.09s1.09.03,1.09.03h1.09s1.09.03,1.09.03h1.09s1.09.02,1.09.02h1.09s1.09.02,1.09.02h1.09s1.09.02,1.09.02h1.09s1.09.02,1.09.02h1.09s1.09.02,1.09.02h1.09s1.09.02,1.09.02h1.09s1.09.02,1.09.02h1.09s1.09.02,1.09.02h1.09s1.09.02,1.09.02h1.09s1.09.02,1.09.02h1.09s1.09.02,1.09.02h1.09s1.09.02,1.09.02h1.09s1.09.02,1.09.02h1.09s1.09.02,1.09.02h1.09s1.09.02,1.09.02h1.09s1.09.02,1.09.02h1.09s1.09.02,1.09.02h1.09s1.09.02,1.09.02h1.09s1.09.02,1.09.02h1.09s1.09.02,1.09.02h1.09s1.09.02,1.09.02h1.09s1.09.02,1.09.02h1.09s1.09.02,1.09.02h1.09s1.09.02,1.09.02h1.09s1.09.02,1.09.02h1.09s1.09.02,1.09.02h1.09s1.09.02,1.09.02h1.09s1.09.02,1.09.02h1.09s1.09.02,1.09.02h1.09s1.09.02,1.09.02h1.09s1.09.02,1.09.02h1.09s1.09.02,1.09.02h1.09s1.09.02,1.09.02h1.09s1.09.02,1.09.02h1.09s1.09.02,1.09.02h1.09s1.09.02,1.09.02h1.09s1.09.02,1.09.02h1.09"/>
          </g>
        </g>
      </g>
    </g>
  </g>
  <g id="uuid-dfb2ef98-610d-46df-b122-7bd573bd7a64" data-name="Marco">
    <path class="uuid-bb54e0f3-86d6-427c-aa03-80d6c1d55c60" d="m-2-2V1022h1249V-2H-2Zm1232,987c0,11.05-8.95,20-20,20H35c-11.05,0-20-8.95-20-20V35c0-11.05,8.95-20,20-20h1175c11.05,0,20,8.95,20,20v950Z"/>
  </g>
</svg>