<?xml version="1.0" encoding="UTF-8"?>
<svg xmlns="http://www.w3.org/2000/svg" width="420" height="365" viewBox="0 0 420 365">
  <defs>
    <style>
      .uuid-c3dcbf39-3888-40ad-9b03-1a5269a9c142 {
        fill: #002949;
      }

      .uuid-2c8f8028-d5b9-4388-93dd-20681a5f9ff5 {
        fill: #f6f6f6;
      }

      .uuid-d39fffed-8d53-49b9-9a6a-5e96b00d28c3 {
        fill: none;
        stroke: #706f6f;
        stroke-miterlimit: 10;
        stroke-width: 3px;
      }

      .uuid-97ff970a-d438-4fe4-8477-78f9d409a906 {
        fill: #1d71b8;
      }
    </style>
  </defs>
  <g id="uuid-98bb18f6-df43-4e83-a6b2-da7fe31b8bbd" data-name="Fondo">
    <rect class="uuid-2c8f8028-d5b9-4388-93dd-20681a5f9ff5" x="3" y="3.5" width="414" height="358" rx="9.6" ry="9.6"/>
  </g>
  <g id="uuid-fc6b14fc-43f2-4b9e-a809-031b53d0ef0a" data-name="elementos">
    <g>
      <path class="uuid-97ff970a-d438-4fe4-8477-78f9d409a906" d="m70.82,21.37l300,300H70.82V21.37m-3-7.24v310.24h310.24l-5.12-5.12L72.94,19.25l-5.12-5.12h0Z"/>
      <path class="uuid-d39fffed-8d53-49b9-9a6a-5e96b00d28c3" d="m316.36,266.91c-13.94,13.94-22.56,33.19-22.56,54.46"/>
      <path class="uuid-c3dcbf39-3888-40ad-9b03-1a5269a9c142" d="m286.96,284.41c.36-.06.65-.16.87-.3.22-.14.4-.33.52-.55.12-.23.22-.51.3-.85.07-.34.15-.84.23-1.49h1.53v2.65h3.47v1.08h-3.47v4.78c0,.69.03,1.25.09,1.66.06.41.16.73.32.97.16.23.34.4.54.5.2.1.46.15.77.15.29,0,.55-.06.81-.18.25-.12.5-.29.74-.51l.48.58c-.51.49-.99.85-1.44,1.07-.46.22-.93.33-1.41.33-.92,0-1.61-.27-2.06-.82s-.68-1.41-.68-2.57v-5.96h-1.59v-.55Z"/>
      <g>
        <path d="m200.63,129.88c0,.89-.41,1.76-1.27,2.61l-3.45,3.45-1.09-1.09,3.33-3.33c.58-.58.88-1.16.89-1.73s-.24-1.12-.76-1.64c-.59-.59-1.22-.88-1.91-.88-.68,0-1.34.33-1.99.97l-3.09,3.09-1.09-1.09,8.4-8.39,1.09,1.09-3.25,3.25c.51-.06,1.03.01,1.56.22.52.21,1.01.54,1.47.99.76.76,1.15,1.59,1.15,2.48Z"/>
        <path d="m203.92,131.96l1.09,1.09-6,6-1.09-1.09,6-6Zm1.37-1.34c0-.27.09-.51.29-.71.2-.2.43-.29.71-.29.28,0,.52.11.74.32.21.21.32.45.33.72,0,.27-.09.51-.28.7s-.45.31-.72.31-.52-.11-.74-.32c-.21-.21-.32-.46-.32-.73Z"/>
        <path d="m211.49,140.18c.2.72.21,1.43,0,2.15-.2.72-.6,1.38-1.2,1.99-.6.6-1.27,1.01-1.99,1.21-.72.2-1.44.2-2.16,0-.72-.2-1.37-.6-1.95-1.18-.43-.43-.74-.91-.93-1.43-.19-.52-.25-1.07-.19-1.63l-3.1,3.1-1.09-1.09,8.19-8.19,1.04,1.04-.95.95c.57-.09,1.13-.04,1.67.16.54.2,1.03.52,1.48.97.58.58.97,1.23,1.18,1.95Zm-5.14,3.9c.48.13.97.12,1.47-.02.5-.14.95-.42,1.37-.84.41-.41.69-.87.84-1.37.14-.5.15-.99.02-1.46-.13-.48-.39-.91-.78-1.29-.38-.38-.81-.63-1.29-.76-.48-.13-.97-.12-1.47.02-.49.14-.95.42-1.36.83-.42.42-.7.87-.84,1.36-.15.49-.16.98-.02,1.47s.39.92.76,1.3c.38.38.82.64,1.3.77Z"/>
        <path d="m210.09,149.46c-.21-.74-.22-1.47-.02-2.21.2-.73.59-1.39,1.18-1.98.59-.59,1.25-.98,1.98-1.18s1.47-.19,2.2.03c.74.21,1.4.62,2,1.22.6.6,1,1.26,1.21,1.99.21.73.22,1.46.02,2.19-.2.73-.59,1.39-1.18,1.98-.59.59-1.25.98-1.98,1.18-.73.2-1.46.19-2.2-.02s-1.4-.61-2-1.21c-.6-.6-1-1.26-1.21-2Zm3.46,1.82c.48.13.97.12,1.47-.03.49-.15.95-.43,1.36-.84.41-.41.7-.87.84-1.36.15-.49.15-.98.02-1.46s-.39-.91-.78-1.29c-.38-.38-.82-.64-1.29-.78-.48-.13-.97-.13-1.47.02-.5.14-.95.42-1.37.84-.42.42-.69.87-.84,1.37-.14.5-.15.99-.02,1.47.13.48.38.92.77,1.3.38.38.82.64,1.3.77Z"/>
        <path d="m219.7,159.03c-.29-.02-.59-.11-.9-.28-.31-.16-.58-.37-.83-.62-.6-.6-.91-1.23-.92-1.89,0-.66.29-1.29.89-1.89l3.29-3.29-1.02-1.02.89-.89,1.02,1.02,1.31-1.31,1.09,1.09-1.31,1.31,1.72,1.72-.89.89-1.72-1.72-3.25,3.25c-.32.32-.49.65-.5.99s.13.65.44.96c.33.33.71.52,1.13.57l-.44,1.12Z"/>
        <path d="m228.49,163.25l-4.86-4.87c-.46.6-.65,1.25-.58,1.97.08.72.41,1.37,1,1.96.72.72,1.54,1.05,2.46,1.01l-.1,1.3c-.59.04-1.17-.05-1.74-.29-.57-.24-1.1-.6-1.6-1.1-.63-.63-1.07-1.33-1.29-2.08-.23-.75-.25-1.49-.05-2.23.2-.73.59-1.4,1.18-1.99.58-.58,1.24-.97,1.96-1.18.73-.21,1.45-.21,2.17-.02.72.2,1.36.58,1.94,1.15.57.57.95,1.21,1.14,1.92.19.71.18,1.42-.04,2.14-.21.72-.62,1.38-1.23,1.99-.08.08-.2.18-.35.3Zm-2.22-6.27c-.67-.03-1.29.18-1.86.63l3.85,3.85c.44-.57.65-1.18.62-1.86-.03-.67-.31-1.27-.83-1.79-.52-.52-1.11-.8-1.78-.83Z"/>
        <path d="m237.79,167.04c0,.89-.41,1.76-1.27,2.61l-3.45,3.45-1.09-1.09,3.33-3.33c.58-.58.88-1.16.89-1.73.02-.57-.24-1.12-.76-1.64-.59-.59-1.22-.88-1.91-.88s-1.34.33-1.99.97l-3.09,3.09-1.09-1.09,6-6,1.04,1.04-.91.91c.53-.09,1.06-.03,1.6.18.54.21,1.05.55,1.52,1.02.76.76,1.15,1.59,1.15,2.48Z"/>
        <path d="m246.67,174.71l-6,6-1.03-1.03.91-.91c-.53.09-1.06.04-1.58-.15-.53-.19-1-.49-1.43-.92-.8-.8-1.21-1.65-1.23-2.55-.02-.9.4-1.78,1.26-2.64l3.45-3.45,1.09,1.09-3.33,3.33c-.58.58-.88,1.16-.9,1.74-.02.58.23,1.12.75,1.65.57.57,1.2.85,1.88.84.68-.01,1.34-.34,1.97-.97l3.1-3.1,1.09,1.09Z"/>
        <path d="m243.18,182.95c-.32-.58-.51-1.11-.56-1.57l1.31-.41c.08.45.25.92.51,1.41.26.49.59.93.97,1.31.95.95,1.7,1.15,2.24.61.18-.18.26-.39.24-.62-.02-.23-.11-.47-.25-.71-.14-.24-.36-.57-.66-.98-.41-.56-.71-1.04-.92-1.44-.21-.4-.3-.83-.29-1.29.01-.45.23-.89.66-1.31.54-.54,1.21-.75,1.99-.63.78.12,1.55.57,2.31,1.33.4.4.75.85,1.05,1.35.3.5.5.96.59,1.38l-1.32.4c-.17-.81-.59-1.54-1.26-2.21-.46-.46-.89-.74-1.28-.83-.39-.09-.71-.01-.96.24-.2.2-.28.42-.26.67.02.25.11.5.25.75.15.25.37.59.66,1.02.4.56.7,1.04.9,1.44.2.39.3.81.28,1.25-.02.44-.23.86-.63,1.27-.54.54-1.21.74-1.99.6-.78-.14-1.58-.61-2.38-1.41-.49-.49-.9-1.03-1.22-1.61Z"/>
        <path d="m257.95,187.1c.03.85-.35,1.68-1.16,2.48l-3.62,3.62-1.03-1.03.79-.79c-.46.1-.93.05-1.41-.13s-.95-.51-1.41-.97c-.67-.67-1.05-1.37-1.13-2.1-.08-.73.15-1.36.67-1.88.53-.53,1.14-.76,1.85-.7.71.06,1.48.51,2.31,1.35l1.72,1.72.22-.21c.47-.47.69-.96.67-1.48-.02-.52-.3-1.04-.83-1.57-.35-.35-.76-.64-1.22-.87-.46-.22-.9-.35-1.33-.39l.36-1.27c.56.06,1.12.24,1.68.54s1.08.69,1.57,1.17c.83.83,1.26,1.67,1.29,2.52Zm-5.48,3.31c.49.12.97.07,1.44-.13l.84-.84-1.67-1.67c-.92-.92-1.69-1.07-2.31-.45-.3.3-.42.66-.36,1.06.06.41.3.82.71,1.23.41.41.87.68,1.35.8Z"/>
      </g>
      <g>
        <path d="m62.31,229.45c-.37.68-.89,1.21-1.54,1.59-.66.38-1.4.58-2.23.58s-1.58-.19-2.23-.58c-.66-.38-1.17-.91-1.54-1.59-.37-.68-.55-1.45-.55-2.31,0-.77.15-1.45.46-2.06.31-.6.76-1.07,1.34-1.4l.75,1.17c-.41.27-.71.6-.91.99-.2.4-.3.83-.3,1.31,0,.56.12,1.05.37,1.5.25.44.59.79,1.05,1.04.45.25.97.38,1.56.38s1.12-.12,1.58-.38c.45-.25.8-.6,1.05-1.04.25-.44.37-.94.37-1.5,0-.48-.1-.92-.3-1.31-.2-.39-.51-.73-.91-.99l.74-1.17c.59.33,1.04.8,1.35,1.4.31.6.47,1.29.47,2.06,0,.86-.19,1.63-.56,2.31Z"/>
        <path d="m55.08,215.92c.58-.62,1.43-.94,2.58-.94h5.12v1.46h-1.12c.4.26.7.62.9,1.1s.31,1.04.31,1.69c0,.95-.23,1.71-.69,2.28-.46.57-1.06.86-1.81.86s-1.35-.27-1.8-.82c-.45-.54-.68-1.41-.68-2.59v-2.43h-.3c-.66,0-1.17.19-1.52.58-.35.38-.53.95-.53,1.7,0,.5.08.99.25,1.47s.39.89.66,1.22l-1.15.64c-.35-.44-.62-.96-.81-1.57s-.28-1.25-.28-1.94c0-1.17.29-2.07.86-2.7Zm6.22,1.53c-.26-.43-.63-.74-1.11-.93h-1.18v2.37c0,1.3.44,1.95,1.31,1.95.43,0,.76-.17,1.01-.5.25-.33.37-.79.37-1.38s-.13-1.09-.39-1.52Z"/>
        <path d="m62.28,207.36c.19.22.34.5.44.83.1.33.15.67.15,1.02,0,.85-.23,1.52-.69,1.98s-1.11.7-1.97.7h-4.66v1.44h-1.26v-1.44h-1.86v-1.54h1.86v-2.43h1.26v2.43h4.59c.46,0,.81-.11,1.06-.34.25-.23.37-.56.37-.98,0-.47-.13-.87-.4-1.2l1.1-.48Z"/>
        <path d="m59.05,198.16v6.88c.75-.1,1.35-.42,1.8-.98.45-.56.68-1.26.68-2.09,0-1.01-.34-1.83-1.02-2.45l.99-.85c.45.38.79.86,1.02,1.43.23.57.35,1.21.35,1.91,0,.9-.18,1.69-.55,2.38-.37.69-.88,1.23-1.54,1.61-.66.38-1.41.57-2.24.57s-1.56-.18-2.22-.55c-.66-.37-1.18-.87-1.54-1.52-.37-.65-.55-1.37-.55-2.18s.18-1.53.55-2.17c.37-.63.88-1.13,1.54-1.49.66-.36,1.42-.54,2.27-.54.12,0,.27.01.46.03Zm-2.86,6.01c.45.5,1.03.79,1.76.87v-5.44c-.71.09-1.3.38-1.75.87-.45.5-.68,1.11-.68,1.85s.22,1.35.67,1.85Z"/>
        <path d="m62.28,191.24c.19.22.34.5.44.83.1.33.15.67.15,1.02,0,.85-.23,1.52-.69,1.98s-1.11.7-1.97.7h-4.66v1.44h-1.26v-1.44h-1.86v-1.54h1.86v-2.43h1.26v2.43h4.59c.46,0,.81-.11,1.06-.34.25-.23.37-.56.37-.98,0-.47-.13-.87-.4-1.2l1.1-.48Z"/>
        <path d="m62.31,188.31c-.37.67-.89,1.2-1.54,1.58-.66.38-1.4.57-2.23.57s-1.58-.19-2.23-.57c-.66-.38-1.17-.9-1.54-1.58-.37-.67-.55-1.43-.55-2.27s.18-1.6.55-2.26c.37-.67.88-1.19,1.54-1.57.66-.38,1.4-.57,2.23-.57s1.58.19,2.23.57c.66.38,1.17.9,1.54,1.57.37.67.56,1.42.56,2.26s-.19,1.6-.56,2.27Zm-1.16-3.74c-.25-.43-.6-.77-1.06-1.02-.45-.25-.97-.37-1.56-.37s-1.11.12-1.56.37c-.45.25-.8.58-1.05,1.02-.25.43-.37.92-.37,1.46s.12,1.03.37,1.46c.25.43.59.77,1.05,1.02.45.25.97.38,1.56.38s1.11-.12,1.56-.38c.45-.25.81-.59,1.06-1.02.25-.43.38-.92.38-1.46s-.12-1.03-.38-1.46Z"/>
        <path d="m62.31,173.84c-.37.67-.89,1.2-1.54,1.58-.66.38-1.4.57-2.23.57s-1.58-.19-2.23-.57c-.66-.38-1.17-.9-1.54-1.58-.37-.67-.55-1.43-.55-2.27s.18-1.6.55-2.26c.37-.67.88-1.19,1.54-1.57.66-.38,1.4-.57,2.23-.57s1.58.19,2.23.57c.66.38,1.17.9,1.54,1.57.37.67.56,1.42.56,2.26s-.19,1.6-.56,2.27Zm-1.16-3.74c-.25-.43-.6-.77-1.06-1.02-.45-.25-.97-.37-1.56-.37s-1.11.12-1.56.37c-.45.25-.8.58-1.05,1.02-.25.43-.37.92-.37,1.46s.12,1.03.37,1.46c.25.43.59.77,1.05,1.02.45.25.97.38,1.56.38s1.11-.12,1.56-.38c.45-.25.81-.59,1.06-1.02.25-.43.38-.92.38-1.46s-.12-1.03-.38-1.46Z"/>
        <path d="m54.76,158.34c.36-.65.87-1.16,1.52-1.53.65-.37,1.4-.55,2.26-.55s1.61.18,2.26.55c.66.37,1.17.88,1.53,1.53.36.65.54,1.39.54,2.21,0,.61-.12,1.17-.35,1.67-.23.51-.58.94-1.02,1.29h4.38v1.54h-11.58v-1.47h1.34c-.47-.34-.82-.77-1.06-1.3-.24-.52-.36-1.1-.36-1.73,0-.82.18-1.56.54-2.21Zm6.39.87c-.25-.43-.6-.77-1.06-1.02-.45-.25-.97-.38-1.56-.38s-1.11.13-1.56.38c-.45.25-.8.59-1.05,1.02-.25.43-.37.92-.37,1.46s.13,1.02.38,1.45.6.77,1.05,1.02c.45.25.97.38,1.55.38s1.11-.12,1.56-.37c.45-.25.81-.59,1.06-1.02.25-.44.38-.92.38-1.46s-.12-1.03-.38-1.46Z"/>
        <path d="m54.3,146.23h8.48v1.46h-1.28c.44.31.78.72,1.02,1.22.24.51.36,1.06.36,1.66,0,1.13-.31,2.02-.94,2.67-.62.65-1.54.98-2.76.98h-4.88v-1.54h4.7c.82,0,1.44-.2,1.86-.59.42-.39.63-.96.63-1.7,0-.81-.25-1.45-.74-1.92-.49-.47-1.18-.7-2.08-.7h-4.38v-1.54Z"/>
        <path d="m59.05,135.67v6.88c.75-.1,1.35-.42,1.8-.98.45-.56.68-1.26.68-2.09,0-1.01-.34-1.83-1.02-2.45l.99-.85c.45.38.79.86,1.02,1.43.23.57.35,1.21.35,1.91,0,.9-.18,1.69-.55,2.38-.37.69-.88,1.23-1.54,1.61-.66.38-1.41.57-2.24.57s-1.56-.18-2.22-.55c-.66-.37-1.18-.87-1.54-1.52-.37-.65-.55-1.37-.55-2.18s.18-1.53.55-2.17c.37-.63.88-1.13,1.54-1.49.66-.36,1.42-.54,2.27-.54.12,0,.27.01.46.03Zm-2.86,6.01c.45.5,1.03.79,1.76.87v-5.44c-.71.09-1.3.38-1.75.87-.45.5-.68,1.11-.68,1.85s.22,1.35.67,1.85Z"/>
        <path d="m62.59,133.08c-.19.64-.42,1.14-.71,1.5l-1.22-.64c.27-.37.48-.83.64-1.36.16-.53.24-1.07.24-1.62,0-1.34-.38-2.02-1.15-2.02-.26,0-.46.09-.61.27-.15.18-.26.41-.33.68s-.15.66-.23,1.16c-.11.68-.23,1.24-.37,1.67s-.37.8-.7,1.11c-.33.31-.79.46-1.39.46-.77,0-1.38-.32-1.85-.96-.46-.64-.7-1.5-.7-2.58,0-.57.07-1.13.21-1.7.14-.56.33-1.03.56-1.39l1.22.66c-.45.69-.67,1.51-.67,2.45,0,.65.11,1.15.32,1.49.21.34.5.51.85.51.28,0,.5-.1.66-.29.16-.19.28-.43.35-.71s.16-.68.26-1.19c.12-.68.24-1.23.38-1.66s.36-.78.68-1.08c.32-.3.77-.45,1.34-.45.77,0,1.38.33,1.83.98.45.66.68,1.55.68,2.68,0,.69-.09,1.36-.28,2Z"/>
        <path d="m62.28,120.72c.19.22.34.5.44.83.1.33.15.67.15,1.02,0,.85-.23,1.52-.69,1.98s-1.11.7-1.97.7h-4.66v1.44h-1.26v-1.44h-1.86v-1.54h1.86v-2.43h1.26v2.43h4.59c.46,0,.81-.11,1.06-.34.25-.23.37-.56.37-.98,0-.47-.13-.87-.4-1.2l1.1-.48Z"/>
        <path d="m62.31,117.8c-.37.67-.89,1.2-1.54,1.58-.66.38-1.4.57-2.23.57s-1.58-.19-2.23-.57c-.66-.38-1.17-.9-1.54-1.58-.37-.67-.55-1.43-.55-2.27s.18-1.6.55-2.26c.37-.67.88-1.19,1.54-1.57.66-.38,1.4-.57,2.23-.57s1.58.19,2.23.57c.66.38,1.17.9,1.54,1.57.37.67.56,1.42.56,2.26s-.19,1.6-.56,2.27Zm-1.16-3.74c-.25-.43-.6-.77-1.06-1.02-.45-.25-.97-.37-1.56-.37s-1.11.12-1.56.37c-.45.25-.8.58-1.05,1.02-.25.43-.37.92-.37,1.46s.12,1.03.37,1.46c.25.43.59.77,1.05,1.02.45.25.97.38,1.56.38s1.11-.12,1.56-.38c.45-.25.81-.59,1.06-1.02.25-.43.38-.92.38-1.46s-.12-1.03-.38-1.46Z"/>
      </g>
      <g>
        <path d="m153.53,338.96c-.68-.37-1.21-.89-1.59-1.54-.38-.66-.58-1.4-.58-2.23s.19-1.58.58-2.23c.38-.66.91-1.17,1.59-1.54.68-.37,1.45-.55,2.31-.55.77,0,1.45.15,2.06.46.6.31,1.07.76,1.4,1.34l-1.17.75c-.27-.41-.6-.71-.99-.91-.4-.2-.83-.3-1.31-.3-.56,0-1.05.12-1.5.37-.44.25-.79.59-1.04,1.05-.25.45-.38.97-.38,1.56s.12,1.12.38,1.58c.25.45.6.8,1.04,1.05.44.25.94.37,1.5.37.48,0,.92-.1,1.31-.3.39-.2.73-.51.99-.91l1.17.74c-.33.59-.8,1.04-1.4,1.35-.6.31-1.29.47-2.06.47-.86,0-1.63-.19-2.31-.56Z"/>
        <path d="m167.06,331.72c.62.58.94,1.43.94,2.58v5.12h-1.46v-1.12c-.26.4-.62.7-1.1.9s-1.04.31-1.69.31c-.95,0-1.71-.23-2.28-.69-.57-.46-.86-1.06-.86-1.81s.27-1.35.82-1.8c.54-.45,1.41-.68,2.59-.68h2.43v-.3c0-.66-.19-1.17-.58-1.52-.38-.35-.95-.53-1.7-.53-.5,0-.99.08-1.47.25s-.89.39-1.22.66l-.64-1.15c.44-.35.96-.62,1.57-.81s1.25-.28,1.94-.28c1.17,0,2.07.29,2.7.86Zm-1.53,6.22c.43-.26.74-.63.93-1.11v-1.18h-2.37c-1.3,0-1.95.44-1.95,1.31,0,.43.17.76.5,1.01.33.25.79.37,1.38.37s1.09-.13,1.52-.39Z"/>
        <path d="m175.61,338.92c-.22.19-.5.34-.83.44-.33.1-.67.15-1.02.15-.85,0-1.52-.23-1.98-.69s-.7-1.11-.7-1.97v-4.66h-1.44v-1.26h1.44v-1.86h1.54v1.86h2.43v1.26h-2.43v4.59c0,.46.11.81.34,1.06.23.25.56.37.98.37.47,0,.87-.13,1.2-.4l.48,1.1Z"/>
        <path d="m184.81,335.69h-6.88c.1.75.42,1.35.98,1.8.56.45,1.26.68,2.09.68,1.01,0,1.83-.34,2.45-1.02l.85.99c-.38.45-.86.79-1.43,1.02-.57.23-1.21.35-1.91.35-.9,0-1.69-.18-2.38-.55-.69-.37-1.23-.88-1.61-1.54-.38-.66-.57-1.41-.57-2.24s.18-1.56.55-2.22c.37-.66.87-1.18,1.52-1.54.65-.37,1.37-.55,2.18-.55s1.53.18,2.17.55c.63.37,1.13.88,1.49,1.54.36.66.54,1.42.54,2.27,0,.12-.01.27-.03.46Zm-6.01-2.86c-.5.45-.79,1.03-.87,1.76h5.44c-.09-.71-.38-1.3-.87-1.75-.5-.45-1.11-.68-1.85-.68s-1.35.22-1.85.67Z"/>
        <path d="m191.74,338.92c-.22.19-.5.34-.83.44-.33.1-.67.15-1.02.15-.85,0-1.52-.23-1.98-.69s-.7-1.11-.7-1.97v-4.66h-1.44v-1.26h1.44v-1.86h1.54v1.86h2.43v1.26h-2.43v4.59c0,.46.11.81.34,1.06.23.25.56.37.98.37.47,0,.87-.13,1.2-.4l.48,1.1Z"/>
        <path d="m194.67,338.96c-.67-.37-1.2-.89-1.58-1.54-.38-.66-.57-1.4-.57-2.23s.19-1.58.57-2.23c.38-.66.9-1.17,1.58-1.54.67-.37,1.43-.55,2.27-.55s1.6.18,2.26.55c.67.37,1.19.88,1.57,1.54.38.66.57,1.4.57,2.23s-.19,1.58-.57,2.23c-.38.66-.9,1.17-1.57,1.54-.67.37-1.42.56-2.26.56s-1.6-.19-2.27-.56Zm3.74-1.16c.43-.25.77-.6,1.02-1.06.25-.45.37-.97.37-1.56s-.12-1.11-.37-1.56c-.25-.45-.58-.8-1.02-1.05-.43-.25-.92-.37-1.46-.37s-1.03.12-1.46.37c-.43.25-.77.59-1.02,1.05-.25.45-.38.97-.38,1.56s.12,1.11.38,1.56c.25.45.59.81,1.02,1.06.43.25.92.38,1.46.38s1.03-.12,1.46-.38Z"/>
        <path d="m213.56,331.72c.62.58.94,1.43.94,2.58v5.12h-1.46v-1.12c-.26.4-.62.7-1.1.9s-1.04.31-1.69.31c-.95,0-1.71-.23-2.28-.69-.57-.46-.86-1.06-.86-1.81s.27-1.35.82-1.8c.54-.45,1.41-.68,2.59-.68h2.43v-.3c0-.66-.19-1.17-.58-1.52-.38-.35-.95-.53-1.7-.53-.5,0-.99.08-1.47.25s-.89.39-1.22.66l-.64-1.15c.44-.35.96-.62,1.57-.81s1.25-.28,1.94-.28c1.17,0,2.07.29,2.7.86Zm-1.53,6.22c.43-.26.74-.63.93-1.11v-1.18h-2.37c-1.3,0-1.95.44-1.95,1.31,0,.43.17.76.5,1.01.33.25.79.37,1.38.37s1.09-.13,1.52-.39Z"/>
        <path d="m225.39,327.55v11.87h-1.47v-1.34c-.34.47-.77.83-1.3,1.07-.52.25-1.1.37-1.73.37-.82,0-1.56-.18-2.21-.54-.65-.36-1.16-.87-1.53-1.53-.37-.66-.55-1.41-.55-2.26s.18-1.6.55-2.26c.37-.65.88-1.16,1.53-1.52.65-.36,1.39-.54,2.21-.54.61,0,1.17.11,1.68.34.51.23.94.57,1.28,1.02v-4.67h1.54Zm-2.91,10.25c.44-.25.78-.6,1.02-1.06.25-.45.37-.97.37-1.56s-.12-1.11-.37-1.56c-.25-.45-.59-.8-1.02-1.05-.44-.25-.92-.37-1.46-.37s-1.03.12-1.46.37c-.43.25-.77.59-1.02,1.05-.25.45-.38.97-.38,1.56s.12,1.11.38,1.56c.25.45.59.81,1.02,1.06.43.25.92.38,1.46.38s1.02-.12,1.46-.38Z"/>
        <path d="m235.81,330.94l-4.11,9.33c-.36.86-.79,1.47-1.27,1.82-.49.35-1.07.53-1.75.53-.42,0-.82-.07-1.21-.2-.39-.13-.71-.33-.97-.58l.66-1.15c.44.42.94.62,1.52.62.37,0,.69-.1.94-.3.25-.2.48-.54.68-1.02l.27-.59-3.74-8.46h1.6l2.96,6.78,2.93-6.78h1.5Z"/>
        <path d="m242.76,331.72c.62.58.94,1.43.94,2.58v5.12h-1.46v-1.12c-.26.4-.62.7-1.1.9s-1.04.31-1.69.31c-.95,0-1.71-.23-2.28-.69-.57-.46-.86-1.06-.86-1.81s.27-1.35.82-1.8c.54-.45,1.41-.68,2.59-.68h2.43v-.3c0-.66-.19-1.17-.58-1.52-.38-.35-.95-.53-1.7-.53-.5,0-.99.08-1.47.25s-.89.39-1.22.66l-.64-1.15c.44-.35.96-.62,1.57-.81s1.25-.28,1.94-.28c1.17,0,2.07.29,2.7.86Zm-1.53,6.22c.43-.26.74-.63.93-1.11v-1.18h-2.37c-1.3,0-1.95.44-1.95,1.31,0,.43.17.76.5,1.01.33.25.79.37,1.38.37s1.09-.13,1.52-.39Z"/>
        <path d="m247.97,338.96c-.68-.37-1.21-.89-1.59-1.54-.38-.66-.58-1.4-.58-2.23s.19-1.58.58-2.23c.38-.66.91-1.17,1.59-1.54.68-.37,1.45-.55,2.31-.55.77,0,1.45.15,2.06.46.6.31,1.07.76,1.4,1.34l-1.17.75c-.27-.41-.6-.71-.99-.91-.4-.2-.83-.3-1.31-.3-.56,0-1.05.12-1.5.37-.44.25-.79.59-1.04,1.05-.25.45-.38.97-.38,1.56s.12,1.12.38,1.58c.25.45.6.8,1.04,1.05.44.25.94.37,1.5.37.48,0,.92-.1,1.31-.3.39-.2.73-.51.99-.91l1.17.74c-.33.59-.8,1.04-1.4,1.35-.6.31-1.29.47-2.06.47-.86,0-1.63-.19-2.31-.56Z"/>
        <path d="m263.23,335.69h-6.88c.1.75.42,1.35.98,1.8.56.45,1.26.68,2.09.68,1.01,0,1.83-.34,2.45-1.02l.85.99c-.38.45-.86.79-1.43,1.02-.57.23-1.21.35-1.91.35-.9,0-1.69-.18-2.38-.55-.69-.37-1.23-.88-1.61-1.54-.38-.66-.57-1.41-.57-2.24s.18-1.56.55-2.22c.37-.66.87-1.18,1.52-1.54.65-.37,1.37-.55,2.18-.55s1.53.18,2.17.55c.63.37,1.13.88,1.49,1.54.36.66.54,1.42.54,2.27,0,.12-.01.27-.03.46Zm-6.01-2.86c-.5.45-.79,1.03-.87,1.76h5.44c-.09-.71-.38-1.3-.87-1.75-.5-.45-1.11-.68-1.85-.68s-1.35.22-1.85.67Z"/>
        <path d="m272.48,331.8c.63.62.95,1.54.95,2.74v4.88h-1.54v-4.7c0-.82-.2-1.44-.59-1.86s-.96-.62-1.7-.62c-.83,0-1.49.24-1.97.73s-.72,1.18-.72,2.09v4.37h-1.54v-8.48h1.47v1.28c.31-.44.73-.77,1.26-1.01.53-.23,1.13-.35,1.8-.35,1.08,0,1.93.31,2.57.94Z"/>
        <path d="m281.05,338.92c-.22.19-.5.34-.83.44-.33.1-.67.15-1.02.15-.85,0-1.52-.23-1.98-.69s-.7-1.11-.7-1.97v-4.66h-1.44v-1.26h1.44v-1.86h1.54v1.86h2.43v1.26h-2.43v4.59c0,.46.11.81.34,1.06.23.25.56.37.98.37.47,0,.87-.13,1.2-.4l.48,1.1Z"/>
        <path d="m290.25,335.69h-6.88c.1.75.42,1.35.98,1.8.56.45,1.26.68,2.09.68,1.01,0,1.83-.34,2.45-1.02l.85.99c-.38.45-.86.79-1.43,1.02-.57.23-1.21.35-1.91.35-.9,0-1.69-.18-2.38-.55-.69-.37-1.23-.88-1.61-1.54-.38-.66-.57-1.41-.57-2.24s.18-1.56.55-2.22c.37-.66.87-1.18,1.52-1.54.65-.37,1.37-.55,2.18-.55s1.53.18,2.17.55c.63.37,1.13.88,1.49,1.54.36.66.54,1.42.54,2.27,0,.12-.01.27-.03.46Zm-6.01-2.86c-.5.45-.79,1.03-.87,1.76h5.44c-.09-.71-.38-1.3-.87-1.75-.5-.45-1.11-.68-1.85-.68s-1.35.22-1.85.67Z"/>
      </g>
    </g>
  </g>
</svg>