<?xml version="1.0" encoding="UTF-8"?>
<svg xmlns="http://www.w3.org/2000/svg" width="1245" height="1020" xmlns:xlink="http://www.w3.org/1999/xlink" viewBox="0 0 1245 1020">
  <defs>
    <style>
      .uuid-7bbd3fd7-e01c-48cd-b231-dcd2126638f9 {
        stroke: #fff;
        stroke-linejoin: bevel;
        stroke-width: 3.44px;
      }

      .uuid-7bbd3fd7-e01c-48cd-b231-dcd2126638f9, .uuid-dbff5f82-bd50-4f3f-be59-34ece556ed39 {
        font-family: HelveticaNeue-UltraLight, 'Helvetica Neue UltraLight';
        font-size: 13.75px;
        font-weight: 100;
        isolation: isolate;
      }

      .uuid-7bbd3fd7-e01c-48cd-b231-dcd2126638f9, .uuid-9878d34c-fb54-4909-b9f3-dd7a495608e6, .uuid-3b91da68-3be1-40e1-a3e5-ca4bb54ecd96, .uuid-bcfb723a-98c7-44bb-b52d-e0e33fe299b4, .uuid-8033bb60-a180-46d3-9b65-0e8fc0545571, .uuid-36439599-657a-4743-bbe4-7416c0e06f75, .uuid-804635f5-0b9d-43ce-aa36-3e413bbedf55, .uuid-625c292d-9059-4b68-a30c-acd1702278a8, .uuid-9892870c-ebe6-4ec9-8a23-49331aa89ff8 {
        fill: none;
      }

      .uuid-df3f2b25-b2d1-4779-8323-5d526f4be813 {
        fill: #fff;
      }

      .uuid-505a69e8-61e8-49b1-8a1a-0b976c3c71ac {
        fill: #333;
      }

      .uuid-dbff5f82-bd50-4f3f-be59-34ece556ed39, .uuid-043bc487-a5d4-4dea-990e-90ce824a31b6 {
        fill: #606060;
      }

      .uuid-9878d34c-fb54-4909-b9f3-dd7a495608e6 {
        stroke: rgba(192, 192, 192, .24);
      }

      .uuid-9878d34c-fb54-4909-b9f3-dd7a495608e6, .uuid-bcfb723a-98c7-44bb-b52d-e0e33fe299b4, .uuid-36439599-657a-4743-bbe4-7416c0e06f75, .uuid-9892870c-ebe6-4ec9-8a23-49331aa89ff8 {
        stroke-linejoin: round;
      }

      .uuid-9878d34c-fb54-4909-b9f3-dd7a495608e6, .uuid-9892870c-ebe6-4ec9-8a23-49331aa89ff8 {
        stroke-dasharray: 0 0 1.15 3.44;
        stroke-width: 1.15px;
      }

      .uuid-3b91da68-3be1-40e1-a3e5-ca4bb54ecd96 {
        clip-path: url(#uuid-b8e0f5aa-2079-4bd9-9cff-612dcb2ee149);
      }

      .uuid-2356f74c-874e-4c5d-be47-b680a35fdf81 {
        fill: #00699b;
      }

      .uuid-bcfb723a-98c7-44bb-b52d-e0e33fe299b4 {
        stroke: rgba(160, 160, 160, .7);
        stroke-dasharray: 0 0 10.89 9.17;
        stroke-width: 1.72px;
      }

      .uuid-8033bb60-a180-46d3-9b65-0e8fc0545571 {
        stroke: #606060;
        stroke-miterlimit: 10;
        stroke-width: 2.29px;
      }

      .uuid-36439599-657a-4743-bbe4-7416c0e06f75 {
        stroke: rgba(0, 0, 255, .7);
        stroke-linecap: round;
        stroke-width: 4.01px;
      }

      .uuid-625c292d-9059-4b68-a30c-acd1702278a8 {
        clip-path: url(#uuid-d8ddf537-0297-47a5-b2c8-d435ccc8ad89);
      }

      .uuid-9892870c-ebe6-4ec9-8a23-49331aa89ff8 {
        stroke: silver;
      }

      .uuid-043bc487-a5d4-4dea-990e-90ce824a31b6 {
        fill-rule: evenodd;
      }
    </style>
    <clipPath id="uuid-d8ddf537-0297-47a5-b2c8-d435ccc8ad89">
      <rect class="uuid-804635f5-0b9d-43ce-aa36-3e413bbedf55" x="0" y="2.61" width="1245" height="1019.39"/>
    </clipPath>
    <clipPath id="uuid-b8e0f5aa-2079-4bd9-9cff-612dcb2ee149">
      <rect class="uuid-804635f5-0b9d-43ce-aa36-3e413bbedf55" x="-219.8" y="-10.97" width="1684.59" height="1039.41"/>
    </clipPath>
  </defs>
  <g id="uuid-c6c42ca1-cc25-40aa-844b-6dc6f7d86d55" data-name="Grafica">
    <g class="uuid-625c292d-9059-4b68-a30c-acd1702278a8">
      <g class="uuid-3b91da68-3be1-40e1-a3e5-ca4bb54ecd96">
        <g>
          <rect class="uuid-df3f2b25-b2d1-4779-8323-5d526f4be813" x="-219.8" y="-10.97" width="1684.59" height="1039.41"/>
          <path class="uuid-9892870c-ebe6-4ec9-8a23-49331aa89ff8" d="m-200.89-10.4v1039.41m0-1039.41v1039.41M-97.75-10.4v1039.41M5.39-10.4v1039.41M107.38-10.4v1039.41M210.52-10.4v1039.41M313.66-10.4v1039.41M416.8-10.4v1039.41M519.93-10.4v1039.41M726.21-10.4v1039.41M828.2-10.4v1039.41M931.34-10.4v1039.41M1034.48-10.4v1039.41M1137.62-10.4v1039.41M1240.76-10.4v1039.41M1343.9-10.4v1039.41M1447.03-10.4v1039.41"/>
          <path class="uuid-9878d34c-fb54-4909-b9f3-dd7a495608e6" d="m-180.26-10.4v1039.41M-159.63-10.4v1039.41M-139-10.4v1039.41M-118.38-10.4v1039.41M-77.12-10.4v1039.41M-56.49-10.4v1039.41M-35.87-10.4v1039.41M-15.24-10.4v1039.41M26.02-10.4v1039.41M46.64-10.4v1039.41M66.13-10.4v1039.41M86.75-10.4v1039.41M128.01-10.4v1039.41M148.64-10.4v1039.41M169.26-10.4v1039.41M189.89-10.4v1039.41M231.15-10.4v1039.41M251.78-10.4v1039.41M272.4-10.4v1039.41M293.03-10.4v1039.41M334.29-10.4v1039.41M354.91-10.4v1039.41M375.54-10.4v1039.41M396.17-10.4v1039.41M437.42-10.4v1039.41M458.05-10.4v1039.41M478.68-10.4v1039.41M499.31-10.4v1039.41M540.56-10.4v1039.41M561.19-10.4v1039.41M581.82-10.4v1039.41M602.45-10.4v1039.41M643.7-10.4v1039.41M664.33-10.4v1039.41M684.96-10.4v1039.41M705.58-10.4v1039.41M746.84-10.4v1039.41M767.47-10.4v1039.41M788.09-10.4v1039.41M808.72-10.4v1039.41M848.83-10.4v1039.41M869.46-10.4v1039.41M890.09-10.4v1039.41M910.71-10.4v1039.41M951.97-10.4v1039.41M972.6-10.4v1039.41M993.22-10.4v1039.41M1013.85-10.4v1039.41M1055.11-10.4v1039.41M1075.74-10.4v1039.41M1096.36-10.4v1039.41M1116.99-10.4v1039.41M1158.25-10.4v1039.41M1178.87-10.4v1039.41M1199.5-10.4v1039.41M1220.13-10.4v1039.41M1261.38-10.4v1039.41M1282.01-10.4v1039.41M1302.64-10.4v1039.41M1323.27-10.4v1039.41M1364.52-10.4v1039.41M1385.15-10.4v1039.41M1405.78-10.4v1039.41M1426.41-10.4v1039.41"/>
          <path class="uuid-9892870c-ebe6-4ec9-8a23-49331aa89ff8" d="m-219.22-4.67h1684.59m-1684.59,0h1684.59M-219.22,97.32h1684.59M-219.22,200.46h1684.59M-219.22,303.6h1684.59M-219.22,406.74h1684.59M-219.22,613.02h1684.59m-1684.59,103.14h1684.59m-1684.59,101.99h1684.59m-1684.59,103.14h1684.59m-1684.59,103.14h1684.59"/>
          <path class="uuid-9878d34c-fb54-4909-b9f3-dd7a495608e6" d="m-219.22-4.67h1684.59M-219.22,15.96h1684.59M-219.22,36.59h1684.59M-219.22,56.07h1684.59M-219.22,76.7h1684.59M-219.22,117.95h1684.59m-1684.59,20.63h1684.59m-1684.59,20.63h1684.59m-1684.59,20.63h1684.59M-219.22,221.09h1684.59m-1684.59,20.63h1684.59m-1684.59,20.63h1684.59m-1684.59,20.63h1684.59m-1684.59,41.26h1684.59m-1684.59,20.63h1684.59m-1684.59,20.63h1684.59m-1684.59,20.63h1684.59m-1684.59,41.26h1684.59m-1684.59,20.63h1684.59m-1684.59,20.63h1684.59m-1684.59,20.63h1684.59m-1684.59,41.26h1684.59m-1684.59,20.63h1684.59m-1684.59,20.63h1684.59m-1684.59,20.63h1684.59m-1684.59,41.26h1684.59m-1684.59,20.63h1684.59m-1684.59,20.63h1684.59m-1684.59,20.63h1684.59m-1684.59,41.26h1684.59m-1684.59,20.63h1684.59m-1684.59,20.63h1684.59m-1684.59,19.48h1684.59m-1684.59,41.26h1684.59m-1684.59,20.63h1684.59m-1684.59,20.63h1684.59m-1684.59,20.63h1684.59m-1684.59,41.26h1684.59m-1684.59,20.63h1684.59m-1684.59,20.63h1684.59m-1684.59,20.63h1684.59"/>
          <path class="uuid-8033bb60-a180-46d3-9b65-0e8fc0545571" d="m622.5-7.53v1035.97"/>
          <path class="uuid-043bc487-a5d4-4dea-990e-90ce824a31b6" d="m622.79-8.68l-5.73,22.92h11.46"/>
          <path class="uuid-8033bb60-a180-46d3-9b65-0e8fc0545571" d="m-219.8,509.31h1681.15"/>
          <text class="uuid-dbff5f82-bd50-4f3f-be59-34ece556ed39" transform="translate(-3.2 527.64)"><tspan x="0" y="0">–6</tspan></text>
          <text class="uuid-7bbd3fd7-e01c-48cd-b231-dcd2126638f9" transform="translate(-3.2 527.64)"><tspan x="0" y="0">–6</tspan></text>
          <text class="uuid-dbff5f82-bd50-4f3f-be59-34ece556ed39" transform="translate(-3.2 527.64)"><tspan x="0" y="0">–6</tspan></text>
          <text class="uuid-dbff5f82-bd50-4f3f-be59-34ece556ed39" transform="translate(99.93 527.64)"><tspan x="0" y="0">–5</tspan></text>
          <text class="uuid-7bbd3fd7-e01c-48cd-b231-dcd2126638f9" transform="translate(99.93 527.64)"><tspan x="0" y="0">–5</tspan></text>
          <text class="uuid-dbff5f82-bd50-4f3f-be59-34ece556ed39" transform="translate(99.93 527.64)"><tspan x="0" y="0">–5</tspan></text>
          <text class="uuid-dbff5f82-bd50-4f3f-be59-34ece556ed39" transform="translate(203.07 527.64)"><tspan x="0" y="0">–4</tspan></text>
          <text class="uuid-7bbd3fd7-e01c-48cd-b231-dcd2126638f9" transform="translate(203.07 527.64)"><tspan x="0" y="0">–4</tspan></text>
          <text class="uuid-dbff5f82-bd50-4f3f-be59-34ece556ed39" transform="translate(203.07 527.64)"><tspan x="0" y="0">–4</tspan></text>
          <text class="uuid-dbff5f82-bd50-4f3f-be59-34ece556ed39" transform="translate(306.21 527.64)"><tspan x="0" y="0">–3</tspan></text>
          <text class="uuid-7bbd3fd7-e01c-48cd-b231-dcd2126638f9" transform="translate(306.21 527.64)"><tspan x="0" y="0">–3</tspan></text>
          <text class="uuid-dbff5f82-bd50-4f3f-be59-34ece556ed39" transform="translate(306.21 527.64)"><tspan x="0" y="0">–3</tspan></text>
          <text class="uuid-dbff5f82-bd50-4f3f-be59-34ece556ed39" transform="translate(409.35 527.64)"><tspan x="0" y="0">–2</tspan></text>
          <text class="uuid-7bbd3fd7-e01c-48cd-b231-dcd2126638f9" transform="translate(409.35 527.64)"><tspan x="0" y="0">–2</tspan></text>
          <text class="uuid-dbff5f82-bd50-4f3f-be59-34ece556ed39" transform="translate(409.35 527.64)"><tspan x="0" y="0">–2</tspan></text>
          <text class="uuid-dbff5f82-bd50-4f3f-be59-34ece556ed39" transform="translate(512.49 527.64)"><tspan x="0" y="0">–1</tspan></text>
          <text class="uuid-7bbd3fd7-e01c-48cd-b231-dcd2126638f9" transform="translate(512.49 527.64)"><tspan x="0" y="0">–1</tspan></text>
          <text class="uuid-dbff5f82-bd50-4f3f-be59-34ece556ed39" transform="translate(512.49 527.64)"><tspan x="0" y="0">–1</tspan></text>
          <text class="uuid-dbff5f82-bd50-4f3f-be59-34ece556ed39" transform="translate(722.2 527.64)"><tspan x="0" y="0">1</tspan></text>
          <text class="uuid-7bbd3fd7-e01c-48cd-b231-dcd2126638f9" transform="translate(722.2 527.64)"><tspan x="0" y="0">1</tspan></text>
          <text class="uuid-dbff5f82-bd50-4f3f-be59-34ece556ed39" transform="translate(722.2 527.64)"><tspan x="0" y="0">1</tspan></text>
          <text class="uuid-dbff5f82-bd50-4f3f-be59-34ece556ed39" transform="translate(825.34 527.64)"><tspan x="0" y="0">2</tspan></text>
          <text class="uuid-7bbd3fd7-e01c-48cd-b231-dcd2126638f9" transform="translate(825.34 527.64)"><tspan x="0" y="0">2</tspan></text>
          <text class="uuid-dbff5f82-bd50-4f3f-be59-34ece556ed39" transform="translate(825.34 527.64)"><tspan x="0" y="0">2</tspan></text>
          <text class="uuid-dbff5f82-bd50-4f3f-be59-34ece556ed39" transform="translate(928.48 527.64)"><tspan x="0" y="0">3</tspan></text>
          <text class="uuid-7bbd3fd7-e01c-48cd-b231-dcd2126638f9" transform="translate(928.48 527.64)"><tspan x="0" y="0">3</tspan></text>
          <text class="uuid-dbff5f82-bd50-4f3f-be59-34ece556ed39" transform="translate(928.48 527.64)"><tspan x="0" y="0">3</tspan></text>
          <text class="uuid-dbff5f82-bd50-4f3f-be59-34ece556ed39" transform="translate(1031.62 527.64)"><tspan x="0" y="0">4</tspan></text>
          <text class="uuid-7bbd3fd7-e01c-48cd-b231-dcd2126638f9" transform="translate(1031.62 527.64)"><tspan x="0" y="0">4</tspan></text>
          <text class="uuid-dbff5f82-bd50-4f3f-be59-34ece556ed39" transform="translate(1031.62 527.64)"><tspan x="0" y="0">4</tspan></text>
          <text class="uuid-dbff5f82-bd50-4f3f-be59-34ece556ed39" transform="translate(1133.61 527.64)"><tspan x="0" y="0">5</tspan></text>
          <text class="uuid-7bbd3fd7-e01c-48cd-b231-dcd2126638f9" transform="translate(1133.61 527.64)"><tspan x="0" y="0">5</tspan></text>
          <text class="uuid-dbff5f82-bd50-4f3f-be59-34ece556ed39" transform="translate(1133.61 527.64)"><tspan x="0" y="0">5</tspan></text>
          <text class="uuid-dbff5f82-bd50-4f3f-be59-34ece556ed39" transform="translate(1236.75 527.64)"><tspan x="0" y="0">6</tspan></text>
          <text class="uuid-7bbd3fd7-e01c-48cd-b231-dcd2126638f9" transform="translate(1236.75 527.64)"><tspan x="0" y="0">6</tspan></text>
          <text class="uuid-dbff5f82-bd50-4f3f-be59-34ece556ed39" transform="translate(1236.75 527.64)"><tspan x="0" y="0">6</tspan></text>
          <text class="uuid-dbff5f82-bd50-4f3f-be59-34ece556ed39" transform="translate(599.58 926.44)"><tspan x="0" y="0">–4</tspan></text>
          <text class="uuid-7bbd3fd7-e01c-48cd-b231-dcd2126638f9" transform="translate(599.58 926.44)"><tspan x="0" y="0">–4</tspan></text>
          <text class="uuid-dbff5f82-bd50-4f3f-be59-34ece556ed39" transform="translate(599.58 926.44)"><tspan x="0" y="0">–4</tspan></text>
          <text class="uuid-dbff5f82-bd50-4f3f-be59-34ece556ed39" transform="translate(599.58 823.3)"><tspan x="0" y="0">–3</tspan></text>
          <text class="uuid-7bbd3fd7-e01c-48cd-b231-dcd2126638f9" transform="translate(599.58 823.3)"><tspan x="0" y="0">–3</tspan></text>
          <text class="uuid-dbff5f82-bd50-4f3f-be59-34ece556ed39" transform="translate(599.58 823.3)"><tspan x="0" y="0">–3</tspan></text>
          <text class="uuid-dbff5f82-bd50-4f3f-be59-34ece556ed39" transform="translate(599.58 721.31)"><tspan x="0" y="0">–2</tspan></text>
          <text class="uuid-7bbd3fd7-e01c-48cd-b231-dcd2126638f9" transform="translate(599.58 721.31)"><tspan x="0" y="0">–2</tspan></text>
          <text class="uuid-dbff5f82-bd50-4f3f-be59-34ece556ed39" transform="translate(599.58 721.31)"><tspan x="0" y="0">–2</tspan></text>
          <text class="uuid-dbff5f82-bd50-4f3f-be59-34ece556ed39" transform="translate(599.58 618.17)"><tspan x="0" y="0">–1</tspan></text>
          <text class="uuid-7bbd3fd7-e01c-48cd-b231-dcd2126638f9" transform="translate(599.58 618.17)"><tspan x="0" y="0">–1</tspan></text>
          <text class="uuid-dbff5f82-bd50-4f3f-be59-34ece556ed39" transform="translate(599.58 618.17)"><tspan x="0" y="0">–1</tspan></text>
          <text class="uuid-dbff5f82-bd50-4f3f-be59-34ece556ed39" transform="translate(606.46 411.9)"><tspan x="0" y="0">1</tspan></text>
          <text class="uuid-7bbd3fd7-e01c-48cd-b231-dcd2126638f9" transform="translate(606.46 411.9)"><tspan x="0" y="0">1</tspan></text>
          <text class="uuid-dbff5f82-bd50-4f3f-be59-34ece556ed39" transform="translate(606.46 411.9)"><tspan x="0" y="0">1</tspan></text>
          <text class="uuid-dbff5f82-bd50-4f3f-be59-34ece556ed39" transform="translate(606.46 308.76)"><tspan x="0" y="0">2</tspan></text>
          <text class="uuid-7bbd3fd7-e01c-48cd-b231-dcd2126638f9" transform="translate(606.46 308.76)"><tspan x="0" y="0">2</tspan></text>
          <text class="uuid-dbff5f82-bd50-4f3f-be59-34ece556ed39" transform="translate(606.46 308.76)"><tspan x="0" y="0">2</tspan></text>
          <text class="uuid-dbff5f82-bd50-4f3f-be59-34ece556ed39" transform="translate(606.46 205.62)"><tspan x="0" y="0">3</tspan></text>
          <text class="uuid-7bbd3fd7-e01c-48cd-b231-dcd2126638f9" transform="translate(606.46 205.62)"><tspan x="0" y="0">3</tspan></text>
          <text class="uuid-dbff5f82-bd50-4f3f-be59-34ece556ed39" transform="translate(606.46 205.62)"><tspan x="0" y="0">3</tspan></text>
          <text class="uuid-dbff5f82-bd50-4f3f-be59-34ece556ed39" transform="translate(606.46 102.48)"><tspan x="0" y="0">4</tspan></text>
          <text class="uuid-7bbd3fd7-e01c-48cd-b231-dcd2126638f9" transform="translate(606.46 102.48)"><tspan x="0" y="0">4</tspan></text>
          <text class="uuid-dbff5f82-bd50-4f3f-be59-34ece556ed39" transform="translate(606.46 102.48)"><tspan x="0" y="0">4</tspan></text>
          <text class="uuid-dbff5f82-bd50-4f3f-be59-34ece556ed39" transform="translate(606.46 527.64)"><tspan x="0" y="0">0</tspan></text>
          <text class="uuid-7bbd3fd7-e01c-48cd-b231-dcd2126638f9" transform="translate(606.46 527.64)"><tspan x="0" y="0">0</tspan></text>
          <text class="uuid-dbff5f82-bd50-4f3f-be59-34ece556ed39" transform="translate(606.46 527.64)"><tspan x="0" y="0">0</tspan></text>
          <path class="uuid-36439599-657a-4743-bbe4-7416c0e06f75" d="m-219.8,522.39l6.58.1,6.58.1,6.58.1,6.58.11,6.58.11,6.58.11,6.58.11,6.58.11,6.58.11,6.58.12,6.58.12,6.58.12,6.58.12,6.58.13,6.58.13,6.58.13,6.58.13,6.58.13,6.58.14,6.58.14,6.58.14,6.58.15,6.58.15,6.58.15,6.58.15,6.58.16,6.58.16,6.58.16,6.58.17,6.58.17,6.58.17,6.58.18,6.58.18,6.58.19,6.58.19,6.58.19,6.58.2,6.58.2,6.58.21,6.58.21,6.58.22,6.58.22,6.58.23,6.58.23,6.58.24,6.58.25,6.58.25,6.58.26,6.58.26,6.58.27,6.58.28,6.58.29,6.58.3,6.58.3,6.58.31,6.58.32,6.58.33,6.58.34,6.58.35,6.58.36,6.58.37,6.58.39,6.58.4,6.58.41m0,0l6.58.42,6.58.44,6.58.45,6.58.47,6.58.49,6.58.51,6.58.53,6.58.55,6.58.57,6.58.59,6.58.61,6.58.64,6.58.67,6.58.7,6.58.73,6.58.76,6.58.8,6.58.84,6.58.88,6.58.93,6.58.98,6.58,1.03,6.58,1.09,6.58,1.15,6.58,1.22,6.58,1.3,6.58,1.38,6.58,1.48,6.58,1.58,6.58,1.7,6.58,1.83,6.58,1.98m0,0l6.58,2.15,6.58,2.34,6.58,2.57,6.58,2.83,6.58,3.14,6.58,3.51,6.58,3.96,6.58,4.51,6.58,5.22,6.58,6.13,6.58,7.37,6.58,9.13,3.29,5.49,3.29,6.34,3.29,7.46,3.29,9.01,3.29,11.29,1.65,6.9,1.65,8.1,1.65,9.78.82,5.76.82,6.54.82,7.55.82,8.93.82,10.9.41,6.5.41,7.47m0,0l.32,6.8.32,7.86.32,9.31.32,11.41.16,6.84.16,7.9.16,9.35.16,11.45.08,6.86.08,7.92.08,9.37.08,11.47.08,14.79.08,20.86.08,35.67.08,1487.92m205.96-3783.23l.06,1474.88.06,35.68.06,20.86.06,14.8.06,11.47.06,9.37.06,7.92.06,6.86.13,11.46.13,9.36.13,7.91.13,6.84.25,11.43.25,9.33.25,7.87.25,6.81m0,0l.41,9.46.41,7.96.41,6.87.41,6.04.82,10.24.82,8.47.82,7.22.82,6.29,1.65,10.54,1.65,8.62,1.65,7.28,1.65,6.29,1.65,5.52,3.29,9.34,3.29,7.69,3.29,6.51,3.29,5.63,6.58,9.33,6.58,7.5,6.58,6.23,6.58,5.29,6.58,4.57,6.58,4,6.58,3.55,6.58,3.17,6.58,2.86,6.58,2.59,6.58,2.36,6.58,2.17m0,0l6.58,1.99,6.58,1.84,6.58,1.71,6.58,1.59,6.58,1.49,6.58,1.39,6.58,1.31,6.58,1.23,6.58,1.16,6.58,1.09,6.58,1.03,6.58.98,6.58.93,6.58.89,6.58.84,6.58.8,6.58.77,6.58.73,6.58.7,6.58.67,6.58.64,6.58.62,6.58.59,6.58.57,6.58.55,6.58.53,6.58.51,6.58.49,6.58.47,6.58.46,6.58.44,6.58.43m0,0l6.58.41,6.58.4,6.58.39,6.58.37,6.58.36,6.58.35,6.58.34,6.58.33,6.58.32,6.58.31,6.58.3,6.58.3,6.58.29,6.58.28,6.58.27,6.58.27,6.58.26,6.58.25,6.58.25,6.58.24,6.58.23,6.58.23,6.58.22,6.58.22,6.58.21,6.58.21,6.58.2,6.58.2,6.58.19,6.58.19,6.58.19,6.58.18,6.58.18,6.58.17,6.58.17,6.58.17,6.58.16,6.58.16,6.58.16,6.58.15,6.58.15,6.58.15,6.58.15,6.58.14,6.58.14,6.58.14,6.58.13,6.58.13,6.58.13,6.58.13,6.58.13,6.58.12,6.58.12,6.58.12,6.58.12,6.58.11,6.58.11,6.58.11,6.58.11,6.58.11,6.58.11,6.58.1,6.58.1,6.58.1"/>
          <path class="uuid-bcfb723a-98c7-44bb-b52d-e0e33fe299b4" d="m519.81-16.7v1050.86"/>
          <path class="uuid-bcfb723a-98c7-44bb-b52d-e0e33fe299b4" d="m725.77-16.7v1050.86"/>
        </g>
      </g>
    </g>
  </g>
  <g id="uuid-5288c98b-521e-4fe2-8bd0-eb3fa4da06d3" data-name="Marco">
    <path class="uuid-2356f74c-874e-4c5d-be47-b680a35fdf81" d="m-2-2V1022h1249V-2H-2Zm1232,987c0,11.05-8.95,20-20,20H35c-11.05,0-20-8.95-20-20V35c0-11.05,8.95-20,20-20h1175c11.05,0,20,8.95,20,20v950Z"/>
  </g>
  <g id="uuid-e44d88fd-0072-479a-b306-91abf443bd64" data-name="texto">
    <g>
      <path class="uuid-505a69e8-61e8-49b1-8a1a-0b976c3c71ac" d="m804.45,339.41c-.13-.99-.25-1.68-.37-2.06s-.31-.68-.57-.88-.68-.32-1.27-.36l.21-.96h5.02l1.48,15.53c4.4-6.02,6.6-10.33,6.6-12.93,0-.61-.13-1.03-.39-1.25s-.7-.35-1.33-.39l.2-.96h5.04l.53.98c-.69,1.81-1.57,3.68-2.65,5.62s-2.39,4.06-3.95,6.37-3.28,4.7-5.19,7.19c-1.46,1.91-2.68,3.36-3.67,4.34-.77.74-1.47,1.31-2.12,1.69s-1.27.66-1.88.82-1.25.24-1.92.24c-.35,0-.75-.04-1.19-.11-.44-.07-.82-.17-1.13-.28l.84-3.65h1.52c.01.44.12.79.31,1.05s.48.39.86.39c.42,0,.78-.04,1.07-.13.3-.08.62-.22.95-.42s.74-.51,1.21-.94,1.01-1,1.61-1.71,1.27-1.57,2.01-2.57l-1.86-14.63Z"/>
      <path class="uuid-505a69e8-61e8-49b1-8a1a-0b976c3c71ac" d="m830.96,339.65v-2.6h24.06v2.6h-24.06Zm0,8.11v-2.6h24.06v2.6h-24.06Z"/>
      <path class="uuid-505a69e8-61e8-49b1-8a1a-0b976c3c71ac" d="m881.1,339.84c-.03-.99-.11-1.71-.24-2.15s-.36-.77-.66-1-.74-.33-1.3-.33c-1.32,0-2.5.52-3.54,1.57s-1.9,2.53-2.57,4.45-1,3.77-1,5.54c0,.55.05,1.06.15,1.54s.27.9.51,1.25.56.63.96.83.9.3,1.51.3c1.18,0,2.21-.22,3.08-.67s1.78-1.16,2.74-2.12l1.19,1.19c-1.22,1.35-2.46,2.34-3.7,2.97s-2.58.94-4.01.94c-1.89,0-3.32-.56-4.3-1.68s-1.46-2.75-1.46-4.88c0-1.39.26-2.92.78-4.59s1.28-3.13,2.29-4.39,2.17-2.21,3.52-2.83,2.77-.94,4.3-.94c1.04,0,1.95.06,2.72.18s1.46.25,2.06.41l-.96,4.41h-2.05Z"/>
      <path class="uuid-505a69e8-61e8-49b1-8a1a-0b976c3c71ac" d="m891.86,354.16c-2.02,0-3.58-.57-4.7-1.7s-1.67-2.76-1.67-4.88c0-.78.1-1.7.29-2.75.25-1.37.6-2.58,1.05-3.63.59-1.32,1.34-2.45,2.26-3.41s1.97-1.69,3.16-2.19,2.47-.75,3.84-.75c1.5,0,2.72.29,3.68.86s1.65,1.35,2.08,2.33.64,2.12.64,3.41c0,1.16-.16,2.4-.49,3.71-.47,1.93-1.15,3.56-2.05,4.9s-2.02,2.36-3.38,3.06-2.93,1.04-4.73,1.04Zm-2.95-5.74c0,1.43.3,2.49.89,3.17s1.49,1.03,2.69,1.03c1.28,0,2.41-.57,3.4-1.72s1.77-2.75,2.34-4.81.86-3.88.86-5.44c0-1.41-.27-2.46-.82-3.17s-1.4-1.06-2.56-1.06c-1.35,0-2.54.57-3.54,1.7s-1.8,2.75-2.38,4.86-.87,3.93-.87,5.45Z"/>
      <path class="uuid-505a69e8-61e8-49b1-8a1a-0b976c3c71ac" d="m917.33,350.23c-1.07,1.29-2.12,2.26-3.16,2.92s-2.15.99-3.32.99c-1.38,0-2.41-.35-3.09-1.05s-1.02-1.73-1.02-3.07c0-.82.12-1.74.35-2.75l2.42-10.14h-2.91l.21-1c.77-.09,1.38-.26,1.83-.5s.83-.56,1.13-.96.59-.92.85-1.55.59-1.57.98-2.79h2.7l-1.07,4.82h6.19l-.43,1.97h-6.21l-1.88,7.58c-.52,2.11-.78,3.68-.78,4.73,0,.79.17,1.4.52,1.81s.85.62,1.51.62c.6,0,1.23-.23,1.88-.69s1.38-1.16,2.16-2.1l1.13,1.17Z"/>
      <path class="uuid-505a69e8-61e8-49b1-8a1a-0b976c3c71ac" d="m936.17,353.83h-6.13l2.46-9.92c.18-.72.34-1.44.48-2.18s.21-1.4.21-2c0-.94-.16-1.6-.47-2s-.84-.6-1.58-.6c-.53,0-1.12.22-1.77.66s-1.33,1.12-2.04,2.02-1.29,1.77-1.71,2.6-.76,1.81-1.01,2.96l-1.78,8.46h-3.38l5.02-22.32c.14-.65.24-1.12.3-1.42s.1-.56.13-.81.04-.47.04-.66c0-.55-.17-.93-.5-1.15s-.93-.34-1.79-.37l.23-1.02,4.94-.18h1.13l-3.36,13.54.23.08c1.22-1.63,2.39-2.81,3.5-3.55s2.23-1.11,3.38-1.11c1.26,0,2.22.35,2.87,1.04s.98,1.73.98,3.1c0,.83-.13,1.84-.39,3.01l-1.64,6.95c-.13.56-.22,1.01-.27,1.35s-.08.63-.08.88c0,.4.07.72.21.94s.34.39.62.5.73.2,1.34.26l-.18.96Z"/>
      <path class="uuid-505a69e8-61e8-49b1-8a1a-0b976c3c71ac" d="m945.3,335.39h-4.98l.38-1.77h4.98l-.38,1.77Z"/>
      <path class="uuid-505a69e8-61e8-49b1-8a1a-0b976c3c71ac" d="m953.53,337.21c-.14.62-.21,1.07-.21,1.33,0,.3.08.53.24.68.16.15.42.25.79.32.37.06.94.11,1.71.13l-.17.83h-8.04l.17-.83c.64-.03,1.13-.07,1.47-.12.34-.05.62-.13.83-.22s.38-.2.51-.33.24-.3.34-.51c.1-.21.19-.53.28-.96l1.82-8.26c.07-.32.12-.57.15-.76s.05-.35.05-.47c0-.23-.06-.39-.17-.48-.11-.09-.25-.14-.41-.14-.2,0-.5.1-.9.29s-1,.53-1.8,1l-.44-.91,5.77-3.02h.79l-.33,1.33c-.12.49-.25,1.05-.39,1.7l-2.07,9.41Z"/>
      <path class="uuid-505a69e8-61e8-49b1-8a1a-0b976c3c71ac" d="m986.2,336.11c-2.53,2.7-5.17,5.36-7.93,7.99l1.82,4.28c.48,1.15.87,1.99,1.15,2.53s.55.93.78,1.17.47.42.7.53.61.2,1.11.26l-.21.96h-4.86l-2.71-7.85c-.31.27-.73.65-1.24,1.14s-1.01,1.01-1.49,1.56-.82,1-1.02,1.34-.32.63-.38.88-.09.5-.09.76c0,.34.09.61.28.8s.51.33.97.41l-.21.96h-5.57l-.37-.96c2.85-3.06,5.66-5.88,8.42-8.46l-1.86-4.36c-.38-.89-.68-1.56-.92-2.02s-.46-.82-.67-1.07-.46-.45-.74-.59-.68-.22-1.2-.26l.21-.96h4.86l2.6,7.36c.64-.59,1.24-1.19,1.82-1.82s.98-1.12,1.21-1.48.4-.69.49-.98.14-.59.14-.9c0-.72-.42-1.13-1.25-1.23l.21-.96h5.57l.39.96Z"/>
    </g>
  </g>
</svg>