<?xml version="1.0" encoding="UTF-8"?>
<svg xmlns="http://www.w3.org/2000/svg" width="1245" height="1020" xmlns:xlink="http://www.w3.org/1999/xlink" viewBox="0 0 1245 1020">
  <defs>
    <style>
      .uuid-f800c043-3725-4737-b667-f30aa656f0b2 {
        fill: #fff;
      }

      .uuid-9719f341-c820-4fb1-b2e5-b8dceea733fd {
        stroke: rgba(192, 192, 192, .24);
      }

      .uuid-9719f341-c820-4fb1-b2e5-b8dceea733fd, .uuid-eeb9a913-f888-4db1-9cb2-bd08ef5418cf, .uuid-9282672a-d68d-4fde-bc94-f3456c87c602, .uuid-fe758929-05ff-4b11-815c-773f26ef18b3, .uuid-02cea68d-14c8-47ef-a517-45a921137878, .uuid-d11a814f-8692-42d2-9e83-ca1438ebae82, .uuid-28182ac1-0e5b-433f-a656-5f6b09c86ad3, .uuid-f71ffb48-8f8f-488a-9364-c06eeb597b51 {
        fill: none;
      }

      .uuid-9719f341-c820-4fb1-b2e5-b8dceea733fd, .uuid-eeb9a913-f888-4db1-9cb2-bd08ef5418cf, .uuid-28182ac1-0e5b-433f-a656-5f6b09c86ad3 {
        stroke-linejoin: round;
      }

      .uuid-9719f341-c820-4fb1-b2e5-b8dceea733fd, .uuid-28182ac1-0e5b-433f-a656-5f6b09c86ad3 {
        stroke-dasharray: 0 0 1.14 3.43;
        stroke-width: 1.14px;
      }

      .uuid-eeb9a913-f888-4db1-9cb2-bd08ef5418cf {
        stroke: rgba(244, 0, 153, .7);
        stroke-linecap: round;
        stroke-width: 4.01px;
      }

      .uuid-b4ddeaeb-a3c9-476f-a999-f7edb1204573 {
        fill: #333;
      }

      .uuid-9282672a-d68d-4fde-bc94-f3456c87c602 {
        stroke: #606060;
        stroke-miterlimit: 10;
        stroke-width: 2.29px;
      }

      .uuid-6b8ee81f-2be3-4544-9083-59d2d3df4b59, .uuid-f71ffb48-8f8f-488a-9364-c06eeb597b51 {
        font-family: HelveticaNeue-UltraLight, 'Helvetica Neue UltraLight';
        font-size: 13.73px;
        font-weight: 100;
        isolation: isolate;
      }

      .uuid-6b8ee81f-2be3-4544-9083-59d2d3df4b59, .uuid-bd043e66-d60f-48e7-bd24-59721f40bdf7 {
        fill: #606060;
      }

      .uuid-a51384a5-dfe5-49ad-9b53-c4d52829e5ad {
        fill: #00699b;
      }

      .uuid-fe758929-05ff-4b11-815c-773f26ef18b3 {
        clip-path: url(#uuid-59dc5657-95b7-424f-9c23-48c1ab93ae6a);
      }

      .uuid-d11a814f-8692-42d2-9e83-ca1438ebae82 {
        clip-path: url(#uuid-22e20309-9491-4138-97ed-2374a06a387c);
      }

      .uuid-28182ac1-0e5b-433f-a656-5f6b09c86ad3 {
        stroke: silver;
      }

      .uuid-f71ffb48-8f8f-488a-9364-c06eeb597b51 {
        stroke: #fff;
        stroke-linejoin: bevel;
        stroke-width: 3.43px;
      }

      .uuid-bd043e66-d60f-48e7-bd24-59721f40bdf7 {
        fill-rule: evenodd;
      }
    </style>
    <clipPath id="uuid-59dc5657-95b7-424f-9c23-48c1ab93ae6a">
      <rect class="uuid-02cea68d-14c8-47ef-a517-45a921137878" x="0" y="2.61" width="1245" height="1019.39"/>
    </clipPath>
    <clipPath id="uuid-22e20309-9491-4138-97ed-2374a06a387c">
      <rect class="uuid-02cea68d-14c8-47ef-a517-45a921137878" x="-218.61" y="-10.97" width="1682.22" height="1037.94"/>
    </clipPath>
  </defs>
  <g id="uuid-744f4eb2-b9e5-40ed-b7f0-860a63038aab" data-name="Grafica">
    <g class="uuid-fe758929-05ff-4b11-815c-773f26ef18b3">
      <g class="uuid-d11a814f-8692-42d2-9e83-ca1438ebae82">
        <g>
          <rect class="uuid-f800c043-3725-4737-b667-f30aa656f0b2" x="-218.61" y="-10.97" width="1682.22" height="1037.94"/>
          <path class="uuid-28182ac1-0e5b-433f-a656-5f6b09c86ad3" d="m-175.7-10.4v1037.94m0-1037.94v1037.94M23.42-10.4v1037.94M223.69-10.4v1037.94M422.81-10.4v1037.94M822.19-10.4v1037.94M1021.31-10.4v1037.94M1220.43-10.4v1037.94M1420.7-10.4v1037.94"/>
          <path class="uuid-9719f341-c820-4fb1-b2e5-b8dceea733fd" d="m-215.75-10.4v1037.94M-135.64-10.4v1037.94M-95.59-10.4v1037.94M-56.68-10.4v1037.94M-16.63-10.4v1037.94M63.48-10.4v1037.94M103.53-10.4v1037.94M143.58-10.4v1037.94M183.64-10.4v1037.94M262.6-10.4v1037.94M302.65-10.4v1037.94M342.7-10.4v1037.94M382.76-10.4v1037.94M462.86-10.4v1037.94M502.91-10.4v1037.94M542.97-10.4v1037.94M581.87-10.4v1037.94M661.98-10.4v1037.94M702.03-10.4v1037.94M742.09-10.4v1037.94M782.14-10.4v1037.94M862.24-10.4v1037.94M901.15-10.4v1037.94M941.21-10.4v1037.94M981.26-10.4v1037.94M1061.36-10.4v1037.94M1101.42-10.4v1037.94M1141.47-10.4v1037.94M1181.52-10.4v1037.94M1260.48-10.4v1037.94M1300.54-10.4v1037.94M1340.59-10.4v1037.94M1380.64-10.4v1037.94M1460.75-10.4v1037.94"/>
          <path class="uuid-28182ac1-0e5b-433f-a656-5f6b09c86ad3" d="m-218.04,12.49h1682.22m-1682.22,0h1682.22M-218.04,112.05h1682.22M-218.04,211.61h1682.22M-218.04,311.17h1682.22M-218.04,411.87h1682.22M-218.04,610.99h1682.22m-1682.22,99.56h1682.22m-1682.22,99.56h1682.22m-1682.22,99.56h1682.22m-1682.22,100.7h1682.22"/>
          <path class="uuid-9719f341-c820-4fb1-b2e5-b8dceea733fd" d="m-218.04-8.11h1682.22m-1682.22,0h1682.22M-218.04,31.94h1682.22M-218.04,52.54h1682.22M-218.04,72h1682.22M-218.04,92.59h1682.22M-218.04,131.5h1682.22m-1682.22,20.6h1682.22m-1682.22,19.45h1682.22m-1682.22,20.6h1682.22M-218.04,232.21h1682.22m-1682.22,19.45h1682.22m-1682.22,19.45h1682.22m-1682.22,20.6h1682.22m-1682.22,40.05h1682.22m-1682.22,19.45h1682.22m-1682.22,20.6h1682.22m-1682.22,19.45h1682.22m-1682.22,40.05h1682.22m-1682.22,19.45h1682.22m-1682.22,20.6h1682.22m-1682.22,19.45h1682.22m-1682.22,40.05h1682.22m-1682.22,20.6h1682.22m-1682.22,19.45h1682.22m-1682.22,19.45h1682.22m-1682.22,40.05h1682.22m-1682.22,20.6h1682.22m-1682.22,19.45h1682.22m-1682.22,20.6h1682.22m-1682.22,38.91h1682.22m-1682.22,20.6h1682.22m-1682.22,19.45h1682.22m-1682.22,20.6h1682.22m-1682.22,40.05h1682.22m-1682.22,19.45h1682.22m-1682.22,20.6h1682.22m-1682.22,19.45h1682.22m-1682.22,40.05h1682.22m-1682.22,19.45h1682.22m-1682.22,20.6h1682.22m-1682.22,19.45h1682.22"/>
          <path class="uuid-9282672a-d68d-4fde-bc94-f3456c87c602" d="m622.5-7.54v1034.51"/>
          <path class="uuid-bd043e66-d60f-48e7-bd24-59721f40bdf7" d="m622.27-8.68l-5.72,22.89h11.44"/>
          <path class="uuid-9282672a-d68d-4fde-bc94-f3456c87c602" d="m-218.61,510.86h1678.79"/>
          <text class="uuid-6b8ee81f-2be3-4544-9083-59d2d3df4b59" transform="translate(15.99 529.17)"><tspan x="0" y="0">–3</tspan></text>
          <text class="uuid-f71ffb48-8f8f-488a-9364-c06eeb597b51" transform="translate(15.99 529.17)"><tspan x="0" y="0">–3</tspan></text>
          <text class="uuid-6b8ee81f-2be3-4544-9083-59d2d3df4b59" transform="translate(15.99 529.17)"><tspan x="0" y="0">–3</tspan></text>
          <text class="uuid-6b8ee81f-2be3-4544-9083-59d2d3df4b59" transform="translate(215.11 529.17)"><tspan x="0" y="0">–2</tspan></text>
          <text class="uuid-f71ffb48-8f8f-488a-9364-c06eeb597b51" transform="translate(215.11 529.17)"><tspan x="0" y="0">–2</tspan></text>
          <text class="uuid-6b8ee81f-2be3-4544-9083-59d2d3df4b59" transform="translate(215.11 529.17)"><tspan x="0" y="0">–2</tspan></text>
          <text class="uuid-6b8ee81f-2be3-4544-9083-59d2d3df4b59" transform="translate(415.37 529.17)"><tspan x="0" y="0">–1</tspan></text>
          <text class="uuid-f71ffb48-8f8f-488a-9364-c06eeb597b51" transform="translate(415.37 529.17)"><tspan x="0" y="0">–1</tspan></text>
          <text class="uuid-6b8ee81f-2be3-4544-9083-59d2d3df4b59" transform="translate(415.37 529.17)"><tspan x="0" y="0">–1</tspan></text>
          <text class="uuid-6b8ee81f-2be3-4544-9083-59d2d3df4b59" transform="translate(818.19 529.17)"><tspan x="0" y="0">1</tspan></text>
          <text class="uuid-f71ffb48-8f8f-488a-9364-c06eeb597b51" transform="translate(818.19 529.17)"><tspan x="0" y="0">1</tspan></text>
          <text class="uuid-6b8ee81f-2be3-4544-9083-59d2d3df4b59" transform="translate(818.19 529.17)"><tspan x="0" y="0">1</tspan></text>
          <text class="uuid-6b8ee81f-2be3-4544-9083-59d2d3df4b59" transform="translate(1017.31 529.17)"><tspan x="0" y="0">2</tspan></text>
          <text class="uuid-f71ffb48-8f8f-488a-9364-c06eeb597b51" transform="translate(1017.31 529.17)"><tspan x="0" y="0">2</tspan></text>
          <text class="uuid-6b8ee81f-2be3-4544-9083-59d2d3df4b59" transform="translate(1017.31 529.17)"><tspan x="0" y="0">2</tspan></text>
          <text class="uuid-6b8ee81f-2be3-4544-9083-59d2d3df4b59" transform="translate(1217.57 529.17)"><tspan x="0" y="0">3</tspan></text>
          <text class="uuid-f71ffb48-8f8f-488a-9364-c06eeb597b51" transform="translate(1217.57 529.17)"><tspan x="0" y="0">3</tspan></text>
          <text class="uuid-6b8ee81f-2be3-4544-9083-59d2d3df4b59" transform="translate(1217.57 529.17)"><tspan x="0" y="0">3</tspan></text>
          <text class="uuid-6b8ee81f-2be3-4544-9083-59d2d3df4b59" transform="translate(598.47 1015.53)"><tspan x="0" y="0">–5</tspan></text>
          <text class="uuid-f71ffb48-8f8f-488a-9364-c06eeb597b51" transform="translate(598.47 1015.53)"><tspan x="0" y="0">–5</tspan></text>
          <text class="uuid-6b8ee81f-2be3-4544-9083-59d2d3df4b59" transform="translate(598.47 1015.53)"><tspan x="0" y="0">–5</tspan></text>
          <text class="uuid-6b8ee81f-2be3-4544-9083-59d2d3df4b59" transform="translate(598.47 914.82)"><tspan x="0" y="0">–4</tspan></text>
          <text class="uuid-f71ffb48-8f8f-488a-9364-c06eeb597b51" transform="translate(598.47 914.82)"><tspan x="0" y="0">–4</tspan></text>
          <text class="uuid-6b8ee81f-2be3-4544-9083-59d2d3df4b59" transform="translate(598.47 914.82)"><tspan x="0" y="0">–4</tspan></text>
          <text class="uuid-6b8ee81f-2be3-4544-9083-59d2d3df4b59" transform="translate(598.47 815.26)"><tspan x="0" y="0">–3</tspan></text>
          <text class="uuid-f71ffb48-8f8f-488a-9364-c06eeb597b51" transform="translate(598.47 815.26)"><tspan x="0" y="0">–3</tspan></text>
          <text class="uuid-6b8ee81f-2be3-4544-9083-59d2d3df4b59" transform="translate(598.47 815.26)"><tspan x="0" y="0">–3</tspan></text>
          <text class="uuid-6b8ee81f-2be3-4544-9083-59d2d3df4b59" transform="translate(598.47 715.7)"><tspan x="0" y="0">–2</tspan></text>
          <text class="uuid-f71ffb48-8f8f-488a-9364-c06eeb597b51" transform="translate(598.47 715.7)"><tspan x="0" y="0">–2</tspan></text>
          <text class="uuid-6b8ee81f-2be3-4544-9083-59d2d3df4b59" transform="translate(598.47 715.7)"><tspan x="0" y="0">–2</tspan></text>
          <text class="uuid-6b8ee81f-2be3-4544-9083-59d2d3df4b59" transform="translate(598.47 616.14)"><tspan x="0" y="0">–1</tspan></text>
          <text class="uuid-f71ffb48-8f8f-488a-9364-c06eeb597b51" transform="translate(598.47 616.14)"><tspan x="0" y="0">–1</tspan></text>
          <text class="uuid-6b8ee81f-2be3-4544-9083-59d2d3df4b59" transform="translate(598.47 616.14)"><tspan x="0" y="0">–1</tspan></text>
          <text class="uuid-6b8ee81f-2be3-4544-9083-59d2d3df4b59" transform="translate(605.33 417.02)"><tspan x="0" y="0">1</tspan></text>
          <text class="uuid-f71ffb48-8f8f-488a-9364-c06eeb597b51" transform="translate(605.33 417.02)"><tspan x="0" y="0">1</tspan></text>
          <text class="uuid-6b8ee81f-2be3-4544-9083-59d2d3df4b59" transform="translate(605.33 417.02)"><tspan x="0" y="0">1</tspan></text>
          <text class="uuid-6b8ee81f-2be3-4544-9083-59d2d3df4b59" transform="translate(605.33 316.32)"><tspan x="0" y="0">2</tspan></text>
          <text class="uuid-f71ffb48-8f8f-488a-9364-c06eeb597b51" transform="translate(605.33 316.32)"><tspan x="0" y="0">2</tspan></text>
          <text class="uuid-6b8ee81f-2be3-4544-9083-59d2d3df4b59" transform="translate(605.33 316.32)"><tspan x="0" y="0">2</tspan></text>
          <text class="uuid-6b8ee81f-2be3-4544-9083-59d2d3df4b59" transform="translate(605.33 216.76)"><tspan x="0" y="0">3</tspan></text>
          <text class="uuid-f71ffb48-8f8f-488a-9364-c06eeb597b51" transform="translate(605.33 216.76)"><tspan x="0" y="0">3</tspan></text>
          <text class="uuid-6b8ee81f-2be3-4544-9083-59d2d3df4b59" transform="translate(605.33 216.76)"><tspan x="0" y="0">3</tspan></text>
          <text class="uuid-6b8ee81f-2be3-4544-9083-59d2d3df4b59" transform="translate(605.33 117.2)"><tspan x="0" y="0">4</tspan></text>
          <text class="uuid-f71ffb48-8f8f-488a-9364-c06eeb597b51" transform="translate(605.33 117.2)"><tspan x="0" y="0">4</tspan></text>
          <text class="uuid-6b8ee81f-2be3-4544-9083-59d2d3df4b59" transform="translate(605.33 117.2)"><tspan x="0" y="0">4</tspan></text>
          <text class="uuid-6b8ee81f-2be3-4544-9083-59d2d3df4b59" transform="translate(605.33 17.64)"><tspan x="0" y="0">5</tspan></text>
          <text class="uuid-f71ffb48-8f8f-488a-9364-c06eeb597b51" transform="translate(605.33 17.64)"><tspan x="0" y="0">5</tspan></text>
          <text class="uuid-6b8ee81f-2be3-4544-9083-59d2d3df4b59" transform="translate(605.33 17.64)"><tspan x="0" y="0">5</tspan></text>
          <text class="uuid-6b8ee81f-2be3-4544-9083-59d2d3df4b59" transform="translate(605.33 529.17)"><tspan x="0" y="0">0</tspan></text>
          <text class="uuid-f71ffb48-8f8f-488a-9364-c06eeb597b51" transform="translate(605.33 529.17)"><tspan x="0" y="0">0</tspan></text>
          <text class="uuid-6b8ee81f-2be3-4544-9083-59d2d3df4b59" transform="translate(605.33 529.17)"><tspan x="0" y="0">0</tspan></text>
          <path class="uuid-eeb9a913-f888-4db1-9cb2-bd08ef5418cf" d="m-218.61,514.03l6.57.1,6.57.1,6.57.11,6.57.11,6.57.11,6.57.12,6.57.12,6.57.12,6.57.13,6.57.13,6.57.14,6.57.14,6.57.15,6.57.15,6.57.16,6.57.16,6.57.17,6.57.17,6.57.18,6.57.19,6.57.19,6.57.2,6.57.2,6.57.21,6.57.22,6.57.23,6.57.23,6.57.24,6.57.25,6.57.26,6.57.27,6.57.28,6.57.28,6.57.29,6.57.3,6.57.31,6.57.33,6.57.34,6.57.35,6.57.36,6.57.37,6.57.38,6.57.4,6.57.41,6.57.43,6.57.44,6.57.46,6.57.47,6.57.49,6.57.5,6.57.52,6.57.54,6.57.56,6.57.58,6.57.6,6.57.62,6.57.64,6.57.66,6.57.69,6.57.71,6.57.74,6.57.76,6.57.79,6.57.82,6.57.85,6.57.88,6.57.91,6.57.95,6.57.98,6.57,1.02,6.57,1.06,6.57,1.1,6.57,1.14,6.57,1.19,6.57,1.24,6.57,1.28,6.57,1.34,6.57,1.39,6.57,1.45,6.57,1.51,6.57,1.57,6.57,1.64,6.57,1.71,6.57,1.79,6.57,1.87,6.57,1.95,6.57,2.04,6.57,2.14,6.57,2.25,6.57,2.36,6.57,2.48,6.57,2.61,6.57,2.75,6.57,2.9,6.57,3.06,6.57,3.24,6.57,3.44,6.57,3.65,6.57,3.88,6.57,4.14,6.57,4.43,6.57,4.75,6.57,5.1,6.57,5.5,6.57,5.95,6.57,6.46,6.57,7.04,6.57,7.71,6.57,8.48,6.57,9.37,6.57,10.43,3.29,5.67,3.29,6.01,3.29,6.38,3.29,6.8,3.29,7.25,3.29,7.75,3.29,8.31,3.29,8.93,3.29,9.63,3.29,10.42,3.29,11.3,1.64,6.02,1.64,6.29,1.64,6.58,1.64,6.89,1.64,7.22,1.64,7.57,1.64,7.96,1.64,8.37,1.64,8.82,1.64,9.3,1.64,9.83,1.64,10.4,1.64,11.03.82,5.77.82,5.94.82,6.13.82,6.33.82,6.53.82,6.75.82,6.98.82,7.22.82,7.47.82,7.74.82,8.02.82,8.31.82,8.63.82,8.96.82,9.31.82,9.68.82,10.07.82,10.49.82,10.94.82,11.42M659.46-21.06l.41,5.88.41,5.75.82,11.14.82,10.68.82,10.25.82,9.85.82,9.47.82,9.11.82,8.77.82,8.45.82,8.14.82,7.86.82,7.58.82,7.33.82,7.08.82,6.85.82,6.63.82,6.42.82,6.22.82,6.02.82,5.84.82,5.67,1.64,10.84,1.64,10.23,1.64,9.67,1.64,9.16,1.64,8.69,1.64,8.25,1.64,7.84,1.64,7.47,1.64,7.12,1.64,6.8,1.64,6.49,1.64,6.21,1.64,5.95,3.29,11.17,3.29,10.3,3.29,9.53,3.29,8.84,3.29,8.23,3.29,7.68,3.29,7.18,3.29,6.74,3.29,6.33,3.29,5.96,3.29,5.62,6.57,10.35,6.57,9.31,6.57,8.42,6.57,7.66,6.57,7,6.57,6.42,6.57,5.92,6.57,5.47,6.57,5.08,6.57,4.72,6.57,4.41,6.57,4.12,6.57,3.87,6.57,3.63,6.57,3.42,6.57,3.23,6.57,3.05,6.57,2.89,6.57,2.74,6.57,2.6,6.57,2.47,6.57,2.35,6.57,2.24,6.57,2.14,6.57,2.04,6.57,1.95,6.57,1.86,6.57,1.78,6.57,1.71,6.57,1.63,6.57,1.57,6.57,1.5,6.57,1.44,6.57,1.39,6.57,1.33,6.57,1.28,6.57,1.23,6.57,1.19,6.57,1.14,6.57,1.1,6.57,1.06,6.57,1.02,6.57.98,6.57.95,6.57.91,6.57.88,6.57.85,6.57.82,6.57.79,6.57.76,6.57.74,6.57.71,6.57.69,6.57.66,6.57.64,6.57.62,6.57.6,6.57.58,6.57.56,6.57.54,6.57.52,6.57.5,6.57.49,6.57.47,6.57.45,6.57.44,6.57.42,6.57.41,6.57.4,6.57.38,6.57.37,6.57.36,6.57.35,6.57.34,6.57.32,6.57.31,6.57.3,6.57.29,6.57.28,6.57.27,6.57.27,6.57.26,6.57.25,6.57.24,6.57.23,6.57.23,6.57.22,6.57.21,6.57.2,6.57.2,6.57.19,6.57.18,6.57.18,6.57.17,6.57.17,6.57.16,6.57.16,6.57.15,6.57.15,6.57.14,6.57.14,6.57.13,6.57.13,6.57.12,6.57.12,6.57.12,6.57.11,6.57.11,6.57.11,6.57.1,6.57.1"/>
        </g>
      </g>
    </g>
  </g>
  <g id="uuid-5190e25f-4a6d-4420-aa04-1d677f63c333" data-name="Marco">
    <path class="uuid-a51384a5-dfe5-49ad-9b53-c4d52829e5ad" d="m-2-2V1022h1249V-2H-2Zm1232,987c0,11.05-8.95,20-20,20H35c-11.05,0-20-8.95-20-20V35c0-11.05,8.95-20,20-20h1175c11.05,0,20,8.95,20,20v950Z"/>
  </g>
  <g id="uuid-273bfbd1-873e-4c44-bddd-d014dee38ec0" data-name="texto">
    <g>
      <path class="uuid-b4ddeaeb-a3c9-476f-a999-f7edb1204573" d="m242.65,264.28c-.13-.99-.25-1.68-.37-2.06-.12-.38-.31-.68-.57-.88-.26-.2-.68-.32-1.27-.36l.21-.96h5.02l1.48,15.53c4.4-6.02,6.6-10.33,6.6-12.93,0-.61-.13-1.03-.39-1.25-.26-.22-.7-.35-1.33-.39l.2-.96h5.04l.53.98c-.69,1.81-1.57,3.68-2.65,5.62-1.07,1.94-2.39,4.06-3.95,6.37s-3.28,4.7-5.19,7.19c-1.46,1.91-2.68,3.36-3.67,4.34-.77.74-1.47,1.3-2.12,1.69-.64.38-1.27.66-1.88.82-.61.16-1.25.24-1.92.24-.35,0-.75-.04-1.19-.11-.44-.07-.82-.17-1.13-.28l.84-3.65h1.52c.01.44.12.79.31,1.05.2.26.48.39.86.39.42,0,.77-.04,1.07-.13.3-.09.62-.22.95-.42s.74-.51,1.21-.94,1.01-1,1.61-1.71c.6-.71,1.27-1.57,2.01-2.57l-1.86-14.63Z"/>
      <path class="uuid-b4ddeaeb-a3c9-476f-a999-f7edb1204573" d="m269.16,264.52v-2.6h24.06v2.6h-24.06Zm0,8.11v-2.6h24.06v2.6h-24.06Z"/>
      <path class="uuid-b4ddeaeb-a3c9-476f-a999-f7edb1204573" d="m319.29,264.71c-.03-.99-.11-1.71-.24-2.15-.14-.44-.36-.78-.66-1-.31-.22-.74-.33-1.3-.33-1.32,0-2.5.52-3.54,1.57-1.05,1.05-1.9,2.53-2.57,4.45-.66,1.92-1,3.77-1,5.54,0,.55.05,1.06.15,1.54.1.48.27.9.51,1.25s.56.63.96.83c.4.2.9.3,1.51.3,1.18,0,2.21-.22,3.08-.67s1.78-1.16,2.74-2.12l1.19,1.19c-1.22,1.35-2.46,2.34-3.7,2.97s-2.58.94-4.01.94c-1.89,0-3.32-.56-4.3-1.68-.98-1.12-1.46-2.75-1.46-4.88,0-1.39.26-2.92.78-4.59.52-1.67,1.28-3.13,2.29-4.39,1-1.26,2.17-2.21,3.52-2.83s2.77-.94,4.3-.94c1.04,0,1.95.06,2.72.18s1.46.25,2.06.41l-.96,4.41h-2.05Z"/>
      <path class="uuid-b4ddeaeb-a3c9-476f-a999-f7edb1204573" d="m335.15,264.58c-.14-1.17-.48-2.02-1.01-2.55s-1.34-.79-2.45-.79c-.61,0-1.17.11-1.66.34-.5.23-.89.56-1.17,1-.29.44-.43.95-.43,1.53,0,.48.1.92.29,1.32.2.4.52.81.99,1.24s1.11.92,1.94,1.48c1.26.85,2.15,1.67,2.66,2.46.51.79.76,1.71.76,2.75,0,1.22-.29,2.26-.88,3.12-.59.85-1.39,1.49-2.4,1.9-1.02.42-2.16.62-3.44.62-1.15,0-2.22-.09-3.21-.25-1-.17-1.96-.38-2.9-.64l.92-4.22h1.52c.09,1.2.43,2.09,1.03,2.69.59.59,1.46.89,2.59.89s2.06-.29,2.71-.87c.65-.58.98-1.35.98-2.29,0-.56-.1-1.06-.29-1.5-.2-.44-.5-.87-.92-1.27-.42-.4-1.01-.87-1.78-1.39-.82-.56-1.48-1.09-1.99-1.58-.51-.5-.9-1.04-1.18-1.63-.28-.59-.42-1.25-.42-1.96,0-1.08.27-2.02.8-2.81.53-.79,1.29-1.4,2.28-1.82.98-.42,2.13-.62,3.45-.62,2.15,0,4.04.28,5.68.84l-.9,4.02h-1.56Z"/>
      <path class="uuid-b4ddeaeb-a3c9-476f-a999-f7edb1204573" d="m351.89,264.71c-.03-.99-.11-1.71-.24-2.15-.14-.44-.36-.78-.66-1-.31-.22-.74-.33-1.3-.33-1.32,0-2.5.52-3.54,1.57-1.05,1.05-1.9,2.53-2.57,4.45-.66,1.92-1,3.77-1,5.54,0,.55.05,1.06.15,1.54.1.48.27.9.51,1.25s.56.63.96.83c.4.2.9.3,1.51.3,1.18,0,2.21-.22,3.08-.67s1.78-1.16,2.74-2.12l1.19,1.19c-1.22,1.35-2.46,2.34-3.7,2.97s-2.58.94-4.01.94c-1.89,0-3.32-.56-4.3-1.68-.98-1.12-1.46-2.75-1.46-4.88,0-1.39.26-2.92.78-4.59.52-1.67,1.28-3.13,2.29-4.39,1-1.26,2.17-2.21,3.52-2.83s2.77-.94,4.3-.94c1.04,0,1.95.06,2.72.18s1.46.25,2.06.41l-.96,4.41h-2.05Z"/>
      <path class="uuid-b4ddeaeb-a3c9-476f-a999-f7edb1204573" d="m372.89,278.7h-6.13l2.46-9.92c.18-.72.34-1.44.48-2.18.14-.74.21-1.4.21-2,0-.94-.16-1.61-.47-2-.31-.4-.84-.6-1.58-.6-.53,0-1.12.22-1.77.66-.64.44-1.33,1.12-2.04,2.02-.72.9-1.29,1.77-1.71,2.6-.42.83-.76,1.81-1.01,2.96l-1.78,8.46h-3.38l5.02-22.32c.14-.65.24-1.12.3-1.42s.1-.56.13-.81c.03-.25.04-.47.04-.66,0-.55-.17-.93-.5-1.15-.33-.22-.93-.35-1.79-.37l.23-1.02,4.94-.18h1.13l-3.36,13.54.23.08c1.22-1.63,2.39-2.81,3.5-3.55s2.23-1.11,3.38-1.11c1.26,0,2.22.35,2.87,1.04.65.7.98,1.73.98,3.1,0,.83-.13,1.84-.39,3.01l-1.64,6.95c-.13.56-.22,1.01-.27,1.35-.05.34-.08.63-.08.88,0,.4.07.71.21.94.14.22.34.39.62.5.28.11.73.2,1.34.26l-.18.96Z"/>
      <path class="uuid-b4ddeaeb-a3c9-476f-a999-f7edb1204573" d="m403.16,260.98c-2.53,2.7-5.17,5.36-7.93,7.99l1.82,4.28c.48,1.14.87,1.99,1.15,2.53.29.54.55.93.78,1.17.23.24.47.42.7.53.23.11.61.2,1.11.26l-.21.96h-4.86l-2.71-7.85c-.31.27-.73.65-1.24,1.14s-1.01,1.01-1.49,1.56c-.48.55-.82,1-1.02,1.34-.2.34-.32.63-.38.88-.06.25-.09.5-.09.76,0,.34.09.61.28.8s.51.33.97.41l-.21.96h-5.57l-.37-.96c2.85-3.06,5.66-5.88,8.42-8.46l-1.86-4.36c-.38-.89-.68-1.56-.92-2.02-.23-.46-.46-.82-.67-1.07s-.46-.45-.74-.59-.68-.22-1.2-.26l.21-.96h4.86l2.6,7.36c.64-.59,1.24-1.19,1.82-1.82s.98-1.12,1.21-1.48c.23-.37.4-.69.49-.98.09-.29.14-.59.14-.9,0-.72-.42-1.13-1.25-1.23l.21-.96h5.57l.39.96Z"/>
    </g>
  </g>
</svg>