<?xml version="1.0" encoding="UTF-8"?>
<svg xmlns="http://www.w3.org/2000/svg" width="1245" height="1020" xmlns:xlink="http://www.w3.org/1999/xlink" viewBox="0 0 1245 1020">
  <defs>
    <style>
      .uuid-f302cdaf-c648-4370-abfb-bbe6888d7852 {
        stroke: #fff;
        stroke-linejoin: bevel;
        stroke-width: 3.3px;
      }

      .uuid-f302cdaf-c648-4370-abfb-bbe6888d7852, .uuid-0cf626df-c281-43f2-b5b8-44d893f5f397, .uuid-42bb24d1-cc56-43f7-bd4e-d9600286385f, .uuid-c8e1c784-047c-4f5c-bea2-f9e63ed96eac, .uuid-d9cc37e8-2ca3-4408-9483-7537b558a6e7, .uuid-e88623bb-ed49-4bc9-9e71-ea39e28388b4, .uuid-8a979901-1a74-4ca2-b16f-b218c58669c2, .uuid-c4cee8c4-f01a-45fc-9d09-664e31b4cd5e, .uuid-33c3ea04-c0d4-4052-b423-f3b3ff99eaa6, .uuid-17bcbc38-0e3d-43e5-97c0-dbfa4863725c {
        fill: none;
      }

      .uuid-f302cdaf-c648-4370-abfb-bbe6888d7852, .uuid-1dbafbc8-a935-4f18-91eb-9d34f14e7d08 {
        font-family: HelveticaNeue-UltraLight, 'Helvetica Neue UltraLight';
        font-size: 13.19px;
        font-weight: 100;
        isolation: isolate;
      }

      .uuid-b7ea7787-ccd2-4c1a-b279-d6018dc6b78b {
        fill: #fff;
      }

      .uuid-0cf626df-c281-43f2-b5b8-44d893f5f397 {
        stroke: rgba(153, 51, 255, .7);
      }

      .uuid-0cf626df-c281-43f2-b5b8-44d893f5f397, .uuid-42bb24d1-cc56-43f7-bd4e-d9600286385f, .uuid-d9cc37e8-2ca3-4408-9483-7537b558a6e7, .uuid-c4cee8c4-f01a-45fc-9d09-664e31b4cd5e, .uuid-33c3ea04-c0d4-4052-b423-f3b3ff99eaa6 {
        stroke-linecap: round;
        stroke-linejoin: round;
      }

      .uuid-0cf626df-c281-43f2-b5b8-44d893f5f397, .uuid-c4cee8c4-f01a-45fc-9d09-664e31b4cd5e, .uuid-33c3ea04-c0d4-4052-b423-f3b3ff99eaa6 {
        stroke-width: 3.85px;
      }

      .uuid-42bb24d1-cc56-43f7-bd4e-d9600286385f {
        stroke: rgba(192, 192, 192, .24);
      }

      .uuid-42bb24d1-cc56-43f7-bd4e-d9600286385f, .uuid-d9cc37e8-2ca3-4408-9483-7537b558a6e7, .uuid-e88623bb-ed49-4bc9-9e71-ea39e28388b4 {
        stroke-width: 1.1px;
      }

      .uuid-2629b778-8f7e-4d9a-84c1-7ad0b0c453ec {
        fill: #333;
      }

      .uuid-c8e1c784-047c-4f5c-bea2-f9e63ed96eac {
        clip-path: url(#uuid-f483a9ee-941a-43ce-8656-d9f23bc5b1ff);
      }

      .uuid-d9cc37e8-2ca3-4408-9483-7537b558a6e7 {
        stroke: silver;
      }

      .uuid-fd4e2871-0277-4050-b550-268f3d612eb3 {
        fill: #00699b;
      }

      .uuid-e88623bb-ed49-4bc9-9e71-ea39e28388b4 {
        stroke: #252525;
        stroke-miterlimit: 10;
      }

      .uuid-c4cee8c4-f01a-45fc-9d09-664e31b4cd5e {
        stroke: rgba(0, 0, 0, .7);
      }

      .uuid-1dbafbc8-a935-4f18-91eb-9d34f14e7d08 {
        fill: #252525;
      }

      .uuid-33c3ea04-c0d4-4052-b423-f3b3ff99eaa6 {
        stroke: rgba(0, 100, 0, .7);
      }

      .uuid-17bcbc38-0e3d-43e5-97c0-dbfa4863725c {
        clip-path: url(#uuid-366a7112-d96e-4929-bfb1-e1104c72c66c);
      }
    </style>
    <clipPath id="uuid-f483a9ee-941a-43ce-8656-d9f23bc5b1ff">
      <rect class="uuid-8a979901-1a74-4ca2-b16f-b218c58669c2" y="2.61" width="1245" height="1019.39"/>
    </clipPath>
    <clipPath id="uuid-366a7112-d96e-4929-bfb1-e1104c72c66c">
      <rect class="uuid-8a979901-1a74-4ca2-b16f-b218c58669c2" x="-185.68" y="7.5" width="1616.36" height="1005"/>
    </clipPath>
  </defs>
  <g id="uuid-d645a40e-a07b-42d4-a84d-5a9f5b0d49a8" data-name="Grafica">
    <g class="uuid-c8e1c784-047c-4f5c-bea2-f9e63ed96eac">
      <g class="uuid-17bcbc38-0e3d-43e5-97c0-dbfa4863725c">
        <g>
          <rect class="uuid-b7ea7787-ccd2-4c1a-b279-d6018dc6b78b" x="-185.68" y="7.5" width="1616.36" height="1005"/>
          <path class="uuid-d9cc37e8-2ca3-4408-9483-7537b558a6e7" d="m-158.74,8.05v1005m0-1005v1005M-61.98,8.05v1005M35.88,8.05v1005M133.74,8.05v1005M231.61,8.05v1005M329.47,8.05v1005M426.23,8.05v1005M524.09,8.05v1005M719.81,8.05v1005M816.57,8.05v1005M914.43,8.05v1005M1012.29,8.05v1005M1110.16,8.05v1005M1208.02,8.05v1005M1304.78,8.05v1005M1402.64,8.05v1005"/>
          <path class="uuid-42bb24d1-cc56-43f7-bd4e-d9600286385f" d="m-178.53,8.05v1005M-140.05,8.05v1005M-120.25,8.05v1005M-100.46,8.05v1005M-80.67,8.05v1005M-42.19,8.05v1005M-22.39,8.05v1005M-2.6,8.05v1005M16.09,8.05v1005M55.68,8.05v1005M75.47,8.05v1005M94.16,8.05v1005M113.95,8.05v1005M153.54,8.05v1005M173.33,8.05v1005M192.02,8.05v1005M211.81,8.05v1005M251.4,8.05v1005M270.09,8.05v1005M289.88,8.05v1005M309.67,8.05v1005M348.16,8.05v1005M367.95,8.05v1005M387.74,8.05v1005M407.54,8.05v1005M446.02,8.05v1005M465.81,8.05v1005M485.6,8.05v1005M504.3,8.05v1005M543.88,8.05v1005M563.67,8.05v1005M582.37,8.05v1005M602.16,8.05v1005M641.74,8.05v1005M660.43,8.05v1005M680.23,8.05v1005M700.02,8.05v1005M738.5,8.05v1005M758.3,8.05v1005M778.09,8.05v1005M797.88,8.05v1005M836.36,8.05v1005M856.16,8.05v1005M875.95,8.05v1005M894.64,8.05v1005M934.23,8.05v1005M954.02,8.05v1005M972.71,8.05v1005M992.5,8.05v1005M1032.09,8.05v1005m19.79-1005v1005m18.69-1005v1005m19.79-1005v1005M1129.95,8.05v1005m18.69-1005v1005m19.79-1005v1005m19.79-1005v1005M1226.71,8.05v1005m19.79-1005v1005m19.79-1005v1005m19.79-1005v1005M1324.57,8.05v1005m19.79-1005v1005m19.79-1005v1005m18.69-1005v1005M1422.43,8.05v1005"/>
          <path class="uuid-d9cc37e8-2ca3-4408-9483-7537b558a6e7" d="m-185.13,23.44h1616.36m-1616.36,0h1616.36M-185.13,121.3h1616.36M-185.13,219.17h1616.36M-185.13,315.93h1616.36M-185.13,413.79h1616.36M-185.13,609.51h1616.36m-1616.36,97.86h1616.36m-1616.36,96.76h1616.36m-1616.36,97.86h1616.36m-1616.36,97.86h1616.36"/>
          <path class="uuid-42bb24d1-cc56-43f7-bd4e-d9600286385f" d="m-185.13,23.44h1616.36M-185.13,43.24h1616.36M-185.13,63.03h1616.36M-185.13,81.72h1616.36M-185.13,101.51h1616.36M-185.13,141.1h1616.36m-1616.36,18.69h1616.36m-1616.36,19.79h1616.36m-1616.36,19.79h1616.36M-185.13,237.86h1616.36m-1616.36,19.79h1616.36m-1616.36,19.79h1616.36m-1616.36,19.79h1616.36m-1616.36,38.48h1616.36m-1616.36,19.79h1616.36m-1616.36,19.79h1616.36m-1616.36,19.79h1616.36m-1616.36,38.48h1616.36m-1616.36,19.79h1616.36m-1616.36,19.79h1616.36m-1616.36,18.69h1616.36m-1616.36,39.58h1616.36m-1616.36,19.79h1616.36m-1616.36,18.69h1616.36m-1616.36,19.79h1616.36m-1616.36,39.58h1616.36m-1616.36,18.69h1616.36m-1616.36,19.79h1616.36m-1616.36,19.79h1616.36m-1616.36,38.48h1616.36m-1616.36,19.79h1616.36m-1616.36,19.79h1616.36m-1616.36,19.79h1616.36m-1616.36,38.48h1616.36m-1616.36,19.79h1616.36m-1616.36,19.79h1616.36m-1616.36,18.69h1616.36m-1616.36,39.58h1616.36m-1616.36,19.79h1616.36m-1616.36,18.69h1616.36m-1616.36,19.79h1616.36"/>
          <path class="uuid-e88623bb-ed49-4bc9-9e71-ea39e28388b4" d="m621.95,10.25v1002.8"/>
          <path class="uuid-e88623bb-ed49-4bc9-9e71-ea39e28388b4" d="m621.95,9.15l-4.4,4.4"/>
          <path class="uuid-e88623bb-ed49-4bc9-9e71-ea39e28388b4" d="m621.95,9.15l4.4,4.4"/>
          <path class="uuid-e88623bb-ed49-4bc9-9e71-ea39e28388b4" d="m-185.13,511.65h1614.16"/>
          <text class="uuid-1dbafbc8-a935-4f18-91eb-9d34f14e7d08" transform="translate(29.84 528.69)"><tspan x="0" y="0">–6</tspan></text>
          <text class="uuid-f302cdaf-c648-4370-abfb-bbe6888d7852" transform="translate(29.84 528.69)"><tspan x="0" y="0">–6</tspan></text>
          <text class="uuid-1dbafbc8-a935-4f18-91eb-9d34f14e7d08" transform="translate(29.84 528.69)"><tspan x="0" y="0">–6</tspan></text>
          <text class="uuid-1dbafbc8-a935-4f18-91eb-9d34f14e7d08" transform="translate(127.7 528.69)"><tspan x="0" y="0">–5</tspan></text>
          <text class="uuid-f302cdaf-c648-4370-abfb-bbe6888d7852" transform="translate(127.7 528.69)"><tspan x="0" y="0">–5</tspan></text>
          <text class="uuid-1dbafbc8-a935-4f18-91eb-9d34f14e7d08" transform="translate(127.7 528.69)"><tspan x="0" y="0">–5</tspan></text>
          <text class="uuid-1dbafbc8-a935-4f18-91eb-9d34f14e7d08" transform="translate(225.56 528.69)"><tspan x="0" y="0">–4</tspan></text>
          <text class="uuid-f302cdaf-c648-4370-abfb-bbe6888d7852" transform="translate(225.56 528.69)"><tspan x="0" y="0">–4</tspan></text>
          <text class="uuid-1dbafbc8-a935-4f18-91eb-9d34f14e7d08" transform="translate(225.56 528.69)"><tspan x="0" y="0">–4</tspan></text>
          <text class="uuid-1dbafbc8-a935-4f18-91eb-9d34f14e7d08" transform="translate(323.42 528.69)"><tspan x="0" y="0">–3</tspan></text>
          <text class="uuid-f302cdaf-c648-4370-abfb-bbe6888d7852" transform="translate(323.42 528.69)"><tspan x="0" y="0">–3</tspan></text>
          <text class="uuid-1dbafbc8-a935-4f18-91eb-9d34f14e7d08" transform="translate(323.42 528.69)"><tspan x="0" y="0">–3</tspan></text>
          <text class="uuid-1dbafbc8-a935-4f18-91eb-9d34f14e7d08" transform="translate(420.18 528.69)"><tspan x="0" y="0">–2</tspan></text>
          <text class="uuid-f302cdaf-c648-4370-abfb-bbe6888d7852" transform="translate(420.18 528.69)"><tspan x="0" y="0">–2</tspan></text>
          <text class="uuid-1dbafbc8-a935-4f18-91eb-9d34f14e7d08" transform="translate(420.18 528.69)"><tspan x="0" y="0">–2</tspan></text>
          <text class="uuid-1dbafbc8-a935-4f18-91eb-9d34f14e7d08" transform="translate(518.04 528.69)"><tspan x="0" y="0">–1</tspan></text>
          <text class="uuid-f302cdaf-c648-4370-abfb-bbe6888d7852" transform="translate(518.04 528.69)"><tspan x="0" y="0">–1</tspan></text>
          <text class="uuid-1dbafbc8-a935-4f18-91eb-9d34f14e7d08" transform="translate(518.04 528.69)"><tspan x="0" y="0">–1</tspan></text>
          <text class="uuid-1dbafbc8-a935-4f18-91eb-9d34f14e7d08" transform="translate(717.06 528.69)"><tspan x="0" y="0">1</tspan></text>
          <text class="uuid-f302cdaf-c648-4370-abfb-bbe6888d7852" transform="translate(717.06 528.69)"><tspan x="0" y="0">1</tspan></text>
          <text class="uuid-1dbafbc8-a935-4f18-91eb-9d34f14e7d08" transform="translate(717.06 528.69)"><tspan x="0" y="0">1</tspan></text>
          <text class="uuid-1dbafbc8-a935-4f18-91eb-9d34f14e7d08" transform="translate(813.82 528.69)"><tspan x="0" y="0">2</tspan></text>
          <text class="uuid-f302cdaf-c648-4370-abfb-bbe6888d7852" transform="translate(813.82 528.69)"><tspan x="0" y="0">2</tspan></text>
          <text class="uuid-1dbafbc8-a935-4f18-91eb-9d34f14e7d08" transform="translate(813.82 528.69)"><tspan x="0" y="0">2</tspan></text>
          <text class="uuid-1dbafbc8-a935-4f18-91eb-9d34f14e7d08" transform="translate(911.68 528.69)"><tspan x="0" y="0">3</tspan></text>
          <text class="uuid-f302cdaf-c648-4370-abfb-bbe6888d7852" transform="translate(911.68 528.69)"><tspan x="0" y="0">3</tspan></text>
          <text class="uuid-1dbafbc8-a935-4f18-91eb-9d34f14e7d08" transform="translate(911.68 528.69)"><tspan x="0" y="0">3</tspan></text>
          <text class="uuid-1dbafbc8-a935-4f18-91eb-9d34f14e7d08" transform="translate(1009.55 528.69)"><tspan x="0" y="0">4</tspan></text>
          <text class="uuid-f302cdaf-c648-4370-abfb-bbe6888d7852" transform="translate(1009.55 528.69)"><tspan x="0" y="0">4</tspan></text>
          <text class="uuid-1dbafbc8-a935-4f18-91eb-9d34f14e7d08" transform="translate(1009.55 528.69)"><tspan x="0" y="0">4</tspan></text>
          <text class="uuid-1dbafbc8-a935-4f18-91eb-9d34f14e7d08" transform="translate(1107.41 528.69)"><tspan x="0" y="0">5</tspan></text>
          <text class="uuid-f302cdaf-c648-4370-abfb-bbe6888d7852" transform="translate(1107.41 528.69)"><tspan x="0" y="0">5</tspan></text>
          <text class="uuid-1dbafbc8-a935-4f18-91eb-9d34f14e7d08" transform="translate(1107.41 528.69)"><tspan x="0" y="0">5</tspan></text>
          <text class="uuid-1dbafbc8-a935-4f18-91eb-9d34f14e7d08" transform="translate(1205.27 528.69)"><tspan x="0" y="0">6</tspan></text>
          <text class="uuid-f302cdaf-c648-4370-abfb-bbe6888d7852" transform="translate(1205.27 528.69)"><tspan x="0" y="0">6</tspan></text>
          <text class="uuid-1dbafbc8-a935-4f18-91eb-9d34f14e7d08" transform="translate(1205.27 528.69)"><tspan x="0" y="0">6</tspan></text>
          <text class="uuid-1dbafbc8-a935-4f18-91eb-9d34f14e7d08" transform="translate(599.41 1004.8)"><tspan x="0" y="0">–5</tspan></text>
          <text class="uuid-f302cdaf-c648-4370-abfb-bbe6888d7852" transform="translate(599.41 1004.8)"><tspan x="0" y="0">–5</tspan></text>
          <text class="uuid-1dbafbc8-a935-4f18-91eb-9d34f14e7d08" transform="translate(599.41 1004.8)"><tspan x="0" y="0">–5</tspan></text>
          <text class="uuid-1dbafbc8-a935-4f18-91eb-9d34f14e7d08" transform="translate(599.41 906.94)"><tspan x="0" y="0">–4</tspan></text>
          <text class="uuid-f302cdaf-c648-4370-abfb-bbe6888d7852" transform="translate(599.41 906.94)"><tspan x="0" y="0">–4</tspan></text>
          <text class="uuid-1dbafbc8-a935-4f18-91eb-9d34f14e7d08" transform="translate(599.41 906.94)"><tspan x="0" y="0">–4</tspan></text>
          <text class="uuid-1dbafbc8-a935-4f18-91eb-9d34f14e7d08" transform="translate(599.41 809.08)"><tspan x="0" y="0">–3</tspan></text>
          <text class="uuid-f302cdaf-c648-4370-abfb-bbe6888d7852" transform="translate(599.41 809.08)"><tspan x="0" y="0">–3</tspan></text>
          <text class="uuid-1dbafbc8-a935-4f18-91eb-9d34f14e7d08" transform="translate(599.41 809.08)"><tspan x="0" y="0">–3</tspan></text>
          <text class="uuid-1dbafbc8-a935-4f18-91eb-9d34f14e7d08" transform="translate(599.41 712.32)"><tspan x="0" y="0">–2</tspan></text>
          <text class="uuid-f302cdaf-c648-4370-abfb-bbe6888d7852" transform="translate(599.41 712.32)"><tspan x="0" y="0">–2</tspan></text>
          <text class="uuid-1dbafbc8-a935-4f18-91eb-9d34f14e7d08" transform="translate(599.41 712.32)"><tspan x="0" y="0">–2</tspan></text>
          <text class="uuid-1dbafbc8-a935-4f18-91eb-9d34f14e7d08" transform="translate(599.41 614.46)"><tspan x="0" y="0">–1</tspan></text>
          <text class="uuid-f302cdaf-c648-4370-abfb-bbe6888d7852" transform="translate(599.41 614.46)"><tspan x="0" y="0">–1</tspan></text>
          <text class="uuid-1dbafbc8-a935-4f18-91eb-9d34f14e7d08" transform="translate(599.41 614.46)"><tspan x="0" y="0">–1</tspan></text>
          <text class="uuid-1dbafbc8-a935-4f18-91eb-9d34f14e7d08" transform="translate(606.01 418.74)"><tspan x="0" y="0">1</tspan></text>
          <text class="uuid-f302cdaf-c648-4370-abfb-bbe6888d7852" transform="translate(606.01 418.74)"><tspan x="0" y="0">1</tspan></text>
          <text class="uuid-1dbafbc8-a935-4f18-91eb-9d34f14e7d08" transform="translate(606.01 418.74)"><tspan x="0" y="0">1</tspan></text>
          <text class="uuid-1dbafbc8-a935-4f18-91eb-9d34f14e7d08" transform="translate(606.01 320.88)"><tspan x="0" y="0">2</tspan></text>
          <text class="uuid-f302cdaf-c648-4370-abfb-bbe6888d7852" transform="translate(606.01 320.88)"><tspan x="0" y="0">2</tspan></text>
          <text class="uuid-1dbafbc8-a935-4f18-91eb-9d34f14e7d08" transform="translate(606.01 320.88)"><tspan x="0" y="0">2</tspan></text>
          <text class="uuid-1dbafbc8-a935-4f18-91eb-9d34f14e7d08" transform="translate(606.01 224.11)"><tspan x="0" y="0">3</tspan></text>
          <text class="uuid-f302cdaf-c648-4370-abfb-bbe6888d7852" transform="translate(606.01 224.11)"><tspan x="0" y="0">3</tspan></text>
          <text class="uuid-1dbafbc8-a935-4f18-91eb-9d34f14e7d08" transform="translate(606.01 224.11)"><tspan x="0" y="0">3</tspan></text>
          <text class="uuid-1dbafbc8-a935-4f18-91eb-9d34f14e7d08" transform="translate(606.01 126.25)"><tspan x="0" y="0">4</tspan></text>
          <text class="uuid-f302cdaf-c648-4370-abfb-bbe6888d7852" transform="translate(606.01 126.25)"><tspan x="0" y="0">4</tspan></text>
          <text class="uuid-1dbafbc8-a935-4f18-91eb-9d34f14e7d08" transform="translate(606.01 126.25)"><tspan x="0" y="0">4</tspan></text>
          <text class="uuid-1dbafbc8-a935-4f18-91eb-9d34f14e7d08" transform="translate(606.01 28.39)"><tspan x="0" y="0">5</tspan></text>
          <text class="uuid-f302cdaf-c648-4370-abfb-bbe6888d7852" transform="translate(606.01 28.39)"><tspan x="0" y="0">5</tspan></text>
          <text class="uuid-1dbafbc8-a935-4f18-91eb-9d34f14e7d08" transform="translate(606.01 28.39)"><tspan x="0" y="0">5</tspan></text>
          <text class="uuid-1dbafbc8-a935-4f18-91eb-9d34f14e7d08" transform="translate(606.01 528.69)"><tspan x="0" y="0">0</tspan></text>
          <text class="uuid-f302cdaf-c648-4370-abfb-bbe6888d7852" transform="translate(606.01 528.69)"><tspan x="0" y="0">0</tspan></text>
          <text class="uuid-1dbafbc8-a935-4f18-91eb-9d34f14e7d08" transform="translate(606.01 528.69)"><tspan x="0" y="0">0</tspan></text>
          <path class="uuid-0cf626df-c281-43f2-b5b8-44d893f5f397" d="m-184.58,511.67h0s0,0,0,0h1.1s1.1,0,1.1,0h1.1s1.1,0,1.1,0h1.1s1.1,0,1.1,0h1.1s1.1,0,1.1,0h1.1s1.1,0,1.1,0h1.1s1.1,0,1.1,0h1.1s1.1,0,1.1,0h1.1s1.1,0,1.1,0h1.1s1.1,0,1.1,0h1.1s1.1,0,1.1,0h1.1s1.1,0,1.1,0h1.1s1.1,0,1.1,0h1.1s1.1,0,1.1,0h1.1s1.1,0,1.1,0h1.1s1.1,0,1.1,0h1.1s1.1,0,1.1,0h1.1s1.1,0,1.1,0h1.1s1.1,0,1.1,0h1.1s1.1,0,1.1,0h1.1s1.1,0,1.1,0h1.1s1.1,0,1.1,0h1.1s1.1,0,1.1,0h1.1s1.1,0,1.1,0h1.1s1.1,0,1.1,0h1.1s1.1,0,1.1,0h1.1s1.1,0,1.1,0h1.1s1.1,0,1.1,0h1.1s1.1,0,1.1,0h1.1s1.1,0,1.1,0h1.1s1.1,0,1.1,0h1.1s1.1,0,1.1,0h1.1s1.1,0,1.1,0h1.1s1.1,0,1.1,0h1.1s1.1,0,1.1,0h1.1s1.1,0,1.1,0h1.1s1.1,0,1.1,0h1.1s1.1,0,1.1,0h1.1s1.1,0,1.1,0h1.1s1.1,0,1.1,0h1.1s1.1,0,1.1,0h1.1s1.1,0,1.1,0h1.1s1.1,0,1.1,0h1.1s1.1,0,1.1,0h1.1s1.1,0,1.1,0h1.1s1.1,0,1.1,0h1.1s1.1,0,1.1,0h1.1s1.1,0,1.1,0h1.1s1.1,0,1.1,0h1.1s1.1,0,1.1,0h1.1s1.1,0,1.1,0h1.1s1.1,0,1.1,0h1.1s1.1,0,1.1,0h1.1s1.1,0,1.1,0h1.1s1.1,0,1.1,0h1.1s1.1,0,1.1,0h1.1s1.1,0,1.1,0h1.1s1.1,0,1.1,0h1.1s1.1,0,1.1,0h1.1s1.1,0,1.1,0h1.1s1.1,0,1.1,0h1.1s1.1,0,1.1,0h1.1s1.1,0,1.1,0h1.1s1.1,0,1.1,0h1.1s1.1,0,1.1,0h1.1s1.1,0,1.1,0h1.1s1.1,0,1.1,0h1.1s1.1,0,1.1,0h1.1s1.1,0,1.1,0h1.1s1.1,0,1.1,0h1.1s1.1,0,1.1,0h1.1s1.1,0,1.1,0h1.1s1.1,0,1.1,0h1.1s1.1,0,1.1,0h1.1s1.1,0,1.1,0h1.1s1.1,0,1.1,0h1.1s1.1,0,1.1,0h1.1s1.1,0,1.1,0h1.1s1.1,0,1.1,0h1.1s1.1,0,1.1,0h1.1s1.1,0,1.1,0h1.1s1.1,0,1.1,0h1.1s1.1,0,1.1,0h1.1s1.1,0,1.1,0H-.95s1.1,0,1.1,0h1.1s1.1,0,1.1,0h1.1s1.1,0,1.1,0h1.1s1.1,0,1.1,0h1.1s1.1,0,1.1,0h1.1s1.1,0,1.1,0h1.1s1.1,0,1.1,0h1.1s1.1,0,1.1,0h1.1s1.1,0,1.1,0h1.1s1.1,0,1.1,0h1.1s1.1,0,1.1,0h1.1s1.1,0,1.1,0h1.1s1.1,0,1.1,0h1.1s1.1,0,1.1,0h1.1s1.1,0,1.1,0h1.1s1.1,0,1.1,0h1.1s1.1,0,1.1,0h1.1s1.1,0,1.1,0h1.1s1.1,0,1.1,0h1.1s1.1,0,1.1,0h1.1s1.1,0,1.1,0h1.1s1.1,0,1.1,0h1.1s1.1,0,1.1,0h1.1s1.1,0,1.1,0h1.1s1.1,0,1.1,0h1.1s1.1,0,1.1,0h1.1s1.1,0,1.1,0h1.1s1.1,0,1.1,0h1.1s1.1,0,1.1,0h1.1s1.1,0,1.1,0h1.1s1.1,0,1.1,0h1.1s1.1,0,1.1,0h1.1s1.1,0,1.1,0h1.1s1.1,0,1.1,0h1.1s1.1,0,1.1,0h1.1s1.1,0,1.1,0h1.1s1.1,0,1.1,0h1.1s1.1,0,1.1,0h1.1s1.1,0,1.1,0h1.1s1.1,0,1.1,0h1.1s1.1,0,1.1,0h1.1s1.1,0,1.1,0h1.1s1.1,0,1.1,0h1.1s1.1,0,1.1,0h1.1s1.1-.01,1.1-.01h1.1s1.1-.01,1.1-.01h1.1s1.1-.01,1.1-.01h1.1s1.1-.01,1.1-.01h1.1s1.1-.01,1.1-.01h1.1s1.1-.01,1.1-.01h1.1s1.1-.01,1.1-.01h1.1s1.1-.01,1.1-.01h1.1s1.1-.01,1.1-.01h1.1s1.1-.01,1.1-.01h1.1s1.1-.01,1.1-.01h1.1s1.1-.01,1.1-.01h1.1s1.1-.01,1.1-.01h1.1s1.1-.01,1.1-.01h1.1s1.1-.01,1.1-.01h1.1s1.1-.01,1.1-.01h1.1s1.1-.01,1.1-.01h1.1s1.1-.01,1.1-.01h1.1s1.1-.02,1.1-.02h1.1s1.1-.02,1.1-.02h1.1s1.1-.02,1.1-.02h1.1s1.1-.02,1.1-.02h1.1s1.1-.02,1.1-.02h1.1s1.1-.02,1.1-.02h1.1s1.1-.02,1.1-.02h1.1s1.1-.02,1.1-.02h1.1s1.1-.02,1.1-.02h1.1s1.1-.02,1.1-.02h1.1s1.1-.02,1.1-.02h1.1s1.1-.02,1.1-.02h1.1s1.1-.02,1.1-.02h1.1s1.1-.02,1.1-.02h1.1s1.1-.02,1.1-.02h1.1s1.1-.02,1.1-.02h1.1s1.1-.02,1.1-.02h1.1s1.1-.02,1.1-.02h1.1s1.1-.02,1.1-.02h1.1s1.1-.02,1.1-.02h1.1s1.1-.02,1.1-.02h1.1s1.1-.02,1.1-.02h1.1s1.1-.02,1.1-.02h1.1s1.1-.03,1.1-.03h1.1s1.1-.03,1.1-.03h1.1s1.1-.03,1.1-.03h1.1s1.1-.03,1.1-.03h1.1s1.1-.03,1.1-.03h1.1s1.1-.03,1.1-.03h1.1s1.1-.03,1.1-.03h1.1s1.1-.03,1.1-.03h0l1.1-.02h0l1.1-.02h0l1.1-.02h0l1.1-.02h0l1.1-.02h0l1.1-.02h0l1.1-.02h0l1.1-.02h0l1.1-.02h0l1.1-.02h0l1.1-.02h0l1.1-.02h0l1.1-.02h0l1.1-.02h0l1.1-.02h0l1.1-.02h0l1.1-.02h0l1.1-.02h0l1.1-.02h0l1.1-.02h0l1.1-.02h0l1.1-.02h0l1.1-.02h0l1.1-.02h0l1.1-.02h0l1.1-.02h0l1.1-.02h0l1.1-.02h0l1.1-.02h0l1.1-.02h0l1.1-.02h0l1.1-.02h0l1.1-.02h0l1.1-.02h0l1.1-.02h0l1.1-.02h0l1.1-.02h0l1.1-.02h0l1.1-.02h0l1.1-.02h0l1.1-.02h0l1.1-.02h0l1.1-.02h0l1.1-.02h0l1.1-.02h0l1.1-.02h0l1.1-.03h0l1.1-.03h0l1.1-.03h0l1.1-.03h0l1.1-.03h0l1.1-.03h0l1.1-.03h0l1.1-.03h0l1.1-.03h0l1.1-.03h0l1.1-.03h0l1.1-.03h0l1.1-.03h0l1.1-.03h0l1.1-.03h0l1.1-.03h0l1.1-.03h0l1.1-.03h0l1.1-.03h0l1.1-.03h0l1.1-.03h0l1.1-.03h0l1.1-.03h0l1.1-.03h0l1.1-.03h0l1.1-.03h0l1.1-.03h0l1.1-.03h0l1.1-.03h0l1.1-.04h0l1.1-.04h0l1.1-.04h0l1.1-.04h0l1.1-.04h0l1.1-.04h0l1.1-.04h0l1.1-.04h0l1.1-.04h0l1.1-.04h0l1.1-.04h0l1.1-.04h0l1.1-.04h0l1.1-.04h0l1.1-.04h0l1.1-.04h0l1.1-.04h0l1.1-.04h0l1.1-.04h0l1.1-.04h0l1.1-.04h0l1.1-.04h0l1.1-.04h0l1.1-.05h0l1.1-.05h0l1.1-.05h0l1.1-.05h0l1.1-.05h0l1.1-.05h0l1.1-.05h0l1.1-.05h0l1.1-.05h0l1.1-.05h0l1.1-.05h0l1.1-.05h0l1.1-.05h0l1.1-.05h0l1.1-.05h0l1.1-.05h0l1.1-.05h0l1.1-.06h0l1.1-.06h0l1.1-.06h0l1.1-.06h0l1.1-.06h0l1.1-.06h0l1.1-.06h0l1.1-.06h0l1.1-.06h0l1.1-.06h0l1.1-.06h0l1.1-.06h0l1.1-.06h0l1.1-.06h0l1.1-.06h0l1.1-.07h0l1.1-.07h0l1.1-.07h0l1.1-.07h0l1.1-.07h0l1.1-.07h0l1.1-.07h0l1.1-.07h0l1.1-.07h0l1.1-.07h0l1.1-.07h0l1.1-.07h0l1.1-.07h0l1.1-.08h0l1.1-.08h0l1.1-.08h0l1.1-.08h0l1.1-.08h0l1.1-.08h0l1.1-.08h0l1.1-.08h0l1.1-.08h0l1.1-.08h0l1.1-.08h0l1.1-.09h0l1.1-.09h0l1.1-.09h0l1.1-.09h0l1.1-.09h0l1.1-.09h0l1.1-.09h0l1.1-.09h0l1.1-.09h0l1.1-.09h0l1.1-.1h0l1.1-.1h0l1.1-.1h0l1.1-.1h0l1.1-.1h0l1.1-.1h0l1.1-.1h0l1.1-.1h0l1.1-.1h0l1.1-.11h0l1.1-.11h0l1.1-.11h0l1.1-.11h0l1.1-.11h0l1.1-.11h0l1.1-.11h0l1.1-.11h0l1.1-.12h0l1.1-.12h0l1.1-.12h0l1.1-.12h0l1.1-.12h0l1.1-.12h0l1.1-.12h0l1.1-.13h0l1.1-.13h0l1.1-.13h0l1.1-.13h0l1.1-.13h0l1.1-.13h0l1.1-.13h0l1.1-.14h0l1.1-.14h0l1.1-.14h0l1.1-.14h0l1.1-.14h0l1.1-.14h0l1.1-.14h0l1.1-.15h0l1.1-.15h0l1.1-.15h0l1.1-.15h0l1.1-.15h0l1.1-.16h0l1.1-.16h0l1.1-.16h0l1.1-.16h0l1.1-.16h0l1.1-.16h0l1.1-.17h0l1.1-.17h0l1.1-.17h0l1.1-.17h0l1.1-.17h0l1.1-.18h0l1.1-.18h0l1.1-.18h0l1.1-.18h0l1.1-.18h0l1.1-.19h0l1.1-.19h0l1.1-.19h0l1.1-.19h0l1.1-.19h0l1.1-.2h0l1.1-.2h0l1.1-.2h0l1.1-.2h0l1.1-.21h0l1.1-.21h0l1.1-.21h0l1.1-.21h0l1.1-.22h0l1.1-.22h0l1.1-.22h0l1.1-.22h0l1.1-.22h0l1.1-.23h0l1.1-.23h0l1.1-.23h0l1.1-.24h0l1.1-.24h0l1.1-.24h0l1.1-.24h0l1.1-.25h0l1.1-.25h0l1.1-.25h0l1.1-.25h0l1.1-.26h0l1.1-.26h0l1.1-.26h0l1.1-.27h0l1.1-.27h0l1.1-.27h0l1.1-.28h0l1.1-.28h0l1.1-.28h0l1.1-.28h0l1.1-.29h0l1.1-.29h0l1.1-.29h0l1.1-.3h0l1.1-.3h0l1.1-.3h0l1.1-.31h0l1.1-.31h0l1.1-.32h0l1.1-.32h0l1.1-.32h0l1.1-.33h0l1.1-.33h0l1.1-.33h0l1.1-.34h0l1.1-.34h0l1.1-.35h0l1.1-.35h0l1.1-.35h0l1.1-.36h0l1.1-.36h0l1.1-.37h0l1.1-.37h0l1.1-.37h0l1.1-.38h0l1.1-.38h0l1.1-.39h0l1.1-.39h0l1.1-.4h0l1.1-.4h0l1.1-.4h0l1.1-.41h0l1.1-.41h0l1.1-.42h0l1.1-.42h0l1.1-.43h0l1.1-.43h0l1.1-.44h0l1.1-.44h0l1.1-.45h0l1.1-.45h0l1.1-.46h0l1.1-.46h0l1.1-.47h0l1.1-.47h0l1.1-.48h0l1.1-.48h0l1.1-.49h0l1.1-.49h0l1.1-.5h0l1.1-.51h0l1.1-.51h0l1.1-.52h0l1.1-.52h0l1.1-.53h0l1.1-.54h0l1.1-.54h0l1.1-.55h0l1.1-.55h0l1.1-.56h0l1.1-.57h0l1.1-.57h0l1.1-.58h0l1.1-.59h0l1.1-.59h0l1.1-.6h0l1.1-.61h0l1.1-.61h0l1.1-.62h0l1.1-.63h0l1.1-.63h0l1.1-.64h0l1.1-.65h0l1.1-.66h0l1.1-.66h0l1.1-.67h0l1.1-.68h0l1.1-.69h0l1.1-.69h0l1.1-.7h0l1.1-.71h0l1.1-.72h0l1.1-.73h0l1.1-.73h0l1.1-.74h0l1.1-.75h0l1.1-.76h0l1.1-.77h0l1.1-.78h0l1.1-.79h0l1.1-.79h0l1.1-.8h0l1.1-.81h0l1.1-.82h0l1.1-.83h0l1.1-.84h0l1.1-.85h0l1.1-.86h0l1.1-.87h0l1.1-.88h0l1.1-.89h0l1.1-.9h0l1.1-.91h0l1.1-.92h0l1.1-.93h0l1.1-.94h0l1.1-.95h0l1.1-.96h0l1.1-.97h0l1.1-.98h0l1.1-.99h0l1.1-1.01h0l1.1-1.02h0l1.1-1.03h0l1.1-1.04h0l1.1-1.05h0l1.1-1.06h0l1.1-1.08h0l1.1-1.09h0l1.1-1.1h0l1.1-1.11h0l1.1-1.13h0l1.1-1.14h0l1.1-1.15h0l1.1-1.16h0l1.1-1.18h0l1.1-1.19h0l1.1-1.2h0l1.1-1.22h0l1.1-1.23h0l1.1-1.25h0l1.1-1.26h0l1.1-1.27h0l1.1-1.29h0l1.1-1.3h0l1.1-1.32h0l1.1-1.33h0l1.1-1.35h0l1.1-1.36h0l1.1-1.38h0l1.1-1.39h0l1.1-1.41h0l1.1-1.43h0l1.1-1.44h0l1.1-1.46h0l1.1-1.48h0l1.1-1.49h0l1.1-1.51h0l1.1-1.53h0l1.1-1.54h0l1.1-1.56h0l1.1-1.58h0l1.1-1.6h0l1.1-1.61h0l1.1-1.63h0l1.1-1.65h0l1.1-1.67h0l1.1-1.69h0l1.1-1.71h0l1.1-1.73h0l1.1-1.75h0l1.1-1.77h0l1.1-1.79h0l1.1-1.81h0l1.1-1.83h0l1.1-1.85h0l1.1-1.87h0l1.1-1.89h0l1.1-1.91h0l1.1-1.93h0l1.1-1.96h0l1.1-1.98h0l1.1-2h0l1.1-2.02h0l1.1-2.05h0l1.1-2.07h0l1.1-2.09h0l1.1-2.12h0l1.1-2.14h0l1.1-2.16h0l1.1-2.19h0l1.1-2.21h0l1.1-2.24h0l1.1-2.26h0l1.1-2.29h0l1.1-2.32h0l1.1-2.34h0l1.1-2.37h0l1.1-2.4h0l1.1-2.42h0l1.1-2.45h0l1.1-2.48h0l1.1-2.51h0l1.1-2.53h0l1.1-2.56h0l1.1-2.59h0l1.1-2.62h0l1.1-2.65h0l1.1-2.68h0l1.1-2.71h0l1.1-2.74h0l1.1-2.77h0l1.1-2.8h0l1.1-2.84h0l1.1-2.87h0l1.1-2.9h0l1.1-2.93h0l1.1-2.97h0l1.1-3h0l1.1-3.03h0l1.1-3.07h0l1.1-3.1h0l1.1-3.14h0l1.1-3.17h0l1.1-3.21h0l1.1-3.25h0l1.1-3.28h0l1.1-3.32h0l1.1-3.36h0l1.1-3.4h0l1.1-3.43h0l1.1-3.47h0l1.1-3.51h0l1.1-3.55h0l1.1-3.59h0l1.1-3.63h0l1.1-3.67h0l1.1-3.72h0l1.1-3.76h0l1.1-3.8h0l1.1-3.84h0l1.1-3.89h0l1.1-3.93h0l1.1-3.98h0l1.1-4.02h0l1.1-4.07h0l1.1-4.11h0l1.1-4.16h0l1.1-4.21h0l1.1-4.25h0l1.1-4.3h0l1.1-4.35h0l1.1-4.4h0l1.1-4.45h0l1.1-4.5h0l1.1-4.55h0l1.1-4.6h0l1.1-4.66h0l1.1-4.71h0l1.1-4.76h0l1.1-4.82h0l1.1-4.87h0l1.1-4.93h0l1.1-4.98h0l1.1-5.04h0l1.1-5.09h0l1.1-5.15h0l1.1-5.21h0l1.1-5.27h0l1.1-5.33h0l1.1-5.39h0l1.1-5.45h0l1.1-5.51h0l1.1-5.57h0l1.1-5.64h0l1.1-5.7h0l1.1-5.77h0l.49-2.58"/>
          <path class="uuid-33c3ea04-c0d4-4052-b423-f3b3ff99eaa6" d="m622.5,997v15.5-15.5l1.1-94.2h0l1.1-47.03h0l1.1-31.61h0l1.1-23.84h0l1.1-19.14h0l1.1-16h0l1.1-13.74h0l1.1-12.04h0l1.1-10.72h0l1.1-9.66h0l1.1-8.79h0l1.1-8.06h0l1.1-7.45h0l1.1-6.92h0l1.1-6.46h0l1.1-6.06h0l1.1-5.7h0l1.1-5.39h0l1.1-5.11h0l1.1-4.85h0l1.1-4.62h0l1.1-4.41h0l1.1-4.22h0l1.1-4.05h0l1.1-3.89h0l1.1-3.74h0l1.1-3.6h0l1.1-3.47h0l1.1-3.35h0l1.1-3.24h0l1.1-3.14h0l1.1-3.04h0l1.1-2.95h0l1.1-2.86h0l1.1-2.78h0l1.1-2.7h0l1.1-2.63h0l1.1-2.56h0l1.1-2.5h0l1.1-2.43h0l1.1-2.37h0l1.1-2.32h0l1.1-2.26h0l1.1-2.21h0l1.1-2.16h0l1.1-2.12h0l1.1-2.07h0l1.1-2.03h0l1.1-1.99h0l1.1-1.95h0l1.1-1.91h0l1.1-1.87h0l1.1-1.84h0l1.1-1.8h0l1.1-1.77h0l1.1-1.74h0l1.1-1.71h0l1.1-1.68h0l1.1-1.65h0l1.1-1.62h0l1.1-1.6h0l1.1-1.57h0l1.1-1.55h0l1.1-1.52h0l1.1-1.5h0l1.1-1.48h0l1.1-1.45h0l1.1-1.43h0l1.1-1.41h0l1.1-1.39h0l1.1-1.37h0l1.1-1.35h0l1.1-1.34h0l1.1-1.32h0l1.1-1.3h0l1.1-1.28h0l1.1-1.27h0l1.1-1.25h0l1.1-1.23h0l1.1-1.22h0l1.1-1.2h0l1.1-1.19h0l1.1-1.17h0l1.1-1.16h0l1.1-1.15h0l1.1-1.13h0l1.1-1.12h0l1.1-1.11h0l1.1-1.1h0l1.1-1.08h0l1.1-1.07h0l1.1-1.06h0l1.1-1.05h0l1.1-1.04h0l1.1-1.03h0l1.1-1.02h0l1.1-1.01h0l1.1-.99h0l1.1-.98h0l1.1-.98h0l1.1-.97h0l1.1-.96h0l1.1-.95h0l1.1-.94h0l1.1-.93h0l1.1-.92h0l1.1-.91h0l1.1-.9h0l1.1-.89h0l1.1-.89h0l1.1-.88h0l1.1-.87h0l1.1-.86h0l1.1-.86h0l1.1-.85h0l1.1-.84h0l1.1-.83h0l1.1-.83h0l1.1-.82h0l1.1-.81h0l1.1-.81h0l1.1-.8h0l1.1-.79h0l1.1-.79h0l1.1-.78h0l1.1-.77h0l1.1-.77h0l1.1-.76h0l1.1-.76h0l1.1-.75h0l1.1-.74h0l1.1-.74h0l1.1-.73h0l1.1-.73h0l1.1-.72h0l1.1-.72h0l1.1-.71h0l1.1-.71h0l1.1-.7h0l1.1-.7h0l1.1-.69h0l1.1-.69h0l1.1-.68h0l1.1-.68h0l1.1-.67h0l1.1-.67h0l1.1-.66h0l1.1-.66h0l1.1-.65h0l1.1-.65h0l1.1-.65h0l1.1-.64h0l1.1-.64h0l1.1-.63h0l1.1-.63h0l1.1-.63h0l1.1-.62h0l1.1-.62h0l1.1-.61h0l1.1-.61h0l1.1-.61h0l1.1-.6h0l1.1-.6h0l1.1-.59h0l1.1-.59h0l1.1-.59h0l1.1-.58h0l1.1-.58h0l1.1-.58h0l1.1-.57h0l1.1-.57h0l1.1-.57h0l1.1-.56h0l1.1-.56h0l1.1-.56h0l1.1-.55h0l1.1-.55h0l1.1-.55h0l1.1-.54h0l1.1-.54h0l1.1-.54h0l1.1-.54h0l1.1-.53h0l1.1-.53h0l1.1-.53h0l1.1-.52h0l1.1-.52h0l1.1-.52h0l1.1-.52h0l1.1-.51h0l1.1-.51h0l1.1-.51h0l1.1-.51h0l1.1-.5h0l1.1-.5h0l1.1-.5h0l1.1-.5h0l1.1-.49h0l1.1-.49h0l1.1-.49h0l1.1-.49h0l1.1-.48h0l1.1-.48h0l1.1-.48h0l1.1-.48h0l1.1-.47h0l1.1-.47h0l1.1-.47h0l1.1-.47h0l1.1-.46h0l1.1-.46h0l1.1-.46h0l1.1-.46h0l1.1-.46h0l1.1-.45h0l1.1-.45h0l1.1-.45h0l1.1-.45h0l1.1-.45h0l1.1-.44h0l1.1-.44h0l1.1-.44h0l1.1-.44h0l1.1-.44h0l1.1-.43h0l1.1-.43h0l1.1-.43h0l1.1-.43h0l1.1-.43h0l1.1-.42h0l1.1-.42h0l1.1-.42h0l1.1-.42h0l1.1-.42h0l1.1-.42h0l1.1-.41h0l1.1-.41h0l1.1-.41h0l1.1-.41h0l1.1-.41h0l1.1-.4h0l1.1-.4h0l1.1-.4h0l1.1-.4h0l1.1-.4h0l1.1-.4h0l1.1-.4h0l1.1-.39h0l1.1-.39h0l1.1-.39h0l1.1-.39h0l1.1-.39h0l1.1-.39h0l1.1-.38h0l1.1-.38h0l1.1-.38h0l1.1-.38h0l1.1-.38h0l1.1-.38h0l1.1-.38h0l1.1-.37h0l1.1-.37h0l1.1-.37h0l1.1-.37h0l1.1-.37h0l1.1-.37h0l1.1-.37h0l1.1-.36h0l1.1-.36h0l1.1-.36h0l1.1-.36h0l1.1-.36h0l1.1-.36h0l1.1-.36h0l1.1-.35h0l1.1-.35h0l1.1-.35h0l1.1-.35h0l1.1-.35h0l1.1-.35h0l1.1-.35h0l1.1-.35h0l1.1-.34h0l1.1-.34h0l1.1-.34h0l1.1-.34h0l1.1-.34h0l1.1-.34h0l1.1-.34h0l1.1-.34h0l1.1-.34h0l1.1-.33h0l1.1-.33h0l1.1-.33h0l1.1-.33h0l1.1-.33h0l1.1-.33h0l1.1-.33h0l1.1-.33h0l1.1-.33h0l1.1-.32h0l1.1-.32h0l1.1-.32h0l1.1-.32h0l1.1-.32h0l1.1-.32h0l1.1-.32h0l1.1-.32h0l1.1-.32h0l1.1-.31h0l1.1-.31h0l1.1-.31h0l1.1-.31h0l1.1-.31h0l1.1-.31h0l1.1-.31h0l1.1-.31h0l1.1-.31h0l1.1-.31h0l1.1-.3h0l1.1-.3h0l1.1-.3h0l1.1-.3h0l1.1-.3h0l1.1-.3h0l1.1-.3h0l1.1-.3h0l1.1-.3h0l1.1-.3h0l1.1-.3h0l1.1-.29h0l1.1-.29h0l1.1-.29h0l1.1-.29h0l1.1-.29h0l1.1-.29h0l1.1-.29h0l1.1-.29h0l1.1-.29h0l1.1-.29h0l1.1-.29h0l1.1-.29h0l1.1-.28h0l1.1-.28h0l1.1-.28h0l1.1-.28h0l1.1-.28h0l1.1-.28h0l1.1-.28h0l1.1-.28h0l1.1-.28h0l1.1-.28h0l1.1-.28h0l1.1-.28h0l1.1-.27h0l1.1-.27h0l1.1-.27h0l1.1-.27h0l1.1-.27h0l1.1-.27h0l1.1-.27h0l1.1-.27h0l1.1-.27h0l1.1-.27h0l1.1-.27h0l1.1-.27h0l1.1-.27h0l1.1-.27h0l1.1-.26h0l1.1-.26h0l1.1-.26h0l1.1-.26h0l1.1-.26h0l1.1-.26h0l1.1-.26h0l1.1-.26h0l1.1-.26h0l1.1-.26h0l1.1-.26h0l1.1-.26h0l1.1-.26h0l1.1-.26h0l1.1-.25h0l1.1-.25h0l1.1-.25h0l1.1-.25h0l1.1-.25h0l1.1-.25h0l1.1-.25h0l1.1-.25h0l1.1-.25h0l1.1-.25h0l1.1-.25h0l1.1-.25h0l1.1-.25h0l1.1-.25h0l1.1-.25h0l1.1-.25h0l1.1-.24h0l1.1-.24h0l1.1-.24h0l1.1-.24h0l1.1-.24h0l1.1-.24h0l1.1-.24h0l1.1-.24h0l1.1-.24h0l1.1-.24h0l1.1-.24h0l1.1-.24h0l1.1-.24h0l1.1-.24h0l1.1-.24h0l1.1-.24h0l1.1-.24h0l1.1-.23h0l1.1-.23h0l1.1-.23h0l1.1-.23h0l1.1-.23h0l1.1-.23h0l1.1-.23h0l1.1-.23h0l1.1-.23h0l1.1-.23h0l1.1-.23h0l1.1-.23h0l1.1-.23h0l1.1-.23h0l1.1-.23h0l1.1-.23h0l1.1-.23h0l1.1-.23h0l1.1-.22h0l1.1-.22h0l1.1-.22h0l1.1-.22h0l1.1-.22h0l1.1-.22h0l1.1-.22h0l1.1-.22h0l1.1-.22h0l1.1-.22h0l1.1-.22h0l1.1-.22h0l1.1-.22h0l1.1-.22h0l1.1-.22h0l1.1-.22h0l1.1-.22h0l1.1-.22h0l1.1-.22h0l1.1-.22h0l1.1-.21h0l1.1-.21h0l1.1-.21h0l1.1-.21h0l1.1-.21h0l1.1-.21h0l1.1-.21h0l1.1-.21h0l1.1-.21h0l1.1-.21h0l1.1-.21h0l1.1-.21h0l1.1-.21h0l1.1-.21h0l1.1-.21h0l1.1-.21h0l1.1-.21h0l1.1-.21h0l1.1-.21h0l1.1-.21h0l1.1-.21h0l1.1-.21h0l1.1-.21h0l1.1-.2h0l1.1-.2h0l1.1-.2h0l1.1-.2h0l1.1-.2h0l1.1-.2h0l1.1-.2h0l1.1-.2h0l1.1-.2h0l1.1-.2h0l1.1-.2h0l1.1-.2h0l1.1-.2h0l1.1-.2h0l1.1-.2h0l1.1-.2h0l1.1-.2h0l1.1-.2h0l1.1-.2h0l1.1-.2h0l1.1-.2h0l1.1-.2h0l1.1-.2h0l1.1-.2h0l1.1-.19h0l1.1-.19h0l1.1-.19h0l1.1-.19h0l1.1-.19h0l1.1-.19h0l1.1-.19h0l1.1-.19h0l1.1-.19h0l1.1-.19h0l1.1-.19h0l1.1-.19h0l1.1-.19h0l1.1-.19h0l1.1-.19h0l1.1-.19h0l1.1-.19h0l1.1-.19h0l1.1-.19h0l1.1-.19h0l1.1-.19h0l1.1-.19h0l1.1-.19h0l1.1-.19h0l1.1-.19h0l1.1-.19h0l1.1-.19h0l1.1-.18h0l1.1-.18h0l1.1-.18h0l1.1-.18h0l1.1-.18h0l1.1-.18h0l1.1-.18h0l1.1-.18h0l1.1-.18h0l1.1-.18h0l1.1-.18h0l1.1-.18h0l1.1-.18h0l1.1-.18h0l1.1-.18h0l1.1-.18h0l1.1-.18h0l1.1-.18h0l1.1-.18h0l1.1-.18h0l1.1-.18h0l1.1-.18h0l1.1-.18h0l1.1-.18h0l1.1-.18h0l1.1-.18h0l1.1-.18h0l1.1-.18h0l1.1-.18h0l1.1-.18h0l1.1-.17h0l1.1-.17h0l1.1-.17h0l1.1-.17h0l1.1-.17h0l1.1-.17h0l1.1-.17h0l1.1-.17h0l1.1-.17h0l1.1-.17h0l1.1-.17h0l1.1-.17h0l1.1-.17h0l1.1-.17h0l1.1-.17h0l1.1-.17h0l1.1-.17h0l1.1-.17h0l1.1-.17h0l1.1-.17h0l1.1-.17h0l1.1-.17h0l1.1-.17h0l1.1-.17h0l1.1-.17h0l1.1-.17h0l1.1-.17h0l1.1-.17h0l1.1-.17h0l1.1-.17h0l1.1-.17h0l1.1-.17h0l1.1-.17h0l1.1-.17h0l1.1-.16h0l1.1-.16h0l1.1-.16h0l1.1-.16h0l1.1-.16h0l1.1-.16h0l1.1-.16h0l1.1-.16h0l1.1-.16h0l1.1-.16h0l1.1-.16h0l1.1-.16h0l1.1-.16h0l1.1-.16h0l1.1-.16h0l1.1-.16h0l1.1-.16h0l1.1-.16h0l1.1-.16h0l1.1-.16h0l1.1-.16h0l1.1-.16h0l1.1-.16h0l1.1-.16h0l1.1-.16h0l1.1-.16h0l1.1-.16h0l1.1-.16h0l1.1-.16h0l1.1-.16h0l1.1-.16h0l1.1-.16h0l1.1-.16h0l1.1-.16h0l1.1-.16h0l1.1-.16h0l1.1-.16h0l1.1-.16h0l1.1-.15h0l1.1-.15h0l1.1-.15h0l1.1-.15h0l1.1-.15h0l1.1-.15h0l1.1-.15h0l1.1-.15h0l1.1-.15h0l1.1-.15h0l1.1-.15h0l1.1-.15h0l1.1-.15h0l1.1-.15h0l1.1-.15h0l1.1-.15h0l1.1-.15h0l1.1-.15h0l1.1-.15h0l1.1-.15h0l1.1-.15h0l1.1-.15h0l1.1-.15h0l1.1-.15h0l1.1-.15h0l1.1-.15h0l1.1-.15h0l1.1-.15h0l1.1-.15h0l1.1-.15h0l1.1-.15h0l1.1-.15h0l1.1-.15h0l1.1-.15h0l1.1-.15h0l1.1-.15h0l1.1-.15h0l1.1-.15h0l1.1-.15h0l1.1-.15h0l1.1-.15h0l1.1-.15h0l1.1-.15h0l1.1-.15h0l1.1-.14h0l1.1-.14h0l1.1-.14h0l1.1-.14h0l1.1-.14h0l1.1-.14h0l1.1-.14h0l1.1-.14h0l1.1-.14h0l1.1-.14h0l1.1-.14h0l1.1-.14h0l1.1-.14h0l1.1-.14h0l1.1-.14h0l1.1-.14h0l1.1-.14h0l1.1-.14h0l1.1-.14h0l1.1-.14h0l1.1-.14h0l1.1-.14h0l1.1-.14h0l1.1-.14h0l1.1-.14h0l1.1-.14h0l1.1-.14h0l1.1-.14h0l1.1-.14h0l1.1-.14h0l1.1-.14h0l1.1-.14h0l1.1-.14h0l1.1-.14h0l1.1-.14h0l1.1-.14h0l1.1-.14h0l1.1-.14h0l1.1-.14h0l1.1-.14h0l1.1-.14h0l1.1-.14h0l1.1-.14h0l1.1-.14h0l1.1-.14h0l1.1-.14h0l1.1-.14h0l1.1-.14h0l1.1-.14h0l1.1-.13h0l1.1-.13h0l1.1-.13h0l1.1-.13h0l1.1-.13h0l1.1-.13h0l1.1-.13h0l1.1-.13h0l1.1-.13h0l1.1-.13h0l1.1-.13h0l1.1-.13h0l1.1-.13"/>
          <path class="uuid-c4cee8c4-f01a-45fc-9d09-664e31b4cd5e" d="m115.52,1018L1131.52,2"/>
        </g>
      </g>
    </g>
  </g>
  <g id="uuid-9290d2c7-daf5-4c17-b77d-753a73b66a1a" data-name="Marco">
    <path class="uuid-fd4e2871-0277-4050-b550-268f3d612eb3" d="m-2-2V1022h1249V-2H-2Zm1232,987c0,11.05-8.95,20-20,20H35c-11.05,0-20-8.95-20-20V35c0-11.05,8.95-20,20-20h1175c11.05,0,20,8.95,20,20v950Z"/>
  </g>
  <g id="uuid-80b5165b-5f0e-4266-97d4-110290677192" data-name="texto">
    <g>
      <path class="uuid-2629b778-8f7e-4d9a-84c1-7ad0b0c453ec" d="m653.21,107.76c-.13-.99-.25-1.68-.37-2.06s-.31-.68-.57-.88c-.26-.2-.68-.32-1.27-.36l.21-.96h5.02l1.48,15.53c4.4-6.02,6.6-10.33,6.6-12.93,0-.61-.13-1.03-.39-1.25-.26-.22-.7-.35-1.33-.39l.2-.96h5.04l.53.98c-.69,1.81-1.57,3.68-2.65,5.62s-2.39,4.06-3.95,6.37c-1.56,2.3-3.29,4.7-5.19,7.19-1.46,1.91-2.68,3.36-3.67,4.34-.77.74-1.47,1.31-2.12,1.69s-1.27.66-1.88.82-1.25.24-1.92.24c-.35,0-.75-.04-1.19-.11-.44-.07-.82-.17-1.13-.28l.84-3.65h1.52c.01.44.12.79.31,1.05s.48.39.86.39c.42,0,.77-.04,1.07-.13.3-.08.62-.22.95-.42s.73-.51,1.21-.94c.47-.43,1.01-1,1.61-1.71.6-.71,1.27-1.57,2.01-2.57l-1.86-14.63Z"/>
      <path class="uuid-2629b778-8f7e-4d9a-84c1-7ad0b0c453ec" d="m679.72,107.99v-2.6h24.06v2.6h-24.06Zm0,8.11v-2.6h24.06v2.6h-24.06Z"/>
      <path class="uuid-2629b778-8f7e-4d9a-84c1-7ad0b0c453ec" d="m731.4,118.29c-.96,1.05-1.89,1.89-2.77,2.5-.89.61-1.77,1.05-2.66,1.31-.89.26-1.86.39-2.93.39s-1.91-.17-2.66-.5-1.36-.79-1.85-1.37-.85-1.27-1.08-2.07-.35-1.67-.35-2.61c0-1.39.25-2.89.75-4.48.5-1.59,1.26-3.03,2.28-4.3s2.23-2.25,3.65-2.95c1.42-.7,2.93-1.04,4.53-1.04s2.76.32,3.54.96c.79.64,1.18,1.63,1.18,2.99,0,2.21-1.04,3.87-3.12,4.98-2.08,1.11-5.16,1.66-9.25,1.66-.16.78-.23,1.63-.23,2.54,0,1.37.27,2.36.8,2.98.53.62,1.41.93,2.62.93s2.29-.26,3.26-.78,2-1.32,3.07-2.4l1.21,1.27Zm-10.39-6.19c1.2-.01,2.25-.08,3.15-.21.9-.12,1.68-.29,2.33-.51.65-.21,1.19-.47,1.62-.77s.77-.63,1.03-.99.43-.74.53-1.13.15-.81.15-1.24c0-.79-.19-1.42-.56-1.87s-.92-.67-1.65-.67c-.91,0-1.81.33-2.69.99s-1.65,1.54-2.32,2.66c-.67,1.11-1.2,2.36-1.59,3.74Z"/>
      <path class="uuid-2629b778-8f7e-4d9a-84c1-7ad0b0c453ec" d="m750.15,94.58c-.93,1.11-2.75,2.81-5.47,5.1l1.31,2.56c.4.79.72,1.37.96,1.74s.48.63.73.81.59.28,1.01.32l-.18.88h-3.4l-2.15-5.06c-.98.78-1.68,1.44-2.12,1.96-.44.53-.65,1.03-.65,1.49,0,.2.07.36.21.49.14.13.4.21.78.23l-.18.88h-4.02l-.43-.86c.36-.4.8-.86,1.32-1.37.51-.51,1.04-1,1.58-1.47.54-.48,1.51-1.32,2.9-2.53l-1.35-2.62c-.39-.75-.69-1.28-.91-1.58s-.45-.53-.7-.68-.56-.25-.93-.27l.2-.88h3.42l2.01,4.73c.62-.53,1.01-.87,1.14-1.02s.32-.35.57-.62c.24-.27.42-.52.54-.75s.18-.48.18-.74c0-.46-.33-.7-1-.72l.18-.88h4.02l.43.86Z"/>
    </g>
    <g>
      <path class="uuid-2629b778-8f7e-4d9a-84c1-7ad0b0c453ec" d="m1040.12,395.76c-.13-.99-.25-1.68-.37-2.06s-.31-.68-.57-.88c-.26-.2-.68-.32-1.27-.36l.21-.96h5.02l1.48,15.53c4.4-6.02,6.6-10.33,6.6-12.93,0-.61-.13-1.03-.39-1.25-.26-.22-.7-.35-1.33-.39l.2-.96h5.04l.53.98c-.69,1.81-1.57,3.68-2.65,5.62s-2.39,4.06-3.95,6.37c-1.56,2.3-3.29,4.7-5.19,7.19-1.46,1.91-2.68,3.36-3.67,4.34-.77.74-1.47,1.31-2.12,1.69s-1.27.66-1.88.82-1.25.24-1.92.24c-.35,0-.75-.04-1.19-.11-.44-.07-.82-.17-1.13-.28l.84-3.65h1.52c.01.44.12.79.31,1.05s.48.39.86.39c.42,0,.77-.04,1.07-.13.3-.08.62-.22.95-.42s.73-.51,1.21-.94c.47-.43,1.01-1,1.61-1.71.6-.71,1.27-1.57,2.01-2.57l-1.86-14.63Z"/>
      <path class="uuid-2629b778-8f7e-4d9a-84c1-7ad0b0c453ec" d="m1066.63,395.99v-2.6h24.06v2.6h-24.06Zm0,8.11v-2.6h24.06v2.6h-24.06Z"/>
      <path class="uuid-2629b778-8f7e-4d9a-84c1-7ad0b0c453ec" d="m1112.27,382.24h1.15l-5.08,23.05c-.14.62-.23,1.1-.27,1.42s-.06.59-.06.81c0,.39.06.7.2.92.13.22.33.39.61.51s.72.21,1.35.27l-.16.96h-6.09l5.04-22.42c.13-.57.22-1,.27-1.29.05-.29.09-.56.12-.82.03-.26.04-.49.04-.68,0-.39-.07-.69-.21-.89-.14-.2-.35-.35-.62-.44-.27-.09-.75-.16-1.44-.2l.23-1.02,4.92-.18Z"/>
      <path class="uuid-2629b778-8f7e-4d9a-84c1-7ad0b0c453ec" d="m1131.49,410.17h-6.15l2.48-9.92c.16-.64.31-1.34.46-2.11.15-.77.22-1.46.22-2.07,0-.92-.16-1.59-.48-1.99-.32-.4-.82-.61-1.49-.61-.55,0-1.14.21-1.77.63-.63.42-1.29,1.05-1.98,1.89-.69.84-1.27,1.69-1.75,2.56-.48.87-.84,1.92-1.1,3.15l-1.78,8.46h-3.38l2.97-13.34c.06-.3.15-.74.26-1.33.11-.59.17-1.07.17-1.46,0-.36-.06-.65-.17-.85-.11-.2-.3-.35-.57-.45-.27-.1-.72-.17-1.36-.21l.23-1.04,4.43-.18h1.11l-1.31,5.08.23.08c1.28-1.8,2.51-3.13,3.69-3.99,1.18-.87,2.37-1.3,3.55-1.3,1.26,0,2.22.35,2.87,1.04.65.7.98,1.73.98,3.1,0,.47-.04.98-.13,1.53-.09.55-.18,1.04-.28,1.47l-1.64,6.95c-.22.94-.33,1.68-.33,2.23,0,.39.06.7.2.92.13.22.33.39.61.51s.72.21,1.35.27l-.16.96Z"/>
      <path class="uuid-2629b778-8f7e-4d9a-84c1-7ad0b0c453ec" d="m1152.96,392.46c-2.53,2.7-5.17,5.36-7.93,7.99l1.82,4.28c.48,1.15.87,1.99,1.15,2.53.29.54.55.93.78,1.17s.47.42.7.53.61.2,1.11.26l-.21.96h-4.86l-2.71-7.85c-.31.27-.73.65-1.24,1.14-.52.49-1.01,1.01-1.49,1.56-.48.55-.82,1-1.02,1.34s-.32.63-.38.88-.09.5-.09.76c0,.34.09.61.28.8.19.2.51.33.97.41l-.21.96h-5.57l-.37-.96c2.85-3.06,5.66-5.88,8.42-8.46l-1.86-4.36c-.38-.89-.68-1.56-.92-2.02s-.46-.82-.67-1.07-.46-.45-.74-.59c-.28-.14-.68-.22-1.2-.26l.21-.96h4.86l2.6,7.36c.64-.59,1.24-1.19,1.82-1.82.57-.62.98-1.12,1.21-1.48s.4-.69.49-.98c.09-.29.14-.59.14-.9,0-.72-.42-1.13-1.25-1.23l.21-.96h5.57l.39.96Z"/>
    </g>
    <g>
      <path class="uuid-2629b778-8f7e-4d9a-84c1-7ad0b0c453ec" d="m309.55,865.33c-.13-.99-.25-1.68-.37-2.06s-.31-.68-.57-.88c-.26-.2-.68-.32-1.27-.36l.21-.96h5.02l1.48,15.53c4.4-6.02,6.6-10.33,6.6-12.93,0-.61-.13-1.03-.39-1.25-.26-.22-.7-.35-1.33-.39l.2-.96h5.04l.53.98c-.69,1.81-1.57,3.68-2.65,5.62s-2.39,4.06-3.95,6.37c-1.56,2.3-3.28,4.7-5.19,7.19-1.46,1.91-2.68,3.36-3.67,4.34-.77.74-1.47,1.31-2.12,1.69s-1.27.66-1.88.82-1.25.24-1.92.24c-.35,0-.75-.04-1.19-.11-.44-.07-.82-.17-1.13-.28l.84-3.65h1.52c.01.44.12.79.31,1.05s.48.39.86.39c.42,0,.77-.04,1.07-.13.3-.08.62-.22.95-.42s.74-.51,1.21-.94c.48-.43,1.01-1,1.61-1.71.6-.71,1.27-1.57,2.01-2.57l-1.86-14.63Z"/>
      <path class="uuid-2629b778-8f7e-4d9a-84c1-7ad0b0c453ec" d="m336.05,865.56v-2.6h24.06v2.6h-24.06Zm0,8.11v-2.6h24.06v2.6h-24.06Z"/>
      <path class="uuid-2629b778-8f7e-4d9a-84c1-7ad0b0c453ec" d="m390.31,862.02c-2.53,2.7-5.17,5.36-7.93,7.99l1.82,4.28c.48,1.15.87,1.99,1.15,2.53.29.54.55.93.78,1.17s.47.42.7.53.61.2,1.11.26l-.21.96h-4.86l-2.71-7.85c-.31.27-.73.65-1.24,1.14-.51.49-1.01,1.01-1.49,1.56-.48.55-.82,1-1.02,1.34s-.32.63-.38.88-.09.5-.09.76c0,.34.09.61.28.8.19.2.51.33.97.41l-.21.96h-5.57l-.37-.96c2.85-3.06,5.66-5.88,8.42-8.46l-1.86-4.36c-.38-.89-.68-1.56-.92-2.02s-.46-.82-.67-1.07-.46-.45-.74-.59c-.28-.14-.68-.22-1.2-.26l.21-.96h4.86l2.6,7.36c.64-.59,1.24-1.19,1.82-1.82.57-.62.98-1.12,1.21-1.48s.4-.69.49-.98c.09-.29.14-.59.14-.9,0-.72-.42-1.13-1.25-1.23l.21-.96h5.57l.39.96Z"/>
    </g>
  </g>
</svg>