<?xml version="1.0" encoding="UTF-8"?>
<svg xmlns="http://www.w3.org/2000/svg" width="1245" height="1020" xmlns:xlink="http://www.w3.org/1999/xlink" viewBox="0 0 1245 1020">
  <defs>
    <style>
      .uuid-51e0e5c3-a610-4f79-9b8f-d5cbf6664082, .uuid-de1329d8-58a7-409f-961c-3b8e922cee6f, .uuid-b1362b9a-b988-40a6-b933-d8ba97ccda69, .uuid-93af1356-efa9-485c-b7cf-51d776cc9c70, .uuid-76024bc9-7c80-4aef-9f3b-6397e5e0e4a0, .uuid-a1651c67-1a0e-44a6-89a9-cfdf64cb549e, .uuid-d19539bb-c75e-41bc-88da-88be5fed7787, .uuid-7b05d10e-638b-4e6d-88f9-a310e7ea6e7f, .uuid-cdde00e7-b16a-4601-a972-345faf6e4a63 {
        fill: none;
      }

      .uuid-51e0e5c3-a610-4f79-9b8f-d5cbf6664082, .uuid-a04cc354-1f1a-4f51-984a-98a59e4321b9, .uuid-b1362b9a-b988-40a6-b933-d8ba97ccda69, .uuid-48ffa9b2-d836-48ce-90ee-8e3ba7452a66 {
        font-family: HelveticaNeue-UltraLight, 'Helvetica Neue UltraLight';
        font-weight: 100;
        isolation: isolate;
      }

      .uuid-51e0e5c3-a610-4f79-9b8f-d5cbf6664082, .uuid-b1362b9a-b988-40a6-b933-d8ba97ccda69 {
        stroke: #fff;
        stroke-linejoin: bevel;
        stroke-width: 3.47px;
      }

      .uuid-51e0e5c3-a610-4f79-9b8f-d5cbf6664082, .uuid-48ffa9b2-d836-48ce-90ee-8e3ba7452a66 {
        font-size: 13.86px;
      }

      .uuid-5b48a6b0-d83b-4e7e-af09-eb34ced8bfd3 {
        fill: #fff;
      }

      .uuid-de1329d8-58a7-409f-961c-3b8e922cee6f {
        clip-path: url(#uuid-efac260b-e3e7-4f40-b2f2-7b52b41e0ecb);
      }

      .uuid-a04cc354-1f1a-4f51-984a-98a59e4321b9 {
        fill: blue;
      }

      .uuid-a04cc354-1f1a-4f51-984a-98a59e4321b9, .uuid-b1362b9a-b988-40a6-b933-d8ba97ccda69 {
        font-size: 18.48px;
      }

      .uuid-48ffa9b2-d836-48ce-90ee-8e3ba7452a66 {
        fill: #252525;
      }

      .uuid-93af1356-efa9-485c-b7cf-51d776cc9c70 {
        stroke: rgba(0, 0, 255, .7);
        stroke-width: 4.62px;
      }

      .uuid-93af1356-efa9-485c-b7cf-51d776cc9c70, .uuid-76024bc9-7c80-4aef-9f3b-6397e5e0e4a0, .uuid-cdde00e7-b16a-4601-a972-345faf6e4a63 {
        stroke-linecap: round;
        stroke-linejoin: round;
      }

      .uuid-7dc75bd5-290e-4d7a-bb31-8db47dae1ffc {
        fill: #00699b;
      }

      .uuid-76024bc9-7c80-4aef-9f3b-6397e5e0e4a0 {
        stroke: rgba(192, 192, 192, .24);
      }

      .uuid-76024bc9-7c80-4aef-9f3b-6397e5e0e4a0, .uuid-d19539bb-c75e-41bc-88da-88be5fed7787, .uuid-cdde00e7-b16a-4601-a972-345faf6e4a63 {
        stroke-width: 1.16px;
      }

      .uuid-d19539bb-c75e-41bc-88da-88be5fed7787 {
        stroke: #252525;
        stroke-miterlimit: 10;
      }

      .uuid-7b05d10e-638b-4e6d-88f9-a310e7ea6e7f {
        clip-path: url(#uuid-b076f036-1857-4add-83bb-bc3ddb949dd7);
      }

      .uuid-cdde00e7-b16a-4601-a972-345faf6e4a63 {
        stroke: silver;
      }
    </style>
    <clipPath id="uuid-b076f036-1857-4add-83bb-bc3ddb949dd7">
      <rect class="uuid-a1651c67-1a0e-44a6-89a9-cfdf64cb549e" y="2.61" width="1245" height="1019.39"/>
    </clipPath>
    <clipPath id="uuid-efac260b-e3e7-4f40-b2f2-7b52b41e0ecb">
      <rect class="uuid-a1651c67-1a0e-44a6-89a9-cfdf64cb549e" y="2.61" width="1698.06" height="1055.8"/>
    </clipPath>
  </defs>
  <g id="uuid-4e676df8-edf5-4a04-8c03-90bd23999af6" data-name="Grafica">
    <g class="uuid-7b05d10e-638b-4e6d-88f9-a310e7ea6e7f">
      <g class="uuid-de1329d8-58a7-409f-961c-3b8e922cee6f">
        <g>
          <rect class="uuid-5b48a6b0-d83b-4e7e-af09-eb34ced8bfd3" y="2.61" width="1698.06" height="1055.8"/>
          <path class="uuid-cdde00e7-b16a-4601-a972-345faf6e4a63" d="m68.73,3.19v1055.8M68.73,3.19v1055.8M154.21,3.19v1055.8M240.85,3.19v1055.8M326.33,3.19v1055.8M412.96,3.19v1055.8M498.45,3.19v1055.8M585.08,3.19v1055.8M670.56,3.19v1055.8M757.2,3.19v1055.8M929.31,3.19v1055.8M1014.8,3.19v1055.8M1101.43,3.19v1055.8M1186.91,3.19v1055.8M1273.55,3.19v1055.8M1359.03,3.19v1055.8M1445.66,3.19v1055.8M1531.15,3.19v1055.8M1617.78,3.19v1055.8"/>
          <path class="uuid-76024bc9-7c80-4aef-9f3b-6397e5e0e4a0" d="m16.75,3.19v1055.8M34.08,3.19v1055.8M51.4,3.19v1055.8M86.06,3.19v1055.8M103.39,3.19v1055.8M119.56,3.19v1055.8M136.88,3.19v1055.8M171.54,3.19v1055.8M188.87,3.19v1055.8M206.19,3.19v1055.8M223.52,3.19v1055.8M258.18,3.19v1055.8M275.5,3.19v1055.8M291.67,3.19v1055.8M309,3.19v1055.8M343.66,3.19v1055.8M360.98,3.19v1055.8M378.31,3.19v1055.8M395.64,3.19v1055.8M430.29,3.19v1055.8M447.62,3.19v1055.8M463.79,3.19v1055.8M481.12,3.19v1055.8M515.77,3.19v1055.8M533.1,3.19v1055.8M550.43,3.19v1055.8M567.75,3.19v1055.8M602.41,3.19v1055.8M619.74,3.19v1055.8M635.91,3.19v1055.8M653.23,3.19v1055.8M687.89,3.19v1055.8M705.22,3.19v1055.8M722.54,3.19v1055.8M739.87,3.19v1055.8M774.53,3.19v1055.8M790.7,3.19v1055.8M808.02,3.19v1055.8M825.35,3.19v1055.8M860.01,3.19v1055.8M877.33,3.19v1055.8M894.66,3.19v1055.8M911.99,3.19v1055.8M946.64,3.19v1055.8M962.81,3.19v1055.8M980.14,3.19v1055.8M997.47,3.19v1055.8M1032.12,3.19v1055.8M1049.45,3.19v1055.8M1066.78,3.19v1055.8M1084.1,3.19v1055.8M1118.76,3.19v1055.8M1134.93,3.19v1055.8M1152.26,3.19v1055.8M1169.58,3.19v1055.8M1204.24,3.19v1055.8M1221.57,3.19v1055.8M1238.89,3.19v1055.8M1256.22,3.19v1055.8M1290.88,3.19v1055.8M1307.05,3.19v1055.8M1324.37,3.19v1055.8M1341.7,3.19v1055.8M1376.36,3.19v1055.8M1393.68,3.19v1055.8M1411.01,3.19v1055.8M1428.34,3.19v1055.8M1461.84,3.19v1055.8M1479.16,3.19v1055.8M1496.49,3.19v1055.8M1513.82,3.19v1055.8M1548.47,3.19v1055.8M1565.8,3.19v1055.8M1583.13,3.19v1055.8M1600.45,3.19v1055.8M1633.95,3.19v1055.8M1651.28,3.19v1055.8M1668.61,3.19v1055.8M1685.93,3.19v1055.8"/>
          <path class="uuid-cdde00e7-b16a-4601-a972-345faf6e4a63" d="m.58,79.43h1698.06M.58,79.43h1698.06M.58,166.06h1698.06M.58,251.54h1698.06M.58,338.18h1698.06M.58,423.66h1698.06M.58,510.3h1698.06M.58,595.78h1698.06M.58,682.41h1698.06M.58,767.89h1698.06M.58,854.53h1698.06M.58,1026.65h1698.06"/>
          <path class="uuid-76024bc9-7c80-4aef-9f3b-6397e5e0e4a0" d="m.58,11.27h1698.06M.58,28.6h1698.06M.58,44.77h1698.06M.58,62.1h1698.06M.58,96.75h1698.06M.58,114.08h1698.06M.58,131.41h1698.06M.58,148.74h1698.06M.58,183.39h1698.06M.58,200.72h1698.06M.58,216.89h1698.06M.58,234.22h1698.06M.58,268.87h1698.06M.58,286.2h1698.06M.58,303.53h1698.06M.58,320.85h1698.06M.58,355.51h1698.06M.58,372.83h1698.06M.58,389.01h1698.06M.58,406.33h1698.06M.58,440.99h1698.06M.58,458.31h1698.06M.58,475.64h1698.06M.58,492.97h1698.06M.58,527.62h1698.06M.58,543.8h1698.06M.58,561.12h1698.06M.58,578.45h1698.06M.58,613.1h1698.06M.58,630.43h1698.06M.58,647.76h1698.06M.58,665.09h1698.06M.58,699.74h1698.06M.58,715.91h1698.06M.58,733.24h1698.06M.58,750.57h1698.06M.58,785.22h1698.06M.58,802.55h1698.06M.58,819.88h1698.06M.58,837.2h1698.06M.58,871.86h1698.06M.58,888.03h1698.06M.58,905.36h1698.06M.58,922.68h1698.06M.58,957.34h1698.06M.58,974.66h1698.06M.58,991.99h1698.06M.58,1009.32h1698.06M.58,1043.97h1698.06"/>
          <path class="uuid-d19539bb-c75e-41bc-88da-88be5fed7787" d="m842.68,5.5v1053.49"/>
          <path class="uuid-d19539bb-c75e-41bc-88da-88be5fed7787" d="m842.68,4.34l-4.62,4.62"/>
          <path class="uuid-d19539bb-c75e-41bc-88da-88be5fed7787" d="m842.68,4.34l4.62,4.62"/>
          <path class="uuid-d19539bb-c75e-41bc-88da-88be5fed7787" d="m.58,940.01h1695.75"/>
          <text class="uuid-48ffa9b2-d836-48ce-90ee-8e3ba7452a66" transform="translate(62.38 957.91)"><tspan x="0" y="0">–9</tspan></text>
          <text class="uuid-51e0e5c3-a610-4f79-9b8f-d5cbf6664082" transform="translate(62.38 957.91)"><tspan x="0" y="0">–9</tspan></text>
          <text class="uuid-48ffa9b2-d836-48ce-90ee-8e3ba7452a66" transform="translate(62.38 957.91)"><tspan x="0" y="0">–9</tspan></text>
          <text class="uuid-48ffa9b2-d836-48ce-90ee-8e3ba7452a66" transform="translate(147.86 957.91)"><tspan x="0" y="0">–8</tspan></text>
          <text class="uuid-51e0e5c3-a610-4f79-9b8f-d5cbf6664082" transform="translate(147.86 957.91)"><tspan x="0" y="0">–8</tspan></text>
          <text class="uuid-48ffa9b2-d836-48ce-90ee-8e3ba7452a66" transform="translate(147.86 957.91)"><tspan x="0" y="0">–8</tspan></text>
          <text class="uuid-48ffa9b2-d836-48ce-90ee-8e3ba7452a66" transform="translate(234.49 957.91)"><tspan x="0" y="0">–7</tspan></text>
          <text class="uuid-51e0e5c3-a610-4f79-9b8f-d5cbf6664082" transform="translate(234.49 957.91)"><tspan x="0" y="0">–7</tspan></text>
          <text class="uuid-48ffa9b2-d836-48ce-90ee-8e3ba7452a66" transform="translate(234.49 957.91)"><tspan x="0" y="0">–7</tspan></text>
          <text class="uuid-48ffa9b2-d836-48ce-90ee-8e3ba7452a66" transform="translate(319.98 957.91)"><tspan x="0" y="0">–6</tspan></text>
          <text class="uuid-51e0e5c3-a610-4f79-9b8f-d5cbf6664082" transform="translate(319.98 957.91)"><tspan x="0" y="0">–6</tspan></text>
          <text class="uuid-48ffa9b2-d836-48ce-90ee-8e3ba7452a66" transform="translate(319.98 957.91)"><tspan x="0" y="0">–6</tspan></text>
          <text class="uuid-48ffa9b2-d836-48ce-90ee-8e3ba7452a66" transform="translate(406.61 957.91)"><tspan x="0" y="0">–5</tspan></text>
          <text class="uuid-51e0e5c3-a610-4f79-9b8f-d5cbf6664082" transform="translate(406.61 957.91)"><tspan x="0" y="0">–5</tspan></text>
          <text class="uuid-48ffa9b2-d836-48ce-90ee-8e3ba7452a66" transform="translate(406.61 957.91)"><tspan x="0" y="0">–5</tspan></text>
          <text class="uuid-48ffa9b2-d836-48ce-90ee-8e3ba7452a66" transform="translate(492.09 957.91)"><tspan x="0" y="0">–4</tspan></text>
          <text class="uuid-51e0e5c3-a610-4f79-9b8f-d5cbf6664082" transform="translate(492.09 957.91)"><tspan x="0" y="0">–4</tspan></text>
          <text class="uuid-48ffa9b2-d836-48ce-90ee-8e3ba7452a66" transform="translate(492.09 957.91)"><tspan x="0" y="0">–4</tspan></text>
          <text class="uuid-48ffa9b2-d836-48ce-90ee-8e3ba7452a66" transform="translate(578.73 957.91)"><tspan x="0" y="0">–3</tspan></text>
          <text class="uuid-51e0e5c3-a610-4f79-9b8f-d5cbf6664082" transform="translate(578.73 957.91)"><tspan x="0" y="0">–3</tspan></text>
          <text class="uuid-48ffa9b2-d836-48ce-90ee-8e3ba7452a66" transform="translate(578.73 957.91)"><tspan x="0" y="0">–3</tspan></text>
          <text class="uuid-48ffa9b2-d836-48ce-90ee-8e3ba7452a66" transform="translate(664.21 957.91)"><tspan x="0" y="0">–2</tspan></text>
          <text class="uuid-51e0e5c3-a610-4f79-9b8f-d5cbf6664082" transform="translate(664.21 957.91)"><tspan x="0" y="0">–2</tspan></text>
          <text class="uuid-48ffa9b2-d836-48ce-90ee-8e3ba7452a66" transform="translate(664.21 957.91)"><tspan x="0" y="0">–2</tspan></text>
          <text class="uuid-48ffa9b2-d836-48ce-90ee-8e3ba7452a66" transform="translate(750.84 957.91)"><tspan x="0" y="0">–1</tspan></text>
          <text class="uuid-51e0e5c3-a610-4f79-9b8f-d5cbf6664082" transform="translate(750.84 957.91)"><tspan x="0" y="0">–1</tspan></text>
          <text class="uuid-48ffa9b2-d836-48ce-90ee-8e3ba7452a66" transform="translate(750.84 957.91)"><tspan x="0" y="0">–1</tspan></text>
          <text class="uuid-48ffa9b2-d836-48ce-90ee-8e3ba7452a66" transform="translate(926.43 957.91)"><tspan x="0" y="0">1</tspan></text>
          <text class="uuid-51e0e5c3-a610-4f79-9b8f-d5cbf6664082" transform="translate(926.43 957.91)"><tspan x="0" y="0">1</tspan></text>
          <text class="uuid-48ffa9b2-d836-48ce-90ee-8e3ba7452a66" transform="translate(926.43 957.91)"><tspan x="0" y="0">1</tspan></text>
          <text class="uuid-48ffa9b2-d836-48ce-90ee-8e3ba7452a66" transform="translate(1011.91 957.91)"><tspan x="0" y="0">2</tspan></text>
          <text class="uuid-51e0e5c3-a610-4f79-9b8f-d5cbf6664082" transform="translate(1011.91 957.91)"><tspan x="0" y="0">2</tspan></text>
          <text class="uuid-48ffa9b2-d836-48ce-90ee-8e3ba7452a66" transform="translate(1011.91 957.91)"><tspan x="0" y="0">2</tspan></text>
          <text class="uuid-48ffa9b2-d836-48ce-90ee-8e3ba7452a66" transform="translate(1098.54 957.91)"><tspan x="0" y="0">3</tspan></text>
          <text class="uuid-51e0e5c3-a610-4f79-9b8f-d5cbf6664082" transform="translate(1098.54 957.91)"><tspan x="0" y="0">3</tspan></text>
          <text class="uuid-48ffa9b2-d836-48ce-90ee-8e3ba7452a66" transform="translate(1098.54 957.91)"><tspan x="0" y="0">3</tspan></text>
          <text class="uuid-48ffa9b2-d836-48ce-90ee-8e3ba7452a66" transform="translate(1184.02 957.91)"><tspan x="0" y="0">4</tspan></text>
          <text class="uuid-51e0e5c3-a610-4f79-9b8f-d5cbf6664082" transform="translate(1184.02 957.91)"><tspan x="0" y="0">4</tspan></text>
          <text class="uuid-48ffa9b2-d836-48ce-90ee-8e3ba7452a66" transform="translate(1184.02 957.91)"><tspan x="0" y="0">4</tspan></text>
          <text class="uuid-48ffa9b2-d836-48ce-90ee-8e3ba7452a66" transform="translate(819 1031.84)"><tspan x="0" y="0">–1</tspan></text>
          <text class="uuid-51e0e5c3-a610-4f79-9b8f-d5cbf6664082" transform="translate(819 1031.84)"><tspan x="0" y="0">–1</tspan></text>
          <text class="uuid-48ffa9b2-d836-48ce-90ee-8e3ba7452a66" transform="translate(819 1031.84)"><tspan x="0" y="0">–1</tspan></text>
          <text class="uuid-48ffa9b2-d836-48ce-90ee-8e3ba7452a66" transform="translate(825.93 859.73)"><tspan x="0" y="0">1</tspan></text>
          <text class="uuid-51e0e5c3-a610-4f79-9b8f-d5cbf6664082" transform="translate(825.93 859.73)"><tspan x="0" y="0">1</tspan></text>
          <text class="uuid-48ffa9b2-d836-48ce-90ee-8e3ba7452a66" transform="translate(825.93 859.73)"><tspan x="0" y="0">1</tspan></text>
          <text class="uuid-48ffa9b2-d836-48ce-90ee-8e3ba7452a66" transform="translate(825.93 773.09)"><tspan x="0" y="0">2</tspan></text>
          <text class="uuid-51e0e5c3-a610-4f79-9b8f-d5cbf6664082" transform="translate(825.93 773.09)"><tspan x="0" y="0">2</tspan></text>
          <text class="uuid-48ffa9b2-d836-48ce-90ee-8e3ba7452a66" transform="translate(825.93 773.09)"><tspan x="0" y="0">2</tspan></text>
          <text class="uuid-48ffa9b2-d836-48ce-90ee-8e3ba7452a66" transform="translate(825.93 687.61)"><tspan x="0" y="0">3</tspan></text>
          <text class="uuid-51e0e5c3-a610-4f79-9b8f-d5cbf6664082" transform="translate(825.93 687.61)"><tspan x="0" y="0">3</tspan></text>
          <text class="uuid-48ffa9b2-d836-48ce-90ee-8e3ba7452a66" transform="translate(825.93 687.61)"><tspan x="0" y="0">3</tspan></text>
          <text class="uuid-48ffa9b2-d836-48ce-90ee-8e3ba7452a66" transform="translate(825.93 600.97)"><tspan x="0" y="0">4</tspan></text>
          <text class="uuid-51e0e5c3-a610-4f79-9b8f-d5cbf6664082" transform="translate(825.93 600.97)"><tspan x="0" y="0">4</tspan></text>
          <text class="uuid-48ffa9b2-d836-48ce-90ee-8e3ba7452a66" transform="translate(825.93 600.97)"><tspan x="0" y="0">4</tspan></text>
          <text class="uuid-48ffa9b2-d836-48ce-90ee-8e3ba7452a66" transform="translate(825.93 515.49)"><tspan x="0" y="0">5</tspan></text>
          <text class="uuid-51e0e5c3-a610-4f79-9b8f-d5cbf6664082" transform="translate(825.93 515.49)"><tspan x="0" y="0">5</tspan></text>
          <text class="uuid-48ffa9b2-d836-48ce-90ee-8e3ba7452a66" transform="translate(825.93 515.49)"><tspan x="0" y="0">5</tspan></text>
          <text class="uuid-48ffa9b2-d836-48ce-90ee-8e3ba7452a66" transform="translate(825.93 428.86)"><tspan x="0" y="0">6</tspan></text>
          <text class="uuid-51e0e5c3-a610-4f79-9b8f-d5cbf6664082" transform="translate(825.93 428.86)"><tspan x="0" y="0">6</tspan></text>
          <text class="uuid-48ffa9b2-d836-48ce-90ee-8e3ba7452a66" transform="translate(825.93 428.86)"><tspan x="0" y="0">6</tspan></text>
          <text class="uuid-48ffa9b2-d836-48ce-90ee-8e3ba7452a66" transform="translate(825.93 343.38)"><tspan x="0" y="0">7</tspan></text>
          <text class="uuid-51e0e5c3-a610-4f79-9b8f-d5cbf6664082" transform="translate(825.93 343.38)"><tspan x="0" y="0">7</tspan></text>
          <text class="uuid-48ffa9b2-d836-48ce-90ee-8e3ba7452a66" transform="translate(825.93 343.38)"><tspan x="0" y="0">7</tspan></text>
          <text class="uuid-48ffa9b2-d836-48ce-90ee-8e3ba7452a66" transform="translate(825.93 256.74)"><tspan x="0" y="0">8</tspan></text>
          <text class="uuid-51e0e5c3-a610-4f79-9b8f-d5cbf6664082" transform="translate(825.93 256.74)"><tspan x="0" y="0">8</tspan></text>
          <text class="uuid-48ffa9b2-d836-48ce-90ee-8e3ba7452a66" transform="translate(825.93 256.74)"><tspan x="0" y="0">8</tspan></text>
          <text class="uuid-48ffa9b2-d836-48ce-90ee-8e3ba7452a66" transform="translate(825.93 171.26)"><tspan x="0" y="0">9</tspan></text>
          <text class="uuid-51e0e5c3-a610-4f79-9b8f-d5cbf6664082" transform="translate(825.93 171.26)"><tspan x="0" y="0">9</tspan></text>
          <text class="uuid-48ffa9b2-d836-48ce-90ee-8e3ba7452a66" transform="translate(825.93 171.26)"><tspan x="0" y="0">9</tspan></text>
          <text class="uuid-48ffa9b2-d836-48ce-90ee-8e3ba7452a66" transform="translate(819 84.62)"><tspan x="0" y="0">10</tspan></text>
          <text class="uuid-51e0e5c3-a610-4f79-9b8f-d5cbf6664082" transform="translate(819 84.62)"><tspan x="0" y="0">10</tspan></text>
          <text class="uuid-48ffa9b2-d836-48ce-90ee-8e3ba7452a66" transform="translate(819 84.62)"><tspan x="0" y="0">10</tspan></text>
          <text class="uuid-48ffa9b2-d836-48ce-90ee-8e3ba7452a66" transform="translate(825.93 957.91)"><tspan x="0" y="0">0</tspan></text>
          <text class="uuid-51e0e5c3-a610-4f79-9b8f-d5cbf6664082" transform="translate(825.93 957.91)"><tspan x="0" y="0">0</tspan></text>
          <text class="uuid-48ffa9b2-d836-48ce-90ee-8e3ba7452a66" transform="translate(825.93 957.91)"><tspan x="0" y="0">0</tspan></text>
          <path class="uuid-93af1356-efa9-485c-b7cf-51d776cc9c70" d="m1.16,940.17h0s0,0,0,0h1.16s1.16,0,1.16,0h1.16s1.16,0,1.16,0h1.16s1.16,0,1.16,0h1.16s1.16,0,1.16,0h1.16s1.16,0,1.16,0h1.16s1.16,0,1.16,0h1.16s1.16,0,1.16,0h1.16s1.16,0,1.16,0h1.16s1.16,0,1.16,0h1.16s1.16,0,1.16,0h1.16s1.16,0,1.16,0h1.16s1.16,0,1.16,0h1.16s1.16,0,1.16,0h1.16s1.16,0,1.16,0h1.16s1.16,0,1.16,0h1.16s1.16,0,1.16,0h1.16s1.16,0,1.16,0h1.16s1.16,0,1.16,0h1.16s1.16,0,1.16,0h1.16s1.16,0,1.16,0h1.16s1.16,0,1.16,0h1.16s1.16,0,1.16,0h1.16s1.16,0,1.16,0h1.16s1.16,0,1.16,0h1.16s1.16,0,1.16,0h1.16s1.16,0,1.16,0h1.16s1.16,0,1.16,0h1.16s1.16,0,1.16,0h1.16s1.16,0,1.16,0h1.16s1.16,0,1.16,0h1.16s1.16,0,1.16,0h1.16s1.16,0,1.16,0h1.16s1.16,0,1.16,0h1.16s1.16,0,1.16,0h1.16s1.16,0,1.16,0h1.16s1.16,0,1.16,0h1.16s1.16,0,1.16,0h1.16s1.16,0,1.16,0h1.16s1.16,0,1.16,0h1.16s1.16,0,1.16,0h1.16s1.16,0,1.16,0h1.16s1.16,0,1.16,0h1.16s1.16,0,1.16,0h1.16s1.16,0,1.16,0h1.16s1.16,0,1.16,0h1.16s1.16,0,1.16,0h1.16s1.16,0,1.16,0h1.16s1.16,0,1.16,0h1.16s1.16,0,1.16,0h1.16s1.16,0,1.16,0h1.16s1.16,0,1.16,0h1.16s1.16,0,1.16,0h1.16s1.16,0,1.16,0h1.16s1.16,0,1.16,0h1.16s1.16,0,1.16,0h1.16s1.16,0,1.16,0h1.16s1.16,0,1.16,0h1.16s1.16,0,1.16,0h1.16s1.16,0,1.16,0h1.16s1.16,0,1.16,0h1.16s1.16,0,1.16,0h1.16s1.16,0,1.16,0h1.16s1.16,0,1.16,0h1.16s1.16,0,1.16,0h1.16s1.16,0,1.16,0h1.16s1.16,0,1.16,0h1.16s1.16,0,1.16,0h1.16s1.16,0,1.16,0h1.16s1.16,0,1.16,0h1.16s1.16,0,1.16,0h1.16s1.16,0,1.16,0h1.16s1.16,0,1.16,0h1.16s1.16,0,1.16,0h1.16s1.16,0,1.16,0h1.16s1.16,0,1.16,0h1.16s1.16,0,1.16,0h1.16s1.16,0,1.16,0h1.16s1.16,0,1.16,0h1.16s1.16,0,1.16,0h1.16s1.16,0,1.16,0h1.16s1.16,0,1.16,0h1.16s1.16,0,1.16,0h1.16s1.16,0,1.16,0h1.16s1.16,0,1.16,0h1.16s1.16,0,1.16,0h1.16s1.16,0,1.16,0h1.16s1.16,0,1.16,0h1.16s1.16,0,1.16,0h1.16s1.16,0,1.16,0h1.16s1.16,0,1.16,0h1.16s1.16,0,1.16,0h1.16s1.16,0,1.16,0h1.16s1.16,0,1.16,0h1.16s1.16,0,1.16,0h1.16s1.16,0,1.16,0h1.16s1.16,0,1.16,0h1.16s1.16,0,1.16,0h1.16s1.16,0,1.16,0h1.16s1.16,0,1.16,0h1.16s1.16,0,1.16,0h1.16s1.16,0,1.16,0h1.16s1.16,0,1.16,0h1.16s1.16,0,1.16,0h1.16s1.16,0,1.16,0h1.16s1.16,0,1.16,0h1.16s1.16,0,1.16,0h1.16s1.16,0,1.16,0h1.16s1.16,0,1.16,0h1.16s1.16,0,1.16,0h1.16s1.16,0,1.16,0h1.16s1.16,0,1.16,0h1.16s1.16,0,1.16,0h1.16s1.16,0,1.16,0h1.16s1.16,0,1.16,0h1.16s1.16,0,1.16,0h1.16s1.16,0,1.16,0h1.16s1.16,0,1.16,0h1.16s1.16,0,1.16,0h1.16s1.16,0,1.16,0h1.16s1.16,0,1.16,0h1.16s1.16,0,1.16,0h1.16s1.16,0,1.16,0h1.16s1.16,0,1.16,0h1.16s1.16,0,1.16,0h1.16s1.16,0,1.16,0h1.16s1.16,0,1.16,0h1.16s1.16,0,1.16,0h1.16s1.16,0,1.16,0h1.16s1.16,0,1.16,0h1.16s1.16,0,1.16,0h1.16s1.16,0,1.16,0h1.16s1.16,0,1.16,0h1.16s1.16,0,1.16,0h1.16s1.16,0,1.16,0h1.16s1.16,0,1.16,0h1.16s1.16,0,1.16,0h1.16s1.16,0,1.16,0h1.16s1.16,0,1.16,0h1.16s1.16,0,1.16,0h1.16s1.16,0,1.16,0h1.16s1.16,0,1.16,0h1.16s1.16,0,1.16,0h1.16s1.16,0,1.16,0h1.16s1.16,0,1.16,0h1.16s1.16,0,1.16,0h1.16s1.16,0,1.16,0h1.16s1.16,0,1.16,0h1.16s1.16,0,1.16,0h1.16s1.16,0,1.16,0h1.16s1.16,0,1.16,0h1.16s1.16,0,1.16,0h1.16s1.16,0,1.16,0h1.16s1.16,0,1.16,0h1.16s1.16,0,1.16,0h1.16s1.16,0,1.16,0h1.16s1.16,0,1.16,0h1.16s1.16,0,1.16,0h1.16s1.16,0,1.16,0h1.16s1.16,0,1.16,0h1.16s1.16,0,1.16,0h1.16s1.16,0,1.16,0h1.16s1.16,0,1.16,0h1.16s1.16-.01,1.16-.01h1.16s1.16-.01,1.16-.01h1.16s1.16-.01,1.16-.01h1.16s1.16-.01,1.16-.01h1.16s1.16-.01,1.16-.01h1.16s1.16-.01,1.16-.01h1.16s1.16-.01,1.16-.01h1.16s1.16-.01,1.16-.01h1.16s1.16-.01,1.16-.01h1.16s1.16-.01,1.16-.01h1.16s1.16-.01,1.16-.01h1.16s1.16-.01,1.16-.01h1.16s1.16-.01,1.16-.01h1.16s1.16-.01,1.16-.01h1.16s1.16-.01,1.16-.01h1.16s1.16-.02,1.16-.02h1.16s1.16-.02,1.16-.02h1.16s1.16-.02,1.16-.02h1.16s1.16-.02,1.16-.02h1.16s1.16-.02,1.16-.02h1.16s1.16-.02,1.16-.02h1.16s1.16-.02,1.16-.02h1.16s1.16-.02,1.16-.02h1.16s1.16-.02,1.16-.02h1.16s1.16-.02,1.16-.02h1.16s1.16-.02,1.16-.02h1.16s1.16-.02,1.16-.02h1.16s1.16-.02,1.16-.02h1.16s1.16-.02,1.16-.02h1.16s1.16-.02,1.16-.02h1.16s1.16-.02,1.16-.02h1.16s1.16-.02,1.16-.02h1.16s1.16-.02,1.16-.02h1.16s1.16-.02,1.16-.02h1.16s1.16-.03,1.16-.03h1.16s1.16-.03,1.16-.03h1.16s1.16-.03,1.16-.03h1.16s1.16-.03,1.16-.03h1.16s1.16-.03,1.16-.03h1.16s1.16-.03,1.16-.03h1.16s1.16-.03,1.16-.03h0l1.16-.02h0l1.16-.02h0l1.16-.02h0l1.16-.02h0l1.16-.02h0l1.16-.02h0l1.16-.02h0l1.16-.02h0l1.16-.02h0l1.16-.02h0l1.16-.02h0l1.16-.02h0l1.16-.02h0l1.16-.02h0l1.16-.02h0l1.16-.02h0l1.16-.02h0l1.16-.02h0l1.16-.02h0l1.16-.02h0l1.16-.02h0l1.16-.02h0l1.16-.02h0l1.16-.02h0l1.16-.02h0l1.16-.02h0l1.16-.02h0l1.16-.02h0l1.16-.02h0l1.16-.02h0l1.16-.02h0l1.16-.02h0l1.16-.02h0l1.16-.02h0l1.16-.02h0l1.16-.02h0l1.16-.02h0l1.16-.03h0l1.16-.03h0l1.16-.03h0l1.16-.03h0l1.16-.03h0l1.16-.03h0l1.16-.03h0l1.16-.03h0l1.16-.03h0l1.16-.03h0l1.16-.03h0l1.16-.03h0l1.16-.03h0l1.16-.03h0l1.16-.03h0l1.16-.03h0l1.16-.03h0l1.16-.03h0l1.16-.03h0l1.16-.03h0l1.16-.03h0l1.16-.03h0l1.16-.03h0l1.16-.03h0l1.16-.03h0l1.16-.04h0l1.16-.04h0l1.16-.04h0l1.16-.04h0l1.16-.04h0l1.16-.04h0l1.16-.04h0l1.16-.04h0l1.16-.04h0l1.16-.04h0l1.16-.04h0l1.16-.04h0l1.16-.04h0l1.16-.04h0l1.16-.04h0l1.16-.04h0l1.16-.04h0l1.16-.04h0l1.16-.04h0l1.16-.05h0l1.16-.05h0l1.16-.05h0l1.16-.05h0l1.16-.05h0l1.16-.05h0l1.16-.05h0l1.16-.05h0l1.16-.05h0l1.16-.05h0l1.16-.05h0l1.16-.05h0l1.16-.05h0l1.16-.05h0l1.16-.05h0l1.16-.06h0l1.16-.06h0l1.16-.06h0l1.16-.06h0l1.16-.06h0l1.16-.06h0l1.16-.06h0l1.16-.06h0l1.16-.06h0l1.16-.06h0l1.16-.06h0l1.16-.06h0l1.16-.07h0l1.16-.07h0l1.16-.07h0l1.16-.07h0l1.16-.07h0l1.16-.07h0l1.16-.07h0l1.16-.07h0l1.16-.07h0l1.16-.07h0l1.16-.07h0l1.16-.08h0l1.16-.08h0l1.16-.08h0l1.16-.08h0l1.16-.08h0l1.16-.08h0l1.16-.08h0l1.16-.08h0l1.16-.08h0l1.16-.09h0l1.16-.09h0l1.16-.09h0l1.16-.09h0l1.16-.09h0l1.16-.09h0l1.16-.09h0l1.16-.09h0l1.16-.09h0l1.16-.1h0l1.16-.1h0l1.16-.1h0l1.16-.1h0l1.16-.1h0l1.16-.1h0l1.16-.1h0l1.16-.11h0l1.16-.11h0l1.16-.11h0l1.16-.11h0l1.16-.11h0l1.16-.11h0l1.16-.11h0l1.16-.12h0l1.16-.12h0l1.16-.12h0l1.16-.12h0l1.16-.12h0l1.16-.12h0l1.16-.13h0l1.16-.13h0l1.16-.13h0l1.16-.13h0l1.16-.13h0l1.16-.13h0l1.16-.14h0l1.16-.14h0l1.16-.14h0l1.16-.14h0l1.16-.14h0l1.16-.15h0l1.16-.15h0l1.16-.15h0l1.16-.15h0l1.16-.15h0l1.16-.16h0l1.16-.16h0l1.16-.16h0l1.16-.16h0l1.16-.16h0l1.16-.17h0l1.16-.17h0l1.16-.17h0l1.16-.17h0l1.16-.18h0l1.16-.18h0l1.16-.18h0l1.16-.18h0l1.16-.19h0l1.16-.19h0l1.16-.19h0l1.16-.19h0l1.16-.2h0l1.16-.2h0l1.16-.2h0l1.16-.2h0l1.16-.21h0l1.16-.21h0l1.16-.21h0l1.16-.22h0l1.16-.22h0l1.16-.22h0l1.16-.22h0l1.16-.23h0l1.16-.23h0l1.16-.23h0l1.16-.24h0l1.16-.24h0l1.16-.24h0l1.16-.25h0l1.16-.25h0l1.16-.25h0l1.16-.26h0l1.16-.26h0l1.16-.26h0l1.16-.27h0l1.16-.27h0l1.16-.27h0l1.16-.28h0l1.16-.28h0l1.16-.29h0l1.16-.29h0l1.16-.29h0l1.16-.3h0l1.16-.3h0l1.16-.31h0l1.16-.31h0l1.16-.31h0l1.16-.32h0l1.16-.32h0l1.16-.33h0l1.16-.33h0l1.16-.34h0l1.16-.34h0l1.16-.34h0l1.16-.35h0l1.16-.35h0l1.16-.36h0l1.16-.36h0l1.16-.37h0l1.16-.37h0l1.16-.38h0l1.16-.38h0l1.16-.39h0l1.16-.39h0l1.16-.4h0l1.16-.4h0l1.16-.41h0l1.16-.42h0l1.16-.42h0l1.16-.43h0l1.16-.43h0l1.16-.44h0l1.16-.44h0l1.16-.45h0l1.16-.46h0l1.16-.46h0l1.16-.47h0l1.16-.48h0l1.16-.48h0l1.16-.49h0l1.16-.49h0l1.16-.5h0l1.16-.51h0l1.16-.51h0l1.16-.52h0l1.16-.53h0l1.16-.54h0l1.16-.54h0l1.16-.55h0l1.16-.56h0l1.16-.57h0l1.16-.57h0l1.16-.58h0l1.16-.59h0l1.16-.6h0l1.16-.6h0l1.16-.61h0l1.16-.62h0l1.16-.63h0l1.16-.64h0l1.16-.65h0l1.16-.66h0l1.16-.66h0l1.16-.67h0l1.16-.68h0l1.16-.69h0l1.16-.7h0l1.16-.71h0l1.16-.72h0l1.16-.73h0l1.16-.74h0l1.16-.75h0l1.16-.76h0l1.16-.77h0l1.16-.78h0l1.16-.79h0l1.16-.8h0l1.16-.81h0l1.16-.82h0l1.16-.83h0l1.16-.85h0l1.16-.86h0l1.16-.87h0l1.16-.88h0l1.16-.89h0l1.16-.9h0l1.16-.92h0l1.16-.93h0l1.16-.94h0l1.16-.95h0l1.16-.97h0l1.16-.98h0l1.16-.99h0l1.16-1.01h0l1.16-1.02h0l1.16-1.04h0l1.16-1.05h0l1.16-1.06h0l1.16-1.08h0l1.16-1.09h0l1.16-1.11h0l1.16-1.12h0l1.16-1.14h0l1.16-1.15h0l1.16-1.17h0l1.16-1.18h0l1.16-1.2h0l1.16-1.22h0l1.16-1.23h0l1.16-1.25h0l1.16-1.27h0l1.16-1.28h0l1.16-1.3h0l1.16-1.32h0l1.16-1.34h0l1.16-1.35h0l1.16-1.37h0l1.16-1.39h0l1.16-1.41h0l1.16-1.43h0l1.16-1.45h0l1.16-1.47h0l1.16-1.49h0l1.16-1.51h0l1.16-1.53h0l1.16-1.55h0l1.16-1.57h0l1.16-1.59h0l1.16-1.61h0l1.16-1.63h0l1.16-1.66h0l1.16-1.68h0l1.16-1.7h0l1.16-1.72h0l1.16-1.75h0l1.16-1.77h0l1.16-1.79h0l1.16-1.82h0l1.16-1.84h0l1.16-1.87h0l1.16-1.89h0l1.16-1.92h0l1.16-1.95h0l1.16-1.97h0l1.16-2h0l1.16-2.03h0l1.16-2.05h0l1.16-2.08h0l1.16-2.11h0l1.16-2.14h0l1.16-2.17h0l1.16-2.2h0l1.16-2.22h0l1.16-2.25h0l1.16-2.29h0l1.16-2.32h0l1.16-2.35h0l1.16-2.38h0l1.16-2.41h0l1.16-2.44h0l1.16-2.48h0l1.16-2.51h0l1.16-2.54h0l1.16-2.58h0l1.16-2.61h0l1.16-2.65h0l1.16-2.68h0l1.16-2.72h0l1.16-2.76h0l1.16-2.8h0l1.16-2.83h0l1.16-2.87h0l1.16-2.91h0l1.16-2.95h0l1.16-2.99h0l1.16-3.03h0l1.16-3.07h0l1.16-3.11h0l1.16-3.15h0l1.16-3.2h0l1.16-3.24h0l1.16-3.28h0l1.16-3.33h0l1.16-3.37h0l1.16-3.42h0l1.16-3.46h0l1.16-3.51h0l1.16-3.56h0l1.16-3.61h0l1.16-3.66h0l1.16-3.71h0l1.16-3.76h0l1.16-3.81h0l1.16-3.86h0l1.16-3.91h0l1.16-3.96h0l1.16-4.02h0l1.16-4.07h0l1.16-4.13h0l1.16-4.18h0l1.16-4.24h0l1.16-4.29h0l1.16-4.35h0l1.16-4.41h0l1.16-4.47h0l1.16-4.53h0l1.16-4.59h0l1.16-4.66h0l1.16-4.72h0l1.16-4.78h0l1.16-4.85h0l1.16-4.91h0l1.16-4.98h0l1.16-5.05h0l1.16-5.11h0l1.16-5.18h0l1.16-5.25h0l1.16-5.32h0l1.16-5.4h0l1.16-5.47h0l1.16-5.54h0l1.16-5.62h0l1.16-5.69h0l1.16-5.77h0l1.16-5.85h0l1.16-5.93h0l1.16-6.01h0l1.16-6.09h0l1.16-6.17h0l1.16-6.25h0l1.16-6.34h0l1.16-6.42h0l1.16-6.51h0l1.16-6.6h0l1.16-6.69h0l1.16-6.78h0l1.16-6.87h0l1.16-6.96h0l1.16-7.06h0l1.16-7.15h0l1.16-7.25h0l1.16-7.35h0l1.16-7.45h0l1.16-7.55h0l1.16-7.65h0l1.16-7.75h0l1.16-7.86h0l1.16-7.96h0l1.16-8.07h0l1.16-8.18h0l1.16-8.29h0l1.16-8.4h0l1.16-8.52h0l1.16-8.63h0l1.16-8.75h0l1.16-8.87h0l1.16-8.99h0l1.16-9.11h0l1.16-9.23h0l1.16-9.36h0l1.16-9.48h0l1.16-9.61h0l1.16-9.74h0l1.16-9.87h0l1.16-10.01h0l1.16-10.14h0l1.16-10.28h0l1.16-10.42h0l1.16-10.56h0l1.16-10.7h0l1.16-10.85h0l1.16-10.99h0l1.16-11.14h0l1.16-11.29h0l1.16-11.44h0l1.16-11.6h0l1.16-11.76h0l1.16-11.91h0l1.16-12.08h0l1.16-12.24h0l1.16-12.4h0l1.16-12.57h0l.89-9.85"/>
          <text class="uuid-a04cc354-1f1a-4f51-984a-98a59e4321b9" transform="translate(9.24 939.43)"><tspan x="0" y="0">f</tspan></text>
          <text class="uuid-b1362b9a-b988-40a6-b933-d8ba97ccda69" transform="translate(9.24 939.43)"><tspan x="0" y="0">f</tspan></text>
          <text class="uuid-a04cc354-1f1a-4f51-984a-98a59e4321b9" transform="translate(9.24 939.43)"><tspan x="0" y="0">f</tspan></text>
        </g>
      </g>
    </g>
  </g>
  <g id="uuid-7570a279-97e9-4591-97b2-fe4495122b01" data-name="Marco">
    <path class="uuid-7dc75bd5-290e-4d7a-bb31-8db47dae1ffc" d="m-2-2V1022h1249V-2H-2Zm1232,987c0,11.05-8.95,20-20,20H35c-11.05,0-20-8.95-20-20V35c0-11.05,8.95-20,20-20h1175c11.05,0,20,8.95,20,20v950Z"/>
  </g>
</svg>