<?xml version="1.0" encoding="UTF-8"?>
<svg xmlns="http://www.w3.org/2000/svg" width="1245" height="1020" xmlns:xlink="http://www.w3.org/1999/xlink" viewBox="0 0 1245 1020">
  <defs>
    <style>
      .uuid-73bb5ae8-4774-49b4-9b29-2245555ae7bf {
        stroke: rgba(0, 153, 0, .7);
        stroke-linecap: round;
        stroke-linejoin: round;
        stroke-width: 3.94px;
      }

      .uuid-73bb5ae8-4774-49b4-9b29-2245555ae7bf, .uuid-2fc28658-e403-41d2-98be-08c1a801ca8f, .uuid-f578e102-3823-4f38-ba0f-50603f48616a, .uuid-6aac104d-d95e-42bf-8b1c-6b30f507c29c, .uuid-885514d2-944a-4d4b-8863-93b98b66577b, .uuid-b654db88-d648-42ee-81cf-67a929b4367c {
        fill: none;
      }

      .uuid-9877dca2-9622-4fbe-9452-1d090524abcb {
        fill: #fff;
      }

      .uuid-2fc28658-e403-41d2-98be-08c1a801ca8f {
        stroke: #606060;
        stroke-miterlimit: 10;
        stroke-width: 2.25px;
      }

      .uuid-d3eb262d-de8d-4328-b1ed-b4d8c8effee6 {
        fill: #606060;
      }

      .uuid-d3eb262d-de8d-4328-b1ed-b4d8c8effee6, .uuid-f578e102-3823-4f38-ba0f-50603f48616a {
        font-family: HelveticaNeue-UltraLight, 'Helvetica Neue UltraLight';
        font-size: 13.5px;
        font-weight: 100;
        isolation: isolate;
      }

      .uuid-653e7936-62a6-4280-a14f-2497344db6d9 {
        fill: #333;
      }

      .uuid-f578e102-3823-4f38-ba0f-50603f48616a {
        stroke: #fff;
        stroke-linejoin: bevel;
        stroke-width: 3.37px;
      }

      .uuid-e37df0b4-36a4-4ce8-b864-2aaa9cc5a74b {
        fill: #00699b;
      }

      .uuid-885514d2-944a-4d4b-8863-93b98b66577b {
        clip-path: url(#uuid-f21fd848-5db4-4a04-ad8e-155d5942f519);
      }

      .uuid-b654db88-d648-42ee-81cf-67a929b4367c {
        clip-path: url(#uuid-2926ad34-9403-4e5c-852d-1c3a0a0e239c);
      }
    </style>
    <clipPath id="uuid-2926ad34-9403-4e5c-852d-1c3a0a0e239c">
      <rect class="uuid-6aac104d-d95e-42bf-8b1c-6b30f507c29c" y="2.61" width="1245" height="1019.39"/>
    </clipPath>
    <clipPath id="uuid-f21fd848-5db4-4a04-ad8e-155d5942f519">
      <rect class="uuid-6aac104d-d95e-42bf-8b1c-6b30f507c29c" x="-72.49" width="1389.99" height="1020"/>
    </clipPath>
  </defs>
  <g id="uuid-e48e7beb-2191-4550-a870-e04340466415" data-name="Grafica">
    <g class="uuid-b654db88-d648-42ee-81cf-67a929b4367c">
      <g class="uuid-885514d2-944a-4d4b-8863-93b98b66577b">
        <g>
          <rect class="uuid-9877dca2-9622-4fbe-9452-1d090524abcb" x="-72.49" width="1389.99" height="1020"/>
          <path class="uuid-2fc28658-e403-41d2-98be-08c1a801ca8f" d="m621.38-1.12v1021.12"/>
          <path class="uuid-2fc28658-e403-41d2-98be-08c1a801ca8f" d="m-72.49,517.31h1388.86"/>
          <text class="uuid-d3eb262d-de8d-4328-b1ed-b4d8c8effee6" transform="translate(50.09 534.18)"><tspan x="0" y="0">–4</tspan></text>
          <text class="uuid-f578e102-3823-4f38-ba0f-50603f48616a" transform="translate(50.09 534.18)"><tspan x="0" y="0">–4</tspan></text>
          <text class="uuid-d3eb262d-de8d-4328-b1ed-b4d8c8effee6" transform="translate(50.09 534.18)"><tspan x="0" y="0">–4</tspan></text>
          <path class="uuid-2fc28658-e403-41d2-98be-08c1a801ca8f" d="m56.83,517.31v3.37"/>
          <text class="uuid-d3eb262d-de8d-4328-b1ed-b4d8c8effee6" transform="translate(191.78 534.18)"><tspan x="0" y="0">–3</tspan></text>
          <text class="uuid-f578e102-3823-4f38-ba0f-50603f48616a" transform="translate(191.78 534.18)"><tspan x="0" y="0">–3</tspan></text>
          <text class="uuid-d3eb262d-de8d-4328-b1ed-b4d8c8effee6" transform="translate(191.78 534.18)"><tspan x="0" y="0">–3</tspan></text>
          <path class="uuid-2fc28658-e403-41d2-98be-08c1a801ca8f" d="m197.41,517.31v3.37"/>
          <text class="uuid-d3eb262d-de8d-4328-b1ed-b4d8c8effee6" transform="translate(332.36 534.18)"><tspan x="0" y="0">–2</tspan></text>
          <text class="uuid-f578e102-3823-4f38-ba0f-50603f48616a" transform="translate(332.36 534.18)"><tspan x="0" y="0">–2</tspan></text>
          <text class="uuid-d3eb262d-de8d-4328-b1ed-b4d8c8effee6" transform="translate(332.36 534.18)"><tspan x="0" y="0">–2</tspan></text>
          <path class="uuid-2fc28658-e403-41d2-98be-08c1a801ca8f" d="m339.1,517.31v3.37"/>
          <text class="uuid-d3eb262d-de8d-4328-b1ed-b4d8c8effee6" transform="translate(474.05 534.18)"><tspan x="0" y="0">–1</tspan></text>
          <text class="uuid-f578e102-3823-4f38-ba0f-50603f48616a" transform="translate(474.05 534.18)"><tspan x="0" y="0">–1</tspan></text>
          <text class="uuid-d3eb262d-de8d-4328-b1ed-b4d8c8effee6" transform="translate(474.05 534.18)"><tspan x="0" y="0">–1</tspan></text>
          <path class="uuid-2fc28658-e403-41d2-98be-08c1a801ca8f" d="m479.68,517.31v3.37"/>
          <path class="uuid-2fc28658-e403-41d2-98be-08c1a801ca8f" d="m621.38,517.31v3.37"/>
          <text class="uuid-d3eb262d-de8d-4328-b1ed-b4d8c8effee6" transform="translate(759.7 534.18)"><tspan x="0" y="0">1</tspan></text>
          <text class="uuid-f578e102-3823-4f38-ba0f-50603f48616a" transform="translate(759.7 534.18)"><tspan x="0" y="0">1</tspan></text>
          <text class="uuid-d3eb262d-de8d-4328-b1ed-b4d8c8effee6" transform="translate(759.7 534.18)"><tspan x="0" y="0">1</tspan></text>
          <path class="uuid-2fc28658-e403-41d2-98be-08c1a801ca8f" d="m763.07,517.31v3.37"/>
          <text class="uuid-d3eb262d-de8d-4328-b1ed-b4d8c8effee6" transform="translate(901.4 534.18)"><tspan x="0" y="0">2</tspan></text>
          <text class="uuid-f578e102-3823-4f38-ba0f-50603f48616a" transform="translate(901.4 534.18)"><tspan x="0" y="0">2</tspan></text>
          <text class="uuid-d3eb262d-de8d-4328-b1ed-b4d8c8effee6" transform="translate(901.4 534.18)"><tspan x="0" y="0">2</tspan></text>
          <path class="uuid-2fc28658-e403-41d2-98be-08c1a801ca8f" d="m903.65,517.31v3.37"/>
          <text class="uuid-d3eb262d-de8d-4328-b1ed-b4d8c8effee6" transform="translate(1041.97 534.18)"><tspan x="0" y="0">3</tspan></text>
          <text class="uuid-f578e102-3823-4f38-ba0f-50603f48616a" transform="translate(1041.97 534.18)"><tspan x="0" y="0">3</tspan></text>
          <text class="uuid-d3eb262d-de8d-4328-b1ed-b4d8c8effee6" transform="translate(1041.97 534.18)"><tspan x="0" y="0">3</tspan></text>
          <path class="uuid-2fc28658-e403-41d2-98be-08c1a801ca8f" d="m1045.34,517.31v3.37"/>
          <text class="uuid-d3eb262d-de8d-4328-b1ed-b4d8c8effee6" transform="translate(1183.67 534.18)"><tspan x="0" y="0">4</tspan></text>
          <text class="uuid-f578e102-3823-4f38-ba0f-50603f48616a" transform="translate(1183.67 534.18)"><tspan x="0" y="0">4</tspan></text>
          <text class="uuid-d3eb262d-de8d-4328-b1ed-b4d8c8effee6" transform="translate(1183.67 534.18)"><tspan x="0" y="0">4</tspan></text>
          <path class="uuid-2fc28658-e403-41d2-98be-08c1a801ca8f" d="m1185.92,517.31v3.37"/>
          <path class="uuid-2fc28658-e403-41d2-98be-08c1a801ca8f" d="m618,898.54h3.37"/>
          <path class="uuid-2fc28658-e403-41d2-98be-08c1a801ca8f" d="m618,771.47h3.37"/>
          <path class="uuid-2fc28658-e403-41d2-98be-08c1a801ca8f" d="m618,644.39h3.37"/>
          <path class="uuid-2fc28658-e403-41d2-98be-08c1a801ca8f" d="m618,389.11h3.37"/>
          <path class="uuid-2fc28658-e403-41d2-98be-08c1a801ca8f" d="m618,262.03h3.37"/>
          <path class="uuid-2fc28658-e403-41d2-98be-08c1a801ca8f" d="m618,134.95h3.37"/>
          <text class="uuid-d3eb262d-de8d-4328-b1ed-b4d8c8effee6" transform="translate(579.77 903.04)"><tspan x="0" y="0">–1.35</tspan></text>
          <text class="uuid-f578e102-3823-4f38-ba0f-50603f48616a" transform="translate(579.77 903.04)"><tspan x="0" y="0">–1.35</tspan></text>
          <text class="uuid-d3eb262d-de8d-4328-b1ed-b4d8c8effee6" transform="translate(579.77 903.04)"><tspan x="0" y="0">–1.35</tspan></text>
          <text class="uuid-d3eb262d-de8d-4328-b1ed-b4d8c8effee6" transform="translate(587.64 775.97)"><tspan x="0" y="0">–0.9</tspan></text>
          <text class="uuid-f578e102-3823-4f38-ba0f-50603f48616a" transform="translate(587.64 775.97)"><tspan x="0" y="0">–0.9</tspan></text>
          <text class="uuid-d3eb262d-de8d-4328-b1ed-b4d8c8effee6" transform="translate(587.64 775.97)"><tspan x="0" y="0">–0.9</tspan></text>
          <text class="uuid-d3eb262d-de8d-4328-b1ed-b4d8c8effee6" transform="translate(579.77 648.89)"><tspan x="0" y="0">–0.45</tspan></text>
          <text class="uuid-f578e102-3823-4f38-ba0f-50603f48616a" transform="translate(579.77 648.89)"><tspan x="0" y="0">–0.45</tspan></text>
          <text class="uuid-d3eb262d-de8d-4328-b1ed-b4d8c8effee6" transform="translate(579.77 648.89)"><tspan x="0" y="0">–0.45</tspan></text>
          <text class="uuid-d3eb262d-de8d-4328-b1ed-b4d8c8effee6" transform="translate(587.64 394.73)"><tspan x="0" y="0">0.45</tspan></text>
          <text class="uuid-f578e102-3823-4f38-ba0f-50603f48616a" transform="translate(587.64 394.73)"><tspan x="0" y="0">0.45</tspan></text>
          <text class="uuid-d3eb262d-de8d-4328-b1ed-b4d8c8effee6" transform="translate(587.64 394.73)"><tspan x="0" y="0">0.45</tspan></text>
          <text class="uuid-d3eb262d-de8d-4328-b1ed-b4d8c8effee6" transform="translate(594.38 267.65)"><tspan x="0" y="0">0.9</tspan></text>
          <text class="uuid-f578e102-3823-4f38-ba0f-50603f48616a" transform="translate(594.38 267.65)"><tspan x="0" y="0">0.9</tspan></text>
          <text class="uuid-d3eb262d-de8d-4328-b1ed-b4d8c8effee6" transform="translate(594.38 267.65)"><tspan x="0" y="0">0.9</tspan></text>
          <text class="uuid-d3eb262d-de8d-4328-b1ed-b4d8c8effee6" transform="translate(587.64 140.57)"><tspan x="0" y="0">1.35</tspan></text>
          <text class="uuid-f578e102-3823-4f38-ba0f-50603f48616a" transform="translate(587.64 140.57)"><tspan x="0" y="0">1.35</tspan></text>
          <text class="uuid-d3eb262d-de8d-4328-b1ed-b4d8c8effee6" transform="translate(587.64 140.57)"><tspan x="0" y="0">1.35</tspan></text>
          <text class="uuid-d3eb262d-de8d-4328-b1ed-b4d8c8effee6" transform="translate(605.63 534.18)"><tspan x="0" y="0">0</tspan></text>
          <text class="uuid-f578e102-3823-4f38-ba0f-50603f48616a" transform="translate(605.63 534.18)"><tspan x="0" y="0">0</tspan></text>
          <text class="uuid-d3eb262d-de8d-4328-b1ed-b4d8c8effee6" transform="translate(605.63 534.18)"><tspan x="0" y="0">0</tspan></text>
          <path class="uuid-73bb5ae8-4774-49b4-9b29-2245555ae7bf" d="m-72.49,574.68l5.43.46,5.43.47,5.43.48,5.43.49,5.43.49,5.43.5,5.43.51,5.43.52,5.43.53,5.43.54,5.43.55,5.43.56,5.43.57,5.43.58,5.43.59,5.43.6,5.43.61,5.43.62,5.43.63,5.43.65,5.43.66,5.43.67,5.43.68,5.43.7,5.43.71,5.43.73,5.43.74,5.43.76,5.43.77,5.43.79,5.43.81,5.43.82,5.43.84,5.43.86,5.43.88,5.43.9,5.43.92,5.43.94,5.43.96,5.43.99,5.43,1.01,5.43,1.03,5.43,1.06,5.43,1.09,5.43,1.11,5.43,1.14,5.43,1.17,5.43,1.2,5.43,1.24,5.43,1.27,5.43,1.31,5.43,1.34,5.43,1.38,5.43,1.42,5.43,1.46,5.43,1.51,5.43,1.55,5.43,1.6,5.43,1.65,5.43,1.7,5.43,1.76,5.43,1.82,5.43,1.88,5.43,1.94m0,0l5.43,2.01,5.43,2.08,5.43,2.16,5.43,2.24,5.43,2.32,5.43,2.42,5.43,2.51,5.43,2.61,5.43,2.72,5.43,2.84,5.43,2.96,5.43,3.1,5.43,3.24,5.43,3.39,5.43,3.56,5.43,3.74,5.43,3.93,5.43,4.14,5.43,4.37,5.43,4.62,5.43,4.9,5.43,5.21,5.43,5.55,5.43,5.92,5.43,6.35,5.43,6.82,5.43,7.37,5.43,7.99,5.43,8.72,5.43,9.58,5.43,10.61,2.71,5.76,2.71,6.12m0,0l2.71,6.52,2.71,6.97,2.71,7.5,2.71,8.12,2.71,8.86,2.71,9.77,2.71,10.93,1.36,6.01,1.36,6.46m0,0l1.36,7.01,1.36,7.69,1.36,8.57,1.36,9.79m0,0l1.08,9.06,1.08,10.85.54,6.51.54,7.76.54,10.17.27,7.21.14,5.11.07,3.62.07,8.74M762.72,73.04l.06,8.2.06,3.39.12,4.8.24,6.77.48,9.55m0,0l.68,10.01.68,8.02.68,6.86.68,6.08,1.36,10.57,1.36,9.11,1.36,8.09,1.36,7.32,1.36,6.71,1.36,6.22m0,0l1.36,5.81,1.36,5.45,2.71,10.03,2.71,9.06,2.71,8.29,2.71,7.64,2.71,7.09,2.71,6.62,2.71,6.21m0,0l2.71,5.85,2.71,5.52,5.43,10.2,5.43,9.24,5.43,8.43,5.43,7.75,5.43,7.15,5.43,6.64,5.43,6.18,5.43,5.77,5.43,5.41,5.43,5.09,5.43,4.79,5.43,4.53,5.43,4.28,5.43,4.06,5.43,3.86,5.43,3.67,5.43,3.49,5.43,3.33,5.43,3.18,5.43,3.04,5.43,2.91,5.43,2.79,5.43,2.68,5.43,2.57,5.43,2.47,5.43,2.38,5.43,2.29,5.43,2.21,5.43,2.13,5.43,2.06,5.43,1.98m0,0l5.43,1.92,5.43,1.85,5.43,1.79,5.43,1.74,5.43,1.68,5.43,1.63,5.43,1.58,5.43,1.53,5.43,1.49,5.43,1.45,5.43,1.41,5.43,1.37,5.43,1.33,5.43,1.29,5.43,1.26,5.43,1.22,5.43,1.19,5.43,1.16,5.43,1.13,5.43,1.1,5.43,1.08,5.43,1.05,5.43,1.03,5.43,1,5.43.98,5.43.95,5.43.93,5.43.91,5.43.89,5.43.87,5.43.85,5.43.83,5.43.82,5.43.8,5.43.78,5.43.77,5.43.75,5.43.74,5.43.72,5.43.71,5.43.69,5.43.68,5.43.67,5.43.65,5.43.64,5.43.63,5.43.62,5.43.61,5.43.59,5.43.58,5.43.57,5.43.56,5.43.55,5.43.54,5.43.53,5.43.53,5.43.52,5.43.51,5.43.5,5.43.49,5.43.48,5.43.48,5.43.47,5.43.46"/>
        </g>
      </g>
    </g>
  </g>
  <g id="uuid-ae0d8fdf-0c2c-4b86-a8a0-09b7baec21a6" data-name="Marco">
    <path class="uuid-e37df0b4-36a4-4ce8-b864-2aaa9cc5a74b" d="m-2-2V1022h1249V-2H-2Zm1232,987c0,11.05-8.95,20-20,20H35c-11.05,0-20-8.95-20-20V35c0-11.05,8.95-20,20-20h1175c11.05,0,20,8.95,20,20v950Z"/>
  </g>
  <g id="uuid-3ed58e1a-8908-43a2-bb86-f9272350c404" data-name="texto">
    <g>
      <path class="uuid-653e7936-62a6-4280-a14f-2497344db6d9" d="m109.89,92.11c-.13-.99-.25-1.68-.37-2.06s-.31-.68-.57-.88c-.26-.2-.68-.32-1.27-.36l.21-.96h5.02l1.48,15.53c4.4-6.02,6.6-10.33,6.6-12.93,0-.61-.13-1.03-.39-1.25-.26-.22-.7-.35-1.33-.39l.2-.96h5.04l.53.98c-.69,1.81-1.57,3.68-2.65,5.62s-2.39,4.06-3.95,6.37c-1.56,2.3-3.29,4.7-5.19,7.19-1.46,1.91-2.68,3.36-3.67,4.34-.77.74-1.47,1.31-2.12,1.69s-1.27.66-1.88.82-1.25.24-1.92.24c-.35,0-.75-.04-1.19-.11-.44-.07-.82-.17-1.13-.28l.84-3.65h1.52c.01.44.12.79.31,1.05s.48.39.86.39c.42,0,.77-.04,1.07-.13.3-.08.62-.22.95-.42s.73-.51,1.21-.94c.47-.43,1.01-1,1.61-1.71.6-.71,1.27-1.57,2.01-2.57l-1.86-14.63Z"/>
      <path class="uuid-653e7936-62a6-4280-a14f-2497344db6d9" d="m135.91,92.4v-2.71h17.3v2.71h-17.3Zm0,8.11v-2.71h17.3v2.71h-17.3Z"/>
      <path class="uuid-653e7936-62a6-4280-a14f-2497344db6d9" d="m180.73,88.81l1.8-1.29,1.25.31-2.99,13.26c-.18.78-.31,1.38-.37,1.81-.07.42-.1.77-.1,1.04,0,.53.15.92.45,1.16.3.24.87.39,1.72.46l-.18.96h-5.59l1.23-4.9-.25-.08c-1.25,1.82-2.44,3.16-3.55,4-1.12.85-2.3,1.27-3.55,1.27-1.43,0-2.54-.54-3.33-1.62-.79-1.08-1.18-2.6-1.18-4.55,0-1.25.14-2.5.43-3.76.29-1.26.72-2.45,1.3-3.57.58-1.13,1.27-2.12,2.08-2.98.81-.86,1.74-1.54,2.8-2.05,1.06-.51,2.22-.76,3.47-.76.81,0,1.57.09,2.3.28.73.19,1.48.52,2.27,1.01Zm-1.72,5.82c.12-.53.2-1,.23-1.39s.06-.81.06-1.27c0-1.02-.21-1.75-.64-2.22s-1.15-.69-2.15-.69c-.55,0-1.07.09-1.56.26-.5.18-1,.47-1.5.88s-.99.95-1.46,1.61c-.46.66-.88,1.47-1.26,2.42-.38.95-.67,1.97-.88,3.06-.21,1.09-.31,2.15-.31,3.17,0,1.35.19,2.37.56,3.04s.99,1.01,1.87,1.01c.4,0,.82-.09,1.26-.27.44-.18.92-.52,1.46-1.01.53-.49,1.14-1.21,1.82-2.16.61-.87,1.1-1.74,1.46-2.59.36-.85.65-1.86.89-3.02l.18-.84Z"/>
      <path class="uuid-653e7936-62a6-4280-a14f-2497344db6d9" d="m193.25,87.67h1.17l-1.37,4.8.23.08c1.24-1.71,2.44-2.97,3.62-3.79,1.18-.82,2.39-1.23,3.64-1.23.95,0,1.74.07,2.38.21l-.94,4.38h-2.01c-.11-.68-.27-1.19-.49-1.54-.22-.35-.57-.53-1.04-.53-.51,0-1.09.26-1.76.78s-1.34,1.24-2.03,2.15c-.69.91-1.21,1.75-1.55,2.52-.35.77-.61,1.62-.79,2.56l-1.78,8.46h-3.38l2.97-13.34c.27-1.22.41-2.16.41-2.79,0-.36-.06-.65-.18-.85s-.31-.35-.57-.45c-.26-.1-.7-.17-1.33-.21l.21-1.04,4.55-.18Z"/>
      <path class="uuid-653e7936-62a6-4280-a14f-2497344db6d9" d="m215.73,92.54c-.03-.99-.11-1.71-.24-2.15s-.36-.77-.66-1c-.31-.22-.74-.33-1.3-.33-1.32,0-2.5.52-3.54,1.57-1.05,1.05-1.9,2.53-2.57,4.45s-1,3.77-1,5.54c0,.55.05,1.06.15,1.54s.27.9.51,1.25c.24.35.56.63.96.83.4.2.9.3,1.51.3,1.18,0,2.21-.22,3.08-.67.87-.45,1.78-1.16,2.74-2.12l1.19,1.19c-1.22,1.35-2.46,2.34-3.7,2.97-1.24.62-2.58.94-4.01.94-1.89,0-3.32-.56-4.3-1.68s-1.46-2.75-1.46-4.88c0-1.39.26-2.92.78-4.59.52-1.67,1.28-3.13,2.29-4.39,1-1.26,2.17-2.21,3.52-2.83,1.34-.62,2.77-.94,4.3-.94,1.04,0,1.95.06,2.72.18.77.12,1.46.25,2.06.41l-.96,4.41h-2.05Z"/>
      <path class="uuid-653e7936-62a6-4280-a14f-2497344db6d9" d="m232.86,92.54c-.03-.99-.11-1.71-.24-2.15s-.36-.77-.66-1c-.31-.22-.74-.33-1.3-.33-1.32,0-2.5.52-3.54,1.57-1.05,1.05-1.9,2.53-2.57,4.45s-1,3.77-1,5.54c0,.55.05,1.06.15,1.54s.27.9.51,1.25c.24.35.56.63.96.83.4.2.9.3,1.51.3,1.18,0,2.21-.22,3.08-.67.87-.45,1.78-1.16,2.74-2.12l1.19,1.19c-1.22,1.35-2.46,2.34-3.7,2.97-1.24.62-2.58.94-4.01.94-1.89,0-3.32-.56-4.3-1.68s-1.46-2.75-1.46-4.88c0-1.39.26-2.92.78-4.59.52-1.67,1.28-3.13,2.29-4.39,1-1.26,2.17-2.21,3.52-2.83,1.34-.62,2.77-.94,4.3-.94,1.04,0,1.95.06,2.72.18.77.12,1.46.25,2.06.41l-.96,4.41h-2.05Z"/>
      <path class="uuid-653e7936-62a6-4280-a14f-2497344db6d9" d="m248.72,92.4c-.14-1.17-.48-2.02-1.01-2.55s-1.35-.79-2.45-.79c-.61,0-1.17.11-1.66.34-.5.23-.89.56-1.17,1-.29.44-.43.95-.43,1.53,0,.48.1.92.29,1.32s.52.81.99,1.24c.46.43,1.11.92,1.94,1.48,1.26.85,2.15,1.67,2.66,2.46s.76,1.71.76,2.75c0,1.22-.29,2.26-.88,3.12s-1.39,1.49-2.4,1.9-2.16.62-3.44.62c-1.15,0-2.22-.08-3.21-.25s-1.96-.38-2.9-.64l.92-4.22h1.52c.09,1.2.43,2.09,1.03,2.69.59.59,1.46.89,2.59.89s2.06-.29,2.71-.87c.65-.58.98-1.34.98-2.29,0-.56-.1-1.06-.29-1.5s-.5-.87-.92-1.27c-.42-.4-1.01-.87-1.78-1.39-.82-.56-1.48-1.09-1.99-1.58s-.9-1.04-1.18-1.63c-.28-.59-.42-1.25-.42-1.96,0-1.08.27-2.02.8-2.81.53-.79,1.29-1.4,2.28-1.82.98-.42,2.13-.62,3.45-.62,2.15,0,4.04.28,5.68.84l-.9,4.02h-1.56Z"/>
      <path class="uuid-653e7936-62a6-4280-a14f-2497344db6d9" d="m265.46,92.54c-.03-.99-.11-1.71-.24-2.15s-.36-.77-.66-1c-.31-.22-.74-.33-1.3-.33-1.32,0-2.5.52-3.54,1.57-1.05,1.05-1.9,2.53-2.57,4.45s-1,3.77-1,5.54c0,.55.05,1.06.15,1.54s.27.9.51,1.25c.24.35.56.63.96.83.4.2.9.3,1.51.3,1.18,0,2.21-.22,3.08-.67.87-.45,1.78-1.16,2.74-2.12l1.19,1.19c-1.22,1.35-2.46,2.34-3.7,2.97-1.24.62-2.58.94-4.01.94-1.89,0-3.32-.56-4.3-1.68s-1.46-2.75-1.46-4.88c0-1.39.26-2.92.78-4.59.52-1.67,1.28-3.13,2.29-4.39,1-1.26,2.17-2.21,3.52-2.83,1.34-.62,2.77-.94,4.3-.94,1.04,0,1.95.06,2.72.18.77.12,1.46.25,2.06.41l-.96,4.41h-2.05Z"/>
      <path class="uuid-653e7936-62a6-4280-a14f-2497344db6d9" d="m295.71,88.81c-2.53,2.7-5.17,5.36-7.93,7.99l1.82,4.28c.48,1.15.87,1.99,1.15,2.53.29.54.55.93.78,1.17s.47.42.7.53.61.2,1.11.26l-.21.96h-4.86l-2.71-7.85c-.31.27-.73.65-1.24,1.14-.52.49-1.01,1.01-1.49,1.56-.48.55-.82,1-1.02,1.34s-.32.63-.38.88-.09.5-.09.76c0,.34.09.61.28.8.19.2.51.33.97.41l-.21.96h-5.57l-.37-.96c2.85-3.06,5.66-5.88,8.42-8.46l-1.86-4.36c-.38-.89-.68-1.56-.92-2.02s-.46-.82-.67-1.07-.46-.45-.74-.59c-.28-.14-.68-.22-1.2-.26l.21-.96h4.86l2.6,7.36c.64-.59,1.24-1.19,1.82-1.82.57-.62.98-1.12,1.21-1.48s.4-.69.49-.98c.09-.29.14-.59.14-.9,0-.72-.42-1.13-1.25-1.23l.21-.96h5.57l.39.96Z"/>
    </g>
  </g>
</svg>