<?xml version="1.0" encoding="UTF-8"?>
<svg xmlns="http://www.w3.org/2000/svg" width="1245" height="1020" xmlns:xlink="http://www.w3.org/1999/xlink" viewBox="0 0 1245 1020">
  <defs>
    <style>
      .uuid-f1b13859-43ed-4367-a081-62d9987bf197 {
        stroke: #fff;
        stroke-linejoin: bevel;
        stroke-width: 3.3px;
      }

      .uuid-f1b13859-43ed-4367-a081-62d9987bf197, .uuid-5472917d-99b1-411c-a070-792fb59e6089, .uuid-f2f930aa-0602-43d2-a610-18e385f8a64b, .uuid-00ffb431-6dc2-4261-862c-d794d6d59976, .uuid-263d96d1-62ef-4502-a272-92fd5950dc56, .uuid-04a598c8-495f-4275-a8cf-67ae03d8a2dd, .uuid-651566d9-38a3-40c0-add6-c5745ac220e0, .uuid-164c6a42-1605-4ec1-a14e-f71e6a156aca, .uuid-ee99c171-baad-47d8-a5b2-05cf22063ef9, .uuid-971553d2-09e2-4e2c-8427-28de4ebb27f5, .uuid-a52c2e66-dacb-4600-8478-433d2cd4f808, .uuid-1dba825c-7fd1-43e8-a6d3-35b6b988d609, .uuid-341f0e83-a943-4487-9b0b-ca8026fd5df4, .uuid-dc41ba1d-af01-4de9-93d3-f47cb6762340 {
        fill: none;
      }

      .uuid-f1b13859-43ed-4367-a081-62d9987bf197, .uuid-54da1ca3-e641-40ae-97bd-665ff0178b0d {
        font-family: HelveticaNeue-UltraLight, 'Helvetica Neue UltraLight';
        font-size: 13.19px;
        font-weight: 100;
        isolation: isolate;
      }

      .uuid-13a64d55-e128-429d-aa64-7bdb2c5fb479 {
        fill: #006400;
      }

      .uuid-248c21eb-aaa7-4b0d-88a2-2ecfd1e35d48 {
        fill: #fff;
      }

      .uuid-5472917d-99b1-411c-a070-792fb59e6089 {
        stroke: silver;
      }

      .uuid-5472917d-99b1-411c-a070-792fb59e6089, .uuid-f2f930aa-0602-43d2-a610-18e385f8a64b, .uuid-263d96d1-62ef-4502-a272-92fd5950dc56, .uuid-04a598c8-495f-4275-a8cf-67ae03d8a2dd, .uuid-651566d9-38a3-40c0-add6-c5745ac220e0, .uuid-164c6a42-1605-4ec1-a14e-f71e6a156aca, .uuid-1dba825c-7fd1-43e8-a6d3-35b6b988d609, .uuid-341f0e83-a943-4487-9b0b-ca8026fd5df4, .uuid-dc41ba1d-af01-4de9-93d3-f47cb6762340 {
        stroke-linejoin: round;
      }

      .uuid-5472917d-99b1-411c-a070-792fb59e6089, .uuid-651566d9-38a3-40c0-add6-c5745ac220e0 {
        stroke-dasharray: 0 0 1.1 3.3;
        stroke-width: 1.1px;
      }

      .uuid-f2f930aa-0602-43d2-a610-18e385f8a64b {
        stroke: rgba(102, 102, 102, .7);
      }

      .uuid-f2f930aa-0602-43d2-a610-18e385f8a64b, .uuid-263d96d1-62ef-4502-a272-92fd5950dc56, .uuid-04a598c8-495f-4275-a8cf-67ae03d8a2dd, .uuid-164c6a42-1605-4ec1-a14e-f71e6a156aca, .uuid-1dba825c-7fd1-43e8-a6d3-35b6b988d609, .uuid-341f0e83-a943-4487-9b0b-ca8026fd5df4, .uuid-dc41ba1d-af01-4de9-93d3-f47cb6762340 {
        stroke-linecap: round;
        stroke-width: 3.85px;
      }

      .uuid-00ffb431-6dc2-4261-862c-d794d6d59976 {
        clip-path: url(#uuid-e967e5d8-580a-424b-97fc-d0dab7efa9a6);
      }

      .uuid-9aac2db0-de79-463e-b36a-90733aae27bb {
        fill: #930;
      }

      .uuid-a4b20ed8-427f-4864-9e44-1c7f678826ae {
        fill: #c00;
      }

      .uuid-2a5d73fd-a2d3-4259-8842-ad740ba3201b {
        fill: blue;
      }

      .uuid-263d96d1-62ef-4502-a272-92fd5950dc56 {
        stroke: rgba(0, 100, 0, .7);
      }

      .uuid-04a598c8-495f-4275-a8cf-67ae03d8a2dd {
        stroke: rgba(0, 0, 255, .7);
      }

      .uuid-651566d9-38a3-40c0-add6-c5745ac220e0 {
        stroke: rgba(192, 192, 192, .24);
      }

      .uuid-3a73ab99-598a-4b49-8eda-79210f6c32c1 {
        fill: #00699b;
      }

      .uuid-164c6a42-1605-4ec1-a14e-f71e6a156aca {
        stroke: rgba(153, 51, 255, .7);
      }

      .uuid-2c04b731-07a1-4c89-92b5-62a1229e64f4 {
        fill: #f50;
      }

      .uuid-49f74c1c-86c5-4f77-92b3-b738e26539be {
        fill: #93f;
      }

      .uuid-54da1ca3-e641-40ae-97bd-665ff0178b0d, .uuid-071a679b-49e1-4d39-833b-634f0294e1c8 {
        fill: #606060;
      }

      .uuid-971553d2-09e2-4e2c-8427-28de4ebb27f5 {
        clip-path: url(#uuid-f1c9fd54-cc44-49e5-8806-f63af7c4bd72);
      }

      .uuid-071a679b-49e1-4d39-833b-634f0294e1c8 {
        fill-rule: evenodd;
      }

      .uuid-68915709-6147-4708-ac1d-0c0902e53599 {
        fill: #666;
      }

      .uuid-a52c2e66-dacb-4600-8478-433d2cd4f808 {
        stroke: #606060;
        stroke-miterlimit: 10;
        stroke-width: 2.2px;
      }

      .uuid-1dba825c-7fd1-43e8-a6d3-35b6b988d609 {
        stroke: rgba(153, 51, 0, .7);
      }

      .uuid-341f0e83-a943-4487-9b0b-ca8026fd5df4 {
        stroke: rgba(255, 85, 0, .7);
      }

      .uuid-dc41ba1d-af01-4de9-93d3-f47cb6762340 {
        stroke: rgba(204, 0, 0, .7);
      }
    </style>
    <clipPath id="uuid-e967e5d8-580a-424b-97fc-d0dab7efa9a6">
      <rect class="uuid-ee99c171-baad-47d8-a5b2-05cf22063ef9" y="2.61" width="1245" height="1019.39"/>
    </clipPath>
    <clipPath id="uuid-f1c9fd54-cc44-49e5-8806-f63af7c4bd72">
      <rect class="uuid-ee99c171-baad-47d8-a5b2-05cf22063ef9" x="-198.52" y="11.56" width="1642.04" height="996.88"/>
    </clipPath>
  </defs>
  <g id="uuid-ae36107d-7200-4d12-a890-2d403219f0ce" data-name="Grafica">
    <g class="uuid-00ffb431-6dc2-4261-862c-d794d6d59976">
      <g class="uuid-971553d2-09e2-4e2c-8427-28de4ebb27f5">
        <g>
          <rect class="uuid-248c21eb-aaa7-4b0d-88a2-2ecfd1e35d48" x="-198.52" y="11.56" width="1642.04" height="996.88"/>
          <path class="uuid-5472917d-99b1-411c-a070-792fb59e6089" d="m-195.77,12.11v996.88m0-996.88v996.88M-30.91,12.11v996.88M133.95,12.11v996.88M297.72,12.11v996.88M462.58,12.11v996.88M792.31,12.11v996.88M957.17,12.11v996.88M1120.94,12.11v996.88M1285.8,12.11v996.88"/>
          <path class="uuid-651566d9-38a3-40c0-add6-c5745ac220e0" d="m-162.8,12.11v996.88M-129.83,12.11v996.88M-96.86,12.11v996.88M-63.88,12.11v996.88M2.06,12.11v996.88M35.04,12.11v996.88M68.01,12.11v996.88M100.98,12.11v996.88M166.93,12.11v996.88M199.9,12.11v996.88M231.77,12.11v996.88M264.75,12.11v996.88M330.69,12.11v996.88M363.66,12.11v996.88M396.64,12.11v996.88M429.61,12.11v996.88M495.55,12.11v996.88M528.53,12.11v996.88M561.5,12.11v996.88M594.47,12.11v996.88M660.42,12.11v996.88M693.39,12.11v996.88M726.36,12.11v996.88M759.34,12.11v996.88M825.28,12.11v996.88M858.26,12.11v996.88M891.23,12.11v996.88M924.2,12.11v996.88M990.15,12.11v996.88M1023.12,12.11v996.88m31.87-996.88v996.88M1087.97,12.11v996.88M1153.91,12.11v996.88M1186.88,12.11v996.88M1219.86,12.11v996.88M1252.83,12.11v996.88M1318.77,12.11v996.88M1351.75,12.11v996.88M1384.72,12.11v996.88M1417.69,12.11v996.88"/>
          <path class="uuid-5472917d-99b1-411c-a070-792fb59e6089" d="m-197.97,80.26h1642.04m-1642.04,0h1642.04M-197.97,244.02h1642.04M-197.97,408.88h1642.04M-197.97,573.75h1642.04M-197.97,738.61h1642.04"/>
          <path class="uuid-651566d9-38a3-40c0-add6-c5745ac220e0" d="m-197.97,14.31h1642.04m-1642.04,0h1642.04M-197.97,47.28h1642.04M-197.97,112.13h1642.04M-197.97,145.1h1642.04M-197.97,178.07h1642.04M-197.97,211.05h1642.04M-197.97,276.99h1642.04m-1642.04,32.97h1642.04m-1642.04,32.97h1642.04m-1642.04,32.97h1642.04M-197.97,441.86h1642.04m-1642.04,32.97h1642.04m-1642.04,32.97h1642.04m-1642.04,32.97h1642.04m-1642.04,65.95h1642.04m-1642.04,32.97h1642.04m-1642.04,32.97h1642.04m-1642.04,32.97h1642.04m-1642.04,65.95h1642.04m-1642.04,32.97h1642.04m-1642.04,32.97h1642.04m-1642.04,32.97h1642.04m-1642.04,64.85h1642.04m-1642.04,32.97h1642.04m-1642.04,32.97h1642.04"/>
          <path class="uuid-a52c2e66-dacb-4600-8478-433d2cd4f808" d="m628,14.86v993.58"/>
          <path class="uuid-071a679b-49e1-4d39-833b-634f0294e1c8" d="m627.45,13.76l-5.5,21.98h10.99"/>
          <path class="uuid-a52c2e66-dacb-4600-8478-433d2cd4f808" d="m-198.52,902.93h1638.75"/>
          <text class="uuid-54da1ca3-e641-40ae-97bd-665ff0178b0d" transform="translate(125.71 920.51)"><tspan x="0" y="0">–3</tspan></text>
          <text class="uuid-f1b13859-43ed-4367-a081-62d9987bf197" transform="translate(125.71 920.51)"><tspan x="0" y="0">–3</tspan></text>
          <text class="uuid-54da1ca3-e641-40ae-97bd-665ff0178b0d" transform="translate(125.71 920.51)"><tspan x="0" y="0">–3</tspan></text>
          <text class="uuid-54da1ca3-e641-40ae-97bd-665ff0178b0d" transform="translate(290.57 920.51)"><tspan x="0" y="0">–2</tspan></text>
          <text class="uuid-f1b13859-43ed-4367-a081-62d9987bf197" transform="translate(290.57 920.51)"><tspan x="0" y="0">–2</tspan></text>
          <text class="uuid-54da1ca3-e641-40ae-97bd-665ff0178b0d" transform="translate(290.57 920.51)"><tspan x="0" y="0">–2</tspan></text>
          <text class="uuid-54da1ca3-e641-40ae-97bd-665ff0178b0d" transform="translate(455.44 920.51)"><tspan x="0" y="0">–1</tspan></text>
          <text class="uuid-f1b13859-43ed-4367-a081-62d9987bf197" transform="translate(455.44 920.51)"><tspan x="0" y="0">–1</tspan></text>
          <text class="uuid-54da1ca3-e641-40ae-97bd-665ff0178b0d" transform="translate(455.44 920.51)"><tspan x="0" y="0">–1</tspan></text>
          <text class="uuid-54da1ca3-e641-40ae-97bd-665ff0178b0d" transform="translate(788.46 920.51)"><tspan x="0" y="0">1</tspan></text>
          <text class="uuid-f1b13859-43ed-4367-a081-62d9987bf197" transform="translate(788.46 920.51)"><tspan x="0" y="0">1</tspan></text>
          <text class="uuid-54da1ca3-e641-40ae-97bd-665ff0178b0d" transform="translate(788.46 920.51)"><tspan x="0" y="0">1</tspan></text>
          <text class="uuid-54da1ca3-e641-40ae-97bd-665ff0178b0d" transform="translate(953.33 920.51)"><tspan x="0" y="0">2</tspan></text>
          <text class="uuid-f1b13859-43ed-4367-a081-62d9987bf197" transform="translate(953.33 920.51)"><tspan x="0" y="0">2</tspan></text>
          <text class="uuid-54da1ca3-e641-40ae-97bd-665ff0178b0d" transform="translate(953.33 920.51)"><tspan x="0" y="0">2</tspan></text>
          <text class="uuid-54da1ca3-e641-40ae-97bd-665ff0178b0d" transform="translate(1118.19 920.51)"><tspan x="0" y="0">3</tspan></text>
          <text class="uuid-f1b13859-43ed-4367-a081-62d9987bf197" transform="translate(1118.19 920.51)"><tspan x="0" y="0">3</tspan></text>
          <text class="uuid-54da1ca3-e641-40ae-97bd-665ff0178b0d" transform="translate(1118.19 920.51)"><tspan x="0" y="0">3</tspan></text>
          <text class="uuid-54da1ca3-e641-40ae-97bd-665ff0178b0d" transform="translate(611.51 743.56)"><tspan x="0" y="0">1</tspan></text>
          <text class="uuid-f1b13859-43ed-4367-a081-62d9987bf197" transform="translate(611.51 743.56)"><tspan x="0" y="0">1</tspan></text>
          <text class="uuid-54da1ca3-e641-40ae-97bd-665ff0178b0d" transform="translate(611.51 743.56)"><tspan x="0" y="0">1</tspan></text>
          <text class="uuid-54da1ca3-e641-40ae-97bd-665ff0178b0d" transform="translate(611.51 578.69)"><tspan x="0" y="0">2</tspan></text>
          <text class="uuid-f1b13859-43ed-4367-a081-62d9987bf197" transform="translate(611.51 578.69)"><tspan x="0" y="0">2</tspan></text>
          <text class="uuid-54da1ca3-e641-40ae-97bd-665ff0178b0d" transform="translate(611.51 578.69)"><tspan x="0" y="0">2</tspan></text>
          <text class="uuid-54da1ca3-e641-40ae-97bd-665ff0178b0d" transform="translate(611.51 413.83)"><tspan x="0" y="0">3</tspan></text>
          <text class="uuid-f1b13859-43ed-4367-a081-62d9987bf197" transform="translate(611.51 413.83)"><tspan x="0" y="0">3</tspan></text>
          <text class="uuid-54da1ca3-e641-40ae-97bd-665ff0178b0d" transform="translate(611.51 413.83)"><tspan x="0" y="0">3</tspan></text>
          <text class="uuid-54da1ca3-e641-40ae-97bd-665ff0178b0d" transform="translate(611.51 248.96)"><tspan x="0" y="0">4</tspan></text>
          <text class="uuid-f1b13859-43ed-4367-a081-62d9987bf197" transform="translate(611.51 248.96)"><tspan x="0" y="0">4</tspan></text>
          <text class="uuid-54da1ca3-e641-40ae-97bd-665ff0178b0d" transform="translate(611.51 248.96)"><tspan x="0" y="0">4</tspan></text>
          <text class="uuid-54da1ca3-e641-40ae-97bd-665ff0178b0d" transform="translate(611.51 85.2)"><tspan x="0" y="0">5</tspan></text>
          <text class="uuid-f1b13859-43ed-4367-a081-62d9987bf197" transform="translate(611.51 85.2)"><tspan x="0" y="0">5</tspan></text>
          <text class="uuid-54da1ca3-e641-40ae-97bd-665ff0178b0d" transform="translate(611.51 85.2)"><tspan x="0" y="0">5</tspan></text>
          <text class="uuid-54da1ca3-e641-40ae-97bd-665ff0178b0d" transform="translate(611.51 920.51)"><tspan x="0" y="0">0</tspan></text>
          <text class="uuid-f1b13859-43ed-4367-a081-62d9987bf197" transform="translate(611.51 920.51)"><tspan x="0" y="0">0</tspan></text>
          <text class="uuid-54da1ca3-e641-40ae-97bd-665ff0178b0d" transform="translate(611.51 920.51)"><tspan x="0" y="0">0</tspan></text>
          <path class="uuid-341f0e83-a943-4487-9b0b-ca8026fd5df4" d="m1440.71-1.63H453.16l.08.71h0l1.1,9.66h0l1.1,9.56h0l1.1,9.45h0l1.1,9.35h0l1.1,9.25h0l1.1,9.15h0l1.1,9.06h0l1.1,8.96h0l1.1,8.86h0l1.1,8.77h0l1.1,8.68h0l1.1,8.58h0l1.1,8.49h0l1.1,8.4h0l1.1,8.31h0l1.1,8.22h0l1.1,8.13h0l1.1,8.05h0l1.1,7.96h0l1.1,7.88h0l1.1,7.79h0l1.1,7.71h0l1.1,7.63h0l1.1,7.54h0l1.1,7.46h0l1.1,7.38h0l1.1,7.31h0l1.1,7.23h0l1.1,7.15h0l1.1,7.07h0l1.1,7h0l1.1,6.92h0l1.1,6.85h0l1.1,6.78h0l1.1,6.7h0l1.1,6.63h0l1.1,6.56h0l1.1,6.49h0l1.1,6.42h0l1.1,6.35h0l1.1,6.28h0l1.1,6.22h0l1.1,6.15h0l1.1,6.09h0l1.1,6.02h0l1.1,5.96h0l1.1,5.89h0l1.1,5.83h0l1.1,5.77h0l1.1,5.71h0l1.1,5.64h0l1.1,5.58h0l1.1,5.52h0l1.1,5.47h0l1.1,5.41h0l1.1,5.35h0l1.1,5.29h0l1.1,5.24h0l1.1,5.18h0l1.1,5.12h0l1.1,5.07h0l1.1,5.02h0l1.1,4.96h0l1.1,4.91h0l1.1,4.86h0l1.1,4.8h0l1.1,4.75h0l1.1,4.7h0l1.1,4.65h0l1.1,4.6h0l1.1,4.55h0l1.1,4.5h0l1.1,4.46h0l1.1,4.41h0l1.1,4.36h0l1.1,4.32h0l1.1,4.27h0l1.1,4.22h0l1.1,4.18h0l1.1,4.13h0l1.1,4.09h0l1.1,4.05h0l1.1,4h0l1.1,3.96h0l1.1,3.92h0l1.1,3.88h0l1.1,3.83h0l1.1,3.79h0l1.1,3.75h0l1.1,3.71h0l1.1,3.67h0l1.1,3.63h0l1.1,3.59h0l1.1,3.56h0l1.1,3.52h0l1.1,3.48h0l1.1,3.44h0l1.1,3.41h0l1.1,3.37h0l1.1,3.33h0l1.1,3.3h0l1.1,3.26h0l1.1,3.23h0l1.1,3.19h0l1.1,3.16h0l1.1,3.13h0l1.1,3.09h0l1.1,3.06h0l1.1,3.03h0l1.1,2.99h0l1.1,2.96h0l1.1,2.93h0l1.1,2.9h0l1.1,2.87h0l1.1,2.84h0l1.1,2.81h0l1.1,2.78h0l1.1,2.75h0l1.1,2.72h0l1.1,2.69h0l1.1,2.66h0l1.1,2.63h0l1.1,2.6h0l1.1,2.58h0l1.1,2.55h0l1.1,2.52h0l1.1,2.49h0l1.1,2.47h0l1.1,2.44h0l1.1,2.42h0l1.1,2.39h0l1.1,2.36h0l1.1,2.34h0l1.1,2.31h0l1.1,2.29h0l1.1,2.26h0l1.1,2.24h0l1.1,2.22h0l1.1,2.19h0l1.1,2.17h0l1.1,2.15h0l1.1,2.12h0l1.1,2.1h0l1.1,2.08h0l1.1,2.06h0l1.1,2.03h0l1.1,2.01h0l1.1,1.99h0l1.1,1.97h0l1.1,1.95h0l1.1,1.93h0l1.1,1.91h0l1.1,1.89h0l1.1,1.87h0l1.1,1.85h0l1.1,1.83h0l1.1,1.81h0l1.1,1.79h0l1.1,1.77h0l1.1,1.75h0l1.1,1.73h0l1.1,1.71h0l1.1,1.69h0l1.1,1.68h0l1.1,1.66h0l1.1,1.64h0l1.1,1.62h0l1.1,1.61h0l1.1,1.59h0l1.1,1.57h0l1.1,1.55h0l1.1,1.54h0l1.1,1.52h0l1.1,1.51h0l1.1,1.49h0l1.1,1.47h0l1.1,1.46h0l1.1,1.44h0l1.1,1.43h0l1.1,1.41h0l1.1,1.4h0l1.1,1.38h0l1.1,1.37h0l1.1,1.35h0l1.1,1.34h0l1.1,1.32h0l1.1,1.31h0l1.1,1.3h0l1.1,1.28h0l1.1,1.27h0l1.1,1.25h0l1.1,1.24h0l1.1,1.23h0l1.1,1.21h0l1.1,1.2h0l1.1,1.19h0l1.1,1.18h0l1.1,1.16h0l1.1,1.15h0l1.1,1.14h0l1.1,1.13h0l1.1,1.11h0l1.1,1.1h0l1.1,1.09h0l1.1,1.08h0l1.1,1.07h0l1.1,1.06h0l1.1,1.04h0l1.1,1.03h0l1.1,1.02h0l1.1,1.01h0l1.1,1h0l1.1.99h0l1.1.98h0l1.1.97h0l1.1.96h0l1.1.95h0l1.1.94h0l1.1.93h0l1.1.92h0l1.1.91h0l1.1.9h0l1.1.89h0l1.1.88h0l1.1.87h0l1.1.86h0l1.1.85h0l1.1.84h0l1.1.83h0l1.1.82h0l1.1.82h0l1.1.81h0l1.1.8h0l1.1.79h0l1.1.78h0l1.1.77h0l1.1.77h0l1.1.76h0l1.1.75h0l1.1.74h0l1.1.73h0l1.1.73h0l1.1.72h0l1.1.71h0l1.1.7h0l1.1.69h0l1.1.69h0l1.1.68h0l1.1.67h0l1.1.67h0l1.1.66h0l1.1.65h0l1.1.64h0l1.1.64h0l1.1.63h0l1.1.62h0l1.1.62h0l1.1.61h0l1.1.6h0l1.1.6h0l1.1.59h0l1.1.58h0l1.1.58h0l1.1.57h0l1.1.57h0l1.1.56h0l1.1.55h0l1.1.55h0l1.1.54h0l1.1.54h0l1.1.53h0l1.1.53h0l1.1.52h0l1.1.51h0l1.1.51h0l1.1.5h0l1.1.5h0l1.1.49h0l1.1.49h0l1.1.48h0l1.1.48h0l1.1.47h0l1.1.47h0l1.1.46h0l1.1.46h0l1.1.45h0l1.1.45h0l1.1.44h0l1.1.44h0l1.1.43h0l1.1.43h0l1.1.42h0l1.1.42h0l1.1.41h0l1.1.41h0l1.1.41h0l1.1.4h0l1.1.4h0l1.1.39h0l1.1.39h0l1.1.38h0l1.1.38h0l1.1.38h0l1.1.37h0l1.1.37h0l1.1.36h0l1.1.36h0l1.1.36h0l1.1.35h0l1.1.35h0l1.1.35h0l1.1.34h0l1.1.34h0l1.1.33h0l1.1.33h0l1.1.33h0l1.1.32h0l1.1.32h0l1.1.32h0l1.1.31h0l1.1.31h0l1.1.31h0l1.1.3h0l1.1.3h0l1.1.3h0l1.1.29h0l1.1.29h0l1.1.29h0l1.1.28h0l1.1.28h0l1.1.28h0l1.1.28h0l1.1.27h0l1.1.27h0l1.1.27h0l1.1.26h0l1.1.26h0l1.1.26h0l1.1.26h0l1.1.25h0l1.1.25h0l1.1.25h0l1.1.24h0l1.1.24h0l1.1.24h0l1.1.24h0l1.1.23h0l1.1.23h0l1.1.23h0l1.1.23h0l1.1.22h0l1.1.22h0l1.1.22h0l1.1.22h0l1.1.22h0l1.1.21h0l1.1.21h0l1.1.21h0l1.1.21h0l1.1.2h0l1.1.2h0l1.1.2h0l1.1.2h0l1.1.2h0l1.1.19h0l1.1.19h0l1.1.19h0l1.1.19h0l1.1.19h0l1.1.18h0l1.1.18h0l1.1.18h0l1.1.18h0l1.1.18h0l1.1.17h0l1.1.17h0l1.1.17h0l1.1.17h0l1.1.17h0l1.1.16h0l1.1.16h0l1.1.16h0l1.1.16h0l1.1.16h0l1.1.16h0l1.1.15h0l1.1.15h0l1.1.15h0l1.1.15h0l1.1.15h0l1.1.15h0l1.1.14h0l1.1.14h0l1.1.14h0l1.1.14h0l1.1.14h0l1.1.14h0l1.1.14h0l1.1.13h0l1.1.13h0l1.1.13h0l1.1.13h0l1.1.13h0l1.1.13h0l1.1.13h0l1.1.12h0l1.1.12h0l1.1.12h0l1.1.12h0l1.1.12h0l1.1.12h0l1.1.12h0l1.1.12h0l1.1.11h0l1.1.11h0l1.1.11h0l1.1.11h0l1.1.11h0l1.1.11h0l1.1.11h0l1.1.11h0l1.1.1h0l1.1.1h0l1.1.1h0l1.1.1h0l1.1.1h0l1.1.1h0l1.1.1h0l1.1.1h0l1.1.1h0l1.1.1h0l1.1.09h0l1.1.09h0l1.1.09h0l1.1.09h0l1.1.09h0l1.1.09h0l1.1.09h0l1.1.09h0l1.1.09h0l1.1.09h0l1.1.08h0l1.1.08h0l1.1.08h0l1.1.08h0l1.1.08h0l1.1.08h0l1.1.08h0l1.1.08h0l1.1.08h0l1.1.08h0l1.1.08h0l1.1.08h0l1.1.07h0l1.1.07h0l1.1.07h0l1.1.07h0l1.1.07h0l1.1.07h0l1.1.07h0l1.1.07h0l1.1.07h0l1.1.07h0l1.1.07h0l1.1.07h0l1.1.07h0l1.1.06h0l1.1.06h0l1.1.06h0l1.1.06h0l1.1.06h0l1.1.06h0l1.1.06h0l1.1.06h0l1.1.06h0l1.1.06h0l1.1.06h0l1.1.06h0l1.1.06h0l1.1.06h0l1.1.06h0l1.1.06h0l1.1.05h0l1.1.05h0l1.1.05h0l1.1.05h0l1.1.05h0l1.1.05h0l1.1.05h0l1.1.05h0l1.1.05h0l1.1.05h0l1.1.05h0l1.1.05h0l1.1.05h0l1.1.05h0l1.1.05h0l1.1.05h0l1.1.05h0l1.1.05h0l1.1.04h0l1.1.04h0l1.1.04h0l1.1.04h0l1.1.04h0l1.1.04h0l1.1.04h0l1.1.04h0l1.1.04h0l1.1.04h0l1.1.04h0l1.1.04h0l1.1.04h0l1.1.04h0l1.1.04h0l1.1.04h0l1.1.04h0l1.1.04h0l1.1.04h0l1.1.04h0l1.1.04h0l1.1.04h0l1.1.04h0l1.1.04h0l1.1.03h0l1.1.03h0l1.1.03h0l1.1.03h0l1.1.03h0l1.1.03h0l1.1.03h0l1.1.03h0l1.1.03h0l1.1.03h0l1.1.03h0l1.1.03h0l1.1.03h0l1.1.03h0l1.1.03h0l1.1.03h0l1.1.03h0l1.1.03h0l1.1.03h0l1.1.03h0l1.1.03h0l1.1.03h0l1.1.03h0l1.1.03h0l1.1.03h0l1.1.03h0l1.1.03h0l1.1.03h0l1.1.03h0l1.1.03h0l1.1.03h0l1.1.02h0l1.1.02h0l1.1.02h0l1.1.02h0l1.1.02h0l1.1.02h0l1.1.02h0l1.1.02h0l1.1.02h0l1.1.02h0l1.1.02h0l1.1.02h0l1.1.02h0l1.1.02h0l1.1.02h0l1.1.02h0l1.1.02h0l1.1.02h0l1.1.02h0l1.1.02h0l1.1.02h0l1.1.02h0l1.1.02h0l1.1.02h0l1.1.02h0l1.1.02h0l1.1.02h0l1.1.02h0l1.1.02h0l1.1.02h0l1.1.02h0l1.1.02h0l1.1.02h0l1.1.02h0l1.1.02h0l1.1.02h0l1.1.02h0l1.1.02h0l1.1.02h0l1.1.02h0l1.1.02h0l1.1.02h0l1.1.02h0l1.1.02h0l1.1.02h0l1.1.02h0l1.1.02h1.1s1.1.03,1.1.03h1.1s1.1.03,1.1.03h1.1s1.1.03,1.1.03h1.1s1.1.03,1.1.03h1.1s1.1.03,1.1.03h1.1s1.1.03,1.1.03h1.1s1.1.03,1.1.03h1.1s1.1.03,1.1.03h1.1s1.1.03,1.1.03h1.1s1.1.02,1.1.02h1.1s1.1.02,1.1.02h1.1s1.1.02,1.1.02h1.1s1.1.02,1.1.02h1.1s1.1.02,1.1.02h1.1s1.1.02,1.1.02h1.1s1.1.02,1.1.02h1.1s1.1.02,1.1.02h1.1s1.1.02,1.1.02h1.1s1.1.02,1.1.02h1.1s1.1.02,1.1.02h1.1s1.1.02,1.1.02h1.1s1.1.02,1.1.02h1.1s1.1.02,1.1.02h1.1s1.1.02,1.1.02h1.1s1.1.02,1.1.02h1.1s1.1.02,1.1.02h1.1s1.1.02,1.1.02h1.1s1.1.02,1.1.02h1.1s1.1.02,1.1.02h1.1s1.1.02,1.1.02h1.1s1.1.02,1.1.02h1.1s1.1.02,1.1.02h1.1s1.1.02,1.1.02h1.1s1.1.01,1.1.01h1.1s1.1.01,1.1.01h1.1s1.1.01,1.1.01h1.1s1.1.01,1.1.01h1.1s1.1.01,1.1.01h1.1s1.1.01,1.1.01h1.1s1.1.01,1.1.01h1.1s1.1.01,1.1.01h1.1s1.1.01,1.1.01h1.1s1.1.01,1.1.01h1.1s1.1.01,1.1.01h1.1s1.1.01,1.1.01h1.1s1.1.01,1.1.01h1.1s1.1.01,1.1.01h1.1s1.1.01,1.1.01h1.1s1.1.01,1.1.01h1.1s1.1.01,1.1.01h1.1s1.1.01,1.1.01h1.1s1.1,0,1.1,0h1.1s1.1,0,1.1,0h1.1s1.1,0,1.1,0h1.1s1.1,0,1.1,0h1.1s1.1,0,1.1,0h1.1s1.1,0,1.1,0h1.1s1.1,0,1.1,0h1.1s1.1,0,1.1,0h1.1s1.1,0,1.1,0h1.1s1.1,0,1.1,0h1.1s1.1,0,1.1,0h1.1s1.1,0,1.1,0h1.1s1.1,0,1.1,0h1.1s1.1,0,1.1,0h1.1s1.1,0,1.1,0h1.1s1.1,0,1.1,0h1.1s1.1,0,1.1,0h1.1s1.1,0,1.1,0h1.1s1.1,0,1.1,0h1.1s1.1,0,1.1,0h1.1s1.1,0,1.1,0h1.1s1.1,0,1.1,0h1.1s1.1,0,1.1,0h1.1s1.1,0,1.1,0h1.1s1.1,0,1.1,0h1.1s1.1,0,1.1,0h1.1s1.1,0,1.1,0h1.1s1.1,0,1.1,0h1.1s1.1,0,1.1,0h1.1s1.1,0,1.1,0h1.1s1.1,0,1.1,0h1.1s1.1,0,1.1,0h1.1s1.1,0,1.1,0h1.1s1.1,0,1.1,0h1.1s1.1,0,1.1,0h1.1s1.1,0,1.1,0h1.1s1.1,0,1.1,0h1.1s1.1,0,1.1,0h1.1s1.1,0,1.1,0h1.1s1.1,0,1.1,0h1.1s1.1,0,1.1,0h1.1s1.1,0,1.1,0h1.1s1.1,0,1.1,0h1.1s1.1,0,1.1,0h1.1s1.1,0,1.1,0h1.1s1.1,0,1.1,0h1.1s1.1,0,1.1,0h1.1s1.1,0,1.1,0h1.1s1.1,0,1.1,0h1.1s1.1,0,1.1,0h1.1s1.1,0,1.1,0h1.1s1.1,0,1.1,0h1.1s1.1,0,1.1,0h1.1s1.1,0,1.1,0h1.1s1.1,0,1.1,0h1.1s1.1,0,1.1,0h1.1s1.1,0,1.1,0h1.1s1.1,0,1.1,0h1.1s1.1,0,1.1,0h1.1s1.1,0,1.1,0h1.1s1.1,0,1.1,0h1.1s1.1,0,1.1,0h1.1s1.1,0,1.1,0h1.1s1.1,0,1.1,0h1.1s1.1,0,1.1,0h1.1s1.1,0,1.1,0h1.1s1.1,0,1.1,0h1.1s1.1,0,1.1,0h1.1s1.1,0,1.1,0h1.1s1.1,0,1.1,0h1.1s1.1,0,1.1,0h1.1s1.1,0,1.1,0h1.1s1.1,0,1.1,0h1.1s1.1,0,1.1,0h1.1s1.1,0,1.1,0h1.1s1.1,0,1.1,0h1.1s1.1,0,1.1,0h1.1s1.1,0,1.1,0h1.1s1.1,0,1.1,0h1.1s1.1,0,1.1,0h1.1s1.1,0,1.1,0h1.1s1.1,0,1.1,0h1.1s1.1,0,1.1,0h1.1s1.1,0,1.1,0h1.1s1.1,0,1.1,0h1.1s1.1,0,1.1,0h1.1s1.1,0,1.1,0h1.1s1.1,0,1.1,0h1.1s1.1,0,1.1,0h1.1s1.1,0,1.1,0h1.1s1.1,0,1.1,0h1.1s1.1,0,1.1,0h1.1s1.1,0,1.1,0h1.1s1.1,0,1.1,0h1.1s1.1,0,1.1,0h1.1s1.1,0,1.1,0h1.1s1.1,0,1.1,0h1.1s1.1,0,1.1,0h1.1"/>
          <g>
            <path class="uuid-2c04b731-07a1-4c89-92b5-62a1229e64f4" d="m395.75,169.54c-2.7-2.39-5.02-5.12-6.96-8.18s-3.48-6.29-4.65-9.69-2.02-6.92-2.56-10.55c-.54-3.63-.81-7.31-.81-11.04s.27-7.44.81-11.08c.54-3.64,1.39-7.16,2.55-10.55,1.16-3.39,2.72-6.62,4.65-9.68,1.94-3.06,4.26-5.79,6.96-8.19,0-.04.05-.06.16-.06h.85c.06,0,.13.03.19.1s.09.13.09.21c0,.09-.02.15-.06.19-2.51,2.48-4.63,5.24-6.37,8.28-1.73,3.04-3.11,6.24-4.13,9.6-1.02,3.36-1.75,6.81-2.18,10.35s-.65,7.16-.65,10.85.21,7.27.64,10.76,1.16,6.94,2.19,10.34,2.42,6.62,4.15,9.66,3.85,5.8,6.34,8.28c.04.04.06.11.06.19,0,.06-.03.13-.1.19s-.12.1-.18.1h-.85c-.11,0-.16-.02-.16-.06Z"/>
            <path class="uuid-2c04b731-07a1-4c89-92b5-62a1229e64f4" d="m409.95,94.91v18.5c0,.66.13,1.08.4,1.25.37.22,1.26.33,2.67.33h1.06v1.02c-.77-.07-2.55-.1-5.34-.1-2.79,0-4.57.03-5.34.1v-1.02h1.06c1.69,0,2.66-.2,2.9-.59l.03-.03c.09-.18.13-.49.13-.96v-17.08c-1.14.57-2.58.86-4.32.86v-1.02c2.64,0,4.64-.7,6-2.11.42,0,.66.08.73.23h0v.03c.02.07.03.26.03.59Z"/>
            <rect class="uuid-2c04b731-07a1-4c89-92b5-62a1229e64f4" x="400.26" y="129.41" width="16.49" height="1.32"/>
            <path class="uuid-2c04b731-07a1-4c89-92b5-62a1229e64f4" d="m415.06,154.31h0c0,2.26-.85,4.13-2.54,5.61-1.36,1.17-2.91,1.75-4.65,1.75-2.02,0-3.63-.85-4.81-2.54-.77-1.08-1.15-2.24-1.15-3.5,0-1.01.45-1.58,1.35-1.71.09-.02.18-.03.26-.03.81,0,1.34.36,1.58,1.09.04.18.07.35.07.53,0,.7-.31,1.19-.92,1.45-.22.11-.46.16-.73.16-.24,0-.43-.02-.56-.07.4,1.38,1.24,2.42,2.54,3.1.73.4,1.49.59,2.31.59,1.47,0,2.65-.71,3.53-2.14.53-.92.79-2.43.79-4.52,0-1.85-.2-3.23-.59-4.15-.62-1.41-1.55-2.11-2.8-2.11-1.78,0-3.2.77-4.25,2.31-.13.2-.27.3-.43.3-.29,0-.44-.15-.46-.46v-10.16c0-.51.11-.77.33-.79.09,0,.22.03.4.1,1.38.62,2.85.92,4.39.92s3.08-.32,4.48-.96c.11-.07.2-.1.26-.1.22,0,.33.12.33.36,0,.29-.35.75-1.06,1.38-1.49,1.36-3.26,2.04-5.31,2.04-.92,0-1.86-.14-2.8-.43v6.43c1.14-1.12,2.54-1.68,4.19-1.68,1.93,0,3.53.85,4.78,2.54.99,1.34,1.48,2.9,1.48,4.68Z"/>
            <path class="uuid-2c04b731-07a1-4c89-92b5-62a1229e64f4" d="m420.24,169.6c-.19,0-.29-.1-.29-.29,0-.09.02-.15.06-.19,2.51-2.48,4.63-5.24,6.36-8.28,1.73-3.04,3.1-6.24,4.12-9.6s1.75-6.78,2.18-10.29c.43-3.5.65-7.14.65-10.91s-.22-7.45-.65-10.93-1.16-6.89-2.17-10.22c-1.01-3.34-2.39-6.54-4.14-9.6-1.75-3.06-3.87-5.83-6.36-8.28-.04-.04-.06-.11-.06-.19,0-.2.1-.31.29-.31h.85c.08,0,.13.02.18.06,2.72,2.4,5.04,5.14,6.97,8.2,1.93,3.06,3.48,6.3,4.64,9.7,1.16,3.4,2,6.92,2.53,10.55.53,3.63.79,7.31.79,11.06s-.26,7.4-.79,11.01c-.53,3.62-1.37,7.13-2.53,10.54s-2.7,6.64-4.64,9.71-4.26,5.8-6.97,8.2c-.04.04-.1.06-.18.06h-.85Z"/>
            <path class="uuid-2c04b731-07a1-4c89-92b5-62a1229e64f4" d="m450.8,92.45l-.78,3.16c-.26,1.05-.39,1.72-.39,2.03,0,.8.28,1.28.85,1.45.12.05.26.07.42.07.77,0,1.47-.38,2.1-1.15.42-.49.74-1.12.97-1.87.05-.17.15-.25.3-.25.18,0,.28.08.28.23,0,.38-.24.94-.72,1.66-.83,1.26-1.82,1.89-2.98,1.89-1.05,0-1.81-.44-2.29-1.32-.09-.14-.16-.28-.21-.44-.37.74-.88,1.25-1.52,1.55-.29.14-.59.21-.9.21-.92,0-1.57-.27-1.94-.81-.15-.2-.23-.44-.23-.72,0-.57.25-.97.74-1.2.17-.09.35-.14.53-.14.46,0,.74.19.83.58.02.08.02.15.02.23,0,.52-.26.91-.78,1.15-.09.05-.19.08-.3.09.32.2.71.3,1.15.3.82,0,1.46-.55,1.94-1.64.09-.23.18-.48.25-.76.83-3.14,1.25-4.97,1.25-5.49-.09-.95-.51-1.47-1.25-1.55-.8,0-1.53.41-2.19,1.22v.02s0,.02-.02.02c-.23.31-.44.66-.62,1.06-.08.18-.15.37-.21.55l-.05.14c-.03.17-.13.25-.3.25-.18,0-.28-.08-.28-.23,0-.38.25-.94.74-1.66.83-1.26,1.82-1.89,2.98-1.89s2.02.58,2.49,1.75c.49-.95,1.15-1.52,1.96-1.71.15-.03.31-.05.46-.05.91,0,1.55.25,1.92.76.15.22.23.47.23.76,0,.63-.28,1.05-.85,1.27-.14.05-.27.07-.39.07-.48,0-.76-.21-.85-.62-.02-.06-.02-.12-.02-.18,0-.46.22-.82.67-1.08.14-.08.28-.13.44-.16-.32-.2-.71-.3-1.15-.3-1.05,0-1.78.82-2.22,2.45-.03.09-.05.18-.07.28Z"/>
          </g>
          <path class="uuid-164c6a42-1605-4ec1-a14e-f71e6a156aca" d="m-197.42-4426.91v24.61h0l1.1,24.49h0l1.1,24.38h0l1.1,24.27h0l1.1,24.15h0l1.1,24.04h0l1.1,23.93h0l1.1,23.82h0l1.1,23.71h0l1.1,23.6h0l1.1,23.49h0l1.1,23.38h0l1.1,23.28h0l1.1,23.17h0l1.1,23.06h0l1.1,22.96h0l1.1,22.85h0l1.1,22.74h0l1.1,22.64h0l1.1,22.53h0l1.1,22.43h0l1.1,22.33h0l1.1,22.22h0l1.1,22.12h0l1.1,22.02h0l1.1,21.92h0l1.1,21.82h0l1.1,21.72h0l1.1,21.62h0l1.1,21.52h0l1.1,21.42h0l1.1,21.32h0l1.1,21.22h0l1.1,21.12h0l1.1,21.02h0l1.1,20.93h0l1.1,20.83h0l1.1,20.73h0l1.1,20.64h0l1.1,20.54h0l1.1,20.45h0l1.1,20.35h0l1.1,20.26h0l1.1,20.17h0l1.1,20.07h0l1.1,19.98h0l1.1,19.89h0l1.1,19.8h0l1.1,19.7h0l1.1,19.61h0l1.1,19.52h0l1.1,19.43h0l1.1,19.34h0l1.1,19.25h0l1.1,19.17h0l1.1,19.08h0l1.1,18.99h0l1.1,18.9h0l1.1,18.81h0l1.1,18.73h0l1.1,18.64h0l1.1,18.55h0l1.1,18.47h0l1.1,18.38h0l1.1,18.3h0l1.1,18.21h0l1.1,18.13h0l1.1,18.05h0l1.1,17.96h0l1.1,17.88h0l1.1,17.8h0l1.1,17.72h0l1.1,17.63h0l1.1,17.55h0l1.1,17.47h0l1.1,17.39h0l1.1,17.31h0l1.1,17.23h0l1.1,17.15h0l1.1,17.07h0l1.1,16.99h0l1.1,16.91h0l1.1,16.84h0l1.1,16.76h0l1.1,16.68h0l1.1,16.6h0l1.1,16.53h0l1.1,16.45h0l1.1,16.38h0l1.1,16.3h0l1.1,16.22h0l1.1,16.15h0l1.1,16.07h0l1.1,16h0l1.1,15.93h0l1.1,15.85h0l1.1,15.78h0l1.1,15.71h0l1.1,15.63h0l1.1,15.56h0l1.1,15.49h0l1.1,15.42h0l1.1,15.35h0l1.1,15.28h0l1.1,15.21h0l1.1,15.14h0l1.1,15.07h0l1.1,15h0l1.1,14.93h0l1.1,14.86h0l1.1,14.79h0l1.1,14.72h0l1.1,14.65h0l1.1,14.59h0l1.1,14.52h0l1.1,14.45h0l1.1,14.39h0l1.1,14.32h0l1.1,14.25h0l1.1,14.19h0l1.1,14.12h0l1.1,14.06h0l1.1,13.99h0l1.1,13.93h0l1.1,13.86h0l1.1,13.8h0l1.1,13.73h0l1.1,13.67h0l1.1,13.61h0l1.1,13.55h0l1.1,13.48h0l1.1,13.42h0l1.1,13.36h0l1.1,13.3h0l1.1,13.24h0l1.1,13.17h0l1.1,13.11h0l1.1,13.05h0l1.1,12.99h0l1.1,12.93h0l1.1,12.87h0l1.1,12.81h0l1.1,12.75h0l1.1,12.7h0l1.1,12.64h0l1.1,12.58h0l1.1,12.52h0l1.1,12.46h0l1.1,12.41h0l1.1,12.35h0l1.1,12.29h0l1.1,12.23h0l1.1,12.18h0l1.1,12.12h0l1.1,12.07h0l1.1,12.01h0l1.1,11.95h0l1.1,11.9h0l1.1,11.84h0l1.1,11.79h0l1.1,11.74h0l1.1,11.68h0l1.1,11.63h0l1.1,11.57h0l1.1,11.52h0l1.1,11.47h0l1.1,11.41h0l1.1,11.36h0l1.1,11.31h0l1.1,11.26h0l1.1,11.2h0l1.1,11.15h0l1.1,11.1h0l1.1,11.05h0l1.1,11h0l1.1,10.95h0l1.1,10.9h0l1.1,10.85h0l1.1,10.8h0l1.1,10.75h0l1.1,10.7H.41l1.1,10.65h0l1.1,10.6h0l1.1,10.55h0l1.1,10.5h0l1.1,10.45h0l1.1,10.41h0l1.1,10.36h0l1.1,10.31h0l1.1,10.26h0l1.1,10.21h0l1.1,10.17h0l1.1,10.12h0l1.1,10.07h0l1.1,10.03h0l1.1,9.98h0l1.1,9.93h0l1.1,9.89h0l1.1,9.84h0l1.1,9.8h0l1.1,9.75h0l1.1,9.71h0l1.1,9.66h0l1.1,9.62h0l1.1,9.57h0l1.1,9.53h0l1.1,9.49h0l1.1,9.44h0l1.1,9.4h0l1.1,9.35h0l1.1,9.31h0l1.1,9.27h0l1.1,9.23h0l1.1,9.18h0l1.1,9.14h0l1.1,9.1h0l1.1,9.06h0l1.1,9.01h0l1.1,8.97h0l1.1,8.93h0l1.1,8.89h0l1.1,8.85h0l1.1,8.81h0l1.1,8.77h0l1.1,8.73h0l1.1,8.69h0l1.1,8.65h0l1.1,8.61h0l1.1,8.57h0l1.1,8.53h0l1.1,8.49h0l1.1,8.45h0l1.1,8.41h0l1.1,8.37h0l1.1,8.33h0l1.1,8.29h0l1.1,8.26h0l1.1,8.22h0l1.1,8.18h0l1.1,8.14h0l1.1,8.1h0l1.1,8.07h0l1.1,8.03h0l1.1,7.99h0l1.1,7.96h0l1.1,7.92h0l1.1,7.88h0l1.1,7.85h0l1.1,7.81h0l1.1,7.77h0l1.1,7.74h0l1.1,7.7h0l1.1,7.67h0l1.1,7.63h0l1.1,7.6h0l1.1,7.56h0l1.1,7.53h0l1.1,7.49h0l1.1,7.46h0l1.1,7.42h0l1.1,7.39h0l1.1,7.35h0l1.1,7.32h0l1.1,7.29h0l1.1,7.25h0l1.1,7.22h0l1.1,7.19h0l1.1,7.15h0l1.1,7.12h0l1.1,7.09h0l1.1,7.05h0l1.1,7.02h0l1.1,6.99h0l1.1,6.96h0l1.1,6.92h0l1.1,6.89h0l1.1,6.86h0l1.1,6.83h0l1.1,6.8h0l1.1,6.77h0l1.1,6.74h0l1.1,6.7h0l1.1,6.67h0l1.1,6.64h0l1.1,6.61h0l1.1,6.58h0l1.1,6.55h0l1.1,6.52h0l1.1,6.49h0l1.1,6.46h0l1.1,6.43h0l1.1,6.4h0l1.1,6.37h0l1.1,6.34h0l1.1,6.31h0l1.1,6.28h0l1.1,6.25h0l1.1,6.23h0l1.1,6.2h0l1.1,6.17h0l1.1,6.14h0l1.1,6.11h0l1.1,6.08h0l1.1,6.06h0l1.1,6.03h0l1.1,6h0l1.1,5.97h0l1.1,5.94h0l1.1,5.92h0l1.1,5.89h0l1.1,5.86h0l1.1,5.84h0l1.1,5.81h0l1.1,5.78h0l1.1,5.75h0l1.1,5.73h0l1.1,5.7h0l1.1,5.68h0l1.1,5.65h0l1.1,5.62h0l1.1,5.6h0l1.1,5.57h0l1.1,5.55h0l1.1,5.52h0l1.1,5.49h0l1.1,5.47h0l1.1,5.44h0l1.1,5.42h0l1.1,5.39h0l1.1,5.37h0l1.1,5.34h0l1.1,5.32h0l1.1,5.29h0l1.1,5.27h0l1.1,5.25h0l1.1,5.22h0l1.1,5.2h0l1.1,5.17h0l1.1,5.15h0l1.1,5.13h0l1.1,5.1h0l1.1,5.08h0l1.1,5.06h0l1.1,5.03h0l1.1,5.01h0l1.1,4.99h0l1.1,4.96h0l1.1,4.94h0l1.1,4.92h0l1.1,4.89h0l1.1,4.87h0l1.1,4.85h0l1.1,4.83h0l1.1,4.8h0l1.1,4.78h0l1.1,4.76h0l1.1,4.74h0l1.1,4.72h0l1.1,4.69h0l1.1,4.67h0l1.1,4.65h0l1.1,4.63h0l1.1,4.61h0l1.1,4.59h0l1.1,4.57h0l1.1,4.55h0l1.1,4.52h0l1.1,4.5h0l1.1,4.48h0l1.1,4.46h0l1.1,4.44h0l1.1,4.42h0l1.1,4.4h0l1.1,4.38h0l1.1,4.36h0l1.1,4.34h0l1.1,4.32h0l1.1,4.3h0l1.1,4.28h0l1.1,4.26h0l1.1,4.24h0l1.1,4.22h0l1.1,4.2h0l1.1,4.18h0l1.1,4.16h0l1.1,4.14h0l1.1,4.12h0l1.1,4.11h0l1.1,4.09h0l1.1,4.07h0l1.1,4.05h0l1.1,4.03h0l1.1,4.01h0l1.1,3.99h0l1.1,3.97h0l1.1,3.96h0l1.1,3.94h0l1.1,3.92h0l1.1,3.9h0l1.1,3.88h0l1.1,3.87h0l1.1,3.85h0l1.1,3.83h0l1.1,3.81h0l1.1,3.79h0l1.1,3.78h0l1.1,3.76h0l1.1,3.74h0l1.1,3.73h0l1.1,3.71h0l1.1,3.69h0l1.1,3.67h0l1.1,3.66h0l1.1,3.64h0l1.1,3.62h0l1.1,3.61h0l1.1,3.59h0l1.1,3.57h0l1.1,3.56h0l1.1,3.54h0l1.1,3.52h0l1.1,3.51h0l1.1,3.49h0l1.1,3.48h0l1.1,3.46h0l1.1,3.44h0l1.1,3.43h0l1.1,3.41h0l1.1,3.4h0l1.1,3.38h0l1.1,3.36h0l1.1,3.35h0l1.1,3.33h0l1.1,3.32h0l1.1,3.3h0l1.1,3.29h0l1.1,3.27h0l1.1,3.26h0l1.1,3.24h0l1.1,3.23h0l1.1,3.21h0l1.1,3.2h0l1.1,3.18h0l1.1,3.17h0l1.1,3.15h0l1.1,3.14h0l1.1,3.12h0l1.1,3.11h0l1.1,3.1h0l1.1,3.08h0l1.1,3.07h0l1.1,3.05h0l1.1,3.04h0l1.1,3.02h0l1.1,3.01h0l1.1,3h0l1.1,2.98h0l1.1,2.97h0l1.1,2.96h0l1.1,2.94h0l1.1,2.93h0l1.1,2.91h0l1.1,2.9h0l1.1,2.89h0l1.1,2.87h0l1.1,2.86h0l1.1,2.85h0l1.1,2.84h0l1.1,2.82h0l1.1,2.81h0l1.1,2.8h0l1.1,2.78h0l1.1,2.77h0l1.1,2.76h0l1.1,2.74h0l1.1,2.73h0l1.1,2.72h0l1.1,2.71h0l1.1,2.69h0l1.1,2.68h0l1.1,2.67h0l1.1,2.66h0l1.1,2.64h0l1.1,2.63h0l1.1,2.62h0l1.1,2.61h0l1.1,2.6h0l1.1,2.58h0l1.1,2.57h0l1.1,2.56h0l1.1,2.55h0l1.1,2.54h0l1.1,2.53h0l1.1,2.51h0l1.1,2.5h0l1.1,2.49h0l1.1,2.48h0l1.1,2.47h0l1.1,2.46h0l1.1,2.44h0l1.1,2.43h0l1.1,2.42h0l1.1,2.41h0l1.1,2.4h0l1.1,2.39h0l1.1,2.38h0l1.1,2.37h0l1.1,2.36h0l1.1,2.35h0l1.1,2.33h0l1.1,2.32h0l1.1,2.31h0l1.1,2.3h0l1.1,2.29h0l1.1,2.28h0l1.1,2.27h0l1.1,2.26h0l1.1,2.25h0l1.1,2.24h0l1.1,2.23h0l1.1,2.22h0l1.1,2.21h0l1.1,2.2h0l1.1,2.19h0l1.1,2.18h0l1.1,2.17h0l1.1,2.16h0l1.1,2.15h0l1.1,2.14h0l1.1,2.13h0l1.1,2.12h0l1.1,2.11h0l1.1,2.1h0l1.1,2.09h0l1.1,2.08h0l1.1,2.07h0l1.1,2.06h0l1.1,2.05h0l1.1,2.04h0l1.1,2.03h0l1.1,2.02h0l1.1,2.01h0l1.1,2h0l1.1,1.99h0l1.1,1.99h0l1.1,1.98h0l1.1,1.97h0l1.1,1.96h0l1.1,1.95h0l1.1,1.94h0l1.1,1.93h0l1.1,1.92h0l1.1,1.91h0l1.1,1.9h0l1.1,1.9h0l1.1,1.89h0l1.1,1.88h0l1.1,1.87h0l1.1,1.86h0l1.1,1.85h0l1.1,1.84h0l1.1,1.84h0l1.1,1.83h0l1.1,1.82h0l1.1,1.81h0l1.1,1.8h0l1.1,1.79h0l1.1,1.78h0l1.1,1.78h0l1.1,1.77h0l1.1,1.76h0l1.1,1.75h0l1.1,1.74h0l1.1,1.74h0l1.1,1.73h0l1.1,1.72h0l1.1,1.71h0l1.1,1.7h0l1.1,1.7h0l1.1,1.69h0l1.1,1.68h0l1.1,1.67h0l1.1,1.67h0l1.1,1.66h0l1.1,1.65h0l1.1,1.64h0l1.1,1.63h0l1.1,1.63h0l1.1,1.62h0l1.1,1.61h0l1.1,1.6h0l1.1,1.6h0l1.1,1.59h0l1.1,1.58h0l1.1,1.58h0l1.1,1.57h0l1.1,1.56h0l1.1,1.55h0l1.1,1.55h0l1.1,1.54h0l1.1,1.53h0l1.1,1.53h0l1.1,1.52h0l1.1,1.51h0l1.1,1.5h0l1.1,1.5h0l1.1,1.49h0l1.1,1.48h0l1.1,1.48h0l1.1,1.47h0l1.1,1.46h0l1.1,1.46h0l1.1,1.45h0l1.1,1.44h0l1.1,1.44h0l1.1,1.43h0l1.1,1.42h0l1.1,1.42h0l1.1,1.41h0l1.1,1.4h0l1.1,1.4h0l1.1,1.39h0l1.1,1.38h0l1.1,1.38h0l1.1,1.37h0l1.1,1.36h0l1.1,1.36h0l1.1,1.35h0l1.1,1.35h0l1.1,1.34h0l1.1,1.33h0l1.1,1.33h0l1.1,1.32h0l1.1,1.32h0l1.1,1.31h0l1.1,1.3h0l1.1,1.3h0l1.1,1.29h0l1.1,1.29h0l1.1,1.28h0l1.1,1.27h0l1.1,1.27h0l1.1,1.26h0l1.1,1.26h0l1.1,1.25h0l1.1,1.24h0l1.1,1.24h0l1.1,1.23h0l1.1,1.23h0l1.1,1.22h0l1.1,1.22h0l1.1,1.21h0l1.1,1.2h0l1.1,1.2h0l1.1,1.19h0l1.1,1.19h0l1.1,1.18h0l1.1,1.18h0l1.1,1.17h0l1.1,1.17h0l1.1,1.16h0l1.1,1.16h0l1.1,1.15h0l1.1,1.14h0l1.1,1.14h0l1.1,1.13h0l1.1,1.13h0l1.1,1.12h0l1.1,1.12h0l1.1,1.11h0l1.1,1.11h0l1.1,1.1h0l1.1,1.1h0l1.1,1.09h0l1.1,1.09h0l1.1,1.08h0l1.1,1.08h0l1.1,1.07h0l1.1,1.07h0l1.1,1.06h0l1.1,1.06h0l1.1,1.05h0l1.1,1.05h0l1.1,1.04h0l1.1,1.04h0l1.1,1.03h0l1.1,1.03h0l1.1,1.02h0l1.1,1.02h0l1.1,1.01h0l1.1,1.01h0l1.1,1.01h0l1.1,1h0l1.1,1h0l1.1.99h0l1.1.99h0l1.1.98h0l1.1.98h0l1.1.97h0l1.1.97h0l1.1.96h0l1.1.96h0l1.1.96h0l1.1.95h0l1.1.95h0l1.1.94h0l1.1.94h0l1.1.93h0l1.1.93h0l1.1.93h0l1.1.92h0l1.1.92h0l1.1.91h0l1.1.91h0l1.1.9h0l1.1.9h0l1.1.9h0l1.1.89h0l1.1.89h0l1.1.88h0l1.1.88h0l1.1.88h0l1.1.87h0l1.1.87h0l1.1.86h0l1.1.86h0l1.1.86h0l1.1.85h0l1.1.85h0l1.1.84h0l1.1.84h0l1.1.84h0l1.1.83h0l1.1.83h0l1.1.82h0l1.1.82h0l1.1.82h0l1.1.81h0l1.1.81h0l1.1.81h0l1.1.8h0l1.1.8h0l1.1.79h0l1.1.79h0l1.1.79h0l1.1.78h0l1.1.78h0l1.1.78h0l1.1.77h0l1.1.77h0l1.1.77h0l1.1.76h0l1.1.76h0l1.1.75h0l1.1.75h0l1.1.75h0l1.1.74h0l1.1.74h0l1.1.74h0l1.1.73h0l1.1.73h0l1.1.73h0l1.1.72h0l1.1.72h0l1.1.72h0l1.1.71h0l1.1.71h0l1.1.71h0l1.1.7h0l1.1.7h0l1.1.7h0l1.1.69h0l1.1.69h0l1.1.69h0l1.1.68h0l1.1.68h0l1.1.68h0l1.1.68h0l1.1.67h0l1.1.67h0l1.1.67h0l1.1.66h0l1.1.66h0l1.1.66h0l1.1.65h0l1.1.65h0l1.1.65h0l1.1.64h0l1.1.64h0l1.1.64h0l1.1.64h0l1.1.63h0l1.1.63h0l1.1.63h0l1.1.62h0l1.1.62h0l1.1.62h0l1.1.62h0l1.1.61h0l1.1.61h0l1.1.61h0l1.1.6h0l1.1.6h0l1.1.6h0l1.1.6h0l1.1.59h0l1.1.59h0l1.1.59h0l1.1.59h0l1.1.58h0l1.1.58h0l1.1.58h0l1.1.57h0l1.1.57h0l1.1.57h0l1.1.57h0l1.1.56h0l1.1.56h0l1.1.56h0l1.1.56h0l1.1.55h0l1.1.55h0l1.1.55h0l1.1.55h0l1.1.54h0l1.1.54h0l1.1.54h0l1.1.54h0l1.1.53h0l1.1.53h0l1.1.53h0l1.1.53h0l1.1.52h0l1.1.52h0l1.1.52h0l1.1.52h0l1.1.51h0l1.1.51h0l1.1.51h0l1.1.51h0l1.1.5h0l1.1.5h0l1.1.5h0l1.1.5h0l1.1.5h0l1.1.49h0l1.1.49h0l1.1.49h0l1.1.49h0l1.1.48h0l1.1.48h0l1.1.48h0l1.1.48h0l1.1.48h0l1.1.47h0l1.1.47h0l1.1.47h0l1.1.47h0l1.1.46h0l1.1.46h0l1.1.46h0l1.1.46h0l1.1.46h0l1.1.45h0l1.1.45h0l1.1.45h0l1.1.45h0l1.1.45h0l1.1.44h0l1.1.44h0l1.1.44h0l1.1.44h0l1.1.44h0l1.1.43h0l1.1.43h0l1.1.43h0l1.1.43h0l1.1.43h0l1.1.42h0l1.1.42h0l1.1.42h0l1.1.42h0l1.1.42h0l1.1.41h0l1.1.41h0l1.1.41h0l1.1.41h0l1.1.41h0l1.1.4h0l1.1.4h0l1.1.4h0l1.1.4h0l1.1.4h0l1.1.39h0l1.1.39h0l1.1.39h0l1.1.39h0l1.1.39h0l1.1.39h0l1.1.38h0l1.1.38h0l1.1.38h0l1.1.38h0l1.1.38h0l1.1.38h0l1.1.37h0l1.1.37h0l1.1.37h0l1.1.37h0l1.1.37h0l1.1.37h0l1.1.36h0l1.1.36h0l1.1.36h0l1.1.36h0l1.1.36h0l1.1.36h0l1.1.35h0l1.1.35h0l1.1.35h0l1.1.35h0l1.1.35h0l1.1.35h0l1.1.34h0l1.1.34h0l1.1.34h0l1.1.34h0l1.1.34h0l1.1.34h0l1.1.33h0l1.1.33h0l1.1.33h0l1.1.33h0l1.1.33h0l1.1.33h0l1.1.33h0l1.1.32h0l1.1.32h0l1.1.32h0l1.1.32h0l1.1.32h0l1.1.32h0l1.1.31h0l1.1.31h0l1.1.31h0l1.1.31h0l1.1.31h0l1.1.31h0l1.1.31h0l1.1.3h0l1.1.3h0l1.1.3h0l1.1.3h0l1.1.3h0l1.1.3h0l1.1.3h0l1.1.3h0l1.1.29h0l1.1.29h0l1.1.29h0l1.1.29h0l1.1.29h0l1.1.29h0l1.1.29h0l1.1.28h0l1.1.28h0l1.1.28h0l1.1.28h0l1.1.28h0l1.1.28h0l1.1.28h0l1.1.28h0l1.1.27h0l1.1.27h0l1.1.27h0l1.1.27h0l1.1.27h0l1.1.27h0l1.1.27h0l1.1.27h0l1.1.26h0l1.1.26h0l1.1.26h0l1.1.26h0l1.1.26h0l1.1.26h0l1.1.26h0l1.1.26h0l1.1.25h0l1.1.25h0l1.1.25h0l1.1.25h0l1.1.25h0l1.1.25h0l1.1.25h0l1.1.25h0l1.1.25h0l1.1.24h0l1.1.24h0l1.1.24h0l1.1.24h0l1.1.24h0l1.1.24h0l1.1.24h0l1.1.24h0l1.1.24h0l1.1.23h0l1.1.23h0l1.1.23h0l1.1.23h0l1.1.23h0l1.1.23h0l1.1.23h0l1.1.23h0l1.1.23h0l1.1.22h0l1.1.22h0l1.1.22h0l1.1.22h0l1.1.22h0l1.1.22h0l1.1.22h0l1.1.22h0l1.1.22h0l1.1.22h0l1.1.21h0l1.1.21h0l1.1.21h0l1.1.21h0l1.1.21h0l1.1.21h0l1.1.21h0l1.1.21h0l1.1.21h0l1.1.21h0l1.1.2h0l1.1.2h0l1.1.2h0l1.1.2h0l1.1.2h0l1.1.2h0l1.1.2h0l1.1.2h0l1.1.2h0l1.1.2h0l1.1.2h0l1.1.19h0l1.1.19h0l1.1.19h0l1.1.19h0l1.1.19h0l1.1.19h0l1.1.19h0l1.1.19h0l1.1.19h0l1.1.19h0l1.1.19h0l1.1.18h0l1.1.18h0l1.1.18h0l1.1.18h0l1.1.18h0l1.1.18h0l1.1.18h0l1.1.18h0l1.1.18h0l1.1.18h0l1.1.18h0l1.1.18h0l1.1.17h0l1.1.17h0l1.1.17h0l1.1.17h0l1.1.17h0l1.1.17h0l1.1.17h0l1.1.17h0l1.1.17h0l1.1.17h0l1.1.17h0l1.1.17h0l1.1.17h0l1.1.16h0l1.1.16h0l1.1.16h0l1.1.16h0l1.1.16h0l1.1.16h0l1.1.16h0l1.1.16h0l1.1.16h0l1.1.16h0l1.1.16h0l1.1.16h0l1.1.16h0l1.1.16h0l1.1.15h0l1.1.15h0l1.1.15h0l1.1.15h0l1.1.15h0l1.1.15h0l1.1.15h0l1.1.15h0l1.1.15h0l1.1.15h0l1.1.15h0l1.1.15h0l1.1.15h0l1.1.15h0l1.1.14h0l1.1.14h0l1.1.14h0l1.1.14h0l1.1.14h0l1.1.14h0l1.1.14h0l1.1.14h0l1.1.14h0l1.1.14h0l1.1.14h0l1.1.14h0l1.1.14h0l1.1.14h0l1.1.14h0l1.1.13h0l1.1.13h0l1.1.13h0l1.1.13h0l1.1.13h0l1.1.13h0l1.1.13h0l1.1.13h0l1.1.13h0l1.1.13h0l1.1.13h0l1.1.13h0l1.1.13h0l1.1.13h0l1.1.13h0l1.1.13h0l1.1.13h0l1.1.12h0l1.1.12h0l1.1.12h0l1.1.12h0l1.1.12h0l1.1.12h0l1.1.12h0l1.1.12h0l1.1.12h0l1.1.12h0l1.1.12h0l1.1.12h0l1.1.12h0l1.1.12h0l1.1.12h0l1.1.12h0l1.1.12h0l1.1.12h0l1.1.11h0l1.1.11h0l1.1.11h0l1.1.11h0l1.1.11h0l1.1.11h0l1.1.11h0l1.1.11h0l1.1.11h0l1.1.11h0l1.1.11h0l1.1.11h0l1.1.11h0l1.1.11h0l1.1.11h0l1.1.11h0l1.1.11h0l1.1.11h0l1.1.11h0l1.1.11h0l1.1.1h0l1.1.1h0l1.1.1h0l1.1.1h0l1.1.1h0l1.1.1h0l1.1.1h0l1.1.1h0l1.1.1h0l1.1.1h0l1.1.1h0l1.1.1h0l1.1.1h0l1.1.1h0l1.1.1h0l1.1.1h0l1.1.1h0l1.1.1h0l1.1.1h0l1.1.1h0l1.1.1h0l1.1.09h0l1.1.09h0l1.1.09h0l1.1.09h0l1.1.09h0l1.1.09h0l1.1.09h0l1.1.09h0l1.1.09h0l1.1.09h0l1.1.09h0l1.1.09h0l1.1.09h0l1.1.09h0l1.1.09h0l1.1.09h0l1.1.09h0l1.1.09h0l1.1.09h0l1.1.09h0l1.1.09h0l1.1.09h0l1.1.09h0l1.1.09h0l1.1.08h0l1.1.08h0l1.1.08h0l1.1.08h0l1.1.08h0l1.1.08h0l1.1.08h0l1.1.08h0l1.1.08h0l1.1.08h0l1.1.08h0l1.1.08h0l1.1.08h0l1.1.08h0l1.1.08h0l1.1.08h0l1.1.08h0l1.1.08h0l1.1.08h0l1.1.08h0l1.1.08h0l1.1.08h0l1.1.08h0l1.1.08h0l1.1.08h0l1.1.08h0l1.1.08h0l1.1.07h0l1.1.07h0l1.1.07h0l1.1.07h0l1.1.07h0l1.1.07h0l1.1.07h0l1.1.07h0l1.1.07h0l1.1.07h0l1.1.07h0l1.1.07h0l1.1.07h0l1.1.07h0l1.1.07h0l1.1.07h0l1.1.07h0l1.1.07h0l1.1.07h0l1.1.07h0l1.1.07h0l1.1.07h0l1.1.07h0l1.1.07h0l1.1.07h0l1.1.07h0l1.1.07h0l1.1.07h0l1.1.07h0l1.1.07h0l1.1.07h0l1.1.07h0l1.1.06h0l1.1.06h0l1.1.06h0l1.1.06h0l1.1.06h0l1.1.06h0l1.1.06h0l1.1.06h0l1.1.06h0l1.1.06h0l1.1.06h0l1.1.06h0l1.1.06h0l1.1.06h0l1.1.06h0l1.1.06h0l1.1.06h0l1.1.06h0l1.1.06h0l1.1.06h0l1.1.06h0l1.1.06h0l1.1.06h0l1.1.06h0l1.1.06h0l1.1.06h0l1.1.06h0l1.1.06h0l1.1.06h0l1.1.06h0l1.1.06h0l1.1.06h0l1.1.06h0l1.1.06h0l1.1.06h0l1.1.06h0l1.1.05h0l1.1.05h0l1.1.05h0l1.1.05h0l1.1.05h0l1.1.05h0l1.1.05h0l1.1.05h0l1.1.05h0l1.1.05h0l1.1.05h0l1.1.05h0l1.1.05h0l1.1.05h0l1.1.05h0l1.1.05h0l1.1.05h0l1.1.05h0l1.1.05h0l1.1.05h0l1.1.05h0l1.1.05h0l1.1.05h0l1.1.05h0l1.1.05h0l1.1.05h0l1.1.05h0l1.1.05h0l1.1.05h0l1.1.05h0l1.1.05h0l1.1.05h0l1.1.05h0l1.1.05h0l1.1.05h0l1.1.05h0l1.1.05h0l1.1.05h0l1.1.05h0l1.1.05h0l1.1.05h0l1.1.05h0l1.1.05h0l1.1.04h0l1.1.04h0l1.1.04h0l1.1.04h0l1.1.04h0l1.1.04h0l1.1.04h0l1.1.04h0l1.1.04h0l1.1.04h0l1.1.04h0l1.1.04h0l1.1.04h0l1.1.04h0l1.1.04h0l1.1.04h0l1.1.04h0l1.1.04h0l1.1.04h0l1.1.04h0l1.1.04h0l1.1.04h0l1.1.04h0l1.1.04h0l1.1.04h0l1.1.04h0l1.1.04h0l1.1.04h0l1.1.04h0l1.1.04h0l1.1.04h0l1.1.04h0l1.1.04h0l1.1.04h0l1.1.04h0l1.1.04h0l1.1.04h0l1.1.04h0l1.1.04h0l1.1.04h0l1.1.04h0l1.1.04h0l1.1.04h0l1.1.04h0l1.1.04h0l1.1.04h0l1.1.04h0l1.1.04h0l1.1.04h0l1.1.04h0l1.1.04h0l1.1.04h0l1.1.04h0l1.1.04h0l1.1.03h0l1.1.03h0l1.1.03h0l1.1.03h0l1.1.03h0l1.1.03h0l1.1.03h0l1.1.03h0l1.1.03h0l1.1.03h0l1.1.03h0l1.1.03h0l1.1.03h0l1.1.03h0l1.1.03h0l1.1.03h0l1.1.03h0l1.1.03h0l1.1.03h0l1.1.03h0l1.1.03h0l1.1.03h0l1.1.03h0l1.1.03h0l1.1.03h0l1.1.03h0l1.1.03h0l1.1.03h0l1.1.03h0l1.1.03h0l1.1.03h0l1.1.03h0l1.1.03h0l1.1.03h0l1.1.03h0l1.1.03h0l1.1.03h0l1.1.03h0l1.1.03h0l1.1.03h0l1.1.03h0l1.1.03h0l1.1.03h0l1.1.03h0l1.1.03h0l1.1.03h0l1.1.03h0l1.1.03h0l1.1.03h0l1.1.03h0l1.1.03h0l1.1.03h0l1.1.03h0l1.1.03h0l1.1.03h0l1.1.03h0l1.1.03h0l1.1.03h0l1.1.03h0l1.1.03h0l1.1.03h0l1.1.03h0l1.1.03h0l1.1.03h0l1.1.03h0l1.1.03h0l1.1.03h0l1.1.03h0l1.1.03h0l1.1.03h0l1.1.03h0l1.1.03h0l1.1.03h0l1.1.02h0l1.1.02h0l1.1.02h0l1.1.02"/>
          <g>
            <path class="uuid-49f74c1c-86c5-4f77-92b3-b738e26539be" d="m186.74,188.56c-2.7-2.39-5.02-5.12-6.96-8.18s-3.48-6.29-4.65-9.69-2.02-6.92-2.56-10.55-.81-7.31-.81-11.04.27-7.44.81-11.08,1.39-7.16,2.55-10.55c1.16-3.39,2.72-6.62,4.65-9.68,1.94-3.06,4.26-5.79,6.96-8.19,0-.04.05-.06.16-.06h.85c.06,0,.13.03.19.1s.09.13.09.21c0,.09-.02.15-.06.19-2.51,2.48-4.63,5.24-6.37,8.28-1.73,3.04-3.11,6.24-4.13,9.6-1.02,3.36-1.75,6.81-2.18,10.35s-.65,7.16-.65,10.85.21,7.27.64,10.76,1.16,6.94,2.19,10.34,2.42,6.62,4.15,9.66,3.85,5.8,6.34,8.28c.04.04.06.11.06.19,0,.06-.03.13-.1.19s-.12.1-.18.1h-.85c-.11,0-.16-.02-.16-.06Z"/>
            <path class="uuid-49f74c1c-86c5-4f77-92b3-b738e26539be" d="m200.95,113.93v18.5c0,.66.13,1.08.4,1.25.37.22,1.26.33,2.67.33h1.06v1.02c-.77-.07-2.55-.1-5.34-.1-2.79,0-4.57.03-5.34.1v-1.02h1.06c1.69,0,2.66-.2,2.9-.59l.03-.03c.09-.18.13-.49.13-.96v-17.08c-1.14.57-2.58.86-4.32.86v-1.02c2.64,0,4.64-.7,6-2.11.42,0,.66.08.73.23h0v.03c.02.07.03.26.03.59Z"/>
            <rect class="uuid-49f74c1c-86c5-4f77-92b3-b738e26539be" x="191.25" y="148.44" width="16.49" height="1.32"/>
            <path class="uuid-49f74c1c-86c5-4f77-92b3-b738e26539be" d="m206.06,174.22h0l-.92,5.74h-12.23c0-.55.07-.9.2-1.06l.16-.16,6.33-7.06c2.31-2.59,3.46-5.02,3.46-7.29,0-1.96-.59-3.44-1.78-4.45l-.03-.03h-.03c-.7-.59-1.56-.89-2.57-.89-1.58,0-2.85.68-3.79,2.04-.26.4-.48.84-.66,1.32.07-.02.21-.03.43-.03.88,0,1.44.4,1.68,1.19v.03c.04.15.07.32.07.49,0,.88-.42,1.44-1.25,1.68-.18.04-.33.07-.46.07-.81,0-1.35-.34-1.62-1.02-.09-.24-.13-.52-.13-.82,0-1.69.65-3.14,1.95-4.35,1.17-1.08,2.57-1.62,4.22-1.62,2.42,0,4.3.81,5.64,2.44.77.95,1.21,2.07,1.32,3.36.02.2.03.4.03.59,0,1.6-.6,3.13-1.81,4.58-.64.75-1.63,1.74-2.97,2.97l-2.01,1.78-.33.3-3.5,3.4h5.94c1.93,0,2.98-.09,3.13-.26.22-.31.46-1.29.73-2.93h.82Z"/>
            <path class="uuid-49f74c1c-86c5-4f77-92b3-b738e26539be" d="m211.23,188.63c-.19,0-.29-.1-.29-.29,0-.09.02-.15.06-.19,2.51-2.48,4.63-5.24,6.36-8.28,1.73-3.04,3.1-6.24,4.12-9.6s1.75-6.78,2.18-10.29.65-7.14.65-10.91-.22-7.45-.65-10.93-1.16-6.89-2.17-10.22c-1.01-3.34-2.39-6.54-4.14-9.6-1.75-3.06-3.87-5.83-6.36-8.28-.04-.04-.06-.11-.06-.19,0-.2.1-.31.29-.31h.85c.08,0,.13.02.18.06,2.72,2.4,5.04,5.14,6.97,8.2,1.93,3.06,3.48,6.3,4.64,9.7,1.16,3.4,2,6.92,2.53,10.55.53,3.63.79,7.31.79,11.06s-.26,7.4-.79,11.01c-.53,3.62-1.37,7.13-2.53,10.54-1.16,3.41-2.7,6.64-4.64,9.71s-4.26,5.8-6.97,8.2c-.04.04-.1.06-.18.06h-.85Z"/>
            <path class="uuid-49f74c1c-86c5-4f77-92b3-b738e26539be" d="m241.79,111.47l-.78,3.16c-.26,1.05-.39,1.72-.39,2.03,0,.8.28,1.28.85,1.45.12.05.26.07.42.07.77,0,1.47-.38,2.1-1.15.42-.49.74-1.12.97-1.87.05-.17.15-.25.3-.25.18,0,.28.08.28.23,0,.38-.24.94-.72,1.66-.83,1.26-1.82,1.89-2.98,1.89-1.05,0-1.81-.44-2.29-1.32-.09-.14-.16-.28-.21-.44-.37.74-.88,1.25-1.52,1.55-.29.14-.59.21-.9.21-.92,0-1.57-.27-1.94-.81-.15-.2-.23-.44-.23-.72,0-.57.25-.97.74-1.2.17-.09.35-.14.53-.14.46,0,.74.19.83.58.02.08.02.15.02.23,0,.52-.26.91-.78,1.15-.09.05-.19.08-.3.09.32.2.71.3,1.15.3.82,0,1.46-.55,1.94-1.64.09-.23.18-.48.25-.76.83-3.14,1.25-4.97,1.25-5.49-.09-.95-.51-1.47-1.25-1.55-.8,0-1.53.41-2.19,1.22v.02s0,.02-.02.02c-.23.31-.44.66-.62,1.06-.08.18-.15.37-.21.55l-.05.14c-.03.17-.13.25-.3.25-.18,0-.28-.08-.28-.23,0-.38.25-.94.74-1.66.83-1.26,1.82-1.89,2.98-1.89s2.02.58,2.49,1.75c.49-.95,1.15-1.52,1.96-1.71.15-.03.31-.05.46-.05.91,0,1.55.25,1.92.76.15.22.23.47.23.76,0,.63-.28,1.05-.85,1.27-.14.05-.27.07-.39.07-.48,0-.76-.21-.85-.62-.02-.06-.02-.12-.02-.18,0-.46.22-.82.67-1.08.14-.08.28-.13.44-.16-.32-.2-.71-.3-1.15-.3-1.05,0-1.78.82-2.22,2.45-.03.09-.05.18-.07.28Z"/>
          </g>
          <path class="uuid-f2f930aa-0602-43d2-a610-18e385f8a64b" d="m1443.43-1.63H505.63l.37,4.68h0l1.1,13.73h0l1.1,13.52h0l1.1,13.31h0l1.1,13.11h0l1.1,12.91h0l1.1,12.71h0l1.1,12.52h0l1.1,12.33h0l1.1,12.14h0l1.1,11.95h0l1.1,11.77h0l1.1,11.59h0l1.1,11.41h0l1.1,11.24h0l1.1,11.07h0l1.1,10.9h0l1.1,10.73h0l1.1,10.57h0l1.1,10.41h0l1.1,10.25h0l1.1,10.09h0l1.1,9.94h0l1.1,9.79h0l1.1,9.64h0l1.1,9.49h0l1.1,9.35h0l1.1,9.2h0l1.1,9.06h0l1.1,8.93h0l1.1,8.79h0l1.1,8.66h0l1.1,8.52h0l1.1,8.39h0l1.1,8.27h0l1.1,8.14h0l1.1,8.02h0l1.1,7.89h0l1.1,7.77h0l1.1,7.65h0l1.1,7.54h0l1.1,7.42h0l1.1,7.31h0l1.1,7.2h0l1.1,7.09h0l1.1,6.98h0l1.1,6.87h0l1.1,6.77h0l1.1,6.67h0l1.1,6.56h0l1.1,6.46h0l1.1,6.36h0l1.1,6.27h0l1.1,6.17h0l1.1,6.08h0l1.1,5.99h0l1.1,5.89h0l1.1,5.8h0l1.1,5.72h0l1.1,5.63h0l1.1,5.54h0l1.1,5.46h0l1.1,5.37h0l1.1,5.29h0l1.1,5.21h0l1.1,5.13h0l1.1,5.05h0l1.1,4.98h0l1.1,4.9h0l1.1,4.83h0l1.1,4.75h0l1.1,4.68h0l1.1,4.61h0l1.1,4.54h0l1.1,4.47h0l1.1,4.4h0l1.1,4.33h0l1.1,4.27h0l1.1,4.2h0l1.1,4.14h0l1.1,4.08h0l1.1,4.01h0l1.1,3.95h0l1.1,3.89h0l1.1,3.83h0l1.1,3.77h0l1.1,3.72h0l1.1,3.66h0l1.1,3.6h0l1.1,3.55h0l1.1,3.49h0l1.1,3.44h0l1.1,3.39h0l1.1,3.34h0l1.1,3.29h0l1.1,3.24h0l1.1,3.19h0l1.1,3.14h0l1.1,3.09h0l1.1,3.04h0l1.1,3h0l1.1,2.95h0l1.1,2.91h0l1.1,2.86h0l1.1,2.82h0l1.1,2.78h0l1.1,2.73h0l1.1,2.69h0l1.1,2.65h0l1.1,2.61h0l1.1,2.57h0l1.1,2.53h0l1.1,2.49h0l1.1,2.45h0l1.1,2.42h0l1.1,2.38h0l1.1,2.34h0l1.1,2.31h0l1.1,2.27h0l1.1,2.24h0l1.1,2.2h0l1.1,2.17h0l1.1,2.14h0l1.1,2.1h0l1.1,2.07h0l1.1,2.04h0l1.1,2.01h0l1.1,1.98h0l1.1,1.95h0l1.1,1.92h0l1.1,1.89h0l1.1,1.86h0l1.1,1.83h0l1.1,1.8h0l1.1,1.78h0l1.1,1.75h0l1.1,1.72h0l1.1,1.7h0l1.1,1.67h0l1.1,1.65h0l1.1,1.62h0l1.1,1.6h0l1.1,1.57h0l1.1,1.55h0l1.1,1.52h0l1.1,1.5h0l1.1,1.48h0l1.1,1.46h0l1.1,1.43h0l1.1,1.41h0l1.1,1.39h0l1.1,1.37h0l1.1,1.35h0l1.1,1.33h0l1.1,1.31h0l1.1,1.29h0l1.1,1.27h0l1.1,1.25h0l1.1,1.23h0l1.1,1.21h0l1.1,1.19h0l1.1,1.17h0l1.1,1.16h0l1.1,1.14h0l1.1,1.12h0l1.1,1.1h0l1.1,1.09h0l1.1,1.07h0l1.1,1.05h0l1.1,1.04h0l1.1,1.02h0l1.1,1.01h0l1.1.99h0l1.1.98h0l1.1.96h0l1.1.95h0l1.1.93h0l1.1.92h0l1.1.9h0l1.1.89h0l1.1.88h0l1.1.86h0l1.1.85h0l1.1.84h0l1.1.82h0l1.1.81h0l1.1.8h0l1.1.79h0l1.1.77h0l1.1.76h0l1.1.75h0l1.1.74h0l1.1.73h0l1.1.72h0l1.1.71h0l1.1.7h0l1.1.69h0l1.1.67h0l1.1.66h0l1.1.65h0l1.1.64h0l1.1.63h0l1.1.62h0l1.1.62h0l1.1.61h0l1.1.6h0l1.1.59h0l1.1.58h0l1.1.57h0l1.1.56h0l1.1.55h0l1.1.54h0l1.1.54h0l1.1.53h0l1.1.52h0l1.1.51h0l1.1.5h0l1.1.5h0l1.1.49h0l1.1.48h0l1.1.47h0l1.1.47h0l1.1.46h0l1.1.45h0l1.1.45h0l1.1.44h0l1.1.43h0l1.1.43h0l1.1.42h0l1.1.41h0l1.1.41h0l1.1.4h0l1.1.39h0l1.1.39h0l1.1.38h0l1.1.38h0l1.1.37h0l1.1.36h0l1.1.36h0l1.1.35h0l1.1.35h0l1.1.34h0l1.1.34h0l1.1.33h0l1.1.33h0l1.1.32h0l1.1.32h0l1.1.31h0l1.1.31h0l1.1.3h0l1.1.3h0l1.1.29h0l1.1.29h0l1.1.29h0l1.1.28h0l1.1.28h0l1.1.27h0l1.1.27h0l1.1.26h0l1.1.26h0l1.1.26h0l1.1.25h0l1.1.25h0l1.1.24h0l1.1.24h0l1.1.24h0l1.1.23h0l1.1.23h0l1.1.23h0l1.1.22h0l1.1.22h0l1.1.22h0l1.1.21h0l1.1.21h0l1.1.21h0l1.1.2h0l1.1.2h0l1.1.2h0l1.1.19h0l1.1.19h0l1.1.19h0l1.1.19h0l1.1.18h0l1.1.18h0l1.1.18h0l1.1.17h0l1.1.17h0l1.1.17h0l1.1.17h0l1.1.16h0l1.1.16h0l1.1.16h0l1.1.16h0l1.1.15h0l1.1.15h0l1.1.15h0l1.1.15h0l1.1.15h0l1.1.14h0l1.1.14h0l1.1.14h0l1.1.14h0l1.1.13h0l1.1.13h0l1.1.13h0l1.1.13h0l1.1.13h0l1.1.12h0l1.1.12h0l1.1.12h0l1.1.12h0l1.1.12h0l1.1.12h0l1.1.11h0l1.1.11h0l1.1.11h0l1.1.11h0l1.1.11h0l1.1.11h0l1.1.1h0l1.1.1h0l1.1.1h0l1.1.1h0l1.1.1h0l1.1.1h0l1.1.09h0l1.1.09h0l1.1.09h0l1.1.09h0l1.1.09h0l1.1.09h0l1.1.09h0l1.1.08h0l1.1.08h0l1.1.08h0l1.1.08h0l1.1.08h0l1.1.08h0l1.1.08h0l1.1.08h0l1.1.07h0l1.1.07h0l1.1.07h0l1.1.07h0l1.1.07h0l1.1.07h0l1.1.07h0l1.1.07h0l1.1.07h0l1.1.07h0l1.1.06h0l1.1.06h0l1.1.06h0l1.1.06h0l1.1.06h0l1.1.06h0l1.1.06h0l1.1.06h0l1.1.06h0l1.1.06h0l1.1.06h0l1.1.05h0l1.1.05h0l1.1.05h0l1.1.05h0l1.1.05h0l1.1.05h0l1.1.05h0l1.1.05h0l1.1.05h0l1.1.05h0l1.1.05h0l1.1.05h0l1.1.05h0l1.1.04h0l1.1.04h0l1.1.04h0l1.1.04h0l1.1.04h0l1.1.04h0l1.1.04h0l1.1.04h0l1.1.04h0l1.1.04h0l1.1.04h0l1.1.04h0l1.1.04h0l1.1.04h0l1.1.04h0l1.1.04h0l1.1.03h0l1.1.03h0l1.1.03h0l1.1.03h0l1.1.03h0l1.1.03h0l1.1.03h0l1.1.03h0l1.1.03h0l1.1.03h0l1.1.03h0l1.1.03h0l1.1.03h0l1.1.03h0l1.1.03h0l1.1.03h0l1.1.03h0l1.1.03h0l1.1.03h0l1.1.03h0l1.1.03h0l1.1.03h0l1.1.02h0l1.1.02h0l1.1.02h0l1.1.02h0l1.1.02h0l1.1.02h0l1.1.02h0l1.1.02h0l1.1.02h0l1.1.02h0l1.1.02h0l1.1.02h0l1.1.02h0l1.1.02h0l1.1.02h0l1.1.02h0l1.1.02h0l1.1.02h0l1.1.02h0l1.1.02h0l1.1.02h0l1.1.02h0l1.1.02h0l1.1.02h0l1.1.02h0l1.1.02h0l1.1.02h0l1.1.02h0l1.1.02h0l1.1.02h0l1.1.02h0l1.1.02h0l1.1.02h1.1s1.1.03,1.1.03h1.1s1.1.03,1.1.03h1.1s1.1.03,1.1.03h1.1s1.1.03,1.1.03h1.1s1.1.03,1.1.03h1.1s1.1.03,1.1.03h1.1s1.1.02,1.1.02h1.1s1.1.02,1.1.02h1.1s1.1.02,1.1.02h1.1s1.1.02,1.1.02h1.1s1.1.02,1.1.02h1.1s1.1.02,1.1.02h1.1s1.1.02,1.1.02h1.1s1.1.02,1.1.02h1.1s1.1.02,1.1.02h1.1s1.1.02,1.1.02h1.1s1.1.02,1.1.02h1.1s1.1.02,1.1.02h1.1s1.1.02,1.1.02h1.1s1.1.02,1.1.02h1.1s1.1.02,1.1.02h1.1s1.1.02,1.1.02h1.1s1.1.02,1.1.02h1.1s1.1.01,1.1.01h1.1s1.1.01,1.1.01h1.1s1.1.01,1.1.01h1.1s1.1.01,1.1.01h1.1s1.1.01,1.1.01h1.1s1.1.01,1.1.01h1.1s1.1.01,1.1.01h1.1s1.1.01,1.1.01h1.1s1.1.01,1.1.01h1.1s1.1.01,1.1.01h1.1s1.1.01,1.1.01h1.1s1.1.01,1.1.01h1.1s1.1.01,1.1.01h1.1s1.1,0,1.1,0h1.1s1.1,0,1.1,0h1.1s1.1,0,1.1,0h1.1s1.1,0,1.1,0h1.1s1.1,0,1.1,0h1.1s1.1,0,1.1,0h1.1s1.1,0,1.1,0h1.1s1.1,0,1.1,0h1.1s1.1,0,1.1,0h1.1s1.1,0,1.1,0h1.1s1.1,0,1.1,0h1.1s1.1,0,1.1,0h1.1s1.1,0,1.1,0h1.1s1.1,0,1.1,0h1.1s1.1,0,1.1,0h1.1s1.1,0,1.1,0h1.1s1.1,0,1.1,0h1.1s1.1,0,1.1,0h1.1s1.1,0,1.1,0h1.1s1.1,0,1.1,0h1.1s1.1,0,1.1,0h1.1s1.1,0,1.1,0h1.1s1.1,0,1.1,0h1.1s1.1,0,1.1,0h1.1s1.1,0,1.1,0h1.1s1.1,0,1.1,0h1.1s1.1,0,1.1,0h1.1s1.1,0,1.1,0h1.1s1.1,0,1.1,0h1.1s1.1,0,1.1,0h1.1s1.1,0,1.1,0h1.1s1.1,0,1.1,0h1.1s1.1,0,1.1,0h1.1s1.1,0,1.1,0h1.1s1.1,0,1.1,0h1.1s1.1,0,1.1,0h1.1s1.1,0,1.1,0h1.1s1.1,0,1.1,0h1.1s1.1,0,1.1,0h1.1s1.1,0,1.1,0h1.1s1.1,0,1.1,0h1.1s1.1,0,1.1,0h1.1s1.1,0,1.1,0h1.1s1.1,0,1.1,0h1.1s1.1,0,1.1,0h1.1s1.1,0,1.1,0h1.1s1.1,0,1.1,0h1.1s1.1,0,1.1,0h1.1s1.1,0,1.1,0h1.1s1.1,0,1.1,0h1.1s1.1,0,1.1,0h1.1s1.1,0,1.1,0h1.1s1.1,0,1.1,0h1.1s1.1,0,1.1,0h1.1s1.1,0,1.1,0h1.1s1.1,0,1.1,0h1.1s1.1,0,1.1,0h1.1s1.1,0,1.1,0h1.1s1.1,0,1.1,0h1.1s1.1,0,1.1,0h1.1s1.1,0,1.1,0h1.1s1.1,0,1.1,0h1.1s1.1,0,1.1,0h1.1s1.1,0,1.1,0h1.1s1.1,0,1.1,0h1.1s1.1,0,1.1,0h1.1s1.1,0,1.1,0h1.1s1.1,0,1.1,0h1.1s1.1,0,1.1,0h1.1s1.1,0,1.1,0h1.1s1.1,0,1.1,0h1.1s1.1,0,1.1,0h1.1s1.1,0,1.1,0h1.1s1.1,0,1.1,0h1.1s1.1,0,1.1,0h1.1s1.1,0,1.1,0h1.1s1.1,0,1.1,0h1.1s1.1,0,1.1,0h1.1s1.1,0,1.1,0h1.1s1.1,0,1.1,0h1.1s1.1,0,1.1,0h1.1s1.1,0,1.1,0h1.1s1.1,0,1.1,0h1.1s1.1,0,1.1,0h1.1s1.1,0,1.1,0h1.1s1.1,0,1.1,0h1.1s1.1,0,1.1,0h1.1s1.1,0,1.1,0h1.1s1.1,0,1.1,0h1.1s1.1,0,1.1,0h1.1s1.1,0,1.1,0h1.1s1.1,0,1.1,0h1.1s1.1,0,1.1,0h1.1s1.1,0,1.1,0h1.1s1.1,0,1.1,0h1.1s1.1,0,1.1,0h1.1s1.1,0,1.1,0h1.1s1.1,0,1.1,0h1.1s1.1,0,1.1,0h1.1s1.1,0,1.1,0h1.1s1.1,0,1.1,0h1.1s1.1,0,1.1,0h1.1s1.1,0,1.1,0h1.1s1.1,0,1.1,0h1.1s1.1,0,1.1,0h1.1s1.1,0,1.1,0h1.1s1.1,0,1.1,0h1.1s1.1,0,1.1,0h1.1s1.1,0,1.1,0h1.1s1.1,0,1.1,0h1.1s1.1,0,1.1,0h1.1s1.1,0,1.1,0h1.1s1.1,0,1.1,0h1.1s1.1,0,1.1,0h1.1s1.1,0,1.1,0h1.1s1.1,0,1.1,0h1.1s1.1,0,1.1,0h1.1s1.1,0,1.1,0h1.1s1.1,0,1.1,0h1.1s1.1,0,1.1,0h1.1s1.1,0,1.1,0h1.1s1.1,0,1.1,0h1.1s1.1,0,1.1,0h1.1s1.1,0,1.1,0h1.1s1.1,0,1.1,0h1.1s1.1,0,1.1,0h1.1s1.1,0,1.1,0h1.1s1.1,0,1.1,0h1.1s1.1,0,1.1,0h1.1s1.1,0,1.1,0h1.1s1.1,0,1.1,0h1.1s1.1,0,1.1,0h1.1s1.1,0,1.1,0h1.1s1.1,0,1.1,0h1.1s1.1,0,1.1,0h1.1s1.1,0,1.1,0h1.1s1.1,0,1.1,0h1.1s1.1,0,1.1,0h1.1s1.1,0,1.1,0h1.1s1.1,0,1.1,0h1.1s1.1,0,1.1,0h1.1s1.1,0,1.1,0h1.1s1.1,0,1.1,0h1.1s1.1,0,1.1,0h1.1s1.1,0,1.1,0h1.1s1.1,0,1.1,0h1.1s1.1,0,1.1,0h1.1s1.1,0,1.1,0h2.2s1.1,0,1.1,0h1.1s1.1,0,1.1,0h1.1s1.1,0,1.1,0h2.2s1.1,0,1.1,0h1.1s1.1,0,1.1,0h1.1s1.1,0,1.1,0h1.1s1.1,0,1.1,0h2.2s1.1,0,1.1,0h2.2s1.1,0,1.1,0h1.1s1.1,0,1.1,0h1.1s1.1,0,1.1,0h1.1s1.1,0,1.1,0h1.1s1.1,0,1.1,0h1.1s1.1,0,1.1,0h1.1s1.1,0,1.1,0h1.1s1.1,0,1.1,0h1.1s1.1,0,1.1,0h1.1s1.1,0,1.1,0h1.1"/>
          <g>
            <path class="uuid-68915709-6147-4708-ac1d-0c0902e53599" d="m542.78,185.23c-2.7-2.39-5.02-5.12-6.96-8.18s-3.48-6.29-4.65-9.69c-1.17-3.4-2.02-6.92-2.56-10.55-.54-3.63-.81-7.31-.81-11.04s.27-7.44.81-11.08c.54-3.64,1.39-7.16,2.55-10.55,1.16-3.39,2.72-6.62,4.65-9.68,1.94-3.06,4.26-5.79,6.96-8.19,0-.04.05-.06.16-.06h.85c.06,0,.13.03.19.1s.09.13.09.21c0,.09-.02.15-.06.19-2.51,2.48-4.63,5.24-6.37,8.28-1.73,3.04-3.11,6.24-4.13,9.6-1.02,3.36-1.75,6.81-2.18,10.35s-.65,7.16-.65,10.85.21,7.27.64,10.76,1.16,6.94,2.19,10.34,2.42,6.62,4.15,9.66c1.74,3.04,3.85,5.8,6.34,8.28.04.04.06.11.06.19,0,.06-.03.13-.1.19s-.12.1-.18.1h-.85c-.11,0-.16-.02-.16-.06Z"/>
            <path class="uuid-68915709-6147-4708-ac1d-0c0902e53599" d="m565.23,110.6v18.5c0,.66.13,1.08.4,1.25.37.22,1.26.33,2.67.33h1.06v1.02c-.77-.07-2.55-.1-5.34-.1-2.79,0-4.57.03-5.34.1v-1.02h1.06c1.69,0,2.66-.2,2.9-.59l.03-.03c.09-.18.13-.49.13-.96v-17.08c-1.14.57-2.58.86-4.32.86v-1.02c2.64,0,4.64-.7,6-2.11.42,0,.66.08.73.23h0v.03c.02.07.03.26.03.59Z"/>
            <rect class="uuid-68915709-6147-4708-ac1d-0c0902e53599" x="547.3" y="145.11" width="32.97" height="1.32"/>
            <path class="uuid-68915709-6147-4708-ac1d-0c0902e53599" d="m556.99,155.52v18.5c0,.66.13,1.08.4,1.25.37.22,1.26.33,2.67.33h1.06v1.02c-.77-.07-2.55-.1-5.34-.1-2.79,0-4.57.03-5.34.1v-1.02h1.06c1.69,0,2.66-.2,2.9-.59l.03-.03c.09-.18.13-.49.13-.96v-17.08c-1.14.57-2.58.86-4.32.86v-1.02c2.64,0,4.64-.7,6-2.11.42,0,.66.08.73.23h0v.03c.02.07.03.26.03.59Z"/>
            <path class="uuid-68915709-6147-4708-ac1d-0c0902e53599" d="m578.95,166.07c0,3.21-.41,5.69-1.22,7.45-1.3,2.46-3.21,3.74-5.74,3.82-2,0-3.61-.79-4.81-2.37-.24-.29-.45-.6-.63-.96-.99-1.82-1.48-4.47-1.48-7.95,0-3.23.41-5.73,1.22-7.48,1.1-2.46,2.88-3.77,5.34-3.92h.4c1.96,0,3.55.78,4.78,2.34v.03c.31.4.58.84.82,1.32.88,1.87,1.32,4.44,1.32,7.72m-6.96,10.55h0c1.38,0,2.45-.67,3.2-2.01.31-.59.53-1.3.66-2.11.24-1.41.36-3.68.36-6.83s-.11-5.2-.33-6.43c-.4-2.09-1.41-3.34-3.03-3.76-.29-.07-.57-.1-.86-.1-1.54,0-2.66.77-3.36,2.31-.24.53-.43,1.17-.56,1.91-.18,1.19-.26,3.21-.26,6.07,0,3.32.12,5.64.36,6.96.4,2.11,1.36,3.4,2.9,3.86.31.09.62.13.92.13Z"/>
            <path class="uuid-68915709-6147-4708-ac1d-0c0902e53599" d="m583.76,185.3c-.19,0-.29-.1-.29-.29,0-.09.02-.15.06-.19,2.51-2.48,4.63-5.24,6.36-8.28,1.73-3.04,3.1-6.24,4.12-9.6,1.02-3.35,1.75-6.78,2.18-10.29s.65-7.14.65-10.91-.22-7.45-.65-10.93-1.16-6.89-2.17-10.22c-1.01-3.34-2.39-6.54-4.14-9.6-1.75-3.06-3.87-5.83-6.36-8.28-.04-.04-.06-.11-.06-.19,0-.2.1-.31.29-.31h.85c.08,0,.13.02.18.06,2.72,2.4,5.04,5.14,6.97,8.2,1.93,3.06,3.48,6.3,4.64,9.7,1.16,3.4,2,6.92,2.53,10.55.53,3.63.79,7.31.79,11.06s-.26,7.4-.79,11.01c-.53,3.62-1.37,7.13-2.53,10.54s-2.7,6.64-4.64,9.71-4.26,5.8-6.97,8.2c-.04.04-.1.06-.18.06h-.85Z"/>
            <path class="uuid-68915709-6147-4708-ac1d-0c0902e53599" d="m614.32,108.14l-.78,3.16c-.26,1.05-.39,1.72-.39,2.03,0,.8.28,1.28.85,1.45.12.05.26.07.42.07.77,0,1.47-.38,2.1-1.15.42-.49.74-1.12.97-1.87.05-.17.15-.25.3-.25.18,0,.28.08.28.23,0,.38-.24.94-.72,1.66-.83,1.26-1.82,1.89-2.98,1.89-1.05,0-1.81-.44-2.29-1.32-.09-.14-.16-.28-.21-.44-.37.74-.88,1.25-1.52,1.55-.29.14-.59.21-.9.21-.92,0-1.57-.27-1.94-.81-.15-.2-.23-.44-.23-.72,0-.57.25-.97.74-1.2.17-.09.35-.14.53-.14.46,0,.74.19.83.58.02.08.02.15.02.23,0,.52-.26.91-.78,1.15-.09.05-.19.08-.3.09.32.2.71.3,1.15.3.82,0,1.46-.55,1.94-1.64.09-.23.18-.48.25-.76.83-3.14,1.25-4.97,1.25-5.49-.09-.95-.51-1.47-1.25-1.55-.8,0-1.53.41-2.19,1.22v.02s0,.02-.02.02c-.23.31-.44.66-.62,1.06-.08.18-.15.37-.21.55l-.05.14c-.03.17-.13.25-.3.25-.18,0-.28-.08-.28-.23,0-.38.25-.94.74-1.66.83-1.26,1.82-1.89,2.98-1.89s2.02.58,2.49,1.75c.49-.95,1.15-1.52,1.96-1.71.15-.03.31-.05.46-.05.91,0,1.55.25,1.92.76.15.22.23.47.23.76,0,.63-.28,1.05-.85,1.27-.14.05-.27.07-.39.07-.48,0-.76-.21-.85-.62-.02-.06-.02-.12-.02-.18,0-.46.22-.82.67-1.08.14-.08.28-.13.44-.16-.32-.2-.71-.3-1.15-.3-1.05,0-1.78.82-2.22,2.45-.03.09-.05.18-.07.28Z"/>
          </g>
          <path class="uuid-1dba825c-7fd1-43e8-a6d3-35b6b988d609" d="m-197.42,902.96h1.1s1.1,0,1.1,0h1.1s1.1,0,1.1,0h2.2s1.1,0,1.1,0h1.1s1.1,0,1.1,0h2.2s1.1,0,1.1,0h1.1s1.1,0,1.1,0h1.1s1.1,0,1.1,0h1.1s1.1,0,1.1,0h1.1s1.1,0,1.1,0h1.1s1.1,0,1.1,0h1.1s1.1,0,1.1,0h1.1s1.1,0,1.1,0h1.1s1.1,0,1.1,0h1.1s1.1,0,1.1,0h1.1s1.1,0,1.1,0h2.2s1.1,0,1.1,0h2.2s1.1,0,1.1,0h1.1s1.1,0,1.1,0h1.1s1.1,0,1.1,0h1.1s1.1,0,1.1,0h2.2s1.1,0,1.1,0h1.1s1.1,0,1.1,0h1.1s1.1,0,1.1,0h1.1s1.1,0,1.1,0h2.2s1.1,0,1.1,0h1.1s1.1,0,1.1,0h1.1s1.1,0,1.1,0h1.1s1.1,0,1.1,0h1.1s1.1,0,1.1,0h1.1s1.1,0,1.1,0h1.1s1.1,0,1.1,0h1.1s1.1,0,1.1,0h1.1s1.1,0,1.1,0h1.1s1.1,0,1.1,0h1.1s1.1,0,1.1,0h1.1s1.1,0,1.1,0h1.1s1.1,0,1.1,0h1.1s1.1,0,1.1,0h1.1s1.1,0,1.1,0h1.1s1.1,0,1.1,0h1.1s1.1,0,1.1,0h1.1s1.1,0,1.1,0h1.1s1.1,0,1.1,0h1.1s1.1,0,1.1,0h1.1s1.1,0,1.1,0h1.1s1.1,0,1.1,0h1.1s1.1,0,1.1,0h1.1s1.1,0,1.1,0h1.1s1.1,0,1.1,0h1.1s1.1,0,1.1,0h1.1s1.1,0,1.1,0h1.1s1.1,0,1.1,0h1.1s1.1,0,1.1,0h1.1s1.1,0,1.1,0h1.1s1.1,0,1.1,0h1.1s1.1,0,1.1,0h1.1s1.1,0,1.1,0h1.1s1.1,0,1.1,0h1.1s1.1,0,1.1,0h1.1s1.1,0,1.1,0h1.1s1.1,0,1.1,0h1.1s1.1,0,1.1,0h1.1s1.1,0,1.1,0h1.1s1.1,0,1.1,0h1.1s1.1,0,1.1,0h1.1s1.1,0,1.1,0h1.1s1.1,0,1.1,0h1.1s1.1,0,1.1,0h1.1s1.1,0,1.1,0h1.1s1.1,0,1.1,0h1.1s1.1,0,1.1,0h1.1s1.1,0,1.1,0h1.1s1.1,0,1.1,0h1.1s1.1,0,1.1,0h1.1s1.1,0,1.1,0h1.1s1.1,0,1.1,0h1.1s1.1,0,1.1,0h1.1s1.1,0,1.1,0h1.1s1.1,0,1.1,0h1.1s1.1,0,1.1,0h1.1s1.1,0,1.1,0h1.1s1.1,0,1.1,0h1.1s1.1,0,1.1,0h1.1s1.1,0,1.1,0h1.1s1.1,0,1.1,0h1.1s1.1,0,1.1,0H-.69s1.1,0,1.1,0h1.1s1.1,0,1.1,0h1.1s1.1,0,1.1,0h1.1s1.1,0,1.1,0h1.1s1.1,0,1.1,0h1.1s1.1,0,1.1,0h1.1s1.1,0,1.1,0h1.1s1.1,0,1.1,0h1.1s1.1,0,1.1,0h1.1s1.1,0,1.1,0h1.1s1.1,0,1.1,0h1.1s1.1,0,1.1,0h1.1s1.1,0,1.1,0h1.1s1.1,0,1.1,0h1.1s1.1,0,1.1,0h1.1s1.1,0,1.1,0h1.1s1.1,0,1.1,0h1.1s1.1,0,1.1,0h1.1s1.1,0,1.1,0h1.1s1.1,0,1.1,0h1.1s1.1,0,1.1,0h1.1s1.1,0,1.1,0h1.1s1.1,0,1.1,0h1.1s1.1,0,1.1,0h1.1s1.1,0,1.1,0h1.1s1.1,0,1.1,0h1.1s1.1,0,1.1,0h1.1s1.1,0,1.1,0h1.1s1.1,0,1.1,0h1.1s1.1,0,1.1,0h1.1s1.1,0,1.1,0h1.1s1.1,0,1.1,0h1.1s1.1,0,1.1,0h1.1s1.1,0,1.1,0h1.1s1.1,0,1.1,0h1.1s1.1,0,1.1,0h1.1s1.1,0,1.1,0h1.1s1.1,0,1.1,0h1.1s1.1,0,1.1,0h1.1s1.1,0,1.1,0h1.1s1.1,0,1.1,0h1.1s1.1,0,1.1,0h1.1s1.1,0,1.1,0h1.1s1.1,0,1.1,0h1.1s1.1,0,1.1,0h1.1s1.1,0,1.1,0h1.1s1.1,0,1.1,0h1.1s1.1,0,1.1,0h1.1s1.1,0,1.1,0h1.1s1.1,0,1.1,0h1.1s1.1,0,1.1,0h1.1s1.1,0,1.1,0h1.1s1.1,0,1.1,0h1.1s1.1,0,1.1,0h1.1s1.1,0,1.1,0h1.1s1.1,0,1.1,0h1.1s1.1,0,1.1,0h1.1s1.1,0,1.1,0h1.1s1.1,0,1.1,0h1.1s1.1,0,1.1,0h1.1s1.1,0,1.1,0h1.1s1.1,0,1.1,0h1.1s1.1,0,1.1,0h1.1s1.1,0,1.1,0h1.1s1.1,0,1.1,0h1.1s1.1,0,1.1,0h1.1s1.1,0,1.1,0h1.1s1.1,0,1.1,0h1.1s1.1,0,1.1,0h1.1s1.1,0,1.1,0h1.1s1.1,0,1.1,0h1.1s1.1,0,1.1,0h1.1s1.1,0,1.1,0h1.1s1.1,0,1.1,0h1.1s1.1,0,1.1,0h1.1s1.1,0,1.1,0h1.1s1.1,0,1.1,0h1.1s1.1,0,1.1,0h1.1s1.1,0,1.1,0h1.1s1.1,0,1.1,0h1.1s1.1,0,1.1,0h1.1s1.1,0,1.1,0h1.1s1.1,0,1.1,0h1.1s1.1,0,1.1,0h1.1s1.1-.01,1.1-.01h1.1s1.1-.01,1.1-.01h1.1s1.1-.01,1.1-.01h1.1s1.1-.01,1.1-.01h1.1s1.1-.01,1.1-.01h1.1s1.1-.01,1.1-.01h1.1s1.1-.01,1.1-.01h1.1s1.1-.01,1.1-.01h1.1s1.1-.01,1.1-.01h1.1s1.1-.01,1.1-.01h1.1s1.1-.01,1.1-.01h1.1s1.1-.01,1.1-.01h1.1s1.1-.01,1.1-.01h1.1s1.1-.02,1.1-.02h1.1s1.1-.02,1.1-.02h1.1s1.1-.02,1.1-.02h1.1s1.1-.02,1.1-.02h1.1s1.1-.02,1.1-.02h1.1s1.1-.02,1.1-.02h1.1s1.1-.02,1.1-.02h1.1s1.1-.02,1.1-.02h1.1s1.1-.02,1.1-.02h1.1s1.1-.02,1.1-.02h1.1s1.1-.02,1.1-.02h1.1s1.1-.02,1.1-.02h1.1s1.1-.02,1.1-.02h1.1s1.1-.02,1.1-.02h1.1s1.1-.02,1.1-.02h1.1s1.1-.02,1.1-.02h1.1s1.1-.03,1.1-.03h1.1s1.1-.03,1.1-.03h1.1s1.1-.03,1.1-.03h1.1s1.1-.03,1.1-.03h1.1s1.1-.03,1.1-.03h1.1s1.1-.03,1.1-.03h1.1s1.1-.03,1.1-.03h0l1.1-.02h0l1.1-.02h0l1.1-.02h0l1.1-.02h0l1.1-.02h0l1.1-.02h0l1.1-.02h0l1.1-.02h0l1.1-.02h0l1.1-.02h0l1.1-.02h0l1.1-.02h0l1.1-.02h0l1.1-.02h0l1.1-.02h0l1.1-.02h0l1.1-.02h0l1.1-.02h0l1.1-.02h0l1.1-.02h0l1.1-.02h0l1.1-.02h0l1.1-.02h0l1.1-.02h0l1.1-.02h0l1.1-.02h0l1.1-.02h0l1.1-.02h0l1.1-.02h0l1.1-.02h0l1.1-.02h0l1.1-.02h0l1.1-.03h0l1.1-.03h0l1.1-.03h0l1.1-.03h0l1.1-.03h0l1.1-.03h0l1.1-.03h0l1.1-.03h0l1.1-.03h0l1.1-.03h0l1.1-.03h0l1.1-.03h0l1.1-.03h0l1.1-.03h0l1.1-.03h0l1.1-.03h0l1.1-.03h0l1.1-.03h0l1.1-.03h0l1.1-.03h0l1.1-.03h0l1.1-.03h0l1.1-.04h0l1.1-.04h0l1.1-.04h0l1.1-.04h0l1.1-.04h0l1.1-.04h0l1.1-.04h0l1.1-.04h0l1.1-.04h0l1.1-.04h0l1.1-.04h0l1.1-.04h0l1.1-.04h0l1.1-.04h0l1.1-.04h0l1.1-.04h0l1.1-.05h0l1.1-.05h0l1.1-.05h0l1.1-.05h0l1.1-.05h0l1.1-.05h0l1.1-.05h0l1.1-.05h0l1.1-.05h0l1.1-.05h0l1.1-.05h0l1.1-.05h0l1.1-.05h0l1.1-.06h0l1.1-.06h0l1.1-.06h0l1.1-.06h0l1.1-.06h0l1.1-.06h0l1.1-.06h0l1.1-.06h0l1.1-.06h0l1.1-.06h0l1.1-.06h0l1.1-.07h0l1.1-.07h0l1.1-.07h0l1.1-.07h0l1.1-.07h0l1.1-.07h0l1.1-.07h0l1.1-.07h0l1.1-.07h0l1.1-.07h0l1.1-.08h0l1.1-.08h0l1.1-.08h0l1.1-.08h0l1.1-.08h0l1.1-.08h0l1.1-.08h0l1.1-.08h0l1.1-.09h0l1.1-.09h0l1.1-.09h0l1.1-.09h0l1.1-.09h0l1.1-.09h0l1.1-.09h0l1.1-.1h0l1.1-.1h0l1.1-.1h0l1.1-.1h0l1.1-.1h0l1.1-.1h0l1.1-.11h0l1.1-.11h0l1.1-.11h0l1.1-.11h0l1.1-.11h0l1.1-.11h0l1.1-.12h0l1.1-.12h0l1.1-.12h0l1.1-.12h0l1.1-.12h0l1.1-.12h0l1.1-.13h0l1.1-.13h0l1.1-.13h0l1.1-.13h0l1.1-.13h0l1.1-.14h0l1.1-.14h0l1.1-.14h0l1.1-.14h0l1.1-.15h0l1.1-.15h0l1.1-.15h0l1.1-.15h0l1.1-.15h0l1.1-.16h0l1.1-.16h0l1.1-.16h0l1.1-.16h0l1.1-.17h0l1.1-.17h0l1.1-.17h0l1.1-.17h0l1.1-.18h0l1.1-.18h0l1.1-.18h0l1.1-.19h0l1.1-.19h0l1.1-.19h0l1.1-.19h0l1.1-.2h0l1.1-.2h0l1.1-.2h0l1.1-.21h0l1.1-.21h0l1.1-.21h0l1.1-.22h0l1.1-.22h0l1.1-.22h0l1.1-.23h0l1.1-.23h0l1.1-.23h0l1.1-.24h0l1.1-.24h0l1.1-.24h0l1.1-.25h0l1.1-.25h0l1.1-.26h0l1.1-.26h0l1.1-.26h0l1.1-.27h0l1.1-.27h0l1.1-.28h0l1.1-.28h0l1.1-.29h0l1.1-.29h0l1.1-.29h0l1.1-.3h0l1.1-.3h0l1.1-.31h0l1.1-.31h0l1.1-.32h0l1.1-.32h0l1.1-.33h0l1.1-.33h0l1.1-.34h0l1.1-.34h0l1.1-.35h0l1.1-.35h0l1.1-.36h0l1.1-.36h0l1.1-.37h0l1.1-.38h0l1.1-.38h0l1.1-.39h0l1.1-.39h0l1.1-.4h0l1.1-.41h0l1.1-.41h0l1.1-.42h0l1.1-.43h0l1.1-.43h0l1.1-.44h0l1.1-.45h0l1.1-.45h0l1.1-.46h0l1.1-.47h0l1.1-.47h0l1.1-.48h0l1.1-.49h0l1.1-.5h0l1.1-.5h0l1.1-.51h0l1.1-.52h0l1.1-.53h0l1.1-.54h0l1.1-.54h0l1.1-.55h0l1.1-.56h0l1.1-.57h0l1.1-.58h0l1.1-.59h0l1.1-.6h0l1.1-.61h0l1.1-.62h0l1.1-.62h0l1.1-.63h0l1.1-.64h0l1.1-.65h0l1.1-.66h0l1.1-.67h0l1.1-.69h0l1.1-.7h0l1.1-.71h0l1.1-.72h0l1.1-.73h0l1.1-.74h0l1.1-.75h0l1.1-.76h0l1.1-.77h0l1.1-.79h0l1.1-.8h0l1.1-.81h0l1.1-.82h0l1.1-.84h0l1.1-.85h0l1.1-.86h0l1.1-.88h0l1.1-.89h0l1.1-.9h0l1.1-.92h0l1.1-.93h0l1.1-.95h0l1.1-.96h0l1.1-.98h0l1.1-.99h0l1.1-1.01h0l1.1-1.02h0l1.1-1.04h0l1.1-1.05h0l1.1-1.07h0l1.1-1.09h0l1.1-1.1h0l1.1-1.12h0l1.1-1.14h0l1.1-1.16h0l1.1-1.17h0l1.1-1.19h0l1.1-1.21h0l1.1-1.23h0l1.1-1.25h0l1.1-1.27h0l1.1-1.29h0l1.1-1.31h0l1.1-1.33h0l1.1-1.35h0l1.1-1.37h0l1.1-1.39h0l1.1-1.41h0l1.1-1.43h0l1.1-1.46h0l1.1-1.48h0l1.1-1.5h0l1.1-1.52h0l1.1-1.55h0l1.1-1.57h0l1.1-1.6h0l1.1-1.62h0l1.1-1.65h0l1.1-1.67h0l1.1-1.7h0l1.1-1.72h0l1.1-1.75h0l1.1-1.78h0l1.1-1.8h0l1.1-1.83h0l1.1-1.86h0l1.1-1.89h0l1.1-1.92h0l1.1-1.95h0l1.1-1.98h0l1.1-2.01h0l1.1-2.04h0l1.1-2.07h0l1.1-2.1h0l1.1-2.14h0l1.1-2.17h0l1.1-2.2h0l1.1-2.24h0l1.1-2.27h0l1.1-2.31h0l1.1-2.34h0l1.1-2.38h0l1.1-2.42h0l1.1-2.45h0l1.1-2.49h0l1.1-2.53h0l1.1-2.57h0l1.1-2.61h0l1.1-2.65h0l1.1-2.69h0l1.1-2.73h0l1.1-2.78h0l1.1-2.82h0l1.1-2.86h0l1.1-2.91h0l1.1-2.95h0l1.1-3h0l1.1-3.04h0l1.1-3.09h0l1.1-3.14h0l1.1-3.19h0l1.1-3.24h0l1.1-3.29h0l1.1-3.34h0l1.1-3.39h0l1.1-3.44h0l1.1-3.49h0l1.1-3.55h0l1.1-3.6h0l1.1-3.66h0l1.1-3.72h0l1.1-3.77h0l1.1-3.83h0l1.1-3.89h0l1.1-3.95h0l1.1-4.01h0l1.1-4.08h0l1.1-4.14h0l1.1-4.2h0l1.1-4.27h0l1.1-4.33h0l1.1-4.4h0l1.1-4.47h0l1.1-4.54h0l1.1-4.61h0l1.1-4.68h0l1.1-4.75h0l1.1-4.83h0l1.1-4.9h0l1.1-4.98h0l1.1-5.05h0l1.1-5.13h0l1.1-5.21h0l1.1-5.29h0l1.1-5.37h0l1.1-5.46h0l1.1-5.54h0l1.1-5.63h0l1.1-5.72h0l1.1-5.8h0l1.1-5.89h0l1.1-5.99h0l1.1-6.08h0l1.1-6.17h0l1.1-6.27h0l1.1-6.36h0l1.1-6.46h0l1.1-6.56h0l1.1-6.67h0l1.1-6.77h0l1.1-6.87h0l1.1-6.98h0l1.1-7.09h0l1.1-7.2h0l1.1-7.31h0l1.1-7.42h0l1.1-7.54h0l1.1-7.65h0l1.1-7.77h0l1.1-7.89h0l1.1-8.02h0l1.1-8.14h0l1.1-8.27h0l1.1-8.39h0l1.1-8.52h0l1.1-8.66h0l1.1-8.79h0l1.1-8.93h0l1.1-9.06h0l1.1-9.2h0l1.1-9.35h0l1.1-9.49h0l1.1-9.64h0l1.1-9.79h0l1.1-9.94h0l1.1-10.09h0l1.1-10.25h0l1.1-10.41h0l1.1-10.57h0l1.1-10.73h0l1.1-10.9h0l1.1-11.07h0l1.1-11.24h0l1.1-11.41h0l1.1-11.59h0l1.1-11.77h0l1.1-11.95h0l1.1-12.14h0l1.1-12.33h0l1.1-12.52h0l1.1-12.71h0l1.1-12.91h0l1.1-13.11h0l1.1-13.31h0l1.1-13.52h0l1.1-13.73h0l.37-4.69"/>
          <g>
            <path class="uuid-9aac2db0-de79-463e-b36a-90733aae27bb" d="m676.51,300.41v18.5c0,.66.13,1.08.4,1.25.37.22,1.26.33,2.67.33h1.06v1.02c-.77-.07-2.55-.1-5.34-.1-2.79,0-4.57.03-5.34.1v-1.02h1.06c1.69,0,2.66-.2,2.9-.59l.03-.03c.09-.18.13-.49.13-.96v-17.08c-1.14.57-2.58.86-4.32.86v-1.02c2.64,0,4.64-.7,6-2.11.42,0,.66.08.73.23h0v.03c.02.07.03.26.03.59Z"/>
            <path class="uuid-9aac2db0-de79-463e-b36a-90733aae27bb" d="m698.47,310.96c0,3.21-.41,5.69-1.22,7.45-1.3,2.46-3.21,3.74-5.74,3.82-2,0-3.61-.79-4.81-2.37-.24-.29-.45-.6-.63-.96-.99-1.82-1.48-4.47-1.48-7.95,0-3.23.41-5.73,1.22-7.48,1.1-2.46,2.88-3.77,5.34-3.92h.4c1.96,0,3.55.78,4.78,2.34v.03c.31.4.58.84.82,1.32.88,1.87,1.32,4.44,1.32,7.72m-6.96,10.55h0c1.38,0,2.45-.67,3.2-2.01.31-.59.53-1.3.66-2.11.24-1.41.36-3.68.36-6.83s-.11-5.2-.33-6.43c-.4-2.09-1.41-3.34-3.03-3.76-.29-.07-.57-.1-.86-.1-1.54,0-2.66.77-3.36,2.31-.24.53-.43,1.17-.56,1.91-.18,1.19-.26,3.21-.26,6.07,0,3.32.12,5.64.36,6.96.4,2.11,1.36,3.4,2.9,3.86.31.09.62.13.92.13Z"/>
            <path class="uuid-9aac2db0-de79-463e-b36a-90733aae27bb" d="m707.5,300.93l-.78,3.16c-.26,1.05-.39,1.72-.39,2.03,0,.8.28,1.28.85,1.45.12.05.26.07.42.07.77,0,1.47-.38,2.1-1.15.42-.49.74-1.12.97-1.87.05-.17.15-.25.3-.25.18,0,.28.08.28.23,0,.38-.24.94-.72,1.66-.83,1.26-1.82,1.89-2.98,1.89-1.05,0-1.81-.44-2.29-1.32-.09-.14-.16-.28-.21-.44-.37.74-.88,1.25-1.52,1.55-.29.14-.59.21-.9.21-.92,0-1.57-.27-1.94-.81-.15-.2-.23-.44-.23-.72,0-.57.25-.97.74-1.2.17-.09.35-.14.53-.14.46,0,.74.19.83.58.02.08.02.15.02.23,0,.52-.26.91-.78,1.15-.09.05-.19.08-.3.09.32.2.71.3,1.15.3.82,0,1.46-.55,1.94-1.64.09-.23.18-.48.25-.76.83-3.14,1.25-4.97,1.25-5.49-.09-.95-.51-1.47-1.25-1.55-.8,0-1.53.41-2.19,1.22v.02s0,.02-.02.02c-.23.31-.44.66-.62,1.06-.08.18-.15.37-.21.55l-.05.14c-.03.17-.13.25-.3.25-.18,0-.28-.08-.28-.23,0-.38.25-.94.74-1.66.83-1.26,1.82-1.89,2.98-1.89s2.02.58,2.49,1.75c.49-.95,1.15-1.52,1.96-1.71.15-.03.31-.05.46-.05.91,0,1.55.25,1.92.76.15.22.23.47.23.76,0,.63-.28,1.05-.85,1.27-.14.05-.27.07-.39.07-.48,0-.76-.21-.85-.62-.02-.06-.02-.12-.02-.18,0-.46.22-.82.67-1.08.14-.08.28-.13.44-.16-.32-.2-.71-.3-1.15-.3-1.05,0-1.78.82-2.22,2.45-.03.09-.05.18-.07.28Z"/>
          </g>
          <path class="uuid-263d96d1-62ef-4502-a272-92fd5950dc56" d="m-197.42,902.91h0s0,0,0,0h1.1s1.1,0,1.1,0h1.1s1.1,0,1.1,0h1.1s1.1,0,1.1,0h1.1s1.1,0,1.1,0h1.1s1.1,0,1.1,0h1.1s1.1,0,1.1,0h1.1s1.1,0,1.1,0h1.1s1.1,0,1.1,0h1.1s1.1,0,1.1,0h1.1s1.1,0,1.1,0h1.1s1.1,0,1.1,0h1.1s1.1,0,1.1,0h1.1s1.1,0,1.1,0h1.1s1.1,0,1.1,0h1.1s1.1,0,1.1,0h1.1s1.1,0,1.1,0h1.1s1.1,0,1.1,0h1.1s1.1,0,1.1,0h1.1s1.1,0,1.1,0h1.1s1.1,0,1.1,0h1.1s1.1,0,1.1,0h1.1s1.1,0,1.1,0h1.1s1.1,0,1.1,0h1.1s1.1,0,1.1,0h1.1s1.1,0,1.1,0h1.1s1.1,0,1.1,0h1.1s1.1,0,1.1,0h1.1s1.1,0,1.1,0h1.1s1.1,0,1.1,0h1.1s1.1,0,1.1,0h1.1s1.1,0,1.1,0h1.1s1.1,0,1.1,0h1.1s1.1,0,1.1,0h1.1s1.1,0,1.1,0h1.1s1.1,0,1.1,0h1.1s1.1,0,1.1,0h1.1s1.1,0,1.1,0h1.1s1.1,0,1.1,0h1.1s1.1,0,1.1,0h1.1s1.1,0,1.1,0h1.1s1.1,0,1.1,0h1.1s1.1,0,1.1,0h1.1s1.1,0,1.1,0h1.1s1.1,0,1.1,0h1.1s1.1,0,1.1,0h1.1s1.1,0,1.1,0h1.1s1.1,0,1.1,0h1.1s1.1,0,1.1,0h1.1s1.1,0,1.1,0h1.1s1.1,0,1.1,0h1.1s1.1,0,1.1,0h1.1s1.1,0,1.1,0h1.1s1.1,0,1.1,0h1.1s1.1,0,1.1,0h1.1s1.1,0,1.1,0h1.1s1.1,0,1.1,0h1.1s1.1,0,1.1,0h1.1s1.1,0,1.1,0h1.1s1.1,0,1.1,0h1.1s1.1,0,1.1,0h1.1s1.1,0,1.1,0h1.1s1.1,0,1.1,0h1.1s1.1,0,1.1,0h1.1s1.1,0,1.1,0h1.1s1.1,0,1.1,0h1.1s1.1,0,1.1,0h1.1s1.1,0,1.1,0h1.1s1.1,0,1.1,0h1.1s1.1,0,1.1,0h1.1s1.1,0,1.1,0h1.1s1.1,0,1.1,0h1.1s1.1,0,1.1,0h1.1s1.1,0,1.1,0h1.1s1.1,0,1.1,0h1.1s1.1,0,1.1,0h1.1s1.1,0,1.1,0h1.1s1.1,0,1.1,0h1.1s1.1,0,1.1,0h1.1s1.1,0,1.1,0h1.1s1.1,0,1.1,0h1.1s1.1,0,1.1,0h1.1s1.1,0,1.1,0h1.1s1.1,0,1.1,0h1.1s1.1,0,1.1,0h1.1s1.1,0,1.1,0h1.1s1.1,0,1.1,0h1.1s1.1,0,1.1,0h1.1s1.1,0,1.1,0h1.1s1.1,0,1.1,0H-.69s1.1,0,1.1,0h1.1s1.1,0,1.1,0h1.1s1.1,0,1.1,0h1.1s1.1,0,1.1,0h1.1s1.1,0,1.1,0h1.1s1.1,0,1.1,0h1.1s1.1,0,1.1,0h1.1s1.1,0,1.1,0h1.1s1.1,0,1.1,0h1.1s1.1,0,1.1,0h1.1s1.1,0,1.1,0h1.1s1.1,0,1.1,0h1.1s1.1,0,1.1,0h1.1s1.1-.01,1.1-.01h1.1s1.1-.01,1.1-.01h1.1s1.1-.01,1.1-.01h1.1s1.1-.01,1.1-.01h1.1s1.1-.01,1.1-.01h1.1s1.1-.01,1.1-.01h1.1s1.1-.01,1.1-.01h1.1s1.1-.01,1.1-.01h1.1s1.1-.01,1.1-.01h1.1s1.1-.01,1.1-.01h1.1s1.1-.01,1.1-.01h1.1s1.1-.01,1.1-.01h1.1s1.1-.01,1.1-.01h1.1s1.1-.01,1.1-.01h1.1s1.1-.01,1.1-.01h1.1s1.1-.01,1.1-.01h1.1s1.1-.01,1.1-.01h1.1s1.1-.01,1.1-.01h1.1s1.1-.01,1.1-.01h1.1s1.1-.02,1.1-.02h1.1s1.1-.02,1.1-.02h1.1s1.1-.02,1.1-.02h1.1s1.1-.02,1.1-.02h1.1s1.1-.02,1.1-.02h1.1s1.1-.02,1.1-.02h1.1s1.1-.02,1.1-.02h1.1s1.1-.02,1.1-.02h1.1s1.1-.02,1.1-.02h1.1s1.1-.02,1.1-.02h1.1s1.1-.02,1.1-.02h1.1s1.1-.02,1.1-.02h1.1s1.1-.02,1.1-.02h1.1s1.1-.02,1.1-.02h1.1s1.1-.02,1.1-.02h1.1s1.1-.02,1.1-.02h1.1s1.1-.02,1.1-.02h1.1s1.1-.02,1.1-.02h1.1s1.1-.02,1.1-.02h1.1s1.1-.02,1.1-.02h1.1s1.1-.02,1.1-.02h1.1s1.1-.02,1.1-.02h1.1s1.1-.02,1.1-.02h1.1s1.1-.02,1.1-.02h1.1s1.1-.03,1.1-.03h1.1s1.1-.03,1.1-.03h1.1s1.1-.03,1.1-.03h1.1s1.1-.03,1.1-.03h1.1s1.1-.03,1.1-.03h1.1s1.1-.03,1.1-.03h1.1s1.1-.03,1.1-.03h1.1s1.1-.03,1.1-.03h1.1s1.1-.03,1.1-.03h0l1.1-.02h0l1.1-.02h0l1.1-.02h0l1.1-.02h0l1.1-.02h0l1.1-.02h0l1.1-.02h0l1.1-.02h0l1.1-.02h0l1.1-.02h0l1.1-.02h0l1.1-.02h0l1.1-.02h0l1.1-.02h0l1.1-.02h0l1.1-.02h0l1.1-.02h0l1.1-.02h0l1.1-.02h0l1.1-.02h0l1.1-.02h0l1.1-.02h0l1.1-.02h0l1.1-.02h0l1.1-.02h0l1.1-.02h0l1.1-.02h0l1.1-.02h0l1.1-.02h0l1.1-.02h0l1.1-.02h0l1.1-.02h0l1.1-.02h0l1.1-.02h0l1.1-.02h0l1.1-.02h0l1.1-.02h0l1.1-.02h0l1.1-.02h0l1.1-.02h0l1.1-.02h0l1.1-.02h0l1.1-.02h0l1.1-.02h0l1.1-.02h0l1.1-.02h0l1.1-.03h0l1.1-.03h0l1.1-.03h0l1.1-.03h0l1.1-.03h0l1.1-.03h0l1.1-.03h0l1.1-.03h0l1.1-.03h0l1.1-.03h0l1.1-.03h0l1.1-.03h0l1.1-.03h0l1.1-.03h0l1.1-.03h0l1.1-.03h0l1.1-.03h0l1.1-.03h0l1.1-.03h0l1.1-.03h0l1.1-.03h0l1.1-.03h0l1.1-.03h0l1.1-.03h0l1.1-.03h0l1.1-.03h0l1.1-.03h0l1.1-.03h0l1.1-.03h0l1.1-.03h0l1.1-.03h0l1.1-.04h0l1.1-.04h0l1.1-.04h0l1.1-.04h0l1.1-.04h0l1.1-.04h0l1.1-.04h0l1.1-.04h0l1.1-.04h0l1.1-.04h0l1.1-.04h0l1.1-.04h0l1.1-.04h0l1.1-.04h0l1.1-.04h0l1.1-.04h0l1.1-.04h0l1.1-.04h0l1.1-.04h0l1.1-.04h0l1.1-.04h0l1.1-.04h0l1.1-.04h0l1.1-.04h0l1.1-.05h0l1.1-.05h0l1.1-.05h0l1.1-.05h0l1.1-.05h0l1.1-.05h0l1.1-.05h0l1.1-.05h0l1.1-.05h0l1.1-.05h0l1.1-.05h0l1.1-.05h0l1.1-.05h0l1.1-.05h0l1.1-.05h0l1.1-.05h0l1.1-.05h0l1.1-.05h0l1.1-.06h0l1.1-.06h0l1.1-.06h0l1.1-.06h0l1.1-.06h0l1.1-.06h0l1.1-.06h0l1.1-.06h0l1.1-.06h0l1.1-.06h0l1.1-.06h0l1.1-.06h0l1.1-.06h0l1.1-.06h0l1.1-.06h0l1.1-.06h0l1.1-.07h0l1.1-.07h0l1.1-.07h0l1.1-.07h0l1.1-.07h0l1.1-.07h0l1.1-.07h0l1.1-.07h0l1.1-.07h0l1.1-.07h0l1.1-.07h0l1.1-.07h0l1.1-.07h0l1.1-.08h0l1.1-.08h0l1.1-.08h0l1.1-.08h0l1.1-.08h0l1.1-.08h0l1.1-.08h0l1.1-.08h0l1.1-.08h0l1.1-.08h0l1.1-.08h0l1.1-.08h0l1.1-.09h0l1.1-.09h0l1.1-.09h0l1.1-.09h0l1.1-.09h0l1.1-.09h0l1.1-.09h0l1.1-.09h0l1.1-.09h0l1.1-.09h0l1.1-.1h0l1.1-.1h0l1.1-.1h0l1.1-.1h0l1.1-.1h0l1.1-.1h0l1.1-.1h0l1.1-.1h0l1.1-.1h0l1.1-.1h0l1.1-.11h0l1.1-.11h0l1.1-.11h0l1.1-.11h0l1.1-.11h0l1.1-.11h0l1.1-.11h0l1.1-.11h0l1.1-.12h0l1.1-.12h0l1.1-.12h0l1.1-.12h0l1.1-.12h0l1.1-.12h0l1.1-.12h0l1.1-.12h0l1.1-.13h0l1.1-.13h0l1.1-.13h0l1.1-.13h0l1.1-.13h0l1.1-.13h0l1.1-.13h0l1.1-.14h0l1.1-.14h0l1.1-.14h0l1.1-.14h0l1.1-.14h0l1.1-.14h0l1.1-.14h0l1.1-.15h0l1.1-.15h0l1.1-.15h0l1.1-.15h0l1.1-.15h0l1.1-.15h0l1.1-.16h0l1.1-.16h0l1.1-.16h0l1.1-.16h0l1.1-.16h0l1.1-.16h0l1.1-.17h0l1.1-.17h0l1.1-.17h0l1.1-.17h0l1.1-.17h0l1.1-.18h0l1.1-.18h0l1.1-.18h0l1.1-.18h0l1.1-.18h0l1.1-.19h0l1.1-.19h0l1.1-.19h0l1.1-.19h0l1.1-.19h0l1.1-.2h0l1.1-.2h0l1.1-.2h0l1.1-.2h0l1.1-.2h0l1.1-.21h0l1.1-.21h0l1.1-.21h0l1.1-.21h0l1.1-.22h0l1.1-.22h0l1.1-.22h0l1.1-.22h0l1.1-.22h0l1.1-.23h0l1.1-.23h0l1.1-.23h0l1.1-.23h0l1.1-.24h0l1.1-.24h0l1.1-.24h0l1.1-.24h0l1.1-.25h0l1.1-.25h0l1.1-.25h0l1.1-.26h0l1.1-.26h0l1.1-.26h0l1.1-.26h0l1.1-.27h0l1.1-.27h0l1.1-.27h0l1.1-.28h0l1.1-.28h0l1.1-.28h0l1.1-.28h0l1.1-.29h0l1.1-.29h0l1.1-.29h0l1.1-.3h0l1.1-.3h0l1.1-.3h0l1.1-.31h0l1.1-.31h0l1.1-.31h0l1.1-.32h0l1.1-.32h0l1.1-.32h0l1.1-.33h0l1.1-.33h0l1.1-.33h0l1.1-.34h0l1.1-.34h0l1.1-.35h0l1.1-.35h0l1.1-.35h0l1.1-.36h0l1.1-.36h0l1.1-.36h0l1.1-.37h0l1.1-.37h0l1.1-.38h0l1.1-.38h0l1.1-.38h0l1.1-.39h0l1.1-.39h0l1.1-.4h0l1.1-.4h0l1.1-.41h0l1.1-.41h0l1.1-.41h0l1.1-.42h0l1.1-.42h0l1.1-.43h0l1.1-.43h0l1.1-.44h0l1.1-.44h0l1.1-.45h0l1.1-.45h0l1.1-.46h0l1.1-.46h0l1.1-.47h0l1.1-.47h0l1.1-.48h0l1.1-.48h0l1.1-.49h0l1.1-.49h0l1.1-.5h0l1.1-.5h0l1.1-.51h0l1.1-.51h0l1.1-.52h0l1.1-.53h0l1.1-.53h0l1.1-.54h0l1.1-.54h0l1.1-.55h0l1.1-.55h0l1.1-.56h0l1.1-.57h0l1.1-.57h0l1.1-.58h0l1.1-.58h0l1.1-.59h0l1.1-.6h0l1.1-.6h0l1.1-.61h0l1.1-.62h0l1.1-.62h0l1.1-.63h0l1.1-.64h0l1.1-.64h0l1.1-.65h0l1.1-.66h0l1.1-.67h0l1.1-.67h0l1.1-.68h0l1.1-.69h0l1.1-.69h0l1.1-.7h0l1.1-.71h0l1.1-.72h0l1.1-.73h0l1.1-.73h0l1.1-.74h0l1.1-.75h0l1.1-.76h0l1.1-.77h0l1.1-.77h0l1.1-.78h0l1.1-.79h0l1.1-.8h0l1.1-.81h0l1.1-.82h0l1.1-.82h0l1.1-.83h0l1.1-.84h0l1.1-.85h0l1.1-.86h0l1.1-.87h0l1.1-.88h0l1.1-.89h0l1.1-.9h0l1.1-.91h0l1.1-.92h0l1.1-.93h0l1.1-.94h0l1.1-.95h0l1.1-.96h0l1.1-.97h0l1.1-.98h0l1.1-.99h0l1.1-1h0l1.1-1.01h0l1.1-1.02h0l1.1-1.03h0l1.1-1.04h0l1.1-1.06h0l1.1-1.07h0l1.1-1.08h0l1.1-1.09h0l1.1-1.1h0l1.1-1.11h0l1.1-1.13h0l1.1-1.14h0l1.1-1.15h0l1.1-1.16h0l1.1-1.18h0l1.1-1.19h0l1.1-1.2h0l1.1-1.21h0l1.1-1.23h0l1.1-1.24h0l1.1-1.25h0l1.1-1.27h0l1.1-1.28h0l1.1-1.3h0l1.1-1.31h0l1.1-1.32h0l1.1-1.34h0l1.1-1.35h0l1.1-1.37h0l1.1-1.38h0l1.1-1.4h0l1.1-1.41h0l1.1-1.43h0l1.1-1.44h0l1.1-1.46h0l1.1-1.47h0l1.1-1.49h0l1.1-1.51h0l1.1-1.52h0l1.1-1.54h0l1.1-1.55h0l1.1-1.57h0l1.1-1.59h0l1.1-1.61h0l1.1-1.62h0l1.1-1.64h0l1.1-1.66h0l1.1-1.68h0l1.1-1.69h0l1.1-1.71h0l1.1-1.73h0l1.1-1.75h0l1.1-1.77h0l1.1-1.79h0l1.1-1.81h0l1.1-1.83h0l1.1-1.85h0l1.1-1.87h0l1.1-1.89h0l1.1-1.91h0l1.1-1.93h0l1.1-1.95h0l1.1-1.97h0l1.1-1.99h0l1.1-2.01h0l1.1-2.03h0l1.1-2.06h0l1.1-2.08h0l1.1-2.1h0l1.1-2.12h0l1.1-2.15h0l1.1-2.17h0l1.1-2.19h0l1.1-2.22h0l1.1-2.24h0l1.1-2.26h0l1.1-2.29h0l1.1-2.31h0l1.1-2.34h0l1.1-2.36h0l1.1-2.39h0l1.1-2.42h0l1.1-2.44h0l1.1-2.47h0l1.1-2.49h0l1.1-2.52h0l1.1-2.55h0l1.1-2.58h0l1.1-2.6h0l1.1-2.63h0l1.1-2.66h0l1.1-2.69h0l1.1-2.72h0l1.1-2.75h0l1.1-2.78h0l1.1-2.81h0l1.1-2.84h0l1.1-2.87h0l1.1-2.9h0l1.1-2.93h0l1.1-2.96h0l1.1-2.99h0l1.1-3.03h0l1.1-3.06h0l1.1-3.09h0l1.1-3.13h0l1.1-3.16h0l1.1-3.19h0l1.1-3.23h0l1.1-3.26h0l1.1-3.3h0l1.1-3.33h0l1.1-3.37h0l1.1-3.41h0l1.1-3.44h0l1.1-3.48h0l1.1-3.52h0l1.1-3.56h0l1.1-3.59h0l1.1-3.63h0l1.1-3.67h0l1.1-3.71h0l1.1-3.75h0l1.1-3.79h0l1.1-3.83h0l1.1-3.88h0l1.1-3.92h0l1.1-3.96h0l1.1-4h0l1.1-4.05h0l1.1-4.09h0l1.1-4.13h0l1.1-4.18h0l1.1-4.22h0l1.1-4.27h0l1.1-4.32h0l1.1-4.36h0l1.1-4.41h0l1.1-4.46h0l1.1-4.5h0l1.1-4.55h0l1.1-4.6h0l1.1-4.65h0l1.1-4.7h0l1.1-4.75h0l1.1-4.8h0l1.1-4.86h0l1.1-4.91h0l1.1-4.96h0l1.1-5.02h0l1.1-5.07h0l1.1-5.12h0l1.1-5.18h0l1.1-5.24h0l1.1-5.29h0l1.1-5.35h0l1.1-5.41h0l1.1-5.47h0l1.1-5.52h0l1.1-5.58h0l1.1-5.64h0l1.1-5.71h0l1.1-5.77h0l1.1-5.83h0l1.1-5.89h0l1.1-5.96h0l1.1-6.02h0l1.1-6.09h0l1.1-6.15h0l1.1-6.22h0l1.1-6.28h0l1.1-6.35h0l1.1-6.42h0l1.1-6.49h0l1.1-6.56h0l1.1-6.63h0l1.1-6.7h0l1.1-6.78h0l1.1-6.85h0l1.1-6.92h0l1.1-7h0l1.1-7.07h0l1.1-7.15h0l1.1-7.23h0l1.1-7.31h0l1.1-7.38h0l1.1-7.46h0l1.1-7.54h0l1.1-7.63h0l1.1-7.71h0l1.1-7.79h0l1.1-7.88h0l1.1-7.96h0l1.1-8.05h0l1.1-8.13h0l1.1-8.22h0l1.1-8.31h0l1.1-8.4h0l1.1-8.49h0l1.1-8.58h0l1.1-8.68h0l1.1-8.77h0l1.1-8.86h0l1.1-8.96h0l1.1-9.06h0l1.1-9.15h0l1.1-9.25h0l1.1-9.35h0l1.1-9.45h0l1.1-9.56h0l1.1-9.66h0l.08-.72"/>
          <g>
            <path class="uuid-13a64d55-e128-429d-aa64-7bdb2c5fb479" d="m772.49,384.99h0c0,2.26-.85,4.13-2.54,5.61-1.36,1.17-2.91,1.75-4.65,1.75-2.02,0-3.63-.85-4.81-2.54-.77-1.08-1.15-2.24-1.15-3.5,0-1.01.45-1.58,1.35-1.71.09-.02.18-.03.26-.03.81,0,1.34.36,1.58,1.09.04.18.07.35.07.53,0,.7-.31,1.19-.92,1.45-.22.11-.46.16-.73.16-.24,0-.43-.02-.56-.07.4,1.38,1.24,2.42,2.54,3.1.73.4,1.49.59,2.31.59,1.47,0,2.65-.71,3.53-2.14.53-.92.79-2.43.79-4.52,0-1.85-.2-3.23-.59-4.15-.62-1.41-1.55-2.11-2.8-2.11-1.78,0-3.2.77-4.25,2.31-.13.2-.27.3-.43.3-.29,0-.44-.15-.46-.46v-10.16c0-.51.11-.77.33-.79.09,0,.22.03.4.1,1.38.62,2.85.92,4.39.92s3.08-.32,4.48-.96c.11-.07.2-.1.26-.1.22,0,.33.12.33.36,0,.29-.35.75-1.06,1.38-1.49,1.36-3.26,2.04-5.31,2.04-.92,0-1.86-.14-2.8-.43v6.43c1.14-1.12,2.54-1.68,4.19-1.68,1.93,0,3.53.85,4.78,2.54.99,1.34,1.48,2.9,1.48,4.68Z"/>
            <path class="uuid-13a64d55-e128-429d-aa64-7bdb2c5fb479" d="m781.88,371.03l-.78,3.16c-.26,1.05-.39,1.72-.39,2.03,0,.8.28,1.28.85,1.45.12.05.26.07.42.07.77,0,1.47-.38,2.1-1.15.42-.49.74-1.12.97-1.87.05-.17.15-.25.3-.25.18,0,.28.08.28.23,0,.38-.24.94-.72,1.66-.83,1.26-1.82,1.89-2.98,1.89-1.05,0-1.81-.44-2.29-1.32-.09-.14-.16-.28-.21-.44-.37.74-.88,1.25-1.52,1.55-.29.14-.59.21-.9.21-.92,0-1.57-.27-1.94-.81-.15-.2-.23-.44-.23-.72,0-.57.25-.97.74-1.2.17-.09.35-.14.53-.14.46,0,.74.19.83.58.02.08.02.15.02.23,0,.52-.26.91-.78,1.15-.09.05-.19.08-.3.09.32.2.71.3,1.15.3.82,0,1.46-.55,1.94-1.64.09-.23.18-.48.25-.76.83-3.14,1.25-4.97,1.25-5.49-.09-.95-.51-1.47-1.25-1.55-.8,0-1.53.41-2.19,1.22v.02s0,.02-.02.02c-.23.31-.44.66-.62,1.06-.08.18-.15.37-.21.55l-.05.14c-.03.17-.13.25-.3.25-.18,0-.28-.08-.28-.23,0-.38.25-.94.74-1.66.83-1.26,1.82-1.89,2.98-1.89s2.02.58,2.49,1.75c.49-.95,1.15-1.52,1.96-1.71.15-.03.31-.05.46-.05.91,0,1.55.25,1.92.76.15.22.23.47.23.76,0,.63-.28,1.05-.85,1.27-.14.05-.27.07-.39.07-.48,0-.76-.21-.85-.62-.02-.06-.02-.12-.02-.18,0-.46.22-.82.67-1.08.14-.08.28-.13.44-.16-.32-.2-.71-.3-1.15-.3-1.05,0-1.78.82-2.22,2.45-.03.09-.05.18-.07.28Z"/>
          </g>
          <path class="uuid-dc41ba1d-af01-4de9-93d3-f47cb6762340" d="m-197.42,897.85v.02-.02l1.1-.02h0l1.1-.02h0l1.1-.02h0l1.1-.02h0l1.1-.02h0l1.1-.02h0l1.1-.02h0l1.1-.02h0l1.1-.02h0l1.1-.02h0l1.1-.02h0l1.1-.02h0l1.1-.03h0l1.1-.03h0l1.1-.03h0l1.1-.03h0l1.1-.03h0l1.1-.03h0l1.1-.03h0l1.1-.03h0l1.1-.03h0l1.1-.03h0l1.1-.03h0l1.1-.03h0l1.1-.03h0l1.1-.03h0l1.1-.03h0l1.1-.03h0l1.1-.03h0l1.1-.03h0l1.1-.03h0l1.1-.03h0l1.1-.03h0l1.1-.03h0l1.1-.03h0l1.1-.03h0l1.1-.03h0l1.1-.03h0l1.1-.03h0l1.1-.03h0l1.1-.03h0l1.1-.03h0l1.1-.03h0l1.1-.03h0l1.1-.03h0l1.1-.03h0l1.1-.03h0l1.1-.03h0l1.1-.03h0l1.1-.03h0l1.1-.03h0l1.1-.03h0l1.1-.03h0l1.1-.03h0l1.1-.03h0l1.1-.03h0l1.1-.03h0l1.1-.03h0l1.1-.03h0l1.1-.03h0l1.1-.03h0l1.1-.03h0l1.1-.03h0l1.1-.03h0l1.1-.03h0l1.1-.03h0l1.1-.03h0l1.1-.03h0l1.1-.03h0l1.1-.03h0l1.1-.03h0l1.1-.03h0l1.1-.03h0l1.1-.03h0l1.1-.03h0l1.1-.03h0l1.1-.03h0l1.1-.03h0l1.1-.03h0l1.1-.03h0l1.1-.03h0l1.1-.03h0l1.1-.03h0l1.1-.03h0l1.1-.03h0l1.1-.04h0l1.1-.04h0l1.1-.04h0l1.1-.04h0l1.1-.04h0l1.1-.04h0l1.1-.04h0l1.1-.04h0l1.1-.04h0l1.1-.04h0l1.1-.04h0l1.1-.04h0l1.1-.04h0l1.1-.04h0l1.1-.04h0l1.1-.04h0l1.1-.04h0l1.1-.04h0l1.1-.04h0l1.1-.04h0l1.1-.04h0l1.1-.04h0l1.1-.04h0l1.1-.04h0l1.1-.04h0l1.1-.04h0l1.1-.04h0l1.1-.04h0l1.1-.04h0l1.1-.04h0l1.1-.04h0l1.1-.04h0l1.1-.04h0l1.1-.04h0l1.1-.04h0l1.1-.04h0l1.1-.04h0l1.1-.04h0l1.1-.04h0l1.1-.04h0l1.1-.04h0l1.1-.04h0l1.1-.04h0l1.1-.04h0l1.1-.04h0l1.1-.04h0l1.1-.04h0l1.1-.04h0l1.1-.04h0l1.1-.04h0l1.1-.04h0l1.1-.04h0l1.1-.04h0l1.1-.04h0l1.1-.05h0l1.1-.05h0l1.1-.05h0l1.1-.05h0l1.1-.05h0l1.1-.05h0l1.1-.05h0l1.1-.05h0l1.1-.05h0l1.1-.05h0l1.1-.05h0l1.1-.05h0l1.1-.05h0l1.1-.05h0l1.1-.05h0l1.1-.05h0l1.1-.05h0l1.1-.05h0l1.1-.05h0l1.1-.05h0l1.1-.05h0l1.1-.05h0l1.1-.05h0l1.1-.05h0l1.1-.05h0l1.1-.05h0l1.1-.05h0l1.1-.05h0l1.1-.05h0l1.1-.05h0l1.1-.05h0l1.1-.05h0l1.1-.05h0l1.1-.05h0l1.1-.05h0l1.1-.05h0l1.1-.05h0l1.1-.05h0l1.1-.05h0l1.1-.05h0l1.1-.05H.41l1.1-.05h0l1.1-.05h0l1.1-.06h0l1.1-.06h0l1.1-.06h0l1.1-.06h0l1.1-.06h0l1.1-.06h0l1.1-.06h0l1.1-.06h0l1.1-.06h0l1.1-.06h0l1.1-.06h0l1.1-.06h0l1.1-.06h0l1.1-.06h0l1.1-.06h0l1.1-.06h0l1.1-.06h0l1.1-.06h0l1.1-.06h0l1.1-.06h0l1.1-.06h0l1.1-.06h0l1.1-.06h0l1.1-.06h0l1.1-.06h0l1.1-.06h0l1.1-.06h0l1.1-.06h0l1.1-.06h0l1.1-.06h0l1.1-.06h0l1.1-.06h0l1.1-.06h0l1.1-.06h0l1.1-.06h0l1.1-.06h0l1.1-.07h0l1.1-.07h0l1.1-.07h0l1.1-.07h0l1.1-.07h0l1.1-.07h0l1.1-.07h0l1.1-.07h0l1.1-.07h0l1.1-.07h0l1.1-.07h0l1.1-.07h0l1.1-.07h0l1.1-.07h0l1.1-.07h0l1.1-.07h0l1.1-.07h0l1.1-.07h0l1.1-.07h0l1.1-.07h0l1.1-.07h0l1.1-.07h0l1.1-.07h0l1.1-.07h0l1.1-.07h0l1.1-.07h0l1.1-.07h0l1.1-.07h0l1.1-.07h0l1.1-.07h0l1.1-.07h0l1.1-.07h0l1.1-.08h0l1.1-.08h0l1.1-.08h0l1.1-.08h0l1.1-.08h0l1.1-.08h0l1.1-.08h0l1.1-.08h0l1.1-.08h0l1.1-.08h0l1.1-.08h0l1.1-.08h0l1.1-.08h0l1.1-.08h0l1.1-.08h0l1.1-.08h0l1.1-.08h0l1.1-.08h0l1.1-.08h0l1.1-.08h0l1.1-.08h0l1.1-.08h0l1.1-.08h0l1.1-.08h0l1.1-.08h0l1.1-.08h0l1.1-.08h0l1.1-.09h0l1.1-.09h0l1.1-.09h0l1.1-.09h0l1.1-.09h0l1.1-.09h0l1.1-.09h0l1.1-.09h0l1.1-.09h0l1.1-.09h0l1.1-.09h0l1.1-.09h0l1.1-.09h0l1.1-.09h0l1.1-.09h0l1.1-.09h0l1.1-.09h0l1.1-.09h0l1.1-.09h0l1.1-.09h0l1.1-.09h0l1.1-.09h0l1.1-.09h0l1.1-.09h0l1.1-.1h0l1.1-.1h0l1.1-.1h0l1.1-.1h0l1.1-.1h0l1.1-.1h0l1.1-.1h0l1.1-.1h0l1.1-.1h0l1.1-.1h0l1.1-.1h0l1.1-.1h0l1.1-.1h0l1.1-.1h0l1.1-.1h0l1.1-.1h0l1.1-.1h0l1.1-.1h0l1.1-.1h0l1.1-.1h0l1.1-.1h0l1.1-.11h0l1.1-.11h0l1.1-.11h0l1.1-.11h0l1.1-.11h0l1.1-.11h0l1.1-.11h0l1.1-.11h0l1.1-.11h0l1.1-.11h0l1.1-.11h0l1.1-.11h0l1.1-.11h0l1.1-.11h0l1.1-.11h0l1.1-.11h0l1.1-.11h0l1.1-.11h0l1.1-.11h0l1.1-.11h0l1.1-.12h0l1.1-.12h0l1.1-.12h0l1.1-.12h0l1.1-.12h0l1.1-.12h0l1.1-.12h0l1.1-.12h0l1.1-.12h0l1.1-.12h0l1.1-.12h0l1.1-.12h0l1.1-.12h0l1.1-.12h0l1.1-.12h0l1.1-.12h0l1.1-.12h0l1.1-.12h0l1.1-.13h0l1.1-.13h0l1.1-.13h0l1.1-.13h0l1.1-.13h0l1.1-.13h0l1.1-.13h0l1.1-.13h0l1.1-.13h0l1.1-.13h0l1.1-.13h0l1.1-.13h0l1.1-.13h0l1.1-.13h0l1.1-.13h0l1.1-.13h0l1.1-.13h0l1.1-.14h0l1.1-.14h0l1.1-.14h0l1.1-.14h0l1.1-.14h0l1.1-.14h0l1.1-.14h0l1.1-.14h0l1.1-.14h0l1.1-.14h0l1.1-.14h0l1.1-.14h0l1.1-.14h0l1.1-.14h0l1.1-.14h0l1.1-.15h0l1.1-.15h0l1.1-.15h0l1.1-.15h0l1.1-.15h0l1.1-.15h0l1.1-.15h0l1.1-.15h0l1.1-.15h0l1.1-.15h0l1.1-.15h0l1.1-.15h0l1.1-.15h0l1.1-.15h0l1.1-.16h0l1.1-.16h0l1.1-.16h0l1.1-.16h0l1.1-.16h0l1.1-.16h0l1.1-.16h0l1.1-.16h0l1.1-.16h0l1.1-.16h0l1.1-.16h0l1.1-.16h0l1.1-.16h0l1.1-.16h0l1.1-.17h0l1.1-.17h0l1.1-.17h0l1.1-.17h0l1.1-.17h0l1.1-.17h0l1.1-.17h0l1.1-.17h0l1.1-.17h0l1.1-.17h0l1.1-.17h0l1.1-.17h0l1.1-.17h0l1.1-.18h0l1.1-.18h0l1.1-.18h0l1.1-.18h0l1.1-.18h0l1.1-.18h0l1.1-.18h0l1.1-.18h0l1.1-.18h0l1.1-.18h0l1.1-.18h0l1.1-.18h0l1.1-.19h0l1.1-.19h0l1.1-.19h0l1.1-.19h0l1.1-.19h0l1.1-.19h0l1.1-.19h0l1.1-.19h0l1.1-.19h0l1.1-.19h0l1.1-.19h0l1.1-.2h0l1.1-.2h0l1.1-.2h0l1.1-.2h0l1.1-.2h0l1.1-.2h0l1.1-.2h0l1.1-.2h0l1.1-.2h0l1.1-.2h0l1.1-.2h0l1.1-.21h0l1.1-.21h0l1.1-.21h0l1.1-.21h0l1.1-.21h0l1.1-.21h0l1.1-.21h0l1.1-.21h0l1.1-.21h0l1.1-.21h0l1.1-.22h0l1.1-.22h0l1.1-.22h0l1.1-.22h0l1.1-.22h0l1.1-.22h0l1.1-.22h0l1.1-.22h0l1.1-.22h0l1.1-.22h0l1.1-.23h0l1.1-.23h0l1.1-.23h0l1.1-.23h0l1.1-.23h0l1.1-.23h0l1.1-.23h0l1.1-.23h0l1.1-.23h0l1.1-.24h0l1.1-.24h0l1.1-.24h0l1.1-.24h0l1.1-.24h0l1.1-.24h0l1.1-.24h0l1.1-.24h0l1.1-.24h0l1.1-.25h0l1.1-.25h0l1.1-.25h0l1.1-.25h0l1.1-.25h0l1.1-.25h0l1.1-.25h0l1.1-.25h0l1.1-.25h0l1.1-.26h0l1.1-.26h0l1.1-.26h0l1.1-.26h0l1.1-.26h0l1.1-.26h0l1.1-.26h0l1.1-.26h0l1.1-.27h0l1.1-.27h0l1.1-.27h0l1.1-.27h0l1.1-.27h0l1.1-.27h0l1.1-.27h0l1.1-.27h0l1.1-.28h0l1.1-.28h0l1.1-.28h0l1.1-.28h0l1.1-.28h0l1.1-.28h0l1.1-.28h0l1.1-.28h0l1.1-.29h0l1.1-.29h0l1.1-.29h0l1.1-.29h0l1.1-.29h0l1.1-.29h0l1.1-.29h0l1.1-.3h0l1.1-.3h0l1.1-.3h0l1.1-.3h0l1.1-.3h0l1.1-.3h0l1.1-.3h0l1.1-.3h0l1.1-.31h0l1.1-.31h0l1.1-.31h0l1.1-.31h0l1.1-.31h0l1.1-.31h0l1.1-.31h0l1.1-.32h0l1.1-.32h0l1.1-.32h0l1.1-.32h0l1.1-.32h0l1.1-.32h0l1.1-.33h0l1.1-.33h0l1.1-.33h0l1.1-.33h0l1.1-.33h0l1.1-.33h0l1.1-.33h0l1.1-.34h0l1.1-.34h0l1.1-.34h0l1.1-.34h0l1.1-.34h0l1.1-.34h0l1.1-.35h0l1.1-.35h0l1.1-.35h0l1.1-.35h0l1.1-.35h0l1.1-.35h0l1.1-.36h0l1.1-.36h0l1.1-.36h0l1.1-.36h0l1.1-.36h0l1.1-.36h0l1.1-.37h0l1.1-.37h0l1.1-.37h0l1.1-.37h0l1.1-.37h0l1.1-.37h0l1.1-.38h0l1.1-.38h0l1.1-.38h0l1.1-.38h0l1.1-.38h0l1.1-.38h0l1.1-.39h0l1.1-.39h0l1.1-.39h0l1.1-.39h0l1.1-.39h0l1.1-.39h0l1.1-.4h0l1.1-.4h0l1.1-.4h0l1.1-.4h0l1.1-.4h0l1.1-.41h0l1.1-.41h0l1.1-.41h0l1.1-.41h0l1.1-.41h0l1.1-.42h0l1.1-.42h0l1.1-.42h0l1.1-.42h0l1.1-.42h0l1.1-.43h0l1.1-.43h0l1.1-.43h0l1.1-.43h0l1.1-.43h0l1.1-.44h0l1.1-.44h0l1.1-.44h0l1.1-.44h0l1.1-.44h0l1.1-.45h0l1.1-.45h0l1.1-.45h0l1.1-.45h0l1.1-.45h0l1.1-.46h0l1.1-.46h0l1.1-.46h0l1.1-.46h0l1.1-.46h0l1.1-.47h0l1.1-.47h0l1.1-.47h0l1.1-.47h0l1.1-.48h0l1.1-.48h0l1.1-.48h0l1.1-.48h0l1.1-.48h0l1.1-.49h0l1.1-.49h0l1.1-.49h0l1.1-.49h0l1.1-.5h0l1.1-.5h0l1.1-.5h0l1.1-.5h0l1.1-.5h0l1.1-.51h0l1.1-.51h0l1.1-.51h0l1.1-.51h0l1.1-.52h0l1.1-.52h0l1.1-.52h0l1.1-.52h0l1.1-.53h0l1.1-.53h0l1.1-.53h0l1.1-.53h0l1.1-.54h0l1.1-.54h0l1.1-.54h0l1.1-.54h0l1.1-.55h0l1.1-.55h0l1.1-.55h0l1.1-.55h0l1.1-.56h0l1.1-.56h0l1.1-.56h0l1.1-.56h0l1.1-.57h0l1.1-.57h0l1.1-.57h0l1.1-.57h0l1.1-.58h0l1.1-.58h0l1.1-.58h0l1.1-.59h0l1.1-.59h0l1.1-.59h0l1.1-.59h0l1.1-.6h0l1.1-.6h0l1.1-.6h0l1.1-.6h0l1.1-.61h0l1.1-.61h0l1.1-.61h0l1.1-.62h0l1.1-.62h0l1.1-.62h0l1.1-.62h0l1.1-.63h0l1.1-.63h0l1.1-.63h0l1.1-.64h0l1.1-.64h0l1.1-.64h0l1.1-.64h0l1.1-.65h0l1.1-.65h0l1.1-.65h0l1.1-.66h0l1.1-.66h0l1.1-.66h0l1.1-.67h0l1.1-.67h0l1.1-.67h0l1.1-.68h0l1.1-.68h0l1.1-.68h0l1.1-.68h0l1.1-.69h0l1.1-.69h0l1.1-.69h0l1.1-.7h0l1.1-.7h0l1.1-.7h0l1.1-.71h0l1.1-.71h0l1.1-.71h0l1.1-.72h0l1.1-.72h0l1.1-.72h0l1.1-.73h0l1.1-.73h0l1.1-.73h0l1.1-.74h0l1.1-.74h0l1.1-.74h0l1.1-.75h0l1.1-.75h0l1.1-.75h0l1.1-.76h0l1.1-.76h0l1.1-.77h0l1.1-.77h0l1.1-.77h0l1.1-.78h0l1.1-.78h0l1.1-.78h0l1.1-.79h0l1.1-.79h0l1.1-.79h0l1.1-.8h0l1.1-.8h0l1.1-.81h0l1.1-.81h0l1.1-.81h0l1.1-.82h0l1.1-.82h0l1.1-.82h0l1.1-.83h0l1.1-.83h0l1.1-.84h0l1.1-.84h0l1.1-.84h0l1.1-.85h0l1.1-.85h0l1.1-.86h0l1.1-.86h0l1.1-.86h0l1.1-.87h0l1.1-.87h0l1.1-.88h0l1.1-.88h0l1.1-.88h0l1.1-.89h0l1.1-.89h0l1.1-.9h0l1.1-.9h0l1.1-.9h0l1.1-.91h0l1.1-.91h0l1.1-.92h0l1.1-.92h0l1.1-.93h0l1.1-.93h0l1.1-.93h0l1.1-.94h0l1.1-.94h0l1.1-.95h0l1.1-.95h0l1.1-.96h0l1.1-.96h0l1.1-.96h0l1.1-.97h0l1.1-.97h0l1.1-.98h0l1.1-.98h0l1.1-.99h0l1.1-.99h0l1.1-1h0l1.1-1h0l1.1-1.01h0l1.1-1.01h0l1.1-1.01h0l1.1-1.02h0l1.1-1.02h0l1.1-1.03h0l1.1-1.03h0l1.1-1.04h0l1.1-1.04h0l1.1-1.05h0l1.1-1.05h0l1.1-1.06h0l1.1-1.06h0l1.1-1.07h0l1.1-1.07h0l1.1-1.08h0l1.1-1.08h0l1.1-1.09h0l1.1-1.09h0l1.1-1.1h0l1.1-1.1h0l1.1-1.11h0l1.1-1.11h0l1.1-1.12h0l1.1-1.12h0l1.1-1.13h0l1.1-1.13h0l1.1-1.14h0l1.1-1.14h0l1.1-1.15h0l1.1-1.16h0l1.1-1.16h0l1.1-1.17h0l1.1-1.17h0l1.1-1.18h0l1.1-1.18h0l1.1-1.19h0l1.1-1.19h0l1.1-1.2h0l1.1-1.2h0l1.1-1.21h0l1.1-1.22h0l1.1-1.22h0l1.1-1.23h0l1.1-1.23h0l1.1-1.24h0l1.1-1.24h0l1.1-1.25h0l1.1-1.26h0l1.1-1.26h0l1.1-1.27h0l1.1-1.27h0l1.1-1.28h0l1.1-1.29h0l1.1-1.29h0l1.1-1.3h0l1.1-1.3h0l1.1-1.31h0l1.1-1.32h0l1.1-1.32h0l1.1-1.33h0l1.1-1.33h0l1.1-1.34h0l1.1-1.35h0l1.1-1.35h0l1.1-1.36h0l1.1-1.36h0l1.1-1.37h0l1.1-1.38h0l1.1-1.38h0l1.1-1.39h0l1.1-1.4h0l1.1-1.4h0l1.1-1.41h0l1.1-1.42h0l1.1-1.42h0l1.1-1.43h0l1.1-1.44h0l1.1-1.44h0l1.1-1.45h0l1.1-1.46h0l1.1-1.46h0l1.1-1.47h0l1.1-1.48h0l1.1-1.48h0l1.1-1.49h0l1.1-1.5h0l1.1-1.5h0l1.1-1.51h0l1.1-1.52h0l1.1-1.53h0l1.1-1.53h0l1.1-1.54h0l1.1-1.55h0l1.1-1.55h0l1.1-1.56h0l1.1-1.57h0l1.1-1.58h0l1.1-1.58h0l1.1-1.59h0l1.1-1.6h0l1.1-1.6h0l1.1-1.61h0l1.1-1.62h0l1.1-1.63h0l1.1-1.63h0l1.1-1.64h0l1.1-1.65h0l1.1-1.66h0l1.1-1.67h0l1.1-1.67h0l1.1-1.68h0l1.1-1.69h0l1.1-1.7h0l1.1-1.7h0l1.1-1.71h0l1.1-1.72h0l1.1-1.73h0l1.1-1.74h0l1.1-1.74h0l1.1-1.75h0l1.1-1.76h0l1.1-1.77h0l1.1-1.78h0l1.1-1.78h0l1.1-1.79h0l1.1-1.8h0l1.1-1.81h0l1.1-1.82h0l1.1-1.83h0l1.1-1.84h0l1.1-1.84h0l1.1-1.85h0l1.1-1.86h0l1.1-1.87h0l1.1-1.88h0l1.1-1.89h0l1.1-1.9h0l1.1-1.9h0l1.1-1.91h0l1.1-1.92h0l1.1-1.93h0l1.1-1.94h0l1.1-1.95h0l1.1-1.96h0l1.1-1.97h0l1.1-1.98h0l1.1-1.99h0l1.1-1.99h0l1.1-2h0l1.1-2.01h0l1.1-2.02h0l1.1-2.03h0l1.1-2.04h0l1.1-2.05h0l1.1-2.06h0l1.1-2.07h0l1.1-2.08h0l1.1-2.09h0l1.1-2.1h0l1.1-2.11h0l1.1-2.12h0l1.1-2.13h0l1.1-2.14h0l1.1-2.15h0l1.1-2.16h0l1.1-2.17h0l1.1-2.18h0l1.1-2.19h0l1.1-2.2h0l1.1-2.21h0l1.1-2.22h0l1.1-2.23h0l1.1-2.24h0l1.1-2.25h0l1.1-2.26h0l1.1-2.27h0l1.1-2.28h0l1.1-2.29h0l1.1-2.3h0l1.1-2.31h0l1.1-2.32h0l1.1-2.33h0l1.1-2.35h0l1.1-2.36h0l1.1-2.37h0l1.1-2.38h0l1.1-2.39h0l1.1-2.4h0l1.1-2.41h0l1.1-2.42h0l1.1-2.43h0l1.1-2.44h0l1.1-2.46h0l1.1-2.47h0l1.1-2.48h0l1.1-2.49h0l1.1-2.5h0l1.1-2.51h0l1.1-2.53h0l1.1-2.54h0l1.1-2.55h0l1.1-2.56h0l1.1-2.57h0l1.1-2.58h0l1.1-2.6h0l1.1-2.61h0l1.1-2.62h0l1.1-2.63h0l1.1-2.65h0l1.1-2.66h0l1.1-2.67h0l1.1-2.68h0l1.1-2.69h0l1.1-2.71h0l1.1-2.72h0l1.1-2.73h0l1.1-2.74h0l1.1-2.76h0l1.1-2.77h0l1.1-2.78h0l1.1-2.8h0l1.1-2.81h0l1.1-2.82h0l1.1-2.84h0l1.1-2.85h0l1.1-2.86h0l1.1-2.87h0l1.1-2.89h0l1.1-2.9h0l1.1-2.91h0l1.1-2.93h0l1.1-2.94h0l1.1-2.96h0l1.1-2.97h0l1.1-2.98h0l1.1-3h0l1.1-3.01h0l1.1-3.02h0l1.1-3.04h0l1.1-3.05h0l1.1-3.07h0l1.1-3.08h0l1.1-3.1h0l1.1-3.11h0l1.1-3.12h0l1.1-3.14h0l1.1-3.15h0l1.1-3.17h0l1.1-3.18h0l1.1-3.2h0l1.1-3.21h0l1.1-3.23h0l1.1-3.24h0l1.1-3.26h0l1.1-3.27h0l1.1-3.29h0l1.1-3.3h0l1.1-3.32h0l1.1-3.33h0l1.1-3.35h0l1.1-3.36h0l1.1-3.38h0l1.1-3.4h0l1.1-3.41h0l1.1-3.43h0l1.1-3.44h0l1.1-3.46h0l1.1-3.48h0l1.1-3.49h0l1.1-3.51h0l1.1-3.52h0l1.1-3.54h0l1.1-3.56h0l1.1-3.57h0l1.1-3.59h0l1.1-3.61h0l1.1-3.62h0l1.1-3.64h0l1.1-3.66h0l1.1-3.67h0l1.1-3.69h0l1.1-3.71h0l1.1-3.73h0l1.1-3.74h0l1.1-3.76h0l1.1-3.78h0l1.1-3.79h0l1.1-3.81h0l1.1-3.83h0l1.1-3.85h0l1.1-3.87h0l1.1-3.88h0l1.1-3.9h0l1.1-3.92h0l1.1-3.94h0l1.1-3.96h0l1.1-3.97h0l1.1-3.99h0l1.1-4.01h0l1.1-4.03h0l1.1-4.05h0l1.1-4.07h0l1.1-4.09h0l1.1-4.11h0l1.1-4.12h0l1.1-4.14h0l1.1-4.16h0l1.1-4.18h0l1.1-4.2h0l1.1-4.22h0l1.1-4.24h0l1.1-4.26h0l1.1-4.28h0l1.1-4.3h0l1.1-4.32h0l1.1-4.34h0l1.1-4.36h0l1.1-4.38h0l1.1-4.4h0l1.1-4.42h0l1.1-4.44h0l1.1-4.46h0l1.1-4.48h0l1.1-4.5h0l1.1-4.52h0l1.1-4.55h0l1.1-4.57h0l1.1-4.59h0l1.1-4.61h0l1.1-4.63h0l1.1-4.65h0l1.1-4.67h0l1.1-4.69h0l1.1-4.72h0l1.1-4.74h0l1.1-4.76h0l1.1-4.78h0l1.1-4.8h0l1.1-4.83h0l1.1-4.85h0l1.1-4.87h0l1.1-4.89h0l1.1-4.92h0l1.1-4.94h0l1.1-4.96h0l1.1-4.99h0l1.1-5.01h0l1.1-5.03h0l1.1-5.06h0l1.1-5.08h0l1.1-5.1h0l1.1-5.13h0l1.1-5.15h0l1.1-5.17h0l1.1-5.2h0l1.1-5.22h0l1.1-5.25h0l1.1-5.27h0l1.1-5.29h0l1.1-5.32h0l1.1-5.34h0l1.1-5.37h0l1.1-5.39h0l1.1-5.42h0l1.1-5.44h0l1.1-5.47h0l1.1-5.49h0l1.1-5.52h0l1.1-5.55h0l1.1-5.57h0l1.1-5.6h0l1.1-5.62h0l1.1-5.65h0l1.1-5.68h0l1.1-5.7h0l1.1-5.73h0l1.1-5.75h0l1.1-5.78h0l1.1-5.81h0l1.1-5.84h0l1.1-5.86h0l1.1-5.89h0l1.1-5.92h0l1.1-5.94h0l1.1-5.97h0l1.1-6h0l1.1-6.03h0l1.1-6.06h0l1.1-6.08h0l1.1-6.11h0l1.1-6.14h0l1.1-6.17h0l1.1-6.2h0l1.1-6.23h0l1.1-6.25h0l1.1-6.28h0l1.1-6.31h0l1.1-6.34h0l1.1-6.37h0l1.1-6.4h0l1.1-6.43h0l1.1-6.46h0l1.1-6.49h0l1.1-6.52h0l1.1-6.55h0l1.1-6.58h0l1.1-6.61h0l1.1-6.64h0l1.1-6.67h0l1.1-6.7h0l1.1-6.74h0l1.1-6.77h0l1.1-6.8h0l1.1-6.83h0l1.1-6.86h0l1.1-6.89h0l1.1-6.92h0l1.1-6.96h0l1.1-6.99h0l1.1-7.02h0l1.1-7.05h0l1.1-7.09h0l1.1-7.12h0l1.1-7.15h0l1.1-7.19h0l1.1-7.22h0l1.1-7.25h0l1.1-7.29h0l1.1-7.32h0l1.1-7.35h0l1.1-7.39h0l1.1-7.42h0l1.1-7.46h0l1.1-7.49h0l1.1-7.53h0l1.1-7.56h0l1.1-7.6h0l1.1-7.63h0l1.1-7.67h0l1.1-7.7h0l1.1-7.74h0l1.1-7.77h0l1.1-7.81h0l1.1-7.85h0l1.1-7.88h0l1.1-7.92h0l1.1-7.96h0l1.1-7.99h0l1.1-8.03h0l1.1-8.07h0l1.1-8.1h0l1.1-8.14h0l1.1-8.18h0l1.1-8.22h0l1.1-8.26h0l1.1-8.29h0l1.1-8.33h0l1.1-8.37h0l1.1-8.41h0l1.1-8.45h0l1.1-8.49h0l1.1-8.53h0l1.1-8.57h0l1.1-8.61h0l1.1-8.65h0l1.1-8.69h0l1.1-8.73h0l1.1-8.77h0l1.1-8.81h0l1.1-8.85h0l1.1-8.89h0l1.1-8.93h0l1.1-8.97h0l1.1-9.01h0l1.1-9.06h0l1.1-9.1h0l1.1-9.14h0l1.1-9.18h0l1.1-9.23h0l1.1-9.27h0l1.1-9.31h0l1.1-9.35h0l1.1-9.4h0l1.1-9.44h0l1.1-9.49h0l1.1-9.53h0l1.1-9.57h0l1.1-9.62h0l1.1-9.66h0l1.1-9.71h0l1.1-9.75h0l1.1-9.8h0l1.1-9.84h0l1.1-9.89h0l1.1-9.93h0l1.1-9.98h0l1.1-10.03h0l1.1-10.07h0l1.1-10.12h0l1.1-10.17h0l1.1-10.21h0l1.1-10.26h0l1.1-10.31h0l1.1-10.36h0l1.1-10.41h0l1.1-10.45h0l1.1-10.5h0l1.1-10.55h0l1.1-10.6h0l1.1-10.65h0l1.1-10.7h0l1.1-10.75h0l1.1-10.8h0l1.1-10.85h0l1.1-10.9h0l1.1-10.95h0l1.1-11h0l1.1-11.05h0l1.1-11.1h0l1.1-11.15h0l1.1-11.2h0l1.1-11.26h0l1.1-11.31h0l1.1-11.36h0l1.1-11.41h0l1.1-11.47h0l1.1-11.52h0l1.1-11.57h0l1.1-11.63h0l1.1-11.68h0l1.1-11.74h0l1.1-11.79h0l1.1-11.84h0l1.1-11.9h0l1.1-11.95h0l1.1-12.01h0l1.1-12.07h0l1.1-12.12h0l1.1-12.18h0l1.1-12.23h0l1.1-12.29h0l1.1-12.35h0l1.1-12.41h0l1.1-12.46h0l1.1-12.52h0l1.1-12.58h0l1.1-12.64h0l1.1-12.7h0l1.1-12.75h0l1.1-12.81h0l1.1-12.87h0l1.1-12.93h0l1.1-12.99h0l1.1-13.05h0l1.1-13.11h0l1.1-13.17h0l1.1-13.24h0l1.1-13.3h0l1.1-13.36h0l1.1-13.42h0l1.1-13.48h0l1.1-13.55h0l1.1-13.61h0l1.1-13.67h0l1.1-13.73h0l1.1-13.8h0l1.1-13.86h0l1.1-13.93h0l1.1-13.99h0l1.1-14.06h0l1.1-14.12h0l1.1-14.19h0l1.1-14.25h0l1.1-14.32h0l1.1-14.39h0l1.1-14.45h0l1.1-14.52h0l1.1-14.59h0l1.1-14.65h0l1.1-14.72h0l1.1-14.79h0l1.1-14.86h0l1.1-14.93h0l1.1-15h0l1.1-15.07h0l1.1-15.14h0l1.1-15.21h0l1.1-15.28h0l1.1-15.35h0l1.1-15.42h0l1.1-15.49h0l1.1-15.56h0l1.1-15.63h0l1.1-15.71h0l1.1-15.78h0l1.1-15.85h0l1.1-15.93h0l1.1-16h0l1.1-16.07h0l1.1-16.15h0l1.1-16.22h0l1.1-16.3h0l1.1-16.38h0l1.1-16.45h0l1.1-16.53h0l1.1-16.6h0l1.1-16.68h0l1.1-16.76h0l1.1-16.84h0l1.1-16.91h0l1.1-16.99h0l1.1-17.07h0l1.1-17.15h0l1.1-17.23h0l1.1-17.31h0l1.1-17.39h0l1.1-17.47h0l1.1-17.55h0l1.1-17.63h0l1.1-17.72h0l1.1-17.8h0l1.1-17.88h0l1.1-17.96h0l1.1-18.05h0l1.1-18.13h0l1.1-18.21h0l1.1-18.3h0l1.1-18.38h0l1.1-18.47h0l1.1-18.55h0l1.1-18.64h0l1.1-18.73h0l1.1-18.81h0l1.1-18.9h0l1.1-18.99h0l1.1-19.08h0l1.1-19.16h0l1.1-19.25h0l1.1-19.34h0l1.1-19.43h0l1.1-19.52h0l1.1-19.61h0l1.1-19.7h0l1.1-19.8h0l1.1-19.89h0l1.1-19.98h0l1.1-20.07h0l1.1-20.17h0l1.1-20.26h0l1.1-20.35h0l1.1-20.45h0l1.1-20.54h0l1.1-20.64h0l1.1-20.73h0l1.1-20.83h0l1.1-20.93h0l1.1-21.02h0l1.1-21.12h0l1.1-21.22h0l1.1-21.32h0l1.1-21.42h0l1.1-21.52h0l1.1-21.62h0l1.1-21.72h0l1.1-21.82h0l1.1-21.92h0l1.1-22.02h0l1.1-22.12h0l1.1-22.22h0l1.1-22.33h0l1.1-22.43h0l1.1-22.53h0l1.1-22.64h0l1.1-22.74h0l1.1-22.85h0l1.1-22.96h0l1.1-23.06h0l1.1-23.17h0l1.1-23.28h0l1.1-23.38h0l1.1-23.49h0l1.1-23.6"/>
          <g>
            <path class="uuid-a4b20ed8-427f-4864-9e44-1c7f678826ae" d="m927.99,387.17h0l-.92,5.74h-12.23c0-.55.07-.9.2-1.06l.16-.16,6.33-7.06c2.31-2.59,3.46-5.02,3.46-7.29,0-1.96-.59-3.44-1.78-4.45l-.03-.03h-.03c-.7-.59-1.56-.89-2.57-.89-1.58,0-2.85.68-3.79,2.04-.26.4-.48.84-.66,1.32.07-.02.21-.03.43-.03.88,0,1.44.4,1.68,1.19v.03c.04.15.07.32.07.49,0,.88-.42,1.44-1.25,1.68-.18.04-.33.07-.46.07-.81,0-1.35-.34-1.62-1.02-.09-.24-.13-.52-.13-.82,0-1.69.65-3.14,1.95-4.35,1.17-1.08,2.57-1.62,4.22-1.62,2.42,0,4.3.81,5.64,2.44.77.95,1.21,2.07,1.32,3.36.02.2.03.4.03.59,0,1.6-.6,3.13-1.81,4.58-.64.75-1.63,1.74-2.97,2.97l-2.01,1.78-.33.3-3.5,3.4h5.94c1.93,0,2.98-.09,3.13-.26.22-.31.46-1.29.73-2.93h.82Z"/>
            <path class="uuid-a4b20ed8-427f-4864-9e44-1c7f678826ae" d="m937.38,372.32l-.78,3.16c-.26,1.05-.39,1.72-.39,2.03,0,.8.28,1.28.85,1.45.12.05.26.07.42.07.77,0,1.47-.38,2.1-1.15.42-.49.74-1.12.97-1.87.05-.17.15-.25.3-.25.18,0,.28.08.28.23,0,.38-.24.94-.72,1.66-.83,1.26-1.82,1.89-2.98,1.89-1.05,0-1.81-.44-2.29-1.32-.09-.14-.16-.28-.21-.44-.37.74-.88,1.25-1.52,1.55-.29.14-.59.21-.9.21-.92,0-1.57-.27-1.94-.81-.15-.2-.23-.44-.23-.72,0-.57.25-.97.74-1.2.17-.09.35-.14.53-.14.46,0,.74.19.83.58.02.08.02.15.02.23,0,.52-.26.91-.78,1.15-.09.05-.19.08-.3.09.32.2.71.3,1.15.3.82,0,1.46-.55,1.94-1.64.09-.23.18-.48.25-.76.83-3.14,1.25-4.97,1.25-5.49-.09-.95-.51-1.47-1.25-1.55-.8,0-1.53.41-2.19,1.22v.02s0,.02-.02.02c-.23.31-.44.66-.62,1.06-.08.18-.15.37-.21.55l-.05.14c-.03.17-.13.25-.3.25-.18,0-.28-.08-.28-.23,0-.38.25-.94.74-1.66.83-1.26,1.82-1.89,2.98-1.89s2.02.58,2.49,1.75c.49-.95,1.15-1.52,1.96-1.71.15-.03.31-.05.46-.05.91,0,1.55.25,1.92.76.15.22.23.47.23.76,0,.63-.28,1.05-.85,1.27-.14.05-.27.07-.39.07-.48,0-.76-.21-.85-.62-.02-.06-.02-.12-.02-.18,0-.46.22-.82.67-1.08.14-.08.28-.13.44-.16-.32-.2-.71-.3-1.15-.3-1.05,0-1.78.82-2.22,2.45-.03.09-.05.18-.07.28Z"/>
          </g>
          <path class="uuid-04a598c8-495f-4275-a8cf-67ae03d8a2dd" d="m-197.42,738.32h1640.94"/>
          <g>
            <path class="uuid-2a5d73fd-a2d3-4259-8842-ad740ba3201b" d="m907.75,704.59v19.42c0,.69.14,1.13.42,1.32.39.23,1.33.35,2.8.35h1.11v1.07c-.81-.07-2.68-.1-5.61-.1-2.93,0-4.8.03-5.61.1v-1.07h1.11c1.78,0,2.79-.21,3.05-.62l.03-.03c.09-.18.14-.52.14-1v-17.93c-1.2.6-2.71.9-4.54.9v-1.07c2.77,0,4.87-.74,6.3-2.22.44,0,.69.08.76.24h0v.03c.02.07.03.28.03.62Z"/>
            <path class="uuid-2a5d73fd-a2d3-4259-8842-ad740ba3201b" d="m922.98,705.14l-.82,3.32c-.27,1.1-.41,1.81-.41,2.13,0,.84.3,1.35.9,1.53.13.05.27.07.44.07.81,0,1.54-.4,2.21-1.21.44-.52.78-1.17,1.02-1.96.05-.18.15-.27.32-.27.19,0,.29.08.29.24,0,.4-.25.99-.75,1.74-.87,1.32-1.91,1.99-3.13,1.99-1.1,0-1.9-.46-2.4-1.38-.1-.15-.17-.3-.22-.46-.39.78-.92,1.32-1.6,1.62-.31.15-.62.22-.95.22-.97,0-1.65-.28-2.04-.85-.16-.21-.24-.46-.24-.75,0-.6.26-1.02.78-1.26.18-.1.36-.15.56-.15.48,0,.78.2.87.61.02.08.02.16.02.24,0,.55-.27.95-.82,1.21-.1.05-.2.08-.32.1.34.21.74.32,1.21.32.86,0,1.53-.57,2.04-1.72.1-.24.19-.51.27-.8.87-3.3,1.31-5.22,1.31-5.77-.1-1-.53-1.54-1.31-1.62-.84,0-1.61.43-2.3,1.28v.02s0,.02-.02.02c-.24.32-.46.69-.65,1.11-.08.19-.15.39-.22.58l-.05.15c-.03.18-.14.27-.32.27-.19,0-.29-.08-.29-.24,0-.4.26-.99.78-1.74.87-1.32,1.91-1.99,3.13-1.99s2.12.61,2.62,1.84c.52-1,1.2-1.6,2.06-1.79.16-.03.32-.05.48-.05.95,0,1.62.27,2.01.8.16.23.24.49.24.8,0,.66-.3,1.11-.9,1.33-.15.05-.28.07-.41.07-.5,0-.8-.22-.9-.65-.02-.06-.02-.13-.02-.19,0-.48.23-.86.7-1.14.15-.08.3-.14.46-.17-.34-.21-.74-.32-1.21-.32-1.1,0-1.87.86-2.33,2.57-.03.1-.06.19-.07.29Z"/>
          </g>
        </g>
      </g>
    </g>
  </g>
  <g id="uuid-d646813d-c3fc-41ba-ac27-cb90c7e27a1f" data-name="Marco">
    <path class="uuid-3a73ab99-598a-4b49-8eda-79210f6c32c1" d="m-2-2V1022h1249V-2H-2Zm1232,987c0,11.05-8.95,20-20,20H35c-11.05,0-20-8.95-20-20V35c0-11.05,8.95-20,20-20h1175c11.05,0,20,8.95,20,20v950Z"/>
  </g>
</svg>