<?xml version="1.0" encoding="UTF-8"?>
<svg xmlns="http://www.w3.org/2000/svg" width="1617.3" height="1020" xmlns:xlink="http://www.w3.org/1999/xlink" viewBox="0 0 1617.3 1020">
  <defs>
    <style>
      .uuid-af0f7b8c-c03c-4aec-8996-1745b73ba9e2 {
        clip-path: url(#uuid-d0f12252-9863-47ee-a444-98251bb5ef19);
      }

      .uuid-af0f7b8c-c03c-4aec-8996-1745b73ba9e2, .uuid-50f6452e-8c6a-458d-8a3e-063b308e24d6, .uuid-8ee24059-a8fa-4191-b7d8-6d4779227291, .uuid-f40bce3e-f187-483f-8547-63489643d50c, .uuid-a35b8877-030d-49cd-8504-08a8ece05abc, .uuid-271333fb-4da2-42b3-b760-d9fe379e3b99, .uuid-27d882cb-04c4-4c42-9b0c-bf14f36cc186, .uuid-d6e254bd-03f1-4952-91ca-bd066410d74c, .uuid-c766614e-82b4-4651-bbac-64b310b2c769 {
        fill: none;
      }

      .uuid-65678b3d-9ded-49c5-83d9-2008f830d2ca {
        fill: #fff;
      }

      .uuid-50f6452e-8c6a-458d-8a3e-063b308e24d6 {
        stroke: rgba(192, 192, 192, .24);
        stroke-width: 1.09px;
      }

      .uuid-50f6452e-8c6a-458d-8a3e-063b308e24d6, .uuid-8ee24059-a8fa-4191-b7d8-6d4779227291, .uuid-27d882cb-04c4-4c42-9b0c-bf14f36cc186 {
        stroke-linecap: round;
        stroke-linejoin: round;
      }

      .uuid-8ee24059-a8fa-4191-b7d8-6d4779227291 {
        stroke: rgba(255, 0, 51, .7);
        stroke-width: 8.02px;
      }

      .uuid-f40bce3e-f187-483f-8547-63489643d50c {
        clip-path: url(#uuid-3e1a869c-1665-48b0-870e-5c3668728d49);
      }

      .uuid-20b5b83b-ff94-4a56-90e6-d1ec74fff224, .uuid-48179d78-676f-4e5a-a6e0-e8e3c168fcc7, .uuid-a35b8877-030d-49cd-8504-08a8ece05abc, .uuid-c766614e-82b4-4651-bbac-64b310b2c769 {
        font-family: HelveticaNeue-UltraLight, 'Helvetica Neue UltraLight';
        font-weight: 100;
        isolation: isolate;
      }

      .uuid-20b5b83b-ff94-4a56-90e6-d1ec74fff224, .uuid-15b057d3-3a9b-4827-b11d-511056979ac8 {
        fill: #606060;
      }

      .uuid-20b5b83b-ff94-4a56-90e6-d1ec74fff224, .uuid-c766614e-82b4-4651-bbac-64b310b2c769 {
        font-size: 13.13px;
      }

      .uuid-48179d78-676f-4e5a-a6e0-e8e3c168fcc7 {
        fill: #f03;
      }

      .uuid-48179d78-676f-4e5a-a6e0-e8e3c168fcc7, .uuid-a35b8877-030d-49cd-8504-08a8ece05abc {
        font-size: 17.51px;
      }

      .uuid-a35b8877-030d-49cd-8504-08a8ece05abc, .uuid-c766614e-82b4-4651-bbac-64b310b2c769 {
        stroke: #fff;
        stroke-linejoin: bevel;
        stroke-width: 3.28px;
      }

      .uuid-678f0acc-8faf-4543-bdd4-2aa1b5923863 {
        fill: #00699b;
      }

      .uuid-271333fb-4da2-42b3-b760-d9fe379e3b99 {
        stroke: #606060;
        stroke-miterlimit: 10;
        stroke-width: 2.19px;
      }

      .uuid-27d882cb-04c4-4c42-9b0c-bf14f36cc186 {
        stroke: silver;
        stroke-width: 1.09px;
      }

      .uuid-15b057d3-3a9b-4827-b11d-511056979ac8 {
        fill-rule: evenodd;
      }
    </style>
    <clipPath id="uuid-d0f12252-9863-47ee-a444-98251bb5ef19">
      <rect class="uuid-d6e254bd-03f1-4952-91ca-bd066410d74c" x="0" y="3.66" width="1603.54" height="1021.45"/>
    </clipPath>
    <clipPath id="uuid-3e1a869c-1665-48b0-870e-5c3668728d49">
      <rect class="uuid-d6e254bd-03f1-4952-91ca-bd066410d74c" x="-5.12" y="14.85" width="1608.47" height="992.44"/>
    </clipPath>
  </defs>
  <g id="uuid-62597e19-d6c1-43f2-b5da-551eb4cf7a06" data-name="Grafica">
    <g class="uuid-af0f7b8c-c03c-4aec-8996-1745b73ba9e2">
      <g class="uuid-f40bce3e-f187-483f-8547-63489643d50c">
        <g>
          <rect class="uuid-65678b3d-9ded-49c5-83d9-2008f830d2ca" x="-5.12" y="14.85" width="1608.47" height="992.44"/>
          <path class="uuid-27d882cb-04c4-4c42-9b0c-bf14f36cc186" d="m67.64,15.4v992.44m0-992.44v992.44M214.26,15.4v992.44M360.89,15.4v992.44M507.51,15.4v992.44M654.13,15.4v992.44M948.47,15.4v992.44M1095.1,15.4v992.44M1241.72,15.4v992.44M1388.34,15.4v992.44M1534.96,15.4v992.44"/>
          <path class="uuid-50f6452e-8c6a-458d-8a3e-063b308e24d6" d="m8.55,15.4v992.44M38.1,15.4v992.44M97.18,15.4v992.44M126.73,15.4v992.44M155.18,15.4v992.44M184.72,15.4v992.44M243.81,15.4v992.44M273.35,15.4v992.44M302.89,15.4v992.44M331.34,15.4v992.44M390.43,15.4v992.44M419.97,15.4v992.44M449.52,15.4v992.44M477.97,15.4v992.44M537.05,15.4v992.44M566.6,15.4v992.44M596.14,15.4v992.44M625.68,15.4v992.44M683.68,15.4v992.44M713.22,15.4v992.44M742.76,15.4v992.44M772.31,15.4v992.44M830.3,15.4v992.44M859.84,15.4v992.44M889.39,15.4v992.44M918.93,15.4v992.44M976.92,15.4v992.44M1006.47,15.4v992.44m29.54-992.44v992.44m29.54-992.44v992.44M1124.64,15.4v992.44m28.45-992.44v992.44m29.54-992.44v992.44m29.54-992.44v992.44M1271.26,15.4v992.44m29.54-992.44v992.44m28.45-992.44v992.44m29.54-992.44v992.44M1417.88,15.4v992.44m29.54-992.44v992.44m28.45-992.44v992.44m29.54-992.44v992.44M1564.51,15.4v992.44m29.54-992.44v992.44"/>
          <path class="uuid-27d882cb-04c4-4c42-9b0c-bf14f36cc186" d="m-4.58,137.95h1608.47m-1608.47,0h1608.47M-4.58,323.96h1608.47M-4.58,698.18h1608.47M-4.58,885.29h1608.47"/>
          <path class="uuid-50f6452e-8c6a-458d-8a3e-063b308e24d6" d="m-4.58,25.25h1608.47M-4.58,25.25h1608.47M-4.58,62.45h1608.47M-4.58,99.65h1608.47M-4.58,175.15h1608.47M-4.58,212.35h1608.47M-4.58,249.56h1608.47M-4.58,286.76h1608.47M-4.58,361.17h1608.47M-4.58,399.46h1608.47M-4.58,436.67h1608.47M-4.58,473.87h1608.47M-4.58,548.27h1608.47M-4.58,585.48h1608.47M-4.58,622.68h1608.47M-4.58,660.98h1608.47M-4.58,735.38h1608.47M-4.58,772.59h1608.47M-4.58,809.79h1608.47M-4.58,846.99h1608.47M-4.58,922.49h1608.47M-4.58,959.69h1608.47M-4.58,996.9h1608.47"/>
          <path class="uuid-271333fb-4da2-42b3-b760-d9fe379e3b99" d="m801.3,18.13v989.16"/>
          <path class="uuid-15b057d3-3a9b-4827-b11d-511056979ac8" d="m801.32,17.04l-5.47,21.88h10.94"/>
          <path class="uuid-271333fb-4da2-42b3-b760-d9fe379e3b99" d="m-5.12,511.62h1605.19"/>
          <path class="uuid-15b057d3-3a9b-4827-b11d-511056979ac8" d="m1601.16,511.11l-21.88-5.47v10.94"/>
          <text class="uuid-20b5b83b-ff94-4a56-90e6-d1ec74fff224" transform="translate(40.83 528.03)"><tspan x="0" y="0">–5π / 2</tspan></text>
          <text class="uuid-c766614e-82b4-4651-bbac-64b310b2c769" transform="translate(40.83 528.03)"><tspan x="0" y="0">–5π / 2</tspan></text>
          <text class="uuid-20b5b83b-ff94-4a56-90e6-d1ec74fff224" transform="translate(40.83 528.03)"><tspan x="0" y="0">–5π / 2</tspan></text>
          <text class="uuid-20b5b83b-ff94-4a56-90e6-d1ec74fff224" transform="translate(202.78 528.03)"><tspan x="0" y="0">–2π</tspan></text>
          <text class="uuid-c766614e-82b4-4651-bbac-64b310b2c769" transform="translate(202.78 528.03)"><tspan x="0" y="0">–2π</tspan></text>
          <text class="uuid-20b5b83b-ff94-4a56-90e6-d1ec74fff224" transform="translate(202.78 528.03)"><tspan x="0" y="0">–2π</tspan></text>
          <text class="uuid-20b5b83b-ff94-4a56-90e6-d1ec74fff224" transform="translate(334.08 528.03)"><tspan x="0" y="0">–3π / 2</tspan></text>
          <text class="uuid-c766614e-82b4-4651-bbac-64b310b2c769" transform="translate(334.08 528.03)"><tspan x="0" y="0">–3π / 2</tspan></text>
          <text class="uuid-20b5b83b-ff94-4a56-90e6-d1ec74fff224" transform="translate(334.08 528.03)"><tspan x="0" y="0">–3π / 2</tspan></text>
          <text class="uuid-20b5b83b-ff94-4a56-90e6-d1ec74fff224" transform="translate(500.4 528.03)"><tspan x="0" y="0">–π</tspan></text>
          <text class="uuid-c766614e-82b4-4651-bbac-64b310b2c769" transform="translate(500.4 528.03)"><tspan x="0" y="0">–π</tspan></text>
          <text class="uuid-20b5b83b-ff94-4a56-90e6-d1ec74fff224" transform="translate(500.4 528.03)"><tspan x="0" y="0">–π</tspan></text>
          <text class="uuid-20b5b83b-ff94-4a56-90e6-d1ec74fff224" transform="translate(631.7 528.03)"><tspan x="0" y="0">–π / 2</tspan></text>
          <text class="uuid-c766614e-82b4-4651-bbac-64b310b2c769" transform="translate(631.7 528.03)"><tspan x="0" y="0">–π / 2</tspan></text>
          <text class="uuid-20b5b83b-ff94-4a56-90e6-d1ec74fff224" transform="translate(631.7 528.03)"><tspan x="0" y="0">–π / 2</tspan></text>
          <text class="uuid-20b5b83b-ff94-4a56-90e6-d1ec74fff224" transform="translate(929.32 528.03)"><tspan x="0" y="0">π / 2</tspan></text>
          <text class="uuid-c766614e-82b4-4651-bbac-64b310b2c769" transform="translate(929.32 528.03)"><tspan x="0" y="0">π / 2</tspan></text>
          <text class="uuid-20b5b83b-ff94-4a56-90e6-d1ec74fff224" transform="translate(929.32 528.03)"><tspan x="0" y="0">π / 2</tspan></text>
          <text class="uuid-20b5b83b-ff94-4a56-90e6-d1ec74fff224" transform="translate(1091.27 528.03)"><tspan x="0" y="0">π</tspan></text>
          <text class="uuid-c766614e-82b4-4651-bbac-64b310b2c769" transform="translate(1091.27 528.03)"><tspan x="0" y="0">π</tspan></text>
          <text class="uuid-20b5b83b-ff94-4a56-90e6-d1ec74fff224" transform="translate(1091.27 528.03)"><tspan x="0" y="0">π</tspan></text>
          <text class="uuid-20b5b83b-ff94-4a56-90e6-d1ec74fff224" transform="translate(1218.19 528.03)"><tspan x="0" y="0">3π / 2</tspan></text>
          <text class="uuid-c766614e-82b4-4651-bbac-64b310b2c769" transform="translate(1218.19 528.03)"><tspan x="0" y="0">3π / 2</tspan></text>
          <text class="uuid-20b5b83b-ff94-4a56-90e6-d1ec74fff224" transform="translate(1218.19 528.03)"><tspan x="0" y="0">3π / 2</tspan></text>
          <text class="uuid-20b5b83b-ff94-4a56-90e6-d1ec74fff224" transform="translate(1381.23 528.03)"><tspan x="0" y="0">2π</tspan></text>
          <text class="uuid-c766614e-82b4-4651-bbac-64b310b2c769" transform="translate(1381.23 528.03)"><tspan x="0" y="0">2π</tspan></text>
          <text class="uuid-20b5b83b-ff94-4a56-90e6-d1ec74fff224" transform="translate(1381.23 528.03)"><tspan x="0" y="0">2π</tspan></text>
          <text class="uuid-20b5b83b-ff94-4a56-90e6-d1ec74fff224" transform="translate(1511.44 528.03)"><tspan x="0" y="0">5π / 2</tspan></text>
          <text class="uuid-c766614e-82b4-4651-bbac-64b310b2c769" transform="translate(1511.44 528.03)"><tspan x="0" y="0">5π / 2</tspan></text>
          <text class="uuid-20b5b83b-ff94-4a56-90e6-d1ec74fff224" transform="translate(1511.44 528.03)"><tspan x="0" y="0">5π / 2</tspan></text>
          <text class="uuid-20b5b83b-ff94-4a56-90e6-d1ec74fff224" transform="translate(779.42 890.21)"><tspan x="0" y="0">–2</tspan></text>
          <text class="uuid-c766614e-82b4-4651-bbac-64b310b2c769" transform="translate(779.42 890.21)"><tspan x="0" y="0">–2</tspan></text>
          <text class="uuid-20b5b83b-ff94-4a56-90e6-d1ec74fff224" transform="translate(779.42 890.21)"><tspan x="0" y="0">–2</tspan></text>
          <text class="uuid-20b5b83b-ff94-4a56-90e6-d1ec74fff224" transform="translate(779.42 703.1)"><tspan x="0" y="0">–1</tspan></text>
          <text class="uuid-c766614e-82b4-4651-bbac-64b310b2c769" transform="translate(779.42 703.1)"><tspan x="0" y="0">–1</tspan></text>
          <text class="uuid-20b5b83b-ff94-4a56-90e6-d1ec74fff224" transform="translate(779.42 703.1)"><tspan x="0" y="0">–1</tspan></text>
          <text class="uuid-20b5b83b-ff94-4a56-90e6-d1ec74fff224" transform="translate(785.98 328.89)"><tspan x="0" y="0">1</tspan></text>
          <text class="uuid-c766614e-82b4-4651-bbac-64b310b2c769" transform="translate(785.98 328.89)"><tspan x="0" y="0">1</tspan></text>
          <text class="uuid-20b5b83b-ff94-4a56-90e6-d1ec74fff224" transform="translate(785.98 328.89)"><tspan x="0" y="0">1</tspan></text>
          <text class="uuid-20b5b83b-ff94-4a56-90e6-d1ec74fff224" transform="translate(785.98 142.87)"><tspan x="0" y="0">2</tspan></text>
          <text class="uuid-c766614e-82b4-4651-bbac-64b310b2c769" transform="translate(785.98 142.87)"><tspan x="0" y="0">2</tspan></text>
          <text class="uuid-20b5b83b-ff94-4a56-90e6-d1ec74fff224" transform="translate(785.98 142.87)"><tspan x="0" y="0">2</tspan></text>
          <text class="uuid-20b5b83b-ff94-4a56-90e6-d1ec74fff224" transform="translate(785.98 528.03)"><tspan x="0" y="0">0</tspan></text>
          <text class="uuid-c766614e-82b4-4651-bbac-64b310b2c769" transform="translate(785.98 528.03)"><tspan x="0" y="0">0</tspan></text>
          <text class="uuid-20b5b83b-ff94-4a56-90e6-d1ec74fff224" transform="translate(785.98 528.03)"><tspan x="0" y="0">0</tspan></text>
          <path class="uuid-8ee24059-a8fa-4191-b7d8-6d4779227291" d="m-4.03,326.93v4.27h0l1.09,4.17h0l1.09,4.08h0l1.09,3.99h0l1.09,3.91H.35l1.09,3.83h0l1.09,3.75h0l1.09,3.68h0l1.09,3.61h0l1.09,3.54h0l1.09,3.48h0l1.09,3.42h0l1.09,3.36h0l1.09,3.3h0l1.09,3.25h0l1.09,3.2h0l1.09,3.15h0l1.09,3.1h0l1.09,3.05h0l1.09,3.01h0l1.09,2.97h0l1.09,2.93h0l1.09,2.89h0l1.09,2.85h0l1.09,2.81h0l1.09,2.78h0l1.09,2.75h0l1.09,2.72h0l1.09,2.68h0l1.09,2.66h0l1.09,2.63h0l1.09,2.6h0l1.09,2.57h0l1.09,2.55h0l1.09,2.53h0l1.09,2.5h0l1.09,2.48h0l1.09,2.46h0l1.09,2.44h0l1.09,2.42h0l1.09,2.4h0l1.09,2.39h0l1.09,2.37h0l1.09,2.35h0l1.09,2.34h0l1.09,2.33h0l1.09,2.31h0l1.09,2.3h0l1.09,2.29h0l1.09,2.28h0l1.09,2.27h0l1.09,2.26h0l1.09,2.25h0l1.09,2.24h0l1.09,2.23h0l1.09,2.22h0l1.09,2.22h0l1.09,2.21h0l1.09,2.21h0l1.09,2.2h0l1.09,2.2h0l1.09,2.2h0l1.09,2.19h0l1.09,2.19h0l1.09,2.19h0l1.09,2.19h0l1.09,2.19h0l1.09,2.19h0l1.09,2.19h0l1.09,2.19h0l1.09,2.19h0l1.09,2.2h0l1.09,2.2h0l1.09,2.2h0l1.09,2.21h0l1.09,2.21h0l1.09,2.22h0l1.09,2.23h0l1.09,2.23h0l1.09,2.24h0l1.09,2.25h0l1.09,2.26h0l1.09,2.27h0l1.09,2.28h0l1.09,2.29h0l1.09,2.3h0l1.09,2.31h0l1.09,2.33h0l1.09,2.34h0l1.09,2.36h0l1.09,2.37h0l1.09,2.39h0l1.09,2.41h0l1.09,2.42h0l1.09,2.44h0l1.09,2.46h0l1.09,2.48h0l1.09,2.51h0l1.09,2.53h0l1.09,2.55h0l1.09,2.58h0l1.09,2.6h0l1.09,2.63h0l1.09,2.66h0l1.09,2.69h0l1.09,2.72h0l1.09,2.75h0l1.09,2.78h0l1.09,2.82h0l1.09,2.86h0l1.09,2.89h0l1.09,2.93h0l1.09,2.97h0l1.09,3.02h0l1.09,3.06h0l1.09,3.11h0l1.09,3.15h0l1.09,3.2h0l1.09,3.26h0l1.09,3.31h0l1.09,3.37h0l1.09,3.43h0l1.09,3.49h0l1.09,3.55h0l1.09,3.62h0l1.09,3.69h0l1.09,3.76h0l1.09,3.84h0l1.09,3.92h0l1.09,4h0l1.09,4.09h0l1.09,4.18h0l1.09,4.28h0l1.09,4.38h0l1.09,4.48h0l1.09,4.59h0l1.09,4.71h0l1.09,4.83h0l1.09,4.96h0l1.09,5.09h0l1.09,5.23h0l1.09,5.38h0l1.09,5.54h0l1.09,5.7h0l1.09,5.87h0l1.09,6.06h0l1.09,6.25h0l1.09,6.46h0l1.09,6.67h0l1.09,6.9h0l1.09,7.15h0l1.09,7.41h0l1.09,7.69h0l1.09,7.98h0l1.09,8.29h0l1.09,8.63h0l1.09,8.99h0l1.09,9.37h0l1.09,9.79h0l1.09,10.23h0l1.09,10.71h0l1.09,11.22h0l1.09,11.78h0l1.09,12.38h0l1.09,13.03h0l1.09,13.74h0l1.09,14.51h0l1.09,15.35h0l1.09,16.28h0l1.09,17.29h0l.58,9.75M214.7,1.72h32.48l.46,7.75h0l1.09,17.42h0l1.09,16.39h0l1.09,15.46h0l1.09,14.6h0l1.09,13.82h0l1.09,13.11h0l1.09,12.45h0l1.09,11.84h0l1.09,11.28h0l1.09,10.76h0l1.09,10.28h0l1.09,9.84h0l1.09,9.42h0l1.09,9.03h0l1.09,8.67h0l1.09,8.33h0l1.09,8.02h0l1.09,7.72h0l1.09,7.44h0l1.09,7.18h0l1.09,6.93h0l1.09,6.7h0l1.09,6.48h0l1.09,6.27h0l1.09,6.08h0l1.09,5.89h0l1.09,5.72h0l1.09,5.55h0l1.09,5.4h0l1.09,5.25h0l1.09,5.11h0l1.09,4.97h0l1.09,4.84h0l1.09,4.72h0l1.09,4.61h0l1.09,4.49h0l1.09,4.39h0l1.09,4.29h0l1.09,4.19h0l1.09,4.1h0l1.09,4.01h0l1.09,3.93h0l1.09,3.85h0l1.09,3.77h0l1.09,3.7h0l1.09,3.63h0l1.09,3.56h0l1.09,3.5h0l1.09,3.43h0l1.09,3.37h0l1.09,3.32h0l1.09,3.26h0l1.09,3.21h0l1.09,3.16h0l1.09,3.11h0l1.09,3.06h0l1.09,3.02h0l1.09,2.98h0l1.09,2.94h0l1.09,2.9h0l1.09,2.86h0l1.09,2.82h0l1.09,2.79h0l1.09,2.75h0l1.09,2.72h0l1.09,2.69h0l1.09,2.66h0l1.09,2.63h0l1.09,2.61h0l1.09,2.58h0l1.09,2.56h0l1.09,2.53h0l1.09,2.51h0l1.09,2.49h0l1.09,2.47h0l1.09,2.45h0l1.09,2.43h0l1.09,2.41h0l1.09,2.39h0l1.09,2.37h0l1.09,2.36h0l1.09,2.34h0l1.09,2.33h0l1.09,2.32h0l1.09,2.3h0l1.09,2.29h0l1.09,2.28h0l1.09,2.27h0l1.09,2.26h0l1.09,2.25h0l1.09,2.24h0l1.09,2.23h0l1.09,2.23h0l1.09,2.22h0l1.09,2.21h0l1.09,2.21h0l1.09,2.2h0l1.09,2.2h0l1.09,2.2h0l1.09,2.19h0l1.09,2.19h0l1.09,2.19h0l1.09,2.19h0l1.09,2.19h0l1.09,2.19h0l1.09,2.19h0l1.09,2.19h0l1.09,2.19h0l1.09,2.2h0l1.09,2.2h0l1.09,2.2h0l1.09,2.21h0l1.09,2.21h0l1.09,2.22h0l1.09,2.22h0l1.09,2.23h0l1.09,2.24h0l1.09,2.25h0l1.09,2.26h0l1.09,2.27h0l1.09,2.28h0l1.09,2.29h0l1.09,2.3h0l1.09,2.31h0l1.09,2.32h0l1.09,2.34h0l1.09,2.35h0l1.09,2.37h0l1.09,2.38h0l1.09,2.4h0l1.09,2.42h0l1.09,2.44h0l1.09,2.46h0l1.09,2.48h0l1.09,2.5h0l1.09,2.52h0l1.09,2.55h0l1.09,2.57h0l1.09,2.6h0l1.09,2.62h0l1.09,2.65h0l1.09,2.68h0l1.09,2.71h0l1.09,2.74h0l1.09,2.78h0l1.09,2.81h0l1.09,2.85h0l1.09,2.88h0l1.09,2.92h0l1.09,2.96h0l1.09,3.01h0l1.09,3.05h0l1.09,3.1h0l1.09,3.14h0l1.09,3.19h0l1.09,3.24h0l1.09,3.3h0l1.09,3.35h0l1.09,3.41h0l1.09,3.47h0l1.09,3.54h0l1.09,3.6h0l1.09,3.67h0l1.09,3.75h0l1.09,3.82h0l1.09,3.9h0l1.09,3.98h0l1.09,4.07h0l1.09,4.16h0l1.09,4.25h0l1.09,4.35h0l1.09,4.46h0l1.09,4.57h0l1.09,4.68h0l1.09,4.8h0l1.09,4.93h0l1.09,5.06h0l1.09,5.2h0l1.09,5.34h0l1.09,5.5h0l1.09,5.66h0l1.09,5.83h0l1.09,6.01h0l1.09,6.21h0l1.09,6.41h0l1.09,6.62h0l1.09,6.85h0l1.09,7.09h0l1.09,7.35h0l1.09,7.62h0l1.09,7.91h0l1.09,8.22h0l1.09,8.55h0l1.09,8.91h0l1.09,9.28h0l1.09,9.69h0l1.09,10.13h0l1.09,10.59h0l1.09,11.1h0l1.09,11.64h0l1.09,12.23h0l1.09,12.87h0l1.09,13.57h0l1.09,14.33h0l1.09,15.15h0l1.09,16.06h0l1.09,17.05h0l.83,13.78M507.44,1.72h33.23l.21,3.62h0l1.09,17.66h0l1.09,16.62h0l1.09,15.66h0l1.09,14.79h0l1.09,14h0l1.09,13.27h0l1.09,12.59h0l1.09,11.98h0l1.09,11.41h0l1.09,10.88h0l1.09,10.39h0l1.09,9.93h0l1.09,9.51h0l1.09,9.12h0l1.09,8.75h0l1.09,8.41h0l1.09,8.09h0l1.09,7.79h0l1.09,7.5h0l1.09,7.24h0l1.09,6.99h0l1.09,6.75h0l1.09,6.53h0l1.09,6.32h0l1.09,6.12h0l1.09,5.94h0l1.09,5.76h0l1.09,5.59h0l1.09,5.43h0l1.09,5.28h0l1.09,5.14h0l1.09,5h0l1.09,4.87h0l1.09,4.75h0l1.09,4.63h0l1.09,4.52h0l1.09,4.41h0l1.09,4.31h0l1.09,4.21h0l1.09,4.12h0l1.09,4.03h0l1.09,3.95h0l1.09,3.87h0l1.09,3.79h0l1.09,3.71h0l1.09,3.64h0l1.09,3.58h0l1.09,3.51h0l1.09,3.45h0l1.09,3.39h0l1.09,3.33h0l1.09,3.27h0l1.09,3.22h0l1.09,3.17h0l1.09,3.12h0l1.09,3.08h0l1.09,3.03h0l1.09,2.99h0l1.09,2.95h0l1.09,2.91h0l1.09,2.87h0l1.09,2.83h0l1.09,2.8h0l1.09,2.76h0l1.09,2.73h0l1.09,2.7h0l1.09,2.67h0l1.09,2.64h0l1.09,2.61h0l1.09,2.59h0l1.09,2.56h0l1.09,2.54h0l1.09,2.51h0l1.09,2.49h0l1.09,2.47h0l1.09,2.45h0l1.09,2.43h0l1.09,2.41h0l1.09,2.39h0l1.09,2.38h0l1.09,2.36h0l1.09,2.35h0l1.09,2.33h0l1.09,2.32h0l1.09,2.31h0l1.09,2.29h0l1.09,2.28h0l1.09,2.27h0l1.09,2.26h0l1.09,2.25h0l1.09,2.24h0l1.09,2.24h0l1.09,2.23h0l1.09,2.22h0l1.09,2.22h0l1.09,2.21h0l1.09,2.2h0l1.09,2.2h0l1.09,2.2h0l1.09,2.19h0l1.09,2.19h0l1.09,2.19h0l1.09,2.19h0l1.09,2.19h0s1.09,2.19,1.09,2.19h0l1.09,2.19h0l1.09,2.19h0l1.09,2.19h0l1.09,2.19h0l1.09,2.2h0l1.09,2.2h0l1.09,2.21h0l1.09,2.21h0l1.09,2.22h0l1.09,2.22h0l1.09,2.23h0l1.09,2.24h0l1.09,2.24h0l1.09,2.25h0l1.09,2.26h0l1.09,2.27h0l1.09,2.28h0l1.09,2.3h0l1.09,2.31h0l1.09,2.32h0l1.09,2.33h0l1.09,2.35h0l1.09,2.36h0l1.09,2.38h0l1.09,2.4h0l1.09,2.42h0l1.09,2.43h0l1.09,2.45h0l1.09,2.47h0l1.09,2.5h0l1.09,2.52h0l1.09,2.54h0l1.09,2.57h0l1.09,2.59h0l1.09,2.62h0l1.09,2.65h0l1.09,2.67h0l1.09,2.7h0l1.09,2.74h0l1.09,2.77h0l1.09,2.8h0l1.09,2.84h0l1.09,2.88h0l1.09,2.91h0l1.09,2.95h0l1.09,3h0l1.09,3.04h0l1.09,3.08h0l1.09,3.13h0l1.09,3.18h0l1.09,3.23h0l1.09,3.29h0l1.09,3.34h0l1.09,3.4h0l1.09,3.46h0l1.09,3.52h0l1.09,3.59h0l1.09,3.66h0l1.09,3.73h0l1.09,3.8h0l1.09,3.88h0l1.09,3.96h0l1.09,4.05h0l1.09,4.14h0l1.09,4.23h0l1.09,4.33h0l1.09,4.43h0l1.09,4.54h0l1.09,4.65h0l1.09,4.77h0l1.09,4.9h0l1.09,5.03h0l1.09,5.17h0l1.09,5.31h0l1.09,5.46h0l1.09,5.62h0l1.09,5.79h0l1.09,5.97h0l1.09,6.16h0l1.09,6.36h0l1.09,6.57h0l1.09,6.8h0l1.09,7.04h0l1.09,7.29h0l1.09,7.56h0l1.09,7.84h0l1.09,8.15h0l1.09,8.47h0l1.09,8.82h0l1.09,9.2h0l1.09,9.59h0l1.09,10.02h0l1.09,10.48h0l1.09,10.98h0l1.09,11.52h0l1.09,12.1h0l1.09,12.72h0l1.09,13.41h0l1.09,14.15h0l1.09,14.96h0l1.09,15.84h0l1.09,16.82h0l1.09,17.76M803.46,1.72h30.7l1.06,17.36h0l1.09,16.85h0l1.09,15.87h0l1.09,14.98h0l1.09,14.17h0l1.09,13.43h0l1.09,12.74h0l1.09,12.11h0l1.09,11.53h0l1.09,11h0l1.09,10.5h0l1.09,10.04h0l1.09,9.61h0l1.09,9.21h0l1.09,8.83h0l1.09,8.48h0l1.09,8.16h0l1.09,7.85h0l1.09,7.57h0l1.09,7.3h0l1.09,7.04h0l1.09,6.8h0l1.09,6.58h0l1.09,6.37h0l1.09,6.17h0l1.09,5.98h0l1.09,5.8h0l1.09,5.63h0l1.09,5.47h0l1.09,5.31h0l1.09,5.17h0l1.09,5.03h0l1.09,4.9h0l1.09,4.78h0l1.09,4.66h0l1.09,4.54h0l1.09,4.44h0l1.09,4.33h0l1.09,4.24h0l1.09,4.14h0l1.09,4.05h0l1.09,3.97h0l1.09,3.88h0l1.09,3.81h0l1.09,3.73h0l1.09,3.66h0l1.09,3.59h0l1.09,3.52h0l1.09,3.46h0l1.09,3.4h0l1.09,3.34h0l1.09,3.29h0l1.09,3.23h0l1.09,3.18h0l1.09,3.13h0l1.09,3.09h0l1.09,3.04h0l1.09,3h0l1.09,2.96h0l1.09,2.91h0l1.09,2.88h0l1.09,2.84h0l1.09,2.8h0l1.09,2.77h0l1.09,2.74h0l1.09,2.71h0l1.09,2.68h0l1.09,2.65h0l1.09,2.62h0l1.09,2.59h0l1.09,2.57h0l1.09,2.54h0l1.09,2.52h0l1.09,2.5h0l1.09,2.47h0l1.09,2.45h0l1.09,2.43h0l1.09,2.42h0l1.09,2.4h0l1.09,2.38h0l1.09,2.36h0l1.09,2.35h0l1.09,2.34h0l1.09,2.32h0l1.09,2.31h0l1.09,2.3h0l1.09,2.28h0l1.09,2.27h0l1.09,2.26h0l1.09,2.25h0l1.09,2.25h0l1.09,2.24h0l1.09,2.23h0l1.09,2.22h0l1.09,2.22h0l1.09,2.21h0l1.09,2.21h0l1.09,2.2h0l1.09,2.2h0l1.09,2.19h0l1.09,2.19h0l1.09,2.19h0l1.09,2.19h0l1.09,2.19h0s1.09,2.19,1.09,2.19h0l1.09,2.19h0l1.09,2.19h0l1.09,2.19h0l1.09,2.19h0l1.09,2.2h0l1.09,2.2h0l1.09,2.2h0l1.09,2.21h0l1.09,2.21h0l1.09,2.22h0l1.09,2.23h0l1.09,2.24h0l1.09,2.24h0l1.09,2.25h0l1.09,2.26h0l1.09,2.27h0l1.09,2.28h0l1.09,2.29h0l1.09,2.31h0l1.09,2.32h0l1.09,2.33h0l1.09,2.35h0l1.09,2.36h0l1.09,2.38h0l1.09,2.39h0l1.09,2.41h0l1.09,2.43h0l1.09,2.45h0l1.09,2.47h0l1.09,2.49h0l1.09,2.51h0l1.09,2.54h0l1.09,2.56h0l1.09,2.59h0l1.09,2.61h0l1.09,2.64h0l1.09,2.67h0l1.09,2.7h0l1.09,2.73h0l1.09,2.76h0l1.09,2.79h0l1.09,2.83h0l1.09,2.87h0l1.09,2.9h0l1.09,2.94h0l1.09,2.99h0l1.09,3.03h0l1.09,3.07h0l1.09,3.12h0l1.09,3.17h0l1.09,3.22h0l1.09,3.27h0l1.09,3.33h0l1.09,3.39h0l1.09,3.45h0l1.09,3.51h0l1.09,3.57h0l1.09,3.64h0l1.09,3.71h0l1.09,3.79h0l1.09,3.86h0l1.09,3.94h0l1.09,4.03h0l1.09,4.12h0l1.09,4.21h0l1.09,4.31h0l1.09,4.41h0l1.09,4.52h0l1.09,4.63h0l1.09,4.75h0l1.09,4.87h0l1.09,5h0l1.09,5.13h0l1.09,5.28h0l1.09,5.43h0l1.09,5.59h0l1.09,5.75h0l1.09,5.93h0l1.09,6.12h0l1.09,6.31h0l1.09,6.52h0l1.09,6.75h0l1.09,6.98h0l1.09,7.23h0l1.09,7.5h0l1.09,7.78h0l1.09,8.08h0l1.09,8.4h0l1.09,8.74h0l1.09,9.11h0l1.09,9.5h0l1.09,9.92h0l1.09,10.38h0l1.09,10.86h0l1.09,11.39h0l1.09,11.96h0l1.09,12.58h0l1.09,13.25h0l1.09,13.97h0l1.09,14.77h0l1.09,15.64h0l1.09,16.59h0l1.09,17.63h0l.24,4.06M1096.22,1.72h31.44l.8,13.37h0l1.09,17.08h0l1.09,16.09h0l1.09,15.18h0l1.09,14.35h0l1.09,13.59h0l1.09,12.89h0l1.09,12.25h0l1.09,11.66h0l1.09,11.11h0l1.09,10.61h0l1.09,10.14h0l1.09,9.7h0l1.09,9.29h0l1.09,8.92h0l1.09,8.56h0l1.09,8.23h0l1.09,7.92h0l1.09,7.63h0l1.09,7.36h0l1.09,7.1h0l1.09,6.86h0l1.09,6.63h0l1.09,6.41h0l1.09,6.21h0l1.09,6.02h0l1.09,5.84h0l1.09,5.67h0l1.09,5.5h0l1.09,5.35h0l1.09,5.2h0l1.09,5.06h0l1.09,4.93h0l1.09,4.8h0l1.09,4.68h0l1.09,4.57h0l1.09,4.46h0l1.09,4.36h0l1.09,4.26h0l1.09,4.16h0l1.09,4.07h0l1.09,3.99h0l1.09,3.9h0l1.09,3.82h0l1.09,3.75h0l1.09,3.68h0l1.09,3.61h0l1.09,3.54h0l1.09,3.48h0l1.09,3.41h0l1.09,3.36h0l1.09,3.3h0l1.09,3.25h0l1.09,3.19h0l1.09,3.14h0l1.09,3.1h0l1.09,3.05h0l1.09,3.01h0l1.09,2.96h0l1.09,2.92h0l1.09,2.89h0l1.09,2.85h0l1.09,2.81h0l1.09,2.78h0l1.09,2.74h0l1.09,2.71h0l1.09,2.68h0l1.09,2.65h0l1.09,2.62h0l1.09,2.6h0l1.09,2.57h0l1.09,2.55h0l1.09,2.52h0l1.09,2.5h0l1.09,2.48h0l1.09,2.46h0l1.09,2.44h0l1.09,2.42h0l1.09,2.4h0l1.09,2.38h0l1.09,2.37h0l1.09,2.35h0l1.09,2.34h0l1.09,2.32h0l1.09,2.31h0l1.09,2.3h0l1.09,2.29h0l1.09,2.28h0l1.09,2.27h0l1.09,2.26h0l1.09,2.25h0l1.09,2.24h0l1.09,2.23h0l1.09,2.22h0l1.09,2.22h0l1.09,2.21h0l1.09,2.21h0l1.09,2.2h0l1.09,2.2h0l1.09,2.2h0l1.09,2.19h0l1.09,2.19h0l1.09,2.19h0l1.09,2.19h0l1.09,2.19h0l1.09,2.19h0l1.09,2.19h0l1.09,2.19h0l1.09,2.19h0l1.09,2.2h0l1.09,2.2h0l1.09,2.2h0l1.09,2.21h0l1.09,2.21h0l1.09,2.22h0l1.09,2.23h0l1.09,2.23h0l1.09,2.24h0l1.09,2.25h0l1.09,2.26h0l1.09,2.27h0l1.09,2.28h0l1.09,2.29h0l1.09,2.3h0l1.09,2.31h0l1.09,2.33h0l1.09,2.34h0l1.09,2.36h0l1.09,2.37h0l1.09,2.39h0l1.09,2.41h0l1.09,2.43h0l1.09,2.44h0l1.09,2.46h0l1.09,2.49h0l1.09,2.51h0l1.09,2.53h0l1.09,2.55h0l1.09,2.58h0l1.09,2.61h0l1.09,2.63h0l1.09,2.66h0l1.09,2.69h0l1.09,2.72h0l1.09,2.75h0l1.09,2.79h0l1.09,2.82h0l1.09,2.86h0l1.09,2.9h0l1.09,2.94h0l1.09,2.98h0l1.09,3.02h0l1.09,3.06h0l1.09,3.11h0l1.09,3.16h0l1.09,3.21h0l1.09,3.26h0l1.09,3.32h0l1.09,3.37h0l1.09,3.43h0l1.09,3.49h0l1.09,3.56h0l1.09,3.63h0l1.09,3.7h0l1.09,3.77h0l1.09,3.85h0l1.09,3.93h0l1.09,4.01h0l1.09,4.1h0l1.09,4.19h0l1.09,4.29h0l1.09,4.39h0l1.09,4.49h0l1.09,4.6h0l1.09,4.72h0l1.09,4.84h0l1.09,4.97h0l1.09,5.1h0l1.09,5.24h0l1.09,5.39h0l1.09,5.55h0l1.09,5.71h0l1.09,5.89h0l1.09,6.07h0l1.09,6.27h0l1.09,6.48h0l1.09,6.69h0l1.09,6.93h0l1.09,7.17h0l1.09,7.43h0l1.09,7.71h0l1.09,8.01h0l1.09,8.32h0l1.09,8.66h0l1.09,9.02h0l1.09,9.41h0l1.09,9.82h0l1.09,10.27h0l1.09,10.75h0l1.09,11.27h0l1.09,11.83h0l1.09,12.43h0l1.09,13.09h0l1.09,13.8h0l1.09,14.58h0l1.09,15.43h0l1.09,16.36h0l1.09,17.39h0l.48,8.18M1388.97,1.72h32.19l.55,9.32h0l1.09,17.32h0l1.09,16.3h0l1.09,15.38h0l1.09,14.53h0l1.09,13.76h0l1.09,13.05h0l1.09,12.39h0l1.09,11.79h0l1.09,11.24h0l1.09,10.72h0l1.09,10.24h0l1.09,9.8h0l1.09,9.39h0l1.09,9h0l1.09,8.64h0l1.09,8.3h0l1.09,7.99h0l1.09,7.69h0l1.09,7.42h0l1.09,7.16h0l1.09,6.91h0l1.09,6.68h0l1.09,6.46h0l1.09,6.26h0l1.09,6.06h0l1.09,5.88h0l1.09,5.7h0l1.09,5.54h0l1.09,5.38h0l1.09,5.23h0l1.09,5.09h0l1.09,4.96h0l1.09,4.83h0l1.09,4.71h0l1.09,4.6h0l1.09,4.48h0l1.09,4.38h0l1.09,4.28h0l1.09,4.18h0l1.09,4.09h0l1.09,4h0l1.09,3.92h0l1.09,3.84h0l1.09,3.76h0l1.09,3.69h0l1.09,3.62h0l1.09,3.55h0l1.09,3.49h0l1.09,3.43h0l1.09,3.37h0l1.09,3.31h0l1.09,3.26h0l1.09,3.21h0l1.09,3.16h0l1.09,3.11h0l1.09,3.06h0l1.09,3.02h0l1.09,2.97h0l1.09,2.93h0l1.09,2.89h0l1.09,2.86h0l1.09,2.82h0l1.09,2.79h0l1.09,2.75h0l1.09,2.72h0l1.09,2.69h0l1.09,2.66h0l1.09,2.63h0l1.09,2.6h0l1.09,2.58h0l1.09,2.55h0l1.09,2.53h0l1.09,2.51h0l1.09,2.48h0l1.09,2.46h0l1.09,2.44h0l1.09,2.42h0l1.09,2.41h0l1.09,2.39h0l1.09,2.37h0l1.09,2.36h0l1.09,2.34h0l1.09,2.33h0l1.09,2.31h0l1.09,2.3h0l1.09,2.29h0l1.09,2.28h0l1.09,2.27h0l1.09,2.26h0l1.09,2.25h0l1.09,2.24h0l1.09,2.23h0l1.09,2.23h0l1.09,2.22h0l1.09,2.21h0l1.09,2.21h0l1.09,2.2h0l1.09,2.2h0l1.09,2.2h0l1.09,2.19h0l1.09,2.19h0l1.09,2.19h0l1.09,2.19h0l1.09,2.19h0s1.09,2.19,1.09,2.19h0l1.09,2.19h0l1.09,2.19h0l1.09,2.19h0l1.09,2.2h0l1.09,2.2h0l1.09,2.2h0l1.09,2.21h0l1.09,2.21h0l1.09,2.22h0l1.09,2.22h0l1.09,2.23h0l1.09,2.24h0l1.09,2.25h0l1.09,2.26h0l1.09,2.27h0l1.09,2.28h0l1.09,2.29h0l1.09,2.3h0l1.09,2.31h0l1.09,2.33h0l1.09,2.34h0l1.09,2.35h0l1.09,2.37h0l1.09,2.39h0l1.09,2.4h0l1.09,2.42h0l1.09,2.44h0l1.09,2.46h0l1.09,2.48h0l1.09,2.5h0l1.09,2.53h0l1.09,2.55h0l1.09,2.57h0l1.09,2.6h0l1.09,2.63h0l1.09,2.65h0l1.09,2.68h0l1.09,2.71h0l1.09,2.75h0l1.09,2.78h0l1.09,2.81h0l1.09,2.85h0l1.09,2.89h0l1.09,2.93h0l1.09,2.97h0l1.09,3.01h0l1.09,3.05h0l1.09,3.1h0l1.09,3.15h0l1.09,3.2h0l1.09,3.25h0l1.09,3.3h0l1.09,3.36h0l1.09,3.42h0l1.09,3.48h0l1.09,3.54h0l1.09,3.61h0l1.09,3.68h0l1.09,3.75h0l1.09,3.83h0l1.09,3.91"/>
          <text class="uuid-48179d78-676f-4e5a-a6e0-e8e3c168fcc7" transform="translate(3.63 361.71)"><tspan x="0" y="0">p</tspan></text>
          <text class="uuid-a35b8877-030d-49cd-8504-08a8ece05abc" transform="translate(3.63 361.71)"><tspan x="0" y="0">p</tspan></text>
          <text class="uuid-48179d78-676f-4e5a-a6e0-e8e3c168fcc7" transform="translate(3.63 361.71)"><tspan x="0" y="0">p</tspan></text>
        </g>
      </g>
    </g>
  </g>
  <g id="uuid-71f59e62-9e18-4277-88da-2efa1b9051fe" data-name="Marco">
    <path class="uuid-678f0acc-8faf-4543-bdd4-2aa1b5923863" d="m0-2V1022h1617.3V-2H0Zm1600.3,987c0,11.05-8.95,20-20,20H37c-11.05,0-20-8.95-20-20V35c0-11.05,8.95-20,20-20h1543.3c11.05,0,20,8.95,20,20v950Z"/>
  </g>
</svg>