<?xml version="1.0" encoding="UTF-8"?>
<svg xmlns="http://www.w3.org/2000/svg" width="420" height="365" viewBox="0 0 420 365">
  <defs>
    <style>
      .uuid-c8ae93da-871e-49e6-ac9d-8ff255c8ad71 {
        fill: #002949;
      }

      .uuid-90aa9597-13ff-4a29-864a-5d2c38b9af85 {
        stroke-dasharray: 0 0 5.04 5.04;
      }

      .uuid-90aa9597-13ff-4a29-864a-5d2c38b9af85, .uuid-aa6578c0-d292-4f51-ab5b-9b67a57bbce1, .uuid-13d684b5-65a9-451e-9969-9a265ac33ef7, .uuid-d7fd55e0-b5ab-43ee-885b-b66ba8417974, .uuid-09f8ab7a-ff4b-4f6f-8bd5-0122f4786c1d, .uuid-bb0ec4d2-aa5b-4690-88ca-bb8077b806d0, .uuid-d7cf320a-ac21-4d04-ad70-8eff9366e6af {
        fill: none;
        stroke-miterlimit: 10;
      }

      .uuid-90aa9597-13ff-4a29-864a-5d2c38b9af85, .uuid-13d684b5-65a9-451e-9969-9a265ac33ef7, .uuid-d7fd55e0-b5ab-43ee-885b-b66ba8417974, .uuid-09f8ab7a-ff4b-4f6f-8bd5-0122f4786c1d {
        stroke: #706f6f;
      }

      .uuid-aa6578c0-d292-4f51-ab5b-9b67a57bbce1 {
        stroke: #3c3c3b;
        stroke-width: 2px;
      }

      .uuid-84c415b2-29da-4af9-a447-f3ad63354375 {
        fill: #f6f6f6;
      }

      .uuid-d7fd55e0-b5ab-43ee-885b-b66ba8417974 {
        fill-rule: evenodd;
      }

      .uuid-09f8ab7a-ff4b-4f6f-8bd5-0122f4786c1d {
        stroke-dasharray: 0 0 5.16 5.16;
      }

      .uuid-bb0ec4d2-aa5b-4690-88ca-bb8077b806d0 {
        stroke: #1d71b8;
        stroke-width: 3px;
      }

      .uuid-1ec3768b-098a-428b-aded-71545a6b8b36 {
        fill: #706f6f;
      }

      .uuid-d7cf320a-ac21-4d04-ad70-8eff9366e6af {
        stroke: #b2b2b2;
      }
    </style>
  </defs>
  <g id="uuid-7fab6687-faa0-4c2b-85a3-b9923e2ff8e6" data-name="Fondo">
    <rect class="uuid-84c415b2-29da-4af9-a447-f3ad63354375" x="3" y="3.5" width="414" height="358" rx="9.6" ry="9.6"/>
  </g>
  <g id="uuid-6f9b509c-6e1c-499a-a4f8-081fcc96e620" data-name="elementos">
    <g>
      <g>
        <path class="uuid-c8ae93da-871e-49e6-ac9d-8ff255c8ad71" d="m319.57,117.66c0,.38.02.69.06.92s.11.41.2.54.21.24.36.31.38.15.7.22v.48h-4.29v-.48c.4-.1.67-.22.81-.35s.23-.31.27-.54.06-.59.06-1.07v-8.45c0-.45-.02-.78-.05-.98s-.09-.36-.16-.48-.17-.21-.3-.27-.34-.15-.63-.23v-.48h4.84c1.52,0,2.66.29,3.4.87s1.12,1.47,1.12,2.66c0,.68-.12,1.29-.35,1.83s-.57.98-1,1.33-.94.59-1.52.74-1.2.22-1.85.22c-.72,0-1.28-.01-1.68-.04v3.24Zm0-4.05h1.13c.74,0,1.34-.1,1.82-.29s.84-.51,1.1-.96.38-1.04.38-1.77c0-.56-.07-1.03-.22-1.4s-.36-.68-.62-.9-.58-.39-.94-.48-.76-.14-1.19-.14c-.64,0-1.13.01-1.46.04v5.91Z"/>
        <path class="uuid-c8ae93da-871e-49e6-ac9d-8ff255c8ad71" d="m330.22,115.18c0,2.28.37,4.16,1.1,5.63s1.85,2.47,3.35,2.97l-.23.75c-1.91-.5-3.37-1.58-4.38-3.24s-1.52-3.66-1.52-6.02.51-4.36,1.53-6.02,2.48-2.75,4.38-3.25l.26.75c-1.52.5-2.65,1.48-3.38,2.93s-1.1,3.28-1.1,5.48Z"/>
        <path class="uuid-c8ae93da-871e-49e6-ac9d-8ff255c8ad71" d="m340.15,114.49l1.27-1.61c.14-.18.25-.35.33-.51s.13-.34.13-.51c0-.15-.06-.27-.17-.37s-.28-.17-.52-.21v-.48h3.19v.48c-.25.07-.5.21-.76.42s-.57.54-.94,1.01l-2.02,2.48,2.23,3c.32.43.61.76.86.99s.51.39.76.49v.48h-3.93v-.48c.54-.06.81-.27.81-.61,0-.14-.02-.27-.07-.39s-.13-.27-.25-.43l-1.42-1.97-1.5,1.95c-.11.14-.2.27-.26.4s-.09.26-.09.41c0,.18.06.32.18.43s.31.18.57.21v.48h-3.26v-.48c.21-.08.41-.18.58-.29s.35-.27.53-.45.42-.46.71-.82l2.03-2.52-2.08-2.85c-.29-.39-.51-.67-.68-.85s-.33-.31-.47-.4-.29-.16-.43-.2v-.48h3.83v.48c-.51.08-.77.28-.77.61,0,.15.03.3.1.45s.17.32.32.5l1.19,1.67Z"/>
        <path class="uuid-c8ae93da-871e-49e6-ac9d-8ff255c8ad71" d="m347.76,117.86c.09.46.14.9.14,1.35s-.08.87-.23,1.25-.41.75-.75,1.13-.81.79-1.41,1.24l-.53-.6c.33-.31.57-.59.72-.84s.26-.54.32-.85.1-.72.1-1.2-.02-.98-.07-1.46h1.71Z"/>
        <path class="uuid-c8ae93da-871e-49e6-ac9d-8ff255c8ad71" d="m353.92,120.93c-.36.81-.71,1.46-1.04,1.96s-.71.88-1.12,1.13-.89.38-1.45.38c-.36,0-.76-.04-1.21-.13v-1.93h.87c.08.27.18.45.29.56s.29.16.51.16c.2,0,.37-.04.52-.11s.31-.2.48-.39.36-.46.59-.84.48-.86.76-1.44l-2.73-7.35c-.18-.48-.32-.81-.42-1s-.22-.33-.35-.43-.31-.18-.57-.23v-.48h3.97v.48c-.31.07-.52.14-.64.21s-.21.16-.27.26-.09.25-.09.42.02.36.06.55.11.41.2.66l1.74,4.89,1.95-4.69c.11-.26.2-.5.26-.72s.09-.42.09-.61c0-.28-.08-.49-.23-.63s-.42-.26-.8-.34v-.48h3.65v.48c-.25.05-.45.13-.59.24s-.27.28-.41.51-.3.56-.49.97l-3.54,7.94Z"/>
        <path class="uuid-c8ae93da-871e-49e6-ac9d-8ff255c8ad71" d="m363.78,115.18c0-2.2-.36-4.03-1.09-5.48s-1.86-2.43-3.39-2.93l.26-.75c1.9.5,3.36,1.58,4.38,3.25s1.53,3.67,1.53,6.02-.51,4.36-1.52,6.02-2.48,2.74-4.38,3.24l-.23-.75c1.5-.5,2.62-1.49,3.35-2.97s1.1-3.36,1.1-5.63Z"/>
      </g>
      <path class="uuid-c8ae93da-871e-49e6-ac9d-8ff255c8ad71" d="m255.61,113.34l1.08-1.37c.12-.15.21-.29.28-.44.07-.14.11-.29.11-.44,0-.13-.05-.23-.14-.32s-.24-.14-.44-.18v-.41h2.71v.41c-.21.06-.42.18-.64.36-.22.18-.49.46-.8.85l-1.72,2.11,1.89,2.55c.27.37.51.64.73.84s.43.33.65.42v.41h-3.34v-.41c.46-.06.69-.23.69-.51,0-.12-.02-.23-.06-.33s-.11-.23-.22-.37l-1.2-1.68-1.28,1.66c-.09.12-.17.23-.22.34-.05.1-.08.22-.08.34,0,.15.05.27.15.37.1.1.26.16.49.18v.41h-2.77v-.41c.18-.07.35-.15.49-.25.15-.1.3-.23.45-.39.15-.16.35-.39.6-.69l1.73-2.14-1.77-2.42c-.24-.33-.44-.57-.58-.72s-.28-.26-.4-.34-.24-.13-.37-.17v-.41h3.25v.41c-.44.07-.66.24-.66.51,0,.13.03.25.09.38.06.13.15.27.27.42l1.01,1.42Z"/>
      <path class="uuid-c8ae93da-871e-49e6-ac9d-8ff255c8ad71" d="m316.75,166.55c-.3.69-.6,1.24-.89,1.67s-.6.75-.95.96c-.35.22-.76.32-1.23.32-.3,0-.65-.04-1.03-.11v-1.64h.74c.07.23.15.38.25.47s.24.13.43.13c.17,0,.31-.03.44-.1.13-.06.27-.17.41-.33.14-.15.31-.39.5-.71.19-.32.41-.73.64-1.22l-2.32-6.25c-.15-.4-.27-.69-.36-.85-.09-.16-.19-.28-.29-.37s-.27-.15-.48-.2v-.41h3.38v.41c-.26.06-.44.12-.55.18-.1.06-.18.13-.23.22-.05.09-.07.21-.07.35s.02.3.05.46c.04.16.09.35.17.56l1.48,4.16,1.66-3.98c.09-.22.17-.42.22-.61.05-.19.08-.36.08-.52,0-.24-.06-.42-.19-.54-.13-.12-.36-.22-.68-.29v-.41h3.1v.41c-.22.04-.38.11-.5.2-.12.09-.23.23-.35.43-.12.2-.25.47-.42.83l-3,6.75Z"/>
      <path class="uuid-c8ae93da-871e-49e6-ac9d-8ff255c8ad71" d="m249.14,175.92c.33-.05.59-.14.79-.27s.36-.3.47-.5.2-.46.27-.77.13-.76.21-1.35h1.39v2.41h3.15v.99h-3.15v4.35c0,.63.03,1.13.08,1.51s.15.67.29.88.31.36.49.45.42.14.7.14c.26,0,.5-.05.73-.16s.45-.26.67-.46l.44.53c-.46.45-.9.77-1.31.98s-.84.3-1.28.3c-.84,0-1.46-.25-1.88-.75s-.62-1.28-.62-2.34v-5.42h-1.45v-.5Z"/>
      <g>
        <g>
          <line class="uuid-13d684b5-65a9-451e-9969-9a265ac33ef7" x1="308.61" y1="194.57" x2="308.61" y2="192.07"/>
          <line class="uuid-09f8ab7a-ff4b-4f6f-8bd5-0122f4786c1d" x1="308.61" y1="186.91" x2="308.61" y2="127.6"/>
          <polyline class="uuid-13d684b5-65a9-451e-9969-9a265ac33ef7" points="308.61 125.02 308.61 122.52 306.11 122.52"/>
          <line class="uuid-90aa9597-13ff-4a29-864a-5d2c38b9af85" x1="301.08" y1="122.52" x2="212.95" y2="122.52"/>
          <line class="uuid-13d684b5-65a9-451e-9969-9a265ac33ef7" x1="210.43" y1="122.52" x2="207.93" y2="122.52"/>
        </g>
        <path class="uuid-d7fd55e0-b5ab-43ee-885b-b66ba8417974" d="m247.12,194.57c0-8.51-2.71-16.38-7.32-22.81"/>
        <line class="uuid-d7cf320a-ac21-4d04-ad70-8eff9366e6af" x1="207.93" y1="9.74" x2="207.93" y2="355.26"/>
        <g>
          <line class="uuid-13d684b5-65a9-451e-9969-9a265ac33ef7" x1="207.93" y1="34.64" x2="207.93" y2="355.26"/>
          <polygon class="uuid-1ec3768b-098a-428b-aded-71545a6b8b36" points="205.07 36.96 205.58 37.44 207.93 34.91 210.28 37.44 210.79 36.96 207.93 33.88 205.07 36.96"/>
        </g>
        <line class="uuid-d7cf320a-ac21-4d04-ad70-8eff9366e6af" x1="392.76" y1="194.57" x2="47.24" y2="194.57"/>
        <g>
          <line class="uuid-13d684b5-65a9-451e-9969-9a265ac33ef7" x1="367.86" y1="194.57" x2="47.24" y2="194.57"/>
          <polygon class="uuid-1ec3768b-098a-428b-aded-71545a6b8b36" points="365.54 191.71 365.06 192.22 367.59 194.57 365.06 196.92 365.54 197.43 368.62 194.57 365.54 191.71"/>
        </g>
        <line class="uuid-aa6578c0-d292-4f51-ab5b-9b67a57bbce1" x1="207.93" y1="194.57" x2="308.61" y2="122.52"/>
        <circle class="uuid-bb0ec4d2-aa5b-4690-88ca-bb8077b806d0" cx="207.93" cy="194.57" r="123.8"/>
      </g>
      <circle class="uuid-c8ae93da-871e-49e6-ac9d-8ff255c8ad71" cx="207.93" cy="122.52" r="2.7"/>
      <circle class="uuid-c8ae93da-871e-49e6-ac9d-8ff255c8ad71" cx="308.61" cy="194.57" r="2.7"/>
      <circle class="uuid-c8ae93da-871e-49e6-ac9d-8ff255c8ad71" cx="207.93" cy="194.57" r="2.7"/>
      <circle class="uuid-c8ae93da-871e-49e6-ac9d-8ff255c8ad71" cx="308.61" cy="122.52" r="2.7"/>
    </g>
  </g>
</svg>