<?xml version="1.0" encoding="UTF-8"?>
<svg xmlns="http://www.w3.org/2000/svg" width="1617.3" height="1020" xmlns:xlink="http://www.w3.org/1999/xlink" viewBox="0 0 1617.3 1020">
  <defs>
    <style>
      .uuid-627c520c-23d4-40fd-981c-259682a4e125 {
        fill: #fff;
      }

      .uuid-a3bd24c9-58ae-4378-923d-ac8e19be8937 {
        stroke: rgba(192, 192, 192, .24);
        stroke-width: 1.09px;
      }

      .uuid-a3bd24c9-58ae-4378-923d-ac8e19be8937, .uuid-ffbbe013-59ae-4127-9c3a-b6658943608b, .uuid-af510111-121e-4d44-8b4e-34bede88ea23, .uuid-8a5c574a-6049-4a5e-bbb5-c871c96ed9b7, .uuid-7f2e9724-4f76-41ff-b85c-ada076ad24b4, .uuid-c18f9f95-4626-430f-bfc9-268ca6392b1c, .uuid-a14e681a-5cf0-4006-b939-cdc88d102f9f, .uuid-5bad7c08-3c61-4124-ac79-0bc8932cf32d, .uuid-dfaf8739-1f5f-4915-b2c6-5e2aff030d40 {
        fill: none;
      }

      .uuid-a3bd24c9-58ae-4378-923d-ac8e19be8937, .uuid-ffbbe013-59ae-4127-9c3a-b6658943608b, .uuid-a14e681a-5cf0-4006-b939-cdc88d102f9f {
        stroke-linecap: round;
        stroke-linejoin: round;
      }

      .uuid-ffbbe013-59ae-4127-9c3a-b6658943608b {
        stroke: rgba(255, 0, 51, .7);
        stroke-width: 8.02px;
      }

      .uuid-af510111-121e-4d44-8b4e-34bede88ea23 {
        clip-path: url(#uuid-666f4191-5d29-4498-9d3b-bb0150dc7a63);
      }

      .uuid-8a5c574a-6049-4a5e-bbb5-c871c96ed9b7 {
        clip-path: url(#uuid-2c19045d-6325-4f4a-9230-ce1645598b90);
      }

      .uuid-6648a620-d6e3-4e6e-9e66-02b7062602e0, .uuid-5d734ee7-fd5a-486d-8e1e-278800f598f5, .uuid-7f2e9724-4f76-41ff-b85c-ada076ad24b4, .uuid-dfaf8739-1f5f-4915-b2c6-5e2aff030d40 {
        font-family: HelveticaNeue-UltraLight, 'Helvetica Neue UltraLight';
        font-weight: 100;
        isolation: isolate;
      }

      .uuid-6648a620-d6e3-4e6e-9e66-02b7062602e0, .uuid-b15c3b57-2058-4a55-b2eb-f664abbb9266 {
        fill: #606060;
      }

      .uuid-6648a620-d6e3-4e6e-9e66-02b7062602e0, .uuid-dfaf8739-1f5f-4915-b2c6-5e2aff030d40 {
        font-size: 13.13px;
      }

      .uuid-5d734ee7-fd5a-486d-8e1e-278800f598f5 {
        fill: #f03;
      }

      .uuid-5d734ee7-fd5a-486d-8e1e-278800f598f5, .uuid-7f2e9724-4f76-41ff-b85c-ada076ad24b4 {
        font-size: 17.51px;
      }

      .uuid-7f2e9724-4f76-41ff-b85c-ada076ad24b4, .uuid-dfaf8739-1f5f-4915-b2c6-5e2aff030d40 {
        stroke: #fff;
        stroke-linejoin: bevel;
        stroke-width: 3.28px;
      }

      .uuid-a93ed6fa-a5fd-4569-bb08-f24a7bf8585a {
        fill: #00699b;
      }

      .uuid-c18f9f95-4626-430f-bfc9-268ca6392b1c {
        stroke: #606060;
        stroke-miterlimit: 10;
        stroke-width: 2.19px;
      }

      .uuid-a14e681a-5cf0-4006-b939-cdc88d102f9f {
        stroke: silver;
        stroke-width: 1.09px;
      }

      .uuid-b15c3b57-2058-4a55-b2eb-f664abbb9266 {
        fill-rule: evenodd;
      }
    </style>
    <clipPath id="uuid-666f4191-5d29-4498-9d3b-bb0150dc7a63">
      <rect class="uuid-5bad7c08-3c61-4124-ac79-0bc8932cf32d" y="3.66" width="1603.54" height="1021.45"/>
    </clipPath>
    <clipPath id="uuid-2c19045d-6325-4f4a-9230-ce1645598b90">
      <rect class="uuid-5bad7c08-3c61-4124-ac79-0bc8932cf32d" x="-5.12" y="14.85" width="1608.47" height="992.44"/>
    </clipPath>
  </defs>
  <g id="uuid-017bcf23-6c24-4bff-bcfa-45e30e7faf32" data-name="Grafica">
    <g class="uuid-af510111-121e-4d44-8b4e-34bede88ea23">
      <g class="uuid-8a5c574a-6049-4a5e-bbb5-c871c96ed9b7">
        <g>
          <rect class="uuid-627c520c-23d4-40fd-981c-259682a4e125" x="-5.12" y="14.85" width="1608.47" height="992.44"/>
          <path class="uuid-a14e681a-5cf0-4006-b939-cdc88d102f9f" d="m67.64,15.4v992.44m0-992.44v992.44M214.26,15.4v992.44M360.89,15.4v992.44M507.51,15.4v992.44M654.13,15.4v992.44M948.47,15.4v992.44M1095.1,15.4v992.44M1241.72,15.4v992.44M1388.34,15.4v992.44M1534.96,15.4v992.44"/>
          <path class="uuid-a3bd24c9-58ae-4378-923d-ac8e19be8937" d="m8.55,15.4v992.44M38.1,15.4v992.44M97.18,15.4v992.44M126.73,15.4v992.44M155.18,15.4v992.44M184.72,15.4v992.44M243.81,15.4v992.44M273.35,15.4v992.44M302.89,15.4v992.44M331.34,15.4v992.44M390.43,15.4v992.44M419.97,15.4v992.44M449.52,15.4v992.44M477.97,15.4v992.44M537.05,15.4v992.44M566.6,15.4v992.44M596.14,15.4v992.44M625.68,15.4v992.44M683.68,15.4v992.44M713.22,15.4v992.44M742.76,15.4v992.44M772.31,15.4v992.44M830.3,15.4v992.44M859.84,15.4v992.44M889.39,15.4v992.44M918.93,15.4v992.44M976.92,15.4v992.44M1006.47,15.4v992.44m29.54-992.44v992.44m29.54-992.44v992.44M1124.64,15.4v992.44m28.45-992.44v992.44m29.54-992.44v992.44m29.54-992.44v992.44M1271.26,15.4v992.44m29.54-992.44v992.44m28.45-992.44v992.44m29.54-992.44v992.44M1417.88,15.4v992.44m29.54-992.44v992.44m28.45-992.44v992.44m29.54-992.44v992.44M1564.51,15.4v992.44m29.54-992.44v992.44"/>
          <path class="uuid-a14e681a-5cf0-4006-b939-cdc88d102f9f" d="m-4.58,137.95h1608.47m-1608.47,0h1608.47M-4.58,323.96h1608.47M-4.58,698.18h1608.47M-4.58,885.29h1608.47"/>
          <path class="uuid-a3bd24c9-58ae-4378-923d-ac8e19be8937" d="m-4.58,25.25h1608.47M-4.58,25.25h1608.47M-4.58,62.45h1608.47M-4.58,99.65h1608.47M-4.58,175.15h1608.47M-4.58,212.35h1608.47M-4.58,249.56h1608.47M-4.58,286.76h1608.47M-4.58,361.17h1608.47M-4.58,399.46h1608.47M-4.58,436.67h1608.47M-4.58,473.87h1608.47M-4.58,548.27h1608.47M-4.58,585.48h1608.47M-4.58,622.68h1608.47M-4.58,660.98h1608.47M-4.58,735.38h1608.47M-4.58,772.59h1608.47M-4.58,809.79h1608.47M-4.58,846.99h1608.47M-4.58,922.49h1608.47M-4.58,959.69h1608.47M-4.58,996.9h1608.47"/>
          <path class="uuid-c18f9f95-4626-430f-bfc9-268ca6392b1c" d="m801.3,18.13v989.16"/>
          <path class="uuid-b15c3b57-2058-4a55-b2eb-f664abbb9266" d="m801.32,17.04l-5.47,21.88h10.94"/>
          <path class="uuid-c18f9f95-4626-430f-bfc9-268ca6392b1c" d="m-5.12,511.62h1605.19"/>
          <path class="uuid-b15c3b57-2058-4a55-b2eb-f664abbb9266" d="m1601.16,511.11l-21.88-5.47v10.94"/>
          <text class="uuid-6648a620-d6e3-4e6e-9e66-02b7062602e0" transform="translate(40.83 528.03)"><tspan x="0" y="0">–5π / 2</tspan></text>
          <text class="uuid-dfaf8739-1f5f-4915-b2c6-5e2aff030d40" transform="translate(40.83 528.03)"><tspan x="0" y="0">–5π / 2</tspan></text>
          <text class="uuid-6648a620-d6e3-4e6e-9e66-02b7062602e0" transform="translate(40.83 528.03)"><tspan x="0" y="0">–5π / 2</tspan></text>
          <text class="uuid-6648a620-d6e3-4e6e-9e66-02b7062602e0" transform="translate(202.78 528.03)"><tspan x="0" y="0">–2π</tspan></text>
          <text class="uuid-dfaf8739-1f5f-4915-b2c6-5e2aff030d40" transform="translate(202.78 528.03)"><tspan x="0" y="0">–2π</tspan></text>
          <text class="uuid-6648a620-d6e3-4e6e-9e66-02b7062602e0" transform="translate(202.78 528.03)"><tspan x="0" y="0">–2π</tspan></text>
          <text class="uuid-6648a620-d6e3-4e6e-9e66-02b7062602e0" transform="translate(334.08 528.03)"><tspan x="0" y="0">–3π / 2</tspan></text>
          <text class="uuid-dfaf8739-1f5f-4915-b2c6-5e2aff030d40" transform="translate(334.08 528.03)"><tspan x="0" y="0">–3π / 2</tspan></text>
          <text class="uuid-6648a620-d6e3-4e6e-9e66-02b7062602e0" transform="translate(334.08 528.03)"><tspan x="0" y="0">–3π / 2</tspan></text>
          <text class="uuid-6648a620-d6e3-4e6e-9e66-02b7062602e0" transform="translate(500.4 528.03)"><tspan x="0" y="0">–π</tspan></text>
          <text class="uuid-dfaf8739-1f5f-4915-b2c6-5e2aff030d40" transform="translate(500.4 528.03)"><tspan x="0" y="0">–π</tspan></text>
          <text class="uuid-6648a620-d6e3-4e6e-9e66-02b7062602e0" transform="translate(500.4 528.03)"><tspan x="0" y="0">–π</tspan></text>
          <text class="uuid-6648a620-d6e3-4e6e-9e66-02b7062602e0" transform="translate(631.7 528.03)"><tspan x="0" y="0">–π / 2</tspan></text>
          <text class="uuid-dfaf8739-1f5f-4915-b2c6-5e2aff030d40" transform="translate(631.7 528.03)"><tspan x="0" y="0">–π / 2</tspan></text>
          <text class="uuid-6648a620-d6e3-4e6e-9e66-02b7062602e0" transform="translate(631.7 528.03)"><tspan x="0" y="0">–π / 2</tspan></text>
          <text class="uuid-6648a620-d6e3-4e6e-9e66-02b7062602e0" transform="translate(929.33 528.03)"><tspan x="0" y="0">π / 2</tspan></text>
          <text class="uuid-dfaf8739-1f5f-4915-b2c6-5e2aff030d40" transform="translate(929.33 528.03)"><tspan x="0" y="0">π / 2</tspan></text>
          <text class="uuid-6648a620-d6e3-4e6e-9e66-02b7062602e0" transform="translate(929.33 528.03)"><tspan x="0" y="0">π / 2</tspan></text>
          <text class="uuid-6648a620-d6e3-4e6e-9e66-02b7062602e0" transform="translate(1091.27 528.03)"><tspan x="0" y="0">π</tspan></text>
          <text class="uuid-dfaf8739-1f5f-4915-b2c6-5e2aff030d40" transform="translate(1091.27 528.03)"><tspan x="0" y="0">π</tspan></text>
          <text class="uuid-6648a620-d6e3-4e6e-9e66-02b7062602e0" transform="translate(1091.27 528.03)"><tspan x="0" y="0">π</tspan></text>
          <text class="uuid-6648a620-d6e3-4e6e-9e66-02b7062602e0" transform="translate(1218.19 528.03)"><tspan x="0" y="0">3π / 2</tspan></text>
          <text class="uuid-dfaf8739-1f5f-4915-b2c6-5e2aff030d40" transform="translate(1218.19 528.03)"><tspan x="0" y="0">3π / 2</tspan></text>
          <text class="uuid-6648a620-d6e3-4e6e-9e66-02b7062602e0" transform="translate(1218.19 528.03)"><tspan x="0" y="0">3π / 2</tspan></text>
          <text class="uuid-6648a620-d6e3-4e6e-9e66-02b7062602e0" transform="translate(1381.23 528.03)"><tspan x="0" y="0">2π</tspan></text>
          <text class="uuid-dfaf8739-1f5f-4915-b2c6-5e2aff030d40" transform="translate(1381.23 528.03)"><tspan x="0" y="0">2π</tspan></text>
          <text class="uuid-6648a620-d6e3-4e6e-9e66-02b7062602e0" transform="translate(1381.23 528.03)"><tspan x="0" y="0">2π</tspan></text>
          <text class="uuid-6648a620-d6e3-4e6e-9e66-02b7062602e0" transform="translate(1511.44 528.03)"><tspan x="0" y="0">5π / 2</tspan></text>
          <text class="uuid-dfaf8739-1f5f-4915-b2c6-5e2aff030d40" transform="translate(1511.44 528.03)"><tspan x="0" y="0">5π / 2</tspan></text>
          <text class="uuid-6648a620-d6e3-4e6e-9e66-02b7062602e0" transform="translate(1511.44 528.03)"><tspan x="0" y="0">5π / 2</tspan></text>
          <text class="uuid-6648a620-d6e3-4e6e-9e66-02b7062602e0" transform="translate(779.42 890.21)"><tspan x="0" y="0">–2</tspan></text>
          <text class="uuid-dfaf8739-1f5f-4915-b2c6-5e2aff030d40" transform="translate(779.42 890.21)"><tspan x="0" y="0">–2</tspan></text>
          <text class="uuid-6648a620-d6e3-4e6e-9e66-02b7062602e0" transform="translate(779.42 890.21)"><tspan x="0" y="0">–2</tspan></text>
          <text class="uuid-6648a620-d6e3-4e6e-9e66-02b7062602e0" transform="translate(779.42 703.1)"><tspan x="0" y="0">–1</tspan></text>
          <text class="uuid-dfaf8739-1f5f-4915-b2c6-5e2aff030d40" transform="translate(779.42 703.1)"><tspan x="0" y="0">–1</tspan></text>
          <text class="uuid-6648a620-d6e3-4e6e-9e66-02b7062602e0" transform="translate(779.42 703.1)"><tspan x="0" y="0">–1</tspan></text>
          <text class="uuid-6648a620-d6e3-4e6e-9e66-02b7062602e0" transform="translate(785.98 328.89)"><tspan x="0" y="0">1</tspan></text>
          <text class="uuid-dfaf8739-1f5f-4915-b2c6-5e2aff030d40" transform="translate(785.98 328.89)"><tspan x="0" y="0">1</tspan></text>
          <text class="uuid-6648a620-d6e3-4e6e-9e66-02b7062602e0" transform="translate(785.98 328.89)"><tspan x="0" y="0">1</tspan></text>
          <text class="uuid-6648a620-d6e3-4e6e-9e66-02b7062602e0" transform="translate(785.98 142.87)"><tspan x="0" y="0">2</tspan></text>
          <text class="uuid-dfaf8739-1f5f-4915-b2c6-5e2aff030d40" transform="translate(785.98 142.87)"><tspan x="0" y="0">2</tspan></text>
          <text class="uuid-6648a620-d6e3-4e6e-9e66-02b7062602e0" transform="translate(785.98 142.87)"><tspan x="0" y="0">2</tspan></text>
          <text class="uuid-6648a620-d6e3-4e6e-9e66-02b7062602e0" transform="translate(785.98 528.03)"><tspan x="0" y="0">0</tspan></text>
          <text class="uuid-dfaf8739-1f5f-4915-b2c6-5e2aff030d40" transform="translate(785.98 528.03)"><tspan x="0" y="0">0</tspan></text>
          <text class="uuid-6648a620-d6e3-4e6e-9e66-02b7062602e0" transform="translate(785.98 528.03)"><tspan x="0" y="0">0</tspan></text>
          <path class="uuid-ffbbe013-59ae-4127-9c3a-b6658943608b" d="m-4.03,777.27v3.22h0l1.09,3.34h0l1.09,3.46h0l1.09,3.59h0l1.09,3.72H.35l1.09,3.86h0l1.09,4.01h0l1.09,4.16h0l1.09,4.32h0l1.09,4.49h0l1.09,4.67h0l1.09,4.86h0l1.09,5.06h0l1.09,5.27h0l1.09,5.5h0l1.09,5.73h0l1.09,5.98h0l1.09,6.25h0l1.09,6.53h0l1.09,6.83h0l1.09,7.15h0l1.09,7.5h0l1.09,7.86h0l1.09,8.25h0l1.09,8.67h0l1.09,9.12h0l1.09,9.61h0l1.09,10.13h0l1.09,10.69h0l1.09,11.3h0l1.09,11.96h0l1.09,12.68h0l1.09,13.46h0l1.09,14.32h0l.4,5.57M68.33,1.72h34.35l.53,7.3h0l1.09,14.22h0l1.09,13.37h0l1.09,12.6h0l1.09,11.89h0l1.09,11.23h0l1.09,10.63h0l1.09,10.07h0l1.09,9.55h0l1.09,9.07h0l1.09,8.62h0l1.09,8.21h0l1.09,7.82h0l1.09,7.46h0l1.09,7.12h0l1.09,6.8h0l1.09,6.5h0l1.09,6.22h0l1.09,5.96h0l1.09,5.71h0l1.09,5.47h0l1.09,5.25h0l1.09,5.04h0l1.09,4.84h0l1.09,4.65h0l1.09,4.47h0l1.09,4.3h0l1.09,4.14h0l1.09,3.99h0l1.09,3.84h0l1.09,3.7h0l1.09,3.57h0l1.09,3.44h0l1.09,3.32h0l1.09,3.21h0l1.09,3.1h0l1.09,2.99h0l1.09,2.89h0l1.09,2.79h0l1.09,2.69h0l1.09,2.6h0l1.09,2.52h0l1.09,2.43h0l1.09,2.35h0l1.09,2.28h0l1.09,2.2h0l1.09,2.13h0l1.09,2.06h0l1.09,1.99h0l1.09,1.93h0l1.09,1.86h0l1.09,1.8h0l1.09,1.75h0l1.09,1.69h0l1.09,1.63h0l1.09,1.58h0l1.09,1.53h0l1.09,1.48h0l1.09,1.43h0l1.09,1.38h0l1.09,1.33h0l1.09,1.29h0l1.09,1.24h0l1.09,1.2h0l1.09,1.16h0l1.09,1.12h0l1.09,1.08h0l1.09,1.04h0l1.09,1h0l1.09.96h0l1.09.93h0l1.09.89h0l1.09.86h0l1.09.82h0l1.09.79h0l1.09.76h0l1.09.72h0l1.09.69h0l1.09.66h0l1.09.63h0l1.09.6h0l1.09.57h0l1.09.54h0l1.09.51h0l1.09.48h0l1.09.45h0l1.09.42h0l1.09.4h0l1.09.37h0l1.09.34h0l1.09.31h0l1.09.29h0l1.09.26h0l1.09.23h0l1.09.21h0l1.09.18h0l1.09.16h0l1.09.13h0l1.09.1h0l1.09.08h0l1.09.05h0l1.09.03h1.09s0,0,0,0l1.09-.02h0l1.09-.05h0l1.09-.08h0l1.09-.1h0l1.09-.13h0l1.09-.15h0l1.09-.18h0l1.09-.21h0l1.09-.23h0l1.09-.26h0l1.09-.28h0l1.09-.31h0l1.09-.34h0l1.09-.37h0l1.09-.39h0l1.09-.42h0l1.09-.45h0l1.09-.48h0l1.09-.51h0l1.09-.54h0l1.09-.56h0l1.09-.59h0l1.09-.63h0l1.09-.66h0l1.09-.69h0l1.09-.72h0l1.09-.75h0l1.09-.78h0l1.09-.82h0l1.09-.85h0l1.09-.89h0l1.09-.92h0l1.09-.96h0l1.09-1h0l1.09-1.03h0l1.09-1.07h0l1.09-1.11h0l1.09-1.15h0l1.09-1.2h0l1.09-1.24h0l1.09-1.28h0l1.09-1.33h0l1.09-1.37h0l1.09-1.42h0l1.09-1.47h0l1.09-1.52h0l1.09-1.57h0l1.09-1.63h0l1.09-1.68h0l1.09-1.74h0l1.09-1.8h0l1.09-1.86h0l1.09-1.92h0l1.09-1.98h0l1.09-2.05h0l1.09-2.12h0l1.09-2.19h0l1.09-2.27h0l1.09-2.34h0l1.09-2.42h0l1.09-2.51h0l1.09-2.59h0l1.09-2.68h0l1.09-2.78h0l1.09-2.88h0l1.09-2.98h0l1.09-3.08h0l1.09-3.19h0l1.09-3.31h0l1.09-3.43h0l1.09-3.56h0l1.09-3.69h0l1.09-3.83h0l1.09-3.97h0l1.09-4.12h0l1.09-4.29h0l1.09-4.45h0l1.09-4.63h0l1.09-4.82h0l1.09-5.02h0l1.09-5.23h0l1.09-5.45h0l1.09-5.68h0l1.09-5.93h0l1.09-6.19h0l1.09-6.47h0l1.09-6.76h0l1.09-7.08h0l1.09-7.42h0l1.09-7.78h0l1.09-8.16h0l1.09-8.57h0l1.09-9.02h0l1.09-9.49h0l1.09-10.01h0l1.09-10.56h0l1.09-11.16h0l1.09-11.81h0l1.09-12.51h0l1.09-13.28h0l1.09-14.12h0l.65-9m35.84,1018.7h34.35l.27-3.85h0l1.09-14.42h0l1.09-13.56h0l1.09-12.77h0l1.09-12.04h0l1.09-11.37h0l1.09-10.76h0l1.09-10.19h0l1.09-9.66h0l1.09-9.18h0l1.09-8.72h0l1.09-8.3h0l1.09-7.91h0l1.09-7.54h0l1.09-7.19h0l1.09-6.87h0l1.09-6.57h0l1.09-6.28h0l1.09-6.01h0l1.09-5.76h0l1.09-5.52h0l1.09-5.3h0l1.09-5.09h0l1.09-4.89h0l1.09-4.7h0l1.09-4.51h0l1.09-4.34h0l1.09-4.18h0l1.09-4.02h0l1.09-3.88h0l1.09-3.74h0l1.09-3.6h0l1.09-3.47h0l1.09-3.35h0l1.09-3.23h0l1.09-3.12h0l1.09-3.01h0l1.09-2.91h0l1.09-2.81h0l1.09-2.72h0l1.09-2.62h0l1.09-2.54h0l1.09-2.45h0l1.09-2.37h0l1.09-2.29h0l1.09-2.22h0l1.09-2.15h0l1.09-2.08h0l1.09-2.01h0l1.09-1.94h0l1.09-1.88h0l1.09-1.82h0l1.09-1.76h0l1.09-1.7h0l1.09-1.65h0l1.09-1.59h0l1.09-1.54h0l1.09-1.49h0l1.09-1.44h0l1.09-1.39h0l1.09-1.34h0l1.09-1.3h0l1.09-1.25h0l1.09-1.21h0l1.09-1.17h0l1.09-1.13h0l1.09-1.09h0l1.09-1.05h0l1.09-1.01h0l1.09-.97h0l1.09-.94h0l1.09-.9h0l1.09-.86h0l1.09-.83h0l1.09-.8h0l1.09-.76h0l1.09-.73h0l1.09-.7h0l1.09-.67h0l1.09-.64h0l1.09-.61h0l1.09-.57h0l1.09-.55h0l1.09-.52h0l1.09-.49h0l1.09-.46h0l1.09-.43h0l1.09-.4h0l1.09-.37h0l1.09-.35h0l1.09-.32h0l1.09-.29h0l1.09-.27h0l1.09-.24h0l1.09-.21h0l1.09-.19h0l1.09-.16h0l1.09-.14h0l1.09-.11h0l1.09-.08h0l1.09-.06h0l1.09-.03h1.09s0,0,0,0l1.09.02h0l1.09.04h0l1.09.07h0l1.09.1h0l1.09.12h0l1.09.15h0l1.09.17h0l1.09.2h0l1.09.23h0l1.09.25h0l1.09.28h0l1.09.31h0l1.09.33h0l1.09.36h0l1.09.39h0l1.09.41h0l1.09.44h0l1.09.47h0l1.09.5h0l1.09.53h0l1.09.56h0l1.09.59h0l1.09.62h0l1.09.65h0l1.09.68h0l1.09.71h0l1.09.74h0l1.09.78h0l1.09.81h0l1.09.84h0l1.09.88h0l1.09.91h0l1.09.95h0l1.09.99h0l1.09,1.03h0l1.09,1.06h0l1.09,1.1h0l1.09,1.14h0l1.09,1.19h0l1.09,1.23h0l1.09,1.27h0l1.09,1.32h0l1.09,1.36h0l1.09,1.41h0l1.09,1.46h0l1.09,1.51h0l1.09,1.56h0l1.09,1.61h0l1.09,1.67h0l1.09,1.73h0l1.09,1.78h0l1.09,1.84h0l1.09,1.91h0l1.09,1.97h0l1.09,2.04h0l1.09,2.11h0l1.09,2.18h0l1.09,2.25h0l1.09,2.33h0l1.09,2.41h0l1.09,2.49h0l1.09,2.57h0l1.09,2.66h0l1.09,2.76h0l1.09,2.85h0l1.09,2.95h0l1.09,3.06h0l1.09,3.17h0l1.09,3.28h0l1.09,3.4h0l1.09,3.53h0l1.09,3.66h0l1.09,3.79h0l1.09,3.94h0l1.09,4.09h0l1.09,4.25h0l1.09,4.41h0l1.09,4.59h0l1.09,4.78h0l1.09,4.97h0l1.09,5.18h0l1.09,5.39h0l1.09,5.62h0l1.09,5.87h0l1.09,6.13h0l1.09,6.4h0l1.09,6.69h0l1.09,7.01h0l1.09,7.34h0l1.09,7.69h0l1.09,8.07h0l1.09,8.48h0l1.09,8.91h0l1.09,9.38h0l1.09,9.89h0l1.09,10.43h0l1.09,11.02h0l1.09,11.65h0l1.09,12.35h0l1.09,13.1h0l1.09,13.92h0l.9,12.21M653.81,1.72h35.85l.04.51h0l1.09,14.63h0l1.09,13.75h0l1.09,12.94h0l1.09,12.2h0l1.09,11.52h0l1.09,10.9h0l1.09,10.32h0l1.09,9.78h0l1.09,9.28h0l1.09,8.82h0l1.09,8.39h0l1.09,7.99h0l1.09,7.62h0l1.09,7.27h0l1.09,6.94h0l1.09,6.63h0l1.09,6.35h0l1.09,6.07h0l1.09,5.82h0l1.09,5.58h0l1.09,5.35h0l1.09,5.13h0l1.09,4.93h0l1.09,4.74h0l1.09,4.55h0l1.09,4.38h0l1.09,4.22h0l1.09,4.06h0l1.09,3.91h0l1.09,3.77h0l1.09,3.63h0l1.09,3.5h0l1.09,3.38h0l1.09,3.26h0l1.09,3.15h0l1.09,3.04h0l1.09,2.93h0l1.09,2.83h0l1.09,2.74h0l1.09,2.65h0l1.09,2.56h0l1.09,2.47h0l1.09,2.39h0l1.09,2.31h0l1.09,2.24h0l1.09,2.16h0l1.09,2.09h0l1.09,2.02h0l1.09,1.96h0l1.09,1.89h0l1.09,1.83h0l1.09,1.77h0l1.09,1.71h0l1.09,1.66h0l1.09,1.6h0l1.09,1.55h0l1.09,1.5h0l1.09,1.45h0l1.09,1.4h0l1.09,1.35h0l1.09,1.31h0l1.09,1.26h0l1.09,1.22h0l1.09,1.18h0l1.09,1.14h0l1.09,1.1h0l1.09,1.06h0l1.09,1.02h0l1.09.98h0l1.09.94h0l1.09.91h0l1.09.87h0l1.09.84h0l1.09.8h0l1.09.77h0l1.09.74h0l1.09.71h0l1.09.67h0l1.09.64h0l1.09.61h0l1.09.58h0l1.09.55h0l1.09.52h0l1.09.49h0l1.09.47h0l1.09.44h0l1.09.41h0l1.09.38h0l1.09.35h0l1.09.33h0l1.09.3h0l1.09.27h0l1.09.25h0l1.09.22h0l1.09.19h0l1.09.17h0l1.09.14h0l1.09.12h0l1.09.09h0l1.09.06h0l1.09.04h1.09s0,0,0,0h1.09s0,0,0,0l1.09-.04h0l1.09-.06h0l1.09-.09h0l1.09-.12h0l1.09-.14h0l1.09-.17h0l1.09-.19h0l1.09-.22h0l1.09-.25h0l1.09-.27h0l1.09-.3h0l1.09-.33h0l1.09-.35h0l1.09-.38h0l1.09-.41h0l1.09-.44h0l1.09-.46h0l1.09-.49h0l1.09-.52h0l1.09-.55h0l1.09-.58h0l1.09-.61h0l1.09-.64h0l1.09-.67h0l1.09-.7h0l1.09-.74h0l1.09-.77h0l1.09-.8h0l1.09-.84h0l1.09-.87h0l1.09-.91h0l1.09-.94h0l1.09-.98h0l1.09-1.02h0l1.09-1.06h0l1.09-1.1h0l1.09-1.14h0l1.09-1.18h0l1.09-1.22h0l1.09-1.26h0l1.09-1.31h0l1.09-1.35h0l1.09-1.4h0l1.09-1.45h0l1.09-1.5h0l1.09-1.55h0l1.09-1.6h0l1.09-1.66h0l1.09-1.71h0l1.09-1.77h0l1.09-1.83h0l1.09-1.89h0l1.09-1.96h0l1.09-2.02h0l1.09-2.09h0l1.09-2.16h0l1.09-2.23h0l1.09-2.31h0l1.09-2.39h0l1.09-2.47h0l1.09-2.55h0l1.09-2.64h0l1.09-2.73h0l1.09-2.83h0l1.09-2.93h0l1.09-3.03h0l1.09-3.14h0l1.09-3.26h0l1.09-3.37h0l1.09-3.5h0l1.09-3.63h0l1.09-3.76h0l1.09-3.91h0l1.09-4.05h0l1.09-4.21h0l1.09-4.38h0l1.09-4.55h0l1.09-4.73h0l1.09-4.93h0l1.09-5.13h0l1.09-5.34h0l1.09-5.57h0l1.09-5.81h0l1.09-6.07h0l1.09-6.34h0l1.09-6.63h0l1.09-6.93h0l1.09-7.26h0l1.09-7.61h0l1.09-7.98h0l1.09-8.38h0l1.09-8.81h0l1.09-9.27h0l1.09-9.77h0l1.09-10.3h0l1.09-10.88h0l1.09-11.5h0l1.09-12.18h0l1.09-12.92h0l1.09-13.72h0l1.09-14.6h0l.07-.94m37,1018.7h33.18l.87-11.81h0l1.09-13.94h0l1.09-13.12h0l1.09-12.37h0l1.09-11.67h0l1.09-11.03h0l1.09-10.44h0l1.09-9.9h0l1.09-9.39h0l1.09-8.93h0l1.09-8.49h0l1.09-8.08h0l1.09-7.7h0l1.09-7.35h0l1.09-7.02h0l1.09-6.7h0l1.09-6.41h0l1.09-6.14h0l1.09-5.88h0l1.09-5.63h0l1.09-5.4h0l1.09-5.18h0l1.09-4.98h0l1.09-4.78h0l1.09-4.6h0l1.09-4.42h0l1.09-4.25h0l1.09-4.09h0l1.09-3.94h0l1.09-3.8h0l1.09-3.66h0l1.09-3.53h0l1.09-3.4h0l1.09-3.29h0l1.09-3.17h0l1.09-3.06h0l1.09-2.96h0l1.09-2.86h0l1.09-2.76h0l1.09-2.67h0l1.09-2.58h0l1.09-2.49h0l1.09-2.41h0l1.09-2.33h0l1.09-2.25h0l1.09-2.18h0l1.09-2.11h0l1.09-2.04h0l1.09-1.97h0l1.09-1.91h0l1.09-1.85h0l1.09-1.79h0l1.09-1.73h0l1.09-1.67h0l1.09-1.62h0l1.09-1.56h0l1.09-1.51h0l1.09-1.46h0l1.09-1.41h0l1.09-1.36h0l1.09-1.32h0l1.09-1.27h0l1.09-1.23h0l1.09-1.19h0l1.09-1.15h0l1.09-1.11h0l1.09-1.07h0l1.09-1.03h0l1.09-.99h0l1.09-.95h0l1.09-.92h0l1.09-.88h0l1.09-.85h0l1.09-.81h0l1.09-.78h0l1.09-.75h0l1.09-.71h0l1.09-.68h0l1.09-.65h0l1.09-.62h0l1.09-.59h0l1.09-.56h0l1.09-.53h0l1.09-.5h0l1.09-.47h0l1.09-.44h0l1.09-.42h0l1.09-.39h0l1.09-.36h0l1.09-.33h0l1.09-.31h0l1.09-.28h0l1.09-.25h0l1.09-.23h0l1.09-.2h0l1.09-.17h0l1.09-.15h0l1.09-.12h0l1.09-.1h0l1.09-.07h0l1.09-.04h0l1.09-.02h0s1.09,0,1.09,0h0s1.09.04,1.09.04h0l1.09.06h0l1.09.08h0l1.09.11h0l1.09.14h0l1.09.16h0l1.09.19h0l1.09.21h0l1.09.24h0l1.09.27h0l1.09.29h0l1.09.32h0l1.09.35h0l1.09.37h0l1.09.4h0l1.09.43h0l1.09.46h0l1.09.49h0l1.09.52h0l1.09.54h0l1.09.57h0l1.09.6h0l1.09.63h0l1.09.67h0l1.09.7h0l1.09.73h0l1.09.76h0l1.09.8h0l1.09.83h0l1.09.86h0l1.09.9h0l1.09.93h0l1.09.97h0l1.09,1.01h0l1.09,1.05h0l1.09,1.09h0l1.09,1.13h0l1.09,1.17h0l1.09,1.21h0l1.09,1.25h0l1.09,1.3h0l1.09,1.34h0l1.09,1.39h0l1.09,1.44h0l1.09,1.49h0l1.09,1.54h0l1.09,1.59h0l1.09,1.64h0l1.09,1.7h0l1.09,1.76h0l1.09,1.82h0l1.09,1.88h0l1.09,1.94h0l1.09,2.01h0l1.09,2.07h0l1.09,2.14h0l1.09,2.22h0l1.09,2.29h0l1.09,2.37h0l1.09,2.45h0l1.09,2.53h0l1.09,2.62h0l1.09,2.71h0l1.09,2.81h0l1.09,2.91h0l1.09,3.01h0l1.09,3.12h0l1.09,3.23h0l1.09,3.35h0l1.09,3.47h0l1.09,3.6h0l1.09,3.73h0l1.09,3.87h0l1.09,4.02h0l1.09,4.17h0l1.09,4.34h0l1.09,4.51h0l1.09,4.69h0l1.09,4.88h0l1.09,5.08h0l1.09,5.29h0l1.09,5.52h0l1.09,5.76h0l1.09,6.01h0l1.09,6.28h0l1.09,6.56h0l1.09,6.86h0l1.09,7.18h0l1.09,7.53h0l1.09,7.9h0l1.09,8.29h0l1.09,8.71h0l1.09,9.16h0l1.09,9.65h0l1.09,10.18h0l1.09,10.74h0l1.09,11.36h0l1.09,12.02h0l1.09,12.75h0l1.09,13.54h0l1.09,14.4h0l.3,4.27M1242.6,1.72h34.06l.62,8.59h0l1.09,14.14h0l1.09,13.3h0l1.09,12.53h0l1.09,11.83h0l1.09,11.18h0l1.09,10.58h0l1.09,10.02h0l1.09,9.51h0l1.09,9.03h0l1.09,8.59h0l1.09,8.17h0l1.09,7.79h0l1.09,7.43h0l1.09,7.09h0l1.09,6.77h0l1.09,6.48h0l1.09,6.2h0l1.09,5.93h0l1.09,5.69h0l1.09,5.45h0l1.09,5.23h0l1.09,5.02h0l1.09,4.82h0l1.09,4.64h0l1.09,4.46h0l1.09,4.29h0l1.09,4.13h0l1.09,3.98h0l1.09,3.83h0l1.09,3.69h0l1.09,3.56h0l1.09,3.43h0l1.09,3.31h0l1.09,3.2h0l1.09,3.09h0l1.09,2.98h0l1.09,2.88h0l1.09,2.78h0l1.09,2.69h0l1.09,2.6h0l1.09,2.51h0l1.09,2.43h0l1.09,2.35h0l1.09,2.27h0l1.09,2.19h0l1.09,2.12h0l1.09,2.05h0l1.09,1.99h0l1.09,1.92h0l1.09,1.86h0l1.09,1.8h0l1.09,1.74h0l1.09,1.68h0l1.09,1.63h0l1.09,1.57h0l1.09,1.52h0l1.09,1.47h0l1.09,1.42h0l1.09,1.38h0l1.09,1.33h0l1.09,1.28h0l1.09,1.24h0l1.09,1.2h0l1.09,1.16h0l1.09,1.11h0l1.09,1.07h0l1.09,1.04h0l1.09,1h0l1.09.96h0l1.09.92h0l1.09.89h0l1.09.85h0l1.09.82h0l1.09.79h0l1.09.75h0l1.09.72h0l1.09.69h0l1.09.66h0l1.09.63h0l1.09.6h0l1.09.57h0l1.09.54h0l1.09.51h0l1.09.48h0l1.09.45h0l1.09.42h0l1.09.39h0l1.09.37h0l1.09.34h0l1.09.31h0l1.09.29h0l1.09.26h0l1.09.23h0l1.09.21h0l1.09.18h0l1.09.15h0l1.09.13h0l1.09.1h0l1.09.08h0l1.09.05h0l1.09.02h0s1.09,0,1.09,0h0s1.09-.03,1.09-.03h0l1.09-.05h0l1.09-.08h0l1.09-.1h0l1.09-.13h0l1.09-.16h0l1.09-.18h0l1.09-.21h0l1.09-.23h0l1.09-.26h0l1.09-.29h0l1.09-.31h0l1.09-.34h0l1.09-.37h0l1.09-.4h0l1.09-.42h0l1.09-.45h0l1.09-.48h0l1.09-.51h0l1.09-.54h0l1.09-.57h0l1.09-.6h0l1.09-.63h0l1.09-.66h0l1.09-.69h0l1.09-.72h0l1.09-.75h0l1.09-.79h0l1.09-.82h0l1.09-.86h0l1.09-.89h0l1.09-.93h0l1.09-.96h0l1.09-1h0l1.09-1.04h0l1.09-1.08h0l1.09-1.12h0l1.09-1.16h0l1.09-1.2h0l1.09-1.24h0l1.09-1.29h0l1.09-1.33h0l1.09-1.38h0l1.09-1.43h0l1.09-1.48h0l1.09-1.53h0l1.09-1.58h0l1.09-1.63h0l1.09-1.69h0l1.09-1.74h0l1.09-1.8h0l1.09-1.86h0l1.09-1.93h0l1.09-1.99h0l1.09-2.06h0l1.09-2.13h0l1.09-2.2h0l1.09-2.27h0l1.09-2.35h0l1.09-2.43h0l1.09-2.52h0l1.09-2.6h0l1.09-2.69h0l1.09-2.79h0l1.09-2.88h0l1.09-2.99h0l1.09-3.09h0l1.09-3.2h0l1.09-3.32h0l1.09-3.44h0l1.09-3.57h0l1.09-3.7h0l1.09-3.84h0l1.09-3.99h0l1.09-4.14h0l1.09-4.3h0l1.09-4.47h0l1.09-4.65h0l1.09-4.84h0l1.09-5.03h0l1.09-5.24h0l1.09-5.47h0l1.09-5.7h0l1.09-5.95h0l1.09-6.21h0l1.09-6.49h0l1.09-6.79h0l1.09-7.11h0l1.09-7.45h0l1.09-7.81h0l1.09-8.2h0l1.09-8.61h0l1.09-9.06h0l1.09-9.54h0l1.09-10.05h0l1.09-10.61h0l1.09-11.21h0l1.09-11.87h0l1.09-12.58h0l1.09-13.35h0l1.09-14.19h0l.56-7.71m36.03,1018.7h34.16l.37-5.16h0l1.09-14.34h0l1.09-13.49h0l1.09-12.7h0l1.09-11.98h0l1.09-11.32h0l1.09-10.71h0l1.09-10.14h0l1.09-9.62h0l1.09-9.14h0l1.09-8.68h0l1.09-8.26h0l1.09-7.87h0l1.09-7.51h0l1.09-7.16h0l1.09-6.84h0l1.09-6.54h0l1.09-6.26h0l1.09-5.99h0l1.09-5.74h0l1.09-5.5h0l1.09-5.28h0l1.09-5.07h0l1.09-4.87h0l1.09-4.68h0l1.09-4.5h0l1.09-4.33h0l1.09-4.17h0l1.09-4.01h0l1.09-3.86h0l1.09-3.72"/>
          <text class="uuid-5d734ee7-fd5a-486d-8e1e-278800f598f5" transform="translate(3.63 810.34)"><tspan x="0" y="0">q</tspan></text>
          <text class="uuid-7f2e9724-4f76-41ff-b85c-ada076ad24b4" transform="translate(3.63 810.34)"><tspan x="0" y="0">q</tspan></text>
          <text class="uuid-5d734ee7-fd5a-486d-8e1e-278800f598f5" transform="translate(3.63 810.34)"><tspan x="0" y="0">q</tspan></text>
        </g>
      </g>
    </g>
  </g>
  <g id="uuid-e34bd9cb-5154-4169-8288-08e6ae488969" data-name="Marco">
    <path class="uuid-a93ed6fa-a5fd-4569-bb08-f24a7bf8585a" d="m0-2V1022h1617.3V-2H0Zm1600.3,987c0,11.05-8.95,20-20,20H37c-11.05,0-20-8.95-20-20V35c0-11.05,8.95-20,20-20h1543.3c11.05,0,20,8.95,20,20v950Z"/>
  </g>
</svg>