<?xml version="1.0" encoding="UTF-8"?>
<svg xmlns="http://www.w3.org/2000/svg" width="420" height="365" viewBox="0 0 420 365">
  <defs>
    <style>
      .uuid-28bd58bf-c3e4-467f-910c-8d887be85515 {
        fill: #002949;
      }

      .uuid-c6a3d44b-68ed-440e-8870-5d71b2be3085 {
        stroke: #3c3c3b;
      }

      .uuid-c6a3d44b-68ed-440e-8870-5d71b2be3085, .uuid-60be290b-d27c-4cf1-8beb-7cecadc69730, .uuid-ba3bd412-fbf7-4681-b3d5-d5ca0190df77 {
        stroke-width: 2px;
      }

      .uuid-c6a3d44b-68ed-440e-8870-5d71b2be3085, .uuid-60be290b-d27c-4cf1-8beb-7cecadc69730, .uuid-ba3bd412-fbf7-4681-b3d5-d5ca0190df77, .uuid-766b0e5e-63d0-4151-a6e7-ccd7baffd434 {
        fill: none;
        stroke-miterlimit: 10;
      }

      .uuid-60be290b-d27c-4cf1-8beb-7cecadc69730 {
        stroke-linecap: round;
      }

      .uuid-60be290b-d27c-4cf1-8beb-7cecadc69730, .uuid-ba3bd412-fbf7-4681-b3d5-d5ca0190df77 {
        stroke: #e30613;
      }

      .uuid-e65e7006-ba80-417b-8e80-acdd7cf1e5ab {
        fill: #f6f6f6;
      }

      .uuid-766b0e5e-63d0-4151-a6e7-ccd7baffd434 {
        stroke: #1d71b8;
        stroke-width: 3px;
      }

      .uuid-71a2762c-530f-41c1-a879-076601b3ddf9 {
        fill: #e30613;
        opacity: .2;
      }
    </style>
  </defs>
  <g id="uuid-cc48e4de-5ef7-42f9-afe7-2bd8b7c1b58f" data-name="Fondo">
    <rect class="uuid-e65e7006-ba80-417b-8e80-acdd7cf1e5ab" x="3" y="3.5" width="414" height="358" rx="9.6" ry="9.6"/>
  </g>
  <g id="uuid-9585130c-ab0c-4a83-b0d8-45833e83167f" data-name="elementos">
    <g>
      <g>
        <g>
          <path class="uuid-28bd58bf-c3e4-467f-910c-8d887be85515" d="m131.32,32.48v-.48c.91,0,1.7-.2,2.37-.61s1.2-1,1.61-1.79.68-1.83.82-3.11l-.1-.04c-.55.39-1.09.68-1.62.86s-1.1.27-1.72.27c-.74,0-1.36-.16-1.88-.48s-.91-.77-1.17-1.36-.39-1.26-.39-2.05c0-.59.1-1.14.29-1.67s.48-.98.87-1.38.86-.71,1.44-.94,1.25-.35,2.02-.35c1.37,0,2.41.47,3.12,1.42s1.07,2.3,1.07,4.07c0,1.62-.26,3.03-.79,4.21s-1.27,2.11-2.22,2.77-2.06,1.05-3.33,1.17l-.4-.54Zm2.03-5.92c.25,0,.48-.02.71-.06s.44-.1.66-.19.42-.19.63-.31.39-.26.55-.41c.06-.05.11-.12.16-.21s.08-.2.11-.33.04-.35.04-.64c0-.89-.09-1.66-.27-2.29s-.45-1.11-.82-1.44-.82-.48-1.36-.48c-.49,0-.9.08-1.24.25s-.61.4-.83.7-.37.64-.46,1.04-.15.83-.15,1.3c0,.97.2,1.72.6,2.26s.96.8,1.68.8Z"/>
          <path class="uuid-28bd58bf-c3e4-467f-910c-8d887be85515" d="m144.77,33.02c-1.41,0-2.45-.55-3.14-1.66s-1.03-2.79-1.03-5.04c0-1.2.11-2.23.32-3.11s.51-1.59.89-2.16.84-.99,1.37-1.26,1.12-.41,1.75-.41c1.43,0,2.49.55,3.18,1.65s1.04,2.76,1.04,4.99-.37,4.05-1.12,5.23-1.83,1.77-3.27,1.77Zm-2.27-6.99c0,2.12.2,3.68.59,4.67s1,1.49,1.83,1.49,1.37-.47,1.75-1.4.57-2.38.57-4.34c0-1.5-.1-2.71-.29-3.64s-.47-1.59-.82-2-.77-.61-1.26-.61c-.45,0-.83.13-1.13.4s-.55.65-.73,1.15-.32,1.11-.4,1.83-.12,1.53-.12,2.44Z"/>
          <path class="uuid-28bd58bf-c3e4-467f-910c-8d887be85515" d="m153.2,22.41c-.7,0-1.24-.16-1.61-.49s-.55-.8-.55-1.44c0-.43.1-.8.29-1.1s.46-.53.8-.67.72-.22,1.15-.22c.72,0,1.26.16,1.63.49s.56.8.56,1.42-.2,1.14-.59,1.49-.95.52-1.67.52Zm-1.13-1.99c0,.44.1.78.3,1.02s.5.37.91.37c.38,0,.67-.11.86-.34s.3-.55.3-.96c0-.46-.11-.8-.32-1.04s-.5-.36-.86-.36c-.39,0-.69.11-.89.34s-.3.55-.3.98Z"/>
          <path class="uuid-28bd58bf-c3e4-467f-910c-8d887be85515" d="m161.96,25.78v-1.3h12.03v1.3h-12.03Zm0,4.05v-1.3h12.03v1.3h-12.03Z"/>
          <path class="uuid-28bd58bf-c3e4-467f-910c-8d887be85515" d="m198.97,28.37h-18.24v-1.29h18.24v1.29Z"/>
          <path class="uuid-28bd58bf-c3e4-467f-910c-8d887be85515" d="m208.59,25.88c.64-.87,1.25-1.5,1.84-1.9s1.19-.61,1.79-.61c.48,0,.87.04,1.19.11l-.47,2.19h-1.01c-.04-.27-.09-.48-.17-.63s-.16-.25-.25-.31-.22-.09-.37-.09c-.23,0-.49.1-.77.3s-.59.52-.93.95-.62.84-.83,1.24-.38.9-.51,1.51l-.93,4.23h-1.69l1.42-6.19c.09-.39.15-.69.18-.91s.04-.39.04-.54c0-.26-.04-.45-.13-.57s-.22-.18-.4-.18c-.2,0-.42.08-.64.25s-.53.47-.92.9l-.56-.55c.6-.62,1.1-1.07,1.5-1.33s.85-.4,1.34-.4c.41,0,.73.14.97.41s.36.62.36,1.06c0,.33-.06.66-.19,1.01l.13.05Z"/>
          <path class="uuid-28bd58bf-c3e4-467f-910c-8d887be85515" d="m222.16,24.01l.9-.64.62.16-1.44,6.19c-.14.62-.21,1.1-.21,1.45,0,.26.04.45.13.57s.22.18.4.18c.2,0,.4-.08.62-.24s.53-.46.94-.91l.56.55c-.59.62-1.09,1.07-1.5,1.33s-.86.4-1.34.4c-.4,0-.73-.13-.97-.4s-.36-.62-.36-1.06c0-.36.07-.74.22-1.14l-.13-.04c-.62.91-1.22,1.58-1.78,2s-1.15.63-1.78.63c-.72,0-1.27-.27-1.67-.81s-.59-1.3-.59-2.28c0-1.12.22-2.2.66-3.23s1.04-1.85,1.81-2.44,1.62-.89,2.57-.89c.42,0,.82.05,1.19.14s.75.26,1.14.5Zm-.86,2.91c.06-.27.1-.5.12-.69s.03-.41.03-.63c0-.5-.11-.87-.32-1.1s-.58-.35-1.09-.35c-.67,0-1.27.27-1.81.81s-.95,1.26-1.25,2.17-.45,1.81-.45,2.72c0,.68.09,1.18.28,1.52s.5.5.93.5.85-.19,1.26-.56.84-.9,1.28-1.59.75-1.48.93-2.38l.09-.42Z"/>
          <path class="uuid-28bd58bf-c3e4-467f-910c-8d887be85515" d="m231.75,30.37c-.62.91-1.22,1.58-1.78,2s-1.15.63-1.78.63c-.72,0-1.27-.27-1.67-.81s-.59-1.3-.59-2.28c0-1.12.22-2.2.66-3.23s1.04-1.85,1.81-2.44,1.62-.89,2.57-.89c.4,0,.76.04,1.1.12s.68.22,1.03.42l.51-2.26c.05-.21.1-.45.14-.71s.06-.49.06-.68-.04-.34-.11-.44-.17-.17-.31-.22-.37-.08-.72-.1l.12-.51,2.45-.09h.58l-2.43,10.81c-.14.64-.21,1.12-.21,1.45,0,.26.04.45.13.57s.22.18.4.18c.2,0,.4-.08.62-.24s.53-.46.94-.91l.56.55c-.6.63-1.1,1.08-1.51,1.34s-.85.39-1.33.39c-.4,0-.73-.13-.97-.4s-.36-.62-.36-1.06c0-.36.07-.74.22-1.14l-.13-.04Zm.65-3.46c.1-.47.15-.91.15-1.33,0-.51-.11-.88-.32-1.11s-.57-.35-1.07-.35c-.66,0-1.26.27-1.79.81s-.94,1.26-1.25,2.17-.45,1.82-.45,2.72c0,.68.09,1.18.28,1.52s.5.5.93.5c.2,0,.41-.04.62-.13s.42-.23.65-.42.45-.43.66-.71.42-.56.6-.84.35-.62.51-1.01.29-.85.4-1.4l.09-.42Z"/>
        </g>
        <g>
          <path class="uuid-28bd58bf-c3e4-467f-910c-8d887be85515" d="m190.95,18.14c.11-.52.27-1.15.47-1.88s.38-1.3.53-1.7l-.05-.09h-2.87l-1.2,5.56c-.1.44-.21.91-.34,1.41s-.23.86-.3,1.08h-2.07l.1-.48c.69-.68,1.33-2.29,1.91-4.8l.64-2.76h-.31c-.46,0-.85.08-1.17.23s-.67.47-1.04.94l-.62-.52c.34-.41.62-.72.83-.94s.44-.4.68-.55.5-.26.8-.34.64-.12,1.04-.12h8.02l-.28,1.29h-2.32l-1.1,4.89c-.14.64-.21,1.12-.21,1.45,0,.26.04.45.13.57s.22.18.4.18c.39,0,.85-.31,1.38-.94l.57.53c-.49.54-.95.93-1.35,1.17s-.84.36-1.3.36-.79-.15-1.04-.45-.38-.7-.38-1.2c0-.44.09-1.07.27-1.89l.21-.99Z"/>
          <path class="uuid-28bd58bf-c3e4-467f-910c-8d887be85515" d="m191.54,44.96c.32,0,.58-.02.77-.06s.35-.1.47-.2.21-.21.28-.36.15-.37.26-.68h.83l-.17,2.85h-8.04v-.47c.28-.68.66-1.38,1.13-2.1s1.15-1.56,2.02-2.53c.76-.83,1.3-1.46,1.63-1.89.36-.47.64-.87.82-1.22s.31-.66.39-.97.12-.61.12-.91c0-.49-.08-.92-.23-1.29s-.4-.67-.72-.88-.73-.32-1.22-.32c-1.22,0-2.04.68-2.46,2.03h-1.18v-1.88c.79-.37,1.52-.64,2.21-.81s1.3-.25,1.85-.25c1.21,0,2.13.27,2.74.8s.93,1.3.93,2.31c0,.35-.03.66-.1.95s-.18.58-.32.86-.34.59-.59.91-.52.66-.82.99-.82.89-1.55,1.67c-1.24,1.31-2.15,2.45-2.72,3.43h3.68Z"/>
        </g>
      </g>
      <g>
        <g>
          <path class="uuid-28bd58bf-c3e4-467f-910c-8d887be85515" d="m292.17,92.91c.4-.1.67-.22.81-.35s.23-.31.27-.54.06-.59.06-1.07v-1.6h-5.43v-.73l5.71-8.62h1.4v8.41h.21c.38,0,.65-.03.81-.08s.3-.15.41-.29.21-.37.3-.69h.74l-.12,2.01h-2.34v1.6c0,.44.01.76.04.96s.08.36.15.48.17.21.3.29.35.16.65.23v.48h-3.96v-.48Zm-2.68-4.51h3.82v-2.43c0-.61,0-1.3.03-2.06s.04-1.33.07-1.71h-.1l-3.82,6.06v.14Z"/>
          <path class="uuid-28bd58bf-c3e4-467f-910c-8d887be85515" d="m299.67,92.85v-2.07h1.18c.2.66.49,1.15.88,1.46s.9.47,1.53.47c.87,0,1.52-.26,1.96-.78s.66-1.3.66-2.33c0-.69-.12-1.26-.35-1.71s-.55-.78-.95-.98-.86-.3-1.39-.3c-.44,0-.82.03-1.14.08s-.66.14-1.03.26l-.78-.46v-6.43h5.38c.22,0,.38-.02.48-.05s.18-.09.23-.17.13-.22.21-.42h.76l-.15,2.27h-5.62v4.29c.34-.14.71-.25,1.1-.32s.79-.11,1.19-.11c.77,0,1.46.16,2.06.47s1.06.77,1.39,1.35.49,1.26.49,2.03c0,.87-.18,1.62-.55,2.25s-.89,1.1-1.58,1.43-1.51.49-2.45.49c-1.13,0-2.3-.23-3.54-.69Z"/>
          <path class="uuid-28bd58bf-c3e4-467f-910c-8d887be85515" d="m312.07,82.93c-.7,0-1.24-.16-1.61-.49s-.55-.8-.55-1.44c0-.43.1-.8.29-1.1s.46-.53.8-.67.72-.22,1.15-.22c.72,0,1.26.16,1.63.49s.56.8.56,1.42-.2,1.14-.59,1.49-.95.52-1.67.52Zm-1.13-1.99c0,.44.1.78.3,1.02s.5.37.91.37c.38,0,.67-.11.86-.34s.3-.55.3-.96c0-.46-.11-.8-.32-1.04s-.5-.36-.86-.36c-.39,0-.69.11-.89.34s-.3.55-.3.98Z"/>
          <path class="uuid-28bd58bf-c3e4-467f-910c-8d887be85515" d="m320.83,86.3v-1.3h12.03v1.3h-12.03Zm0,4.05v-1.3h12.03v1.3h-12.03Z"/>
          <path class="uuid-28bd58bf-c3e4-467f-910c-8d887be85515" d="m357.84,88.89h-18.24v-1.29h18.24v1.29Z"/>
          <path class="uuid-28bd58bf-c3e4-467f-910c-8d887be85515" d="m367.46,86.4c.64-.87,1.25-1.5,1.84-1.9s1.19-.61,1.79-.61c.48,0,.87.04,1.19.11l-.47,2.19h-1.01c-.04-.27-.09-.48-.17-.63s-.16-.25-.25-.31-.22-.09-.37-.09c-.23,0-.49.1-.77.3s-.59.52-.93.95-.62.84-.83,1.24-.38.9-.51,1.51l-.93,4.23h-1.69l1.42-6.19c.09-.39.15-.69.18-.91s.04-.39.04-.54c0-.26-.04-.45-.13-.57s-.22-.18-.4-.18c-.2,0-.42.08-.64.25s-.53.47-.92.9l-.56-.55c.6-.62,1.1-1.07,1.5-1.33s.85-.4,1.34-.4c.41,0,.73.14.97.41s.36.62.36,1.06c0,.33-.06.66-.19,1.01l.13.05Z"/>
          <path class="uuid-28bd58bf-c3e4-467f-910c-8d887be85515" d="m381.03,84.53l.9-.64.62.16-1.44,6.19c-.14.62-.21,1.1-.21,1.45,0,.26.04.45.13.57s.22.18.4.18c.2,0,.4-.08.62-.24s.53-.46.94-.91l.56.55c-.59.62-1.09,1.07-1.5,1.33s-.86.4-1.34.4c-.4,0-.73-.13-.97-.4s-.36-.62-.36-1.06c0-.36.07-.74.22-1.14l-.13-.04c-.62.91-1.22,1.58-1.78,2s-1.15.63-1.78.63c-.72,0-1.27-.27-1.67-.81s-.59-1.3-.59-2.28c0-1.12.22-2.2.66-3.23s1.04-1.85,1.81-2.44,1.62-.89,2.57-.89c.42,0,.82.05,1.19.14s.75.26,1.14.5Zm-.86,2.91c.06-.27.1-.5.12-.69s.03-.41.03-.63c0-.5-.11-.87-.32-1.1s-.58-.35-1.09-.35c-.67,0-1.27.27-1.81.81s-.95,1.26-1.25,2.17-.45,1.81-.45,2.72c0,.68.09,1.18.28,1.52s.5.5.93.5.85-.19,1.26-.56.84-.9,1.28-1.59.75-1.48.93-2.38l.09-.42Z"/>
          <path class="uuid-28bd58bf-c3e4-467f-910c-8d887be85515" d="m390.62,90.9c-.62.91-1.22,1.58-1.78,2s-1.15.63-1.78.63c-.72,0-1.27-.27-1.67-.81s-.59-1.3-.59-2.28c0-1.12.22-2.2.66-3.23s1.04-1.85,1.81-2.44,1.62-.89,2.57-.89c.4,0,.76.04,1.1.12s.68.22,1.03.42l.51-2.26c.05-.21.1-.45.14-.71s.06-.49.06-.68-.04-.34-.11-.44-.17-.17-.31-.22-.37-.08-.72-.1l.12-.51,2.45-.09h.58l-2.43,10.81c-.14.64-.21,1.12-.21,1.45,0,.26.04.45.13.57s.22.18.4.18c.2,0,.4-.08.62-.24s.53-.46.94-.91l.56.55c-.6.63-1.1,1.08-1.51,1.34s-.85.39-1.33.39c-.4,0-.73-.13-.97-.4s-.36-.62-.36-1.06c0-.36.07-.74.22-1.14l-.13-.04Zm.65-3.46c.1-.47.15-.91.15-1.33,0-.51-.11-.88-.32-1.11s-.57-.35-1.07-.35c-.66,0-1.26.27-1.79.81s-.94,1.26-1.25,2.17-.45,1.82-.45,2.72c0,.68.09,1.18.28,1.52s.5.5.93.5c.2,0,.41-.04.62-.13s.42-.23.65-.42.45-.43.66-.71.42-.56.6-.84.35-.62.51-1.01.29-.85.4-1.4l.09-.42Z"/>
        </g>
        <g>
          <path class="uuid-28bd58bf-c3e4-467f-910c-8d887be85515" d="m349.82,78.66c.11-.52.27-1.15.47-1.88s.38-1.3.53-1.7l-.05-.09h-2.87l-1.2,5.56c-.1.44-.21.91-.34,1.41s-.23.86-.3,1.08h-2.07l.1-.48c.69-.68,1.33-2.29,1.91-4.8l.64-2.76h-.31c-.46,0-.85.08-1.17.23s-.67.47-1.04.94l-.62-.52c.34-.41.62-.72.83-.94s.44-.4.68-.55.5-.26.8-.34.64-.12,1.04-.12h8.02l-.28,1.29h-2.32l-1.1,4.89c-.14.64-.21,1.12-.21,1.45,0,.26.04.45.13.57s.22.18.4.18c.39,0,.85-.31,1.38-.94l.57.53c-.49.54-.95.93-1.35,1.17s-.84.36-1.3.36-.79-.15-1.04-.45-.38-.7-.38-1.2c0-.44.09-1.07.27-1.89l.21-.99Z"/>
          <path class="uuid-28bd58bf-c3e4-467f-910c-8d887be85515" d="m348.59,106.56c.4-.1.67-.22.81-.35s.23-.31.27-.54.06-.59.06-1.07v-1.6h-5.43v-.73l5.71-8.62h1.4v8.41h.21c.38,0,.65-.03.81-.08s.3-.15.41-.29.21-.37.3-.69h.74l-.12,2.01h-2.34v1.6c0,.44.01.76.04.96s.08.36.15.48.17.21.3.29.35.16.65.23v.48h-3.96v-.48Zm-2.68-4.51h3.82v-2.43c0-.61,0-1.3.03-2.06s.04-1.33.07-1.71h-.1l-3.82,6.06v.14Z"/>
        </g>
      </g>
      <g>
        <g>
          <path class="uuid-28bd58bf-c3e4-467f-910c-8d887be85515" d="m148.78,337.56c.32,0,.58-.02.77-.06s.35-.1.47-.2.21-.21.28-.36.15-.37.26-.68h.83l-.17,2.85h-8.04v-.47c.28-.68.66-1.38,1.13-2.1s1.15-1.56,2.02-2.53c.76-.83,1.3-1.46,1.63-1.89.36-.47.64-.87.82-1.22s.31-.66.39-.97.12-.61.12-.91c0-.49-.08-.92-.23-1.29s-.4-.67-.72-.88-.73-.32-1.22-.32c-1.22,0-2.04.68-2.46,2.03h-1.18v-1.88c.79-.37,1.52-.64,2.21-.81s1.3-.25,1.85-.25c1.21,0,2.13.27,2.74.8s.93,1.3.93,2.31c0,.35-.03.66-.1.95s-.18.58-.32.86-.34.59-.59.91-.52.66-.82.99-.82.89-1.55,1.67c-1.24,1.31-2.15,2.45-2.72,3.43h3.68Z"/>
          <path class="uuid-28bd58bf-c3e4-467f-910c-8d887be85515" d="m163.02,326.27l-5.68,12.93h-1.42v-.48l5.26-11.14v-.15h-4.3c-.27,0-.48.02-.64.07s-.29.12-.4.21-.2.21-.27.36-.17.45-.29.89h-.84l.2-3.16h8.38v.47Z"/>
          <path class="uuid-28bd58bf-c3e4-467f-910c-8d887be85515" d="m169.5,339.28c-1.41,0-2.45-.55-3.14-1.66s-1.03-2.79-1.03-5.04c0-1.2.11-2.23.32-3.11s.51-1.59.89-2.16.84-.99,1.37-1.26,1.12-.41,1.75-.41c1.43,0,2.49.55,3.18,1.65s1.04,2.76,1.04,4.99-.37,4.05-1.12,5.23-1.83,1.77-3.27,1.77Zm-2.27-6.99c0,2.12.2,3.68.59,4.67s1,1.49,1.83,1.49,1.37-.47,1.75-1.4.57-2.38.57-4.34c0-1.5-.1-2.71-.29-3.64s-.47-1.59-.82-2-.77-.61-1.26-.61c-.45,0-.83.13-1.13.4s-.55.65-.73,1.15-.32,1.11-.4,1.83-.12,1.53-.12,2.44Z"/>
          <path class="uuid-28bd58bf-c3e4-467f-910c-8d887be85515" d="m177.94,328.67c-.7,0-1.24-.16-1.61-.49s-.55-.8-.55-1.44c0-.43.1-.8.29-1.1s.46-.53.8-.67.72-.22,1.15-.22c.72,0,1.26.16,1.63.49s.56.8.56,1.42-.2,1.14-.59,1.49-.95.52-1.67.52Zm-1.13-1.99c0,.44.1.78.3,1.02s.5.37.91.37c.38,0,.67-.11.86-.34s.3-.55.3-.96c0-.46-.11-.8-.32-1.04s-.5-.36-.86-.36c-.39,0-.69.11-.89.34s-.3.55-.3.98Z"/>
          <path class="uuid-28bd58bf-c3e4-467f-910c-8d887be85515" d="m186.7,332.04v-1.3h12.03v1.3h-12.03Zm0,4.05v-1.3h12.03v1.3h-12.03Z"/>
          <path class="uuid-28bd58bf-c3e4-467f-910c-8d887be85515" d="m223.71,334.63h-18.24v-1.29h18.24v1.29Z"/>
          <path class="uuid-28bd58bf-c3e4-467f-910c-8d887be85515" d="m233.33,332.14c.64-.87,1.25-1.5,1.84-1.9s1.19-.61,1.79-.61c.48,0,.87.04,1.19.11l-.47,2.19h-1.01c-.04-.27-.09-.48-.17-.63s-.16-.25-.25-.31-.22-.09-.37-.09c-.23,0-.49.1-.77.3s-.59.52-.93.95-.62.84-.83,1.24-.38.9-.51,1.51l-.93,4.23h-1.69l1.42-6.19c.09-.39.15-.69.18-.91s.04-.39.04-.54c0-.26-.04-.45-.13-.57s-.22-.18-.4-.18c-.2,0-.42.08-.64.25s-.53.47-.92.9l-.56-.55c.6-.62,1.1-1.07,1.5-1.33s.85-.4,1.34-.4c.41,0,.73.14.97.41s.36.62.36,1.06c0,.33-.06.66-.19,1.01l.13.05Z"/>
          <path class="uuid-28bd58bf-c3e4-467f-910c-8d887be85515" d="m246.9,330.27l.9-.64.62.16-1.44,6.19c-.14.62-.21,1.1-.21,1.45,0,.26.04.45.13.57s.22.18.4.18c.2,0,.4-.08.62-.24s.53-.46.94-.91l.56.55c-.59.62-1.09,1.07-1.5,1.33s-.86.4-1.34.4c-.4,0-.73-.13-.97-.4s-.36-.62-.36-1.06c0-.36.07-.74.22-1.14l-.13-.04c-.62.91-1.22,1.58-1.78,2s-1.15.63-1.78.63c-.72,0-1.27-.27-1.67-.81s-.59-1.3-.59-2.28c0-1.12.22-2.2.66-3.23s1.04-1.85,1.81-2.44,1.62-.89,2.57-.89c.42,0,.82.05,1.19.14s.75.26,1.14.5Zm-.86,2.91c.06-.27.1-.5.12-.69s.03-.41.03-.63c0-.5-.11-.87-.32-1.1s-.58-.35-1.09-.35c-.67,0-1.27.27-1.81.81s-.95,1.26-1.25,2.17-.45,1.81-.45,2.72c0,.68.09,1.18.28,1.52s.5.5.93.5.85-.19,1.26-.56.84-.9,1.28-1.59.75-1.48.93-2.38l.09-.42Z"/>
          <path class="uuid-28bd58bf-c3e4-467f-910c-8d887be85515" d="m256.49,336.64c-.62.91-1.22,1.58-1.78,2s-1.15.63-1.78.63c-.72,0-1.27-.27-1.67-.81s-.59-1.3-.59-2.28c0-1.12.22-2.2.66-3.23s1.04-1.85,1.81-2.44,1.62-.89,2.57-.89c.4,0,.76.04,1.1.12s.68.22,1.03.42l.51-2.26c.05-.21.1-.45.14-.71s.06-.49.06-.68-.04-.34-.11-.44-.17-.17-.31-.22-.37-.08-.72-.1l.12-.51,2.45-.09h.58l-2.43,10.81c-.14.64-.21,1.12-.21,1.45,0,.26.04.45.13.57s.22.18.4.18c.2,0,.4-.08.62-.24s.53-.46.94-.91l.56.55c-.6.63-1.1,1.08-1.51,1.34s-.85.39-1.33.39c-.4,0-.73-.13-.97-.4s-.36-.62-.36-1.06c0-.36.07-.74.22-1.14l-.13-.04Zm.65-3.46c.1-.47.15-.91.15-1.33,0-.51-.11-.88-.32-1.11s-.57-.35-1.07-.35c-.66,0-1.26.27-1.79.81s-.94,1.26-1.25,2.17-.45,1.82-.45,2.72c0,.68.09,1.18.28,1.52s.5.5.93.5c.2,0,.41-.04.62-.13s.42-.23.65-.42.45-.43.66-.71.42-.56.6-.84.35-.62.51-1.01.29-.85.4-1.4l.09-.42Z"/>
        </g>
        <g>
          <path class="uuid-28bd58bf-c3e4-467f-910c-8d887be85515" d="m204.97,318.21v-1.86c.76-.36,1.46-.62,2.12-.8s1.29-.26,1.9-.26c.74,0,1.38.11,1.93.34s.98.56,1.27.98.44.94.44,1.53c0,.55-.11,1.04-.33,1.46s-.53.79-.93,1.1-.92.62-1.56.92v.09c.4.07.78.19,1.15.37s.69.4.98.67.52.6.69.98.26.82.26,1.3c0,.76-.16,1.43-.49,2.01s-.83,1.05-1.51,1.39-1.5.51-2.47.51c-.56,0-1.16-.06-1.81-.19s-1.24-.29-1.78-.5v-2.07h1.17c.23.68.53,1.17.9,1.47s.88.46,1.53.46c.85,0,1.49-.23,1.92-.69s.65-1.15.65-2.05c0-.95-.29-1.68-.86-2.18s-1.41-.75-2.52-.75h-.88v-.86c.88-.05,1.62-.22,2.22-.51s1.05-.65,1.34-1.1.44-.95.44-1.51c0-.72-.19-1.28-.58-1.67s-.94-.59-1.68-.59c-.61,0-1.11.17-1.49.5s-.67.84-.85,1.52h-1.17Z"/>
          <path class="uuid-28bd58bf-c3e4-467f-910c-8d887be85515" d="m221.15,324.4c.11-.52.27-1.15.47-1.88s.38-1.3.53-1.7l-.05-.09h-2.87l-1.2,5.56c-.1.44-.21.91-.34,1.41s-.23.86-.3,1.08h-2.07l.1-.48c.69-.68,1.33-2.29,1.91-4.8l.64-2.76h-.31c-.46,0-.85.08-1.17.23s-.67.47-1.04.94l-.62-.52c.34-.41.62-.72.83-.94s.44-.4.68-.55.5-.26.8-.34.64-.12,1.04-.12h8.02l-.28,1.29h-2.32l-1.1,4.89c-.14.64-.21,1.12-.21,1.45,0,.26.04.45.13.57s.22.18.4.18c.39,0,.85-.31,1.38-.94l.57.53c-.49.54-.95.93-1.35,1.17s-.84.36-1.3.36-.79-.15-1.04-.45-.38-.7-.38-1.2c0-.44.09-1.07.27-1.89l.21-.99Z"/>
          <path class="uuid-28bd58bf-c3e4-467f-910c-8d887be85515" d="m216.2,351.22c.32,0,.58-.02.77-.06s.35-.1.47-.2c.12-.09.21-.21.28-.36s.15-.37.26-.68h.83l-.17,2.85h-8.04v-.47c.28-.68.66-1.38,1.13-2.1.48-.72,1.15-1.56,2.02-2.53.76-.83,1.3-1.46,1.63-1.89.36-.47.64-.87.82-1.22s.31-.66.39-.97.12-.61.12-.91c0-.49-.08-.92-.23-1.29s-.4-.67-.72-.88-.73-.32-1.22-.32c-1.22,0-2.04.68-2.46,2.03h-1.18v-1.88c.79-.37,1.52-.64,2.21-.81s1.3-.25,1.85-.25c1.21,0,2.13.27,2.74.8s.93,1.3.93,2.31c0,.35-.03.66-.1.95-.07.29-.18.58-.32.86s-.34.59-.59.91c-.25.33-.52.66-.82.99-.3.34-.82.89-1.55,1.67-1.24,1.31-2.15,2.45-2.72,3.43h3.68Z"/>
        </g>
      </g>
      <g>
        <path class="uuid-28bd58bf-c3e4-467f-910c-8d887be85515" d="m275.03,192.95v-1.86c.76-.36,1.46-.62,2.12-.8s1.29-.26,1.9-.26c.74,0,1.38.11,1.93.34s.98.56,1.27.98.44.94.44,1.53c0,.55-.11,1.04-.33,1.46s-.53.79-.93,1.1-.92.62-1.56.92v.09c.4.07.78.19,1.15.37s.69.4.98.67.52.6.69.98.26.82.26,1.3c0,.76-.16,1.43-.49,2.01s-.83,1.05-1.51,1.39-1.5.51-2.47.51c-.56,0-1.16-.06-1.81-.19s-1.24-.29-1.78-.5v-2.07h1.17c.23.68.53,1.17.9,1.47s.88.46,1.53.46c.85,0,1.49-.23,1.92-.69s.65-1.15.65-2.05c0-.95-.29-1.68-.86-2.18s-1.41-.75-2.52-.75h-.88v-.86c.88-.05,1.62-.22,2.22-.51s1.05-.65,1.34-1.1.44-.95.44-1.51c0-.72-.19-1.28-.58-1.67s-.94-.59-1.68-.59c-.61,0-1.11.17-1.49.5s-.67.84-.85,1.52h-1.17Z"/>
        <path class="uuid-28bd58bf-c3e4-467f-910c-8d887be85515" d="m293.45,190.57v.48c-1,0-1.89.21-2.67.64s-1.42,1.06-1.93,1.89-.87,1.82-1.08,2.97l.1.04c.55-.39,1.09-.68,1.62-.86s1.1-.27,1.72-.27c.74,0,1.36.16,1.88.48s.91.77,1.17,1.36.39,1.26.39,2.05c0,.85-.16,1.59-.49,2.24s-.83,1.16-1.51,1.53-1.52.56-2.51.56c-1.43,0-2.5-.44-3.23-1.33s-1.09-2.19-1.09-3.92c0-1.16.18-2.24.55-3.25s.88-1.89,1.55-2.64,1.45-1.34,2.33-1.78,1.82-.68,2.79-.73l.4.54Zm-2.91,5.92c-.32,0-.63.04-.92.11s-.57.18-.83.31-.51.31-.76.52c-.08.07-.14.15-.18.22-.06.12-.11.28-.13.46s-.03.49-.03.92c0,1.24.21,2.19.62,2.84s1.05.98,1.89.98c.49,0,.9-.08,1.23-.25s.6-.4.81-.7.35-.64.44-1.04.13-.83.13-1.3c0-.96-.2-1.71-.6-2.25s-.96-.81-1.68-.81Z"/>
        <path class="uuid-28bd58bf-c3e4-467f-910c-8d887be85515" d="m301.06,203.67c-1.41,0-2.45-.55-3.14-1.66s-1.03-2.79-1.03-5.04c0-1.2.11-2.23.32-3.11s.51-1.59.89-2.16.84-.99,1.37-1.26,1.12-.41,1.75-.41c1.43,0,2.49.55,3.18,1.65s1.04,2.76,1.04,4.99-.37,4.05-1.12,5.23-1.83,1.77-3.27,1.77Zm-2.27-6.99c0,2.12.2,3.68.59,4.67s1,1.49,1.83,1.49,1.37-.47,1.75-1.4.57-2.38.57-4.34c0-1.5-.1-2.71-.29-3.64s-.47-1.59-.82-2-.77-.61-1.26-.61c-.45,0-.83.13-1.13.4s-.55.65-.73,1.15-.32,1.11-.4,1.83-.12,1.53-.12,2.44Z"/>
        <path class="uuid-28bd58bf-c3e4-467f-910c-8d887be85515" d="m309.49,193.06c-.7,0-1.24-.16-1.61-.49s-.55-.8-.55-1.44c0-.43.1-.8.29-1.1s.46-.53.8-.67.72-.22,1.15-.22c.72,0,1.26.16,1.63.49s.56.8.56,1.42-.2,1.14-.59,1.49-.95.52-1.67.52Zm-1.13-1.99c0,.44.1.78.3,1.02s.5.37.91.37c.38,0,.67-.11.86-.34s.3-.55.3-.96c0-.46-.11-.8-.32-1.04s-.5-.36-.86-.36c-.39,0-.69.11-.89.34s-.3.55-.3.98Z"/>
        <path class="uuid-28bd58bf-c3e4-467f-910c-8d887be85515" d="m322.66,196.43v-1.3h12.03v1.3h-12.03Zm0,4.05v-1.3h12.03v1.3h-12.03Z"/>
        <path class="uuid-28bd58bf-c3e4-467f-910c-8d887be85515" d="m347.41,201.95c.32,0,.58-.02.77-.06s.35-.1.47-.2.21-.21.28-.36.15-.37.26-.68h.83l-.17,2.85h-8.04v-.47c.28-.68.66-1.38,1.13-2.1s1.15-1.56,2.02-2.53c.76-.83,1.3-1.46,1.63-1.89.36-.47.64-.87.82-1.22s.31-.66.39-.97.12-.61.12-.91c0-.49-.08-.92-.23-1.29s-.4-.67-.72-.88-.73-.32-1.22-.32c-1.22,0-2.04.68-2.46,2.03h-1.18v-1.88c.79-.37,1.52-.64,2.21-.81s1.3-.25,1.85-.25c1.21,0,2.13.27,2.74.8s.93,1.3.93,2.31c0,.35-.03.66-.1.95s-.18.58-.32.86-.34.59-.59.91-.52.66-.82.99-.82.89-1.55,1.67c-1.24,1.31-2.15,2.45-2.72,3.43h3.68Z"/>
        <path class="uuid-28bd58bf-c3e4-467f-910c-8d887be85515" d="m358.28,199.14c.11-.52.27-1.15.47-1.88s.38-1.3.53-1.7l-.05-.09h-2.87l-1.2,5.56c-.1.44-.21.91-.34,1.41s-.23.86-.3,1.08h-2.07l.1-.48c.69-.68,1.33-2.29,1.91-4.8l.64-2.76h-.31c-.46,0-.85.08-1.17.23s-.67.47-1.04.94l-.62-.52c.34-.41.62-.72.83-.94s.44-.4.68-.55.5-.26.8-.34.64-.12,1.04-.12h8.02l-.28,1.29h-2.32l-1.1,4.89c-.14.64-.21,1.12-.21,1.45,0,.26.04.45.13.57s.22.18.4.18c.39,0,.85-.31,1.38-.94l.57.53c-.49.54-.95.93-1.35,1.17s-.84.36-1.3.36-.79-.15-1.04-.45-.38-.7-.38-1.2c0-.44.09-1.07.27-1.89l.21-.99Z"/>
        <path class="uuid-28bd58bf-c3e4-467f-910c-8d887be85515" d="m372.22,196.54c.64-.87,1.25-1.5,1.84-1.9s1.19-.61,1.79-.61c.48,0,.87.04,1.19.11l-.47,2.19h-1.01c-.04-.27-.09-.48-.17-.63s-.16-.25-.25-.31-.22-.09-.37-.09c-.23,0-.49.1-.77.3s-.59.52-.93.95-.62.84-.83,1.24-.38.9-.51,1.51l-.93,4.23h-1.69l1.42-6.19c.09-.39.15-.69.18-.91s.04-.39.04-.54c0-.26-.04-.45-.13-.57s-.22-.18-.4-.18c-.2,0-.42.08-.64.25s-.53.47-.92.9l-.56-.55c.6-.62,1.1-1.07,1.5-1.33s.85-.4,1.34-.4c.41,0,.73.14.97.41s.36.62.36,1.06c0,.33-.06.66-.19,1.01l.13.05Z"/>
        <path class="uuid-28bd58bf-c3e4-467f-910c-8d887be85515" d="m385.78,194.66l.9-.64.62.16-1.44,6.19c-.14.62-.21,1.1-.21,1.45,0,.26.04.45.13.57s.22.18.4.18c.2,0,.4-.08.62-.24s.53-.46.94-.91l.56.55c-.59.62-1.09,1.07-1.5,1.33s-.86.4-1.34.4c-.4,0-.73-.13-.97-.4s-.36-.62-.36-1.06c0-.36.07-.74.22-1.14l-.13-.04c-.62.91-1.22,1.58-1.78,2s-1.15.63-1.78.63c-.72,0-1.27-.27-1.67-.81s-.59-1.3-.59-2.28c0-1.12.22-2.2.66-3.23s1.04-1.85,1.81-2.44,1.62-.89,2.57-.89c.42,0,.82.05,1.19.14s.75.26,1.14.5Zm-.86,2.91c.06-.27.1-.5.12-.69s.03-.41.03-.63c0-.5-.11-.87-.32-1.1s-.58-.35-1.09-.35c-.67,0-1.27.27-1.81.81s-.95,1.26-1.25,2.17-.45,1.81-.45,2.72c0,.68.09,1.18.28,1.52s.5.5.93.5.85-.19,1.26-.56.84-.9,1.28-1.59.75-1.48.93-2.38l.09-.42Z"/>
        <path class="uuid-28bd58bf-c3e4-467f-910c-8d887be85515" d="m395.37,201.03c-.62.91-1.22,1.58-1.78,2s-1.15.63-1.78.63c-.72,0-1.27-.27-1.67-.81s-.59-1.3-.59-2.28c0-1.12.22-2.2.66-3.23s1.04-1.85,1.81-2.44,1.62-.89,2.57-.89c.4,0,.76.04,1.1.12s.68.22,1.03.42l.51-2.26c.05-.21.1-.45.14-.71s.06-.49.06-.68-.04-.34-.11-.44-.17-.17-.31-.22-.37-.08-.72-.1l.12-.51,2.45-.09h.58l-2.43,10.81c-.14.64-.21,1.12-.21,1.45,0,.26.04.45.13.57s.22.18.4.18c.2,0,.4-.08.62-.24s.53-.46.94-.91l.56.55c-.6.63-1.1,1.08-1.51,1.34s-.85.39-1.33.39c-.4,0-.73-.13-.97-.4s-.36-.62-.36-1.06c0-.36.07-.74.22-1.14l-.13-.04Zm.65-3.46c.1-.47.15-.91.15-1.33,0-.51-.11-.88-.32-1.11s-.57-.35-1.07-.35c-.66,0-1.26.27-1.79.81s-.94,1.26-1.25,2.17-.45,1.82-.45,2.72c0,.68.09,1.18.28,1.52s.5.5.93.5c.2,0,.41-.04.62-.13s.42-.23.65-.42.45-.43.66-.71.42-.56.6-.84.35-.62.51-1.01.29-.85.4-1.4l.09-.42Z"/>
      </g>
      <g>
        <path class="uuid-28bd58bf-c3e4-467f-910c-8d887be85515" d="m26.66,176.45c0,.38.02.66.06.85s.12.35.22.47.26.21.46.28.46.12.76.16.71.06,1.21.07v.71h-7.22v-.71c.72-.03,1.24-.08,1.55-.13s.55-.14.71-.25.28-.27.36-.47.11-.53.11-.99v-7.92c0-.26-.05-.45-.14-.57s-.22-.18-.4-.18c-.21,0-.5.11-.89.32s-.86.51-1.43.89l-.43-.75,4.57-2.72h.54c-.04.62-.06,1.49-.06,2.6v8.34Z"/>
        <path class="uuid-28bd58bf-c3e4-467f-910c-8d887be85515" d="m38.68,171.95l.02.13c.74.29,1.29.7,1.67,1.25s.57,1.21.57,1.99-.18,1.43-.55,2.01-.89,1.03-1.59,1.34-1.5.47-2.43.47c-.87,0-1.63-.15-2.28-.43s-1.16-.71-1.52-1.27-.54-1.21-.54-1.97c0-.57.1-1.06.29-1.47s.45-.76.77-1.03.71-.52,1.2-.74l-.02-.13c-1.4-.61-2.1-1.64-2.1-3.12,0-.67.18-1.27.55-1.8s.89-.94,1.57-1.24,1.43-.45,2.26-.45c.94,0,1.73.13,2.36.4s1.12.64,1.44,1.14.48,1.1.48,1.79-.18,1.33-.53,1.85-.9.94-1.63,1.26Zm-4.79,3.36c0,.42.05.82.15,1.19s.25.69.46.95.48.48.82.63.74.23,1.21.23c.53,0,.99-.11,1.37-.33s.67-.54.87-.97.3-.94.3-1.52c0-.62-.11-1.16-.32-1.62s-.52-.8-.91-1.04-.84-.36-1.36-.36c-.48,0-.89.07-1.22.22s-.6.35-.8.61-.35.55-.44.89-.13.71-.13,1.1Zm.11-6.41c0,.38.05.75.14,1.08s.24.63.44.88.46.44.79.59.72.22,1.19.22c.54,0,.99-.11,1.36-.32s.64-.52.82-.93.27-.88.27-1.41c0-.59-.11-1.08-.32-1.49s-.5-.71-.87-.9-.8-.29-1.28-.29c-.82,0-1.45.22-1.88.67s-.65,1.08-.65,1.9Z"/>
        <path class="uuid-28bd58bf-c3e4-467f-910c-8d887be85515" d="m47.45,179.15c-1.41,0-2.45-.55-3.14-1.66s-1.03-2.79-1.03-5.04c0-1.2.11-2.23.32-3.11s.51-1.59.89-2.16.84-.99,1.37-1.26,1.12-.41,1.75-.41c1.43,0,2.49.55,3.18,1.65s1.04,2.76,1.04,4.99-.37,4.05-1.12,5.23-1.83,1.77-3.27,1.77Zm-2.27-6.99c0,2.12.2,3.68.59,4.67s1,1.49,1.83,1.49,1.37-.47,1.75-1.4.57-2.38.57-4.34c0-1.5-.1-2.71-.29-3.64s-.47-1.59-.82-2-.77-.61-1.26-.61c-.45,0-.83.13-1.13.4s-.55.65-.73,1.15-.32,1.11-.4,1.83-.12,1.53-.12,2.44Z"/>
        <path class="uuid-28bd58bf-c3e4-467f-910c-8d887be85515" d="m55.89,168.54c-.7,0-1.24-.16-1.61-.49s-.55-.8-.55-1.44c0-.43.1-.8.29-1.1s.46-.53.8-.67.72-.22,1.15-.22c.72,0,1.26.16,1.63.49s.56.8.56,1.42-.2,1.14-.59,1.49-.95.52-1.67.52Zm-1.13-1.99c0,.44.1.78.3,1.02s.5.37.91.37c.38,0,.67-.11.86-.34s.3-.55.3-.96c0-.46-.11-.8-.32-1.04s-.5-.36-.86-.36c-.39,0-.69.11-.89.34s-.3.55-.3.98Z"/>
        <path class="uuid-28bd58bf-c3e4-467f-910c-8d887be85515" d="m69.05,171.91v-1.3h12.03v1.3h-12.03Zm0,4.05v-1.3h12.03v1.3h-12.03Z"/>
        <path class="uuid-28bd58bf-c3e4-467f-910c-8d887be85515" d="m93.6,174.62c.11-.52.27-1.15.47-1.88s.38-1.3.53-1.7l-.05-.09h-2.87l-1.2,5.56c-.1.44-.21.91-.34,1.41s-.23.86-.3,1.08h-2.07l.1-.48c.69-.68,1.33-2.29,1.91-4.8l.64-2.76h-.31c-.46,0-.85.08-1.17.23s-.67.47-1.04.94l-.62-.52c.34-.41.62-.72.83-.94s.44-.4.68-.55.5-.26.8-.34.64-.12,1.04-.12h8.02l-.28,1.29h-2.32l-1.1,4.89c-.14.64-.21,1.12-.21,1.45,0,.26.04.45.13.57s.22.18.4.18c.39,0,.85-.31,1.38-.94l.57.53c-.49.54-.95.93-1.35,1.17s-.84.36-1.3.36-.79-.15-1.04-.45-.38-.7-.38-1.2c0-.44.09-1.07.27-1.89l.21-.99Z"/>
        <path class="uuid-28bd58bf-c3e4-467f-910c-8d887be85515" d="m107.54,172.01c.64-.87,1.25-1.5,1.84-1.9s1.19-.61,1.79-.61c.48,0,.87.04,1.19.11l-.47,2.19h-1.01c-.04-.27-.09-.48-.17-.63s-.16-.25-.25-.31-.22-.09-.37-.09c-.23,0-.49.1-.77.3s-.59.52-.93.95-.62.84-.83,1.24-.38.9-.51,1.51l-.93,4.23h-1.69l1.42-6.19c.09-.39.15-.69.18-.91s.04-.39.04-.54c0-.26-.04-.45-.13-.57s-.22-.18-.4-.18c-.2,0-.42.08-.64.25s-.53.47-.92.9l-.56-.55c.6-.62,1.1-1.07,1.5-1.33s.85-.4,1.34-.4c.41,0,.73.14.97.41s.36.62.36,1.06c0,.33-.06.66-.19,1.01l.13.05Z"/>
        <path class="uuid-28bd58bf-c3e4-467f-910c-8d887be85515" d="m121.1,170.14l.9-.64.62.16-1.44,6.19c-.14.62-.21,1.1-.21,1.45,0,.26.04.45.13.57s.22.18.4.18c.2,0,.4-.08.62-.24s.53-.46.94-.91l.56.55c-.59.62-1.09,1.07-1.5,1.33s-.86.4-1.34.4c-.4,0-.73-.13-.97-.4s-.36-.62-.36-1.06c0-.36.07-.74.22-1.14l-.13-.04c-.62.91-1.22,1.58-1.78,2s-1.15.63-1.78.63c-.72,0-1.27-.27-1.67-.81s-.59-1.3-.59-2.28c0-1.12.22-2.2.66-3.23s1.04-1.85,1.81-2.44,1.62-.89,2.57-.89c.42,0,.82.05,1.19.14s.75.26,1.14.5Zm-.86,2.91c.06-.27.1-.5.12-.69s.03-.41.03-.63c0-.5-.11-.87-.32-1.1s-.58-.35-1.09-.35c-.67,0-1.27.27-1.81.81s-.95,1.26-1.25,2.17-.45,1.81-.45,2.72c0,.68.09,1.18.28,1.52s.5.5.93.5.85-.19,1.26-.56.84-.9,1.28-1.59.75-1.48.93-2.38l.09-.42Z"/>
        <path class="uuid-28bd58bf-c3e4-467f-910c-8d887be85515" d="m130.69,176.51c-.62.91-1.22,1.58-1.78,2s-1.15.63-1.78.63c-.72,0-1.27-.27-1.67-.81s-.59-1.3-.59-2.28c0-1.12.22-2.2.66-3.23s1.04-1.85,1.81-2.44,1.62-.89,2.57-.89c.4,0,.76.04,1.1.12s.68.22,1.03.42l.51-2.26c.05-.21.1-.45.14-.71s.06-.49.06-.68-.04-.34-.11-.44-.17-.17-.31-.22-.37-.08-.72-.1l.12-.51,2.45-.09h.58l-2.43,10.81c-.14.64-.21,1.12-.21,1.45,0,.26.04.45.13.57s.22.18.4.18c.2,0,.4-.08.62-.24s.53-.46.94-.91l.56.55c-.6.63-1.1,1.08-1.51,1.34s-.85.39-1.33.39c-.4,0-.73-.13-.97-.4s-.36-.62-.36-1.06c0-.36.07-.74.22-1.14l-.13-.04Zm.65-3.46c.1-.47.15-.91.15-1.33,0-.51-.11-.88-.32-1.11s-.57-.35-1.07-.35c-.66,0-1.26.27-1.79.81s-.94,1.26-1.25,2.17-.45,1.82-.45,2.72c0,.68.09,1.18.28,1.52s.5.5.93.5c.2,0,.41-.04.62-.13s.42-.23.65-.42.45-.43.66-.71.42-.56.6-.84.35-.62.51-1.01.29-.85.4-1.4l.09-.42Z"/>
      </g>
      <line class="uuid-c6a3d44b-68ed-440e-8870-5d71b2be3085" x1="318.11" y1="183.5" x2="62.33" y2="183.5"/>
      <line class="uuid-c6a3d44b-68ed-440e-8870-5d71b2be3085" x1="190.22" y1="311.39" x2="190.22" y2="55.61"/>
      <line class="uuid-c6a3d44b-68ed-440e-8870-5d71b2be3085" x1="190.22" y1="183.5" x2="280.66" y2="93.06"/>
      <circle class="uuid-766b0e5e-63d0-4151-a6e7-ccd7baffd434" cx="190.22" cy="183.5" r="127.89"/>
      <line class="uuid-60be290b-d27c-4cf1-8beb-7cecadc69730" x1="217.55" y1="183.5" x2="190.22" y2="183.5"/>
      <circle class="uuid-71a2762c-530f-41c1-a879-076601b3ddf9" cx="190.22" cy="183.5" r="27.46"/>
      <circle class="uuid-ba3bd412-fbf7-4681-b3d5-d5ca0190df77" cx="190.22" cy="183.5" r="27.46"/>
    </g>
  </g>
</svg>