<?xml version="1.0" encoding="UTF-8"?>
<svg xmlns="http://www.w3.org/2000/svg" width="1617.3" height="1020" xmlns:xlink="http://www.w3.org/1999/xlink" viewBox="0 0 1617.3 1020">
  <defs>
    <style>
      .uuid-084952cd-d07f-4b42-a69f-90e42644bfd2 {
        fill: #fff;
      }

      .uuid-c8adc4e0-78b2-4ed9-90c6-7a6b8044de29 {
        stroke: rgba(192, 192, 192, .24);
      }

      .uuid-c8adc4e0-78b2-4ed9-90c6-7a6b8044de29, .uuid-b41b953e-8ab3-4909-a939-521ce3aa1ee8, .uuid-8c36aee5-1eb4-428d-9e31-55e1398eed59 {
        stroke-linecap: round;
        stroke-linejoin: round;
      }

      .uuid-c8adc4e0-78b2-4ed9-90c6-7a6b8044de29, .uuid-b41b953e-8ab3-4909-a939-521ce3aa1ee8, .uuid-8c36aee5-1eb4-428d-9e31-55e1398eed59, .uuid-f9b033e2-d912-45b1-b791-44156f7c4af6, .uuid-f3b78e8a-a70f-4c9d-b1e6-91062cd850ee, .uuid-23d72425-fecf-4691-8dcf-d9d60fe439d8, .uuid-c0292b60-f72e-4bf1-bdc1-660d3e8bc78e, .uuid-40435213-cb90-4b1c-9724-e34fb9b7435c {
        fill: none;
      }

      .uuid-c8adc4e0-78b2-4ed9-90c6-7a6b8044de29, .uuid-8c36aee5-1eb4-428d-9e31-55e1398eed59 {
        stroke-width: 1.09px;
      }

      .uuid-b41b953e-8ab3-4909-a939-521ce3aa1ee8 {
        stroke: rgba(255, 0, 51, .7);
        stroke-width: 8.02px;
      }

      .uuid-0ed4e396-d011-4f8f-b5e8-2a6b0163702a, .uuid-c7173c2e-6d8d-4327-978a-52af634e20a8 {
        fill: #606060;
      }

      .uuid-0ed4e396-d011-4f8f-b5e8-2a6b0163702a, .uuid-40435213-cb90-4b1c-9724-e34fb9b7435c {
        font-family: HelveticaNeue-UltraLight, 'Helvetica Neue UltraLight';
        font-size: 13.13px;
        font-weight: 100;
        isolation: isolate;
      }

      .uuid-8c36aee5-1eb4-428d-9e31-55e1398eed59 {
        stroke: silver;
      }

      .uuid-2e80b901-a8e5-46a8-8508-fe6dc026b6fc {
        fill: #00699b;
      }

      .uuid-f9b033e2-d912-45b1-b791-44156f7c4af6 {
        stroke: #606060;
        stroke-miterlimit: 10;
        stroke-width: 2.19px;
      }

      .uuid-23d72425-fecf-4691-8dcf-d9d60fe439d8 {
        clip-path: url(#uuid-507555a6-7d6b-4bfe-a343-6427dd3464da);
      }

      .uuid-c0292b60-f72e-4bf1-bdc1-660d3e8bc78e {
        clip-path: url(#uuid-f8d009f8-563b-404f-b24c-7ba6cece9596);
      }

      .uuid-c7173c2e-6d8d-4327-978a-52af634e20a8 {
        fill-rule: evenodd;
      }

      .uuid-40435213-cb90-4b1c-9724-e34fb9b7435c {
        stroke: #fff;
        stroke-linejoin: bevel;
        stroke-width: 3.28px;
      }
    </style>
    <clipPath id="uuid-f8d009f8-563b-404f-b24c-7ba6cece9596">
      <rect class="uuid-f3b78e8a-a70f-4c9d-b1e6-91062cd850ee" x="0" y="3.66" width="1603.54" height="1021.45"/>
    </clipPath>
    <clipPath id="uuid-507555a6-7d6b-4bfe-a343-6427dd3464da">
      <rect class="uuid-f3b78e8a-a70f-4c9d-b1e6-91062cd850ee" x="-5.12" y="14.85" width="1608.47" height="992.44"/>
    </clipPath>
  </defs>
  <g id="uuid-5a670db8-4572-4a7a-aa66-f6858b9bb861" data-name="Grafica">
    <g class="uuid-c0292b60-f72e-4bf1-bdc1-660d3e8bc78e">
      <g class="uuid-23d72425-fecf-4691-8dcf-d9d60fe439d8">
        <g>
          <rect class="uuid-084952cd-d07f-4b42-a69f-90e42644bfd2" x="-5.12" y="14.85" width="1608.47" height="992.44"/>
          <path class="uuid-8c36aee5-1eb4-428d-9e31-55e1398eed59" d="m67.64,15.4v992.44m0-992.44v992.44M214.26,15.4v992.44M360.89,15.4v992.44M507.51,15.4v992.44M654.13,15.4v992.44M948.47,15.4v992.44M1095.1,15.4v992.44M1241.72,15.4v992.44M1388.34,15.4v992.44M1534.96,15.4v992.44"/>
          <path class="uuid-c8adc4e0-78b2-4ed9-90c6-7a6b8044de29" d="m8.55,15.4v992.44M38.1,15.4v992.44M97.18,15.4v992.44M126.73,15.4v992.44M155.18,15.4v992.44M184.72,15.4v992.44M243.81,15.4v992.44M273.35,15.4v992.44M302.89,15.4v992.44M331.34,15.4v992.44M390.43,15.4v992.44M419.97,15.4v992.44M449.52,15.4v992.44M477.97,15.4v992.44M537.05,15.4v992.44M566.6,15.4v992.44M596.14,15.4v992.44M625.68,15.4v992.44M683.68,15.4v992.44M713.22,15.4v992.44M742.76,15.4v992.44M772.31,15.4v992.44M830.3,15.4v992.44M859.84,15.4v992.44M889.39,15.4v992.44M918.93,15.4v992.44M976.92,15.4v992.44M1006.47,15.4v992.44m29.54-992.44v992.44m29.54-992.44v992.44M1124.64,15.4v992.44m28.45-992.44v992.44m29.54-992.44v992.44m29.54-992.44v992.44M1271.26,15.4v992.44m29.54-992.44v992.44m28.45-992.44v992.44m29.54-992.44v992.44M1417.88,15.4v992.44m29.54-992.44v992.44m28.45-992.44v992.44m29.54-992.44v992.44M1564.51,15.4v992.44m29.54-992.44v992.44"/>
          <path class="uuid-8c36aee5-1eb4-428d-9e31-55e1398eed59" d="m-4.58,137.95h1608.47m-1608.47,0h1608.47M-4.58,323.96h1608.47M-4.58,698.18h1608.47M-4.58,885.29h1608.47"/>
          <path class="uuid-c8adc4e0-78b2-4ed9-90c6-7a6b8044de29" d="m-4.58,25.25h1608.47M-4.58,25.25h1608.47M-4.58,62.45h1608.47M-4.58,99.65h1608.47M-4.58,175.15h1608.47M-4.58,212.35h1608.47M-4.58,249.56h1608.47M-4.58,286.76h1608.47M-4.58,361.17h1608.47M-4.58,399.46h1608.47M-4.58,436.67h1608.47M-4.58,473.87h1608.47M-4.58,548.27h1608.47M-4.58,585.48h1608.47M-4.58,622.68h1608.47M-4.58,660.98h1608.47M-4.58,735.38h1608.47M-4.58,772.59h1608.47M-4.58,809.79h1608.47M-4.58,846.99h1608.47M-4.58,922.49h1608.47M-4.58,959.69h1608.47M-4.58,996.9h1608.47"/>
          <path class="uuid-f9b033e2-d912-45b1-b791-44156f7c4af6" d="m801.3,18.13v989.16"/>
          <path class="uuid-c7173c2e-6d8d-4327-978a-52af634e20a8" d="m801.32,17.04l-5.47,21.88h10.94"/>
          <path class="uuid-f9b033e2-d912-45b1-b791-44156f7c4af6" d="m-5.12,511.62h1605.19"/>
          <path class="uuid-c7173c2e-6d8d-4327-978a-52af634e20a8" d="m1601.16,511.11l-21.88-5.47v10.94"/>
          <text class="uuid-0ed4e396-d011-4f8f-b5e8-2a6b0163702a" transform="translate(40.83 528.03)"><tspan x="0" y="0">–5π / 2</tspan></text>
          <text class="uuid-40435213-cb90-4b1c-9724-e34fb9b7435c" transform="translate(40.83 528.03)"><tspan x="0" y="0">–5π / 2</tspan></text>
          <text class="uuid-0ed4e396-d011-4f8f-b5e8-2a6b0163702a" transform="translate(40.83 528.03)"><tspan x="0" y="0">–5π / 2</tspan></text>
          <text class="uuid-0ed4e396-d011-4f8f-b5e8-2a6b0163702a" transform="translate(202.77 528.03)"><tspan x="0" y="0">–2π</tspan></text>
          <text class="uuid-40435213-cb90-4b1c-9724-e34fb9b7435c" transform="translate(202.77 528.03)"><tspan x="0" y="0">–2π</tspan></text>
          <text class="uuid-0ed4e396-d011-4f8f-b5e8-2a6b0163702a" transform="translate(202.77 528.03)"><tspan x="0" y="0">–2π</tspan></text>
          <text class="uuid-0ed4e396-d011-4f8f-b5e8-2a6b0163702a" transform="translate(334.08 528.03)"><tspan x="0" y="0">–3π / 2</tspan></text>
          <text class="uuid-40435213-cb90-4b1c-9724-e34fb9b7435c" transform="translate(334.08 528.03)"><tspan x="0" y="0">–3π / 2</tspan></text>
          <text class="uuid-0ed4e396-d011-4f8f-b5e8-2a6b0163702a" transform="translate(334.08 528.03)"><tspan x="0" y="0">–3π / 2</tspan></text>
          <text class="uuid-0ed4e396-d011-4f8f-b5e8-2a6b0163702a" transform="translate(500.4 528.03)"><tspan x="0" y="0">–π</tspan></text>
          <text class="uuid-40435213-cb90-4b1c-9724-e34fb9b7435c" transform="translate(500.4 528.03)"><tspan x="0" y="0">–π</tspan></text>
          <text class="uuid-0ed4e396-d011-4f8f-b5e8-2a6b0163702a" transform="translate(500.4 528.03)"><tspan x="0" y="0">–π</tspan></text>
          <text class="uuid-0ed4e396-d011-4f8f-b5e8-2a6b0163702a" transform="translate(631.7 528.03)"><tspan x="0" y="0">–π / 2</tspan></text>
          <text class="uuid-40435213-cb90-4b1c-9724-e34fb9b7435c" transform="translate(631.7 528.03)"><tspan x="0" y="0">–π / 2</tspan></text>
          <text class="uuid-0ed4e396-d011-4f8f-b5e8-2a6b0163702a" transform="translate(631.7 528.03)"><tspan x="0" y="0">–π / 2</tspan></text>
          <text class="uuid-0ed4e396-d011-4f8f-b5e8-2a6b0163702a" transform="translate(929.32 528.03)"><tspan x="0" y="0">π / 2</tspan></text>
          <text class="uuid-40435213-cb90-4b1c-9724-e34fb9b7435c" transform="translate(929.32 528.03)"><tspan x="0" y="0">π / 2</tspan></text>
          <text class="uuid-0ed4e396-d011-4f8f-b5e8-2a6b0163702a" transform="translate(929.32 528.03)"><tspan x="0" y="0">π / 2</tspan></text>
          <text class="uuid-0ed4e396-d011-4f8f-b5e8-2a6b0163702a" transform="translate(1091.27 528.03)"><tspan x="0" y="0">π</tspan></text>
          <text class="uuid-40435213-cb90-4b1c-9724-e34fb9b7435c" transform="translate(1091.27 528.03)"><tspan x="0" y="0">π</tspan></text>
          <text class="uuid-0ed4e396-d011-4f8f-b5e8-2a6b0163702a" transform="translate(1091.27 528.03)"><tspan x="0" y="0">π</tspan></text>
          <text class="uuid-0ed4e396-d011-4f8f-b5e8-2a6b0163702a" transform="translate(1218.19 528.03)"><tspan x="0" y="0">3π / 2</tspan></text>
          <text class="uuid-40435213-cb90-4b1c-9724-e34fb9b7435c" transform="translate(1218.19 528.03)"><tspan x="0" y="0">3π / 2</tspan></text>
          <text class="uuid-0ed4e396-d011-4f8f-b5e8-2a6b0163702a" transform="translate(1218.19 528.03)"><tspan x="0" y="0">3π / 2</tspan></text>
          <text class="uuid-0ed4e396-d011-4f8f-b5e8-2a6b0163702a" transform="translate(1381.23 528.03)"><tspan x="0" y="0">2π</tspan></text>
          <text class="uuid-40435213-cb90-4b1c-9724-e34fb9b7435c" transform="translate(1381.23 528.03)"><tspan x="0" y="0">2π</tspan></text>
          <text class="uuid-0ed4e396-d011-4f8f-b5e8-2a6b0163702a" transform="translate(1381.23 528.03)"><tspan x="0" y="0">2π</tspan></text>
          <text class="uuid-0ed4e396-d011-4f8f-b5e8-2a6b0163702a" transform="translate(1511.44 528.03)"><tspan x="0" y="0">5π / 2</tspan></text>
          <text class="uuid-40435213-cb90-4b1c-9724-e34fb9b7435c" transform="translate(1511.44 528.03)"><tspan x="0" y="0">5π / 2</tspan></text>
          <text class="uuid-0ed4e396-d011-4f8f-b5e8-2a6b0163702a" transform="translate(1511.44 528.03)"><tspan x="0" y="0">5π / 2</tspan></text>
          <text class="uuid-0ed4e396-d011-4f8f-b5e8-2a6b0163702a" transform="translate(779.42 890.21)"><tspan x="0" y="0">–2</tspan></text>
          <text class="uuid-40435213-cb90-4b1c-9724-e34fb9b7435c" transform="translate(779.42 890.21)"><tspan x="0" y="0">–2</tspan></text>
          <text class="uuid-0ed4e396-d011-4f8f-b5e8-2a6b0163702a" transform="translate(779.42 890.21)"><tspan x="0" y="0">–2</tspan></text>
          <text class="uuid-0ed4e396-d011-4f8f-b5e8-2a6b0163702a" transform="translate(779.42 703.1)"><tspan x="0" y="0">–1</tspan></text>
          <text class="uuid-40435213-cb90-4b1c-9724-e34fb9b7435c" transform="translate(779.42 703.1)"><tspan x="0" y="0">–1</tspan></text>
          <text class="uuid-0ed4e396-d011-4f8f-b5e8-2a6b0163702a" transform="translate(779.42 703.1)"><tspan x="0" y="0">–1</tspan></text>
          <text class="uuid-0ed4e396-d011-4f8f-b5e8-2a6b0163702a" transform="translate(785.98 328.89)"><tspan x="0" y="0">1</tspan></text>
          <text class="uuid-40435213-cb90-4b1c-9724-e34fb9b7435c" transform="translate(785.98 328.89)"><tspan x="0" y="0">1</tspan></text>
          <text class="uuid-0ed4e396-d011-4f8f-b5e8-2a6b0163702a" transform="translate(785.98 328.89)"><tspan x="0" y="0">1</tspan></text>
          <text class="uuid-0ed4e396-d011-4f8f-b5e8-2a6b0163702a" transform="translate(785.98 142.87)"><tspan x="0" y="0">2</tspan></text>
          <text class="uuid-40435213-cb90-4b1c-9724-e34fb9b7435c" transform="translate(785.98 142.87)"><tspan x="0" y="0">2</tspan></text>
          <text class="uuid-0ed4e396-d011-4f8f-b5e8-2a6b0163702a" transform="translate(785.98 142.87)"><tspan x="0" y="0">2</tspan></text>
          <text class="uuid-0ed4e396-d011-4f8f-b5e8-2a6b0163702a" transform="translate(785.98 528.03)"><tspan x="0" y="0">0</tspan></text>
          <text class="uuid-40435213-cb90-4b1c-9724-e34fb9b7435c" transform="translate(785.98 528.03)"><tspan x="0" y="0">0</tspan></text>
          <text class="uuid-0ed4e396-d011-4f8f-b5e8-2a6b0163702a" transform="translate(785.98 528.03)"><tspan x="0" y="0">0</tspan></text>
          <path class="uuid-b41b953e-8ab3-4909-a939-521ce3aa1ee8" d="m-4.03,644.18v1.53h0l1.09,1.51h0l1.09,1.49h0l1.09,1.47h0l1.09,1.45H.35l1.09,1.43h0l1.09,1.41h0l1.09,1.39h0l1.09,1.37h0l1.09,1.35h0l1.09,1.33h0l1.09,1.31h0l1.09,1.29h0l1.09,1.27h0l1.09,1.25h0l1.09,1.23h0l1.09,1.21h0l1.09,1.19h0l1.09,1.17h0l1.09,1.14h0l1.09,1.12h0l1.09,1.1h0l1.09,1.08h0l1.09,1.05h0l1.09,1.03h0l1.09,1.01h0l1.09.99h0l1.09.96h0l1.09.94h0l1.09.92h0l1.09.89h0l1.09.87h0l1.09.85h0l1.09.82h0l1.09.8h0l1.09.78h0l1.09.75h0l1.09.73h0l1.09.7h0l1.09.68h0l1.09.65h0l1.09.63h0l1.09.61h0l1.09.58h0l1.09.56h0l1.09.53h0l1.09.51h0l1.09.48h0l1.09.46h0l1.09.43h0l1.09.41h0l1.09.38h0l1.09.36h0l1.09.33h0l1.09.31h0l1.09.28h0l1.09.25h0l1.09.23h0l1.09.2h0l1.09.18h0l1.09.15h0l1.09.13h0l1.09.1h0l1.09.08h0l1.09.05h0l1.09.02h0s1.09,0,1.09,0h0s1.09-.03,1.09-.03h0l1.09-.05h0l1.09-.08h0l1.09-.1h0l1.09-.13h0l1.09-.16h0l1.09-.18h0l1.09-.21h0l1.09-.23h0l1.09-.26h0l1.09-.28h0l1.09-.31h0l1.09-.33h0l1.09-.36h0l1.09-.38h0l1.09-.41h0l1.09-.43h0l1.09-.46h0l1.09-.48h0l1.09-.51h0l1.09-.53h0l1.09-.56h0l1.09-.58h0l1.09-.61h0l1.09-.63h0l1.09-.66h0l1.09-.68h0l1.09-.71h0l1.09-.73h0l1.09-.75h0l1.09-.78h0l1.09-.8h0l1.09-.83h0l1.09-.85h0l1.09-.87h0l1.09-.9h0l1.09-.92h0l1.09-.94h0l1.09-.97h0l1.09-.99h0l1.09-1.01h0l1.09-1.03h0l1.09-1.06h0l1.09-1.08h0l1.09-1.1h0l1.09-1.12h0l1.09-1.15h0l1.09-1.17h0l1.09-1.19h0l1.09-1.21h0l1.09-1.23h0l1.09-1.25h0l1.09-1.27h0l1.09-1.29h0l1.09-1.32h0l1.09-1.34h0l1.09-1.36h0l1.09-1.38h0l1.09-1.4h0l1.09-1.42h0l1.09-1.43h0l1.09-1.45h0l1.09-1.47h0l1.09-1.49h0l1.09-1.51h0l1.09-1.53h0l1.09-1.55h0l1.09-1.57h0l1.09-1.58h0l1.09-1.6h0l1.09-1.62h0l1.09-1.64h0l1.09-1.65h0l1.09-1.67h0l1.09-1.69h0l1.09-1.7h0l1.09-1.72h0l1.09-1.73h0l1.09-1.75h0l1.09-1.76h0l1.09-1.78h0l1.09-1.79h0l1.09-1.81h0l1.09-1.82h0l1.09-1.84h0l1.09-1.85h0l1.09-1.86h0l1.09-1.88h0l1.09-1.89h0l1.09-1.9h0l1.09-1.92h0l1.09-1.93h0l1.09-1.94h0l1.09-1.95h0l1.09-1.96h0l1.09-1.97h0l1.09-1.99h0l1.09-2h0l1.09-2.01h0l1.09-2.02h0l1.09-2.03h0l1.09-2.04h0l1.09-2.05h0l1.09-2.05h0l1.09-2.06h0l1.09-2.07h0l1.09-2.08h0l1.09-2.09h0l1.09-2.09h0l1.09-2.1h0l1.09-2.11h0l1.09-2.12h0l1.09-2.12h0l1.09-2.13h0l1.09-2.13h0l1.09-2.14h0l1.09-2.14h0l1.09-2.15h0l1.09-2.15h0l1.09-2.16h0l1.09-2.16h0l1.09-2.17h0l1.09-2.17h0l1.09-2.17h0l1.09-2.18h0l1.09-2.18h0l1.09-2.18h0l1.09-2.18h0l1.09-2.18h0l1.09-2.19h0l1.09-2.19h0l1.09-2.19h0l1.09-2.19h0l1.09-2.19h0l1.09-2.19h0l1.09-2.19h0l1.09-2.19h0l1.09-2.19h0l1.09-2.18h0l1.09-2.18h0l1.09-2.18h0l1.09-2.18h0l1.09-2.18h0l1.09-2.17h0l1.09-2.17h0l1.09-2.17h0l1.09-2.16h0l1.09-2.16h0l1.09-2.15h0l1.09-2.15h0l1.09-2.15h0l1.09-2.14h0l1.09-2.13h0l1.09-2.13h0l1.09-2.12h0l1.09-2.12h0l1.09-2.11h0l1.09-2.1h0l1.09-2.1h0l1.09-2.09h0l1.09-2.08h0l1.09-2.07h0l1.09-2.06h0l1.09-2.06h0l1.09-2.05h0l1.09-2.04h0l1.09-2.03h0l1.09-2.02h0l1.09-2.01h0l1.09-2h0l1.09-1.99h0l1.09-1.98h0l1.09-1.96h0l1.09-1.95h0l1.09-1.94h0l1.09-1.93h0l1.09-1.92h0l1.09-1.9h0l1.09-1.89h0l1.09-1.88h0l1.09-1.87h0l1.09-1.85h0l1.09-1.84h0l1.09-1.82h0l1.09-1.81h0l1.09-1.8h0l1.09-1.78h0l1.09-1.77h0l1.09-1.75h0l1.09-1.74h0l1.09-1.72h0l1.09-1.7h0l1.09-1.69h0l1.09-1.67h0l1.09-1.65h0l1.09-1.64h0l1.09-1.62h0l1.09-1.6h0l1.09-1.59h0l1.09-1.57h0l1.09-1.55h0l1.09-1.53h0l1.09-1.51h0l1.09-1.49h0l1.09-1.48h0l1.09-1.46h0l1.09-1.44h0l1.09-1.42h0l1.09-1.4h0l1.09-1.38h0l1.09-1.36h0l1.09-1.34h0l1.09-1.32h0l1.09-1.3h0l1.09-1.28h0l1.09-1.26h0l1.09-1.23h0l1.09-1.21h0l1.09-1.19h0l1.09-1.17h0l1.09-1.15h0l1.09-1.13h0l1.09-1.1h0l1.09-1.08h0l1.09-1.06h0l1.09-1.04h0l1.09-1.01h0l1.09-.99h0l1.09-.97h0l1.09-.95h0l1.09-.92h0l1.09-.9h0l1.09-.88h0l1.09-.85h0l1.09-.83h0l1.09-.81h0l1.09-.78h0l1.09-.76h0l1.09-.73h0l1.09-.71h0l1.09-.68h0l1.09-.66h0l1.09-.64h0l1.09-.61h0l1.09-.59h0l1.09-.56h0l1.09-.54h0l1.09-.51h0l1.09-.49h0l1.09-.46h0l1.09-.44h0l1.09-.41h0l1.09-.39h0l1.09-.36h0l1.09-.34h0l1.09-.31h0l1.09-.29h0l1.09-.26h0l1.09-.23h0l1.09-.21h0l1.09-.18h0l1.09-.16h0l1.09-.13h0l1.09-.11h0l1.09-.08h0l1.09-.06h0l1.09-.03h1.09s0,0,0,0l1.09.02h0l1.09.05h0l1.09.07h0l1.09.1h0l1.09.12h0l1.09.15h0l1.09.17h0l1.09.2h0l1.09.23h0l1.09.25h0l1.09.28h0l1.09.3h0l1.09.33h0l1.09.35h0l1.09.38h0l1.09.4h0l1.09.43h0l1.09.45h0l1.09.48h0l1.09.5h0l1.09.53h0l1.09.55h0l1.09.58h0l1.09.6h0l1.09.63h0l1.09.65h0l1.09.68h0l1.09.7h0l1.09.72h0l1.09.75h0l1.09.77h0l1.09.8h0l1.09.82h0l1.09.84h0l1.09.87h0l1.09.89h0l1.09.91h0l1.09.94h0l1.09.96h0l1.09.98h0l1.09,1.01h0l1.09,1.03h0l1.09,1.05h0l1.09,1.07h0l1.09,1.1h0l1.09,1.12h0l1.09,1.14h0l1.09,1.16h0l1.09,1.18h0l1.09,1.21h0l1.09,1.23h0l1.09,1.25h0l1.09,1.27h0l1.09,1.29h0l1.09,1.31h0l1.09,1.33h0l1.09,1.35h0l1.09,1.37h0l1.09,1.39h0l1.09,1.41h0l1.09,1.43h0l1.09,1.45h0l1.09,1.47h0l1.09,1.49h0l1.09,1.51h0l1.09,1.52h0l1.09,1.54h0l1.09,1.56h0l1.09,1.58h0l1.09,1.6h0l1.09,1.61h0l1.09,1.63h0l1.09,1.65h0l1.09,1.67h0l1.09,1.68h0l1.09,1.7h0l1.09,1.71h0l1.09,1.73h0l1.09,1.75h0l1.09,1.76h0l1.09,1.78h0l1.09,1.79h0l1.09,1.81h0l1.09,1.82h0l1.09,1.83h0l1.09,1.85h0l1.09,1.86h0l1.09,1.87h0l1.09,1.89h0l1.09,1.9h0l1.09,1.91h0l1.09,1.93h0l1.09,1.94h0l1.09,1.95h0l1.09,1.96h0l1.09,1.97h0l1.09,1.98h0l1.09,1.99h0l1.09,2h0l1.09,2.01h0l1.09,2.02h0l1.09,2.03h0l1.09,2.04h0l1.09,2.05h0l1.09,2.06h0l1.09,2.07h0l1.09,2.08h0l1.09,2.09h0l1.09,2.09h0l1.09,2.1h0l1.09,2.11h0l1.09,2.11h0l1.09,2.12h0l1.09,2.13h0l1.09,2.13h0l1.09,2.14h0l1.09,2.14h0l1.09,2.15h0l1.09,2.15h0l1.09,2.16h0l1.09,2.16h0l1.09,2.17h0l1.09,2.17h0l1.09,2.17h0l1.09,2.18h0l1.09,2.18h0l1.09,2.18h0l1.09,2.18h0l1.09,2.18h0l1.09,2.19h0l1.09,2.19h0l1.09,2.19h0l1.09,2.19h0l1.09,2.19h0l1.09,2.19h0l1.09,2.19h0l1.09,2.19h0l1.09,2.19h0l1.09,2.19h0l1.09,2.18h0l1.09,2.18h0l1.09,2.18h0l1.09,2.18h0l1.09,2.17h0l1.09,2.17h0l1.09,2.17h0l1.09,2.16h0l1.09,2.16h0l1.09,2.16h0l1.09,2.15h0l1.09,2.15h0l1.09,2.14h0l1.09,2.14h0l1.09,2.13h0l1.09,2.12h0l1.09,2.12h0l1.09,2.11h0l1.09,2.1h0l1.09,2.1h0l1.09,2.09h0l1.09,2.08h0l1.09,2.07h0l1.09,2.07h0l1.09,2.06h0l1.09,2.05h0l1.09,2.04h0l1.09,2.03h0l1.09,2.02h0l1.09,2.01h0l1.09,2h0l1.09,1.99h0l1.09,1.98h0l1.09,1.97h0l1.09,1.96h0l1.09,1.94h0l1.09,1.93h0l1.09,1.92h0l1.09,1.91h0l1.09,1.9h0l1.09,1.88h0l1.09,1.87h0l1.09,1.86h0l1.09,1.84h0l1.09,1.83h0l1.09,1.81h0l1.09,1.8h0l1.09,1.78h0l1.09,1.77h0l1.09,1.75h0l1.09,1.74h0l1.09,1.72h0l1.09,1.71h0l1.09,1.69h0l1.09,1.67h0l1.09,1.66h0l1.09,1.64h0l1.09,1.62h0l1.09,1.61h0l1.09,1.59h0l1.09,1.57h0l1.09,1.55h0l1.09,1.54h0l1.09,1.52h0l1.09,1.5h0l1.09,1.48h0l1.09,1.46h0l1.09,1.44h0l1.09,1.42h0l1.09,1.4h0l1.09,1.38h0l1.09,1.36h0l1.09,1.34h0l1.09,1.32h0l1.09,1.3h0l1.09,1.28h0l1.09,1.26h0l1.09,1.24h0l1.09,1.22h0l1.09,1.2h0l1.09,1.18h0l1.09,1.15h0l1.09,1.13h0l1.09,1.11h0l1.09,1.09h0l1.09,1.07h0l1.09,1.04h0l1.09,1.02h0l1.09,1h0l1.09.97h0l1.09.95h0l1.09.93h0l1.09.9h0l1.09.88h0l1.09.86h0l1.09.83h0l1.09.81h0l1.09.79h0l1.09.76h0l1.09.74h0l1.09.71h0l1.09.69h0l1.09.67h0l1.09.64h0l1.09.62h0l1.09.59h0l1.09.57h0l1.09.54h0l1.09.52h0l1.09.49h0l1.09.47h0l1.09.44h0l1.09.42h0l1.09.39h0l1.09.37h0l1.09.34h0l1.09.32h0l1.09.29h0l1.09.27h0l1.09.24h0l1.09.21h0l1.09.19h0l1.09.16h0l1.09.14h0l1.09.11h0l1.09.09h0l1.09.06h0l1.09.04h1.09s0,.01,0,.01l1.09-.02h0l1.09-.04h0l1.09-.07h0l1.09-.09h0l1.09-.12h0l1.09-.14h0l1.09-.17h0l1.09-.19h0l1.09-.22h0l1.09-.25h0l1.09-.27h0l1.09-.3h0l1.09-.32h0l1.09-.35h0l1.09-.37h0l1.09-.4h0l1.09-.42h0l1.09-.45h0l1.09-.47h0l1.09-.5h0l1.09-.52h0l1.09-.55h0l1.09-.57h0l1.09-.6h0l1.09-.62h0l1.09-.65h0l1.09-.67h0l1.09-.7h0l1.09-.72h0l1.09-.74h0l1.09-.77h0l1.09-.79h0l1.09-.82h0l1.09-.84h0l1.09-.86h0l1.09-.89h0l1.09-.91h0l1.09-.93h0l1.09-.96h0l1.09-.98h0l1.09-1h0l1.09-1.02h0l1.09-1.05h0l1.09-1.07h0l1.09-1.09h0l1.09-1.11h0l1.09-1.14h0l1.09-1.16h0l1.09-1.18h0l1.09-1.2h0l1.09-1.22h0l1.09-1.24h0l1.09-1.26h0l1.09-1.29h0l1.09-1.31h0l1.09-1.33h0l1.09-1.35h0l1.09-1.37h0l1.09-1.39h0l1.09-1.41h0l1.09-1.43h0l1.09-1.45h0l1.09-1.46h0l1.09-1.48h0l1.09-1.5h0l1.09-1.52h0l1.09-1.54h0l1.09-1.56h0l1.09-1.58h0l1.09-1.59h0l1.09-1.61h0l1.09-1.63h0l1.09-1.64h0l1.09-1.66h0l1.09-1.68h0l1.09-1.69h0l1.09-1.71h0l1.09-1.73h0l1.09-1.74h0l1.09-1.76h0l1.09-1.77h0l1.09-1.79h0l1.09-1.8h0l1.09-1.82h0l1.09-1.83h0l1.09-1.84h0l1.09-1.86h0l1.09-1.87h0l1.09-1.88h0l1.09-1.9h0l1.09-1.91h0l1.09-1.92h0l1.09-1.93h0l1.09-1.95h0l1.09-1.96h0l1.09-1.97h0l1.09-1.98h0l1.09-1.99h0l1.09-2h0l1.09-2.01h0l1.09-2.02h0l1.09-2.03h0l1.09-2.04h0l1.09-2.05h0l1.09-2.06h0l1.09-2.07h0l1.09-2.08h0l1.09-2.08h0l1.09-2.09h0l1.09-2.1h0l1.09-2.11h0l1.09-2.11h0l1.09-2.12h0l1.09-2.13h0l1.09-2.13h0l1.09-2.14h0l1.09-2.14h0l1.09-2.15h0l1.09-2.15h0l1.09-2.16h0l1.09-2.16h0l1.09-2.16h0l1.09-2.17h0l1.09-2.17h0l1.09-2.17h0l1.09-2.18h0l1.09-2.18h0l1.09-2.18h0l1.09-2.18h0l1.09-2.19h0l1.09-2.19h0l1.09-2.19h0l1.09-2.19h0l1.09-2.19h0l1.09-2.19h0l1.09-2.19h0l1.09-2.19h0l1.09-2.19h0l1.09-2.19h0l1.09-2.18h0l1.09-2.18h0l1.09-2.18h0l1.09-2.18h0l1.09-2.17h0l1.09-2.17h0l1.09-2.17h0l1.09-2.17h0l1.09-2.16h0l1.09-2.16h0l1.09-2.15h0l1.09-2.15h0l1.09-2.14h0l1.09-2.14h0l1.09-2.13h0l1.09-2.13h0l1.09-2.12h0l1.09-2.11h0l1.09-2.11h0l1.09-2.1h0l1.09-2.09h0l1.09-2.08h0l1.09-2.08h0l1.09-2.07h0l1.09-2.06h0l1.09-2.05h0l1.09-2.04h0l1.09-2.03h0l1.09-2.02h0l1.09-2.01h0l1.09-2h0l1.09-1.99h0l1.09-1.98h0l1.09-1.97h0l1.09-1.96h0l1.09-1.95h0l1.09-1.94h0l1.09-1.92h0l1.09-1.91h0l1.09-1.9h0l1.09-1.89h0l1.09-1.87h0l1.09-1.86h0l1.09-1.84h0l1.09-1.83h0l1.09-1.82h0l1.09-1.8h0l1.09-1.79h0l1.09-1.77h0l1.09-1.76h0l1.09-1.74h0l1.09-1.73h0l1.09-1.71h0l1.09-1.69h0l1.09-1.68h0l1.09-1.66h0l1.09-1.65h0l1.09-1.63h0l1.09-1.61h0l1.09-1.59h0l1.09-1.58h0l1.09-1.56h0l1.09-1.54h0l1.09-1.52h0l1.09-1.5h0l1.09-1.48h0l1.09-1.47h0l1.09-1.45h0l1.09-1.43h0l1.09-1.41h0l1.09-1.39h0l1.09-1.37h0l1.09-1.35h0l1.09-1.33h0l1.09-1.31h0l1.09-1.29h0l1.09-1.27h0l1.09-1.24h0l1.09-1.22h0l1.09-1.2h0l1.09-1.18h0l1.09-1.16h0l1.09-1.14h0l1.09-1.11h0l1.09-1.09h0l1.09-1.07h0l1.09-1.05h0l1.09-1.03h0l1.09-1h0l1.09-.98h0l1.09-.96h0l1.09-.93h0l1.09-.91h0l1.09-.89h0l1.09-.86h0l1.09-.84h0l1.09-.82h0l1.09-.79h0l1.09-.77h0l1.09-.74h0l1.09-.72h0l1.09-.7h0l1.09-.67h0l1.09-.65h0l1.09-.62h0l1.09-.6h0l1.09-.57h0l1.09-.55h0l1.09-.52h0l1.09-.5h0l1.09-.47h0l1.09-.45h0l1.09-.42h0l1.09-.4h0l1.09-.37h0l1.09-.35h0l1.09-.32h0l1.09-.3h0l1.09-.27h0l1.09-.25h0l1.09-.22h0l1.09-.2h0l1.09-.17h0l1.09-.14h0l1.09-.12h0l1.09-.09h0l1.09-.07h0l1.09-.04h0l1.09-.02h0s1.09,0,1.09,0h0s1.09.04,1.09.04h0l1.09.06h0l1.09.09h0l1.09.11h0l1.09.14h0l1.09.16h0l1.09.19h0l1.09.21h0l1.09.24h0l1.09.27h0l1.09.29h0l1.09.32h0l1.09.34h0l1.09.37h0l1.09.39h0l1.09.42h0l1.09.44h0l1.09.47h0l1.09.49h0l1.09.52h0l1.09.54h0l1.09.57h0l1.09.59h0l1.09.62h0l1.09.64h0l1.09.67h0l1.09.69h0l1.09.71h0l1.09.74h0l1.09.76h0l1.09.79h0l1.09.81h0l1.09.83h0l1.09.86h0l1.09.88h0l1.09.9h0l1.09.93h0l1.09.95h0l1.09.97h0l1.09,1h0l1.09,1.02h0l1.09,1.04h0l1.09,1.06h0l1.09,1.09h0l1.09,1.11h0l1.09,1.13h0l1.09,1.15h0l1.09,1.17h0l1.09,1.2h0l1.09,1.22h0l1.09,1.24h0l1.09,1.26h0l1.09,1.28h0l1.09,1.3h0l1.09,1.32h0l1.09,1.34h0l1.09,1.36h0l1.09,1.38h0l1.09,1.4h0l1.09,1.42h0l1.09,1.44h0l1.09,1.46h0l1.09,1.48h0l1.09,1.5h0l1.09,1.52h0l1.09,1.53h0l1.09,1.55h0l1.09,1.57h0l1.09,1.59h0l1.09,1.61h0l1.09,1.62h0l1.09,1.64h0l1.09,1.66h0l1.09,1.67h0l1.09,1.69h0l1.09,1.71h0l1.09,1.72h0l1.09,1.74h0l1.09,1.75h0l1.09,1.77h0l1.09,1.78h0l1.09,1.8h0l1.09,1.81h0l1.09,1.83h0l1.09,1.84h0l1.09,1.86h0l1.09,1.87h0l1.09,1.88h0l1.09,1.89h0l1.09,1.91h0l1.09,1.92h0l1.09,1.93h0l1.09,1.94h0l1.09,1.96h0l1.09,1.97h0l1.09,1.98h0l1.09,1.99h0l1.09,2h0l1.09,2.01h0l1.09,2.02h0l1.09,2.03h0l1.09,2.04h0l1.09,2.05h0l1.09,2.06h0l1.09,2.07h0l1.09,2.07h0l1.09,2.08h0l1.09,2.09h0l1.09,2.1h0l1.09,2.1h0l1.09,2.11h0l1.09,2.12h0l1.09,2.12h0l1.09,2.13h0l1.09,2.14h0l1.09,2.14h0l1.09,2.15h0l1.09,2.15h0l1.09,2.16h0l1.09,2.16h0l1.09,2.16h0l1.09,2.17h0l1.09,2.17h0l1.09,2.17h0l1.09,2.18h0l1.09,2.18h0l1.09,2.18h0l1.09,2.18h0l1.09,2.19h0l1.09,2.19h0l1.09,2.19h0l1.09,2.19h0l1.09,2.19h0l1.09,2.19h0l1.09,2.19h0l1.09,2.19h0l1.09,2.19h0l1.09,2.19h0l1.09,2.18h0l1.09,2.18h0l1.09,2.18h0l1.09,2.18h0l1.09,2.18h0l1.09,2.17h0l1.09,2.17h0l1.09,2.17h0l1.09,2.16h0l1.09,2.16h0l1.09,2.15h0l1.09,2.15h0l1.09,2.14h0l1.09,2.14h0l1.09,2.13h0l1.09,2.13h0l1.09,2.12h0l1.09,2.11h0l1.09,2.11h0l1.09,2.1h0l1.09,2.09h0l1.09,2.09h0l1.09,2.08h0l1.09,2.07h0l1.09,2.06h0l1.09,2.05h0l1.09,2.04h0l1.09,2.03h0l1.09,2.02h0l1.09,2.01h0l1.09,2h0l1.09,1.99h0l1.09,1.98h0l1.09,1.97h0l1.09,1.96h0l1.09,1.95h0l1.09,1.94h0l1.09,1.93h0l1.09,1.91h0l1.09,1.9h0l1.09,1.89h0l1.09,1.87h0l1.09,1.86h0l1.09,1.85h0l1.09,1.83h0l1.09,1.82h0l1.09,1.81h0l1.09,1.79h0l1.09,1.78h0l1.09,1.76h0l1.09,1.75h0l1.09,1.73h0l1.09,1.71h0l1.09,1.7h0l1.09,1.68h0l1.09,1.67h0l1.09,1.65h0l1.09,1.63h0l1.09,1.61h0l1.09,1.6h0l1.09,1.58h0l1.09,1.56h0l1.09,1.54h0l1.09,1.53h0l1.09,1.51h0l1.09,1.49h0l1.09,1.47h0l1.09,1.45h0l1.09,1.43h0l1.09,1.41h0l1.09,1.39h0l1.09,1.37h0l1.09,1.35h0l1.09,1.33h0l1.09,1.31h0l1.09,1.29h0l1.09,1.27h0l1.09,1.25h0l1.09,1.23h0l1.09,1.21h0l1.09,1.19h0l1.09,1.16h0l1.09,1.14h0l1.09,1.12h0l1.09,1.1h0l1.09,1.08h0l1.09,1.05h0l1.09,1.03h0l1.09,1.01h0l1.09.98h0l1.09.96h0l1.09.94h0l1.09.92h0l1.09.89h0l1.09.87h0l1.09.85h0l1.09.82h0l1.09.8h0l1.09.77h0l1.09.75h0l1.09.73h0l1.09.7h0l1.09.68h0l1.09.65h0l1.09.63h0l1.09.6h0l1.09.58h0l1.09.55h0l1.09.53h0l1.09.5h0l1.09.48h0l1.09.45h0l1.09.43h0l1.09.4h0l1.09.38h0l1.09.35h0l1.09.33h0l1.09.3h0l1.09.28h0l1.09.25h0l1.09.23h0l1.09.2h0l1.09.18h0l1.09.15h0l1.09.12h0l1.09.1h0l1.09.07h0l1.09.05h0l1.09.02h0s1.09,0,1.09,0h0s1.09-.03,1.09-.03h0l1.09-.05h0l1.09-.08h0l1.09-.11h0l1.09-.13h0l1.09-.16h0l1.09-.18h0l1.09-.21h0l1.09-.23h0l1.09-.26h0l1.09-.28h0l1.09-.31h0l1.09-.34h0l1.09-.36h0l1.09-.39h0l1.09-.41h0l1.09-.44h0l1.09-.46h0l1.09-.49h0l1.09-.51h0l1.09-.54h0l1.09-.56h0l1.09-.59h0l1.09-.61h0l1.09-.64h0l1.09-.66h0l1.09-.68h0l1.09-.71h0l1.09-.73h0l1.09-.76h0l1.09-.78h0l1.09-.8h0l1.09-.83h0l1.09-.85h0l1.09-.88h0l1.09-.9h0l1.09-.92h0l1.09-.95h0l1.09-.97h0l1.09-.99h0l1.09-1.01h0l1.09-1.04h0l1.09-1.06h0l1.09-1.08h0l1.09-1.1h0l1.09-1.13h0l1.09-1.15h0l1.09-1.17h0l1.09-1.19h0l1.09-1.21h0l1.09-1.23h0l1.09-1.25h0l1.09-1.28h0l1.09-1.3h0l1.09-1.32h0l1.09-1.34h0l1.09-1.36h0l1.09-1.38h0l1.09-1.4h0l1.09-1.42h0l1.09-1.44h0l1.09-1.46h0l1.09-1.47h0l1.09-1.49h0l1.09-1.51h0l1.09-1.53h0l1.09-1.55h0l1.09-1.57h0l1.09-1.58h0l1.09-1.6h0l1.09-1.62h0l1.09-1.64h0l1.09-1.65h0l1.09-1.67h0l1.09-1.69h0l1.09-1.7h0l1.09-1.72h0l1.09-1.73h0l1.09-1.75h0l1.09-1.77h0l1.09-1.78h0l1.09-1.8h0l1.09-1.81h0l1.09-1.82h0l1.09-1.84h0l1.09-1.85h0l1.09-1.87h0l1.09-1.88h0l1.09-1.89h0l1.09-1.9h0l1.09-1.92h0l1.09-1.93h0l1.09-1.94h0l1.09-1.95h0l1.09-1.96h0l1.09-1.98h0l1.09-1.99h0l1.09-2h0l1.09-2.01h0l1.09-2.02h0l1.09-2.03h0l1.09-2.04h0l1.09-2.05h0l1.09-2.05h0l1.09-2.06h0l1.09-2.07h0l1.09-2.08h0l1.09-2.09h0l1.09-2.1h0l1.09-2.1h0l1.09-2.11h0l1.09-2.12h0l1.09-2.12h0l1.09-2.13h0l1.09-2.13h0l1.09-2.14h0l1.09-2.15h0l1.09-2.15h0l1.09-2.15h0l1.09-2.16h0l1.09-2.16h0l1.09-2.17h0l1.09-2.17h0l1.09-2.17h0l1.09-2.18h0l1.09-2.18h0l1.09-2.18h0l1.09-2.18h0l1.09-2.18h0l1.09-2.19h0l1.09-2.19h0l1.09-2.19h0l1.09-2.19h0l1.09-2.19h0l1.09-2.19h0l1.09-2.19h0l1.09-2.19h0l1.09-2.19h0l1.09-2.18h0l1.09-2.18h0l1.09-2.18h0l1.09-2.18h0l1.09-2.18h0l1.09-2.17h0l1.09-2.17h0l1.09-2.17h0l1.09-2.16h0l1.09-2.16h0l1.09-2.15h0l1.09-2.15h0l1.09-2.15h0l1.09-2.14h0l1.09-2.13h0l1.09-2.13h0l1.09-2.12h0l1.09-2.12h0l1.09-2.11h0l1.09-2.1h0l1.09-2.1h0l1.09-2.09h0l1.09-2.08h0l1.09-2.07h0l1.09-2.06h0l1.09-2.05h0l1.09-2.05h0l1.09-2.04h0l1.09-2.03h0l1.09-2.02h0l1.09-2.01h0l1.09-2h0l1.09-1.99h0l1.09-1.97h0l1.09-1.96h0l1.09-1.95h0l1.09-1.94h0l1.09-1.93h0l1.09-1.92h0l1.09-1.9h0l1.09-1.89h0l1.09-1.88h0l1.09-1.86h0l1.09-1.85h0l1.09-1.84h0l1.09-1.82h0l1.09-1.81h0l1.09-1.79h0l1.09-1.78h0l1.09-1.76h0l1.09-1.75h0l1.09-1.73h0l1.09-1.72h0l1.09-1.7h0l1.09-1.69h0l1.09-1.67h0l1.09-1.65h0l1.09-1.64h0l1.09-1.62h0l1.09-1.6h0l1.09-1.58h0l1.09-1.57h0l1.09-1.55h0l1.09-1.53h0l1.09-1.51h0l1.09-1.49h0l1.09-1.47h0l1.09-1.45h0l1.09-1.44h0l1.09-1.42h0l1.09-1.4h0l1.09-1.38h0l1.09-1.36h0l1.09-1.34h0l1.09-1.32h0l1.09-1.3h0l1.09-1.27h0l1.09-1.25h0l1.09-1.23h0l1.09-1.21h0l1.09-1.19h0l1.09-1.17h0l1.09-1.15h0l1.09-1.12h0l1.09-1.1h0l1.09-1.08h0l1.09-1.06h0l1.09-1.04h0l1.09-1.01h0l1.09-.99h0l1.09-.97h0l1.09-.94h0l1.09-.92h0l1.09-.9h0l1.09-.87h0l1.09-.85h0l1.09-.83h0l1.09-.8h0l1.09-.78h0l1.09-.76h0l1.09-.73h0l1.09-.71h0l1.09-.68h0l1.09-.66h0l1.09-.63h0l1.09-.61h0l1.09-.58h0l1.09-.56h0l1.09-.53h0l1.09-.51h0l1.09-.49h0l1.09-.46h0l1.09-.43h0l1.09-.41h0l1.09-.38h0l1.09-.36h0l1.09-.33h0l1.09-.31h0l1.09-.28h0l1.09-.26h0l1.09-.23h0l1.09-.21h0l1.09-.18h0l1.09-.16h0l1.09-.13h0l1.09-.1h0l1.09-.08h0l1.09-.05h0l1.09-.03h1.09s0,0,0,0l1.09.02h0l1.09.05h0l1.09.07h0l1.09.1h0l1.09.13h0l1.09.15h0l1.09.18h0l1.09.2h0l1.09.23h0l1.09.25h0l1.09.28h0l1.09.3h0l1.09.33h0l1.09.36h0l1.09.38h0l1.09.41h0l1.09.43h0l1.09.46h0l1.09.48h0l1.09.51h0l1.09.53h0l1.09.56h0l1.09.58h0l1.09.61h0l1.09.63h0l1.09.65h0l1.09.68h0l1.09.7h0l1.09.73h0l1.09.75h0l1.09.78h0l1.09.8h0l1.09.82h0l1.09.85h0l1.09.87h0l1.09.89h0l1.09.92h0l1.09.94h0l1.09.96h0l1.09.99h0l1.09,1.01h0l1.09,1.03h0l1.09,1.05h0l1.09,1.08h0l1.09,1.1h0l1.09,1.12h0l1.09,1.14h0l1.09,1.16h0l1.09,1.19h0l1.09,1.21h0l1.09,1.23h0l1.09,1.25h0l1.09,1.27h0l1.09,1.29h0l1.09,1.31h0l1.09,1.33h0l1.09,1.35h0l1.09,1.37h0l1.09,1.39h0l1.09,1.41h0l1.09,1.43h0l1.09,1.45"/>
        </g>
      </g>
    </g>
  </g>
  <g id="uuid-0a9397ed-b197-42dc-a753-791228f11c6b" data-name="Marco">
    <path class="uuid-2e80b901-a8e5-46a8-8508-fe6dc026b6fc" d="m0-2V1022h1617.3V-2H0Zm1600.3,987c0,11.05-8.95,20-20,20H37c-11.05,0-20-8.95-20-20V35c0-11.05,8.95-20,20-20h1543.3c11.05,0,20,8.95,20,20v950Z"/>
  </g>
</svg>