<?xml version="1.0" encoding="UTF-8"?>
<svg xmlns="http://www.w3.org/2000/svg" width="1245" height="1020" xmlns:xlink="http://www.w3.org/1999/xlink" viewBox="0 0 1245 1020">
  <defs>
    <style>
      .uuid-7183e870-75c8-4b0e-9edc-693fc112f9ac {
        fill: #fff;
      }

      .uuid-7a6d8e2b-c71d-431c-9499-886eabd3d5d3 {
        stroke: #252525;
        stroke-miterlimit: 10;
      }

      .uuid-7a6d8e2b-c71d-431c-9499-886eabd3d5d3, .uuid-33c823b6-a03b-459f-ab21-1156a2914375, .uuid-34ee7d45-7586-4057-a145-d4e274c9b244, .uuid-39ae2a66-9208-4fbb-ad33-de13778e8b03, .uuid-1dfea166-7cfb-4fa7-a047-1246c9eea4fb, .uuid-72ec8afd-5e84-412b-b0a7-74a598f1d64a, .uuid-a221f230-fc45-4dd7-aa79-9de4552dd0fe, .uuid-bac41206-4a45-46de-b649-ea81a6722348, .uuid-c12d5d04-143a-41c6-bca8-e43cbd2fa2db, .uuid-3f2002b4-d9dc-4f86-ae3b-86f225a4ad89 {
        fill: none;
      }

      .uuid-7a6d8e2b-c71d-431c-9499-886eabd3d5d3, .uuid-34ee7d45-7586-4057-a145-d4e274c9b244, .uuid-c12d5d04-143a-41c6-bca8-e43cbd2fa2db {
        stroke-width: 1.1px;
      }

      .uuid-33c823b6-a03b-459f-ab21-1156a2914375 {
        stroke: #fff;
        stroke-linejoin: bevel;
        stroke-width: 3.3px;
      }

      .uuid-33c823b6-a03b-459f-ab21-1156a2914375, .uuid-faf41feb-089f-4068-9442-02a3c6cc478b {
        font-family: HelveticaNeue-UltraLight, 'Helvetica Neue UltraLight';
        font-size: 13.18px;
        font-weight: 100;
        isolation: isolate;
      }

      .uuid-bcb3e01b-9984-4c6f-9a77-cd640066c349 {
        fill: #333;
      }

      .uuid-34ee7d45-7586-4057-a145-d4e274c9b244 {
        stroke: silver;
      }

      .uuid-34ee7d45-7586-4057-a145-d4e274c9b244, .uuid-39ae2a66-9208-4fbb-ad33-de13778e8b03, .uuid-1dfea166-7cfb-4fa7-a047-1246c9eea4fb, .uuid-bac41206-4a45-46de-b649-ea81a6722348, .uuid-c12d5d04-143a-41c6-bca8-e43cbd2fa2db {
        stroke-linecap: round;
        stroke-linejoin: round;
      }

      .uuid-39ae2a66-9208-4fbb-ad33-de13778e8b03 {
        stroke: rgba(255, 85, 0, .7);
      }

      .uuid-39ae2a66-9208-4fbb-ad33-de13778e8b03, .uuid-1dfea166-7cfb-4fa7-a047-1246c9eea4fb, .uuid-bac41206-4a45-46de-b649-ea81a6722348 {
        stroke-width: 3.85px;
      }

      .uuid-122eb962-18fc-402c-a7c4-ab390e925e04 {
        fill: #00699b;
      }

      .uuid-1dfea166-7cfb-4fa7-a047-1246c9eea4fb {
        stroke: rgba(102, 102, 102, .7);
      }

      .uuid-72ec8afd-5e84-412b-b0a7-74a598f1d64a {
        clip-path: url(#uuid-e296e225-2696-4aae-a488-435e69bd6117);
      }

      .uuid-bac41206-4a45-46de-b649-ea81a6722348 {
        stroke: rgba(0, 0, 255, .7);
      }

      .uuid-c12d5d04-143a-41c6-bca8-e43cbd2fa2db {
        stroke: rgba(192, 192, 192, .24);
      }

      .uuid-3f2002b4-d9dc-4f86-ae3b-86f225a4ad89 {
        clip-path: url(#uuid-4500674b-97d0-4a60-856b-df99ba9c849f);
      }

      .uuid-faf41feb-089f-4068-9442-02a3c6cc478b {
        fill: #252525;
      }
    </style>
    <clipPath id="uuid-4500674b-97d0-4a60-856b-df99ba9c849f">
      <rect class="uuid-a221f230-fc45-4dd7-aa79-9de4552dd0fe" y="2.61" width="1245" height="1019.39"/>
    </clipPath>
    <clipPath id="uuid-e296e225-2696-4aae-a488-435e69bd6117">
      <rect class="uuid-a221f230-fc45-4dd7-aa79-9de4552dd0fe" x="-299.9" y="13.1" width="1614.9" height="996.41"/>
    </clipPath>
  </defs>
  <g id="uuid-b1cddf92-c9e2-4929-8fde-3320b5caf4df" data-name="Grafica">
    <g class="uuid-3f2002b4-d9dc-4f86-ae3b-86f225a4ad89">
      <g class="uuid-72ec8afd-5e84-412b-b0a7-74a598f1d64a">
        <g>
          <rect class="uuid-7183e870-75c8-4b0e-9edc-693fc112f9ac" x="-299.9" y="13.1" width="1614.9" height="996.41"/>
          <path class="uuid-34ee7d45-7586-4057-a145-d4e274c9b244" d="m-270.79,13.65v996.41m0-996.41v996.41M-180.71,13.65v996.41M-91.72,13.65v996.41M-2.74,13.65v996.41M87.34,13.65v996.41M176.33,13.65v996.41M355.4,13.65v996.41M444.38,13.65v996.41M533.36,13.65v996.41M622.35,13.65v996.41M712.43,13.65v996.41M801.42,13.65v996.41M890.4,13.65v996.41M980.48,13.65v996.41M1069.47,13.65v996.41M1158.45,13.65v996.41M1248.54,13.65v996.41"/>
          <path class="uuid-c12d5d04-143a-41c6-bca8-e43cbd2fa2db" d="m-288.37,13.65v996.41M-252.12,13.65v996.41M-234.54,13.65v996.41M-216.96,13.65v996.41M-199.38,13.65v996.41M-163.13,13.65v996.41M-145.55,13.65v996.41M-127.98,13.65v996.41M-109.3,13.65v996.41M-74.15,13.65v996.41M-55.47,13.65v996.41M-37.89,13.65v996.41M-20.32,13.65v996.41M15.94,13.65v996.41M33.51,13.65v996.41M51.09,13.65v996.41M68.67,13.65v996.41M104.92,13.65v996.41M122.5,13.65v996.41M140.08,13.65v996.41M158.75,13.65v996.41M193.91,13.65v996.41M211.48,13.65v996.41M230.16,13.65v996.41M247.74,13.65v996.41M282.89,13.65v996.41M301.57,13.65v996.41M319.14,13.65v996.41M336.72,13.65v996.41M372.97,13.65v996.41M390.55,13.65v996.41M408.13,13.65v996.41M426.8,13.65v996.41M461.96,13.65v996.41M479.53,13.65v996.41M498.21,13.65v996.41M515.79,13.65v996.41M550.94,13.65v996.41M569.62,13.65v996.41M587.19,13.65v996.41M604.77,13.65v996.41M641.02,13.65v996.41M658.6,13.65v996.41M676.18,13.65v996.41M694.85,13.65v996.41M730.01,13.65v996.41M747.59,13.65v996.41M766.26,13.65v996.41M783.84,13.65v996.41M818.99,13.65v996.41M837.67,13.65v996.41M855.25,13.65v996.41M872.82,13.65v996.41M909.08,13.65v996.41M926.65,13.65v996.41M944.23,13.65v996.41M961.81,13.65v996.41M998.06,13.65v996.41M1015.64,13.65v996.41m17.58-996.41v996.41m18.68-996.41v996.41M1087.05,13.65v996.41m18.68-996.41v996.41m17.58-996.41v996.41m17.58-996.41v996.41M1177.13,13.65v996.41m17.58-996.41v996.41m17.58-996.41v996.41m17.58-996.41v996.41M1266.11,13.65v996.41m17.58-996.41v996.41m17.58-996.41v996.41"/>
          <path class="uuid-34ee7d45-7586-4057-a145-d4e274c9b244" d="m-299.35,63.09h1614.9m-1614.9,0h1614.9M-299.35,153.17h1614.9M-299.35,242.15h1614.9m-1614.9,88.98h1614.9m-1614.9,90.08h1614.9m-1614.9,177.97h1614.9m-1614.9,90.08h1614.9m-1614.9,88.98h1614.9m-1614.9,88.98h1614.9m-1614.9,90.08h1614.9"/>
          <path class="uuid-c12d5d04-143a-41c6-bca8-e43cbd2fa2db" d="m-299.35,27.93h1614.9m-1614.9,0h1614.9M-299.35,45.51h1614.9M-299.35,81.76h1614.9m-1614.9,17.58h1614.9m-1614.9,17.58h1614.9m-1614.9,18.68h1614.9m-1614.9,35.15h1614.9m-1614.9,17.58h1614.9m-1614.9,18.68h1614.9m-1614.9,17.58h1614.9m-1614.9,35.15h1614.9m-1614.9,18.68h1614.9m-1614.9,17.58h1614.9m-1614.9,17.58h1614.9m-1614.9,36.25h1614.9m-1614.9,17.58h1614.9m-1614.9,17.58h1614.9m-1614.9,17.58h1614.9m-1614.9,36.25h1614.9m-1614.9,17.58h1614.9m-1614.9,17.58h1614.9m-1614.9,18.68h1614.9m-1614.9,35.15h1614.9m-1614.9,18.68h1614.9m-1614.9,17.58h1614.9m-1614.9,17.58h1614.9m-1614.9,36.25h1614.9m-1614.9,17.58h1614.9m-1614.9,17.58h1614.9m-1614.9,17.58h1614.9m-1614.9,36.25h1614.9m-1614.9,17.58h1614.9m-1614.9,17.58h1614.9m-1614.9,18.68h1614.9m-1614.9,35.15h1614.9m-1614.9,17.58h1614.9m-1614.9,18.68h1614.9m-1614.9,17.58h1614.9m-1614.9,35.15h1614.9m-1614.9,18.68h1614.9m-1614.9,17.58h1614.9m-1614.9,17.58h1614.9m-1614.9,36.25h1614.9m-1614.9,17.58h1614.9"/>
          <path class="uuid-7a6d8e2b-c71d-431c-9499-886eabd3d5d3" d="m265.31,15.85v994.21"/>
          <path class="uuid-7a6d8e2b-c71d-431c-9499-886eabd3d5d3" d="m265.31,14.75l-4.39,4.39"/>
          <path class="uuid-7a6d8e2b-c71d-431c-9499-886eabd3d5d3" d="m265.31,14.75l4.39,4.39"/>
          <path class="uuid-7a6d8e2b-c71d-431c-9499-886eabd3d5d3" d="m-299.35,510.21h1612.71"/>
          <text class="uuid-faf41feb-089f-4068-9442-02a3c6cc478b" transform="translate(-15.37 527.24)"><tspan x="0" y="0">–1.5</tspan></text>
          <text class="uuid-33c823b6-a03b-459f-ab21-1156a2914375" transform="translate(-15.37 527.24)"><tspan x="0" y="0">–1.5</tspan></text>
          <text class="uuid-faf41feb-089f-4068-9442-02a3c6cc478b" transform="translate(-15.37 527.24)"><tspan x="0" y="0">–1.5</tspan></text>
          <text class="uuid-faf41feb-089f-4068-9442-02a3c6cc478b" transform="translate(81.3 527.24)"><tspan x="0" y="0">–1</tspan></text>
          <text class="uuid-33c823b6-a03b-459f-ab21-1156a2914375" transform="translate(81.3 527.24)"><tspan x="0" y="0">–1</tspan></text>
          <text class="uuid-faf41feb-089f-4068-9442-02a3c6cc478b" transform="translate(81.3 527.24)"><tspan x="0" y="0">–1</tspan></text>
          <text class="uuid-faf41feb-089f-4068-9442-02a3c6cc478b" transform="translate(163.69 527.24)"><tspan x="0" y="0">–0.5</tspan></text>
          <text class="uuid-33c823b6-a03b-459f-ab21-1156a2914375" transform="translate(163.69 527.24)"><tspan x="0" y="0">–0.5</tspan></text>
          <text class="uuid-faf41feb-089f-4068-9442-02a3c6cc478b" transform="translate(163.69 527.24)"><tspan x="0" y="0">–0.5</tspan></text>
          <text class="uuid-faf41feb-089f-4068-9442-02a3c6cc478b" transform="translate(346.06 527.24)"><tspan x="0" y="0">0.5</tspan></text>
          <text class="uuid-33c823b6-a03b-459f-ab21-1156a2914375" transform="translate(346.06 527.24)"><tspan x="0" y="0">0.5</tspan></text>
          <text class="uuid-faf41feb-089f-4068-9442-02a3c6cc478b" transform="translate(346.06 527.24)"><tspan x="0" y="0">0.5</tspan></text>
          <text class="uuid-faf41feb-089f-4068-9442-02a3c6cc478b" transform="translate(441.63 527.24)"><tspan x="0" y="0">1</tspan></text>
          <text class="uuid-33c823b6-a03b-459f-ab21-1156a2914375" transform="translate(441.63 527.24)"><tspan x="0" y="0">1</tspan></text>
          <text class="uuid-faf41feb-089f-4068-9442-02a3c6cc478b" transform="translate(441.63 527.24)"><tspan x="0" y="0">1</tspan></text>
          <text class="uuid-faf41feb-089f-4068-9442-02a3c6cc478b" transform="translate(524.03 527.24)"><tspan x="0" y="0">1.5</tspan></text>
          <text class="uuid-33c823b6-a03b-459f-ab21-1156a2914375" transform="translate(524.03 527.24)"><tspan x="0" y="0">1.5</tspan></text>
          <text class="uuid-faf41feb-089f-4068-9442-02a3c6cc478b" transform="translate(524.03 527.24)"><tspan x="0" y="0">1.5</tspan></text>
          <text class="uuid-faf41feb-089f-4068-9442-02a3c6cc478b" transform="translate(619.6 527.24)"><tspan x="0" y="0">2</tspan></text>
          <text class="uuid-33c823b6-a03b-459f-ab21-1156a2914375" transform="translate(619.6 527.24)"><tspan x="0" y="0">2</tspan></text>
          <text class="uuid-faf41feb-089f-4068-9442-02a3c6cc478b" transform="translate(619.6 527.24)"><tspan x="0" y="0">2</tspan></text>
          <text class="uuid-faf41feb-089f-4068-9442-02a3c6cc478b" transform="translate(703.09 527.24)"><tspan x="0" y="0">2.5</tspan></text>
          <text class="uuid-33c823b6-a03b-459f-ab21-1156a2914375" transform="translate(703.09 527.24)"><tspan x="0" y="0">2.5</tspan></text>
          <text class="uuid-faf41feb-089f-4068-9442-02a3c6cc478b" transform="translate(703.09 527.24)"><tspan x="0" y="0">2.5</tspan></text>
          <text class="uuid-faf41feb-089f-4068-9442-02a3c6cc478b" transform="translate(798.67 527.24)"><tspan x="0" y="0">3</tspan></text>
          <text class="uuid-33c823b6-a03b-459f-ab21-1156a2914375" transform="translate(798.67 527.24)"><tspan x="0" y="0">3</tspan></text>
          <text class="uuid-faf41feb-089f-4068-9442-02a3c6cc478b" transform="translate(798.67 527.24)"><tspan x="0" y="0">3</tspan></text>
          <text class="uuid-faf41feb-089f-4068-9442-02a3c6cc478b" transform="translate(881.06 527.24)"><tspan x="0" y="0">3.5</tspan></text>
          <text class="uuid-33c823b6-a03b-459f-ab21-1156a2914375" transform="translate(881.06 527.24)"><tspan x="0" y="0">3.5</tspan></text>
          <text class="uuid-faf41feb-089f-4068-9442-02a3c6cc478b" transform="translate(881.06 527.24)"><tspan x="0" y="0">3.5</tspan></text>
          <text class="uuid-faf41feb-089f-4068-9442-02a3c6cc478b" transform="translate(977.74 527.24)"><tspan x="0" y="0">4</tspan></text>
          <text class="uuid-33c823b6-a03b-459f-ab21-1156a2914375" transform="translate(977.74 527.24)"><tspan x="0" y="0">4</tspan></text>
          <text class="uuid-faf41feb-089f-4068-9442-02a3c6cc478b" transform="translate(977.74 527.24)"><tspan x="0" y="0">4</tspan></text>
          <text class="uuid-faf41feb-089f-4068-9442-02a3c6cc478b" transform="translate(1060.13 527.24)"><tspan x="0" y="0">4.5</tspan></text>
          <text class="uuid-33c823b6-a03b-459f-ab21-1156a2914375" transform="translate(1060.13 527.24)"><tspan x="0" y="0">4.5</tspan></text>
          <text class="uuid-faf41feb-089f-4068-9442-02a3c6cc478b" transform="translate(1060.13 527.24)"><tspan x="0" y="0">4.5</tspan></text>
          <text class="uuid-faf41feb-089f-4068-9442-02a3c6cc478b" transform="translate(1155.71 527.24)"><tspan x="0" y="0">5</tspan></text>
          <text class="uuid-33c823b6-a03b-459f-ab21-1156a2914375" transform="translate(1155.71 527.24)"><tspan x="0" y="0">5</tspan></text>
          <text class="uuid-faf41feb-089f-4068-9442-02a3c6cc478b" transform="translate(1155.71 527.24)"><tspan x="0" y="0">5</tspan></text>
          <text class="uuid-faf41feb-089f-4068-9442-02a3c6cc478b" transform="translate(1239.2 527.24)"><tspan x="0" y="0">5.5</tspan></text>
          <text class="uuid-33c823b6-a03b-459f-ab21-1156a2914375" transform="translate(1239.2 527.24)"><tspan x="0" y="0">5.5</tspan></text>
          <text class="uuid-faf41feb-089f-4068-9442-02a3c6cc478b" transform="translate(1239.2 527.24)"><tspan x="0" y="0">5.5</tspan></text>
          <text class="uuid-faf41feb-089f-4068-9442-02a3c6cc478b" transform="translate(242.79 962.27)"><tspan x="0" y="0">–5</tspan></text>
          <text class="uuid-33c823b6-a03b-459f-ab21-1156a2914375" transform="translate(242.79 962.27)"><tspan x="0" y="0">–5</tspan></text>
          <text class="uuid-faf41feb-089f-4068-9442-02a3c6cc478b" transform="translate(242.79 962.27)"><tspan x="0" y="0">–5</tspan></text>
          <text class="uuid-faf41feb-089f-4068-9442-02a3c6cc478b" transform="translate(242.79 872.19)"><tspan x="0" y="0">–4</tspan></text>
          <text class="uuid-33c823b6-a03b-459f-ab21-1156a2914375" transform="translate(242.79 872.19)"><tspan x="0" y="0">–4</tspan></text>
          <text class="uuid-faf41feb-089f-4068-9442-02a3c6cc478b" transform="translate(242.79 872.19)"><tspan x="0" y="0">–4</tspan></text>
          <text class="uuid-faf41feb-089f-4068-9442-02a3c6cc478b" transform="translate(242.79 783.2)"><tspan x="0" y="0">–3</tspan></text>
          <text class="uuid-33c823b6-a03b-459f-ab21-1156a2914375" transform="translate(242.79 783.2)"><tspan x="0" y="0">–3</tspan></text>
          <text class="uuid-faf41feb-089f-4068-9442-02a3c6cc478b" transform="translate(242.79 783.2)"><tspan x="0" y="0">–3</tspan></text>
          <text class="uuid-faf41feb-089f-4068-9442-02a3c6cc478b" transform="translate(242.79 694.22)"><tspan x="0" y="0">–2</tspan></text>
          <text class="uuid-33c823b6-a03b-459f-ab21-1156a2914375" transform="translate(242.79 694.22)"><tspan x="0" y="0">–2</tspan></text>
          <text class="uuid-faf41feb-089f-4068-9442-02a3c6cc478b" transform="translate(242.79 694.22)"><tspan x="0" y="0">–2</tspan></text>
          <text class="uuid-faf41feb-089f-4068-9442-02a3c6cc478b" transform="translate(242.79 604.13)"><tspan x="0" y="0">–1</tspan></text>
          <text class="uuid-33c823b6-a03b-459f-ab21-1156a2914375" transform="translate(242.79 604.13)"><tspan x="0" y="0">–1</tspan></text>
          <text class="uuid-faf41feb-089f-4068-9442-02a3c6cc478b" transform="translate(242.79 604.13)"><tspan x="0" y="0">–1</tspan></text>
          <text class="uuid-faf41feb-089f-4068-9442-02a3c6cc478b" transform="translate(249.38 426.17)"><tspan x="0" y="0">1</tspan></text>
          <text class="uuid-33c823b6-a03b-459f-ab21-1156a2914375" transform="translate(249.38 426.17)"><tspan x="0" y="0">1</tspan></text>
          <text class="uuid-faf41feb-089f-4068-9442-02a3c6cc478b" transform="translate(249.38 426.17)"><tspan x="0" y="0">1</tspan></text>
          <text class="uuid-faf41feb-089f-4068-9442-02a3c6cc478b" transform="translate(249.38 336.08)"><tspan x="0" y="0">2</tspan></text>
          <text class="uuid-33c823b6-a03b-459f-ab21-1156a2914375" transform="translate(249.38 336.08)"><tspan x="0" y="0">2</tspan></text>
          <text class="uuid-faf41feb-089f-4068-9442-02a3c6cc478b" transform="translate(249.38 336.08)"><tspan x="0" y="0">2</tspan></text>
          <text class="uuid-faf41feb-089f-4068-9442-02a3c6cc478b" transform="translate(249.38 247.1)"><tspan x="0" y="0">3</tspan></text>
          <text class="uuid-33c823b6-a03b-459f-ab21-1156a2914375" transform="translate(249.38 247.1)"><tspan x="0" y="0">3</tspan></text>
          <text class="uuid-faf41feb-089f-4068-9442-02a3c6cc478b" transform="translate(249.38 247.1)"><tspan x="0" y="0">3</tspan></text>
          <text class="uuid-faf41feb-089f-4068-9442-02a3c6cc478b" transform="translate(249.38 158.11)"><tspan x="0" y="0">4</tspan></text>
          <text class="uuid-33c823b6-a03b-459f-ab21-1156a2914375" transform="translate(249.38 158.11)"><tspan x="0" y="0">4</tspan></text>
          <text class="uuid-faf41feb-089f-4068-9442-02a3c6cc478b" transform="translate(249.38 158.11)"><tspan x="0" y="0">4</tspan></text>
          <text class="uuid-faf41feb-089f-4068-9442-02a3c6cc478b" transform="translate(249.38 68.03)"><tspan x="0" y="0">5</tspan></text>
          <text class="uuid-33c823b6-a03b-459f-ab21-1156a2914375" transform="translate(249.38 68.03)"><tspan x="0" y="0">5</tspan></text>
          <text class="uuid-faf41feb-089f-4068-9442-02a3c6cc478b" transform="translate(249.38 68.03)"><tspan x="0" y="0">5</tspan></text>
          <text class="uuid-faf41feb-089f-4068-9442-02a3c6cc478b" transform="translate(249.38 527.24)"><tspan x="0" y="0">0</tspan></text>
          <text class="uuid-33c823b6-a03b-459f-ab21-1156a2914375" transform="translate(249.38 527.24)"><tspan x="0" y="0">0</tspan></text>
          <text class="uuid-faf41feb-089f-4068-9442-02a3c6cc478b" transform="translate(249.38 527.24)"><tspan x="0" y="0">0</tspan></text>
          <path class="uuid-bac41206-4a45-46de-b649-ea81a6722348" d="m1328.23,739.97l-7.99-.97-7.93-.97-7.87-.97-7.82-.97-7.76-.97-7.7-.97-7.64-.97-7.58-.97-7.53-.97-7.47-.97-7.41-.97-7.36-.97-7.3-.97-7.25-.97-7.19-.97-7.14-.97-7.08-.97-7.03-.97-6.98-.97-6.93-.97-6.87-.97-6.82-.97-6.77-.97-6.72-.97-6.67-.97-6.62-.97-6.57-.97-6.52-.97-6.47-.97-6.42-.97-6.37-.97-6.33-.97-6.28-.97-6.23-.97-6.18-.97-6.14-.97-6.09-.97-6.05-.97-6-.97-5.95-.97-5.91-.97-5.87-.97-5.82-.97-5.78-.97-5.73-.97-5.69-.97-5.65-.97-5.61-.97-5.56-.97-5.52-.97-5.48-.97-10.84-1.95-10.67-1.95-10.51-1.95-10.36-1.95-10.2-1.95-10.05-1.95-9.9-1.95-9.75-1.95-9.6-1.95-9.46-1.95-9.32-1.95-9.18-1.95-9.04-1.95-8.91-1.95-8.77-1.95-8.64-1.95-8.51-1.95-8.38-1.95-8.26-1.95-8.13-1.95-8.01-1.95-7.89-1.95-7.77-1.95-7.66-1.95-7.54-1.95-7.43-1.95-7.32-1.95-7.21-1.95-7.1-1.95-6.99-1.95-6.89-1.95-6.79-1.95-6.68-1.95-6.58-1.95-6.49-1.95-6.39-1.95-6.29-1.95-6.2-1.95-6.1-1.95-6.01-1.95-5.92-1.95-5.83-1.95-5.75-1.95-5.66-1.95-5.58-1.95-5.49-1.95-10.74-3.89-10.42-3.89-10.11-3.89-9.81-3.89-9.52-3.89-9.23-3.89-8.96-3.89-8.69-3.89-8.43-3.89-8.18-3.89-7.94-3.89-7.7-3.89-7.47-3.89-7.25-3.89-7.04-3.89-6.83-3.89-6.62-3.89-6.43-3.89-6.24-3.89-6.05-3.89-5.87-3.89-5.7-3.89-5.53-3.89-5.36-3.89-5.2-3.89-5.05-3.89-4.9-3.89-4.75-3.89-4.61-3.89-4.47-3.89-4.34-3.89-4.21-3.89-4.09-3.89-3.96-3.89-3.85-3.89-3.73-3.89-3.62-3.89-3.51-3.89-3.41-3.89-3.31-3.89-3.21-3.89-3.11-3.89-3.02-3.89-2.93-3.89-2.84-3.89-2.76-3.89-2.68-3.89-2.6-3.89-2.52-3.89-2.44-3.89-2.37-3.89-2.3-3.89-2.23-3.89-2.17-3.89-2.1-3.89-2.04-3.89-1.98-3.89-1.92-3.89-1.86-3.89-1.81-3.89-1.75-3.89-1.7-3.89-1.65-3.89-1.6-3.89-1.55-3.89-1.51-3.89-1.46-3.89-1.42-3.89-1.38-3.89-1.34-3.89-1.3-3.89-1.26-3.89-1.22-3.89-1.18-3.89-1.15-3.89-1.11-3.89-1.08-3.89-1.05-3.89-1.02-3.89-.99-3.89-.96-3.89-.93-3.89-.9-3.89-.88-3.89-.85-3.89-.82-3.89-.8-3.89-.78-3.89-.75-3.89-.73-3.89-.71-3.89-.69-3.89-.67-3.89-.65-3.89-.63-3.89-.61-3.89-.59-3.89-.57-3.89-.56-3.89-.54-3.89-.52-3.89-.51-3.89-.49-3.89-.48-3.89-.46-3.89-.45-3.89-.44-3.89-.42-3.89-.41-3.89-.4-3.89-.39-3.89-.38-3.89-.36-3.89-.35-3.89-.34-3.89-.33-3.89-.32-3.89-.31-3.89-.3-3.89-.3-3.89-.29-3.89-.28-3.89-.27-3.89-.26-3.89-.25-3.89-.25-3.89-.24-3.89-.23-3.89-.22-3.89-.22-3.89-.21-3.89-.21-3.89-.2-3.89-.19-3.89-.19-3.89-.18-3.89-.18-3.89-.17-3.89-.17-3.89-.16-3.89-.16-3.89-.15-3.89-.15-3.89-.14-3.89-.14-3.89-.13-3.89-.13-3.89-.13-3.89-.12-3.89-.12-3.89-.12-3.89"/>
          <path class="uuid-1dfea166-7cfb-4fa7-a047-1246c9eea4fb" d="m1327.15,609.1l-9.27-.49-9.18-.49-9.1-.49-9.03-.49-8.95-.49-8.87-.49-8.79-.49-8.71-.49-8.64-.49-8.56-.49-8.49-.49-8.41-.49-8.34-.49-8.27-.49-8.2-.49-8.12-.49-8.05-.49-7.98-.49-7.91-.49-7.84-.49-7.78-.49-7.71-.49-7.64-.49-7.57-.49-7.51-.49-7.44-.49-7.38-.49-7.31-.49-7.25-.49-7.19-.49-7.12-.49-7.06-.49-7-.49-6.94-.49-6.88-.49-6.82-.49-6.76-.49-6.7-.49-6.64-.49-6.58-.49-6.53-.49-6.47-.49-6.41-.49-6.36-.49-6.3-.49-6.25-.49-6.19-.49-6.14-.49-6.08-.49-6.03-.49-5.98-.49-5.93-.49-5.87-.49-5.82-.49-5.77-.49-5.72-.49-5.67-.49-5.62-.49-5.57-.49-5.52-.49-5.48-.49-10.81-.97-10.62-.97-10.44-.97-10.25-.97-10.08-.97-9.9-.97-9.73-.97-9.56-.97-9.39-.97-9.23-.97-9.07-.97-8.91-.97-8.76-.97-8.61-.97-8.46-.97-8.31-.97-8.16-.97-8.02-.97-7.88-.97-7.75-.97-7.61-.97-7.48-.97-7.35-.97-7.22-.97-7.1-.97-6.97-.97-6.85-.97-6.73-.97-6.62-.97-6.5-.97-6.39-.97-6.28-.97-6.17-.97-6.06-.97-5.95-.97-5.85-.97-5.75-.97-5.65-.97-5.55-.97-5.46-.97-10.63-1.95-10.26-1.95-9.91-1.95-9.57-1.95-9.24-1.95-8.92-1.95-8.61-1.95-8.31-1.95-8.03-1.95-7.75-1.95-7.48-1.95-7.23-1.95-6.98-1.95-6.74-1.95-6.5-1.95-6.28-1.95-6.06-1.95-5.86-1.95-5.65-1.95-10.73-3.89-10-3.89-9.32-3.89-8.69-3.89-8.1-3.89-7.56-3.89-7.04-3.89-6.57-3.89-6.12-3.89-5.71-3.89-5.32-3.89-4.96-3.89-4.62-3.89-4.31-3.89-4.02-3.89-3.75-3.89-3.49-3.89-3.26-3.89-3.04-3.89-2.83-3.89-2.64-3.89-2.46-3.89-2.29-3.89-2.14-3.89-1.99-3.89-1.86-3.89-1.73-3.89-1.62-3.89-1.51-3.89-1.4-3.89-1.31-3.89-1.22-3.89-1.14-3.89-1.06-3.89-.99-3.89-.92-3.89-.86-3.89-.8-3.89-.75-3.89-.7-3.89-.65-3.89-.61-3.89-.56-3.89-.53-3.89-.49-3.89-.46-3.89-.43-3.89-.4-3.89-.37-3.89-.35-3.89-.32-3.89-.3-3.89-.28-3.89-.26-3.89-.24-3.89-.23-3.89-.21-3.89-.2-3.89-.18-3.89-.17-3.89-.16-3.89-.15-3.89-.14-3.89-.13-3.89-.12-3.89-.11-3.89-.1-3.89-.1-3.89-.09-3.89-.08-3.89-.08-3.89-.07-3.89-.07-3.89-.06-3.89-.06-3.89-.06-3.89-.1-7.78-.09-7.78-.08-7.78-.07-7.78-.06-7.78-.09-15.57-.07-15.57-.09-31.14-.05-31.14-.05-62.28"/>
          <path class="uuid-39ae2a66-9208-4fbb-ad33-de13778e8b03" d="m1323.11,579.18l-6.61-.24-6.57-.24-6.53-.24-6.49-.24-6.45-.24-6.41-.24-6.37-.24-6.33-.24-6.29-.24-6.25-.24-6.21-.24-6.17-.24-6.13-.24-6.09-.24-6.06-.24-6.02-.24-5.98-.24-5.94-.24-5.91-.24-5.87-.24-5.83-.24-5.8-.24-5.76-.24-5.72-.24-5.69-.24-5.65-.24-5.62-.24-5.58-.24-5.55-.24-5.51-.24-5.48-.24-10.85-.49-10.72-.49-10.58-.49-10.45-.49-10.32-.49-10.19-.49-10.07-.49-9.94-.49-9.82-.49-9.69-.49-9.57-.49-9.45-.49-9.34-.49-9.22-.49-9.1-.49-8.99-.49-8.88-.49-8.77-.49-8.66-.49-8.55-.49-8.44-.49-8.34-.49-8.24-.49-8.13-.49-8.03-.49-7.93-.49-7.83-.49-7.73-.49-7.64-.49-7.54-.49-7.45-.49-7.36-.49-7.26-.49-7.17-.49-7.08-.49-7-.49-6.91-.49-6.82-.49-6.74-.49-6.65-.49-6.57-.49-6.49-.49-6.41-.49-6.33-.49-6.25-.49-6.17-.49-6.09-.49-6.02-.49-5.94-.49-5.87-.49-5.8-.49-5.72-.49-5.65-.49-5.58-.49-10.96-.97-10.69-.97-10.42-.97-10.16-.97-9.91-.97-9.67-.97-9.43-.97-9.19-.97-8.96-.97-8.74-.97-8.53-.97-8.32-.97-8.11-.97-7.91-.97-7.71-.97-7.52-.97-7.33-.97-7.15-.97-6.98-.97-6.8-.97-6.63-.97-6.47-.97-6.31-.97-6.15-.97-6-.97-5.85-.97-5.71-.97-5.57-.97-5.43-.97-10.46-1.95-9.94-1.95-9.46-1.95-9-1.95-8.56-1.95-8.14-1.95-7.74-1.95-7.36-1.95-7-1.95-6.66-1.95-6.33-1.95-6.02-1.95-5.73-1.95-10.63-3.89-9.61-3.89-8.69-3.89-7.86-3.89-7.11-3.89-6.43-3.89-5.82-3.89-5.26-3.89-4.76-3.89-4.31-3.89-3.9-3.89-3.52-3.89-3.19-3.89-2.88-3.89-2.61-3.89-2.36-3.89-2.13-3.89-1.93-3.89-1.75-3.89-1.58-3.89-1.43-3.89-1.29-3.89-1.17-3.89-1.06-3.89-.96-3.89-.87-3.89-.78-3.89-.71-3.89-.64-3.89-.58-3.89-.52-3.89-.47-3.89-.43-3.89-.39-3.89-.35-3.89-.32-3.89-.29-3.89-.26-3.89-.23-3.89-.21-3.89-.19-3.89-.17-3.89-.16-3.89-.14-3.89-.13-3.89-.12-3.89-.11-3.89-.1-3.89-.09-3.89-.08-3.89-.07-3.89-.06-3.89-.06-3.89-.1-7.78-.08-7.78-.07-7.78-.1-15.57-.07-15.57-.07-31.14-.05-62.28V13.1"/>
          <path class="uuid-bac41206-4a45-46de-b649-ea81a6722348" d="m269.28,1009.51l.11-3.89.12-3.89.12-3.89.12-3.89.13-3.89.13-3.89.14-3.89.14-3.89.14-3.89.15-3.89.15-3.89.16-3.89.16-3.89.17-3.89.17-3.89.18-3.89.18-3.89.19-3.89.2-3.89.2-3.89.21-3.89.21-3.89.22-3.89.23-3.89.23-3.89.24-3.89.25-3.89.26-3.89.26-3.89.27-3.89.28-3.89.29-3.89.3-3.89.31-3.89.32-3.89.33-3.89.34-3.89.35-3.89.36-3.89.37-3.89.38-3.89.39-3.89.4-3.89.42-3.89.43-3.89.44-3.89.46-3.89.47-3.89.48-3.89.5-3.89.51-3.89.53-3.89.55-3.89.56-3.89.58-3.89.6-3.89.62-3.89.64-3.89.66-3.89.68-3.89.7-3.89.72-3.89.74-3.89.76-3.89.79-3.89.81-3.89.83-3.89.86-3.89.89-3.89.91-3.89.94-3.89.97-3.89,1-3.89,1.03-3.89,1.06-3.89,1.1-3.89,1.13-3.89,1.16-3.89,1.2-3.89,1.24-3.89,1.27-3.89,1.31-3.89,1.35-3.89,1.4-3.89,1.44-3.89,1.48-3.89,1.53-3.89,1.57-3.89,1.62-3.89,1.67-3.89,1.72-3.89,1.78-3.89,1.83-3.89,1.89-3.89,1.94-3.89,2-3.89,2.07-3.89,2.13-3.89,2.19-3.89,2.26-3.89,2.33-3.89,2.4-3.89,2.48-3.89,2.55-3.89,2.63-3.89,2.71-3.89,2.79-3.89,2.88-3.89,2.97-3.89,3.06-3.89,3.15-3.89,3.25-3.89,3.35-3.89,3.45-3.89,3.56-3.89,3.67-3.89,3.78-3.89,3.9-3.89,4.02-3.89,4.14-3.89,4.27-3.89,4.4-3.89,4.53-3.89,4.67-3.89,4.81-3.89,4.96-3.89,5.11-3.89,5.27-3.89,5.43-3.89,5.6-3.89,5.77-3.89,5.95-3.89,6.13-3.89,6.32-3.89,6.51-3.89,6.71-3.89,6.92-3.89,7.13-3.89,7.35-3.89,7.57-3.89,7.8-3.89,8.04-3.89,8.29-3.89,8.54-3.89,8.81-3.89,9.08-3.89,9.35-3.89,9.64-3.89,9.94-3.89,10.24-3.89,10.56-3.89,10.88-3.89,5.56-1.95,5.65-1.95,5.73-1.95,5.82-1.95,5.91-1.95,6-1.95,6.09-1.95,6.18-1.95,6.28-1.95,6.37-1.95,6.47-1.95,6.57-1.95,6.67-1.95,6.77-1.95,6.87-1.95,6.98-1.95,7.08-1.95,7.19-1.95,7.3-1.95,7.41-1.95,7.53-1.95,7.64-1.95,7.76-1.95,7.87-1.95,7.99-1.95,8.12-1.95,8.24-1.95,8.37-1.95,8.49-1.95,8.62-1.95,8.75-1.95,8.89-1.95,9.02-1.95,9.16-1.95,9.3-1.95,9.44-1.95,9.58-1.95,9.73-1.95,9.88-1.95,10.03-1.95,10.18-1.95,10.33-1.95,10.49-1.95,10.65-1.95,10.81-1.95,10.98-1.95,5.55-.97,5.59-.97,5.64-.97,5.68-.97,5.72-.97,5.77-.97,5.81-.97,5.85-.97,5.9-.97,5.94-.97,5.99-.97,6.03-.97,6.08-.97,6.12-.97,6.17-.97,6.22-.97,6.26-.97,6.31-.97,6.36-.97,6.41-.97,6.46-.97,6.51-.97,6.55-.97,6.6-.97,6.65-.97,6.71-.97,6.76-.97,6.81-.97,6.86-.97,6.91-.97,6.96-.97,7.02-.97,7.07-.97,7.12-.97,7.18-.97,7.23-.97,7.29-.97,7.34-.97,7.4-.97,7.45-.97,7.51-.97,7.57-.97,7.62-.97,7.68-.97,7.74-.97,7.8-.97,7.86-.97,7.92-.97,7.98-.97"/>
          <path class="uuid-1dfea166-7cfb-4fa7-a047-1246c9eea4fb" d="m265.59,1009.51l.05-62.28.05-31.14.09-31.14.07-15.57.09-15.57.06-7.78.06-7.78.07-7.78.08-7.78.1-7.78.05-3.89.06-3.89.06-3.89.07-3.89.07-3.89.08-3.89.08-3.89.09-3.89.09-3.89.1-3.89.11-3.89.12-3.89.12-3.89.13-3.89.14-3.89.15-3.89.16-3.89.18-3.89.19-3.89.2-3.89.22-3.89.23-3.89.25-3.89.27-3.89.29-3.89.31-3.89.33-3.89.36-3.89.38-3.89.41-3.89.44-3.89.47-3.89.51-3.89.54-3.89.58-3.89.62-3.89.67-3.89.72-3.89.77-3.89.83-3.89.89-3.89.95-3.89,1.02-3.89,1.09-3.89,1.17-3.89,1.26-3.89,1.35-3.89,1.45-3.89,1.55-3.89,1.66-3.89,1.79-3.89,1.91-3.89,2.05-3.89,2.2-3.89,2.36-3.89,2.53-3.89,2.72-3.89,2.92-3.89,3.13-3.89,3.36-3.89,3.6-3.89,3.86-3.89,4.14-3.89,4.44-3.89,4.77-3.89,5.11-3.89,5.48-3.89,5.88-3.89,6.31-3.89,6.77-3.89,7.26-3.89,7.79-3.89,8.35-3.89,8.96-3.89,9.61-3.89,10.31-3.89,5.43-1.95,5.62-1.95,5.83-1.95,6.03-1.95,6.25-1.95,6.47-1.95,6.7-1.95,6.94-1.95,7.19-1.95,7.45-1.95,7.71-1.95,7.99-1.95,8.27-1.95,8.57-1.95,8.87-1.95,9.19-1.95,9.52-1.95,9.86-1.95,10.21-1.95,10.57-1.95,10.95-1.95,5.62-.97,5.72-.97,5.82-.97,5.92-.97,6.03-.97,6.14-.97,6.24-.97,6.36-.97,6.47-.97,6.58-.97,6.7-.97,6.82-.97,6.94-.97,7.06-.97,7.19-.97,7.31-.97,7.44-.97,7.57-.97,7.71-.97,7.84-.97,7.98-.97,8.12-.97,8.27-.97,8.41-.97,8.56-.97,8.71-.97,8.87-.97,9.02-.97,9.18-.97,9.35-.97,9.51-.97,9.68-.97,9.85-.97,10.03-.97,10.2-.97,10.38-.97,10.57-.97,10.75-.97,10.94-.97,5.54-.49,5.59-.49,5.64-.49,5.69-.49,5.74-.49,5.79-.49,5.84-.49,5.9-.49,5.95-.49,6-.49,6.05-.49,6.11-.49,6.16-.49,6.21-.49,6.27-.49,6.32-.49,6.38-.49,6.44-.49,6.49-.49,6.55-.49,6.61-.49,6.67-.49,6.72-.49,6.78-.49,6.84-.49,6.9-.49,6.96-.49,7.03-.49,7.09-.49,7.15-.49,7.21-.49,7.28-.49,7.34-.49,7.4-.49,7.47-.49,7.54-.49,7.6-.49,7.67-.49,7.74-.49,7.8-.49,7.87-.49,7.94-.49,8.01-.49,8.08-.49,8.15-.49,8.23-.49,8.3-.49,8.37-.49,8.45-.49,8.52-.49,8.59-.49,8.67-.49,8.75-.49,8.82-.49,8.9-.49,8.98-.49,9.06-.49,9.14-.49,9.22-.49"/>
          <path class="uuid-39ae2a66-9208-4fbb-ad33-de13778e8b03" d="m265.57,1009.51v-124.55s.06-62.28.06-62.28l.07-31.14.06-15.57.09-15.57.06-7.78.08-7.78.09-7.78.05-3.89.06-3.89.07-3.89.07-3.89.08-3.89.09-3.89.1-3.89.11-3.89.12-3.89.13-3.89.15-3.89.16-3.89.18-3.89.2-3.89.22-3.89.25-3.89.27-3.89.3-3.89.33-3.89.37-3.89.4-3.89.45-3.89.49-3.89.55-3.89.6-3.89.67-3.89.74-3.89.82-3.89.9-3.89,1-3.89,1.1-3.89,1.22-3.89,1.35-3.89,1.49-3.89,1.65-3.89,1.82-3.89,2.02-3.89,2.23-3.89,2.46-3.89,2.72-3.89,3.01-3.89,3.33-3.89,3.68-3.89,4.07-3.89,4.5-3.89,4.97-3.89,5.5-3.89,6.08-3.89,6.72-3.89,7.43-3.89,8.21-3.89,9.08-3.89,10.03-3.89,5.41-1.95,5.69-1.95,5.98-1.95,6.29-1.95,6.61-1.95,6.95-1.95,7.31-1.95,7.68-1.95,8.08-1.95,8.49-1.95,8.93-1.95,9.39-1.95,9.87-1.95,10.38-1.95,10.92-1.95,5.67-.97,5.81-.97,5.96-.97,6.11-.97,6.26-.97,6.42-.97,6.59-.97,6.75-.97,6.93-.97,7.1-.97,7.28-.97,7.47-.97,7.66-.97,7.85-.97,8.05-.97,8.26-.97,8.46-.97,8.68-.97,8.9-.97,9.13-.97,9.36-.97,9.6-.97,9.84-.97,10.09-.97,10.35-.97,10.61-.97,10.88-.97,5.54-.49,5.61-.49,5.68-.49,5.75-.49,5.83-.49,5.9-.49,5.98-.49,6.05-.49,6.13-.49,6.2-.49,6.28-.49,6.36-.49,6.44-.49,6.52-.49,6.61-.49,6.69-.49,6.77-.49,6.86-.49,6.95-.49,7.03-.49,7.12-.49,7.21-.49,7.3-.49,7.4-.49,7.49-.49,7.58-.49,7.68-.49,7.78-.49,7.87-.49,7.97-.49,8.07-.49,8.18-.49,8.28-.49,8.38-.49,8.49-.49,8.6-.49,8.71-.49,8.82-.49,8.93-.49,9.04-.49,9.15-.49,9.27-.49,9.39-.49,9.5-.49,9.62-.49,9.75-.49,9.87-.49,9.99-.49,10.12-.49,10.25-.49,10.38-.49,10.51-.49,10.64-.49,10.77-.49,10.91-.49,5.51-.24,5.54-.24,5.58-.24,5.61-.24,5.65-.24,5.68-.24,5.72-.24,5.75-.24,5.79-.24,5.83-.24,5.86-.24,5.9-.24,5.94-.24,5.97-.24,6.01-.24,6.05-.24,6.09-.24,6.13-.24,6.16-.24,6.2-.24,6.24-.24,6.28-.24,6.32-.24,6.36-.24,6.4-.24,6.44-.24,6.48-.24,6.52-.24,6.56-.24,6.6-.24"/>
        </g>
      </g>
    </g>
  </g>
  <g id="uuid-5efeeda7-eda7-4cc5-93c4-11ea7e6168f8" data-name="Marco">
    <path class="uuid-122eb962-18fc-402c-a7c4-ab390e925e04" d="m-2-2V1022h1249V-2H-2Zm1232,987c0,11.05-8.95,20-20,20H35c-11.05,0-20-8.95-20-20V35c0-11.05,8.95-20,20-20h1175c11.05,0,20,8.95,20,20v950Z"/>
  </g>
  <g id="uuid-2c0a4fee-7c53-4cdd-b6e1-8f88401fd466" data-name="texto">
    <g>
      <path class="uuid-bcb3e01b-9984-4c6f-9a77-cd640066c349" d="m298.27,96.8c-.13-.99-.25-1.68-.37-2.06s-.31-.68-.57-.88c-.26-.2-.68-.32-1.27-.36l.21-.96h5.02l1.48,15.53c4.4-6.02,6.6-10.33,6.6-12.93,0-.61-.13-1.03-.39-1.25-.26-.22-.7-.35-1.33-.39l.2-.96h5.04l.53.98c-.69,1.81-1.57,3.68-2.65,5.62s-2.39,4.06-3.95,6.37c-1.56,2.3-3.28,4.7-5.19,7.19-1.46,1.91-2.68,3.36-3.67,4.34-.77.74-1.47,1.31-2.12,1.69s-1.27.66-1.88.82-1.25.24-1.92.24c-.35,0-.75-.04-1.19-.11-.44-.07-.82-.17-1.13-.28l.84-3.65h1.52c.01.44.12.79.31,1.05s.48.39.86.39c.42,0,.77-.04,1.07-.13.3-.08.62-.22.95-.42s.74-.51,1.21-.94c.48-.43,1.01-1,1.61-1.71.6-.71,1.27-1.57,2.01-2.57l-1.86-14.63Z"/>
      <path class="uuid-bcb3e01b-9984-4c6f-9a77-cd640066c349" d="m324.77,97.04v-2.6h24.06v2.6h-24.06Zm0,8.11v-2.6h24.06v2.6h-24.06Z"/>
      <path class="uuid-bcb3e01b-9984-4c6f-9a77-cd640066c349" d="m370.41,83.29h1.15l-5.08,23.05c-.14.62-.23,1.1-.27,1.42s-.06.59-.06.81c0,.39.06.7.2.92.13.22.33.39.61.51s.72.21,1.35.27l-.16.96h-6.09l5.04-22.42c.13-.57.22-1,.27-1.29.05-.29.09-.56.12-.82.03-.26.04-.49.04-.68,0-.39-.07-.69-.21-.89-.14-.2-.35-.35-.62-.44-.27-.09-.75-.16-1.44-.2l.23-1.02,4.92-.18Z"/>
      <path class="uuid-bcb3e01b-9984-4c6f-9a77-cd640066c349" d="m379.2,111.55c-2.02,0-3.58-.57-4.7-1.7s-1.67-2.76-1.67-4.88c0-.78.1-1.7.29-2.75.25-1.37.6-2.58,1.05-3.63.59-1.32,1.34-2.45,2.26-3.41s1.97-1.69,3.16-2.19c1.19-.5,2.47-.75,3.84-.75,1.5,0,2.72.29,3.68.86s1.65,1.35,2.08,2.33.64,2.12.64,3.41c0,1.16-.16,2.4-.49,3.71-.47,1.93-1.15,3.56-2.05,4.9s-2.02,2.36-3.38,3.06c-1.35.7-2.93,1.04-4.73,1.04Zm-2.95-5.74c0,1.43.3,2.49.89,3.17.59.68,1.49,1.03,2.69,1.03,1.28,0,2.41-.57,3.4-1.72.99-1.15,1.77-2.75,2.34-4.81.57-2.06.86-3.88.86-5.44,0-1.41-.27-2.46-.82-3.17s-1.4-1.06-2.56-1.06c-1.35,0-2.54.57-3.54,1.7s-1.8,2.75-2.38,4.86c-.58,2.11-.87,3.93-.87,5.45Z"/>
      <path class="uuid-bcb3e01b-9984-4c6f-9a77-cd640066c349" d="m393.48,112.9c-.25.3-.46.6-.62.89s-.29.58-.36.85-.11.6-.11.98c0,.98.35,1.69,1.05,2.14s1.76.67,3.18.67c1.29,0,2.36-.23,3.22-.68s1.59-1.16,2.19-2.1,1.12-2.11,1.57-3.5.91-3.24,1.38-5.56l-.27-.06c-1.26,1.73-2.43,3-3.52,3.79s-2.25,1.19-3.5,1.19c-1.42,0-2.52-.53-3.31-1.6s-1.18-2.59-1.18-4.57c0-1.45.19-2.87.57-4.28s.91-2.68,1.58-3.81,1.44-2.07,2.29-2.82,1.75-1.31,2.71-1.67,1.94-.55,2.97-.55c.82,0,1.59.1,2.32.29s1.46.53,2.21,1l1.8-1.29,1.25.31-2.03,9.16c-.14.65-.29,1.39-.45,2.21l-.51,2.56c-.61,3.07-1.1,5.19-1.46,6.35-.44,1.34-.96,2.46-1.56,3.36-.56.82-1.22,1.51-1.99,2.06s-1.66.98-2.67,1.28-2.2.45-3.56.45c-4.92,0-7.38-1.43-7.38-4.3,0-.73.22-1.39.66-1.99s1.15-1.23,2.13-1.89l1.41,1.13Zm5.61-3.69c.66,0,1.33-.23,1.98-.68s1.36-1.18,2.11-2.17,1.33-1.93,1.75-2.83.77-2.02,1.06-3.36.44-2.51.44-3.5-.21-1.75-.64-2.22-1.15-.69-2.15-.69c-.55,0-1.07.09-1.56.26s-1,.47-1.5.88-.99.95-1.46,1.61-.88,1.47-1.26,2.42-.67,1.97-.88,3.06-.31,2.15-.31,3.17c0,1.35.2,2.37.59,3.04s1,1.01,1.84,1.01Z"/>
      <path class="uuid-bcb3e01b-9984-4c6f-9a77-cd640066c349" d="m419.32,121.25c-.14.62-.21,1.07-.21,1.33,0,.3.08.53.24.68.16.15.42.25.79.32s.94.11,1.71.13l-.17.83h-8.04l.17-.83c.64-.03,1.13-.07,1.47-.12.34-.05.62-.13.83-.22.21-.09.38-.2.51-.33.13-.13.24-.3.34-.51.1-.21.19-.53.29-.96l1.82-8.26c.07-.32.12-.57.15-.76s.05-.35.05-.47c0-.23-.06-.39-.17-.48-.11-.09-.25-.14-.41-.14-.2,0-.5.1-.9.29s-1,.53-1.8,1l-.44-.91,5.77-3.02h.79l-.33,1.33c-.12.49-.25,1.05-.39,1.7l-2.07,9.41Z"/>
      <path class="uuid-bcb3e01b-9984-4c6f-9a77-cd640066c349" d="m437.22,108.24l-12.23,21.19h-1.82l12.24-21.19h1.81Z"/>
      <path class="uuid-bcb3e01b-9984-4c6f-9a77-cd640066c349" d="m442.18,122.72c.28,0,.5-.01.66-.04.16-.03.28-.07.38-.13.1-.06.2-.14.31-.26.11-.11.2-.25.29-.4.09-.15.2-.38.34-.67h1.06l-.84,3.33h-8.93l.11-.55c.44-.79,1.02-1.62,1.73-2.48.71-.87,1.67-1.87,2.89-3.03,1.02-.96,1.72-1.65,2.11-2.05.69-.7,1.22-1.3,1.58-1.81.37-.51.62-.98.77-1.42.15-.44.23-.89.23-1.34,0-.64-.18-1.13-.54-1.47-.36-.35-.88-.52-1.54-.52-.62,0-1.18.19-1.68.56s-.9.9-1.2,1.58h-1.47l.49-2.19c.86-.34,1.65-.59,2.39-.76s1.46-.24,2.19-.24,1.39.12,1.93.37c.54.25.95.59,1.23,1.03s.42.92.42,1.44c0,.49-.06.94-.18,1.35s-.31.81-.57,1.21c-.32.49-.81,1.07-1.47,1.74-.59.6-1.57,1.51-2.93,2.72-1.9,1.7-3.21,3.05-3.95,4.04h4.21Z"/>
      <path class="uuid-bcb3e01b-9984-4c6f-9a77-cd640066c349" d="m471.5,93.5c-2.53,2.7-5.17,5.36-7.93,7.99l1.82,4.28c.48,1.15.87,1.99,1.15,2.53s.55.93.78,1.17.47.42.7.53.61.2,1.11.26l-.21.96h-4.86l-2.71-7.85c-.31.27-.73.65-1.24,1.14s-1.01,1.01-1.49,1.56-.82,1-1.02,1.34-.32.63-.38.88-.09.5-.09.76c0,.34.09.61.28.8s.51.33.97.41l-.21.96h-5.57l-.37-.96c2.85-3.06,5.66-5.88,8.42-8.46l-1.86-4.36c-.38-.89-.68-1.56-.92-2.02s-.46-.82-.67-1.07-.46-.45-.74-.59-.68-.22-1.2-.26l.21-.96h4.86l2.6,7.36c.64-.59,1.24-1.19,1.82-1.82s.98-1.12,1.21-1.48.4-.69.49-.98.14-.59.14-.9c0-.72-.42-1.13-1.25-1.23l.21-.96h5.57l.39.96Z"/>
    </g>
    <g>
      <path class="uuid-bcb3e01b-9984-4c6f-9a77-cd640066c349" d="m81.23,196.98c-.13-.99-.25-1.68-.37-2.06s-.31-.68-.57-.88c-.26-.2-.68-.32-1.27-.36l.21-.96h5.02l1.48,15.53c4.4-6.02,6.6-10.33,6.6-12.93,0-.61-.13-1.03-.39-1.25-.26-.22-.7-.35-1.33-.39l.2-.96h5.04l.53.98c-.69,1.81-1.57,3.68-2.65,5.62s-2.39,4.06-3.95,6.37c-1.56,2.3-3.28,4.7-5.19,7.19-1.46,1.91-2.68,3.36-3.67,4.34-.77.74-1.47,1.31-2.12,1.69s-1.27.66-1.88.82-1.25.24-1.92.24c-.35,0-.75-.04-1.19-.11-.44-.07-.82-.17-1.13-.28l.84-3.65h1.52c.01.44.12.79.31,1.05s.48.39.86.39c.42,0,.77-.04,1.07-.13.3-.08.62-.22.95-.42s.74-.51,1.21-.94c.48-.43,1.01-1,1.61-1.71.6-.71,1.27-1.57,2.01-2.57l-1.86-14.63Z"/>
      <path class="uuid-bcb3e01b-9984-4c6f-9a77-cd640066c349" d="m107.73,197.21v-2.6h24.06v2.6h-24.06Zm0,8.11v-2.6h24.06v2.6h-24.06Z"/>
      <path class="uuid-bcb3e01b-9984-4c6f-9a77-cd640066c349" d="m153.38,183.46h1.15l-5.08,23.05c-.14.62-.23,1.1-.27,1.42s-.06.59-.06.81c0,.39.06.7.2.92.13.22.33.39.61.51s.72.21,1.35.27l-.16.96h-6.09l5.04-22.42c.13-.57.22-1,.27-1.29.05-.29.09-.56.12-.82.03-.26.04-.49.04-.68,0-.39-.07-.69-.21-.89-.14-.2-.35-.35-.62-.44-.27-.09-.75-.16-1.44-.2l.23-1.02,4.92-.18Z"/>
      <path class="uuid-bcb3e01b-9984-4c6f-9a77-cd640066c349" d="m162.16,211.72c-2.02,0-3.58-.57-4.7-1.7s-1.67-2.76-1.67-4.88c0-.78.1-1.7.29-2.75.25-1.37.6-2.58,1.05-3.63.59-1.32,1.34-2.45,2.26-3.41s1.97-1.69,3.16-2.19,2.47-.75,3.84-.75c1.5,0,2.72.29,3.68.86s1.65,1.35,2.08,2.33.64,2.12.64,3.41c0,1.16-.16,2.4-.49,3.71-.47,1.93-1.15,3.56-2.05,4.9s-2.02,2.36-3.38,3.06c-1.35.7-2.93,1.04-4.73,1.04Zm-2.95-5.74c0,1.43.3,2.49.89,3.17.59.68,1.49,1.03,2.69,1.03,1.28,0,2.41-.57,3.4-1.72.99-1.15,1.77-2.75,2.34-4.81.57-2.06.86-3.88.86-5.44,0-1.41-.27-2.46-.82-3.17s-1.4-1.06-2.56-1.06c-1.35,0-2.54.57-3.54,1.7-1.01,1.13-1.8,2.75-2.38,4.86-.58,2.11-.87,3.93-.87,5.45Z"/>
      <path class="uuid-bcb3e01b-9984-4c6f-9a77-cd640066c349" d="m176.44,213.07c-.25.3-.46.6-.62.89-.17.29-.29.58-.36.85-.07.27-.11.6-.11.98,0,.98.35,1.69,1.05,2.14s1.76.67,3.18.67c1.29,0,2.36-.23,3.22-.68s1.59-1.16,2.19-2.1c.6-.94,1.12-2.11,1.57-3.5s.91-3.24,1.38-5.56l-.27-.06c-1.26,1.73-2.44,3-3.52,3.79-1.08.79-2.25,1.19-3.5,1.19-1.42,0-2.52-.53-3.31-1.6-.79-1.07-1.18-2.59-1.18-4.57,0-1.45.19-2.87.57-4.28.38-1.41.9-2.68,1.58-3.81.68-1.13,1.44-2.07,2.29-2.82.85-.75,1.75-1.31,2.71-1.67.95-.36,1.94-.55,2.97-.55.82,0,1.59.1,2.32.29.73.2,1.46.53,2.21,1l1.8-1.29,1.25.31-2.03,9.16c-.14.65-.29,1.39-.45,2.21l-.51,2.56c-.61,3.07-1.1,5.19-1.46,6.35-.44,1.34-.96,2.46-1.56,3.36-.56.82-1.22,1.51-1.99,2.06-.77.55-1.66.98-2.67,1.28-1.01.3-2.2.45-3.56.45-4.92,0-7.38-1.43-7.38-4.3,0-.73.22-1.39.66-1.99.44-.6,1.15-1.23,2.13-1.89l1.41,1.13Zm5.61-3.69c.66,0,1.32-.23,1.98-.68.66-.46,1.36-1.18,2.11-2.17.75-.99,1.33-1.93,1.75-2.83.42-.9.77-2.02,1.06-3.36s.44-2.51.44-3.5-.21-1.75-.64-2.22-1.15-.69-2.15-.69c-.55,0-1.07.09-1.56.26-.5.18-1,.47-1.5.88s-.99.95-1.46,1.61c-.46.66-.88,1.47-1.26,2.42-.38.95-.67,1.97-.88,3.06-.21,1.09-.31,2.15-.31,3.17,0,1.35.2,2.37.59,3.04s1,1.01,1.84,1.01Z"/>
      <path class="uuid-bcb3e01b-9984-4c6f-9a77-cd640066c349" d="m202.28,221.42c-.14.62-.21,1.07-.21,1.33,0,.3.08.53.24.68.16.15.42.25.79.32.37.06.94.11,1.71.13l-.17.83h-8.04l.17-.83c.64-.03,1.13-.07,1.47-.12.34-.05.62-.13.83-.22.21-.09.38-.2.51-.33s.24-.3.34-.51c.1-.21.19-.53.28-.96l1.82-8.26c.07-.32.12-.57.15-.76s.05-.35.05-.47c0-.23-.06-.39-.17-.48-.11-.09-.25-.14-.41-.14-.2,0-.5.1-.9.29s-1,.53-1.8,1l-.44-.91,5.77-3.02h.79l-.33,1.33c-.12.49-.25,1.05-.39,1.7l-2.07,9.41Z"/>
      <path class="uuid-bcb3e01b-9984-4c6f-9a77-cd640066c349" d="m220.18,208.42l-12.23,21.19h-1.82l12.24-21.19h1.81Z"/>
      <path class="uuid-bcb3e01b-9984-4c6f-9a77-cd640066c349" d="m223.3,215.96c.69-.25,1.45-.38,2.27-.38.77,0,1.43.15,1.99.44.56.3.99.72,1.29,1.27.3.55.44,1.19.44,1.92,0,1-.23,1.96-.68,2.9s-1.12,1.64-1.99,2.09c-.88.46-1.95.69-3.21.69-.65,0-1.35-.07-2.1-.22-.75-.14-1.42-.34-2.01-.59l.52-2.41h1.31c.05,1.5.83,2.25,2.35,2.25.82,0,1.5-.21,2.04-.64.54-.42.95-1,1.22-1.73.27-.73.41-1.46.41-2.2,0-.85-.21-1.5-.61-1.95-.41-.45-1.01-.67-1.79-.67-.36,0-.69.02-.99.06s-.65.12-1.07.24l-.97-.73,1.58-7.14h5.68c.26,0,.45-.02.56-.06s.22-.11.3-.21.17-.26.26-.48h.92l-.73,2.64h-5.92l-1.08,4.9Z"/>
      <path class="uuid-bcb3e01b-9984-4c6f-9a77-cd640066c349" d="m254.46,193.68c-2.53,2.7-5.17,5.36-7.93,7.99l1.82,4.28c.48,1.15.87,1.99,1.15,2.53.29.54.55.93.78,1.17s.47.42.7.53.61.2,1.11.26l-.21.96h-4.86l-2.71-7.85c-.31.27-.73.65-1.24,1.14-.51.49-1.01,1.01-1.49,1.56-.48.55-.82,1-1.02,1.34s-.32.63-.38.88-.09.5-.09.76c0,.34.09.61.28.8.19.2.51.33.97.41l-.21.96h-5.57l-.37-.96c2.85-3.06,5.66-5.88,8.42-8.46l-1.86-4.36c-.38-.89-.68-1.56-.92-2.02s-.46-.82-.67-1.07-.46-.45-.74-.59c-.28-.14-.68-.22-1.2-.26l.21-.96h4.86l2.6,7.36c.64-.59,1.24-1.19,1.82-1.82.57-.62.98-1.12,1.21-1.48s.4-.69.49-.98c.09-.29.14-.59.14-.9,0-.72-.42-1.13-1.25-1.23l.21-.96h5.57l.39.96Z"/>
    </g>
    <g>
      <path class="uuid-bcb3e01b-9984-4c6f-9a77-cd640066c349" d="m68.91,372.28c-.13-.99-.25-1.68-.37-2.06s-.31-.68-.57-.88c-.26-.2-.68-.32-1.27-.36l.21-.96h5.02l1.48,15.53c4.4-6.02,6.6-10.33,6.6-12.93,0-.61-.13-1.03-.39-1.25-.26-.22-.7-.35-1.33-.39l.2-.96h5.04l.53.98c-.69,1.81-1.57,3.68-2.65,5.62s-2.39,4.06-3.95,6.37c-1.56,2.3-3.28,4.7-5.19,7.19-1.46,1.91-2.68,3.36-3.67,4.34-.77.74-1.47,1.31-2.12,1.69s-1.27.66-1.88.82-1.25.24-1.92.24c-.35,0-.75-.04-1.19-.11-.44-.07-.82-.17-1.13-.28l.84-3.65h1.52c.01.44.12.79.31,1.05s.48.39.86.39c.42,0,.77-.04,1.07-.13.3-.08.62-.22.95-.42s.74-.51,1.21-.94c.48-.43,1.01-1,1.61-1.71.6-.71,1.27-1.57,2.01-2.57l-1.86-14.63Z"/>
      <path class="uuid-bcb3e01b-9984-4c6f-9a77-cd640066c349" d="m95.41,372.52v-2.6h24.06v2.6h-24.06Zm0,8.11v-2.6h24.06v2.6h-24.06Z"/>
      <path class="uuid-bcb3e01b-9984-4c6f-9a77-cd640066c349" d="m141.06,358.77h1.15l-5.08,23.05c-.14.62-.23,1.1-.27,1.42s-.06.59-.06.81c0,.39.06.7.2.92.13.22.33.39.61.51s.72.21,1.35.27l-.16.96h-6.09l5.04-22.42c.13-.57.22-1,.27-1.29.05-.29.09-.56.12-.82.03-.26.04-.49.04-.68,0-.39-.07-.69-.21-.89-.14-.2-.35-.35-.62-.44-.27-.09-.75-.16-1.44-.2l.23-1.02,4.92-.18Z"/>
      <path class="uuid-bcb3e01b-9984-4c6f-9a77-cd640066c349" d="m149.84,387.03c-2.02,0-3.58-.57-4.7-1.7s-1.67-2.76-1.67-4.88c0-.78.1-1.7.29-2.75.25-1.37.6-2.58,1.05-3.63.59-1.32,1.34-2.45,2.26-3.41s1.97-1.69,3.16-2.19,2.47-.75,3.84-.75c1.5,0,2.72.29,3.68.86s1.65,1.35,2.08,2.33.64,2.12.64,3.41c0,1.16-.16,2.4-.49,3.71-.47,1.93-1.15,3.56-2.05,4.9s-2.02,2.36-3.38,3.06c-1.35.7-2.93,1.04-4.73,1.04Zm-2.95-5.74c0,1.43.3,2.49.89,3.17.59.68,1.49,1.03,2.69,1.03,1.28,0,2.41-.57,3.4-1.72.99-1.15,1.77-2.75,2.34-4.81.57-2.06.86-3.88.86-5.44,0-1.41-.27-2.46-.82-3.17s-1.4-1.06-2.56-1.06c-1.35,0-2.54.57-3.54,1.7-1.01,1.13-1.8,2.75-2.38,4.86-.58,2.11-.87,3.93-.87,5.45Z"/>
      <path class="uuid-bcb3e01b-9984-4c6f-9a77-cd640066c349" d="m164.12,388.38c-.25.3-.46.6-.62.89-.17.29-.29.58-.36.85-.07.27-.11.6-.11.98,0,.98.35,1.69,1.05,2.14s1.76.67,3.18.67c1.29,0,2.36-.23,3.22-.68s1.59-1.16,2.19-2.1c.6-.94,1.12-2.11,1.57-3.5s.91-3.24,1.38-5.56l-.27-.06c-1.26,1.73-2.44,3-3.52,3.79-1.08.79-2.25,1.19-3.5,1.19-1.42,0-2.52-.53-3.31-1.6-.79-1.07-1.18-2.59-1.18-4.57,0-1.45.19-2.87.57-4.28.38-1.41.9-2.68,1.58-3.81.68-1.13,1.44-2.07,2.29-2.82.85-.75,1.75-1.31,2.71-1.67.95-.36,1.94-.55,2.97-.55.82,0,1.59.1,2.32.29.73.2,1.46.53,2.21,1l1.8-1.29,1.25.31-2.03,9.16c-.14.65-.29,1.39-.45,2.21l-.51,2.56c-.61,3.07-1.1,5.19-1.46,6.35-.44,1.34-.96,2.46-1.56,3.36-.56.82-1.22,1.51-1.99,2.06-.77.55-1.66.98-2.67,1.28-1.01.3-2.2.45-3.56.45-4.92,0-7.38-1.43-7.38-4.3,0-.73.22-1.39.66-1.99.44-.6,1.15-1.23,2.13-1.89l1.41,1.13Zm5.61-3.69c.66,0,1.32-.23,1.98-.68.66-.46,1.36-1.18,2.11-2.17.75-.99,1.33-1.93,1.75-2.83.42-.9.77-2.02,1.06-3.36s.44-2.51.44-3.5-.21-1.75-.64-2.22-1.15-.69-2.15-.69c-.55,0-1.07.09-1.56.26-.5.18-1,.47-1.5.88s-.99.95-1.46,1.61c-.46.66-.88,1.47-1.26,2.42-.38.95-.67,1.97-.88,3.06-.21,1.09-.31,2.15-.31,3.17,0,1.35.2,2.37.59,3.04s1,1.01,1.84,1.01Z"/>
      <path class="uuid-bcb3e01b-9984-4c6f-9a77-cd640066c349" d="m189.96,396.73c-.14.62-.21,1.07-.21,1.33,0,.3.08.53.24.68.16.15.42.25.79.32.37.06.94.11,1.71.13l-.17.83h-8.04l.17-.83c.64-.03,1.13-.07,1.47-.12.34-.05.62-.13.83-.22.21-.09.38-.2.51-.33s.24-.3.34-.51c.1-.21.19-.53.28-.96l1.82-8.26c.07-.32.12-.57.15-.76s.05-.35.05-.47c0-.23-.06-.39-.17-.48-.11-.09-.25-.14-.41-.14-.2,0-.5.1-.9.29s-1,.53-1.8,1l-.44-.91,5.77-3.02h.79l-.33,1.33c-.12.49-.25,1.05-.39,1.7l-2.07,9.41Z"/>
      <path class="uuid-bcb3e01b-9984-4c6f-9a77-cd640066c349" d="m207.86,383.72l-12.23,21.19h-1.82l12.24-21.19h1.81Z"/>
      <path class="uuid-bcb3e01b-9984-4c6f-9a77-cd640066c349" d="m213.15,396.73c-.14.62-.21,1.07-.21,1.33,0,.3.08.53.24.68.16.15.42.25.79.32.37.06.94.11,1.71.13l-.17.83h-8.04l.17-.83c.64-.03,1.13-.07,1.47-.12.34-.05.62-.13.83-.22.21-.09.38-.2.51-.33s.24-.3.34-.51c.1-.21.19-.53.28-.96l1.82-8.26c.07-.32.12-.57.15-.76s.05-.35.05-.47c0-.23-.06-.39-.17-.48-.11-.09-.25-.14-.41-.14-.2,0-.5.1-.9.29s-1,.53-1.8,1l-.44-.91,5.77-3.02h.79l-.33,1.33c-.12.49-.25,1.05-.39,1.7l-2.07,9.41Z"/>
      <path class="uuid-bcb3e01b-9984-4c6f-9a77-cd640066c349" d="m223.33,400.2c-.71,0-1.31-.13-1.81-.4s-.89-.7-1.17-1.31c-.28-.61-.42-1.41-.42-2.4,0-.89.09-1.85.27-2.89.18-1.04.43-2.01.75-2.93.31-.92.69-1.75,1.13-2.5.44-.75.92-1.38,1.45-1.9.53-.51,1.09-.9,1.69-1.17.6-.27,1.22-.4,1.86-.4s1.16.1,1.59.3c.43.2.78.47,1.05.83.27.35.46.77.58,1.26.12.49.18,1.03.18,1.61,0,1.62-.24,3.28-.72,4.96-.48,1.68-1.1,3.07-1.84,4.16-.65.96-1.39,1.68-2.22,2.15-.74.42-1.53.64-2.37.64Zm-1.42-3.39c0,.62.05,1.09.16,1.44s.27.6.49.75c.22.16.52.23.91.23.57,0,1.12-.27,1.66-.81s1.04-1.34,1.51-2.41.91-2.44,1.29-4.11c.39-1.67.58-3.11.58-4.33,0-.8-.12-1.39-.36-1.76-.24-.37-.62-.55-1.14-.55-.33,0-.66.08-.98.25-.39.21-.76.54-1.13,1.01-.45.57-.87,1.32-1.25,2.25-.33.82-.64,1.76-.92,2.83-.2.77-.36,1.53-.5,2.28-.21,1.09-.32,2.06-.32,2.92Z"/>
      <path class="uuid-bcb3e01b-9984-4c6f-9a77-cd640066c349" d="m254.46,368.98c-2.53,2.7-5.17,5.36-7.93,7.99l1.82,4.28c.48,1.15.87,1.99,1.15,2.53.29.54.55.93.78,1.17s.47.42.7.53.61.2,1.11.26l-.21.96h-4.86l-2.71-7.85c-.31.27-.73.65-1.24,1.14-.51.49-1.01,1.01-1.49,1.56-.48.55-.82,1-1.02,1.34s-.32.63-.38.88-.09.5-.09.76c0,.34.09.61.28.8.19.2.51.33.97.41l-.21.96h-5.57l-.37-.96c2.85-3.06,5.66-5.88,8.42-8.46l-1.86-4.36c-.38-.89-.68-1.56-.92-2.02s-.46-.82-.67-1.07-.46-.45-.74-.59c-.28-.14-.68-.22-1.2-.26l.21-.96h4.86l2.6,7.36c.64-.59,1.24-1.19,1.82-1.82.57-.62.98-1.12,1.21-1.48s.4-.69.49-.98c.09-.29.14-.59.14-.9,0-.72-.42-1.13-1.25-1.23l.21-.96h5.57l.39.96Z"/>
    </g>
    <g>
      <path class="uuid-bcb3e01b-9984-4c6f-9a77-cd640066c349" d="m1037.05,264.28c-.13-.99-.25-1.68-.37-2.06s-.31-.68-.57-.88c-.26-.2-.68-.32-1.27-.36l.21-.96h5.02l1.48,15.53c4.4-6.02,6.6-10.33,6.6-12.93,0-.61-.13-1.03-.39-1.25-.26-.22-.7-.35-1.33-.39l.2-.96h5.04l.53.98c-.69,1.81-1.57,3.68-2.65,5.62s-2.39,4.06-3.95,6.37c-1.56,2.3-3.28,4.7-5.19,7.19-1.46,1.91-2.68,3.36-3.67,4.34-.77.74-1.47,1.31-2.12,1.69s-1.27.66-1.88.82-1.25.24-1.92.24c-.35,0-.75-.04-1.19-.11-.44-.07-.82-.17-1.13-.28l.84-3.65h1.52c.01.44.12.79.31,1.05s.48.39.86.39c.42,0,.78-.04,1.07-.13.3-.08.62-.22.95-.42s.74-.51,1.21-.94c.48-.43,1.01-1,1.61-1.71.6-.71,1.27-1.57,2.01-2.57l-1.86-14.63Z"/>
      <path class="uuid-bcb3e01b-9984-4c6f-9a77-cd640066c349" d="m1063.55,264.52v-2.6h24.06v2.6h-24.06Zm0,8.11v-2.6h24.06v2.6h-24.06Z"/>
      <path class="uuid-bcb3e01b-9984-4c6f-9a77-cd640066c349" d="m1109.2,250.77h1.15l-5.08,23.05c-.14.62-.23,1.1-.27,1.42s-.06.59-.06.81c0,.39.07.7.2.92.13.22.33.39.61.51s.72.21,1.35.27l-.16.96h-6.09l5.04-22.42c.13-.57.22-1,.27-1.29.05-.29.09-.56.12-.82.03-.26.04-.49.04-.68,0-.39-.07-.69-.21-.89-.14-.2-.35-.35-.62-.44-.27-.09-.75-.16-1.44-.2l.23-1.02,4.92-.18Z"/>
      <path class="uuid-bcb3e01b-9984-4c6f-9a77-cd640066c349" d="m1117.98,279.03c-2.02,0-3.58-.57-4.7-1.7s-1.67-2.76-1.67-4.88c0-.78.1-1.7.29-2.75.25-1.37.6-2.58,1.05-3.63.59-1.32,1.34-2.45,2.26-3.41s1.97-1.69,3.16-2.19,2.47-.75,3.84-.75c1.5,0,2.72.29,3.68.86s1.65,1.35,2.08,2.33.64,2.12.64,3.41c0,1.16-.16,2.4-.49,3.71-.47,1.93-1.15,3.56-2.05,4.9s-2.02,2.36-3.38,3.06c-1.35.7-2.93,1.04-4.73,1.04Zm-2.95-5.74c0,1.43.3,2.49.89,3.17.59.68,1.49,1.03,2.69,1.03,1.28,0,2.41-.57,3.4-1.72.99-1.15,1.77-2.75,2.34-4.81.57-2.06.86-3.88.86-5.44,0-1.41-.27-2.46-.82-3.17s-1.4-1.06-2.56-1.06c-1.35,0-2.54.57-3.54,1.7-1.01,1.13-1.8,2.75-2.38,4.86-.58,2.11-.87,3.93-.87,5.45Z"/>
      <path class="uuid-bcb3e01b-9984-4c6f-9a77-cd640066c349" d="m1132.26,280.38c-.25.3-.46.6-.62.89s-.29.58-.36.85-.11.6-.11.98c0,.98.35,1.69,1.05,2.14s1.76.67,3.18.67c1.29,0,2.36-.23,3.22-.68s1.59-1.16,2.19-2.1,1.12-2.11,1.57-3.5.91-3.24,1.38-5.56l-.27-.06c-1.26,1.73-2.43,3-3.52,3.79s-2.25,1.19-3.5,1.19c-1.42,0-2.52-.53-3.31-1.6s-1.18-2.59-1.18-4.57c0-1.45.19-2.87.57-4.28s.91-2.68,1.58-3.81,1.44-2.07,2.29-2.82,1.75-1.31,2.71-1.67,1.94-.55,2.97-.55c.82,0,1.59.1,2.32.29s1.46.53,2.21,1l1.8-1.29,1.25.31-2.03,9.16c-.14.65-.29,1.39-.45,2.21l-.51,2.56c-.61,3.07-1.1,5.19-1.46,6.35-.44,1.34-.96,2.46-1.56,3.36-.56.82-1.22,1.51-1.99,2.06s-1.66.98-2.67,1.28-2.2.45-3.56.45c-4.92,0-7.38-1.43-7.38-4.3,0-.73.22-1.39.66-1.99s1.15-1.23,2.13-1.89l1.41,1.13Zm5.61-3.69c.66,0,1.33-.23,1.98-.68s1.36-1.18,2.11-2.17,1.33-1.93,1.75-2.83.77-2.02,1.06-3.36.44-2.51.44-3.5-.21-1.75-.64-2.22-1.15-.69-2.15-.69c-.55,0-1.07.09-1.56.26s-1,.47-1.5.88-.99.95-1.46,1.61-.88,1.47-1.26,2.42-.67,1.97-.88,3.06-.31,2.15-.31,3.17c0,1.35.2,2.37.59,3.04s1,1.01,1.84,1.01Z"/>
      <path class="uuid-bcb3e01b-9984-4c6f-9a77-cd640066c349" d="m1157.78,290.19c.28,0,.5-.01.66-.04.16-.03.28-.07.38-.13.1-.06.2-.14.31-.26.11-.11.2-.25.29-.4.09-.15.2-.38.34-.67h1.06l-.84,3.33h-8.93l.11-.55c.44-.79,1.02-1.62,1.73-2.48.71-.87,1.67-1.87,2.89-3.03,1.02-.96,1.72-1.65,2.11-2.05.69-.7,1.22-1.3,1.58-1.81.37-.51.62-.98.77-1.42.15-.44.23-.89.23-1.34,0-.64-.18-1.13-.54-1.47-.36-.35-.88-.52-1.54-.52-.62,0-1.18.19-1.68.56s-.9.9-1.2,1.58h-1.47l.49-2.19c.86-.34,1.65-.59,2.39-.76s1.46-.24,2.19-.24,1.39.12,1.93.37c.54.25.95.59,1.23,1.03s.42.92.42,1.44c0,.49-.06.94-.18,1.35s-.31.81-.57,1.21c-.32.49-.81,1.07-1.47,1.74-.59.6-1.57,1.51-2.93,2.72-1.9,1.7-3.21,3.05-3.95,4.04h4.21Z"/>
      <path class="uuid-bcb3e01b-9984-4c6f-9a77-cd640066c349" d="m1187.1,260.98c-2.53,2.7-5.17,5.36-7.93,7.99l1.82,4.28c.48,1.15.87,1.99,1.15,2.53s.55.93.78,1.17.47.42.7.53.61.2,1.11.26l-.21.96h-4.86l-2.71-7.85c-.31.27-.73.65-1.24,1.14s-1.01,1.01-1.49,1.56-.82,1-1.02,1.34-.32.63-.38.88-.09.5-.09.76c0,.34.09.61.28.8s.51.33.97.41l-.21.96h-5.57l-.37-.96c2.85-3.06,5.66-5.88,8.42-8.46l-1.86-4.36c-.38-.89-.68-1.56-.92-2.02s-.46-.82-.67-1.07-.46-.45-.74-.59-.68-.22-1.2-.26l.21-.96h4.86l2.6,7.36c.64-.59,1.24-1.19,1.82-1.82s.98-1.12,1.21-1.48.4-.69.49-.98.14-.59.14-.9c0-.72-.42-1.13-1.25-1.23l.21-.96h5.57l.39.96Z"/>
    </g>
    <g>
      <path class="uuid-bcb3e01b-9984-4c6f-9a77-cd640066c349" d="m1065.09,381.54c-.13-.99-.25-1.68-.37-2.06s-.31-.68-.57-.88c-.26-.2-.68-.32-1.27-.36l.21-.96h5.02l1.48,15.53c4.4-6.02,6.6-10.33,6.6-12.93,0-.61-.13-1.03-.39-1.25-.26-.22-.7-.35-1.33-.39l.2-.96h5.04l.53.98c-.69,1.81-1.57,3.68-2.65,5.62s-2.39,4.06-3.95,6.37c-1.56,2.3-3.29,4.7-5.19,7.19-1.46,1.91-2.68,3.36-3.67,4.34-.77.74-1.47,1.31-2.12,1.69s-1.27.66-1.88.82-1.25.24-1.92.24c-.35,0-.75-.04-1.19-.11s-.82-.17-1.13-.28l.84-3.65h1.52c.01.44.12.79.31,1.05s.48.39.86.39c.42,0,.77-.04,1.07-.13s.62-.22.95-.42.74-.51,1.21-.94c.47-.43,1.01-1,1.61-1.71.6-.71,1.27-1.57,2.01-2.57l-1.86-14.63Z"/>
      <path class="uuid-bcb3e01b-9984-4c6f-9a77-cd640066c349" d="m1091.6,381.78v-2.6h24.06v2.6h-24.06Zm0,8.11v-2.6h24.06v2.6h-24.06Z"/>
      <path class="uuid-bcb3e01b-9984-4c6f-9a77-cd640066c349" d="m1137.24,368.03h1.15l-5.08,23.05c-.14.62-.23,1.1-.27,1.42s-.06.59-.06.81c0,.39.06.7.2.92.13.22.33.39.61.51s.72.21,1.35.27l-.16.96h-6.09l5.04-22.42c.13-.57.22-1,.27-1.29.05-.29.09-.56.12-.82.03-.26.04-.49.04-.68,0-.39-.07-.69-.21-.89-.14-.2-.35-.35-.62-.44-.27-.09-.75-.16-1.44-.2l.23-1.02,4.92-.18Z"/>
      <path class="uuid-bcb3e01b-9984-4c6f-9a77-cd640066c349" d="m1146.03,396.29c-2.02,0-3.58-.57-4.7-1.7s-1.67-2.76-1.67-4.88c0-.78.1-1.7.29-2.75.25-1.37.6-2.58,1.05-3.63.59-1.32,1.34-2.45,2.26-3.41s1.97-1.69,3.16-2.19c1.19-.5,2.47-.75,3.84-.75,1.5,0,2.72.29,3.68.86s1.65,1.35,2.08,2.33.64,2.12.64,3.41c0,1.16-.16,2.4-.49,3.71-.47,1.93-1.15,3.56-2.05,4.9s-2.02,2.36-3.38,3.06c-1.35.7-2.93,1.04-4.73,1.04Zm-2.95-5.74c0,1.43.3,2.49.89,3.17.59.68,1.49,1.03,2.69,1.03,1.28,0,2.41-.57,3.4-1.72.99-1.15,1.77-2.75,2.34-4.81.57-2.06.86-3.88.86-5.44,0-1.41-.27-2.46-.82-3.17s-1.4-1.06-2.56-1.06c-1.35,0-2.54.57-3.54,1.7-1.01,1.13-1.8,2.75-2.38,4.86-.58,2.11-.87,3.93-.87,5.45Z"/>
      <path class="uuid-bcb3e01b-9984-4c6f-9a77-cd640066c349" d="m1160.31,397.64c-.25.3-.46.6-.62.89s-.29.58-.36.85-.11.6-.11.98c0,.98.35,1.69,1.05,2.14s1.76.67,3.18.67c1.29,0,2.36-.23,3.22-.68s1.59-1.16,2.19-2.1,1.12-2.11,1.57-3.5.91-3.24,1.38-5.56l-.27-.06c-1.26,1.73-2.43,3-3.52,3.79s-2.25,1.19-3.5,1.19c-1.42,0-2.52-.53-3.31-1.6s-1.18-2.59-1.18-4.57c0-1.45.19-2.87.57-4.28s.91-2.68,1.58-3.81,1.44-2.07,2.29-2.82,1.75-1.31,2.71-1.67,1.94-.55,2.97-.55c.82,0,1.59.1,2.32.29s1.46.53,2.21,1l1.8-1.29,1.25.31-2.03,9.16c-.14.65-.29,1.39-.45,2.21l-.51,2.56c-.61,3.07-1.1,5.19-1.46,6.35-.44,1.34-.96,2.46-1.56,3.36-.56.82-1.22,1.51-1.99,2.06s-1.66.98-2.67,1.28-2.2.45-3.56.45c-4.92,0-7.38-1.43-7.38-4.3,0-.73.22-1.39.66-1.99s1.15-1.23,2.13-1.89l1.41,1.13Zm5.61-3.69c.66,0,1.33-.23,1.98-.68s1.36-1.18,2.11-2.17,1.33-1.93,1.75-2.83.77-2.02,1.06-3.36.44-2.51.44-3.5-.21-1.75-.64-2.22-1.15-.69-2.15-.69c-.55,0-1.07.09-1.56.26s-1,.47-1.5.88-.99.95-1.46,1.61-.88,1.47-1.26,2.42-.67,1.97-.88,3.06-.31,2.15-.31,3.17c0,1.35.2,2.37.59,3.04s1,1.01,1.84,1.01Z"/>
      <path class="uuid-bcb3e01b-9984-4c6f-9a77-cd640066c349" d="m1183.98,400.52c.69-.25,1.45-.38,2.27-.38.77,0,1.43.15,1.99.44.56.3.99.72,1.29,1.27.3.55.44,1.19.44,1.92,0,1-.23,1.96-.68,2.9-.45.94-1.12,1.64-1.99,2.09-.88.46-1.95.69-3.21.69-.65,0-1.35-.07-2.1-.22-.75-.14-1.42-.34-2.01-.59l.52-2.41h1.31c.05,1.5.83,2.25,2.35,2.25.82,0,1.5-.21,2.04-.64.54-.42.95-1,1.22-1.73s.41-1.46.41-2.2c0-.85-.21-1.5-.62-1.95s-1.01-.67-1.79-.67c-.36,0-.69.02-.99.06s-.65.12-1.07.24l-.97-.73,1.58-7.14h5.68c.26,0,.45-.02.56-.06.12-.04.22-.11.3-.21.08-.1.17-.26.26-.48h.92l-.73,2.64h-5.92l-1.08,4.9Z"/>
      <path class="uuid-bcb3e01b-9984-4c6f-9a77-cd640066c349" d="m1215.14,378.24c-2.53,2.7-5.17,5.36-7.93,7.99l1.82,4.28c.48,1.15.87,1.99,1.15,2.53s.55.93.78,1.17.47.42.7.53.61.2,1.11.26l-.21.96h-4.86l-2.71-7.85c-.31.27-.73.65-1.24,1.14s-1.01,1.01-1.49,1.56-.82,1-1.02,1.34-.32.63-.38.88-.09.5-.09.76c0,.34.09.61.28.8s.51.33.97.41l-.21.96h-5.57l-.37-.96c2.85-3.06,5.66-5.88,8.42-8.46l-1.86-4.36c-.38-.89-.68-1.56-.92-2.02s-.46-.82-.67-1.07-.46-.45-.74-.59-.68-.22-1.2-.26l.21-.96h4.86l2.6,7.36c.64-.59,1.24-1.19,1.82-1.82s.98-1.12,1.21-1.48.4-.69.49-.98.14-.59.14-.9c0-.72-.42-1.13-1.25-1.23l.21-.96h5.57l.39.96Z"/>
    </g>
    <g>
      <path class="uuid-bcb3e01b-9984-4c6f-9a77-cd640066c349" d="m1056.09,470.33c-.13-.99-.25-1.68-.37-2.06s-.31-.68-.57-.88-.68-.32-1.27-.36l.21-.96h5.02l1.48,15.53c4.4-6.02,6.6-10.33,6.6-12.93,0-.61-.13-1.03-.39-1.25s-.7-.35-1.33-.39l.2-.96h5.04l.53.98c-.69,1.81-1.57,3.68-2.65,5.62s-2.39,4.06-3.95,6.37-3.28,4.7-5.19,7.19c-1.46,1.91-2.68,3.36-3.67,4.34-.77.74-1.47,1.31-2.12,1.69s-1.27.66-1.88.82-1.25.24-1.92.24c-.35,0-.75-.04-1.19-.11-.44-.07-.82-.17-1.13-.28l.84-3.65h1.52c.01.44.12.79.31,1.05s.48.39.86.39c.42,0,.78-.04,1.07-.13.3-.08.62-.22.95-.42s.74-.51,1.21-.94,1.01-1,1.61-1.71,1.27-1.57,2.01-2.57l-1.86-14.63Z"/>
      <path class="uuid-bcb3e01b-9984-4c6f-9a77-cd640066c349" d="m1082.59,470.56v-2.6h24.06v2.6h-24.06Zm0,8.11v-2.6h24.06v2.6h-24.06Z"/>
      <path class="uuid-bcb3e01b-9984-4c6f-9a77-cd640066c349" d="m1128.24,456.81h1.15l-5.08,23.05c-.14.62-.23,1.1-.27,1.42s-.06.59-.06.81c0,.39.07.7.2.92s.33.39.61.51.72.21,1.35.27l-.16.96h-6.09l5.04-22.42c.13-.57.22-1,.27-1.29s.09-.56.12-.82.04-.49.04-.68c0-.39-.07-.69-.21-.89s-.35-.35-.62-.44-.75-.16-1.44-.2l.23-1.02,4.92-.18Z"/>
      <path class="uuid-bcb3e01b-9984-4c6f-9a77-cd640066c349" d="m1137.03,485.07c-2.02,0-3.58-.57-4.7-1.7s-1.67-2.76-1.67-4.88c0-.78.1-1.7.29-2.75.25-1.37.6-2.58,1.05-3.63.59-1.32,1.34-2.45,2.26-3.41s1.97-1.69,3.16-2.19,2.47-.75,3.84-.75c1.5,0,2.72.29,3.68.86s1.65,1.35,2.08,2.33.64,2.12.64,3.41c0,1.16-.16,2.4-.49,3.71-.47,1.93-1.15,3.56-2.05,4.9s-2.02,2.36-3.38,3.06c-1.35.7-2.93,1.04-4.73,1.04Zm-2.95-5.74c0,1.43.3,2.49.89,3.17s1.49,1.03,2.69,1.03c1.28,0,2.41-.57,3.4-1.72.99-1.15,1.77-2.75,2.34-4.81.57-2.06.86-3.88.86-5.44,0-1.41-.27-2.46-.82-3.17s-1.4-1.06-2.56-1.06c-1.35,0-2.54.57-3.54,1.7-1.01,1.13-1.8,2.75-2.38,4.86s-.87,3.93-.87,5.45Z"/>
      <path class="uuid-bcb3e01b-9984-4c6f-9a77-cd640066c349" d="m1151.31,486.42c-.25.3-.46.6-.62.89s-.29.58-.36.85-.11.6-.11.98c0,.98.35,1.69,1.05,2.14s1.76.67,3.18.67c1.29,0,2.36-.23,3.22-.68s1.59-1.16,2.19-2.1,1.12-2.11,1.57-3.5.91-3.24,1.38-5.56l-.27-.06c-1.26,1.73-2.43,3-3.52,3.79s-2.25,1.19-3.5,1.19c-1.42,0-2.52-.53-3.31-1.6s-1.18-2.59-1.18-4.57c0-1.45.19-2.87.57-4.28s.91-2.68,1.58-3.81,1.44-2.07,2.29-2.82,1.75-1.31,2.71-1.67,1.94-.55,2.97-.55c.82,0,1.59.1,2.32.29s1.46.53,2.21,1l1.8-1.29,1.25.31-2.03,9.16c-.14.65-.29,1.39-.45,2.21l-.51,2.56c-.61,3.07-1.1,5.19-1.46,6.35-.44,1.34-.96,2.46-1.56,3.36-.56.82-1.22,1.51-1.99,2.06s-1.66.98-2.67,1.28-2.2.45-3.56.45c-4.92,0-7.38-1.43-7.38-4.3,0-.73.22-1.39.66-1.99s1.15-1.23,2.13-1.89l1.41,1.13Zm5.61-3.69c.66,0,1.33-.23,1.98-.68s1.36-1.18,2.11-2.17,1.33-1.93,1.75-2.83.77-2.02,1.06-3.36.44-2.51.44-3.5-.21-1.75-.64-2.22-1.15-.69-2.15-.69c-.55,0-1.07.09-1.56.26s-1,.47-1.5.88-.99.95-1.46,1.61-.88,1.47-1.26,2.42-.67,1.97-.88,3.06-.31,2.15-.31,3.17c0,1.35.2,2.37.59,3.04s1,1.01,1.84,1.01Z"/>
      <path class="uuid-bcb3e01b-9984-4c6f-9a77-cd640066c349" d="m1177.15,494.77c-.14.62-.21,1.07-.21,1.33,0,.3.08.53.24.68.16.15.42.25.79.32s.94.11,1.71.13l-.17.83h-8.04l.17-.83c.64-.03,1.13-.07,1.47-.12.34-.05.62-.13.83-.22.21-.09.38-.2.51-.33.13-.13.24-.3.34-.51.1-.21.19-.53.29-.96l1.82-8.26c.07-.32.12-.57.15-.76s.05-.35.05-.47c0-.23-.06-.39-.17-.48-.11-.09-.25-.14-.41-.14-.2,0-.5.1-.9.29s-1,.53-1.8,1l-.44-.91,5.77-3.02h.79l-.33,1.33c-.12.49-.25,1.05-.39,1.7l-2.07,9.41Z"/>
      <path class="uuid-bcb3e01b-9984-4c6f-9a77-cd640066c349" d="m1187.33,498.24c-.71,0-1.31-.13-1.81-.4s-.89-.7-1.17-1.31c-.28-.61-.42-1.41-.42-2.4,0-.89.09-1.85.27-2.89.18-1.04.43-2.01.75-2.93.31-.92.69-1.75,1.13-2.5.44-.75.92-1.38,1.45-1.9.53-.51,1.09-.9,1.69-1.17.6-.27,1.22-.4,1.86-.4s1.16.1,1.59.3.78.47,1.05.83c.27.35.46.77.58,1.26.12.49.18,1.03.18,1.61,0,1.62-.24,3.28-.72,4.96-.48,1.68-1.09,3.07-1.84,4.16-.65.96-1.39,1.68-2.22,2.15-.74.42-1.53.64-2.37.64Zm-1.42-3.39c0,.62.05,1.09.16,1.44.11.35.27.6.49.75.22.16.52.23.91.23.57,0,1.12-.27,1.66-.81s1.04-1.34,1.51-2.41.91-2.44,1.29-4.11c.39-1.67.58-3.11.58-4.33,0-.8-.12-1.39-.36-1.76s-.62-.55-1.14-.55c-.33,0-.66.08-.98.25-.39.21-.76.54-1.13,1.01-.45.57-.87,1.32-1.25,2.25-.33.82-.64,1.76-.92,2.83-.2.77-.36,1.53-.5,2.28-.21,1.09-.32,2.06-.32,2.92Z"/>
      <path class="uuid-bcb3e01b-9984-4c6f-9a77-cd640066c349" d="m1218.46,467.02c-2.53,2.7-5.17,5.36-7.93,7.99l1.82,4.28c.48,1.15.87,1.99,1.15,2.53s.55.93.78,1.17.47.42.7.53.61.2,1.11.26l-.21.96h-4.86l-2.71-7.85c-.31.27-.73.65-1.24,1.14s-1.01,1.01-1.49,1.56-.82,1-1.02,1.34-.32.63-.38.88-.09.5-.09.76c0,.34.09.61.28.8s.51.33.97.41l-.21.96h-5.57l-.37-.96c2.85-3.06,5.66-5.88,8.42-8.46l-1.86-4.36c-.38-.89-.68-1.56-.92-2.02s-.46-.82-.67-1.07-.46-.45-.74-.59-.68-.22-1.2-.26l.21-.96h4.86l2.6,7.36c.64-.59,1.24-1.19,1.82-1.82s.98-1.12,1.21-1.48.4-.69.49-.98.14-.59.14-.9c0-.72-.42-1.13-1.25-1.23l.21-.96h5.57l.39.96Z"/>
    </g>
  </g>
</svg>