<?xml version="1.0" encoding="UTF-8"?>
<svg xmlns="http://www.w3.org/2000/svg" width="1245" height="1020" xmlns:xlink="http://www.w3.org/1999/xlink" viewBox="0 0 1245 1020">
  <defs>
    <style>
      .uuid-96acadb1-0f4a-4c35-b476-e4e219ffbd6e {
        fill: #fff;
      }

      .uuid-b5dcd6fc-971a-44f0-aa66-295f14cbe30f {
        stroke: rgba(204, 0, 0, .7);
        stroke-linecap: round;
        stroke-width: 4px;
      }

      .uuid-b5dcd6fc-971a-44f0-aa66-295f14cbe30f, .uuid-ca2377be-50e4-4fa6-a463-2c32449fc3c9, .uuid-70403206-9514-446e-9de7-83e91aa334f4, .uuid-095b5cf3-9d19-497a-b354-8f5862f677f3, .uuid-937ca8b4-4b9e-4031-a362-daed3678f189, .uuid-032a0ba2-4331-459d-bd1a-3c49bc947930, .uuid-4649acf4-07f1-4ccd-9e91-21dfb42500fd, .uuid-83fafc14-dd74-4bbe-984a-9268f099c819 {
        fill: none;
      }

      .uuid-b5dcd6fc-971a-44f0-aa66-295f14cbe30f, .uuid-ca2377be-50e4-4fa6-a463-2c32449fc3c9, .uuid-095b5cf3-9d19-497a-b354-8f5862f677f3 {
        stroke-linejoin: round;
      }

      .uuid-ca2377be-50e4-4fa6-a463-2c32449fc3c9 {
        stroke: rgba(192, 192, 192, .24);
      }

      .uuid-ca2377be-50e4-4fa6-a463-2c32449fc3c9, .uuid-095b5cf3-9d19-497a-b354-8f5862f677f3 {
        stroke-dasharray: 0 0 1.14 3.43;
        stroke-width: 1.14px;
      }

      .uuid-70403206-9514-446e-9de7-83e91aa334f4 {
        stroke: #606060;
        stroke-miterlimit: 10;
        stroke-width: 2.29px;
      }

      .uuid-095b5cf3-9d19-497a-b354-8f5862f677f3 {
        stroke: silver;
      }

      .uuid-5366fe39-1716-4472-9c17-2eac77bd67a2, .uuid-032a0ba2-4331-459d-bd1a-3c49bc947930 {
        font-family: HelveticaNeue-UltraLight, 'Helvetica Neue UltraLight';
        font-size: 13.72px;
        font-weight: 100;
        isolation: isolate;
      }

      .uuid-5366fe39-1716-4472-9c17-2eac77bd67a2, .uuid-958bab10-e065-45f6-b250-b22316c97696 {
        fill: #606060;
      }

      .uuid-51164bfa-9ac0-42bf-b840-e8e4168caf10 {
        fill: #333;
      }

      .uuid-5d13f9e6-cf29-4733-acd9-e07ea90cb1b3 {
        fill: #00699b;
      }

      .uuid-032a0ba2-4331-459d-bd1a-3c49bc947930 {
        stroke: #fff;
        stroke-linejoin: bevel;
        stroke-width: 3.43px;
      }

      .uuid-4649acf4-07f1-4ccd-9e91-21dfb42500fd {
        clip-path: url(#uuid-3bbd003b-96e8-43c3-aa08-b6ed553485ee);
      }

      .uuid-83fafc14-dd74-4bbe-984a-9268f099c819 {
        clip-path: url(#uuid-8f7269a4-abf2-4516-9db9-a0c4645208c3);
      }

      .uuid-958bab10-e065-45f6-b250-b22316c97696 {
        fill-rule: evenodd;
      }
    </style>
    <clipPath id="uuid-3bbd003b-96e8-43c3-aa08-b6ed553485ee">
      <rect class="uuid-937ca8b4-4b9e-4031-a362-daed3678f189" y="2.61" width="1245" height="1019.39"/>
    </clipPath>
    <clipPath id="uuid-8f7269a4-abf2-4516-9db9-a0c4645208c3">
      <rect class="uuid-937ca8b4-4b9e-4031-a362-daed3678f189" x="-217.79" y="-8.59" width="1680.59" height="1036.93"/>
    </clipPath>
  </defs>
  <g id="uuid-00a82f30-7e96-461e-9a7f-0774415e4626" data-name="Grafica">
    <g class="uuid-4649acf4-07f1-4ccd-9e91-21dfb42500fd">
      <g class="uuid-83fafc14-dd74-4bbe-984a-9268f099c819">
        <g>
          <rect class="uuid-96acadb1-0f4a-4c35-b476-e4e219ffbd6e" x="-217.79" y="-8.59" width="1680.59" height="1036.93"/>
          <path class="uuid-095b5cf3-9d19-497a-b354-8f5862f677f3" d="m4.57-8.02v1036.93M4.57-8.02v1036.93M313.25-8.02v1036.93M930.61-8.02v1036.93M1239.29-8.02v1036.93"/>
          <path class="uuid-ca2377be-50e4-4fa6-a463-2c32449fc3c9" d="m-180.64-8.02v1036.93M-118.9-8.02v1036.93M-57.17-8.02v1036.93M66.31-8.02v1036.93M128.04-8.02v1036.93M189.78-8.02v1036.93M251.51-8.02v1036.93M374.99-8.02v1036.93M436.72-8.02v1036.93M498.46-8.02v1036.93M560.19-8.02v1036.93M683.66-8.02v1036.93M745.4-8.02v1036.93M807.14-8.02v1036.93M868.87-8.02v1036.93M992.34-8.02v1036.93M1054.08-8.02v1036.93M1115.82-8.02v1036.93M1177.55-8.02v1036.93M1301.02-8.02v1036.93M1362.76-8.02v1036.93M1424.49-8.02v1036.93"/>
          <path class="uuid-095b5cf3-9d19-497a-b354-8f5862f677f3" d="m-217.22,51.43h1680.59m-1680.59,0h1680.59M-217.22,205.77h1680.59M-217.22,360.11h1680.59M-217.22,668.79h1680.59M-217.22,823.13h1680.59M-217.22,978.61h1680.59"/>
          <path class="uuid-ca2377be-50e4-4fa6-a463-2c32449fc3c9" d="m-217.22,20.57h1680.59m-1680.59,0h1680.59M-217.22,82.3h1680.59M-217.22,113.17h1680.59m-1680.59,30.87h1680.59m-1680.59,30.87h1680.59M-217.22,236.64h1680.59m-1680.59,30.87h1680.59m-1680.59,30.87h1680.59m-1680.59,30.87h1680.59m-1680.59,61.74h1680.59m-1680.59,30.87h1680.59m-1680.59,30.87h1680.59m-1680.59,30.87h1680.59m-1680.59,61.74h1680.59m-1680.59,30.87h1680.59m-1680.59,30.87h1680.59m-1680.59,30.87h1680.59m-1680.59,61.74h1680.59m-1680.59,30.87h1680.59m-1680.59,30.87h1680.59m-1680.59,30.87h1680.59m-1680.59,61.74h1680.59m-1680.59,30.87h1680.59m-1680.59,30.87h1680.59m-1680.59,32.01h1680.59m-1680.59,61.74h1680.59"/>
          <path class="uuid-70403206-9514-446e-9de7-83e91aa334f4" d="m621.36-5.16v1033.5"/>
          <path class="uuid-958bab10-e065-45f6-b250-b22316c97696" d="m621.73-6.3l-5.72,22.87h11.43"/>
          <path class="uuid-70403206-9514-446e-9de7-83e91aa334f4" d="m-217.79,515.02h1677.16"/>
          <text class="uuid-5366fe39-1716-4472-9c17-2eac77bd67a2" transform="translate(-4.01 532.17)"><tspan x="0" y="0">–2</tspan></text>
          <text class="uuid-032a0ba2-4331-459d-bd1a-3c49bc947930" transform="translate(-4.01 532.17)"><tspan x="0" y="0">–2</tspan></text>
          <text class="uuid-5366fe39-1716-4472-9c17-2eac77bd67a2" transform="translate(-4.01 532.17)"><tspan x="0" y="0">–2</tspan></text>
          <text class="uuid-5366fe39-1716-4472-9c17-2eac77bd67a2" transform="translate(305.82 532.17)"><tspan x="0" y="0">–1</tspan></text>
          <text class="uuid-032a0ba2-4331-459d-bd1a-3c49bc947930" transform="translate(305.82 532.17)"><tspan x="0" y="0">–1</tspan></text>
          <text class="uuid-5366fe39-1716-4472-9c17-2eac77bd67a2" transform="translate(305.82 532.17)"><tspan x="0" y="0">–1</tspan></text>
          <text class="uuid-5366fe39-1716-4472-9c17-2eac77bd67a2" transform="translate(926.61 532.17)"><tspan x="0" y="0">1</tspan></text>
          <text class="uuid-032a0ba2-4331-459d-bd1a-3c49bc947930" transform="translate(926.61 532.17)"><tspan x="0" y="0">1</tspan></text>
          <text class="uuid-5366fe39-1716-4472-9c17-2eac77bd67a2" transform="translate(926.61 532.17)"><tspan x="0" y="0">1</tspan></text>
          <text class="uuid-5366fe39-1716-4472-9c17-2eac77bd67a2" transform="translate(1235.29 532.17)"><tspan x="0" y="0">2</tspan></text>
          <text class="uuid-032a0ba2-4331-459d-bd1a-3c49bc947930" transform="translate(1235.29 532.17)"><tspan x="0" y="0">2</tspan></text>
          <text class="uuid-5366fe39-1716-4472-9c17-2eac77bd67a2" transform="translate(1235.29 532.17)"><tspan x="0" y="0">2</tspan></text>
          <text class="uuid-5366fe39-1716-4472-9c17-2eac77bd67a2" transform="translate(598.49 983.76)"><tspan x="0" y="0">–3</tspan></text>
          <text class="uuid-032a0ba2-4331-459d-bd1a-3c49bc947930" transform="translate(598.49 983.76)"><tspan x="0" y="0">–3</tspan></text>
          <text class="uuid-5366fe39-1716-4472-9c17-2eac77bd67a2" transform="translate(598.49 983.76)"><tspan x="0" y="0">–3</tspan></text>
          <text class="uuid-5366fe39-1716-4472-9c17-2eac77bd67a2" transform="translate(598.49 828.28)"><tspan x="0" y="0">–2</tspan></text>
          <text class="uuid-032a0ba2-4331-459d-bd1a-3c49bc947930" transform="translate(598.49 828.28)"><tspan x="0" y="0">–2</tspan></text>
          <text class="uuid-5366fe39-1716-4472-9c17-2eac77bd67a2" transform="translate(598.49 828.28)"><tspan x="0" y="0">–2</tspan></text>
          <text class="uuid-5366fe39-1716-4472-9c17-2eac77bd67a2" transform="translate(598.49 673.94)"><tspan x="0" y="0">–1</tspan></text>
          <text class="uuid-032a0ba2-4331-459d-bd1a-3c49bc947930" transform="translate(598.49 673.94)"><tspan x="0" y="0">–1</tspan></text>
          <text class="uuid-5366fe39-1716-4472-9c17-2eac77bd67a2" transform="translate(598.49 673.94)"><tspan x="0" y="0">–1</tspan></text>
          <text class="uuid-5366fe39-1716-4472-9c17-2eac77bd67a2" transform="translate(605.35 365.26)"><tspan x="0" y="0">1</tspan></text>
          <text class="uuid-032a0ba2-4331-459d-bd1a-3c49bc947930" transform="translate(605.35 365.26)"><tspan x="0" y="0">1</tspan></text>
          <text class="uuid-5366fe39-1716-4472-9c17-2eac77bd67a2" transform="translate(605.35 365.26)"><tspan x="0" y="0">1</tspan></text>
          <text class="uuid-5366fe39-1716-4472-9c17-2eac77bd67a2" transform="translate(605.35 210.92)"><tspan x="0" y="0">2</tspan></text>
          <text class="uuid-032a0ba2-4331-459d-bd1a-3c49bc947930" transform="translate(605.35 210.92)"><tspan x="0" y="0">2</tspan></text>
          <text class="uuid-5366fe39-1716-4472-9c17-2eac77bd67a2" transform="translate(605.35 210.92)"><tspan x="0" y="0">2</tspan></text>
          <text class="uuid-5366fe39-1716-4472-9c17-2eac77bd67a2" transform="translate(605.35 56.58)"><tspan x="0" y="0">3</tspan></text>
          <text class="uuid-032a0ba2-4331-459d-bd1a-3c49bc947930" transform="translate(605.35 56.58)"><tspan x="0" y="0">3</tspan></text>
          <text class="uuid-5366fe39-1716-4472-9c17-2eac77bd67a2" transform="translate(605.35 56.58)"><tspan x="0" y="0">3</tspan></text>
          <text class="uuid-5366fe39-1716-4472-9c17-2eac77bd67a2" transform="translate(605.35 532.17)"><tspan x="0" y="0">0</tspan></text>
          <text class="uuid-032a0ba2-4331-459d-bd1a-3c49bc947930" transform="translate(605.35 532.17)"><tspan x="0" y="0">0</tspan></text>
          <text class="uuid-5366fe39-1716-4472-9c17-2eac77bd67a2" transform="translate(605.35 532.17)"><tspan x="0" y="0">0</tspan></text>
          <path class="uuid-b5dcd6fc-971a-44f0-aa66-295f14cbe30f" d="m313.71,1034.6l.06-6.19.06-5.73.12-10.32m0,0l.1-7.7.1-7,.1-6.42.1-5.93.21-10.65.21-9.36.21-8.36.21-7.54.21-6.88.21-6.32.41-11.28.41-9.85.41-8.75.41-7.86.41-7.15.41-6.55.41-6.04.41-5.61.82-10.15.82-8.99m0,0l.82-8.07.82-7.33.82-6.71.82-6.19,1.64-11.1,1.64-9.75,1.64-8.7,1.64-7.86,1.64-7.17,1.64-6.6m0,0l1.64-6.11,1.64-5.69,3.28-10.34,3.28-9.21,3.28-8.32,3.28-7.59,3.28-6.98,3.28-6.47,3.28-6.04m0,0l6.56-11,6.56-9.84,6.56-8.92,6.56-8.18,6.56-7.57,6.56-7.05,6.56-6.62,6.56-6.24m0,0l6.56-5.92,6.56-5.63,6.56-5.38,6.56-5.16,6.56-4.97,6.56-4.79,6.56-4.63,6.56-4.49,6.56-4.36,6.56-4.24,6.56-4.14,6.56-4.04,6.56-3.95,6.56-3.87,6.56-3.8,6.56-3.74,6.56-3.68,6.56-3.62,6.56-3.57,6.56-3.53,6.56-3.49,6.56-3.45,6.56-3.42,6.56-3.39,6.56-3.37,6.56-3.34,6.56-3.33,6.56-3.31,6.56-3.3,6.56-3.29,6.56-3.29,6.56-3.28m0,0l6.56-3.28,6.56-3.29,6.56-3.29,6.56-3.3,6.56-3.31,6.56-3.33,6.56-3.35,6.56-3.37,6.56-3.4,6.56-3.43,6.56-3.46,6.56-3.5,6.56-3.54,6.56-3.58,6.56-3.63,6.56-3.69,6.56-3.75,6.56-3.82,6.56-3.89,6.56-3.97,6.56-4.06,6.56-4.16,6.56-4.27,6.56-4.39,6.56-4.52,6.56-4.67,6.56-4.83,6.56-5.01,6.56-5.21,6.56-5.44,6.56-5.7,6.56-5.99m0,0l6.56-6.33,6.56-6.71,6.56-7.17,6.56-7.7,6.56-8.34,6.56-9.12,6.56-10.09,6.56-11.32m0,0l3.28-6.24,3.28-6.7,3.28-7.26,3.28-7.91,3.28-8.71,3.28-9.71,3.28-10.98,1.64-6.08,1.64-6.57m0,0l1.64-7.14,1.64-7.82,1.64-8.65,1.64-9.69,1.64-11.01.82-6.13.82-6.64.82-7.25.82-7.98.82-8.87.82-10m0,0l.75-10.4.37-5.77.37-6.23.37-6.76.37-7.4.37-8.18.37-9.14.37-10.35.19-5.74.19-6.2.19-6.74.19-7.38.19-8.16.19-9.11.19-10.33.09-5.73.09-6.19.09-6.73.09-7.37.09-8.14.09-9.1.09-10.32.09-11.91"/>
        </g>
      </g>
    </g>
  </g>
  <g id="uuid-8700e274-df0e-40a8-8578-3895daed0e9b" data-name="Marco">
    <path class="uuid-5d13f9e6-cf29-4733-acd9-e07ea90cb1b3" d="m-2-2V1022h1249V-2H-2Zm1232,987c0,11.05-8.95,20-20,20H35c-11.05,0-20-8.95-20-20V35c0-11.05,8.95-20,20-20h1175c11.05,0,20,8.95,20,20v950Z"/>
  </g>
  <g id="uuid-73e08903-a592-48f8-904d-eb976d8b62ed" data-name="texto">
    <g>
      <path class="uuid-51164bfa-9ac0-42bf-b840-e8e4168caf10" d="m942.12,281.5c-.13-.99-.25-1.68-.37-2.06s-.31-.68-.57-.88c-.26-.2-.68-.32-1.27-.36l.21-.96h5.02l1.48,15.53c4.4-6.02,6.6-10.33,6.6-12.93,0-.61-.13-1.03-.39-1.25-.26-.22-.7-.35-1.33-.39l.2-.96h5.04l.53.98c-.69,1.81-1.57,3.68-2.65,5.62s-2.39,4.06-3.95,6.37c-1.56,2.3-3.28,4.7-5.19,7.19-1.46,1.91-2.68,3.36-3.67,4.34-.77.74-1.47,1.31-2.12,1.69s-1.27.66-1.88.82-1.25.24-1.92.24c-.35,0-.75-.04-1.19-.11-.44-.07-.82-.17-1.13-.28l.84-3.65h1.52c.01.44.12.79.31,1.05s.48.39.86.39c.42,0,.78-.04,1.07-.13.3-.08.62-.22.95-.42s.74-.51,1.21-.94c.48-.43,1.01-1,1.61-1.71.6-.71,1.27-1.57,2.01-2.57l-1.86-14.63Z"/>
      <path class="uuid-51164bfa-9ac0-42bf-b840-e8e4168caf10" d="m968.63,281.73v-2.6h24.06v2.6h-24.06Zm0,8.11v-2.6h24.06v2.6h-24.06Z"/>
      <path class="uuid-51164bfa-9ac0-42bf-b840-e8e4168caf10" d="m1017.59,292.32c-1.07,1.29-2.12,2.26-3.16,2.92-1.04.66-2.15.99-3.32.99-1.38,0-2.41-.35-3.09-1.05-.68-.7-1.02-1.73-1.02-3.07,0-.82.12-1.74.35-2.75l2.42-10.14h-2.91l.21-1c.77-.09,1.38-.26,1.83-.5s.83-.56,1.13-.96c.31-.4.59-.92.85-1.55.26-.64.59-1.57.98-2.79h2.7l-1.07,4.82h6.19l-.43,1.97h-6.21l-1.88,7.58c-.52,2.11-.78,3.68-.78,4.73,0,.79.17,1.4.52,1.81.35.41.85.62,1.51.62.6,0,1.23-.23,1.88-.69.66-.46,1.38-1.16,2.16-2.1l1.13,1.17Z"/>
      <path class="uuid-51164bfa-9ac0-42bf-b840-e8e4168caf10" d="m1034.23,278.2l1.8-1.29,1.25.31-2.99,13.26c-.18.78-.31,1.38-.37,1.81-.06.42-.1.77-.1,1.04,0,.53.15.92.45,1.16.3.24.87.39,1.72.46l-.18.96h-5.59l1.23-4.9-.25-.08c-1.25,1.82-2.43,3.16-3.55,4-1.12.85-2.3,1.27-3.55,1.27-1.43,0-2.54-.54-3.33-1.62-.79-1.08-1.18-2.6-1.18-4.55,0-1.25.14-2.5.43-3.76.29-1.26.72-2.45,1.3-3.57.58-1.13,1.27-2.12,2.08-2.98.81-.86,1.74-1.54,2.8-2.05,1.06-.51,2.22-.76,3.47-.76.81,0,1.58.09,2.3.28.73.19,1.48.52,2.27,1.01Zm-1.72,5.82c.12-.53.2-1,.23-1.39s.06-.81.06-1.27c0-1.02-.21-1.75-.64-2.22s-1.15-.69-2.15-.69c-.55,0-1.07.09-1.56.26-.49.18-1,.47-1.5.88s-.99.95-1.46,1.61c-.46.66-.88,1.47-1.26,2.42-.38.95-.67,1.97-.88,3.06-.21,1.09-.31,2.15-.31,3.17,0,1.35.19,2.37.56,3.04s.99,1.01,1.87,1.01c.4,0,.82-.09,1.26-.27.44-.18.92-.52,1.46-1.01.53-.49,1.14-1.21,1.82-2.16.61-.87,1.1-1.74,1.46-2.59.36-.85.65-1.86.89-3.02l.18-.84Z"/>
      <path class="uuid-51164bfa-9ac0-42bf-b840-e8e4168caf10" d="m1057.4,295.91h-6.15l2.48-9.92c.16-.64.31-1.34.46-2.11.15-.77.22-1.46.22-2.07,0-.92-.16-1.59-.48-1.99-.32-.4-.82-.61-1.49-.61-.55,0-1.14.21-1.77.63-.63.42-1.29,1.05-1.98,1.89-.69.84-1.27,1.69-1.75,2.56-.47.87-.84,1.92-1.1,3.15l-1.78,8.46h-3.38l2.97-13.34c.07-.3.15-.74.26-1.33.11-.59.17-1.07.17-1.46,0-.36-.05-.65-.17-.85-.11-.2-.3-.35-.57-.45-.27-.1-.72-.17-1.36-.21l.23-1.04,4.43-.18h1.11l-1.31,5.08.23.08c1.28-1.8,2.51-3.13,3.69-3.99,1.19-.87,2.37-1.3,3.55-1.3,1.26,0,2.22.35,2.87,1.04.65.7.98,1.73.98,3.1,0,.47-.04.98-.13,1.53-.08.55-.18,1.04-.28,1.47l-1.64,6.95c-.22.94-.33,1.68-.33,2.23,0,.39.07.7.2.92.13.22.33.39.61.51s.72.21,1.35.27l-.16.96Z"/>
      <path class="uuid-51164bfa-9ac0-42bf-b840-e8e4168caf10" d="m1078.61,295.91h-6.13l2.46-9.92c.18-.72.34-1.44.48-2.18s.21-1.4.21-2c0-.94-.16-1.6-.47-2s-.84-.6-1.58-.6c-.53,0-1.12.22-1.77.66s-1.32,1.12-2.04,2.02c-.72.91-1.29,1.77-1.71,2.6-.42.83-.76,1.81-1.01,2.96l-1.78,8.46h-3.38l5.02-22.32c.14-.65.24-1.12.3-1.42s.1-.56.13-.81c.03-.25.04-.47.04-.66,0-.55-.17-.93-.5-1.15s-.93-.34-1.79-.37l.23-1.02,4.94-.18h1.13l-3.36,13.54.23.08c1.22-1.63,2.39-2.81,3.5-3.55,1.11-.74,2.23-1.11,3.38-1.11,1.26,0,2.22.35,2.87,1.04.65.7.98,1.73.98,3.1,0,.83-.13,1.84-.39,3.01l-1.64,6.95c-.13.56-.22,1.01-.27,1.35-.05.34-.08.63-.08.88,0,.4.07.72.21.94s.35.39.62.5c.28.11.73.2,1.34.26l-.18.96Z"/>
      <path class="uuid-51164bfa-9ac0-42bf-b840-e8e4168caf10" d="m1087.73,277.48h-4.98l.38-1.77h4.98l-.38,1.77Z"/>
      <path class="uuid-51164bfa-9ac0-42bf-b840-e8e4168caf10" d="m1095.97,279.3c-.14.62-.21,1.07-.21,1.33,0,.3.08.53.24.68.16.15.42.25.79.32s.94.11,1.71.13l-.17.83h-8.04l.17-.83c.64-.03,1.13-.07,1.47-.12.34-.05.62-.13.83-.22.21-.09.38-.2.51-.33s.24-.3.34-.51c.1-.21.19-.53.29-.96l1.82-8.26c.07-.32.12-.57.15-.76.04-.19.05-.35.05-.47,0-.23-.06-.39-.17-.48-.11-.09-.25-.14-.41-.14-.2,0-.5.1-.9.29s-1,.53-1.8,1l-.44-.91,5.77-3.02h.79l-.33,1.33c-.12.49-.25,1.05-.39,1.7l-2.07,9.41Z"/>
      <path class="uuid-51164bfa-9ac0-42bf-b840-e8e4168caf10" d="m1128.64,278.2c-2.53,2.7-5.17,5.36-7.93,7.99l1.82,4.28c.48,1.15.87,1.99,1.15,2.53.29.54.55.93.78,1.17s.47.42.7.53.61.2,1.11.26l-.21.96h-4.86l-2.71-7.85c-.31.27-.73.65-1.24,1.14-.51.49-1.01,1.01-1.49,1.56-.48.55-.82,1-1.02,1.34s-.32.63-.38.88-.09.5-.09.76c0,.34.09.61.28.8.19.2.51.33.97.41l-.21.96h-5.57l-.37-.96c2.85-3.06,5.66-5.88,8.42-8.46l-1.86-4.36c-.38-.89-.68-1.56-.92-2.02s-.46-.82-.67-1.07-.46-.45-.74-.59c-.28-.14-.68-.22-1.2-.26l.21-.96h4.86l2.6,7.36c.64-.59,1.24-1.19,1.82-1.82.57-.62.98-1.12,1.21-1.48s.4-.69.49-.98c.09-.29.14-.59.14-.9,0-.72-.42-1.13-1.25-1.23l.21-.96h5.57l.39.96Z"/>
    </g>
  </g>
</svg>