<?xml version="1.0" encoding="UTF-8"?>
<svg xmlns="http://www.w3.org/2000/svg" width="1617.3" height="1020" xmlns:xlink="http://www.w3.org/1999/xlink" viewBox="0 0 1617.3 1020">
  <defs>
    <style>
      .uuid-3690fb3f-923e-4e96-a86c-6454e9032ddd {
        fill: #fff;
      }

      .uuid-e33032d9-f6b0-4854-903e-4dc5ff5a93d0, .uuid-a9f72bfc-90e2-4bd8-9f70-125aa036b91e, .uuid-4d5b362a-bf72-4c02-88f0-dbe7849bbdad, .uuid-5a8d213c-ef19-40d2-92b2-4ebe3cf4d3ee {
        font-family: HelveticaNeue-UltraLight, 'Helvetica Neue UltraLight';
        font-weight: 100;
        isolation: isolate;
      }

      .uuid-e33032d9-f6b0-4854-903e-4dc5ff5a93d0, .uuid-118d33d7-637a-42a0-bea5-ff48ce53942b, .uuid-f25f1324-b32d-4611-a87e-4847b99d892f, .uuid-4d5b362a-bf72-4c02-88f0-dbe7849bbdad, .uuid-31d576d0-a904-4922-aebb-cc7f4331602e, .uuid-757a3cc7-f501-4a54-a6db-0db276626db0, .uuid-97b3385d-57ea-4189-9acd-22d5cb6885f0, .uuid-65baa21b-3000-401a-a7f0-2a3999a8c60d, .uuid-cf707ec0-9257-46f0-a498-afa4662c0f4c {
        fill: none;
      }

      .uuid-e33032d9-f6b0-4854-903e-4dc5ff5a93d0, .uuid-4d5b362a-bf72-4c02-88f0-dbe7849bbdad {
        stroke: #fff;
        stroke-linejoin: bevel;
        stroke-width: 3.28px;
      }

      .uuid-e33032d9-f6b0-4854-903e-4dc5ff5a93d0, .uuid-5a8d213c-ef19-40d2-92b2-4ebe3cf4d3ee {
        font-size: 17.47px;
      }

      .uuid-a9f72bfc-90e2-4bd8-9f70-125aa036b91e, .uuid-4d5b362a-bf72-4c02-88f0-dbe7849bbdad {
        font-size: 13.1px;
      }

      .uuid-a9f72bfc-90e2-4bd8-9f70-125aa036b91e, .uuid-7d8b7a7a-78b6-437d-98de-6af2ca10c6d5 {
        fill: #606060;
      }

      .uuid-118d33d7-637a-42a0-bea5-ff48ce53942b {
        stroke: rgba(255, 0, 51, .7);
        stroke-width: 8.02px;
      }

      .uuid-118d33d7-637a-42a0-bea5-ff48ce53942b, .uuid-65baa21b-3000-401a-a7f0-2a3999a8c60d, .uuid-cf707ec0-9257-46f0-a498-afa4662c0f4c {
        stroke-linecap: round;
        stroke-linejoin: round;
      }

      .uuid-f25f1324-b32d-4611-a87e-4847b99d892f {
        stroke: #606060;
        stroke-miterlimit: 10;
        stroke-width: 2.18px;
      }

      .uuid-31d576d0-a904-4922-aebb-cc7f4331602e {
        clip-path: url(#uuid-873d7ec2-51d8-4e59-a819-acc2e563752d);
      }

      .uuid-5a8d213c-ef19-40d2-92b2-4ebe3cf4d3ee {
        fill: #f03;
      }

      .uuid-757a3cc7-f501-4a54-a6db-0db276626db0 {
        clip-path: url(#uuid-b5dcaba0-a7d0-410b-8b6e-2e4fe2da08fd);
      }

      .uuid-fc15d6e2-6ac8-4c46-a204-2dc06ada97f3 {
        fill: #00699b;
      }

      .uuid-65baa21b-3000-401a-a7f0-2a3999a8c60d {
        stroke: silver;
      }

      .uuid-65baa21b-3000-401a-a7f0-2a3999a8c60d, .uuid-cf707ec0-9257-46f0-a498-afa4662c0f4c {
        stroke-width: 1.09px;
      }

      .uuid-cf707ec0-9257-46f0-a498-afa4662c0f4c {
        stroke: rgba(192, 192, 192, .24);
      }

      .uuid-7d8b7a7a-78b6-437d-98de-6af2ca10c6d5 {
        fill-rule: evenodd;
      }
    </style>
    <clipPath id="uuid-b5dcaba0-a7d0-410b-8b6e-2e4fe2da08fd">
      <rect class="uuid-97b3385d-57ea-4189-9acd-22d5cb6885f0" y="3.66" width="1603.54" height="1021.45"/>
    </clipPath>
    <clipPath id="uuid-873d7ec2-51d8-4e59-a819-acc2e563752d">
      <rect class="uuid-97b3385d-57ea-4189-9acd-22d5cb6885f0" x="-1.41" y="14.85" width="1604.76" height="990.15"/>
    </clipPath>
  </defs>
  <g id="uuid-37e21ce7-c082-49f4-8f40-20e11326ce3f" data-name="Grafica">
    <g class="uuid-757a3cc7-f501-4a54-a6db-0db276626db0">
      <g class="uuid-31d576d0-a904-4922-aebb-cc7f4331602e">
        <g>
          <rect class="uuid-3690fb3f-923e-4e96-a86c-6454e9032ddd" x="-1.41" y="14.85" width="1604.76" height="990.15"/>
          <path class="uuid-65baa21b-3000-401a-a7f0-2a3999a8c60d" d="m71.19,15.4v990.15m0-990.15v990.15M217.47,15.4v990.15M363.76,15.4v990.15M510.04,15.4v990.15M656.32,15.4v990.15M949.98,15.4v990.15M1096.27,15.4v990.15M1242.55,15.4v990.15M1388.84,15.4v990.15M1535.12,15.4v990.15"/>
          <path class="uuid-cf707ec0-9257-46f0-a498-afa4662c0f4c" d="m12.24,15.4v990.15M41.71,15.4v990.15M100.66,15.4v990.15M130.14,15.4v990.15M158.52,15.4v990.15M188,15.4v990.15M246.95,15.4v990.15M276.42,15.4v990.15M305.9,15.4v990.15M334.28,15.4v990.15M393.23,15.4v990.15M422.71,15.4v990.15M452.18,15.4v990.15M480.56,15.4v990.15M539.51,15.4v990.15M568.99,15.4v990.15M598.47,15.4v990.15M627.94,15.4v990.15M685.8,15.4v990.15M715.27,15.4v990.15M744.75,15.4v990.15M774.22,15.4v990.15M832.08,15.4v990.15M861.56,15.4v990.15M891.03,15.4v990.15M920.51,15.4v990.15M978.37,15.4v990.15M1007.84,15.4v990.15m29.48-990.15v990.15m29.48-990.15v990.15M1125.74,15.4v990.15m28.38-990.15v990.15m29.48-990.15v990.15m29.48-990.15v990.15M1272.03,15.4v990.15m29.48-990.15v990.15m28.38-990.15v990.15m29.48-990.15v990.15M1418.31,15.4v990.15m29.48-990.15v990.15m28.38-990.15v990.15m29.48-990.15v990.15M1564.6,15.4v990.15m29.48-990.15v990.15"/>
          <path class="uuid-65baa21b-3000-401a-a7f0-2a3999a8c60d" d="m-.86,137.66h1604.76M-.86,137.66h1604.76M-.86,323.25h1604.76M-.86,696.6h1604.76M-.86,883.28h1604.76"/>
          <path class="uuid-cf707ec0-9257-46f0-a498-afa4662c0f4c" d="m-.86,25.22h1604.76M-.86,25.22h1604.76M-.86,62.34h1604.76M-.86,99.46h1604.76M-.86,174.78h1604.76M-.86,211.9h1604.76M-.86,249.02h1604.76M-.86,286.13h1604.76M-.86,360.37h1604.76M-.86,398.57h1604.76M-.86,435.69h1604.76M-.86,472.81h1604.76M-.86,547.04h1604.76M-.86,584.16h1604.76M-.86,621.28h1604.76M-.86,659.49h1604.76M-.86,733.72h1604.76M-.86,770.84h1604.76M-.86,807.95h1604.76M-.86,845.07h1604.76M-.86,920.4h1604.76M-.86,957.51h1604.76M-.86,994.63h1604.76"/>
          <path class="uuid-f25f1324-b32d-4611-a87e-4847b99d892f" d="m803.15,18.13v986.87"/>
          <path class="uuid-7d8b7a7a-78b6-437d-98de-6af2ca10c6d5" d="m803.17,17.03l-5.46,21.83h10.92"/>
          <path class="uuid-f25f1324-b32d-4611-a87e-4847b99d892f" d="m-1.41,510.47h1601.49"/>
          <path class="uuid-7d8b7a7a-78b6-437d-98de-6af2ca10c6d5" d="m1601.17,509.97l-21.83-5.46v10.92"/>
          <text class="uuid-a9f72bfc-90e2-4bd8-9f70-125aa036b91e" transform="translate(44.44 526.85)"><tspan x="0" y="0">–5π / 2</tspan></text>
          <text class="uuid-4d5b362a-bf72-4c02-88f0-dbe7849bbdad" transform="translate(44.44 526.85)"><tspan x="0" y="0">–5π / 2</tspan></text>
          <text class="uuid-a9f72bfc-90e2-4bd8-9f70-125aa036b91e" transform="translate(44.44 526.85)"><tspan x="0" y="0">–5π / 2</tspan></text>
          <text class="uuid-a9f72bfc-90e2-4bd8-9f70-125aa036b91e" transform="translate(206.01 526.85)"><tspan x="0" y="0">–2π</tspan></text>
          <text class="uuid-4d5b362a-bf72-4c02-88f0-dbe7849bbdad" transform="translate(206.01 526.85)"><tspan x="0" y="0">–2π</tspan></text>
          <text class="uuid-a9f72bfc-90e2-4bd8-9f70-125aa036b91e" transform="translate(206.01 526.85)"><tspan x="0" y="0">–2π</tspan></text>
          <text class="uuid-a9f72bfc-90e2-4bd8-9f70-125aa036b91e" transform="translate(337.01 526.85)"><tspan x="0" y="0">–3π / 2</tspan></text>
          <text class="uuid-4d5b362a-bf72-4c02-88f0-dbe7849bbdad" transform="translate(337.01 526.85)"><tspan x="0" y="0">–3π / 2</tspan></text>
          <text class="uuid-a9f72bfc-90e2-4bd8-9f70-125aa036b91e" transform="translate(337.01 526.85)"><tspan x="0" y="0">–3π / 2</tspan></text>
          <text class="uuid-a9f72bfc-90e2-4bd8-9f70-125aa036b91e" transform="translate(502.94 526.85)"><tspan x="0" y="0">–π</tspan></text>
          <text class="uuid-4d5b362a-bf72-4c02-88f0-dbe7849bbdad" transform="translate(502.94 526.85)"><tspan x="0" y="0">–π</tspan></text>
          <text class="uuid-a9f72bfc-90e2-4bd8-9f70-125aa036b91e" transform="translate(502.94 526.85)"><tspan x="0" y="0">–π</tspan></text>
          <text class="uuid-a9f72bfc-90e2-4bd8-9f70-125aa036b91e" transform="translate(633.94 526.85)"><tspan x="0" y="0">–π / 2</tspan></text>
          <text class="uuid-4d5b362a-bf72-4c02-88f0-dbe7849bbdad" transform="translate(633.94 526.85)"><tspan x="0" y="0">–π / 2</tspan></text>
          <text class="uuid-a9f72bfc-90e2-4bd8-9f70-125aa036b91e" transform="translate(633.94 526.85)"><tspan x="0" y="0">–π / 2</tspan></text>
          <text class="uuid-a9f72bfc-90e2-4bd8-9f70-125aa036b91e" transform="translate(930.88 526.85)"><tspan x="0" y="0">π / 2</tspan></text>
          <text class="uuid-4d5b362a-bf72-4c02-88f0-dbe7849bbdad" transform="translate(930.88 526.85)"><tspan x="0" y="0">π / 2</tspan></text>
          <text class="uuid-a9f72bfc-90e2-4bd8-9f70-125aa036b91e" transform="translate(930.88 526.85)"><tspan x="0" y="0">π / 2</tspan></text>
          <text class="uuid-a9f72bfc-90e2-4bd8-9f70-125aa036b91e" transform="translate(1092.45 526.85)"><tspan x="0" y="0">π</tspan></text>
          <text class="uuid-4d5b362a-bf72-4c02-88f0-dbe7849bbdad" transform="translate(1092.45 526.85)"><tspan x="0" y="0">π</tspan></text>
          <text class="uuid-a9f72bfc-90e2-4bd8-9f70-125aa036b91e" transform="translate(1092.45 526.85)"><tspan x="0" y="0">π</tspan></text>
          <text class="uuid-a9f72bfc-90e2-4bd8-9f70-125aa036b91e" transform="translate(1219.08 526.85)"><tspan x="0" y="0">3π / 2</tspan></text>
          <text class="uuid-4d5b362a-bf72-4c02-88f0-dbe7849bbdad" transform="translate(1219.08 526.85)"><tspan x="0" y="0">3π / 2</tspan></text>
          <text class="uuid-a9f72bfc-90e2-4bd8-9f70-125aa036b91e" transform="translate(1219.08 526.85)"><tspan x="0" y="0">3π / 2</tspan></text>
          <text class="uuid-a9f72bfc-90e2-4bd8-9f70-125aa036b91e" transform="translate(1381.74 526.85)"><tspan x="0" y="0">2π</tspan></text>
          <text class="uuid-4d5b362a-bf72-4c02-88f0-dbe7849bbdad" transform="translate(1381.74 526.85)"><tspan x="0" y="0">2π</tspan></text>
          <text class="uuid-a9f72bfc-90e2-4bd8-9f70-125aa036b91e" transform="translate(1381.74 526.85)"><tspan x="0" y="0">2π</tspan></text>
          <text class="uuid-a9f72bfc-90e2-4bd8-9f70-125aa036b91e" transform="translate(1511.65 526.85)"><tspan x="0" y="0">5π / 2</tspan></text>
          <text class="uuid-4d5b362a-bf72-4c02-88f0-dbe7849bbdad" transform="translate(1511.65 526.85)"><tspan x="0" y="0">5π / 2</tspan></text>
          <text class="uuid-a9f72bfc-90e2-4bd8-9f70-125aa036b91e" transform="translate(1511.65 526.85)"><tspan x="0" y="0">5π / 2</tspan></text>
          <text class="uuid-a9f72bfc-90e2-4bd8-9f70-125aa036b91e" transform="translate(781.32 888.19)"><tspan x="0" y="0">–2</tspan></text>
          <text class="uuid-4d5b362a-bf72-4c02-88f0-dbe7849bbdad" transform="translate(781.32 888.19)"><tspan x="0" y="0">–2</tspan></text>
          <text class="uuid-a9f72bfc-90e2-4bd8-9f70-125aa036b91e" transform="translate(781.32 888.19)"><tspan x="0" y="0">–2</tspan></text>
          <text class="uuid-a9f72bfc-90e2-4bd8-9f70-125aa036b91e" transform="translate(781.32 701.51)"><tspan x="0" y="0">–1</tspan></text>
          <text class="uuid-4d5b362a-bf72-4c02-88f0-dbe7849bbdad" transform="translate(781.32 701.51)"><tspan x="0" y="0">–1</tspan></text>
          <text class="uuid-a9f72bfc-90e2-4bd8-9f70-125aa036b91e" transform="translate(781.32 701.51)"><tspan x="0" y="0">–1</tspan></text>
          <text class="uuid-a9f72bfc-90e2-4bd8-9f70-125aa036b91e" transform="translate(787.87 328.16)"><tspan x="0" y="0">1</tspan></text>
          <text class="uuid-4d5b362a-bf72-4c02-88f0-dbe7849bbdad" transform="translate(787.87 328.16)"><tspan x="0" y="0">1</tspan></text>
          <text class="uuid-a9f72bfc-90e2-4bd8-9f70-125aa036b91e" transform="translate(787.87 328.16)"><tspan x="0" y="0">1</tspan></text>
          <text class="uuid-a9f72bfc-90e2-4bd8-9f70-125aa036b91e" transform="translate(787.87 142.58)"><tspan x="0" y="0">2</tspan></text>
          <text class="uuid-4d5b362a-bf72-4c02-88f0-dbe7849bbdad" transform="translate(787.87 142.58)"><tspan x="0" y="0">2</tspan></text>
          <text class="uuid-a9f72bfc-90e2-4bd8-9f70-125aa036b91e" transform="translate(787.87 142.58)"><tspan x="0" y="0">2</tspan></text>
          <text class="uuid-a9f72bfc-90e2-4bd8-9f70-125aa036b91e" transform="translate(787.87 526.85)"><tspan x="0" y="0">0</tspan></text>
          <text class="uuid-4d5b362a-bf72-4c02-88f0-dbe7849bbdad" transform="translate(787.87 526.85)"><tspan x="0" y="0">0</tspan></text>
          <text class="uuid-a9f72bfc-90e2-4bd8-9f70-125aa036b91e" transform="translate(787.87 526.85)"><tspan x="0" y="0">0</tspan></text>
          <path class="uuid-118d33d7-637a-42a0-bea5-ff48ce53942b" d="m-.32,768.75v2.97-2.97l1.09-2.87h0l1.09-2.77h0l1.09-2.68h0l1.09-2.59h0l1.09-2.5h0l1.09-2.42h0l1.09-2.34h0l1.09-2.26h0l1.09-2.19h0l1.09-2.12h0l1.09-2.05h0l1.09-1.98h0l1.09-1.92h0l1.09-1.85h0l1.09-1.79h0l1.09-1.73h0l1.09-1.68h0l1.09-1.62h0l1.09-1.57h0l1.09-1.52h0l1.09-1.47h0l1.09-1.42h0l1.09-1.37h0l1.09-1.32h0l1.09-1.28h0l1.09-1.24h0l1.09-1.19h0l1.09-1.15h0l1.09-1.11h0l1.09-1.07h0l1.09-1.03h0l1.09-.99h0l1.09-.96h0l1.09-.92h0l1.09-.89h0l1.09-.85h0l1.09-.82h0l1.09-.78h0l1.09-.75h0l1.09-.72h0l1.09-.69h0l1.09-.65h0l1.09-.62h0l1.09-.59h0l1.09-.56h0l1.09-.53h0l1.09-.5h0l1.09-.48h0l1.09-.45h0l1.09-.42h0l1.09-.39h0l1.09-.36h0l1.09-.34h0l1.09-.31h0l1.09-.28h0l1.09-.26h0l1.09-.23h0l1.09-.2h0l1.09-.18h0l1.09-.15h0l1.09-.13h0l1.09-.1h0l1.09-.08h0l1.09-.05h0l1.09-.02h0s1.09,0,1.09,0h0s1.09.03,1.09.03h0l1.09.05h0l1.09.08h0l1.09.1h0l1.09.13h0l1.09.16h0l1.09.18h0l1.09.21h0l1.09.23h0l1.09.26h0l1.09.29h0l1.09.31h0l1.09.34h0l1.09.37h0l1.09.4h0l1.09.42h0l1.09.45h0l1.09.48h0l1.09.51h0l1.09.54h0l1.09.57h0l1.09.6h0l1.09.63h0l1.09.66h0l1.09.69h0l1.09.72h0l1.09.75h0l1.09.79h0l1.09.82h0l1.09.85h0l1.09.89h0l1.09.93h0l1.09.96h0l1.09,1h0l1.09,1.04h0l1.09,1.08h0l1.09,1.12h0l1.09,1.16h0l1.09,1.2h0l1.09,1.24h0l1.09,1.28h0l1.09,1.33h0l1.09,1.38h0l1.09,1.42h0l1.09,1.47h0l1.09,1.52h0l1.09,1.58h0l1.09,1.63h0l1.09,1.68h0l1.09,1.74h0l1.09,1.8h0l1.09,1.86h0l1.09,1.92h0l1.09,1.99h0l1.09,2.05h0l1.09,2.12h0l1.09,2.2h0l1.09,2.27h0l1.09,2.35h0l1.09,2.43h0l1.09,2.51h0l1.09,2.6h0l1.09,2.69h0l1.09,2.78h0l1.09,2.88h0l1.09,2.98h0l1.09,3.09h0l1.09,3.2h0l1.09,3.31h0l1.09,3.44h0l1.09,3.56h0l1.09,3.7h0l1.09,3.83h0l1.09,3.98h0l1.09,4.13h0l1.09,4.29h0l1.09,4.46h0l1.09,4.64h0l1.09,4.83h0l1.09,5.03h0l1.09,5.24h0l1.09,5.46h0l1.09,5.69h0l1.09,5.94h0l1.09,6.21h0l1.09,6.49h0l1.09,6.78h0l1.09,7.1h0l1.09,7.44h0l1.09,7.8h0l1.09,8.19h0l1.09,8.6h0l1.09,9.05h0l1.09,9.53h0l1.09,10.04h0l1.09,10.6h0l1.09,11.2h0l1.09,11.86h0l1.09,12.57h0l1.09,13.34h0l1.09,14.18h0l.52,7.23M217.91,1.75h34.64l.4,5.61h0l1.09,14.29h0l1.09,13.43h0l1.09,12.65h0l1.09,11.94h0l1.09,11.28h0l1.09,10.67h0l1.09,10.11h0l1.09,9.59h0l1.09,9.1h0l1.09,8.65h0l1.09,8.23h0l1.09,7.84h0l1.09,7.48h0l1.09,7.14h0l1.09,6.82h0l1.09,6.52h0l1.09,6.24h0l1.09,5.97h0l1.09,5.72h0l1.09,5.49h0l1.09,5.26h0l1.09,5.05h0l1.09,4.85h0l1.09,4.66h0l1.09,4.48h0l1.09,4.31h0l1.09,4.15h0l1.09,4h0l1.09,3.85h0l1.09,3.71h0l1.09,3.58h0l1.09,3.45h0l1.09,3.33h0l1.09,3.21h0l1.09,3.1h0l1.09,2.99h0l1.09,2.89h0l1.09,2.79h0l1.09,2.7h0l1.09,2.61h0l1.09,2.52h0l1.09,2.44h0l1.09,2.36h0l1.09,2.28h0l1.09,2.2h0l1.09,2.13h0l1.09,2.06h0l1.09,2h0l1.09,1.93h0l1.09,1.87h0l1.09,1.81h0l1.09,1.75h0l1.09,1.69h0l1.09,1.64h0l1.09,1.58h0l1.09,1.53h0l1.09,1.48h0l1.09,1.43h0l1.09,1.38h0l1.09,1.34h0l1.09,1.29h0l1.09,1.25h0l1.09,1.2h0l1.09,1.16h0l1.09,1.12h0l1.09,1.08h0l1.09,1.04h0l1.09,1h0l1.09.97h0l1.09.93h0l1.09.89h0l1.09.86h0l1.09.82h0l1.09.79h0l1.09.76h0l1.09.72h0l1.09.69h0l1.09.66h0l1.09.63h0l1.09.6h0l1.09.57h0l1.09.54h0l1.09.51h0l1.09.48h0l1.09.45h0l1.09.43h0l1.09.4h0l1.09.37h0l1.09.34h0l1.09.32h0l1.09.29h0l1.09.26h0l1.09.24h0l1.09.21h0l1.09.18h0l1.09.16h0l1.09.13h0l1.09.11h0l1.09.08h0l1.09.06h0l1.09.03h1.09s0,0,0,0l1.09-.02h0l1.09-.05h0l1.09-.07h0l1.09-.1h0l1.09-.12h0l1.09-.15h0l1.09-.18h0l1.09-.2h0l1.09-.23h0l1.09-.25h0l1.09-.28h0l1.09-.31h0l1.09-.33h0l1.09-.36h0l1.09-.39h0l1.09-.42h0l1.09-.44h0l1.09-.47h0l1.09-.5h0l1.09-.53h0l1.09-.56h0l1.09-.59h0l1.09-.62h0l1.09-.65h0l1.09-.68h0l1.09-.71h0l1.09-.75h0l1.09-.78h0l1.09-.81h0l1.09-.85h0l1.09-.88h0l1.09-.92h0l1.09-.95h0l1.09-.99h0l1.09-1.03h0l1.09-1.07h0l1.09-1.11h0l1.09-1.15h0l1.09-1.19h0l1.09-1.23h0l1.09-1.27h0l1.09-1.32h0l1.09-1.37h0l1.09-1.41h0l1.09-1.46h0l1.09-1.51h0l1.09-1.56h0l1.09-1.62h0l1.09-1.67h0l1.09-1.73h0l1.09-1.79h0l1.09-1.85h0l1.09-1.91h0l1.09-1.97h0l1.09-2.04h0l1.09-2.11h0l1.09-2.18h0l1.09-2.25h0l1.09-2.33h0l1.09-2.41h0l1.09-2.49h0l1.09-2.58h0l1.09-2.67h0l1.09-2.76h0l1.09-2.86h0l1.09-2.96h0l1.09-3.06h0l1.09-3.17h0l1.09-3.29h0l1.09-3.41h0l1.09-3.53h0l1.09-3.66h0l1.09-3.8h0l1.09-3.95h0l1.09-4.1h0l1.09-4.26h0l1.09-4.42h0l1.09-4.6h0l1.09-4.79h0l1.09-4.98h0l1.09-5.19h0l1.09-5.41h0l1.09-5.64h0l1.09-5.88h0l1.09-6.14h0l1.09-6.42h0l1.09-6.71h0l1.09-7.03h0l1.09-7.36h0l1.09-7.72h0l1.09-8.1h0l1.09-8.51h0l1.09-8.94h0l1.09-9.41h0l1.09-9.92h0l1.09-10.47h0l1.09-11.06h0l1.09-11.7h0l1.09-12.4h0l1.09-13.16h0l1.09-13.98h0l.78-10.63m35.51,1016.35h34.52l.15-2.15h0l1.09-14.49h0l1.09-13.62h0l1.09-12.82h0l1.09-12.09h0l1.09-11.42h0l1.09-10.8h0l1.09-10.23h0l1.09-9.7h0l1.09-9.21h0l1.09-8.75h0l1.09-8.33h0l1.09-7.93h0l1.09-7.56h0l1.09-7.21h0l1.09-6.89h0l1.09-6.59h0l1.09-6.3h0l1.09-6.03h0l1.09-5.78h0l1.09-5.54h0l1.09-5.31h0l1.09-5.1h0l1.09-4.9h0l1.09-4.71h0l1.09-4.52h0l1.09-4.35h0l1.09-4.19h0l1.09-4.03h0l1.09-3.88h0l1.09-3.74h0l1.09-3.61h0l1.09-3.48h0l1.09-3.36h0l1.09-3.24h0l1.09-3.13h0l1.09-3.02h0l1.09-2.91h0l1.09-2.82h0l1.09-2.72h0l1.09-2.63h0l1.09-2.54h0l1.09-2.46h0l1.09-2.38h0l1.09-2.3h0l1.09-2.22h0l1.09-2.15h0l1.09-2.08h0l1.09-2.01h0l1.09-1.95h0l1.09-1.88h0l1.09-1.82h0l1.09-1.76h0l1.09-1.7h0l1.09-1.65h0l1.09-1.59h0l1.09-1.54h0l1.09-1.49h0l1.09-1.44h0l1.09-1.39h0l1.09-1.35h0l1.09-1.3h0l1.09-1.26h0l1.09-1.21h0l1.09-1.17h0l1.09-1.13h0l1.09-1.09h0l1.09-1.05h0l1.09-1.01h0l1.09-.97h0l1.09-.94h0l1.09-.9h0l1.09-.87h0l1.09-.83h0l1.09-.8h0l1.09-.76h0l1.09-.73h0l1.09-.7h0l1.09-.67h0l1.09-.64h0l1.09-.61h0l1.09-.58h0l1.09-.55h0l1.09-.52h0l1.09-.49h0l1.09-.46h0l1.09-.43h0l1.09-.4h0l1.09-.38h0l1.09-.35h0l1.09-.32h0l1.09-.3h0l1.09-.27h0l1.09-.24h0l1.09-.22h0l1.09-.19h0l1.09-.16h0l1.09-.14h0l1.09-.11h0l1.09-.09h0l1.09-.06h0l1.09-.04h1.09s0-.01,0-.01l1.09.02h0l1.09.04h0l1.09.07h0l1.09.09h0l1.09.12h0l1.09.14h0l1.09.17h0l1.09.2h0l1.09.22h0l1.09.25h0l1.09.27h0l1.09.3h0l1.09.33h0l1.09.36h0l1.09.38h0l1.09.41h0l1.09.44h0l1.09.47h0l1.09.49h0l1.09.52h0l1.09.55h0l1.09.58h0l1.09.61h0l1.09.64h0l1.09.67h0l1.09.71h0l1.09.74h0l1.09.77h0l1.09.8h0l1.09.84h0l1.09.87h0l1.09.91h0l1.09.94h0l1.09.98h0l1.09,1.02h0l1.09,1.06h0l1.09,1.1h0l1.09,1.14h0l1.09,1.18h0l1.09,1.22h0l1.09,1.26h0l1.09,1.31h0l1.09,1.35h0l1.09,1.4h0l1.09,1.45h0l1.09,1.5h0l1.09,1.55h0l1.09,1.6h0l1.09,1.66h0l1.09,1.71h0l1.09,1.77h0l1.09,1.83h0l1.09,1.89h0l1.09,1.96h0l1.09,2.02h0l1.09,2.09h0l1.09,2.16h0l1.09,2.24h0l1.09,2.31h0l1.09,2.39h0l1.09,2.47h0l1.09,2.56h0l1.09,2.65h0l1.09,2.74h0l1.09,2.83h0l1.09,2.93h0l1.09,3.04h0l1.09,3.15h0l1.09,3.26h0l1.09,3.38h0l1.09,3.5h0l1.09,3.63h0l1.09,3.77h0l1.09,3.91h0l1.09,4.06h0l1.09,4.22h0l1.09,4.39h0l1.09,4.56h0l1.09,4.74h0l1.09,4.94h0l1.09,5.14h0l1.09,5.36h0l1.09,5.58h0l1.09,5.83h0l1.09,6.08h0l1.09,6.36h0l1.09,6.65h0l1.09,6.95h0l1.09,7.28h0l1.09,7.63h0l1.09,8.01h0l1.09,8.41h0l1.09,8.84h0l1.09,9.3h0l1.09,9.8h0l1.09,10.34h0l1.09,10.92h0l1.09,11.55h0l1.09,12.24h0l1.09,12.98h0l1.09,13.79h0l1.03,13.81M805.31,1.75h32.87l1,13.49h0l1.09,13.81h0l1.09,13h0l1.09,12.26h0l1.09,11.57h0l1.09,10.94h0l1.09,10.36h0l1.09,9.82h0l1.09,9.32h0l1.09,8.85h0l1.09,8.42h0l1.09,8.02h0l1.09,7.64h0l1.09,7.29h0l1.09,6.96h0l1.09,6.65h0l1.09,6.36h0l1.09,6.09h0l1.09,5.83h0l1.09,5.59h0l1.09,5.36h0l1.09,5.15h0l1.09,4.94h0l1.09,4.75h0l1.09,4.56h0l1.09,4.39h0l1.09,4.22h0l1.09,4.07h0l1.09,3.92h0l1.09,3.77h0l1.09,3.64h0l1.09,3.51h0l1.09,3.38h0l1.09,3.26h0l1.09,3.15h0l1.09,3.04h0l1.09,2.94h0l1.09,2.84h0l1.09,2.74h0l1.09,2.65h0l1.09,2.56h0l1.09,2.48h0l1.09,2.39h0l1.09,2.31h0l1.09,2.24h0l1.09,2.16h0l1.09,2.09h0l1.09,2.03h0l1.09,1.96h0l1.09,1.9h0l1.09,1.83h0l1.09,1.77h0l1.09,1.72h0l1.09,1.66h0l1.09,1.61h0l1.09,1.55h0l1.09,1.5h0l1.09,1.45h0l1.09,1.4h0l1.09,1.36h0l1.09,1.31h0l1.09,1.27h0l1.09,1.22h0l1.09,1.18h0l1.09,1.14h0l1.09,1.1h0l1.09,1.06h0l1.09,1.02h0l1.09.98h0l1.09.95h0l1.09.91h0l1.09.87h0l1.09.84h0l1.09.81h0l1.09.77h0l1.09.74h0l1.09.71h0l1.09.68h0l1.09.64h0l1.09.61h0l1.09.58h0l1.09.55h0l1.09.52h0l1.09.5h0l1.09.47h0l1.09.44h0l1.09.41h0l1.09.38h0l1.09.36h0l1.09.33h0l1.09.3h0l1.09.28h0l1.09.25h0l1.09.22h0l1.09.2h0l1.09.17h0l1.09.14h0l1.09.12h0l1.09.09h0l1.09.07h0l1.09.04h0l1.09.02h0s1.09,0,1.09,0h0s1.09-.04,1.09-.04h0l1.09-.06h0l1.09-.09h0l1.09-.11h0l1.09-.14h0l1.09-.16h0l1.09-.19h0l1.09-.22h0l1.09-.24h0l1.09-.27h0l1.09-.3h0l1.09-.32h0l1.09-.35h0l1.09-.38h0l1.09-.4h0l1.09-.43h0l1.09-.46h0l1.09-.49h0l1.09-.52h0l1.09-.55h0l1.09-.58h0l1.09-.61h0l1.09-.64h0l1.09-.67h0l1.09-.7h0l1.09-.73h0l1.09-.76h0l1.09-.8h0l1.09-.83h0l1.09-.87h0l1.09-.9h0l1.09-.94h0l1.09-.97h0l1.09-1.01h0l1.09-1.05h0l1.09-1.09h0l1.09-1.13h0l1.09-1.17h0l1.09-1.21h0l1.09-1.25h0l1.09-1.3h0l1.09-1.34h0l1.09-1.39h0l1.09-1.44h0l1.09-1.49h0l1.09-1.54h0l1.09-1.59h0l1.09-1.65h0l1.09-1.7h0l1.09-1.76h0l1.09-1.82h0l1.09-1.88h0l1.09-1.94h0l1.09-2.01h0l1.09-2.08h0l1.09-2.15h0l1.09-2.22h0l1.09-2.29h0l1.09-2.37h0l1.09-2.45h0l1.09-2.54h0l1.09-2.63h0l1.09-2.72h0l1.09-2.81h0l1.09-2.91h0l1.09-3.01h0l1.09-3.12h0l1.09-3.23h0l1.09-3.35h0l1.09-3.48h0l1.09-3.6h0l1.09-3.74h0l1.09-3.88h0l1.09-4.03h0l1.09-4.18h0l1.09-4.35h0l1.09-4.52h0l1.09-4.7h0l1.09-4.89h0l1.09-5.09h0l1.09-5.31h0l1.09-5.53h0l1.09-5.77h0l1.09-6.02h0l1.09-6.29h0l1.09-6.58h0l1.09-6.88h0l1.09-7.21h0l1.09-7.55h0l1.09-7.92h0l1.09-8.32h0l1.09-8.74h0l1.09-9.2h0l1.09-9.69h0l1.09-10.21h0l1.09-10.79h0l1.09-11.4h0l1.09-12.07h0l1.09-12.8h0l1.09-13.6h0l1.09-14.47h0l.19-2.65m36.68,1016.35h33.35l.74-10.14h0l1.09-14.01h0l1.09-13.18h0l1.09-12.42h0l1.09-11.72h0l1.09-11.08h0l1.09-10.49h0l1.09-9.94h0l1.09-9.43h0l1.09-8.96h0l1.09-8.52h0l1.09-8.11h0l1.09-7.73h0l1.09-7.37h0l1.09-7.04h0l1.09-6.72h0l1.09-6.43h0l1.09-6.15h0l1.09-5.89h0l1.09-5.65h0l1.09-5.41h0l1.09-5.19h0l1.09-4.99h0l1.09-4.79h0l1.09-4.61h0l1.09-4.43h0l1.09-4.26h0l1.09-4.1h0l1.09-3.95h0l1.09-3.81h0l1.09-3.67h0l1.09-3.54h0l1.09-3.41h0l1.09-3.29h0l1.09-3.18h0l1.09-3.07h0l1.09-2.96h0l1.09-2.86h0l1.09-2.76h0l1.09-2.67h0l1.09-2.58h0l1.09-2.49h0l1.09-2.41h0l1.09-2.33h0l1.09-2.26h0l1.09-2.18h0l1.09-2.11h0l1.09-2.04h0l1.09-1.97h0l1.09-1.91h0l1.09-1.85h0l1.09-1.79h0l1.09-1.73h0l1.09-1.67h0l1.09-1.62h0l1.09-1.56h0l1.09-1.51h0l1.09-1.46h0l1.09-1.41h0l1.09-1.37h0l1.09-1.32h0l1.09-1.28h0l1.09-1.23h0l1.09-1.19h0l1.09-1.15h0l1.09-1.11h0l1.09-1.07h0l1.09-1.03h0l1.09-.99h0l1.09-.95h0l1.09-.92h0l1.09-.88h0l1.09-.85h0l1.09-.81h0l1.09-.78h0l1.09-.75h0l1.09-.71h0l1.09-.68h0l1.09-.65h0l1.09-.62h0l1.09-.59h0l1.09-.56h0l1.09-.53h0l1.09-.5h0l1.09-.47h0l1.09-.45h0l1.09-.42h0l1.09-.39h0l1.09-.36h0l1.09-.34h0l1.09-.31h0l1.09-.28h0l1.09-.25h0l1.09-.23h0l1.09-.2h0l1.09-.18h0l1.09-.15h0l1.09-.12h0l1.09-.1h0l1.09-.07h0l1.09-.05h0l1.09-.02h0s1.09,0,1.09,0h0s1.09.03,1.09.03h0l1.09.05h0l1.09.08h0l1.09.11h0l1.09.13h0l1.09.16h0l1.09.18h0l1.09.21h0l1.09.24h0l1.09.26h0l1.09.29h0l1.09.32h0l1.09.34h0l1.09.37h0l1.09.4h0l1.09.43h0l1.09.45h0l1.09.48h0l1.09.51h0l1.09.54h0l1.09.57h0l1.09.6h0l1.09.63h0l1.09.66h0l1.09.69h0l1.09.72h0l1.09.76h0l1.09.79h0l1.09.82h0l1.09.86h0l1.09.89h0l1.09.93h0l1.09.96h0l1.09,1h0l1.09,1.04h0l1.09,1.08h0l1.09,1.12h0l1.09,1.16h0l1.09,1.2h0l1.09,1.24h0l1.09,1.29h0l1.09,1.33h0l1.09,1.38h0l1.09,1.43h0l1.09,1.48h0l1.09,1.53h0l1.09,1.58h0l1.09,1.63h0l1.09,1.69h0l1.09,1.75h0l1.09,1.8h0l1.09,1.87h0l1.09,1.93h0l1.09,1.99h0l1.09,2.06h0l1.09,2.13h0l1.09,2.2h0l1.09,2.28h0l1.09,2.35h0l1.09,2.44h0l1.09,2.52h0l1.09,2.61h0l1.09,2.7h0l1.09,2.79h0l1.09,2.89h0l1.09,2.99h0l1.09,3.1h0l1.09,3.21h0l1.09,3.32h0l1.09,3.45h0l1.09,3.57h0l1.09,3.71h0l1.09,3.85h0l1.09,3.99h0l1.09,4.15h0l1.09,4.31h0l1.09,4.48h0l1.09,4.66h0l1.09,4.85h0l1.09,5.05h0l1.09,5.26h0l1.09,5.48h0l1.09,5.71h0l1.09,5.96h0l1.09,6.23h0l1.09,6.51h0l1.09,6.81h0l1.09,7.13h0l1.09,7.47h0l1.09,7.83h0l1.09,8.22h0l1.09,8.64h0l1.09,9.09h0l1.09,9.57h0l1.09,10.09h0l1.09,10.65h0l1.09,11.26h0l1.09,11.92h0l1.09,12.63h0l1.09,13.41h0l1.09,14.26h0l.43,5.95M1389.47,1.75h34.35l.5,6.9h0l1.09,14.21h0l1.09,13.36h0l1.09,12.59h0l1.09,11.88h0l1.09,11.22h0l1.09,10.62h0l1.09,10.06h0l1.09,9.54h0l1.09,9.06h0l1.09,8.61h0l1.09,8.2h0l1.09,7.81h0l1.09,7.45h0l1.09,7.11h0l1.09,6.79h0l1.09,6.49h0l1.09,6.21h0l1.09,5.95h0l1.09,5.7h0l1.09,5.47h0l1.09,5.24h0l1.09,5.03h0l1.09,4.84h0l1.09,4.65h0l1.09,4.47h0l1.09,4.3h0l1.09,4.14h0l1.09,3.98h0l1.09,3.84h0l1.09,3.7h0l1.09,3.57h0l1.09,3.44h0l1.09,3.32h0l1.09,3.2h0l1.09,3.09h0l1.09,2.98h0l1.09,2.88h0l1.09,2.78h0l1.09,2.69h0l1.09,2.6h0l1.09,2.51h0l1.09,2.43h0l1.09,2.35h0l1.09,2.27h0l1.09,2.2h0l1.09,2.13h0l1.09,2.06h0l1.09,1.99h0l1.09,1.92h0l1.09,1.86h0l1.09,1.8h0l1.09,1.74h0l1.09,1.69h0l1.09,1.63h0l1.09,1.58h0l1.09,1.52h0l1.09,1.47h0l1.09,1.43h0l1.09,1.38h0l1.09,1.33h0l1.09,1.29h0l1.09,1.24h0l1.09,1.2h0l1.09,1.16h0l1.09,1.12h0l1.09,1.08h0l1.09,1.04h0l1.09,1h0l1.09.96h0l1.09.93h0l1.09.89h0l1.09.86h0l1.09.82h0l1.09.79h0l1.09.75h0l1.09.72h0l1.09.69h0l1.09.66h0l1.09.63h0l1.09.6h0l1.09.57h0l1.09.54h0l1.09.51h0l1.09.48h0l1.09.45h0l1.09.42h0l1.09.4h0l1.09.37h0l1.09.34h0l1.09.31h0l1.09.29h0l1.09.26h0l1.09.23h0l1.09.21h0l1.09.18h0l1.09.16h0l1.09.13h0l1.09.1h0l1.09.08h0l1.09.05h0l1.09.03h1.09s0,0,0,0l1.09-.02h0l1.09-.05h0l1.09-.07h0l1.09-.1h0l1.09-.13h0l1.09-.15h0l1.09-.18h0l1.09-.2h0l1.09-.23h0l1.09-.26h0l1.09-.28h0l1.09-.31h0l1.09-.34h0l1.09-.36h0l1.09-.39h0l1.09-.42h0l1.09-.45h0l1.09-.48h0l1.09-.5h0l1.09-.53h0l1.09-.56h0l1.09-.59h0l1.09-.62h0l1.09-.65h0l1.09-.68h0l1.09-.72h0l1.09-.75h0l1.09-.78h0l1.09-.82h0l1.09-.85h0l1.09-.88h0l1.09-.92h0l1.09-.96h0l1.09-.99h0l1.09-1.03h0l1.09-1.07h0l1.09-1.11h0l1.09-1.15h0l1.09-1.19h0l1.09-1.23h0l1.09-1.28h0l1.09-1.32h0l1.09-1.37h0l1.09-1.42h0l1.09-1.47h0l1.09-1.52h0l1.09-1.57h0l1.09-1.62h0l1.09-1.68h0l1.09-1.73h0l1.09-1.79h0l1.09-1.85h0l1.09-1.91h0l1.09-1.98h0l1.09-2.05h0l1.09-2.11h0l1.09-2.19h0l1.09-2.26h0l1.09-2.34h0l1.09-2.42h0l1.09-2.5h0l1.09-2.59"/>
          <text class="uuid-5a8d213c-ef19-40d2-92b2-4ebe3cf4d3ee" transform="translate(7.32 749.55)"><tspan x="0" y="0">r</tspan></text>
          <text class="uuid-e33032d9-f6b0-4854-903e-4dc5ff5a93d0" transform="translate(7.32 749.55)"><tspan x="0" y="0">r</tspan></text>
          <text class="uuid-5a8d213c-ef19-40d2-92b2-4ebe3cf4d3ee" transform="translate(7.32 749.55)"><tspan x="0" y="0">r</tspan></text>
        </g>
      </g>
    </g>
  </g>
  <g id="uuid-0d65e367-907a-4e9d-be7a-3779fe30da13" data-name="Marco">
    <path class="uuid-fc15d6e2-6ac8-4c46-a204-2dc06ada97f3" d="m0-2V1022h1617.3V-2H0Zm1600.3,987c0,11.05-8.95,20-20,20H37c-11.05,0-20-8.95-20-20V35c0-11.05,8.95-20,20-20h1543.3c11.05,0,20,8.95,20,20v950Z"/>
  </g>
</svg>