<?xml version="1.0" encoding="UTF-8"?>
<svg xmlns="http://www.w3.org/2000/svg" width="1245" height="1020" xmlns:xlink="http://www.w3.org/1999/xlink" viewBox="0 0 1245 1020">
  <defs>
    <style>
      .uuid-1825e7d4-e009-4aa2-945a-668219cb4c57 {
        stroke: rgba(204, 0, 0, .7);
        stroke-width: 3.94px;
      }

      .uuid-1825e7d4-e009-4aa2-945a-668219cb4c57, .uuid-2db2e5cb-65a7-4edd-9879-7431481f5321, .uuid-6790ba22-a7ae-41d6-8a80-5b5a1fc898b1, .uuid-ca07f84c-d6d5-481a-bff9-0b3b1df274d8, .uuid-6af5f141-1c8b-4c88-b38a-d508b0091fe3, .uuid-a96e86e1-21fa-40c8-8d6d-4d06b5c9aa9d, .uuid-9793968c-6476-4544-9036-b3ef5b74f99d, .uuid-2c4309ad-8110-4e91-b743-1292e5504c43 {
        fill: none;
      }

      .uuid-1825e7d4-e009-4aa2-945a-668219cb4c57, .uuid-6790ba22-a7ae-41d6-8a80-5b5a1fc898b1, .uuid-2c4309ad-8110-4e91-b743-1292e5504c43 {
        stroke-linecap: round;
        stroke-linejoin: round;
      }

      .uuid-37c437bb-c490-44bc-910f-e13a57a0dd7f {
        fill: #fff;
      }

      .uuid-2db2e5cb-65a7-4edd-9879-7431481f5321 {
        clip-path: url(#uuid-b6ae1fb2-0a9e-4d84-8579-8ebdec599226);
      }

      .uuid-6790ba22-a7ae-41d6-8a80-5b5a1fc898b1 {
        stroke: silver;
      }

      .uuid-6790ba22-a7ae-41d6-8a80-5b5a1fc898b1, .uuid-2c4309ad-8110-4e91-b743-1292e5504c43 {
        stroke-width: 1.12px;
      }

      .uuid-ca07f84c-d6d5-481a-bff9-0b3b1df274d8 {
        stroke: #606060;
        stroke-miterlimit: 10;
        stroke-width: 2.25px;
      }

      .uuid-07fc453b-2a3a-46f9-91c5-b515735853a6 {
        fill: #606060;
      }

      .uuid-07fc453b-2a3a-46f9-91c5-b515735853a6, .uuid-6af5f141-1c8b-4c88-b38a-d508b0091fe3 {
        font-family: HelveticaNeue-UltraLight, 'Helvetica Neue UltraLight';
        font-size: 13.5px;
        font-weight: 100;
        isolation: isolate;
      }

      .uuid-605863cf-3710-40e6-850d-76ce20104fb1 {
        fill: #333;
      }

      .uuid-6af5f141-1c8b-4c88-b38a-d508b0091fe3 {
        stroke: #fff;
        stroke-linejoin: bevel;
        stroke-width: 3.37px;
      }

      .uuid-781dfa1f-4ecb-4614-8999-416cb92c8065 {
        fill: #00699b;
      }

      .uuid-a96e86e1-21fa-40c8-8d6d-4d06b5c9aa9d {
        clip-path: url(#uuid-f7ab1d30-7d17-41bb-9930-83f53c50b069);
      }

      .uuid-2c4309ad-8110-4e91-b743-1292e5504c43 {
        stroke: rgba(192, 192, 192, .24);
      }
    </style>
    <clipPath id="uuid-f7ab1d30-7d17-41bb-9930-83f53c50b069">
      <rect class="uuid-9793968c-6476-4544-9036-b3ef5b74f99d" y="2.61" width="1245" height="1019.39"/>
    </clipPath>
    <clipPath id="uuid-b6ae1fb2-0a9e-4d84-8579-8ebdec599226">
      <rect class="uuid-9793968c-6476-4544-9036-b3ef5b74f99d" x="-72.49" width="1389.99" height="1020"/>
    </clipPath>
  </defs>
  <g id="uuid-0bc6e794-fca3-45ff-90c2-23faa66a5c0d" data-name="Grafica">
    <g class="uuid-a96e86e1-21fa-40c8-8d6d-4d06b5c9aa9d">
      <g class="uuid-2db2e5cb-65a7-4edd-9879-7431481f5321">
        <g>
          <rect class="uuid-37c437bb-c490-44bc-910f-e13a57a0dd7f" x="-72.49" width="1389.99" height="1020"/>
          <path class="uuid-6790ba22-a7ae-41d6-8a80-5b5a1fc898b1" d="m60.77.56v1020M60.77.56v1020M201.34.56v1020M343.04.56v1020M483.61.56v1020M765.88.56v1020M907.58.56v1020M1048.16.56v1020M1189.85.56v1020"/>
          <path class="uuid-2c4309ad-8110-4e91-b743-1292e5504c43" d="m-52.81.56v1020M-24.7.56v1020M3.42.56v1020M31.53.56v1020M88.88.56v1020M117,.56v1020M145.11.56v1020M173.23.56v1020M229.46.56v1020M257.57.56v1020M285.69.56v1020M314.93.56v1020M371.15.56v1020M399.27.56v1020M427.38.56v1020M455.5.56v1020M511.73.56v1020M539.84.56v1020M569.08.56v1020M597.2.56v1020M653.43.56v1020M681.54.56v1020M709.66.56v1020M737.77.56v1020M794,.56v1020M823.24.56v1020M851.35.56v1020M879.47.56v1020M935.7.56v1020M963.81.56v1020M991.93.56v1020M1020.04.56v1020M1077.4.56v1020M1105.51.56v1020M1133.62.56v1020M1161.74.56v1020M1217.97.56v1020M1246.08.56v1020M1274.2.56v1020M1302.31.56v1020"/>
          <path class="uuid-6790ba22-a7ae-41d6-8a80-5b5a1fc898b1" d="m-71.93,20.8h1389.99m-1389.99,0h1389.99M-71.93,140.01h1389.99M-71.93,260.34h1389.99M-71.93,380.67h1389.99M-71.93,620.21h1389.99M-71.93,740.54h1389.99M-71.93,860.87h1389.99M-71.93,980.08h1389.99"/>
          <path class="uuid-2c4309ad-8110-4e91-b743-1292e5504c43" d="m-71.93,20.8h1389.99M-71.93,44.42h1389.99M-71.93,68.04h1389.99M-71.93,92.78h1389.99M-71.93,116.39h1389.99M-71.93,164.75h1389.99M-71.93,188.37h1389.99M-71.93,211.98h1389.99M-71.93,236.73h1389.99M-71.93,283.96h1389.99m-1389.99,24.74h1389.99m-1389.99,23.62h1389.99m-1389.99,23.62h1389.99M-71.93,404.29h1389.99m-1389.99,23.62h1389.99m-1389.99,24.74h1389.99m-1389.99,23.62h1389.99m-1389.99,48.36h1389.99m-1389.99,23.62h1389.99m-1389.99,23.62h1389.99m-1389.99,24.74h1389.99m-1389.99,47.23h1389.99m-1389.99,24.74h1389.99m-1389.99,23.62h1389.99m-1389.99,23.62h1389.99m-1389.99,48.36h1389.99m-1389.99,24.74h1389.99m-1389.99,23.62h1389.99m-1389.99,23.62h1389.99m-1389.99,48.36h1389.99m-1389.99,23.62h1389.99m-1389.99,24.74h1389.99m-1389.99,23.62h1389.99m-1389.99,48.36h1389.99"/>
          <path class="uuid-ca07f84c-d6d5-481a-bff9-0b3b1df274d8" d="m624.75-1.12v1021.12"/>
          <path class="uuid-ca07f84c-d6d5-481a-bff9-0b3b1df274d8" d="m-72.49,500.44h1388.86"/>
          <text class="uuid-07fc453b-2a3a-46f9-91c5-b515735853a6" transform="translate(51.21 517.31)"><tspan x="0" y="0">–10</tspan></text>
          <text class="uuid-6af5f141-1c8b-4c88-b38a-d508b0091fe3" transform="translate(51.21 517.31)"><tspan x="0" y="0">–10</tspan></text>
          <text class="uuid-07fc453b-2a3a-46f9-91c5-b515735853a6" transform="translate(51.21 517.31)"><tspan x="0" y="0">–10</tspan></text>
          <text class="uuid-07fc453b-2a3a-46f9-91c5-b515735853a6" transform="translate(188.41 517.31)"><tspan x="0" y="0">–7.5</tspan></text>
          <text class="uuid-6af5f141-1c8b-4c88-b38a-d508b0091fe3" transform="translate(188.41 517.31)"><tspan x="0" y="0">–7.5</tspan></text>
          <text class="uuid-07fc453b-2a3a-46f9-91c5-b515735853a6" transform="translate(188.41 517.31)"><tspan x="0" y="0">–7.5</tspan></text>
          <text class="uuid-07fc453b-2a3a-46f9-91c5-b515735853a6" transform="translate(336.86 517.31)"><tspan x="0" y="0">–5</tspan></text>
          <text class="uuid-6af5f141-1c8b-4c88-b38a-d508b0091fe3" transform="translate(336.86 517.31)"><tspan x="0" y="0">–5</tspan></text>
          <text class="uuid-07fc453b-2a3a-46f9-91c5-b515735853a6" transform="translate(336.86 517.31)"><tspan x="0" y="0">–5</tspan></text>
          <text class="uuid-07fc453b-2a3a-46f9-91c5-b515735853a6" transform="translate(470.68 517.31)"><tspan x="0" y="0">–2.5</tspan></text>
          <text class="uuid-6af5f141-1c8b-4c88-b38a-d508b0091fe3" transform="translate(470.68 517.31)"><tspan x="0" y="0">–2.5</tspan></text>
          <text class="uuid-07fc453b-2a3a-46f9-91c5-b515735853a6" transform="translate(470.68 517.31)"><tspan x="0" y="0">–2.5</tspan></text>
          <text class="uuid-07fc453b-2a3a-46f9-91c5-b515735853a6" transform="translate(756.33 517.31)"><tspan x="0" y="0">2.5</tspan></text>
          <text class="uuid-6af5f141-1c8b-4c88-b38a-d508b0091fe3" transform="translate(756.33 517.31)"><tspan x="0" y="0">2.5</tspan></text>
          <text class="uuid-07fc453b-2a3a-46f9-91c5-b515735853a6" transform="translate(756.33 517.31)"><tspan x="0" y="0">2.5</tspan></text>
          <text class="uuid-07fc453b-2a3a-46f9-91c5-b515735853a6" transform="translate(904.77 517.31)"><tspan x="0" y="0">5</tspan></text>
          <text class="uuid-6af5f141-1c8b-4c88-b38a-d508b0091fe3" transform="translate(904.77 517.31)"><tspan x="0" y="0">5</tspan></text>
          <text class="uuid-07fc453b-2a3a-46f9-91c5-b515735853a6" transform="translate(904.77 517.31)"><tspan x="0" y="0">5</tspan></text>
          <text class="uuid-07fc453b-2a3a-46f9-91c5-b515735853a6" transform="translate(1038.6 517.31)"><tspan x="0" y="0">7.5</tspan></text>
          <text class="uuid-6af5f141-1c8b-4c88-b38a-d508b0091fe3" transform="translate(1038.6 517.31)"><tspan x="0" y="0">7.5</tspan></text>
          <text class="uuid-07fc453b-2a3a-46f9-91c5-b515735853a6" transform="translate(1038.6 517.31)"><tspan x="0" y="0">7.5</tspan></text>
          <text class="uuid-07fc453b-2a3a-46f9-91c5-b515735853a6" transform="translate(1183.67 517.31)"><tspan x="0" y="0">10</tspan></text>
          <text class="uuid-6af5f141-1c8b-4c88-b38a-d508b0091fe3" transform="translate(1183.67 517.31)"><tspan x="0" y="0">10</tspan></text>
          <text class="uuid-07fc453b-2a3a-46f9-91c5-b515735853a6" transform="translate(1183.67 517.31)"><tspan x="0" y="0">10</tspan></text>
          <text class="uuid-07fc453b-2a3a-46f9-91c5-b515735853a6" transform="translate(591.01 985.14)"><tspan x="0" y="0">–1.7</tspan></text>
          <text class="uuid-6af5f141-1c8b-4c88-b38a-d508b0091fe3" transform="translate(591.01 985.14)"><tspan x="0" y="0">–1.7</tspan></text>
          <text class="uuid-07fc453b-2a3a-46f9-91c5-b515735853a6" transform="translate(591.01 985.14)"><tspan x="0" y="0">–1.7</tspan></text>
          <text class="uuid-07fc453b-2a3a-46f9-91c5-b515735853a6" transform="translate(583.14 865.93)"><tspan x="0" y="0">–1.28</tspan></text>
          <text class="uuid-6af5f141-1c8b-4c88-b38a-d508b0091fe3" transform="translate(583.14 865.93)"><tspan x="0" y="0">–1.28</tspan></text>
          <text class="uuid-07fc453b-2a3a-46f9-91c5-b515735853a6" transform="translate(583.14 865.93)"><tspan x="0" y="0">–1.28</tspan></text>
          <text class="uuid-07fc453b-2a3a-46f9-91c5-b515735853a6" transform="translate(583.14 745.6)"><tspan x="0" y="0">–0.85</tspan></text>
          <text class="uuid-6af5f141-1c8b-4c88-b38a-d508b0091fe3" transform="translate(583.14 745.6)"><tspan x="0" y="0">–0.85</tspan></text>
          <text class="uuid-07fc453b-2a3a-46f9-91c5-b515735853a6" transform="translate(583.14 745.6)"><tspan x="0" y="0">–0.85</tspan></text>
          <text class="uuid-07fc453b-2a3a-46f9-91c5-b515735853a6" transform="translate(583.14 625.27)"><tspan x="0" y="0">–0.43</tspan></text>
          <text class="uuid-6af5f141-1c8b-4c88-b38a-d508b0091fe3" transform="translate(583.14 625.27)"><tspan x="0" y="0">–0.43</tspan></text>
          <text class="uuid-07fc453b-2a3a-46f9-91c5-b515735853a6" transform="translate(583.14 625.27)"><tspan x="0" y="0">–0.43</tspan></text>
          <text class="uuid-07fc453b-2a3a-46f9-91c5-b515735853a6" transform="translate(591.01 385.73)"><tspan x="0" y="0">0.43</tspan></text>
          <text class="uuid-6af5f141-1c8b-4c88-b38a-d508b0091fe3" transform="translate(591.01 385.73)"><tspan x="0" y="0">0.43</tspan></text>
          <text class="uuid-07fc453b-2a3a-46f9-91c5-b515735853a6" transform="translate(591.01 385.73)"><tspan x="0" y="0">0.43</tspan></text>
          <text class="uuid-07fc453b-2a3a-46f9-91c5-b515735853a6" transform="translate(591.01 265.4)"><tspan x="0" y="0">0.85</tspan></text>
          <text class="uuid-6af5f141-1c8b-4c88-b38a-d508b0091fe3" transform="translate(591.01 265.4)"><tspan x="0" y="0">0.85</tspan></text>
          <text class="uuid-07fc453b-2a3a-46f9-91c5-b515735853a6" transform="translate(591.01 265.4)"><tspan x="0" y="0">0.85</tspan></text>
          <text class="uuid-07fc453b-2a3a-46f9-91c5-b515735853a6" transform="translate(591.01 145.07)"><tspan x="0" y="0">1.28</tspan></text>
          <text class="uuid-6af5f141-1c8b-4c88-b38a-d508b0091fe3" transform="translate(591.01 145.07)"><tspan x="0" y="0">1.28</tspan></text>
          <text class="uuid-07fc453b-2a3a-46f9-91c5-b515735853a6" transform="translate(591.01 145.07)"><tspan x="0" y="0">1.28</tspan></text>
          <text class="uuid-07fc453b-2a3a-46f9-91c5-b515735853a6" transform="translate(597.76 25.87)"><tspan x="0" y="0">1.7</tspan></text>
          <text class="uuid-6af5f141-1c8b-4c88-b38a-d508b0091fe3" transform="translate(597.76 25.87)"><tspan x="0" y="0">1.7</tspan></text>
          <text class="uuid-07fc453b-2a3a-46f9-91c5-b515735853a6" transform="translate(597.76 25.87)"><tspan x="0" y="0">1.7</tspan></text>
          <text class="uuid-07fc453b-2a3a-46f9-91c5-b515735853a6" transform="translate(609.01 517.31)"><tspan x="0" y="0">0</tspan></text>
          <text class="uuid-6af5f141-1c8b-4c88-b38a-d508b0091fe3" transform="translate(609.01 517.31)"><tspan x="0" y="0">0</tspan></text>
          <text class="uuid-07fc453b-2a3a-46f9-91c5-b515735853a6" transform="translate(609.01 517.31)"><tspan x="0" y="0">0</tspan></text>
          <path class="uuid-1825e7d4-e009-4aa2-945a-668219cb4c57" d="m-72.49,921.08l5.43-.18,5.43-.18,5.43-.18,5.43-.19,5.43-.19,5.43-.19,5.43-.2,5.43-.2,5.43-.2,5.43-.21,5.43-.21,5.43-.21,5.43-.22,5.43-.22,5.43-.22,5.43-.23,5.43-.23,5.43-.24,5.43-.24,5.43-.25,5.43-.25,5.43-.25,5.43-.26,5.43-.26,5.43-.27,5.43-.27,5.43-.28,5.43-.29,5.43-.29,5.43-.3,5.43-.3,5.43-.31,5.43-.32,5.43-.32,5.43-.33,5.43-.34,5.43-.34,5.43-.35,5.43-.36,5.43-.37,5.43-.37,5.43-.38,5.43-.39,5.43-.4,5.43-.41,5.43-.42,5.43-.43,5.43-.44,5.43-.45,5.43-.46,5.43-.47,5.43-.49,5.43-.5,5.43-.51,5.43-.53,5.43-.54,5.43-.56,5.43-.57,5.43-.59,5.43-.6,5.43-.62,5.43-.64,5.43-.66,5.43-.68,5.43-.7,5.43-.72,5.43-.74,5.43-.77,5.43-.79,5.43-.82,5.43-.85,5.43-.88,5.43-.91,5.43-.94,5.43-.97,5.43-1.01,5.43-1.05,5.43-1.09,5.43-1.13,5.43-1.17,5.43-1.22,5.43-1.27,5.43-1.32,5.43-1.38,5.43-1.44,5.43-1.5,5.43-1.57,5.43-1.64,5.43-1.72,5.43-1.81,5.43-1.9,5.43-1.99,5.43-2.09,5.43-2.21,5.43-2.33,5.43-2.46,5.43-2.6,5.43-2.75,5.43-2.92,5.43-3.1,5.43-3.3,5.43-3.52,5.43-3.75,5.43-4.01,5.43-4.3,5.43-4.62,5.43-4.97,5.43-5.36,5.43-5.79,5.43-6.28,5.43-6.81,5.43-7.42,5.43-8.09,5.43-8.84,5.43-9.68,5.43-10.63,2.71-5.7,2.71-5.98,2.71-6.27,2.71-6.58,2.71-6.91,2.71-7.25,2.71-7.6,2.71-7.97,2.71-8.35,2.71-8.75,2.71-9.16,2.71-9.58,2.71-10,2.71-10.42,2.71-10.84,1.36-5.58,1.36-5.68,1.36-5.78,1.36-5.88,1.36-5.97,1.36-6.06,1.36-6.15,1.36-6.23,1.36-6.31,1.36-6.39,1.36-6.46,1.36-6.52,1.36-6.58,1.36-6.63,1.36-6.67,1.36-6.71,1.36-6.74,1.36-6.76,1.36-6.78,1.36-6.79,1.36-6.79,1.36-6.78,1.36-6.76,1.36-6.74,1.36-6.7,1.36-6.67,1.36-6.62,1.36-6.57,1.36-6.51,1.36-6.44,1.36-6.37,1.36-6.3,1.36-6.22,1.36-6.13,1.36-6.04,1.36-5.95,1.36-5.85,1.36-5.76,2.71-11.21,2.71-10.79,2.71-10.37,2.71-9.95,2.71-9.53,2.71-9.11,2.71-8.71,2.71-8.31,2.71-7.93,2.71-7.56,2.71-7.21,2.71-6.87,2.71-6.55,2.71-6.24,2.71-5.95,2.71-5.67,5.43-10.57,5.43-9.63,5.43-8.8,5.43-8.05,5.43-7.38,5.43-6.78,5.43-6.25,5.43-5.77,5.43-5.34,5.43-4.95,5.43-4.6,5.43-4.29,5.43-4,5.43-3.74,5.43-3.5,5.43-3.29,5.43-3.09,5.43-2.91,5.43-2.74,5.43-2.59,5.43-2.45,5.43-2.32,5.43-2.2,5.43-2.09,5.43-1.99,5.43-1.89,5.43-1.8,5.43-1.72,5.43-1.64,5.43-1.57,5.43-1.5,5.43-1.44,5.43-1.38,5.43-1.32,5.43-1.27,5.43-1.22,5.43-1.17,5.43-1.12,5.43-1.08,5.43-1.04,5.43-1.01,5.43-.97,5.43-.94,5.43-.9,5.43-.87,5.43-.85,5.43-.82,5.43-.79,5.43-.77,5.43-.74,5.43-.72,5.43-.7,5.43-.68,5.43-.66,5.43-.64,5.43-.62,5.43-.6,5.43-.59,5.43-.57,5.43-.55,5.43-.54,5.43-.53,5.43-.51,5.43-.5,5.43-.49,5.43-.47,5.43-.46,5.43-.45,5.43-.44,5.43-.43,5.43-.42,5.43-.41,5.43-.4,5.43-.39,5.43-.38,5.43-.37,5.43-.37,5.43-.36,5.43-.35,5.43-.34,5.43-.34,5.43-.33,5.43-.32,5.43-.31,5.43-.31,5.43-.3,5.43-.3,5.43-.29,5.43-.28,5.43-.28,5.43-.27,5.43-.27,5.43-.26,5.43-.26,5.43-.25,5.43-.25,5.43-.24,5.43-.24,5.43-.24,5.43-.23,5.43-.23,5.43-.22,5.43-.22,5.43-.22,5.43-.21,5.43-.21,5.43-.21,5.43-.2,5.43-.2,5.43-.2,5.43-.19,5.43-.19,5.43-.19,5.43-.18,5.43-.18"/>
        </g>
      </g>
    </g>
  </g>
  <g id="uuid-5134f93d-1906-4250-b226-92363321ce08" data-name="Marco">
    <path class="uuid-781dfa1f-4ecb-4614-8999-416cb92c8065" d="m-2-2V1022h1249V-2H-2Zm1232,987c0,11.05-8.95,20-20,20H35c-11.05,0-20-8.95-20-20V35c0-11.05,8.95-20,20-20h1175c11.05,0,20,8.95,20,20v950Z"/>
  </g>
  <g id="uuid-a19c8788-bf7d-4aab-8e0e-b5f948d7c117" data-name="texto">
    <g>
      <path class="uuid-605863cf-3710-40e6-850d-76ce20104fb1" d="m106.76,92.11c-.13-.99-.25-1.68-.37-2.06s-.31-.68-.57-.88c-.26-.2-.68-.32-1.27-.36l.21-.96h5.02l1.48,15.53c4.4-6.02,6.6-10.33,6.6-12.93,0-.61-.13-1.03-.39-1.25-.26-.22-.7-.35-1.33-.39l.2-.96h5.04l.53.98c-.69,1.81-1.57,3.68-2.65,5.62s-2.39,4.06-3.95,6.37c-1.56,2.3-3.29,4.7-5.19,7.19-1.46,1.91-2.68,3.36-3.67,4.34-.77.74-1.47,1.31-2.12,1.69s-1.27.66-1.88.82-1.25.24-1.92.24c-.35,0-.75-.04-1.19-.11-.44-.07-.82-.17-1.13-.28l.84-3.65h1.52c.01.44.12.79.31,1.05s.48.39.86.39c.42,0,.77-.04,1.07-.13.3-.08.62-.22.95-.42s.73-.51,1.21-.94c.47-.43,1.01-1,1.61-1.71.6-.71,1.27-1.57,2.01-2.57l-1.86-14.63Z"/>
      <path class="uuid-605863cf-3710-40e6-850d-76ce20104fb1" d="m132.78,92.4v-2.71h17.3v2.71h-17.3Zm0,8.11v-2.71h17.3v2.71h-17.3Z"/>
      <path class="uuid-605863cf-3710-40e6-850d-76ce20104fb1" d="m177.6,88.81l1.8-1.29,1.25.31-2.99,13.26c-.18.78-.31,1.38-.37,1.81-.07.42-.1.77-.1,1.04,0,.53.15.92.45,1.16.3.24.87.39,1.72.46l-.18.96h-5.59l1.23-4.9-.25-.08c-1.25,1.82-2.44,3.16-3.55,4-1.12.85-2.3,1.27-3.55,1.27-1.43,0-2.54-.54-3.33-1.62-.79-1.08-1.18-2.6-1.18-4.55,0-1.25.14-2.5.43-3.76.29-1.26.72-2.45,1.3-3.57.58-1.13,1.27-2.12,2.08-2.98.81-.86,1.74-1.54,2.8-2.05,1.06-.51,2.22-.76,3.47-.76.81,0,1.57.09,2.3.28.73.19,1.48.52,2.27,1.01Zm-1.72,5.82c.12-.53.2-1,.23-1.39s.06-.81.06-1.27c0-1.02-.21-1.75-.64-2.22s-1.15-.69-2.15-.69c-.55,0-1.07.09-1.56.26-.5.18-1,.47-1.5.88s-.99.95-1.46,1.61c-.46.66-.88,1.47-1.26,2.42-.38.95-.67,1.97-.88,3.06-.21,1.09-.31,2.15-.31,3.17,0,1.35.19,2.37.56,3.04s.99,1.01,1.87,1.01c.4,0,.82-.09,1.26-.27.44-.18.92-.52,1.46-1.01.53-.49,1.14-1.21,1.82-2.16.61-.87,1.1-1.74,1.46-2.59.36-.85.65-1.86.89-3.02l.18-.84Z"/>
      <path class="uuid-605863cf-3710-40e6-850d-76ce20104fb1" d="m190.12,87.67h1.17l-1.37,4.8.23.08c1.24-1.71,2.44-2.97,3.62-3.79,1.18-.82,2.39-1.23,3.64-1.23.95,0,1.74.07,2.38.21l-.94,4.38h-2.01c-.11-.68-.27-1.19-.49-1.54-.22-.35-.57-.53-1.04-.53-.51,0-1.09.26-1.76.78s-1.34,1.24-2.03,2.15c-.69.91-1.21,1.75-1.55,2.52-.35.77-.61,1.62-.79,2.56l-1.78,8.46h-3.38l2.97-13.34c.27-1.22.41-2.16.41-2.79,0-.36-.06-.65-.18-.85s-.31-.35-.57-.45c-.26-.1-.7-.17-1.33-.21l.21-1.04,4.55-.18Z"/>
      <path class="uuid-605863cf-3710-40e6-850d-76ce20104fb1" d="m212.6,92.54c-.03-.99-.11-1.71-.24-2.15s-.36-.77-.66-1c-.31-.22-.74-.33-1.3-.33-1.32,0-2.5.52-3.54,1.57-1.05,1.05-1.9,2.53-2.57,4.45s-1,3.77-1,5.54c0,.55.05,1.06.15,1.54s.27.9.51,1.25c.24.35.56.63.96.83.4.2.9.3,1.51.3,1.18,0,2.21-.22,3.08-.67.87-.45,1.78-1.16,2.74-2.12l1.19,1.19c-1.22,1.35-2.46,2.34-3.7,2.97-1.24.62-2.58.94-4.01.94-1.89,0-3.32-.56-4.3-1.68s-1.46-2.75-1.46-4.88c0-1.39.26-2.92.78-4.59.52-1.67,1.28-3.13,2.29-4.39,1-1.26,2.17-2.21,3.52-2.83,1.34-.62,2.77-.94,4.3-.94,1.04,0,1.95.06,2.72.18.77.12,1.46.25,2.06.41l-.96,4.41h-2.05Z"/>
      <path class="uuid-605863cf-3710-40e6-850d-76ce20104fb1" d="m228.76,102.93c-1.07,1.29-2.12,2.26-3.16,2.92-1.04.66-2.15.99-3.32.99-1.38,0-2.41-.35-3.09-1.05-.68-.7-1.02-1.73-1.02-3.07,0-.82.12-1.74.35-2.75l2.42-10.14h-2.91l.21-1c.77-.09,1.38-.26,1.83-.5s.83-.56,1.13-.96c.3-.4.59-.92.85-1.55.26-.64.59-1.57.98-2.79h2.7l-1.07,4.82h6.19l-.43,1.97h-6.21l-1.88,7.58c-.52,2.11-.78,3.68-.78,4.73,0,.79.17,1.4.52,1.81.34.41.85.62,1.51.62.6,0,1.23-.23,1.88-.69.66-.46,1.38-1.16,2.16-2.1l1.13,1.17Z"/>
      <path class="uuid-605863cf-3710-40e6-850d-76ce20104fb1" d="m245.4,88.81l1.8-1.29,1.25.31-2.99,13.26c-.18.78-.31,1.38-.37,1.81-.07.42-.1.77-.1,1.04,0,.53.15.92.45,1.16.3.24.87.39,1.72.46l-.18.96h-5.59l1.23-4.9-.25-.08c-1.25,1.82-2.44,3.16-3.55,4-1.12.85-2.3,1.27-3.55,1.27-1.43,0-2.54-.54-3.33-1.62-.79-1.08-1.18-2.6-1.18-4.55,0-1.25.14-2.5.43-3.76.29-1.26.72-2.45,1.3-3.57.58-1.13,1.27-2.12,2.08-2.98.81-.86,1.74-1.54,2.8-2.05,1.06-.51,2.22-.76,3.47-.76.81,0,1.57.09,2.3.28.73.19,1.48.52,2.27,1.01Zm-1.72,5.82c.12-.53.2-1,.23-1.39s.06-.81.06-1.27c0-1.02-.21-1.75-.64-2.22s-1.15-.69-2.15-.69c-.55,0-1.07.09-1.56.26-.5.18-1,.47-1.5.88s-.99.95-1.46,1.61c-.46.66-.88,1.47-1.26,2.42-.38.95-.67,1.97-.88,3.06-.21,1.09-.31,2.15-.31,3.17,0,1.35.19,2.37.56,3.04s.99,1.01,1.87,1.01c.4,0,.82-.09,1.26-.27.44-.18.92-.52,1.46-1.01.53-.49,1.14-1.21,1.82-2.16.61-.87,1.1-1.74,1.46-2.59.36-.85.65-1.86.89-3.02l.18-.84Z"/>
      <path class="uuid-605863cf-3710-40e6-850d-76ce20104fb1" d="m268.56,106.52h-6.15l2.48-9.92c.16-.64.31-1.34.46-2.11.15-.77.22-1.46.22-2.07,0-.92-.16-1.59-.48-1.99-.32-.4-.82-.61-1.49-.61-.55,0-1.14.21-1.77.63-.63.42-1.29,1.05-1.98,1.89-.69.84-1.27,1.69-1.75,2.56-.48.87-.84,1.92-1.1,3.15l-1.78,8.46h-3.38l2.97-13.34c.06-.3.15-.74.26-1.33.11-.59.17-1.07.17-1.46,0-.36-.06-.65-.17-.85-.11-.2-.3-.35-.57-.45-.27-.1-.72-.17-1.36-.21l.23-1.04,4.43-.18h1.11l-1.31,5.08.23.08c1.28-1.8,2.51-3.13,3.69-3.99,1.18-.87,2.37-1.3,3.55-1.3,1.26,0,2.22.35,2.87,1.04.65.7.98,1.73.98,3.1,0,.47-.04.98-.13,1.53-.09.55-.18,1.04-.28,1.47l-1.64,6.95c-.22.94-.33,1.68-.33,2.23,0,.39.06.7.2.92.13.22.33.39.61.51s.72.21,1.35.27l-.16.96Z"/>
      <path class="uuid-605863cf-3710-40e6-850d-76ce20104fb1" d="m298.83,88.81c-2.53,2.7-5.17,5.36-7.93,7.99l1.82,4.28c.48,1.15.87,1.99,1.15,2.53.29.54.55.93.78,1.17s.47.42.7.53.61.2,1.11.26l-.21.96h-4.86l-2.71-7.85c-.31.27-.72.65-1.24,1.14-.51.49-1.01,1.01-1.49,1.56-.48.55-.82,1-1.02,1.34s-.32.63-.38.88-.09.5-.09.76c0,.34.09.61.28.8.19.2.51.33.97.41l-.21.96h-5.57l-.37-.96c2.85-3.06,5.66-5.88,8.42-8.46l-1.85-4.36c-.38-.89-.68-1.56-.92-2.02s-.46-.82-.67-1.07-.46-.45-.74-.59c-.28-.14-.68-.22-1.2-.26l.21-.96h4.86l2.6,7.36c.64-.59,1.24-1.19,1.82-1.82.57-.62.98-1.12,1.21-1.48s.4-.69.49-.98c.09-.29.14-.59.14-.9,0-.72-.42-1.13-1.25-1.23l.21-.96h5.57l.39.96Z"/>
    </g>
  </g>
</svg>