<?xml version="1.0" encoding="UTF-8"?>
<svg xmlns="http://www.w3.org/2000/svg" width="1245" height="1020" xmlns:xlink="http://www.w3.org/1999/xlink" viewBox="0 0 1245 1020">
  <defs>
    <style>
      .uuid-76384fde-26ed-4c8a-9847-5216a37a64c0 {
        fill: #fff;
      }

      .uuid-0da3f9a3-ab8e-4d62-b5c1-332ba65e413c {
        stroke: silver;
      }

      .uuid-0da3f9a3-ab8e-4d62-b5c1-332ba65e413c, .uuid-573fd5fc-f95b-4b98-84c5-28ff262137c3, .uuid-45138f30-6507-4487-8c7d-f76fdc9b081a, .uuid-8ed5973d-bc00-40da-8179-03d86c3ac43a, .uuid-5005cff9-c40f-4045-8126-96a167bc0df3, .uuid-7ed27879-1c6b-495e-9845-850c2e1a598a, .uuid-632cd1b9-c157-48c3-8d9b-ce71c05fb759, .uuid-c2f37d6c-26c1-4677-9853-e5fe2000642f {
        fill: none;
      }

      .uuid-0da3f9a3-ab8e-4d62-b5c1-332ba65e413c, .uuid-573fd5fc-f95b-4b98-84c5-28ff262137c3, .uuid-5005cff9-c40f-4045-8126-96a167bc0df3 {
        stroke-width: 1.33px;
      }

      .uuid-0da3f9a3-ab8e-4d62-b5c1-332ba65e413c, .uuid-573fd5fc-f95b-4b98-84c5-28ff262137c3, .uuid-632cd1b9-c157-48c3-8d9b-ce71c05fb759 {
        stroke-linecap: round;
        stroke-linejoin: round;
      }

      .uuid-573fd5fc-f95b-4b98-84c5-28ff262137c3 {
        stroke: rgba(192, 192, 192, .24);
      }

      .uuid-3aef0f0b-50f1-4c26-b27b-5f675954d544 {
        font-family: CambriaMath, 'Cambria Math';
      }

      .uuid-89b4cc16-66af-4b05-9fd2-be6314d5c634 {
        font-family: Cambria-Italic, Cambria;
        font-style: italic;
      }

      .uuid-110dbc22-0599-4a96-bebb-578dfb979e43 {
        fill: #252525;
      }

      .uuid-110dbc22-0599-4a96-bebb-578dfb979e43, .uuid-c2f37d6c-26c1-4677-9853-e5fe2000642f {
        font-family: HelveticaNeue-UltraLight, 'Helvetica Neue UltraLight';
        font-size: 15.99px;
        font-weight: 100;
        isolation: isolate;
      }

      .uuid-09edb918-7fda-40e6-990d-1a41c4c93d19 {
        fill: #333;
        font-size: 40px;
      }

      .uuid-f9b4ce42-9af1-4631-bc0a-825db01071fa {
        fill: #00699b;
      }

      .uuid-45138f30-6507-4487-8c7d-f76fdc9b081a {
        clip-path: url(#uuid-f5e1f820-1d8b-4dd7-9e76-6c1d92931eaa);
      }

      .uuid-8ed5973d-bc00-40da-8179-03d86c3ac43a {
        clip-path: url(#uuid-054e31e1-5282-45fa-bdf1-5646905a72af);
      }

      .uuid-5005cff9-c40f-4045-8126-96a167bc0df3 {
        stroke: #252525;
        stroke-miterlimit: 10;
      }

      .uuid-632cd1b9-c157-48c3-8d9b-ce71c05fb759 {
        stroke: rgba(127, 0, 255, .7);
        stroke-width: 4.66px;
      }

      .uuid-c2f37d6c-26c1-4677-9853-e5fe2000642f {
        stroke: #fff;
        stroke-linejoin: bevel;
        stroke-width: 4px;
      }
    </style>
    <clipPath id="uuid-f5e1f820-1d8b-4dd7-9e76-6c1d92931eaa">
      <rect class="uuid-7ed27879-1c6b-495e-9845-850c2e1a598a" y="2.61" width="1245" height="1019.39"/>
    </clipPath>
    <clipPath id="uuid-054e31e1-5282-45fa-bdf1-5646905a72af">
      <rect class="uuid-7ed27879-1c6b-495e-9845-850c2e1a598a" y="-150.26" width="1958.48" height="1217.72"/>
    </clipPath>
  </defs>
  <g id="uuid-8e6226b5-8345-4268-a0e5-f0f6ca57eb6c" data-name="Grafica">
    <g class="uuid-45138f30-6507-4487-8c7d-f76fdc9b081a">
      <g class="uuid-8ed5973d-bc00-40da-8179-03d86c3ac43a">
        <g>
          <rect class="uuid-76384fde-26ed-4c8a-9847-5216a37a64c0" y="-150.26" width="1958.48" height="1217.72"/>
          <path class="uuid-0da3f9a3-ab8e-4d62-b5c1-332ba65e413c" d="m40.64-149.59v1217.72m0-1217.72v1217.72M277.78-149.59v1217.72M395.03-149.59v1217.72m118.57-1217.72v1217.72m118.57-1217.72v1217.72m118.57-1217.72v1217.72m118.57-1217.72v1217.72m117.24-1217.72v1217.72m118.57-1217.72v1217.72m118.57-1217.72v1217.72m118.57-1217.72v1217.72m117.24-1217.72v1217.72m118.57-1217.72v1217.72m118.57-1217.72v1217.72m118.57-1217.72v1217.72m118.57-1217.72v1217.72"/>
          <path class="uuid-573fd5fc-f95b-4b98-84c5-28ff262137c3" d="m16.65-149.59v1217.72M64.62-149.59v1217.72M88.6-149.59v1217.72M111.25-149.59v1217.72m23.98-1217.72v1217.72M183.19-149.59v1217.72m22.65-1217.72v1217.72m23.98-1217.72v1217.72m23.98-1217.72v1217.72m46.63-1217.72v1217.72m23.98-1217.72v1217.72m23.98-1217.72v1217.72m23.98-1217.72v1217.72m46.63-1217.72v1217.72m23.98-1217.72v1217.72m23.98-1217.72v1217.72m22.65-1217.72v1217.72m47.96-1217.72v1217.72m23.98-1217.72v1217.72m22.65-1217.72v1217.72m23.98-1217.72v1217.72m47.96-1217.72v1217.72m23.98-1217.72v1217.72m22.65-1217.72v1217.72m23.98-1217.72v1217.72m47.96-1217.72v1217.72m22.65-1217.72v1217.72m23.98-1217.72v1217.72m23.98-1217.72v1217.72m46.63-1217.72v1217.72m23.98-1217.72v1217.72m23.98-1217.72v1217.72m23.98-1217.72v1217.72m46.63-1217.72v1217.72m23.98-1217.72v1217.72m23.98-1217.72v1217.72m22.65-1217.72v1217.72m47.96-1217.72v1217.72m23.98-1217.72v1217.72m22.65-1217.72v1217.72m23.98-1217.72v1217.72m47.96-1217.72v1217.72m22.65-1217.72v1217.72m23.98-1217.72v1217.72m23.98-1217.72v1217.72m46.63-1217.72v1217.72m23.98-1217.72v1217.72m23.98-1217.72v1217.72m23.98-1217.72v1217.72m46.63-1217.72v1217.72m23.98-1217.72v1217.72m23.98-1217.72v1217.72m22.65-1217.72v1217.72m47.96-1217.72v1217.72m23.98-1217.72v1217.72m22.65-1217.72v1217.72m23.98-1217.72v1217.72m47.96-1217.72v1217.72m22.65-1217.72v1217.72m23.98-1217.72v1217.72m23.98-1217.72v1217.72m47.96-1217.72v1217.72m22.65-1217.72v1217.72m23.98-1217.72v1217.72m23.98-1217.72v1217.72m46.63-1217.72v1217.72"/>
          <path class="uuid-0da3f9a3-ab8e-4d62-b5c1-332ba65e413c" d="m.67-33.68h1958.48M.67-33.68h1958.48M.67,84.89h1958.48M.67,202.13h1958.48M.67,320.71h1958.48M.67,557.86h1958.48M.67,676.43h1958.48M.67,793.67h1958.48M.67,912.25h1958.48M.67,1030.82h1958.48"/>
          <path class="uuid-573fd5fc-f95b-4b98-84c5-28ff262137c3" d="m.67-128.28h1958.48M.67-104.3h1958.48M.67-81.65h1958.48M.67-57.67h1958.48M.67-9.7h1958.48M.67,12.95h1958.48M.67,36.93h1958.48M.67,60.91h1958.48M.67,107.54h1958.48M.67,131.52h1958.48M.67,155.5h1958.48M.67,179.48h1958.48M.67,226.11h1958.48M.67,250.09h1958.48M.67,274.08h1958.48M.67,298.06h1958.48M.67,344.69h1958.48M.67,368.67h1958.48M.67,392.65h1958.48M.67,415.3h1958.48M.67,463.26h1958.48M.67,487.24h1958.48M.67,509.89h1958.48M.67,533.87h1958.48M.67,581.84h1958.48M.67,604.49h1958.48M.67,628.47h1958.48M.67,652.45h1958.48M.67,699.08h1958.48M.67,723.06h1958.48M.67,747.04h1958.48M.67,771.02h1958.48M.67,817.65h1958.48M.67,841.64h1958.48M.67,865.62h1958.48M.67,888.27h1958.48M.67,936.23h1958.48M.67,960.21h1958.48M.67,982.86h1958.48M.67,1006.84h1958.48M.67,1054.8h1958.48"/>
          <path class="uuid-5005cff9-c40f-4045-8126-96a167bc0df3" d="m159.21-146.93v1215.06"/>
          <path class="uuid-5005cff9-c40f-4045-8126-96a167bc0df3" d="m.67,439.28h1955.81"/>
          <text class="uuid-110dbc22-0599-4a96-bebb-578dfb979e43" transform="translate(33.31 459.93)"><tspan x="0" y="0">–1</tspan></text>
          <text class="uuid-c2f37d6c-26c1-4677-9853-e5fe2000642f" transform="translate(33.31 459.93)"><tspan x="0" y="0">–1</tspan></text>
          <text class="uuid-110dbc22-0599-4a96-bebb-578dfb979e43" transform="translate(33.31 459.93)"><tspan x="0" y="0">–1</tspan></text>
          <text class="uuid-110dbc22-0599-4a96-bebb-578dfb979e43" transform="translate(274.45 459.93)"><tspan x="0" y="0">1</tspan></text>
          <text class="uuid-c2f37d6c-26c1-4677-9853-e5fe2000642f" transform="translate(274.45 459.93)"><tspan x="0" y="0">1</tspan></text>
          <text class="uuid-110dbc22-0599-4a96-bebb-578dfb979e43" transform="translate(274.45 459.93)"><tspan x="0" y="0">1</tspan></text>
          <text class="uuid-110dbc22-0599-4a96-bebb-578dfb979e43" transform="translate(391.7 459.93)"><tspan x="0" y="0">2</tspan></text>
          <text class="uuid-c2f37d6c-26c1-4677-9853-e5fe2000642f" transform="translate(391.7 459.93)"><tspan x="0" y="0">2</tspan></text>
          <text class="uuid-110dbc22-0599-4a96-bebb-578dfb979e43" transform="translate(391.7 459.93)"><tspan x="0" y="0">2</tspan></text>
          <text class="uuid-110dbc22-0599-4a96-bebb-578dfb979e43" transform="translate(510.27 459.93)"><tspan x="0" y="0">3</tspan></text>
          <text class="uuid-c2f37d6c-26c1-4677-9853-e5fe2000642f" transform="translate(510.27 459.93)"><tspan x="0" y="0">3</tspan></text>
          <text class="uuid-110dbc22-0599-4a96-bebb-578dfb979e43" transform="translate(510.27 459.93)"><tspan x="0" y="0">3</tspan></text>
          <text class="uuid-110dbc22-0599-4a96-bebb-578dfb979e43" transform="translate(628.84 459.93)"><tspan x="0" y="0">4</tspan></text>
          <text class="uuid-c2f37d6c-26c1-4677-9853-e5fe2000642f" transform="translate(628.84 459.93)"><tspan x="0" y="0">4</tspan></text>
          <text class="uuid-110dbc22-0599-4a96-bebb-578dfb979e43" transform="translate(628.84 459.93)"><tspan x="0" y="0">4</tspan></text>
          <text class="uuid-110dbc22-0599-4a96-bebb-578dfb979e43" transform="translate(747.42 459.93)"><tspan x="0" y="0">5</tspan></text>
          <text class="uuid-c2f37d6c-26c1-4677-9853-e5fe2000642f" transform="translate(747.42 459.93)"><tspan x="0" y="0">5</tspan></text>
          <text class="uuid-110dbc22-0599-4a96-bebb-578dfb979e43" transform="translate(747.42 459.93)"><tspan x="0" y="0">5</tspan></text>
          <text class="uuid-110dbc22-0599-4a96-bebb-578dfb979e43" transform="translate(865.99 459.93)"><tspan x="0" y="0">6</tspan></text>
          <text class="uuid-c2f37d6c-26c1-4677-9853-e5fe2000642f" transform="translate(865.99 459.93)"><tspan x="0" y="0">6</tspan></text>
          <text class="uuid-110dbc22-0599-4a96-bebb-578dfb979e43" transform="translate(865.99 459.93)"><tspan x="0" y="0">6</tspan></text>
          <text class="uuid-110dbc22-0599-4a96-bebb-578dfb979e43" transform="translate(983.24 459.93)"><tspan x="0" y="0">7</tspan></text>
          <text class="uuid-c2f37d6c-26c1-4677-9853-e5fe2000642f" transform="translate(983.24 459.93)"><tspan x="0" y="0">7</tspan></text>
          <text class="uuid-110dbc22-0599-4a96-bebb-578dfb979e43" transform="translate(983.24 459.93)"><tspan x="0" y="0">7</tspan></text>
          <text class="uuid-110dbc22-0599-4a96-bebb-578dfb979e43" transform="translate(1101.81 459.93)"><tspan x="0" y="0">8</tspan></text>
          <text class="uuid-c2f37d6c-26c1-4677-9853-e5fe2000642f" transform="translate(1101.81 459.93)"><tspan x="0" y="0">8</tspan></text>
          <text class="uuid-110dbc22-0599-4a96-bebb-578dfb979e43" transform="translate(1101.81 459.93)"><tspan x="0" y="0">8</tspan></text>
          <text class="uuid-110dbc22-0599-4a96-bebb-578dfb979e43" transform="translate(1220.38 459.93)"><tspan x="0" y="0">9</tspan></text>
          <text class="uuid-c2f37d6c-26c1-4677-9853-e5fe2000642f" transform="translate(1220.38 459.93)"><tspan x="0" y="0">9</tspan></text>
          <text class="uuid-110dbc22-0599-4a96-bebb-578dfb979e43" transform="translate(1220.38 459.93)"><tspan x="0" y="0">9</tspan></text>
          <text class="uuid-110dbc22-0599-4a96-bebb-578dfb979e43" transform="translate(131.9 918.24)"><tspan x="0" y="0">–4</tspan></text>
          <text class="uuid-c2f37d6c-26c1-4677-9853-e5fe2000642f" transform="translate(131.9 918.24)"><tspan x="0" y="0">–4</tspan></text>
          <text class="uuid-110dbc22-0599-4a96-bebb-578dfb979e43" transform="translate(131.9 918.24)"><tspan x="0" y="0">–4</tspan></text>
          <text class="uuid-110dbc22-0599-4a96-bebb-578dfb979e43" transform="translate(131.9 799.67)"><tspan x="0" y="0">–3</tspan></text>
          <text class="uuid-c2f37d6c-26c1-4677-9853-e5fe2000642f" transform="translate(131.9 799.67)"><tspan x="0" y="0">–3</tspan></text>
          <text class="uuid-110dbc22-0599-4a96-bebb-578dfb979e43" transform="translate(131.9 799.67)"><tspan x="0" y="0">–3</tspan></text>
          <text class="uuid-110dbc22-0599-4a96-bebb-578dfb979e43" transform="translate(131.9 682.43)"><tspan x="0" y="0">–2</tspan></text>
          <text class="uuid-c2f37d6c-26c1-4677-9853-e5fe2000642f" transform="translate(131.9 682.43)"><tspan x="0" y="0">–2</tspan></text>
          <text class="uuid-110dbc22-0599-4a96-bebb-578dfb979e43" transform="translate(131.9 682.43)"><tspan x="0" y="0">–2</tspan></text>
          <text class="uuid-110dbc22-0599-4a96-bebb-578dfb979e43" transform="translate(131.9 563.85)"><tspan x="0" y="0">–1</tspan></text>
          <text class="uuid-c2f37d6c-26c1-4677-9853-e5fe2000642f" transform="translate(131.9 563.85)"><tspan x="0" y="0">–1</tspan></text>
          <text class="uuid-110dbc22-0599-4a96-bebb-578dfb979e43" transform="translate(131.9 563.85)"><tspan x="0" y="0">–1</tspan></text>
          <text class="uuid-110dbc22-0599-4a96-bebb-578dfb979e43" transform="translate(139.89 326.7)"><tspan x="0" y="0">1</tspan></text>
          <text class="uuid-c2f37d6c-26c1-4677-9853-e5fe2000642f" transform="translate(139.89 326.7)"><tspan x="0" y="0">1</tspan></text>
          <text class="uuid-110dbc22-0599-4a96-bebb-578dfb979e43" transform="translate(139.89 326.7)"><tspan x="0" y="0">1</tspan></text>
          <text class="uuid-110dbc22-0599-4a96-bebb-578dfb979e43" transform="translate(139.89 208.13)"><tspan x="0" y="0">2</tspan></text>
          <text class="uuid-c2f37d6c-26c1-4677-9853-e5fe2000642f" transform="translate(139.89 208.13)"><tspan x="0" y="0">2</tspan></text>
          <text class="uuid-110dbc22-0599-4a96-bebb-578dfb979e43" transform="translate(139.89 208.13)"><tspan x="0" y="0">2</tspan></text>
          <text class="uuid-110dbc22-0599-4a96-bebb-578dfb979e43" transform="translate(139.89 90.88)"><tspan x="0" y="0">3</tspan></text>
          <text class="uuid-c2f37d6c-26c1-4677-9853-e5fe2000642f" transform="translate(139.89 90.88)"><tspan x="0" y="0">3</tspan></text>
          <text class="uuid-110dbc22-0599-4a96-bebb-578dfb979e43" transform="translate(139.89 90.88)"><tspan x="0" y="0">3</tspan></text>
          <text class="uuid-110dbc22-0599-4a96-bebb-578dfb979e43" transform="translate(139.89 459.93)"><tspan x="0" y="0">0</tspan></text>
          <text class="uuid-c2f37d6c-26c1-4677-9853-e5fe2000642f" transform="translate(139.89 459.93)"><tspan x="0" y="0">0</tspan></text>
          <text class="uuid-110dbc22-0599-4a96-bebb-578dfb979e43" transform="translate(139.89 459.93)"><tspan x="0" y="0">0</tspan></text>
          <path class="uuid-632cd1b9-c157-48c3-8d9b-ce71c05fb759" d="m159.88,1027.36v40.1-40.1l1.33-114.14h0l1.33-56.99h0l1.33-38.3h0l1.33-28.88h0l1.33-23.2h0l1.33-19.38h0l1.33-16.65h0l1.33-14.59h0l1.33-12.99h0l1.33-11.7h0l1.33-10.65h0l1.33-9.77h0l1.33-9.02h0l1.33-8.38h0l1.33-7.83h0l1.33-7.34h0l1.33-6.91h0l1.33-6.53h0l1.33-6.19h0l1.33-5.88h0l1.33-5.6h0l1.33-5.35h0l1.33-5.12h0l1.33-4.91h0l1.33-4.71h0l1.33-4.53h0l1.33-4.36h0l1.33-4.21h0l1.33-4.06h0l1.33-3.93h0l1.33-3.8h0l1.33-3.68h0l1.33-3.57h0l1.33-3.47h0l1.33-3.37h0l1.33-3.28h0l1.33-3.19h0l1.33-3.1h0l1.33-3.02h0l1.33-2.95h0l1.33-2.88h0l1.33-2.81h0l1.33-2.74h0l1.33-2.68h0l1.33-2.62h0l1.33-2.56h0l1.33-2.51h0l1.33-2.46h0l1.33-2.41h0l1.33-2.36h0l1.33-2.31h0l1.33-2.27h0l1.33-2.23h0l1.33-2.19h0l1.33-2.15h0l1.33-2.11h0l1.33-2.07h0l1.33-2.04h0l1.33-2h0l1.33-1.97h0l1.33-1.94h0l1.33-1.9h0l1.33-1.87h0l1.33-1.84h0l1.33-1.82h0l1.33-1.79h0l1.33-1.76h0l1.33-1.74h0l1.33-1.71h0l1.33-1.69h0l1.33-1.66h0l1.33-1.64h0l1.33-1.62h0l1.33-1.6h0l1.33-1.57h0l1.33-1.55h0l1.33-1.53h0l1.33-1.51h0l1.33-1.5h0l1.33-1.48h0l1.33-1.46h0l1.33-1.44h0l1.33-1.42h0l1.33-1.41h0l1.33-1.39h0l1.33-1.37h0l1.33-1.36h0l1.33-1.34h0l1.33-1.33h0l1.33-1.31h0l1.33-1.3h0l1.33-1.28h0l1.33-1.27h0l1.33-1.26h0l1.33-1.24h0l1.33-1.23h0l1.33-1.22h0l1.33-1.21h0l1.33-1.19h0l1.33-1.18h0l1.33-1.17h0l1.33-1.16h0l1.33-1.15h0l1.33-1.14h0l1.33-1.13h0l1.33-1.11h0l1.33-1.1h0l1.33-1.09h0l1.33-1.08h0l1.33-1.07h0l1.33-1.06h0l1.33-1.05h0l1.33-1.05h0l1.33-1.04h0l1.33-1.03h0l1.33-1.02h0l1.33-1.01h0l1.33-1h0l1.33-.99h0l1.33-.98h0l1.33-.98h0l1.33-.97h0l1.33-.96h0l1.33-.95h0l1.33-.95h0l1.33-.94h0l1.33-.93h0l1.33-.92h0l1.33-.92h0l1.33-.91h0l1.33-.9h0l1.33-.9h0l1.33-.89h0l1.33-.88h0l1.33-.88h0l1.33-.87h0l1.33-.86h0l1.33-.86h0l1.33-.85h0l1.33-.84h0l1.33-.84h0l1.33-.83h0l1.33-.83h0l1.33-.82h0l1.33-.82h0l1.33-.81h0l1.33-.8h0l1.33-.8h0l1.33-.79h0l1.33-.79h0l1.33-.78h0l1.33-.78h0l1.33-.77h0l1.33-.77h0l1.33-.76h0l1.33-.76h0l1.33-.75h0l1.33-.75h0l1.33-.74h0l1.33-.74h0l1.33-.73h0l1.33-.73h0l1.33-.73h0l1.33-.72h0l1.33-.72h0l1.33-.71h0l1.33-.71h0l1.33-.7h0l1.33-.7h0l1.33-.7h0l1.33-.69h0l1.33-.69h0l1.33-.68h0l1.33-.68h0l1.33-.68h0l1.33-.67h0l1.33-.67h0l1.33-.66h0l1.33-.66h0l1.33-.66h0l1.33-.65h0l1.33-.65h0l1.33-.65h0l1.33-.64h0l1.33-.64h0l1.33-.64h0l1.33-.63h0l1.33-.63h0l1.33-.63h0l1.33-.62h0l1.33-.62h0l1.33-.62h0l1.33-.61h0l1.33-.61h0l1.33-.61h0l1.33-.6h0l1.33-.6h0l1.33-.6h0l1.33-.59h0l1.33-.59h0l1.33-.59h0l1.33-.59h0l1.33-.58h0l1.33-.58h0l1.33-.58h0l1.33-.57h0l1.33-.57h0l1.33-.57h0l1.33-.57h0l1.33-.56h0l1.33-.56h0l1.33-.56h0l1.33-.56h0l1.33-.55h0l1.33-.55h0l1.33-.55h0l1.33-.54h0l1.33-.54h0l1.33-.54h0l1.33-.54h0l1.33-.53h0l1.33-.53h0l1.33-.53h0l1.33-.53h0l1.33-.53h0l1.33-.52h0l1.33-.52h0l1.33-.52h0l1.33-.52h0l1.33-.51h0l1.33-.51h0l1.33-.51h0l1.33-.51h0l1.33-.51h0l1.33-.5h0l1.33-.5h0l1.33-.5h0l1.33-.5h0l1.33-.49h0l1.33-.49h0l1.33-.49h0l1.33-.49h0l1.33-.49h0l1.33-.48h0l1.33-.48h0l1.33-.48h0l1.33-.48h0l1.33-.48h0l1.33-.47h0l1.33-.47h0l1.33-.47h0l1.33-.47h0l1.33-.47h0l1.33-.47h0l1.33-.46h0l1.33-.46h0l1.33-.46h0l1.33-.46h0l1.33-.46h0l1.33-.45h0l1.33-.45h0l1.33-.45h0l1.33-.45h0l1.33-.45h0l1.33-.45h0l1.33-.44h0l1.33-.44h0l1.33-.44h0l1.33-.44h0l1.33-.44h0l1.33-.44h0l1.33-.43h0l1.33-.43h0l1.33-.43h0l1.33-.43h0l1.33-.43h0l1.33-.43h0l1.33-.43h0l1.33-.42h0l1.33-.42h0l1.33-.42h0l1.33-.42h0l1.33-.42h0l1.33-.42h0l1.33-.41h0l1.33-.41h0l1.33-.41h0l1.33-.41h0l1.33-.41h0l1.33-.41h0l1.33-.41h0l1.33-.4h0l1.33-.4h0l1.33-.4h0l1.33-.4h0l1.33-.4h0l1.33-.4h0l1.33-.4h0l1.33-.4h0l1.33-.39h0l1.33-.39h0l1.33-.39h0l1.33-.39h0l1.33-.39h0l1.33-.39h0l1.33-.39h0l1.33-.39h0l1.33-.38h0l1.33-.38h0l1.33-.38h0l1.33-.38h0l1.33-.38h0l1.33-.38h0l1.33-.38h0l1.33-.38h0l1.33-.37h0l1.33-.37h0l1.33-.37h0l1.33-.37h0l1.33-.37h0l1.33-.37h0l1.33-.37h0l1.33-.37h0l1.33-.36h0l1.33-.36h0l1.33-.36h0l1.33-.36h0l1.33-.36h0l1.33-.36h0l1.33-.36h0l1.33-.36h0l1.33-.36h0l1.33-.36h0l1.33-.35h0l1.33-.35h0l1.33-.35h0l1.33-.35h0l1.33-.35h0l1.33-.35h0l1.33-.35h0l1.33-.35h0l1.33-.35h0l1.33-.34h0l1.33-.34h0l1.33-.34h0l1.33-.34h0l1.33-.34h0l1.33-.34h0l1.33-.34h0l1.33-.34h0l1.33-.34h0l1.33-.34h0l1.33-.33h0l1.33-.33h0l1.33-.33h0l1.33-.33h0l1.33-.33h0l1.33-.33h0l1.33-.33h0l1.33-.33h0l1.33-.33h0l1.33-.33h0l1.33-.33h0l1.33-.32h0l1.33-.32h0l1.33-.32h0l1.33-.32h0l1.33-.32h0l1.33-.32h0l1.33-.32h0l1.33-.32h0l1.33-.32h0l1.33-.32h0l1.33-.32h0l1.33-.32h0l1.33-.31h0l1.33-.31h0l1.33-.31h0l1.33-.31h0l1.33-.31h0l1.33-.31h0l1.33-.31h0l1.33-.31h0l1.33-.31h0l1.33-.31h0l1.33-.31h0l1.33-.31h0l1.33-.3h0l1.33-.3h0l1.33-.3h0l1.33-.3h0l1.33-.3h0l1.33-.3h0l1.33-.3h0l1.33-.3h0l1.33-.3h0l1.33-.3h0l1.33-.3h0l1.33-.3h0l1.33-.3h0l1.33-.29h0l1.33-.29h0l1.33-.29h0l1.33-.29h0l1.33-.29h0l1.33-.29h0l1.33-.29h0l1.33-.29h0l1.33-.29h0l1.33-.29h0l1.33-.29h0l1.33-.29h0l1.33-.29h0l1.33-.29h0l1.33-.28h0l1.33-.28h0l1.33-.28h0l1.33-.28h0l1.33-.28h0l1.33-.28h0l1.33-.28h0l1.33-.28h0l1.33-.28h0l1.33-.28h0l1.33-.28h0l1.33-.28h0l1.33-.28h0l1.33-.28h0l1.33-.28h0l1.33-.28h0l1.33-.27h0l1.33-.27h0l1.33-.27h0l1.33-.27h0l1.33-.27h0l1.33-.27h0l1.33-.27h0l1.33-.27h0l1.33-.27h0l1.33-.27h0l1.33-.27h0l1.33-.27h0l1.33-.27h0l1.33-.27h0l1.33-.27h0l1.33-.27h0l1.33-.26h0l1.33-.26h0l1.33-.26h0l1.33-.26h0l1.33-.26h0l1.33-.26h0l1.33-.26h0l1.33-.26h0l1.33-.26h0l1.33-.26h0l1.33-.26h0l1.33-.26h0l1.33-.26h0l1.33-.26h0l1.33-.26h0l1.33-.26h0l1.33-.26h0l1.33-.25h0l1.33-.25h0l1.33-.25h0l1.33-.25h0l1.33-.25h0l1.33-.25h0l1.33-.25h0l1.33-.25h0l1.33-.25h0l1.33-.25h0l1.33-.25h0l1.33-.25h0l1.33-.25h0l1.33-.25h0l1.33-.25h0l1.33-.25h0l1.33-.25h0l1.33-.25h0l1.33-.25h0l1.33-.24h0l1.33-.24h0l1.33-.24h0l1.33-.24h0l1.33-.24h0l1.33-.24h0l1.33-.24h0l1.33-.24h0l1.33-.24h0l1.33-.24h0l1.33-.24h0l1.33-.24h0l1.33-.24h0l1.33-.24h0l1.33-.24h0l1.33-.24h0l1.33-.24h0l1.33-.24h0l1.33-.24h0l1.33-.24h0l1.33-.24h0l1.33-.23h0l1.33-.23h0l1.33-.23h0l1.33-.23h0l1.33-.23h0l1.33-.23h0l1.33-.23h0l1.33-.23h0l1.33-.23h0l1.33-.23h0l1.33-.23h0l1.33-.23h0l1.33-.23h0l1.33-.23h0l1.33-.23h0l1.33-.23h0l1.33-.23h0l1.33-.23h0l1.33-.23h0l1.33-.23h0l1.33-.23h0l1.33-.23h0l1.33-.22h0l1.33-.22h0l1.33-.22h0l1.33-.22h0l1.33-.22h0l1.33-.22h0l1.33-.22h0l1.33-.22h0l1.33-.22h0l1.33-.22h0l1.33-.22h0l1.33-.22h0l1.33-.22h0l1.33-.22h0l1.33-.22h0l1.33-.22h0l1.33-.22h0l1.33-.22h0l1.33-.22h0l1.33-.22h0l1.33-.22h0l1.33-.22h0l1.33-.22h0l1.33-.22h0l1.33-.22h0l1.33-.21h0l1.33-.21h0l1.33-.21h0l1.33-.21h0l1.33-.21h0l1.33-.21h0l1.33-.21h0l1.33-.21h0l1.33-.21h0l1.33-.21h0l1.33-.21h0l1.33-.21h0l1.33-.21h0l1.33-.21h0l1.33-.21h0l1.33-.21h0l1.33-.21h0l1.33-.21h0l1.33-.21h0l1.33-.21h0l1.33-.21h0l1.33-.21h0l1.33-.21h0l1.33-.21h0l1.33-.21h0l1.33-.21h0l1.33-.2h0l1.33-.2h0l1.33-.2h0l1.33-.2h0l1.33-.2h0l1.33-.2h0l1.33-.2h0l1.33-.2h0l1.33-.2h0l1.33-.2h0l1.33-.2h0l1.33-.2h0l1.33-.2h0l1.33-.2h0l1.33-.2h0l1.33-.2h0l1.33-.2h0l1.33-.2h0l1.33-.2h0l1.33-.2h0l1.33-.2h0l1.33-.2h0l1.33-.2h0l1.33-.2h0l1.33-.2h0l1.33-.2h0l1.33-.2h0l1.33-.2h0l1.33-.2h0l1.33-.2h0l1.33-.19h0l1.33-.19h0l1.33-.19h0l1.33-.19h0l1.33-.19h0l1.33-.19h0l1.33-.19h0l1.33-.19h0l1.33-.19h0l1.33-.19h0l1.33-.19h0l1.33-.19h0l1.33-.19h0l1.33-.19h0l1.33-.19h0l1.33-.19h0l1.33-.19h0l1.33-.19h0l1.33-.19h0l1.33-.19h0l1.33-.19h0l1.33-.19h0l1.33-.19h0l1.33-.19h0l1.33-.19h0l1.33-.19h0l1.33-.19h0l1.33-.19h0l1.33-.19h0l1.33-.19h0l1.33-.19h0l1.33-.19h0l1.33-.19h0l1.33-.18h0l1.33-.18h0l1.33-.18h0l1.33-.18h0l1.33-.18h0l1.33-.18h0l1.33-.18h0l1.33-.18h0l1.33-.18h0l1.33-.18h0l1.33-.18h0l1.33-.18h0l1.33-.18h0l1.33-.18h0l1.33-.18h0l1.33-.18h0l1.33-.18h0l1.33-.18h0l1.33-.18h0l1.33-.18h0l1.33-.18h0l1.33-.18h0l1.33-.18h0l1.33-.18h0l1.33-.18h0l1.33-.18h0l1.33-.18h0l1.33-.18h0l1.33-.18h0l1.33-.18h0l1.33-.18h0l1.33-.18h0l1.33-.18h0l1.33-.18h0l1.33-.18h0l1.33-.18h0l1.33-.17h0l1.33-.17h0l1.33-.17h0l1.33-.17h0l1.33-.17h0l1.33-.17h0l1.33-.17h0l1.33-.17h0l1.33-.17h0l1.33-.17h0l1.33-.17h0l1.33-.17h0l1.33-.17h0l1.33-.17h0l1.33-.17h0l1.33-.17h0l1.33-.17h0l1.33-.17h0l1.33-.17h0l1.33-.17h0l1.33-.17h0l1.33-.17h0l1.33-.17h0l1.33-.17h0l1.33-.17h0l1.33-.17h0l1.33-.17h0l1.33-.17h0l1.33-.17h0l1.33-.17h0l1.33-.17h0l1.33-.17h0l1.33-.17h0l1.33-.17h0l1.33-.17h0l1.33-.17h0l1.33-.17h0l1.33-.17h0l1.33-.17h0l1.33-.17h0l1.33-.17h0l1.33-.16h0l1.33-.16h0l1.33-.16h0l1.33-.16h0l1.33-.16h0l1.33-.16h0l1.33-.16h0l1.33-.16h0l1.33-.16h0l1.33-.16h0l1.33-.16h0l1.33-.16h0l1.33-.16h0l1.33-.16h0l1.33-.16h0l1.33-.16h0l1.33-.16h0l1.33-.16h0l1.33-.16h0l1.33-.16h0l1.33-.16h0l1.33-.16h0l1.33-.16h0l1.33-.16h0l1.33-.16h0l1.33-.16h0l1.33-.16h0l1.33-.16h0l1.33-.16h0l1.33-.16h0l1.33-.16h0l1.33-.16h0l1.33-.16h0l1.33-.16h0l1.33-.16h0l1.33-.16h0l1.33-.16h0l1.33-.16h0l1.33-.16h0l1.33-.16h0l1.33-.16h0l1.33-.16h0l1.33-.16h0l1.33-.16h0l1.33-.16h0l1.33-.16h0l1.33-.16h0l1.33-.15h0l1.33-.15h0l1.33-.15h0l1.33-.15h0l1.33-.15h0l1.33-.15h0l1.33-.15h0l1.33-.15h0l1.33-.15h0l1.33-.15h0l1.33-.15h0l1.33-.15h0l1.33-.15h0l1.33-.15h0l1.33-.15h0l1.33-.15h0l1.33-.15h0l1.33-.15h0l1.33-.15h0l1.33-.15h0l1.33-.15h0l1.33-.15h0l1.33-.15h0l1.33-.15h0l1.33-.15h0l1.33-.15h0l1.33-.15h0l1.33-.15h0l1.33-.15h0l1.33-.15h0l1.33-.15h0l1.33-.15h0l1.33-.15h0l1.33-.15h0l1.33-.15h0l1.33-.15h0l1.33-.15h0l1.33-.15h0l1.33-.15h0l1.33-.15h0l1.33-.15h0l1.33-.15h0l1.33-.15h0l1.33-.15h0l1.33-.15h0l1.33-.15h0l1.33-.15h0l1.33-.15h0l1.33-.15h0l1.33-.15h0l1.33-.15h0l1.33-.15h0l1.33-.14h0l1.33-.14h0l1.33-.14h0l1.33-.14h0l1.33-.14h0l1.33-.14h0l1.33-.14h0l1.33-.14h0l1.33-.14h0l1.33-.14h0l1.33-.14h0l1.33-.14h0l1.33-.14h0l1.33-.14h0l1.33-.14h0l1.33-.14h0l1.33-.14h0l1.33-.14h0l1.33-.14h0l1.33-.14h0l1.33-.14h0l1.33-.14h0l1.33-.14h0l1.33-.14h0l1.33-.14h0l1.33-.14h0l1.33-.14h0l1.33-.14h0l1.33-.14h0l1.33-.14h0l1.33-.14h0l1.33-.14h0l1.33-.14h0l1.33-.14h0l1.33-.14h0l1.33-.14h0l1.33-.14h0l1.33-.14h0l1.33-.14h0l1.33-.14h0l1.33-.14h0l1.33-.14h0l1.33-.14h0l1.33-.14h0l1.33-.14h0l1.33-.14h0l1.33-.14h0l1.33-.14h0l1.33-.14h0l1.33-.14h0l1.33-.14h0l1.33-.14h0l1.33-.14h0l1.33-.14h0l1.33-.14h0l1.33-.14h0l1.33-.14h0l1.33-.14h0l1.33-.14h0l1.33-.14h0l1.33-.14h0l1.33-.13h0l1.33-.13h0l1.33-.13h0l1.33-.13h0l1.33-.13h0l1.33-.13h0l1.33-.13h0l1.33-.13h0l1.33-.13h0l1.33-.13h0l1.33-.13h0l1.33-.13h0l1.33-.13h0l1.33-.13h0l1.33-.13h0l1.33-.13h0l1.33-.13h0l1.33-.13h0l1.33-.13h0l1.33-.13h0l1.33-.13h0l1.33-.13h0l1.33-.13h0l1.33-.13h0l1.33-.13h0l1.33-.13h0l1.33-.13h0l1.33-.13h0l1.33-.13h0l1.33-.13h0l1.33-.13h0l1.33-.13h0l1.33-.13h0l1.33-.13h0l1.33-.13h0l1.33-.13h0l1.33-.13h0l1.33-.13h0l1.33-.13h0l1.33-.13h0l1.33-.13h0l1.33-.13h0l1.33-.13h0l1.33-.13h0l1.33-.13h0l1.33-.13h0l1.33-.13h0l1.33-.13h0l1.33-.13h0l1.33-.13h0l1.33-.13h0l1.33-.13h0l1.33-.13h0l1.33-.13h0l1.33-.13h0l1.33-.13h0l1.33-.13h0l1.33-.13h0l1.33-.13h0l1.33-.13h0l1.33-.13h0l1.33-.13h0l1.33-.13h0l1.33-.13h0l1.33-.13h0l1.33-.13h0l1.33-.13h0l1.33-.13h0l1.33-.13h0l1.33-.13h0l1.33-.12h0l1.33-.12h0l1.33-.12h0l1.33-.12h0l1.33-.12h0l1.33-.12h0l1.33-.12h0l1.33-.12h0l1.33-.12h0l1.33-.12h0l1.33-.12h0l1.33-.12h0l1.33-.12h0l1.33-.12h0l1.33-.12h0l1.33-.12h0l1.33-.12h0l1.33-.12h0l1.33-.12h0l1.33-.12h0l1.33-.12h0l1.33-.12h0l1.33-.12h0l1.33-.12h0l1.33-.12h0l1.33-.12h0l1.33-.12h0l1.33-.12h0l1.33-.12h0l1.33-.12h0l1.33-.12h0l1.33-.12h0l1.33-.12h0l1.33-.12h0l1.33-.12h0l1.33-.12h0l1.33-.12h0l1.33-.12h0l1.33-.12h0l1.33-.12h0l1.33-.12h0l1.33-.12h0l1.33-.12h0l1.33-.12h0l1.33-.12h0l1.33-.12h0l1.33-.12h0l1.33-.12h0l1.33-.12h0l1.33-.12h0l1.33-.12h0l1.33-.12h0l1.33-.12h0l1.33-.12h0l1.33-.12h0l1.33-.12h0l1.33-.12h0l1.33-.12h0l1.33-.12h0l1.33-.12h0l1.33-.12h0l1.33-.12h0l1.33-.12h0l1.33-.12h0l1.33-.12h0l1.33-.12h0l1.33-.12h0l1.33-.12h0l1.33-.12h0l1.33-.12h0l1.33-.12h0l1.33-.12h0l1.33-.12h0l1.33-.12h0l1.33-.12h0l1.33-.12h0l1.33-.12h0l1.33-.12h0l1.33-.12h0l1.33-.12h0l1.33-.12h0l1.33-.12h0l1.33-.11h0l1.33-.11h0l1.33-.11h0l1.33-.11h0l1.33-.11h0l1.33-.11h0l1.33-.11h0l1.33-.11h0l1.33-.11h0l1.33-.11h0l1.33-.11h0l1.33-.11h0l1.33-.11h0l1.33-.11h0l1.33-.11h0l1.33-.11h0l1.33-.11h0l1.33-.11h0l1.33-.11h0l1.33-.11h0l1.33-.11h0l1.33-.11h0l1.33-.11h0l1.33-.11h0l1.33-.11h0l1.33-.11h0l1.33-.11h0l1.33-.11h0l1.33-.11h0l1.33-.11h0l1.33-.11h0l1.33-.11h0l1.33-.11h0l1.33-.11h0l1.33-.11h0l1.33-.11h0l1.33-.11h0l1.33-.11h0l1.33-.11h0l1.33-.11h0l1.33-.11h0l1.33-.11h0l1.33-.11h0l1.33-.11h0l1.33-.11h0l1.33-.11h0l1.33-.11h0l1.33-.11h0l1.33-.11h0l1.33-.11h0l1.33-.11h0l1.33-.11h0l1.33-.11h0l1.33-.11h0l1.33-.11h0l1.33-.11h0l1.33-.11h0l1.33-.11h0l1.33-.11h0l1.33-.11h0l1.33-.11h0l1.33-.11h0l1.33-.11h0l1.33-.11h0l1.33-.11h0l1.33-.11h0l1.33-.11h0l1.33-.11h0l1.33-.11h0l1.33-.11h0l1.33-.11h0l1.33-.11h0l1.33-.11h0l1.33-.11h0l1.33-.11h0l1.33-.11h0l1.33-.11h0l1.33-.11h0l1.33-.11h0l1.33-.11h0l1.33-.11h0l1.33-.11h0l1.33-.11h0l1.33-.11h0l1.33-.11h0l1.33-.11h0l1.33-.11h0l1.33-.11h0l1.33-.11h0l1.33-.11h0l1.33-.11h0l1.33-.11h0l1.33-.11h0l1.33-.11h0l1.33-.11h0l1.33-.11h0l1.33-.11h0l1.33-.11h0l1.33-.1h0l1.33-.1h0l1.33-.1h0l1.33-.1h0l1.33-.1h0l1.33-.1h0l1.33-.1h0l1.33-.1h0l1.33-.1h0l1.33-.1h0l1.33-.1h0l1.33-.1h0l1.33-.1h0l1.33-.1h0l1.33-.1h0l1.33-.1h0l1.33-.1h0l1.33-.1h0l1.33-.1h0l1.33-.1h0l1.33-.1h0l1.33-.1h0l1.33-.1h0l1.33-.1h0l1.33-.1h0l1.33-.1h0l1.33-.1h0l1.33-.1h0l1.33-.1h0l1.33-.1h0l1.33-.1h0l1.33-.1h0l1.33-.1h0l1.33-.1h0l1.33-.1h0l1.33-.1h0l1.33-.1h0l1.33-.1h0l1.33-.1h0l1.33-.1h0l1.33-.1h0l1.33-.1h0l1.33-.1h0l1.33-.1h0l1.33-.1h0l1.33-.1h0l1.33-.1h0l1.33-.1h0l1.33-.1h0l1.33-.1h0l1.33-.1h0l1.33-.1h0l1.33-.1h0l1.33-.1h0l1.33-.1h0l1.33-.1h0l1.33-.1h0l1.33-.1h0l1.33-.1h0l1.33-.1h0l1.33-.1h0l1.33-.1h0l1.33-.1h0l1.33-.1h0l1.33-.1h0l1.33-.1h0l1.33-.1h0l1.33-.1h0l1.33-.1h0l1.33-.1h0l1.33-.1h0l1.33-.1h0l1.33-.1h0l1.33-.1h0l1.33-.1h0l1.33-.1h0l1.33-.1h0l1.33-.1h0l1.33-.1h0l1.33-.1h0l1.33-.1h0l1.33-.1h0l1.33-.1h0l1.33-.1h0l1.33-.1h0l1.33-.1h0l1.33-.1h0l1.33-.1h0l1.33-.1h0l1.33-.1h0l1.33-.1h0l1.33-.1h0l1.33-.1h0l1.33-.1h0l1.33-.1h0l1.33-.1h0l1.33-.1h0l1.33-.1h0l1.33-.1h0l1.33-.1h0l1.33-.1h0l1.33-.1h0l1.33-.1h0l1.33-.1h0l1.33-.1h0l1.33-.1h0l1.33-.1h0l1.33-.1h0l1.33-.1h0l1.33-.1h0l1.33-.1h0l1.33-.1h0l1.33-.1h0l1.33-.1h0l1.33-.1h0l1.33-.1h0l1.33-.1h0l1.33-.1h0l1.33-.09h0l1.33-.09h0l1.33-.09h0l1.33-.09h0l1.33-.09h0l1.33-.09h0l1.33-.09h0l1.33-.09h0l1.33-.09h0l1.33-.09h0l1.33-.09h0l1.33-.09h0l1.33-.09h0l1.33-.09h0l1.33-.09h0l1.33-.09h0l1.33-.09h0l1.33-.09h0l1.33-.09h0l1.33-.09h0l1.33-.09h0l1.33-.09h0l1.33-.09h0l1.33-.09h0l1.33-.09h0l1.33-.09h0l1.33-.09h0l1.33-.09h0l1.33-.09h0l1.33-.09h0l1.33-.09h0l1.33-.09h0l1.33-.09h0l1.33-.09h0l1.33-.09h0l1.33-.09h0l1.33-.09h0l1.33-.09h0l1.33-.09h0l1.33-.09h0l1.33-.09h0l1.33-.09h0l1.33-.09h0l1.33-.09h0l1.33-.09h0l1.33-.09h0l1.33-.09h0l1.33-.09h0l1.33-.09h0l1.33-.09h0l1.33-.09h0l1.33-.09h0l1.33-.09h0l1.33-.09h0l1.33-.09h0l1.33-.09h0l1.33-.09h0l1.33-.09h0l1.33-.09h0l1.33-.09h0l1.33-.09h0l1.33-.09h0l1.33-.09h0l1.33-.09h0l1.33-.09h0l1.33-.09h0l1.33-.09h0l1.33-.09h0l1.33-.09h0l1.33-.09h0l1.33-.09h0l1.33-.09h0l1.33-.09h0l1.33-.09h0l1.33-.09h0l1.33-.09h0l1.33-.09h0l1.33-.09h0l1.33-.09h0l1.33-.09h0l1.33-.09h0l1.33-.09h0l1.33-.09h0l1.33-.09h0l1.33-.09h0l1.33-.09h0l1.33-.09h0l1.33-.09h0l1.33-.09h0l1.33-.09h0l1.33-.09h0l1.33-.09h0l1.33-.09h0l1.33-.09h0l1.33-.09h0l1.33-.09h0l1.33-.09h0l1.33-.09h0l1.33-.09h0l1.33-.09h0l1.33-.09h0l1.33-.09h0l1.33-.09h0l1.33-.09h0l1.33-.09h0l1.33-.09"/>
        </g>
      </g>
    </g>
  </g>
  <g id="uuid-9b754d88-2238-477f-b583-416badf79657" data-name="Marco">
    <path class="uuid-f9b4ce42-9af1-4631-bc0a-825db01071fa" d="m-2-2V1022h1249V-2H-2Zm1232,987c0,11.05-8.95,20-20,20H35c-11.05,0-20-8.95-20-20V35c0-11.05,8.95-20,20-20h1175c11.05,0,20,8.95,20,20v950Z"/>
  </g>
  <g id="uuid-16a07695-1e30-4168-bdee-3b520772fe48" data-name="texto">
    <text class="uuid-09edb918-7fda-40e6-990d-1a41c4c93d19" transform="translate(397.9 297.48)"><tspan class="uuid-89b4cc16-66af-4b05-9fd2-be6314d5c634" x="0" y="0">y </tspan><tspan class="uuid-3aef0f0b-50f1-4c26-b27b-5f675954d544" x="27.21" y="0">= </tspan><tspan class="uuid-89b4cc16-66af-4b05-9fd2-be6314d5c634" x="65.9" y="0">lnx</tspan></text>
  </g>
</svg>