<?xml version="1.0" encoding="UTF-8"?>
<svg xmlns="http://www.w3.org/2000/svg" width="1245" height="1020" xmlns:xlink="http://www.w3.org/1999/xlink" viewBox="0 0 1245 1020">
  <defs>
    <style>
      .uuid-587d57d9-88af-43a4-9a7c-5afc1b29237f {
        clip-path: url(#uuid-4543da6d-0a12-4e73-b277-0507aaab1f04);
      }

      .uuid-587d57d9-88af-43a4-9a7c-5afc1b29237f, .uuid-f718f4c3-d72a-44c3-bb6b-428d7971c4d2, .uuid-1e3f4095-98d3-4336-8d85-085a58e24855, .uuid-1b303bb7-afb2-441c-8073-c489dda58e3e, .uuid-041c6021-af5e-4671-b195-1392bde48f9a, .uuid-ab6a1df0-544a-43a9-8a13-943c743a1391, .uuid-9130b827-5f0d-4da5-8b93-05753ee747ee, .uuid-d47cc325-e3a5-4884-b011-d6820daadfcb, .uuid-25f6c7b2-9a50-4753-897d-0d7fd0abae54, .uuid-bdd8c3ed-3458-450a-bafe-e75a56bc22bc {
        fill: none;
      }

      .uuid-668e2588-93db-455c-88c0-0627aa3c5dfe {
        fill: #fff;
      }

      .uuid-f718f4c3-d72a-44c3-bb6b-428d7971c4d2 {
        stroke: rgba(192, 192, 192, .24);
      }

      .uuid-f718f4c3-d72a-44c3-bb6b-428d7971c4d2, .uuid-1b303bb7-afb2-441c-8073-c489dda58e3e, .uuid-041c6021-af5e-4671-b195-1392bde48f9a, .uuid-d47cc325-e3a5-4884-b011-d6820daadfcb, .uuid-25f6c7b2-9a50-4753-897d-0d7fd0abae54 {
        stroke-linejoin: round;
      }

      .uuid-f718f4c3-d72a-44c3-bb6b-428d7971c4d2, .uuid-1b303bb7-afb2-441c-8073-c489dda58e3e, .uuid-d47cc325-e3a5-4884-b011-d6820daadfcb, .uuid-25f6c7b2-9a50-4753-897d-0d7fd0abae54 {
        stroke-width: 1.14px;
      }

      .uuid-f718f4c3-d72a-44c3-bb6b-428d7971c4d2, .uuid-d47cc325-e3a5-4884-b011-d6820daadfcb {
        stroke-dasharray: 0 0 1.14 3.43;
      }

      .uuid-26571546-e49f-45a8-840b-53bda0ed0eb3 {
        fill: #333;
      }

      .uuid-1e3f4095-98d3-4336-8d85-085a58e24855 {
        stroke: #606060;
        stroke-miterlimit: 10;
        stroke-width: 2.29px;
      }

      .uuid-1b303bb7-afb2-441c-8073-c489dda58e3e {
        stroke: rgba(204, 0, 0, .7);
      }

      .uuid-1b303bb7-afb2-441c-8073-c489dda58e3e, .uuid-25f6c7b2-9a50-4753-897d-0d7fd0abae54 {
        stroke-dasharray: 0 0 10.3 9.15;
      }

      .uuid-d2daf70b-7696-4899-9bf8-9bf49c740dab, .uuid-bdd8c3ed-3458-450a-bafe-e75a56bc22bc {
        font-family: HelveticaNeue-UltraLight, 'Helvetica Neue UltraLight';
        font-size: 13.73px;
        font-weight: 100;
        isolation: isolate;
      }

      .uuid-d2daf70b-7696-4899-9bf8-9bf49c740dab, .uuid-2ccee57f-f9ae-4ab6-bbca-89f8f58d6fdc {
        fill: #606060;
      }

      .uuid-e3840394-331b-40a2-adec-fa4669d036af {
        fill: #00699b;
      }

      .uuid-041c6021-af5e-4671-b195-1392bde48f9a {
        stroke: rgba(0, 153, 255, .7);
        stroke-linecap: round;
        stroke-width: 4.58px;
      }

      .uuid-ab6a1df0-544a-43a9-8a13-943c743a1391 {
        clip-path: url(#uuid-9a341b8e-ef9f-4e2e-9713-1cd700ed050d);
      }

      .uuid-d47cc325-e3a5-4884-b011-d6820daadfcb {
        stroke: silver;
      }

      .uuid-25f6c7b2-9a50-4753-897d-0d7fd0abae54 {
        stroke: rgba(0, 100, 0, .7);
      }

      .uuid-bdd8c3ed-3458-450a-bafe-e75a56bc22bc {
        stroke: #fff;
        stroke-linejoin: bevel;
        stroke-width: 3.43px;
      }

      .uuid-2ccee57f-f9ae-4ab6-bbca-89f8f58d6fdc {
        fill-rule: evenodd;
      }
    </style>
    <clipPath id="uuid-4543da6d-0a12-4e73-b277-0507aaab1f04">
      <rect class="uuid-9130b827-5f0d-4da5-8b93-05753ee747ee" x="0" y="2.61" width="1245" height="1019.39"/>
    </clipPath>
    <clipPath id="uuid-9a341b8e-ef9f-4e2e-9713-1cd700ed050d">
      <rect class="uuid-9130b827-5f0d-4da5-8b93-05753ee747ee" x="-218.61" y="-10.97" width="1682.22" height="1037.94"/>
    </clipPath>
  </defs>
  <g id="uuid-b22dd4bd-ae3d-4303-ae67-f6fed6e434f3" data-name="Grafica">
    <g class="uuid-587d57d9-88af-43a4-9a7c-5afc1b29237f">
      <g class="uuid-ab6a1df0-544a-43a9-8a13-943c743a1391">
        <g>
          <rect class="uuid-668e2588-93db-455c-88c0-0627aa3c5dfe" x="-218.61" y="-10.97" width="1682.22" height="1037.94"/>
          <path class="uuid-d47cc325-e3a5-4884-b011-d6820daadfcb" d="m-202.02-10.4v1037.94m0-1037.94v1037.94M-85.29-10.4v1037.94M32.58-10.4v1037.94M150.45-10.4v1037.94M268.32-10.4v1037.94M386.19-10.4v1037.94M504.06-10.4v1037.94M739.8-10.4v1037.94M857.67-10.4v1037.94M975.54-10.4v1037.94M1093.41-10.4v1037.94M1211.28-10.4v1037.94M1328-10.4v1037.94M1445.87-10.4v1037.94"/>
          <path class="uuid-f718f4c3-d72a-44c3-bb6b-428d7971c4d2" d="m-179.13-10.4v1037.94M-155.1-10.4v1037.94M-132.21-10.4v1037.94M-108.18-10.4v1037.94M-61.26-10.4v1037.94M-37.23-10.4v1037.94M-14.34-10.4v1037.94M9.69-10.4v1037.94M56.61-10.4v1037.94M80.64-10.4v1037.94M103.53-10.4v1037.94M127.56-10.4v1037.94M174.48-10.4v1037.94M197.37-10.4v1037.94M221.4-10.4v1037.94M245.43-10.4v1037.94M292.35-10.4v1037.94M315.24-10.4v1037.94M339.27-10.4v1037.94M363.3-10.4v1037.94M410.22-10.4v1037.94M433.11-10.4v1037.94M457.14-10.4v1037.94M480.03-10.4v1037.94M528.09-10.4v1037.94M550.98-10.4v1037.94M575.01-10.4v1037.94M597.9-10.4v1037.94M645.96-10.4v1037.94M668.85-10.4v1037.94M692.88-10.4v1037.94M715.77-10.4v1037.94M762.68-10.4v1037.94M786.72-10.4v1037.94M810.75-10.4v1037.94M833.64-10.4v1037.94M880.55-10.4v1037.94M904.59-10.4v1037.94M928.62-10.4v1037.94M951.51-10.4v1037.94M998.42-10.4v1037.94M1022.46-10.4v1037.94M1045.34-10.4v1037.94M1069.38-10.4v1037.94M1116.29-10.4v1037.94M1140.33-10.4v1037.94M1163.21-10.4v1037.94M1187.24-10.4v1037.94M1234.16-10.4v1037.94M1258.2-10.4v1037.94M1281.08-10.4v1037.94M1305.11-10.4v1037.94M1352.03-10.4v1037.94M1376.07-10.4v1037.94M1398.95-10.4v1037.94M1422.98-10.4v1037.94"/>
          <path class="uuid-d47cc325-e3a5-4884-b011-d6820daadfcb" d="m-218.04,37.67h1682.22m-1682.22,0h1682.22M-218.04,155.54h1682.22M-218.04,272.26h1682.22M-218.04,390.13h1682.22M-218.04,625.87h1682.22m-1682.22,117.87h1682.22m-1682.22,117.87h1682.22m-1682.22,117.87h1682.22"/>
          <path class="uuid-f718f4c3-d72a-44c3-bb6b-428d7971c4d2" d="m-218.04-10.4h1682.22m-1682.22,0h1682.22M-218.04,13.63h1682.22M-218.04,60.55h1682.22M-218.04,84.58h1682.22M-218.04,107.47h1682.22m-1682.22,24.03h1682.22M-218.04,178.42h1682.22m-1682.22,24.03h1682.22m-1682.22,22.89h1682.22m-1682.22,24.03h1682.22m-1682.22,46.92h1682.22m-1682.22,24.03h1682.22m-1682.22,22.89h1682.22m-1682.22,24.03h1682.22m-1682.22,46.92h1682.22m-1682.22,24.03h1682.22m-1682.22,22.89h1682.22m-1682.22,24.03h1682.22m-1682.22,46.92h1682.22m-1682.22,22.89h1682.22m-1682.22,24.03h1682.22m-1682.22,24.03h1682.22m-1682.22,46.92h1682.22m-1682.22,22.89h1682.22m-1682.22,24.03h1682.22m-1682.22,24.03h1682.22m-1682.22,46.92h1682.22m-1682.22,22.89h1682.22m-1682.22,24.03h1682.22m-1682.22,22.89h1682.22m-1682.22,48.06h1682.22m-1682.22,22.89h1682.22m-1682.22,24.03h1682.22m-1682.22,22.89h1682.22m-1682.22,48.06h1682.22m-1682.22,22.89h1682.22"/>
          <path class="uuid-1e3f4095-98d3-4336-8d85-085a58e24855" d="m621.36-7.54v1034.51"/>
          <path class="uuid-2ccee57f-f9ae-4ab6-bbca-89f8f58d6fdc" d="m621.86-8.68l-5.72,22.89h11.44"/>
          <path class="uuid-1e3f4095-98d3-4336-8d85-085a58e24855" d="m-218.61,508.57h1678.79"/>
          <text class="uuid-d2daf70b-7696-4899-9bf8-9bf49c740dab" transform="translate(25.14 525.74)"><tspan x="0" y="0">–5</tspan></text>
          <text class="uuid-bdd8c3ed-3458-450a-bafe-e75a56bc22bc" transform="translate(25.14 525.74)"><tspan x="0" y="0">–5</tspan></text>
          <text class="uuid-d2daf70b-7696-4899-9bf8-9bf49c740dab" transform="translate(25.14 525.74)"><tspan x="0" y="0">–5</tspan></text>
          <text class="uuid-d2daf70b-7696-4899-9bf8-9bf49c740dab" transform="translate(143.01 525.74)"><tspan x="0" y="0">–4</tspan></text>
          <text class="uuid-bdd8c3ed-3458-450a-bafe-e75a56bc22bc" transform="translate(143.01 525.74)"><tspan x="0" y="0">–4</tspan></text>
          <text class="uuid-d2daf70b-7696-4899-9bf8-9bf49c740dab" transform="translate(143.01 525.74)"><tspan x="0" y="0">–4</tspan></text>
          <text class="uuid-d2daf70b-7696-4899-9bf8-9bf49c740dab" transform="translate(260.88 525.74)"><tspan x="0" y="0">–3</tspan></text>
          <text class="uuid-bdd8c3ed-3458-450a-bafe-e75a56bc22bc" transform="translate(260.88 525.74)"><tspan x="0" y="0">–3</tspan></text>
          <text class="uuid-d2daf70b-7696-4899-9bf8-9bf49c740dab" transform="translate(260.88 525.74)"><tspan x="0" y="0">–3</tspan></text>
          <text class="uuid-d2daf70b-7696-4899-9bf8-9bf49c740dab" transform="translate(378.75 525.74)"><tspan x="0" y="0">–2</tspan></text>
          <text class="uuid-bdd8c3ed-3458-450a-bafe-e75a56bc22bc" transform="translate(378.75 525.74)"><tspan x="0" y="0">–2</tspan></text>
          <text class="uuid-d2daf70b-7696-4899-9bf8-9bf49c740dab" transform="translate(378.75 525.74)"><tspan x="0" y="0">–2</tspan></text>
          <text class="uuid-d2daf70b-7696-4899-9bf8-9bf49c740dab" transform="translate(496.62 525.74)"><tspan x="0" y="0">–1</tspan></text>
          <text class="uuid-bdd8c3ed-3458-450a-bafe-e75a56bc22bc" transform="translate(496.62 525.74)"><tspan x="0" y="0">–1</tspan></text>
          <text class="uuid-d2daf70b-7696-4899-9bf8-9bf49c740dab" transform="translate(496.62 525.74)"><tspan x="0" y="0">–1</tspan></text>
          <text class="uuid-d2daf70b-7696-4899-9bf8-9bf49c740dab" transform="translate(735.79 525.74)"><tspan x="0" y="0">1</tspan></text>
          <text class="uuid-bdd8c3ed-3458-450a-bafe-e75a56bc22bc" transform="translate(735.79 525.74)"><tspan x="0" y="0">1</tspan></text>
          <text class="uuid-d2daf70b-7696-4899-9bf8-9bf49c740dab" transform="translate(735.79 525.74)"><tspan x="0" y="0">1</tspan></text>
          <text class="uuid-d2daf70b-7696-4899-9bf8-9bf49c740dab" transform="translate(853.66 525.74)"><tspan x="0" y="0">2</tspan></text>
          <text class="uuid-bdd8c3ed-3458-450a-bafe-e75a56bc22bc" transform="translate(853.66 525.74)"><tspan x="0" y="0">2</tspan></text>
          <text class="uuid-d2daf70b-7696-4899-9bf8-9bf49c740dab" transform="translate(853.66 525.74)"><tspan x="0" y="0">2</tspan></text>
          <text class="uuid-d2daf70b-7696-4899-9bf8-9bf49c740dab" transform="translate(971.53 525.74)"><tspan x="0" y="0">3</tspan></text>
          <text class="uuid-bdd8c3ed-3458-450a-bafe-e75a56bc22bc" transform="translate(971.53 525.74)"><tspan x="0" y="0">3</tspan></text>
          <text class="uuid-d2daf70b-7696-4899-9bf8-9bf49c740dab" transform="translate(971.53 525.74)"><tspan x="0" y="0">3</tspan></text>
          <text class="uuid-d2daf70b-7696-4899-9bf8-9bf49c740dab" transform="translate(1089.4 525.74)"><tspan x="0" y="0">4</tspan></text>
          <text class="uuid-bdd8c3ed-3458-450a-bafe-e75a56bc22bc" transform="translate(1089.4 525.74)"><tspan x="0" y="0">4</tspan></text>
          <text class="uuid-d2daf70b-7696-4899-9bf8-9bf49c740dab" transform="translate(1089.4 525.74)"><tspan x="0" y="0">4</tspan></text>
          <text class="uuid-d2daf70b-7696-4899-9bf8-9bf49c740dab" transform="translate(1207.27 525.74)"><tspan x="0" y="0">5</tspan></text>
          <text class="uuid-bdd8c3ed-3458-450a-bafe-e75a56bc22bc" transform="translate(1207.27 525.74)"><tspan x="0" y="0">5</tspan></text>
          <text class="uuid-d2daf70b-7696-4899-9bf8-9bf49c740dab" transform="translate(1207.27 525.74)"><tspan x="0" y="0">5</tspan></text>
          <text class="uuid-d2daf70b-7696-4899-9bf8-9bf49c740dab" transform="translate(598.47 984.63)"><tspan x="0" y="0">–4</tspan></text>
          <text class="uuid-bdd8c3ed-3458-450a-bafe-e75a56bc22bc" transform="translate(598.47 984.63)"><tspan x="0" y="0">–4</tspan></text>
          <text class="uuid-d2daf70b-7696-4899-9bf8-9bf49c740dab" transform="translate(598.47 984.63)"><tspan x="0" y="0">–4</tspan></text>
          <text class="uuid-d2daf70b-7696-4899-9bf8-9bf49c740dab" transform="translate(598.47 866.76)"><tspan x="0" y="0">–3</tspan></text>
          <text class="uuid-bdd8c3ed-3458-450a-bafe-e75a56bc22bc" transform="translate(598.47 866.76)"><tspan x="0" y="0">–3</tspan></text>
          <text class="uuid-d2daf70b-7696-4899-9bf8-9bf49c740dab" transform="translate(598.47 866.76)"><tspan x="0" y="0">–3</tspan></text>
          <text class="uuid-d2daf70b-7696-4899-9bf8-9bf49c740dab" transform="translate(598.47 748.89)"><tspan x="0" y="0">–2</tspan></text>
          <text class="uuid-bdd8c3ed-3458-450a-bafe-e75a56bc22bc" transform="translate(598.47 748.89)"><tspan x="0" y="0">–2</tspan></text>
          <text class="uuid-d2daf70b-7696-4899-9bf8-9bf49c740dab" transform="translate(598.47 748.89)"><tspan x="0" y="0">–2</tspan></text>
          <text class="uuid-d2daf70b-7696-4899-9bf8-9bf49c740dab" transform="translate(598.47 631.02)"><tspan x="0" y="0">–1</tspan></text>
          <text class="uuid-bdd8c3ed-3458-450a-bafe-e75a56bc22bc" transform="translate(598.47 631.02)"><tspan x="0" y="0">–1</tspan></text>
          <text class="uuid-d2daf70b-7696-4899-9bf8-9bf49c740dab" transform="translate(598.47 631.02)"><tspan x="0" y="0">–1</tspan></text>
          <text class="uuid-d2daf70b-7696-4899-9bf8-9bf49c740dab" transform="translate(605.33 395.28)"><tspan x="0" y="0">1</tspan></text>
          <text class="uuid-bdd8c3ed-3458-450a-bafe-e75a56bc22bc" transform="translate(605.33 395.28)"><tspan x="0" y="0">1</tspan></text>
          <text class="uuid-d2daf70b-7696-4899-9bf8-9bf49c740dab" transform="translate(605.33 395.28)"><tspan x="0" y="0">1</tspan></text>
          <text class="uuid-d2daf70b-7696-4899-9bf8-9bf49c740dab" transform="translate(605.33 277.41)"><tspan x="0" y="0">2</tspan></text>
          <text class="uuid-bdd8c3ed-3458-450a-bafe-e75a56bc22bc" transform="translate(605.33 277.41)"><tspan x="0" y="0">2</tspan></text>
          <text class="uuid-d2daf70b-7696-4899-9bf8-9bf49c740dab" transform="translate(605.33 277.41)"><tspan x="0" y="0">2</tspan></text>
          <text class="uuid-d2daf70b-7696-4899-9bf8-9bf49c740dab" transform="translate(605.33 160.68)"><tspan x="0" y="0">3</tspan></text>
          <text class="uuid-bdd8c3ed-3458-450a-bafe-e75a56bc22bc" transform="translate(605.33 160.68)"><tspan x="0" y="0">3</tspan></text>
          <text class="uuid-d2daf70b-7696-4899-9bf8-9bf49c740dab" transform="translate(605.33 160.68)"><tspan x="0" y="0">3</tspan></text>
          <text class="uuid-d2daf70b-7696-4899-9bf8-9bf49c740dab" transform="translate(605.33 42.82)"><tspan x="0" y="0">4</tspan></text>
          <text class="uuid-bdd8c3ed-3458-450a-bafe-e75a56bc22bc" transform="translate(605.33 42.82)"><tspan x="0" y="0">4</tspan></text>
          <text class="uuid-d2daf70b-7696-4899-9bf8-9bf49c740dab" transform="translate(605.33 42.82)"><tspan x="0" y="0">4</tspan></text>
          <text class="uuid-d2daf70b-7696-4899-9bf8-9bf49c740dab" transform="translate(605.33 525.74)"><tspan x="0" y="0">0</tspan></text>
          <text class="uuid-bdd8c3ed-3458-450a-bafe-e75a56bc22bc" transform="translate(605.33 525.74)"><tspan x="0" y="0">0</tspan></text>
          <text class="uuid-d2daf70b-7696-4899-9bf8-9bf49c740dab" transform="translate(605.33 525.74)"><tspan x="0" y="0">0</tspan></text>
          <path class="uuid-041c6021-af5e-4671-b195-1392bde48f9a" d="m-218.61,626.1h26.28s6.57,0,6.57,0h6.57s6.57,0,6.57,0h6.57s6.57,0,6.57,0h6.57s6.57,0,6.57,0h6.57s6.57,0,6.57,0h6.57s6.57,0,6.57,0h6.57s6.57,0,6.57,0h6.57s6.57,0,6.57,0h6.57s6.57,0,6.57,0h6.57s6.57,0,6.57,0h6.57s6.57,0,6.57,0h6.57s6.57,0,6.57,0h6.57s6.57,0,6.57,0h6.57s6.57,0,6.57,0h6.57s6.57,0,6.57,0h6.57s6.57,0,6.57,0h6.57s6.57,0,6.57,0h6.57s6.57,0,6.57,0h6.57s6.57,0,6.57,0h6.57s6.57,0,6.57,0h6.57s6.57,0,6.57,0h6.57s6.57,0,6.57,0h6.57s6.57,0,6.57,0h6.57s6.57,0,6.57,0h6.57s6.57.01,6.57.01h6.57s6.57.01,6.57.01h6.57s6.57.02,6.57.02h6.57s6.57.02,6.57.02h6.57s6.57.03,6.57.03l6.57.02,6.57.02,6.57.02,6.57.02,6.57.02,6.57.03,6.57.03,6.57.03,6.57.04,6.57.04,6.57.05,6.57.05,6.57.06,6.57.07,6.57.08,6.57.09,6.57.1,6.57.11,6.57.12,6.57.13,6.57.15,6.57.17,6.57.19,6.57.21,6.57.24,6.57.26,6.57.3,6.57.33,6.57.37,6.57.42,6.57.47,6.57.53,6.57.59,6.57.66,6.57.75,6.57.84,6.57.95,6.57,1.07,6.57,1.2,6.57,1.36,6.57,1.54,6.57,1.74,6.57,1.98,6.57,2.25,6.57,2.56,6.57,2.93,6.57,3.35,6.57,3.85,6.57,4.44,6.57,5.14,6.57,5.99,6.57,7.01,6.57,8.25,6.57,9.8,3.29,5.6,3.29,6.15,3.29,6.77,3.29,7.47,3.29,8.28,3.29,9.22,3.29,10.3,1.64,5.61,1.64,5.96,1.64,6.33,1.64,6.73,1.64,7.18,1.64,7.66,1.64,8.2,1.64,8.79,1.64,9.44,1.64,10.16,1.64,10.96.82,5.81.82,6.05.82,6.3.82,6.56.82,6.85.82,7.15.82,7.47.82,7.81.82,8.17.82,8.57.82,8.98.82,9.43.82,9.91.82,10.43.82,10.99.41,5.72.41,5.88.41,6.04.41,6.21.41,6.39.41,6.57.41,6.77.41,6.97.41,7.18.41,7.4.41,7.63M648.37-23.73l.41,7.85.41,7.61.41,7.38.41,7.16.41,6.95.41,6.75.41,6.56.41,6.37.41,6.19.41,6.02.41,5.86.82,11.26.82,10.68.82,10.14.82,9.65.82,9.18.82,8.75.82,8.35.82,7.97.82,7.62.82,7.29.82,6.98.82,6.69.82,6.41.82,6.16.82,5.91,1.64,11.15,1.64,10.33,1.64,9.59,1.64,8.93,1.64,8.33,1.64,7.78,1.64,7.28,1.64,6.83,1.64,6.42,1.64,6.04,3.29,11.05,3.29,9.86,3.29,8.84,3.29,7.96,3.29,7.19,3.29,6.52,6.57,11.33,6.57,9.47,6.57,7.99,6.57,6.79,6.57,5.81,6.57,5,6.57,4.32,6.57,3.75,6.57,3.26,6.57,2.85,6.57,2.5,6.57,2.19,6.57,1.93,6.57,1.7,6.57,1.5,6.57,1.33,6.57,1.18,6.57,1.04,6.57.93,6.57.82,6.57.73,6.57.65,6.57.58,6.57.51,6.57.46,6.57.41,6.57.36,6.57.32,6.57.29,6.57.26,6.57.23,6.57.21,6.57.18,6.57.16,6.57.15,6.57.13,6.57.12,6.57.1,6.57.09,6.57.08,6.57.07,6.57.07,6.57.06,6.57.05,6.57.05,6.57.04,6.57.04,6.57.03,6.57.03,6.57.03,6.57.02,6.57.02,6.57.02,6.57.02,6.57.02h6.57s6.57.03,6.57.03h6.57s6.57.02,6.57.02h6.57s6.57.02,6.57.02h6.57s6.57.01,6.57.01h6.57s6.57.01,6.57.01h6.57s6.57,0,6.57,0h6.57s6.57,0,6.57,0h6.57s6.57,0,6.57,0h6.57s6.57,0,6.57,0h6.57s6.57,0,6.57,0h6.57s6.57,0,6.57,0h6.57s6.57,0,6.57,0h6.57s6.57,0,6.57,0h6.57s6.57,0,6.57,0h6.57s6.57,0,6.57,0h6.57s6.57,0,6.57,0h6.57s6.57,0,6.57,0h6.57s6.57,0,6.57,0h6.57s6.57,0,6.57,0h6.57s6.57,0,6.57,0h6.57s6.57,0,6.57,0h6.57s6.57,0,6.57,0h6.57s6.57,0,6.57,0h6.57s6.57,0,6.57,0h6.57s6.57,0,6.57,0h6.57s6.57,0,6.57,0h6.57s6.57,0,6.57,0h6.57s6.57,0,6.57,0h6.57s6.57,0,6.57,0h6.57s6.57,0,6.57,0h6.57"/>
          <path class="uuid-1b303bb7-afb2-441c-8073-c489dda58e3e" d="m-224.33,390.55h1693.66"/>
          <path class="uuid-25f6c7b2-9a50-4753-897d-0d7fd0abae54" d="m-224.33,626.1h1693.66"/>
        </g>
      </g>
    </g>
  </g>
  <g id="uuid-ca16968c-7f62-4268-8923-a60578a68fa1" data-name="Marco">
    <path class="uuid-e3840394-331b-40a2-adec-fa4669d036af" d="m-2-2V1022h1249V-2H-2Zm1232,987c0,11.05-8.95,20-20,20H35c-11.05,0-20-8.95-20-20V35c0-11.05,8.95-20,20-20h1175c11.05,0,20,8.95,20,20v950Z"/>
  </g>
  <g id="uuid-bcbe9613-8e52-46ad-ac00-62b36ccc0808" data-name="texto">
    <g>
      <path class="uuid-26571546-e49f-45a8-840b-53bda0ed0eb3" d="m303.78,228.28c-.13-.99-.25-1.68-.37-2.06s-.31-.68-.57-.88c-.26-.2-.68-.32-1.27-.36l.21-.96h5.02l1.48,15.53c4.4-6.02,6.6-10.33,6.6-12.93,0-.61-.13-1.03-.39-1.25-.26-.22-.7-.35-1.33-.39l.2-.96h5.04l.53.98c-.69,1.81-1.57,3.68-2.65,5.62s-2.39,4.06-3.95,6.37c-1.56,2.3-3.28,4.7-5.19,7.19-1.46,1.91-2.68,3.36-3.67,4.34-.77.74-1.47,1.31-2.12,1.69s-1.27.66-1.88.82-1.25.24-1.92.24c-.35,0-.75-.04-1.19-.11-.44-.07-.82-.17-1.13-.28l.84-3.65h1.52c.01.44.12.79.31,1.05s.48.39.86.39c.42,0,.77-.04,1.07-.13.3-.08.62-.22.95-.42s.74-.51,1.21-.94c.48-.43,1.01-1,1.61-1.71.6-.71,1.27-1.57,2.01-2.57l-1.86-14.63Z"/>
      <path class="uuid-26571546-e49f-45a8-840b-53bda0ed0eb3" d="m330.28,228.52v-2.6h24.06v2.6h-24.06Zm0,8.11v-2.6h24.06v2.6h-24.06Z"/>
      <path class="uuid-26571546-e49f-45a8-840b-53bda0ed0eb3" d="m380.42,228.71c-.03-.99-.11-1.71-.24-2.15s-.36-.77-.66-1c-.31-.22-.74-.33-1.3-.33-1.32,0-2.5.52-3.54,1.57-1.05,1.05-1.9,2.53-2.57,4.45s-1,3.77-1,5.54c0,.55.05,1.06.15,1.54s.27.9.51,1.25c.24.35.56.63.96.83.4.2.9.3,1.51.3,1.18,0,2.21-.22,3.08-.67.87-.45,1.78-1.16,2.74-2.12l1.19,1.19c-1.22,1.35-2.46,2.34-3.7,2.97-1.24.62-2.58.94-4.01.94-1.89,0-3.32-.56-4.3-1.68s-1.46-2.75-1.46-4.88c0-1.39.26-2.92.78-4.59.52-1.67,1.28-3.13,2.29-4.39,1-1.26,2.17-2.21,3.52-2.83,1.34-.62,2.77-.94,4.3-.94,1.04,0,1.95.06,2.72.18.77.12,1.46.25,2.06.41l-.96,4.41h-2.05Z"/>
      <path class="uuid-26571546-e49f-45a8-840b-53bda0ed0eb3" d="m391.18,243.03c-2.02,0-3.58-.57-4.7-1.7s-1.67-2.76-1.67-4.88c0-.78.1-1.7.29-2.75.25-1.37.6-2.58,1.05-3.63.59-1.32,1.34-2.45,2.26-3.41s1.97-1.69,3.16-2.19,2.47-.75,3.84-.75c1.5,0,2.72.29,3.68.86s1.65,1.35,2.08,2.33.64,2.12.64,3.41c0,1.16-.16,2.4-.49,3.71-.47,1.93-1.15,3.56-2.05,4.9s-2.02,2.36-3.38,3.06c-1.35.7-2.93,1.04-4.73,1.04Zm-2.95-5.74c0,1.43.3,2.49.89,3.17.59.68,1.49,1.03,2.69,1.03,1.28,0,2.41-.57,3.4-1.72.99-1.15,1.77-2.75,2.34-4.81.57-2.06.86-3.88.86-5.44,0-1.41-.27-2.46-.82-3.17s-1.4-1.06-2.56-1.06c-1.35,0-2.54.57-3.54,1.7-1.01,1.13-1.8,2.75-2.38,4.86-.58,2.11-.87,3.93-.87,5.45Z"/>
      <path class="uuid-26571546-e49f-45a8-840b-53bda0ed0eb3" d="m416.65,239.1c-1.07,1.29-2.12,2.26-3.16,2.92-1.04.66-2.15.99-3.32.99-1.38,0-2.41-.35-3.09-1.05-.68-.7-1.02-1.73-1.02-3.07,0-.82.12-1.74.35-2.75l2.42-10.14h-2.91l.21-1c.77-.09,1.38-.26,1.83-.5s.83-.56,1.13-.96c.31-.4.59-.92.85-1.55.26-.64.59-1.57.98-2.79h2.7l-1.07,4.82h6.19l-.43,1.97h-6.21l-1.88,7.58c-.52,2.11-.78,3.68-.78,4.73,0,.79.17,1.4.52,1.81.34.41.85.62,1.51.62.6,0,1.23-.23,1.88-.69.66-.46,1.38-1.16,2.16-2.1l1.13,1.17Z"/>
      <path class="uuid-26571546-e49f-45a8-840b-53bda0ed0eb3" d="m435.49,242.7h-6.13l2.46-9.92c.18-.72.34-1.44.48-2.18s.21-1.4.21-2c0-.94-.16-1.6-.47-2s-.84-.6-1.58-.6c-.53,0-1.12.22-1.77.66s-1.33,1.12-2.04,2.02c-.72.91-1.29,1.77-1.71,2.6-.42.83-.76,1.81-1.01,2.96l-1.78,8.46h-3.38l5.02-22.32c.14-.65.24-1.12.3-1.42s.1-.56.13-.81c.03-.25.04-.47.04-.66,0-.55-.17-.93-.5-1.15s-.93-.34-1.79-.37l.23-1.02,4.94-.18h1.13l-3.36,13.54.23.08c1.22-1.63,2.39-2.81,3.5-3.55,1.11-.74,2.23-1.11,3.38-1.11,1.26,0,2.22.35,2.87,1.04.65.7.98,1.73.98,3.1,0,.83-.13,1.84-.39,3.01l-1.64,6.95c-.13.56-.22,1.01-.27,1.35-.05.34-.08.63-.08.88,0,.4.07.72.21.94s.34.39.62.5c.28.11.73.2,1.34.26l-.18.96Z"/>
      <path class="uuid-26571546-e49f-45a8-840b-53bda0ed0eb3" d="m465.77,224.98c-2.53,2.7-5.17,5.36-7.93,7.99l1.82,4.28c.48,1.15.87,1.99,1.15,2.53.29.54.55.93.78,1.17s.47.42.7.53.61.2,1.11.26l-.21.96h-4.86l-2.71-7.85c-.31.27-.73.65-1.24,1.14-.51.49-1.01,1.01-1.49,1.56-.48.55-.82,1-1.02,1.34s-.32.63-.38.88-.09.5-.09.76c0,.34.09.61.28.8.19.2.51.33.97.41l-.21.96h-5.57l-.37-.96c2.85-3.06,5.66-5.88,8.42-8.46l-1.86-4.36c-.38-.89-.68-1.56-.92-2.02s-.46-.82-.67-1.07-.46-.45-.74-.59c-.28-.14-.68-.22-1.2-.26l.21-.96h4.86l2.6,7.36c.64-.59,1.24-1.19,1.82-1.82.57-.62.98-1.12,1.21-1.48s.4-.69.49-.98c.09-.29.14-.59.14-.9,0-.72-.42-1.13-1.25-1.23l.21-.96h5.57l.39.96Z"/>
    </g>
  </g>
</svg>