<?xml version="1.0" encoding="UTF-8"?>
<svg xmlns="http://www.w3.org/2000/svg" width="1245" height="1020" xmlns:xlink="http://www.w3.org/1999/xlink" viewBox="0 0 1245 1020">
  <defs>
    <style>
      .uuid-8e590b14-6b7b-4435-99ec-8aaa1ba95ed5 {
        fill: #fff;
      }

      .uuid-fa45ad85-939c-42dc-9434-8e2d343c4b80 {
        stroke: #fff;
        stroke-linejoin: bevel;
        stroke-width: 3.36px;
      }

      .uuid-fa45ad85-939c-42dc-9434-8e2d343c4b80, .uuid-096d6c0b-f34f-412c-8114-8e5669faa3f7, .uuid-a6946aad-ac60-4f85-9e69-0faa0cd9679d, .uuid-c75aa1ba-a836-4461-a3e9-f88715c8245f, .uuid-7e56c7a7-eefe-4913-ab99-d14fe2aa6310, .uuid-1aa452d3-685a-48f5-af18-d66f38f922b6, .uuid-36b6c5ab-d2a7-4541-a321-970b8af7d576 {
        fill: none;
      }

      .uuid-fa45ad85-939c-42dc-9434-8e2d343c4b80, .uuid-350a1038-d10c-4975-92c9-666f1c2d8cbe {
        font-family: HelveticaNeue-UltraLight, 'Helvetica Neue UltraLight';
        font-size: 13.43px;
        font-weight: 100;
        isolation: isolate;
      }

      .uuid-096d6c0b-f34f-412c-8114-8e5669faa3f7 {
        stroke: silver;
        stroke-width: 1.12px;
      }

      .uuid-096d6c0b-f34f-412c-8114-8e5669faa3f7, .uuid-36b6c5ab-d2a7-4541-a321-970b8af7d576 {
        stroke-linecap: round;
        stroke-linejoin: round;
      }

      .uuid-a6946aad-ac60-4f85-9e69-0faa0cd9679d {
        clip-path: url(#uuid-a16bb839-f4d4-4f45-b64b-928e4e26021d);
      }

      .uuid-c75aa1ba-a836-4461-a3e9-f88715c8245f {
        clip-path: url(#uuid-374f0d0c-f9c5-49db-b3ca-b61491564262);
      }

      .uuid-b796f343-fc0e-49da-a7c9-d64b2714be11 {
        fill: #333;
      }

      .uuid-d731e46d-106b-4c48-ba0d-b44695256b54 {
        fill: #00699b;
      }

      .uuid-7e56c7a7-eefe-4913-ab99-d14fe2aa6310 {
        stroke: #606060;
        stroke-miterlimit: 10;
        stroke-width: 2.24px;
      }

      .uuid-36b6c5ab-d2a7-4541-a321-970b8af7d576 {
        stroke: rgba(255, 85, 0, .7);
        stroke-width: 4.48px;
      }

      .uuid-350a1038-d10c-4975-92c9-666f1c2d8cbe {
        fill: #606060;
      }
    </style>
    <clipPath id="uuid-374f0d0c-f9c5-49db-b3ca-b61491564262">
      <rect class="uuid-1aa452d3-685a-48f5-af18-d66f38f922b6" x="0" y="2.61" width="1245" height="1019.39"/>
    </clipPath>
    <clipPath id="uuid-a16bb839-f4d4-4f45-b64b-928e4e26021d">
      <rect class="uuid-1aa452d3-685a-48f5-af18-d66f38f922b6" x="-68.94" y="2.61" width="1382.88" height="1014.78"/>
    </clipPath>
  </defs>
  <g id="uuid-362ce08e-c282-4cfa-b4dd-4c637b7b1fd3" data-name="Grafica">
    <g class="uuid-c75aa1ba-a836-4461-a3e9-f88715c8245f">
      <g class="uuid-a6946aad-ac60-4f85-9e69-0faa0cd9679d">
        <g>
          <rect class="uuid-8e590b14-6b7b-4435-99ec-8aaa1ba95ed5" x="-68.94" y="2.61" width="1382.88" height="1014.78"/>
          <path class="uuid-096d6c0b-f34f-412c-8114-8e5669faa3f7" d="m78.19,3.17v1014.78M78.19,3.17v1014.78M1170.17,3.17v1014.78M-68.94,2.61"/>
          <path class="uuid-096d6c0b-f34f-412c-8114-8e5669faa3f7" d="m-68.38,237.01h1382.88m-1382.88,0h1382.88M-68.38,782.99h1382.88M-68.94,2.61"/>
          <path class="uuid-7e56c7a7-eefe-4913-ab99-d14fe2aa6310" d="m624.74,1.49v1015.9"/>
          <path class="uuid-7e56c7a7-eefe-4913-ab99-d14fe2aa6310" d="m-68.94,509.44h1381.76"/>
          <text class="uuid-350a1038-d10c-4975-92c9-666f1c2d8cbe" transform="translate(120.14 527.34)"><tspan x="0" y="0">–0.9</tspan></text>
          <text class="uuid-fa45ad85-939c-42dc-9434-8e2d343c4b80" transform="translate(120.14 527.34)"><tspan x="0" y="0">–0.9</tspan></text>
          <text class="uuid-350a1038-d10c-4975-92c9-666f1c2d8cbe" transform="translate(120.14 527.34)"><tspan x="0" y="0">–0.9</tspan></text>
          <path class="uuid-7e56c7a7-eefe-4913-ab99-d14fe2aa6310" d="m132.45,509.44v3.36"/>
          <text class="uuid-350a1038-d10c-4975-92c9-666f1c2d8cbe" transform="translate(283.49 527.34)"><tspan x="0" y="0">–0.6</tspan></text>
          <text class="uuid-fa45ad85-939c-42dc-9434-8e2d343c4b80" transform="translate(283.49 527.34)"><tspan x="0" y="0">–0.6</tspan></text>
          <text class="uuid-350a1038-d10c-4975-92c9-666f1c2d8cbe" transform="translate(283.49 527.34)"><tspan x="0" y="0">–0.6</tspan></text>
          <path class="uuid-7e56c7a7-eefe-4913-ab99-d14fe2aa6310" d="m296.92,509.44v3.36"/>
          <text class="uuid-350a1038-d10c-4975-92c9-666f1c2d8cbe" transform="translate(447.96 527.34)"><tspan x="0" y="0">–0.3</tspan></text>
          <text class="uuid-fa45ad85-939c-42dc-9434-8e2d343c4b80" transform="translate(447.96 527.34)"><tspan x="0" y="0">–0.3</tspan></text>
          <text class="uuid-350a1038-d10c-4975-92c9-666f1c2d8cbe" transform="translate(447.96 527.34)"><tspan x="0" y="0">–0.3</tspan></text>
          <path class="uuid-7e56c7a7-eefe-4913-ab99-d14fe2aa6310" d="m460.27,509.44v3.36"/>
          <path class="uuid-7e56c7a7-eefe-4913-ab99-d14fe2aa6310" d="m624.74,509.44v3.36"/>
          <text class="uuid-350a1038-d10c-4975-92c9-666f1c2d8cbe" transform="translate(779.14 527.34)"><tspan x="0" y="0">0.3</tspan></text>
          <text class="uuid-fa45ad85-939c-42dc-9434-8e2d343c4b80" transform="translate(779.14 527.34)"><tspan x="0" y="0">0.3</tspan></text>
          <text class="uuid-350a1038-d10c-4975-92c9-666f1c2d8cbe" transform="translate(779.14 527.34)"><tspan x="0" y="0">0.3</tspan></text>
          <path class="uuid-7e56c7a7-eefe-4913-ab99-d14fe2aa6310" d="m788.09,509.44v3.36"/>
          <text class="uuid-350a1038-d10c-4975-92c9-666f1c2d8cbe" transform="translate(942.49 527.34)"><tspan x="0" y="0">0.6</tspan></text>
          <text class="uuid-fa45ad85-939c-42dc-9434-8e2d343c4b80" transform="translate(942.49 527.34)"><tspan x="0" y="0">0.6</tspan></text>
          <text class="uuid-350a1038-d10c-4975-92c9-666f1c2d8cbe" transform="translate(942.49 527.34)"><tspan x="0" y="0">0.6</tspan></text>
          <path class="uuid-7e56c7a7-eefe-4913-ab99-d14fe2aa6310" d="m952.56,509.44v3.36"/>
          <text class="uuid-350a1038-d10c-4975-92c9-666f1c2d8cbe" transform="translate(1106.95 527.34)"><tspan x="0" y="0">0.9</tspan></text>
          <text class="uuid-fa45ad85-939c-42dc-9434-8e2d343c4b80" transform="translate(1106.95 527.34)"><tspan x="0" y="0">0.9</tspan></text>
          <text class="uuid-350a1038-d10c-4975-92c9-666f1c2d8cbe" transform="translate(1106.95 527.34)"><tspan x="0" y="0">0.9</tspan></text>
          <path class="uuid-7e56c7a7-eefe-4913-ab99-d14fe2aa6310" d="m1115.9,509.44v3.36"/>
          <path class="uuid-7e56c7a7-eefe-4913-ab99-d14fe2aa6310" d="m621.38,918.93h3.36"/>
          <path class="uuid-7e56c7a7-eefe-4913-ab99-d14fe2aa6310" d="m621.38,782.44h3.36"/>
          <path class="uuid-7e56c7a7-eefe-4913-ab99-d14fe2aa6310" d="m621.38,645.94h3.36"/>
          <path class="uuid-7e56c7a7-eefe-4913-ab99-d14fe2aa6310" d="m621.38,372.94h3.36"/>
          <path class="uuid-7e56c7a7-eefe-4913-ab99-d14fe2aa6310" d="m621.38,236.45h3.36"/>
          <path class="uuid-7e56c7a7-eefe-4913-ab99-d14fe2aa6310" d="m621.38,99.95h3.36"/>
          <text class="uuid-350a1038-d10c-4975-92c9-666f1c2d8cbe" transform="translate(590.05 924.53)"><tspan x="0" y="0">–1.5</tspan></text>
          <text class="uuid-fa45ad85-939c-42dc-9434-8e2d343c4b80" transform="translate(590.05 924.53)"><tspan x="0" y="0">–1.5</tspan></text>
          <text class="uuid-350a1038-d10c-4975-92c9-666f1c2d8cbe" transform="translate(590.05 924.53)"><tspan x="0" y="0">–1.5</tspan></text>
          <text class="uuid-350a1038-d10c-4975-92c9-666f1c2d8cbe" transform="translate(601.24 788.03)"><tspan x="0" y="0">–1</tspan></text>
          <text class="uuid-fa45ad85-939c-42dc-9434-8e2d343c4b80" transform="translate(601.24 788.03)"><tspan x="0" y="0">–1</tspan></text>
          <text class="uuid-350a1038-d10c-4975-92c9-666f1c2d8cbe" transform="translate(601.24 788.03)"><tspan x="0" y="0">–1</tspan></text>
          <text class="uuid-350a1038-d10c-4975-92c9-666f1c2d8cbe" transform="translate(590.05 651.53)"><tspan x="0" y="0">–0.5</tspan></text>
          <text class="uuid-fa45ad85-939c-42dc-9434-8e2d343c4b80" transform="translate(590.05 651.53)"><tspan x="0" y="0">–0.5</tspan></text>
          <text class="uuid-350a1038-d10c-4975-92c9-666f1c2d8cbe" transform="translate(590.05 651.53)"><tspan x="0" y="0">–0.5</tspan></text>
          <text class="uuid-350a1038-d10c-4975-92c9-666f1c2d8cbe" transform="translate(596.77 378.54)"><tspan x="0" y="0">0.5</tspan></text>
          <text class="uuid-fa45ad85-939c-42dc-9434-8e2d343c4b80" transform="translate(596.77 378.54)"><tspan x="0" y="0">0.5</tspan></text>
          <text class="uuid-350a1038-d10c-4975-92c9-666f1c2d8cbe" transform="translate(596.77 378.54)"><tspan x="0" y="0">0.5</tspan></text>
          <text class="uuid-350a1038-d10c-4975-92c9-666f1c2d8cbe" transform="translate(607.96 242.04)"><tspan x="0" y="0">1</tspan></text>
          <text class="uuid-fa45ad85-939c-42dc-9434-8e2d343c4b80" transform="translate(607.96 242.04)"><tspan x="0" y="0">1</tspan></text>
          <text class="uuid-350a1038-d10c-4975-92c9-666f1c2d8cbe" transform="translate(607.96 242.04)"><tspan x="0" y="0">1</tspan></text>
          <text class="uuid-350a1038-d10c-4975-92c9-666f1c2d8cbe" transform="translate(596.77 105.54)"><tspan x="0" y="0">1.5</tspan></text>
          <text class="uuid-fa45ad85-939c-42dc-9434-8e2d343c4b80" transform="translate(596.77 105.54)"><tspan x="0" y="0">1.5</tspan></text>
          <text class="uuid-350a1038-d10c-4975-92c9-666f1c2d8cbe" transform="translate(596.77 105.54)"><tspan x="0" y="0">1.5</tspan></text>
          <text class="uuid-350a1038-d10c-4975-92c9-666f1c2d8cbe" transform="translate(607.96 527.34)"><tspan x="0" y="0">0</tspan></text>
          <text class="uuid-fa45ad85-939c-42dc-9434-8e2d343c4b80" transform="translate(607.96 527.34)"><tspan x="0" y="0">0</tspan></text>
          <text class="uuid-350a1038-d10c-4975-92c9-666f1c2d8cbe" transform="translate(607.96 527.34)"><tspan x="0" y="0">0</tspan></text>
          <path class="uuid-36b6c5ab-d2a7-4541-a321-970b8af7d576" d="m78.75,927.68v11.12-11.12l1.12-9.6h0l1.12-6.4h0l1.12-5.16h0l1.12-4.44h0l1.12-3.96h0l1.12-3.61h0l1.12-3.34h0l1.12-3.12h0l1.12-2.94h0l1.12-2.79h0l1.12-2.66h0l1.12-2.55h0l1.12-2.45h0l1.12-2.36h0l1.12-2.28h0l1.12-2.21h0l1.12-2.14h0l1.12-2.08h0l1.12-2.03h0l1.12-1.98h0l1.12-1.93h0l1.12-1.89h0l1.12-1.85h0l1.12-1.81h0l1.12-1.77h0l1.12-1.74h0l1.12-1.71h0l1.12-1.68h0l1.12-1.65h0l1.12-1.62h0l1.12-1.6h0l1.12-1.57h0l1.12-1.55h0l1.12-1.53h0l1.12-1.51h0l1.12-1.49h0l1.12-1.47h0l1.12-1.45h0l1.12-1.43h0l1.12-1.41h0l1.12-1.4h0l1.12-1.38h0l1.12-1.36h0l1.12-1.35h0l1.12-1.34h0l1.12-1.32h0l1.12-1.31h0l1.12-1.29h0l1.12-1.28h0l1.12-1.27h0l1.12-1.26h0l1.12-1.25h0l1.12-1.24h0l1.12-1.22h0l1.12-1.21h0l1.12-1.2h0l1.12-1.19h0l1.12-1.18h0l1.12-1.17h0l1.12-1.17h0l1.12-1.16h0l1.12-1.15h0l1.12-1.14h0l1.12-1.13h0l1.12-1.12h0l1.12-1.11h0l1.12-1.11h0l1.12-1.1h0l1.12-1.09h0l1.12-1.08h0l1.12-1.08h0l1.12-1.07h0l1.12-1.06h0l1.12-1.06h0l1.12-1.05h0l1.12-1.04h0l1.12-1.04h0l1.12-1.03h0l1.12-1.03h0l1.12-1.02h0l1.12-1.01h0l1.12-1.01h0l1.12-1h0l1.12-1h0l1.12-.99h0l1.12-.99h0l1.12-.98h0l1.12-.98h0l1.12-.97h0l1.12-.97h0l1.12-.96h0l1.12-.96h0l1.12-.95h0l1.12-.95h0l1.12-.94h0l1.12-.94h0l1.12-.94h0l1.12-.93h0l1.12-.93h0l1.12-.92h0l1.12-.92h0l1.12-.91h0l1.12-.91h0l1.12-.91h0l1.12-.9h0l1.12-.9h0l1.12-.9h0l1.12-.89h0l1.12-.89h0l1.12-.89h0l1.12-.88h0l1.12-.88h0l1.12-.87h0l1.12-.87h0l1.12-.87h0l1.12-.86h0l1.12-.86h0l1.12-.86h0l1.12-.86h0l1.12-.85h0l1.12-.85h0l1.12-.85h0l1.12-.84h0l1.12-.84h0l1.12-.84h0l1.12-.83h0l1.12-.83h0l1.12-.83h0l1.12-.83h0l1.12-.82h0l1.12-.82h0l1.12-.82h0l1.12-.82h0l1.12-.81h0l1.12-.81h0l1.12-.81h0l1.12-.81h0l1.12-.8h0l1.12-.8h0l1.12-.8h0l1.12-.8h0l1.12-.79h0l1.12-.79h0l1.12-.79h0l1.12-.79h0l1.12-.78h0l1.12-.78h0l1.12-.78h0l1.12-.78h0l1.12-.78h0l1.12-.77h0l1.12-.77h0l1.12-.77h0l1.12-.77h0l1.12-.77h0l1.12-.76h0l1.12-.76h0l1.12-.76h0l1.12-.76h0l1.12-.76h0l1.12-.75h0l1.12-.75h0l1.12-.75h0l1.12-.75h0l1.12-.75h0l1.12-.74h0l1.12-.74h0l1.12-.74h0l1.12-.74h0l1.12-.74h0l1.12-.74h0l1.12-.73h0l1.12-.73h0l1.12-.73h0l1.12-.73h0l1.12-.73h0l1.12-.73h0l1.12-.72h0l1.12-.72h0l1.12-.72h0l1.12-.72h0l1.12-.72h0l1.12-.72h0l1.12-.72h0l1.12-.71h0l1.12-.71h0l1.12-.71h0l1.12-.71h0l1.12-.71h0l1.12-.71h0l1.12-.71h0l1.12-.7h0l1.12-.7h0l1.12-.7h0l1.12-.7h0l1.12-.7h0l1.12-.7h0l1.12-.7h0l1.12-.69h0l1.12-.69h0l1.12-.69h0l1.12-.69h0l1.12-.69h0l1.12-.69h0l1.12-.69h0l1.12-.69h0l1.12-.68h0l1.12-.68h0l1.12-.68h0l1.12-.68h0l1.12-.68h0l1.12-.68h0l1.12-.68h0l1.12-.68h0l1.12-.68h0l1.12-.67h0l1.12-.67h0l1.12-.67h0l1.12-.67h0l1.12-.67h0l1.12-.67h0l1.12-.67h0l1.12-.67h0l1.12-.67h0l1.12-.66h0l1.12-.66h0l1.12-.66h0l1.12-.66h0l1.12-.66h0l1.12-.66h0l1.12-.66h0l1.12-.66h0l1.12-.66h0l1.12-.66h0l1.12-.65h0l1.12-.65h0l1.12-.65h0l1.12-.65h0l1.12-.65h0l1.12-.65h0l1.12-.65h0l1.12-.65h0l1.12-.65h0l1.12-.65h0l1.12-.65h0l1.12-.64h0l1.12-.64h0l1.12-.64h0l1.12-.64h0l1.12-.64h0l1.12-.64h0l1.12-.64h0l1.12-.64h0l1.12-.64h0l1.12-.64h0l1.12-.64h0l1.12-.64h0l1.12-.63h0l1.12-.63h0l1.12-.63h0l1.12-.63h0l1.12-.63h0l1.12-.63h0l1.12-.63h0l1.12-.63h0l1.12-.63h0l1.12-.63h0l1.12-.63h0l1.12-.63h0l1.12-.63h0l1.12-.62h0l1.12-.62h0l1.12-.62h0l1.12-.62h0l1.12-.62h0l1.12-.62h0l1.12-.62h0l1.12-.62h0l1.12-.62h0l1.12-.62h0l1.12-.62h0l1.12-.62h0l1.12-.62h0l1.12-.62h0l1.12-.62h0l1.12-.61h0l1.12-.61h0l1.12-.61h0l1.12-.61h0l1.12-.61h0l1.12-.61h0l1.12-.61h0l1.12-.61h0l1.12-.61h0l1.12-.61h0l1.12-.61h0l1.12-.61h0l1.12-.61h0l1.12-.61h0l1.12-.61h0l1.12-.61h0l1.12-.61h0l1.12-.6h0l1.12-.6h0l1.12-.6h0l1.12-.6h0l1.12-.6h0l1.12-.6h0l1.12-.6h0l1.12-.6h0l1.12-.6h0l1.12-.6h0l1.12-.6h0l1.12-.6h0l1.12-.6h0l1.12-.6h0l1.12-.6h0l1.12-.6h0l1.12-.6h0l1.12-.6h0l1.12-.6h0l1.12-.59h0l1.12-.59h0l1.12-.59h0l1.12-.59h0l1.12-.59h0l1.12-.59h0l1.12-.59h0l1.12-.59h0l1.12-.59h0l1.12-.59h0l1.12-.59h0l1.12-.59h0l1.12-.59h0l1.12-.59h0l1.12-.59h0l1.12-.59h0l1.12-.59h0l1.12-.59h0l1.12-.59h0l1.12-.59h0l1.12-.59h0l1.12-.59h0l1.12-.59h0l1.12-.59h0l1.12-.58h0l1.12-.58h0l1.12-.58h0l1.12-.58h0l1.12-.58h0l1.12-.58h0l1.12-.58h0l1.12-.58h0l1.12-.58h0l1.12-.58h0l1.12-.58h0l1.12-.58h0l1.12-.58h0l1.12-.58h0l1.12-.58h0l1.12-.58h0l1.12-.58h0l1.12-.58h0l1.12-.58h0l1.12-.58h0l1.12-.58h0l1.12-.58h0l1.12-.58h0l1.12-.58h0l1.12-.58h0l1.12-.58h0l1.12-.58h0l1.12-.58h0l1.12-.58h0l1.12-.58h0l1.12-.57h0l1.12-.57h0l1.12-.57h0l1.12-.57h0l1.12-.57h0l1.12-.57h0l1.12-.57h0l1.12-.57h0l1.12-.57h0l1.12-.57h0l1.12-.57h0l1.12-.57h0l1.12-.57h0l1.12-.57h0l1.12-.57h0l1.12-.57h0l1.12-.57h0l1.12-.57h0l1.12-.57h0l1.12-.57h0l1.12-.57h0l1.12-.57h0l1.12-.57h0l1.12-.57h0l1.12-.57h0l1.12-.57h0l1.12-.57h0l1.12-.57h0l1.12-.57h0l1.12-.57h0l1.12-.57h0l1.12-.57h0l1.12-.57h0l1.12-.57h0l1.12-.57h0l1.12-.57h0l1.12-.57h0l1.12-.57h0l1.12-.57h0l1.12-.57h0l1.12-.57h0l1.12-.57h0l1.12-.57h0l1.12-.57h0l1.12-.56h0l1.12-.56h0l1.12-.56h0l1.12-.56h0l1.12-.56h0l1.12-.56h0l1.12-.56h0l1.12-.56h0l1.12-.56h0l1.12-.56h0l1.12-.56h0l1.12-.56h0l1.12-.56h0l1.12-.56h0l1.12-.56h0l1.12-.56h0l1.12-.56h0l1.12-.56h0l1.12-.56h0l1.12-.56h0l1.12-.56h0l1.12-.56h0l1.12-.56h0l1.12-.56h0l1.12-.56h0l1.12-.56h0l1.12-.56h0l1.12-.56h0l1.12-.56h0l1.12-.56h0l1.12-.56h0l1.12-.56h0l1.12-.56h0l1.12-.56h0l1.12-.56h0l1.12-.56h0l1.12-.56h0l1.12-.56h0l1.12-.56h0l1.12-.56h0l1.12-.56h0l1.12-.56h0l1.12-.56h0l1.12-.56h0l1.12-.56h0l1.12-.56h0l1.12-.56h0l1.12-.56h0l1.12-.56h0l1.12-.56h0l1.12-.56h0l1.12-.56h0l1.12-.56h0l1.12-.56h0l1.12-.56h0l1.12-.56h0l1.12-.56h0l1.12-.56h0l1.12-.56h0l1.12-.56h0l1.12-.56h0l1.12-.56h0l1.12-.56h0l1.12-.56h0l1.12-.56h0l1.12-.56h0l1.12-.56h0l1.12-.56h0l1.12-.56h0l1.12-.56h0l1.12-.56h0l1.12-.56h0l1.12-.56h0l1.12-.56h0l1.12-.56h0l1.12-.56h0l1.12-.56h0l1.12-.56h0l1.12-.56h0l1.12-.56h0l1.12-.56h0l1.12-.56h0l1.12-.56h0l1.12-.56h0l1.12-.56h0l1.12-.56h0l1.12-.56h0l1.12-.56h0l1.12-.56h0l1.12-.56h0l1.12-.56h0l1.12-.56h0l1.12-.56h0l1.12-.56h0l1.12-.56h0l1.12-.56h0l1.12-.56h0l1.12-.56h0l1.12-.56h0l1.12-.56h0l1.12-.56h0l1.12-.56h0l1.12-.56h0l1.12-.56h0l1.12-.56h0l1.12-.56h0l1.12-.56h0l1.12-.56h0l1.12-.56h0l1.12-.56h0l1.12-.56h0l1.12-.56h0l1.12-.56h0l1.12-.56h0l1.12-.56h0l1.12-.56h0l1.12-.56h0l1.12-.56h0l1.12-.56h0l1.12-.56h0l1.12-.56h0l1.12-.56h0l1.12-.56h0l1.12-.56h0l1.12-.56h0l1.12-.56h0l1.12-.56h0l1.12-.56h0l1.12-.56h0l1.12-.56h0l1.12-.56h0l1.12-.56h0l1.12-.56h0l1.12-.56h0l1.12-.56h0l1.12-.56h0l1.12-.56h0l1.12-.57h0l1.12-.57h0l1.12-.57h0l1.12-.57h0l1.12-.57h0l1.12-.57h0l1.12-.57h0l1.12-.57h0l1.12-.57h0l1.12-.57h0l1.12-.57h0l1.12-.57h0l1.12-.57h0l1.12-.57h0l1.12-.57h0l1.12-.57h0l1.12-.57h0l1.12-.57h0l1.12-.57h0l1.12-.57h0l1.12-.57h0l1.12-.57h0l1.12-.57h0l1.12-.57h0l1.12-.57h0l1.12-.57h0l1.12-.57h0l1.12-.57h0l1.12-.57h0l1.12-.57h0l1.12-.57h0l1.12-.57h0l1.12-.57h0l1.12-.57h0l1.12-.57h0l1.12-.57h0l1.12-.57h0l1.12-.57h0l1.12-.57h0l1.12-.57h0l1.12-.57h0l1.12-.57h0l1.12-.57h0l1.12-.57h0l1.12-.57h0l1.12-.58h0l1.12-.58h0l1.12-.58h0l1.12-.58h0l1.12-.58h0l1.12-.58h0l1.12-.58h0l1.12-.58h0l1.12-.58h0l1.12-.58h0l1.12-.58h0l1.12-.58h0l1.12-.58h0l1.12-.58h0l1.12-.58h0l1.12-.58h0l1.12-.58h0l1.12-.58h0l1.12-.58h0l1.12-.58h0l1.12-.58h0l1.12-.58h0l1.12-.58h0l1.12-.58h0l1.12-.58h0l1.12-.58h0l1.12-.58h0l1.12-.58h0l1.12-.58h0l1.12-.58h0l1.12-.59h0l1.12-.59h0l1.12-.59h0l1.12-.59h0l1.12-.59h0l1.12-.59h0l1.12-.59h0l1.12-.59h0l1.12-.59h0l1.12-.59h0l1.12-.59h0l1.12-.59h0l1.12-.59h0l1.12-.59h0l1.12-.59h0l1.12-.59h0l1.12-.59h0l1.12-.59h0l1.12-.59h0l1.12-.59h0l1.12-.59h0l1.12-.59h0l1.12-.59h0l1.12-.6h0l1.12-.6h0l1.12-.6h0l1.12-.6h0l1.12-.6h0l1.12-.6h0l1.12-.6h0l1.12-.6h0l1.12-.6h0l1.12-.6h0l1.12-.6h0l1.12-.6h0l1.12-.6h0l1.12-.6h0l1.12-.6h0l1.12-.6h0l1.12-.6h0l1.12-.6h0l1.12-.6h0l1.12-.6h0l1.12-.61h0l1.12-.61h0l1.12-.61h0l1.12-.61h0l1.12-.61h0l1.12-.61h0l1.12-.61h0l1.12-.61h0l1.12-.61h0l1.12-.61h0l1.12-.61h0l1.12-.61h0l1.12-.61h0l1.12-.61h0l1.12-.61h0l1.12-.61h0l1.12-.61h0l1.12-.62h0l1.12-.62h0l1.12-.62h0l1.12-.62h0l1.12-.62h0l1.12-.62h0l1.12-.62h0l1.12-.62h0l1.12-.62h0l1.12-.62h0l1.12-.62h0l1.12-.62h0l1.12-.62h0l1.12-.62h0l1.12-.63h0l1.12-.63h0l1.12-.63h0l1.12-.63h0l1.12-.63h0l1.12-.63h0l1.12-.63h0l1.12-.63h0l1.12-.63h0l1.12-.63h0l1.12-.63h0l1.12-.63h0l1.12-.63h0l1.12-.63h0l1.12-.64h0l1.12-.64h0l1.12-.64h0l1.12-.64h0l1.12-.64h0l1.12-.64h0l1.12-.64h0l1.12-.64h0l1.12-.64h0l1.12-.64h0l1.12-.64h0l1.12-.64h0l1.12-.65h0l1.12-.65h0l1.12-.65h0l1.12-.65h0l1.12-.65h0l1.12-.65h0l1.12-.65h0l1.12-.65h0l1.12-.65h0l1.12-.65h0l1.12-.65h0l1.12-.66h0l1.12-.66h0l1.12-.66h0l1.12-.66h0l1.12-.66h0l1.12-.66h0l1.12-.66h0l1.12-.66h0l1.12-.66h0l1.12-.66h0l1.12-.67h0l1.12-.67h0l1.12-.67h0l1.12-.67h0l1.12-.67h0l1.12-.67h0l1.12-.67h0l1.12-.67h0l1.12-.67h0l1.12-.68h0l1.12-.68h0l1.12-.68h0l1.12-.68h0l1.12-.68h0l1.12-.68h0l1.12-.68h0l1.12-.68h0l1.12-.68h0l1.12-.69h0l1.12-.69h0l1.12-.69h0l1.12-.69h0l1.12-.69h0l1.12-.69h0l1.12-.69h0l1.12-.7h0l1.12-.7h0l1.12-.7h0l1.12-.7h0l1.12-.7h0l1.12-.7h0l1.12-.7h0l1.12-.7h0l1.12-.71h0l1.12-.71h0l1.12-.71h0l1.12-.71h0l1.12-.71h0l1.12-.71h0l1.12-.71h0l1.12-.72h0l1.12-.72h0l1.12-.72h0l1.12-.72h0l1.12-.72h0l1.12-.72h0l1.12-.73h0l1.12-.73h0l1.12-.73h0l1.12-.73h0l1.12-.73h0l1.12-.73h0l1.12-.74h0l1.12-.74h0l1.12-.74h0l1.12-.74h0l1.12-.74h0l1.12-.74h0l1.12-.75h0l1.12-.75h0l1.12-.75h0l1.12-.75h0l1.12-.75h0l1.12-.75h0l1.12-.76h0l1.12-.76h0l1.12-.76h0l1.12-.76h0l1.12-.76h0l1.12-.77h0l1.12-.77h0l1.12-.77h0l1.12-.77h0l1.12-.77h0l1.12-.78h0l1.12-.78h0l1.12-.78h0l1.12-.78h0l1.12-.79h0l1.12-.79h0l1.12-.79h0l1.12-.79h0l1.12-.79h0l1.12-.8h0l1.12-.8h0l1.12-.8h0l1.12-.8h0l1.12-.81h0l1.12-.81h0l1.12-.81h0l1.12-.81h0l1.12-.82h0l1.12-.82h0l1.12-.82h0l1.12-.82h0l1.12-.83h0l1.12-.83h0l1.12-.83h0l1.12-.84h0l1.12-.84h0l1.12-.84h0l1.12-.84h0l1.12-.85h0l1.12-.85h0l1.12-.85h0l1.12-.86h0l1.12-.86h0l1.12-.86h0l1.12-.87h0l1.12-.87h0l1.12-.87h0l1.12-.88h0l1.12-.88h0l1.12-.88h0l1.12-.89h0l1.12-.89h0l1.12-.89h0l1.12-.9h0l1.12-.9h0l1.12-.9h0l1.12-.91h0l1.12-.91h0l1.12-.92h0l1.12-.92h0l1.12-.92h0l1.12-.93h0l1.12-.93h0l1.12-.94h0l1.12-.94h0l1.12-.95h0l1.12-.95h0l1.12-.96h0l1.12-.96h0l1.12-.96h0l1.12-.97h0l1.12-.97h0l1.12-.98h0l1.12-.98h0l1.12-.99h0l1.12-.99h0l1.12-1h0l1.12-1.01h0l1.12-1.01h0l1.12-1.02h0l1.12-1.02h0l1.12-1.03h0l1.12-1.03h0l1.12-1.04h0l1.12-1.05h0l1.12-1.05h0l1.12-1.06h0l1.12-1.07h0l1.12-1.07h0l1.12-1.08h0l1.12-1.09h0l1.12-1.1h0l1.12-1.1h0l1.12-1.11h0l1.12-1.12h0l1.12-1.13h0l1.12-1.13h0l1.12-1.14h0l1.12-1.15h0l1.12-1.16h0l1.12-1.17h0l1.12-1.18h0l1.12-1.19h0l1.12-1.2h0l1.12-1.21h0l1.12-1.22h0l1.12-1.23h0l1.12-1.24h0l1.12-1.25h0l1.12-1.26h0l1.12-1.28h0l1.12-1.29h0l1.12-1.3h0l1.12-1.31h0l1.12-1.33h0l1.12-1.34h0l1.12-1.36h0l1.12-1.37h0l1.12-1.39h0l1.12-1.4h0l1.12-1.42h0l1.12-1.44h0l1.12-1.46h0l1.12-1.48h0l1.12-1.49h0l1.12-1.52h0l1.12-1.54h0l1.12-1.56h0l1.12-1.58h0l1.12-1.61h0l1.12-1.63h0l1.12-1.66h0l1.12-1.69h0l1.12-1.72h0l1.12-1.75h0l1.12-1.79h0l1.12-1.83h0l1.12-1.87h0l1.12-1.91h0l1.12-1.95h0l1.12-2h0l1.12-2.05h0l1.12-2.11h0l1.12-2.17h0l1.12-2.24h0l1.12-2.32h0l1.12-2.4h0l1.12-2.49h0l1.12-2.6h0l1.12-2.72h0l1.12-2.85h0l1.12-3.02h0l1.12-3.21h0l1.12-3.45h0l1.12-3.75h0l1.12-4.15h0l1.12-4.71h0l1.12-5.6h0l1.12-7.32h0l1.12-17.22"/>
        </g>
      </g>
    </g>
  </g>
  <g id="uuid-04c39131-9f1b-47f5-b452-819621e9becd" data-name="Marco">
    <path class="uuid-d731e46d-106b-4c48-ba0d-b44695256b54" d="m-2-2V1022h1249V-2H-2Zm1232,987c0,11.05-8.95,20-20,20H35c-11.05,0-20-8.95-20-20V35c0-11.05,8.95-20,20-20h1175c11.05,0,20,8.95,20,20v950Z"/>
  </g>
  <g id="uuid-3075e319-7e37-439b-a5fc-b35f0231936f" data-name="texto">
    <g>
      <path class="uuid-b796f343-fc0e-49da-a7c9-d64b2714be11" d="m107.27,92.11c-.13-.99-.25-1.68-.37-2.06s-.31-.68-.57-.88c-.26-.2-.68-.32-1.27-.36l.21-.96h5.02l1.48,15.53c4.4-6.02,6.6-10.33,6.6-12.93,0-.61-.13-1.03-.39-1.25-.26-.22-.7-.35-1.33-.39l.2-.96h5.04l.53.98c-.69,1.81-1.57,3.68-2.65,5.62s-2.39,4.06-3.95,6.37c-1.56,2.3-3.28,4.7-5.19,7.19-1.46,1.91-2.68,3.36-3.67,4.34-.77.74-1.47,1.31-2.12,1.69s-1.27.66-1.88.82-1.25.24-1.92.24c-.35,0-.75-.04-1.19-.11-.44-.07-.82-.17-1.13-.28l.84-3.65h1.52c.01.44.12.79.31,1.05s.48.39.86.39c.42,0,.77-.04,1.07-.13.3-.08.62-.22.95-.42s.74-.51,1.21-.94c.48-.43,1.01-1,1.61-1.71.6-.71,1.27-1.57,2.01-2.57l-1.86-14.63Z"/>
      <path class="uuid-b796f343-fc0e-49da-a7c9-d64b2714be11" d="m133.29,92.4v-2.71h17.3v2.71h-17.3Zm0,8.11v-2.71h17.3v2.71h-17.3Z"/>
      <path class="uuid-b796f343-fc0e-49da-a7c9-d64b2714be11" d="m178.11,88.81l1.8-1.29,1.25.31-2.99,13.26c-.18.78-.31,1.38-.37,1.81-.07.42-.1.77-.1,1.04,0,.53.15.92.45,1.16.3.24.87.39,1.72.46l-.18.96h-5.59l1.23-4.9-.25-.08c-1.25,1.82-2.44,3.16-3.55,4-1.12.85-2.3,1.27-3.55,1.27-1.43,0-2.54-.54-3.33-1.62-.79-1.08-1.18-2.6-1.18-4.55,0-1.25.14-2.5.43-3.76.29-1.26.72-2.45,1.3-3.57.58-1.13,1.27-2.12,2.08-2.98.81-.86,1.74-1.54,2.8-2.05,1.06-.51,2.22-.76,3.47-.76.81,0,1.58.09,2.3.28.73.19,1.48.52,2.27,1.01Zm-1.72,5.82c.12-.53.2-1,.23-1.39s.06-.81.06-1.27c0-1.02-.21-1.75-.64-2.22s-1.15-.69-2.15-.69c-.55,0-1.07.09-1.56.26-.5.18-1,.47-1.5.88s-.99.95-1.46,1.61c-.46.66-.88,1.47-1.26,2.42-.38.95-.67,1.97-.88,3.06-.21,1.09-.31,2.15-.31,3.17,0,1.35.19,2.37.56,3.04s.99,1.01,1.87,1.01c.4,0,.82-.09,1.26-.27.44-.18.92-.52,1.46-1.01.53-.49,1.14-1.21,1.82-2.16.61-.87,1.1-1.74,1.46-2.59.36-.85.65-1.86.89-3.02l.18-.84Z"/>
      <path class="uuid-b796f343-fc0e-49da-a7c9-d64b2714be11" d="m190.63,87.67h1.17l-1.37,4.8.23.08c1.24-1.71,2.44-2.97,3.62-3.79,1.18-.82,2.39-1.23,3.64-1.23.95,0,1.74.07,2.38.21l-.94,4.38h-2.01c-.1-.68-.27-1.19-.49-1.54-.22-.35-.57-.53-1.04-.53-.51,0-1.09.26-1.76.78s-1.34,1.24-2.03,2.15c-.69.91-1.21,1.75-1.55,2.52-.35.77-.61,1.62-.79,2.56l-1.78,8.46h-3.38l2.97-13.34c.27-1.22.41-2.16.41-2.79,0-.36-.06-.65-.18-.85s-.31-.35-.57-.45c-.26-.1-.7-.17-1.33-.21l.21-1.04,4.55-.18Z"/>
      <path class="uuid-b796f343-fc0e-49da-a7c9-d64b2714be11" d="m213.11,92.54c-.03-.99-.11-1.71-.24-2.15s-.36-.77-.66-1c-.31-.22-.74-.33-1.3-.33-1.32,0-2.5.52-3.54,1.57-1.05,1.05-1.9,2.53-2.57,4.45s-1,3.77-1,5.54c0,.55.05,1.06.15,1.54s.27.9.51,1.25c.24.35.56.63.96.83.4.2.9.3,1.51.3,1.18,0,2.21-.22,3.08-.67.87-.45,1.78-1.16,2.74-2.12l1.19,1.19c-1.22,1.35-2.46,2.34-3.7,2.97-1.24.62-2.58.94-4.01.94-1.89,0-3.32-.56-4.3-1.68s-1.46-2.75-1.46-4.88c0-1.39.26-2.92.78-4.59.52-1.67,1.28-3.13,2.29-4.39,1-1.26,2.17-2.21,3.52-2.83,1.34-.62,2.77-.94,4.3-.94,1.04,0,1.95.06,2.72.18.77.12,1.46.25,2.06.41l-.96,4.41h-2.05Z"/>
      <path class="uuid-b796f343-fc0e-49da-a7c9-d64b2714be11" d="m228.97,92.4c-.14-1.17-.48-2.02-1.01-2.55s-1.34-.79-2.45-.79c-.61,0-1.17.11-1.66.34-.5.23-.89.56-1.17,1-.29.44-.43.95-.43,1.53,0,.48.1.92.29,1.32s.52.81.99,1.24c.46.43,1.11.92,1.94,1.48,1.26.85,2.15,1.67,2.66,2.46s.76,1.71.76,2.75c0,1.22-.29,2.26-.88,3.12s-1.39,1.49-2.4,1.9-2.16.62-3.44.62c-1.15,0-2.22-.08-3.21-.25s-1.96-.38-2.9-.64l.92-4.22h1.52c.09,1.2.43,2.09,1.03,2.69.59.59,1.46.89,2.59.89s2.06-.29,2.71-.87c.65-.58.98-1.34.98-2.29,0-.56-.1-1.06-.29-1.5s-.5-.87-.92-1.27c-.42-.4-1.01-.87-1.78-1.39-.82-.56-1.48-1.09-1.99-1.58s-.9-1.04-1.18-1.63c-.28-.59-.42-1.25-.42-1.96,0-1.08.27-2.02.8-2.81.53-.79,1.29-1.4,2.28-1.82.98-.42,2.13-.62,3.45-.62,2.15,0,4.04.28,5.68.84l-.9,4.02h-1.56Z"/>
      <path class="uuid-b796f343-fc0e-49da-a7c9-d64b2714be11" d="m247.25,102.63c-.96,1.05-1.89,1.89-2.77,2.5-.89.61-1.77,1.05-2.66,1.31-.89.26-1.86.39-2.93.39s-1.91-.17-2.66-.5-1.36-.79-1.85-1.37-.85-1.27-1.08-2.07-.35-1.67-.35-2.61c0-1.39.25-2.89.75-4.48.5-1.59,1.26-3.03,2.28-4.3s2.23-2.25,3.65-2.95c1.42-.7,2.93-1.04,4.53-1.04s2.76.32,3.54.96c.79.64,1.18,1.63,1.18,2.99,0,2.21-1.04,3.87-3.12,4.98-2.08,1.11-5.16,1.66-9.25,1.66-.16.78-.23,1.63-.23,2.54,0,1.37.27,2.36.8,2.98.53.62,1.41.93,2.62.93s2.29-.26,3.26-.78,2-1.32,3.07-2.4l1.21,1.27Zm-10.39-6.19c1.2-.01,2.25-.08,3.15-.21.9-.12,1.68-.29,2.33-.51.65-.21,1.19-.47,1.62-.77s.77-.63,1.03-.99.43-.74.53-1.13.15-.81.15-1.24c0-.79-.19-1.42-.56-1.87s-.92-.67-1.65-.67c-.91,0-1.81.33-2.69.99s-1.65,1.54-2.32,2.66c-.67,1.11-1.2,2.36-1.59,3.74Z"/>
      <path class="uuid-b796f343-fc0e-49da-a7c9-d64b2714be11" d="m268.05,106.52h-6.15l2.48-9.92c.16-.64.31-1.34.46-2.11.15-.77.22-1.46.22-2.07,0-.92-.16-1.59-.48-1.99-.32-.4-.82-.61-1.49-.61-.55,0-1.14.21-1.77.63-.63.42-1.29,1.05-1.98,1.89-.69.84-1.27,1.69-1.75,2.56-.48.87-.84,1.92-1.1,3.15l-1.78,8.46h-3.38l2.97-13.34c.06-.3.15-.74.26-1.33.11-.59.17-1.07.17-1.46,0-.36-.06-.65-.17-.85-.11-.2-.3-.35-.57-.45-.27-.1-.72-.17-1.36-.21l.23-1.04,4.43-.18h1.11l-1.31,5.08.23.08c1.28-1.8,2.51-3.13,3.69-3.99,1.18-.87,2.37-1.3,3.55-1.3,1.26,0,2.22.35,2.87,1.04.65.7.98,1.73.98,3.1,0,.47-.04.98-.13,1.53-.08.55-.18,1.04-.28,1.47l-1.64,6.95c-.22.94-.33,1.68-.33,2.23,0,.39.06.7.2.92.13.22.33.39.61.51s.72.21,1.35.27l-.16.96Z"/>
      <path class="uuid-b796f343-fc0e-49da-a7c9-d64b2714be11" d="m298.33,88.81c-2.53,2.7-5.17,5.36-7.93,7.99l1.82,4.28c.48,1.15.87,1.99,1.15,2.53.29.54.55.93.78,1.17s.47.42.7.53.61.2,1.11.26l-.21.96h-4.86l-2.71-7.85c-.31.27-.72.65-1.24,1.14-.51.49-1.01,1.01-1.49,1.56-.48.55-.82,1-1.02,1.34s-.32.63-.38.88-.09.5-.09.76c0,.34.09.61.28.8.19.2.51.33.97.41l-.21.96h-5.57l-.37-.96c2.85-3.06,5.66-5.88,8.42-8.46l-1.85-4.36c-.38-.89-.68-1.56-.92-2.02s-.46-.82-.67-1.07-.46-.45-.74-.59c-.28-.14-.68-.22-1.2-.26l.21-.96h4.86l2.6,7.36c.64-.59,1.24-1.19,1.82-1.82.57-.62.98-1.12,1.21-1.48s.4-.69.49-.98c.09-.29.14-.59.14-.9,0-.72-.42-1.13-1.25-1.23l.21-.96h5.57l.39.96Z"/>
    </g>
  </g>
</svg>