<?xml version="1.0" encoding="UTF-8"?>
<svg xmlns="http://www.w3.org/2000/svg" width="1245" height="1020" xmlns:xlink="http://www.w3.org/1999/xlink" viewBox="0 0 1245 1020">
  <defs>
    <style>
      .uuid-0fb12f68-1178-471a-8981-81287aa0cccc {
        fill: #fff;
      }

      .uuid-964de4b9-1d30-44be-940f-162701fd2497 {
        stroke: #fff;
        stroke-linejoin: bevel;
        stroke-width: 3.41px;
      }

      .uuid-964de4b9-1d30-44be-940f-162701fd2497, .uuid-9f679ffe-6ad5-4950-9af7-29085825cc55, .uuid-19b051cf-2c9a-45aa-ba3f-aa174e377e60, .uuid-65be0a01-fbfe-4263-84c5-7f85241264ac, .uuid-4459d025-db77-4e57-928c-0056c28a81a9, .uuid-9315859a-b86f-44ca-9281-3113ce5d2dbb, .uuid-6d73d0a8-63b7-4263-8c04-83bfe252306b, .uuid-ad54ae61-161e-4610-a1c1-0bdcc37879b8 {
        fill: none;
      }

      .uuid-964de4b9-1d30-44be-940f-162701fd2497, .uuid-85b67ff9-fe48-48fa-ab1e-8310b01c3416 {
        font-family: HelveticaNeue-UltraLight, 'Helvetica Neue UltraLight';
        font-size: 13.64px;
        font-weight: 100;
        isolation: isolate;
      }

      .uuid-9f679ffe-6ad5-4950-9af7-29085825cc55 {
        stroke: #606060;
        stroke-miterlimit: 10;
        stroke-width: 2.27px;
      }

      .uuid-19b051cf-2c9a-45aa-ba3f-aa174e377e60 {
        stroke: silver;
      }

      .uuid-19b051cf-2c9a-45aa-ba3f-aa174e377e60, .uuid-4459d025-db77-4e57-928c-0056c28a81a9 {
        stroke-dasharray: 0 0 1.14 3.41;
        stroke-width: 1.14px;
      }

      .uuid-19b051cf-2c9a-45aa-ba3f-aa174e377e60, .uuid-4459d025-db77-4e57-928c-0056c28a81a9, .uuid-ad54ae61-161e-4610-a1c1-0bdcc37879b8 {
        stroke-linejoin: round;
      }

      .uuid-65be0a01-fbfe-4263-84c5-7f85241264ac {
        clip-path: url(#uuid-9fe7055b-4bbb-40df-b4c2-5de30e97ba54);
      }

      .uuid-da7a37d3-7eef-4eb2-8b22-519e0c814833 {
        fill: #333;
      }

      .uuid-137fdd8a-b4e3-4718-953a-e4839fffb0be {
        fill: #00699b;
      }

      .uuid-4459d025-db77-4e57-928c-0056c28a81a9 {
        stroke: rgba(192, 192, 192, .24);
      }

      .uuid-9315859a-b86f-44ca-9281-3113ce5d2dbb {
        clip-path: url(#uuid-ead4a078-9d94-4913-8714-05d5bcf2936e);
      }

      .uuid-85b67ff9-fe48-48fa-ab1e-8310b01c3416, .uuid-74b58dc9-9aa1-490b-a1b1-b79b99835c6b {
        fill: #606060;
      }

      .uuid-74b58dc9-9aa1-490b-a1b1-b79b99835c6b {
        fill-rule: evenodd;
      }

      .uuid-ad54ae61-161e-4610-a1c1-0bdcc37879b8 {
        stroke: rgba(153, 51, 0, .7);
        stroke-linecap: round;
        stroke-width: 3.98px;
      }
    </style>
    <clipPath id="uuid-9fe7055b-4bbb-40df-b4c2-5de30e97ba54">
      <rect class="uuid-6d73d0a8-63b7-4263-8c04-83bfe252306b" x="0" y="2.61" width="1245" height="1019.39"/>
    </clipPath>
    <clipPath id="uuid-ead4a078-9d94-4913-8714-05d5bcf2936e">
      <rect class="uuid-6d73d0a8-63b7-4263-8c04-83bfe252306b" x="-212.88" y="-10.87" width="1670.76" height="1030.87"/>
    </clipPath>
  </defs>
  <g id="uuid-5c29fa7e-267b-4c8e-b62e-78a277725a33" data-name="Grafica">
    <g class="uuid-65be0a01-fbfe-4263-84c5-7f85241264ac">
      <g class="uuid-9315859a-b86f-44ca-9281-3113ce5d2dbb">
        <g>
          <rect class="uuid-0fb12f68-1178-471a-8981-81287aa0cccc" x="-212.88" y="-10.87" width="1670.76" height="1030.87"/>
          <path class="uuid-19b051cf-2c9a-45aa-ba3f-aa174e377e60" d="m-203.22-10.3V1020.57m0-1030.87V1020.57M-174.8-10.3V1020.57M-145.25-10.3V1020.57M-115.7-10.3V1020.57M-86.15-10.3V1020.57M-56.6-10.3V1020.57M-27.05-10.3V1020.57M2.5-10.3V1020.57M30.91-10.3V1020.57M60.47-10.3V1020.57M90.02-10.3V1020.57M119.57-10.3V1020.57M149.12-10.3V1020.57M178.67-10.3V1020.57M208.22-10.3V1020.57M236.63-10.3V1020.57M266.19-10.3V1020.57M295.74-10.3V1020.57M325.29-10.3V1020.57M354.84-10.3V1020.57M384.39-10.3V1020.57M413.94-10.3V1020.57M443.49-10.3V1020.57M471.9-10.3V1020.57M501.46-10.3V1020.57M531.01-10.3V1020.57M560.56-10.3V1020.57M590.11-10.3V1020.57M649.21-10.3V1020.57M677.62-10.3V1020.57M707.17-10.3V1020.57M736.73-10.3V1020.57M766.28-10.3V1020.57M795.83-10.3V1020.57M825.38-10.3V1020.57M854.93-10.3V1020.57M883.34-10.3V1020.57M912.89-10.3V1020.57M942.44-10.3V1020.57M972-10.3V1020.57M1001.55-10.3V1020.57M1031.1-10.3V1020.57M1060.65-10.3V1020.57M1089.06-10.3V1020.57M1118.61-10.3V1020.57M1148.16-10.3V1020.57M1177.71-10.3V1020.57M1207.27-10.3V1020.57M1236.82-10.3V1020.57M1266.37-10.3V1020.57M1294.78-10.3V1020.57M1324.33-10.3V1020.57M1353.88-10.3V1020.57M1383.43-10.3V1020.57M1412.98-10.3V1020.57M1442.54-10.3V1020.57"/>
          <path class="uuid-4459d025-db77-4e57-928c-0056c28a81a9" d="m-210.04-10.3V1020.57M-197.54-10.3V1020.57M-191.85-10.3V1020.57M-186.17-10.3V1020.57M-180.49-10.3V1020.57M-167.98-10.3V1020.57M-162.3-10.3V1020.57M-156.62-10.3V1020.57M-150.94-10.3V1020.57M-138.43-10.3V1020.57M-132.75-10.3V1020.57M-127.07-10.3V1020.57M-121.39-10.3V1020.57M-110.02-10.3V1020.57M-103.2-10.3V1020.57M-97.52-10.3V1020.57M-91.83-10.3V1020.57M-80.47-10.3V1020.57M-74.79-10.3V1020.57M-67.97-10.3V1020.57M-62.28-10.3V1020.57M-50.92-10.3V1020.57M-45.24-10.3V1020.57M-39.55-10.3V1020.57M-32.73-10.3V1020.57M-21.37-10.3V1020.57M-15.68-10.3V1020.57M-10-10.3V1020.57M-4.32-10.3V1020.57M8.18-10.3V1020.57M13.87-10.3V1020.57M19.55-10.3V1020.57M25.23-10.3V1020.57M37.73-10.3V1020.57M43.42-10.3V1020.57M49.1-10.3V1020.57M54.78-10.3V1020.57M67.29-10.3V1020.57M72.97-10.3V1020.57M78.65-10.3V1020.57M84.33-10.3V1020.57M95.7-10.3V1020.57M102.52-10.3V1020.57M108.2-10.3V1020.57M113.88-10.3V1020.57M125.25-10.3V1020.57M130.93-10.3V1020.57M137.75-10.3V1020.57M143.44-10.3V1020.57M154.8-10.3V1020.57M160.48-10.3V1020.57M166.17-10.3V1020.57M172.99-10.3V1020.57M184.35-10.3V1020.57M190.03-10.3V1020.57M195.72-10.3V1020.57M201.4-10.3V1020.57M213.9-10.3V1020.57M219.59-10.3V1020.57M225.27-10.3V1020.57M230.95-10.3V1020.57M243.45-10.3V1020.57M249.14-10.3V1020.57M254.82-10.3V1020.57M260.5-10.3V1020.57M273-10.3V1020.57M278.69-10.3V1020.57M284.37-10.3V1020.57M290.05-10.3V1020.57M301.42-10.3V1020.57M308.24-10.3V1020.57M313.92-10.3V1020.57M319.6-10.3V1020.57M330.97-10.3V1020.57M336.65-10.3V1020.57M343.47-10.3V1020.57M349.15-10.3V1020.57M360.52-10.3V1020.57M366.2-10.3V1020.57M371.89-10.3V1020.57M378.71-10.3V1020.57M390.07-10.3V1020.57M395.75-10.3V1020.57M401.44-10.3V1020.57M407.12-10.3V1020.57M419.62-10.3V1020.57M425.3-10.3V1020.57M430.99-10.3V1020.57M436.67-10.3V1020.57M449.17-10.3V1020.57M454.86-10.3V1020.57M460.54-10.3V1020.57M466.22-10.3V1020.57M478.72-10.3V1020.57M484.41-10.3V1020.57M490.09-10.3V1020.57M495.77-10.3V1020.57M507.14-10.3V1020.57m6.82-1030.87V1020.57m5.68-1030.87V1020.57m5.68-1030.87V1020.57M536.69-10.3V1020.57m5.68-1030.87V1020.57m6.82-1030.87V1020.57m5.68-1030.87V1020.57M566.24-10.3V1020.57m5.68-1030.87V1020.57m5.68-1030.87V1020.57m6.82-1030.87V1020.57M595.79-10.3V1020.57m5.68-1030.87V1020.57m5.68-1030.87V1020.57m5.68-1030.87V1020.57M625.34-10.3V1020.57m5.68-1030.87V1020.57m5.68-1030.87V1020.57m5.68-1030.87V1020.57M654.89-10.3V1020.57m5.68-1030.87V1020.57m5.68-1030.87V1020.57m5.68-1030.87V1020.57M684.44-10.3V1020.57m5.68-1030.87V1020.57m5.68-1030.87V1020.57m5.68-1030.87V1020.57M712.86-10.3V1020.57m6.82-1030.87V1020.57m5.68-1030.87V1020.57m5.68-1030.87V1020.57M742.41-10.3V1020.57m5.68-1030.87V1020.57m6.82-1030.87V1020.57m5.68-1030.87V1020.57M771.96-10.3V1020.57m5.68-1030.87V1020.57m5.68-1030.87V1020.57m6.82-1030.87V1020.57M801.51-10.3V1020.57m5.68-1030.87V1020.57m5.68-1030.87V1020.57m5.68-1030.87V1020.57M831.06-10.3V1020.57m5.68-1030.87V1020.57m5.68-1030.87V1020.57m5.68-1030.87V1020.57M860.61-10.3V1020.57m5.68-1030.87V1020.57m5.68-1030.87V1020.57m5.68-1030.87V1020.57M890.16-10.3V1020.57m5.68-1030.87V1020.57m5.68-1030.87V1020.57m5.68-1030.87V1020.57M918.58-10.3V1020.57m6.82-1030.87V1020.57m5.68-1030.87V1020.57m5.68-1030.87V1020.57M948.13-10.3V1020.57m5.68-1030.87V1020.57m6.82-1030.87V1020.57m5.68-1030.87V1020.57M977.68-10.3V1020.57m5.68-1030.87V1020.57m5.68-1030.87V1020.57m6.82-1030.87V1020.57M1007.23-10.3V1020.57m5.68-1030.87V1020.57m5.68-1030.87V1020.57m6.82-1030.87V1020.57m11.37-1030.87V1020.57m5.68-1030.87V1020.57m5.68-1030.87V1020.57m5.68-1030.87V1020.57m12.5-1030.87V1020.57m5.68-1030.87V1020.57m5.68-1030.87V1020.57m5.68-1030.87V1020.57m12.5-1030.87V1020.57m5.68-1030.87V1020.57m5.68-1030.87V1020.57m5.68-1030.87V1020.57m11.37-1030.87V1020.57m6.82-1030.87V1020.57m5.68-1030.87V1020.57m5.68-1030.87V1020.57m11.37-1030.87V1020.57m5.68-1030.87V1020.57m6.82-1030.87V1020.57m5.68-1030.87V1020.57m11.37-1030.87V1020.57m5.68-1030.87V1020.57m5.68-1030.87V1020.57m6.82-1030.87V1020.57m11.37-1030.87V1020.57m5.68-1030.87V1020.57m5.68-1030.87V1020.57m6.82-1030.87V1020.57m11.37-1030.87V1020.57m5.68-1030.87V1020.57m5.68-1030.87V1020.57m5.68-1030.87V1020.57m12.5-1030.87V1020.57m5.68-1030.87V1020.57m5.68-1030.87V1020.57m5.68-1030.87V1020.57m12.5-1030.87V1020.57m5.68-1030.87V1020.57m5.68-1030.87V1020.57m5.68-1030.87V1020.57m11.37-1030.87V1020.57m6.82-1030.87V1020.57m5.68-1030.87V1020.57m5.68-1030.87V1020.57m11.37-1030.87V1020.57m5.68-1030.87V1020.57m6.82-1030.87V1020.57m5.68-1030.87V1020.57m11.37-1030.87V1020.57m5.68-1030.87V1020.57m6.82-1030.87V1020.57m5.68-1030.87V1020.57m11.37-1030.87V1020.57m5.68-1030.87V1020.57m5.68-1030.87V1020.57m6.82-1030.87V1020.57m11.37-1030.87V1020.57m5.68-1030.87V1020.57"/>
          <path class="uuid-19b051cf-2c9a-45aa-ba3f-aa174e377e60" d="m-212.31,37.43h1670.76m-1670.76,0h1670.76M-212.31,95.4h1670.76M-212.31,154.5h1670.76M-212.31,213.6h1670.76m-1670.76,59.1h1670.76m-1670.76,57.97h1670.76m-1670.76,59.1h1670.76m-1670.76,59.1h1670.76m-1670.76,117.07h1670.76m-1670.76,59.1h1670.76m-1670.76,59.1h1670.76m-1670.76,57.97h1670.76m-1670.76,59.1h1670.76m-1670.76,59.1h1670.76m-1670.76,57.97h1670.76m-1670.76,59.1h1670.76"/>
          <path class="uuid-4459d025-db77-4e57-928c-0056c28a81a9" d="m-212.31-10.3h1670.76M-212.31,2.2h1670.76M-212.31,13.57h1670.76M-212.31,24.93h1670.76M-212.31,48.8h1670.76M-212.31,60.17h1670.76m-1670.76,12.5h1670.76m-1670.76,11.37h1670.76M-212.31,107.9h1670.76m-1670.76,11.37h1670.76m-1670.76,11.37h1670.76m-1670.76,12.5h1670.76m-1670.76,22.73h1670.76m-1670.76,12.5h1670.76m-1670.76,11.37h1670.76m-1670.76,11.37h1670.76m-1670.76,23.87h1670.76m-1670.76,12.5h1670.76m-1670.76,11.37h1670.76m-1670.76,11.37h1670.76m-1670.76,23.87h1670.76m-1670.76,11.37h1670.76m-1670.76,12.5h1670.76m-1670.76,11.37h1670.76m-1670.76,23.87h1670.76m-1670.76,11.37h1670.76m-1670.76,11.37h1670.76m-1670.76,12.5h1670.76m-1670.76,22.73h1670.76m-1670.76,12.5h1670.76m-1670.76,11.37h1670.76m-1670.76,11.37h1670.76m-1670.76,23.87h1670.76m-1670.76,11.37h1670.76m-1670.76,12.5h1670.76m-1670.76,11.37h1670.76m-1670.76,23.87h1670.76m-1670.76,11.37h1670.76m-1670.76,11.37h1670.76m-1670.76,12.5h1670.76m-1670.76,22.73h1670.76m-1670.76,12.5h1670.76m-1670.76,11.37h1670.76m-1670.76,12.5h1670.76m-1670.76,22.73h1670.76m-1670.76,12.5h1670.76m-1670.76,11.37h1670.76m-1670.76,11.37h1670.76m-1670.76,23.87h1670.76m-1670.76,11.37h1670.76m-1670.76,12.5h1670.76m-1670.76,11.37h1670.76m-1670.76,23.87h1670.76m-1670.76,11.37h1670.76m-1670.76,11.37h1670.76m-1670.76,12.5h1670.76m-1670.76,22.73h1670.76m-1670.76,12.5h1670.76m-1670.76,11.37h1670.76m-1670.76,11.37h1670.76m-1670.76,23.87h1670.76m-1670.76,11.37h1670.76m-1670.76,12.5h1670.76m-1670.76,11.37h1670.76m-1670.76,23.87h1670.76m-1670.76,11.37h1670.76m-1670.76,11.37h1670.76m-1670.76,12.5h1670.76m-1670.76,23.87h1670.76m-1670.76,11.37h1670.76m-1670.76,11.37h1670.76"/>
          <path class="uuid-9f679ffe-6ad5-4950-9af7-29085825cc55" d="m619.09-7.46V1020"/>
          <path class="uuid-74b58dc9-9aa1-490b-a1b1-b79b99835c6b" d="m619.27-8.6l-5.68,22.73h11.37"/>
          <path class="uuid-9f679ffe-6ad5-4950-9af7-29085825cc55" d="m-212.88,507.41h1667.35"/>
          <text class="uuid-85b67ff9-fe48-48fa-ab1e-8310b01c3416" transform="translate(20.12 524.46)"><tspan x="0" y="0">–20</tspan></text>
          <text class="uuid-964de4b9-1d30-44be-940f-162701fd2497" transform="translate(20.12 524.46)"><tspan x="0" y="0">–20</tspan></text>
          <text class="uuid-85b67ff9-fe48-48fa-ab1e-8310b01c3416" transform="translate(20.12 524.46)"><tspan x="0" y="0">–20</tspan></text>
          <path class="uuid-9f679ffe-6ad5-4950-9af7-29085825cc55" d="m31.48,507.41v3.41"/>
          <text class="uuid-85b67ff9-fe48-48fa-ab1e-8310b01c3416" transform="translate(166.74 524.46)"><tspan x="0" y="0">–15</tspan></text>
          <text class="uuid-964de4b9-1d30-44be-940f-162701fd2497" transform="translate(166.74 524.46)"><tspan x="0" y="0">–15</tspan></text>
          <text class="uuid-85b67ff9-fe48-48fa-ab1e-8310b01c3416" transform="translate(166.74 524.46)"><tspan x="0" y="0">–15</tspan></text>
          <path class="uuid-9f679ffe-6ad5-4950-9af7-29085825cc55" d="m178.1,507.41v3.41"/>
          <text class="uuid-85b67ff9-fe48-48fa-ab1e-8310b01c3416" transform="translate(313.35 524.46)"><tspan x="0" y="0">–10</tspan></text>
          <text class="uuid-964de4b9-1d30-44be-940f-162701fd2497" transform="translate(313.35 524.46)"><tspan x="0" y="0">–10</tspan></text>
          <text class="uuid-85b67ff9-fe48-48fa-ab1e-8310b01c3416" transform="translate(313.35 524.46)"><tspan x="0" y="0">–10</tspan></text>
          <path class="uuid-9f679ffe-6ad5-4950-9af7-29085825cc55" d="m325.86,507.41v3.41"/>
          <text class="uuid-85b67ff9-fe48-48fa-ab1e-8310b01c3416" transform="translate(464.52 524.46)"><tspan x="0" y="0">–5</tspan></text>
          <text class="uuid-964de4b9-1d30-44be-940f-162701fd2497" transform="translate(464.52 524.46)"><tspan x="0" y="0">–5</tspan></text>
          <text class="uuid-85b67ff9-fe48-48fa-ab1e-8310b01c3416" transform="translate(464.52 524.46)"><tspan x="0" y="0">–5</tspan></text>
          <path class="uuid-9f679ffe-6ad5-4950-9af7-29085825cc55" d="m472.47,507.41v3.41"/>
          <path class="uuid-9f679ffe-6ad5-4950-9af7-29085825cc55" d="m619.09,507.41v3.41"/>
          <text class="uuid-85b67ff9-fe48-48fa-ab1e-8310b01c3416" transform="translate(762.3 524.46)"><tspan x="0" y="0">5</tspan></text>
          <text class="uuid-964de4b9-1d30-44be-940f-162701fd2497" transform="translate(762.3 524.46)"><tspan x="0" y="0">5</tspan></text>
          <text class="uuid-85b67ff9-fe48-48fa-ab1e-8310b01c3416" transform="translate(762.3 524.46)"><tspan x="0" y="0">5</tspan></text>
          <path class="uuid-9f679ffe-6ad5-4950-9af7-29085825cc55" d="m765.71,507.41v3.41"/>
          <text class="uuid-85b67ff9-fe48-48fa-ab1e-8310b01c3416" transform="translate(905.51 524.46)"><tspan x="0" y="0">10</tspan></text>
          <text class="uuid-964de4b9-1d30-44be-940f-162701fd2497" transform="translate(905.51 524.46)"><tspan x="0" y="0">10</tspan></text>
          <text class="uuid-85b67ff9-fe48-48fa-ab1e-8310b01c3416" transform="translate(905.51 524.46)"><tspan x="0" y="0">10</tspan></text>
          <path class="uuid-9f679ffe-6ad5-4950-9af7-29085825cc55" d="m913.46,507.41v3.41"/>
          <text class="uuid-85b67ff9-fe48-48fa-ab1e-8310b01c3416" transform="translate(1052.12 524.46)"><tspan x="0" y="0">15</tspan></text>
          <text class="uuid-964de4b9-1d30-44be-940f-162701fd2497" transform="translate(1052.12 524.46)"><tspan x="0" y="0">15</tspan></text>
          <text class="uuid-85b67ff9-fe48-48fa-ab1e-8310b01c3416" transform="translate(1052.12 524.46)"><tspan x="0" y="0">15</tspan></text>
          <path class="uuid-9f679ffe-6ad5-4950-9af7-29085825cc55" d="m1060.08,507.41v3.41"/>
          <text class="uuid-85b67ff9-fe48-48fa-ab1e-8310b01c3416" transform="translate(1199.88 524.46)"><tspan x="0" y="0">20</tspan></text>
          <text class="uuid-964de4b9-1d30-44be-940f-162701fd2497" transform="translate(1199.88 524.46)"><tspan x="0" y="0">20</tspan></text>
          <text class="uuid-85b67ff9-fe48-48fa-ab1e-8310b01c3416" transform="translate(1199.88 524.46)"><tspan x="0" y="0">20</tspan></text>
          <path class="uuid-9f679ffe-6ad5-4950-9af7-29085825cc55" d="m1206.7,507.41v3.41"/>
          <path class="uuid-9f679ffe-6ad5-4950-9af7-29085825cc55" d="m615.68,977.95h3.41"/>
          <path class="uuid-9f679ffe-6ad5-4950-9af7-29085825cc55" d="m615.68,859.74h3.41"/>
          <path class="uuid-9f679ffe-6ad5-4950-9af7-29085825cc55" d="m615.68,742.68h3.41"/>
          <path class="uuid-9f679ffe-6ad5-4950-9af7-29085825cc55" d="m615.68,624.47h3.41"/>
          <path class="uuid-9f679ffe-6ad5-4950-9af7-29085825cc55" d="m615.68,389.2h3.41"/>
          <path class="uuid-9f679ffe-6ad5-4950-9af7-29085825cc55" d="m615.68,272.14h3.41"/>
          <path class="uuid-9f679ffe-6ad5-4950-9af7-29085825cc55" d="m615.68,155.07h3.41"/>
          <path class="uuid-9f679ffe-6ad5-4950-9af7-29085825cc55" d="m615.68,36.87h3.41"/>
          <text class="uuid-85b67ff9-fe48-48fa-ab1e-8310b01c3416" transform="translate(596.36 982.49)"><tspan x="0" y="0">–8</tspan></text>
          <text class="uuid-964de4b9-1d30-44be-940f-162701fd2497" transform="translate(596.36 982.49)"><tspan x="0" y="0">–8</tspan></text>
          <text class="uuid-85b67ff9-fe48-48fa-ab1e-8310b01c3416" transform="translate(596.36 982.49)"><tspan x="0" y="0">–8</tspan></text>
          <text class="uuid-85b67ff9-fe48-48fa-ab1e-8310b01c3416" transform="translate(596.36 865.43)"><tspan x="0" y="0">–6</tspan></text>
          <text class="uuid-964de4b9-1d30-44be-940f-162701fd2497" transform="translate(596.36 865.43)"><tspan x="0" y="0">–6</tspan></text>
          <text class="uuid-85b67ff9-fe48-48fa-ab1e-8310b01c3416" transform="translate(596.36 865.43)"><tspan x="0" y="0">–6</tspan></text>
          <text class="uuid-85b67ff9-fe48-48fa-ab1e-8310b01c3416" transform="translate(596.36 747.22)"><tspan x="0" y="0">–4</tspan></text>
          <text class="uuid-964de4b9-1d30-44be-940f-162701fd2497" transform="translate(596.36 747.22)"><tspan x="0" y="0">–4</tspan></text>
          <text class="uuid-85b67ff9-fe48-48fa-ab1e-8310b01c3416" transform="translate(596.36 747.22)"><tspan x="0" y="0">–4</tspan></text>
          <text class="uuid-85b67ff9-fe48-48fa-ab1e-8310b01c3416" transform="translate(596.36 630.16)"><tspan x="0" y="0">–2</tspan></text>
          <text class="uuid-964de4b9-1d30-44be-940f-162701fd2497" transform="translate(596.36 630.16)"><tspan x="0" y="0">–2</tspan></text>
          <text class="uuid-85b67ff9-fe48-48fa-ab1e-8310b01c3416" transform="translate(596.36 630.16)"><tspan x="0" y="0">–2</tspan></text>
          <text class="uuid-85b67ff9-fe48-48fa-ab1e-8310b01c3416" transform="translate(603.18 394.89)"><tspan x="0" y="0">2</tspan></text>
          <text class="uuid-964de4b9-1d30-44be-940f-162701fd2497" transform="translate(603.18 394.89)"><tspan x="0" y="0">2</tspan></text>
          <text class="uuid-85b67ff9-fe48-48fa-ab1e-8310b01c3416" transform="translate(603.18 394.89)"><tspan x="0" y="0">2</tspan></text>
          <text class="uuid-85b67ff9-fe48-48fa-ab1e-8310b01c3416" transform="translate(603.18 277.82)"><tspan x="0" y="0">4</tspan></text>
          <text class="uuid-964de4b9-1d30-44be-940f-162701fd2497" transform="translate(603.18 277.82)"><tspan x="0" y="0">4</tspan></text>
          <text class="uuid-85b67ff9-fe48-48fa-ab1e-8310b01c3416" transform="translate(603.18 277.82)"><tspan x="0" y="0">4</tspan></text>
          <text class="uuid-85b67ff9-fe48-48fa-ab1e-8310b01c3416" transform="translate(603.18 159.62)"><tspan x="0" y="0">6</tspan></text>
          <text class="uuid-964de4b9-1d30-44be-940f-162701fd2497" transform="translate(603.18 159.62)"><tspan x="0" y="0">6</tspan></text>
          <text class="uuid-85b67ff9-fe48-48fa-ab1e-8310b01c3416" transform="translate(603.18 159.62)"><tspan x="0" y="0">6</tspan></text>
          <text class="uuid-85b67ff9-fe48-48fa-ab1e-8310b01c3416" transform="translate(603.18 42.55)"><tspan x="0" y="0">8</tspan></text>
          <text class="uuid-964de4b9-1d30-44be-940f-162701fd2497" transform="translate(603.18 42.55)"><tspan x="0" y="0">8</tspan></text>
          <text class="uuid-85b67ff9-fe48-48fa-ab1e-8310b01c3416" transform="translate(603.18 42.55)"><tspan x="0" y="0">8</tspan></text>
          <text class="uuid-85b67ff9-fe48-48fa-ab1e-8310b01c3416" transform="translate(603.18 524.46)"><tspan x="0" y="0">0</tspan></text>
          <text class="uuid-964de4b9-1d30-44be-940f-162701fd2497" transform="translate(603.18 524.46)"><tspan x="0" y="0">0</tspan></text>
          <text class="uuid-85b67ff9-fe48-48fa-ab1e-8310b01c3416" transform="translate(603.18 524.46)"><tspan x="0" y="0">0</tspan></text>
          <path class="uuid-ad54ae61-161e-4610-a1c1-0bdcc37879b8" d="m-212.88,744.61l6.53-.46,6.53-.47,6.53-.47,6.53-.47,6.53-.48,6.53-.48,6.53-.49,6.53-.49,6.53-.49,6.53-.5,6.53-.5,6.53-.51,6.53-.51,6.53-.52,6.53-.52,6.53-.52,6.53-.53,6.53-.53,6.53-.54,6.53-.54,6.53-.55,6.53-.55,6.53-.56,6.53-.56,6.53-.57,6.53-.58,6.53-.58,6.53-.59,6.53-.59,6.53-.6,6.53-.61,6.53-.61,6.53-.62,6.53-.62,6.53-.63,6.53-.64,6.53-.65,6.53-.65,6.53-.66,6.53-.67,6.53-.67,6.53-.68,6.53-.69,6.53-.7,6.53-.71,6.53-.72,6.53-.72,6.53-.73,6.53-.74,6.53-.75,6.53-.76,6.53-.77,6.53-.78,6.53-.79,6.53-.8,6.53-.81,6.53-.83,6.53-.84,6.53-.85,6.53-.86,6.53-.88,6.53-.89,6.53-.9,6.53-.92,6.53-.93,6.53-.95,6.53-.96,6.53-.98,6.53-.99,6.53-1.01,6.53-1.03,6.53-1.05,6.53-1.07,6.53-1.08,6.53-1.11,6.53-1.13,6.53-1.15,6.53-1.17,6.53-1.19,6.53-1.22,6.53-1.24,6.53-1.27,6.53-1.3,6.53-1.33,6.53-1.36,6.53-1.39,6.53-1.42,6.53-1.46,6.53-1.5,6.53-1.54,6.53-1.58,6.53-1.62,6.53-1.67,6.53-1.71,6.53-1.76,6.53-1.82,6.53-1.88,6.53-1.94,6.53-2,6.53-2.07,6.53-2.15,6.53-2.23,6.53-2.31,6.53-2.41,6.53-2.51,6.53-2.62,6.53-2.74,6.53-2.87,6.53-3.01,6.53-3.17,6.53-3.34,6.53-3.54,6.53-3.75,6.53-4,6.53-4.27,6.53-4.59,6.53-4.95,6.53-5.36,6.53-5.84,6.53-6.4,6.53-7.06,6.53-7.84,6.53-8.74,6.53-9.76,6.53-10.86,3.26-5.83,3.26-6.08,3.26-6.28,3.26-6.43,3.26-6.51,3.26-6.51,3.26-6.44,3.26-6.29,3.26-6.08,3.26-5.84,6.53-10.87,6.53-9.77,6.53-8.75,6.53-7.85,6.53-7.07,6.53-6.41,6.53-5.85,6.53-5.36,6.53-4.95,6.53-4.59,6.53-4.28,6.53-4,6.53-3.76,6.53-3.54,6.53-3.34,6.53-3.17,6.53-3.01,6.53-2.87,6.53-2.74,6.53-2.62,6.53-2.51,6.53-2.41,6.53-2.31,6.53-2.23,6.53-2.15,6.53-2.07,6.53-2,6.53-1.94,6.53-1.88,6.53-1.82,6.53-1.77,6.53-1.71,6.53-1.67,6.53-1.62,6.53-1.58,6.53-1.54,6.53-1.5,6.53-1.46,6.53-1.43,6.53-1.39,6.53-1.36,6.53-1.33,6.53-1.3,6.53-1.27,6.53-1.25,6.53-1.22,6.53-1.19,6.53-1.17,6.53-1.15,6.53-1.13,6.53-1.11,6.53-1.08,6.53-1.07,6.53-1.05,6.53-1.03,6.53-1.01,6.53-.99,6.53-.98,6.53-.96,6.53-.95,6.53-.93,6.53-.92,6.53-.9,6.53-.89,6.53-.88,6.53-.86,6.53-.85,6.53-.84,6.53-.83,6.53-.81,6.53-.8,6.53-.79,6.53-.78,6.53-.77,6.53-.76,6.53-.75,6.53-.74,6.53-.73,6.53-.72,6.53-.72,6.53-.71,6.53-.7,6.53-.69,6.53-.68,6.53-.67,6.53-.67,6.53-.66,6.53-.65,6.53-.65,6.53-.64,6.53-.63,6.53-.62,6.53-.62,6.53-.61,6.53-.61,6.53-.6,6.53-.59,6.53-.59,6.53-.58,6.53-.58,6.53-.57,6.53-.56,6.53-.56,6.53-.55,6.53-.55,6.53-.54,6.53-.54,6.53-.53,6.53-.53,6.53-.52,6.53-.52,6.53-.52,6.53-.51,6.53-.51,6.53-.5,6.53-.5,6.53-.49,6.53-.49,6.53-.49,6.53-.48,6.53-.48,6.53-.47,6.53-.47,6.53-.47,6.53-.46,6.53-.46"/>
        </g>
      </g>
    </g>
  </g>
  <g id="uuid-88255f67-d438-45ec-9742-425734bf27d4" data-name="Marco">
    <path class="uuid-137fdd8a-b4e3-4718-953a-e4839fffb0be" d="m-2-2V1022h1249V-2H-2Zm1232,987c0,11.05-8.95,20-20,20H35c-11.05,0-20-8.95-20-20V35c0-11.05,8.95-20,20-20h1175c11.05,0,20,8.95,20,20v950Z"/>
  </g>
  <g id="uuid-3d49c987-e603-4127-8bbc-06fde6038728" data-name="texto">
    <g>
      <path class="uuid-da7a37d3-7eef-4eb2-8b22-519e0c814833" d="m903.23,252.19c-.13-.99-.25-1.68-.37-2.06s-.31-.68-.57-.88c-.26-.2-.68-.32-1.27-.36l.21-.96h5.02l1.48,15.53c4.4-6.02,6.6-10.33,6.6-12.93,0-.61-.13-1.03-.39-1.25-.26-.22-.7-.35-1.33-.39l.2-.96h5.04l.53.98c-.69,1.81-1.57,3.68-2.65,5.62s-2.39,4.06-3.95,6.37c-1.56,2.3-3.28,4.7-5.19,7.19-1.46,1.91-2.68,3.36-3.67,4.34-.77.74-1.47,1.31-2.12,1.69s-1.27.66-1.88.82-1.25.24-1.92.24c-.35,0-.75-.04-1.19-.11-.44-.07-.82-.17-1.13-.28l.84-3.65h1.52c.01.44.12.79.31,1.05s.48.39.86.39c.42,0,.77-.04,1.07-.13.3-.08.62-.22.95-.42s.74-.51,1.21-.94c.48-.43,1.01-1,1.61-1.71.6-.71,1.27-1.57,2.01-2.57l-1.86-14.63Z"/>
      <path class="uuid-da7a37d3-7eef-4eb2-8b22-519e0c814833" d="m929.73,252.43v-2.6h24.06v2.6h-24.06Zm0,8.11v-2.6h24.06v2.6h-24.06Z"/>
      <path class="uuid-da7a37d3-7eef-4eb2-8b22-519e0c814833" d="m978.4,252.49c-.14-1.17-.48-2.02-1.01-2.55s-1.34-.79-2.45-.79c-.61,0-1.17.11-1.66.34-.5.23-.89.56-1.17,1-.29.44-.43.95-.43,1.53,0,.48.1.92.29,1.32s.52.81.99,1.24c.46.43,1.11.92,1.94,1.48,1.26.85,2.15,1.67,2.66,2.46s.76,1.71.76,2.75c0,1.22-.29,2.26-.88,3.12s-1.39,1.49-2.4,1.9-2.16.62-3.44.62c-1.15,0-2.22-.08-3.21-.25s-1.96-.38-2.9-.64l.92-4.22h1.52c.09,1.2.43,2.09,1.03,2.69.59.59,1.46.89,2.59.89s2.06-.29,2.71-.87c.65-.58.98-1.34.98-2.29,0-.56-.1-1.06-.29-1.5s-.5-.87-.92-1.27c-.42-.4-1.01-.87-1.78-1.39-.82-.56-1.48-1.09-1.99-1.58s-.9-1.04-1.18-1.63c-.28-.59-.42-1.25-.42-1.96,0-1.08.27-2.02.8-2.81.53-.79,1.29-1.4,2.28-1.82.98-.42,2.13-.62,3.45-.62,2.15,0,4.04.28,5.68.84l-.9,4.02h-1.56Z"/>
      <path class="uuid-da7a37d3-7eef-4eb2-8b22-519e0c814833" d="m996.68,262.72c-.96,1.05-1.89,1.89-2.77,2.5-.89.61-1.77,1.05-2.66,1.31-.89.26-1.86.39-2.93.39s-1.91-.17-2.66-.5-1.36-.79-1.85-1.37-.85-1.27-1.08-2.07-.35-1.67-.35-2.61c0-1.39.25-2.89.75-4.48.5-1.59,1.26-3.03,2.28-4.3s2.23-2.25,3.65-2.95c1.42-.7,2.93-1.04,4.53-1.04s2.76.32,3.54.96c.79.64,1.18,1.63,1.18,2.99,0,2.21-1.04,3.87-3.12,4.98-2.08,1.11-5.16,1.66-9.25,1.66-.16.78-.23,1.63-.23,2.54,0,1.37.27,2.36.8,2.98.53.62,1.41.93,2.62.93s2.29-.26,3.26-.78,2-1.32,3.07-2.4l1.21,1.27Zm-10.39-6.19c1.2-.01,2.25-.08,3.15-.21.9-.12,1.68-.29,2.33-.51.65-.21,1.19-.47,1.62-.77s.77-.63,1.03-.99.43-.74.53-1.13.15-.81.15-1.24c0-.79-.19-1.42-.56-1.87s-.92-.67-1.65-.67c-.91,0-1.81.33-2.69.99s-1.65,1.54-2.32,2.66c-.67,1.11-1.2,2.36-1.59,3.74Z"/>
      <path class="uuid-da7a37d3-7eef-4eb2-8b22-519e0c814833" d="m1017.48,266.61h-6.15l2.48-9.92c.16-.64.31-1.34.46-2.11.15-.77.22-1.46.22-2.07,0-.92-.16-1.59-.48-1.99-.32-.4-.82-.61-1.49-.61-.55,0-1.14.21-1.77.63-.63.42-1.29,1.05-1.98,1.89-.69.84-1.27,1.69-1.75,2.56-.48.87-.84,1.92-1.1,3.15l-1.78,8.46h-3.38l2.97-13.34c.06-.3.15-.74.26-1.33.11-.59.17-1.07.17-1.46,0-.36-.06-.65-.17-.85-.11-.2-.3-.35-.57-.45-.27-.1-.72-.17-1.36-.21l.23-1.04,4.43-.18h1.11l-1.31,5.08.23.08c1.28-1.8,2.51-3.13,3.69-3.99,1.18-.87,2.37-1.3,3.55-1.3,1.26,0,2.22.35,2.87,1.04.65.7.98,1.73.98,3.1,0,.47-.04.98-.13,1.53-.08.55-.18,1.04-.28,1.47l-1.64,6.95c-.22.94-.33,1.68-.33,2.23,0,.39.06.7.2.92.13.22.33.39.61.51s.72.21,1.35.27l-.16.96Z"/>
      <path class="uuid-da7a37d3-7eef-4eb2-8b22-519e0c814833" d="m1038.7,266.61h-6.13l2.46-9.92c.18-.72.34-1.44.48-2.18s.21-1.4.21-2c0-.94-.16-1.6-.47-2s-.84-.6-1.58-.6c-.53,0-1.12.22-1.77.66s-1.33,1.12-2.04,2.02c-.72.91-1.29,1.77-1.71,2.6-.42.83-.76,1.81-1.01,2.96l-1.78,8.46h-3.38l5.02-22.32c.14-.65.24-1.12.3-1.42s.1-.56.13-.81c.03-.25.04-.47.04-.66,0-.55-.17-.93-.5-1.15s-.93-.34-1.79-.37l.23-1.02,4.94-.18h1.13l-3.36,13.54.23.08c1.22-1.63,2.39-2.81,3.5-3.55,1.11-.74,2.23-1.11,3.38-1.11,1.26,0,2.22.35,2.87,1.04.65.7.98,1.73.98,3.1,0,.83-.13,1.84-.39,3.01l-1.64,6.95c-.13.56-.22,1.01-.27,1.35-.05.34-.08.63-.08.88,0,.4.07.72.21.94s.34.39.62.5c.28.11.73.2,1.34.26l-.18.96Z"/>
      <path class="uuid-da7a37d3-7eef-4eb2-8b22-519e0c814833" d="m1047.82,248.18h-4.98l.38-1.77h4.98l-.38,1.77Z"/>
      <path class="uuid-da7a37d3-7eef-4eb2-8b22-519e0c814833" d="m1056.05,250c-.14.62-.21,1.07-.21,1.33,0,.3.08.53.24.68.16.15.42.25.79.32.37.06.94.11,1.71.13l-.17.83h-8.04l.17-.83c.64-.03,1.13-.07,1.47-.12.34-.05.62-.13.83-.22.21-.09.38-.2.51-.33s.24-.3.34-.51c.1-.21.19-.53.28-.96l1.82-8.26c.07-.32.12-.57.15-.76s.05-.35.05-.47c0-.23-.06-.39-.17-.48-.11-.09-.25-.14-.41-.14-.2,0-.5.1-.9.29s-1,.53-1.8,1l-.44-.91,5.77-3.02h.79l-.33,1.33c-.12.49-.25,1.05-.39,1.7l-2.07,9.41Z"/>
      <path class="uuid-da7a37d3-7eef-4eb2-8b22-519e0c814833" d="m1088.72,248.89c-2.53,2.7-5.17,5.36-7.93,7.99l1.82,4.28c.48,1.15.87,1.99,1.15,2.53.29.54.55.93.78,1.17s.47.42.7.53.61.2,1.11.26l-.21.96h-4.86l-2.71-7.85c-.31.27-.73.65-1.24,1.14-.51.49-1.01,1.01-1.49,1.56-.48.55-.82,1-1.02,1.34s-.32.63-.38.88-.09.5-.09.76c0,.34.09.61.28.8.19.2.51.33.97.41l-.21.96h-5.57l-.37-.96c2.85-3.06,5.66-5.88,8.42-8.46l-1.86-4.36c-.38-.89-.68-1.56-.92-2.02s-.46-.82-.67-1.07-.46-.45-.74-.59c-.28-.14-.68-.22-1.2-.26l.21-.96h4.86l2.6,7.36c.64-.59,1.24-1.19,1.82-1.82.57-.62.98-1.12,1.21-1.48s.4-.69.49-.98c.09-.29.14-.59.14-.9,0-.72-.42-1.13-1.25-1.23l.21-.96h5.57l.39.96Z"/>
    </g>
  </g>
</svg>