<?xml version="1.0" encoding="UTF-8"?>
<svg xmlns="http://www.w3.org/2000/svg" width="1245" height="1020" xmlns:xlink="http://www.w3.org/1999/xlink" viewBox="0 0 1245 1020">
  <defs>
    <style>
      .uuid-a239bd4a-531d-464b-9f44-c998aca73a56 {
        stroke: rgba(255, 85, 0, .7);
        stroke-linecap: round;
        stroke-width: 4.02px;
      }

      .uuid-a239bd4a-531d-464b-9f44-c998aca73a56, .uuid-8472215d-7c23-4ca6-aabc-3bd04ffd7b33, .uuid-91fe0009-b778-4986-9fc4-40c233e1371e, .uuid-95f19ba9-3407-471e-862c-38fa7d548c90, .uuid-718c9d38-ee36-41c0-9eb3-7fd3f1979e5f, .uuid-d37c8f4f-4708-4b4b-9352-bd61c9f7dbde, .uuid-0c923758-b94d-4729-ad23-90cf8c265fe7, .uuid-81446955-865a-4657-a636-63ccddcc1371 {
        fill: none;
      }

      .uuid-a239bd4a-531d-464b-9f44-c998aca73a56, .uuid-91fe0009-b778-4986-9fc4-40c233e1371e, .uuid-95f19ba9-3407-471e-862c-38fa7d548c90 {
        stroke-linejoin: round;
      }

      .uuid-8472215d-7c23-4ca6-aabc-3bd04ffd7b33 {
        stroke: #606060;
        stroke-miterlimit: 10;
        stroke-width: 2.3px;
      }

      .uuid-10b96547-3d8d-4f97-a1af-cde33954b26a {
        fill: #fff;
      }

      .uuid-91fe0009-b778-4986-9fc4-40c233e1371e {
        stroke: silver;
      }

      .uuid-91fe0009-b778-4986-9fc4-40c233e1371e, .uuid-95f19ba9-3407-471e-862c-38fa7d548c90 {
        stroke-dasharray: 0 0 1.15 3.45;
        stroke-width: 1.15px;
      }

      .uuid-95f19ba9-3407-471e-862c-38fa7d548c90 {
        stroke: rgba(192, 192, 192, .24);
      }

      .uuid-d09e65d5-498d-451f-aa37-642b6ce69f61 {
        fill: #333;
      }

      .uuid-718c9d38-ee36-41c0-9eb3-7fd3f1979e5f {
        clip-path: url(#uuid-477fb131-8801-49bc-83fb-26d94b7b5242);
      }

      .uuid-c73f2947-9fb0-4762-b96f-3ccd3a780e51 {
        fill: #00699b;
      }

      .uuid-d37c8f4f-4708-4b4b-9352-bd61c9f7dbde {
        clip-path: url(#uuid-af0a9e8b-d982-43ce-a389-d12626ecf418);
      }

      .uuid-81446955-865a-4657-a636-63ccddcc1371 {
        stroke: #fff;
        stroke-linejoin: bevel;
        stroke-width: 3.45px;
      }

      .uuid-81446955-865a-4657-a636-63ccddcc1371, .uuid-85892497-3208-455a-be19-e63011f056e0 {
        font-family: HelveticaNeue-UltraLight, 'Helvetica Neue UltraLight';
        font-size: 13.78px;
        font-weight: 100;
        isolation: isolate;
      }

      .uuid-ecf93495-46f3-4937-8f33-efe15fb861c5 {
        fill-rule: evenodd;
      }

      .uuid-ecf93495-46f3-4937-8f33-efe15fb861c5, .uuid-85892497-3208-455a-be19-e63011f056e0 {
        fill: #606060;
      }
    </style>
    <clipPath id="uuid-477fb131-8801-49bc-83fb-26d94b7b5242">
      <rect class="uuid-0c923758-b94d-4729-ad23-90cf8c265fe7" y="2.61" width="1245" height="1019.39"/>
    </clipPath>
    <clipPath id="uuid-af0a9e8b-d982-43ce-a389-d12626ecf418">
      <rect class="uuid-0c923758-b94d-4729-ad23-90cf8c265fe7" x="-431.25" y="-10.1" width="1688.25" height="1041.66"/>
    </clipPath>
  </defs>
  <g id="uuid-9aed5063-87fa-4e41-8f70-35fe820510f1" data-name="Grafica">
    <g class="uuid-718c9d38-ee36-41c0-9eb3-7fd3f1979e5f">
      <g class="uuid-d37c8f4f-4708-4b4b-9352-bd61c9f7dbde">
        <g>
          <rect class="uuid-10b96547-3d8d-4f97-a1af-cde33954b26a" x="-431.25" y="-10.1" width="1688.25" height="1041.66"/>
          <path class="uuid-91fe0009-b778-4986-9fc4-40c233e1371e" d="m-354.88-9.52v1041.66m0-1041.66v1041.66M1184.07-9.52v1041.66"/>
          <path class="uuid-95f19ba9-3407-471e-862c-38fa7d548c90" d="m-200.98-9.52v1041.66M-47.09-9.52v1041.66M106.81-9.52v1041.66M260.7-9.52v1041.66M568.49-9.52v1041.66M722.39-9.52v1041.66M876.28-9.52v1041.66M1030.18-9.52v1041.66"/>
          <path class="uuid-91fe0009-b778-4986-9fc4-40c233e1371e" d="m-430.68,37.56h1688.25m-1688.25,0h1688.25M-430.68,191.46h1688.25M-430.68,345.35h1688.25M-430.68,499.25h1688.25m-1688.25,153.89h1688.25M-430.68,960.93h1688.25"/>
          <path class="uuid-95f19ba9-3407-471e-862c-38fa7d548c90" d="m-430.68,6.56h1688.25m-1688.25,0h1688.25M-430.68,68.57h1688.25m-1688.25,29.86h1688.25m-1688.25,31.01h1688.25m-1688.25,31.01h1688.25m-1688.25,62.02h1688.25m-1688.25,29.86h1688.25m-1688.25,31.01h1688.25m-1688.25,31.01h1688.25m-1688.25,60.87h1688.25m-1688.25,31.01h1688.25m-1688.25,31.01h1688.25m-1688.25,31.01h1688.25m-1688.25,60.87h1688.25m-1688.25,31.01h1688.25m-1688.25,31.01h1688.25m-1688.25,31.01h1688.25m-1688.25,60.87h1688.25m-1688.25,31.01h1688.25m-1688.25,31.01h1688.25m-1688.25,31.01h1688.25m-1688.25,60.87h1688.25m-1688.25,31.01h1688.25m-1688.25,31.01h1688.25m-1688.25,31.01h1688.25m-1688.25,60.87h1688.25m-1688.25,31.01h1688.25"/>
          <path class="uuid-8472215d-7c23-4ca6-aabc-3bd04ffd7b33" d="m415.17-6.65v1038.22"/>
          <path class="uuid-ecf93495-46f3-4937-8f33-efe15fb861c5" d="m414.88-7.8l-5.74,22.97h11.48"/>
          <path class="uuid-8472215d-7c23-4ca6-aabc-3bd04ffd7b33" d="m-431.25,806.47h1684.8"/>
          <path class="uuid-ecf93495-46f3-4937-8f33-efe15fb861c5" d="m1254.7,806.63l-22.97-5.74v11.48"/>
          <text class="uuid-85892497-3208-455a-be19-e63011f056e0" transform="translate(1181.2 824.84)"><tspan x="0" y="0">1</tspan></text>
          <text class="uuid-81446955-865a-4657-a636-63ccddcc1371" transform="translate(1181.2 824.84)"><tspan x="0" y="0">1</tspan></text>
          <text class="uuid-85892497-3208-455a-be19-e63011f056e0" transform="translate(1181.2 824.84)"><tspan x="0" y="0">1</tspan></text>
          <text class="uuid-85892497-3208-455a-be19-e63011f056e0" transform="translate(391.05 966.1)"><tspan x="0" y="0">–1</tspan></text>
          <text class="uuid-81446955-865a-4657-a636-63ccddcc1371" transform="translate(391.05 966.1)"><tspan x="0" y="0">–1</tspan></text>
          <text class="uuid-85892497-3208-455a-be19-e63011f056e0" transform="translate(391.05 966.1)"><tspan x="0" y="0">–1</tspan></text>
          <text class="uuid-85892497-3208-455a-be19-e63011f056e0" transform="translate(397.94 658.31)"><tspan x="0" y="0">1</tspan></text>
          <text class="uuid-81446955-865a-4657-a636-63ccddcc1371" transform="translate(397.94 658.31)"><tspan x="0" y="0">1</tspan></text>
          <text class="uuid-85892497-3208-455a-be19-e63011f056e0" transform="translate(397.94 658.31)"><tspan x="0" y="0">1</tspan></text>
          <text class="uuid-85892497-3208-455a-be19-e63011f056e0" transform="translate(397.94 504.42)"><tspan x="0" y="0">2</tspan></text>
          <text class="uuid-81446955-865a-4657-a636-63ccddcc1371" transform="translate(397.94 504.42)"><tspan x="0" y="0">2</tspan></text>
          <text class="uuid-85892497-3208-455a-be19-e63011f056e0" transform="translate(397.94 504.42)"><tspan x="0" y="0">2</tspan></text>
          <text class="uuid-85892497-3208-455a-be19-e63011f056e0" transform="translate(397.94 350.52)"><tspan x="0" y="0">3</tspan></text>
          <text class="uuid-81446955-865a-4657-a636-63ccddcc1371" transform="translate(397.94 350.52)"><tspan x="0" y="0">3</tspan></text>
          <text class="uuid-85892497-3208-455a-be19-e63011f056e0" transform="translate(397.94 350.52)"><tspan x="0" y="0">3</tspan></text>
          <text class="uuid-85892497-3208-455a-be19-e63011f056e0" transform="translate(397.94 196.63)"><tspan x="0" y="0">4</tspan></text>
          <text class="uuid-81446955-865a-4657-a636-63ccddcc1371" transform="translate(397.94 196.63)"><tspan x="0" y="0">4</tspan></text>
          <text class="uuid-85892497-3208-455a-be19-e63011f056e0" transform="translate(397.94 196.63)"><tspan x="0" y="0">4</tspan></text>
          <text class="uuid-85892497-3208-455a-be19-e63011f056e0" transform="translate(397.94 42.73)"><tspan x="0" y="0">5</tspan></text>
          <text class="uuid-81446955-865a-4657-a636-63ccddcc1371" transform="translate(397.94 42.73)"><tspan x="0" y="0">5</tspan></text>
          <text class="uuid-85892497-3208-455a-be19-e63011f056e0" transform="translate(397.94 42.73)"><tspan x="0" y="0">5</tspan></text>
          <text class="uuid-85892497-3208-455a-be19-e63011f056e0" transform="translate(397.94 824.84)"><tspan x="0" y="0">0</tspan></text>
          <text class="uuid-81446955-865a-4657-a636-63ccddcc1371" transform="translate(397.94 824.84)"><tspan x="0" y="0">0</tspan></text>
          <text class="uuid-85892497-3208-455a-be19-e63011f056e0" transform="translate(397.94 824.84)"><tspan x="0" y="0">0</tspan></text>
          <path class="uuid-a239bd4a-531d-464b-9f44-c998aca73a56" d="m421.94-21.71l.41,8.72.41,8.25.41,7.83.41,7.45.41,7.11.41,6.8.41,6.51.41,6.24.41,6,.41,5.78m0,0l.82,10.94.82,10.21.82,9.58.82,9.02.82,8.52.82,8.07.82,7.67.82,7.31.82,6.97.82,6.67.82,6.4.82,6.14.82,5.9.82,5.69,1.65,10.78m0,0l1.65,10.07,1.65,9.46,1.65,8.91,1.65,8.42,1.65,7.99,1.65,7.59,1.65,7.24,1.65,6.91,1.65,6.62,1.65,6.35,1.65,6.09,1.65,5.86,3.3,11.1,3.3,10.36m0,0l3.3,9.71,3.3,9.14,3.3,8.63,3.3,8.17,3.3,7.76,3.3,7.4,3.3,7.06,3.3,6.76,3.3,6.47,3.3,6.22,3.3,5.98,3.3,5.76,6.59,10.92,6.59,10.22m0,0l6.59,9.6,6.59,9.05,6.59,8.56,6.59,8.13,6.59,7.74,6.59,7.38,6.59,7.06,6.59,6.77,6.59,6.5,6.59,6.26,6.59,6.03,6.59,5.82,6.59,5.62,6.59,5.44,6.59,5.28,6.59,5.12m0,0l6.59,4.97,6.59,4.84,6.59,4.71,6.59,4.59,6.59,4.47,6.59,4.36,6.59,4.26,6.59,4.17,6.59,4.08,6.59,3.99,6.59,3.91,6.59,3.83,6.59,3.76,6.59,3.69,6.59,3.63,6.59,3.57,6.59,3.51,6.59,3.45,6.59,3.4,6.59,3.34,6.59,3.3,6.59,3.25,6.59,3.21,6.59,3.16,6.59,3.12,6.59,3.09,6.59,3.05,6.59,3.02,6.59,2.98,6.59,2.95,6.59,2.92,6.59,2.9m0,0l6.59,2.87,6.59,2.85,6.59,2.82,6.59,2.8,6.59,2.78,6.59,2.76,6.59,2.74,6.59,2.73,6.59,2.71,6.59,2.7,6.59,2.69,6.59,2.68,6.59,2.67,6.59,2.66,6.59,2.65,6.59,2.65,6.59,2.64,6.59,2.64,6.59,2.64,6.59,2.64,6.59,2.64,6.59,2.64,6.59,2.65,6.59,2.66,6.59,2.67,6.59,2.68,6.59,2.69,6.59,2.71,6.59,2.72,6.59,2.74,6.59,2.77,6.59,2.8m0,0l6.59,2.83,6.59,2.86,6.59,2.9,6.59,2.95,6.59,3,6.59,3.06,6.59,3.12,6.59,3.2,6.59,3.28,6.59,3.38,6.59,3.5,6.59,3.64,6.59,3.8,6.59,4.01,6.59,4.26,6.59,4.58m0,0l6.59,5.01,6.59,5.63,6.59,6.62,6.59,8.58m0,0l3.19,5.85,1.59,4.12.8,2.91.8,7.01"/>
        </g>
      </g>
    </g>
  </g>
  <g id="uuid-ab9143aa-51ad-40bc-8b42-0e596e42382c" data-name="Marco">
    <path class="uuid-c73f2947-9fb0-4762-b96f-3ccd3a780e51" d="m-2-2V1022h1249V-2H-2Zm1232,987c0,11.05-8.95,20-20,20H35c-11.05,0-20-8.95-20-20V35c0-11.05,8.95-20,20-20h1175c11.05,0,20,8.95,20,20v950Z"/>
  </g>
  <g id="uuid-c4fed5a3-9451-4373-8f63-e2687260c31b" data-name="texto">
    <g>
      <path class="uuid-d09e65d5-498d-451f-aa37-642b6ce69f61" d="m897.33,553.85c-.13-.99-.25-1.68-.37-2.06s-.31-.68-.57-.88c-.26-.2-.68-.32-1.27-.36l.21-.96h5.02l1.48,15.53c4.4-6.02,6.6-10.33,6.6-12.93,0-.61-.13-1.03-.39-1.25-.26-.22-.7-.35-1.33-.39l.2-.96h5.04l.53.98c-.69,1.81-1.57,3.68-2.65,5.62s-2.39,4.06-3.95,6.37c-1.56,2.3-3.29,4.7-5.19,7.19-1.46,1.91-2.68,3.36-3.67,4.34-.77.74-1.47,1.31-2.12,1.69s-1.27.66-1.88.82-1.25.24-1.92.24c-.35,0-.75-.04-1.19-.11s-.82-.17-1.13-.28l.84-3.65h1.52c.01.44.12.79.31,1.05s.48.39.86.39c.42,0,.77-.04,1.07-.13s.62-.22.95-.42.74-.51,1.21-.94c.47-.43,1.01-1,1.61-1.71.6-.71,1.27-1.57,2.01-2.57l-1.86-14.63Z"/>
      <path class="uuid-d09e65d5-498d-451f-aa37-642b6ce69f61" d="m923.83,554.08v-2.6h24.06v2.6h-24.06Zm0,8.11v-2.6h24.06v2.6h-24.06Z"/>
      <path class="uuid-d09e65d5-498d-451f-aa37-642b6ce69f61" d="m972.51,554.14c-.14-1.17-.48-2.02-1.01-2.55s-1.34-.79-2.45-.79c-.61,0-1.17.11-1.66.34-.5.23-.89.56-1.17,1-.29.44-.43.95-.43,1.53,0,.48.1.92.29,1.32s.52.81.99,1.24c.46.43,1.11.92,1.94,1.48,1.26.85,2.15,1.67,2.66,2.46s.76,1.71.76,2.75c0,1.22-.29,2.26-.88,3.12s-1.39,1.49-2.4,1.9-2.16.62-3.44.62c-1.15,0-2.22-.08-3.21-.25s-1.96-.38-2.9-.64l.92-4.22h1.52c.09,1.2.43,2.09,1.03,2.69.59.59,1.46.89,2.59.89s2.06-.29,2.71-.87c.65-.58.98-1.34.98-2.29,0-.56-.1-1.06-.29-1.5s-.5-.87-.92-1.27c-.42-.4-1.01-.87-1.78-1.39-.82-.56-1.48-1.09-1.99-1.58s-.9-1.04-1.18-1.63c-.28-.59-.42-1.25-.42-1.96,0-1.08.27-2.02.8-2.81.53-.79,1.29-1.4,2.28-1.82.98-.42,2.13-.62,3.45-.62,2.15,0,4.04.28,5.68.84l-.9,4.02h-1.56Z"/>
      <path class="uuid-d09e65d5-498d-451f-aa37-642b6ce69f61" d="m990.79,564.37c-.96,1.05-1.89,1.89-2.77,2.5-.89.61-1.77,1.05-2.66,1.31-.89.26-1.86.39-2.93.39s-1.91-.17-2.66-.5-1.36-.79-1.85-1.37-.85-1.27-1.08-2.07-.35-1.67-.35-2.61c0-1.39.25-2.89.75-4.48.5-1.59,1.26-3.03,2.28-4.3s2.23-2.25,3.65-2.95c1.42-.7,2.93-1.04,4.53-1.04s2.76.32,3.54.96c.79.64,1.18,1.63,1.18,2.99,0,2.21-1.04,3.87-3.12,4.98-2.08,1.11-5.16,1.66-9.25,1.66-.16.78-.23,1.63-.23,2.54,0,1.37.27,2.36.8,2.98.53.62,1.41.93,2.62.93s2.29-.26,3.26-.78,2-1.32,3.07-2.4l1.21,1.27Zm-10.39-6.19c1.2-.01,2.25-.08,3.15-.21.9-.12,1.68-.29,2.33-.51.65-.21,1.19-.47,1.62-.77s.77-.63,1.03-.99.43-.74.53-1.13.15-.81.15-1.24c0-.79-.19-1.42-.56-1.87s-.92-.67-1.65-.67c-.91,0-1.81.33-2.69.99s-1.65,1.54-2.32,2.66c-.67,1.11-1.2,2.36-1.59,3.74Z"/>
      <path class="uuid-d09e65d5-498d-451f-aa37-642b6ce69f61" d="m1007.53,554.28c-.03-.99-.11-1.71-.24-2.15s-.36-.77-.66-1c-.31-.22-.74-.33-1.3-.33-1.32,0-2.5.52-3.54,1.57-1.05,1.05-1.9,2.53-2.57,4.45s-1,3.77-1,5.54c0,.55.05,1.06.15,1.54s.27.9.51,1.25c.24.35.56.63.96.83.4.2.9.3,1.51.3,1.18,0,2.21-.22,3.08-.67.87-.45,1.78-1.16,2.74-2.12l1.19,1.19c-1.22,1.35-2.46,2.34-3.7,2.97-1.24.62-2.58.94-4.01.94-1.89,0-3.32-.56-4.3-1.68s-1.46-2.75-1.46-4.88c0-1.39.26-2.92.78-4.59.52-1.67,1.28-3.13,2.29-4.39,1-1.26,2.17-2.21,3.52-2.83,1.34-.62,2.77-.94,4.3-.94,1.04,0,1.95.06,2.72.18.77.12,1.46.25,2.06.41l-.96,4.41h-2.05Z"/>
      <path class="uuid-d09e65d5-498d-451f-aa37-642b6ce69f61" d="m1028.52,568.26h-6.13l2.46-9.92c.18-.72.34-1.44.48-2.18s.21-1.4.21-2c0-.94-.16-1.6-.47-2s-.84-.6-1.58-.6c-.53,0-1.12.22-1.77.66s-1.33,1.12-2.04,2.02c-.72.91-1.29,1.77-1.71,2.6-.42.83-.76,1.81-1.01,2.96l-1.78,8.46h-3.38l5.02-22.32c.14-.65.24-1.12.3-1.42s.1-.56.13-.81c.03-.25.04-.47.04-.66,0-.55-.17-.93-.5-1.15s-.93-.34-1.79-.37l.23-1.02,4.94-.18h1.13l-3.36,13.54.23.08c1.22-1.63,2.39-2.81,3.5-3.55,1.11-.74,2.23-1.11,3.38-1.11,1.26,0,2.22.35,2.87,1.04.65.7.98,1.73.98,3.1,0,.83-.13,1.84-.39,3.01l-1.64,6.95c-.13.56-.22,1.01-.27,1.35-.05.34-.08.63-.08.88,0,.4.07.72.21.94s.34.39.62.5c.28.11.73.2,1.34.26l-.18.96Z"/>
      <path class="uuid-d09e65d5-498d-451f-aa37-642b6ce69f61" d="m1037.65,549.83h-4.98l.38-1.77h4.98l-.38,1.77Z"/>
      <path class="uuid-d09e65d5-498d-451f-aa37-642b6ce69f61" d="m1045.88,551.65c-.14.62-.21,1.07-.21,1.33,0,.3.08.53.24.68.16.15.42.25.79.32s.94.11,1.71.13l-.17.83h-8.04l.17-.83c.64-.03,1.13-.07,1.47-.12.34-.05.62-.13.83-.22.21-.09.38-.2.51-.33s.24-.3.34-.51c.1-.21.19-.53.29-.96l1.82-8.26c.07-.32.12-.57.15-.76s.05-.35.05-.47c0-.23-.06-.39-.17-.48-.11-.09-.25-.14-.41-.14-.2,0-.5.1-.9.29s-1,.53-1.8,1l-.44-.91,5.77-3.02h.79l-.33,1.33c-.12.49-.25,1.05-.39,1.7l-2.07,9.41Z"/>
      <path class="uuid-d09e65d5-498d-451f-aa37-642b6ce69f61" d="m1078.55,550.55c-2.53,2.7-5.17,5.36-7.93,7.99l1.82,4.28c.48,1.15.87,1.99,1.15,2.53.29.54.55.93.78,1.17s.47.42.7.53.61.2,1.11.26l-.21.96h-4.86l-2.71-7.85c-.31.27-.73.65-1.24,1.14-.51.49-1.01,1.01-1.49,1.56-.48.55-.82,1-1.02,1.34s-.32.63-.38.88-.09.5-.09.76c0,.34.09.61.28.8.19.2.51.33.97.41l-.21.96h-5.57l-.37-.96c2.85-3.06,5.66-5.88,8.42-8.46l-1.86-4.36c-.38-.89-.68-1.56-.92-2.02s-.46-.82-.67-1.07-.46-.45-.74-.59c-.28-.14-.68-.22-1.2-.26l.21-.96h4.86l2.6,7.36c.64-.59,1.24-1.19,1.82-1.82.57-.62.98-1.12,1.21-1.48s.4-.69.49-.98c.09-.29.14-.59.14-.9,0-.72-.42-1.13-1.25-1.23l.21-.96h5.57l.39.96Z"/>
    </g>
  </g>
</svg>