<?xml version="1.0" encoding="UTF-8"?>
<svg xmlns="http://www.w3.org/2000/svg" width="1245" height="1020" xmlns:xlink="http://www.w3.org/1999/xlink" viewBox="0 0 1245 1020">
  <defs>
    <style>
      .uuid-0150f837-452f-4d16-ba7c-099cd4d094d4 {
        fill: #fff;
      }

      .uuid-8512d119-2781-4658-9953-46d9938c3b35 {
        stroke: silver;
      }

      .uuid-8512d119-2781-4658-9953-46d9938c3b35, .uuid-0080199b-6da8-4bef-95eb-9211dd8036d3, .uuid-0c6d8b6e-1c5b-41b6-be92-9432d4565ee5, .uuid-6172da1d-b215-44cd-b27e-da53932e39c7, .uuid-3c3de5e8-0cb5-47a2-833e-9c20f6da81d4, .uuid-3be953b1-1d1d-4d46-ae68-ee36da8cfda4, .uuid-1a48d02d-99dc-4969-a9c4-a8018645b0b3, .uuid-7ea4407a-8052-47cf-b2b3-f3646413250c {
        fill: none;
      }

      .uuid-8512d119-2781-4658-9953-46d9938c3b35, .uuid-1a48d02d-99dc-4969-a9c4-a8018645b0b3 {
        stroke-width: 1.12px;
      }

      .uuid-8512d119-2781-4658-9953-46d9938c3b35, .uuid-1a48d02d-99dc-4969-a9c4-a8018645b0b3, .uuid-7ea4407a-8052-47cf-b2b3-f3646413250c {
        stroke-linecap: round;
        stroke-linejoin: round;
      }

      .uuid-0080199b-6da8-4bef-95eb-9211dd8036d3 {
        stroke: #606060;
        stroke-miterlimit: 10;
        stroke-width: 2.25px;
      }

      .uuid-0c6d8b6e-1c5b-41b6-be92-9432d4565ee5 {
        clip-path: url(#uuid-e78c3877-1d16-418f-a120-4bcef49d468e);
      }

      .uuid-cd9316e3-d777-4568-9be8-50a2455a3fc1 {
        fill: #606060;
      }

      .uuid-cd9316e3-d777-4568-9be8-50a2455a3fc1, .uuid-6172da1d-b215-44cd-b27e-da53932e39c7 {
        font-family: HelveticaNeue-UltraLight, 'Helvetica Neue UltraLight';
        font-size: 13.5px;
        font-weight: 100;
        isolation: isolate;
      }

      .uuid-be3a7c9e-7fe0-4c39-8796-807bbd568042 {
        fill: #333;
      }

      .uuid-6172da1d-b215-44cd-b27e-da53932e39c7 {
        stroke: #fff;
        stroke-linejoin: bevel;
        stroke-width: 3.37px;
      }

      .uuid-3c3de5e8-0cb5-47a2-833e-9c20f6da81d4 {
        clip-path: url(#uuid-2750641b-da38-4624-8a72-349f93462fa7);
      }

      .uuid-4058fa3d-43bf-47f8-84a2-47d998316c31 {
        fill: #00699b;
      }

      .uuid-1a48d02d-99dc-4969-a9c4-a8018645b0b3 {
        stroke: rgba(192, 192, 192, .24);
      }

      .uuid-7ea4407a-8052-47cf-b2b3-f3646413250c {
        stroke: rgba(153, 51, 0, .7);
        stroke-width: 3.94px;
      }
    </style>
    <clipPath id="uuid-2750641b-da38-4624-8a72-349f93462fa7">
      <rect class="uuid-3be953b1-1d1d-4d46-ae68-ee36da8cfda4" x="0" y="2.61" width="1245" height="1019.39"/>
    </clipPath>
    <clipPath id="uuid-e78c3877-1d16-418f-a120-4bcef49d468e">
      <rect class="uuid-3be953b1-1d1d-4d46-ae68-ee36da8cfda4" x="-72.49" width="1389.99" height="1020"/>
    </clipPath>
  </defs>
  <g id="uuid-1cdcc022-1ffe-4d66-b238-459891ba5e09" data-name="Grafica">
    <g class="uuid-3c3de5e8-0cb5-47a2-833e-9c20f6da81d4">
      <g class="uuid-0c6d8b6e-1c5b-41b6-be92-9432d4565ee5">
        <g>
          <rect class="uuid-0150f837-452f-4d16-ba7c-099cd4d094d4" x="-72.49" width="1389.99" height="1020"/>
          <path class="uuid-8512d119-2781-4658-9953-46d9938c3b35" d="m60.77.56v1020M60.77.56v1020M201.34.56v1020M343.04.56v1020M483.61.56v1020M765.88.56v1020M907.58.56v1020M1048.16.56v1020M1189.85.56v1020"/>
          <path class="uuid-1a48d02d-99dc-4969-a9c4-a8018645b0b3" d="m-52.81.56v1020M-24.7.56v1020M3.42.56v1020M31.53.56v1020M88.88.56v1020M117,.56v1020M145.11.56v1020M173.23.56v1020M229.46.56v1020M257.57.56v1020M285.69.56v1020M314.93.56v1020M371.15.56v1020M399.27.56v1020M427.38.56v1020M455.5.56v1020M511.73.56v1020M539.84.56v1020M569.08.56v1020M597.2.56v1020M653.43.56v1020M681.54.56v1020M709.66.56v1020M737.77.56v1020M794,.56v1020M823.24.56v1020M851.35.56v1020M879.47.56v1020M935.7.56v1020M963.81.56v1020M991.93.56v1020M1020.04.56v1020M1077.4.56v1020M1105.51.56v1020M1133.62.56v1020M1161.74.56v1020M1217.97.56v1020M1246.08.56v1020M1274.2.56v1020M1302.31.56v1020"/>
          <path class="uuid-8512d119-2781-4658-9953-46d9938c3b35" d="m-71.93,89.4h1389.99m-1389.99,0h1389.99M-71.93,209.74h1389.99M-71.93,330.07h1389.99M-71.93,450.4h1389.99M-71.93,569.6h1389.99M-71.93,689.93h1389.99M-71.93,810.26h1389.99"/>
          <path class="uuid-1a48d02d-99dc-4969-a9c4-a8018645b0b3" d="m-71.93,17.43h1389.99m-1389.99,0h1389.99M-71.93,42.17h1389.99M-71.93,65.79h1389.99M-71.93,114.15h1389.99M-71.93,137.76h1389.99M-71.93,161.38h1389.99M-71.93,186.12h1389.99M-71.93,233.35h1389.99m-1389.99,24.74h1389.99m-1389.99,23.62h1389.99m-1389.99,24.74h1389.99M-71.93,353.68h1389.99m-1389.99,24.74h1389.99m-1389.99,23.62h1389.99m-1389.99,23.62h1389.99M-71.93,474.01h1389.99m-1389.99,23.62h1389.99m-1389.99,24.74h1389.99m-1389.99,23.62h1389.99m-1389.99,48.36h1389.99m-1389.99,23.62h1389.99m-1389.99,23.62h1389.99m-1389.99,24.74h1389.99m-1389.99,47.23h1389.99m-1389.99,24.74h1389.99m-1389.99,23.62h1389.99m-1389.99,23.62h1389.99m-1389.99,48.36h1389.99m-1389.99,23.62h1389.99m-1389.99,24.74h1389.99m-1389.99,23.62h1389.99m-1389.99,48.36h1389.99m-1389.99,23.62h1389.99m-1389.99,23.62h1389.99"/>
          <path class="uuid-0080199b-6da8-4bef-95eb-9211dd8036d3" d="m624.75-1.12v1021.12"/>
          <path class="uuid-0080199b-6da8-4bef-95eb-9211dd8036d3" d="m-72.49,930.03h1388.86"/>
          <text class="uuid-cd9316e3-d777-4568-9be8-50a2455a3fc1" transform="translate(51.21 946.9)"><tspan x="0" y="0">–10</tspan></text>
          <text class="uuid-6172da1d-b215-44cd-b27e-da53932e39c7" transform="translate(51.21 946.9)"><tspan x="0" y="0">–10</tspan></text>
          <text class="uuid-cd9316e3-d777-4568-9be8-50a2455a3fc1" transform="translate(51.21 946.9)"><tspan x="0" y="0">–10</tspan></text>
          <text class="uuid-cd9316e3-d777-4568-9be8-50a2455a3fc1" transform="translate(188.41 946.9)"><tspan x="0" y="0">–7.5</tspan></text>
          <text class="uuid-6172da1d-b215-44cd-b27e-da53932e39c7" transform="translate(188.41 946.9)"><tspan x="0" y="0">–7.5</tspan></text>
          <text class="uuid-cd9316e3-d777-4568-9be8-50a2455a3fc1" transform="translate(188.41 946.9)"><tspan x="0" y="0">–7.5</tspan></text>
          <text class="uuid-cd9316e3-d777-4568-9be8-50a2455a3fc1" transform="translate(336.86 946.9)"><tspan x="0" y="0">–5</tspan></text>
          <text class="uuid-6172da1d-b215-44cd-b27e-da53932e39c7" transform="translate(336.86 946.9)"><tspan x="0" y="0">–5</tspan></text>
          <text class="uuid-cd9316e3-d777-4568-9be8-50a2455a3fc1" transform="translate(336.86 946.9)"><tspan x="0" y="0">–5</tspan></text>
          <text class="uuid-cd9316e3-d777-4568-9be8-50a2455a3fc1" transform="translate(470.68 946.9)"><tspan x="0" y="0">–2.5</tspan></text>
          <text class="uuid-6172da1d-b215-44cd-b27e-da53932e39c7" transform="translate(470.68 946.9)"><tspan x="0" y="0">–2.5</tspan></text>
          <text class="uuid-cd9316e3-d777-4568-9be8-50a2455a3fc1" transform="translate(470.68 946.9)"><tspan x="0" y="0">–2.5</tspan></text>
          <text class="uuid-cd9316e3-d777-4568-9be8-50a2455a3fc1" transform="translate(756.33 946.9)"><tspan x="0" y="0">2.5</tspan></text>
          <text class="uuid-6172da1d-b215-44cd-b27e-da53932e39c7" transform="translate(756.33 946.9)"><tspan x="0" y="0">2.5</tspan></text>
          <text class="uuid-cd9316e3-d777-4568-9be8-50a2455a3fc1" transform="translate(756.33 946.9)"><tspan x="0" y="0">2.5</tspan></text>
          <text class="uuid-cd9316e3-d777-4568-9be8-50a2455a3fc1" transform="translate(904.77 946.9)"><tspan x="0" y="0">5</tspan></text>
          <text class="uuid-6172da1d-b215-44cd-b27e-da53932e39c7" transform="translate(904.77 946.9)"><tspan x="0" y="0">5</tspan></text>
          <text class="uuid-cd9316e3-d777-4568-9be8-50a2455a3fc1" transform="translate(904.77 946.9)"><tspan x="0" y="0">5</tspan></text>
          <text class="uuid-cd9316e3-d777-4568-9be8-50a2455a3fc1" transform="translate(1038.6 946.9)"><tspan x="0" y="0">7.5</tspan></text>
          <text class="uuid-6172da1d-b215-44cd-b27e-da53932e39c7" transform="translate(1038.6 946.9)"><tspan x="0" y="0">7.5</tspan></text>
          <text class="uuid-cd9316e3-d777-4568-9be8-50a2455a3fc1" transform="translate(1038.6 946.9)"><tspan x="0" y="0">7.5</tspan></text>
          <text class="uuid-cd9316e3-d777-4568-9be8-50a2455a3fc1" transform="translate(1183.67 946.9)"><tspan x="0" y="0">10</tspan></text>
          <text class="uuid-6172da1d-b215-44cd-b27e-da53932e39c7" transform="translate(1183.67 946.9)"><tspan x="0" y="0">10</tspan></text>
          <text class="uuid-cd9316e3-d777-4568-9be8-50a2455a3fc1" transform="translate(1183.67 946.9)"><tspan x="0" y="0">10</tspan></text>
          <text class="uuid-cd9316e3-d777-4568-9be8-50a2455a3fc1" transform="translate(591.01 815.33)"><tspan x="0" y="0">0.43</tspan></text>
          <text class="uuid-6172da1d-b215-44cd-b27e-da53932e39c7" transform="translate(591.01 815.33)"><tspan x="0" y="0">0.43</tspan></text>
          <text class="uuid-cd9316e3-d777-4568-9be8-50a2455a3fc1" transform="translate(591.01 815.33)"><tspan x="0" y="0">0.43</tspan></text>
          <text class="uuid-cd9316e3-d777-4568-9be8-50a2455a3fc1" transform="translate(591.01 694.99)"><tspan x="0" y="0">0.85</tspan></text>
          <text class="uuid-6172da1d-b215-44cd-b27e-da53932e39c7" transform="translate(591.01 694.99)"><tspan x="0" y="0">0.85</tspan></text>
          <text class="uuid-cd9316e3-d777-4568-9be8-50a2455a3fc1" transform="translate(591.01 694.99)"><tspan x="0" y="0">0.85</tspan></text>
          <text class="uuid-cd9316e3-d777-4568-9be8-50a2455a3fc1" transform="translate(591.01 574.66)"><tspan x="0" y="0">1.28</tspan></text>
          <text class="uuid-6172da1d-b215-44cd-b27e-da53932e39c7" transform="translate(591.01 574.66)"><tspan x="0" y="0">1.28</tspan></text>
          <text class="uuid-cd9316e3-d777-4568-9be8-50a2455a3fc1" transform="translate(591.01 574.66)"><tspan x="0" y="0">1.28</tspan></text>
          <text class="uuid-cd9316e3-d777-4568-9be8-50a2455a3fc1" transform="translate(597.76 455.46)"><tspan x="0" y="0">1.7</tspan></text>
          <text class="uuid-6172da1d-b215-44cd-b27e-da53932e39c7" transform="translate(597.76 455.46)"><tspan x="0" y="0">1.7</tspan></text>
          <text class="uuid-cd9316e3-d777-4568-9be8-50a2455a3fc1" transform="translate(597.76 455.46)"><tspan x="0" y="0">1.7</tspan></text>
          <text class="uuid-cd9316e3-d777-4568-9be8-50a2455a3fc1" transform="translate(591.01 335.13)"><tspan x="0" y="0">2.13</tspan></text>
          <text class="uuid-6172da1d-b215-44cd-b27e-da53932e39c7" transform="translate(591.01 335.13)"><tspan x="0" y="0">2.13</tspan></text>
          <text class="uuid-cd9316e3-d777-4568-9be8-50a2455a3fc1" transform="translate(591.01 335.13)"><tspan x="0" y="0">2.13</tspan></text>
          <text class="uuid-cd9316e3-d777-4568-9be8-50a2455a3fc1" transform="translate(591.01 214.8)"><tspan x="0" y="0">2.55</tspan></text>
          <text class="uuid-6172da1d-b215-44cd-b27e-da53932e39c7" transform="translate(591.01 214.8)"><tspan x="0" y="0">2.55</tspan></text>
          <text class="uuid-cd9316e3-d777-4568-9be8-50a2455a3fc1" transform="translate(591.01 214.8)"><tspan x="0" y="0">2.55</tspan></text>
          <text class="uuid-cd9316e3-d777-4568-9be8-50a2455a3fc1" transform="translate(591.01 94.47)"><tspan x="0" y="0">2.98</tspan></text>
          <text class="uuid-6172da1d-b215-44cd-b27e-da53932e39c7" transform="translate(591.01 94.47)"><tspan x="0" y="0">2.98</tspan></text>
          <text class="uuid-cd9316e3-d777-4568-9be8-50a2455a3fc1" transform="translate(591.01 94.47)"><tspan x="0" y="0">2.98</tspan></text>
          <text class="uuid-cd9316e3-d777-4568-9be8-50a2455a3fc1" transform="translate(609.01 946.9)"><tspan x="0" y="0">0</tspan></text>
          <text class="uuid-6172da1d-b215-44cd-b27e-da53932e39c7" transform="translate(609.01 946.9)"><tspan x="0" y="0">0</tspan></text>
          <text class="uuid-cd9316e3-d777-4568-9be8-50a2455a3fc1" transform="translate(609.01 946.9)"><tspan x="0" y="0">0</tspan></text>
          <path class="uuid-7ea4407a-8052-47cf-b2b3-f3646413250c" d="m-72.49,65.67l5.43.18,5.43.18,5.43.18,5.43.19,5.43.19,5.43.19,5.43.2,5.43.2,5.43.2,5.43.21,5.43.21,5.43.21,5.43.22,5.43.22,5.43.22,5.43.23,5.43.23,5.43.24,5.43.24,5.43.25,5.43.25,5.43.25,5.43.26,5.43.26,5.43.27,5.43.27,5.43.28,5.43.29,5.43.29,5.43.3,5.43.3,5.43.31,5.43.32,5.43.32,5.43.33,5.43.34,5.43.34,5.43.35,5.43.36,5.43.37,5.43.37,5.43.38,5.43.39,5.43.4,5.43.41,5.43.42,5.43.43,5.43.44,5.43.45,5.43.46,5.43.47,5.43.49,5.43.5,5.43.51,5.43.53,5.43.54,5.43.56,5.43.57,5.43.59,5.43.6,5.43.62,5.43.64,5.43.66,5.43.68,5.43.7,5.43.72,5.43.74,5.43.77,5.43.79,5.43.82,5.43.85,5.43.88,5.43.91,5.43.94,5.43.97,5.43,1.01,5.43,1.05,5.43,1.09,5.43,1.13,5.43,1.17,5.43,1.22,5.43,1.27,5.43,1.32,5.43,1.38,5.43,1.44,5.43,1.5,5.43,1.57,5.43,1.64,5.43,1.72,5.43,1.81,5.43,1.9,5.43,1.99,5.43,2.09,5.43,2.21,5.43,2.33,5.43,2.46,5.43,2.6,5.43,2.75,5.43,2.92,5.43,3.1,5.43,3.3,5.43,3.52,5.43,3.75,5.43,4.01,5.43,4.3,5.43,4.62,5.43,4.97,5.43,5.36,5.43,5.79,5.43,6.28,5.43,6.81,5.43,7.42,5.43,8.09,5.43,8.84,5.43,9.68,5.43,10.63,2.71,5.7,2.71,5.98,2.71,6.27,2.71,6.58,2.71,6.91,2.71,7.25,2.71,7.6,2.71,7.97,2.71,8.35,2.71,8.75,2.71,9.16,2.71,9.58,2.71,10,2.71,10.42,2.71,10.84,1.36,5.58,1.36,5.68,1.36,5.78,1.36,5.88,1.36,5.97,1.36,6.06,1.36,6.15,1.36,6.23,1.36,6.31,1.36,6.39,1.36,6.46,1.36,6.52,1.36,6.58,1.36,6.63,1.36,6.67,1.36,6.71,1.36,6.74,1.36,6.76,1.36,6.78,1.36,6.79,1.36,6.79,1.36,6.78,1.36,6.76,1.36,6.74,1.36,6.7,1.36,6.67,1.36,6.62,1.36,6.57,1.36,6.51,1.36,6.44,1.36,6.37,1.36,6.3,1.36,6.22,1.36,6.13,1.36,6.04,1.36,5.95,1.36,5.85,1.36,5.76,2.71,11.21,2.71,10.79,2.71,10.37,2.71,9.95,2.71,9.53,2.71,9.11,2.71,8.71,2.71,8.31,2.71,7.93,2.71,7.56,2.71,7.21,2.71,6.87,2.71,6.55,2.71,6.24,2.71,5.95,2.71,5.67,5.43,10.57,5.43,9.63,5.43,8.8,5.43,8.05,5.43,7.38,5.43,6.78,5.43,6.25,5.43,5.77,5.43,5.34,5.43,4.95,5.43,4.6,5.43,4.29,5.43,4,5.43,3.74,5.43,3.5,5.43,3.29,5.43,3.09,5.43,2.91,5.43,2.74,5.43,2.59,5.43,2.45,5.43,2.32,5.43,2.2,5.43,2.09,5.43,1.99,5.43,1.89,5.43,1.8,5.43,1.72,5.43,1.64,5.43,1.57,5.43,1.5,5.43,1.44,5.43,1.38,5.43,1.32,5.43,1.27,5.43,1.22,5.43,1.17,5.43,1.12,5.43,1.08,5.43,1.04,5.43,1.01,5.43.97,5.43.94,5.43.9,5.43.87,5.43.85,5.43.82,5.43.79,5.43.77,5.43.74,5.43.72,5.43.7,5.43.68,5.43.66,5.43.64,5.43.62,5.43.6,5.43.59,5.43.57,5.43.55,5.43.54,5.43.53,5.43.51,5.43.5,5.43.49,5.43.47,5.43.46,5.43.45,5.43.44,5.43.43,5.43.42,5.43.41,5.43.4,5.43.39,5.43.38,5.43.37,5.43.37,5.43.36,5.43.35,5.43.34,5.43.34,5.43.33,5.43.32,5.43.31,5.43.31,5.43.3,5.43.3,5.43.29,5.43.28,5.43.28,5.43.27,5.43.27,5.43.26,5.43.26,5.43.25,5.43.25,5.43.24,5.43.24,5.43.24,5.43.23,5.43.23,5.43.22,5.43.22,5.43.22,5.43.21,5.43.21,5.43.21,5.43.2,5.43.2,5.43.2,5.43.19,5.43.19,5.43.19,5.43.18,5.43.18"/>
        </g>
      </g>
    </g>
  </g>
  <g id="uuid-7037c97f-9402-436c-9035-95a3d340cec6" data-name="Marco">
    <path class="uuid-4058fa3d-43bf-47f8-84a2-47d998316c31" d="m-2-2V1022h1249V-2H-2Zm1232,987c0,11.05-8.95,20-20,20H35c-11.05,0-20-8.95-20-20V35c0-11.05,8.95-20,20-20h1175c11.05,0,20,8.95,20,20v950Z"/>
  </g>
  <g id="uuid-f5ed955c-2b74-4719-b059-9c78588b3c8d" data-name="texto">
    <g>
      <path class="uuid-be3a7c9e-7fe0-4c39-8796-807bbd568042" d="m956.81,92.11c-.13-.99-.25-1.68-.37-2.06s-.31-.68-.57-.88-.68-.32-1.27-.36l.21-.96h5.02l1.48,15.53c4.4-6.02,6.6-10.33,6.6-12.93,0-.61-.13-1.03-.39-1.25s-.7-.35-1.33-.39l.2-.96h5.04l.53.98c-.69,1.81-1.57,3.68-2.65,5.62s-2.39,4.06-3.95,6.37-3.28,4.7-5.19,7.19c-1.46,1.91-2.68,3.36-3.67,4.34-.77.74-1.47,1.31-2.12,1.69s-1.27.66-1.88.82-1.25.24-1.92.24c-.35,0-.75-.04-1.19-.11-.44-.07-.82-.17-1.13-.28l.84-3.65h1.52c.01.44.12.79.31,1.05s.48.39.86.39c.42,0,.78-.04,1.07-.13.3-.08.62-.22.95-.42s.74-.51,1.21-.94,1.01-1,1.61-1.71,1.27-1.57,2.01-2.57l-1.86-14.63Z"/>
      <path class="uuid-be3a7c9e-7fe0-4c39-8796-807bbd568042" d="m982.83,92.4v-2.71h17.3v2.71h-17.3Zm0,8.11v-2.71h17.3v2.71h-17.3Z"/>
      <path class="uuid-be3a7c9e-7fe0-4c39-8796-807bbd568042" d="m1027.65,88.81l1.8-1.29,1.25.31-2.99,13.26c-.18.78-.31,1.38-.37,1.81s-.1.77-.1,1.04c0,.53.15.92.45,1.16s.87.39,1.72.46l-.18.96h-5.59l1.23-4.9-.25-.08c-1.25,1.82-2.43,3.16-3.55,4s-2.3,1.27-3.55,1.27c-1.43,0-2.54-.54-3.33-1.62s-1.18-2.6-1.18-4.55c0-1.25.14-2.5.43-3.76s.72-2.45,1.3-3.57,1.27-2.12,2.08-2.98,1.74-1.54,2.8-2.05,2.22-.76,3.47-.76c.81,0,1.58.09,2.3.28s1.48.52,2.27,1.01Zm-1.72,5.82c.12-.53.2-1,.23-1.39s.06-.81.06-1.27c0-1.02-.21-1.75-.64-2.22s-1.15-.69-2.15-.69c-.55,0-1.07.09-1.56.26s-1,.47-1.5.88-.99.95-1.46,1.61-.88,1.47-1.26,2.42-.67,1.97-.88,3.06-.31,2.15-.31,3.17c0,1.35.19,2.37.56,3.04s.99,1.01,1.87,1.01c.4,0,.82-.09,1.26-.27s.92-.52,1.46-1.01,1.14-1.21,1.82-2.16c.61-.87,1.1-1.74,1.46-2.59s.65-1.86.89-3.02l.18-.84Z"/>
      <path class="uuid-be3a7c9e-7fe0-4c39-8796-807bbd568042" d="m1040.17,87.67h1.17l-1.37,4.8.23.08c1.24-1.71,2.44-2.97,3.62-3.79s2.39-1.23,3.64-1.23c.95,0,1.75.07,2.38.21l-.94,4.38h-2.01c-.1-.68-.27-1.19-.49-1.54s-.57-.53-1.04-.53c-.51,0-1.09.26-1.76.78s-1.34,1.24-2.03,2.15-1.21,1.75-1.55,2.52-.61,1.62-.79,2.56l-1.78,8.46h-3.38l2.97-13.34c.27-1.22.41-2.16.41-2.79,0-.36-.06-.65-.18-.85s-.31-.35-.57-.45-.7-.17-1.33-.21l.21-1.04,4.55-.18Z"/>
      <path class="uuid-be3a7c9e-7fe0-4c39-8796-807bbd568042" d="m1062.65,92.54c-.03-.99-.11-1.71-.24-2.15s-.36-.77-.66-1-.74-.33-1.3-.33c-1.32,0-2.5.52-3.54,1.57s-1.9,2.53-2.57,4.45-1,3.77-1,5.54c0,.55.05,1.06.15,1.54s.27.9.51,1.25.56.63.96.83.9.3,1.51.3c1.18,0,2.21-.22,3.08-.67s1.78-1.16,2.74-2.12l1.19,1.19c-1.22,1.35-2.46,2.34-3.7,2.97s-2.58.94-4.01.94c-1.89,0-3.32-.56-4.3-1.68s-1.46-2.75-1.46-4.88c0-1.39.26-2.92.78-4.59s1.28-3.13,2.29-4.39,2.17-2.21,3.52-2.83,2.77-.94,4.3-.94c1.04,0,1.95.06,2.72.18s1.46.25,2.06.41l-.96,4.41h-2.05Z"/>
      <path class="uuid-be3a7c9e-7fe0-4c39-8796-807bbd568042" d="m1079.78,92.54c-.03-.99-.11-1.71-.24-2.15s-.36-.77-.66-1-.74-.33-1.3-.33c-1.32,0-2.5.52-3.54,1.57s-1.9,2.53-2.57,4.45-1,3.77-1,5.54c0,.55.05,1.06.15,1.54s.27.9.51,1.25.56.63.96.83.9.3,1.51.3c1.18,0,2.21-.22,3.08-.67s1.78-1.16,2.74-2.12l1.19,1.19c-1.22,1.35-2.46,2.34-3.7,2.97s-2.58.94-4.01.94c-1.89,0-3.32-.56-4.3-1.68s-1.46-2.75-1.46-4.88c0-1.39.26-2.92.78-4.59s1.28-3.13,2.29-4.39,2.17-2.21,3.52-2.83,2.77-.94,4.3-.94c1.04,0,1.95.06,2.72.18s1.46.25,2.06.41l-.96,4.41h-2.05Z"/>
      <path class="uuid-be3a7c9e-7fe0-4c39-8796-807bbd568042" d="m1090.54,106.85c-2.02,0-3.58-.57-4.7-1.7s-1.67-2.76-1.67-4.88c0-.78.1-1.7.29-2.75.25-1.37.6-2.58,1.05-3.63.59-1.32,1.34-2.45,2.26-3.41s1.97-1.69,3.16-2.19,2.47-.75,3.84-.75c1.5,0,2.72.29,3.68.86s1.65,1.35,2.08,2.33.64,2.12.64,3.41c0,1.16-.16,2.4-.49,3.71-.47,1.93-1.15,3.56-2.05,4.9s-2.02,2.36-3.38,3.06-2.93,1.04-4.73,1.04Zm-2.95-5.74c0,1.43.3,2.49.89,3.17s1.49,1.03,2.69,1.03c1.28,0,2.41-.57,3.4-1.72s1.77-2.75,2.34-4.81.86-3.88.86-5.44c0-1.41-.27-2.46-.82-3.17s-1.4-1.06-2.56-1.06c-1.35,0-2.54.57-3.54,1.7s-1.8,2.75-2.38,4.86-.87,3.93-.87,5.45Z"/>
      <path class="uuid-be3a7c9e-7fe0-4c39-8796-807bbd568042" d="m1116.01,102.93c-1.07,1.29-2.12,2.26-3.16,2.92s-2.15.99-3.32.99c-1.38,0-2.41-.35-3.09-1.05s-1.02-1.73-1.02-3.07c0-.82.12-1.74.35-2.75l2.42-10.14h-2.91l.21-1c.77-.09,1.38-.26,1.83-.5s.83-.56,1.13-.96.59-.92.85-1.55.59-1.57.98-2.79h2.7l-1.07,4.82h6.19l-.43,1.97h-6.21l-1.88,7.58c-.52,2.11-.78,3.68-.78,4.73,0,.79.17,1.4.52,1.81s.85.62,1.51.62c.6,0,1.23-.23,1.88-.69s1.38-1.16,2.16-2.1l1.13,1.17Z"/>
      <path class="uuid-be3a7c9e-7fe0-4c39-8796-807bbd568042" d="m1143.92,88.81c-2.53,2.7-5.17,5.36-7.93,7.99l1.82,4.28c.48,1.15.87,1.99,1.15,2.53.29.54.55.93.78,1.17s.47.42.7.53.61.2,1.11.26l-.21.96h-4.86l-2.71-7.85c-.31.27-.73.65-1.24,1.14s-1.01,1.01-1.49,1.56-.82,1-1.02,1.34-.32.63-.38.88-.09.5-.09.76c0,.34.09.61.28.8s.51.33.97.41l-.21.96h-5.57l-.37-.96c2.85-3.06,5.66-5.88,8.42-8.46l-1.86-4.36c-.38-.89-.68-1.56-.92-2.02s-.46-.82-.67-1.07-.46-.45-.74-.59-.68-.22-1.2-.26l.21-.96h4.86l2.6,7.36c.64-.59,1.24-1.19,1.82-1.82.57-.62.98-1.12,1.21-1.48s.4-.69.49-.98c.09-.29.14-.59.14-.9,0-.72-.42-1.13-1.25-1.23l.21-.96h5.57l.39.96Z"/>
    </g>
  </g>
</svg>