<?xml version="1.0" encoding="UTF-8"?><svg xmlns="http://www.w3.org/2000/svg" xmlns:xlink="http://www.w3.org/1999/xlink" viewBox="0 0 1948 1010.14"><defs><style>.f,.g,.h,.i,.j,.k,.l,.m,.n,.o,.p,.q,.r{fill:none;}.f,.s,.t,.q{isolation:isolate;}.f,.t{font-family:Helvetica-Bold, Helvetica;font-size:13.27px;font-weight:700;}.f,.q{stroke:#fff;stroke-linejoin:bevel;stroke-width:3px;}.g{stroke:rgba(128,0,128,.7);stroke-width:4px;}.g,.j,.k,.l,.o,.r{stroke-linecap:round;stroke-linejoin:round;}.s,.t{fill:#252525;}.s,.q{font-family:HelveticaNeue-UltraLight, 'Helvetica Neue';font-size:13.4px;font-weight:100;}.u{fill:#fff;}.h{clip-path:url(#c);}.i{clip-path:url(#b);}.j{stroke:rgba(211,47,47,.7);}.j,.k,.l,.o,.p{stroke-width:2.5px;}.k{stroke:rgba(102,204,255,.7);}.l{stroke:rgba(255,153,204,.7);}.m{stroke:#252525;stroke-width:2px;}.m,.p{stroke-miterlimit:10;}.v{fill:#00699b;}.o{stroke:rgba(0,0,255,.7);}.p{stroke:#4c4d4d;stroke-linecap:square;}.r{stroke:rgba(0,153,0,.8);stroke-width:7px;}</style><clipPath id="b"><rect class="n" x="13.13" y="14.01" width="1204.87" height="990.47"/></clipPath><clipPath id="c"><rect class="n" y="14.61" width="1931.65" height="980.91"/></clipPath></defs><g id="a"><path class="j" d="m855.76,651.99l1.12-187.34"/><path class="j" d="m856.88,464.65l-249.95.51"/><path class="j" d="m911.6,651.99v-228.65"/><path class="j" d="m911.6,423.34l-304.68-1.73"/><g class="i"><rect class="u" x="13.13" y="14.01" width="1204.87" height="990.47"/><path class="m" d="m601.61,17.36v987.12"/><path class="m" d="m601.61,16.25l-5.58,5.58"/><path class="m" d="m601.61,16.25l5.58,5.58"/><path class="m" d="m13.13,815.77h1201.52"/><path class="m" d="m1215.77,815.77l-5.58-5.58"/><path class="m" d="m1215.77,815.77l-5.58,5.58"/><text class="s" transform="translate(58.91 833.64)"><tspan x="0" y="0">–3</tspan></text><text class="q" transform="translate(58.91 833.64)"><tspan x="0" y="0">–3</tspan></text><text class="s" transform="translate(58.91 833.64)"><tspan x="0" y="0">–3</tspan></text><path class="m" d="m65.61,815.77v3.35"/><text class="s" transform="translate(236.46 833.64)"><tspan x="0" y="0">–2</tspan></text><text class="q" transform="translate(236.46 833.64)"><tspan x="0" y="0">–2</tspan></text><text class="s" transform="translate(236.46 833.64)"><tspan x="0" y="0">–2</tspan></text><path class="m" d="m244.28,815.77v3.35"/><text class="s" transform="translate(415.12 833.64)"><tspan x="0" y="0">–1</tspan></text><text class="q" transform="translate(415.12 833.64)"><tspan x="0" y="0">–1</tspan></text><text class="s" transform="translate(415.12 833.64)"><tspan x="0" y="0">–1</tspan></text><path class="m" d="m422.94,815.77v3.35"/><path class="m" d="m601.61,815.77v3.35"/><text class="s" transform="translate(775.8 833.64)"><tspan x="0" y="0">1</tspan></text><text class="q" transform="translate(775.8 833.64)"><tspan x="0" y="0">1</tspan></text><text class="s" transform="translate(775.8 833.64)"><tspan x="0" y="0">1</tspan></text><path class="m" d="m779.15,815.77v3.35"/><text class="s" transform="translate(954.47 833.64)"><tspan x="0" y="0">2</tspan></text><text class="q" transform="translate(954.47 833.64)"><tspan x="0" y="0">2</tspan></text><text class="s" transform="translate(954.47 833.64)"><tspan x="0" y="0">2</tspan></text><path class="m" d="m957.82,815.77v3.35"/><text class="s" transform="translate(1133.13 833.64)"><tspan x="0" y="0">3</tspan></text><text class="q" transform="translate(1133.13 833.64)"><tspan x="0" y="0">3</tspan></text><text class="s" transform="translate(1133.13 833.64)"><tspan x="0" y="0">3</tspan></text><path class="m" d="m1136.48,815.77v3.35"/><path class="m" d="m598.26,935.26h3.35"/><path class="m" d="m598.26,697.41h3.35"/><path class="m" d="m598.26,577.93h3.35"/><path class="m" d="m598.26,459.56h3.35"/><path class="m" d="m598.26,340.08h3.35"/><path class="m" d="m598.26,220.6h3.35"/><path class="m" d="m598.26,102.23h3.35"/><text class="s" transform="translate(578.16 939.72)"><tspan x="0" y="0">–1</tspan></text><text class="q" transform="translate(578.16 939.72)"><tspan x="0" y="0">–1</tspan></text><text class="s" transform="translate(578.16 939.72)"><tspan x="0" y="0">–1</tspan></text><text class="s" transform="translate(584.86 701.88)"><tspan x="0" y="0">1</tspan></text><text class="q" transform="translate(584.86 701.88)"><tspan x="0" y="0">1</tspan></text><text class="s" transform="translate(584.86 701.88)"><tspan x="0" y="0">1</tspan></text><text class="s" transform="translate(584.86 583.51)"><tspan x="0" y="0">2</tspan></text><text class="q" transform="translate(584.86 583.51)"><tspan x="0" y="0">2</tspan></text><text class="s" transform="translate(584.86 583.51)"><tspan x="0" y="0">2</tspan></text><text class="s" transform="translate(584.86 464.03)"><tspan x="0" y="0">3</tspan></text><text class="q" transform="translate(584.86 464.03)"><tspan x="0" y="0">3</tspan></text><text class="s" transform="translate(584.86 464.03)"><tspan x="0" y="0">3</tspan></text><text class="s" transform="translate(584.86 345.66)"><tspan x="0" y="0">4</tspan></text><text class="q" transform="translate(584.86 345.66)"><tspan x="0" y="0">4</tspan></text><text class="s" transform="translate(584.86 345.66)"><tspan x="0" y="0">4</tspan></text><text class="s" transform="translate(584.86 226.18)"><tspan x="0" y="0">5</tspan></text><text class="q" transform="translate(584.86 226.18)"><tspan x="0" y="0">5</tspan></text><text class="s" transform="translate(584.86 226.18)"><tspan x="0" y="0">5</tspan></text><text class="s" transform="translate(584.86 106.7)"><tspan x="0" y="0">6</tspan></text><text class="q" transform="translate(584.86 106.7)"><tspan x="0" y="0">6</tspan></text><text class="s" transform="translate(584.86 106.7)"><tspan x="0" y="0">6</tspan></text><text class="s" transform="translate(584.86 833.64)"><tspan x="0" y="0">0</tspan></text><text class="q" transform="translate(584.86 833.64)"><tspan x="0" y="0">0</tspan></text><text class="s" transform="translate(584.86 833.64)"><tspan x="0" y="0">0</tspan></text><path class="g" d="m65.85,1291.86C303.99,339.31,542.13,22.33,780.26,340.93"/><path class="g" d="m786.14,815.83c176.29-8.54,352.58-365.39,528.87-1070.55"/><path class="g" d="m765.38,815.23c2.86.31,4.72.52,7.58.64"/><path class="k" d="m690.43,815.99V250.89"/><path class="k" d="m690.43,250.89h-89.23"/><path class="k" d="m761.81,815.99v-498.47"/><path class="k" d="m761.81,317.52h-160.61"/><path class="l" d="m833.19,815.99v-10.71"/><path class="l" d="m833.19,805.28h-231.99"/><path class="l" d="m868.88,815.99v-29.74"/><path class="l" d="m868.88,786.25h-267.68"/></g><path class="p" d="m785.09,815.62c0,3.07-2.49,5.56-5.56,5.56s-5.56-2.49-5.56-5.56,2.49-5.56,5.56-5.56,5.56,2.49,5.56,5.56Z"/><g class="h"><rect class="u" y="14.61" width="1931.65" height="980.91"/><path class="m" d="m957.69,17.93v977.6"/><path class="m" d="m957.69,16.83l-5.53,5.53"/><path class="m" d="m957.69,16.83l5.53,5.53"/><path class="m" d="m0,505.62h1927.33"/><path class="m" d="m1923.91,511.15l5.53-5.53-5.53-5.53"/><text class="t" transform="translate(25.44 523.32)"><tspan x="0" y="0">–8</tspan></text><text class="f" transform="translate(25.44 523.32)"><tspan x="0" y="0">–8</tspan></text><text class="t" transform="translate(25.44 523.32)"><tspan x="0" y="0">–8</tspan></text><path class="m" d="m33.18,505.62v3.32"/><text class="t" transform="translate(141.55 523.32)"><tspan x="0" y="0">–7</tspan></text><text class="f" transform="translate(141.55 523.32)"><tspan x="0" y="0">–7</tspan></text><text class="t" transform="translate(141.55 523.32)"><tspan x="0" y="0">–7</tspan></text><path class="m" d="m149.29,505.62v3.32"/><text class="t" transform="translate(256.56 523.32)"><tspan x="0" y="0">–6</tspan></text><text class="f" transform="translate(256.56 523.32)"><tspan x="0" y="0">–6</tspan></text><text class="t" transform="translate(256.56 523.32)"><tspan x="0" y="0">–6</tspan></text><path class="m" d="m264.3,505.62v3.32"/><text class="t" transform="translate(372.68 523.32)"><tspan x="0" y="0">–5</tspan></text><text class="f" transform="translate(372.68 523.32)"><tspan x="0" y="0">–5</tspan></text><text class="t" transform="translate(372.68 523.32)"><tspan x="0" y="0">–5</tspan></text><path class="m" d="m379.32,505.62v3.32"/><text class="t" transform="translate(487.69 523.32)"><tspan x="0" y="0">–4</tspan></text><text class="f" transform="translate(487.69 523.32)"><tspan x="0" y="0">–4</tspan></text><text class="t" transform="translate(487.69 523.32)"><tspan x="0" y="0">–4</tspan></text><path class="m" d="m495.43,505.62v3.32"/><text class="t" transform="translate(603.81 523.32)"><tspan x="0" y="0">–3</tspan></text><text class="f" transform="translate(603.81 523.32)"><tspan x="0" y="0">–3</tspan></text><text class="t" transform="translate(603.81 523.32)"><tspan x="0" y="0">–3</tspan></text><path class="m" d="m610.44,505.62v3.32"/><text class="t" transform="translate(718.82 523.32)"><tspan x="0" y="0">–2</tspan></text><text class="f" transform="translate(718.82 523.32)"><tspan x="0" y="0">–2</tspan></text><text class="t" transform="translate(718.82 523.32)"><tspan x="0" y="0">–2</tspan></text><path class="m" d="m726.56,505.62v3.32"/><text class="t" transform="translate(834.94 523.32)"><tspan x="0" y="0">–1</tspan></text><text class="f" transform="translate(834.94 523.32)"><tspan x="0" y="0">–1</tspan></text><text class="t" transform="translate(834.94 523.32)"><tspan x="0" y="0">–1</tspan></text><path class="m" d="m841.57,505.62v3.32"/><path class="m" d="m957.69,505.62v3.32"/><text class="t" transform="translate(1069.38 523.32)"><tspan x="0" y="0">1</tspan></text><text class="f" transform="translate(1069.38 523.32)"><tspan x="0" y="0">1</tspan></text><text class="t" transform="translate(1069.38 523.32)"><tspan x="0" y="0">1</tspan></text><path class="m" d="m1072.7,505.62v3.32"/><text class="t" transform="translate(1185.5 523.32)"><tspan x="0" y="0">2</tspan></text><text class="f" transform="translate(1185.5 523.32)"><tspan x="0" y="0">2</tspan></text><text class="t" transform="translate(1185.5 523.32)"><tspan x="0" y="0">2</tspan></text><path class="m" d="m1188.82,505.62v3.32"/><text class="t" transform="translate(1300.51 523.32)"><tspan x="0" y="0">3</tspan></text><text class="f" transform="translate(1300.51 523.32)"><tspan x="0" y="0">3</tspan></text><text class="t" transform="translate(1300.51 523.32)"><tspan x="0" y="0">3</tspan></text><path class="m" d="m1303.83,505.62v3.32"/><text class="t" transform="translate(1416.63 523.32)"><tspan x="0" y="0">4</tspan></text><text class="f" transform="translate(1416.63 523.32)"><tspan x="0" y="0">4</tspan></text><text class="t" transform="translate(1416.63 523.32)"><tspan x="0" y="0">4</tspan></text><path class="m" d="m1419.95,505.62v3.32"/><text class="t" transform="translate(1531.64 523.32)"><tspan x="0" y="0">5</tspan></text><text class="f" transform="translate(1531.64 523.32)"><tspan x="0" y="0">5</tspan></text><text class="t" transform="translate(1531.64 523.32)"><tspan x="0" y="0">5</tspan></text><path class="m" d="m1534.96,505.62v3.32"/><text class="t" transform="translate(1646.65 523.32)"><tspan x="0" y="0">6</tspan></text><text class="f" transform="translate(1646.65 523.32)"><tspan x="0" y="0">6</tspan></text><text class="t" transform="translate(1646.65 523.32)"><tspan x="0" y="0">6</tspan></text><path class="m" d="m1651.08,505.62v3.32"/><text class="t" transform="translate(1762.77 523.32)"><tspan x="0" y="0">7</tspan></text><text class="f" transform="translate(1762.77 523.32)"><tspan x="0" y="0">7</tspan></text><text class="t" transform="translate(1762.77 523.32)"><tspan x="0" y="0">7</tspan></text><path class="m" d="m1766.09,505.62v3.32"/><text class="t" transform="translate(1877.78 523.32)"><tspan x="0" y="0">8</tspan></text><text class="f" transform="translate(1877.78 523.32)"><tspan x="0" y="0">8</tspan></text><text class="t" transform="translate(1877.78 523.32)"><tspan x="0" y="0">8</tspan></text><path class="m" d="m1881.1,505.62v3.32"/><path class="m" d="m954.37,967.88h3.32"/><path class="m" d="m954.37,852.87h3.32"/><path class="m" d="m954.37,736.75h3.32"/><path class="m" d="m954.37,621.74h3.32"/><path class="m" d="m954.37,390.61h3.32"/><path class="m" d="m954.37,274.49h3.32"/><path class="m" d="m954.37,159.48h3.32"/><path class="m" d="m954.37,43.37h3.32"/><text class="t" transform="translate(934.47 972.31)"><tspan x="0" y="0">–8</tspan></text><text class="f" transform="translate(934.47 972.31)"><tspan x="0" y="0">–8</tspan></text><text class="t" transform="translate(934.47 972.31)"><tspan x="0" y="0">–8</tspan></text><text class="t" transform="translate(934.47 857.29)"><tspan x="0" y="0">–6</tspan></text><text class="f" transform="translate(934.47 857.29)"><tspan x="0" y="0">–6</tspan></text><text class="t" transform="translate(934.47 857.29)"><tspan x="0" y="0">–6</tspan></text><text class="t" transform="translate(934.47 742.28)"><tspan x="0" y="0">–4</tspan></text><text class="f" transform="translate(934.47 742.28)"><tspan x="0" y="0">–4</tspan></text><text class="t" transform="translate(934.47 742.28)"><tspan x="0" y="0">–4</tspan></text><text class="t" transform="translate(934.47 626.16)"><tspan x="0" y="0">–2</tspan></text><text class="f" transform="translate(934.47 626.16)"><tspan x="0" y="0">–2</tspan></text><text class="t" transform="translate(934.47 626.16)"><tspan x="0" y="0">–2</tspan></text><text class="t" transform="translate(941.1 395.04)"><tspan x="0" y="0">2</tspan></text><text class="f" transform="translate(941.1 395.04)"><tspan x="0" y="0">2</tspan></text><text class="t" transform="translate(941.1 395.04)"><tspan x="0" y="0">2</tspan></text><text class="t" transform="translate(941.1 280.03)"><tspan x="0" y="0">4</tspan></text><text class="f" transform="translate(941.1 280.03)"><tspan x="0" y="0">4</tspan></text><text class="t" transform="translate(941.1 280.03)"><tspan x="0" y="0">4</tspan></text><text class="t" transform="translate(941.1 163.91)"><tspan x="0" y="0">6</tspan></text><text class="f" transform="translate(941.1 163.91)"><tspan x="0" y="0">6</tspan></text><text class="t" transform="translate(941.1 163.91)"><tspan x="0" y="0">6</tspan></text><text class="t" transform="translate(941.1 48.9)"><tspan x="0" y="0">8</tspan></text><text class="f" transform="translate(941.1 48.9)"><tspan x="0" y="0">8</tspan></text><text class="t" transform="translate(941.1 48.9)"><tspan x="0" y="0">8</tspan></text><text class="t" transform="translate(941.1 523.32)"><tspan x="0" y="0">0</tspan></text><text class="f" transform="translate(941.1 523.32)"><tspan x="0" y="0">0</tspan></text><text class="t" transform="translate(941.1 523.32)"><tspan x="0" y="0">0</tspan></text><path class="r" d="m0,515.84l3.77.06,3.77.06,3.77.06,3.77.06,3.77.06,3.77.06,3.77.06,3.77.06,3.77.06,3.77.06,3.77.06,3.77.06,3.77.06,3.77.06,3.77.06,3.77.07,3.77.07,3.77.07,3.77.07,3.77.07,3.77.07,3.77.07,3.77.07,3.77.07,3.77.07,3.77.07,3.77.07,3.77.08,3.77.08,3.77.08,3.77.08,3.77.08,3.77.08,3.77.08,3.77.08,3.77.08,3.77.08,3.77.09,3.77.09,3.77.09,3.77.09,3.77.09,3.77.09,3.77.09,3.77.09,3.77.1,3.77.1,3.77.1,3.77.1,3.77.1,3.77.1,3.77.1,3.77.11,3.77.11,3.77.11,3.77.11,3.77.11,3.77.11,3.77.12,3.77.12,3.77.12,3.77.12,3.77.12,3.77.13,3.77.13,3.77.13,3.77.13,3.77.13,3.77.14,3.77.14,3.77.14,3.77.14,3.77.15,3.77.15,3.77.15,3.77.15,3.77.16,3.77.16,3.77.16,3.77.16,3.77.17,3.77.17,3.77.17,3.77.18,3.77.18,3.77.18,3.77.19,3.77.19,3.77.19,3.77.2,3.77.2,3.77.21,3.77.21,3.77.22,3.77.22,3.77.22,3.77.23,3.77.23,3.77.24,3.77.24,3.77.25,3.77.26,3.77.26,3.77.27,3.77.27,3.77.28,3.77.29,3.77.29,3.77.3,3.77.31,3.77.32,3.77.32,3.77.33,3.77.34,3.77.35,3.77.36,3.77.37,3.77.38,3.77.39,3.77.4,3.77.41,3.77.42,3.77.44,3.77.45,3.77.46,3.77.48,3.77.49,3.77.51,3.77.52,3.77.54,3.77.56,3.77.58,3.77.6,3.77.62,3.77.64,3.77.66,3.77.68,3.77.71,3.77.74,3.77.76,3.77.79,3.77.83,3.77.86,3.77.89,3.77.93,3.77.97,3.77,1.02,3.77,1.06,3.77,1.11,3.77,1.16,3.77,1.22,3.77,1.28,3.77,1.34,3.77,1.41,3.77,1.49,3.77,1.57,3.77,1.66,3.77,1.76,3.77,1.86,3.77,1.97,3.77,2.1,3.77,2.24,3.77,2.39,3.77,2.55,3.77,2.74,3.77,2.94,3.77,3.17,3.77,3.43,3.77,3.72,3.77,4.05,3.77,4.42,3.77,4.84,3.77,5.33,3.77,5.9,3.77,6.57,3.77,7.35,3.77,8.28,3.77,9.4,3.77,10.76,1.88,5.99,1.88,6.45,1.88,6.98,1.88,7.57,1.88,8.24,1.88,9,1.88,9.87,1.88,10.87.94,5.86.94,6.18.94,6.52.94,6.89.94,7.29.94,7.72.94,8.2.94,8.73.94,9.3.94,9.94.94,10.64.47,5.61.47,5.81.47,6.03.47,6.26.47,6.5.47,6.75.47,7.03.47,7.32.47,7.62.47,7.95.47,8.3.47,8.67.47,9.06.47,9.49.47,9.94.47,10.43.47,10.96.24,5.69.24,5.84.24,5.99.24,6.15.24,6.31.24,6.49.24,6.66.24,6.85.24,7.05M743.26,7.24l.24,6.81.24,6.63.24,6.45.24,6.28.24,6.12.24,5.96.24,5.81.24,5.66.24,5.52.47,10.64.47,10.14.47,9.67.47,9.23.47,8.82.47,8.44.47,8.08.47,7.75.47,7.43.47,7.14.47,6.86.47,6.6.47,6.35.47,6.12.47,5.89.47,5.69.47,5.49.94,10.42.94,9.74.94,9.12.94,8.56.94,8.05.94,7.59.94,7.16.94,6.77.94,6.41.94,6.08.94,5.77.94,5.49,1.88,10.2,1.88,9.28,1.88,8.49,1.88,7.79,1.88,7.17,1.88,6.62,1.88,6.14,1.88,5.7,3.77,10.27,3.77,9,3.77,7.94,3.77,7.06,3.77,6.32,3.77,5.69,3.77,5.15,3.77,4.68,3.77,4.27,3.77,3.91,3.77,3.6,3.77,3.32,3.77,3.07,3.77,2.85,3.77,2.65,3.77,2.47,3.77,2.3,3.77,2.16,3.77,2.02,3.77,1.9,3.77,1.79,3.77,1.68,3.77,1.59,3.77,1.5,3.77,1.42,3.77,1.34,3.77,1.27,3.77,1.21,3.77,1.15,3.77,1.09,3.77,1.04,3.77.99,3.77.94,3.77.9,3.77.85,3.77.81,3.77.78,3.77.74,3.77.71,3.77.68,3.77.65,3.77.62,3.77.59,3.77.56,3.77.54,3.77.51,3.77.49,3.77.46,3.77.44,3.77.42,3.77.4,3.77.38,3.77.36,3.77.34,3.77.32,3.77.3,3.77.28,3.77.26,3.77.24,3.77.22,3.77.21,3.77.19,3.77.17,3.77.15,3.77.13,3.77.11,3.77.09,3.77.07,3.77.05,3.77.03h3.77s3.77-.02,3.77-.02l3.77-.05,3.77-.07,3.77-.1,3.77-.13,3.77-.16,3.77-.2,3.77-.23,3.77-.27,3.77-.32,3.77-.37,3.77-.42,3.77-.48,3.77-.54,3.77-.61,3.77-.7,3.77-.79,3.77-.9,3.77-1.02,3.77-1.16,3.77-1.33,3.77-1.54,3.77-1.78,3.77-2.07,3.77-2.44,3.77-2.9,3.77-3.49,3.77-4.26,3.77-5.31,3.77-6.77,3.77-8.9,1.88-5.59,1.88-6.62,1.88-7.95,1.88-9.74.94-5.73.94-6.45.94-7.32.94-8.37.94-9.66.47-5.41.47-5.86.47-6.37.47-6.95.47-7.62.47-8.38.47-9.26.47-10.29.24-5.59.24-5.91.24-6.27.24-6.66.24-7.09.24-7.56.24-8.08.24-8.66.24-9.3.24-10.01.24-10.81.12-5.74.12-5.98.12-6.23.12-6.5.12-6.79.12-7.09.12-7.42.12-7.78.12-8.15.12-8.56.12-9,.12-9.47.12-9.98.12-10.53.06-5.49.06-5.64.06-5.8.06-5.97.06-6.15.06-6.34.06-6.53.06-6.73.06-6.95.06-7.17.06-7.4.06-7.65.06-7.91.06-8.18m6.65,1004.58l.06-9.32.06-8.99.06-8.68.06-8.38.06-8.1.06-7.84.06-7.58.06-7.34.06-7.11.06-6.89.06-6.68.06-6.48.06-6.29.06-6.1.06-5.93.06-5.76.06-5.6.12-10.74.12-10.17.12-9.65.12-9.16.12-8.71.12-8.3.12-7.91.12-7.55.12-7.21.12-6.9.12-6.6.12-6.33.12-6.07.12-5.82.24-10.97.24-10.15.24-9.43.24-8.77.24-8.19.24-7.66.24-7.17.24-6.74.24-6.34.24-5.98.24-5.64.47-10.39.47-9.35.47-8.45.47-7.68.47-7.01.47-6.43.47-5.91.47-5.45.94-9.73.94-8.43.94-7.37.94-6.5.94-5.77,1.88-9.8,1.88-8,1.88-6.66,1.88-5.62,3.77-8.97,3.77-6.83,3.77-5.36,3.77-4.32,3.77-3.55,3.77-2.96,3.77-2.51,3.77-2.15,3.77-1.85,3.77-1.62,3.77-1.42,3.77-1.26,3.77-1.12,3.77-1,3.77-.9,3.77-.81,3.77-.73,3.77-.67,3.77-.61,3.77-.56,3.77-.51,3.77-.47,3.77-.43,3.77-.4,3.77-.37,3.77-.34,3.77-.32,3.77-.29,3.77-.27,3.77-.25,3.77-.24,3.77-.22,3.77-.21,3.77-.19,3.77-.18,3.77-.17,3.77-.16,3.77-.15,3.77-.14,3.77-.13,3.77-.12,3.77-.12,3.77-.11,3.77-.1,3.77-.1,3.77-.09,3.77-.09,3.77-.08,3.77-.08,3.77-.07,3.77-.07,3.77-.06,3.77-.06,3.77-.06,3.77-.05,3.77-.05,3.77-.05,3.77-.04,3.77-.04,3.77-.04,3.77-.04,3.77-.03,3.77-.03,3.77-.03,3.77-.03,3.77-.03,3.77-.03,3.77-.02,3.77-.02,3.77-.02,3.77-.02,3.77-.02,3.77-.02,3.77-.02h3.77s3.77-.03,3.77-.03h3.77s3.77-.02,3.77-.02h3.77s3.77-.02,3.77-.02h3.77s3.77-.02,3.77-.02h3.77s3.77-.01,3.77-.01h3.77s3.77,0,3.77,0h3.77s3.77,0,3.77,0h3.77s3.77,0,3.77,0h3.77s3.77,0,3.77,0h3.77s3.77,0,3.77,0h3.77s3.77,0,3.77,0h3.77s3.77,0,3.77,0h3.77s3.77,0,3.77,0h3.77s3.77,0,3.77,0h3.77s3.77,0,3.77,0h3.77s3.77,0,3.77,0h3.77s3.77.01,3.77.01h3.77s3.77.01,3.77.01h3.77s3.77.01,3.77.01h3.77s3.77.01,3.77.01h3.77s3.77.01,3.77.01h3.77s3.77.01,3.77.01h3.77s3.77.02,3.77.02h3.77s3.77.02,3.77.02h3.77s3.77.02,3.77.02h3.77s3.77.02,3.77.02h3.77s3.77.02,3.77.02h3.77s3.77.02,3.77.02h3.77s3.77.02,3.77.02h3.77s3.77.02,3.77.02h3.77s3.77.02,3.77.02h3.77s3.77.02,3.77.02h3.77s3.77.02,3.77.02h3.77s3.77.02,3.77.02h3.77s3.77.02,3.77.02h3.77s3.77.02,3.77.02h3.77s3.77.02,3.77.02h3.77s3.77.02,3.77.02h3.77s3.77.02,3.77.02h3.77s3.77.02,3.77.02h3.77s3.77.02,3.77.02h3.77s3.77.02,3.77.02h3.77s3.77.02,3.77.02h3.77s3.77.02,3.77.02h3.77s3.77.02,3.77.02h3.77s3.77.02,3.77.02h3.77s3.77.02,3.77.02h3.77s3.77.02,3.77.02h3.77s3.77.02,3.77.02h3.77s3.77.02,3.77.02h3.77s3.77.02,3.77.02h3.77s3.77.02,3.77.02h3.77s3.77.02,3.77.02h3.77s3.77.02,3.77.02h3.77s3.77.02,3.77.02h3.77s3.77.02,3.77.02h3.77s3.77.02,3.77.02h3.77s7.77.02,7.77.02"/><path class="o" d="m1188.48,1001.06V9.08"/></g></g><g id="d"><path class="v" d="m-.58-1.89v1013.91h1949.15V-1.89H-.58Zm1932.15,976.91c0,11.05-8.95,20-20,20H36.42c-11.05,0-20-8.95-20-20V35.11c0-11.05,8.95-20,20-20h1875.15c11.05,0,20,8.95,20,20v939.91Z"/></g></svg>